<?xml version="1.0" encoding="UTF-8" standalone="no"?>
<!DOCTYPE svg PUBLIC "-//W3C//DTD SVG 1.1//EN"
 "http://www.w3.org/Graphics/SVG/1.1/DTD/svg11.dtd">
<!-- Generated by graphviz version 12.2.0 (20241103.1931)
 -->
<!-- Title: ArgParser.cxx Pages: 1 -->
<!--zoomable 193 -->

<svg id="main" version="1.1" xmlns="http://www.w3.org/2000/svg" xmlns:xlink="http://www.w3.org/1999/xlink" xml:space="preserve" onload="init(evt)">

<style type="text/css"><![CDATA[
.node, .edge {opacity: 0.7;}
.node.selected, .edge.selected {opacity: 1;}
.edge:hover path { stroke: red; }
.edge:hover polygon { stroke: red; fill: red; }
]]></style>

<defs>
  <circle id="rim" cx="0" cy="0" r="7"/>
  <circle id="rim2" cx="0" cy="0" r="3.5"/>
  <g id="zoomPlus">
    <use xlink:href="#rim" fill="#404040"><set attributeName="fill" to="#808080" begin="zoomplus.mouseover" end="zoomplus.mouseout"/></use>
    <path d="M-4,0h8M0,-4v8" fill="none" stroke="white" stroke-width="1.5" pointer-events="none"/>
  </g>
  <g id="zoomMin">
    <use xlink:href="#rim" fill="#404040"><set attributeName="fill" to="#808080" begin="zoomminus.mouseover" end="zoomminus.mouseout"/></use>
    <path d="M-4,0h8" fill="none" stroke="white" stroke-width="1.5" pointer-events="none"/>
  </g>
  <g id="arrowUp" transform="translate(30 24)">
    <use xlink:href="#rim"/>
    <path pointer-events="none" fill="none" stroke="white" stroke-width="1.5" d="M0,-3.0v7 M-2.5,-0.5L0,-3.0L2.5,-0.5"/>
  </g>
  <g id="arrowRight" transform="rotate(90) translate(36 -43)">
    <use xlink:href="#rim"/>
    <path pointer-events="none" fill="none" stroke="white" stroke-width="1.5" d="M0,-3.0v7 M-2.5,-0.5L0,-3.0L2.5,-0.5"/>
  </g>
  <g id="arrowDown" transform="rotate(180) translate(-30 -48)">
    <use xlink:href="#rim"/>
    <path pointer-events="none" fill="none" stroke="white" stroke-width="1.5" d="M0,-3.0v7 M-2.5,-0.5L0,-3.0L2.5,-0.5"/>
  </g>
  <g id="arrowLeft" transform="rotate(270) translate(-36 17)">
    <use xlink:href="#rim"/>
    <path pointer-events="none" fill="none" stroke="white" stroke-width="1.5" d="M0,-3.0v7 M-2.5,-0.5L0,-3.0L2.5,-0.5"/>
  </g>
  <g id="resetDef">
    <use xlink:href="#rim2" fill="#404040"><set attributeName="fill" to="#808080" begin="reset.mouseover" end="reset.mouseout"/></use>
  </g>
</defs>
<script type="application/ecmascript">
var viewWidth = 1013;
var viewHeight = 193;
var sectionId = 'dynsection-0';
</script>
<script type="application/ecmascript" xlink:href="svg.min.js"/>
<svg id="graph" class="graph">
<g id="viewport">
<title>ArgParser.cxx</title>
<!-- Node1 -->
<g id="Node000001" class="node">
<title>Node1</title>
<g id="a_Node000001"><a xlink:title=" ">
<polygon fill="#999999" stroke="#666666" points="364.75,-185 288.75,-185 288.75,-165.75 364.75,-165.75 364.75,-185"/>
<text text-anchor="middle" x="326.75" y="-171.5" font-family="Helvetica,sans-Serif" font-size="10.00">ArgParser.cxx</text>
</a>
</g>
</g>
<!-- Node2 -->
<g id="Node000002" class="node">
<title>Node2</title>
<g id="a_Node000002"><a xlink:href="_arg_parser_8h.html" target="_top" xlink:title=" ">
<polygon fill="white" stroke="#666666" points="360.25,-129.75 293.25,-129.75 293.25,-110.5 360.25,-110.5 360.25,-129.75"/>
<text text-anchor="middle" x="326.75" y="-116.25" font-family="Helvetica,sans-Serif" font-size="10.00">ArgParser.h</text>
</a>
</g>
</g>
<!-- Node1&#45;&gt;Node2 -->
<g id="edge1_Node000001_Node000002" class="edge">
<title>Node1&#45;&gt;Node2</title>
<g id="a_edge1_Node000001_Node000002"><a xlink:title=" ">
<path fill="none" stroke="#63b8ff" d="M326.75,-165.58C326.75,-159.07 326.75,-149.92 326.75,-141.62"/>
<polygon fill="#63b8ff" stroke="#63b8ff" points="330.25,-141.62 326.75,-131.62 323.25,-141.62 330.25,-141.62"/>
</a>
</g>
</g>
<!-- Node3 -->
<g id="Node000003" class="node">
<title>Node3</title>
<g id="a_Node000003"><a xlink:title=" ">
<polygon fill="#e0e0e0" stroke="#999999" points="53.5,-19.25 0,-19.25 0,0 53.5,0 53.5,-19.25"/>
<text text-anchor="middle" x="26.75" y="-5.75" font-family="Helvetica,sans-Serif" font-size="10.00">iostream</text>
</a>
</g>
</g>
<!-- Node2&#45;&gt;Node3 -->
<g id="edge2_Node000002_Node000003" class="edge">
<title>Node2&#45;&gt;Node3</title>
<g id="a_edge2_Node000002_Node000003"><a xlink:title=" ">
<path fill="none" stroke="#63b8ff" d="M298.61,-110.06C271.61,-101.27 229.74,-87.41 193.75,-74.5 147.16,-57.78 93.81,-37.1 60.2,-23.89"/>
<polygon fill="#63b8ff" stroke="#63b8ff" points="61.59,-20.68 51.01,-20.27 59.03,-27.19 61.59,-20.68"/>
</a>
</g>
</g>
<!-- Node4 -->
<g id="Node000004" class="node">
<title>Node4</title>
<g id="a_Node000004"><a xlink:title=" ">
<polygon fill="#e0e0e0" stroke="#999999" points="453.25,-74.5 404.25,-74.5 404.25,-55.25 453.25,-55.25 453.25,-74.5"/>
<text text-anchor="middle" x="428.75" y="-61" font-family="Helvetica,sans-Serif" font-size="10.00">fstream</text>
</a>
</g>
</g>
<!-- Node2&#45;&gt;Node4 -->
<g id="edge3_Node000002_Node000004" class="edge">
<title>Node2&#45;&gt;Node4</title>
<g id="a_edge3_Node000002_Node000004"><a xlink:title=" ">
<path fill="none" stroke="#63b8ff" d="M344.05,-110.09C359.73,-101.91 383.1,-89.71 401.33,-80.19"/>
<polygon fill="#63b8ff" stroke="#63b8ff" points="402.78,-83.38 410.02,-75.65 399.54,-77.18 402.78,-83.38"/>
</a>
</g>
</g>
<!-- Node5 -->
<g id="Node000005" class="node">
<title>Node5</title>
<g id="a_Node000005"><a xlink:title=" ">
<polygon fill="#e0e0e0" stroke="#999999" points="122.38,-19.25 71.12,-19.25 71.12,0 122.38,0 122.38,-19.25"/>
<text text-anchor="middle" x="96.75" y="-5.75" font-family="Helvetica,sans-Serif" font-size="10.00">sstream</text>
</a>
</g>
</g>
<!-- Node2&#45;&gt;Node5 -->
<g id="edge4_Node000002_Node000005" class="edge">
<title>Node2&#45;&gt;Node5</title>
<g id="a_edge4_Node000002_Node000005"><a xlink:title=" ">
<path fill="none" stroke="#63b8ff" d="M307.54,-110.06C267.37,-91.11 174.29,-47.2 126.39,-24.61"/>
<polygon fill="#63b8ff" stroke="#63b8ff" points="127.98,-21.49 117.44,-20.39 124.99,-27.82 127.98,-21.49"/>
</a>
</g>
</g>
<!-- Node6 -->
<g id="Node000006" class="node">
<title>Node6</title>
<g id="a_Node000006"><a xlink:title=" ">
<polygon fill="#e0e0e0" stroke="#999999" points="198.75,-19.25 140.75,-19.25 140.75,0 198.75,0 198.75,-19.25"/>
<text text-anchor="middle" x="169.75" y="-5.75" font-family="Helvetica,sans-Serif" font-size="10.00">stdexcept</text>
</a>
</g>
</g>
<!-- Node2&#45;&gt;Node6 -->
<g id="edge5_Node000002_Node000006" class="edge">
<title>Node2&#45;&gt;Node6</title>
<g id="a_edge5_Node000002_Node000006"><a xlink:title=" ">
<path fill="none" stroke="#63b8ff" d="M313.63,-110.06C286.79,-91.51 225.3,-49.01 192.06,-26.04"/>
<polygon fill="#63b8ff" stroke="#63b8ff" points="194.18,-23.25 183.96,-20.45 190.2,-29.01 194.18,-23.25"/>
</a>
</g>
</g>
<!-- Node7 -->
<g id="Node000007" class="node">
<title>Node7</title>
<g id="a_Node000007"><a xlink:title=" ">
<polygon fill="#e0e0e0" stroke="#999999" points="256.75,-19.25 216.75,-19.25 216.75,0 256.75,0 256.75,-19.25"/>
<text text-anchor="middle" x="236.75" y="-5.75" font-family="Helvetica,sans-Serif" font-size="10.00">string</text>
</a>
</g>
</g>
<!-- Node2&#45;&gt;Node7 -->
<g id="edge6_Node000002_Node000007" class="edge">
<title>Node2&#45;&gt;Node7</title>
<g id="a_edge6_Node000002_Node000007"><a xlink:title=" ">
<path fill="none" stroke="#63b8ff" d="M319.38,-110.25C304.55,-92.36 270.84,-51.72 251.37,-28.25"/>
<polygon fill="#63b8ff" stroke="#63b8ff" points="254.26,-26.25 245.18,-20.79 248.87,-30.72 254.26,-26.25"/>
</a>
</g>
</g>
<!-- Node8 -->
<g id="Node000008" class="node">
<title>Node8</title>
<g id="a_Node000008"><a xlink:title=" ">
<polygon fill="#e0e0e0" stroke="#999999" points="514.25,-74.5 471.25,-74.5 471.25,-55.25 514.25,-55.25 514.25,-74.5"/>
<text text-anchor="middle" x="492.75" y="-61" font-family="Helvetica,sans-Serif" font-size="10.00">vector</text>
</a>
</g>
</g>
<!-- Node2&#45;&gt;Node8 -->
<g id="edge7_Node000002_Node000008" class="edge">
<title>Node2&#45;&gt;Node8</title>
<g id="a_edge7_Node000002_Node000008"><a xlink:title=" ">
<path fill="none" stroke="#63b8ff" d="M354.91,-110.09C384.07,-100.74 429.59,-86.14 460.26,-76.3"/>
<polygon fill="#63b8ff" stroke="#63b8ff" points="460.93,-79.76 469.39,-73.37 458.79,-73.09 460.93,-79.76"/>
</a>
</g>
</g>
<!-- Node9 -->
<g id="Node000009" class="node">
<title>Node9</title>
<g id="a_Node000009"><a xlink:title=" ">
<polygon fill="#e0e0e0" stroke="#999999" points="587.62,-74.5 531.88,-74.5 531.88,-55.25 587.62,-55.25 587.62,-74.5"/>
<text text-anchor="middle" x="559.75" y="-61" font-family="Helvetica,sans-Serif" font-size="10.00">algorithm</text>
</a>
</g>
</g>
<!-- Node2&#45;&gt;Node9 -->
<g id="edge8_Node000002_Node000009" class="edge">
<title>Node2&#45;&gt;Node9</title>
<g id="a_edge8_Node000002_Node000009"><a xlink:title=" ">
<path fill="none" stroke="#63b8ff" d="M360.59,-111.59C397.64,-103.32 459.08,-89.51 520.42,-75.26"/>
<polygon fill="#63b8ff" stroke="#63b8ff" points="521.04,-78.71 529.99,-73.03 519.45,-71.89 521.04,-78.71"/>
</a>
</g>
</g>
<!-- Node10 -->
<g id="Node000010" class="node">
<title>Node10</title>
<g id="a_Node000010"><a xlink:href="_globals_8h.html" target="_top" xlink:title=" ">
<polygon fill="white" stroke="#666666" points="386,-74.5 329.5,-74.5 329.5,-55.25 386,-55.25 386,-74.5"/>
<text text-anchor="middle" x="357.75" y="-61" font-family="Helvetica,sans-Serif" font-size="10.00">Globals.h</text>
</a>
</g>
</g>
<!-- Node2&#45;&gt;Node10 -->
<g id="edge9_Node000002_Node000010" class="edge">
<title>Node2&#45;&gt;Node10</title>
<g id="a_edge9_Node000002_Node000010"><a xlink:title=" ">
<path fill="none" stroke="#63b8ff" d="M331.87,-110.33C335.93,-103.36 341.74,-93.37 346.84,-84.62"/>
<polygon fill="#63b8ff" stroke="#63b8ff" points="349.75,-86.57 351.76,-76.17 343.7,-83.05 349.75,-86.57"/>
</a>
</g>
</g>
<!-- Node10&#45;&gt;Node3 -->
<g id="edge10_Node000010_Node000003" class="edge">
<title>Node10&#45;&gt;Node3</title>
<g id="a_edge10_Node000010_Node000003"><a xlink:title=" ">
<path fill="none" stroke="#63b8ff" d="M329.02,-60.44C277.83,-54.12 167.26,-39.61 64.97,-19.75"/>
<polygon fill="#63b8ff" stroke="#63b8ff" points="65.8,-16.35 55.31,-17.85 64.45,-23.22 65.8,-16.35"/>
</a>
</g>
</g>
<!-- Node10&#45;&gt;Node5 -->
<g id="edge19_Node000010_Node000005" class="edge">
<title>Node10&#45;&gt;Node5</title>
<g id="a_edge19_Node000010_Node000005"><a xlink:title=" ">
<path fill="none" stroke="#63b8ff" d="M329.12,-58.67C288.15,-51.11 210.18,-36.39 133.94,-19.65"/>
<polygon fill="#63b8ff" stroke="#63b8ff" points="134.71,-16.23 124.19,-17.49 133.2,-23.07 134.71,-16.23"/>
</a>
</g>
</g>
<!-- Node10&#45;&gt;Node6 -->
<g id="edge12_Node000010_Node000006" class="edge">
<title>Node10&#45;&gt;Node6</title>
<g id="a_edge12_Node000010_Node000006"><a xlink:title=" ">
<path fill="none" stroke="#63b8ff" d="M329.2,-55.79C297.5,-46.81 246.09,-32.25 210.24,-22.09"/>
<polygon fill="#63b8ff" stroke="#63b8ff" points="211.22,-18.73 200.65,-19.38 209.32,-25.47 211.22,-18.73"/>
</a>
</g>
</g>
<!-- Node10&#45;&gt;Node7 -->
<g id="edge13_Node000010_Node000007" class="edge">
<title>Node10&#45;&gt;Node7</title>
<g id="a_edge13_Node000010_Node000007"><a xlink:title=" ">
<path fill="none" stroke="#63b8ff" d="M337.22,-54.84C318.07,-46.41 289.25,-33.73 267.38,-24.11"/>
<polygon fill="#63b8ff" stroke="#63b8ff" points="268.92,-20.96 258.36,-20.13 266.1,-27.37 268.92,-20.96"/>
</a>
</g>
</g>
<!-- Node11 -->
<g id="Node000011" class="node">
<title>Node11</title>
<g id="a_Node000011"><a xlink:title=" ">
<polygon fill="#e0e0e0" stroke="#999999" points="1004.62,-19.25 954.88,-19.25 954.88,0 1004.62,0 1004.62,-19.25"/>
<text text-anchor="middle" x="979.75" y="-5.75" font-family="Helvetica,sans-Serif" font-size="10.00">iomanip</text>
</a>
</g>
</g>
<!-- Node10&#45;&gt;Node11 -->
<g id="edge11_Node000010_Node000011" class="edge">
<title>Node10&#45;&gt;Node11</title>
<g id="a_edge11_Node000010_Node000011"><a xlink:title=" ">
<path fill="none" stroke="#63b8ff" d="M386.29,-56.89C389.47,-56.26 392.67,-55.7 395.75,-55.25 634.5,-20.56 701.76,-56.41 943.34,-19.31"/>
<polygon fill="#63b8ff" stroke="#63b8ff" points="943.77,-22.79 953.11,-17.78 942.69,-15.87 943.77,-22.79"/>
</a>
</g>
</g>
<!-- Node12 -->
<g id="Node000012" class="node">
<title>Node12</title>
<g id="a_Node000012"><a xlink:title=" ">
<polygon fill="#e0e0e0" stroke="#999999" points="316.88,-19.25 274.62,-19.25 274.62,0 316.88,0 316.88,-19.25"/>
<text text-anchor="middle" x="295.75" y="-5.75" font-family="Helvetica,sans-Serif" font-size="10.00">cstdio</text>
</a>
</g>
</g>
<!-- Node10&#45;&gt;Node12 -->
<g id="edge14_Node000010_Node000012" class="edge">
<title>Node10&#45;&gt;Node12</title>
<g id="a_edge14_Node000010_Node000012"><a xlink:title=" ">
<path fill="none" stroke="#63b8ff" d="M347.23,-54.84C338.36,-47.22 325.44,-36.12 314.76,-26.95"/>
<polygon fill="#63b8ff" stroke="#63b8ff" points="317.13,-24.37 307.26,-20.51 312.57,-29.68 317.13,-24.37"/>
</a>
</g>
</g>
<!-- Node13 -->
<g id="Node000013" class="node">
<title>Node13</title>
<g id="a_Node000013"><a xlink:title=" ">
<polygon fill="#e0e0e0" stroke="#999999" points="380.38,-19.25 335.12,-19.25 335.12,0 380.38,0 380.38,-19.25"/>
<text text-anchor="middle" x="357.75" y="-5.75" font-family="Helvetica,sans-Serif" font-size="10.00">cstdint</text>
</a>
</g>
</g>
<!-- Node10&#45;&gt;Node13 -->
<g id="edge15_Node000010_Node000013" class="edge">
<title>Node10&#45;&gt;Node13</title>
<g id="a_edge15_Node000010_Node000013"><a xlink:title=" ">
<path fill="none" stroke="#63b8ff" d="M357.75,-55.08C357.75,-48.57 357.75,-39.42 357.75,-31.12"/>
<polygon fill="#63b8ff" stroke="#63b8ff" points="361.25,-31.12 357.75,-21.12 354.25,-31.12 361.25,-31.12"/>
</a>
</g>
</g>
<!-- Node14 -->
<g id="Node000014" class="node">
<title>Node14</title>
<g id="a_Node000014"><a xlink:title=" ">
<polygon fill="#e0e0e0" stroke="#999999" points="443,-19.25 398.5,-19.25 398.5,0 443,0 443,-19.25"/>
<text text-anchor="middle" x="420.75" y="-5.75" font-family="Helvetica,sans-Serif" font-size="10.00">cstdlib</text>
</a>
</g>
</g>
<!-- Node10&#45;&gt;Node14 -->
<g id="edge16_Node000010_Node000014" class="edge">
<title>Node10&#45;&gt;Node14</title>
<g id="a_edge16_Node000010_Node000014"><a xlink:title=" ">
<path fill="none" stroke="#63b8ff" d="M368.44,-54.84C377.45,-47.22 390.58,-36.12 401.43,-26.95"/>
<polygon fill="#63b8ff" stroke="#63b8ff" points="403.69,-29.63 409.06,-20.5 399.17,-24.28 403.69,-29.63"/>
</a>
</g>
</g>
<!-- Node15 -->
<g id="Node000015" class="node">
<title>Node15</title>
<g id="a_Node000015"><a xlink:title=" ">
<polygon fill="#e0e0e0" stroke="#999999" points="520.5,-19.25 461,-19.25 461,0 520.5,0 520.5,-19.25"/>
<text text-anchor="middle" x="490.75" y="-5.75" font-family="Helvetica,sans-Serif" font-size="10.00">execinfo.h</text>
</a>
</g>
</g>
<!-- Node10&#45;&gt;Node15 -->
<g id="edge17_Node000010_Node000015" class="edge">
<title>Node10&#45;&gt;Node15</title>
<g id="a_edge17_Node000010_Node000015"><a xlink:title=" ">
<path fill="none" stroke="#63b8ff" d="M380.31,-54.84C401.52,-46.35 433.52,-33.54 457.63,-23.89"/>
<polygon fill="#63b8ff" stroke="#63b8ff" points="458.69,-27.23 466.67,-20.27 456.09,-20.73 458.69,-27.23"/>
</a>
</g>
</g>
<!-- Node16 -->
<g id="Node000016" class="node">
<title>Node16</title>
<g id="a_Node000016"><a xlink:title=" ">
<polygon fill="#e0e0e0" stroke="#999999" points="589,-19.25 538.5,-19.25 538.5,0 589,0 589,-19.25"/>
<text text-anchor="middle" x="563.75" y="-5.75" font-family="Helvetica,sans-Serif" font-size="10.00">cxxabi.h</text>
</a>
</g>
</g>
<!-- Node10&#45;&gt;Node16 -->
<g id="edge18_Node000010_Node000016" class="edge">
<title>Node10&#45;&gt;Node16</title>
<g id="a_edge18_Node000010_Node000016"><a xlink:title=" ">
<path fill="none" stroke="#63b8ff" d="M386.39,-56.47C423.2,-46.96 487.13,-30.43 527.34,-20.04"/>
<polygon fill="#63b8ff" stroke="#63b8ff" points="527.99,-23.48 536.8,-17.59 526.24,-16.71 527.99,-23.48"/>
</a>
</g>
</g>
<!-- Node17 -->
<g id="Node000017" class="node">
<title>Node17</title>
<g id="a_Node000017"><a xlink:title=" ">
<polygon fill="#e0e0e0" stroke="#999999" points="644.25,-19.25 607.25,-19.25 607.25,0 644.25,0 644.25,-19.25"/>
<text text-anchor="middle" x="625.75" y="-5.75" font-family="Helvetica,sans-Serif" font-size="10.00">array</text>
</a>
</g>
</g>
<!-- Node10&#45;&gt;Node17 -->
<g id="edge20_Node000010_Node000017" class="edge">
<title>Node10&#45;&gt;Node17</title>
<g id="a_edge20_Node000010_Node000017"><a xlink:title=" ">
<path fill="none" stroke="#63b8ff" d="M386.35,-57.23C389.52,-56.54 392.7,-55.87 395.75,-55.25 481.64,-37.86 507.15,-40.47 595.73,-19.47"/>
<polygon fill="#63b8ff" stroke="#63b8ff" points="596.49,-22.89 605.39,-17.14 594.85,-16.08 596.49,-22.89"/>
</a>
</g>
</g>
<!-- Node18 -->
<g id="Node000018" class="node">
<title>Node18</title>
<g id="a_Node000018"><a xlink:title=" ">
<polygon fill="#e0e0e0" stroke="#999999" points="713,-19.25 662.5,-19.25 662.5,0 713,0 713,-19.25"/>
<text text-anchor="middle" x="687.75" y="-5.75" font-family="Helvetica,sans-Serif" font-size="10.00">memory</text>
</a>
</g>
</g>
<!-- Node10&#45;&gt;Node18 -->
<g id="edge21_Node000010_Node000018" class="edge">
<title>Node10&#45;&gt;Node18</title>
<g id="a_edge21_Node000010_Node000018"><a xlink:title=" ">
<path fill="none" stroke="#63b8ff" d="M386.33,-57.12C389.5,-56.45 392.69,-55.81 395.75,-55.25 506.08,-35.07 538.15,-41.1 651.02,-19.6"/>
<polygon fill="#63b8ff" stroke="#63b8ff" points="651.56,-23.06 660.71,-17.72 650.23,-16.18 651.56,-23.06"/>
</a>
</g>
</g>
<!-- Node19 -->
<g id="Node000019" class="node">
<title>Node19</title>
<g id="a_Node000019"><a xlink:title=" ">
<polygon fill="#e0e0e0" stroke="#999999" points="780.62,-19.25 730.88,-19.25 730.88,0 780.62,0 780.62,-19.25"/>
<text text-anchor="middle" x="755.75" y="-5.75" font-family="Helvetica,sans-Serif" font-size="10.00">unistd.h</text>
</a>
</g>
</g>
<!-- Node10&#45;&gt;Node19 -->
<g id="edge22_Node000010_Node000019" class="edge">
<title>Node10&#45;&gt;Node19</title>
<g id="a_edge22_Node000010_Node000019"><a xlink:title=" ">
<path fill="none" stroke="#63b8ff" d="M386.31,-57.03C389.49,-56.38 392.68,-55.77 395.75,-55.25 535.99,-31.67 576.36,-44.57 719.63,-19.39"/>
<polygon fill="#63b8ff" stroke="#63b8ff" points="719.87,-22.9 729.09,-17.69 718.63,-16.01 719.87,-22.9"/>
</a>
</g>
</g>
<!-- Node20 -->
<g id="Node000020" class="node">
<title>Node20</title>
<g id="a_Node000020"><a xlink:title=" ">
<polygon fill="#e0e0e0" stroke="#999999" points="858.5,-19.25 799,-19.25 799,0 858.5,0 858.5,-19.25"/>
<text text-anchor="middle" x="828.75" y="-5.75" font-family="Helvetica,sans-Serif" font-size="10.00">sys/wait.h</text>
</a>
</g>
</g>
<!-- Node10&#45;&gt;Node20 -->
<g id="edge23_Node000010_Node000020" class="edge">
<title>Node10&#45;&gt;Node20</title>
<g id="a_edge23_Node000010_Node000020"><a xlink:title=" ">
<path fill="none" stroke="#63b8ff" d="M386.31,-56.97C389.48,-56.33 392.68,-55.74 395.75,-55.25 565.78,-28.31 613.99,-45.53 787.26,-19.43"/>
<polygon fill="#63b8ff" stroke="#63b8ff" points="787.74,-22.9 797.09,-17.92 786.68,-15.98 787.74,-22.9"/>
</a>
</g>
</g>
<!-- Node21 -->
<g id="Node000021" class="node">
<title>Node21</title>
<g id="a_Node000021"><a xlink:title=" ">
<polygon fill="#e0e0e0" stroke="#999999" points="936.88,-19.25 876.62,-19.25 876.62,0 936.88,0 936.88,-19.25"/>
<text text-anchor="middle" x="906.75" y="-5.75" font-family="Helvetica,sans-Serif" font-size="10.00">sys/prctl.h</text>
</a>
</g>
</g>
<!-- Node10&#45;&gt;Node21 -->
<g id="edge24_Node000010_Node000021" class="edge">
<title>Node10&#45;&gt;Node21</title>
<g id="a_edge24_Node000010_Node000021"><a xlink:title=" ">
<path fill="none" stroke="#63b8ff" d="M386.3,-56.92C389.47,-56.29 392.67,-55.71 395.75,-55.25 600.13,-24.43 657.62,-49.14 864.9,-19.46"/>
<polygon fill="#63b8ff" stroke="#63b8ff" points="865.28,-22.94 874.67,-18.04 864.27,-16.02 865.28,-22.94"/>
</a>
</g>
</g>
</g>
</svg>

<g id="navigator" transform="translate(0 0)" fill="#404254">
  <rect fill="#f2f5e9" fill-opacity="0.5" stroke="#606060" stroke-width=".5" x="0" y="0" width="60" height="60"/>
  <use id="zoomplus" xlink:href="#zoomPlus" x="17" y="9" onmousedown="handleZoom(evt,'in')"/>
  <use id="zoomminus" xlink:href="#zoomMin" x="42" y="9" onmousedown="handleZoom(evt,'out')"/>
  <use id="reset" xlink:href="#resetDef" x="30" y="36" onmousedown="handleReset()"/>
   <use id="arrowup" xlink:href="#arrowUp" x="0" y="0" onmousedown="handlePan(0,-1)"/>
  <use id="arrowright" xlink:href="#arrowRight" x="0" y="0" onmousedown="handlePan(1,0)"/>
  <use id="arrowdown" xlink:href="#arrowDown" x="0" y="0" onmousedown="handlePan(0,1)"/>
  <use id="arrowleft" xlink:href="#arrowLeft" x="0" y="0" onmousedown="handlePan(-1,0)"/>
</g>
<svg viewBox="0 0 15 15" width="100%" height="30px" preserveAspectRatio="xMaxYMin meet">
 <g id="arrow_out" transform="scale(0.3 0.3)">
  <a xlink:href="_arg_parser_8cxx__incl_org.svg" target="_base">
   <rect id="button" ry="5" rx="5" y="6" x="6" height="38" width="38"
        fill="#f2f5e9" fill-opacity="0.5" stroke="#606060" stroke-width="1.0"/>
   <path id="arrow"
     d="M 11.500037,31.436501 C 11.940474,20.09759 22.043105,11.32322 32.158766,21.979434 L 37.068811,17.246167 C 37.068811,17.246167 37.088388,32 37.088388,32 L 22.160133,31.978069 C 22.160133,31.978069 26.997745,27.140456 26.997745,27.140456 C 18.528582,18.264221 13.291696,25.230495 11.500037,31.436501 z"
     style="fill:#404040;"/>
  </a>
 </g>
</svg>

<style type='text/css'>
<![CDATA[
[data-mouse-over-selected='false'] { opacity: 0.7; }
[data-mouse-over-selected='true']  { opacity: 1.0; }
]]>
</style>
<script type="application/ecmascript"><![CDATA[
document.addEventListener('DOMContentLoaded', (event) => {
  highlightEdges();
  highlightAdjacentNodes();
});
]]></script>
</svg>
