<?xml version="1.0" encoding="UTF-8" standalone="no"?>
<!DOCTYPE svg PUBLIC "-//W3C//DTD SVG 1.1//EN"
 "http://www.w3.org/Graphics/SVG/1.1/DTD/svg11.dtd">
<!-- Generated by graphviz version 12.2.0 (20241103.1931)
 -->
<!-- Title: ConvertDriftFiles.cxx Pages: 1 -->
<!--zoomable 248 -->

<svg id="main" version="1.1" xmlns="http://www.w3.org/2000/svg" xmlns:xlink="http://www.w3.org/1999/xlink" xml:space="preserve" onload="init(evt)">

<style type="text/css"><![CDATA[
.node, .edge {opacity: 0.7;}
.node.selected, .edge.selected {opacity: 1;}
.edge:hover path { stroke: red; }
.edge:hover polygon { stroke: red; fill: red; }
]]></style>

<defs>
  <circle id="rim" cx="0" cy="0" r="7"/>
  <circle id="rim2" cx="0" cy="0" r="3.5"/>
  <g id="zoomPlus">
    <use xlink:href="#rim" fill="#404040"><set attributeName="fill" to="#808080" begin="zoomplus.mouseover" end="zoomplus.mouseout"/></use>
    <path d="M-4,0h8M0,-4v8" fill="none" stroke="white" stroke-width="1.5" pointer-events="none"/>
  </g>
  <g id="zoomMin">
    <use xlink:href="#rim" fill="#404040"><set attributeName="fill" to="#808080" begin="zoomminus.mouseover" end="zoomminus.mouseout"/></use>
    <path d="M-4,0h8" fill="none" stroke="white" stroke-width="1.5" pointer-events="none"/>
  </g>
  <g id="arrowUp" transform="translate(30 24)">
    <use xlink:href="#rim"/>
    <path pointer-events="none" fill="none" stroke="white" stroke-width="1.5" d="M0,-3.0v7 M-2.5,-0.5L0,-3.0L2.5,-0.5"/>
  </g>
  <g id="arrowRight" transform="rotate(90) translate(36 -43)">
    <use xlink:href="#rim"/>
    <path pointer-events="none" fill="none" stroke="white" stroke-width="1.5" d="M0,-3.0v7 M-2.5,-0.5L0,-3.0L2.5,-0.5"/>
  </g>
  <g id="arrowDown" transform="rotate(180) translate(-30 -48)">
    <use xlink:href="#rim"/>
    <path pointer-events="none" fill="none" stroke="white" stroke-width="1.5" d="M0,-3.0v7 M-2.5,-0.5L0,-3.0L2.5,-0.5"/>
  </g>
  <g id="arrowLeft" transform="rotate(270) translate(-36 17)">
    <use xlink:href="#rim"/>
    <path pointer-events="none" fill="none" stroke="white" stroke-width="1.5" d="M0,-3.0v7 M-2.5,-0.5L0,-3.0L2.5,-0.5"/>
  </g>
  <g id="resetDef">
    <use xlink:href="#rim2" fill="#404040"><set attributeName="fill" to="#808080" begin="reset.mouseover" end="reset.mouseout"/></use>
  </g>
</defs>
<script type="application/ecmascript">
var viewWidth = 1412;
var viewHeight = 248;
var sectionId = 'dynsection-0';
</script>
<script type="application/ecmascript" xlink:href="svg.min.js"/>
<svg id="graph" class="graph">
<g id="viewport">
<title>ConvertDriftFiles.cxx</title>
<!-- Node1 -->
<g id="Node000001" class="node">
<title>Node1</title>
<g id="a_Node000001"><a xlink:title=" ">
<polygon fill="#999999" stroke="#666666" points="780.5,-240.25 675.25,-240.25 675.25,-221 780.5,-221 780.5,-240.25"/>
<text text-anchor="middle" x="727.88" y="-226.75" font-family="Helvetica,sans-Serif" font-size="10.00">ConvertDriftFiles.cxx</text>
</a>
</g>
</g>
<!-- Node2 -->
<g id="Node000002" class="node">
<title>Node2</title>
<g id="a_Node000002"><a xlink:title=" ">
<polygon fill="#e0e0e0" stroke="#999999" points="121.62,-19.25 68.12,-19.25 68.12,0 121.62,0 121.62,-19.25"/>
<text text-anchor="middle" x="94.88" y="-5.75" font-family="Helvetica,sans-Serif" font-size="10.00">iostream</text>
</a>
</g>
</g>
<!-- Node1&#45;&gt;Node2 -->
<g id="edge1_Node000001_Node000002" class="edge">
<title>Node1&#45;&gt;Node2</title>
<g id="a_edge1_Node000001_Node000002"><a xlink:title=" ">
<path fill="none" stroke="#63b8ff" d="M674.93,-228.51C603.41,-225.78 472.61,-216.5 365.88,-185 311.87,-169.06 301.76,-155.87 251.88,-129.75 207.58,-106.56 193.09,-105.52 153.88,-74.5 136.73,-60.94 120.09,-42.27 108.89,-28.62"/>
<polygon fill="#63b8ff" stroke="#63b8ff" points="111.68,-26.51 102.7,-20.9 106.22,-30.89 111.68,-26.51"/>
</a>
</g>
</g>
<!-- Node3 -->
<g id="Node000003" class="node">
<title>Node3</title>
<g id="a_Node000003"><a xlink:title=" ">
<polygon fill="#e0e0e0" stroke="#999999" points="49.75,-19.25 0,-19.25 0,0 49.75,0 49.75,-19.25"/>
<text text-anchor="middle" x="24.88" y="-5.75" font-family="Helvetica,sans-Serif" font-size="10.00">iomanip</text>
</a>
</g>
</g>
<!-- Node1&#45;&gt;Node3 -->
<g id="edge2_Node000001_Node000003" class="edge">
<title>Node1&#45;&gt;Node3</title>
<g id="a_edge2_Node000001_Node000003"><a xlink:title=" ">
<path fill="none" stroke="#63b8ff" d="M674.84,-230.29C594.66,-229.89 438.61,-223.58 312.88,-185 262.84,-169.65 254,-156.27 208.88,-129.75 149.16,-94.64 81.33,-49.23 47.13,-25.92"/>
<polygon fill="#63b8ff" stroke="#63b8ff" points="49.5,-23.3 39.27,-20.55 45.55,-29.08 49.5,-23.3"/>
</a>
</g>
</g>
<!-- Node4 -->
<g id="Node000004" class="node">
<title>Node4</title>
<g id="a_Node000004"><a xlink:title=" ">
<polygon fill="#e0e0e0" stroke="#999999" points="1404.38,-185 1355.38,-185 1355.38,-165.75 1404.38,-165.75 1404.38,-185"/>
<text text-anchor="middle" x="1379.88" y="-171.5" font-family="Helvetica,sans-Serif" font-size="10.00">fstream</text>
</a>
</g>
</g>
<!-- Node1&#45;&gt;Node4 -->
<g id="edge3_Node000001_Node000004" class="edge">
<title>Node1&#45;&gt;Node4</title>
<g id="a_edge3_Node000001_Node000004"><a xlink:title=" ">
<path fill="none" stroke="#63b8ff" d="M780.63,-228.36C887.08,-225.24 1134.99,-215.1 1340.88,-185 1341.9,-184.85 1342.93,-184.69 1343.97,-184.52"/>
<polygon fill="#63b8ff" stroke="#63b8ff" points="1344.55,-187.97 1353.73,-182.68 1343.25,-181.09 1344.55,-187.97"/>
</a>
</g>
</g>
<!-- Node5 -->
<g id="Node000005" class="node">
<title>Node5</title>
<g id="a_Node000005"><a xlink:title=" ">
<polygon fill="#e0e0e0" stroke="#999999" points="1011.5,-19.25 960.25,-19.25 960.25,0 1011.5,0 1011.5,-19.25"/>
<text text-anchor="middle" x="985.88" y="-5.75" font-family="Helvetica,sans-Serif" font-size="10.00">sstream</text>
</a>
</g>
</g>
<!-- Node1&#45;&gt;Node5 -->
<g id="edge4_Node000001_Node000005" class="edge">
<title>Node1&#45;&gt;Node5</title>
<g id="a_edge4_Node000001_Node000005"><a xlink:title=" ">
<path fill="none" stroke="#63b8ff" d="M675.14,-223.74C552.9,-209.05 264.21,-167.79 313.88,-110.5 336.06,-84.91 856.31,-32.04 948.66,-19.1"/>
<polygon fill="#63b8ff" stroke="#63b8ff" points="949.12,-22.57 958.45,-17.55 948.03,-15.65 949.12,-22.57"/>
</a>
</g>
</g>
<!-- Node6 -->
<g id="Node000006" class="node">
<title>Node6</title>
<g id="a_Node000006"><a xlink:title=" ">
<polygon fill="#e0e0e0" stroke="#999999" points="1327.38,-19.25 1284.38,-19.25 1284.38,0 1327.38,0 1327.38,-19.25"/>
<text text-anchor="middle" x="1305.88" y="-5.75" font-family="Helvetica,sans-Serif" font-size="10.00">vector</text>
</a>
</g>
</g>
<!-- Node1&#45;&gt;Node6 -->
<g id="edge5_Node000001_Node000006" class="edge">
<title>Node1&#45;&gt;Node6</title>
<g id="a_edge5_Node000001_Node000006"><a xlink:title=" ">
<path fill="none" stroke="#63b8ff" d="M780.79,-229.98C876.16,-228.36 1080.37,-214.33 1224.88,-129.75 1256.44,-111.27 1266.16,-105.31 1285.88,-74.5 1294.42,-61.15 1299.53,-43.89 1302.45,-30.68"/>
<polygon fill="#63b8ff" stroke="#63b8ff" points="1305.86,-31.48 1304.33,-21 1298.99,-30.15 1305.86,-31.48"/>
</a>
</g>
</g>
<!-- Node7 -->
<g id="Node000007" class="node">
<title>Node7</title>
<g id="a_Node000007"><a xlink:title=" ">
<polygon fill="#e0e0e0" stroke="#999999" points="1092.88,-19.25 1052.88,-19.25 1052.88,0 1092.88,0 1092.88,-19.25"/>
<text text-anchor="middle" x="1072.88" y="-5.75" font-family="Helvetica,sans-Serif" font-size="10.00">string</text>
</a>
</g>
</g>
<!-- Node1&#45;&gt;Node7 -->
<g id="edge6_Node000001_Node000007" class="edge">
<title>Node1&#45;&gt;Node7</title>
<g id="a_edge6_Node000001_Node000007"><a xlink:title=" ">
<path fill="none" stroke="#63b8ff" d="M780.63,-223.27C906.23,-206.87 1216.5,-158.43 1269.88,-74.5 1274.47,-67.28 1275.21,-61.93 1269.88,-55.25 1249.51,-29.76 1154.66,-17.75 1104.38,-13.09"/>
<polygon fill="#63b8ff" stroke="#63b8ff" points="1104.98,-9.63 1094.71,-12.24 1104.36,-16.6 1104.98,-9.63"/>
</a>
</g>
</g>
<!-- Node8 -->
<g id="Node000008" class="node">
<title>Node8</title>
<g id="a_Node000008"><a xlink:href="_t_channel_8h.html" target="_top" xlink:title=" ">
<polygon fill="white" stroke="#666666" points="760.25,-185 695.5,-185 695.5,-165.75 760.25,-165.75 760.25,-185"/>
<text text-anchor="middle" x="727.88" y="-171.5" font-family="Helvetica,sans-Serif" font-size="10.00">TChannel.h</text>
</a>
</g>
</g>
<!-- Node1&#45;&gt;Node8 -->
<g id="edge7_Node000001_Node000008" class="edge">
<title>Node1&#45;&gt;Node8</title>
<g id="a_edge7_Node000001_Node000008"><a xlink:title=" ">
<path fill="none" stroke="#63b8ff" d="M727.88,-220.83C727.88,-214.32 727.88,-205.17 727.88,-196.87"/>
<polygon fill="#63b8ff" stroke="#63b8ff" points="731.38,-196.87 727.88,-186.87 724.38,-196.87 731.38,-196.87"/>
</a>
</g>
</g>
<!-- Node8&#45;&gt;Node2 -->
<g id="edge8_Node000008_Node000002" class="edge">
<title>Node8&#45;&gt;Node2</title>
<g id="a_edge8_Node000008_Node000002"><a xlink:title=" ">
<path fill="none" stroke="#63b8ff" d="M695.23,-172.68C609.01,-167.91 376.8,-153.23 303.88,-129.75 229.02,-105.65 151.21,-52.56 115.29,-26.16"/>
<polygon fill="#63b8ff" stroke="#63b8ff" points="117.63,-23.54 107.52,-20.37 113.45,-29.15 117.63,-23.54"/>
</a>
</g>
</g>
<!-- Node8&#45;&gt;Node7 -->
<g id="edge9_Node000008_Node000007" class="edge">
<title>Node8&#45;&gt;Node7</title>
<g id="a_edge9_Node000008_Node000007"><a xlink:title=" ">
<path fill="none" stroke="#63b8ff" d="M760.35,-173.82C823.67,-171.97 959.98,-164.01 988.88,-129.75 1010.32,-104.33 964.28,-83.47 981.88,-55.25 994.83,-34.46 1020.61,-23.09 1041.43,-17.03"/>
<polygon fill="#63b8ff" stroke="#63b8ff" points="1042.11,-20.47 1050.91,-14.57 1040.35,-13.7 1042.11,-20.47"/>
</a>
</g>
</g>
<!-- Node9 -->
<g id="Node000009" class="node">
<title>Node9</title>
<g id="a_Node000009"><a xlink:title=" ">
<polygon fill="#e0e0e0" stroke="#999999" points="366.38,-129.75 323.38,-129.75 323.38,-110.5 366.38,-110.5 366.38,-129.75"/>
<text text-anchor="middle" x="344.88" y="-116.25" font-family="Helvetica,sans-Serif" font-size="10.00">cmath</text>
</a>
</g>
</g>
<!-- Node8&#45;&gt;Node9 -->
<g id="edge10_Node000008_Node000009" class="edge">
<title>Node8&#45;&gt;Node9</title>
<g id="a_edge10_Node000008_Node000009"><a xlink:title=" ">
<path fill="none" stroke="#63b8ff" d="M695.1,-171.82C634.41,-166.75 500.28,-153.94 377.85,-129.86"/>
<polygon fill="#63b8ff" stroke="#63b8ff" points="378.77,-126.48 368.28,-127.95 377.4,-133.34 378.77,-126.48"/>
</a>
</g>
</g>
<!-- Node10 -->
<g id="Node000010" class="node">
<title>Node10</title>
<g id="a_Node000010"><a xlink:title=" ">
<polygon fill="#e0e0e0" stroke="#999999" points="423.12,-129.75 384.62,-129.75 384.62,-110.5 423.12,-110.5 423.12,-129.75"/>
<text text-anchor="middle" x="403.88" y="-116.25" font-family="Helvetica,sans-Serif" font-size="10.00">utility</text>
</a>
</g>
</g>
<!-- Node8&#45;&gt;Node10 -->
<g id="edge11_Node000008_Node000010" class="edge">
<title>Node8&#45;&gt;Node10</title>
<g id="a_edge11_Node000008_Node000010"><a xlink:title=" ">
<path fill="none" stroke="#63b8ff" d="M695.3,-170.95C642.56,-165.07 535.06,-151.77 434.41,-129.78"/>
<polygon fill="#63b8ff" stroke="#63b8ff" points="435.43,-126.42 424.91,-127.67 433.91,-133.26 435.43,-126.42"/>
</a>
</g>
</g>
<!-- Node11 -->
<g id="Node000011" class="node">
<title>Node11</title>
<g id="a_Node000011"><a xlink:title=" ">
<polygon fill="#e0e0e0" stroke="#999999" points="524.25,-129.75 441.5,-129.75 441.5,-110.5 524.25,-110.5 524.25,-129.75"/>
<text text-anchor="middle" x="482.88" y="-116.25" font-family="Helvetica,sans-Serif" font-size="10.00">unordered_map</text>
</a>
</g>
</g>
<!-- Node8&#45;&gt;Node11 -->
<g id="edge12_Node000008_Node000011" class="edge">
<title>Node8&#45;&gt;Node11</title>
<g id="a_edge12_Node000008_Node000011"><a xlink:title=" ">
<path fill="none" stroke="#63b8ff" d="M695.09,-167.25C654.29,-158.38 584.09,-143.12 535.67,-132.6"/>
<polygon fill="#63b8ff" stroke="#63b8ff" points="536.47,-129.19 525.95,-130.49 534.98,-136.03 536.47,-129.19"/>
</a>
</g>
</g>
<!-- Node12 -->
<g id="Node000012" class="node">
<title>Node12</title>
<g id="a_Node000012"><a xlink:title=" ">
<polygon fill="#e0e0e0" stroke="#999999" points="603.38,-129.75 542.38,-129.75 542.38,-110.5 603.38,-110.5 603.38,-129.75"/>
<text text-anchor="middle" x="572.88" y="-116.25" font-family="Helvetica,sans-Serif" font-size="10.00">TNamed.h</text>
</a>
</g>
</g>
<!-- Node8&#45;&gt;Node12 -->
<g id="edge13_Node000008_Node000012" class="edge">
<title>Node8&#45;&gt;Node12</title>
<g id="a_edge13_Node000008_Node000012"><a xlink:title=" ">
<path fill="none" stroke="#63b8ff" d="M701.58,-165.34C676.42,-156.7 638.22,-143.57 609.97,-133.87"/>
<polygon fill="#63b8ff" stroke="#63b8ff" points="611.32,-130.63 600.73,-130.69 609.05,-137.25 611.32,-130.63"/>
</a>
</g>
</g>
<!-- Node13 -->
<g id="Node000013" class="node">
<title>Node13</title>
<g id="a_Node000013"><a xlink:title=" ">
<polygon fill="#e0e0e0" stroke="#999999" points="686.62,-129.75 621.12,-129.75 621.12,-110.5 686.62,-110.5 686.62,-129.75"/>
<text text-anchor="middle" x="653.88" y="-116.25" font-family="Helvetica,sans-Serif" font-size="10.00">TRandom.h</text>
</a>
</g>
</g>
<!-- Node8&#45;&gt;Node13 -->
<g id="edge14_Node000008_Node000013" class="edge">
<title>Node8&#45;&gt;Node13</title>
<g id="a_edge14_Node000008_Node000013"><a xlink:title=" ">
<path fill="none" stroke="#63b8ff" d="M715.32,-165.34C704.41,-157.49 688.37,-145.95 675.41,-136.62"/>
<polygon fill="#63b8ff" stroke="#63b8ff" points="677.63,-133.91 667.47,-130.91 673.54,-139.59 677.63,-133.91"/>
</a>
</g>
</g>
<!-- Node14 -->
<g id="Node000014" class="node">
<title>Node14</title>
<g id="a_Node000014"><a xlink:title=" ">
<polygon fill="#e0e0e0" stroke="#999999" points="750.88,-129.75 704.88,-129.75 704.88,-110.5 750.88,-110.5 750.88,-129.75"/>
<text text-anchor="middle" x="727.88" y="-116.25" font-family="Helvetica,sans-Serif" font-size="10.00">TList.h</text>
</a>
</g>
</g>
<!-- Node8&#45;&gt;Node14 -->
<g id="edge15_Node000008_Node000014" class="edge">
<title>Node8&#45;&gt;Node14</title>
<g id="a_edge15_Node000008_Node000014"><a xlink:title=" ">
<path fill="none" stroke="#63b8ff" d="M727.88,-165.58C727.88,-159.07 727.88,-149.92 727.88,-141.62"/>
<polygon fill="#63b8ff" stroke="#63b8ff" points="731.38,-141.62 727.88,-131.62 724.38,-141.62 731.38,-141.62"/>
</a>
</g>
</g>
<!-- Node15 -->
<g id="Node000015" class="node">
<title>Node15</title>
<g id="a_Node000015"><a xlink:title=" ">
<polygon fill="#e0e0e0" stroke="#999999" points="818.38,-129.75 769.38,-129.75 769.38,-110.5 818.38,-110.5 818.38,-129.75"/>
<text text-anchor="middle" x="793.88" y="-116.25" font-family="Helvetica,sans-Serif" font-size="10.00">TTree.h</text>
</a>
</g>
</g>
<!-- Node8&#45;&gt;Node15 -->
<g id="edge16_Node000008_Node000015" class="edge">
<title>Node8&#45;&gt;Node15</title>
<g id="a_edge16_Node000008_Node000015"><a xlink:title=" ">
<path fill="none" stroke="#63b8ff" d="M739.07,-165.34C748.61,-157.65 762.55,-146.4 773.98,-137.18"/>
<polygon fill="#63b8ff" stroke="#63b8ff" points="776.08,-139.98 781.67,-130.98 771.69,-134.53 776.08,-139.98"/>
</a>
</g>
</g>
<!-- Node16 -->
<g id="Node000016" class="node">
<title>Node16</title>
<g id="a_Node000016"><a xlink:title=" ">
<polygon fill="#e0e0e0" stroke="#999999" points="891.75,-129.75 836,-129.75 836,-110.5 891.75,-110.5 891.75,-129.75"/>
<text text-anchor="middle" x="863.88" y="-116.25" font-family="Helvetica,sans-Serif" font-size="10.00">TGraph.h</text>
</a>
</g>
</g>
<!-- Node8&#45;&gt;Node16 -->
<g id="edge17_Node000008_Node000016" class="edge">
<title>Node8&#45;&gt;Node16</title>
<g id="a_edge17_Node000008_Node000016"><a xlink:title=" ">
<path fill="none" stroke="#63b8ff" d="M750.95,-165.34C772.63,-156.85 805.36,-144.04 830,-134.39"/>
<polygon fill="#63b8ff" stroke="#63b8ff" points="831.25,-137.66 839.28,-130.75 828.69,-131.14 831.25,-137.66"/>
</a>
</g>
</g>
<!-- Node17 -->
<g id="Node000017" class="node">
<title>Node17</title>
<g id="a_Node000017"><a xlink:href="_t_mnemonic_8h.html" target="_top" xlink:title=" ">
<polygon fill="white" stroke="#666666" points="1110.12,-129.75 1035.62,-129.75 1035.62,-110.5 1110.12,-110.5 1110.12,-129.75"/>
<text text-anchor="middle" x="1072.88" y="-116.25" font-family="Helvetica,sans-Serif" font-size="10.00">TMnemonic.h</text>
</a>
</g>
</g>
<!-- Node8&#45;&gt;Node17 -->
<g id="edge18_Node000008_Node000017" class="edge">
<title>Node8&#45;&gt;Node17</title>
<g id="a_edge18_Node000008_Node000017"><a xlink:title=" ">
<path fill="none" stroke="#63b8ff" d="M760.54,-168.73C813.65,-160.46 921.38,-144.43 1012.88,-129.75 1016.47,-129.17 1020.2,-128.56 1023.97,-127.95"/>
<polygon fill="#63b8ff" stroke="#63b8ff" points="1024.52,-131.4 1033.82,-126.33 1023.39,-124.49 1024.52,-131.4"/>
</a>
</g>
</g>
<!-- Node20 -->
<g id="Node000020" class="node">
<title>Node20</title>
<g id="a_Node000020"><a xlink:href="_globals_8h.html" target="_top" xlink:title=" ">
<polygon fill="white" stroke="#666666" points="457.12,-74.5 400.62,-74.5 400.62,-55.25 457.12,-55.25 457.12,-74.5"/>
<text text-anchor="middle" x="428.88" y="-61" font-family="Helvetica,sans-Serif" font-size="10.00">Globals.h</text>
</a>
</g>
</g>
<!-- Node8&#45;&gt;Node20 -->
<g id="edge47_Node000008_Node000020" class="edge">
<title>Node8&#45;&gt;Node20</title>
<g id="a_edge47_Node000008_Node000020"><a xlink:title=" ">
<path fill="none" stroke="#63b8ff" d="M695.03,-173.31C601.57,-169.93 339.23,-157.99 313.88,-129.75 288.09,-101.03 346.47,-82.39 389.13,-73.04"/>
<polygon fill="#63b8ff" stroke="#63b8ff" points="389.82,-76.47 398.9,-71.01 388.4,-69.62 389.82,-76.47"/>
</a>
</g>
</g>
<!-- Node33 -->
<g id="Node000033" class="node">
<title>Node33</title>
<g id="a_Node000033"><a xlink:href="_t_priority_value_8h.html" target="_top" xlink:title=" ">
<polygon fill="white" stroke="#666666" points="1261,-74.5 1176.75,-74.5 1176.75,-55.25 1261,-55.25 1261,-74.5"/>
<text text-anchor="middle" x="1218.88" y="-61" font-family="Helvetica,sans-Serif" font-size="10.00">TPriorityValue.h</text>
</a>
</g>
</g>
<!-- Node8&#45;&gt;Node33 -->
<g id="edge48_Node000008_Node000033" class="edge">
<title>Node8&#45;&gt;Node33</title>
<g id="a_edge48_Node000008_Node000033"><a xlink:title=" ">
<path fill="none" stroke="#63b8ff" d="M760.69,-172.54C842.36,-167.66 1052.96,-153.14 1118.88,-129.75 1149.46,-118.9 1180.27,-97.21 1199.45,-82.14"/>
<polygon fill="#63b8ff" stroke="#63b8ff" points="1201.59,-84.9 1207.18,-75.9 1197.2,-79.46 1201.59,-84.9"/>
</a>
</g>
</g>
<!-- Node35 -->
<g id="Node000035" class="node">
<title>Node35</title>
<g id="a_Node000035"><a xlink:title=" ">
<polygon fill="#e0e0e0" stroke="#999999" points="979.5,-129.75 910.25,-129.75 910.25,-110.5 979.5,-110.5 979.5,-129.75"/>
<text text-anchor="middle" x="944.88" y="-116.25" font-family="Helvetica,sans-Serif" font-size="10.00">TClassRef.h</text>
</a>
</g>
</g>
<!-- Node8&#45;&gt;Node35 -->
<g id="edge46_Node000008_Node000035" class="edge">
<title>Node8&#45;&gt;Node35</title>
<g id="a_edge46_Node000008_Node000035"><a xlink:title=" ">
<path fill="none" stroke="#63b8ff" d="M760.36,-166.4C797.19,-157.37 857.48,-142.57 899.07,-132.36"/>
<polygon fill="#63b8ff" stroke="#63b8ff" points="899.66,-135.82 908.54,-130.04 897.99,-129.03 899.66,-135.82"/>
</a>
</g>
</g>
<!-- Node17&#45;&gt;Node2 -->
<g id="edge20_Node000017_Node000002" class="edge">
<title>Node17&#45;&gt;Node2</title>
<g id="a_edge20_Node000017_Node000002"><a xlink:title=" ">
<path fill="none" stroke="#63b8ff" d="M1035.27,-114.92C1020.78,-113.39 1004.07,-111.74 988.88,-110.5 723.94,-88.92 655.29,-110.12 391.88,-74.5 297.75,-61.77 189.07,-35.34 132.9,-20.78"/>
<polygon fill="#63b8ff" stroke="#63b8ff" points="134.08,-17.48 123.52,-18.34 132.31,-24.25 134.08,-17.48"/>
</a>
</g>
</g>
<!-- Node17&#45;&gt;Node5 -->
<g id="edge21_Node000017_Node000005" class="edge">
<title>Node17&#45;&gt;Node5</title>
<g id="a_edge21_Node000017_Node000005"><a xlink:title=" ">
<path fill="none" stroke="#63b8ff" d="M1035.38,-110.84C1015.83,-104.42 993.6,-93.31 981.88,-74.5 973.77,-61.51 975.55,-43.99 978.92,-30.59"/>
<polygon fill="#63b8ff" stroke="#63b8ff" points="982.24,-31.72 981.79,-21.13 975.54,-29.69 982.24,-31.72"/>
</a>
</g>
</g>
<!-- Node17&#45;&gt;Node7 -->
<g id="edge19_Node000017_Node000007" class="edge">
<title>Node17&#45;&gt;Node7</title>
<g id="a_edge19_Node000017_Node000007"><a xlink:title=" ">
<path fill="none" stroke="#63b8ff" d="M1072.88,-110.25C1072.88,-93 1072.88,-54.58 1072.88,-30.81"/>
<polygon fill="#63b8ff" stroke="#63b8ff" points="1076.38,-31.14 1072.88,-21.14 1069.38,-31.14 1076.38,-31.14"/>
</a>
</g>
</g>
<!-- Node17&#45;&gt;Node8 -->
<g id="edge45_Node000017_Node000008" class="edge">
<title>Node17&#45;&gt;Node8</title>
<g id="a_edge45_Node000017_Node000008"><a xlink:title=" ">
<path fill="none" stroke="#63b8ff" d="M1035.19,-129.05C1033.73,-129.29 1032.29,-129.52 1030.88,-129.75 939.12,-144.47 831.05,-160.55 771.84,-168.8"/>
<polygon fill="#63b8ff" stroke="#63b8ff" points="771.59,-165.3 762.16,-170.14 772.55,-172.24 771.59,-165.3"/>
</a>
</g>
</g>
<!-- Node18 -->
<g id="Node000018" class="node">
<title>Node18</title>
<g id="a_Node000018"><a xlink:title=" ">
<polygon fill="#e0e0e0" stroke="#999999" points="1158.88,-74.5 1100.88,-74.5 1100.88,-55.25 1158.88,-55.25 1158.88,-74.5"/>
<text text-anchor="middle" x="1129.88" y="-61" font-family="Helvetica,sans-Serif" font-size="10.00">TObject.h</text>
</a>
</g>
</g>
<!-- Node17&#45;&gt;Node18 -->
<g id="edge22_Node000017_Node000018" class="edge">
<title>Node17&#45;&gt;Node18</title>
<g id="a_edge22_Node000017_Node000018"><a xlink:title=" ">
<path fill="none" stroke="#63b8ff" d="M1082.54,-110.09C1090.62,-102.55 1102.34,-91.6 1112.1,-82.48"/>
<polygon fill="#63b8ff" stroke="#63b8ff" points="1114.32,-85.19 1119.24,-75.81 1109.55,-80.08 1114.32,-85.19"/>
</a>
</g>
</g>
<!-- Node19 -->
<g id="Node000019" class="node">
<title>Node19</title>
<g id="a_Node000019"><a xlink:title=" ">
<polygon fill="#e0e0e0" stroke="#999999" points="1045,-74.5 990.75,-74.5 990.75,-55.25 1045,-55.25 1045,-74.5"/>
<text text-anchor="middle" x="1017.88" y="-61" font-family="Helvetica,sans-Serif" font-size="10.00">TClass.h</text>
</a>
</g>
</g>
<!-- Node17&#45;&gt;Node19 -->
<g id="edge23_Node000017_Node000019" class="edge">
<title>Node17&#45;&gt;Node19</title>
<g id="a_edge23_Node000017_Node000019"><a xlink:title=" ">
<path fill="none" stroke="#63b8ff" d="M1063.79,-110.33C1056.04,-102.82 1044.66,-91.81 1035.18,-82.63"/>
<polygon fill="#63b8ff" stroke="#63b8ff" points="1037.86,-80.35 1028.24,-75.91 1032.99,-85.38 1037.86,-80.35"/>
</a>
</g>
</g>
<!-- Node17&#45;&gt;Node20 -->
<g id="edge24_Node000017_Node000020" class="edge">
<title>Node17&#45;&gt;Node20</title>
<g id="a_edge24_Node000017_Node000020"><a xlink:title=" ">
<path fill="none" stroke="#63b8ff" d="M1035.26,-115.08C1020.77,-113.57 1004.06,-111.88 988.88,-110.5 793.94,-92.73 560.46,-75.39 468.69,-68.73"/>
<polygon fill="#63b8ff" stroke="#63b8ff" points="469.19,-65.26 458.96,-68.03 468.68,-72.24 469.19,-65.26"/>
</a>
</g>
</g>
<!-- Node17&#45;&gt;Node33 -->
<g id="edge41_Node000017_Node000033" class="edge">
<title>Node17&#45;&gt;Node33</title>
<g id="a_edge41_Node000017_Node000033"><a xlink:title=" ">
<path fill="none" stroke="#63b8ff" d="M1097.64,-110.09C1121.13,-101.52 1156.69,-88.56 1183.23,-78.88"/>
<polygon fill="#63b8ff" stroke="#63b8ff" points="1184.37,-82.19 1192.56,-75.47 1181.97,-75.61 1184.37,-82.19"/>
</a>
</g>
</g>
<!-- Node20&#45;&gt;Node2 -->
<g id="edge26_Node000020_Node000002" class="edge">
<title>Node20&#45;&gt;Node2</title>
<g id="a_edge26_Node000020_Node000002"><a xlink:title=" ">
<path fill="none" stroke="#63b8ff" d="M400.38,-60.44C349,-54.07 237.2,-39.41 132.98,-19.51"/>
<polygon fill="#63b8ff" stroke="#63b8ff" points="133.92,-16.12 123.43,-17.66 132.59,-23 133.92,-16.12"/>
</a>
</g>
</g>
<!-- Node20&#45;&gt;Node3 -->
<g id="edge27_Node000020_Node000003" class="edge">
<title>Node20&#45;&gt;Node3</title>
<g id="a_edge27_Node000020_Node000003"><a xlink:title=" ">
<path fill="none" stroke="#63b8ff" d="M400.37,-61.69C339.75,-56.79 193.43,-43.53 61.17,-19.45"/>
<polygon fill="#63b8ff" stroke="#63b8ff" points="62,-16.05 51.53,-17.67 60.73,-22.93 62,-16.05"/>
</a>
</g>
</g>
<!-- Node20&#45;&gt;Node5 -->
<g id="edge34_Node000020_Node000005" class="edge">
<title>Node20&#45;&gt;Node5</title>
<g id="a_edge34_Node000020_Node000005"><a xlink:title=" ">
<path fill="none" stroke="#63b8ff" d="M457.26,-57.54C461.79,-56.67 466.45,-55.87 470.88,-55.25 679.13,-26.18 737.63,-52.04 948.82,-19.28"/>
<polygon fill="#63b8ff" stroke="#63b8ff" points="949.15,-22.77 958.48,-17.75 948.06,-15.86 949.15,-22.77"/>
</a>
</g>
</g>
<!-- Node20&#45;&gt;Node7 -->
<g id="edge29_Node000020_Node000007" class="edge">
<title>Node20&#45;&gt;Node7</title>
<g id="a_edge29_Node000020_Node000007"><a xlink:title=" ">
<path fill="none" stroke="#63b8ff" d="M457.61,-62.62C543.42,-58.67 805.21,-45.21 1020.88,-19.25 1027.63,-18.44 1034.84,-17.37 1041.68,-16.26"/>
<polygon fill="#63b8ff" stroke="#63b8ff" points="1041.92,-19.77 1051.19,-14.66 1040.75,-12.87 1041.92,-19.77"/>
</a>
</g>
</g>
<!-- Node21 -->
<g id="Node000021" class="node">
<title>Node21</title>
<g id="a_Node000021"><a xlink:title=" ">
<polygon fill="#e0e0e0" stroke="#999999" points="805.5,-19.25 760.25,-19.25 760.25,0 805.5,0 805.5,-19.25"/>
<text text-anchor="middle" x="782.88" y="-5.75" font-family="Helvetica,sans-Serif" font-size="10.00">cstdint</text>
</a>
</g>
</g>
<!-- Node20&#45;&gt;Node21 -->
<g id="edge25_Node000020_Node000021" class="edge">
<title>Node20&#45;&gt;Node21</title>
<g id="a_edge25_Node000020_Node000021"><a xlink:title=" ">
<path fill="none" stroke="#63b8ff" d="M457.29,-57.74C461.82,-56.85 466.47,-55.98 470.88,-55.25 591.13,-35.2 625.85,-43.15 748.9,-19.38"/>
<polygon fill="#63b8ff" stroke="#63b8ff" points="749.27,-22.87 758.41,-17.51 747.92,-16.01 749.27,-22.87"/>
</a>
</g>
</g>
<!-- Node22 -->
<g id="Node000022" class="node">
<title>Node22</title>
<g id="a_Node000022"><a xlink:title=" ">
<polygon fill="#e0e0e0" stroke="#999999" points="881.88,-19.25 823.88,-19.25 823.88,0 881.88,0 881.88,-19.25"/>
<text text-anchor="middle" x="852.88" y="-5.75" font-family="Helvetica,sans-Serif" font-size="10.00">stdexcept</text>
</a>
</g>
</g>
<!-- Node20&#45;&gt;Node22 -->
<g id="edge28_Node000020_Node000022" class="edge">
<title>Node20&#45;&gt;Node22</title>
<g id="a_edge28_Node000020_Node000022"><a xlink:title=" ">
<path fill="none" stroke="#63b8ff" d="M457.27,-57.65C461.81,-56.77 466.46,-55.93 470.88,-55.25 619.23,-32.31 661.25,-43.74 812.41,-19.47"/>
<polygon fill="#63b8ff" stroke="#63b8ff" points="812.69,-22.97 821.99,-17.9 811.56,-16.06 812.69,-22.97"/>
</a>
</g>
</g>
<!-- Node23 -->
<g id="Node000023" class="node">
<title>Node23</title>
<g id="a_Node000023"><a xlink:title=" ">
<polygon fill="#e0e0e0" stroke="#999999" points="942,-19.25 899.75,-19.25 899.75,0 942,0 942,-19.25"/>
<text text-anchor="middle" x="920.88" y="-5.75" font-family="Helvetica,sans-Serif" font-size="10.00">cstdio</text>
</a>
</g>
</g>
<!-- Node20&#45;&gt;Node23 -->
<g id="edge30_Node000020_Node000023" class="edge">
<title>Node20&#45;&gt;Node23</title>
<g id="a_edge30_Node000020_Node000023"><a xlink:title=" ">
<path fill="none" stroke="#63b8ff" d="M457.26,-57.58C461.8,-56.71 466.45,-55.89 470.88,-55.25 652.67,-28.89 704.62,-52.34 888.23,-19.39"/>
<polygon fill="#63b8ff" stroke="#63b8ff" points="888.67,-22.87 897.88,-17.62 887.41,-15.98 888.67,-22.87"/>
</a>
</g>
</g>
<!-- Node24 -->
<g id="Node000024" class="node">
<title>Node24</title>
<g id="a_Node000024"><a xlink:title=" ">
<polygon fill="#e0e0e0" stroke="#999999" points="184.12,-19.25 139.62,-19.25 139.62,0 184.12,0 184.12,-19.25"/>
<text text-anchor="middle" x="161.88" y="-5.75" font-family="Helvetica,sans-Serif" font-size="10.00">cstdlib</text>
</a>
</g>
</g>
<!-- Node20&#45;&gt;Node24 -->
<g id="edge31_Node000020_Node000024" class="edge">
<title>Node20&#45;&gt;Node24</title>
<g id="a_edge31_Node000020_Node000024"><a xlink:title=" ">
<path fill="none" stroke="#63b8ff" d="M400.38,-59.29C357.85,-52.27 275.07,-37.94 195.68,-19.75"/>
<polygon fill="#63b8ff" stroke="#63b8ff" points="196.51,-16.35 185.98,-17.5 194.93,-23.17 196.51,-16.35"/>
</a>
</g>
</g>
<!-- Node25 -->
<g id="Node000025" class="node">
<title>Node25</title>
<g id="a_Node000025"><a xlink:title=" ">
<polygon fill="#e0e0e0" stroke="#999999" points="261.62,-19.25 202.12,-19.25 202.12,0 261.62,0 261.62,-19.25"/>
<text text-anchor="middle" x="231.88" y="-5.75" font-family="Helvetica,sans-Serif" font-size="10.00">execinfo.h</text>
</a>
</g>
</g>
<!-- Node20&#45;&gt;Node25 -->
<g id="edge32_Node000020_Node000025" class="edge">
<title>Node20&#45;&gt;Node25</title>
<g id="a_edge32_Node000020_Node000025"><a xlink:title=" ">
<path fill="none" stroke="#63b8ff" d="M400.23,-56.13C366.62,-47.05 310.67,-31.92 272.57,-21.62"/>
<polygon fill="#63b8ff" stroke="#63b8ff" points="273.87,-18.35 263.31,-19.12 272.05,-25.11 273.87,-18.35"/>
</a>
</g>
</g>
<!-- Node26 -->
<g id="Node000026" class="node">
<title>Node26</title>
<g id="a_Node000026"><a xlink:title=" ">
<polygon fill="#e0e0e0" stroke="#999999" points="330.12,-19.25 279.62,-19.25 279.62,0 330.12,0 330.12,-19.25"/>
<text text-anchor="middle" x="304.88" y="-5.75" font-family="Helvetica,sans-Serif" font-size="10.00">cxxabi.h</text>
</a>
</g>
</g>
<!-- Node20&#45;&gt;Node26 -->
<g id="edge33_Node000020_Node000026" class="edge">
<title>Node20&#45;&gt;Node26</title>
<g id="a_edge33_Node000020_Node000026"><a xlink:title=" ">
<path fill="none" stroke="#63b8ff" d="M407.84,-54.84C388.24,-46.43 358.77,-33.77 336.37,-24.15"/>
<polygon fill="#63b8ff" stroke="#63b8ff" points="337.97,-21.03 327.4,-20.3 335.21,-27.46 337.97,-21.03"/>
</a>
</g>
</g>
<!-- Node27 -->
<g id="Node000027" class="node">
<title>Node27</title>
<g id="a_Node000027"><a xlink:title=" ">
<polygon fill="#e0e0e0" stroke="#999999" points="385.38,-19.25 348.38,-19.25 348.38,0 385.38,0 385.38,-19.25"/>
<text text-anchor="middle" x="366.88" y="-5.75" font-family="Helvetica,sans-Serif" font-size="10.00">array</text>
</a>
</g>
</g>
<!-- Node20&#45;&gt;Node27 -->
<g id="edge35_Node000020_Node000027" class="edge">
<title>Node20&#45;&gt;Node27</title>
<g id="a_edge35_Node000020_Node000027"><a xlink:title=" ">
<path fill="none" stroke="#63b8ff" d="M418.36,-54.84C409.49,-47.22 396.56,-36.12 385.89,-26.95"/>
<polygon fill="#63b8ff" stroke="#63b8ff" points="388.25,-24.37 378.39,-20.51 383.69,-29.68 388.25,-24.37"/>
</a>
</g>
</g>
<!-- Node28 -->
<g id="Node000028" class="node">
<title>Node28</title>
<g id="a_Node000028"><a xlink:title=" ">
<polygon fill="#e0e0e0" stroke="#999999" points="454.12,-19.25 403.62,-19.25 403.62,0 454.12,0 454.12,-19.25"/>
<text text-anchor="middle" x="428.88" y="-5.75" font-family="Helvetica,sans-Serif" font-size="10.00">memory</text>
</a>
</g>
</g>
<!-- Node20&#45;&gt;Node28 -->
<g id="edge36_Node000020_Node000028" class="edge">
<title>Node20&#45;&gt;Node28</title>
<g id="a_edge36_Node000020_Node000028"><a xlink:title=" ">
<path fill="none" stroke="#63b8ff" d="M428.88,-55.08C428.88,-48.57 428.88,-39.42 428.88,-31.12"/>
<polygon fill="#63b8ff" stroke="#63b8ff" points="432.38,-31.12 428.88,-21.12 425.38,-31.12 432.38,-31.12"/>
</a>
</g>
</g>
<!-- Node29 -->
<g id="Node000029" class="node">
<title>Node29</title>
<g id="a_Node000029"><a xlink:title=" ">
<polygon fill="#e0e0e0" stroke="#999999" points="521.75,-19.25 472,-19.25 472,0 521.75,0 521.75,-19.25"/>
<text text-anchor="middle" x="496.88" y="-5.75" font-family="Helvetica,sans-Serif" font-size="10.00">unistd.h</text>
</a>
</g>
</g>
<!-- Node20&#45;&gt;Node29 -->
<g id="edge37_Node000020_Node000029" class="edge">
<title>Node20&#45;&gt;Node29</title>
<g id="a_edge37_Node000020_Node000029"><a xlink:title=" ">
<path fill="none" stroke="#63b8ff" d="M440.41,-54.84C450.34,-47.07 464.89,-35.67 476.73,-26.4"/>
<polygon fill="#63b8ff" stroke="#63b8ff" points="478.6,-29.38 484.32,-20.46 474.29,-23.87 478.6,-29.38"/>
</a>
</g>
</g>
<!-- Node30 -->
<g id="Node000030" class="node">
<title>Node30</title>
<g id="a_Node000030"><a xlink:title=" ">
<polygon fill="#e0e0e0" stroke="#999999" points="585.88,-19.25 539.88,-19.25 539.88,0 585.88,0 585.88,-19.25"/>
<text text-anchor="middle" x="562.88" y="-5.75" font-family="Helvetica,sans-Serif" font-size="10.00">TEnv.h</text>
</a>
</g>
</g>
<!-- Node20&#45;&gt;Node30 -->
<g id="edge38_Node000020_Node000030" class="edge">
<title>Node20&#45;&gt;Node30</title>
<g id="a_edge38_Node000020_Node000030"><a xlink:title=" ">
<path fill="none" stroke="#63b8ff" d="M451.61,-54.84C472.97,-46.35 505.22,-33.54 529.5,-23.89"/>
<polygon fill="#63b8ff" stroke="#63b8ff" points="530.63,-27.21 538.63,-20.26 528.04,-20.7 530.63,-27.21"/>
</a>
</g>
</g>
<!-- Node31 -->
<g id="Node000031" class="node">
<title>Node31</title>
<g id="a_Node000031"><a xlink:title=" ">
<polygon fill="#e0e0e0" stroke="#999999" points="663.62,-19.25 604.12,-19.25 604.12,0 663.62,0 663.62,-19.25"/>
<text text-anchor="middle" x="633.88" y="-5.75" font-family="Helvetica,sans-Serif" font-size="10.00">sys/wait.h</text>
</a>
</g>
</g>
<!-- Node20&#45;&gt;Node31 -->
<g id="edge39_Node000020_Node000031" class="edge">
<title>Node20&#45;&gt;Node31</title>
<g id="a_edge39_Node000020_Node000031"><a xlink:title=" ">
<path fill="none" stroke="#63b8ff" d="M457.38,-56.47C492.6,-47.32 552.78,-31.69 592.94,-21.26"/>
<polygon fill="#63b8ff" stroke="#63b8ff" points="593.69,-24.68 602.48,-18.78 591.93,-17.91 593.69,-24.68"/>
</a>
</g>
</g>
<!-- Node32 -->
<g id="Node000032" class="node">
<title>Node32</title>
<g id="a_Node000032"><a xlink:title=" ">
<polygon fill="#e0e0e0" stroke="#999999" points="742,-19.25 681.75,-19.25 681.75,0 742,0 742,-19.25"/>
<text text-anchor="middle" x="711.88" y="-5.75" font-family="Helvetica,sans-Serif" font-size="10.00">sys/prctl.h</text>
</a>
</g>
</g>
<!-- Node20&#45;&gt;Node32 -->
<g id="edge40_Node000020_Node000032" class="edge">
<title>Node20&#45;&gt;Node32</title>
<g id="a_edge40_Node000020_Node000032"><a xlink:title=" ">
<path fill="none" stroke="#63b8ff" d="M457.32,-57.93C461.85,-57.01 466.49,-56.09 470.88,-55.25 556.94,-38.75 581.55,-37.2 670.49,-19.66"/>
<polygon fill="#63b8ff" stroke="#63b8ff" points="671.06,-23.11 680.18,-17.73 669.69,-16.25 671.06,-23.11"/>
</a>
</g>
</g>
<!-- Node33&#45;&gt;Node6 -->
<g id="edge44_Node000033_Node000006" class="edge">
<title>Node33&#45;&gt;Node6</title>
<g id="a_edge44_Node000033_Node000006"><a xlink:title=" ">
<path fill="none" stroke="#63b8ff" d="M1233.63,-54.84C1246.76,-46.81 1266.2,-34.91 1281.61,-25.48"/>
<polygon fill="#63b8ff" stroke="#63b8ff" points="1283.05,-28.7 1289.75,-20.49 1279.4,-22.73 1283.05,-28.7"/>
</a>
</g>
</g>
<!-- Node33&#45;&gt;Node7 -->
<g id="edge43_Node000033_Node000007" class="edge">
<title>Node33&#45;&gt;Node7</title>
<g id="a_edge43_Node000033_Node000007"><a xlink:title=" ">
<path fill="none" stroke="#63b8ff" d="M1194.11,-54.84C1169.19,-45.75 1130.71,-31.72 1103.8,-21.91"/>
<polygon fill="#63b8ff" stroke="#63b8ff" points="1105.07,-18.64 1094.48,-18.5 1102.67,-25.22 1105.07,-18.64"/>
</a>
</g>
</g>
<!-- Node34 -->
<g id="Node000034" class="node">
<title>Node34</title>
<g id="a_Node000034"><a xlink:title=" ">
<polygon fill="#e0e0e0" stroke="#999999" points="1244.5,-19.25 1193.25,-19.25 1193.25,0 1244.5,0 1244.5,-19.25"/>
<text text-anchor="middle" x="1218.88" y="-5.75" font-family="Helvetica,sans-Serif" font-size="10.00">ostream</text>
</a>
</g>
</g>
<!-- Node33&#45;&gt;Node34 -->
<g id="edge42_Node000033_Node000034" class="edge">
<title>Node33&#45;&gt;Node34</title>
<g id="a_edge42_Node000033_Node000034"><a xlink:title=" ">
<path fill="none" stroke="#63b8ff" d="M1218.88,-55.08C1218.88,-48.57 1218.88,-39.42 1218.88,-31.12"/>
<polygon fill="#63b8ff" stroke="#63b8ff" points="1222.38,-31.12 1218.88,-21.12 1215.38,-31.12 1222.38,-31.12"/>
</a>
</g>
</g>
</g>
</svg>

<g id="navigator" transform="translate(0 0)" fill="#404254">
  <rect fill="#f2f5e9" fill-opacity="0.5" stroke="#606060" stroke-width=".5" x="0" y="0" width="60" height="60"/>
  <use id="zoomplus" xlink:href="#zoomPlus" x="17" y="9" onmousedown="handleZoom(evt,'in')"/>
  <use id="zoomminus" xlink:href="#zoomMin" x="42" y="9" onmousedown="handleZoom(evt,'out')"/>
  <use id="reset" xlink:href="#resetDef" x="30" y="36" onmousedown="handleReset()"/>
   <use id="arrowup" xlink:href="#arrowUp" x="0" y="0" onmousedown="handlePan(0,-1)"/>
  <use id="arrowright" xlink:href="#arrowRight" x="0" y="0" onmousedown="handlePan(1,0)"/>
  <use id="arrowdown" xlink:href="#arrowDown" x="0" y="0" onmousedown="handlePan(0,1)"/>
  <use id="arrowleft" xlink:href="#arrowLeft" x="0" y="0" onmousedown="handlePan(-1,0)"/>
</g>
<svg viewBox="0 0 15 15" width="100%" height="30px" preserveAspectRatio="xMaxYMin meet">
 <g id="arrow_out" transform="scale(0.3 0.3)">
  <a xlink:href="_convert_drift_files_8cxx__incl_org.svg" target="_base">
   <rect id="button" ry="5" rx="5" y="6" x="6" height="38" width="38"
        fill="#f2f5e9" fill-opacity="0.5" stroke="#606060" stroke-width="1.0"/>
   <path id="arrow"
     d="M 11.500037,31.436501 C 11.940474,20.09759 22.043105,11.32322 32.158766,21.979434 L 37.068811,17.246167 C 37.068811,17.246167 37.088388,32 37.088388,32 L 22.160133,31.978069 C 22.160133,31.978069 26.997745,27.140456 26.997745,27.140456 C 18.528582,18.264221 13.291696,25.230495 11.500037,31.436501 z"
     style="fill:#404040;"/>
  </a>
 </g>
</svg>

<style type='text/css'>
<![CDATA[
[data-mouse-over-selected='false'] { opacity: 0.7; }
[data-mouse-over-selected='true']  { opacity: 1.0; }
]]>
</style>
<script type="application/ecmascript"><![CDATA[
document.addEventListener('DOMContentLoaded', (event) => {
  highlightEdges();
  highlightAdjacentNodes();
});
]]></script>
</svg>
