<?xml version="1.0" encoding="UTF-8" standalone="no"?>
<!DOCTYPE svg PUBLIC "-//W3C//DTD SVG 1.1//EN"
 "http://www.w3.org/Graphics/SVG/1.1/DTD/svg11.dtd">
<!-- Generated by graphviz version 9.0.0 (20230911.1827)
 -->
<!-- Title: ConvertDriftFiles.cxx Pages: 1 -->
<svg width="1346pt" height="248pt"
 viewBox="0.00 0.00 1346.49 248.25" xmlns="http://www.w3.org/2000/svg" xmlns:xlink="http://www.w3.org/1999/xlink">
<g id="graph0" class="graph" transform="scale(1 1) rotate(0) translate(4 244.25)">
<title>ConvertDriftFiles.cxx</title>
<!-- Node1 -->
<g id="Node000001" class="node">
<title>Node1</title>
<g id="a_Node000001"><a xlink:title=" ">
<polygon fill="#999999" stroke="#666666" points="1039.49,-240.25 934.24,-240.25 934.24,-221 1039.49,-221 1039.49,-240.25"/>
<text text-anchor="middle" x="986.86" y="-226.75" font-family="Helvetica,sans-Serif" font-size="10.00">ConvertDriftFiles.cxx</text>
</a>
</g>
</g>
<!-- Node2 -->
<g id="Node000002" class="node">
<title>Node2</title>
<g id="a_Node000002"><a xlink:title=" ">
<polygon fill="#e0e0e0" stroke="#999999" points="236.61,-19.25 183.11,-19.25 183.11,0 236.61,0 236.61,-19.25"/>
<text text-anchor="middle" x="209.86" y="-5.75" font-family="Helvetica,sans-Serif" font-size="10.00">iostream</text>
</a>
</g>
</g>
<!-- Node1&#45;&gt;Node2 -->
<g id="edge1_Node000001_Node000002" class="edge">
<title>Node1&#45;&gt;Node2</title>
<g id="a_edge1_Node000001_Node000002"><a xlink:title=" ">
<path fill="none" stroke="#63b8ff" d="M933.94,-227.39C758.15,-219.4 201.93,-189.57 150.86,-129.75 141.77,-119.1 139.54,-87.75 156.86,-55.25 163.12,-43.5 173.87,-33.58 184.06,-26.09"/>
<polygon fill="#63b8ff" stroke="#63b8ff" points="185.93,-29.04 192.24,-20.53 182,-23.26 185.93,-29.04"/>
</a>
</g>
</g>
<!-- Node3 -->
<g id="Node000003" class="node">
<title>Node3</title>
<g id="a_Node000003"><a xlink:title=" ">
<polygon fill="#e0e0e0" stroke="#999999" points="1268.74,-19.25 1218.99,-19.25 1218.99,0 1268.74,0 1268.74,-19.25"/>
<text text-anchor="middle" x="1243.86" y="-5.75" font-family="Helvetica,sans-Serif" font-size="10.00">iomanip</text>
</a>
</g>
</g>
<!-- Node1&#45;&gt;Node3 -->
<g id="edge2_Node000001_Node000003" class="edge">
<title>Node1&#45;&gt;Node3</title>
<g id="a_edge2_Node000001_Node000003"><a xlink:title=" ">
<path fill="none" stroke="#63b8ff" d="M984.93,-220.9C979.24,-192.59 965.6,-102.46 1010.86,-55.25 1070.63,7.1 1118.18,-34.74 1207.55,-19.39"/>
<polygon fill="#63b8ff" stroke="#63b8ff" points="1208.02,-22.86 1217.17,-17.52 1206.69,-15.99 1208.02,-22.86"/>
</a>
</g>
</g>
<!-- Node4 -->
<g id="Node000004" class="node">
<title>Node4</title>
<g id="a_Node000004"><a xlink:title=" ">
<polygon fill="#e0e0e0" stroke="#999999" points="1102.36,-185 1053.36,-185 1053.36,-165.75 1102.36,-165.75 1102.36,-185"/>
<text text-anchor="middle" x="1077.86" y="-171.5" font-family="Helvetica,sans-Serif" font-size="10.00">fstream</text>
</a>
</g>
</g>
<!-- Node1&#45;&gt;Node4 -->
<g id="edge3_Node000001_Node000004" class="edge">
<title>Node1&#45;&gt;Node4</title>
<g id="a_edge3_Node000001_Node000004"><a xlink:title=" ">
<path fill="none" stroke="#63b8ff" d="M1002.3,-220.59C1016.02,-212.56 1036.36,-200.66 1052.48,-191.23"/>
<polygon fill="#63b8ff" stroke="#63b8ff" points="1054.18,-194.29 1061.04,-186.22 1050.64,-188.25 1054.18,-194.29"/>
</a>
</g>
</g>
<!-- Node5 -->
<g id="Node000005" class="node">
<title>Node5</title>
<g id="a_Node000005"><a xlink:title=" ">
<polygon fill="#e0e0e0" stroke="#999999" points="1338.49,-19.25 1287.24,-19.25 1287.24,0 1338.49,0 1338.49,-19.25"/>
<text text-anchor="middle" x="1312.86" y="-5.75" font-family="Helvetica,sans-Serif" font-size="10.00">sstream</text>
</a>
</g>
</g>
<!-- Node1&#45;&gt;Node5 -->
<g id="edge4_Node000001_Node000005" class="edge">
<title>Node1&#45;&gt;Node5</title>
<g id="a_edge4_Node000001_Node000005"><a xlink:title=" ">
<path fill="none" stroke="#63b8ff" d="M993.61,-220.56C1003.73,-207.38 1023.88,-182.69 1044.86,-165.75 1123.36,-102.38 1230.78,-48.56 1282.54,-24.34"/>
<polygon fill="#63b8ff" stroke="#63b8ff" points="1283.73,-27.65 1291.33,-20.27 1280.79,-21.29 1283.73,-27.65"/>
</a>
</g>
</g>
<!-- Node6 -->
<g id="Node000006" class="node">
<title>Node6</title>
<g id="a_Node000006"><a xlink:title=" ">
<polygon fill="#e0e0e0" stroke="#999999" points="1163.36,-185 1120.36,-185 1120.36,-165.75 1163.36,-165.75 1163.36,-185"/>
<text text-anchor="middle" x="1141.86" y="-171.5" font-family="Helvetica,sans-Serif" font-size="10.00">vector</text>
</a>
</g>
</g>
<!-- Node1&#45;&gt;Node6 -->
<g id="edge5_Node000001_Node000006" class="edge">
<title>Node1&#45;&gt;Node6</title>
<g id="a_edge5_Node000001_Node000006"><a xlink:title=" ">
<path fill="none" stroke="#63b8ff" d="M1013.15,-220.59C1039.69,-211.48 1080.72,-197.38 1109.3,-187.56"/>
<polygon fill="#63b8ff" stroke="#63b8ff" points="1110.2,-190.95 1118.52,-184.39 1107.93,-184.33 1110.2,-190.95"/>
</a>
</g>
</g>
<!-- Node7 -->
<g id="Node000007" class="node">
<title>Node7</title>
<g id="a_Node000007"><a xlink:title=" ">
<polygon fill="#e0e0e0" stroke="#999999" points="119.86,-19.25 79.86,-19.25 79.86,0 119.86,0 119.86,-19.25"/>
<text text-anchor="middle" x="99.86" y="-5.75" font-family="Helvetica,sans-Serif" font-size="10.00">string</text>
</a>
</g>
</g>
<!-- Node1&#45;&gt;Node7 -->
<g id="edge6_Node000001_Node000007" class="edge">
<title>Node1&#45;&gt;Node7</title>
<g id="a_edge6_Node000001_Node000007"><a xlink:title=" ">
<path fill="none" stroke="#63b8ff" d="M933.81,-229.87C812.91,-229.67 507.98,-224.86 256.86,-185 160.27,-169.67 123.61,-186.36 43.86,-129.75 13.71,-108.35 -12.83,-86.54 6.86,-55.25 14.02,-43.88 44.72,-30.51 68.92,-21.39"/>
<polygon fill="#63b8ff" stroke="#63b8ff" points="69.87,-24.77 78.05,-18.04 67.46,-18.2 69.87,-24.77"/>
</a>
</g>
</g>
<!-- Node8 -->
<g id="Node000008" class="node">
<title>Node8</title>
<g id="a_Node000008"><a xlink:href="_t_channel_8h.html" target="_top" xlink:title=" ">
<polygon fill="white" stroke="#666666" points="572.24,-185 507.49,-185 507.49,-165.75 572.24,-165.75 572.24,-185"/>
<text text-anchor="middle" x="539.86" y="-171.5" font-family="Helvetica,sans-Serif" font-size="10.00">TChannel.h</text>
</a>
</g>
</g>
<!-- Node1&#45;&gt;Node8 -->
<g id="edge7_Node000001_Node000008" class="edge">
<title>Node1&#45;&gt;Node8</title>
<g id="a_edge7_Node000001_Node000008"><a xlink:title=" ">
<path fill="none" stroke="#63b8ff" d="M933.83,-223.31C844.69,-212.69 666.47,-191.46 583.83,-181.61"/>
<polygon fill="#63b8ff" stroke="#63b8ff" points="584.43,-178.16 574.09,-180.45 583.6,-185.11 584.43,-178.16"/>
</a>
</g>
</g>
<!-- Node8&#45;&gt;Node2 -->
<g id="edge8_Node000008_Node000002" class="edge">
<title>Node8&#45;&gt;Node2</title>
<g id="a_edge8_Node000008_Node000002"><a xlink:title=" ">
<path fill="none" stroke="#63b8ff" d="M507.24,-172.94C420.03,-168.76 186.54,-155.27 163.86,-129.75 137.24,-99.78 171.16,-52.73 193.39,-27.67"/>
<polygon fill="#63b8ff" stroke="#63b8ff" points="195.69,-30.34 199.89,-20.62 190.54,-25.6 195.69,-30.34"/>
</a>
</g>
</g>
<!-- Node8&#45;&gt;Node7 -->
<g id="edge9_Node000008_Node000007" class="edge">
<title>Node8&#45;&gt;Node7</title>
<g id="a_edge9_Node000008_Node000007"><a xlink:title=" ">
<path fill="none" stroke="#63b8ff" d="M507.18,-173.1C418.52,-169.31 175.03,-156.69 99.86,-129.75 53.2,-113.02 -8.57,-97.8 16.86,-55.25 22.86,-45.2 48.08,-32.45 69.16,-23.15"/>
<polygon fill="#63b8ff" stroke="#63b8ff" points="70.48,-26.39 78.29,-19.23 67.72,-19.96 70.48,-26.39"/>
</a>
</g>
</g>
<!-- Node9 -->
<g id="Node000009" class="node">
<title>Node9</title>
<g id="a_Node000009"><a xlink:title=" ">
<polygon fill="#e0e0e0" stroke="#999999" points="215.36,-129.75 172.36,-129.75 172.36,-110.5 215.36,-110.5 215.36,-129.75"/>
<text text-anchor="middle" x="193.86" y="-116.25" font-family="Helvetica,sans-Serif" font-size="10.00">cmath</text>
</a>
</g>
</g>
<!-- Node8&#45;&gt;Node9 -->
<g id="edge10_Node000008_Node000009" class="edge">
<title>Node8&#45;&gt;Node9</title>
<g id="a_edge10_Node000008_Node000009"><a xlink:title=" ">
<path fill="none" stroke="#63b8ff" d="M507.42,-171.19C451.95,-165.45 335.14,-152.04 226.91,-129.92"/>
<polygon fill="#63b8ff" stroke="#63b8ff" points="227.77,-126.52 217.27,-127.92 226.35,-133.38 227.77,-126.52"/>
</a>
</g>
</g>
<!-- Node10 -->
<g id="Node000010" class="node">
<title>Node10</title>
<g id="a_Node000010"><a xlink:title=" ">
<polygon fill="#e0e0e0" stroke="#999999" points="272.11,-129.75 233.61,-129.75 233.61,-110.5 272.11,-110.5 272.11,-129.75"/>
<text text-anchor="middle" x="252.86" y="-116.25" font-family="Helvetica,sans-Serif" font-size="10.00">utility</text>
</a>
</g>
</g>
<!-- Node8&#45;&gt;Node10 -->
<g id="edge11_Node000008_Node000010" class="edge">
<title>Node8&#45;&gt;Node10</title>
<g id="a_edge11_Node000008_Node000010"><a xlink:title=" ">
<path fill="none" stroke="#63b8ff" d="M507.03,-169.96C459.79,-163.34 369.75,-149.7 283.48,-129.87"/>
<polygon fill="#63b8ff" stroke="#63b8ff" points="284.44,-126.5 273.91,-127.63 282.85,-133.31 284.44,-126.5"/>
</a>
</g>
</g>
<!-- Node11 -->
<g id="Node000011" class="node">
<title>Node11</title>
<g id="a_Node000011"><a xlink:title=" ">
<polygon fill="#e0e0e0" stroke="#999999" points="373.24,-129.75 290.49,-129.75 290.49,-110.5 373.24,-110.5 373.24,-129.75"/>
<text text-anchor="middle" x="331.86" y="-116.25" font-family="Helvetica,sans-Serif" font-size="10.00">unordered_map</text>
</a>
</g>
</g>
<!-- Node8&#45;&gt;Node11 -->
<g id="edge12_Node000008_Node000011" class="edge">
<title>Node8&#45;&gt;Node11</title>
<g id="a_edge12_Node000008_Node000011"><a xlink:title=" ">
<path fill="none" stroke="#63b8ff" d="M507.36,-166.05C472.73,-157.19 417.6,-143.08 378.38,-133.03"/>
<polygon fill="#63b8ff" stroke="#63b8ff" points="379.28,-129.65 368.73,-130.56 377.55,-136.43 379.28,-129.65"/>
</a>
</g>
</g>
<!-- Node12 -->
<g id="Node000012" class="node">
<title>Node12</title>
<g id="a_Node000012"><a xlink:title=" ">
<polygon fill="#e0e0e0" stroke="#999999" points="452.36,-129.75 391.36,-129.75 391.36,-110.5 452.36,-110.5 452.36,-129.75"/>
<text text-anchor="middle" x="421.86" y="-116.25" font-family="Helvetica,sans-Serif" font-size="10.00">TNamed.h</text>
</a>
</g>
</g>
<!-- Node8&#45;&gt;Node12 -->
<g id="edge13_Node000008_Node000012" class="edge">
<title>Node8&#45;&gt;Node12</title>
<g id="a_edge13_Node000008_Node000012"><a xlink:title=" ">
<path fill="none" stroke="#63b8ff" d="M519.84,-165.34C501.37,-157 473.65,-144.5 452.41,-134.91"/>
<polygon fill="#63b8ff" stroke="#63b8ff" points="453.91,-131.75 443.36,-130.83 451.03,-138.13 453.91,-131.75"/>
</a>
</g>
</g>
<!-- Node13 -->
<g id="Node000013" class="node">
<title>Node13</title>
<g id="a_Node000013"><a xlink:title=" ">
<polygon fill="#e0e0e0" stroke="#999999" points="535.61,-129.75 470.11,-129.75 470.11,-110.5 535.61,-110.5 535.61,-129.75"/>
<text text-anchor="middle" x="502.86" y="-116.25" font-family="Helvetica,sans-Serif" font-size="10.00">TRandom.h</text>
</a>
</g>
</g>
<!-- Node8&#45;&gt;Node13 -->
<g id="edge14_Node000008_Node000013" class="edge">
<title>Node8&#45;&gt;Node13</title>
<g id="a_edge14_Node000008_Node000013"><a xlink:title=" ">
<path fill="none" stroke="#63b8ff" d="M533.75,-165.58C528.8,-158.46 521.66,-148.18 515.49,-139.3"/>
<polygon fill="#63b8ff" stroke="#63b8ff" points="518.55,-137.57 509.97,-131.35 512.8,-141.56 518.55,-137.57"/>
</a>
</g>
</g>
<!-- Node14 -->
<g id="Node000014" class="node">
<title>Node14</title>
<g id="a_Node000014"><a xlink:title=" ">
<polygon fill="#e0e0e0" stroke="#999999" points="599.86,-129.75 553.86,-129.75 553.86,-110.5 599.86,-110.5 599.86,-129.75"/>
<text text-anchor="middle" x="576.86" y="-116.25" font-family="Helvetica,sans-Serif" font-size="10.00">TList.h</text>
</a>
</g>
</g>
<!-- Node8&#45;&gt;Node14 -->
<g id="edge15_Node000008_Node000014" class="edge">
<title>Node8&#45;&gt;Node14</title>
<g id="a_edge15_Node000008_Node000014"><a xlink:title=" ">
<path fill="none" stroke="#63b8ff" d="M545.97,-165.58C550.92,-158.46 558.06,-148.18 564.23,-139.3"/>
<polygon fill="#63b8ff" stroke="#63b8ff" points="566.92,-141.56 569.75,-131.35 561.17,-137.57 566.92,-141.56"/>
</a>
</g>
</g>
<!-- Node15 -->
<g id="Node000015" class="node">
<title>Node15</title>
<g id="a_Node000015"><a xlink:title=" ">
<polygon fill="#e0e0e0" stroke="#999999" points="667.36,-129.75 618.36,-129.75 618.36,-110.5 667.36,-110.5 667.36,-129.75"/>
<text text-anchor="middle" x="642.86" y="-116.25" font-family="Helvetica,sans-Serif" font-size="10.00">TTree.h</text>
</a>
</g>
</g>
<!-- Node8&#45;&gt;Node15 -->
<g id="edge16_Node000008_Node000015" class="edge">
<title>Node8&#45;&gt;Node15</title>
<g id="a_edge16_Node000008_Node000015"><a xlink:title=" ">
<path fill="none" stroke="#63b8ff" d="M557.33,-165.34C573.17,-157.16 596.77,-144.96 615.17,-135.44"/>
<polygon fill="#63b8ff" stroke="#63b8ff" points="616.68,-138.6 623.96,-130.9 613.47,-132.38 616.68,-138.6"/>
</a>
</g>
</g>
<!-- Node16 -->
<g id="Node000016" class="node">
<title>Node16</title>
<g id="a_Node000016"><a xlink:title=" ">
<polygon fill="#e0e0e0" stroke="#999999" points="740.74,-129.75 684.99,-129.75 684.99,-110.5 740.74,-110.5 740.74,-129.75"/>
<text text-anchor="middle" x="712.86" y="-116.25" font-family="Helvetica,sans-Serif" font-size="10.00">TGraph.h</text>
</a>
</g>
</g>
<!-- Node8&#45;&gt;Node16 -->
<g id="edge17_Node000008_Node000016" class="edge">
<title>Node8&#45;&gt;Node16</title>
<g id="a_edge17_Node000008_Node000016"><a xlink:title=" ">
<path fill="none" stroke="#63b8ff" d="M569.21,-165.34C598.01,-156.48 642.11,-142.9 673.85,-133.13"/>
<polygon fill="#63b8ff" stroke="#63b8ff" points="674.55,-136.58 683.07,-130.29 672.49,-129.89 674.55,-136.58"/>
</a>
</g>
</g>
<!-- Node17 -->
<g id="Node000017" class="node">
<title>Node17</title>
<g id="a_Node000017"><a xlink:href="_t_mnemonic_8h.html" target="_top" xlink:title=" ">
<polygon fill="white" stroke="#666666" points="921.11,-129.75 846.61,-129.75 846.61,-110.5 921.11,-110.5 921.11,-129.75"/>
<text text-anchor="middle" x="883.86" y="-116.25" font-family="Helvetica,sans-Serif" font-size="10.00">TMnemonic.h</text>
</a>
</g>
</g>
<!-- Node8&#45;&gt;Node17 -->
<g id="edge18_Node000008_Node000017" class="edge">
<title>Node8&#45;&gt;Node17</title>
<g id="a_edge18_Node000008_Node000017"><a xlink:title=" ">
<path fill="none" stroke="#63b8ff" d="M572.64,-169.05C626.4,-161.11 736.01,-145.4 828.86,-129.75 830.88,-129.41 832.94,-129.05 835.03,-128.69"/>
<polygon fill="#63b8ff" stroke="#63b8ff" points="835.64,-132.13 844.87,-126.94 834.42,-125.24 835.64,-132.13"/>
</a>
</g>
</g>
<!-- Node20 -->
<g id="Node000020" class="node">
<title>Node20</title>
<g id="a_Node000020"><a xlink:href="_globals_8h.html" target="_top" xlink:title=" ">
<polygon fill="white" stroke="#666666" points="876.11,-74.5 819.61,-74.5 819.61,-55.25 876.11,-55.25 876.11,-74.5"/>
<text text-anchor="middle" x="847.86" y="-61" font-family="Helvetica,sans-Serif" font-size="10.00">Globals.h</text>
</a>
</g>
</g>
<!-- Node8&#45;&gt;Node20 -->
<g id="edge47_Node000008_Node000020" class="edge">
<title>Node8&#45;&gt;Node20</title>
<g id="a_edge47_Node000008_Node000020"><a xlink:title=" ">
<path fill="none" stroke="#63b8ff" d="M572.72,-173.07C662.38,-169.19 906.21,-156.26 929.86,-129.75 948.05,-109.36 916.04,-90.75 886.85,-78.94"/>
<polygon fill="#63b8ff" stroke="#63b8ff" points="888.32,-75.76 877.73,-75.45 885.82,-82.29 888.32,-75.76"/>
</a>
</g>
</g>
<!-- Node35 -->
<g id="Node000035" class="node">
<title>Node35</title>
<g id="a_Node000035"><a xlink:href="_t_priority_value_8h.html" target="_top" xlink:title=" ">
<polygon fill="white" stroke="#666666" points="109.99,-74.5 25.74,-74.5 25.74,-55.25 109.99,-55.25 109.99,-74.5"/>
<text text-anchor="middle" x="67.86" y="-61" font-family="Helvetica,sans-Serif" font-size="10.00">TPriorityValue.h</text>
</a>
</g>
</g>
<!-- Node8&#45;&gt;Node35 -->
<g id="edge48_Node000008_Node000035" class="edge">
<title>Node8&#45;&gt;Node35</title>
<g id="a_edge48_Node000008_Node000035"><a xlink:title=" ">
<path fill="none" stroke="#63b8ff" d="M507.25,-173.65C422.32,-171.33 196.29,-162.2 129.86,-129.75 108.87,-119.5 91.06,-99.09 79.99,-84.09"/>
<polygon fill="#63b8ff" stroke="#63b8ff" points="82.92,-82.18 74.31,-76 77.19,-86.2 82.92,-82.18"/>
</a>
</g>
</g>
<!-- Node37 -->
<g id="Node000037" class="node">
<title>Node37</title>
<g id="a_Node000037"><a xlink:title=" ">
<polygon fill="#e0e0e0" stroke="#999999" points="828.49,-129.75 759.24,-129.75 759.24,-110.5 828.49,-110.5 828.49,-129.75"/>
<text text-anchor="middle" x="793.86" y="-116.25" font-family="Helvetica,sans-Serif" font-size="10.00">TClassRef.h</text>
</a>
</g>
</g>
<!-- Node8&#45;&gt;Node37 -->
<g id="edge46_Node000008_Node000037" class="edge">
<title>Node8&#45;&gt;Node37</title>
<g id="a_edge46_Node000008_Node000037"><a xlink:title=" ">
<path fill="none" stroke="#63b8ff" d="M572.55,-167.52C617.14,-158.17 697.28,-141.37 747.91,-130.76"/>
<polygon fill="#63b8ff" stroke="#63b8ff" points="748.31,-134.25 757.38,-128.77 746.87,-127.4 748.31,-134.25"/>
</a>
</g>
</g>
<!-- Node17&#45;&gt;Node2 -->
<g id="edge20_Node000017_Node000002" class="edge">
<title>Node17&#45;&gt;Node2</title>
<g id="a_edge20_Node000017_Node000002"><a xlink:title=" ">
<path fill="none" stroke="#63b8ff" d="M846.22,-111.98C843.39,-111.47 840.58,-110.97 837.86,-110.5 582.9,-66.38 518.34,-60.31 262.86,-19.25 258.15,-18.49 253.2,-17.69 248.3,-16.9"/>
<polygon fill="#63b8ff" stroke="#63b8ff" points="249.02,-13.47 238.59,-15.32 247.9,-20.38 249.02,-13.47"/>
</a>
</g>
</g>
<!-- Node17&#45;&gt;Node7 -->
<g id="edge19_Node000017_Node000007" class="edge">
<title>Node17&#45;&gt;Node7</title>
<g id="a_edge19_Node000017_Node000007"><a xlink:title=" ">
<path fill="none" stroke="#63b8ff" d="M846.25,-111.82C843.41,-111.35 840.59,-110.9 837.86,-110.5 687.51,-88.48 648.49,-94.55 497.86,-74.5 360.76,-56.25 198.14,-28.11 131.11,-16.23"/>
<polygon fill="#63b8ff" stroke="#63b8ff" points="132.05,-12.84 121.59,-14.53 130.82,-19.73 132.05,-12.84"/>
</a>
</g>
</g>
<!-- Node17&#45;&gt;Node8 -->
<g id="edge45_Node000017_Node000008" class="edge">
<title>Node17&#45;&gt;Node8</title>
<g id="a_edge45_Node000017_Node000008"><a xlink:title=" ">
<path fill="none" stroke="#63b8ff" d="M846.28,-129.85C753.3,-145.51 643.68,-161.21 583.89,-169.11"/>
<polygon fill="#63b8ff" stroke="#63b8ff" points="583.58,-165.63 574.12,-170.39 584.48,-172.57 583.58,-165.63"/>
</a>
</g>
</g>
<!-- Node18 -->
<g id="Node000018" class="node">
<title>Node18</title>
<g id="a_Node000018"><a xlink:title=" ">
<polygon fill="#e0e0e0" stroke="#999999" points="729.86,-74.5 671.86,-74.5 671.86,-55.25 729.86,-55.25 729.86,-74.5"/>
<text text-anchor="middle" x="700.86" y="-61" font-family="Helvetica,sans-Serif" font-size="10.00">TObject.h</text>
</a>
</g>
</g>
<!-- Node17&#45;&gt;Node18 -->
<g id="edge21_Node000017_Node000018" class="edge">
<title>Node17&#45;&gt;Node18</title>
<g id="a_edge21_Node000017_Node000018"><a xlink:title=" ">
<path fill="none" stroke="#63b8ff" d="M852.82,-110.09C822.03,-101.13 774.73,-87.37 741.08,-77.58"/>
<polygon fill="#63b8ff" stroke="#63b8ff" points="742.27,-74.28 731.69,-74.85 740.31,-81 742.27,-74.28"/>
</a>
</g>
</g>
<!-- Node19 -->
<g id="Node000019" class="node">
<title>Node19</title>
<g id="a_Node000019"><a xlink:title=" ">
<polygon fill="#e0e0e0" stroke="#999999" points="801.99,-74.5 747.74,-74.5 747.74,-55.25 801.99,-55.25 801.99,-74.5"/>
<text text-anchor="middle" x="774.86" y="-61" font-family="Helvetica,sans-Serif" font-size="10.00">TClass.h</text>
</a>
</g>
</g>
<!-- Node17&#45;&gt;Node19 -->
<g id="edge22_Node000017_Node000019" class="edge">
<title>Node17&#45;&gt;Node19</title>
<g id="a_edge22_Node000017_Node000019"><a xlink:title=" ">
<path fill="none" stroke="#63b8ff" d="M865.37,-110.09C848.46,-101.83 823.17,-89.48 803.62,-79.93"/>
<polygon fill="#63b8ff" stroke="#63b8ff" points="805.32,-76.86 794.8,-75.62 802.25,-83.15 805.32,-76.86"/>
</a>
</g>
</g>
<!-- Node17&#45;&gt;Node20 -->
<g id="edge23_Node000017_Node000020" class="edge">
<title>Node17&#45;&gt;Node20</title>
<g id="a_edge23_Node000017_Node000020"><a xlink:title=" ">
<path fill="none" stroke="#63b8ff" d="M877.92,-110.33C873.15,-103.28 866.3,-93.15 860.34,-84.33"/>
<polygon fill="#63b8ff" stroke="#63b8ff" points="863.28,-82.44 854.78,-76.11 857.48,-86.36 863.28,-82.44"/>
</a>
</g>
</g>
<!-- Node17&#45;&gt;Node35 -->
<g id="edge42_Node000017_Node000035" class="edge">
<title>Node17&#45;&gt;Node35</title>
<g id="a_edge42_Node000017_Node000035"><a xlink:title=" ">
<path fill="none" stroke="#63b8ff" d="M846.27,-111.67C843.43,-111.23 840.6,-110.84 837.86,-110.5 698.77,-93.5 272.43,-74.47 121.5,-68.09"/>
<polygon fill="#63b8ff" stroke="#63b8ff" points="121.93,-64.61 111.79,-67.68 121.63,-71.6 121.93,-64.61"/>
</a>
</g>
</g>
<!-- Node20&#45;&gt;Node2 -->
<g id="edge25_Node000020_Node000002" class="edge">
<title>Node20&#45;&gt;Node2</title>
<g id="a_edge25_Node000020_Node000002"><a xlink:title=" ">
<path fill="none" stroke="#63b8ff" d="M819.27,-56.72C816.44,-56.16 813.6,-55.66 810.86,-55.25 569.42,-19.42 505.37,-46.88 262.86,-19.25 258.12,-18.71 253.16,-18.04 248.25,-17.32"/>
<polygon fill="#63b8ff" stroke="#63b8ff" points="248.94,-13.88 238.52,-15.79 247.86,-20.8 248.94,-13.88"/>
</a>
</g>
</g>
<!-- Node20&#45;&gt;Node3 -->
<g id="edge26_Node000020_Node000003" class="edge">
<title>Node20&#45;&gt;Node3</title>
<g id="a_edge26_Node000020_Node000003"><a xlink:title=" ">
<path fill="none" stroke="#63b8ff" d="M876.21,-61.6C935.74,-56.57 1078.26,-43.17 1207.43,-19.48"/>
<polygon fill="#63b8ff" stroke="#63b8ff" points="1208.01,-22.94 1217.2,-17.66 1206.73,-16.05 1208.01,-22.94"/>
</a>
</g>
</g>
<!-- Node20&#45;&gt;Node5 -->
<g id="edge33_Node000020_Node000005" class="edge">
<title>Node20&#45;&gt;Node5</title>
<g id="a_edge33_Node000020_Node000005"><a xlink:title=" ">
<path fill="none" stroke="#63b8ff" d="M876.48,-62.28C944.15,-58.21 1119.47,-45.96 1275.74,-19.37"/>
<polygon fill="#63b8ff" stroke="#63b8ff" points="1276.2,-22.84 1285.46,-17.69 1275.01,-15.95 1276.2,-22.84"/>
</a>
</g>
</g>
<!-- Node20&#45;&gt;Node7 -->
<g id="edge28_Node000020_Node000007" class="edge">
<title>Node20&#45;&gt;Node7</title>
<g id="a_edge28_Node000020_Node000007"><a xlink:title=" ">
<path fill="none" stroke="#63b8ff" d="M819.27,-56.7C816.44,-56.14 813.6,-55.64 810.86,-55.25 530.18,-14.91 456.37,-43.67 173.86,-19.25 159.95,-18.05 144.61,-16.33 131.52,-14.74"/>
<polygon fill="#63b8ff" stroke="#63b8ff" points="132.1,-11.28 121.75,-13.52 131.24,-18.23 132.1,-11.28"/>
</a>
</g>
</g>
<!-- Node21 -->
<g id="Node000021" class="node">
<title>Node21</title>
<g id="a_Node000021"><a xlink:title=" ">
<polygon fill="#e0e0e0" stroke="#999999" points="924.49,-19.25 879.24,-19.25 879.24,0 924.49,0 924.49,-19.25"/>
<text text-anchor="middle" x="901.86" y="-5.75" font-family="Helvetica,sans-Serif" font-size="10.00">cstdint</text>
</a>
</g>
</g>
<!-- Node20&#45;&gt;Node21 -->
<g id="edge24_Node000020_Node000021" class="edge">
<title>Node20&#45;&gt;Node21</title>
<g id="a_edge24_Node000020_Node000021"><a xlink:title=" ">
<path fill="none" stroke="#63b8ff" d="M856.78,-55.08C864.31,-47.65 875.33,-36.79 884.59,-27.66"/>
<polygon fill="#63b8ff" stroke="#63b8ff" points="887.01,-30.19 891.67,-20.67 882.09,-25.2 887.01,-30.19"/>
</a>
</g>
</g>
<!-- Node22 -->
<g id="Node000022" class="node">
<title>Node22</title>
<g id="a_Node000022"><a xlink:title=" ">
<polygon fill="#e0e0e0" stroke="#999999" points="1000.86,-19.25 942.86,-19.25 942.86,0 1000.86,0 1000.86,-19.25"/>
<text text-anchor="middle" x="971.86" y="-5.75" font-family="Helvetica,sans-Serif" font-size="10.00">stdexcept</text>
</a>
</g>
</g>
<!-- Node20&#45;&gt;Node22 -->
<g id="edge27_Node000020_Node000022" class="edge">
<title>Node20&#45;&gt;Node22</title>
<g id="a_edge27_Node000020_Node000022"><a xlink:title=" ">
<path fill="none" stroke="#63b8ff" d="M868.9,-54.84C888.49,-46.43 917.97,-33.77 940.37,-24.15"/>
<polygon fill="#63b8ff" stroke="#63b8ff" points="941.52,-27.46 949.33,-20.3 938.76,-21.03 941.52,-27.46"/>
</a>
</g>
</g>
<!-- Node23 -->
<g id="Node000023" class="node">
<title>Node23</title>
<g id="a_Node000023"><a xlink:title=" ">
<polygon fill="#e0e0e0" stroke="#999999" points="1060.99,-19.25 1018.74,-19.25 1018.74,0 1060.99,0 1060.99,-19.25"/>
<text text-anchor="middle" x="1039.86" y="-5.75" font-family="Helvetica,sans-Serif" font-size="10.00">cstdio</text>
</a>
</g>
</g>
<!-- Node20&#45;&gt;Node23 -->
<g id="edge29_Node000020_Node000023" class="edge">
<title>Node20&#45;&gt;Node23</title>
<g id="a_edge29_Node000020_Node000023"><a xlink:title=" ">
<path fill="none" stroke="#63b8ff" d="M876.57,-56.07C906.82,-47.83 956.13,-34.32 1007.3,-19.95"/>
<polygon fill="#63b8ff" stroke="#63b8ff" points="1008.1,-23.36 1016.78,-17.28 1006.21,-16.62 1008.1,-23.36"/>
</a>
</g>
</g>
<!-- Node24 -->
<g id="Node000024" class="node">
<title>Node24</title>
<g id="a_Node000024"><a xlink:title=" ">
<polygon fill="#e0e0e0" stroke="#999999" points="1123.11,-19.25 1078.61,-19.25 1078.61,0 1123.11,0 1123.11,-19.25"/>
<text text-anchor="middle" x="1100.86" y="-5.75" font-family="Helvetica,sans-Serif" font-size="10.00">cstdlib</text>
</a>
</g>
</g>
<!-- Node20&#45;&gt;Node24 -->
<g id="edge30_Node000020_Node000024" class="edge">
<title>Node20&#45;&gt;Node24</title>
<g id="a_edge30_Node000020_Node000024"><a xlink:title=" ">
<path fill="none" stroke="#63b8ff" d="M876.39,-58.83C916.8,-51.53 993.24,-37.19 1067.32,-19.73"/>
<polygon fill="#63b8ff" stroke="#63b8ff" points="1067.83,-23.2 1076.75,-17.48 1066.21,-16.39 1067.83,-23.2"/>
</a>
</g>
</g>
<!-- Node25 -->
<g id="Node000025" class="node">
<title>Node25</title>
<g id="a_Node000025"><a xlink:title=" ">
<polygon fill="#e0e0e0" stroke="#999999" points="1200.61,-19.25 1141.11,-19.25 1141.11,0 1200.61,0 1200.61,-19.25"/>
<text text-anchor="middle" x="1170.86" y="-5.75" font-family="Helvetica,sans-Serif" font-size="10.00">execinfo.h</text>
</a>
</g>
</g>
<!-- Node20&#45;&gt;Node25 -->
<g id="edge31_Node000020_Node000025" class="edge">
<title>Node20&#45;&gt;Node25</title>
<g id="a_edge31_Node000020_Node000025"><a xlink:title=" ">
<path fill="none" stroke="#63b8ff" d="M876.58,-59.96C926.1,-53.08 1030.98,-37.96 1129.6,-19.58"/>
<polygon fill="#63b8ff" stroke="#63b8ff" points="1130,-23.06 1139.18,-17.78 1128.7,-16.18 1130,-23.06"/>
</a>
</g>
</g>
<!-- Node26 -->
<g id="Node000026" class="node">
<title>Node26</title>
<g id="a_Node000026"><a xlink:title=" ">
<polygon fill="#e0e0e0" stroke="#999999" points="322.11,-19.25 271.61,-19.25 271.61,0 322.11,0 322.11,-19.25"/>
<text text-anchor="middle" x="296.86" y="-5.75" font-family="Helvetica,sans-Serif" font-size="10.00">cxxabi.h</text>
</a>
</g>
</g>
<!-- Node20&#45;&gt;Node26 -->
<g id="edge32_Node000020_Node000026" class="edge">
<title>Node20&#45;&gt;Node26</title>
<g id="a_edge32_Node000020_Node000026"><a xlink:title=" ">
<path fill="none" stroke="#63b8ff" d="M819.26,-56.75C816.43,-56.18 813.6,-55.67 810.86,-55.25 603.44,-23.47 544.68,-51.9 333.53,-19.2"/>
<polygon fill="#63b8ff" stroke="#63b8ff" points="334.29,-15.77 323.87,-17.67 333.2,-22.69 334.29,-15.77"/>
</a>
</g>
</g>
<!-- Node27 -->
<g id="Node000027" class="node">
<title>Node27</title>
<g id="a_Node000027"><a xlink:title=" ">
<polygon fill="#e0e0e0" stroke="#999999" points="377.36,-19.25 340.36,-19.25 340.36,0 377.36,0 377.36,-19.25"/>
<text text-anchor="middle" x="358.86" y="-5.75" font-family="Helvetica,sans-Serif" font-size="10.00">array</text>
</a>
</g>
</g>
<!-- Node20&#45;&gt;Node27 -->
<g id="edge34_Node000020_Node000027" class="edge">
<title>Node20&#45;&gt;Node27</title>
<g id="a_edge34_Node000020_Node000027"><a xlink:title=" ">
<path fill="none" stroke="#63b8ff" d="M819.26,-56.78C816.43,-56.21 813.6,-55.68 810.86,-55.25 627.71,-26.28 574.58,-54.16 388.95,-19.19"/>
<polygon fill="#63b8ff" stroke="#63b8ff" points="389.67,-15.77 379.19,-17.31 388.34,-22.64 389.67,-15.77"/>
</a>
</g>
</g>
<!-- Node28 -->
<g id="Node000028" class="node">
<title>Node28</title>
<g id="a_Node000028"><a xlink:title=" ">
<polygon fill="#e0e0e0" stroke="#999999" points="446.11,-19.25 395.61,-19.25 395.61,0 446.11,0 446.11,-19.25"/>
<text text-anchor="middle" x="420.86" y="-5.75" font-family="Helvetica,sans-Serif" font-size="10.00">memory</text>
</a>
</g>
</g>
<!-- Node20&#45;&gt;Node28 -->
<g id="edge35_Node000020_Node000028" class="edge">
<title>Node20&#45;&gt;Node28</title>
<g id="a_edge35_Node000020_Node000028"><a xlink:title=" ">
<path fill="none" stroke="#63b8ff" d="M819.25,-56.82C816.43,-56.24 813.59,-55.7 810.86,-55.25 657.51,-29.73 613.44,-46.1 457.33,-19.44"/>
<polygon fill="#63b8ff" stroke="#63b8ff" points="458.34,-16.06 447.88,-17.79 457.13,-22.96 458.34,-16.06"/>
</a>
</g>
</g>
<!-- Node29 -->
<g id="Node000029" class="node">
<title>Node29</title>
<g id="a_Node000029"><a xlink:title=" ">
<polygon fill="#e0e0e0" stroke="#999999" points="513.74,-19.25 463.99,-19.25 463.99,0 513.74,0 513.74,-19.25"/>
<text text-anchor="middle" x="488.86" y="-5.75" font-family="Helvetica,sans-Serif" font-size="10.00">unistd.h</text>
</a>
</g>
</g>
<!-- Node20&#45;&gt;Node29 -->
<g id="edge36_Node000020_Node000029" class="edge">
<title>Node20&#45;&gt;Node29</title>
<g id="a_edge36_Node000020_Node000029"><a xlink:title=" ">
<path fill="none" stroke="#63b8ff" d="M819.24,-56.89C816.42,-56.3 813.59,-55.74 810.86,-55.25 687.47,-33.22 651.64,-42.58 525.31,-19.49"/>
<polygon fill="#63b8ff" stroke="#63b8ff" points="525.99,-16.05 515.52,-17.66 524.71,-22.93 525.99,-16.05"/>
</a>
</g>
</g>
<!-- Node30 -->
<g id="Node000030" class="node">
<title>Node30</title>
<g id="a_Node000030"><a xlink:title=" ">
<polygon fill="#e0e0e0" stroke="#999999" points="577.86,-19.25 531.86,-19.25 531.86,0 577.86,0 577.86,-19.25"/>
<text text-anchor="middle" x="554.86" y="-5.75" font-family="Helvetica,sans-Serif" font-size="10.00">TEnv.h</text>
</a>
</g>
</g>
<!-- Node20&#45;&gt;Node30 -->
<g id="edge37_Node000020_Node000030" class="edge">
<title>Node20&#45;&gt;Node30</title>
<g id="a_edge37_Node000020_Node000030"><a xlink:title=" ">
<path fill="none" stroke="#63b8ff" d="M819.22,-56.99C816.4,-56.38 813.58,-55.78 810.86,-55.25 715.4,-36.48 687.4,-40.1 589.23,-19.56"/>
<polygon fill="#63b8ff" stroke="#63b8ff" points="590.2,-16.19 579.69,-17.53 588.74,-23.04 590.2,-16.19"/>
</a>
</g>
</g>
<!-- Node31 -->
<g id="Node000031" class="node">
<title>Node31</title>
<g id="a_Node000031"><a xlink:title=" ">
<polygon fill="#e0e0e0" stroke="#999999" points="640.11,-19.25 595.61,-19.25 595.61,0 640.11,0 640.11,-19.25"/>
<text text-anchor="middle" x="617.86" y="-5.75" font-family="Helvetica,sans-Serif" font-size="10.00">stdio.h</text>
</a>
</g>
</g>
<!-- Node20&#45;&gt;Node31 -->
<g id="edge38_Node000020_Node000031" class="edge">
<title>Node20&#45;&gt;Node31</title>
<g id="a_edge38_Node000020_Node000031"><a xlink:title=" ">
<path fill="none" stroke="#63b8ff" d="M819.18,-57.16C816.37,-56.51 813.56,-55.87 810.86,-55.25 742.73,-39.69 722.89,-37.03 651.48,-19.56"/>
<polygon fill="#63b8ff" stroke="#63b8ff" points="652.57,-16.22 642.02,-17.23 650.9,-23.02 652.57,-16.22"/>
</a>
</g>
</g>
<!-- Node32 -->
<g id="Node000032" class="node">
<title>Node32</title>
<g id="a_Node000032"><a xlink:title=" ">
<polygon fill="#e0e0e0" stroke="#999999" points="705.24,-19.25 658.49,-19.25 658.49,0 705.24,0 705.24,-19.25"/>
<text text-anchor="middle" x="681.86" y="-5.75" font-family="Helvetica,sans-Serif" font-size="10.00">stdlib.h</text>
</a>
</g>
</g>
<!-- Node20&#45;&gt;Node32 -->
<g id="edge39_Node000020_Node000032" class="edge">
<title>Node20&#45;&gt;Node32</title>
<g id="a_edge39_Node000020_Node000032"><a xlink:title=" ">
<path fill="none" stroke="#63b8ff" d="M819.7,-54.84C791.11,-45.67 746.82,-31.46 716.19,-21.64"/>
<polygon fill="#63b8ff" stroke="#63b8ff" points="717.61,-18.42 707.02,-18.7 715.47,-25.08 717.61,-18.42"/>
</a>
</g>
</g>
<!-- Node33 -->
<g id="Node000033" class="node">
<title>Node33</title>
<g id="a_Node000033"><a xlink:title=" ">
<polygon fill="#e0e0e0" stroke="#999999" points="782.61,-19.25 723.11,-19.25 723.11,0 782.61,0 782.61,-19.25"/>
<text text-anchor="middle" x="752.86" y="-5.75" font-family="Helvetica,sans-Serif" font-size="10.00">sys/wait.h</text>
</a>
</g>
</g>
<!-- Node20&#45;&gt;Node33 -->
<g id="edge40_Node000020_Node000033" class="edge">
<title>Node20&#45;&gt;Node33</title>
<g id="a_edge40_Node000020_Node000033"><a xlink:title=" ">
<path fill="none" stroke="#63b8ff" d="M831.75,-54.84C817.28,-46.73 795.78,-34.68 778.88,-25.21"/>
<polygon fill="#63b8ff" stroke="#63b8ff" points="780.81,-22.28 770.38,-20.44 777.39,-28.39 780.81,-22.28"/>
</a>
</g>
</g>
<!-- Node34 -->
<g id="Node000034" class="node">
<title>Node34</title>
<g id="a_Node000034"><a xlink:title=" ">
<polygon fill="#e0e0e0" stroke="#999999" points="860.99,-19.25 800.74,-19.25 800.74,0 860.99,0 860.99,-19.25"/>
<text text-anchor="middle" x="830.86" y="-5.75" font-family="Helvetica,sans-Serif" font-size="10.00">sys/prctl.h</text>
</a>
</g>
</g>
<!-- Node20&#45;&gt;Node34 -->
<g id="edge41_Node000020_Node000034" class="edge">
<title>Node20&#45;&gt;Node34</title>
<g id="a_edge41_Node000020_Node000034"><a xlink:title=" ">
<path fill="none" stroke="#63b8ff" d="M845.05,-55.08C842.93,-48.42 839.92,-38.99 837.22,-30.53"/>
<polygon fill="#63b8ff" stroke="#63b8ff" points="840.56,-29.51 834.19,-21.05 833.9,-31.64 840.56,-29.51"/>
</a>
</g>
</g>
<!-- Node35&#45;&gt;Node7 -->
<g id="edge44_Node000035_Node000007" class="edge">
<title>Node35&#45;&gt;Node7</title>
<g id="a_edge44_Node000035_Node000007"><a xlink:title=" ">
<path fill="none" stroke="#63b8ff" d="M73.14,-55.08C77.33,-48.11 83.34,-38.12 88.59,-29.37"/>
<polygon fill="#63b8ff" stroke="#63b8ff" points="91.53,-31.28 93.68,-20.91 85.53,-27.68 91.53,-31.28"/>
</a>
</g>
</g>
<!-- Node36 -->
<g id="Node000036" class="node">
<title>Node36</title>
<g id="a_Node000036"><a xlink:title=" ">
<polygon fill="#e0e0e0" stroke="#999999" points="61.49,-19.25 10.24,-19.25 10.24,0 61.49,0 61.49,-19.25"/>
<text text-anchor="middle" x="35.86" y="-5.75" font-family="Helvetica,sans-Serif" font-size="10.00">ostream</text>
</a>
</g>
</g>
<!-- Node35&#45;&gt;Node36 -->
<g id="edge43_Node000035_Node000036" class="edge">
<title>Node35&#45;&gt;Node36</title>
<g id="a_edge43_Node000035_Node000036"><a xlink:title=" ">
<path fill="none" stroke="#63b8ff" d="M62.58,-55.08C58.39,-48.11 52.38,-38.12 47.13,-29.37"/>
<polygon fill="#63b8ff" stroke="#63b8ff" points="50.19,-27.68 42.04,-20.91 44.19,-31.28 50.19,-27.68"/>
</a>
</g>
</g>
</g>
</svg>
