<?xml version="1.0" encoding="UTF-8" standalone="no"?>
<!DOCTYPE svg PUBLIC "-//W3C//DTD SVG 1.1//EN"
 "http://www.w3.org/Graphics/SVG/1.1/DTD/svg11.dtd">
<!-- Generated by graphviz version 9.0.0 (20230911.1827)
 -->
<!-- Title: ConvertDriftFiles.cxx Pages: 1 -->
<!--zoomable 248 -->

<svg id="main" version="1.1" xmlns="http://www.w3.org/2000/svg" xmlns:xlink="http://www.w3.org/1999/xlink" xml:space="preserve" onload="init(evt)">
<style type="text/css"><![CDATA[
.node, .edge {opacity: 0.7;}
.node.selected, .edge.selected {opacity: 1;}
.edge:hover path { stroke: red; }
.edge:hover polygon { stroke: red; fill: red; }
]]></style>

<defs>
  <circle id="rim" cx="0" cy="0" r="7"/>
  <circle id="rim2" cx="0" cy="0" r="3.5"/>
  <g id="zoomPlus">
    <use xlink:href="#rim" fill="#404040"><set attributeName="fill" to="#808080" begin="zoomplus.mouseover" end="zoomplus.mouseout"/></use>
    <path d="M-4,0h8M0,-4v8" fill="none" stroke="white" stroke-width="1.5" pointer-events="none"/>
  </g>
  <g id="zoomMin">
    <use xlink:href="#rim" fill="#404040"><set attributeName="fill" to="#808080" begin="zoomminus.mouseover" end="zoomminus.mouseout"/></use>
    <path d="M-4,0h8" fill="none" stroke="white" stroke-width="1.5" pointer-events="none"/>
  </g>
  <g id="arrowUp" transform="translate(30 24)">
    <use xlink:href="#rim"/>
    <path pointer-events="none" fill="none" stroke="white" stroke-width="1.5" d="M0,-3.0v7 M-2.5,-0.5L0,-3.0L2.5,-0.5"/>
  </g>
  <g id="arrowRight" transform="rotate(90) translate(36 -43)">
    <use xlink:href="#rim"/>
    <path pointer-events="none" fill="none" stroke="white" stroke-width="1.5" d="M0,-3.0v7 M-2.5,-0.5L0,-3.0L2.5,-0.5"/>
  </g>
  <g id="arrowDown" transform="rotate(180) translate(-30 -48)">
    <use xlink:href="#rim"/>
    <path pointer-events="none" fill="none" stroke="white" stroke-width="1.5" d="M0,-3.0v7 M-2.5,-0.5L0,-3.0L2.5,-0.5"/>
  </g>
  <g id="arrowLeft" transform="rotate(270) translate(-36 17)">
    <use xlink:href="#rim"/>
    <path pointer-events="none" fill="none" stroke="white" stroke-width="1.5" d="M0,-3.0v7 M-2.5,-0.5L0,-3.0L2.5,-0.5"/>
  </g>
  <g id="resetDef">
    <use xlink:href="#rim2" fill="#404040"><set attributeName="fill" to="#808080" begin="reset.mouseover" end="reset.mouseout"/></use>
  </g>
</defs>
<script type="application/ecmascript">
var viewWidth = 1385;
var viewHeight = 248;
var sectionId = 'dynsection-0';
</script>
<script type="application/ecmascript" xlink:href="svg.min.js"/>
<svg id="graph" class="graph">
<g id="viewport">
<title>ConvertDriftFiles.cxx</title>
<!-- Node1 -->
<g id="Node000001" class="node">
<title>Node1</title>
<g id="a_Node000001"><a xlink:title=" ">
<polygon fill="#999999" stroke="#666666" points="708.5,-240.25 603.25,-240.25 603.25,-221 708.5,-221 708.5,-240.25"/>
<text text-anchor="middle" x="655.88" y="-226.75" font-family="Helvetica,sans-Serif" font-size="10.00">ConvertDriftFiles.cxx</text>
</a>
</g>
</g>
<!-- Node2 -->
<g id="Node000002" class="node">
<title>Node2</title>
<g id="a_Node000002"><a xlink:title=" ">
<polygon fill="#e0e0e0" stroke="#999999" points="190.62,-19.25 137.12,-19.25 137.12,0 190.62,0 190.62,-19.25"/>
<text text-anchor="middle" x="163.88" y="-5.75" font-family="Helvetica,sans-Serif" font-size="10.00">iostream</text>
</a>
</g>
</g>
<!-- Node1&#45;&gt;Node2 -->
<g id="edge1_Node000001_Node000002" class="edge">
<title>Node1&#45;&gt;Node2</title>
<g id="a_edge1_Node000001_Node000002"><a xlink:title=" ">
<path fill="none" stroke="#63b8ff" d="M602.98,-223.04C498.89,-209.24 272.08,-174.82 208.88,-129.75 176.86,-106.92 167.61,-58.32 164.95,-30.78"/>
<polygon fill="#63b8ff" stroke="#63b8ff" points="168.45,-30.68 164.22,-20.97 161.47,-31.2 168.45,-30.68"/>
</a>
</g>
</g>
<!-- Node3 -->
<g id="Node000003" class="node">
<title>Node3</title>
<g id="a_Node000003"><a xlink:title=" ">
<polygon fill="#e0e0e0" stroke="#999999" points="49.75,-19.25 0,-19.25 0,0 49.75,0 49.75,-19.25"/>
<text text-anchor="middle" x="24.88" y="-5.75" font-family="Helvetica,sans-Serif" font-size="10.00">iomanip</text>
</a>
</g>
</g>
<!-- Node1&#45;&gt;Node3 -->
<g id="edge2_Node000001_Node000003" class="edge">
<title>Node1&#45;&gt;Node3</title>
<g id="a_edge2_Node000001_Node000003"><a xlink:title=" ">
<path fill="none" stroke="#63b8ff" d="M603.05,-227.48C505.78,-222.95 302.34,-210.67 236.88,-185 149.31,-150.66 70.76,-65.63 39.37,-28.47"/>
<polygon fill="#63b8ff" stroke="#63b8ff" points="42.15,-26.35 33.07,-20.9 36.77,-30.83 42.15,-26.35"/>
</a>
</g>
</g>
<!-- Node4 -->
<g id="Node000004" class="node">
<title>Node4</title>
<g id="a_Node000004"><a xlink:title=" ">
<polygon fill="#e0e0e0" stroke="#999999" points="1377.38,-185 1328.38,-185 1328.38,-165.75 1377.38,-165.75 1377.38,-185"/>
<text text-anchor="middle" x="1352.88" y="-171.5" font-family="Helvetica,sans-Serif" font-size="10.00">fstream</text>
</a>
</g>
</g>
<!-- Node1&#45;&gt;Node4 -->
<g id="edge3_Node000001_Node000004" class="edge">
<title>Node1&#45;&gt;Node4</title>
<g id="a_edge3_Node000001_Node000004"><a xlink:title=" ">
<path fill="none" stroke="#63b8ff" d="M708.61,-228.73C820.62,-226.23 1090.32,-217.12 1313.88,-185 1314.9,-184.85 1315.93,-184.69 1316.97,-184.53"/>
<polygon fill="#63b8ff" stroke="#63b8ff" points="1317.55,-187.98 1326.73,-182.69 1316.26,-181.1 1317.55,-187.98"/>
</a>
</g>
</g>
<!-- Node5 -->
<g id="Node000005" class="node">
<title>Node5</title>
<g id="a_Node000005"><a xlink:title=" ">
<polygon fill="#e0e0e0" stroke="#999999" points="119.5,-19.25 68.25,-19.25 68.25,0 119.5,0 119.5,-19.25"/>
<text text-anchor="middle" x="93.88" y="-5.75" font-family="Helvetica,sans-Serif" font-size="10.00">sstream</text>
</a>
</g>
</g>
<!-- Node1&#45;&gt;Node5 -->
<g id="edge4_Node000001_Node000005" class="edge">
<title>Node1&#45;&gt;Node5</title>
<g id="a_edge4_Node000001_Node000005"><a xlink:title=" ">
<path fill="none" stroke="#63b8ff" d="M602.97,-228.82C531.54,-226.46 400.97,-217.58 294.88,-185 243.33,-169.17 228.44,-164.09 186.88,-129.75 151.1,-100.2 120.38,-54.64 104.79,-29.28"/>
<polygon fill="#63b8ff" stroke="#63b8ff" points="107.83,-27.54 99.68,-20.76 101.83,-31.14 107.83,-27.54"/>
</a>
</g>
</g>
<!-- Node6 -->
<g id="Node000006" class="node">
<title>Node6</title>
<g id="a_Node000006"><a xlink:title=" ">
<polygon fill="#e0e0e0" stroke="#999999" points="1326.38,-19.25 1283.38,-19.25 1283.38,0 1326.38,0 1326.38,-19.25"/>
<text text-anchor="middle" x="1304.88" y="-5.75" font-family="Helvetica,sans-Serif" font-size="10.00">vector</text>
</a>
</g>
</g>
<!-- Node1&#45;&gt;Node6 -->
<g id="edge5_Node000001_Node000006" class="edge">
<title>Node1&#45;&gt;Node6</title>
<g id="a_edge5_Node000001_Node000006"><a xlink:title=" ">
<path fill="none" stroke="#63b8ff" d="M708.83,-226.2C780.13,-220.89 910.68,-208.72 1019.88,-185 1099.58,-167.69 1123.81,-169.77 1194.88,-129.75 1239.27,-104.75 1275.87,-55.56 1293.51,-28.88"/>
<polygon fill="#63b8ff" stroke="#63b8ff" points="1296.22,-31.13 1298.69,-20.83 1290.33,-27.35 1296.22,-31.13"/>
</a>
</g>
</g>
<!-- Node7 -->
<g id="Node000007" class="node">
<title>Node7</title>
<g id="a_Node000007"><a xlink:title=" ">
<polygon fill="#e0e0e0" stroke="#999999" points="1195.88,-19.25 1155.88,-19.25 1155.88,0 1195.88,0 1195.88,-19.25"/>
<text text-anchor="middle" x="1175.88" y="-5.75" font-family="Helvetica,sans-Serif" font-size="10.00">string</text>
</a>
</g>
</g>
<!-- Node1&#45;&gt;Node7 -->
<g id="edge6_Node000001_Node000007" class="edge">
<title>Node1&#45;&gt;Node7</title>
<g id="a_edge6_Node000001_Node000007"><a xlink:title=" ">
<path fill="none" stroke="#63b8ff" d="M708.58,-224.17C840.79,-209.24 1180.44,-162.84 1242.88,-74.5 1257.09,-54.38 1230.25,-35.45 1206.43,-23.5"/>
<polygon fill="#63b8ff" stroke="#63b8ff" points="1208.1,-20.42 1197.57,-19.32 1205.12,-26.75 1208.1,-20.42"/>
</a>
</g>
</g>
<!-- Node8 -->
<g id="Node000008" class="node">
<title>Node8</title>
<g id="a_Node000008"><a xlink:href="_t_channel_8h.html" target="_top" xlink:title=" ">
<polygon fill="white" stroke="#666666" points="688.25,-185 623.5,-185 623.5,-165.75 688.25,-165.75 688.25,-185"/>
<text text-anchor="middle" x="655.88" y="-171.5" font-family="Helvetica,sans-Serif" font-size="10.00">TChannel.h</text>
</a>
</g>
</g>
<!-- Node1&#45;&gt;Node8 -->
<g id="edge7_Node000001_Node000008" class="edge">
<title>Node1&#45;&gt;Node8</title>
<g id="a_edge7_Node000001_Node000008"><a xlink:title=" ">
<path fill="none" stroke="#63b8ff" d="M655.88,-220.83C655.88,-214.32 655.88,-205.17 655.88,-196.87"/>
<polygon fill="#63b8ff" stroke="#63b8ff" points="659.38,-196.87 655.88,-186.87 652.38,-196.87 659.38,-196.87"/>
</a>
</g>
</g>
<!-- Node8&#45;&gt;Node2 -->
<g id="edge8_Node000008_Node000002" class="edge">
<title>Node8&#45;&gt;Node2</title>
<g id="a_edge8_Node000008_Node000002"><a xlink:title=" ">
<path fill="none" stroke="#63b8ff" d="M623.09,-174.64C535.47,-174.76 298.12,-171.15 233.88,-129.75 197.85,-106.54 178.02,-57.71 169.32,-30.33"/>
<polygon fill="#63b8ff" stroke="#63b8ff" points="172.72,-29.46 166.52,-20.87 166,-31.45 172.72,-29.46"/>
</a>
</g>
</g>
<!-- Node8&#45;&gt;Node7 -->
<g id="edge9_Node000008_Node000007" class="edge">
<title>Node8&#45;&gt;Node7</title>
<g id="a_edge9_Node000008_Node000007"><a xlink:title=" ">
<path fill="none" stroke="#63b8ff" d="M688.49,-171.54C749.49,-165.8 878.19,-151.46 916.88,-129.75 955.2,-108.25 944.05,-77.62 981.88,-55.25 1043.45,-18.83 1071.51,-36.13 1144.54,-19.55"/>
<polygon fill="#63b8ff" stroke="#63b8ff" points="1145.29,-22.97 1154.18,-17.21 1143.63,-16.17 1145.29,-22.97"/>
</a>
</g>
</g>
<!-- Node9 -->
<g id="Node000009" class="node">
<title>Node9</title>
<g id="a_Node000009"><a xlink:title=" ">
<polygon fill="#e0e0e0" stroke="#999999" points="294.38,-129.75 251.38,-129.75 251.38,-110.5 294.38,-110.5 294.38,-129.75"/>
<text text-anchor="middle" x="272.88" y="-116.25" font-family="Helvetica,sans-Serif" font-size="10.00">cmath</text>
</a>
</g>
</g>
<!-- Node8&#45;&gt;Node9 -->
<g id="edge10_Node000008_Node000009" class="edge">
<title>Node8&#45;&gt;Node9</title>
<g id="a_edge10_Node000008_Node000009"><a xlink:title=" ">
<path fill="none" stroke="#63b8ff" d="M623.1,-171.82C562.41,-166.75 428.28,-153.94 305.85,-129.86"/>
<polygon fill="#63b8ff" stroke="#63b8ff" points="306.77,-126.48 296.28,-127.95 305.4,-133.34 306.77,-126.48"/>
</a>
</g>
</g>
<!-- Node10 -->
<g id="Node000010" class="node">
<title>Node10</title>
<g id="a_Node000010"><a xlink:title=" ">
<polygon fill="#e0e0e0" stroke="#999999" points="351.12,-129.75 312.62,-129.75 312.62,-110.5 351.12,-110.5 351.12,-129.75"/>
<text text-anchor="middle" x="331.88" y="-116.25" font-family="Helvetica,sans-Serif" font-size="10.00">utility</text>
</a>
</g>
</g>
<!-- Node8&#45;&gt;Node10 -->
<g id="edge11_Node000008_Node000010" class="edge">
<title>Node8&#45;&gt;Node10</title>
<g id="a_edge11_Node000008_Node000010"><a xlink:title=" ">
<path fill="none" stroke="#63b8ff" d="M623.3,-170.95C570.56,-165.07 463.06,-151.77 362.41,-129.78"/>
<polygon fill="#63b8ff" stroke="#63b8ff" points="363.43,-126.42 352.91,-127.67 361.91,-133.26 363.43,-126.42"/>
</a>
</g>
</g>
<!-- Node11 -->
<g id="Node000011" class="node">
<title>Node11</title>
<g id="a_Node000011"><a xlink:title=" ">
<polygon fill="#e0e0e0" stroke="#999999" points="452.25,-129.75 369.5,-129.75 369.5,-110.5 452.25,-110.5 452.25,-129.75"/>
<text text-anchor="middle" x="410.88" y="-116.25" font-family="Helvetica,sans-Serif" font-size="10.00">unordered_map</text>
</a>
</g>
</g>
<!-- Node8&#45;&gt;Node11 -->
<g id="edge12_Node000008_Node000011" class="edge">
<title>Node8&#45;&gt;Node11</title>
<g id="a_edge12_Node000008_Node000011"><a xlink:title=" ">
<path fill="none" stroke="#63b8ff" d="M623.09,-167.25C582.29,-158.38 512.09,-143.12 463.67,-132.6"/>
<polygon fill="#63b8ff" stroke="#63b8ff" points="464.47,-129.19 453.95,-130.49 462.98,-136.03 464.47,-129.19"/>
</a>
</g>
</g>
<!-- Node12 -->
<g id="Node000012" class="node">
<title>Node12</title>
<g id="a_Node000012"><a xlink:title=" ">
<polygon fill="#e0e0e0" stroke="#999999" points="531.38,-129.75 470.38,-129.75 470.38,-110.5 531.38,-110.5 531.38,-129.75"/>
<text text-anchor="middle" x="500.88" y="-116.25" font-family="Helvetica,sans-Serif" font-size="10.00">TNamed.h</text>
</a>
</g>
</g>
<!-- Node8&#45;&gt;Node12 -->
<g id="edge13_Node000008_Node000012" class="edge">
<title>Node8&#45;&gt;Node12</title>
<g id="a_edge13_Node000008_Node000012"><a xlink:title=" ">
<path fill="none" stroke="#63b8ff" d="M629.58,-165.34C604.42,-156.7 566.22,-143.57 537.97,-133.87"/>
<polygon fill="#63b8ff" stroke="#63b8ff" points="539.32,-130.63 528.73,-130.69 537.05,-137.25 539.32,-130.63"/>
</a>
</g>
</g>
<!-- Node13 -->
<g id="Node000013" class="node">
<title>Node13</title>
<g id="a_Node000013"><a xlink:title=" ">
<polygon fill="#e0e0e0" stroke="#999999" points="614.62,-129.75 549.12,-129.75 549.12,-110.5 614.62,-110.5 614.62,-129.75"/>
<text text-anchor="middle" x="581.88" y="-116.25" font-family="Helvetica,sans-Serif" font-size="10.00">TRandom.h</text>
</a>
</g>
</g>
<!-- Node8&#45;&gt;Node13 -->
<g id="edge14_Node000008_Node000013" class="edge">
<title>Node8&#45;&gt;Node13</title>
<g id="a_edge14_Node000008_Node000013"><a xlink:title=" ">
<path fill="none" stroke="#63b8ff" d="M643.32,-165.34C632.41,-157.49 616.37,-145.95 603.41,-136.62"/>
<polygon fill="#63b8ff" stroke="#63b8ff" points="605.63,-133.91 595.47,-130.91 601.54,-139.59 605.63,-133.91"/>
</a>
</g>
</g>
<!-- Node14 -->
<g id="Node000014" class="node">
<title>Node14</title>
<g id="a_Node000014"><a xlink:title=" ">
<polygon fill="#e0e0e0" stroke="#999999" points="678.88,-129.75 632.88,-129.75 632.88,-110.5 678.88,-110.5 678.88,-129.75"/>
<text text-anchor="middle" x="655.88" y="-116.25" font-family="Helvetica,sans-Serif" font-size="10.00">TList.h</text>
</a>
</g>
</g>
<!-- Node8&#45;&gt;Node14 -->
<g id="edge15_Node000008_Node000014" class="edge">
<title>Node8&#45;&gt;Node14</title>
<g id="a_edge15_Node000008_Node000014"><a xlink:title=" ">
<path fill="none" stroke="#63b8ff" d="M655.88,-165.58C655.88,-159.07 655.88,-149.92 655.88,-141.62"/>
<polygon fill="#63b8ff" stroke="#63b8ff" points="659.38,-141.62 655.88,-131.62 652.38,-141.62 659.38,-141.62"/>
</a>
</g>
</g>
<!-- Node15 -->
<g id="Node000015" class="node">
<title>Node15</title>
<g id="a_Node000015"><a xlink:title=" ">
<polygon fill="#e0e0e0" stroke="#999999" points="746.38,-129.75 697.38,-129.75 697.38,-110.5 746.38,-110.5 746.38,-129.75"/>
<text text-anchor="middle" x="721.88" y="-116.25" font-family="Helvetica,sans-Serif" font-size="10.00">TTree.h</text>
</a>
</g>
</g>
<!-- Node8&#45;&gt;Node15 -->
<g id="edge16_Node000008_Node000015" class="edge">
<title>Node8&#45;&gt;Node15</title>
<g id="a_edge16_Node000008_Node000015"><a xlink:title=" ">
<path fill="none" stroke="#63b8ff" d="M667.07,-165.34C676.61,-157.65 690.55,-146.4 701.98,-137.18"/>
<polygon fill="#63b8ff" stroke="#63b8ff" points="704.08,-139.98 709.67,-130.98 699.69,-134.53 704.08,-139.98"/>
</a>
</g>
</g>
<!-- Node16 -->
<g id="Node000016" class="node">
<title>Node16</title>
<g id="a_Node000016"><a xlink:title=" ">
<polygon fill="#e0e0e0" stroke="#999999" points="819.75,-129.75 764,-129.75 764,-110.5 819.75,-110.5 819.75,-129.75"/>
<text text-anchor="middle" x="791.88" y="-116.25" font-family="Helvetica,sans-Serif" font-size="10.00">TGraph.h</text>
</a>
</g>
</g>
<!-- Node8&#45;&gt;Node16 -->
<g id="edge17_Node000008_Node000016" class="edge">
<title>Node8&#45;&gt;Node16</title>
<g id="a_edge17_Node000008_Node000016"><a xlink:title=" ">
<path fill="none" stroke="#63b8ff" d="M678.95,-165.34C700.63,-156.85 733.36,-144.04 758,-134.39"/>
<polygon fill="#63b8ff" stroke="#63b8ff" points="759.25,-137.66 767.28,-130.75 756.69,-131.14 759.25,-137.66"/>
</a>
</g>
</g>
<!-- Node17 -->
<g id="Node000017" class="node">
<title>Node17</title>
<g id="a_Node000017"><a xlink:href="_t_mnemonic_8h.html" target="_top" xlink:title=" ">
<polygon fill="white" stroke="#666666" points="1038.12,-129.75 963.62,-129.75 963.62,-110.5 1038.12,-110.5 1038.12,-129.75"/>
<text text-anchor="middle" x="1000.88" y="-116.25" font-family="Helvetica,sans-Serif" font-size="10.00">TMnemonic.h</text>
</a>
</g>
</g>
<!-- Node8&#45;&gt;Node17 -->
<g id="edge18_Node000008_Node000017" class="edge">
<title>Node8&#45;&gt;Node17</title>
<g id="a_edge18_Node000008_Node000017"><a xlink:title=" ">
<path fill="none" stroke="#63b8ff" d="M688.54,-168.73C741.65,-160.46 849.38,-144.43 940.88,-129.75 944.47,-129.17 948.2,-128.56 951.97,-127.95"/>
<polygon fill="#63b8ff" stroke="#63b8ff" points="952.52,-131.4 961.82,-126.33 951.39,-124.49 952.52,-131.4"/>
</a>
</g>
</g>
<!-- Node20 -->
<g id="Node000020" class="node">
<title>Node20</title>
<g id="a_Node000020"><a xlink:href="_globals_8h.html" target="_top" xlink:title=" ">
<polygon fill="white" stroke="#666666" points="629.12,-74.5 572.62,-74.5 572.62,-55.25 629.12,-55.25 629.12,-74.5"/>
<text text-anchor="middle" x="600.88" y="-61" font-family="Helvetica,sans-Serif" font-size="10.00">Globals.h</text>
</a>
</g>
</g>
<!-- Node8&#45;&gt;Node20 -->
<g id="edge48_Node000008_Node000020" class="edge">
<title>Node8&#45;&gt;Node20</title>
<g id="a_edge48_Node000008_Node000020"><a xlink:title=" ">
<path fill="none" stroke="#63b8ff" d="M623.03,-173.31C529.57,-169.93 267.23,-157.99 241.88,-129.75 198.19,-81.1 458.76,-69.37 561.01,-66.66"/>
<polygon fill="#63b8ff" stroke="#63b8ff" points="560.96,-70.16 570.87,-66.41 560.78,-63.16 560.96,-70.16"/>
</a>
</g>
</g>
<!-- Node35 -->
<g id="Node000035" class="node">
<title>Node35</title>
<g id="a_Node000035"><a xlink:href="_t_priority_value_8h.html" target="_top" xlink:title=" ">
<polygon fill="white" stroke="#666666" points="1234,-74.5 1149.75,-74.5 1149.75,-55.25 1234,-55.25 1234,-74.5"/>
<text text-anchor="middle" x="1191.88" y="-61" font-family="Helvetica,sans-Serif" font-size="10.00">TPriorityValue.h</text>
</a>
</g>
</g>
<!-- Node8&#45;&gt;Node35 -->
<g id="edge49_Node000008_Node000035" class="edge">
<title>Node8&#45;&gt;Node35</title>
<g id="a_edge49_Node000008_Node000035"><a xlink:title=" ">
<path fill="none" stroke="#63b8ff" d="M688.68,-173.94C756.68,-172.32 917.45,-164.78 1046.88,-129.75 1090.43,-117.96 1137.71,-95.05 1166.05,-80.12"/>
<polygon fill="#63b8ff" stroke="#63b8ff" points="1167.44,-83.34 1174.6,-75.54 1164.13,-77.17 1167.44,-83.34"/>
</a>
</g>
</g>
<!-- Node37 -->
<g id="Node000037" class="node">
<title>Node37</title>
<g id="a_Node000037"><a xlink:title=" ">
<polygon fill="#e0e0e0" stroke="#999999" points="907.5,-129.75 838.25,-129.75 838.25,-110.5 907.5,-110.5 907.5,-129.75"/>
<text text-anchor="middle" x="872.88" y="-116.25" font-family="Helvetica,sans-Serif" font-size="10.00">TClassRef.h</text>
</a>
</g>
</g>
<!-- Node8&#45;&gt;Node37 -->
<g id="edge47_Node000008_Node000037" class="edge">
<title>Node8&#45;&gt;Node37</title>
<g id="a_edge47_Node000008_Node000037"><a xlink:title=" ">
<path fill="none" stroke="#63b8ff" d="M688.36,-166.4C725.19,-157.37 785.48,-142.57 827.07,-132.36"/>
<polygon fill="#63b8ff" stroke="#63b8ff" points="827.66,-135.82 836.54,-130.04 825.99,-129.03 827.66,-135.82"/>
</a>
</g>
</g>
<!-- Node17&#45;&gt;Node2 -->
<g id="edge20_Node000017_Node000002" class="edge">
<title>Node17&#45;&gt;Node2</title>
<g id="a_edge20_Node000017_Node000002"><a xlink:title=" ">
<path fill="none" stroke="#63b8ff" d="M963.24,-115.26C948.75,-113.77 932.04,-112.05 916.88,-110.5 601.05,-78.18 517.11,-80.76 202.25,-19.57"/>
<polygon fill="#63b8ff" stroke="#63b8ff" points="202.92,-16.14 192.43,-17.66 201.58,-23.01 202.92,-16.14"/>
</a>
</g>
</g>
<!-- Node17&#45;&gt;Node7 -->
<g id="edge19_Node000017_Node000007" class="edge">
<title>Node17&#45;&gt;Node7</title>
<g id="a_edge19_Node000017_Node000007"><a xlink:title=" ">
<path fill="none" stroke="#63b8ff" d="M996.09,-110.19C989.61,-96.75 980.23,-71.19 992.88,-55.25 1034.42,-2.87 1074.79,-33.87 1144.64,-19.41"/>
<polygon fill="#63b8ff" stroke="#63b8ff" points="1145.24,-22.87 1154.16,-17.16 1143.63,-16.06 1145.24,-22.87"/>
</a>
</g>
</g>
<!-- Node17&#45;&gt;Node8 -->
<g id="edge46_Node000017_Node000008" class="edge">
<title>Node17&#45;&gt;Node8</title>
<g id="a_edge46_Node000017_Node000008"><a xlink:title=" ">
<path fill="none" stroke="#63b8ff" d="M963.19,-129.05C961.73,-129.29 960.29,-129.52 958.88,-129.75 867.12,-144.47 759.05,-160.55 699.84,-168.8"/>
<polygon fill="#63b8ff" stroke="#63b8ff" points="699.59,-165.3 690.16,-170.14 700.55,-172.24 699.59,-165.3"/>
</a>
</g>
</g>
<!-- Node18 -->
<g id="Node000018" class="node">
<title>Node18</title>
<g id="a_Node000018"><a xlink:title=" ">
<polygon fill="#e0e0e0" stroke="#999999" points="1059.88,-74.5 1001.88,-74.5 1001.88,-55.25 1059.88,-55.25 1059.88,-74.5"/>
<text text-anchor="middle" x="1030.88" y="-61" font-family="Helvetica,sans-Serif" font-size="10.00">TObject.h</text>
</a>
</g>
</g>
<!-- Node17&#45;&gt;Node18 -->
<g id="edge21_Node000017_Node000018" class="edge">
<title>Node17&#45;&gt;Node18</title>
<g id="a_edge21_Node000017_Node000018"><a xlink:title=" ">
<path fill="none" stroke="#63b8ff" d="M1005.83,-110.33C1009.76,-103.36 1015.39,-93.37 1020.31,-84.62"/>
<polygon fill="#63b8ff" stroke="#63b8ff" points="1023.21,-86.61 1025.07,-76.18 1017.11,-83.17 1023.21,-86.61"/>
</a>
</g>
</g>
<!-- Node19 -->
<g id="Node000019" class="node">
<title>Node19</title>
<g id="a_Node000019"><a xlink:title=" ">
<polygon fill="#e0e0e0" stroke="#999999" points="1132,-74.5 1077.75,-74.5 1077.75,-55.25 1132,-55.25 1132,-74.5"/>
<text text-anchor="middle" x="1104.88" y="-61" font-family="Helvetica,sans-Serif" font-size="10.00">TClass.h</text>
</a>
</g>
</g>
<!-- Node17&#45;&gt;Node19 -->
<g id="edge22_Node000017_Node000019" class="edge">
<title>Node17&#45;&gt;Node19</title>
<g id="a_edge22_Node000017_Node000019"><a xlink:title=" ">
<path fill="none" stroke="#63b8ff" d="M1018.52,-110.09C1034.5,-101.91 1058.33,-89.71 1076.91,-80.19"/>
<polygon fill="#63b8ff" stroke="#63b8ff" points="1078.49,-83.32 1085.8,-75.64 1075.3,-77.08 1078.49,-83.32"/>
</a>
</g>
</g>
<!-- Node17&#45;&gt;Node20 -->
<g id="edge23_Node000017_Node000020" class="edge">
<title>Node17&#45;&gt;Node20</title>
<g id="a_edge23_Node000017_Node000020"><a xlink:title=" ">
<path fill="none" stroke="#63b8ff" d="M963.24,-114.12C887.68,-104.06 718.11,-81.48 640.73,-71.18"/>
<polygon fill="#63b8ff" stroke="#63b8ff" points="641.45,-67.75 631.07,-69.9 640.52,-74.68 641.45,-67.75"/>
</a>
</g>
</g>
<!-- Node17&#45;&gt;Node35 -->
<g id="edge42_Node000017_Node000035" class="edge">
<title>Node17&#45;&gt;Node35</title>
<g id="a_edge42_Node000017_Node000035"><a xlink:title=" ">
<path fill="none" stroke="#63b8ff" d="M1033.28,-110.09C1064.97,-101.26 1113.44,-87.74 1148.46,-77.98"/>
<polygon fill="#63b8ff" stroke="#63b8ff" points="1149.16,-81.42 1157.86,-75.36 1147.28,-74.67 1149.16,-81.42"/>
</a>
</g>
</g>
<!-- Node20&#45;&gt;Node2 -->
<g id="edge25_Node000020_Node000002" class="edge">
<title>Node20&#45;&gt;Node2</title>
<g id="a_edge25_Node000020_Node000002"><a xlink:title=" ">
<path fill="none" stroke="#63b8ff" d="M572.51,-61.94C508.35,-57.29 347.04,-44.17 202.21,-19.44"/>
<polygon fill="#63b8ff" stroke="#63b8ff" points="202.87,-16.01 192.42,-17.75 201.67,-22.9 202.87,-16.01"/>
</a>
</g>
</g>
<!-- Node20&#45;&gt;Node3 -->
<g id="edge26_Node000020_Node000003" class="edge">
<title>Node20&#45;&gt;Node3</title>
<g id="a_edge26_Node000020_Node000003"><a xlink:title=" ">
<path fill="none" stroke="#63b8ff" d="M572.17,-63.19C492.53,-60.94 262.05,-52.02 61.38,-19.38"/>
<polygon fill="#63b8ff" stroke="#63b8ff" points="61.96,-15.93 51.52,-17.75 60.82,-22.83 61.96,-15.93"/>
</a>
</g>
</g>
<!-- Node20&#45;&gt;Node5 -->
<g id="edge33_Node000020_Node000005" class="edge">
<title>Node20&#45;&gt;Node5</title>
<g id="a_edge33_Node000020_Node000005"><a xlink:title=" ">
<path fill="none" stroke="#63b8ff" d="M572.15,-62.71C499.66,-59.45 303.37,-48.58 131.09,-19.57"/>
<polygon fill="#63b8ff" stroke="#63b8ff" points="131.71,-16.13 121.27,-17.89 130.53,-23.03 131.71,-16.13"/>
</a>
</g>
</g>
<!-- Node20&#45;&gt;Node7 -->
<g id="edge28_Node000020_Node000007" class="edge">
<title>Node20&#45;&gt;Node7</title>
<g id="a_edge28_Node000020_Node000007"><a xlink:title=" ">
<path fill="none" stroke="#63b8ff" d="M629.57,-63.62C709.74,-62.46 942.87,-56.11 1144.32,-19.34"/>
<polygon fill="#63b8ff" stroke="#63b8ff" points="1144.73,-22.83 1153.92,-17.56 1143.45,-15.95 1144.73,-22.83"/>
</a>
</g>
</g>
<!-- Node21 -->
<g id="Node000021" class="node">
<title>Node21</title>
<g id="a_Node000021"><a xlink:title=" ">
<polygon fill="#e0e0e0" stroke="#999999" points="939.5,-19.25 894.25,-19.25 894.25,0 939.5,0 939.5,-19.25"/>
<text text-anchor="middle" x="916.88" y="-5.75" font-family="Helvetica,sans-Serif" font-size="10.00">cstdint</text>
</a>
</g>
</g>
<!-- Node20&#45;&gt;Node21 -->
<g id="edge24_Node000020_Node000021" class="edge">
<title>Node20&#45;&gt;Node21</title>
<g id="a_edge24_Node000020_Node000021"><a xlink:title=" ">
<path fill="none" stroke="#63b8ff" d="M629.28,-60.44C678.75,-54.24 784.14,-40.05 882.81,-19.48"/>
<polygon fill="#63b8ff" stroke="#63b8ff" points="883.33,-22.95 892.39,-17.45 881.89,-16.1 883.33,-22.95"/>
</a>
</g>
</g>
<!-- Node22 -->
<g id="Node000022" class="node">
<title>Node22</title>
<g id="a_Node000022"><a xlink:title=" ">
<polygon fill="#e0e0e0" stroke="#999999" points="1015.88,-19.25 957.88,-19.25 957.88,0 1015.88,0 1015.88,-19.25"/>
<text text-anchor="middle" x="986.88" y="-5.75" font-family="Helvetica,sans-Serif" font-size="10.00">stdexcept</text>
</a>
</g>
</g>
<!-- Node20&#45;&gt;Node22 -->
<g id="edge27_Node000020_Node000022" class="edge">
<title>Node20&#45;&gt;Node22</title>
<g id="a_edge27_Node000020_Node000022"><a xlink:title=" ">
<path fill="none" stroke="#63b8ff" d="M629.43,-61.15C687.31,-55.42 822.77,-41.01 946.32,-19.55"/>
<polygon fill="#63b8ff" stroke="#63b8ff" points="946.74,-23.03 955.98,-17.85 945.53,-16.14 946.74,-23.03"/>
</a>
</g>
</g>
<!-- Node23 -->
<g id="Node000023" class="node">
<title>Node23</title>
<g id="a_Node000023"><a xlink:title=" ">
<polygon fill="#e0e0e0" stroke="#999999" points="1076,-19.25 1033.75,-19.25 1033.75,0 1076,0 1076,-19.25"/>
<text text-anchor="middle" x="1054.88" y="-5.75" font-family="Helvetica,sans-Serif" font-size="10.00">cstdio</text>
</a>
</g>
</g>
<!-- Node20&#45;&gt;Node23 -->
<g id="edge29_Node000020_Node000023" class="edge">
<title>Node20&#45;&gt;Node23</title>
<g id="a_edge29_Node000020_Node000023"><a xlink:title=" ">
<path fill="none" stroke="#63b8ff" d="M629.41,-62.6C696.47,-59.23 869.39,-48.43 1022.38,-19.42"/>
<polygon fill="#63b8ff" stroke="#63b8ff" points="1022.71,-22.92 1031.87,-17.59 1021.39,-16.05 1022.71,-22.92"/>
</a>
</g>
</g>
<!-- Node24 -->
<g id="Node000024" class="node">
<title>Node24</title>
<g id="a_Node000024"><a xlink:title=" ">
<polygon fill="#e0e0e0" stroke="#999999" points="1138.12,-19.25 1093.62,-19.25 1093.62,0 1138.12,0 1138.12,-19.25"/>
<text text-anchor="middle" x="1115.88" y="-5.75" font-family="Helvetica,sans-Serif" font-size="10.00">cstdlib</text>
</a>
</g>
</g>
<!-- Node20&#45;&gt;Node24 -->
<g id="edge30_Node000020_Node000024" class="edge">
<title>Node20&#45;&gt;Node24</title>
<g id="a_edge30_Node000020_Node000024"><a xlink:title=" ">
<path fill="none" stroke="#63b8ff" d="M629.49,-63.03C703.15,-60.47 905.38,-51.05 1082.22,-19.43"/>
<polygon fill="#63b8ff" stroke="#63b8ff" points="1082.6,-22.92 1091.81,-17.68 1081.34,-16.03 1082.6,-22.92"/>
</a>
</g>
</g>
<!-- Node25 -->
<g id="Node000025" class="node">
<title>Node25</title>
<g id="a_Node000025"><a xlink:title=" ">
<polygon fill="#e0e0e0" stroke="#999999" points="268.62,-19.25 209.12,-19.25 209.12,0 268.62,0 268.62,-19.25"/>
<text text-anchor="middle" x="238.88" y="-5.75" font-family="Helvetica,sans-Serif" font-size="10.00">execinfo.h</text>
</a>
</g>
</g>
<!-- Node20&#45;&gt;Node25 -->
<g id="edge31_Node000020_Node000025" class="edge">
<title>Node20&#45;&gt;Node25</title>
<g id="a_edge31_Node000020_Node000025"><a xlink:title=" ">
<path fill="none" stroke="#63b8ff" d="M572.24,-60.7C517.49,-54.47 394.01,-39.61 280.06,-19.51"/>
<polygon fill="#63b8ff" stroke="#63b8ff" points="281.01,-16.13 270.55,-17.82 279.78,-23.02 281.01,-16.13"/>
</a>
</g>
</g>
<!-- Node26 -->
<g id="Node000026" class="node">
<title>Node26</title>
<g id="a_Node000026"><a xlink:title=" ">
<polygon fill="#e0e0e0" stroke="#999999" points="337.12,-19.25 286.62,-19.25 286.62,0 337.12,0 337.12,-19.25"/>
<text text-anchor="middle" x="311.88" y="-5.75" font-family="Helvetica,sans-Serif" font-size="10.00">cxxabi.h</text>
</a>
</g>
</g>
<!-- Node20&#45;&gt;Node26 -->
<g id="edge32_Node000020_Node000026" class="edge">
<title>Node20&#45;&gt;Node26</title>
<g id="a_edge32_Node000020_Node000026"><a xlink:title=" ">
<path fill="none" stroke="#63b8ff" d="M572.44,-59.61C527.13,-52.67 435.54,-38.01 348.58,-19.7"/>
<polygon fill="#63b8ff" stroke="#63b8ff" points="349.44,-16.31 338.93,-17.65 347.98,-23.15 349.44,-16.31"/>
</a>
</g>
</g>
<!-- Node27 -->
<g id="Node000027" class="node">
<title>Node27</title>
<g id="a_Node000027"><a xlink:title=" ">
<polygon fill="#e0e0e0" stroke="#999999" points="392.38,-19.25 355.38,-19.25 355.38,0 392.38,0 392.38,-19.25"/>
<text text-anchor="middle" x="373.88" y="-5.75" font-family="Helvetica,sans-Serif" font-size="10.00">array</text>
</a>
</g>
</g>
<!-- Node20&#45;&gt;Node27 -->
<g id="edge34_Node000020_Node000027" class="edge">
<title>Node20&#45;&gt;Node27</title>
<g id="a_edge34_Node000020_Node000027"><a xlink:title=" ">
<path fill="none" stroke="#63b8ff" d="M572.36,-58.21C535.62,-50.76 469.55,-36.82 403.77,-19.58"/>
<polygon fill="#63b8ff" stroke="#63b8ff" points="404.82,-16.24 394.26,-17.06 403.03,-23.01 404.82,-16.24"/>
</a>
</g>
</g>
<!-- Node28 -->
<g id="Node000028" class="node">
<title>Node28</title>
<g id="a_Node000028"><a xlink:title=" ">
<polygon fill="#e0e0e0" stroke="#999999" points="461.12,-19.25 410.62,-19.25 410.62,0 461.12,0 461.12,-19.25"/>
<text text-anchor="middle" x="435.88" y="-5.75" font-family="Helvetica,sans-Serif" font-size="10.00">memory</text>
</a>
</g>
</g>
<!-- Node20&#45;&gt;Node28 -->
<g id="edge35_Node000020_Node000028" class="edge">
<title>Node20&#45;&gt;Node28</title>
<g id="a_edge35_Node000020_Node000028"><a xlink:title=" ">
<path fill="none" stroke="#63b8ff" d="M572.88,-54.84C545.13,-45.88 502.46,-32.11 472.12,-22.32"/>
<polygon fill="#63b8ff" stroke="#63b8ff" points="473.59,-19.12 463,-19.38 471.44,-25.78 473.59,-19.12"/>
</a>
</g>
</g>
<!-- Node29 -->
<g id="Node000029" class="node">
<title>Node29</title>
<g id="a_Node000029"><a xlink:title=" ">
<polygon fill="#e0e0e0" stroke="#999999" points="528.75,-19.25 479,-19.25 479,0 528.75,0 528.75,-19.25"/>
<text text-anchor="middle" x="503.88" y="-5.75" font-family="Helvetica,sans-Serif" font-size="10.00">unistd.h</text>
</a>
</g>
</g>
<!-- Node20&#45;&gt;Node29 -->
<g id="edge36_Node000020_Node000029" class="edge">
<title>Node20&#45;&gt;Node29</title>
<g id="a_edge36_Node000020_Node000029"><a xlink:title=" ">
<path fill="none" stroke="#63b8ff" d="M584.42,-54.84C569.65,-46.73 547.7,-34.68 530.44,-25.21"/>
<polygon fill="#63b8ff" stroke="#63b8ff" points="532.19,-22.18 521.74,-20.43 528.82,-28.31 532.19,-22.18"/>
</a>
</g>
</g>
<!-- Node30 -->
<g id="Node000030" class="node">
<title>Node30</title>
<g id="a_Node000030"><a xlink:title=" ">
<polygon fill="#e0e0e0" stroke="#999999" points="592.88,-19.25 546.88,-19.25 546.88,0 592.88,0 592.88,-19.25"/>
<text text-anchor="middle" x="569.88" y="-5.75" font-family="Helvetica,sans-Serif" font-size="10.00">TEnv.h</text>
</a>
</g>
</g>
<!-- Node20&#45;&gt;Node30 -->
<g id="edge37_Node000020_Node000030" class="edge">
<title>Node20&#45;&gt;Node30</title>
<g id="a_edge37_Node000020_Node000030"><a xlink:title=" ">
<path fill="none" stroke="#63b8ff" d="M595.76,-55.08C591.7,-48.11 585.88,-38.12 580.79,-29.37"/>
<polygon fill="#63b8ff" stroke="#63b8ff" points="583.92,-27.8 575.87,-20.92 577.87,-31.32 583.92,-27.8"/>
</a>
</g>
</g>
<!-- Node31 -->
<g id="Node000031" class="node">
<title>Node31</title>
<g id="a_Node000031"><a xlink:title=" ">
<polygon fill="#e0e0e0" stroke="#999999" points="655.12,-19.25 610.62,-19.25 610.62,0 655.12,0 655.12,-19.25"/>
<text text-anchor="middle" x="632.88" y="-5.75" font-family="Helvetica,sans-Serif" font-size="10.00">stdio.h</text>
</a>
</g>
</g>
<!-- Node20&#45;&gt;Node31 -->
<g id="edge38_Node000020_Node000031" class="edge">
<title>Node20&#45;&gt;Node31</title>
<g id="a_edge38_Node000020_Node000031"><a xlink:title=" ">
<path fill="none" stroke="#63b8ff" d="M606.16,-55.08C610.35,-48.11 616.35,-38.12 621.61,-29.37"/>
<polygon fill="#63b8ff" stroke="#63b8ff" points="624.55,-31.28 626.7,-20.91 618.55,-27.68 624.55,-31.28"/>
</a>
</g>
</g>
<!-- Node32 -->
<g id="Node000032" class="node">
<title>Node32</title>
<g id="a_Node000032"><a xlink:title=" ">
<polygon fill="#e0e0e0" stroke="#999999" points="720.25,-19.25 673.5,-19.25 673.5,0 720.25,0 720.25,-19.25"/>
<text text-anchor="middle" x="696.88" y="-5.75" font-family="Helvetica,sans-Serif" font-size="10.00">stdlib.h</text>
</a>
</g>
</g>
<!-- Node20&#45;&gt;Node32 -->
<g id="edge39_Node000020_Node000032" class="edge">
<title>Node20&#45;&gt;Node32</title>
<g id="a_edge39_Node000020_Node000032"><a xlink:title=" ">
<path fill="none" stroke="#63b8ff" d="M617.16,-54.84C631.78,-46.73 653.5,-34.68 670.58,-25.21"/>
<polygon fill="#63b8ff" stroke="#63b8ff" points="672.14,-28.35 679.19,-20.44 668.74,-22.23 672.14,-28.35"/>
</a>
</g>
</g>
<!-- Node33 -->
<g id="Node000033" class="node">
<title>Node33</title>
<g id="a_Node000033"><a xlink:title=" ">
<polygon fill="#e0e0e0" stroke="#999999" points="797.62,-19.25 738.12,-19.25 738.12,0 797.62,0 797.62,-19.25"/>
<text text-anchor="middle" x="767.88" y="-5.75" font-family="Helvetica,sans-Serif" font-size="10.00">sys/wait.h</text>
</a>
</g>
</g>
<!-- Node20&#45;&gt;Node33 -->
<g id="edge40_Node000020_Node000033" class="edge">
<title>Node20&#45;&gt;Node33</title>
<g id="a_edge40_Node000020_Node000033"><a xlink:title=" ">
<path fill="none" stroke="#63b8ff" d="M629.2,-54.84C656.55,-46.12 698.2,-32.84 728.71,-23.11"/>
<polygon fill="#63b8ff" stroke="#63b8ff" points="729.5,-26.53 737.96,-20.16 727.37,-19.87 729.5,-26.53"/>
</a>
</g>
</g>
<!-- Node34 -->
<g id="Node000034" class="node">
<title>Node34</title>
<g id="a_Node000034"><a xlink:title=" ">
<polygon fill="#e0e0e0" stroke="#999999" points="876,-19.25 815.75,-19.25 815.75,0 876,0 876,-19.25"/>
<text text-anchor="middle" x="845.88" y="-5.75" font-family="Helvetica,sans-Serif" font-size="10.00">sys/prctl.h</text>
</a>
</g>
</g>
<!-- Node20&#45;&gt;Node34 -->
<g id="edge41_Node000020_Node000034" class="edge">
<title>Node20&#45;&gt;Node34</title>
<g id="a_edge41_Node000020_Node000034"><a xlink:title=" ">
<path fill="none" stroke="#63b8ff" d="M629.54,-57.71C667.33,-49.57 736.15,-34.71 804.66,-19.73"/>
<polygon fill="#63b8ff" stroke="#63b8ff" points="805.14,-23.2 814.17,-17.65 803.65,-16.37 805.14,-23.2"/>
</a>
</g>
</g>
<!-- Node35&#45;&gt;Node6 -->
<g id="edge45_Node000035_Node000006" class="edge">
<title>Node35&#45;&gt;Node6</title>
<g id="a_edge45_Node000035_Node000006"><a xlink:title=" ">
<path fill="none" stroke="#63b8ff" d="M1211.04,-54.84C1228.66,-46.54 1255.03,-34.11 1275.34,-24.54"/>
<polygon fill="#63b8ff" stroke="#63b8ff" points="1276.69,-27.78 1284.24,-20.35 1273.7,-21.44 1276.69,-27.78"/>
</a>
</g>
</g>
<!-- Node35&#45;&gt;Node7 -->
<g id="edge44_Node000035_Node000007" class="edge">
<title>Node35&#45;&gt;Node7</title>
<g id="a_edge44_Node000035_Node000007"><a xlink:title=" ">
<path fill="none" stroke="#63b8ff" d="M1189.23,-55.08C1187.23,-48.42 1184.4,-38.99 1181.86,-30.53"/>
<polygon fill="#63b8ff" stroke="#63b8ff" points="1185.24,-29.63 1179.01,-21.06 1178.54,-31.64 1185.24,-29.63"/>
</a>
</g>
</g>
<!-- Node36 -->
<g id="Node000036" class="node">
<title>Node36</title>
<g id="a_Node000036"><a xlink:title=" ">
<polygon fill="#e0e0e0" stroke="#999999" points="1265.5,-19.25 1214.25,-19.25 1214.25,0 1265.5,0 1265.5,-19.25"/>
<text text-anchor="middle" x="1239.88" y="-5.75" font-family="Helvetica,sans-Serif" font-size="10.00">ostream</text>
</a>
</g>
</g>
<!-- Node35&#45;&gt;Node36 -->
<g id="edge43_Node000035_Node000036" class="edge">
<title>Node35&#45;&gt;Node36</title>
<g id="a_edge43_Node000035_Node000036"><a xlink:title=" ">
<path fill="none" stroke="#63b8ff" d="M1199.8,-55.08C1206.43,-47.73 1216.09,-37.01 1224.26,-27.94"/>
<polygon fill="#63b8ff" stroke="#63b8ff" points="1226.67,-30.5 1230.76,-20.73 1221.47,-25.82 1226.67,-30.5"/>
</a>
</g>
</g>
</g>
</svg>

<g id="navigator" transform="translate(0 0)" fill="#404254">
  <rect fill="#f2f5e9" fill-opacity="0.5" stroke="#606060" stroke-width=".5" x="0" y="0" width="60" height="60"/>
  <use id="zoomplus" xlink:href="#zoomPlus" x="17" y="9" onmousedown="handleZoom(evt,'in')"/>
  <use id="zoomminus" xlink:href="#zoomMin" x="42" y="9" onmousedown="handleZoom(evt,'out')"/>
  <use id="reset" xlink:href="#resetDef" x="30" y="36" onmousedown="handleReset()"/>
   <use id="arrowup" xlink:href="#arrowUp" x="0" y="0" onmousedown="handlePan(0,-1)"/>
  <use id="arrowright" xlink:href="#arrowRight" x="0" y="0" onmousedown="handlePan(1,0)"/>
  <use id="arrowdown" xlink:href="#arrowDown" x="0" y="0" onmousedown="handlePan(0,1)"/>
  <use id="arrowleft" xlink:href="#arrowLeft" x="0" y="0" onmousedown="handlePan(-1,0)"/>
</g>
<svg viewBox="0 0 15 15" width="100%" height="30px" preserveAspectRatio="xMaxYMin meet">
 <g id="arrow_out" transform="scale(0.3 0.3)">
  <a xlink:href="_convert_drift_files_8cxx__incl_org.svg" target="_base">
   <rect id="button" ry="5" rx="5" y="6" x="6" height="38" width="38"
        fill="#f2f5e9" fill-opacity="0.5" stroke="#606060" stroke-width="1.0"/>
   <path id="arrow"
     d="M 11.500037,31.436501 C 11.940474,20.09759 22.043105,11.32322 32.158766,21.979434 L 37.068811,17.246167 C 37.068811,17.246167 37.088388,32 37.088388,32 L 22.160133,31.978069 C 22.160133,31.978069 26.997745,27.140456 26.997745,27.140456 C 18.528582,18.264221 13.291696,25.230495 11.500037,31.436501 z"
     style="fill:#404040;"/>
  </a>
 </g>
</svg>

<style type='text/css'>
<![CDATA[
[data-mouse-over-selected='false'] { opacity: 0.7; }
[data-mouse-over-selected='true']  { opacity: 1.0; }
]]>
</style>
<script type="application/ecmascript"><![CDATA[
document.addEventListener('DOMContentLoaded', (event) => {
  highlightEdges();
  highlightAdjacentNodes();
});
]]></script>
</svg>
