<?xml version="1.0" encoding="UTF-8" standalone="no"?>
<!DOCTYPE svg PUBLIC "-//W3C//DTD SVG 1.1//EN"
 "http://www.w3.org/Graphics/SVG/1.1/DTD/svg11.dtd">
<!-- Generated by graphviz version 9.0.0 (20230911.1827)
 -->
<!-- Title: GCanvas.h Pages: 1 -->
<svg width="1230pt" height="138pt"
 viewBox="0.00 0.00 1230.00 137.75" xmlns="http://www.w3.org/2000/svg" xmlns:xlink="http://www.w3.org/1999/xlink">
<g id="graph0" class="graph" transform="scale(1 1) rotate(0) translate(4 133.75)">
<title>GCanvas.h</title>
<!-- Node1 -->
<g id="Node000001" class="node">
<title>Node1</title>
<g id="a_Node000001"><a xlink:title=" ">
<polygon fill="#999999" stroke="#666666" points="655.5,-129.75 591.5,-129.75 591.5,-110.5 655.5,-110.5 655.5,-129.75"/>
<text text-anchor="middle" x="623.5" y="-116.25" font-family="Helvetica,sans-Serif" font-size="10.00">GCanvas.h</text>
</a>
</g>
</g>
<!-- Node2 -->
<g id="Node000002" class="node">
<title>Node2</title>
<g id="a_Node000002"><a xlink:href="_g_canvas_8cxx.html" target="_top" xlink:title=" ">
<polygon fill="white" stroke="#666666" points="73,-74.5 0,-74.5 0,-55.25 73,-55.25 73,-74.5"/>
<text text-anchor="middle" x="36.5" y="-61" font-family="Helvetica,sans-Serif" font-size="10.00">GCanvas.cxx</text>
</a>
</g>
</g>
<!-- Node1&#45;&gt;Node2 -->
<g id="edge1_Node000001_Node000002" class="edge">
<title>Node1&#45;&gt;Node2</title>
<g id="a_edge1_Node000001_Node000002"><a xlink:title=" ">
<path fill="none" stroke="#63b8ff" d="M579.92,-117.13C487.65,-112.54 265.89,-99.69 81.5,-74.5 78.82,-74.13 76.06,-73.71 73.28,-73.26"/>
<polygon fill="#63b8ff" stroke="#63b8ff" points="579.63,-120.62 589.79,-117.61 579.97,-113.62 579.63,-120.62"/>
</a>
</g>
</g>
<!-- Node3 -->
<g id="Node000003" class="node">
<title>Node3</title>
<g id="a_Node000003"><a xlink:href="_g_gaus_8cxx.html" target="_top" xlink:title=" ">
<polygon fill="white" stroke="#666666" points="154.12,-74.5 90.88,-74.5 90.88,-55.25 154.12,-55.25 154.12,-74.5"/>
<text text-anchor="middle" x="122.5" y="-61" font-family="Helvetica,sans-Serif" font-size="10.00">GGaus.cxx</text>
</a>
</g>
</g>
<!-- Node1&#45;&gt;Node3 -->
<g id="edge2_Node000001_Node000003" class="edge">
<title>Node1&#45;&gt;Node3</title>
<g id="a_edge2_Node000001_Node000003"><a xlink:title=" ">
<path fill="none" stroke="#63b8ff" d="M579.84,-116.59C497.74,-111.45 314.9,-98.23 162.5,-74.5 159.83,-74.08 157.08,-73.6 154.31,-73.08"/>
<polygon fill="#63b8ff" stroke="#63b8ff" points="579.5,-120.08 589.69,-117.2 579.93,-113.09 579.5,-120.08"/>
</a>
</g>
</g>
<!-- Node4 -->
<g id="Node000004" class="node">
<title>Node4</title>
<g id="a_Node000004"><a xlink:href="_g_h1_d_8cxx.html" target="_top" xlink:title=" ">
<polygon fill="white" stroke="#666666" points="231.25,-74.5 171.75,-74.5 171.75,-55.25 231.25,-55.25 231.25,-74.5"/>
<text text-anchor="middle" x="201.5" y="-61" font-family="Helvetica,sans-Serif" font-size="10.00">GH1D.cxx</text>
</a>
</g>
</g>
<!-- Node1&#45;&gt;Node4 -->
<g id="edge3_Node000001_Node000004" class="edge">
<title>Node1&#45;&gt;Node4</title>
<g id="a_edge3_Node000001_Node000004"><a xlink:title=" ">
<path fill="none" stroke="#63b8ff" d="M579.86,-115.5C508.56,-109.24 362.75,-95.09 240.5,-74.5 237.63,-74.02 234.65,-73.46 231.67,-72.87"/>
<polygon fill="#63b8ff" stroke="#63b8ff" points="579.29,-118.96 589.55,-116.34 579.89,-111.99 579.29,-118.96"/>
</a>
</g>
</g>
<!-- Node5 -->
<g id="Node000005" class="node">
<title>Node5</title>
<g id="a_Node000005"><a xlink:href="_g_peak_8cxx.html" target="_top" xlink:title=" ">
<polygon fill="white" stroke="#666666" points="311.75,-74.5 249.25,-74.5 249.25,-55.25 311.75,-55.25 311.75,-74.5"/>
<text text-anchor="middle" x="280.5" y="-61" font-family="Helvetica,sans-Serif" font-size="10.00">GPeak.cxx</text>
</a>
</g>
</g>
<!-- Node1&#45;&gt;Node5 -->
<g id="edge4_Node000001_Node000005" class="edge">
<title>Node1&#45;&gt;Node5</title>
<g id="a_edge4_Node000001_Node000005"><a xlink:title=" ">
<path fill="none" stroke="#63b8ff" d="M579.98,-113.64C521,-105.99 412.47,-91.17 320.5,-74.5 317.7,-73.99 314.81,-73.43 311.9,-72.85"/>
<polygon fill="#63b8ff" stroke="#63b8ff" points="579.23,-117.07 589.6,-114.88 580.13,-110.13 579.23,-117.07"/>
</a>
</g>
</g>
<!-- Node6 -->
<g id="Node000006" class="node">
<title>Node6</title>
<g id="a_Node000006"><a xlink:href="_g_root_canvas_8cxx.html" target="_top" xlink:title=" ">
<polygon fill="white" stroke="#666666" points="423.12,-74.5 329.88,-74.5 329.88,-55.25 423.12,-55.25 423.12,-74.5"/>
<text text-anchor="middle" x="376.5" y="-61" font-family="Helvetica,sans-Serif" font-size="10.00">GRootCanvas.cxx</text>
</a>
</g>
</g>
<!-- Node1&#45;&gt;Node6 -->
<g id="edge5_Node000001_Node000006" class="edge">
<title>Node1&#45;&gt;Node6</title>
<g id="a_edge5_Node000001_Node000006"><a xlink:title=" ">
<path fill="none" stroke="#63b8ff" d="M580.24,-109.8C534.79,-100 463.78,-84.69 418.72,-74.98"/>
<polygon fill="#63b8ff" stroke="#63b8ff" points="579.22,-113.16 589.73,-111.84 580.69,-106.32 579.22,-113.16"/>
</a>
</g>
</g>
<!-- Node7 -->
<g id="Node000007" class="node">
<title>Node7</title>
<g id="a_Node000007"><a xlink:href="_g_root_commands_8cxx.html" target="_top" xlink:title=" ">
<polygon fill="white" stroke="#666666" points="551.38,-74.5 441.62,-74.5 441.62,-55.25 551.38,-55.25 551.38,-74.5"/>
<text text-anchor="middle" x="496.5" y="-61" font-family="Helvetica,sans-Serif" font-size="10.00">GRootCommands.cxx</text>
</a>
</g>
</g>
<!-- Node1&#45;&gt;Node7 -->
<g id="edge6_Node000001_Node000007" class="edge">
<title>Node1&#45;&gt;Node7</title>
<g id="a_edge6_Node000001_Node000007"><a xlink:title=" ">
<path fill="none" stroke="#63b8ff" d="M591.37,-105.65C568.45,-96.04 538.25,-83.38 518.15,-74.95"/>
<polygon fill="#63b8ff" stroke="#63b8ff" points="589.98,-108.87 600.56,-109.51 592.69,-102.41 589.98,-108.87"/>
</a>
</g>
</g>
<!-- Node8 -->
<g id="Node000008" class="node">
<title>Node8</title>
<g id="a_Node000008"><a xlink:href="_g_root_gui_factory_8cxx.html" target="_top" xlink:title=" ">
<polygon fill="white" stroke="#666666" points="677.25,-74.5 569.75,-74.5 569.75,-55.25 677.25,-55.25 677.25,-74.5"/>
<text text-anchor="middle" x="623.5" y="-61" font-family="Helvetica,sans-Serif" font-size="10.00">GRootGuiFactory.cxx</text>
</a>
</g>
</g>
<!-- Node1&#45;&gt;Node8 -->
<g id="edge7_Node000001_Node000008" class="edge">
<title>Node1&#45;&gt;Node8</title>
<g id="a_edge7_Node000001_Node000008"><a xlink:title=" ">
<path fill="none" stroke="#63b8ff" d="M623.5,-98.88C623.5,-90.59 623.5,-81.42 623.5,-74.86"/>
<polygon fill="#63b8ff" stroke="#63b8ff" points="620,-98.82 623.5,-108.82 627,-98.82 620,-98.82"/>
</a>
</g>
</g>
<!-- Node9 -->
<g id="Node000009" class="node">
<title>Node9</title>
<g id="a_Node000009"><a xlink:href="_t_b_g_subtraction_8cxx.html" target="_top" xlink:title=" ">
<polygon fill="white" stroke="#666666" points="789.62,-19.25 687.38,-19.25 687.38,0 789.62,0 789.62,-19.25"/>
<text text-anchor="middle" x="738.5" y="-5.75" font-family="Helvetica,sans-Serif" font-size="10.00">TBGSubtraction.cxx</text>
</a>
</g>
</g>
<!-- Node1&#45;&gt;Node9 -->
<g id="edge8_Node000001_Node000009" class="edge">
<title>Node1&#45;&gt;Node9</title>
<g id="a_edge8_Node000001_Node000009"><a xlink:title=" ">
<path fill="none" stroke="#63b8ff" d="M648.15,-103.93C660.29,-95.9 674.8,-85.44 686.5,-74.5 705.3,-56.92 723.37,-32.48 732.44,-19.52"/>
<polygon fill="#63b8ff" stroke="#63b8ff" points="646.4,-100.89 639.89,-109.25 650.19,-106.78 646.4,-100.89"/>
</a>
</g>
</g>
<!-- Node10 -->
<g id="Node000010" class="node">
<title>Node10</title>
<g id="a_Node000010"><a xlink:href="_t_b_g_subtraction_8h.html" target="_top" xlink:title=" ">
<polygon fill="white" stroke="#666666" points="827.12,-74.5 733.88,-74.5 733.88,-55.25 827.12,-55.25 827.12,-74.5"/>
<text text-anchor="middle" x="780.5" y="-61" font-family="Helvetica,sans-Serif" font-size="10.00">TBGSubtraction.h</text>
</a>
</g>
</g>
<!-- Node1&#45;&gt;Node10 -->
<g id="edge9_Node000001_Node000010" class="edge">
<title>Node1&#45;&gt;Node10</title>
<g id="a_edge9_Node000001_Node000010"><a xlink:title=" ">
<path fill="none" stroke="#63b8ff" d="M660.93,-106.43C689.51,-96.74 728.2,-83.61 753.74,-74.95"/>
<polygon fill="#63b8ff" stroke="#63b8ff" points="659.91,-103.08 651.57,-109.61 662.16,-109.71 659.91,-103.08"/>
</a>
</g>
</g>
<!-- Node11 -->
<g id="Node000011" class="node">
<title>Node11</title>
<g id="a_Node000011"><a xlink:href="_t_calibrate_descant_8h.html" target="_top" xlink:title=" ">
<polygon fill="white" stroke="#666666" points="949.38,-74.5 845.62,-74.5 845.62,-55.25 949.38,-55.25 949.38,-74.5"/>
<text text-anchor="middle" x="897.5" y="-61" font-family="Helvetica,sans-Serif" font-size="10.00">TCalibrateDescant.h</text>
</a>
</g>
</g>
<!-- Node1&#45;&gt;Node11 -->
<g id="edge11_Node000001_Node000011" class="edge">
<title>Node1&#45;&gt;Node11</title>
<g id="a_edge11_Node000001_Node000011"><a xlink:title=" ">
<path fill="none" stroke="#63b8ff" d="M666.84,-110.7C716.97,-100.96 799.21,-84.98 850.75,-74.96"/>
<polygon fill="#63b8ff" stroke="#63b8ff" points="666.37,-107.23 657.22,-112.57 667.71,-114.1 666.37,-107.23"/>
</a>
</g>
</g>
<!-- Node13 -->
<g id="Node000013" class="node">
<title>Node13</title>
<g id="a_Node000013"><a xlink:href="_t_calibrator_8cxx.html" target="_top" xlink:title=" ">
<polygon fill="white" stroke="#666666" points="1047.38,-74.5 967.62,-74.5 967.62,-55.25 1047.38,-55.25 1047.38,-74.5"/>
<text text-anchor="middle" x="1007.5" y="-61" font-family="Helvetica,sans-Serif" font-size="10.00">TCalibrator.cxx</text>
</a>
</g>
</g>
<!-- Node1&#45;&gt;Node13 -->
<g id="edge13_Node000001_Node000013" class="edge">
<title>Node1&#45;&gt;Node13</title>
<g id="a_edge13_Node000001_Node000013"><a xlink:title=" ">
<path fill="none" stroke="#63b8ff" d="M667.15,-113.9C731.17,-106.11 854.24,-90.61 958.5,-74.5 961.32,-74.06 964.22,-73.6 967.15,-73.12"/>
<polygon fill="#63b8ff" stroke="#63b8ff" points="666.91,-110.4 657.41,-115.08 667.75,-117.35 666.91,-110.4"/>
</a>
</g>
</g>
<!-- Node14 -->
<g id="Node000014" class="node">
<title>Node14</title>
<g id="a_Node000014"><a xlink:href="_t_decay_8cxx.html" target="_top" xlink:title=" ">
<polygon fill="white" stroke="#666666" points="1131.25,-74.5 1065.75,-74.5 1065.75,-55.25 1131.25,-55.25 1131.25,-74.5"/>
<text text-anchor="middle" x="1098.5" y="-61" font-family="Helvetica,sans-Serif" font-size="10.00">TDecay.cxx</text>
</a>
</g>
</g>
<!-- Node1&#45;&gt;Node14 -->
<g id="edge14_Node000001_Node000014" class="edge">
<title>Node1&#45;&gt;Node14</title>
<g id="a_edge14_Node000001_Node000014"><a xlink:title=" ">
<path fill="none" stroke="#63b8ff" d="M667.3,-116.07C745.66,-110.27 914.94,-96.27 1056.5,-74.5 1059.44,-74.05 1062.49,-73.53 1065.54,-72.97"/>
<polygon fill="#63b8ff" stroke="#63b8ff" points="667.19,-112.56 657.47,-116.78 667.7,-119.54 667.19,-112.56"/>
</a>
</g>
</g>
<!-- Node15 -->
<g id="Node000015" class="node">
<title>Node15</title>
<g id="a_Node000015"><a xlink:href="_t_g_r_s_iint_8cxx.html" target="_top" xlink:title=" ">
<polygon fill="white" stroke="#666666" points="1222,-74.5 1149,-74.5 1149,-55.25 1222,-55.25 1222,-74.5"/>
<text text-anchor="middle" x="1185.5" y="-61" font-family="Helvetica,sans-Serif" font-size="10.00">TGRSIint.cxx</text>
</a>
</g>
</g>
<!-- Node1&#45;&gt;Node15 -->
<g id="edge15_Node000001_Node000015" class="edge">
<title>Node1&#45;&gt;Node15</title>
<g id="a_edge15_Node000001_Node000015"><a xlink:title=" ">
<path fill="none" stroke="#63b8ff" d="M667.28,-116.88C756.59,-111.95 966.06,-98.68 1140.5,-74.5 1143.18,-74.13 1145.94,-73.7 1148.71,-73.25"/>
<polygon fill="#63b8ff" stroke="#63b8ff" points="667.3,-113.37 657.51,-117.41 667.68,-120.36 667.3,-113.37"/>
</a>
</g>
</g>
<!-- Node10&#45;&gt;Node9 -->
<g id="edge10_Node000010_Node000009" class="edge">
<title>Node10&#45;&gt;Node9</title>
<g id="a_edge10_Node000010_Node000009"><a xlink:title=" ">
<path fill="none" stroke="#63b8ff" d="M766.58,-46.22C759.54,-37.31 751.31,-26.87 745.59,-19.61"/>
<polygon fill="#63b8ff" stroke="#63b8ff" points="763.69,-48.21 772.63,-53.89 769.18,-43.87 763.69,-48.21"/>
</a>
</g>
</g>
<!-- Node12 -->
<g id="Node000012" class="node">
<title>Node12</title>
<g id="a_Node000012"><a xlink:href="_t_calibrate_descant_8cxx.html" target="_top" xlink:title=" ">
<polygon fill="white" stroke="#666666" points="953.88,-19.25 841.12,-19.25 841.12,0 953.88,0 953.88,-19.25"/>
<text text-anchor="middle" x="897.5" y="-5.75" font-family="Helvetica,sans-Serif" font-size="10.00">TCalibrateDescant.cxx</text>
</a>
</g>
</g>
<!-- Node11&#45;&gt;Node12 -->
<g id="edge12_Node000011_Node000012" class="edge">
<title>Node11&#45;&gt;Node12</title>
<g id="a_edge12_Node000011_Node000012"><a xlink:title=" ">
<path fill="none" stroke="#63b8ff" d="M897.5,-43.63C897.5,-35.34 897.5,-26.17 897.5,-19.61"/>
<polygon fill="#63b8ff" stroke="#63b8ff" points="894,-43.57 897.5,-53.57 901,-43.57 894,-43.57"/>
</a>
</g>
</g>
</g>
</svg>
