<?xml version="1.0" encoding="UTF-8" standalone="no"?>
<!DOCTYPE svg PUBLIC "-//W3C//DTD SVG 1.1//EN"
 "http://www.w3.org/Graphics/SVG/1.1/DTD/svg11.dtd">
<!-- Generated by graphviz version 9.0.0 (20230911.1827)
 -->
<!-- Title: GGaus.cxx Pages: 1 -->
<svg width="1868pt" height="248pt"
 viewBox="0.00 0.00 1868.38 248.25" xmlns="http://www.w3.org/2000/svg" xmlns:xlink="http://www.w3.org/1999/xlink">
<g id="graph0" class="graph" transform="scale(1 1) rotate(0) translate(4 244.25)">
<title>GGaus.cxx</title>
<!-- Node1 -->
<g id="Node000001" class="node">
<title>Node1</title>
<g id="a_Node000001"><a xlink:title=" ">
<polygon fill="#999999" stroke="#666666" points="615,-240.25 551.75,-240.25 551.75,-221 615,-221 615,-240.25"/>
<text text-anchor="middle" x="583.38" y="-226.75" font-family="Helvetica,sans-Serif" font-size="10.00">GGaus.cxx</text>
</a>
</g>
</g>
<!-- Node2 -->
<g id="Node000002" class="node">
<title>Node2</title>
<g id="a_Node000002"><a xlink:href="_g_gaus_8h.html" target="_top" xlink:title=" ">
<polygon fill="white" stroke="#666666" points="146.5,-185 92.25,-185 92.25,-165.75 146.5,-165.75 146.5,-185"/>
<text text-anchor="middle" x="119.38" y="-171.5" font-family="Helvetica,sans-Serif" font-size="10.00">GGaus.h</text>
</a>
</g>
</g>
<!-- Node1&#45;&gt;Node2 -->
<g id="edge1_Node000001_Node000002" class="edge">
<title>Node1&#45;&gt;Node2</title>
<g id="a_edge1_Node000001_Node000002"><a xlink:title=" ">
<path fill="none" stroke="#63b8ff" d="M551.48,-225.96C468.79,-216.48 247.69,-191.1 157.99,-180.81"/>
<polygon fill="#63b8ff" stroke="#63b8ff" points="158.56,-177.35 148.23,-179.69 157.77,-184.3 158.56,-177.35"/>
</a>
</g>
</g>
<!-- Node6 -->
<g id="Node000006" class="node">
<title>Node6</title>
<g id="a_Node000006"><a xlink:title=" ">
<polygon fill="#e0e0e0" stroke="#999999" points="387.25,-185 331.5,-185 331.5,-165.75 387.25,-165.75 387.25,-185"/>
<text text-anchor="middle" x="359.38" y="-171.5" font-family="Helvetica,sans-Serif" font-size="10.00">TGraph.h</text>
</a>
</g>
</g>
<!-- Node1&#45;&gt;Node6 -->
<g id="edge5_Node000001_Node000006" class="edge">
<title>Node1&#45;&gt;Node6</title>
<g id="a_edge5_Node000001_Node000006"><a xlink:title=" ">
<path fill="none" stroke="#63b8ff" d="M551.28,-222C510.97,-212.41 441.84,-195.98 398.48,-185.67"/>
<polygon fill="#63b8ff" stroke="#63b8ff" points="399.53,-182.32 388.99,-183.41 397.91,-189.13 399.53,-182.32"/>
</a>
</g>
</g>
<!-- Node7 -->
<g id="Node000007" class="node">
<title>Node7</title>
<g id="a_Node000007"><a xlink:title=" ">
<polygon fill="#e0e0e0" stroke="#999999" points="485.25,-185 405.5,-185 405.5,-165.75 485.25,-165.75 485.25,-185"/>
<text text-anchor="middle" x="445.38" y="-171.5" font-family="Helvetica,sans-Serif" font-size="10.00">TVirtualFitter.h</text>
</a>
</g>
</g>
<!-- Node1&#45;&gt;Node7 -->
<g id="edge6_Node000001_Node000007" class="edge">
<title>Node1&#45;&gt;Node7</title>
<g id="a_edge6_Node000001_Node000007"><a xlink:title=" ">
<path fill="none" stroke="#63b8ff" d="M559.97,-220.59C537.86,-212.06 504.46,-199.17 479.41,-189.51"/>
<polygon fill="#63b8ff" stroke="#63b8ff" points="480.9,-186.33 470.31,-186 478.38,-192.86 480.9,-186.33"/>
</a>
</g>
</g>
<!-- Node8 -->
<g id="Node000008" class="node">
<title>Node8</title>
<g id="a_Node000008"><a xlink:title=" ">
<polygon fill="#e0e0e0" stroke="#999999" points="571.62,-185 503.12,-185 503.12,-165.75 571.62,-165.75 571.62,-185"/>
<text text-anchor="middle" x="537.38" y="-171.5" font-family="Helvetica,sans-Serif" font-size="10.00">TFitResult.h</text>
</a>
</g>
</g>
<!-- Node1&#45;&gt;Node8 -->
<g id="edge7_Node000001_Node000008" class="edge">
<title>Node1&#45;&gt;Node8</title>
<g id="a_edge7_Node000001_Node000008"><a xlink:title=" ">
<path fill="none" stroke="#63b8ff" d="M575.78,-220.83C569.49,-213.55 560.36,-202.98 552.58,-193.98"/>
<polygon fill="#63b8ff" stroke="#63b8ff" points="555.31,-191.78 546.13,-186.5 550.01,-196.36 555.31,-191.78"/>
</a>
</g>
</g>
<!-- Node9 -->
<g id="Node000009" class="node">
<title>Node9</title>
<g id="a_Node000009"><a xlink:title=" ">
<polygon fill="#e0e0e0" stroke="#999999" points="671,-185 589.75,-185 589.75,-165.75 671,-165.75 671,-185"/>
<text text-anchor="middle" x="630.38" y="-171.5" font-family="Helvetica,sans-Serif" font-size="10.00">TFitResultPtr.h</text>
</a>
</g>
</g>
<!-- Node1&#45;&gt;Node9 -->
<g id="edge8_Node000001_Node000009" class="edge">
<title>Node1&#45;&gt;Node9</title>
<g id="a_edge8_Node000001_Node000009"><a xlink:title=" ">
<path fill="none" stroke="#63b8ff" d="M591.14,-220.83C597.56,-213.55 606.89,-202.98 614.84,-193.98"/>
<polygon fill="#63b8ff" stroke="#63b8ff" points="617.45,-196.31 621.44,-186.49 612.2,-191.68 617.45,-196.31"/>
</a>
</g>
</g>
<!-- Node10 -->
<g id="Node000010" class="node">
<title>Node10</title>
<g id="a_Node000010"><a xlink:href="_globals_8h.html" target="_top" xlink:title=" ">
<polygon fill="white" stroke="#666666" points="745.62,-185 689.12,-185 689.12,-165.75 745.62,-165.75 745.62,-185"/>
<text text-anchor="middle" x="717.38" y="-171.5" font-family="Helvetica,sans-Serif" font-size="10.00">Globals.h</text>
</a>
</g>
</g>
<!-- Node1&#45;&gt;Node10 -->
<g id="edge9_Node000001_Node000010" class="edge">
<title>Node1&#45;&gt;Node10</title>
<g id="a_edge9_Node000001_Node000010"><a xlink:title=" ">
<path fill="none" stroke="#63b8ff" d="M606.11,-220.59C627.47,-212.1 659.72,-199.29 684,-189.64"/>
<polygon fill="#63b8ff" stroke="#63b8ff" points="685.13,-192.96 693.13,-186.01 682.54,-186.45 685.13,-192.96"/>
</a>
</g>
</g>
<!-- Node28 -->
<g id="Node000028" class="node">
<title>Node28</title>
<g id="a_Node000028"><a xlink:href="_g_root_functions_8h.html" target="_top" xlink:title=" ">
<polygon fill="white" stroke="#666666" points="1110.38,-185 1016.38,-185 1016.38,-165.75 1110.38,-165.75 1110.38,-185"/>
<text text-anchor="middle" x="1063.38" y="-171.5" font-family="Helvetica,sans-Serif" font-size="10.00">GRootFunctions.h</text>
</a>
</g>
</g>
<!-- Node1&#45;&gt;Node28 -->
<g id="edge28_Node000001_Node000028" class="edge">
<title>Node1&#45;&gt;Node28</title>
<g id="a_edge28_Node000001_Node000028"><a xlink:title=" ">
<path fill="none" stroke="#63b8ff" d="M615.24,-226.09C694.68,-217.28 902.44,-194.23 1004.74,-182.88"/>
<polygon fill="#63b8ff" stroke="#63b8ff" points="1005.03,-186.37 1014.58,-181.79 1004.25,-179.41 1005.03,-186.37"/>
</a>
</g>
</g>
<!-- Node30 -->
<g id="Node000030" class="node">
<title>Node30</title>
<g id="a_Node000030"><a xlink:href="_g_canvas_8h.html" target="_top" xlink:title=" ">
<polygon fill="white" stroke="#666666" points="1608.38,-185 1544.38,-185 1544.38,-165.75 1608.38,-165.75 1608.38,-185"/>
<text text-anchor="middle" x="1576.38" y="-171.5" font-family="Helvetica,sans-Serif" font-size="10.00">GCanvas.h</text>
</a>
</g>
</g>
<!-- Node1&#45;&gt;Node30 -->
<g id="edge30_Node000001_Node000030" class="edge">
<title>Node1&#45;&gt;Node30</title>
<g id="a_edge30_Node000001_Node000030"><a xlink:title=" ">
<path fill="none" stroke="#63b8ff" d="M615.29,-227.91C761.17,-220.09 1364.65,-187.73 1532.74,-178.71"/>
<polygon fill="#63b8ff" stroke="#63b8ff" points="1532.77,-182.22 1542.57,-178.19 1532.4,-175.23 1532.77,-182.22"/>
</a>
</g>
</g>
<!-- Node3 -->
<g id="Node000003" class="node">
<title>Node3</title>
<g id="a_Node000003"><a xlink:title=" ">
<polygon fill="#e0e0e0" stroke="#999999" points="40.75,-129.75 0,-129.75 0,-110.5 40.75,-110.5 40.75,-129.75"/>
<text text-anchor="middle" x="20.38" y="-116.25" font-family="Helvetica,sans-Serif" font-size="10.00">TF1.h</text>
</a>
</g>
</g>
<!-- Node2&#45;&gt;Node3 -->
<g id="edge2_Node000002_Node000003" class="edge">
<title>Node2&#45;&gt;Node3</title>
<g id="a_edge2_Node000002_Node000003"><a xlink:title=" ">
<path fill="none" stroke="#63b8ff" d="M102.58,-165.34C87.36,-157.16 64.68,-144.96 46.99,-135.44"/>
<polygon fill="#63b8ff" stroke="#63b8ff" points="49.05,-132.57 38.58,-130.92 45.73,-138.74 49.05,-132.57"/>
</a>
</g>
</g>
<!-- Node4 -->
<g id="Node000004" class="node">
<title>Node4</title>
<g id="a_Node000004"><a xlink:title=" ">
<polygon fill="#e0e0e0" stroke="#999999" points="172.38,-129.75 132.38,-129.75 132.38,-110.5 172.38,-110.5 172.38,-129.75"/>
<text text-anchor="middle" x="152.38" y="-116.25" font-family="Helvetica,sans-Serif" font-size="10.00">string</text>
</a>
</g>
</g>
<!-- Node2&#45;&gt;Node4 -->
<g id="edge3_Node000002_Node000004" class="edge">
<title>Node2&#45;&gt;Node4</title>
<g id="a_edge3_Node000002_Node000004"><a xlink:title=" ">
<path fill="none" stroke="#63b8ff" d="M124.82,-165.58C129.15,-158.61 135.34,-148.62 140.76,-139.87"/>
<polygon fill="#63b8ff" stroke="#63b8ff" points="143.72,-141.74 146.01,-131.4 137.77,-138.05 143.72,-141.74"/>
</a>
</g>
</g>
<!-- Node5 -->
<g id="Node000005" class="node">
<title>Node5</title>
<g id="a_Node000005"><a xlink:title=" ">
<polygon fill="#e0e0e0" stroke="#999999" points="114.25,-129.75 58.5,-129.75 58.5,-110.5 114.25,-110.5 114.25,-129.75"/>
<text text-anchor="middle" x="86.38" y="-116.25" font-family="Helvetica,sans-Serif" font-size="10.00">algorithm</text>
</a>
</g>
</g>
<!-- Node2&#45;&gt;Node5 -->
<g id="edge4_Node000002_Node000005" class="edge">
<title>Node2&#45;&gt;Node5</title>
<g id="a_edge4_Node000002_Node000005"><a xlink:title=" ">
<path fill="none" stroke="#63b8ff" d="M113.93,-165.58C109.6,-158.61 103.41,-148.62 97.99,-139.87"/>
<polygon fill="#63b8ff" stroke="#63b8ff" points="100.98,-138.05 92.74,-131.4 95.03,-141.74 100.98,-138.05"/>
</a>
</g>
</g>
<!-- Node10&#45;&gt;Node4 -->
<g id="edge14_Node000010_Node000004" class="edge">
<title>Node10&#45;&gt;Node4</title>
<g id="a_edge14_Node000010_Node000004"><a xlink:title=" ">
<path fill="none" stroke="#63b8ff" d="M688.78,-167.24C685.95,-166.68 683.11,-166.17 680.38,-165.75 464.18,-132.96 402.16,-168.46 184.02,-129.83"/>
<polygon fill="#63b8ff" stroke="#63b8ff" points="184.79,-126.41 174.33,-128.08 183.54,-133.3 184.79,-126.41"/>
</a>
</g>
</g>
<!-- Node11 -->
<g id="Node000011" class="node">
<title>Node11</title>
<g id="a_Node000011"><a xlink:title=" ">
<polygon fill="#e0e0e0" stroke="#999999" points="689,-129.75 643.75,-129.75 643.75,-110.5 689,-110.5 689,-129.75"/>
<text text-anchor="middle" x="666.38" y="-116.25" font-family="Helvetica,sans-Serif" font-size="10.00">cstdint</text>
</a>
</g>
</g>
<!-- Node10&#45;&gt;Node11 -->
<g id="edge10_Node000010_Node000011" class="edge">
<title>Node10&#45;&gt;Node11</title>
<g id="a_edge10_Node000010_Node000011"><a xlink:title=" ">
<path fill="none" stroke="#63b8ff" d="M708.95,-165.58C701.84,-158.15 691.43,-147.29 682.69,-138.16"/>
<polygon fill="#63b8ff" stroke="#63b8ff" points="685.47,-136 676.03,-131.2 680.42,-140.85 685.47,-136"/>
</a>
</g>
</g>
<!-- Node12 -->
<g id="Node000012" class="node">
<title>Node12</title>
<g id="a_Node000012"><a xlink:title=" ">
<polygon fill="#e0e0e0" stroke="#999999" points="762.12,-19.25 708.62,-19.25 708.62,0 762.12,0 762.12,-19.25"/>
<text text-anchor="middle" x="735.38" y="-5.75" font-family="Helvetica,sans-Serif" font-size="10.00">iostream</text>
</a>
</g>
</g>
<!-- Node10&#45;&gt;Node12 -->
<g id="edge11_Node000010_Node000012" class="edge">
<title>Node10&#45;&gt;Node12</title>
<g id="a_edge11_Node000010_Node000012"><a xlink:title=" ">
<path fill="none" stroke="#63b8ff" d="M688.76,-167.35C685.94,-166.76 683.11,-166.22 680.38,-165.75 607.88,-153.38 400.47,-184.51 351.38,-129.75 252.48,-19.45 581.5,-10.16 696.88,-10.21"/>
<polygon fill="#63b8ff" stroke="#63b8ff" points="696.77,-13.71 706.78,-10.24 696.8,-6.71 696.77,-13.71"/>
</a>
</g>
</g>
<!-- Node13 -->
<g id="Node000013" class="node">
<title>Node13</title>
<g id="a_Node000013"><a xlink:title=" ">
<polygon fill="#e0e0e0" stroke="#999999" points="795.25,-129.75 745.5,-129.75 745.5,-110.5 795.25,-110.5 795.25,-129.75"/>
<text text-anchor="middle" x="770.38" y="-116.25" font-family="Helvetica,sans-Serif" font-size="10.00">iomanip</text>
</a>
</g>
</g>
<!-- Node10&#45;&gt;Node13 -->
<g id="edge12_Node000010_Node000013" class="edge">
<title>Node10&#45;&gt;Node13</title>
<g id="a_edge12_Node000010_Node000013"><a xlink:title=" ">
<path fill="none" stroke="#63b8ff" d="M726.13,-165.58C733.52,-158.15 744.34,-147.29 753.42,-138.16"/>
<polygon fill="#63b8ff" stroke="#63b8ff" points="755.79,-140.74 760.37,-131.18 750.83,-135.8 755.79,-140.74"/>
</a>
</g>
</g>
<!-- Node14 -->
<g id="Node000014" class="node">
<title>Node14</title>
<g id="a_Node000014"><a xlink:title=" ">
<polygon fill="#e0e0e0" stroke="#999999" points="871.38,-129.75 813.38,-129.75 813.38,-110.5 871.38,-110.5 871.38,-129.75"/>
<text text-anchor="middle" x="842.38" y="-116.25" font-family="Helvetica,sans-Serif" font-size="10.00">stdexcept</text>
</a>
</g>
</g>
<!-- Node10&#45;&gt;Node14 -->
<g id="edge13_Node000010_Node000014" class="edge">
<title>Node10&#45;&gt;Node14</title>
<g id="a_edge13_Node000010_Node000014"><a xlink:title=" ">
<path fill="none" stroke="#63b8ff" d="M738.58,-165.34C758.33,-156.93 788.05,-144.27 810.63,-134.65"/>
<polygon fill="#63b8ff" stroke="#63b8ff" points="811.85,-137.93 819.67,-130.8 809.1,-131.49 811.85,-137.93"/>
</a>
</g>
</g>
<!-- Node15 -->
<g id="Node000015" class="node">
<title>Node15</title>
<g id="a_Node000015"><a xlink:title=" ">
<polygon fill="#e0e0e0" stroke="#999999" points="1206.5,-19.25 1164.25,-19.25 1164.25,0 1206.5,0 1206.5,-19.25"/>
<text text-anchor="middle" x="1185.38" y="-5.75" font-family="Helvetica,sans-Serif" font-size="10.00">cstdio</text>
</a>
</g>
</g>
<!-- Node10&#45;&gt;Node15 -->
<g id="edge15_Node000010_Node000015" class="edge">
<title>Node10&#45;&gt;Node15</title>
<g id="a_edge15_Node000010_Node000015"><a xlink:title=" ">
<path fill="none" stroke="#63b8ff" d="M717.34,-165.5C717.8,-151.66 720.8,-125.02 736.38,-110.5 797.65,-53.38 1060.06,-22.8 1152.77,-13.63"/>
<polygon fill="#63b8ff" stroke="#63b8ff" points="1152.83,-17.14 1162.45,-12.69 1152.16,-10.17 1152.83,-17.14"/>
</a>
</g>
</g>
<!-- Node16 -->
<g id="Node000016" class="node">
<title>Node16</title>
<g id="a_Node000016"><a xlink:title=" ">
<polygon fill="#e0e0e0" stroke="#999999" points="933.62,-129.75 889.12,-129.75 889.12,-110.5 933.62,-110.5 933.62,-129.75"/>
<text text-anchor="middle" x="911.38" y="-116.25" font-family="Helvetica,sans-Serif" font-size="10.00">cstdlib</text>
</a>
</g>
</g>
<!-- Node10&#45;&gt;Node16 -->
<g id="edge16_Node000010_Node000016" class="edge">
<title>Node10&#45;&gt;Node16</title>
<g id="a_edge16_Node000010_Node000016"><a xlink:title=" ">
<path fill="none" stroke="#63b8ff" d="M745.95,-166.59C776.34,-158.3 826.11,-144.71 877.67,-130.49"/>
<polygon fill="#63b8ff" stroke="#63b8ff" points="878.52,-133.88 887.23,-127.85 876.66,-127.14 878.52,-133.88"/>
</a>
</g>
</g>
<!-- Node17 -->
<g id="Node000017" class="node">
<title>Node17</title>
<g id="a_Node000017"><a xlink:title=" ">
<polygon fill="#e0e0e0" stroke="#999999" points="1011.12,-129.75 951.62,-129.75 951.62,-110.5 1011.12,-110.5 1011.12,-129.75"/>
<text text-anchor="middle" x="981.38" y="-116.25" font-family="Helvetica,sans-Serif" font-size="10.00">execinfo.h</text>
</a>
</g>
</g>
<!-- Node10&#45;&gt;Node17 -->
<g id="edge17_Node000010_Node000017" class="edge">
<title>Node10&#45;&gt;Node17</title>
<g id="a_edge17_Node000010_Node000017"><a xlink:title=" ">
<path fill="none" stroke="#63b8ff" d="M745.83,-168.94C786.56,-161.11 864.11,-146.04 939.98,-130.22"/>
<polygon fill="#63b8ff" stroke="#63b8ff" points="940.6,-133.66 949.67,-128.19 939.17,-126.81 940.6,-133.66"/>
</a>
</g>
</g>
<!-- Node18 -->
<g id="Node000018" class="node">
<title>Node18</title>
<g id="a_Node000018"><a xlink:title=" ">
<polygon fill="#e0e0e0" stroke="#999999" points="1079.62,-129.75 1029.12,-129.75 1029.12,-110.5 1079.62,-110.5 1079.62,-129.75"/>
<text text-anchor="middle" x="1054.38" y="-116.25" font-family="Helvetica,sans-Serif" font-size="10.00">cxxabi.h</text>
</a>
</g>
</g>
<!-- Node10&#45;&gt;Node18 -->
<g id="edge18_Node000010_Node000018" class="edge">
<title>Node10&#45;&gt;Node18</title>
<g id="a_edge18_Node000010_Node000018"><a xlink:title=" ">
<path fill="none" stroke="#63b8ff" d="M745.95,-171.16C798.04,-165.07 912.12,-150.79 1017.65,-130.12"/>
<polygon fill="#63b8ff" stroke="#63b8ff" points="1018.21,-133.58 1027.33,-128.2 1016.84,-126.72 1018.21,-133.58"/>
</a>
</g>
</g>
<!-- Node19 -->
<g id="Node000019" class="node">
<title>Node19</title>
<g id="a_Node000019"><a xlink:title=" ">
<polygon fill="#e0e0e0" stroke="#999999" points="1149,-129.75 1097.75,-129.75 1097.75,-110.5 1149,-110.5 1149,-129.75"/>
<text text-anchor="middle" x="1123.38" y="-116.25" font-family="Helvetica,sans-Serif" font-size="10.00">sstream</text>
</a>
</g>
</g>
<!-- Node10&#45;&gt;Node19 -->
<g id="edge19_Node000010_Node000019" class="edge">
<title>Node10&#45;&gt;Node19</title>
<g id="a_edge19_Node000010_Node000019"><a xlink:title=" ">
<path fill="none" stroke="#63b8ff" d="M745.94,-172.13C806.7,-167.12 953.38,-153.65 1086.28,-129.91"/>
<polygon fill="#63b8ff" stroke="#63b8ff" points="1086.75,-133.38 1095.97,-128.16 1085.5,-126.5 1086.75,-133.38"/>
</a>
</g>
</g>
<!-- Node20 -->
<g id="Node000020" class="node">
<title>Node20</title>
<g id="a_Node000020"><a xlink:title=" ">
<polygon fill="#e0e0e0" stroke="#999999" points="1203.88,-129.75 1166.88,-129.75 1166.88,-110.5 1203.88,-110.5 1203.88,-129.75"/>
<text text-anchor="middle" x="1185.38" y="-116.25" font-family="Helvetica,sans-Serif" font-size="10.00">array</text>
</a>
</g>
</g>
<!-- Node10&#45;&gt;Node20 -->
<g id="edge20_Node000010_Node000020" class="edge">
<title>Node10&#45;&gt;Node20</title>
<g id="a_edge20_Node000010_Node000020"><a xlink:title=" ">
<path fill="none" stroke="#63b8ff" d="M746.06,-173.54C815.23,-171.08 996.66,-162.05 1155.7,-129.92"/>
<polygon fill="#63b8ff" stroke="#63b8ff" points="1156.06,-133.42 1165.14,-127.97 1154.64,-126.56 1156.06,-133.42"/>
</a>
</g>
</g>
<!-- Node21 -->
<g id="Node000021" class="node">
<title>Node21</title>
<g id="a_Node000021"><a xlink:title=" ">
<polygon fill="#e0e0e0" stroke="#999999" points="1272.62,-129.75 1222.12,-129.75 1222.12,-110.5 1272.62,-110.5 1272.62,-129.75"/>
<text text-anchor="middle" x="1247.38" y="-116.25" font-family="Helvetica,sans-Serif" font-size="10.00">memory</text>
</a>
</g>
</g>
<!-- Node10&#45;&gt;Node21 -->
<g id="edge21_Node000010_Node000021" class="edge">
<title>Node10&#45;&gt;Node21</title>
<g id="a_edge21_Node000010_Node000021"><a xlink:title=" ">
<path fill="none" stroke="#63b8ff" d="M746.1,-173.38C821.05,-170.46 1028.84,-160.22 1210.73,-129.94"/>
<polygon fill="#63b8ff" stroke="#63b8ff" points="1211.08,-133.43 1220.36,-128.32 1209.91,-126.53 1211.08,-133.43"/>
</a>
</g>
</g>
<!-- Node22 -->
<g id="Node000022" class="node">
<title>Node22</title>
<g id="a_Node000022"><a xlink:title=" ">
<polygon fill="#e0e0e0" stroke="#999999" points="240.25,-129.75 190.5,-129.75 190.5,-110.5 240.25,-110.5 240.25,-129.75"/>
<text text-anchor="middle" x="215.38" y="-116.25" font-family="Helvetica,sans-Serif" font-size="10.00">unistd.h</text>
</a>
</g>
</g>
<!-- Node10&#45;&gt;Node22 -->
<g id="edge22_Node000010_Node000022" class="edge">
<title>Node10&#45;&gt;Node22</title>
<g id="a_edge22_Node000010_Node000022"><a xlink:title=" ">
<path fill="none" stroke="#63b8ff" d="M688.77,-167.27C685.95,-166.7 683.11,-166.18 680.38,-165.75 494.11,-136.42 440.97,-160.53 251.71,-129.85"/>
<polygon fill="#63b8ff" stroke="#63b8ff" points="252.46,-126.42 242.02,-128.25 251.32,-133.33 252.46,-126.42"/>
</a>
</g>
</g>
<!-- Node23 -->
<g id="Node000023" class="node">
<title>Node23</title>
<g id="a_Node000023"><a xlink:title=" ">
<polygon fill="#e0e0e0" stroke="#999999" points="304.38,-129.75 258.38,-129.75 258.38,-110.5 304.38,-110.5 304.38,-129.75"/>
<text text-anchor="middle" x="281.38" y="-116.25" font-family="Helvetica,sans-Serif" font-size="10.00">TEnv.h</text>
</a>
</g>
</g>
<!-- Node10&#45;&gt;Node23 -->
<g id="edge23_Node000010_Node000023" class="edge">
<title>Node10&#45;&gt;Node23</title>
<g id="a_edge23_Node000010_Node000023"><a xlink:title=" ">
<path fill="none" stroke="#63b8ff" d="M688.77,-167.32C685.94,-166.74 683.11,-166.2 680.38,-165.75 520.86,-139.34 477.89,-156.16 318.38,-129.75 317.55,-129.61 316.71,-129.47 315.86,-129.32"/>
<polygon fill="#63b8ff" stroke="#63b8ff" points="316.75,-125.93 306.25,-127.36 315.36,-132.78 316.75,-125.93"/>
</a>
</g>
</g>
<!-- Node24 -->
<g id="Node000024" class="node">
<title>Node24</title>
<g id="a_Node000024"><a xlink:title=" ">
<polygon fill="#e0e0e0" stroke="#999999" points="404.62,-129.75 360.12,-129.75 360.12,-110.5 404.62,-110.5 404.62,-129.75"/>
<text text-anchor="middle" x="382.38" y="-116.25" font-family="Helvetica,sans-Serif" font-size="10.00">stdio.h</text>
</a>
</g>
</g>
<!-- Node10&#45;&gt;Node24 -->
<g id="edge24_Node000010_Node000024" class="edge">
<title>Node10&#45;&gt;Node24</title>
<g id="a_edge24_Node000010_Node000024"><a xlink:title=" ">
<path fill="none" stroke="#63b8ff" d="M688.75,-167.42C685.93,-166.82 683.1,-166.25 680.38,-165.75 566.59,-144.84 533.32,-152.8 416.23,-129.85"/>
<polygon fill="#63b8ff" stroke="#63b8ff" points="416.99,-126.44 406.5,-127.91 415.62,-133.3 416.99,-126.44"/>
</a>
</g>
</g>
<!-- Node25 -->
<g id="Node000025" class="node">
<title>Node25</title>
<g id="a_Node000025"><a xlink:title=" ">
<polygon fill="#e0e0e0" stroke="#999999" points="469.75,-129.75 423,-129.75 423,-110.5 469.75,-110.5 469.75,-129.75"/>
<text text-anchor="middle" x="446.38" y="-116.25" font-family="Helvetica,sans-Serif" font-size="10.00">stdlib.h</text>
</a>
</g>
</g>
<!-- Node10&#45;&gt;Node25 -->
<g id="edge25_Node000010_Node000025" class="edge">
<title>Node10&#45;&gt;Node25</title>
<g id="a_edge25_Node000010_Node000025"><a xlink:title=" ">
<path fill="none" stroke="#63b8ff" d="M688.72,-167.54C685.91,-166.91 683.09,-166.31 680.38,-165.75 594.54,-148.11 569.32,-149.49 481.16,-130.22"/>
<polygon fill="#63b8ff" stroke="#63b8ff" points="482.08,-126.84 471.56,-128.09 480.57,-133.67 482.08,-126.84"/>
</a>
</g>
</g>
<!-- Node26 -->
<g id="Node000026" class="node">
<title>Node26</title>
<g id="a_Node000026"><a xlink:title=" ">
<polygon fill="#e0e0e0" stroke="#999999" points="547.12,-129.75 487.62,-129.75 487.62,-110.5 547.12,-110.5 547.12,-129.75"/>
<text text-anchor="middle" x="517.38" y="-116.25" font-family="Helvetica,sans-Serif" font-size="10.00">sys/wait.h</text>
</a>
</g>
</g>
<!-- Node10&#45;&gt;Node26 -->
<g id="edge26_Node000010_Node000026" class="edge">
<title>Node10&#45;&gt;Node26</title>
<g id="a_edge26_Node000010_Node000026"><a xlink:title=" ">
<path fill="none" stroke="#63b8ff" d="M688.72,-166.75C654.61,-157.66 597.38,-142.43 558.54,-132.08"/>
<polygon fill="#63b8ff" stroke="#63b8ff" points="559.64,-128.76 549.08,-129.57 557.84,-135.52 559.64,-128.76"/>
</a>
</g>
</g>
<!-- Node27 -->
<g id="Node000027" class="node">
<title>Node27</title>
<g id="a_Node000027"><a xlink:title=" ">
<polygon fill="#e0e0e0" stroke="#999999" points="625.5,-129.75 565.25,-129.75 565.25,-110.5 625.5,-110.5 625.5,-129.75"/>
<text text-anchor="middle" x="595.38" y="-116.25" font-family="Helvetica,sans-Serif" font-size="10.00">sys/prctl.h</text>
</a>
</g>
</g>
<!-- Node10&#45;&gt;Node27 -->
<g id="edge27_Node000010_Node000027" class="edge">
<title>Node10&#45;&gt;Node27</title>
<g id="a_edge27_Node000010_Node000027"><a xlink:title=" ">
<path fill="none" stroke="#63b8ff" d="M696.68,-165.34C677.49,-156.97 648.66,-144.38 626.66,-134.78"/>
<polygon fill="#63b8ff" stroke="#63b8ff" points="628.12,-131.6 617.56,-130.81 625.32,-138.02 628.12,-131.6"/>
</a>
</g>
</g>
<!-- Node29 -->
<g id="Node000029" class="node">
<title>Node29</title>
<g id="a_Node000029"><a xlink:title=" ">
<polygon fill="#e0e0e0" stroke="#999999" points="1342,-129.75 1290.75,-129.75 1290.75,-110.5 1342,-110.5 1342,-129.75"/>
<text text-anchor="middle" x="1316.38" y="-116.25" font-family="Helvetica,sans-Serif" font-size="10.00">TMath.h</text>
</a>
</g>
</g>
<!-- Node28&#45;&gt;Node29 -->
<g id="edge29_Node000028_Node000029" class="edge">
<title>Node28&#45;&gt;Node29</title>
<g id="a_edge29_Node000028_Node000029"><a xlink:title=" ">
<path fill="none" stroke="#63b8ff" d="M1110.69,-165.25C1152.51,-157.06 1215.42,-144.44 1279.31,-130.14"/>
<polygon fill="#63b8ff" stroke="#63b8ff" points="1279.94,-133.59 1288.93,-127.98 1278.41,-126.76 1279.94,-133.59"/>
</a>
</g>
</g>
<!-- Node31 -->
<g id="Node000031" class="node">
<title>Node31</title>
<g id="a_Node000031"><a xlink:title=" ">
<polygon fill="#e0e0e0" stroke="#999999" points="1482,-129.75 1424.75,-129.75 1424.75,-110.5 1482,-110.5 1482,-129.75"/>
<text text-anchor="middle" x="1453.38" y="-116.25" font-family="Helvetica,sans-Serif" font-size="10.00">TROOT.h</text>
</a>
</g>
</g>
<!-- Node30&#45;&gt;Node31 -->
<g id="edge31_Node000030_Node000031" class="edge">
<title>Node30&#45;&gt;Node31</title>
<g id="a_edge31_Node000030_Node000031"><a xlink:title=" ">
<path fill="none" stroke="#63b8ff" d="M1555.51,-165.34C1536.07,-156.93 1506.83,-144.27 1484.61,-134.65"/>
<polygon fill="#63b8ff" stroke="#63b8ff" points="1486.3,-131.56 1475.73,-130.8 1483.52,-137.99 1486.3,-131.56"/>
</a>
</g>
</g>
<!-- Node32 -->
<g id="Node000032" class="node">
<title>Node32</title>
<g id="a_Node000032"><a xlink:title=" ">
<polygon fill="#e0e0e0" stroke="#999999" points="1562.62,-129.75 1500.12,-129.75 1500.12,-110.5 1562.62,-110.5 1562.62,-129.75"/>
<text text-anchor="middle" x="1531.38" y="-116.25" font-family="Helvetica,sans-Serif" font-size="10.00">TCanvas.h</text>
</a>
</g>
</g>
<!-- Node30&#45;&gt;Node32 -->
<g id="edge32_Node000030_Node000032" class="edge">
<title>Node30&#45;&gt;Node32</title>
<g id="a_edge32_Node000030_Node000032"><a xlink:title=" ">
<path fill="none" stroke="#63b8ff" d="M1568.94,-165.58C1562.79,-158.3 1553.86,-147.73 1546.25,-138.73"/>
<polygon fill="#63b8ff" stroke="#63b8ff" points="1549.07,-136.64 1539.94,-131.27 1543.73,-141.16 1549.07,-136.64"/>
</a>
</g>
</g>
<!-- Node33 -->
<g id="Node000033" class="node">
<title>Node33</title>
<g id="a_Node000033"><a xlink:title=" ">
<polygon fill="#e0e0e0" stroke="#999999" points="1663.75,-129.75 1581,-129.75 1581,-110.5 1663.75,-110.5 1663.75,-129.75"/>
<text text-anchor="middle" x="1622.38" y="-116.25" font-family="Helvetica,sans-Serif" font-size="10.00">TRootCanvas.h</text>
</a>
</g>
</g>
<!-- Node30&#45;&gt;Node33 -->
<g id="edge33_Node000030_Node000033" class="edge">
<title>Node30&#45;&gt;Node33</title>
<g id="a_edge33_Node000030_Node000033"><a xlink:title=" ">
<path fill="none" stroke="#63b8ff" d="M1583.97,-165.58C1590.26,-158.3 1599.39,-147.73 1607.17,-138.73"/>
<polygon fill="#63b8ff" stroke="#63b8ff" points="1609.74,-141.11 1613.62,-131.25 1604.44,-136.53 1609.74,-141.11"/>
</a>
</g>
</g>
<!-- Node34 -->
<g id="Node000034" class="node">
<title>Node34</title>
<g id="a_Node000034"><a xlink:title=" ">
<polygon fill="#e0e0e0" stroke="#999999" points="1724.5,-129.75 1682.25,-129.75 1682.25,-110.5 1724.5,-110.5 1724.5,-129.75"/>
<text text-anchor="middle" x="1703.38" y="-116.25" font-family="Helvetica,sans-Serif" font-size="10.00">TH1.h</text>
</a>
</g>
</g>
<!-- Node30&#45;&gt;Node34 -->
<g id="edge34_Node000030_Node000034" class="edge">
<title>Node30&#45;&gt;Node34</title>
<g id="a_edge34_Node000030_Node000034"><a xlink:title=" ">
<path fill="none" stroke="#63b8ff" d="M1597.92,-165.34C1618.11,-156.88 1648.55,-144.11 1671.54,-134.47"/>
<polygon fill="#63b8ff" stroke="#63b8ff" points="1672.88,-137.7 1680.75,-130.61 1670.18,-131.25 1672.88,-137.7"/>
</a>
</g>
</g>
<!-- Node35 -->
<g id="Node000035" class="node">
<title>Node35</title>
<g id="a_Node000035"><a xlink:title=" ">
<polygon fill="#e0e0e0" stroke="#999999" points="1790.5,-129.75 1742.25,-129.75 1742.25,-110.5 1790.5,-110.5 1790.5,-129.75"/>
<text text-anchor="middle" x="1766.38" y="-116.25" font-family="Helvetica,sans-Serif" font-size="10.00">TLine.h</text>
</a>
</g>
</g>
<!-- Node30&#45;&gt;Node35 -->
<g id="edge35_Node000030_Node000035" class="edge">
<title>Node30&#45;&gt;Node35</title>
<g id="a_edge35_Node000030_Node000035"><a xlink:title=" ">
<path fill="none" stroke="#63b8ff" d="M1608.61,-165.34C1642.62,-155.81 1696.05,-140.83 1731.15,-131"/>
<polygon fill="#63b8ff" stroke="#63b8ff" points="1731.72,-134.47 1740.4,-128.4 1729.83,-127.73 1731.72,-134.47"/>
</a>
</g>
</g>
<!-- Node36 -->
<g id="Node000036" class="node">
<title>Node36</title>
<g id="a_Node000036"><a xlink:title=" ">
<polygon fill="#e0e0e0" stroke="#999999" points="1860.38,-129.75 1808.38,-129.75 1808.38,-110.5 1860.38,-110.5 1860.38,-129.75"/>
<text text-anchor="middle" x="1834.38" y="-116.25" font-family="Helvetica,sans-Serif" font-size="10.00">TCutG.h</text>
</a>
</g>
</g>
<!-- Node30&#45;&gt;Node36 -->
<g id="edge36_Node000030_Node000036" class="edge">
<title>Node30&#45;&gt;Node36</title>
<g id="a_edge36_Node000030_Node000036"><a xlink:title=" ">
<path fill="none" stroke="#63b8ff" d="M1608.6,-168.39C1649.92,-160.61 1724.05,-146.33 1796.84,-130.24"/>
<polygon fill="#63b8ff" stroke="#63b8ff" points="1797.55,-133.67 1806.55,-128.08 1796.03,-126.83 1797.55,-133.67"/>
</a>
</g>
</g>
<!-- Node37 -->
<g id="Node000037" class="node">
<title>Node37</title>
<g id="a_Node000037"><a xlink:href="_g_h2_i_8h.html" target="_top" xlink:title=" ">
<polygon fill="white" stroke="#666666" points="1406.75,-129.75 1360,-129.75 1360,-110.5 1406.75,-110.5 1406.75,-129.75"/>
<text text-anchor="middle" x="1383.38" y="-116.25" font-family="Helvetica,sans-Serif" font-size="10.00">GH2I.h</text>
</a>
</g>
</g>
<!-- Node30&#45;&gt;Node37 -->
<g id="edge37_Node000030_Node000037" class="edge">
<title>Node30&#45;&gt;Node37</title>
<g id="a_edge37_Node000030_Node000037"><a xlink:title=" ">
<path fill="none" stroke="#63b8ff" d="M1544.07,-165.46C1509.21,-155.84 1453.9,-140.58 1418.12,-130.71"/>
<polygon fill="#63b8ff" stroke="#63b8ff" points="1419.27,-127.4 1408.7,-128.11 1417.41,-134.15 1419.27,-127.4"/>
</a>
</g>
</g>
<!-- Node37&#45;&gt;Node15 -->
<g id="edge38_Node000037_Node000015" class="edge">
<title>Node37&#45;&gt;Node15</title>
<g id="a_edge38_Node000037_Node000015"><a xlink:title=" ">
<path fill="none" stroke="#63b8ff" d="M1359.69,-112.17C1322.9,-101.26 1255.21,-80.73 1245.38,-74.5 1226.16,-62.33 1208.93,-42.59 1197.91,-28.27"/>
<polygon fill="#63b8ff" stroke="#63b8ff" points="1201,-26.56 1192.23,-20.6 1195.37,-30.72 1201,-26.56"/>
</a>
</g>
</g>
<!-- Node38 -->
<g id="Node000038" class="node">
<title>Node38</title>
<g id="a_Node000038"><a xlink:title=" ">
<polygon fill="#e0e0e0" stroke="#999999" points="1259.75,-19.25 1225,-19.25 1225,0 1259.75,0 1259.75,-19.25"/>
<text text-anchor="middle" x="1242.38" y="-5.75" font-family="Helvetica,sans-Serif" font-size="10.00">map</text>
</a>
</g>
</g>
<!-- Node37&#45;&gt;Node38 -->
<g id="edge39_Node000037_Node000038" class="edge">
<title>Node37&#45;&gt;Node38</title>
<g id="a_edge39_Node000037_Node000038"><a xlink:title=" ">
<path fill="none" stroke="#63b8ff" d="M1359.62,-111.7C1326.14,-101.06 1268.35,-81.91 1261.38,-74.5 1250.33,-62.76 1245.68,-44.87 1243.74,-31.01"/>
<polygon fill="#63b8ff" stroke="#63b8ff" points="1247.23,-30.81 1242.75,-21.21 1240.27,-31.51 1247.23,-30.81"/>
</a>
</g>
</g>
<!-- Node39 -->
<g id="Node000039" class="node">
<title>Node39</title>
<g id="a_Node000039"><a xlink:title=" ">
<polygon fill="#e0e0e0" stroke="#999999" points="1338.88,-19.25 1277.88,-19.25 1277.88,0 1338.88,0 1338.88,-19.25"/>
<text text-anchor="middle" x="1308.38" y="-5.75" font-family="Helvetica,sans-Serif" font-size="10.00">TNamed.h</text>
</a>
</g>
</g>
<!-- Node37&#45;&gt;Node39 -->
<g id="edge40_Node000037_Node000039" class="edge">
<title>Node37&#45;&gt;Node39</title>
<g id="a_edge40_Node000037_Node000039"><a xlink:title=" ">
<path fill="none" stroke="#63b8ff" d="M1378.63,-110.18C1371.82,-97.57 1358.62,-74.02 1345.38,-55.25 1338.79,-45.91 1330.76,-36.08 1323.87,-28.02"/>
<polygon fill="#63b8ff" stroke="#63b8ff" points="1326.67,-25.9 1317.45,-20.67 1321.39,-30.5 1326.67,-25.9"/>
</a>
</g>
</g>
<!-- Node40 -->
<g id="Node000040" class="node">
<title>Node40</title>
<g id="a_Node000040"><a xlink:title=" ">
<polygon fill="#e0e0e0" stroke="#999999" points="1399.5,-19.25 1357.25,-19.25 1357.25,0 1399.5,0 1399.5,-19.25"/>
<text text-anchor="middle" x="1378.38" y="-5.75" font-family="Helvetica,sans-Serif" font-size="10.00">TH2.h</text>
</a>
</g>
</g>
<!-- Node37&#45;&gt;Node40 -->
<g id="edge41_Node000037_Node000040" class="edge">
<title>Node37&#45;&gt;Node40</title>
<g id="a_edge41_Node000037_Node000040"><a xlink:title=" ">
<path fill="none" stroke="#63b8ff" d="M1382.97,-110.25C1382.17,-93 1380.4,-54.58 1379.31,-30.81"/>
<polygon fill="#63b8ff" stroke="#63b8ff" points="1382.82,-30.97 1378.86,-21.14 1375.82,-31.29 1382.82,-30.97"/>
</a>
</g>
</g>
<!-- Node41 -->
<g id="Node000041" class="node">
<title>Node41</title>
<g id="a_Node000041"><a xlink:title=" ">
<polygon fill="#e0e0e0" stroke="#999999" points="1463.38,-19.25 1417.38,-19.25 1417.38,0 1463.38,0 1463.38,-19.25"/>
<text text-anchor="middle" x="1440.38" y="-5.75" font-family="Helvetica,sans-Serif" font-size="10.00">TList.h</text>
</a>
</g>
</g>
<!-- Node37&#45;&gt;Node41 -->
<g id="edge42_Node000037_Node000041" class="edge">
<title>Node37&#45;&gt;Node41</title>
<g id="a_edge42_Node000037_Node000041"><a xlink:title=" ">
<path fill="none" stroke="#63b8ff" d="M1388.04,-110.25C1397.27,-92.68 1418.03,-53.16 1430.45,-29.52"/>
<polygon fill="#63b8ff" stroke="#63b8ff" points="1433.39,-31.45 1434.94,-20.97 1427.19,-28.19 1433.39,-31.45"/>
</a>
</g>
</g>
<!-- Node42 -->
<g id="Node000042" class="node">
<title>Node42</title>
<g id="a_Node000042"><a xlink:title=" ">
<polygon fill="#e0e0e0" stroke="#999999" points="1542.62,-74.5 1468.12,-74.5 1468.12,-55.25 1542.62,-55.25 1542.62,-74.5"/>
<text text-anchor="middle" x="1505.38" y="-61" font-family="Helvetica,sans-Serif" font-size="10.00">TVirtualPad.h</text>
</a>
</g>
</g>
<!-- Node37&#45;&gt;Node42 -->
<g id="edge43_Node000037_Node000042" class="edge">
<title>Node37&#45;&gt;Node42</title>
<g id="a_edge43_Node000037_Node000042"><a xlink:title=" ">
<path fill="none" stroke="#63b8ff" d="M1404.07,-110.09C1423.26,-101.72 1452.09,-89.13 1474.09,-79.53"/>
<polygon fill="#63b8ff" stroke="#63b8ff" points="1475.43,-82.77 1483.19,-75.56 1472.63,-76.35 1475.43,-82.77"/>
</a>
</g>
</g>
<!-- Node43 -->
<g id="Node000043" class="node">
<title>Node43</title>
<g id="a_Node000043"><a xlink:title=" ">
<polygon fill="#e0e0e0" stroke="#999999" points="1176,-74.5 1118.75,-74.5 1118.75,-55.25 1176,-55.25 1176,-74.5"/>
<text text-anchor="middle" x="1147.38" y="-61" font-family="Helvetica,sans-Serif" font-size="10.00">TFrame.h</text>
</a>
</g>
</g>
<!-- Node37&#45;&gt;Node43 -->
<g id="edge44_Node000037_Node000043" class="edge">
<title>Node37&#45;&gt;Node43</title>
<g id="a_edge44_Node000037_Node000043"><a xlink:title=" ">
<path fill="none" stroke="#63b8ff" d="M1359.64,-112.59C1356.86,-111.87 1354.06,-111.15 1351.38,-110.5 1294.67,-96.67 1228.61,-82.58 1187.39,-74.04"/>
<polygon fill="#63b8ff" stroke="#63b8ff" points="1188.17,-70.63 1177.67,-72.03 1186.76,-77.48 1188.17,-70.63"/>
</a>
</g>
</g>
<!-- Node44 -->
<g id="Node000044" class="node">
<title>Node44</title>
<g id="a_Node000044"><a xlink:href="_g_h2_base_8h.html" target="_top" xlink:title=" ">
<polygon fill="white" stroke="#666666" points="1336.5,-74.5 1270.25,-74.5 1270.25,-55.25 1336.5,-55.25 1336.5,-74.5"/>
<text text-anchor="middle" x="1303.38" y="-61" font-family="Helvetica,sans-Serif" font-size="10.00">GH2Base.h</text>
</a>
</g>
</g>
<!-- Node37&#45;&gt;Node44 -->
<g id="edge45_Node000037_Node000044" class="edge">
<title>Node37&#45;&gt;Node44</title>
<g id="a_edge45_Node000037_Node000044"><a xlink:title=" ">
<path fill="none" stroke="#63b8ff" d="M1369.8,-110.09C1357.97,-102.21 1340.54,-90.61 1326.5,-81.27"/>
<polygon fill="#63b8ff" stroke="#63b8ff" points="1328.54,-78.42 1318.27,-75.79 1324.66,-84.25 1328.54,-78.42"/>
</a>
</g>
</g>
<!-- Node44&#45;&gt;Node12 -->
<g id="edge47_Node000044_Node000012" class="edge">
<title>Node44&#45;&gt;Node12</title>
<g id="a_edge47_Node000044_Node000012"><a xlink:title=" ">
<path fill="none" stroke="#63b8ff" d="M1269.96,-60.74C1170.93,-51.46 879.32,-24.12 773.93,-14.24"/>
<polygon fill="#63b8ff" stroke="#63b8ff" points="774.39,-10.77 764.11,-13.32 773.74,-17.74 774.39,-10.77"/>
</a>
</g>
</g>
<!-- Node44&#45;&gt;Node15 -->
<g id="edge46_Node000044_Node000015" class="edge">
<title>Node44&#45;&gt;Node15</title>
<g id="a_edge46_Node000044_Node000015"><a xlink:title=" ">
<path fill="none" stroke="#63b8ff" d="M1283.36,-54.84C1264.88,-46.5 1237.17,-34 1215.93,-24.41"/>
<polygon fill="#63b8ff" stroke="#63b8ff" points="1217.42,-21.25 1206.87,-20.33 1214.55,-27.63 1217.42,-21.25"/>
</a>
</g>
</g>
<!-- Node44&#45;&gt;Node38 -->
<g id="edge48_Node000044_Node000038" class="edge">
<title>Node44&#45;&gt;Node38</title>
<g id="a_edge48_Node000044_Node000038"><a xlink:title=" ">
<path fill="none" stroke="#63b8ff" d="M1293.03,-54.84C1284.3,-47.22 1271.59,-36.12 1261.08,-26.95"/>
<polygon fill="#63b8ff" stroke="#63b8ff" points="1263.55,-24.46 1253.71,-20.52 1258.94,-29.73 1263.55,-24.46"/>
</a>
</g>
</g>
<!-- Node44&#45;&gt;Node39 -->
<g id="edge49_Node000044_Node000039" class="edge">
<title>Node44&#45;&gt;Node39</title>
<g id="a_edge49_Node000044_Node000039"><a xlink:title=" ">
<path fill="none" stroke="#63b8ff" d="M1304.2,-55.08C1304.82,-48.49 1305.69,-39.21 1306.48,-30.82"/>
<polygon fill="#63b8ff" stroke="#63b8ff" points="1309.94,-31.4 1307.39,-21.12 1302.97,-30.75 1309.94,-31.4"/>
</a>
</g>
</g>
<!-- Node44&#45;&gt;Node40 -->
<g id="edge50_Node000044_Node000040" class="edge">
<title>Node44&#45;&gt;Node40</title>
<g id="a_edge50_Node000044_Node000040"><a xlink:title=" ">
<path fill="none" stroke="#63b8ff" d="M1316.1,-54.84C1327.09,-47.04 1343.22,-35.59 1356.31,-26.29"/>
<polygon fill="#63b8ff" stroke="#63b8ff" points="1358.23,-29.22 1364.36,-20.58 1354.18,-23.51 1358.23,-29.22"/>
</a>
</g>
</g>
<!-- Node44&#45;&gt;Node41 -->
<g id="edge51_Node000044_Node000041" class="edge">
<title>Node44&#45;&gt;Node41</title>
<g id="a_edge51_Node000044_Node000041"><a xlink:title=" ">
<path fill="none" stroke="#63b8ff" d="M1326.62,-54.84C1348.56,-46.31 1381.72,-33.42 1406.59,-23.76"/>
<polygon fill="#63b8ff" stroke="#63b8ff" points="1407.56,-27.14 1415.61,-20.25 1405.02,-20.61 1407.56,-27.14"/>
</a>
</g>
</g>
</g>
</svg>
