<?xml version="1.0" encoding="UTF-8" standalone="no"?>
<!DOCTYPE svg PUBLIC "-//W3C//DTD SVG 1.1//EN"
 "http://www.w3.org/Graphics/SVG/1.1/DTD/svg11.dtd">
<!-- Generated by graphviz version 12.2.0 (20241103.1931)
 -->
<!-- Title: GGaus.cxx Pages: 1 -->
<!--zoomable 193 -->

<svg id="main" version="1.1" xmlns="http://www.w3.org/2000/svg" xmlns:xlink="http://www.w3.org/1999/xlink" xml:space="preserve" onload="init(evt)">

<style type="text/css"><![CDATA[
.node, .edge {opacity: 0.7;}
.node.selected, .edge.selected {opacity: 1;}
.edge:hover path { stroke: red; }
.edge:hover polygon { stroke: red; fill: red; }
]]></style>

<defs>
  <circle id="rim" cx="0" cy="0" r="7"/>
  <circle id="rim2" cx="0" cy="0" r="3.5"/>
  <g id="zoomPlus">
    <use xlink:href="#rim" fill="#404040"><set attributeName="fill" to="#808080" begin="zoomplus.mouseover" end="zoomplus.mouseout"/></use>
    <path d="M-4,0h8M0,-4v8" fill="none" stroke="white" stroke-width="1.5" pointer-events="none"/>
  </g>
  <g id="zoomMin">
    <use xlink:href="#rim" fill="#404040"><set attributeName="fill" to="#808080" begin="zoomminus.mouseover" end="zoomminus.mouseout"/></use>
    <path d="M-4,0h8" fill="none" stroke="white" stroke-width="1.5" pointer-events="none"/>
  </g>
  <g id="arrowUp" transform="translate(30 24)">
    <use xlink:href="#rim"/>
    <path pointer-events="none" fill="none" stroke="white" stroke-width="1.5" d="M0,-3.0v7 M-2.5,-0.5L0,-3.0L2.5,-0.5"/>
  </g>
  <g id="arrowRight" transform="rotate(90) translate(36 -43)">
    <use xlink:href="#rim"/>
    <path pointer-events="none" fill="none" stroke="white" stroke-width="1.5" d="M0,-3.0v7 M-2.5,-0.5L0,-3.0L2.5,-0.5"/>
  </g>
  <g id="arrowDown" transform="rotate(180) translate(-30 -48)">
    <use xlink:href="#rim"/>
    <path pointer-events="none" fill="none" stroke="white" stroke-width="1.5" d="M0,-3.0v7 M-2.5,-0.5L0,-3.0L2.5,-0.5"/>
  </g>
  <g id="arrowLeft" transform="rotate(270) translate(-36 17)">
    <use xlink:href="#rim"/>
    <path pointer-events="none" fill="none" stroke="white" stroke-width="1.5" d="M0,-3.0v7 M-2.5,-0.5L0,-3.0L2.5,-0.5"/>
  </g>
  <g id="resetDef">
    <use xlink:href="#rim2" fill="#404040"><set attributeName="fill" to="#808080" begin="reset.mouseover" end="reset.mouseout"/></use>
  </g>
</defs>
<script type="application/ecmascript">
var viewWidth = 1879;
var viewHeight = 193;
var sectionId = 'dynsection-0';
</script>
<script type="application/ecmascript" xlink:href="svg.min.js"/>
<svg id="graph" class="graph">
<g id="viewport">
<title>GGaus.cxx</title>
<!-- Node1 -->
<g id="Node000001" class="node">
<title>Node1</title>
<g id="a_Node000001"><a xlink:title=" ">
<polygon fill="#999999" stroke="#666666" points="355.75,-185 292.5,-185 292.5,-165.75 355.75,-165.75 355.75,-185"/>
<text text-anchor="middle" x="324.12" y="-171.5" font-family="Helvetica,sans-Serif" font-size="10.00">GGaus.cxx</text>
</a>
</g>
</g>
<!-- Node2 -->
<g id="Node000002" class="node">
<title>Node2</title>
<g id="a_Node000002"><a xlink:href="_g_gaus_8h.html" target="_top" xlink:title=" ">
<polygon fill="white" stroke="#666666" points="54.25,-129.75 0,-129.75 0,-110.5 54.25,-110.5 54.25,-129.75"/>
<text text-anchor="middle" x="27.12" y="-116.25" font-family="Helvetica,sans-Serif" font-size="10.00">GGaus.h</text>
</a>
</g>
</g>
<!-- Node1&#45;&gt;Node2 -->
<g id="edge1_Node000001_Node000002" class="edge">
<title>Node1&#45;&gt;Node2</title>
<g id="a_edge1_Node000001_Node000002"><a xlink:title=" ">
<path fill="none" stroke="#63b8ff" d="M292.26,-169.62C244.98,-162.41 153.24,-147.86 65.79,-130.19"/>
<polygon fill="#63b8ff" stroke="#63b8ff" points="66.58,-126.78 56.08,-128.21 65.18,-133.64 66.58,-126.78"/>
</a>
</g>
</g>
<!-- Node4 -->
<g id="Node000004" class="node">
<title>Node4</title>
<g id="a_Node000004"><a xlink:title=" ">
<polygon fill="#e0e0e0" stroke="#999999" points="128,-129.75 72.25,-129.75 72.25,-110.5 128,-110.5 128,-129.75"/>
<text text-anchor="middle" x="100.12" y="-116.25" font-family="Helvetica,sans-Serif" font-size="10.00">TGraph.h</text>
</a>
</g>
</g>
<!-- Node1&#45;&gt;Node4 -->
<g id="edge3_Node000001_Node000004" class="edge">
<title>Node1&#45;&gt;Node4</title>
<g id="a_edge3_Node000001_Node000004"><a xlink:title=" ">
<path fill="none" stroke="#63b8ff" d="M292.03,-166.75C251.72,-157.16 182.59,-140.73 139.23,-130.42"/>
<polygon fill="#63b8ff" stroke="#63b8ff" points="140.28,-127.07 129.74,-128.16 138.66,-133.88 140.28,-127.07"/>
</a>
</g>
</g>
<!-- Node5 -->
<g id="Node000005" class="node">
<title>Node5</title>
<g id="a_Node000005"><a xlink:title=" ">
<polygon fill="#e0e0e0" stroke="#999999" points="226,-129.75 146.25,-129.75 146.25,-110.5 226,-110.5 226,-129.75"/>
<text text-anchor="middle" x="186.12" y="-116.25" font-family="Helvetica,sans-Serif" font-size="10.00">TVirtualFitter.h</text>
</a>
</g>
</g>
<!-- Node1&#45;&gt;Node5 -->
<g id="edge4_Node000001_Node000005" class="edge">
<title>Node1&#45;&gt;Node5</title>
<g id="a_edge4_Node000001_Node000005"><a xlink:title=" ">
<path fill="none" stroke="#63b8ff" d="M300.72,-165.34C278.61,-156.81 245.21,-143.92 220.16,-134.26"/>
<polygon fill="#63b8ff" stroke="#63b8ff" points="221.65,-131.08 211.06,-130.75 219.13,-137.61 221.65,-131.08"/>
</a>
</g>
</g>
<!-- Node6 -->
<g id="Node000006" class="node">
<title>Node6</title>
<g id="a_Node000006"><a xlink:title=" ">
<polygon fill="#e0e0e0" stroke="#999999" points="312.38,-129.75 243.88,-129.75 243.88,-110.5 312.38,-110.5 312.38,-129.75"/>
<text text-anchor="middle" x="278.12" y="-116.25" font-family="Helvetica,sans-Serif" font-size="10.00">TFitResult.h</text>
</a>
</g>
</g>
<!-- Node1&#45;&gt;Node6 -->
<g id="edge5_Node000001_Node000006" class="edge">
<title>Node1&#45;&gt;Node6</title>
<g id="a_edge5_Node000001_Node000006"><a xlink:title=" ">
<path fill="none" stroke="#63b8ff" d="M316.53,-165.58C310.24,-158.3 301.11,-147.73 293.33,-138.73"/>
<polygon fill="#63b8ff" stroke="#63b8ff" points="296.06,-136.53 286.88,-131.25 290.76,-141.11 296.06,-136.53"/>
</a>
</g>
</g>
<!-- Node7 -->
<g id="Node000007" class="node">
<title>Node7</title>
<g id="a_Node000007"><a xlink:title=" ">
<polygon fill="#e0e0e0" stroke="#999999" points="411.75,-129.75 330.5,-129.75 330.5,-110.5 411.75,-110.5 411.75,-129.75"/>
<text text-anchor="middle" x="371.12" y="-116.25" font-family="Helvetica,sans-Serif" font-size="10.00">TFitResultPtr.h</text>
</a>
</g>
</g>
<!-- Node1&#45;&gt;Node7 -->
<g id="edge6_Node000001_Node000007" class="edge">
<title>Node1&#45;&gt;Node7</title>
<g id="a_edge6_Node000001_Node000007"><a xlink:title=" ">
<path fill="none" stroke="#63b8ff" d="M331.89,-165.58C338.31,-158.3 347.64,-147.73 355.59,-138.73"/>
<polygon fill="#63b8ff" stroke="#63b8ff" points="358.2,-141.06 362.19,-131.24 352.95,-136.43 358.2,-141.06"/>
</a>
</g>
</g>
<!-- Node8 -->
<g id="Node000008" class="node">
<title>Node8</title>
<g id="a_Node000008"><a xlink:href="_globals_8h.html" target="_top" xlink:title=" ">
<polygon fill="white" stroke="#666666" points="1199.38,-129.75 1142.88,-129.75 1142.88,-110.5 1199.38,-110.5 1199.38,-129.75"/>
<text text-anchor="middle" x="1171.12" y="-116.25" font-family="Helvetica,sans-Serif" font-size="10.00">Globals.h</text>
</a>
</g>
</g>
<!-- Node1&#45;&gt;Node8 -->
<g id="edge7_Node000001_Node000008" class="edge">
<title>Node1&#45;&gt;Node8</title>
<g id="a_edge7_Node000001_Node000008"><a xlink:title=" ">
<path fill="none" stroke="#63b8ff" d="M356.04,-172.37C487.31,-164.12 985.53,-132.79 1131.01,-123.65"/>
<polygon fill="#63b8ff" stroke="#63b8ff" points="1131.16,-127.14 1140.92,-123.02 1130.72,-120.16 1131.16,-127.14"/>
</a>
</g>
</g>
<!-- Node27 -->
<g id="Node000027" class="node">
<title>Node27</title>
<g id="a_Node000027"><a xlink:href="_g_root_functions_8h.html" target="_top" xlink:title=" ">
<polygon fill="white" stroke="#666666" points="1596.12,-129.75 1502.12,-129.75 1502.12,-110.5 1596.12,-110.5 1596.12,-129.75"/>
<text text-anchor="middle" x="1549.12" y="-116.25" font-family="Helvetica,sans-Serif" font-size="10.00">GRootFunctions.h</text>
</a>
</g>
</g>
<!-- Node1&#45;&gt;Node27 -->
<g id="edge26_Node000001_Node000027" class="edge">
<title>Node1&#45;&gt;Node27</title>
<g id="a_edge26_Node000001_Node000027"><a xlink:title=" ">
<path fill="none" stroke="#63b8ff" d="M355.95,-172.99C520.24,-165.85 1273.17,-133.12 1490.34,-123.68"/>
<polygon fill="#63b8ff" stroke="#63b8ff" points="1490.42,-127.18 1500.26,-123.25 1490.12,-120.19 1490.42,-127.18"/>
</a>
</g>
</g>
<!-- Node29 -->
<g id="Node000029" class="node">
<title>Node29</title>
<g id="a_Node000029"><a xlink:href="_g_canvas_8h.html" target="_top" xlink:title=" ">
<polygon fill="white" stroke="#666666" points="494.12,-129.75 430.12,-129.75 430.12,-110.5 494.12,-110.5 494.12,-129.75"/>
<text text-anchor="middle" x="462.12" y="-116.25" font-family="Helvetica,sans-Serif" font-size="10.00">GCanvas.h</text>
</a>
</g>
</g>
<!-- Node1&#45;&gt;Node29 -->
<g id="edge28_Node000001_Node000029" class="edge">
<title>Node1&#45;&gt;Node29</title>
<g id="a_edge28_Node000001_Node000029"><a xlink:title=" ">
<path fill="none" stroke="#63b8ff" d="M347.53,-165.34C369.64,-156.81 403.04,-143.92 428.09,-134.26"/>
<polygon fill="#63b8ff" stroke="#63b8ff" points="429.12,-137.61 437.19,-130.75 426.6,-131.08 429.12,-137.61"/>
</a>
</g>
</g>
<!-- Node3 -->
<g id="Node000003" class="node">
<title>Node3</title>
<g id="a_Node000003"><a xlink:title=" ">
<polygon fill="#e0e0e0" stroke="#999999" points="47.5,-74.5 6.75,-74.5 6.75,-55.25 47.5,-55.25 47.5,-74.5"/>
<text text-anchor="middle" x="27.12" y="-61" font-family="Helvetica,sans-Serif" font-size="10.00">TF1.h</text>
</a>
</g>
</g>
<!-- Node2&#45;&gt;Node3 -->
<g id="edge2_Node000002_Node000003" class="edge">
<title>Node2&#45;&gt;Node3</title>
<g id="a_edge2_Node000002_Node000003"><a xlink:title=" ">
<path fill="none" stroke="#63b8ff" d="M27.12,-110.33C27.12,-103.82 27.12,-94.67 27.12,-86.37"/>
<polygon fill="#63b8ff" stroke="#63b8ff" points="30.63,-86.37 27.13,-76.37 23.63,-86.37 30.63,-86.37"/>
</a>
</g>
</g>
<!-- Node9 -->
<g id="Node000009" class="node">
<title>Node9</title>
<g id="a_Node000009"><a xlink:title=" ">
<polygon fill="#e0e0e0" stroke="#999999" points="683.88,-74.5 630.38,-74.5 630.38,-55.25 683.88,-55.25 683.88,-74.5"/>
<text text-anchor="middle" x="657.12" y="-61" font-family="Helvetica,sans-Serif" font-size="10.00">iostream</text>
</a>
</g>
</g>
<!-- Node8&#45;&gt;Node9 -->
<g id="edge8_Node000008_Node000009" class="edge">
<title>Node8&#45;&gt;Node9</title>
<g id="a_edge8_Node000008_Node000009"><a xlink:title=" ">
<path fill="none" stroke="#63b8ff" d="M1142.59,-117.95C1069.62,-114.63 870.18,-103.58 695.39,-74.84"/>
<polygon fill="#63b8ff" stroke="#63b8ff" points="696.11,-71.41 685.67,-73.21 694.95,-78.31 696.11,-71.41"/>
</a>
</g>
</g>
<!-- Node10 -->
<g id="Node000010" class="node">
<title>Node10</title>
<g id="a_Node000010"><a xlink:title=" ">
<polygon fill="#e0e0e0" stroke="#999999" points="1124,-74.5 1074.25,-74.5 1074.25,-55.25 1124,-55.25 1124,-74.5"/>
<text text-anchor="middle" x="1099.12" y="-61" font-family="Helvetica,sans-Serif" font-size="10.00">iomanip</text>
</a>
</g>
</g>
<!-- Node8&#45;&gt;Node10 -->
<g id="edge9_Node000008_Node000010" class="edge">
<title>Node8&#45;&gt;Node10</title>
<g id="a_edge9_Node000008_Node000010"><a xlink:title=" ">
<path fill="none" stroke="#63b8ff" d="M1158.91,-110.09C1148.3,-102.24 1132.69,-90.7 1120.08,-81.37"/>
<polygon fill="#63b8ff" stroke="#63b8ff" points="1122.5,-78.81 1112.38,-75.67 1118.33,-84.44 1122.5,-78.81"/>
</a>
</g>
</g>
<!-- Node11 -->
<g id="Node000011" class="node">
<title>Node11</title>
<g id="a_Node000011"><a xlink:title=" ">
<polygon fill="#e0e0e0" stroke="#999999" points="1200.12,-74.5 1142.12,-74.5 1142.12,-55.25 1200.12,-55.25 1200.12,-74.5"/>
<text text-anchor="middle" x="1171.12" y="-61" font-family="Helvetica,sans-Serif" font-size="10.00">stdexcept</text>
</a>
</g>
</g>
<!-- Node8&#45;&gt;Node11 -->
<g id="edge10_Node000008_Node000011" class="edge">
<title>Node8&#45;&gt;Node11</title>
<g id="a_edge10_Node000008_Node000011"><a xlink:title=" ">
<path fill="none" stroke="#63b8ff" d="M1171.12,-110.33C1171.12,-103.82 1171.12,-94.67 1171.12,-86.37"/>
<polygon fill="#63b8ff" stroke="#63b8ff" points="1174.63,-86.37 1171.13,-76.37 1167.63,-86.37 1174.63,-86.37"/>
</a>
</g>
</g>
<!-- Node12 -->
<g id="Node000012" class="node">
<title>Node12</title>
<g id="a_Node000012"><a xlink:title=" ">
<polygon fill="#e0e0e0" stroke="#999999" points="1258.12,-74.5 1218.12,-74.5 1218.12,-55.25 1258.12,-55.25 1258.12,-74.5"/>
<text text-anchor="middle" x="1238.12" y="-61" font-family="Helvetica,sans-Serif" font-size="10.00">string</text>
</a>
</g>
</g>
<!-- Node8&#45;&gt;Node12 -->
<g id="edge11_Node000008_Node000012" class="edge">
<title>Node8&#45;&gt;Node12</title>
<g id="a_edge11_Node000008_Node000012"><a xlink:title=" ">
<path fill="none" stroke="#63b8ff" d="M1182.49,-110.09C1192.17,-102.4 1206.32,-91.15 1217.93,-81.93"/>
<polygon fill="#63b8ff" stroke="#63b8ff" points="1220.09,-84.68 1225.74,-75.72 1215.74,-79.2 1220.09,-84.68"/>
</a>
</g>
</g>
<!-- Node13 -->
<g id="Node000013" class="node">
<title>Node13</title>
<g id="a_Node000013"><a xlink:title=" ">
<polygon fill="#e0e0e0" stroke="#999999" points="873.25,-19.25 831,-19.25 831,0 873.25,0 873.25,-19.25"/>
<text text-anchor="middle" x="852.12" y="-5.75" font-family="Helvetica,sans-Serif" font-size="10.00">cstdio</text>
</a>
</g>
</g>
<!-- Node8&#45;&gt;Node13 -->
<g id="edge12_Node000008_Node000013" class="edge">
<title>Node8&#45;&gt;Node13</title>
<g id="a_edge12_Node000008_Node000013"><a xlink:title=" ">
<path fill="none" stroke="#63b8ff" d="M1142.59,-110.97C1114.26,-102.64 1069.76,-88.91 1032.12,-74.5 1012.57,-67.01 1008.66,-62.78 989.12,-55.25 953.84,-41.65 912.45,-28.55 884.48,-20.1"/>
<polygon fill="#63b8ff" stroke="#63b8ff" points="885.76,-16.83 875.18,-17.32 883.76,-23.54 885.76,-16.83"/>
</a>
</g>
</g>
<!-- Node14 -->
<g id="Node000014" class="node">
<title>Node14</title>
<g id="a_Node000014"><a xlink:title=" ">
<polygon fill="#e0e0e0" stroke="#999999" points="1002.75,-19.25 957.5,-19.25 957.5,0 1002.75,0 1002.75,-19.25"/>
<text text-anchor="middle" x="980.12" y="-5.75" font-family="Helvetica,sans-Serif" font-size="10.00">cstdint</text>
</a>
</g>
</g>
<!-- Node8&#45;&gt;Node14 -->
<g id="edge13_Node000008_Node000014" class="edge">
<title>Node8&#45;&gt;Node14</title>
<g id="a_edge13_Node000008_Node000014"><a xlink:title=" ">
<path fill="none" stroke="#63b8ff" d="M1144.57,-110.02C1122.6,-102.01 1090.92,-89.32 1065.12,-74.5 1040.91,-60.59 1015.62,-40.81 998.99,-26.96"/>
<polygon fill="#63b8ff" stroke="#63b8ff" points="1001.33,-24.34 991.43,-20.55 996.8,-29.69 1001.33,-24.34"/>
</a>
</g>
</g>
<!-- Node15 -->
<g id="Node000015" class="node">
<title>Node15</title>
<g id="a_Node000015"><a xlink:title=" ">
<polygon fill="#e0e0e0" stroke="#999999" points="1320.38,-74.5 1275.88,-74.5 1275.88,-55.25 1320.38,-55.25 1320.38,-74.5"/>
<text text-anchor="middle" x="1298.12" y="-61" font-family="Helvetica,sans-Serif" font-size="10.00">cstdlib</text>
</a>
</g>
</g>
<!-- Node8&#45;&gt;Node15 -->
<g id="edge14_Node000008_Node000015" class="edge">
<title>Node8&#45;&gt;Node15</title>
<g id="a_edge14_Node000008_Node000015"><a xlink:title=" ">
<path fill="none" stroke="#63b8ff" d="M1192.67,-110.09C1212.74,-101.68 1242.93,-89.02 1265.87,-79.4"/>
<polygon fill="#63b8ff" stroke="#63b8ff" points="1267.21,-82.63 1275.08,-75.54 1264.5,-76.18 1267.21,-82.63"/>
</a>
</g>
</g>
<!-- Node16 -->
<g id="Node000016" class="node">
<title>Node16</title>
<g id="a_Node000016"><a xlink:title=" ">
<polygon fill="#e0e0e0" stroke="#999999" points="1397.88,-74.5 1338.38,-74.5 1338.38,-55.25 1397.88,-55.25 1397.88,-74.5"/>
<text text-anchor="middle" x="1368.12" y="-61" font-family="Helvetica,sans-Serif" font-size="10.00">execinfo.h</text>
</a>
</g>
</g>
<!-- Node8&#45;&gt;Node16 -->
<g id="edge15_Node000008_Node000016" class="edge">
<title>Node8&#45;&gt;Node16</title>
<g id="a_edge15_Node000008_Node000016"><a xlink:title=" ">
<path fill="none" stroke="#63b8ff" d="M1199.77,-111.38C1233.38,-102.3 1289.33,-87.17 1327.43,-76.87"/>
<polygon fill="#63b8ff" stroke="#63b8ff" points="1327.95,-80.36 1336.69,-74.37 1326.13,-73.6 1327.95,-80.36"/>
</a>
</g>
</g>
<!-- Node17 -->
<g id="Node000017" class="node">
<title>Node17</title>
<g id="a_Node000017"><a xlink:title=" ">
<polygon fill="#e0e0e0" stroke="#999999" points="1466.38,-74.5 1415.88,-74.5 1415.88,-55.25 1466.38,-55.25 1466.38,-74.5"/>
<text text-anchor="middle" x="1441.12" y="-61" font-family="Helvetica,sans-Serif" font-size="10.00">cxxabi.h</text>
</a>
</g>
</g>
<!-- Node8&#45;&gt;Node17 -->
<g id="edge16_Node000008_Node000017" class="edge">
<title>Node8&#45;&gt;Node17</title>
<g id="a_edge16_Node000008_Node000017"><a xlink:title=" ">
<path fill="none" stroke="#63b8ff" d="M1199.58,-114.33C1242.04,-107.04 1324.75,-92.37 1404.34,-75.01"/>
<polygon fill="#63b8ff" stroke="#63b8ff" points="1405.05,-78.44 1414.07,-72.87 1403.55,-71.6 1405.05,-78.44"/>
</a>
</g>
</g>
<!-- Node18 -->
<g id="Node000018" class="node">
<title>Node18</title>
<g id="a_Node000018"><a xlink:title=" ">
<polygon fill="#e0e0e0" stroke="#999999" points="1535.75,-74.5 1484.5,-74.5 1484.5,-55.25 1535.75,-55.25 1535.75,-74.5"/>
<text text-anchor="middle" x="1510.12" y="-61" font-family="Helvetica,sans-Serif" font-size="10.00">sstream</text>
</a>
</g>
</g>
<!-- Node8&#45;&gt;Node18 -->
<g id="edge17_Node000008_Node000018" class="edge">
<title>Node8&#45;&gt;Node18</title>
<g id="a_edge17_Node000008_Node000018"><a xlink:title=" ">
<path fill="none" stroke="#63b8ff" d="M1199.78,-115.85C1252.02,-109.68 1366.44,-95.24 1472.92,-74.76"/>
<polygon fill="#63b8ff" stroke="#63b8ff" points="1473.56,-78.2 1482.71,-72.85 1472.22,-71.33 1473.56,-78.2"/>
</a>
</g>
</g>
<!-- Node19 -->
<g id="Node000019" class="node">
<title>Node19</title>
<g id="a_Node000019"><a xlink:title=" ">
<polygon fill="#e0e0e0" stroke="#999999" points="1590.62,-74.5 1553.62,-74.5 1553.62,-55.25 1590.62,-55.25 1590.62,-74.5"/>
<text text-anchor="middle" x="1572.12" y="-61" font-family="Helvetica,sans-Serif" font-size="10.00">array</text>
</a>
</g>
</g>
<!-- Node8&#45;&gt;Node19 -->
<g id="edge18_Node000008_Node000019" class="edge">
<title>Node8&#45;&gt;Node19</title>
<g id="a_edge18_Node000008_Node000019"><a xlink:title=" ">
<path fill="none" stroke="#63b8ff" d="M1199.58,-117.58C1260.78,-113.87 1409.53,-102.76 1542.22,-74.77"/>
<polygon fill="#63b8ff" stroke="#63b8ff" points="1542.85,-78.22 1551.89,-72.69 1541.37,-71.37 1542.85,-78.22"/>
</a>
</g>
</g>
<!-- Node20 -->
<g id="Node000020" class="node">
<title>Node20</title>
<g id="a_Node000020"><a xlink:title=" ">
<polygon fill="#e0e0e0" stroke="#999999" points="1659.38,-74.5 1608.88,-74.5 1608.88,-55.25 1659.38,-55.25 1659.38,-74.5"/>
<text text-anchor="middle" x="1634.12" y="-61" font-family="Helvetica,sans-Serif" font-size="10.00">memory</text>
</a>
</g>
</g>
<!-- Node8&#45;&gt;Node20 -->
<g id="edge19_Node000008_Node000020" class="edge">
<title>Node8&#45;&gt;Node20</title>
<g id="a_edge19_Node000008_Node000020"><a xlink:title=" ">
<path fill="none" stroke="#63b8ff" d="M1199.69,-117.59C1267.23,-113.65 1442.19,-101.67 1597.45,-74.74"/>
<polygon fill="#63b8ff" stroke="#63b8ff" points="1597.86,-78.22 1607.1,-73.04 1596.65,-71.33 1597.86,-78.22"/>
</a>
</g>
</g>
<!-- Node21 -->
<g id="Node000021" class="node">
<title>Node21</title>
<g id="a_Node000021"><a xlink:title=" ">
<polygon fill="#e0e0e0" stroke="#999999" points="1727,-74.5 1677.25,-74.5 1677.25,-55.25 1727,-55.25 1727,-74.5"/>
<text text-anchor="middle" x="1702.12" y="-61" font-family="Helvetica,sans-Serif" font-size="10.00">unistd.h</text>
</a>
</g>
</g>
<!-- Node8&#45;&gt;Node21 -->
<g id="edge20_Node000008_Node000021" class="edge">
<title>Node8&#45;&gt;Node21</title>
<g id="a_edge20_Node000008_Node000021"><a xlink:title=" ">
<path fill="none" stroke="#63b8ff" d="M1199.63,-118.15C1274.5,-115.26 1482.99,-105.04 1665.8,-74.62"/>
<polygon fill="#63b8ff" stroke="#63b8ff" points="1666.2,-78.1 1675.48,-72.98 1665.03,-71.2 1666.2,-78.1"/>
</a>
</g>
</g>
<!-- Node22 -->
<g id="Node000022" class="node">
<title>Node22</title>
<g id="a_Node000022"><a xlink:title=" ">
<polygon fill="#e0e0e0" stroke="#999999" points="1779.5,-74.5 1744.75,-74.5 1744.75,-55.25 1779.5,-55.25 1779.5,-74.5"/>
<text text-anchor="middle" x="1762.12" y="-61" font-family="Helvetica,sans-Serif" font-size="10.00">map</text>
</a>
</g>
</g>
<!-- Node8&#45;&gt;Node22 -->
<g id="edge21_Node000008_Node000022" class="edge">
<title>Node8&#45;&gt;Node22</title>
<g id="a_edge21_Node000008_Node000022"><a xlink:title=" ">
<path fill="none" stroke="#63b8ff" d="M1199.68,-119.29C1281.68,-119.25 1524.84,-115.59 1733.22,-74.63"/>
<polygon fill="#63b8ff" stroke="#63b8ff" points="1733.77,-78.09 1742.89,-72.69 1732.4,-71.22 1733.77,-78.09"/>
</a>
</g>
</g>
<!-- Node23 -->
<g id="Node000023" class="node">
<title>Node23</title>
<g id="a_Node000023"><a xlink:title=" ">
<polygon fill="#e0e0e0" stroke="#999999" points="750.62,-74.5 701.62,-74.5 701.62,-55.25 750.62,-55.25 750.62,-74.5"/>
<text text-anchor="middle" x="726.12" y="-61" font-family="Helvetica,sans-Serif" font-size="10.00">fstream</text>
</a>
</g>
</g>
<!-- Node8&#45;&gt;Node23 -->
<g id="edge22_Node000008_Node000023" class="edge">
<title>Node8&#45;&gt;Node23</title>
<g id="a_edge22_Node000008_Node000023"><a xlink:title=" ">
<path fill="none" stroke="#63b8ff" d="M1142.44,-117.48C1076.73,-113.41 910.11,-101.32 761.99,-74.79"/>
<polygon fill="#63b8ff" stroke="#63b8ff" points="762.86,-71.39 752.39,-73.04 761.6,-78.28 762.86,-71.39"/>
</a>
</g>
</g>
<!-- Node24 -->
<g id="Node000024" class="node">
<title>Node24</title>
<g id="a_Node000024"><a xlink:title=" ">
<polygon fill="#e0e0e0" stroke="#999999" points="824,-74.5 768.25,-74.5 768.25,-55.25 824,-55.25 824,-74.5"/>
<text text-anchor="middle" x="796.12" y="-61" font-family="Helvetica,sans-Serif" font-size="10.00">algorithm</text>
</a>
</g>
</g>
<!-- Node8&#45;&gt;Node24 -->
<g id="edge23_Node000008_Node000024" class="edge">
<title>Node8&#45;&gt;Node24</title>
<g id="a_edge23_Node000008_Node000024"><a xlink:title=" ">
<path fill="none" stroke="#63b8ff" d="M1142.49,-116.3C1085.82,-110.51 955.2,-96.14 835.52,-74.77"/>
<polygon fill="#63b8ff" stroke="#63b8ff" points="836.3,-71.36 825.84,-73.02 835.05,-78.25 836.3,-71.36"/>
</a>
</g>
</g>
<!-- Node25 -->
<g id="Node000025" class="node">
<title>Node25</title>
<g id="a_Node000025"><a xlink:title=" ">
<polygon fill="#e0e0e0" stroke="#999999" points="901.88,-74.5 842.38,-74.5 842.38,-55.25 901.88,-55.25 901.88,-74.5"/>
<text text-anchor="middle" x="872.12" y="-61" font-family="Helvetica,sans-Serif" font-size="10.00">sys/wait.h</text>
</a>
</g>
</g>
<!-- Node8&#45;&gt;Node25 -->
<g id="edge24_Node000008_Node000025" class="edge">
<title>Node8&#45;&gt;Node25</title>
<g id="a_edge24_Node000008_Node000025"><a xlink:title=" ">
<path fill="none" stroke="#63b8ff" d="M1142.57,-114.68C1096.55,-107.42 1002.84,-92.23 913.48,-74.89"/>
<polygon fill="#63b8ff" stroke="#63b8ff" points="914.3,-71.48 903.81,-72.99 912.96,-78.35 914.3,-71.48"/>
</a>
</g>
</g>
<!-- Node26 -->
<g id="Node000026" class="node">
<title>Node26</title>
<g id="a_Node000026"><a xlink:title=" ">
<polygon fill="#e0e0e0" stroke="#999999" points="980.25,-74.5 920,-74.5 920,-55.25 980.25,-55.25 980.25,-74.5"/>
<text text-anchor="middle" x="950.12" y="-61" font-family="Helvetica,sans-Serif" font-size="10.00">sys/prctl.h</text>
</a>
</g>
</g>
<!-- Node8&#45;&gt;Node26 -->
<g id="edge25_Node000008_Node000026" class="edge">
<title>Node8&#45;&gt;Node26</title>
<g id="a_edge25_Node000008_Node000026"><a xlink:title=" ">
<path fill="none" stroke="#63b8ff" d="M1142.69,-112.27C1104.29,-103.02 1035.62,-86.48 991.51,-75.85"/>
<polygon fill="#63b8ff" stroke="#63b8ff" points="992.59,-72.51 982.05,-73.57 990.95,-79.31 992.59,-72.51"/>
</a>
</g>
</g>
<!-- Node28 -->
<g id="Node000028" class="node">
<title>Node28</title>
<g id="a_Node000028"><a xlink:title=" ">
<polygon fill="#e0e0e0" stroke="#999999" points="1871,-74.5 1797.25,-74.5 1797.25,-55.25 1871,-55.25 1871,-74.5"/>
<text text-anchor="middle" x="1834.12" y="-61" font-family="Helvetica,sans-Serif" font-size="10.00">RtypesCore.h</text>
</a>
</g>
</g>
<!-- Node27&#45;&gt;Node28 -->
<g id="edge27_Node000027_Node000028" class="edge">
<title>Node27&#45;&gt;Node28</title>
<g id="a_edge27_Node000027_Node000028"><a xlink:title=" ">
<path fill="none" stroke="#63b8ff" d="M1596.29,-110.33C1642.14,-101.78 1714.08,-88.35 1785.91,-74.91"/>
<polygon fill="#63b8ff" stroke="#63b8ff" points="1786.29,-78.4 1795.48,-73.12 1785.01,-71.52 1786.29,-78.4"/>
</a>
</g>
</g>
<!-- Node29&#45;&gt;Node9 -->
<g id="edge41_Node000029_Node000009" class="edge">
<title>Node29&#45;&gt;Node9</title>
<g id="a_edge41_Node000029_Node000009"><a xlink:title=" ">
<path fill="none" stroke="#63b8ff" d="M494.33,-110.33C528.64,-100.96 582.92,-86.14 619.26,-76.22"/>
<polygon fill="#63b8ff" stroke="#63b8ff" points="619.73,-79.71 628.45,-73.7 617.89,-72.96 619.73,-79.71"/>
</a>
</g>
</g>
<!-- Node30 -->
<g id="Node000030" class="node">
<title>Node30</title>
<g id="a_Node000030"><a xlink:href="_g_h2_base_8h.html" target="_top" xlink:title=" ">
<polygon fill="white" stroke="#666666" points="612.25,-74.5 546,-74.5 546,-55.25 612.25,-55.25 612.25,-74.5"/>
<text text-anchor="middle" x="579.12" y="-61" font-family="Helvetica,sans-Serif" font-size="10.00">GH2Base.h</text>
</a>
</g>
</g>
<!-- Node29&#45;&gt;Node30 -->
<g id="edge29_Node000029_Node000030" class="edge">
<title>Node29&#45;&gt;Node30</title>
<g id="a_edge29_Node000029_Node000030"><a xlink:title=" ">
<path fill="none" stroke="#63b8ff" d="M481.97,-110.09C500.29,-101.75 527.77,-89.25 548.83,-79.66"/>
<polygon fill="#63b8ff" stroke="#63b8ff" points="550.15,-82.91 557.8,-75.58 547.25,-76.54 550.15,-82.91"/>
</a>
</g>
</g>
<!-- Node34 -->
<g id="Node000034" class="node">
<title>Node34</title>
<g id="a_Node000034"><a xlink:title=" ">
<polygon fill="#e0e0e0" stroke="#999999" points="149.75,-74.5 92.5,-74.5 92.5,-55.25 149.75,-55.25 149.75,-74.5"/>
<text text-anchor="middle" x="121.12" y="-61" font-family="Helvetica,sans-Serif" font-size="10.00">TROOT.h</text>
</a>
</g>
</g>
<!-- Node29&#45;&gt;Node34 -->
<g id="edge35_Node000029_Node000034" class="edge">
<title>Node29&#45;&gt;Node34</title>
<g id="a_edge35_Node000029_Node000034"><a xlink:title=" ">
<path fill="none" stroke="#63b8ff" d="M429.94,-112.13C426.96,-111.55 423.99,-111 421.12,-110.5 308.83,-91 276.7,-95.24 161.18,-74.72"/>
<polygon fill="#63b8ff" stroke="#63b8ff" points="162.07,-71.33 151.61,-73 160.83,-78.22 162.07,-71.33"/>
</a>
</g>
</g>
<!-- Node35 -->
<g id="Node000035" class="node">
<title>Node35</title>
<g id="a_Node000035"><a xlink:title=" ">
<polygon fill="#e0e0e0" stroke="#999999" points="230.38,-74.5 167.88,-74.5 167.88,-55.25 230.38,-55.25 230.38,-74.5"/>
<text text-anchor="middle" x="199.12" y="-61" font-family="Helvetica,sans-Serif" font-size="10.00">TCanvas.h</text>
</a>
</g>
</g>
<!-- Node29&#45;&gt;Node35 -->
<g id="edge36_Node000029_Node000035" class="edge">
<title>Node29&#45;&gt;Node35</title>
<g id="a_edge36_Node000029_Node000035"><a xlink:title=" ">
<path fill="none" stroke="#63b8ff" d="M429.9,-112.31C426.94,-111.69 423.98,-111.08 421.12,-110.5 344.22,-94.76 322.33,-91.23 241.69,-74.8"/>
<polygon fill="#63b8ff" stroke="#63b8ff" points="242.44,-71.38 231.94,-72.81 241.04,-78.24 242.44,-71.38"/>
</a>
</g>
</g>
<!-- Node36 -->
<g id="Node000036" class="node">
<title>Node36</title>
<g id="a_Node000036"><a xlink:title=" ">
<polygon fill="#e0e0e0" stroke="#999999" points="331.5,-74.5 248.75,-74.5 248.75,-55.25 331.5,-55.25 331.5,-74.5"/>
<text text-anchor="middle" x="290.12" y="-61" font-family="Helvetica,sans-Serif" font-size="10.00">TRootCanvas.h</text>
</a>
</g>
</g>
<!-- Node29&#45;&gt;Node36 -->
<g id="edge37_Node000029_Node000036" class="edge">
<title>Node29&#45;&gt;Node36</title>
<g id="a_edge37_Node000029_Node000036"><a xlink:title=" ">
<path fill="none" stroke="#63b8ff" d="M432.95,-110.09C404.65,-101.33 361.51,-87.98 330.04,-78.23"/>
<polygon fill="#63b8ff" stroke="#63b8ff" points="331.48,-75.01 320.89,-75.4 329.41,-81.7 331.48,-75.01"/>
</a>
</g>
</g>
<!-- Node37 -->
<g id="Node000037" class="node">
<title>Node37</title>
<g id="a_Node000037"><a xlink:title=" ">
<polygon fill="#e0e0e0" stroke="#999999" points="392.25,-74.5 350,-74.5 350,-55.25 392.25,-55.25 392.25,-74.5"/>
<text text-anchor="middle" x="371.12" y="-61" font-family="Helvetica,sans-Serif" font-size="10.00">TH1.h</text>
</a>
</g>
</g>
<!-- Node29&#45;&gt;Node37 -->
<g id="edge38_Node000029_Node000037" class="edge">
<title>Node29&#45;&gt;Node37</title>
<g id="a_edge38_Node000029_Node000037"><a xlink:title=" ">
<path fill="none" stroke="#63b8ff" d="M446.69,-110.09C432.96,-102.06 412.63,-90.16 396.51,-80.73"/>
<polygon fill="#63b8ff" stroke="#63b8ff" points="398.34,-77.75 387.94,-75.72 394.81,-83.79 398.34,-77.75"/>
</a>
</g>
</g>
<!-- Node38 -->
<g id="Node000038" class="node">
<title>Node38</title>
<g id="a_Node000038"><a xlink:title=" ">
<polygon fill="#e0e0e0" stroke="#999999" points="458.25,-74.5 410,-74.5 410,-55.25 458.25,-55.25 458.25,-74.5"/>
<text text-anchor="middle" x="434.12" y="-61" font-family="Helvetica,sans-Serif" font-size="10.00">TLine.h</text>
</a>
</g>
</g>
<!-- Node29&#45;&gt;Node38 -->
<g id="edge39_Node000029_Node000038" class="edge">
<title>Node29&#45;&gt;Node38</title>
<g id="a_edge39_Node000029_Node000038"><a xlink:title=" ">
<path fill="none" stroke="#63b8ff" d="M457.5,-110.33C453.88,-103.44 448.7,-93.59 444.13,-84.91"/>
<polygon fill="#63b8ff" stroke="#63b8ff" points="447.31,-83.42 439.55,-76.2 441.11,-86.68 447.31,-83.42"/>
</a>
</g>
</g>
<!-- Node39 -->
<g id="Node000039" class="node">
<title>Node39</title>
<g id="a_Node000039"><a xlink:title=" ">
<polygon fill="#e0e0e0" stroke="#999999" points="528.12,-74.5 476.12,-74.5 476.12,-55.25 528.12,-55.25 528.12,-74.5"/>
<text text-anchor="middle" x="502.12" y="-61" font-family="Helvetica,sans-Serif" font-size="10.00">TCutG.h</text>
</a>
</g>
</g>
<!-- Node29&#45;&gt;Node39 -->
<g id="edge40_Node000029_Node000039" class="edge">
<title>Node29&#45;&gt;Node39</title>
<g id="a_edge40_Node000029_Node000039"><a xlink:title=" ">
<path fill="none" stroke="#63b8ff" d="M468.73,-110.33C474.08,-103.21 481.8,-92.93 488.47,-84.05"/>
<polygon fill="#63b8ff" stroke="#63b8ff" points="491.26,-86.17 494.47,-76.07 485.66,-81.96 491.26,-86.17"/>
</a>
</g>
</g>
<!-- Node30&#45;&gt;Node13 -->
<g id="edge30_Node000030_Node000013" class="edge">
<title>Node30&#45;&gt;Node13</title>
<g id="a_edge30_Node000030_Node000013"><a xlink:title=" ">
<path fill="none" stroke="#63b8ff" d="M612.59,-56.97C615.47,-56.38 618.35,-55.8 621.12,-55.25 691.91,-41.14 775.04,-25.25 819.74,-16.76"/>
<polygon fill="#63b8ff" stroke="#63b8ff" points="820.11,-20.25 829.28,-14.95 818.81,-13.37 820.11,-20.25"/>
</a>
</g>
</g>
<!-- Node30&#45;&gt;Node14 -->
<g id="edge31_Node000030_Node000014" class="edge">
<title>Node30&#45;&gt;Node14</title>
<g id="a_edge31_Node000030_Node000014"><a xlink:title=" ">
<path fill="none" stroke="#63b8ff" d="M612.55,-56.76C615.45,-56.22 618.33,-55.71 621.12,-55.25 739.89,-35.7 882.03,-20.41 945.99,-13.96"/>
<polygon fill="#63b8ff" stroke="#63b8ff" points="946.25,-17.45 955.85,-12.98 945.55,-10.49 946.25,-17.45"/>
</a>
</g>
</g>
<!-- Node31 -->
<g id="Node000031" class="node">
<title>Node31</title>
<g id="a_Node000031"><a xlink:title=" ">
<polygon fill="#e0e0e0" stroke="#999999" points="681.62,-19.25 620.62,-19.25 620.62,0 681.62,0 681.62,-19.25"/>
<text text-anchor="middle" x="651.12" y="-5.75" font-family="Helvetica,sans-Serif" font-size="10.00">TNamed.h</text>
</a>
</g>
</g>
<!-- Node30&#45;&gt;Node31 -->
<g id="edge32_Node000030_Node000031" class="edge">
<title>Node30&#45;&gt;Node31</title>
<g id="a_edge32_Node000030_Node000031"><a xlink:title=" ">
<path fill="none" stroke="#63b8ff" d="M591.34,-54.84C601.95,-46.99 617.56,-35.45 630.17,-26.12"/>
<polygon fill="#63b8ff" stroke="#63b8ff" points="631.92,-29.19 637.87,-20.42 627.75,-23.56 631.92,-29.19"/>
</a>
</g>
</g>
<!-- Node32 -->
<g id="Node000032" class="node">
<title>Node32</title>
<g id="a_Node000032"><a xlink:title=" ">
<polygon fill="#e0e0e0" stroke="#999999" points="538.25,-19.25 496,-19.25 496,0 538.25,0 538.25,-19.25"/>
<text text-anchor="middle" x="517.12" y="-5.75" font-family="Helvetica,sans-Serif" font-size="10.00">TH2.h</text>
</a>
</g>
</g>
<!-- Node30&#45;&gt;Node32 -->
<g id="edge33_Node000030_Node000032" class="edge">
<title>Node30&#45;&gt;Node32</title>
<g id="a_edge33_Node000030_Node000032"><a xlink:title=" ">
<path fill="none" stroke="#63b8ff" d="M568.61,-54.84C559.74,-47.22 546.81,-36.12 536.14,-26.95"/>
<polygon fill="#63b8ff" stroke="#63b8ff" points="538.5,-24.37 528.64,-20.51 533.94,-29.68 538.5,-24.37"/>
</a>
</g>
</g>
<!-- Node33 -->
<g id="Node000033" class="node">
<title>Node33</title>
<g id="a_Node000033"><a xlink:title=" ">
<polygon fill="#e0e0e0" stroke="#999999" points="602.12,-19.25 556.12,-19.25 556.12,0 602.12,0 602.12,-19.25"/>
<text text-anchor="middle" x="579.12" y="-5.75" font-family="Helvetica,sans-Serif" font-size="10.00">TList.h</text>
</a>
</g>
</g>
<!-- Node30&#45;&gt;Node33 -->
<g id="edge34_Node000030_Node000033" class="edge">
<title>Node30&#45;&gt;Node33</title>
<g id="a_edge34_Node000030_Node000033"><a xlink:title=" ">
<path fill="none" stroke="#63b8ff" d="M579.12,-55.08C579.12,-48.57 579.12,-39.42 579.12,-31.12"/>
<polygon fill="#63b8ff" stroke="#63b8ff" points="582.63,-31.12 579.13,-21.12 575.63,-31.12 582.63,-31.12"/>
</a>
</g>
</g>
</g>
</svg>

<g id="navigator" transform="translate(0 0)" fill="#404254">
  <rect fill="#f2f5e9" fill-opacity="0.5" stroke="#606060" stroke-width=".5" x="0" y="0" width="60" height="60"/>
  <use id="zoomplus" xlink:href="#zoomPlus" x="17" y="9" onmousedown="handleZoom(evt,'in')"/>
  <use id="zoomminus" xlink:href="#zoomMin" x="42" y="9" onmousedown="handleZoom(evt,'out')"/>
  <use id="reset" xlink:href="#resetDef" x="30" y="36" onmousedown="handleReset()"/>
   <use id="arrowup" xlink:href="#arrowUp" x="0" y="0" onmousedown="handlePan(0,-1)"/>
  <use id="arrowright" xlink:href="#arrowRight" x="0" y="0" onmousedown="handlePan(1,0)"/>
  <use id="arrowdown" xlink:href="#arrowDown" x="0" y="0" onmousedown="handlePan(0,1)"/>
  <use id="arrowleft" xlink:href="#arrowLeft" x="0" y="0" onmousedown="handlePan(-1,0)"/>
</g>
<svg viewBox="0 0 15 15" width="100%" height="30px" preserveAspectRatio="xMaxYMin meet">
 <g id="arrow_out" transform="scale(0.3 0.3)">
  <a xlink:href="_g_gaus_8cxx__incl_org.svg" target="_base">
   <rect id="button" ry="5" rx="5" y="6" x="6" height="38" width="38"
        fill="#f2f5e9" fill-opacity="0.5" stroke="#606060" stroke-width="1.0"/>
   <path id="arrow"
     d="M 11.500037,31.436501 C 11.940474,20.09759 22.043105,11.32322 32.158766,21.979434 L 37.068811,17.246167 C 37.068811,17.246167 37.088388,32 37.088388,32 L 22.160133,31.978069 C 22.160133,31.978069 26.997745,27.140456 26.997745,27.140456 C 18.528582,18.264221 13.291696,25.230495 11.500037,31.436501 z"
     style="fill:#404040;"/>
  </a>
 </g>
</svg>

<style type='text/css'>
<![CDATA[
[data-mouse-over-selected='false'] { opacity: 0.7; }
[data-mouse-over-selected='true']  { opacity: 1.0; }
]]>
</style>
<script type="application/ecmascript"><![CDATA[
document.addEventListener('DOMContentLoaded', (event) => {
  highlightEdges();
  highlightAdjacentNodes();
});
]]></script>
</svg>
