<?xml version="1.0" encoding="UTF-8" standalone="no"?>
<!DOCTYPE svg PUBLIC "-//W3C//DTD SVG 1.1//EN"
 "http://www.w3.org/Graphics/SVG/1.1/DTD/svg11.dtd">
<!-- Generated by graphviz version 12.2.0 (20241103.1931)
 -->
<!-- Title: GH2Base.h Pages: 1 -->
<svg width="1367pt" height="248pt"
 viewBox="0.00 0.00 1366.90 248.25" xmlns="http://www.w3.org/2000/svg" xmlns:xlink="http://www.w3.org/1999/xlink">
<g id="graph0" class="graph" transform="scale(1 1) rotate(0) translate(4 244.25)">
<title>GH2Base.h</title>
<!-- Node1 -->
<g id="Node000001" class="node">
<title>Node1</title>
<g id="a_Node000001"><a xlink:title=" ">
<polygon fill="#999999" stroke="#666666" points="972.4,-240.25 906.15,-240.25 906.15,-221 972.4,-221 972.4,-240.25"/>
<text text-anchor="middle" x="939.28" y="-226.75" font-family="Helvetica,sans-Serif" font-size="10.00">GH2Base.h</text>
</a>
</g>
</g>
<!-- Node2 -->
<g id="Node000002" class="node">
<title>Node2</title>
<g id="a_Node000002"><a xlink:href="_g_canvas_8h.html" target="_top" xlink:title=" ">
<polygon fill="white" stroke="#666666" points="501.28,-129.75 437.28,-129.75 437.28,-110.5 501.28,-110.5 501.28,-129.75"/>
<text text-anchor="middle" x="469.28" y="-116.25" font-family="Helvetica,sans-Serif" font-size="10.00">GCanvas.h</text>
</a>
</g>
</g>
<!-- Node1&#45;&gt;Node2 -->
<g id="edge1_Node000001_Node000002" class="edge">
<title>Node1&#45;&gt;Node2</title>
<g id="a_edge1_Node000001_Node000002"><a xlink:title=" ">
<path fill="none" stroke="#63b8ff" d="M894.75,-219.34C800.7,-197.63 583.75,-147.55 501.6,-128.59"/>
<polygon fill="#63b8ff" stroke="#63b8ff" points="893.85,-222.73 904.38,-221.57 895.42,-215.91 893.85,-222.73"/>
</a>
</g>
</g>
<!-- Node14 -->
<g id="Node000014" class="node">
<title>Node14</title>
<g id="a_Node000014"><a xlink:href="_g_h2_base_8cxx.html" target="_top" xlink:title=" ">
<polygon fill="white" stroke="#666666" points="1358.9,-74.5 1283.65,-74.5 1283.65,-55.25 1358.9,-55.25 1358.9,-74.5"/>
<text text-anchor="middle" x="1321.28" y="-61" font-family="Helvetica,sans-Serif" font-size="10.00">GH2Base.cxx</text>
</a>
</g>
</g>
<!-- Node1&#45;&gt;Node14 -->
<g id="edge14_Node000001_Node000014" class="edge">
<title>Node1&#45;&gt;Node14</title>
<g id="a_edge14_Node000001_Node000014"><a xlink:title=" ">
<path fill="none" stroke="#63b8ff" d="M970.64,-216.18C1046.19,-183.79 1236.69,-102.13 1300.26,-74.88"/>
<polygon fill="#63b8ff" stroke="#63b8ff" points="969.56,-212.83 961.75,-219.99 972.32,-219.27 969.56,-212.83"/>
</a>
</g>
</g>
<!-- Node15 -->
<g id="Node000015" class="node">
<title>Node15</title>
<g id="a_Node000015"><a xlink:href="_g_h2_d_8h.html" target="_top" xlink:title=" ">
<polygon fill="white" stroke="#666666" points="937.53,-129.75 887.03,-129.75 887.03,-110.5 937.53,-110.5 937.53,-129.75"/>
<text text-anchor="middle" x="912.28" y="-116.25" font-family="Helvetica,sans-Serif" font-size="10.00">GH2D.h</text>
</a>
</g>
</g>
<!-- Node1&#45;&gt;Node15 -->
<g id="edge15_Node000001_Node000015" class="edge">
<title>Node1&#45;&gt;Node15</title>
<g id="a_edge15_Node000001_Node000015"><a xlink:title=" ">
<path fill="none" stroke="#63b8ff" d="M934.3,-209.6C928.4,-185.9 918.83,-147.47 914.52,-130.13"/>
<polygon fill="#63b8ff" stroke="#63b8ff" points="930.89,-210.42 936.7,-219.28 937.68,-208.73 930.89,-210.42"/>
</a>
</g>
</g>
<!-- Node17 -->
<g id="Node000017" class="node">
<title>Node17</title>
<g id="a_Node000017"><a xlink:href="_g_h2_i_8h.html" target="_top" xlink:title=" ">
<polygon fill="white" stroke="#666666" points="988.65,-185 941.9,-185 941.9,-165.75 988.65,-165.75 988.65,-185"/>
<text text-anchor="middle" x="965.28" y="-171.5" font-family="Helvetica,sans-Serif" font-size="10.00">GH2I.h</text>
</a>
</g>
</g>
<!-- Node1&#45;&gt;Node17 -->
<g id="edge20_Node000001_Node000017" class="edge">
<title>Node1&#45;&gt;Node17</title>
<g id="a_edge20_Node000001_Node000017"><a xlink:title=" ">
<path fill="none" stroke="#63b8ff" d="M948.6,-210.54C952.79,-201.96 957.54,-192.23 960.89,-185.36"/>
<polygon fill="#63b8ff" stroke="#63b8ff" points="945.48,-208.95 944.24,-219.47 951.77,-212.02 945.48,-208.95"/>
</a>
</g>
</g>
<!-- Node3 -->
<g id="Node000003" class="node">
<title>Node3</title>
<g id="a_Node000003"><a xlink:href="_g_canvas_8cxx.html" target="_top" xlink:title=" ">
<polygon fill="white" stroke="#666666" points="783.78,-74.5 710.78,-74.5 710.78,-55.25 783.78,-55.25 783.78,-74.5"/>
<text text-anchor="middle" x="747.28" y="-61" font-family="Helvetica,sans-Serif" font-size="10.00">GCanvas.cxx</text>
</a>
</g>
</g>
<!-- Node2&#45;&gt;Node3 -->
<g id="edge2_Node000002_Node000003" class="edge">
<title>Node2&#45;&gt;Node3</title>
<g id="a_edge2_Node000002_Node000003"><a xlink:title=" ">
<path fill="none" stroke="#63b8ff" d="M512.73,-110.8C567.2,-100.37 659.6,-82.67 710.65,-72.89"/>
<polygon fill="#63b8ff" stroke="#63b8ff" points="512.36,-107.31 503.2,-112.63 513.68,-114.18 512.36,-107.31"/>
</a>
</g>
</g>
<!-- Node4 -->
<g id="Node000004" class="node">
<title>Node4</title>
<g id="a_Node000004"><a xlink:href="_g_gaus_8cxx.html" target="_top" xlink:title=" ">
<polygon fill="white" stroke="#666666" points="264.9,-74.5 201.65,-74.5 201.65,-55.25 264.9,-55.25 264.9,-74.5"/>
<text text-anchor="middle" x="233.28" y="-61" font-family="Helvetica,sans-Serif" font-size="10.00">GGaus.cxx</text>
</a>
</g>
</g>
<!-- Node2&#45;&gt;Node4 -->
<g id="edge3_Node000002_Node000004" class="edge">
<title>Node2&#45;&gt;Node4</title>
<g id="a_edge3_Node000002_Node000004"><a xlink:title=" ">
<path fill="none" stroke="#63b8ff" d="M425.73,-109.3C379.24,-98.81 306.68,-82.44 265.21,-73.08"/>
<polygon fill="#63b8ff" stroke="#63b8ff" points="424.96,-112.71 435.48,-111.5 426.5,-105.88 424.96,-112.71"/>
</a>
</g>
</g>
<!-- Node5 -->
<g id="Node000005" class="node">
<title>Node5</title>
<g id="a_Node000005"><a xlink:href="_g_h1_d_8cxx.html" target="_top" xlink:title=" ">
<polygon fill="white" stroke="#666666" points="989.03,-74.5 929.53,-74.5 929.53,-55.25 989.03,-55.25 989.03,-74.5"/>
<text text-anchor="middle" x="959.28" y="-61" font-family="Helvetica,sans-Serif" font-size="10.00">GH1D.cxx</text>
</a>
</g>
</g>
<!-- Node2&#45;&gt;Node5 -->
<g id="edge4_Node000002_Node000005" class="edge">
<title>Node2&#45;&gt;Node5</title>
<g id="a_edge4_Node000002_Node000005"><a xlink:title=" ">
<path fill="none" stroke="#63b8ff" d="M513.16,-116.52C594.04,-111.35 771.95,-98.15 920.28,-74.5 923.15,-74.04 926.14,-73.5 929.11,-72.92"/>
<polygon fill="#63b8ff" stroke="#63b8ff" points="512.98,-113.03 503.22,-117.15 513.42,-120.01 512.98,-113.03"/>
</a>
</g>
</g>
<!-- Node6 -->
<g id="Node000006" class="node">
<title>Node6</title>
<g id="a_Node000006"><a xlink:href="_g_peak_8cxx.html" target="_top" xlink:title=" ">
<polygon fill="white" stroke="#666666" points="345.53,-74.5 283.03,-74.5 283.03,-55.25 345.53,-55.25 345.53,-74.5"/>
<text text-anchor="middle" x="314.28" y="-61" font-family="Helvetica,sans-Serif" font-size="10.00">GPeak.cxx</text>
</a>
</g>
</g>
<!-- Node2&#45;&gt;Node6 -->
<g id="edge5_Node000002_Node000006" class="edge">
<title>Node2&#45;&gt;Node6</title>
<g id="a_edge5_Node000002_Node000006"><a xlink:title=" ">
<path fill="none" stroke="#63b8ff" d="M432.33,-106.43C404.11,-96.74 365.91,-83.61 340.7,-74.95"/>
<polygon fill="#63b8ff" stroke="#63b8ff" points="430.96,-109.66 441.55,-109.6 433.23,-103.04 430.96,-109.66"/>
</a>
</g>
</g>
<!-- Node7 -->
<g id="Node000007" class="node">
<title>Node7</title>
<g id="a_Node000007"><a xlink:href="_g_root_canvas_8cxx.html" target="_top" xlink:title=" ">
<polygon fill="white" stroke="#666666" points="456.9,-74.5 363.65,-74.5 363.65,-55.25 456.9,-55.25 456.9,-74.5"/>
<text text-anchor="middle" x="410.28" y="-61" font-family="Helvetica,sans-Serif" font-size="10.00">GRootCanvas.cxx</text>
</a>
</g>
</g>
<!-- Node2&#45;&gt;Node7 -->
<g id="edge6_Node000002_Node000007" class="edge">
<title>Node2&#45;&gt;Node7</title>
<g id="a_edge6_Node000002_Node000007"><a xlink:title=" ">
<path fill="none" stroke="#63b8ff" d="M451.01,-102.64C440.82,-93.44 428.54,-82.35 420.14,-74.77"/>
<polygon fill="#63b8ff" stroke="#63b8ff" points="448.38,-104.98 458.15,-109.08 453.07,-99.78 448.38,-104.98"/>
</a>
</g>
</g>
<!-- Node8 -->
<g id="Node000008" class="node">
<title>Node8</title>
<g id="a_Node000008"><a xlink:href="_g_root_commands_8cxx.html" target="_top" xlink:title=" ">
<polygon fill="white" stroke="#666666" points="911.15,-74.5 801.4,-74.5 801.4,-55.25 911.15,-55.25 911.15,-74.5"/>
<text text-anchor="middle" x="856.28" y="-61" font-family="Helvetica,sans-Serif" font-size="10.00">GRootCommands.cxx</text>
</a>
</g>
</g>
<!-- Node2&#45;&gt;Node8 -->
<g id="edge7_Node000002_Node000008" class="edge">
<title>Node2&#45;&gt;Node8</title>
<g id="a_edge7_Node000002_Node000008"><a xlink:title=" ">
<path fill="none" stroke="#63b8ff" d="M512.76,-113.14C583.5,-103.41 723.42,-84.16 801.08,-73.47"/>
<polygon fill="#63b8ff" stroke="#63b8ff" points="512.54,-109.64 503.11,-114.47 513.49,-116.57 512.54,-109.64"/>
</a>
</g>
</g>
<!-- Node9 -->
<g id="Node000009" class="node">
<title>Node9</title>
<g id="a_Node000009"><a xlink:href="_g_root_gui_factory_8cxx.html" target="_top" xlink:title=" ">
<polygon fill="white" stroke="#666666" points="582.03,-74.5 474.53,-74.5 474.53,-55.25 582.03,-55.25 582.03,-74.5"/>
<text text-anchor="middle" x="528.28" y="-61" font-family="Helvetica,sans-Serif" font-size="10.00">GRootGuiFactory.cxx</text>
</a>
</g>
</g>
<!-- Node2&#45;&gt;Node9 -->
<g id="edge8_Node000002_Node000009" class="edge">
<title>Node2&#45;&gt;Node9</title>
<g id="a_edge8_Node000002_Node000009"><a xlink:title=" ">
<path fill="none" stroke="#63b8ff" d="M487.55,-102.64C497.73,-93.44 510.02,-82.35 518.42,-74.77"/>
<polygon fill="#63b8ff" stroke="#63b8ff" points="485.49,-99.78 480.41,-109.08 490.18,-104.98 485.49,-99.78"/>
</a>
</g>
</g>
<!-- Node10 -->
<g id="Node000010" class="node">
<title>Node10</title>
<g id="a_Node000010"><a xlink:href="_t_b_g_subtraction_8cxx.html" target="_top" xlink:title=" ">
<polygon fill="white" stroke="#666666" points="367.4,-19.25 265.15,-19.25 265.15,0 367.4,0 367.4,-19.25"/>
<text text-anchor="middle" x="316.28" y="-5.75" font-family="Helvetica,sans-Serif" font-size="10.00">TBGSubtraction.cxx</text>
</a>
</g>
</g>
<!-- Node2&#45;&gt;Node10 -->
<g id="edge9_Node000002_Node000010" class="edge">
<title>Node2&#45;&gt;Node10</title>
<g id="a_edge9_Node000002_Node000010"><a xlink:title=" ">
<path fill="none" stroke="#63b8ff" d="M425.42,-118.2C315,-115.42 32.3,-105.34 4.28,-74.5 -1.48,-68.17 -1.33,-61.71 4.28,-55.25 37.39,-17.06 185.21,-10.75 264.92,-10.2"/>
<polygon fill="#63b8ff" stroke="#63b8ff" points="425.19,-121.7 435.27,-118.44 425.36,-114.7 425.19,-121.7"/>
</a>
</g>
</g>
<!-- Node11 -->
<g id="Node000011" class="node">
<title>Node11</title>
<g id="a_Node000011"><a xlink:href="_t_b_g_subtraction_8h.html" target="_top" xlink:title=" ">
<polygon fill="white" stroke="#666666" points="692.9,-74.5 599.65,-74.5 599.65,-55.25 692.9,-55.25 692.9,-74.5"/>
<text text-anchor="middle" x="646.28" y="-61" font-family="Helvetica,sans-Serif" font-size="10.00">TBGSubtraction.h</text>
</a>
</g>
</g>
<!-- Node2&#45;&gt;Node11 -->
<g id="edge10_Node000002_Node000011" class="edge">
<title>Node2&#45;&gt;Node11</title>
<g id="a_edge10_Node000002_Node000011"><a xlink:title=" ">
<path fill="none" stroke="#63b8ff" d="M510.19,-106.82C542.53,-97.09 586.94,-83.73 616.11,-74.95"/>
<polygon fill="#63b8ff" stroke="#63b8ff" points="509.32,-103.42 500.75,-109.66 511.34,-110.13 509.32,-103.42"/>
</a>
</g>
</g>
<!-- Node12 -->
<g id="Node000012" class="node">
<title>Node12</title>
<g id="a_Node000012"><a xlink:href="_t_calibrator_8cxx.html" target="_top" xlink:title=" ">
<polygon fill="white" stroke="#666666" points="93.15,-74.5 13.4,-74.5 13.4,-55.25 93.15,-55.25 93.15,-74.5"/>
<text text-anchor="middle" x="53.28" y="-61" font-family="Helvetica,sans-Serif" font-size="10.00">TCalibrator.cxx</text>
</a>
</g>
</g>
<!-- Node2&#45;&gt;Node12 -->
<g id="edge12_Node000002_Node000012" class="edge">
<title>Node2&#45;&gt;Node12</title>
<g id="a_edge12_Node000002_Node000012"><a xlink:title=" ">
<path fill="none" stroke="#63b8ff" d="M425.96,-114.68C357.05,-107.43 218.29,-92.09 101.28,-74.5 98.77,-74.12 96.18,-73.71 93.58,-73.29"/>
<polygon fill="#63b8ff" stroke="#63b8ff" points="425.38,-118.14 435.69,-115.7 426.11,-111.18 425.38,-118.14"/>
</a>
</g>
</g>
<!-- Node13 -->
<g id="Node000013" class="node">
<title>Node13</title>
<g id="a_Node000013"><a xlink:href="_t_g_r_s_iint_8cxx.html" target="_top" xlink:title=" ">
<polygon fill="white" stroke="#666666" points="183.78,-74.5 110.78,-74.5 110.78,-55.25 183.78,-55.25 183.78,-74.5"/>
<text text-anchor="middle" x="147.28" y="-61" font-family="Helvetica,sans-Serif" font-size="10.00">TGRSIint.cxx</text>
</a>
</g>
</g>
<!-- Node2&#45;&gt;Node13 -->
<g id="edge13_Node000002_Node000013" class="edge">
<title>Node2&#45;&gt;Node13</title>
<g id="a_edge13_Node000002_Node000013"><a xlink:title=" ">
<path fill="none" stroke="#63b8ff" d="M425.48,-112.48C370.82,-104.09 274.51,-89 192.28,-74.5 189.61,-74.03 186.86,-73.53 184.1,-73.02"/>
<polygon fill="#63b8ff" stroke="#63b8ff" points="424.9,-115.93 435.32,-113.99 425.96,-109.01 424.9,-115.93"/>
</a>
</g>
</g>
<!-- Node11&#45;&gt;Node10 -->
<g id="edge11_Node000011_Node000010" class="edge">
<title>Node11&#45;&gt;Node10</title>
<g id="a_edge11_Node000011_Node000010"><a xlink:title=" ">
<path fill="none" stroke="#63b8ff" d="M588.12,-54.49C525.66,-44.41 427.37,-28.55 367.66,-18.92"/>
<polygon fill="#63b8ff" stroke="#63b8ff" points="587.42,-57.92 597.85,-56.06 588.54,-51.01 587.42,-57.92"/>
</a>
</g>
</g>
<!-- Node15&#45;&gt;Node3 -->
<g id="edge16_Node000015_Node000003" class="edge">
<title>Node15&#45;&gt;Node3</title>
<g id="a_edge16_Node000015_Node000003"><a xlink:title=" ">
<path fill="none" stroke="#63b8ff" d="M875.92,-107.39C845.67,-97.63 803.22,-83.93 775.49,-74.98"/>
<polygon fill="#63b8ff" stroke="#63b8ff" points="874.83,-110.72 885.42,-110.46 876.98,-104.05 874.83,-110.72"/>
</a>
</g>
</g>
<!-- Node15&#45;&gt;Node5 -->
<g id="edge17_Node000015_Node000005" class="edge">
<title>Node15&#45;&gt;Node5</title>
<g id="a_edge17_Node000015_Node000005"><a xlink:title=" ">
<path fill="none" stroke="#63b8ff" d="M927.61,-101.76C935.53,-92.78 944.87,-82.2 951.35,-74.86"/>
<polygon fill="#63b8ff" stroke="#63b8ff" points="925.03,-99.38 921.04,-109.2 930.28,-104.02 925.03,-99.38"/>
</a>
</g>
</g>
<!-- Node15&#45;&gt;Node8 -->
<g id="edge19_Node000015_Node000008" class="edge">
<title>Node15&#45;&gt;Node8</title>
<g id="a_edge19_Node000015_Node000008"><a xlink:title=" ">
<path fill="none" stroke="#63b8ff" d="M894.64,-102.36C885.03,-93.22 873.53,-82.28 865.64,-74.77"/>
<polygon fill="#63b8ff" stroke="#63b8ff" points="892.02,-104.69 901.68,-109.05 896.85,-99.62 892.02,-104.69"/>
</a>
</g>
</g>
<!-- Node16 -->
<g id="Node000016" class="node">
<title>Node16</title>
<g id="a_Node000016"><a xlink:href="_g_h2_d_8cxx.html" target="_top" xlink:title=" ">
<polygon fill="white" stroke="#666666" points="1067.03,-74.5 1007.53,-74.5 1007.53,-55.25 1067.03,-55.25 1067.03,-74.5"/>
<text text-anchor="middle" x="1037.28" y="-61" font-family="Helvetica,sans-Serif" font-size="10.00">GH2D.cxx</text>
</a>
</g>
</g>
<!-- Node15&#45;&gt;Node16 -->
<g id="edge18_Node000015_Node000016" class="edge">
<title>Node15&#45;&gt;Node16</title>
<g id="a_edge18_Node000015_Node000016"><a xlink:title=" ">
<path fill="none" stroke="#63b8ff" d="M943.91,-105.65C966.46,-96.04 996.18,-83.38 1015.97,-74.95"/>
<polygon fill="#63b8ff" stroke="#63b8ff" points="942.7,-102.36 934.88,-109.5 945.45,-108.8 942.7,-102.36"/>
</a>
</g>
</g>
<!-- Node17&#45;&gt;Node3 -->
<g id="edge21_Node000017_Node000003" class="edge">
<title>Node17&#45;&gt;Node3</title>
<g id="a_edge21_Node000017_Node000003"><a xlink:title=" ">
<path fill="none" stroke="#63b8ff" d="M937.01,-160.31C891.61,-137.71 803.67,-93.94 765.59,-74.99"/>
<polygon fill="#63b8ff" stroke="#63b8ff" points="935.2,-163.31 945.71,-164.64 938.32,-157.05 935.2,-163.31"/>
</a>
</g>
</g>
<!-- Node17&#45;&gt;Node5 -->
<g id="edge22_Node000017_Node000005" class="edge">
<title>Node17&#45;&gt;Node5</title>
<g id="a_edge22_Node000017_Node000005"><a xlink:title=" ">
<path fill="none" stroke="#63b8ff" d="M964.15,-154.03C962.84,-130.3 960.73,-92.14 959.78,-74.88"/>
<polygon fill="#63b8ff" stroke="#63b8ff" points="960.66,-154.19 964.7,-163.98 967.65,-153.81 960.66,-154.19"/>
</a>
</g>
</g>
<!-- Node18 -->
<g id="Node000018" class="node">
<title>Node18</title>
<g id="a_Node000018"><a xlink:href="_g_h1_d_8h.html" target="_top" xlink:title=" ">
<polygon fill="white" stroke="#666666" points="1055.53,-129.75 1005.03,-129.75 1005.03,-110.5 1055.53,-110.5 1055.53,-129.75"/>
<text text-anchor="middle" x="1030.28" y="-116.25" font-family="Helvetica,sans-Serif" font-size="10.00">GH1D.h</text>
</a>
</g>
</g>
<!-- Node17&#45;&gt;Node18 -->
<g id="edge23_Node000017_Node000018" class="edge">
<title>Node17&#45;&gt;Node18</title>
<g id="a_edge23_Node000017_Node000018"><a xlink:title=" ">
<path fill="none" stroke="#63b8ff" d="M985.07,-158.16C996.35,-148.92 1010.07,-137.68 1019.41,-130.02"/>
<polygon fill="#63b8ff" stroke="#63b8ff" points="982.99,-155.34 977.48,-164.38 987.43,-160.75 982.99,-155.34"/>
</a>
</g>
</g>
<!-- Node19 -->
<g id="Node000019" class="node">
<title>Node19</title>
<g id="a_Node000019"><a xlink:href="_g_h2_i_8cxx.html" target="_top" xlink:title=" ">
<polygon fill="white" stroke="#666666" points="1265.15,-74.5 1209.4,-74.5 1209.4,-55.25 1265.15,-55.25 1265.15,-74.5"/>
<text text-anchor="middle" x="1237.28" y="-61" font-family="Helvetica,sans-Serif" font-size="10.00">GH2I.cxx</text>
</a>
</g>
</g>
<!-- Node17&#45;&gt;Node19 -->
<g id="edge32_Node000017_Node000019" class="edge">
<title>Node17&#45;&gt;Node19</title>
<g id="a_edge32_Node000017_Node000019"><a xlink:title=" ">
<path fill="none" stroke="#63b8ff" d="M998.42,-161.16C1054.41,-138.82 1166.32,-94.18 1214.43,-74.99"/>
<polygon fill="#63b8ff" stroke="#63b8ff" points="997.4,-157.79 989.41,-164.75 999.99,-164.3 997.4,-157.79"/>
</a>
</g>
</g>
<!-- Node18&#45;&gt;Node3 -->
<g id="edge24_Node000018_Node000003" class="edge">
<title>Node18&#45;&gt;Node3</title>
<g id="a_edge24_Node000018_Node000003"><a xlink:title=" ">
<path fill="none" stroke="#63b8ff" d="M993.49,-112.27C946.71,-103.55 863.48,-88 792.28,-74.5 789.62,-74 786.88,-73.47 784.11,-72.95"/>
<polygon fill="#63b8ff" stroke="#63b8ff" points="992.6,-115.67 1003.07,-114.06 993.88,-108.79 992.6,-115.67"/>
</a>
</g>
</g>
<!-- Node18&#45;&gt;Node5 -->
<g id="edge25_Node000018_Node000005" class="edge">
<title>Node18&#45;&gt;Node5</title>
<g id="a_edge25_Node000018_Node000005"><a xlink:title=" ">
<path fill="none" stroke="#63b8ff" d="M1009.03,-103.19C996.63,-93.89 981.45,-82.51 971.14,-74.77"/>
<polygon fill="#63b8ff" stroke="#63b8ff" points="1006.92,-105.98 1017.02,-109.18 1011.12,-100.38 1006.92,-105.98"/>
</a>
</g>
</g>
<!-- Node18&#45;&gt;Node8 -->
<g id="edge29_Node000018_Node000008" class="edge">
<title>Node18&#45;&gt;Node8</title>
<g id="a_edge29_Node000018_Node000008"><a xlink:title=" ">
<path fill="none" stroke="#63b8ff" d="M993.9,-107.99C961.83,-98.18 915.69,-84.06 885.85,-74.92"/>
<polygon fill="#63b8ff" stroke="#63b8ff" points="992.57,-111.25 1003.16,-110.82 994.62,-104.55 992.57,-111.25"/>
</a>
</g>
</g>
<!-- Node18&#45;&gt;Node14 -->
<g id="edge26_Node000018_Node000014" class="edge">
<title>Node18&#45;&gt;Node14</title>
<g id="a_edge26_Node000018_Node000014"><a xlink:title=" ">
<path fill="none" stroke="#63b8ff" d="M1067.22,-112.38C1115.02,-103.64 1200.86,-87.95 1274.28,-74.5 1277.22,-73.96 1280.26,-73.4 1283.31,-72.84"/>
<polygon fill="#63b8ff" stroke="#63b8ff" points="1066.62,-108.93 1057.41,-114.17 1067.88,-115.81 1066.62,-108.93"/>
</a>
</g>
</g>
<!-- Node18&#45;&gt;Node16 -->
<g id="edge27_Node000018_Node000016" class="edge">
<title>Node18&#45;&gt;Node16</title>
<g id="a_edge27_Node000018_Node000016"><a xlink:title=" ">
<path fill="none" stroke="#63b8ff" d="M1032.9,-99.17C1034,-90.8 1035.22,-81.5 1036.1,-74.86"/>
<polygon fill="#63b8ff" stroke="#63b8ff" points="1029.46,-98.46 1031.63,-108.83 1036.4,-99.37 1029.46,-98.46"/>
</a>
</g>
</g>
<!-- Node18&#45;&gt;Node19 -->
<g id="edge28_Node000018_Node000019" class="edge">
<title>Node18&#45;&gt;Node19</title>
<g id="a_edge28_Node000018_Node000019"><a xlink:title=" ">
<path fill="none" stroke="#63b8ff" d="M1066.68,-109.76C1107.27,-99.32 1172.09,-82.65 1209.04,-73.14"/>
<polygon fill="#63b8ff" stroke="#63b8ff" points="1065.94,-106.34 1057.13,-112.22 1067.68,-113.12 1065.94,-106.34"/>
</a>
</g>
</g>
<!-- Node20 -->
<g id="Node000020" class="node">
<title>Node20</title>
<g id="a_Node000020"><a xlink:href="_t_source_calibration_8h.html" target="_top" xlink:title=" ">
<polygon fill="white" stroke="#666666" points="1191.28,-74.5 1085.28,-74.5 1085.28,-55.25 1191.28,-55.25 1191.28,-74.5"/>
<text text-anchor="middle" x="1138.28" y="-61" font-family="Helvetica,sans-Serif" font-size="10.00">TSourceCalibration.h</text>
</a>
</g>
</g>
<!-- Node18&#45;&gt;Node20 -->
<g id="edge30_Node000018_Node000020" class="edge">
<title>Node18&#45;&gt;Node20</title>
<g id="a_edge30_Node000018_Node000020"><a xlink:title=" ">
<path fill="none" stroke="#63b8ff" d="M1058.67,-105.12C1078.02,-95.58 1103.08,-83.23 1119.87,-74.95"/>
<polygon fill="#63b8ff" stroke="#63b8ff" points="1057.38,-101.86 1049.96,-109.42 1060.47,-108.14 1057.38,-101.86"/>
</a>
</g>
</g>
<!-- Node21 -->
<g id="Node000021" class="node">
<title>Node21</title>
<g id="a_Node000021"><a xlink:href="_t_source_calibration_8cxx.html" target="_top" xlink:title=" ">
<polygon fill="white" stroke="#666666" points="1195.78,-19.25 1080.78,-19.25 1080.78,0 1195.78,0 1195.78,-19.25"/>
<text text-anchor="middle" x="1138.28" y="-5.75" font-family="Helvetica,sans-Serif" font-size="10.00">TSourceCalibration.cxx</text>
</a>
</g>
</g>
<!-- Node20&#45;&gt;Node21 -->
<g id="edge31_Node000020_Node000021" class="edge">
<title>Node20&#45;&gt;Node21</title>
<g id="a_edge31_Node000020_Node000021"><a xlink:title=" ">
<path fill="none" stroke="#63b8ff" d="M1138.28,-43.63C1138.28,-35.34 1138.28,-26.17 1138.28,-19.61"/>
<polygon fill="#63b8ff" stroke="#63b8ff" points="1134.78,-43.57 1138.28,-53.57 1141.78,-43.57 1134.78,-43.57"/>
</a>
</g>
</g>
</g>
</svg>
