<?xml version="1.0" encoding="UTF-8" standalone="no"?>
<!DOCTYPE svg PUBLIC "-//W3C//DTD SVG 1.1//EN"
 "http://www.w3.org/Graphics/SVG/1.1/DTD/svg11.dtd">
<!-- Generated by graphviz version 9.0.0 (20230911.1827)
 -->
<!-- Title: GH1D.h Pages: 1 -->
<svg width="659pt" height="138pt"
 viewBox="0.00 0.00 659.00 137.75" xmlns="http://www.w3.org/2000/svg" xmlns:xlink="http://www.w3.org/1999/xlink">
<g id="graph0" class="graph" transform="scale(1 1) rotate(0) translate(4 133.75)">
<title>GH1D.h</title>
<!-- Node1 -->
<g id="Node000001" class="node">
<title>Node1</title>
<g id="a_Node000001"><a xlink:title=" ">
<polygon fill="#999999" stroke="#666666" points="315.75,-129.75 265.25,-129.75 265.25,-110.5 315.75,-110.5 315.75,-129.75"/>
<text text-anchor="middle" x="290.5" y="-116.25" font-family="Helvetica,sans-Serif" font-size="10.00">GH1D.h</text>
</a>
</g>
</g>
<!-- Node2 -->
<g id="Node000002" class="node">
<title>Node2</title>
<g id="a_Node000002"><a xlink:href="_g_canvas_8cxx.html" target="_top" xlink:title=" ">
<polygon fill="white" stroke="#666666" points="73,-74.5 0,-74.5 0,-55.25 73,-55.25 73,-74.5"/>
<text text-anchor="middle" x="36.5" y="-61" font-family="Helvetica,sans-Serif" font-size="10.00">GCanvas.cxx</text>
</a>
</g>
</g>
<!-- Node1&#45;&gt;Node2 -->
<g id="edge1_Node000001_Node000002" class="edge">
<title>Node1&#45;&gt;Node2</title>
<g id="a_edge1_Node000001_Node000002"><a xlink:title=" ">
<path fill="none" stroke="#63b8ff" d="M254.11,-111.5C206.04,-101.42 121.86,-83.77 73.5,-73.63"/>
<polygon fill="#63b8ff" stroke="#63b8ff" points="253.23,-114.89 263.74,-113.51 254.67,-108.04 253.23,-114.89"/>
</a>
</g>
</g>
<!-- Node3 -->
<g id="Node000003" class="node">
<title>Node3</title>
<g id="a_Node000003"><a xlink:href="_g_h1_d_8cxx.html" target="_top" xlink:title=" ">
<polygon fill="white" stroke="#666666" points="150.25,-74.5 90.75,-74.5 90.75,-55.25 150.25,-55.25 150.25,-74.5"/>
<text text-anchor="middle" x="120.5" y="-61" font-family="Helvetica,sans-Serif" font-size="10.00">GH1D.cxx</text>
</a>
</g>
</g>
<!-- Node1&#45;&gt;Node3 -->
<g id="edge2_Node000001_Node000003" class="edge">
<title>Node1&#45;&gt;Node3</title>
<g id="a_edge2_Node000001_Node000003"><a xlink:title=" ">
<path fill="none" stroke="#63b8ff" d="M254.19,-107.75C222.95,-97.97 178.47,-84.03 149.55,-74.97"/>
<polygon fill="#63b8ff" stroke="#63b8ff" points="253.02,-111.05 263.6,-110.7 255.11,-104.37 253.02,-111.05"/>
</a>
</g>
</g>
<!-- Node4 -->
<g id="Node000004" class="node">
<title>Node4</title>
<g id="a_Node000004"><a xlink:href="_g_h2_base_8cxx.html" target="_top" xlink:title=" ">
<polygon fill="white" stroke="#666666" points="243.12,-74.5 167.88,-74.5 167.88,-55.25 243.12,-55.25 243.12,-74.5"/>
<text text-anchor="middle" x="205.5" y="-61" font-family="Helvetica,sans-Serif" font-size="10.00">GH2Base.cxx</text>
</a>
</g>
</g>
<!-- Node1&#45;&gt;Node4 -->
<g id="edge3_Node000001_Node000004" class="edge">
<title>Node1&#45;&gt;Node4</title>
<g id="a_edge3_Node000001_Node000004"><a xlink:title=" ">
<path fill="none" stroke="#63b8ff" d="M266.44,-104.05C251.47,-94.67 232.71,-82.92 219.99,-74.95"/>
<polygon fill="#63b8ff" stroke="#63b8ff" points="264.47,-106.95 274.8,-109.29 268.18,-101.01 264.47,-106.95"/>
</a>
</g>
</g>
<!-- Node5 -->
<g id="Node000005" class="node">
<title>Node5</title>
<g id="a_Node000005"><a xlink:href="_g_h2_d_8cxx.html" target="_top" xlink:title=" ">
<polygon fill="white" stroke="#666666" points="320.25,-74.5 260.75,-74.5 260.75,-55.25 320.25,-55.25 320.25,-74.5"/>
<text text-anchor="middle" x="290.5" y="-61" font-family="Helvetica,sans-Serif" font-size="10.00">GH2D.cxx</text>
</a>
</g>
</g>
<!-- Node1&#45;&gt;Node5 -->
<g id="edge4_Node000001_Node000005" class="edge">
<title>Node1&#45;&gt;Node5</title>
<g id="a_edge4_Node000001_Node000005"><a xlink:title=" ">
<path fill="none" stroke="#63b8ff" d="M290.5,-98.88C290.5,-90.59 290.5,-81.42 290.5,-74.86"/>
<polygon fill="#63b8ff" stroke="#63b8ff" points="287,-98.82 290.5,-108.82 294,-98.82 287,-98.82"/>
</a>
</g>
</g>
<!-- Node6 -->
<g id="Node000006" class="node">
<title>Node6</title>
<g id="a_Node000006"><a xlink:href="_g_h2_i_8cxx.html" target="_top" xlink:title=" ">
<polygon fill="white" stroke="#666666" points="394.38,-74.5 338.62,-74.5 338.62,-55.25 394.38,-55.25 394.38,-74.5"/>
<text text-anchor="middle" x="366.5" y="-61" font-family="Helvetica,sans-Serif" font-size="10.00">GH2I.cxx</text>
</a>
</g>
</g>
<!-- Node1&#45;&gt;Node6 -->
<g id="edge5_Node000001_Node000006" class="edge">
<title>Node1&#45;&gt;Node6</title>
<g id="a_edge5_Node000001_Node000006"><a xlink:title=" ">
<path fill="none" stroke="#63b8ff" d="M312.79,-103.51C326.04,-94.22 342.39,-82.77 353.54,-74.95"/>
<polygon fill="#63b8ff" stroke="#63b8ff" points="310.81,-100.62 304.63,-109.22 314.83,-106.35 310.81,-100.62"/>
</a>
</g>
</g>
<!-- Node7 -->
<g id="Node000007" class="node">
<title>Node7</title>
<g id="a_Node000007"><a xlink:href="_g_root_commands_8cxx.html" target="_top" xlink:title=" ">
<polygon fill="white" stroke="#666666" points="522.38,-74.5 412.62,-74.5 412.62,-55.25 522.38,-55.25 522.38,-74.5"/>
<text text-anchor="middle" x="467.5" y="-61" font-family="Helvetica,sans-Serif" font-size="10.00">GRootCommands.cxx</text>
</a>
</g>
</g>
<!-- Node1&#45;&gt;Node7 -->
<g id="edge6_Node000001_Node000007" class="edge">
<title>Node1&#45;&gt;Node7</title>
<g id="a_edge6_Node000001_Node000007"><a xlink:title=" ">
<path fill="none" stroke="#63b8ff" d="M327.11,-108.11C359.69,-98.31 406.8,-84.14 437.28,-74.97"/>
<polygon fill="#63b8ff" stroke="#63b8ff" points="326.25,-104.71 317.69,-110.95 328.27,-111.42 326.25,-104.71"/>
</a>
</g>
</g>
<!-- Node8 -->
<g id="Node000008" class="node">
<title>Node8</title>
<g id="a_Node000008"><a xlink:href="_t_source_calibration_8h.html" target="_top" xlink:title=" ">
<polygon fill="white" stroke="#666666" points="646.5,-74.5 540.5,-74.5 540.5,-55.25 646.5,-55.25 646.5,-74.5"/>
<text text-anchor="middle" x="593.5" y="-61" font-family="Helvetica,sans-Serif" font-size="10.00">TSourceCalibration.h</text>
</a>
</g>
</g>
<!-- Node1&#45;&gt;Node8 -->
<g id="edge7_Node000001_Node000008" class="edge">
<title>Node1&#45;&gt;Node8</title>
<g id="a_edge7_Node000001_Node000008"><a xlink:title=" ">
<path fill="none" stroke="#63b8ff" d="M327.41,-112.64C381.02,-103.22 480.66,-85.71 541.63,-74.99"/>
<polygon fill="#63b8ff" stroke="#63b8ff" points="326.81,-109.19 317.56,-114.37 328.02,-116.09 326.81,-109.19"/>
</a>
</g>
</g>
<!-- Node9 -->
<g id="Node000009" class="node">
<title>Node9</title>
<g id="a_Node000009"><a xlink:href="_t_source_calibration_8cxx.html" target="_top" xlink:title=" ">
<polygon fill="white" stroke="#666666" points="651,-19.25 536,-19.25 536,0 651,0 651,-19.25"/>
<text text-anchor="middle" x="593.5" y="-5.75" font-family="Helvetica,sans-Serif" font-size="10.00">TSourceCalibration.cxx</text>
</a>
</g>
</g>
<!-- Node8&#45;&gt;Node9 -->
<g id="edge8_Node000008_Node000009" class="edge">
<title>Node8&#45;&gt;Node9</title>
<g id="a_edge8_Node000008_Node000009"><a xlink:title=" ">
<path fill="none" stroke="#63b8ff" d="M593.5,-43.63C593.5,-35.34 593.5,-26.17 593.5,-19.61"/>
<polygon fill="#63b8ff" stroke="#63b8ff" points="590,-43.57 593.5,-53.57 597,-43.57 590,-43.57"/>
</a>
</g>
</g>
</g>
</svg>
