<?xml version="1.0" encoding="UTF-8" standalone="no"?>
<!DOCTYPE svg PUBLIC "-//W3C//DTD SVG 1.1//EN"
 "http://www.w3.org/Graphics/SVG/1.1/DTD/svg11.dtd">
<!-- Generated by graphviz version 12.2.0 (20241103.1931)
 -->
<!-- Title: GH2D.cxx Pages: 1 -->
<svg width="1774pt" height="248pt"
 viewBox="0.00 0.00 1773.86 248.25" xmlns="http://www.w3.org/2000/svg" xmlns:xlink="http://www.w3.org/1999/xlink">
<g id="graph0" class="graph" transform="scale(1 1) rotate(0) translate(4 244.25)">
<title>GH2D.cxx</title>
<!-- Node1 -->
<g id="Node000001" class="node">
<title>Node1</title>
<g id="a_Node000001"><a xlink:title=" ">
<polygon fill="#999999" stroke="#666666" points="1389.61,-240.25 1330.11,-240.25 1330.11,-221 1389.61,-221 1389.61,-240.25"/>
<text text-anchor="middle" x="1359.86" y="-226.75" font-family="Helvetica,sans-Serif" font-size="10.00">GH2D.cxx</text>
</a>
</g>
</g>
<!-- Node2 -->
<g id="Node000002" class="node">
<title>Node2</title>
<g id="a_Node000002"><a xlink:href="_g_h2_d_8h.html" target="_top" xlink:title=" ">
<polygon fill="white" stroke="#666666" points="1292.11,-129.75 1241.61,-129.75 1241.61,-110.5 1292.11,-110.5 1292.11,-129.75"/>
<text text-anchor="middle" x="1266.86" y="-116.25" font-family="Helvetica,sans-Serif" font-size="10.00">GH2D.h</text>
</a>
</g>
</g>
<!-- Node1&#45;&gt;Node2 -->
<g id="edge1_Node000001_Node000002" class="edge">
<title>Node1&#45;&gt;Node2</title>
<g id="a_edge1_Node000001_Node000002"><a xlink:title=" ">
<path fill="none" stroke="#63b8ff" d="M1352.25,-220.75C1336.92,-202.86 1302.09,-162.22 1281.97,-138.75"/>
<polygon fill="#63b8ff" stroke="#63b8ff" points="1284.73,-136.59 1275.56,-131.28 1279.41,-141.15 1284.73,-136.59"/>
</a>
</g>
</g>
<!-- Node12 -->
<g id="Node000012" class="node">
<title>Node12</title>
<g id="a_Node000012"><a xlink:title=" ">
<polygon fill="#e0e0e0" stroke="#999999" points="68.61,-74.5 15.11,-74.5 15.11,-55.25 68.61,-55.25 68.61,-74.5"/>
<text text-anchor="middle" x="41.86" y="-61" font-family="Helvetica,sans-Serif" font-size="10.00">iostream</text>
</a>
</g>
</g>
<!-- Node1&#45;&gt;Node12 -->
<g id="edge15_Node000001_Node000012" class="edge">
<title>Node1&#45;&gt;Node12</title>
<g id="a_edge15_Node000001_Node000012"><a xlink:title=" ">
<path fill="none" stroke="#63b8ff" d="M1329.78,-226.08C1221.79,-213.36 843.65,-168.63 531.86,-129.75 341.1,-105.96 293.37,-100.24 102.86,-74.5 95.47,-73.5 87.58,-72.41 80.01,-71.34"/>
<polygon fill="#63b8ff" stroke="#63b8ff" points="80.77,-67.92 70.38,-69.98 79.79,-74.85 80.77,-67.92"/>
</a>
</g>
</g>
<!-- Node13 -->
<g id="Node000013" class="node">
<title>Node13</title>
<g id="a_Node000013"><a xlink:title=" ">
<polygon fill="#e0e0e0" stroke="#999999" points="1502.74,-185 1434.99,-185 1434.99,-165.75 1502.74,-165.75 1502.74,-185"/>
<text text-anchor="middle" x="1468.86" y="-171.5" font-family="Helvetica,sans-Serif" font-size="10.00">TDirectory.h</text>
</a>
</g>
</g>
<!-- Node1&#45;&gt;Node13 -->
<g id="edge16_Node000001_Node000013" class="edge">
<title>Node1&#45;&gt;Node13</title>
<g id="a_edge16_Node000001_Node000013"><a xlink:title=" ">
<path fill="none" stroke="#63b8ff" d="M1378.35,-220.59C1395.26,-212.33 1420.55,-199.98 1440.1,-190.43"/>
<polygon fill="#63b8ff" stroke="#63b8ff" points="1441.47,-193.65 1448.92,-186.12 1438.4,-187.36 1441.47,-193.65"/>
</a>
</g>
</g>
<!-- Node14 -->
<g id="Node000014" class="node">
<title>Node14</title>
<g id="a_Node000014"><a xlink:href="_g_h1_d_8h.html" target="_top" xlink:title=" ">
<polygon fill="white" stroke="#666666" points="1417.11,-185 1366.61,-185 1366.61,-165.75 1417.11,-165.75 1417.11,-185"/>
<text text-anchor="middle" x="1391.86" y="-171.5" font-family="Helvetica,sans-Serif" font-size="10.00">GH1D.h</text>
</a>
</g>
</g>
<!-- Node1&#45;&gt;Node14 -->
<g id="edge17_Node000001_Node000014" class="edge">
<title>Node1&#45;&gt;Node14</title>
<g id="a_edge17_Node000001_Node000014"><a xlink:title=" ">
<path fill="none" stroke="#63b8ff" d="M1365.15,-220.83C1369.34,-213.86 1375.34,-203.87 1380.6,-195.12"/>
<polygon fill="#63b8ff" stroke="#63b8ff" points="1383.53,-197.03 1385.68,-186.66 1377.53,-193.43 1383.53,-197.03"/>
</a>
</g>
</g>
<!-- Node3 -->
<g id="Node000003" class="node">
<title>Node3</title>
<g id="a_Node000003"><a xlink:title=" ">
<polygon fill="#e0e0e0" stroke="#999999" points="1401.99,-19.25 1359.74,-19.25 1359.74,0 1401.99,0 1401.99,-19.25"/>
<text text-anchor="middle" x="1380.86" y="-5.75" font-family="Helvetica,sans-Serif" font-size="10.00">cstdio</text>
</a>
</g>
</g>
<!-- Node2&#45;&gt;Node3 -->
<g id="edge2_Node000002_Node000003" class="edge">
<title>Node2&#45;&gt;Node3</title>
<g id="a_edge2_Node000002_Node000003"><a xlink:title=" ">
<path fill="none" stroke="#63b8ff" d="M1267.43,-110.2C1268.73,-96.76 1272.99,-71.21 1286.86,-55.25 1302.89,-36.81 1328.21,-25.4 1348.53,-18.74"/>
<polygon fill="#63b8ff" stroke="#63b8ff" points="1349.5,-22.1 1358.07,-15.87 1347.48,-15.4 1349.5,-22.1"/>
</a>
</g>
</g>
<!-- Node4 -->
<g id="Node000004" class="node">
<title>Node4</title>
<g id="a_Node000004"><a xlink:title=" ">
<polygon fill="#e0e0e0" stroke="#999999" points="1661.36,-19.25 1600.36,-19.25 1600.36,0 1661.36,0 1661.36,-19.25"/>
<text text-anchor="middle" x="1630.86" y="-5.75" font-family="Helvetica,sans-Serif" font-size="10.00">TNamed.h</text>
</a>
</g>
</g>
<!-- Node2&#45;&gt;Node4 -->
<g id="edge3_Node000002_Node000004" class="edge">
<title>Node2&#45;&gt;Node4</title>
<g id="a_edge3_Node000002_Node000004"><a xlink:title=" ">
<path fill="none" stroke="#63b8ff" d="M1292.4,-112.26C1295.24,-111.61 1298.11,-111.01 1300.86,-110.5 1368.85,-97.97 1556.31,-118.21 1609.86,-74.5 1622.73,-64 1627.78,-45.43 1629.73,-31.01"/>
<polygon fill="#63b8ff" stroke="#63b8ff" points="1633.2,-31.5 1630.62,-21.22 1626.23,-30.87 1633.2,-31.5"/>
</a>
</g>
</g>
<!-- Node5 -->
<g id="Node000005" class="node">
<title>Node5</title>
<g id="a_Node000005"><a xlink:title=" ">
<polygon fill="#e0e0e0" stroke="#999999" points="1581.99,-19.25 1539.74,-19.25 1539.74,0 1581.99,0 1581.99,-19.25"/>
<text text-anchor="middle" x="1560.86" y="-5.75" font-family="Helvetica,sans-Serif" font-size="10.00">TH2.h</text>
</a>
</g>
</g>
<!-- Node2&#45;&gt;Node5 -->
<g id="edge4_Node000002_Node000005" class="edge">
<title>Node2&#45;&gt;Node5</title>
<g id="a_edge4_Node000002_Node000005"><a xlink:title=" ">
<path fill="none" stroke="#63b8ff" d="M1271.4,-110.45C1279.24,-96.39 1296.75,-68.81 1319.86,-55.25 1386.34,-16.24 1479.41,-10.09 1528.15,-9.83"/>
<polygon fill="#63b8ff" stroke="#63b8ff" points="1528.02,-13.33 1538.03,-9.87 1528.04,-6.33 1528.02,-13.33"/>
</a>
</g>
</g>
<!-- Node6 -->
<g id="Node000006" class="node">
<title>Node6</title>
<g id="a_Node000006"><a xlink:title=" ">
<polygon fill="#e0e0e0" stroke="#999999" points="1765.86,-19.25 1719.86,-19.25 1719.86,0 1765.86,0 1765.86,-19.25"/>
<text text-anchor="middle" x="1742.86" y="-5.75" font-family="Helvetica,sans-Serif" font-size="10.00">TList.h</text>
</a>
</g>
</g>
<!-- Node2&#45;&gt;Node6 -->
<g id="edge5_Node000002_Node000006" class="edge">
<title>Node2&#45;&gt;Node6</title>
<g id="a_edge5_Node000002_Node000006"><a xlink:title=" ">
<path fill="none" stroke="#63b8ff" d="M1292.4,-112.24C1295.24,-111.59 1298.11,-111 1300.86,-110.5 1446.05,-84.3 1490.52,-120 1630.86,-74.5 1664.87,-63.48 1700.04,-41.35 1721.68,-26.26"/>
<polygon fill="#63b8ff" stroke="#63b8ff" points="1723.54,-29.23 1729.65,-20.57 1719.48,-23.53 1723.54,-29.23"/>
</a>
</g>
</g>
<!-- Node7 -->
<g id="Node000007" class="node">
<title>Node7</title>
<g id="a_Node000007"><a xlink:title=" ">
<polygon fill="#e0e0e0" stroke="#999999" points="1479.11,-74.5 1404.61,-74.5 1404.61,-55.25 1479.11,-55.25 1479.11,-74.5"/>
<text text-anchor="middle" x="1441.86" y="-61" font-family="Helvetica,sans-Serif" font-size="10.00">TVirtualPad.h</text>
</a>
</g>
</g>
<!-- Node2&#45;&gt;Node7 -->
<g id="edge6_Node000002_Node000007" class="edge">
<title>Node2&#45;&gt;Node7</title>
<g id="a_edge6_Node000002_Node000007"><a xlink:title=" ">
<path fill="none" stroke="#63b8ff" d="M1292.31,-111.38C1320.84,-102.7 1367.51,-88.5 1401.13,-78.27"/>
<polygon fill="#63b8ff" stroke="#63b8ff" points="1401.99,-81.67 1410.54,-75.41 1399.95,-74.97 1401.99,-81.67"/>
</a>
</g>
</g>
<!-- Node8 -->
<g id="Node000008" class="node">
<title>Node8</title>
<g id="a_Node000008"><a xlink:title=" ">
<polygon fill="#e0e0e0" stroke="#999999" points="1386.49,-74.5 1329.24,-74.5 1329.24,-55.25 1386.49,-55.25 1386.49,-74.5"/>
<text text-anchor="middle" x="1357.86" y="-61" font-family="Helvetica,sans-Serif" font-size="10.00">TFrame.h</text>
</a>
</g>
</g>
<!-- Node2&#45;&gt;Node8 -->
<g id="edge7_Node000002_Node000008" class="edge">
<title>Node2&#45;&gt;Node8</title>
<g id="a_edge7_Node000002_Node000008"><a xlink:title=" ">
<path fill="none" stroke="#63b8ff" d="M1282.3,-110.09C1296.03,-102.06 1316.36,-90.16 1332.48,-80.73"/>
<polygon fill="#63b8ff" stroke="#63b8ff" points="1334.18,-83.79 1341.04,-75.72 1330.64,-77.75 1334.18,-83.79"/>
</a>
</g>
</g>
<!-- Node9 -->
<g id="Node000009" class="node">
<title>Node9</title>
<g id="a_Node000009"><a xlink:title=" ">
<polygon fill="#e0e0e0" stroke="#999999" points="1234.86,-74.5 1182.86,-74.5 1182.86,-55.25 1234.86,-55.25 1234.86,-74.5"/>
<text text-anchor="middle" x="1208.86" y="-61" font-family="Helvetica,sans-Serif" font-size="10.00">TCutG.h</text>
</a>
</g>
</g>
<!-- Node2&#45;&gt;Node9 -->
<g id="edge8_Node000002_Node000009" class="edge">
<title>Node2&#45;&gt;Node9</title>
<g id="a_edge8_Node000002_Node000009"><a xlink:title=" ">
<path fill="none" stroke="#63b8ff" d="M1257.02,-110.09C1248.81,-102.55 1236.88,-91.6 1226.95,-82.48"/>
<polygon fill="#63b8ff" stroke="#63b8ff" points="1229.4,-79.98 1219.67,-75.8 1224.67,-85.14 1229.4,-79.98"/>
</a>
</g>
</g>
<!-- Node10 -->
<g id="Node000010" class="node">
<title>Node10</title>
<g id="a_Node000010"><a xlink:href="_g_h2_base_8h.html" target="_top" xlink:title=" ">
<polygon fill="white" stroke="#666666" points="1600.99,-74.5 1534.74,-74.5 1534.74,-55.25 1600.99,-55.25 1600.99,-74.5"/>
<text text-anchor="middle" x="1567.86" y="-61" font-family="Helvetica,sans-Serif" font-size="10.00">GH2Base.h</text>
</a>
</g>
</g>
<!-- Node2&#45;&gt;Node10 -->
<g id="edge9_Node000002_Node000010" class="edge">
<title>Node2&#45;&gt;Node10</title>
<g id="a_edge9_Node000002_Node000010"><a xlink:title=" ">
<path fill="none" stroke="#63b8ff" d="M1292.43,-112.4C1295.27,-111.72 1298.12,-111.08 1300.86,-110.5 1378.63,-94.17 1470.15,-79.94 1523.33,-72.16"/>
<polygon fill="#63b8ff" stroke="#63b8ff" points="1523.5,-75.68 1532.9,-70.78 1522.5,-68.75 1523.5,-75.68"/>
</a>
</g>
</g>
<!-- Node10&#45;&gt;Node3 -->
<g id="edge10_Node000010_Node000003" class="edge">
<title>Node10&#45;&gt;Node3</title>
<g id="a_edge10_Node000010_Node000003"><a xlink:title=" ">
<path fill="none" stroke="#63b8ff" d="M1536.14,-54.84C1501.88,-45.08 1447.57,-29.62 1413.11,-19.81"/>
<polygon fill="#63b8ff" stroke="#63b8ff" points="1414.27,-16.5 1403.69,-17.13 1412.35,-23.23 1414.27,-16.5"/>
</a>
</g>
</g>
<!-- Node10&#45;&gt;Node4 -->
<g id="edge12_Node000010_Node000004" class="edge">
<title>Node10&#45;&gt;Node4</title>
<g id="a_edge12_Node000010_Node000004"><a xlink:title=" ">
<path fill="none" stroke="#63b8ff" d="M1578.55,-54.84C1587.56,-47.22 1600.69,-36.12 1611.54,-26.95"/>
<polygon fill="#63b8ff" stroke="#63b8ff" points="1613.8,-29.63 1619.18,-20.5 1609.28,-24.28 1613.8,-29.63"/>
</a>
</g>
</g>
<!-- Node10&#45;&gt;Node5 -->
<g id="edge13_Node000010_Node000005" class="edge">
<title>Node10&#45;&gt;Node5</title>
<g id="a_edge13_Node000010_Node000005"><a xlink:title=" ">
<path fill="none" stroke="#63b8ff" d="M1566.71,-55.08C1565.84,-48.49 1564.62,-39.21 1563.52,-30.82"/>
<polygon fill="#63b8ff" stroke="#63b8ff" points="1567.01,-30.57 1562.24,-21.11 1560.07,-31.48 1567.01,-30.57"/>
</a>
</g>
</g>
<!-- Node10&#45;&gt;Node6 -->
<g id="edge14_Node000010_Node000006" class="edge">
<title>Node10&#45;&gt;Node6</title>
<g id="a_edge14_Node000010_Node000006"><a xlink:title=" ">
<path fill="none" stroke="#63b8ff" d="M1597.55,-54.84C1628.34,-45.47 1676.42,-30.84 1708.76,-21"/>
<polygon fill="#63b8ff" stroke="#63b8ff" points="1709.49,-24.44 1718.04,-18.18 1707.45,-17.74 1709.49,-24.44"/>
</a>
</g>
</g>
<!-- Node11 -->
<g id="Node000011" class="node">
<title>Node11</title>
<g id="a_Node000011"><a xlink:title=" ">
<polygon fill="#e0e0e0" stroke="#999999" points="119.49,-19.25 74.24,-19.25 74.24,0 119.49,0 119.49,-19.25"/>
<text text-anchor="middle" x="96.86" y="-5.75" font-family="Helvetica,sans-Serif" font-size="10.00">cstdint</text>
</a>
</g>
</g>
<!-- Node10&#45;&gt;Node11 -->
<g id="edge11_Node000010_Node000011" class="edge">
<title>Node10&#45;&gt;Node11</title>
<g id="a_edge11_Node000010_Node000011"><a xlink:title=" ">
<path fill="none" stroke="#63b8ff" d="M1534.44,-59.7C1520.12,-58.06 1503.19,-56.32 1487.86,-55.25 947.57,-17.51 286.96,-11.65 130.99,-10.77"/>
<polygon fill="#63b8ff" stroke="#63b8ff" points="131.37,-7.27 121.35,-10.72 131.33,-14.27 131.37,-7.27"/>
</a>
</g>
</g>
<!-- Node14&#45;&gt;Node6 -->
<g id="edge23_Node000014_Node000006" class="edge">
<title>Node14&#45;&gt;Node6</title>
<g id="a_edge23_Node000014_Node000006"><a xlink:title=" ">
<path fill="none" stroke="#63b8ff" d="M1417.41,-167.55C1420.25,-166.9 1423.11,-166.28 1425.86,-165.75 1485.96,-154.21 1651.05,-167.94 1698.86,-129.75 1729.35,-105.4 1738.71,-57.79 1741.59,-30.71"/>
<polygon fill="#63b8ff" stroke="#63b8ff" points="1745.05,-31.33 1742.4,-21.07 1738.07,-30.75 1745.05,-31.33"/>
</a>
</g>
</g>
<!-- Node14&#45;&gt;Node11 -->
<g id="edge18_Node000014_Node000011" class="edge">
<title>Node14&#45;&gt;Node11</title>
<g id="a_edge18_Node000014_Node000011"><a xlink:title=" ">
<path fill="none" stroke="#63b8ff" d="M1366.18,-174.6C1184.73,-175.96 100.5,-179.6 5.86,-74.5 -15.64,-50.62 29.31,-30.79 63.37,-19.83"/>
<polygon fill="#63b8ff" stroke="#63b8ff" points="63.97,-23.31 72.51,-17.04 61.92,-16.62 63.97,-23.31"/>
</a>
</g>
</g>
<!-- Node15 -->
<g id="Node000015" class="node">
<title>Node15</title>
<g id="a_Node000015"><a xlink:title=" ">
<polygon fill="#e0e0e0" stroke="#999999" points="1351.99,-129.75 1309.74,-129.75 1309.74,-110.5 1351.99,-110.5 1351.99,-129.75"/>
<text text-anchor="middle" x="1330.86" y="-116.25" font-family="Helvetica,sans-Serif" font-size="10.00">TH1.h</text>
</a>
</g>
</g>
<!-- Node14&#45;&gt;Node15 -->
<g id="edge19_Node000014_Node000015" class="edge">
<title>Node14&#45;&gt;Node15</title>
<g id="a_edge19_Node000014_Node000015"><a xlink:title=" ">
<path fill="none" stroke="#63b8ff" d="M1381.51,-165.34C1372.79,-157.72 1360.07,-146.62 1349.57,-137.45"/>
<polygon fill="#63b8ff" stroke="#63b8ff" points="1352.03,-134.96 1342.2,-131.02 1347.43,-140.23 1352.03,-134.96"/>
</a>
</g>
</g>
<!-- Node16 -->
<g id="Node000016" class="node">
<title>Node16</title>
<g id="a_Node000016"><a xlink:title=" ">
<polygon fill="#e0e0e0" stroke="#999999" points="1414.11,-129.75 1369.61,-129.75 1369.61,-110.5 1414.11,-110.5 1414.11,-129.75"/>
<text text-anchor="middle" x="1391.86" y="-116.25" font-family="Helvetica,sans-Serif" font-size="10.00">TRef.h</text>
</a>
</g>
</g>
<!-- Node14&#45;&gt;Node16 -->
<g id="edge20_Node000014_Node000016" class="edge">
<title>Node14&#45;&gt;Node16</title>
<g id="a_edge20_Node000014_Node000016"><a xlink:title=" ">
<path fill="none" stroke="#63b8ff" d="M1391.86,-165.58C1391.86,-159.07 1391.86,-149.92 1391.86,-141.62"/>
<polygon fill="#63b8ff" stroke="#63b8ff" points="1395.36,-141.62 1391.86,-131.62 1388.36,-141.62 1395.36,-141.62"/>
</a>
</g>
</g>
<!-- Node17 -->
<g id="Node000017" class="node">
<title>Node17</title>
<g id="a_Node000017"><a xlink:title=" ">
<polygon fill="#e0e0e0" stroke="#999999" points="1479.24,-129.75 1432.49,-129.75 1432.49,-110.5 1479.24,-110.5 1479.24,-129.75"/>
<text text-anchor="middle" x="1455.86" y="-116.25" font-family="Helvetica,sans-Serif" font-size="10.00">TPad.h</text>
</a>
</g>
</g>
<!-- Node14&#45;&gt;Node17 -->
<g id="edge21_Node000014_Node000017" class="edge">
<title>Node14&#45;&gt;Node17</title>
<g id="a_edge21_Node000014_Node000017"><a xlink:title=" ">
<path fill="none" stroke="#63b8ff" d="M1402.72,-165.34C1411.97,-157.65 1425.49,-146.4 1436.57,-137.18"/>
<polygon fill="#63b8ff" stroke="#63b8ff" points="1438.55,-140.08 1444,-130.99 1434.08,-134.7 1438.55,-140.08"/>
</a>
</g>
</g>
<!-- Node18 -->
<g id="Node000018" class="node">
<title>Node18</title>
<g id="a_Node000018"><a xlink:title=" ">
<polygon fill="#e0e0e0" stroke="#999999" points="1562.24,-129.75 1497.49,-129.75 1497.49,-110.5 1562.24,-110.5 1562.24,-129.75"/>
<text text-anchor="middle" x="1529.86" y="-116.25" font-family="Helvetica,sans-Serif" font-size="10.00">GuiTypes.h</text>
</a>
</g>
</g>
<!-- Node14&#45;&gt;Node18 -->
<g id="edge22_Node000014_Node000018" class="edge">
<title>Node14&#45;&gt;Node18</title>
<g id="a_edge22_Node000014_Node000018"><a xlink:title=" ">
<path fill="none" stroke="#63b8ff" d="M1415.27,-165.34C1437.38,-156.81 1470.78,-143.92 1495.83,-134.26"/>
<polygon fill="#63b8ff" stroke="#63b8ff" points="1496.86,-137.61 1504.93,-130.75 1494.34,-131.08 1496.86,-137.61"/>
</a>
</g>
</g>
<!-- Node19 -->
<g id="Node000019" class="node">
<title>Node19</title>
<g id="a_Node000019"><a xlink:title=" ">
<polygon fill="#e0e0e0" stroke="#999999" points="1625.86,-129.75 1579.86,-129.75 1579.86,-110.5 1625.86,-110.5 1625.86,-129.75"/>
<text text-anchor="middle" x="1602.86" y="-116.25" font-family="Helvetica,sans-Serif" font-size="10.00">TBox.h</text>
</a>
</g>
</g>
<!-- Node14&#45;&gt;Node19 -->
<g id="edge24_Node000014_Node000019" class="edge">
<title>Node14&#45;&gt;Node19</title>
<g id="a_edge24_Node000014_Node000019"><a xlink:title=" ">
<path fill="none" stroke="#63b8ff" d="M1417.48,-167.86C1420.31,-167.15 1423.14,-166.43 1425.86,-165.75 1486.87,-150.44 1504.73,-146.76 1568.38,-130.35"/>
<polygon fill="#63b8ff" stroke="#63b8ff" points="1569.19,-133.76 1577.99,-127.87 1567.43,-126.98 1569.19,-133.76"/>
</a>
</g>
</g>
<!-- Node20 -->
<g id="Node000020" class="node">
<title>Node20</title>
<g id="a_Node000020"><a xlink:href="_globals_8h.html" target="_top" xlink:title=" ">
<polygon fill="white" stroke="#666666" points="597.11,-129.75 540.61,-129.75 540.61,-110.5 597.11,-110.5 597.11,-129.75"/>
<text text-anchor="middle" x="568.86" y="-116.25" font-family="Helvetica,sans-Serif" font-size="10.00">Globals.h</text>
</a>
</g>
</g>
<!-- Node14&#45;&gt;Node20 -->
<g id="edge25_Node000014_Node000020" class="edge">
<title>Node14&#45;&gt;Node20</title>
<g id="a_edge25_Node000014_Node000020"><a xlink:title=" ">
<path fill="none" stroke="#63b8ff" d="M1366.33,-172.72C1248.1,-165.07 753.49,-133.07 608.79,-123.71"/>
<polygon fill="#63b8ff" stroke="#63b8ff" points="609.15,-120.22 598.94,-123.07 608.69,-127.21 609.15,-120.22"/>
</a>
</g>
</g>
<!-- Node36 -->
<g id="Node000036" class="node">
<title>Node36</title>
<g id="a_Node000036"><a xlink:href="_g_h2_i_8h.html" target="_top" xlink:title=" ">
<polygon fill="white" stroke="#666666" points="1690.24,-129.75 1643.49,-129.75 1643.49,-110.5 1690.24,-110.5 1690.24,-129.75"/>
<text text-anchor="middle" x="1666.86" y="-116.25" font-family="Helvetica,sans-Serif" font-size="10.00">GH2I.h</text>
</a>
</g>
</g>
<!-- Node14&#45;&gt;Node36 -->
<g id="edge44_Node000014_Node000036" class="edge">
<title>Node14&#45;&gt;Node36</title>
<g id="a_edge44_Node000014_Node000036"><a xlink:title=" ">
<path fill="none" stroke="#63b8ff" d="M1417.43,-167.66C1420.27,-166.98 1423.12,-166.33 1425.86,-165.75 1514.55,-146.89 1540.83,-149.77 1632.01,-130.21"/>
<polygon fill="#63b8ff" stroke="#63b8ff" points="1632.65,-133.65 1641.68,-128.1 1631.16,-126.81 1632.65,-133.65"/>
</a>
</g>
</g>
<!-- Node20&#45;&gt;Node3 -->
<g id="edge30_Node000020_Node000003" class="edge">
<title>Node20&#45;&gt;Node3</title>
<g id="a_edge30_Node000020_Node000003"><a xlink:title=" ">
<path fill="none" stroke="#63b8ff" d="M540.15,-119.1C437.65,-118.54 98.77,-112.38 153.86,-55.25 196.48,-11.05 1156.59,-10.27 1347.89,-10.55"/>
<polygon fill="#63b8ff" stroke="#63b8ff" points="1347.84,-14.05 1357.84,-10.57 1347.85,-7.05 1347.84,-14.05"/>
</a>
</g>
</g>
<!-- Node20&#45;&gt;Node11 -->
<g id="edge31_Node000020_Node000011" class="edge">
<title>Node20&#45;&gt;Node11</title>
<g id="a_edge31_Node000020_Node000011"><a xlink:title=" ">
<path fill="none" stroke="#63b8ff" d="M540.31,-118.01C446.84,-114.14 154.13,-100.07 120.86,-74.5 107.35,-64.11 101.45,-45.23 98.86,-30.68"/>
<polygon fill="#63b8ff" stroke="#63b8ff" points="102.34,-30.28 97.55,-20.83 95.4,-31.2 102.34,-30.28"/>
</a>
</g>
</g>
<!-- Node20&#45;&gt;Node12 -->
<g id="edge26_Node000020_Node000012" class="edge">
<title>Node20&#45;&gt;Node12</title>
<g id="a_edge26_Node000020_Node000012"><a xlink:title=" ">
<path fill="none" stroke="#63b8ff" d="M540.24,-117.66C464.98,-113.55 255.46,-100.49 82.86,-74.5 81.85,-74.35 80.84,-74.19 79.81,-74.02"/>
<polygon fill="#63b8ff" stroke="#63b8ff" points="80.64,-70.61 70.18,-72.26 79.38,-77.5 80.64,-70.61"/>
</a>
</g>
</g>
<!-- Node21 -->
<g id="Node000021" class="node">
<title>Node21</title>
<g id="a_Node000021"><a xlink:title=" ">
<polygon fill="#e0e0e0" stroke="#999999" points="890.74,-74.5 840.99,-74.5 840.99,-55.25 890.74,-55.25 890.74,-74.5"/>
<text text-anchor="middle" x="865.86" y="-61" font-family="Helvetica,sans-Serif" font-size="10.00">iomanip</text>
</a>
</g>
</g>
<!-- Node20&#45;&gt;Node21 -->
<g id="edge27_Node000020_Node000021" class="edge">
<title>Node20&#45;&gt;Node21</title>
<g id="a_edge27_Node000020_Node000021"><a xlink:title=" ">
<path fill="none" stroke="#63b8ff" d="M597.41,-115.05C643.96,-108.24 739.3,-93.61 829.67,-74.82"/>
<polygon fill="#63b8ff" stroke="#63b8ff" points="830.12,-78.3 839.18,-72.82 828.68,-71.45 830.12,-78.3"/>
</a>
</g>
</g>
<!-- Node22 -->
<g id="Node000022" class="node">
<title>Node22</title>
<g id="a_Node000022"><a xlink:title=" ">
<polygon fill="#e0e0e0" stroke="#999999" points="966.86,-74.5 908.86,-74.5 908.86,-55.25 966.86,-55.25 966.86,-74.5"/>
<text text-anchor="middle" x="937.86" y="-61" font-family="Helvetica,sans-Serif" font-size="10.00">stdexcept</text>
</a>
</g>
</g>
<!-- Node20&#45;&gt;Node22 -->
<g id="edge28_Node000020_Node000022" class="edge">
<title>Node20&#45;&gt;Node22</title>
<g id="a_edge28_Node000020_Node000022"><a xlink:title=" ">
<path fill="none" stroke="#63b8ff" d="M597.33,-116.15C652.99,-110.16 780.3,-95.54 897.18,-74.84"/>
<polygon fill="#63b8ff" stroke="#63b8ff" points="897.74,-78.3 906.97,-73.09 896.51,-71.41 897.74,-78.3"/>
</a>
</g>
</g>
<!-- Node23 -->
<g id="Node000023" class="node">
<title>Node23</title>
<g id="a_Node000023"><a xlink:title=" ">
<polygon fill="#e0e0e0" stroke="#999999" points="1024.86,-74.5 984.86,-74.5 984.86,-55.25 1024.86,-55.25 1024.86,-74.5"/>
<text text-anchor="middle" x="1004.86" y="-61" font-family="Helvetica,sans-Serif" font-size="10.00">string</text>
</a>
</g>
</g>
<!-- Node20&#45;&gt;Node23 -->
<g id="edge29_Node000020_Node000023" class="edge">
<title>Node20&#45;&gt;Node23</title>
<g id="a_edge29_Node000020_Node000023"><a xlink:title=" ">
<path fill="none" stroke="#63b8ff" d="M597.26,-117.77C662.3,-114.3 827.15,-103.39 973.44,-74.65"/>
<polygon fill="#63b8ff" stroke="#63b8ff" points="973.78,-78.15 982.9,-72.76 972.41,-71.29 973.78,-78.15"/>
</a>
</g>
</g>
<!-- Node24 -->
<g id="Node000024" class="node">
<title>Node24</title>
<g id="a_Node000024"><a xlink:title=" ">
<polygon fill="#e0e0e0" stroke="#999999" points="1087.11,-74.5 1042.61,-74.5 1042.61,-55.25 1087.11,-55.25 1087.11,-74.5"/>
<text text-anchor="middle" x="1064.86" y="-61" font-family="Helvetica,sans-Serif" font-size="10.00">cstdlib</text>
</a>
</g>
</g>
<!-- Node20&#45;&gt;Node24 -->
<g id="edge32_Node000020_Node000024" class="edge">
<title>Node20&#45;&gt;Node24</title>
<g id="a_edge32_Node000020_Node000024"><a xlink:title=" ">
<path fill="none" stroke="#63b8ff" d="M597.41,-118.13C668.98,-115.27 861.87,-105.28 1031.17,-74.7"/>
<polygon fill="#63b8ff" stroke="#63b8ff" points="1031.59,-78.18 1040.79,-72.93 1030.33,-71.29 1031.59,-78.18"/>
</a>
</g>
</g>
<!-- Node25 -->
<g id="Node000025" class="node">
<title>Node25</title>
<g id="a_Node000025"><a xlink:title=" ">
<polygon fill="#e0e0e0" stroke="#999999" points="1164.61,-74.5 1105.11,-74.5 1105.11,-55.25 1164.61,-55.25 1164.61,-74.5"/>
<text text-anchor="middle" x="1134.86" y="-61" font-family="Helvetica,sans-Serif" font-size="10.00">execinfo.h</text>
</a>
</g>
</g>
<!-- Node20&#45;&gt;Node25 -->
<g id="edge33_Node000020_Node000025" class="edge">
<title>Node20&#45;&gt;Node25</title>
<g id="a_edge33_Node000020_Node000025"><a xlink:title=" ">
<path fill="none" stroke="#63b8ff" d="M597.58,-118.04C675.64,-114.8 898.35,-103.68 1093.38,-74.67"/>
<polygon fill="#63b8ff" stroke="#63b8ff" points="1093.84,-78.14 1103.21,-73.19 1092.8,-71.22 1093.84,-78.14"/>
</a>
</g>
</g>
<!-- Node26 -->
<g id="Node000026" class="node">
<title>Node26</title>
<g id="a_Node000026"><a xlink:title=" ">
<polygon fill="#e0e0e0" stroke="#999999" points="213.11,-74.5 162.61,-74.5 162.61,-55.25 213.11,-55.25 213.11,-74.5"/>
<text text-anchor="middle" x="187.86" y="-61" font-family="Helvetica,sans-Serif" font-size="10.00">cxxabi.h</text>
</a>
</g>
</g>
<!-- Node20&#45;&gt;Node26 -->
<g id="edge34_Node000020_Node000026" class="edge">
<title>Node20&#45;&gt;Node26</title>
<g id="a_edge34_Node000020_Node000026"><a xlink:title=" ">
<path fill="none" stroke="#63b8ff" d="M540.34,-116.63C482.55,-111.33 347.34,-97.66 224.49,-74.8"/>
<polygon fill="#63b8ff" stroke="#63b8ff" points="225.37,-71.41 214.9,-72.99 224.07,-78.28 225.37,-71.41"/>
</a>
</g>
</g>
<!-- Node27 -->
<g id="Node000027" class="node">
<title>Node27</title>
<g id="a_Node000027"><a xlink:title=" ">
<polygon fill="#e0e0e0" stroke="#999999" points="282.49,-74.5 231.24,-74.5 231.24,-55.25 282.49,-55.25 282.49,-74.5"/>
<text text-anchor="middle" x="256.86" y="-61" font-family="Helvetica,sans-Serif" font-size="10.00">sstream</text>
</a>
</g>
</g>
<!-- Node20&#45;&gt;Node27 -->
<g id="edge35_Node000020_Node000027" class="edge">
<title>Node20&#45;&gt;Node27</title>
<g id="a_edge35_Node000020_Node000027"><a xlink:title=" ">
<path fill="none" stroke="#63b8ff" d="M540.41,-115.33C491.93,-108.68 390.01,-93.99 293.89,-74.76"/>
<polygon fill="#63b8ff" stroke="#63b8ff" points="294.78,-71.37 284.29,-72.82 293.39,-78.23 294.78,-71.37"/>
</a>
</g>
</g>
<!-- Node28 -->
<g id="Node000028" class="node">
<title>Node28</title>
<g id="a_Node000028"><a xlink:title=" ">
<polygon fill="#e0e0e0" stroke="#999999" points="337.36,-74.5 300.36,-74.5 300.36,-55.25 337.36,-55.25 337.36,-74.5"/>
<text text-anchor="middle" x="318.86" y="-61" font-family="Helvetica,sans-Serif" font-size="10.00">array</text>
</a>
</g>
</g>
<!-- Node20&#45;&gt;Node28 -->
<g id="edge36_Node000020_Node000028" class="edge">
<title>Node20&#45;&gt;Node28</title>
<g id="a_edge36_Node000020_Node000028"><a xlink:title=" ">
<path fill="none" stroke="#63b8ff" d="M540.27,-114.33C499.79,-107.33 423.25,-93.35 348.74,-74.76"/>
<polygon fill="#63b8ff" stroke="#63b8ff" points="349.79,-71.41 339.23,-72.35 348.07,-78.2 349.79,-71.41"/>
</a>
</g>
</g>
<!-- Node29 -->
<g id="Node000029" class="node">
<title>Node29</title>
<g id="a_Node000029"><a xlink:title=" ">
<polygon fill="#e0e0e0" stroke="#999999" points="406.11,-74.5 355.61,-74.5 355.61,-55.25 406.11,-55.25 406.11,-74.5"/>
<text text-anchor="middle" x="380.86" y="-61" font-family="Helvetica,sans-Serif" font-size="10.00">memory</text>
</a>
</g>
</g>
<!-- Node20&#45;&gt;Node29 -->
<g id="edge37_Node000020_Node000029" class="edge">
<title>Node20&#45;&gt;Node29</title>
<g id="a_edge37_Node000020_Node000029"><a xlink:title=" ">
<path fill="none" stroke="#63b8ff" d="M540.31,-111.04C507.4,-101.72 453.26,-86.38 417.33,-76.21"/>
<polygon fill="#63b8ff" stroke="#63b8ff" points="418.39,-72.87 407.81,-73.51 416.48,-79.6 418.39,-72.87"/>
</a>
</g>
</g>
<!-- Node30 -->
<g id="Node000030" class="node">
<title>Node30</title>
<g id="a_Node000030"><a xlink:title=" ">
<polygon fill="#e0e0e0" stroke="#999999" points="473.74,-74.5 423.99,-74.5 423.99,-55.25 473.74,-55.25 473.74,-74.5"/>
<text text-anchor="middle" x="448.86" y="-61" font-family="Helvetica,sans-Serif" font-size="10.00">unistd.h</text>
</a>
</g>
</g>
<!-- Node20&#45;&gt;Node30 -->
<g id="edge38_Node000020_Node000030" class="edge">
<title>Node20&#45;&gt;Node30</title>
<g id="a_edge38_Node000020_Node000030"><a xlink:title=" ">
<path fill="none" stroke="#63b8ff" d="M548.51,-110.09C529.63,-101.72 501.27,-89.13 479.63,-79.53"/>
<polygon fill="#63b8ff" stroke="#63b8ff" points="481.26,-76.42 470.7,-75.57 478.42,-82.82 481.26,-76.42"/>
</a>
</g>
</g>
<!-- Node31 -->
<g id="Node000031" class="node">
<title>Node31</title>
<g id="a_Node000031"><a xlink:title=" ">
<polygon fill="#e0e0e0" stroke="#999999" points="526.24,-74.5 491.49,-74.5 491.49,-55.25 526.24,-55.25 526.24,-74.5"/>
<text text-anchor="middle" x="508.86" y="-61" font-family="Helvetica,sans-Serif" font-size="10.00">map</text>
</a>
</g>
</g>
<!-- Node20&#45;&gt;Node31 -->
<g id="edge39_Node000020_Node000031" class="edge">
<title>Node20&#45;&gt;Node31</title>
<g id="a_edge39_Node000020_Node000031"><a xlink:title=" ">
<path fill="none" stroke="#63b8ff" d="M558.68,-110.09C550.1,-102.47 537.59,-91.37 527.26,-82.2"/>
<polygon fill="#63b8ff" stroke="#63b8ff" points="529.82,-79.8 520.02,-75.78 525.18,-85.04 529.82,-79.8"/>
</a>
</g>
</g>
<!-- Node32 -->
<g id="Node000032" class="node">
<title>Node32</title>
<g id="a_Node000032"><a xlink:title=" ">
<polygon fill="#e0e0e0" stroke="#999999" points="593.36,-74.5 544.36,-74.5 544.36,-55.25 593.36,-55.25 593.36,-74.5"/>
<text text-anchor="middle" x="568.86" y="-61" font-family="Helvetica,sans-Serif" font-size="10.00">fstream</text>
</a>
</g>
</g>
<!-- Node20&#45;&gt;Node32 -->
<g id="edge40_Node000020_Node000032" class="edge">
<title>Node20&#45;&gt;Node32</title>
<g id="a_edge40_Node000020_Node000032"><a xlink:title=" ">
<path fill="none" stroke="#63b8ff" d="M568.86,-110.33C568.86,-103.82 568.86,-94.67 568.86,-86.37"/>
<polygon fill="#63b8ff" stroke="#63b8ff" points="572.36,-86.37 568.86,-76.37 565.36,-86.37 572.36,-86.37"/>
</a>
</g>
</g>
<!-- Node33 -->
<g id="Node000033" class="node">
<title>Node33</title>
<g id="a_Node000033"><a xlink:title=" ">
<polygon fill="#e0e0e0" stroke="#999999" points="666.74,-74.5 610.99,-74.5 610.99,-55.25 666.74,-55.25 666.74,-74.5"/>
<text text-anchor="middle" x="638.86" y="-61" font-family="Helvetica,sans-Serif" font-size="10.00">algorithm</text>
</a>
</g>
</g>
<!-- Node20&#45;&gt;Node33 -->
<g id="edge41_Node000020_Node000033" class="edge">
<title>Node20&#45;&gt;Node33</title>
<g id="a_edge41_Node000020_Node000033"><a xlink:title=" ">
<path fill="none" stroke="#63b8ff" d="M580.74,-110.09C590.95,-102.32 605.93,-90.92 618.13,-81.65"/>
<polygon fill="#63b8ff" stroke="#63b8ff" points="620.12,-84.53 625.96,-75.69 615.88,-78.96 620.12,-84.53"/>
</a>
</g>
</g>
<!-- Node34 -->
<g id="Node000034" class="node">
<title>Node34</title>
<g id="a_Node000034"><a xlink:title=" ">
<polygon fill="#e0e0e0" stroke="#999999" points="744.61,-74.5 685.11,-74.5 685.11,-55.25 744.61,-55.25 744.61,-74.5"/>
<text text-anchor="middle" x="714.86" y="-61" font-family="Helvetica,sans-Serif" font-size="10.00">sys/wait.h</text>
</a>
</g>
</g>
<!-- Node20&#45;&gt;Node34 -->
<g id="edge42_Node000020_Node000034" class="edge">
<title>Node20&#45;&gt;Node34</title>
<g id="a_edge42_Node000020_Node000034"><a xlink:title=" ">
<path fill="none" stroke="#63b8ff" d="M593.63,-110.09C617.12,-101.52 652.67,-88.56 679.21,-78.88"/>
<polygon fill="#63b8ff" stroke="#63b8ff" points="680.36,-82.19 688.55,-75.47 677.96,-75.61 680.36,-82.19"/>
</a>
</g>
</g>
<!-- Node35 -->
<g id="Node000035" class="node">
<title>Node35</title>
<g id="a_Node000035"><a xlink:title=" ">
<polygon fill="#e0e0e0" stroke="#999999" points="822.99,-74.5 762.74,-74.5 762.74,-55.25 822.99,-55.25 822.99,-74.5"/>
<text text-anchor="middle" x="792.86" y="-61" font-family="Helvetica,sans-Serif" font-size="10.00">sys/prctl.h</text>
</a>
</g>
</g>
<!-- Node20&#45;&gt;Node35 -->
<g id="edge43_Node000020_Node000035" class="edge">
<title>Node20&#45;&gt;Node35</title>
<g id="a_edge43_Node000020_Node000035"><a xlink:title=" ">
<path fill="none" stroke="#63b8ff" d="M597.23,-112.38C636.22,-103.11 706.62,-86.38 751.48,-75.71"/>
<polygon fill="#63b8ff" stroke="#63b8ff" points="752.19,-79.14 761.11,-73.42 750.57,-72.33 752.19,-79.14"/>
</a>
</g>
</g>
<!-- Node36&#45;&gt;Node3 -->
<g id="edge45_Node000036_Node000003" class="edge">
<title>Node36&#45;&gt;Node3</title>
<g id="a_edge45_Node000036_Node000003"><a xlink:title=" ">
<path fill="none" stroke="#63b8ff" d="M1643.19,-112.14C1608.95,-101.96 1547.37,-83.28 1525.86,-74.5 1508.33,-67.34 1505.05,-63.18 1487.86,-55.25 1462.96,-43.77 1434.25,-31.87 1412.85,-23.25"/>
<polygon fill="#63b8ff" stroke="#63b8ff" points="1414.37,-20.08 1403.78,-19.62 1411.77,-26.58 1414.37,-20.08"/>
</a>
</g>
</g>
<!-- Node36&#45;&gt;Node4 -->
<g id="edge46_Node000036_Node000004" class="edge">
<title>Node36&#45;&gt;Node4</title>
<g id="a_edge46_Node000036_Node000004"><a xlink:title=" ">
<path fill="none" stroke="#63b8ff" d="M1672.27,-110.09C1679.13,-97.37 1689.12,-73.69 1680.86,-55.25 1675.65,-43.62 1665.75,-33.78 1656.13,-26.32"/>
<polygon fill="#63b8ff" stroke="#63b8ff" points="1658.19,-23.49 1648.01,-20.55 1654.14,-29.2 1658.19,-23.49"/>
</a>
</g>
</g>
<!-- Node36&#45;&gt;Node5 -->
<g id="edge47_Node000036_Node000005" class="edge">
<title>Node36&#45;&gt;Node5</title>
<g id="a_edge47_Node000036_Node000005"><a xlink:title=" ">
<path fill="none" stroke="#63b8ff" d="M1659.4,-110.19C1648.76,-97.59 1628.47,-74.05 1609.86,-55.25 1600.27,-45.56 1589.06,-35.28 1579.78,-27.03"/>
<polygon fill="#63b8ff" stroke="#63b8ff" points="1582.24,-24.53 1572.42,-20.56 1577.62,-29.79 1582.24,-24.53"/>
</a>
</g>
</g>
<!-- Node36&#45;&gt;Node6 -->
<g id="edge48_Node000036_Node000006" class="edge">
<title>Node36&#45;&gt;Node6</title>
<g id="a_edge48_Node000036_Node000006"><a xlink:title=" ">
<path fill="none" stroke="#63b8ff" d="M1673.08,-110.25C1685.5,-92.52 1713.57,-52.44 1730.08,-28.88"/>
<polygon fill="#63b8ff" stroke="#63b8ff" points="1732.82,-31.06 1735.69,-20.87 1727.08,-27.05 1732.82,-31.06"/>
</a>
</g>
</g>
<!-- Node36&#45;&gt;Node7 -->
<g id="edge49_Node000036_Node000007" class="edge">
<title>Node36&#45;&gt;Node7</title>
<g id="a_edge49_Node000036_Node000007"><a xlink:title=" ">
<path fill="none" stroke="#63b8ff" d="M1643.12,-112.62C1640.34,-111.89 1637.54,-111.17 1634.86,-110.5 1585.82,-98.23 1529.47,-85.34 1490.37,-76.58"/>
<polygon fill="#63b8ff" stroke="#63b8ff" points="1491.32,-73.21 1480.79,-74.45 1489.79,-80.04 1491.32,-73.21"/>
</a>
</g>
</g>
<!-- Node36&#45;&gt;Node8 -->
<g id="edge50_Node000036_Node000008" class="edge">
<title>Node36&#45;&gt;Node8</title>
<g id="a_edge50_Node000036_Node000008"><a xlink:title=" ">
<path fill="none" stroke="#63b8ff" d="M1643.17,-112.42C1640.38,-111.72 1637.57,-111.07 1634.86,-110.5 1533.21,-89.22 1503.39,-94.04 1397.99,-74.76"/>
<polygon fill="#63b8ff" stroke="#63b8ff" points="1398.82,-71.36 1388.35,-72.97 1397.54,-78.24 1398.82,-71.36"/>
</a>
</g>
</g>
<!-- Node36&#45;&gt;Node10 -->
<g id="edge51_Node000036_Node000010" class="edge">
<title>Node36&#45;&gt;Node10</title>
<g id="a_edge51_Node000036_Node000010"><a xlink:title=" ">
<path fill="none" stroke="#63b8ff" d="M1650.07,-110.09C1634.85,-101.91 1612.17,-89.71 1594.48,-80.19"/>
<polygon fill="#63b8ff" stroke="#63b8ff" points="1596.54,-77.32 1586.07,-75.67 1593.22,-83.49 1596.54,-77.32"/>
</a>
</g>
</g>
</g>
</svg>
