<?xml version="1.0" encoding="UTF-8" standalone="no"?>
<!DOCTYPE svg PUBLIC "-//W3C//DTD SVG 1.1//EN"
 "http://www.w3.org/Graphics/SVG/1.1/DTD/svg11.dtd">
<!-- Generated by graphviz version 9.0.0 (20230911.1827)
 -->
<!-- Title: GH2I.cxx Pages: 1 -->
<!--zoomable 248 -->

<svg id="main" version="1.1" xmlns="http://www.w3.org/2000/svg" xmlns:xlink="http://www.w3.org/1999/xlink" xml:space="preserve" onload="init(evt)">
<style type="text/css"><![CDATA[
.node, .edge {opacity: 0.7;}
.node.selected, .edge.selected {opacity: 1;}
.edge:hover path { stroke: red; }
.edge:hover polygon { stroke: red; fill: red; }
]]></style>

<defs>
  <circle id="rim" cx="0" cy="0" r="7"/>
  <circle id="rim2" cx="0" cy="0" r="3.5"/>
  <g id="zoomPlus">
    <use xlink:href="#rim" fill="#404040"><set attributeName="fill" to="#808080" begin="zoomplus.mouseover" end="zoomplus.mouseout"/></use>
    <path d="M-4,0h8M0,-4v8" fill="none" stroke="white" stroke-width="1.5" pointer-events="none"/>
  </g>
  <g id="zoomMin">
    <use xlink:href="#rim" fill="#404040"><set attributeName="fill" to="#808080" begin="zoomminus.mouseover" end="zoomminus.mouseout"/></use>
    <path d="M-4,0h8" fill="none" stroke="white" stroke-width="1.5" pointer-events="none"/>
  </g>
  <g id="arrowUp" transform="translate(30 24)">
    <use xlink:href="#rim"/>
    <path pointer-events="none" fill="none" stroke="white" stroke-width="1.5" d="M0,-3.0v7 M-2.5,-0.5L0,-3.0L2.5,-0.5"/>
  </g>
  <g id="arrowRight" transform="rotate(90) translate(36 -43)">
    <use xlink:href="#rim"/>
    <path pointer-events="none" fill="none" stroke="white" stroke-width="1.5" d="M0,-3.0v7 M-2.5,-0.5L0,-3.0L2.5,-0.5"/>
  </g>
  <g id="arrowDown" transform="rotate(180) translate(-30 -48)">
    <use xlink:href="#rim"/>
    <path pointer-events="none" fill="none" stroke="white" stroke-width="1.5" d="M0,-3.0v7 M-2.5,-0.5L0,-3.0L2.5,-0.5"/>
  </g>
  <g id="arrowLeft" transform="rotate(270) translate(-36 17)">
    <use xlink:href="#rim"/>
    <path pointer-events="none" fill="none" stroke="white" stroke-width="1.5" d="M0,-3.0v7 M-2.5,-0.5L0,-3.0L2.5,-0.5"/>
  </g>
  <g id="resetDef">
    <use xlink:href="#rim2" fill="#404040"><set attributeName="fill" to="#808080" begin="reset.mouseover" end="reset.mouseout"/></use>
  </g>
</defs>
<script type="application/ecmascript">
var viewWidth = 1480;
var viewHeight = 248;
var sectionId = 'dynsection-0';
</script>
<script type="application/ecmascript" xlink:href="svg.min.js"/>
<svg id="graph" class="graph">
<g id="viewport">
<title>GH2I.cxx</title>
<!-- Node1 -->
<g id="Node000001" class="node">
<title>Node1</title>
<g id="a_Node000001"><a xlink:title=" ">
<polygon fill="#999999" stroke="#666666" points="1001.88,-240.25 946.12,-240.25 946.12,-221 1001.88,-221 1001.88,-240.25"/>
<text text-anchor="middle" x="974" y="-226.75" font-family="Helvetica,sans-Serif" font-size="10.00">GH2I.cxx</text>
</a>
</g>
</g>
<!-- Node2 -->
<g id="Node000002" class="node">
<title>Node2</title>
<g id="a_Node000002"><a xlink:href="_g_h2_i_8h.html" target="_top" xlink:title=" ">
<polygon fill="white" stroke="#666666" points="1211.38,-129.75 1164.62,-129.75 1164.62,-110.5 1211.38,-110.5 1211.38,-129.75"/>
<text text-anchor="middle" x="1188" y="-116.25" font-family="Helvetica,sans-Serif" font-size="10.00">GH2I.h</text>
</a>
</g>
</g>
<!-- Node1&#45;&gt;Node2 -->
<g id="edge1_Node000001_Node000002" class="edge">
<title>Node1&#45;&gt;Node2</title>
<g id="a_edge1_Node000001_Node000002"><a xlink:title=" ">
<path fill="none" stroke="#63b8ff" d="M991.88,-220.56C1029.09,-201.69 1115.13,-158.07 1159.85,-135.4"/>
<polygon fill="#63b8ff" stroke="#63b8ff" points="1161.34,-138.57 1168.67,-130.92 1158.17,-132.32 1161.34,-138.57"/>
</a>
</g>
</g>
<!-- Node11 -->
<g id="Node000011" class="node">
<title>Node11</title>
<g id="a_Node000011"><a xlink:title=" ">
<polygon fill="#e0e0e0" stroke="#999999" points="1008.75,-19.25 955.25,-19.25 955.25,0 1008.75,0 1008.75,-19.25"/>
<text text-anchor="middle" x="982" y="-5.75" font-family="Helvetica,sans-Serif" font-size="10.00">iostream</text>
</a>
</g>
</g>
<!-- Node1&#45;&gt;Node11 -->
<g id="edge16_Node000001_Node000011" class="edge">
<title>Node1&#45;&gt;Node11</title>
<g id="a_edge16_Node000001_Node000011"><a xlink:title=" ">
<path fill="none" stroke="#63b8ff" d="M945.67,-227.19C870.42,-219.56 674.9,-191.61 730,-110.5 754.95,-73.78 880,-36.93 944.05,-20.1"/>
<polygon fill="#63b8ff" stroke="#63b8ff" points="944.63,-23.56 953.43,-17.66 942.87,-16.79 944.63,-23.56"/>
</a>
</g>
</g>
<!-- Node12 -->
<g id="Node000012" class="node">
<title>Node12</title>
<g id="a_Node000012"><a xlink:title=" ">
<polygon fill="#e0e0e0" stroke="#999999" points="1046.88,-185 979.12,-185 979.12,-165.75 1046.88,-165.75 1046.88,-185"/>
<text text-anchor="middle" x="1013" y="-171.5" font-family="Helvetica,sans-Serif" font-size="10.00">TDirectory.h</text>
</a>
</g>
</g>
<!-- Node1&#45;&gt;Node12 -->
<g id="edge17_Node000001_Node000012" class="edge">
<title>Node1&#45;&gt;Node12</title>
<g id="a_edge17_Node000001_Node000012"><a xlink:title=" ">
<path fill="none" stroke="#63b8ff" d="M980.44,-220.83C985.66,-213.71 993.19,-203.43 999.69,-194.55"/>
<polygon fill="#63b8ff" stroke="#63b8ff" points="1002.44,-196.72 1005.53,-186.58 996.79,-192.58 1002.44,-196.72"/>
</a>
</g>
</g>
<!-- Node13 -->
<g id="Node000013" class="node">
<title>Node13</title>
<g id="a_Node000013"><a xlink:href="_g_h1_d_8h.html" target="_top" xlink:title=" ">
<polygon fill="white" stroke="#666666" points="961.25,-185 910.75,-185 910.75,-165.75 961.25,-165.75 961.25,-185"/>
<text text-anchor="middle" x="936" y="-171.5" font-family="Helvetica,sans-Serif" font-size="10.00">GH1D.h</text>
</a>
</g>
</g>
<!-- Node1&#45;&gt;Node13 -->
<g id="edge18_Node000001_Node000013" class="edge">
<title>Node1&#45;&gt;Node13</title>
<g id="a_edge18_Node000001_Node000013"><a xlink:title=" ">
<path fill="none" stroke="#63b8ff" d="M967.73,-220.83C962.64,-213.71 955.3,-203.43 948.97,-194.55"/>
<polygon fill="#63b8ff" stroke="#63b8ff" points="951.95,-192.7 943.29,-186.59 946.25,-196.76 951.95,-192.7"/>
</a>
</g>
</g>
<!-- Node3 -->
<g id="Node000003" class="node">
<title>Node3</title>
<g id="a_Node000003"><a xlink:title=" ">
<polygon fill="#e0e0e0" stroke="#999999" points="1069.12,-19.25 1026.88,-19.25 1026.88,0 1069.12,0 1069.12,-19.25"/>
<text text-anchor="middle" x="1048" y="-5.75" font-family="Helvetica,sans-Serif" font-size="10.00">cstdio</text>
</a>
</g>
</g>
<!-- Node2&#45;&gt;Node3 -->
<g id="edge2_Node000002_Node000003" class="edge">
<title>Node2&#45;&gt;Node3</title>
<g id="a_edge2_Node000002_Node000003"><a xlink:title=" ">
<path fill="none" stroke="#63b8ff" d="M1165.99,-110.1C1148.24,-102.22 1123.16,-89.67 1104,-74.5 1087.07,-61.09 1071.18,-42.12 1060.68,-28.34"/>
<polygon fill="#63b8ff" stroke="#63b8ff" points="1063.72,-26.55 1054.96,-20.59 1058.09,-30.71 1063.72,-26.55"/>
</a>
</g>
</g>
<!-- Node4 -->
<g id="Node000004" class="node">
<title>Node4</title>
<g id="a_Node000004"><a xlink:title=" ">
<polygon fill="#e0e0e0" stroke="#999999" points="1185.38,-19.25 1150.62,-19.25 1150.62,0 1185.38,0 1185.38,-19.25"/>
<text text-anchor="middle" x="1168" y="-5.75" font-family="Helvetica,sans-Serif" font-size="10.00">map</text>
</a>
</g>
</g>
<!-- Node2&#45;&gt;Node4 -->
<g id="edge3_Node000002_Node000004" class="edge">
<title>Node2&#45;&gt;Node4</title>
<g id="a_edge3_Node000002_Node000004"><a xlink:title=" ">
<path fill="none" stroke="#63b8ff" d="M1192.11,-110.27C1197.33,-97.78 1204.99,-74.36 1199,-55.25 1195.95,-45.5 1189.93,-36.02 1184,-28.32"/>
<polygon fill="#63b8ff" stroke="#63b8ff" points="1186.83,-26.24 1177.74,-20.79 1181.45,-30.72 1186.83,-26.24"/>
</a>
</g>
</g>
<!-- Node5 -->
<g id="Node000005" class="node">
<title>Node5</title>
<g id="a_Node000005"><a xlink:title=" ">
<polygon fill="#e0e0e0" stroke="#999999" points="1264.5,-19.25 1203.5,-19.25 1203.5,0 1264.5,0 1264.5,-19.25"/>
<text text-anchor="middle" x="1234" y="-5.75" font-family="Helvetica,sans-Serif" font-size="10.00">TNamed.h</text>
</a>
</g>
</g>
<!-- Node2&#45;&gt;Node5 -->
<g id="edge4_Node000002_Node000005" class="edge">
<title>Node2&#45;&gt;Node5</title>
<g id="a_edge4_Node000002_Node000005"><a xlink:title=" ">
<path fill="none" stroke="#63b8ff" d="M1194,-110.21C1199.72,-101.42 1208.28,-87.46 1214,-74.5 1220.33,-60.16 1225.54,-43.2 1229.05,-30.36"/>
<polygon fill="#63b8ff" stroke="#63b8ff" points="1232.36,-31.55 1231.5,-20.99 1225.59,-29.78 1232.36,-31.55"/>
</a>
</g>
</g>
<!-- Node6 -->
<g id="Node000006" class="node">
<title>Node6</title>
<g id="a_Node000006"><a xlink:title=" ">
<polygon fill="#e0e0e0" stroke="#999999" points="1325.12,-19.25 1282.88,-19.25 1282.88,0 1325.12,0 1325.12,-19.25"/>
<text text-anchor="middle" x="1304" y="-5.75" font-family="Helvetica,sans-Serif" font-size="10.00">TH2.h</text>
</a>
</g>
</g>
<!-- Node2&#45;&gt;Node6 -->
<g id="edge5_Node000002_Node000006" class="edge">
<title>Node2&#45;&gt;Node6</title>
<g id="a_edge5_Node000002_Node000006"><a xlink:title=" ">
<path fill="none" stroke="#63b8ff" d="M1197.49,-110.25C1216.87,-92.13 1261.23,-50.63 1286.15,-27.32"/>
<polygon fill="#63b8ff" stroke="#63b8ff" points="1288.36,-30.05 1293.27,-20.66 1283.58,-24.94 1288.36,-30.05"/>
</a>
</g>
</g>
<!-- Node7 -->
<g id="Node000007" class="node">
<title>Node7</title>
<g id="a_Node000007"><a xlink:title=" ">
<polygon fill="#e0e0e0" stroke="#999999" points="1133,-19.25 1087,-19.25 1087,0 1133,0 1133,-19.25"/>
<text text-anchor="middle" x="1110" y="-5.75" font-family="Helvetica,sans-Serif" font-size="10.00">TList.h</text>
</a>
</g>
</g>
<!-- Node2&#45;&gt;Node7 -->
<g id="edge6_Node000002_Node000007" class="edge">
<title>Node2&#45;&gt;Node7</title>
<g id="a_edge6_Node000002_Node000007"><a xlink:title=" ">
<path fill="none" stroke="#63b8ff" d="M1164.38,-111.3C1147.58,-104.41 1126.1,-92.61 1115,-74.5 1107.07,-61.57 1106.17,-44.28 1107.06,-30.95"/>
<polygon fill="#63b8ff" stroke="#63b8ff" points="1110.52,-31.48 1108.13,-21.16 1103.56,-30.72 1110.52,-31.48"/>
</a>
</g>
</g>
<!-- Node8 -->
<g id="Node000008" class="node">
<title>Node8</title>
<g id="a_Node000008"><a xlink:title=" ">
<polygon fill="#e0e0e0" stroke="#999999" points="1396.25,-74.5 1321.75,-74.5 1321.75,-55.25 1396.25,-55.25 1396.25,-74.5"/>
<text text-anchor="middle" x="1359" y="-61" font-family="Helvetica,sans-Serif" font-size="10.00">TVirtualPad.h</text>
</a>
</g>
</g>
<!-- Node2&#45;&gt;Node8 -->
<g id="edge7_Node000002_Node000008" class="edge">
<title>Node2&#45;&gt;Node8</title>
<g id="a_edge7_Node000002_Node000008"><a xlink:title=" ">
<path fill="none" stroke="#63b8ff" d="M1211.78,-111.72C1239.48,-103.09 1285.69,-88.7 1318.96,-78.34"/>
<polygon fill="#63b8ff" stroke="#63b8ff" points="1319.75,-81.76 1328.26,-75.45 1317.67,-75.08 1319.75,-81.76"/>
</a>
</g>
</g>
<!-- Node9 -->
<g id="Node000009" class="node">
<title>Node9</title>
<g id="a_Node000009"><a xlink:title=" ">
<polygon fill="#e0e0e0" stroke="#999999" points="1471.62,-74.5 1414.38,-74.5 1414.38,-55.25 1471.62,-55.25 1471.62,-74.5"/>
<text text-anchor="middle" x="1443" y="-61" font-family="Helvetica,sans-Serif" font-size="10.00">TFrame.h</text>
</a>
</g>
</g>
<!-- Node2&#45;&gt;Node9 -->
<g id="edge8_Node000002_Node000009" class="edge">
<title>Node2&#45;&gt;Node9</title>
<g id="a_edge8_Node000002_Node000009"><a xlink:title=" ">
<path fill="none" stroke="#63b8ff" d="M1211.79,-114.4C1249.89,-106.79 1327.19,-91.22 1402.83,-74.93"/>
<polygon fill="#63b8ff" stroke="#63b8ff" points="1403.45,-78.38 1412.49,-72.85 1401.97,-71.54 1403.45,-78.38"/>
</a>
</g>
</g>
<!-- Node10 -->
<g id="Node000010" class="node">
<title>Node10</title>
<g id="a_Node000010"><a xlink:href="_g_h2_base_8h.html" target="_top" xlink:title=" ">
<polygon fill="white" stroke="#666666" points="1190.12,-74.5 1123.88,-74.5 1123.88,-55.25 1190.12,-55.25 1190.12,-74.5"/>
<text text-anchor="middle" x="1157" y="-61" font-family="Helvetica,sans-Serif" font-size="10.00">GH2Base.h</text>
</a>
</g>
</g>
<!-- Node2&#45;&gt;Node10 -->
<g id="edge9_Node000002_Node000010" class="edge">
<title>Node2&#45;&gt;Node10</title>
<g id="a_edge9_Node000002_Node000010"><a xlink:title=" ">
<path fill="none" stroke="#63b8ff" d="M1182.88,-110.33C1178.82,-103.36 1173.01,-93.37 1167.91,-84.62"/>
<polygon fill="#63b8ff" stroke="#63b8ff" points="1171.05,-83.05 1162.99,-76.17 1165,-86.57 1171.05,-83.05"/>
</a>
</g>
</g>
<!-- Node10&#45;&gt;Node3 -->
<g id="edge10_Node000010_Node000003" class="edge">
<title>Node10&#45;&gt;Node3</title>
<g id="a_edge10_Node000010_Node000003"><a xlink:title=" ">
<path fill="none" stroke="#63b8ff" d="M1138.51,-54.84C1121.6,-46.58 1096.31,-34.23 1076.76,-24.68"/>
<polygon fill="#63b8ff" stroke="#63b8ff" points="1078.46,-21.61 1067.94,-20.37 1075.39,-27.9 1078.46,-21.61"/>
</a>
</g>
</g>
<!-- Node10&#45;&gt;Node4 -->
<g id="edge12_Node000010_Node000004" class="edge">
<title>Node10&#45;&gt;Node4</title>
<g id="a_edge12_Node000010_Node000004"><a xlink:title=" ">
<path fill="none" stroke="#63b8ff" d="M1158.82,-55.08C1160.18,-48.49 1162.1,-39.21 1163.83,-30.82"/>
<polygon fill="#63b8ff" stroke="#63b8ff" points="1167.24,-31.59 1165.84,-21.09 1160.39,-30.18 1167.24,-31.59"/>
</a>
</g>
</g>
<!-- Node10&#45;&gt;Node5 -->
<g id="edge13_Node000010_Node000005" class="edge">
<title>Node10&#45;&gt;Node5</title>
<g id="a_edge13_Node000010_Node000005"><a xlink:title=" ">
<path fill="none" stroke="#63b8ff" d="M1170.06,-54.84C1181.46,-46.96 1198.23,-35.36 1211.74,-26.02"/>
<polygon fill="#63b8ff" stroke="#63b8ff" points="1213.4,-29.13 1219.63,-20.56 1209.41,-23.37 1213.4,-29.13"/>
</a>
</g>
</g>
<!-- Node10&#45;&gt;Node6 -->
<g id="edge14_Node000010_Node000006" class="edge">
<title>Node10&#45;&gt;Node6</title>
<g id="a_edge14_Node000010_Node000006"><a xlink:title=" ">
<path fill="none" stroke="#63b8ff" d="M1181.94,-54.84C1206.85,-45.82 1245.23,-31.92 1272.29,-22.11"/>
<polygon fill="#63b8ff" stroke="#63b8ff" points="1273.13,-25.53 1281.34,-18.83 1270.75,-18.95 1273.13,-25.53"/>
</a>
</g>
</g>
<!-- Node10&#45;&gt;Node7 -->
<g id="edge15_Node000010_Node000007" class="edge">
<title>Node10&#45;&gt;Node7</title>
<g id="a_edge15_Node000010_Node000007"><a xlink:title=" ">
<path fill="none" stroke="#63b8ff" d="M1149.24,-55.08C1142.81,-47.8 1133.49,-37.23 1125.54,-28.23"/>
<polygon fill="#63b8ff" stroke="#63b8ff" points="1128.17,-25.93 1118.93,-20.74 1122.92,-30.56 1128.17,-25.93"/>
</a>
</g>
</g>
<!-- Node10&#45;&gt;Node11 -->
<g id="edge11_Node000010_Node000011" class="edge">
<title>Node10&#45;&gt;Node11</title>
<g id="a_edge11_Node000010_Node000011"><a xlink:title=" ">
<path fill="none" stroke="#63b8ff" d="M1127.31,-54.84C1097.74,-45.84 1052.22,-31.99 1020.02,-22.2"/>
<polygon fill="#63b8ff" stroke="#63b8ff" points="1021.27,-18.92 1010.69,-19.35 1019.23,-25.61 1021.27,-18.92"/>
</a>
</g>
</g>
<!-- Node13&#45;&gt;Node2 -->
<g id="edge42_Node000013_Node000002" class="edge">
<title>Node13&#45;&gt;Node2</title>
<g id="a_edge42_Node000013_Node000002"><a xlink:title=" ">
<path fill="none" stroke="#63b8ff" d="M961.59,-167.75C964.42,-167.05 967.27,-166.38 970,-165.75 1034.37,-151.01 1109.97,-136.06 1153.1,-127.75"/>
<polygon fill="#63b8ff" stroke="#63b8ff" points="1153.72,-131.19 1162.89,-125.87 1152.41,-124.32 1153.72,-131.19"/>
</a>
</g>
</g>
<!-- Node13&#45;&gt;Node7 -->
<g id="edge23_Node000013_Node000007" class="edge">
<title>Node13&#45;&gt;Node7</title>
<g id="a_edge23_Node000013_Node000007"><a xlink:title=" ">
<path fill="none" stroke="#63b8ff" d="M951.16,-165.35C964.8,-156.92 985.09,-143.58 1001,-129.75 1038.37,-97.26 1076.07,-52.88 1095.85,-28.5"/>
<polygon fill="#63b8ff" stroke="#63b8ff" points="1098.48,-30.81 1102.01,-20.82 1093.02,-26.43 1098.48,-30.81"/>
</a>
</g>
</g>
<!-- Node14 -->
<g id="Node000014" class="node">
<title>Node14</title>
<g id="a_Node000014"><a xlink:title=" ">
<polygon fill="#e0e0e0" stroke="#999999" points="992.12,-129.75 949.88,-129.75 949.88,-110.5 992.12,-110.5 992.12,-129.75"/>
<text text-anchor="middle" x="971" y="-116.25" font-family="Helvetica,sans-Serif" font-size="10.00">TH1.h</text>
</a>
</g>
</g>
<!-- Node13&#45;&gt;Node14 -->
<g id="edge19_Node000013_Node000014" class="edge">
<title>Node13&#45;&gt;Node14</title>
<g id="a_edge19_Node000013_Node000014"><a xlink:title=" ">
<path fill="none" stroke="#63b8ff" d="M941.78,-165.58C946.41,-158.53 953.07,-148.4 958.87,-139.58"/>
<polygon fill="#63b8ff" stroke="#63b8ff" points="961.7,-141.65 964.26,-131.37 955.85,-137.81 961.7,-141.65"/>
</a>
</g>
</g>
<!-- Node15 -->
<g id="Node000015" class="node">
<title>Node15</title>
<g id="a_Node000015"><a xlink:title=" ">
<polygon fill="#e0e0e0" stroke="#999999" points="1092.25,-129.75 1047.75,-129.75 1047.75,-110.5 1092.25,-110.5 1092.25,-129.75"/>
<text text-anchor="middle" x="1070" y="-116.25" font-family="Helvetica,sans-Serif" font-size="10.00">TRef.h</text>
</a>
</g>
</g>
<!-- Node13&#45;&gt;Node15 -->
<g id="edge20_Node000013_Node000015" class="edge">
<title>Node13&#45;&gt;Node15</title>
<g id="a_edge20_Node000013_Node000015"><a xlink:title=" ">
<path fill="none" stroke="#63b8ff" d="M958.73,-165.34C980.23,-156.8 1012.73,-143.88 1037.07,-134.21"/>
<polygon fill="#63b8ff" stroke="#63b8ff" points="1038.2,-137.53 1046.2,-130.58 1035.61,-131.02 1038.2,-137.53"/>
</a>
</g>
</g>
<!-- Node16 -->
<g id="Node000016" class="node">
<title>Node16</title>
<g id="a_Node000016"><a xlink:title=" ">
<polygon fill="#e0e0e0" stroke="#999999" points="785.38,-129.75 738.62,-129.75 738.62,-110.5 785.38,-110.5 785.38,-129.75"/>
<text text-anchor="middle" x="762" y="-116.25" font-family="Helvetica,sans-Serif" font-size="10.00">TPad.h</text>
</a>
</g>
</g>
<!-- Node13&#45;&gt;Node16 -->
<g id="edge21_Node000013_Node000016" class="edge">
<title>Node13&#45;&gt;Node16</title>
<g id="a_edge21_Node000013_Node000016"><a xlink:title=" ">
<path fill="none" stroke="#63b8ff" d="M910.33,-166.52C880.17,-157.29 830.03,-141.94 796.5,-131.68"/>
<polygon fill="#63b8ff" stroke="#63b8ff" points="797.85,-128.44 787.27,-128.86 795.81,-135.13 797.85,-128.44"/>
</a>
</g>
</g>
<!-- Node17 -->
<g id="Node000017" class="node">
<title>Node17</title>
<g id="a_Node000017"><a xlink:title=" ">
<polygon fill="#e0e0e0" stroke="#999999" points="868.38,-129.75 803.62,-129.75 803.62,-110.5 868.38,-110.5 868.38,-129.75"/>
<text text-anchor="middle" x="836" y="-116.25" font-family="Helvetica,sans-Serif" font-size="10.00">GuiTypes.h</text>
</a>
</g>
</g>
<!-- Node13&#45;&gt;Node17 -->
<g id="edge22_Node000013_Node000017" class="edge">
<title>Node13&#45;&gt;Node17</title>
<g id="a_edge22_Node000013_Node000017"><a xlink:title=" ">
<path fill="none" stroke="#63b8ff" d="M919.04,-165.34C903.74,-157.19 880.97,-145.07 863.14,-135.58"/>
<polygon fill="#63b8ff" stroke="#63b8ff" points="864.85,-132.52 854.38,-130.91 861.56,-138.7 864.85,-132.52"/>
</a>
</g>
</g>
<!-- Node18 -->
<g id="Node000018" class="node">
<title>Node18</title>
<g id="a_Node000018"><a xlink:title=" ">
<polygon fill="#e0e0e0" stroke="#999999" points="932,-129.75 886,-129.75 886,-110.5 932,-110.5 932,-129.75"/>
<text text-anchor="middle" x="909" y="-116.25" font-family="Helvetica,sans-Serif" font-size="10.00">TBox.h</text>
</a>
</g>
</g>
<!-- Node13&#45;&gt;Node18 -->
<g id="edge24_Node000013_Node000018" class="edge">
<title>Node13&#45;&gt;Node18</title>
<g id="a_edge24_Node000013_Node000018"><a xlink:title=" ">
<path fill="none" stroke="#63b8ff" d="M931.54,-165.58C928.05,-158.69 923.05,-148.84 918.65,-140.16"/>
<polygon fill="#63b8ff" stroke="#63b8ff" points="921.88,-138.8 914.24,-131.46 915.64,-141.96 921.88,-138.8"/>
</a>
</g>
</g>
<!-- Node19 -->
<g id="Node000019" class="node">
<title>Node19</title>
<g id="a_Node000019"><a xlink:href="_globals_8h.html" target="_top" xlink:title=" ">
<polygon fill="white" stroke="#666666" points="606.25,-74.5 549.75,-74.5 549.75,-55.25 606.25,-55.25 606.25,-74.5"/>
<text text-anchor="middle" x="578" y="-61" font-family="Helvetica,sans-Serif" font-size="10.00">Globals.h</text>
</a>
</g>
</g>
<!-- Node13&#45;&gt;Node19 -->
<g id="edge25_Node000013_Node000019" class="edge">
<title>Node13&#45;&gt;Node19</title>
<g id="a_edge25_Node000013_Node000019"><a xlink:title=" ">
<path fill="none" stroke="#63b8ff" d="M910.56,-170.42C871.26,-163.97 793.69,-149.84 730,-129.75 685.75,-115.79 636.6,-93.9 606.49,-79.72"/>
<polygon fill="#63b8ff" stroke="#63b8ff" points="608.21,-76.66 597.67,-75.52 605.2,-82.98 608.21,-76.66"/>
</a>
</g>
</g>
<!-- Node19&#45;&gt;Node3 -->
<g id="edge31_Node000019_Node000003" class="edge">
<title>Node19&#45;&gt;Node3</title>
<g id="a_edge31_Node000019_Node000003"><a xlink:title=" ">
<path fill="none" stroke="#63b8ff" d="M606.57,-62.75C675.45,-59.66 856.21,-49.32 1015.54,-19.4"/>
<polygon fill="#63b8ff" stroke="#63b8ff" points="1015.83,-22.91 1025,-17.59 1014.52,-16.04 1015.83,-22.91"/>
</a>
</g>
</g>
<!-- Node19&#45;&gt;Node11 -->
<g id="edge27_Node000019_Node000011" class="edge">
<title>Node19&#45;&gt;Node11</title>
<g id="a_edge27_Node000019_Node000011"><a xlink:title=" ">
<path fill="none" stroke="#63b8ff" d="M606.62,-60.83C677.76,-53.21 862.19,-33.03 943.69,-19.42"/>
<polygon fill="#63b8ff" stroke="#63b8ff" points="944.2,-22.88 953.45,-17.72 943,-15.98 944.2,-22.88"/>
</a>
</g>
</g>
<!-- Node20 -->
<g id="Node000020" class="node">
<title>Node20</title>
<g id="a_Node000020"><a xlink:title=" ">
<polygon fill="#e0e0e0" stroke="#999999" points="265.62,-19.25 220.38,-19.25 220.38,0 265.62,0 265.62,-19.25"/>
<text text-anchor="middle" x="243" y="-5.75" font-family="Helvetica,sans-Serif" font-size="10.00">cstdint</text>
</a>
</g>
</g>
<!-- Node19&#45;&gt;Node20 -->
<g id="edge26_Node000019_Node000020" class="edge">
<title>Node19&#45;&gt;Node20</title>
<g id="a_edge26_Node000019_Node000020"><a xlink:title=" ">
<path fill="none" stroke="#63b8ff" d="M549.4,-60.79C497.26,-54.94 383.11,-41 277.2,-19.48"/>
<polygon fill="#63b8ff" stroke="#63b8ff" points="277.98,-16.07 267.48,-17.47 276.56,-22.92 277.98,-16.07"/>
</a>
</g>
</g>
<!-- Node21 -->
<g id="Node000021" class="node">
<title>Node21</title>
<g id="a_Node000021"><a xlink:title=" ">
<polygon fill="#e0e0e0" stroke="#999999" points="333.88,-19.25 284.12,-19.25 284.12,0 333.88,0 333.88,-19.25"/>
<text text-anchor="middle" x="309" y="-5.75" font-family="Helvetica,sans-Serif" font-size="10.00">iomanip</text>
</a>
</g>
</g>
<!-- Node19&#45;&gt;Node21 -->
<g id="edge28_Node000019_Node000021" class="edge">
<title>Node19&#45;&gt;Node21</title>
<g id="a_edge28_Node000019_Node000021"><a xlink:title=" ">
<path fill="none" stroke="#63b8ff" d="M549.31,-59.01C506.91,-51.69 424.81,-37.04 345.39,-19.67"/>
<polygon fill="#63b8ff" stroke="#63b8ff" points="346.21,-16.27 335.69,-17.53 344.7,-23.1 346.21,-16.27"/>
</a>
</g>
</g>
<!-- Node22 -->
<g id="Node000022" class="node">
<title>Node22</title>
<g id="a_Node000022"><a xlink:title=" ">
<polygon fill="#e0e0e0" stroke="#999999" points="410,-19.25 352,-19.25 352,0 410,0 410,-19.25"/>
<text text-anchor="middle" x="381" y="-5.75" font-family="Helvetica,sans-Serif" font-size="10.00">stdexcept</text>
</a>
</g>
</g>
<!-- Node19&#45;&gt;Node22 -->
<g id="edge29_Node000019_Node000022" class="edge">
<title>Node19&#45;&gt;Node22</title>
<g id="a_edge29_Node000019_Node000022"><a xlink:title=" ">
<path fill="none" stroke="#63b8ff" d="M549.35,-56.13C515.55,-47 459.15,-31.75 421.03,-21.45"/>
<polygon fill="#63b8ff" stroke="#63b8ff" points="422.35,-18.18 411.78,-18.95 420.52,-24.93 422.35,-18.18"/>
</a>
</g>
</g>
<!-- Node23 -->
<g id="Node000023" class="node">
<title>Node23</title>
<g id="a_Node000023"><a xlink:title=" ">
<polygon fill="#e0e0e0" stroke="#999999" points="468,-19.25 428,-19.25 428,0 468,0 468,-19.25"/>
<text text-anchor="middle" x="448" y="-5.75" font-family="Helvetica,sans-Serif" font-size="10.00">string</text>
</a>
</g>
</g>
<!-- Node19&#45;&gt;Node23 -->
<g id="edge30_Node000019_Node000023" class="edge">
<title>Node19&#45;&gt;Node23</title>
<g id="a_edge30_Node000019_Node000023"><a xlink:title=" ">
<path fill="none" stroke="#63b8ff" d="M555.95,-54.84C534.81,-46.18 502.71,-33.03 479,-23.32"/>
<polygon fill="#63b8ff" stroke="#63b8ff" points="480.43,-20.12 469.84,-19.57 477.77,-26.6 480.43,-20.12"/>
</a>
</g>
</g>
<!-- Node24 -->
<g id="Node000024" class="node">
<title>Node24</title>
<g id="a_Node000024"><a xlink:title=" ">
<polygon fill="#e0e0e0" stroke="#999999" points="530.25,-19.25 485.75,-19.25 485.75,0 530.25,0 530.25,-19.25"/>
<text text-anchor="middle" x="508" y="-5.75" font-family="Helvetica,sans-Serif" font-size="10.00">cstdlib</text>
</a>
</g>
</g>
<!-- Node19&#45;&gt;Node24 -->
<g id="edge32_Node000019_Node000024" class="edge">
<title>Node19&#45;&gt;Node24</title>
<g id="a_edge32_Node000019_Node000024"><a xlink:title=" ">
<path fill="none" stroke="#63b8ff" d="M566.13,-54.84C555.91,-47.07 540.93,-35.67 528.74,-26.4"/>
<polygon fill="#63b8ff" stroke="#63b8ff" points="530.98,-23.71 520.9,-20.44 526.74,-29.28 530.98,-23.71"/>
</a>
</g>
</g>
<!-- Node25 -->
<g id="Node000025" class="node">
<title>Node25</title>
<g id="a_Node000025"><a xlink:title=" ">
<polygon fill="#e0e0e0" stroke="#999999" points="607.75,-19.25 548.25,-19.25 548.25,0 607.75,0 607.75,-19.25"/>
<text text-anchor="middle" x="578" y="-5.75" font-family="Helvetica,sans-Serif" font-size="10.00">execinfo.h</text>
</a>
</g>
</g>
<!-- Node19&#45;&gt;Node25 -->
<g id="edge33_Node000019_Node000025" class="edge">
<title>Node19&#45;&gt;Node25</title>
<g id="a_edge33_Node000019_Node000025"><a xlink:title=" ">
<path fill="none" stroke="#63b8ff" d="M578,-55.08C578,-48.57 578,-39.42 578,-31.12"/>
<polygon fill="#63b8ff" stroke="#63b8ff" points="581.5,-31.12 578,-21.12 574.5,-31.12 581.5,-31.12"/>
</a>
</g>
</g>
<!-- Node26 -->
<g id="Node000026" class="node">
<title>Node26</title>
<g id="a_Node000026"><a xlink:title=" ">
<polygon fill="#e0e0e0" stroke="#999999" points="676.25,-19.25 625.75,-19.25 625.75,0 676.25,0 676.25,-19.25"/>
<text text-anchor="middle" x="651" y="-5.75" font-family="Helvetica,sans-Serif" font-size="10.00">cxxabi.h</text>
</a>
</g>
</g>
<!-- Node19&#45;&gt;Node26 -->
<g id="edge34_Node000019_Node000026" class="edge">
<title>Node19&#45;&gt;Node26</title>
<g id="a_edge34_Node000019_Node000026"><a xlink:title=" ">
<path fill="none" stroke="#63b8ff" d="M590.38,-54.84C601.15,-46.99 616.97,-35.45 629.75,-26.12"/>
<polygon fill="#63b8ff" stroke="#63b8ff" points="631.56,-29.14 637.58,-20.42 627.44,-23.48 631.56,-29.14"/>
</a>
</g>
</g>
<!-- Node27 -->
<g id="Node000027" class="node">
<title>Node27</title>
<g id="a_Node000027"><a xlink:title=" ">
<polygon fill="#e0e0e0" stroke="#999999" points="745.62,-19.25 694.38,-19.25 694.38,0 745.62,0 745.62,-19.25"/>
<text text-anchor="middle" x="720" y="-5.75" font-family="Helvetica,sans-Serif" font-size="10.00">sstream</text>
</a>
</g>
</g>
<!-- Node19&#45;&gt;Node27 -->
<g id="edge35_Node000019_Node000027" class="edge">
<title>Node19&#45;&gt;Node27</title>
<g id="a_edge35_Node000019_Node000027"><a xlink:title=" ">
<path fill="none" stroke="#63b8ff" d="M602.09,-54.84C624.94,-46.27 659.52,-33.31 685.33,-23.63"/>
<polygon fill="#63b8ff" stroke="#63b8ff" points="686.24,-27.02 694.38,-20.23 683.78,-20.47 686.24,-27.02"/>
</a>
</g>
</g>
<!-- Node28 -->
<g id="Node000028" class="node">
<title>Node28</title>
<g id="a_Node000028"><a xlink:title=" ">
<polygon fill="#e0e0e0" stroke="#999999" points="800.5,-19.25 763.5,-19.25 763.5,0 800.5,0 800.5,-19.25"/>
<text text-anchor="middle" x="782" y="-5.75" font-family="Helvetica,sans-Serif" font-size="10.00">array</text>
</a>
</g>
</g>
<!-- Node19&#45;&gt;Node28 -->
<g id="edge36_Node000019_Node000028" class="edge">
<title>Node19&#45;&gt;Node28</title>
<g id="a_edge36_Node000019_Node000028"><a xlink:title=" ">
<path fill="none" stroke="#63b8ff" d="M606.66,-57.23C639.65,-49.45 695.72,-35.86 752.24,-19.92"/>
<polygon fill="#63b8ff" stroke="#63b8ff" points="753.05,-23.33 761.71,-17.22 751.13,-16.59 753.05,-23.33"/>
</a>
</g>
</g>
<!-- Node29 -->
<g id="Node000029" class="node">
<title>Node29</title>
<g id="a_Node000029"><a xlink:title=" ">
<polygon fill="#e0e0e0" stroke="#999999" points="869.25,-19.25 818.75,-19.25 818.75,0 869.25,0 869.25,-19.25"/>
<text text-anchor="middle" x="844" y="-5.75" font-family="Helvetica,sans-Serif" font-size="10.00">memory</text>
</a>
</g>
</g>
<!-- Node19&#45;&gt;Node29 -->
<g id="edge37_Node000019_Node000029" class="edge">
<title>Node19&#45;&gt;Node29</title>
<g id="a_edge37_Node000019_Node000029"><a xlink:title=" ">
<path fill="none" stroke="#63b8ff" d="M606.68,-58.91C648.64,-51.54 729.45,-36.88 807.44,-19.72"/>
<polygon fill="#63b8ff" stroke="#63b8ff" points="807.94,-23.2 816.94,-17.61 806.42,-16.36 807.94,-23.2"/>
</a>
</g>
</g>
<!-- Node30 -->
<g id="Node000030" class="node">
<title>Node30</title>
<g id="a_Node000030"><a xlink:title=" ">
<polygon fill="#e0e0e0" stroke="#999999" points="936.88,-19.25 887.12,-19.25 887.12,0 936.88,0 936.88,-19.25"/>
<text text-anchor="middle" x="912" y="-5.75" font-family="Helvetica,sans-Serif" font-size="10.00">unistd.h</text>
</a>
</g>
</g>
<!-- Node19&#45;&gt;Node30 -->
<g id="edge38_Node000019_Node000030" class="edge">
<title>Node19&#45;&gt;Node30</title>
<g id="a_edge38_Node000019_Node000030"><a xlink:title=" ">
<path fill="none" stroke="#63b8ff" d="M606.71,-60.58C658.48,-54.44 771.09,-40.11 875.74,-19.52"/>
<polygon fill="#63b8ff" stroke="#63b8ff" points="876.21,-23 885.33,-17.61 874.84,-16.13 876.21,-23"/>
</a>
</g>
</g>
<!-- Node31 -->
<g id="Node000031" class="node">
<title>Node31</title>
<g id="a_Node000031"><a xlink:title=" ">
<polygon fill="#e0e0e0" stroke="#999999" points="46,-19.25 0,-19.25 0,0 46,0 46,-19.25"/>
<text text-anchor="middle" x="23" y="-5.75" font-family="Helvetica,sans-Serif" font-size="10.00">TEnv.h</text>
</a>
</g>
</g>
<!-- Node19&#45;&gt;Node31 -->
<g id="edge39_Node000019_Node000031" class="edge">
<title>Node19&#45;&gt;Node31</title>
<g id="a_edge39_Node000019_Node000031"><a xlink:title=" ">
<path fill="none" stroke="#63b8ff" d="M549.42,-63.22C471.77,-61.07 250.33,-52.44 57.51,-19.38"/>
<polygon fill="#63b8ff" stroke="#63b8ff" points="58.25,-15.95 47.8,-17.68 57.05,-22.85 58.25,-15.95"/>
</a>
</g>
</g>
<!-- Node32 -->
<g id="Node000032" class="node">
<title>Node32</title>
<g id="a_Node000032"><a xlink:title=" ">
<polygon fill="#e0e0e0" stroke="#999999" points="123.75,-19.25 64.25,-19.25 64.25,0 123.75,0 123.75,-19.25"/>
<text text-anchor="middle" x="94" y="-5.75" font-family="Helvetica,sans-Serif" font-size="10.00">sys/wait.h</text>
</a>
</g>
</g>
<!-- Node19&#45;&gt;Node32 -->
<g id="edge40_Node000019_Node000032" class="edge">
<title>Node19&#45;&gt;Node32</title>
<g id="a_edge40_Node000019_Node000032"><a xlink:title=" ">
<path fill="none" stroke="#63b8ff" d="M549.48,-62.18C480.24,-57.83 297.66,-44.87 135.32,-19.44"/>
<polygon fill="#63b8ff" stroke="#63b8ff" points="136.09,-16.01 125.66,-17.9 134.99,-22.93 136.09,-16.01"/>
</a>
</g>
</g>
<!-- Node33 -->
<g id="Node000033" class="node">
<title>Node33</title>
<g id="a_Node000033"><a xlink:title=" ">
<polygon fill="#e0e0e0" stroke="#999999" points="202.12,-19.25 141.88,-19.25 141.88,0 202.12,0 202.12,-19.25"/>
<text text-anchor="middle" x="172" y="-5.75" font-family="Helvetica,sans-Serif" font-size="10.00">sys/prctl.h</text>
</a>
</g>
</g>
<!-- Node19&#45;&gt;Node33 -->
<g id="edge41_Node000019_Node000033" class="edge">
<title>Node19&#45;&gt;Node33</title>
<g id="a_edge41_Node000019_Node000033"><a xlink:title=" ">
<path fill="none" stroke="#63b8ff" d="M549.31,-61.34C489,-55.8 344.46,-41.48 213.6,-19.55"/>
<polygon fill="#63b8ff" stroke="#63b8ff" points="214.54,-16.16 204.09,-17.94 213.37,-23.06 214.54,-16.16"/>
</a>
</g>
</g>
</g>
</svg>

<g id="navigator" transform="translate(0 0)" fill="#404254">
  <rect fill="#f2f5e9" fill-opacity="0.5" stroke="#606060" stroke-width=".5" x="0" y="0" width="60" height="60"/>
  <use id="zoomplus" xlink:href="#zoomPlus" x="17" y="9" onmousedown="handleZoom(evt,'in')"/>
  <use id="zoomminus" xlink:href="#zoomMin" x="42" y="9" onmousedown="handleZoom(evt,'out')"/>
  <use id="reset" xlink:href="#resetDef" x="30" y="36" onmousedown="handleReset()"/>
   <use id="arrowup" xlink:href="#arrowUp" x="0" y="0" onmousedown="handlePan(0,-1)"/>
  <use id="arrowright" xlink:href="#arrowRight" x="0" y="0" onmousedown="handlePan(1,0)"/>
  <use id="arrowdown" xlink:href="#arrowDown" x="0" y="0" onmousedown="handlePan(0,1)"/>
  <use id="arrowleft" xlink:href="#arrowLeft" x="0" y="0" onmousedown="handlePan(-1,0)"/>
</g>
<svg viewBox="0 0 15 15" width="100%" height="30px" preserveAspectRatio="xMaxYMin meet">
 <g id="arrow_out" transform="scale(0.3 0.3)">
  <a xlink:href="_g_h2_i_8cxx__incl_org.svg" target="_base">
   <rect id="button" ry="5" rx="5" y="6" x="6" height="38" width="38"
        fill="#f2f5e9" fill-opacity="0.5" stroke="#606060" stroke-width="1.0"/>
   <path id="arrow"
     d="M 11.500037,31.436501 C 11.940474,20.09759 22.043105,11.32322 32.158766,21.979434 L 37.068811,17.246167 C 37.068811,17.246167 37.088388,32 37.088388,32 L 22.160133,31.978069 C 22.160133,31.978069 26.997745,27.140456 26.997745,27.140456 C 18.528582,18.264221 13.291696,25.230495 11.500037,31.436501 z"
     style="fill:#404040;"/>
  </a>
 </g>
</svg>

<style type='text/css'>
<![CDATA[
[data-mouse-over-selected='false'] { opacity: 0.7; }
[data-mouse-over-selected='true']  { opacity: 1.0; }
]]>
</style>
<script type="application/ecmascript"><![CDATA[
document.addEventListener('DOMContentLoaded', (event) => {
  highlightEdges();
  highlightAdjacentNodes();
});
]]></script>
</svg>
