<?xml version="1.0" encoding="UTF-8" standalone="no"?>
<!DOCTYPE svg PUBLIC "-//W3C//DTD SVG 1.1//EN"
 "http://www.w3.org/Graphics/SVG/1.1/DTD/svg11.dtd">
<!-- Generated by graphviz version 12.2.0 (20241103.1931)
 -->
<!-- Title: GH2D.h Pages: 1 -->
<svg width="560pt" height="138pt"
 viewBox="0.00 0.00 560.12 137.75" xmlns="http://www.w3.org/2000/svg" xmlns:xlink="http://www.w3.org/1999/xlink">
<g id="graph0" class="graph" transform="scale(1 1) rotate(0) translate(4 133.75)">
<title>GH2D.h</title>
<!-- Node1 -->
<g id="Node000001" class="node">
<title>Node1</title>
<g id="a_Node000001"><a xlink:title=" ">
<polygon fill="#999999" stroke="#666666" points="291.38,-129.75 240.88,-129.75 240.88,-110.5 291.38,-110.5 291.38,-129.75"/>
<text text-anchor="middle" x="266.12" y="-116.25" font-family="Helvetica,sans-Serif" font-size="10.00">GH2D.h</text>
</a>
</g>
</g>
<!-- Node2 -->
<g id="Node000002" class="node">
<title>Node2</title>
<g id="a_Node000002"><a xlink:title=" ">
<polygon fill="#e0e0e0" stroke="#999999" points="42.25,-19.25 0,-19.25 0,0 42.25,0 42.25,-19.25"/>
<text text-anchor="middle" x="21.12" y="-5.75" font-family="Helvetica,sans-Serif" font-size="10.00">cstdio</text>
</a>
</g>
</g>
<!-- Node1&#45;&gt;Node2 -->
<g id="edge1_Node000001_Node000002" class="edge">
<title>Node1&#45;&gt;Node2</title>
<g id="a_edge1_Node000001_Node000002"><a xlink:title=" ">
<path fill="none" stroke="#63b8ff" d="M240.62,-113.7C210.65,-106.81 159.86,-93.49 119.12,-74.5 90.6,-61.2 60.69,-40.59 41.53,-26.4"/>
<polygon fill="#63b8ff" stroke="#63b8ff" points="43.86,-23.77 33.77,-20.55 39.65,-29.36 43.86,-23.77"/>
</a>
</g>
</g>
<!-- Node3 -->
<g id="Node000003" class="node">
<title>Node3</title>
<g id="a_Node000003"><a xlink:title=" ">
<polygon fill="#e0e0e0" stroke="#999999" points="95.5,-19.25 60.75,-19.25 60.75,0 95.5,0 95.5,-19.25"/>
<text text-anchor="middle" x="78.12" y="-5.75" font-family="Helvetica,sans-Serif" font-size="10.00">map</text>
</a>
</g>
</g>
<!-- Node1&#45;&gt;Node3 -->
<g id="edge2_Node000001_Node000003" class="edge">
<title>Node1&#45;&gt;Node3</title>
<g id="a_edge2_Node000001_Node000003"><a xlink:title=" ">
<path fill="none" stroke="#63b8ff" d="M240.45,-112.47C215.65,-105.36 177.62,-92.61 148.12,-74.5 127.19,-61.65 106.87,-42.06 93.56,-27.97"/>
<polygon fill="#63b8ff" stroke="#63b8ff" points="96.26,-25.73 86.92,-20.74 91.11,-30.47 96.26,-25.73"/>
</a>
</g>
</g>
<!-- Node4 -->
<g id="Node000004" class="node">
<title>Node4</title>
<g id="a_Node000004"><a xlink:title=" ">
<polygon fill="#e0e0e0" stroke="#999999" points="174.62,-19.25 113.62,-19.25 113.62,0 174.62,0 174.62,-19.25"/>
<text text-anchor="middle" x="144.12" y="-5.75" font-family="Helvetica,sans-Serif" font-size="10.00">TNamed.h</text>
</a>
</g>
</g>
<!-- Node1&#45;&gt;Node4 -->
<g id="edge3_Node000001_Node000004" class="edge">
<title>Node1&#45;&gt;Node4</title>
<g id="a_edge3_Node000001_Node000004"><a xlink:title=" ">
<path fill="none" stroke="#63b8ff" d="M240.49,-114.43C217.13,-108.84 183.3,-97.24 163.12,-74.5 152.43,-62.44 147.75,-44.58 145.7,-30.81"/>
<polygon fill="#63b8ff" stroke="#63b8ff" points="149.21,-30.66 144.63,-21.11 142.25,-31.43 149.21,-30.66"/>
</a>
</g>
</g>
<!-- Node5 -->
<g id="Node000005" class="node">
<title>Node5</title>
<g id="a_Node000005"><a xlink:title=" ">
<polygon fill="#e0e0e0" stroke="#999999" points="306.25,-19.25 264,-19.25 264,0 306.25,0 306.25,-19.25"/>
<text text-anchor="middle" x="285.12" y="-5.75" font-family="Helvetica,sans-Serif" font-size="10.00">TH2.h</text>
</a>
</g>
</g>
<!-- Node1&#45;&gt;Node5 -->
<g id="edge4_Node000001_Node000005" class="edge">
<title>Node1&#45;&gt;Node5</title>
<g id="a_edge4_Node000001_Node000005"><a xlink:title=" ">
<path fill="none" stroke="#63b8ff" d="M267.68,-110.25C270.7,-93 277.43,-54.58 281.59,-30.81"/>
<polygon fill="#63b8ff" stroke="#63b8ff" points="285.01,-31.57 283.29,-21.12 278.12,-30.36 285.01,-31.57"/>
</a>
</g>
</g>
<!-- Node6 -->
<g id="Node000006" class="node">
<title>Node6</title>
<g id="a_Node000006"><a xlink:title=" ">
<polygon fill="#e0e0e0" stroke="#999999" points="370.12,-19.25 324.12,-19.25 324.12,0 370.12,0 370.12,-19.25"/>
<text text-anchor="middle" x="347.12" y="-5.75" font-family="Helvetica,sans-Serif" font-size="10.00">TList.h</text>
</a>
</g>
</g>
<!-- Node1&#45;&gt;Node6 -->
<g id="edge5_Node000001_Node000006" class="edge">
<title>Node1&#45;&gt;Node6</title>
<g id="a_edge5_Node000001_Node000006"><a xlink:title=" ">
<path fill="none" stroke="#63b8ff" d="M272.75,-110.25C286.04,-92.44 316.18,-52.08 333.73,-28.56"/>
<polygon fill="#63b8ff" stroke="#63b8ff" points="336.32,-30.95 339.5,-20.84 330.71,-26.76 336.32,-30.95"/>
</a>
</g>
</g>
<!-- Node7 -->
<g id="Node000007" class="node">
<title>Node7</title>
<g id="a_Node000007"><a xlink:title=" ">
<polygon fill="#e0e0e0" stroke="#999999" points="406.38,-74.5 331.88,-74.5 331.88,-55.25 406.38,-55.25 406.38,-74.5"/>
<text text-anchor="middle" x="369.12" y="-61" font-family="Helvetica,sans-Serif" font-size="10.00">TVirtualPad.h</text>
</a>
</g>
</g>
<!-- Node1&#45;&gt;Node7 -->
<g id="edge6_Node000001_Node000007" class="edge">
<title>Node1&#45;&gt;Node7</title>
<g id="a_edge6_Node000001_Node000007"><a xlink:title=" ">
<path fill="none" stroke="#63b8ff" d="M283.6,-110.09C299.43,-101.91 323.03,-89.71 341.43,-80.19"/>
<polygon fill="#63b8ff" stroke="#63b8ff" points="342.95,-83.35 350.22,-75.65 339.73,-77.13 342.95,-83.35"/>
</a>
</g>
</g>
<!-- Node8 -->
<g id="Node000008" class="node">
<title>Node8</title>
<g id="a_Node000008"><a xlink:title=" ">
<polygon fill="#e0e0e0" stroke="#999999" points="481.75,-74.5 424.5,-74.5 424.5,-55.25 481.75,-55.25 481.75,-74.5"/>
<text text-anchor="middle" x="453.12" y="-61" font-family="Helvetica,sans-Serif" font-size="10.00">TFrame.h</text>
</a>
</g>
</g>
<!-- Node1&#45;&gt;Node8 -->
<g id="edge7_Node000001_Node000008" class="edge">
<title>Node1&#45;&gt;Node8</title>
<g id="a_edge7_Node000001_Node000008"><a xlink:title=" ">
<path fill="none" stroke="#63b8ff" d="M291.73,-111.83C323.1,-102.9 376.58,-87.67 413.32,-77.21"/>
<polygon fill="#63b8ff" stroke="#63b8ff" points="414.03,-80.65 422.69,-74.54 412.11,-73.91 414.03,-80.65"/>
</a>
</g>
</g>
<!-- Node9 -->
<g id="Node000009" class="node">
<title>Node9</title>
<g id="a_Node000009"><a xlink:title=" ">
<polygon fill="#e0e0e0" stroke="#999999" points="552.12,-74.5 500.12,-74.5 500.12,-55.25 552.12,-55.25 552.12,-74.5"/>
<text text-anchor="middle" x="526.12" y="-61" font-family="Helvetica,sans-Serif" font-size="10.00">TCutG.h</text>
</a>
</g>
</g>
<!-- Node1&#45;&gt;Node9 -->
<g id="edge8_Node000001_Node000009" class="edge">
<title>Node1&#45;&gt;Node9</title>
<g id="a_edge8_Node000001_Node000009"><a xlink:title=" ">
<path fill="none" stroke="#63b8ff" d="M291.85,-114.42C331.85,-107.02 411.62,-91.92 488.9,-74.92"/>
<polygon fill="#63b8ff" stroke="#63b8ff" points="489.3,-78.41 498.3,-72.83 487.78,-71.58 489.3,-78.41"/>
</a>
</g>
</g>
<!-- Node10 -->
<g id="Node000010" class="node">
<title>Node10</title>
<g id="a_Node000010"><a xlink:href="_g_h2_base_8h.html" target="_top" xlink:title=" ">
<polygon fill="white" stroke="#666666" points="238.25,-74.5 172,-74.5 172,-55.25 238.25,-55.25 238.25,-74.5"/>
<text text-anchor="middle" x="205.12" y="-61" font-family="Helvetica,sans-Serif" font-size="10.00">GH2Base.h</text>
</a>
</g>
</g>
<!-- Node1&#45;&gt;Node10 -->
<g id="edge9_Node000001_Node000010" class="edge">
<title>Node1&#45;&gt;Node10</title>
<g id="a_edge9_Node000001_Node000010"><a xlink:title=" ">
<path fill="none" stroke="#63b8ff" d="M255.78,-110.09C247.05,-102.47 234.34,-91.37 223.83,-82.2"/>
<polygon fill="#63b8ff" stroke="#63b8ff" points="226.3,-79.71 216.46,-75.77 221.69,-84.98 226.3,-79.71"/>
</a>
</g>
</g>
<!-- Node10&#45;&gt;Node2 -->
<g id="edge10_Node000010_Node000002" class="edge">
<title>Node10&#45;&gt;Node2</title>
<g id="a_edge10_Node000010_Node000002"><a xlink:title=" ">
<path fill="none" stroke="#63b8ff" d="M173.91,-54.84C140.38,-45.14 87.35,-29.79 53.41,-19.97"/>
<polygon fill="#63b8ff" stroke="#63b8ff" points="54.72,-16.7 44.14,-17.29 52.78,-23.43 54.72,-16.7"/>
</a>
</g>
</g>
<!-- Node10&#45;&gt;Node3 -->
<g id="edge12_Node000010_Node000003" class="edge">
<title>Node10&#45;&gt;Node3</title>
<g id="a_edge12_Node000010_Node000003"><a xlink:title=" ">
<path fill="none" stroke="#63b8ff" d="M183.58,-54.84C162.3,-45.92 129.62,-32.22 106.29,-22.43"/>
<polygon fill="#63b8ff" stroke="#63b8ff" points="107.65,-19.21 97.07,-18.57 104.94,-25.66 107.65,-19.21"/>
</a>
</g>
</g>
<!-- Node10&#45;&gt;Node4 -->
<g id="edge13_Node000010_Node000004" class="edge">
<title>Node10&#45;&gt;Node4</title>
<g id="a_edge13_Node000010_Node000004"><a xlink:title=" ">
<path fill="none" stroke="#63b8ff" d="M194.78,-54.84C186.05,-47.22 173.34,-36.12 162.83,-26.95"/>
<polygon fill="#63b8ff" stroke="#63b8ff" points="165.3,-24.46 155.46,-20.52 160.69,-29.73 165.3,-24.46"/>
</a>
</g>
</g>
<!-- Node10&#45;&gt;Node5 -->
<g id="edge14_Node000010_Node000005" class="edge">
<title>Node10&#45;&gt;Node5</title>
<g id="a_edge14_Node000010_Node000005"><a xlink:title=" ">
<path fill="none" stroke="#63b8ff" d="M218.7,-54.84C230.53,-46.96 247.96,-35.36 262,-26.02"/>
<polygon fill="#63b8ff" stroke="#63b8ff" points="263.84,-29 270.23,-20.54 259.96,-23.17 263.84,-29"/>
</a>
</g>
</g>
<!-- Node10&#45;&gt;Node6 -->
<g id="edge15_Node000010_Node000006" class="edge">
<title>Node10&#45;&gt;Node6</title>
<g id="a_edge15_Node000010_Node000006"><a xlink:title=" ">
<path fill="none" stroke="#63b8ff" d="M229.21,-54.84C252.34,-46.17 287.48,-32.99 313.39,-23.28"/>
<polygon fill="#63b8ff" stroke="#63b8ff" points="314.31,-26.67 322.45,-19.88 311.85,-20.11 314.31,-26.67"/>
</a>
</g>
</g>
<!-- Node11 -->
<g id="Node000011" class="node">
<title>Node11</title>
<g id="a_Node000011"><a xlink:title=" ">
<polygon fill="#e0e0e0" stroke="#999999" points="245.88,-19.25 192.38,-19.25 192.38,0 245.88,0 245.88,-19.25"/>
<text text-anchor="middle" x="219.12" y="-5.75" font-family="Helvetica,sans-Serif" font-size="10.00">iostream</text>
</a>
</g>
</g>
<!-- Node10&#45;&gt;Node11 -->
<g id="edge11_Node000010_Node000011" class="edge">
<title>Node10&#45;&gt;Node11</title>
<g id="a_edge11_Node000010_Node000011"><a xlink:title=" ">
<path fill="none" stroke="#63b8ff" d="M207.44,-55.08C209.19,-48.42 211.67,-38.99 213.89,-30.53"/>
<polygon fill="#63b8ff" stroke="#63b8ff" points="217.22,-31.63 216.38,-21.07 210.45,-29.85 217.22,-31.63"/>
</a>
</g>
</g>
</g>
</svg>
