<?xml version="1.0" encoding="UTF-8" standalone="no"?>
<!DOCTYPE svg PUBLIC "-//W3C//DTD SVG 1.1//EN"
 "http://www.w3.org/Graphics/SVG/1.1/DTD/svg11.dtd">
<!-- Generated by graphviz version 12.2.0 (20241103.1931)
 -->
<!-- Title: GHSym.cxx Pages: 1 -->
<svg width="1338pt" height="138pt"
 viewBox="0.00 0.00 1337.88 137.75" xmlns="http://www.w3.org/2000/svg" xmlns:xlink="http://www.w3.org/1999/xlink">
<g id="graph0" class="graph" transform="scale(1 1) rotate(0) translate(4 133.75)">
<title>GHSym.cxx</title>
<!-- Node1 -->
<g id="Node000001" class="node">
<title>Node1</title>
<g id="a_Node000001"><a xlink:title=" ">
<polygon fill="#999999" stroke="#666666" points="845.62,-129.75 778.62,-129.75 778.62,-110.5 845.62,-110.5 845.62,-129.75"/>
<text text-anchor="middle" x="812.12" y="-116.25" font-family="Helvetica,sans-Serif" font-size="10.00">GHSym.cxx</text>
</a>
</g>
</g>
<!-- Node2 -->
<g id="Node000002" class="node">
<title>Node2</title>
<g id="a_Node000002"><a xlink:href="_g_h_sym_8h.html" target="_top" xlink:title=" ">
<polygon fill="white" stroke="#666666" points="304.12,-74.5 246.12,-74.5 246.12,-55.25 304.12,-55.25 304.12,-74.5"/>
<text text-anchor="middle" x="275.12" y="-61" font-family="Helvetica,sans-Serif" font-size="10.00">GHSym.h</text>
</a>
</g>
</g>
<!-- Node1&#45;&gt;Node2 -->
<g id="edge1_Node000001_Node000002" class="edge">
<title>Node1&#45;&gt;Node2</title>
<g id="a_edge1_Node000001_Node000002"><a xlink:title=" ">
<path fill="none" stroke="#63b8ff" d="M778.21,-115.96C702.25,-108.83 512.66,-90.88 354.12,-74.5 341.64,-73.21 328.06,-71.75 315.74,-70.4"/>
<polygon fill="#63b8ff" stroke="#63b8ff" points="316.21,-66.93 305.88,-69.32 315.44,-73.89 316.21,-66.93"/>
</a>
</g>
</g>
<!-- Node8 -->
<g id="Node000008" class="node">
<title>Node8</title>
<g id="a_Node000008"><a xlink:title=" ">
<polygon fill="#e0e0e0" stroke="#999999" points="388.5,-19.25 347.75,-19.25 347.75,0 388.5,0 388.5,-19.25"/>
<text text-anchor="middle" x="368.12" y="-5.75" font-family="Helvetica,sans-Serif" font-size="10.00">TF1.h</text>
</a>
</g>
</g>
<!-- Node1&#45;&gt;Node8 -->
<g id="edge17_Node000001_Node000008" class="edge">
<title>Node1&#45;&gt;Node8</title>
<g id="a_edge17_Node000001_Node000008"><a xlink:title=" ">
<path fill="none" stroke="#63b8ff" d="M778.15,-118.75C693.69,-117.28 476.6,-110.04 415.12,-74.5 397.46,-64.29 384.49,-44.49 376.71,-29.63"/>
<polygon fill="#63b8ff" stroke="#63b8ff" points="379.95,-28.29 372.43,-20.83 373.66,-31.35 379.95,-28.29"/>
</a>
</g>
</g>
<!-- Node9 -->
<g id="Node000009" class="node">
<title>Node9</title>
<g id="a_Node000009"><a xlink:title=" ">
<polygon fill="#e0e0e0" stroke="#999999" points="471.88,-19.25 406.38,-19.25 406.38,0 471.88,0 471.88,-19.25"/>
<text text-anchor="middle" x="439.12" y="-5.75" font-family="Helvetica,sans-Serif" font-size="10.00">TRandom.h</text>
</a>
</g>
</g>
<!-- Node1&#45;&gt;Node9 -->
<g id="edge19_Node000001_Node000009" class="edge">
<title>Node1&#45;&gt;Node9</title>
<g id="a_edge19_Node000001_Node000009"><a xlink:title=" ">
<path fill="none" stroke="#63b8ff" d="M778.23,-117.75C688.22,-113.74 448.47,-100.69 425.12,-74.5 414.17,-62.21 420.12,-43.34 427.34,-29.3"/>
<polygon fill="#63b8ff" stroke="#63b8ff" points="430.16,-31.41 432.09,-21 424.09,-27.93 430.16,-31.41"/>
</a>
</g>
</g>
<!-- Node10 -->
<g id="Node000010" class="node">
<title>Node10</title>
<g id="a_Node000010"><a xlink:title=" ">
<polygon fill="#e0e0e0" stroke="#999999" points="491.75,-74.5 434.5,-74.5 434.5,-55.25 491.75,-55.25 491.75,-74.5"/>
<text text-anchor="middle" x="463.12" y="-61" font-family="Helvetica,sans-Serif" font-size="10.00">TROOT.h</text>
</a>
</g>
</g>
<!-- Node1&#45;&gt;Node10 -->
<g id="edge9_Node000001_Node000010" class="edge">
<title>Node1&#45;&gt;Node10</title>
<g id="a_edge9_Node000001_Node000010"><a xlink:title=" ">
<path fill="none" stroke="#63b8ff" d="M778.26,-115.26C722.78,-108.72 608.83,-94.4 503.33,-74.98"/>
<polygon fill="#63b8ff" stroke="#63b8ff" points="504.12,-71.56 493.65,-73.17 502.84,-78.45 504.12,-71.56"/>
</a>
</g>
</g>
<!-- Node11 -->
<g id="Node000011" class="node">
<title>Node11</title>
<g id="a_Node000011"><a xlink:title=" ">
<polygon fill="#e0e0e0" stroke="#999999" points="578.75,-74.5 509.5,-74.5 509.5,-55.25 578.75,-55.25 578.75,-74.5"/>
<text text-anchor="middle" x="544.12" y="-61" font-family="Helvetica,sans-Serif" font-size="10.00">THashList.h</text>
</a>
</g>
</g>
<!-- Node1&#45;&gt;Node11 -->
<g id="edge10_Node000001_Node000011" class="edge">
<title>Node1&#45;&gt;Node11</title>
<g id="a_edge10_Node000001_Node000011"><a xlink:title=" ">
<path fill="none" stroke="#63b8ff" d="M778.18,-112.38C730.55,-102.92 643.73,-85.67 590.27,-75.04"/>
<polygon fill="#63b8ff" stroke="#63b8ff" points="591.04,-71.63 580.55,-73.11 589.68,-78.49 591.04,-71.63"/>
</a>
</g>
</g>
<!-- Node12 -->
<g id="Node000012" class="node">
<title>Node12</title>
<g id="a_Node000012"><a xlink:title=" ">
<polygon fill="#e0e0e0" stroke="#999999" points="687.62,-74.5 596.62,-74.5 596.62,-55.25 687.62,-55.25 687.62,-74.5"/>
<text text-anchor="middle" x="642.12" y="-61" font-family="Helvetica,sans-Serif" font-size="10.00">THLimitsFinder.h</text>
</a>
</g>
</g>
<!-- Node1&#45;&gt;Node12 -->
<g id="edge11_Node000001_Node000012" class="edge">
<title>Node1&#45;&gt;Node12</title>
<g id="a_edge11_Node000001_Node000012"><a xlink:title=" ">
<path fill="none" stroke="#63b8ff" d="M783.29,-110.09C755.45,-101.37 713.05,-88.09 681.99,-78.36"/>
<polygon fill="#63b8ff" stroke="#63b8ff" points="683.14,-75.05 672.55,-75.4 681.05,-81.73 683.14,-75.05"/>
</a>
</g>
</g>
<!-- Node13 -->
<g id="Node000013" class="node">
<title>Node13</title>
<g id="a_Node000013"><a xlink:title=" ">
<polygon fill="#e0e0e0" stroke="#999999" points="812.12,-74.5 706.12,-74.5 706.12,-55.25 812.12,-55.25 812.12,-74.5"/>
<text text-anchor="middle" x="759.12" y="-61" font-family="Helvetica,sans-Serif" font-size="10.00">TVirtualHistPainter.h</text>
</a>
</g>
</g>
<!-- Node1&#45;&gt;Node13 -->
<g id="edge12_Node000001_Node000013" class="edge">
<title>Node1&#45;&gt;Node13</title>
<g id="a_edge12_Node000001_Node000013"><a xlink:title=" ">
<path fill="none" stroke="#63b8ff" d="M803.37,-110.33C795.98,-102.9 785.16,-92.04 776.08,-82.91"/>
<polygon fill="#63b8ff" stroke="#63b8ff" points="778.67,-80.55 769.13,-75.93 773.71,-85.49 778.67,-80.55"/>
</a>
</g>
</g>
<!-- Node14 -->
<g id="Node000014" class="node">
<title>Node14</title>
<g id="a_Node000014"><a xlink:title=" ">
<polygon fill="#e0e0e0" stroke="#999999" points="900.12,-74.5 830.12,-74.5 830.12,-55.25 900.12,-55.25 900.12,-74.5"/>
<text text-anchor="middle" x="865.12" y="-61" font-family="Helvetica,sans-Serif" font-size="10.00">TObjString.h</text>
</a>
</g>
</g>
<!-- Node1&#45;&gt;Node14 -->
<g id="edge13_Node000001_Node000014" class="edge">
<title>Node1&#45;&gt;Node14</title>
<g id="a_edge13_Node000001_Node000014"><a xlink:title=" ">
<path fill="none" stroke="#63b8ff" d="M820.88,-110.33C828.27,-102.9 839.09,-92.04 848.17,-82.91"/>
<polygon fill="#63b8ff" stroke="#63b8ff" points="850.54,-85.49 855.12,-75.93 845.58,-80.55 850.54,-85.49"/>
</a>
</g>
</g>
<!-- Node15 -->
<g id="Node000015" class="node">
<title>Node15</title>
<g id="a_Node000015"><a xlink:title=" ">
<polygon fill="#e0e0e0" stroke="#999999" points="992.38,-74.5 917.88,-74.5 917.88,-55.25 992.38,-55.25 992.38,-74.5"/>
<text text-anchor="middle" x="955.12" y="-61" font-family="Helvetica,sans-Serif" font-size="10.00">TVirtualPad.h</text>
</a>
</g>
</g>
<!-- Node1&#45;&gt;Node15 -->
<g id="edge14_Node000001_Node000015" class="edge">
<title>Node1&#45;&gt;Node15</title>
<g id="a_edge14_Node000001_Node000015"><a xlink:title=" ">
<path fill="none" stroke="#63b8ff" d="M836.38,-110.09C859.39,-101.52 894.22,-88.56 920.21,-78.88"/>
<polygon fill="#63b8ff" stroke="#63b8ff" points="921.18,-82.25 929.33,-75.48 918.74,-75.69 921.18,-82.25"/>
</a>
</g>
</g>
<!-- Node16 -->
<g id="Node000016" class="node">
<title>Node16</title>
<g id="a_Node000016"><a xlink:title=" ">
<polygon fill="#e0e0e0" stroke="#999999" points="1061.75,-74.5 1010.5,-74.5 1010.5,-55.25 1061.75,-55.25 1061.75,-74.5"/>
<text text-anchor="middle" x="1036.12" y="-61" font-family="Helvetica,sans-Serif" font-size="10.00">TMath.h</text>
</a>
</g>
</g>
<!-- Node1&#45;&gt;Node16 -->
<g id="edge15_Node000001_Node000016" class="edge">
<title>Node1&#45;&gt;Node16</title>
<g id="a_edge15_Node000001_Node000016"><a xlink:title=" ">
<path fill="none" stroke="#63b8ff" d="M845.95,-111.24C881.57,-102.92 939.58,-89.3 999.03,-74.99"/>
<polygon fill="#63b8ff" stroke="#63b8ff" points="999.77,-78.41 1008.67,-72.66 998.12,-71.61 999.77,-78.41"/>
</a>
</g>
</g>
<!-- Node17 -->
<g id="Node000017" class="node">
<title>Node17</title>
<g id="a_Node000017"><a xlink:title=" ">
<polygon fill="#e0e0e0" stroke="#999999" points="1126.5,-74.5 1079.75,-74.5 1079.75,-55.25 1126.5,-55.25 1126.5,-74.5"/>
<text text-anchor="middle" x="1103.12" y="-61" font-family="Helvetica,sans-Serif" font-size="10.00">TPad.h</text>
</a>
</g>
</g>
<!-- Node1&#45;&gt;Node17 -->
<g id="edge16_Node000001_Node000017" class="edge">
<title>Node1&#45;&gt;Node17</title>
<g id="a_edge16_Node000001_Node000017"><a xlink:title=" ">
<path fill="none" stroke="#63b8ff" d="M845.85,-114.34C893.37,-107.36 982.98,-93.41 1068.24,-74.98"/>
<polygon fill="#63b8ff" stroke="#63b8ff" points="1068.92,-78.41 1077.94,-72.85 1067.42,-71.57 1068.92,-78.41"/>
</a>
</g>
</g>
<!-- Node18 -->
<g id="Node000018" class="node">
<title>Node18</title>
<g id="a_Node000018"><a xlink:title=" ">
<polygon fill="#e0e0e0" stroke="#999999" points="1185.5,-74.5 1144.75,-74.5 1144.75,-55.25 1185.5,-55.25 1185.5,-74.5"/>
<text text-anchor="middle" x="1165.12" y="-61" font-family="Helvetica,sans-Serif" font-size="10.00">TF2.h</text>
</a>
</g>
</g>
<!-- Node1&#45;&gt;Node18 -->
<g id="edge18_Node000001_Node000018" class="edge">
<title>Node1&#45;&gt;Node18</title>
<g id="a_edge18_Node000001_Node000018"><a xlink:title=" ">
<path fill="none" stroke="#63b8ff" d="M845.88,-116.06C903.05,-110.53 1022.69,-97.48 1133.53,-74.53"/>
<polygon fill="#63b8ff" stroke="#63b8ff" points="1134.02,-78 1143.08,-72.52 1132.58,-71.15 1134.02,-78"/>
</a>
</g>
</g>
<!-- Node19 -->
<g id="Node000019" class="node">
<title>Node19</title>
<g id="a_Node000019"><a xlink:title=" ">
<polygon fill="#e0e0e0" stroke="#999999" points="1258.25,-74.5 1204,-74.5 1204,-55.25 1258.25,-55.25 1258.25,-74.5"/>
<text text-anchor="middle" x="1231.12" y="-61" font-family="Helvetica,sans-Serif" font-size="10.00">TClass.h</text>
</a>
</g>
</g>
<!-- Node1&#45;&gt;Node19 -->
<g id="edge20_Node000001_Node000019" class="edge">
<title>Node1&#45;&gt;Node19</title>
<g id="a_edge20_Node000001_Node000019"><a xlink:title=" ">
<path fill="none" stroke="#63b8ff" d="M846.04,-116.46C911.11,-111.06 1058.18,-97.52 1192.43,-74.58"/>
<polygon fill="#63b8ff" stroke="#63b8ff" points="1192.97,-78.04 1202.23,-72.89 1191.77,-71.14 1192.97,-78.04"/>
</a>
</g>
</g>
<!-- Node20 -->
<g id="Node000020" class="node">
<title>Node20</title>
<g id="a_Node000020"><a xlink:title=" ">
<polygon fill="#e0e0e0" stroke="#999999" points="1329.88,-74.5 1276.38,-74.5 1276.38,-55.25 1329.88,-55.25 1329.88,-74.5"/>
<text text-anchor="middle" x="1303.12" y="-61" font-family="Helvetica,sans-Serif" font-size="10.00">iostream</text>
</a>
</g>
</g>
<!-- Node1&#45;&gt;Node20 -->
<g id="edge21_Node000001_Node000020" class="edge">
<title>Node1&#45;&gt;Node20</title>
<g id="a_edge21_Node000001_Node000020"><a xlink:title=" ">
<path fill="none" stroke="#63b8ff" d="M846.01,-117.4C920.17,-113.28 1102.53,-101.29 1264.92,-74.64"/>
<polygon fill="#63b8ff" stroke="#63b8ff" points="1265.3,-78.12 1274.59,-73.02 1264.15,-71.22 1265.3,-78.12"/>
</a>
</g>
</g>
<!-- Node3 -->
<g id="Node000003" class="node">
<title>Node3</title>
<g id="a_Node000003"><a xlink:title=" ">
<polygon fill="#e0e0e0" stroke="#999999" points="329.25,-19.25 287,-19.25 287,0 329.25,0 329.25,-19.25"/>
<text text-anchor="middle" x="308.12" y="-5.75" font-family="Helvetica,sans-Serif" font-size="10.00">TH1.h</text>
</a>
</g>
</g>
<!-- Node2&#45;&gt;Node3 -->
<g id="edge2_Node000002_Node000003" class="edge">
<title>Node2&#45;&gt;Node3</title>
<g id="a_edge2_Node000002_Node000003"><a xlink:title=" ">
<path fill="none" stroke="#63b8ff" d="M280.57,-55.08C284.9,-48.11 291.09,-38.12 296.51,-29.37"/>
<polygon fill="#63b8ff" stroke="#63b8ff" points="299.47,-31.24 301.76,-20.9 293.52,-27.55 299.47,-31.24"/>
</a>
</g>
</g>
<!-- Node4 -->
<g id="Node000004" class="node">
<title>Node4</title>
<g id="a_Node000004"><a xlink:title=" ">
<polygon fill="#e0e0e0" stroke="#999999" points="42.25,-19.25 0,-19.25 0,0 42.25,0 42.25,-19.25"/>
<text text-anchor="middle" x="21.12" y="-5.75" font-family="Helvetica,sans-Serif" font-size="10.00">TH2.h</text>
</a>
</g>
</g>
<!-- Node2&#45;&gt;Node4 -->
<g id="edge3_Node000002_Node000004" class="edge">
<title>Node2&#45;&gt;Node4</title>
<g id="a_edge3_Node000002_Node000004"><a xlink:title=" ">
<path fill="none" stroke="#63b8ff" d="M245.96,-58.87C205.06,-51.67 128.14,-37.51 53.66,-19.71"/>
<polygon fill="#63b8ff" stroke="#63b8ff" points="54.71,-16.36 44.17,-17.42 53.07,-23.17 54.71,-16.36"/>
</a>
</g>
</g>
<!-- Node5 -->
<g id="Node000005" class="node">
<title>Node5</title>
<g id="a_Node000005"><a xlink:title=" ">
<polygon fill="#e0e0e0" stroke="#999999" points="118.12,-19.25 60.12,-19.25 60.12,0 118.12,0 118.12,-19.25"/>
<text text-anchor="middle" x="89.12" y="-5.75" font-family="Helvetica,sans-Serif" font-size="10.00">TArrayF.h</text>
</a>
</g>
</g>
<!-- Node2&#45;&gt;Node5 -->
<g id="edge4_Node000002_Node000005" class="edge">
<title>Node2&#45;&gt;Node5</title>
<g id="a_edge4_Node000002_Node000005"><a xlink:title=" ">
<path fill="none" stroke="#63b8ff" d="M245.65,-55.44C214.23,-46.44 164.26,-32.14 129.26,-22.11"/>
<polygon fill="#63b8ff" stroke="#63b8ff" points="130.49,-18.83 119.91,-19.44 128.56,-25.56 130.49,-18.83"/>
</a>
</g>
</g>
<!-- Node6 -->
<g id="Node000006" class="node">
<title>Node6</title>
<g id="a_Node000006"><a xlink:title=" ">
<polygon fill="#e0e0e0" stroke="#999999" points="194.5,-19.25 135.75,-19.25 135.75,0 194.5,0 194.5,-19.25"/>
<text text-anchor="middle" x="165.12" y="-5.75" font-family="Helvetica,sans-Serif" font-size="10.00">TArrayD.h</text>
</a>
</g>
</g>
<!-- Node2&#45;&gt;Node6 -->
<g id="edge5_Node000002_Node000006" class="edge">
<title>Node2&#45;&gt;Node6</title>
<g id="a_edge5_Node000002_Node000006"><a xlink:title=" ">
<path fill="none" stroke="#63b8ff" d="M256.46,-54.84C239.4,-46.58 213.88,-34.23 194.15,-24.68"/>
<polygon fill="#63b8ff" stroke="#63b8ff" points="195.76,-21.57 185.24,-20.36 192.71,-27.87 195.76,-21.57"/>
</a>
</g>
</g>
<!-- Node7 -->
<g id="Node000007" class="node">
<title>Node7</title>
<g id="a_Node000007"><a xlink:title=" ">
<polygon fill="#e0e0e0" stroke="#999999" points="269.38,-19.25 212.88,-19.25 212.88,0 269.38,0 269.38,-19.25"/>
<text text-anchor="middle" x="241.12" y="-5.75" font-family="Helvetica,sans-Serif" font-size="10.00">TProfile.h</text>
</a>
</g>
</g>
<!-- Node2&#45;&gt;Node7 -->
<g id="edge6_Node000002_Node000007" class="edge">
<title>Node2&#45;&gt;Node7</title>
<g id="a_edge6_Node000002_Node000007"><a xlink:title=" ">
<path fill="none" stroke="#63b8ff" d="M269.51,-55.08C265.01,-48.03 258.54,-37.9 252.91,-29.08"/>
<polygon fill="#63b8ff" stroke="#63b8ff" points="256.01,-27.43 247.68,-20.88 250.11,-31.2 256.01,-27.43"/>
</a>
</g>
</g>
<!-- Node2&#45;&gt;Node8 -->
<g id="edge7_Node000002_Node000008" class="edge">
<title>Node2&#45;&gt;Node8</title>
<g id="a_edge7_Node000002_Node000008"><a xlink:title=" ">
<path fill="none" stroke="#63b8ff" d="M290.9,-54.84C305.06,-46.73 326.11,-34.68 342.65,-25.21"/>
<polygon fill="#63b8ff" stroke="#63b8ff" points="344.02,-28.46 350.96,-20.45 340.54,-22.39 344.02,-28.46"/>
</a>
</g>
</g>
<!-- Node2&#45;&gt;Node9 -->
<g id="edge8_Node000002_Node000009" class="edge">
<title>Node2&#45;&gt;Node9</title>
<g id="a_edge8_Node000002_Node000009"><a xlink:title=" ">
<path fill="none" stroke="#63b8ff" d="M302.95,-54.84C329.69,-46.16 370.34,-32.96 400.27,-23.24"/>
<polygon fill="#63b8ff" stroke="#63b8ff" points="401.3,-26.59 409.73,-20.17 399.14,-19.93 401.3,-26.59"/>
</a>
</g>
</g>
</g>
</svg>
