<?xml version="1.0" encoding="UTF-8" standalone="no"?>
<!DOCTYPE svg PUBLIC "-//W3C//DTD SVG 1.1//EN"
 "http://www.w3.org/Graphics/SVG/1.1/DTD/svg11.dtd">
<!-- Generated by graphviz version 9.0.0 (20230911.1827)
 -->
<!-- Title: GH1D.h Pages: 1 -->
<svg width="1777pt" height="193pt"
 viewBox="0.00 0.00 1777.12 193.00" xmlns="http://www.w3.org/2000/svg" xmlns:xlink="http://www.w3.org/1999/xlink">
<g id="graph0" class="graph" transform="scale(1 1) rotate(0) translate(4 189)">
<title>GH1D.h</title>
<!-- Node1 -->
<g id="Node000001" class="node">
<title>Node1</title>
<g id="a_Node000001"><a xlink:title=" ">
<polygon fill="#999999" stroke="#666666" points="275.38,-185 224.88,-185 224.88,-165.75 275.38,-165.75 275.38,-185"/>
<text text-anchor="middle" x="250.12" y="-171.5" font-family="Helvetica,sans-Serif" font-size="10.00">GH1D.h</text>
</a>
</g>
</g>
<!-- Node2 -->
<g id="Node000002" class="node">
<title>Node2</title>
<g id="a_Node000002"><a xlink:title=" ">
<polygon fill="#e0e0e0" stroke="#999999" points="42.25,-129.75 0,-129.75 0,-110.5 42.25,-110.5 42.25,-129.75"/>
<text text-anchor="middle" x="21.12" y="-116.25" font-family="Helvetica,sans-Serif" font-size="10.00">TH1.h</text>
</a>
</g>
</g>
<!-- Node1&#45;&gt;Node2 -->
<g id="edge1_Node000001_Node000002" class="edge">
<title>Node1&#45;&gt;Node2</title>
<g id="a_edge1_Node000001_Node000002"><a xlink:title=" ">
<path fill="none" stroke="#63b8ff" d="M224.56,-169.15C188.58,-161.69 120.7,-147.21 53.86,-130.34"/>
<polygon fill="#63b8ff" stroke="#63b8ff" points="54.73,-126.95 44.18,-127.87 53.01,-133.73 54.73,-126.95"/>
</a>
</g>
</g>
<!-- Node3 -->
<g id="Node000003" class="node">
<title>Node3</title>
<g id="a_Node000003"><a xlink:title=" ">
<polygon fill="#e0e0e0" stroke="#999999" points="104.38,-129.75 59.88,-129.75 59.88,-110.5 104.38,-110.5 104.38,-129.75"/>
<text text-anchor="middle" x="82.12" y="-116.25" font-family="Helvetica,sans-Serif" font-size="10.00">TRef.h</text>
</a>
</g>
</g>
<!-- Node1&#45;&gt;Node3 -->
<g id="edge2_Node000001_Node000003" class="edge">
<title>Node1&#45;&gt;Node3</title>
<g id="a_edge2_Node000001_Node000003"><a xlink:title=" ">
<path fill="none" stroke="#63b8ff" d="M224.61,-166.29C195.38,-157.02 147.39,-141.81 115.28,-131.63"/>
<polygon fill="#63b8ff" stroke="#63b8ff" points="116.68,-128.41 106.09,-128.72 114.56,-135.08 116.68,-128.41"/>
</a>
</g>
</g>
<!-- Node4 -->
<g id="Node000004" class="node">
<title>Node4</title>
<g id="a_Node000004"><a xlink:title=" ">
<polygon fill="#e0e0e0" stroke="#999999" points="169.5,-129.75 122.75,-129.75 122.75,-110.5 169.5,-110.5 169.5,-129.75"/>
<text text-anchor="middle" x="146.12" y="-116.25" font-family="Helvetica,sans-Serif" font-size="10.00">TPad.h</text>
</a>
</g>
</g>
<!-- Node1&#45;&gt;Node4 -->
<g id="edge3_Node000001_Node000004" class="edge">
<title>Node1&#45;&gt;Node4</title>
<g id="a_edge3_Node000001_Node000004"><a xlink:title=" ">
<path fill="none" stroke="#63b8ff" d="M232.48,-165.34C216.5,-157.16 192.67,-144.96 174.09,-135.44"/>
<polygon fill="#63b8ff" stroke="#63b8ff" points="175.7,-132.33 165.2,-130.89 172.51,-138.57 175.7,-132.33"/>
</a>
</g>
</g>
<!-- Node5 -->
<g id="Node000005" class="node">
<title>Node5</title>
<g id="a_Node000005"><a xlink:title=" ">
<polygon fill="#e0e0e0" stroke="#999999" points="252.5,-129.75 187.75,-129.75 187.75,-110.5 252.5,-110.5 252.5,-129.75"/>
<text text-anchor="middle" x="220.12" y="-116.25" font-family="Helvetica,sans-Serif" font-size="10.00">GuiTypes.h</text>
</a>
</g>
</g>
<!-- Node1&#45;&gt;Node5 -->
<g id="edge4_Node000001_Node000005" class="edge">
<title>Node1&#45;&gt;Node5</title>
<g id="a_edge4_Node000001_Node000005"><a xlink:title=" ">
<path fill="none" stroke="#63b8ff" d="M245.17,-165.58C241.24,-158.61 235.61,-148.62 230.69,-139.87"/>
<polygon fill="#63b8ff" stroke="#63b8ff" points="233.89,-138.42 225.93,-131.43 227.79,-141.86 233.89,-138.42"/>
</a>
</g>
</g>
<!-- Node6 -->
<g id="Node000006" class="node">
<title>Node6</title>
<g id="a_Node000006"><a xlink:title=" ">
<polygon fill="#e0e0e0" stroke="#999999" points="489.12,-19.25 443.12,-19.25 443.12,0 489.12,0 489.12,-19.25"/>
<text text-anchor="middle" x="466.12" y="-5.75" font-family="Helvetica,sans-Serif" font-size="10.00">TList.h</text>
</a>
</g>
</g>
<!-- Node1&#45;&gt;Node6 -->
<g id="edge5_Node000001_Node000006" class="edge">
<title>Node1&#45;&gt;Node6</title>
<g id="a_edge5_Node000001_Node000006"><a xlink:title=" ">
<path fill="none" stroke="#63b8ff" d="M252.7,-165.36C260.02,-140.31 281.57,-70.67 299.12,-55.25 336.25,-22.63 394.72,-13.51 431.71,-11.16"/>
<polygon fill="#63b8ff" stroke="#63b8ff" points="431.58,-14.67 441.39,-10.68 431.24,-7.68 431.58,-14.67"/>
</a>
</g>
</g>
<!-- Node7 -->
<g id="Node000007" class="node">
<title>Node7</title>
<g id="a_Node000007"><a xlink:title=" ">
<polygon fill="#e0e0e0" stroke="#999999" points="630.12,-129.75 584.12,-129.75 584.12,-110.5 630.12,-110.5 630.12,-129.75"/>
<text text-anchor="middle" x="607.12" y="-116.25" font-family="Helvetica,sans-Serif" font-size="10.00">TBox.h</text>
</a>
</g>
</g>
<!-- Node1&#45;&gt;Node7 -->
<g id="edge6_Node000001_Node000007" class="edge">
<title>Node1&#45;&gt;Node7</title>
<g id="a_edge6_Node000001_Node000007"><a xlink:title=" ">
<path fill="none" stroke="#63b8ff" d="M275.56,-171.62C329.89,-165.56 461.21,-150 570.12,-129.75 570.95,-129.6 571.79,-129.44 572.63,-129.27"/>
<polygon fill="#63b8ff" stroke="#63b8ff" points="573.17,-132.74 582.22,-127.24 571.71,-125.89 573.17,-132.74"/>
</a>
</g>
</g>
<!-- Node8 -->
<g id="Node000008" class="node">
<title>Node8</title>
<g id="a_Node000008"><a xlink:href="_globals_8h.html" target="_top" xlink:title=" ">
<polygon fill="white" stroke="#666666" points="1218.38,-74.5 1161.88,-74.5 1161.88,-55.25 1218.38,-55.25 1218.38,-74.5"/>
<text text-anchor="middle" x="1190.12" y="-61" font-family="Helvetica,sans-Serif" font-size="10.00">Globals.h</text>
</a>
</g>
</g>
<!-- Node1&#45;&gt;Node8 -->
<g id="edge7_Node000001_Node000008" class="edge">
<title>Node1&#45;&gt;Node8</title>
<g id="a_edge7_Node000001_Node000008"><a xlink:title=" ">
<path fill="none" stroke="#63b8ff" d="M275.69,-173.09C326.6,-169.96 443.77,-159.82 537.12,-129.75 555.15,-123.95 556.88,-115.56 575.12,-110.5 684.08,-80.27 1031.98,-69.54 1150.3,-66.72"/>
<polygon fill="#63b8ff" stroke="#63b8ff" points="1150.23,-70.22 1160.14,-66.49 1150.06,-63.22 1150.23,-70.22"/>
</a>
</g>
</g>
<!-- Node25 -->
<g id="Node000025" class="node">
<title>Node25</title>
<g id="a_Node000025"><a xlink:href="_g_h2_i_8h.html" target="_top" xlink:title=" ">
<polygon fill="white" stroke="#666666" points="528.5,-129.75 481.75,-129.75 481.75,-110.5 528.5,-110.5 528.5,-129.75"/>
<text text-anchor="middle" x="505.12" y="-116.25" font-family="Helvetica,sans-Serif" font-size="10.00">GH2I.h</text>
</a>
</g>
</g>
<!-- Node1&#45;&gt;Node25 -->
<g id="edge24_Node000001_Node000025" class="edge">
<title>Node1&#45;&gt;Node25</title>
<g id="a_edge24_Node000001_Node000025"><a xlink:title=" ">
<path fill="none" stroke="#63b8ff" d="M275.51,-169.07C321.42,-159.49 418.31,-139.25 470.34,-128.39"/>
<polygon fill="#63b8ff" stroke="#63b8ff" points="470.78,-131.87 479.85,-126.4 469.35,-125.02 470.78,-131.87"/>
</a>
</g>
</g>
<!-- Node9 -->
<g id="Node000009" class="node">
<title>Node9</title>
<g id="a_Node000009"><a xlink:title=" ">
<polygon fill="#e0e0e0" stroke="#999999" points="1566.75,-19.25 1521.5,-19.25 1521.5,0 1566.75,0 1566.75,-19.25"/>
<text text-anchor="middle" x="1544.12" y="-5.75" font-family="Helvetica,sans-Serif" font-size="10.00">cstdint</text>
</a>
</g>
</g>
<!-- Node8&#45;&gt;Node9 -->
<g id="edge8_Node000008_Node000009" class="edge">
<title>Node8&#45;&gt;Node9</title>
<g id="a_edge8_Node000008_Node000009"><a xlink:title=" ">
<path fill="none" stroke="#63b8ff" d="M1218.76,-61.13C1273.42,-55.62 1396.55,-41.97 1509.85,-19.47"/>
<polygon fill="#63b8ff" stroke="#63b8ff" points="1510.54,-22.9 1519.65,-17.49 1509.16,-16.04 1510.54,-22.9"/>
</a>
</g>
</g>
<!-- Node10 -->
<g id="Node000010" class="node">
<title>Node10</title>
<g id="a_Node000010"><a xlink:title=" ">
<polygon fill="#e0e0e0" stroke="#999999" points="813.88,-19.25 760.38,-19.25 760.38,0 813.88,0 813.88,-19.25"/>
<text text-anchor="middle" x="787.12" y="-5.75" font-family="Helvetica,sans-Serif" font-size="10.00">iostream</text>
</a>
</g>
</g>
<!-- Node8&#45;&gt;Node10 -->
<g id="edge9_Node000008_Node000010" class="edge">
<title>Node8&#45;&gt;Node10</title>
<g id="a_edge9_Node000008_Node000010"><a xlink:title=" ">
<path fill="none" stroke="#63b8ff" d="M1161.41,-61.51C1101.04,-56.29 956.4,-42.54 825.21,-19.43"/>
<polygon fill="#63b8ff" stroke="#63b8ff" points="826.13,-16.04 815.67,-17.72 824.9,-22.93 826.13,-16.04"/>
</a>
</g>
</g>
<!-- Node11 -->
<g id="Node000011" class="node">
<title>Node11</title>
<g id="a_Node000011"><a xlink:title=" ">
<polygon fill="#e0e0e0" stroke="#999999" points="1635,-19.25 1585.25,-19.25 1585.25,0 1635,0 1635,-19.25"/>
<text text-anchor="middle" x="1610.12" y="-5.75" font-family="Helvetica,sans-Serif" font-size="10.00">iomanip</text>
</a>
</g>
</g>
<!-- Node8&#45;&gt;Node11 -->
<g id="edge10_Node000008_Node000011" class="edge">
<title>Node8&#45;&gt;Node11</title>
<g id="a_edge10_Node000008_Node000011"><a xlink:title=" ">
<path fill="none" stroke="#63b8ff" d="M1218.41,-61.9C1280.78,-57.28 1435.01,-44.35 1573.72,-19.46"/>
<polygon fill="#63b8ff" stroke="#63b8ff" points="1574.26,-22.92 1583.47,-17.68 1573,-16.03 1574.26,-22.92"/>
</a>
</g>
</g>
<!-- Node12 -->
<g id="Node000012" class="node">
<title>Node12</title>
<g id="a_Node000012"><a xlink:title=" ">
<polygon fill="#e0e0e0" stroke="#999999" points="1711.12,-19.25 1653.12,-19.25 1653.12,0 1711.12,0 1711.12,-19.25"/>
<text text-anchor="middle" x="1682.12" y="-5.75" font-family="Helvetica,sans-Serif" font-size="10.00">stdexcept</text>
</a>
</g>
</g>
<!-- Node8&#45;&gt;Node12 -->
<g id="edge11_Node000008_Node000012" class="edge">
<title>Node8&#45;&gt;Node12</title>
<g id="a_edge11_Node000008_Node000012"><a xlink:title=" ">
<path fill="none" stroke="#63b8ff" d="M1218.71,-62.31C1289.02,-58.2 1476.17,-45.67 1641.86,-19.43"/>
<polygon fill="#63b8ff" stroke="#63b8ff" points="1641.93,-22.96 1651.24,-17.92 1640.81,-16.05 1641.93,-22.96"/>
</a>
</g>
</g>
<!-- Node13 -->
<g id="Node000013" class="node">
<title>Node13</title>
<g id="a_Node000013"><a xlink:title=" ">
<polygon fill="#e0e0e0" stroke="#999999" points="1769.12,-19.25 1729.12,-19.25 1729.12,0 1769.12,0 1769.12,-19.25"/>
<text text-anchor="middle" x="1749.12" y="-5.75" font-family="Helvetica,sans-Serif" font-size="10.00">string</text>
</a>
</g>
</g>
<!-- Node8&#45;&gt;Node13 -->
<g id="edge12_Node000008_Node000013" class="edge">
<title>Node8&#45;&gt;Node13</title>
<g id="a_edge12_Node000008_Node000013"><a xlink:title=" ">
<path fill="none" stroke="#63b8ff" d="M1218.84,-63.52C1297.42,-62.11 1522.6,-55.18 1717.63,-19.34"/>
<polygon fill="#63b8ff" stroke="#63b8ff" points="1717.98,-22.84 1727.17,-17.56 1716.7,-15.96 1717.98,-22.84"/>
</a>
</g>
</g>
<!-- Node14 -->
<g id="Node000014" class="node">
<title>Node14</title>
<g id="a_Node000014"><a xlink:title=" ">
<polygon fill="#e0e0e0" stroke="#999999" points="602.25,-19.25 560,-19.25 560,0 602.25,0 602.25,-19.25"/>
<text text-anchor="middle" x="581.12" y="-5.75" font-family="Helvetica,sans-Serif" font-size="10.00">cstdio</text>
</a>
</g>
</g>
<!-- Node8&#45;&gt;Node14 -->
<g id="edge13_Node000008_Node000014" class="edge">
<title>Node8&#45;&gt;Node14</title>
<g id="a_edge13_Node000008_Node000014"><a xlink:title=" ">
<path fill="none" stroke="#63b8ff" d="M1161.61,-63.63C1078.54,-62.49 829.49,-56.19 613.9,-19.16"/>
<polygon fill="#63b8ff" stroke="#63b8ff" points="614.63,-15.73 604.17,-17.46 613.42,-22.63 614.63,-15.73"/>
</a>
</g>
</g>
<!-- Node15 -->
<g id="Node000015" class="node">
<title>Node15</title>
<g id="a_Node000015"><a xlink:title=" ">
<polygon fill="#e0e0e0" stroke="#999999" points="876.38,-19.25 831.88,-19.25 831.88,0 876.38,0 876.38,-19.25"/>
<text text-anchor="middle" x="854.12" y="-5.75" font-family="Helvetica,sans-Serif" font-size="10.00">cstdlib</text>
</a>
</g>
</g>
<!-- Node8&#45;&gt;Node15 -->
<g id="edge14_Node000008_Node000015" class="edge">
<title>Node8&#45;&gt;Node15</title>
<g id="a_edge14_Node000008_Node000015"><a xlink:title=" ">
<path fill="none" stroke="#63b8ff" d="M1161.74,-60.93C1109.43,-55.25 994.15,-41.54 887.97,-19.63"/>
<polygon fill="#63b8ff" stroke="#63b8ff" points="888.72,-16.21 878.21,-17.58 887.28,-23.06 888.72,-16.21"/>
</a>
</g>
</g>
<!-- Node16 -->
<g id="Node000016" class="node">
<title>Node16</title>
<g id="a_Node000016"><a xlink:title=" ">
<polygon fill="#e0e0e0" stroke="#999999" points="953.88,-19.25 894.38,-19.25 894.38,0 953.88,0 953.88,-19.25"/>
<text text-anchor="middle" x="924.12" y="-5.75" font-family="Helvetica,sans-Serif" font-size="10.00">execinfo.h</text>
</a>
</g>
</g>
<!-- Node8&#45;&gt;Node16 -->
<g id="edge15_Node000008_Node000016" class="edge">
<title>Node8&#45;&gt;Node16</title>
<g id="a_edge15_Node000008_Node000016"><a xlink:title=" ">
<path fill="none" stroke="#63b8ff" d="M1161.41,-58.46C1120.32,-50.65 1042.07,-35.61 965.61,-19.73"/>
<polygon fill="#63b8ff" stroke="#63b8ff" points="966.33,-16.3 955.83,-17.69 964.9,-23.16 966.33,-16.3"/>
</a>
</g>
</g>
<!-- Node17 -->
<g id="Node000017" class="node">
<title>Node17</title>
<g id="a_Node000017"><a xlink:title=" ">
<polygon fill="#e0e0e0" stroke="#999999" points="1022.38,-19.25 971.88,-19.25 971.88,0 1022.38,0 1022.38,-19.25"/>
<text text-anchor="middle" x="997.12" y="-5.75" font-family="Helvetica,sans-Serif" font-size="10.00">cxxabi.h</text>
</a>
</g>
</g>
<!-- Node8&#45;&gt;Node17 -->
<g id="edge16_Node000008_Node000017" class="edge">
<title>Node8&#45;&gt;Node17</title>
<g id="a_edge16_Node000008_Node000017"><a xlink:title=" ">
<path fill="none" stroke="#63b8ff" d="M1161.65,-56.02C1127.63,-46.63 1070.66,-30.91 1033.49,-20.66"/>
<polygon fill="#63b8ff" stroke="#63b8ff" points="1034.67,-17.35 1024.09,-18.07 1032.8,-24.1 1034.67,-17.35"/>
</a>
</g>
</g>
<!-- Node18 -->
<g id="Node000018" class="node">
<title>Node18</title>
<g id="a_Node000018"><a xlink:title=" ">
<polygon fill="#e0e0e0" stroke="#999999" points="1091.75,-19.25 1040.5,-19.25 1040.5,0 1091.75,0 1091.75,-19.25"/>
<text text-anchor="middle" x="1066.12" y="-5.75" font-family="Helvetica,sans-Serif" font-size="10.00">sstream</text>
</a>
</g>
</g>
<!-- Node8&#45;&gt;Node18 -->
<g id="edge17_Node000008_Node000018" class="edge">
<title>Node8&#45;&gt;Node18</title>
<g id="a_edge17_Node000008_Node000018"><a xlink:title=" ">
<path fill="none" stroke="#63b8ff" d="M1169.09,-54.84C1149.49,-46.43 1120.02,-33.77 1097.62,-24.15"/>
<polygon fill="#63b8ff" stroke="#63b8ff" points="1099.22,-21.03 1088.65,-20.3 1096.46,-27.46 1099.22,-21.03"/>
</a>
</g>
</g>
<!-- Node19 -->
<g id="Node000019" class="node">
<title>Node19</title>
<g id="a_Node000019"><a xlink:title=" ">
<polygon fill="#e0e0e0" stroke="#999999" points="1146.62,-19.25 1109.62,-19.25 1109.62,0 1146.62,0 1146.62,-19.25"/>
<text text-anchor="middle" x="1128.12" y="-5.75" font-family="Helvetica,sans-Serif" font-size="10.00">array</text>
</a>
</g>
</g>
<!-- Node8&#45;&gt;Node19 -->
<g id="edge18_Node000008_Node000019" class="edge">
<title>Node8&#45;&gt;Node19</title>
<g id="a_edge18_Node000008_Node000019"><a xlink:title=" ">
<path fill="none" stroke="#63b8ff" d="M1179.61,-54.84C1170.74,-47.22 1157.81,-36.12 1147.14,-26.95"/>
<polygon fill="#63b8ff" stroke="#63b8ff" points="1149.5,-24.37 1139.64,-20.51 1144.94,-29.68 1149.5,-24.37"/>
</a>
</g>
</g>
<!-- Node20 -->
<g id="Node000020" class="node">
<title>Node20</title>
<g id="a_Node000020"><a xlink:title=" ">
<polygon fill="#e0e0e0" stroke="#999999" points="1215.38,-19.25 1164.88,-19.25 1164.88,0 1215.38,0 1215.38,-19.25"/>
<text text-anchor="middle" x="1190.12" y="-5.75" font-family="Helvetica,sans-Serif" font-size="10.00">memory</text>
</a>
</g>
</g>
<!-- Node8&#45;&gt;Node20 -->
<g id="edge19_Node000008_Node000020" class="edge">
<title>Node8&#45;&gt;Node20</title>
<g id="a_edge19_Node000008_Node000020"><a xlink:title=" ">
<path fill="none" stroke="#63b8ff" d="M1190.12,-55.08C1190.12,-48.57 1190.12,-39.42 1190.12,-31.12"/>
<polygon fill="#63b8ff" stroke="#63b8ff" points="1193.63,-31.12 1190.13,-21.12 1186.63,-31.12 1193.63,-31.12"/>
</a>
</g>
</g>
<!-- Node21 -->
<g id="Node000021" class="node">
<title>Node21</title>
<g id="a_Node000021"><a xlink:title=" ">
<polygon fill="#e0e0e0" stroke="#999999" points="1283,-19.25 1233.25,-19.25 1233.25,0 1283,0 1283,-19.25"/>
<text text-anchor="middle" x="1258.12" y="-5.75" font-family="Helvetica,sans-Serif" font-size="10.00">unistd.h</text>
</a>
</g>
</g>
<!-- Node8&#45;&gt;Node21 -->
<g id="edge20_Node000008_Node000021" class="edge">
<title>Node8&#45;&gt;Node21</title>
<g id="a_edge20_Node000008_Node000021"><a xlink:title=" ">
<path fill="none" stroke="#63b8ff" d="M1201.66,-54.84C1211.59,-47.07 1226.14,-35.67 1237.98,-26.4"/>
<polygon fill="#63b8ff" stroke="#63b8ff" points="1239.85,-29.38 1245.57,-20.46 1235.54,-23.87 1239.85,-29.38"/>
</a>
</g>
</g>
<!-- Node22 -->
<g id="Node000022" class="node">
<title>Node22</title>
<g id="a_Node000022"><a xlink:title=" ">
<polygon fill="#e0e0e0" stroke="#999999" points="1347.12,-19.25 1301.12,-19.25 1301.12,0 1347.12,0 1347.12,-19.25"/>
<text text-anchor="middle" x="1324.12" y="-5.75" font-family="Helvetica,sans-Serif" font-size="10.00">TEnv.h</text>
</a>
</g>
</g>
<!-- Node8&#45;&gt;Node22 -->
<g id="edge21_Node000008_Node000022" class="edge">
<title>Node8&#45;&gt;Node22</title>
<g id="a_edge21_Node000008_Node000022"><a xlink:title=" ">
<path fill="none" stroke="#63b8ff" d="M1212.86,-54.84C1234.22,-46.35 1266.47,-33.54 1290.75,-23.89"/>
<polygon fill="#63b8ff" stroke="#63b8ff" points="1291.88,-27.21 1299.88,-20.26 1289.29,-20.7 1291.88,-27.21"/>
</a>
</g>
</g>
<!-- Node23 -->
<g id="Node000023" class="node">
<title>Node23</title>
<g id="a_Node000023"><a xlink:title=" ">
<polygon fill="#e0e0e0" stroke="#999999" points="1424.88,-19.25 1365.38,-19.25 1365.38,0 1424.88,0 1424.88,-19.25"/>
<text text-anchor="middle" x="1395.12" y="-5.75" font-family="Helvetica,sans-Serif" font-size="10.00">sys/wait.h</text>
</a>
</g>
</g>
<!-- Node8&#45;&gt;Node23 -->
<g id="edge22_Node000008_Node000023" class="edge">
<title>Node8&#45;&gt;Node23</title>
<g id="a_edge22_Node000008_Node000023"><a xlink:title=" ">
<path fill="none" stroke="#63b8ff" d="M1218.63,-56.47C1253.85,-47.32 1314.03,-31.69 1354.19,-21.26"/>
<polygon fill="#63b8ff" stroke="#63b8ff" points="1354.94,-24.68 1363.73,-18.78 1353.18,-17.91 1354.94,-24.68"/>
</a>
</g>
</g>
<!-- Node24 -->
<g id="Node000024" class="node">
<title>Node24</title>
<g id="a_Node000024"><a xlink:title=" ">
<polygon fill="#e0e0e0" stroke="#999999" points="1503.25,-19.25 1443,-19.25 1443,0 1503.25,0 1503.25,-19.25"/>
<text text-anchor="middle" x="1473.12" y="-5.75" font-family="Helvetica,sans-Serif" font-size="10.00">sys/prctl.h</text>
</a>
</g>
</g>
<!-- Node8&#45;&gt;Node24 -->
<g id="edge23_Node000008_Node000024" class="edge">
<title>Node8&#45;&gt;Node24</title>
<g id="a_edge23_Node000008_Node000024"><a xlink:title=" ">
<path fill="none" stroke="#63b8ff" d="M1218.74,-58.99C1262.42,-51.46 1348.63,-36.31 1431.74,-19.67"/>
<polygon fill="#63b8ff" stroke="#63b8ff" points="1432.32,-23.13 1441.43,-17.72 1430.94,-16.26 1432.32,-23.13"/>
</a>
</g>
</g>
<!-- Node25&#45;&gt;Node6 -->
<g id="edge29_Node000025_Node000006" class="edge">
<title>Node25&#45;&gt;Node6</title>
<g id="a_edge29_Node000025_Node000006"><a xlink:title=" ">
<path fill="none" stroke="#63b8ff" d="M501.93,-110.25C495.68,-92.84 481.67,-53.87 473.15,-30.16"/>
<polygon fill="#63b8ff" stroke="#63b8ff" points="476.55,-29.28 469.87,-21.05 469.96,-31.65 476.55,-29.28"/>
</a>
</g>
</g>
<!-- Node25&#45;&gt;Node14 -->
<g id="edge25_Node000025_Node000014" class="edge">
<title>Node25&#45;&gt;Node14</title>
<g id="a_edge25_Node000025_Node000014"><a xlink:title=" ">
<path fill="none" stroke="#63b8ff" d="M511.34,-110.25C523.76,-92.52 551.83,-52.44 568.34,-28.88"/>
<polygon fill="#63b8ff" stroke="#63b8ff" points="571.08,-31.06 573.95,-20.87 565.35,-27.05 571.08,-31.06"/>
</a>
</g>
</g>
<!-- Node26 -->
<g id="Node000026" class="node">
<title>Node26</title>
<g id="a_Node000026"><a xlink:title=" ">
<polygon fill="#e0e0e0" stroke="#999999" points="541.5,-19.25 506.75,-19.25 506.75,0 541.5,0 541.5,-19.25"/>
<text text-anchor="middle" x="524.12" y="-5.75" font-family="Helvetica,sans-Serif" font-size="10.00">map</text>
</a>
</g>
</g>
<!-- Node25&#45;&gt;Node26 -->
<g id="edge26_Node000025_Node000026" class="edge">
<title>Node25&#45;&gt;Node26</title>
<g id="a_edge26_Node000025_Node000026"><a xlink:title=" ">
<path fill="none" stroke="#63b8ff" d="M506.68,-110.25C509.7,-93 516.43,-54.58 520.59,-30.81"/>
<polygon fill="#63b8ff" stroke="#63b8ff" points="524.01,-31.57 522.29,-21.12 517.12,-30.36 524.01,-31.57"/>
</a>
</g>
</g>
<!-- Node27 -->
<g id="Node000027" class="node">
<title>Node27</title>
<g id="a_Node000027"><a xlink:title=" ">
<polygon fill="#e0e0e0" stroke="#999999" points="681.62,-19.25 620.62,-19.25 620.62,0 681.62,0 681.62,-19.25"/>
<text text-anchor="middle" x="651.12" y="-5.75" font-family="Helvetica,sans-Serif" font-size="10.00">TNamed.h</text>
</a>
</g>
</g>
<!-- Node25&#45;&gt;Node27 -->
<g id="edge27_Node000025_Node000027" class="edge">
<title>Node25&#45;&gt;Node27</title>
<g id="a_edge27_Node000025_Node000027"><a xlink:title=" ">
<path fill="none" stroke="#63b8ff" d="M529,-113.27C572.57,-102.47 660.93,-80.03 665.12,-74.5 674.98,-61.52 669.38,-43 662.55,-29.24"/>
<polygon fill="#63b8ff" stroke="#63b8ff" points="665.75,-27.79 657.83,-20.75 659.63,-31.19 665.75,-27.79"/>
</a>
</g>
</g>
<!-- Node28 -->
<g id="Node000028" class="node">
<title>Node28</title>
<g id="a_Node000028"><a xlink:title=" ">
<polygon fill="#e0e0e0" stroke="#999999" points="742.25,-19.25 700,-19.25 700,0 742.25,0 742.25,-19.25"/>
<text text-anchor="middle" x="721.12" y="-5.75" font-family="Helvetica,sans-Serif" font-size="10.00">TH2.h</text>
</a>
</g>
</g>
<!-- Node25&#45;&gt;Node28 -->
<g id="edge28_Node000025_Node000028" class="edge">
<title>Node25&#45;&gt;Node28</title>
<g id="a_edge28_Node000025_Node000028"><a xlink:title=" ">
<path fill="none" stroke="#63b8ff" d="M528.93,-113.59C575.54,-102.67 674.9,-79.04 681.12,-74.5 696.48,-63.31 707.28,-44.27 713.76,-29.88"/>
<polygon fill="#63b8ff" stroke="#63b8ff" points="716.85,-31.55 717.45,-20.97 710.39,-28.87 716.85,-31.55"/>
</a>
</g>
</g>
<!-- Node29 -->
<g id="Node000029" class="node">
<title>Node29</title>
<g id="a_Node000029"><a xlink:title=" ">
<polygon fill="#e0e0e0" stroke="#999999" points="382.38,-74.5 307.88,-74.5 307.88,-55.25 382.38,-55.25 382.38,-74.5"/>
<text text-anchor="middle" x="345.12" y="-61" font-family="Helvetica,sans-Serif" font-size="10.00">TVirtualPad.h</text>
</a>
</g>
</g>
<!-- Node25&#45;&gt;Node29 -->
<g id="edge30_Node000025_Node000029" class="edge">
<title>Node25&#45;&gt;Node29</title>
<g id="a_edge30_Node000025_Node000029"><a xlink:title=" ">
<path fill="none" stroke="#63b8ff" d="M481.52,-111.27C455.58,-102.64 413.56,-88.65 383,-78.48"/>
<polygon fill="#63b8ff" stroke="#63b8ff" points="384.34,-75.24 373.75,-75.4 382.13,-81.88 384.34,-75.24"/>
</a>
</g>
</g>
<!-- Node30 -->
<g id="Node000030" class="node">
<title>Node30</title>
<g id="a_Node000030"><a xlink:title=" ">
<polygon fill="#e0e0e0" stroke="#999999" points="457.75,-74.5 400.5,-74.5 400.5,-55.25 457.75,-55.25 457.75,-74.5"/>
<text text-anchor="middle" x="429.12" y="-61" font-family="Helvetica,sans-Serif" font-size="10.00">TFrame.h</text>
</a>
</g>
</g>
<!-- Node25&#45;&gt;Node30 -->
<g id="edge31_Node000025_Node000030" class="edge">
<title>Node25&#45;&gt;Node30</title>
<g id="a_edge31_Node000025_Node000030"><a xlink:title=" ">
<path fill="none" stroke="#63b8ff" d="M492.23,-110.09C481.1,-102.29 464.75,-90.84 451.49,-81.54"/>
<polygon fill="#63b8ff" stroke="#63b8ff" points="453.52,-78.69 443.32,-75.82 449.5,-84.43 453.52,-78.69"/>
</a>
</g>
</g>
<!-- Node31 -->
<g id="Node000031" class="node">
<title>Node31</title>
<g id="a_Node000031"><a xlink:href="_g_h2_base_8h.html" target="_top" xlink:title=" ">
<polygon fill="white" stroke="#666666" points="656.25,-74.5 590,-74.5 590,-55.25 656.25,-55.25 656.25,-74.5"/>
<text text-anchor="middle" x="623.12" y="-61" font-family="Helvetica,sans-Serif" font-size="10.00">GH2Base.h</text>
</a>
</g>
</g>
<!-- Node25&#45;&gt;Node31 -->
<g id="edge32_Node000025_Node000031" class="edge">
<title>Node25&#45;&gt;Node31</title>
<g id="a_edge32_Node000025_Node000031"><a xlink:title=" ">
<path fill="none" stroke="#63b8ff" d="M525.14,-110.09C543.62,-101.75 571.33,-89.25 592.57,-79.66"/>
<polygon fill="#63b8ff" stroke="#63b8ff" points="593.95,-82.88 601.63,-75.58 591.08,-76.5 593.95,-82.88"/>
</a>
</g>
</g>
<!-- Node31&#45;&gt;Node6 -->
<g id="edge38_Node000031_Node000006" class="edge">
<title>Node31&#45;&gt;Node6</title>
<g id="a_edge38_Node000031_Node000006"><a xlink:title=" ">
<path fill="none" stroke="#63b8ff" d="M596.49,-54.84C570,-45.86 529.25,-32.03 500.36,-22.24"/>
<polygon fill="#63b8ff" stroke="#63b8ff" points="501.58,-18.95 490.98,-19.06 499.33,-25.58 501.58,-18.95"/>
</a>
</g>
</g>
<!-- Node31&#45;&gt;Node10 -->
<g id="edge34_Node000031_Node000010" class="edge">
<title>Node31&#45;&gt;Node10</title>
<g id="a_edge34_Node000031_Node000010"><a xlink:title=" ">
<path fill="none" stroke="#63b8ff" d="M650.95,-54.84C677.93,-46.08 719.08,-32.72 749.09,-22.98"/>
<polygon fill="#63b8ff" stroke="#63b8ff" points="750.12,-26.32 758.55,-19.9 747.96,-19.66 750.12,-26.32"/>
</a>
</g>
</g>
<!-- Node31&#45;&gt;Node14 -->
<g id="edge33_Node000031_Node000014" class="edge">
<title>Node31&#45;&gt;Node14</title>
<g id="a_edge33_Node000031_Node000014"><a xlink:title=" ">
<path fill="none" stroke="#63b8ff" d="M616.19,-55.08C610.51,-47.88 602.29,-37.46 595.23,-28.51"/>
<polygon fill="#63b8ff" stroke="#63b8ff" points="598.09,-26.48 589.15,-20.8 592.59,-30.82 598.09,-26.48"/>
</a>
</g>
</g>
<!-- Node31&#45;&gt;Node26 -->
<g id="edge35_Node000031_Node000026" class="edge">
<title>Node31&#45;&gt;Node26</title>
<g id="a_edge35_Node000031_Node000026"><a xlink:title=" ">
<path fill="none" stroke="#63b8ff" d="M606.33,-54.84C591.11,-46.66 568.43,-34.46 550.74,-24.94"/>
<polygon fill="#63b8ff" stroke="#63b8ff" points="552.8,-22.07 542.33,-20.42 549.48,-28.24 552.8,-22.07"/>
</a>
</g>
</g>
<!-- Node31&#45;&gt;Node27 -->
<g id="edge36_Node000031_Node000027" class="edge">
<title>Node31&#45;&gt;Node27</title>
<g id="a_edge36_Node000031_Node000027"><a xlink:title=" ">
<path fill="none" stroke="#63b8ff" d="M627.75,-55.08C631.37,-48.19 636.55,-38.34 641.12,-29.66"/>
<polygon fill="#63b8ff" stroke="#63b8ff" points="644.14,-31.43 645.7,-20.95 637.94,-28.17 644.14,-31.43"/>
</a>
</g>
</g>
<!-- Node31&#45;&gt;Node28 -->
<g id="edge37_Node000031_Node000028" class="edge">
<title>Node31&#45;&gt;Node28</title>
<g id="a_edge37_Node000031_Node000028"><a xlink:title=" ">
<path fill="none" stroke="#63b8ff" d="M639.75,-54.84C654.81,-46.66 677.27,-34.46 694.78,-24.94"/>
<polygon fill="#63b8ff" stroke="#63b8ff" points="695.97,-28.27 703.09,-20.43 692.63,-22.12 695.97,-28.27"/>
</a>
</g>
</g>
</g>
</svg>
