<?xml version="1.0" encoding="UTF-8" standalone="no"?>
<!DOCTYPE svg PUBLIC "-//W3C//DTD SVG 1.1//EN"
 "http://www.w3.org/Graphics/SVG/1.1/DTD/svg11.dtd">
<!-- Generated by graphviz version 9.0.0 (20230911.1827)
 -->
<!-- Title: GH2D.cxx Pages: 1 -->
<!--zoomable 248 -->

<svg id="main" version="1.1" xmlns="http://www.w3.org/2000/svg" xmlns:xlink="http://www.w3.org/1999/xlink" xml:space="preserve" onload="init(evt)">
<style type="text/css"><![CDATA[
.node, .edge {opacity: 0.7;}
.node.selected, .edge.selected {opacity: 1;}
.edge:hover path { stroke: red; }
.edge:hover polygon { stroke: red; fill: red; }
]]></style>

<defs>
  <circle id="rim" cx="0" cy="0" r="7"/>
  <circle id="rim2" cx="0" cy="0" r="3.5"/>
  <g id="zoomPlus">
    <use xlink:href="#rim" fill="#404040"><set attributeName="fill" to="#808080" begin="zoomplus.mouseover" end="zoomplus.mouseout"/></use>
    <path d="M-4,0h8M0,-4v8" fill="none" stroke="white" stroke-width="1.5" pointer-events="none"/>
  </g>
  <g id="zoomMin">
    <use xlink:href="#rim" fill="#404040"><set attributeName="fill" to="#808080" begin="zoomminus.mouseover" end="zoomminus.mouseout"/></use>
    <path d="M-4,0h8" fill="none" stroke="white" stroke-width="1.5" pointer-events="none"/>
  </g>
  <g id="arrowUp" transform="translate(30 24)">
    <use xlink:href="#rim"/>
    <path pointer-events="none" fill="none" stroke="white" stroke-width="1.5" d="M0,-3.0v7 M-2.5,-0.5L0,-3.0L2.5,-0.5"/>
  </g>
  <g id="arrowRight" transform="rotate(90) translate(36 -43)">
    <use xlink:href="#rim"/>
    <path pointer-events="none" fill="none" stroke="white" stroke-width="1.5" d="M0,-3.0v7 M-2.5,-0.5L0,-3.0L2.5,-0.5"/>
  </g>
  <g id="arrowDown" transform="rotate(180) translate(-30 -48)">
    <use xlink:href="#rim"/>
    <path pointer-events="none" fill="none" stroke="white" stroke-width="1.5" d="M0,-3.0v7 M-2.5,-0.5L0,-3.0L2.5,-0.5"/>
  </g>
  <g id="arrowLeft" transform="rotate(270) translate(-36 17)">
    <use xlink:href="#rim"/>
    <path pointer-events="none" fill="none" stroke="white" stroke-width="1.5" d="M0,-3.0v7 M-2.5,-0.5L0,-3.0L2.5,-0.5"/>
  </g>
  <g id="resetDef">
    <use xlink:href="#rim2" fill="#404040"><set attributeName="fill" to="#808080" begin="reset.mouseover" end="reset.mouseout"/></use>
  </g>
</defs>
<script type="application/ecmascript">
var viewWidth = 1088;
var viewHeight = 248;
var sectionId = 'dynsection-0';
</script>
<script type="application/ecmascript" xlink:href="svg.min.js"/>
<svg id="graph" class="graph">
<g id="viewport">
<title>GH2D.cxx</title>
<!-- Node1 -->
<g id="Node000001" class="node">
<title>Node1</title>
<g id="a_Node000001"><a xlink:title=" ">
<polygon fill="#999999" stroke="#666666" points="324.5,-240.25 265,-240.25 265,-221 324.5,-221 324.5,-240.25"/>
<text text-anchor="middle" x="294.75" y="-226.75" font-family="Helvetica,sans-Serif" font-size="10.00">GH2D.cxx</text>
</a>
</g>
</g>
<!-- Node2 -->
<g id="Node000002" class="node">
<title>Node2</title>
<g id="a_Node000002"><a xlink:href="_g_h2_d_8h.html" target="_top" xlink:title=" ">
<polygon fill="white" stroke="#666666" points="289,-129.75 238.5,-129.75 238.5,-110.5 289,-110.5 289,-129.75"/>
<text text-anchor="middle" x="263.75" y="-116.25" font-family="Helvetica,sans-Serif" font-size="10.00">GH2D.h</text>
</a>
</g>
</g>
<!-- Node1&#45;&gt;Node2 -->
<g id="edge1_Node000001_Node000002" class="edge">
<title>Node1&#45;&gt;Node2</title>
<g id="a_edge1_Node000001_Node000002"><a xlink:title=" ">
<path fill="none" stroke="#63b8ff" d="M292.21,-220.75C287.26,-203.42 276.21,-164.73 269.42,-140.99"/>
<polygon fill="#63b8ff" stroke="#63b8ff" points="272.85,-140.24 266.74,-131.58 266.12,-142.16 272.85,-140.24"/>
</a>
</g>
</g>
<!-- Node12 -->
<g id="Node000012" class="node">
<title>Node12</title>
<g id="a_Node000012"><a xlink:title=" ">
<polygon fill="#e0e0e0" stroke="#999999" points="53.5,-19.25 0,-19.25 0,0 53.5,0 53.5,-19.25"/>
<text text-anchor="middle" x="26.75" y="-5.75" font-family="Helvetica,sans-Serif" font-size="10.00">iostream</text>
</a>
</g>
</g>
<!-- Node1&#45;&gt;Node12 -->
<g id="edge17_Node000001_Node000012" class="edge">
<title>Node1&#45;&gt;Node12</title>
<g id="a_edge17_Node000001_Node000012"><a xlink:title=" ">
<path fill="none" stroke="#63b8ff" d="M278.68,-220.54C240.71,-198.62 143.56,-139.77 75.75,-74.5 61.31,-60.6 47.67,-42.22 38.46,-28.75"/>
<polygon fill="#63b8ff" stroke="#63b8ff" points="41.64,-27.21 33.19,-20.82 35.81,-31.08 41.64,-27.21"/>
</a>
</g>
</g>
<!-- Node13 -->
<g id="Node000013" class="node">
<title>Node13</title>
<g id="a_Node000013"><a xlink:title=" ">
<polygon fill="#e0e0e0" stroke="#999999" points="359.62,-185 291.88,-185 291.88,-165.75 359.62,-165.75 359.62,-185"/>
<text text-anchor="middle" x="325.75" y="-171.5" font-family="Helvetica,sans-Serif" font-size="10.00">TDirectory.h</text>
</a>
</g>
</g>
<!-- Node1&#45;&gt;Node13 -->
<g id="edge18_Node000001_Node000013" class="edge">
<title>Node1&#45;&gt;Node13</title>
<g id="a_edge18_Node000001_Node000013"><a xlink:title=" ">
<path fill="none" stroke="#63b8ff" d="M299.87,-220.83C303.93,-213.86 309.74,-203.87 314.84,-195.12"/>
<polygon fill="#63b8ff" stroke="#63b8ff" points="317.75,-197.07 319.76,-186.67 311.7,-193.55 317.75,-197.07"/>
</a>
</g>
</g>
<!-- Node14 -->
<g id="Node000014" class="node">
<title>Node14</title>
<g id="a_Node000014"><a xlink:href="_g_h1_d_8h.html" target="_top" xlink:title=" ">
<polygon fill="white" stroke="#666666" points="840,-185 789.5,-185 789.5,-165.75 840,-165.75 840,-185"/>
<text text-anchor="middle" x="814.75" y="-171.5" font-family="Helvetica,sans-Serif" font-size="10.00">GH1D.h</text>
</a>
</g>
</g>
<!-- Node1&#45;&gt;Node14 -->
<g id="edge19_Node000001_Node000014" class="edge">
<title>Node1&#45;&gt;Node14</title>
<g id="a_edge19_Node000001_Node000014"><a xlink:title=" ">
<path fill="none" stroke="#63b8ff" d="M324.96,-226.53C414.74,-217.34 679.83,-190.19 777.81,-180.16"/>
<polygon fill="#63b8ff" stroke="#63b8ff" points="778.07,-183.65 787.66,-179.15 777.36,-176.69 778.07,-183.65"/>
</a>
</g>
</g>
<!-- Node3 -->
<g id="Node000003" class="node">
<title>Node3</title>
<g id="a_Node000003"><a xlink:title=" ">
<polygon fill="#e0e0e0" stroke="#999999" points="223.88,-19.25 181.62,-19.25 181.62,0 223.88,0 223.88,-19.25"/>
<text text-anchor="middle" x="202.75" y="-5.75" font-family="Helvetica,sans-Serif" font-size="10.00">cstdio</text>
</a>
</g>
</g>
<!-- Node2&#45;&gt;Node3 -->
<g id="edge2_Node000002_Node000003" class="edge">
<title>Node2&#45;&gt;Node3</title>
<g id="a_edge2_Node000002_Node000003"><a xlink:title=" ">
<path fill="none" stroke="#63b8ff" d="M238.09,-116.32C194.44,-110.95 108.7,-97.67 90.75,-74.5 85.51,-67.74 85.95,-62.33 90.75,-55.25 95.52,-48.22 139.29,-32.16 170.67,-21.35"/>
<polygon fill="#63b8ff" stroke="#63b8ff" points="171.4,-24.8 179.74,-18.25 169.14,-18.17 171.4,-24.8"/>
</a>
</g>
</g>
<!-- Node4 -->
<g id="Node000004" class="node">
<title>Node4</title>
<g id="a_Node000004"><a xlink:title=" ">
<polygon fill="#e0e0e0" stroke="#999999" points="337.12,-19.25 302.38,-19.25 302.38,0 337.12,0 337.12,-19.25"/>
<text text-anchor="middle" x="319.75" y="-5.75" font-family="Helvetica,sans-Serif" font-size="10.00">map</text>
</a>
</g>
</g>
<!-- Node2&#45;&gt;Node4 -->
<g id="edge3_Node000002_Node000004" class="edge">
<title>Node2&#45;&gt;Node4</title>
<g id="a_edge3_Node000002_Node000004"><a xlink:title=" ">
<path fill="none" stroke="#63b8ff" d="M268.33,-110.25C277.36,-92.76 297.61,-53.52 309.83,-29.84"/>
<polygon fill="#63b8ff" stroke="#63b8ff" points="312.93,-31.46 314.41,-20.97 306.71,-28.25 312.93,-31.46"/>
</a>
</g>
</g>
<!-- Node5 -->
<g id="Node000005" class="node">
<title>Node5</title>
<g id="a_Node000005"><a xlink:title=" ">
<polygon fill="#e0e0e0" stroke="#999999" points="163.25,-19.25 102.25,-19.25 102.25,0 163.25,0 163.25,-19.25"/>
<text text-anchor="middle" x="132.75" y="-5.75" font-family="Helvetica,sans-Serif" font-size="10.00">TNamed.h</text>
</a>
</g>
</g>
<!-- Node2&#45;&gt;Node5 -->
<g id="edge4_Node000002_Node000005" class="edge">
<title>Node2&#45;&gt;Node5</title>
<g id="a_edge4_Node000002_Node000005"><a xlink:title=" ">
<path fill="none" stroke="#63b8ff" d="M238.14,-116.6C193.09,-111.57 102.65,-98.65 83.75,-74.5 70.77,-57.91 90.06,-38.71 108.12,-25.73"/>
<polygon fill="#63b8ff" stroke="#63b8ff" points="109.69,-28.89 116.02,-20.4 105.77,-23.09 109.69,-28.89"/>
</a>
</g>
</g>
<!-- Node6 -->
<g id="Node000006" class="node">
<title>Node6</title>
<g id="a_Node000006"><a xlink:title=" ">
<polygon fill="#e0e0e0" stroke="#999999" points="283.88,-19.25 241.62,-19.25 241.62,0 283.88,0 283.88,-19.25"/>
<text text-anchor="middle" x="262.75" y="-5.75" font-family="Helvetica,sans-Serif" font-size="10.00">TH2.h</text>
</a>
</g>
</g>
<!-- Node2&#45;&gt;Node6 -->
<g id="edge5_Node000002_Node000006" class="edge">
<title>Node2&#45;&gt;Node6</title>
<g id="a_edge5_Node000002_Node000006"><a xlink:title=" ">
<path fill="none" stroke="#63b8ff" d="M263.67,-110.25C263.51,-93 263.16,-54.58 262.94,-30.81"/>
<polygon fill="#63b8ff" stroke="#63b8ff" points="266.44,-31.11 262.85,-21.14 259.44,-31.17 266.44,-31.11"/>
</a>
</g>
</g>
<!-- Node7 -->
<g id="Node000007" class="node">
<title>Node7</title>
<g id="a_Node000007"><a xlink:title=" ">
<polygon fill="#e0e0e0" stroke="#999999" points="560.75,-19.25 514.75,-19.25 514.75,0 560.75,0 560.75,-19.25"/>
<text text-anchor="middle" x="537.75" y="-5.75" font-family="Helvetica,sans-Serif" font-size="10.00">TList.h</text>
</a>
</g>
</g>
<!-- Node2&#45;&gt;Node7 -->
<g id="edge6_Node000002_Node000007" class="edge">
<title>Node2&#45;&gt;Node7</title>
<g id="a_edge6_Node000002_Node000007"><a xlink:title=" ">
<path fill="none" stroke="#63b8ff" d="M274.41,-110.11C291.25,-96.31 325.51,-70.02 358.75,-55.25 406.55,-34.01 466.22,-21.71 503.15,-15.58"/>
<polygon fill="#63b8ff" stroke="#63b8ff" points="503.48,-19.08 512.81,-14.05 502.38,-12.16 503.48,-19.08"/>
</a>
</g>
</g>
<!-- Node8 -->
<g id="Node000008" class="node">
<title>Node8</title>
<g id="a_Node000008"><a xlink:title=" ">
<polygon fill="#e0e0e0" stroke="#999999" points="518,-74.5 443.5,-74.5 443.5,-55.25 518,-55.25 518,-74.5"/>
<text text-anchor="middle" x="480.75" y="-61" font-family="Helvetica,sans-Serif" font-size="10.00">TVirtualPad.h</text>
</a>
</g>
</g>
<!-- Node2&#45;&gt;Node8 -->
<g id="edge7_Node000002_Node000008" class="edge">
<title>Node2&#45;&gt;Node8</title>
<g id="a_edge7_Node000002_Node000008"><a xlink:title=" ">
<path fill="none" stroke="#63b8ff" d="M289.49,-112.81C324.71,-104.17 388.57,-88.5 432.75,-77.65"/>
<polygon fill="#63b8ff" stroke="#63b8ff" points="433.46,-81.08 442.34,-75.3 431.79,-74.28 433.46,-81.08"/>
</a>
</g>
</g>
<!-- Node9 -->
<g id="Node000009" class="node">
<title>Node9</title>
<g id="a_Node000009"><a xlink:title=" ">
<polygon fill="#e0e0e0" stroke="#999999" points="425.38,-74.5 368.12,-74.5 368.12,-55.25 425.38,-55.25 425.38,-74.5"/>
<text text-anchor="middle" x="396.75" y="-61" font-family="Helvetica,sans-Serif" font-size="10.00">TFrame.h</text>
</a>
</g>
</g>
<!-- Node2&#45;&gt;Node9 -->
<g id="edge8_Node000002_Node000009" class="edge">
<title>Node2&#45;&gt;Node9</title>
<g id="a_edge8_Node000002_Node000009"><a xlink:title=" ">
<path fill="none" stroke="#63b8ff" d="M286.31,-110.09C307.52,-101.6 339.52,-88.79 363.63,-79.14"/>
<polygon fill="#63b8ff" stroke="#63b8ff" points="364.69,-82.48 372.67,-75.52 362.09,-75.98 364.69,-82.48"/>
</a>
</g>
</g>
<!-- Node10 -->
<g id="Node000010" class="node">
<title>Node10</title>
<g id="a_Node000010"><a xlink:title=" ">
<polygon fill="#e0e0e0" stroke="#999999" points="151.75,-74.5 99.75,-74.5 99.75,-55.25 151.75,-55.25 151.75,-74.5"/>
<text text-anchor="middle" x="125.75" y="-61" font-family="Helvetica,sans-Serif" font-size="10.00">TCutG.h</text>
</a>
</g>
</g>
<!-- Node2&#45;&gt;Node10 -->
<g id="edge9_Node000002_Node000010" class="edge">
<title>Node2&#45;&gt;Node10</title>
<g id="a_edge9_Node000002_Node000010"><a xlink:title=" ">
<path fill="none" stroke="#63b8ff" d="M240.34,-110.09C218.23,-101.56 184.83,-88.67 159.78,-79.01"/>
<polygon fill="#63b8ff" stroke="#63b8ff" points="161.28,-75.83 150.69,-75.5 158.76,-82.36 161.28,-75.83"/>
</a>
</g>
</g>
<!-- Node11 -->
<g id="Node000011" class="node">
<title>Node11</title>
<g id="a_Node000011"><a xlink:href="_g_h2_base_8h.html" target="_top" xlink:title=" ">
<polygon fill="white" stroke="#666666" points="235.88,-74.5 169.62,-74.5 169.62,-55.25 235.88,-55.25 235.88,-74.5"/>
<text text-anchor="middle" x="202.75" y="-61" font-family="Helvetica,sans-Serif" font-size="10.00">GH2Base.h</text>
</a>
</g>
</g>
<!-- Node2&#45;&gt;Node11 -->
<g id="edge10_Node000002_Node000011" class="edge">
<title>Node2&#45;&gt;Node11</title>
<g id="a_edge10_Node000002_Node000011"><a xlink:title=" ">
<path fill="none" stroke="#63b8ff" d="M253.4,-110.09C244.67,-102.47 231.96,-91.37 221.45,-82.2"/>
<polygon fill="#63b8ff" stroke="#63b8ff" points="223.92,-79.71 214.09,-75.77 219.32,-84.98 223.92,-79.71"/>
</a>
</g>
</g>
<!-- Node11&#45;&gt;Node3 -->
<g id="edge11_Node000011_Node000003" class="edge">
<title>Node11&#45;&gt;Node3</title>
<g id="a_edge11_Node000011_Node000003"><a xlink:title=" ">
<path fill="none" stroke="#63b8ff" d="M202.75,-55.08C202.75,-48.57 202.75,-39.42 202.75,-31.12"/>
<polygon fill="#63b8ff" stroke="#63b8ff" points="206.25,-31.12 202.75,-21.12 199.25,-31.12 206.25,-31.12"/>
</a>
</g>
</g>
<!-- Node11&#45;&gt;Node4 -->
<g id="edge13_Node000011_Node000004" class="edge">
<title>Node11&#45;&gt;Node4</title>
<g id="a_edge13_Node000011_Node000004"><a xlink:title=" ">
<path fill="none" stroke="#63b8ff" d="M222.6,-54.84C241.58,-46.2 270.41,-33.08 291.73,-23.38"/>
<polygon fill="#63b8ff" stroke="#63b8ff" points="293.08,-26.61 300.73,-19.28 290.18,-20.24 293.08,-26.61"/>
</a>
</g>
</g>
<!-- Node11&#45;&gt;Node5 -->
<g id="edge14_Node000011_Node000005" class="edge">
<title>Node11&#45;&gt;Node5</title>
<g id="a_edge14_Node000011_Node000005"><a xlink:title=" ">
<path fill="none" stroke="#63b8ff" d="M190.88,-54.84C180.66,-47.07 165.68,-35.67 153.49,-26.4"/>
<polygon fill="#63b8ff" stroke="#63b8ff" points="155.73,-23.71 145.65,-20.44 151.49,-29.28 155.73,-23.71"/>
</a>
</g>
</g>
<!-- Node11&#45;&gt;Node6 -->
<g id="edge15_Node000011_Node000006" class="edge">
<title>Node11&#45;&gt;Node6</title>
<g id="a_edge15_Node000011_Node000006"><a xlink:title=" ">
<path fill="none" stroke="#63b8ff" d="M212.93,-54.84C221.51,-47.22 234.02,-36.12 244.35,-26.95"/>
<polygon fill="#63b8ff" stroke="#63b8ff" points="246.43,-29.79 251.59,-20.53 241.79,-24.55 246.43,-29.79"/>
</a>
</g>
</g>
<!-- Node11&#45;&gt;Node7 -->
<g id="edge16_Node000011_Node000007" class="edge">
<title>Node11&#45;&gt;Node7</title>
<g id="a_edge16_Node000011_Node000007"><a xlink:title=" ">
<path fill="none" stroke="#63b8ff" d="M236.1,-58.57C299.82,-48.45 438.3,-26.43 503.06,-16.14"/>
<polygon fill="#63b8ff" stroke="#63b8ff" points="503.43,-19.62 512.76,-14.6 502.34,-12.71 503.43,-19.62"/>
</a>
</g>
</g>
<!-- Node11&#45;&gt;Node12 -->
<g id="edge12_Node000011_Node000012" class="edge">
<title>Node11&#45;&gt;Node12</title>
<g id="a_edge12_Node000011_Node000012"><a xlink:title=" ">
<path fill="none" stroke="#63b8ff" d="M172.89,-54.84C143.07,-45.82 97.11,-31.91 64.7,-22.11"/>
<polygon fill="#63b8ff" stroke="#63b8ff" points="65.89,-18.81 55.31,-19.27 63.86,-25.51 65.89,-18.81"/>
</a>
</g>
</g>
<!-- Node14&#45;&gt;Node7 -->
<g id="edge24_Node000014_Node000007" class="edge">
<title>Node14&#45;&gt;Node7</title>
<g id="a_edge24_Node000014_Node000007"><a xlink:title=" ">
<path fill="none" stroke="#63b8ff" d="M801.24,-165.56C788.65,-157.06 769.62,-143.5 754.75,-129.75 722.49,-99.91 726.76,-78.94 689.75,-55.25 653.44,-32.01 604.61,-20.5 572.2,-15.06"/>
<polygon fill="#63b8ff" stroke="#63b8ff" points="572.98,-11.64 562.56,-13.56 571.9,-18.56 572.98,-11.64"/>
</a>
</g>
</g>
<!-- Node15 -->
<g id="Node000015" class="node">
<title>Node15</title>
<g id="a_Node000015"><a xlink:title=" ">
<polygon fill="#e0e0e0" stroke="#999999" points="805.88,-129.75 763.62,-129.75 763.62,-110.5 805.88,-110.5 805.88,-129.75"/>
<text text-anchor="middle" x="784.75" y="-116.25" font-family="Helvetica,sans-Serif" font-size="10.00">TH1.h</text>
</a>
</g>
</g>
<!-- Node14&#45;&gt;Node15 -->
<g id="edge20_Node000014_Node000015" class="edge">
<title>Node14&#45;&gt;Node15</title>
<g id="a_edge20_Node000014_Node000015"><a xlink:title=" ">
<path fill="none" stroke="#63b8ff" d="M809.8,-165.58C805.87,-158.61 800.24,-148.62 795.31,-139.87"/>
<polygon fill="#63b8ff" stroke="#63b8ff" points="798.51,-138.42 790.55,-131.43 792.41,-141.86 798.51,-138.42"/>
</a>
</g>
</g>
<!-- Node16 -->
<g id="Node000016" class="node">
<title>Node16</title>
<g id="a_Node000016"><a xlink:title=" ">
<polygon fill="#e0e0e0" stroke="#999999" points="868,-129.75 823.5,-129.75 823.5,-110.5 868,-110.5 868,-129.75"/>
<text text-anchor="middle" x="845.75" y="-116.25" font-family="Helvetica,sans-Serif" font-size="10.00">TRef.h</text>
</a>
</g>
</g>
<!-- Node14&#45;&gt;Node16 -->
<g id="edge21_Node000014_Node000016" class="edge">
<title>Node14&#45;&gt;Node16</title>
<g id="a_edge21_Node000014_Node000016"><a xlink:title=" ">
<path fill="none" stroke="#63b8ff" d="M819.87,-165.58C823.93,-158.61 829.74,-148.62 834.84,-139.87"/>
<polygon fill="#63b8ff" stroke="#63b8ff" points="837.75,-141.82 839.76,-131.42 831.7,-138.3 837.75,-141.82"/>
</a>
</g>
</g>
<!-- Node17 -->
<g id="Node000017" class="node">
<title>Node17</title>
<g id="a_Node000017"><a xlink:title=" ">
<polygon fill="#e0e0e0" stroke="#999999" points="933.12,-129.75 886.38,-129.75 886.38,-110.5 933.12,-110.5 933.12,-129.75"/>
<text text-anchor="middle" x="909.75" y="-116.25" font-family="Helvetica,sans-Serif" font-size="10.00">TPad.h</text>
</a>
</g>
</g>
<!-- Node14&#45;&gt;Node17 -->
<g id="edge22_Node000014_Node000017" class="edge">
<title>Node14&#45;&gt;Node17</title>
<g id="a_edge22_Node000014_Node000017"><a xlink:title=" ">
<path fill="none" stroke="#63b8ff" d="M830.87,-165.34C845.33,-157.23 866.83,-145.18 883.73,-135.71"/>
<polygon fill="#63b8ff" stroke="#63b8ff" points="885.22,-138.89 892.24,-130.94 881.8,-132.78 885.22,-138.89"/>
</a>
</g>
</g>
<!-- Node18 -->
<g id="Node000018" class="node">
<title>Node18</title>
<g id="a_Node000018"><a xlink:title=" ">
<polygon fill="#e0e0e0" stroke="#999999" points="1016.12,-129.75 951.38,-129.75 951.38,-110.5 1016.12,-110.5 1016.12,-129.75"/>
<text text-anchor="middle" x="983.75" y="-116.25" font-family="Helvetica,sans-Serif" font-size="10.00">GuiTypes.h</text>
</a>
</g>
</g>
<!-- Node14&#45;&gt;Node18 -->
<g id="edge23_Node000014_Node000018" class="edge">
<title>Node14&#45;&gt;Node18</title>
<g id="a_edge23_Node000014_Node000018"><a xlink:title=" ">
<path fill="none" stroke="#63b8ff" d="M840.42,-166.29C868.01,-157.59 912.2,-143.67 944.23,-133.58"/>
<polygon fill="#63b8ff" stroke="#63b8ff" points="945.08,-136.98 953.56,-130.64 942.97,-130.3 945.08,-136.98"/>
</a>
</g>
</g>
<!-- Node19 -->
<g id="Node000019" class="node">
<title>Node19</title>
<g id="a_Node000019"><a xlink:title=" ">
<polygon fill="#e0e0e0" stroke="#999999" points="1079.75,-129.75 1033.75,-129.75 1033.75,-110.5 1079.75,-110.5 1079.75,-129.75"/>
<text text-anchor="middle" x="1056.75" y="-116.25" font-family="Helvetica,sans-Serif" font-size="10.00">TBox.h</text>
</a>
</g>
</g>
<!-- Node14&#45;&gt;Node19 -->
<g id="edge25_Node000014_Node000019" class="edge">
<title>Node14&#45;&gt;Node19</title>
<g id="a_edge25_Node000014_Node000019"><a xlink:title=" ">
<path fill="none" stroke="#63b8ff" d="M840.39,-169.39C878.11,-161.96 951.04,-147.21 1022.4,-130.22"/>
<polygon fill="#63b8ff" stroke="#63b8ff" points="1022.99,-133.67 1031.9,-127.94 1021.36,-126.87 1022.99,-133.67"/>
</a>
</g>
</g>
<!-- Node20 -->
<g id="Node000020" class="node">
<title>Node20</title>
<g id="a_Node000020"><a xlink:href="_g_h2_i_8h.html" target="_top" xlink:title=" ">
<polygon fill="white" stroke="#666666" points="607.12,-129.75 560.38,-129.75 560.38,-110.5 607.12,-110.5 607.12,-129.75"/>
<text text-anchor="middle" x="583.75" y="-116.25" font-family="Helvetica,sans-Serif" font-size="10.00">GH2I.h</text>
</a>
</g>
</g>
<!-- Node14&#45;&gt;Node20 -->
<g id="edge26_Node000014_Node000020" class="edge">
<title>Node14&#45;&gt;Node20</title>
<g id="a_edge26_Node000014_Node000020"><a xlink:title=" ">
<path fill="none" stroke="#63b8ff" d="M789.15,-168.47C747.56,-158.89 665.29,-139.92 618.48,-129.13"/>
<polygon fill="#63b8ff" stroke="#63b8ff" points="619.39,-125.75 608.86,-126.91 617.82,-132.57 619.39,-125.75"/>
</a>
</g>
</g>
<!-- Node20&#45;&gt;Node3 -->
<g id="edge27_Node000020_Node000003" class="edge">
<title>Node20&#45;&gt;Node3</title>
<g id="a_edge27_Node000020_Node000003"><a xlink:title=" ">
<path fill="none" stroke="#63b8ff" d="M583.25,-110.44C581.93,-96.36 577.15,-68.77 559.75,-55.25 504.56,-12.37 321.57,-31.51 235.5,-19.19"/>
<polygon fill="#63b8ff" stroke="#63b8ff" points="236.21,-15.76 225.76,-17.54 235.04,-22.67 236.21,-15.76"/>
</a>
</g>
</g>
<!-- Node20&#45;&gt;Node4 -->
<g id="edge28_Node000020_Node000004" class="edge">
<title>Node20&#45;&gt;Node4</title>
<g id="a_edge28_Node000020_Node000004"><a xlink:title=" ">
<path fill="none" stroke="#63b8ff" d="M600.29,-110.09C621.14,-97.58 652.35,-74.36 635.75,-55.25 616.99,-33.66 422.88,-17.86 348.52,-12.56"/>
<polygon fill="#63b8ff" stroke="#63b8ff" points="348.99,-9.09 338.77,-11.88 348.5,-16.07 348.99,-9.09"/>
</a>
</g>
</g>
<!-- Node20&#45;&gt;Node5 -->
<g id="edge29_Node000020_Node000005" class="edge">
<title>Node20&#45;&gt;Node5</title>
<g id="a_edge29_Node000020_Node000005"><a xlink:title=" ">
<path fill="none" stroke="#63b8ff" d="M578.82,-110.23C570.31,-95.84 551.37,-67.81 526.75,-55.25 459.2,-20.79 267.48,-30.68 175,-19.24"/>
<polygon fill="#63b8ff" stroke="#63b8ff" points="175.58,-15.79 165.19,-17.86 174.61,-22.72 175.58,-15.79"/>
</a>
</g>
</g>
<!-- Node20&#45;&gt;Node6 -->
<g id="edge30_Node000020_Node000006" class="edge">
<title>Node20&#45;&gt;Node6</title>
<g id="a_edge30_Node000020_Node000006"><a xlink:title=" ">
<path fill="none" stroke="#63b8ff" d="M590.02,-110.07C598.61,-96.46 611.47,-70.7 597.75,-55.25 554.64,-6.73 377.82,-30 295.52,-18.93"/>
<polygon fill="#63b8ff" stroke="#63b8ff" points="296.26,-15.51 285.82,-17.33 295.12,-22.41 296.26,-15.51"/>
</a>
</g>
</g>
<!-- Node20&#45;&gt;Node7 -->
<g id="edge31_Node000020_Node000007" class="edge">
<title>Node20&#45;&gt;Node7</title>
<g id="a_edge31_Node000020_Node000007"><a xlink:title=" ">
<path fill="none" stroke="#63b8ff" d="M607.36,-113.2C640.38,-103.75 694.15,-83.41 673.75,-55.25 650.77,-23.52 604.52,-13.95 572.38,-11.28"/>
<polygon fill="#63b8ff" stroke="#63b8ff" points="572.95,-7.81 562.75,-10.67 572.51,-14.79 572.95,-7.81"/>
</a>
</g>
</g>
<!-- Node20&#45;&gt;Node8 -->
<g id="edge32_Node000020_Node000008" class="edge">
<title>Node20&#45;&gt;Node8</title>
<g id="a_edge32_Node000020_Node000008"><a xlink:title=" ">
<path fill="none" stroke="#63b8ff" d="M566.28,-110.09C550.44,-101.91 526.84,-89.71 508.44,-80.19"/>
<polygon fill="#63b8ff" stroke="#63b8ff" points="510.14,-77.13 499.65,-75.65 506.93,-83.35 510.14,-77.13"/>
</a>
</g>
</g>
<!-- Node20&#45;&gt;Node9 -->
<g id="edge33_Node000020_Node000009" class="edge">
<title>Node20&#45;&gt;Node9</title>
<g id="a_edge33_Node000020_Node000009"><a xlink:title=" ">
<path fill="none" stroke="#63b8ff" d="M560.07,-112.38C529.07,-103.55 474.3,-87.96 436.8,-77.28"/>
<polygon fill="#63b8ff" stroke="#63b8ff" points="437.79,-73.92 427.21,-74.55 435.87,-80.65 437.79,-73.92"/>
</a>
</g>
</g>
<!-- Node20&#45;&gt;Node11 -->
<g id="edge34_Node000020_Node000011" class="edge">
<title>Node20&#45;&gt;Node11</title>
<g id="a_edge34_Node000020_Node000011"><a xlink:title=" ">
<path fill="none" stroke="#63b8ff" d="M559.92,-115.79C497.57,-107.08 328.9,-83.51 247.67,-72.15"/>
<polygon fill="#63b8ff" stroke="#63b8ff" points="248.23,-68.7 237.84,-70.78 247.26,-75.63 248.23,-68.7"/>
</a>
</g>
</g>
</g>
</svg>

<g id="navigator" transform="translate(0 0)" fill="#404254">
  <rect fill="#f2f5e9" fill-opacity="0.5" stroke="#606060" stroke-width=".5" x="0" y="0" width="60" height="60"/>
  <use id="zoomplus" xlink:href="#zoomPlus" x="17" y="9" onmousedown="handleZoom(evt,'in')"/>
  <use id="zoomminus" xlink:href="#zoomMin" x="42" y="9" onmousedown="handleZoom(evt,'out')"/>
  <use id="reset" xlink:href="#resetDef" x="30" y="36" onmousedown="handleReset()"/>
   <use id="arrowup" xlink:href="#arrowUp" x="0" y="0" onmousedown="handlePan(0,-1)"/>
  <use id="arrowright" xlink:href="#arrowRight" x="0" y="0" onmousedown="handlePan(1,0)"/>
  <use id="arrowdown" xlink:href="#arrowDown" x="0" y="0" onmousedown="handlePan(0,1)"/>
  <use id="arrowleft" xlink:href="#arrowLeft" x="0" y="0" onmousedown="handlePan(-1,0)"/>
</g>
<svg viewBox="0 0 15 15" width="100%" height="30px" preserveAspectRatio="xMaxYMin meet">
 <g id="arrow_out" transform="scale(0.3 0.3)">
  <a xlink:href="_g_h2_d_8cxx__incl_org.svg" target="_base">
   <rect id="button" ry="5" rx="5" y="6" x="6" height="38" width="38"
        fill="#f2f5e9" fill-opacity="0.5" stroke="#606060" stroke-width="1.0"/>
   <path id="arrow"
     d="M 11.500037,31.436501 C 11.940474,20.09759 22.043105,11.32322 32.158766,21.979434 L 37.068811,17.246167 C 37.068811,17.246167 37.088388,32 37.088388,32 L 22.160133,31.978069 C 22.160133,31.978069 26.997745,27.140456 26.997745,27.140456 C 18.528582,18.264221 13.291696,25.230495 11.500037,31.436501 z"
     style="fill:#404040;"/>
  </a>
 </g>
</svg>

<style type='text/css'>
<![CDATA[
[data-mouse-over-selected='false'] { opacity: 0.7; }
[data-mouse-over-selected='true']  { opacity: 1.0; }
]]>
</style>
<script type="application/ecmascript"><![CDATA[
document.addEventListener('DOMContentLoaded', (event) => {
  highlightEdges();
  highlightAdjacentNodes();
});
]]></script>
</svg>
