<?xml version="1.0" encoding="UTF-8" standalone="no"?>
<!DOCTYPE svg PUBLIC "-//W3C//DTD SVG 1.1//EN"
 "http://www.w3.org/Graphics/SVG/1.1/DTD/svg11.dtd">
<!-- Generated by graphviz version 12.2.0 (20241103.1931)
 -->
<!-- Title: GPeak.cxx Pages: 1 -->
<svg width="2043pt" height="193pt"
 viewBox="0.00 0.00 2042.75 193.00" xmlns="http://www.w3.org/2000/svg" xmlns:xlink="http://www.w3.org/1999/xlink">
<g id="graph0" class="graph" transform="scale(1 1) rotate(0) translate(4 189)">
<title>GPeak.cxx</title>
<!-- Node1 -->
<g id="Node000001" class="node">
<title>Node1</title>
<g id="a_Node000001"><a xlink:title=" ">
<polygon fill="#999999" stroke="#666666" points="371,-185 308.5,-185 308.5,-165.75 371,-165.75 371,-185"/>
<text text-anchor="middle" x="339.75" y="-171.5" font-family="Helvetica,sans-Serif" font-size="10.00">GPeak.cxx</text>
</a>
</g>
</g>
<!-- Node2 -->
<g id="Node000002" class="node">
<title>Node2</title>
<g id="a_Node000002"><a xlink:href="_g_peak_8h.html" target="_top" xlink:title=" ">
<polygon fill="white" stroke="#666666" points="53.5,-129.75 0,-129.75 0,-110.5 53.5,-110.5 53.5,-129.75"/>
<text text-anchor="middle" x="26.75" y="-116.25" font-family="Helvetica,sans-Serif" font-size="10.00">GPeak.h</text>
</a>
</g>
</g>
<!-- Node1&#45;&gt;Node2 -->
<g id="edge1_Node000001_Node000002" class="edge">
<title>Node1&#45;&gt;Node2</title>
<g id="a_edge1_Node000001_Node000002"><a xlink:title=" ">
<path fill="none" stroke="#63b8ff" d="M308.04,-170.06C258.39,-163.13 159.06,-148.59 64.98,-130.06"/>
<polygon fill="#63b8ff" stroke="#63b8ff" points="65.8,-126.66 55.31,-128.14 64.44,-133.52 65.8,-126.66"/>
</a>
</g>
</g>
<!-- Node4 -->
<g id="Node000004" class="node">
<title>Node4</title>
<g id="a_Node000004"><a xlink:title=" ">
<polygon fill="#e0e0e0" stroke="#999999" points="127.62,-129.75 71.88,-129.75 71.88,-110.5 127.62,-110.5 127.62,-129.75"/>
<text text-anchor="middle" x="99.75" y="-116.25" font-family="Helvetica,sans-Serif" font-size="10.00">TGraph.h</text>
</a>
</g>
</g>
<!-- Node1&#45;&gt;Node4 -->
<g id="edge3_Node000001_Node000004" class="edge">
<title>Node1&#45;&gt;Node4</title>
<g id="a_edge3_Node000001_Node000004"><a xlink:title=" ">
<path fill="none" stroke="#63b8ff" d="M308.08,-167.54C270.22,-159.35 204.67,-145.07 138.99,-130.24"/>
<polygon fill="#63b8ff" stroke="#63b8ff" points="140.03,-126.88 129.5,-128.09 138.48,-133.71 140.03,-126.88"/>
</a>
</g>
</g>
<!-- Node5 -->
<g id="Node000005" class="node">
<title>Node5</title>
<g id="a_Node000005"><a xlink:title=" ">
<polygon fill="#e0e0e0" stroke="#999999" points="225.62,-129.75 145.88,-129.75 145.88,-110.5 225.62,-110.5 225.62,-129.75"/>
<text text-anchor="middle" x="185.75" y="-116.25" font-family="Helvetica,sans-Serif" font-size="10.00">TVirtualFitter.h</text>
</a>
</g>
</g>
<!-- Node1&#45;&gt;Node5 -->
<g id="edge4_Node000001_Node000005" class="edge">
<title>Node1&#45;&gt;Node5</title>
<g id="a_edge4_Node000001_Node000005"><a xlink:title=" ">
<path fill="none" stroke="#63b8ff" d="M313.63,-165.34C288.63,-156.7 250.67,-143.57 222.6,-133.87"/>
<polygon fill="#63b8ff" stroke="#63b8ff" points="224.03,-130.66 213.43,-130.7 221.74,-137.27 224.03,-130.66"/>
</a>
</g>
</g>
<!-- Node6 -->
<g id="Node000006" class="node">
<title>Node6</title>
<g id="a_Node000006"><a xlink:title=" ">
<polygon fill="#e0e0e0" stroke="#999999" points="312,-129.75 243.5,-129.75 243.5,-110.5 312,-110.5 312,-129.75"/>
<text text-anchor="middle" x="277.75" y="-116.25" font-family="Helvetica,sans-Serif" font-size="10.00">TFitResult.h</text>
</a>
</g>
</g>
<!-- Node1&#45;&gt;Node6 -->
<g id="edge5_Node000001_Node000006" class="edge">
<title>Node1&#45;&gt;Node6</title>
<g id="a_edge5_Node000001_Node000006"><a xlink:title=" ">
<path fill="none" stroke="#63b8ff" d="M329.23,-165.34C320.36,-157.72 307.44,-146.62 296.76,-137.45"/>
<polygon fill="#63b8ff" stroke="#63b8ff" points="299.13,-134.87 289.26,-131.01 294.57,-140.18 299.13,-134.87"/>
</a>
</g>
</g>
<!-- Node7 -->
<g id="Node000007" class="node">
<title>Node7</title>
<g id="a_Node000007"><a xlink:title=" ">
<polygon fill="#e0e0e0" stroke="#999999" points="316.38,-74.5 235.12,-74.5 235.12,-55.25 316.38,-55.25 316.38,-74.5"/>
<text text-anchor="middle" x="275.75" y="-61" font-family="Helvetica,sans-Serif" font-size="10.00">TFitResultPtr.h</text>
</a>
</g>
</g>
<!-- Node1&#45;&gt;Node7 -->
<g id="edge6_Node000001_Node000007" class="edge">
<title>Node1&#45;&gt;Node7</title>
<g id="a_edge6_Node000001_Node000007"><a xlink:title=" ">
<path fill="none" stroke="#63b8ff" d="M338.55,-165.55C336.49,-152.69 331.45,-128.37 320.75,-110.5 314.38,-99.85 304.88,-89.92 296.25,-82.14"/>
<polygon fill="#63b8ff" stroke="#63b8ff" points="298.77,-79.69 288.89,-75.86 294.23,-85.02 298.77,-79.69"/>
</a>
</g>
</g>
<!-- Node8 -->
<g id="Node000008" class="node">
<title>Node8</title>
<g id="a_Node000008"><a xlink:href="_globals_8h.html" target="_top" xlink:title=" ">
<polygon fill="white" stroke="#666666" points="830,-129.75 773.5,-129.75 773.5,-110.5 830,-110.5 830,-129.75"/>
<text text-anchor="middle" x="801.75" y="-116.25" font-family="Helvetica,sans-Serif" font-size="10.00">Globals.h</text>
</a>
</g>
</g>
<!-- Node1&#45;&gt;Node8 -->
<g id="edge7_Node000001_Node000008" class="edge">
<title>Node1&#45;&gt;Node8</title>
<g id="a_edge7_Node000001_Node000008"><a xlink:title=" ">
<path fill="none" stroke="#63b8ff" d="M371.14,-170.76C452.68,-161.36 671.11,-136.18 761.61,-125.75"/>
<polygon fill="#63b8ff" stroke="#63b8ff" points="761.97,-129.23 771.5,-124.61 761.17,-122.28 761.97,-129.23"/>
</a>
</g>
</g>
<!-- Node24 -->
<g id="Node000024" class="node">
<title>Node24</title>
<g id="a_Node000024"><a xlink:href="_g_root_functions_8h.html" target="_top" xlink:title=" ">
<polygon fill="white" stroke="#666666" points="1198.75,-129.75 1104.75,-129.75 1104.75,-110.5 1198.75,-110.5 1198.75,-129.75"/>
<text text-anchor="middle" x="1151.75" y="-116.25" font-family="Helvetica,sans-Serif" font-size="10.00">GRootFunctions.h</text>
</a>
</g>
</g>
<!-- Node1&#45;&gt;Node24 -->
<g id="edge23_Node000001_Node000024" class="edge">
<title>Node1&#45;&gt;Node24</title>
<g id="a_edge23_Node000001_Node000024"><a xlink:title=" ">
<path fill="none" stroke="#63b8ff" d="M371.08,-172.32C492.55,-164.35 933.49,-135.44 1093.36,-124.95"/>
<polygon fill="#63b8ff" stroke="#63b8ff" points="1093.11,-128.48 1102.86,-124.33 1092.66,-121.49 1093.11,-128.48"/>
</a>
</g>
</g>
<!-- Node26 -->
<g id="Node000026" class="node">
<title>Node26</title>
<g id="a_Node000026"><a xlink:href="_t_g_r_s_i_functions_8h.html" target="_top" xlink:title=" ">
<polygon fill="white" stroke="#666666" points="463.88,-129.75 367.62,-129.75 367.62,-110.5 463.88,-110.5 463.88,-129.75"/>
<text text-anchor="middle" x="415.75" y="-116.25" font-family="Helvetica,sans-Serif" font-size="10.00">TGRSIFunctions.h</text>
</a>
</g>
</g>
<!-- Node1&#45;&gt;Node26 -->
<g id="edge25_Node000001_Node000026" class="edge">
<title>Node1&#45;&gt;Node26</title>
<g id="a_edge25_Node000001_Node000026"><a xlink:title=" ">
<path fill="none" stroke="#63b8ff" d="M352.64,-165.34C363.78,-157.54 380.12,-146.09 393.39,-136.79"/>
<polygon fill="#63b8ff" stroke="#63b8ff" points="395.37,-139.68 401.55,-131.07 391.36,-133.94 395.37,-139.68"/>
</a>
</g>
</g>
<!-- Node28 -->
<g id="Node000028" class="node">
<title>Node28</title>
<g id="a_Node000028"><a xlink:href="_g_canvas_8h.html" target="_top" xlink:title=" ">
<polygon fill="white" stroke="#666666" points="1692.75,-129.75 1628.75,-129.75 1628.75,-110.5 1692.75,-110.5 1692.75,-129.75"/>
<text text-anchor="middle" x="1660.75" y="-116.25" font-family="Helvetica,sans-Serif" font-size="10.00">GCanvas.h</text>
</a>
</g>
</g>
<!-- Node1&#45;&gt;Node28 -->
<g id="edge29_Node000001_Node000028" class="edge">
<title>Node1&#45;&gt;Node28</title>
<g id="a_edge29_Node000001_Node000028"><a xlink:title=" ">
<path fill="none" stroke="#63b8ff" d="M371.42,-173.1C548.1,-165.98 1411.23,-131.18 1616.76,-122.9"/>
<polygon fill="#63b8ff" stroke="#63b8ff" points="1616.89,-126.4 1626.74,-122.5 1616.61,-119.4 1616.89,-126.4"/>
</a>
</g>
</g>
<!-- Node3 -->
<g id="Node000003" class="node">
<title>Node3</title>
<g id="a_Node000003"><a xlink:title=" ">
<polygon fill="#e0e0e0" stroke="#999999" points="47.12,-74.5 6.38,-74.5 6.38,-55.25 47.12,-55.25 47.12,-74.5"/>
<text text-anchor="middle" x="26.75" y="-61" font-family="Helvetica,sans-Serif" font-size="10.00">TF1.h</text>
</a>
</g>
</g>
<!-- Node2&#45;&gt;Node3 -->
<g id="edge2_Node000002_Node000003" class="edge">
<title>Node2&#45;&gt;Node3</title>
<g id="a_edge2_Node000002_Node000003"><a xlink:title=" ">
<path fill="none" stroke="#63b8ff" d="M26.75,-110.33C26.75,-103.82 26.75,-94.67 26.75,-86.37"/>
<polygon fill="#63b8ff" stroke="#63b8ff" points="30.25,-86.37 26.75,-76.37 23.25,-86.37 30.25,-86.37"/>
</a>
</g>
</g>
<!-- Node9 -->
<g id="Node000009" class="node">
<title>Node9</title>
<g id="a_Node000009"><a xlink:title=" ">
<polygon fill="#e0e0e0" stroke="#999999" points="1352.5,-74.5 1299,-74.5 1299,-55.25 1352.5,-55.25 1352.5,-74.5"/>
<text text-anchor="middle" x="1325.75" y="-61" font-family="Helvetica,sans-Serif" font-size="10.00">iostream</text>
</a>
</g>
</g>
<!-- Node8&#45;&gt;Node9 -->
<g id="edge8_Node000008_Node000009" class="edge">
<title>Node8&#45;&gt;Node9</title>
<g id="a_edge8_Node000008_Node000009"><a xlink:title=" ">
<path fill="none" stroke="#63b8ff" d="M830.26,-117.95C904.15,-114.61 1108.02,-103.47 1287.47,-74.63"/>
<polygon fill="#63b8ff" stroke="#63b8ff" points="1287.91,-78.1 1297.21,-73.04 1286.78,-71.2 1287.91,-78.1"/>
</a>
</g>
</g>
<!-- Node10 -->
<g id="Node000010" class="node">
<title>Node10</title>
<g id="a_Node000010"><a xlink:title=" ">
<polygon fill="#e0e0e0" stroke="#999999" points="503.62,-74.5 453.88,-74.5 453.88,-55.25 503.62,-55.25 503.62,-74.5"/>
<text text-anchor="middle" x="478.75" y="-61" font-family="Helvetica,sans-Serif" font-size="10.00">iomanip</text>
</a>
</g>
</g>
<!-- Node8&#45;&gt;Node10 -->
<g id="edge9_Node000008_Node000010" class="edge">
<title>Node8&#45;&gt;Node10</title>
<g id="a_edge9_Node000008_Node000010"><a xlink:title=" ">
<path fill="none" stroke="#63b8ff" d="M773.29,-115.64C723.16,-109.32 615.66,-94.89 515.2,-74.83"/>
<polygon fill="#63b8ff" stroke="#63b8ff" points="515.92,-71.4 505.42,-72.85 514.53,-78.26 515.92,-71.4"/>
</a>
</g>
</g>
<!-- Node11 -->
<g id="Node000011" class="node">
<title>Node11</title>
<g id="a_Node000011"><a xlink:title=" ">
<polygon fill="#e0e0e0" stroke="#999999" points="579.75,-74.5 521.75,-74.5 521.75,-55.25 579.75,-55.25 579.75,-74.5"/>
<text text-anchor="middle" x="550.75" y="-61" font-family="Helvetica,sans-Serif" font-size="10.00">stdexcept</text>
</a>
</g>
</g>
<!-- Node8&#45;&gt;Node11 -->
<g id="edge10_Node000008_Node000011" class="edge">
<title>Node8&#45;&gt;Node11</title>
<g id="a_edge10_Node000008_Node000011"><a xlink:title=" ">
<path fill="none" stroke="#63b8ff" d="M773.45,-113.12C728.87,-103.66 642.13,-85.26 591.06,-74.43"/>
<polygon fill="#63b8ff" stroke="#63b8ff" points="592.1,-71.07 581.59,-72.42 590.65,-77.92 592.1,-71.07"/>
</a>
</g>
</g>
<!-- Node12 -->
<g id="Node000012" class="node">
<title>Node12</title>
<g id="a_Node000012"><a xlink:title=" ">
<polygon fill="#e0e0e0" stroke="#999999" points="435.75,-74.5 395.75,-74.5 395.75,-55.25 435.75,-55.25 435.75,-74.5"/>
<text text-anchor="middle" x="415.75" y="-61" font-family="Helvetica,sans-Serif" font-size="10.00">string</text>
</a>
</g>
</g>
<!-- Node8&#45;&gt;Node12 -->
<g id="edge11_Node000008_Node000012" class="edge">
<title>Node8&#45;&gt;Node12</title>
<g id="a_edge11_Node000008_Node000012"><a xlink:title=" ">
<path fill="none" stroke="#63b8ff" d="M773.26,-117.17C714.14,-112.76 573.74,-100.54 447.26,-74.72"/>
<polygon fill="#63b8ff" stroke="#63b8ff" points="448.22,-71.34 437.72,-72.73 446.8,-78.19 448.22,-71.34"/>
</a>
</g>
</g>
<!-- Node13 -->
<g id="Node000013" class="node">
<title>Node13</title>
<g id="a_Node000013"><a xlink:title=" ">
<polygon fill="#e0e0e0" stroke="#999999" points="913.88,-19.25 871.62,-19.25 871.62,0 913.88,0 913.88,-19.25"/>
<text text-anchor="middle" x="892.75" y="-5.75" font-family="Helvetica,sans-Serif" font-size="10.00">cstdio</text>
</a>
</g>
</g>
<!-- Node8&#45;&gt;Node13 -->
<g id="edge12_Node000008_Node000013" class="edge">
<title>Node8&#45;&gt;Node13</title>
<g id="a_edge12_Node000008_Node000013"><a xlink:title=" ">
<path fill="none" stroke="#63b8ff" d="M773.33,-118.12C715.21,-115.08 591.5,-102.97 631.75,-55.25 660.64,-21 796.87,-13.04 860.22,-11.18"/>
<polygon fill="#63b8ff" stroke="#63b8ff" points="860.09,-14.69 869.99,-10.94 859.91,-7.69 860.09,-14.69"/>
</a>
</g>
</g>
<!-- Node14 -->
<g id="Node000014" class="node">
<title>Node14</title>
<g id="a_Node000014"><a xlink:title=" ">
<polygon fill="#e0e0e0" stroke="#999999" points="1546.38,-19.25 1501.12,-19.25 1501.12,0 1546.38,0 1546.38,-19.25"/>
<text text-anchor="middle" x="1523.75" y="-5.75" font-family="Helvetica,sans-Serif" font-size="10.00">cstdint</text>
</a>
</g>
</g>
<!-- Node8&#45;&gt;Node14 -->
<g id="edge13_Node000008_Node000014" class="edge">
<title>Node8&#45;&gt;Node14</title>
<g id="a_edge13_Node000008_Node000014"><a xlink:title=" ">
<path fill="none" stroke="#63b8ff" d="M773.06,-115.89C723.49,-109.27 630.24,-91.6 664.75,-55.25 693.62,-24.84 1333.3,-13.44 1489.55,-11.1"/>
<polygon fill="#63b8ff" stroke="#63b8ff" points="1489.3,-14.6 1499.25,-10.96 1489.2,-7.61 1489.3,-14.6"/>
</a>
</g>
</g>
<!-- Node15 -->
<g id="Node000015" class="node">
<title>Node15</title>
<g id="a_Node000015"><a xlink:title=" ">
<polygon fill="#e0e0e0" stroke="#999999" points="718,-74.5 673.5,-74.5 673.5,-55.25 718,-55.25 718,-74.5"/>
<text text-anchor="middle" x="695.75" y="-61" font-family="Helvetica,sans-Serif" font-size="10.00">cstdlib</text>
</a>
</g>
</g>
<!-- Node8&#45;&gt;Node15 -->
<g id="edge14_Node000008_Node000015" class="edge">
<title>Node8&#45;&gt;Node15</title>
<g id="a_edge14_Node000008_Node000015"><a xlink:title=" ">
<path fill="none" stroke="#63b8ff" d="M783.77,-110.09C767.4,-101.87 742.96,-89.59 723.99,-80.06"/>
<polygon fill="#63b8ff" stroke="#63b8ff" points="725.68,-76.99 715.17,-75.63 722.54,-83.25 725.68,-76.99"/>
</a>
</g>
</g>
<!-- Node16 -->
<g id="Node000016" class="node">
<title>Node16</title>
<g id="a_Node000016"><a xlink:title=" ">
<polygon fill="#e0e0e0" stroke="#999999" points="795.5,-74.5 736,-74.5 736,-55.25 795.5,-55.25 795.5,-74.5"/>
<text text-anchor="middle" x="765.75" y="-61" font-family="Helvetica,sans-Serif" font-size="10.00">execinfo.h</text>
</a>
</g>
</g>
<!-- Node8&#45;&gt;Node16 -->
<g id="edge15_Node000008_Node000016" class="edge">
<title>Node8&#45;&gt;Node16</title>
<g id="a_edge15_Node000008_Node000016"><a xlink:title=" ">
<path fill="none" stroke="#63b8ff" d="M795.81,-110.33C791.04,-103.28 784.19,-93.15 778.23,-84.33"/>
<polygon fill="#63b8ff" stroke="#63b8ff" points="781.17,-82.44 772.67,-76.11 775.37,-86.36 781.17,-82.44"/>
</a>
</g>
</g>
<!-- Node17 -->
<g id="Node000017" class="node">
<title>Node17</title>
<g id="a_Node000017"><a xlink:title=" ">
<polygon fill="#e0e0e0" stroke="#999999" points="864,-74.5 813.5,-74.5 813.5,-55.25 864,-55.25 864,-74.5"/>
<text text-anchor="middle" x="838.75" y="-61" font-family="Helvetica,sans-Serif" font-size="10.00">cxxabi.h</text>
</a>
</g>
</g>
<!-- Node8&#45;&gt;Node17 -->
<g id="edge16_Node000008_Node000017" class="edge">
<title>Node8&#45;&gt;Node17</title>
<g id="a_edge16_Node000008_Node000017"><a xlink:title=" ">
<path fill="none" stroke="#63b8ff" d="M807.86,-110.33C812.81,-103.21 819.95,-92.93 826.12,-84.05"/>
<polygon fill="#63b8ff" stroke="#63b8ff" points="828.81,-86.31 831.64,-76.1 823.06,-82.32 828.81,-86.31"/>
</a>
</g>
</g>
<!-- Node18 -->
<g id="Node000018" class="node">
<title>Node18</title>
<g id="a_Node000018"><a xlink:title=" ">
<polygon fill="#e0e0e0" stroke="#999999" points="933.38,-74.5 882.12,-74.5 882.12,-55.25 933.38,-55.25 933.38,-74.5"/>
<text text-anchor="middle" x="907.75" y="-61" font-family="Helvetica,sans-Serif" font-size="10.00">sstream</text>
</a>
</g>
</g>
<!-- Node8&#45;&gt;Node18 -->
<g id="edge17_Node000008_Node000018" class="edge">
<title>Node8&#45;&gt;Node18</title>
<g id="a_edge17_Node000008_Node000018"><a xlink:title=" ">
<path fill="none" stroke="#63b8ff" d="M819.73,-110.09C836.1,-101.87 860.54,-89.59 879.51,-80.06"/>
<polygon fill="#63b8ff" stroke="#63b8ff" points="880.96,-83.25 888.33,-75.63 877.82,-76.99 880.96,-83.25"/>
</a>
</g>
</g>
<!-- Node19 -->
<g id="Node000019" class="node">
<title>Node19</title>
<g id="a_Node000019"><a xlink:title=" ">
<polygon fill="#e0e0e0" stroke="#999999" points="988.25,-74.5 951.25,-74.5 951.25,-55.25 988.25,-55.25 988.25,-74.5"/>
<text text-anchor="middle" x="969.75" y="-61" font-family="Helvetica,sans-Serif" font-size="10.00">array</text>
</a>
</g>
</g>
<!-- Node8&#45;&gt;Node19 -->
<g id="edge18_Node000008_Node000019" class="edge">
<title>Node8&#45;&gt;Node19</title>
<g id="a_edge18_Node000008_Node000019"><a xlink:title=" ">
<path fill="none" stroke="#63b8ff" d="M830.38,-110.09C856.7,-101.77 897.09,-89.01 940.17,-75.32"/>
<polygon fill="#63b8ff" stroke="#63b8ff" points="940.96,-78.74 949.43,-72.37 938.84,-72.07 940.96,-78.74"/>
</a>
</g>
</g>
<!-- Node20 -->
<g id="Node000020" class="node">
<title>Node20</title>
<g id="a_Node000020"><a xlink:title=" ">
<polygon fill="#e0e0e0" stroke="#999999" points="1057,-74.5 1006.5,-74.5 1006.5,-55.25 1057,-55.25 1057,-74.5"/>
<text text-anchor="middle" x="1031.75" y="-61" font-family="Helvetica,sans-Serif" font-size="10.00">memory</text>
</a>
</g>
</g>
<!-- Node8&#45;&gt;Node20 -->
<g id="edge19_Node000008_Node000020" class="edge">
<title>Node8&#45;&gt;Node20</title>
<g id="a_edge19_Node000008_Node000020"><a xlink:title=" ">
<path fill="none" stroke="#63b8ff" d="M830.37,-112.84C866.49,-104.86 930.83,-90.47 995.02,-75.12"/>
<polygon fill="#63b8ff" stroke="#63b8ff" points="995.77,-78.53 1004.68,-72.8 994.13,-71.73 995.77,-78.53"/>
</a>
</g>
</g>
<!-- Node21 -->
<g id="Node000021" class="node">
<title>Node21</title>
<g id="a_Node000021"><a xlink:title=" ">
<polygon fill="#e0e0e0" stroke="#999999" points="1124.62,-74.5 1074.88,-74.5 1074.88,-55.25 1124.62,-55.25 1124.62,-74.5"/>
<text text-anchor="middle" x="1099.75" y="-61" font-family="Helvetica,sans-Serif" font-size="10.00">unistd.h</text>
</a>
</g>
</g>
<!-- Node8&#45;&gt;Node21 -->
<g id="edge20_Node000008_Node000021" class="edge">
<title>Node8&#45;&gt;Node21</title>
<g id="a_edge20_Node000008_Node000021"><a xlink:title=" ">
<path fill="none" stroke="#63b8ff" d="M830.41,-115.06C877.14,-108.26 972.84,-93.65 1063.52,-74.82"/>
<polygon fill="#63b8ff" stroke="#63b8ff" points="1064,-78.3 1073.07,-72.82 1062.56,-71.45 1064,-78.3"/>
</a>
</g>
</g>
<!-- Node22 -->
<g id="Node000022" class="node">
<title>Node22</title>
<g id="a_Node000022"><a xlink:title=" ">
<polygon fill="#e0e0e0" stroke="#999999" points="1202.5,-74.5 1143,-74.5 1143,-55.25 1202.5,-55.25 1202.5,-74.5"/>
<text text-anchor="middle" x="1172.75" y="-61" font-family="Helvetica,sans-Serif" font-size="10.00">sys/wait.h</text>
</a>
</g>
</g>
<!-- Node8&#45;&gt;Node22 -->
<g id="edge21_Node000008_Node000022" class="edge">
<title>Node8&#45;&gt;Node22</title>
<g id="a_edge21_Node000008_Node000022"><a xlink:title=" ">
<path fill="none" stroke="#63b8ff" d="M830.3,-116.11C886.1,-110.03 1013.78,-95.28 1131.23,-74.81"/>
<polygon fill="#63b8ff" stroke="#63b8ff" points="1131.84,-78.26 1141.08,-73.08 1130.62,-71.37 1131.84,-78.26"/>
</a>
</g>
</g>
<!-- Node23 -->
<g id="Node000023" class="node">
<title>Node23</title>
<g id="a_Node000023"><a xlink:title=" ">
<polygon fill="#e0e0e0" stroke="#999999" points="1280.88,-74.5 1220.62,-74.5 1220.62,-55.25 1280.88,-55.25 1280.88,-74.5"/>
<text text-anchor="middle" x="1250.75" y="-61" font-family="Helvetica,sans-Serif" font-size="10.00">sys/prctl.h</text>
</a>
</g>
</g>
<!-- Node8&#45;&gt;Node23 -->
<g id="edge22_Node000008_Node000023" class="edge">
<title>Node8&#45;&gt;Node23</title>
<g id="a_edge22_Node000008_Node000023"><a xlink:title=" ">
<path fill="none" stroke="#63b8ff" d="M830.23,-117.1C895.49,-112.24 1061.04,-98.61 1209.08,-74.78"/>
<polygon fill="#63b8ff" stroke="#63b8ff" points="1209.35,-78.28 1218.66,-73.22 1208.23,-71.37 1209.35,-78.28"/>
</a>
</g>
</g>
<!-- Node25 -->
<g id="Node000025" class="node">
<title>Node25</title>
<g id="a_Node000025"><a xlink:title=" ">
<polygon fill="#e0e0e0" stroke="#999999" points="1444.62,-74.5 1370.88,-74.5 1370.88,-55.25 1444.62,-55.25 1444.62,-74.5"/>
<text text-anchor="middle" x="1407.75" y="-61" font-family="Helvetica,sans-Serif" font-size="10.00">RtypesCore.h</text>
</a>
</g>
</g>
<!-- Node24&#45;&gt;Node25 -->
<g id="edge24_Node000024_Node000025" class="edge">
<title>Node24&#45;&gt;Node25</title>
<g id="a_edge24_Node000024_Node000025"><a xlink:title=" ">
<path fill="none" stroke="#63b8ff" d="M1195.47,-110.03C1240.98,-100.56 1312.09,-85.77 1359.29,-75.95"/>
<polygon fill="#63b8ff" stroke="#63b8ff" points="1359.89,-79.4 1368.97,-73.94 1358.47,-72.55 1359.89,-79.4"/>
</a>
</g>
</g>
<!-- Node26&#45;&gt;Node7 -->
<g id="edge28_Node000026_Node000007" class="edge">
<title>Node26&#45;&gt;Node7</title>
<g id="a_edge28_Node000026_Node000007"><a xlink:title=" ">
<path fill="none" stroke="#63b8ff" d="M392,-110.09C369.58,-101.56 335.69,-88.67 310.28,-79.01"/>
<polygon fill="#63b8ff" stroke="#63b8ff" points="311.62,-75.77 301.03,-75.49 309.13,-82.32 311.62,-75.77"/>
</a>
</g>
</g>
<!-- Node26&#45;&gt;Node12 -->
<g id="edge26_Node000026_Node000012" class="edge">
<title>Node26&#45;&gt;Node12</title>
<g id="a_edge26_Node000026_Node000012"><a xlink:title=" ">
<path fill="none" stroke="#63b8ff" d="M415.75,-110.33C415.75,-103.82 415.75,-94.67 415.75,-86.37"/>
<polygon fill="#63b8ff" stroke="#63b8ff" points="419.25,-86.37 415.75,-76.37 412.25,-86.37 419.25,-86.37"/>
</a>
</g>
</g>
<!-- Node27 -->
<g id="Node000027" class="node">
<title>Node27</title>
<g id="a_Node000027"><a xlink:title=" ">
<polygon fill="#e0e0e0" stroke="#999999" points="377.25,-74.5 334.25,-74.5 334.25,-55.25 377.25,-55.25 377.25,-74.5"/>
<text text-anchor="middle" x="355.75" y="-61" font-family="Helvetica,sans-Serif" font-size="10.00">cmath</text>
</a>
</g>
</g>
<!-- Node26&#45;&gt;Node27 -->
<g id="edge27_Node000026_Node000027" class="edge">
<title>Node26&#45;&gt;Node27</title>
<g id="a_edge27_Node000026_Node000027"><a xlink:title=" ">
<path fill="none" stroke="#63b8ff" d="M405.57,-110.09C396.99,-102.47 384.48,-91.37 374.15,-82.2"/>
<polygon fill="#63b8ff" stroke="#63b8ff" points="376.71,-79.8 366.91,-75.78 372.07,-85.04 376.71,-79.8"/>
</a>
</g>
</g>
<!-- Node28&#45;&gt;Node9 -->
<g id="edge42_Node000028_Node000009" class="edge">
<title>Node28&#45;&gt;Node9</title>
<g id="a_edge42_Node000028_Node000009"><a xlink:title=" ">
<path fill="none" stroke="#63b8ff" d="M1628.29,-115.22C1575.17,-108.63 1466.12,-94.25 1363.96,-74.78"/>
<polygon fill="#63b8ff" stroke="#63b8ff" points="1364.79,-71.37 1354.31,-72.91 1363.46,-78.25 1364.79,-71.37"/>
</a>
</g>
</g>
<!-- Node29 -->
<g id="Node000029" class="node">
<title>Node29</title>
<g id="a_Node000029"><a xlink:href="_g_h2_base_8h.html" target="_top" xlink:title=" ">
<polygon fill="white" stroke="#666666" points="1982.88,-74.5 1916.62,-74.5 1916.62,-55.25 1982.88,-55.25 1982.88,-74.5"/>
<text text-anchor="middle" x="1949.75" y="-61" font-family="Helvetica,sans-Serif" font-size="10.00">GH2Base.h</text>
</a>
</g>
</g>
<!-- Node28&#45;&gt;Node29 -->
<g id="edge30_Node000028_Node000029" class="edge">
<title>Node28&#45;&gt;Node29</title>
<g id="a_edge30_Node000028_Node000029"><a xlink:title=" ">
<path fill="none" stroke="#63b8ff" d="M1693.16,-113.52C1738.34,-105.66 1823.07,-90.71 1905.02,-74.99"/>
<polygon fill="#63b8ff" stroke="#63b8ff" points="1905.65,-78.43 1914.81,-73.11 1904.33,-71.56 1905.65,-78.43"/>
</a>
</g>
</g>
<!-- Node33 -->
<g id="Node000033" class="node">
<title>Node33</title>
<g id="a_Node000033"><a xlink:title=" ">
<polygon fill="#e0e0e0" stroke="#999999" points="1520.38,-74.5 1463.12,-74.5 1463.12,-55.25 1520.38,-55.25 1520.38,-74.5"/>
<text text-anchor="middle" x="1491.75" y="-61" font-family="Helvetica,sans-Serif" font-size="10.00">TROOT.h</text>
</a>
</g>
</g>
<!-- Node28&#45;&gt;Node33 -->
<g id="edge36_Node000028_Node000033" class="edge">
<title>Node28&#45;&gt;Node33</title>
<g id="a_edge36_Node000028_Node000033"><a xlink:title=" ">
<path fill="none" stroke="#63b8ff" d="M1632.08,-110.09C1604.4,-101.37 1562.26,-88.09 1531.38,-78.36"/>
<polygon fill="#63b8ff" stroke="#63b8ff" points="1532.59,-75.07 1522,-75.41 1530.49,-81.75 1532.59,-75.07"/>
</a>
</g>
</g>
<!-- Node34 -->
<g id="Node000034" class="node">
<title>Node34</title>
<g id="a_Node000034"><a xlink:title=" ">
<polygon fill="#e0e0e0" stroke="#999999" points="1601,-74.5 1538.5,-74.5 1538.5,-55.25 1601,-55.25 1601,-74.5"/>
<text text-anchor="middle" x="1569.75" y="-61" font-family="Helvetica,sans-Serif" font-size="10.00">TCanvas.h</text>
</a>
</g>
</g>
<!-- Node28&#45;&gt;Node34 -->
<g id="edge37_Node000028_Node000034" class="edge">
<title>Node28&#45;&gt;Node34</title>
<g id="a_edge37_Node000028_Node000034"><a xlink:title=" ">
<path fill="none" stroke="#63b8ff" d="M1645.31,-110.09C1631.59,-102.06 1611.25,-90.16 1595.13,-80.73"/>
<polygon fill="#63b8ff" stroke="#63b8ff" points="1596.97,-77.75 1586.57,-75.72 1593.43,-83.79 1596.97,-77.75"/>
</a>
</g>
</g>
<!-- Node35 -->
<g id="Node000035" class="node">
<title>Node35</title>
<g id="a_Node000035"><a xlink:title=" ">
<polygon fill="#e0e0e0" stroke="#999999" points="1702.12,-74.5 1619.38,-74.5 1619.38,-55.25 1702.12,-55.25 1702.12,-74.5"/>
<text text-anchor="middle" x="1660.75" y="-61" font-family="Helvetica,sans-Serif" font-size="10.00">TRootCanvas.h</text>
</a>
</g>
</g>
<!-- Node28&#45;&gt;Node35 -->
<g id="edge38_Node000028_Node000035" class="edge">
<title>Node28&#45;&gt;Node35</title>
<g id="a_edge38_Node000028_Node000035"><a xlink:title=" ">
<path fill="none" stroke="#63b8ff" d="M1660.75,-110.33C1660.75,-103.82 1660.75,-94.67 1660.75,-86.37"/>
<polygon fill="#63b8ff" stroke="#63b8ff" points="1664.25,-86.37 1660.75,-76.37 1657.25,-86.37 1664.25,-86.37"/>
</a>
</g>
</g>
<!-- Node36 -->
<g id="Node000036" class="node">
<title>Node36</title>
<g id="a_Node000036"><a xlink:title=" ">
<polygon fill="#e0e0e0" stroke="#999999" points="1762.88,-74.5 1720.62,-74.5 1720.62,-55.25 1762.88,-55.25 1762.88,-74.5"/>
<text text-anchor="middle" x="1741.75" y="-61" font-family="Helvetica,sans-Serif" font-size="10.00">TH1.h</text>
</a>
</g>
</g>
<!-- Node28&#45;&gt;Node36 -->
<g id="edge39_Node000028_Node000036" class="edge">
<title>Node28&#45;&gt;Node36</title>
<g id="a_edge39_Node000028_Node000036"><a xlink:title=" ">
<path fill="none" stroke="#63b8ff" d="M1674.49,-110.09C1686.48,-102.21 1704.12,-90.61 1718.33,-81.27"/>
<polygon fill="#63b8ff" stroke="#63b8ff" points="1720.24,-84.2 1726.68,-75.78 1716.4,-78.35 1720.24,-84.2"/>
</a>
</g>
</g>
<!-- Node37 -->
<g id="Node000037" class="node">
<title>Node37</title>
<g id="a_Node000037"><a xlink:title=" ">
<polygon fill="#e0e0e0" stroke="#999999" points="1828.88,-74.5 1780.62,-74.5 1780.62,-55.25 1828.88,-55.25 1828.88,-74.5"/>
<text text-anchor="middle" x="1804.75" y="-61" font-family="Helvetica,sans-Serif" font-size="10.00">TLine.h</text>
</a>
</g>
</g>
<!-- Node28&#45;&gt;Node37 -->
<g id="edge40_Node000028_Node000037" class="edge">
<title>Node28&#45;&gt;Node37</title>
<g id="a_edge40_Node000028_Node000037"><a xlink:title=" ">
<path fill="none" stroke="#63b8ff" d="M1685.18,-110.09C1708.35,-101.52 1743.41,-88.56 1769.59,-78.88"/>
<polygon fill="#63b8ff" stroke="#63b8ff" points="1770.62,-82.23 1778.78,-75.48 1768.19,-75.66 1770.62,-82.23"/>
</a>
</g>
</g>
<!-- Node38 -->
<g id="Node000038" class="node">
<title>Node38</title>
<g id="a_Node000038"><a xlink:title=" ">
<polygon fill="#e0e0e0" stroke="#999999" points="1898.75,-74.5 1846.75,-74.5 1846.75,-55.25 1898.75,-55.25 1898.75,-74.5"/>
<text text-anchor="middle" x="1872.75" y="-61" font-family="Helvetica,sans-Serif" font-size="10.00">TCutG.h</text>
</a>
</g>
</g>
<!-- Node28&#45;&gt;Node38 -->
<g id="edge41_Node000028_Node000038" class="edge">
<title>Node28&#45;&gt;Node38</title>
<g id="a_edge41_Node000028_Node000038"><a xlink:title=" ">
<path fill="none" stroke="#63b8ff" d="M1692.95,-111.04C1731.19,-101.43 1794.89,-85.43 1835.3,-75.28"/>
<polygon fill="#63b8ff" stroke="#63b8ff" points="1835.98,-78.72 1844.82,-72.89 1834.27,-71.93 1835.98,-78.72"/>
</a>
</g>
</g>
<!-- Node29&#45;&gt;Node13 -->
<g id="edge31_Node000029_Node000013" class="edge">
<title>Node29&#45;&gt;Node13</title>
<g id="a_edge31_Node000029_Node000013"><a xlink:title=" ">
<path fill="none" stroke="#63b8ff" d="M1916.36,-56.52C1913.46,-56.03 1910.56,-55.6 1907.75,-55.25 1523.66,-7.67 1052.32,-8.87 925.47,-10.18"/>
<polygon fill="#63b8ff" stroke="#63b8ff" points="925.76,-6.68 915.8,-10.29 925.84,-13.68 925.76,-6.68"/>
</a>
</g>
</g>
<!-- Node29&#45;&gt;Node14 -->
<g id="edge32_Node000029_Node000014" class="edge">
<title>Node29&#45;&gt;Node14</title>
<g id="a_edge32_Node000029_Node000014"><a xlink:title=" ">
<path fill="none" stroke="#63b8ff" d="M1916.33,-56.74C1913.43,-56.2 1910.54,-55.7 1907.75,-55.25 1779.28,-34.63 1625.18,-19.65 1557.93,-13.59"/>
<polygon fill="#63b8ff" stroke="#63b8ff" points="1558.56,-10.13 1548.29,-12.73 1557.94,-17.11 1558.56,-10.13"/>
</a>
</g>
</g>
<!-- Node30 -->
<g id="Node000030" class="node">
<title>Node30</title>
<g id="a_Node000030"><a xlink:title=" ">
<polygon fill="#e0e0e0" stroke="#999999" points="1910.25,-19.25 1849.25,-19.25 1849.25,0 1910.25,0 1910.25,-19.25"/>
<text text-anchor="middle" x="1879.75" y="-5.75" font-family="Helvetica,sans-Serif" font-size="10.00">TNamed.h</text>
</a>
</g>
</g>
<!-- Node29&#45;&gt;Node30 -->
<g id="edge33_Node000029_Node000030" class="edge">
<title>Node29&#45;&gt;Node30</title>
<g id="a_edge33_Node000029_Node000030"><a xlink:title=" ">
<path fill="none" stroke="#63b8ff" d="M1937.88,-54.84C1927.66,-47.07 1912.68,-35.67 1900.49,-26.4"/>
<polygon fill="#63b8ff" stroke="#63b8ff" points="1902.73,-23.71 1892.65,-20.44 1898.49,-29.28 1902.73,-23.71"/>
</a>
</g>
</g>
<!-- Node31 -->
<g id="Node000031" class="node">
<title>Node31</title>
<g id="a_Node000031"><a xlink:title=" ">
<polygon fill="#e0e0e0" stroke="#999999" points="1970.88,-19.25 1928.62,-19.25 1928.62,0 1970.88,0 1970.88,-19.25"/>
<text text-anchor="middle" x="1949.75" y="-5.75" font-family="Helvetica,sans-Serif" font-size="10.00">TH2.h</text>
</a>
</g>
</g>
<!-- Node29&#45;&gt;Node31 -->
<g id="edge34_Node000029_Node000031" class="edge">
<title>Node29&#45;&gt;Node31</title>
<g id="a_edge34_Node000029_Node000031"><a xlink:title=" ">
<path fill="none" stroke="#63b8ff" d="M1949.75,-55.08C1949.75,-48.57 1949.75,-39.42 1949.75,-31.12"/>
<polygon fill="#63b8ff" stroke="#63b8ff" points="1953.25,-31.12 1949.75,-21.12 1946.25,-31.12 1953.25,-31.12"/>
</a>
</g>
</g>
<!-- Node32 -->
<g id="Node000032" class="node">
<title>Node32</title>
<g id="a_Node000032"><a xlink:title=" ">
<polygon fill="#e0e0e0" stroke="#999999" points="2034.75,-19.25 1988.75,-19.25 1988.75,0 2034.75,0 2034.75,-19.25"/>
<text text-anchor="middle" x="2011.75" y="-5.75" font-family="Helvetica,sans-Serif" font-size="10.00">TList.h</text>
</a>
</g>
</g>
<!-- Node29&#45;&gt;Node32 -->
<g id="edge35_Node000029_Node000032" class="edge">
<title>Node29&#45;&gt;Node32</title>
<g id="a_edge35_Node000029_Node000032"><a xlink:title=" ">
<path fill="none" stroke="#63b8ff" d="M1960.27,-54.84C1969.14,-47.22 1982.06,-36.12 1992.74,-26.95"/>
<polygon fill="#63b8ff" stroke="#63b8ff" points="1994.93,-29.68 2000.24,-20.51 1990.37,-24.37 1994.93,-29.68"/>
</a>
</g>
</g>
</g>
</svg>
