<?xml version="1.0" encoding="UTF-8" standalone="no"?>
<!DOCTYPE svg PUBLIC "-//W3C//DTD SVG 1.1//EN"
 "http://www.w3.org/Graphics/SVG/1.1/DTD/svg11.dtd">
<!-- Generated by graphviz version 9.0.0 (20230911.1827)
 -->
<!-- Title: GRootCommands.h Pages: 1 -->
<!--zoomable 138 -->

<svg id="main" version="1.1" xmlns="http://www.w3.org/2000/svg" xmlns:xlink="http://www.w3.org/1999/xlink" xml:space="preserve" onload="init(evt)">
<style type="text/css"><![CDATA[
.node, .edge {opacity: 0.7;}
.node.selected, .edge.selected {opacity: 1;}
.edge:hover path { stroke: red; }
.edge:hover polygon { stroke: red; fill: red; }
]]></style>

<defs>
  <circle id="rim" cx="0" cy="0" r="7"/>
  <circle id="rim2" cx="0" cy="0" r="3.5"/>
  <g id="zoomPlus">
    <use xlink:href="#rim" fill="#404040"><set attributeName="fill" to="#808080" begin="zoomplus.mouseover" end="zoomplus.mouseout"/></use>
    <path d="M-4,0h8M0,-4v8" fill="none" stroke="white" stroke-width="1.5" pointer-events="none"/>
  </g>
  <g id="zoomMin">
    <use xlink:href="#rim" fill="#404040"><set attributeName="fill" to="#808080" begin="zoomminus.mouseover" end="zoomminus.mouseout"/></use>
    <path d="M-4,0h8" fill="none" stroke="white" stroke-width="1.5" pointer-events="none"/>
  </g>
  <g id="arrowUp" transform="translate(30 24)">
    <use xlink:href="#rim"/>
    <path pointer-events="none" fill="none" stroke="white" stroke-width="1.5" d="M0,-3.0v7 M-2.5,-0.5L0,-3.0L2.5,-0.5"/>
  </g>
  <g id="arrowRight" transform="rotate(90) translate(36 -43)">
    <use xlink:href="#rim"/>
    <path pointer-events="none" fill="none" stroke="white" stroke-width="1.5" d="M0,-3.0v7 M-2.5,-0.5L0,-3.0L2.5,-0.5"/>
  </g>
  <g id="arrowDown" transform="rotate(180) translate(-30 -48)">
    <use xlink:href="#rim"/>
    <path pointer-events="none" fill="none" stroke="white" stroke-width="1.5" d="M0,-3.0v7 M-2.5,-0.5L0,-3.0L2.5,-0.5"/>
  </g>
  <g id="arrowLeft" transform="rotate(270) translate(-36 17)">
    <use xlink:href="#rim"/>
    <path pointer-events="none" fill="none" stroke="white" stroke-width="1.5" d="M0,-3.0v7 M-2.5,-0.5L0,-3.0L2.5,-0.5"/>
  </g>
  <g id="resetDef">
    <use xlink:href="#rim2" fill="#404040"><set attributeName="fill" to="#808080" begin="reset.mouseover" end="reset.mouseout"/></use>
  </g>
</defs>
<script type="application/ecmascript">
var viewWidth = 1054;
var viewHeight = 138;
var sectionId = 'dynsection-1';
</script>
<script type="application/ecmascript" xlink:href="svg.min.js"/>
<svg id="graph" class="graph">
<g id="viewport">
<title>GRootCommands.h</title>
<!-- Node1 -->
<g id="Node000001" class="node">
<title>Node1</title>
<g id="a_Node000001"><a xlink:title=" ">
<polygon fill="#999999" stroke="#666666" points="486.88,-129.75 386.12,-129.75 386.12,-110.5 486.88,-110.5 486.88,-129.75"/>
<text text-anchor="middle" x="436.5" y="-116.25" font-family="Helvetica,sans-Serif" font-size="10.00">GRootCommands.h</text>
</a>
</g>
</g>
<!-- Node2 -->
<g id="Node000002" class="node">
<title>Node2</title>
<g id="a_Node000002"><a xlink:href="_g_canvas_8cxx.html" target="_top" xlink:title=" ">
<polygon fill="white" stroke="#666666" points="73,-74.5 0,-74.5 0,-55.25 73,-55.25 73,-74.5"/>
<text text-anchor="middle" x="36.5" y="-61" font-family="Helvetica,sans-Serif" font-size="10.00">GCanvas.cxx</text>
</a>
</g>
</g>
<!-- Node1&#45;&gt;Node2 -->
<g id="edge1_Node000001_Node000002" class="edge">
<title>Node1&#45;&gt;Node2</title>
<g id="a_edge1_Node000001_Node000002"><a xlink:title=" ">
<path fill="none" stroke="#63b8ff" d="M374.4,-112.54C303.41,-104.74 183.78,-90.71 81.5,-74.5 78.83,-74.08 76.07,-73.61 73.3,-73.13"/>
<polygon fill="#63b8ff" stroke="#63b8ff" points="373.97,-116.02 384.29,-113.63 374.73,-109.06 373.97,-116.02"/>
</a>
</g>
</g>
<!-- Node3 -->
<g id="Node000003" class="node">
<title>Node3</title>
<g id="a_Node000003"><a xlink:href="_g_notifier_8h.html" target="_top" xlink:title=" ">
<polygon fill="white" stroke="#666666" points="152.38,-74.5 90.62,-74.5 90.62,-55.25 152.38,-55.25 152.38,-74.5"/>
<text text-anchor="middle" x="121.5" y="-61" font-family="Helvetica,sans-Serif" font-size="10.00">GNotifier.h</text>
</a>
</g>
</g>
<!-- Node1&#45;&gt;Node3 -->
<g id="edge2_Node000001_Node000003" class="edge">
<title>Node1&#45;&gt;Node3</title>
<g id="a_edge2_Node000001_Node000003"><a xlink:title=" ">
<path fill="none" stroke="#63b8ff" d="M374.41,-109.33C319.64,-100.57 237.68,-87.2 166.5,-74.5 161.96,-73.69 157.16,-72.8 152.47,-71.92"/>
<polygon fill="#63b8ff" stroke="#63b8ff" points="373.75,-112.76 384.18,-110.88 374.86,-105.85 373.75,-112.76"/>
</a>
</g>
</g>
<!-- Node5 -->
<g id="Node000005" class="node">
<title>Node5</title>
<g id="a_Node000005"><a xlink:href="_g_root_commands_8cxx.html" target="_top" xlink:title=" ">
<polygon fill="white" stroke="#666666" points="235.38,-19.25 125.62,-19.25 125.62,0 235.38,0 235.38,-19.25"/>
<text text-anchor="middle" x="180.5" y="-5.75" font-family="Helvetica,sans-Serif" font-size="10.00">GRootCommands.cxx</text>
</a>
</g>
</g>
<!-- Node1&#45;&gt;Node5 -->
<g id="edge5_Node000001_Node000005" class="edge">
<title>Node1&#45;&gt;Node5</title>
<g id="a_edge5_Node000001_Node000005"><a xlink:title=" ">
<path fill="none" stroke="#63b8ff" d="M374.41,-114.56C313.34,-108.83 225.71,-96.93 200.5,-74.5 184.53,-60.29 181.18,-33.51 180.57,-19.57"/>
<polygon fill="#63b8ff" stroke="#63b8ff" points="374.09,-118.04 384.36,-115.45 374.71,-111.07 374.09,-118.04"/>
</a>
</g>
</g>
<!-- Node6 -->
<g id="Node000006" class="node">
<title>Node6</title>
<g id="a_Node000006"><a xlink:href="_t_analysis_options_8cxx.html" target="_top" xlink:title=" ">
<polygon fill="white" stroke="#666666" points="318,-74.5 209,-74.5 209,-55.25 318,-55.25 318,-74.5"/>
<text text-anchor="middle" x="263.5" y="-61" font-family="Helvetica,sans-Serif" font-size="10.00">TAnalysisOptions.cxx</text>
</a>
</g>
</g>
<!-- Node1&#45;&gt;Node6 -->
<g id="edge6_Node000001_Node000006" class="edge">
<title>Node1&#45;&gt;Node6</title>
<g id="a_edge6_Node000001_Node000006"><a xlink:title=" ">
<path fill="none" stroke="#63b8ff" d="M396.51,-106.82C364.9,-97.09 321.5,-83.73 292.99,-74.95"/>
<polygon fill="#63b8ff" stroke="#63b8ff" points="395.12,-110.05 405.71,-109.65 397.18,-103.36 395.12,-110.05"/>
</a>
</g>
</g>
<!-- Node7 -->
<g id="Node000007" class="node">
<title>Node7</title>
<g id="a_Node000007"><a xlink:href="_t_calibrator_8cxx.html" target="_top" xlink:title=" ">
<polygon fill="white" stroke="#666666" points="415.38,-74.5 335.62,-74.5 335.62,-55.25 415.38,-55.25 415.38,-74.5"/>
<text text-anchor="middle" x="375.5" y="-61" font-family="Helvetica,sans-Serif" font-size="10.00">TCalibrator.cxx</text>
</a>
</g>
</g>
<!-- Node1&#45;&gt;Node7 -->
<g id="edge7_Node000001_Node000007" class="edge">
<title>Node1&#45;&gt;Node7</title>
<g id="a_edge7_Node000001_Node000007"><a xlink:title=" ">
<path fill="none" stroke="#63b8ff" d="M417.61,-102.64C407.08,-93.44 394.38,-82.35 385.69,-74.77"/>
<polygon fill="#63b8ff" stroke="#63b8ff" points="415.18,-105.16 425.01,-109.1 419.78,-99.88 415.18,-105.16"/>
</a>
</g>
</g>
<!-- Node8 -->
<g id="Node000008" class="node">
<title>Node8</title>
<g id="a_Node000008"><a xlink:href="_t_compiled_histograms_8cxx.html" target="_top" xlink:title=" ">
<polygon fill="white" stroke="#666666" points="563.12,-74.5 433.88,-74.5 433.88,-55.25 563.12,-55.25 563.12,-74.5"/>
<text text-anchor="middle" x="498.5" y="-61" font-family="Helvetica,sans-Serif" font-size="10.00">TCompiledHistograms.cxx</text>
</a>
</g>
</g>
<!-- Node1&#45;&gt;Node8 -->
<g id="edge8_Node000001_Node000008" class="edge">
<title>Node1&#45;&gt;Node8</title>
<g id="a_edge8_Node000001_Node000008"><a xlink:title=" ">
<path fill="none" stroke="#63b8ff" d="M455.7,-102.64C466.4,-93.44 479.31,-82.35 488.14,-74.77"/>
<polygon fill="#63b8ff" stroke="#63b8ff" points="453.47,-99.94 448.17,-109.11 458.03,-105.25 453.47,-99.94"/>
</a>
</g>
</g>
<!-- Node9 -->
<g id="Node000009" class="node">
<title>Node9</title>
<g id="a_Node000009"><a xlink:href="_t_fragment_chain_loop_8cxx.html" target="_top" xlink:title=" ">
<polygon fill="white" stroke="#666666" points="707.62,-74.5 581.38,-74.5 581.38,-55.25 707.62,-55.25 707.62,-74.5"/>
<text text-anchor="middle" x="644.5" y="-61" font-family="Helvetica,sans-Serif" font-size="10.00">TFragmentChainLoop.cxx</text>
</a>
</g>
</g>
<!-- Node1&#45;&gt;Node9 -->
<g id="edge9_Node000001_Node000009" class="edge">
<title>Node1&#45;&gt;Node9</title>
<g id="a_edge9_Node000001_Node000009"><a xlink:title=" ">
<path fill="none" stroke="#63b8ff" d="M482.6,-107.32C520.76,-97.55 574.17,-83.88 609.04,-74.95"/>
<polygon fill="#63b8ff" stroke="#63b8ff" points="482.07,-103.85 473.25,-109.72 483.81,-110.63 482.07,-103.85"/>
</a>
</g>
</g>
<!-- Node10 -->
<g id="Node000010" class="node">
<title>Node10</title>
<g id="a_Node000010"><a xlink:href="_t_g_r_s_i_options_8cxx.html" target="_top" xlink:title=" ">
<polygon fill="white" stroke="#666666" points="821.62,-74.5 725.38,-74.5 725.38,-55.25 821.62,-55.25 821.62,-74.5"/>
<text text-anchor="middle" x="773.5" y="-61" font-family="Helvetica,sans-Serif" font-size="10.00">TGRSIOptions.cxx</text>
</a>
</g>
</g>
<!-- Node1&#45;&gt;Node10 -->
<g id="edge10_Node000001_Node000010" class="edge">
<title>Node1&#45;&gt;Node10</title>
<g id="a_edge10_Node000001_Node000010"><a xlink:title=" ">
<path fill="none" stroke="#63b8ff" d="M498.68,-109.3C564,-98.98 665.36,-82.96 725.01,-73.54"/>
<polygon fill="#63b8ff" stroke="#63b8ff" points="498.14,-105.84 488.81,-110.86 499.24,-112.76 498.14,-105.84"/>
</a>
</g>
</g>
<!-- Node11 -->
<g id="Node000011" class="node">
<title>Node11</title>
<g id="a_Node000011"><a xlink:href="_t_g_r_s_iint_8cxx.html" target="_top" xlink:title=" ">
<polygon fill="white" stroke="#666666" points="913,-74.5 840,-74.5 840,-55.25 913,-55.25 913,-74.5"/>
<text text-anchor="middle" x="876.5" y="-61" font-family="Helvetica,sans-Serif" font-size="10.00">TGRSIint.cxx</text>
</a>
</g>
</g>
<!-- Node1&#45;&gt;Node11 -->
<g id="edge11_Node000001_Node000011" class="edge">
<title>Node1&#45;&gt;Node11</title>
<g id="a_edge11_Node000001_Node000011"><a xlink:title=" ">
<path fill="none" stroke="#63b8ff" d="M498.37,-113.52C576.12,-106.15 713.54,-92.06 830.5,-74.5 833.47,-74.05 836.55,-73.56 839.63,-73.03"/>
<polygon fill="#63b8ff" stroke="#63b8ff" points="498.48,-109.99 488.85,-114.41 499.14,-116.96 498.48,-109.99"/>
</a>
</g>
</g>
<!-- Node12 -->
<g id="Node000012" class="node">
<title>Node12</title>
<g id="a_Node000012"><a xlink:href="_t_source_calibration_8cxx.html" target="_top" xlink:title=" ">
<polygon fill="white" stroke="#666666" points="1046,-74.5 931,-74.5 931,-55.25 1046,-55.25 1046,-74.5"/>
<text text-anchor="middle" x="988.5" y="-61" font-family="Helvetica,sans-Serif" font-size="10.00">TSourceCalibration.cxx</text>
</a>
</g>
</g>
<!-- Node1&#45;&gt;Node12 -->
<g id="edge12_Node000001_Node000012" class="edge">
<title>Node1&#45;&gt;Node12</title>
<g id="a_edge12_Node000001_Node000012"><a xlink:title=" ">
<path fill="none" stroke="#63b8ff" d="M498.67,-114.18C591.18,-106.66 770.48,-91.41 922.5,-74.5 925.14,-74.21 927.84,-73.9 930.57,-73.57"/>
<polygon fill="#63b8ff" stroke="#63b8ff" points="498.48,-110.69 488.8,-114.98 499.05,-117.67 498.48,-110.69"/>
</a>
</g>
</g>
<!-- Node4 -->
<g id="Node000004" class="node">
<title>Node4</title>
<g id="a_Node000004"><a xlink:href="_g_notifier_8cxx.html" target="_top" xlink:title=" ">
<polygon fill="white" stroke="#666666" points="107.88,-19.25 37.12,-19.25 37.12,0 107.88,0 107.88,-19.25"/>
<text text-anchor="middle" x="72.5" y="-5.75" font-family="Helvetica,sans-Serif" font-size="10.00">GNotifier.cxx</text>
</a>
</g>
</g>
<!-- Node3&#45;&gt;Node4 -->
<g id="edge3_Node000003_Node000004" class="edge">
<title>Node3&#45;&gt;Node4</title>
<g id="a_edge3_Node000003_Node000004"><a xlink:title=" ">
<path fill="none" stroke="#63b8ff" d="M105.78,-46.79C97.46,-37.75 87.59,-27.02 80.77,-19.61"/>
<polygon fill="#63b8ff" stroke="#63b8ff" points="103.04,-48.98 112.38,-53.97 108.19,-44.24 103.04,-48.98"/>
</a>
</g>
</g>
<!-- Node3&#45;&gt;Node5 -->
<g id="edge4_Node000003_Node000005" class="edge">
<title>Node3&#45;&gt;Node5</title>
<g id="a_edge4_Node000003_Node000005"><a xlink:title=" ">
<path fill="none" stroke="#63b8ff" d="M139.77,-47.39C149.96,-38.19 162.24,-27.1 170.64,-19.52"/>
<polygon fill="#63b8ff" stroke="#63b8ff" points="137.71,-44.53 132.63,-53.83 142.4,-49.73 137.71,-44.53"/>
</a>
</g>
</g>
</g>
</svg>

<g id="navigator" transform="translate(0 0)" fill="#404254">
  <rect fill="#f2f5e9" fill-opacity="0.5" stroke="#606060" stroke-width=".5" x="0" y="0" width="60" height="60"/>
  <use id="zoomplus" xlink:href="#zoomPlus" x="17" y="9" onmousedown="handleZoom(evt,'in')"/>
  <use id="zoomminus" xlink:href="#zoomMin" x="42" y="9" onmousedown="handleZoom(evt,'out')"/>
  <use id="reset" xlink:href="#resetDef" x="30" y="36" onmousedown="handleReset()"/>
   <use id="arrowup" xlink:href="#arrowUp" x="0" y="0" onmousedown="handlePan(0,-1)"/>
  <use id="arrowright" xlink:href="#arrowRight" x="0" y="0" onmousedown="handlePan(1,0)"/>
  <use id="arrowdown" xlink:href="#arrowDown" x="0" y="0" onmousedown="handlePan(0,1)"/>
  <use id="arrowleft" xlink:href="#arrowLeft" x="0" y="0" onmousedown="handlePan(-1,0)"/>
</g>
<svg viewBox="0 0 15 15" width="100%" height="30px" preserveAspectRatio="xMaxYMin meet">
 <g id="arrow_out" transform="scale(0.3 0.3)">
  <a xlink:href="_g_root_commands_8h__dep__incl_org.svg" target="_base">
   <rect id="button" ry="5" rx="5" y="6" x="6" height="38" width="38"
        fill="#f2f5e9" fill-opacity="0.5" stroke="#606060" stroke-width="1.0"/>
   <path id="arrow"
     d="M 11.500037,31.436501 C 11.940474,20.09759 22.043105,11.32322 32.158766,21.979434 L 37.068811,17.246167 C 37.068811,17.246167 37.088388,32 37.088388,32 L 22.160133,31.978069 C 22.160133,31.978069 26.997745,27.140456 26.997745,27.140456 C 18.528582,18.264221 13.291696,25.230495 11.500037,31.436501 z"
     style="fill:#404040;"/>
  </a>
 </g>
</svg>

<style type='text/css'>
<![CDATA[
[data-mouse-over-selected='false'] { opacity: 0.7; }
[data-mouse-over-selected='true']  { opacity: 1.0; }
]]>
</style>
<script type="application/ecmascript"><![CDATA[
document.addEventListener('DOMContentLoaded', (event) => {
  highlightEdges();
  highlightAdjacentNodes();
});
]]></script>
</svg>
