<?xml version="1.0" encoding="UTF-8" standalone="no"?>
<!DOCTYPE svg PUBLIC "-//W3C//DTD SVG 1.1//EN"
 "http://www.w3.org/Graphics/SVG/1.1/DTD/svg11.dtd">
<!-- Generated by graphviz version 9.0.0 (20230911.1827)
 -->
<!-- Title: GValue.cxx Pages: 1 -->
<!--zoomable 193 -->

<svg id="main" version="1.1" xmlns="http://www.w3.org/2000/svg" xmlns:xlink="http://www.w3.org/1999/xlink" xml:space="preserve" onload="init(evt)">
<style type="text/css"><![CDATA[
.node, .edge {opacity: 0.7;}
.node.selected, .edge.selected {opacity: 1;}
.edge:hover path { stroke: red; }
.edge:hover polygon { stroke: red; fill: red; }
]]></style>

<defs>
  <circle id="rim" cx="0" cy="0" r="7"/>
  <circle id="rim2" cx="0" cy="0" r="3.5"/>
  <g id="zoomPlus">
    <use xlink:href="#rim" fill="#404040"><set attributeName="fill" to="#808080" begin="zoomplus.mouseover" end="zoomplus.mouseout"/></use>
    <path d="M-4,0h8M0,-4v8" fill="none" stroke="white" stroke-width="1.5" pointer-events="none"/>
  </g>
  <g id="zoomMin">
    <use xlink:href="#rim" fill="#404040"><set attributeName="fill" to="#808080" begin="zoomminus.mouseover" end="zoomminus.mouseout"/></use>
    <path d="M-4,0h8" fill="none" stroke="white" stroke-width="1.5" pointer-events="none"/>
  </g>
  <g id="arrowUp" transform="translate(30 24)">
    <use xlink:href="#rim"/>
    <path pointer-events="none" fill="none" stroke="white" stroke-width="1.5" d="M0,-3.0v7 M-2.5,-0.5L0,-3.0L2.5,-0.5"/>
  </g>
  <g id="arrowRight" transform="rotate(90) translate(36 -43)">
    <use xlink:href="#rim"/>
    <path pointer-events="none" fill="none" stroke="white" stroke-width="1.5" d="M0,-3.0v7 M-2.5,-0.5L0,-3.0L2.5,-0.5"/>
  </g>
  <g id="arrowDown" transform="rotate(180) translate(-30 -48)">
    <use xlink:href="#rim"/>
    <path pointer-events="none" fill="none" stroke="white" stroke-width="1.5" d="M0,-3.0v7 M-2.5,-0.5L0,-3.0L2.5,-0.5"/>
  </g>
  <g id="arrowLeft" transform="rotate(270) translate(-36 17)">
    <use xlink:href="#rim"/>
    <path pointer-events="none" fill="none" stroke="white" stroke-width="1.5" d="M0,-3.0v7 M-2.5,-0.5L0,-3.0L2.5,-0.5"/>
  </g>
  <g id="resetDef">
    <use xlink:href="#rim2" fill="#404040"><set attributeName="fill" to="#808080" begin="reset.mouseover" end="reset.mouseout"/></use>
  </g>
</defs>
<script type="application/ecmascript">
var viewWidth = 662;
var viewHeight = 193;
var sectionId = 'dynsection-0';
</script>
<script type="application/ecmascript" xlink:href="svg.min.js"/>
<svg id="graph" class="graph">
<g id="viewport">
<title>GValue.cxx</title>
<!-- Node1 -->
<g id="Node000001" class="node">
<title>Node1</title>
<g id="a_Node000001"><a xlink:title=" ">
<polygon fill="#999999" stroke="#666666" points="370.38,-185 305.62,-185 305.62,-165.75 370.38,-165.75 370.38,-185"/>
<text text-anchor="middle" x="338" y="-171.5" font-family="Helvetica,sans-Serif" font-size="10.00">GValue.cxx</text>
</a>
</g>
</g>
<!-- Node2 -->
<g id="Node000002" class="node">
<title>Node2</title>
<g id="a_Node000002"><a xlink:href="_g_value_8h.html" target="_top" xlink:title=" ">
<polygon fill="white" stroke="#666666" points="365.88,-129.75 310.12,-129.75 310.12,-110.5 365.88,-110.5 365.88,-129.75"/>
<text text-anchor="middle" x="338" y="-116.25" font-family="Helvetica,sans-Serif" font-size="10.00">GValue.h</text>
</a>
</g>
</g>
<!-- Node1&#45;&gt;Node2 -->
<g id="edge1_Node000001_Node000002" class="edge">
<title>Node1&#45;&gt;Node2</title>
<g id="a_edge1_Node000001_Node000002"><a xlink:title=" ">
<path fill="none" stroke="#63b8ff" d="M338,-165.58C338,-159.07 338,-149.92 338,-141.62"/>
<polygon fill="#63b8ff" stroke="#63b8ff" points="341.5,-141.62 338,-131.62 334.5,-141.62 341.5,-141.62"/>
</a>
</g>
</g>
<!-- Node4 -->
<g id="Node000004" class="node">
<title>Node4</title>
<g id="a_Node000004"><a xlink:title=" ">
<polygon fill="#e0e0e0" stroke="#999999" points="310.25,-74.5 271.75,-74.5 271.75,-55.25 310.25,-55.25 310.25,-74.5"/>
<text text-anchor="middle" x="291" y="-61" font-family="Helvetica,sans-Serif" font-size="10.00">utility</text>
</a>
</g>
</g>
<!-- Node1&#45;&gt;Node4 -->
<g id="edge10_Node000001_Node000004" class="edge">
<title>Node1&#45;&gt;Node4</title>
<g id="a_edge10_Node000001_Node000004"><a xlink:title=" ">
<path fill="none" stroke="#63b8ff" d="M328.09,-165.5C319.47,-157.16 307.37,-143.88 301,-129.75 294.84,-116.09 292.38,-99.31 291.45,-86.37"/>
<polygon fill="#63b8ff" stroke="#63b8ff" points="294.95,-86.32 291,-76.49 287.95,-86.64 294.95,-86.32"/>
</a>
</g>
</g>
<!-- Node7 -->
<g id="Node000007" class="node">
<title>Node7</title>
<g id="a_Node000007"><a xlink:title=" ">
<polygon fill="#e0e0e0" stroke="#999999" points="438.5,-129.75 383.5,-129.75 383.5,-110.5 438.5,-110.5 438.5,-129.75"/>
<text text-anchor="middle" x="411" y="-116.25" font-family="Helvetica,sans-Serif" font-size="10.00">TBuffer.h</text>
</a>
</g>
</g>
<!-- Node1&#45;&gt;Node7 -->
<g id="edge6_Node000001_Node000007" class="edge">
<title>Node1&#45;&gt;Node7</title>
<g id="a_edge6_Node000001_Node000007"><a xlink:title=" ">
<path fill="none" stroke="#63b8ff" d="M350.38,-165.34C361.15,-157.49 376.97,-145.95 389.75,-136.62"/>
<polygon fill="#63b8ff" stroke="#63b8ff" points="391.56,-139.64 397.58,-130.92 387.44,-133.98 391.56,-139.64"/>
</a>
</g>
</g>
<!-- Node8 -->
<g id="Node000008" class="node">
<title>Node8</title>
<g id="a_Node000008"><a xlink:title=" ">
<polygon fill="#e0e0e0" stroke="#999999" points="509.75,-129.75 456.25,-129.75 456.25,-110.5 509.75,-110.5 509.75,-129.75"/>
<text text-anchor="middle" x="483" y="-116.25" font-family="Helvetica,sans-Serif" font-size="10.00">iostream</text>
</a>
</g>
</g>
<!-- Node1&#45;&gt;Node8 -->
<g id="edge7_Node000001_Node000008" class="edge">
<title>Node1&#45;&gt;Node8</title>
<g id="a_edge7_Node000001_Node000008"><a xlink:title=" ">
<path fill="none" stroke="#63b8ff" d="M362.6,-165.34C385.93,-156.77 421.24,-143.81 447.6,-134.13"/>
<polygon fill="#63b8ff" stroke="#63b8ff" points="448.68,-137.46 456.86,-130.72 446.27,-130.89 448.68,-137.46"/>
</a>
</g>
</g>
<!-- Node9 -->
<g id="Node000009" class="node">
<title>Node9</title>
<g id="a_Node000009"><a xlink:title=" ">
<polygon fill="#e0e0e0" stroke="#999999" points="186.5,-74.5 143.5,-74.5 143.5,-55.25 186.5,-55.25 186.5,-74.5"/>
<text text-anchor="middle" x="165" y="-61" font-family="Helvetica,sans-Serif" font-size="10.00">vector</text>
</a>
</g>
</g>
<!-- Node1&#45;&gt;Node9 -->
<g id="edge8_Node000001_Node000009" class="edge">
<title>Node1&#45;&gt;Node9</title>
<g id="a_edge8_Node000001_Node000009"><a xlink:title=" ">
<path fill="none" stroke="#63b8ff" d="M323.55,-165.31C293.71,-146.6 225.04,-103.53 188.64,-80.7"/>
<polygon fill="#63b8ff" stroke="#63b8ff" points="190.9,-77.99 180.57,-75.64 187.18,-83.92 190.9,-77.99"/>
</a>
</g>
</g>
<!-- Node10 -->
<g id="Node000010" class="node">
<title>Node10</title>
<g id="a_Node000010"><a xlink:title=" ">
<polygon fill="#e0e0e0" stroke="#999999" points="583.88,-129.75 528.12,-129.75 528.12,-110.5 583.88,-110.5 583.88,-129.75"/>
<text text-anchor="middle" x="556" y="-116.25" font-family="Helvetica,sans-Serif" font-size="10.00">algorithm</text>
</a>
</g>
</g>
<!-- Node1&#45;&gt;Node10 -->
<g id="edge9_Node000001_Node000010" class="edge">
<title>Node1&#45;&gt;Node10</title>
<g id="a_edge9_Node000001_Node000010"><a xlink:title=" ">
<path fill="none" stroke="#63b8ff" d="M370.64,-166.4C409.61,-156.88 474.77,-140.97 516.54,-130.76"/>
<polygon fill="#63b8ff" stroke="#63b8ff" points="517.3,-134.18 526.19,-128.41 515.64,-127.38 517.3,-134.18"/>
</a>
</g>
</g>
<!-- Node11 -->
<g id="Node000011" class="node">
<title>Node11</title>
<g id="a_Node000011"><a xlink:title=" ">
<polygon fill="#e0e0e0" stroke="#999999" points="253.5,-74.5 204.5,-74.5 204.5,-55.25 253.5,-55.25 253.5,-74.5"/>
<text text-anchor="middle" x="229" y="-61" font-family="Helvetica,sans-Serif" font-size="10.00">fstream</text>
</a>
</g>
</g>
<!-- Node1&#45;&gt;Node11 -->
<g id="edge11_Node000001_Node000011" class="edge">
<title>Node1&#45;&gt;Node11</title>
<g id="a_edge11_Node000001_Node000011"><a xlink:title=" ">
<path fill="none" stroke="#63b8ff" d="M328.17,-165.26C318.58,-156.32 303.64,-142.25 291,-129.75 275.11,-114.03 257.38,-95.69 244.97,-82.7"/>
<polygon fill="#63b8ff" stroke="#63b8ff" points="247.79,-80.58 238.36,-75.76 242.72,-85.41 247.79,-80.58"/>
</a>
</g>
</g>
<!-- Node12 -->
<g id="Node000012" class="node">
<title>Node12</title>
<g id="a_Node000012"><a xlink:title=" ">
<polygon fill="#e0e0e0" stroke="#999999" points="653.62,-129.75 602.38,-129.75 602.38,-110.5 653.62,-110.5 653.62,-129.75"/>
<text text-anchor="middle" x="628" y="-116.25" font-family="Helvetica,sans-Serif" font-size="10.00">sstream</text>
</a>
</g>
</g>
<!-- Node1&#45;&gt;Node12 -->
<g id="edge12_Node000001_Node000012" class="edge">
<title>Node1&#45;&gt;Node12</title>
<g id="a_edge12_Node000001_Node000012"><a xlink:title=" ">
<path fill="none" stroke="#63b8ff" d="M370.74,-169.38C417.36,-162.11 505.78,-147.73 590.88,-130.07"/>
<polygon fill="#63b8ff" stroke="#63b8ff" points="591.5,-133.52 600.57,-128.04 590.06,-126.67 591.5,-133.52"/>
</a>
</g>
</g>
<!-- Node13 -->
<g id="Node000013" class="node">
<title>Node13</title>
<g id="a_Node000013"><a xlink:href="_t_g_r_s_i_utilities_8h.html" target="_top" xlink:title=" ">
<polygon fill="white" stroke="#666666" points="178.25,-129.75 91.75,-129.75 91.75,-110.5 178.25,-110.5 178.25,-129.75"/>
<text text-anchor="middle" x="135" y="-116.25" font-family="Helvetica,sans-Serif" font-size="10.00">TGRSIUtilities.h</text>
</a>
</g>
</g>
<!-- Node1&#45;&gt;Node13 -->
<g id="edge13_Node000001_Node000013" class="edge">
<title>Node1&#45;&gt;Node13</title>
<g id="a_edge13_Node000001_Node000013"><a xlink:title=" ">
<path fill="none" stroke="#63b8ff" d="M305.38,-165.82C271.52,-156.94 218.28,-142.97 180.33,-133.02"/>
<polygon fill="#63b8ff" stroke="#63b8ff" points="181.6,-129.73 171.04,-130.58 179.82,-136.5 181.6,-129.73"/>
</a>
</g>
</g>
<!-- Node3 -->
<g id="Node000003" class="node">
<title>Node3</title>
<g id="a_Node000003"><a xlink:title=" ">
<polygon fill="#e0e0e0" stroke="#999999" points="260.38,-19.25 225.62,-19.25 225.62,0 260.38,0 260.38,-19.25"/>
<text text-anchor="middle" x="243" y="-5.75" font-family="Helvetica,sans-Serif" font-size="10.00">map</text>
</a>
</g>
</g>
<!-- Node2&#45;&gt;Node3 -->
<g id="edge2_Node000002_Node000003" class="edge">
<title>Node2&#45;&gt;Node3</title>
<g id="a_edge2_Node000002_Node000003"><a xlink:title=" ">
<path fill="none" stroke="#63b8ff" d="M337.41,-110.35C336.11,-97.12 331.98,-71.83 319,-55.25 306.73,-39.59 287.33,-28.33 271.2,-21.03"/>
<polygon fill="#63b8ff" stroke="#63b8ff" points="272.65,-17.85 262.07,-17.2 269.94,-24.3 272.65,-17.85"/>
</a>
</g>
</g>
<!-- Node2&#45;&gt;Node4 -->
<g id="edge3_Node000002_Node000004" class="edge">
<title>Node2&#45;&gt;Node4</title>
<g id="a_edge3_Node000002_Node000004"><a xlink:title=" ">
<path fill="none" stroke="#63b8ff" d="M330.24,-110.33C323.81,-103.05 314.49,-92.48 306.54,-83.48"/>
<polygon fill="#63b8ff" stroke="#63b8ff" points="309.17,-81.18 299.93,-75.99 303.92,-85.81 309.17,-81.18"/>
</a>
</g>
</g>
<!-- Node5 -->
<g id="Node000005" class="node">
<title>Node5</title>
<g id="a_Node000005"><a xlink:title=" ">
<polygon fill="#e0e0e0" stroke="#999999" points="412,-74.5 366,-74.5 366,-55.25 412,-55.25 412,-74.5"/>
<text text-anchor="middle" x="389" y="-61" font-family="Helvetica,sans-Serif" font-size="10.00">TList.h</text>
</a>
</g>
</g>
<!-- Node2&#45;&gt;Node5 -->
<g id="edge4_Node000002_Node000005" class="edge">
<title>Node2&#45;&gt;Node5</title>
<g id="a_edge4_Node000002_Node000005"><a xlink:title=" ">
<path fill="none" stroke="#63b8ff" d="M346.42,-110.33C353.54,-102.9 363.94,-92.04 372.69,-82.91"/>
<polygon fill="#63b8ff" stroke="#63b8ff" points="374.96,-85.6 379.35,-75.95 369.9,-80.75 374.96,-85.6"/>
</a>
</g>
</g>
<!-- Node6 -->
<g id="Node000006" class="node">
<title>Node6</title>
<g id="a_Node000006"><a xlink:title=" ">
<polygon fill="#e0e0e0" stroke="#999999" points="491.5,-74.5 430.5,-74.5 430.5,-55.25 491.5,-55.25 491.5,-74.5"/>
<text text-anchor="middle" x="461" y="-61" font-family="Helvetica,sans-Serif" font-size="10.00">TNamed.h</text>
</a>
</g>
</g>
<!-- Node2&#45;&gt;Node6 -->
<g id="edge5_Node000002_Node000006" class="edge">
<title>Node2&#45;&gt;Node6</title>
<g id="a_edge5_Node000002_Node000006"><a xlink:title=" ">
<path fill="none" stroke="#63b8ff" d="M358.87,-110.09C378.3,-101.68 407.54,-89.02 429.76,-79.4"/>
<polygon fill="#63b8ff" stroke="#63b8ff" points="430.86,-82.74 438.64,-75.55 428.08,-76.31 430.86,-82.74"/>
</a>
</g>
</g>
<!-- Node13&#45;&gt;Node9 -->
<g id="edge16_Node000013_Node000009" class="edge">
<title>Node13&#45;&gt;Node9</title>
<g id="a_edge16_Node000013_Node000009"><a xlink:title=" ">
<path fill="none" stroke="#63b8ff" d="M139.95,-110.33C143.88,-103.36 149.51,-93.37 154.44,-84.62"/>
<polygon fill="#63b8ff" stroke="#63b8ff" points="157.34,-86.61 159.2,-76.18 151.24,-83.17 157.34,-86.61"/>
</a>
</g>
</g>
<!-- Node13&#45;&gt;Node11 -->
<g id="edge14_Node000013_Node000011" class="edge">
<title>Node13&#45;&gt;Node11</title>
<g id="a_edge14_Node000013_Node000011"><a xlink:title=" ">
<path fill="none" stroke="#63b8ff" d="M150.95,-110.09C165.26,-101.98 186.53,-89.93 203.25,-80.46"/>
<polygon fill="#63b8ff" stroke="#63b8ff" points="204.68,-83.67 211.66,-75.7 201.23,-77.58 204.68,-83.67"/>
</a>
</g>
</g>
<!-- Node14 -->
<g id="Node000014" class="node">
<title>Node14</title>
<g id="a_Node000014"><a xlink:title=" ">
<polygon fill="#e0e0e0" stroke="#999999" points="40,-19.25 0,-19.25 0,0 40,0 40,-19.25"/>
<text text-anchor="middle" x="20" y="-5.75" font-family="Helvetica,sans-Serif" font-size="10.00">string</text>
</a>
</g>
</g>
<!-- Node13&#45;&gt;Node14 -->
<g id="edge15_Node000013_Node000014" class="edge">
<title>Node13&#45;&gt;Node14</title>
<g id="a_edge15_Node000013_Node000014"><a xlink:title=" ">
<path fill="none" stroke="#63b8ff" d="M96.13,-110.05C75.81,-103.4 52.09,-92.35 37,-74.5 26.68,-62.29 22.55,-44.45 20.94,-30.72"/>
<polygon fill="#63b8ff" stroke="#63b8ff" points="24.46,-30.76 20.18,-21.06 17.48,-31.31 24.46,-30.76"/>
</a>
</g>
</g>
<!-- Node15 -->
<g id="Node000015" class="node">
<title>Node15</title>
<g id="a_Node000015"><a xlink:href="_t_g_r_s_i_types_8h.html" target="_top" xlink:title=" ">
<polygon fill="white" stroke="#666666" points="125.88,-74.5 46.12,-74.5 46.12,-55.25 125.88,-55.25 125.88,-74.5"/>
<text text-anchor="middle" x="86" y="-61" font-family="Helvetica,sans-Serif" font-size="10.00">TGRSITypes.h</text>
</a>
</g>
</g>
<!-- Node13&#45;&gt;Node15 -->
<g id="edge17_Node000013_Node000015" class="edge">
<title>Node13&#45;&gt;Node15</title>
<g id="a_edge17_Node000013_Node000015"><a xlink:title=" ">
<path fill="none" stroke="#63b8ff" d="M126.91,-110.33C120.14,-102.98 110.28,-92.26 101.94,-83.19"/>
<polygon fill="#63b8ff" stroke="#63b8ff" points="104.64,-80.96 95.29,-75.97 99.49,-85.7 104.64,-80.96"/>
</a>
</g>
</g>
<!-- Node15&#45;&gt;Node3 -->
<g id="edge18_Node000015_Node000003" class="edge">
<title>Node15&#45;&gt;Node3</title>
<g id="a_edge18_Node000015_Node000003"><a xlink:title=" ">
<path fill="none" stroke="#63b8ff" d="M112.63,-54.84C141.05,-45.2 185.9,-29.99 214.88,-20.16"/>
<polygon fill="#63b8ff" stroke="#63b8ff" points="215.72,-23.57 224.07,-17.05 213.48,-16.94 215.72,-23.57"/>
</a>
</g>
</g>
<!-- Node15&#45;&gt;Node14 -->
<g id="edge19_Node000015_Node000014" class="edge">
<title>Node15&#45;&gt;Node14</title>
<g id="a_edge19_Node000015_Node000014"><a xlink:title=" ">
<path fill="none" stroke="#63b8ff" d="M74.8,-54.84C65.26,-47.15 51.33,-35.9 39.89,-26.68"/>
<polygon fill="#63b8ff" stroke="#63b8ff" points="42.19,-24.03 32.21,-20.48 37.79,-29.48 42.19,-24.03"/>
</a>
</g>
</g>
<!-- Node16 -->
<g id="Node000016" class="node">
<title>Node16</title>
<g id="a_Node000016"><a xlink:title=" ">
<polygon fill="#e0e0e0" stroke="#999999" points="112.75,-19.25 59.25,-19.25 59.25,0 112.75,0 112.75,-19.25"/>
<text text-anchor="middle" x="86" y="-5.75" font-family="Helvetica,sans-Serif" font-size="10.00">Rtypes.h</text>
</a>
</g>
</g>
<!-- Node15&#45;&gt;Node16 -->
<g id="edge20_Node000015_Node000016" class="edge">
<title>Node15&#45;&gt;Node16</title>
<g id="a_edge20_Node000015_Node000016"><a xlink:title=" ">
<path fill="none" stroke="#63b8ff" d="M86,-55.08C86,-48.57 86,-39.42 86,-31.12"/>
<polygon fill="#63b8ff" stroke="#63b8ff" points="89.5,-31.12 86,-21.12 82.5,-31.12 89.5,-31.12"/>
</a>
</g>
</g>
</g>
</svg>

<g id="navigator" transform="translate(0 0)" fill="#404254">
  <rect fill="#f2f5e9" fill-opacity="0.5" stroke="#606060" stroke-width=".5" x="0" y="0" width="60" height="60"/>
  <use id="zoomplus" xlink:href="#zoomPlus" x="17" y="9" onmousedown="handleZoom(evt,'in')"/>
  <use id="zoomminus" xlink:href="#zoomMin" x="42" y="9" onmousedown="handleZoom(evt,'out')"/>
  <use id="reset" xlink:href="#resetDef" x="30" y="36" onmousedown="handleReset()"/>
   <use id="arrowup" xlink:href="#arrowUp" x="0" y="0" onmousedown="handlePan(0,-1)"/>
  <use id="arrowright" xlink:href="#arrowRight" x="0" y="0" onmousedown="handlePan(1,0)"/>
  <use id="arrowdown" xlink:href="#arrowDown" x="0" y="0" onmousedown="handlePan(0,1)"/>
  <use id="arrowleft" xlink:href="#arrowLeft" x="0" y="0" onmousedown="handlePan(-1,0)"/>
</g>
<svg viewBox="0 0 15 15" width="100%" height="30px" preserveAspectRatio="xMaxYMin meet">
 <g id="arrow_out" transform="scale(0.3 0.3)">
  <a xlink:href="_g_value_8cxx__incl_org.svg" target="_base">
   <rect id="button" ry="5" rx="5" y="6" x="6" height="38" width="38"
        fill="#f2f5e9" fill-opacity="0.5" stroke="#606060" stroke-width="1.0"/>
   <path id="arrow"
     d="M 11.500037,31.436501 C 11.940474,20.09759 22.043105,11.32322 32.158766,21.979434 L 37.068811,17.246167 C 37.068811,17.246167 37.088388,32 37.088388,32 L 22.160133,31.978069 C 22.160133,31.978069 26.997745,27.140456 26.997745,27.140456 C 18.528582,18.264221 13.291696,25.230495 11.500037,31.436501 z"
     style="fill:#404040;"/>
  </a>
 </g>
</svg>

<style type='text/css'>
<![CDATA[
[data-mouse-over-selected='false'] { opacity: 0.7; }
[data-mouse-over-selected='true']  { opacity: 1.0; }
]]>
</style>
<script type="application/ecmascript"><![CDATA[
document.addEventListener('DOMContentLoaded', (event) => {
  highlightEdges();
  highlightAdjacentNodes();
});
]]></script>
</svg>
