<?xml version="1.0" encoding="UTF-8" standalone="no"?>
<!DOCTYPE svg PUBLIC "-//W3C//DTD SVG 1.1//EN"
 "http://www.w3.org/Graphics/SVG/1.1/DTD/svg11.dtd">
<!-- Generated by graphviz version 9.0.0 (20230911.1827)
 -->
<!-- Title: TABPeak.cxx Pages: 1 -->
<svg width="1204pt" height="359pt"
 viewBox="0.00 0.00 1203.75 358.75" xmlns="http://www.w3.org/2000/svg" xmlns:xlink="http://www.w3.org/1999/xlink">
<g id="graph0" class="graph" transform="scale(1 1) rotate(0) translate(4 354.75)">
<title>TABPeak.cxx</title>
<!-- Node1 -->
<g id="Node000001" class="node">
<title>Node1</title>
<g id="a_Node000001"><a xlink:title=" ">
<polygon fill="#999999" stroke="#666666" points="663.25,-350.75 588.75,-350.75 588.75,-331.5 663.25,-331.5 663.25,-350.75"/>
<text text-anchor="middle" x="626" y="-337.25" font-family="Helvetica,sans-Serif" font-size="10.00">TABPeak.cxx</text>
</a>
</g>
</g>
<!-- Node2 -->
<g id="Node000002" class="node">
<title>Node2</title>
<g id="a_Node000002"><a xlink:href="_t_a_b_peak_8h.html" target="_top" xlink:title=" ">
<polygon fill="white" stroke="#666666" points="622.75,-295.5 557.25,-295.5 557.25,-276.25 622.75,-276.25 622.75,-295.5"/>
<text text-anchor="middle" x="590" y="-282" font-family="Helvetica,sans-Serif" font-size="10.00">TABPeak.h</text>
</a>
</g>
</g>
<!-- Node1&#45;&gt;Node2 -->
<g id="edge1_Node000001_Node000002" class="edge">
<title>Node1&#45;&gt;Node2</title>
<g id="a_edge1_Node000001_Node000002"><a xlink:title=" ">
<path fill="none" stroke="#63b8ff" d="M620.06,-331.33C615.29,-324.28 608.44,-314.15 602.48,-305.33"/>
<polygon fill="#63b8ff" stroke="#63b8ff" points="605.42,-303.44 596.92,-297.11 599.62,-307.36 605.42,-303.44"/>
</a>
</g>
</g>
<!-- Node39 -->
<g id="Node000039" class="node">
<title>Node39</title>
<g id="a_Node000039"><a xlink:title=" ">
<polygon fill="#e0e0e0" stroke="#999999" points="683.12,-295.5 640.88,-295.5 640.88,-276.25 683.12,-276.25 683.12,-295.5"/>
<text text-anchor="middle" x="662" y="-282" font-family="Helvetica,sans-Serif" font-size="10.00">TH1.h</text>
</a>
</g>
</g>
<!-- Node1&#45;&gt;Node39 -->
<g id="edge60_Node000001_Node000039" class="edge">
<title>Node1&#45;&gt;Node39</title>
<g id="a_edge60_Node000001_Node000039"><a xlink:title=" ">
<path fill="none" stroke="#63b8ff" d="M631.94,-331.33C636.71,-324.28 643.56,-314.15 649.52,-305.33"/>
<polygon fill="#63b8ff" stroke="#63b8ff" points="652.38,-307.36 655.08,-297.11 646.58,-303.44 652.38,-307.36"/>
</a>
</g>
</g>
<!-- Node3 -->
<g id="Node000003" class="node">
<title>Node3</title>
<g id="a_Node000003"><a xlink:title=" ">
<polygon fill="#e0e0e0" stroke="#999999" points="40,-19.25 0,-19.25 0,0 40,0 40,-19.25"/>
<text text-anchor="middle" x="20" y="-5.75" font-family="Helvetica,sans-Serif" font-size="10.00">string</text>
</a>
</g>
</g>
<!-- Node2&#45;&gt;Node3 -->
<g id="edge2_Node000002_Node000003" class="edge">
<title>Node2&#45;&gt;Node3</title>
<g id="a_edge2_Node000002_Node000003"><a xlink:title=" ">
<path fill="none" stroke="#63b8ff" d="M557.07,-285.38C439.03,-286.32 44,-281.6 44,-176.38 44,-176.38 44,-176.38 44,-119.12 44,-87.37 34.08,-51.59 26.99,-30.09"/>
<polygon fill="#63b8ff" stroke="#63b8ff" points="30.4,-29.23 23.83,-20.91 23.78,-31.51 30.4,-29.23"/>
</a>
</g>
</g>
<!-- Node4 -->
<g id="Node000004" class="node">
<title>Node4</title>
<g id="a_Node000004"><a xlink:title=" ">
<polygon fill="#e0e0e0" stroke="#999999" points="311.88,-129.75 256.12,-129.75 256.12,-110.5 311.88,-110.5 311.88,-129.75"/>
<text text-anchor="middle" x="284" y="-116.25" font-family="Helvetica,sans-Serif" font-size="10.00">algorithm</text>
</a>
</g>
</g>
<!-- Node2&#45;&gt;Node4 -->
<g id="edge3_Node000002_Node000004" class="edge">
<title>Node2&#45;&gt;Node4</title>
<g id="a_edge3_Node000002_Node000004"><a xlink:title=" ">
<path fill="none" stroke="#63b8ff" d="M556.75,-280.38C477.52,-268.93 281.31,-235.9 243,-185 231.21,-169.33 246.98,-150.3 262.25,-137.11"/>
<polygon fill="#63b8ff" stroke="#63b8ff" points="264.2,-140.03 269.79,-131.03 259.81,-134.58 264.2,-140.03"/>
</a>
</g>
</g>
<!-- Node5 -->
<g id="Node000005" class="node">
<title>Node5</title>
<g id="a_Node000005"><a xlink:title=" ">
<polygon fill="#e0e0e0" stroke="#999999" points="713.5,-129.75 670.5,-129.75 670.5,-110.5 713.5,-110.5 713.5,-129.75"/>
<text text-anchor="middle" x="692" y="-116.25" font-family="Helvetica,sans-Serif" font-size="10.00">vector</text>
</a>
</g>
</g>
<!-- Node2&#45;&gt;Node5 -->
<g id="edge4_Node000002_Node000005" class="edge">
<title>Node2&#45;&gt;Node5</title>
<g id="a_edge4_Node000002_Node000005"><a xlink:title=" ">
<path fill="none" stroke="#63b8ff" d="M597.19,-275.86C610.65,-258.75 640.18,-220.14 661,-185 669.56,-170.55 677.79,-153.38 683.62,-140.49"/>
<polygon fill="#63b8ff" stroke="#63b8ff" points="686.78,-141.99 687.62,-131.43 680.38,-139.16 686.78,-141.99"/>
</a>
</g>
</g>
<!-- Node6 -->
<g id="Node000006" class="node">
<title>Node6</title>
<g id="a_Node000006"><a xlink:title=" ">
<polygon fill="#e0e0e0" stroke="#999999" points="839.12,-129.75 790.88,-129.75 790.88,-110.5 839.12,-110.5 839.12,-129.75"/>
<text text-anchor="middle" x="815" y="-116.25" font-family="Helvetica,sans-Serif" font-size="10.00">cstdarg</text>
</a>
</g>
</g>
<!-- Node2&#45;&gt;Node6 -->
<g id="edge5_Node000002_Node000006" class="edge">
<title>Node2&#45;&gt;Node6</title>
<g id="a_edge5_Node000002_Node000006"><a xlink:title=" ">
<path fill="none" stroke="#63b8ff" d="M607.28,-275.85C623.19,-267.3 647.25,-253.8 667,-240.25 715.9,-206.69 769.12,-161.51 796.47,-137.58"/>
<polygon fill="#63b8ff" stroke="#63b8ff" points="798.68,-140.3 803.87,-131.06 794.06,-135.04 798.68,-140.3"/>
</a>
</g>
</g>
<!-- Node7 -->
<g id="Node000007" class="node">
<title>Node7</title>
<g id="a_Node000007"><a xlink:title=" ">
<polygon fill="#e0e0e0" stroke="#999999" points="772.38,-129.75 731.62,-129.75 731.62,-110.5 772.38,-110.5 772.38,-129.75"/>
<text text-anchor="middle" x="752" y="-116.25" font-family="Helvetica,sans-Serif" font-size="10.00">TF1.h</text>
</a>
</g>
</g>
<!-- Node2&#45;&gt;Node7 -->
<g id="edge6_Node000002_Node000007" class="edge">
<title>Node2&#45;&gt;Node7</title>
<g id="a_edge6_Node000002_Node000007"><a xlink:title=" ">
<path fill="none" stroke="#63b8ff" d="M602.26,-275.82C613.72,-267.15 631.1,-253.47 645,-240.25 680.41,-206.57 717.64,-162.98 737.5,-138.97"/>
<polygon fill="#63b8ff" stroke="#63b8ff" points="740.06,-141.35 743.7,-131.4 734.65,-136.91 740.06,-141.35"/>
</a>
</g>
</g>
<!-- Node8 -->
<g id="Node000008" class="node">
<title>Node8</title>
<g id="a_Node000008"><a xlink:title=" ">
<polygon fill="#e0e0e0" stroke="#999999" points="1015.62,-74.5 934.38,-74.5 934.38,-55.25 1015.62,-55.25 1015.62,-74.5"/>
<text text-anchor="middle" x="975" y="-61" font-family="Helvetica,sans-Serif" font-size="10.00">TFitResultPtr.h</text>
</a>
</g>
</g>
<!-- Node2&#45;&gt;Node8 -->
<g id="edge7_Node000002_Node000008" class="edge">
<title>Node2&#45;&gt;Node8</title>
<g id="a_edge7_Node000002_Node000008"><a xlink:title=" ">
<path fill="none" stroke="#63b8ff" d="M613.29,-275.76C634.42,-267.26 666.26,-253.88 693,-240.25 793.85,-188.86 906.14,-113.54 952.8,-81.37"/>
<polygon fill="#63b8ff" stroke="#63b8ff" points="954.76,-84.27 960.99,-75.7 950.77,-78.52 954.76,-84.27"/>
</a>
</g>
</g>
<!-- Node9 -->
<g id="Node000009" class="node">
<title>Node9</title>
<g id="a_Node000009"><a xlink:title=" ">
<polygon fill="#e0e0e0" stroke="#999999" points="277.25,-74.5 208.75,-74.5 208.75,-55.25 277.25,-55.25 277.25,-74.5"/>
<text text-anchor="middle" x="243" y="-61" font-family="Helvetica,sans-Serif" font-size="10.00">TFitResult.h</text>
</a>
</g>
</g>
<!-- Node2&#45;&gt;Node9 -->
<g id="edge8_Node000002_Node000009" class="edge">
<title>Node2&#45;&gt;Node9</title>
<g id="a_edge8_Node000002_Node000009"><a xlink:title=" ">
<path fill="none" stroke="#63b8ff" d="M557.04,-285.52C501.44,-285.4 386.64,-279.84 300,-240.25 265.51,-224.49 253.93,-217.85 235,-185 218.32,-156.05 218.63,-143.3 225,-110.5 226.67,-101.9 229.99,-92.85 233.34,-85.17"/>
<polygon fill="#63b8ff" stroke="#63b8ff" points="236.48,-86.7 237.57,-76.16 230.15,-83.72 236.48,-86.7"/>
</a>
</g>
</g>
<!-- Node10 -->
<g id="Node000010" class="node">
<title>Node10</title>
<g id="a_Node000010"><a xlink:href="_t_single_peak_8h.html" target="_top" xlink:title=" ">
<polygon fill="white" stroke="#666666" points="540.5,-240.25 461.5,-240.25 461.5,-221 540.5,-221 540.5,-240.25"/>
<text text-anchor="middle" x="501" y="-226.75" font-family="Helvetica,sans-Serif" font-size="10.00">TSinglePeak.h</text>
</a>
</g>
</g>
<!-- Node2&#45;&gt;Node10 -->
<g id="edge9_Node000002_Node000010" class="edge">
<title>Node2&#45;&gt;Node10</title>
<g id="a_edge9_Node000002_Node000010"><a xlink:title=" ">
<path fill="none" stroke="#63b8ff" d="M574.9,-275.84C561.48,-267.81 541.59,-255.91 525.83,-246.48"/>
<polygon fill="#63b8ff" stroke="#63b8ff" points="527.85,-243.61 517.47,-241.48 524.25,-249.62 527.85,-243.61"/>
</a>
</g>
</g>
<!-- Node10&#45;&gt;Node3 -->
<g id="edge10_Node000010_Node000003" class="edge">
<title>Node10&#45;&gt;Node3</title>
<g id="a_edge10_Node000010_Node000003"><a xlink:title=" ">
<path fill="none" stroke="#63b8ff" d="M461.44,-229.51C406.94,-227.96 306.78,-220.04 230,-185 144.91,-146.17 66.2,-63.57 34.61,-27.77"/>
<polygon fill="#63b8ff" stroke="#63b8ff" points="37.5,-25.75 28.29,-20.5 32.21,-30.34 37.5,-25.75"/>
</a>
</g>
</g>
<!-- Node10&#45;&gt;Node4 -->
<g id="edge11_Node000010_Node000004" class="edge">
<title>Node10&#45;&gt;Node4</title>
<g id="a_edge11_Node000010_Node000004"><a xlink:title=" ">
<path fill="none" stroke="#63b8ff" d="M472.41,-220.55C448.29,-212.46 413.13,-199.66 384,-185 355.64,-170.72 325.18,-150.48 305.43,-136.64"/>
<polygon fill="#63b8ff" stroke="#63b8ff" points="307.56,-133.85 297.38,-130.92 303.51,-139.56 307.56,-133.85"/>
</a>
</g>
</g>
<!-- Node10&#45;&gt;Node5 -->
<g id="edge12_Node000010_Node000005" class="edge">
<title>Node10&#45;&gt;Node5</title>
<g id="a_edge12_Node000010_Node000005"><a xlink:title=" ">
<path fill="none" stroke="#63b8ff" d="M511.01,-220.65C526.17,-207.38 556.27,-182.3 585,-165.75 608.91,-151.98 637.9,-140.16 659.67,-132.15"/>
<polygon fill="#63b8ff" stroke="#63b8ff" points="660.68,-135.5 668.91,-128.83 658.31,-128.92 660.68,-135.5"/>
</a>
</g>
</g>
<!-- Node10&#45;&gt;Node6 -->
<g id="edge13_Node000010_Node000006" class="edge">
<title>Node10&#45;&gt;Node6</title>
<g id="a_edge13_Node000010_Node000006"><a xlink:title=" ">
<path fill="none" stroke="#63b8ff" d="M540.9,-223.09C579.72,-216.07 640,-203.37 690,-185 726.43,-171.61 765.91,-150.16 790.54,-135.86"/>
<polygon fill="#63b8ff" stroke="#63b8ff" points="791.99,-139.07 798.84,-130.98 788.44,-133.04 791.99,-139.07"/>
</a>
</g>
</g>
<!-- Node10&#45;&gt;Node7 -->
<g id="edge15_Node000010_Node000007" class="edge">
<title>Node10&#45;&gt;Node7</title>
<g id="a_edge15_Node000010_Node000007"><a xlink:title=" ">
<path fill="none" stroke="#63b8ff" d="M540.8,-222.46C574.01,-215.56 622.03,-203.44 661,-185 687.94,-172.25 715.49,-151.64 733.11,-137.3"/>
<polygon fill="#63b8ff" stroke="#63b8ff" points="735.2,-140.11 740.65,-131.03 730.72,-134.73 735.2,-140.11"/>
</a>
</g>
</g>
<!-- Node10&#45;&gt;Node8 -->
<g id="edge16_Node000010_Node000008" class="edge">
<title>Node10&#45;&gt;Node8</title>
<g id="a_edge16_Node000010_Node000008"><a xlink:title=" ">
<path fill="none" stroke="#63b8ff" d="M540.93,-224.45C586.27,-217.93 662.11,-205.1 725,-185 782.08,-166.75 793.88,-155.5 848,-129.75 882.71,-113.23 922.19,-93.17 947.8,-79.99"/>
<polygon fill="#63b8ff" stroke="#63b8ff" points="949.24,-83.19 956.52,-75.49 946.03,-76.97 949.24,-83.19"/>
</a>
</g>
</g>
<!-- Node10&#45;&gt;Node9 -->
<g id="edge17_Node000010_Node000009" class="edge">
<title>Node10&#45;&gt;Node9</title>
<g id="a_edge17_Node000010_Node000009"><a xlink:title=" ">
<path fill="none" stroke="#63b8ff" d="M461.1,-228.74C395.76,-226.36 270.41,-217.56 243,-185 219.66,-157.27 228.27,-111.68 236.03,-85.68"/>
<polygon fill="#63b8ff" stroke="#63b8ff" points="239.29,-86.98 239.05,-76.39 232.63,-84.81 239.29,-86.98"/>
</a>
</g>
</g>
<!-- Node11 -->
<g id="Node000011" class="node">
<title>Node11</title>
<g id="a_Node000011"><a xlink:title=" ">
<polygon fill="#e0e0e0" stroke="#999999" points="652,-185 594,-185 594,-165.75 652,-165.75 652,-185"/>
<text text-anchor="middle" x="623" y="-171.5" font-family="Helvetica,sans-Serif" font-size="10.00">TObject.h</text>
</a>
</g>
</g>
<!-- Node10&#45;&gt;Node11 -->
<g id="edge14_Node000010_Node000011" class="edge">
<title>Node10&#45;&gt;Node11</title>
<g id="a_edge14_Node000010_Node000011"><a xlink:title=" ">
<path fill="none" stroke="#63b8ff" d="M521.7,-220.59C540.89,-212.22 569.71,-199.63 591.72,-190.03"/>
<polygon fill="#63b8ff" stroke="#63b8ff" points="593.05,-193.27 600.82,-186.06 590.25,-186.85 593.05,-193.27"/>
</a>
</g>
</g>
<!-- Node12 -->
<g id="Node000012" class="node">
<title>Node12</title>
<g id="a_Node000012"><a xlink:title=" ">
<polygon fill="#e0e0e0" stroke="#999999" points="423.88,-129.75 368.12,-129.75 368.12,-110.5 423.88,-110.5 423.88,-129.75"/>
<text text-anchor="middle" x="396" y="-116.25" font-family="Helvetica,sans-Serif" font-size="10.00">TGraph.h</text>
</a>
</g>
</g>
<!-- Node10&#45;&gt;Node12 -->
<g id="edge18_Node000010_Node000012" class="edge">
<title>Node10&#45;&gt;Node12</title>
<g id="a_edge18_Node000010_Node000012"><a xlink:title=" ">
<path fill="none" stroke="#63b8ff" d="M491.34,-220.54C481.92,-211.63 467.28,-197.58 455,-185 439.9,-169.52 423.23,-151.37 411.47,-138.38"/>
<polygon fill="#63b8ff" stroke="#63b8ff" points="414.17,-136.16 404.88,-131.07 408.97,-140.84 414.17,-136.16"/>
</a>
</g>
</g>
<!-- Node13 -->
<g id="Node000013" class="node">
<title>Node13</title>
<g id="a_Node000013"><a xlink:title=" ">
<polygon fill="#e0e0e0" stroke="#999999" points="366.62,-74.5 315.38,-74.5 315.38,-55.25 366.62,-55.25 366.62,-74.5"/>
<text text-anchor="middle" x="341" y="-61" font-family="Helvetica,sans-Serif" font-size="10.00">TMath.h</text>
</a>
</g>
</g>
<!-- Node10&#45;&gt;Node13 -->
<g id="edge19_Node000010_Node000013" class="edge">
<title>Node10&#45;&gt;Node13</title>
<g id="a_edge19_Node000010_Node000013"><a xlink:title=" ">
<path fill="none" stroke="#63b8ff" d="M479.53,-220.51C448.09,-206.02 389.9,-174.71 359,-129.75 350.1,-116.8 345.57,-99.51 343.29,-86.19"/>
<polygon fill="#63b8ff" stroke="#63b8ff" points="346.77,-85.82 341.92,-76.4 339.84,-86.79 346.77,-85.82"/>
</a>
</g>
</g>
<!-- Node14 -->
<g id="Node000014" class="node">
<title>Node14</title>
<g id="a_Node000014"><a xlink:title=" ">
<polygon fill="#e0e0e0" stroke="#999999" points="331.88,-185 252.12,-185 252.12,-165.75 331.88,-165.75 331.88,-185"/>
<text text-anchor="middle" x="292" y="-171.5" font-family="Helvetica,sans-Serif" font-size="10.00">TVirtualFitter.h</text>
</a>
</g>
</g>
<!-- Node10&#45;&gt;Node14 -->
<g id="edge20_Node000010_Node000014" class="edge">
<title>Node10&#45;&gt;Node14</title>
<g id="a_edge20_Node000010_Node000014"><a xlink:title=" ">
<path fill="none" stroke="#63b8ff" d="M465.55,-220.59C430.57,-211.68 376.9,-198.01 338.52,-188.23"/>
<polygon fill="#63b8ff" stroke="#63b8ff" points="339.65,-184.9 329.09,-185.83 337.92,-191.69 339.65,-184.9"/>
</a>
</g>
</g>
<!-- Node15 -->
<g id="Node000015" class="node">
<title>Node15</title>
<g id="a_Node000015"><a xlink:href="_t_peak_fitter_8h.html" target="_top" xlink:title=" ">
<polygon fill="white" stroke="#666666" points="538.25,-185 463.75,-185 463.75,-165.75 538.25,-165.75 538.25,-185"/>
<text text-anchor="middle" x="501" y="-171.5" font-family="Helvetica,sans-Serif" font-size="10.00">TPeakFitter.h</text>
</a>
</g>
</g>
<!-- Node10&#45;&gt;Node15 -->
<g id="edge21_Node000010_Node000015" class="edge">
<title>Node10&#45;&gt;Node15</title>
<g id="a_edge21_Node000010_Node000015"><a xlink:title=" ">
<path fill="none" stroke="#63b8ff" d="M495.83,-220.83C494.42,-214.24 493.96,-204.96 494.43,-196.57"/>
<polygon fill="#63b8ff" stroke="#63b8ff" points="497.88,-197.21 495.61,-186.86 490.93,-196.37 497.88,-197.21"/>
</a>
</g>
</g>
<!-- Node15&#45;&gt;Node3 -->
<g id="edge22_Node000015_Node000003" class="edge">
<title>Node15&#45;&gt;Node3</title>
<g id="a_edge22_Node000015_Node000003"><a xlink:title=" ">
<path fill="none" stroke="#63b8ff" d="M496.71,-165.29C490.17,-152.09 476.68,-127.37 460,-110.5 452.14,-102.56 386.51,-59.04 376,-55.25 241.8,-6.91 194.62,-46.19 51.41,-19.35"/>
<polygon fill="#63b8ff" stroke="#63b8ff" points="52.45,-15.99 41.97,-17.5 51.11,-22.86 52.45,-15.99"/>
</a>
</g>
</g>
<!-- Node15&#45;&gt;Node4 -->
<g id="edge23_Node000015_Node000004" class="edge">
<title>Node15&#45;&gt;Node4</title>
<g id="a_edge23_Node000015_Node000004"><a xlink:title=" ">
<path fill="none" stroke="#63b8ff" d="M464.19,-165.34C425.04,-155.73 363.34,-140.59 323.27,-130.76"/>
<polygon fill="#63b8ff" stroke="#63b8ff" points="324.34,-127.42 313.8,-128.44 322.68,-134.22 324.34,-127.42"/>
</a>
</g>
</g>
<!-- Node15&#45;&gt;Node5 -->
<g id="edge24_Node000015_Node000005" class="edge">
<title>Node15&#45;&gt;Node5</title>
<g id="a_edge24_Node000015_Node000005"><a xlink:title=" ">
<path fill="none" stroke="#63b8ff" d="M533.4,-165.34C568.55,-155.54 624.34,-139.99 659.52,-130.18"/>
<polygon fill="#63b8ff" stroke="#63b8ff" points="660.02,-133.68 668.71,-127.62 658.14,-126.93 660.02,-133.68"/>
</a>
</g>
</g>
<!-- Node15&#45;&gt;Node6 -->
<g id="edge25_Node000015_Node000006" class="edge">
<title>Node15&#45;&gt;Node6</title>
<g id="a_edge25_Node000015_Node000006"><a xlink:title=" ">
<path fill="none" stroke="#63b8ff" d="M538.33,-169.52C590.09,-162.55 686.77,-148.67 779.29,-129.92"/>
<polygon fill="#63b8ff" stroke="#63b8ff" points="779.97,-133.35 789.06,-127.91 778.56,-126.5 779.97,-133.35"/>
</a>
</g>
</g>
<!-- Node15&#45;&gt;Node7 -->
<g id="edge26_Node000015_Node000007" class="edge">
<title>Node15&#45;&gt;Node7</title>
<g id="a_edge26_Node000015_Node000007"><a xlink:title=" ">
<path fill="none" stroke="#63b8ff" d="M538.55,-167.9C580.63,-160.41 651.09,-147.17 720.1,-130.31"/>
<polygon fill="#63b8ff" stroke="#63b8ff" points="720.82,-133.74 729.68,-127.93 719.14,-126.94 720.82,-133.74"/>
</a>
</g>
</g>
<!-- Node15&#45;&gt;Node8 -->
<g id="edge27_Node000015_Node000008" class="edge">
<title>Node15&#45;&gt;Node8</title>
<g id="a_edge27_Node000015_Node000008"><a xlink:title=" ">
<path fill="none" stroke="#63b8ff" d="M528.46,-165.28C553.41,-156.79 591.07,-143.42 623,-129.75 640.77,-122.14 643.53,-116.19 662,-110.5 772.66,-76.44 805.47,-91.47 920,-74.5 921,-74.35 922.02,-74.2 923.04,-74.05"/>
<polygon fill="#63b8ff" stroke="#63b8ff" points="923.31,-77.55 932.67,-72.58 922.26,-70.63 923.31,-77.55"/>
</a>
</g>
</g>
<!-- Node15&#45;&gt;Node9 -->
<g id="edge28_Node000015_Node000009" class="edge">
<title>Node15&#45;&gt;Node9</title>
<g id="a_edge28_Node000015_Node000009"><a xlink:title=" ">
<path fill="none" stroke="#63b8ff" d="M494.12,-165.4C482.9,-151.42 459.26,-124.59 433,-110.5 408.33,-97.26 336.34,-82.52 288.4,-73.73"/>
<polygon fill="#63b8ff" stroke="#63b8ff" points="289.32,-70.34 278.86,-72.01 288.08,-77.23 289.32,-70.34"/>
</a>
</g>
</g>
<!-- Node15&#45;&gt;Node10 -->
<g id="edge59_Node000015_Node000010" class="edge">
<title>Node15&#45;&gt;Node10</title>
<g id="a_edge59_Node000015_Node000010"><a xlink:title=" ">
<path fill="none" stroke="#63b8ff" d="M506.21,-185.36C507.6,-192 508.05,-201.3 507.56,-209.67"/>
<polygon fill="#63b8ff" stroke="#63b8ff" points="504.12,-208.97 506.35,-219.33 511.06,-209.84 504.12,-208.97"/>
</a>
</g>
</g>
<!-- Node15&#45;&gt;Node12 -->
<g id="edge29_Node000015_Node000012" class="edge">
<title>Node15&#45;&gt;Node12</title>
<g id="a_edge29_Node000015_Node000012"><a xlink:title=" ">
<path fill="none" stroke="#63b8ff" d="M483.19,-165.34C466.97,-157.12 442.76,-144.84 423.97,-135.31"/>
<polygon fill="#63b8ff" stroke="#63b8ff" points="425.75,-132.29 415.25,-130.89 422.58,-138.53 425.75,-132.29"/>
</a>
</g>
</g>
<!-- Node16 -->
<g id="Node000016" class="node">
<title>Node16</title>
<g id="a_Node000016"><a xlink:href="_t_g_r_s_i_functions_8h.html" target="_top" xlink:title=" ">
<polygon fill="white" stroke="#666666" points="614.12,-129.75 517.88,-129.75 517.88,-110.5 614.12,-110.5 614.12,-129.75"/>
<text text-anchor="middle" x="566" y="-116.25" font-family="Helvetica,sans-Serif" font-size="10.00">TGRSIFunctions.h</text>
</a>
</g>
</g>
<!-- Node15&#45;&gt;Node16 -->
<g id="edge30_Node000015_Node000016" class="edge">
<title>Node15&#45;&gt;Node16</title>
<g id="a_edge30_Node000015_Node000016"><a xlink:title=" ">
<path fill="none" stroke="#63b8ff" d="M512.03,-165.34C521.42,-157.65 535.15,-146.4 546.41,-137.18"/>
<polygon fill="#63b8ff" stroke="#63b8ff" points="548.45,-140.03 553.97,-130.98 544.01,-134.61 548.45,-140.03"/>
</a>
</g>
</g>
<!-- Node16&#45;&gt;Node3 -->
<g id="edge33_Node000016_Node000003" class="edge">
<title>Node16&#45;&gt;Node3</title>
<g id="a_edge33_Node000016_Node000003"><a xlink:title=" ">
<path fill="none" stroke="#63b8ff" d="M542.29,-110.01C519.53,-101.18 484.27,-87.3 454,-74.5 434.71,-66.35 431.23,-60.63 411,-55.25 258.26,-14.62 209.82,-48.82 51.56,-19.37"/>
<polygon fill="#63b8ff" stroke="#63b8ff" points="52.44,-15.98 41.96,-17.52 51.12,-22.85 52.44,-15.98"/>
</a>
</g>
</g>
<!-- Node16&#45;&gt;Node8 -->
<g id="edge37_Node000016_Node000008" class="edge">
<title>Node16&#45;&gt;Node8</title>
<g id="a_edge37_Node000016_Node000008"><a xlink:title=" ">
<path fill="none" stroke="#63b8ff" d="M614.39,-112.32C618.99,-111.69 623.58,-111.08 628,-110.5 757.65,-93.49 790.5,-92.63 920,-74.5 920.84,-74.38 921.69,-74.26 922.55,-74.14"/>
<polygon fill="#63b8ff" stroke="#63b8ff" points="922.99,-77.61 932.38,-72.7 921.98,-70.69 922.99,-77.61"/>
</a>
</g>
</g>
<!-- Node16&#45;&gt;Node9 -->
<g id="edge38_Node000016_Node000009" class="edge">
<title>Node16&#45;&gt;Node9</title>
<g id="a_edge38_Node000016_Node000009"><a xlink:title=" ">
<path fill="none" stroke="#63b8ff" d="M517.64,-111.15C455.64,-100.93 348.94,-83.34 288.4,-73.36"/>
<polygon fill="#63b8ff" stroke="#63b8ff" points="289.22,-69.95 278.79,-71.77 288.08,-76.85 289.22,-69.95"/>
</a>
</g>
</g>
<!-- Node16&#45;&gt;Node13 -->
<g id="edge35_Node000016_Node000013" class="edge">
<title>Node16&#45;&gt;Node13</title>
<g id="a_edge35_Node000016_Node000013"><a xlink:title=" ">
<path fill="none" stroke="#63b8ff" d="M527.58,-110.03C485.79,-100.14 419.46,-84.44 378.17,-74.67"/>
<polygon fill="#63b8ff" stroke="#63b8ff" points="378.99,-71.27 368.45,-72.37 377.38,-78.08 378.99,-71.27"/>
</a>
</g>
</g>
<!-- Node17 -->
<g id="Node000017" class="node">
<title>Node17</title>
<g id="a_Node000017"><a xlink:title=" ">
<polygon fill="#e0e0e0" stroke="#999999" points="1195.75,-19.25 1142.25,-19.25 1142.25,0 1195.75,0 1195.75,-19.25"/>
<text text-anchor="middle" x="1169" y="-5.75" font-family="Helvetica,sans-Serif" font-size="10.00">iostream</text>
</a>
</g>
</g>
<!-- Node16&#45;&gt;Node17 -->
<g id="edge31_Node000016_Node000017" class="edge">
<title>Node16&#45;&gt;Node17</title>
<g id="a_edge31_Node000016_Node000017"><a xlink:title=" ">
<path fill="none" stroke="#63b8ff" d="M614.51,-111.17C616.03,-110.94 617.52,-110.72 619,-110.5 737.88,-92.85 772.23,-110.16 887,-74.5 905.08,-68.88 907.03,-61.21 925,-55.25 1010.66,-26.85 1038.96,-37.3 1130.71,-19.55"/>
<polygon fill="#63b8ff" stroke="#63b8ff" points="1131.31,-23 1140.43,-17.61 1129.94,-16.14 1131.31,-23"/>
</a>
</g>
</g>
<!-- Node18 -->
<g id="Node000018" class="node">
<title>Node18</title>
<g id="a_Node000018"><a xlink:title=" ">
<polygon fill="#e0e0e0" stroke="#999999" points="816.5,-74.5 767.5,-74.5 767.5,-55.25 816.5,-55.25 816.5,-74.5"/>
<text text-anchor="middle" x="792" y="-61" font-family="Helvetica,sans-Serif" font-size="10.00">fstream</text>
</a>
</g>
</g>
<!-- Node16&#45;&gt;Node18 -->
<g id="edge32_Node000016_Node000018" class="edge">
<title>Node16&#45;&gt;Node18</title>
<g id="a_edge32_Node000016_Node000018"><a xlink:title=" ">
<path fill="none" stroke="#63b8ff" d="M606.14,-110.04C642.67,-101.72 698.37,-88.9 755.97,-74.95"/>
<polygon fill="#63b8ff" stroke="#63b8ff" points="756.77,-78.36 765.66,-72.6 755.12,-71.56 756.77,-78.36"/>
</a>
</g>
</g>
<!-- Node19 -->
<g id="Node000019" class="node">
<title>Node19</title>
<g id="a_Node000019"><a xlink:title=" ">
<polygon fill="#e0e0e0" stroke="#999999" points="877.5,-74.5 834.5,-74.5 834.5,-55.25 877.5,-55.25 877.5,-74.5"/>
<text text-anchor="middle" x="856" y="-61" font-family="Helvetica,sans-Serif" font-size="10.00">cmath</text>
</a>
</g>
</g>
<!-- Node16&#45;&gt;Node19 -->
<g id="edge34_Node000016_Node000019" class="edge">
<title>Node16&#45;&gt;Node19</title>
<g id="a_edge34_Node000016_Node000019"><a xlink:title=" ">
<path fill="none" stroke="#63b8ff" d="M614.23,-112.47C664.32,-105.2 745.11,-92.46 823.13,-74.97"/>
<polygon fill="#63b8ff" stroke="#63b8ff" points="823.67,-78.44 832.64,-72.8 822.11,-71.61 823.67,-78.44"/>
</a>
</g>
</g>
<!-- Node20 -->
<g id="Node000020" class="node">
<title>Node20</title>
<g id="a_Node000020"><a xlink:title=" ">
<polygon fill="#e0e0e0" stroke="#999999" points="594.62,-74.5 537.38,-74.5 537.38,-55.25 594.62,-55.25 594.62,-74.5"/>
<text text-anchor="middle" x="566" y="-61" font-family="Helvetica,sans-Serif" font-size="10.00">TROOT.h</text>
</a>
</g>
</g>
<!-- Node16&#45;&gt;Node20 -->
<g id="edge36_Node000016_Node000020" class="edge">
<title>Node16&#45;&gt;Node20</title>
<g id="a_edge36_Node000016_Node000020"><a xlink:title=" ">
<path fill="none" stroke="#63b8ff" d="M566,-110.33C566,-103.82 566,-94.67 566,-86.37"/>
<polygon fill="#63b8ff" stroke="#63b8ff" points="569.5,-86.37 566,-76.37 562.5,-86.37 569.5,-86.37"/>
</a>
</g>
</g>
<!-- Node21 -->
<g id="Node000021" class="node">
<title>Node21</title>
<g id="a_Node000021"><a xlink:title=" ">
<polygon fill="#e0e0e0" stroke="#999999" points="749,-74.5 613,-74.5 613,-55.25 749,-55.25 749,-74.5"/>
<text text-anchor="middle" x="681" y="-61" font-family="Helvetica,sans-Serif" font-size="10.00">Math/SpecFuncMathMore.h</text>
</a>
</g>
</g>
<!-- Node16&#45;&gt;Node21 -->
<g id="edge39_Node000016_Node000021" class="edge">
<title>Node16&#45;&gt;Node21</title>
<g id="a_edge39_Node000016_Node000021"><a xlink:title=" ">
<path fill="none" stroke="#63b8ff" d="M585.51,-110.09C603.52,-101.75 630.52,-89.25 651.23,-79.66"/>
<polygon fill="#63b8ff" stroke="#63b8ff" points="652.42,-82.97 660.02,-75.59 649.48,-76.61 652.42,-82.97"/>
</a>
</g>
</g>
<!-- Node22 -->
<g id="Node000022" class="node">
<title>Node22</title>
<g id="a_Node000022"><a xlink:href="_globals_8h.html" target="_top" xlink:title=" ">
<polygon fill="white" stroke="#666666" points="519.25,-74.5 462.75,-74.5 462.75,-55.25 519.25,-55.25 519.25,-74.5"/>
<text text-anchor="middle" x="491" y="-61" font-family="Helvetica,sans-Serif" font-size="10.00">Globals.h</text>
</a>
</g>
</g>
<!-- Node16&#45;&gt;Node22 -->
<g id="edge40_Node000016_Node000022" class="edge">
<title>Node16&#45;&gt;Node22</title>
<g id="a_edge40_Node000016_Node000022"><a xlink:title=" ">
<path fill="none" stroke="#63b8ff" d="M553.28,-110.09C542.29,-102.29 526.16,-90.84 513.07,-81.54"/>
<polygon fill="#63b8ff" stroke="#63b8ff" points="515.2,-78.76 505.02,-75.83 511.15,-84.47 515.2,-78.76"/>
</a>
</g>
</g>
<!-- Node22&#45;&gt;Node3 -->
<g id="edge45_Node000022_Node000003" class="edge">
<title>Node22&#45;&gt;Node3</title>
<g id="a_edge45_Node000022_Node000003"><a xlink:title=" ">
<path fill="none" stroke="#63b8ff" d="M462.61,-57.59C458.07,-56.72 453.42,-55.9 449,-55.25 276.03,-29.79 226.33,-51.91 51.61,-19.38"/>
<polygon fill="#63b8ff" stroke="#63b8ff" points="52.43,-15.97 41.96,-17.55 51.13,-22.85 52.43,-15.97"/>
</a>
</g>
</g>
<!-- Node22&#45;&gt;Node17 -->
<g id="edge42_Node000022_Node000017" class="edge">
<title>Node22&#45;&gt;Node17</title>
<g id="a_edge42_Node000022_Node000017"><a xlink:title=" ">
<path fill="none" stroke="#63b8ff" d="M519.59,-56.7C522.42,-56.15 525.26,-55.65 528,-55.25 790.92,-17.06 864.55,-57.64 1130.79,-19.28"/>
<polygon fill="#63b8ff" stroke="#63b8ff" points="1131.09,-22.77 1140.48,-17.86 1130.07,-15.85 1131.09,-22.77"/>
</a>
</g>
</g>
<!-- Node23 -->
<g id="Node000023" class="node">
<title>Node23</title>
<g id="a_Node000023"><a xlink:title=" ">
<polygon fill="#e0e0e0" stroke="#999999" points="103.62,-19.25 58.38,-19.25 58.38,0 103.62,0 103.62,-19.25"/>
<text text-anchor="middle" x="81" y="-5.75" font-family="Helvetica,sans-Serif" font-size="10.00">cstdint</text>
</a>
</g>
</g>
<!-- Node22&#45;&gt;Node23 -->
<g id="edge41_Node000022_Node000023" class="edge">
<title>Node22&#45;&gt;Node23</title>
<g id="a_edge41_Node000022_Node000023"><a xlink:title=" ">
<path fill="none" stroke="#63b8ff" d="M462.6,-57.66C458.06,-56.78 453.41,-55.94 449,-55.25 304.23,-32.68 262.64,-46.18 115.24,-19.37"/>
<polygon fill="#63b8ff" stroke="#63b8ff" points="115.93,-15.94 105.46,-17.55 114.66,-22.82 115.93,-15.94"/>
</a>
</g>
</g>
<!-- Node24 -->
<g id="Node000024" class="node">
<title>Node24</title>
<g id="a_Node000024"><a xlink:title=" ">
<polygon fill="#e0e0e0" stroke="#999999" points="171.88,-19.25 122.12,-19.25 122.12,0 171.88,0 171.88,-19.25"/>
<text text-anchor="middle" x="147" y="-5.75" font-family="Helvetica,sans-Serif" font-size="10.00">iomanip</text>
</a>
</g>
</g>
<!-- Node22&#45;&gt;Node24 -->
<g id="edge43_Node000022_Node000024" class="edge">
<title>Node22&#45;&gt;Node24</title>
<g id="a_edge43_Node000022_Node000024"><a xlink:title=" ">
<path fill="none" stroke="#63b8ff" d="M462.58,-57.76C458.05,-56.87 453.4,-56 449,-55.25 334.1,-35.76 300.98,-41.67 183.44,-19.51"/>
<polygon fill="#63b8ff" stroke="#63b8ff" points="184.15,-16.09 173.66,-17.64 182.83,-22.96 184.15,-16.09"/>
</a>
</g>
</g>
<!-- Node25 -->
<g id="Node000025" class="node">
<title>Node25</title>
<g id="a_Node000025"><a xlink:title=" ">
<polygon fill="#e0e0e0" stroke="#999999" points="248,-19.25 190,-19.25 190,0 248,0 248,-19.25"/>
<text text-anchor="middle" x="219" y="-5.75" font-family="Helvetica,sans-Serif" font-size="10.00">stdexcept</text>
</a>
</g>
</g>
<!-- Node22&#45;&gt;Node25 -->
<g id="edge44_Node000022_Node000025" class="edge">
<title>Node22&#45;&gt;Node25</title>
<g id="a_edge44_Node000022_Node000025"><a xlink:title=" ">
<path fill="none" stroke="#63b8ff" d="M462.55,-57.96C458.02,-57.04 453.38,-56.11 449,-55.25 367.3,-39.2 343.91,-37.02 259.6,-19.73"/>
<polygon fill="#63b8ff" stroke="#63b8ff" points="260.42,-16.32 249.92,-17.73 259,-23.18 260.42,-16.32"/>
</a>
</g>
</g>
<!-- Node26 -->
<g id="Node000026" class="node">
<title>Node26</title>
<g id="a_Node000026"><a xlink:title=" ">
<polygon fill="#e0e0e0" stroke="#999999" points="308.12,-19.25 265.88,-19.25 265.88,0 308.12,0 308.12,-19.25"/>
<text text-anchor="middle" x="287" y="-5.75" font-family="Helvetica,sans-Serif" font-size="10.00">cstdio</text>
</a>
</g>
</g>
<!-- Node22&#45;&gt;Node26 -->
<g id="edge46_Node000022_Node000026" class="edge">
<title>Node22&#45;&gt;Node26</title>
<g id="a_edge46_Node000022_Node000026"><a xlink:title=" ">
<path fill="none" stroke="#63b8ff" d="M462.3,-56.78C429.84,-48.71 375.15,-34.92 319.4,-19.85"/>
<polygon fill="#63b8ff" stroke="#63b8ff" points="320.64,-16.56 310.07,-17.31 318.8,-23.31 320.64,-16.56"/>
</a>
</g>
</g>
<!-- Node27 -->
<g id="Node000027" class="node">
<title>Node27</title>
<g id="a_Node000027"><a xlink:title=" ">
<polygon fill="#e0e0e0" stroke="#999999" points="370.25,-19.25 325.75,-19.25 325.75,0 370.25,0 370.25,-19.25"/>
<text text-anchor="middle" x="348" y="-5.75" font-family="Helvetica,sans-Serif" font-size="10.00">cstdlib</text>
</a>
</g>
</g>
<!-- Node22&#45;&gt;Node27 -->
<g id="edge47_Node000022_Node000027" class="edge">
<title>Node22&#45;&gt;Node27</title>
<g id="a_edge47_Node000022_Node000027"><a xlink:title=" ">
<path fill="none" stroke="#63b8ff" d="M466.74,-54.84C443.18,-46.07 407.21,-32.68 381.04,-22.93"/>
<polygon fill="#63b8ff" stroke="#63b8ff" points="382.5,-19.74 371.91,-19.53 380.06,-26.3 382.5,-19.74"/>
</a>
</g>
</g>
<!-- Node28 -->
<g id="Node000028" class="node">
<title>Node28</title>
<g id="a_Node000028"><a xlink:title=" ">
<polygon fill="#e0e0e0" stroke="#999999" points="447.75,-19.25 388.25,-19.25 388.25,0 447.75,0 447.75,-19.25"/>
<text text-anchor="middle" x="418" y="-5.75" font-family="Helvetica,sans-Serif" font-size="10.00">execinfo.h</text>
</a>
</g>
</g>
<!-- Node22&#45;&gt;Node28 -->
<g id="edge48_Node000022_Node000028" class="edge">
<title>Node22&#45;&gt;Node28</title>
<g id="a_edge48_Node000022_Node000028"><a xlink:title=" ">
<path fill="none" stroke="#63b8ff" d="M478.62,-54.84C467.85,-46.99 452.03,-35.45 439.25,-26.12"/>
<polygon fill="#63b8ff" stroke="#63b8ff" points="441.56,-23.48 431.42,-20.42 437.44,-29.14 441.56,-23.48"/>
</a>
</g>
</g>
<!-- Node29 -->
<g id="Node000029" class="node">
<title>Node29</title>
<g id="a_Node000029"><a xlink:title=" ">
<polygon fill="#e0e0e0" stroke="#999999" points="516.25,-19.25 465.75,-19.25 465.75,0 516.25,0 516.25,-19.25"/>
<text text-anchor="middle" x="491" y="-5.75" font-family="Helvetica,sans-Serif" font-size="10.00">cxxabi.h</text>
</a>
</g>
</g>
<!-- Node22&#45;&gt;Node29 -->
<g id="edge49_Node000022_Node000029" class="edge">
<title>Node22&#45;&gt;Node29</title>
<g id="a_edge49_Node000022_Node000029"><a xlink:title=" ">
<path fill="none" stroke="#63b8ff" d="M491,-55.08C491,-48.57 491,-39.42 491,-31.12"/>
<polygon fill="#63b8ff" stroke="#63b8ff" points="494.5,-31.12 491,-21.12 487.5,-31.12 494.5,-31.12"/>
</a>
</g>
</g>
<!-- Node30 -->
<g id="Node000030" class="node">
<title>Node30</title>
<g id="a_Node000030"><a xlink:title=" ">
<polygon fill="#e0e0e0" stroke="#999999" points="585.62,-19.25 534.38,-19.25 534.38,0 585.62,0 585.62,-19.25"/>
<text text-anchor="middle" x="560" y="-5.75" font-family="Helvetica,sans-Serif" font-size="10.00">sstream</text>
</a>
</g>
</g>
<!-- Node22&#45;&gt;Node30 -->
<g id="edge50_Node000022_Node000030" class="edge">
<title>Node22&#45;&gt;Node30</title>
<g id="a_edge50_Node000022_Node000030"><a xlink:title=" ">
<path fill="none" stroke="#63b8ff" d="M502.7,-54.84C512.78,-47.07 527.54,-35.67 539.56,-26.4"/>
<polygon fill="#63b8ff" stroke="#63b8ff" points="541.49,-29.33 547.27,-20.45 537.21,-23.79 541.49,-29.33"/>
</a>
</g>
</g>
<!-- Node31 -->
<g id="Node000031" class="node">
<title>Node31</title>
<g id="a_Node000031"><a xlink:title=" ">
<polygon fill="#e0e0e0" stroke="#999999" points="640.5,-19.25 603.5,-19.25 603.5,0 640.5,0 640.5,-19.25"/>
<text text-anchor="middle" x="622" y="-5.75" font-family="Helvetica,sans-Serif" font-size="10.00">array</text>
</a>
</g>
</g>
<!-- Node22&#45;&gt;Node31 -->
<g id="edge51_Node000022_Node000031" class="edge">
<title>Node22&#45;&gt;Node31</title>
<g id="a_edge51_Node000022_Node000031"><a xlink:title=" ">
<path fill="none" stroke="#63b8ff" d="M513.22,-54.84C535.03,-45.98 568.41,-32.41 592.44,-22.64"/>
<polygon fill="#63b8ff" stroke="#63b8ff" points="593.73,-25.9 601.67,-18.89 591.09,-19.41 593.73,-25.9"/>
</a>
</g>
</g>
<!-- Node32 -->
<g id="Node000032" class="node">
<title>Node32</title>
<g id="a_Node000032"><a xlink:title=" ">
<polygon fill="#e0e0e0" stroke="#999999" points="709.25,-19.25 658.75,-19.25 658.75,0 709.25,0 709.25,-19.25"/>
<text text-anchor="middle" x="684" y="-5.75" font-family="Helvetica,sans-Serif" font-size="10.00">memory</text>
</a>
</g>
</g>
<!-- Node22&#45;&gt;Node32 -->
<g id="edge52_Node000022_Node000032" class="edge">
<title>Node22&#45;&gt;Node32</title>
<g id="a_edge52_Node000022_Node000032"><a xlink:title=" ">
<path fill="none" stroke="#63b8ff" d="M519.48,-56.02C553.5,-46.63 610.46,-30.91 647.64,-20.66"/>
<polygon fill="#63b8ff" stroke="#63b8ff" points="648.32,-24.1 657.03,-18.07 646.46,-17.35 648.32,-24.1"/>
</a>
</g>
</g>
<!-- Node33 -->
<g id="Node000033" class="node">
<title>Node33</title>
<g id="a_Node000033"><a xlink:title=" ">
<polygon fill="#e0e0e0" stroke="#999999" points="776.88,-19.25 727.12,-19.25 727.12,0 776.88,0 776.88,-19.25"/>
<text text-anchor="middle" x="752" y="-5.75" font-family="Helvetica,sans-Serif" font-size="10.00">unistd.h</text>
</a>
</g>
</g>
<!-- Node22&#45;&gt;Node33 -->
<g id="edge53_Node000022_Node000033" class="edge">
<title>Node22&#45;&gt;Node33</title>
<g id="a_edge53_Node000022_Node000033"><a xlink:title=" ">
<path fill="none" stroke="#63b8ff" d="M519.66,-57.07C522.47,-56.44 525.29,-55.82 528,-55.25 608.64,-38.22 632.18,-37.83 715.73,-19.64"/>
<polygon fill="#63b8ff" stroke="#63b8ff" points="716.3,-23.1 725.31,-17.53 714.79,-16.26 716.3,-23.1"/>
</a>
</g>
</g>
<!-- Node34 -->
<g id="Node000034" class="node">
<title>Node34</title>
<g id="a_Node000034"><a xlink:title=" ">
<polygon fill="#e0e0e0" stroke="#999999" points="841,-19.25 795,-19.25 795,0 841,0 841,-19.25"/>
<text text-anchor="middle" x="818" y="-5.75" font-family="Helvetica,sans-Serif" font-size="10.00">TEnv.h</text>
</a>
</g>
</g>
<!-- Node22&#45;&gt;Node34 -->
<g id="edge54_Node000022_Node000034" class="edge">
<title>Node22&#45;&gt;Node34</title>
<g id="a_edge54_Node000022_Node000034"><a xlink:title=" ">
<path fill="none" stroke="#63b8ff" d="M519.63,-56.93C522.45,-56.33 525.28,-55.76 528,-55.25 638.27,-34.75 670.55,-41.87 783.48,-19.53"/>
<polygon fill="#63b8ff" stroke="#63b8ff" points="784.07,-22.98 793.18,-17.58 782.68,-16.12 784.07,-22.98"/>
</a>
</g>
</g>
<!-- Node35 -->
<g id="Node000035" class="node">
<title>Node35</title>
<g id="a_Node000035"><a xlink:title=" ">
<polygon fill="#e0e0e0" stroke="#999999" points="903.25,-19.25 858.75,-19.25 858.75,0 903.25,0 903.25,-19.25"/>
<text text-anchor="middle" x="881" y="-5.75" font-family="Helvetica,sans-Serif" font-size="10.00">stdio.h</text>
</a>
</g>
</g>
<!-- Node22&#45;&gt;Node35 -->
<g id="edge55_Node000022_Node000035" class="edge">
<title>Node22&#45;&gt;Node35</title>
<g id="a_edge55_Node000022_Node000035"><a xlink:title=" ">
<path fill="none" stroke="#63b8ff" d="M519.62,-56.85C522.44,-56.27 525.27,-55.72 528,-55.25 666.32,-31.48 706.59,-45.86 847.21,-19.5"/>
<polygon fill="#63b8ff" stroke="#63b8ff" points="847.76,-22.96 856.93,-17.64 846.45,-16.09 847.76,-22.96"/>
</a>
</g>
</g>
<!-- Node36 -->
<g id="Node000036" class="node">
<title>Node36</title>
<g id="a_Node000036"><a xlink:title=" ">
<polygon fill="#e0e0e0" stroke="#999999" points="968.38,-19.25 921.62,-19.25 921.62,0 968.38,0 968.38,-19.25"/>
<text text-anchor="middle" x="945" y="-5.75" font-family="Helvetica,sans-Serif" font-size="10.00">stdlib.h</text>
</a>
</g>
</g>
<!-- Node22&#45;&gt;Node36 -->
<g id="edge56_Node000022_Node000036" class="edge">
<title>Node22&#45;&gt;Node36</title>
<g id="a_edge56_Node000022_Node000036"><a xlink:title=" ">
<path fill="none" stroke="#63b8ff" d="M519.61,-56.8C522.43,-56.23 525.27,-55.69 528,-55.25 693.56,-28.32 741.16,-48.13 910.01,-19.28"/>
<polygon fill="#63b8ff" stroke="#63b8ff" points="910.57,-22.74 919.82,-17.57 909.36,-15.84 910.57,-22.74"/>
</a>
</g>
</g>
<!-- Node37 -->
<g id="Node000037" class="node">
<title>Node37</title>
<g id="a_Node000037"><a xlink:title=" ">
<polygon fill="#e0e0e0" stroke="#999999" points="1045.75,-19.25 986.25,-19.25 986.25,0 1045.75,0 1045.75,-19.25"/>
<text text-anchor="middle" x="1016" y="-5.75" font-family="Helvetica,sans-Serif" font-size="10.00">sys/wait.h</text>
</a>
</g>
</g>
<!-- Node22&#45;&gt;Node37 -->
<g id="edge57_Node000022_Node000037" class="edge">
<title>Node22&#45;&gt;Node37</title>
<g id="a_edge57_Node000022_Node000037"><a xlink:title=" ">
<path fill="none" stroke="#63b8ff" d="M519.6,-56.76C522.43,-56.19 525.26,-55.68 528,-55.25 722.14,-25.01 776.99,-48.05 974.49,-19.4"/>
<polygon fill="#63b8ff" stroke="#63b8ff" points="974.97,-22.87 984.35,-17.95 973.94,-15.95 974.97,-22.87"/>
</a>
</g>
</g>
<!-- Node38 -->
<g id="Node000038" class="node">
<title>Node38</title>
<g id="a_Node000038"><a xlink:title=" ">
<polygon fill="#e0e0e0" stroke="#999999" points="1124.12,-19.25 1063.88,-19.25 1063.88,0 1124.12,0 1124.12,-19.25"/>
<text text-anchor="middle" x="1094" y="-5.75" font-family="Helvetica,sans-Serif" font-size="10.00">sys/prctl.h</text>
</a>
</g>
</g>
<!-- Node22&#45;&gt;Node38 -->
<g id="edge58_Node000022_Node000038" class="edge">
<title>Node22&#45;&gt;Node38</title>
<g id="a_edge58_Node000022_Node000038"><a xlink:title=" ">
<path fill="none" stroke="#63b8ff" d="M519.6,-56.73C522.42,-56.17 525.26,-55.66 528,-55.25 756.55,-21.03 820.63,-51.7 1052.26,-19.43"/>
<polygon fill="#63b8ff" stroke="#63b8ff" points="1052.52,-22.92 1061.92,-18.05 1051.53,-15.99 1052.52,-22.92"/>
</a>
</g>
</g>
</g>
</svg>
