<?xml version="1.0" encoding="UTF-8" standalone="no"?>
<!DOCTYPE svg PUBLIC "-//W3C//DTD SVG 1.1//EN"
 "http://www.w3.org/Graphics/SVG/1.1/DTD/svg11.dtd">
<!-- Generated by graphviz version 12.2.0 (20241103.1931)
 -->
<!-- Title: TAngularCorrelation.h Pages: 1 -->
<!--zoomable 304 -->

<svg id="main" version="1.1" xmlns="http://www.w3.org/2000/svg" xmlns:xlink="http://www.w3.org/1999/xlink" xml:space="preserve" onload="init(evt)">

<style type="text/css"><![CDATA[
.node, .edge {opacity: 0.7;}
.node.selected, .edge.selected {opacity: 1;}
.edge:hover path { stroke: red; }
.edge:hover polygon { stroke: red; fill: red; }
]]></style>

<defs>
  <circle id="rim" cx="0" cy="0" r="7"/>
  <circle id="rim2" cx="0" cy="0" r="3.5"/>
  <g id="zoomPlus">
    <use xlink:href="#rim" fill="#404040"><set attributeName="fill" to="#808080" begin="zoomplus.mouseover" end="zoomplus.mouseout"/></use>
    <path d="M-4,0h8M0,-4v8" fill="none" stroke="white" stroke-width="1.5" pointer-events="none"/>
  </g>
  <g id="zoomMin">
    <use xlink:href="#rim" fill="#404040"><set attributeName="fill" to="#808080" begin="zoomminus.mouseover" end="zoomminus.mouseout"/></use>
    <path d="M-4,0h8" fill="none" stroke="white" stroke-width="1.5" pointer-events="none"/>
  </g>
  <g id="arrowUp" transform="translate(30 24)">
    <use xlink:href="#rim"/>
    <path pointer-events="none" fill="none" stroke="white" stroke-width="1.5" d="M0,-3.0v7 M-2.5,-0.5L0,-3.0L2.5,-0.5"/>
  </g>
  <g id="arrowRight" transform="rotate(90) translate(36 -43)">
    <use xlink:href="#rim"/>
    <path pointer-events="none" fill="none" stroke="white" stroke-width="1.5" d="M0,-3.0v7 M-2.5,-0.5L0,-3.0L2.5,-0.5"/>
  </g>
  <g id="arrowDown" transform="rotate(180) translate(-30 -48)">
    <use xlink:href="#rim"/>
    <path pointer-events="none" fill="none" stroke="white" stroke-width="1.5" d="M0,-3.0v7 M-2.5,-0.5L0,-3.0L2.5,-0.5"/>
  </g>
  <g id="arrowLeft" transform="rotate(270) translate(-36 17)">
    <use xlink:href="#rim"/>
    <path pointer-events="none" fill="none" stroke="white" stroke-width="1.5" d="M0,-3.0v7 M-2.5,-0.5L0,-3.0L2.5,-0.5"/>
  </g>
  <g id="resetDef">
    <use xlink:href="#rim2" fill="#404040"><set attributeName="fill" to="#808080" begin="reset.mouseover" end="reset.mouseout"/></use>
  </g>
</defs>
<script type="application/ecmascript">
var viewWidth = 2021;
var viewHeight = 304;
var sectionId = 'dynsection-0';
</script>
<script type="application/ecmascript" xlink:href="svg.min.js"/>
<svg id="graph" class="graph">
<g id="viewport">
<title>TAngularCorrelation.h</title>
<!-- Node1 -->
<g id="Node000001" class="node">
<title>Node1</title>
<g id="a_Node000001"><a xlink:title=" ">
<polygon fill="#999999" stroke="#666666" points="1711.25,-295.5 1602.25,-295.5 1602.25,-276.25 1711.25,-276.25 1711.25,-295.5"/>
<text text-anchor="middle" x="1656.75" y="-282" font-family="Helvetica,sans-Serif" font-size="10.00">TAngularCorrelation.h</text>
</a>
</g>
</g>
<!-- Node2 -->
<g id="Node000002" class="node">
<title>Node2</title>
<g id="a_Node000002"><a xlink:title=" ">
<polygon fill="#e0e0e0" stroke="#999999" points="53.5,-19.25 0,-19.25 0,0 53.5,0 53.5,-19.25"/>
<text text-anchor="middle" x="26.75" y="-5.75" font-family="Helvetica,sans-Serif" font-size="10.00">iostream</text>
</a>
</g>
</g>
<!-- Node1&#45;&gt;Node2 -->
<g id="edge1_Node000001_Node000002" class="edge">
<title>Node1&#45;&gt;Node2</title>
<g id="a_edge1_Node000001_Node000002"><a xlink:title=" ">
<path fill="none" stroke="#63b8ff" d="M1601.92,-283.84C1331.61,-278.41 153.75,-250.49 153.75,-176.38 153.75,-176.38 153.75,-176.38 153.75,-119.12 153.75,-71.48 101.45,-40.31 63.97,-24.08"/>
<polygon fill="#63b8ff" stroke="#63b8ff" points="65.35,-20.86 54.77,-20.29 62.68,-27.34 65.35,-20.86"/>
</a>
</g>
</g>
<!-- Node3 -->
<g id="Node000003" class="node">
<title>Node3</title>
<g id="a_Node000003"><a xlink:title=" ">
<polygon fill="#e0e0e0" stroke="#999999" points="357.25,-74.5 308.25,-74.5 308.25,-55.25 357.25,-55.25 357.25,-74.5"/>
<text text-anchor="middle" x="332.75" y="-61" font-family="Helvetica,sans-Serif" font-size="10.00">fstream</text>
</a>
</g>
</g>
<!-- Node1&#45;&gt;Node3 -->
<g id="edge2_Node000001_Node000003" class="edge">
<title>Node1&#45;&gt;Node3</title>
<g id="a_edge2_Node000001_Node000003"><a xlink:title=" ">
<path fill="none" stroke="#63b8ff" d="M1601.98,-283.89C1401.53,-279.69 708.87,-259.95 502.75,-185 439.79,-162.11 378.63,-109.65 349.85,-82.64"/>
<polygon fill="#63b8ff" stroke="#63b8ff" points="352.43,-80.26 342.78,-75.88 347.59,-85.32 352.43,-80.26"/>
</a>
</g>
</g>
<!-- Node4 -->
<g id="Node000004" class="node">
<title>Node4</title>
<g id="a_Node000004"><a xlink:title=" ">
<polygon fill="#e0e0e0" stroke="#999999" points="1353.75,-19.25 1313.75,-19.25 1313.75,0 1353.75,0 1353.75,-19.25"/>
<text text-anchor="middle" x="1333.75" y="-5.75" font-family="Helvetica,sans-Serif" font-size="10.00">string</text>
</a>
</g>
</g>
<!-- Node1&#45;&gt;Node4 -->
<g id="edge3_Node000001_Node000004" class="edge">
<title>Node1&#45;&gt;Node4</title>
<g id="a_edge3_Node000001_Node000004"><a xlink:title=" ">
<path fill="none" stroke="#63b8ff" d="M1656.75,-275.87C1656.75,-257.28 1656.75,-213.3 1656.75,-176.38 1656.75,-176.38 1656.75,-176.38 1656.75,-119.12 1656.75,-80.78 1632.4,-73.64 1598.75,-55.25 1558.93,-33.49 1426.61,-19.03 1365.36,-13.34"/>
<polygon fill="#63b8ff" stroke="#63b8ff" points="1365.89,-9.88 1355.61,-12.46 1365.26,-16.85 1365.89,-9.88"/>
</a>
</g>
</g>
<!-- Node5 -->
<g id="Node000005" class="node">
<title>Node5</title>
<g id="a_Node000005"><a xlink:title=" ">
<polygon fill="#e0e0e0" stroke="#999999" points="1728.25,-240.25 1685.25,-240.25 1685.25,-221 1728.25,-221 1728.25,-240.25"/>
<text text-anchor="middle" x="1706.75" y="-226.75" font-family="Helvetica,sans-Serif" font-size="10.00">vector</text>
</a>
</g>
</g>
<!-- Node1&#45;&gt;Node5 -->
<g id="edge4_Node000001_Node000005" class="edge">
<title>Node1&#45;&gt;Node5</title>
<g id="a_edge4_Node000001_Node000005"><a xlink:title=" ">
<path fill="none" stroke="#63b8ff" d="M1665.01,-276.08C1671.91,-268.73 1681.97,-258.01 1690.49,-248.94"/>
<polygon fill="#63b8ff" stroke="#63b8ff" points="1692.98,-251.4 1697.28,-241.71 1687.88,-246.61 1692.98,-251.4"/>
</a>
</g>
</g>
<!-- Node6 -->
<g id="Node000006" class="node">
<title>Node6</title>
<g id="a_Node000006"><a xlink:title=" ">
<polygon fill="#e0e0e0" stroke="#999999" points="1590.88,-129.75 1548.62,-129.75 1548.62,-110.5 1590.88,-110.5 1590.88,-129.75"/>
<text text-anchor="middle" x="1569.75" y="-116.25" font-family="Helvetica,sans-Serif" font-size="10.00">TH1.h</text>
</a>
</g>
</g>
<!-- Node1&#45;&gt;Node6 -->
<g id="edge5_Node000001_Node000006" class="edge">
<title>Node1&#45;&gt;Node6</title>
<g id="a_edge5_Node000001_Node000006"><a xlink:title=" ">
<path fill="none" stroke="#63b8ff" d="M1652.07,-276.07C1638.44,-250.42 1598.54,-175.3 1579.75,-139.94"/>
<polygon fill="#63b8ff" stroke="#63b8ff" points="1582.94,-138.5 1575.16,-131.31 1576.76,-141.78 1582.94,-138.5"/>
</a>
</g>
</g>
<!-- Node7 -->
<g id="Node000007" class="node">
<title>Node7</title>
<g id="a_Node000007"><a xlink:title=" ">
<polygon fill="#e0e0e0" stroke="#999999" points="1788.88,-240.25 1746.62,-240.25 1746.62,-221 1788.88,-221 1788.88,-240.25"/>
<text text-anchor="middle" x="1767.75" y="-226.75" font-family="Helvetica,sans-Serif" font-size="10.00">TH2.h</text>
</a>
</g>
</g>
<!-- Node1&#45;&gt;Node7 -->
<g id="edge6_Node000001_Node000007" class="edge">
<title>Node1&#45;&gt;Node7</title>
<g id="a_edge6_Node000001_Node000007"><a xlink:title=" ">
<path fill="none" stroke="#63b8ff" d="M1675.58,-275.84C1692.8,-267.58 1718.55,-255.23 1738.46,-245.68"/>
<polygon fill="#63b8ff" stroke="#63b8ff" points="1739.96,-248.84 1747.46,-241.36 1736.93,-242.53 1739.96,-248.84"/>
</a>
</g>
</g>
<!-- Node8 -->
<g id="Node000008" class="node">
<title>Node8</title>
<g id="a_Node000008"><a xlink:title=" ">
<polygon fill="#e0e0e0" stroke="#999999" points="1880.25,-240.25 1807.25,-240.25 1807.25,-221 1880.25,-221 1880.25,-240.25"/>
<text text-anchor="middle" x="1843.75" y="-226.75" font-family="Helvetica,sans-Serif" font-size="10.00">THnSparse.h</text>
</a>
</g>
</g>
<!-- Node1&#45;&gt;Node8 -->
<g id="edge7_Node000001_Node000008" class="edge">
<title>Node1&#45;&gt;Node8</title>
<g id="a_edge7_Node000001_Node000008"><a xlink:title=" ">
<path fill="none" stroke="#63b8ff" d="M1688.47,-275.84C1719.5,-267.01 1766.96,-253.49 1801.24,-243.73"/>
<polygon fill="#63b8ff" stroke="#63b8ff" points="1801.76,-247.22 1810.42,-241.12 1799.84,-240.49 1801.76,-247.22"/>
</a>
</g>
</g>
<!-- Node9 -->
<g id="Node000009" class="node">
<title>Node9</title>
<g id="a_Node000009"><a xlink:title=" ">
<polygon fill="#e0e0e0" stroke="#999999" points="2012.88,-240.25 1898.62,-240.25 1898.62,-221 2012.88,-221 2012.88,-240.25"/>
<text text-anchor="middle" x="1955.75" y="-226.75" font-family="Helvetica,sans-Serif" font-size="10.00">TGraphAsymmErrors.h</text>
</a>
</g>
</g>
<!-- Node1&#45;&gt;Node9 -->
<g id="edge8_Node000001_Node000009" class="edge">
<title>Node1&#45;&gt;Node9</title>
<g id="a_edge8_Node000001_Node000009"><a xlink:title=" ">
<path fill="none" stroke="#63b8ff" d="M1707.81,-275.78C1759.23,-266.62 1838.61,-252.49 1893.64,-242.69"/>
<polygon fill="#63b8ff" stroke="#63b8ff" points="1893.93,-246.19 1903.16,-240.99 1892.7,-239.3 1893.93,-246.19"/>
</a>
</g>
</g>
<!-- Node10 -->
<g id="Node000010" class="node">
<title>Node10</title>
<g id="a_Node000010"><a xlink:href="_t_peak_8h.html" target="_top" xlink:title=" ">
<polygon fill="white" stroke="#666666" points="1203.75,-240.25 1151.75,-240.25 1151.75,-221 1203.75,-221 1203.75,-240.25"/>
<text text-anchor="middle" x="1177.75" y="-226.75" font-family="Helvetica,sans-Serif" font-size="10.00">TPeak.h</text>
</a>
</g>
</g>
<!-- Node1&#45;&gt;Node10 -->
<g id="edge9_Node000001_Node000010" class="edge">
<title>Node1&#45;&gt;Node10</title>
<g id="a_edge9_Node000001_Node000010"><a xlink:title=" ">
<path fill="none" stroke="#63b8ff" d="M1601.8,-278.77C1503.45,-267.83 1299.73,-245.19 1215.48,-235.82"/>
<polygon fill="#63b8ff" stroke="#63b8ff" points="1216.01,-232.36 1205.68,-234.73 1215.23,-239.31 1216.01,-232.36"/>
</a>
</g>
</g>
<!-- Node10&#45;&gt;Node4 -->
<g id="edge10_Node000010_Node000004" class="edge">
<title>Node10&#45;&gt;Node4</title>
<g id="a_edge10_Node000010_Node000004"><a xlink:title=" ">
<path fill="none" stroke="#63b8ff" d="M1204,-227.74C1288.78,-221.04 1552.58,-195.17 1599.75,-129.75 1661.17,-44.57 1448.17,-19.21 1365.34,-12.66"/>
<polygon fill="#63b8ff" stroke="#63b8ff" points="1365.85,-9.19 1355.62,-11.94 1365.33,-16.17 1365.85,-9.19"/>
</a>
</g>
</g>
<!-- Node11 -->
<g id="Node000011" class="node">
<title>Node11</title>
<g id="a_Node000011"><a xlink:title=" ">
<polygon fill="#e0e0e0" stroke="#999999" points="1205.62,-185 1149.88,-185 1149.88,-165.75 1205.62,-165.75 1205.62,-185"/>
<text text-anchor="middle" x="1177.75" y="-171.5" font-family="Helvetica,sans-Serif" font-size="10.00">algorithm</text>
</a>
</g>
</g>
<!-- Node10&#45;&gt;Node11 -->
<g id="edge11_Node000010_Node000011" class="edge">
<title>Node10&#45;&gt;Node11</title>
<g id="a_edge11_Node000010_Node000011"><a xlink:title=" ">
<path fill="none" stroke="#63b8ff" d="M1177.75,-220.83C1177.75,-214.32 1177.75,-205.17 1177.75,-196.87"/>
<polygon fill="#63b8ff" stroke="#63b8ff" points="1181.25,-196.87 1177.75,-186.87 1174.25,-196.87 1181.25,-196.87"/>
</a>
</g>
</g>
<!-- Node12 -->
<g id="Node000012" class="node">
<title>Node12</title>
<g id="a_Node000012"><a xlink:title=" ">
<polygon fill="#e0e0e0" stroke="#999999" points="1493.12,-129.75 1452.38,-129.75 1452.38,-110.5 1493.12,-110.5 1493.12,-129.75"/>
<text text-anchor="middle" x="1472.75" y="-116.25" font-family="Helvetica,sans-Serif" font-size="10.00">TF1.h</text>
</a>
</g>
</g>
<!-- Node10&#45;&gt;Node12 -->
<g id="edge12_Node000010_Node000012" class="edge">
<title>Node10&#45;&gt;Node12</title>
<g id="a_edge12_Node000010_Node000012"><a xlink:title=" ">
<path fill="none" stroke="#63b8ff" d="M1202.39,-220.56C1255.86,-200.9 1382.44,-154.34 1441.45,-132.64"/>
<polygon fill="#63b8ff" stroke="#63b8ff" points="1442.39,-136.02 1450.56,-129.29 1439.97,-129.45 1442.39,-136.02"/>
</a>
</g>
</g>
<!-- Node13 -->
<g id="Node000013" class="node">
<title>Node13</title>
<g id="a_Node000013"><a xlink:title=" ">
<polygon fill="#e0e0e0" stroke="#999999" points="1465.38,-74.5 1384.12,-74.5 1384.12,-55.25 1465.38,-55.25 1465.38,-74.5"/>
<text text-anchor="middle" x="1424.75" y="-61" font-family="Helvetica,sans-Serif" font-size="10.00">TFitResultPtr.h</text>
</a>
</g>
</g>
<!-- Node10&#45;&gt;Node13 -->
<g id="edge13_Node000010_Node000013" class="edge">
<title>Node10&#45;&gt;Node13</title>
<g id="a_edge13_Node000010_Node000013"><a xlink:title=" ">
<path fill="none" stroke="#63b8ff" d="M1204.15,-225.62C1274.96,-214.27 1466.17,-179.48 1501.75,-129.75 1516.74,-108.8 1488.52,-90.69 1462.12,-79.15"/>
<polygon fill="#63b8ff" stroke="#63b8ff" points="1463.79,-76.05 1453.21,-75.49 1461.13,-82.53 1463.79,-76.05"/>
</a>
</g>
</g>
<!-- Node14 -->
<g id="Node000014" class="node">
<title>Node14</title>
<g id="a_Node000014"><a xlink:title=" ">
<polygon fill="#e0e0e0" stroke="#999999" points="955,-74.5 886.5,-74.5 886.5,-55.25 955,-55.25 955,-74.5"/>
<text text-anchor="middle" x="920.75" y="-61" font-family="Helvetica,sans-Serif" font-size="10.00">TFitResult.h</text>
</a>
</g>
</g>
<!-- Node10&#45;&gt;Node14 -->
<g id="edge14_Node000010_Node000014" class="edge">
<title>Node10&#45;&gt;Node14</title>
<g id="a_edge14_Node000010_Node000014"><a xlink:title=" ">
<path fill="none" stroke="#63b8ff" d="M1151.37,-229.27C1048.93,-227.27 679.7,-214.24 608.75,-129.75 582,-97.9 587.42,-122.33 874.82,-74.9"/>
<polygon fill="#63b8ff" stroke="#63b8ff" points="875.27,-78.38 884.56,-73.28 874.12,-71.47 875.27,-78.38"/>
</a>
</g>
</g>
<!-- Node15 -->
<g id="Node000015" class="node">
<title>Node15</title>
<g id="a_Node000015"><a xlink:title=" ">
<polygon fill="#e0e0e0" stroke="#999999" points="579.62,-185 523.88,-185 523.88,-165.75 579.62,-165.75 579.62,-185"/>
<text text-anchor="middle" x="551.75" y="-171.5" font-family="Helvetica,sans-Serif" font-size="10.00">TGraph.h</text>
</a>
</g>
</g>
<!-- Node10&#45;&gt;Node15 -->
<g id="edge15_Node000010_Node000015" class="edge">
<title>Node10&#45;&gt;Node15</title>
<g id="a_edge15_Node000010_Node000015"><a xlink:title=" ">
<path fill="none" stroke="#63b8ff" d="M1151.43,-228.8C1068.86,-225.95 807.73,-215.02 593.75,-185 592.75,-184.86 591.74,-184.71 590.72,-184.55"/>
<polygon fill="#63b8ff" stroke="#63b8ff" points="591.62,-181.16 581.17,-182.88 590.42,-188.05 591.62,-181.16"/>
</a>
</g>
</g>
<!-- Node16 -->
<g id="Node000016" class="node">
<title>Node16</title>
<g id="a_Node000016"><a xlink:href="_t_g_r_s_i_functions_8h.html" target="_top" xlink:title=" ">
<polygon fill="white" stroke="#666666" points="561.88,-129.75 465.62,-129.75 465.62,-110.5 561.88,-110.5 561.88,-129.75"/>
<text text-anchor="middle" x="513.75" y="-116.25" font-family="Helvetica,sans-Serif" font-size="10.00">TGRSIFunctions.h</text>
</a>
</g>
</g>
<!-- Node10&#45;&gt;Node16 -->
<g id="edge16_Node000010_Node000016" class="edge">
<title>Node10&#45;&gt;Node16</title>
<g id="a_edge16_Node000010_Node000016"><a xlink:title=" ">
<path fill="none" stroke="#63b8ff" d="M1151.35,-229.9C1033.48,-230.88 559.24,-231.84 514.75,-185 503.88,-173.56 504.79,-155.1 507.74,-140.96"/>
<polygon fill="#63b8ff" stroke="#63b8ff" points="511.09,-141.95 510.23,-131.39 504.32,-140.19 511.09,-141.95"/>
</a>
</g>
</g>
<!-- Node36 -->
<g id="Node000036" class="node">
<title>Node36</title>
<g id="a_Node000036"><a xlink:href="_t_g_r_s_i_fit_8h.html" target="_top" xlink:title=" ">
<polygon fill="white" stroke="#666666" points="1043.12,-185 978.38,-185 978.38,-165.75 1043.12,-165.75 1043.12,-185"/>
<text text-anchor="middle" x="1010.75" y="-171.5" font-family="Helvetica,sans-Serif" font-size="10.00">TGRSIFit.h</text>
</a>
</g>
</g>
<!-- Node10&#45;&gt;Node36 -->
<g id="edge43_Node000010_Node000036" class="edge">
<title>Node10&#45;&gt;Node36</title>
<g id="a_edge43_Node000010_Node000036"><a xlink:title=" ">
<path fill="none" stroke="#63b8ff" d="M1151.29,-221.19C1124.09,-212.52 1081.44,-198.91 1050.25,-188.97"/>
<polygon fill="#63b8ff" stroke="#63b8ff" points="1051.36,-185.65 1040.77,-185.95 1049.23,-192.32 1051.36,-185.65"/>
</a>
</g>
</g>
<!-- Node16&#45;&gt;Node2 -->
<g id="edge17_Node000016_Node000002" class="edge">
<title>Node16&#45;&gt;Node2</title>
<g id="a_edge17_Node000016_Node000002"><a xlink:title=" ">
<path fill="none" stroke="#63b8ff" d="M490.16,-110.02C467.94,-101.31 433.83,-87.61 404.75,-74.5 387.13,-66.56 384.28,-60.75 365.75,-55.25 239.16,-17.7 198.4,-41.74 64.86,-19.39"/>
<polygon fill="#63b8ff" stroke="#63b8ff" points="65.75,-15.99 55.3,-17.72 64.55,-22.88 65.75,-15.99"/>
</a>
</g>
</g>
<!-- Node16&#45;&gt;Node3 -->
<g id="edge18_Node000016_Node000003" class="edge">
<title>Node16&#45;&gt;Node3</title>
<g id="a_edge18_Node000016_Node000003"><a xlink:title=" ">
<path fill="none" stroke="#63b8ff" d="M483.05,-110.09C451.24,-100.73 401.6,-86.13 368.16,-76.29"/>
<polygon fill="#63b8ff" stroke="#63b8ff" points="369.52,-73.04 358.94,-73.58 367.54,-79.76 369.52,-73.04"/>
</a>
</g>
</g>
<!-- Node16&#45;&gt;Node4 -->
<g id="edge19_Node000016_Node000004" class="edge">
<title>Node16&#45;&gt;Node4</title>
<g id="a_edge19_Node000016_Node000004"><a xlink:title=" ">
<path fill="none" stroke="#63b8ff" d="M562.28,-110.28C599.25,-102.81 651.06,-90.71 694.75,-74.5 712.5,-67.91 714.51,-60.33 732.75,-55.25 841.57,-24.96 1194.39,-14.02 1302.18,-11.34"/>
<polygon fill="#63b8ff" stroke="#63b8ff" points="1302.1,-14.84 1312.01,-11.1 1301.93,-7.84 1302.1,-14.84"/>
</a>
</g>
</g>
<!-- Node16&#45;&gt;Node13 -->
<g id="edge23_Node000016_Node000013" class="edge">
<title>Node16&#45;&gt;Node13</title>
<g id="a_edge23_Node000016_Node000013"><a xlink:title=" ">
<path fill="none" stroke="#63b8ff" d="M562.05,-114.4C577.01,-113.03 593.55,-111.6 608.75,-110.5 896.91,-89.55 1242.98,-73.69 1372.48,-68.08"/>
<polygon fill="#63b8ff" stroke="#63b8ff" points="1372.61,-71.58 1382.45,-67.65 1372.31,-64.59 1372.61,-71.58"/>
</a>
</g>
</g>
<!-- Node16&#45;&gt;Node14 -->
<g id="edge24_Node000016_Node000014" class="edge">
<title>Node16&#45;&gt;Node14</title>
<g id="a_edge24_Node000016_Node000014"><a xlink:title=" ">
<path fill="none" stroke="#63b8ff" d="M562.14,-112.3C566.74,-111.68 571.33,-111.07 575.75,-110.5 706.27,-93.64 742.38,-95.68 875.06,-74.82"/>
<polygon fill="#63b8ff" stroke="#63b8ff" points="875.24,-78.34 884.56,-73.32 874.14,-71.43 875.24,-78.34"/>
</a>
</g>
</g>
<!-- Node17 -->
<g id="Node000017" class="node">
<title>Node17</title>
<g id="a_Node000017"><a xlink:title=" ">
<polygon fill="#e0e0e0" stroke="#999999" points="531.25,-74.5 488.25,-74.5 488.25,-55.25 531.25,-55.25 531.25,-74.5"/>
<text text-anchor="middle" x="509.75" y="-61" font-family="Helvetica,sans-Serif" font-size="10.00">cmath</text>
</a>
</g>
</g>
<!-- Node16&#45;&gt;Node17 -->
<g id="edge20_Node000016_Node000017" class="edge">
<title>Node16&#45;&gt;Node17</title>
<g id="a_edge20_Node000016_Node000017"><a xlink:title=" ">
<path fill="none" stroke="#63b8ff" d="M513.09,-110.33C512.59,-103.74 511.9,-94.46 511.27,-86.07"/>
<polygon fill="#63b8ff" stroke="#63b8ff" points="514.78,-86.08 510.54,-76.37 507.8,-86.6 514.78,-86.08"/>
</a>
</g>
</g>
<!-- Node18 -->
<g id="Node000018" class="node">
<title>Node18</title>
<g id="a_Node000018"><a xlink:title=" ">
<polygon fill="#e0e0e0" stroke="#999999" points="793.38,-74.5 742.12,-74.5 742.12,-55.25 793.38,-55.25 793.38,-74.5"/>
<text text-anchor="middle" x="767.75" y="-61" font-family="Helvetica,sans-Serif" font-size="10.00">TMath.h</text>
</a>
</g>
</g>
<!-- Node16&#45;&gt;Node18 -->
<g id="edge21_Node000016_Node000018" class="edge">
<title>Node16&#45;&gt;Node18</title>
<g id="a_edge21_Node000016_Node000018"><a xlink:title=" ">
<path fill="none" stroke="#63b8ff" d="M557.62,-110.07C600.89,-101.11 668.9,-86.98 727.75,-74.5 728.75,-74.29 729.77,-74.07 730.8,-73.85"/>
<polygon fill="#63b8ff" stroke="#63b8ff" points="731.41,-77.3 740.45,-71.79 729.94,-70.46 731.41,-77.3"/>
</a>
</g>
</g>
<!-- Node19 -->
<g id="Node000019" class="node">
<title>Node19</title>
<g id="a_Node000019"><a xlink:title=" ">
<polygon fill="#e0e0e0" stroke="#999999" points="868.38,-74.5 811.12,-74.5 811.12,-55.25 868.38,-55.25 868.38,-74.5"/>
<text text-anchor="middle" x="839.75" y="-61" font-family="Helvetica,sans-Serif" font-size="10.00">TROOT.h</text>
</a>
</g>
</g>
<!-- Node16&#45;&gt;Node19 -->
<g id="edge22_Node000016_Node000019" class="edge">
<title>Node16&#45;&gt;Node19</title>
<g id="a_edge22_Node000016_Node000019"><a xlink:title=" ">
<path fill="none" stroke="#63b8ff" d="M562.31,-112.08C627.69,-102.53 741.76,-85.58 799.59,-74.96"/>
<polygon fill="#63b8ff" stroke="#63b8ff" points="800.05,-78.44 809.22,-73.14 798.75,-71.56 800.05,-78.44"/>
</a>
</g>
</g>
<!-- Node20 -->
<g id="Node000020" class="node">
<title>Node20</title>
<g id="a_Node000020"><a xlink:title=" ">
<polygon fill="#e0e0e0" stroke="#999999" points="685.75,-74.5 549.75,-74.5 549.75,-55.25 685.75,-55.25 685.75,-74.5"/>
<text text-anchor="middle" x="617.75" y="-61" font-family="Helvetica,sans-Serif" font-size="10.00">Math/SpecFuncMathMore.h</text>
</a>
</g>
</g>
<!-- Node16&#45;&gt;Node20 -->
<g id="edge25_Node000016_Node000020" class="edge">
<title>Node16&#45;&gt;Node20</title>
<g id="a_edge25_Node000016_Node000020"><a xlink:title=" ">
<path fill="none" stroke="#63b8ff" d="M531.39,-110.09C547.38,-101.91 571.21,-89.71 589.79,-80.19"/>
<polygon fill="#63b8ff" stroke="#63b8ff" points="591.37,-83.32 598.67,-75.64 588.18,-77.08 591.37,-83.32"/>
</a>
</g>
</g>
<!-- Node21 -->
<g id="Node000021" class="node">
<title>Node21</title>
<g id="a_Node000021"><a xlink:href="_globals_8h.html" target="_top" xlink:title=" ">
<polygon fill="white" stroke="#666666" points="470,-74.5 413.5,-74.5 413.5,-55.25 470,-55.25 470,-74.5"/>
<text text-anchor="middle" x="441.75" y="-61" font-family="Helvetica,sans-Serif" font-size="10.00">Globals.h</text>
</a>
</g>
</g>
<!-- Node16&#45;&gt;Node21 -->
<g id="edge26_Node000016_Node000021" class="edge">
<title>Node16&#45;&gt;Node21</title>
<g id="a_edge26_Node000016_Node000021"><a xlink:title=" ">
<path fill="none" stroke="#63b8ff" d="M501.54,-110.09C490.92,-102.24 475.31,-90.7 462.71,-81.37"/>
<polygon fill="#63b8ff" stroke="#63b8ff" points="465.12,-78.81 455,-75.67 460.96,-84.44 465.12,-78.81"/>
</a>
</g>
</g>
<!-- Node21&#45;&gt;Node2 -->
<g id="edge28_Node000021_Node000002" class="edge">
<title>Node21&#45;&gt;Node2</title>
<g id="a_edge28_Node000021_Node000002"><a xlink:title=" ">
<path fill="none" stroke="#63b8ff" d="M413.35,-57.66C408.81,-56.78 404.16,-55.94 399.75,-55.25 254.55,-32.64 213.19,-44.25 65.12,-19.43"/>
<polygon fill="#63b8ff" stroke="#63b8ff" points="65.74,-15.99 55.29,-17.76 64.56,-22.89 65.74,-15.99"/>
</a>
</g>
</g>
<!-- Node21&#45;&gt;Node4 -->
<g id="edge31_Node000021_Node000004" class="edge">
<title>Node21&#45;&gt;Node4</title>
<g id="a_edge31_Node000021_Node000004"><a xlink:title=" ">
<path fill="none" stroke="#63b8ff" d="M470.29,-56.85C473.47,-56.23 476.67,-55.68 479.75,-55.25 643.39,-32.57 1167.93,-15.6 1302.2,-11.55"/>
<polygon fill="#63b8ff" stroke="#63b8ff" points="1302.21,-15.05 1312.1,-11.25 1302,-8.05 1302.21,-15.05"/>
</a>
</g>
</g>
<!-- Node22 -->
<g id="Node000022" class="node">
<title>Node22</title>
<g id="a_Node000022"><a xlink:title=" ">
<polygon fill="#e0e0e0" stroke="#999999" points="942.38,-19.25 897.12,-19.25 897.12,0 942.38,0 942.38,-19.25"/>
<text text-anchor="middle" x="919.75" y="-5.75" font-family="Helvetica,sans-Serif" font-size="10.00">cstdint</text>
</a>
</g>
</g>
<!-- Node21&#45;&gt;Node22 -->
<g id="edge27_Node000021_Node000022" class="edge">
<title>Node21&#45;&gt;Node22</title>
<g id="a_edge27_Node000021_Node000022"><a xlink:title=" ">
<path fill="none" stroke="#63b8ff" d="M470.3,-56.96C473.48,-56.32 476.68,-55.73 479.75,-55.25 655.99,-27.6 706.5,-50.12 885.64,-19.29"/>
<polygon fill="#63b8ff" stroke="#63b8ff" points="886.05,-22.77 895.3,-17.59 884.84,-15.88 886.05,-22.77"/>
</a>
</g>
</g>
<!-- Node23 -->
<g id="Node000023" class="node">
<title>Node23</title>
<g id="a_Node000023"><a xlink:title=" ">
<polygon fill="#e0e0e0" stroke="#999999" points="1010.62,-19.25 960.88,-19.25 960.88,0 1010.62,0 1010.62,-19.25"/>
<text text-anchor="middle" x="985.75" y="-5.75" font-family="Helvetica,sans-Serif" font-size="10.00">iomanip</text>
</a>
</g>
</g>
<!-- Node21&#45;&gt;Node23 -->
<g id="edge29_Node000021_Node000023" class="edge">
<title>Node21&#45;&gt;Node23</title>
<g id="a_edge29_Node000021_Node000023"><a xlink:title=" ">
<path fill="none" stroke="#63b8ff" d="M470.3,-56.92C473.47,-56.29 476.67,-55.71 479.75,-55.25 684.13,-24.43 742.1,-52.23 949.33,-19.34"/>
<polygon fill="#63b8ff" stroke="#63b8ff" points="949.79,-22.81 959.11,-17.76 948.68,-15.9 949.79,-22.81"/>
</a>
</g>
</g>
<!-- Node24 -->
<g id="Node000024" class="node">
<title>Node24</title>
<g id="a_Node000024"><a xlink:title=" ">
<polygon fill="#e0e0e0" stroke="#999999" points="129.75,-19.25 71.75,-19.25 71.75,0 129.75,0 129.75,-19.25"/>
<text text-anchor="middle" x="100.75" y="-5.75" font-family="Helvetica,sans-Serif" font-size="10.00">stdexcept</text>
</a>
</g>
</g>
<!-- Node21&#45;&gt;Node24 -->
<g id="edge30_Node000021_Node000024" class="edge">
<title>Node21&#45;&gt;Node24</title>
<g id="a_edge30_Node000021_Node000024"><a xlink:title=" ">
<path fill="none" stroke="#63b8ff" d="M413.33,-57.78C408.8,-56.88 404.15,-56 399.75,-55.25 287.83,-36.06 255.87,-39.96 141.15,-19.55"/>
<polygon fill="#63b8ff" stroke="#63b8ff" points="142.11,-16.16 131.65,-17.83 140.87,-23.05 142.11,-16.16"/>
</a>
</g>
</g>
<!-- Node25 -->
<g id="Node000025" class="node">
<title>Node25</title>
<g id="a_Node000025"><a xlink:title=" ">
<polygon fill="#e0e0e0" stroke="#999999" points="189.88,-19.25 147.62,-19.25 147.62,0 189.88,0 189.88,-19.25"/>
<text text-anchor="middle" x="168.75" y="-5.75" font-family="Helvetica,sans-Serif" font-size="10.00">cstdio</text>
</a>
</g>
</g>
<!-- Node21&#45;&gt;Node25 -->
<g id="edge32_Node000021_Node000025" class="edge">
<title>Node21&#45;&gt;Node25</title>
<g id="a_edge32_Node000021_Node000025"><a xlink:title=" ">
<path fill="none" stroke="#63b8ff" d="M413.3,-57.93C408.77,-57.01 404.14,-56.09 399.75,-55.25 314.11,-38.79 289.08,-39.71 201.33,-19.66"/>
<polygon fill="#63b8ff" stroke="#63b8ff" points="202.32,-16.3 191.79,-17.45 200.74,-23.12 202.32,-16.3"/>
</a>
</g>
</g>
<!-- Node26 -->
<g id="Node000026" class="node">
<title>Node26</title>
<g id="a_Node000026"><a xlink:title=" ">
<polygon fill="#e0e0e0" stroke="#999999" points="252,-19.25 207.5,-19.25 207.5,0 252,0 252,-19.25"/>
<text text-anchor="middle" x="229.75" y="-5.75" font-family="Helvetica,sans-Serif" font-size="10.00">cstdlib</text>
</a>
</g>
</g>
<!-- Node21&#45;&gt;Node26 -->
<g id="edge33_Node000021_Node000026" class="edge">
<title>Node21&#45;&gt;Node26</title>
<g id="a_edge33_Node000021_Node000026"><a xlink:title=" ">
<path fill="none" stroke="#63b8ff" d="M413.16,-57.1C379.52,-49.07 321.73,-35.1 263.32,-19.87"/>
<polygon fill="#63b8ff" stroke="#63b8ff" points="264.44,-16.55 253.88,-17.4 262.67,-23.32 264.44,-16.55"/>
</a>
</g>
</g>
<!-- Node27 -->
<g id="Node000027" class="node">
<title>Node27</title>
<g id="a_Node000027"><a xlink:title=" ">
<polygon fill="#e0e0e0" stroke="#999999" points="329.5,-19.25 270,-19.25 270,0 329.5,0 329.5,-19.25"/>
<text text-anchor="middle" x="299.75" y="-5.75" font-family="Helvetica,sans-Serif" font-size="10.00">execinfo.h</text>
</a>
</g>
</g>
<!-- Node21&#45;&gt;Node27 -->
<g id="edge34_Node000021_Node000027" class="edge">
<title>Node21&#45;&gt;Node27</title>
<g id="a_edge34_Node000021_Node000027"><a xlink:title=" ">
<path fill="none" stroke="#63b8ff" d="M417.66,-54.84C394.81,-46.27 360.23,-33.31 334.42,-23.63"/>
<polygon fill="#63b8ff" stroke="#63b8ff" points="335.97,-20.47 325.37,-20.23 333.51,-27.02 335.97,-20.47"/>
</a>
</g>
</g>
<!-- Node28 -->
<g id="Node000028" class="node">
<title>Node28</title>
<g id="a_Node000028"><a xlink:title=" ">
<polygon fill="#e0e0e0" stroke="#999999" points="398,-19.25 347.5,-19.25 347.5,0 398,0 398,-19.25"/>
<text text-anchor="middle" x="372.75" y="-5.75" font-family="Helvetica,sans-Serif" font-size="10.00">cxxabi.h</text>
</a>
</g>
</g>
<!-- Node21&#45;&gt;Node28 -->
<g id="edge35_Node000021_Node000028" class="edge">
<title>Node21&#45;&gt;Node28</title>
<g id="a_edge35_Node000021_Node000028"><a xlink:title=" ">
<path fill="none" stroke="#63b8ff" d="M430.05,-54.84C419.97,-47.07 405.21,-35.67 393.19,-26.4"/>
<polygon fill="#63b8ff" stroke="#63b8ff" points="395.54,-23.79 385.48,-20.45 391.26,-29.33 395.54,-23.79"/>
</a>
</g>
</g>
<!-- Node29 -->
<g id="Node000029" class="node">
<title>Node29</title>
<g id="a_Node000029"><a xlink:title=" ">
<polygon fill="#e0e0e0" stroke="#999999" points="467.38,-19.25 416.12,-19.25 416.12,0 467.38,0 467.38,-19.25"/>
<text text-anchor="middle" x="441.75" y="-5.75" font-family="Helvetica,sans-Serif" font-size="10.00">sstream</text>
</a>
</g>
</g>
<!-- Node21&#45;&gt;Node29 -->
<g id="edge36_Node000021_Node000029" class="edge">
<title>Node21&#45;&gt;Node29</title>
<g id="a_edge36_Node000021_Node000029"><a xlink:title=" ">
<path fill="none" stroke="#63b8ff" d="M441.75,-55.08C441.75,-48.57 441.75,-39.42 441.75,-31.12"/>
<polygon fill="#63b8ff" stroke="#63b8ff" points="445.25,-31.12 441.75,-21.12 438.25,-31.12 445.25,-31.12"/>
</a>
</g>
</g>
<!-- Node30 -->
<g id="Node000030" class="node">
<title>Node30</title>
<g id="a_Node000030"><a xlink:title=" ">
<polygon fill="#e0e0e0" stroke="#999999" points="522.25,-19.25 485.25,-19.25 485.25,0 522.25,0 522.25,-19.25"/>
<text text-anchor="middle" x="503.75" y="-5.75" font-family="Helvetica,sans-Serif" font-size="10.00">array</text>
</a>
</g>
</g>
<!-- Node21&#45;&gt;Node30 -->
<g id="edge37_Node000021_Node000030" class="edge">
<title>Node21&#45;&gt;Node30</title>
<g id="a_edge37_Node000021_Node000030"><a xlink:title=" ">
<path fill="none" stroke="#63b8ff" d="M452.27,-54.84C461.14,-47.22 474.06,-36.12 484.74,-26.95"/>
<polygon fill="#63b8ff" stroke="#63b8ff" points="486.93,-29.68 492.24,-20.51 482.37,-24.37 486.93,-29.68"/>
</a>
</g>
</g>
<!-- Node31 -->
<g id="Node000031" class="node">
<title>Node31</title>
<g id="a_Node000031"><a xlink:title=" ">
<polygon fill="#e0e0e0" stroke="#999999" points="591,-19.25 540.5,-19.25 540.5,0 591,0 591,-19.25"/>
<text text-anchor="middle" x="565.75" y="-5.75" font-family="Helvetica,sans-Serif" font-size="10.00">memory</text>
</a>
</g>
</g>
<!-- Node21&#45;&gt;Node31 -->
<g id="edge38_Node000021_Node000031" class="edge">
<title>Node21&#45;&gt;Node31</title>
<g id="a_edge38_Node000021_Node000031"><a xlink:title=" ">
<path fill="none" stroke="#63b8ff" d="M462.78,-54.84C482.38,-46.43 511.86,-33.77 534.26,-24.15"/>
<polygon fill="#63b8ff" stroke="#63b8ff" points="535.41,-27.46 543.22,-20.3 532.65,-21.03 535.41,-27.46"/>
</a>
</g>
</g>
<!-- Node32 -->
<g id="Node000032" class="node">
<title>Node32</title>
<g id="a_Node000032"><a xlink:title=" ">
<polygon fill="#e0e0e0" stroke="#999999" points="658.62,-19.25 608.88,-19.25 608.88,0 658.62,0 658.62,-19.25"/>
<text text-anchor="middle" x="633.75" y="-5.75" font-family="Helvetica,sans-Serif" font-size="10.00">unistd.h</text>
</a>
</g>
</g>
<!-- Node21&#45;&gt;Node32 -->
<g id="edge39_Node000021_Node000032" class="edge">
<title>Node21&#45;&gt;Node32</title>
<g id="a_edge39_Node000021_Node000032"><a xlink:title=" ">
<path fill="none" stroke="#63b8ff" d="M470.49,-55.9C504.43,-46.49 560.91,-30.83 597.74,-20.61"/>
<polygon fill="#63b8ff" stroke="#63b8ff" points="598.33,-24.08 607.03,-18.04 596.46,-17.33 598.33,-24.08"/>
</a>
</g>
</g>
<!-- Node33 -->
<g id="Node000033" class="node">
<title>Node33</title>
<g id="a_Node000033"><a xlink:title=" ">
<polygon fill="#e0e0e0" stroke="#999999" points="722.75,-19.25 676.75,-19.25 676.75,0 722.75,0 722.75,-19.25"/>
<text text-anchor="middle" x="699.75" y="-5.75" font-family="Helvetica,sans-Serif" font-size="10.00">TEnv.h</text>
</a>
</g>
</g>
<!-- Node21&#45;&gt;Node33 -->
<g id="edge40_Node000021_Node000033" class="edge">
<title>Node21&#45;&gt;Node33</title>
<g id="a_edge40_Node000021_Node000033"><a xlink:title=" ">
<path fill="none" stroke="#63b8ff" d="M470.36,-57.27C473.53,-56.57 476.7,-55.89 479.75,-55.25 559.52,-38.56 582.9,-38.32 665.21,-19.7"/>
<polygon fill="#63b8ff" stroke="#63b8ff" points="665.94,-23.12 674.91,-17.48 664.38,-16.3 665.94,-23.12"/>
</a>
</g>
</g>
<!-- Node34 -->
<g id="Node000034" class="node">
<title>Node34</title>
<g id="a_Node000034"><a xlink:title=" ">
<polygon fill="#e0e0e0" stroke="#999999" points="800.5,-19.25 741,-19.25 741,0 800.5,0 800.5,-19.25"/>
<text text-anchor="middle" x="770.75" y="-5.75" font-family="Helvetica,sans-Serif" font-size="10.00">sys/wait.h</text>
</a>
</g>
</g>
<!-- Node21&#45;&gt;Node34 -->
<g id="edge41_Node000021_Node000034" class="edge">
<title>Node21&#45;&gt;Node34</title>
<g id="a_edge41_Node000021_Node000034"><a xlink:title=" ">
<path fill="none" stroke="#63b8ff" d="M470.33,-57.13C473.5,-56.46 476.69,-55.81 479.75,-55.25 587.53,-35.35 618.52,-39.21 729.56,-19.52"/>
<polygon fill="#63b8ff" stroke="#63b8ff" points="729.85,-23.02 739.07,-17.81 728.61,-16.13 729.85,-23.02"/>
</a>
</g>
</g>
<!-- Node35 -->
<g id="Node000035" class="node">
<title>Node35</title>
<g id="a_Node000035"><a xlink:title=" ">
<polygon fill="#e0e0e0" stroke="#999999" points="878.88,-19.25 818.62,-19.25 818.62,0 878.88,0 878.88,-19.25"/>
<text text-anchor="middle" x="848.75" y="-5.75" font-family="Helvetica,sans-Serif" font-size="10.00">sys/prctl.h</text>
</a>
</g>
</g>
<!-- Node21&#45;&gt;Node35 -->
<g id="edge42_Node000021_Node000035" class="edge">
<title>Node21&#45;&gt;Node35</title>
<g id="a_edge42_Node000021_Node000035"><a xlink:title=" ">
<path fill="none" stroke="#63b8ff" d="M470.31,-57.02C473.49,-56.37 476.68,-55.76 479.75,-55.25 621.71,-31.48 662.21,-42.63 807.08,-19.52"/>
<polygon fill="#63b8ff" stroke="#63b8ff" points="807.35,-23.02 816.66,-17.96 806.23,-16.11 807.35,-23.02"/>
</a>
</g>
</g>
<!-- Node36&#45;&gt;Node6 -->
<g id="edge47_Node000036_Node000006" class="edge">
<title>Node36&#45;&gt;Node6</title>
<g id="a_edge47_Node000036_Node000006"><a xlink:title=" ">
<path fill="none" stroke="#63b8ff" d="M1043.54,-171.8C1122.51,-165.51 1329.44,-148.5 1501.75,-129.75 1513.34,-128.49 1526.02,-126.93 1537.25,-125.49"/>
<polygon fill="#63b8ff" stroke="#63b8ff" points="1537.37,-129 1546.83,-124.24 1536.46,-122.06 1537.37,-129"/>
</a>
</g>
</g>
<!-- Node36&#45;&gt;Node12 -->
<g id="edge48_Node000036_Node000012" class="edge">
<title>Node36&#45;&gt;Node12</title>
<g id="a_edge48_Node000036_Node000012"><a xlink:title=" ">
<path fill="none" stroke="#63b8ff" d="M1043.46,-172.58C1115.39,-168.29 1292.57,-155.77 1438.75,-129.75 1439.42,-129.63 1440.11,-129.5 1440.79,-129.37"/>
<polygon fill="#63b8ff" stroke="#63b8ff" points="1441.51,-132.8 1450.52,-127.22 1440,-125.96 1441.51,-132.8"/>
</a>
</g>
</g>
<!-- Node36&#45;&gt;Node13 -->
<g id="edge51_Node000036_Node000013" class="edge">
<title>Node36&#45;&gt;Node13</title>
<g id="a_edge51_Node000036_Node000013"><a xlink:title=" ">
<path fill="none" stroke="#63b8ff" d="M1043.41,-171.67C1135.57,-163.9 1391.88,-141.37 1405.75,-129.75 1418.37,-119.18 1422.83,-100.62 1424.31,-86.22"/>
<polygon fill="#63b8ff" stroke="#63b8ff" points="1427.79,-86.64 1424.87,-76.46 1420.8,-86.24 1427.79,-86.64"/>
</a>
</g>
</g>
<!-- Node36&#45;&gt;Node14 -->
<g id="edge50_Node000036_Node000014" class="edge">
<title>Node36&#45;&gt;Node14</title>
<g id="a_edge50_Node000036_Node000014"><a xlink:title=" ">
<path fill="none" stroke="#63b8ff" d="M1014.87,-165.3C1020.19,-152.11 1027.53,-127.4 1016.75,-110.5 1005.51,-92.88 985.32,-82.11 966.35,-75.58"/>
<polygon fill="#63b8ff" stroke="#63b8ff" points="967.43,-72.25 956.84,-72.65 965.37,-78.94 967.43,-72.25"/>
</a>
</g>
</g>
<!-- Node36&#45;&gt;Node16 -->
<g id="edge45_Node000036_Node000016" class="edge">
<title>Node36&#45;&gt;Node16</title>
<g id="a_edge45_Node000036_Node000016"><a xlink:title=" ">
<path fill="none" stroke="#63b8ff" d="M978.14,-170.88C895.92,-162.07 679.19,-138.85 573.46,-127.52"/>
<polygon fill="#63b8ff" stroke="#63b8ff" points="573.88,-124.05 563.56,-126.46 573.13,-131.01 573.88,-124.05"/>
</a>
</g>
</g>
<!-- Node36&#45;&gt;Node18 -->
<g id="edge55_Node000036_Node000018" class="edge">
<title>Node36&#45;&gt;Node18</title>
<g id="a_edge55_Node000036_Node000018"><a xlink:title=" ">
<path fill="none" stroke="#63b8ff" d="M977.93,-174.17C935.97,-172.41 862.65,-164.14 811.75,-129.75 795.55,-118.81 783.57,-99.73 776.24,-85.27"/>
<polygon fill="#63b8ff" stroke="#63b8ff" points="779.43,-83.83 772.01,-76.27 773.1,-86.81 779.43,-83.83"/>
</a>
</g>
</g>
<!-- Node36&#45;&gt;Node19 -->
<g id="edge57_Node000036_Node000019" class="edge">
<title>Node36&#45;&gt;Node19</title>
<g id="a_edge57_Node000036_Node000019"><a xlink:title=" ">
<path fill="none" stroke="#63b8ff" d="M977.91,-171.49C928.82,-166.41 840,-154.05 820.75,-129.75 810.33,-116.6 817.81,-97.85 826.26,-84.06"/>
<polygon fill="#63b8ff" stroke="#63b8ff" points="829.07,-86.16 831.78,-75.92 823.27,-82.23 829.07,-86.16"/>
</a>
</g>
</g>
<!-- Node36&#45;&gt;Node21 -->
<g id="edge60_Node000036_Node000021" class="edge">
<title>Node36&#45;&gt;Node21</title>
<g id="a_edge60_Node000036_Node000021"><a xlink:title=" ">
<path fill="none" stroke="#63b8ff" d="M978.08,-173.95C865.2,-172.18 496.35,-163.8 456.75,-129.75 444.46,-119.18 441.2,-100.62 440.73,-86.22"/>
<polygon fill="#63b8ff" stroke="#63b8ff" points="444.22,-86.51 440.85,-76.46 437.22,-86.41 444.22,-86.51"/>
</a>
</g>
</g>
<!-- Node37 -->
<g id="Node000037" class="node">
<title>Node37</title>
<g id="a_Node000037"><a xlink:title=" ">
<polygon fill="#e0e0e0" stroke="#999999" points="868,-129.75 829.5,-129.75 829.5,-110.5 868,-110.5 868,-129.75"/>
<text text-anchor="middle" x="848.75" y="-116.25" font-family="Helvetica,sans-Serif" font-size="10.00">utility</text>
</a>
</g>
</g>
<!-- Node36&#45;&gt;Node37 -->
<g id="edge44_Node000036_Node000037" class="edge">
<title>Node36&#45;&gt;Node37</title>
<g id="a_edge44_Node000036_Node000037"><a xlink:title=" ">
<path fill="none" stroke="#63b8ff" d="M983.27,-165.34C954.29,-155.82 908.78,-140.86 878.85,-131.02"/>
<polygon fill="#63b8ff" stroke="#63b8ff" points="880.24,-127.79 869.65,-127.99 878.05,-134.44 880.24,-127.79"/>
</a>
</g>
</g>
<!-- Node38 -->
<g id="Node000038" class="node">
<title>Node38</title>
<g id="a_Node000038"><a xlink:title=" ">
<polygon fill="#e0e0e0" stroke="#999999" points="943.75,-129.75 885.75,-129.75 885.75,-110.5 943.75,-110.5 943.75,-129.75"/>
<text text-anchor="middle" x="914.75" y="-116.25" font-family="Helvetica,sans-Serif" font-size="10.00">TObject.h</text>
</a>
</g>
</g>
<!-- Node36&#45;&gt;Node38 -->
<g id="edge46_Node000036_Node000038" class="edge">
<title>Node36&#45;&gt;Node38</title>
<g id="a_edge46_Node000036_Node000038"><a xlink:title=" ">
<path fill="none" stroke="#63b8ff" d="M994.46,-165.34C979.85,-157.23 958.12,-145.18 941.04,-135.71"/>
<polygon fill="#63b8ff" stroke="#63b8ff" points="942.88,-132.73 932.44,-130.94 939.49,-138.85 942.88,-132.73"/>
</a>
</g>
</g>
<!-- Node39 -->
<g id="Node000039" class="node">
<title>Node39</title>
<g id="a_Node000039"><a xlink:title=" ">
<polygon fill="#e0e0e0" stroke="#999999" points="1007.75,-129.75 961.75,-129.75 961.75,-110.5 1007.75,-110.5 1007.75,-129.75"/>
<text text-anchor="middle" x="984.75" y="-116.25" font-family="Helvetica,sans-Serif" font-size="10.00">TList.h</text>
</a>
</g>
</g>
<!-- Node36&#45;&gt;Node39 -->
<g id="edge49_Node000036_Node000039" class="edge">
<title>Node36&#45;&gt;Node39</title>
<g id="a_edge49_Node000036_Node000039"><a xlink:title=" ">
<path fill="none" stroke="#63b8ff" d="M1006.46,-165.58C1003.13,-158.76 998.39,-149.06 994.19,-140.45"/>
<polygon fill="#63b8ff" stroke="#63b8ff" points="997.33,-138.92 989.8,-131.47 991.04,-141.99 997.33,-138.92"/>
</a>
</g>
</g>
<!-- Node40 -->
<g id="Node000040" class="node">
<title>Node40</title>
<g id="a_Node000040"><a xlink:title=" ">
<polygon fill="#e0e0e0" stroke="#999999" points="1129.5,-129.75 1064,-129.75 1064,-110.5 1129.5,-110.5 1129.5,-129.75"/>
<text text-anchor="middle" x="1096.75" y="-116.25" font-family="Helvetica,sans-Serif" font-size="10.00">TRandom.h</text>
</a>
</g>
</g>
<!-- Node36&#45;&gt;Node40 -->
<g id="edge52_Node000036_Node000040" class="edge">
<title>Node36&#45;&gt;Node40</title>
<g id="a_edge52_Node000036_Node000040"><a xlink:title=" ">
<path fill="none" stroke="#63b8ff" d="M1025.34,-165.34C1038.19,-157.39 1057.16,-145.64 1072.32,-136.25"/>
<polygon fill="#63b8ff" stroke="#63b8ff" points="1074.14,-139.24 1080.8,-131 1070.46,-133.29 1074.14,-139.24"/>
</a>
</g>
</g>
<!-- Node41 -->
<g id="Node000041" class="node">
<title>Node41</title>
<g id="a_Node000041"><a xlink:title=" ">
<polygon fill="#e0e0e0" stroke="#999999" points="1219.5,-129.75 1148,-129.75 1148,-110.5 1219.5,-110.5 1219.5,-129.75"/>
<text text-anchor="middle" x="1183.75" y="-116.25" font-family="Helvetica,sans-Serif" font-size="10.00">TSpectrum.h</text>
</a>
</g>
</g>
<!-- Node36&#45;&gt;Node41 -->
<g id="edge53_Node000036_Node000041" class="edge">
<title>Node36&#45;&gt;Node41</title>
<g id="a_edge53_Node000036_Node000041"><a xlink:title=" ">
<path fill="none" stroke="#63b8ff" d="M1040.1,-165.34C1068.55,-156.58 1111.95,-143.23 1143.6,-133.48"/>
<polygon fill="#63b8ff" stroke="#63b8ff" points="1144.28,-136.93 1152.81,-130.65 1142.23,-130.24 1144.28,-136.93"/>
</a>
</g>
</g>
<!-- Node42 -->
<g id="Node000042" class="node">
<title>Node42</title>
<g id="a_Node000042"><a xlink:title=" ">
<polygon fill="#e0e0e0" stroke="#999999" points="1317.62,-129.75 1237.88,-129.75 1237.88,-110.5 1317.62,-110.5 1317.62,-129.75"/>
<text text-anchor="middle" x="1277.75" y="-116.25" font-family="Helvetica,sans-Serif" font-size="10.00">TVirtualFitter.h</text>
</a>
</g>
</g>
<!-- Node36&#45;&gt;Node42 -->
<g id="edge54_Node000036_Node000042" class="edge">
<title>Node36&#45;&gt;Node42</title>
<g id="a_edge54_Node000036_Node000042"><a xlink:title=" ">
<path fill="none" stroke="#63b8ff" d="M1043.49,-167.85C1089.25,-158.72 1172.78,-142.06 1226.74,-131.3"/>
<polygon fill="#63b8ff" stroke="#63b8ff" points="1227.17,-134.78 1236.29,-129.39 1225.8,-127.92 1227.17,-134.78"/>
</a>
</g>
</g>
<!-- Node43 -->
<g id="Node000043" class="node">
<title>Node43</title>
<g id="a_Node000043"><a xlink:title=" ">
<polygon fill="#e0e0e0" stroke="#999999" points="1396.25,-129.75 1335.25,-129.75 1335.25,-110.5 1396.25,-110.5 1396.25,-129.75"/>
<text text-anchor="middle" x="1365.75" y="-116.25" font-family="Helvetica,sans-Serif" font-size="10.00">TNamed.h</text>
</a>
</g>
</g>
<!-- Node36&#45;&gt;Node43 -->
<g id="edge56_Node000036_Node000043" class="edge">
<title>Node36&#45;&gt;Node43</title>
<g id="a_edge56_Node000036_Node000043"><a xlink:title=" ">
<path fill="none" stroke="#63b8ff" d="M1043.18,-170.64C1098.67,-164.06 1215.6,-149.41 1324,-130.13"/>
<polygon fill="#63b8ff" stroke="#63b8ff" points="1324.43,-133.61 1333.65,-128.4 1323.19,-126.72 1324.43,-133.61"/>
</a>
</g>
</g>
<!-- Node44 -->
<g id="Node000044" class="node">
<title>Node44</title>
<g id="a_Node000044"><a xlink:title=" ">
<polygon fill="#e0e0e0" stroke="#999999" points="662,-129.75 617.5,-129.75 617.5,-110.5 662,-110.5 662,-129.75"/>
<text text-anchor="middle" x="639.75" y="-116.25" font-family="Helvetica,sans-Serif" font-size="10.00">TRef.h</text>
</a>
</g>
</g>
<!-- Node36&#45;&gt;Node44 -->
<g id="edge58_Node000036_Node000044" class="edge">
<title>Node36&#45;&gt;Node44</title>
<g id="a_edge58_Node000036_Node000044"><a xlink:title=" ">
<path fill="none" stroke="#63b8ff" d="M978.26,-171.54C919.46,-166.11 791.3,-152.84 673.4,-129.81"/>
<polygon fill="#63b8ff" stroke="#63b8ff" points="674.36,-126.43 663.87,-127.92 673,-133.3 674.36,-126.43"/>
</a>
</g>
</g>
<!-- Node45 -->
<g id="Node000045" class="node">
<title>Node45</title>
<g id="a_Node000045"><a xlink:title=" ">
<polygon fill="#e0e0e0" stroke="#999999" points="735.25,-129.75 680.25,-129.75 680.25,-110.5 735.25,-110.5 735.25,-129.75"/>
<text text-anchor="middle" x="707.75" y="-116.25" font-family="Helvetica,sans-Serif" font-size="10.00">TString.h</text>
</a>
</g>
</g>
<!-- Node36&#45;&gt;Node45 -->
<g id="edge59_Node000036_Node000045" class="edge">
<title>Node36&#45;&gt;Node45</title>
<g id="a_edge59_Node000036_Node000045"><a xlink:title=" ">
<path fill="none" stroke="#63b8ff" d="M978.14,-169.16C928.67,-161.16 831.75,-145.17 749.75,-129.75 748.76,-129.56 747.75,-129.37 746.74,-129.18"/>
<polygon fill="#63b8ff" stroke="#63b8ff" points="747.71,-125.8 737.22,-127.3 746.36,-132.67 747.71,-125.8"/>
</a>
</g>
</g>
</g>
</svg>

<g id="navigator" transform="translate(0 0)" fill="#404254">
  <rect fill="#f2f5e9" fill-opacity="0.5" stroke="#606060" stroke-width=".5" x="0" y="0" width="60" height="60"/>
  <use id="zoomplus" xlink:href="#zoomPlus" x="17" y="9" onmousedown="handleZoom(evt,'in')"/>
  <use id="zoomminus" xlink:href="#zoomMin" x="42" y="9" onmousedown="handleZoom(evt,'out')"/>
  <use id="reset" xlink:href="#resetDef" x="30" y="36" onmousedown="handleReset()"/>
   <use id="arrowup" xlink:href="#arrowUp" x="0" y="0" onmousedown="handlePan(0,-1)"/>
  <use id="arrowright" xlink:href="#arrowRight" x="0" y="0" onmousedown="handlePan(1,0)"/>
  <use id="arrowdown" xlink:href="#arrowDown" x="0" y="0" onmousedown="handlePan(0,1)"/>
  <use id="arrowleft" xlink:href="#arrowLeft" x="0" y="0" onmousedown="handlePan(-1,0)"/>
</g>
<svg viewBox="0 0 15 15" width="100%" height="30px" preserveAspectRatio="xMaxYMin meet">
 <g id="arrow_out" transform="scale(0.3 0.3)">
  <a xlink:href="_t_angular_correlation_8h__incl_org.svg" target="_base">
   <rect id="button" ry="5" rx="5" y="6" x="6" height="38" width="38"
        fill="#f2f5e9" fill-opacity="0.5" stroke="#606060" stroke-width="1.0"/>
   <path id="arrow"
     d="M 11.500037,31.436501 C 11.940474,20.09759 22.043105,11.32322 32.158766,21.979434 L 37.068811,17.246167 C 37.068811,17.246167 37.088388,32 37.088388,32 L 22.160133,31.978069 C 22.160133,31.978069 26.997745,27.140456 26.997745,27.140456 C 18.528582,18.264221 13.291696,25.230495 11.500037,31.436501 z"
     style="fill:#404040;"/>
  </a>
 </g>
</svg>

<style type='text/css'>
<![CDATA[
[data-mouse-over-selected='false'] { opacity: 0.7; }
[data-mouse-over-selected='true']  { opacity: 1.0; }
]]>
</style>
<script type="application/ecmascript"><![CDATA[
document.addEventListener('DOMContentLoaded', (event) => {
  highlightEdges();
  highlightAdjacentNodes();
});
]]></script>
</svg>
