<?xml version="1.0" encoding="UTF-8" standalone="no"?>
<!DOCTYPE svg PUBLIC "-//W3C//DTD SVG 1.1//EN"
 "http://www.w3.org/Graphics/SVG/1.1/DTD/svg11.dtd">
<!-- Generated by graphviz version 12.2.0 (20241103.1931)
 -->
<!-- Title: TAnalysisOptions.cxx Pages: 1 -->
<!--zoomable 138 -->

<svg id="main" version="1.1" xmlns="http://www.w3.org/2000/svg" xmlns:xlink="http://www.w3.org/1999/xlink" xml:space="preserve" onload="init(evt)">

<style type="text/css"><![CDATA[
.node, .edge {opacity: 0.7;}
.node.selected, .edge.selected {opacity: 1;}
.edge:hover path { stroke: red; }
.edge:hover polygon { stroke: red; fill: red; }
]]></style>

<defs>
  <circle id="rim" cx="0" cy="0" r="7"/>
  <circle id="rim2" cx="0" cy="0" r="3.5"/>
  <g id="zoomPlus">
    <use xlink:href="#rim" fill="#404040"><set attributeName="fill" to="#808080" begin="zoomplus.mouseover" end="zoomplus.mouseout"/></use>
    <path d="M-4,0h8M0,-4v8" fill="none" stroke="white" stroke-width="1.5" pointer-events="none"/>
  </g>
  <g id="zoomMin">
    <use xlink:href="#rim" fill="#404040"><set attributeName="fill" to="#808080" begin="zoomminus.mouseover" end="zoomminus.mouseout"/></use>
    <path d="M-4,0h8" fill="none" stroke="white" stroke-width="1.5" pointer-events="none"/>
  </g>
  <g id="arrowUp" transform="translate(30 24)">
    <use xlink:href="#rim"/>
    <path pointer-events="none" fill="none" stroke="white" stroke-width="1.5" d="M0,-3.0v7 M-2.5,-0.5L0,-3.0L2.5,-0.5"/>
  </g>
  <g id="arrowRight" transform="rotate(90) translate(36 -43)">
    <use xlink:href="#rim"/>
    <path pointer-events="none" fill="none" stroke="white" stroke-width="1.5" d="M0,-3.0v7 M-2.5,-0.5L0,-3.0L2.5,-0.5"/>
  </g>
  <g id="arrowDown" transform="rotate(180) translate(-30 -48)">
    <use xlink:href="#rim"/>
    <path pointer-events="none" fill="none" stroke="white" stroke-width="1.5" d="M0,-3.0v7 M-2.5,-0.5L0,-3.0L2.5,-0.5"/>
  </g>
  <g id="arrowLeft" transform="rotate(270) translate(-36 17)">
    <use xlink:href="#rim"/>
    <path pointer-events="none" fill="none" stroke="white" stroke-width="1.5" d="M0,-3.0v7 M-2.5,-0.5L0,-3.0L2.5,-0.5"/>
  </g>
  <g id="resetDef">
    <use xlink:href="#rim2" fill="#404040"><set attributeName="fill" to="#808080" begin="reset.mouseover" end="reset.mouseout"/></use>
  </g>
</defs>
<script type="application/ecmascript">
var viewWidth = 1495;
var viewHeight = 138;
var sectionId = 'dynsection-0';
</script>
<script type="application/ecmascript" xlink:href="svg.min.js"/>
<svg id="graph" class="graph">
<g id="viewport">
<title>TAnalysisOptions.cxx</title>
<!-- Node1 -->
<g id="Node000001" class="node">
<title>Node1</title>
<g id="a_Node000001"><a xlink:title=" ">
<polygon fill="#999999" stroke="#666666" points="523.12,-129.75 414.12,-129.75 414.12,-110.5 523.12,-110.5 523.12,-129.75"/>
<text text-anchor="middle" x="468.62" y="-116.25" font-family="Helvetica,sans-Serif" font-size="10.00">TAnalysisOptions.cxx</text>
</a>
</g>
</g>
<!-- Node2 -->
<g id="Node000002" class="node">
<title>Node2</title>
<g id="a_Node000002"><a xlink:href="_t_analysis_options_8h.html" target="_top" xlink:title=" ">
<polygon fill="white" stroke="#666666" points="107.62,-74.5 7.62,-74.5 7.62,-55.25 107.62,-55.25 107.62,-74.5"/>
<text text-anchor="middle" x="57.62" y="-61" font-family="Helvetica,sans-Serif" font-size="10.00">TAnalysisOptions.h</text>
</a>
</g>
</g>
<!-- Node1&#45;&gt;Node2 -->
<g id="edge1_Node000001_Node000002" class="edge">
<title>Node1&#45;&gt;Node2</title>
<g id="a_edge1_Node000001_Node000002"><a xlink:title=" ">
<path fill="none" stroke="#63b8ff" d="M413.71,-112.49C346.72,-104.33 229.7,-89.83 119.19,-74.83"/>
<polygon fill="#63b8ff" stroke="#63b8ff" points="119.71,-71.37 109.33,-73.48 118.76,-78.3 119.71,-71.37"/>
</a>
</g>
</g>
<!-- Node5 -->
<g id="Node000005" class="node">
<title>Node5</title>
<g id="a_Node000005"><a xlink:title=" ">
<polygon fill="#e0e0e0" stroke="#999999" points="181.5,-74.5 125.75,-74.5 125.75,-55.25 181.5,-55.25 181.5,-74.5"/>
<text text-anchor="middle" x="153.62" y="-61" font-family="Helvetica,sans-Serif" font-size="10.00">algorithm</text>
</a>
</g>
</g>
<!-- Node1&#45;&gt;Node5 -->
<g id="edge4_Node000001_Node000005" class="edge">
<title>Node1&#45;&gt;Node5</title>
<g id="a_edge4_Node000001_Node000005"><a xlink:title=" ">
<path fill="none" stroke="#63b8ff" d="M413.83,-111.48C360.03,-103.72 275.39,-90.82 192.95,-74.84"/>
<polygon fill="#63b8ff" stroke="#63b8ff" points="193.83,-71.45 183.35,-72.96 192.49,-78.32 193.83,-71.45"/>
</a>
</g>
</g>
<!-- Node6 -->
<g id="Node000006" class="node">
<title>Node6</title>
<g id="a_Node000006"><a xlink:title=" ">
<polygon fill="#e0e0e0" stroke="#999999" points="243.88,-74.5 199.38,-74.5 199.38,-55.25 243.88,-55.25 243.88,-74.5"/>
<text text-anchor="middle" x="221.62" y="-61" font-family="Helvetica,sans-Serif" font-size="10.00">cctype</text>
</a>
</g>
</g>
<!-- Node1&#45;&gt;Node6 -->
<g id="edge5_Node000001_Node000006" class="edge">
<title>Node1&#45;&gt;Node6</title>
<g id="a_edge5_Node000001_Node000006"><a xlink:title=" ">
<path fill="none" stroke="#63b8ff" d="M421.05,-110.08C379.76,-102.05 318.12,-89.61 255.23,-74.77"/>
<polygon fill="#63b8ff" stroke="#63b8ff" points="256.32,-71.43 245.78,-72.52 254.7,-78.24 256.32,-71.43"/>
</a>
</g>
</g>
<!-- Node7 -->
<g id="Node000007" class="node">
<title>Node7</title>
<g id="a_Node000007"><a xlink:title=" ">
<polygon fill="#e0e0e0" stroke="#999999" points="657.38,-19.25 603.88,-19.25 603.88,0 657.38,0 657.38,-19.25"/>
<text text-anchor="middle" x="630.62" y="-5.75" font-family="Helvetica,sans-Serif" font-size="10.00">iostream</text>
</a>
</g>
</g>
<!-- Node1&#45;&gt;Node7 -->
<g id="edge6_Node000001_Node000007" class="edge">
<title>Node1&#45;&gt;Node7</title>
<g id="a_edge6_Node000001_Node000007"><a xlink:title=" ">
<path fill="none" stroke="#63b8ff" d="M508.3,-110.02C532.16,-103.13 562.16,-91.83 584.62,-74.5 600.17,-62.51 612.75,-43.88 620.8,-29.82"/>
<polygon fill="#63b8ff" stroke="#63b8ff" points="623.85,-31.53 625.53,-21.07 617.69,-28.2 623.85,-31.53"/>
</a>
</g>
</g>
<!-- Node8 -->
<g id="Node000008" class="node">
<title>Node8</title>
<g id="a_Node000008"><a xlink:title=" ">
<polygon fill="#e0e0e0" stroke="#999999" points="966.62,-74.5 920.62,-74.5 920.62,-55.25 966.62,-55.25 966.62,-74.5"/>
<text text-anchor="middle" x="943.62" y="-61" font-family="Helvetica,sans-Serif" font-size="10.00">TEnv.h</text>
</a>
</g>
</g>
<!-- Node1&#45;&gt;Node8 -->
<g id="edge7_Node000001_Node000008" class="edge">
<title>Node1&#45;&gt;Node8</title>
<g id="a_edge7_Node000001_Node000008"><a xlink:title=" ">
<path fill="none" stroke="#63b8ff" d="M523.59,-116.47C605.59,-111.88 764.91,-100.54 909.07,-74.68"/>
<polygon fill="#63b8ff" stroke="#63b8ff" points="909.61,-78.14 918.82,-72.9 908.35,-71.25 909.61,-78.14"/>
</a>
</g>
</g>
<!-- Node9 -->
<g id="Node000009" class="node">
<title>Node9</title>
<g id="a_Node000009"><a xlink:title=" ">
<polygon fill="#e0e0e0" stroke="#999999" points="1030.62,-74.5 984.62,-74.5 984.62,-55.25 1030.62,-55.25 1030.62,-74.5"/>
<text text-anchor="middle" x="1007.62" y="-61" font-family="Helvetica,sans-Serif" font-size="10.00">TKey.h</text>
</a>
</g>
</g>
<!-- Node1&#45;&gt;Node9 -->
<g id="edge8_Node000001_Node000009" class="edge">
<title>Node1&#45;&gt;Node9</title>
<g id="a_edge8_Node000001_Node000009"><a xlink:title=" ">
<path fill="none" stroke="#63b8ff" d="M523.43,-117.45C614.86,-113.97 804.34,-103.84 973.22,-74.62"/>
<polygon fill="#63b8ff" stroke="#63b8ff" points="973.58,-78.11 982.82,-72.93 972.37,-71.21 973.58,-78.11"/>
</a>
</g>
</g>
<!-- Node10 -->
<g id="Node000010" class="node">
<title>Node10</title>
<g id="a_Node000010"><a xlink:href="_globals_8h.html" target="_top" xlink:title=" ">
<polygon fill="white" stroke="#666666" points="902.88,-74.5 846.38,-74.5 846.38,-55.25 902.88,-55.25 902.88,-74.5"/>
<text text-anchor="middle" x="874.62" y="-61" font-family="Helvetica,sans-Serif" font-size="10.00">Globals.h</text>
</a>
</g>
</g>
<!-- Node1&#45;&gt;Node10 -->
<g id="edge9_Node000001_Node000010" class="edge">
<title>Node1&#45;&gt;Node10</title>
<g id="a_edge9_Node000001_Node000010"><a xlink:title=" ">
<path fill="none" stroke="#63b8ff" d="M523.38,-111.94C606.38,-101.06 762.09,-80.63 835.03,-71.07"/>
<polygon fill="#63b8ff" stroke="#63b8ff" points="835.04,-74.6 844.5,-69.83 834.13,-67.66 835.04,-74.6"/>
</a>
</g>
</g>
<!-- Node25 -->
<g id="Node000025" class="node">
<title>Node25</title>
<g id="a_Node000025"><a xlink:href="_dynamic_library_8h.html" target="_top" xlink:title=" ">
<polygon fill="white" stroke="#666666" points="456.75,-74.5 366.5,-74.5 366.5,-55.25 456.75,-55.25 456.75,-74.5"/>
<text text-anchor="middle" x="411.62" y="-61" font-family="Helvetica,sans-Serif" font-size="10.00">DynamicLibrary.h</text>
</a>
</g>
</g>
<!-- Node1&#45;&gt;Node25 -->
<g id="edge25_Node000001_Node000025" class="edge">
<title>Node1&#45;&gt;Node25</title>
<g id="a_edge25_Node000001_Node000025"><a xlink:title=" ">
<path fill="none" stroke="#63b8ff" d="M458.96,-110.09C450.88,-102.55 439.16,-91.6 429.4,-82.48"/>
<polygon fill="#63b8ff" stroke="#63b8ff" points="431.95,-80.08 422.26,-75.81 427.18,-85.19 431.95,-80.08"/>
</a>
</g>
</g>
<!-- Node26 -->
<g id="Node000026" class="node">
<title>Node26</title>
<g id="a_Node000026"><a xlink:href="_t_g_r_s_i_utilities_8h.html" target="_top" xlink:title=" ">
<polygon fill="white" stroke="#666666" points="348.88,-74.5 262.38,-74.5 262.38,-55.25 348.88,-55.25 348.88,-74.5"/>
<text text-anchor="middle" x="305.62" y="-61" font-family="Helvetica,sans-Serif" font-size="10.00">TGRSIUtilities.h</text>
</a>
</g>
</g>
<!-- Node1&#45;&gt;Node26 -->
<g id="edge27_Node000001_Node000026" class="edge">
<title>Node1&#45;&gt;Node26</title>
<g id="a_edge27_Node000001_Node000026"><a xlink:title=" ">
<path fill="none" stroke="#63b8ff" d="M440.97,-110.09C414.4,-101.41 373.99,-88.21 344.24,-78.49"/>
<polygon fill="#63b8ff" stroke="#63b8ff" points="345.44,-75.2 334.85,-75.42 343.27,-81.85 345.44,-75.2"/>
</a>
</g>
</g>
<!-- Node29 -->
<g id="Node000029" class="node">
<title>Node29</title>
<g id="a_Node000029"><a xlink:href="_g_root_commands_8h.html" target="_top" xlink:title=" ">
<polygon fill="white" stroke="#666666" points="576,-74.5 475.25,-74.5 475.25,-55.25 576,-55.25 576,-74.5"/>
<text text-anchor="middle" x="525.62" y="-61" font-family="Helvetica,sans-Serif" font-size="10.00">GRootCommands.h</text>
</a>
</g>
</g>
<!-- Node1&#45;&gt;Node29 -->
<g id="edge31_Node000001_Node000029" class="edge">
<title>Node1&#45;&gt;Node29</title>
<g id="a_edge31_Node000001_Node000029"><a xlink:title=" ">
<path fill="none" stroke="#63b8ff" d="M478.29,-110.09C486.37,-102.55 498.09,-91.6 507.85,-82.48"/>
<polygon fill="#63b8ff" stroke="#63b8ff" points="510.07,-85.19 514.99,-75.81 505.3,-80.08 510.07,-85.19"/>
</a>
</g>
</g>
<!-- Node3 -->
<g id="Node000003" class="node">
<title>Node3</title>
<g id="a_Node000003"><a xlink:title=" ">
<polygon fill="#e0e0e0" stroke="#999999" points="121.62,-19.25 63.62,-19.25 63.62,0 121.62,0 121.62,-19.25"/>
<text text-anchor="middle" x="92.62" y="-5.75" font-family="Helvetica,sans-Serif" font-size="10.00">TObject.h</text>
</a>
</g>
</g>
<!-- Node2&#45;&gt;Node3 -->
<g id="edge2_Node000002_Node000003" class="edge">
<title>Node2&#45;&gt;Node3</title>
<g id="a_edge2_Node000002_Node000003"><a xlink:title=" ">
<path fill="none" stroke="#63b8ff" d="M63.4,-55.08C68.04,-48.03 74.7,-37.9 80.49,-29.08"/>
<polygon fill="#63b8ff" stroke="#63b8ff" points="83.32,-31.15 85.89,-20.87 77.47,-27.31 83.32,-31.15"/>
</a>
</g>
</g>
<!-- Node4 -->
<g id="Node000004" class="node">
<title>Node4</title>
<g id="a_Node000004"><a xlink:title=" ">
<polygon fill="#e0e0e0" stroke="#999999" points="45.25,-19.25 0,-19.25 0,0 45.25,0 45.25,-19.25"/>
<text text-anchor="middle" x="22.62" y="-5.75" font-family="Helvetica,sans-Serif" font-size="10.00">TFile.h</text>
</a>
</g>
</g>
<!-- Node2&#45;&gt;Node4 -->
<g id="edge3_Node000002_Node000004" class="edge">
<title>Node2&#45;&gt;Node4</title>
<g id="a_edge3_Node000002_Node000004"><a xlink:title=" ">
<path fill="none" stroke="#63b8ff" d="M51.85,-55.08C47.21,-48.03 40.55,-37.9 34.76,-29.08"/>
<polygon fill="#63b8ff" stroke="#63b8ff" points="37.78,-27.31 29.36,-20.87 31.93,-31.15 37.78,-27.31"/>
</a>
</g>
</g>
<!-- Node10&#45;&gt;Node7 -->
<g id="edge10_Node000010_Node000007" class="edge">
<title>Node10&#45;&gt;Node7</title>
<g id="a_edge10_Node000010_Node000007"><a xlink:title=" ">
<path fill="none" stroke="#63b8ff" d="M845.98,-57.95C807.87,-50.03 738.11,-35.35 668.84,-19.71"/>
<polygon fill="#63b8ff" stroke="#63b8ff" points="669.74,-16.33 659.21,-17.53 668.19,-23.15 669.74,-16.33"/>
</a>
</g>
</g>
<!-- Node11 -->
<g id="Node000011" class="node">
<title>Node11</title>
<g id="a_Node000011"><a xlink:title=" ">
<polygon fill="#e0e0e0" stroke="#999999" points="1350.5,-19.25 1300.75,-19.25 1300.75,0 1350.5,0 1350.5,-19.25"/>
<text text-anchor="middle" x="1325.62" y="-5.75" font-family="Helvetica,sans-Serif" font-size="10.00">iomanip</text>
</a>
</g>
</g>
<!-- Node10&#45;&gt;Node11 -->
<g id="edge11_Node000010_Node000011" class="edge">
<title>Node10&#45;&gt;Node11</title>
<g id="a_edge11_Node000010_Node000011"><a xlink:title=" ">
<path fill="none" stroke="#63b8ff" d="M903.23,-56.81C906.06,-56.23 908.89,-55.7 911.62,-55.25 1075.46,-28.52 1122.46,-47.34 1289.3,-19.38"/>
<polygon fill="#63b8ff" stroke="#63b8ff" points="1289.71,-22.86 1298.98,-17.72 1288.53,-15.96 1289.71,-22.86"/>
</a>
</g>
</g>
<!-- Node12 -->
<g id="Node000012" class="node">
<title>Node12</title>
<g id="a_Node000012"><a xlink:title=" ">
<polygon fill="#e0e0e0" stroke="#999999" points="1426.62,-19.25 1368.62,-19.25 1368.62,0 1426.62,0 1426.62,-19.25"/>
<text text-anchor="middle" x="1397.62" y="-5.75" font-family="Helvetica,sans-Serif" font-size="10.00">stdexcept</text>
</a>
</g>
</g>
<!-- Node10&#45;&gt;Node12 -->
<g id="edge12_Node000010_Node000012" class="edge">
<title>Node10&#45;&gt;Node12</title>
<g id="a_edge12_Node000010_Node000012"><a xlink:title=" ">
<path fill="none" stroke="#63b8ff" d="M903.23,-56.76C906.05,-56.2 908.89,-55.68 911.62,-55.25 1105.33,-25.06 1160.14,-48.53 1356.93,-19.44"/>
<polygon fill="#63b8ff" stroke="#63b8ff" points="1357.38,-22.91 1366.75,-17.96 1356.34,-15.99 1357.38,-22.91"/>
</a>
</g>
</g>
<!-- Node13 -->
<g id="Node000013" class="node">
<title>Node13</title>
<g id="a_Node000013"><a xlink:title=" ">
<polygon fill="#e0e0e0" stroke="#999999" points="376.62,-19.25 336.62,-19.25 336.62,0 376.62,0 376.62,-19.25"/>
<text text-anchor="middle" x="356.62" y="-5.75" font-family="Helvetica,sans-Serif" font-size="10.00">string</text>
</a>
</g>
</g>
<!-- Node10&#45;&gt;Node13 -->
<g id="edge13_Node000010_Node000013" class="edge">
<title>Node10&#45;&gt;Node13</title>
<g id="a_edge13_Node000010_Node000013"><a xlink:title=" ">
<path fill="none" stroke="#63b8ff" d="M845.96,-63.24C771.7,-61.17 566.92,-52.82 388.28,-19.39"/>
<polygon fill="#63b8ff" stroke="#63b8ff" points="389.06,-15.98 378.58,-17.54 387.75,-22.85 389.06,-15.98"/>
</a>
</g>
</g>
<!-- Node14 -->
<g id="Node000014" class="node">
<title>Node14</title>
<g id="a_Node000014"><a xlink:title=" ">
<polygon fill="#e0e0e0" stroke="#999999" points="1486.75,-19.25 1444.5,-19.25 1444.5,0 1486.75,0 1486.75,-19.25"/>
<text text-anchor="middle" x="1465.62" y="-5.75" font-family="Helvetica,sans-Serif" font-size="10.00">cstdio</text>
</a>
</g>
</g>
<!-- Node10&#45;&gt;Node14 -->
<g id="edge14_Node000010_Node000014" class="edge">
<title>Node10&#45;&gt;Node14</title>
<g id="a_edge14_Node000010_Node000014"><a xlink:title=" ">
<path fill="none" stroke="#63b8ff" d="M903.22,-56.73C906.05,-56.17 908.89,-55.66 911.62,-55.25 1138.88,-21.18 1203.71,-58.52 1433.07,-19.32"/>
<polygon fill="#63b8ff" stroke="#63b8ff" points="1433.38,-22.82 1442.63,-17.66 1432.18,-15.92 1433.38,-22.82"/>
</a>
</g>
</g>
<!-- Node15 -->
<g id="Node000015" class="node">
<title>Node15</title>
<g id="a_Node000015"><a xlink:title=" ">
<polygon fill="#e0e0e0" stroke="#999999" points="586.25,-19.25 541,-19.25 541,0 586.25,0 586.25,-19.25"/>
<text text-anchor="middle" x="563.62" y="-5.75" font-family="Helvetica,sans-Serif" font-size="10.00">cstdint</text>
</a>
</g>
</g>
<!-- Node10&#45;&gt;Node15 -->
<g id="edge15_Node000010_Node000015" class="edge">
<title>Node10&#45;&gt;Node15</title>
<g id="a_edge15_Node000010_Node000015"><a xlink:title=" ">
<path fill="none" stroke="#63b8ff" d="M846.21,-60.43C797.29,-54.26 693.82,-40.22 597.66,-19.72"/>
<polygon fill="#63b8ff" stroke="#63b8ff" points="598.57,-16.34 588.05,-17.64 597.09,-23.18 598.57,-16.34"/>
</a>
</g>
</g>
<!-- Node16 -->
<g id="Node000016" class="node">
<title>Node16</title>
<g id="a_Node000016"><a xlink:title=" ">
<polygon fill="#e0e0e0" stroke="#999999" points="719.88,-19.25 675.38,-19.25 675.38,0 719.88,0 719.88,-19.25"/>
<text text-anchor="middle" x="697.62" y="-5.75" font-family="Helvetica,sans-Serif" font-size="10.00">cstdlib</text>
</a>
</g>
</g>
<!-- Node10&#45;&gt;Node16 -->
<g id="edge16_Node000010_Node000016" class="edge">
<title>Node10&#45;&gt;Node16</title>
<g id="a_edge16_Node000010_Node000016"><a xlink:title=" ">
<path fill="none" stroke="#63b8ff" d="M846.19,-55.32C814.89,-45.9 764.63,-30.78 731.36,-20.77"/>
<polygon fill="#63b8ff" stroke="#63b8ff" points="732.4,-17.43 721.81,-17.9 730.38,-24.14 732.4,-17.43"/>
</a>
</g>
</g>
<!-- Node17 -->
<g id="Node000017" class="node">
<title>Node17</title>
<g id="a_Node000017"><a xlink:title=" ">
<polygon fill="#e0e0e0" stroke="#999999" points="797.38,-19.25 737.88,-19.25 737.88,0 797.38,0 797.38,-19.25"/>
<text text-anchor="middle" x="767.62" y="-5.75" font-family="Helvetica,sans-Serif" font-size="10.00">execinfo.h</text>
</a>
</g>
</g>
<!-- Node10&#45;&gt;Node17 -->
<g id="edge17_Node000010_Node000017" class="edge">
<title>Node10&#45;&gt;Node17</title>
<g id="a_edge17_Node000010_Node000017"><a xlink:title=" ">
<path fill="none" stroke="#63b8ff" d="M856.47,-54.84C839.95,-46.62 815.28,-34.34 796.13,-24.81"/>
<polygon fill="#63b8ff" stroke="#63b8ff" points="797.73,-21.7 787.22,-20.38 794.61,-27.97 797.73,-21.7"/>
</a>
</g>
</g>
<!-- Node18 -->
<g id="Node000018" class="node">
<title>Node18</title>
<g id="a_Node000018"><a xlink:title=" ">
<polygon fill="#e0e0e0" stroke="#999999" points="865.88,-19.25 815.38,-19.25 815.38,0 865.88,0 865.88,-19.25"/>
<text text-anchor="middle" x="840.62" y="-5.75" font-family="Helvetica,sans-Serif" font-size="10.00">cxxabi.h</text>
</a>
</g>
</g>
<!-- Node10&#45;&gt;Node18 -->
<g id="edge18_Node000010_Node000018" class="edge">
<title>Node10&#45;&gt;Node18</title>
<g id="a_edge18_Node000010_Node000018"><a xlink:title=" ">
<path fill="none" stroke="#63b8ff" d="M869.01,-55.08C864.51,-48.03 858.04,-37.9 852.41,-29.08"/>
<polygon fill="#63b8ff" stroke="#63b8ff" points="855.51,-27.43 847.18,-20.88 849.61,-31.2 855.51,-27.43"/>
</a>
</g>
</g>
<!-- Node19 -->
<g id="Node000019" class="node">
<title>Node19</title>
<g id="a_Node000019"><a xlink:title=" ">
<polygon fill="#e0e0e0" stroke="#999999" points="935.25,-19.25 884,-19.25 884,0 935.25,0 935.25,-19.25"/>
<text text-anchor="middle" x="909.62" y="-5.75" font-family="Helvetica,sans-Serif" font-size="10.00">sstream</text>
</a>
</g>
</g>
<!-- Node10&#45;&gt;Node19 -->
<g id="edge19_Node000010_Node000019" class="edge">
<title>Node10&#45;&gt;Node19</title>
<g id="a_edge19_Node000010_Node000019"><a xlink:title=" ">
<path fill="none" stroke="#63b8ff" d="M880.4,-55.08C885.04,-48.03 891.7,-37.9 897.49,-29.08"/>
<polygon fill="#63b8ff" stroke="#63b8ff" points="900.32,-31.15 902.89,-20.87 894.47,-27.31 900.32,-31.15"/>
</a>
</g>
</g>
<!-- Node20 -->
<g id="Node000020" class="node">
<title>Node20</title>
<g id="a_Node000020"><a xlink:title=" ">
<polygon fill="#e0e0e0" stroke="#999999" points="990.12,-19.25 953.12,-19.25 953.12,0 990.12,0 990.12,-19.25"/>
<text text-anchor="middle" x="971.62" y="-5.75" font-family="Helvetica,sans-Serif" font-size="10.00">array</text>
</a>
</g>
</g>
<!-- Node10&#45;&gt;Node20 -->
<g id="edge20_Node000010_Node000020" class="edge">
<title>Node10&#45;&gt;Node20</title>
<g id="a_edge20_Node000010_Node000020"><a xlink:title=" ">
<path fill="none" stroke="#63b8ff" d="M891.08,-54.84C905.85,-46.73 927.8,-34.68 945.06,-25.21"/>
<polygon fill="#63b8ff" stroke="#63b8ff" points="946.68,-28.31 953.76,-20.43 943.31,-22.18 946.68,-28.31"/>
</a>
</g>
</g>
<!-- Node21 -->
<g id="Node000021" class="node">
<title>Node21</title>
<g id="a_Node000021"><a xlink:title=" ">
<polygon fill="#e0e0e0" stroke="#999999" points="1058.88,-19.25 1008.38,-19.25 1008.38,0 1058.88,0 1058.88,-19.25"/>
<text text-anchor="middle" x="1033.62" y="-5.75" font-family="Helvetica,sans-Serif" font-size="10.00">memory</text>
</a>
</g>
</g>
<!-- Node10&#45;&gt;Node21 -->
<g id="edge21_Node000010_Node000021" class="edge">
<title>Node10&#45;&gt;Node21</title>
<g id="a_edge21_Node000010_Node000021"><a xlink:title=" ">
<path fill="none" stroke="#63b8ff" d="M901.6,-54.84C927.99,-46 968.38,-32.48 997.53,-22.71"/>
<polygon fill="#63b8ff" stroke="#63b8ff" points="998.29,-26.15 1006.67,-19.65 996.07,-19.51 998.29,-26.15"/>
</a>
</g>
</g>
<!-- Node22 -->
<g id="Node000022" class="node">
<title>Node22</title>
<g id="a_Node000022"><a xlink:title=" ">
<polygon fill="#e0e0e0" stroke="#999999" points="1126.5,-19.25 1076.75,-19.25 1076.75,0 1126.5,0 1126.5,-19.25"/>
<text text-anchor="middle" x="1101.62" y="-5.75" font-family="Helvetica,sans-Serif" font-size="10.00">unistd.h</text>
</a>
</g>
</g>
<!-- Node10&#45;&gt;Node22 -->
<g id="edge22_Node000010_Node000022" class="edge">
<title>Node10&#45;&gt;Node22</title>
<g id="a_edge22_Node000010_Node000022"><a xlink:title=" ">
<path fill="none" stroke="#63b8ff" d="M903.31,-57.18C906.12,-56.53 908.93,-55.88 911.62,-55.25 977.56,-39.96 996.63,-36.34 1065.39,-19.75"/>
<polygon fill="#63b8ff" stroke="#63b8ff" points="1066.02,-23.2 1074.92,-17.45 1064.38,-16.4 1066.02,-23.2"/>
</a>
</g>
</g>
<!-- Node23 -->
<g id="Node000023" class="node">
<title>Node23</title>
<g id="a_Node000023"><a xlink:title=" ">
<polygon fill="#e0e0e0" stroke="#999999" points="1204.38,-19.25 1144.88,-19.25 1144.88,0 1204.38,0 1204.38,-19.25"/>
<text text-anchor="middle" x="1174.62" y="-5.75" font-family="Helvetica,sans-Serif" font-size="10.00">sys/wait.h</text>
</a>
</g>
</g>
<!-- Node10&#45;&gt;Node23 -->
<g id="edge23_Node000010_Node000023" class="edge">
<title>Node10&#45;&gt;Node23</title>
<g id="a_edge23_Node000010_Node000023"><a xlink:title=" ">
<path fill="none" stroke="#63b8ff" d="M903.27,-56.99C906.08,-56.38 908.91,-55.78 911.62,-55.25 1007.08,-36.48 1034.66,-38.01 1133.35,-19.58"/>
<polygon fill="#63b8ff" stroke="#63b8ff" points="1133.76,-23.06 1142.94,-17.77 1132.46,-16.19 1133.76,-23.06"/>
</a>
</g>
</g>
<!-- Node24 -->
<g id="Node000024" class="node">
<title>Node24</title>
<g id="a_Node000024"><a xlink:title=" ">
<polygon fill="#e0e0e0" stroke="#999999" points="1282.75,-19.25 1222.5,-19.25 1222.5,0 1282.75,0 1282.75,-19.25"/>
<text text-anchor="middle" x="1252.62" y="-5.75" font-family="Helvetica,sans-Serif" font-size="10.00">sys/prctl.h</text>
</a>
</g>
</g>
<!-- Node10&#45;&gt;Node24 -->
<g id="edge24_Node000010_Node000024" class="edge">
<title>Node10&#45;&gt;Node24</title>
<g id="a_edge24_Node000010_Node000024"><a xlink:title=" ">
<path fill="none" stroke="#63b8ff" d="M903.24,-56.87C906.07,-56.28 908.9,-55.73 911.62,-55.25 1041.25,-32.49 1078.41,-41.37 1211.04,-19.54"/>
<polygon fill="#63b8ff" stroke="#63b8ff" points="1211.25,-23.05 1220.53,-17.94 1210.09,-16.14 1211.25,-23.05"/>
</a>
</g>
</g>
<!-- Node25&#45;&gt;Node13 -->
<g id="edge26_Node000025_Node000013" class="edge">
<title>Node25&#45;&gt;Node13</title>
<g id="a_edge26_Node000025_Node000013"><a xlink:title=" ">
<path fill="none" stroke="#63b8ff" d="M402.54,-55.08C394.79,-47.57 383.41,-36.56 373.93,-27.38"/>
<polygon fill="#63b8ff" stroke="#63b8ff" points="376.61,-25.1 366.99,-20.66 371.74,-30.13 376.61,-25.1"/>
</a>
</g>
</g>
<!-- Node26&#45;&gt;Node13 -->
<g id="edge29_Node000026_Node000013" class="edge">
<title>Node26&#45;&gt;Node13</title>
<g id="a_edge29_Node000026_Node000013"><a xlink:title=" ">
<path fill="none" stroke="#63b8ff" d="M314.05,-55.08C321.16,-47.65 331.57,-36.79 340.31,-27.66"/>
<polygon fill="#63b8ff" stroke="#63b8ff" points="342.58,-30.35 346.97,-20.7 337.53,-25.5 342.58,-30.35"/>
</a>
</g>
</g>
<!-- Node27 -->
<g id="Node000027" class="node">
<title>Node27</title>
<g id="a_Node000027"><a xlink:title=" ">
<polygon fill="#e0e0e0" stroke="#999999" points="257.12,-19.25 208.12,-19.25 208.12,0 257.12,0 257.12,-19.25"/>
<text text-anchor="middle" x="232.62" y="-5.75" font-family="Helvetica,sans-Serif" font-size="10.00">fstream</text>
</a>
</g>
</g>
<!-- Node26&#45;&gt;Node27 -->
<g id="edge28_Node000026_Node000027" class="edge">
<title>Node26&#45;&gt;Node27</title>
<g id="a_edge28_Node000026_Node000027"><a xlink:title=" ">
<path fill="none" stroke="#63b8ff" d="M293.24,-54.84C282.48,-46.99 266.65,-35.45 253.87,-26.12"/>
<polygon fill="#63b8ff" stroke="#63b8ff" points="256.19,-23.48 246.05,-20.42 252.06,-29.14 256.19,-23.48"/>
</a>
</g>
</g>
<!-- Node28 -->
<g id="Node000028" class="node">
<title>Node28</title>
<g id="a_Node000028"><a xlink:title=" ">
<polygon fill="#e0e0e0" stroke="#999999" points="318.12,-19.25 275.12,-19.25 275.12,0 318.12,0 318.12,-19.25"/>
<text text-anchor="middle" x="296.62" y="-5.75" font-family="Helvetica,sans-Serif" font-size="10.00">vector</text>
</a>
</g>
</g>
<!-- Node26&#45;&gt;Node28 -->
<g id="edge30_Node000026_Node000028" class="edge">
<title>Node26&#45;&gt;Node28</title>
<g id="a_edge30_Node000026_Node000028"><a xlink:title=" ">
<path fill="none" stroke="#63b8ff" d="M304.14,-55.08C303.03,-48.49 301.46,-39.21 300.04,-30.82"/>
<polygon fill="#63b8ff" stroke="#63b8ff" points="303.51,-30.38 298.4,-21.1 296.61,-31.55 303.51,-30.38"/>
</a>
</g>
</g>
<!-- Node29&#45;&gt;Node13 -->
<g id="edge32_Node000029_Node000013" class="edge">
<title>Node29&#45;&gt;Node13</title>
<g id="a_edge32_Node000029_Node000013"><a xlink:title=" ">
<path fill="none" stroke="#63b8ff" d="M496.96,-54.84C466.59,-45.28 418.83,-30.22 387.61,-20.39"/>
<polygon fill="#63b8ff" stroke="#63b8ff" points="388.96,-17.14 378.37,-17.48 386.85,-23.82 388.96,-17.14"/>
</a>
</g>
</g>
<!-- Node29&#45;&gt;Node15 -->
<g id="edge33_Node000029_Node000015" class="edge">
<title>Node29&#45;&gt;Node15</title>
<g id="a_edge33_Node000029_Node000015"><a xlink:title=" ">
<path fill="none" stroke="#63b8ff" d="M531.9,-55.08C536.98,-47.96 544.32,-37.68 550.66,-28.8"/>
<polygon fill="#63b8ff" stroke="#63b8ff" points="553.37,-31.01 556.33,-20.84 547.68,-26.95 553.37,-31.01"/>
</a>
</g>
</g>
<!-- Node30 -->
<g id="Node000030" class="node">
<title>Node30</title>
<g id="a_Node000030"><a xlink:title=" ">
<polygon fill="#e0e0e0" stroke="#999999" points="522.5,-19.25 454.75,-19.25 454.75,0 522.5,0 522.5,-19.25"/>
<text text-anchor="middle" x="488.62" y="-5.75" font-family="Helvetica,sans-Serif" font-size="10.00">TDirectory.h</text>
</a>
</g>
</g>
<!-- Node29&#45;&gt;Node30 -->
<g id="edge34_Node000029_Node000030" class="edge">
<title>Node29&#45;&gt;Node30</title>
<g id="a_edge34_Node000029_Node000030"><a xlink:title=" ">
<path fill="none" stroke="#63b8ff" d="M519.52,-55.08C514.56,-47.96 507.42,-37.68 501.25,-28.8"/>
<polygon fill="#63b8ff" stroke="#63b8ff" points="504.31,-27.07 495.73,-20.85 498.56,-31.06 504.31,-27.07"/>
</a>
</g>
</g>
<!-- Node31 -->
<g id="Node000031" class="node">
<title>Node31</title>
<g id="a_Node000031"><a xlink:title=" ">
<polygon fill="#e0e0e0" stroke="#999999" points="436.75,-19.25 394.5,-19.25 394.5,0 436.75,0 436.75,-19.25"/>
<text text-anchor="middle" x="415.62" y="-5.75" font-family="Helvetica,sans-Serif" font-size="10.00">TH2.h</text>
</a>
</g>
</g>
<!-- Node29&#45;&gt;Node31 -->
<g id="edge35_Node000029_Node000031" class="edge">
<title>Node29&#45;&gt;Node31</title>
<g id="a_edge35_Node000029_Node000031"><a xlink:title=" ">
<path fill="none" stroke="#63b8ff" d="M506.96,-54.84C489.9,-46.58 464.38,-34.23 444.65,-24.68"/>
<polygon fill="#63b8ff" stroke="#63b8ff" points="446.26,-21.57 435.74,-20.36 443.21,-27.87 446.26,-21.57"/>
</a>
</g>
</g>
</g>
</svg>

<g id="navigator" transform="translate(0 0)" fill="#404254">
  <rect fill="#f2f5e9" fill-opacity="0.5" stroke="#606060" stroke-width=".5" x="0" y="0" width="60" height="60"/>
  <use id="zoomplus" xlink:href="#zoomPlus" x="17" y="9" onmousedown="handleZoom(evt,'in')"/>
  <use id="zoomminus" xlink:href="#zoomMin" x="42" y="9" onmousedown="handleZoom(evt,'out')"/>
  <use id="reset" xlink:href="#resetDef" x="30" y="36" onmousedown="handleReset()"/>
   <use id="arrowup" xlink:href="#arrowUp" x="0" y="0" onmousedown="handlePan(0,-1)"/>
  <use id="arrowright" xlink:href="#arrowRight" x="0" y="0" onmousedown="handlePan(1,0)"/>
  <use id="arrowdown" xlink:href="#arrowDown" x="0" y="0" onmousedown="handlePan(0,1)"/>
  <use id="arrowleft" xlink:href="#arrowLeft" x="0" y="0" onmousedown="handlePan(-1,0)"/>
</g>
<svg viewBox="0 0 15 15" width="100%" height="30px" preserveAspectRatio="xMaxYMin meet">
 <g id="arrow_out" transform="scale(0.3 0.3)">
  <a xlink:href="_t_analysis_options_8cxx__incl_org.svg" target="_base">
   <rect id="button" ry="5" rx="5" y="6" x="6" height="38" width="38"
        fill="#f2f5e9" fill-opacity="0.5" stroke="#606060" stroke-width="1.0"/>
   <path id="arrow"
     d="M 11.500037,31.436501 C 11.940474,20.09759 22.043105,11.32322 32.158766,21.979434 L 37.068811,17.246167 C 37.068811,17.246167 37.088388,32 37.088388,32 L 22.160133,31.978069 C 22.160133,31.978069 26.997745,27.140456 26.997745,27.140456 C 18.528582,18.264221 13.291696,25.230495 11.500037,31.436501 z"
     style="fill:#404040;"/>
  </a>
 </g>
</svg>

<style type='text/css'>
<![CDATA[
[data-mouse-over-selected='false'] { opacity: 0.7; }
[data-mouse-over-selected='true']  { opacity: 1.0; }
]]>
</style>
<script type="application/ecmascript"><![CDATA[
document.addEventListener('DOMContentLoaded', (event) => {
  highlightEdges();
  highlightAdjacentNodes();
});
]]></script>
</svg>
