<?xml version="1.0" encoding="UTF-8" standalone="no"?>
<!DOCTYPE svg PUBLIC "-//W3C//DTD SVG 1.1//EN"
 "http://www.w3.org/Graphics/SVG/1.1/DTD/svg11.dtd">
<!-- Generated by graphviz version 12.2.0 (20241103.1931)
 -->
<!-- Title: TABPeak.cxx Pages: 1 -->
<!--zoomable 304 -->

<svg id="main" version="1.1" xmlns="http://www.w3.org/2000/svg" xmlns:xlink="http://www.w3.org/1999/xlink" xml:space="preserve" onload="init(evt)">

<style type="text/css"><![CDATA[
.node, .edge {opacity: 0.7;}
.node.selected, .edge.selected {opacity: 1;}
.edge:hover path { stroke: red; }
.edge:hover polygon { stroke: red; fill: red; }
]]></style>

<defs>
  <circle id="rim" cx="0" cy="0" r="7"/>
  <circle id="rim2" cx="0" cy="0" r="3.5"/>
  <g id="zoomPlus">
    <use xlink:href="#rim" fill="#404040"><set attributeName="fill" to="#808080" begin="zoomplus.mouseover" end="zoomplus.mouseout"/></use>
    <path d="M-4,0h8M0,-4v8" fill="none" stroke="white" stroke-width="1.5" pointer-events="none"/>
  </g>
  <g id="zoomMin">
    <use xlink:href="#rim" fill="#404040"><set attributeName="fill" to="#808080" begin="zoomminus.mouseover" end="zoomminus.mouseout"/></use>
    <path d="M-4,0h8" fill="none" stroke="white" stroke-width="1.5" pointer-events="none"/>
  </g>
  <g id="arrowUp" transform="translate(30 24)">
    <use xlink:href="#rim"/>
    <path pointer-events="none" fill="none" stroke="white" stroke-width="1.5" d="M0,-3.0v7 M-2.5,-0.5L0,-3.0L2.5,-0.5"/>
  </g>
  <g id="arrowRight" transform="rotate(90) translate(36 -43)">
    <use xlink:href="#rim"/>
    <path pointer-events="none" fill="none" stroke="white" stroke-width="1.5" d="M0,-3.0v7 M-2.5,-0.5L0,-3.0L2.5,-0.5"/>
  </g>
  <g id="arrowDown" transform="rotate(180) translate(-30 -48)">
    <use xlink:href="#rim"/>
    <path pointer-events="none" fill="none" stroke="white" stroke-width="1.5" d="M0,-3.0v7 M-2.5,-0.5L0,-3.0L2.5,-0.5"/>
  </g>
  <g id="arrowLeft" transform="rotate(270) translate(-36 17)">
    <use xlink:href="#rim"/>
    <path pointer-events="none" fill="none" stroke="white" stroke-width="1.5" d="M0,-3.0v7 M-2.5,-0.5L0,-3.0L2.5,-0.5"/>
  </g>
  <g id="resetDef">
    <use xlink:href="#rim2" fill="#404040"><set attributeName="fill" to="#808080" begin="reset.mouseover" end="reset.mouseout"/></use>
  </g>
</defs>
<script type="application/ecmascript">
var viewWidth = 1013;
var viewHeight = 304;
var sectionId = 'dynsection-0';
</script>
<script type="application/ecmascript" xlink:href="svg.min.js"/>
<svg id="graph" class="graph">
<g id="viewport">
<title>TABPeak.cxx</title>
<!-- Node1 -->
<g id="Node000001" class="node">
<title>Node1</title>
<g id="a_Node000001"><a xlink:title=" ">
<polygon fill="#999999" stroke="#666666" points="701,-295.5 626.5,-295.5 626.5,-276.25 701,-276.25 701,-295.5"/>
<text text-anchor="middle" x="663.75" y="-282" font-family="Helvetica,sans-Serif" font-size="10.00">TABPeak.cxx</text>
</a>
</g>
</g>
<!-- Node2 -->
<g id="Node000002" class="node">
<title>Node2</title>
<g id="a_Node000002"><a xlink:href="_t_a_b_peak_8h.html" target="_top" xlink:title=" ">
<polygon fill="white" stroke="#666666" points="660.5,-240.25 595,-240.25 595,-221 660.5,-221 660.5,-240.25"/>
<text text-anchor="middle" x="627.75" y="-226.75" font-family="Helvetica,sans-Serif" font-size="10.00">TABPeak.h</text>
</a>
</g>
</g>
<!-- Node1&#45;&gt;Node2 -->
<g id="edge1_Node000001_Node000002" class="edge">
<title>Node1&#45;&gt;Node2</title>
<g id="a_edge1_Node000001_Node000002"><a xlink:title=" ">
<path fill="none" stroke="#63b8ff" d="M657.81,-276.08C653.04,-269.03 646.19,-258.9 640.23,-250.08"/>
<polygon fill="#63b8ff" stroke="#63b8ff" points="643.17,-248.19 634.67,-241.86 637.37,-252.11 643.17,-248.19"/>
</a>
</g>
</g>
<!-- Node27 -->
<g id="Node000027" class="node">
<title>Node27</title>
<g id="a_Node000027"><a xlink:title=" ">
<polygon fill="#e0e0e0" stroke="#999999" points="720.88,-240.25 678.62,-240.25 678.62,-221 720.88,-221 720.88,-240.25"/>
<text text-anchor="middle" x="699.75" y="-226.75" font-family="Helvetica,sans-Serif" font-size="10.00">TH1.h</text>
</a>
</g>
</g>
<!-- Node1&#45;&gt;Node27 -->
<g id="edge32_Node000001_Node000027" class="edge">
<title>Node1&#45;&gt;Node27</title>
<g id="a_edge32_Node000001_Node000027"><a xlink:title=" ">
<path fill="none" stroke="#63b8ff" d="M669.69,-276.08C674.46,-269.03 681.31,-258.9 687.27,-250.08"/>
<polygon fill="#63b8ff" stroke="#63b8ff" points="690.13,-252.11 692.83,-241.86 684.33,-248.19 690.13,-252.11"/>
</a>
</g>
</g>
<!-- Node3 -->
<g id="Node000003" class="node">
<title>Node3</title>
<g id="a_Node000003"><a xlink:title=" ">
<polygon fill="#e0e0e0" stroke="#999999" points="757.88,-74.5 709.62,-74.5 709.62,-55.25 757.88,-55.25 757.88,-74.5"/>
<text text-anchor="middle" x="733.75" y="-61" font-family="Helvetica,sans-Serif" font-size="10.00">cstdarg</text>
</a>
</g>
</g>
<!-- Node2&#45;&gt;Node3 -->
<g id="edge2_Node000002_Node000003" class="edge">
<title>Node2&#45;&gt;Node3</title>
<g id="a_edge2_Node000002_Node000003"><a xlink:title=" ">
<path fill="none" stroke="#63b8ff" d="M652.76,-220.57C700.92,-202.57 803.46,-161.31 822.75,-129.75 838.59,-103.84 800.05,-85.4 768.8,-75.19"/>
<polygon fill="#63b8ff" stroke="#63b8ff" points="770.18,-71.96 759.6,-72.37 768.13,-78.65 770.18,-71.96"/>
</a>
</g>
</g>
<!-- Node4 -->
<g id="Node000004" class="node">
<title>Node4</title>
<g id="a_Node000004"><a xlink:title=" ">
<polygon fill="#e0e0e0" stroke="#999999" points="443.12,-74.5 402.38,-74.5 402.38,-55.25 443.12,-55.25 443.12,-74.5"/>
<text text-anchor="middle" x="422.75" y="-61" font-family="Helvetica,sans-Serif" font-size="10.00">TF1.h</text>
</a>
</g>
</g>
<!-- Node2&#45;&gt;Node4 -->
<g id="edge3_Node000002_Node000004" class="edge">
<title>Node2&#45;&gt;Node4</title>
<g id="a_edge3_Node000002_Node000004"><a xlink:title=" ">
<path fill="none" stroke="#63b8ff" d="M611.86,-220.54C583.92,-204.2 524.78,-167.99 480.75,-129.75 464.37,-115.52 447.96,-96.95 436.79,-83.5"/>
<polygon fill="#63b8ff" stroke="#63b8ff" points="439.65,-81.46 430.62,-75.92 434.22,-85.88 439.65,-81.46"/>
</a>
</g>
</g>
<!-- Node5 -->
<g id="Node000005" class="node">
<title>Node5</title>
<g id="a_Node000005"><a xlink:href="_t_single_peak_8h.html" target="_top" xlink:title=" ">
<polygon fill="white" stroke="#666666" points="667.25,-185 588.25,-185 588.25,-165.75 667.25,-165.75 667.25,-185"/>
<text text-anchor="middle" x="627.75" y="-171.5" font-family="Helvetica,sans-Serif" font-size="10.00">TSinglePeak.h</text>
</a>
</g>
</g>
<!-- Node2&#45;&gt;Node5 -->
<g id="edge4_Node000002_Node000005" class="edge">
<title>Node2&#45;&gt;Node5</title>
<g id="a_edge4_Node000002_Node000005"><a xlink:title=" ">
<path fill="none" stroke="#63b8ff" d="M627.75,-220.83C627.75,-214.32 627.75,-205.17 627.75,-196.87"/>
<polygon fill="#63b8ff" stroke="#63b8ff" points="631.25,-196.87 627.75,-186.87 624.25,-196.87 631.25,-196.87"/>
</a>
</g>
</g>
<!-- Node5&#45;&gt;Node3 -->
<g id="edge6_Node000005_Node000003" class="edge">
<title>Node5&#45;&gt;Node3</title>
<g id="a_edge6_Node000005_Node000003"><a xlink:title=" ">
<path fill="none" stroke="#63b8ff" d="M654.2,-165.29C671.74,-158.07 694.14,-146.41 708.75,-129.75 719.69,-117.28 726.13,-99.46 729.72,-85.81"/>
<polygon fill="#63b8ff" stroke="#63b8ff" points="733.11,-86.72 731.93,-76.19 726.28,-85.15 733.11,-86.72"/>
</a>
</g>
</g>
<!-- Node5&#45;&gt;Node4 -->
<g id="edge8_Node000005_Node000004" class="edge">
<title>Node5&#45;&gt;Node4</title>
<g id="a_edge8_Node000005_Node000004"><a xlink:title=" ">
<path fill="none" stroke="#63b8ff" d="M600.56,-165.29C577.63,-157.2 544.25,-144.4 516.75,-129.75 490.03,-115.52 461.58,-95.4 443.06,-81.57"/>
<polygon fill="#63b8ff" stroke="#63b8ff" points="445.4,-78.95 435.32,-75.7 441.18,-84.53 445.4,-78.95"/>
</a>
</g>
</g>
<!-- Node6 -->
<g id="Node000006" class="node">
<title>Node6</title>
<g id="a_Node000006"><a xlink:title=" ">
<polygon fill="#e0e0e0" stroke="#999999" points="699.25,-129.75 656.25,-129.75 656.25,-110.5 699.25,-110.5 699.25,-129.75"/>
<text text-anchor="middle" x="677.75" y="-116.25" font-family="Helvetica,sans-Serif" font-size="10.00">vector</text>
</a>
</g>
</g>
<!-- Node5&#45;&gt;Node6 -->
<g id="edge5_Node000005_Node000006" class="edge">
<title>Node5&#45;&gt;Node6</title>
<g id="a_edge5_Node000005_Node000006"><a xlink:title=" ">
<path fill="none" stroke="#63b8ff" d="M636.01,-165.58C642.91,-158.23 652.97,-147.51 661.49,-138.44"/>
<polygon fill="#63b8ff" stroke="#63b8ff" points="663.98,-140.9 668.28,-131.21 658.88,-136.11 663.98,-140.9"/>
</a>
</g>
</g>
<!-- Node7 -->
<g id="Node000007" class="node">
<title>Node7</title>
<g id="a_Node000007"><a xlink:title=" ">
<polygon fill="#e0e0e0" stroke="#999999" points="813.75,-129.75 755.75,-129.75 755.75,-110.5 813.75,-110.5 813.75,-129.75"/>
<text text-anchor="middle" x="784.75" y="-116.25" font-family="Helvetica,sans-Serif" font-size="10.00">TObject.h</text>
</a>
</g>
</g>
<!-- Node5&#45;&gt;Node7 -->
<g id="edge7_Node000005_Node000007" class="edge">
<title>Node5&#45;&gt;Node7</title>
<g id="a_edge7_Node000005_Node000007"><a xlink:title=" ">
<path fill="none" stroke="#63b8ff" d="M654.38,-165.34C679.87,-156.7 718.56,-143.57 747.18,-133.87"/>
<polygon fill="#63b8ff" stroke="#63b8ff" points="748.21,-137.22 756.55,-130.69 745.96,-130.59 748.21,-137.22"/>
</a>
</g>
</g>
<!-- Node8 -->
<g id="Node000008" class="node">
<title>Node8</title>
<g id="a_Node000008"><a xlink:title=" ">
<polygon fill="#e0e0e0" stroke="#999999" points="691.62,-74.5 635.88,-74.5 635.88,-55.25 691.62,-55.25 691.62,-74.5"/>
<text text-anchor="middle" x="663.75" y="-61" font-family="Helvetica,sans-Serif" font-size="10.00">TGraph.h</text>
</a>
</g>
</g>
<!-- Node5&#45;&gt;Node8 -->
<g id="edge9_Node000005_Node000008" class="edge">
<title>Node5&#45;&gt;Node8</title>
<g id="a_edge9_Node000005_Node000008"><a xlink:title=" ">
<path fill="none" stroke="#63b8ff" d="M630.36,-165.66C634.07,-153.33 641.17,-130.11 647.75,-110.5 650.53,-102.21 653.76,-93.11 656.59,-85.31"/>
<polygon fill="#63b8ff" stroke="#63b8ff" points="659.79,-86.74 659.94,-76.15 653.22,-84.34 659.79,-86.74"/>
</a>
</g>
</g>
<!-- Node9 -->
<g id="Node000009" class="node">
<title>Node9</title>
<g id="a_Node000009"><a xlink:href="_t_peak_fitter_8h.html" target="_top" xlink:title=" ">
<polygon fill="white" stroke="#666666" points="600,-129.75 525.5,-129.75 525.5,-110.5 600,-110.5 600,-129.75"/>
<text text-anchor="middle" x="562.75" y="-116.25" font-family="Helvetica,sans-Serif" font-size="10.00">TPeakFitter.h</text>
</a>
</g>
</g>
<!-- Node5&#45;&gt;Node9 -->
<g id="edge10_Node000005_Node000009" class="edge">
<title>Node5&#45;&gt;Node9</title>
<g id="a_edge10_Node000005_Node000009"><a xlink:title=" ">
<path fill="none" stroke="#63b8ff" d="M611.51,-165.34C600.73,-157.8 587,-146.85 576.71,-137.73"/>
<polygon fill="#63b8ff" stroke="#63b8ff" points="579.24,-135.3 569.53,-131.06 574.47,-140.43 579.24,-135.3"/>
</a>
</g>
</g>
<!-- Node9&#45;&gt;Node3 -->
<g id="edge11_Node000009_Node000003" class="edge">
<title>Node9&#45;&gt;Node3</title>
<g id="a_edge11_Node000009_Node000003"><a xlink:title=" ">
<path fill="none" stroke="#63b8ff" d="M591.76,-110.09C621.21,-100.92 666.84,-86.71 698.39,-76.89"/>
<polygon fill="#63b8ff" stroke="#63b8ff" points="699.36,-80.25 707.87,-73.93 697.28,-73.57 699.36,-80.25"/>
</a>
</g>
</g>
<!-- Node9&#45;&gt;Node4 -->
<g id="edge12_Node000009_Node000004" class="edge">
<title>Node9&#45;&gt;Node4</title>
<g id="a_edge12_Node000009_Node000004"><a xlink:title=" ">
<path fill="none" stroke="#63b8ff" d="M539,-110.09C515.62,-101.2 479.79,-87.57 454.09,-77.79"/>
<polygon fill="#63b8ff" stroke="#63b8ff" points="455.42,-74.56 444.83,-74.27 452.93,-81.1 455.42,-74.56"/>
</a>
</g>
</g>
<!-- Node9&#45;&gt;Node5 -->
<g id="edge31_Node000009_Node000005" class="edge">
<title>Node9&#45;&gt;Node5</title>
<g id="a_edge31_Node000009_Node000005"><a xlink:title=" ">
<path fill="none" stroke="#63b8ff" d="M578.92,-130.11C589.75,-137.68 603.57,-148.7 613.88,-157.85"/>
<polygon fill="#63b8ff" stroke="#63b8ff" points="611.37,-160.3 621.08,-164.55 616.14,-155.18 611.37,-160.3"/>
</a>
</g>
</g>
<!-- Node9&#45;&gt;Node8 -->
<g id="edge14_Node000009_Node000008" class="edge">
<title>Node9&#45;&gt;Node8</title>
<g id="a_edge14_Node000009_Node000008"><a xlink:title=" ">
<path fill="none" stroke="#63b8ff" d="M579.88,-110.09C595.41,-101.91 618.55,-89.71 636.59,-80.19"/>
<polygon fill="#63b8ff" stroke="#63b8ff" points="637.98,-83.42 645.19,-75.66 634.72,-77.23 637.98,-83.42"/>
</a>
</g>
</g>
<!-- Node10 -->
<g id="Node000010" class="node">
<title>Node10</title>
<g id="a_Node000010"><a xlink:title=" ">
<polygon fill="#e0e0e0" stroke="#999999" points="617.38,-74.5 536.12,-74.5 536.12,-55.25 617.38,-55.25 617.38,-74.5"/>
<text text-anchor="middle" x="576.75" y="-61" font-family="Helvetica,sans-Serif" font-size="10.00">TFitResultPtr.h</text>
</a>
</g>
</g>
<!-- Node9&#45;&gt;Node10 -->
<g id="edge13_Node000009_Node000010" class="edge">
<title>Node9&#45;&gt;Node10</title>
<g id="a_edge13_Node000009_Node000010"><a xlink:title=" ">
<path fill="none" stroke="#63b8ff" d="M565.06,-110.33C566.81,-103.67 569.29,-94.24 571.52,-85.78"/>
<polygon fill="#63b8ff" stroke="#63b8ff" points="574.85,-86.88 574,-76.32 568.08,-85.1 574.85,-86.88"/>
</a>
</g>
</g>
<!-- Node11 -->
<g id="Node000011" class="node">
<title>Node11</title>
<g id="a_Node000011"><a xlink:href="_globals_8h.html" target="_top" xlink:title=" ">
<polygon fill="white" stroke="#666666" points="518,-74.5 461.5,-74.5 461.5,-55.25 518,-55.25 518,-74.5"/>
<text text-anchor="middle" x="489.75" y="-61" font-family="Helvetica,sans-Serif" font-size="10.00">Globals.h</text>
</a>
</g>
</g>
<!-- Node9&#45;&gt;Node11 -->
<g id="edge15_Node000009_Node000011" class="edge">
<title>Node9&#45;&gt;Node11</title>
<g id="a_edge15_Node000009_Node000011"><a xlink:title=" ">
<path fill="none" stroke="#63b8ff" d="M550.37,-110.09C539.6,-102.24 523.78,-90.7 511,-81.37"/>
<polygon fill="#63b8ff" stroke="#63b8ff" points="513.31,-78.73 503.17,-75.67 509.19,-84.39 513.31,-78.73"/>
</a>
</g>
</g>
<!-- Node12 -->
<g id="Node000012" class="node">
<title>Node12</title>
<g id="a_Node000012"><a xlink:title=" ">
<polygon fill="#e0e0e0" stroke="#999999" points="53.5,-19.25 0,-19.25 0,0 53.5,0 53.5,-19.25"/>
<text text-anchor="middle" x="26.75" y="-5.75" font-family="Helvetica,sans-Serif" font-size="10.00">iostream</text>
</a>
</g>
</g>
<!-- Node11&#45;&gt;Node12 -->
<g id="edge16_Node000011_Node000012" class="edge">
<title>Node11&#45;&gt;Node12</title>
<g id="a_edge16_Node000011_Node000012"><a xlink:title=" ">
<path fill="none" stroke="#63b8ff" d="M461.19,-56.97C458.02,-56.33 454.82,-55.74 451.75,-55.25 283.88,-28.55 236.05,-46.75 64.97,-19.37"/>
<polygon fill="#63b8ff" stroke="#63b8ff" points="65.72,-15.94 55.29,-17.79 64.59,-22.85 65.72,-15.94"/>
</a>
</g>
</g>
<!-- Node13 -->
<g id="Node000013" class="node">
<title>Node13</title>
<g id="a_Node000013"><a xlink:title=" ">
<polygon fill="#e0e0e0" stroke="#999999" points="121.62,-19.25 71.88,-19.25 71.88,0 121.62,0 121.62,-19.25"/>
<text text-anchor="middle" x="96.75" y="-5.75" font-family="Helvetica,sans-Serif" font-size="10.00">iomanip</text>
</a>
</g>
</g>
<!-- Node11&#45;&gt;Node13 -->
<g id="edge17_Node000011_Node000013" class="edge">
<title>Node11&#45;&gt;Node13</title>
<g id="a_edge17_Node000011_Node000013"><a xlink:title=" ">
<path fill="none" stroke="#63b8ff" d="M461.18,-57.03C458.01,-56.38 454.82,-55.77 451.75,-55.25 313.79,-31.93 274,-44.29 133.14,-19.44"/>
<polygon fill="#63b8ff" stroke="#63b8ff" points="133.87,-16.01 123.41,-17.69 132.63,-22.9 133.87,-16.01"/>
</a>
</g>
</g>
<!-- Node14 -->
<g id="Node000014" class="node">
<title>Node14</title>
<g id="a_Node000014"><a xlink:title=" ">
<polygon fill="#e0e0e0" stroke="#999999" points="197.75,-19.25 139.75,-19.25 139.75,0 197.75,0 197.75,-19.25"/>
<text text-anchor="middle" x="168.75" y="-5.75" font-family="Helvetica,sans-Serif" font-size="10.00">stdexcept</text>
</a>
</g>
</g>
<!-- Node11&#45;&gt;Node14 -->
<g id="edge18_Node000011_Node000014" class="edge">
<title>Node11&#45;&gt;Node14</title>
<g id="a_edge18_Node000011_Node000014"><a xlink:title=" ">
<path fill="none" stroke="#63b8ff" d="M461.17,-57.14C458,-56.47 454.81,-55.82 451.75,-55.25 347.05,-35.71 316.87,-39.19 209.18,-19.57"/>
<polygon fill="#63b8ff" stroke="#63b8ff" points="210.12,-16.19 199.65,-17.81 208.85,-23.07 210.12,-16.19"/>
</a>
</g>
</g>
<!-- Node15 -->
<g id="Node000015" class="node">
<title>Node15</title>
<g id="a_Node000015"><a xlink:title=" ">
<polygon fill="#e0e0e0" stroke="#999999" points="255.75,-19.25 215.75,-19.25 215.75,0 255.75,0 255.75,-19.25"/>
<text text-anchor="middle" x="235.75" y="-5.75" font-family="Helvetica,sans-Serif" font-size="10.00">string</text>
</a>
</g>
</g>
<!-- Node11&#45;&gt;Node15 -->
<g id="edge19_Node000011_Node000015" class="edge">
<title>Node11&#45;&gt;Node15</title>
<g id="a_edge19_Node000011_Node000015"><a xlink:title=" ">
<path fill="none" stroke="#63b8ff" d="M461.14,-57.27C457.97,-56.58 454.8,-55.89 451.75,-55.25 372.39,-38.61 348.92,-39.25 267.07,-19.62"/>
<polygon fill="#63b8ff" stroke="#63b8ff" points="267.98,-16.23 257.43,-17.27 266.32,-23.04 267.98,-16.23"/>
</a>
</g>
</g>
<!-- Node16 -->
<g id="Node000016" class="node">
<title>Node16</title>
<g id="a_Node000016"><a xlink:title=" ">
<polygon fill="#e0e0e0" stroke="#999999" points="315.88,-19.25 273.62,-19.25 273.62,0 315.88,0 315.88,-19.25"/>
<text text-anchor="middle" x="294.75" y="-5.75" font-family="Helvetica,sans-Serif" font-size="10.00">cstdio</text>
</a>
</g>
</g>
<!-- Node11&#45;&gt;Node16 -->
<g id="edge20_Node000011_Node000016" class="edge">
<title>Node11&#45;&gt;Node16</title>
<g id="a_edge20_Node000011_Node000016"><a xlink:title=" ">
<path fill="none" stroke="#63b8ff" d="M461.1,-56.27C430.28,-48.06 379.57,-34.47 327.21,-19.91"/>
<polygon fill="#63b8ff" stroke="#63b8ff" points="328.4,-16.6 317.83,-17.29 326.52,-23.35 328.4,-16.6"/>
</a>
</g>
</g>
<!-- Node17 -->
<g id="Node000017" class="node">
<title>Node17</title>
<g id="a_Node000017"><a xlink:title=" ">
<polygon fill="#e0e0e0" stroke="#999999" points="379.38,-19.25 334.12,-19.25 334.12,0 379.38,0 379.38,-19.25"/>
<text text-anchor="middle" x="356.75" y="-5.75" font-family="Helvetica,sans-Serif" font-size="10.00">cstdint</text>
</a>
</g>
</g>
<!-- Node11&#45;&gt;Node17 -->
<g id="edge21_Node000011_Node000017" class="edge">
<title>Node11&#45;&gt;Node17</title>
<g id="a_edge21_Node000011_Node000017"><a xlink:title=" ">
<path fill="none" stroke="#63b8ff" d="M467.19,-54.84C445.98,-46.35 413.98,-33.54 389.87,-23.89"/>
<polygon fill="#63b8ff" stroke="#63b8ff" points="391.41,-20.73 380.83,-20.27 388.81,-27.23 391.41,-20.73"/>
</a>
</g>
</g>
<!-- Node18 -->
<g id="Node000018" class="node">
<title>Node18</title>
<g id="a_Node000018"><a xlink:title=" ">
<polygon fill="#e0e0e0" stroke="#999999" points="442,-19.25 397.5,-19.25 397.5,0 442,0 442,-19.25"/>
<text text-anchor="middle" x="419.75" y="-5.75" font-family="Helvetica,sans-Serif" font-size="10.00">cstdlib</text>
</a>
</g>
</g>
<!-- Node11&#45;&gt;Node18 -->
<g id="edge22_Node000011_Node000018" class="edge">
<title>Node11&#45;&gt;Node18</title>
<g id="a_edge22_Node000011_Node000018"><a xlink:title=" ">
<path fill="none" stroke="#63b8ff" d="M477.88,-54.84C467.66,-47.07 452.68,-35.67 440.49,-26.4"/>
<polygon fill="#63b8ff" stroke="#63b8ff" points="442.73,-23.71 432.65,-20.44 438.49,-29.28 442.73,-23.71"/>
</a>
</g>
</g>
<!-- Node19 -->
<g id="Node000019" class="node">
<title>Node19</title>
<g id="a_Node000019"><a xlink:title=" ">
<polygon fill="#e0e0e0" stroke="#999999" points="519.5,-19.25 460,-19.25 460,0 519.5,0 519.5,-19.25"/>
<text text-anchor="middle" x="489.75" y="-5.75" font-family="Helvetica,sans-Serif" font-size="10.00">execinfo.h</text>
</a>
</g>
</g>
<!-- Node11&#45;&gt;Node19 -->
<g id="edge23_Node000011_Node000019" class="edge">
<title>Node11&#45;&gt;Node19</title>
<g id="a_edge23_Node000011_Node000019"><a xlink:title=" ">
<path fill="none" stroke="#63b8ff" d="M489.75,-55.08C489.75,-48.57 489.75,-39.42 489.75,-31.12"/>
<polygon fill="#63b8ff" stroke="#63b8ff" points="493.25,-31.12 489.75,-21.12 486.25,-31.12 493.25,-31.12"/>
</a>
</g>
</g>
<!-- Node20 -->
<g id="Node000020" class="node">
<title>Node20</title>
<g id="a_Node000020"><a xlink:title=" ">
<polygon fill="#e0e0e0" stroke="#999999" points="588,-19.25 537.5,-19.25 537.5,0 588,0 588,-19.25"/>
<text text-anchor="middle" x="562.75" y="-5.75" font-family="Helvetica,sans-Serif" font-size="10.00">cxxabi.h</text>
</a>
</g>
</g>
<!-- Node11&#45;&gt;Node20 -->
<g id="edge24_Node000011_Node000020" class="edge">
<title>Node11&#45;&gt;Node20</title>
<g id="a_edge24_Node000011_Node000020"><a xlink:title=" ">
<path fill="none" stroke="#63b8ff" d="M502.13,-54.84C512.9,-46.99 528.72,-35.45 541.5,-26.12"/>
<polygon fill="#63b8ff" stroke="#63b8ff" points="543.31,-29.14 549.33,-20.42 539.19,-23.48 543.31,-29.14"/>
</a>
</g>
</g>
<!-- Node21 -->
<g id="Node000021" class="node">
<title>Node21</title>
<g id="a_Node000021"><a xlink:title=" ">
<polygon fill="#e0e0e0" stroke="#999999" points="657.38,-19.25 606.12,-19.25 606.12,0 657.38,0 657.38,-19.25"/>
<text text-anchor="middle" x="631.75" y="-5.75" font-family="Helvetica,sans-Serif" font-size="10.00">sstream</text>
</a>
</g>
</g>
<!-- Node11&#45;&gt;Node21 -->
<g id="edge25_Node000011_Node000021" class="edge">
<title>Node11&#45;&gt;Node21</title>
<g id="a_edge25_Node000011_Node000021"><a xlink:title=" ">
<path fill="none" stroke="#63b8ff" d="M513.84,-54.84C536.69,-46.27 571.27,-33.31 597.08,-23.63"/>
<polygon fill="#63b8ff" stroke="#63b8ff" points="597.99,-27.02 606.13,-20.23 595.53,-20.47 597.99,-27.02"/>
</a>
</g>
</g>
<!-- Node22 -->
<g id="Node000022" class="node">
<title>Node22</title>
<g id="a_Node000022"><a xlink:title=" ">
<polygon fill="#e0e0e0" stroke="#999999" points="712.25,-19.25 675.25,-19.25 675.25,0 712.25,0 712.25,-19.25"/>
<text text-anchor="middle" x="693.75" y="-5.75" font-family="Helvetica,sans-Serif" font-size="10.00">array</text>
</a>
</g>
</g>
<!-- Node11&#45;&gt;Node22 -->
<g id="edge26_Node000011_Node000022" class="edge">
<title>Node11&#45;&gt;Node22</title>
<g id="a_edge26_Node000011_Node000022"><a xlink:title=" ">
<path fill="none" stroke="#63b8ff" d="M518.41,-57.23C551.4,-49.45 607.47,-35.86 663.99,-19.92"/>
<polygon fill="#63b8ff" stroke="#63b8ff" points="664.8,-23.33 673.46,-17.22 662.88,-16.59 664.8,-23.33"/>
</a>
</g>
</g>
<!-- Node23 -->
<g id="Node000023" class="node">
<title>Node23</title>
<g id="a_Node000023"><a xlink:title=" ">
<polygon fill="#e0e0e0" stroke="#999999" points="781,-19.25 730.5,-19.25 730.5,0 781,0 781,-19.25"/>
<text text-anchor="middle" x="755.75" y="-5.75" font-family="Helvetica,sans-Serif" font-size="10.00">memory</text>
</a>
</g>
</g>
<!-- Node11&#45;&gt;Node23 -->
<g id="edge27_Node000011_Node000023" class="edge">
<title>Node11&#45;&gt;Node23</title>
<g id="a_edge27_Node000011_Node000023"><a xlink:title=" ">
<path fill="none" stroke="#63b8ff" d="M518.4,-57.06C521.22,-56.43 524.04,-55.82 526.75,-55.25 609.57,-37.96 633.74,-38.06 719.16,-19.7"/>
<polygon fill="#63b8ff" stroke="#63b8ff" points="719.67,-23.17 728.69,-17.63 718.18,-16.33 719.67,-23.17"/>
</a>
</g>
</g>
<!-- Node24 -->
<g id="Node000024" class="node">
<title>Node24</title>
<g id="a_Node000024"><a xlink:title=" ">
<polygon fill="#e0e0e0" stroke="#999999" points="848.62,-19.25 798.88,-19.25 798.88,0 848.62,0 848.62,-19.25"/>
<text text-anchor="middle" x="823.75" y="-5.75" font-family="Helvetica,sans-Serif" font-size="10.00">unistd.h</text>
</a>
</g>
</g>
<!-- Node11&#45;&gt;Node24 -->
<g id="edge28_Node000011_Node000024" class="edge">
<title>Node11&#45;&gt;Node24</title>
<g id="a_edge28_Node000011_Node000024"><a xlink:title=" ">
<path fill="none" stroke="#63b8ff" d="M518.38,-56.92C521.2,-56.32 524.03,-55.75 526.75,-55.25 639.26,-34.48 671.98,-41.34 787.5,-19.48"/>
<polygon fill="#63b8ff" stroke="#63b8ff" points="787.93,-22.96 797.08,-17.63 786.6,-16.09 787.93,-22.96"/>
</a>
</g>
</g>
<!-- Node25 -->
<g id="Node000025" class="node">
<title>Node25</title>
<g id="a_Node000025"><a xlink:title=" ">
<polygon fill="#e0e0e0" stroke="#999999" points="926.5,-19.25 867,-19.25 867,0 926.5,0 926.5,-19.25"/>
<text text-anchor="middle" x="896.75" y="-5.75" font-family="Helvetica,sans-Serif" font-size="10.00">sys/wait.h</text>
</a>
</g>
</g>
<!-- Node11&#45;&gt;Node25 -->
<g id="edge29_Node000011_Node000025" class="edge">
<title>Node11&#45;&gt;Node25</title>
<g id="a_edge29_Node000011_Node000025"><a xlink:title=" ">
<path fill="none" stroke="#63b8ff" d="M518.36,-56.85C521.19,-56.26 524.02,-55.72 526.75,-55.25 669.07,-31.01 709.76,-42.66 855.44,-19.45"/>
<polygon fill="#63b8ff" stroke="#63b8ff" points="855.78,-22.94 865.09,-17.88 854.65,-16.03 855.78,-22.94"/>
</a>
</g>
</g>
<!-- Node26 -->
<g id="Node000026" class="node">
<title>Node26</title>
<g id="a_Node000026"><a xlink:title=" ">
<polygon fill="#e0e0e0" stroke="#999999" points="1004.88,-19.25 944.62,-19.25 944.62,0 1004.88,0 1004.88,-19.25"/>
<text text-anchor="middle" x="974.75" y="-5.75" font-family="Helvetica,sans-Serif" font-size="10.00">sys/prctl.h</text>
</a>
</g>
</g>
<!-- Node11&#45;&gt;Node26 -->
<g id="edge30_Node000011_Node000026" class="edge">
<title>Node11&#45;&gt;Node26</title>
<g id="a_edge30_Node000011_Node000026"><a xlink:title=" ">
<path fill="none" stroke="#63b8ff" d="M518.35,-56.79C521.18,-56.21 524.01,-55.69 526.75,-55.25 703.34,-27.04 753.4,-46.21 932.99,-19.48"/>
<polygon fill="#63b8ff" stroke="#63b8ff" points="933.31,-22.97 942.67,-18.01 932.26,-16.05 933.31,-22.97"/>
</a>
</g>
</g>
</g>
</svg>

<g id="navigator" transform="translate(0 0)" fill="#404254">
  <rect fill="#f2f5e9" fill-opacity="0.5" stroke="#606060" stroke-width=".5" x="0" y="0" width="60" height="60"/>
  <use id="zoomplus" xlink:href="#zoomPlus" x="17" y="9" onmousedown="handleZoom(evt,'in')"/>
  <use id="zoomminus" xlink:href="#zoomMin" x="42" y="9" onmousedown="handleZoom(evt,'out')"/>
  <use id="reset" xlink:href="#resetDef" x="30" y="36" onmousedown="handleReset()"/>
   <use id="arrowup" xlink:href="#arrowUp" x="0" y="0" onmousedown="handlePan(0,-1)"/>
  <use id="arrowright" xlink:href="#arrowRight" x="0" y="0" onmousedown="handlePan(1,0)"/>
  <use id="arrowdown" xlink:href="#arrowDown" x="0" y="0" onmousedown="handlePan(0,1)"/>
  <use id="arrowleft" xlink:href="#arrowLeft" x="0" y="0" onmousedown="handlePan(-1,0)"/>
</g>
<svg viewBox="0 0 15 15" width="100%" height="30px" preserveAspectRatio="xMaxYMin meet">
 <g id="arrow_out" transform="scale(0.3 0.3)">
  <a xlink:href="_t_a_b_peak_8cxx__incl_org.svg" target="_base">
   <rect id="button" ry="5" rx="5" y="6" x="6" height="38" width="38"
        fill="#f2f5e9" fill-opacity="0.5" stroke="#606060" stroke-width="1.0"/>
   <path id="arrow"
     d="M 11.500037,31.436501 C 11.940474,20.09759 22.043105,11.32322 32.158766,21.979434 L 37.068811,17.246167 C 37.068811,17.246167 37.088388,32 37.088388,32 L 22.160133,31.978069 C 22.160133,31.978069 26.997745,27.140456 26.997745,27.140456 C 18.528582,18.264221 13.291696,25.230495 11.500037,31.436501 z"
     style="fill:#404040;"/>
  </a>
 </g>
</svg>

<style type='text/css'>
<![CDATA[
[data-mouse-over-selected='false'] { opacity: 0.7; }
[data-mouse-over-selected='true']  { opacity: 1.0; }
]]>
</style>
<script type="application/ecmascript"><![CDATA[
document.addEventListener('DOMContentLoaded', (event) => {
  highlightEdges();
  highlightAdjacentNodes();
});
]]></script>
</svg>
