<?xml version="1.0" encoding="UTF-8" standalone="no"?>
<!DOCTYPE svg PUBLIC "-//W3C//DTD SVG 1.1//EN"
 "http://www.w3.org/Graphics/SVG/1.1/DTD/svg11.dtd">
<!-- Generated by graphviz version 9.0.0 (20230911.1827)
 -->
<!-- Title: TAnalysisOptions.cxx Pages: 1 -->
<svg width="1229pt" height="248pt"
 viewBox="0.00 0.00 1228.62 248.25" xmlns="http://www.w3.org/2000/svg" xmlns:xlink="http://www.w3.org/1999/xlink">
<g id="graph0" class="graph" transform="scale(1 1) rotate(0) translate(4 244.25)">
<title>TAnalysisOptions.cxx</title>
<!-- Node1 -->
<g id="Node000001" class="node">
<title>Node1</title>
<g id="a_Node000001"><a xlink:title=" ">
<polygon fill="#999999" stroke="#666666" points="947.12,-240.25 838.12,-240.25 838.12,-221 947.12,-221 947.12,-240.25"/>
<text text-anchor="middle" x="892.62" y="-226.75" font-family="Helvetica,sans-Serif" font-size="10.00">TAnalysisOptions.cxx</text>
</a>
</g>
</g>
<!-- Node2 -->
<g id="Node000002" class="node">
<title>Node2</title>
<g id="a_Node000002"><a xlink:href="_t_analysis_options_8h.html" target="_top" xlink:title=" ">
<polygon fill="white" stroke="#666666" points="303.62,-185 203.62,-185 203.62,-165.75 303.62,-165.75 303.62,-185"/>
<text text-anchor="middle" x="253.62" y="-171.5" font-family="Helvetica,sans-Serif" font-size="10.00">TAnalysisOptions.h</text>
</a>
</g>
</g>
<!-- Node1&#45;&gt;Node2 -->
<g id="edge1_Node000001_Node000002" class="edge">
<title>Node1&#45;&gt;Node2</title>
<g id="a_edge1_Node000001_Node000002"><a xlink:title=" ">
<path fill="none" stroke="#63b8ff" d="M837.83,-226.41C735.46,-220.17 508.3,-205.23 317.62,-185 316.79,-184.91 315.95,-184.82 315.1,-184.73"/>
<polygon fill="#63b8ff" stroke="#63b8ff" points="315.74,-181.28 305.4,-183.6 314.93,-188.23 315.74,-181.28"/>
</a>
</g>
</g>
<!-- Node6 -->
<g id="Node000006" class="node">
<title>Node6</title>
<g id="a_Node000006"><a xlink:title=" ">
<polygon fill="#e0e0e0" stroke="#999999" points="122.38,-19.25 68.88,-19.25 68.88,0 122.38,0 122.38,-19.25"/>
<text text-anchor="middle" x="95.62" y="-5.75" font-family="Helvetica,sans-Serif" font-size="10.00">iostream</text>
</a>
</g>
</g>
<!-- Node1&#45;&gt;Node6 -->
<g id="edge31_Node000001_Node000006" class="edge">
<title>Node1&#45;&gt;Node6</title>
<g id="a_edge31_Node000001_Node000006"><a xlink:title=" ">
<path fill="none" stroke="#63b8ff" d="M837.85,-220.66C749.24,-205.57 569.35,-172.5 420.62,-129.75 310.98,-98.23 185.23,-47.95 127.55,-24.06"/>
<polygon fill="#63b8ff" stroke="#63b8ff" points="128.93,-20.84 118.35,-20.23 126.24,-27.31 128.93,-20.84"/>
</a>
</g>
</g>
<!-- Node13 -->
<g id="Node000013" class="node">
<title>Node13</title>
<g id="a_Node000013"><a xlink:href="_globals_8h.html" target="_top" xlink:title=" ">
<polygon fill="white" stroke="#666666" points="547.88,-74.5 491.38,-74.5 491.38,-55.25 547.88,-55.25 547.88,-74.5"/>
<text text-anchor="middle" x="519.62" y="-61" font-family="Helvetica,sans-Serif" font-size="10.00">Globals.h</text>
</a>
</g>
</g>
<!-- Node1&#45;&gt;Node13 -->
<g id="edge34_Node000001_Node000013" class="edge">
<title>Node1&#45;&gt;Node13</title>
<g id="a_edge34_Node000001_Node000013"><a xlink:title=" ">
<path fill="none" stroke="#63b8ff" d="M870.87,-220.64C849.23,-211.69 815.08,-197.5 785.62,-185 728.59,-160.8 714.19,-155.04 657.62,-129.75 619.97,-112.91 576.87,-92.83 549,-79.74"/>
<polygon fill="#63b8ff" stroke="#63b8ff" points="550.66,-76.65 540.12,-75.56 547.68,-82.99 550.66,-76.65"/>
</a>
</g>
</g>
<!-- Node23 -->
<g id="Node000023" class="node">
<title>Node23</title>
<g id="a_Node000023"><a xlink:title=" ">
<polygon fill="#e0e0e0" stroke="#999999" points="1010.62,-19.25 964.62,-19.25 964.62,0 1010.62,0 1010.62,-19.25"/>
<text text-anchor="middle" x="987.62" y="-5.75" font-family="Helvetica,sans-Serif" font-size="10.00">TEnv.h</text>
</a>
</g>
</g>
<!-- Node1&#45;&gt;Node23 -->
<g id="edge32_Node000001_Node000023" class="edge">
<title>Node1&#45;&gt;Node23</title>
<g id="a_edge32_Node000001_Node000023"><a xlink:title=" ">
<path fill="none" stroke="#63b8ff" d="M936.77,-220.5C956.58,-214.03 978.24,-203.14 990.62,-185 1022.99,-137.57 1005.76,-64.72 994.65,-30.14"/>
<polygon fill="#63b8ff" stroke="#63b8ff" points="998.09,-29.38 991.55,-21.04 991.46,-31.64 998.09,-29.38"/>
</a>
</g>
</g>
<!-- Node26 -->
<g id="Node000026" class="node">
<title>Node26</title>
<g id="a_Node000026"><a xlink:title=" ">
<polygon fill="#e0e0e0" stroke="#999999" points="1094.5,-185 1038.75,-185 1038.75,-165.75 1094.5,-165.75 1094.5,-185"/>
<text text-anchor="middle" x="1066.62" y="-171.5" font-family="Helvetica,sans-Serif" font-size="10.00">algorithm</text>
</a>
</g>
</g>
<!-- Node1&#45;&gt;Node26 -->
<g id="edge29_Node000001_Node000026" class="edge">
<title>Node1&#45;&gt;Node26</title>
<g id="a_edge29_Node000001_Node000026"><a xlink:title=" ">
<path fill="none" stroke="#63b8ff" d="M922.14,-220.59C951.2,-211.7 995.74,-198.07 1027.68,-188.29"/>
<polygon fill="#63b8ff" stroke="#63b8ff" points="1028.42,-191.73 1036.96,-185.45 1026.37,-185.03 1028.42,-191.73"/>
</a>
</g>
</g>
<!-- Node27 -->
<g id="Node000027" class="node">
<title>Node27</title>
<g id="a_Node000027"><a xlink:title=" ">
<polygon fill="#e0e0e0" stroke="#999999" points="1156.88,-185 1112.38,-185 1112.38,-165.75 1156.88,-165.75 1156.88,-185"/>
<text text-anchor="middle" x="1134.62" y="-171.5" font-family="Helvetica,sans-Serif" font-size="10.00">cctype</text>
</a>
</g>
</g>
<!-- Node1&#45;&gt;Node27 -->
<g id="edge30_Node000001_Node000027" class="edge">
<title>Node1&#45;&gt;Node27</title>
<g id="a_edge30_Node000001_Node000027"><a xlink:title=" ">
<path fill="none" stroke="#63b8ff" d="M939.75,-220.54C980.21,-212.55 1040.33,-200.2 1101.04,-185.52"/>
<polygon fill="#63b8ff" stroke="#63b8ff" points="1101.63,-188.98 1110.51,-183.21 1099.97,-182.18 1101.63,-188.98"/>
</a>
</g>
</g>
<!-- Node28 -->
<g id="Node000028" class="node">
<title>Node28</title>
<g id="a_Node000028"><a xlink:title=" ">
<polygon fill="#e0e0e0" stroke="#999999" points="1220.62,-185 1174.62,-185 1174.62,-165.75 1220.62,-165.75 1220.62,-185"/>
<text text-anchor="middle" x="1197.62" y="-171.5" font-family="Helvetica,sans-Serif" font-size="10.00">TKey.h</text>
</a>
</g>
</g>
<!-- Node1&#45;&gt;Node28 -->
<g id="edge33_Node000001_Node000028" class="edge">
<title>Node1&#45;&gt;Node28</title>
<g id="a_edge33_Node000001_Node000028"><a xlink:title=" ">
<path fill="none" stroke="#63b8ff" d="M947.58,-222.31C1000.55,-214.89 1083.16,-202.33 1163.47,-185.28"/>
<polygon fill="#63b8ff" stroke="#63b8ff" points="1163.75,-188.8 1172.79,-183.28 1162.28,-181.96 1163.75,-188.8"/>
</a>
</g>
</g>
<!-- Node29 -->
<g id="Node000029" class="node">
<title>Node29</title>
<g id="a_Node000029"><a xlink:href="_dynamic_library_8h.html" target="_top" xlink:title=" ">
<polygon fill="white" stroke="#666666" points="898.75,-129.75 808.5,-129.75 808.5,-110.5 898.75,-110.5 898.75,-129.75"/>
<text text-anchor="middle" x="853.62" y="-116.25" font-family="Helvetica,sans-Serif" font-size="10.00">DynamicLibrary.h</text>
</a>
</g>
</g>
<!-- Node1&#45;&gt;Node29 -->
<g id="edge35_Node000001_Node000029" class="edge">
<title>Node1&#45;&gt;Node29</title>
<g id="a_edge35_Node000001_Node000029"><a xlink:title=" ">
<path fill="none" stroke="#63b8ff" d="M888.13,-220.54C883.82,-211.63 877.29,-197.58 872.62,-185 867.2,-170.37 862.21,-153.42 858.71,-140.66"/>
<polygon fill="#63b8ff" stroke="#63b8ff" points="862.2,-140.14 856.24,-131.39 855.44,-141.95 862.2,-140.14"/>
</a>
</g>
</g>
<!-- Node30 -->
<g id="Node000030" class="node">
<title>Node30</title>
<g id="a_Node000030"><a xlink:href="_t_g_r_s_i_utilities_8h.html" target="_top" xlink:title=" ">
<polygon fill="white" stroke="#666666" points="752.88,-129.75 666.38,-129.75 666.38,-110.5 752.88,-110.5 752.88,-129.75"/>
<text text-anchor="middle" x="709.62" y="-116.25" font-family="Helvetica,sans-Serif" font-size="10.00">TGRSIUtilities.h</text>
</a>
</g>
</g>
<!-- Node1&#45;&gt;Node30 -->
<g id="edge37_Node000001_Node000030" class="edge">
<title>Node1&#45;&gt;Node30</title>
<g id="a_edge37_Node000001_Node000030"><a xlink:title=" ">
<path fill="none" stroke="#63b8ff" d="M877.34,-220.56C845.72,-201.81 772.87,-158.62 734.43,-135.83"/>
<polygon fill="#63b8ff" stroke="#63b8ff" points="736.69,-133.1 726.3,-131.01 733.12,-139.12 736.69,-133.1"/>
</a>
</g>
</g>
<!-- Node34 -->
<g id="Node000034" class="node">
<title>Node34</title>
<g id="a_Node000034"><a xlink:href="_g_root_commands_8h.html" target="_top" xlink:title=" ">
<polygon fill="white" stroke="#666666" points="982,-185 881.25,-185 881.25,-165.75 982,-165.75 982,-185"/>
<text text-anchor="middle" x="931.62" y="-171.5" font-family="Helvetica,sans-Serif" font-size="10.00">GRootCommands.h</text>
</a>
</g>
</g>
<!-- Node1&#45;&gt;Node34 -->
<g id="edge45_Node000001_Node000034" class="edge">
<title>Node1&#45;&gt;Node34</title>
<g id="a_edge45_Node000001_Node000034"><a xlink:title=" ">
<path fill="none" stroke="#63b8ff" d="M899.07,-220.83C904.28,-213.71 911.81,-203.43 918.32,-194.55"/>
<polygon fill="#63b8ff" stroke="#63b8ff" points="921.07,-196.72 924.15,-186.58 915.42,-192.58 921.07,-196.72"/>
</a>
</g>
</g>
<!-- Node3 -->
<g id="Node000003" class="node">
<title>Node3</title>
<g id="a_Node000003"><a xlink:title=" ">
<polygon fill="#e0e0e0" stroke="#999999" points="292.62,-129.75 234.62,-129.75 234.62,-110.5 292.62,-110.5 292.62,-129.75"/>
<text text-anchor="middle" x="263.62" y="-116.25" font-family="Helvetica,sans-Serif" font-size="10.00">TObject.h</text>
</a>
</g>
</g>
<!-- Node2&#45;&gt;Node3 -->
<g id="edge2_Node000002_Node000003" class="edge">
<title>Node2&#45;&gt;Node3</title>
<g id="a_edge2_Node000002_Node000003"><a xlink:title=" ">
<path fill="none" stroke="#63b8ff" d="M255.28,-165.58C256.51,-158.99 258.26,-149.71 259.83,-141.32"/>
<polygon fill="#63b8ff" stroke="#63b8ff" points="263.25,-142.07 261.66,-131.6 256.37,-140.78 263.25,-142.07"/>
</a>
</g>
</g>
<!-- Node4 -->
<g id="Node000004" class="node">
<title>Node4</title>
<g id="a_Node000004"><a xlink:title=" ">
<polygon fill="#e0e0e0" stroke="#999999" points="216.25,-129.75 171,-129.75 171,-110.5 216.25,-110.5 216.25,-129.75"/>
<text text-anchor="middle" x="193.62" y="-116.25" font-family="Helvetica,sans-Serif" font-size="10.00">TFile.h</text>
</a>
</g>
</g>
<!-- Node2&#45;&gt;Node4 -->
<g id="edge3_Node000002_Node000004" class="edge">
<title>Node2&#45;&gt;Node4</title>
<g id="a_edge3_Node000002_Node000004"><a xlink:title=" ">
<path fill="none" stroke="#63b8ff" d="M243.45,-165.34C234.86,-157.72 222.36,-146.62 212.02,-137.45"/>
<polygon fill="#63b8ff" stroke="#63b8ff" points="214.59,-135.05 204.78,-131.03 209.94,-140.29 214.59,-135.05"/>
</a>
</g>
</g>
<!-- Node5 -->
<g id="Node000005" class="node">
<title>Node5</title>
<g id="a_Node000005"><a xlink:href="_arg_parser_8h.html" target="_top" xlink:title=" ">
<polygon fill="white" stroke="#666666" points="497.12,-129.75 430.12,-129.75 430.12,-110.5 497.12,-110.5 497.12,-129.75"/>
<text text-anchor="middle" x="463.62" y="-116.25" font-family="Helvetica,sans-Serif" font-size="10.00">ArgParser.h</text>
</a>
</g>
</g>
<!-- Node2&#45;&gt;Node5 -->
<g id="edge4_Node000002_Node000005" class="edge">
<title>Node2&#45;&gt;Node5</title>
<g id="a_edge4_Node000002_Node000005"><a xlink:title=" ">
<path fill="none" stroke="#63b8ff" d="M289.25,-165.34C325.03,-156.27 380.28,-142.26 418.97,-132.45"/>
<polygon fill="#63b8ff" stroke="#63b8ff" points="419.61,-135.9 428.45,-130.05 417.89,-129.11 419.61,-135.9"/>
</a>
</g>
</g>
<!-- Node5&#45;&gt;Node6 -->
<g id="edge5_Node000005_Node000006" class="edge">
<title>Node5&#45;&gt;Node6</title>
<g id="a_edge5_Node000005_Node000006"><a xlink:title=" ">
<path fill="none" stroke="#63b8ff" d="M458.65,-110.31C450.08,-96.03 431.07,-68.17 406.62,-55.25 300.84,0.66 255.52,-39.15 133.91,-19.39"/>
<polygon fill="#63b8ff" stroke="#63b8ff" points="134.63,-15.96 124.18,-17.69 133.43,-22.86 134.63,-15.96"/>
</a>
</g>
</g>
<!-- Node7 -->
<g id="Node000007" class="node">
<title>Node7</title>
<g id="a_Node000007"><a xlink:title=" ">
<polygon fill="#e0e0e0" stroke="#999999" points="653.12,-74.5 604.12,-74.5 604.12,-55.25 653.12,-55.25 653.12,-74.5"/>
<text text-anchor="middle" x="628.62" y="-61" font-family="Helvetica,sans-Serif" font-size="10.00">fstream</text>
</a>
</g>
</g>
<!-- Node5&#45;&gt;Node7 -->
<g id="edge6_Node000005_Node000007" class="edge">
<title>Node5&#45;&gt;Node7</title>
<g id="a_edge6_Node000005_Node000007"><a xlink:title=" ">
<path fill="none" stroke="#63b8ff" d="M491.62,-110.09C519.62,-101.05 562.79,-87.12 593.18,-77.31"/>
<polygon fill="#63b8ff" stroke="#63b8ff" points="593.86,-80.77 602.3,-74.37 591.71,-74.11 593.86,-80.77"/>
</a>
</g>
</g>
<!-- Node8 -->
<g id="Node000008" class="node">
<title>Node8</title>
<g id="a_Node000008"><a xlink:title=" ">
<polygon fill="#e0e0e0" stroke="#999999" points="51.25,-19.25 0,-19.25 0,0 51.25,0 51.25,-19.25"/>
<text text-anchor="middle" x="25.62" y="-5.75" font-family="Helvetica,sans-Serif" font-size="10.00">sstream</text>
</a>
</g>
</g>
<!-- Node5&#45;&gt;Node8 -->
<g id="edge7_Node000005_Node000008" class="edge">
<title>Node5&#45;&gt;Node8</title>
<g id="a_edge7_Node000005_Node000008"><a xlink:title=" ">
<path fill="none" stroke="#63b8ff" d="M429.82,-110.84C362.18,-94.25 205.07,-55.64 62.7,-20.01"/>
<polygon fill="#63b8ff" stroke="#63b8ff" points="63.63,-16.64 53.08,-17.6 61.93,-23.43 63.63,-16.64"/>
</a>
</g>
</g>
<!-- Node9 -->
<g id="Node000009" class="node">
<title>Node9</title>
<g id="a_Node000009"><a xlink:title=" ">
<polygon fill="#e0e0e0" stroke="#999999" points="198.62,-19.25 140.62,-19.25 140.62,0 198.62,0 198.62,-19.25"/>
<text text-anchor="middle" x="169.62" y="-5.75" font-family="Helvetica,sans-Serif" font-size="10.00">stdexcept</text>
</a>
</g>
</g>
<!-- Node5&#45;&gt;Node9 -->
<g id="edge8_Node000005_Node000009" class="edge">
<title>Node5&#45;&gt;Node9</title>
<g id="a_edge8_Node000005_Node000009"><a xlink:title=" ">
<path fill="none" stroke="#63b8ff" d="M463.01,-110.07C461.54,-95.98 456.54,-69 439.62,-55.25 361.43,8.33 313.48,-35.57 210.22,-19.46"/>
<polygon fill="#63b8ff" stroke="#63b8ff" points="210.98,-16.04 200.53,-17.77 209.78,-22.93 210.98,-16.04"/>
</a>
</g>
</g>
<!-- Node10 -->
<g id="Node000010" class="node">
<title>Node10</title>
<g id="a_Node000010"><a xlink:title=" ">
<polygon fill="#e0e0e0" stroke="#999999" points="1068.62,-19.25 1028.62,-19.25 1028.62,0 1068.62,0 1068.62,-19.25"/>
<text text-anchor="middle" x="1048.62" y="-5.75" font-family="Helvetica,sans-Serif" font-size="10.00">string</text>
</a>
</g>
</g>
<!-- Node5&#45;&gt;Node10 -->
<g id="edge9_Node000005_Node000010" class="edge">
<title>Node5&#45;&gt;Node10</title>
<g id="a_edge9_Node000005_Node000010"><a xlink:title=" ">
<path fill="none" stroke="#63b8ff" d="M482.92,-110.01C501.77,-101.08 531.25,-87.01 556.62,-74.5 573.6,-66.13 576.41,-60.42 594.62,-55.25 773.42,-4.48 831.11,-52.5 1016.9,-19.36"/>
<polygon fill="#63b8ff" stroke="#63b8ff" points="1017.47,-22.81 1026.67,-17.55 1016.2,-15.93 1017.47,-22.81"/>
</a>
</g>
</g>
<!-- Node11 -->
<g id="Node000011" class="node">
<title>Node11</title>
<g id="a_Node000011"><a xlink:title=" ">
<polygon fill="#e0e0e0" stroke="#999999" points="397.88,-74.5 359.38,-74.5 359.38,-55.25 397.88,-55.25 397.88,-74.5"/>
<text text-anchor="middle" x="378.62" y="-61" font-family="Helvetica,sans-Serif" font-size="10.00">utility</text>
</a>
</g>
</g>
<!-- Node5&#45;&gt;Node11 -->
<g id="edge10_Node000005_Node000011" class="edge">
<title>Node5&#45;&gt;Node11</title>
<g id="a_edge10_Node000005_Node000011"><a xlink:title=" ">
<path fill="none" stroke="#63b8ff" d="M449.21,-110.09C436.51,-102.14 417.75,-90.39 402.77,-81"/>
<polygon fill="#63b8ff" stroke="#63b8ff" points="404.73,-78.1 394.4,-75.76 401.01,-84.03 404.73,-78.1"/>
</a>
</g>
</g>
<!-- Node12 -->
<g id="Node000012" class="node">
<title>Node12</title>
<g id="a_Node000012"><a xlink:title=" ">
<polygon fill="#e0e0e0" stroke="#999999" points="714.12,-74.5 671.12,-74.5 671.12,-55.25 714.12,-55.25 714.12,-74.5"/>
<text text-anchor="middle" x="692.62" y="-61" font-family="Helvetica,sans-Serif" font-size="10.00">vector</text>
</a>
</g>
</g>
<!-- Node5&#45;&gt;Node12 -->
<g id="edge11_Node000005_Node000012" class="edge">
<title>Node5&#45;&gt;Node12</title>
<g id="a_edge11_Node000005_Node000012"><a xlink:title=" ">
<path fill="none" stroke="#63b8ff" d="M497.38,-112.05C534.72,-104.11 596.94,-90.54 659.74,-74.87"/>
<polygon fill="#63b8ff" stroke="#63b8ff" points="660.33,-78.34 669.18,-72.5 658.63,-71.55 660.33,-78.34"/>
</a>
</g>
</g>
<!-- Node5&#45;&gt;Node13 -->
<g id="edge12_Node000005_Node000013" class="edge">
<title>Node5&#45;&gt;Node13</title>
<g id="a_edge12_Node000005_Node000013"><a xlink:title=" ">
<path fill="none" stroke="#63b8ff" d="M473.12,-110.09C481.06,-102.55 492.57,-91.6 502.16,-82.48"/>
<polygon fill="#63b8ff" stroke="#63b8ff" points="504.33,-85.24 509.17,-75.82 499.51,-80.17 504.33,-85.24"/>
</a>
</g>
</g>
<!-- Node13&#45;&gt;Node6 -->
<g id="edge14_Node000013_Node000006" class="edge">
<title>Node13&#45;&gt;Node6</title>
<g id="a_edge14_Node000013_Node000006"><a xlink:title=" ">
<path fill="none" stroke="#63b8ff" d="M491.14,-60.8C413.14,-52.35 198.13,-28.89 133.97,-19.3"/>
<polygon fill="#63b8ff" stroke="#63b8ff" points="134.6,-15.86 124.17,-17.72 133.49,-22.77 134.6,-15.86"/>
</a>
</g>
</g>
<!-- Node13&#45;&gt;Node8 -->
<g id="edge22_Node000013_Node000008" class="edge">
<title>Node13&#45;&gt;Node8</title>
<g id="a_edge22_Node000013_Node000008"><a xlink:title=" ">
<path fill="none" stroke="#63b8ff" d="M490.96,-61.67C407.21,-55.13 163,-35.43 62.74,-19.5"/>
<polygon fill="#63b8ff" stroke="#63b8ff" points="63.46,-16.07 53.02,-17.88 62.31,-22.98 63.46,-16.07"/>
</a>
</g>
</g>
<!-- Node13&#45;&gt;Node9 -->
<g id="edge16_Node000013_Node000009" class="edge">
<title>Node13&#45;&gt;Node9</title>
<g id="a_edge16_Node000013_Node000009"><a xlink:title=" ">
<path fill="none" stroke="#63b8ff" d="M491.21,-57.76C486.68,-56.86 482.03,-55.99 477.62,-55.25 361.76,-35.65 328.7,-40.36 210.01,-19.53"/>
<polygon fill="#63b8ff" stroke="#63b8ff" points="210.98,-16.15 200.52,-17.84 209.75,-23.04 210.98,-16.15"/>
</a>
</g>
</g>
<!-- Node13&#45;&gt;Node10 -->
<g id="edge17_Node000013_Node000010" class="edge">
<title>Node13&#45;&gt;Node10</title>
<g id="a_edge17_Node000013_Node000010"><a xlink:title=" ">
<path fill="none" stroke="#63b8ff" d="M548.01,-57.55C552.55,-56.68 557.2,-55.88 561.62,-55.25 760.14,-27.17 816.84,-55.5 1016.97,-19.35"/>
<polygon fill="#63b8ff" stroke="#63b8ff" points="1017.47,-22.82 1026.67,-17.57 1016.2,-15.94 1017.47,-22.82"/>
</a>
</g>
</g>
<!-- Node14 -->
<g id="Node000014" class="node">
<title>Node14</title>
<g id="a_Node000014"><a xlink:title=" ">
<polygon fill="#e0e0e0" stroke="#999999" points="756.25,-19.25 711,-19.25 711,0 756.25,0 756.25,-19.25"/>
<text text-anchor="middle" x="733.62" y="-5.75" font-family="Helvetica,sans-Serif" font-size="10.00">cstdint</text>
</a>
</g>
</g>
<!-- Node13&#45;&gt;Node14 -->
<g id="edge13_Node000013_Node000014" class="edge">
<title>Node13&#45;&gt;Node14</title>
<g id="a_edge13_Node000013_Node000014"><a xlink:title=" ">
<path fill="none" stroke="#63b8ff" d="M548.36,-57.04C582.17,-48.96 640.26,-34.92 699.5,-19.75"/>
<polygon fill="#63b8ff" stroke="#63b8ff" points="700.29,-23.16 709.1,-17.28 698.55,-16.38 700.29,-23.16"/>
</a>
</g>
</g>
<!-- Node15 -->
<g id="Node000015" class="node">
<title>Node15</title>
<g id="a_Node000015"><a xlink:title=" ">
<polygon fill="#e0e0e0" stroke="#999999" points="824.5,-19.25 774.75,-19.25 774.75,0 824.5,0 824.5,-19.25"/>
<text text-anchor="middle" x="799.62" y="-5.75" font-family="Helvetica,sans-Serif" font-size="10.00">iomanip</text>
</a>
</g>
</g>
<!-- Node13&#45;&gt;Node15 -->
<g id="edge15_Node000013_Node000015" class="edge">
<title>Node13&#45;&gt;Node15</title>
<g id="a_edge15_Node000013_Node000015"><a xlink:title=" ">
<path fill="none" stroke="#63b8ff" d="M548.07,-57.92C552.6,-57.01 557.24,-56.09 561.62,-55.25 648.53,-38.66 673.67,-38.56 763.18,-19.64"/>
<polygon fill="#63b8ff" stroke="#63b8ff" points="763.9,-23.07 772.94,-17.55 762.43,-16.22 763.9,-23.07"/>
</a>
</g>
</g>
<!-- Node16 -->
<g id="Node000016" class="node">
<title>Node16</title>
<g id="a_Node000016"><a xlink:title=" ">
<polygon fill="#e0e0e0" stroke="#999999" points="884.75,-19.25 842.5,-19.25 842.5,0 884.75,0 884.75,-19.25"/>
<text text-anchor="middle" x="863.62" y="-5.75" font-family="Helvetica,sans-Serif" font-size="10.00">cstdio</text>
</a>
</g>
</g>
<!-- Node13&#45;&gt;Node16 -->
<g id="edge18_Node000013_Node000016" class="edge">
<title>Node13&#45;&gt;Node16</title>
<g id="a_edge18_Node000013_Node000016"><a xlink:title=" ">
<path fill="none" stroke="#63b8ff" d="M548.04,-57.76C552.57,-56.86 557.22,-55.99 561.62,-55.25 678.35,-35.57 712.28,-43.65 831.1,-19.51"/>
<polygon fill="#63b8ff" stroke="#63b8ff" points="831.53,-22.99 840.61,-17.54 830.11,-16.14 831.53,-22.99"/>
</a>
</g>
</g>
<!-- Node17 -->
<g id="Node000017" class="node">
<title>Node17</title>
<g id="a_Node000017"><a xlink:title=" ">
<polygon fill="#e0e0e0" stroke="#999999" points="946.88,-19.25 902.38,-19.25 902.38,0 946.88,0 946.88,-19.25"/>
<text text-anchor="middle" x="924.62" y="-5.75" font-family="Helvetica,sans-Serif" font-size="10.00">cstdlib</text>
</a>
</g>
</g>
<!-- Node13&#45;&gt;Node17 -->
<g id="edge19_Node000013_Node000017" class="edge">
<title>Node13&#45;&gt;Node17</title>
<g id="a_edge19_Node000013_Node000017"><a xlink:title=" ">
<path fill="none" stroke="#63b8ff" d="M548.03,-57.66C552.56,-56.78 557.21,-55.94 561.62,-55.25 704.68,-32.86 745.87,-46.53 890.95,-19.48"/>
<polygon fill="#63b8ff" stroke="#63b8ff" points="891.38,-22.96 900.55,-17.65 890.07,-16.08 891.38,-22.96"/>
</a>
</g>
</g>
<!-- Node18 -->
<g id="Node000018" class="node">
<title>Node18</title>
<g id="a_Node000018"><a xlink:title=" ">
<polygon fill="#e0e0e0" stroke="#999999" points="276.38,-19.25 216.88,-19.25 216.88,0 276.38,0 276.38,-19.25"/>
<text text-anchor="middle" x="246.62" y="-5.75" font-family="Helvetica,sans-Serif" font-size="10.00">execinfo.h</text>
</a>
</g>
</g>
<!-- Node13&#45;&gt;Node18 -->
<g id="edge20_Node000013_Node000018" class="edge">
<title>Node13&#45;&gt;Node18</title>
<g id="a_edge20_Node000013_Node000018"><a xlink:title=" ">
<path fill="none" stroke="#63b8ff" d="M491.17,-57.96C486.64,-57.04 482.01,-56.11 477.62,-55.25 395.93,-39.2 372.58,-36.81 288.03,-19.69"/>
<polygon fill="#63b8ff" stroke="#63b8ff" points="288.82,-16.28 278.32,-17.71 287.42,-23.13 288.82,-16.28"/>
</a>
</g>
</g>
<!-- Node19 -->
<g id="Node000019" class="node">
<title>Node19</title>
<g id="a_Node000019"><a xlink:title=" ">
<polygon fill="#e0e0e0" stroke="#999999" points="344.88,-19.25 294.38,-19.25 294.38,0 344.88,0 344.88,-19.25"/>
<text text-anchor="middle" x="319.62" y="-5.75" font-family="Helvetica,sans-Serif" font-size="10.00">cxxabi.h</text>
</a>
</g>
</g>
<!-- Node13&#45;&gt;Node19 -->
<g id="edge21_Node000013_Node000019" class="edge">
<title>Node13&#45;&gt;Node19</title>
<g id="a_edge21_Node000013_Node000019"><a xlink:title=" ">
<path fill="none" stroke="#63b8ff" d="M490.97,-56.25C455.48,-46.8 394.98,-30.69 356.18,-20.36"/>
<polygon fill="#63b8ff" stroke="#63b8ff" points="357.4,-17.06 346.83,-17.87 355.6,-23.82 357.4,-17.06"/>
</a>
</g>
</g>
<!-- Node20 -->
<g id="Node000020" class="node">
<title>Node20</title>
<g id="a_Node000020"><a xlink:title=" ">
<polygon fill="#e0e0e0" stroke="#999999" points="400.12,-19.25 363.12,-19.25 363.12,0 400.12,0 400.12,-19.25"/>
<text text-anchor="middle" x="381.62" y="-5.75" font-family="Helvetica,sans-Serif" font-size="10.00">array</text>
</a>
</g>
</g>
<!-- Node13&#45;&gt;Node20 -->
<g id="edge23_Node000013_Node000020" class="edge">
<title>Node13&#45;&gt;Node20</title>
<g id="a_edge23_Node000013_Node000020"><a xlink:title=" ">
<path fill="none" stroke="#63b8ff" d="M496.22,-54.84C472.64,-45.74 436.2,-31.68 410.76,-21.87"/>
<polygon fill="#63b8ff" stroke="#63b8ff" points="412.27,-18.7 401.68,-18.37 409.75,-25.23 412.27,-18.7"/>
</a>
</g>
</g>
<!-- Node21 -->
<g id="Node000021" class="node">
<title>Node21</title>
<g id="a_Node000021"><a xlink:title=" ">
<polygon fill="#e0e0e0" stroke="#999999" points="468.88,-19.25 418.38,-19.25 418.38,0 468.88,0 468.88,-19.25"/>
<text text-anchor="middle" x="443.62" y="-5.75" font-family="Helvetica,sans-Serif" font-size="10.00">memory</text>
</a>
</g>
</g>
<!-- Node13&#45;&gt;Node21 -->
<g id="edge24_Node000013_Node000021" class="edge">
<title>Node13&#45;&gt;Node21</title>
<g id="a_edge24_Node000013_Node000021"><a xlink:title=" ">
<path fill="none" stroke="#63b8ff" d="M506.73,-54.84C495.6,-47.04 479.25,-35.59 465.99,-26.29"/>
<polygon fill="#63b8ff" stroke="#63b8ff" points="468.02,-23.44 457.82,-20.57 464,-29.18 468.02,-23.44"/>
</a>
</g>
</g>
<!-- Node22 -->
<g id="Node000022" class="node">
<title>Node22</title>
<g id="a_Node000022"><a xlink:title=" ">
<polygon fill="#e0e0e0" stroke="#999999" points="536.5,-19.25 486.75,-19.25 486.75,0 536.5,0 536.5,-19.25"/>
<text text-anchor="middle" x="511.62" y="-5.75" font-family="Helvetica,sans-Serif" font-size="10.00">unistd.h</text>
</a>
</g>
</g>
<!-- Node13&#45;&gt;Node22 -->
<g id="edge25_Node000013_Node000022" class="edge">
<title>Node13&#45;&gt;Node22</title>
<g id="a_edge25_Node000013_Node000022"><a xlink:title=" ">
<path fill="none" stroke="#63b8ff" d="M518.3,-55.08C517.31,-48.49 515.92,-39.21 514.66,-30.82"/>
<polygon fill="#63b8ff" stroke="#63b8ff" points="518.15,-30.47 513.2,-21.11 511.22,-31.51 518.15,-30.47"/>
</a>
</g>
</g>
<!-- Node13&#45;&gt;Node23 -->
<g id="edge26_Node000013_Node000023" class="edge">
<title>Node13&#45;&gt;Node23</title>
<g id="a_edge26_Node000013_Node000023"><a xlink:title=" ">
<path fill="none" stroke="#63b8ff" d="M548.02,-57.6C552.55,-56.72 557.21,-55.9 561.62,-55.25 731.92,-30.06 780.51,-49.4 953.04,-19.4"/>
<polygon fill="#63b8ff" stroke="#63b8ff" points="953.59,-22.86 962.82,-17.67 952.36,-15.97 953.59,-22.86"/>
</a>
</g>
</g>
<!-- Node24 -->
<g id="Node000024" class="node">
<title>Node24</title>
<g id="a_Node000024"><a xlink:title=" ">
<polygon fill="#e0e0e0" stroke="#999999" points="614.38,-19.25 554.88,-19.25 554.88,0 614.38,0 614.38,-19.25"/>
<text text-anchor="middle" x="584.62" y="-5.75" font-family="Helvetica,sans-Serif" font-size="10.00">sys/wait.h</text>
</a>
</g>
</g>
<!-- Node13&#45;&gt;Node24 -->
<g id="edge27_Node000013_Node000024" class="edge">
<title>Node13&#45;&gt;Node24</title>
<g id="a_edge27_Node000013_Node000024"><a xlink:title=" ">
<path fill="none" stroke="#63b8ff" d="M530.65,-54.84C540.05,-47.15 553.77,-35.9 565.03,-26.68"/>
<polygon fill="#63b8ff" stroke="#63b8ff" points="567.07,-29.53 572.59,-20.48 562.64,-24.11 567.07,-29.53"/>
</a>
</g>
</g>
<!-- Node25 -->
<g id="Node000025" class="node">
<title>Node25</title>
<g id="a_Node000025"><a xlink:title=" ">
<polygon fill="#e0e0e0" stroke="#999999" points="692.75,-19.25 632.5,-19.25 632.5,0 692.75,0 692.75,-19.25"/>
<text text-anchor="middle" x="662.62" y="-5.75" font-family="Helvetica,sans-Serif" font-size="10.00">sys/prctl.h</text>
</a>
</g>
</g>
<!-- Node13&#45;&gt;Node25 -->
<g id="edge28_Node000013_Node000025" class="edge">
<title>Node13&#45;&gt;Node25</title>
<g id="a_edge28_Node000013_Node000025"><a xlink:title=" ">
<path fill="none" stroke="#63b8ff" d="M543.88,-54.84C566.89,-46.27 601.72,-33.31 627.71,-23.63"/>
<polygon fill="#63b8ff" stroke="#63b8ff" points="628.68,-27 636.83,-20.23 626.24,-20.44 628.68,-27"/>
</a>
</g>
</g>
<!-- Node29&#45;&gt;Node10 -->
<g id="edge36_Node000029_Node000010" class="edge">
<title>Node29&#45;&gt;Node10</title>
<g id="a_edge36_Node000029_Node000010"><a xlink:title=" ">
<path fill="none" stroke="#63b8ff" d="M869.92,-110.06C903.61,-91.31 981.23,-48.12 1022.2,-25.33"/>
<polygon fill="#63b8ff" stroke="#63b8ff" points="1023.88,-28.4 1030.92,-20.48 1020.48,-22.28 1023.88,-28.4"/>
</a>
</g>
</g>
<!-- Node30&#45;&gt;Node7 -->
<g id="edge38_Node000030_Node000007" class="edge">
<title>Node30&#45;&gt;Node7</title>
<g id="a_edge38_Node000030_Node000007"><a xlink:title=" ">
<path fill="none" stroke="#63b8ff" d="M695.88,-110.09C683.9,-102.21 666.25,-90.61 652.04,-81.27"/>
<polygon fill="#63b8ff" stroke="#63b8ff" points="653.98,-78.35 643.7,-75.78 650.13,-84.2 653.98,-78.35"/>
</a>
</g>
</g>
<!-- Node30&#45;&gt;Node10 -->
<g id="edge39_Node000030_Node000010" class="edge">
<title>Node30&#45;&gt;Node10</title>
<g id="a_edge39_Node000030_Node000010"><a xlink:title=" ">
<path fill="none" stroke="#63b8ff" d="M714.61,-110.34C723.21,-96.11 742.26,-68.3 766.62,-55.25 863.61,-3.3 905.99,-40.98 1017.15,-19.41"/>
<polygon fill="#63b8ff" stroke="#63b8ff" points="1017.57,-22.9 1026.65,-17.44 1016.14,-16.04 1017.57,-22.9"/>
</a>
</g>
</g>
<!-- Node30&#45;&gt;Node12 -->
<g id="edge40_Node000030_Node000012" class="edge">
<title>Node30&#45;&gt;Node12</title>
<g id="a_edge40_Node000030_Node000012"><a xlink:title=" ">
<path fill="none" stroke="#63b8ff" d="M706.82,-110.33C704.69,-103.67 701.68,-94.24 698.98,-85.78"/>
<polygon fill="#63b8ff" stroke="#63b8ff" points="702.33,-84.76 695.95,-76.3 695.66,-86.89 702.33,-84.76"/>
</a>
</g>
</g>
<!-- Node31 -->
<g id="Node000031" class="node">
<title>Node31</title>
<g id="a_Node000031"><a xlink:href="_t_g_r_s_i_types_8h.html" target="_top" xlink:title=" ">
<polygon fill="white" stroke="#666666" points="1135.5,-74.5 1055.75,-74.5 1055.75,-55.25 1135.5,-55.25 1135.5,-74.5"/>
<text text-anchor="middle" x="1095.62" y="-61" font-family="Helvetica,sans-Serif" font-size="10.00">TGRSITypes.h</text>
</a>
</g>
</g>
<!-- Node30&#45;&gt;Node31 -->
<g id="edge41_Node000030_Node000031" class="edge">
<title>Node30&#45;&gt;Node31</title>
<g id="a_edge41_Node000030_Node000031"><a xlink:title=" ">
<path fill="none" stroke="#63b8ff" d="M753.15,-113.12C824.89,-103.22 967.6,-83.54 1044.2,-72.97"/>
<polygon fill="#63b8ff" stroke="#63b8ff" points="1044.53,-76.46 1053.96,-71.62 1043.57,-69.52 1044.53,-76.46"/>
</a>
</g>
</g>
<!-- Node31&#45;&gt;Node10 -->
<g id="edge43_Node000031_Node000010" class="edge">
<title>Node31&#45;&gt;Node10</title>
<g id="a_edge43_Node000031_Node000010"><a xlink:title=" ">
<path fill="none" stroke="#63b8ff" d="M1087.86,-55.08C1081.44,-47.8 1072.11,-37.23 1064.16,-28.23"/>
<polygon fill="#63b8ff" stroke="#63b8ff" points="1066.8,-25.93 1057.56,-20.74 1061.55,-30.56 1066.8,-25.93"/>
</a>
</g>
</g>
<!-- Node32 -->
<g id="Node000032" class="node">
<title>Node32</title>
<g id="a_Node000032"><a xlink:title=" ">
<polygon fill="#e0e0e0" stroke="#999999" points="1121,-19.25 1086.25,-19.25 1086.25,0 1121,0 1121,-19.25"/>
<text text-anchor="middle" x="1103.62" y="-5.75" font-family="Helvetica,sans-Serif" font-size="10.00">map</text>
</a>
</g>
</g>
<!-- Node31&#45;&gt;Node32 -->
<g id="edge42_Node000031_Node000032" class="edge">
<title>Node31&#45;&gt;Node32</title>
<g id="a_edge42_Node000031_Node000032"><a xlink:title=" ">
<path fill="none" stroke="#63b8ff" d="M1096.95,-55.08C1097.94,-48.49 1099.33,-39.21 1100.59,-30.82"/>
<polygon fill="#63b8ff" stroke="#63b8ff" points="1104.03,-31.51 1102.05,-21.11 1097.1,-30.47 1104.03,-31.51"/>
</a>
</g>
</g>
<!-- Node33 -->
<g id="Node000033" class="node">
<title>Node33</title>
<g id="a_Node000033"><a xlink:title=" ">
<polygon fill="#e0e0e0" stroke="#999999" points="1192.38,-19.25 1138.88,-19.25 1138.88,0 1192.38,0 1192.38,-19.25"/>
<text text-anchor="middle" x="1165.62" y="-5.75" font-family="Helvetica,sans-Serif" font-size="10.00">Rtypes.h</text>
</a>
</g>
</g>
<!-- Node31&#45;&gt;Node33 -->
<g id="edge44_Node000031_Node000033" class="edge">
<title>Node31&#45;&gt;Node33</title>
<g id="a_edge44_Node000031_Node000033"><a xlink:title=" ">
<path fill="none" stroke="#63b8ff" d="M1107.5,-54.84C1117.72,-47.07 1132.7,-35.67 1144.89,-26.4"/>
<polygon fill="#63b8ff" stroke="#63b8ff" points="1146.88,-29.28 1152.72,-20.44 1142.64,-23.71 1146.88,-29.28"/>
</a>
</g>
</g>
<!-- Node34&#45;&gt;Node10 -->
<g id="edge46_Node000034_Node000010" class="edge">
<title>Node34&#45;&gt;Node10</title>
<g id="a_edge46_Node000034_Node000010"><a xlink:title=" ">
<path fill="none" stroke="#63b8ff" d="M881.15,-168.57C834.88,-161.02 776.78,-144.53 799.62,-110.5 812.45,-91.39 953.88,-42.26 1017.7,-20.85"/>
<polygon fill="#63b8ff" stroke="#63b8ff" points="1018.5,-24.28 1026.87,-17.79 1016.28,-17.64 1018.5,-24.28"/>
</a>
</g>
</g>
<!-- Node35 -->
<g id="Node000035" class="node">
<title>Node35</title>
<g id="a_Node000035"><a xlink:title=" ">
<polygon fill="#e0e0e0" stroke="#999999" points="984.5,-129.75 916.75,-129.75 916.75,-110.5 984.5,-110.5 984.5,-129.75"/>
<text text-anchor="middle" x="950.62" y="-116.25" font-family="Helvetica,sans-Serif" font-size="10.00">TDirectory.h</text>
</a>
</g>
</g>
<!-- Node34&#45;&gt;Node35 -->
<g id="edge47_Node000034_Node000035" class="edge">
<title>Node34&#45;&gt;Node35</title>
<g id="a_edge47_Node000034_Node000035"><a xlink:title=" ">
<path fill="none" stroke="#63b8ff" d="M934.76,-165.58C937.17,-158.84 940.58,-149.27 943.63,-140.74"/>
<polygon fill="#63b8ff" stroke="#63b8ff" points="946.85,-142.13 946.91,-131.53 940.25,-139.78 946.85,-142.13"/>
</a>
</g>
</g>
</g>
</svg>
