<?xml version="1.0" encoding="UTF-8" standalone="no"?>
<!DOCTYPE svg PUBLIC "-//W3C//DTD SVG 1.1//EN"
 "http://www.w3.org/Graphics/SVG/1.1/DTD/svg11.dtd">
<!-- Generated by graphviz version 12.2.0 (20241103.1931)
 -->
<!-- Title: TBgoHit.cxx Pages: 1 -->
<svg width="1773pt" height="414pt"
 viewBox="0.00 0.00 1772.62 414.00" xmlns="http://www.w3.org/2000/svg" xmlns:xlink="http://www.w3.org/1999/xlink">
<g id="graph0" class="graph" transform="scale(1 1) rotate(0) translate(4 410)">
<title>TBgoHit.cxx</title>
<!-- Node1 -->
<g id="Node000001" class="node">
<title>Node1</title>
<g id="a_Node000001"><a xlink:title=" ">
<polygon fill="#999999" stroke="#666666" points="1208.75,-406 1140.25,-406 1140.25,-386.75 1208.75,-386.75 1208.75,-406"/>
<text text-anchor="middle" x="1174.5" y="-392.5" font-family="Helvetica,sans-Serif" font-size="10.00">TBgoHit.cxx</text>
</a>
</g>
</g>
<!-- Node2 -->
<g id="Node000002" class="node">
<title>Node2</title>
<g id="a_Node000002"><a xlink:href="_t_bgo_hit_8h.html" target="_top" xlink:title=" ">
<polygon fill="white" stroke="#666666" points="974.25,-350.75 914.75,-350.75 914.75,-331.5 974.25,-331.5 974.25,-350.75"/>
<text text-anchor="middle" x="944.5" y="-337.25" font-family="Helvetica,sans-Serif" font-size="10.00">TBgoHit.h</text>
</a>
</g>
</g>
<!-- Node1&#45;&gt;Node2 -->
<g id="edge1_Node000001_Node000002" class="edge">
<title>Node1&#45;&gt;Node2</title>
<g id="a_edge1_Node000001_Node000002"><a xlink:title=" ">
<path fill="none" stroke="#63b8ff" d="M1140.07,-387.4C1098.77,-377.84 1029.61,-361.83 985.57,-351.63"/>
<polygon fill="#63b8ff" stroke="#63b8ff" points="986.41,-348.24 975.88,-349.39 984.83,-355.05 986.41,-348.24"/>
</a>
</g>
</g>
<!-- Node47 -->
<g id="Node000047" class="node">
<title>Node47</title>
<g id="a_Node000047"><a xlink:title=" ">
<polygon fill="#e0e0e0" stroke="#999999" points="1256.62,-350.75 1202.38,-350.75 1202.38,-331.5 1256.62,-331.5 1256.62,-350.75"/>
<text text-anchor="middle" x="1229.5" y="-337.25" font-family="Helvetica,sans-Serif" font-size="10.00">TClass.h</text>
</a>
</g>
</g>
<!-- Node1&#45;&gt;Node47 -->
<g id="edge66_Node000001_Node000047" class="edge">
<title>Node1&#45;&gt;Node47</title>
<g id="a_edge66_Node000001_Node000047"><a xlink:title=" ">
<path fill="none" stroke="#63b8ff" d="M1183.58,-386.58C1191.34,-379.07 1202.71,-368.06 1212.2,-358.88"/>
<polygon fill="#63b8ff" stroke="#63b8ff" points="1214.38,-361.63 1219.13,-352.16 1209.51,-356.6 1214.38,-361.63"/>
</a>
</g>
</g>
<!-- Node48 -->
<g id="Node000048" class="node">
<title>Node48</title>
<g id="a_Node000048"><a xlink:href="_g_value_8h.html" target="_top" xlink:title=" ">
<polygon fill="white" stroke="#666666" points="1323.38,-185 1267.62,-185 1267.62,-165.75 1323.38,-165.75 1323.38,-185"/>
<text text-anchor="middle" x="1295.5" y="-171.5" font-family="Helvetica,sans-Serif" font-size="10.00">GValue.h</text>
</a>
</g>
</g>
<!-- Node1&#45;&gt;Node48 -->
<g id="edge67_Node000001_Node000048" class="edge">
<title>Node1&#45;&gt;Node48</title>
<g id="a_edge67_Node000001_Node000048"><a xlink:title=" ">
<path fill="none" stroke="#63b8ff" d="M1176.3,-386.4C1179.02,-373.76 1184.81,-350.17 1193.5,-331.5 1218.32,-278.14 1259.62,-221.99 1281.27,-194.17"/>
<polygon fill="#63b8ff" stroke="#63b8ff" points="1283.91,-196.47 1287.35,-186.45 1278.41,-192.14 1283.91,-196.47"/>
</a>
</g>
</g>
<!-- Node3 -->
<g id="Node000003" class="node">
<title>Node3</title>
<g id="a_Node000003"><a xlink:title=" ">
<polygon fill="#e0e0e0" stroke="#999999" points="1764.62,-19.25 1722.38,-19.25 1722.38,0 1764.62,0 1764.62,-19.25"/>
<text text-anchor="middle" x="1743.5" y="-5.75" font-family="Helvetica,sans-Serif" font-size="10.00">cstdio</text>
</a>
</g>
</g>
<!-- Node2&#45;&gt;Node3 -->
<g id="edge2_Node000002_Node000003" class="edge">
<title>Node2&#45;&gt;Node3</title>
<g id="a_edge2_Node000002_Node000003"><a xlink:title=" ">
<path fill="none" stroke="#63b8ff" d="M974.41,-337.35C1088.04,-326.41 1486.5,-284.29 1486.5,-231.62 1486.5,-231.62 1486.5,-231.62 1486.5,-119.12 1486.5,-94.98 1642.42,-42.62 1711.37,-20.65"/>
<polygon fill="#63b8ff" stroke="#63b8ff" points="1712.11,-24.09 1720.59,-17.73 1710,-17.41 1712.11,-24.09"/>
</a>
</g>
</g>
<!-- Node4 -->
<g id="Node000004" class="node">
<title>Node4</title>
<g id="a_Node000004"><a xlink:title=" ">
<polygon fill="#e0e0e0" stroke="#999999" points="43,-129.75 0,-129.75 0,-110.5 43,-110.5 43,-129.75"/>
<text text-anchor="middle" x="21.5" y="-116.25" font-family="Helvetica,sans-Serif" font-size="10.00">cmath</text>
</a>
</g>
</g>
<!-- Node2&#45;&gt;Node4 -->
<g id="edge3_Node000002_Node000004" class="edge">
<title>Node2&#45;&gt;Node4</title>
<g id="a_edge3_Node000002_Node000004"><a xlink:title=" ">
<path fill="none" stroke="#63b8ff" d="M914.45,-333.2C820.85,-311.58 526.16,-243.36 282.5,-185 200.39,-165.33 103.92,-141.55 54.44,-129.3"/>
<polygon fill="#63b8ff" stroke="#63b8ff" points="55.5,-125.95 44.95,-126.95 53.81,-132.75 55.5,-125.95"/>
</a>
</g>
</g>
<!-- Node5 -->
<g id="Node000005" class="node">
<title>Node5</title>
<g id="a_Node000005"><a xlink:href="_t_fragment_8h.html" target="_top" xlink:title=" ">
<polygon fill="white" stroke="#666666" points="979.88,-295.5 909.12,-295.5 909.12,-276.25 979.88,-276.25 979.88,-295.5"/>
<text text-anchor="middle" x="944.5" y="-282" font-family="Helvetica,sans-Serif" font-size="10.00">TFragment.h</text>
</a>
</g>
</g>
<!-- Node2&#45;&gt;Node5 -->
<g id="edge4_Node000002_Node000005" class="edge">
<title>Node2&#45;&gt;Node5</title>
<g id="a_edge4_Node000002_Node000005"><a xlink:title=" ">
<path fill="none" stroke="#63b8ff" d="M944.5,-331.33C944.5,-324.82 944.5,-315.67 944.5,-307.37"/>
<polygon fill="#63b8ff" stroke="#63b8ff" points="948,-307.37 944.5,-297.37 941,-307.37 948,-307.37"/>
</a>
</g>
</g>
<!-- Node6 -->
<g id="Node000006" class="node">
<title>Node6</title>
<g id="a_Node000006"><a xlink:href="_t_detector_hit_8h.html" target="_top" xlink:title=" ">
<polygon fill="white" stroke="#666666" points="712,-240.25 633,-240.25 633,-221 712,-221 712,-240.25"/>
<text text-anchor="middle" x="672.5" y="-226.75" font-family="Helvetica,sans-Serif" font-size="10.00">TDetectorHit.h</text>
</a>
</g>
</g>
<!-- Node2&#45;&gt;Node6 -->
<g id="edge65_Node000002_Node000006" class="edge">
<title>Node2&#45;&gt;Node6</title>
<g id="a_edge65_Node000002_Node000006"><a xlink:title=" ">
<path fill="none" stroke="#63b8ff" d="M921.78,-331.06C873.78,-311.91 761.87,-267.28 705.79,-244.9"/>
<polygon fill="#63b8ff" stroke="#63b8ff" points="707.34,-241.75 696.76,-241.3 704.75,-248.26 707.34,-241.75"/>
</a>
</g>
</g>
<!-- Node5&#45;&gt;Node6 -->
<g id="edge5_Node000005_Node000006" class="edge">
<title>Node5&#45;&gt;Node6</title>
<g id="a_edge5_Node000005_Node000006"><a xlink:title=" ">
<path fill="none" stroke="#63b8ff" d="M908.66,-277.86C861.25,-268.58 777.41,-252.16 723.44,-241.6"/>
<polygon fill="#63b8ff" stroke="#63b8ff" points="724.37,-238.21 713.88,-239.73 723.02,-245.08 724.37,-238.21"/>
</a>
</g>
</g>
<!-- Node7 -->
<g id="Node000007" class="node">
<title>Node7</title>
<g id="a_Node000007"><a xlink:title=" ">
<polygon fill="#e0e0e0" stroke="#999999" points="613,-74.5 570,-74.5 570,-55.25 613,-55.25 613,-74.5"/>
<text text-anchor="middle" x="591.5" y="-61" font-family="Helvetica,sans-Serif" font-size="10.00">vector</text>
</a>
</g>
</g>
<!-- Node5&#45;&gt;Node7 -->
<g id="edge62_Node000005_Node000007" class="edge">
<title>Node5&#45;&gt;Node7</title>
<g id="a_edge62_Node000005_Node000007"><a xlink:title=" ">
<path fill="none" stroke="#63b8ff" d="M925.34,-275.78C890.8,-259.15 816.11,-222.11 756.5,-185 702.1,-151.13 641.96,-105.46 611.52,-81.71"/>
<polygon fill="#63b8ff" stroke="#63b8ff" points="613.95,-79.16 603.92,-75.74 609.63,-84.67 613.95,-79.16"/>
</a>
</g>
</g>
<!-- Node21 -->
<g id="Node000021" class="node">
<title>Node21</title>
<g id="a_Node000021"><a xlink:title=" ">
<polygon fill="#e0e0e0" stroke="#999999" points="963.25,-185 909.75,-185 909.75,-165.75 963.25,-165.75 963.25,-185"/>
<text text-anchor="middle" x="936.5" y="-171.5" font-family="Helvetica,sans-Serif" font-size="10.00">Rtypes.h</text>
</a>
</g>
</g>
<!-- Node5&#45;&gt;Node21 -->
<g id="edge64_Node000005_Node000021" class="edge">
<title>Node5&#45;&gt;Node21</title>
<g id="a_edge64_Node000005_Node000021"><a xlink:title=" ">
<path fill="none" stroke="#63b8ff" d="M943.33,-276C942.19,-267.01 940.49,-252.68 939.5,-240.25 938.35,-225.79 937.59,-209.46 937.13,-196.93"/>
<polygon fill="#63b8ff" stroke="#63b8ff" points="940.63,-196.87 936.79,-187 933.63,-197.11 940.63,-196.87"/>
</a>
</g>
</g>
<!-- Node23 -->
<g id="Node000023" class="node">
<title>Node23</title>
<g id="a_Node000023"><a xlink:href="_t_p_p_g_8h.html" target="_top" xlink:title=" ">
<polygon fill="white" stroke="#666666" points="1041.75,-185 991.25,-185 991.25,-165.75 1041.75,-165.75 1041.75,-185"/>
<text text-anchor="middle" x="1016.5" y="-171.5" font-family="Helvetica,sans-Serif" font-size="10.00">TPPG.h</text>
</a>
</g>
</g>
<!-- Node5&#45;&gt;Node23 -->
<g id="edge60_Node000005_Node000023" class="edge">
<title>Node5&#45;&gt;Node23</title>
<g id="a_edge60_Node000005_Node000023"><a xlink:title=" ">
<path fill="none" stroke="#63b8ff" d="M959.15,-276.02C971.11,-268.07 987.61,-255.34 997.5,-240.25 1006.15,-227.05 1010.98,-209.78 1013.6,-196.53"/>
<polygon fill="#63b8ff" stroke="#63b8ff" points="1017.02,-197.25 1015.24,-186.81 1010.12,-196.09 1017.02,-197.25"/>
</a>
</g>
</g>
<!-- Node25 -->
<g id="Node000025" class="node">
<title>Node25</title>
<g id="a_Node000025"><a xlink:title=" ">
<polygon fill="#e0e0e0" stroke="#999999" points="935.25,-19.25 881.75,-19.25 881.75,0 935.25,0 935.25,-19.25"/>
<text text-anchor="middle" x="908.5" y="-5.75" font-family="Helvetica,sans-Serif" font-size="10.00">iostream</text>
</a>
</g>
</g>
<!-- Node5&#45;&gt;Node25 -->
<g id="edge61_Node000005_Node000025" class="edge">
<title>Node5&#45;&gt;Node25</title>
<g id="a_edge61_Node000005_Node000025"><a xlink:title=" ">
<path fill="none" stroke="#63b8ff" d="M979.98,-283.78C1100.31,-278.76 1479.78,-251.65 1376.5,-110.5 1373.51,-106.41 1207.45,-56.37 1202.5,-55.25 1093.12,-30.44 1060.3,-40.1 946.81,-19.5"/>
<polygon fill="#63b8ff" stroke="#63b8ff" points="947.53,-16.07 937.05,-17.68 946.25,-22.95 947.53,-16.07"/>
</a>
</g>
</g>
<!-- Node46 -->
<g id="Node000046" class="node">
<title>Node46</title>
<g id="a_Node000046"><a xlink:title=" ">
<polygon fill="#e0e0e0" stroke="#999999" points="988.5,-240.25 948.5,-240.25 948.5,-221 988.5,-221 988.5,-240.25"/>
<text text-anchor="middle" x="968.5" y="-226.75" font-family="Helvetica,sans-Serif" font-size="10.00">ctime</text>
</a>
</g>
</g>
<!-- Node5&#45;&gt;Node46 -->
<g id="edge63_Node000005_Node000046" class="edge">
<title>Node5&#45;&gt;Node46</title>
<g id="a_edge63_Node000005_Node000046"><a xlink:title=" ">
<path fill="none" stroke="#63b8ff" d="M948.46,-276.08C951.54,-269.26 955.91,-259.56 959.79,-250.95"/>
<polygon fill="#63b8ff" stroke="#63b8ff" points="962.91,-252.54 963.83,-241.99 956.53,-249.67 962.91,-252.54"/>
</a>
</g>
</g>
<!-- Node6&#45;&gt;Node7 -->
<g id="edge6_Node000006_Node000007" class="edge">
<title>Node6&#45;&gt;Node7</title>
<g id="a_edge6_Node000006_Node000007"><a xlink:title=" ">
<path fill="none" stroke="#63b8ff" d="M632.76,-226.18C605.52,-221.51 571.22,-210.57 553.5,-185 542.15,-168.62 566.63,-114.45 581.38,-85.13"/>
<polygon fill="#63b8ff" stroke="#63b8ff" points="584.48,-86.75 585.94,-76.26 578.26,-83.55 584.48,-86.75"/>
</a>
</g>
</g>
<!-- Node8 -->
<g id="Node000008" class="node">
<title>Node8</title>
<g id="a_Node000008"><a xlink:title=" ">
<polygon fill="#e0e0e0" stroke="#999999" points="855.12,-19.25 809.88,-19.25 809.88,0 855.12,0 855.12,-19.25"/>
<text text-anchor="middle" x="832.5" y="-5.75" font-family="Helvetica,sans-Serif" font-size="10.00">cstdint</text>
</a>
</g>
</g>
<!-- Node6&#45;&gt;Node8 -->
<g id="edge7_Node000006_Node000008" class="edge">
<title>Node6&#45;&gt;Node8</title>
<g id="a_edge7_Node000006_Node000008"><a xlink:title=" ">
<path fill="none" stroke="#63b8ff" d="M632.63,-227.19C603.5,-223.07 565.85,-212.39 546.5,-185 535.94,-170.06 509.28,-108.37 560.5,-55.25 592.78,-21.76 732.89,-13.4 798.44,-11.32"/>
<polygon fill="#63b8ff" stroke="#63b8ff" points="798.36,-14.82 808.26,-11.04 798.16,-7.82 798.36,-14.82"/>
</a>
</g>
</g>
<!-- Node9 -->
<g id="Node000009" class="node">
<title>Node9</title>
<g id="a_Node000009"><a xlink:href="_t_channel_8h.html" target="_top" xlink:title=" ">
<polygon fill="white" stroke="#666666" points="355.88,-185 291.12,-185 291.12,-165.75 355.88,-165.75 355.88,-185"/>
<text text-anchor="middle" x="323.5" y="-171.5" font-family="Helvetica,sans-Serif" font-size="10.00">TChannel.h</text>
</a>
</g>
</g>
<!-- Node6&#45;&gt;Node9 -->
<g id="edge8_Node000006_Node000009" class="edge">
<title>Node6&#45;&gt;Node9</title>
<g id="a_edge8_Node000006_Node000009"><a xlink:title=" ">
<path fill="none" stroke="#63b8ff" d="M632.81,-223.57C566.94,-213.52 435.56,-193.47 367.16,-183.04"/>
<polygon fill="#63b8ff" stroke="#63b8ff" points="367.86,-179.6 357.44,-181.55 366.8,-186.52 367.86,-179.6"/>
</a>
</g>
</g>
<!-- Node19 -->
<g id="Node000019" class="node">
<title>Node19</title>
<g id="a_Node000019"><a xlink:title=" ">
<polygon fill="#e0e0e0" stroke="#999999" points="626.12,-185 562.88,-185 562.88,-165.75 626.12,-165.75 626.12,-185"/>
<text text-anchor="middle" x="594.5" y="-171.5" font-family="Helvetica,sans-Serif" font-size="10.00">TVector3.h</text>
</a>
</g>
</g>
<!-- Node6&#45;&gt;Node19 -->
<g id="edge22_Node000006_Node000019" class="edge">
<title>Node6&#45;&gt;Node19</title>
<g id="a_edge22_Node000006_Node000019"><a xlink:title=" ">
<path fill="none" stroke="#63b8ff" d="M659.27,-220.59C647.73,-212.71 630.73,-201.11 617.05,-191.77"/>
<polygon fill="#63b8ff" stroke="#63b8ff" points="619.28,-189.05 609.05,-186.31 615.33,-194.83 619.28,-189.05"/>
</a>
</g>
</g>
<!-- Node20 -->
<g id="Node000020" class="node">
<title>Node20</title>
<g id="a_Node000020"><a xlink:title=" ">
<polygon fill="#e0e0e0" stroke="#999999" points="924.5,-74.5 866.5,-74.5 866.5,-55.25 924.5,-55.25 924.5,-74.5"/>
<text text-anchor="middle" x="895.5" y="-61" font-family="Helvetica,sans-Serif" font-size="10.00">TObject.h</text>
</a>
</g>
</g>
<!-- Node6&#45;&gt;Node20 -->
<g id="edge23_Node000006_Node000020" class="edge">
<title>Node6&#45;&gt;Node20</title>
<g id="a_edge23_Node000006_Node000020"><a xlink:title=" ">
<path fill="none" stroke="#63b8ff" d="M712.38,-225.05C761.57,-218.63 841.31,-205.37 862.5,-185 889.62,-158.93 895.07,-112.7 895.82,-86.15"/>
<polygon fill="#63b8ff" stroke="#63b8ff" points="899.31,-86.4 895.87,-76.38 892.31,-86.36 899.31,-86.4"/>
</a>
</g>
</g>
<!-- Node6&#45;&gt;Node21 -->
<g id="edge24_Node000006_Node000021" class="edge">
<title>Node6&#45;&gt;Node21</title>
<g id="a_edge24_Node000006_Node000021"><a xlink:title=" ">
<path fill="none" stroke="#63b8ff" d="M712.4,-221.76C757.04,-212.94 831.49,-198.14 895.5,-185 896.5,-184.8 897.51,-184.59 898.53,-184.38"/>
<polygon fill="#63b8ff" stroke="#63b8ff" points="899.04,-187.84 908.12,-182.38 897.62,-180.99 899.04,-187.84"/>
</a>
</g>
</g>
<!-- Node22 -->
<g id="Node000022" class="node">
<title>Node22</title>
<g id="a_Node000022"><a xlink:title=" ">
<polygon fill="#e0e0e0" stroke="#999999" points="709.25,-185 643.75,-185 643.75,-165.75 709.25,-165.75 709.25,-185"/>
<text text-anchor="middle" x="676.5" y="-171.5" font-family="Helvetica,sans-Serif" font-size="10.00">TRandom.h</text>
</a>
</g>
</g>
<!-- Node6&#45;&gt;Node22 -->
<g id="edge25_Node000006_Node000022" class="edge">
<title>Node6&#45;&gt;Node22</title>
<g id="a_edge25_Node000006_Node000022"><a xlink:title=" ">
<path fill="none" stroke="#63b8ff" d="M673.16,-220.83C673.66,-214.24 674.35,-204.96 674.98,-196.57"/>
<polygon fill="#63b8ff" stroke="#63b8ff" points="678.45,-197.1 675.71,-186.87 671.47,-196.58 678.45,-197.1"/>
</a>
</g>
</g>
<!-- Node6&#45;&gt;Node23 -->
<g id="edge26_Node000006_Node000023" class="edge">
<title>Node6&#45;&gt;Node23</title>
<g id="a_edge26_Node000006_Node000023"><a xlink:title=" ">
<path fill="none" stroke="#63b8ff" d="M712.39,-224.29C769.95,-216.44 879.61,-201 972.5,-185 974.84,-184.6 977.24,-184.17 979.66,-183.72"/>
<polygon fill="#63b8ff" stroke="#63b8ff" points="980.28,-187.17 989.46,-181.87 978.98,-180.29 980.28,-187.17"/>
</a>
</g>
</g>
<!-- Node44 -->
<g id="Node000044" class="node">
<title>Node44</title>
<g id="a_Node000044"><a xlink:href="_t_transient_bits_8h.html" target="_top" xlink:title=" ">
<polygon fill="white" stroke="#666666" points="853.12,-185 765.88,-185 765.88,-165.75 853.12,-165.75 853.12,-185"/>
<text text-anchor="middle" x="809.5" y="-171.5" font-family="Helvetica,sans-Serif" font-size="10.00">TTransientBits.h</text>
</a>
</g>
</g>
<!-- Node6&#45;&gt;Node44 -->
<g id="edge57_Node000006_Node000044" class="edge">
<title>Node6&#45;&gt;Node44</title>
<g id="a_edge57_Node000006_Node000044"><a xlink:title=" ">
<path fill="none" stroke="#63b8ff" d="M695.74,-220.59C717.69,-212.06 750.85,-199.17 775.71,-189.51"/>
<polygon fill="#63b8ff" stroke="#63b8ff" points="776.68,-192.89 784.74,-186 774.15,-186.36 776.68,-192.89"/>
</a>
</g>
</g>
<!-- Node9&#45;&gt;Node4 -->
<g id="edge10_Node000009_Node000004" class="edge">
<title>Node9&#45;&gt;Node4</title>
<g id="a_edge10_Node000009_Node000004"><a xlink:title=" ">
<path fill="none" stroke="#63b8ff" d="M291.02,-169.66C240.77,-162.21 141.24,-146.78 57.5,-129.75 56.33,-129.51 55.15,-129.27 53.95,-129.01"/>
<polygon fill="#63b8ff" stroke="#63b8ff" points="55.15,-125.69 44.62,-126.9 53.61,-132.52 55.15,-125.69"/>
</a>
</g>
</g>
<!-- Node10 -->
<g id="Node000010" class="node">
<title>Node10</title>
<g id="a_Node000010"><a xlink:title=" ">
<polygon fill="#e0e0e0" stroke="#999999" points="356.5,-19.25 316.5,-19.25 316.5,0 356.5,0 356.5,-19.25"/>
<text text-anchor="middle" x="336.5" y="-5.75" font-family="Helvetica,sans-Serif" font-size="10.00">string</text>
</a>
</g>
</g>
<!-- Node9&#45;&gt;Node10 -->
<g id="edge9_Node000009_Node000010" class="edge">
<title>Node9&#45;&gt;Node10</title>
<g id="a_edge9_Node000009_Node000010"><a xlink:title=" ">
<path fill="none" stroke="#63b8ff" d="M290.91,-173.07C232.93,-169.99 115.56,-160.07 90.5,-129.75 28.24,-54.43 225.33,-23.21 304.8,-13.87"/>
<polygon fill="#63b8ff" stroke="#63b8ff" points="305.01,-17.37 314.56,-12.77 304.23,-10.41 305.01,-17.37"/>
</a>
</g>
</g>
<!-- Node11 -->
<g id="Node000011" class="node">
<title>Node11</title>
<g id="a_Node000011"><a xlink:title=" ">
<polygon fill="#e0e0e0" stroke="#999999" points="1314.75,-129.75 1276.25,-129.75 1276.25,-110.5 1314.75,-110.5 1314.75,-129.75"/>
<text text-anchor="middle" x="1295.5" y="-116.25" font-family="Helvetica,sans-Serif" font-size="10.00">utility</text>
</a>
</g>
</g>
<!-- Node9&#45;&gt;Node11 -->
<g id="edge11_Node000009_Node000011" class="edge">
<title>Node9&#45;&gt;Node11</title>
<g id="a_edge11_Node000009_Node000011"><a xlink:title=" ">
<path fill="none" stroke="#63b8ff" d="M356.06,-173.12C496.93,-167.66 1054.61,-145.46 1229.5,-129.75 1241,-128.72 1253.57,-127.18 1264.62,-125.68"/>
<polygon fill="#63b8ff" stroke="#63b8ff" points="1264.99,-129.17 1274.41,-124.32 1264.02,-122.23 1264.99,-129.17"/>
</a>
</g>
</g>
<!-- Node12 -->
<g id="Node000012" class="node">
<title>Node12</title>
<g id="a_Node000012"><a xlink:title=" ">
<polygon fill="#e0e0e0" stroke="#999999" points="513.88,-129.75 431.12,-129.75 431.12,-110.5 513.88,-110.5 513.88,-129.75"/>
<text text-anchor="middle" x="472.5" y="-116.25" font-family="Helvetica,sans-Serif" font-size="10.00">unordered_map</text>
</a>
</g>
</g>
<!-- Node9&#45;&gt;Node12 -->
<g id="edge12_Node000009_Node000012" class="edge">
<title>Node9&#45;&gt;Node12</title>
<g id="a_edge12_Node000009_Node000012"><a xlink:title=" ">
<path fill="none" stroke="#63b8ff" d="M348.78,-165.34C372.86,-156.74 409.36,-143.69 436.48,-134"/>
<polygon fill="#63b8ff" stroke="#63b8ff" points="437.44,-137.37 445.67,-130.71 435.08,-130.78 437.44,-137.37"/>
</a>
</g>
</g>
<!-- Node13 -->
<g id="Node000013" class="node">
<title>Node13</title>
<g id="a_Node000013"><a xlink:title=" ">
<polygon fill="#e0e0e0" stroke="#999999" points="1220,-129.75 1159,-129.75 1159,-110.5 1220,-110.5 1220,-129.75"/>
<text text-anchor="middle" x="1189.5" y="-116.25" font-family="Helvetica,sans-Serif" font-size="10.00">TNamed.h</text>
</a>
</g>
</g>
<!-- Node9&#45;&gt;Node13 -->
<g id="edge13_Node000009_Node000013" class="edge">
<title>Node9&#45;&gt;Node13</title>
<g id="a_edge13_Node000009_Node000013"><a xlink:title=" ">
<path fill="none" stroke="#63b8ff" d="M356.21,-172.92C494.67,-166.7 1030.4,-142.21 1147.48,-129.63"/>
<polygon fill="#63b8ff" stroke="#63b8ff" points="1147.56,-133.14 1157.07,-128.48 1146.73,-126.19 1147.56,-133.14"/>
</a>
</g>
</g>
<!-- Node14 -->
<g id="Node000014" class="node">
<title>Node14</title>
<g id="a_Node000014"><a xlink:title=" ">
<polygon fill="#e0e0e0" stroke="#999999" points="149,-129.75 100,-129.75 100,-110.5 149,-110.5 149,-129.75"/>
<text text-anchor="middle" x="124.5" y="-116.25" font-family="Helvetica,sans-Serif" font-size="10.00">TTree.h</text>
</a>
</g>
</g>
<!-- Node9&#45;&gt;Node14 -->
<g id="edge14_Node000009_Node000014" class="edge">
<title>Node9&#45;&gt;Node14</title>
<g id="a_edge14_Node000009_Node000014"><a xlink:title=" ">
<path fill="none" stroke="#63b8ff" d="M290.64,-165.58C254.62,-155.94 197.05,-140.54 160.01,-130.63"/>
<polygon fill="#63b8ff" stroke="#63b8ff" points="161.25,-127.34 150.69,-128.13 159.44,-134.1 161.25,-127.34"/>
</a>
</g>
</g>
<!-- Node15 -->
<g id="Node000015" class="node">
<title>Node15</title>
<g id="a_Node000015"><a xlink:title=" ">
<polygon fill="#e0e0e0" stroke="#999999" points="222.38,-129.75 166.62,-129.75 166.62,-110.5 222.38,-110.5 222.38,-129.75"/>
<text text-anchor="middle" x="194.5" y="-116.25" font-family="Helvetica,sans-Serif" font-size="10.00">TGraph.h</text>
</a>
</g>
</g>
<!-- Node9&#45;&gt;Node15 -->
<g id="edge15_Node000009_Node000015" class="edge">
<title>Node9&#45;&gt;Node15</title>
<g id="a_edge15_Node000009_Node000015"><a xlink:title=" ">
<path fill="none" stroke="#63b8ff" d="M301.62,-165.34C281.14,-156.89 250.29,-144.15 226.94,-134.52"/>
<polygon fill="#63b8ff" stroke="#63b8ff" points="228.47,-131.36 217.89,-130.78 225.8,-137.83 228.47,-131.36"/>
</a>
</g>
</g>
<!-- Node16 -->
<g id="Node000016" class="node">
<title>Node16</title>
<g id="a_Node000016"><a xlink:title=" ">
<polygon fill="#e0e0e0" stroke="#999999" points="310.12,-129.75 240.88,-129.75 240.88,-110.5 310.12,-110.5 310.12,-129.75"/>
<text text-anchor="middle" x="275.5" y="-116.25" font-family="Helvetica,sans-Serif" font-size="10.00">TClassRef.h</text>
</a>
</g>
</g>
<!-- Node9&#45;&gt;Node16 -->
<g id="edge16_Node000009_Node000016" class="edge">
<title>Node9&#45;&gt;Node16</title>
<g id="a_edge16_Node000009_Node000016"><a xlink:title=" ">
<path fill="none" stroke="#63b8ff" d="M315.57,-165.58C308.94,-158.23 299.28,-147.51 291.11,-138.44"/>
<polygon fill="#63b8ff" stroke="#63b8ff" points="293.91,-136.32 284.61,-131.23 288.71,-141 293.91,-136.32"/>
</a>
</g>
</g>
<!-- Node17 -->
<g id="Node000017" class="node">
<title>Node17</title>
<g id="a_Node000017"><a xlink:href="_t_priority_value_8h.html" target="_top" xlink:title=" ">
<polygon fill="white" stroke="#666666" points="412.62,-129.75 328.38,-129.75 328.38,-110.5 412.62,-110.5 412.62,-129.75"/>
<text text-anchor="middle" x="370.5" y="-116.25" font-family="Helvetica,sans-Serif" font-size="10.00">TPriorityValue.h</text>
</a>
</g>
</g>
<!-- Node9&#45;&gt;Node17 -->
<g id="edge17_Node000009_Node000017" class="edge">
<title>Node9&#45;&gt;Node17</title>
<g id="a_edge17_Node000009_Node000017"><a xlink:title=" ">
<path fill="none" stroke="#63b8ff" d="M331.26,-165.58C337.69,-158.3 347.01,-147.73 354.96,-138.73"/>
<polygon fill="#63b8ff" stroke="#63b8ff" points="357.58,-141.06 361.57,-131.24 352.33,-136.43 357.58,-141.06"/>
</a>
</g>
</g>
<!-- Node17&#45;&gt;Node7 -->
<g id="edge20_Node000017_Node000007" class="edge">
<title>Node17&#45;&gt;Node7</title>
<g id="a_edge20_Node000017_Node000007"><a xlink:title=" ">
<path fill="none" stroke="#63b8ff" d="M408.24,-110.03C450.54,-99.84 518.45,-83.48 558.65,-73.79"/>
<polygon fill="#63b8ff" stroke="#63b8ff" points="559.32,-77.23 568.22,-71.48 557.68,-70.42 559.32,-77.23"/>
</a>
</g>
</g>
<!-- Node17&#45;&gt;Node8 -->
<g id="edge21_Node000017_Node000008" class="edge">
<title>Node17&#45;&gt;Node8</title>
<g id="a_edge21_Node000017_Node000008"><a xlink:title=" ">
<path fill="none" stroke="#63b8ff" d="M388.37,-110.18C417.01,-96.25 475.26,-69.47 527.5,-55.25 623.67,-29.06 741.35,-17.36 798.33,-12.93"/>
<polygon fill="#63b8ff" stroke="#63b8ff" points="798.32,-16.44 808.03,-12.2 797.8,-9.46 798.32,-16.44"/>
</a>
</g>
</g>
<!-- Node17&#45;&gt;Node10 -->
<g id="edge19_Node000017_Node000010" class="edge">
<title>Node17&#45;&gt;Node10</title>
<g id="a_edge19_Node000017_Node000010"><a xlink:title=" ">
<path fill="none" stroke="#63b8ff" d="M367.42,-110.26C364.32,-101.28 359.45,-86.97 355.5,-74.5 350.84,-59.78 345.87,-43.04 342.18,-30.39"/>
<polygon fill="#63b8ff" stroke="#63b8ff" points="345.55,-29.42 339.41,-20.79 338.82,-31.37 345.55,-29.42"/>
</a>
</g>
</g>
<!-- Node18 -->
<g id="Node000018" class="node">
<title>Node18</title>
<g id="a_Node000018"><a xlink:title=" ">
<polygon fill="#e0e0e0" stroke="#999999" points="416.12,-74.5 364.88,-74.5 364.88,-55.25 416.12,-55.25 416.12,-74.5"/>
<text text-anchor="middle" x="390.5" y="-61" font-family="Helvetica,sans-Serif" font-size="10.00">ostream</text>
</a>
</g>
</g>
<!-- Node17&#45;&gt;Node18 -->
<g id="edge18_Node000017_Node000018" class="edge">
<title>Node17&#45;&gt;Node18</title>
<g id="a_edge18_Node000017_Node000018"><a xlink:title=" ">
<path fill="none" stroke="#63b8ff" d="M373.8,-110.33C376.33,-103.59 379.93,-94.02 383.13,-85.49"/>
<polygon fill="#63b8ff" stroke="#63b8ff" points="386.35,-86.87 386.59,-76.28 379.8,-84.41 386.35,-86.87"/>
</a>
</g>
</g>
<!-- Node23&#45;&gt;Node8 -->
<g id="edge30_Node000023_Node000008" class="edge">
<title>Node23&#45;&gt;Node8</title>
<g id="a_edge30_Node000023_Node000008"><a xlink:title=" ">
<path fill="none" stroke="#63b8ff" d="M990.94,-165.46C970.23,-157.64 940.78,-145.13 917.5,-129.75 887.25,-109.77 877.96,-104.42 857.5,-74.5 848.24,-60.95 841.7,-43.48 837.64,-30.24"/>
<polygon fill="#63b8ff" stroke="#63b8ff" points="841.1,-29.62 835.01,-20.95 834.37,-31.52 841.1,-29.62"/>
</a>
</g>
</g>
<!-- Node23&#45;&gt;Node11 -->
<g id="edge28_Node000023_Node000011" class="edge">
<title>Node23&#45;&gt;Node11</title>
<g id="a_edge28_Node000023_Node000011"><a xlink:title=" ">
<path fill="none" stroke="#63b8ff" d="M1042.13,-170.39C1086.99,-163.26 1182.61,-147.41 1262.5,-129.75 1263.32,-129.57 1264.16,-129.38 1265,-129.19"/>
<polygon fill="#63b8ff" stroke="#63b8ff" points="1265.67,-132.63 1274.55,-126.84 1264,-125.83 1265.67,-132.63"/>
</a>
</g>
</g>
<!-- Node23&#45;&gt;Node20 -->
<g id="edge31_Node000023_Node000020" class="edge">
<title>Node23&#45;&gt;Node20</title>
<g id="a_edge31_Node000023_Node000020"><a xlink:title=" ">
<path fill="none" stroke="#63b8ff" d="M994.91,-165.33C978.21,-157.59 955.18,-145.26 938.5,-129.75 924.44,-116.68 912.62,-98.17 904.96,-84.44"/>
<polygon fill="#63b8ff" stroke="#63b8ff" points="908.24,-83.16 900.45,-75.98 902.06,-86.45 908.24,-83.16"/>
</a>
</g>
</g>
<!-- Node24 -->
<g id="Node000024" class="node">
<title>Node24</title>
<g id="a_Node000024"><a xlink:title=" ">
<polygon fill="#e0e0e0" stroke="#999999" points="1367.88,-129.75 1333.12,-129.75 1333.12,-110.5 1367.88,-110.5 1367.88,-129.75"/>
<text text-anchor="middle" x="1350.5" y="-116.25" font-family="Helvetica,sans-Serif" font-size="10.00">map</text>
</a>
</g>
</g>
<!-- Node23&#45;&gt;Node24 -->
<g id="edge27_Node000023_Node000024" class="edge">
<title>Node23&#45;&gt;Node24</title>
<g id="a_edge27_Node000023_Node000024"><a xlink:title=" ">
<path fill="none" stroke="#63b8ff" d="M1042.24,-172.08C1093.62,-167.2 1212.64,-154.35 1322.01,-129.71"/>
<polygon fill="#63b8ff" stroke="#63b8ff" points="1322.46,-133.2 1331.42,-127.55 1320.89,-126.37 1322.46,-133.2"/>
</a>
</g>
</g>
<!-- Node23&#45;&gt;Node25 -->
<g id="edge29_Node000023_Node000025" class="edge">
<title>Node23&#45;&gt;Node25</title>
<g id="a_edge29_Node000023_Node000025"><a xlink:title=" ">
<path fill="none" stroke="#63b8ff" d="M1005.52,-165.28C995.75,-156.8 981.49,-143.43 971.5,-129.75 949.58,-99.73 951.03,-88.03 933.5,-55.25 928.89,-46.64 923.63,-37.19 919.12,-29.21"/>
<polygon fill="#63b8ff" stroke="#63b8ff" points="922.31,-27.74 914.33,-20.77 916.23,-31.2 922.31,-27.74"/>
</a>
</g>
</g>
<!-- Node26 -->
<g id="Node000026" class="node">
<title>Node26</title>
<g id="a_Node000026"><a xlink:title=" ">
<polygon fill="#e0e0e0" stroke="#999999" points="1052.62,-129.75 980.38,-129.75 980.38,-110.5 1052.62,-110.5 1052.62,-129.75"/>
<text text-anchor="middle" x="1016.5" y="-116.25" font-family="Helvetica,sans-Serif" font-size="10.00">TCollection.h</text>
</a>
</g>
</g>
<!-- Node23&#45;&gt;Node26 -->
<g id="edge32_Node000023_Node000026" class="edge">
<title>Node23&#45;&gt;Node26</title>
<g id="a_edge32_Node000023_Node000026"><a xlink:title=" ">
<path fill="none" stroke="#63b8ff" d="M1016.5,-165.58C1016.5,-159.07 1016.5,-149.92 1016.5,-141.62"/>
<polygon fill="#63b8ff" stroke="#63b8ff" points="1020,-141.62 1016.5,-131.62 1013,-141.62 1020,-141.62"/>
</a>
</g>
</g>
<!-- Node27 -->
<g id="Node000027" class="node">
<title>Node27</title>
<g id="a_Node000027"><a xlink:href="_globals_8h.html" target="_top" xlink:title=" ">
<polygon fill="white" stroke="#666666" points="1333.75,-74.5 1277.25,-74.5 1277.25,-55.25 1333.75,-55.25 1333.75,-74.5"/>
<text text-anchor="middle" x="1305.5" y="-61" font-family="Helvetica,sans-Serif" font-size="10.00">Globals.h</text>
</a>
</g>
</g>
<!-- Node23&#45;&gt;Node27 -->
<g id="edge33_Node000023_Node000027" class="edge">
<title>Node23&#45;&gt;Node27</title>
<g id="a_edge33_Node000023_Node000027"><a xlink:title=" ">
<path fill="none" stroke="#63b8ff" d="M1042.06,-173.04C1083.4,-170.01 1166.64,-160.32 1229.5,-129.75 1253.12,-118.26 1275.55,-97.82 1289.83,-83.15"/>
<polygon fill="#63b8ff" stroke="#63b8ff" points="1292.26,-85.68 1296.58,-76 1287.17,-80.88 1292.26,-85.68"/>
</a>
</g>
</g>
<!-- Node39 -->
<g id="Node000039" class="node">
<title>Node39</title>
<g id="a_Node000039"><a xlink:href="_t_singleton_8h.html" target="_top" xlink:title=" ">
<polygon fill="white" stroke="#666666" points="1140.5,-129.75 1070.5,-129.75 1070.5,-110.5 1140.5,-110.5 1140.5,-129.75"/>
<text text-anchor="middle" x="1105.5" y="-116.25" font-family="Helvetica,sans-Serif" font-size="10.00">TSingleton.h</text>
</a>
</g>
</g>
<!-- Node23&#45;&gt;Node39 -->
<g id="edge49_Node000023_Node000039" class="edge">
<title>Node23&#45;&gt;Node39</title>
<g id="a_edge49_Node000023_Node000039"><a xlink:title=" ">
<path fill="none" stroke="#63b8ff" d="M1031.6,-165.34C1045.02,-157.31 1064.91,-145.41 1080.67,-135.98"/>
<polygon fill="#63b8ff" stroke="#63b8ff" points="1082.25,-139.12 1089.03,-130.98 1078.65,-133.11 1082.25,-139.12"/>
</a>
</g>
</g>
<!-- Node27&#45;&gt;Node3 -->
<g id="edge38_Node000027_Node000003" class="edge">
<title>Node27&#45;&gt;Node3</title>
<g id="a_edge38_Node000027_Node000003"><a xlink:title=" ">
<path fill="none" stroke="#63b8ff" d="M1334.14,-60.78C1417.21,-51.78 1655.44,-25.96 1710.84,-18.88"/>
<polygon fill="#63b8ff" stroke="#63b8ff" points="1711.08,-22.39 1720.48,-17.5 1710.08,-15.46 1711.08,-22.39"/>
</a>
</g>
</g>
<!-- Node27&#45;&gt;Node8 -->
<g id="edge39_Node000027_Node000008" class="edge">
<title>Node27&#45;&gt;Node8</title>
<g id="a_edge39_Node000027_Node000008"><a xlink:title=" ">
<path fill="none" stroke="#63b8ff" d="M1276.99,-62.02C1207.51,-57.28 1024.01,-43.32 872.5,-19.25 870.48,-18.93 868.41,-18.57 866.33,-18.19"/>
<polygon fill="#63b8ff" stroke="#63b8ff" points="867.24,-14.8 856.75,-16.28 865.87,-21.67 867.24,-14.8"/>
</a>
</g>
</g>
<!-- Node27&#45;&gt;Node10 -->
<g id="edge37_Node000027_Node000010" class="edge">
<title>Node27&#45;&gt;Node10</title>
<g id="a_edge37_Node000027_Node000010"><a xlink:title=" ">
<path fill="none" stroke="#63b8ff" d="M1276.9,-61.66C1252.59,-59.82 1216.77,-57.2 1185.5,-55.25 866.73,-35.42 480.26,-17.23 368.29,-12.08"/>
<polygon fill="#63b8ff" stroke="#63b8ff" points="368.54,-8.58 358.39,-11.62 368.22,-15.58 368.54,-8.58"/>
</a>
</g>
</g>
<!-- Node27&#45;&gt;Node25 -->
<g id="edge34_Node000027_Node000025" class="edge">
<title>Node27&#45;&gt;Node25</title>
<g id="a_edge34_Node000027_Node000025"><a xlink:title=" ">
<path fill="none" stroke="#63b8ff" d="M1277.1,-57.68C1272.56,-56.8 1267.91,-55.95 1263.5,-55.25 1126.17,-33.44 1087,-43.38 946.73,-19.43"/>
<polygon fill="#63b8ff" stroke="#63b8ff" points="947.5,-16.01 937.04,-17.74 946.3,-22.9 947.5,-16.01"/>
</a>
</g>
</g>
<!-- Node28 -->
<g id="Node000028" class="node">
<title>Node28</title>
<g id="a_Node000028"><a xlink:title=" ">
<polygon fill="#e0e0e0" stroke="#999999" points="1566.38,-19.25 1516.62,-19.25 1516.62,0 1566.38,0 1566.38,-19.25"/>
<text text-anchor="middle" x="1541.5" y="-5.75" font-family="Helvetica,sans-Serif" font-size="10.00">iomanip</text>
</a>
</g>
</g>
<!-- Node27&#45;&gt;Node28 -->
<g id="edge35_Node000027_Node000028" class="edge">
<title>Node27&#45;&gt;Node28</title>
<g id="a_edge35_Node000027_Node000028"><a xlink:title=" ">
<path fill="none" stroke="#63b8ff" d="M1334,-57.87C1371.11,-49.99 1438.25,-35.51 1505.11,-19.76"/>
<polygon fill="#63b8ff" stroke="#63b8ff" points="1505.87,-23.18 1514.8,-17.47 1504.26,-16.36 1505.87,-23.18"/>
</a>
</g>
</g>
<!-- Node29 -->
<g id="Node000029" class="node">
<title>Node29</title>
<g id="a_Node000029"><a xlink:title=" ">
<polygon fill="#e0e0e0" stroke="#999999" points="1642.5,-19.25 1584.5,-19.25 1584.5,0 1642.5,0 1642.5,-19.25"/>
<text text-anchor="middle" x="1613.5" y="-5.75" font-family="Helvetica,sans-Serif" font-size="10.00">stdexcept</text>
</a>
</g>
</g>
<!-- Node27&#45;&gt;Node29 -->
<g id="edge36_Node000027_Node000029" class="edge">
<title>Node27&#45;&gt;Node29</title>
<g id="a_edge36_Node000027_Node000029"><a xlink:title=" ">
<path fill="none" stroke="#63b8ff" d="M1333.98,-59.74C1381.44,-52.72 1479.96,-37.63 1573.05,-19.64"/>
<polygon fill="#63b8ff" stroke="#63b8ff" points="1573.45,-23.12 1582.59,-17.77 1572.11,-16.25 1573.45,-23.12"/>
</a>
</g>
</g>
<!-- Node30 -->
<g id="Node000030" class="node">
<title>Node30</title>
<g id="a_Node000030"><a xlink:title=" ">
<polygon fill="#e0e0e0" stroke="#999999" points="1704.75,-19.25 1660.25,-19.25 1660.25,0 1704.75,0 1704.75,-19.25"/>
<text text-anchor="middle" x="1682.5" y="-5.75" font-family="Helvetica,sans-Serif" font-size="10.00">cstdlib</text>
</a>
</g>
</g>
<!-- Node27&#45;&gt;Node30 -->
<g id="edge40_Node000027_Node000030" class="edge">
<title>Node27&#45;&gt;Node30</title>
<g id="a_edge40_Node000027_Node000030"><a xlink:title=" ">
<path fill="none" stroke="#63b8ff" d="M1334.24,-60.71C1402.34,-53.11 1572.94,-33.59 1648.97,-19.45"/>
<polygon fill="#63b8ff" stroke="#63b8ff" points="1649.27,-22.95 1658.42,-17.6 1647.93,-16.08 1649.27,-22.95"/>
</a>
</g>
</g>
<!-- Node31 -->
<g id="Node000031" class="node">
<title>Node31</title>
<g id="a_Node000031"><a xlink:title=" ">
<polygon fill="#e0e0e0" stroke="#999999" points="1013.25,-19.25 953.75,-19.25 953.75,0 1013.25,0 1013.25,-19.25"/>
<text text-anchor="middle" x="983.5" y="-5.75" font-family="Helvetica,sans-Serif" font-size="10.00">execinfo.h</text>
</a>
</g>
</g>
<!-- Node27&#45;&gt;Node31 -->
<g id="edge41_Node000027_Node000031" class="edge">
<title>Node27&#45;&gt;Node31</title>
<g id="a_edge41_Node000027_Node000031"><a xlink:title=" ">
<path fill="none" stroke="#63b8ff" d="M1277.07,-57.82C1272.54,-56.92 1267.9,-56.03 1263.5,-55.25 1160.4,-36.98 1130.93,-38.81 1024.89,-19.58"/>
<polygon fill="#63b8ff" stroke="#63b8ff" points="1025.65,-16.16 1015.18,-17.79 1024.38,-23.04 1025.65,-16.16"/>
</a>
</g>
</g>
<!-- Node32 -->
<g id="Node000032" class="node">
<title>Node32</title>
<g id="a_Node000032"><a xlink:title=" ">
<polygon fill="#e0e0e0" stroke="#999999" points="1081.75,-19.25 1031.25,-19.25 1031.25,0 1081.75,0 1081.75,-19.25"/>
<text text-anchor="middle" x="1056.5" y="-5.75" font-family="Helvetica,sans-Serif" font-size="10.00">cxxabi.h</text>
</a>
</g>
</g>
<!-- Node27&#45;&gt;Node32 -->
<g id="edge42_Node000027_Node000032" class="edge">
<title>Node27&#45;&gt;Node32</title>
<g id="a_edge42_Node000027_Node000032"><a xlink:title=" ">
<path fill="none" stroke="#63b8ff" d="M1277.11,-58.02C1227.83,-47.84 1128.89,-27.4 1093.19,-19.7"/>
<polygon fill="#63b8ff" stroke="#63b8ff" points="1094.09,-16.31 1083.57,-17.57 1092.58,-23.15 1094.09,-16.31"/>
</a>
</g>
</g>
<!-- Node33 -->
<g id="Node000033" class="node">
<title>Node33</title>
<g id="a_Node000033"><a xlink:title=" ">
<polygon fill="#e0e0e0" stroke="#999999" points="1151.12,-19.25 1099.88,-19.25 1099.88,0 1151.12,0 1151.12,-19.25"/>
<text text-anchor="middle" x="1125.5" y="-5.75" font-family="Helvetica,sans-Serif" font-size="10.00">sstream</text>
</a>
</g>
</g>
<!-- Node27&#45;&gt;Node33 -->
<g id="edge43_Node000027_Node000033" class="edge">
<title>Node27&#45;&gt;Node33</title>
<g id="a_edge43_Node000027_Node000033"><a xlink:title=" ">
<path fill="none" stroke="#63b8ff" d="M1276.98,-55.44C1245.98,-46.27 1196.36,-31.59 1162.41,-21.54"/>
<polygon fill="#63b8ff" stroke="#63b8ff" points="1163.58,-18.24 1153,-18.76 1161.6,-24.95 1163.58,-18.24"/>
</a>
</g>
</g>
<!-- Node34 -->
<g id="Node000034" class="node">
<title>Node34</title>
<g id="a_Node000034"><a xlink:title=" ">
<polygon fill="#e0e0e0" stroke="#999999" points="1206,-19.25 1169,-19.25 1169,0 1206,0 1206,-19.25"/>
<text text-anchor="middle" x="1187.5" y="-5.75" font-family="Helvetica,sans-Serif" font-size="10.00">array</text>
</a>
</g>
</g>
<!-- Node27&#45;&gt;Node34 -->
<g id="edge44_Node000027_Node000034" class="edge">
<title>Node27&#45;&gt;Node34</title>
<g id="a_edge44_Node000027_Node000034"><a xlink:title=" ">
<path fill="none" stroke="#63b8ff" d="M1285.48,-54.84C1266.67,-46.35 1238.28,-33.54 1216.9,-23.89"/>
<polygon fill="#63b8ff" stroke="#63b8ff" points="1218.38,-20.72 1207.82,-19.8 1215.5,-27.1 1218.38,-20.72"/>
</a>
</g>
</g>
<!-- Node35 -->
<g id="Node000035" class="node">
<title>Node35</title>
<g id="a_Node000035"><a xlink:title=" ">
<polygon fill="#e0e0e0" stroke="#999999" points="1274.75,-19.25 1224.25,-19.25 1224.25,0 1274.75,0 1274.75,-19.25"/>
<text text-anchor="middle" x="1249.5" y="-5.75" font-family="Helvetica,sans-Serif" font-size="10.00">memory</text>
</a>
</g>
</g>
<!-- Node27&#45;&gt;Node35 -->
<g id="edge45_Node000027_Node000035" class="edge">
<title>Node27&#45;&gt;Node35</title>
<g id="a_edge45_Node000027_Node000035"><a xlink:title=" ">
<path fill="none" stroke="#63b8ff" d="M1296,-54.84C1288.07,-47.3 1276.55,-36.35 1266.96,-27.23"/>
<polygon fill="#63b8ff" stroke="#63b8ff" points="1269.61,-24.92 1259.96,-20.57 1264.79,-29.99 1269.61,-24.92"/>
</a>
</g>
</g>
<!-- Node36 -->
<g id="Node000036" class="node">
<title>Node36</title>
<g id="a_Node000036"><a xlink:title=" ">
<polygon fill="#e0e0e0" stroke="#999999" points="1342.38,-19.25 1292.62,-19.25 1292.62,0 1342.38,0 1342.38,-19.25"/>
<text text-anchor="middle" x="1317.5" y="-5.75" font-family="Helvetica,sans-Serif" font-size="10.00">unistd.h</text>
</a>
</g>
</g>
<!-- Node27&#45;&gt;Node36 -->
<g id="edge46_Node000027_Node000036" class="edge">
<title>Node27&#45;&gt;Node36</title>
<g id="a_edge46_Node000027_Node000036"><a xlink:title=" ">
<path fill="none" stroke="#63b8ff" d="M1307.48,-55.08C1308.97,-48.49 1311.06,-39.21 1312.95,-30.82"/>
<polygon fill="#63b8ff" stroke="#63b8ff" points="1316.36,-31.61 1315.14,-21.09 1309.53,-30.07 1316.36,-31.61"/>
</a>
</g>
</g>
<!-- Node37 -->
<g id="Node000037" class="node">
<title>Node37</title>
<g id="a_Node000037"><a xlink:title=" ">
<polygon fill="#e0e0e0" stroke="#999999" points="1420.25,-19.25 1360.75,-19.25 1360.75,0 1420.25,0 1420.25,-19.25"/>
<text text-anchor="middle" x="1390.5" y="-5.75" font-family="Helvetica,sans-Serif" font-size="10.00">sys/wait.h</text>
</a>
</g>
</g>
<!-- Node27&#45;&gt;Node37 -->
<g id="edge47_Node000027_Node000037" class="edge">
<title>Node27&#45;&gt;Node37</title>
<g id="a_edge47_Node000027_Node000037"><a xlink:title=" ">
<path fill="none" stroke="#63b8ff" d="M1319.92,-54.84C1332.62,-46.89 1351.37,-35.14 1366.36,-25.75"/>
<polygon fill="#63b8ff" stroke="#63b8ff" points="1368.11,-28.78 1374.73,-20.51 1364.4,-22.85 1368.11,-28.78"/>
</a>
</g>
</g>
<!-- Node38 -->
<g id="Node000038" class="node">
<title>Node38</title>
<g id="a_Node000038"><a xlink:title=" ">
<polygon fill="#e0e0e0" stroke="#999999" points="1498.62,-19.25 1438.38,-19.25 1438.38,0 1498.62,0 1498.62,-19.25"/>
<text text-anchor="middle" x="1468.5" y="-5.75" font-family="Helvetica,sans-Serif" font-size="10.00">sys/prctl.h</text>
</a>
</g>
</g>
<!-- Node27&#45;&gt;Node38 -->
<g id="edge48_Node000027_Node000038" class="edge">
<title>Node27&#45;&gt;Node38</title>
<g id="a_edge48_Node000027_Node000038"><a xlink:title=" ">
<path fill="none" stroke="#63b8ff" d="M1333.15,-54.84C1359.73,-46.16 1400.14,-32.96 1429.89,-23.24"/>
<polygon fill="#63b8ff" stroke="#63b8ff" points="1430.86,-26.6 1439.27,-20.17 1428.68,-19.95 1430.86,-26.6"/>
</a>
</g>
</g>
<!-- Node39&#45;&gt;Node20 -->
<g id="edge51_Node000039_Node000020" class="edge">
<title>Node39&#45;&gt;Node20</title>
<g id="a_edge51_Node000039_Node000020"><a xlink:title=" ">
<path fill="none" stroke="#63b8ff" d="M1070.35,-110.21C1033.26,-100.81 974.89,-86.01 935.92,-76.13"/>
<polygon fill="#63b8ff" stroke="#63b8ff" points="937.01,-72.79 926.46,-73.73 935.29,-79.58 937.01,-72.79"/>
</a>
</g>
</g>
<!-- Node39&#45;&gt;Node25 -->
<g id="edge50_Node000039_Node000025" class="edge">
<title>Node39&#45;&gt;Node25</title>
<g id="a_edge50_Node000039_Node000025"><a xlink:title=" ">
<path fill="none" stroke="#63b8ff" d="M1133.2,-110.09C1163.47,-98.8 1205.22,-78.14 1185.5,-55.25 1152.08,-16.47 1013.99,-28.06 946.54,-19.14"/>
<polygon fill="#63b8ff" stroke="#63b8ff" points="947.5,-15.75 937.07,-17.62 946.38,-22.66 947.5,-15.75"/>
</a>
</g>
</g>
<!-- Node39&#45;&gt;Node27 -->
<g id="edge56_Node000039_Node000027" class="edge">
<title>Node39&#45;&gt;Node27</title>
<g id="a_edge56_Node000039_Node000027"><a xlink:title=" ">
<path fill="none" stroke="#63b8ff" d="M1139.43,-110.09C1174.47,-100.76 1229.12,-86.21 1266.07,-76.37"/>
<polygon fill="#63b8ff" stroke="#63b8ff" points="1266.7,-79.83 1275.46,-73.87 1264.9,-73.06 1266.7,-79.83"/>
</a>
</g>
</g>
<!-- Node40 -->
<g id="Node000040" class="node">
<title>Node40</title>
<g id="a_Node000040"><a xlink:title=" ">
<polygon fill="#e0e0e0" stroke="#999999" points="1112.38,-74.5 1044.62,-74.5 1044.62,-55.25 1112.38,-55.25 1112.38,-74.5"/>
<text text-anchor="middle" x="1078.5" y="-61" font-family="Helvetica,sans-Serif" font-size="10.00">TDirectory.h</text>
</a>
</g>
</g>
<!-- Node39&#45;&gt;Node40 -->
<g id="edge52_Node000039_Node000040" class="edge">
<title>Node39&#45;&gt;Node40</title>
<g id="a_edge52_Node000039_Node000040"><a xlink:title=" ">
<path fill="none" stroke="#63b8ff" d="M1101.04,-110.33C1097.55,-103.44 1092.55,-93.59 1088.15,-84.91"/>
<polygon fill="#63b8ff" stroke="#63b8ff" points="1091.38,-83.55 1083.74,-76.21 1085.14,-86.71 1091.38,-83.55"/>
</a>
</g>
</g>
<!-- Node41 -->
<g id="Node000041" class="node">
<title>Node41</title>
<g id="a_Node000041"><a xlink:title=" ">
<polygon fill="#e0e0e0" stroke="#999999" points="1176.12,-74.5 1130.88,-74.5 1130.88,-55.25 1176.12,-55.25 1176.12,-74.5"/>
<text text-anchor="middle" x="1153.5" y="-61" font-family="Helvetica,sans-Serif" font-size="10.00">TFile.h</text>
</a>
</g>
</g>
<!-- Node39&#45;&gt;Node41 -->
<g id="edge53_Node000039_Node000041" class="edge">
<title>Node39&#45;&gt;Node41</title>
<g id="a_edge53_Node000039_Node000041"><a xlink:title=" ">
<path fill="none" stroke="#63b8ff" d="M1113.43,-110.33C1120.06,-102.98 1129.72,-92.26 1137.89,-83.19"/>
<polygon fill="#63b8ff" stroke="#63b8ff" points="1140.29,-85.75 1144.39,-75.98 1135.09,-81.07 1140.29,-85.75"/>
</a>
</g>
</g>
<!-- Node42 -->
<g id="Node000042" class="node">
<title>Node42</title>
<g id="a_Node000042"><a xlink:title=" ">
<polygon fill="#e0e0e0" stroke="#999999" points="1440.5,-74.5 1394.5,-74.5 1394.5,-55.25 1440.5,-55.25 1440.5,-74.5"/>
<text text-anchor="middle" x="1417.5" y="-61" font-family="Helvetica,sans-Serif" font-size="10.00">TList.h</text>
</a>
</g>
</g>
<!-- Node39&#45;&gt;Node42 -->
<g id="edge54_Node000039_Node000042" class="edge">
<title>Node39&#45;&gt;Node42</title>
<g id="a_edge54_Node000039_Node000042"><a xlink:title=" ">
<path fill="none" stroke="#63b8ff" d="M1140.86,-112.27C1144.12,-111.66 1147.37,-111.06 1150.5,-110.5 1233.8,-95.56 1332.01,-79.56 1382.95,-71.38"/>
<polygon fill="#63b8ff" stroke="#63b8ff" points="1383.44,-74.85 1392.76,-69.81 1382.33,-67.93 1383.44,-74.85"/>
</a>
</g>
</g>
<!-- Node43 -->
<g id="Node000043" class="node">
<title>Node43</title>
<g id="a_Node000043"><a xlink:title=" ">
<polygon fill="#e0e0e0" stroke="#999999" points="1026.5,-74.5 980.5,-74.5 980.5,-55.25 1026.5,-55.25 1026.5,-74.5"/>
<text text-anchor="middle" x="1003.5" y="-61" font-family="Helvetica,sans-Serif" font-size="10.00">TKey.h</text>
</a>
</g>
</g>
<!-- Node39&#45;&gt;Node43 -->
<g id="edge55_Node000039_Node000043" class="edge">
<title>Node39&#45;&gt;Node43</title>
<g id="a_edge55_Node000039_Node000043"><a xlink:title=" ">
<path fill="none" stroke="#63b8ff" d="M1088.2,-110.09C1072.52,-101.91 1049.15,-89.71 1030.92,-80.19"/>
<polygon fill="#63b8ff" stroke="#63b8ff" points="1032.71,-77.18 1022.23,-75.65 1029.47,-83.38 1032.71,-77.18"/>
</a>
</g>
</g>
<!-- Node44&#45;&gt;Node25 -->
<g id="edge58_Node000044_Node000025" class="edge">
<title>Node44&#45;&gt;Node25</title>
<g id="a_edge58_Node000044_Node000025"><a xlink:title=" ">
<path fill="none" stroke="#63b8ff" d="M810.71,-165.43C812.61,-152.83 816.89,-129.3 824.5,-110.5 835.23,-83.99 839.18,-77.21 857.5,-55.25 866.29,-44.71 877.67,-34.5 887.44,-26.52"/>
<polygon fill="#63b8ff" stroke="#63b8ff" points="889.33,-29.49 895,-20.54 884.99,-24 889.33,-29.49"/>
</a>
</g>
</g>
<!-- Node45 -->
<g id="Node000045" class="node">
<title>Node45</title>
<g id="a_Node000045"><a xlink:title=" ">
<polygon fill="#e0e0e0" stroke="#999999" points="772.38,-129.75 698.62,-129.75 698.62,-110.5 772.38,-110.5 772.38,-129.75"/>
<text text-anchor="middle" x="735.5" y="-116.25" font-family="Helvetica,sans-Serif" font-size="10.00">RtypesCore.h</text>
</a>
</g>
</g>
<!-- Node44&#45;&gt;Node45 -->
<g id="edge59_Node000044_Node000045" class="edge">
<title>Node44&#45;&gt;Node45</title>
<g id="a_edge59_Node000044_Node000045"><a xlink:title=" ">
<path fill="none" stroke="#63b8ff" d="M796.95,-165.34C786.04,-157.49 770,-145.95 757.04,-136.62"/>
<polygon fill="#63b8ff" stroke="#63b8ff" points="759.26,-133.91 749.1,-130.91 755.17,-139.59 759.26,-133.91"/>
</a>
</g>
</g>
<!-- Node48&#45;&gt;Node11 -->
<g id="edge69_Node000048_Node000011" class="edge">
<title>Node48&#45;&gt;Node11</title>
<g id="a_edge69_Node000048_Node000011"><a xlink:title=" ">
<path fill="none" stroke="#63b8ff" d="M1295.5,-165.58C1295.5,-159.07 1295.5,-149.92 1295.5,-141.62"/>
<polygon fill="#63b8ff" stroke="#63b8ff" points="1299,-141.62 1295.5,-131.62 1292,-141.62 1299,-141.62"/>
</a>
</g>
</g>
<!-- Node48&#45;&gt;Node13 -->
<g id="edge71_Node000048_Node000013" class="edge">
<title>Node48&#45;&gt;Node13</title>
<g id="a_edge71_Node000048_Node000013"><a xlink:title=" ">
<path fill="none" stroke="#63b8ff" d="M1277.52,-165.34C1261.15,-157.12 1236.71,-144.84 1217.74,-135.31"/>
<polygon fill="#63b8ff" stroke="#63b8ff" points="1219.43,-132.24 1208.92,-130.88 1216.29,-138.5 1219.43,-132.24"/>
</a>
</g>
</g>
<!-- Node48&#45;&gt;Node24 -->
<g id="edge68_Node000048_Node000024" class="edge">
<title>Node48&#45;&gt;Node24</title>
<g id="a_edge68_Node000048_Node000024"><a xlink:title=" ">
<path fill="none" stroke="#63b8ff" d="M1304.58,-165.58C1312.34,-158.07 1323.71,-147.06 1333.2,-137.88"/>
<polygon fill="#63b8ff" stroke="#63b8ff" points="1335.38,-140.63 1340.13,-131.16 1330.51,-135.6 1335.38,-140.63"/>
</a>
</g>
</g>
<!-- Node48&#45;&gt;Node42 -->
<g id="edge70_Node000048_Node000042" class="edge">
<title>Node48&#45;&gt;Node42</title>
<g id="a_edge70_Node000048_Node000042"><a xlink:title=" ">
<path fill="none" stroke="#63b8ff" d="M1318.75,-165.29C1336.09,-157.69 1359.61,-145.54 1376.5,-129.75 1390.19,-116.95 1401.32,-98.67 1408.51,-84.94"/>
<polygon fill="#63b8ff" stroke="#63b8ff" points="1411.61,-86.56 1412.92,-76.05 1405.34,-83.45 1411.61,-86.56"/>
</a>
</g>
</g>
</g>
</svg>
