<?xml version="1.0" encoding="UTF-8" standalone="no"?>
<!DOCTYPE svg PUBLIC "-//W3C//DTD SVG 1.1//EN"
 "http://www.w3.org/Graphics/SVG/1.1/DTD/svg11.dtd">
<!-- Generated by graphviz version 12.2.0 (20241103.1931)
 -->
<!-- Title: TBgoHit.h Pages: 1 -->
<!--zoomable 359 -->

<svg id="main" version="1.1" xmlns="http://www.w3.org/2000/svg" xmlns:xlink="http://www.w3.org/1999/xlink" xml:space="preserve" onload="init(evt)">

<style type="text/css"><![CDATA[
.node, .edge {opacity: 0.7;}
.node.selected, .edge.selected {opacity: 1;}
.edge:hover path { stroke: red; }
.edge:hover polygon { stroke: red; fill: red; }
]]></style>

<defs>
  <circle id="rim" cx="0" cy="0" r="7"/>
  <circle id="rim2" cx="0" cy="0" r="3.5"/>
  <g id="zoomPlus">
    <use xlink:href="#rim" fill="#404040"><set attributeName="fill" to="#808080" begin="zoomplus.mouseover" end="zoomplus.mouseout"/></use>
    <path d="M-4,0h8M0,-4v8" fill="none" stroke="white" stroke-width="1.5" pointer-events="none"/>
  </g>
  <g id="zoomMin">
    <use xlink:href="#rim" fill="#404040"><set attributeName="fill" to="#808080" begin="zoomminus.mouseover" end="zoomminus.mouseout"/></use>
    <path d="M-4,0h8" fill="none" stroke="white" stroke-width="1.5" pointer-events="none"/>
  </g>
  <g id="arrowUp" transform="translate(30 24)">
    <use xlink:href="#rim"/>
    <path pointer-events="none" fill="none" stroke="white" stroke-width="1.5" d="M0,-3.0v7 M-2.5,-0.5L0,-3.0L2.5,-0.5"/>
  </g>
  <g id="arrowRight" transform="rotate(90) translate(36 -43)">
    <use xlink:href="#rim"/>
    <path pointer-events="none" fill="none" stroke="white" stroke-width="1.5" d="M0,-3.0v7 M-2.5,-0.5L0,-3.0L2.5,-0.5"/>
  </g>
  <g id="arrowDown" transform="rotate(180) translate(-30 -48)">
    <use xlink:href="#rim"/>
    <path pointer-events="none" fill="none" stroke="white" stroke-width="1.5" d="M0,-3.0v7 M-2.5,-0.5L0,-3.0L2.5,-0.5"/>
  </g>
  <g id="arrowLeft" transform="rotate(270) translate(-36 17)">
    <use xlink:href="#rim"/>
    <path pointer-events="none" fill="none" stroke="white" stroke-width="1.5" d="M0,-3.0v7 M-2.5,-0.5L0,-3.0L2.5,-0.5"/>
  </g>
  <g id="resetDef">
    <use xlink:href="#rim2" fill="#404040"><set attributeName="fill" to="#808080" begin="reset.mouseover" end="reset.mouseout"/></use>
  </g>
</defs>
<script type="application/ecmascript">
var viewWidth = 1825;
var viewHeight = 359;
var sectionId = 'dynsection-0';
</script>
<script type="application/ecmascript" xlink:href="svg.min.js"/>
<svg id="graph" class="graph">
<g id="viewport">
<title>TBgoHit.h</title>
<!-- Node1 -->
<g id="Node000001" class="node">
<title>Node1</title>
<g id="a_Node000001"><a xlink:title=" ">
<polygon fill="#999999" stroke="#666666" points="995.88,-350.75 936.38,-350.75 936.38,-331.5 995.88,-331.5 995.88,-350.75"/>
<text text-anchor="middle" x="966.12" y="-337.25" font-family="Helvetica,sans-Serif" font-size="10.00">TBgoHit.h</text>
</a>
</g>
</g>
<!-- Node2 -->
<g id="Node000002" class="node">
<title>Node2</title>
<g id="a_Node000002"><a xlink:title=" ">
<polygon fill="#e0e0e0" stroke="#999999" points="42.25,-19.25 0,-19.25 0,0 42.25,0 42.25,-19.25"/>
<text text-anchor="middle" x="21.12" y="-5.75" font-family="Helvetica,sans-Serif" font-size="10.00">cstdio</text>
</a>
</g>
</g>
<!-- Node1&#45;&gt;Node2 -->
<g id="edge1_Node000001_Node000002" class="edge">
<title>Node1&#45;&gt;Node2</title>
<g id="a_edge1_Node000001_Node000002"><a xlink:title=" ">
<path fill="none" stroke="#63b8ff" d="M935.94,-338.91C797.63,-332.95 231.12,-304.1 231.12,-231.62 231.12,-231.62 231.12,-231.62 231.12,-119.12 231.12,-79.59 112.19,-38.11 53.33,-20.01"/>
<polygon fill="#63b8ff" stroke="#63b8ff" points="54.45,-16.69 43.87,-17.14 52.42,-23.39 54.45,-16.69"/>
</a>
</g>
</g>
<!-- Node3 -->
<g id="Node000003" class="node">
<title>Node3</title>
<g id="a_Node000003"><a xlink:title=" ">
<polygon fill="#e0e0e0" stroke="#999999" points="1766.62,-129.75 1723.62,-129.75 1723.62,-110.5 1766.62,-110.5 1766.62,-129.75"/>
<text text-anchor="middle" x="1745.12" y="-116.25" font-family="Helvetica,sans-Serif" font-size="10.00">cmath</text>
</a>
</g>
</g>
<!-- Node1&#45;&gt;Node3 -->
<g id="edge2_Node000001_Node000003" class="edge">
<title>Node1&#45;&gt;Node3</title>
<g id="a_edge2_Node000001_Node000003"><a xlink:title=" ">
<path fill="none" stroke="#63b8ff" d="M996.11,-331.77C1096.07,-303.92 1427.24,-211.52 1712.21,-130.57"/>
<polygon fill="#63b8ff" stroke="#63b8ff" points="1713.06,-133.97 1721.72,-127.87 1711.14,-127.23 1713.06,-133.97"/>
</a>
</g>
</g>
<!-- Node4 -->
<g id="Node000004" class="node">
<title>Node4</title>
<g id="a_Node000004"><a xlink:href="_t_fragment_8h.html" target="_top" xlink:title=" ">
<polygon fill="white" stroke="#666666" points="970.5,-295.5 899.75,-295.5 899.75,-276.25 970.5,-276.25 970.5,-295.5"/>
<text text-anchor="middle" x="935.12" y="-282" font-family="Helvetica,sans-Serif" font-size="10.00">TFragment.h</text>
</a>
</g>
</g>
<!-- Node1&#45;&gt;Node4 -->
<g id="edge3_Node000001_Node000004" class="edge">
<title>Node1&#45;&gt;Node4</title>
<g id="a_edge3_Node000001_Node000004"><a xlink:title=" ">
<path fill="none" stroke="#63b8ff" d="M961.01,-331.33C956.95,-324.36 951.13,-314.37 946.04,-305.62"/>
<polygon fill="#63b8ff" stroke="#63b8ff" points="949.17,-304.05 941.12,-297.17 943.12,-307.57 949.17,-304.05"/>
</a>
</g>
</g>
<!-- Node5 -->
<g id="Node000005" class="node">
<title>Node5</title>
<g id="a_Node000005"><a xlink:href="_t_detector_hit_8h.html" target="_top" xlink:title=" ">
<polygon fill="white" stroke="#666666" points="1094.62,-240.25 1015.62,-240.25 1015.62,-221 1094.62,-221 1094.62,-240.25"/>
<text text-anchor="middle" x="1055.12" y="-226.75" font-family="Helvetica,sans-Serif" font-size="10.00">TDetectorHit.h</text>
</a>
</g>
</g>
<!-- Node1&#45;&gt;Node5 -->
<g id="edge64_Node000001_Node000005" class="edge">
<title>Node1&#45;&gt;Node5</title>
<g id="a_edge64_Node000001_Node000005"><a xlink:title=" ">
<path fill="none" stroke="#63b8ff" d="M973.41,-331.25C988.08,-313.36 1021.41,-272.72 1040.67,-249.25"/>
<polygon fill="#63b8ff" stroke="#63b8ff" points="1043.15,-251.75 1046.78,-241.8 1037.73,-247.31 1043.15,-251.75"/>
</a>
</g>
</g>
<!-- Node4&#45;&gt;Node5 -->
<g id="edge4_Node000004_Node000005" class="edge">
<title>Node4&#45;&gt;Node5</title>
<g id="a_edge4_Node000004_Node000005"><a xlink:title=" ">
<path fill="none" stroke="#63b8ff" d="M955.48,-275.84C974.36,-267.47 1002.71,-254.88 1024.35,-245.28"/>
<polygon fill="#63b8ff" stroke="#63b8ff" points="1025.56,-248.57 1033.29,-241.32 1022.73,-242.17 1025.56,-248.57"/>
</a>
</g>
</g>
<!-- Node6 -->
<g id="Node000006" class="node">
<title>Node6</title>
<g id="a_Node000006"><a xlink:title=" ">
<polygon fill="#e0e0e0" stroke="#999999" points="1816.62,-74.5 1773.62,-74.5 1773.62,-55.25 1816.62,-55.25 1816.62,-74.5"/>
<text text-anchor="middle" x="1795.12" y="-61" font-family="Helvetica,sans-Serif" font-size="10.00">vector</text>
</a>
</g>
</g>
<!-- Node4&#45;&gt;Node6 -->
<g id="edge61_Node000004_Node000006" class="edge">
<title>Node4&#45;&gt;Node6</title>
<g id="a_edge61_Node000004_Node000006"><a xlink:title=" ">
<path fill="none" stroke="#63b8ff" d="M970.68,-284.52C1080.47,-282.52 1422.84,-269.44 1690.12,-185 1740.78,-169 1768.58,-175.18 1796.12,-129.75 1804.05,-116.68 1803.15,-99.17 1800.64,-85.79"/>
<polygon fill="#63b8ff" stroke="#63b8ff" points="1804.12,-85.31 1798.42,-76.38 1797.31,-86.92 1804.12,-85.31"/>
</a>
</g>
</g>
<!-- Node20 -->
<g id="Node000020" class="node">
<title>Node20</title>
<g id="a_Node000020"><a xlink:title=" ">
<polygon fill="#e0e0e0" stroke="#999999" points="880.88,-185 827.38,-185 827.38,-165.75 880.88,-165.75 880.88,-185"/>
<text text-anchor="middle" x="854.12" y="-171.5" font-family="Helvetica,sans-Serif" font-size="10.00">Rtypes.h</text>
</a>
</g>
</g>
<!-- Node4&#45;&gt;Node20 -->
<g id="edge63_Node000004_Node000020" class="edge">
<title>Node4&#45;&gt;Node20</title>
<g id="a_edge63_Node000004_Node000020"><a xlink:title=" ">
<path fill="none" stroke="#63b8ff" d="M928.5,-276C915.21,-258.19 885.07,-217.83 867.52,-194.31"/>
<polygon fill="#63b8ff" stroke="#63b8ff" points="870.54,-192.51 861.75,-186.59 864.93,-196.7 870.54,-192.51"/>
</a>
</g>
</g>
<!-- Node22 -->
<g id="Node000022" class="node">
<title>Node22</title>
<g id="a_Node000022"><a xlink:href="_t_p_p_g_8h.html" target="_top" xlink:title=" ">
<polygon fill="white" stroke="#666666" points="809.38,-185 758.88,-185 758.88,-165.75 809.38,-165.75 809.38,-185"/>
<text text-anchor="middle" x="784.12" y="-171.5" font-family="Helvetica,sans-Serif" font-size="10.00">TPPG.h</text>
</a>
</g>
</g>
<!-- Node4&#45;&gt;Node22 -->
<g id="edge59_Node000004_Node000022" class="edge">
<title>Node4&#45;&gt;Node22</title>
<g id="a_edge59_Node000004_Node000022"><a xlink:title=" ">
<path fill="none" stroke="#63b8ff" d="M922.51,-275.81C896.69,-257.26 837.55,-214.76 805.58,-191.79"/>
<polygon fill="#63b8ff" stroke="#63b8ff" points="807.99,-189.21 797.83,-186.22 803.91,-194.9 807.99,-189.21"/>
</a>
</g>
</g>
<!-- Node24 -->
<g id="Node000024" class="node">
<title>Node24</title>
<g id="a_Node000024"><a xlink:title=" ">
<polygon fill="#e0e0e0" stroke="#999999" points="882.88,-19.25 829.38,-19.25 829.38,0 882.88,0 882.88,-19.25"/>
<text text-anchor="middle" x="856.12" y="-5.75" font-family="Helvetica,sans-Serif" font-size="10.00">iostream</text>
</a>
</g>
</g>
<!-- Node4&#45;&gt;Node24 -->
<g id="edge60_Node000004_Node000024" class="edge">
<title>Node4&#45;&gt;Node24</title>
<g id="a_edge60_Node000004_Node000024"><a xlink:title=" ">
<path fill="none" stroke="#63b8ff" d="M899.51,-281.23C826.39,-271.6 660.3,-238.24 590.12,-129.75 579.85,-113.87 580.23,-73.45 598.12,-55.25 631.11,-21.7 755.31,-28.12 818.08,-19.2"/>
<polygon fill="#63b8ff" stroke="#63b8ff" points="818.28,-22.71 827.55,-17.59 817.11,-15.81 818.28,-22.71"/>
</a>
</g>
</g>
<!-- Node45 -->
<g id="Node000045" class="node">
<title>Node45</title>
<g id="a_Node000045"><a xlink:title=" ">
<polygon fill="#e0e0e0" stroke="#999999" points="955.12,-240.25 915.12,-240.25 915.12,-221 955.12,-221 955.12,-240.25"/>
<text text-anchor="middle" x="935.12" y="-226.75" font-family="Helvetica,sans-Serif" font-size="10.00">ctime</text>
</a>
</g>
</g>
<!-- Node4&#45;&gt;Node45 -->
<g id="edge62_Node000004_Node000045" class="edge">
<title>Node4&#45;&gt;Node45</title>
<g id="a_edge62_Node000004_Node000045"><a xlink:title=" ">
<path fill="none" stroke="#63b8ff" d="M935.12,-276.08C935.12,-269.57 935.12,-260.42 935.12,-252.12"/>
<polygon fill="#63b8ff" stroke="#63b8ff" points="938.63,-252.12 935.13,-242.12 931.63,-252.12 938.63,-252.12"/>
</a>
</g>
</g>
<!-- Node5&#45;&gt;Node6 -->
<g id="edge5_Node000005_Node000006" class="edge">
<title>Node5&#45;&gt;Node6</title>
<g id="a_edge5_Node000005_Node000006"><a xlink:title=" ">
<path fill="none" stroke="#63b8ff" d="M1095.05,-229.82C1231.36,-229.63 1675.4,-221.84 1776.12,-129.75 1788.28,-118.64 1792.79,-100.14 1794.4,-85.9"/>
<polygon fill="#63b8ff" stroke="#63b8ff" points="1797.87,-86.51 1795.08,-76.29 1790.88,-86.02 1797.87,-86.51"/>
</a>
</g>
</g>
<!-- Node7 -->
<g id="Node000007" class="node">
<title>Node7</title>
<g id="a_Node000007"><a xlink:title=" ">
<polygon fill="#e0e0e0" stroke="#999999" points="1076.75,-19.25 1031.5,-19.25 1031.5,0 1076.75,0 1076.75,-19.25"/>
<text text-anchor="middle" x="1054.12" y="-5.75" font-family="Helvetica,sans-Serif" font-size="10.00">cstdint</text>
</a>
</g>
</g>
<!-- Node5&#45;&gt;Node7 -->
<g id="edge6_Node000005_Node000007" class="edge">
<title>Node5&#45;&gt;Node7</title>
<g id="a_edge6_Node000005_Node000007"><a xlink:title=" ">
<path fill="none" stroke="#63b8ff" d="M1055.08,-220.77C1054.94,-188.51 1054.43,-76.76 1054.22,-30.71"/>
<polygon fill="#63b8ff" stroke="#63b8ff" points="1057.72,-30.85 1054.17,-20.87 1050.72,-30.88 1057.72,-30.85"/>
</a>
</g>
</g>
<!-- Node8 -->
<g id="Node000008" class="node">
<title>Node8</title>
<g id="a_Node000008"><a xlink:href="_t_channel_8h.html" target="_top" xlink:title=" ">
<polygon fill="white" stroke="#666666" points="1329.5,-185 1264.75,-185 1264.75,-165.75 1329.5,-165.75 1329.5,-185"/>
<text text-anchor="middle" x="1297.12" y="-171.5" font-family="Helvetica,sans-Serif" font-size="10.00">TChannel.h</text>
</a>
</g>
</g>
<!-- Node5&#45;&gt;Node8 -->
<g id="edge7_Node000005_Node000008" class="edge">
<title>Node5&#45;&gt;Node8</title>
<g id="a_edge7_Node000005_Node000008"><a xlink:title=" ">
<path fill="none" stroke="#63b8ff" d="M1095.09,-220.83C1138.68,-211.24 1208.25,-195.93 1253.31,-186.02"/>
<polygon fill="#63b8ff" stroke="#63b8ff" points="1253.99,-189.45 1263.01,-183.88 1252.49,-182.61 1253.99,-189.45"/>
</a>
</g>
</g>
<!-- Node18 -->
<g id="Node000018" class="node">
<title>Node18</title>
<g id="a_Node000018"><a xlink:title=" ">
<polygon fill="#e0e0e0" stroke="#999999" points="1410.75,-185 1347.5,-185 1347.5,-165.75 1410.75,-165.75 1410.75,-185"/>
<text text-anchor="middle" x="1379.12" y="-171.5" font-family="Helvetica,sans-Serif" font-size="10.00">TVector3.h</text>
</a>
</g>
</g>
<!-- Node5&#45;&gt;Node18 -->
<g id="edge21_Node000005_Node000018" class="edge">
<title>Node5&#45;&gt;Node18</title>
<g id="a_edge21_Node000005_Node000018"><a xlink:title=" ">
<path fill="none" stroke="#63b8ff" d="M1095.07,-223.98C1147.83,-216.38 1243.9,-202.05 1336.15,-185.28"/>
<polygon fill="#63b8ff" stroke="#63b8ff" points="1336.68,-188.74 1345.88,-183.49 1335.42,-181.85 1336.68,-188.74"/>
</a>
</g>
</g>
<!-- Node19 -->
<g id="Node000019" class="node">
<title>Node19</title>
<g id="a_Node000019"><a xlink:title=" ">
<polygon fill="#e0e0e0" stroke="#999999" points="969.12,-74.5 911.12,-74.5 911.12,-55.25 969.12,-55.25 969.12,-74.5"/>
<text text-anchor="middle" x="940.12" y="-61" font-family="Helvetica,sans-Serif" font-size="10.00">TObject.h</text>
</a>
</g>
</g>
<!-- Node5&#45;&gt;Node19 -->
<g id="edge22_Node000005_Node000019" class="edge">
<title>Node5&#45;&gt;Node19</title>
<g id="a_edge22_Node000005_Node000019"><a xlink:title=" ">
<path fill="none" stroke="#63b8ff" d="M1038.2,-220.72C1012.02,-205.87 962.61,-173.35 942.12,-129.75 935.69,-116.05 935.55,-98.82 936.81,-85.7"/>
<polygon fill="#63b8ff" stroke="#63b8ff" points="940.24,-86.52 938.1,-76.14 933.3,-85.58 940.24,-86.52"/>
</a>
</g>
</g>
<!-- Node5&#45;&gt;Node20 -->
<g id="edge23_Node000005_Node000020" class="edge">
<title>Node5&#45;&gt;Node20</title>
<g id="a_edge23_Node000005_Node000020"><a xlink:title=" ">
<path fill="none" stroke="#63b8ff" d="M1021.03,-220.59C985.3,-211.13 929.3,-196.29 892.16,-186.45"/>
<polygon fill="#63b8ff" stroke="#63b8ff" points="893.31,-183.14 882.75,-183.96 891.52,-189.9 893.31,-183.14"/>
</a>
</g>
</g>
<!-- Node21 -->
<g id="Node000021" class="node">
<title>Node21</title>
<g id="a_Node000021"><a xlink:title=" ">
<polygon fill="#e0e0e0" stroke="#999999" points="1493.88,-185 1428.38,-185 1428.38,-165.75 1493.88,-165.75 1493.88,-185"/>
<text text-anchor="middle" x="1461.12" y="-171.5" font-family="Helvetica,sans-Serif" font-size="10.00">TRandom.h</text>
</a>
</g>
</g>
<!-- Node5&#45;&gt;Node21 -->
<g id="edge24_Node000005_Node000021" class="edge">
<title>Node5&#45;&gt;Node21</title>
<g id="a_edge24_Node000005_Node000021"><a xlink:title=" ">
<path fill="none" stroke="#63b8ff" d="M1094.98,-225.88C1160.29,-219.5 1294.36,-205.38 1416.98,-185.41"/>
<polygon fill="#63b8ff" stroke="#63b8ff" points="1417.26,-188.91 1426.56,-183.83 1416.12,-182.01 1417.26,-188.91"/>
</a>
</g>
</g>
<!-- Node5&#45;&gt;Node22 -->
<g id="edge25_Node000005_Node000022" class="edge">
<title>Node5&#45;&gt;Node22</title>
<g id="a_edge25_Node000005_Node000022"><a xlink:title=" ">
<path fill="none" stroke="#63b8ff" d="M1015.13,-222.88C970.11,-215.11 894.52,-201.56 820.6,-185.44"/>
<polygon fill="#63b8ff" stroke="#63b8ff" points="821.7,-182.1 811.18,-183.37 820.2,-188.94 821.7,-182.1"/>
</a>
</g>
</g>
<!-- Node43 -->
<g id="Node000043" class="node">
<title>Node43</title>
<g id="a_Node000043"><a xlink:href="_t_transient_bits_8h.html" target="_top" xlink:title=" ">
<polygon fill="white" stroke="#666666" points="1170.75,-185 1083.5,-185 1083.5,-165.75 1170.75,-165.75 1170.75,-185"/>
<text text-anchor="middle" x="1127.12" y="-171.5" font-family="Helvetica,sans-Serif" font-size="10.00">TTransientBits.h</text>
</a>
</g>
</g>
<!-- Node5&#45;&gt;Node43 -->
<g id="edge56_Node000005_Node000043" class="edge">
<title>Node5&#45;&gt;Node43</title>
<g id="a_edge56_Node000005_Node000043"><a xlink:title=" ">
<path fill="none" stroke="#63b8ff" d="M1067.34,-220.59C1077.95,-212.74 1093.56,-201.2 1106.17,-191.87"/>
<polygon fill="#63b8ff" stroke="#63b8ff" points="1107.92,-194.94 1113.87,-186.17 1103.75,-189.31 1107.92,-194.94"/>
</a>
</g>
</g>
<!-- Node8&#45;&gt;Node3 -->
<g id="edge9_Node000008_Node000003" class="edge">
<title>Node8&#45;&gt;Node3</title>
<g id="a_edge9_Node000008_Node000003"><a xlink:title=" ">
<path fill="none" stroke="#63b8ff" d="M1329.74,-167.17C1332.57,-166.65 1335.39,-166.17 1338.12,-165.75 1500.95,-140.93 1547.76,-160.27 1712.27,-129.98"/>
<polygon fill="#63b8ff" stroke="#63b8ff" points="1712.61,-133.48 1721.8,-128.19 1711.32,-126.6 1712.61,-133.48"/>
</a>
</g>
</g>
<!-- Node9 -->
<g id="Node000009" class="node">
<title>Node9</title>
<g id="a_Node000009"><a xlink:title=" ">
<polygon fill="#e0e0e0" stroke="#999999" points="1205.12,-19.25 1165.12,-19.25 1165.12,0 1205.12,0 1205.12,-19.25"/>
<text text-anchor="middle" x="1185.12" y="-5.75" font-family="Helvetica,sans-Serif" font-size="10.00">string</text>
</a>
</g>
</g>
<!-- Node8&#45;&gt;Node9 -->
<g id="edge8_Node000008_Node000009" class="edge">
<title>Node8&#45;&gt;Node9</title>
<g id="a_edge8_Node000008_Node000009"><a xlink:title=" ">
<path fill="none" stroke="#63b8ff" d="M1264.58,-167.02C1244.02,-160.65 1218.69,-149.27 1204.12,-129.75 1182.38,-100.6 1181.4,-56.18 1183.01,-30.62"/>
<polygon fill="#63b8ff" stroke="#63b8ff" points="1186.47,-31.22 1183.83,-20.95 1179.5,-30.62 1186.47,-31.22"/>
</a>
</g>
</g>
<!-- Node10 -->
<g id="Node000010" class="node">
<title>Node10</title>
<g id="a_Node000010"><a xlink:title=" ">
<polygon fill="#e0e0e0" stroke="#999999" points="989.38,-129.75 950.88,-129.75 950.88,-110.5 989.38,-110.5 989.38,-129.75"/>
<text text-anchor="middle" x="970.12" y="-116.25" font-family="Helvetica,sans-Serif" font-size="10.00">utility</text>
</a>
</g>
</g>
<!-- Node8&#45;&gt;Node10 -->
<g id="edge10_Node000008_Node000010" class="edge">
<title>Node8&#45;&gt;Node10</title>
<g id="a_edge10_Node000008_Node000010"><a xlink:title=" ">
<path fill="none" stroke="#63b8ff" d="M1264.27,-169.03C1200.96,-158.71 1062.84,-136.22 1001.06,-126.16"/>
<polygon fill="#63b8ff" stroke="#63b8ff" points="1001.7,-122.72 991.27,-124.57 1000.57,-129.63 1001.7,-122.72"/>
</a>
</g>
</g>
<!-- Node11 -->
<g id="Node000011" class="node">
<title>Node11</title>
<g id="a_Node000011"><a xlink:title=" ">
<polygon fill="#e0e0e0" stroke="#999999" points="1626.5,-129.75 1543.75,-129.75 1543.75,-110.5 1626.5,-110.5 1626.5,-129.75"/>
<text text-anchor="middle" x="1585.12" y="-116.25" font-family="Helvetica,sans-Serif" font-size="10.00">unordered_map</text>
</a>
</g>
</g>
<!-- Node8&#45;&gt;Node11 -->
<g id="edge11_Node000008_Node000011" class="edge">
<title>Node8&#45;&gt;Node11</title>
<g id="a_edge11_Node000008_Node000011"><a xlink:title=" ">
<path fill="none" stroke="#63b8ff" d="M1329.78,-167.42C1332.6,-166.84 1335.41,-166.28 1338.12,-165.75 1374.46,-158.65 1471.38,-141.31 1532.45,-130.46"/>
<polygon fill="#63b8ff" stroke="#63b8ff" points="1532.69,-133.97 1541.93,-128.78 1531.47,-127.08 1532.69,-133.97"/>
</a>
</g>
</g>
<!-- Node12 -->
<g id="Node000012" class="node">
<title>Node12</title>
<g id="a_Node000012"><a xlink:title=" ">
<polygon fill="#e0e0e0" stroke="#999999" points="1705.62,-129.75 1644.62,-129.75 1644.62,-110.5 1705.62,-110.5 1705.62,-129.75"/>
<text text-anchor="middle" x="1675.12" y="-116.25" font-family="Helvetica,sans-Serif" font-size="10.00">TNamed.h</text>
</a>
</g>
</g>
<!-- Node8&#45;&gt;Node12 -->
<g id="edge12_Node000008_Node000012" class="edge">
<title>Node8&#45;&gt;Node12</title>
<g id="a_edge12_Node000008_Node000012"><a xlink:title=" ">
<path fill="none" stroke="#63b8ff" d="M1329.75,-167.25C1332.58,-166.71 1335.4,-166.2 1338.12,-165.75 1465.72,-144.64 1502.03,-151.39 1632.9,-129.97"/>
<polygon fill="#63b8ff" stroke="#63b8ff" points="1633.39,-133.44 1642.68,-128.34 1632.24,-126.53 1633.39,-133.44"/>
</a>
</g>
</g>
<!-- Node13 -->
<g id="Node000013" class="node">
<title>Node13</title>
<g id="a_Node000013"><a xlink:title=" ">
<polygon fill="#e0e0e0" stroke="#999999" points="1364.62,-129.75 1315.62,-129.75 1315.62,-110.5 1364.62,-110.5 1364.62,-129.75"/>
<text text-anchor="middle" x="1340.12" y="-116.25" font-family="Helvetica,sans-Serif" font-size="10.00">TTree.h</text>
</a>
</g>
</g>
<!-- Node8&#45;&gt;Node13 -->
<g id="edge13_Node000008_Node000013" class="edge">
<title>Node8&#45;&gt;Node13</title>
<g id="a_edge13_Node000008_Node000013"><a xlink:title=" ">
<path fill="none" stroke="#63b8ff" d="M1304.23,-165.58C1310.04,-158.38 1318.46,-147.96 1325.68,-139.01"/>
<polygon fill="#63b8ff" stroke="#63b8ff" points="1328.36,-141.27 1331.92,-131.29 1322.91,-136.87 1328.36,-141.27"/>
</a>
</g>
</g>
<!-- Node14 -->
<g id="Node000014" class="node">
<title>Node14</title>
<g id="a_Node000014"><a xlink:title=" ">
<polygon fill="#e0e0e0" stroke="#999999" points="1438,-129.75 1382.25,-129.75 1382.25,-110.5 1438,-110.5 1438,-129.75"/>
<text text-anchor="middle" x="1410.12" y="-116.25" font-family="Helvetica,sans-Serif" font-size="10.00">TGraph.h</text>
</a>
</g>
</g>
<!-- Node8&#45;&gt;Node14 -->
<g id="edge14_Node000008_Node000014" class="edge">
<title>Node8&#45;&gt;Node14</title>
<g id="a_edge14_Node000008_Node000014"><a xlink:title=" ">
<path fill="none" stroke="#63b8ff" d="M1316.29,-165.34C1333.91,-157.04 1360.28,-144.61 1380.59,-135.04"/>
<polygon fill="#63b8ff" stroke="#63b8ff" points="1381.94,-138.28 1389.49,-130.85 1378.95,-131.94 1381.94,-138.28"/>
</a>
</g>
</g>
<!-- Node15 -->
<g id="Node000015" class="node">
<title>Node15</title>
<g id="a_Node000015"><a xlink:title=" ">
<polygon fill="#e0e0e0" stroke="#999999" points="1525.75,-129.75 1456.5,-129.75 1456.5,-110.5 1525.75,-110.5 1525.75,-129.75"/>
<text text-anchor="middle" x="1491.12" y="-116.25" font-family="Helvetica,sans-Serif" font-size="10.00">TClassRef.h</text>
</a>
</g>
</g>
<!-- Node8&#45;&gt;Node15 -->
<g id="edge15_Node000008_Node000015" class="edge">
<title>Node8&#45;&gt;Node15</title>
<g id="a_edge15_Node000008_Node000015"><a xlink:title=" ">
<path fill="none" stroke="#63b8ff" d="M1329.6,-165.46C1361.72,-156.65 1411.11,-143.09 1446.82,-133.29"/>
<polygon fill="#63b8ff" stroke="#63b8ff" points="1447.72,-136.67 1456.44,-130.65 1445.87,-129.92 1447.72,-136.67"/>
</a>
</g>
</g>
<!-- Node16 -->
<g id="Node000016" class="node">
<title>Node16</title>
<g id="a_Node000016"><a xlink:href="_t_priority_value_8h.html" target="_top" xlink:title=" ">
<polygon fill="white" stroke="#666666" points="1297.25,-129.75 1213,-129.75 1213,-110.5 1297.25,-110.5 1297.25,-129.75"/>
<text text-anchor="middle" x="1255.12" y="-116.25" font-family="Helvetica,sans-Serif" font-size="10.00">TPriorityValue.h</text>
</a>
</g>
</g>
<!-- Node8&#45;&gt;Node16 -->
<g id="edge16_Node000008_Node000016" class="edge">
<title>Node8&#45;&gt;Node16</title>
<g id="a_edge16_Node000008_Node000016"><a xlink:title=" ">
<path fill="none" stroke="#63b8ff" d="M1290.19,-165.58C1284.51,-158.38 1276.29,-147.96 1269.23,-139.01"/>
<polygon fill="#63b8ff" stroke="#63b8ff" points="1272.09,-136.98 1263.15,-131.3 1266.59,-141.32 1272.09,-136.98"/>
</a>
</g>
</g>
<!-- Node16&#45;&gt;Node6 -->
<g id="edge19_Node000016_Node000006" class="edge">
<title>Node16&#45;&gt;Node6</title>
<g id="a_edge19_Node000016_Node000006"><a xlink:title=" ">
<path fill="none" stroke="#63b8ff" d="M1297.65,-111.81C1300.86,-111.34 1304.04,-110.9 1307.12,-110.5 1477.68,-88.59 1683.12,-73.46 1762.04,-68.06"/>
<polygon fill="#63b8ff" stroke="#63b8ff" points="1761.92,-71.58 1771.66,-67.41 1761.45,-64.59 1761.92,-71.58"/>
</a>
</g>
</g>
<!-- Node16&#45;&gt;Node7 -->
<g id="edge20_Node000016_Node000007" class="edge">
<title>Node16&#45;&gt;Node7</title>
<g id="a_edge20_Node000016_Node000007"><a xlink:title=" ">
<path fill="none" stroke="#63b8ff" d="M1238.33,-110.06C1203.53,-91.27 1123.25,-47.94 1081.1,-25.18"/>
<polygon fill="#63b8ff" stroke="#63b8ff" points="1082.8,-22.13 1072.34,-20.46 1079.48,-28.29 1082.8,-22.13"/>
</a>
</g>
</g>
<!-- Node16&#45;&gt;Node9 -->
<g id="edge18_Node000016_Node000009" class="edge">
<title>Node16&#45;&gt;Node9</title>
<g id="a_edge18_Node000016_Node000009"><a xlink:title=" ">
<path fill="none" stroke="#63b8ff" d="M1273.53,-110.16C1295.37,-98.28 1327.08,-76.35 1312.12,-55.25 1290.54,-24.78 1246.42,-14.96 1216.31,-11.89"/>
<polygon fill="#63b8ff" stroke="#63b8ff" points="1216.9,-8.42 1206.65,-11.11 1216.34,-15.4 1216.9,-8.42"/>
</a>
</g>
</g>
<!-- Node17 -->
<g id="Node000017" class="node">
<title>Node17</title>
<g id="a_Node000017"><a xlink:title=" ">
<polygon fill="#e0e0e0" stroke="#999999" points="1302.75,-74.5 1251.5,-74.5 1251.5,-55.25 1302.75,-55.25 1302.75,-74.5"/>
<text text-anchor="middle" x="1277.12" y="-61" font-family="Helvetica,sans-Serif" font-size="10.00">ostream</text>
</a>
</g>
</g>
<!-- Node16&#45;&gt;Node17 -->
<g id="edge17_Node000016_Node000017" class="edge">
<title>Node16&#45;&gt;Node17</title>
<g id="a_edge17_Node000016_Node000017"><a xlink:title=" ">
<path fill="none" stroke="#63b8ff" d="M1258.76,-110.33C1261.54,-103.59 1265.5,-94.02 1269.02,-85.49"/>
<polygon fill="#63b8ff" stroke="#63b8ff" points="1272.25,-86.84 1272.84,-76.26 1265.78,-84.16 1272.25,-86.84"/>
</a>
</g>
</g>
<!-- Node22&#45;&gt;Node7 -->
<g id="edge29_Node000022_Node000007" class="edge">
<title>Node22&#45;&gt;Node7</title>
<g id="a_edge29_Node000022_Node000007"><a xlink:title=" ">
<path fill="none" stroke="#63b8ff" d="M805.39,-165.36C842.06,-149.4 918.94,-114.11 978.12,-74.5 999.48,-60.21 1021.73,-40.91 1036.6,-27.27"/>
<polygon fill="#63b8ff" stroke="#63b8ff" points="1038.78,-30.02 1043.72,-20.64 1034.01,-24.89 1038.78,-30.02"/>
</a>
</g>
</g>
<!-- Node22&#45;&gt;Node10 -->
<g id="edge27_Node000022_Node000010" class="edge">
<title>Node22&#45;&gt;Node10</title>
<g id="a_edge27_Node000022_Node000010"><a xlink:title=" ">
<path fill="none" stroke="#63b8ff" d="M809.6,-167.08C843.53,-157.37 903.5,-140.2 939.75,-129.82"/>
<polygon fill="#63b8ff" stroke="#63b8ff" points="940.52,-133.24 949.17,-127.13 938.59,-126.51 940.52,-133.24"/>
</a>
</g>
</g>
<!-- Node22&#45;&gt;Node19 -->
<g id="edge30_Node000022_Node000019" class="edge">
<title>Node22&#45;&gt;Node19</title>
<g id="a_edge30_Node000022_Node000019"><a xlink:title=" ">
<path fill="none" stroke="#63b8ff" d="M796.07,-165.26C812.68,-152.66 843.82,-129.33 871.12,-110.5 885.91,-100.3 902.84,-89.34 916.23,-80.84"/>
<polygon fill="#63b8ff" stroke="#63b8ff" points="917.83,-83.97 924.41,-75.67 914.09,-78.05 917.83,-83.97"/>
</a>
</g>
</g>
<!-- Node23 -->
<g id="Node000023" class="node">
<title>Node23</title>
<g id="a_Node000023"><a xlink:title=" ">
<polygon fill="#e0e0e0" stroke="#999999" points="640.5,-129.75 605.75,-129.75 605.75,-110.5 640.5,-110.5 640.5,-129.75"/>
<text text-anchor="middle" x="623.12" y="-116.25" font-family="Helvetica,sans-Serif" font-size="10.00">map</text>
</a>
</g>
</g>
<!-- Node22&#45;&gt;Node23 -->
<g id="edge26_Node000022_Node000023" class="edge">
<title>Node22&#45;&gt;Node23</title>
<g id="a_edge26_Node000022_Node000023"><a xlink:title=" ">
<path fill="none" stroke="#63b8ff" d="M758.61,-165.94C729.37,-156.26 681.57,-140.45 651.26,-130.43"/>
<polygon fill="#63b8ff" stroke="#63b8ff" points="652.61,-127.19 642.01,-127.37 650.41,-133.84 652.61,-127.19"/>
</a>
</g>
</g>
<!-- Node22&#45;&gt;Node24 -->
<g id="edge28_Node000022_Node000024" class="edge">
<title>Node22&#45;&gt;Node24</title>
<g id="a_edge28_Node000022_Node000024"><a xlink:title=" ">
<path fill="none" stroke="#63b8ff" d="M758.63,-172.12C712.24,-167.43 616.98,-154.9 597.12,-129.75 591.82,-123.03 595.71,-118.94 597.12,-110.5 601.41,-84.89 596.38,-72.12 616.12,-55.25 683.45,2.28 726.6,-34.89 817.96,-19.4"/>
<polygon fill="#63b8ff" stroke="#63b8ff" points="818.38,-22.88 827.55,-17.58 817.07,-16 818.38,-22.88"/>
</a>
</g>
</g>
<!-- Node25 -->
<g id="Node000025" class="node">
<title>Node25</title>
<g id="a_Node000025"><a xlink:title=" ">
<polygon fill="#e0e0e0" stroke="#999999" points="731.25,-129.75 659,-129.75 659,-110.5 731.25,-110.5 731.25,-129.75"/>
<text text-anchor="middle" x="695.12" y="-116.25" font-family="Helvetica,sans-Serif" font-size="10.00">TCollection.h</text>
</a>
</g>
</g>
<!-- Node22&#45;&gt;Node25 -->
<g id="edge31_Node000022_Node000025" class="edge">
<title>Node22&#45;&gt;Node25</title>
<g id="a_edge31_Node000022_Node000025"><a xlink:title=" ">
<path fill="none" stroke="#63b8ff" d="M769.03,-165.34C755.6,-157.31 735.71,-145.41 719.95,-135.98"/>
<polygon fill="#63b8ff" stroke="#63b8ff" points="721.97,-133.11 711.6,-130.98 718.38,-139.12 721.97,-133.11"/>
</a>
</g>
</g>
<!-- Node26 -->
<g id="Node000026" class="node">
<title>Node26</title>
<g id="a_Node000026"><a xlink:href="_globals_8h.html" target="_top" xlink:title=" ">
<polygon fill="white" stroke="#666666" points="488.38,-74.5 431.88,-74.5 431.88,-55.25 488.38,-55.25 488.38,-74.5"/>
<text text-anchor="middle" x="460.12" y="-61" font-family="Helvetica,sans-Serif" font-size="10.00">Globals.h</text>
</a>
</g>
</g>
<!-- Node22&#45;&gt;Node26 -->
<g id="edge32_Node000022_Node000026" class="edge">
<title>Node22&#45;&gt;Node26</title>
<g id="a_edge32_Node000022_Node000026"><a xlink:title=" ">
<path fill="none" stroke="#63b8ff" d="M758.56,-172.12C716.68,-167.78 631.38,-156.26 564.12,-129.75 533.1,-117.52 500.91,-96.18 480.71,-81.56"/>
<polygon fill="#63b8ff" stroke="#63b8ff" points="482.91,-78.83 472.79,-75.7 478.75,-84.46 482.91,-78.83"/>
</a>
</g>
</g>
<!-- Node38 -->
<g id="Node000038" class="node">
<title>Node38</title>
<g id="a_Node000038"><a xlink:href="_t_singleton_8h.html" target="_top" xlink:title=" ">
<polygon fill="white" stroke="#666666" points="819.12,-129.75 749.12,-129.75 749.12,-110.5 819.12,-110.5 819.12,-129.75"/>
<text text-anchor="middle" x="784.12" y="-116.25" font-family="Helvetica,sans-Serif" font-size="10.00">TSingleton.h</text>
</a>
</g>
</g>
<!-- Node22&#45;&gt;Node38 -->
<g id="edge48_Node000022_Node000038" class="edge">
<title>Node22&#45;&gt;Node38</title>
<g id="a_edge48_Node000022_Node000038"><a xlink:title=" ">
<path fill="none" stroke="#63b8ff" d="M784.12,-165.58C784.12,-159.07 784.12,-149.92 784.12,-141.62"/>
<polygon fill="#63b8ff" stroke="#63b8ff" points="787.63,-141.62 784.13,-131.62 780.63,-141.62 787.63,-141.62"/>
</a>
</g>
</g>
<!-- Node26&#45;&gt;Node2 -->
<g id="edge37_Node000026_Node000002" class="edge">
<title>Node26&#45;&gt;Node2</title>
<g id="a_edge37_Node000026_Node000002"><a xlink:title=" ">
<path fill="none" stroke="#63b8ff" d="M431.61,-62.45C366.28,-58.82 200.69,-47.61 53.65,-19.44"/>
<polygon fill="#63b8ff" stroke="#63b8ff" points="54.62,-16.06 44.13,-17.58 53.28,-22.93 54.62,-16.06"/>
</a>
</g>
</g>
<!-- Node26&#45;&gt;Node7 -->
<g id="edge38_Node000026_Node000007" class="edge">
<title>Node26&#45;&gt;Node7</title>
<g id="a_edge38_Node000026_Node000007"><a xlink:title=" ">
<path fill="none" stroke="#63b8ff" d="M488.77,-61.31C587.41,-52.46 912.7,-23.3 1019.69,-13.71"/>
<polygon fill="#63b8ff" stroke="#63b8ff" points="1019.9,-17.21 1029.55,-12.83 1019.28,-10.24 1019.9,-17.21"/>
</a>
</g>
</g>
<!-- Node26&#45;&gt;Node9 -->
<g id="edge36_Node000026_Node000009" class="edge">
<title>Node26&#45;&gt;Node9</title>
<g id="a_edge36_Node000026_Node000009"><a xlink:title=" ">
<path fill="none" stroke="#63b8ff" d="M488.84,-61.99C577.67,-56.12 855.86,-37.49 1086.12,-19.25 1108.63,-17.47 1133.99,-15.25 1153.41,-13.52"/>
<polygon fill="#63b8ff" stroke="#63b8ff" points="1153.5,-17.02 1163.15,-12.64 1152.87,-10.05 1153.5,-17.02"/>
</a>
</g>
</g>
<!-- Node26&#45;&gt;Node24 -->
<g id="edge33_Node000026_Node000024" class="edge">
<title>Node26&#45;&gt;Node24</title>
<g id="a_edge33_Node000026_Node000024"><a xlink:title=" ">
<path fill="none" stroke="#63b8ff" d="M488.53,-57.68C493.06,-56.8 497.71,-55.95 502.12,-55.25 639.03,-33.49 678.07,-43.33 817.93,-19.42"/>
<polygon fill="#63b8ff" stroke="#63b8ff" points="818.33,-22.9 827.58,-17.74 817.13,-16.01 818.33,-22.9"/>
</a>
</g>
</g>
<!-- Node27 -->
<g id="Node000027" class="node">
<title>Node27</title>
<g id="a_Node000027"><a xlink:title=" ">
<polygon fill="#e0e0e0" stroke="#999999" points="673,-19.25 623.25,-19.25 623.25,0 673,0 673,-19.25"/>
<text text-anchor="middle" x="648.12" y="-5.75" font-family="Helvetica,sans-Serif" font-size="10.00">iomanip</text>
</a>
</g>
</g>
<!-- Node26&#45;&gt;Node27 -->
<g id="edge34_Node000026_Node000027" class="edge">
<title>Node26&#45;&gt;Node27</title>
<g id="a_edge34_Node000026_Node000027"><a xlink:title=" ">
<path fill="none" stroke="#63b8ff" d="M488.68,-55.79C521.68,-46.44 576.03,-31.04 611.96,-20.87"/>
<polygon fill="#63b8ff" stroke="#63b8ff" points="612.8,-24.27 621.47,-18.18 610.89,-17.53 612.8,-24.27"/>
</a>
</g>
</g>
<!-- Node28 -->
<g id="Node000028" class="node">
<title>Node28</title>
<g id="a_Node000028"><a xlink:title=" ">
<polygon fill="#e0e0e0" stroke="#999999" points="749.12,-19.25 691.12,-19.25 691.12,0 749.12,0 749.12,-19.25"/>
<text text-anchor="middle" x="720.12" y="-5.75" font-family="Helvetica,sans-Serif" font-size="10.00">stdexcept</text>
</a>
</g>
</g>
<!-- Node26&#45;&gt;Node28 -->
<g id="edge35_Node000026_Node000028" class="edge">
<title>Node26&#45;&gt;Node28</title>
<g id="a_edge35_Node000026_Node000028"><a xlink:title=" ">
<path fill="none" stroke="#63b8ff" d="M488.59,-58.01C493.12,-57.08 497.75,-56.14 502.12,-55.25 578.65,-39.74 600.49,-36.54 679.66,-19.73"/>
<polygon fill="#63b8ff" stroke="#63b8ff" points="680.15,-23.21 689.2,-17.7 678.69,-16.36 680.15,-23.21"/>
</a>
</g>
</g>
<!-- Node29 -->
<g id="Node000029" class="node">
<title>Node29</title>
<g id="a_Node000029"><a xlink:title=" ">
<polygon fill="#e0e0e0" stroke="#999999" points="811.38,-19.25 766.88,-19.25 766.88,0 811.38,0 811.38,-19.25"/>
<text text-anchor="middle" x="789.12" y="-5.75" font-family="Helvetica,sans-Serif" font-size="10.00">cstdlib</text>
</a>
</g>
</g>
<!-- Node26&#45;&gt;Node29 -->
<g id="edge39_Node000026_Node000029" class="edge">
<title>Node26&#45;&gt;Node29</title>
<g id="a_edge39_Node000026_Node000029"><a xlink:title=" ">
<path fill="none" stroke="#63b8ff" d="M488.55,-57.79C493.08,-56.89 497.72,-56.01 502.12,-55.25 611.81,-36.3 643.67,-42.29 755.45,-19.57"/>
<polygon fill="#63b8ff" stroke="#63b8ff" points="755.96,-23.04 765.04,-17.59 754.54,-16.19 755.96,-23.04"/>
</a>
</g>
</g>
<!-- Node30 -->
<g id="Node000030" class="node">
<title>Node30</title>
<g id="a_Node000030"><a xlink:title=" ">
<polygon fill="#e0e0e0" stroke="#999999" points="119.88,-19.25 60.38,-19.25 60.38,0 119.88,0 119.88,-19.25"/>
<text text-anchor="middle" x="90.12" y="-5.75" font-family="Helvetica,sans-Serif" font-size="10.00">execinfo.h</text>
</a>
</g>
</g>
<!-- Node26&#45;&gt;Node30 -->
<g id="edge40_Node000026_Node000030" class="edge">
<title>Node26&#45;&gt;Node30</title>
<g id="a_edge40_Node000026_Node000030"><a xlink:title=" ">
<path fill="none" stroke="#63b8ff" d="M431.66,-60.85C376.03,-54.76 248.74,-39.99 131.61,-19.56"/>
<polygon fill="#63b8ff" stroke="#63b8ff" points="132.26,-16.12 121.8,-17.82 131.04,-23.01 132.26,-16.12"/>
</a>
</g>
</g>
<!-- Node31 -->
<g id="Node000031" class="node">
<title>Node31</title>
<g id="a_Node000031"><a xlink:title=" ">
<polygon fill="#e0e0e0" stroke="#999999" points="188.38,-19.25 137.88,-19.25 137.88,0 188.38,0 188.38,-19.25"/>
<text text-anchor="middle" x="163.12" y="-5.75" font-family="Helvetica,sans-Serif" font-size="10.00">cxxabi.h</text>
</a>
</g>
</g>
<!-- Node26&#45;&gt;Node31 -->
<g id="edge41_Node000026_Node000031" class="edge">
<title>Node26&#45;&gt;Node31</title>
<g id="a_edge41_Node000026_Node000031"><a xlink:title=" ">
<path fill="none" stroke="#63b8ff" d="M431.57,-59.8C385.07,-53 289.88,-38.39 199.92,-19.7"/>
<polygon fill="#63b8ff" stroke="#63b8ff" points="200.68,-16.29 190.17,-17.66 199.24,-23.14 200.68,-16.29"/>
</a>
</g>
</g>
<!-- Node32 -->
<g id="Node000032" class="node">
<title>Node32</title>
<g id="a_Node000032"><a xlink:title=" ">
<polygon fill="#e0e0e0" stroke="#999999" points="257.75,-19.25 206.5,-19.25 206.5,0 257.75,0 257.75,-19.25"/>
<text text-anchor="middle" x="232.12" y="-5.75" font-family="Helvetica,sans-Serif" font-size="10.00">sstream</text>
</a>
</g>
</g>
<!-- Node26&#45;&gt;Node32 -->
<g id="edge42_Node000026_Node000032" class="edge">
<title>Node26&#45;&gt;Node32</title>
<g id="a_edge42_Node000026_Node000032"><a xlink:title=" ">
<path fill="none" stroke="#63b8ff" d="M431.48,-57.5C395.66,-49.47 332.18,-35.11 269.05,-19.92"/>
<polygon fill="#63b8ff" stroke="#63b8ff" points="270.11,-16.58 259.57,-17.63 268.47,-23.38 270.11,-16.58"/>
</a>
</g>
</g>
<!-- Node33 -->
<g id="Node000033" class="node">
<title>Node33</title>
<g id="a_Node000033"><a xlink:title=" ">
<polygon fill="#e0e0e0" stroke="#999999" points="312.62,-19.25 275.62,-19.25 275.62,0 312.62,0 312.62,-19.25"/>
<text text-anchor="middle" x="294.12" y="-5.75" font-family="Helvetica,sans-Serif" font-size="10.00">array</text>
</a>
</g>
</g>
<!-- Node26&#45;&gt;Node33 -->
<g id="edge43_Node000026_Node000033" class="edge">
<title>Node26&#45;&gt;Node33</title>
<g id="a_edge43_Node000026_Node000033"><a xlink:title=" ">
<path fill="none" stroke="#63b8ff" d="M431.97,-54.84C401.95,-45.21 354.6,-30.02 323.96,-20.19"/>
<polygon fill="#63b8ff" stroke="#63b8ff" points="325.13,-16.9 314.54,-17.17 322.99,-23.56 325.13,-16.9"/>
</a>
</g>
</g>
<!-- Node34 -->
<g id="Node000034" class="node">
<title>Node34</title>
<g id="a_Node000034"><a xlink:title=" ">
<polygon fill="#e0e0e0" stroke="#999999" points="381.38,-19.25 330.88,-19.25 330.88,0 381.38,0 381.38,-19.25"/>
<text text-anchor="middle" x="356.12" y="-5.75" font-family="Helvetica,sans-Serif" font-size="10.00">memory</text>
</a>
</g>
</g>
<!-- Node26&#45;&gt;Node34 -->
<g id="edge44_Node000026_Node000034" class="edge">
<title>Node26&#45;&gt;Node34</title>
<g id="a_edge44_Node000026_Node000034"><a xlink:title=" ">
<path fill="none" stroke="#63b8ff" d="M442.48,-54.84C426.5,-46.66 402.67,-34.46 384.09,-24.94"/>
<polygon fill="#63b8ff" stroke="#63b8ff" points="385.7,-21.83 375.2,-20.39 382.51,-28.07 385.7,-21.83"/>
</a>
</g>
</g>
<!-- Node35 -->
<g id="Node000035" class="node">
<title>Node35</title>
<g id="a_Node000035"><a xlink:title=" ">
<polygon fill="#e0e0e0" stroke="#999999" points="449,-19.25 399.25,-19.25 399.25,0 449,0 449,-19.25"/>
<text text-anchor="middle" x="424.12" y="-5.75" font-family="Helvetica,sans-Serif" font-size="10.00">unistd.h</text>
</a>
</g>
</g>
<!-- Node26&#45;&gt;Node35 -->
<g id="edge45_Node000026_Node000035" class="edge">
<title>Node26&#45;&gt;Node35</title>
<g id="a_edge45_Node000026_Node000035"><a xlink:title=" ">
<path fill="none" stroke="#63b8ff" d="M454.18,-55.08C449.41,-48.03 442.56,-37.9 436.6,-29.08"/>
<polygon fill="#63b8ff" stroke="#63b8ff" points="439.55,-27.19 431.05,-20.86 433.75,-31.11 439.55,-27.19"/>
</a>
</g>
</g>
<!-- Node36 -->
<g id="Node000036" class="node">
<title>Node36</title>
<g id="a_Node000036"><a xlink:title=" ">
<polygon fill="#e0e0e0" stroke="#999999" points="526.88,-19.25 467.38,-19.25 467.38,0 526.88,0 526.88,-19.25"/>
<text text-anchor="middle" x="497.12" y="-5.75" font-family="Helvetica,sans-Serif" font-size="10.00">sys/wait.h</text>
</a>
</g>
</g>
<!-- Node26&#45;&gt;Node36 -->
<g id="edge46_Node000026_Node000036" class="edge">
<title>Node26&#45;&gt;Node36</title>
<g id="a_edge46_Node000026_Node000036"><a xlink:title=" ">
<path fill="none" stroke="#63b8ff" d="M466.23,-55.08C471.19,-47.96 478.33,-37.68 484.5,-28.8"/>
<polygon fill="#63b8ff" stroke="#63b8ff" points="487.19,-31.06 490.02,-20.85 481.44,-27.07 487.19,-31.06"/>
</a>
</g>
</g>
<!-- Node37 -->
<g id="Node000037" class="node">
<title>Node37</title>
<g id="a_Node000037"><a xlink:title=" ">
<polygon fill="#e0e0e0" stroke="#999999" points="605.25,-19.25 545,-19.25 545,0 605.25,0 605.25,-19.25"/>
<text text-anchor="middle" x="575.12" y="-5.75" font-family="Helvetica,sans-Serif" font-size="10.00">sys/prctl.h</text>
</a>
</g>
</g>
<!-- Node26&#45;&gt;Node37 -->
<g id="edge47_Node000026_Node000037" class="edge">
<title>Node26&#45;&gt;Node37</title>
<g id="a_edge47_Node000026_Node000037"><a xlink:title=" ">
<path fill="none" stroke="#63b8ff" d="M479.63,-54.84C497.64,-46.5 524.65,-34 545.35,-24.41"/>
<polygon fill="#63b8ff" stroke="#63b8ff" points="546.54,-27.72 554.15,-20.34 543.6,-21.36 546.54,-27.72"/>
</a>
</g>
</g>
<!-- Node38&#45;&gt;Node19 -->
<g id="edge50_Node000038_Node000019" class="edge">
<title>Node38&#45;&gt;Node19</title>
<g id="a_edge50_Node000038_Node000019"><a xlink:title=" ">
<path fill="none" stroke="#63b8ff" d="M810.59,-110.09C835.91,-101.45 874.36,-88.32 902.79,-78.62"/>
<polygon fill="#63b8ff" stroke="#63b8ff" points="903.77,-81.98 912.1,-75.44 901.5,-75.36 903.77,-81.98"/>
</a>
</g>
</g>
<!-- Node38&#45;&gt;Node24 -->
<g id="edge49_Node000038_Node000024" class="edge">
<title>Node38&#45;&gt;Node24</title>
<g id="a_edge49_Node000038_Node000024"><a xlink:title=" ">
<path fill="none" stroke="#63b8ff" d="M748.88,-111.65C704.13,-101.81 631.78,-84.58 624.12,-74.5 618.95,-67.69 618.65,-61.82 624.12,-55.25 650.59,-23.48 760.71,-27.64 817.72,-19.27"/>
<polygon fill="#63b8ff" stroke="#63b8ff" points="818.3,-22.72 827.54,-17.54 817.09,-15.83 818.3,-22.72"/>
</a>
</g>
</g>
<!-- Node38&#45;&gt;Node26 -->
<g id="edge55_Node000038_Node000026" class="edge">
<title>Node38&#45;&gt;Node26</title>
<g id="a_edge55_Node000038_Node000026"><a xlink:title=" ">
<path fill="none" stroke="#63b8ff" d="M749.08,-112.14C746.05,-111.57 743.04,-111.02 740.12,-110.5 654.79,-95.34 554.38,-79.92 500,-71.77"/>
<polygon fill="#63b8ff" stroke="#63b8ff" points="500.7,-68.34 490.3,-70.32 499.67,-75.26 500.7,-68.34"/>
</a>
</g>
</g>
<!-- Node39 -->
<g id="Node000039" class="node">
<title>Node39</title>
<g id="a_Node000039"><a xlink:title=" ">
<polygon fill="#e0e0e0" stroke="#999999" points="893,-74.5 825.25,-74.5 825.25,-55.25 893,-55.25 893,-74.5"/>
<text text-anchor="middle" x="859.12" y="-61" font-family="Helvetica,sans-Serif" font-size="10.00">TDirectory.h</text>
</a>
</g>
</g>
<!-- Node38&#45;&gt;Node39 -->
<g id="edge51_Node000038_Node000039" class="edge">
<title>Node38&#45;&gt;Node39</title>
<g id="a_edge51_Node000038_Node000039"><a xlink:title=" ">
<path fill="none" stroke="#63b8ff" d="M796.85,-110.09C807.84,-102.29 823.97,-90.84 837.06,-81.54"/>
<polygon fill="#63b8ff" stroke="#63b8ff" points="838.98,-84.47 845.11,-75.83 834.93,-78.76 838.98,-84.47"/>
</a>
</g>
</g>
<!-- Node40 -->
<g id="Node000040" class="node">
<title>Node40</title>
<g id="a_Node000040"><a xlink:title=" ">
<polygon fill="#e0e0e0" stroke="#999999" points="678.75,-74.5 633.5,-74.5 633.5,-55.25 678.75,-55.25 678.75,-74.5"/>
<text text-anchor="middle" x="656.12" y="-61" font-family="Helvetica,sans-Serif" font-size="10.00">TFile.h</text>
</a>
</g>
</g>
<!-- Node38&#45;&gt;Node40 -->
<g id="edge52_Node000038_Node000040" class="edge">
<title>Node38&#45;&gt;Node40</title>
<g id="a_edge52_Node000038_Node000040"><a xlink:title=" ">
<path fill="none" stroke="#63b8ff" d="M762.41,-110.09C742.09,-101.64 711.48,-88.9 688.32,-79.27"/>
<polygon fill="#63b8ff" stroke="#63b8ff" points="689.92,-76.14 679.34,-75.53 687.23,-82.61 689.92,-76.14"/>
</a>
</g>
</g>
<!-- Node41 -->
<g id="Node000041" class="node">
<title>Node41</title>
<g id="a_Node000041"><a xlink:title=" ">
<polygon fill="#e0e0e0" stroke="#999999" points="743.12,-74.5 697.12,-74.5 697.12,-55.25 743.12,-55.25 743.12,-74.5"/>
<text text-anchor="middle" x="720.12" y="-61" font-family="Helvetica,sans-Serif" font-size="10.00">TList.h</text>
</a>
</g>
</g>
<!-- Node38&#45;&gt;Node41 -->
<g id="edge53_Node000038_Node000041" class="edge">
<title>Node38&#45;&gt;Node41</title>
<g id="a_edge53_Node000038_Node000041"><a xlink:title=" ">
<path fill="none" stroke="#63b8ff" d="M773.27,-110.09C764.02,-102.4 750.5,-91.15 739.42,-81.93"/>
<polygon fill="#63b8ff" stroke="#63b8ff" points="741.91,-79.45 731.98,-75.74 737.43,-84.83 741.91,-79.45"/>
</a>
</g>
</g>
<!-- Node42 -->
<g id="Node000042" class="node">
<title>Node42</title>
<g id="a_Node000042"><a xlink:title=" ">
<polygon fill="#e0e0e0" stroke="#999999" points="807.12,-74.5 761.12,-74.5 761.12,-55.25 807.12,-55.25 807.12,-74.5"/>
<text text-anchor="middle" x="784.12" y="-61" font-family="Helvetica,sans-Serif" font-size="10.00">TKey.h</text>
</a>
</g>
</g>
<!-- Node38&#45;&gt;Node42 -->
<g id="edge54_Node000038_Node000042" class="edge">
<title>Node38&#45;&gt;Node42</title>
<g id="a_edge54_Node000038_Node000042"><a xlink:title=" ">
<path fill="none" stroke="#63b8ff" d="M784.12,-110.33C784.12,-103.82 784.12,-94.67 784.12,-86.37"/>
<polygon fill="#63b8ff" stroke="#63b8ff" points="787.63,-86.37 784.13,-76.37 780.63,-86.37 787.63,-86.37"/>
</a>
</g>
</g>
<!-- Node43&#45;&gt;Node24 -->
<g id="edge57_Node000043_Node000024" class="edge">
<title>Node43&#45;&gt;Node24</title>
<g id="a_edge57_Node000043_Node000024"><a xlink:title=" ">
<path fill="none" stroke="#63b8ff" d="M1116.34,-165.42C1084.7,-139.19 993.35,-63.82 978.12,-55.25 951.37,-40.19 918.56,-28.53 893.71,-20.91"/>
<polygon fill="#63b8ff" stroke="#63b8ff" points="894.94,-17.62 884.36,-18.13 892.94,-24.33 894.94,-17.62"/>
</a>
</g>
</g>
<!-- Node44 -->
<g id="Node000044" class="node">
<title>Node44</title>
<g id="a_Node000044"><a xlink:title=" ">
<polygon fill="#e0e0e0" stroke="#999999" points="1157,-129.75 1083.25,-129.75 1083.25,-110.5 1157,-110.5 1157,-129.75"/>
<text text-anchor="middle" x="1120.12" y="-116.25" font-family="Helvetica,sans-Serif" font-size="10.00">RtypesCore.h</text>
</a>
</g>
</g>
<!-- Node43&#45;&gt;Node44 -->
<g id="edge58_Node000043_Node000044" class="edge">
<title>Node43&#45;&gt;Node44</title>
<g id="a_edge58_Node000043_Node000044"><a xlink:title=" ">
<path fill="none" stroke="#63b8ff" d="M1125.97,-165.58C1125.1,-158.99 1123.88,-149.71 1122.78,-141.32"/>
<polygon fill="#63b8ff" stroke="#63b8ff" points="1126.28,-141.07 1121.5,-131.61 1119.34,-141.98 1126.28,-141.07"/>
</a>
</g>
</g>
</g>
</svg>

<g id="navigator" transform="translate(0 0)" fill="#404254">
  <rect fill="#f2f5e9" fill-opacity="0.5" stroke="#606060" stroke-width=".5" x="0" y="0" width="60" height="60"/>
  <use id="zoomplus" xlink:href="#zoomPlus" x="17" y="9" onmousedown="handleZoom(evt,'in')"/>
  <use id="zoomminus" xlink:href="#zoomMin" x="42" y="9" onmousedown="handleZoom(evt,'out')"/>
  <use id="reset" xlink:href="#resetDef" x="30" y="36" onmousedown="handleReset()"/>
   <use id="arrowup" xlink:href="#arrowUp" x="0" y="0" onmousedown="handlePan(0,-1)"/>
  <use id="arrowright" xlink:href="#arrowRight" x="0" y="0" onmousedown="handlePan(1,0)"/>
  <use id="arrowdown" xlink:href="#arrowDown" x="0" y="0" onmousedown="handlePan(0,1)"/>
  <use id="arrowleft" xlink:href="#arrowLeft" x="0" y="0" onmousedown="handlePan(-1,0)"/>
</g>
<svg viewBox="0 0 15 15" width="100%" height="30px" preserveAspectRatio="xMaxYMin meet">
 <g id="arrow_out" transform="scale(0.3 0.3)">
  <a xlink:href="_t_bgo_hit_8h__incl_org.svg" target="_base">
   <rect id="button" ry="5" rx="5" y="6" x="6" height="38" width="38"
        fill="#f2f5e9" fill-opacity="0.5" stroke="#606060" stroke-width="1.0"/>
   <path id="arrow"
     d="M 11.500037,31.436501 C 11.940474,20.09759 22.043105,11.32322 32.158766,21.979434 L 37.068811,17.246167 C 37.068811,17.246167 37.088388,32 37.088388,32 L 22.160133,31.978069 C 22.160133,31.978069 26.997745,27.140456 26.997745,27.140456 C 18.528582,18.264221 13.291696,25.230495 11.500037,31.436501 z"
     style="fill:#404040;"/>
  </a>
 </g>
</svg>

<style type='text/css'>
<![CDATA[
[data-mouse-over-selected='false'] { opacity: 0.7; }
[data-mouse-over-selected='true']  { opacity: 1.0; }
]]>
</style>
<script type="application/ecmascript"><![CDATA[
document.addEventListener('DOMContentLoaded', (event) => {
  highlightEdges();
  highlightAdjacentNodes();
});
]]></script>
</svg>
