<?xml version="1.0" encoding="UTF-8" standalone="no"?>
<!DOCTYPE svg PUBLIC "-//W3C//DTD SVG 1.1//EN"
 "http://www.w3.org/Graphics/SVG/1.1/DTD/svg11.dtd">
<!-- Generated by graphviz version 12.2.0 (20241103.1931)
 -->
<!-- Title: TBetaDecay.h Pages: 1 -->
<svg width="496pt" height="193pt"
 viewBox="0.00 0.00 495.75 193.00" xmlns="http://www.w3.org/2000/svg" xmlns:xlink="http://www.w3.org/1999/xlink">

<svg id="main" version="1.1" xmlns="http://www.w3.org/2000/svg" xmlns:xlink="http://www.w3.org/1999/xlink" xml:space="preserve">

<style type="text/css"><![CDATA[
.node, .edge {opacity: 0.7;}
.node.selected, .edge.selected {opacity: 1;}
.edge:hover path { stroke: red; }
.edge:hover polygon { stroke: red; fill: red; }
]]></style>
<script type="application/ecmascript" xlink:href="svg.min.js"/>
<svg id="graph" class="graph">
<g id="graph0" class="graph" transform="scale(1 1) rotate(0) translate(4 189)">
<title>TBetaDecay.h</title>
<!-- Node1 -->
<g id="Node000001" class="node">
<title>Node1</title>
<g id="a_Node000001"><a xlink:title=" ">
<polygon fill="#999999" stroke="#666666" points="165.88,-185 89.12,-185 89.12,-165.75 165.88,-165.75 165.88,-185"/>
<text text-anchor="middle" x="127.5" y="-171.5" font-family="Helvetica,sans-Serif" font-size="10.00">TBetaDecay.h</text>
</a>
</g>
</g>
<!-- Node2 -->
<g id="Node000002" class="node">
<title>Node2</title>
<g id="a_Node000002"><a xlink:title=" ">
<polygon fill="#e0e0e0" stroke="#999999" points="61,-74.5 0,-74.5 0,-55.25 61,-55.25 61,-74.5"/>
<text text-anchor="middle" x="30.5" y="-61" font-family="Helvetica,sans-Serif" font-size="10.00">TNamed.h</text>
</a>
</g>
</g>
<!-- Node1&#45;&gt;Node2 -->
<g id="edge1_Node000001_Node000002" class="edge">
<title>Node1&#45;&gt;Node2</title>
<g id="a_edge1_Node000001_Node000002"><a xlink:title=" ">
<path fill="none" stroke="#63b8ff" d="M119.56,-165.5C103.5,-147.53 66.92,-106.61 45.98,-83.19"/>
<polygon fill="#63b8ff" stroke="#63b8ff" points="48.83,-81.13 39.56,-76.01 43.61,-85.79 48.83,-81.13"/>
</a>
</g>
</g>
<!-- Node3 -->
<g id="Node000003" class="node">
<title>Node3</title>
<g id="a_Node000003"><a xlink:href="_t_nucleus_8h.html" target="_top" xlink:title=" ">
<polygon fill="white" stroke="#666666" points="226.25,-129.75 160.75,-129.75 160.75,-110.5 226.25,-110.5 226.25,-129.75"/>
<text text-anchor="middle" x="193.5" y="-116.25" font-family="Helvetica,sans-Serif" font-size="10.00">TNucleus.h</text>
</a>
</g>
</g>
<!-- Node1&#45;&gt;Node3 -->
<g id="edge2_Node000001_Node000003" class="edge">
<title>Node1&#45;&gt;Node3</title>
<g id="a_edge2_Node000001_Node000003"><a xlink:title=" ">
<path fill="none" stroke="#63b8ff" d="M138.7,-165.34C148.24,-157.65 162.17,-146.4 173.61,-137.18"/>
<polygon fill="#63b8ff" stroke="#63b8ff" points="175.71,-139.98 181.29,-130.98 171.31,-134.53 175.71,-139.98"/>
</a>
</g>
</g>
<!-- Node3&#45;&gt;Node2 -->
<g id="edge10_Node000003_Node000002" class="edge">
<title>Node3&#45;&gt;Node2</title>
<g id="a_edge10_Node000003_Node000002"><a xlink:title=" ">
<path fill="none" stroke="#63b8ff" d="M165.85,-110.09C139.27,-101.41 98.86,-88.21 69.11,-78.49"/>
<polygon fill="#63b8ff" stroke="#63b8ff" points="70.32,-75.2 59.73,-75.42 68.14,-81.85 70.32,-75.2"/>
</a>
</g>
</g>
<!-- Node4 -->
<g id="Node000004" class="node">
<title>Node4</title>
<g id="a_Node000004"><a xlink:title=" ">
<polygon fill="#e0e0e0" stroke="#999999" points="122,-74.5 79,-74.5 79,-55.25 122,-55.25 122,-74.5"/>
<text text-anchor="middle" x="100.5" y="-61" font-family="Helvetica,sans-Serif" font-size="10.00">cmath</text>
</a>
</g>
</g>
<!-- Node3&#45;&gt;Node4 -->
<g id="edge3_Node000003_Node000004" class="edge">
<title>Node3&#45;&gt;Node4</title>
<g id="a_edge3_Node000003_Node000004"><a xlink:title=" ">
<path fill="none" stroke="#63b8ff" d="M177.72,-110.09C163.56,-101.98 142.52,-89.93 125.97,-80.46"/>
<polygon fill="#63b8ff" stroke="#63b8ff" points="128.08,-77.64 117.67,-75.7 124.61,-83.71 128.08,-77.64"/>
</a>
</g>
</g>
<!-- Node5 -->
<g id="Node000005" class="node">
<title>Node5</title>
<g id="a_Node000005"><a xlink:title=" ">
<polygon fill="#e0e0e0" stroke="#999999" points="185.12,-74.5 139.88,-74.5 139.88,-55.25 185.12,-55.25 185.12,-74.5"/>
<text text-anchor="middle" x="162.5" y="-61" font-family="Helvetica,sans-Serif" font-size="10.00">cstring</text>
</a>
</g>
</g>
<!-- Node3&#45;&gt;Node5 -->
<g id="edge4_Node000003_Node000005" class="edge">
<title>Node3&#45;&gt;Node5</title>
<g id="a_edge4_Node000003_Node000005"><a xlink:title=" ">
<path fill="none" stroke="#63b8ff" d="M188.38,-110.33C184.32,-103.36 178.51,-93.37 173.41,-84.62"/>
<polygon fill="#63b8ff" stroke="#63b8ff" points="176.55,-83.05 168.49,-76.17 170.5,-86.57 176.55,-83.05"/>
</a>
</g>
</g>
<!-- Node6 -->
<g id="Node000006" class="node">
<title>Node6</title>
<g id="a_Node000006"><a xlink:title=" ">
<polygon fill="#e0e0e0" stroke="#999999" points="247.75,-74.5 203.25,-74.5 203.25,-55.25 247.75,-55.25 247.75,-74.5"/>
<text text-anchor="middle" x="225.5" y="-61" font-family="Helvetica,sans-Serif" font-size="10.00">cstdlib</text>
</a>
</g>
</g>
<!-- Node3&#45;&gt;Node6 -->
<g id="edge5_Node000003_Node000006" class="edge">
<title>Node3&#45;&gt;Node6</title>
<g id="a_edge5_Node000003_Node000006"><a xlink:title=" ">
<path fill="none" stroke="#63b8ff" d="M198.78,-110.33C202.97,-103.36 208.98,-93.37 214.23,-84.62"/>
<polygon fill="#63b8ff" stroke="#63b8ff" points="217.17,-86.53 219.32,-76.16 211.17,-82.93 217.17,-86.53"/>
</a>
</g>
</g>
<!-- Node7 -->
<g id="Node000007" class="node">
<title>Node7</title>
<g id="a_Node000007"><a xlink:title=" ">
<polygon fill="#e0e0e0" stroke="#999999" points="305.5,-74.5 265.5,-74.5 265.5,-55.25 305.5,-55.25 305.5,-74.5"/>
<text text-anchor="middle" x="285.5" y="-61" font-family="Helvetica,sans-Serif" font-size="10.00">string</text>
</a>
</g>
</g>
<!-- Node3&#45;&gt;Node7 -->
<g id="edge6_Node000003_Node000007" class="edge">
<title>Node3&#45;&gt;Node7</title>
<g id="a_edge6_Node000003_Node000007"><a xlink:title=" ">
<path fill="none" stroke="#63b8ff" d="M209.11,-110.09C223.12,-101.98 243.93,-89.93 260.3,-80.46"/>
<polygon fill="#63b8ff" stroke="#63b8ff" points="261.61,-83.75 268.51,-75.71 258.1,-77.69 261.61,-83.75"/>
</a>
</g>
</g>
<!-- Node8 -->
<g id="Node000008" class="node">
<title>Node8</title>
<g id="a_Node000008"><a xlink:href="_t_transition_8h.html" target="_top" xlink:title=" ">
<polygon fill="white" stroke="#666666" points="395.62,-74.5 323.38,-74.5 323.38,-55.25 395.62,-55.25 395.62,-74.5"/>
<text text-anchor="middle" x="359.5" y="-61" font-family="Helvetica,sans-Serif" font-size="10.00">TTransition.h</text>
</a>
</g>
</g>
<!-- Node3&#45;&gt;Node8 -->
<g id="edge7_Node000003_Node000008" class="edge">
<title>Node3&#45;&gt;Node8</title>
<g id="a_edge7_Node000003_Node000008"><a xlink:title=" ">
<path fill="none" stroke="#63b8ff" d="M221.66,-110.09C248.85,-101.37 290.24,-88.09 320.57,-78.36"/>
<polygon fill="#63b8ff" stroke="#63b8ff" points="321.31,-81.8 329.76,-75.41 319.17,-75.14 321.31,-81.8"/>
</a>
</g>
</g>
<!-- Node11 -->
<g id="Node000011" class="node">
<title>Node11</title>
<g id="a_Node000011"><a xlink:title=" ">
<polygon fill="#e0e0e0" stroke="#999999" points="487.75,-74.5 413.25,-74.5 413.25,-55.25 487.75,-55.25 487.75,-74.5"/>
<text text-anchor="middle" x="450.5" y="-61" font-family="Helvetica,sans-Serif" font-size="10.00">TSortedList.h</text>
</a>
</g>
</g>
<!-- Node3&#45;&gt;Node11 -->
<g id="edge11_Node000003_Node000011" class="edge">
<title>Node3&#45;&gt;Node11</title>
<g id="a_edge11_Node000003_Node000011"><a xlink:title=" ">
<path fill="none" stroke="#63b8ff" d="M226.57,-112.27C271.06,-103.05 350.52,-86.59 401.84,-75.96"/>
<polygon fill="#63b8ff" stroke="#63b8ff" points="402.41,-79.41 411.49,-73.96 400.99,-72.56 402.41,-79.41"/>
</a>
</g>
</g>
<!-- Node9 -->
<g id="Node000009" class="node">
<title>Node9</title>
<g id="a_Node000009"><a xlink:title=" ">
<polygon fill="#e0e0e0" stroke="#999999" points="346.62,-19.25 304.38,-19.25 304.38,0 346.62,0 346.62,-19.25"/>
<text text-anchor="middle" x="325.5" y="-5.75" font-family="Helvetica,sans-Serif" font-size="10.00">cstdio</text>
</a>
</g>
</g>
<!-- Node8&#45;&gt;Node9 -->
<g id="edge8_Node000008_Node000009" class="edge">
<title>Node8&#45;&gt;Node9</title>
<g id="a_edge8_Node000008_Node000009"><a xlink:title=" ">
<path fill="none" stroke="#63b8ff" d="M353.89,-55.08C349.38,-48.03 342.91,-37.9 337.29,-29.08"/>
<polygon fill="#63b8ff" stroke="#63b8ff" points="340.38,-27.43 332.05,-20.88 334.48,-31.2 340.38,-27.43"/>
</a>
</g>
</g>
<!-- Node10 -->
<g id="Node000010" class="node">
<title>Node10</title>
<g id="a_Node000010"><a xlink:title=" ">
<polygon fill="#e0e0e0" stroke="#999999" points="422.5,-19.25 364.5,-19.25 364.5,0 422.5,0 422.5,-19.25"/>
<text text-anchor="middle" x="393.5" y="-5.75" font-family="Helvetica,sans-Serif" font-size="10.00">TObject.h</text>
</a>
</g>
</g>
<!-- Node8&#45;&gt;Node10 -->
<g id="edge9_Node000008_Node000010" class="edge">
<title>Node8&#45;&gt;Node10</title>
<g id="a_edge9_Node000008_Node000010"><a xlink:title=" ">
<path fill="none" stroke="#63b8ff" d="M365.11,-55.08C369.62,-48.03 376.09,-37.9 381.71,-29.08"/>
<polygon fill="#63b8ff" stroke="#63b8ff" points="384.52,-31.2 386.95,-20.88 378.62,-27.43 384.52,-31.2"/>
</a>
</g>
</g>
</g>
</svg>
</svg>

<style type='text/css'>
<![CDATA[
[data-mouse-over-selected='false'] { opacity: 0.7; }
[data-mouse-over-selected='true']  { opacity: 1.0; }
]]>
</style>
<script type="application/ecmascript"><![CDATA[
document.addEventListener('DOMContentLoaded', (event) => {
  highlightEdges();
  highlightAdjacentNodes();
});
]]></script>
</svg>
