<?xml version="1.0" encoding="UTF-8" standalone="no"?>
<!DOCTYPE svg PUBLIC "-//W3C//DTD SVG 1.1//EN"
 "http://www.w3.org/Graphics/SVG/1.1/DTD/svg11.dtd">
<!-- Generated by graphviz version 9.0.0 (20230911.1827)
 -->
<!-- Title: TCalManager.h Pages: 1 -->
<svg width="254pt" height="138pt"
 viewBox="0.00 0.00 253.62 137.75" xmlns="http://www.w3.org/2000/svg" xmlns:xlink="http://www.w3.org/1999/xlink">
<g id="graph0" class="graph" transform="scale(1 1) rotate(0) translate(4 133.75)">
<title>TCalManager.h</title>
<!-- Node1 -->
<g id="Node000001" class="node">
<title>Node1</title>
<g id="a_Node000001"><a xlink:title=" ">
<polygon fill="#999999" stroke="#666666" points="136.75,-129.75 55.5,-129.75 55.5,-110.5 136.75,-110.5 136.75,-129.75"/>
<text text-anchor="middle" x="96.12" y="-116.25" font-family="Helvetica,sans-Serif" font-size="10.00">TCalManager.h</text>
</a>
</g>
</g>
<!-- Node2 -->
<g id="Node000002" class="node">
<title>Node2</title>
<g id="a_Node000002"><a xlink:href="_t_cal_manager_8cxx.html" target="_top" xlink:title=" ">
<polygon fill="white" stroke="#666666" points="90.25,-74.5 0,-74.5 0,-55.25 90.25,-55.25 90.25,-74.5"/>
<text text-anchor="middle" x="45.12" y="-61" font-family="Helvetica,sans-Serif" font-size="10.00">TCalManager.cxx</text>
</a>
</g>
</g>
<!-- Node1&#45;&gt;Node2 -->
<g id="edge1_Node000001_Node000002" class="edge">
<title>Node1&#45;&gt;Node2</title>
<g id="a_edge1_Node000001_Node000002"><a xlink:title=" ">
<path fill="none" stroke="#63b8ff" d="M79.76,-102.04C71.11,-93 60.83,-82.27 53.73,-74.86"/>
<polygon fill="#63b8ff" stroke="#63b8ff" points="77.21,-104.44 86.66,-109.24 82.27,-99.6 77.21,-104.44"/>
</a>
</g>
</g>
<!-- Node3 -->
<g id="Node000003" class="node">
<title>Node3</title>
<g id="a_Node000003"><a xlink:href="_t_gain_match_8h.html" target="_top" xlink:title=" ">
<polygon fill="white" stroke="#666666" points="185.5,-74.5 108.75,-74.5 108.75,-55.25 185.5,-55.25 185.5,-74.5"/>
<text text-anchor="middle" x="147.12" y="-61" font-family="Helvetica,sans-Serif" font-size="10.00">TGainMatch.h</text>
</a>
</g>
</g>
<!-- Node1&#45;&gt;Node3 -->
<g id="edge2_Node000001_Node000003" class="edge">
<title>Node1&#45;&gt;Node3</title>
<g id="a_edge2_Node000001_Node000003"><a xlink:title=" ">
<path fill="none" stroke="#63b8ff" d="M112.49,-102.04C121.14,-93 131.42,-82.27 138.52,-74.86"/>
<polygon fill="#63b8ff" stroke="#63b8ff" points="109.98,-99.6 105.59,-109.24 115.04,-104.44 109.98,-99.6"/>
</a>
</g>
</g>
<!-- Node4 -->
<g id="Node000004" class="node">
<title>Node4</title>
<g id="a_Node000004"><a xlink:href="_t_gain_match_8cxx.html" target="_top" xlink:title=" ">
<polygon fill="white" stroke="#666666" points="137,-19.25 51.25,-19.25 51.25,0 137,0 137,-19.25"/>
<text text-anchor="middle" x="94.12" y="-5.75" font-family="Helvetica,sans-Serif" font-size="10.00">TGainMatch.cxx</text>
</a>
</g>
</g>
<!-- Node3&#45;&gt;Node4 -->
<g id="edge3_Node000003_Node000004" class="edge">
<title>Node3&#45;&gt;Node4</title>
<g id="a_edge3_Node000003_Node000004"><a xlink:title=" ">
<path fill="none" stroke="#63b8ff" d="M130.4,-47.07C121.35,-37.98 110.52,-27.1 103.07,-19.61"/>
<polygon fill="#63b8ff" stroke="#63b8ff" points="127.77,-49.39 137.31,-54.01 132.73,-44.45 127.77,-49.39"/>
</a>
</g>
</g>
<!-- Node5 -->
<g id="Node000005" class="node">
<title>Node5</title>
<g id="a_Node000005"><a xlink:href="tac__calibrator_8cxx.html" target="_top" xlink:title=" ">
<polygon fill="white" stroke="#666666" points="245.62,-19.25 154.62,-19.25 154.62,0 245.62,0 245.62,-19.25"/>
<text text-anchor="middle" x="200.12" y="-5.75" font-family="Helvetica,sans-Serif" font-size="10.00">tac_calibrator.cxx</text>
</a>
</g>
</g>
<!-- Node3&#45;&gt;Node5 -->
<g id="edge4_Node000003_Node000005" class="edge">
<title>Node3&#45;&gt;Node5</title>
<g id="a_edge4_Node000003_Node000005"><a xlink:title=" ">
<path fill="none" stroke="#63b8ff" d="M163.85,-47.07C172.9,-37.98 183.73,-27.1 191.18,-19.61"/>
<polygon fill="#63b8ff" stroke="#63b8ff" points="161.52,-44.45 156.94,-54.01 166.48,-49.39 161.52,-44.45"/>
</a>
</g>
</g>
</g>
</svg>
