<?xml version="1.0" encoding="UTF-8" standalone="no"?>
<!DOCTYPE svg PUBLIC "-//W3C//DTD SVG 1.1//EN"
 "http://www.w3.org/Graphics/SVG/1.1/DTD/svg11.dtd">
<!-- Generated by graphviz version 12.2.0 (20241103.1931)
 -->
<!-- Title: TCalibrationGraph.h Pages: 1 -->
<svg width="1013pt" height="138pt"
 viewBox="0.00 0.00 1012.75 137.75" xmlns="http://www.w3.org/2000/svg" xmlns:xlink="http://www.w3.org/1999/xlink">
<g id="graph0" class="graph" transform="scale(1 1) rotate(0) translate(4 133.75)">
<title>TCalibrationGraph.h</title>
<!-- Node1 -->
<g id="Node000001" class="node">
<title>Node1</title>
<g id="a_Node000001"><a xlink:title=" ">
<polygon fill="#999999" stroke="#666666" points="543.75,-129.75 442.25,-129.75 442.25,-110.5 543.75,-110.5 543.75,-129.75"/>
<text text-anchor="middle" x="493" y="-116.25" font-family="Helvetica,sans-Serif" font-size="10.00">TCalibrationGraph.h</text>
</a>
</g>
</g>
<!-- Node2 -->
<g id="Node000002" class="node">
<title>Node2</title>
<g id="a_Node000002"><a xlink:title=" ">
<polygon fill="#e0e0e0" stroke="#999999" points="293.5,-74.5 250.5,-74.5 250.5,-55.25 293.5,-55.25 293.5,-74.5"/>
<text text-anchor="middle" x="272" y="-61" font-family="Helvetica,sans-Serif" font-size="10.00">vector</text>
</a>
</g>
</g>
<!-- Node1&#45;&gt;Node2 -->
<g id="edge1_Node000001_Node000002" class="edge">
<title>Node1&#45;&gt;Node2</title>
<g id="a_edge1_Node000001_Node000002"><a xlink:title=" ">
<path fill="none" stroke="#63b8ff" d="M455.26,-110.03C412.96,-99.84 345.05,-83.48 304.85,-73.79"/>
<polygon fill="#63b8ff" stroke="#63b8ff" points="305.82,-70.42 295.28,-71.48 304.18,-77.23 305.82,-70.42"/>
</a>
</g>
</g>
<!-- Node3 -->
<g id="Node000003" class="node">
<title>Node3</title>
<g id="a_Node000003"><a xlink:title=" ">
<polygon fill="#e0e0e0" stroke="#999999" points="40,-19.25 0,-19.25 0,0 40,0 40,-19.25"/>
<text text-anchor="middle" x="20" y="-5.75" font-family="Helvetica,sans-Serif" font-size="10.00">string</text>
</a>
</g>
</g>
<!-- Node1&#45;&gt;Node3 -->
<g id="edge2_Node000001_Node000003" class="edge">
<title>Node1&#45;&gt;Node3</title>
<g id="a_edge2_Node000001_Node000003"><a xlink:title=" ">
<path fill="none" stroke="#63b8ff" d="M450.36,-110.07C418.21,-102.52 373.41,-90.43 336,-74.5 320.38,-67.85 319.04,-60.82 303,-55.25 198.67,-19 162.65,-42.02 51.49,-19.46"/>
<polygon fill="#63b8ff" stroke="#63b8ff" points="52.49,-16.09 41.98,-17.44 51.04,-22.94 52.49,-16.09"/>
</a>
</g>
</g>
<!-- Node4 -->
<g id="Node000004" class="node">
<title>Node4</title>
<g id="a_Node000004"><a xlink:title=" ">
<polygon fill="#e0e0e0" stroke="#999999" points="111.75,-19.25 58.25,-19.25 58.25,0 111.75,0 111.75,-19.25"/>
<text text-anchor="middle" x="85" y="-5.75" font-family="Helvetica,sans-Serif" font-size="10.00">iostream</text>
</a>
</g>
</g>
<!-- Node1&#45;&gt;Node4 -->
<g id="edge3_Node000001_Node000004" class="edge">
<title>Node1&#45;&gt;Node4</title>
<g id="a_edge3_Node000001_Node000004"><a xlink:title=" ">
<path fill="none" stroke="#63b8ff" d="M468.85,-110.05C445.68,-101.26 409.77,-87.4 379,-74.5 359.69,-66.4 356.04,-61.31 336,-55.25 246.7,-28.27 218.06,-37.76 123.34,-19.56"/>
<polygon fill="#63b8ff" stroke="#63b8ff" points="124.06,-16.13 113.57,-17.62 122.69,-23 124.06,-16.13"/>
</a>
</g>
</g>
<!-- Node5 -->
<g id="Node000005" class="node">
<title>Node5</title>
<g id="a_Node000005"><a xlink:title=" ">
<polygon fill="#e0e0e0" stroke="#999999" points="523.5,-74.5 462.5,-74.5 462.5,-55.25 523.5,-55.25 523.5,-74.5"/>
<text text-anchor="middle" x="493" y="-61" font-family="Helvetica,sans-Serif" font-size="10.00">TNamed.h</text>
</a>
</g>
</g>
<!-- Node1&#45;&gt;Node5 -->
<g id="edge4_Node000001_Node000005" class="edge">
<title>Node1&#45;&gt;Node5</title>
<g id="a_edge4_Node000001_Node000005"><a xlink:title=" ">
<path fill="none" stroke="#63b8ff" d="M493,-110.33C493,-103.82 493,-94.67 493,-86.37"/>
<polygon fill="#63b8ff" stroke="#63b8ff" points="496.5,-86.37 493,-76.37 489.5,-86.37 496.5,-86.37"/>
</a>
</g>
</g>
<!-- Node6 -->
<g id="Node000006" class="node">
<title>Node6</title>
<g id="a_Node000006"><a xlink:title=" ">
<polygon fill="#e0e0e0" stroke="#999999" points="622.62,-74.5 541.38,-74.5 541.38,-55.25 622.62,-55.25 622.62,-74.5"/>
<text text-anchor="middle" x="582" y="-61" font-family="Helvetica,sans-Serif" font-size="10.00">TGraphErrors.h</text>
</a>
</g>
</g>
<!-- Node1&#45;&gt;Node6 -->
<g id="edge5_Node000001_Node000006" class="edge">
<title>Node1&#45;&gt;Node6</title>
<g id="a_edge5_Node000001_Node000006"><a xlink:title=" ">
<path fill="none" stroke="#63b8ff" d="M508.1,-110.09C521.52,-102.06 541.41,-90.16 557.17,-80.73"/>
<polygon fill="#63b8ff" stroke="#63b8ff" points="558.75,-83.87 565.53,-75.73 555.15,-77.86 558.75,-83.87"/>
</a>
</g>
</g>
<!-- Node7 -->
<g id="Node000007" class="node">
<title>Node7</title>
<g id="a_Node000007"><a xlink:title=" ">
<polygon fill="#e0e0e0" stroke="#999999" points="687,-74.5 641,-74.5 641,-55.25 687,-55.25 687,-74.5"/>
<text text-anchor="middle" x="664" y="-61" font-family="Helvetica,sans-Serif" font-size="10.00">TList.h</text>
</a>
</g>
</g>
<!-- Node1&#45;&gt;Node7 -->
<g id="edge6_Node000001_Node000007" class="edge">
<title>Node1&#45;&gt;Node7</title>
<g id="a_edge6_Node000001_Node000007"><a xlink:title=" ">
<path fill="none" stroke="#63b8ff" d="M522.01,-110.09C551.8,-100.82 598.14,-86.38 629.72,-76.55"/>
<polygon fill="#63b8ff" stroke="#63b8ff" points="630.68,-79.92 639.19,-73.6 628.6,-73.23 630.68,-79.92"/>
</a>
</g>
</g>
<!-- Node8 -->
<g id="Node000008" class="node">
<title>Node8</title>
<g id="a_Node000008"><a xlink:title=" ">
<polygon fill="#e0e0e0" stroke="#999999" points="766.88,-74.5 705.12,-74.5 705.12,-55.25 766.88,-55.25 766.88,-74.5"/>
<text text-anchor="middle" x="736" y="-61" font-family="Helvetica,sans-Serif" font-size="10.00">TLegend.h</text>
</a>
</g>
</g>
<!-- Node1&#45;&gt;Node8 -->
<g id="edge7_Node000001_Node000008" class="edge">
<title>Node1&#45;&gt;Node8</title>
<g id="a_edge7_Node000001_Node000008"><a xlink:title=" ">
<path fill="none" stroke="#63b8ff" d="M534.5,-110.03C578.89,-100.3 648.93,-84.95 693.65,-75.16"/>
<polygon fill="#63b8ff" stroke="#63b8ff" points="694.22,-78.61 703.24,-73.05 692.72,-71.78 694.22,-78.61"/>
</a>
</g>
</g>
<!-- Node9 -->
<g id="Node000009" class="node">
<title>Node9</title>
<g id="a_Node000009"><a xlink:title=" ">
<polygon fill="#e0e0e0" stroke="#999999" points="850.75,-74.5 785.25,-74.5 785.25,-55.25 850.75,-55.25 850.75,-74.5"/>
<text text-anchor="middle" x="818" y="-61" font-family="Helvetica,sans-Serif" font-size="10.00">TQObject.h</text>
</a>
</g>
</g>
<!-- Node1&#45;&gt;Node9 -->
<g id="edge8_Node000001_Node000009" class="edge">
<title>Node1&#45;&gt;Node9</title>
<g id="a_edge8_Node000001_Node000009"><a xlink:title=" ">
<path fill="none" stroke="#63b8ff" d="M544.24,-111.77C598.64,-103.8 687.4,-90.34 773.68,-74.85"/>
<polygon fill="#63b8ff" stroke="#63b8ff" points="774.31,-78.29 783.52,-73.07 773.06,-71.4 774.31,-78.29"/>
</a>
</g>
</g>
<!-- Node10 -->
<g id="Node000010" class="node">
<title>Node10</title>
<g id="a_Node000010"><a xlink:href="_globals_8h.html" target="_top" xlink:title=" ">
<polygon fill="white" stroke="#666666" points="444.25,-74.5 387.75,-74.5 387.75,-55.25 444.25,-55.25 444.25,-74.5"/>
<text text-anchor="middle" x="416" y="-61" font-family="Helvetica,sans-Serif" font-size="10.00">Globals.h</text>
</a>
</g>
</g>
<!-- Node1&#45;&gt;Node10 -->
<g id="edge9_Node000001_Node000010" class="edge">
<title>Node1&#45;&gt;Node10</title>
<g id="a_edge9_Node000001_Node000010"><a xlink:title=" ">
<path fill="none" stroke="#63b8ff" d="M479.94,-110.09C468.54,-102.21 451.77,-90.61 438.26,-81.27"/>
<polygon fill="#63b8ff" stroke="#63b8ff" points="440.59,-78.62 430.37,-75.81 436.6,-84.38 440.59,-78.62"/>
</a>
</g>
</g>
<!-- Node10&#45;&gt;Node3 -->
<g id="edge13_Node000010_Node000003" class="edge">
<title>Node10&#45;&gt;Node3</title>
<g id="a_edge13_Node000010_Node000003"><a xlink:title=" ">
<path fill="none" stroke="#63b8ff" d="M387.33,-60.67C312.25,-52.24 111.98,-29.51 51.45,-19.23"/>
<polygon fill="#63b8ff" stroke="#63b8ff" points="52.45,-15.86 41.97,-17.46 51.16,-22.74 52.45,-15.86"/>
</a>
</g>
</g>
<!-- Node10&#45;&gt;Node4 -->
<g id="edge10_Node000010_Node000004" class="edge">
<title>Node10&#45;&gt;Node4</title>
<g id="a_edge10_Node000010_Node000004"><a xlink:title=" ">
<path fill="none" stroke="#63b8ff" d="M387.58,-57.79C383.05,-56.89 378.4,-56.01 374,-55.25 265.59,-36.42 234.5,-40.24 123.1,-19.48"/>
<polygon fill="#63b8ff" stroke="#63b8ff" points="124.03,-16.1 113.56,-17.68 122.73,-22.98 124.03,-16.1"/>
</a>
</g>
</g>
<!-- Node11 -->
<g id="Node000011" class="node">
<title>Node11</title>
<g id="a_Node000011"><a xlink:title=" ">
<polygon fill="#e0e0e0" stroke="#999999" points="664.88,-19.25 615.12,-19.25 615.12,0 664.88,0 664.88,-19.25"/>
<text text-anchor="middle" x="640" y="-5.75" font-family="Helvetica,sans-Serif" font-size="10.00">iomanip</text>
</a>
</g>
</g>
<!-- Node10&#45;&gt;Node11 -->
<g id="edge11_Node000010_Node000011" class="edge">
<title>Node10&#45;&gt;Node11</title>
<g id="a_edge11_Node000010_Node000011"><a xlink:title=" ">
<path fill="none" stroke="#63b8ff" d="M444.69,-57.3C479.88,-49.21 541.65,-34.88 603.95,-19.72"/>
<polygon fill="#63b8ff" stroke="#63b8ff" points="604.41,-23.21 613.29,-17.44 602.75,-16.41 604.41,-23.21"/>
</a>
</g>
</g>
<!-- Node12 -->
<g id="Node000012" class="node">
<title>Node12</title>
<g id="a_Node000012"><a xlink:title=" ">
<polygon fill="#e0e0e0" stroke="#999999" points="741,-19.25 683,-19.25 683,0 741,0 741,-19.25"/>
<text text-anchor="middle" x="712" y="-5.75" font-family="Helvetica,sans-Serif" font-size="10.00">stdexcept</text>
</a>
</g>
</g>
<!-- Node10&#45;&gt;Node12 -->
<g id="edge12_Node000010_Node000012" class="edge">
<title>Node10&#45;&gt;Node12</title>
<g id="a_edge12_Node000010_Node000012"><a xlink:title=" ">
<path fill="none" stroke="#63b8ff" d="M444.59,-57.19C447.76,-56.51 450.95,-55.85 454,-55.25 547.73,-36.96 574.82,-38.11 671.42,-19.65"/>
<polygon fill="#63b8ff" stroke="#63b8ff" points="671.94,-23.11 681.09,-17.78 670.61,-16.24 671.94,-23.11"/>
</a>
</g>
</g>
<!-- Node13 -->
<g id="Node000013" class="node">
<title>Node13</title>
<g id="a_Node000013"><a xlink:title=" ">
<polygon fill="#e0e0e0" stroke="#999999" points="801.12,-19.25 758.88,-19.25 758.88,0 801.12,0 801.12,-19.25"/>
<text text-anchor="middle" x="780" y="-5.75" font-family="Helvetica,sans-Serif" font-size="10.00">cstdio</text>
</a>
</g>
</g>
<!-- Node10&#45;&gt;Node13 -->
<g id="edge14_Node000010_Node000013" class="edge">
<title>Node10&#45;&gt;Node13</title>
<g id="a_edge14_Node000010_Node000013"><a xlink:title=" ">
<path fill="none" stroke="#63b8ff" d="M444.57,-57.06C447.74,-56.4 450.93,-55.78 454,-55.25 581,-33.17 618.11,-44.95 747.35,-19.49"/>
<polygon fill="#63b8ff" stroke="#63b8ff" points="747.87,-22.96 756.99,-17.56 746.49,-16.1 747.87,-22.96"/>
</a>
</g>
</g>
<!-- Node14 -->
<g id="Node000014" class="node">
<title>Node14</title>
<g id="a_Node000014"><a xlink:title=" ">
<polygon fill="#e0e0e0" stroke="#999999" points="864.62,-19.25 819.38,-19.25 819.38,0 864.62,0 864.62,-19.25"/>
<text text-anchor="middle" x="842" y="-5.75" font-family="Helvetica,sans-Serif" font-size="10.00">cstdint</text>
</a>
</g>
</g>
<!-- Node10&#45;&gt;Node14 -->
<g id="edge15_Node000010_Node000014" class="edge">
<title>Node10&#45;&gt;Node14</title>
<g id="a_edge15_Node000010_Node000014"><a xlink:title=" ">
<path fill="none" stroke="#63b8ff" d="M444.56,-57C447.73,-56.35 450.93,-55.75 454,-55.25 607.42,-30.18 651.62,-47.23 808.07,-19.29"/>
<polygon fill="#63b8ff" stroke="#63b8ff" points="808.33,-22.8 817.54,-17.57 807.08,-15.92 808.33,-22.8"/>
</a>
</g>
</g>
<!-- Node15 -->
<g id="Node000015" class="node">
<title>Node15</title>
<g id="a_Node000015"><a xlink:title=" ">
<polygon fill="#e0e0e0" stroke="#999999" points="927.25,-19.25 882.75,-19.25 882.75,0 927.25,0 927.25,-19.25"/>
<text text-anchor="middle" x="905" y="-5.75" font-family="Helvetica,sans-Serif" font-size="10.00">cstdlib</text>
</a>
</g>
</g>
<!-- Node10&#45;&gt;Node15 -->
<g id="edge16_Node000010_Node000015" class="edge">
<title>Node10&#45;&gt;Node15</title>
<g id="a_edge16_Node000010_Node000015"><a xlink:title=" ">
<path fill="none" stroke="#63b8ff" d="M444.55,-56.95C447.73,-56.31 450.93,-55.73 454,-55.25 635.51,-27.01 687.6,-51.51 871.29,-19.41"/>
<polygon fill="#63b8ff" stroke="#63b8ff" points="871.71,-22.9 880.94,-17.69 870.48,-16 871.71,-22.9"/>
</a>
</g>
</g>
<!-- Node16 -->
<g id="Node000016" class="node">
<title>Node16</title>
<g id="a_Node000016"><a xlink:title=" ">
<polygon fill="#e0e0e0" stroke="#999999" points="1004.75,-19.25 945.25,-19.25 945.25,0 1004.75,0 1004.75,-19.25"/>
<text text-anchor="middle" x="975" y="-5.75" font-family="Helvetica,sans-Serif" font-size="10.00">execinfo.h</text>
</a>
</g>
</g>
<!-- Node10&#45;&gt;Node16 -->
<g id="edge17_Node000010_Node000016" class="edge">
<title>Node10&#45;&gt;Node16</title>
<g id="a_edge17_Node000010_Node000016"><a xlink:title=" ">
<path fill="none" stroke="#63b8ff" d="M444.55,-56.92C447.72,-56.29 450.92,-55.71 454,-55.25 662.81,-23.93 721.48,-49.61 933.64,-19.37"/>
<polygon fill="#63b8ff" stroke="#63b8ff" points="933.95,-22.86 943.35,-17.96 932.95,-15.93 933.95,-22.86"/>
</a>
</g>
</g>
<!-- Node17 -->
<g id="Node000017" class="node">
<title>Node17</title>
<g id="a_Node000017"><a xlink:title=" ">
<polygon fill="#e0e0e0" stroke="#999999" points="180.25,-19.25 129.75,-19.25 129.75,0 180.25,0 180.25,-19.25"/>
<text text-anchor="middle" x="155" y="-5.75" font-family="Helvetica,sans-Serif" font-size="10.00">cxxabi.h</text>
</a>
</g>
</g>
<!-- Node10&#45;&gt;Node17 -->
<g id="edge18_Node000010_Node000017" class="edge">
<title>Node10&#45;&gt;Node17</title>
<g id="a_edge18_Node000010_Node000017"><a xlink:title=" ">
<path fill="none" stroke="#63b8ff" d="M387.54,-57.99C383.01,-57.06 378.38,-56.13 374,-55.25 295.23,-39.5 272.58,-37.69 191.34,-19.68"/>
<polygon fill="#63b8ff" stroke="#63b8ff" points="192.58,-16.37 182.06,-17.61 191.06,-23.2 192.58,-16.37"/>
</a>
</g>
</g>
<!-- Node18 -->
<g id="Node000018" class="node">
<title>Node18</title>
<g id="a_Node000018"><a xlink:title=" ">
<polygon fill="#e0e0e0" stroke="#999999" points="249.62,-19.25 198.38,-19.25 198.38,0 249.62,0 249.62,-19.25"/>
<text text-anchor="middle" x="224" y="-5.75" font-family="Helvetica,sans-Serif" font-size="10.00">sstream</text>
</a>
</g>
</g>
<!-- Node10&#45;&gt;Node18 -->
<g id="edge19_Node000010_Node000018" class="edge">
<title>Node10&#45;&gt;Node18</title>
<g id="a_edge19_Node000010_Node000018"><a xlink:title=" ">
<path fill="none" stroke="#63b8ff" d="M387.26,-55.9C353.51,-46.54 297.47,-31 260.63,-20.78"/>
<polygon fill="#63b8ff" stroke="#63b8ff" points="261.89,-17.5 251.32,-18.2 260.02,-24.25 261.89,-17.5"/>
</a>
</g>
</g>
<!-- Node19 -->
<g id="Node000019" class="node">
<title>Node19</title>
<g id="a_Node000019"><a xlink:title=" ">
<polygon fill="#e0e0e0" stroke="#999999" points="304.5,-19.25 267.5,-19.25 267.5,0 304.5,0 304.5,-19.25"/>
<text text-anchor="middle" x="286" y="-5.75" font-family="Helvetica,sans-Serif" font-size="10.00">array</text>
</a>
</g>
</g>
<!-- Node10&#45;&gt;Node19 -->
<g id="edge20_Node000010_Node000019" class="edge">
<title>Node10&#45;&gt;Node19</title>
<g id="a_edge20_Node000010_Node000019"><a xlink:title=" ">
<path fill="none" stroke="#63b8ff" d="M393.95,-54.84C372.31,-45.98 339.18,-32.41 315.33,-22.64"/>
<polygon fill="#63b8ff" stroke="#63b8ff" points="316.76,-19.44 306.18,-18.89 314.11,-25.92 316.76,-19.44"/>
</a>
</g>
</g>
<!-- Node20 -->
<g id="Node000020" class="node">
<title>Node20</title>
<g id="a_Node000020"><a xlink:title=" ">
<polygon fill="#e0e0e0" stroke="#999999" points="373.25,-19.25 322.75,-19.25 322.75,0 373.25,0 373.25,-19.25"/>
<text text-anchor="middle" x="348" y="-5.75" font-family="Helvetica,sans-Serif" font-size="10.00">memory</text>
</a>
</g>
</g>
<!-- Node10&#45;&gt;Node20 -->
<g id="edge21_Node000010_Node000020" class="edge">
<title>Node10&#45;&gt;Node20</title>
<g id="a_edge21_Node000010_Node000020"><a xlink:title=" ">
<path fill="none" stroke="#63b8ff" d="M404.46,-54.84C394.54,-47.07 379.99,-35.67 368.14,-26.4"/>
<polygon fill="#63b8ff" stroke="#63b8ff" points="370.59,-23.87 360.56,-20.46 366.27,-29.38 370.59,-23.87"/>
</a>
</g>
</g>
<!-- Node21 -->
<g id="Node000021" class="node">
<title>Node21</title>
<g id="a_Node000021"><a xlink:title=" ">
<polygon fill="#e0e0e0" stroke="#999999" points="440.88,-19.25 391.12,-19.25 391.12,0 440.88,0 440.88,-19.25"/>
<text text-anchor="middle" x="416" y="-5.75" font-family="Helvetica,sans-Serif" font-size="10.00">unistd.h</text>
</a>
</g>
</g>
<!-- Node10&#45;&gt;Node21 -->
<g id="edge22_Node000010_Node000021" class="edge">
<title>Node10&#45;&gt;Node21</title>
<g id="a_edge22_Node000010_Node000021"><a xlink:title=" ">
<path fill="none" stroke="#63b8ff" d="M416,-55.08C416,-48.57 416,-39.42 416,-31.12"/>
<polygon fill="#63b8ff" stroke="#63b8ff" points="419.5,-31.12 416,-21.12 412.5,-31.12 419.5,-31.12"/>
</a>
</g>
</g>
<!-- Node22 -->
<g id="Node000022" class="node">
<title>Node22</title>
<g id="a_Node000022"><a xlink:title=" ">
<polygon fill="#e0e0e0" stroke="#999999" points="518.75,-19.25 459.25,-19.25 459.25,0 518.75,0 518.75,-19.25"/>
<text text-anchor="middle" x="489" y="-5.75" font-family="Helvetica,sans-Serif" font-size="10.00">sys/wait.h</text>
</a>
</g>
</g>
<!-- Node10&#45;&gt;Node22 -->
<g id="edge23_Node000010_Node000022" class="edge">
<title>Node10&#45;&gt;Node22</title>
<g id="a_edge23_Node000010_Node000022"><a xlink:title=" ">
<path fill="none" stroke="#63b8ff" d="M428.38,-54.84C439.15,-46.99 454.97,-35.45 467.75,-26.12"/>
<polygon fill="#63b8ff" stroke="#63b8ff" points="469.56,-29.14 475.58,-20.42 465.44,-23.48 469.56,-29.14"/>
</a>
</g>
</g>
<!-- Node23 -->
<g id="Node000023" class="node">
<title>Node23</title>
<g id="a_Node000023"><a xlink:title=" ">
<polygon fill="#e0e0e0" stroke="#999999" points="597.12,-19.25 536.88,-19.25 536.88,0 597.12,0 597.12,-19.25"/>
<text text-anchor="middle" x="567" y="-5.75" font-family="Helvetica,sans-Serif" font-size="10.00">sys/prctl.h</text>
</a>
</g>
</g>
<!-- Node10&#45;&gt;Node23 -->
<g id="edge24_Node000010_Node000023" class="edge">
<title>Node10&#45;&gt;Node23</title>
<g id="a_edge24_Node000010_Node000023"><a xlink:title=" ">
<path fill="none" stroke="#63b8ff" d="M441.62,-54.84C466.02,-46.24 503.01,-33.19 530.5,-23.5"/>
<polygon fill="#63b8ff" stroke="#63b8ff" points="531.57,-26.83 539.83,-20.21 529.24,-20.23 531.57,-26.83"/>
</a>
</g>
</g>
</g>
</svg>
