<?xml version="1.0" encoding="UTF-8" standalone="no"?>
<!DOCTYPE svg PUBLIC "-//W3C//DTD SVG 1.1//EN"
 "http://www.w3.org/Graphics/SVG/1.1/DTD/svg11.dtd">
<!-- Generated by graphviz version 9.0.0 (20230911.1827)
 -->
<!-- Title: TChannel.h Pages: 1 -->
<svg width="1211pt" height="193pt"
 viewBox="0.00 0.00 1211.25 193.00" xmlns="http://www.w3.org/2000/svg" xmlns:xlink="http://www.w3.org/1999/xlink">
<g id="graph0" class="graph" transform="scale(1 1) rotate(0) translate(4 189)">
<title>TChannel.h</title>
<!-- Node1 -->
<g id="Node000001" class="node">
<title>Node1</title>
<g id="a_Node000001"><a xlink:title=" ">
<polygon fill="#999999" stroke="#666666" points="781.12,-185 716.38,-185 716.38,-165.75 781.12,-165.75 781.12,-185"/>
<text text-anchor="middle" x="748.75" y="-171.5" font-family="Helvetica,sans-Serif" font-size="10.00">TChannel.h</text>
</a>
</g>
</g>
<!-- Node2 -->
<g id="Node000002" class="node">
<title>Node2</title>
<g id="a_Node000002"><a xlink:title=" ">
<polygon fill="#e0e0e0" stroke="#999999" points="53.5,-19.25 0,-19.25 0,0 53.5,0 53.5,-19.25"/>
<text text-anchor="middle" x="26.75" y="-5.75" font-family="Helvetica,sans-Serif" font-size="10.00">iostream</text>
</a>
</g>
</g>
<!-- Node1&#45;&gt;Node2 -->
<g id="edge1_Node000001_Node000002" class="edge">
<title>Node1&#45;&gt;Node2</title>
<g id="a_edge1_Node000001_Node000002"><a xlink:title=" ">
<path fill="none" stroke="#63b8ff" d="M716.08,-174.05C643.87,-172.67 465.68,-165.58 321.75,-129.75 219.39,-104.27 105.57,-50.51 54.36,-24.84"/>
<polygon fill="#63b8ff" stroke="#63b8ff" points="55.98,-21.74 45.48,-20.35 52.82,-27.99 55.98,-21.74"/>
</a>
</g>
</g>
<!-- Node3 -->
<g id="Node000003" class="node">
<title>Node3</title>
<g id="a_Node000003"><a xlink:title=" ">
<polygon fill="#e0e0e0" stroke="#999999" points="1069.75,-19.25 1029.75,-19.25 1029.75,0 1069.75,0 1069.75,-19.25"/>
<text text-anchor="middle" x="1049.75" y="-5.75" font-family="Helvetica,sans-Serif" font-size="10.00">string</text>
</a>
</g>
</g>
<!-- Node1&#45;&gt;Node3 -->
<g id="edge2_Node000001_Node000003" class="edge">
<title>Node1&#45;&gt;Node3</title>
<g id="a_edge2_Node000001_Node000003"><a xlink:title=" ">
<path fill="none" stroke="#63b8ff" d="M781.39,-173.08C844.42,-169.92 979.7,-159.74 1013.75,-129.75 1042.31,-104.59 1048.61,-57.65 1049.76,-30.81"/>
<polygon fill="#63b8ff" stroke="#63b8ff" points="1053.26,-31.02 1049.96,-20.95 1046.26,-30.88 1053.26,-31.02"/>
</a>
</g>
</g>
<!-- Node4 -->
<g id="Node000004" class="node">
<title>Node4</title>
<g id="a_Node000004"><a xlink:title=" ">
<polygon fill="#e0e0e0" stroke="#999999" points="387.25,-129.75 344.25,-129.75 344.25,-110.5 387.25,-110.5 387.25,-129.75"/>
<text text-anchor="middle" x="365.75" y="-116.25" font-family="Helvetica,sans-Serif" font-size="10.00">cmath</text>
</a>
</g>
</g>
<!-- Node1&#45;&gt;Node4 -->
<g id="edge3_Node000001_Node000004" class="edge">
<title>Node1&#45;&gt;Node4</title>
<g id="a_edge3_Node000001_Node000004"><a xlink:title=" ">
<path fill="none" stroke="#63b8ff" d="M715.98,-171.82C655.28,-166.75 521.16,-153.94 398.72,-129.86"/>
<polygon fill="#63b8ff" stroke="#63b8ff" points="399.65,-126.48 389.15,-127.95 398.27,-133.34 399.65,-126.48"/>
</a>
</g>
</g>
<!-- Node5 -->
<g id="Node000005" class="node">
<title>Node5</title>
<g id="a_Node000005"><a xlink:title=" ">
<polygon fill="#e0e0e0" stroke="#999999" points="444,-129.75 405.5,-129.75 405.5,-110.5 444,-110.5 444,-129.75"/>
<text text-anchor="middle" x="424.75" y="-116.25" font-family="Helvetica,sans-Serif" font-size="10.00">utility</text>
</a>
</g>
</g>
<!-- Node1&#45;&gt;Node5 -->
<g id="edge4_Node000001_Node000005" class="edge">
<title>Node1&#45;&gt;Node5</title>
<g id="a_edge4_Node000001_Node000005"><a xlink:title=" ">
<path fill="none" stroke="#63b8ff" d="M716.17,-170.95C663.43,-165.07 555.94,-151.77 455.28,-129.78"/>
<polygon fill="#63b8ff" stroke="#63b8ff" points="456.31,-126.42 445.79,-127.67 454.79,-133.26 456.31,-126.42"/>
</a>
</g>
</g>
<!-- Node6 -->
<g id="Node000006" class="node">
<title>Node6</title>
<g id="a_Node000006"><a xlink:title=" ">
<polygon fill="#e0e0e0" stroke="#999999" points="545.12,-129.75 462.38,-129.75 462.38,-110.5 545.12,-110.5 545.12,-129.75"/>
<text text-anchor="middle" x="503.75" y="-116.25" font-family="Helvetica,sans-Serif" font-size="10.00">unordered_map</text>
</a>
</g>
</g>
<!-- Node1&#45;&gt;Node6 -->
<g id="edge5_Node000001_Node000006" class="edge">
<title>Node1&#45;&gt;Node6</title>
<g id="a_edge5_Node000001_Node000006"><a xlink:title=" ">
<path fill="none" stroke="#63b8ff" d="M715.96,-167.25C675.16,-158.38 604.97,-143.12 556.55,-132.6"/>
<polygon fill="#63b8ff" stroke="#63b8ff" points="557.34,-129.19 546.83,-130.49 555.86,-136.03 557.34,-129.19"/>
</a>
</g>
</g>
<!-- Node7 -->
<g id="Node000007" class="node">
<title>Node7</title>
<g id="a_Node000007"><a xlink:title=" ">
<polygon fill="#e0e0e0" stroke="#999999" points="624.25,-129.75 563.25,-129.75 563.25,-110.5 624.25,-110.5 624.25,-129.75"/>
<text text-anchor="middle" x="593.75" y="-116.25" font-family="Helvetica,sans-Serif" font-size="10.00">TNamed.h</text>
</a>
</g>
</g>
<!-- Node1&#45;&gt;Node7 -->
<g id="edge6_Node000001_Node000007" class="edge">
<title>Node1&#45;&gt;Node7</title>
<g id="a_edge6_Node000001_Node000007"><a xlink:title=" ">
<path fill="none" stroke="#63b8ff" d="M722.46,-165.34C697.29,-156.7 659.1,-143.57 630.84,-133.87"/>
<polygon fill="#63b8ff" stroke="#63b8ff" points="632.2,-130.63 621.6,-130.69 629.92,-137.25 632.2,-130.63"/>
</a>
</g>
</g>
<!-- Node8 -->
<g id="Node000008" class="node">
<title>Node8</title>
<g id="a_Node000008"><a xlink:title=" ">
<polygon fill="#e0e0e0" stroke="#999999" points="707.5,-129.75 642,-129.75 642,-110.5 707.5,-110.5 707.5,-129.75"/>
<text text-anchor="middle" x="674.75" y="-116.25" font-family="Helvetica,sans-Serif" font-size="10.00">TRandom.h</text>
</a>
</g>
</g>
<!-- Node1&#45;&gt;Node8 -->
<g id="edge7_Node000001_Node000008" class="edge">
<title>Node1&#45;&gt;Node8</title>
<g id="a_edge7_Node000001_Node000008"><a xlink:title=" ">
<path fill="none" stroke="#63b8ff" d="M736.2,-165.34C725.29,-157.49 709.25,-145.95 696.29,-136.62"/>
<polygon fill="#63b8ff" stroke="#63b8ff" points="698.51,-133.91 688.35,-130.91 694.42,-139.59 698.51,-133.91"/>
</a>
</g>
</g>
<!-- Node9 -->
<g id="Node000009" class="node">
<title>Node9</title>
<g id="a_Node000009"><a xlink:title=" ">
<polygon fill="#e0e0e0" stroke="#999999" points="771.75,-129.75 725.75,-129.75 725.75,-110.5 771.75,-110.5 771.75,-129.75"/>
<text text-anchor="middle" x="748.75" y="-116.25" font-family="Helvetica,sans-Serif" font-size="10.00">TList.h</text>
</a>
</g>
</g>
<!-- Node1&#45;&gt;Node9 -->
<g id="edge8_Node000001_Node000009" class="edge">
<title>Node1&#45;&gt;Node9</title>
<g id="a_edge8_Node000001_Node000009"><a xlink:title=" ">
<path fill="none" stroke="#63b8ff" d="M748.75,-165.58C748.75,-159.07 748.75,-149.92 748.75,-141.62"/>
<polygon fill="#63b8ff" stroke="#63b8ff" points="752.25,-141.62 748.75,-131.62 745.25,-141.62 752.25,-141.62"/>
</a>
</g>
</g>
<!-- Node10 -->
<g id="Node000010" class="node">
<title>Node10</title>
<g id="a_Node000010"><a xlink:title=" ">
<polygon fill="#e0e0e0" stroke="#999999" points="839.25,-129.75 790.25,-129.75 790.25,-110.5 839.25,-110.5 839.25,-129.75"/>
<text text-anchor="middle" x="814.75" y="-116.25" font-family="Helvetica,sans-Serif" font-size="10.00">TTree.h</text>
</a>
</g>
</g>
<!-- Node1&#45;&gt;Node10 -->
<g id="edge9_Node000001_Node000010" class="edge">
<title>Node1&#45;&gt;Node10</title>
<g id="a_edge9_Node000001_Node000010"><a xlink:title=" ">
<path fill="none" stroke="#63b8ff" d="M759.95,-165.34C769.49,-157.65 783.42,-146.4 794.86,-137.18"/>
<polygon fill="#63b8ff" stroke="#63b8ff" points="796.96,-139.98 802.54,-130.98 792.56,-134.53 796.96,-139.98"/>
</a>
</g>
</g>
<!-- Node11 -->
<g id="Node000011" class="node">
<title>Node11</title>
<g id="a_Node000011"><a xlink:title=" ">
<polygon fill="#e0e0e0" stroke="#999999" points="912.62,-129.75 856.88,-129.75 856.88,-110.5 912.62,-110.5 912.62,-129.75"/>
<text text-anchor="middle" x="884.75" y="-116.25" font-family="Helvetica,sans-Serif" font-size="10.00">TGraph.h</text>
</a>
</g>
</g>
<!-- Node1&#45;&gt;Node11 -->
<g id="edge10_Node000001_Node000011" class="edge">
<title>Node1&#45;&gt;Node11</title>
<g id="a_edge10_Node000001_Node000011"><a xlink:title=" ">
<path fill="none" stroke="#63b8ff" d="M771.82,-165.34C793.51,-156.85 826.23,-144.04 850.88,-134.39"/>
<polygon fill="#63b8ff" stroke="#63b8ff" points="852.12,-137.66 860.16,-130.75 849.57,-131.14 852.12,-137.66"/>
</a>
</g>
</g>
<!-- Node12 -->
<g id="Node000012" class="node">
<title>Node12</title>
<g id="a_Node000012"><a xlink:href="_t_mnemonic_8h.html" target="_top" xlink:title=" ">
<polygon fill="white" stroke="#666666" points="1005,-129.75 930.5,-129.75 930.5,-110.5 1005,-110.5 1005,-129.75"/>
<text text-anchor="middle" x="967.75" y="-116.25" font-family="Helvetica,sans-Serif" font-size="10.00">TMnemonic.h</text>
</a>
</g>
</g>
<!-- Node1&#45;&gt;Node12 -->
<g id="edge11_Node000001_Node000012" class="edge">
<title>Node1&#45;&gt;Node12</title>
<g id="a_edge11_Node000001_Node000012"><a xlink:title=" ">
<path fill="none" stroke="#63b8ff" d="M780.68,-165.34C817.08,-156.02 876.75,-141.49 918.96,-131.65"/>
<polygon fill="#63b8ff" stroke="#63b8ff" points="919.67,-135.08 928.62,-129.41 918.09,-128.26 919.67,-135.08"/>
</a>
</g>
</g>
<!-- Node16 -->
<g id="Node000016" class="node">
<title>Node16</title>
<g id="a_Node000016"><a xlink:href="_globals_8h.html" target="_top" xlink:title=" ">
<polygon fill="white" stroke="#666666" points="559,-74.5 502.5,-74.5 502.5,-55.25 559,-55.25 559,-74.5"/>
<text text-anchor="middle" x="530.75" y="-61" font-family="Helvetica,sans-Serif" font-size="10.00">Globals.h</text>
</a>
</g>
</g>
<!-- Node1&#45;&gt;Node16 -->
<g id="edge40_Node000001_Node000016" class="edge">
<title>Node1&#45;&gt;Node16</title>
<g id="a_edge40_Node000001_Node000016"><a xlink:title=" ">
<path fill="none" stroke="#63b8ff" d="M715.91,-173.31C622.45,-169.93 360.11,-157.99 334.75,-129.75 288.98,-78.78 421.25,-68.32 490.89,-66.29"/>
<polygon fill="#63b8ff" stroke="#63b8ff" points="490.88,-69.79 500.79,-66.05 490.71,-62.79 490.88,-69.79"/>
</a>
</g>
</g>
<!-- Node30 -->
<g id="Node000030" class="node">
<title>Node30</title>
<g id="a_Node000030"><a xlink:href="_t_priority_value_8h.html" target="_top" xlink:title=" ">
<polygon fill="white" stroke="#666666" points="1159.88,-74.5 1075.62,-74.5 1075.62,-55.25 1159.88,-55.25 1159.88,-74.5"/>
<text text-anchor="middle" x="1117.75" y="-61" font-family="Helvetica,sans-Serif" font-size="10.00">TPriorityValue.h</text>
</a>
</g>
</g>
<!-- Node1&#45;&gt;Node30 -->
<g id="edge41_Node000001_Node000030" class="edge">
<title>Node1&#45;&gt;Node30</title>
<g id="a_edge41_Node000001_Node000030"><a xlink:title=" ">
<path fill="none" stroke="#63b8ff" d="M781.51,-172.57C851.64,-168.26 1013.78,-155.72 1061.75,-129.75 1081.16,-119.24 1097.02,-99.18 1106.84,-84.34"/>
<polygon fill="#63b8ff" stroke="#63b8ff" points="1109.75,-86.28 1112.09,-75.94 1103.82,-82.57 1109.75,-86.28"/>
</a>
</g>
</g>
<!-- Node33 -->
<g id="Node000033" class="node">
<title>Node33</title>
<g id="a_Node000033"><a xlink:title=" ">
<polygon fill="#e0e0e0" stroke="#999999" points="1183.38,-129.75 1114.12,-129.75 1114.12,-110.5 1183.38,-110.5 1183.38,-129.75"/>
<text text-anchor="middle" x="1148.75" y="-116.25" font-family="Helvetica,sans-Serif" font-size="10.00">TClassRef.h</text>
</a>
</g>
</g>
<!-- Node1&#45;&gt;Node33 -->
<g id="edge39_Node000001_Node000033" class="edge">
<title>Node1&#45;&gt;Node33</title>
<g id="a_edge39_Node000001_Node000033"><a xlink:title=" ">
<path fill="none" stroke="#63b8ff" d="M781.24,-170.77C843.28,-163.77 982.84,-147.46 1099.75,-129.75 1100.74,-129.6 1101.74,-129.45 1102.75,-129.29"/>
<polygon fill="#63b8ff" stroke="#63b8ff" points="1102.92,-132.81 1112.23,-127.74 1101.79,-125.9 1102.92,-132.81"/>
</a>
</g>
</g>
<!-- Node12&#45;&gt;Node1 -->
<g id="edge38_Node000012_Node000001" class="edge">
<title>Node12&#45;&gt;Node1</title>
<g id="a_edge38_Node000012_Node000001"><a xlink:title=" ">
<path fill="none" stroke="#63b8ff" d="M935.59,-130.22C897.61,-139.94 834.53,-155.28 792.23,-165.08"/>
<polygon fill="#63b8ff" stroke="#63b8ff" points="791.6,-161.64 782.63,-167.29 793.16,-168.46 791.6,-161.64"/>
</a>
</g>
</g>
<!-- Node12&#45;&gt;Node2 -->
<g id="edge13_Node000012_Node000002" class="edge">
<title>Node12&#45;&gt;Node2</title>
<g id="a_edge13_Node000012_Node000002"><a xlink:title=" ">
<path fill="none" stroke="#63b8ff" d="M930.14,-111.75C927.31,-111.3 924.49,-110.87 921.75,-110.5 732.58,-84.88 683.58,-94.64 493.75,-74.5 305.36,-54.51 254.62,-54.09 65.01,-19.49"/>
<polygon fill="#63b8ff" stroke="#63b8ff" points="65.77,-16.07 55.3,-17.71 64.5,-22.96 65.77,-16.07"/>
</a>
</g>
</g>
<!-- Node12&#45;&gt;Node3 -->
<g id="edge12_Node000012_Node000003" class="edge">
<title>Node12&#45;&gt;Node3</title>
<g id="a_edge12_Node000012_Node000003"><a xlink:title=" ">
<path fill="none" stroke="#63b8ff" d="M974.46,-110.25C987.91,-92.44 1018.42,-52.08 1036.19,-28.56"/>
<polygon fill="#63b8ff" stroke="#63b8ff" points="1038.8,-30.92 1042.03,-20.83 1033.21,-26.7 1038.8,-30.92"/>
</a>
</g>
</g>
<!-- Node13 -->
<g id="Node000013" class="node">
<title>Node13</title>
<g id="a_Node000013"><a xlink:title=" ">
<polygon fill="#e0e0e0" stroke="#999999" points="1011.38,-19.25 960.12,-19.25 960.12,0 1011.38,0 1011.38,-19.25"/>
<text text-anchor="middle" x="985.75" y="-5.75" font-family="Helvetica,sans-Serif" font-size="10.00">sstream</text>
</a>
</g>
</g>
<!-- Node12&#45;&gt;Node13 -->
<g id="edge14_Node000012_Node000013" class="edge">
<title>Node12&#45;&gt;Node13</title>
<g id="a_edge14_Node000012_Node000013"><a xlink:title=" ">
<path fill="none" stroke="#63b8ff" d="M930.17,-110.74C897.26,-102.55 853.1,-89.19 842.75,-74.5 837.82,-67.51 837.68,-62.14 842.75,-55.25 849.22,-46.46 908.66,-30.02 948.85,-19.73"/>
<polygon fill="#63b8ff" stroke="#63b8ff" points="949.56,-23.16 958.39,-17.31 947.84,-16.38 949.56,-23.16"/>
</a>
</g>
</g>
<!-- Node14 -->
<g id="Node000014" class="node">
<title>Node14</title>
<g id="a_Node000014"><a xlink:title=" ">
<polygon fill="#e0e0e0" stroke="#999999" points="981.75,-74.5 923.75,-74.5 923.75,-55.25 981.75,-55.25 981.75,-74.5"/>
<text text-anchor="middle" x="952.75" y="-61" font-family="Helvetica,sans-Serif" font-size="10.00">TObject.h</text>
</a>
</g>
</g>
<!-- Node12&#45;&gt;Node14 -->
<g id="edge15_Node000012_Node000014" class="edge">
<title>Node12&#45;&gt;Node14</title>
<g id="a_edge15_Node000012_Node000014"><a xlink:title=" ">
<path fill="none" stroke="#63b8ff" d="M965.27,-110.33C963.4,-103.67 960.74,-94.24 958.36,-85.78"/>
<polygon fill="#63b8ff" stroke="#63b8ff" points="961.77,-84.99 955.69,-76.32 955.03,-86.89 961.77,-84.99"/>
</a>
</g>
</g>
<!-- Node15 -->
<g id="Node000015" class="node">
<title>Node15</title>
<g id="a_Node000015"><a xlink:title=" ">
<polygon fill="#e0e0e0" stroke="#999999" points="905.88,-74.5 851.62,-74.5 851.62,-55.25 905.88,-55.25 905.88,-74.5"/>
<text text-anchor="middle" x="878.75" y="-61" font-family="Helvetica,sans-Serif" font-size="10.00">TClass.h</text>
</a>
</g>
</g>
<!-- Node12&#45;&gt;Node15 -->
<g id="edge16_Node000012_Node000015" class="edge">
<title>Node12&#45;&gt;Node15</title>
<g id="a_edge16_Node000012_Node000015"><a xlink:title=" ">
<path fill="none" stroke="#63b8ff" d="M952.65,-110.09C939.23,-102.06 919.34,-90.16 903.58,-80.73"/>
<polygon fill="#63b8ff" stroke="#63b8ff" points="905.6,-77.86 895.22,-75.73 902,-83.87 905.6,-77.86"/>
</a>
</g>
</g>
<!-- Node12&#45;&gt;Node16 -->
<g id="edge17_Node000012_Node000016" class="edge">
<title>Node12&#45;&gt;Node16</title>
<g id="a_edge17_Node000012_Node000016"><a xlink:title=" ">
<path fill="none" stroke="#63b8ff" d="M930.13,-111.84C927.3,-111.37 924.48,-110.91 921.75,-110.5 793.75,-91.22 641.06,-76.04 570.33,-69.45"/>
<polygon fill="#63b8ff" stroke="#63b8ff" points="571.08,-66 560.8,-68.56 570.44,-72.97 571.08,-66"/>
</a>
</g>
</g>
<!-- Node12&#45;&gt;Node30 -->
<g id="edge34_Node000012_Node000030" class="edge">
<title>Node12&#45;&gt;Node30</title>
<g id="a_edge34_Node000012_Node000030"><a xlink:title=" ">
<path fill="none" stroke="#63b8ff" d="M993.2,-110.09C1017.44,-101.49 1054.18,-88.44 1081.49,-78.75"/>
<polygon fill="#63b8ff" stroke="#63b8ff" points="1082.5,-82.1 1090.75,-75.46 1080.16,-75.51 1082.5,-82.1"/>
</a>
</g>
</g>
<!-- Node16&#45;&gt;Node2 -->
<g id="edge19_Node000016_Node000002" class="edge">
<title>Node16&#45;&gt;Node2</title>
<g id="a_edge19_Node000016_Node000002"><a xlink:title=" ">
<path fill="none" stroke="#63b8ff" d="M502.08,-62.54C430.19,-58.9 236.36,-47.27 65.04,-19.39"/>
<polygon fill="#63b8ff" stroke="#63b8ff" points="65.72,-15.96 55.29,-17.78 64.58,-22.86 65.72,-15.96"/>
</a>
</g>
</g>
<!-- Node16&#45;&gt;Node3 -->
<g id="edge22_Node000016_Node000003" class="edge">
<title>Node16&#45;&gt;Node3</title>
<g id="a_edge22_Node000016_Node000003"><a xlink:title=" ">
<path fill="none" stroke="#63b8ff" d="M559.47,-63.24C633.89,-61.19 839.09,-52.87 1018.07,-19.4"/>
<polygon fill="#63b8ff" stroke="#63b8ff" points="1018.62,-22.85 1027.79,-17.54 1017.31,-15.98 1018.62,-22.85"/>
</a>
</g>
</g>
<!-- Node16&#45;&gt;Node13 -->
<g id="edge27_Node000016_Node000013" class="edge">
<title>Node16&#45;&gt;Node13</title>
<g id="a_edge27_Node000016_Node000013"><a xlink:title=" ">
<path fill="none" stroke="#63b8ff" d="M559.46,-62.17C626.1,-57.94 796.61,-45.46 948.91,-19.33"/>
<polygon fill="#63b8ff" stroke="#63b8ff" points="949.1,-22.85 958.35,-17.69 947.9,-15.95 949.1,-22.85"/>
</a>
</g>
</g>
<!-- Node17 -->
<g id="Node000017" class="node">
<title>Node17</title>
<g id="a_Node000017"><a xlink:title=" ">
<polygon fill="#e0e0e0" stroke="#999999" points="873.38,-19.25 828.12,-19.25 828.12,0 873.38,0 873.38,-19.25"/>
<text text-anchor="middle" x="850.75" y="-5.75" font-family="Helvetica,sans-Serif" font-size="10.00">cstdint</text>
</a>
</g>
</g>
<!-- Node16&#45;&gt;Node17 -->
<g id="edge18_Node000016_Node000017" class="edge">
<title>Node16&#45;&gt;Node17</title>
<g id="a_edge18_Node000016_Node000017"><a xlink:title=" ">
<path fill="none" stroke="#63b8ff" d="M559.14,-60.52C609.14,-54.4 716.33,-40.27 816.52,-19.51"/>
<polygon fill="#63b8ff" stroke="#63b8ff" points="817.2,-22.94 826.27,-17.46 815.76,-16.09 817.2,-22.94"/>
</a>
</g>
</g>
<!-- Node18 -->
<g id="Node000018" class="node">
<title>Node18</title>
<g id="a_Node000018"><a xlink:title=" ">
<polygon fill="#e0e0e0" stroke="#999999" points="941.62,-19.25 891.88,-19.25 891.88,0 941.62,0 941.62,-19.25"/>
<text text-anchor="middle" x="916.75" y="-5.75" font-family="Helvetica,sans-Serif" font-size="10.00">iomanip</text>
</a>
</g>
</g>
<!-- Node16&#45;&gt;Node18 -->
<g id="edge20_Node000016_Node000018" class="edge">
<title>Node16&#45;&gt;Node18</title>
<g id="a_edge20_Node000016_Node000018"><a xlink:title=" ">
<path fill="none" stroke="#63b8ff" d="M559.22,-61.46C617.58,-56.25 755.14,-42.67 880.28,-19.5"/>
<polygon fill="#63b8ff" stroke="#63b8ff" points="880.91,-22.94 890.09,-17.66 879.61,-16.06 880.91,-22.94"/>
</a>
</g>
</g>
<!-- Node19 -->
<g id="Node000019" class="node">
<title>Node19</title>
<g id="a_Node000019"><a xlink:title=" ">
<polygon fill="#e0e0e0" stroke="#999999" points="129.75,-19.25 71.75,-19.25 71.75,0 129.75,0 129.75,-19.25"/>
<text text-anchor="middle" x="100.75" y="-5.75" font-family="Helvetica,sans-Serif" font-size="10.00">stdexcept</text>
</a>
</g>
</g>
<!-- Node16&#45;&gt;Node19 -->
<g id="edge21_Node000016_Node000019" class="edge">
<title>Node16&#45;&gt;Node19</title>
<g id="a_edge21_Node000016_Node000019"><a xlink:title=" ">
<path fill="none" stroke="#63b8ff" d="M502.07,-61.7C438.74,-56.66 282.03,-42.91 141.12,-19.48"/>
<polygon fill="#63b8ff" stroke="#63b8ff" points="142.08,-16.1 131.64,-17.88 140.92,-23 142.08,-16.1"/>
</a>
</g>
</g>
<!-- Node20 -->
<g id="Node000020" class="node">
<title>Node20</title>
<g id="a_Node000020"><a xlink:title=" ">
<polygon fill="#e0e0e0" stroke="#999999" points="189.88,-19.25 147.62,-19.25 147.62,0 189.88,0 189.88,-19.25"/>
<text text-anchor="middle" x="168.75" y="-5.75" font-family="Helvetica,sans-Serif" font-size="10.00">cstdio</text>
</a>
</g>
</g>
<!-- Node16&#45;&gt;Node20 -->
<g id="edge23_Node000016_Node000020" class="edge">
<title>Node16&#45;&gt;Node20</title>
<g id="a_edge23_Node000016_Node000020"><a xlink:title=" ">
<path fill="none" stroke="#63b8ff" d="M502.09,-61.45C446.08,-56.4 318.07,-43.38 201.53,-19.56"/>
<polygon fill="#63b8ff" stroke="#63b8ff" points="202.27,-16.14 191.77,-17.53 200.84,-23 202.27,-16.14"/>
</a>
</g>
</g>
<!-- Node21 -->
<g id="Node000021" class="node">
<title>Node21</title>
<g id="a_Node000021"><a xlink:title=" ">
<polygon fill="#e0e0e0" stroke="#999999" points="252,-19.25 207.5,-19.25 207.5,0 252,0 252,-19.25"/>
<text text-anchor="middle" x="229.75" y="-5.75" font-family="Helvetica,sans-Serif" font-size="10.00">cstdlib</text>
</a>
</g>
</g>
<!-- Node16&#45;&gt;Node21 -->
<g id="edge24_Node000016_Node000021" class="edge">
<title>Node16&#45;&gt;Node21</title>
<g id="a_edge24_Node000016_Node000021"><a xlink:title=" ">
<path fill="none" stroke="#63b8ff" d="M502.18,-60.18C454.63,-53.82 356.06,-39.69 263.61,-19.69"/>
<polygon fill="#63b8ff" stroke="#63b8ff" points="264.36,-16.27 253.84,-17.54 262.86,-23.11 264.36,-16.27"/>
</a>
</g>
</g>
<!-- Node22 -->
<g id="Node000022" class="node">
<title>Node22</title>
<g id="a_Node000022"><a xlink:title=" ">
<polygon fill="#e0e0e0" stroke="#999999" points="329.5,-19.25 270,-19.25 270,0 329.5,0 329.5,-19.25"/>
<text text-anchor="middle" x="299.75" y="-5.75" font-family="Helvetica,sans-Serif" font-size="10.00">execinfo.h</text>
</a>
</g>
</g>
<!-- Node16&#45;&gt;Node22 -->
<g id="edge25_Node000016_Node000022" class="edge">
<title>Node16&#45;&gt;Node22</title>
<g id="a_edge25_Node000016_Node000022"><a xlink:title=" ">
<path fill="none" stroke="#63b8ff" d="M502.42,-57.35C462,-48.03 387.5,-30.85 340.96,-20.13"/>
<polygon fill="#63b8ff" stroke="#63b8ff" points="341.78,-16.72 331.25,-17.89 340.2,-23.54 341.78,-16.72"/>
</a>
</g>
</g>
<!-- Node23 -->
<g id="Node000023" class="node">
<title>Node23</title>
<g id="a_Node000023"><a xlink:title=" ">
<polygon fill="#e0e0e0" stroke="#999999" points="398,-19.25 347.5,-19.25 347.5,0 398,0 398,-19.25"/>
<text text-anchor="middle" x="372.75" y="-5.75" font-family="Helvetica,sans-Serif" font-size="10.00">cxxabi.h</text>
</a>
</g>
</g>
<!-- Node16&#45;&gt;Node23 -->
<g id="edge26_Node000016_Node000023" class="edge">
<title>Node16&#45;&gt;Node23</title>
<g id="a_edge26_Node000016_Node000023"><a xlink:title=" ">
<path fill="none" stroke="#63b8ff" d="M503.95,-54.84C477.91,-46.07 438.18,-32.68 409.26,-22.93"/>
<polygon fill="#63b8ff" stroke="#63b8ff" points="410.4,-19.62 399.81,-19.74 408.17,-26.25 410.4,-19.62"/>
</a>
</g>
</g>
<!-- Node24 -->
<g id="Node000024" class="node">
<title>Node24</title>
<g id="a_Node000024"><a xlink:title=" ">
<polygon fill="#e0e0e0" stroke="#999999" points="453.25,-19.25 416.25,-19.25 416.25,0 453.25,0 453.25,-19.25"/>
<text text-anchor="middle" x="434.75" y="-5.75" font-family="Helvetica,sans-Serif" font-size="10.00">array</text>
</a>
</g>
</g>
<!-- Node16&#45;&gt;Node24 -->
<g id="edge28_Node000016_Node000024" class="edge">
<title>Node16&#45;&gt;Node24</title>
<g id="a_edge28_Node000016_Node000024"><a xlink:title=" ">
<path fill="none" stroke="#63b8ff" d="M514.46,-54.84C499.85,-46.73 478.12,-34.68 461.04,-25.21"/>
<polygon fill="#63b8ff" stroke="#63b8ff" points="462.88,-22.23 452.44,-20.44 459.49,-28.35 462.88,-22.23"/>
</a>
</g>
</g>
<!-- Node25 -->
<g id="Node000025" class="node">
<title>Node25</title>
<g id="a_Node000025"><a xlink:title=" ">
<polygon fill="#e0e0e0" stroke="#999999" points="522,-19.25 471.5,-19.25 471.5,0 522,0 522,-19.25"/>
<text text-anchor="middle" x="496.75" y="-5.75" font-family="Helvetica,sans-Serif" font-size="10.00">memory</text>
</a>
</g>
</g>
<!-- Node16&#45;&gt;Node25 -->
<g id="edge29_Node000016_Node000025" class="edge">
<title>Node16&#45;&gt;Node25</title>
<g id="a_edge29_Node000016_Node000025"><a xlink:title=" ">
<path fill="none" stroke="#63b8ff" d="M525.14,-55.08C520.63,-48.03 514.16,-37.9 508.54,-29.08"/>
<polygon fill="#63b8ff" stroke="#63b8ff" points="511.63,-27.43 503.3,-20.88 505.73,-31.2 511.63,-27.43"/>
</a>
</g>
</g>
<!-- Node26 -->
<g id="Node000026" class="node">
<title>Node26</title>
<g id="a_Node000026"><a xlink:title=" ">
<polygon fill="#e0e0e0" stroke="#999999" points="589.62,-19.25 539.88,-19.25 539.88,0 589.62,0 589.62,-19.25"/>
<text text-anchor="middle" x="564.75" y="-5.75" font-family="Helvetica,sans-Serif" font-size="10.00">unistd.h</text>
</a>
</g>
</g>
<!-- Node16&#45;&gt;Node26 -->
<g id="edge30_Node000016_Node000026" class="edge">
<title>Node16&#45;&gt;Node26</title>
<g id="a_edge30_Node000016_Node000026"><a xlink:title=" ">
<path fill="none" stroke="#63b8ff" d="M536.36,-55.08C540.87,-48.03 547.34,-37.9 552.96,-29.08"/>
<polygon fill="#63b8ff" stroke="#63b8ff" points="555.77,-31.2 558.2,-20.88 549.87,-27.43 555.77,-31.2"/>
</a>
</g>
</g>
<!-- Node27 -->
<g id="Node000027" class="node">
<title>Node27</title>
<g id="a_Node000027"><a xlink:title=" ">
<polygon fill="#e0e0e0" stroke="#999999" points="653.75,-19.25 607.75,-19.25 607.75,0 653.75,0 653.75,-19.25"/>
<text text-anchor="middle" x="630.75" y="-5.75" font-family="Helvetica,sans-Serif" font-size="10.00">TEnv.h</text>
</a>
</g>
</g>
<!-- Node16&#45;&gt;Node27 -->
<g id="edge31_Node000016_Node000027" class="edge">
<title>Node16&#45;&gt;Node27</title>
<g id="a_edge31_Node000016_Node000027"><a xlink:title=" ">
<path fill="none" stroke="#63b8ff" d="M547.71,-54.84C563.01,-46.69 585.78,-34.57 603.61,-25.08"/>
<polygon fill="#63b8ff" stroke="#63b8ff" points="605.19,-28.2 612.37,-20.41 601.9,-22.02 605.19,-28.2"/>
</a>
</g>
</g>
<!-- Node28 -->
<g id="Node000028" class="node">
<title>Node28</title>
<g id="a_Node000028"><a xlink:title=" ">
<polygon fill="#e0e0e0" stroke="#999999" points="731.5,-19.25 672,-19.25 672,0 731.5,0 731.5,-19.25"/>
<text text-anchor="middle" x="701.75" y="-5.75" font-family="Helvetica,sans-Serif" font-size="10.00">sys/wait.h</text>
</a>
</g>
</g>
<!-- Node16&#45;&gt;Node28 -->
<g id="edge32_Node000016_Node000028" class="edge">
<title>Node16&#45;&gt;Node28</title>
<g id="a_edge32_Node000016_Node000028"><a xlink:title=" ">
<path fill="none" stroke="#63b8ff" d="M559.37,-54.96C587.44,-46.22 630.47,-32.82 661.88,-23.04"/>
<polygon fill="#63b8ff" stroke="#63b8ff" points="662.51,-26.51 671.02,-20.2 660.43,-19.83 662.51,-26.51"/>
</a>
</g>
</g>
<!-- Node29 -->
<g id="Node000029" class="node">
<title>Node29</title>
<g id="a_Node000029"><a xlink:title=" ">
<polygon fill="#e0e0e0" stroke="#999999" points="809.88,-19.25 749.62,-19.25 749.62,0 809.88,0 809.88,-19.25"/>
<text text-anchor="middle" x="779.75" y="-5.75" font-family="Helvetica,sans-Serif" font-size="10.00">sys/prctl.h</text>
</a>
</g>
</g>
<!-- Node16&#45;&gt;Node29 -->
<g id="edge33_Node000016_Node000029" class="edge">
<title>Node16&#45;&gt;Node29</title>
<g id="a_edge33_Node000016_Node000029"><a xlink:title=" ">
<path fill="none" stroke="#63b8ff" d="M559.3,-57.89C597.66,-49.82 668.27,-34.92 738.29,-19.77"/>
<polygon fill="#63b8ff" stroke="#63b8ff" points="739.01,-23.19 748.04,-17.66 737.53,-16.35 739.01,-23.19"/>
</a>
</g>
</g>
<!-- Node30&#45;&gt;Node3 -->
<g id="edge36_Node000030_Node000003" class="edge">
<title>Node30&#45;&gt;Node3</title>
<g id="a_edge36_Node000030_Node000003"><a xlink:title=" ">
<path fill="none" stroke="#63b8ff" d="M1106.21,-54.84C1096.29,-47.07 1081.74,-35.67 1069.89,-26.4"/>
<polygon fill="#63b8ff" stroke="#63b8ff" points="1072.34,-23.87 1062.31,-20.46 1068.02,-29.38 1072.34,-23.87"/>
</a>
</g>
</g>
<!-- Node31 -->
<g id="Node000031" class="node">
<title>Node31</title>
<g id="a_Node000031"><a xlink:title=" ">
<polygon fill="#e0e0e0" stroke="#999999" points="1142.38,-19.25 1091.12,-19.25 1091.12,0 1142.38,0 1142.38,-19.25"/>
<text text-anchor="middle" x="1116.75" y="-5.75" font-family="Helvetica,sans-Serif" font-size="10.00">ostream</text>
</a>
</g>
</g>
<!-- Node30&#45;&gt;Node31 -->
<g id="edge35_Node000030_Node000031" class="edge">
<title>Node30&#45;&gt;Node31</title>
<g id="a_edge35_Node000030_Node000031"><a xlink:title=" ">
<path fill="none" stroke="#63b8ff" d="M1117.58,-55.08C1117.46,-48.57 1117.29,-39.42 1117.13,-31.12"/>
<polygon fill="#63b8ff" stroke="#63b8ff" points="1120.63,-31.05 1116.95,-21.12 1113.64,-31.19 1120.63,-31.05"/>
</a>
</g>
</g>
<!-- Node32 -->
<g id="Node000032" class="node">
<title>Node32</title>
<g id="a_Node000032"><a xlink:title=" ">
<polygon fill="#e0e0e0" stroke="#999999" points="1203.25,-19.25 1160.25,-19.25 1160.25,0 1203.25,0 1203.25,-19.25"/>
<text text-anchor="middle" x="1181.75" y="-5.75" font-family="Helvetica,sans-Serif" font-size="10.00">vector</text>
</a>
</g>
</g>
<!-- Node30&#45;&gt;Node32 -->
<g id="edge37_Node000030_Node000032" class="edge">
<title>Node30&#45;&gt;Node32</title>
<g id="a_edge37_Node000030_Node000032"><a xlink:title=" ">
<path fill="none" stroke="#63b8ff" d="M1128.61,-54.84C1137.86,-47.15 1151.37,-35.9 1162.46,-26.68"/>
<polygon fill="#63b8ff" stroke="#63b8ff" points="1164.44,-29.58 1169.89,-20.49 1159.96,-24.2 1164.44,-29.58"/>
</a>
</g>
</g>
</g>
</svg>
