<?xml version="1.0" encoding="UTF-8" standalone="no"?>
<!DOCTYPE svg PUBLIC "-//W3C//DTD SVG 1.1//EN"
 "http://www.w3.org/Graphics/SVG/1.1/DTD/svg11.dtd">
<!-- Generated by graphviz version 9.0.0 (20230911.1827)
 -->
<!-- Title: TChannel.h Pages: 1 -->
<svg width="1901pt" height="193pt"
 viewBox="0.00 0.00 1900.88 193.00" xmlns="http://www.w3.org/2000/svg" xmlns:xlink="http://www.w3.org/1999/xlink">
<g id="graph0" class="graph" transform="scale(1 1) rotate(0) translate(4 189)">
<title>TChannel.h</title>
<!-- Node1 -->
<g id="Node000001" class="node">
<title>Node1</title>
<g id="a_Node000001"><a xlink:title=" ">
<polygon fill="#999999" stroke="#666666" points="1349.62,-185 1284.88,-185 1284.88,-165.75 1349.62,-165.75 1349.62,-185"/>
<text text-anchor="middle" x="1317.25" y="-171.5" font-family="Helvetica,sans-Serif" font-size="10.00">TChannel.h</text>
</a>
</g>
</g>
<!-- Node2 -->
<g id="Node000002" class="node">
<title>Node2</title>
<g id="a_Node000002"><a xlink:title=" ">
<polygon fill="#e0e0e0" stroke="#999999" points="1138,-19.25 1084.5,-19.25 1084.5,0 1138,0 1138,-19.25"/>
<text text-anchor="middle" x="1111.25" y="-5.75" font-family="Helvetica,sans-Serif" font-size="10.00">iostream</text>
</a>
</g>
</g>
<!-- Node1&#45;&gt;Node2 -->
<g id="edge1_Node000001_Node000002" class="edge">
<title>Node1&#45;&gt;Node2</title>
<g id="a_edge1_Node000001_Node000002"><a xlink:title=" ">
<path fill="none" stroke="#63b8ff" d="M1284.49,-173C1226.84,-169.82 1111.01,-159.76 1086.25,-129.75 1062.36,-100.8 1083.66,-54.67 1098.94,-29.14"/>
<polygon fill="#63b8ff" stroke="#63b8ff" points="1101.79,-31.18 1104.16,-20.85 1095.87,-27.45 1101.79,-31.18"/>
</a>
</g>
</g>
<!-- Node3 -->
<g id="Node000003" class="node">
<title>Node3</title>
<g id="a_Node000003"><a xlink:title=" ">
<polygon fill="#e0e0e0" stroke="#999999" points="1196.25,-19.25 1156.25,-19.25 1156.25,0 1196.25,0 1196.25,-19.25"/>
<text text-anchor="middle" x="1176.25" y="-5.75" font-family="Helvetica,sans-Serif" font-size="10.00">string</text>
</a>
</g>
</g>
<!-- Node1&#45;&gt;Node3 -->
<g id="edge2_Node000001_Node000003" class="edge">
<title>Node1&#45;&gt;Node3</title>
<g id="a_edge2_Node000001_Node000003"><a xlink:title=" ">
<path fill="none" stroke="#63b8ff" d="M1284.72,-172.66C1229.36,-169 1120.56,-158.26 1097.25,-129.75 1068.78,-94.93 1120.23,-49.7 1152.7,-26.26"/>
<polygon fill="#63b8ff" stroke="#63b8ff" points="1154.62,-29.18 1160.81,-20.58 1150.61,-23.44 1154.62,-29.18"/>
</a>
</g>
</g>
<!-- Node4 -->
<g id="Node000004" class="node">
<title>Node4</title>
<g id="a_Node000004"><a xlink:title=" ">
<polygon fill="#e0e0e0" stroke="#999999" points="1279.75,-129.75 1236.75,-129.75 1236.75,-110.5 1279.75,-110.5 1279.75,-129.75"/>
<text text-anchor="middle" x="1258.25" y="-116.25" font-family="Helvetica,sans-Serif" font-size="10.00">cmath</text>
</a>
</g>
</g>
<!-- Node1&#45;&gt;Node4 -->
<g id="edge3_Node000001_Node000004" class="edge">
<title>Node1&#45;&gt;Node4</title>
<g id="a_edge3_Node000001_Node000004"><a xlink:title=" ">
<path fill="none" stroke="#63b8ff" d="M1307.24,-165.34C1298.88,-157.8 1286.75,-146.85 1276.65,-137.73"/>
<polygon fill="#63b8ff" stroke="#63b8ff" points="1279,-135.14 1269.23,-131.04 1274.31,-140.34 1279,-135.14"/>
</a>
</g>
</g>
<!-- Node5 -->
<g id="Node000005" class="node">
<title>Node5</title>
<g id="a_Node000005"><a xlink:title=" ">
<polygon fill="#e0e0e0" stroke="#999999" points="1336.5,-129.75 1298,-129.75 1298,-110.5 1336.5,-110.5 1336.5,-129.75"/>
<text text-anchor="middle" x="1317.25" y="-116.25" font-family="Helvetica,sans-Serif" font-size="10.00">utility</text>
</a>
</g>
</g>
<!-- Node1&#45;&gt;Node5 -->
<g id="edge4_Node000001_Node000005" class="edge">
<title>Node1&#45;&gt;Node5</title>
<g id="a_edge4_Node000001_Node000005"><a xlink:title=" ">
<path fill="none" stroke="#63b8ff" d="M1317.25,-165.58C1317.25,-159.07 1317.25,-149.92 1317.25,-141.62"/>
<polygon fill="#63b8ff" stroke="#63b8ff" points="1320.75,-141.62 1317.25,-131.62 1313.75,-141.62 1320.75,-141.62"/>
</a>
</g>
</g>
<!-- Node6 -->
<g id="Node000006" class="node">
<title>Node6</title>
<g id="a_Node000006"><a xlink:title=" ">
<polygon fill="#e0e0e0" stroke="#999999" points="1437.62,-129.75 1354.88,-129.75 1354.88,-110.5 1437.62,-110.5 1437.62,-129.75"/>
<text text-anchor="middle" x="1396.25" y="-116.25" font-family="Helvetica,sans-Serif" font-size="10.00">unordered_map</text>
</a>
</g>
</g>
<!-- Node1&#45;&gt;Node6 -->
<g id="edge5_Node000001_Node000006" class="edge">
<title>Node1&#45;&gt;Node6</title>
<g id="a_edge5_Node000001_Node000006"><a xlink:title=" ">
<path fill="none" stroke="#63b8ff" d="M1330.65,-165.34C1342.34,-157.46 1359.55,-145.86 1373.41,-136.52"/>
<polygon fill="#63b8ff" stroke="#63b8ff" points="1375.19,-139.54 1381.53,-131.05 1371.28,-133.74 1375.19,-139.54"/>
</a>
</g>
</g>
<!-- Node7 -->
<g id="Node000007" class="node">
<title>Node7</title>
<g id="a_Node000007"><a xlink:title=" ">
<polygon fill="#e0e0e0" stroke="#999999" points="1516.75,-129.75 1455.75,-129.75 1455.75,-110.5 1516.75,-110.5 1516.75,-129.75"/>
<text text-anchor="middle" x="1486.25" y="-116.25" font-family="Helvetica,sans-Serif" font-size="10.00">TNamed.h</text>
</a>
</g>
</g>
<!-- Node1&#45;&gt;Node7 -->
<g id="edge6_Node000001_Node000007" class="edge">
<title>Node1&#45;&gt;Node7</title>
<g id="a_edge6_Node000001_Node000007"><a xlink:title=" ">
<path fill="none" stroke="#63b8ff" d="M1345.92,-165.34C1373.6,-156.62 1415.74,-143.34 1446.62,-133.61"/>
<polygon fill="#63b8ff" stroke="#63b8ff" points="1447.51,-137 1456,-130.66 1445.41,-130.32 1447.51,-137"/>
</a>
</g>
</g>
<!-- Node8 -->
<g id="Node000008" class="node">
<title>Node8</title>
<g id="a_Node000008"><a xlink:title=" ">
<polygon fill="#e0e0e0" stroke="#999999" points="1600,-129.75 1534.5,-129.75 1534.5,-110.5 1600,-110.5 1600,-129.75"/>
<text text-anchor="middle" x="1567.25" y="-116.25" font-family="Helvetica,sans-Serif" font-size="10.00">TRandom.h</text>
</a>
</g>
</g>
<!-- Node1&#45;&gt;Node8 -->
<g id="edge7_Node000001_Node000008" class="edge">
<title>Node1&#45;&gt;Node8</title>
<g id="a_edge7_Node000001_Node000008"><a xlink:title=" ">
<path fill="none" stroke="#63b8ff" d="M1349.93,-167.41C1394.26,-157.97 1473.58,-141.08 1523.15,-130.52"/>
<polygon fill="#63b8ff" stroke="#63b8ff" points="1523.63,-133.99 1532.68,-128.49 1522.17,-127.15 1523.63,-133.99"/>
</a>
</g>
</g>
<!-- Node9 -->
<g id="Node000009" class="node">
<title>Node9</title>
<g id="a_Node000009"><a xlink:title=" ">
<polygon fill="#e0e0e0" stroke="#999999" points="1664.25,-129.75 1618.25,-129.75 1618.25,-110.5 1664.25,-110.5 1664.25,-129.75"/>
<text text-anchor="middle" x="1641.25" y="-116.25" font-family="Helvetica,sans-Serif" font-size="10.00">TList.h</text>
</a>
</g>
</g>
<!-- Node1&#45;&gt;Node9 -->
<g id="edge8_Node000001_Node000009" class="edge">
<title>Node1&#45;&gt;Node9</title>
<g id="a_edge8_Node000001_Node000009"><a xlink:title=" ">
<path fill="none" stroke="#63b8ff" d="M1349.87,-170.6C1402.1,-164.29 1507.9,-150.45 1606.81,-130.06"/>
<polygon fill="#63b8ff" stroke="#63b8ff" points="1607.35,-133.52 1616.42,-128.05 1605.92,-126.67 1607.35,-133.52"/>
</a>
</g>
</g>
<!-- Node10 -->
<g id="Node000010" class="node">
<title>Node10</title>
<g id="a_Node000010"><a xlink:title=" ">
<polygon fill="#e0e0e0" stroke="#999999" points="1731.75,-129.75 1682.75,-129.75 1682.75,-110.5 1731.75,-110.5 1731.75,-129.75"/>
<text text-anchor="middle" x="1707.25" y="-116.25" font-family="Helvetica,sans-Serif" font-size="10.00">TTree.h</text>
</a>
</g>
</g>
<!-- Node1&#45;&gt;Node10 -->
<g id="edge9_Node000001_Node000010" class="edge">
<title>Node1&#45;&gt;Node10</title>
<g id="a_edge9_Node000001_Node000010"><a xlink:title=" ">
<path fill="none" stroke="#63b8ff" d="M1349.86,-171.65C1410.92,-166.25 1546.85,-152.86 1671.22,-129.9"/>
<polygon fill="#63b8ff" stroke="#63b8ff" points="1671.78,-133.36 1680.96,-128.07 1670.49,-126.48 1671.78,-133.36"/>
</a>
</g>
</g>
<!-- Node11 -->
<g id="Node000011" class="node">
<title>Node11</title>
<g id="a_Node000011"><a xlink:title=" ">
<polygon fill="#e0e0e0" stroke="#999999" points="1805.12,-129.75 1749.38,-129.75 1749.38,-110.5 1805.12,-110.5 1805.12,-129.75"/>
<text text-anchor="middle" x="1777.25" y="-116.25" font-family="Helvetica,sans-Serif" font-size="10.00">TGraph.h</text>
</a>
</g>
</g>
<!-- Node1&#45;&gt;Node11 -->
<g id="edge10_Node000001_Node000011" class="edge">
<title>Node1&#45;&gt;Node11</title>
<g id="a_edge10_Node000001_Node000011"><a xlink:title=" ">
<path fill="none" stroke="#63b8ff" d="M1349.9,-172.39C1419.54,-167.86 1587.95,-155.24 1737.81,-130.16"/>
<polygon fill="#63b8ff" stroke="#63b8ff" points="1738.26,-133.64 1747.53,-128.51 1737.09,-126.73 1738.26,-133.64"/>
</a>
</g>
</g>
<!-- Node12 -->
<g id="Node000012" class="node">
<title>Node12</title>
<g id="a_Node000012"><a xlink:href="_t_mnemonic_8h.html" target="_top" xlink:title=" ">
<polygon fill="white" stroke="#666666" points="1180.5,-129.75 1106,-129.75 1106,-110.5 1180.5,-110.5 1180.5,-129.75"/>
<text text-anchor="middle" x="1143.25" y="-116.25" font-family="Helvetica,sans-Serif" font-size="10.00">TMnemonic.h</text>
</a>
</g>
</g>
<!-- Node1&#45;&gt;Node12 -->
<g id="edge11_Node000001_Node000012" class="edge">
<title>Node1&#45;&gt;Node12</title>
<g id="a_edge11_Node000001_Node000012"><a xlink:title=" ">
<path fill="none" stroke="#63b8ff" d="M1284.59,-165.94C1254.33,-157.27 1209.63,-143.66 1178.57,-133.72"/>
<polygon fill="#63b8ff" stroke="#63b8ff" points="1179.82,-130.45 1169.23,-130.7 1177.67,-137.11 1179.82,-130.45"/>
</a>
</g>
</g>
<!-- Node15 -->
<g id="Node000015" class="node">
<title>Node15</title>
<g id="a_Node000015"><a xlink:href="_globals_8h.html" target="_top" xlink:title=" ">
<polygon fill="white" stroke="#666666" points="683.5,-74.5 627,-74.5 627,-55.25 683.5,-55.25 683.5,-74.5"/>
<text text-anchor="middle" x="655.25" y="-61" font-family="Helvetica,sans-Serif" font-size="10.00">Globals.h</text>
</a>
</g>
</g>
<!-- Node1&#45;&gt;Node15 -->
<g id="edge40_Node000001_Node000015" class="edge">
<title>Node1&#45;&gt;Node15</title>
<g id="a_edge40_Node000001_Node000015"><a xlink:title=" ">
<path fill="none" stroke="#63b8ff" d="M1284.8,-169.73C1230.29,-161.88 1116.92,-145.31 1021.25,-129.75 902.33,-110.41 762.1,-85.29 694.97,-73.12"/>
<polygon fill="#63b8ff" stroke="#63b8ff" points="695.64,-69.68 685.18,-71.34 694.39,-76.57 695.64,-69.68"/>
</a>
</g>
</g>
<!-- Node32 -->
<g id="Node000032" class="node">
<title>Node32</title>
<g id="a_Node000032"><a xlink:href="_t_priority_value_8h.html" target="_top" xlink:title=" ">
<polygon fill="white" stroke="#666666" points="1409.38,-74.5 1325.12,-74.5 1325.12,-55.25 1409.38,-55.25 1409.38,-74.5"/>
<text text-anchor="middle" x="1367.25" y="-61" font-family="Helvetica,sans-Serif" font-size="10.00">TPriorityValue.h</text>
</a>
</g>
</g>
<!-- Node1&#45;&gt;Node32 -->
<g id="edge41_Node000001_Node000032" class="edge">
<title>Node1&#45;&gt;Node32</title>
<g id="a_edge41_Node000001_Node000032"><a xlink:title=" ">
<path fill="none" stroke="#63b8ff" d="M1284.44,-165.67C1251.64,-155.3 1208.54,-136.1 1227.25,-110.5 1237.81,-96.05 1278.85,-84.03 1313.79,-76.13"/>
<polygon fill="#63b8ff" stroke="#63b8ff" points="1314.37,-79.58 1323.39,-74.03 1312.88,-72.74 1314.37,-79.58"/>
</a>
</g>
</g>
<!-- Node34 -->
<g id="Node000034" class="node">
<title>Node34</title>
<g id="a_Node000034"><a xlink:title=" ">
<polygon fill="#e0e0e0" stroke="#999999" points="1892.88,-129.75 1823.62,-129.75 1823.62,-110.5 1892.88,-110.5 1892.88,-129.75"/>
<text text-anchor="middle" x="1858.25" y="-116.25" font-family="Helvetica,sans-Serif" font-size="10.00">TClassRef.h</text>
</a>
</g>
</g>
<!-- Node1&#45;&gt;Node34 -->
<g id="edge39_Node000001_Node000034" class="edge">
<title>Node1&#45;&gt;Node34</title>
<g id="a_edge39_Node000001_Node000034"><a xlink:title=" ">
<path fill="none" stroke="#63b8ff" d="M1349.95,-172.62C1428.01,-168.18 1631.57,-155.11 1811.94,-129.93"/>
<polygon fill="#63b8ff" stroke="#63b8ff" points="1812.33,-133.41 1821.74,-128.54 1811.35,-126.48 1812.33,-133.41"/>
</a>
</g>
</g>
<!-- Node12&#45;&gt;Node1 -->
<g id="edge38_Node000012_Node000001" class="edge">
<title>Node12&#45;&gt;Node1</title>
<g id="a_edge38_Node000012_Node000001"><a xlink:title=" ">
<path fill="none" stroke="#63b8ff" d="M1178.14,-130.2C1208.36,-138.9 1251.71,-152.1 1282.02,-161.81"/>
<polygon fill="#63b8ff" stroke="#63b8ff" points="1280.92,-165.13 1291.51,-164.88 1283.07,-158.47 1280.92,-165.13"/>
</a>
</g>
</g>
<!-- Node12&#45;&gt;Node2 -->
<g id="edge13_Node000012_Node000002" class="edge">
<title>Node12&#45;&gt;Node2</title>
<g id="a_edge13_Node000012_Node000002"><a xlink:title=" ">
<path fill="none" stroke="#63b8ff" d="M1140.63,-110.25C1135.52,-92.92 1124.11,-54.23 1117.11,-30.49"/>
<polygon fill="#63b8ff" stroke="#63b8ff" points="1120.52,-29.68 1114.33,-21.08 1113.8,-31.66 1120.52,-29.68"/>
</a>
</g>
</g>
<!-- Node12&#45;&gt;Node3 -->
<g id="edge12_Node000012_Node000003" class="edge">
<title>Node12&#45;&gt;Node3</title>
<g id="a_edge12_Node000012_Node000003"><a xlink:title=" ">
<path fill="none" stroke="#63b8ff" d="M1145.95,-110.25C1151.22,-92.92 1162.99,-54.23 1170.21,-30.49"/>
<polygon fill="#63b8ff" stroke="#63b8ff" points="1173.51,-31.66 1173.07,-21.07 1166.81,-29.62 1173.51,-31.66"/>
</a>
</g>
</g>
<!-- Node13 -->
<g id="Node000013" class="node">
<title>Node13</title>
<g id="a_Node000013"><a xlink:title=" ">
<polygon fill="#e0e0e0" stroke="#999999" points="1235.25,-74.5 1177.25,-74.5 1177.25,-55.25 1235.25,-55.25 1235.25,-74.5"/>
<text text-anchor="middle" x="1206.25" y="-61" font-family="Helvetica,sans-Serif" font-size="10.00">TObject.h</text>
</a>
</g>
</g>
<!-- Node12&#45;&gt;Node13 -->
<g id="edge14_Node000012_Node000013" class="edge">
<title>Node12&#45;&gt;Node13</title>
<g id="a_edge14_Node000012_Node000013"><a xlink:title=" ">
<path fill="none" stroke="#63b8ff" d="M1153.94,-110.09C1162.95,-102.47 1176.08,-91.37 1186.93,-82.2"/>
<polygon fill="#63b8ff" stroke="#63b8ff" points="1189.19,-84.88 1194.56,-75.75 1184.67,-79.53 1189.19,-84.88"/>
</a>
</g>
</g>
<!-- Node14 -->
<g id="Node000014" class="node">
<title>Node14</title>
<g id="a_Node000014"><a xlink:title=" ">
<polygon fill="#e0e0e0" stroke="#999999" points="1307.38,-74.5 1253.12,-74.5 1253.12,-55.25 1307.38,-55.25 1307.38,-74.5"/>
<text text-anchor="middle" x="1280.25" y="-61" font-family="Helvetica,sans-Serif" font-size="10.00">TClass.h</text>
</a>
</g>
</g>
<!-- Node12&#45;&gt;Node14 -->
<g id="edge15_Node000012_Node000014" class="edge">
<title>Node12&#45;&gt;Node14</title>
<g id="a_edge15_Node000012_Node000014"><a xlink:title=" ">
<path fill="none" stroke="#63b8ff" d="M1166.49,-110.09C1188.44,-101.56 1221.6,-88.67 1246.46,-79.01"/>
<polygon fill="#63b8ff" stroke="#63b8ff" points="1247.43,-82.39 1255.49,-75.5 1244.9,-75.86 1247.43,-82.39"/>
</a>
</g>
</g>
<!-- Node12&#45;&gt;Node15 -->
<g id="edge16_Node000012_Node000015" class="edge">
<title>Node12&#45;&gt;Node15</title>
<g id="a_edge16_Node000012_Node000015"><a xlink:title=" ">
<path fill="none" stroke="#63b8ff" d="M1105.77,-115.03C1015.75,-105.21 787.99,-80.36 695.36,-70.25"/>
<polygon fill="#63b8ff" stroke="#63b8ff" points="695.81,-66.78 685.49,-69.17 695.05,-73.74 695.81,-66.78"/>
</a>
</g>
</g>
<!-- Node12&#45;&gt;Node32 -->
<g id="edge35_Node000012_Node000032" class="edge">
<title>Node12&#45;&gt;Node32</title>
<g id="a_edge35_Node000012_Node000032"><a xlink:title=" ">
<path fill="none" stroke="#63b8ff" d="M1181,-110.15C1218.61,-101.21 1276.55,-87.44 1317.81,-77.63"/>
<polygon fill="#63b8ff" stroke="#63b8ff" points="1318.58,-81.04 1327.5,-75.32 1316.96,-74.23 1318.58,-81.04"/>
</a>
</g>
</g>
<!-- Node15&#45;&gt;Node2 -->
<g id="edge18_Node000015_Node000002" class="edge">
<title>Node15&#45;&gt;Node2</title>
<g id="a_edge18_Node000015_Node000002"><a xlink:title=" ">
<path fill="none" stroke="#63b8ff" d="M683.94,-62.11C750.57,-57.74 921.03,-45 1073.27,-19.37"/>
<polygon fill="#63b8ff" stroke="#63b8ff" points="1073.44,-22.89 1082.71,-17.76 1072.26,-15.99 1073.44,-22.89"/>
</a>
</g>
</g>
<!-- Node15&#45;&gt;Node3 -->
<g id="edge21_Node000015_Node000003" class="edge">
<title>Node15&#45;&gt;Node3</title>
<g id="a_edge21_Node000015_Node000003"><a xlink:title=" ">
<path fill="none" stroke="#63b8ff" d="M683.81,-63.26C758.3,-61.25 964.62,-53.01 1144.52,-19.41"/>
<polygon fill="#63b8ff" stroke="#63b8ff" points="1145.12,-22.85 1154.29,-17.54 1143.81,-15.98 1145.12,-22.85"/>
</a>
</g>
</g>
<!-- Node16 -->
<g id="Node000016" class="node">
<title>Node16</title>
<g id="a_Node000016"><a xlink:title=" ">
<polygon fill="#e0e0e0" stroke="#999999" points="861.88,-19.25 816.62,-19.25 816.62,0 861.88,0 861.88,-19.25"/>
<text text-anchor="middle" x="839.25" y="-5.75" font-family="Helvetica,sans-Serif" font-size="10.00">cstdint</text>
</a>
</g>
</g>
<!-- Node15&#45;&gt;Node16 -->
<g id="edge17_Node000015_Node000016" class="edge">
<title>Node15&#45;&gt;Node16</title>
<g id="a_edge17_Node000015_Node000016"><a xlink:title=" ">
<path fill="none" stroke="#63b8ff" d="M684,-55.55C716.78,-46.07 770.33,-30.57 805.18,-20.48"/>
<polygon fill="#63b8ff" stroke="#63b8ff" points="806.14,-23.85 814.77,-17.71 804.19,-17.13 806.14,-23.85"/>
</a>
</g>
</g>
<!-- Node17 -->
<g id="Node000017" class="node">
<title>Node17</title>
<g id="a_Node000017"><a xlink:title=" ">
<polygon fill="#e0e0e0" stroke="#999999" points="930.12,-19.25 880.38,-19.25 880.38,0 930.12,0 930.12,-19.25"/>
<text text-anchor="middle" x="905.25" y="-5.75" font-family="Helvetica,sans-Serif" font-size="10.00">iomanip</text>
</a>
</g>
</g>
<!-- Node15&#45;&gt;Node17 -->
<g id="edge19_Node000015_Node000017" class="edge">
<title>Node15&#45;&gt;Node17</title>
<g id="a_edge19_Node000015_Node000017"><a xlink:title=" ">
<path fill="none" stroke="#63b8ff" d="M683.99,-58.36C723.44,-50.7 796.83,-36.13 868.94,-19.7"/>
<polygon fill="#63b8ff" stroke="#63b8ff" points="869.59,-23.14 878.55,-17.49 868.02,-16.32 869.59,-23.14"/>
</a>
</g>
</g>
<!-- Node18 -->
<g id="Node000018" class="node">
<title>Node18</title>
<g id="a_Node000018"><a xlink:title=" ">
<polygon fill="#e0e0e0" stroke="#999999" points="1006.25,-19.25 948.25,-19.25 948.25,0 1006.25,0 1006.25,-19.25"/>
<text text-anchor="middle" x="977.25" y="-5.75" font-family="Helvetica,sans-Serif" font-size="10.00">stdexcept</text>
</a>
</g>
</g>
<!-- Node15&#45;&gt;Node18 -->
<g id="edge20_Node000015_Node000018" class="edge">
<title>Node15&#45;&gt;Node18</title>
<g id="a_edge20_Node000015_Node000018"><a xlink:title=" ">
<path fill="none" stroke="#63b8ff" d="M683.98,-60.01C733.52,-53.21 838.42,-38.2 936.8,-19.61"/>
<polygon fill="#63b8ff" stroke="#63b8ff" points="937.18,-23.1 946.35,-17.79 935.87,-16.23 937.18,-23.1"/>
</a>
</g>
</g>
<!-- Node19 -->
<g id="Node000019" class="node">
<title>Node19</title>
<g id="a_Node000019"><a xlink:title=" ">
<polygon fill="#e0e0e0" stroke="#999999" points="1066.38,-19.25 1024.12,-19.25 1024.12,0 1066.38,0 1066.38,-19.25"/>
<text text-anchor="middle" x="1045.25" y="-5.75" font-family="Helvetica,sans-Serif" font-size="10.00">cstdio</text>
</a>
</g>
</g>
<!-- Node15&#45;&gt;Node19 -->
<g id="edge22_Node000015_Node000019" class="edge">
<title>Node15&#45;&gt;Node19</title>
<g id="a_edge22_Node000015_Node000019"><a xlink:title=" ">
<path fill="none" stroke="#63b8ff" d="M683.96,-61.85C743.55,-57.33 885.07,-44.89 1012.61,-19.5"/>
<polygon fill="#63b8ff" stroke="#63b8ff" points="1013.13,-22.97 1022.24,-17.55 1011.74,-16.11 1013.13,-22.97"/>
</a>
</g>
</g>
<!-- Node20 -->
<g id="Node000020" class="node">
<title>Node20</title>
<g id="a_Node000020"><a xlink:title=" ">
<polygon fill="#e0e0e0" stroke="#999999" points="44.5,-19.25 0,-19.25 0,0 44.5,0 44.5,-19.25"/>
<text text-anchor="middle" x="22.25" y="-5.75" font-family="Helvetica,sans-Serif" font-size="10.00">cstdlib</text>
</a>
</g>
</g>
<!-- Node15&#45;&gt;Node20 -->
<g id="edge23_Node000015_Node000020" class="edge">
<title>Node15&#45;&gt;Node20</title>
<g id="a_edge23_Node000015_Node000020"><a xlink:title=" ">
<path fill="none" stroke="#63b8ff" d="M626.8,-63.75C541.5,-62.96 280.47,-57.52 56.15,-19.42"/>
<polygon fill="#63b8ff" stroke="#63b8ff" points="56.76,-15.97 46.31,-17.72 55.57,-22.87 56.76,-15.97"/>
</a>
</g>
</g>
<!-- Node21 -->
<g id="Node000021" class="node">
<title>Node21</title>
<g id="a_Node000021"><a xlink:title=" ">
<polygon fill="#e0e0e0" stroke="#999999" points="122,-19.25 62.5,-19.25 62.5,0 122,0 122,-19.25"/>
<text text-anchor="middle" x="92.25" y="-5.75" font-family="Helvetica,sans-Serif" font-size="10.00">execinfo.h</text>
</a>
</g>
</g>
<!-- Node15&#45;&gt;Node21 -->
<g id="edge24_Node000015_Node000021" class="edge">
<title>Node15&#45;&gt;Node21</title>
<g id="a_edge24_Node000015_Node000021"><a xlink:title=" ">
<path fill="none" stroke="#63b8ff" d="M626.69,-62.78C549.08,-59.51 327.64,-48.31 133.67,-19.41"/>
<polygon fill="#63b8ff" stroke="#63b8ff" points="134.32,-15.97 123.91,-17.94 133.27,-22.89 134.32,-15.97"/>
</a>
</g>
</g>
<!-- Node22 -->
<g id="Node000022" class="node">
<title>Node22</title>
<g id="a_Node000022"><a xlink:title=" ">
<polygon fill="#e0e0e0" stroke="#999999" points="190.5,-19.25 140,-19.25 140,0 190.5,0 190.5,-19.25"/>
<text text-anchor="middle" x="165.25" y="-5.75" font-family="Helvetica,sans-Serif" font-size="10.00">cxxabi.h</text>
</a>
</g>
</g>
<!-- Node15&#45;&gt;Node22 -->
<g id="edge25_Node000015_Node000022" class="edge">
<title>Node15&#45;&gt;Node22</title>
<g id="a_edge25_Node000015_Node000022"><a xlink:title=" ">
<path fill="none" stroke="#63b8ff" d="M626.5,-62.57C555.78,-59.04 367.61,-47.72 201.68,-19.43"/>
<polygon fill="#63b8ff" stroke="#63b8ff" points="202.72,-16.06 192.27,-17.8 201.53,-22.96 202.72,-16.06"/>
</a>
</g>
</g>
<!-- Node23 -->
<g id="Node000023" class="node">
<title>Node23</title>
<g id="a_Node000023"><a xlink:title=" ">
<polygon fill="#e0e0e0" stroke="#999999" points="259.88,-19.25 208.62,-19.25 208.62,0 259.88,0 259.88,-19.25"/>
<text text-anchor="middle" x="234.25" y="-5.75" font-family="Helvetica,sans-Serif" font-size="10.00">sstream</text>
</a>
</g>
</g>
<!-- Node15&#45;&gt;Node23 -->
<g id="edge26_Node000015_Node000023" class="edge">
<title>Node15&#45;&gt;Node23</title>
<g id="a_edge26_Node000015_Node000023"><a xlink:title=" ">
<path fill="none" stroke="#63b8ff" d="M626.89,-61.91C564.35,-57.3 409.73,-44.39 271.36,-19.62"/>
<polygon fill="#63b8ff" stroke="#63b8ff" points="272.11,-16.2 261.65,-17.85 270.86,-23.08 272.11,-16.2"/>
</a>
</g>
</g>
<!-- Node24 -->
<g id="Node000024" class="node">
<title>Node24</title>
<g id="a_Node000024"><a xlink:title=" ">
<polygon fill="#e0e0e0" stroke="#999999" points="314.75,-19.25 277.75,-19.25 277.75,0 314.75,0 314.75,-19.25"/>
<text text-anchor="middle" x="296.25" y="-5.75" font-family="Helvetica,sans-Serif" font-size="10.00">array</text>
</a>
</g>
</g>
<!-- Node15&#45;&gt;Node24 -->
<g id="edge27_Node000015_Node000024" class="edge">
<title>Node15&#45;&gt;Node24</title>
<g id="a_edge27_Node000015_Node000024"><a xlink:title=" ">
<path fill="none" stroke="#63b8ff" d="M626.64,-61.62C570.68,-56.86 442.74,-44.32 326.01,-19.28"/>
<polygon fill="#63b8ff" stroke="#63b8ff" points="327.11,-15.94 316.59,-17.22 325.62,-22.78 327.11,-15.94"/>
</a>
</g>
</g>
<!-- Node25 -->
<g id="Node000025" class="node">
<title>Node25</title>
<g id="a_Node000025"><a xlink:title=" ">
<polygon fill="#e0e0e0" stroke="#999999" points="383.5,-19.25 333,-19.25 333,0 383.5,0 383.5,-19.25"/>
<text text-anchor="middle" x="358.25" y="-5.75" font-family="Helvetica,sans-Serif" font-size="10.00">memory</text>
</a>
</g>
</g>
<!-- Node15&#45;&gt;Node25 -->
<g id="edge28_Node000015_Node000025" class="edge">
<title>Node15&#45;&gt;Node25</title>
<g id="a_edge28_Node000015_Node000025"><a xlink:title=" ">
<path fill="none" stroke="#63b8ff" d="M626.7,-59.8C580.2,-53 485.01,-38.39 395.04,-19.7"/>
<polygon fill="#63b8ff" stroke="#63b8ff" points="395.81,-16.29 385.3,-17.66 394.37,-23.14 395.81,-16.29"/>
</a>
</g>
</g>
<!-- Node26 -->
<g id="Node000026" class="node">
<title>Node26</title>
<g id="a_Node000026"><a xlink:title=" ">
<polygon fill="#e0e0e0" stroke="#999999" points="451.12,-19.25 401.38,-19.25 401.38,0 451.12,0 451.12,-19.25"/>
<text text-anchor="middle" x="426.25" y="-5.75" font-family="Helvetica,sans-Serif" font-size="10.00">unistd.h</text>
</a>
</g>
</g>
<!-- Node15&#45;&gt;Node26 -->
<g id="edge29_Node000015_Node000026" class="edge">
<title>Node15&#45;&gt;Node26</title>
<g id="a_edge29_Node000015_Node000026"><a xlink:title=" ">
<path fill="none" stroke="#63b8ff" d="M626.78,-57.58C590.84,-49.58 526.83,-35.19 462.62,-19.78"/>
<polygon fill="#63b8ff" stroke="#63b8ff" points="463.5,-16.39 452.96,-17.45 461.86,-23.2 463.5,-16.39"/>
</a>
</g>
</g>
<!-- Node27 -->
<g id="Node000027" class="node">
<title>Node27</title>
<g id="a_Node000027"><a xlink:title=" ">
<polygon fill="#e0e0e0" stroke="#999999" points="515.25,-19.25 469.25,-19.25 469.25,0 515.25,0 515.25,-19.25"/>
<text text-anchor="middle" x="492.25" y="-5.75" font-family="Helvetica,sans-Serif" font-size="10.00">TEnv.h</text>
</a>
</g>
</g>
<!-- Node15&#45;&gt;Node27 -->
<g id="edge30_Node000015_Node000027" class="edge">
<title>Node15&#45;&gt;Node27</title>
<g id="a_edge30_Node000015_Node000027"><a xlink:title=" ">
<path fill="none" stroke="#63b8ff" d="M627.6,-54.84C599.65,-45.71 556.41,-31.59 526.36,-21.77"/>
<polygon fill="#63b8ff" stroke="#63b8ff" points="527.57,-18.48 516.98,-18.7 525.4,-25.14 527.57,-18.48"/>
</a>
</g>
</g>
<!-- Node28 -->
<g id="Node000028" class="node">
<title>Node28</title>
<g id="a_Node000028"><a xlink:title=" ">
<polygon fill="#e0e0e0" stroke="#999999" points="577.5,-19.25 533,-19.25 533,0 577.5,0 577.5,-19.25"/>
<text text-anchor="middle" x="555.25" y="-5.75" font-family="Helvetica,sans-Serif" font-size="10.00">stdio.h</text>
</a>
</g>
</g>
<!-- Node15&#45;&gt;Node28 -->
<g id="edge31_Node000015_Node000028" class="edge">
<title>Node15&#45;&gt;Node28</title>
<g id="a_edge31_Node000015_Node000028"><a xlink:title=" ">
<path fill="none" stroke="#63b8ff" d="M638.29,-54.84C622.99,-46.69 600.22,-34.57 582.39,-25.08"/>
<polygon fill="#63b8ff" stroke="#63b8ff" points="584.1,-22.02 573.63,-20.41 580.81,-28.2 584.1,-22.02"/>
</a>
</g>
</g>
<!-- Node29 -->
<g id="Node000029" class="node">
<title>Node29</title>
<g id="a_Node000029"><a xlink:title=" ">
<polygon fill="#e0e0e0" stroke="#999999" points="642.62,-19.25 595.88,-19.25 595.88,0 642.62,0 642.62,-19.25"/>
<text text-anchor="middle" x="619.25" y="-5.75" font-family="Helvetica,sans-Serif" font-size="10.00">stdlib.h</text>
</a>
</g>
</g>
<!-- Node15&#45;&gt;Node29 -->
<g id="edge32_Node000015_Node000029" class="edge">
<title>Node15&#45;&gt;Node29</title>
<g id="a_edge32_Node000015_Node000029"><a xlink:title=" ">
<path fill="none" stroke="#63b8ff" d="M649.31,-55.08C644.54,-48.03 637.69,-37.9 631.73,-29.08"/>
<polygon fill="#63b8ff" stroke="#63b8ff" points="634.67,-27.19 626.17,-20.86 628.87,-31.11 634.67,-27.19"/>
</a>
</g>
</g>
<!-- Node30 -->
<g id="Node000030" class="node">
<title>Node30</title>
<g id="a_Node000030"><a xlink:title=" ">
<polygon fill="#e0e0e0" stroke="#999999" points="720,-19.25 660.5,-19.25 660.5,0 720,0 720,-19.25"/>
<text text-anchor="middle" x="690.25" y="-5.75" font-family="Helvetica,sans-Serif" font-size="10.00">sys/wait.h</text>
</a>
</g>
</g>
<!-- Node15&#45;&gt;Node30 -->
<g id="edge33_Node000015_Node000030" class="edge">
<title>Node15&#45;&gt;Node30</title>
<g id="a_edge33_Node000015_Node000030"><a xlink:title=" ">
<path fill="none" stroke="#63b8ff" d="M661.03,-55.08C665.66,-48.03 672.32,-37.9 678.12,-29.08"/>
<polygon fill="#63b8ff" stroke="#63b8ff" points="680.95,-31.15 683.51,-20.87 675.1,-27.31 680.95,-31.15"/>
</a>
</g>
</g>
<!-- Node31 -->
<g id="Node000031" class="node">
<title>Node31</title>
<g id="a_Node000031"><a xlink:title=" ">
<polygon fill="#e0e0e0" stroke="#999999" points="798.38,-19.25 738.12,-19.25 738.12,0 798.38,0 798.38,-19.25"/>
<text text-anchor="middle" x="768.25" y="-5.75" font-family="Helvetica,sans-Serif" font-size="10.00">sys/prctl.h</text>
</a>
</g>
</g>
<!-- Node15&#45;&gt;Node31 -->
<g id="edge34_Node000015_Node000031" class="edge">
<title>Node15&#45;&gt;Node31</title>
<g id="a_edge34_Node000015_Node000031"><a xlink:title=" ">
<path fill="none" stroke="#63b8ff" d="M674.42,-54.84C692.03,-46.54 718.41,-34.11 738.71,-24.54"/>
<polygon fill="#63b8ff" stroke="#63b8ff" points="740.06,-27.78 747.62,-20.35 737.08,-21.44 740.06,-27.78"/>
</a>
</g>
</g>
<!-- Node32&#45;&gt;Node3 -->
<g id="edge37_Node000032_Node000003" class="edge">
<title>Node32&#45;&gt;Node3</title>
<g id="a_edge37_Node000032_Node000003"><a xlink:title=" ">
<path fill="none" stroke="#63b8ff" d="M1334.85,-54.84C1299.37,-44.95 1242.87,-29.2 1207.75,-19.41"/>
<polygon fill="#63b8ff" stroke="#63b8ff" points="1208.76,-16.05 1198.18,-16.74 1206.88,-22.8 1208.76,-16.05"/>
</a>
</g>
</g>
<!-- Node33 -->
<g id="Node000033" class="node">
<title>Node33</title>
<g id="a_Node000033"><a xlink:title=" ">
<polygon fill="#e0e0e0" stroke="#999999" points="1392.88,-19.25 1341.62,-19.25 1341.62,0 1392.88,0 1392.88,-19.25"/>
<text text-anchor="middle" x="1367.25" y="-5.75" font-family="Helvetica,sans-Serif" font-size="10.00">ostream</text>
</a>
</g>
</g>
<!-- Node32&#45;&gt;Node33 -->
<g id="edge36_Node000032_Node000033" class="edge">
<title>Node32&#45;&gt;Node33</title>
<g id="a_edge36_Node000032_Node000033"><a xlink:title=" ">
<path fill="none" stroke="#63b8ff" d="M1367.25,-55.08C1367.25,-48.57 1367.25,-39.42 1367.25,-31.12"/>
<polygon fill="#63b8ff" stroke="#63b8ff" points="1370.75,-31.12 1367.25,-21.12 1363.75,-31.12 1370.75,-31.12"/>
</a>
</g>
</g>
</g>
</svg>
