<?xml version="1.0" encoding="UTF-8" standalone="no"?>
<!DOCTYPE svg PUBLIC "-//W3C//DTD SVG 1.1//EN"
 "http://www.w3.org/Graphics/SVG/1.1/DTD/svg11.dtd">
<!-- Generated by graphviz version 12.2.0 (20241103.1931)
 -->
<!-- Title: TCalPoint.h Pages: 1 -->
<svg width="411pt" height="193pt"
 viewBox="0.00 0.00 411.38 193.00" xmlns="http://www.w3.org/2000/svg" xmlns:xlink="http://www.w3.org/1999/xlink">

<svg id="main" version="1.1" xmlns="http://www.w3.org/2000/svg" xmlns:xlink="http://www.w3.org/1999/xlink" xml:space="preserve">

<style type="text/css"><![CDATA[
.node, .edge {opacity: 0.7;}
.node.selected, .edge.selected {opacity: 1;}
.edge:hover path { stroke: red; }
.edge:hover polygon { stroke: red; fill: red; }
]]></style>
<script type="application/ecmascript" xlink:href="svg.min.js"/>
<svg id="graph" class="graph">
<g id="graph0" class="graph" transform="scale(1 1) rotate(0) translate(4 189)">
<title>TCalPoint.h</title>
<!-- Node1 -->
<g id="Node000001" class="node">
<title>Node1</title>
<g id="a_Node000001"><a xlink:title=" ">
<polygon fill="#999999" stroke="#666666" points="136.12,-185 69.88,-185 69.88,-165.75 136.12,-165.75 136.12,-185"/>
<text text-anchor="middle" x="103" y="-171.5" font-family="Helvetica,sans-Serif" font-size="10.00">TCalPoint.h</text>
</a>
</g>
</g>
<!-- Node2 -->
<g id="Node000002" class="node">
<title>Node2</title>
<g id="a_Node000002"><a xlink:title=" ">
<polygon fill="#e0e0e0" stroke="#999999" points="58,-19.25 0,-19.25 0,0 58,0 58,-19.25"/>
<text text-anchor="middle" x="29" y="-5.75" font-family="Helvetica,sans-Serif" font-size="10.00">TObject.h</text>
</a>
</g>
</g>
<!-- Node1&#45;&gt;Node2 -->
<g id="edge1_Node000001_Node000002" class="edge">
<title>Node1&#45;&gt;Node2</title>
<g id="a_edge1_Node000001_Node000002"><a xlink:title=" ">
<path fill="none" stroke="#63b8ff" d="M98.13,-165.44C88.79,-148.15 67.98,-108.8 53,-74.5 46.6,-59.86 40.29,-42.91 35.74,-30.15"/>
<polygon fill="#63b8ff" stroke="#63b8ff" points="39.09,-29.13 32.48,-20.85 32.48,-31.44 39.09,-29.13"/>
</a>
</g>
</g>
<!-- Node3 -->
<g id="Node000003" class="node">
<title>Node3</title>
<g id="a_Node000003"><a xlink:href="_t_peak_8h.html" target="_top" xlink:title=" ">
<polygon fill="white" stroke="#666666" points="202,-129.75 150,-129.75 150,-110.5 202,-110.5 202,-129.75"/>
<text text-anchor="middle" x="176" y="-116.25" font-family="Helvetica,sans-Serif" font-size="10.00">TPeak.h</text>
</a>
</g>
</g>
<!-- Node1&#45;&gt;Node3 -->
<g id="edge2_Node000001_Node000003" class="edge">
<title>Node1&#45;&gt;Node3</title>
<g id="a_edge2_Node000001_Node000003"><a xlink:title=" ">
<path fill="none" stroke="#63b8ff" d="M115.38,-165.34C126.15,-157.49 141.97,-145.95 154.75,-136.62"/>
<polygon fill="#63b8ff" stroke="#63b8ff" points="156.56,-139.64 162.58,-130.92 152.44,-133.98 156.56,-139.64"/>
</a>
</g>
</g>
<!-- Node4 -->
<g id="Node000004" class="node">
<title>Node4</title>
<g id="a_Node000004"><a xlink:title=" ">
<polygon fill="#e0e0e0" stroke="#999999" points="403.38,-19.25 362.62,-19.25 362.62,0 403.38,0 403.38,-19.25"/>
<text text-anchor="middle" x="383" y="-5.75" font-family="Helvetica,sans-Serif" font-size="10.00">TF1.h</text>
</a>
</g>
</g>
<!-- Node3&#45;&gt;Node4 -->
<g id="edge3_Node000003_Node000004" class="edge">
<title>Node3&#45;&gt;Node4</title>
<g id="a_edge3_Node000003_Node000004"><a xlink:title=" ">
<path fill="none" stroke="#63b8ff" d="M202.41,-111.48C227.13,-103.81 264.68,-90.8 295,-74.5 320.39,-60.85 346.81,-40.75 363.99,-26.76"/>
<polygon fill="#63b8ff" stroke="#63b8ff" points="365.88,-29.73 371.35,-20.66 361.42,-24.34 365.88,-29.73"/>
</a>
</g>
</g>
<!-- Node5 -->
<g id="Node000005" class="node">
<title>Node5</title>
<g id="a_Node000005"><a xlink:title=" ">
<polygon fill="#e0e0e0" stroke="#999999" points="130.25,-74.5 61.75,-74.5 61.75,-55.25 130.25,-55.25 130.25,-74.5"/>
<text text-anchor="middle" x="96" y="-61" font-family="Helvetica,sans-Serif" font-size="10.00">TFitResult.h</text>
</a>
</g>
</g>
<!-- Node3&#45;&gt;Node5 -->
<g id="edge4_Node000003_Node000005" class="edge">
<title>Node3&#45;&gt;Node5</title>
<g id="a_edge4_Node000003_Node000005"><a xlink:title=" ">
<path fill="none" stroke="#63b8ff" d="M162.43,-110.09C150.59,-102.21 133.16,-90.61 119.13,-81.27"/>
<polygon fill="#63b8ff" stroke="#63b8ff" points="121.16,-78.42 110.9,-75.79 117.28,-84.25 121.16,-78.42"/>
</a>
</g>
</g>
<!-- Node6 -->
<g id="Node000006" class="node">
<title>Node6</title>
<g id="a_Node000006"><a xlink:title=" ">
<polygon fill="#e0e0e0" stroke="#999999" points="203.88,-74.5 148.12,-74.5 148.12,-55.25 203.88,-55.25 203.88,-74.5"/>
<text text-anchor="middle" x="176" y="-61" font-family="Helvetica,sans-Serif" font-size="10.00">TGraph.h</text>
</a>
</g>
</g>
<!-- Node3&#45;&gt;Node6 -->
<g id="edge5_Node000003_Node000006" class="edge">
<title>Node3&#45;&gt;Node6</title>
<g id="a_edge5_Node000003_Node000006"><a xlink:title=" ">
<path fill="none" stroke="#63b8ff" d="M176,-110.33C176,-103.82 176,-94.67 176,-86.37"/>
<polygon fill="#63b8ff" stroke="#63b8ff" points="179.5,-86.37 176,-76.37 172.5,-86.37 179.5,-86.37"/>
</a>
</g>
</g>
<!-- Node7 -->
<g id="Node000007" class="node">
<title>Node7</title>
<g id="a_Node000007"><a xlink:href="_t_g_r_s_i_fit_8h.html" target="_top" xlink:title=" ">
<polygon fill="white" stroke="#666666" points="286.38,-74.5 221.62,-74.5 221.62,-55.25 286.38,-55.25 286.38,-74.5"/>
<text text-anchor="middle" x="254" y="-61" font-family="Helvetica,sans-Serif" font-size="10.00">TGRSIFit.h</text>
</a>
</g>
</g>
<!-- Node3&#45;&gt;Node7 -->
<g id="edge6_Node000003_Node000007" class="edge">
<title>Node3&#45;&gt;Node7</title>
<g id="a_edge6_Node000003_Node000007"><a xlink:title=" ">
<path fill="none" stroke="#63b8ff" d="M189.23,-110.09C200.77,-102.21 217.77,-90.61 231.45,-81.27"/>
<polygon fill="#63b8ff" stroke="#63b8ff" points="233.17,-84.33 239.45,-75.81 229.22,-78.55 233.17,-84.33"/>
</a>
</g>
</g>
<!-- Node7&#45;&gt;Node2 -->
<g id="edge7_Node000007_Node000002" class="edge">
<title>Node7&#45;&gt;Node2</title>
<g id="a_edge7_Node000007_Node000002"><a xlink:title=" ">
<path fill="none" stroke="#63b8ff" d="M221.28,-56.13C181.01,-46.6 112.62,-30.41 69.18,-20.14"/>
<polygon fill="#63b8ff" stroke="#63b8ff" points="70.19,-16.78 59.65,-17.88 68.57,-23.59 70.19,-16.78"/>
</a>
</g>
</g>
<!-- Node7&#45;&gt;Node4 -->
<g id="edge9_Node000007_Node000004" class="edge">
<title>Node7&#45;&gt;Node4</title>
<g id="a_edge9_Node000007_Node000004"><a xlink:title=" ">
<path fill="none" stroke="#63b8ff" d="M275.88,-54.84C296.73,-46.23 328.34,-33.19 351.82,-23.5"/>
<polygon fill="#63b8ff" stroke="#63b8ff" points="352.98,-26.8 360.89,-19.75 350.31,-20.33 352.98,-26.8"/>
</a>
</g>
</g>
<!-- Node8 -->
<g id="Node000008" class="node">
<title>Node8</title>
<g id="a_Node000008"><a xlink:title=" ">
<polygon fill="#e0e0e0" stroke="#999999" points="344.12,-19.25 301.88,-19.25 301.88,0 344.12,0 344.12,-19.25"/>
<text text-anchor="middle" x="323" y="-5.75" font-family="Helvetica,sans-Serif" font-size="10.00">TH1.h</text>
</a>
</g>
</g>
<!-- Node7&#45;&gt;Node8 -->
<g id="edge8_Node000007_Node000008" class="edge">
<title>Node7&#45;&gt;Node8</title>
<g id="a_edge8_Node000007_Node000008"><a xlink:title=" ">
<path fill="none" stroke="#63b8ff" d="M265.7,-54.84C275.78,-47.07 290.54,-35.67 302.56,-26.4"/>
<polygon fill="#63b8ff" stroke="#63b8ff" points="304.49,-29.33 310.27,-20.45 300.21,-23.79 304.49,-29.33"/>
</a>
</g>
</g>
<!-- Node9 -->
<g id="Node000009" class="node">
<title>Node9</title>
<g id="a_Node000009"><a xlink:title=" ">
<polygon fill="#e0e0e0" stroke="#999999" points="147.75,-19.25 76.25,-19.25 76.25,0 147.75,0 147.75,-19.25"/>
<text text-anchor="middle" x="112" y="-5.75" font-family="Helvetica,sans-Serif" font-size="10.00">TSpectrum.h</text>
</a>
</g>
</g>
<!-- Node7&#45;&gt;Node9 -->
<g id="edge10_Node000007_Node000009" class="edge">
<title>Node7&#45;&gt;Node9</title>
<g id="a_edge10_Node000007_Node000009"><a xlink:title=" ">
<path fill="none" stroke="#63b8ff" d="M229.91,-54.84C207.06,-46.27 172.48,-33.31 146.67,-23.63"/>
<polygon fill="#63b8ff" stroke="#63b8ff" points="148.22,-20.47 137.62,-20.23 145.76,-27.02 148.22,-20.47"/>
</a>
</g>
</g>
<!-- Node10 -->
<g id="Node000010" class="node">
<title>Node10</title>
<g id="a_Node000010"><a xlink:title=" ">
<polygon fill="#e0e0e0" stroke="#999999" points="210.25,-19.25 165.75,-19.25 165.75,0 210.25,0 210.25,-19.25"/>
<text text-anchor="middle" x="188" y="-5.75" font-family="Helvetica,sans-Serif" font-size="10.00">TRef.h</text>
</a>
</g>
</g>
<!-- Node7&#45;&gt;Node10 -->
<g id="edge11_Node000007_Node000010" class="edge">
<title>Node7&#45;&gt;Node10</title>
<g id="a_edge11_Node000007_Node000010"><a xlink:title=" ">
<path fill="none" stroke="#63b8ff" d="M242.8,-54.84C233.26,-47.15 219.33,-35.9 207.89,-26.68"/>
<polygon fill="#63b8ff" stroke="#63b8ff" points="210.19,-24.03 200.21,-20.48 205.79,-29.48 210.19,-24.03"/>
</a>
</g>
</g>
<!-- Node11 -->
<g id="Node000011" class="node">
<title>Node11</title>
<g id="a_Node000011"><a xlink:title=" ">
<polygon fill="#e0e0e0" stroke="#999999" points="283.5,-19.25 228.5,-19.25 228.5,0 283.5,0 283.5,-19.25"/>
<text text-anchor="middle" x="256" y="-5.75" font-family="Helvetica,sans-Serif" font-size="10.00">TString.h</text>
</a>
</g>
</g>
<!-- Node7&#45;&gt;Node11 -->
<g id="edge12_Node000007_Node000011" class="edge">
<title>Node7&#45;&gt;Node11</title>
<g id="a_edge12_Node000007_Node000011"><a xlink:title=" ">
<path fill="none" stroke="#63b8ff" d="M254.33,-55.08C254.58,-48.49 254.93,-39.21 255.24,-30.82"/>
<polygon fill="#63b8ff" stroke="#63b8ff" points="258.73,-31.25 255.61,-21.12 251.73,-30.98 258.73,-31.25"/>
</a>
</g>
</g>
</g>
</svg>
</svg>

<style type='text/css'>
<![CDATA[
[data-mouse-over-selected='false'] { opacity: 0.7; }
[data-mouse-over-selected='true']  { opacity: 1.0; }
]]>
</style>
<script type="application/ecmascript"><![CDATA[
document.addEventListener('DOMContentLoaded', (event) => {
  highlightEdges();
  highlightAdjacentNodes();
});
]]></script>
</svg>
