<?xml version="1.0" encoding="UTF-8" standalone="no"?>
<!DOCTYPE svg PUBLIC "-//W3C//DTD SVG 1.1//EN"
 "http://www.w3.org/Graphics/SVG/1.1/DTD/svg11.dtd">
<!-- Generated by graphviz version 12.2.0 (20241103.1931)
 -->
<!-- Title: TCalibrateDescant.cxx Pages: 1 -->
<svg width="979pt" height="138pt"
 viewBox="0.00 0.00 979.25 137.75" xmlns="http://www.w3.org/2000/svg" xmlns:xlink="http://www.w3.org/1999/xlink">
<g id="graph0" class="graph" transform="scale(1 1) rotate(0) translate(4 133.75)">
<title>TCalibrateDescant.cxx</title>
<!-- Node1 -->
<g id="Node000001" class="node">
<title>Node1</title>
<g id="a_Node000001"><a xlink:title=" ">
<polygon fill="#999999" stroke="#666666" points="670,-129.75 557.25,-129.75 557.25,-110.5 670,-110.5 670,-129.75"/>
<text text-anchor="middle" x="613.62" y="-116.25" font-family="Helvetica,sans-Serif" font-size="10.00">TCalibrateDescant.cxx</text>
</a>
</g>
</g>
<!-- Node2 -->
<g id="Node000002" class="node">
<title>Node2</title>
<g id="a_Node000002"><a xlink:href="_t_calibrate_descant_8h.html" target="_top" xlink:title=" ">
<polygon fill="white" stroke="#666666" points="570.5,-74.5 466.75,-74.5 466.75,-55.25 570.5,-55.25 570.5,-74.5"/>
<text text-anchor="middle" x="518.62" y="-61" font-family="Helvetica,sans-Serif" font-size="10.00">TCalibrateDescant.h</text>
</a>
</g>
</g>
<!-- Node1&#45;&gt;Node2 -->
<g id="edge1_Node000001_Node000002" class="edge">
<title>Node1&#45;&gt;Node2</title>
<g id="a_edge1_Node000001_Node000002"><a xlink:title=" ">
<path fill="none" stroke="#63b8ff" d="M597.51,-110.09C583.04,-101.98 561.55,-89.93 544.64,-80.46"/>
<polygon fill="#63b8ff" stroke="#63b8ff" points="546.57,-77.53 536.14,-75.69 543.15,-83.64 546.57,-77.53"/>
</a>
</g>
</g>
<!-- Node14 -->
<g id="Node000014" class="node">
<title>Node14</title>
<g id="a_Node000014"><a xlink:title=" ">
<polygon fill="#e0e0e0" stroke="#999999" points="638.5,-74.5 588.75,-74.5 588.75,-55.25 638.5,-55.25 638.5,-74.5"/>
<text text-anchor="middle" x="613.62" y="-61" font-family="Helvetica,sans-Serif" font-size="10.00">iomanip</text>
</a>
</g>
</g>
<!-- Node1&#45;&gt;Node14 -->
<g id="edge13_Node000001_Node000014" class="edge">
<title>Node1&#45;&gt;Node14</title>
<g id="a_edge13_Node000001_Node000014"><a xlink:title=" ">
<path fill="none" stroke="#63b8ff" d="M613.62,-110.33C613.62,-103.82 613.62,-94.67 613.62,-86.37"/>
<polygon fill="#63b8ff" stroke="#63b8ff" points="617.13,-86.37 613.63,-76.37 610.13,-86.37 617.13,-86.37"/>
</a>
</g>
</g>
<!-- Node15 -->
<g id="Node000015" class="node">
<title>Node15</title>
<g id="a_Node000015"><a xlink:title=" ">
<polygon fill="#e0e0e0" stroke="#999999" points="718.88,-74.5 656.38,-74.5 656.38,-55.25 718.88,-55.25 718.88,-74.5"/>
<text text-anchor="middle" x="687.62" y="-61" font-family="Helvetica,sans-Serif" font-size="10.00">TCanvas.h</text>
</a>
</g>
</g>
<!-- Node1&#45;&gt;Node15 -->
<g id="edge14_Node000001_Node000015" class="edge">
<title>Node1&#45;&gt;Node15</title>
<g id="a_edge14_Node000001_Node000015"><a xlink:title=" ">
<path fill="none" stroke="#63b8ff" d="M626.18,-110.09C637.09,-102.24 653.13,-90.7 666.09,-81.37"/>
<polygon fill="#63b8ff" stroke="#63b8ff" points="667.96,-84.34 674.03,-75.66 663.87,-78.66 667.96,-84.34"/>
</a>
</g>
</g>
<!-- Node3 -->
<g id="Node000003" class="node">
<title>Node3</title>
<g id="a_Node000003"><a xlink:title=" ">
<polygon fill="#e0e0e0" stroke="#999999" points="45.25,-19.25 0,-19.25 0,0 45.25,0 45.25,-19.25"/>
<text text-anchor="middle" x="22.62" y="-5.75" font-family="Helvetica,sans-Serif" font-size="10.00">cstdint</text>
</a>
</g>
</g>
<!-- Node2&#45;&gt;Node3 -->
<g id="edge2_Node000002_Node000003" class="edge">
<title>Node2&#45;&gt;Node3</title>
<g id="a_edge2_Node000002_Node000003"><a xlink:title=" ">
<path fill="none" stroke="#63b8ff" d="M466.39,-61.7C382.11,-57.58 210.8,-46.63 56.66,-19.3"/>
<polygon fill="#63b8ff" stroke="#63b8ff" points="57.54,-15.91 47.08,-17.58 56.3,-22.8 57.54,-15.91"/>
</a>
</g>
</g>
<!-- Node4 -->
<g id="Node000004" class="node">
<title>Node4</title>
<g id="a_Node000004"><a xlink:title=" ">
<polygon fill="#e0e0e0" stroke="#999999" points="128,-19.25 63.25,-19.25 63.25,0 128,0 128,-19.25"/>
<text text-anchor="middle" x="95.62" y="-5.75" font-family="Helvetica,sans-Serif" font-size="10.00">TGFrame.h</text>
</a>
</g>
</g>
<!-- Node2&#45;&gt;Node4 -->
<g id="edge3_Node000002_Node000004" class="edge">
<title>Node2&#45;&gt;Node4</title>
<g id="a_edge3_Node000002_Node000004"><a xlink:title=" ">
<path fill="none" stroke="#63b8ff" d="M466.35,-59.19C394.91,-52.47 262.54,-38.89 139.27,-19.37"/>
<polygon fill="#63b8ff" stroke="#63b8ff" points="140.06,-15.95 129.63,-17.83 138.95,-22.86 140.06,-15.95"/>
</a>
</g>
</g>
<!-- Node5 -->
<g id="Node000005" class="node">
<title>Node5</title>
<g id="a_Node000005"><a xlink:title=" ">
<polygon fill="#e0e0e0" stroke="#999999" points="274.88,-19.25 146.38,-19.25 146.38,0 274.88,0 274.88,-19.25"/>
<text text-anchor="middle" x="210.62" y="-5.75" font-family="Helvetica,sans-Serif" font-size="10.00">TRootEmbeddedCanvas.h</text>
</a>
</g>
</g>
<!-- Node2&#45;&gt;Node5 -->
<g id="edge4_Node000002_Node000005" class="edge">
<title>Node2&#45;&gt;Node5</title>
<g id="a_edge4_Node000002_Node000005"><a xlink:title=" ">
<path fill="none" stroke="#63b8ff" d="M466.38,-54.84C413.36,-45.68 331.22,-31.47 274.4,-21.65"/>
<polygon fill="#63b8ff" stroke="#63b8ff" points="275.33,-18.26 264.88,-20 274.14,-25.16 275.33,-18.26"/>
</a>
</g>
</g>
<!-- Node6 -->
<g id="Node000006" class="node">
<title>Node6</title>
<g id="a_Node000006"><a xlink:title=" ">
<polygon fill="#e0e0e0" stroke="#999999" points="373.88,-19.25 293.38,-19.25 293.38,0 373.88,0 373.88,-19.25"/>
<text text-anchor="middle" x="333.62" y="-5.75" font-family="Helvetica,sans-Serif" font-size="10.00">TGStatusBar.h</text>
</a>
</g>
</g>
<!-- Node2&#45;&gt;Node6 -->
<g id="edge5_Node000002_Node000006" class="edge">
<title>Node2&#45;&gt;Node6</title>
<g id="a_edge5_Node000002_Node000006"><a xlink:title=" ">
<path fill="none" stroke="#63b8ff" d="M487.24,-54.84C456.68,-46.04 410,-32.61 376.12,-22.86"/>
<polygon fill="#63b8ff" stroke="#63b8ff" points="377.19,-19.52 366.62,-20.12 375.26,-26.25 377.19,-19.52"/>
</a>
</g>
</g>
<!-- Node7 -->
<g id="Node000007" class="node">
<title>Node7</title>
<g id="a_Node000007"><a xlink:title=" ">
<polygon fill="#e0e0e0" stroke="#999999" points="457.38,-19.25 391.88,-19.25 391.88,0 457.38,0 457.38,-19.25"/>
<text text-anchor="middle" x="424.62" y="-5.75" font-family="Helvetica,sans-Serif" font-size="10.00">TGButton.h</text>
</a>
</g>
</g>
<!-- Node2&#45;&gt;Node7 -->
<g id="edge6_Node000002_Node000007" class="edge">
<title>Node2&#45;&gt;Node7</title>
<g id="a_edge6_Node000002_Node000007"><a xlink:title=" ">
<path fill="none" stroke="#63b8ff" d="M502.68,-54.84C488.36,-46.73 467.09,-34.68 450.37,-25.21"/>
<polygon fill="#63b8ff" stroke="#63b8ff" points="452.39,-22.33 441.97,-20.45 448.94,-28.42 452.39,-22.33"/>
</a>
</g>
</g>
<!-- Node8 -->
<g id="Node000008" class="node">
<title>Node8</title>
<g id="a_Node000008"><a xlink:title=" ">
<polygon fill="#e0e0e0" stroke="#999999" points="561.5,-19.25 475.75,-19.25 475.75,0 561.5,0 561.5,-19.25"/>
<text text-anchor="middle" x="518.62" y="-5.75" font-family="Helvetica,sans-Serif" font-size="10.00">TGTripleSlider.h</text>
</a>
</g>
</g>
<!-- Node2&#45;&gt;Node8 -->
<g id="edge7_Node000002_Node000008" class="edge">
<title>Node2&#45;&gt;Node8</title>
<g id="a_edge7_Node000002_Node000008"><a xlink:title=" ">
<path fill="none" stroke="#63b8ff" d="M518.62,-55.08C518.62,-48.57 518.62,-39.42 518.62,-31.12"/>
<polygon fill="#63b8ff" stroke="#63b8ff" points="522.13,-31.12 518.63,-21.12 515.13,-31.12 522.13,-31.12"/>
</a>
</g>
</g>
<!-- Node9 -->
<g id="Node000009" class="node">
<title>Node9</title>
<g id="a_Node000009"><a xlink:title=" ">
<polygon fill="#e0e0e0" stroke="#999999" points="673.25,-19.25 580,-19.25 580,0 673.25,0 673.25,-19.25"/>
<text text-anchor="middle" x="626.62" y="-5.75" font-family="Helvetica,sans-Serif" font-size="10.00">TGNumberEntry.h</text>
</a>
</g>
</g>
<!-- Node2&#45;&gt;Node9 -->
<g id="edge8_Node000002_Node000009" class="edge">
<title>Node2&#45;&gt;Node9</title>
<g id="a_edge8_Node000002_Node000009"><a xlink:title=" ">
<path fill="none" stroke="#63b8ff" d="M536.95,-54.84C553.7,-46.58 578.76,-34.23 598.13,-24.68"/>
<polygon fill="#63b8ff" stroke="#63b8ff" points="599.44,-27.93 606.86,-20.37 596.34,-21.65 599.44,-27.93"/>
</a>
</g>
</g>
<!-- Node10 -->
<g id="Node000010" class="node">
<title>Node10</title>
<g id="a_Node000010"><a xlink:title=" ">
<polygon fill="#e0e0e0" stroke="#999999" points="752.12,-19.25 691.12,-19.25 691.12,0 752.12,0 752.12,-19.25"/>
<text text-anchor="middle" x="721.62" y="-5.75" font-family="Helvetica,sans-Serif" font-size="10.00">TGLabel.h</text>
</a>
</g>
</g>
<!-- Node2&#45;&gt;Node10 -->
<g id="edge9_Node000002_Node000010" class="edge">
<title>Node2&#45;&gt;Node10</title>
<g id="a_edge9_Node000002_Node000010"><a xlink:title=" ">
<path fill="none" stroke="#63b8ff" d="M553.06,-54.84C588.02,-45.67 642.19,-31.46 679.64,-21.64"/>
<polygon fill="#63b8ff" stroke="#63b8ff" points="680.44,-25.05 689.22,-19.13 678.66,-18.28 680.44,-25.05"/>
</a>
</g>
</g>
<!-- Node11 -->
<g id="Node000011" class="node">
<title>Node11</title>
<g id="a_Node000011"><a xlink:title=" ">
<polygon fill="#e0e0e0" stroke="#999999" points="812.75,-19.25 770.5,-19.25 770.5,0 812.75,0 812.75,-19.25"/>
<text text-anchor="middle" x="791.62" y="-5.75" font-family="Helvetica,sans-Serif" font-size="10.00">TH2.h</text>
</a>
</g>
</g>
<!-- Node2&#45;&gt;Node11 -->
<g id="edge10_Node000002_Node000011" class="edge">
<title>Node2&#45;&gt;Node11</title>
<g id="a_edge10_Node000002_Node000011"><a xlink:title=" ">
<path fill="none" stroke="#63b8ff" d="M570.6,-55.85C617.6,-48.25 688.89,-35.89 759.24,-19.63"/>
<polygon fill="#63b8ff" stroke="#63b8ff" points="759.65,-23.13 768.59,-17.44 758.05,-16.32 759.65,-23.13"/>
</a>
</g>
</g>
<!-- Node12 -->
<g id="Node000012" class="node">
<title>Node12</title>
<g id="a_Node000012"><a xlink:title=" ">
<polygon fill="#e0e0e0" stroke="#999999" points="872,-19.25 831.25,-19.25 831.25,0 872,0 872,-19.25"/>
<text text-anchor="middle" x="851.62" y="-5.75" font-family="Helvetica,sans-Serif" font-size="10.00">TF1.h</text>
</a>
</g>
</g>
<!-- Node2&#45;&gt;Node12 -->
<g id="edge11_Node000002_Node000012" class="edge">
<title>Node2&#45;&gt;Node12</title>
<g id="a_edge11_Node000002_Node000012"><a xlink:title=" ">
<path fill="none" stroke="#63b8ff" d="M570.82,-56.37C645.44,-45.62 777.56,-26.5 820.02,-19.05"/>
<polygon fill="#63b8ff" stroke="#63b8ff" points="820.41,-22.53 829.57,-17.21 819.09,-15.66 820.41,-22.53"/>
</a>
</g>
</g>
<!-- Node13 -->
<g id="Node000013" class="node">
<title>Node13</title>
<g id="a_Node000013"><a xlink:title=" ">
<polygon fill="#e0e0e0" stroke="#999999" points="971.25,-19.25 890,-19.25 890,0 971.25,0 971.25,-19.25"/>
<text text-anchor="middle" x="930.62" y="-5.75" font-family="Helvetica,sans-Serif" font-size="10.00">TGraphErrors.h</text>
</a>
</g>
</g>
<!-- Node2&#45;&gt;Node13 -->
<g id="edge12_Node000002_Node000013" class="edge">
<title>Node2&#45;&gt;Node13</title>
<g id="a_edge12_Node000002_Node000013"><a xlink:title=" ">
<path fill="none" stroke="#63b8ff" d="M570.86,-56.41C573.82,-56.01 576.76,-55.62 579.62,-55.25 709.7,-38.28 745.44,-38.67 878.68,-19.46"/>
<polygon fill="#63b8ff" stroke="#63b8ff" points="878.83,-22.98 888.22,-18.08 877.83,-16.05 878.83,-22.98"/>
</a>
</g>
</g>
</g>
</svg>
