<?xml version="1.0" encoding="UTF-8" standalone="no"?>
<!DOCTYPE svg PUBLIC "-//W3C//DTD SVG 1.1//EN"
 "http://www.w3.org/Graphics/SVG/1.1/DTD/svg11.dtd">
<!-- Generated by graphviz version 9.0.0 (20230911.1827)
 -->
<!-- Title: TCalibrateDescant.h Pages: 1 -->
<!--zoomable 248 -->

<svg id="main" version="1.1" xmlns="http://www.w3.org/2000/svg" xmlns:xlink="http://www.w3.org/1999/xlink" xml:space="preserve" onload="init(evt)">
<style type="text/css"><![CDATA[
.node, .edge {opacity: 0.7;}
.node.selected, .edge.selected {opacity: 1;}
.edge:hover path { stroke: red; }
.edge:hover polygon { stroke: red; fill: red; }
]]></style>

<defs>
  <circle id="rim" cx="0" cy="0" r="7"/>
  <circle id="rim2" cx="0" cy="0" r="3.5"/>
  <g id="zoomPlus">
    <use xlink:href="#rim" fill="#404040"><set attributeName="fill" to="#808080" begin="zoomplus.mouseover" end="zoomplus.mouseout"/></use>
    <path d="M-4,0h8M0,-4v8" fill="none" stroke="white" stroke-width="1.5" pointer-events="none"/>
  </g>
  <g id="zoomMin">
    <use xlink:href="#rim" fill="#404040"><set attributeName="fill" to="#808080" begin="zoomminus.mouseover" end="zoomminus.mouseout"/></use>
    <path d="M-4,0h8" fill="none" stroke="white" stroke-width="1.5" pointer-events="none"/>
  </g>
  <g id="arrowUp" transform="translate(30 24)">
    <use xlink:href="#rim"/>
    <path pointer-events="none" fill="none" stroke="white" stroke-width="1.5" d="M0,-3.0v7 M-2.5,-0.5L0,-3.0L2.5,-0.5"/>
  </g>
  <g id="arrowRight" transform="rotate(90) translate(36 -43)">
    <use xlink:href="#rim"/>
    <path pointer-events="none" fill="none" stroke="white" stroke-width="1.5" d="M0,-3.0v7 M-2.5,-0.5L0,-3.0L2.5,-0.5"/>
  </g>
  <g id="arrowDown" transform="rotate(180) translate(-30 -48)">
    <use xlink:href="#rim"/>
    <path pointer-events="none" fill="none" stroke="white" stroke-width="1.5" d="M0,-3.0v7 M-2.5,-0.5L0,-3.0L2.5,-0.5"/>
  </g>
  <g id="arrowLeft" transform="rotate(270) translate(-36 17)">
    <use xlink:href="#rim"/>
    <path pointer-events="none" fill="none" stroke="white" stroke-width="1.5" d="M0,-3.0v7 M-2.5,-0.5L0,-3.0L2.5,-0.5"/>
  </g>
  <g id="resetDef">
    <use xlink:href="#rim2" fill="#404040"><set attributeName="fill" to="#808080" begin="reset.mouseover" end="reset.mouseout"/></use>
  </g>
</defs>
<script type="application/ecmascript">
var viewWidth = 1297;
var viewHeight = 248;
var sectionId = 'dynsection-0';
</script>
<script type="application/ecmascript" xlink:href="svg.min.js"/>
<svg id="graph" class="graph">
<g id="viewport">
<title>TCalibrateDescant.h</title>
<!-- Node1 -->
<g id="Node000001" class="node">
<title>Node1</title>
<g id="a_Node000001"><a xlink:title=" ">
<polygon fill="#999999" stroke="#666666" points="710.25,-240.25 606.5,-240.25 606.5,-221 710.25,-221 710.25,-240.25"/>
<text text-anchor="middle" x="658.38" y="-226.75" font-family="Helvetica,sans-Serif" font-size="10.00">TCalibrateDescant.h</text>
</a>
</g>
</g>
<!-- Node2 -->
<g id="Node000002" class="node">
<title>Node2</title>
<g id="a_Node000002"><a xlink:title=" ">
<polygon fill="#e0e0e0" stroke="#999999" points="64.75,-185 0,-185 0,-165.75 64.75,-165.75 64.75,-185"/>
<text text-anchor="middle" x="32.38" y="-171.5" font-family="Helvetica,sans-Serif" font-size="10.00">TGFrame.h</text>
</a>
</g>
</g>
<!-- Node1&#45;&gt;Node2 -->
<g id="edge1_Node000001_Node000002" class="edge">
<title>Node1&#45;&gt;Node2</title>
<g id="a_edge1_Node000001_Node000002"><a xlink:title=" ">
<path fill="none" stroke="#63b8ff" d="M606.18,-227.85C505.62,-223.95 277.9,-212.79 75.98,-185.02"/>
<polygon fill="#63b8ff" stroke="#63b8ff" points="76.75,-181.59 66.36,-183.68 75.78,-188.53 76.75,-181.59"/>
</a>
</g>
</g>
<!-- Node3 -->
<g id="Node000003" class="node">
<title>Node3</title>
<g id="a_Node000003"><a xlink:title=" ">
<polygon fill="#e0e0e0" stroke="#999999" points="211.62,-185 83.12,-185 83.12,-165.75 211.62,-165.75 211.62,-185"/>
<text text-anchor="middle" x="147.38" y="-171.5" font-family="Helvetica,sans-Serif" font-size="10.00">TRootEmbeddedCanvas.h</text>
</a>
</g>
</g>
<!-- Node1&#45;&gt;Node3 -->
<g id="edge2_Node000001_Node000003" class="edge">
<title>Node1&#45;&gt;Node3</title>
<g id="a_edge2_Node000001_Node000003"><a xlink:title=" ">
<path fill="none" stroke="#63b8ff" d="M606.22,-224.54C526.33,-216.7 368.57,-201.01 223.27,-185.19"/>
<polygon fill="#63b8ff" stroke="#63b8ff" points="223.77,-181.73 213.45,-184.12 223.01,-188.68 223.77,-181.73"/>
</a>
</g>
</g>
<!-- Node4 -->
<g id="Node000004" class="node">
<title>Node4</title>
<g id="a_Node000004"><a xlink:title=" ">
<polygon fill="#e0e0e0" stroke="#999999" points="310.62,-185 230.12,-185 230.12,-165.75 310.62,-165.75 310.62,-185"/>
<text text-anchor="middle" x="270.38" y="-171.5" font-family="Helvetica,sans-Serif" font-size="10.00">TGStatusBar.h</text>
</a>
</g>
</g>
<!-- Node1&#45;&gt;Node4 -->
<g id="edge3_Node000001_Node000004" class="edge">
<title>Node1&#45;&gt;Node4</title>
<g id="a_edge3_Node000001_Node000004"><a xlink:title=" ">
<path fill="none" stroke="#63b8ff" d="M606.01,-223.45C541.6,-215.69 428.64,-201.57 322.26,-185.39"/>
<polygon fill="#63b8ff" stroke="#63b8ff" points="322.91,-181.95 312.49,-183.89 321.85,-188.87 322.91,-181.95"/>
</a>
</g>
</g>
<!-- Node5 -->
<g id="Node000005" class="node">
<title>Node5</title>
<g id="a_Node000005"><a xlink:title=" ">
<polygon fill="#e0e0e0" stroke="#999999" points="394.12,-185 328.62,-185 328.62,-165.75 394.12,-165.75 394.12,-185"/>
<text text-anchor="middle" x="361.38" y="-171.5" font-family="Helvetica,sans-Serif" font-size="10.00">TGButton.h</text>
</a>
</g>
</g>
<!-- Node1&#45;&gt;Node5 -->
<g id="edge4_Node000001_Node000005" class="edge">
<title>Node1&#45;&gt;Node5</title>
<g id="a_edge4_Node000001_Node000005"><a xlink:title=" ">
<path fill="none" stroke="#63b8ff" d="M606.04,-220.93C556.85,-212.65 480.89,-199.6 405.49,-185.36"/>
<polygon fill="#63b8ff" stroke="#63b8ff" points="406.34,-181.95 395.86,-183.53 405.03,-188.83 406.34,-181.95"/>
</a>
</g>
</g>
<!-- Node6 -->
<g id="Node000006" class="node">
<title>Node6</title>
<g id="a_Node000006"><a xlink:title=" ">
<polygon fill="#e0e0e0" stroke="#999999" points="498.25,-185 412.5,-185 412.5,-165.75 498.25,-165.75 498.25,-185"/>
<text text-anchor="middle" x="455.38" y="-171.5" font-family="Helvetica,sans-Serif" font-size="10.00">TGTripleSlider.h</text>
</a>
</g>
</g>
<!-- Node1&#45;&gt;Node6 -->
<g id="edge5_Node000001_Node000006" class="edge">
<title>Node1&#45;&gt;Node6</title>
<g id="a_edge5_Node000001_Node000006"><a xlink:title=" ">
<path fill="none" stroke="#63b8ff" d="M623.94,-220.59C590.11,-211.72 538.29,-198.12 501.04,-188.35"/>
<polygon fill="#63b8ff" stroke="#63b8ff" points="502,-184.99 491.44,-185.84 500.23,-191.76 502,-184.99"/>
</a>
</g>
</g>
<!-- Node7 -->
<g id="Node000007" class="node">
<title>Node7</title>
<g id="a_Node000007"><a xlink:title=" ">
<polygon fill="#e0e0e0" stroke="#999999" points="610,-185 516.75,-185 516.75,-165.75 610,-165.75 610,-185"/>
<text text-anchor="middle" x="563.38" y="-171.5" font-family="Helvetica,sans-Serif" font-size="10.00">TGNumberEntry.h</text>
</a>
</g>
</g>
<!-- Node1&#45;&gt;Node7 -->
<g id="edge6_Node000001_Node000007" class="edge">
<title>Node1&#45;&gt;Node7</title>
<g id="a_edge6_Node000001_Node000007"><a xlink:title=" ">
<path fill="none" stroke="#63b8ff" d="M642.26,-220.59C627.79,-212.48 606.3,-200.43 589.39,-190.96"/>
<polygon fill="#63b8ff" stroke="#63b8ff" points="591.32,-188.03 580.89,-186.19 587.9,-194.14 591.32,-188.03"/>
</a>
</g>
</g>
<!-- Node8 -->
<g id="Node000008" class="node">
<title>Node8</title>
<g id="a_Node000008"><a xlink:title=" ">
<polygon fill="#e0e0e0" stroke="#999999" points="688.88,-185 627.88,-185 627.88,-165.75 688.88,-165.75 688.88,-185"/>
<text text-anchor="middle" x="658.38" y="-171.5" font-family="Helvetica,sans-Serif" font-size="10.00">TGLabel.h</text>
</a>
</g>
</g>
<!-- Node1&#45;&gt;Node8 -->
<g id="edge7_Node000001_Node000008" class="edge">
<title>Node1&#45;&gt;Node8</title>
<g id="a_edge7_Node000001_Node000008"><a xlink:title=" ">
<path fill="none" stroke="#63b8ff" d="M658.38,-220.83C658.38,-214.32 658.38,-205.17 658.38,-196.87"/>
<polygon fill="#63b8ff" stroke="#63b8ff" points="661.88,-196.87 658.38,-186.87 654.88,-196.87 661.88,-196.87"/>
</a>
</g>
</g>
<!-- Node9 -->
<g id="Node000009" class="node">
<title>Node9</title>
<g id="a_Node000009"><a xlink:title=" ">
<polygon fill="#e0e0e0" stroke="#999999" points="755.88,-185 706.88,-185 706.88,-165.75 755.88,-165.75 755.88,-185"/>
<text text-anchor="middle" x="731.38" y="-171.5" font-family="Helvetica,sans-Serif" font-size="10.00">TH1D.h</text>
</a>
</g>
</g>
<!-- Node1&#45;&gt;Node9 -->
<g id="edge8_Node000001_Node000009" class="edge">
<title>Node1&#45;&gt;Node9</title>
<g id="a_edge8_Node000001_Node000009"><a xlink:title=" ">
<path fill="none" stroke="#63b8ff" d="M670.76,-220.59C681.52,-212.74 697.35,-201.2 710.13,-191.87"/>
<polygon fill="#63b8ff" stroke="#63b8ff" points="711.94,-194.89 717.95,-186.17 707.81,-189.23 711.94,-194.89"/>
</a>
</g>
</g>
<!-- Node10 -->
<g id="Node000010" class="node">
<title>Node10</title>
<g id="a_Node000010"><a xlink:title=" ">
<polygon fill="#e0e0e0" stroke="#999999" points="883.5,-19.25 841.25,-19.25 841.25,0 883.5,0 883.5,-19.25"/>
<text text-anchor="middle" x="862.38" y="-5.75" font-family="Helvetica,sans-Serif" font-size="10.00">TH2.h</text>
</a>
</g>
</g>
<!-- Node1&#45;&gt;Node10 -->
<g id="edge9_Node000001_Node000010" class="edge">
<title>Node1&#45;&gt;Node10</title>
<g id="a_edge9_Node000001_Node000010"><a xlink:title=" ">
<path fill="none" stroke="#63b8ff" d="M710.35,-220.58C730.75,-214.21 752.17,-203.38 764.38,-185 782.75,-157.33 745.35,-141.06 758.38,-110.5 774.4,-72.89 812.31,-42.62 837.65,-25.63"/>
<polygon fill="#63b8ff" stroke="#63b8ff" points="839.24,-28.77 845.73,-20.4 835.43,-22.9 839.24,-28.77"/>
</a>
</g>
</g>
<!-- Node11 -->
<g id="Node000011" class="node">
<title>Node11</title>
<g id="a_Node000011"><a xlink:title=" ">
<polygon fill="#e0e0e0" stroke="#999999" points="979.75,-185 939,-185 939,-165.75 979.75,-165.75 979.75,-185"/>
<text text-anchor="middle" x="959.38" y="-171.5" font-family="Helvetica,sans-Serif" font-size="10.00">TF1.h</text>
</a>
</g>
</g>
<!-- Node1&#45;&gt;Node11 -->
<g id="edge10_Node000001_Node000011" class="edge">
<title>Node1&#45;&gt;Node11</title>
<g id="a_edge10_Node000001_Node000011"><a xlink:title=" ">
<path fill="none" stroke="#63b8ff" d="M710.65,-223.05C763.33,-215.98 847.12,-203.52 927.72,-185.39"/>
<polygon fill="#63b8ff" stroke="#63b8ff" points="928.11,-188.89 937.07,-183.25 926.55,-182.07 928.11,-188.89"/>
</a>
</g>
</g>
<!-- Node12 -->
<g id="Node000012" class="node">
<title>Node12</title>
<g id="a_Node000012"><a xlink:title=" ">
<polygon fill="#e0e0e0" stroke="#999999" points="1079,-185 997.75,-185 997.75,-165.75 1079,-165.75 1079,-185"/>
<text text-anchor="middle" x="1038.38" y="-171.5" font-family="Helvetica,sans-Serif" font-size="10.00">TGraphErrors.h</text>
</a>
</g>
</g>
<!-- Node1&#45;&gt;Node12 -->
<g id="edge11_Node000001_Node000012" class="edge">
<title>Node1&#45;&gt;Node12</title>
<g id="a_edge11_Node000001_Node000012"><a xlink:title=" ">
<path fill="none" stroke="#63b8ff" d="M710.47,-223.18C773.29,-215.27 882.37,-201.11 986.14,-185.29"/>
<polygon fill="#63b8ff" stroke="#63b8ff" points="986.61,-188.76 995.97,-183.79 985.55,-181.84 986.61,-188.76"/>
</a>
</g>
</g>
<!-- Node13 -->
<g id="Node000013" class="node">
<title>Node13</title>
<g id="a_Node000013"><a xlink:title=" ">
<polygon fill="#e0e0e0" stroke="#999999" points="1148,-185 1096.75,-185 1096.75,-165.75 1148,-165.75 1148,-185"/>
<text text-anchor="middle" x="1122.38" y="-171.5" font-family="Helvetica,sans-Serif" font-size="10.00">TMath.h</text>
</a>
</g>
</g>
<!-- Node1&#45;&gt;Node13 -->
<g id="edge12_Node000001_Node000013" class="edge">
<title>Node1&#45;&gt;Node13</title>
<g id="a_edge12_Node000001_Node000013"><a xlink:title=" ">
<path fill="none" stroke="#63b8ff" d="M710.67,-226.65C789.9,-221.61 945.19,-209.63 1085.53,-185.29"/>
<polygon fill="#63b8ff" stroke="#63b8ff" points="1085.74,-188.8 1094.98,-183.62 1084.52,-181.91 1085.74,-188.8"/>
</a>
</g>
</g>
<!-- Node14 -->
<g id="Node000014" class="node">
<title>Node14</title>
<g id="a_Node000014"><a xlink:href="_g_canvas_8h.html" target="_top" xlink:title=" ">
<polygon fill="white" stroke="#666666" points="921.38,-185 857.38,-185 857.38,-165.75 921.38,-165.75 921.38,-185"/>
<text text-anchor="middle" x="889.38" y="-171.5" font-family="Helvetica,sans-Serif" font-size="10.00">GCanvas.h</text>
</a>
</g>
</g>
<!-- Node1&#45;&gt;Node14 -->
<g id="edge13_Node000001_Node000014" class="edge">
<title>Node1&#45;&gt;Node14</title>
<g id="a_edge13_Node000001_Node000014"><a xlink:title=" ">
<path fill="none" stroke="#63b8ff" d="M697.82,-220.53C739.02,-211.04 803.45,-196.18 846.04,-186.36"/>
<polygon fill="#63b8ff" stroke="#63b8ff" points="846.73,-189.8 855.69,-184.14 845.16,-182.98 846.73,-189.8"/>
</a>
</g>
</g>
<!-- Node15 -->
<g id="Node000015" class="node">
<title>Node15</title>
<g id="a_Node000015"><a xlink:title=" ">
<polygon fill="#e0e0e0" stroke="#999999" points="1186,-129.75 1128.75,-129.75 1128.75,-110.5 1186,-110.5 1186,-129.75"/>
<text text-anchor="middle" x="1157.38" y="-116.25" font-family="Helvetica,sans-Serif" font-size="10.00">TROOT.h</text>
</a>
</g>
</g>
<!-- Node14&#45;&gt;Node15 -->
<g id="edge14_Node000014_Node000015" class="edge">
<title>Node14&#45;&gt;Node15</title>
<g id="a_edge14_Node000014_Node000015"><a xlink:title=" ">
<path fill="none" stroke="#63b8ff" d="M921.59,-167.54C924.56,-166.93 927.52,-166.32 930.38,-165.75 1010.78,-149.64 1033.8,-147.38 1117.3,-130.12"/>
<polygon fill="#63b8ff" stroke="#63b8ff" points="1117.79,-133.59 1126.87,-128.13 1116.37,-126.74 1117.79,-133.59"/>
</a>
</g>
</g>
<!-- Node16 -->
<g id="Node000016" class="node">
<title>Node16</title>
<g id="a_Node000016"><a xlink:title=" ">
<polygon fill="#e0e0e0" stroke="#999999" points="1266.62,-129.75 1204.12,-129.75 1204.12,-110.5 1266.62,-110.5 1266.62,-129.75"/>
<text text-anchor="middle" x="1235.38" y="-116.25" font-family="Helvetica,sans-Serif" font-size="10.00">TCanvas.h</text>
</a>
</g>
</g>
<!-- Node14&#45;&gt;Node16 -->
<g id="edge15_Node000014_Node000016" class="edge">
<title>Node14&#45;&gt;Node16</title>
<g id="a_edge15_Node000014_Node000016"><a xlink:title=" ">
<path fill="none" stroke="#63b8ff" d="M921.56,-167.37C924.54,-166.8 927.51,-166.25 930.38,-165.75 1043.95,-146.12 1076.36,-150.02 1192.82,-130.07"/>
<polygon fill="#63b8ff" stroke="#63b8ff" points="1193.23,-133.56 1202.49,-128.39 1192.03,-126.66 1193.23,-133.56"/>
</a>
</g>
</g>
<!-- Node17 -->
<g id="Node000017" class="node">
<title>Node17</title>
<g id="a_Node000017"><a xlink:title=" ">
<polygon fill="#e0e0e0" stroke="#999999" points="849.75,-129.75 767,-129.75 767,-110.5 849.75,-110.5 849.75,-129.75"/>
<text text-anchor="middle" x="808.38" y="-116.25" font-family="Helvetica,sans-Serif" font-size="10.00">TRootCanvas.h</text>
</a>
</g>
</g>
<!-- Node14&#45;&gt;Node17 -->
<g id="edge16_Node000014_Node000017" class="edge">
<title>Node14&#45;&gt;Node17</title>
<g id="a_edge16_Node000014_Node000017"><a xlink:title=" ">
<path fill="none" stroke="#63b8ff" d="M875.63,-165.34C863.65,-157.46 846,-145.86 831.79,-136.52"/>
<polygon fill="#63b8ff" stroke="#63b8ff" points="833.73,-133.6 823.45,-131.03 829.88,-139.45 833.73,-133.6"/>
</a>
</g>
</g>
<!-- Node18 -->
<g id="Node000018" class="node">
<title>Node18</title>
<g id="a_Node000018"><a xlink:title=" ">
<polygon fill="#e0e0e0" stroke="#999999" points="910.5,-129.75 868.25,-129.75 868.25,-110.5 910.5,-110.5 910.5,-129.75"/>
<text text-anchor="middle" x="889.38" y="-116.25" font-family="Helvetica,sans-Serif" font-size="10.00">TH1.h</text>
</a>
</g>
</g>
<!-- Node14&#45;&gt;Node18 -->
<g id="edge17_Node000014_Node000018" class="edge">
<title>Node14&#45;&gt;Node18</title>
<g id="a_edge17_Node000014_Node000018"><a xlink:title=" ">
<path fill="none" stroke="#63b8ff" d="M889.38,-165.58C889.38,-159.07 889.38,-149.92 889.38,-141.62"/>
<polygon fill="#63b8ff" stroke="#63b8ff" points="892.88,-141.62 889.38,-131.62 885.88,-141.62 892.88,-141.62"/>
</a>
</g>
</g>
<!-- Node19 -->
<g id="Node000019" class="node">
<title>Node19</title>
<g id="a_Node000019"><a xlink:title=" ">
<polygon fill="#e0e0e0" stroke="#999999" points="976.5,-129.75 928.25,-129.75 928.25,-110.5 976.5,-110.5 976.5,-129.75"/>
<text text-anchor="middle" x="952.38" y="-116.25" font-family="Helvetica,sans-Serif" font-size="10.00">TLine.h</text>
</a>
</g>
</g>
<!-- Node14&#45;&gt;Node19 -->
<g id="edge18_Node000014_Node000019" class="edge">
<title>Node14&#45;&gt;Node19</title>
<g id="a_edge18_Node000014_Node000019"><a xlink:title=" ">
<path fill="none" stroke="#63b8ff" d="M900.06,-165.34C909.08,-157.72 922.21,-146.62 933.06,-137.45"/>
<polygon fill="#63b8ff" stroke="#63b8ff" points="935.31,-140.13 940.69,-131 930.79,-134.78 935.31,-140.13"/>
</a>
</g>
</g>
<!-- Node20 -->
<g id="Node000020" class="node">
<title>Node20</title>
<g id="a_Node000020"><a xlink:title=" ">
<polygon fill="#e0e0e0" stroke="#999999" points="1046.38,-129.75 994.38,-129.75 994.38,-110.5 1046.38,-110.5 1046.38,-129.75"/>
<text text-anchor="middle" x="1020.38" y="-116.25" font-family="Helvetica,sans-Serif" font-size="10.00">TCutG.h</text>
</a>
</g>
</g>
<!-- Node14&#45;&gt;Node20 -->
<g id="edge19_Node000014_Node000020" class="edge">
<title>Node14&#45;&gt;Node20</title>
<g id="a_edge19_Node000014_Node000020"><a xlink:title=" ">
<path fill="none" stroke="#63b8ff" d="M911.6,-165.34C932.39,-156.89 963.72,-144.15 987.43,-134.52"/>
<polygon fill="#63b8ff" stroke="#63b8ff" points="988.7,-137.78 996.64,-130.77 986.06,-131.3 988.7,-137.78"/>
</a>
</g>
</g>
<!-- Node21 -->
<g id="Node000021" class="node">
<title>Node21</title>
<g id="a_Node000021"><a xlink:href="_g_h2_i_8h.html" target="_top" xlink:title=" ">
<polygon fill="white" stroke="#666666" points="1110.75,-129.75 1064,-129.75 1064,-110.5 1110.75,-110.5 1110.75,-129.75"/>
<text text-anchor="middle" x="1087.38" y="-116.25" font-family="Helvetica,sans-Serif" font-size="10.00">GH2I.h</text>
</a>
</g>
</g>
<!-- Node14&#45;&gt;Node21 -->
<g id="edge20_Node000014_Node000021" class="edge">
<title>Node14&#45;&gt;Node21</title>
<g id="a_edge20_Node000014_Node000021"><a xlink:title=" ">
<path fill="none" stroke="#63b8ff" d="M921.82,-165.66C953.06,-157.27 1001.94,-144.13 1052.74,-130.46"/>
<polygon fill="#63b8ff" stroke="#63b8ff" points="1053.4,-133.9 1062.15,-127.93 1051.58,-127.15 1053.4,-133.9"/>
</a>
</g>
</g>
<!-- Node21&#45;&gt;Node10 -->
<g id="edge24_Node000021_Node000010" class="edge">
<title>Node21&#45;&gt;Node10</title>
<g id="a_edge24_Node000021_Node000010"><a xlink:title=" ">
<path fill="none" stroke="#63b8ff" d="M1063.74,-112.48C1022.48,-100.82 941.12,-77.65 935.38,-74.5 912.88,-62.15 891.3,-41.87 877.52,-27.48"/>
<polygon fill="#63b8ff" stroke="#63b8ff" points="880.41,-25.45 871.04,-20.51 875.28,-30.22 880.41,-25.45"/>
</a>
</g>
</g>
<!-- Node22 -->
<g id="Node000022" class="node">
<title>Node22</title>
<g id="a_Node000022"><a xlink:title=" ">
<polygon fill="#e0e0e0" stroke="#999999" points="963.5,-19.25 921.25,-19.25 921.25,0 963.5,0 963.5,-19.25"/>
<text text-anchor="middle" x="942.38" y="-5.75" font-family="Helvetica,sans-Serif" font-size="10.00">cstdio</text>
</a>
</g>
</g>
<!-- Node21&#45;&gt;Node22 -->
<g id="edge21_Node000021_Node000022" class="edge">
<title>Node21&#45;&gt;Node22</title>
<g id="a_edge21_Node000021_Node000022"><a xlink:title=" ">
<path fill="none" stroke="#63b8ff" d="M1063.64,-112.24C1024.93,-100.92 952.1,-79.13 948.38,-74.5 938.65,-62.4 937.74,-44.55 938.92,-30.79"/>
<polygon fill="#63b8ff" stroke="#63b8ff" points="942.36,-31.46 940.21,-21.09 935.42,-30.54 942.36,-31.46"/>
</a>
</g>
</g>
<!-- Node23 -->
<g id="Node000023" class="node">
<title>Node23</title>
<g id="a_Node000023"><a xlink:title=" ">
<polygon fill="#e0e0e0" stroke="#999999" points="1055.75,-19.25 1021,-19.25 1021,0 1055.75,0 1055.75,-19.25"/>
<text text-anchor="middle" x="1038.38" y="-5.75" font-family="Helvetica,sans-Serif" font-size="10.00">map</text>
</a>
</g>
</g>
<!-- Node21&#45;&gt;Node23 -->
<g id="edge22_Node000021_Node000023" class="edge">
<title>Node21&#45;&gt;Node23</title>
<g id="a_edge22_Node000021_Node000023"><a xlink:title=" ">
<path fill="none" stroke="#63b8ff" d="M1063.53,-112.56C1027.77,-102.47 963.74,-83.41 957.38,-74.5 939.93,-50.07 980.04,-30.25 1009.83,-19.48"/>
<polygon fill="#63b8ff" stroke="#63b8ff" points="1010.83,-22.83 1019.16,-16.29 1008.57,-16.21 1010.83,-22.83"/>
</a>
</g>
</g>
<!-- Node24 -->
<g id="Node000024" class="node">
<title>Node24</title>
<g id="a_Node000024"><a xlink:title=" ">
<polygon fill="#e0e0e0" stroke="#999999" points="1224.88,-19.25 1163.88,-19.25 1163.88,0 1224.88,0 1224.88,-19.25"/>
<text text-anchor="middle" x="1194.38" y="-5.75" font-family="Helvetica,sans-Serif" font-size="10.00">TNamed.h</text>
</a>
</g>
</g>
<!-- Node21&#45;&gt;Node24 -->
<g id="edge23_Node000021_Node000024" class="edge">
<title>Node21&#45;&gt;Node24</title>
<g id="a_edge23_Node000021_Node000024"><a xlink:title=" ">
<path fill="none" stroke="#63b8ff" d="M1111.15,-112.03C1144.96,-101.71 1203.53,-82.86 1209.38,-74.5 1218.64,-61.24 1213.01,-43.03 1206.16,-29.45"/>
<polygon fill="#63b8ff" stroke="#63b8ff" points="1209.38,-28.03 1201.41,-21.05 1203.28,-31.47 1209.38,-28.03"/>
</a>
</g>
</g>
<!-- Node25 -->
<g id="Node000025" class="node">
<title>Node25</title>
<g id="a_Node000025"><a xlink:title=" ">
<polygon fill="#e0e0e0" stroke="#999999" points="1289.38,-19.25 1243.38,-19.25 1243.38,0 1289.38,0 1289.38,-19.25"/>
<text text-anchor="middle" x="1266.38" y="-5.75" font-family="Helvetica,sans-Serif" font-size="10.00">TList.h</text>
</a>
</g>
</g>
<!-- Node21&#45;&gt;Node25 -->
<g id="edge25_Node000021_Node000025" class="edge">
<title>Node21&#45;&gt;Node25</title>
<g id="a_edge25_Node000021_Node000025"><a xlink:title=" ">
<path fill="none" stroke="#63b8ff" d="M1111.2,-112.37C1148.19,-101.75 1216.15,-81.61 1225.38,-74.5 1240.53,-62.82 1251.68,-43.85 1258.5,-29.61"/>
<polygon fill="#63b8ff" stroke="#63b8ff" points="1261.54,-31.37 1262.41,-20.81 1255.15,-28.52 1261.54,-31.37"/>
</a>
</g>
</g>
<!-- Node26 -->
<g id="Node000026" class="node">
<title>Node26</title>
<g id="a_Node000026"><a xlink:title=" ">
<polygon fill="#e0e0e0" stroke="#999999" points="1040.62,-74.5 966.12,-74.5 966.12,-55.25 1040.62,-55.25 1040.62,-74.5"/>
<text text-anchor="middle" x="1003.38" y="-61" font-family="Helvetica,sans-Serif" font-size="10.00">TVirtualPad.h</text>
</a>
</g>
</g>
<!-- Node21&#45;&gt;Node26 -->
<g id="edge26_Node000021_Node000026" class="edge">
<title>Node21&#45;&gt;Node26</title>
<g id="a_edge26_Node000021_Node000026"><a xlink:title=" ">
<path fill="none" stroke="#63b8ff" d="M1073.13,-110.09C1060.58,-102.14 1042.04,-90.39 1027.23,-81"/>
<polygon fill="#63b8ff" stroke="#63b8ff" points="1029.29,-78.16 1018.97,-75.76 1025.54,-84.07 1029.29,-78.16"/>
</a>
</g>
</g>
<!-- Node27 -->
<g id="Node000027" class="node">
<title>Node27</title>
<g id="a_Node000027"><a xlink:title=" ">
<polygon fill="#e0e0e0" stroke="#999999" points="1116,-74.5 1058.75,-74.5 1058.75,-55.25 1116,-55.25 1116,-74.5"/>
<text text-anchor="middle" x="1087.38" y="-61" font-family="Helvetica,sans-Serif" font-size="10.00">TFrame.h</text>
</a>
</g>
</g>
<!-- Node21&#45;&gt;Node27 -->
<g id="edge27_Node000021_Node000027" class="edge">
<title>Node21&#45;&gt;Node27</title>
<g id="a_edge27_Node000021_Node000027"><a xlink:title=" ">
<path fill="none" stroke="#63b8ff" d="M1087.38,-110.33C1087.38,-103.82 1087.38,-94.67 1087.38,-86.37"/>
<polygon fill="#63b8ff" stroke="#63b8ff" points="1090.88,-86.37 1087.38,-76.37 1083.88,-86.37 1090.88,-86.37"/>
</a>
</g>
</g>
<!-- Node28 -->
<g id="Node000028" class="node">
<title>Node28</title>
<g id="a_Node000028"><a xlink:href="_g_h2_base_8h.html" target="_top" xlink:title=" ">
<polygon fill="white" stroke="#666666" points="1200.5,-74.5 1134.25,-74.5 1134.25,-55.25 1200.5,-55.25 1200.5,-74.5"/>
<text text-anchor="middle" x="1167.38" y="-61" font-family="Helvetica,sans-Serif" font-size="10.00">GH2Base.h</text>
</a>
</g>
</g>
<!-- Node21&#45;&gt;Node28 -->
<g id="edge28_Node000021_Node000028" class="edge">
<title>Node21&#45;&gt;Node28</title>
<g id="a_edge28_Node000021_Node000028"><a xlink:title=" ">
<path fill="none" stroke="#63b8ff" d="M1100.95,-110.09C1112.78,-102.21 1130.21,-90.61 1144.25,-81.27"/>
<polygon fill="#63b8ff" stroke="#63b8ff" points="1146.09,-84.25 1152.48,-75.79 1142.21,-78.42 1146.09,-84.25"/>
</a>
</g>
</g>
<!-- Node28&#45;&gt;Node10 -->
<g id="edge33_Node000028_Node000010" class="edge">
<title>Node28&#45;&gt;Node10</title>
<g id="a_edge33_Node000028_Node000010"><a xlink:title=" ">
<path fill="none" stroke="#63b8ff" d="M1133.93,-56.9C1131.04,-56.33 1128.16,-55.77 1125.38,-55.25 1031,-37.59 1007.01,-35.41 912.38,-19.25 906.66,-18.27 900.58,-17.23 894.7,-16.22"/>
<polygon fill="#63b8ff" stroke="#63b8ff" points="895.72,-12.84 885.28,-14.59 894.53,-19.74 895.72,-12.84"/>
</a>
</g>
</g>
<!-- Node28&#45;&gt;Node22 -->
<g id="edge29_Node000028_Node000022" class="edge">
<title>Node28&#45;&gt;Node22</title>
<g id="a_edge29_Node000028_Node000022"><a xlink:title=" ">
<path fill="none" stroke="#63b8ff" d="M1134.18,-56.02C1091.38,-45.89 1017.44,-28.39 974.95,-18.33"/>
<polygon fill="#63b8ff" stroke="#63b8ff" points="975.86,-14.95 965.32,-16.06 974.25,-21.77 975.86,-14.95"/>
</a>
</g>
</g>
<!-- Node28&#45;&gt;Node23 -->
<g id="edge31_Node000028_Node000023" class="edge">
<title>Node28&#45;&gt;Node23</title>
<g id="a_edge31_Node000028_Node000023"><a xlink:title=" ">
<path fill="none" stroke="#63b8ff" d="M1145.49,-54.84C1123.77,-45.88 1090.38,-32.09 1066.66,-22.3"/>
<polygon fill="#63b8ff" stroke="#63b8ff" points="1068.18,-19.14 1057.6,-18.56 1065.51,-25.61 1068.18,-19.14"/>
</a>
</g>
</g>
<!-- Node28&#45;&gt;Node24 -->
<g id="edge32_Node000028_Node000024" class="edge">
<title>Node28&#45;&gt;Node24</title>
<g id="a_edge32_Node000028_Node000024"><a xlink:title=" ">
<path fill="none" stroke="#63b8ff" d="M1171.83,-55.08C1175.33,-48.19 1180.32,-38.34 1184.72,-29.66"/>
<polygon fill="#63b8ff" stroke="#63b8ff" points="1187.73,-31.46 1189.14,-20.96 1181.49,-28.3 1187.73,-31.46"/>
</a>
</g>
</g>
<!-- Node28&#45;&gt;Node25 -->
<g id="edge34_Node000028_Node000025" class="edge">
<title>Node28&#45;&gt;Node25</title>
<g id="a_edge34_Node000028_Node000025"><a xlink:title=" ">
<path fill="none" stroke="#63b8ff" d="M1184.17,-54.84C1199.39,-46.66 1222.07,-34.46 1239.76,-24.94"/>
<polygon fill="#63b8ff" stroke="#63b8ff" points="1241.02,-28.24 1248.17,-20.42 1237.7,-22.07 1241.02,-28.24"/>
</a>
</g>
</g>
<!-- Node29 -->
<g id="Node000029" class="node">
<title>Node29</title>
<g id="a_Node000029"><a xlink:title=" ">
<polygon fill="#e0e0e0" stroke="#999999" points="1146.12,-19.25 1092.62,-19.25 1092.62,0 1146.12,0 1146.12,-19.25"/>
<text text-anchor="middle" x="1119.38" y="-5.75" font-family="Helvetica,sans-Serif" font-size="10.00">iostream</text>
</a>
</g>
</g>
<!-- Node28&#45;&gt;Node29 -->
<g id="edge30_Node000028_Node000029" class="edge">
<title>Node28&#45;&gt;Node29</title>
<g id="a_edge30_Node000028_Node000029"><a xlink:title=" ">
<path fill="none" stroke="#63b8ff" d="M1159.45,-55.08C1152.82,-47.73 1143.16,-37.01 1134.99,-27.94"/>
<polygon fill="#63b8ff" stroke="#63b8ff" points="1137.78,-25.82 1128.49,-20.73 1132.58,-30.5 1137.78,-25.82"/>
</a>
</g>
</g>
</g>
</svg>

<g id="navigator" transform="translate(0 0)" fill="#404254">
  <rect fill="#f2f5e9" fill-opacity="0.5" stroke="#606060" stroke-width=".5" x="0" y="0" width="60" height="60"/>
  <use id="zoomplus" xlink:href="#zoomPlus" x="17" y="9" onmousedown="handleZoom(evt,'in')"/>
  <use id="zoomminus" xlink:href="#zoomMin" x="42" y="9" onmousedown="handleZoom(evt,'out')"/>
  <use id="reset" xlink:href="#resetDef" x="30" y="36" onmousedown="handleReset()"/>
   <use id="arrowup" xlink:href="#arrowUp" x="0" y="0" onmousedown="handlePan(0,-1)"/>
  <use id="arrowright" xlink:href="#arrowRight" x="0" y="0" onmousedown="handlePan(1,0)"/>
  <use id="arrowdown" xlink:href="#arrowDown" x="0" y="0" onmousedown="handlePan(0,1)"/>
  <use id="arrowleft" xlink:href="#arrowLeft" x="0" y="0" onmousedown="handlePan(-1,0)"/>
</g>
<svg viewBox="0 0 15 15" width="100%" height="30px" preserveAspectRatio="xMaxYMin meet">
 <g id="arrow_out" transform="scale(0.3 0.3)">
  <a xlink:href="_t_calibrate_descant_8h__incl_org.svg" target="_base">
   <rect id="button" ry="5" rx="5" y="6" x="6" height="38" width="38"
        fill="#f2f5e9" fill-opacity="0.5" stroke="#606060" stroke-width="1.0"/>
   <path id="arrow"
     d="M 11.500037,31.436501 C 11.940474,20.09759 22.043105,11.32322 32.158766,21.979434 L 37.068811,17.246167 C 37.068811,17.246167 37.088388,32 37.088388,32 L 22.160133,31.978069 C 22.160133,31.978069 26.997745,27.140456 26.997745,27.140456 C 18.528582,18.264221 13.291696,25.230495 11.500037,31.436501 z"
     style="fill:#404040;"/>
  </a>
 </g>
</svg>

<style type='text/css'>
<![CDATA[
[data-mouse-over-selected='false'] { opacity: 0.7; }
[data-mouse-over-selected='true']  { opacity: 1.0; }
]]>
</style>
<script type="application/ecmascript"><![CDATA[
document.addEventListener('DOMContentLoaded', (event) => {
  highlightEdges();
  highlightAdjacentNodes();
});
]]></script>
</svg>
