<?xml version="1.0" encoding="UTF-8" standalone="no"?>
<!DOCTYPE svg PUBLIC "-//W3C//DTD SVG 1.1//EN"
 "http://www.w3.org/Graphics/SVG/1.1/DTD/svg11.dtd">
<!-- Generated by graphviz version 12.2.0 (20241103.1931)
 -->
<!-- Title: TChannel.cxx Pages: 1 -->
<svg width="1705pt" height="248pt"
 viewBox="0.00 0.00 1704.72 248.25" xmlns="http://www.w3.org/2000/svg" xmlns:xlink="http://www.w3.org/1999/xlink">
<g id="graph0" class="graph" transform="scale(1 1) rotate(0) translate(4 244.25)">
<title>TChannel.cxx</title>
<!-- Node1 -->
<g id="Node000001" class="node">
<title>Node1</title>
<g id="a_Node000001"><a xlink:title=" ">
<polygon fill="#999999" stroke="#666666" points="1318.88,-240.25 1245.12,-240.25 1245.12,-221 1318.88,-221 1318.88,-240.25"/>
<text text-anchor="middle" x="1282" y="-226.75" font-family="Helvetica,sans-Serif" font-size="10.00">TChannel.cxx</text>
</a>
</g>
</g>
<!-- Node2 -->
<g id="Node000002" class="node">
<title>Node2</title>
<g id="a_Node000002"><a xlink:href="_t_channel_8h.html" target="_top" xlink:title=" ">
<polygon fill="white" stroke="#666666" points="746.38,-185 681.62,-185 681.62,-165.75 746.38,-165.75 746.38,-185"/>
<text text-anchor="middle" x="714" y="-171.5" font-family="Helvetica,sans-Serif" font-size="10.00">TChannel.h</text>
</a>
</g>
</g>
<!-- Node1&#45;&gt;Node2 -->
<g id="edge1_Node000001_Node000002" class="edge">
<title>Node1&#45;&gt;Node2</title>
<g id="a_edge1_Node000001_Node000002"><a xlink:title=" ">
<path fill="none" stroke="#63b8ff" d="M1244.73,-226.13C1143.99,-216.69 866.54,-190.68 758.18,-180.52"/>
<polygon fill="#63b8ff" stroke="#63b8ff" points="758.51,-177.03 748.23,-179.58 757.86,-184 758.51,-177.03"/>
</a>
</g>
</g>
<!-- Node3 -->
<g id="Node000003" class="node">
<title>Node3</title>
<g id="a_Node000003"><a xlink:title=" ">
<polygon fill="#e0e0e0" stroke="#999999" points="197.75,-19.25 144.25,-19.25 144.25,0 197.75,0 197.75,-19.25"/>
<text text-anchor="middle" x="171" y="-5.75" font-family="Helvetica,sans-Serif" font-size="10.00">iostream</text>
</a>
</g>
</g>
<!-- Node1&#45;&gt;Node3 -->
<g id="edge45_Node000001_Node000003" class="edge">
<title>Node1&#45;&gt;Node3</title>
<g id="a_edge45_Node000001_Node000003"><a xlink:title=" ">
<path fill="none" stroke="#63b8ff" d="M1244.78,-229.78C1076.16,-230.21 388.46,-229.23 304,-185 238.28,-150.59 195.56,-67.54 178.89,-29.83"/>
<polygon fill="#63b8ff" stroke="#63b8ff" points="182.3,-28.9 175.16,-21.08 175.86,-31.65 182.3,-28.9"/>
</a>
</g>
</g>
<!-- Node7 -->
<g id="Node000007" class="node">
<title>Node7</title>
<g id="a_Node000007"><a xlink:title=" ">
<polygon fill="#e0e0e0" stroke="#999999" points="1224.38,-129.75 1141.62,-129.75 1141.62,-110.5 1224.38,-110.5 1224.38,-129.75"/>
<text text-anchor="middle" x="1183" y="-116.25" font-family="Helvetica,sans-Serif" font-size="10.00">unordered_map</text>
</a>
</g>
</g>
<!-- Node1&#45;&gt;Node7 -->
<g id="edge49_Node000001_Node000007" class="edge">
<title>Node1&#45;&gt;Node7</title>
<g id="a_edge49_Node000001_Node000007"><a xlink:title=" ">
<path fill="none" stroke="#63b8ff" d="M1270.17,-220.74C1259.17,-212.2 1242.62,-198.6 1230,-185 1216.7,-170.66 1203.69,-152.57 1194.74,-139.31"/>
<polygon fill="#63b8ff" stroke="#63b8ff" points="1197.77,-137.55 1189.34,-131.13 1191.93,-141.4 1197.77,-137.55"/>
</a>
</g>
</g>
<!-- Node14 -->
<g id="Node000014" class="node">
<title>Node14</title>
<g id="a_Node000014"><a xlink:title=" ">
<polygon fill="#e0e0e0" stroke="#999999" points="942.62,-19.25 891.38,-19.25 891.38,0 942.62,0 942.62,-19.25"/>
<text text-anchor="middle" x="917" y="-5.75" font-family="Helvetica,sans-Serif" font-size="10.00">sstream</text>
</a>
</g>
</g>
<!-- Node1&#45;&gt;Node14 -->
<g id="edge51_Node000001_Node000014" class="edge">
<title>Node1&#45;&gt;Node14</title>
<g id="a_edge51_Node000001_Node000014"><a xlink:title=" ">
<path fill="none" stroke="#63b8ff" d="M1244.82,-228.59C1078.89,-223.59 411.51,-199.23 353,-129.75 347.49,-123.21 348.03,-117.47 353,-110.5 355.73,-106.67 508.41,-56.25 513,-55.25 670.53,-20.87 717.57,-45.91 880.21,-19.28"/>
<polygon fill="#63b8ff" stroke="#63b8ff" points="880.32,-22.81 889.6,-17.7 879.16,-15.91 880.32,-22.81"/>
</a>
</g>
</g>
<!-- Node17 -->
<g id="Node000017" class="node">
<title>Node17</title>
<g id="a_Node000017"><a xlink:href="_globals_8h.html" target="_top" xlink:title=" ">
<polygon fill="white" stroke="#666666" points="445.25,-74.5 388.75,-74.5 388.75,-55.25 445.25,-55.25 445.25,-74.5"/>
<text text-anchor="middle" x="417" y="-61" font-family="Helvetica,sans-Serif" font-size="10.00">Globals.h</text>
</a>
</g>
</g>
<!-- Node1&#45;&gt;Node17 -->
<g id="edge65_Node000001_Node000017" class="edge">
<title>Node1&#45;&gt;Node17</title>
<g id="a_edge65_Node000001_Node000017"><a xlink:title=" ">
<path fill="none" stroke="#63b8ff" d="M1244.81,-229.32C1071.78,-227.72 352.49,-219.03 320,-185 297.14,-161.05 302.14,-138.38 320,-110.5 332.71,-90.65 356.73,-79.51 377.68,-73.33"/>
<polygon fill="#63b8ff" stroke="#63b8ff" points="378.35,-76.77 387.13,-70.84 376.57,-70 378.35,-76.77"/>
</a>
</g>
</g>
<!-- Node19 -->
<g id="Node000019" class="node">
<title>Node19</title>
<g id="a_Node000019"><a xlink:title=" ">
<polygon fill="#e0e0e0" stroke="#999999" points="1686.88,-19.25 1637.12,-19.25 1637.12,0 1686.88,0 1686.88,-19.25"/>
<text text-anchor="middle" x="1662" y="-5.75" font-family="Helvetica,sans-Serif" font-size="10.00">iomanip</text>
</a>
</g>
</g>
<!-- Node1&#45;&gt;Node19 -->
<g id="edge46_Node000001_Node000019" class="edge">
<title>Node1&#45;&gt;Node19</title>
<g id="a_edge46_Node000001_Node000019"><a xlink:title=" ">
<path fill="none" stroke="#63b8ff" d="M1319.29,-228.19C1413.15,-224.19 1653.38,-211.44 1677,-185 1715.91,-141.45 1687.94,-65 1671.58,-29.6"/>
<polygon fill="#63b8ff" stroke="#63b8ff" points="1674.93,-28.5 1667.43,-21.01 1668.63,-31.54 1674.93,-28.5"/>
</a>
</g>
</g>
<!-- Node20 -->
<g id="Node000020" class="node">
<title>Node20</title>
<g id="a_Node000020"><a xlink:title=" ">
<polygon fill="#e0e0e0" stroke="#999999" points="58,-19.25 0,-19.25 0,0 58,0 58,-19.25"/>
<text text-anchor="middle" x="29" y="-5.75" font-family="Helvetica,sans-Serif" font-size="10.00">stdexcept</text>
</a>
</g>
</g>
<!-- Node1&#45;&gt;Node20 -->
<g id="edge43_Node000001_Node000020" class="edge">
<title>Node1&#45;&gt;Node20</title>
<g id="a_edge43_Node000001_Node000020"><a xlink:title=" ">
<path fill="none" stroke="#63b8ff" d="M1244.81,-229.45C1069.75,-228.44 332.38,-222.02 237,-185 149.89,-151.2 72.94,-65.15 42.67,-28.07"/>
<polygon fill="#63b8ff" stroke="#63b8ff" points="45.63,-26.16 36.64,-20.55 40.17,-30.54 45.63,-26.16"/>
</a>
</g>
</g>
<!-- Node27 -->
<g id="Node000027" class="node">
<title>Node27</title>
<g id="a_Node000027"><a xlink:title=" ">
<polygon fill="#e0e0e0" stroke="#999999" points="125.88,-19.25 76.12,-19.25 76.12,0 125.88,0 125.88,-19.25"/>
<text text-anchor="middle" x="101" y="-5.75" font-family="Helvetica,sans-Serif" font-size="10.00">unistd.h</text>
</a>
</g>
</g>
<!-- Node1&#45;&gt;Node27 -->
<g id="edge48_Node000001_Node000027" class="edge">
<title>Node1&#45;&gt;Node27</title>
<g id="a_edge48_Node000001_Node000027"><a xlink:title=" ">
<path fill="none" stroke="#63b8ff" d="M1244.88,-229.58C1073.47,-229.17 363.08,-225.04 273,-185 196.61,-151.05 136.11,-66.41 112.15,-28.95"/>
<polygon fill="#63b8ff" stroke="#63b8ff" points="115.21,-27.24 106.94,-20.62 109.27,-30.95 115.21,-27.24"/>
</a>
</g>
</g>
<!-- Node33 -->
<g id="Node000033" class="node">
<title>Node33</title>
<g id="a_Node000033"><a xlink:title=" ">
<polygon fill="#e0e0e0" stroke="#999999" points="1181.5,-19.25 1138.5,-19.25 1138.5,0 1181.5,0 1181.5,-19.25"/>
<text text-anchor="middle" x="1160" y="-5.75" font-family="Helvetica,sans-Serif" font-size="10.00">vector</text>
</a>
</g>
</g>
<!-- Node1&#45;&gt;Node33 -->
<g id="edge50_Node000001_Node000033" class="edge">
<title>Node1&#45;&gt;Node33</title>
<g id="a_edge50_Node000001_Node000033"><a xlink:title=" ">
<path fill="none" stroke="#63b8ff" d="M1279.13,-220.62C1272.47,-200.28 1254.86,-149.52 1233,-110.5 1215.84,-79.87 1190.82,-47.62 1174.98,-28.32"/>
<polygon fill="#63b8ff" stroke="#63b8ff" points="1177.68,-26.1 1168.6,-20.65 1172.3,-30.57 1177.68,-26.1"/>
</a>
</g>
</g>
<!-- Node35 -->
<g id="Node000035" class="node">
<title>Node35</title>
<g id="a_Node000035"><a xlink:title=" ">
<polygon fill="#e0e0e0" stroke="#999999" points="1424.5,-74.5 1375.5,-74.5 1375.5,-55.25 1424.5,-55.25 1424.5,-74.5"/>
<text text-anchor="middle" x="1400" y="-61" font-family="Helvetica,sans-Serif" font-size="10.00">fstream</text>
</a>
</g>
</g>
<!-- Node1&#45;&gt;Node35 -->
<g id="edge44_Node000001_Node000035" class="edge">
<title>Node1&#45;&gt;Node35</title>
<g id="a_edge44_Node000001_Node000035"><a xlink:title=" ">
<path fill="none" stroke="#63b8ff" d="M1289.59,-220.8C1300.37,-208.35 1320.83,-184.98 1339,-165.75 1354.54,-149.3 1362.61,-148.69 1375,-129.75 1383.98,-116.02 1390.54,-98.56 1394.68,-85.37"/>
<polygon fill="#63b8ff" stroke="#63b8ff" points="1397.93,-86.71 1397.38,-76.13 1391.21,-84.75 1397.93,-86.71"/>
</a>
</g>
</g>
<!-- Node36 -->
<g id="Node000036" class="node">
<title>Node36</title>
<g id="a_Node000036"><a xlink:title=" ">
<polygon fill="#e0e0e0" stroke="#999999" points="1390.12,-185 1347.88,-185 1347.88,-165.75 1390.12,-165.75 1390.12,-185"/>
<text text-anchor="middle" x="1369" y="-171.5" font-family="Helvetica,sans-Serif" font-size="10.00">fcntl.h</text>
</a>
</g>
</g>
<!-- Node1&#45;&gt;Node36 -->
<g id="edge47_Node000001_Node000036" class="edge">
<title>Node1&#45;&gt;Node36</title>
<g id="a_edge47_Node000001_Node000036"><a xlink:title=" ">
<path fill="none" stroke="#63b8ff" d="M1296.76,-220.59C1309.88,-212.56 1329.32,-200.66 1344.73,-191.23"/>
<polygon fill="#63b8ff" stroke="#63b8ff" points="1346.18,-194.45 1352.88,-186.24 1342.52,-188.48 1346.18,-194.45"/>
</a>
</g>
</g>
<!-- Node37 -->
<g id="Node000037" class="node">
<title>Node37</title>
<g id="a_Node000037"><a xlink:title=" ">
<polygon fill="#e0e0e0" stroke="#999999" points="1463.88,-185 1408.12,-185 1408.12,-165.75 1463.88,-165.75 1463.88,-185"/>
<text text-anchor="middle" x="1436" y="-171.5" font-family="Helvetica,sans-Serif" font-size="10.00">algorithm</text>
</a>
</g>
</g>
<!-- Node1&#45;&gt;Node37 -->
<g id="edge52_Node000001_Node000037" class="edge">
<title>Node1&#45;&gt;Node37</title>
<g id="a_edge52_Node000001_Node000037"><a xlink:title=" ">
<path fill="none" stroke="#63b8ff" d="M1308.12,-220.59C1333.12,-211.95 1371.08,-198.82 1399.15,-189.12"/>
<polygon fill="#63b8ff" stroke="#63b8ff" points="1400.01,-192.52 1408.32,-185.95 1397.72,-185.91 1400.01,-192.52"/>
</a>
</g>
</g>
<!-- Node38 -->
<g id="Node000038" class="node">
<title>Node38</title>
<g id="a_Node000038"><a xlink:title=" ">
<polygon fill="#e0e0e0" stroke="#999999" points="1521.62,-185 1482.38,-185 1482.38,-165.75 1521.62,-165.75 1521.62,-185"/>
<text text-anchor="middle" x="1502" y="-171.5" font-family="Helvetica,sans-Serif" font-size="10.00">regex</text>
</a>
</g>
</g>
<!-- Node1&#45;&gt;Node38 -->
<g id="edge53_Node000001_Node000038" class="edge">
<title>Node1&#45;&gt;Node38</title>
<g id="a_edge53_Node000001_Node000038"><a xlink:title=" ">
<path fill="none" stroke="#63b8ff" d="M1319.13,-221.64C1355.48,-213.67 1412.65,-200.73 1471.14,-185.37"/>
<polygon fill="#63b8ff" stroke="#63b8ff" points="1471.84,-188.8 1480.61,-182.86 1470.05,-182.04 1471.84,-188.8"/>
</a>
</g>
</g>
<!-- Node39 -->
<g id="Node000039" class="node">
<title>Node39</title>
<g id="a_Node000039"><a xlink:title=" ">
<polygon fill="#e0e0e0" stroke="#999999" points="1584.62,-185 1539.38,-185 1539.38,-165.75 1584.62,-165.75 1584.62,-185"/>
<text text-anchor="middle" x="1562" y="-171.5" font-family="Helvetica,sans-Serif" font-size="10.00">TFile.h</text>
</a>
</g>
</g>
<!-- Node1&#45;&gt;Node39 -->
<g id="edge54_Node000001_Node000039" class="edge">
<title>Node1&#45;&gt;Node39</title>
<g id="a_edge54_Node000001_Node000039"><a xlink:title=" ">
<path fill="none" stroke="#63b8ff" d="M1319.34,-224.06C1366.04,-216.85 1448.65,-203.29 1527.88,-185.55"/>
<polygon fill="#63b8ff" stroke="#63b8ff" points="1528.58,-188.98 1537.56,-183.36 1527.04,-182.16 1528.58,-188.98"/>
</a>
</g>
</g>
<!-- Node40 -->
<g id="Node000040" class="node">
<title>Node40</title>
<g id="a_Node000040"><a xlink:title=" ">
<polygon fill="#e0e0e0" stroke="#999999" points="1649,-185 1603,-185 1603,-165.75 1649,-165.75 1649,-185"/>
<text text-anchor="middle" x="1626" y="-171.5" font-family="Helvetica,sans-Serif" font-size="10.00">TKey.h</text>
</a>
</g>
</g>
<!-- Node1&#45;&gt;Node40 -->
<g id="edge55_Node000001_Node000040" class="edge">
<title>Node1&#45;&gt;Node40</title>
<g id="a_edge55_Node000001_Node000040"><a xlink:title=" ">
<path fill="none" stroke="#63b8ff" d="M1319.23,-225.78C1375.98,-219.59 1487.67,-206.17 1591.65,-185.26"/>
<polygon fill="#63b8ff" stroke="#63b8ff" points="1592.08,-188.75 1601.18,-183.32 1590.68,-181.89 1592.08,-188.75"/>
</a>
</g>
</g>
<!-- Node41 -->
<g id="Node000041" class="node">
<title>Node41</title>
<g id="a_Node000041"><a xlink:href="_stoppable_thread_8h.html" target="_top" xlink:title=" ">
<polygon fill="white" stroke="#666666" points="1539.5,-74.5 1442.5,-74.5 1442.5,-55.25 1539.5,-55.25 1539.5,-74.5"/>
<text text-anchor="middle" x="1491" y="-61" font-family="Helvetica,sans-Serif" font-size="10.00">StoppableThread.h</text>
</a>
</g>
</g>
<!-- Node1&#45;&gt;Node41 -->
<g id="edge56_Node000001_Node000041" class="edge">
<title>Node1&#45;&gt;Node41</title>
<g id="a_edge56_Node000001_Node000041"><a xlink:title=" ">
<path fill="none" stroke="#63b8ff" d="M1319.15,-227.97C1409.64,-223.55 1635.71,-210.09 1658,-185 1700.84,-136.78 1599.46,-97.16 1536.5,-78.11"/>
<polygon fill="#63b8ff" stroke="#63b8ff" points="1537.64,-74.8 1527.06,-75.33 1535.66,-81.51 1537.64,-74.8"/>
</a>
</g>
</g>
<!-- Node46 -->
<g id="Node000046" class="node">
<title>Node46</title>
<g id="a_Node000046"><a xlink:href="_t_g_r_s_i_utilities_8h.html" target="_top" xlink:title=" ">
<polygon fill="white" stroke="#666666" points="1366.25,-129.75 1279.75,-129.75 1279.75,-110.5 1366.25,-110.5 1366.25,-129.75"/>
<text text-anchor="middle" x="1323" y="-116.25" font-family="Helvetica,sans-Serif" font-size="10.00">TGRSIUtilities.h</text>
</a>
</g>
</g>
<!-- Node1&#45;&gt;Node46 -->
<g id="edge66_Node000001_Node000046" class="edge">
<title>Node1&#45;&gt;Node46</title>
<g id="a_edge66_Node000001_Node000046"><a xlink:title=" ">
<path fill="none" stroke="#63b8ff" d="M1285.4,-220.52C1290.05,-208.13 1298.62,-185.25 1306,-165.75 1309.12,-157.51 1312.58,-148.42 1315.55,-140.61"/>
<polygon fill="#63b8ff" stroke="#63b8ff" points="1318.76,-142.02 1319.06,-131.42 1312.23,-139.52 1318.76,-142.02"/>
</a>
</g>
</g>
<!-- Node2&#45;&gt;Node3 -->
<g id="edge2_Node000002_Node000003" class="edge">
<title>Node2&#45;&gt;Node3</title>
<g id="a_edge2_Node000002_Node000003"><a xlink:title=" ">
<path fill="none" stroke="#63b8ff" d="M681.48,-175.2C616.8,-175.82 468.33,-172.01 353,-129.75 318.68,-117.17 232.18,-55.49 192.05,-26.17"/>
<polygon fill="#63b8ff" stroke="#63b8ff" points="194.26,-23.45 184.13,-20.36 190.12,-29.09 194.26,-23.45"/>
</a>
</g>
</g>
<!-- Node4 -->
<g id="Node000004" class="node">
<title>Node4</title>
<g id="a_Node000004"><a xlink:title=" ">
<polygon fill="#e0e0e0" stroke="#999999" points="1070,-19.25 1030,-19.25 1030,0 1070,0 1070,-19.25"/>
<text text-anchor="middle" x="1050" y="-5.75" font-family="Helvetica,sans-Serif" font-size="10.00">string</text>
</a>
</g>
</g>
<!-- Node2&#45;&gt;Node4 -->
<g id="edge3_Node000002_Node000004" class="edge">
<title>Node2&#45;&gt;Node4</title>
<g id="a_edge3_Node000002_Node000004"><a xlink:title=" ">
<path fill="none" stroke="#63b8ff" d="M685.24,-165.28C655.04,-154.22 614.32,-134.08 633,-110.5 645.78,-94.36 951.66,-34.28 1018.84,-19.38"/>
<polygon fill="#63b8ff" stroke="#63b8ff" points="1019.35,-22.85 1028.29,-17.15 1017.75,-16.04 1019.35,-22.85"/>
</a>
</g>
</g>
<!-- Node5 -->
<g id="Node000005" class="node">
<title>Node5</title>
<g id="a_Node000005"><a xlink:title=" ">
<polygon fill="#e0e0e0" stroke="#999999" points="772.5,-129.75 729.5,-129.75 729.5,-110.5 772.5,-110.5 772.5,-129.75"/>
<text text-anchor="middle" x="751" y="-116.25" font-family="Helvetica,sans-Serif" font-size="10.00">cmath</text>
</a>
</g>
</g>
<!-- Node2&#45;&gt;Node5 -->
<g id="edge4_Node000002_Node000005" class="edge">
<title>Node2&#45;&gt;Node5</title>
<g id="a_edge4_Node000002_Node000005"><a xlink:title=" ">
<path fill="none" stroke="#63b8ff" d="M720.11,-165.58C725.06,-158.46 732.2,-148.18 738.37,-139.3"/>
<polygon fill="#63b8ff" stroke="#63b8ff" points="741.06,-141.56 743.89,-131.35 735.31,-137.57 741.06,-141.56"/>
</a>
</g>
</g>
<!-- Node6 -->
<g id="Node000006" class="node">
<title>Node6</title>
<g id="a_Node000006"><a xlink:title=" ">
<polygon fill="#e0e0e0" stroke="#999999" points="829.25,-129.75 790.75,-129.75 790.75,-110.5 829.25,-110.5 829.25,-129.75"/>
<text text-anchor="middle" x="810" y="-116.25" font-family="Helvetica,sans-Serif" font-size="10.00">utility</text>
</a>
</g>
</g>
<!-- Node2&#45;&gt;Node6 -->
<g id="edge5_Node000002_Node000006" class="edge">
<title>Node2&#45;&gt;Node6</title>
<g id="a_edge5_Node000002_Node000006"><a xlink:title=" ">
<path fill="none" stroke="#63b8ff" d="M730.29,-165.34C744.9,-157.23 766.63,-145.18 783.71,-135.71"/>
<polygon fill="#63b8ff" stroke="#63b8ff" points="785.26,-138.85 792.31,-130.94 781.87,-132.73 785.26,-138.85"/>
</a>
</g>
</g>
<!-- Node2&#45;&gt;Node7 -->
<g id="edge6_Node000002_Node000007" class="edge">
<title>Node2&#45;&gt;Node7</title>
<g id="a_edge6_Node000002_Node000007"><a xlink:title=" ">
<path fill="none" stroke="#63b8ff" d="M746.69,-171.62C815.62,-165.65 981.19,-150.51 1130.14,-130.07"/>
<polygon fill="#63b8ff" stroke="#63b8ff" points="1130.37,-133.57 1139.79,-128.74 1129.4,-126.64 1130.37,-133.57"/>
</a>
</g>
</g>
<!-- Node8 -->
<g id="Node000008" class="node">
<title>Node8</title>
<g id="a_Node000008"><a xlink:title=" ">
<polygon fill="#e0e0e0" stroke="#999999" points="908.5,-129.75 847.5,-129.75 847.5,-110.5 908.5,-110.5 908.5,-129.75"/>
<text text-anchor="middle" x="878" y="-116.25" font-family="Helvetica,sans-Serif" font-size="10.00">TNamed.h</text>
</a>
</g>
</g>
<!-- Node2&#45;&gt;Node8 -->
<g id="edge7_Node000002_Node000008" class="edge">
<title>Node2&#45;&gt;Node8</title>
<g id="a_edge7_Node000002_Node000008"><a xlink:title=" ">
<path fill="none" stroke="#63b8ff" d="M741.82,-165.34C768.56,-156.66 809.22,-143.46 839.15,-133.74"/>
<polygon fill="#63b8ff" stroke="#63b8ff" points="840.17,-137.09 848.6,-130.67 838.01,-130.43 840.17,-137.09"/>
</a>
</g>
</g>
<!-- Node9 -->
<g id="Node000009" class="node">
<title>Node9</title>
<g id="a_Node000009"><a xlink:title=" ">
<polygon fill="#e0e0e0" stroke="#999999" points="991.75,-129.75 926.25,-129.75 926.25,-110.5 991.75,-110.5 991.75,-129.75"/>
<text text-anchor="middle" x="959" y="-116.25" font-family="Helvetica,sans-Serif" font-size="10.00">TRandom.h</text>
</a>
</g>
</g>
<!-- Node2&#45;&gt;Node9 -->
<g id="edge8_Node000002_Node000009" class="edge">
<title>Node2&#45;&gt;Node9</title>
<g id="a_edge8_Node000002_Node000009"><a xlink:title=" ">
<path fill="none" stroke="#63b8ff" d="M746.79,-167.25C790.12,-157.83 866.62,-141.2 914.96,-130.7"/>
<polygon fill="#63b8ff" stroke="#63b8ff" points="915.51,-134.16 924.54,-128.62 914.02,-127.32 915.51,-134.16"/>
</a>
</g>
</g>
<!-- Node10 -->
<g id="Node000010" class="node">
<title>Node10</title>
<g id="a_Node000010"><a xlink:title=" ">
<polygon fill="#e0e0e0" stroke="#999999" points="1056,-129.75 1010,-129.75 1010,-110.5 1056,-110.5 1056,-129.75"/>
<text text-anchor="middle" x="1033" y="-116.25" font-family="Helvetica,sans-Serif" font-size="10.00">TList.h</text>
</a>
</g>
</g>
<!-- Node2&#45;&gt;Node10 -->
<g id="edge9_Node000002_Node000010" class="edge">
<title>Node2&#45;&gt;Node10</title>
<g id="a_edge9_Node000002_Node000010"><a xlink:title=" ">
<path fill="none" stroke="#63b8ff" d="M746.49,-170.5C797.93,-164.1 901.44,-150.22 998.47,-130.09"/>
<polygon fill="#63b8ff" stroke="#63b8ff" points="999.11,-133.53 1008.17,-128.05 997.66,-126.68 999.11,-133.53"/>
</a>
</g>
</g>
<!-- Node11 -->
<g id="Node000011" class="node">
<title>Node11</title>
<g id="a_Node000011"><a xlink:title=" ">
<polygon fill="#e0e0e0" stroke="#999999" points="1123.5,-129.75 1074.5,-129.75 1074.5,-110.5 1123.5,-110.5 1123.5,-129.75"/>
<text text-anchor="middle" x="1099" y="-116.25" font-family="Helvetica,sans-Serif" font-size="10.00">TTree.h</text>
</a>
</g>
</g>
<!-- Node2&#45;&gt;Node11 -->
<g id="edge10_Node000002_Node000011" class="edge">
<title>Node2&#45;&gt;Node11</title>
<g id="a_edge10_Node000002_Node000011"><a xlink:title=" ">
<path fill="none" stroke="#63b8ff" d="M746.63,-171.57C807.07,-166.08 940.69,-152.61 1063.14,-129.87"/>
<polygon fill="#63b8ff" stroke="#63b8ff" points="1063.53,-133.36 1072.71,-128.07 1062.23,-126.48 1063.53,-133.36"/>
</a>
</g>
</g>
<!-- Node12 -->
<g id="Node000012" class="node">
<title>Node12</title>
<g id="a_Node000012"><a xlink:title=" ">
<polygon fill="#e0e0e0" stroke="#999999" points="417.88,-129.75 362.12,-129.75 362.12,-110.5 417.88,-110.5 417.88,-129.75"/>
<text text-anchor="middle" x="390" y="-116.25" font-family="Helvetica,sans-Serif" font-size="10.00">TGraph.h</text>
</a>
</g>
</g>
<!-- Node2&#45;&gt;Node12 -->
<g id="edge11_Node000002_Node000012" class="edge">
<title>Node2&#45;&gt;Node12</title>
<g id="a_edge11_Node000002_Node000012"><a xlink:title=" ">
<path fill="none" stroke="#63b8ff" d="M681.35,-169.7C628.74,-162.06 521.98,-146.1 432,-129.75 431.01,-129.57 430,-129.38 428.99,-129.19"/>
<polygon fill="#63b8ff" stroke="#63b8ff" points="429.95,-125.82 419.47,-127.34 428.61,-132.69 429.95,-125.82"/>
</a>
</g>
</g>
<!-- Node13 -->
<g id="Node000013" class="node">
<title>Node13</title>
<g id="a_Node000013"><a xlink:href="_t_mnemonic_8h.html" target="_top" xlink:title=" ">
<polygon fill="white" stroke="#666666" points="548.25,-129.75 473.75,-129.75 473.75,-110.5 548.25,-110.5 548.25,-129.75"/>
<text text-anchor="middle" x="511" y="-116.25" font-family="Helvetica,sans-Serif" font-size="10.00">TMnemonic.h</text>
</a>
</g>
</g>
<!-- Node2&#45;&gt;Node13 -->
<g id="edge12_Node000002_Node000013" class="edge">
<title>Node2&#45;&gt;Node13</title>
<g id="a_edge12_Node000002_Node000013"><a xlink:title=" ">
<path fill="none" stroke="#63b8ff" d="M681.38,-167.08C645.86,-158.35 589.27,-143.58 551.09,-133.15"/>
<polygon fill="#63b8ff" stroke="#63b8ff" points="552.39,-129.88 541.82,-130.6 550.53,-136.63 552.39,-129.88"/>
</a>
</g>
</g>
<!-- Node2&#45;&gt;Node17 -->
<g id="edge41_Node000002_Node000017" class="edge">
<title>Node2&#45;&gt;Node17</title>
<g id="a_edge41_Node000002_Node000017"><a xlink:title=" ">
<path fill="none" stroke="#63b8ff" d="M681.36,-171.5C622.38,-165.83 500.81,-151.8 465,-129.75 447.49,-118.97 434.17,-99.26 426.05,-84.58"/>
<polygon fill="#63b8ff" stroke="#63b8ff" points="429.27,-83.18 421.57,-75.9 423.05,-86.39 429.27,-83.18"/>
</a>
</g>
</g>
<!-- Node31 -->
<g id="Node000031" class="node">
<title>Node31</title>
<g id="a_Node000031"><a xlink:href="_t_priority_value_8h.html" target="_top" xlink:title=" ">
<polygon fill="white" stroke="#666666" points="733.12,-74.5 648.88,-74.5 648.88,-55.25 733.12,-55.25 733.12,-74.5"/>
<text text-anchor="middle" x="691" y="-61" font-family="Helvetica,sans-Serif" font-size="10.00">TPriorityValue.h</text>
</a>
</g>
</g>
<!-- Node2&#45;&gt;Node31 -->
<g id="edge42_Node000002_Node000031" class="edge">
<title>Node2&#45;&gt;Node31</title>
<g id="a_edge42_Node000002_Node000031"><a xlink:title=" ">
<path fill="none" stroke="#63b8ff" d="M681.33,-171.39C654.5,-167.02 618.09,-156.26 600,-129.75 584.3,-106.75 615.2,-89.38 645.17,-78.61"/>
<polygon fill="#63b8ff" stroke="#63b8ff" points="646.28,-81.93 654.64,-75.42 644.04,-75.29 646.28,-81.93"/>
</a>
</g>
</g>
<!-- Node34 -->
<g id="Node000034" class="node">
<title>Node34</title>
<g id="a_Node000034"><a xlink:title=" ">
<polygon fill="#e0e0e0" stroke="#999999" points="711.62,-129.75 642.38,-129.75 642.38,-110.5 711.62,-110.5 711.62,-129.75"/>
<text text-anchor="middle" x="677" y="-116.25" font-family="Helvetica,sans-Serif" font-size="10.00">TClassRef.h</text>
</a>
</g>
</g>
<!-- Node2&#45;&gt;Node34 -->
<g id="edge40_Node000002_Node000034" class="edge">
<title>Node2&#45;&gt;Node34</title>
<g id="a_edge40_Node000002_Node000034"><a xlink:title=" ">
<path fill="none" stroke="#63b8ff" d="M707.89,-165.58C702.94,-158.46 695.8,-148.18 689.63,-139.3"/>
<polygon fill="#63b8ff" stroke="#63b8ff" points="692.69,-137.57 684.11,-131.35 686.94,-141.56 692.69,-137.57"/>
</a>
</g>
</g>
<!-- Node13&#45;&gt;Node2 -->
<g id="edge39_Node000013_Node000002" class="edge">
<title>Node13&#45;&gt;Node2</title>
<g id="a_edge39_Node000013_Node000002"><a xlink:title=" ">
<path fill="none" stroke="#63b8ff" d="M548.7,-129.67C584.41,-138.53 637.65,-152.44 674.06,-162.39"/>
<polygon fill="#63b8ff" stroke="#63b8ff" points="672.75,-165.66 683.32,-164.94 674.61,-158.91 672.75,-165.66"/>
</a>
</g>
</g>
<!-- Node13&#45;&gt;Node3 -->
<g id="edge14_Node000013_Node000003" class="edge">
<title>Node13&#45;&gt;Node3</title>
<g id="a_edge14_Node000013_Node000003"><a xlink:title=" ">
<path fill="none" stroke="#63b8ff" d="M482.6,-110.06C421.52,-90.57 277.66,-44.66 208.9,-22.72"/>
<polygon fill="#63b8ff" stroke="#63b8ff" points="210.17,-19.45 199.58,-19.75 208.04,-26.12 210.17,-19.45"/>
</a>
</g>
</g>
<!-- Node13&#45;&gt;Node4 -->
<g id="edge13_Node000013_Node000004" class="edge">
<title>Node13&#45;&gt;Node4</title>
<g id="a_edge13_Node000013_Node000004"><a xlink:title=" ">
<path fill="none" stroke="#63b8ff" d="M529.51,-110.14C547.92,-101.17 576.96,-86.98 602,-74.5 618.94,-66.05 621.81,-60.51 640,-55.25 799.88,-9.01 851.8,-49.81 1018.39,-19.36"/>
<polygon fill="#63b8ff" stroke="#63b8ff" points="1018.87,-22.83 1028.04,-17.53 1017.56,-15.96 1018.87,-22.83"/>
</a>
</g>
</g>
<!-- Node13&#45;&gt;Node14 -->
<g id="edge15_Node000013_Node000014" class="edge">
<title>Node13&#45;&gt;Node14</title>
<g id="a_edge15_Node000013_Node000014"><a xlink:title=" ">
<path fill="none" stroke="#63b8ff" d="M510.77,-110.03C510.96,-95.89 513.61,-68.83 530,-55.25 588.07,-7.15 787.23,-30.56 879.82,-19.11"/>
<polygon fill="#63b8ff" stroke="#63b8ff" points="880.21,-22.59 889.59,-17.66 879.19,-15.66 880.21,-22.59"/>
</a>
</g>
</g>
<!-- Node15 -->
<g id="Node000015" class="node">
<title>Node15</title>
<g id="a_Node000015"><a xlink:title=" ">
<polygon fill="#e0e0e0" stroke="#999999" points="1258,-19.25 1200,-19.25 1200,0 1258,0 1258,-19.25"/>
<text text-anchor="middle" x="1229" y="-5.75" font-family="Helvetica,sans-Serif" font-size="10.00">TObject.h</text>
</a>
</g>
</g>
<!-- Node13&#45;&gt;Node15 -->
<g id="edge16_Node000013_Node000015" class="edge">
<title>Node13&#45;&gt;Node15</title>
<g id="a_edge16_Node000013_Node000015"><a xlink:title=" ">
<path fill="none" stroke="#63b8ff" d="M548.39,-114.67C649.81,-102.35 938.69,-65.82 1188.47,-19.6"/>
<polygon fill="#63b8ff" stroke="#63b8ff" points="1188.91,-23.08 1198.1,-17.81 1187.63,-16.2 1188.91,-23.08"/>
</a>
</g>
</g>
<!-- Node16 -->
<g id="Node000016" class="node">
<title>Node16</title>
<g id="a_Node000016"><a xlink:title=" ">
<polygon fill="#e0e0e0" stroke="#999999" points="593.12,-74.5 538.88,-74.5 538.88,-55.25 593.12,-55.25 593.12,-74.5"/>
<text text-anchor="middle" x="566" y="-61" font-family="Helvetica,sans-Serif" font-size="10.00">TClass.h</text>
</a>
</g>
</g>
<!-- Node13&#45;&gt;Node16 -->
<g id="edge17_Node000013_Node000016" class="edge">
<title>Node13&#45;&gt;Node16</title>
<g id="a_edge17_Node000013_Node000016"><a xlink:title=" ">
<path fill="none" stroke="#63b8ff" d="M520.08,-110.33C527.84,-102.82 539.21,-91.81 548.7,-82.63"/>
<polygon fill="#63b8ff" stroke="#63b8ff" points="550.88,-85.38 555.63,-75.91 546.01,-80.35 550.88,-85.38"/>
</a>
</g>
</g>
<!-- Node13&#45;&gt;Node17 -->
<g id="edge18_Node000013_Node000017" class="edge">
<title>Node13&#45;&gt;Node17</title>
<g id="a_edge18_Node000013_Node000017"><a xlink:title=" ">
<path fill="none" stroke="#63b8ff" d="M495.05,-110.09C480.74,-101.98 459.47,-89.93 442.75,-80.46"/>
<polygon fill="#63b8ff" stroke="#63b8ff" points="444.77,-77.58 434.34,-75.7 441.32,-83.67 444.77,-77.58"/>
</a>
</g>
</g>
<!-- Node13&#45;&gt;Node31 -->
<g id="edge35_Node000013_Node000031" class="edge">
<title>Node13&#45;&gt;Node31</title>
<g id="a_edge35_Node000013_Node000031"><a xlink:title=" ">
<path fill="none" stroke="#63b8ff" d="M541.53,-110.09C571.27,-101.29 616.69,-87.86 649.65,-78.11"/>
<polygon fill="#63b8ff" stroke="#63b8ff" points="650.27,-81.57 658.86,-75.38 648.28,-74.86 650.27,-81.57"/>
</a>
</g>
</g>
<!-- Node17&#45;&gt;Node3 -->
<g id="edge20_Node000017_Node000003" class="edge">
<title>Node17&#45;&gt;Node3</title>
<g id="a_edge20_Node000017_Node000003"><a xlink:title=" ">
<path fill="none" stroke="#63b8ff" d="M388.42,-58.04C350.02,-50.16 279.36,-35.47 209.34,-19.73"/>
<polygon fill="#63b8ff" stroke="#63b8ff" points="210.11,-16.32 199.59,-17.53 208.57,-23.15 210.11,-16.32"/>
</a>
</g>
</g>
<!-- Node17&#45;&gt;Node4 -->
<g id="edge23_Node000017_Node000004" class="edge">
<title>Node17&#45;&gt;Node4</title>
<g id="a_edge23_Node000017_Node000004"><a xlink:title=" ">
<path fill="none" stroke="#63b8ff" d="M445.33,-61.69C468.18,-59.93 501.16,-57.41 530,-55.25 744.58,-39.19 803.82,-58.02 1018.53,-19.32"/>
<polygon fill="#63b8ff" stroke="#63b8ff" points="1018.84,-22.82 1028.05,-17.58 1017.58,-15.93 1018.84,-22.82"/>
</a>
</g>
</g>
<!-- Node17&#45;&gt;Node14 -->
<g id="edge28_Node000017_Node000014" class="edge">
<title>Node17&#45;&gt;Node14</title>
<g id="a_edge28_Node000017_Node000014"><a xlink:title=" ">
<path fill="none" stroke="#63b8ff" d="M445.39,-57.57C449.92,-56.7 454.58,-55.89 459,-55.25 642.09,-28.75 693.82,-49.09 879.82,-19.33"/>
<polygon fill="#63b8ff" stroke="#63b8ff" points="880.3,-22.79 889.61,-17.73 879.17,-15.89 880.3,-22.79"/>
</a>
</g>
</g>
<!-- Node18 -->
<g id="Node000018" class="node">
<title>Node18</title>
<g id="a_Node000018"><a xlink:title=" ">
<polygon fill="#e0e0e0" stroke="#999999" points="549.62,-19.25 504.38,-19.25 504.38,0 549.62,0 549.62,-19.25"/>
<text text-anchor="middle" x="527" y="-5.75" font-family="Helvetica,sans-Serif" font-size="10.00">cstdint</text>
</a>
</g>
</g>
<!-- Node17&#45;&gt;Node18 -->
<g id="edge19_Node000017_Node000018" class="edge">
<title>Node17&#45;&gt;Node18</title>
<g id="a_edge19_Node000017_Node000018"><a xlink:title=" ">
<path fill="none" stroke="#63b8ff" d="M435.66,-54.84C452.73,-46.58 478.24,-34.23 497.97,-24.68"/>
<polygon fill="#63b8ff" stroke="#63b8ff" points="499.41,-27.87 506.89,-20.36 496.36,-21.57 499.41,-27.87"/>
</a>
</g>
</g>
<!-- Node17&#45;&gt;Node19 -->
<g id="edge21_Node000017_Node000019" class="edge">
<title>Node17&#45;&gt;Node19</title>
<g id="a_edge21_Node000017_Node000019"><a xlink:title=" ">
<path fill="none" stroke="#63b8ff" d="M445.31,-61.37C468.15,-59.43 501.12,-56.82 530,-55.25 1014.29,-28.85 1143.42,-88.56 1625.8,-19.41"/>
<polygon fill="#63b8ff" stroke="#63b8ff" points="1626,-22.91 1635.4,-18.02 1625,-15.99 1626,-22.91"/>
</a>
</g>
</g>
<!-- Node17&#45;&gt;Node20 -->
<g id="edge22_Node000017_Node000020" class="edge">
<title>Node17&#45;&gt;Node20</title>
<g id="a_edge22_Node000017_Node000020"><a xlink:title=" ">
<path fill="none" stroke="#63b8ff" d="M388.28,-61.16C330.07,-55.46 193.82,-41.08 69.61,-19.56"/>
<polygon fill="#63b8ff" stroke="#63b8ff" points="70.35,-16.14 59.89,-17.85 69.14,-23.03 70.35,-16.14"/>
</a>
</g>
</g>
<!-- Node21 -->
<g id="Node000021" class="node">
<title>Node21</title>
<g id="a_Node000021"><a xlink:title=" ">
<polygon fill="#e0e0e0" stroke="#999999" points="610.12,-19.25 567.88,-19.25 567.88,0 610.12,0 610.12,-19.25"/>
<text text-anchor="middle" x="589" y="-5.75" font-family="Helvetica,sans-Serif" font-size="10.00">cstdio</text>
</a>
</g>
</g>
<!-- Node17&#45;&gt;Node21 -->
<g id="edge24_Node000017_Node000021" class="edge">
<title>Node17&#45;&gt;Node21</title>
<g id="a_edge24_Node000017_Node000021"><a xlink:title=" ">
<path fill="none" stroke="#63b8ff" d="M445.4,-55.08C475.99,-45.61 524.58,-30.57 556.63,-20.65"/>
<polygon fill="#63b8ff" stroke="#63b8ff" points="557.67,-23.99 566.18,-17.69 555.6,-17.3 557.67,-23.99"/>
</a>
</g>
</g>
<!-- Node22 -->
<g id="Node000022" class="node">
<title>Node22</title>
<g id="a_Node000022"><a xlink:title=" ">
<polygon fill="#e0e0e0" stroke="#999999" points="672.25,-19.25 627.75,-19.25 627.75,0 672.25,0 672.25,-19.25"/>
<text text-anchor="middle" x="650" y="-5.75" font-family="Helvetica,sans-Serif" font-size="10.00">cstdlib</text>
</a>
</g>
</g>
<!-- Node17&#45;&gt;Node22 -->
<g id="edge25_Node000017_Node000022" class="edge">
<title>Node17&#45;&gt;Node22</title>
<g id="a_edge25_Node000017_Node000022"><a xlink:title=" ">
<path fill="none" stroke="#63b8ff" d="M445.63,-57.75C489.26,-48.39 571.35,-30.64 616.26,-19.81"/>
<polygon fill="#63b8ff" stroke="#63b8ff" points="617.01,-23.23 625.88,-17.44 615.33,-16.43 617.01,-23.23"/>
</a>
</g>
</g>
<!-- Node23 -->
<g id="Node000023" class="node">
<title>Node23</title>
<g id="a_Node000023"><a xlink:title=" ">
<polygon fill="#e0e0e0" stroke="#999999" points="749.75,-19.25 690.25,-19.25 690.25,0 749.75,0 749.75,-19.25"/>
<text text-anchor="middle" x="720" y="-5.75" font-family="Helvetica,sans-Serif" font-size="10.00">execinfo.h</text>
</a>
</g>
</g>
<!-- Node17&#45;&gt;Node23 -->
<g id="edge26_Node000017_Node000023" class="edge">
<title>Node17&#45;&gt;Node23</title>
<g id="a_edge26_Node000017_Node000023"><a xlink:title=" ">
<path fill="none" stroke="#63b8ff" d="M445.44,-57.87C449.97,-56.96 454.61,-56.06 459,-55.25 553.76,-37.85 580.89,-38.01 678.52,-19.63"/>
<polygon fill="#63b8ff" stroke="#63b8ff" points="679.15,-23.07 688.31,-17.76 677.84,-16.2 679.15,-23.07"/>
</a>
</g>
</g>
<!-- Node24 -->
<g id="Node000024" class="node">
<title>Node24</title>
<g id="a_Node000024"><a xlink:title=" ">
<polygon fill="#e0e0e0" stroke="#999999" points="818.25,-19.25 767.75,-19.25 767.75,0 818.25,0 818.25,-19.25"/>
<text text-anchor="middle" x="793" y="-5.75" font-family="Helvetica,sans-Serif" font-size="10.00">cxxabi.h</text>
</a>
</g>
</g>
<!-- Node17&#45;&gt;Node24 -->
<g id="edge27_Node000017_Node000024" class="edge">
<title>Node17&#45;&gt;Node24</title>
<g id="a_edge27_Node000017_Node000024"><a xlink:title=" ">
<path fill="none" stroke="#63b8ff" d="M445.41,-57.71C449.94,-56.82 454.59,-55.97 459,-55.25 587.93,-34.31 624.97,-43.28 756.17,-19.56"/>
<polygon fill="#63b8ff" stroke="#63b8ff" points="756.77,-23.01 765.97,-17.75 755.5,-16.12 756.77,-23.01"/>
</a>
</g>
</g>
<!-- Node25 -->
<g id="Node000025" class="node">
<title>Node25</title>
<g id="a_Node000025"><a xlink:title=" ">
<polygon fill="#e0e0e0" stroke="#999999" points="873.5,-19.25 836.5,-19.25 836.5,0 873.5,0 873.5,-19.25"/>
<text text-anchor="middle" x="855" y="-5.75" font-family="Helvetica,sans-Serif" font-size="10.00">array</text>
</a>
</g>
</g>
<!-- Node17&#45;&gt;Node25 -->
<g id="edge29_Node000017_Node000025" class="edge">
<title>Node17&#45;&gt;Node25</title>
<g id="a_edge29_Node000017_Node000025"><a xlink:title=" ">
<path fill="none" stroke="#63b8ff" d="M445.39,-57.62C449.93,-56.75 454.58,-55.92 459,-55.25 617.84,-31.24 663.83,-50.69 824.87,-19.24"/>
<polygon fill="#63b8ff" stroke="#63b8ff" points="825.55,-22.68 834.67,-17.29 824.18,-15.81 825.55,-22.68"/>
</a>
</g>
</g>
<!-- Node26 -->
<g id="Node000026" class="node">
<title>Node26</title>
<g id="a_Node000026"><a xlink:title=" ">
<polygon fill="#e0e0e0" stroke="#999999" points="266.25,-19.25 215.75,-19.25 215.75,0 266.25,0 266.25,-19.25"/>
<text text-anchor="middle" x="241" y="-5.75" font-family="Helvetica,sans-Serif" font-size="10.00">memory</text>
</a>
</g>
</g>
<!-- Node17&#45;&gt;Node26 -->
<g id="edge30_Node000017_Node000026" class="edge">
<title>Node17&#45;&gt;Node26</title>
<g id="a_edge30_Node000017_Node000026"><a xlink:title=" ">
<path fill="none" stroke="#63b8ff" d="M388.33,-55.2C358.1,-46.05 310.37,-31.61 277.47,-21.66"/>
<polygon fill="#63b8ff" stroke="#63b8ff" points="278.54,-18.33 267.96,-18.78 276.52,-25.03 278.54,-18.33"/>
</a>
</g>
</g>
<!-- Node17&#45;&gt;Node27 -->
<g id="edge31_Node000017_Node000027" class="edge">
<title>Node17&#45;&gt;Node27</title>
<g id="a_edge31_Node000017_Node000027"><a xlink:title=" ">
<path fill="none" stroke="#63b8ff" d="M388.43,-60.23C339.22,-53.77 235.11,-39.29 137.45,-19.59"/>
<polygon fill="#63b8ff" stroke="#63b8ff" points="138.17,-16.16 127.67,-17.59 136.77,-23.02 138.17,-16.16"/>
</a>
</g>
</g>
<!-- Node28 -->
<g id="Node000028" class="node">
<title>Node28</title>
<g id="a_Node000028"><a xlink:title=" ">
<polygon fill="#e0e0e0" stroke="#999999" points="330,-19.25 284,-19.25 284,0 330,0 330,-19.25"/>
<text text-anchor="middle" x="307" y="-5.75" font-family="Helvetica,sans-Serif" font-size="10.00">TEnv.h</text>
</a>
</g>
</g>
<!-- Node17&#45;&gt;Node28 -->
<g id="edge32_Node000017_Node000028" class="edge">
<title>Node17&#45;&gt;Node28</title>
<g id="a_edge32_Node000017_Node000028"><a xlink:title=" ">
<path fill="none" stroke="#63b8ff" d="M398.34,-54.84C381.27,-46.58 355.76,-34.23 336.03,-24.68"/>
<polygon fill="#63b8ff" stroke="#63b8ff" points="337.64,-21.57 327.11,-20.36 334.59,-27.87 337.64,-21.57"/>
</a>
</g>
</g>
<!-- Node29 -->
<g id="Node000029" class="node">
<title>Node29</title>
<g id="a_Node000029"><a xlink:title=" ">
<polygon fill="#e0e0e0" stroke="#999999" points="407.75,-19.25 348.25,-19.25 348.25,0 407.75,0 407.75,-19.25"/>
<text text-anchor="middle" x="378" y="-5.75" font-family="Helvetica,sans-Serif" font-size="10.00">sys/wait.h</text>
</a>
</g>
</g>
<!-- Node17&#45;&gt;Node29 -->
<g id="edge33_Node000017_Node000029" class="edge">
<title>Node17&#45;&gt;Node29</title>
<g id="a_edge33_Node000017_Node000029"><a xlink:title=" ">
<path fill="none" stroke="#63b8ff" d="M410.56,-55.08C405.34,-47.96 397.81,-37.68 391.31,-28.8"/>
<polygon fill="#63b8ff" stroke="#63b8ff" points="394.21,-26.83 385.47,-20.83 388.56,-30.97 394.21,-26.83"/>
</a>
</g>
</g>
<!-- Node30 -->
<g id="Node000030" class="node">
<title>Node30</title>
<g id="a_Node000030"><a xlink:title=" ">
<polygon fill="#e0e0e0" stroke="#999999" points="486.12,-19.25 425.88,-19.25 425.88,0 486.12,0 486.12,-19.25"/>
<text text-anchor="middle" x="456" y="-5.75" font-family="Helvetica,sans-Serif" font-size="10.00">sys/prctl.h</text>
</a>
</g>
</g>
<!-- Node17&#45;&gt;Node30 -->
<g id="edge34_Node000017_Node000030" class="edge">
<title>Node17&#45;&gt;Node30</title>
<g id="a_edge34_Node000017_Node000030"><a xlink:title=" ">
<path fill="none" stroke="#63b8ff" d="M423.44,-55.08C428.66,-47.96 436.19,-37.68 442.69,-28.8"/>
<polygon fill="#63b8ff" stroke="#63b8ff" points="445.44,-30.97 448.53,-20.83 439.79,-26.83 445.44,-30.97"/>
</a>
</g>
</g>
<!-- Node31&#45;&gt;Node4 -->
<g id="edge37_Node000031_Node000004" class="edge">
<title>Node31&#45;&gt;Node4</title>
<g id="a_edge37_Node000031_Node000004"><a xlink:title=" ">
<path fill="none" stroke="#63b8ff" d="M733.49,-57.23C738.05,-56.55 742.62,-55.88 747,-55.25 865.03,-38.41 898.9,-44.45 1018.45,-19.5"/>
<polygon fill="#63b8ff" stroke="#63b8ff" points="1018.97,-22.97 1028.03,-17.47 1017.52,-16.12 1018.97,-22.97"/>
</a>
</g>
</g>
<!-- Node32 -->
<g id="Node000032" class="node">
<title>Node32</title>
<g id="a_Node000032"><a xlink:title=" ">
<polygon fill="#e0e0e0" stroke="#999999" points="1011.62,-19.25 960.38,-19.25 960.38,0 1011.62,0 1011.62,-19.25"/>
<text text-anchor="middle" x="986" y="-5.75" font-family="Helvetica,sans-Serif" font-size="10.00">ostream</text>
</a>
</g>
</g>
<!-- Node31&#45;&gt;Node32 -->
<g id="edge36_Node000031_Node000032" class="edge">
<title>Node31&#45;&gt;Node32</title>
<g id="a_edge36_Node000031_Node000032"><a xlink:title=" ">
<path fill="none" stroke="#63b8ff" d="M733.56,-57.02C792,-47.54 895.21,-30.54 948.8,-19.76"/>
<polygon fill="#63b8ff" stroke="#63b8ff" points="949.5,-23.19 958.58,-17.74 948.08,-16.34 949.5,-23.19"/>
</a>
</g>
</g>
<!-- Node31&#45;&gt;Node33 -->
<g id="edge38_Node000031_Node000033" class="edge">
<title>Node31&#45;&gt;Node33</title>
<g id="a_edge38_Node000031_Node000033"><a xlink:title=" ">
<path fill="none" stroke="#63b8ff" d="M733.45,-59.06C825.86,-48.56 1043.64,-23.84 1126.87,-14.39"/>
<polygon fill="#63b8ff" stroke="#63b8ff" points="1127.1,-17.88 1136.64,-13.28 1126.31,-10.93 1127.1,-17.88"/>
</a>
</g>
</g>
<!-- Node41&#45;&gt;Node4 -->
<g id="edge62_Node000041_Node000004" class="edge">
<title>Node41&#45;&gt;Node4</title>
<g id="a_edge62_Node000041_Node000004"><a xlink:title=" ">
<path fill="none" stroke="#63b8ff" d="M1442.2,-56.38C1439.43,-55.99 1436.68,-55.61 1434,-55.25 1365.82,-46.13 1160.64,-23.01 1081.56,-14.15"/>
<polygon fill="#63b8ff" stroke="#63b8ff" points="1082.24,-10.7 1071.91,-13.07 1081.46,-17.66 1082.24,-10.7"/>
</a>
</g>
</g>
<!-- Node41&#45;&gt;Node14 -->
<g id="edge60_Node000041_Node000014" class="edge">
<title>Node41&#45;&gt;Node14</title>
<g id="a_edge60_Node000041_Node000014"><a xlink:title=" ">
<path fill="none" stroke="#63b8ff" d="M1442.21,-56.24C1439.44,-55.89 1436.69,-55.55 1434,-55.25 1223.75,-31.54 1165.45,-53.08 954.06,-19.49"/>
<polygon fill="#63b8ff" stroke="#63b8ff" points="954.82,-16.07 944.39,-17.93 953.7,-22.98 954.82,-16.07"/>
</a>
</g>
</g>
<!-- Node41&#45;&gt;Node15 -->
<g id="edge64_Node000041_Node000015" class="edge">
<title>Node41&#45;&gt;Node15</title>
<g id="a_edge64_Node000041_Node000015"><a xlink:title=" ">
<path fill="none" stroke="#63b8ff" d="M1443.29,-54.75C1400.29,-46.44 1335.03,-33.62 1269.4,-19.72"/>
<polygon fill="#63b8ff" stroke="#63b8ff" points="1270.43,-16.36 1259.92,-17.7 1268.97,-23.21 1270.43,-16.36"/>
</a>
</g>
</g>
<!-- Node41&#45;&gt;Node19 -->
<g id="edge61_Node000041_Node000019" class="edge">
<title>Node41&#45;&gt;Node19</title>
<g id="a_edge61_Node000041_Node000019"><a xlink:title=" ">
<path fill="none" stroke="#63b8ff" d="M1520.01,-54.84C1549.2,-45.75 1594.3,-31.71 1625.82,-21.89"/>
<polygon fill="#63b8ff" stroke="#63b8ff" points="1626.8,-25.25 1635.31,-18.94 1624.72,-18.57 1626.8,-25.25"/>
</a>
</g>
</g>
<!-- Node42 -->
<g id="Node000042" class="node">
<title>Node42</title>
<g id="a_Node000042"><a xlink:title=" ">
<polygon fill="#e0e0e0" stroke="#999999" points="1445.62,-19.25 1400.38,-19.25 1400.38,0 1445.62,0 1445.62,-19.25"/>
<text text-anchor="middle" x="1423" y="-5.75" font-family="Helvetica,sans-Serif" font-size="10.00">atomic</text>
</a>
</g>
</g>
<!-- Node41&#45;&gt;Node42 -->
<g id="edge57_Node000041_Node000042" class="edge">
<title>Node41&#45;&gt;Node42</title>
<g id="a_edge57_Node000041_Node000042"><a xlink:title=" ">
<path fill="none" stroke="#63b8ff" d="M1479.46,-54.84C1469.54,-47.07 1454.99,-35.67 1443.14,-26.4"/>
<polygon fill="#63b8ff" stroke="#63b8ff" points="1445.59,-23.87 1435.56,-20.46 1441.27,-29.38 1445.59,-23.87"/>
</a>
</g>
</g>
<!-- Node43 -->
<g id="Node000043" class="node">
<title>Node43</title>
<g id="a_Node000043"><a xlink:title=" ">
<polygon fill="#e0e0e0" stroke="#999999" points="1558,-19.25 1464,-19.25 1464,0 1558,0 1558,-19.25"/>
<text text-anchor="middle" x="1511" y="-5.75" font-family="Helvetica,sans-Serif" font-size="10.00">condition_variable</text>
</a>
</g>
</g>
<!-- Node41&#45;&gt;Node43 -->
<g id="edge58_Node000041_Node000043" class="edge">
<title>Node41&#45;&gt;Node43</title>
<g id="a_edge58_Node000041_Node000043"><a xlink:title=" ">
<path fill="none" stroke="#63b8ff" d="M1494.3,-55.08C1496.83,-48.34 1500.43,-38.77 1503.63,-30.24"/>
<polygon fill="#63b8ff" stroke="#63b8ff" points="1506.85,-31.62 1507.09,-21.03 1500.3,-29.16 1506.85,-31.62"/>
</a>
</g>
</g>
<!-- Node44 -->
<g id="Node000044" class="node">
<title>Node44</title>
<g id="a_Node000044"><a xlink:title=" ">
<polygon fill="#e0e0e0" stroke="#999999" points="1619.5,-19.25 1576.5,-19.25 1576.5,0 1619.5,0 1619.5,-19.25"/>
<text text-anchor="middle" x="1598" y="-5.75" font-family="Helvetica,sans-Serif" font-size="10.00">thread</text>
</a>
</g>
</g>
<!-- Node41&#45;&gt;Node44 -->
<g id="edge59_Node000041_Node000044" class="edge">
<title>Node41&#45;&gt;Node44</title>
<g id="a_edge59_Node000041_Node000044"><a xlink:title=" ">
<path fill="none" stroke="#63b8ff" d="M1509.15,-54.84C1525.68,-46.62 1550.34,-34.34 1569.5,-24.81"/>
<polygon fill="#63b8ff" stroke="#63b8ff" points="1571.01,-27.97 1578.4,-20.38 1567.89,-21.7 1571.01,-27.97"/>
</a>
</g>
</g>
<!-- Node45 -->
<g id="Node000045" class="node">
<title>Node45</title>
<g id="a_Node000045"><a xlink:title=" ">
<polygon fill="#e0e0e0" stroke="#999999" points="1382.38,-19.25 1347.62,-19.25 1347.62,0 1382.38,0 1382.38,-19.25"/>
<text text-anchor="middle" x="1365" y="-5.75" font-family="Helvetica,sans-Serif" font-size="10.00">map</text>
</a>
</g>
</g>
<!-- Node41&#45;&gt;Node45 -->
<g id="edge63_Node000041_Node000045" class="edge">
<title>Node41&#45;&gt;Node45</title>
<g id="a_edge63_Node000041_Node000045"><a xlink:title=" ">
<path fill="none" stroke="#63b8ff" d="M1469.63,-54.84C1448.63,-45.97 1416.46,-32.37 1393.34,-22.6"/>
<polygon fill="#63b8ff" stroke="#63b8ff" points="1394.77,-19.41 1384.2,-18.74 1392.05,-25.86 1394.77,-19.41"/>
</a>
</g>
</g>
<!-- Node46&#45;&gt;Node4 -->
<g id="edge68_Node000046_Node000004" class="edge">
<title>Node46&#45;&gt;Node4</title>
<g id="a_edge68_Node000046_Node000004"><a xlink:title=" ">
<path fill="none" stroke="#63b8ff" d="M1300.19,-110.06C1251.28,-90.62 1136.24,-44.9 1080.86,-22.89"/>
<polygon fill="#63b8ff" stroke="#63b8ff" points="1082.3,-19.69 1071.71,-19.25 1079.71,-26.2 1082.3,-19.69"/>
</a>
</g>
</g>
<!-- Node46&#45;&gt;Node33 -->
<g id="edge69_Node000046_Node000033" class="edge">
<title>Node46&#45;&gt;Node33</title>
<g id="a_edge69_Node000046_Node000033"><a xlink:title=" ">
<path fill="none" stroke="#63b8ff" d="M1309.38,-110.06C1281.39,-91.43 1217.12,-48.65 1182.71,-25.75"/>
<polygon fill="#63b8ff" stroke="#63b8ff" points="1184.99,-23.05 1174.72,-20.43 1181.11,-28.88 1184.99,-23.05"/>
</a>
</g>
</g>
<!-- Node46&#45;&gt;Node35 -->
<g id="edge67_Node000046_Node000035" class="edge">
<title>Node46&#45;&gt;Node35</title>
<g id="a_edge67_Node000046_Node000035"><a xlink:title=" ">
<path fill="none" stroke="#63b8ff" d="M1336.06,-110.09C1347.46,-102.21 1364.23,-90.61 1377.74,-81.27"/>
<polygon fill="#63b8ff" stroke="#63b8ff" points="1379.4,-84.38 1385.63,-75.81 1375.41,-78.62 1379.4,-84.38"/>
</a>
</g>
</g>
<!-- Node47 -->
<g id="Node000047" class="node">
<title>Node47</title>
<g id="a_Node000047"><a xlink:href="_t_g_r_s_i_types_8h.html" target="_top" xlink:title=" ">
<polygon fill="white" stroke="#666666" points="1357.88,-74.5 1278.12,-74.5 1278.12,-55.25 1357.88,-55.25 1357.88,-74.5"/>
<text text-anchor="middle" x="1318" y="-61" font-family="Helvetica,sans-Serif" font-size="10.00">TGRSITypes.h</text>
</a>
</g>
</g>
<!-- Node46&#45;&gt;Node47 -->
<g id="edge70_Node000046_Node000047" class="edge">
<title>Node46&#45;&gt;Node47</title>
<g id="a_edge70_Node000046_Node000047"><a xlink:title=" ">
<path fill="none" stroke="#63b8ff" d="M1322.17,-110.33C1321.56,-103.74 1320.68,-94.46 1319.9,-86.07"/>
<polygon fill="#63b8ff" stroke="#63b8ff" points="1323.4,-86 1318.99,-76.37 1316.44,-86.65 1323.4,-86"/>
</a>
</g>
</g>
<!-- Node47&#45;&gt;Node4 -->
<g id="edge72_Node000047_Node000004" class="edge">
<title>Node47&#45;&gt;Node4</title>
<g id="a_edge72_Node000047_Node000004"><a xlink:title=" ">
<path fill="none" stroke="#63b8ff" d="M1277.88,-55.9C1224.19,-45.24 1130.09,-26.54 1081.31,-16.85"/>
<polygon fill="#63b8ff" stroke="#63b8ff" points="1082.19,-13.45 1071.7,-14.94 1080.83,-20.32 1082.19,-13.45"/>
</a>
</g>
</g>
<!-- Node47&#45;&gt;Node45 -->
<g id="edge71_Node000047_Node000045" class="edge">
<title>Node47&#45;&gt;Node45</title>
<g id="a_edge71_Node000047_Node000045"><a xlink:title=" ">
<path fill="none" stroke="#63b8ff" d="M1325.76,-55.08C1332.19,-47.8 1341.51,-37.23 1349.46,-28.23"/>
<polygon fill="#63b8ff" stroke="#63b8ff" points="1352.08,-30.56 1356.07,-20.74 1346.83,-25.93 1352.08,-30.56"/>
</a>
</g>
</g>
<!-- Node48 -->
<g id="Node000048" class="node">
<title>Node48</title>
<g id="a_Node000048"><a xlink:title=" ">
<polygon fill="#e0e0e0" stroke="#999999" points="1329.75,-19.25 1276.25,-19.25 1276.25,0 1329.75,0 1329.75,-19.25"/>
<text text-anchor="middle" x="1303" y="-5.75" font-family="Helvetica,sans-Serif" font-size="10.00">Rtypes.h</text>
</a>
</g>
</g>
<!-- Node47&#45;&gt;Node48 -->
<g id="edge73_Node000047_Node000048" class="edge">
<title>Node47&#45;&gt;Node48</title>
<g id="a_edge73_Node000047_Node000048"><a xlink:title=" ">
<path fill="none" stroke="#63b8ff" d="M1315.52,-55.08C1313.65,-48.42 1310.99,-38.99 1308.61,-30.53"/>
<polygon fill="#63b8ff" stroke="#63b8ff" points="1312.02,-29.74 1305.94,-21.07 1305.28,-31.64 1312.02,-29.74"/>
</a>
</g>
</g>
</g>
</svg>
