<?xml version="1.0" encoding="UTF-8" standalone="no"?>
<!DOCTYPE svg PUBLIC "-//W3C//DTD SVG 1.1//EN"
 "http://www.w3.org/Graphics/SVG/1.1/DTD/svg11.dtd">
<!-- Generated by graphviz version 12.2.0 (20241103.1931)
 -->
<!-- Title: TDemandHit.h Pages: 1 -->
<svg width="313pt" height="138pt"
 viewBox="0.00 0.00 312.88 137.75" xmlns="http://www.w3.org/2000/svg" xmlns:xlink="http://www.w3.org/1999/xlink">

<svg id="main" version="1.1" xmlns="http://www.w3.org/2000/svg" xmlns:xlink="http://www.w3.org/1999/xlink" xml:space="preserve">

<style type="text/css"><![CDATA[
.node, .edge {opacity: 0.7;}
.node.selected, .edge.selected {opacity: 1;}
.edge:hover path { stroke: red; }
.edge:hover polygon { stroke: red; fill: red; }
]]></style>
<script type="application/ecmascript" xlink:href="svg.min.js"/>
<svg id="graph" class="graph">
<g id="graph0" class="graph" transform="scale(1 1) rotate(0) translate(4 133.75)">
<title>TDemandHit.h</title>
<!-- Node1 -->
<g id="Node000001" class="node">
<title>Node1</title>
<g id="a_Node000001"><a xlink:title=" ">
<polygon fill="#999999" stroke="#666666" points="242.38,-129.75 164.12,-129.75 164.12,-110.5 242.38,-110.5 242.38,-129.75"/>
<text text-anchor="middle" x="203.25" y="-116.25" font-family="Helvetica,sans-Serif" font-size="10.00">TDemandHit.h</text>
</a>
</g>
</g>
<!-- Node2 -->
<g id="Node000002" class="node">
<title>Node2</title>
<g id="a_Node000002"><a xlink:href="_t_demand_8h.html" target="_top" xlink:title=" ">
<polygon fill="white" stroke="#666666" points="206,-74.5 140.5,-74.5 140.5,-55.25 206,-55.25 206,-74.5"/>
<text text-anchor="middle" x="173.25" y="-61" font-family="Helvetica,sans-Serif" font-size="10.00">TDemand.h</text>
</a>
</g>
</g>
<!-- Node1&#45;&gt;Node2 -->
<g id="edge1_Node000001_Node000002" class="edge">
<title>Node1&#45;&gt;Node2</title>
<g id="a_edge1_Node000001_Node000002"><a xlink:title=" ">
<path fill="none" stroke="#63b8ff" d="M192.66,-100.33C187.78,-91.67 182.23,-81.81 178.31,-74.86"/>
<polygon fill="#63b8ff" stroke="#63b8ff" points="189.6,-102.02 197.55,-109.01 195.69,-98.58 189.6,-102.02"/>
</a>
</g>
</g>
<!-- Node4 -->
<g id="Node000004" class="node">
<title>Node4</title>
<g id="a_Node000004"><a xlink:href="_t_demand_hit_8cxx.html" target="_top" xlink:title=" ">
<polygon fill="white" stroke="#666666" points="304.88,-19.25 217.62,-19.25 217.62,0 304.88,0 304.88,-19.25"/>
<text text-anchor="middle" x="261.25" y="-5.75" font-family="Helvetica,sans-Serif" font-size="10.00">TDemandHit.cxx</text>
</a>
</g>
</g>
<!-- Node1&#45;&gt;Node4 -->
<g id="edge5_Node000001_Node000004" class="edge">
<title>Node1&#45;&gt;Node4</title>
<g id="a_edge5_Node000001_Node000004"><a xlink:title=" ">
<path fill="none" stroke="#63b8ff" d="M213.26,-100.4C225.86,-76.83 246.99,-37.29 256.44,-19.63"/>
<polygon fill="#63b8ff" stroke="#63b8ff" points="210.34,-98.44 208.71,-108.91 216.51,-101.74 210.34,-98.44"/>
</a>
</g>
</g>
<!-- Node3 -->
<g id="Node000003" class="node">
<title>Node3</title>
<g id="a_Node000003"><a xlink:href="_t_demand_8cxx.html" target="_top" xlink:title=" ">
<polygon fill="white" stroke="#666666" points="74.5,-19.25 0,-19.25 0,0 74.5,0 74.5,-19.25"/>
<text text-anchor="middle" x="37.25" y="-5.75" font-family="Helvetica,sans-Serif" font-size="10.00">TDemand.cxx</text>
</a>
</g>
</g>
<!-- Node2&#45;&gt;Node3 -->
<g id="edge2_Node000002_Node000003" class="edge">
<title>Node2&#45;&gt;Node3</title>
<g id="a_edge2_Node000002_Node000003"><a xlink:title=" ">
<path fill="none" stroke="#63b8ff" d="M139.51,-50.66C114.89,-41.02 82.16,-28.21 60.43,-19.7"/>
<polygon fill="#63b8ff" stroke="#63b8ff" points="138.18,-53.9 148.77,-54.29 140.73,-47.38 138.18,-53.9"/>
</a>
</g>
</g>
<!-- Node2&#45;&gt;Node4 -->
<g id="edge3_Node000002_Node000004" class="edge">
<title>Node2&#45;&gt;Node4</title>
<g id="a_edge3_Node000002_Node000004"><a xlink:title=" ">
<path fill="none" stroke="#63b8ff" d="M197.71,-49.07C213.28,-39.65 232.95,-27.75 246.25,-19.7"/>
<polygon fill="#63b8ff" stroke="#63b8ff" points="196.22,-45.89 189.47,-54.06 199.84,-51.88 196.22,-45.89"/>
</a>
</g>
</g>
<!-- Node5 -->
<g id="Node000005" class="node">
<title>Node5</title>
<g id="a_Node000005"><a xlink:href="_t_g_r_s_i_mnemonic_8cxx.html" target="_top" xlink:title=" ">
<polygon fill="white" stroke="#666666" points="200,-19.25 92.5,-19.25 92.5,0 200,0 200,-19.25"/>
<text text-anchor="middle" x="146.25" y="-5.75" font-family="Helvetica,sans-Serif" font-size="10.00">TGRSIMnemonic.cxx</text>
</a>
</g>
</g>
<!-- Node2&#45;&gt;Node5 -->
<g id="edge4_Node000002_Node000005" class="edge">
<title>Node2&#45;&gt;Node5</title>
<g id="a_edge4_Node000002_Node000005"><a xlink:title=" ">
<path fill="none" stroke="#63b8ff" d="M163.72,-45.08C159.33,-36.42 154.33,-26.56 150.81,-19.61"/>
<polygon fill="#63b8ff" stroke="#63b8ff" points="160.46,-46.4 168.11,-53.73 166.71,-43.23 160.46,-46.4"/>
</a>
</g>
</g>
</g>
</svg>
</svg>

<style type='text/css'>
<![CDATA[
[data-mouse-over-selected='false'] { opacity: 0.7; }
[data-mouse-over-selected='true']  { opacity: 1.0; }
]]>
</style>
<script type="application/ecmascript"><![CDATA[
document.addEventListener('DOMContentLoaded', (event) => {
  highlightEdges();
  highlightAdjacentNodes();
});
]]></script>
</svg>
