<?xml version="1.0" encoding="UTF-8" standalone="no"?>
<!DOCTYPE svg PUBLIC "-//W3C//DTD SVG 1.1//EN"
 "http://www.w3.org/Graphics/SVG/1.1/DTD/svg11.dtd">
<!-- Generated by graphviz version 12.2.0 (20241103.1931)
 -->
<!-- Title: TDecay.cxx Pages: 1 -->
<!--zoomable 138 -->

<svg id="main" version="1.1" xmlns="http://www.w3.org/2000/svg" xmlns:xlink="http://www.w3.org/1999/xlink" xml:space="preserve" onload="init(evt)">

<style type="text/css"><![CDATA[
.node, .edge {opacity: 0.7;}
.node.selected, .edge.selected {opacity: 1;}
.edge:hover path { stroke: red; }
.edge:hover polygon { stroke: red; fill: red; }
]]></style>

<defs>
  <circle id="rim" cx="0" cy="0" r="7"/>
  <circle id="rim2" cx="0" cy="0" r="3.5"/>
  <g id="zoomPlus">
    <use xlink:href="#rim" fill="#404040"><set attributeName="fill" to="#808080" begin="zoomplus.mouseover" end="zoomplus.mouseout"/></use>
    <path d="M-4,0h8M0,-4v8" fill="none" stroke="white" stroke-width="1.5" pointer-events="none"/>
  </g>
  <g id="zoomMin">
    <use xlink:href="#rim" fill="#404040"><set attributeName="fill" to="#808080" begin="zoomminus.mouseover" end="zoomminus.mouseout"/></use>
    <path d="M-4,0h8" fill="none" stroke="white" stroke-width="1.5" pointer-events="none"/>
  </g>
  <g id="arrowUp" transform="translate(30 24)">
    <use xlink:href="#rim"/>
    <path pointer-events="none" fill="none" stroke="white" stroke-width="1.5" d="M0,-3.0v7 M-2.5,-0.5L0,-3.0L2.5,-0.5"/>
  </g>
  <g id="arrowRight" transform="rotate(90) translate(36 -43)">
    <use xlink:href="#rim"/>
    <path pointer-events="none" fill="none" stroke="white" stroke-width="1.5" d="M0,-3.0v7 M-2.5,-0.5L0,-3.0L2.5,-0.5"/>
  </g>
  <g id="arrowDown" transform="rotate(180) translate(-30 -48)">
    <use xlink:href="#rim"/>
    <path pointer-events="none" fill="none" stroke="white" stroke-width="1.5" d="M0,-3.0v7 M-2.5,-0.5L0,-3.0L2.5,-0.5"/>
  </g>
  <g id="arrowLeft" transform="rotate(270) translate(-36 17)">
    <use xlink:href="#rim"/>
    <path pointer-events="none" fill="none" stroke="white" stroke-width="1.5" d="M0,-3.0v7 M-2.5,-0.5L0,-3.0L2.5,-0.5"/>
  </g>
  <g id="resetDef">
    <use xlink:href="#rim2" fill="#404040"><set attributeName="fill" to="#808080" begin="reset.mouseover" end="reset.mouseout"/></use>
  </g>
</defs>
<script type="application/ecmascript">
var viewWidth = 976;
var viewHeight = 138;
var sectionId = 'dynsection-0';
</script>
<script type="application/ecmascript" xlink:href="svg.min.js"/>
<svg id="graph" class="graph">
<g id="viewport">
<title>TDecay.cxx</title>
<!-- Node1 -->
<g id="Node000001" class="node">
<title>Node1</title>
<g id="a_Node000001"><a xlink:title=" ">
<polygon fill="#999999" stroke="#666666" points="622,-129.75 556.5,-129.75 556.5,-110.5 622,-110.5 622,-129.75"/>
<text text-anchor="middle" x="589.25" y="-116.25" font-family="Helvetica,sans-Serif" font-size="10.00">TDecay.cxx</text>
</a>
</g>
</g>
<!-- Node2 -->
<g id="Node000002" class="node">
<title>Node2</title>
<g id="a_Node000002"><a xlink:href="_t_decay_8h.html" target="_top" xlink:title=" ">
<polygon fill="white" stroke="#666666" points="321.5,-74.5 265,-74.5 265,-55.25 321.5,-55.25 321.5,-74.5"/>
<text text-anchor="middle" x="293.25" y="-61" font-family="Helvetica,sans-Serif" font-size="10.00">TDecay.h</text>
</a>
</g>
</g>
<!-- Node1&#45;&gt;Node2 -->
<g id="edge1_Node000001_Node000002" class="edge">
<title>Node1&#45;&gt;Node2</title>
<g id="a_edge1_Node000001_Node000002"><a xlink:title=" ">
<path fill="none" stroke="#63b8ff" d="M556.16,-113.17C501.28,-103.3 391.68,-83.58 332.81,-72.99"/>
<polygon fill="#63b8ff" stroke="#63b8ff" points="333.69,-69.59 323.23,-71.27 332.45,-76.48 333.69,-69.59"/>
</a>
</g>
</g>
<!-- Node4 -->
<g id="Node000004" class="node">
<title>Node4</title>
<g id="a_Node000004"><a xlink:title=" ">
<polygon fill="#e0e0e0" stroke="#999999" points="68.5,-19.25 0,-19.25 0,0 68.5,0 68.5,-19.25"/>
<text text-anchor="middle" x="34.25" y="-5.75" font-family="Helvetica,sans-Serif" font-size="10.00">TFitResult.h</text>
</a>
</g>
</g>
<!-- Node1&#45;&gt;Node4 -->
<g id="edge21_Node000001_Node000004" class="edge">
<title>Node1&#45;&gt;Node4</title>
<g id="a_edge21_Node000001_Node000004"><a xlink:title=" ">
<path fill="none" stroke="#63b8ff" d="M556.36,-116.33C496.3,-110.88 365,-97.3 256.25,-74.5 190.35,-60.68 115.41,-37.52 71.63,-23.21"/>
<polygon fill="#63b8ff" stroke="#63b8ff" points="72.96,-19.96 62.36,-20.16 70.77,-26.61 72.96,-19.96"/>
</a>
</g>
</g>
<!-- Node9 -->
<g id="Node000009" class="node">
<title>Node9</title>
<g id="a_Node000009"><a xlink:title=" ">
<polygon fill="#e0e0e0" stroke="#999999" points="574.5,-74.5 536,-74.5 536,-55.25 574.5,-55.25 574.5,-74.5"/>
<text text-anchor="middle" x="555.25" y="-61" font-family="Helvetica,sans-Serif" font-size="10.00">utility</text>
</a>
</g>
</g>
<!-- Node1&#45;&gt;Node9 -->
<g id="edge8_Node000001_Node000009" class="edge">
<title>Node1&#45;&gt;Node9</title>
<g id="a_edge8_Node000001_Node000009"><a xlink:title=" ">
<path fill="none" stroke="#63b8ff" d="M583.64,-110.33C579.13,-103.28 572.66,-93.15 567.04,-84.33"/>
<polygon fill="#63b8ff" stroke="#63b8ff" points="570.13,-82.68 561.8,-76.13 564.23,-86.45 570.13,-82.68"/>
</a>
</g>
</g>
<!-- Node10 -->
<g id="Node000010" class="node">
<title>Node10</title>
<g id="a_Node000010"><a xlink:title=" ">
<polygon fill="#e0e0e0" stroke="#999999" points="655.5,-74.5 593,-74.5 593,-55.25 655.5,-55.25 655.5,-74.5"/>
<text text-anchor="middle" x="624.25" y="-61" font-family="Helvetica,sans-Serif" font-size="10.00">TCanvas.h</text>
</a>
</g>
</g>
<!-- Node1&#45;&gt;Node10 -->
<g id="edge9_Node000001_Node000010" class="edge">
<title>Node1&#45;&gt;Node10</title>
<g id="a_edge9_Node000001_Node000010"><a xlink:title=" ">
<path fill="none" stroke="#63b8ff" d="M595.03,-110.33C599.66,-103.28 606.32,-93.15 612.12,-84.33"/>
<polygon fill="#63b8ff" stroke="#63b8ff" points="614.95,-86.4 617.51,-76.12 609.1,-82.56 614.95,-86.4"/>
</a>
</g>
</g>
<!-- Node11 -->
<g id="Node000011" class="node">
<title>Node11</title>
<g id="a_Node000011"><a xlink:title=" ">
<polygon fill="#e0e0e0" stroke="#999999" points="728.75,-74.5 673.75,-74.5 673.75,-55.25 728.75,-55.25 728.75,-74.5"/>
<text text-anchor="middle" x="701.25" y="-61" font-family="Helvetica,sans-Serif" font-size="10.00">TBuffer.h</text>
</a>
</g>
</g>
<!-- Node1&#45;&gt;Node11 -->
<g id="edge10_Node000001_Node000011" class="edge">
<title>Node1&#45;&gt;Node11</title>
<g id="a_edge10_Node000001_Node000011"><a xlink:title=" ">
<path fill="none" stroke="#63b8ff" d="M608.25,-110.09C625.71,-101.79 651.85,-89.36 671.97,-79.79"/>
<polygon fill="#63b8ff" stroke="#63b8ff" points="673.26,-83.06 680.79,-75.6 670.26,-76.74 673.26,-83.06"/>
</a>
</g>
</g>
<!-- Node12 -->
<g id="Node000012" class="node">
<title>Node12</title>
<g id="a_Node000012"><a xlink:href="_t_l_m_fitter_8h.html" target="_top" xlink:title=" ">
<polygon fill="white" stroke="#666666" points="518.38,-74.5 452.12,-74.5 452.12,-55.25 518.38,-55.25 518.38,-74.5"/>
<text text-anchor="middle" x="485.25" y="-61" font-family="Helvetica,sans-Serif" font-size="10.00">TLMFitter.h</text>
</a>
</g>
</g>
<!-- Node1&#45;&gt;Node12 -->
<g id="edge11_Node000001_Node000012" class="edge">
<title>Node1&#45;&gt;Node12</title>
<g id="a_edge11_Node000001_Node000012"><a xlink:title=" ">
<path fill="none" stroke="#63b8ff" d="M571.61,-110.09C555.62,-101.91 531.79,-89.71 513.21,-80.19"/>
<polygon fill="#63b8ff" stroke="#63b8ff" points="514.82,-77.08 504.33,-75.64 511.63,-83.32 514.82,-77.08"/>
</a>
</g>
</g>
<!-- Node18 -->
<g id="Node000018" class="node">
<title>Node18</title>
<g id="a_Node000018"><a xlink:title=" ">
<polygon fill="#e0e0e0" stroke="#999999" points="869.88,-74.5 746.62,-74.5 746.62,-55.25 869.88,-55.25 869.88,-74.5"/>
<text text-anchor="middle" x="808.25" y="-61" font-family="Helvetica,sans-Serif" font-size="10.00">Math/MinimizerOptions.h</text>
</a>
</g>
</g>
<!-- Node1&#45;&gt;Node18 -->
<g id="edge19_Node000001_Node000018" class="edge">
<title>Node1&#45;&gt;Node18</title>
<g id="a_edge19_Node000001_Node000018"><a xlink:title=" ">
<path fill="none" stroke="#63b8ff" d="M622.04,-111.15C658.54,-102.28 717.91,-87.84 759.79,-77.66"/>
<polygon fill="#63b8ff" stroke="#63b8ff" points="760.47,-81.09 769.36,-75.33 758.82,-74.29 760.47,-81.09"/>
</a>
</g>
</g>
<!-- Node19 -->
<g id="Node000019" class="node">
<title>Node19</title>
<g id="a_Node000019"><a xlink:title=" ">
<polygon fill="#e0e0e0" stroke="#999999" points="968.12,-74.5 888.38,-74.5 888.38,-55.25 968.12,-55.25 968.12,-74.5"/>
<text text-anchor="middle" x="928.25" y="-61" font-family="Helvetica,sans-Serif" font-size="10.00">TVirtualFitter.h</text>
</a>
</g>
</g>
<!-- Node1&#45;&gt;Node19 -->
<g id="edge20_Node000001_Node000019" class="edge">
<title>Node1&#45;&gt;Node19</title>
<g id="a_edge20_Node000001_Node000019"><a xlink:title=" ">
<path fill="none" stroke="#63b8ff" d="M622.34,-114.27C674.23,-106.61 778.18,-91.05 876.54,-74.92"/>
<polygon fill="#63b8ff" stroke="#63b8ff" points="877.09,-78.37 886.39,-73.3 875.96,-71.47 877.09,-78.37"/>
</a>
</g>
</g>
<!-- Node3 -->
<g id="Node000003" class="node">
<title>Node3</title>
<g id="a_Node000003"><a xlink:title=" ">
<polygon fill="#e0e0e0" stroke="#999999" points="147.75,-19.25 86.75,-19.25 86.75,0 147.75,0 147.75,-19.25"/>
<text text-anchor="middle" x="117.25" y="-5.75" font-family="Helvetica,sans-Serif" font-size="10.00">TNamed.h</text>
</a>
</g>
</g>
<!-- Node2&#45;&gt;Node3 -->
<g id="edge2_Node000002_Node000003" class="edge">
<title>Node2&#45;&gt;Node3</title>
<g id="a_edge2_Node000002_Node000003"><a xlink:title=" ">
<path fill="none" stroke="#63b8ff" d="M264.58,-55.2C235.74,-46.47 190.98,-32.93 158.37,-23.07"/>
<polygon fill="#63b8ff" stroke="#63b8ff" points="159.42,-19.73 148.83,-20.18 157.39,-26.43 159.42,-19.73"/>
</a>
</g>
</g>
<!-- Node2&#45;&gt;Node4 -->
<g id="edge3_Node000002_Node000004" class="edge">
<title>Node2&#45;&gt;Node4</title>
<g id="a_edge3_Node000002_Node000004"><a xlink:title=" ">
<path fill="none" stroke="#63b8ff" d="M264.54,-57.97C219.88,-48.79 133.35,-31 80.01,-20.03"/>
<polygon fill="#63b8ff" stroke="#63b8ff" points="80.82,-16.63 70.32,-18.04 79.41,-23.48 80.82,-16.63"/>
</a>
</g>
</g>
<!-- Node5 -->
<g id="Node000005" class="node">
<title>Node5</title>
<g id="a_Node000005"><a xlink:title=" ">
<polygon fill="#e0e0e0" stroke="#999999" points="246.88,-19.25 165.62,-19.25 165.62,0 246.88,0 246.88,-19.25"/>
<text text-anchor="middle" x="206.25" y="-5.75" font-family="Helvetica,sans-Serif" font-size="10.00">TFitResultPtr.h</text>
</a>
</g>
</g>
<!-- Node2&#45;&gt;Node5 -->
<g id="edge4_Node000002_Node000005" class="edge">
<title>Node2&#45;&gt;Node5</title>
<g id="a_edge4_Node000002_Node000005"><a xlink:title=" ">
<path fill="none" stroke="#63b8ff" d="M278.49,-54.84C265.37,-46.81 245.93,-34.91 230.52,-25.48"/>
<polygon fill="#63b8ff" stroke="#63b8ff" points="232.73,-22.73 222.37,-20.49 229.07,-28.7 232.73,-22.73"/>
</a>
</g>
</g>
<!-- Node6 -->
<g id="Node000006" class="node">
<title>Node6</title>
<g id="a_Node000006"><a xlink:title=" ">
<polygon fill="#e0e0e0" stroke="#999999" points="321.12,-19.25 265.38,-19.25 265.38,0 321.12,0 321.12,-19.25"/>
<text text-anchor="middle" x="293.25" y="-5.75" font-family="Helvetica,sans-Serif" font-size="10.00">TGraph.h</text>
</a>
</g>
</g>
<!-- Node2&#45;&gt;Node6 -->
<g id="edge5_Node000002_Node000006" class="edge">
<title>Node2&#45;&gt;Node6</title>
<g id="a_edge5_Node000002_Node000006"><a xlink:title=" ">
<path fill="none" stroke="#63b8ff" d="M293.25,-55.08C293.25,-48.57 293.25,-39.42 293.25,-31.12"/>
<polygon fill="#63b8ff" stroke="#63b8ff" points="296.75,-31.12 293.25,-21.12 289.75,-31.12 296.75,-31.12"/>
</a>
</g>
</g>
<!-- Node7 -->
<g id="Node000007" class="node">
<title>Node7</title>
<g id="a_Node000007"><a xlink:title=" ">
<polygon fill="#e0e0e0" stroke="#999999" points="440.62,-19.25 399.88,-19.25 399.88,0 440.62,0 440.62,-19.25"/>
<text text-anchor="middle" x="420.25" y="-5.75" font-family="Helvetica,sans-Serif" font-size="10.00">TF1.h</text>
</a>
</g>
</g>
<!-- Node2&#45;&gt;Node7 -->
<g id="edge6_Node000002_Node000007" class="edge">
<title>Node2&#45;&gt;Node7</title>
<g id="a_edge6_Node000002_Node000007"><a xlink:title=" ">
<path fill="none" stroke="#63b8ff" d="M314.79,-54.84C335.11,-46.32 365.79,-33.46 388.83,-23.8"/>
<polygon fill="#63b8ff" stroke="#63b8ff" points="390.18,-27.03 398.05,-19.93 387.47,-20.57 390.18,-27.03"/>
</a>
</g>
</g>
<!-- Node8 -->
<g id="Node000008" class="node">
<title>Node8</title>
<g id="a_Node000008"><a xlink:title=" ">
<polygon fill="#e0e0e0" stroke="#999999" points="381.38,-19.25 339.12,-19.25 339.12,0 381.38,0 381.38,-19.25"/>
<text text-anchor="middle" x="360.25" y="-5.75" font-family="Helvetica,sans-Serif" font-size="10.00">TH1.h</text>
</a>
</g>
</g>
<!-- Node2&#45;&gt;Node8 -->
<g id="edge7_Node000002_Node000008" class="edge">
<title>Node2&#45;&gt;Node8</title>
<g id="a_edge7_Node000002_Node000008"><a xlink:title=" ">
<path fill="none" stroke="#63b8ff" d="M304.62,-54.84C314.3,-47.15 328.45,-35.9 340.06,-26.68"/>
<polygon fill="#63b8ff" stroke="#63b8ff" points="342.22,-29.43 347.87,-20.47 337.86,-23.95 342.22,-29.43"/>
</a>
</g>
</g>
<!-- Node12&#45;&gt;Node7 -->
<g id="edge18_Node000012_Node000007" class="edge">
<title>Node12&#45;&gt;Node7</title>
<g id="a_edge18_Node000012_Node000007"><a xlink:title=" ">
<path fill="none" stroke="#63b8ff" d="M474.22,-54.84C464.83,-47.15 451.1,-35.9 439.84,-26.68"/>
<polygon fill="#63b8ff" stroke="#63b8ff" points="442.24,-24.11 432.28,-20.48 437.8,-29.53 442.24,-24.11"/>
</a>
</g>
</g>
<!-- Node12&#45;&gt;Node8 -->
<g id="edge17_Node000012_Node000008" class="edge">
<title>Node12&#45;&gt;Node8</title>
<g id="a_edge17_Node000012_Node000008"><a xlink:title=" ">
<path fill="none" stroke="#63b8ff" d="M464.05,-54.84C444.29,-46.43 414.58,-33.77 392,-24.15"/>
<polygon fill="#63b8ff" stroke="#63b8ff" points="393.52,-20.99 382.95,-20.3 390.78,-27.43 393.52,-20.99"/>
</a>
</g>
</g>
<!-- Node13 -->
<g id="Node000013" class="node">
<title>Node13</title>
<g id="a_Node000013"><a xlink:title=" ">
<polygon fill="#e0e0e0" stroke="#999999" points="658.25,-19.25 606.25,-19.25 606.25,0 658.25,0 658.25,-19.25"/>
<text text-anchor="middle" x="632.25" y="-5.75" font-family="Helvetica,sans-Serif" font-size="10.00">complex</text>
</a>
</g>
</g>
<!-- Node12&#45;&gt;Node13 -->
<g id="edge12_Node000012_Node000013" class="edge">
<title>Node12&#45;&gt;Node13</title>
<g id="a_edge12_Node000012_Node000013"><a xlink:title=" ">
<path fill="none" stroke="#63b8ff" d="M510.19,-54.84C533.94,-46.24 569.96,-33.19 596.71,-23.5"/>
<polygon fill="#63b8ff" stroke="#63b8ff" points="597.56,-26.91 605.77,-20.22 595.17,-20.33 597.56,-26.91"/>
</a>
</g>
</g>
<!-- Node14 -->
<g id="Node000014" class="node">
<title>Node14</title>
<g id="a_Node000014"><a xlink:title=" ">
<polygon fill="#e0e0e0" stroke="#999999" points="730,-19.25 676.5,-19.25 676.5,0 730,0 730,-19.25"/>
<text text-anchor="middle" x="703.25" y="-5.75" font-family="Helvetica,sans-Serif" font-size="10.00">iostream</text>
</a>
</g>
</g>
<!-- Node12&#45;&gt;Node14 -->
<g id="edge13_Node000012_Node000014" class="edge">
<title>Node12&#45;&gt;Node14</title>
<g id="a_edge13_Node000012_Node000014"><a xlink:title=" ">
<path fill="none" stroke="#63b8ff" d="M518.83,-55.67C558.35,-46.02 623.82,-30.03 665.18,-19.92"/>
<polygon fill="#63b8ff" stroke="#63b8ff" points="665.82,-23.37 674.7,-17.6 664.16,-16.57 665.82,-23.37"/>
</a>
</g>
</g>
<!-- Node15 -->
<g id="Node000015" class="node">
<title>Node15</title>
<g id="a_Node000015"><a xlink:title=" ">
<polygon fill="#e0e0e0" stroke="#999999" points="796.75,-19.25 747.75,-19.25 747.75,0 796.75,0 796.75,-19.25"/>
<text text-anchor="middle" x="772.25" y="-5.75" font-family="Helvetica,sans-Serif" font-size="10.00">fstream</text>
</a>
</g>
</g>
<!-- Node12&#45;&gt;Node15 -->
<g id="edge14_Node000012_Node000015" class="edge">
<title>Node12&#45;&gt;Node15</title>
<g id="a_edge14_Node000012_Node000015"><a xlink:title=" ">
<path fill="none" stroke="#63b8ff" d="M518.7,-56.9C521.59,-56.33 524.47,-55.77 527.25,-55.25 617.7,-38.29 643.89,-39.25 736.44,-19.71"/>
<polygon fill="#63b8ff" stroke="#63b8ff" points="736.91,-23.19 745.96,-17.67 735.45,-16.34 736.91,-23.19"/>
</a>
</g>
</g>
<!-- Node16 -->
<g id="Node000016" class="node">
<title>Node16</title>
<g id="a_Node000016"><a xlink:title=" ">
<polygon fill="#e0e0e0" stroke="#999999" points="512,-19.25 458.5,-19.25 458.5,0 512,0 512,-19.25"/>
<text text-anchor="middle" x="485.25" y="-5.75" font-family="Helvetica,sans-Serif" font-size="10.00">Rtypes.h</text>
</a>
</g>
</g>
<!-- Node12&#45;&gt;Node16 -->
<g id="edge15_Node000012_Node000016" class="edge">
<title>Node12&#45;&gt;Node16</title>
<g id="a_edge15_Node000012_Node000016"><a xlink:title=" ">
<path fill="none" stroke="#63b8ff" d="M485.25,-55.08C485.25,-48.57 485.25,-39.42 485.25,-31.12"/>
<polygon fill="#63b8ff" stroke="#63b8ff" points="488.75,-31.12 485.25,-21.12 481.75,-31.12 488.75,-31.12"/>
</a>
</g>
</g>
<!-- Node17 -->
<g id="Node000017" class="node">
<title>Node17</title>
<g id="a_Node000017"><a xlink:title=" ">
<polygon fill="#e0e0e0" stroke="#999999" points="588.25,-19.25 530.25,-19.25 530.25,0 588.25,0 588.25,-19.25"/>
<text text-anchor="middle" x="559.25" y="-5.75" font-family="Helvetica,sans-Serif" font-size="10.00">TObject.h</text>
</a>
</g>
</g>
<!-- Node12&#45;&gt;Node17 -->
<g id="edge16_Node000012_Node000017" class="edge">
<title>Node12&#45;&gt;Node17</title>
<g id="a_edge16_Node000012_Node000017"><a xlink:title=" ">
<path fill="none" stroke="#63b8ff" d="M497.8,-54.84C508.71,-46.99 524.75,-35.45 537.71,-26.12"/>
<polygon fill="#63b8ff" stroke="#63b8ff" points="539.58,-29.09 545.65,-20.41 535.49,-23.41 539.58,-29.09"/>
</a>
</g>
</g>
</g>
</svg>

<g id="navigator" transform="translate(0 0)" fill="#404254">
  <rect fill="#f2f5e9" fill-opacity="0.5" stroke="#606060" stroke-width=".5" x="0" y="0" width="60" height="60"/>
  <use id="zoomplus" xlink:href="#zoomPlus" x="17" y="9" onmousedown="handleZoom(evt,'in')"/>
  <use id="zoomminus" xlink:href="#zoomMin" x="42" y="9" onmousedown="handleZoom(evt,'out')"/>
  <use id="reset" xlink:href="#resetDef" x="30" y="36" onmousedown="handleReset()"/>
   <use id="arrowup" xlink:href="#arrowUp" x="0" y="0" onmousedown="handlePan(0,-1)"/>
  <use id="arrowright" xlink:href="#arrowRight" x="0" y="0" onmousedown="handlePan(1,0)"/>
  <use id="arrowdown" xlink:href="#arrowDown" x="0" y="0" onmousedown="handlePan(0,1)"/>
  <use id="arrowleft" xlink:href="#arrowLeft" x="0" y="0" onmousedown="handlePan(-1,0)"/>
</g>
<svg viewBox="0 0 15 15" width="100%" height="30px" preserveAspectRatio="xMaxYMin meet">
 <g id="arrow_out" transform="scale(0.3 0.3)">
  <a xlink:href="_t_decay_8cxx__incl_org.svg" target="_base">
   <rect id="button" ry="5" rx="5" y="6" x="6" height="38" width="38"
        fill="#f2f5e9" fill-opacity="0.5" stroke="#606060" stroke-width="1.0"/>
   <path id="arrow"
     d="M 11.500037,31.436501 C 11.940474,20.09759 22.043105,11.32322 32.158766,21.979434 L 37.068811,17.246167 C 37.068811,17.246167 37.088388,32 37.088388,32 L 22.160133,31.978069 C 22.160133,31.978069 26.997745,27.140456 26.997745,27.140456 C 18.528582,18.264221 13.291696,25.230495 11.500037,31.436501 z"
     style="fill:#404040;"/>
  </a>
 </g>
</svg>

<style type='text/css'>
<![CDATA[
[data-mouse-over-selected='false'] { opacity: 0.7; }
[data-mouse-over-selected='true']  { opacity: 1.0; }
]]>
</style>
<script type="application/ecmascript"><![CDATA[
document.addEventListener('DOMContentLoaded', (event) => {
  highlightEdges();
  highlightAdjacentNodes();
});
]]></script>
</svg>
