<?xml version="1.0" encoding="UTF-8" standalone="no"?>
<!DOCTYPE svg PUBLIC "-//W3C//DTD SVG 1.1//EN"
 "http://www.w3.org/Graphics/SVG/1.1/DTD/svg11.dtd">
<!-- Generated by graphviz version 9.0.0 (20230911.1827)
 -->
<!-- Title: TDecay.cxx Pages: 1 -->
<!--zoomable 248 -->

<svg id="main" version="1.1" xmlns="http://www.w3.org/2000/svg" xmlns:xlink="http://www.w3.org/1999/xlink" xml:space="preserve" onload="init(evt)">
<style type="text/css"><![CDATA[
.node, .edge {opacity: 0.7;}
.node.selected, .edge.selected {opacity: 1;}
.edge:hover path { stroke: red; }
.edge:hover polygon { stroke: red; fill: red; }
]]></style>

<defs>
  <circle id="rim" cx="0" cy="0" r="7"/>
  <circle id="rim2" cx="0" cy="0" r="3.5"/>
  <g id="zoomPlus">
    <use xlink:href="#rim" fill="#404040"><set attributeName="fill" to="#808080" begin="zoomplus.mouseover" end="zoomplus.mouseout"/></use>
    <path d="M-4,0h8M0,-4v8" fill="none" stroke="white" stroke-width="1.5" pointer-events="none"/>
  </g>
  <g id="zoomMin">
    <use xlink:href="#rim" fill="#404040"><set attributeName="fill" to="#808080" begin="zoomminus.mouseover" end="zoomminus.mouseout"/></use>
    <path d="M-4,0h8" fill="none" stroke="white" stroke-width="1.5" pointer-events="none"/>
  </g>
  <g id="arrowUp" transform="translate(30 24)">
    <use xlink:href="#rim"/>
    <path pointer-events="none" fill="none" stroke="white" stroke-width="1.5" d="M0,-3.0v7 M-2.5,-0.5L0,-3.0L2.5,-0.5"/>
  </g>
  <g id="arrowRight" transform="rotate(90) translate(36 -43)">
    <use xlink:href="#rim"/>
    <path pointer-events="none" fill="none" stroke="white" stroke-width="1.5" d="M0,-3.0v7 M-2.5,-0.5L0,-3.0L2.5,-0.5"/>
  </g>
  <g id="arrowDown" transform="rotate(180) translate(-30 -48)">
    <use xlink:href="#rim"/>
    <path pointer-events="none" fill="none" stroke="white" stroke-width="1.5" d="M0,-3.0v7 M-2.5,-0.5L0,-3.0L2.5,-0.5"/>
  </g>
  <g id="arrowLeft" transform="rotate(270) translate(-36 17)">
    <use xlink:href="#rim"/>
    <path pointer-events="none" fill="none" stroke="white" stroke-width="1.5" d="M0,-3.0v7 M-2.5,-0.5L0,-3.0L2.5,-0.5"/>
  </g>
  <g id="resetDef">
    <use xlink:href="#rim2" fill="#404040"><set attributeName="fill" to="#808080" begin="reset.mouseover" end="reset.mouseout"/></use>
  </g>
</defs>
<script type="application/ecmascript">
var viewWidth = 1991;
var viewHeight = 248;
var sectionId = 'dynsection-0';
</script>
<script type="application/ecmascript" xlink:href="svg.min.js"/>
<svg id="graph" class="graph">
<g id="viewport">
<title>TDecay.cxx</title>
<!-- Node1 -->
<g id="Node000001" class="node">
<title>Node1</title>
<g id="a_Node000001"><a xlink:title=" ">
<polygon fill="#999999" stroke="#666666" points="1151.5,-240.25 1086,-240.25 1086,-221 1151.5,-221 1151.5,-240.25"/>
<text text-anchor="middle" x="1118.75" y="-226.75" font-family="Helvetica,sans-Serif" font-size="10.00">TDecay.cxx</text>
</a>
</g>
</g>
<!-- Node2 -->
<g id="Node000002" class="node">
<title>Node2</title>
<g id="a_Node000002"><a xlink:href="_t_decay_8h.html" target="_top" xlink:title=" ">
<polygon fill="white" stroke="#666666" points="1275,-129.75 1218.5,-129.75 1218.5,-110.5 1275,-110.5 1275,-129.75"/>
<text text-anchor="middle" x="1246.75" y="-116.25" font-family="Helvetica,sans-Serif" font-size="10.00">TDecay.h</text>
</a>
</g>
</g>
<!-- Node1&#45;&gt;Node2 -->
<g id="edge1_Node000001_Node000002" class="edge">
<title>Node1&#45;&gt;Node2</title>
<g id="a_edge1_Node000001_Node000002"><a xlink:title=" ">
<path fill="none" stroke="#63b8ff" d="M1112.2,-220.91C1103.17,-207.75 1089.34,-182.55 1101.75,-165.75 1108.2,-157.01 1166.57,-141 1207.25,-130.72"/>
<polygon fill="#63b8ff" stroke="#63b8ff" points="1207.87,-134.17 1216.73,-128.35 1206.18,-127.38 1207.87,-134.17"/>
</a>
</g>
</g>
<!-- Node12 -->
<g id="Node000012" class="node">
<title>Node12</title>
<g id="a_Node000012"><a xlink:title=" ">
<polygon fill="#e0e0e0" stroke="#999999" points="1200.5,-185 1111,-185 1111,-165.75 1200.5,-165.75 1200.5,-185"/>
<text text-anchor="middle" x="1155.75" y="-171.5" font-family="Helvetica,sans-Serif" font-size="10.00">Math/Minimizer.h</text>
</a>
</g>
</g>
<!-- Node1&#45;&gt;Node12 -->
<g id="edge11_Node000001_Node000012" class="edge">
<title>Node1&#45;&gt;Node12</title>
<g id="a_edge11_Node000001_Node000012"><a xlink:title=" ">
<path fill="none" stroke="#63b8ff" d="M1124.86,-220.83C1129.81,-213.71 1136.95,-203.43 1143.12,-194.55"/>
<polygon fill="#63b8ff" stroke="#63b8ff" points="1145.81,-196.81 1148.64,-186.6 1140.06,-192.82 1145.81,-196.81"/>
</a>
</g>
</g>
<!-- Node13 -->
<g id="Node000013" class="node">
<title>Node13</title>
<g id="a_Node000013"><a xlink:title=" ">
<polygon fill="#e0e0e0" stroke="#999999" points="1299,-185 1218.5,-185 1218.5,-165.75 1299,-165.75 1299,-185"/>
<text text-anchor="middle" x="1258.75" y="-171.5" font-family="Helvetica,sans-Serif" font-size="10.00">Math/Factory.h</text>
</a>
</g>
</g>
<!-- Node1&#45;&gt;Node13 -->
<g id="edge12_Node000001_Node000013" class="edge">
<title>Node1&#45;&gt;Node13</title>
<g id="a_edge12_Node000001_Node000013"><a xlink:title=" ">
<path fill="none" stroke="#63b8ff" d="M1142.5,-220.59C1164.92,-212.06 1198.81,-199.17 1224.22,-189.51"/>
<polygon fill="#63b8ff" stroke="#63b8ff" points="1225.37,-192.82 1233.47,-185.99 1222.88,-186.27 1225.37,-192.82"/>
</a>
</g>
</g>
<!-- Node14 -->
<g id="Node000014" class="node">
<title>Node14</title>
<g id="a_Node000014"><a xlink:title=" ">
<polygon fill="#e0e0e0" stroke="#999999" points="1398.38,-185 1317.12,-185 1317.12,-165.75 1398.38,-165.75 1398.38,-185"/>
<text text-anchor="middle" x="1357.75" y="-171.5" font-family="Helvetica,sans-Serif" font-size="10.00">Math/Functor.h</text>
</a>
</g>
</g>
<!-- Node1&#45;&gt;Node14 -->
<g id="edge13_Node000001_Node000014" class="edge">
<title>Node1&#45;&gt;Node14</title>
<g id="a_edge13_Node000001_Node000014"><a xlink:title=" ">
<path fill="none" stroke="#63b8ff" d="M1151.98,-222.22C1191.8,-213.35 1258.97,-198.38 1305.69,-187.97"/>
<polygon fill="#63b8ff" stroke="#63b8ff" points="1306.32,-191.42 1315.32,-185.83 1304.8,-184.59 1306.32,-191.42"/>
</a>
</g>
</g>
<!-- Node15 -->
<g id="Node000015" class="node">
<title>Node15</title>
<g id="a_Node000015"><a xlink:href="_g_canvas_8h.html" target="_top" xlink:title=" ">
<polygon fill="white" stroke="#666666" points="1054.75,-185 990.75,-185 990.75,-165.75 1054.75,-165.75 1054.75,-185"/>
<text text-anchor="middle" x="1022.75" y="-171.5" font-family="Helvetica,sans-Serif" font-size="10.00">GCanvas.h</text>
</a>
</g>
</g>
<!-- Node1&#45;&gt;Node15 -->
<g id="edge14_Node000001_Node000015" class="edge">
<title>Node1&#45;&gt;Node15</title>
<g id="a_edge14_Node000001_Node000015"><a xlink:title=" ">
<path fill="none" stroke="#63b8ff" d="M1102.46,-220.59C1087.85,-212.48 1066.12,-200.43 1049.04,-190.96"/>
<polygon fill="#63b8ff" stroke="#63b8ff" points="1050.88,-187.98 1040.44,-186.19 1047.49,-194.1 1050.88,-187.98"/>
</a>
</g>
</g>
<!-- Node30 -->
<g id="Node000030" class="node">
<title>Node30</title>
<g id="a_Node000030"><a xlink:href="_t_l_m_fitter_8h.html" target="_top" xlink:title=" ">
<polygon fill="white" stroke="#666666" points="768.88,-129.75 702.62,-129.75 702.62,-110.5 768.88,-110.5 768.88,-129.75"/>
<text text-anchor="middle" x="735.75" y="-116.25" font-family="Helvetica,sans-Serif" font-size="10.00">TLMFitter.h</text>
</a>
</g>
</g>
<!-- Node1&#45;&gt;Node30 -->
<g id="edge36_Node000001_Node000030" class="edge">
<title>Node1&#45;&gt;Node30</title>
<g id="a_edge36_Node000001_Node000030"><a xlink:title=" ">
<path fill="none" stroke="#63b8ff" d="M1086.75,-220.56C1018.04,-201.09 856.32,-155.28 778.74,-133.3"/>
<polygon fill="#63b8ff" stroke="#63b8ff" points="779.96,-130.01 769.38,-130.65 778.05,-136.75 779.96,-130.01"/>
</a>
</g>
</g>
<!-- Node3 -->
<g id="Node000003" class="node">
<title>Node3</title>
<g id="a_Node000003"><a xlink:title=" ">
<polygon fill="#e0e0e0" stroke="#999999" points="1134.75,-19.25 1094.75,-19.25 1094.75,0 1134.75,0 1134.75,-19.25"/>
<text text-anchor="middle" x="1114.75" y="-5.75" font-family="Helvetica,sans-Serif" font-size="10.00">string</text>
</a>
</g>
</g>
<!-- Node2&#45;&gt;Node3 -->
<g id="edge2_Node000002_Node000003" class="edge">
<title>Node2&#45;&gt;Node3</title>
<g id="a_edge2_Node000002_Node000003"><a xlink:title=" ">
<path fill="none" stroke="#63b8ff" d="M1218.13,-111.94C1173.93,-100.7 1093.7,-79.73 1089.75,-74.5 1079.35,-60.74 1088.72,-42.1 1098.82,-28.51"/>
<polygon fill="#63b8ff" stroke="#63b8ff" points="1101.48,-30.79 1105.08,-20.82 1096.05,-26.37 1101.48,-30.79"/>
</a>
</g>
</g>
<!-- Node4 -->
<g id="Node000004" class="node">
<title>Node4</title>
<g id="a_Node000004"><a xlink:title=" ">
<polygon fill="#e0e0e0" stroke="#999999" points="1570.25,-19.25 1509.25,-19.25 1509.25,0 1570.25,0 1570.25,-19.25"/>
<text text-anchor="middle" x="1539.75" y="-5.75" font-family="Helvetica,sans-Serif" font-size="10.00">TNamed.h</text>
</a>
</g>
</g>
<!-- Node2&#45;&gt;Node4 -->
<g id="edge3_Node000002_Node000004" class="edge">
<title>Node2&#45;&gt;Node4</title>
<g id="a_edge3_Node000002_Node000004"><a xlink:title=" ">
<path fill="none" stroke="#63b8ff" d="M1218.19,-110.74C1183.38,-100.23 1128.46,-82.62 1122.75,-74.5 1117.83,-67.5 1117.03,-61.61 1122.75,-55.25 1147.53,-27.67 1396.86,-15.73 1497.73,-12"/>
<polygon fill="#63b8ff" stroke="#63b8ff" points="1497.61,-15.51 1507.48,-11.65 1497.36,-8.51 1497.61,-15.51"/>
</a>
</g>
</g>
<!-- Node5 -->
<g id="Node000005" class="node">
<title>Node5</title>
<g id="a_Node000005"><a xlink:title=" ">
<polygon fill="#e0e0e0" stroke="#999999" points="1183.38,-74.5 1132.12,-74.5 1132.12,-55.25 1183.38,-55.25 1183.38,-74.5"/>
<text text-anchor="middle" x="1157.75" y="-61" font-family="Helvetica,sans-Serif" font-size="10.00">TMath.h</text>
</a>
</g>
</g>
<!-- Node2&#45;&gt;Node5 -->
<g id="edge4_Node000002_Node000005" class="edge">
<title>Node2&#45;&gt;Node5</title>
<g id="a_edge4_Node000002_Node000005"><a xlink:title=" ">
<path fill="none" stroke="#63b8ff" d="M1231.65,-110.09C1218.23,-102.06 1198.34,-90.16 1182.58,-80.73"/>
<polygon fill="#63b8ff" stroke="#63b8ff" points="1184.6,-77.86 1174.22,-75.73 1181,-83.87 1184.6,-77.86"/>
</a>
</g>
</g>
<!-- Node6 -->
<g id="Node000006" class="node">
<title>Node6</title>
<g id="a_Node000006"><a xlink:title=" ">
<polygon fill="#e0e0e0" stroke="#999999" points="1270,-74.5 1201.5,-74.5 1201.5,-55.25 1270,-55.25 1270,-74.5"/>
<text text-anchor="middle" x="1235.75" y="-61" font-family="Helvetica,sans-Serif" font-size="10.00">TFitResult.h</text>
</a>
</g>
</g>
<!-- Node2&#45;&gt;Node6 -->
<g id="edge5_Node000002_Node000006" class="edge">
<title>Node2&#45;&gt;Node6</title>
<g id="a_edge5_Node000002_Node000006"><a xlink:title=" ">
<path fill="none" stroke="#63b8ff" d="M1244.93,-110.33C1243.57,-103.74 1241.65,-94.46 1239.92,-86.07"/>
<polygon fill="#63b8ff" stroke="#63b8ff" points="1243.36,-85.43 1237.91,-76.34 1236.51,-86.84 1243.36,-85.43"/>
</a>
</g>
</g>
<!-- Node7 -->
<g id="Node000007" class="node">
<title>Node7</title>
<g id="a_Node000007"><a xlink:title=" ">
<polygon fill="#e0e0e0" stroke="#999999" points="1369.38,-74.5 1288.12,-74.5 1288.12,-55.25 1369.38,-55.25 1369.38,-74.5"/>
<text text-anchor="middle" x="1328.75" y="-61" font-family="Helvetica,sans-Serif" font-size="10.00">TFitResultPtr.h</text>
</a>
</g>
</g>
<!-- Node2&#45;&gt;Node7 -->
<g id="edge6_Node000002_Node000007" class="edge">
<title>Node2&#45;&gt;Node7</title>
<g id="a_edge6_Node000002_Node000007"><a xlink:title=" ">
<path fill="none" stroke="#63b8ff" d="M1260.66,-110.09C1272.91,-102.14 1291,-90.39 1305.46,-81"/>
<polygon fill="#63b8ff" stroke="#63b8ff" points="1307.02,-84.16 1313.5,-75.78 1303.21,-78.29 1307.02,-84.16"/>
</a>
</g>
</g>
<!-- Node8 -->
<g id="Node000008" class="node">
<title>Node8</title>
<g id="a_Node000008"><a xlink:title=" ">
<polygon fill="#e0e0e0" stroke="#999999" points="1443.62,-74.5 1387.88,-74.5 1387.88,-55.25 1443.62,-55.25 1443.62,-74.5"/>
<text text-anchor="middle" x="1415.75" y="-61" font-family="Helvetica,sans-Serif" font-size="10.00">TGraph.h</text>
</a>
</g>
</g>
<!-- Node2&#45;&gt;Node8 -->
<g id="edge7_Node000002_Node000008" class="edge">
<title>Node2&#45;&gt;Node8</title>
<g id="a_edge7_Node000002_Node000008"><a xlink:title=" ">
<path fill="none" stroke="#63b8ff" d="M1275.42,-110.09C1303.26,-101.32 1345.75,-87.93 1376.68,-78.19"/>
<polygon fill="#63b8ff" stroke="#63b8ff" points="1377.58,-81.57 1386.06,-75.23 1375.47,-74.9 1377.58,-81.57"/>
</a>
</g>
</g>
<!-- Node9 -->
<g id="Node000009" class="node">
<title>Node9</title>
<g id="a_Node000009"><a xlink:title=" ">
<polygon fill="#e0e0e0" stroke="#999999" points="977.12,-74.5 936.38,-74.5 936.38,-55.25 977.12,-55.25 977.12,-74.5"/>
<text text-anchor="middle" x="956.75" y="-61" font-family="Helvetica,sans-Serif" font-size="10.00">TF1.h</text>
</a>
</g>
</g>
<!-- Node2&#45;&gt;Node9 -->
<g id="edge8_Node000002_Node000009" class="edge">
<title>Node2&#45;&gt;Node9</title>
<g id="a_edge8_Node000002_Node000009"><a xlink:title=" ">
<path fill="none" stroke="#63b8ff" d="M1218.11,-112.24C1215.29,-111.63 1212.47,-111.04 1209.75,-110.5 1114.71,-91.77 1086.68,-96.07 988.36,-74.59"/>
<polygon fill="#63b8ff" stroke="#63b8ff" points="989.32,-71.22 978.8,-72.47 987.8,-78.06 989.32,-71.22"/>
</a>
</g>
</g>
<!-- Node10 -->
<g id="Node000010" class="node">
<title>Node10</title>
<g id="a_Node000010"><a xlink:title=" ">
<polygon fill="#e0e0e0" stroke="#999999" points="1037.88,-74.5 995.62,-74.5 995.62,-55.25 1037.88,-55.25 1037.88,-74.5"/>
<text text-anchor="middle" x="1016.75" y="-61" font-family="Helvetica,sans-Serif" font-size="10.00">TH1.h</text>
</a>
</g>
</g>
<!-- Node2&#45;&gt;Node10 -->
<g id="edge9_Node000002_Node000010" class="edge">
<title>Node2&#45;&gt;Node10</title>
<g id="a_edge9_Node000002_Node000010"><a xlink:title=" ">
<path fill="none" stroke="#63b8ff" d="M1218.07,-112.42C1215.26,-111.77 1212.45,-111.12 1209.75,-110.5 1139.57,-94.32 1121.83,-91.12 1051.75,-74.5 1050.93,-74.31 1050.1,-74.11 1049.26,-73.91"/>
<polygon fill="#63b8ff" stroke="#63b8ff" points="1050.22,-70.54 1039.68,-71.58 1048.57,-77.34 1050.22,-70.54"/>
</a>
</g>
</g>
<!-- Node11 -->
<g id="Node000011" class="node">
<title>Node11</title>
<g id="a_Node000011"><a xlink:title=" ">
<polygon fill="#e0e0e0" stroke="#999999" points="1541.62,-74.5 1461.88,-74.5 1461.88,-55.25 1541.62,-55.25 1541.62,-74.5"/>
<text text-anchor="middle" x="1501.75" y="-61" font-family="Helvetica,sans-Serif" font-size="10.00">TVirtualFitter.h</text>
</a>
</g>
</g>
<!-- Node2&#45;&gt;Node11 -->
<g id="edge10_Node000002_Node000011" class="edge">
<title>Node2&#45;&gt;Node11</title>
<g id="a_edge10_Node000002_Node000011"><a xlink:title=" ">
<path fill="none" stroke="#63b8ff" d="M1275.01,-113.22C1317.3,-104.39 1397.69,-87.61 1450.49,-76.58"/>
<polygon fill="#63b8ff" stroke="#63b8ff" points="1451.09,-80.03 1460.17,-74.56 1449.66,-73.18 1451.09,-80.03"/>
</a>
</g>
</g>
<!-- Node15&#45;&gt;Node10 -->
<g id="edge18_Node000015_Node000010" class="edge">
<title>Node15&#45;&gt;Node10</title>
<g id="a_edge18_Node000015_Node000010"><a xlink:title=" ">
<path fill="none" stroke="#63b8ff" d="M990.45,-172.23C937.84,-167.98 837.34,-156.49 815.75,-129.75 781.41,-87.21 787.32,-121.71 984.38,-74.67"/>
<polygon fill="#63b8ff" stroke="#63b8ff" points="985.08,-78.1 993.98,-72.35 983.44,-71.3 985.08,-78.1"/>
</a>
</g>
</g>
<!-- Node16 -->
<g id="Node000016" class="node">
<title>Node16</title>
<g id="a_Node000016"><a xlink:title=" ">
<polygon fill="#e0e0e0" stroke="#999999" points="882.38,-129.75 825.12,-129.75 825.12,-110.5 882.38,-110.5 882.38,-129.75"/>
<text text-anchor="middle" x="853.75" y="-116.25" font-family="Helvetica,sans-Serif" font-size="10.00">TROOT.h</text>
</a>
</g>
</g>
<!-- Node15&#45;&gt;Node16 -->
<g id="edge15_Node000015_Node000016" class="edge">
<title>Node15&#45;&gt;Node16</title>
<g id="a_edge15_Node000015_Node000016"><a xlink:title=" ">
<path fill="none" stroke="#63b8ff" d="M994.08,-165.34C966.4,-156.62 924.26,-143.34 893.38,-133.61"/>
<polygon fill="#63b8ff" stroke="#63b8ff" points="894.59,-130.32 884,-130.66 892.49,-137 894.59,-130.32"/>
</a>
</g>
</g>
<!-- Node17 -->
<g id="Node000017" class="node">
<title>Node17</title>
<g id="a_Node000017"><a xlink:title=" ">
<polygon fill="#e0e0e0" stroke="#999999" points="963,-129.75 900.5,-129.75 900.5,-110.5 963,-110.5 963,-129.75"/>
<text text-anchor="middle" x="931.75" y="-116.25" font-family="Helvetica,sans-Serif" font-size="10.00">TCanvas.h</text>
</a>
</g>
</g>
<!-- Node15&#45;&gt;Node17 -->
<g id="edge16_Node000015_Node000017" class="edge">
<title>Node15&#45;&gt;Node17</title>
<g id="a_edge16_Node000015_Node000017"><a xlink:title=" ">
<path fill="none" stroke="#63b8ff" d="M1007.31,-165.34C993.59,-157.31 973.25,-145.41 957.13,-135.98"/>
<polygon fill="#63b8ff" stroke="#63b8ff" points="958.97,-133 948.57,-130.97 955.43,-139.04 958.97,-133"/>
</a>
</g>
</g>
<!-- Node18 -->
<g id="Node000018" class="node">
<title>Node18</title>
<g id="a_Node000018"><a xlink:title=" ">
<polygon fill="#e0e0e0" stroke="#999999" points="1064.12,-129.75 981.38,-129.75 981.38,-110.5 1064.12,-110.5 1064.12,-129.75"/>
<text text-anchor="middle" x="1022.75" y="-116.25" font-family="Helvetica,sans-Serif" font-size="10.00">TRootCanvas.h</text>
</a>
</g>
</g>
<!-- Node15&#45;&gt;Node18 -->
<g id="edge17_Node000015_Node000018" class="edge">
<title>Node15&#45;&gt;Node18</title>
<g id="a_edge17_Node000015_Node000018"><a xlink:title=" ">
<path fill="none" stroke="#63b8ff" d="M1022.75,-165.58C1022.75,-159.07 1022.75,-149.92 1022.75,-141.62"/>
<polygon fill="#63b8ff" stroke="#63b8ff" points="1026.25,-141.62 1022.75,-131.62 1019.25,-141.62 1026.25,-141.62"/>
</a>
</g>
</g>
<!-- Node19 -->
<g id="Node000019" class="node">
<title>Node19</title>
<g id="a_Node000019"><a xlink:title=" ">
<polygon fill="#e0e0e0" stroke="#999999" points="1130.88,-129.75 1082.62,-129.75 1082.62,-110.5 1130.88,-110.5 1130.88,-129.75"/>
<text text-anchor="middle" x="1106.75" y="-116.25" font-family="Helvetica,sans-Serif" font-size="10.00">TLine.h</text>
</a>
</g>
</g>
<!-- Node15&#45;&gt;Node19 -->
<g id="edge19_Node000015_Node000019" class="edge">
<title>Node15&#45;&gt;Node19</title>
<g id="a_edge19_Node000015_Node000019"><a xlink:title=" ">
<path fill="none" stroke="#63b8ff" d="M1037,-165.34C1049.55,-157.39 1068.08,-145.64 1082.89,-136.25"/>
<polygon fill="#63b8ff" stroke="#63b8ff" points="1084.58,-139.32 1091.15,-131.01 1080.83,-133.41 1084.58,-139.32"/>
</a>
</g>
</g>
<!-- Node20 -->
<g id="Node000020" class="node">
<title>Node20</title>
<g id="a_Node000020"><a xlink:title=" ">
<polygon fill="#e0e0e0" stroke="#999999" points="1200.75,-129.75 1148.75,-129.75 1148.75,-110.5 1200.75,-110.5 1200.75,-129.75"/>
<text text-anchor="middle" x="1174.75" y="-116.25" font-family="Helvetica,sans-Serif" font-size="10.00">TCutG.h</text>
</a>
</g>
</g>
<!-- Node15&#45;&gt;Node20 -->
<g id="edge20_Node000015_Node000020" class="edge">
<title>Node15&#45;&gt;Node20</title>
<g id="a_edge20_Node000015_Node000020"><a xlink:title=" ">
<path fill="none" stroke="#63b8ff" d="M1048.53,-165.34C1073.1,-156.74 1110.34,-143.69 1138.01,-134"/>
<polygon fill="#63b8ff" stroke="#63b8ff" points="1139.13,-137.31 1147.41,-130.7 1136.82,-130.71 1139.13,-137.31"/>
</a>
</g>
</g>
<!-- Node21 -->
<g id="Node000021" class="node">
<title>Node21</title>
<g id="a_Node000021"><a xlink:href="_g_h2_i_8h.html" target="_top" xlink:title=" ">
<polygon fill="white" stroke="#666666" points="1753.12,-129.75 1706.38,-129.75 1706.38,-110.5 1753.12,-110.5 1753.12,-129.75"/>
<text text-anchor="middle" x="1729.75" y="-116.25" font-family="Helvetica,sans-Serif" font-size="10.00">GH2I.h</text>
</a>
</g>
</g>
<!-- Node15&#45;&gt;Node21 -->
<g id="edge21_Node000015_Node000021" class="edge">
<title>Node15&#45;&gt;Node21</title>
<g id="a_edge21_Node000015_Node000021"><a xlink:title=" ">
<path fill="none" stroke="#63b8ff" d="M1055.01,-170.57C1069.32,-168.96 1086.36,-167.14 1101.75,-165.75 1327.51,-145.41 1599.61,-128.74 1694.83,-123.14"/>
<polygon fill="#63b8ff" stroke="#63b8ff" points="1694.77,-126.65 1704.55,-122.57 1694.36,-119.66 1694.77,-126.65"/>
</a>
</g>
</g>
<!-- Node21&#45;&gt;Node4 -->
<g id="edge24_Node000021_Node000004" class="edge">
<title>Node21&#45;&gt;Node4</title>
<g id="a_edge24_Node000021_Node000004"><a xlink:title=" ">
<path fill="none" stroke="#63b8ff" d="M1705.99,-112.92C1681.3,-105.85 1642.12,-92.85 1611.75,-74.5 1590.4,-61.6 1569.46,-42.02 1555.72,-27.94"/>
<polygon fill="#63b8ff" stroke="#63b8ff" points="1558.27,-25.54 1548.84,-20.7 1553.19,-30.36 1558.27,-25.54"/>
</a>
</g>
</g>
<!-- Node22 -->
<g id="Node000022" class="node">
<title>Node22</title>
<g id="a_Node000022"><a xlink:title=" ">
<polygon fill="#e0e0e0" stroke="#999999" points="1630.88,-19.25 1588.62,-19.25 1588.62,0 1630.88,0 1630.88,-19.25"/>
<text text-anchor="middle" x="1609.75" y="-5.75" font-family="Helvetica,sans-Serif" font-size="10.00">cstdio</text>
</a>
</g>
</g>
<!-- Node21&#45;&gt;Node22 -->
<g id="edge22_Node000021_Node000022" class="edge">
<title>Node21&#45;&gt;Node22</title>
<g id="a_edge22_Node000021_Node000022"><a xlink:title=" ">
<path fill="none" stroke="#63b8ff" d="M1706.18,-115.07C1682.69,-109.79 1647.23,-98.27 1626.75,-74.5 1616.31,-62.38 1612.2,-44.53 1610.62,-30.78"/>
<polygon fill="#63b8ff" stroke="#63b8ff" points="1614.13,-30.8 1609.89,-21.09 1607.15,-31.33 1614.13,-30.8"/>
</a>
</g>
</g>
<!-- Node23 -->
<g id="Node000023" class="node">
<title>Node23</title>
<g id="a_Node000023"><a xlink:title=" ">
<polygon fill="#e0e0e0" stroke="#999999" points="1695.12,-19.25 1660.38,-19.25 1660.38,0 1695.12,0 1695.12,-19.25"/>
<text text-anchor="middle" x="1677.75" y="-5.75" font-family="Helvetica,sans-Serif" font-size="10.00">map</text>
</a>
</g>
</g>
<!-- Node21&#45;&gt;Node23 -->
<g id="edge23_Node000021_Node000023" class="edge">
<title>Node21&#45;&gt;Node23</title>
<g id="a_edge23_Node000021_Node000023"><a xlink:title=" ">
<path fill="none" stroke="#63b8ff" d="M1728.09,-110.08C1725.54,-97.36 1719.95,-73.68 1710.75,-55.25 1706.03,-45.79 1699.3,-36.25 1693.14,-28.43"/>
<polygon fill="#63b8ff" stroke="#63b8ff" points="1695.87,-26.24 1686.81,-20.74 1690.47,-30.69 1695.87,-26.24"/>
</a>
</g>
</g>
<!-- Node24 -->
<g id="Node000024" class="node">
<title>Node24</title>
<g id="a_Node000024"><a xlink:title=" ">
<polygon fill="#e0e0e0" stroke="#999999" points="1760.88,-19.25 1718.62,-19.25 1718.62,0 1760.88,0 1760.88,-19.25"/>
<text text-anchor="middle" x="1739.75" y="-5.75" font-family="Helvetica,sans-Serif" font-size="10.00">TH2.h</text>
</a>
</g>
</g>
<!-- Node21&#45;&gt;Node24 -->
<g id="edge25_Node000021_Node000024" class="edge">
<title>Node21&#45;&gt;Node24</title>
<g id="a_edge25_Node000021_Node000024"><a xlink:title=" ">
<path fill="none" stroke="#63b8ff" d="M1733.48,-110.09C1736.93,-101.21 1741.81,-87.18 1743.75,-74.5 1746,-59.84 1744.81,-43.1 1743.16,-30.43"/>
<polygon fill="#63b8ff" stroke="#63b8ff" points="1746.67,-30.21 1741.7,-20.85 1739.75,-31.27 1746.67,-30.21"/>
</a>
</g>
</g>
<!-- Node25 -->
<g id="Node000025" class="node">
<title>Node25</title>
<g id="a_Node000025"><a xlink:title=" ">
<polygon fill="#e0e0e0" stroke="#999999" points="1827.75,-19.25 1781.75,-19.25 1781.75,0 1827.75,0 1827.75,-19.25"/>
<text text-anchor="middle" x="1804.75" y="-5.75" font-family="Helvetica,sans-Serif" font-size="10.00">TList.h</text>
</a>
</g>
</g>
<!-- Node21&#45;&gt;Node25 -->
<g id="edge26_Node000021_Node000025" class="edge">
<title>Node21&#45;&gt;Node25</title>
<g id="a_edge26_Node000021_Node000025"><a xlink:title=" ">
<path fill="none" stroke="#63b8ff" d="M1735.89,-110.25C1748.14,-92.52 1775.84,-52.44 1792.13,-28.88"/>
<polygon fill="#63b8ff" stroke="#63b8ff" points="1794.86,-31.09 1797.67,-20.87 1789.1,-27.11 1794.86,-31.09"/>
</a>
</g>
</g>
<!-- Node26 -->
<g id="Node000026" class="node">
<title>Node26</title>
<g id="a_Node000026"><a xlink:title=" ">
<polygon fill="#e0e0e0" stroke="#999999" points="1908,-74.5 1833.5,-74.5 1833.5,-55.25 1908,-55.25 1908,-74.5"/>
<text text-anchor="middle" x="1870.75" y="-61" font-family="Helvetica,sans-Serif" font-size="10.00">TVirtualPad.h</text>
</a>
</g>
</g>
<!-- Node21&#45;&gt;Node26 -->
<g id="edge27_Node000021_Node000026" class="edge">
<title>Node21&#45;&gt;Node26</title>
<g id="a_edge27_Node000021_Node000026"><a xlink:title=" ">
<path fill="none" stroke="#63b8ff" d="M1753.35,-110.21C1775.99,-101.66 1810.43,-88.65 1836.16,-78.94"/>
<polygon fill="#63b8ff" stroke="#63b8ff" points="1837.07,-82.34 1845.18,-75.53 1834.59,-75.79 1837.07,-82.34"/>
</a>
</g>
</g>
<!-- Node27 -->
<g id="Node000027" class="node">
<title>Node27</title>
<g id="a_Node000027"><a xlink:title=" ">
<polygon fill="#e0e0e0" stroke="#999999" points="1983.38,-74.5 1926.12,-74.5 1926.12,-55.25 1983.38,-55.25 1983.38,-74.5"/>
<text text-anchor="middle" x="1954.75" y="-61" font-family="Helvetica,sans-Serif" font-size="10.00">TFrame.h</text>
</a>
</g>
</g>
<!-- Node21&#45;&gt;Node27 -->
<g id="edge28_Node000021_Node000027" class="edge">
<title>Node21&#45;&gt;Node27</title>
<g id="a_edge28_Node000021_Node000027"><a xlink:title=" ">
<path fill="none" stroke="#63b8ff" d="M1753.4,-113.53C1791.76,-104.45 1867.95,-86.42 1914.82,-75.32"/>
<polygon fill="#63b8ff" stroke="#63b8ff" points="1915.38,-78.79 1924.31,-73.08 1913.77,-71.98 1915.38,-78.79"/>
</a>
</g>
</g>
<!-- Node28 -->
<g id="Node000028" class="node">
<title>Node28</title>
<g id="a_Node000028"><a xlink:href="_g_h2_base_8h.html" target="_top" xlink:title=" ">
<polygon fill="white" stroke="#666666" points="1701.88,-74.5 1635.62,-74.5 1635.62,-55.25 1701.88,-55.25 1701.88,-74.5"/>
<text text-anchor="middle" x="1668.75" y="-61" font-family="Helvetica,sans-Serif" font-size="10.00">GH2Base.h</text>
</a>
</g>
</g>
<!-- Node21&#45;&gt;Node28 -->
<g id="edge29_Node000021_Node000028" class="edge">
<title>Node21&#45;&gt;Node28</title>
<g id="a_edge29_Node000021_Node000028"><a xlink:title=" ">
<path fill="none" stroke="#63b8ff" d="M1719.4,-110.09C1710.67,-102.47 1697.96,-91.37 1687.45,-82.2"/>
<polygon fill="#63b8ff" stroke="#63b8ff" points="1689.92,-79.71 1680.09,-75.77 1685.32,-84.98 1689.92,-79.71"/>
</a>
</g>
</g>
<!-- Node28&#45;&gt;Node4 -->
<g id="edge33_Node000028_Node000004" class="edge">
<title>Node28&#45;&gt;Node4</title>
<g id="a_edge33_Node000028_Node000004"><a xlink:title=" ">
<path fill="none" stroke="#63b8ff" d="M1646.87,-54.84C1626.39,-46.39 1595.54,-33.65 1572.19,-24.02"/>
<polygon fill="#63b8ff" stroke="#63b8ff" points="1573.72,-20.86 1563.14,-20.28 1571.05,-27.33 1573.72,-20.86"/>
</a>
</g>
</g>
<!-- Node28&#45;&gt;Node22 -->
<g id="edge30_Node000028_Node000022" class="edge">
<title>Node28&#45;&gt;Node22</title>
<g id="a_edge30_Node000028_Node000022"><a xlink:title=" ">
<path fill="none" stroke="#63b8ff" d="M1658.74,-54.84C1650.38,-47.3 1638.25,-36.35 1628.15,-27.23"/>
<polygon fill="#63b8ff" stroke="#63b8ff" points="1630.5,-24.64 1620.73,-20.54 1625.81,-29.84 1630.5,-24.64"/>
</a>
</g>
</g>
<!-- Node28&#45;&gt;Node23 -->
<g id="edge32_Node000028_Node000023" class="edge">
<title>Node28&#45;&gt;Node23</title>
<g id="a_edge32_Node000028_Node000023"><a xlink:title=" ">
<path fill="none" stroke="#63b8ff" d="M1670.24,-55.08C1671.35,-48.49 1672.92,-39.21 1674.34,-30.82"/>
<polygon fill="#63b8ff" stroke="#63b8ff" points="1677.76,-31.55 1675.98,-21.1 1670.86,-30.38 1677.76,-31.55"/>
</a>
</g>
</g>
<!-- Node28&#45;&gt;Node24 -->
<g id="edge34_Node000028_Node000024" class="edge">
<title>Node28&#45;&gt;Node24</title>
<g id="a_edge34_Node000028_Node000024"><a xlink:title=" ">
<path fill="none" stroke="#63b8ff" d="M1680.79,-54.84C1691.16,-47.07 1706.35,-35.67 1718.72,-26.4"/>
<polygon fill="#63b8ff" stroke="#63b8ff" points="1720.77,-29.23 1726.67,-20.43 1716.57,-23.63 1720.77,-29.23"/>
</a>
</g>
</g>
<!-- Node28&#45;&gt;Node25 -->
<g id="edge35_Node000028_Node000025" class="edge">
<title>Node28&#45;&gt;Node25</title>
<g id="a_edge35_Node000028_Node000025"><a xlink:title=" ">
<path fill="none" stroke="#63b8ff" d="M1691.82,-54.84C1713.51,-46.35 1746.23,-33.54 1770.88,-23.89"/>
<polygon fill="#63b8ff" stroke="#63b8ff" points="1772.12,-27.16 1780.16,-20.25 1769.57,-20.64 1772.12,-27.16"/>
</a>
</g>
</g>
<!-- Node29 -->
<g id="Node000029" class="node">
<title>Node29</title>
<g id="a_Node000029"><a xlink:title=" ">
<polygon fill="#e0e0e0" stroke="#999999" points="53.5,-19.25 0,-19.25 0,0 53.5,0 53.5,-19.25"/>
<text text-anchor="middle" x="26.75" y="-5.75" font-family="Helvetica,sans-Serif" font-size="10.00">iostream</text>
</a>
</g>
</g>
<!-- Node28&#45;&gt;Node29 -->
<g id="edge31_Node000028_Node000029" class="edge">
<title>Node28&#45;&gt;Node29</title>
<g id="a_edge31_Node000028_Node000029"><a xlink:title=" ">
<path fill="none" stroke="#63b8ff" d="M1635.21,-60.99C1611.61,-59.06 1579.27,-56.64 1550.75,-55.25 1223.79,-39.36 408,-62.59 65.02,-19.36"/>
<polygon fill="#63b8ff" stroke="#63b8ff" points="65.64,-15.92 55.27,-18.1 64.74,-22.86 65.64,-15.92"/>
</a>
</g>
</g>
<!-- Node30&#45;&gt;Node9 -->
<g id="edge63_Node000030_Node000009" class="edge">
<title>Node30&#45;&gt;Node9</title>
<g id="a_edge63_Node000030_Node000009"><a xlink:title=" ">
<path fill="none" stroke="#63b8ff" d="M769.2,-112C805.45,-104.13 865.24,-90.75 925.1,-75.09"/>
<polygon fill="#63b8ff" stroke="#63b8ff" points="925.64,-78.57 934.42,-72.63 923.86,-71.8 925.64,-78.57"/>
</a>
</g>
</g>
<!-- Node30&#45;&gt;Node10 -->
<g id="edge62_Node000030_Node000010" class="edge">
<title>Node30&#45;&gt;Node10</title>
<g id="a_edge62_Node000030_Node000010"><a xlink:title=" ">
<path fill="none" stroke="#63b8ff" d="M769.12,-112.98C773.7,-112.14 778.34,-111.3 782.75,-110.5 869.49,-94.85 894.51,-94.78 984.17,-74.66"/>
<polygon fill="#63b8ff" stroke="#63b8ff" points="984.68,-78.13 993.66,-72.51 983.13,-71.31 984.68,-78.13"/>
</a>
</g>
</g>
<!-- Node30&#45;&gt;Node29 -->
<g id="edge58_Node000030_Node000029" class="edge">
<title>Node30&#45;&gt;Node29</title>
<g id="a_edge58_Node000030_Node000029"><a xlink:title=" ">
<path fill="none" stroke="#63b8ff" d="M702.25,-115.3C605.04,-103.95 314.46,-68.35 64.93,-19.74"/>
<polygon fill="#63b8ff" stroke="#63b8ff" points="65.8,-16.35 55.31,-17.86 64.45,-23.22 65.8,-16.35"/>
</a>
</g>
</g>
<!-- Node31 -->
<g id="Node000031" class="node">
<title>Node31</title>
<g id="a_Node000031"><a xlink:href="_globals_8h.html" target="_top" xlink:title=" ">
<polygon fill="white" stroke="#666666" points="572,-74.5 515.5,-74.5 515.5,-55.25 572,-55.25 572,-74.5"/>
<text text-anchor="middle" x="543.75" y="-61" font-family="Helvetica,sans-Serif" font-size="10.00">Globals.h</text>
</a>
</g>
</g>
<!-- Node30&#45;&gt;Node31 -->
<g id="edge37_Node000030_Node000031" class="edge">
<title>Node30&#45;&gt;Node31</title>
<g id="a_edge37_Node000030_Node000031"><a xlink:title=" ">
<path fill="none" stroke="#63b8ff" d="M703.18,-110.09C670.07,-100.91 618.73,-86.67 583.3,-76.84"/>
<polygon fill="#63b8ff" stroke="#63b8ff" points="584.43,-73.52 573.86,-74.23 582.56,-80.27 584.43,-73.52"/>
</a>
</g>
</g>
<!-- Node47 -->
<g id="Node000047" class="node">
<title>Node47</title>
<g id="a_Node000047"><a xlink:title=" ">
<polygon fill="#e0e0e0" stroke="#999999" points="633.25,-74.5 590.25,-74.5 590.25,-55.25 633.25,-55.25 633.25,-74.5"/>
<text text-anchor="middle" x="611.75" y="-61" font-family="Helvetica,sans-Serif" font-size="10.00">vector</text>
</a>
</g>
</g>
<!-- Node30&#45;&gt;Node47 -->
<g id="edge56_Node000030_Node000047" class="edge">
<title>Node30&#45;&gt;Node47</title>
<g id="a_edge56_Node000030_Node000047"><a xlink:title=" ">
<path fill="none" stroke="#63b8ff" d="M714.72,-110.09C695.12,-101.68 665.64,-89.02 643.24,-79.4"/>
<polygon fill="#63b8ff" stroke="#63b8ff" points="644.85,-76.28 634.28,-75.55 642.09,-82.71 644.85,-76.28"/>
</a>
</g>
</g>
<!-- Node48 -->
<g id="Node000048" class="node">
<title>Node48</title>
<g id="a_Node000048"><a xlink:title=" ">
<polygon fill="#e0e0e0" stroke="#999999" points="703.75,-74.5 651.75,-74.5 651.75,-55.25 703.75,-55.25 703.75,-74.5"/>
<text text-anchor="middle" x="677.75" y="-61" font-family="Helvetica,sans-Serif" font-size="10.00">complex</text>
</a>
</g>
</g>
<!-- Node30&#45;&gt;Node48 -->
<g id="edge57_Node000030_Node000048" class="edge">
<title>Node30&#45;&gt;Node48</title>
<g id="a_edge57_Node000030_Node000048"><a xlink:title=" ">
<path fill="none" stroke="#63b8ff" d="M725.91,-110.09C717.7,-102.55 705.77,-91.6 695.84,-82.48"/>
<polygon fill="#63b8ff" stroke="#63b8ff" points="698.29,-79.98 688.56,-75.8 693.56,-85.14 698.29,-79.98"/>
</a>
</g>
</g>
<!-- Node49 -->
<g id="Node000049" class="node">
<title>Node49</title>
<g id="a_Node000049"><a xlink:title=" ">
<polygon fill="#e0e0e0" stroke="#999999" points="771.25,-74.5 722.25,-74.5 722.25,-55.25 771.25,-55.25 771.25,-74.5"/>
<text text-anchor="middle" x="746.75" y="-61" font-family="Helvetica,sans-Serif" font-size="10.00">fstream</text>
</a>
</g>
</g>
<!-- Node30&#45;&gt;Node49 -->
<g id="edge59_Node000030_Node000049" class="edge">
<title>Node30&#45;&gt;Node49</title>
<g id="a_edge59_Node000030_Node000049"><a xlink:title=" ">
<path fill="none" stroke="#63b8ff" d="M737.57,-110.33C738.93,-103.74 740.85,-94.46 742.58,-86.07"/>
<polygon fill="#63b8ff" stroke="#63b8ff" points="745.99,-86.84 744.59,-76.34 739.14,-85.43 745.99,-86.84"/>
</a>
</g>
</g>
<!-- Node50 -->
<g id="Node000050" class="node">
<title>Node50</title>
<g id="a_Node000050"><a xlink:title=" ">
<polygon fill="#e0e0e0" stroke="#999999" points="842.5,-74.5 789,-74.5 789,-55.25 842.5,-55.25 842.5,-74.5"/>
<text text-anchor="middle" x="815.75" y="-61" font-family="Helvetica,sans-Serif" font-size="10.00">Rtypes.h</text>
</a>
</g>
</g>
<!-- Node30&#45;&gt;Node50 -->
<g id="edge60_Node000030_Node000050" class="edge">
<title>Node30&#45;&gt;Node50</title>
<g id="a_edge60_Node000030_Node000050"><a xlink:title=" ">
<path fill="none" stroke="#63b8ff" d="M749.32,-110.09C761.16,-102.21 778.59,-90.61 792.62,-81.27"/>
<polygon fill="#63b8ff" stroke="#63b8ff" points="794.47,-84.25 800.85,-75.79 790.59,-78.42 794.47,-84.25"/>
</a>
</g>
</g>
<!-- Node51 -->
<g id="Node000051" class="node">
<title>Node51</title>
<g id="a_Node000051"><a xlink:title=" ">
<polygon fill="#e0e0e0" stroke="#999999" points="918.75,-74.5 860.75,-74.5 860.75,-55.25 918.75,-55.25 918.75,-74.5"/>
<text text-anchor="middle" x="889.75" y="-61" font-family="Helvetica,sans-Serif" font-size="10.00">TObject.h</text>
</a>
</g>
</g>
<!-- Node30&#45;&gt;Node51 -->
<g id="edge61_Node000030_Node000051" class="edge">
<title>Node30&#45;&gt;Node51</title>
<g id="a_edge61_Node000030_Node000051"><a xlink:title=" ">
<path fill="none" stroke="#63b8ff" d="M761.87,-110.09C786.87,-101.45 824.83,-88.32 852.9,-78.62"/>
<polygon fill="#63b8ff" stroke="#63b8ff" points="853.76,-82.02 862.07,-75.45 851.47,-75.41 853.76,-82.02"/>
</a>
</g>
</g>
<!-- Node31&#45;&gt;Node3 -->
<g id="edge42_Node000031_Node000003" class="edge">
<title>Node31&#45;&gt;Node3</title>
<g id="a_edge42_Node000031_Node000003"><a xlink:title=" ">
<path fill="none" stroke="#63b8ff" d="M572.35,-56.74C575.17,-56.17 578.01,-55.66 580.75,-55.25 799.54,-22.16 862.3,-58.32 1082.98,-19.35"/>
<polygon fill="#63b8ff" stroke="#63b8ff" points="1083.58,-22.8 1092.8,-17.58 1082.34,-15.91 1083.58,-22.8"/>
</a>
</g>
</g>
<!-- Node31&#45;&gt;Node22 -->
<g id="edge43_Node000031_Node000022" class="edge">
<title>Node31&#45;&gt;Node22</title>
<g id="a_edge43_Node000031_Node000022"><a xlink:title=" ">
<path fill="none" stroke="#63b8ff" d="M572.33,-56.64C575.16,-56.09 578,-55.62 580.75,-55.25 1017.49,2.97 1138.98,-87.62 1577.19,-19.23"/>
<polygon fill="#63b8ff" stroke="#63b8ff" points="1577.44,-22.74 1586.77,-17.72 1576.34,-15.82 1577.44,-22.74"/>
</a>
</g>
</g>
<!-- Node31&#45;&gt;Node29 -->
<g id="edge39_Node000031_Node000029" class="edge">
<title>Node31&#45;&gt;Node29</title>
<g id="a_edge39_Node000031_Node000029"><a xlink:title=" ">
<path fill="none" stroke="#63b8ff" d="M515.04,-62.71C441.61,-59.43 240.92,-48.46 65.08,-19.6"/>
<polygon fill="#63b8ff" stroke="#63b8ff" points="65.73,-16.16 55.29,-17.96 64.58,-23.06 65.73,-16.16"/>
</a>
</g>
</g>
<!-- Node32 -->
<g id="Node000032" class="node">
<title>Node32</title>
<g id="a_Node000032"><a xlink:title=" ">
<polygon fill="#e0e0e0" stroke="#999999" points="116.38,-19.25 71.12,-19.25 71.12,0 116.38,0 116.38,-19.25"/>
<text text-anchor="middle" x="93.75" y="-5.75" font-family="Helvetica,sans-Serif" font-size="10.00">cstdint</text>
</a>
</g>
</g>
<!-- Node31&#45;&gt;Node32 -->
<g id="edge38_Node000031_Node000032" class="edge">
<title>Node31&#45;&gt;Node32</title>
<g id="a_edge38_Node000031_Node000032"><a xlink:title=" ">
<path fill="none" stroke="#63b8ff" d="M515.14,-62.37C448.8,-58.56 279.22,-46.93 128.04,-19.38"/>
<polygon fill="#63b8ff" stroke="#63b8ff" points="128.68,-15.94 118.21,-17.56 127.4,-22.82 128.68,-15.94"/>
</a>
</g>
</g>
<!-- Node33 -->
<g id="Node000033" class="node">
<title>Node33</title>
<g id="a_Node000033"><a xlink:title=" ">
<polygon fill="#e0e0e0" stroke="#999999" points="184.62,-19.25 134.88,-19.25 134.88,0 184.62,0 184.62,-19.25"/>
<text text-anchor="middle" x="159.75" y="-5.75" font-family="Helvetica,sans-Serif" font-size="10.00">iomanip</text>
</a>
</g>
</g>
<!-- Node31&#45;&gt;Node33 -->
<g id="edge40_Node000031_Node000033" class="edge">
<title>Node31&#45;&gt;Node33</title>
<g id="a_edge40_Node000031_Node000033"><a xlink:title=" ">
<path fill="none" stroke="#63b8ff" d="M515.44,-61.44C457.41,-56.21 320.63,-42.59 196.16,-19.49"/>
<polygon fill="#63b8ff" stroke="#63b8ff" points="196.89,-16.07 186.41,-17.65 195.59,-22.95 196.89,-16.07"/>
</a>
</g>
</g>
<!-- Node34 -->
<g id="Node000034" class="node">
<title>Node34</title>
<g id="a_Node000034"><a xlink:title=" ">
<polygon fill="#e0e0e0" stroke="#999999" points="260.75,-19.25 202.75,-19.25 202.75,0 260.75,0 260.75,-19.25"/>
<text text-anchor="middle" x="231.75" y="-5.75" font-family="Helvetica,sans-Serif" font-size="10.00">stdexcept</text>
</a>
</g>
</g>
<!-- Node31&#45;&gt;Node34 -->
<g id="edge41_Node000031_Node000034" class="edge">
<title>Node31&#45;&gt;Node34</title>
<g id="a_edge41_Node000031_Node000034"><a xlink:title=" ">
<path fill="none" stroke="#63b8ff" d="M515.25,-59.83C467.23,-52.88 366.95,-37.82 272.37,-19.66"/>
<polygon fill="#63b8ff" stroke="#63b8ff" points="273.14,-16.25 262.66,-17.78 271.81,-23.12 273.14,-16.25"/>
</a>
</g>
</g>
<!-- Node35 -->
<g id="Node000035" class="node">
<title>Node35</title>
<g id="a_Node000035"><a xlink:title=" ">
<polygon fill="#e0e0e0" stroke="#999999" points="323,-19.25 278.5,-19.25 278.5,0 323,0 323,-19.25"/>
<text text-anchor="middle" x="300.75" y="-5.75" font-family="Helvetica,sans-Serif" font-size="10.00">cstdlib</text>
</a>
</g>
</g>
<!-- Node31&#45;&gt;Node35 -->
<g id="edge44_Node000031_Node000035" class="edge">
<title>Node31&#45;&gt;Node35</title>
<g id="a_edge44_Node000031_Node000035"><a xlink:title=" ">
<path fill="none" stroke="#63b8ff" d="M515.16,-58.46C476.3,-50.97 404.44,-36.66 334.19,-19.73"/>
<polygon fill="#63b8ff" stroke="#63b8ff" points="335.41,-16.42 324.86,-17.46 333.75,-23.23 335.41,-16.42"/>
</a>
</g>
</g>
<!-- Node36 -->
<g id="Node000036" class="node">
<title>Node36</title>
<g id="a_Node000036"><a xlink:title=" ">
<polygon fill="#e0e0e0" stroke="#999999" points="400.5,-19.25 341,-19.25 341,0 400.5,0 400.5,-19.25"/>
<text text-anchor="middle" x="370.75" y="-5.75" font-family="Helvetica,sans-Serif" font-size="10.00">execinfo.h</text>
</a>
</g>
</g>
<!-- Node31&#45;&gt;Node36 -->
<g id="edge45_Node000031_Node000036" class="edge">
<title>Node31&#45;&gt;Node36</title>
<g id="a_edge45_Node000031_Node000036"><a xlink:title=" ">
<path fill="none" stroke="#63b8ff" d="M515.18,-55.08C486.77,-46.34 442.91,-32.84 410.98,-23.01"/>
<polygon fill="#63b8ff" stroke="#63b8ff" points="412.26,-19.74 401.68,-20.14 410.2,-26.43 412.26,-19.74"/>
</a>
</g>
</g>
<!-- Node37 -->
<g id="Node000037" class="node">
<title>Node37</title>
<g id="a_Node000037"><a xlink:title=" ">
<polygon fill="#e0e0e0" stroke="#999999" points="469,-19.25 418.5,-19.25 418.5,0 469,0 469,-19.25"/>
<text text-anchor="middle" x="443.75" y="-5.75" font-family="Helvetica,sans-Serif" font-size="10.00">cxxabi.h</text>
</a>
</g>
</g>
<!-- Node31&#45;&gt;Node37 -->
<g id="edge46_Node000031_Node000037" class="edge">
<title>Node31&#45;&gt;Node37</title>
<g id="a_edge46_Node000031_Node000037"><a xlink:title=" ">
<path fill="none" stroke="#63b8ff" d="M526.79,-54.84C511.49,-46.69 488.72,-34.57 470.89,-25.08"/>
<polygon fill="#63b8ff" stroke="#63b8ff" points="472.6,-22.02 462.13,-20.41 469.31,-28.2 472.6,-22.02"/>
</a>
</g>
</g>
<!-- Node38 -->
<g id="Node000038" class="node">
<title>Node38</title>
<g id="a_Node000038"><a xlink:title=" ">
<polygon fill="#e0e0e0" stroke="#999999" points="538.38,-19.25 487.12,-19.25 487.12,0 538.38,0 538.38,-19.25"/>
<text text-anchor="middle" x="512.75" y="-5.75" font-family="Helvetica,sans-Serif" font-size="10.00">sstream</text>
</a>
</g>
</g>
<!-- Node31&#45;&gt;Node38 -->
<g id="edge47_Node000031_Node000038" class="edge">
<title>Node31&#45;&gt;Node38</title>
<g id="a_edge47_Node000031_Node000038"><a xlink:title=" ">
<path fill="none" stroke="#63b8ff" d="M538.63,-55.08C534.57,-48.11 528.76,-38.12 523.66,-29.37"/>
<polygon fill="#63b8ff" stroke="#63b8ff" points="526.8,-27.8 518.74,-20.92 520.75,-31.32 526.8,-27.8"/>
</a>
</g>
</g>
<!-- Node39 -->
<g id="Node000039" class="node">
<title>Node39</title>
<g id="a_Node000039"><a xlink:title=" ">
<polygon fill="#e0e0e0" stroke="#999999" points="593.25,-19.25 556.25,-19.25 556.25,0 593.25,0 593.25,-19.25"/>
<text text-anchor="middle" x="574.75" y="-5.75" font-family="Helvetica,sans-Serif" font-size="10.00">array</text>
</a>
</g>
</g>
<!-- Node31&#45;&gt;Node39 -->
<g id="edge48_Node000031_Node000039" class="edge">
<title>Node31&#45;&gt;Node39</title>
<g id="a_edge48_Node000031_Node000039"><a xlink:title=" ">
<path fill="none" stroke="#63b8ff" d="M548.87,-55.08C552.93,-48.11 558.74,-38.12 563.84,-29.37"/>
<polygon fill="#63b8ff" stroke="#63b8ff" points="566.75,-31.32 568.76,-20.92 560.7,-27.8 566.75,-31.32"/>
</a>
</g>
</g>
<!-- Node40 -->
<g id="Node000040" class="node">
<title>Node40</title>
<g id="a_Node000040"><a xlink:title=" ">
<polygon fill="#e0e0e0" stroke="#999999" points="662,-19.25 611.5,-19.25 611.5,0 662,0 662,-19.25"/>
<text text-anchor="middle" x="636.75" y="-5.75" font-family="Helvetica,sans-Serif" font-size="10.00">memory</text>
</a>
</g>
</g>
<!-- Node31&#45;&gt;Node40 -->
<g id="edge49_Node000031_Node000040" class="edge">
<title>Node31&#45;&gt;Node40</title>
<g id="a_edge49_Node000031_Node000040"><a xlink:title=" ">
<path fill="none" stroke="#63b8ff" d="M559.53,-54.84C573.69,-46.73 594.73,-34.68 611.28,-25.21"/>
<polygon fill="#63b8ff" stroke="#63b8ff" points="612.64,-28.46 619.58,-20.45 609.17,-22.39 612.64,-28.46"/>
</a>
</g>
</g>
<!-- Node41 -->
<g id="Node000041" class="node">
<title>Node41</title>
<g id="a_Node000041"><a xlink:title=" ">
<polygon fill="#e0e0e0" stroke="#999999" points="729.62,-19.25 679.88,-19.25 679.88,0 729.62,0 729.62,-19.25"/>
<text text-anchor="middle" x="704.75" y="-5.75" font-family="Helvetica,sans-Serif" font-size="10.00">unistd.h</text>
</a>
</g>
</g>
<!-- Node31&#45;&gt;Node41 -->
<g id="edge50_Node000031_Node000041" class="edge">
<title>Node31&#45;&gt;Node41</title>
<g id="a_edge50_Node000031_Node000041"><a xlink:title=" ">
<path fill="none" stroke="#63b8ff" d="M571.06,-54.84C597.95,-45.95 639.17,-32.32 668.73,-22.54"/>
<polygon fill="#63b8ff" stroke="#63b8ff" points="669.6,-25.94 677.99,-19.47 667.4,-19.29 669.6,-25.94"/>
</a>
</g>
</g>
<!-- Node42 -->
<g id="Node000042" class="node">
<title>Node42</title>
<g id="a_Node000042"><a xlink:title=" ">
<polygon fill="#e0e0e0" stroke="#999999" points="793.75,-19.25 747.75,-19.25 747.75,0 793.75,0 793.75,-19.25"/>
<text text-anchor="middle" x="770.75" y="-5.75" font-family="Helvetica,sans-Serif" font-size="10.00">TEnv.h</text>
</a>
</g>
</g>
<!-- Node31&#45;&gt;Node42 -->
<g id="edge51_Node000031_Node000042" class="edge">
<title>Node31&#45;&gt;Node42</title>
<g id="a_edge51_Node000031_Node000042"><a xlink:title=" ">
<path fill="none" stroke="#63b8ff" d="M572.43,-57.17C575.24,-56.52 578.05,-55.87 580.75,-55.25 647.51,-39.86 666.98,-36.9 736.28,-19.79"/>
<polygon fill="#63b8ff" stroke="#63b8ff" points="737.03,-23.21 745.89,-17.41 735.34,-16.42 737.03,-23.21"/>
</a>
</g>
</g>
<!-- Node43 -->
<g id="Node000043" class="node">
<title>Node43</title>
<g id="a_Node000043"><a xlink:title=" ">
<polygon fill="#e0e0e0" stroke="#999999" points="856,-19.25 811.5,-19.25 811.5,0 856,0 856,-19.25"/>
<text text-anchor="middle" x="833.75" y="-5.75" font-family="Helvetica,sans-Serif" font-size="10.00">stdio.h</text>
</a>
</g>
</g>
<!-- Node31&#45;&gt;Node43 -->
<g id="edge52_Node000031_Node000043" class="edge">
<title>Node31&#45;&gt;Node43</title>
<g id="a_edge52_Node000031_Node000043"><a xlink:title=" ">
<path fill="none" stroke="#63b8ff" d="M572.39,-56.99C575.21,-56.38 578.03,-55.79 580.75,-55.25 675.27,-36.59 703.12,-40.36 799.95,-19.66"/>
<polygon fill="#63b8ff" stroke="#63b8ff" points="800.63,-23.1 809.66,-17.55 799.14,-16.26 800.63,-23.1"/>
</a>
</g>
</g>
<!-- Node44 -->
<g id="Node000044" class="node">
<title>Node44</title>
<g id="a_Node000044"><a xlink:title=" ">
<polygon fill="#e0e0e0" stroke="#999999" points="921.12,-19.25 874.38,-19.25 874.38,0 921.12,0 921.12,-19.25"/>
<text text-anchor="middle" x="897.75" y="-5.75" font-family="Helvetica,sans-Serif" font-size="10.00">stdlib.h</text>
</a>
</g>
</g>
<!-- Node31&#45;&gt;Node44 -->
<g id="edge53_Node000031_Node000044" class="edge">
<title>Node31&#45;&gt;Node44</title>
<g id="a_edge53_Node000031_Node000044"><a xlink:title=" ">
<path fill="none" stroke="#63b8ff" d="M572.37,-56.9C575.2,-56.3 578.02,-55.74 580.75,-55.25 702.44,-33.41 737.84,-42.81 862.88,-19.35"/>
<polygon fill="#63b8ff" stroke="#63b8ff" points="863.39,-22.82 872.55,-17.5 862.07,-15.94 863.39,-22.82"/>
</a>
</g>
</g>
<!-- Node45 -->
<g id="Node000045" class="node">
<title>Node45</title>
<g id="a_Node000045"><a xlink:title=" ">
<polygon fill="#e0e0e0" stroke="#999999" points="998.5,-19.25 939,-19.25 939,0 998.5,0 998.5,-19.25"/>
<text text-anchor="middle" x="968.75" y="-5.75" font-family="Helvetica,sans-Serif" font-size="10.00">sys/wait.h</text>
</a>
</g>
</g>
<!-- Node31&#45;&gt;Node45 -->
<g id="edge54_Node000031_Node000045" class="edge">
<title>Node31&#45;&gt;Node45</title>
<g id="a_edge54_Node000031_Node000045"><a xlink:title=" ">
<path fill="none" stroke="#63b8ff" d="M572.36,-56.83C575.19,-56.25 578.02,-55.71 580.75,-55.25 730.94,-30.1 773.82,-43.46 927.33,-19.45"/>
<polygon fill="#63b8ff" stroke="#63b8ff" points="927.76,-22.93 937.09,-17.89 926.66,-16.01 927.76,-22.93"/>
</a>
</g>
</g>
<!-- Node46 -->
<g id="Node000046" class="node">
<title>Node46</title>
<g id="a_Node000046"><a xlink:title=" ">
<polygon fill="#e0e0e0" stroke="#999999" points="1076.88,-19.25 1016.62,-19.25 1016.62,0 1076.88,0 1076.88,-19.25"/>
<text text-anchor="middle" x="1046.75" y="-5.75" font-family="Helvetica,sans-Serif" font-size="10.00">sys/prctl.h</text>
</a>
</g>
</g>
<!-- Node31&#45;&gt;Node46 -->
<g id="edge55_Node000031_Node000046" class="edge">
<title>Node31&#45;&gt;Node46</title>
<g id="a_edge55_Node000031_Node000046"><a xlink:title=" ">
<path fill="none" stroke="#63b8ff" d="M572.35,-56.78C575.18,-56.2 578.01,-55.68 580.75,-55.25 765.2,-26.13 817.43,-47.02 1004.81,-19.5"/>
<polygon fill="#63b8ff" stroke="#63b8ff" points="1005.3,-22.96 1014.67,-18.02 1004.26,-16.04 1005.3,-22.96"/>
</a>
</g>
</g>
</g>
</svg>

<g id="navigator" transform="translate(0 0)" fill="#404254">
  <rect fill="#f2f5e9" fill-opacity="0.5" stroke="#606060" stroke-width=".5" x="0" y="0" width="60" height="60"/>
  <use id="zoomplus" xlink:href="#zoomPlus" x="17" y="9" onmousedown="handleZoom(evt,'in')"/>
  <use id="zoomminus" xlink:href="#zoomMin" x="42" y="9" onmousedown="handleZoom(evt,'out')"/>
  <use id="reset" xlink:href="#resetDef" x="30" y="36" onmousedown="handleReset()"/>
   <use id="arrowup" xlink:href="#arrowUp" x="0" y="0" onmousedown="handlePan(0,-1)"/>
  <use id="arrowright" xlink:href="#arrowRight" x="0" y="0" onmousedown="handlePan(1,0)"/>
  <use id="arrowdown" xlink:href="#arrowDown" x="0" y="0" onmousedown="handlePan(0,1)"/>
  <use id="arrowleft" xlink:href="#arrowLeft" x="0" y="0" onmousedown="handlePan(-1,0)"/>
</g>
<svg viewBox="0 0 15 15" width="100%" height="30px" preserveAspectRatio="xMaxYMin meet">
 <g id="arrow_out" transform="scale(0.3 0.3)">
  <a xlink:href="_t_decay_8cxx__incl_org.svg" target="_base">
   <rect id="button" ry="5" rx="5" y="6" x="6" height="38" width="38"
        fill="#f2f5e9" fill-opacity="0.5" stroke="#606060" stroke-width="1.0"/>
   <path id="arrow"
     d="M 11.500037,31.436501 C 11.940474,20.09759 22.043105,11.32322 32.158766,21.979434 L 37.068811,17.246167 C 37.068811,17.246167 37.088388,32 37.088388,32 L 22.160133,31.978069 C 22.160133,31.978069 26.997745,27.140456 26.997745,27.140456 C 18.528582,18.264221 13.291696,25.230495 11.500037,31.436501 z"
     style="fill:#404040;"/>
  </a>
 </g>
</svg>

<style type='text/css'>
<![CDATA[
[data-mouse-over-selected='false'] { opacity: 0.7; }
[data-mouse-over-selected='true']  { opacity: 1.0; }
]]>
</style>
<script type="application/ecmascript"><![CDATA[
document.addEventListener('DOMContentLoaded', (event) => {
  highlightEdges();
  highlightAdjacentNodes();
});
]]></script>
</svg>
