<?xml version="1.0" encoding="UTF-8" standalone="no"?>
<!DOCTYPE svg PUBLIC "-//W3C//DTD SVG 1.1//EN"
 "http://www.w3.org/Graphics/SVG/1.1/DTD/svg11.dtd">
<!-- Generated by graphviz version 9.0.0 (20230911.1827)
 -->
<!-- Title: TDetector.h Pages: 1 -->
<!--zoomable 304 -->

<svg id="main" version="1.1" xmlns="http://www.w3.org/2000/svg" xmlns:xlink="http://www.w3.org/1999/xlink" xml:space="preserve" onload="init(evt)">
<style type="text/css"><![CDATA[
.node, .edge {opacity: 0.7;}
.node.selected, .edge.selected {opacity: 1;}
.edge:hover path { stroke: red; }
.edge:hover polygon { stroke: red; fill: red; }
]]></style>

<defs>
  <circle id="rim" cx="0" cy="0" r="7"/>
  <circle id="rim2" cx="0" cy="0" r="3.5"/>
  <g id="zoomPlus">
    <use xlink:href="#rim" fill="#404040"><set attributeName="fill" to="#808080" begin="zoomplus.mouseover" end="zoomplus.mouseout"/></use>
    <path d="M-4,0h8M0,-4v8" fill="none" stroke="white" stroke-width="1.5" pointer-events="none"/>
  </g>
  <g id="zoomMin">
    <use xlink:href="#rim" fill="#404040"><set attributeName="fill" to="#808080" begin="zoomminus.mouseover" end="zoomminus.mouseout"/></use>
    <path d="M-4,0h8" fill="none" stroke="white" stroke-width="1.5" pointer-events="none"/>
  </g>
  <g id="arrowUp" transform="translate(30 24)">
    <use xlink:href="#rim"/>
    <path pointer-events="none" fill="none" stroke="white" stroke-width="1.5" d="M0,-3.0v7 M-2.5,-0.5L0,-3.0L2.5,-0.5"/>
  </g>
  <g id="arrowRight" transform="rotate(90) translate(36 -43)">
    <use xlink:href="#rim"/>
    <path pointer-events="none" fill="none" stroke="white" stroke-width="1.5" d="M0,-3.0v7 M-2.5,-0.5L0,-3.0L2.5,-0.5"/>
  </g>
  <g id="arrowDown" transform="rotate(180) translate(-30 -48)">
    <use xlink:href="#rim"/>
    <path pointer-events="none" fill="none" stroke="white" stroke-width="1.5" d="M0,-3.0v7 M-2.5,-0.5L0,-3.0L2.5,-0.5"/>
  </g>
  <g id="arrowLeft" transform="rotate(270) translate(-36 17)">
    <use xlink:href="#rim"/>
    <path pointer-events="none" fill="none" stroke="white" stroke-width="1.5" d="M0,-3.0v7 M-2.5,-0.5L0,-3.0L2.5,-0.5"/>
  </g>
  <g id="resetDef">
    <use xlink:href="#rim2" fill="#404040"><set attributeName="fill" to="#808080" begin="reset.mouseover" end="reset.mouseout"/></use>
  </g>
</defs>
<script type="application/ecmascript">
var viewWidth = 1038;
var viewHeight = 304;
var sectionId = 'dynsection-1';
</script>
<script type="application/ecmascript" xlink:href="svg.min.js"/>
<svg id="graph" class="graph">
<g id="viewport">
<title>TDetector.h</title>
<!-- Node1 -->
<g id="Node000001" class="node">
<title>Node1</title>
<g id="a_Node000001"><a xlink:title=" ">
<polygon fill="#999999" stroke="#666666" points="273,-295.5 206.75,-295.5 206.75,-276.25 273,-276.25 273,-295.5"/>
<text text-anchor="middle" x="239.88" y="-282" font-family="Helvetica,sans-Serif" font-size="10.00">TDetector.h</text>
</a>
</g>
</g>
<!-- Node2 -->
<g id="Node000002" class="node">
<title>Node2</title>
<g id="a_Node000002"><a xlink:href="_t_bgo_8h.html" target="_top" xlink:title=" ">
<polygon fill="white" stroke="#666666" points="87.25,-240.25 40.5,-240.25 40.5,-221 87.25,-221 87.25,-240.25"/>
<text text-anchor="middle" x="63.88" y="-226.75" font-family="Helvetica,sans-Serif" font-size="10.00">TBgo.h</text>
</a>
</g>
</g>
<!-- Node1&#45;&gt;Node2 -->
<g id="edge1_Node000001_Node000002" class="edge">
<title>Node1&#45;&gt;Node2</title>
<g id="a_edge1_Node000001_Node000002"><a xlink:title=" ">
<path fill="none" stroke="#63b8ff" d="M199.33,-272.61C164.77,-262.15 116.27,-247.48 87.66,-238.82"/>
<polygon fill="#63b8ff" stroke="#63b8ff" points="197.99,-275.86 208.57,-275.4 200.01,-269.16 197.99,-275.86"/>
</a>
</g>
</g>
<!-- Node4 -->
<g id="Node000004" class="node">
<title>Node4</title>
<g id="a_Node000004"><a xlink:href="_t_suppressed_8h.html" target="_top" xlink:title=" ">
<polygon fill="white" stroke="#666666" points="155.5,-185 74.25,-185 74.25,-165.75 155.5,-165.75 155.5,-185"/>
<text text-anchor="middle" x="114.88" y="-171.5" font-family="Helvetica,sans-Serif" font-size="10.00">TSuppressed.h</text>
</a>
</g>
</g>
<!-- Node1&#45;&gt;Node4 -->
<g id="edge7_Node000001_Node000004" class="edge">
<title>Node1&#45;&gt;Node4</title>
<g id="a_edge7_Node000001_Node000004"><a xlink:title=" ">
<path fill="none" stroke="#63b8ff" d="M195.49,-275.59C174.19,-269.03 149.88,-258.1 133.88,-240.25 119.82,-224.57 116.15,-198.9 115.2,-185.37"/>
<polygon fill="#63b8ff" stroke="#63b8ff" points="194.27,-278.88 204.84,-278.23 196.17,-272.15 194.27,-278.88"/>
</a>
</g>
</g>
<!-- Node6 -->
<g id="Node000006" class="node">
<title>Node6</title>
<g id="a_Node000006"><a xlink:href="_t_detector_8cxx.html" target="_top" xlink:title=" ">
<polygon fill="white" stroke="#666666" points="218.5,-240.25 143.25,-240.25 143.25,-221 218.5,-221 218.5,-240.25"/>
<text text-anchor="middle" x="180.88" y="-226.75" font-family="Helvetica,sans-Serif" font-size="10.00">TDetector.cxx</text>
</a>
</g>
</g>
<!-- Node1&#45;&gt;Node6 -->
<g id="edge5_Node000001_Node000006" class="edge">
<title>Node1&#45;&gt;Node6</title>
<g id="a_edge5_Node000001_Node000006"><a xlink:title=" ">
<path fill="none" stroke="#63b8ff" d="M221.61,-268.39C211.42,-259.19 199.13,-248.1 190.74,-240.52"/>
<polygon fill="#63b8ff" stroke="#63b8ff" points="218.97,-270.73 228.74,-274.83 223.66,-265.53 218.97,-270.73"/>
</a>
</g>
</g>
<!-- Node7 -->
<g id="Node000007" class="node">
<title>Node7</title>
<g id="a_Node000007"><a xlink:href="_t_fragment_chain_loop_8cxx.html" target="_top" xlink:title=" ">
<polygon fill="white" stroke="#666666" points="363,-240.25 236.75,-240.25 236.75,-221 363,-221 363,-240.25"/>
<text text-anchor="middle" x="299.88" y="-226.75" font-family="Helvetica,sans-Serif" font-size="10.00">TFragmentChainLoop.cxx</text>
</a>
</g>
</g>
<!-- Node1&#45;&gt;Node7 -->
<g id="edge6_Node000001_Node000007" class="edge">
<title>Node1&#45;&gt;Node7</title>
<g id="a_edge6_Node000001_Node000007"><a xlink:title=" ">
<path fill="none" stroke="#63b8ff" d="M258.45,-268.39C268.81,-259.19 281.31,-248.1 289.85,-240.52"/>
<polygon fill="#63b8ff" stroke="#63b8ff" points="256.34,-265.58 251.19,-274.84 260.99,-270.82 256.34,-265.58"/>
</a>
</g>
</g>
<!-- Node8 -->
<g id="Node000008" class="node">
<title>Node8</title>
<g id="a_Node000008"><a xlink:href="_t_unpacked_event_8cxx.html" target="_top" xlink:title=" ">
<polygon fill="white" stroke="#666666" points="380.62,-185 273.12,-185 273.12,-165.75 380.62,-165.75 380.62,-185"/>
<text text-anchor="middle" x="326.88" y="-171.5" font-family="Helvetica,sans-Serif" font-size="10.00">TUnpackedEvent.cxx</text>
</a>
</g>
</g>
<!-- Node1&#45;&gt;Node8 -->
<g id="edge8_Node000001_Node000008" class="edge">
<title>Node1&#45;&gt;Node8</title>
<g id="a_edge8_Node000001_Node000008"><a xlink:title=" ">
<path fill="none" stroke="#63b8ff" d="M284.39,-282.65C314.45,-278.55 352.12,-267.79 371.88,-240.25 385.87,-220.74 359,-197.68 341.09,-185.3"/>
<polygon fill="#63b8ff" stroke="#63b8ff" points="284.34,-279.13 274.8,-283.74 285.14,-286.09 284.34,-279.13"/>
</a>
</g>
</g>
<!-- Node9 -->
<g id="Node000009" class="node">
<title>Node9</title>
<g id="a_Node000009"><a xlink:href="_t_unpacked_event_8h.html" target="_top" xlink:title=" ">
<polygon fill="white" stroke="#666666" points="580.12,-240.25 481.62,-240.25 481.62,-221 580.12,-221 580.12,-240.25"/>
<text text-anchor="middle" x="530.88" y="-226.75" font-family="Helvetica,sans-Serif" font-size="10.00">TUnpackedEvent.h</text>
</a>
</g>
</g>
<!-- Node1&#45;&gt;Node9 -->
<g id="edge9_Node000001_Node000009" class="edge">
<title>Node1&#45;&gt;Node9</title>
<g id="a_edge9_Node000001_Node000009"><a xlink:title=" ">
<path fill="none" stroke="#63b8ff" d="M284.34,-276.74C337.4,-267.03 425.88,-250.84 481.16,-240.72"/>
<polygon fill="#63b8ff" stroke="#63b8ff" points="283.95,-273.25 274.75,-278.49 285.21,-280.14 283.95,-273.25"/>
</a>
</g>
</g>
<!-- Node3 -->
<g id="Node000003" class="node">
<title>Node3</title>
<g id="a_Node000003"><a xlink:href="_t_bgo_8cxx.html" target="_top" xlink:title=" ">
<polygon fill="white" stroke="#666666" points="55.75,-185 0,-185 0,-165.75 55.75,-165.75 55.75,-185"/>
<text text-anchor="middle" x="27.88" y="-171.5" font-family="Helvetica,sans-Serif" font-size="10.00">TBgo.cxx</text>
</a>
</g>
</g>
<!-- Node2&#45;&gt;Node3 -->
<g id="edge2_Node000002_Node000003" class="edge">
<title>Node2&#45;&gt;Node3</title>
<g id="a_edge2_Node000002_Node000003"><a xlink:title=" ">
<path fill="none" stroke="#63b8ff" d="M51.56,-211.4C45.61,-202.61 38.75,-192.46 33.95,-185.36"/>
<polygon fill="#63b8ff" stroke="#63b8ff" points="48.58,-213.25 57.08,-219.58 54.38,-209.33 48.58,-213.25"/>
</a>
</g>
</g>
<!-- Node2&#45;&gt;Node4 -->
<g id="edge3_Node000002_Node000004" class="edge">
<title>Node2&#45;&gt;Node4</title>
<g id="a_edge3_Node000002_Node000004"><a xlink:title=" ">
<path fill="none" stroke="#63b8ff" d="M80.24,-212.54C88.89,-203.5 99.17,-192.77 106.27,-185.36"/>
<polygon fill="#63b8ff" stroke="#63b8ff" points="77.73,-210.1 73.34,-219.74 82.79,-214.94 77.73,-210.1"/>
</a>
</g>
</g>
<!-- Node5 -->
<g id="Node000005" class="node">
<title>Node5</title>
<g id="a_Node000005"><a xlink:href="_t_suppressed_8cxx.html" target="_top" xlink:title=" ">
<polygon fill="white" stroke="#666666" points="160,-129.75 69.75,-129.75 69.75,-110.5 160,-110.5 160,-129.75"/>
<text text-anchor="middle" x="114.88" y="-116.25" font-family="Helvetica,sans-Serif" font-size="10.00">TSuppressed.cxx</text>
</a>
</g>
</g>
<!-- Node4&#45;&gt;Node5 -->
<g id="edge4_Node000004_Node000005" class="edge">
<title>Node4&#45;&gt;Node5</title>
<g id="a_edge4_Node000004_Node000005"><a xlink:title=" ">
<path fill="none" stroke="#63b8ff" d="M114.88,-154.13C114.88,-145.84 114.88,-136.67 114.88,-130.11"/>
<polygon fill="#63b8ff" stroke="#63b8ff" points="111.38,-154.07 114.88,-164.07 118.38,-154.07 111.38,-154.07"/>
</a>
</g>
</g>
<!-- Node9&#45;&gt;Node8 -->
<g id="edge27_Node000009_Node000008" class="edge">
<title>Node9&#45;&gt;Node8</title>
<g id="a_edge27_Node000009_Node000008"><a xlink:title=" ">
<path fill="none" stroke="#63b8ff" d="M485.17,-217.7C447.79,-207.94 395.71,-194.34 361.65,-185.45"/>
<polygon fill="#63b8ff" stroke="#63b8ff" points="484.24,-221.07 494.8,-220.21 486.01,-214.3 484.24,-221.07"/>
</a>
</g>
</g>
<!-- Node10 -->
<g id="Node000010" class="node">
<title>Node10</title>
<g id="a_Node000010"><a xlink:href="_t_analysis_hist_loop_8h.html" target="_top" xlink:title=" ">
<polygon fill="white" stroke="#666666" points="548.88,-74.5 442.88,-74.5 442.88,-55.25 548.88,-55.25 548.88,-74.5"/>
<text text-anchor="middle" x="495.88" y="-61" font-family="Helvetica,sans-Serif" font-size="10.00">TAnalysisHistLoop.h</text>
</a>
</g>
</g>
<!-- Node9&#45;&gt;Node10 -->
<g id="edge10_Node000009_Node000010" class="edge">
<title>Node9&#45;&gt;Node10</title>
<g id="a_edge10_Node000009_Node000010"><a xlink:title=" ">
<path fill="none" stroke="#63b8ff" d="M504.56,-214.81C478.29,-198.15 440.11,-168.31 427.88,-129.75 425.29,-121.6 423.81,-118.03 427.88,-110.5 437,-93.6 455.62,-82.06 471.07,-74.96"/>
<polygon fill="#63b8ff" stroke="#63b8ff" points="502.65,-217.74 513.01,-219.95 506.29,-211.76 502.65,-217.74"/>
</a>
</g>
</g>
<!-- Node13 -->
<g id="Node000013" class="node">
<title>Node13</title>
<g id="a_Node000013"><a xlink:href="_t_analysis_write_loop_8h.html" target="_top" xlink:title=" ">
<polygon fill="white" stroke="#666666" points="586.12,-185 475.62,-185 475.62,-165.75 586.12,-165.75 586.12,-185"/>
<text text-anchor="middle" x="530.88" y="-171.5" font-family="Helvetica,sans-Serif" font-size="10.00">TAnalysisWriteLoop.h</text>
</a>
</g>
</g>
<!-- Node9&#45;&gt;Node13 -->
<g id="edge13_Node000009_Node000013" class="edge">
<title>Node9&#45;&gt;Node13</title>
<g id="a_edge13_Node000009_Node000013"><a xlink:title=" ">
<path fill="none" stroke="#63b8ff" d="M530.88,-209.38C530.88,-201.09 530.88,-191.92 530.88,-185.36"/>
<polygon fill="#63b8ff" stroke="#63b8ff" points="527.38,-209.32 530.88,-219.32 534.38,-209.32 527.38,-209.32"/>
</a>
</g>
</g>
<!-- Node15 -->
<g id="Node000015" class="node">
<title>Node15</title>
<g id="a_Node000015"><a xlink:href="_t_compiled_histograms_8h.html" target="_top" xlink:title=" ">
<polygon fill="white" stroke="#666666" points="1025,-129.75 904.75,-129.75 904.75,-110.5 1025,-110.5 1025,-129.75"/>
<text text-anchor="middle" x="964.88" y="-116.25" font-family="Helvetica,sans-Serif" font-size="10.00">TCompiledHistograms.h</text>
</a>
</g>
</g>
<!-- Node9&#45;&gt;Node15 -->
<g id="edge16_Node000009_Node000015" class="edge">
<title>Node9&#45;&gt;Node15</title>
<g id="a_edge16_Node000009_Node000015"><a xlink:title=" ">
<path fill="none" stroke="#63b8ff" d="M591.69,-230.38C661.98,-229.31 780.03,-221.47 873.88,-185 907.34,-171.99 940.21,-144.17 955.69,-129.92"/>
<polygon fill="#63b8ff" stroke="#63b8ff" points="591.88,-226.88 581.92,-230.48 591.95,-233.88 591.88,-226.88"/>
</a>
</g>
</g>
<!-- Node19 -->
<g id="Node000019" class="node">
<title>Node19</title>
<g id="a_Node000019"><a xlink:href="_t_det_building_loop_8cxx.html" target="_top" xlink:title=" ">
<polygon fill="white" stroke="#666666" points="864.75,-185 755,-185 755,-165.75 864.75,-165.75 864.75,-185"/>
<text text-anchor="middle" x="809.88" y="-171.5" font-family="Helvetica,sans-Serif" font-size="10.00">TDetBuildingLoop.cxx</text>
</a>
</g>
</g>
<!-- Node9&#45;&gt;Node19 -->
<g id="edge22_Node000009_Node000019" class="edge">
<title>Node9&#45;&gt;Node19</title>
<g id="a_edge22_Node000009_Node000019"><a xlink:title=" ">
<path fill="none" stroke="#63b8ff" d="M589.78,-218.38C641.16,-208.58 714.75,-194.53 762.43,-185.43"/>
<polygon fill="#63b8ff" stroke="#63b8ff" points="589.17,-214.93 580.01,-220.25 590.49,-221.81 589.17,-214.93"/>
</a>
</g>
</g>
<!-- Node20 -->
<g id="Node000020" class="node">
<title>Node20</title>
<g id="a_Node000020"><a xlink:href="_t_runtime_objects_8h.html" target="_top" xlink:title=" ">
<polygon fill="white" stroke="#666666" points="736.5,-185 637.25,-185 637.25,-165.75 736.5,-165.75 736.5,-185"/>
<text text-anchor="middle" x="686.88" y="-171.5" font-family="Helvetica,sans-Serif" font-size="10.00">TRuntimeObjects.h</text>
</a>
</g>
</g>
<!-- Node9&#45;&gt;Node20 -->
<g id="edge23_Node000009_Node000020" class="edge">
<title>Node9&#45;&gt;Node20</title>
<g id="a_edge23_Node000009_Node000020"><a xlink:title=" ">
<path fill="none" stroke="#63b8ff" d="M568.06,-216.93C596.46,-207.24 634.91,-194.11 660.28,-185.45"/>
<polygon fill="#63b8ff" stroke="#63b8ff" points="567.1,-213.56 558.77,-220.1 569.37,-220.18 567.1,-213.56"/>
</a>
</g>
</g>
<!-- Node11 -->
<g id="Node000011" class="node">
<title>Node11</title>
<g id="a_Node000011"><a xlink:href="_t_analysis_hist_loop_8cxx.html" target="_top" xlink:title=" ">
<polygon fill="white" stroke="#666666" points="538.38,-19.25 423.38,-19.25 423.38,0 538.38,0 538.38,-19.25"/>
<text text-anchor="middle" x="480.88" y="-5.75" font-family="Helvetica,sans-Serif" font-size="10.00">TAnalysisHistLoop.cxx</text>
</a>
</g>
</g>
<!-- Node10&#45;&gt;Node11 -->
<g id="edge11_Node000010_Node000011" class="edge">
<title>Node10&#45;&gt;Node11</title>
<g id="a_edge11_Node000010_Node000011"><a xlink:title=" ">
<path fill="none" stroke="#63b8ff" d="M490.34,-44.21C487.96,-35.77 485.3,-26.33 483.41,-19.61"/>
<polygon fill="#63b8ff" stroke="#63b8ff" points="486.91,-44.95 492.99,-53.63 493.65,-43.05 486.91,-44.95"/>
</a>
</g>
</g>
<!-- Node12 -->
<g id="Node000012" class="node">
<title>Node12</title>
<g id="a_Node000012"><a xlink:href="_t_g_r_s_iint_8cxx.html" target="_top" xlink:title=" ">
<polygon fill="white" stroke="#666666" points="629.38,-19.25 556.38,-19.25 556.38,0 629.38,0 629.38,-19.25"/>
<text text-anchor="middle" x="592.88" y="-5.75" font-family="Helvetica,sans-Serif" font-size="10.00">TGRSIint.cxx</text>
</a>
</g>
</g>
<!-- Node10&#45;&gt;Node12 -->
<g id="edge12_Node000010_Node000012" class="edge">
<title>Node10&#45;&gt;Node12</title>
<g id="a_edge12_Node000010_Node000012"><a xlink:title=" ">
<path fill="none" stroke="#63b8ff" d="M522.35,-49.34C539.59,-39.88 561.54,-27.83 576.34,-19.7"/>
<polygon fill="#63b8ff" stroke="#63b8ff" points="520.74,-46.23 513.66,-54.11 524.11,-52.37 520.74,-46.23"/>
</a>
</g>
</g>
<!-- Node13&#45;&gt;Node12 -->
<g id="edge15_Node000013_Node000012" class="edge">
<title>Node13&#45;&gt;Node12</title>
<g id="a_edge15_Node000013_Node000012"><a xlink:title=" ">
<path fill="none" stroke="#63b8ff" d="M547.6,-156.82C554.17,-149.05 561.24,-139.48 565.88,-129.75 584.09,-91.45 590.32,-40.29 592.18,-19.73"/>
<polygon fill="#63b8ff" stroke="#63b8ff" points="545.09,-154.38 541.02,-164.16 550.3,-159.05 545.09,-154.38"/>
</a>
</g>
</g>
<!-- Node14 -->
<g id="Node000014" class="node">
<title>Node14</title>
<g id="a_Node000014"><a xlink:href="_t_analysis_write_loop_8cxx.html" target="_top" xlink:title=" ">
<polygon fill="white" stroke="#666666" points="556.62,-129.75 437.12,-129.75 437.12,-110.5 556.62,-110.5 556.62,-129.75"/>
<text text-anchor="middle" x="496.88" y="-116.25" font-family="Helvetica,sans-Serif" font-size="10.00">TAnalysisWriteLoop.cxx</text>
</a>
</g>
</g>
<!-- Node13&#45;&gt;Node14 -->
<g id="edge14_Node000013_Node000014" class="edge">
<title>Node13&#45;&gt;Node14</title>
<g id="a_edge14_Node000013_Node000014"><a xlink:title=" ">
<path fill="none" stroke="#63b8ff" d="M519.24,-156.15C513.63,-147.36 507.15,-137.21 502.61,-130.11"/>
<polygon fill="#63b8ff" stroke="#63b8ff" points="516.11,-157.76 524.45,-164.31 522.01,-153.99 516.11,-157.76"/>
</a>
</g>
</g>
<!-- Node15&#45;&gt;Node10 -->
<g id="edge17_Node000015_Node000010" class="edge">
<title>Node15&#45;&gt;Node10</title>
<g id="a_edge17_Node000015_Node000010"><a xlink:title=" ">
<path fill="none" stroke="#63b8ff" d="M893.01,-110.17C763.63,-94.93 623.83,-79.65 549.28,-71.61"/>
<polygon fill="#63b8ff" stroke="#63b8ff" points="892.45,-113.63 902.8,-111.33 893.27,-106.68 892.45,-113.63"/>
</a>
</g>
</g>
<!-- Node16 -->
<g id="Node000016" class="node">
<title>Node16</title>
<g id="a_Node000016"><a xlink:href="_t_compiled_histograms_8cxx.html" target="_top" xlink:title=" ">
<polygon fill="white" stroke="#666666" points="1029.5,-74.5 900.25,-74.5 900.25,-55.25 1029.5,-55.25 1029.5,-74.5"/>
<text text-anchor="middle" x="964.88" y="-61" font-family="Helvetica,sans-Serif" font-size="10.00">TCompiledHistograms.cxx</text>
</a>
</g>
</g>
<!-- Node15&#45;&gt;Node16 -->
<g id="edge18_Node000015_Node000016" class="edge">
<title>Node15&#45;&gt;Node16</title>
<g id="a_edge18_Node000015_Node000016"><a xlink:title=" ">
<path fill="none" stroke="#63b8ff" d="M964.88,-98.88C964.88,-90.59 964.88,-81.42 964.88,-74.86"/>
<polygon fill="#63b8ff" stroke="#63b8ff" points="961.38,-98.82 964.88,-108.82 968.38,-98.82 961.38,-98.82"/>
</a>
</g>
</g>
<!-- Node17 -->
<g id="Node000017" class="node">
<title>Node17</title>
<g id="a_Node000017"><a xlink:href="_t_frag_hist_loop_8h.html" target="_top" xlink:title=" ">
<polygon fill="white" stroke="#666666" points="811.25,-74.5 722.5,-74.5 722.5,-55.25 811.25,-55.25 811.25,-74.5"/>
<text text-anchor="middle" x="766.88" y="-61" font-family="Helvetica,sans-Serif" font-size="10.00">TFragHistLoop.h</text>
</a>
</g>
</g>
<!-- Node15&#45;&gt;Node17 -->
<g id="edge19_Node000015_Node000017" class="edge">
<title>Node15&#45;&gt;Node17</title>
<g id="a_edge19_Node000015_Node000017"><a xlink:title=" ">
<path fill="none" stroke="#63b8ff" d="M920.52,-107.2C884.23,-97.44 833.68,-83.84 800.63,-74.95"/>
<polygon fill="#63b8ff" stroke="#63b8ff" points="919.26,-110.48 929.83,-109.7 921.08,-103.72 919.26,-110.48"/>
</a>
</g>
</g>
<!-- Node17&#45;&gt;Node12 -->
<g id="edge21_Node000017_Node000012" class="edge">
<title>Node17&#45;&gt;Node12</title>
<g id="a_edge21_Node000017_Node000012"><a xlink:title=" ">
<path fill="none" stroke="#63b8ff" d="M726.65,-51.57C694.86,-41.84 651.21,-28.48 622.54,-19.7"/>
<polygon fill="#63b8ff" stroke="#63b8ff" points="725.32,-54.82 735.91,-54.4 727.37,-48.13 725.32,-54.82"/>
</a>
</g>
</g>
<!-- Node18 -->
<g id="Node000018" class="node">
<title>Node18</title>
<g id="a_Node000018"><a xlink:href="_t_frag_hist_loop_8cxx.html" target="_top" xlink:title=" ">
<polygon fill="white" stroke="#666666" points="815.75,-19.25 718,-19.25 718,0 815.75,0 815.75,-19.25"/>
<text text-anchor="middle" x="766.88" y="-5.75" font-family="Helvetica,sans-Serif" font-size="10.00">TFragHistLoop.cxx</text>
</a>
</g>
</g>
<!-- Node17&#45;&gt;Node18 -->
<g id="edge20_Node000017_Node000018" class="edge">
<title>Node17&#45;&gt;Node18</title>
<g id="a_edge20_Node000017_Node000018"><a xlink:title=" ">
<path fill="none" stroke="#63b8ff" d="M766.88,-43.63C766.88,-35.34 766.88,-26.17 766.88,-19.61"/>
<polygon fill="#63b8ff" stroke="#63b8ff" points="763.38,-43.57 766.88,-53.57 770.38,-43.57 763.38,-43.57"/>
</a>
</g>
</g>
<!-- Node20&#45;&gt;Node15 -->
<g id="edge25_Node000020_Node000015" class="edge">
<title>Node20&#45;&gt;Node15</title>
<g id="a_edge25_Node000020_Node000015"><a xlink:title=" ">
<path fill="none" stroke="#63b8ff" d="M745.57,-163.13C796.76,-153.33 870.09,-139.28 917.6,-130.18"/>
<polygon fill="#63b8ff" stroke="#63b8ff" points="745,-159.68 735.84,-165 746.32,-166.55 745,-159.68"/>
</a>
</g>
</g>
<!-- Node21 -->
<g id="Node000021" class="node">
<title>Node21</title>
<g id="a_Node000021"><a xlink:href="_make_fragment_histograms_8cxx.html" target="_top" xlink:title=" ">
<polygon fill="white" stroke="#666666" points="760.88,-129.75 612.88,-129.75 612.88,-110.5 760.88,-110.5 760.88,-129.75"/>
<text text-anchor="middle" x="686.88" y="-116.25" font-family="Helvetica,sans-Serif" font-size="10.00">MakeFragmentHistograms.cxx</text>
</a>
</g>
</g>
<!-- Node20&#45;&gt;Node21 -->
<g id="edge24_Node000020_Node000021" class="edge">
<title>Node20&#45;&gt;Node21</title>
<g id="a_edge24_Node000020_Node000021"><a xlink:title=" ">
<path fill="none" stroke="#63b8ff" d="M686.88,-154.13C686.88,-145.84 686.88,-136.67 686.88,-130.11"/>
<polygon fill="#63b8ff" stroke="#63b8ff" points="683.38,-154.07 686.88,-164.07 690.38,-154.07 683.38,-154.07"/>
</a>
</g>
</g>
<!-- Node22 -->
<g id="Node000022" class="node">
<title>Node22</title>
<g id="a_Node000022"><a xlink:href="_t_runtime_objects_8cxx.html" target="_top" xlink:title=" ">
<polygon fill="white" stroke="#666666" points="887,-129.75 778.75,-129.75 778.75,-110.5 887,-110.5 887,-129.75"/>
<text text-anchor="middle" x="832.88" y="-116.25" font-family="Helvetica,sans-Serif" font-size="10.00">TRuntimeObjects.cxx</text>
</a>
</g>
</g>
<!-- Node20&#45;&gt;Node22 -->
<g id="edge26_Node000020_Node000022" class="edge">
<title>Node20&#45;&gt;Node22</title>
<g id="a_edge26_Node000020_Node000022"><a xlink:title=" ">
<path fill="none" stroke="#63b8ff" d="M722.39,-161.42C748.89,-151.75 784.45,-138.79 807.99,-130.2"/>
<polygon fill="#63b8ff" stroke="#63b8ff" points="721.26,-158.11 713.06,-164.82 723.66,-164.68 721.26,-158.11"/>
</a>
</g>
</g>
</g>
</svg>

<g id="navigator" transform="translate(0 0)" fill="#404254">
  <rect fill="#f2f5e9" fill-opacity="0.5" stroke="#606060" stroke-width=".5" x="0" y="0" width="60" height="60"/>
  <use id="zoomplus" xlink:href="#zoomPlus" x="17" y="9" onmousedown="handleZoom(evt,'in')"/>
  <use id="zoomminus" xlink:href="#zoomMin" x="42" y="9" onmousedown="handleZoom(evt,'out')"/>
  <use id="reset" xlink:href="#resetDef" x="30" y="36" onmousedown="handleReset()"/>
   <use id="arrowup" xlink:href="#arrowUp" x="0" y="0" onmousedown="handlePan(0,-1)"/>
  <use id="arrowright" xlink:href="#arrowRight" x="0" y="0" onmousedown="handlePan(1,0)"/>
  <use id="arrowdown" xlink:href="#arrowDown" x="0" y="0" onmousedown="handlePan(0,1)"/>
  <use id="arrowleft" xlink:href="#arrowLeft" x="0" y="0" onmousedown="handlePan(-1,0)"/>
</g>
<svg viewBox="0 0 15 15" width="100%" height="30px" preserveAspectRatio="xMaxYMin meet">
 <g id="arrow_out" transform="scale(0.3 0.3)">
  <a xlink:href="_t_detector_8h__dep__incl_org.svg" target="_base">
   <rect id="button" ry="5" rx="5" y="6" x="6" height="38" width="38"
        fill="#f2f5e9" fill-opacity="0.5" stroke="#606060" stroke-width="1.0"/>
   <path id="arrow"
     d="M 11.500037,31.436501 C 11.940474,20.09759 22.043105,11.32322 32.158766,21.979434 L 37.068811,17.246167 C 37.068811,17.246167 37.088388,32 37.088388,32 L 22.160133,31.978069 C 22.160133,31.978069 26.997745,27.140456 26.997745,27.140456 C 18.528582,18.264221 13.291696,25.230495 11.500037,31.436501 z"
     style="fill:#404040;"/>
  </a>
 </g>
</svg>

<style type='text/css'>
<![CDATA[
[data-mouse-over-selected='false'] { opacity: 0.7; }
[data-mouse-over-selected='true']  { opacity: 1.0; }
]]>
</style>
<script type="application/ecmascript"><![CDATA[
document.addEventListener('DOMContentLoaded', (event) => {
  highlightEdges();
  highlightAdjacentNodes();
});
]]></script>
</svg>
