<?xml version="1.0" encoding="UTF-8" standalone="no"?>
<!DOCTYPE svg PUBLIC "-//W3C//DTD SVG 1.1//EN"
 "http://www.w3.org/Graphics/SVG/1.1/DTD/svg11.dtd">
<!-- Generated by graphviz version 12.2.0 (20241103.1931)
 -->
<!-- Title: TDemand.h Pages: 1 -->
<svg width="313pt" height="83pt"
 viewBox="0.00 0.00 313.00 82.50" xmlns="http://www.w3.org/2000/svg" xmlns:xlink="http://www.w3.org/1999/xlink">
<g id="graph0" class="graph" transform="scale(1 1) rotate(0) translate(4 78.5)">
<title>TDemand.h</title>
<!-- Node1 -->
<g id="Node000001" class="node">
<title>Node1</title>
<g id="a_Node000001"><a xlink:title=" ">
<polygon fill="#999999" stroke="#666666" points="169,-74.5 103.5,-74.5 103.5,-55.25 169,-55.25 169,-74.5"/>
<text text-anchor="middle" x="136.25" y="-61" font-family="Helvetica,sans-Serif" font-size="10.00">TDemand.h</text>
</a>
</g>
</g>
<!-- Node2 -->
<g id="Node000002" class="node">
<title>Node2</title>
<g id="a_Node000002"><a xlink:href="_t_demand_8cxx.html" target="_top" xlink:title=" ">
<polygon fill="white" stroke="#666666" points="74.5,-19.25 0,-19.25 0,0 74.5,0 74.5,-19.25"/>
<text text-anchor="middle" x="37.25" y="-5.75" font-family="Helvetica,sans-Serif" font-size="10.00">TDemand.cxx</text>
</a>
</g>
</g>
<!-- Node1&#45;&gt;Node2 -->
<g id="edge1_Node000001_Node000002" class="edge">
<title>Node1&#45;&gt;Node2</title>
<g id="a_edge1_Node000001_Node000002"><a xlink:title=" ">
<path fill="none" stroke="#63b8ff" d="M109.73,-49.61C92.06,-40.11 69.37,-27.9 54.13,-19.7"/>
<polygon fill="#63b8ff" stroke="#63b8ff" points="107.66,-52.47 118.12,-54.12 110.97,-46.31 107.66,-52.47"/>
</a>
</g>
</g>
<!-- Node3 -->
<g id="Node000003" class="node">
<title>Node3</title>
<g id="a_Node000003"><a xlink:href="_t_demand_hit_8cxx.html" target="_top" xlink:title=" ">
<polygon fill="white" stroke="#666666" points="179.88,-19.25 92.62,-19.25 92.62,0 179.88,0 179.88,-19.25"/>
<text text-anchor="middle" x="136.25" y="-5.75" font-family="Helvetica,sans-Serif" font-size="10.00">TDemandHit.cxx</text>
</a>
</g>
</g>
<!-- Node1&#45;&gt;Node3 -->
<g id="edge2_Node000001_Node000003" class="edge">
<title>Node1&#45;&gt;Node3</title>
<g id="a_edge2_Node000001_Node000003"><a xlink:title=" ">
<path fill="none" stroke="#63b8ff" d="M136.25,-43.63C136.25,-35.34 136.25,-26.17 136.25,-19.61"/>
<polygon fill="#63b8ff" stroke="#63b8ff" points="132.75,-43.57 136.25,-53.57 139.75,-43.57 132.75,-43.57"/>
</a>
</g>
</g>
<!-- Node4 -->
<g id="Node000004" class="node">
<title>Node4</title>
<g id="a_Node000004"><a xlink:href="_t_g_r_s_i_mnemonic_8cxx.html" target="_top" xlink:title=" ">
<polygon fill="white" stroke="#666666" points="305,-19.25 197.5,-19.25 197.5,0 305,0 305,-19.25"/>
<text text-anchor="middle" x="251.25" y="-5.75" font-family="Helvetica,sans-Serif" font-size="10.00">TGRSIMnemonic.cxx</text>
</a>
</g>
</g>
<!-- Node1&#45;&gt;Node4 -->
<g id="edge3_Node000001_Node000004" class="edge">
<title>Node1&#45;&gt;Node4</title>
<g id="a_edge3_Node000001_Node000004"><a xlink:title=" ">
<path fill="none" stroke="#63b8ff" d="M166.2,-50.01C186.84,-40.45 213.69,-28.02 231.65,-19.7"/>
<polygon fill="#63b8ff" stroke="#63b8ff" points="164.74,-46.83 157.13,-54.21 167.68,-53.18 164.74,-46.83"/>
</a>
</g>
</g>
</g>
</svg>
