<?xml version="1.0" encoding="UTF-8" standalone="no"?>
<!DOCTYPE svg PUBLIC "-//W3C//DTD SVG 1.1//EN"
 "http://www.w3.org/Graphics/SVG/1.1/DTD/svg11.dtd">
<!-- Generated by graphviz version 12.2.0 (20241103.1931)
 -->
<!-- Title: TEmma.h Pages: 1 -->
<svg width="297pt" height="83pt"
 viewBox="0.00 0.00 296.88 82.50" xmlns="http://www.w3.org/2000/svg" xmlns:xlink="http://www.w3.org/1999/xlink">
<g id="graph0" class="graph" transform="scale(1 1) rotate(0) translate(4 78.5)">
<title>TEmma.h</title>
<!-- Node1 -->
<g id="Node000001" class="node">
<title>Node1</title>
<g id="a_Node000001"><a xlink:title=" ">
<polygon fill="#999999" stroke="#666666" points="152.75,-74.5 95.5,-74.5 95.5,-55.25 152.75,-55.25 152.75,-74.5"/>
<text text-anchor="middle" x="124.12" y="-61" font-family="Helvetica,sans-Serif" font-size="10.00">TEmma.h</text>
</a>
</g>
</g>
<!-- Node2 -->
<g id="Node000002" class="node">
<title>Node2</title>
<g id="a_Node000002"><a xlink:href="_t_emma_8cxx.html" target="_top" xlink:title=" ">
<polygon fill="white" stroke="#666666" points="66.25,-19.25 0,-19.25 0,0 66.25,0 66.25,-19.25"/>
<text text-anchor="middle" x="33.12" y="-5.75" font-family="Helvetica,sans-Serif" font-size="10.00">TEmma.cxx</text>
</a>
</g>
</g>
<!-- Node1&#45;&gt;Node2 -->
<g id="edge1_Node000001_Node000002" class="edge">
<title>Node1&#45;&gt;Node2</title>
<g id="a_edge1_Node000001_Node000002"><a xlink:title=" ">
<path fill="none" stroke="#63b8ff" d="M98.83,-49.07C82.73,-39.65 62.39,-27.75 48.64,-19.7"/>
<polygon fill="#63b8ff" stroke="#63b8ff" points="96.98,-52.05 107.38,-54.08 100.52,-46.01 96.98,-52.05"/>
</a>
</g>
</g>
<!-- Node3 -->
<g id="Node000003" class="node">
<title>Node3</title>
<g id="a_Node000003"><a xlink:href="_t_emma_hit_8cxx.html" target="_top" xlink:title=" ">
<polygon fill="white" stroke="#666666" points="163.62,-19.25 84.62,-19.25 84.62,0 163.62,0 163.62,-19.25"/>
<text text-anchor="middle" x="124.12" y="-5.75" font-family="Helvetica,sans-Serif" font-size="10.00">TEmmaHit.cxx</text>
</a>
</g>
</g>
<!-- Node1&#45;&gt;Node3 -->
<g id="edge2_Node000001_Node000003" class="edge">
<title>Node1&#45;&gt;Node3</title>
<g id="a_edge2_Node000001_Node000003"><a xlink:title=" ">
<path fill="none" stroke="#63b8ff" d="M124.12,-43.63C124.12,-35.34 124.12,-26.17 124.12,-19.61"/>
<polygon fill="#63b8ff" stroke="#63b8ff" points="120.63,-43.57 124.13,-53.57 127.63,-43.57 120.63,-43.57"/>
</a>
</g>
</g>
<!-- Node4 -->
<g id="Node000004" class="node">
<title>Node4</title>
<g id="a_Node000004"><a xlink:href="_t_g_r_s_i_mnemonic_8cxx.html" target="_top" xlink:title=" ">
<polygon fill="white" stroke="#666666" points="288.88,-19.25 181.38,-19.25 181.38,0 288.88,0 288.88,-19.25"/>
<text text-anchor="middle" x="235.12" y="-5.75" font-family="Helvetica,sans-Serif" font-size="10.00">TGRSIMnemonic.cxx</text>
</a>
</g>
</g>
<!-- Node1&#45;&gt;Node4 -->
<g id="edge3_Node000001_Node000004" class="edge">
<title>Node1&#45;&gt;Node4</title>
<g id="a_edge3_Node000001_Node000004"><a xlink:title=" ">
<path fill="none" stroke="#63b8ff" d="M153.31,-49.87C173.2,-40.33 198.95,-27.98 216.2,-19.7"/>
<polygon fill="#63b8ff" stroke="#63b8ff" points="151.82,-46.71 144.32,-54.19 154.85,-53.02 151.82,-46.71"/>
</a>
</g>
</g>
</g>
</svg>
