<?xml version="1.0" encoding="UTF-8" standalone="no"?>
<!DOCTYPE svg PUBLIC "-//W3C//DTD SVG 1.1//EN"
 "http://www.w3.org/Graphics/SVG/1.1/DTD/svg11.dtd">
<!-- Generated by graphviz version 12.2.0 (20241103.1931)
 -->
<!-- Title: TEfficiencyCalibration.cxx Pages: 1 -->
<svg width="1949pt" height="525pt"
 viewBox="0.00 0.00 1949.38 524.50" xmlns="http://www.w3.org/2000/svg" xmlns:xlink="http://www.w3.org/1999/xlink">
<g id="graph0" class="graph" transform="scale(1 1) rotate(0) translate(4 520.5)">
<title>TEfficiencyCalibration.cxx</title>
<!-- Node1 -->
<g id="Node000001" class="node">
<title>Node1</title>
<g id="a_Node000001"><a xlink:title=" ">
<polygon fill="#999999" stroke="#666666" points="1066.88,-516.5 942.12,-516.5 942.12,-497.25 1066.88,-497.25 1066.88,-516.5"/>
<text text-anchor="middle" x="1004.5" y="-503" font-family="Helvetica,sans-Serif" font-size="10.00">TEfficiencyCalibration.cxx</text>
</a>
</g>
</g>
<!-- Node2 -->
<g id="Node000002" class="node">
<title>Node2</title>
<g id="a_Node000002"><a xlink:href="_t_efficiency_calibration_8h.html" target="_top" xlink:title=" ">
<polygon fill="white" stroke="#666666" points="444.38,-461.25 328.62,-461.25 328.62,-442 444.38,-442 444.38,-461.25"/>
<text text-anchor="middle" x="386.5" y="-447.75" font-family="Helvetica,sans-Serif" font-size="10.00">TEfficiencyCalibration.h</text>
</a>
</g>
</g>
<!-- Node1&#45;&gt;Node2 -->
<g id="edge1_Node000001_Node000002" class="edge">
<title>Node1&#45;&gt;Node2</title>
<g id="a_edge1_Node000001_Node000002"><a xlink:title=" ">
<path fill="none" stroke="#63b8ff" d="M941.84,-500.48C825.61,-490.46 577.41,-469.07 456.12,-458.62"/>
<polygon fill="#63b8ff" stroke="#63b8ff" points="456.56,-455.15 446.29,-457.78 455.96,-462.12 456.56,-455.15"/>
</a>
</g>
</g>
<!-- Node31 -->
<g id="Node000031" class="node">
<title>Node31</title>
<g id="a_Node000031"><a xlink:title=" ">
<polygon fill="#e0e0e0" stroke="#999999" points="993.25,-185 939.75,-185 939.75,-165.75 993.25,-165.75 993.25,-185"/>
<text text-anchor="middle" x="966.5" y="-171.5" font-family="Helvetica,sans-Serif" font-size="10.00">iostream</text>
</a>
</g>
</g>
<!-- Node1&#45;&gt;Node31 -->
<g id="edge41_Node000001_Node000031" class="edge">
<title>Node1&#45;&gt;Node31</title>
<g id="a_edge41_Node000001_Node000031"><a xlink:title=" ">
<path fill="none" stroke="#63b8ff" d="M999.06,-496.96C988.55,-478.88 966.5,-436.29 966.5,-397.38 966.5,-397.38 966.5,-397.38 966.5,-284.88 966.5,-254.16 966.5,-218.55 966.5,-196.74"/>
<polygon fill="#63b8ff" stroke="#63b8ff" points="970,-196.89 966.5,-186.89 963,-196.89 970,-196.89"/>
</a>
</g>
</g>
<!-- Node32 -->
<g id="Node000032" class="node">
<title>Node32</title>
<g id="a_Node000032"><a xlink:href="_globals_8h.html" target="_top" xlink:title=" ">
<polygon fill="white" stroke="#666666" points="1319.75,-240.25 1263.25,-240.25 1263.25,-221 1319.75,-221 1319.75,-240.25"/>
<text text-anchor="middle" x="1291.5" y="-226.75" font-family="Helvetica,sans-Serif" font-size="10.00">Globals.h</text>
</a>
</g>
</g>
<!-- Node1&#45;&gt;Node32 -->
<g id="edge42_Node000001_Node000032" class="edge">
<title>Node1&#45;&gt;Node32</title>
<g id="a_edge42_Node000001_Node000032"><a xlink:title=" ">
<path fill="none" stroke="#63b8ff" d="M1004.5,-496.87C1004.5,-478.28 1004.5,-434.3 1004.5,-397.38 1004.5,-397.38 1004.5,-397.38 1004.5,-340.12 1004.5,-287.83 1173.32,-251.93 1252.01,-238.04"/>
<polygon fill="#63b8ff" stroke="#63b8ff" points="1252.18,-241.56 1261.44,-236.4 1250.99,-234.66 1252.18,-241.56"/>
</a>
</g>
</g>
<!-- Node46 -->
<g id="Node000046" class="node">
<title>Node46</title>
<g id="a_Node000046"><a xlink:title=" ">
<polygon fill="#e0e0e0" stroke="#999999" points="1084.12,-461.25 1032.88,-461.25 1032.88,-442 1084.12,-442 1084.12,-461.25"/>
<text text-anchor="middle" x="1058.5" y="-447.75" font-family="Helvetica,sans-Serif" font-size="10.00">TMath.h</text>
</a>
</g>
</g>
<!-- Node1&#45;&gt;Node46 -->
<g id="edge61_Node000001_Node000046" class="edge">
<title>Node1&#45;&gt;Node46</title>
<g id="a_edge61_Node000001_Node000046"><a xlink:title=" ">
<path fill="none" stroke="#63b8ff" d="M1013.42,-497.08C1020.95,-489.65 1031.97,-478.79 1041.23,-469.66"/>
<polygon fill="#63b8ff" stroke="#63b8ff" points="1043.65,-472.19 1048.31,-462.67 1038.73,-467.2 1043.65,-472.19"/>
</a>
</g>
</g>
<!-- Node47 -->
<g id="Node000047" class="node">
<title>Node47</title>
<g id="a_Node000047"><a xlink:title=" ">
<polygon fill="#e0e0e0" stroke="#999999" points="1191.25,-461.25 1101.75,-461.25 1101.75,-442 1191.25,-442 1191.25,-461.25"/>
<text text-anchor="middle" x="1146.5" y="-447.75" font-family="Helvetica,sans-Serif" font-size="10.00">Math/Minimizer.h</text>
</a>
</g>
</g>
<!-- Node1&#45;&gt;Node47 -->
<g id="edge62_Node000001_Node000047" class="edge">
<title>Node1&#45;&gt;Node47</title>
<g id="a_edge62_Node000001_Node000047"><a xlink:title=" ">
<path fill="none" stroke="#63b8ff" d="M1028.59,-496.84C1051.44,-488.27 1086.02,-475.31 1111.83,-465.63"/>
<polygon fill="#63b8ff" stroke="#63b8ff" points="1112.74,-469.02 1120.88,-462.23 1110.28,-462.47 1112.74,-469.02"/>
</a>
</g>
</g>
<!-- Node3 -->
<g id="Node000003" class="node">
<title>Node3</title>
<g id="a_Node000003"><a xlink:title=" ">
<polygon fill="#e0e0e0" stroke="#999999" points="330.88,-185 296.12,-185 296.12,-165.75 330.88,-165.75 330.88,-185"/>
<text text-anchor="middle" x="313.5" y="-171.5" font-family="Helvetica,sans-Serif" font-size="10.00">map</text>
</a>
</g>
</g>
<!-- Node2&#45;&gt;Node3 -->
<g id="edge2_Node000002_Node000003" class="edge">
<title>Node2&#45;&gt;Node3</title>
<g id="a_edge2_Node000002_Node000003"><a xlink:title=" ">
<path fill="none" stroke="#63b8ff" d="M374.29,-441.69C352.81,-424.83 310.5,-386.05 310.5,-342.12 310.5,-342.12 310.5,-342.12 310.5,-284.88 310.5,-254.14 311.72,-218.54 312.6,-196.74"/>
<polygon fill="#63b8ff" stroke="#63b8ff" points="316.09,-197.03 313.02,-186.89 309.1,-196.73 316.09,-197.03"/>
</a>
</g>
</g>
<!-- Node4 -->
<g id="Node000004" class="node">
<title>Node4</title>
<g id="a_Node000004"><a xlink:title=" ">
<polygon fill="#e0e0e0" stroke="#999999" points="410,-185 349,-185 349,-165.75 410,-165.75 410,-185"/>
<text text-anchor="middle" x="379.5" y="-171.5" font-family="Helvetica,sans-Serif" font-size="10.00">TNamed.h</text>
</a>
</g>
</g>
<!-- Node2&#45;&gt;Node4 -->
<g id="edge3_Node000002_Node000004" class="edge">
<title>Node2&#45;&gt;Node4</title>
<g id="a_edge3_Node000002_Node000004"><a xlink:title=" ">
<path fill="none" stroke="#63b8ff" d="M381.06,-441.71C370.55,-423.63 348.5,-381.04 348.5,-342.12 348.5,-342.12 348.5,-342.12 348.5,-284.88 348.5,-252.64 361.3,-217.02 370.46,-195.69"/>
<polygon fill="#63b8ff" stroke="#63b8ff" points="373.54,-197.35 374.44,-186.79 367.16,-194.49 373.54,-197.35"/>
</a>
</g>
</g>
<!-- Node5 -->
<g id="Node000005" class="node">
<title>Node5</title>
<g id="a_Node000005"><a xlink:title=" ">
<polygon fill="#e0e0e0" stroke="#999999" points="567.88,-406 491.12,-406 491.12,-386.75 567.88,-386.75 567.88,-406"/>
<text text-anchor="middle" x="529.5" y="-392.5" font-family="Helvetica,sans-Serif" font-size="10.00">TMultiGraph.h</text>
</a>
</g>
</g>
<!-- Node2&#45;&gt;Node5 -->
<g id="edge4_Node000002_Node000005" class="edge">
<title>Node2&#45;&gt;Node5</title>
<g id="a_edge4_Node000002_Node000005"><a xlink:title=" ">
<path fill="none" stroke="#63b8ff" d="M410.76,-441.59C433.77,-433.02 468.59,-420.06 494.58,-410.38"/>
<polygon fill="#63b8ff" stroke="#63b8ff" points="495.55,-413.75 503.7,-406.98 493.11,-407.19 495.55,-413.75"/>
</a>
</g>
</g>
<!-- Node6 -->
<g id="Node000006" class="node">
<title>Node6</title>
<g id="a_Node000006"><a xlink:title=" ">
<polygon fill="#e0e0e0" stroke="#999999" points="326.88,-19.25 286.12,-19.25 286.12,0 326.88,0 326.88,-19.25"/>
<text text-anchor="middle" x="306.5" y="-5.75" font-family="Helvetica,sans-Serif" font-size="10.00">TF1.h</text>
</a>
</g>
</g>
<!-- Node2&#45;&gt;Node6 -->
<g id="edge5_Node000002_Node000006" class="edge">
<title>Node2&#45;&gt;Node6</title>
<g id="a_edge5_Node000002_Node000006"><a xlink:title=" ">
<path fill="none" stroke="#63b8ff" d="M363.19,-441.61C328.8,-426.61 268.5,-393.05 268.5,-342.12 268.5,-342.12 268.5,-342.12 268.5,-119.12 268.5,-86.13 284.34,-50.51 295.57,-29.41"/>
<polygon fill="#63b8ff" stroke="#63b8ff" points="298.52,-31.3 300.32,-20.86 292.4,-27.9 298.52,-31.3"/>
</a>
</g>
</g>
<!-- Node7 -->
<g id="Node000007" class="node">
<title>Node7</title>
<g id="a_Node000007"><a xlink:href="_t_efficiency_graph_8h.html" target="_top" xlink:title=" ">
<polygon fill="white" stroke="#666666" points="472.62,-406 376.38,-406 376.38,-386.75 472.62,-386.75 472.62,-406"/>
<text text-anchor="middle" x="424.5" y="-392.5" font-family="Helvetica,sans-Serif" font-size="10.00">TEfficiencyGraph.h</text>
</a>
</g>
</g>
<!-- Node2&#45;&gt;Node7 -->
<g id="edge6_Node000002_Node000007" class="edge">
<title>Node2&#45;&gt;Node7</title>
<g id="a_edge6_Node000002_Node000007"><a xlink:title=" ">
<path fill="none" stroke="#63b8ff" d="M392.77,-441.83C397.86,-434.71 405.2,-424.43 411.53,-415.55"/>
<polygon fill="#63b8ff" stroke="#63b8ff" points="414.25,-417.76 417.21,-407.59 408.55,-413.7 414.25,-417.76"/>
</a>
</g>
</g>
<!-- Node8 -->
<g id="Node000008" class="node">
<title>Node8</title>
<g id="a_Node000008"><a xlink:href="_t_cal_graph_8h.html" target="_top" xlink:title=" ">
<polygon fill="white" stroke="#666666" points="568.5,-350.75 498.5,-350.75 498.5,-331.5 568.5,-331.5 568.5,-350.75"/>
<text text-anchor="middle" x="533.5" y="-337.25" font-family="Helvetica,sans-Serif" font-size="10.00">TCalGraph.h</text>
</a>
</g>
</g>
<!-- Node7&#45;&gt;Node8 -->
<g id="edge7_Node000007_Node000008" class="edge">
<title>Node7&#45;&gt;Node8</title>
<g id="a_edge7_Node000007_Node000008"><a xlink:title=" ">
<path fill="none" stroke="#63b8ff" d="M442.99,-386.34C459.9,-378.08 485.19,-365.73 504.74,-356.18"/>
<polygon fill="#63b8ff" stroke="#63b8ff" points="506.11,-359.4 513.56,-351.87 503.04,-353.11 506.11,-359.4"/>
</a>
</g>
</g>
<!-- Node8&#45;&gt;Node3 -->
<g id="edge8_Node000008_Node000003" class="edge">
<title>Node8&#45;&gt;Node3</title>
<g id="a_edge8_Node000008_Node000003"><a xlink:title=" ">
<path fill="none" stroke="#63b8ff" d="M498.07,-333.55C470.83,-327.19 433.28,-315.52 405.5,-295.5 367.82,-268.36 338.12,-221.5 323.48,-195.37"/>
<polygon fill="#63b8ff" stroke="#63b8ff" points="326.56,-193.71 318.71,-186.6 320.41,-197.05 326.56,-193.71"/>
</a>
</g>
</g>
<!-- Node9 -->
<g id="Node000009" class="node">
<title>Node9</title>
<g id="a_Node000009"><a xlink:title=" ">
<polygon fill="#e0e0e0" stroke="#999999" points="552.75,-295.5 514.25,-295.5 514.25,-276.25 552.75,-276.25 552.75,-295.5"/>
<text text-anchor="middle" x="533.5" y="-282" font-family="Helvetica,sans-Serif" font-size="10.00">utility</text>
</a>
</g>
</g>
<!-- Node8&#45;&gt;Node9 -->
<g id="edge9_Node000008_Node000009" class="edge">
<title>Node8&#45;&gt;Node9</title>
<g id="a_edge9_Node000008_Node000009"><a xlink:title=" ">
<path fill="none" stroke="#63b8ff" d="M533.5,-331.33C533.5,-324.82 533.5,-315.67 533.5,-307.37"/>
<polygon fill="#63b8ff" stroke="#63b8ff" points="537,-307.37 533.5,-297.37 530,-307.37 537,-307.37"/>
</a>
</g>
</g>
<!-- Node10 -->
<g id="Node000010" class="node">
<title>Node10</title>
<g id="a_Node000010"><a xlink:title=" ">
<polygon fill="#e0e0e0" stroke="#999999" points="496.12,-295.5 414.88,-295.5 414.88,-276.25 496.12,-276.25 496.12,-295.5"/>
<text text-anchor="middle" x="455.5" y="-282" font-family="Helvetica,sans-Serif" font-size="10.00">TGraphErrors.h</text>
</a>
</g>
</g>
<!-- Node8&#45;&gt;Node10 -->
<g id="edge10_Node000008_Node000010" class="edge">
<title>Node8&#45;&gt;Node10</title>
<g id="a_edge10_Node000008_Node000010"><a xlink:title=" ">
<path fill="none" stroke="#63b8ff" d="M520.27,-331.09C508.73,-323.21 491.73,-311.61 478.05,-302.27"/>
<polygon fill="#63b8ff" stroke="#63b8ff" points="480.28,-299.55 470.05,-296.81 476.33,-305.33 480.28,-299.55"/>
</a>
</g>
</g>
<!-- Node11 -->
<g id="Node000011" class="node">
<title>Node11</title>
<g id="a_Node000011"><a xlink:href="_t_cal_point_8h.html" target="_top" xlink:title=" ">
<polygon fill="white" stroke="#666666" points="494.62,-185 428.38,-185 428.38,-165.75 494.62,-165.75 494.62,-185"/>
<text text-anchor="middle" x="461.5" y="-171.5" font-family="Helvetica,sans-Serif" font-size="10.00">TCalPoint.h</text>
</a>
</g>
</g>
<!-- Node8&#45;&gt;Node11 -->
<g id="edge11_Node000008_Node000011" class="edge">
<title>Node8&#45;&gt;Node11</title>
<g id="a_edge11_Node000008_Node000011"><a xlink:title=" ">
<path fill="none" stroke="#63b8ff" d="M547.44,-331.01C563.7,-319.15 587.21,-297.43 577.5,-276.25 559.44,-236.88 517.36,-207.16 489.16,-190.76"/>
<polygon fill="#63b8ff" stroke="#63b8ff" points="491.23,-187.9 480.79,-186.06 487.8,-194.01 491.23,-187.9"/>
</a>
</g>
</g>
<!-- Node21 -->
<g id="Node000021" class="node">
<title>Node21</title>
<g id="a_Node000021"><a xlink:href="_t_cal_list_8h.html" target="_top" xlink:title=" ">
<polygon fill="white" stroke="#666666" points="491.62,-240.25 431.38,-240.25 431.38,-221 491.62,-221 491.62,-240.25"/>
<text text-anchor="middle" x="461.5" y="-226.75" font-family="Helvetica,sans-Serif" font-size="10.00">TCalList.h</text>
</a>
</g>
</g>
<!-- Node8&#45;&gt;Node21 -->
<g id="edge24_Node000008_Node000021" class="edge">
<title>Node8&#45;&gt;Node21</title>
<g id="a_edge24_Node000008_Node000021"><a xlink:title=" ">
<path fill="none" stroke="#63b8ff" d="M542.57,-331.41C554.7,-318.68 573.36,-294.53 561.5,-276.25 548.46,-256.15 524.02,-245.02 502.57,-238.91"/>
<polygon fill="#63b8ff" stroke="#63b8ff" points="503.72,-235.59 493.17,-236.52 502,-242.38 503.72,-235.59"/>
</a>
</g>
</g>
<!-- Node22 -->
<g id="Node000022" class="node">
<title>Node22</title>
<g id="a_Node000022"><a xlink:href="_t_source_list_8h.html" target="_top" xlink:title=" ">
<polygon fill="white" stroke="#666666" points="738.88,-295.5 662.12,-295.5 662.12,-276.25 738.88,-276.25 738.88,-295.5"/>
<text text-anchor="middle" x="700.5" y="-282" font-family="Helvetica,sans-Serif" font-size="10.00">TSourceList.h</text>
</a>
</g>
</g>
<!-- Node8&#45;&gt;Node22 -->
<g id="edge28_Node000008_Node000022" class="edge">
<title>Node8&#45;&gt;Node22</title>
<g id="a_edge28_Node000008_Node000022"><a xlink:title=" ">
<path fill="none" stroke="#63b8ff" d="M561.83,-331.09C589.18,-322.37 630.82,-309.09 661.34,-299.36"/>
<polygon fill="#63b8ff" stroke="#63b8ff" points="662.13,-302.78 670.59,-296.41 660,-296.12 662.13,-302.78"/>
</a>
</g>
</g>
<!-- Node12 -->
<g id="Node000012" class="node">
<title>Node12</title>
<g id="a_Node000012"><a xlink:title=" ">
<polygon fill="#e0e0e0" stroke="#999999" points="533.5,-19.25 475.5,-19.25 475.5,0 533.5,0 533.5,-19.25"/>
<text text-anchor="middle" x="504.5" y="-5.75" font-family="Helvetica,sans-Serif" font-size="10.00">TObject.h</text>
</a>
</g>
</g>
<!-- Node11&#45;&gt;Node12 -->
<g id="edge12_Node000011_Node000012" class="edge">
<title>Node11&#45;&gt;Node12</title>
<g id="a_edge12_Node000011_Node000012"><a xlink:title=" ">
<path fill="none" stroke="#63b8ff" d="M463.81,-165.57C470.49,-140.14 489.93,-66.1 499.31,-30.37"/>
<polygon fill="#63b8ff" stroke="#63b8ff" points="502.64,-31.5 501.79,-20.94 495.87,-29.72 502.64,-31.5"/>
</a>
</g>
</g>
<!-- Node13 -->
<g id="Node000013" class="node">
<title>Node13</title>
<g id="a_Node000013"><a xlink:href="_t_peak_8h.html" target="_top" xlink:title=" ">
<polygon fill="white" stroke="#666666" points="388.5,-129.75 336.5,-129.75 336.5,-110.5 388.5,-110.5 388.5,-129.75"/>
<text text-anchor="middle" x="362.5" y="-116.25" font-family="Helvetica,sans-Serif" font-size="10.00">TPeak.h</text>
</a>
</g>
</g>
<!-- Node11&#45;&gt;Node13 -->
<g id="edge13_Node000011_Node000013" class="edge">
<title>Node11&#45;&gt;Node13</title>
<g id="a_edge13_Node000011_Node000013"><a xlink:title=" ">
<path fill="none" stroke="#63b8ff" d="M444.71,-165.34C429.49,-157.16 406.8,-144.96 389.12,-135.44"/>
<polygon fill="#63b8ff" stroke="#63b8ff" points="391.17,-132.57 380.71,-130.92 387.86,-138.74 391.17,-132.57"/>
</a>
</g>
</g>
<!-- Node13&#45;&gt;Node6 -->
<g id="edge14_Node000013_Node000006" class="edge">
<title>Node13&#45;&gt;Node6</title>
<g id="a_edge14_Node000013_Node000006"><a xlink:title=" ">
<path fill="none" stroke="#63b8ff" d="M353.04,-110.03C344.71,-101.54 332.8,-88.17 325.5,-74.5 318.15,-60.74 313.27,-43.74 310.3,-30.74"/>
<polygon fill="#63b8ff" stroke="#63b8ff" points="313.78,-30.3 308.32,-21.22 306.93,-31.73 313.78,-30.3"/>
</a>
</g>
</g>
<!-- Node14 -->
<g id="Node000014" class="node">
<title>Node14</title>
<g id="a_Node000014"><a xlink:title=" ">
<polygon fill="#e0e0e0" stroke="#999999" points="476.75,-74.5 408.25,-74.5 408.25,-55.25 476.75,-55.25 476.75,-74.5"/>
<text text-anchor="middle" x="442.5" y="-61" font-family="Helvetica,sans-Serif" font-size="10.00">TFitResult.h</text>
</a>
</g>
</g>
<!-- Node13&#45;&gt;Node14 -->
<g id="edge15_Node000013_Node000014" class="edge">
<title>Node13&#45;&gt;Node14</title>
<g id="a_edge15_Node000013_Node000014"><a xlink:title=" ">
<path fill="none" stroke="#63b8ff" d="M376.07,-110.09C387.91,-102.21 405.34,-90.61 419.37,-81.27"/>
<polygon fill="#63b8ff" stroke="#63b8ff" points="421.22,-84.25 427.6,-75.79 417.34,-78.42 421.22,-84.25"/>
</a>
</g>
</g>
<!-- Node15 -->
<g id="Node000015" class="node">
<title>Node15</title>
<g id="a_Node000015"><a xlink:title=" ">
<polygon fill="#e0e0e0" stroke="#999999" points="390.38,-74.5 334.62,-74.5 334.62,-55.25 390.38,-55.25 390.38,-74.5"/>
<text text-anchor="middle" x="362.5" y="-61" font-family="Helvetica,sans-Serif" font-size="10.00">TGraph.h</text>
</a>
</g>
</g>
<!-- Node13&#45;&gt;Node15 -->
<g id="edge16_Node000013_Node000015" class="edge">
<title>Node13&#45;&gt;Node15</title>
<g id="a_edge16_Node000013_Node000015"><a xlink:title=" ">
<path fill="none" stroke="#63b8ff" d="M362.5,-110.33C362.5,-103.82 362.5,-94.67 362.5,-86.37"/>
<polygon fill="#63b8ff" stroke="#63b8ff" points="366,-86.37 362.5,-76.37 359,-86.37 366,-86.37"/>
</a>
</g>
</g>
<!-- Node16 -->
<g id="Node000016" class="node">
<title>Node16</title>
<g id="a_Node000016"><a xlink:href="_t_g_r_s_i_fit_8h.html" target="_top" xlink:title=" ">
<polygon fill="white" stroke="#666666" points="240.88,-74.5 176.12,-74.5 176.12,-55.25 240.88,-55.25 240.88,-74.5"/>
<text text-anchor="middle" x="208.5" y="-61" font-family="Helvetica,sans-Serif" font-size="10.00">TGRSIFit.h</text>
</a>
</g>
</g>
<!-- Node13&#45;&gt;Node16 -->
<g id="edge17_Node000013_Node000016" class="edge">
<title>Node13&#45;&gt;Node16</title>
<g id="a_edge17_Node000013_Node000016"><a xlink:title=" ">
<path fill="none" stroke="#63b8ff" d="M336.38,-110.09C311.38,-101.45 273.42,-88.32 245.35,-78.62"/>
<polygon fill="#63b8ff" stroke="#63b8ff" points="246.78,-75.41 236.18,-75.45 244.49,-82.02 246.78,-75.41"/>
</a>
</g>
</g>
<!-- Node16&#45;&gt;Node6 -->
<g id="edge20_Node000016_Node000006" class="edge">
<title>Node16&#45;&gt;Node6</title>
<g id="a_edge20_Node000016_Node000006"><a xlink:title=" ">
<path fill="none" stroke="#63b8ff" d="M225.12,-54.84C240.19,-46.66 262.64,-34.46 280.15,-24.94"/>
<polygon fill="#63b8ff" stroke="#63b8ff" points="281.35,-28.27 288.46,-20.43 278.01,-22.12 281.35,-28.27"/>
</a>
</g>
</g>
<!-- Node16&#45;&gt;Node12 -->
<g id="edge18_Node000016_Node000012" class="edge">
<title>Node16&#45;&gt;Node12</title>
<g id="a_edge18_Node000016_Node000012"><a xlink:title=" ">
<path fill="none" stroke="#63b8ff" d="M241.31,-57.97C295.78,-48.17 404.73,-28.57 463.94,-17.92"/>
<polygon fill="#63b8ff" stroke="#63b8ff" points="464.37,-21.4 473.59,-16.19 463.13,-14.51 464.37,-21.4"/>
</a>
</g>
</g>
<!-- Node17 -->
<g id="Node000017" class="node">
<title>Node17</title>
<g id="a_Node000017"><a xlink:title=" ">
<polygon fill="#e0e0e0" stroke="#999999" points="115.62,-19.25 73.38,-19.25 73.38,0 115.62,0 115.62,-19.25"/>
<text text-anchor="middle" x="94.5" y="-5.75" font-family="Helvetica,sans-Serif" font-size="10.00">TH1.h</text>
</a>
</g>
</g>
<!-- Node16&#45;&gt;Node17 -->
<g id="edge19_Node000016_Node000017" class="edge">
<title>Node16&#45;&gt;Node17</title>
<g id="a_edge19_Node000016_Node000017"><a xlink:title=" ">
<path fill="none" stroke="#63b8ff" d="M189.16,-54.84C171.39,-46.54 144.78,-34.11 124.3,-24.54"/>
<polygon fill="#63b8ff" stroke="#63b8ff" points="125.85,-21.4 115.3,-20.34 122.88,-27.75 125.85,-21.4"/>
</a>
</g>
</g>
<!-- Node18 -->
<g id="Node000018" class="node">
<title>Node18</title>
<g id="a_Node000018"><a xlink:title=" ">
<polygon fill="#e0e0e0" stroke="#999999" points="205.25,-19.25 133.75,-19.25 133.75,0 205.25,0 205.25,-19.25"/>
<text text-anchor="middle" x="169.5" y="-5.75" font-family="Helvetica,sans-Serif" font-size="10.00">TSpectrum.h</text>
</a>
</g>
</g>
<!-- Node16&#45;&gt;Node18 -->
<g id="edge21_Node000016_Node000018" class="edge">
<title>Node16&#45;&gt;Node18</title>
<g id="a_edge21_Node000016_Node000018"><a xlink:title=" ">
<path fill="none" stroke="#63b8ff" d="M202.06,-55.08C196.84,-47.96 189.31,-37.68 182.81,-28.8"/>
<polygon fill="#63b8ff" stroke="#63b8ff" points="185.71,-26.83 176.97,-20.83 180.06,-30.97 185.71,-26.83"/>
</a>
</g>
</g>
<!-- Node19 -->
<g id="Node000019" class="node">
<title>Node19</title>
<g id="a_Node000019"><a xlink:title=" ">
<polygon fill="#e0e0e0" stroke="#999999" points="267.75,-19.25 223.25,-19.25 223.25,0 267.75,0 267.75,-19.25"/>
<text text-anchor="middle" x="245.5" y="-5.75" font-family="Helvetica,sans-Serif" font-size="10.00">TRef.h</text>
</a>
</g>
</g>
<!-- Node16&#45;&gt;Node19 -->
<g id="edge22_Node000016_Node000019" class="edge">
<title>Node16&#45;&gt;Node19</title>
<g id="a_edge22_Node000016_Node000019"><a xlink:title=" ">
<path fill="none" stroke="#63b8ff" d="M214.61,-55.08C219.56,-47.96 226.7,-37.68 232.87,-28.8"/>
<polygon fill="#63b8ff" stroke="#63b8ff" points="235.56,-31.06 238.39,-20.85 229.81,-27.07 235.56,-31.06"/>
</a>
</g>
</g>
<!-- Node20 -->
<g id="Node000020" class="node">
<title>Node20</title>
<g id="a_Node000020"><a xlink:title=" ">
<polygon fill="#e0e0e0" stroke="#999999" points="55,-19.25 0,-19.25 0,0 55,0 55,-19.25"/>
<text text-anchor="middle" x="27.5" y="-5.75" font-family="Helvetica,sans-Serif" font-size="10.00">TString.h</text>
</a>
</g>
</g>
<!-- Node16&#45;&gt;Node20 -->
<g id="edge23_Node000016_Node000020" class="edge">
<title>Node16&#45;&gt;Node20</title>
<g id="a_edge23_Node000016_Node000020"><a xlink:title=" ">
<path fill="none" stroke="#63b8ff" d="M177.8,-54.84C146.99,-45.78 99.44,-31.79 66.1,-21.98"/>
<polygon fill="#63b8ff" stroke="#63b8ff" points="67.41,-18.72 56.83,-19.25 65.44,-25.43 67.41,-18.72"/>
</a>
</g>
</g>
<!-- Node21&#45;&gt;Node3 -->
<g id="edge27_Node000021_Node000003" class="edge">
<title>Node21&#45;&gt;Node3</title>
<g id="a_edge27_Node000021_Node000003"><a xlink:title=" ">
<path fill="none" stroke="#63b8ff" d="M436.39,-220.59C410.27,-211.19 369.43,-196.5 342.09,-186.66"/>
<polygon fill="#63b8ff" stroke="#63b8ff" points="343.29,-183.38 332.7,-183.28 340.93,-189.96 343.29,-183.38"/>
</a>
</g>
</g>
<!-- Node21&#45;&gt;Node4 -->
<g id="edge25_Node000021_Node000004" class="edge">
<title>Node21&#45;&gt;Node4</title>
<g id="a_edge25_Node000021_Node000004"><a xlink:title=" ">
<path fill="none" stroke="#63b8ff" d="M447.59,-220.59C435.34,-212.64 417.25,-200.89 402.79,-191.5"/>
<polygon fill="#63b8ff" stroke="#63b8ff" points="405.04,-188.79 394.75,-186.28 401.23,-194.66 405.04,-188.79"/>
</a>
</g>
</g>
<!-- Node21&#45;&gt;Node11 -->
<g id="edge26_Node000021_Node000011" class="edge">
<title>Node21&#45;&gt;Node11</title>
<g id="a_edge26_Node000021_Node000011"><a xlink:title=" ">
<path fill="none" stroke="#63b8ff" d="M461.5,-220.83C461.5,-214.32 461.5,-205.17 461.5,-196.87"/>
<polygon fill="#63b8ff" stroke="#63b8ff" points="465,-196.87 461.5,-186.87 458,-196.87 465,-196.87"/>
</a>
</g>
</g>
<!-- Node22&#45;&gt;Node21 -->
<g id="edge29_Node000022_Node000021" class="edge">
<title>Node22&#45;&gt;Node21</title>
<g id="a_edge29_Node000022_Node000021"><a xlink:title=" ">
<path fill="none" stroke="#63b8ff" d="M661.83,-276.26C618.2,-266.54 547.51,-250.79 502.82,-240.83"/>
<polygon fill="#63b8ff" stroke="#63b8ff" points="503.77,-237.46 493.25,-238.7 502.25,-244.29 503.77,-237.46"/>
</a>
</g>
</g>
<!-- Node23 -->
<g id="Node000023" class="node">
<title>Node23</title>
<g id="a_Node000023"><a xlink:href="_t_nucleus_8h.html" target="_top" xlink:title=" ">
<polygon fill="white" stroke="#666666" points="741.25,-240.25 675.75,-240.25 675.75,-221 741.25,-221 741.25,-240.25"/>
<text text-anchor="middle" x="708.5" y="-226.75" font-family="Helvetica,sans-Serif" font-size="10.00">TNucleus.h</text>
</a>
</g>
</g>
<!-- Node22&#45;&gt;Node23 -->
<g id="edge30_Node000022_Node000023" class="edge">
<title>Node22&#45;&gt;Node23</title>
<g id="a_edge30_Node000022_Node000023"><a xlink:title=" ">
<path fill="none" stroke="#63b8ff" d="M701.82,-276.08C702.81,-269.49 704.21,-260.21 705.47,-251.82"/>
<polygon fill="#63b8ff" stroke="#63b8ff" points="708.9,-252.51 706.93,-242.11 701.98,-251.47 708.9,-252.51"/>
</a>
</g>
</g>
<!-- Node27 -->
<g id="Node000027" class="node">
<title>Node27</title>
<g id="a_Node000027"><a xlink:title=" ">
<polygon fill="#e0e0e0" stroke="#999999" points="859.5,-185 819.5,-185 819.5,-165.75 859.5,-165.75 859.5,-185"/>
<text text-anchor="middle" x="839.5" y="-171.5" font-family="Helvetica,sans-Serif" font-size="10.00">string</text>
</a>
</g>
</g>
<!-- Node22&#45;&gt;Node27 -->
<g id="edge40_Node000022_Node000027" class="edge">
<title>Node22&#45;&gt;Node27</title>
<g id="a_edge40_Node000022_Node000027"><a xlink:title=" ">
<path fill="none" stroke="#63b8ff" d="M711.87,-276C735.29,-257.72 789.18,-215.65 818.9,-192.46"/>
<polygon fill="#63b8ff" stroke="#63b8ff" points="821.05,-195.22 826.77,-186.31 816.74,-189.7 821.05,-195.22"/>
</a>
</g>
</g>
<!-- Node23&#45;&gt;Node4 -->
<g id="edge38_Node000023_Node000004" class="edge">
<title>Node23&#45;&gt;Node4</title>
<g id="a_edge38_Node000023_Node000004"><a xlink:title=" ">
<path fill="none" stroke="#63b8ff" d="M675.45,-225.17C623.65,-218.05 519.93,-203.23 421.79,-185.33"/>
<polygon fill="#63b8ff" stroke="#63b8ff" points="422.43,-181.88 411.96,-183.52 421.16,-188.77 422.43,-181.88"/>
</a>
</g>
</g>
<!-- Node24 -->
<g id="Node000024" class="node">
<title>Node24</title>
<g id="a_Node000024"><a xlink:title=" ">
<polygon fill="#e0e0e0" stroke="#999999" points="738,-185 695,-185 695,-165.75 738,-165.75 738,-185"/>
<text text-anchor="middle" x="716.5" y="-171.5" font-family="Helvetica,sans-Serif" font-size="10.00">cmath</text>
</a>
</g>
</g>
<!-- Node23&#45;&gt;Node24 -->
<g id="edge31_Node000023_Node000024" class="edge">
<title>Node23&#45;&gt;Node24</title>
<g id="a_edge31_Node000023_Node000024"><a xlink:title=" ">
<path fill="none" stroke="#63b8ff" d="M709.82,-220.83C710.81,-214.24 712.21,-204.96 713.47,-196.57"/>
<polygon fill="#63b8ff" stroke="#63b8ff" points="716.9,-197.26 714.93,-186.86 709.98,-196.22 716.9,-197.26"/>
</a>
</g>
</g>
<!-- Node25 -->
<g id="Node000025" class="node">
<title>Node25</title>
<g id="a_Node000025"><a xlink:title=" ">
<polygon fill="#e0e0e0" stroke="#999999" points="801.12,-185 755.88,-185 755.88,-165.75 801.12,-165.75 801.12,-185"/>
<text text-anchor="middle" x="778.5" y="-171.5" font-family="Helvetica,sans-Serif" font-size="10.00">cstring</text>
</a>
</g>
</g>
<!-- Node23&#45;&gt;Node25 -->
<g id="edge32_Node000023_Node000025" class="edge">
<title>Node23&#45;&gt;Node25</title>
<g id="a_edge32_Node000023_Node000025"><a xlink:title=" ">
<path fill="none" stroke="#63b8ff" d="M720.37,-220.59C730.59,-212.82 745.57,-201.42 757.76,-192.15"/>
<polygon fill="#63b8ff" stroke="#63b8ff" points="759.76,-195.03 765.6,-186.19 755.52,-189.46 759.76,-195.03"/>
</a>
</g>
</g>
<!-- Node26 -->
<g id="Node000026" class="node">
<title>Node26</title>
<g id="a_Node000026"><a xlink:title=" ">
<polygon fill="#e0e0e0" stroke="#999999" points="921.75,-185 877.25,-185 877.25,-165.75 921.75,-165.75 921.75,-185"/>
<text text-anchor="middle" x="899.5" y="-171.5" font-family="Helvetica,sans-Serif" font-size="10.00">cstdlib</text>
</a>
</g>
</g>
<!-- Node23&#45;&gt;Node26 -->
<g id="edge33_Node000023_Node000026" class="edge">
<title>Node23&#45;&gt;Node26</title>
<g id="a_edge33_Node000023_Node000026"><a xlink:title=" ">
<path fill="none" stroke="#63b8ff" d="M740.9,-220.59C775.76,-210.87 830.93,-195.49 866.15,-185.67"/>
<polygon fill="#63b8ff" stroke="#63b8ff" points="866.69,-189.16 875.38,-183.1 864.81,-182.41 866.69,-189.16"/>
</a>
</g>
</g>
<!-- Node23&#45;&gt;Node27 -->
<g id="edge34_Node000023_Node000027" class="edge">
<title>Node23&#45;&gt;Node27</title>
<g id="a_edge34_Node000023_Node000027"><a xlink:title=" ">
<path fill="none" stroke="#63b8ff" d="M730.72,-220.59C752.15,-211.88 784.76,-198.63 808.69,-188.9"/>
<polygon fill="#63b8ff" stroke="#63b8ff" points="809.97,-192.15 817.92,-185.15 807.34,-185.67 809.97,-192.15"/>
</a>
</g>
</g>
<!-- Node28 -->
<g id="Node000028" class="node">
<title>Node28</title>
<g id="a_Node000028"><a xlink:href="_t_transition_8h.html" target="_top" xlink:title=" ">
<polygon fill="white" stroke="#666666" points="584.62,-185 512.38,-185 512.38,-165.75 584.62,-165.75 584.62,-185"/>
<text text-anchor="middle" x="548.5" y="-171.5" font-family="Helvetica,sans-Serif" font-size="10.00">TTransition.h</text>
</a>
</g>
</g>
<!-- Node23&#45;&gt;Node28 -->
<g id="edge35_Node000023_Node000028" class="edge">
<title>Node23&#45;&gt;Node28</title>
<g id="a_edge35_Node000023_Node000028"><a xlink:title=" ">
<path fill="none" stroke="#63b8ff" d="M681.36,-220.59C655.27,-211.91 615.6,-198.71 586.4,-188.99"/>
<polygon fill="#63b8ff" stroke="#63b8ff" points="587.8,-185.77 577.21,-185.93 585.59,-192.41 587.8,-185.77"/>
</a>
</g>
</g>
<!-- Node30 -->
<g id="Node000030" class="node">
<title>Node30</title>
<g id="a_Node000030"><a xlink:title=" ">
<polygon fill="#e0e0e0" stroke="#999999" points="676.75,-185 602.25,-185 602.25,-165.75 676.75,-165.75 676.75,-185"/>
<text text-anchor="middle" x="639.5" y="-171.5" font-family="Helvetica,sans-Serif" font-size="10.00">TSortedList.h</text>
</a>
</g>
</g>
<!-- Node23&#45;&gt;Node30 -->
<g id="edge39_Node000023_Node000030" class="edge">
<title>Node23&#45;&gt;Node30</title>
<g id="a_edge39_Node000023_Node000030"><a xlink:title=" ">
<path fill="none" stroke="#63b8ff" d="M696.8,-220.59C686.72,-212.82 671.96,-201.42 659.94,-192.15"/>
<polygon fill="#63b8ff" stroke="#63b8ff" points="662.29,-189.54 652.23,-186.2 658.01,-195.08 662.29,-189.54"/>
</a>
</g>
</g>
<!-- Node28&#45;&gt;Node12 -->
<g id="edge37_Node000028_Node000012" class="edge">
<title>Node28&#45;&gt;Node12</title>
<g id="a_edge37_Node000028_Node000012"><a xlink:title=" ">
<path fill="none" stroke="#63b8ff" d="M546.13,-165.57C539.3,-140.14 519.41,-66.1 509.81,-30.37"/>
<polygon fill="#63b8ff" stroke="#63b8ff" points="513.25,-29.68 507.27,-20.93 506.49,-31.5 513.25,-29.68"/>
</a>
</g>
</g>
<!-- Node29 -->
<g id="Node000029" class="node">
<title>Node29</title>
<g id="a_Node000029"><a xlink:title=" ">
<polygon fill="#e0e0e0" stroke="#999999" points="937.62,-129.75 895.38,-129.75 895.38,-110.5 937.62,-110.5 937.62,-129.75"/>
<text text-anchor="middle" x="916.5" y="-116.25" font-family="Helvetica,sans-Serif" font-size="10.00">cstdio</text>
</a>
</g>
</g>
<!-- Node28&#45;&gt;Node29 -->
<g id="edge36_Node000028_Node000029" class="edge">
<title>Node28&#45;&gt;Node29</title>
<g id="a_edge36_Node000028_Node000029"><a xlink:title=" ">
<path fill="none" stroke="#63b8ff" d="M584.82,-167.25C587.75,-166.72 590.67,-166.22 593.5,-165.75 699.32,-148.31 825.41,-132.24 883.82,-125.07"/>
<polygon fill="#63b8ff" stroke="#63b8ff" points="883.89,-128.59 893.39,-123.9 883.04,-121.64 883.89,-128.59"/>
</a>
</g>
</g>
<!-- Node32&#45;&gt;Node3 -->
<g id="edge56_Node000032_Node000003" class="edge">
<title>Node32&#45;&gt;Node3</title>
<g id="a_edge56_Node000032_Node000003"><a xlink:title=" ">
<path fill="none" stroke="#63b8ff" d="M1262.95,-229.29C1127.32,-227.56 546.44,-218.43 342.5,-184.73"/>
<polygon fill="#63b8ff" stroke="#63b8ff" points="343.29,-181.32 332.83,-183.06 342.09,-188.21 343.29,-181.32"/>
</a>
</g>
</g>
<!-- Node32&#45;&gt;Node26 -->
<g id="edge49_Node000032_Node000026" class="edge">
<title>Node32&#45;&gt;Node26</title>
<g id="a_edge49_Node000032_Node000026"><a xlink:title=" ">
<path fill="none" stroke="#63b8ff" d="M1263.19,-227.56C1203.74,-222.93 1061.48,-210.24 933.27,-185.29"/>
<polygon fill="#63b8ff" stroke="#63b8ff" points="934.07,-181.88 923.58,-183.37 932.71,-188.75 934.07,-181.88"/>
</a>
</g>
</g>
<!-- Node32&#45;&gt;Node27 -->
<g id="edge46_Node000032_Node000027" class="edge">
<title>Node32&#45;&gt;Node27</title>
<g id="a_edge46_Node000032_Node000027"><a xlink:title=" ">
<path fill="none" stroke="#63b8ff" d="M1262.76,-228.42C1195.63,-225.21 1023.29,-214.75 870.91,-185.14"/>
<polygon fill="#63b8ff" stroke="#63b8ff" points="871.95,-181.78 861.46,-183.27 870.59,-188.64 871.95,-181.78"/>
</a>
</g>
</g>
<!-- Node32&#45;&gt;Node29 -->
<g id="edge47_Node000032_Node000029" class="edge">
<title>Node32&#45;&gt;Node29</title>
<g id="a_edge47_Node000032_Node000029"><a xlink:title=" ">
<path fill="none" stroke="#63b8ff" d="M1284.61,-220.85C1272.92,-206.65 1247.67,-178.87 1219.5,-165.75 1171.87,-143.56 1017.2,-129.04 949.14,-123.57"/>
<polygon fill="#63b8ff" stroke="#63b8ff" points="949.61,-120.09 939.37,-122.8 949.07,-127.07 949.61,-120.09"/>
</a>
</g>
</g>
<!-- Node32&#45;&gt;Node31 -->
<g id="edge43_Node000032_Node000031" class="edge">
<title>Node32&#45;&gt;Node31</title>
<g id="a_edge43_Node000032_Node000031"><a xlink:title=" ">
<path fill="none" stroke="#63b8ff" d="M1263.06,-226.02C1212.97,-219.5 1105.53,-204.78 1004.86,-185.32"/>
<polygon fill="#63b8ff" stroke="#63b8ff" points="1005.55,-181.89 995.06,-183.4 1004.2,-188.76 1005.55,-181.89"/>
</a>
</g>
</g>
<!-- Node33 -->
<g id="Node000033" class="node">
<title>Node33</title>
<g id="a_Node000033"><a xlink:title=" ">
<polygon fill="#e0e0e0" stroke="#999999" points="1941.38,-185 1891.62,-185 1891.62,-165.75 1941.38,-165.75 1941.38,-185"/>
<text text-anchor="middle" x="1916.5" y="-171.5" font-family="Helvetica,sans-Serif" font-size="10.00">iomanip</text>
</a>
</g>
</g>
<!-- Node32&#45;&gt;Node33 -->
<g id="edge44_Node000032_Node000033" class="edge">
<title>Node32&#45;&gt;Node33</title>
<g id="a_edge44_Node000032_Node000033"><a xlink:title=" ">
<path fill="none" stroke="#63b8ff" d="M1320,-229.22C1404.26,-227.65 1659.56,-220.25 1880.21,-185.08"/>
<polygon fill="#63b8ff" stroke="#63b8ff" points="1880.55,-188.57 1889.86,-183.51 1879.43,-181.66 1880.55,-188.57"/>
</a>
</g>
</g>
<!-- Node34 -->
<g id="Node000034" class="node">
<title>Node34</title>
<g id="a_Node000034"><a xlink:title=" ">
<polygon fill="#e0e0e0" stroke="#999999" points="1069.5,-185 1011.5,-185 1011.5,-165.75 1069.5,-165.75 1069.5,-185"/>
<text text-anchor="middle" x="1040.5" y="-171.5" font-family="Helvetica,sans-Serif" font-size="10.00">stdexcept</text>
</a>
</g>
</g>
<!-- Node32&#45;&gt;Node34 -->
<g id="edge45_Node000032_Node000034" class="edge">
<title>Node32&#45;&gt;Node34</title>
<g id="a_edge45_Node000032_Node000034"><a xlink:title=" ">
<path fill="none" stroke="#63b8ff" d="M1262.87,-223.79C1223.95,-215.81 1151.88,-200.93 1080.87,-185.49"/>
<polygon fill="#63b8ff" stroke="#63b8ff" points="1081.94,-182.14 1071.43,-183.43 1080.45,-188.98 1081.94,-182.14"/>
</a>
</g>
</g>
<!-- Node35 -->
<g id="Node000035" class="node">
<title>Node35</title>
<g id="a_Node000035"><a xlink:title=" ">
<polygon fill="#e0e0e0" stroke="#999999" points="1133.12,-185 1087.88,-185 1087.88,-165.75 1133.12,-165.75 1133.12,-185"/>
<text text-anchor="middle" x="1110.5" y="-171.5" font-family="Helvetica,sans-Serif" font-size="10.00">cstdint</text>
</a>
</g>
</g>
<!-- Node32&#45;&gt;Node35 -->
<g id="edge48_Node000032_Node000035" class="edge">
<title>Node32&#45;&gt;Node35</title>
<g id="a_edge48_Node000032_Node000035"><a xlink:title=" ">
<path fill="none" stroke="#63b8ff" d="M1262.82,-221.19C1230.67,-211.73 1178.58,-196.4 1144.43,-186.36"/>
<polygon fill="#63b8ff" stroke="#63b8ff" points="1145.62,-183.06 1135.04,-183.6 1143.65,-189.78 1145.62,-183.06"/>
</a>
</g>
</g>
<!-- Node36 -->
<g id="Node000036" class="node">
<title>Node36</title>
<g id="a_Node000036"><a xlink:title=" ">
<polygon fill="#e0e0e0" stroke="#999999" points="1210.25,-185 1150.75,-185 1150.75,-165.75 1210.25,-165.75 1210.25,-185"/>
<text text-anchor="middle" x="1180.5" y="-171.5" font-family="Helvetica,sans-Serif" font-size="10.00">execinfo.h</text>
</a>
</g>
</g>
<!-- Node32&#45;&gt;Node36 -->
<g id="edge50_Node000032_Node000036" class="edge">
<title>Node32&#45;&gt;Node36</title>
<g id="a_edge50_Node000032_Node000036"><a xlink:title=" ">
<path fill="none" stroke="#63b8ff" d="M1272.67,-220.59C1255.45,-212.33 1229.7,-199.98 1209.79,-190.43"/>
<polygon fill="#63b8ff" stroke="#63b8ff" points="1211.32,-187.28 1200.79,-186.11 1208.29,-193.59 1211.32,-187.28"/>
</a>
</g>
</g>
<!-- Node37 -->
<g id="Node000037" class="node">
<title>Node37</title>
<g id="a_Node000037"><a xlink:title=" ">
<polygon fill="#e0e0e0" stroke="#999999" points="1316.75,-185 1266.25,-185 1266.25,-165.75 1316.75,-165.75 1316.75,-185"/>
<text text-anchor="middle" x="1291.5" y="-171.5" font-family="Helvetica,sans-Serif" font-size="10.00">cxxabi.h</text>
</a>
</g>
</g>
<!-- Node32&#45;&gt;Node37 -->
<g id="edge51_Node000032_Node000037" class="edge">
<title>Node32&#45;&gt;Node37</title>
<g id="a_edge51_Node000032_Node000037"><a xlink:title=" ">
<path fill="none" stroke="#63b8ff" d="M1291.5,-220.83C1291.5,-214.32 1291.5,-205.17 1291.5,-196.87"/>
<polygon fill="#63b8ff" stroke="#63b8ff" points="1295,-196.87 1291.5,-186.87 1288,-196.87 1295,-196.87"/>
</a>
</g>
</g>
<!-- Node38 -->
<g id="Node000038" class="node">
<title>Node38</title>
<g id="a_Node000038"><a xlink:title=" ">
<polygon fill="#e0e0e0" stroke="#999999" points="1386.12,-185 1334.88,-185 1334.88,-165.75 1386.12,-165.75 1386.12,-185"/>
<text text-anchor="middle" x="1360.5" y="-171.5" font-family="Helvetica,sans-Serif" font-size="10.00">sstream</text>
</a>
</g>
</g>
<!-- Node32&#45;&gt;Node38 -->
<g id="edge52_Node000032_Node000038" class="edge">
<title>Node32&#45;&gt;Node38</title>
<g id="a_edge52_Node000032_Node000038"><a xlink:title=" ">
<path fill="none" stroke="#63b8ff" d="M1303.2,-220.59C1313.28,-212.82 1328.04,-201.42 1340.06,-192.15"/>
<polygon fill="#63b8ff" stroke="#63b8ff" points="1341.99,-195.08 1347.77,-186.2 1337.71,-189.54 1341.99,-195.08"/>
</a>
</g>
</g>
<!-- Node39 -->
<g id="Node000039" class="node">
<title>Node39</title>
<g id="a_Node000039"><a xlink:title=" ">
<polygon fill="#e0e0e0" stroke="#999999" points="1441,-185 1404,-185 1404,-165.75 1441,-165.75 1441,-185"/>
<text text-anchor="middle" x="1422.5" y="-171.5" font-family="Helvetica,sans-Serif" font-size="10.00">array</text>
</a>
</g>
</g>
<!-- Node32&#45;&gt;Node39 -->
<g id="edge53_Node000032_Node000039" class="edge">
<title>Node32&#45;&gt;Node39</title>
<g id="a_edge53_Node000032_Node000039"><a xlink:title=" ">
<path fill="none" stroke="#63b8ff" d="M1313.72,-220.59C1335.53,-211.73 1368.91,-198.16 1392.94,-188.39"/>
<polygon fill="#63b8ff" stroke="#63b8ff" points="1394.23,-191.65 1402.17,-184.64 1391.59,-185.16 1394.23,-191.65"/>
</a>
</g>
</g>
<!-- Node40 -->
<g id="Node000040" class="node">
<title>Node40</title>
<g id="a_Node000040"><a xlink:title=" ">
<polygon fill="#e0e0e0" stroke="#999999" points="1509.75,-185 1459.25,-185 1459.25,-165.75 1509.75,-165.75 1509.75,-185"/>
<text text-anchor="middle" x="1484.5" y="-171.5" font-family="Helvetica,sans-Serif" font-size="10.00">memory</text>
</a>
</g>
</g>
<!-- Node32&#45;&gt;Node40 -->
<g id="edge54_Node000032_Node000040" class="edge">
<title>Node32&#45;&gt;Node40</title>
<g id="a_edge54_Node000032_Node000040"><a xlink:title=" ">
<path fill="none" stroke="#63b8ff" d="M1319.98,-221.77C1354,-212.38 1410.96,-196.66 1448.14,-186.41"/>
<polygon fill="#63b8ff" stroke="#63b8ff" points="1448.82,-189.85 1457.53,-183.82 1446.96,-183.1 1448.82,-189.85"/>
</a>
</g>
</g>
<!-- Node41 -->
<g id="Node000041" class="node">
<title>Node41</title>
<g id="a_Node000041"><a xlink:title=" ">
<polygon fill="#e0e0e0" stroke="#999999" points="1577.38,-185 1527.62,-185 1527.62,-165.75 1577.38,-165.75 1577.38,-185"/>
<text text-anchor="middle" x="1552.5" y="-171.5" font-family="Helvetica,sans-Serif" font-size="10.00">unistd.h</text>
</a>
</g>
</g>
<!-- Node32&#45;&gt;Node41 -->
<g id="edge55_Node000032_Node000041" class="edge">
<title>Node32&#45;&gt;Node41</title>
<g id="a_edge55_Node000032_Node000041"><a xlink:title=" ">
<path fill="none" stroke="#63b8ff" d="M1319.92,-224.55C1361.07,-217.09 1439.88,-202.4 1516.49,-185.35"/>
<polygon fill="#63b8ff" stroke="#63b8ff" points="1516.82,-188.87 1525.81,-183.26 1515.29,-182.04 1516.82,-188.87"/>
</a>
</g>
</g>
<!-- Node42 -->
<g id="Node000042" class="node">
<title>Node42</title>
<g id="a_Node000042"><a xlink:title=" ">
<polygon fill="#e0e0e0" stroke="#999999" points="1644,-185 1595,-185 1595,-165.75 1644,-165.75 1644,-185"/>
<text text-anchor="middle" x="1619.5" y="-171.5" font-family="Helvetica,sans-Serif" font-size="10.00">fstream</text>
</a>
</g>
</g>
<!-- Node32&#45;&gt;Node42 -->
<g id="edge57_Node000032_Node000042" class="edge">
<title>Node32&#45;&gt;Node42</title>
<g id="a_edge57_Node000032_Node000042"><a xlink:title=" ">
<path fill="none" stroke="#63b8ff" d="M1320.15,-226.31C1371.22,-220.19 1481.48,-205.98 1583.58,-185.43"/>
<polygon fill="#63b8ff" stroke="#63b8ff" points="1584.12,-188.89 1593.22,-183.46 1582.72,-182.03 1584.12,-188.89"/>
</a>
</g>
</g>
<!-- Node43 -->
<g id="Node000043" class="node">
<title>Node43</title>
<g id="a_Node000043"><a xlink:title=" ">
<polygon fill="#e0e0e0" stroke="#999999" points="1717.38,-185 1661.62,-185 1661.62,-165.75 1717.38,-165.75 1717.38,-185"/>
<text text-anchor="middle" x="1689.5" y="-171.5" font-family="Helvetica,sans-Serif" font-size="10.00">algorithm</text>
</a>
</g>
</g>
<!-- Node32&#45;&gt;Node43 -->
<g id="edge58_Node000032_Node000043" class="edge">
<title>Node32&#45;&gt;Node43</title>
<g id="a_edge58_Node000032_Node000043"><a xlink:title=" ">
<path fill="none" stroke="#63b8ff" d="M1319.83,-227.23C1379.31,-221.96 1521.75,-208.12 1650.08,-185.46"/>
<polygon fill="#63b8ff" stroke="#63b8ff" points="1650.55,-188.93 1659.78,-183.72 1649.31,-182.04 1650.55,-188.93"/>
</a>
</g>
</g>
<!-- Node44 -->
<g id="Node000044" class="node">
<title>Node44</title>
<g id="a_Node000044"><a xlink:title=" ">
<polygon fill="#e0e0e0" stroke="#999999" points="1795.25,-185 1735.75,-185 1735.75,-165.75 1795.25,-165.75 1795.25,-185"/>
<text text-anchor="middle" x="1765.5" y="-171.5" font-family="Helvetica,sans-Serif" font-size="10.00">sys/wait.h</text>
</a>
</g>
</g>
<!-- Node32&#45;&gt;Node44 -->
<g id="edge59_Node000032_Node000044" class="edge">
<title>Node32&#45;&gt;Node44</title>
<g id="a_edge59_Node000032_Node000044"><a xlink:title=" ">
<path fill="none" stroke="#63b8ff" d="M1320.15,-227.83C1388.34,-223.33 1565.78,-210.18 1723.98,-185.22"/>
<polygon fill="#63b8ff" stroke="#63b8ff" points="1724.52,-188.68 1733.84,-183.65 1723.41,-181.77 1724.52,-188.68"/>
</a>
</g>
</g>
<!-- Node45 -->
<g id="Node000045" class="node">
<title>Node45</title>
<g id="a_Node000045"><a xlink:title=" ">
<polygon fill="#e0e0e0" stroke="#999999" points="1873.62,-185 1813.38,-185 1813.38,-165.75 1873.62,-165.75 1873.62,-185"/>
<text text-anchor="middle" x="1843.5" y="-171.5" font-family="Helvetica,sans-Serif" font-size="10.00">sys/prctl.h</text>
</a>
</g>
</g>
<!-- Node32&#45;&gt;Node45 -->
<g id="edge60_Node000032_Node000045" class="edge">
<title>Node32&#45;&gt;Node45</title>
<g id="a_edge60_Node000032_Node000045"><a xlink:title=" ">
<path fill="none" stroke="#63b8ff" d="M1320.02,-228.46C1396.47,-225.04 1612.48,-213.59 1801.64,-185.25"/>
<polygon fill="#63b8ff" stroke="#63b8ff" points="1802.06,-188.73 1811.42,-183.76 1801.01,-181.81 1802.06,-188.73"/>
</a>
</g>
</g>
</g>
</svg>
