<?xml version="1.0" encoding="UTF-8" standalone="no"?>
<!DOCTYPE svg PUBLIC "-//W3C//DTD SVG 1.1//EN"
 "http://www.w3.org/Graphics/SVG/1.1/DTD/svg11.dtd">
<!-- Generated by graphviz version 12.2.0 (20241103.1931)
 -->
<!-- Title: TFragment.cxx Pages: 1 -->
<svg width="1614pt" height="359pt"
 viewBox="0.00 0.00 1613.88 358.75" xmlns="http://www.w3.org/2000/svg" xmlns:xlink="http://www.w3.org/1999/xlink">
<g id="graph0" class="graph" transform="scale(1 1) rotate(0) translate(4 354.75)">
<title>TFragment.cxx</title>
<!-- Node1 -->
<g id="Node000001" class="node">
<title>Node1</title>
<g id="a_Node000001"><a xlink:title=" ">
<polygon fill="#999999" stroke="#666666" points="1310.62,-350.75 1230.88,-350.75 1230.88,-331.5 1310.62,-331.5 1310.62,-350.75"/>
<text text-anchor="middle" x="1270.75" y="-337.25" font-family="Helvetica,sans-Serif" font-size="10.00">TFragment.cxx</text>
</a>
</g>
</g>
<!-- Node2 -->
<g id="Node000002" class="node">
<title>Node2</title>
<g id="a_Node000002"><a xlink:href="_t_fragment_8h.html" target="_top" xlink:title=" ">
<polygon fill="white" stroke="#666666" points="558.12,-295.5 487.38,-295.5 487.38,-276.25 558.12,-276.25 558.12,-295.5"/>
<text text-anchor="middle" x="522.75" y="-282" font-family="Helvetica,sans-Serif" font-size="10.00">TFragment.h</text>
</a>
</g>
</g>
<!-- Node1&#45;&gt;Node2 -->
<g id="edge1_Node000001_Node000002" class="edge">
<title>Node1&#45;&gt;Node2</title>
<g id="a_edge1_Node000001_Node000002"><a xlink:title=" ">
<path fill="none" stroke="#63b8ff" d="M1230.53,-337.26C1102.71,-328.16 706.15,-299.93 569.55,-290.21"/>
<polygon fill="#63b8ff" stroke="#63b8ff" points="570.02,-286.73 559.79,-289.51 569.52,-293.71 570.02,-286.73"/>
</a>
</g>
</g>
<!-- Node6 -->
<g id="Node000006" class="node">
<title>Node6</title>
<g id="a_Node000006"><a xlink:href="_t_channel_8h.html" target="_top" xlink:title=" ">
<polygon fill="white" stroke="#666666" points="1126.12,-185 1061.38,-185 1061.38,-165.75 1126.12,-165.75 1126.12,-185"/>
<text text-anchor="middle" x="1093.75" y="-171.5" font-family="Helvetica,sans-Serif" font-size="10.00">TChannel.h</text>
</a>
</g>
</g>
<!-- Node1&#45;&gt;Node6 -->
<g id="edge65_Node000001_Node000006" class="edge">
<title>Node1&#45;&gt;Node6</title>
<g id="a_edge65_Node000001_Node000006"><a xlink:title=" ">
<path fill="none" stroke="#63b8ff" d="M1260.98,-331.09C1232.39,-304.63 1148.55,-227.07 1111.6,-192.88"/>
<polygon fill="#63b8ff" stroke="#63b8ff" points="1114.1,-190.43 1104.38,-186.21 1109.35,-195.57 1114.1,-190.43"/>
</a>
</g>
</g>
<!-- Node23 -->
<g id="Node000023" class="node">
<title>Node23</title>
<g id="a_Node000023"><a xlink:title=" ">
<polygon fill="#e0e0e0" stroke="#999999" points="53.5,-19.25 0,-19.25 0,0 53.5,0 53.5,-19.25"/>
<text text-anchor="middle" x="26.75" y="-5.75" font-family="Helvetica,sans-Serif" font-size="10.00">iostream</text>
</a>
</g>
</g>
<!-- Node1&#45;&gt;Node23 -->
<g id="edge67_Node000001_Node000023" class="edge">
<title>Node1&#45;&gt;Node23</title>
<g id="a_edge67_Node000001_Node000023"><a xlink:title=" ">
<path fill="none" stroke="#63b8ff" d="M1230.51,-338.83C1015.08,-331.61 7.75,-294.52 7.75,-231.62 7.75,-231.62 7.75,-231.62 7.75,-119.12 7.75,-87.79 15.53,-52.12 21.14,-30.5"/>
<polygon fill="#63b8ff" stroke="#63b8ff" points="24.47,-31.56 23.71,-21 17.72,-29.73 24.47,-31.56"/>
</a>
</g>
</g>
<!-- Node32 -->
<g id="Node000032" class="node">
<title>Node32</title>
<g id="a_Node000032"><a xlink:title=" ">
<polygon fill="#e0e0e0" stroke="#999999" points="1459.38,-19.25 1408.12,-19.25 1408.12,0 1459.38,0 1459.38,-19.25"/>
<text text-anchor="middle" x="1433.75" y="-5.75" font-family="Helvetica,sans-Serif" font-size="10.00">sstream</text>
</a>
</g>
</g>
<!-- Node1&#45;&gt;Node32 -->
<g id="edge68_Node000001_Node000032" class="edge">
<title>Node1&#45;&gt;Node32</title>
<g id="a_edge68_Node000001_Node000032"><a xlink:title=" ">
<path fill="none" stroke="#63b8ff" d="M1310.91,-333.73C1363.14,-322.87 1447.75,-295.42 1447.75,-231.62 1447.75,-231.62 1447.75,-231.62 1447.75,-119.12 1447.75,-88.01 1442.02,-52.28 1437.89,-30.59"/>
<polygon fill="#63b8ff" stroke="#63b8ff" points="1441.38,-30.19 1435.99,-21.06 1434.51,-31.55 1441.38,-30.19"/>
</a>
</g>
</g>
<!-- Node48 -->
<g id="Node000048" class="node">
<title>Node48</title>
<g id="a_Node000048"><a xlink:title=" ">
<polygon fill="#e0e0e0" stroke="#999999" points="1533.38,-295.5 1476.12,-295.5 1476.12,-276.25 1533.38,-276.25 1533.38,-295.5"/>
<text text-anchor="middle" x="1504.75" y="-282" font-family="Helvetica,sans-Serif" font-size="10.00">TROOT.h</text>
</a>
</g>
</g>
<!-- Node1&#45;&gt;Node48 -->
<g id="edge66_Node000001_Node000048" class="edge">
<title>Node1&#45;&gt;Node48</title>
<g id="a_edge66_Node000001_Node000048"><a xlink:title=" ">
<path fill="none" stroke="#63b8ff" d="M1310.71,-331.03C1353.64,-321.26 1421.47,-305.83 1464.5,-296.03"/>
<polygon fill="#63b8ff" stroke="#63b8ff" points="1465.23,-299.46 1474.2,-293.83 1463.67,-292.63 1465.23,-299.46"/>
</a>
</g>
</g>
<!-- Node49 -->
<g id="Node000049" class="node">
<title>Node49</title>
<g id="a_Node000049"><a xlink:title=" ">
<polygon fill="#e0e0e0" stroke="#999999" points="1605.88,-295.5 1551.62,-295.5 1551.62,-276.25 1605.88,-276.25 1605.88,-295.5"/>
<text text-anchor="middle" x="1578.75" y="-282" font-family="Helvetica,sans-Serif" font-size="10.00">TClass.h</text>
</a>
</g>
</g>
<!-- Node1&#45;&gt;Node49 -->
<g id="edge69_Node000001_Node000049" class="edge">
<title>Node1&#45;&gt;Node49</title>
<g id="a_edge69_Node000001_Node000049"><a xlink:title=" ">
<path fill="none" stroke="#63b8ff" d="M1311.01,-334.45C1362.07,-327.06 1453.04,-313.2 1540.13,-295.91"/>
<polygon fill="#63b8ff" stroke="#63b8ff" points="1540.68,-299.37 1549.79,-293.97 1539.3,-292.51 1540.68,-299.37"/>
</a>
</g>
</g>
<!-- Node3 -->
<g id="Node000003" class="node">
<title>Node3</title>
<g id="a_Node000003"><a xlink:href="_t_detector_hit_8h.html" target="_top" xlink:title=" ">
<polygon fill="white" stroke="#666666" points="634.25,-240.25 555.25,-240.25 555.25,-221 634.25,-221 634.25,-240.25"/>
<text text-anchor="middle" x="594.75" y="-226.75" font-family="Helvetica,sans-Serif" font-size="10.00">TDetectorHit.h</text>
</a>
</g>
</g>
<!-- Node2&#45;&gt;Node3 -->
<g id="edge2_Node000002_Node000003" class="edge">
<title>Node2&#45;&gt;Node3</title>
<g id="a_edge2_Node000002_Node000003"><a xlink:title=" ">
<path fill="none" stroke="#63b8ff" d="M534.96,-275.84C545.58,-267.99 561.19,-256.45 573.79,-247.12"/>
<polygon fill="#63b8ff" stroke="#63b8ff" points="575.54,-250.19 581.5,-241.42 571.38,-244.56 575.54,-250.19"/>
</a>
</g>
</g>
<!-- Node4 -->
<g id="Node000004" class="node">
<title>Node4</title>
<g id="a_Node000004"><a xlink:title=" ">
<polygon fill="#e0e0e0" stroke="#999999" points="173.25,-74.5 130.25,-74.5 130.25,-55.25 173.25,-55.25 173.25,-74.5"/>
<text text-anchor="middle" x="151.75" y="-61" font-family="Helvetica,sans-Serif" font-size="10.00">vector</text>
</a>
</g>
</g>
<!-- Node2&#45;&gt;Node4 -->
<g id="edge62_Node000002_Node000004" class="edge">
<title>Node2&#45;&gt;Node4</title>
<g id="a_edge62_Node000002_Node000004"><a xlink:title=" ">
<path fill="none" stroke="#63b8ff" d="M487.29,-280.05C425.75,-270.36 297.01,-244.17 205.75,-185 178.21,-167.14 169.59,-159.96 156.75,-129.75 150.94,-116.08 149.83,-99.3 150.1,-86.37"/>
<polygon fill="#63b8ff" stroke="#63b8ff" points="153.59,-86.66 150.62,-76.49 146.6,-86.29 153.59,-86.66"/>
</a>
</g>
</g>
<!-- Node19 -->
<g id="Node000019" class="node">
<title>Node19</title>
<g id="a_Node000019"><a xlink:title=" ">
<polygon fill="#e0e0e0" stroke="#999999" points="881.5,-185 828,-185 828,-165.75 881.5,-165.75 881.5,-185"/>
<text text-anchor="middle" x="854.75" y="-171.5" font-family="Helvetica,sans-Serif" font-size="10.00">Rtypes.h</text>
</a>
</g>
</g>
<!-- Node2&#45;&gt;Node19 -->
<g id="edge64_Node000002_Node000019" class="edge">
<title>Node2&#45;&gt;Node19</title>
<g id="a_edge64_Node000002_Node000019"><a xlink:title=" ">
<path fill="none" stroke="#63b8ff" d="M550.49,-275.81C609.98,-256.37 749.9,-210.64 817.25,-188.63"/>
<polygon fill="#63b8ff" stroke="#63b8ff" points="817.93,-192.09 826.35,-185.66 815.76,-185.44 817.93,-192.09"/>
</a>
</g>
</g>
<!-- Node21 -->
<g id="Node000021" class="node">
<title>Node21</title>
<g id="a_Node000021"><a xlink:href="_t_p_p_g_8h.html" target="_top" xlink:title=" ">
<polygon fill="white" stroke="#666666" points="548,-185 497.5,-185 497.5,-165.75 548,-165.75 548,-185"/>
<text text-anchor="middle" x="522.75" y="-171.5" font-family="Helvetica,sans-Serif" font-size="10.00">TPPG.h</text>
</a>
</g>
</g>
<!-- Node2&#45;&gt;Node21 -->
<g id="edge60_Node000002_Node000021" class="edge">
<title>Node2&#45;&gt;Node21</title>
<g id="a_edge60_Node000002_Node000021"><a xlink:title=" ">
<path fill="none" stroke="#63b8ff" d="M522.75,-276C522.75,-258.75 522.75,-220.33 522.75,-196.56"/>
<polygon fill="#63b8ff" stroke="#63b8ff" points="526.25,-196.89 522.75,-186.89 519.25,-196.89 526.25,-196.89"/>
</a>
</g>
</g>
<!-- Node2&#45;&gt;Node23 -->
<g id="edge61_Node000002_Node000023" class="edge">
<title>Node2&#45;&gt;Node23</title>
<g id="a_edge61_Node000002_Node000023"><a xlink:title=" ">
<path fill="none" stroke="#63b8ff" d="M487.2,-283.67C385.26,-279.9 97.15,-266.96 64.75,-240.25 41.9,-221.41 45.75,-205.99 45.75,-176.38 45.75,-176.38 45.75,-176.38 45.75,-119.12 45.75,-87.79 37.97,-52.12 32.36,-30.5"/>
<polygon fill="#63b8ff" stroke="#63b8ff" points="35.78,-29.73 29.79,-21 29.03,-31.56 35.78,-29.73"/>
</a>
</g>
</g>
<!-- Node47 -->
<g id="Node000047" class="node">
<title>Node47</title>
<g id="a_Node000047"><a xlink:title=" ">
<polygon fill="#e0e0e0" stroke="#999999" points="113.75,-240.25 73.75,-240.25 73.75,-221 113.75,-221 113.75,-240.25"/>
<text text-anchor="middle" x="93.75" y="-226.75" font-family="Helvetica,sans-Serif" font-size="10.00">ctime</text>
</a>
</g>
</g>
<!-- Node2&#45;&gt;Node47 -->
<g id="edge63_Node000002_Node000047" class="edge">
<title>Node2&#45;&gt;Node47</title>
<g id="a_edge63_Node000002_Node000047"><a xlink:title=" ">
<path fill="none" stroke="#63b8ff" d="M487.11,-282.48C417.57,-277.45 259.12,-264.22 127.75,-240.25 126.92,-240.1 126.08,-239.94 125.23,-239.77"/>
<polygon fill="#63b8ff" stroke="#63b8ff" points="126.15,-236.39 115.62,-237.61 124.61,-243.22 126.15,-236.39"/>
</a>
</g>
</g>
<!-- Node3&#45;&gt;Node4 -->
<g id="edge3_Node000003_Node000004" class="edge">
<title>Node3&#45;&gt;Node4</title>
<g id="a_edge3_Node000003_Node000004"><a xlink:title=" ">
<path fill="none" stroke="#63b8ff" d="M554.78,-229.84C490.31,-228.98 360.22,-222.26 257.75,-185 214.7,-169.35 198.36,-166.3 170.75,-129.75 161.13,-117.02 156.36,-99.47 154.01,-85.98"/>
<polygon fill="#63b8ff" stroke="#63b8ff" points="157.48,-85.51 152.62,-76.09 150.54,-86.48 157.48,-85.51"/>
</a>
</g>
</g>
<!-- Node5 -->
<g id="Node000005" class="node">
<title>Node5</title>
<g id="a_Node000005"><a xlink:title=" ">
<polygon fill="#e0e0e0" stroke="#999999" points="1070.38,-19.25 1025.12,-19.25 1025.12,0 1070.38,0 1070.38,-19.25"/>
<text text-anchor="middle" x="1047.75" y="-5.75" font-family="Helvetica,sans-Serif" font-size="10.00">cstdint</text>
</a>
</g>
</g>
<!-- Node3&#45;&gt;Node5 -->
<g id="edge4_Node000003_Node000005" class="edge">
<title>Node3&#45;&gt;Node5</title>
<g id="a_edge4_Node000003_Node000005"><a xlink:title=" ">
<path fill="none" stroke="#63b8ff" d="M621.68,-220.64C644.8,-212.52 678.73,-199.62 706.75,-185 760.08,-157.17 766.9,-139.23 819.75,-110.5 886.43,-74.26 968.92,-40.74 1014.15,-23.26"/>
<polygon fill="#63b8ff" stroke="#63b8ff" points="1015.32,-26.56 1023.4,-19.71 1012.81,-20.03 1015.32,-26.56"/>
</a>
</g>
</g>
<!-- Node3&#45;&gt;Node6 -->
<g id="edge5_Node000003_Node000006" class="edge">
<title>Node3&#45;&gt;Node6</title>
<g id="a_edge5_Node000003_Node000006"><a xlink:title=" ">
<path fill="none" stroke="#63b8ff" d="M634.74,-225.36C726.88,-215.53 953.53,-191.34 1049.58,-181.09"/>
<polygon fill="#63b8ff" stroke="#63b8ff" points="1049.83,-184.58 1059.4,-180.04 1049.08,-177.62 1049.83,-184.58"/>
</a>
</g>
</g>
<!-- Node17 -->
<g id="Node000017" class="node">
<title>Node17</title>
<g id="a_Node000017"><a xlink:title=" ">
<polygon fill="#e0e0e0" stroke="#999999" points="330.38,-185 267.12,-185 267.12,-165.75 330.38,-165.75 330.38,-185"/>
<text text-anchor="middle" x="298.75" y="-171.5" font-family="Helvetica,sans-Serif" font-size="10.00">TVector3.h</text>
</a>
</g>
</g>
<!-- Node3&#45;&gt;Node17 -->
<g id="edge19_Node000003_Node000017" class="edge">
<title>Node3&#45;&gt;Node17</title>
<g id="a_edge19_Node000003_Node000017"><a xlink:title=" ">
<path fill="none" stroke="#63b8ff" d="M554.75,-223.16C506.46,-215.24 422.52,-201.12 341.5,-185.48"/>
<polygon fill="#63b8ff" stroke="#63b8ff" points="342.57,-182.12 332.09,-183.65 341.24,-188.99 342.57,-182.12"/>
</a>
</g>
</g>
<!-- Node18 -->
<g id="Node000018" class="node">
<title>Node18</title>
<g id="a_Node000018"><a xlink:title=" ">
<polygon fill="#e0e0e0" stroke="#999999" points="795.75,-74.5 737.75,-74.5 737.75,-55.25 795.75,-55.25 795.75,-74.5"/>
<text text-anchor="middle" x="766.75" y="-61" font-family="Helvetica,sans-Serif" font-size="10.00">TObject.h</text>
</a>
</g>
</g>
<!-- Node3&#45;&gt;Node18 -->
<g id="edge20_Node000003_Node000018" class="edge">
<title>Node3&#45;&gt;Node18</title>
<g id="a_edge20_Node000003_Node000018"><a xlink:title=" ">
<path fill="none" stroke="#63b8ff" d="M615.94,-220.51C647.74,-205.83 707.79,-174.03 742.75,-129.75 752.87,-116.94 759.05,-99.41 762.6,-85.95"/>
<polygon fill="#63b8ff" stroke="#63b8ff" points="765.94,-87 764.81,-76.47 759.13,-85.41 765.94,-87"/>
</a>
</g>
</g>
<!-- Node3&#45;&gt;Node19 -->
<g id="edge21_Node000003_Node000019" class="edge">
<title>Node3&#45;&gt;Node19</title>
<g id="a_edge21_Node000003_Node000019"><a xlink:title=" ">
<path fill="none" stroke="#63b8ff" d="M634.73,-221.56C678.64,-212.68 751.25,-197.94 813.75,-185 814.75,-184.79 815.76,-184.58 816.78,-184.37"/>
<polygon fill="#63b8ff" stroke="#63b8ff" points="817.29,-187.84 826.37,-182.37 815.86,-180.99 817.29,-187.84"/>
</a>
</g>
</g>
<!-- Node20 -->
<g id="Node000020" class="node">
<title>Node20</title>
<g id="a_Node000020"><a xlink:title=" ">
<polygon fill="#e0e0e0" stroke="#999999" points="631.5,-185 566,-185 566,-165.75 631.5,-165.75 631.5,-185"/>
<text text-anchor="middle" x="598.75" y="-171.5" font-family="Helvetica,sans-Serif" font-size="10.00">TRandom.h</text>
</a>
</g>
</g>
<!-- Node3&#45;&gt;Node20 -->
<g id="edge22_Node000003_Node000020" class="edge">
<title>Node3&#45;&gt;Node20</title>
<g id="a_edge22_Node000003_Node000020"><a xlink:title=" ">
<path fill="none" stroke="#63b8ff" d="M595.41,-220.83C595.91,-214.24 596.6,-204.96 597.23,-196.57"/>
<polygon fill="#63b8ff" stroke="#63b8ff" points="600.7,-197.1 597.96,-186.87 593.72,-196.58 600.7,-197.1"/>
</a>
</g>
</g>
<!-- Node3&#45;&gt;Node21 -->
<g id="edge23_Node000003_Node000021" class="edge">
<title>Node3&#45;&gt;Node21</title>
<g id="a_edge23_Node000003_Node000021"><a xlink:title=" ">
<path fill="none" stroke="#63b8ff" d="M582.54,-220.59C571.92,-212.74 556.31,-201.2 543.71,-191.87"/>
<polygon fill="#63b8ff" stroke="#63b8ff" points="546.12,-189.31 536,-186.17 541.96,-194.94 546.12,-189.31"/>
</a>
</g>
</g>
<!-- Node45 -->
<g id="Node000045" class="node">
<title>Node45</title>
<g id="a_Node000045"><a xlink:href="_t_transient_bits_8h.html" target="_top" xlink:title=" ">
<polygon fill="white" stroke="#666666" points="435.38,-185 348.12,-185 348.12,-165.75 435.38,-165.75 435.38,-185"/>
<text text-anchor="middle" x="391.75" y="-171.5" font-family="Helvetica,sans-Serif" font-size="10.00">TTransientBits.h</text>
</a>
</g>
</g>
<!-- Node3&#45;&gt;Node45 -->
<g id="edge57_Node000003_Node000045" class="edge">
<title>Node3&#45;&gt;Node45</title>
<g id="a_edge57_Node000003_Node000045"><a xlink:title=" ">
<path fill="none" stroke="#63b8ff" d="M560.31,-220.59C526.48,-211.72 474.66,-198.12 437.41,-188.35"/>
<polygon fill="#63b8ff" stroke="#63b8ff" points="438.38,-184.99 427.82,-185.84 436.6,-191.76 438.38,-184.99"/>
</a>
</g>
</g>
<!-- Node7 -->
<g id="Node000007" class="node">
<title>Node7</title>
<g id="a_Node000007"><a xlink:title=" ">
<polygon fill="#e0e0e0" stroke="#999999" points="1375.75,-19.25 1335.75,-19.25 1335.75,0 1375.75,0 1375.75,-19.25"/>
<text text-anchor="middle" x="1355.75" y="-5.75" font-family="Helvetica,sans-Serif" font-size="10.00">string</text>
</a>
</g>
</g>
<!-- Node6&#45;&gt;Node7 -->
<g id="edge6_Node000006_Node000007" class="edge">
<title>Node6&#45;&gt;Node7</title>
<g id="a_edge6_Node000006_Node000007"><a xlink:title=" ">
<path fill="none" stroke="#63b8ff" d="M1126.59,-174.57C1196.61,-174.21 1356.94,-169.02 1390.75,-129.75 1415.95,-100.48 1388.72,-53.81 1370.11,-28.45"/>
<polygon fill="#63b8ff" stroke="#63b8ff" points="1373.08,-26.57 1364.22,-20.77 1367.53,-30.83 1373.08,-26.57"/>
</a>
</g>
</g>
<!-- Node8 -->
<g id="Node000008" class="node">
<title>Node8</title>
<g id="a_Node000008"><a xlink:title=" ">
<polygon fill="#e0e0e0" stroke="#999999" points="871.25,-129.75 828.25,-129.75 828.25,-110.5 871.25,-110.5 871.25,-129.75"/>
<text text-anchor="middle" x="849.75" y="-116.25" font-family="Helvetica,sans-Serif" font-size="10.00">cmath</text>
</a>
</g>
</g>
<!-- Node6&#45;&gt;Node8 -->
<g id="edge7_Node000006_Node000008" class="edge">
<title>Node6&#45;&gt;Node8</title>
<g id="a_edge7_Node000006_Node000008"><a xlink:title=" ">
<path fill="none" stroke="#63b8ff" d="M1061.13,-168.22C1021.33,-160.57 951.78,-146.72 882.78,-130.12"/>
<polygon fill="#63b8ff" stroke="#63b8ff" points="883.73,-126.74 873.19,-127.78 882.08,-133.55 883.73,-126.74"/>
</a>
</g>
</g>
<!-- Node9 -->
<g id="Node000009" class="node">
<title>Node9</title>
<g id="a_Node000009"><a xlink:title=" ">
<polygon fill="#e0e0e0" stroke="#999999" points="734,-129.75 695.5,-129.75 695.5,-110.5 734,-110.5 734,-129.75"/>
<text text-anchor="middle" x="714.75" y="-116.25" font-family="Helvetica,sans-Serif" font-size="10.00">utility</text>
</a>
</g>
</g>
<!-- Node6&#45;&gt;Node9 -->
<g id="edge8_Node000006_Node000009" class="edge">
<title>Node6&#45;&gt;Node9</title>
<g id="a_edge8_Node000006_Node000009"><a xlink:title=" ">
<path fill="none" stroke="#63b8ff" d="M1061.11,-169.79C988.8,-159.63 815.97,-135.35 745.48,-125.44"/>
<polygon fill="#63b8ff" stroke="#63b8ff" points="746.2,-122.01 735.81,-124.08 745.22,-128.94 746.2,-122.01"/>
</a>
</g>
</g>
<!-- Node10 -->
<g id="Node000010" class="node">
<title>Node10</title>
<g id="a_Node000010"><a xlink:title=" ">
<polygon fill="#e0e0e0" stroke="#999999" points="972.12,-129.75 889.38,-129.75 889.38,-110.5 972.12,-110.5 972.12,-129.75"/>
<text text-anchor="middle" x="930.75" y="-116.25" font-family="Helvetica,sans-Serif" font-size="10.00">unordered_map</text>
</a>
</g>
</g>
<!-- Node6&#45;&gt;Node10 -->
<g id="edge9_Node000006_Node000010" class="edge">
<title>Node6&#45;&gt;Node10</title>
<g id="a_edge9_Node000006_Node000010"><a xlink:title=" ">
<path fill="none" stroke="#63b8ff" d="M1066.1,-165.34C1039.52,-156.66 999.11,-143.46 969.36,-133.74"/>
<polygon fill="#63b8ff" stroke="#63b8ff" points="970.57,-130.45 959.98,-130.67 968.39,-137.1 970.57,-130.45"/>
</a>
</g>
</g>
<!-- Node11 -->
<g id="Node000011" class="node">
<title>Node11</title>
<g id="a_Node000011"><a xlink:title=" ">
<polygon fill="#e0e0e0" stroke="#999999" points="1051.25,-129.75 990.25,-129.75 990.25,-110.5 1051.25,-110.5 1051.25,-129.75"/>
<text text-anchor="middle" x="1020.75" y="-116.25" font-family="Helvetica,sans-Serif" font-size="10.00">TNamed.h</text>
</a>
</g>
</g>
<!-- Node6&#45;&gt;Node11 -->
<g id="edge10_Node000006_Node000011" class="edge">
<title>Node6&#45;&gt;Node11</title>
<g id="a_edge10_Node000006_Node000011"><a xlink:title=" ">
<path fill="none" stroke="#63b8ff" d="M1081.37,-165.34C1070.6,-157.49 1054.78,-145.95 1042,-136.62"/>
<polygon fill="#63b8ff" stroke="#63b8ff" points="1044.31,-133.98 1034.17,-130.92 1040.19,-139.64 1044.31,-133.98"/>
</a>
</g>
</g>
<!-- Node12 -->
<g id="Node000012" class="node">
<title>Node12</title>
<g id="a_Node000012"><a xlink:title=" ">
<polygon fill="#e0e0e0" stroke="#999999" points="1118.25,-129.75 1069.25,-129.75 1069.25,-110.5 1118.25,-110.5 1118.25,-129.75"/>
<text text-anchor="middle" x="1093.75" y="-116.25" font-family="Helvetica,sans-Serif" font-size="10.00">TTree.h</text>
</a>
</g>
</g>
<!-- Node6&#45;&gt;Node12 -->
<g id="edge11_Node000006_Node000012" class="edge">
<title>Node6&#45;&gt;Node12</title>
<g id="a_edge11_Node000006_Node000012"><a xlink:title=" ">
<path fill="none" stroke="#63b8ff" d="M1093.75,-165.58C1093.75,-159.07 1093.75,-149.92 1093.75,-141.62"/>
<polygon fill="#63b8ff" stroke="#63b8ff" points="1097.25,-141.62 1093.75,-131.62 1090.25,-141.62 1097.25,-141.62"/>
</a>
</g>
</g>
<!-- Node13 -->
<g id="Node000013" class="node">
<title>Node13</title>
<g id="a_Node000013"><a xlink:title=" ">
<polygon fill="#e0e0e0" stroke="#999999" points="1191.62,-129.75 1135.88,-129.75 1135.88,-110.5 1191.62,-110.5 1191.62,-129.75"/>
<text text-anchor="middle" x="1163.75" y="-116.25" font-family="Helvetica,sans-Serif" font-size="10.00">TGraph.h</text>
</a>
</g>
</g>
<!-- Node6&#45;&gt;Node13 -->
<g id="edge12_Node000006_Node000013" class="edge">
<title>Node6&#45;&gt;Node13</title>
<g id="a_edge12_Node000006_Node000013"><a xlink:title=" ">
<path fill="none" stroke="#63b8ff" d="M1105.62,-165.34C1115.84,-157.57 1130.82,-146.17 1143.01,-136.9"/>
<polygon fill="#63b8ff" stroke="#63b8ff" points="1145.01,-139.78 1150.85,-130.94 1140.77,-134.21 1145.01,-139.78"/>
</a>
</g>
</g>
<!-- Node14 -->
<g id="Node000014" class="node">
<title>Node14</title>
<g id="a_Node000014"><a xlink:title=" ">
<polygon fill="#e0e0e0" stroke="#999999" points="1279.38,-129.75 1210.12,-129.75 1210.12,-110.5 1279.38,-110.5 1279.38,-129.75"/>
<text text-anchor="middle" x="1244.75" y="-116.25" font-family="Helvetica,sans-Serif" font-size="10.00">TClassRef.h</text>
</a>
</g>
</g>
<!-- Node6&#45;&gt;Node14 -->
<g id="edge13_Node000006_Node000014" class="edge">
<title>Node6&#45;&gt;Node14</title>
<g id="a_edge13_Node000006_Node000014"><a xlink:title=" ">
<path fill="none" stroke="#63b8ff" d="M1119.37,-165.34C1143.77,-156.74 1180.76,-143.69 1208.25,-134"/>
<polygon fill="#63b8ff" stroke="#63b8ff" points="1209.32,-137.33 1217.58,-130.71 1206.99,-130.73 1209.32,-137.33"/>
</a>
</g>
</g>
<!-- Node15 -->
<g id="Node000015" class="node">
<title>Node15</title>
<g id="a_Node000015"><a xlink:href="_t_priority_value_8h.html" target="_top" xlink:title=" ">
<polygon fill="white" stroke="#666666" points="1381.88,-129.75 1297.62,-129.75 1297.62,-110.5 1381.88,-110.5 1381.88,-129.75"/>
<text text-anchor="middle" x="1339.75" y="-116.25" font-family="Helvetica,sans-Serif" font-size="10.00">TPriorityValue.h</text>
</a>
</g>
</g>
<!-- Node6&#45;&gt;Node15 -->
<g id="edge14_Node000006_Node000015" class="edge">
<title>Node6&#45;&gt;Node15</title>
<g id="a_edge14_Node000006_Node000015"><a xlink:title=" ">
<path fill="none" stroke="#63b8ff" d="M1126.42,-167.3C1167.4,-158.43 1238.2,-143.11 1286.93,-132.56"/>
<polygon fill="#63b8ff" stroke="#63b8ff" points="1287.37,-136.04 1296.41,-130.51 1285.89,-129.2 1287.37,-136.04"/>
</a>
</g>
</g>
<!-- Node15&#45;&gt;Node4 -->
<g id="edge17_Node000015_Node000004" class="edge">
<title>Node15&#45;&gt;Node4</title>
<g id="a_edge17_Node000015_Node000004"><a xlink:title=" ">
<path fill="none" stroke="#63b8ff" d="M1297.23,-111.51C1294.37,-111.13 1291.52,-110.79 1288.75,-110.5 1274.65,-109.04 371.32,-74.31 185.1,-67.15"/>
<polygon fill="#63b8ff" stroke="#63b8ff" points="185.29,-63.66 175.17,-66.77 185.02,-70.65 185.29,-63.66"/>
</a>
</g>
</g>
<!-- Node15&#45;&gt;Node5 -->
<g id="edge18_Node000015_Node000005" class="edge">
<title>Node15&#45;&gt;Node5</title>
<g id="a_edge18_Node000015_Node000005"><a xlink:title=" ">
<path fill="none" stroke="#63b8ff" d="M1315.36,-110.06C1263.2,-90.68 1140.78,-45.19 1081.33,-23.1"/>
<polygon fill="#63b8ff" stroke="#63b8ff" points="1082.67,-19.87 1072.07,-19.66 1080.23,-26.43 1082.67,-19.87"/>
</a>
</g>
</g>
<!-- Node15&#45;&gt;Node7 -->
<g id="edge16_Node000015_Node000007" class="edge">
<title>Node15&#45;&gt;Node7</title>
<g id="a_edge16_Node000015_Node000007"><a xlink:title=" ">
<path fill="none" stroke="#63b8ff" d="M1341.06,-110.25C1343.6,-93 1349.27,-54.58 1352.77,-30.81"/>
<polygon fill="#63b8ff" stroke="#63b8ff" points="1356.21,-31.53 1354.2,-21.12 1349.28,-30.51 1356.21,-31.53"/>
</a>
</g>
</g>
<!-- Node16 -->
<g id="Node000016" class="node">
<title>Node16</title>
<g id="a_Node000016"><a xlink:title=" ">
<polygon fill="#e0e0e0" stroke="#999999" points="1327.38,-74.5 1276.12,-74.5 1276.12,-55.25 1327.38,-55.25 1327.38,-74.5"/>
<text text-anchor="middle" x="1301.75" y="-61" font-family="Helvetica,sans-Serif" font-size="10.00">ostream</text>
</a>
</g>
</g>
<!-- Node15&#45;&gt;Node16 -->
<g id="edge15_Node000015_Node000016" class="edge">
<title>Node15&#45;&gt;Node16</title>
<g id="a_edge15_Node000015_Node000016"><a xlink:title=" ">
<path fill="none" stroke="#63b8ff" d="M1333.48,-110.33C1328.39,-103.21 1321.05,-92.93 1314.72,-84.05"/>
<polygon fill="#63b8ff" stroke="#63b8ff" points="1317.7,-82.2 1309.04,-76.09 1312,-86.26 1317.7,-82.2"/>
</a>
</g>
</g>
<!-- Node21&#45;&gt;Node5 -->
<g id="edge27_Node000021_Node000005" class="edge">
<title>Node21&#45;&gt;Node5</title>
<g id="a_edge27_Node000021_Node000005"><a xlink:title=" ">
<path fill="none" stroke="#63b8ff" d="M548.46,-166.17C573.96,-157.79 614.01,-144.04 647.75,-129.75 665.55,-122.21 668.78,-117.62 686.75,-110.5 737.72,-90.3 753.41,-93.74 804.75,-74.5 824.36,-67.15 827.85,-61.76 847.75,-55.25 917.07,-32.58 939.52,-36.74 1013.87,-19.56"/>
<polygon fill="#63b8ff" stroke="#63b8ff" points="1014.32,-23.05 1023.24,-17.34 1012.7,-16.24 1014.32,-23.05"/>
</a>
</g>
</g>
<!-- Node21&#45;&gt;Node9 -->
<g id="edge25_Node000021_Node000009" class="edge">
<title>Node21&#45;&gt;Node9</title>
<g id="a_edge25_Node000021_Node000009"><a xlink:title=" ">
<path fill="none" stroke="#63b8ff" d="M548.25,-167.3C583.47,-157.54 646.91,-139.94 684.49,-129.52"/>
<polygon fill="#63b8ff" stroke="#63b8ff" points="685.1,-132.98 693.8,-126.93 683.23,-126.23 685.1,-132.98"/>
</a>
</g>
</g>
<!-- Node21&#45;&gt;Node18 -->
<g id="edge28_Node000021_Node000018" class="edge">
<title>Node21&#45;&gt;Node18</title>
<g id="a_edge28_Node000021_Node000018"><a xlink:title=" ">
<path fill="none" stroke="#63b8ff" d="M540.34,-165.26C565.3,-152.44 612.53,-128.65 653.75,-110.5 679.51,-99.15 709.12,-87.51 731.57,-78.96"/>
<polygon fill="#63b8ff" stroke="#63b8ff" points="732.75,-82.26 740.86,-75.45 730.27,-75.71 732.75,-82.26"/>
</a>
</g>
</g>
<!-- Node22 -->
<g id="Node000022" class="node">
<title>Node22</title>
<g id="a_Node000022"><a xlink:title=" ">
<polygon fill="#e0e0e0" stroke="#999999" points="106.12,-19.25 71.38,-19.25 71.38,0 106.12,0 106.12,-19.25"/>
<text text-anchor="middle" x="88.75" y="-5.75" font-family="Helvetica,sans-Serif" font-size="10.00">map</text>
</a>
</g>
</g>
<!-- Node21&#45;&gt;Node22 -->
<g id="edge24_Node000021_Node000022" class="edge">
<title>Node21&#45;&gt;Node22</title>
<g id="a_edge24_Node000021_Node000022"><a xlink:title=" ">
<path fill="none" stroke="#63b8ff" d="M498.94,-165.41C477.36,-157.02 444.88,-143.7 417.75,-129.75 361.25,-100.69 354.92,-78.39 295.75,-55.25 223.03,-26.81 196.98,-38.56 117.43,-19.35"/>
<polygon fill="#63b8ff" stroke="#63b8ff" points="118.41,-15.99 107.85,-16.94 116.7,-22.78 118.41,-15.99"/>
</a>
</g>
</g>
<!-- Node21&#45;&gt;Node23 -->
<g id="edge26_Node000021_Node000023" class="edge">
<title>Node21&#45;&gt;Node23</title>
<g id="a_edge26_Node000021_Node000023"><a xlink:title=" ">
<path fill="none" stroke="#63b8ff" d="M497.24,-167.25C468.77,-159.07 421.47,-144.84 381.75,-129.75 305.78,-100.89 291.74,-81.28 214.75,-55.25 152.32,-34.14 132.31,-35.16 65.08,-19.75"/>
<polygon fill="#63b8ff" stroke="#63b8ff" points="65.88,-16.35 55.35,-17.48 64.29,-23.16 65.88,-16.35"/>
</a>
</g>
</g>
<!-- Node24 -->
<g id="Node000024" class="node">
<title>Node24</title>
<g id="a_Node000024"><a xlink:title=" ">
<polygon fill="#e0e0e0" stroke="#999999" points="601.88,-129.75 529.62,-129.75 529.62,-110.5 601.88,-110.5 601.88,-129.75"/>
<text text-anchor="middle" x="565.75" y="-116.25" font-family="Helvetica,sans-Serif" font-size="10.00">TCollection.h</text>
</a>
</g>
</g>
<!-- Node21&#45;&gt;Node24 -->
<g id="edge29_Node000021_Node000024" class="edge">
<title>Node21&#45;&gt;Node24</title>
<g id="a_edge29_Node000021_Node000024"><a xlink:title=" ">
<path fill="none" stroke="#63b8ff" d="M529.85,-165.58C535.67,-158.38 544.08,-147.96 551.31,-139.01"/>
<polygon fill="#63b8ff" stroke="#63b8ff" points="553.98,-141.27 557.54,-131.29 548.54,-136.87 553.98,-141.27"/>
</a>
</g>
</g>
<!-- Node25 -->
<g id="Node000025" class="node">
<title>Node25</title>
<g id="a_Node000025"><a xlink:href="_globals_8h.html" target="_top" xlink:title=" ">
<polygon fill="white" stroke="#666666" points="442,-74.5 385.5,-74.5 385.5,-55.25 442,-55.25 442,-74.5"/>
<text text-anchor="middle" x="413.75" y="-61" font-family="Helvetica,sans-Serif" font-size="10.00">Globals.h</text>
</a>
</g>
</g>
<!-- Node21&#45;&gt;Node25 -->
<g id="edge30_Node000021_Node000025" class="edge">
<title>Node21&#45;&gt;Node25</title>
<g id="a_edge30_Node000021_Node000025"><a xlink:title=" ">
<path fill="none" stroke="#63b8ff" d="M497.09,-167.79C476.86,-161.32 449.37,-149.5 432.75,-129.75 422.37,-117.42 417.66,-99.59 415.52,-85.9"/>
<polygon fill="#63b8ff" stroke="#63b8ff" points="419.03,-85.78 414.37,-76.27 412.08,-86.61 419.03,-85.78"/>
</a>
</g>
</g>
<!-- Node40 -->
<g id="Node000040" class="node">
<title>Node40</title>
<g id="a_Node000040"><a xlink:href="_t_singleton_8h.html" target="_top" xlink:title=" ">
<polygon fill="white" stroke="#666666" points="511.75,-129.75 441.75,-129.75 441.75,-110.5 511.75,-110.5 511.75,-129.75"/>
<text text-anchor="middle" x="476.75" y="-116.25" font-family="Helvetica,sans-Serif" font-size="10.00">TSingleton.h</text>
</a>
</g>
</g>
<!-- Node21&#45;&gt;Node40 -->
<g id="edge49_Node000021_Node000040" class="edge">
<title>Node21&#45;&gt;Node40</title>
<g id="a_edge49_Node000021_Node000040"><a xlink:title=" ">
<path fill="none" stroke="#63b8ff" d="M515.15,-165.58C508.87,-158.3 499.74,-147.73 491.95,-138.73"/>
<polygon fill="#63b8ff" stroke="#63b8ff" points="494.69,-136.53 485.5,-131.25 489.39,-141.11 494.69,-136.53"/>
</a>
</g>
</g>
<!-- Node25&#45;&gt;Node5 -->
<g id="edge36_Node000025_Node000005" class="edge">
<title>Node25&#45;&gt;Node5</title>
<g id="a_edge36_Node000025_Node000005"><a xlink:title=" ">
<path fill="none" stroke="#63b8ff" d="M442.34,-56.72C445.17,-56.16 448.01,-55.65 450.75,-55.25 696.03,-19.1 765.46,-58.99 1013.61,-19.23"/>
<polygon fill="#63b8ff" stroke="#63b8ff" points="1014,-22.71 1023.3,-17.64 1012.87,-15.8 1014,-22.71"/>
</a>
</g>
</g>
<!-- Node25&#45;&gt;Node7 -->
<g id="edge34_Node000025_Node000007" class="edge">
<title>Node25&#45;&gt;Node7</title>
<g id="a_edge34_Node000025_Node000007"><a xlink:title=" ">
<path fill="none" stroke="#63b8ff" d="M442.34,-56.68C445.17,-56.12 448.01,-55.63 450.75,-55.25 538.63,-42.94 1174.66,-17.66 1324.29,-11.84"/>
<polygon fill="#63b8ff" stroke="#63b8ff" points="1323.99,-15.35 1333.84,-11.47 1323.72,-8.36 1323.99,-15.35"/>
</a>
</g>
</g>
<!-- Node25&#45;&gt;Node22 -->
<g id="edge44_Node000025_Node000022" class="edge">
<title>Node25&#45;&gt;Node22</title>
<g id="a_edge44_Node000025_Node000022"><a xlink:title=" ">
<path fill="none" stroke="#63b8ff" d="M385.33,-57.79C380.8,-56.89 376.15,-56.01 371.75,-55.25 262.07,-36.3 229.77,-44.28 117.47,-19.25"/>
<polygon fill="#63b8ff" stroke="#63b8ff" points="118.35,-15.86 107.83,-17.05 116.8,-22.68 118.35,-15.86"/>
</a>
</g>
</g>
<!-- Node25&#45;&gt;Node23 -->
<g id="edge31_Node000025_Node000023" class="edge">
<title>Node25&#45;&gt;Node23</title>
<g id="a_edge31_Node000025_Node000023"><a xlink:title=" ">
<path fill="none" stroke="#63b8ff" d="M385.15,-60.65C316.49,-52.83 142.87,-32.69 65.01,-19.43"/>
<polygon fill="#63b8ff" stroke="#63b8ff" points="65.76,-16 55.3,-17.71 64.54,-22.9 65.76,-16"/>
</a>
</g>
</g>
<!-- Node26 -->
<g id="Node000026" class="node">
<title>Node26</title>
<g id="a_Node000026"><a xlink:title=" ">
<polygon fill="#e0e0e0" stroke="#999999" points="870.62,-19.25 820.88,-19.25 820.88,0 870.62,0 870.62,-19.25"/>
<text text-anchor="middle" x="845.75" y="-5.75" font-family="Helvetica,sans-Serif" font-size="10.00">iomanip</text>
</a>
</g>
</g>
<!-- Node25&#45;&gt;Node26 -->
<g id="edge32_Node000025_Node000026" class="edge">
<title>Node25&#45;&gt;Node26</title>
<g id="a_edge32_Node000025_Node000026"><a xlink:title=" ">
<path fill="none" stroke="#63b8ff" d="M442.36,-56.82C445.18,-56.24 448.02,-55.7 450.75,-55.25 606.25,-29.48 650.95,-46.35 809.48,-19.38"/>
<polygon fill="#63b8ff" stroke="#63b8ff" points="809.84,-22.87 819.1,-17.71 808.65,-15.97 809.84,-22.87"/>
</a>
</g>
</g>
<!-- Node27 -->
<g id="Node000027" class="node">
<title>Node27</title>
<g id="a_Node000027"><a xlink:title=" ">
<polygon fill="#e0e0e0" stroke="#999999" points="946.75,-19.25 888.75,-19.25 888.75,0 946.75,0 946.75,-19.25"/>
<text text-anchor="middle" x="917.75" y="-5.75" font-family="Helvetica,sans-Serif" font-size="10.00">stdexcept</text>
</a>
</g>
</g>
<!-- Node25&#45;&gt;Node27 -->
<g id="edge33_Node000025_Node000027" class="edge">
<title>Node25&#45;&gt;Node27</title>
<g id="a_edge33_Node000025_Node000027"><a xlink:title=" ">
<path fill="none" stroke="#63b8ff" d="M442.35,-56.77C445.18,-56.2 448.01,-55.68 450.75,-55.25 636.15,-26.02 688.67,-47.64 877.23,-19.42"/>
<polygon fill="#63b8ff" stroke="#63b8ff" points="877.52,-22.92 886.87,-17.95 876.46,-16 877.52,-22.92"/>
</a>
</g>
</g>
<!-- Node28 -->
<g id="Node000028" class="node">
<title>Node28</title>
<g id="a_Node000028"><a xlink:title=" ">
<polygon fill="#e0e0e0" stroke="#999999" points="1006.88,-19.25 964.62,-19.25 964.62,0 1006.88,0 1006.88,-19.25"/>
<text text-anchor="middle" x="985.75" y="-5.75" font-family="Helvetica,sans-Serif" font-size="10.00">cstdio</text>
</a>
</g>
</g>
<!-- Node25&#45;&gt;Node28 -->
<g id="edge35_Node000025_Node000028" class="edge">
<title>Node25&#45;&gt;Node28</title>
<g id="a_edge35_Node000025_Node000028"><a xlink:title=" ">
<path fill="none" stroke="#63b8ff" d="M442.35,-56.74C445.17,-56.17 448.01,-55.66 450.75,-55.25 669.54,-22.16 732.13,-57.34 952.93,-19.38"/>
<polygon fill="#63b8ff" stroke="#63b8ff" points="953.51,-22.83 962.76,-17.65 952.3,-15.93 953.51,-22.83"/>
</a>
</g>
</g>
<!-- Node29 -->
<g id="Node000029" class="node">
<title>Node29</title>
<g id="a_Node000029"><a xlink:title=" ">
<polygon fill="#e0e0e0" stroke="#999999" points="169,-19.25 124.5,-19.25 124.5,0 169,0 169,-19.25"/>
<text text-anchor="middle" x="146.75" y="-5.75" font-family="Helvetica,sans-Serif" font-size="10.00">cstdlib</text>
</a>
</g>
</g>
<!-- Node25&#45;&gt;Node29 -->
<g id="edge37_Node000025_Node000029" class="edge">
<title>Node25&#45;&gt;Node29</title>
<g id="a_edge37_Node000025_Node000029"><a xlink:title=" ">
<path fill="none" stroke="#63b8ff" d="M385.3,-57.96C380.77,-57.04 376.13,-56.11 371.75,-55.25 289.21,-39.12 265.14,-39 180.57,-19.75"/>
<polygon fill="#63b8ff" stroke="#63b8ff" points="181.38,-16.34 170.85,-17.51 179.81,-23.16 181.38,-16.34"/>
</a>
</g>
</g>
<!-- Node30 -->
<g id="Node000030" class="node">
<title>Node30</title>
<g id="a_Node000030"><a xlink:title=" ">
<polygon fill="#e0e0e0" stroke="#999999" points="246.5,-19.25 187,-19.25 187,0 246.5,0 246.5,-19.25"/>
<text text-anchor="middle" x="216.75" y="-5.75" font-family="Helvetica,sans-Serif" font-size="10.00">execinfo.h</text>
</a>
</g>
</g>
<!-- Node25&#45;&gt;Node30 -->
<g id="edge38_Node000025_Node000030" class="edge">
<title>Node25&#45;&gt;Node30</title>
<g id="a_edge38_Node000025_Node000030"><a xlink:title=" ">
<path fill="none" stroke="#63b8ff" d="M385.1,-56.13C351.5,-47.05 295.54,-31.92 257.44,-21.62"/>
<polygon fill="#63b8ff" stroke="#63b8ff" points="258.75,-18.35 248.18,-19.12 256.92,-25.11 258.75,-18.35"/>
</a>
</g>
</g>
<!-- Node31 -->
<g id="Node000031" class="node">
<title>Node31</title>
<g id="a_Node000031"><a xlink:title=" ">
<polygon fill="#e0e0e0" stroke="#999999" points="315,-19.25 264.5,-19.25 264.5,0 315,0 315,-19.25"/>
<text text-anchor="middle" x="289.75" y="-5.75" font-family="Helvetica,sans-Serif" font-size="10.00">cxxabi.h</text>
</a>
</g>
</g>
<!-- Node25&#45;&gt;Node31 -->
<g id="edge39_Node000025_Node000031" class="edge">
<title>Node25&#45;&gt;Node31</title>
<g id="a_edge39_Node000025_Node000031"><a xlink:title=" ">
<path fill="none" stroke="#63b8ff" d="M392.72,-54.84C373.12,-46.43 343.64,-33.77 321.24,-24.15"/>
<polygon fill="#63b8ff" stroke="#63b8ff" points="322.85,-21.03 312.28,-20.3 320.09,-27.46 322.85,-21.03"/>
</a>
</g>
</g>
<!-- Node25&#45;&gt;Node32 -->
<g id="edge40_Node000025_Node000032" class="edge">
<title>Node25&#45;&gt;Node32</title>
<g id="a_edge40_Node000025_Node000032"><a xlink:title=" ">
<path fill="none" stroke="#63b8ff" d="M442.33,-56.64C445.16,-56.1 448,-55.62 450.75,-55.25 862.46,0.16 971.68,-63.36 1384.75,-19.25 1388.6,-18.84 1392.61,-18.31 1396.6,-17.71"/>
<polygon fill="#63b8ff" stroke="#63b8ff" points="1396.86,-21.21 1406.16,-16.14 1395.72,-14.31 1396.86,-21.21"/>
</a>
</g>
</g>
<!-- Node33 -->
<g id="Node000033" class="node">
<title>Node33</title>
<g id="a_Node000033"><a xlink:title=" ">
<polygon fill="#e0e0e0" stroke="#999999" points="370.25,-19.25 333.25,-19.25 333.25,0 370.25,0 370.25,-19.25"/>
<text text-anchor="middle" x="351.75" y="-5.75" font-family="Helvetica,sans-Serif" font-size="10.00">array</text>
</a>
</g>
</g>
<!-- Node25&#45;&gt;Node33 -->
<g id="edge41_Node000025_Node000033" class="edge">
<title>Node25&#45;&gt;Node33</title>
<g id="a_edge41_Node000025_Node000033"><a xlink:title=" ">
<path fill="none" stroke="#63b8ff" d="M403.23,-54.84C394.36,-47.22 381.44,-36.12 370.76,-26.95"/>
<polygon fill="#63b8ff" stroke="#63b8ff" points="373.13,-24.37 363.26,-20.51 368.57,-29.68 373.13,-24.37"/>
</a>
</g>
</g>
<!-- Node34 -->
<g id="Node000034" class="node">
<title>Node34</title>
<g id="a_Node000034"><a xlink:title=" ">
<polygon fill="#e0e0e0" stroke="#999999" points="439,-19.25 388.5,-19.25 388.5,0 439,0 439,-19.25"/>
<text text-anchor="middle" x="413.75" y="-5.75" font-family="Helvetica,sans-Serif" font-size="10.00">memory</text>
</a>
</g>
</g>
<!-- Node25&#45;&gt;Node34 -->
<g id="edge42_Node000025_Node000034" class="edge">
<title>Node25&#45;&gt;Node34</title>
<g id="a_edge42_Node000025_Node000034"><a xlink:title=" ">
<path fill="none" stroke="#63b8ff" d="M413.75,-55.08C413.75,-48.57 413.75,-39.42 413.75,-31.12"/>
<polygon fill="#63b8ff" stroke="#63b8ff" points="417.25,-31.12 413.75,-21.12 410.25,-31.12 417.25,-31.12"/>
</a>
</g>
</g>
<!-- Node35 -->
<g id="Node000035" class="node">
<title>Node35</title>
<g id="a_Node000035"><a xlink:title=" ">
<polygon fill="#e0e0e0" stroke="#999999" points="506.62,-19.25 456.88,-19.25 456.88,0 506.62,0 506.62,-19.25"/>
<text text-anchor="middle" x="481.75" y="-5.75" font-family="Helvetica,sans-Serif" font-size="10.00">unistd.h</text>
</a>
</g>
</g>
<!-- Node25&#45;&gt;Node35 -->
<g id="edge43_Node000025_Node000035" class="edge">
<title>Node25&#45;&gt;Node35</title>
<g id="a_edge43_Node000025_Node000035"><a xlink:title=" ">
<path fill="none" stroke="#63b8ff" d="M425.29,-54.84C435.21,-47.07 449.76,-35.67 461.61,-26.4"/>
<polygon fill="#63b8ff" stroke="#63b8ff" points="463.48,-29.38 469.19,-20.46 459.16,-23.87 463.48,-29.38"/>
</a>
</g>
</g>
<!-- Node36 -->
<g id="Node000036" class="node">
<title>Node36</title>
<g id="a_Node000036"><a xlink:title=" ">
<polygon fill="#e0e0e0" stroke="#999999" points="573.25,-19.25 524.25,-19.25 524.25,0 573.25,0 573.25,-19.25"/>
<text text-anchor="middle" x="548.75" y="-5.75" font-family="Helvetica,sans-Serif" font-size="10.00">fstream</text>
</a>
</g>
</g>
<!-- Node25&#45;&gt;Node36 -->
<g id="edge45_Node000025_Node000036" class="edge">
<title>Node25&#45;&gt;Node36</title>
<g id="a_edge45_Node000025_Node000036"><a xlink:title=" ">
<path fill="none" stroke="#63b8ff" d="M436.65,-54.84C458.18,-46.35 490.66,-33.54 515.13,-23.89"/>
<polygon fill="#63b8ff" stroke="#63b8ff" points="516.31,-27.18 524.33,-20.26 513.74,-20.67 516.31,-27.18"/>
</a>
</g>
</g>
<!-- Node37 -->
<g id="Node000037" class="node">
<title>Node37</title>
<g id="a_Node000037"><a xlink:title=" ">
<polygon fill="#e0e0e0" stroke="#999999" points="646.62,-19.25 590.88,-19.25 590.88,0 646.62,0 646.62,-19.25"/>
<text text-anchor="middle" x="618.75" y="-5.75" font-family="Helvetica,sans-Serif" font-size="10.00">algorithm</text>
</a>
</g>
</g>
<!-- Node25&#45;&gt;Node37 -->
<g id="edge46_Node000025_Node000037" class="edge">
<title>Node25&#45;&gt;Node37</title>
<g id="a_edge46_Node000025_Node000037"><a xlink:title=" ">
<path fill="none" stroke="#63b8ff" d="M442.25,-56.47C477.98,-47.19 539.38,-31.24 579.52,-20.82"/>
<polygon fill="#63b8ff" stroke="#63b8ff" points="580.22,-24.25 589.02,-18.35 578.46,-17.47 580.22,-24.25"/>
</a>
</g>
</g>
<!-- Node38 -->
<g id="Node000038" class="node">
<title>Node38</title>
<g id="a_Node000038"><a xlink:title=" ">
<polygon fill="#e0e0e0" stroke="#999999" points="724.5,-19.25 665,-19.25 665,0 724.5,0 724.5,-19.25"/>
<text text-anchor="middle" x="694.75" y="-5.75" font-family="Helvetica,sans-Serif" font-size="10.00">sys/wait.h</text>
</a>
</g>
</g>
<!-- Node25&#45;&gt;Node38 -->
<g id="edge47_Node000025_Node000038" class="edge">
<title>Node25&#45;&gt;Node38</title>
<g id="a_edge47_Node000025_Node000038"><a xlink:title=" ">
<path fill="none" stroke="#63b8ff" d="M442.4,-57.03C445.22,-56.41 448.04,-55.8 450.75,-55.25 537.93,-37.45 563.11,-37.23 653.49,-19.62"/>
<polygon fill="#63b8ff" stroke="#63b8ff" points="653.92,-23.1 663.06,-17.73 652.57,-16.23 653.92,-23.1"/>
</a>
</g>
</g>
<!-- Node39 -->
<g id="Node000039" class="node">
<title>Node39</title>
<g id="a_Node000039"><a xlink:title=" ">
<polygon fill="#e0e0e0" stroke="#999999" points="802.88,-19.25 742.62,-19.25 742.62,0 802.88,0 802.88,-19.25"/>
<text text-anchor="middle" x="772.75" y="-5.75" font-family="Helvetica,sans-Serif" font-size="10.00">sys/prctl.h</text>
</a>
</g>
</g>
<!-- Node25&#45;&gt;Node39 -->
<g id="edge48_Node000025_Node000039" class="edge">
<title>Node25&#45;&gt;Node39</title>
<g id="a_edge48_Node000025_Node000039"><a xlink:title=" ">
<path fill="none" stroke="#63b8ff" d="M442.37,-56.9C445.2,-56.3 448.02,-55.74 450.75,-55.25 572.01,-33.46 606.87,-40.53 731.06,-19.57"/>
<polygon fill="#63b8ff" stroke="#63b8ff" points="731.39,-23.07 740.65,-17.93 730.21,-16.17 731.39,-23.07"/>
</a>
</g>
</g>
<!-- Node40&#45;&gt;Node18 -->
<g id="edge51_Node000040_Node000018" class="edge">
<title>Node40&#45;&gt;Node18</title>
<g id="a_edge51_Node000040_Node000018"><a xlink:title=" ">
<path fill="none" stroke="#63b8ff" d="M511.8,-112.18C514.83,-111.6 517.84,-111.04 520.75,-110.5 609.5,-94.12 634.84,-92.96 726.16,-74.93"/>
<polygon fill="#63b8ff" stroke="#63b8ff" points="726.71,-78.39 735.84,-73.01 725.35,-71.53 726.71,-78.39"/>
</a>
</g>
</g>
<!-- Node40&#45;&gt;Node23 -->
<g id="edge50_Node000040_Node000023" class="edge">
<title>Node40&#45;&gt;Node23</title>
<g id="a_edge50_Node000040_Node000023"><a xlink:title=" ">
<path fill="none" stroke="#63b8ff" d="M455.14,-110.02C421.6,-96.23 354.73,-70.08 295.75,-55.25 197.6,-30.58 167.6,-38.85 65,-19.52"/>
<polygon fill="#63b8ff" stroke="#63b8ff" points="65.79,-16.11 55.31,-17.65 64.47,-22.98 65.79,-16.11"/>
</a>
</g>
</g>
<!-- Node40&#45;&gt;Node25 -->
<g id="edge56_Node000040_Node000025" class="edge">
<title>Node40&#45;&gt;Node25</title>
<g id="a_edge56_Node000040_Node000025"><a xlink:title=" ">
<path fill="none" stroke="#63b8ff" d="M466.06,-110.09C457.05,-102.47 443.92,-91.37 433.07,-82.2"/>
<polygon fill="#63b8ff" stroke="#63b8ff" points="435.33,-79.53 425.44,-75.75 430.81,-84.88 435.33,-79.53"/>
</a>
</g>
</g>
<!-- Node41 -->
<g id="Node000041" class="node">
<title>Node41</title>
<g id="a_Node000041"><a xlink:title=" ">
<polygon fill="#e0e0e0" stroke="#999999" points="719.62,-74.5 651.88,-74.5 651.88,-55.25 719.62,-55.25 719.62,-74.5"/>
<text text-anchor="middle" x="685.75" y="-61" font-family="Helvetica,sans-Serif" font-size="10.00">TDirectory.h</text>
</a>
</g>
</g>
<!-- Node40&#45;&gt;Node41 -->
<g id="edge52_Node000040_Node000041" class="edge">
<title>Node40&#45;&gt;Node41</title>
<g id="a_edge52_Node000040_Node000041"><a xlink:title=" ">
<path fill="none" stroke="#63b8ff" d="M512.2,-110.09C547.61,-101.07 602.15,-87.18 640.62,-77.37"/>
<polygon fill="#63b8ff" stroke="#63b8ff" points="641.22,-80.83 650.05,-74.97 639.49,-74.05 641.22,-80.83"/>
</a>
</g>
</g>
<!-- Node42 -->
<g id="Node000042" class="node">
<title>Node42</title>
<g id="a_Node000042"><a xlink:title=" ">
<polygon fill="#e0e0e0" stroke="#999999" points="505.38,-74.5 460.12,-74.5 460.12,-55.25 505.38,-55.25 505.38,-74.5"/>
<text text-anchor="middle" x="482.75" y="-61" font-family="Helvetica,sans-Serif" font-size="10.00">TFile.h</text>
</a>
</g>
</g>
<!-- Node40&#45;&gt;Node42 -->
<g id="edge53_Node000040_Node000042" class="edge">
<title>Node40&#45;&gt;Node42</title>
<g id="a_edge53_Node000040_Node000042"><a xlink:title=" ">
<path fill="none" stroke="#63b8ff" d="M477.74,-110.33C478.48,-103.74 479.53,-94.46 480.47,-86.07"/>
<polygon fill="#63b8ff" stroke="#63b8ff" points="483.93,-86.69 481.57,-76.36 476.97,-85.91 483.93,-86.69"/>
</a>
</g>
</g>
<!-- Node43 -->
<g id="Node000043" class="node">
<title>Node43</title>
<g id="a_Node000043"><a xlink:title=" ">
<polygon fill="#e0e0e0" stroke="#999999" points="569.75,-74.5 523.75,-74.5 523.75,-55.25 569.75,-55.25 569.75,-74.5"/>
<text text-anchor="middle" x="546.75" y="-61" font-family="Helvetica,sans-Serif" font-size="10.00">TList.h</text>
</a>
</g>
</g>
<!-- Node40&#45;&gt;Node43 -->
<g id="edge54_Node000040_Node000043" class="edge">
<title>Node40&#45;&gt;Node43</title>
<g id="a_edge54_Node000040_Node000043"><a xlink:title=" ">
<path fill="none" stroke="#63b8ff" d="M488.62,-110.09C498.84,-102.32 513.82,-90.92 526.01,-81.65"/>
<polygon fill="#63b8ff" stroke="#63b8ff" points="528.01,-84.53 533.85,-75.69 523.77,-78.96 528.01,-84.53"/>
</a>
</g>
</g>
<!-- Node44 -->
<g id="Node000044" class="node">
<title>Node44</title>
<g id="a_Node000044"><a xlink:title=" ">
<polygon fill="#e0e0e0" stroke="#999999" points="633.75,-74.5 587.75,-74.5 587.75,-55.25 633.75,-55.25 633.75,-74.5"/>
<text text-anchor="middle" x="610.75" y="-61" font-family="Helvetica,sans-Serif" font-size="10.00">TKey.h</text>
</a>
</g>
</g>
<!-- Node40&#45;&gt;Node44 -->
<g id="edge55_Node000040_Node000044" class="edge">
<title>Node40&#45;&gt;Node44</title>
<g id="a_edge55_Node000040_Node000044"><a xlink:title=" ">
<path fill="none" stroke="#63b8ff" d="M499.48,-110.09C520.85,-101.6 553.09,-88.79 577.38,-79.14"/>
<polygon fill="#63b8ff" stroke="#63b8ff" points="578.5,-82.46 586.5,-75.51 575.91,-75.95 578.5,-82.46"/>
</a>
</g>
</g>
<!-- Node45&#45;&gt;Node23 -->
<g id="edge58_Node000045_Node000023" class="edge">
<title>Node45&#45;&gt;Node23</title>
<g id="a_edge58_Node000045_Node000023"><a xlink:title=" ">
<path fill="none" stroke="#63b8ff" d="M373.45,-165.3C355.92,-156.5 328.8,-142.64 305.75,-129.75 249.63,-98.37 240.7,-80.92 181.75,-55.25 160.78,-46.12 103.45,-30.47 64.7,-20.34"/>
<polygon fill="#63b8ff" stroke="#63b8ff" points="65.85,-17.02 55.29,-17.89 64.09,-23.79 65.85,-17.02"/>
</a>
</g>
</g>
<!-- Node46 -->
<g id="Node000046" class="node">
<title>Node46</title>
<g id="a_Node000046"><a xlink:title=" ">
<polygon fill="#e0e0e0" stroke="#999999" points="253.62,-129.75 179.88,-129.75 179.88,-110.5 253.62,-110.5 253.62,-129.75"/>
<text text-anchor="middle" x="216.75" y="-116.25" font-family="Helvetica,sans-Serif" font-size="10.00">RtypesCore.h</text>
</a>
</g>
</g>
<!-- Node45&#45;&gt;Node46 -->
<g id="edge59_Node000045_Node000046" class="edge">
<title>Node45&#45;&gt;Node46</title>
<g id="a_edge59_Node000045_Node000046"><a xlink:title=" ">
<path fill="none" stroke="#63b8ff" d="M362.06,-165.34C333.28,-156.58 289.38,-143.23 257.37,-133.48"/>
<polygon fill="#63b8ff" stroke="#63b8ff" points="258.62,-130.21 248.03,-130.64 256.58,-136.9 258.62,-130.21"/>
</a>
</g>
</g>
</g>
</svg>
