<?xml version="1.0" encoding="UTF-8" standalone="no"?>
<!DOCTYPE svg PUBLIC "-//W3C//DTD SVG 1.1//EN"
 "http://www.w3.org/Graphics/SVG/1.1/DTD/svg11.dtd">
<!-- Generated by graphviz version 12.2.0 (20241103.1931)
 -->
<!-- Title: TFragment.cxx Pages: 1 -->
<svg width="1680pt" height="359pt"
 viewBox="0.00 0.00 1679.74 358.75" xmlns="http://www.w3.org/2000/svg" xmlns:xlink="http://www.w3.org/1999/xlink">
<g id="graph0" class="graph" transform="scale(1 1) rotate(0) translate(4 354.75)">
<title>TFragment.cxx</title>
<!-- Node1 -->
<g id="Node000001" class="node">
<title>Node1</title>
<g id="a_Node000001"><a xlink:title=" ">
<polygon fill="#999999" stroke="#666666" points="1534.49,-350.75 1454.74,-350.75 1454.74,-331.5 1534.49,-331.5 1534.49,-350.75"/>
<text text-anchor="middle" x="1494.62" y="-337.25" font-family="Helvetica,sans-Serif" font-size="10.00">TFragment.cxx</text>
</a>
</g>
</g>
<!-- Node2 -->
<g id="Node000002" class="node">
<title>Node2</title>
<g id="a_Node000002"><a xlink:href="_t_fragment_8h.html" target="_top" xlink:title=" ">
<polygon fill="white" stroke="#666666" points="1069.99,-295.5 999.24,-295.5 999.24,-276.25 1069.99,-276.25 1069.99,-295.5"/>
<text text-anchor="middle" x="1034.62" y="-282" font-family="Helvetica,sans-Serif" font-size="10.00">TFragment.h</text>
</a>
</g>
</g>
<!-- Node1&#45;&gt;Node2 -->
<g id="edge1_Node000001_Node000002" class="edge">
<title>Node1&#45;&gt;Node2</title>
<g id="a_edge1_Node000001_Node000002"><a xlink:title=" ">
<path fill="none" stroke="#63b8ff" d="M1454.6,-335.49C1369.79,-325.67 1172.34,-302.82 1081.67,-292.32"/>
<polygon fill="#63b8ff" stroke="#63b8ff" points="1082.22,-288.86 1071.88,-291.19 1081.42,-295.82 1082.22,-288.86"/>
</a>
</g>
</g>
<!-- Node6 -->
<g id="Node000006" class="node">
<title>Node6</title>
<g id="a_Node000006"><a xlink:href="_t_channel_8h.html" target="_top" xlink:title=" ">
<polygon fill="white" stroke="#666666" points="381.99,-185 317.24,-185 317.24,-165.75 381.99,-165.75 381.99,-185"/>
<text text-anchor="middle" x="349.62" y="-171.5" font-family="Helvetica,sans-Serif" font-size="10.00">TChannel.h</text>
</a>
</g>
</g>
<!-- Node1&#45;&gt;Node6 -->
<g id="edge62_Node000001_Node000006" class="edge">
<title>Node1&#45;&gt;Node6</title>
<g id="a_edge62_Node000001_Node000006"><a xlink:title=" ">
<path fill="none" stroke="#63b8ff" d="M1454.27,-338.13C1289.54,-329.7 667.86,-294.83 479.62,-240.25 440.52,-228.91 398.89,-206.38 373.56,-191.33"/>
<polygon fill="#63b8ff" stroke="#63b8ff" points="375.42,-188.37 365.05,-186.18 371.8,-194.36 375.42,-188.37"/>
</a>
</g>
</g>
<!-- Node23 -->
<g id="Node000023" class="node">
<title>Node23</title>
<g id="a_Node000023"><a xlink:title=" ">
<polygon fill="#e0e0e0" stroke="#999999" points="1467.37,-19.25 1413.87,-19.25 1413.87,0 1467.37,0 1467.37,-19.25"/>
<text text-anchor="middle" x="1440.62" y="-5.75" font-family="Helvetica,sans-Serif" font-size="10.00">iostream</text>
</a>
</g>
</g>
<!-- Node1&#45;&gt;Node23 -->
<g id="edge64_Node000001_Node000023" class="edge">
<title>Node1&#45;&gt;Node23</title>
<g id="a_edge64_Node000001_Node000023"><a xlink:title=" ">
<path fill="none" stroke="#63b8ff" d="M1491.98,-331.22C1486.76,-312.8 1475.62,-269.11 1475.62,-231.62 1475.62,-231.62 1475.62,-231.62 1475.62,-119.12 1475.62,-86.56 1461.16,-51.04 1450.83,-29.81"/>
<polygon fill="#63b8ff" stroke="#63b8ff" points="1453.97,-28.27 1446.32,-20.95 1447.74,-31.44 1453.97,-28.27"/>
</a>
</g>
</g>
<!-- Node32 -->
<g id="Node000032" class="node">
<title>Node32</title>
<g id="a_Node000032"><a xlink:title=" ">
<polygon fill="#e0e0e0" stroke="#999999" points="1538.24,-19.25 1486.99,-19.25 1486.99,0 1538.24,0 1538.24,-19.25"/>
<text text-anchor="middle" x="1512.62" y="-5.75" font-family="Helvetica,sans-Serif" font-size="10.00">sstream</text>
</a>
</g>
</g>
<!-- Node1&#45;&gt;Node32 -->
<g id="edge65_Node000001_Node000032" class="edge">
<title>Node1&#45;&gt;Node32</title>
<g id="a_edge65_Node000001_Node000032"><a xlink:title=" ">
<path fill="none" stroke="#63b8ff" d="M1497.26,-331.22C1502.48,-312.8 1513.62,-269.11 1513.62,-231.62 1513.62,-231.62 1513.62,-231.62 1513.62,-119.12 1513.62,-88.4 1513.21,-52.79 1512.92,-30.99"/>
<polygon fill="#63b8ff" stroke="#63b8ff" points="1516.42,-31.09 1512.78,-21.14 1509.42,-31.19 1516.42,-31.09"/>
</a>
</g>
</g>
<!-- Node46 -->
<g id="Node000046" class="node">
<title>Node46</title>
<g id="a_Node000046"><a xlink:title=" ">
<polygon fill="#e0e0e0" stroke="#999999" points="1599.24,-295.5 1541.99,-295.5 1541.99,-276.25 1599.24,-276.25 1599.24,-295.5"/>
<text text-anchor="middle" x="1570.62" y="-282" font-family="Helvetica,sans-Serif" font-size="10.00">TROOT.h</text>
</a>
</g>
</g>
<!-- Node1&#45;&gt;Node46 -->
<g id="edge63_Node000001_Node000046" class="edge">
<title>Node1&#45;&gt;Node46</title>
<g id="a_edge63_Node000001_Node000046"><a xlink:title=" ">
<path fill="none" stroke="#63b8ff" d="M1507.51,-331.09C1518.65,-323.29 1534.99,-311.84 1548.26,-302.54"/>
<polygon fill="#63b8ff" stroke="#63b8ff" points="1550.24,-305.43 1556.42,-296.82 1546.23,-299.69 1550.24,-305.43"/>
</a>
</g>
</g>
<!-- Node47 -->
<g id="Node000047" class="node">
<title>Node47</title>
<g id="a_Node000047"><a xlink:title=" ">
<polygon fill="#e0e0e0" stroke="#999999" points="1671.74,-295.5 1617.49,-295.5 1617.49,-276.25 1671.74,-276.25 1671.74,-295.5"/>
<text text-anchor="middle" x="1644.62" y="-282" font-family="Helvetica,sans-Serif" font-size="10.00">TClass.h</text>
</a>
</g>
</g>
<!-- Node1&#45;&gt;Node47 -->
<g id="edge66_Node000001_Node000047" class="edge">
<title>Node1&#45;&gt;Node47</title>
<g id="a_edge66_Node000001_Node000047"><a xlink:title=" ">
<path fill="none" stroke="#63b8ff" d="M1520.06,-331.09C1544.31,-322.49 1581.05,-309.44 1608.36,-299.75"/>
<polygon fill="#63b8ff" stroke="#63b8ff" points="1609.37,-303.1 1617.62,-296.46 1607.03,-296.51 1609.37,-303.1"/>
</a>
</g>
</g>
<!-- Node3 -->
<g id="Node000003" class="node">
<title>Node3</title>
<g id="a_Node000003"><a xlink:href="_t_detector_hit_8h.html" target="_top" xlink:title=" ">
<polygon fill="white" stroke="#666666" points="958.12,-240.25 879.12,-240.25 879.12,-221 958.12,-221 958.12,-240.25"/>
<text text-anchor="middle" x="918.62" y="-226.75" font-family="Helvetica,sans-Serif" font-size="10.00">TDetectorHit.h</text>
</a>
</g>
</g>
<!-- Node2&#45;&gt;Node3 -->
<g id="edge2_Node000002_Node000003" class="edge">
<title>Node2&#45;&gt;Node3</title>
<g id="a_edge2_Node000002_Node000003"><a xlink:title=" ">
<path fill="none" stroke="#63b8ff" d="M1014.94,-275.84C996.78,-267.5 969.53,-255 948.65,-245.41"/>
<polygon fill="#63b8ff" stroke="#63b8ff" points="950.32,-242.33 939.77,-241.33 947.4,-248.69 950.32,-242.33"/>
</a>
</g>
</g>
<!-- Node4 -->
<g id="Node000004" class="node">
<title>Node4</title>
<g id="a_Node000004"><a xlink:title=" ">
<polygon fill="#e0e0e0" stroke="#999999" points="498.12,-74.5 455.12,-74.5 455.12,-55.25 498.12,-55.25 498.12,-74.5"/>
<text text-anchor="middle" x="476.62" y="-61" font-family="Helvetica,sans-Serif" font-size="10.00">vector</text>
</a>
</g>
</g>
<!-- Node2&#45;&gt;Node4 -->
<g id="edge59_Node000002_Node000004" class="edge">
<title>Node2&#45;&gt;Node4</title>
<g id="a_edge59_Node000002_Node000004"><a xlink:title=" ">
<path fill="none" stroke="#63b8ff" d="M998.98,-281.04C923.99,-272 745.52,-245.44 608.62,-185 566.72,-166.5 554.77,-161.35 521.62,-129.75 507.67,-116.46 495.35,-98.25 487.14,-84.68"/>
<polygon fill="#63b8ff" stroke="#63b8ff" points="490.31,-83.16 482.25,-76.27 484.26,-86.68 490.31,-83.16"/>
</a>
</g>
</g>
<!-- Node19 -->
<g id="Node000019" class="node">
<title>Node19</title>
<g id="a_Node000019"><a xlink:title=" ">
<polygon fill="#e0e0e0" stroke="#999999" points="1061.37,-185 1007.87,-185 1007.87,-165.75 1061.37,-165.75 1061.37,-185"/>
<text text-anchor="middle" x="1034.62" y="-171.5" font-family="Helvetica,sans-Serif" font-size="10.00">Rtypes.h</text>
</a>
</g>
</g>
<!-- Node2&#45;&gt;Node19 -->
<g id="edge61_Node000002_Node000019" class="edge">
<title>Node2&#45;&gt;Node19</title>
<g id="a_edge61_Node000002_Node000019"><a xlink:title=" ">
<path fill="none" stroke="#63b8ff" d="M1034.62,-276C1034.62,-258.75 1034.62,-220.33 1034.62,-196.56"/>
<polygon fill="#63b8ff" stroke="#63b8ff" points="1038.12,-196.89 1034.62,-186.89 1031.12,-196.89 1038.12,-196.89"/>
</a>
</g>
</g>
<!-- Node21 -->
<g id="Node000021" class="node">
<title>Node21</title>
<g id="a_Node000021"><a xlink:href="_t_p_p_g_8h.html" target="_top" xlink:title=" ">
<polygon fill="white" stroke="#666666" points="1129.87,-185 1079.37,-185 1079.37,-165.75 1129.87,-165.75 1129.87,-185"/>
<text text-anchor="middle" x="1104.62" y="-171.5" font-family="Helvetica,sans-Serif" font-size="10.00">TPPG.h</text>
</a>
</g>
</g>
<!-- Node2&#45;&gt;Node21 -->
<g id="edge57_Node000002_Node000021" class="edge">
<title>Node2&#45;&gt;Node21</title>
<g id="a_edge57_Node000002_Node000021"><a xlink:title=" ">
<path fill="none" stroke="#63b8ff" d="M1040.35,-276C1051.73,-258.35 1077.41,-218.55 1092.64,-194.95"/>
<polygon fill="#63b8ff" stroke="#63b8ff" points="1095.51,-196.95 1097.99,-186.65 1089.63,-193.15 1095.51,-196.95"/>
</a>
</g>
</g>
<!-- Node2&#45;&gt;Node23 -->
<g id="edge58_Node000002_Node000023" class="edge">
<title>Node2&#45;&gt;Node23</title>
<g id="a_edge58_Node000002_Node000023"><a xlink:title=" ">
<path fill="none" stroke="#63b8ff" d="M1070.38,-282.9C1169.01,-276.49 1437.62,-252.09 1437.62,-176.38 1437.62,-176.38 1437.62,-176.38 1437.62,-119.12 1437.62,-88.39 1438.84,-52.79 1439.72,-30.99"/>
<polygon fill="#63b8ff" stroke="#63b8ff" points="1443.21,-31.28 1440.14,-21.14 1436.22,-30.98 1443.21,-31.28"/>
</a>
</g>
</g>
<!-- Node45 -->
<g id="Node000045" class="node">
<title>Node45</title>
<g id="a_Node000045"><a xlink:title=" ">
<polygon fill="#e0e0e0" stroke="#999999" points="860.62,-240.25 820.62,-240.25 820.62,-221 860.62,-221 860.62,-240.25"/>
<text text-anchor="middle" x="840.62" y="-226.75" font-family="Helvetica,sans-Serif" font-size="10.00">ctime</text>
</a>
</g>
</g>
<!-- Node2&#45;&gt;Node45 -->
<g id="edge60_Node000002_Node000045" class="edge">
<title>Node2&#45;&gt;Node45</title>
<g id="a_edge60_Node000002_Node000045"><a xlink:title=" ">
<path fill="none" stroke="#63b8ff" d="M1000.66,-275.79C969.67,-267.46 922.33,-254.66 871.77,-240.54"/>
<polygon fill="#63b8ff" stroke="#63b8ff" points="872.97,-237.24 862.4,-237.92 871.09,-243.98 872.97,-237.24"/>
</a>
</g>
</g>
<!-- Node3&#45;&gt;Node4 -->
<g id="edge3_Node000003_Node000004" class="edge">
<title>Node3&#45;&gt;Node4</title>
<g id="a_edge3_Node000003_Node000004"><a xlink:title=" ">
<path fill="none" stroke="#63b8ff" d="M878.78,-222.59C875.68,-222.05 872.6,-221.52 869.62,-221 724.31,-195.87 672.79,-212.33 550.62,-129.75 529.66,-115.58 508.02,-96.26 493.6,-82.58"/>
<polygon fill="#63b8ff" stroke="#63b8ff" points="496.34,-80.37 486.71,-75.95 491.48,-85.41 496.34,-80.37"/>
</a>
</g>
</g>
<!-- Node5 -->
<g id="Node000005" class="node">
<title>Node5</title>
<g id="a_Node000005"><a xlink:title=" ">
<polygon fill="#e0e0e0" stroke="#999999" points="635.24,-19.25 589.99,-19.25 589.99,0 635.24,0 635.24,-19.25"/>
<text text-anchor="middle" x="612.62" y="-5.75" font-family="Helvetica,sans-Serif" font-size="10.00">cstdint</text>
</a>
</g>
</g>
<!-- Node3&#45;&gt;Node5 -->
<g id="edge4_Node000003_Node000005" class="edge">
<title>Node3&#45;&gt;Node5</title>
<g id="a_edge4_Node000003_Node000005"><a xlink:title=" ">
<path fill="none" stroke="#63b8ff" d="M878.66,-222.29C814.26,-210.39 694.31,-187.93 690.62,-185 677.57,-174.62 636.89,-72.95 620.04,-29.82"/>
<polygon fill="#63b8ff" stroke="#63b8ff" points="623.4,-28.79 616.51,-20.74 616.87,-31.33 623.4,-28.79"/>
</a>
</g>
</g>
<!-- Node3&#45;&gt;Node6 -->
<g id="edge5_Node000003_Node000006" class="edge">
<title>Node3&#45;&gt;Node6</title>
<g id="a_edge5_Node000003_Node000006"><a xlink:title=" ">
<path fill="none" stroke="#63b8ff" d="M878.82,-222.32C875.71,-221.84 872.62,-221.39 869.62,-221 693.99,-198.05 483.39,-184.13 393.62,-178.83"/>
<polygon fill="#63b8ff" stroke="#63b8ff" points="393.98,-175.35 383.79,-178.26 393.57,-182.33 393.98,-175.35"/>
</a>
</g>
</g>
<!-- Node17 -->
<g id="Node000017" class="node">
<title>Node17</title>
<g id="a_Node000017"><a xlink:title=" ">
<polygon fill="#e0e0e0" stroke="#999999" points="868.24,-185 804.99,-185 804.99,-165.75 868.24,-165.75 868.24,-185"/>
<text text-anchor="middle" x="836.62" y="-171.5" font-family="Helvetica,sans-Serif" font-size="10.00">TVector3.h</text>
</a>
</g>
</g>
<!-- Node3&#45;&gt;Node17 -->
<g id="edge19_Node000003_Node000017" class="edge">
<title>Node3&#45;&gt;Node17</title>
<g id="a_edge19_Node000003_Node000017"><a xlink:title=" ">
<path fill="none" stroke="#63b8ff" d="M904.71,-220.59C892.46,-212.64 874.36,-200.89 859.91,-191.5"/>
<polygon fill="#63b8ff" stroke="#63b8ff" points="862.16,-188.79 851.87,-186.28 858.35,-194.66 862.16,-188.79"/>
</a>
</g>
</g>
<!-- Node18 -->
<g id="Node000018" class="node">
<title>Node18</title>
<g id="a_Node000018"><a xlink:title=" ">
<polygon fill="#e0e0e0" stroke="#999999" points="943.62,-74.5 885.62,-74.5 885.62,-55.25 943.62,-55.25 943.62,-74.5"/>
<text text-anchor="middle" x="914.62" y="-61" font-family="Helvetica,sans-Serif" font-size="10.00">TObject.h</text>
</a>
</g>
</g>
<!-- Node3&#45;&gt;Node18 -->
<g id="edge20_Node000003_Node000018" class="edge">
<title>Node3&#45;&gt;Node18</title>
<g id="a_edge20_Node000003_Node000018"><a xlink:title=" ">
<path fill="none" stroke="#63b8ff" d="M931.23,-220.64C941.33,-212.61 954.74,-199.83 960.62,-185 963.77,-177.05 962.45,-174.11 960.62,-165.75 954.03,-135.68 937.49,-103.87 926.15,-84.44"/>
<polygon fill="#63b8ff" stroke="#63b8ff" points="929.27,-82.83 921.11,-76.06 923.27,-86.44 929.27,-82.83"/>
</a>
</g>
</g>
<!-- Node3&#45;&gt;Node19 -->
<g id="edge21_Node000003_Node000019" class="edge">
<title>Node3&#45;&gt;Node19</title>
<g id="a_edge21_Node000003_Node000019"><a xlink:title=" ">
<path fill="none" stroke="#63b8ff" d="M938.3,-220.59C956.46,-212.25 983.7,-199.75 1004.59,-190.16"/>
<polygon fill="#63b8ff" stroke="#63b8ff" points="1005.84,-193.44 1013.47,-186.08 1002.92,-187.08 1005.84,-193.44"/>
</a>
</g>
</g>
<!-- Node20 -->
<g id="Node000020" class="node">
<title>Node20</title>
<g id="a_Node000020"><a xlink:title=" ">
<polygon fill="#e0e0e0" stroke="#999999" points="951.37,-185 885.87,-185 885.87,-165.75 951.37,-165.75 951.37,-185"/>
<text text-anchor="middle" x="918.62" y="-171.5" font-family="Helvetica,sans-Serif" font-size="10.00">TRandom.h</text>
</a>
</g>
</g>
<!-- Node3&#45;&gt;Node20 -->
<g id="edge22_Node000003_Node000020" class="edge">
<title>Node3&#45;&gt;Node20</title>
<g id="a_edge22_Node000003_Node000020"><a xlink:title=" ">
<path fill="none" stroke="#63b8ff" d="M918.62,-220.83C918.62,-214.32 918.62,-205.17 918.62,-196.87"/>
<polygon fill="#63b8ff" stroke="#63b8ff" points="922.12,-196.87 918.62,-186.87 915.12,-196.87 922.12,-196.87"/>
</a>
</g>
</g>
<!-- Node3&#45;&gt;Node21 -->
<g id="edge23_Node000003_Node000021" class="edge">
<title>Node3&#45;&gt;Node21</title>
<g id="a_edge23_Node000003_Node000021"><a xlink:title=" ">
<path fill="none" stroke="#63b8ff" d="M950.17,-220.59C982.76,-211.26 1033.58,-196.71 1067.94,-186.88"/>
<polygon fill="#63b8ff" stroke="#63b8ff" points="1068.81,-190.27 1077.46,-184.15 1066.88,-183.54 1068.81,-190.27"/>
</a>
</g>
</g>
<!-- Node43 -->
<g id="Node000043" class="node">
<title>Node43</title>
<g id="a_Node000043"><a xlink:href="_t_transient_bits_8h.html" target="_top" xlink:title=" ">
<polygon fill="white" stroke="#666666" points="787.24,-185 699.99,-185 699.99,-165.75 787.24,-165.75 787.24,-185"/>
<text text-anchor="middle" x="743.62" y="-171.5" font-family="Helvetica,sans-Serif" font-size="10.00">TTransientBits.h</text>
</a>
</g>
</g>
<!-- Node3&#45;&gt;Node43 -->
<g id="edge54_Node000003_Node000043" class="edge">
<title>Node3&#45;&gt;Node43</title>
<g id="a_edge54_Node000003_Node000043"><a xlink:title=" ">
<path fill="none" stroke="#63b8ff" d="M888.93,-220.59C860.15,-211.83 816.25,-198.48 784.23,-188.73"/>
<polygon fill="#63b8ff" stroke="#63b8ff" points="785.48,-185.46 774.9,-185.89 783.45,-192.15 785.48,-185.46"/>
</a>
</g>
</g>
<!-- Node7 -->
<g id="Node000007" class="node">
<title>Node7</title>
<g id="a_Node000007"><a xlink:title=" ">
<polygon fill="#e0e0e0" stroke="#999999" points="571.62,-19.25 531.62,-19.25 531.62,0 571.62,0 571.62,-19.25"/>
<text text-anchor="middle" x="551.62" y="-5.75" font-family="Helvetica,sans-Serif" font-size="10.00">string</text>
</a>
</g>
</g>
<!-- Node6&#45;&gt;Node7 -->
<g id="edge6_Node000006_Node000007" class="edge">
<title>Node6&#45;&gt;Node7</title>
<g id="a_edge6_Node000006_Node000007"><a xlink:title=" ">
<path fill="none" stroke="#63b8ff" d="M316.91,-173.71C223.28,-171.19 -36.44,-159.74 4.62,-110.5 71.3,-30.55 413.91,-14.42 520.16,-11.33"/>
<polygon fill="#63b8ff" stroke="#63b8ff" points="519.95,-14.83 529.85,-11.07 519.76,-7.84 519.95,-14.83"/>
</a>
</g>
</g>
<!-- Node8 -->
<g id="Node000008" class="node">
<title>Node8</title>
<g id="a_Node000008"><a xlink:title=" ">
<polygon fill="#e0e0e0" stroke="#999999" points="57.12,-129.75 14.12,-129.75 14.12,-110.5 57.12,-110.5 57.12,-129.75"/>
<text text-anchor="middle" x="35.62" y="-116.25" font-family="Helvetica,sans-Serif" font-size="10.00">cmath</text>
</a>
</g>
</g>
<!-- Node6&#45;&gt;Node8 -->
<g id="edge7_Node000006_Node000008" class="edge">
<title>Node6&#45;&gt;Node8</title>
<g id="a_edge7_Node000006_Node000008"><a xlink:title=" ">
<path fill="none" stroke="#63b8ff" d="M317.14,-170.49C266.25,-164.13 164.46,-150.35 68.61,-129.95"/>
<polygon fill="#63b8ff" stroke="#63b8ff" points="69.55,-126.58 59.04,-127.88 68.07,-133.42 69.55,-126.58"/>
</a>
</g>
</g>
<!-- Node9 -->
<g id="Node000009" class="node">
<title>Node9</title>
<g id="a_Node000009"><a xlink:title=" ">
<polygon fill="#e0e0e0" stroke="#999999" points="737.87,-129.75 699.37,-129.75 699.37,-110.5 737.87,-110.5 737.87,-129.75"/>
<text text-anchor="middle" x="718.62" y="-116.25" font-family="Helvetica,sans-Serif" font-size="10.00">utility</text>
</a>
</g>
</g>
<!-- Node6&#45;&gt;Node9 -->
<g id="edge8_Node000006_Node000009" class="edge">
<title>Node6&#45;&gt;Node9</title>
<g id="a_edge8_Node000006_Node000009"><a xlink:title=" ">
<path fill="none" stroke="#63b8ff" d="M382.36,-169.65C453.08,-159.44 619.23,-135.47 687.99,-125.54"/>
<polygon fill="#63b8ff" stroke="#63b8ff" points="688.39,-129.02 697.79,-124.13 687.39,-122.1 688.39,-129.02"/>
</a>
</g>
</g>
<!-- Node10 -->
<g id="Node000010" class="node">
<title>Node10</title>
<g id="a_Node000010"><a xlink:title=" ">
<polygon fill="#e0e0e0" stroke="#999999" points="157.99,-129.75 75.24,-129.75 75.24,-110.5 157.99,-110.5 157.99,-129.75"/>
<text text-anchor="middle" x="116.62" y="-116.25" font-family="Helvetica,sans-Serif" font-size="10.00">unordered_map</text>
</a>
</g>
</g>
<!-- Node6&#45;&gt;Node10 -->
<g id="edge9_Node000006_Node000010" class="edge">
<title>Node6&#45;&gt;Node10</title>
<g id="a_edge9_Node000006_Node000010"><a xlink:title=" ">
<path fill="none" stroke="#63b8ff" d="M317.22,-166.97C278.49,-158.12 213.2,-143.2 167.66,-132.79"/>
<polygon fill="#63b8ff" stroke="#63b8ff" points="168.54,-129.4 158.02,-130.59 166.98,-136.23 168.54,-129.4"/>
</a>
</g>
</g>
<!-- Node11 -->
<g id="Node000011" class="node">
<title>Node11</title>
<g id="a_Node000011"><a xlink:title=" ">
<polygon fill="#e0e0e0" stroke="#999999" points="237.12,-129.75 176.12,-129.75 176.12,-110.5 237.12,-110.5 237.12,-129.75"/>
<text text-anchor="middle" x="206.62" y="-116.25" font-family="Helvetica,sans-Serif" font-size="10.00">TNamed.h</text>
</a>
</g>
</g>
<!-- Node6&#45;&gt;Node11 -->
<g id="edge10_Node000006_Node000011" class="edge">
<title>Node6&#45;&gt;Node11</title>
<g id="a_edge10_Node000006_Node000011"><a xlink:title=" ">
<path fill="none" stroke="#63b8ff" d="M325.36,-165.34C302.35,-156.77 267.53,-143.81 241.53,-134.13"/>
<polygon fill="#63b8ff" stroke="#63b8ff" points="243.01,-130.94 232.41,-130.73 240.56,-137.5 243.01,-130.94"/>
</a>
</g>
</g>
<!-- Node12 -->
<g id="Node000012" class="node">
<title>Node12</title>
<g id="a_Node000012"><a xlink:title=" ">
<polygon fill="#e0e0e0" stroke="#999999" points="304.12,-129.75 255.12,-129.75 255.12,-110.5 304.12,-110.5 304.12,-129.75"/>
<text text-anchor="middle" x="279.62" y="-116.25" font-family="Helvetica,sans-Serif" font-size="10.00">TTree.h</text>
</a>
</g>
</g>
<!-- Node6&#45;&gt;Node12 -->
<g id="edge11_Node000006_Node000012" class="edge">
<title>Node6&#45;&gt;Node12</title>
<g id="a_edge11_Node000006_Node000012"><a xlink:title=" ">
<path fill="none" stroke="#63b8ff" d="M337.74,-165.34C327.53,-157.57 312.55,-146.17 300.35,-136.9"/>
<polygon fill="#63b8ff" stroke="#63b8ff" points="302.6,-134.21 292.52,-130.94 298.36,-139.78 302.6,-134.21"/>
</a>
</g>
</g>
<!-- Node13 -->
<g id="Node000013" class="node">
<title>Node13</title>
<g id="a_Node000013"><a xlink:title=" ">
<polygon fill="#e0e0e0" stroke="#999999" points="377.49,-129.75 321.74,-129.75 321.74,-110.5 377.49,-110.5 377.49,-129.75"/>
<text text-anchor="middle" x="349.62" y="-116.25" font-family="Helvetica,sans-Serif" font-size="10.00">TGraph.h</text>
</a>
</g>
</g>
<!-- Node6&#45;&gt;Node13 -->
<g id="edge12_Node000006_Node000013" class="edge">
<title>Node6&#45;&gt;Node13</title>
<g id="a_edge12_Node000006_Node000013"><a xlink:title=" ">
<path fill="none" stroke="#63b8ff" d="M349.62,-165.58C349.62,-159.07 349.62,-149.92 349.62,-141.62"/>
<polygon fill="#63b8ff" stroke="#63b8ff" points="353.12,-141.62 349.62,-131.62 346.12,-141.62 353.12,-141.62"/>
</a>
</g>
</g>
<!-- Node14 -->
<g id="Node000014" class="node">
<title>Node14</title>
<g id="a_Node000014"><a xlink:title=" ">
<polygon fill="#e0e0e0" stroke="#999999" points="465.24,-129.75 395.99,-129.75 395.99,-110.5 465.24,-110.5 465.24,-129.75"/>
<text text-anchor="middle" x="430.62" y="-116.25" font-family="Helvetica,sans-Serif" font-size="10.00">TClassRef.h</text>
</a>
</g>
</g>
<!-- Node6&#45;&gt;Node14 -->
<g id="edge13_Node000006_Node000014" class="edge">
<title>Node6&#45;&gt;Node14</title>
<g id="a_edge13_Node000006_Node000014"><a xlink:title=" ">
<path fill="none" stroke="#63b8ff" d="M363.36,-165.34C375.34,-157.46 392.99,-145.86 407.2,-136.52"/>
<polygon fill="#63b8ff" stroke="#63b8ff" points="409.11,-139.45 415.55,-131.03 405.27,-133.6 409.11,-139.45"/>
</a>
</g>
</g>
<!-- Node15 -->
<g id="Node000015" class="node">
<title>Node15</title>
<g id="a_Node000015"><a xlink:href="_t_priority_value_8h.html" target="_top" xlink:title=" ">
<polygon fill="white" stroke="#666666" points="643.74,-129.75 559.49,-129.75 559.49,-110.5 643.74,-110.5 643.74,-129.75"/>
<text text-anchor="middle" x="601.62" y="-116.25" font-family="Helvetica,sans-Serif" font-size="10.00">TPriorityValue.h</text>
</a>
</g>
</g>
<!-- Node6&#45;&gt;Node15 -->
<g id="edge14_Node000006_Node000015" class="edge">
<title>Node6&#45;&gt;Node15</title>
<g id="a_edge14_Node000006_Node000015"><a xlink:title=" ">
<path fill="none" stroke="#63b8ff" d="M382.3,-167.47C424.4,-158.57 498.11,-143 548.35,-132.38"/>
<polygon fill="#63b8ff" stroke="#63b8ff" points="548.79,-135.87 557.85,-130.37 547.34,-129.02 548.79,-135.87"/>
</a>
</g>
</g>
<!-- Node15&#45;&gt;Node4 -->
<g id="edge17_Node000015_Node000004" class="edge">
<title>Node15&#45;&gt;Node4</title>
<g id="a_edge17_Node000015_Node000004"><a xlink:title=" ">
<path fill="none" stroke="#63b8ff" d="M580.41,-110.09C560.66,-101.68 530.95,-89.02 508.36,-79.4"/>
<polygon fill="#63b8ff" stroke="#63b8ff" points="509.89,-76.24 499.32,-75.55 507.15,-82.68 509.89,-76.24"/>
</a>
</g>
</g>
<!-- Node15&#45;&gt;Node5 -->
<g id="edge18_Node000015_Node000005" class="edge">
<title>Node15&#45;&gt;Node5</title>
<g id="a_edge18_Node000015_Node000005"><a xlink:title=" ">
<path fill="none" stroke="#63b8ff" d="M603.56,-110.28C605.44,-101.32 608.21,-87.01 609.62,-74.5 611.26,-59.93 612.01,-43.38 612.34,-30.78"/>
<polygon fill="#63b8ff" stroke="#63b8ff" points="615.84,-30.91 612.54,-20.85 608.84,-30.77 615.84,-30.91"/>
</a>
</g>
</g>
<!-- Node15&#45;&gt;Node7 -->
<g id="edge16_Node000015_Node000007" class="edge">
<title>Node15&#45;&gt;Node7</title>
<g id="a_edge16_Node000015_Node000007"><a xlink:title=" ">
<path fill="none" stroke="#63b8ff" d="M598.59,-110.29C594.23,-97.81 585.68,-74.41 576.62,-55.25 572.54,-46.63 567.48,-37.39 562.99,-29.56"/>
<polygon fill="#63b8ff" stroke="#63b8ff" points="566.02,-27.81 557.93,-20.97 559.98,-31.36 566.02,-27.81"/>
</a>
</g>
</g>
<!-- Node16 -->
<g id="Node000016" class="node">
<title>Node16</title>
<g id="a_Node000016"><a xlink:title=" ">
<polygon fill="#e0e0e0" stroke="#999999" points="567.24,-74.5 515.99,-74.5 515.99,-55.25 567.24,-55.25 567.24,-74.5"/>
<text text-anchor="middle" x="541.62" y="-61" font-family="Helvetica,sans-Serif" font-size="10.00">ostream</text>
</a>
</g>
</g>
<!-- Node15&#45;&gt;Node16 -->
<g id="edge15_Node000015_Node000016" class="edge">
<title>Node15&#45;&gt;Node16</title>
<g id="a_edge15_Node000015_Node000016"><a xlink:title=" ">
<path fill="none" stroke="#63b8ff" d="M591.44,-110.09C582.86,-102.47 570.35,-91.37 560.02,-82.2"/>
<polygon fill="#63b8ff" stroke="#63b8ff" points="562.58,-79.8 552.78,-75.78 557.93,-85.04 562.58,-79.8"/>
</a>
</g>
</g>
<!-- Node21&#45;&gt;Node5 -->
<g id="edge27_Node000021_Node000005" class="edge">
<title>Node21&#45;&gt;Node5</title>
<g id="a_edge27_Node000021_Node000005"><a xlink:title=" ">
<path fill="none" stroke="#63b8ff" d="M1079.2,-165.92C997.13,-138.6 739.12,-52.73 646.3,-21.84"/>
<polygon fill="#63b8ff" stroke="#63b8ff" points="647.61,-18.58 637.01,-18.74 645.4,-25.22 647.61,-18.58"/>
</a>
</g>
</g>
<!-- Node21&#45;&gt;Node9 -->
<g id="edge25_Node000021_Node000009" class="edge">
<title>Node21&#45;&gt;Node9</title>
<g id="a_edge25_Node000021_Node000009"><a xlink:title=" ">
<path fill="none" stroke="#63b8ff" d="M1079.08,-167.5C1076.24,-166.85 1073.37,-166.25 1070.62,-165.75 931.68,-140.53 890.56,-158.25 749.32,-129.94"/>
<polygon fill="#63b8ff" stroke="#63b8ff" points="750.06,-126.52 739.56,-127.94 748.65,-133.38 750.06,-126.52"/>
</a>
</g>
</g>
<!-- Node21&#45;&gt;Node18 -->
<g id="edge28_Node000021_Node000018" class="edge">
<title>Node21&#45;&gt;Node18</title>
<g id="a_edge28_Node000021_Node000018"><a xlink:title=" ">
<path fill="none" stroke="#63b8ff" d="M1089.2,-165.45C1067.78,-153.07 1027.81,-129.99 993.62,-110.5 975.94,-100.42 955.99,-89.15 940.55,-80.46"/>
<polygon fill="#63b8ff" stroke="#63b8ff" points="942.43,-77.5 932,-75.64 938.99,-83.6 942.43,-77.5"/>
</a>
</g>
</g>
<!-- Node22 -->
<g id="Node000022" class="node">
<title>Node22</title>
<g id="a_Node000022"><a xlink:title=" ">
<polygon fill="#e0e0e0" stroke="#999999" points="1280.99,-129.75 1246.24,-129.75 1246.24,-110.5 1280.99,-110.5 1280.99,-129.75"/>
<text text-anchor="middle" x="1263.62" y="-116.25" font-family="Helvetica,sans-Serif" font-size="10.00">map</text>
</a>
</g>
</g>
<!-- Node21&#45;&gt;Node22 -->
<g id="edge24_Node000021_Node000022" class="edge">
<title>Node21&#45;&gt;Node22</title>
<g id="a_edge24_Node000021_Node000022"><a xlink:title=" ">
<path fill="none" stroke="#63b8ff" d="M1130.16,-165.82C1158.97,-156.17 1205.65,-140.54 1235.48,-130.55"/>
<polygon fill="#63b8ff" stroke="#63b8ff" points="1236.21,-134 1244.58,-127.5 1233.98,-127.36 1236.21,-134"/>
</a>
</g>
</g>
<!-- Node21&#45;&gt;Node23 -->
<g id="edge26_Node000021_Node000023" class="edge">
<title>Node21&#45;&gt;Node23</title>
<g id="a_edge26_Node000021_Node000023"><a xlink:title=" ">
<path fill="none" stroke="#63b8ff" d="M1130.1,-173.17C1190.61,-169.87 1340.87,-158.87 1380.62,-129.75 1397.93,-117.06 1421.64,-60.28 1433.39,-29.92"/>
<polygon fill="#63b8ff" stroke="#63b8ff" points="1436.58,-31.4 1436.86,-20.8 1430.04,-28.9 1436.58,-31.4"/>
</a>
</g>
</g>
<!-- Node24 -->
<g id="Node000024" class="node">
<title>Node24</title>
<g id="a_Node000024"><a xlink:title=" ">
<polygon fill="#e0e0e0" stroke="#999999" points="1371.74,-129.75 1299.49,-129.75 1299.49,-110.5 1371.74,-110.5 1371.74,-129.75"/>
<text text-anchor="middle" x="1335.62" y="-116.25" font-family="Helvetica,sans-Serif" font-size="10.00">TCollection.h</text>
</a>
</g>
</g>
<!-- Node21&#45;&gt;Node24 -->
<g id="edge29_Node000021_Node000024" class="edge">
<title>Node21&#45;&gt;Node24</title>
<g id="a_edge29_Node000021_Node000024"><a xlink:title=" ">
<path fill="none" stroke="#63b8ff" d="M1130.22,-168.47C1168.28,-159.7 1240.43,-143.07 1288.28,-132.04"/>
<polygon fill="#63b8ff" stroke="#63b8ff" points="1288.86,-135.5 1297.82,-129.84 1287.28,-128.68 1288.86,-135.5"/>
</a>
</g>
</g>
<!-- Node25 -->
<g id="Node000025" class="node">
<title>Node25</title>
<g id="a_Node000025"><a xlink:href="_globals_8h.html" target="_top" xlink:title=" ">
<polygon fill="white" stroke="#666666" points="1017.87,-74.5 961.37,-74.5 961.37,-55.25 1017.87,-55.25 1017.87,-74.5"/>
<text text-anchor="middle" x="989.62" y="-61" font-family="Helvetica,sans-Serif" font-size="10.00">Globals.h</text>
</a>
</g>
</g>
<!-- Node21&#45;&gt;Node25 -->
<g id="edge30_Node000021_Node000025" class="edge">
<title>Node21&#45;&gt;Node25</title>
<g id="a_edge30_Node000021_Node000025"><a xlink:title=" ">
<path fill="none" stroke="#63b8ff" d="M1096.83,-165.34C1085.71,-152.62 1064.45,-128.94 1044.62,-110.5 1033.73,-100.37 1020.85,-89.85 1010.29,-81.57"/>
<polygon fill="#63b8ff" stroke="#63b8ff" points="1012.62,-78.95 1002.57,-75.6 1008.34,-84.48 1012.62,-78.95"/>
</a>
</g>
</g>
<!-- Node38 -->
<g id="Node000038" class="node">
<title>Node38</title>
<g id="a_Node000038"><a xlink:href="_t_singleton_8h.html" target="_top" xlink:title=" ">
<polygon fill="white" stroke="#666666" points="1175.62,-129.75 1105.62,-129.75 1105.62,-110.5 1175.62,-110.5 1175.62,-129.75"/>
<text text-anchor="middle" x="1140.62" y="-116.25" font-family="Helvetica,sans-Serif" font-size="10.00">TSingleton.h</text>
</a>
</g>
</g>
<!-- Node21&#45;&gt;Node38 -->
<g id="edge46_Node000021_Node000038" class="edge">
<title>Node21&#45;&gt;Node38</title>
<g id="a_edge46_Node000021_Node000038"><a xlink:title=" ">
<path fill="none" stroke="#63b8ff" d="M1110.56,-165.58C1115.33,-158.53 1122.18,-148.4 1128.14,-139.58"/>
<polygon fill="#63b8ff" stroke="#63b8ff" points="1131,-141.61 1133.7,-131.36 1125.2,-137.69 1131,-141.61"/>
</a>
</g>
</g>
<!-- Node25&#45;&gt;Node5 -->
<g id="edge36_Node000025_Node000005" class="edge">
<title>Node25&#45;&gt;Node5</title>
<g id="a_edge36_Node000025_Node000005"><a xlink:title=" ">
<path fill="none" stroke="#63b8ff" d="M961,-56.87C958.18,-56.28 955.35,-55.73 952.62,-55.25 820.43,-32.19 781.98,-44.56 646.8,-19.38"/>
<polygon fill="#63b8ff" stroke="#63b8ff" points="647.56,-15.96 637.08,-17.53 646.25,-22.84 647.56,-15.96"/>
</a>
</g>
</g>
<!-- Node25&#45;&gt;Node7 -->
<g id="edge34_Node000025_Node000007" class="edge">
<title>Node25&#45;&gt;Node7</title>
<g id="a_edge34_Node000025_Node000007"><a xlink:title=" ">
<path fill="none" stroke="#63b8ff" d="M961.01,-56.81C958.18,-56.23 955.35,-55.7 952.62,-55.25 792.23,-28.91 745.64,-50.12 582.98,-19.35"/>
<polygon fill="#63b8ff" stroke="#63b8ff" points="584.06,-15.99 573.58,-17.53 582.73,-22.87 584.06,-15.99"/>
</a>
</g>
</g>
<!-- Node25&#45;&gt;Node23 -->
<g id="edge31_Node000025_Node000023" class="edge">
<title>Node25&#45;&gt;Node23</title>
<g id="a_edge31_Node000025_Node000023"><a xlink:title=" ">
<path fill="none" stroke="#63b8ff" d="M1018.23,-56.81C1021.05,-56.23 1023.88,-55.7 1026.62,-55.25 1189.59,-28.62 1236.16,-46.19 1402.45,-19.37"/>
<polygon fill="#63b8ff" stroke="#63b8ff" points="1402.78,-22.86 1412.08,-17.78 1401.65,-15.95 1402.78,-22.86"/>
</a>
</g>
</g>
<!-- Node26 -->
<g id="Node000026" class="node">
<title>Node26</title>
<g id="a_Node000026"><a xlink:title=" ">
<polygon fill="#e0e0e0" stroke="#999999" points="1259.49,-19.25 1209.74,-19.25 1209.74,0 1259.49,0 1259.49,-19.25"/>
<text text-anchor="middle" x="1234.62" y="-5.75" font-family="Helvetica,sans-Serif" font-size="10.00">iomanip</text>
</a>
</g>
</g>
<!-- Node25&#45;&gt;Node26 -->
<g id="edge32_Node000025_Node000026" class="edge">
<title>Node25&#45;&gt;Node26</title>
<g id="a_edge32_Node000025_Node000026"><a xlink:title=" ">
<path fill="none" stroke="#63b8ff" d="M1018.29,-57.12C1021.1,-56.48 1023.91,-55.85 1026.62,-55.25 1100.28,-39.05 1121.75,-37.11 1198.23,-19.72"/>
<polygon fill="#63b8ff" stroke="#63b8ff" points="1198.96,-23.14 1207.92,-17.49 1197.39,-16.32 1198.96,-23.14"/>
</a>
</g>
</g>
<!-- Node27 -->
<g id="Node000027" class="node">
<title>Node27</title>
<g id="a_Node000027"><a xlink:title=" ">
<polygon fill="#e0e0e0" stroke="#999999" points="1335.62,-19.25 1277.62,-19.25 1277.62,0 1335.62,0 1335.62,-19.25"/>
<text text-anchor="middle" x="1306.62" y="-5.75" font-family="Helvetica,sans-Serif" font-size="10.00">stdexcept</text>
</a>
</g>
</g>
<!-- Node25&#45;&gt;Node27 -->
<g id="edge33_Node000025_Node000027" class="edge">
<title>Node25&#45;&gt;Node27</title>
<g id="a_edge33_Node000025_Node000027"><a xlink:title=" ">
<path fill="none" stroke="#63b8ff" d="M1018.25,-56.96C1021.07,-56.35 1023.9,-55.77 1026.62,-55.25 1129.89,-35.57 1159.78,-39.03 1265.99,-19.62"/>
<polygon fill="#63b8ff" stroke="#63b8ff" points="1266.52,-23.08 1275.72,-17.81 1265.25,-16.19 1266.52,-23.08"/>
</a>
</g>
</g>
<!-- Node28 -->
<g id="Node000028" class="node">
<title>Node28</title>
<g id="a_Node000028"><a xlink:title=" ">
<polygon fill="#e0e0e0" stroke="#999999" points="1395.74,-19.25 1353.49,-19.25 1353.49,0 1395.74,0 1395.74,-19.25"/>
<text text-anchor="middle" x="1374.62" y="-5.75" font-family="Helvetica,sans-Serif" font-size="10.00">cstdio</text>
</a>
</g>
</g>
<!-- Node25&#45;&gt;Node28 -->
<g id="edge35_Node000025_Node000028" class="edge">
<title>Node25&#45;&gt;Node28</title>
<g id="a_edge35_Node000025_Node000028"><a xlink:title=" ">
<path fill="none" stroke="#63b8ff" d="M1018.23,-56.86C1021.06,-56.27 1023.89,-55.72 1026.62,-55.25 1163.22,-31.68 1203.1,-46.21 1342.03,-19.46"/>
<polygon fill="#63b8ff" stroke="#63b8ff" points="1342.47,-22.94 1351.61,-17.57 1341.12,-16.07 1342.47,-22.94"/>
</a>
</g>
</g>
<!-- Node29 -->
<g id="Node000029" class="node">
<title>Node29</title>
<g id="a_Node000029"><a xlink:title=" ">
<polygon fill="#e0e0e0" stroke="#999999" points="697.87,-19.25 653.37,-19.25 653.37,0 697.87,0 697.87,-19.25"/>
<text text-anchor="middle" x="675.62" y="-5.75" font-family="Helvetica,sans-Serif" font-size="10.00">cstdlib</text>
</a>
</g>
</g>
<!-- Node25&#45;&gt;Node29 -->
<g id="edge37_Node000025_Node000029" class="edge">
<title>Node25&#45;&gt;Node29</title>
<g id="a_edge37_Node000025_Node000029"><a xlink:title=" ">
<path fill="none" stroke="#63b8ff" d="M960.99,-56.95C958.17,-56.34 955.34,-55.77 952.62,-55.25 847.55,-35.35 816.7,-41.66 709.22,-19.57"/>
<polygon fill="#63b8ff" stroke="#63b8ff" points="710.21,-16.2 699.71,-17.58 708.78,-23.05 710.21,-16.2"/>
</a>
</g>
</g>
<!-- Node30 -->
<g id="Node000030" class="node">
<title>Node30</title>
<g id="a_Node000030"><a xlink:title=" ">
<polygon fill="#e0e0e0" stroke="#999999" points="775.37,-19.25 715.87,-19.25 715.87,0 775.37,0 775.37,-19.25"/>
<text text-anchor="middle" x="745.62" y="-5.75" font-family="Helvetica,sans-Serif" font-size="10.00">execinfo.h</text>
</a>
</g>
</g>
<!-- Node25&#45;&gt;Node30 -->
<g id="edge38_Node000025_Node000030" class="edge">
<title>Node25&#45;&gt;Node30</title>
<g id="a_edge38_Node000025_Node000030"><a xlink:title=" ">
<path fill="none" stroke="#63b8ff" d="M960.95,-57.14C958.13,-56.49 955.32,-55.85 952.62,-55.25 881.45,-39.33 861.04,-35.8 786.71,-19.69"/>
<polygon fill="#63b8ff" stroke="#63b8ff" points="787.84,-16.36 777.33,-17.65 786.36,-23.2 787.84,-16.36"/>
</a>
</g>
</g>
<!-- Node31 -->
<g id="Node000031" class="node">
<title>Node31</title>
<g id="a_Node000031"><a xlink:title=" ">
<polygon fill="#e0e0e0" stroke="#999999" points="843.87,-19.25 793.37,-19.25 793.37,0 843.87,0 843.87,-19.25"/>
<text text-anchor="middle" x="818.62" y="-5.75" font-family="Helvetica,sans-Serif" font-size="10.00">cxxabi.h</text>
</a>
</g>
</g>
<!-- Node25&#45;&gt;Node31 -->
<g id="edge39_Node000025_Node000031" class="edge">
<title>Node25&#45;&gt;Node31</title>
<g id="a_edge39_Node000025_Node000031"><a xlink:title=" ">
<path fill="none" stroke="#63b8ff" d="M961,-54.96C931.95,-45.92 886.88,-31.88 855.25,-22.03"/>
<polygon fill="#63b8ff" stroke="#63b8ff" points="856.29,-18.69 845.7,-19.06 854.21,-25.37 856.29,-18.69"/>
</a>
</g>
</g>
<!-- Node25&#45;&gt;Node32 -->
<g id="edge40_Node000025_Node000032" class="edge">
<title>Node25&#45;&gt;Node32</title>
<g id="a_edge40_Node000025_Node000032"><a xlink:title=" ">
<path fill="none" stroke="#63b8ff" d="M1018.22,-56.76C1021.05,-56.19 1023.88,-55.68 1026.62,-55.25 1221.29,-24.95 1276.48,-49.79 1475.62,-19.08"/>
<polygon fill="#63b8ff" stroke="#63b8ff" points="1475.93,-22.57 1485.26,-17.56 1474.84,-15.66 1475.93,-22.57"/>
</a>
</g>
</g>
<!-- Node33 -->
<g id="Node000033" class="node">
<title>Node33</title>
<g id="a_Node000033"><a xlink:title=" ">
<polygon fill="#e0e0e0" stroke="#999999" points="899.12,-19.25 862.12,-19.25 862.12,0 899.12,0 899.12,-19.25"/>
<text text-anchor="middle" x="880.62" y="-5.75" font-family="Helvetica,sans-Serif" font-size="10.00">array</text>
</a>
</g>
</g>
<!-- Node25&#45;&gt;Node33 -->
<g id="edge41_Node000025_Node000033" class="edge">
<title>Node25&#45;&gt;Node33</title>
<g id="a_edge41_Node000025_Node000033"><a xlink:title=" ">
<path fill="none" stroke="#63b8ff" d="M971.13,-54.84C954.22,-46.58 928.93,-34.23 909.38,-24.68"/>
<polygon fill="#63b8ff" stroke="#63b8ff" points="911.08,-21.61 900.56,-20.37 908.01,-27.9 911.08,-21.61"/>
</a>
</g>
</g>
<!-- Node34 -->
<g id="Node000034" class="node">
<title>Node34</title>
<g id="a_Node000034"><a xlink:title=" ">
<polygon fill="#e0e0e0" stroke="#999999" points="967.87,-19.25 917.37,-19.25 917.37,0 967.87,0 967.87,-19.25"/>
<text text-anchor="middle" x="942.62" y="-5.75" font-family="Helvetica,sans-Serif" font-size="10.00">memory</text>
</a>
</g>
</g>
<!-- Node25&#45;&gt;Node34 -->
<g id="edge42_Node000025_Node000034" class="edge">
<title>Node25&#45;&gt;Node34</title>
<g id="a_edge42_Node000025_Node000034"><a xlink:title=" ">
<path fill="none" stroke="#63b8ff" d="M981.86,-55.08C975.43,-47.8 966.1,-37.23 958.15,-28.23"/>
<polygon fill="#63b8ff" stroke="#63b8ff" points="960.79,-25.93 951.55,-20.74 955.54,-30.56 960.79,-25.93"/>
</a>
</g>
</g>
<!-- Node35 -->
<g id="Node000035" class="node">
<title>Node35</title>
<g id="a_Node000035"><a xlink:title=" ">
<polygon fill="#e0e0e0" stroke="#999999" points="1035.49,-19.25 985.74,-19.25 985.74,0 1035.49,0 1035.49,-19.25"/>
<text text-anchor="middle" x="1010.62" y="-5.75" font-family="Helvetica,sans-Serif" font-size="10.00">unistd.h</text>
</a>
</g>
</g>
<!-- Node25&#45;&gt;Node35 -->
<g id="edge43_Node000025_Node000035" class="edge">
<title>Node25&#45;&gt;Node35</title>
<g id="a_edge43_Node000025_Node000035"><a xlink:title=" ">
<path fill="none" stroke="#63b8ff" d="M993.09,-55.08C995.75,-48.34 999.52,-38.77 1002.88,-30.24"/>
<polygon fill="#63b8ff" stroke="#63b8ff" points="1006.11,-31.6 1006.52,-21.02 999.6,-29.04 1006.11,-31.6"/>
</a>
</g>
</g>
<!-- Node36 -->
<g id="Node000036" class="node">
<title>Node36</title>
<g id="a_Node000036"><a xlink:title=" ">
<polygon fill="#e0e0e0" stroke="#999999" points="1113.37,-19.25 1053.87,-19.25 1053.87,0 1113.37,0 1113.37,-19.25"/>
<text text-anchor="middle" x="1083.62" y="-5.75" font-family="Helvetica,sans-Serif" font-size="10.00">sys/wait.h</text>
</a>
</g>
</g>
<!-- Node25&#45;&gt;Node36 -->
<g id="edge44_Node000025_Node000036" class="edge">
<title>Node25&#45;&gt;Node36</title>
<g id="a_edge44_Node000025_Node000036"><a xlink:title=" ">
<path fill="none" stroke="#63b8ff" d="M1005.56,-54.84C1019.88,-46.73 1041.15,-34.68 1057.87,-25.21"/>
<polygon fill="#63b8ff" stroke="#63b8ff" points="1059.3,-28.42 1066.28,-20.45 1055.85,-22.33 1059.3,-28.42"/>
</a>
</g>
</g>
<!-- Node37 -->
<g id="Node000037" class="node">
<title>Node37</title>
<g id="a_Node000037"><a xlink:title=" ">
<polygon fill="#e0e0e0" stroke="#999999" points="1191.74,-19.25 1131.49,-19.25 1131.49,0 1191.74,0 1191.74,-19.25"/>
<text text-anchor="middle" x="1161.62" y="-5.75" font-family="Helvetica,sans-Serif" font-size="10.00">sys/prctl.h</text>
</a>
</g>
</g>
<!-- Node25&#45;&gt;Node37 -->
<g id="edge45_Node000025_Node000037" class="edge">
<title>Node25&#45;&gt;Node37</title>
<g id="a_edge45_Node000025_Node000037"><a xlink:title=" ">
<path fill="none" stroke="#63b8ff" d="M1018.02,-55.08C1046.27,-46.34 1089.87,-32.84 1121.62,-23.01"/>
<polygon fill="#63b8ff" stroke="#63b8ff" points="1122.35,-26.45 1130.86,-20.15 1120.28,-19.76 1122.35,-26.45"/>
</a>
</g>
</g>
<!-- Node38&#45;&gt;Node18 -->
<g id="edge48_Node000038_Node000018" class="edge">
<title>Node38&#45;&gt;Node18</title>
<g id="a_edge48_Node000038_Node000018"><a xlink:title=" ">
<path fill="none" stroke="#63b8ff" d="M1105.31,-110.8C1064.59,-101.21 997.81,-85.48 955.05,-75.4"/>
<polygon fill="#63b8ff" stroke="#63b8ff" points="955.94,-72.02 945.41,-73.13 954.34,-78.83 955.94,-72.02"/>
</a>
</g>
</g>
<!-- Node38&#45;&gt;Node23 -->
<g id="edge47_Node000038_Node000023" class="edge">
<title>Node38&#45;&gt;Node23</title>
<g id="a_edge47_Node000038_Node000023"><a xlink:title=" ">
<path fill="none" stroke="#63b8ff" d="M1176.04,-111.36C1209.64,-103.57 1261.28,-90.44 1304.62,-74.5 1315.34,-70.56 1375.09,-42.09 1411.73,-24.52"/>
<polygon fill="#63b8ff" stroke="#63b8ff" points="1412.98,-27.8 1420.48,-20.32 1409.95,-21.49 1412.98,-27.8"/>
</a>
</g>
</g>
<!-- Node38&#45;&gt;Node25 -->
<g id="edge53_Node000038_Node000025" class="edge">
<title>Node38&#45;&gt;Node25</title>
<g id="a_edge53_Node000038_Node000025"><a xlink:title=" ">
<path fill="none" stroke="#63b8ff" d="M1115,-110.09C1090.6,-101.49 1053.61,-88.44 1026.12,-78.75"/>
<polygon fill="#63b8ff" stroke="#63b8ff" points="1027.38,-75.48 1016.79,-75.46 1025.05,-82.08 1027.38,-75.48"/>
</a>
</g>
</g>
<!-- Node39 -->
<g id="Node000039" class="node">
<title>Node39</title>
<g id="a_Node000039"><a xlink:title=" ">
<polygon fill="#e0e0e0" stroke="#999999" points="1103.49,-74.5 1035.74,-74.5 1035.74,-55.25 1103.49,-55.25 1103.49,-74.5"/>
<text text-anchor="middle" x="1069.62" y="-61" font-family="Helvetica,sans-Serif" font-size="10.00">TDirectory.h</text>
</a>
</g>
</g>
<!-- Node38&#45;&gt;Node39 -->
<g id="edge49_Node000038_Node000039" class="edge">
<title>Node38&#45;&gt;Node39</title>
<g id="a_edge49_Node000038_Node000039"><a xlink:title=" ">
<path fill="none" stroke="#63b8ff" d="M1128.57,-110.09C1118.21,-102.32 1103.02,-90.92 1090.65,-81.65"/>
<polygon fill="#63b8ff" stroke="#63b8ff" points="1092.8,-78.88 1082.7,-75.68 1088.6,-84.48 1092.8,-78.88"/>
</a>
</g>
</g>
<!-- Node40 -->
<g id="Node000040" class="node">
<title>Node40</title>
<g id="a_Node000040"><a xlink:title=" ">
<polygon fill="#e0e0e0" stroke="#999999" points="1167.24,-74.5 1121.99,-74.5 1121.99,-55.25 1167.24,-55.25 1167.24,-74.5"/>
<text text-anchor="middle" x="1144.62" y="-61" font-family="Helvetica,sans-Serif" font-size="10.00">TFile.h</text>
</a>
</g>
</g>
<!-- Node38&#45;&gt;Node40 -->
<g id="edge50_Node000038_Node000040" class="edge">
<title>Node38&#45;&gt;Node40</title>
<g id="a_edge50_Node000038_Node000040"><a xlink:title=" ">
<path fill="none" stroke="#63b8ff" d="M1141.28,-110.33C1141.77,-103.74 1142.47,-94.46 1143.1,-86.07"/>
<polygon fill="#63b8ff" stroke="#63b8ff" points="1146.57,-86.6 1143.83,-76.37 1139.59,-86.08 1146.57,-86.6"/>
</a>
</g>
</g>
<!-- Node41 -->
<g id="Node000041" class="node">
<title>Node41</title>
<g id="a_Node000041"><a xlink:title=" ">
<polygon fill="#e0e0e0" stroke="#999999" points="1231.62,-74.5 1185.62,-74.5 1185.62,-55.25 1231.62,-55.25 1231.62,-74.5"/>
<text text-anchor="middle" x="1208.62" y="-61" font-family="Helvetica,sans-Serif" font-size="10.00">TList.h</text>
</a>
</g>
</g>
<!-- Node38&#45;&gt;Node41 -->
<g id="edge51_Node000038_Node000041" class="edge">
<title>Node38&#45;&gt;Node41</title>
<g id="a_edge51_Node000038_Node000041"><a xlink:title=" ">
<path fill="none" stroke="#63b8ff" d="M1152.15,-110.09C1162.08,-102.32 1176.63,-90.92 1188.48,-81.65"/>
<polygon fill="#63b8ff" stroke="#63b8ff" points="1190.35,-84.63 1196.06,-75.71 1186.03,-79.12 1190.35,-84.63"/>
</a>
</g>
</g>
<!-- Node42 -->
<g id="Node000042" class="node">
<title>Node42</title>
<g id="a_Node000042"><a xlink:title=" ">
<polygon fill="#e0e0e0" stroke="#999999" points="1295.62,-74.5 1249.62,-74.5 1249.62,-55.25 1295.62,-55.25 1295.62,-74.5"/>
<text text-anchor="middle" x="1272.62" y="-61" font-family="Helvetica,sans-Serif" font-size="10.00">TKey.h</text>
</a>
</g>
</g>
<!-- Node38&#45;&gt;Node42 -->
<g id="edge52_Node000038_Node000042" class="edge">
<title>Node38&#45;&gt;Node42</title>
<g id="a_edge52_Node000038_Node000042"><a xlink:title=" ">
<path fill="none" stroke="#63b8ff" d="M1163.01,-110.09C1184.06,-101.6 1215.82,-88.79 1239.74,-79.14"/>
<polygon fill="#63b8ff" stroke="#63b8ff" points="1240.75,-82.51 1248.71,-75.52 1238.13,-76.01 1240.75,-82.51"/>
</a>
</g>
</g>
<!-- Node43&#45;&gt;Node23 -->
<g id="edge55_Node000043_Node000023" class="edge">
<title>Node43&#45;&gt;Node23</title>
<g id="a_edge55_Node000043_Node000023"><a xlink:title=" ">
<path fill="none" stroke="#63b8ff" d="M787.56,-166.86C790.28,-166.46 792.99,-166.09 795.62,-165.75 967.82,-143.53 1015.19,-167.7 1184.62,-129.75 1209.07,-124.27 1214.04,-118.98 1237.62,-110.5 1282.46,-94.37 1295.73,-95.27 1338.62,-74.5 1367.74,-60.4 1398.95,-39.99 1419.06,-26.06"/>
<polygon fill="#63b8ff" stroke="#63b8ff" points="1420.83,-29.09 1427.01,-20.49 1416.81,-23.36 1420.83,-29.09"/>
</a>
</g>
</g>
<!-- Node44 -->
<g id="Node000044" class="node">
<title>Node44</title>
<g id="a_Node000044"><a xlink:title=" ">
<polygon fill="#e0e0e0" stroke="#999999" points="829.49,-129.75 755.74,-129.75 755.74,-110.5 829.49,-110.5 829.49,-129.75"/>
<text text-anchor="middle" x="792.62" y="-116.25" font-family="Helvetica,sans-Serif" font-size="10.00">RtypesCore.h</text>
</a>
</g>
</g>
<!-- Node43&#45;&gt;Node44 -->
<g id="edge56_Node000043_Node000044" class="edge">
<title>Node43&#45;&gt;Node44</title>
<g id="a_edge56_Node000043_Node000044"><a xlink:title=" ">
<path fill="none" stroke="#63b8ff" d="M751.71,-165.58C758.48,-158.23 768.34,-147.51 776.68,-138.44"/>
<polygon fill="#63b8ff" stroke="#63b8ff" points="779.13,-140.95 783.33,-131.22 773.98,-136.21 779.13,-140.95"/>
</a>
</g>
</g>
</g>
</svg>
