<?xml version="1.0" encoding="UTF-8" standalone="no"?>
<!DOCTYPE svg PUBLIC "-//W3C//DTD SVG 1.1//EN"
 "http://www.w3.org/Graphics/SVG/1.1/DTD/svg11.dtd">
<!-- Generated by graphviz version 12.2.0 (20241103.1931)
 -->
<!-- Title: TFippsLaBrHit.h Pages: 1 -->
<!--zoomable 359 -->

<svg id="main" version="1.1" xmlns="http://www.w3.org/2000/svg" xmlns:xlink="http://www.w3.org/1999/xlink" xml:space="preserve" onload="init(evt)">

<style type="text/css"><![CDATA[
.node, .edge {opacity: 0.7;}
.node.selected, .edge.selected {opacity: 1;}
.edge:hover path { stroke: red; }
.edge:hover polygon { stroke: red; fill: red; }
]]></style>

<defs>
  <circle id="rim" cx="0" cy="0" r="7"/>
  <circle id="rim2" cx="0" cy="0" r="3.5"/>
  <g id="zoomPlus">
    <use xlink:href="#rim" fill="#404040"><set attributeName="fill" to="#808080" begin="zoomplus.mouseover" end="zoomplus.mouseout"/></use>
    <path d="M-4,0h8M0,-4v8" fill="none" stroke="white" stroke-width="1.5" pointer-events="none"/>
  </g>
  <g id="zoomMin">
    <use xlink:href="#rim" fill="#404040"><set attributeName="fill" to="#808080" begin="zoomminus.mouseover" end="zoomminus.mouseout"/></use>
    <path d="M-4,0h8" fill="none" stroke="white" stroke-width="1.5" pointer-events="none"/>
  </g>
  <g id="arrowUp" transform="translate(30 24)">
    <use xlink:href="#rim"/>
    <path pointer-events="none" fill="none" stroke="white" stroke-width="1.5" d="M0,-3.0v7 M-2.5,-0.5L0,-3.0L2.5,-0.5"/>
  </g>
  <g id="arrowRight" transform="rotate(90) translate(36 -43)">
    <use xlink:href="#rim"/>
    <path pointer-events="none" fill="none" stroke="white" stroke-width="1.5" d="M0,-3.0v7 M-2.5,-0.5L0,-3.0L2.5,-0.5"/>
  </g>
  <g id="arrowDown" transform="rotate(180) translate(-30 -48)">
    <use xlink:href="#rim"/>
    <path pointer-events="none" fill="none" stroke="white" stroke-width="1.5" d="M0,-3.0v7 M-2.5,-0.5L0,-3.0L2.5,-0.5"/>
  </g>
  <g id="arrowLeft" transform="rotate(270) translate(-36 17)">
    <use xlink:href="#rim"/>
    <path pointer-events="none" fill="none" stroke="white" stroke-width="1.5" d="M0,-3.0v7 M-2.5,-0.5L0,-3.0L2.5,-0.5"/>
  </g>
  <g id="resetDef">
    <use xlink:href="#rim2" fill="#404040"><set attributeName="fill" to="#808080" begin="reset.mouseover" end="reset.mouseout"/></use>
  </g>
</defs>
<script type="application/ecmascript">
var viewWidth = 1452;
var viewHeight = 359;
var sectionId = 'dynsection-0';
</script>
<script type="application/ecmascript" xlink:href="svg.min.js"/>
<svg id="graph" class="graph">
<g id="viewport">
<title>TFippsLaBrHit.h</title>
<!-- Node1 -->
<g id="Node000001" class="node">
<title>Node1</title>
<g id="a_Node000001"><a xlink:title=" ">
<polygon fill="#999999" stroke="#666666" points="752.71,-350.75 665.46,-350.75 665.46,-331.5 752.71,-331.5 752.71,-350.75"/>
<text text-anchor="middle" x="709.09" y="-337.25" font-family="Helvetica,sans-Serif" font-size="10.00">TFippsLaBrHit.h</text>
</a>
</g>
</g>
<!-- Node2 -->
<g id="Node000002" class="node">
<title>Node2</title>
<g id="a_Node000002"><a xlink:title=" ">
<polygon fill="#e0e0e0" stroke="#999999" points="603.21,-19.25 560.96,-19.25 560.96,0 603.21,0 603.21,-19.25"/>
<text text-anchor="middle" x="582.09" y="-5.75" font-family="Helvetica,sans-Serif" font-size="10.00">cstdio</text>
</a>
</g>
</g>
<!-- Node1&#45;&gt;Node2 -->
<g id="edge1_Node000001_Node000002" class="edge">
<title>Node1&#45;&gt;Node2</title>
<g id="a_edge1_Node000001_Node000002"><a xlink:title=" ">
<path fill="none" stroke="#63b8ff" d="M705.69,-331.31C688.79,-287.47 613.64,-92.49 589.55,-29.98"/>
<polygon fill="#63b8ff" stroke="#63b8ff" points="592.96,-29.1 586.1,-21.03 586.43,-31.62 592.96,-29.1"/>
</a>
</g>
</g>
<!-- Node3 -->
<g id="Node000003" class="node">
<title>Node3</title>
<g id="a_Node000003"><a xlink:title=" ">
<polygon fill="#e0e0e0" stroke="#999999" points="574.59,-129.75 531.59,-129.75 531.59,-110.5 574.59,-110.5 574.59,-129.75"/>
<text text-anchor="middle" x="553.09" y="-116.25" font-family="Helvetica,sans-Serif" font-size="10.00">cmath</text>
</a>
</g>
</g>
<!-- Node1&#45;&gt;Node3 -->
<g id="edge2_Node000001_Node000003" class="edge">
<title>Node1&#45;&gt;Node3</title>
<g id="a_edge2_Node000001_Node000003"><a xlink:title=" ">
<path fill="none" stroke="#63b8ff" d="M665,-336.92C635.59,-332.35 598.51,-321.42 577.09,-295.5 540.15,-250.82 544.78,-176.6 549.65,-141.16"/>
<polygon fill="#63b8ff" stroke="#63b8ff" points="553.08,-141.9 551.15,-131.48 546.16,-140.83 553.08,-141.9"/>
</a>
</g>
</g>
<!-- Node4 -->
<g id="Node000004" class="node">
<title>Node4</title>
<g id="a_Node000004"><a xlink:href="_t_fragment_8h.html" target="_top" xlink:title=" ">
<polygon fill="white" stroke="#666666" points="949.46,-295.5 878.71,-295.5 878.71,-276.25 949.46,-276.25 949.46,-295.5"/>
<text text-anchor="middle" x="914.09" y="-282" font-family="Helvetica,sans-Serif" font-size="10.00">TFragment.h</text>
</a>
</g>
</g>
<!-- Node1&#45;&gt;Node4 -->
<g id="edge3_Node000001_Node000004" class="edge">
<title>Node1&#45;&gt;Node4</title>
<g id="a_edge3_Node000001_Node000004"><a xlink:title=" ">
<path fill="none" stroke="#63b8ff" d="M743.86,-331.09C778.17,-322.18 830.81,-308.51 868.46,-298.73"/>
<polygon fill="#63b8ff" stroke="#63b8ff" points="868.88,-302.23 877.68,-296.33 867.12,-295.46 868.88,-302.23"/>
</a>
</g>
</g>
<!-- Node5 -->
<g id="Node000005" class="node">
<title>Node5</title>
<g id="a_Node000005"><a xlink:href="_t_detector_hit_8h.html" target="_top" xlink:title=" ">
<polygon fill="white" stroke="#666666" points="866.59,-240.25 787.59,-240.25 787.59,-221 866.59,-221 866.59,-240.25"/>
<text text-anchor="middle" x="827.09" y="-226.75" font-family="Helvetica,sans-Serif" font-size="10.00">TDetectorHit.h</text>
</a>
</g>
</g>
<!-- Node1&#45;&gt;Node5 -->
<g id="edge66_Node000001_Node000005" class="edge">
<title>Node1&#45;&gt;Node5</title>
<g id="a_edge66_Node000001_Node000005"><a xlink:title=" ">
<path fill="none" stroke="#63b8ff" d="M718.74,-331.25C738.45,-313.13 783.58,-271.63 808.93,-248.32"/>
<polygon fill="#63b8ff" stroke="#63b8ff" points="811.19,-251 816.18,-241.65 806.45,-245.84 811.19,-251"/>
</a>
</g>
</g>
<!-- Node8 -->
<g id="Node000008" class="node">
<title>Node8</title>
<g id="a_Node000008"><a xlink:href="_t_channel_8h.html" target="_top" xlink:title=" ">
<polygon fill="white" stroke="#666666" points="448.46,-185 383.71,-185 383.71,-165.75 448.46,-165.75 448.46,-185"/>
<text text-anchor="middle" x="416.09" y="-171.5" font-family="Helvetica,sans-Serif" font-size="10.00">TChannel.h</text>
</a>
</g>
</g>
<!-- Node1&#45;&gt;Node8 -->
<g id="edge64_Node000001_Node000008" class="edge">
<title>Node1&#45;&gt;Node8</title>
<g id="a_edge64_Node000001_Node000008"><a xlink:title=" ">
<path fill="none" stroke="#63b8ff" d="M665.22,-334.89C629.45,-329.2 578.57,-317.74 539.09,-295.5 492.24,-269.11 450.18,-220.53 429.54,-194.3"/>
<polygon fill="#63b8ff" stroke="#63b8ff" points="432.51,-192.42 423.63,-186.64 426.96,-196.7 432.51,-192.42"/>
</a>
</g>
</g>
<!-- Node18 -->
<g id="Node000018" class="node">
<title>Node18</title>
<g id="a_Node000018"><a xlink:title=" ">
<polygon fill="#e0e0e0" stroke="#999999" points="1283.71,-185 1220.46,-185 1220.46,-165.75 1283.71,-165.75 1283.71,-185"/>
<text text-anchor="middle" x="1252.09" y="-171.5" font-family="Helvetica,sans-Serif" font-size="10.00">TVector3.h</text>
</a>
</g>
</g>
<!-- Node1&#45;&gt;Node18 -->
<g id="edge65_Node000001_Node000018" class="edge">
<title>Node1&#45;&gt;Node18</title>
<g id="a_edge65_Node000001_Node000018"><a xlink:title=" ">
<path fill="none" stroke="#63b8ff" d="M752.9,-335.07C803.13,-328.64 887.62,-315.85 958.09,-295.5 1058.61,-266.47 1171.85,-214.92 1223.57,-190.26"/>
<polygon fill="#63b8ff" stroke="#63b8ff" points="1224.78,-193.56 1232.28,-186.08 1221.76,-187.25 1224.78,-193.56"/>
</a>
</g>
</g>
<!-- Node4&#45;&gt;Node5 -->
<g id="edge4_Node000004_Node000005" class="edge">
<title>Node4&#45;&gt;Node5</title>
<g id="a_edge4_Node000004_Node000005"><a xlink:title=" ">
<path fill="none" stroke="#63b8ff" d="M899.33,-275.84C886.21,-267.81 866.76,-255.91 851.36,-246.48"/>
<polygon fill="#63b8ff" stroke="#63b8ff" points="853.57,-243.73 843.21,-241.49 849.91,-249.7 853.57,-243.73"/>
</a>
</g>
</g>
<!-- Node6 -->
<g id="Node000006" class="node">
<title>Node6</title>
<g id="a_Node000006"><a xlink:title=" ">
<polygon fill="#e0e0e0" stroke="#999999" points="712.59,-74.5 669.59,-74.5 669.59,-55.25 712.59,-55.25 712.59,-74.5"/>
<text text-anchor="middle" x="691.09" y="-61" font-family="Helvetica,sans-Serif" font-size="10.00">vector</text>
</a>
</g>
</g>
<!-- Node4&#45;&gt;Node6 -->
<g id="edge61_Node000004_Node000006" class="edge">
<title>Node4&#45;&gt;Node6</title>
<g id="a_edge61_Node000004_Node000006"><a xlink:title=" ">
<path fill="none" stroke="#63b8ff" d="M878.58,-281.91C824.9,-275.24 725.2,-253.73 686.09,-185 668.4,-153.91 676.87,-110.51 684.24,-85.59"/>
<polygon fill="#63b8ff" stroke="#63b8ff" points="687.55,-86.72 687.29,-76.13 680.89,-84.57 687.55,-86.72"/>
</a>
</g>
</g>
<!-- Node20 -->
<g id="Node000020" class="node">
<title>Node20</title>
<g id="a_Node000020"><a xlink:title=" ">
<polygon fill="#e0e0e0" stroke="#999999" points="1013.84,-185 960.34,-185 960.34,-165.75 1013.84,-165.75 1013.84,-185"/>
<text text-anchor="middle" x="987.09" y="-171.5" font-family="Helvetica,sans-Serif" font-size="10.00">Rtypes.h</text>
</a>
</g>
</g>
<!-- Node4&#45;&gt;Node20 -->
<g id="edge63_Node000004_Node000020" class="edge">
<title>Node4&#45;&gt;Node20</title>
<g id="a_edge63_Node000004_Node000020"><a xlink:title=" ">
<path fill="none" stroke="#63b8ff" d="M920.06,-276C931.99,-258.27 958.95,-218.19 974.81,-194.63"/>
<polygon fill="#63b8ff" stroke="#63b8ff" points="977.51,-196.88 980.19,-186.63 971.7,-192.98 977.51,-196.88"/>
</a>
</g>
</g>
<!-- Node22 -->
<g id="Node000022" class="node">
<title>Node22</title>
<g id="a_Node000022"><a xlink:href="_t_p_p_g_8h.html" target="_top" xlink:title=" ">
<polygon fill="white" stroke="#666666" points="1089.34,-185 1038.84,-185 1038.84,-165.75 1089.34,-165.75 1089.34,-185"/>
<text text-anchor="middle" x="1064.09" y="-171.5" font-family="Helvetica,sans-Serif" font-size="10.00">TPPG.h</text>
</a>
</g>
</g>
<!-- Node4&#45;&gt;Node22 -->
<g id="edge59_Node000004_Node000022" class="edge">
<title>Node4&#45;&gt;Node22</title>
<g id="a_edge59_Node000004_Node000022"><a xlink:title=" ">
<path fill="none" stroke="#63b8ff" d="M926.62,-275.81C952.27,-257.26 1011.02,-214.76 1042.77,-191.79"/>
<polygon fill="#63b8ff" stroke="#63b8ff" points="1044.42,-194.92 1050.47,-186.22 1040.32,-189.25 1044.42,-194.92"/>
</a>
</g>
</g>
<!-- Node24 -->
<g id="Node000024" class="node">
<title>Node24</title>
<g id="a_Node000024"><a xlink:title=" ">
<polygon fill="#e0e0e0" stroke="#999999" points="1443.84,-19.25 1390.34,-19.25 1390.34,0 1443.84,0 1443.84,-19.25"/>
<text text-anchor="middle" x="1417.09" y="-5.75" font-family="Helvetica,sans-Serif" font-size="10.00">iostream</text>
</a>
</g>
</g>
<!-- Node4&#45;&gt;Node24 -->
<g id="edge60_Node000004_Node000024" class="edge">
<title>Node4&#45;&gt;Node24</title>
<g id="a_edge60_Node000004_Node000024"><a xlink:title=" ">
<path fill="none" stroke="#63b8ff" d="M949.61,-284.92C1065.5,-284.11 1425.09,-273.76 1425.09,-176.38 1425.09,-176.38 1425.09,-176.38 1425.09,-119.12 1425.09,-88.32 1421.84,-52.73 1419.48,-30.96"/>
<polygon fill="#63b8ff" stroke="#63b8ff" points="1422.97,-30.66 1418.37,-21.11 1416.02,-31.44 1422.97,-30.66"/>
</a>
</g>
</g>
<!-- Node45 -->
<g id="Node000045" class="node">
<title>Node45</title>
<g id="a_Node000045"><a xlink:title=" ">
<polygon fill="#e0e0e0" stroke="#999999" points="934.09,-240.25 894.09,-240.25 894.09,-221 934.09,-221 934.09,-240.25"/>
<text text-anchor="middle" x="914.09" y="-226.75" font-family="Helvetica,sans-Serif" font-size="10.00">ctime</text>
</a>
</g>
</g>
<!-- Node4&#45;&gt;Node45 -->
<g id="edge62_Node000004_Node000045" class="edge">
<title>Node4&#45;&gt;Node45</title>
<g id="a_edge62_Node000004_Node000045"><a xlink:title=" ">
<path fill="none" stroke="#63b8ff" d="M914.09,-276.08C914.09,-269.57 914.09,-260.42 914.09,-252.12"/>
<polygon fill="#63b8ff" stroke="#63b8ff" points="917.59,-252.12 914.09,-242.12 910.59,-252.12 917.59,-252.12"/>
</a>
</g>
</g>
<!-- Node5&#45;&gt;Node6 -->
<g id="edge5_Node000005_Node000006" class="edge">
<title>Node5&#45;&gt;Node6</title>
<g id="a_edge5_Node000005_Node000006"><a xlink:title=" ">
<path fill="none" stroke="#63b8ff" d="M819.78,-220.82C798.19,-194.83 734.46,-118.09 705.59,-83.34"/>
<polygon fill="#63b8ff" stroke="#63b8ff" points="708.48,-81.34 699.4,-75.89 703.1,-85.82 708.48,-81.34"/>
</a>
</g>
</g>
<!-- Node7 -->
<g id="Node000007" class="node">
<title>Node7</title>
<g id="a_Node000007"><a xlink:title=" ">
<polygon fill="#e0e0e0" stroke="#999999" points="542.71,-19.25 497.46,-19.25 497.46,0 542.71,0 542.71,-19.25"/>
<text text-anchor="middle" x="520.09" y="-5.75" font-family="Helvetica,sans-Serif" font-size="10.00">cstdint</text>
</a>
</g>
</g>
<!-- Node5&#45;&gt;Node7 -->
<g id="edge6_Node000005_Node000007" class="edge">
<title>Node5&#45;&gt;Node7</title>
<g id="a_edge6_Node000005_Node000007"><a xlink:title=" ">
<path fill="none" stroke="#63b8ff" d="M787.13,-222.58C757.58,-216.09 717.23,-204.45 686.09,-185 617.36,-142.08 557.53,-64.16 532.53,-28.87"/>
<polygon fill="#63b8ff" stroke="#63b8ff" points="535.62,-27.19 527.04,-20.98 529.88,-31.19 535.62,-27.19"/>
</a>
</g>
</g>
<!-- Node5&#45;&gt;Node8 -->
<g id="edge7_Node000005_Node000008" class="edge">
<title>Node5&#45;&gt;Node8</title>
<g id="a_edge7_Node000005_Node000008"><a xlink:title=" ">
<path fill="none" stroke="#63b8ff" d="M787.31,-224.47C710.12,-214.47 540.56,-192.5 460.12,-182.08"/>
<polygon fill="#63b8ff" stroke="#63b8ff" points="460.78,-178.64 450.42,-180.82 459.88,-185.58 460.78,-178.64"/>
</a>
</g>
</g>
<!-- Node5&#45;&gt;Node18 -->
<g id="edge21_Node000005_Node000018" class="edge">
<title>Node5&#45;&gt;Node18</title>
<g id="a_edge21_Node000005_Node000018"><a xlink:title=" ">
<path fill="none" stroke="#63b8ff" d="M867,-223.55C873.06,-222.67 879.24,-221.79 885.09,-221 1002.04,-205.2 1140.31,-189.07 1208.95,-181.24"/>
<polygon fill="#63b8ff" stroke="#63b8ff" points="1209.1,-184.75 1218.64,-180.14 1208.31,-177.79 1209.1,-184.75"/>
</a>
</g>
</g>
<!-- Node19 -->
<g id="Node000019" class="node">
<title>Node19</title>
<g id="a_Node000019"><a xlink:title=" ">
<polygon fill="#e0e0e0" stroke="#999999" points="931.09,-74.5 873.09,-74.5 873.09,-55.25 931.09,-55.25 931.09,-74.5"/>
<text text-anchor="middle" x="902.09" y="-61" font-family="Helvetica,sans-Serif" font-size="10.00">TObject.h</text>
</a>
</g>
</g>
<!-- Node5&#45;&gt;Node19 -->
<g id="edge22_Node000005_Node000019" class="edge">
<title>Node5&#45;&gt;Node19</title>
<g id="a_edge22_Node000005_Node000019"><a xlink:title=" ">
<path fill="none" stroke="#63b8ff" d="M826.4,-220.53C825.26,-199.56 824.88,-146.86 846.09,-110.5 853.04,-98.58 864.49,-88.61 875.24,-81.13"/>
<polygon fill="#63b8ff" stroke="#63b8ff" points="876.98,-84.17 883.48,-75.81 873.18,-78.29 876.98,-84.17"/>
</a>
</g>
</g>
<!-- Node5&#45;&gt;Node20 -->
<g id="edge23_Node000005_Node000020" class="edge">
<title>Node5&#45;&gt;Node20</title>
<g id="a_edge23_Node000005_Node000020"><a xlink:title=" ">
<path fill="none" stroke="#63b8ff" d="M854.23,-220.59C880.4,-211.88 920.22,-198.63 949.45,-188.9"/>
<polygon fill="#63b8ff" stroke="#63b8ff" points="950.26,-192.32 958.64,-185.84 948.05,-185.68 950.26,-192.32"/>
</a>
</g>
</g>
<!-- Node21 -->
<g id="Node000021" class="node">
<title>Node21</title>
<g id="a_Node000021"><a xlink:title=" ">
<polygon fill="#e0e0e0" stroke="#999999" points="760.84,-185 695.34,-185 695.34,-165.75 760.84,-165.75 760.84,-185"/>
<text text-anchor="middle" x="728.09" y="-171.5" font-family="Helvetica,sans-Serif" font-size="10.00">TRandom.h</text>
</a>
</g>
</g>
<!-- Node5&#45;&gt;Node21 -->
<g id="edge24_Node000005_Node000021" class="edge">
<title>Node5&#45;&gt;Node21</title>
<g id="a_edge24_Node000005_Node000021"><a xlink:title=" ">
<path fill="none" stroke="#63b8ff" d="M810.29,-220.59C795.08,-212.41 772.39,-200.21 754.71,-190.69"/>
<polygon fill="#63b8ff" stroke="#63b8ff" points="756.76,-187.82 746.3,-186.17 753.45,-193.99 756.76,-187.82"/>
</a>
</g>
</g>
<!-- Node5&#45;&gt;Node22 -->
<g id="edge25_Node000005_Node000022" class="edge">
<title>Node5&#45;&gt;Node22</title>
<g id="a_edge25_Node000005_Node000022"><a xlink:title=" ">
<path fill="none" stroke="#63b8ff" d="M867.02,-220.65C911.86,-210.58 983.99,-194.37 1027.44,-184.61"/>
<polygon fill="#63b8ff" stroke="#63b8ff" points="1028.15,-188.04 1037.14,-182.43 1026.62,-181.21 1028.15,-188.04"/>
</a>
</g>
</g>
<!-- Node43 -->
<g id="Node000043" class="node">
<title>Node43</title>
<g id="a_Node000043"><a xlink:href="_t_transient_bits_8h.html" target="_top" xlink:title=" ">
<polygon fill="white" stroke="#666666" points="942.71,-185 855.46,-185 855.46,-165.75 942.71,-165.75 942.71,-185"/>
<text text-anchor="middle" x="899.09" y="-171.5" font-family="Helvetica,sans-Serif" font-size="10.00">TTransientBits.h</text>
</a>
</g>
</g>
<!-- Node5&#45;&gt;Node43 -->
<g id="edge56_Node000005_Node000043" class="edge">
<title>Node5&#45;&gt;Node43</title>
<g id="a_edge56_Node000005_Node000043"><a xlink:title=" ">
<path fill="none" stroke="#63b8ff" d="M839.3,-220.59C849.92,-212.74 865.52,-201.2 878.13,-191.87"/>
<polygon fill="#63b8ff" stroke="#63b8ff" points="879.88,-194.94 885.84,-186.17 875.72,-189.31 879.88,-194.94"/>
</a>
</g>
</g>
<!-- Node8&#45;&gt;Node3 -->
<g id="edge9_Node000008_Node000003" class="edge">
<title>Node8&#45;&gt;Node3</title>
<g id="a_edge9_Node000008_Node000003"><a xlink:title=" ">
<path fill="none" stroke="#63b8ff" d="M439.33,-165.34C461.67,-156.66 495.64,-143.45 520.65,-133.73"/>
<polygon fill="#63b8ff" stroke="#63b8ff" points="521.63,-137.11 529.68,-130.22 519.1,-130.58 521.63,-137.11"/>
</a>
</g>
</g>
<!-- Node9 -->
<g id="Node000009" class="node">
<title>Node9</title>
<g id="a_Node000009"><a xlink:title=" ">
<polygon fill="#e0e0e0" stroke="#999999" points="217.09,-19.25 177.09,-19.25 177.09,0 217.09,0 217.09,-19.25"/>
<text text-anchor="middle" x="197.09" y="-5.75" font-family="Helvetica,sans-Serif" font-size="10.00">string</text>
</a>
</g>
</g>
<!-- Node8&#45;&gt;Node9 -->
<g id="edge8_Node000008_Node000009" class="edge">
<title>Node8&#45;&gt;Node9</title>
<g id="a_edge8_Node000008_Node000009"><a xlink:title=" ">
<path fill="none" stroke="#63b8ff" d="M383.3,-173.22C291.3,-169.66 35.81,-157.34 11.09,-129.75 -39.84,-72.9 100.87,-32.44 166.01,-17.25"/>
<polygon fill="#63b8ff" stroke="#63b8ff" points="166.41,-20.75 175.39,-15.12 164.86,-13.92 166.41,-20.75"/>
</a>
</g>
</g>
<!-- Node10 -->
<g id="Node000010" class="node">
<title>Node10</title>
<g id="a_Node000010"><a xlink:title=" ">
<polygon fill="#e0e0e0" stroke="#999999" points="799.34,-129.75 760.84,-129.75 760.84,-110.5 799.34,-110.5 799.34,-129.75"/>
<text text-anchor="middle" x="780.09" y="-116.25" font-family="Helvetica,sans-Serif" font-size="10.00">utility</text>
</a>
</g>
</g>
<!-- Node8&#45;&gt;Node10 -->
<g id="edge10_Node000008_Node000010" class="edge">
<title>Node8&#45;&gt;Node10</title>
<g id="a_edge10_Node000008_Node000010"><a xlink:title=" ">
<path fill="none" stroke="#63b8ff" d="M448.71,-169.6C518.51,-159.39 681.49,-135.55 749.47,-125.6"/>
<polygon fill="#63b8ff" stroke="#63b8ff" points="749.76,-129.1 759.14,-124.19 748.74,-122.17 749.76,-129.1"/>
</a>
</g>
</g>
<!-- Node11 -->
<g id="Node000011" class="node">
<title>Node11</title>
<g id="a_Node000011"><a xlink:title=" ">
<polygon fill="#e0e0e0" stroke="#999999" points="367.46,-129.75 284.71,-129.75 284.71,-110.5 367.46,-110.5 367.46,-129.75"/>
<text text-anchor="middle" x="326.09" y="-116.25" font-family="Helvetica,sans-Serif" font-size="10.00">unordered_map</text>
</a>
</g>
</g>
<!-- Node8&#45;&gt;Node11 -->
<g id="edge11_Node000008_Node000011" class="edge">
<title>Node8&#45;&gt;Node11</title>
<g id="a_edge11_Node000008_Node000011"><a xlink:title=" ">
<path fill="none" stroke="#63b8ff" d="M400.82,-165.34C387.24,-157.31 367.13,-145.41 351.19,-135.98"/>
<polygon fill="#63b8ff" stroke="#63b8ff" points="353.12,-133.05 342.73,-130.97 349.56,-139.08 353.12,-133.05"/>
</a>
</g>
</g>
<!-- Node12 -->
<g id="Node000012" class="node">
<title>Node12</title>
<g id="a_Node000012"><a xlink:title=" ">
<polygon fill="#e0e0e0" stroke="#999999" points="446.59,-129.75 385.59,-129.75 385.59,-110.5 446.59,-110.5 446.59,-129.75"/>
<text text-anchor="middle" x="416.09" y="-116.25" font-family="Helvetica,sans-Serif" font-size="10.00">TNamed.h</text>
</a>
</g>
</g>
<!-- Node8&#45;&gt;Node12 -->
<g id="edge12_Node000008_Node000012" class="edge">
<title>Node8&#45;&gt;Node12</title>
<g id="a_edge12_Node000008_Node000012"><a xlink:title=" ">
<path fill="none" stroke="#63b8ff" d="M416.09,-165.58C416.09,-159.07 416.09,-149.92 416.09,-141.62"/>
<polygon fill="#63b8ff" stroke="#63b8ff" points="419.59,-141.62 416.09,-131.62 412.59,-141.62 419.59,-141.62"/>
</a>
</g>
</g>
<!-- Node13 -->
<g id="Node000013" class="node">
<title>Node13</title>
<g id="a_Node000013"><a xlink:title=" ">
<polygon fill="#e0e0e0" stroke="#999999" points="513.59,-129.75 464.59,-129.75 464.59,-110.5 513.59,-110.5 513.59,-129.75"/>
<text text-anchor="middle" x="489.09" y="-116.25" font-family="Helvetica,sans-Serif" font-size="10.00">TTree.h</text>
</a>
</g>
</g>
<!-- Node8&#45;&gt;Node13 -->
<g id="edge13_Node000008_Node000013" class="edge">
<title>Node8&#45;&gt;Node13</title>
<g id="a_edge13_Node000008_Node000013"><a xlink:title=" ">
<path fill="none" stroke="#63b8ff" d="M428.47,-165.34C439.23,-157.49 455.06,-145.95 467.84,-136.62"/>
<polygon fill="#63b8ff" stroke="#63b8ff" points="469.65,-139.64 475.66,-130.92 465.52,-133.98 469.65,-139.64"/>
</a>
</g>
</g>
<!-- Node14 -->
<g id="Node000014" class="node">
<title>Node14</title>
<g id="a_Node000014"><a xlink:title=" ">
<polygon fill="#e0e0e0" stroke="#999999" points="75.96,-129.75 20.21,-129.75 20.21,-110.5 75.96,-110.5 75.96,-129.75"/>
<text text-anchor="middle" x="48.09" y="-116.25" font-family="Helvetica,sans-Serif" font-size="10.00">TGraph.h</text>
</a>
</g>
</g>
<!-- Node8&#45;&gt;Node14 -->
<g id="edge14_Node000008_Node000014" class="edge">
<title>Node8&#45;&gt;Node14</title>
<g id="a_edge14_Node000008_Node000014"><a xlink:title=" ">
<path fill="none" stroke="#63b8ff" d="M383.51,-171.02C325.83,-164.86 201.81,-150.62 87.35,-130.01"/>
<polygon fill="#63b8ff" stroke="#63b8ff" points="88.27,-126.62 77.8,-128.27 87.01,-133.5 88.27,-126.62"/>
</a>
</g>
</g>
<!-- Node15 -->
<g id="Node000015" class="node">
<title>Node15</title>
<g id="a_Node000015"><a xlink:title=" ">
<polygon fill="#e0e0e0" stroke="#999999" points="163.71,-129.75 94.46,-129.75 94.46,-110.5 163.71,-110.5 163.71,-129.75"/>
<text text-anchor="middle" x="129.09" y="-116.25" font-family="Helvetica,sans-Serif" font-size="10.00">TClassRef.h</text>
</a>
</g>
</g>
<!-- Node8&#45;&gt;Node15 -->
<g id="edge15_Node000008_Node000015" class="edge">
<title>Node8&#45;&gt;Node15</title>
<g id="a_edge15_Node000008_Node000015"><a xlink:title=" ">
<path fill="none" stroke="#63b8ff" d="M383.44,-168.51C338.78,-160.45 255.83,-145.4 175.01,-130.1"/>
<polygon fill="#63b8ff" stroke="#63b8ff" points="176.11,-126.74 165.63,-128.32 174.8,-133.62 176.11,-126.74"/>
</a>
</g>
</g>
<!-- Node16 -->
<g id="Node000016" class="node">
<title>Node16</title>
<g id="a_Node000016"><a xlink:href="_t_priority_value_8h.html" target="_top" xlink:title=" ">
<polygon fill="white" stroke="#666666" points="266.21,-129.75 181.96,-129.75 181.96,-110.5 266.21,-110.5 266.21,-129.75"/>
<text text-anchor="middle" x="224.09" y="-116.25" font-family="Helvetica,sans-Serif" font-size="10.00">TPriorityValue.h</text>
</a>
</g>
</g>
<!-- Node8&#45;&gt;Node16 -->
<g id="edge16_Node000008_Node000016" class="edge">
<title>Node8&#45;&gt;Node16</title>
<g id="a_edge16_Node000008_Node000016"><a xlink:title=" ">
<path fill="none" stroke="#63b8ff" d="M383.52,-165.34C351.66,-156.51 302.93,-142.99 267.73,-133.23"/>
<polygon fill="#63b8ff" stroke="#63b8ff" points="268.85,-129.91 258.28,-130.61 266.98,-136.65 268.85,-129.91"/>
</a>
</g>
</g>
<!-- Node16&#45;&gt;Node6 -->
<g id="edge19_Node000016_Node000006" class="edge">
<title>Node16&#45;&gt;Node6</title>
<g id="a_edge19_Node000016_Node000006"><a xlink:title=" ">
<path fill="none" stroke="#63b8ff" d="M266.62,-111.87C269.82,-111.38 273,-110.92 276.09,-110.5 417.94,-91.13 588.02,-75.08 658.27,-68.76"/>
<polygon fill="#63b8ff" stroke="#63b8ff" points="658.28,-72.27 667.92,-67.9 657.65,-65.3 658.28,-72.27"/>
</a>
</g>
</g>
<!-- Node16&#45;&gt;Node7 -->
<g id="edge20_Node000016_Node000007" class="edge">
<title>Node16&#45;&gt;Node7</title>
<g id="a_edge20_Node000016_Node000007"><a xlink:title=" ">
<path fill="none" stroke="#63b8ff" d="M248.81,-110.06C301.81,-90.63 426.39,-44.97 486.49,-22.94"/>
<polygon fill="#63b8ff" stroke="#63b8ff" points="487.67,-26.24 495.85,-19.51 485.26,-19.66 487.67,-26.24"/>
</a>
</g>
</g>
<!-- Node16&#45;&gt;Node9 -->
<g id="edge18_Node000016_Node000009" class="edge">
<title>Node16&#45;&gt;Node9</title>
<g id="a_edge18_Node000016_Node000009"><a xlink:title=" ">
<path fill="none" stroke="#63b8ff" d="M221.88,-110.25C217.57,-92.92 207.94,-54.23 202.03,-30.49"/>
<polygon fill="#63b8ff" stroke="#63b8ff" points="205.5,-29.95 199.69,-21.1 198.71,-31.64 205.5,-29.95"/>
</a>
</g>
</g>
<!-- Node17 -->
<g id="Node000017" class="node">
<title>Node17</title>
<g id="a_Node000017"><a xlink:title=" ">
<polygon fill="#e0e0e0" stroke="#999999" points="276.71,-74.5 225.46,-74.5 225.46,-55.25 276.71,-55.25 276.71,-74.5"/>
<text text-anchor="middle" x="251.09" y="-61" font-family="Helvetica,sans-Serif" font-size="10.00">ostream</text>
</a>
</g>
</g>
<!-- Node16&#45;&gt;Node17 -->
<g id="edge17_Node000016_Node000017" class="edge">
<title>Node16&#45;&gt;Node17</title>
<g id="a_edge17_Node000016_Node000017"><a xlink:title=" ">
<path fill="none" stroke="#63b8ff" d="M228.55,-110.33C232.04,-103.44 237.04,-93.59 241.44,-84.91"/>
<polygon fill="#63b8ff" stroke="#63b8ff" points="244.45,-86.71 245.85,-76.21 238.2,-83.55 244.45,-86.71"/>
</a>
</g>
</g>
<!-- Node22&#45;&gt;Node7 -->
<g id="edge29_Node000022_Node000007" class="edge">
<title>Node22&#45;&gt;Node7</title>
<g id="a_edge29_Node000022_Node000007"><a xlink:title=" ">
<path fill="none" stroke="#63b8ff" d="M1043.9,-165.26C1024.9,-156.55 995.77,-142.84 971.09,-129.75 956.09,-121.79 953.8,-116.94 938.09,-110.5 778.41,-45.01 725.7,-59.79 554.31,-19.65"/>
<polygon fill="#63b8ff" stroke="#63b8ff" points="555.13,-16.25 544.59,-17.34 553.51,-23.06 555.13,-16.25"/>
</a>
</g>
</g>
<!-- Node22&#45;&gt;Node10 -->
<g id="edge27_Node000022_Node000010" class="edge">
<title>Node22&#45;&gt;Node10</title>
<g id="a_edge27_Node000022_Node000010"><a xlink:title=" ">
<path fill="none" stroke="#63b8ff" d="M1038.52,-168.89C1033.41,-167.82 1028.08,-166.73 1023.09,-165.75 946.98,-150.76 857.14,-134.68 810.95,-126.53"/>
<polygon fill="#63b8ff" stroke="#63b8ff" points="811.59,-123.09 801.14,-124.8 810.38,-129.98 811.59,-123.09"/>
</a>
</g>
</g>
<!-- Node22&#45;&gt;Node19 -->
<g id="edge30_Node000022_Node000019" class="edge">
<title>Node22&#45;&gt;Node19</title>
<g id="a_edge30_Node000022_Node000019"><a xlink:title=" ">
<path fill="none" stroke="#63b8ff" d="M1051.23,-165.37C1033.35,-152.9 999.93,-129.73 971.09,-110.5 956.14,-100.54 939.21,-89.58 925.85,-81.02"/>
<polygon fill="#63b8ff" stroke="#63b8ff" points="928.02,-78.25 917.71,-75.81 924.25,-84.14 928.02,-78.25"/>
</a>
</g>
</g>
<!-- Node23 -->
<g id="Node000023" class="node">
<title>Node23</title>
<g id="a_Node000023"><a xlink:title=" ">
<polygon fill="#e0e0e0" stroke="#999999" points="1221.46,-129.75 1186.71,-129.75 1186.71,-110.5 1221.46,-110.5 1221.46,-129.75"/>
<text text-anchor="middle" x="1204.09" y="-116.25" font-family="Helvetica,sans-Serif" font-size="10.00">map</text>
</a>
</g>
</g>
<!-- Node22&#45;&gt;Node23 -->
<g id="edge26_Node000022_Node000023" class="edge">
<title>Node22&#45;&gt;Node23</title>
<g id="a_edge26_Node000022_Node000023"><a xlink:title=" ">
<path fill="none" stroke="#63b8ff" d="M1087.84,-165.34C1112.16,-156.09 1149.98,-141.7 1175.84,-131.87"/>
<polygon fill="#63b8ff" stroke="#63b8ff" points="1176.93,-135.2 1185.03,-128.37 1174.44,-128.66 1176.93,-135.2"/>
</a>
</g>
</g>
<!-- Node22&#45;&gt;Node24 -->
<g id="edge28_Node000022_Node000024" class="edge">
<title>Node22&#45;&gt;Node24</title>
<g id="a_edge28_Node000022_Node000024"><a xlink:title=" ">
<path fill="none" stroke="#63b8ff" d="M1089.57,-172.24C1146.48,-167.11 1281.97,-152.79 1321.09,-129.75 1362.14,-105.57 1392.8,-56.79 1407.47,-29.76"/>
<polygon fill="#63b8ff" stroke="#63b8ff" points="1410.53,-31.46 1412.06,-20.98 1404.32,-28.22 1410.53,-31.46"/>
</a>
</g>
</g>
<!-- Node25 -->
<g id="Node000025" class="node">
<title>Node25</title>
<g id="a_Node000025"><a xlink:title=" ">
<polygon fill="#e0e0e0" stroke="#999999" points="1312.21,-129.75 1239.96,-129.75 1239.96,-110.5 1312.21,-110.5 1312.21,-129.75"/>
<text text-anchor="middle" x="1276.09" y="-116.25" font-family="Helvetica,sans-Serif" font-size="10.00">TCollection.h</text>
</a>
</g>
</g>
<!-- Node22&#45;&gt;Node25 -->
<g id="edge31_Node000022_Node000025" class="edge">
<title>Node22&#45;&gt;Node25</title>
<g id="a_edge31_Node000022_Node000025"><a xlink:title=" ">
<path fill="none" stroke="#63b8ff" d="M1089.66,-167.95C1124.03,-159.32 1185.77,-143.81 1228.75,-133.02"/>
<polygon fill="#63b8ff" stroke="#63b8ff" points="1229.47,-136.44 1238.31,-130.61 1227.76,-129.65 1229.47,-136.44"/>
</a>
</g>
</g>
<!-- Node26 -->
<g id="Node000026" class="node">
<title>Node26</title>
<g id="a_Node000026"><a xlink:href="_globals_8h.html" target="_top" xlink:title=" ">
<polygon fill="white" stroke="#666666" points="1005.34,-74.5 948.84,-74.5 948.84,-55.25 1005.34,-55.25 1005.34,-74.5"/>
<text text-anchor="middle" x="977.09" y="-61" font-family="Helvetica,sans-Serif" font-size="10.00">Globals.h</text>
</a>
</g>
</g>
<!-- Node22&#45;&gt;Node26 -->
<g id="edge32_Node000022_Node000026" class="edge">
<title>Node22&#45;&gt;Node26</title>
<g id="a_edge32_Node000022_Node000026"><a xlink:title=" ">
<path fill="none" stroke="#63b8ff" d="M1056.97,-165.5C1042.69,-147.69 1010.33,-107.33 991.47,-83.81"/>
<polygon fill="#63b8ff" stroke="#63b8ff" points="994.24,-81.67 985.25,-76.06 988.78,-86.05 994.24,-81.67"/>
</a>
</g>
</g>
<!-- Node38 -->
<g id="Node000038" class="node">
<title>Node38</title>
<g id="a_Node000038"><a xlink:href="_t_singleton_8h.html" target="_top" xlink:title=" ">
<polygon fill="white" stroke="#666666" points="1169.09,-129.75 1099.09,-129.75 1099.09,-110.5 1169.09,-110.5 1169.09,-129.75"/>
<text text-anchor="middle" x="1134.09" y="-116.25" font-family="Helvetica,sans-Serif" font-size="10.00">TSingleton.h</text>
</a>
</g>
</g>
<!-- Node22&#45;&gt;Node38 -->
<g id="edge48_Node000022_Node000038" class="edge">
<title>Node22&#45;&gt;Node38</title>
<g id="a_edge48_Node000022_Node000038"><a xlink:title=" ">
<path fill="none" stroke="#63b8ff" d="M1075.96,-165.34C1086.18,-157.57 1101.16,-146.17 1113.35,-136.9"/>
<polygon fill="#63b8ff" stroke="#63b8ff" points="1115.34,-139.78 1121.18,-130.94 1111.11,-134.21 1115.34,-139.78"/>
</a>
</g>
</g>
<!-- Node26&#45;&gt;Node2 -->
<g id="edge37_Node000026_Node000002" class="edge">
<title>Node26&#45;&gt;Node2</title>
<g id="a_edge37_Node000026_Node000002"><a xlink:title=" ">
<path fill="none" stroke="#63b8ff" d="M948.47,-56.85C945.65,-56.26 942.82,-55.72 940.09,-55.25 799.06,-31.16 757.97,-46.81 614.57,-19.43"/>
<polygon fill="#63b8ff" stroke="#63b8ff" points="615.58,-16.06 605.1,-17.58 614.24,-22.93 615.58,-16.06"/>
</a>
</g>
</g>
<!-- Node26&#45;&gt;Node7 -->
<g id="edge38_Node000026_Node000007" class="edge">
<title>Node26&#45;&gt;Node7</title>
<g id="a_edge38_Node000026_Node000007"><a xlink:title=" ">
<path fill="none" stroke="#63b8ff" d="M948.48,-56.8C945.65,-56.22 942.82,-55.69 940.09,-55.25 772.72,-28.11 724.55,-48.98 554.18,-19.3"/>
<polygon fill="#63b8ff" stroke="#63b8ff" points="555,-15.89 544.54,-17.58 553.78,-22.78 555,-15.89"/>
</a>
</g>
</g>
<!-- Node26&#45;&gt;Node9 -->
<g id="edge36_Node000026_Node000009" class="edge">
<title>Node26&#45;&gt;Node9</title>
<g id="a_edge36_Node000026_Node000009"><a xlink:title=" ">
<path fill="none" stroke="#63b8ff" d="M948.5,-56.71C945.67,-56.15 942.83,-55.65 940.09,-55.25 799.31,-34.76 351.11,-16.51 228.41,-11.8"/>
<polygon fill="#63b8ff" stroke="#63b8ff" points="228.89,-8.32 218.77,-11.43 228.63,-15.31 228.89,-8.32"/>
</a>
</g>
</g>
<!-- Node26&#45;&gt;Node24 -->
<g id="edge33_Node000026_Node000024" class="edge">
<title>Node26&#45;&gt;Node24</title>
<g id="a_edge33_Node000026_Node000024"><a xlink:title=" ">
<path fill="none" stroke="#63b8ff" d="M1005.48,-57.63C1010.02,-56.75 1014.67,-55.92 1019.09,-55.25 1175.34,-31.5 1219.68,-45.48 1378.88,-19.39"/>
<polygon fill="#63b8ff" stroke="#63b8ff" points="1379.26,-22.87 1388.55,-17.77 1378.11,-15.97 1379.26,-22.87"/>
</a>
</g>
</g>
<!-- Node27 -->
<g id="Node000027" class="node">
<title>Node27</title>
<g id="a_Node000027"><a xlink:title=" ">
<polygon fill="#e0e0e0" stroke="#999999" points="1233.96,-19.25 1184.21,-19.25 1184.21,0 1233.96,0 1233.96,-19.25"/>
<text text-anchor="middle" x="1209.09" y="-5.75" font-family="Helvetica,sans-Serif" font-size="10.00">iomanip</text>
</a>
</g>
</g>
<!-- Node26&#45;&gt;Node27 -->
<g id="edge34_Node000026_Node000027" class="edge">
<title>Node26&#45;&gt;Node27</title>
<g id="a_edge34_Node000026_Node000027"><a xlink:title=" ">
<path fill="none" stroke="#63b8ff" d="M1005.67,-57.68C1042.18,-49.72 1107.58,-35.28 1172.94,-19.71"/>
<polygon fill="#63b8ff" stroke="#63b8ff" points="1173.47,-23.19 1182.38,-17.46 1171.84,-16.38 1173.47,-23.19"/>
</a>
</g>
</g>
<!-- Node28 -->
<g id="Node000028" class="node">
<title>Node28</title>
<g id="a_Node000028"><a xlink:title=" ">
<polygon fill="#e0e0e0" stroke="#999999" points="1310.09,-19.25 1252.09,-19.25 1252.09,0 1310.09,0 1310.09,-19.25"/>
<text text-anchor="middle" x="1281.09" y="-5.75" font-family="Helvetica,sans-Serif" font-size="10.00">stdexcept</text>
</a>
</g>
</g>
<!-- Node26&#45;&gt;Node28 -->
<g id="edge35_Node000026_Node000028" class="edge">
<title>Node26&#45;&gt;Node28</title>
<g id="a_edge35_Node000026_Node000028"><a xlink:title=" ">
<path fill="none" stroke="#63b8ff" d="M1005.52,-57.86C1010.05,-56.95 1014.69,-56.05 1019.09,-55.25 1114.79,-37.74 1142.19,-38.35 1240.62,-19.62"/>
<polygon fill="#63b8ff" stroke="#63b8ff" points="1241.02,-23.11 1250.18,-17.78 1239.7,-16.24 1241.02,-23.11"/>
</a>
</g>
</g>
<!-- Node29 -->
<g id="Node000029" class="node">
<title>Node29</title>
<g id="a_Node000029"><a xlink:title=" ">
<polygon fill="#e0e0e0" stroke="#999999" points="1372.34,-19.25 1327.84,-19.25 1327.84,0 1372.34,0 1372.34,-19.25"/>
<text text-anchor="middle" x="1350.09" y="-5.75" font-family="Helvetica,sans-Serif" font-size="10.00">cstdlib</text>
</a>
</g>
</g>
<!-- Node26&#45;&gt;Node29 -->
<g id="edge39_Node000026_Node000029" class="edge">
<title>Node26&#45;&gt;Node29</title>
<g id="a_edge39_Node000026_Node000029"><a xlink:title=" ">
<path fill="none" stroke="#63b8ff" d="M1005.49,-57.71C1010.03,-56.82 1014.68,-55.97 1019.09,-55.25 1148.02,-34.31 1185.33,-44.71 1316.23,-19.55"/>
<polygon fill="#63b8ff" stroke="#63b8ff" points="1316.87,-22.99 1326.01,-17.63 1315.52,-16.12 1316.87,-22.99"/>
</a>
</g>
</g>
<!-- Node30 -->
<g id="Node000030" class="node">
<title>Node30</title>
<g id="a_Node000030"><a xlink:title=" ">
<polygon fill="#e0e0e0" stroke="#999999" points="680.84,-19.25 621.34,-19.25 621.34,0 680.84,0 680.84,-19.25"/>
<text text-anchor="middle" x="651.09" y="-5.75" font-family="Helvetica,sans-Serif" font-size="10.00">execinfo.h</text>
</a>
</g>
</g>
<!-- Node26&#45;&gt;Node30 -->
<g id="edge40_Node000026_Node000030" class="edge">
<title>Node26&#45;&gt;Node30</title>
<g id="a_edge40_Node000026_Node000030"><a xlink:title=" ">
<path fill="none" stroke="#63b8ff" d="M948.46,-56.94C945.63,-56.34 942.81,-55.76 940.09,-55.25 833.32,-35.16 802.49,-39.1 692.53,-19.57"/>
<polygon fill="#63b8ff" stroke="#63b8ff" points="693.23,-16.13 682.77,-17.8 691.98,-23.02 693.23,-16.13"/>
</a>
</g>
</g>
<!-- Node31 -->
<g id="Node000031" class="node">
<title>Node31</title>
<g id="a_Node000031"><a xlink:title=" ">
<polygon fill="#e0e0e0" stroke="#999999" points="749.34,-19.25 698.84,-19.25 698.84,0 749.34,0 749.34,-19.25"/>
<text text-anchor="middle" x="724.09" y="-5.75" font-family="Helvetica,sans-Serif" font-size="10.00">cxxabi.h</text>
</a>
</g>
</g>
<!-- Node26&#45;&gt;Node31 -->
<g id="edge41_Node000026_Node000031" class="edge">
<title>Node26&#45;&gt;Node31</title>
<g id="a_edge41_Node000026_Node000031"><a xlink:title=" ">
<path fill="none" stroke="#63b8ff" d="M948.43,-57.09C945.61,-56.46 942.8,-55.83 940.09,-55.25 862.94,-38.63 840.43,-37.47 760.76,-19.76"/>
<polygon fill="#63b8ff" stroke="#63b8ff" points="761.67,-16.38 751.15,-17.6 760.14,-23.21 761.67,-16.38"/>
</a>
</g>
</g>
<!-- Node32 -->
<g id="Node000032" class="node">
<title>Node32</title>
<g id="a_Node000032"><a xlink:title=" ">
<polygon fill="#e0e0e0" stroke="#999999" points="818.71,-19.25 767.46,-19.25 767.46,0 818.71,0 818.71,-19.25"/>
<text text-anchor="middle" x="793.09" y="-5.75" font-family="Helvetica,sans-Serif" font-size="10.00">sstream</text>
</a>
</g>
</g>
<!-- Node26&#45;&gt;Node32 -->
<g id="edge42_Node000026_Node000032" class="edge">
<title>Node26&#45;&gt;Node32</title>
<g id="a_edge42_Node000026_Node000032"><a xlink:title=" ">
<path fill="none" stroke="#63b8ff" d="M948.34,-55.55C916.32,-46.29 864.51,-31.29 829.64,-21.2"/>
<polygon fill="#63b8ff" stroke="#63b8ff" points="831,-17.95 820.42,-18.53 829.05,-24.68 831,-17.95"/>
</a>
</g>
</g>
<!-- Node33 -->
<g id="Node000033" class="node">
<title>Node33</title>
<g id="a_Node000033"><a xlink:title=" ">
<polygon fill="#e0e0e0" stroke="#999999" points="873.59,-19.25 836.59,-19.25 836.59,0 873.59,0 873.59,-19.25"/>
<text text-anchor="middle" x="855.09" y="-5.75" font-family="Helvetica,sans-Serif" font-size="10.00">array</text>
</a>
</g>
</g>
<!-- Node26&#45;&gt;Node33 -->
<g id="edge43_Node000026_Node000033" class="edge">
<title>Node26&#45;&gt;Node33</title>
<g id="a_edge43_Node000026_Node000033"><a xlink:title=" ">
<path fill="none" stroke="#63b8ff" d="M956.39,-54.84C936.62,-46.21 906.62,-33.12 884.39,-23.42"/>
<polygon fill="#63b8ff" stroke="#63b8ff" points="885.83,-20.22 875.27,-19.43 883.03,-26.64 885.83,-20.22"/>
</a>
</g>
</g>
<!-- Node34 -->
<g id="Node000034" class="node">
<title>Node34</title>
<g id="a_Node000034"><a xlink:title=" ">
<polygon fill="#e0e0e0" stroke="#999999" points="942.34,-19.25 891.84,-19.25 891.84,0 942.34,0 942.34,-19.25"/>
<text text-anchor="middle" x="917.09" y="-5.75" font-family="Helvetica,sans-Serif" font-size="10.00">memory</text>
</a>
</g>
</g>
<!-- Node26&#45;&gt;Node34 -->
<g id="edge44_Node000026_Node000034" class="edge">
<title>Node26&#45;&gt;Node34</title>
<g id="a_edge44_Node000026_Node000034"><a xlink:title=" ">
<path fill="none" stroke="#63b8ff" d="M966.91,-54.84C958.32,-47.22 945.82,-36.12 935.48,-26.95"/>
<polygon fill="#63b8ff" stroke="#63b8ff" points="938.05,-24.55 928.25,-20.53 933.4,-29.79 938.05,-24.55"/>
</a>
</g>
</g>
<!-- Node35 -->
<g id="Node000035" class="node">
<title>Node35</title>
<g id="a_Node000035"><a xlink:title=" ">
<polygon fill="#e0e0e0" stroke="#999999" points="1009.96,-19.25 960.21,-19.25 960.21,0 1009.96,0 1009.96,-19.25"/>
<text text-anchor="middle" x="985.09" y="-5.75" font-family="Helvetica,sans-Serif" font-size="10.00">unistd.h</text>
</a>
</g>
</g>
<!-- Node26&#45;&gt;Node35 -->
<g id="edge45_Node000026_Node000035" class="edge">
<title>Node26&#45;&gt;Node35</title>
<g id="a_edge45_Node000026_Node000035"><a xlink:title=" ">
<path fill="none" stroke="#63b8ff" d="M978.41,-55.08C979.4,-48.49 980.79,-39.21 982.05,-30.82"/>
<polygon fill="#63b8ff" stroke="#63b8ff" points="985.49,-31.51 983.51,-21.11 978.57,-30.47 985.49,-31.51"/>
</a>
</g>
</g>
<!-- Node36 -->
<g id="Node000036" class="node">
<title>Node36</title>
<g id="a_Node000036"><a xlink:title=" ">
<polygon fill="#e0e0e0" stroke="#999999" points="1087.84,-19.25 1028.34,-19.25 1028.34,0 1087.84,0 1087.84,-19.25"/>
<text text-anchor="middle" x="1058.09" y="-5.75" font-family="Helvetica,sans-Serif" font-size="10.00">sys/wait.h</text>
</a>
</g>
</g>
<!-- Node26&#45;&gt;Node36 -->
<g id="edge46_Node000026_Node000036" class="edge">
<title>Node26&#45;&gt;Node36</title>
<g id="a_edge46_Node000026_Node000036"><a xlink:title=" ">
<path fill="none" stroke="#63b8ff" d="M990.83,-54.84C1002.81,-46.96 1020.46,-35.36 1034.67,-26.02"/>
<polygon fill="#63b8ff" stroke="#63b8ff" points="1036.58,-28.95 1043.01,-20.53 1032.74,-23.1 1036.58,-28.95"/>
</a>
</g>
</g>
<!-- Node37 -->
<g id="Node000037" class="node">
<title>Node37</title>
<g id="a_Node000037"><a xlink:title=" ">
<polygon fill="#e0e0e0" stroke="#999999" points="1166.21,-19.25 1105.96,-19.25 1105.96,0 1166.21,0 1166.21,-19.25"/>
<text text-anchor="middle" x="1136.09" y="-5.75" font-family="Helvetica,sans-Serif" font-size="10.00">sys/prctl.h</text>
</a>
</g>
</g>
<!-- Node26&#45;&gt;Node37 -->
<g id="edge47_Node000026_Node000037" class="edge">
<title>Node26&#45;&gt;Node37</title>
<g id="a_edge47_Node000026_Node000037"><a xlink:title=" ">
<path fill="none" stroke="#63b8ff" d="M1004.06,-54.84C1029.99,-46.16 1069.4,-32.96 1098.42,-23.24"/>
<polygon fill="#63b8ff" stroke="#63b8ff" points="1099.18,-26.68 1107.55,-20.18 1096.95,-20.04 1099.18,-26.68"/>
</a>
</g>
</g>
<!-- Node38&#45;&gt;Node19 -->
<g id="edge50_Node000038_Node000019" class="edge">
<title>Node38&#45;&gt;Node19</title>
<g id="a_edge50_Node000038_Node000019"><a xlink:title=" ">
<path fill="none" stroke="#63b8ff" d="M1098.6,-110.98C1056.53,-101.32 986.6,-85.27 942.49,-75.15"/>
<polygon fill="#63b8ff" stroke="#63b8ff" points="943.33,-71.75 932.8,-72.92 941.76,-78.57 943.33,-71.75"/>
</a>
</g>
</g>
<!-- Node38&#45;&gt;Node24 -->
<g id="edge49_Node000038_Node000024" class="edge">
<title>Node38&#45;&gt;Node24</title>
<g id="a_edge49_Node000038_Node000024"><a xlink:title=" ">
<path fill="none" stroke="#63b8ff" d="M1169.27,-111.93C1221.65,-101.09 1315.57,-81.14 1330.09,-74.5 1356.55,-62.41 1382.91,-41.49 1399.56,-26.9"/>
<polygon fill="#63b8ff" stroke="#63b8ff" points="1401.53,-29.84 1406.63,-20.55 1396.85,-24.63 1401.53,-29.84"/>
</a>
</g>
</g>
<!-- Node38&#45;&gt;Node26 -->
<g id="edge55_Node000038_Node000026" class="edge">
<title>Node38&#45;&gt;Node26</title>
<g id="a_edge55_Node000038_Node000026"><a xlink:title=" ">
<path fill="none" stroke="#63b8ff" d="M1107.45,-110.09C1081.97,-101.45 1043.28,-88.32 1014.66,-78.62"/>
<polygon fill="#63b8ff" stroke="#63b8ff" points="1015.88,-75.34 1005.28,-75.44 1013.63,-81.97 1015.88,-75.34"/>
</a>
</g>
</g>
<!-- Node39 -->
<g id="Node000039" class="node">
<title>Node39</title>
<g id="a_Node000039"><a xlink:title=" ">
<polygon fill="#e0e0e0" stroke="#999999" points="1192.96,-74.5 1125.21,-74.5 1125.21,-55.25 1192.96,-55.25 1192.96,-74.5"/>
<text text-anchor="middle" x="1159.09" y="-61" font-family="Helvetica,sans-Serif" font-size="10.00">TDirectory.h</text>
</a>
</g>
</g>
<!-- Node38&#45;&gt;Node39 -->
<g id="edge51_Node000038_Node000039" class="edge">
<title>Node38&#45;&gt;Node39</title>
<g id="a_edge51_Node000038_Node000039"><a xlink:title=" ">
<path fill="none" stroke="#63b8ff" d="M1138.22,-110.33C1141.42,-103.51 1145.97,-93.81 1150.01,-85.2"/>
<polygon fill="#63b8ff" stroke="#63b8ff" points="1153.14,-86.77 1154.23,-76.23 1146.81,-83.79 1153.14,-86.77"/>
</a>
</g>
</g>
<!-- Node40 -->
<g id="Node000040" class="node">
<title>Node40</title>
<g id="a_Node000040"><a xlink:title=" ">
<polygon fill="#e0e0e0" stroke="#999999" points="1256.71,-74.5 1211.46,-74.5 1211.46,-55.25 1256.71,-55.25 1256.71,-74.5"/>
<text text-anchor="middle" x="1234.09" y="-61" font-family="Helvetica,sans-Serif" font-size="10.00">TFile.h</text>
</a>
</g>
</g>
<!-- Node38&#45;&gt;Node40 -->
<g id="edge52_Node000038_Node000040" class="edge">
<title>Node38&#45;&gt;Node40</title>
<g id="a_edge52_Node000038_Node000040"><a xlink:title=" ">
<path fill="none" stroke="#63b8ff" d="M1151.05,-110.09C1166.35,-101.94 1189.12,-89.82 1206.95,-80.33"/>
<polygon fill="#63b8ff" stroke="#63b8ff" points="1208.52,-83.45 1215.7,-75.66 1205.23,-77.27 1208.52,-83.45"/>
</a>
</g>
</g>
<!-- Node41 -->
<g id="Node000041" class="node">
<title>Node41</title>
<g id="a_Node000041"><a xlink:title=" ">
<polygon fill="#e0e0e0" stroke="#999999" points="1321.09,-74.5 1275.09,-74.5 1275.09,-55.25 1321.09,-55.25 1321.09,-74.5"/>
<text text-anchor="middle" x="1298.09" y="-61" font-family="Helvetica,sans-Serif" font-size="10.00">TList.h</text>
</a>
</g>
</g>
<!-- Node38&#45;&gt;Node41 -->
<g id="edge53_Node000038_Node000041" class="edge">
<title>Node38&#45;&gt;Node41</title>
<g id="a_edge53_Node000038_Node000041"><a xlink:title=" ">
<path fill="none" stroke="#63b8ff" d="M1161.91,-110.09C1190.03,-100.96 1233.53,-86.84 1263.77,-77.02"/>
<polygon fill="#63b8ff" stroke="#63b8ff" points="1264.78,-80.37 1273.21,-73.95 1262.62,-73.71 1264.78,-80.37"/>
</a>
</g>
</g>
<!-- Node42 -->
<g id="Node000042" class="node">
<title>Node42</title>
<g id="a_Node000042"><a xlink:title=" ">
<polygon fill="#e0e0e0" stroke="#999999" points="1107.09,-74.5 1061.09,-74.5 1061.09,-55.25 1107.09,-55.25 1107.09,-74.5"/>
<text text-anchor="middle" x="1084.09" y="-61" font-family="Helvetica,sans-Serif" font-size="10.00">TKey.h</text>
</a>
</g>
</g>
<!-- Node38&#45;&gt;Node42 -->
<g id="edge54_Node000038_Node000042" class="edge">
<title>Node38&#45;&gt;Node42</title>
<g id="a_edge54_Node000038_Node000042"><a xlink:title=" ">
<path fill="none" stroke="#63b8ff" d="M1125.83,-110.33C1118.92,-102.98 1108.86,-92.26 1100.35,-83.19"/>
<polygon fill="#63b8ff" stroke="#63b8ff" points="1102.96,-80.86 1093.56,-75.96 1097.85,-85.65 1102.96,-80.86"/>
</a>
</g>
</g>
<!-- Node43&#45;&gt;Node24 -->
<g id="edge57_Node000043_Node000024" class="edge">
<title>Node43&#45;&gt;Node24</title>
<g id="a_edge57_Node000043_Node000024"><a xlink:title=" ">
<path fill="none" stroke="#63b8ff" d="M906.96,-165.5C927.91,-142.57 987.82,-81.31 1052.09,-55.25 1185.07,-1.32 1233.78,-42.32 1378.95,-19.34"/>
<polygon fill="#63b8ff" stroke="#63b8ff" points="1379.26,-22.84 1388.54,-17.74 1378.1,-15.93 1379.26,-22.84"/>
</a>
</g>
</g>
<!-- Node44 -->
<g id="Node000044" class="node">
<title>Node44</title>
<g id="a_Node000044"><a xlink:title=" ">
<polygon fill="#e0e0e0" stroke="#999999" points="928.96,-129.75 855.21,-129.75 855.21,-110.5 928.96,-110.5 928.96,-129.75"/>
<text text-anchor="middle" x="892.09" y="-116.25" font-family="Helvetica,sans-Serif" font-size="10.00">RtypesCore.h</text>
</a>
</g>
</g>
<!-- Node43&#45;&gt;Node44 -->
<g id="edge58_Node000043_Node000044" class="edge">
<title>Node43&#45;&gt;Node44</title>
<g id="a_edge58_Node000043_Node000044"><a xlink:title=" ">
<path fill="none" stroke="#63b8ff" d="M897.93,-165.58C897.07,-158.99 895.84,-149.71 894.74,-141.32"/>
<polygon fill="#63b8ff" stroke="#63b8ff" points="898.24,-141.07 893.47,-131.61 891.3,-141.98 898.24,-141.07"/>
</a>
</g>
</g>
</g>
</svg>

<g id="navigator" transform="translate(0 0)" fill="#404254">
  <rect fill="#f2f5e9" fill-opacity="0.5" stroke="#606060" stroke-width=".5" x="0" y="0" width="60" height="60"/>
  <use id="zoomplus" xlink:href="#zoomPlus" x="17" y="9" onmousedown="handleZoom(evt,'in')"/>
  <use id="zoomminus" xlink:href="#zoomMin" x="42" y="9" onmousedown="handleZoom(evt,'out')"/>
  <use id="reset" xlink:href="#resetDef" x="30" y="36" onmousedown="handleReset()"/>
   <use id="arrowup" xlink:href="#arrowUp" x="0" y="0" onmousedown="handlePan(0,-1)"/>
  <use id="arrowright" xlink:href="#arrowRight" x="0" y="0" onmousedown="handlePan(1,0)"/>
  <use id="arrowdown" xlink:href="#arrowDown" x="0" y="0" onmousedown="handlePan(0,1)"/>
  <use id="arrowleft" xlink:href="#arrowLeft" x="0" y="0" onmousedown="handlePan(-1,0)"/>
</g>
<svg viewBox="0 0 15 15" width="100%" height="30px" preserveAspectRatio="xMaxYMin meet">
 <g id="arrow_out" transform="scale(0.3 0.3)">
  <a xlink:href="_t_fipps_la_br_hit_8h__incl_org.svg" target="_base">
   <rect id="button" ry="5" rx="5" y="6" x="6" height="38" width="38"
        fill="#f2f5e9" fill-opacity="0.5" stroke="#606060" stroke-width="1.0"/>
   <path id="arrow"
     d="M 11.500037,31.436501 C 11.940474,20.09759 22.043105,11.32322 32.158766,21.979434 L 37.068811,17.246167 C 37.068811,17.246167 37.088388,32 37.088388,32 L 22.160133,31.978069 C 22.160133,31.978069 26.997745,27.140456 26.997745,27.140456 C 18.528582,18.264221 13.291696,25.230495 11.500037,31.436501 z"
     style="fill:#404040;"/>
  </a>
 </g>
</svg>

<style type='text/css'>
<![CDATA[
[data-mouse-over-selected='false'] { opacity: 0.7; }
[data-mouse-over-selected='true']  { opacity: 1.0; }
]]>
</style>
<script type="application/ecmascript"><![CDATA[
document.addEventListener('DOMContentLoaded', (event) => {
  highlightEdges();
  highlightAdjacentNodes();
});
]]></script>
</svg>
