<?xml version="1.0" encoding="UTF-8" standalone="no"?>
<!DOCTYPE svg PUBLIC "-//W3C//DTD SVG 1.1//EN"
 "http://www.w3.org/Graphics/SVG/1.1/DTD/svg11.dtd">
<!-- Generated by graphviz version 12.2.0 (20241103.1931)
 -->
<!-- Title: TGainMatch.cxx Pages: 1 -->
<!--zoomable 359 -->

<svg id="main" version="1.1" xmlns="http://www.w3.org/2000/svg" xmlns:xlink="http://www.w3.org/1999/xlink" xml:space="preserve" onload="init(evt)">

<style type="text/css"><![CDATA[
.node, .edge {opacity: 0.7;}
.node.selected, .edge.selected {opacity: 1;}
.edge:hover path { stroke: red; }
.edge:hover polygon { stroke: red; fill: red; }
]]></style>

<defs>
  <circle id="rim" cx="0" cy="0" r="7"/>
  <circle id="rim2" cx="0" cy="0" r="3.5"/>
  <g id="zoomPlus">
    <use xlink:href="#rim" fill="#404040"><set attributeName="fill" to="#808080" begin="zoomplus.mouseover" end="zoomplus.mouseout"/></use>
    <path d="M-4,0h8M0,-4v8" fill="none" stroke="white" stroke-width="1.5" pointer-events="none"/>
  </g>
  <g id="zoomMin">
    <use xlink:href="#rim" fill="#404040"><set attributeName="fill" to="#808080" begin="zoomminus.mouseover" end="zoomminus.mouseout"/></use>
    <path d="M-4,0h8" fill="none" stroke="white" stroke-width="1.5" pointer-events="none"/>
  </g>
  <g id="arrowUp" transform="translate(30 24)">
    <use xlink:href="#rim"/>
    <path pointer-events="none" fill="none" stroke="white" stroke-width="1.5" d="M0,-3.0v7 M-2.5,-0.5L0,-3.0L2.5,-0.5"/>
  </g>
  <g id="arrowRight" transform="rotate(90) translate(36 -43)">
    <use xlink:href="#rim"/>
    <path pointer-events="none" fill="none" stroke="white" stroke-width="1.5" d="M0,-3.0v7 M-2.5,-0.5L0,-3.0L2.5,-0.5"/>
  </g>
  <g id="arrowDown" transform="rotate(180) translate(-30 -48)">
    <use xlink:href="#rim"/>
    <path pointer-events="none" fill="none" stroke="white" stroke-width="1.5" d="M0,-3.0v7 M-2.5,-0.5L0,-3.0L2.5,-0.5"/>
  </g>
  <g id="arrowLeft" transform="rotate(270) translate(-36 17)">
    <use xlink:href="#rim"/>
    <path pointer-events="none" fill="none" stroke="white" stroke-width="1.5" d="M0,-3.0v7 M-2.5,-0.5L0,-3.0L2.5,-0.5"/>
  </g>
  <g id="resetDef">
    <use xlink:href="#rim2" fill="#404040"><set attributeName="fill" to="#808080" begin="reset.mouseover" end="reset.mouseout"/></use>
  </g>
</defs>
<script type="application/ecmascript">
var viewWidth = 1523;
var viewHeight = 359;
var sectionId = 'dynsection-0';
</script>
<script type="application/ecmascript" xlink:href="svg.min.js"/>
<svg id="graph" class="graph">
<g id="viewport">
<title>TGainMatch.cxx</title>
<!-- Node1 -->
<g id="Node000001" class="node">
<title>Node1</title>
<g id="a_Node000001"><a xlink:title=" ">
<polygon fill="#999999" stroke="#666666" points="1289.65,-350.75 1203.9,-350.75 1203.9,-331.5 1289.65,-331.5 1289.65,-350.75"/>
<text text-anchor="middle" x="1246.78" y="-337.25" font-family="Helvetica,sans-Serif" font-size="10.00">TGainMatch.cxx</text>
</a>
</g>
</g>
<!-- Node2 -->
<g id="Node000002" class="node">
<title>Node2</title>
<g id="a_Node000002"><a xlink:href="_t_gain_match_8h.html" target="_top" xlink:title=" ">
<polygon fill="white" stroke="#666666" points="1057.15,-295.5 980.4,-295.5 980.4,-276.25 1057.15,-276.25 1057.15,-295.5"/>
<text text-anchor="middle" x="1018.78" y="-282" font-family="Helvetica,sans-Serif" font-size="10.00">TGainMatch.h</text>
</a>
</g>
</g>
<!-- Node1&#45;&gt;Node2 -->
<g id="edge1_Node000001_Node000002" class="edge">
<title>Node1&#45;&gt;Node2</title>
<g id="a_edge1_Node000001_Node000002"><a xlink:title=" ">
<path fill="none" stroke="#63b8ff" d="M1207.84,-331.03C1169.4,-322.05 1110.44,-308.28 1068.6,-298.51"/>
<polygon fill="#63b8ff" stroke="#63b8ff" points="1069.56,-295.14 1059.03,-296.28 1067.97,-301.96 1069.56,-295.14"/>
</a>
</g>
</g>
<!-- Node33 -->
<g id="Node000033" class="node">
<title>Node33</title>
<g id="a_Node000033"><a xlink:title=" ">
<polygon fill="#e0e0e0" stroke="#999999" points="1229.03,-185 1160.53,-185 1160.53,-165.75 1229.03,-165.75 1229.03,-185"/>
<text text-anchor="middle" x="1194.78" y="-171.5" font-family="Helvetica,sans-Serif" font-size="10.00">TFitResult.h</text>
</a>
</g>
</g>
<!-- Node1&#45;&gt;Node33 -->
<g id="edge55_Node000001_Node000033" class="edge">
<title>Node1&#45;&gt;Node33</title>
<g id="a_edge55_Node000001_Node000033"><a xlink:title=" ">
<path fill="none" stroke="#63b8ff" d="M1236.77,-331.29C1228.08,-322.98 1215.94,-309.72 1209.78,-295.5 1195.73,-263.07 1193.71,-221.35 1193.95,-196.87"/>
<polygon fill="#63b8ff" stroke="#63b8ff" points="1197.44,-197.09 1194.2,-187 1190.45,-196.91 1197.44,-197.09"/>
</a>
</g>
</g>
<!-- Node37 -->
<g id="Node000037" class="node">
<title>Node37</title>
<g id="a_Node000037"><a xlink:title=" ">
<polygon fill="#e0e0e0" stroke="#999999" points="1274.65,-295.5 1218.9,-295.5 1218.9,-276.25 1274.65,-276.25 1274.65,-295.5"/>
<text text-anchor="middle" x="1246.78" y="-282" font-family="Helvetica,sans-Serif" font-size="10.00">algorithm</text>
</a>
</g>
</g>
<!-- Node1&#45;&gt;Node37 -->
<g id="edge52_Node000001_Node000037" class="edge">
<title>Node1&#45;&gt;Node37</title>
<g id="a_edge52_Node000001_Node000037"><a xlink:title=" ">
<path fill="none" stroke="#63b8ff" d="M1246.78,-331.33C1246.78,-324.82 1246.78,-315.67 1246.78,-307.37"/>
<polygon fill="#63b8ff" stroke="#63b8ff" points="1250.28,-307.37 1246.78,-297.37 1243.28,-307.37 1250.28,-307.37"/>
</a>
</g>
</g>
<!-- Node38 -->
<g id="Node000038" class="node">
<title>Node38</title>
<g id="a_Node000038"><a xlink:title=" ">
<polygon fill="#e0e0e0" stroke="#999999" points="1416.4,-295.5 1293.15,-295.5 1293.15,-276.25 1416.4,-276.25 1416.4,-295.5"/>
<text text-anchor="middle" x="1354.78" y="-282" font-family="Helvetica,sans-Serif" font-size="10.00">Math/MinimizerOptions.h</text>
</a>
</g>
</g>
<!-- Node1&#45;&gt;Node38 -->
<g id="edge53_Node000001_Node000038" class="edge">
<title>Node1&#45;&gt;Node38</title>
<g id="a_edge53_Node000001_Node000038"><a xlink:title=" ">
<path fill="none" stroke="#63b8ff" d="M1265.1,-331.09C1281.86,-322.83 1306.91,-310.48 1326.28,-300.93"/>
<polygon fill="#63b8ff" stroke="#63b8ff" points="1327.59,-304.18 1335.01,-296.62 1324.49,-297.9 1327.59,-304.18"/>
</a>
</g>
</g>
<!-- Node39 -->
<g id="Node000039" class="node">
<title>Node39</title>
<g id="a_Node000039"><a xlink:title=" ">
<polygon fill="#e0e0e0" stroke="#999999" points="1514.65,-295.5 1434.9,-295.5 1434.9,-276.25 1514.65,-276.25 1514.65,-295.5"/>
<text text-anchor="middle" x="1474.78" y="-282" font-family="Helvetica,sans-Serif" font-size="10.00">TVirtualFitter.h</text>
</a>
</g>
</g>
<!-- Node1&#45;&gt;Node39 -->
<g id="edge54_Node000001_Node000039" class="edge">
<title>Node1&#45;&gt;Node39</title>
<g id="a_edge54_Node000001_Node000039"><a xlink:title=" ">
<path fill="none" stroke="#63b8ff" d="M1285.71,-331.03C1324.16,-322.05 1383.11,-308.28 1424.95,-298.51"/>
<polygon fill="#63b8ff" stroke="#63b8ff" points="1425.59,-301.96 1434.53,-296.28 1424,-295.14 1425.59,-301.96"/>
</a>
</g>
</g>
<!-- Node3 -->
<g id="Node000003" class="node">
<title>Node3</title>
<g id="a_Node000003"><a xlink:href="_t_cal_8h.html" target="_top" xlink:title=" ">
<polygon fill="white" stroke="#666666" points="749.65,-185 705.9,-185 705.9,-165.75 749.65,-165.75 749.65,-185"/>
<text text-anchor="middle" x="727.78" y="-171.5" font-family="Helvetica,sans-Serif" font-size="10.00">TCal.h</text>
</a>
</g>
</g>
<!-- Node2&#45;&gt;Node3 -->
<g id="edge2_Node000002_Node000003" class="edge">
<title>Node2&#45;&gt;Node3</title>
<g id="a_edge2_Node000002_Node000003"><a xlink:title=" ">
<path fill="none" stroke="#63b8ff" d="M990.06,-275.8C963.01,-267.11 921.42,-253.42 885.78,-240.25 841.59,-223.92 791.24,-203.19 759.5,-189.86"/>
<polygon fill="#63b8ff" stroke="#63b8ff" points="761.05,-186.71 750.48,-186.06 758.33,-193.16 761.05,-186.71"/>
</a>
</g>
</g>
<!-- Node6 -->
<g id="Node000006" class="node">
<title>Node6</title>
<g id="a_Node000006"><a xlink:title=" ">
<polygon fill="#e0e0e0" stroke="#999999" points="1105.15,-129.75 1064.4,-129.75 1064.4,-110.5 1105.15,-110.5 1105.15,-129.75"/>
<text text-anchor="middle" x="1084.78" y="-116.25" font-family="Helvetica,sans-Serif" font-size="10.00">TF1.h</text>
</a>
</g>
</g>
<!-- Node2&#45;&gt;Node6 -->
<g id="edge51_Node000002_Node000006" class="edge">
<title>Node2&#45;&gt;Node6</title>
<g id="a_edge51_Node000002_Node000006"><a xlink:title=" ">
<path fill="none" stroke="#63b8ff" d="M1020.95,-276.06C1024.12,-263.61 1030.44,-240.24 1037.78,-221 1048.8,-192.11 1064.6,-159.97 1074.77,-140.15"/>
<polygon fill="#63b8ff" stroke="#63b8ff" points="1077.83,-141.85 1079.34,-131.36 1071.62,-138.62 1077.83,-141.85"/>
</a>
</g>
</g>
<!-- Node7 -->
<g id="Node000007" class="node">
<title>Node7</title>
<g id="a_Node000007"><a xlink:title=" ">
<polygon fill="#e0e0e0" stroke="#999999" points="935.53,-129.75 864.03,-129.75 864.03,-110.5 935.53,-110.5 935.53,-129.75"/>
<text text-anchor="middle" x="899.78" y="-116.25" font-family="Helvetica,sans-Serif" font-size="10.00">TSpectrum.h</text>
</a>
</g>
</g>
<!-- Node2&#45;&gt;Node7 -->
<g id="edge49_Node000002_Node000007" class="edge">
<title>Node2&#45;&gt;Node7</title>
<g id="a_edge49_Node000002_Node000007"><a xlink:title=" ">
<path fill="none" stroke="#63b8ff" d="M1006.36,-275.87C985.26,-259.91 942.4,-224.62 918.78,-185 910.7,-171.44 905.83,-154.2 903.05,-141.05"/>
<polygon fill="#63b8ff" stroke="#63b8ff" points="906.53,-140.62 901.26,-131.43 899.65,-141.9 906.53,-140.62"/>
</a>
</g>
</g>
<!-- Node30 -->
<g id="Node000030" class="node">
<title>Node30</title>
<g id="a_Node000030"><a xlink:href="_t_cal_manager_8h.html" target="_top" xlink:title=" ">
<polygon fill="white" stroke="#666666" points="735.4,-240.25 654.15,-240.25 654.15,-221 735.4,-221 735.4,-240.25"/>
<text text-anchor="middle" x="694.78" y="-226.75" font-family="Helvetica,sans-Serif" font-size="10.00">TCalManager.h</text>
</a>
</g>
</g>
<!-- Node2&#45;&gt;Node30 -->
<g id="edge34_Node000002_Node000030" class="edge">
<title>Node2&#45;&gt;Node30</title>
<g id="a_edge34_Node000002_Node000030"><a xlink:title=" ">
<path fill="none" stroke="#63b8ff" d="M980.02,-278.5C921.94,-268.96 812.23,-250.93 747.11,-240.23"/>
<polygon fill="#63b8ff" stroke="#63b8ff" points="747.81,-236.79 737.37,-238.63 746.67,-243.7 747.81,-236.79"/>
</a>
</g>
</g>
<!-- Node32 -->
<g id="Node000032" class="node">
<title>Node32</title>
<g id="a_Node000032"><a xlink:href="_t_peak_8h.html" target="_top" xlink:title=" ">
<polygon fill="white" stroke="#666666" points="1158.78,-240.25 1106.78,-240.25 1106.78,-221 1158.78,-221 1158.78,-240.25"/>
<text text-anchor="middle" x="1132.78" y="-226.75" font-family="Helvetica,sans-Serif" font-size="10.00">TPeak.h</text>
</a>
</g>
</g>
<!-- Node2&#45;&gt;Node32 -->
<g id="edge38_Node000002_Node000032" class="edge">
<title>Node2&#45;&gt;Node32</title>
<g id="a_edge38_Node000002_Node000032"><a xlink:title=" ">
<path fill="none" stroke="#63b8ff" d="M1038.12,-275.84C1055.89,-267.54 1082.49,-255.11 1102.98,-245.54"/>
<polygon fill="#63b8ff" stroke="#63b8ff" points="1104.39,-248.75 1111.97,-241.34 1101.43,-242.4 1104.39,-248.75"/>
</a>
</g>
</g>
<!-- Node36 -->
<g id="Node000036" class="node">
<title>Node36</title>
<g id="a_Node000036"><a xlink:title=" ">
<polygon fill="#e0e0e0" stroke="#999999" points="1088.9,-240.25 1046.65,-240.25 1046.65,-221 1088.9,-221 1088.9,-240.25"/>
<text text-anchor="middle" x="1067.78" y="-226.75" font-family="Helvetica,sans-Serif" font-size="10.00">TH2.h</text>
</a>
</g>
</g>
<!-- Node2&#45;&gt;Node36 -->
<g id="edge50_Node000002_Node000036" class="edge">
<title>Node2&#45;&gt;Node36</title>
<g id="a_edge50_Node000002_Node000036"><a xlink:title=" ">
<path fill="none" stroke="#63b8ff" d="M1026.87,-276.08C1033.64,-268.73 1043.5,-258.01 1051.84,-248.94"/>
<polygon fill="#63b8ff" stroke="#63b8ff" points="1054.29,-251.45 1058.49,-241.72 1049.14,-246.71 1054.29,-251.45"/>
</a>
</g>
</g>
<!-- Node4 -->
<g id="Node000004" class="node">
<title>Node4</title>
<g id="a_Node000004"><a xlink:title=" ">
<polygon fill="#e0e0e0" stroke="#999999" points="55.28,-19.25 12.28,-19.25 12.28,0 55.28,0 55.28,-19.25"/>
<text text-anchor="middle" x="33.78" y="-5.75" font-family="Helvetica,sans-Serif" font-size="10.00">vector</text>
</a>
</g>
</g>
<!-- Node3&#45;&gt;Node4 -->
<g id="edge3_Node000003_Node000004" class="edge">
<title>Node3&#45;&gt;Node4</title>
<g id="a_edge3_Node000003_Node000004"><a xlink:title=" ">
<path fill="none" stroke="#63b8ff" d="M705.55,-167.63C702.62,-166.91 699.64,-166.25 696.78,-165.75 491.32,-129.62 434.75,-162.84 228.78,-129.75 127.54,-113.48 68.01,-155.22 4.78,-74.5 -6.21,-60.48 4.83,-41.63 16.3,-28.05"/>
<polygon fill="#63b8ff" stroke="#63b8ff" points="18.84,-30.46 23.03,-20.72 13.69,-25.72 18.84,-30.46"/>
</a>
</g>
</g>
<!-- Node5 -->
<g id="Node000005" class="node">
<title>Node5</title>
<g id="a_Node000005"><a xlink:title=" ">
<polygon fill="#e0e0e0" stroke="#999999" points="845.9,-129.75 803.65,-129.75 803.65,-110.5 845.9,-110.5 845.9,-129.75"/>
<text text-anchor="middle" x="824.78" y="-116.25" font-family="Helvetica,sans-Serif" font-size="10.00">TH1.h</text>
</a>
</g>
</g>
<!-- Node3&#45;&gt;Node5 -->
<g id="edge4_Node000003_Node000005" class="edge">
<title>Node3&#45;&gt;Node5</title>
<g id="a_edge4_Node000003_Node000005"><a xlink:title=" ">
<path fill="none" stroke="#63b8ff" d="M744.23,-165.34C759,-157.23 780.95,-145.18 798.21,-135.71"/>
<polygon fill="#63b8ff" stroke="#63b8ff" points="799.83,-138.81 806.92,-130.93 796.47,-132.68 799.83,-138.81"/>
</a>
</g>
</g>
<!-- Node3&#45;&gt;Node6 -->
<g id="edge5_Node000003_Node000006" class="edge">
<title>Node3&#45;&gt;Node6</title>
<g id="a_edge5_Node000003_Node000006"><a xlink:title=" ">
<path fill="none" stroke="#63b8ff" d="M750.11,-171.04C811.29,-161.92 981.78,-136.49 1052.94,-125.87"/>
<polygon fill="#63b8ff" stroke="#63b8ff" points="1053.38,-129.35 1062.76,-124.41 1052.35,-122.42 1053.38,-129.35"/>
</a>
</g>
</g>
<!-- Node3&#45;&gt;Node7 -->
<g id="edge6_Node000003_Node000007" class="edge">
<title>Node3&#45;&gt;Node7</title>
<g id="a_edge6_Node000003_Node000007"><a xlink:title=" ">
<path fill="none" stroke="#63b8ff" d="M749.91,-167.52C777.67,-158.93 825.75,-144.04 859.97,-133.45"/>
<polygon fill="#63b8ff" stroke="#63b8ff" points="860.58,-136.92 869.1,-130.62 858.51,-130.24 860.58,-136.92"/>
</a>
</g>
</g>
<!-- Node8 -->
<g id="Node000008" class="node">
<title>Node8</title>
<g id="a_Node000008"><a xlink:title=" ">
<polygon fill="#e0e0e0" stroke="#999999" points="314.15,-129.75 237.4,-129.75 237.4,-110.5 314.15,-110.5 314.15,-129.75"/>
<text text-anchor="middle" x="275.78" y="-116.25" font-family="Helvetica,sans-Serif" font-size="10.00">TMultiGraph.h</text>
</a>
</g>
</g>
<!-- Node3&#45;&gt;Node8 -->
<g id="edge7_Node000003_Node000008" class="edge">
<title>Node3&#45;&gt;Node8</title>
<g id="a_edge7_Node000003_Node000008"><a xlink:title=" ">
<path fill="none" stroke="#63b8ff" d="M705.54,-167.68C702.61,-166.95 699.63,-166.28 696.78,-165.75 536.12,-135.91 490.13,-152.11 325.48,-130.01"/>
<polygon fill="#63b8ff" stroke="#63b8ff" points="326.35,-126.59 315.96,-128.7 325.4,-133.53 326.35,-126.59"/>
</a>
</g>
</g>
<!-- Node9 -->
<g id="Node000009" class="node">
<title>Node9</title>
<g id="a_Node000009"><a xlink:title=" ">
<polygon fill="#e0e0e0" stroke="#999999" points="413.4,-129.75 332.15,-129.75 332.15,-110.5 413.4,-110.5 413.4,-129.75"/>
<text text-anchor="middle" x="372.78" y="-116.25" font-family="Helvetica,sans-Serif" font-size="10.00">TGraphErrors.h</text>
</a>
</g>
</g>
<!-- Node3&#45;&gt;Node9 -->
<g id="edge8_Node000003_Node000009" class="edge">
<title>Node3&#45;&gt;Node9</title>
<g id="a_edge8_Node000003_Node000009"><a xlink:title=" ">
<path fill="none" stroke="#63b8ff" d="M705.52,-167.78C702.59,-167.03 699.62,-166.33 696.78,-165.75 579.95,-141.95 546.17,-147.81 424.91,-130"/>
<polygon fill="#63b8ff" stroke="#63b8ff" points="425.59,-126.56 415.18,-128.54 424.56,-133.48 425.59,-126.56"/>
</a>
</g>
</g>
<!-- Node10 -->
<g id="Node000010" class="node">
<title>Node10</title>
<g id="a_Node000010"><a xlink:title=" ">
<polygon fill="#e0e0e0" stroke="#999999" points="786.03,-129.75 741.53,-129.75 741.53,-110.5 786.03,-110.5 786.03,-129.75"/>
<text text-anchor="middle" x="763.78" y="-116.25" font-family="Helvetica,sans-Serif" font-size="10.00">TRef.h</text>
</a>
</g>
</g>
<!-- Node3&#45;&gt;Node10 -->
<g id="edge9_Node000003_Node000010" class="edge">
<title>Node3&#45;&gt;Node10</title>
<g id="a_edge9_Node000003_Node000010"><a xlink:title=" ">
<path fill="none" stroke="#63b8ff" d="M733.72,-165.58C738.49,-158.53 745.34,-148.4 751.3,-139.58"/>
<polygon fill="#63b8ff" stroke="#63b8ff" points="754.16,-141.61 756.86,-131.36 748.36,-137.69 754.16,-141.61"/>
</a>
</g>
</g>
<!-- Node11 -->
<g id="Node000011" class="node">
<title>Node11</title>
<g id="a_Node000011"><a xlink:href="_t_channel_8h.html" target="_top" xlink:title=" ">
<polygon fill="white" stroke="#666666" points="496.15,-129.75 431.4,-129.75 431.4,-110.5 496.15,-110.5 496.15,-129.75"/>
<text text-anchor="middle" x="463.78" y="-116.25" font-family="Helvetica,sans-Serif" font-size="10.00">TChannel.h</text>
</a>
</g>
</g>
<!-- Node3&#45;&gt;Node11 -->
<g id="edge10_Node000003_Node000011" class="edge">
<title>Node3&#45;&gt;Node11</title>
<g id="a_edge10_Node000003_Node000011"><a xlink:title=" ">
<path fill="none" stroke="#63b8ff" d="M705.48,-167.94C702.56,-167.16 699.61,-166.41 696.78,-165.75 631.35,-150.41 554.67,-136.5 507.66,-128.42"/>
<polygon fill="#63b8ff" stroke="#63b8ff" points="508.31,-124.98 497.86,-126.75 507.13,-131.88 508.31,-124.98"/>
</a>
</g>
</g>
<!-- Node23 -->
<g id="Node000023" class="node">
<title>Node23</title>
<g id="a_Node000023"><a xlink:href="_t_nucleus_8h.html" target="_top" xlink:title=" ">
<polygon fill="white" stroke="#666666" points="723.53,-129.75 658.03,-129.75 658.03,-110.5 723.53,-110.5 723.53,-129.75"/>
<text text-anchor="middle" x="690.78" y="-116.25" font-family="Helvetica,sans-Serif" font-size="10.00">TNucleus.h</text>
</a>
</g>
</g>
<!-- Node3&#45;&gt;Node23 -->
<g id="edge24_Node000003_Node000023" class="edge">
<title>Node3&#45;&gt;Node23</title>
<g id="a_edge24_Node000003_Node000023"><a xlink:title=" ">
<path fill="none" stroke="#63b8ff" d="M721.67,-165.58C716.72,-158.46 709.57,-148.18 703.4,-139.3"/>
<polygon fill="#63b8ff" stroke="#63b8ff" points="706.46,-137.57 697.88,-131.35 700.72,-141.56 706.46,-137.57"/>
</a>
</g>
</g>
<!-- Node12 -->
<g id="Node000012" class="node">
<title>Node12</title>
<g id="a_Node000012"><a xlink:title=" ">
<polygon fill="#e0e0e0" stroke="#999999" points="458.78,-19.25 418.78,-19.25 418.78,0 458.78,0 458.78,-19.25"/>
<text text-anchor="middle" x="438.78" y="-5.75" font-family="Helvetica,sans-Serif" font-size="10.00">string</text>
</a>
</g>
</g>
<!-- Node11&#45;&gt;Node12 -->
<g id="edge11_Node000011_Node000012" class="edge">
<title>Node11&#45;&gt;Node12</title>
<g id="a_edge11_Node000011_Node000012"><a xlink:title=" ">
<path fill="none" stroke="#63b8ff" d="M461.73,-110.25C457.76,-93 448.91,-54.58 443.43,-30.81"/>
<polygon fill="#63b8ff" stroke="#63b8ff" points="446.85,-30.06 441.19,-21.1 440.03,-31.63 446.85,-30.06"/>
</a>
</g>
</g>
<!-- Node13 -->
<g id="Node000013" class="node">
<title>Node13</title>
<g id="a_Node000013"><a xlink:title=" ">
<polygon fill="#e0e0e0" stroke="#999999" points="510.28,-74.5 467.28,-74.5 467.28,-55.25 510.28,-55.25 510.28,-74.5"/>
<text text-anchor="middle" x="488.78" y="-61" font-family="Helvetica,sans-Serif" font-size="10.00">cmath</text>
</a>
</g>
</g>
<!-- Node11&#45;&gt;Node13 -->
<g id="edge12_Node000011_Node000013" class="edge">
<title>Node11&#45;&gt;Node13</title>
<g id="a_edge12_Node000011_Node000013"><a xlink:title=" ">
<path fill="none" stroke="#63b8ff" d="M467.91,-110.33C471.11,-103.51 475.67,-93.81 479.71,-85.2"/>
<polygon fill="#63b8ff" stroke="#63b8ff" points="482.84,-86.77 483.92,-76.23 476.5,-83.79 482.84,-86.77"/>
</a>
</g>
</g>
<!-- Node14 -->
<g id="Node000014" class="node">
<title>Node14</title>
<g id="a_Node000014"><a xlink:title=" ">
<polygon fill="#e0e0e0" stroke="#999999" points="242.03,-74.5 203.53,-74.5 203.53,-55.25 242.03,-55.25 242.03,-74.5"/>
<text text-anchor="middle" x="222.78" y="-61" font-family="Helvetica,sans-Serif" font-size="10.00">utility</text>
</a>
</g>
</g>
<!-- Node11&#45;&gt;Node14 -->
<g id="edge13_Node000011_Node000014" class="edge">
<title>Node11&#45;&gt;Node14</title>
<g id="a_edge13_Node000011_Node000014"><a xlink:title=" ">
<path fill="none" stroke="#63b8ff" d="M431.32,-112.3C380.74,-101.67 286.11,-81.77 253.24,-74.46"/>
<polygon fill="#63b8ff" stroke="#63b8ff" points="254.38,-71.13 243.85,-72.28 252.8,-77.95 254.38,-71.13"/>
</a>
</g>
</g>
<!-- Node15 -->
<g id="Node000015" class="node">
<title>Node15</title>
<g id="a_Node000015"><a xlink:title=" ">
<polygon fill="#e0e0e0" stroke="#999999" points="343.15,-74.5 260.4,-74.5 260.4,-55.25 343.15,-55.25 343.15,-74.5"/>
<text text-anchor="middle" x="301.78" y="-61" font-family="Helvetica,sans-Serif" font-size="10.00">unordered_map</text>
</a>
</g>
</g>
<!-- Node11&#45;&gt;Node15 -->
<g id="edge14_Node000011_Node000015" class="edge">
<title>Node11&#45;&gt;Node15</title>
<g id="a_edge14_Node000011_Node000015"><a xlink:title=" ">
<path fill="none" stroke="#63b8ff" d="M436.3,-110.09C409.88,-101.41 369.72,-88.21 340.16,-78.49"/>
<polygon fill="#63b8ff" stroke="#63b8ff" points="341.42,-75.22 330.83,-75.43 339.24,-81.87 341.42,-75.22"/>
</a>
</g>
</g>
<!-- Node16 -->
<g id="Node000016" class="node">
<title>Node16</title>
<g id="a_Node000016"><a xlink:title=" ">
<polygon fill="#e0e0e0" stroke="#999999" points="589.28,-74.5 528.28,-74.5 528.28,-55.25 589.28,-55.25 589.28,-74.5"/>
<text text-anchor="middle" x="558.78" y="-61" font-family="Helvetica,sans-Serif" font-size="10.00">TNamed.h</text>
</a>
</g>
</g>
<!-- Node11&#45;&gt;Node16 -->
<g id="edge15_Node000011_Node000016" class="edge">
<title>Node11&#45;&gt;Node16</title>
<g id="a_edge15_Node000011_Node000016"><a xlink:title=" ">
<path fill="none" stroke="#63b8ff" d="M479.89,-110.09C494.36,-101.98 515.86,-89.93 532.76,-80.46"/>
<polygon fill="#63b8ff" stroke="#63b8ff" points="534.25,-83.64 541.26,-75.69 530.83,-77.53 534.25,-83.64"/>
</a>
</g>
</g>
<!-- Node17 -->
<g id="Node000017" class="node">
<title>Node17</title>
<g id="a_Node000017"><a xlink:title=" ">
<polygon fill="#e0e0e0" stroke="#999999" points="410.28,-74.5 361.28,-74.5 361.28,-55.25 410.28,-55.25 410.28,-74.5"/>
<text text-anchor="middle" x="385.78" y="-61" font-family="Helvetica,sans-Serif" font-size="10.00">TTree.h</text>
</a>
</g>
</g>
<!-- Node11&#45;&gt;Node17 -->
<g id="edge16_Node000011_Node000017" class="edge">
<title>Node11&#45;&gt;Node17</title>
<g id="a_edge16_Node000011_Node000017"><a xlink:title=" ">
<path fill="none" stroke="#63b8ff" d="M450.55,-110.09C439,-102.21 422.01,-90.61 408.33,-81.27"/>
<polygon fill="#63b8ff" stroke="#63b8ff" points="410.56,-78.55 400.32,-75.81 406.61,-84.33 410.56,-78.55"/>
</a>
</g>
</g>
<!-- Node18 -->
<g id="Node000018" class="node">
<title>Node18</title>
<g id="a_Node000018"><a xlink:title=" ">
<polygon fill="#e0e0e0" stroke="#999999" points="662.65,-74.5 606.9,-74.5 606.9,-55.25 662.65,-55.25 662.65,-74.5"/>
<text text-anchor="middle" x="634.78" y="-61" font-family="Helvetica,sans-Serif" font-size="10.00">TGraph.h</text>
</a>
</g>
</g>
<!-- Node11&#45;&gt;Node18 -->
<g id="edge17_Node000011_Node000018" class="edge">
<title>Node11&#45;&gt;Node18</title>
<g id="a_edge17_Node000011_Node000018"><a xlink:title=" ">
<path fill="none" stroke="#63b8ff" d="M492.79,-110.09C521.05,-101.29 564.21,-87.85 595.53,-78.1"/>
<polygon fill="#63b8ff" stroke="#63b8ff" points="596.53,-81.45 605.04,-75.14 594.45,-74.77 596.53,-81.45"/>
</a>
</g>
</g>
<!-- Node19 -->
<g id="Node000019" class="node">
<title>Node19</title>
<g id="a_Node000019"><a xlink:title=" ">
<polygon fill="#e0e0e0" stroke="#999999" points="83.4,-74.5 14.15,-74.5 14.15,-55.25 83.4,-55.25 83.4,-74.5"/>
<text text-anchor="middle" x="48.78" y="-61" font-family="Helvetica,sans-Serif" font-size="10.00">TClassRef.h</text>
</a>
</g>
</g>
<!-- Node11&#45;&gt;Node19 -->
<g id="edge18_Node000011_Node000019" class="edge">
<title>Node11&#45;&gt;Node19</title>
<g id="a_edge18_Node000011_Node000019"><a xlink:title=" ">
<path fill="none" stroke="#63b8ff" d="M431.16,-111.96C428.33,-111.43 425.51,-110.93 422.78,-110.5 280.64,-87.85 240.57,-96.27 94.93,-74.69"/>
<polygon fill="#63b8ff" stroke="#63b8ff" points="95.7,-71.27 85.29,-73.24 94.66,-78.19 95.7,-71.27"/>
</a>
</g>
</g>
<!-- Node20 -->
<g id="Node000020" class="node">
<title>Node20</title>
<g id="a_Node000020"><a xlink:href="_t_priority_value_8h.html" target="_top" xlink:title=" ">
<polygon fill="white" stroke="#666666" points="185.9,-74.5 101.65,-74.5 101.65,-55.25 185.9,-55.25 185.9,-74.5"/>
<text text-anchor="middle" x="143.78" y="-61" font-family="Helvetica,sans-Serif" font-size="10.00">TPriorityValue.h</text>
</a>
</g>
</g>
<!-- Node11&#45;&gt;Node20 -->
<g id="edge19_Node000011_Node000020" class="edge">
<title>Node11&#45;&gt;Node20</title>
<g id="a_edge19_Node000011_Node000020"><a xlink:title=" ">
<path fill="none" stroke="#63b8ff" d="M431.13,-112.1C428.31,-111.54 425.5,-111 422.78,-110.5 325.43,-92.59 297.93,-91.14 197.61,-74.94"/>
<polygon fill="#63b8ff" stroke="#63b8ff" points="198.27,-71.5 187.84,-73.35 197.15,-78.41 198.27,-71.5"/>
</a>
</g>
</g>
<!-- Node20&#45;&gt;Node4 -->
<g id="edge22_Node000020_Node000004" class="edge">
<title>Node20&#45;&gt;Node4</title>
<g id="a_edge22_Node000020_Node000004"><a xlink:title=" ">
<path fill="none" stroke="#63b8ff" d="M125.12,-54.84C108.05,-46.58 82.53,-34.23 62.8,-24.68"/>
<polygon fill="#63b8ff" stroke="#63b8ff" points="64.42,-21.57 53.89,-20.36 61.37,-27.87 64.42,-21.57"/>
</a>
</g>
</g>
<!-- Node20&#45;&gt;Node12 -->
<g id="edge21_Node000020_Node000012" class="edge">
<title>Node20&#45;&gt;Node12</title>
<g id="a_edge21_Node000020_Node000012"><a xlink:title=" ">
<path fill="none" stroke="#63b8ff" d="M186.36,-56.19C246.29,-45.37 354.13,-25.9 407.34,-16.3"/>
<polygon fill="#63b8ff" stroke="#63b8ff" points="407.72,-19.79 416.94,-14.57 406.47,-12.9 407.72,-19.79"/>
</a>
</g>
</g>
<!-- Node21 -->
<g id="Node000021" class="node">
<title>Node21</title>
<g id="a_Node000021"><a xlink:title=" ">
<polygon fill="#e0e0e0" stroke="#999999" points="202.4,-19.25 151.15,-19.25 151.15,0 202.4,0 202.4,-19.25"/>
<text text-anchor="middle" x="176.78" y="-5.75" font-family="Helvetica,sans-Serif" font-size="10.00">ostream</text>
</a>
</g>
</g>
<!-- Node20&#45;&gt;Node21 -->
<g id="edge20_Node000020_Node000021" class="edge">
<title>Node20&#45;&gt;Node21</title>
<g id="a_edge20_Node000020_Node000021"><a xlink:title=" ">
<path fill="none" stroke="#63b8ff" d="M149.23,-55.08C153.55,-48.11 159.74,-38.12 165.16,-29.37"/>
<polygon fill="#63b8ff" stroke="#63b8ff" points="168.12,-31.24 170.41,-20.9 162.17,-27.55 168.12,-31.24"/>
</a>
</g>
</g>
<!-- Node22 -->
<g id="Node000022" class="node">
<title>Node22</title>
<g id="a_Node000022"><a xlink:title=" ">
<polygon fill="#e0e0e0" stroke="#999999" points="133.4,-19.25 88.15,-19.25 88.15,0 133.4,0 133.4,-19.25"/>
<text text-anchor="middle" x="110.78" y="-5.75" font-family="Helvetica,sans-Serif" font-size="10.00">cstdint</text>
</a>
</g>
</g>
<!-- Node20&#45;&gt;Node22 -->
<g id="edge23_Node000020_Node000022" class="edge">
<title>Node20&#45;&gt;Node22</title>
<g id="a_edge23_Node000020_Node000022"><a xlink:title=" ">
<path fill="none" stroke="#63b8ff" d="M138.33,-55.08C134.01,-48.11 127.82,-38.12 122.4,-29.37"/>
<polygon fill="#63b8ff" stroke="#63b8ff" points="125.39,-27.55 117.14,-20.9 119.44,-31.24 125.39,-27.55"/>
</a>
</g>
</g>
<!-- Node23&#45;&gt;Node12 -->
<g id="edge28_Node000023_Node000012" class="edge">
<title>Node23&#45;&gt;Node12</title>
<g id="a_edge28_Node000023_Node000012"><a xlink:title=" ">
<path fill="none" stroke="#63b8ff" d="M690.86,-110.2C690.47,-96.28 687.56,-69.53 671.78,-55.25 642.61,-28.86 527.28,-17.01 470.58,-12.69"/>
<polygon fill="#63b8ff" stroke="#63b8ff" points="470.84,-9.2 460.62,-11.97 470.34,-16.18 470.84,-9.2"/>
</a>
</g>
</g>
<!-- Node23&#45;&gt;Node13 -->
<g id="edge25_Node000023_Node000013" class="edge">
<title>Node23&#45;&gt;Node13</title>
<g id="a_edge25_Node000023_Node000013"><a xlink:title=" ">
<path fill="none" stroke="#63b8ff" d="M657.74,-110.82C625.29,-102.62 574.12,-89.51 521.59,-75.22"/>
<polygon fill="#63b8ff" stroke="#63b8ff" points="522.74,-71.91 512.17,-72.65 520.9,-78.66 522.74,-71.91"/>
</a>
</g>
</g>
<!-- Node23&#45;&gt;Node16 -->
<g id="edge32_Node000023_Node000016" class="edge">
<title>Node23&#45;&gt;Node16</title>
<g id="a_edge32_Node000023_Node000016"><a xlink:title=" ">
<path fill="none" stroke="#63b8ff" d="M668.39,-110.09C647.34,-101.6 615.58,-88.79 591.65,-79.14"/>
<polygon fill="#63b8ff" stroke="#63b8ff" points="593.27,-76.01 582.68,-75.52 590.65,-82.51 593.27,-76.01"/>
</a>
</g>
</g>
<!-- Node24 -->
<g id="Node000024" class="node">
<title>Node24</title>
<g id="a_Node000024"><a xlink:title=" ">
<polygon fill="#e0e0e0" stroke="#999999" points="1009.4,-74.5 964.15,-74.5 964.15,-55.25 1009.4,-55.25 1009.4,-74.5"/>
<text text-anchor="middle" x="986.78" y="-61" font-family="Helvetica,sans-Serif" font-size="10.00">cstring</text>
</a>
</g>
</g>
<!-- Node23&#45;&gt;Node24 -->
<g id="edge26_Node000023_Node000024" class="edge">
<title>Node23&#45;&gt;Node24</title>
<g id="a_edge26_Node000023_Node000024"><a xlink:title=" ">
<path fill="none" stroke="#63b8ff" d="M723.77,-112.21C726.81,-111.62 729.85,-111.04 732.78,-110.5 827.63,-93.08 855.15,-95.34 952.81,-74.72"/>
<polygon fill="#63b8ff" stroke="#63b8ff" points="953.25,-78.21 962.29,-72.69 951.78,-71.37 953.25,-78.21"/>
</a>
</g>
</g>
<!-- Node25 -->
<g id="Node000025" class="node">
<title>Node25</title>
<g id="a_Node000025"><a xlink:title=" ">
<polygon fill="#e0e0e0" stroke="#999999" points="763.03,-74.5 718.53,-74.5 718.53,-55.25 763.03,-55.25 763.03,-74.5"/>
<text text-anchor="middle" x="740.78" y="-61" font-family="Helvetica,sans-Serif" font-size="10.00">cstdlib</text>
</a>
</g>
</g>
<!-- Node23&#45;&gt;Node25 -->
<g id="edge27_Node000023_Node000025" class="edge">
<title>Node23&#45;&gt;Node25</title>
<g id="a_edge27_Node000023_Node000025"><a xlink:title=" ">
<path fill="none" stroke="#63b8ff" d="M699.03,-110.33C705.94,-102.98 716,-92.26 724.52,-83.19"/>
<polygon fill="#63b8ff" stroke="#63b8ff" points="727.01,-85.65 731.31,-75.96 721.91,-80.86 727.01,-85.65"/>
</a>
</g>
</g>
<!-- Node26 -->
<g id="Node000026" class="node">
<title>Node26</title>
<g id="a_Node000026"><a xlink:href="_t_transition_8h.html" target="_top" xlink:title=" ">
<polygon fill="white" stroke="#666666" points="945.9,-74.5 873.65,-74.5 873.65,-55.25 945.9,-55.25 945.9,-74.5"/>
<text text-anchor="middle" x="909.78" y="-61" font-family="Helvetica,sans-Serif" font-size="10.00">TTransition.h</text>
</a>
</g>
</g>
<!-- Node23&#45;&gt;Node26 -->
<g id="edge29_Node000023_Node000026" class="edge">
<title>Node23&#45;&gt;Node26</title>
<g id="a_edge29_Node000023_Node000026"><a xlink:title=" ">
<path fill="none" stroke="#63b8ff" d="M723.56,-111.15C760.4,-102.2 820.51,-87.58 862.44,-77.39"/>
<polygon fill="#63b8ff" stroke="#63b8ff" points="863.12,-80.82 872.01,-75.06 861.46,-74.02 863.12,-80.82"/>
</a>
</g>
</g>
<!-- Node29 -->
<g id="Node000029" class="node">
<title>Node29</title>
<g id="a_Node000029"><a xlink:title=" ">
<polygon fill="#e0e0e0" stroke="#999999" points="856.03,-74.5 781.53,-74.5 781.53,-55.25 856.03,-55.25 856.03,-74.5"/>
<text text-anchor="middle" x="818.78" y="-61" font-family="Helvetica,sans-Serif" font-size="10.00">TSortedList.h</text>
</a>
</g>
</g>
<!-- Node23&#45;&gt;Node29 -->
<g id="edge33_Node000023_Node000029" class="edge">
<title>Node23&#45;&gt;Node29</title>
<g id="a_edge33_Node000023_Node000029"><a xlink:title=" ">
<path fill="none" stroke="#63b8ff" d="M712.49,-110.09C732.81,-101.64 763.42,-88.9 786.59,-79.27"/>
<polygon fill="#63b8ff" stroke="#63b8ff" points="787.67,-82.61 795.56,-75.53 784.98,-76.14 787.67,-82.61"/>
</a>
</g>
</g>
<!-- Node27 -->
<g id="Node000027" class="node">
<title>Node27</title>
<g id="a_Node000027"><a xlink:title=" ">
<polygon fill="#e0e0e0" stroke="#999999" points="930.9,-19.25 888.65,-19.25 888.65,0 930.9,0 930.9,-19.25"/>
<text text-anchor="middle" x="909.78" y="-5.75" font-family="Helvetica,sans-Serif" font-size="10.00">cstdio</text>
</a>
</g>
</g>
<!-- Node26&#45;&gt;Node27 -->
<g id="edge30_Node000026_Node000027" class="edge">
<title>Node26&#45;&gt;Node27</title>
<g id="a_edge30_Node000026_Node000027"><a xlink:title=" ">
<path fill="none" stroke="#63b8ff" d="M909.78,-55.08C909.78,-48.57 909.78,-39.42 909.78,-31.12"/>
<polygon fill="#63b8ff" stroke="#63b8ff" points="913.28,-31.12 909.78,-21.12 906.28,-31.12 913.28,-31.12"/>
</a>
</g>
</g>
<!-- Node28 -->
<g id="Node000028" class="node">
<title>Node28</title>
<g id="a_Node000028"><a xlink:title=" ">
<polygon fill="#e0e0e0" stroke="#999999" points="1036.78,-19.25 978.78,-19.25 978.78,0 1036.78,0 1036.78,-19.25"/>
<text text-anchor="middle" x="1007.78" y="-5.75" font-family="Helvetica,sans-Serif" font-size="10.00">TObject.h</text>
</a>
</g>
</g>
<!-- Node26&#45;&gt;Node28 -->
<g id="edge31_Node000026_Node000028" class="edge">
<title>Node26&#45;&gt;Node28</title>
<g id="a_edge31_Node000026_Node000028"><a xlink:title=" ">
<path fill="none" stroke="#63b8ff" d="M926.4,-54.84C941.47,-46.66 963.92,-34.46 981.43,-24.94"/>
<polygon fill="#63b8ff" stroke="#63b8ff" points="982.63,-28.27 989.74,-20.43 979.28,-22.12 982.63,-28.27"/>
</a>
</g>
</g>
<!-- Node30&#45;&gt;Node3 -->
<g id="edge35_Node000030_Node000003" class="edge">
<title>Node30&#45;&gt;Node3</title>
<g id="a_edge35_Node000030_Node000003"><a xlink:title=" ">
<path fill="none" stroke="#63b8ff" d="M700.23,-220.83C704.55,-213.86 710.74,-203.87 716.16,-195.12"/>
<polygon fill="#63b8ff" stroke="#63b8ff" points="719.12,-196.99 721.41,-186.65 713.17,-193.3 719.12,-196.99"/>
</a>
</g>
</g>
<!-- Node30&#45;&gt;Node16 -->
<g id="edge36_Node000030_Node000016" class="edge">
<title>Node30&#45;&gt;Node16</title>
<g id="a_edge36_Node000030_Node000016"><a xlink:title=" ">
<path fill="none" stroke="#63b8ff" d="M675.41,-220.64C660.22,-212.86 639.29,-200.43 624.78,-185 596.54,-154.96 576.15,-110.57 566.01,-85.32"/>
<polygon fill="#63b8ff" stroke="#63b8ff" points="569.4,-84.37 562.53,-76.31 562.87,-86.9 569.4,-84.37"/>
</a>
</g>
</g>
<!-- Node31 -->
<g id="Node000031" class="node">
<title>Node31</title>
<g id="a_Node000031"><a xlink:title=" ">
<polygon fill="#e0e0e0" stroke="#999999" points="687.9,-185 633.65,-185 633.65,-165.75 687.9,-165.75 687.9,-185"/>
<text text-anchor="middle" x="660.78" y="-171.5" font-family="Helvetica,sans-Serif" font-size="10.00">TClass.h</text>
</a>
</g>
</g>
<!-- Node30&#45;&gt;Node31 -->
<g id="edge37_Node000030_Node000031" class="edge">
<title>Node30&#45;&gt;Node31</title>
<g id="a_edge37_Node000030_Node000031"><a xlink:title=" ">
<path fill="none" stroke="#63b8ff" d="M689.16,-220.83C684.66,-213.78 678.19,-203.65 672.56,-194.83"/>
<polygon fill="#63b8ff" stroke="#63b8ff" points="675.66,-193.18 667.33,-186.63 669.76,-196.95 675.66,-193.18"/>
</a>
</g>
</g>
<!-- Node32&#45;&gt;Node6 -->
<g id="edge39_Node000032_Node000006" class="edge">
<title>Node32&#45;&gt;Node6</title>
<g id="a_edge39_Node000032_Node000006"><a xlink:title=" ">
<path fill="none" stroke="#63b8ff" d="M1128.85,-220.75C1121.11,-203.26 1103.75,-164.02 1093.28,-140.34"/>
<polygon fill="#63b8ff" stroke="#63b8ff" points="1096.62,-139.24 1089.37,-131.51 1090.22,-142.07 1096.62,-139.24"/>
</a>
</g>
</g>
<!-- Node32&#45;&gt;Node18 -->
<g id="edge41_Node000032_Node000018" class="edge">
<title>Node32&#45;&gt;Node18</title>
<g id="a_edge41_Node000032_Node000018"><a xlink:title=" ">
<path fill="none" stroke="#63b8ff" d="M1134.55,-220.81C1138.47,-198.56 1145.17,-139.79 1113.78,-110.5 1080.83,-79.76 754.61,-79.07 709.78,-74.5 698.14,-73.31 685.5,-71.9 673.97,-70.57"/>
<polygon fill="#63b8ff" stroke="#63b8ff" points="674.74,-67.14 664.4,-69.46 673.93,-74.09 674.74,-67.14"/>
</a>
</g>
</g>
<!-- Node32&#45;&gt;Node33 -->
<g id="edge40_Node000032_Node000033" class="edge">
<title>Node32&#45;&gt;Node33</title>
<g id="a_edge40_Node000032_Node000033"><a xlink:title=" ">
<path fill="none" stroke="#63b8ff" d="M1143.3,-220.59C1152.17,-212.97 1165.09,-201.87 1175.77,-192.7"/>
<polygon fill="#63b8ff" stroke="#63b8ff" points="1177.96,-195.43 1183.27,-186.26 1173.4,-190.12 1177.96,-195.43"/>
</a>
</g>
</g>
<!-- Node34 -->
<g id="Node000034" class="node">
<title>Node34</title>
<g id="a_Node000034"><a xlink:href="_t_g_r_s_i_fit_8h.html" target="_top" xlink:title=" ">
<polygon fill="white" stroke="#666666" points="992.15,-185 927.4,-185 927.4,-165.75 992.15,-165.75 992.15,-185"/>
<text text-anchor="middle" x="959.78" y="-171.5" font-family="Helvetica,sans-Serif" font-size="10.00">TGRSIFit.h</text>
</a>
</g>
</g>
<!-- Node32&#45;&gt;Node34 -->
<g id="edge42_Node000032_Node000034" class="edge">
<title>Node32&#45;&gt;Node34</title>
<g id="a_edge42_Node000032_Node000034"><a xlink:title=" ">
<path fill="none" stroke="#63b8ff" d="M1106.5,-221.54C1078.14,-212.81 1032.62,-198.8 999.8,-188.69"/>
<polygon fill="#63b8ff" stroke="#63b8ff" points="1001.24,-185.47 990.65,-185.88 999.18,-192.16 1001.24,-185.47"/>
</a>
</g>
</g>
<!-- Node34&#45;&gt;Node5 -->
<g id="edge44_Node000034_Node000005" class="edge">
<title>Node34&#45;&gt;Node5</title>
<g id="a_edge44_Node000034_Node000005"><a xlink:title=" ">
<path fill="none" stroke="#63b8ff" d="M936.88,-165.34C914.83,-156.64 881.29,-143.41 856.64,-133.69"/>
<polygon fill="#63b8ff" stroke="#63b8ff" points="858,-130.47 847.42,-130.05 855.43,-136.98 858,-130.47"/>
</a>
</g>
</g>
<!-- Node34&#45;&gt;Node6 -->
<g id="edge45_Node000034_Node000006" class="edge">
<title>Node34&#45;&gt;Node6</title>
<g id="a_edge45_Node000034_Node000006"><a xlink:title=" ">
<path fill="none" stroke="#63b8ff" d="M980.98,-165.34C1000.98,-156.82 1031.17,-143.96 1053.85,-134.3"/>
<polygon fill="#63b8ff" stroke="#63b8ff" points="1055.08,-137.58 1062.91,-130.44 1052.34,-131.14 1055.08,-137.58"/>
</a>
</g>
</g>
<!-- Node34&#45;&gt;Node7 -->
<g id="edge46_Node000034_Node000007" class="edge">
<title>Node34&#45;&gt;Node7</title>
<g id="a_edge46_Node000034_Node000007"><a xlink:title=" ">
<path fill="none" stroke="#63b8ff" d="M949.6,-165.34C941.01,-157.72 928.51,-146.62 918.18,-137.45"/>
<polygon fill="#63b8ff" stroke="#63b8ff" points="920.74,-135.05 910.94,-131.03 916.09,-140.29 920.74,-135.05"/>
</a>
</g>
</g>
<!-- Node34&#45;&gt;Node10 -->
<g id="edge47_Node000034_Node000010" class="edge">
<title>Node34&#45;&gt;Node10</title>
<g id="a_edge47_Node000034_Node000010"><a xlink:title=" ">
<path fill="none" stroke="#63b8ff" d="M927.2,-165.64C896.11,-157.29 847.69,-144.23 797.25,-130.41"/>
<polygon fill="#63b8ff" stroke="#63b8ff" points="798.49,-127.13 787.92,-127.86 796.64,-133.88 798.49,-127.13"/>
</a>
</g>
</g>
<!-- Node34&#45;&gt;Node28 -->
<g id="edge43_Node000034_Node000028" class="edge">
<title>Node34&#45;&gt;Node28</title>
<g id="a_edge43_Node000034_Node000028"><a xlink:title=" ">
<path fill="none" stroke="#63b8ff" d="M979.21,-165.29C992.71,-157.83 1009.66,-145.86 1017.78,-129.75 1033.83,-97.88 1023.81,-55.08 1015.5,-30.41"/>
<polygon fill="#63b8ff" stroke="#63b8ff" points="1018.79,-29.22 1012.08,-21.02 1012.21,-31.62 1018.79,-29.22"/>
</a>
</g>
</g>
<!-- Node35 -->
<g id="Node000035" class="node">
<title>Node35</title>
<g id="a_Node000035"><a xlink:title=" ">
<polygon fill="#e0e0e0" stroke="#999999" points="1008.28,-129.75 953.28,-129.75 953.28,-110.5 1008.28,-110.5 1008.28,-129.75"/>
<text text-anchor="middle" x="980.78" y="-116.25" font-family="Helvetica,sans-Serif" font-size="10.00">TString.h</text>
</a>
</g>
</g>
<!-- Node34&#45;&gt;Node35 -->
<g id="edge48_Node000034_Node000035" class="edge">
<title>Node34&#45;&gt;Node35</title>
<g id="a_edge48_Node000034_Node000035"><a xlink:title=" ">
<path fill="none" stroke="#63b8ff" d="M963.25,-165.58C965.9,-158.84 969.68,-149.27 973.04,-140.74"/>
<polygon fill="#63b8ff" stroke="#63b8ff" points="976.27,-142.1 976.68,-131.52 969.76,-139.54 976.27,-142.1"/>
</a>
</g>
</g>
</g>
</svg>

<g id="navigator" transform="translate(0 0)" fill="#404254">
  <rect fill="#f2f5e9" fill-opacity="0.5" stroke="#606060" stroke-width=".5" x="0" y="0" width="60" height="60"/>
  <use id="zoomplus" xlink:href="#zoomPlus" x="17" y="9" onmousedown="handleZoom(evt,'in')"/>
  <use id="zoomminus" xlink:href="#zoomMin" x="42" y="9" onmousedown="handleZoom(evt,'out')"/>
  <use id="reset" xlink:href="#resetDef" x="30" y="36" onmousedown="handleReset()"/>
   <use id="arrowup" xlink:href="#arrowUp" x="0" y="0" onmousedown="handlePan(0,-1)"/>
  <use id="arrowright" xlink:href="#arrowRight" x="0" y="0" onmousedown="handlePan(1,0)"/>
  <use id="arrowdown" xlink:href="#arrowDown" x="0" y="0" onmousedown="handlePan(0,1)"/>
  <use id="arrowleft" xlink:href="#arrowLeft" x="0" y="0" onmousedown="handlePan(-1,0)"/>
</g>
<svg viewBox="0 0 15 15" width="100%" height="30px" preserveAspectRatio="xMaxYMin meet">
 <g id="arrow_out" transform="scale(0.3 0.3)">
  <a xlink:href="_t_gain_match_8cxx__incl_org.svg" target="_base">
   <rect id="button" ry="5" rx="5" y="6" x="6" height="38" width="38"
        fill="#f2f5e9" fill-opacity="0.5" stroke="#606060" stroke-width="1.0"/>
   <path id="arrow"
     d="M 11.500037,31.436501 C 11.940474,20.09759 22.043105,11.32322 32.158766,21.979434 L 37.068811,17.246167 C 37.068811,17.246167 37.088388,32 37.088388,32 L 22.160133,31.978069 C 22.160133,31.978069 26.997745,27.140456 26.997745,27.140456 C 18.528582,18.264221 13.291696,25.230495 11.500037,31.436501 z"
     style="fill:#404040;"/>
  </a>
 </g>
</svg>

<style type='text/css'>
<![CDATA[
[data-mouse-over-selected='false'] { opacity: 0.7; }
[data-mouse-over-selected='true']  { opacity: 1.0; }
]]>
</style>
<script type="application/ecmascript"><![CDATA[
document.addEventListener('DOMContentLoaded', (event) => {
  highlightEdges();
  highlightAdjacentNodes();
});
]]></script>
</svg>
