<?xml version="1.0" encoding="UTF-8" standalone="no"?>
<!DOCTYPE svg PUBLIC "-//W3C//DTD SVG 1.1//EN"
 "http://www.w3.org/Graphics/SVG/1.1/DTD/svg11.dtd">
<!-- Generated by graphviz version 12.2.0 (20241103.1931)
 -->
<!-- Title: TGRSIFit.h Pages: 1 -->
<svg width="1028pt" height="469pt"
 viewBox="0.00 0.00 1027.50 469.25" xmlns="http://www.w3.org/2000/svg" xmlns:xlink="http://www.w3.org/1999/xlink">
<g id="graph0" class="graph" transform="scale(1 1) rotate(0) translate(4 465.25)">
<title>TGRSIFit.h</title>
<!-- Node1 -->
<g id="Node000001" class="node">
<title>Node1</title>
<g id="a_Node000001"><a xlink:title=" ">
<polygon fill="#999999" stroke="#666666" points="299.38,-461.25 234.62,-461.25 234.62,-442 299.38,-442 299.38,-461.25"/>
<text text-anchor="middle" x="267" y="-447.75" font-family="Helvetica,sans-Serif" font-size="10.00">TGRSIFit.h</text>
</a>
</g>
</g>
<!-- Node2 -->
<g id="Node000002" class="node">
<title>Node2</title>
<g id="a_Node000002"><a xlink:href="_t_g_r_s_i_fit_8cxx.html" target="_top" xlink:title=" ">
<polygon fill="white" stroke="#666666" points="238.88,-406 165.12,-406 165.12,-386.75 238.88,-386.75 238.88,-406"/>
<text text-anchor="middle" x="202" y="-392.5" font-family="Helvetica,sans-Serif" font-size="10.00">TGRSIFit.cxx</text>
</a>
</g>
</g>
<!-- Node1&#45;&gt;Node2 -->
<g id="edge1_Node000001_Node000002" class="edge">
<title>Node1&#45;&gt;Node2</title>
<g id="a_edge1_Node000001_Node000002"><a xlink:title=" ">
<path fill="none" stroke="#63b8ff" d="M247.21,-434.41C235.92,-425.17 222.21,-413.93 212.86,-406.27"/>
<polygon fill="#63b8ff" stroke="#63b8ff" points="244.85,-437 254.8,-440.63 249.29,-431.59 244.85,-437"/>
</a>
</g>
</g>
<!-- Node3 -->
<g id="Node000003" class="node">
<title>Node3</title>
<g id="a_Node000003"><a xlink:href="_t_multi_peak_8h.html" target="_top" xlink:title=" ">
<polygon fill="white" stroke="#666666" points="90.5,-350.75 17.5,-350.75 17.5,-331.5 90.5,-331.5 90.5,-350.75"/>
<text text-anchor="middle" x="54" y="-337.25" font-family="Helvetica,sans-Serif" font-size="10.00">TMultiPeak.h</text>
</a>
</g>
</g>
<!-- Node1&#45;&gt;Node3 -->
<g id="edge2_Node000001_Node000003" class="edge">
<title>Node1&#45;&gt;Node3</title>
<g id="a_edge2_Node000001_Node000003"><a xlink:title=" ">
<path fill="none" stroke="#63b8ff" d="M266.19,-430.69C264.53,-416.5 260,-398.02 248,-386.75 242.24,-381.34 145.58,-360.86 90.92,-349.62"/>
<polygon fill="#63b8ff" stroke="#63b8ff" points="262.67,-430.55 266.91,-440.26 269.65,-430.02 262.67,-430.55"/>
</a>
</g>
</g>
<!-- Node5 -->
<g id="Node000005" class="node">
<title>Node5</title>
<g id="a_Node000005"><a xlink:href="_t_peak_8h.html" target="_top" xlink:title=" ">
<polygon fill="white" stroke="#666666" points="507,-406 455,-406 455,-386.75 507,-386.75 507,-406"/>
<text text-anchor="middle" x="481" y="-392.5" font-family="Helvetica,sans-Serif" font-size="10.00">TPeak.h</text>
</a>
</g>
</g>
<!-- Node1&#45;&gt;Node5 -->
<g id="edge4_Node000001_Node000005" class="edge">
<title>Node1&#45;&gt;Node5</title>
<g id="a_edge4_Node000001_Node000005"><a xlink:title=" ">
<path fill="none" stroke="#63b8ff" d="M310.54,-439.79C353.77,-429.03 418.65,-412.89 454.62,-403.94"/>
<polygon fill="#63b8ff" stroke="#63b8ff" points="309.83,-436.36 300.97,-442.17 311.52,-443.15 309.83,-436.36"/>
</a>
</g>
</g>
<!-- Node4 -->
<g id="Node000004" class="node">
<title>Node4</title>
<g id="a_Node000004"><a xlink:href="_t_multi_peak_8cxx.html" target="_top" xlink:title=" ">
<polygon fill="white" stroke="#666666" points="82,-295.5 0,-295.5 0,-276.25 82,-276.25 82,-295.5"/>
<text text-anchor="middle" x="41" y="-282" font-family="Helvetica,sans-Serif" font-size="10.00">TMultiPeak.cxx</text>
</a>
</g>
</g>
<!-- Node3&#45;&gt;Node4 -->
<g id="edge3_Node000003_Node000004" class="edge">
<title>Node3&#45;&gt;Node4</title>
<g id="a_edge3_Node000003_Node000004"><a xlink:title=" ">
<path fill="none" stroke="#63b8ff" d="M49.13,-320.17C47.09,-311.8 44.81,-302.5 43.19,-295.86"/>
<polygon fill="#63b8ff" stroke="#63b8ff" points="45.72,-320.98 51.49,-329.86 52.52,-319.32 45.72,-320.98"/>
</a>
</g>
</g>
<!-- Node5&#45;&gt;Node3 -->
<g id="edge31_Node000005_Node000003" class="edge">
<title>Node5&#45;&gt;Node3</title>
<g id="a_edge31_Node000005_Node000003"><a xlink:title=" ">
<path fill="none" stroke="#63b8ff" d="M443.44,-391.91C374.83,-385.37 224.7,-370.11 99,-350.75 96.33,-350.34 93.57,-349.88 90.8,-349.41"/>
<polygon fill="#63b8ff" stroke="#63b8ff" points="442.72,-395.35 453.01,-392.81 443.38,-388.39 442.72,-395.35"/>
</a>
</g>
</g>
<!-- Node6 -->
<g id="Node000006" class="node">
<title>Node6</title>
<g id="a_Node000006"><a xlink:href="_g_root_commands_8cxx.html" target="_top" xlink:title=" ">
<polygon fill="white" stroke="#666666" points="217.88,-350.75 108.12,-350.75 108.12,-331.5 217.88,-331.5 217.88,-350.75"/>
<text text-anchor="middle" x="163" y="-337.25" font-family="Helvetica,sans-Serif" font-size="10.00">GRootCommands.cxx</text>
</a>
</g>
</g>
<!-- Node5&#45;&gt;Node6 -->
<g id="edge5_Node000005_Node000006" class="edge">
<title>Node5&#45;&gt;Node6</title>
<g id="a_edge5_Node000005_Node000006"><a xlink:title=" ">
<path fill="none" stroke="#63b8ff" d="M443.55,-389.1C387.6,-379.73 281.85,-362.03 217.38,-351.23"/>
<polygon fill="#63b8ff" stroke="#63b8ff" points="442.77,-392.52 453.21,-390.72 443.93,-385.62 442.77,-392.52"/>
</a>
</g>
</g>
<!-- Node7 -->
<g id="Node000007" class="node">
<title>Node7</title>
<g id="a_Node000007"><a xlink:href="_gain_match_g_r_i_f_f_i_n_8cxx.html" target="_top" xlink:title=" ">
<polygon fill="white" stroke="#666666" points="355.75,-350.75 236.25,-350.75 236.25,-331.5 355.75,-331.5 355.75,-350.75"/>
<text text-anchor="middle" x="296" y="-337.25" font-family="Helvetica,sans-Serif" font-size="10.00">GainMatchGRIFFIN.cxx</text>
</a>
</g>
</g>
<!-- Node5&#45;&gt;Node7 -->
<g id="edge6_Node000005_Node000007" class="edge">
<title>Node5&#45;&gt;Node7</title>
<g id="a_edge6_Node000005_Node000007"><a xlink:title=" ">
<path fill="none" stroke="#63b8ff" d="M443.98,-384.72C409.87,-374.9 359.81,-360.49 327.55,-351.21"/>
<polygon fill="#63b8ff" stroke="#63b8ff" points="442.85,-388.04 453.43,-387.44 444.79,-381.31 442.85,-388.04"/>
</a>
</g>
</g>
<!-- Node8 -->
<g id="Node000008" class="node">
<title>Node8</title>
<g id="a_Node000008"><a xlink:href="_t_angular_correlation_8h.html" target="_top" xlink:title=" ">
<polygon fill="white" stroke="#666666" points="482.5,-350.75 373.5,-350.75 373.5,-331.5 482.5,-331.5 482.5,-350.75"/>
<text text-anchor="middle" x="428" y="-337.25" font-family="Helvetica,sans-Serif" font-size="10.00">TAngularCorrelation.h</text>
</a>
</g>
</g>
<!-- Node5&#45;&gt;Node8 -->
<g id="edge7_Node000005_Node000008" class="edge">
<title>Node5&#45;&gt;Node8</title>
<g id="a_edge7_Node000005_Node000008"><a xlink:title=" ">
<path fill="none" stroke="#63b8ff" d="M464.28,-378.57C455.22,-369.48 444.4,-358.6 436.94,-351.11"/>
<polygon fill="#63b8ff" stroke="#63b8ff" points="461.65,-380.89 471.18,-385.51 466.61,-375.95 461.65,-380.89"/>
</a>
</g>
</g>
<!-- Node10 -->
<g id="Node000010" class="node">
<title>Node10</title>
<g id="a_Node000010"><a xlink:href="_t_cal_point_8h.html" target="_top" xlink:title=" ">
<polygon fill="white" stroke="#666666" points="567.12,-350.75 500.88,-350.75 500.88,-331.5 567.12,-331.5 567.12,-350.75"/>
<text text-anchor="middle" x="534" y="-337.25" font-family="Helvetica,sans-Serif" font-size="10.00">TCalPoint.h</text>
</a>
</g>
</g>
<!-- Node5&#45;&gt;Node10 -->
<g id="edge9_Node000005_Node000010" class="edge">
<title>Node5&#45;&gt;Node10</title>
<g id="a_edge9_Node000005_Node000010"><a xlink:title=" ">
<path fill="none" stroke="#63b8ff" d="M497.72,-378.57C506.78,-369.48 517.6,-358.6 525.06,-351.11"/>
<polygon fill="#63b8ff" stroke="#63b8ff" points="495.39,-375.95 490.82,-385.51 500.35,-380.89 495.39,-375.95"/>
</a>
</g>
</g>
<!-- Node22 -->
<g id="Node000022" class="node">
<title>Node22</title>
<g id="a_Node000022"><a xlink:href="_t_efficiency_cal_8h.html" target="_top" xlink:title=" ">
<polygon fill="white" stroke="#666666" points="698.12,-350.75 613.88,-350.75 613.88,-331.5 698.12,-331.5 698.12,-350.75"/>
<text text-anchor="middle" x="656" y="-337.25" font-family="Helvetica,sans-Serif" font-size="10.00">TEfficiencyCal.h</text>
</a>
</g>
</g>
<!-- Node5&#45;&gt;Node22 -->
<g id="edge24_Node000005_Node000022" class="edge">
<title>Node5&#45;&gt;Node22</title>
<g id="a_edge24_Node000005_Node000022"><a xlink:title=" ">
<path fill="none" stroke="#63b8ff" d="M517.95,-384.13C550.13,-374.34 596.19,-360.32 626.1,-351.22"/>
<polygon fill="#63b8ff" stroke="#63b8ff" points="517.2,-380.7 508.65,-386.96 519.23,-387.4 517.2,-380.7"/>
</a>
</g>
</g>
<!-- Node24 -->
<g id="Node000024" class="node">
<title>Node24</title>
<g id="a_Node000024"><a xlink:href="_t_energy_cal_8h.html" target="_top" xlink:title=" ">
<polygon fill="white" stroke="#666666" points="796.5,-350.75 723.5,-350.75 723.5,-331.5 796.5,-331.5 796.5,-350.75"/>
<text text-anchor="middle" x="760" y="-337.25" font-family="Helvetica,sans-Serif" font-size="10.00">TEnergyCal.h</text>
</a>
</g>
</g>
<!-- Node5&#45;&gt;Node24 -->
<g id="edge26_Node000005_Node000024" class="edge">
<title>Node5&#45;&gt;Node24</title>
<g id="a_edge26_Node000005_Node000024"><a xlink:title=" ">
<path fill="none" stroke="#63b8ff" d="M518.55,-388.21C572.15,-377.98 670,-359.3 723.19,-349.15"/>
<polygon fill="#63b8ff" stroke="#63b8ff" points="518.15,-384.72 508.99,-390.03 519.46,-391.6 518.15,-384.72"/>
</a>
</g>
</g>
<!-- Node26 -->
<g id="Node000026" class="node">
<title>Node26</title>
<g id="a_Node000026"><a xlink:href="_t_gain_match_8h.html" target="_top" xlink:title=" ">
<polygon fill="white" stroke="#666666" points="902.38,-350.75 825.62,-350.75 825.62,-331.5 902.38,-331.5 902.38,-350.75"/>
<text text-anchor="middle" x="864" y="-337.25" font-family="Helvetica,sans-Serif" font-size="10.00">TGainMatch.h</text>
</a>
</g>
</g>
<!-- Node5&#45;&gt;Node26 -->
<g id="edge28_Node000005_Node000026" class="edge">
<title>Node5&#45;&gt;Node26</title>
<g id="a_edge28_Node000005_Node000026"><a xlink:title=" ">
<path fill="none" stroke="#63b8ff" d="M518.37,-390.38C578.84,-382.27 701.87,-365.64 806,-350.75 812.25,-349.86 818.87,-348.89 825.32,-347.94"/>
<polygon fill="#63b8ff" stroke="#63b8ff" points="518.08,-386.89 508.63,-391.69 519.01,-393.83 518.08,-386.89"/>
</a>
</g>
</g>
<!-- Node29 -->
<g id="Node000029" class="node">
<title>Node29</title>
<g id="a_Node000029"><a xlink:href="_t_peak_8cxx.html" target="_top" xlink:title=" ">
<polygon fill="white" stroke="#666666" points="981.5,-350.75 920.5,-350.75 920.5,-331.5 981.5,-331.5 981.5,-350.75"/>
<text text-anchor="middle" x="951" y="-337.25" font-family="Helvetica,sans-Serif" font-size="10.00">TPeak.cxx</text>
</a>
</g>
</g>
<!-- Node5&#45;&gt;Node29 -->
<g id="edge32_Node000005_Node000029" class="edge">
<title>Node5&#45;&gt;Node29</title>
<g id="a_edge32_Node000005_Node000029"><a xlink:title=" ">
<path fill="none" stroke="#63b8ff" d="M518.46,-392.87C593.36,-387.55 766.77,-373.71 911,-350.75 913.95,-350.28 917,-349.73 920.05,-349.15"/>
<polygon fill="#63b8ff" stroke="#63b8ff" points="518.55,-389.35 508.82,-393.54 519.04,-396.34 518.55,-389.35"/>
</a>
</g>
</g>
<!-- Node9 -->
<g id="Node000009" class="node">
<title>Node9</title>
<g id="a_Node000009"><a xlink:href="_t_angular_correlation_8cxx.html" target="_top" xlink:title=" ">
<polygon fill="white" stroke="#666666" points="218,-295.5 100,-295.5 100,-276.25 218,-276.25 218,-295.5"/>
<text text-anchor="middle" x="159" y="-282" font-family="Helvetica,sans-Serif" font-size="10.00">TAngularCorrelation.cxx</text>
</a>
</g>
</g>
<!-- Node8&#45;&gt;Node9 -->
<g id="edge8_Node000008_Node000009" class="edge">
<title>Node8&#45;&gt;Node9</title>
<g id="a_edge8_Node000008_Node000009"><a xlink:title=" ">
<path fill="none" stroke="#63b8ff" d="M370.9,-328.82C321.37,-319.02 250.62,-305.01 204.75,-295.93"/>
<polygon fill="#63b8ff" stroke="#63b8ff" points="370.09,-332.23 380.58,-330.74 371.45,-325.36 370.09,-332.23"/>
</a>
</g>
</g>
<!-- Node11 -->
<g id="Node000011" class="node">
<title>Node11</title>
<g id="a_Node000011"><a xlink:href="_t_cal_graph_8h.html" target="_top" xlink:title=" ">
<polygon fill="white" stroke="#666666" points="319,-185 249,-185 249,-165.75 319,-165.75 319,-185"/>
<text text-anchor="middle" x="284" y="-171.5" font-family="Helvetica,sans-Serif" font-size="10.00">TCalGraph.h</text>
</a>
</g>
</g>
<!-- Node10&#45;&gt;Node11 -->
<g id="edge10_Node000010_Node000011" class="edge">
<title>Node10&#45;&gt;Node11</title>
<g id="a_edge10_Node000010_Node000011"><a xlink:title=" ">
<path fill="none" stroke="#63b8ff" d="M489.43,-330.18C440.15,-319.01 366.08,-301.64 354,-295.5 319.89,-278.18 305.26,-274.39 288,-240.25 278.97,-222.4 280.66,-198.07 282.46,-185.2"/>
<polygon fill="#63b8ff" stroke="#63b8ff" points="488.45,-333.55 498.97,-332.33 489.99,-326.72 488.45,-333.55"/>
</a>
</g>
</g>
<!-- Node17 -->
<g id="Node000017" class="node">
<title>Node17</title>
<g id="a_Node000017"><a xlink:href="_t_cal_list_8h.html" target="_top" xlink:title=" ">
<polygon fill="white" stroke="#666666" points="423.12,-295.5 362.88,-295.5 362.88,-276.25 423.12,-276.25 423.12,-295.5"/>
<text text-anchor="middle" x="393" y="-282" font-family="Helvetica,sans-Serif" font-size="10.00">TCalList.h</text>
</a>
</g>
</g>
<!-- Node10&#45;&gt;Node17 -->
<g id="edge16_Node000010_Node000017" class="edge">
<title>Node10&#45;&gt;Node17</title>
<g id="a_edge16_Node000010_Node000017"><a xlink:title=" ">
<path fill="none" stroke="#63b8ff" d="M499.36,-327.04C473.8,-317.39 439.66,-304.5 417.04,-295.95"/>
<polygon fill="#63b8ff" stroke="#63b8ff" points="498.07,-330.3 508.67,-330.56 500.55,-323.75 498.07,-330.3"/>
</a>
</g>
</g>
<!-- Node20 -->
<g id="Node000020" class="node">
<title>Node20</title>
<g id="a_Node000020"><a xlink:href="_t_source_list_8cxx.html" target="_top" xlink:title=" ">
<polygon fill="white" stroke="#666666" points="513.88,-185 428.12,-185 428.12,-165.75 513.88,-165.75 513.88,-185"/>
<text text-anchor="middle" x="471" y="-171.5" font-family="Helvetica,sans-Serif" font-size="10.00">TSourceList.cxx</text>
</a>
</g>
</g>
<!-- Node10&#45;&gt;Node20 -->
<g id="edge23_Node000010_Node000020" class="edge">
<title>Node10&#45;&gt;Node20</title>
<g id="a_edge23_Node000010_Node000020"><a xlink:title=" ">
<path fill="none" stroke="#63b8ff" d="M523.43,-321.19C519.28,-313.36 514.64,-304.12 511,-295.5 502.17,-274.6 481.28,-209.02 473.76,-185.16"/>
<polygon fill="#63b8ff" stroke="#63b8ff" points="520.24,-322.65 528.1,-329.76 526.39,-319.3 520.24,-322.65"/>
</a>
</g>
</g>
<!-- Node21 -->
<g id="Node000021" class="node">
<title>Node21</title>
<g id="a_Node000021"><a xlink:href="_t_cal_point_8cxx.html" target="_top" xlink:title=" ">
<polygon fill="white" stroke="#666666" points="595.62,-295.5 520.38,-295.5 520.38,-276.25 595.62,-276.25 595.62,-295.5"/>
<text text-anchor="middle" x="558" y="-282" font-family="Helvetica,sans-Serif" font-size="10.00">TCalPoint.cxx</text>
</a>
</g>
</g>
<!-- Node10&#45;&gt;Node21 -->
<g id="edge22_Node000010_Node000021" class="edge">
<title>Node10&#45;&gt;Node21</title>
<g id="a_edge22_Node000010_Node000021"><a xlink:title=" ">
<path fill="none" stroke="#63b8ff" d="M542.6,-321.04C546.47,-312.46 550.85,-302.73 553.95,-295.86"/>
<polygon fill="#63b8ff" stroke="#63b8ff" points="539.5,-319.4 538.59,-329.95 545.88,-322.27 539.5,-319.4"/>
</a>
</g>
</g>
<!-- Node12 -->
<g id="Node000012" class="node">
<title>Node12</title>
<g id="a_Node000012"><a xlink:href="_t_cal_graph_8cxx.html" target="_top" xlink:title=" ">
<polygon fill="white" stroke="#666666" points="270.5,-129.75 191.5,-129.75 191.5,-110.5 270.5,-110.5 270.5,-129.75"/>
<text text-anchor="middle" x="231" y="-116.25" font-family="Helvetica,sans-Serif" font-size="10.00">TCalGraph.cxx</text>
</a>
</g>
</g>
<!-- Node11&#45;&gt;Node12 -->
<g id="edge11_Node000011_Node000012" class="edge">
<title>Node11&#45;&gt;Node12</title>
<g id="a_edge11_Node000011_Node000012"><a xlink:title=" ">
<path fill="none" stroke="#63b8ff" d="M267.28,-157.57C258.22,-148.48 247.4,-137.6 239.94,-130.11"/>
<polygon fill="#63b8ff" stroke="#63b8ff" points="264.65,-159.89 274.18,-164.51 269.61,-154.95 264.65,-159.89"/>
</a>
</g>
</g>
<!-- Node13 -->
<g id="Node000013" class="node">
<title>Node13</title>
<g id="a_Node000013"><a xlink:href="_t_efficiency_graph_8h.html" target="_top" xlink:title=" ">
<polygon fill="white" stroke="#666666" points="385.12,-129.75 288.88,-129.75 288.88,-110.5 385.12,-110.5 385.12,-129.75"/>
<text text-anchor="middle" x="337" y="-116.25" font-family="Helvetica,sans-Serif" font-size="10.00">TEfficiencyGraph.h</text>
</a>
</g>
</g>
<!-- Node11&#45;&gt;Node13 -->
<g id="edge12_Node000011_Node000013" class="edge">
<title>Node11&#45;&gt;Node13</title>
<g id="a_edge12_Node000011_Node000013"><a xlink:title=" ">
<path fill="none" stroke="#63b8ff" d="M300.72,-157.57C309.78,-148.48 320.6,-137.6 328.06,-130.11"/>
<polygon fill="#63b8ff" stroke="#63b8ff" points="298.39,-154.95 293.82,-164.51 303.35,-159.89 298.39,-154.95"/>
</a>
</g>
</g>
<!-- Node14 -->
<g id="Node000014" class="node">
<title>Node14</title>
<g id="a_Node000014"><a xlink:href="_t_efficiency_calibration_8h.html" target="_top" xlink:title=" ">
<polygon fill="white" stroke="#666666" points="329.88,-74.5 214.12,-74.5 214.12,-55.25 329.88,-55.25 329.88,-74.5"/>
<text text-anchor="middle" x="272" y="-61" font-family="Helvetica,sans-Serif" font-size="10.00">TEfficiencyCalibration.h</text>
</a>
</g>
</g>
<!-- Node13&#45;&gt;Node14 -->
<g id="edge13_Node000013_Node000014" class="edge">
<title>Node13&#45;&gt;Node14</title>
<g id="a_edge13_Node000013_Node000014"><a xlink:title=" ">
<path fill="none" stroke="#63b8ff" d="M317.21,-102.91C305.92,-93.67 292.21,-82.43 282.86,-74.77"/>
<polygon fill="#63b8ff" stroke="#63b8ff" points="314.85,-105.5 324.8,-109.13 319.29,-100.09 314.85,-105.5"/>
</a>
</g>
</g>
<!-- Node16 -->
<g id="Node000016" class="node">
<title>Node16</title>
<g id="a_Node000016"><a xlink:href="_t_efficiency_graph_8cxx.html" target="_top" xlink:title=" ">
<polygon fill="white" stroke="#666666" points="453.62,-74.5 348.38,-74.5 348.38,-55.25 453.62,-55.25 453.62,-74.5"/>
<text text-anchor="middle" x="401" y="-61" font-family="Helvetica,sans-Serif" font-size="10.00">TEfficiencyGraph.cxx</text>
</a>
</g>
</g>
<!-- Node13&#45;&gt;Node16 -->
<g id="edge15_Node000013_Node000016" class="edge">
<title>Node13&#45;&gt;Node16</title>
<g id="a_edge15_Node000013_Node000016"><a xlink:title=" ">
<path fill="none" stroke="#63b8ff" d="M356.48,-102.91C367.6,-93.67 381.1,-82.43 390.3,-74.77"/>
<polygon fill="#63b8ff" stroke="#63b8ff" points="354.47,-100.04 349.02,-109.12 358.95,-105.42 354.47,-100.04"/>
</a>
</g>
</g>
<!-- Node15 -->
<g id="Node000015" class="node">
<title>Node15</title>
<g id="a_Node000015"><a xlink:href="_t_efficiency_calibration_8cxx.html" target="_top" xlink:title=" ">
<polygon fill="white" stroke="#666666" points="334.38,-19.25 209.62,-19.25 209.62,0 334.38,0 334.38,-19.25"/>
<text text-anchor="middle" x="272" y="-5.75" font-family="Helvetica,sans-Serif" font-size="10.00">TEfficiencyCalibration.cxx</text>
</a>
</g>
</g>
<!-- Node14&#45;&gt;Node15 -->
<g id="edge14_Node000014_Node000015" class="edge">
<title>Node14&#45;&gt;Node15</title>
<g id="a_edge14_Node000014_Node000015"><a xlink:title=" ">
<path fill="none" stroke="#63b8ff" d="M272,-43.63C272,-35.34 272,-26.17 272,-19.61"/>
<polygon fill="#63b8ff" stroke="#63b8ff" points="268.5,-43.57 272,-53.57 275.5,-43.57 268.5,-43.57"/>
</a>
</g>
</g>
<!-- Node17&#45;&gt;Node11 -->
<g id="edge17_Node000017_Node000011" class="edge">
<title>Node17&#45;&gt;Node11</title>
<g id="a_edge17_Node000017_Node000011"><a xlink:title=" ">
<path fill="none" stroke="#63b8ff" d="M352.22,-272.85C334.87,-265.87 315.74,-255.39 303,-240.25 289.44,-224.14 285.56,-198.65 284.45,-185.26"/>
<polygon fill="#63b8ff" stroke="#63b8ff" points="350.7,-276.03 361.3,-276.23 353.14,-269.46 350.7,-276.03"/>
</a>
</g>
</g>
<!-- Node18 -->
<g id="Node000018" class="node">
<title>Node18</title>
<g id="a_Node000018"><a xlink:href="_t_cal_list_8cxx.html" target="_top" xlink:title=" ">
<polygon fill="white" stroke="#666666" points="381.62,-240.25 312.38,-240.25 312.38,-221 381.62,-221 381.62,-240.25"/>
<text text-anchor="middle" x="347" y="-226.75" font-family="Helvetica,sans-Serif" font-size="10.00">TCalList.cxx</text>
</a>
</g>
</g>
<!-- Node17&#45;&gt;Node18 -->
<g id="edge18_Node000017_Node000018" class="edge">
<title>Node17&#45;&gt;Node18</title>
<g id="a_edge18_Node000017_Node000018"><a xlink:title=" ">
<path fill="none" stroke="#63b8ff" d="M378,-267.51C370.24,-258.53 361.1,-247.95 354.76,-240.61"/>
<polygon fill="#63b8ff" stroke="#63b8ff" points="375.23,-269.66 384.41,-274.94 380.53,-265.08 375.23,-269.66"/>
</a>
</g>
</g>
<!-- Node19 -->
<g id="Node000019" class="node">
<title>Node19</title>
<g id="a_Node000019"><a xlink:href="_t_source_list_8h.html" target="_top" xlink:title=" ">
<polygon fill="white" stroke="#666666" points="476.38,-240.25 399.62,-240.25 399.62,-221 476.38,-221 476.38,-240.25"/>
<text text-anchor="middle" x="438" y="-226.75" font-family="Helvetica,sans-Serif" font-size="10.00">TSourceList.h</text>
</a>
</g>
</g>
<!-- Node17&#45;&gt;Node19 -->
<g id="edge19_Node000017_Node000019" class="edge">
<title>Node17&#45;&gt;Node19</title>
<g id="a_edge19_Node000017_Node000019"><a xlink:title=" ">
<path fill="none" stroke="#63b8ff" d="M407.68,-267.51C415.26,-258.53 424.21,-247.95 430.41,-240.61"/>
<polygon fill="#63b8ff" stroke="#63b8ff" points="405.19,-265.03 401.41,-274.93 410.54,-269.55 405.19,-265.03"/>
</a>
</g>
</g>
<!-- Node19&#45;&gt;Node11 -->
<g id="edge20_Node000019_Node000011" class="edge">
<title>Node19&#45;&gt;Node11</title>
<g id="a_edge20_Node000019_Node000011"><a xlink:title=" ">
<path fill="none" stroke="#63b8ff" d="M401.29,-216.93C373.25,-207.24 335.3,-194.11 310.25,-185.45"/>
<polygon fill="#63b8ff" stroke="#63b8ff" points="399.85,-220.14 410.45,-220.1 402.14,-213.52 399.85,-220.14"/>
</a>
</g>
</g>
<!-- Node19&#45;&gt;Node20 -->
<g id="edge21_Node000019_Node000020" class="edge">
<title>Node19&#45;&gt;Node20</title>
<g id="a_edge21_Node000019_Node000020"><a xlink:title=" ">
<path fill="none" stroke="#63b8ff" d="M449.47,-211.12C454.88,-202.39 461.08,-192.39 465.43,-185.36"/>
<polygon fill="#63b8ff" stroke="#63b8ff" points="446.54,-209.2 444.25,-219.55 452.49,-212.89 446.54,-209.2"/>
</a>
</g>
</g>
<!-- Node23 -->
<g id="Node000023" class="node">
<title>Node23</title>
<g id="a_Node000023"><a xlink:href="_t_efficiency_cal_8cxx.html" target="_top" xlink:title=" ">
<polygon fill="white" stroke="#666666" points="706.62,-295.5 613.38,-295.5 613.38,-276.25 706.62,-276.25 706.62,-295.5"/>
<text text-anchor="middle" x="660" y="-282" font-family="Helvetica,sans-Serif" font-size="10.00">TEfficiencyCal.cxx</text>
</a>
</g>
</g>
<!-- Node22&#45;&gt;Node23 -->
<g id="edge25_Node000022_Node000023" class="edge">
<title>Node22&#45;&gt;Node23</title>
<g id="a_edge25_Node000022_Node000023"><a xlink:title=" ">
<path fill="none" stroke="#63b8ff" d="M657.52,-319.88C658.14,-311.59 658.83,-302.42 659.33,-295.86"/>
<polygon fill="#63b8ff" stroke="#63b8ff" points="654.03,-319.59 656.77,-329.82 661.01,-320.11 654.03,-319.59"/>
</a>
</g>
</g>
<!-- Node25 -->
<g id="Node000025" class="node">
<title>Node25</title>
<g id="a_Node000025"><a xlink:href="_t_energy_cal_8cxx.html" target="_top" xlink:title=" ">
<polygon fill="white" stroke="#666666" points="807,-295.5 725,-295.5 725,-276.25 807,-276.25 807,-295.5"/>
<text text-anchor="middle" x="766" y="-282" font-family="Helvetica,sans-Serif" font-size="10.00">TEnergyCal.cxx</text>
</a>
</g>
</g>
<!-- Node24&#45;&gt;Node25 -->
<g id="edge27_Node000024_Node000025" class="edge">
<title>Node24&#45;&gt;Node25</title>
<g id="a_edge27_Node000024_Node000025"><a xlink:title=" ">
<path fill="none" stroke="#63b8ff" d="M762.25,-320.17C763.19,-311.8 764.24,-302.5 764.99,-295.86"/>
<polygon fill="#63b8ff" stroke="#63b8ff" points="758.8,-319.5 761.16,-329.83 765.76,-320.28 758.8,-319.5"/>
</a>
</g>
</g>
<!-- Node27 -->
<g id="Node000027" class="node">
<title>Node27</title>
<g id="a_Node000027"><a xlink:href="_t_gain_match_8cxx.html" target="_top" xlink:title=" ">
<polygon fill="white" stroke="#666666" points="910.88,-295.5 825.12,-295.5 825.12,-276.25 910.88,-276.25 910.88,-295.5"/>
<text text-anchor="middle" x="868" y="-282" font-family="Helvetica,sans-Serif" font-size="10.00">TGainMatch.cxx</text>
</a>
</g>
</g>
<!-- Node26&#45;&gt;Node27 -->
<g id="edge29_Node000026_Node000027" class="edge">
<title>Node26&#45;&gt;Node27</title>
<g id="a_edge29_Node000026_Node000027"><a xlink:title=" ">
<path fill="none" stroke="#63b8ff" d="M865.52,-319.88C866.14,-311.59 866.83,-302.42 867.33,-295.86"/>
<polygon fill="#63b8ff" stroke="#63b8ff" points="862.03,-319.59 864.77,-329.82 869.01,-320.11 862.03,-319.59"/>
</a>
</g>
</g>
<!-- Node28 -->
<g id="Node000028" class="node">
<title>Node28</title>
<g id="a_Node000028"><a xlink:href="tac__calibrator_8cxx.html" target="_top" xlink:title=" ">
<polygon fill="white" stroke="#666666" points="1019.5,-295.5 928.5,-295.5 928.5,-276.25 1019.5,-276.25 1019.5,-295.5"/>
<text text-anchor="middle" x="974" y="-282" font-family="Helvetica,sans-Serif" font-size="10.00">tac_calibrator.cxx</text>
</a>
</g>
</g>
<!-- Node26&#45;&gt;Node28 -->
<g id="edge30_Node000026_Node000028" class="edge">
<title>Node26&#45;&gt;Node28</title>
<g id="a_edge30_Node000026_Node000028"><a xlink:title=" ">
<path fill="none" stroke="#63b8ff" d="M892.92,-326.12C912.63,-316.58 938.15,-304.23 955.25,-295.95"/>
<polygon fill="#63b8ff" stroke="#63b8ff" points="891.5,-322.92 884.02,-330.43 894.55,-329.23 891.5,-322.92"/>
</a>
</g>
</g>
</g>
</svg>
