<?xml version="1.0" encoding="UTF-8" standalone="no"?>
<!DOCTYPE svg PUBLIC "-//W3C//DTD SVG 1.1//EN"
 "http://www.w3.org/Graphics/SVG/1.1/DTD/svg11.dtd">
<!-- Generated by graphviz version 9.0.0 (20230911.1827)
 -->
<!-- Title: TGriffinHit.h Pages: 1 -->
<svg width="3425pt" height="193pt"
 viewBox="0.00 0.00 3424.75 193.00" xmlns="http://www.w3.org/2000/svg" xmlns:xlink="http://www.w3.org/1999/xlink">
<g id="graph0" class="graph" transform="scale(1 1) rotate(0) translate(4 189)">
<title>TGriffinHit.h</title>
<!-- Node1 -->
<g id="Node000001" class="node">
<title>Node1</title>
<g id="a_Node000001"><a xlink:title=" ">
<polygon fill="#999999" stroke="#666666" points="1816.25,-185 1749.25,-185 1749.25,-165.75 1816.25,-165.75 1816.25,-185"/>
<text text-anchor="middle" x="1782.75" y="-171.5" font-family="Helvetica,sans-Serif" font-size="10.00">TGriffinHit.h</text>
</a>
</g>
</g>
<!-- Node2 -->
<g id="Node000002" class="node">
<title>Node2</title>
<g id="a_Node000002"><a xlink:href="_gain_match_g_r_i_f_f_i_n_8cxx.html" target="_top" xlink:title=" ">
<polygon fill="white" stroke="#666666" points="119.5,-74.5 0,-74.5 0,-55.25 119.5,-55.25 119.5,-74.5"/>
<text text-anchor="middle" x="59.75" y="-61" font-family="Helvetica,sans-Serif" font-size="10.00">GainMatchGRIFFIN.cxx</text>
</a>
</g>
</g>
<!-- Node1&#45;&gt;Node2 -->
<g id="edge1_Node000001_Node000002" class="edge">
<title>Node1&#45;&gt;Node2</title>
<g id="a_edge1_Node000001_Node000002"><a xlink:title=" ">
<path fill="none" stroke="#63b8ff" d="M1737.53,-172.71C1543.91,-165.35 765.66,-133.48 128.75,-74.5 125.86,-74.23 122.91,-73.94 119.94,-73.63"/>
<polygon fill="#63b8ff" stroke="#63b8ff" points="1737.28,-176.2 1747.4,-173.08 1737.54,-169.21 1737.28,-176.2"/>
</a>
</g>
</g>
<!-- Node3 -->
<g id="Node000003" class="node">
<title>Node3</title>
<g id="a_Node000003"><a xlink:href="_t_griffin_8h.html" target="_top" xlink:title=" ">
<polygon fill="white" stroke="#666666" points="1809.88,-129.75 1755.62,-129.75 1755.62,-110.5 1809.88,-110.5 1809.88,-129.75"/>
<text text-anchor="middle" x="1782.75" y="-116.25" font-family="Helvetica,sans-Serif" font-size="10.00">TGriffin.h</text>
</a>
</g>
</g>
<!-- Node1&#45;&gt;Node3 -->
<g id="edge2_Node000001_Node000003" class="edge">
<title>Node1&#45;&gt;Node3</title>
<g id="a_edge2_Node000001_Node000003"><a xlink:title=" ">
<path fill="none" stroke="#63b8ff" d="M1782.75,-154.13C1782.75,-145.84 1782.75,-136.67 1782.75,-130.11"/>
<polygon fill="#63b8ff" stroke="#63b8ff" points="1779.25,-154.07 1782.75,-164.07 1786.25,-154.07 1779.25,-154.07"/>
</a>
</g>
</g>
<!-- Node39 -->
<g id="Node000039" class="node">
<title>Node39</title>
<g id="a_Node000039"><a xlink:href="_t_griffin_hit_8cxx.html" target="_top" xlink:title=" ">
<polygon fill="white" stroke="#666666" points="3416.75,-74.5 3340.75,-74.5 3340.75,-55.25 3416.75,-55.25 3416.75,-74.5"/>
<text text-anchor="middle" x="3378.75" y="-61" font-family="Helvetica,sans-Serif" font-size="10.00">TGriffinHit.cxx</text>
</a>
</g>
</g>
<!-- Node1&#45;&gt;Node39 -->
<g id="edge46_Node000001_Node000039" class="edge">
<title>Node1&#45;&gt;Node39</title>
<g id="a_edge46_Node000001_Node000039"><a xlink:title=" ">
<path fill="none" stroke="#63b8ff" d="M1828.18,-173.39C2014.78,-168.93 2740.3,-147.58 3331.75,-74.5 3334.55,-74.15 3337.43,-73.75 3340.33,-73.3"/>
<polygon fill="#63b8ff" stroke="#63b8ff" points="1828.11,-169.89 1818.19,-173.62 1828.27,-176.89 1828.11,-169.89"/>
</a>
</g>
</g>
<!-- Node3&#45;&gt;Node2 -->
<g id="edge30_Node000003_Node000002" class="edge">
<title>Node3&#45;&gt;Node2</title>
<g id="a_edge30_Node000003_Node000002"><a xlink:title=" ">
<path fill="none" stroke="#63b8ff" d="M1743.92,-118.59C1526.42,-115.53 457.49,-99.42 128.75,-74.5 125.86,-74.28 122.91,-74.03 119.93,-73.75"/>
<polygon fill="#63b8ff" stroke="#63b8ff" points="1743.77,-122.09 1753.81,-118.73 1743.86,-115.09 1743.77,-122.09"/>
</a>
</g>
</g>
<!-- Node4 -->
<g id="Node000004" class="node">
<title>Node4</title>
<g id="a_Node000004"><a xlink:href="_alphanumeric_helper_8hh.html" target="_top" xlink:title=" ">
<polygon fill="white" stroke="#666666" points="254,-74.5 137.5,-74.5 137.5,-55.25 254,-55.25 254,-74.5"/>
<text text-anchor="middle" x="195.75" y="-61" font-family="Helvetica,sans-Serif" font-size="10.00">AlphanumericHelper.hh</text>
</a>
</g>
</g>
<!-- Node3&#45;&gt;Node4 -->
<g id="edge3_Node000003_Node000004" class="edge">
<title>Node3&#45;&gt;Node4</title>
<g id="a_edge3_Node000003_Node000004"><a xlink:title=" ">
<path fill="none" stroke="#63b8ff" d="M1743.95,-119.36C1570.82,-120.15 851.63,-120.31 263.75,-74.5 260.67,-74.26 257.51,-73.98 254.32,-73.67"/>
<polygon fill="#63b8ff" stroke="#63b8ff" points="1743.74,-122.87 1753.72,-119.32 1743.7,-115.87 1743.74,-122.87"/>
</a>
</g>
</g>
<!-- Node6 -->
<g id="Node000006" class="node">
<title>Node6</title>
<g id="a_Node000006"><a xlink:href="_alphanumeric_selector_8h.html" target="_top" xlink:title=" ">
<polygon fill="white" stroke="#666666" points="391.12,-74.5 272.38,-74.5 272.38,-55.25 391.12,-55.25 391.12,-74.5"/>
<text text-anchor="middle" x="331.75" y="-61" font-family="Helvetica,sans-Serif" font-size="10.00">AlphanumericSelector.h</text>
</a>
</g>
</g>
<!-- Node3&#45;&gt;Node6 -->
<g id="edge5_Node000003_Node000006" class="edge">
<title>Node3&#45;&gt;Node6</title>
<g id="a_edge5_Node000003_Node000006"><a xlink:title=" ">
<path fill="none" stroke="#63b8ff" d="M1744.09,-119.18C1580.84,-119.13 931.91,-116.18 400.75,-74.5 397.74,-74.26 394.66,-73.99 391.55,-73.69"/>
<polygon fill="#63b8ff" stroke="#63b8ff" points="1743.91,-122.68 1753.91,-119.18 1743.91,-115.68 1743.91,-122.68"/>
</a>
</g>
</g>
<!-- Node8 -->
<g id="Node000008" class="node">
<title>Node8</title>
<g id="a_Node000008"><a xlink:href="_angular_correlation_helper_8hh.html" target="_top" xlink:title=" ">
<polygon fill="white" stroke="#666666" points="546.12,-74.5 409.38,-74.5 409.38,-55.25 546.12,-55.25 546.12,-74.5"/>
<text text-anchor="middle" x="477.75" y="-61" font-family="Helvetica,sans-Serif" font-size="10.00">AngularCorrelationHelper.hh</text>
</a>
</g>
</g>
<!-- Node3&#45;&gt;Node8 -->
<g id="edge7_Node000003_Node000008" class="edge">
<title>Node3&#45;&gt;Node8</title>
<g id="a_edge7_Node000003_Node000008"><a xlink:title=" ">
<path fill="none" stroke="#63b8ff" d="M1744.08,-118.78C1592.25,-117.19 1022.37,-109.14 554.75,-74.5 552.07,-74.3 549.33,-74.08 546.57,-73.84"/>
<polygon fill="#63b8ff" stroke="#63b8ff" points="1743.93,-122.28 1753.97,-118.88 1744,-115.28 1743.93,-122.28"/>
</a>
</g>
</g>
<!-- Node10 -->
<g id="Node000010" class="node">
<title>Node10</title>
<g id="a_Node000010"><a xlink:href="_angular_correlation_selector_8h.html" target="_top" xlink:title=" ">
<polygon fill="white" stroke="#666666" points="703.25,-74.5 564.25,-74.5 564.25,-55.25 703.25,-55.25 703.25,-74.5"/>
<text text-anchor="middle" x="633.75" y="-61" font-family="Helvetica,sans-Serif" font-size="10.00">AngularCorrelationSelector.h</text>
</a>
</g>
</g>
<!-- Node3&#45;&gt;Node10 -->
<g id="edge9_Node000003_Node000010" class="edge">
<title>Node3&#45;&gt;Node10</title>
<g id="a_edge9_Node000003_Node000010"><a xlink:title=" ">
<path fill="none" stroke="#63b8ff" d="M1744.12,-118.47C1604.74,-115.91 1114.74,-105.14 711.75,-74.5 709.03,-74.29 706.26,-74.07 703.47,-73.82"/>
<polygon fill="#63b8ff" stroke="#63b8ff" points="1743.83,-121.97 1753.89,-118.65 1743.95,-114.97 1743.83,-121.97"/>
</a>
</g>
</g>
<!-- Node12 -->
<g id="Node000012" class="node">
<title>Node12</title>
<g id="a_Node000012"><a xlink:href="_cross_talk_8h.html" target="_top" xlink:title=" ">
<polygon fill="white" stroke="#666666" points="788.62,-74.5 720.88,-74.5 720.88,-55.25 788.62,-55.25 788.62,-74.5"/>
<text text-anchor="middle" x="754.75" y="-61" font-family="Helvetica,sans-Serif" font-size="10.00">CrossTalk.h</text>
</a>
</g>
</g>
<!-- Node3&#45;&gt;Node12 -->
<g id="edge11_Node000003_Node000012" class="edge">
<title>Node3&#45;&gt;Node12</title>
<g id="a_edge11_Node000003_Node000012"><a xlink:title=" ">
<path fill="none" stroke="#63b8ff" d="M1744.08,-119.49C1611.59,-120.28 1163.92,-119.25 797.75,-74.5 794.88,-74.15 791.91,-73.71 788.94,-73.22"/>
<polygon fill="#63b8ff" stroke="#63b8ff" points="1743.71,-122.99 1753.69,-119.42 1743.67,-115.99 1743.71,-122.99"/>
</a>
</g>
</g>
<!-- Node14 -->
<g id="Node000014" class="node">
<title>Node14</title>
<g id="a_Node000014"><a xlink:href="_cross_talk_helper_8hh.html" target="_top" xlink:title=" ">
<polygon fill="white" stroke="#666666" points="908.5,-74.5 807,-74.5 807,-55.25 908.5,-55.25 908.5,-74.5"/>
<text text-anchor="middle" x="857.75" y="-61" font-family="Helvetica,sans-Serif" font-size="10.00">CrossTalkHelper.hh</text>
</a>
</g>
</g>
<!-- Node3&#45;&gt;Node14 -->
<g id="edge13_Node000003_Node000014" class="edge">
<title>Node3&#45;&gt;Node14</title>
<g id="a_edge13_Node000003_Node000014"><a xlink:title=" ">
<path fill="none" stroke="#63b8ff" d="M1744.15,-118.39C1622.45,-115.8 1236.04,-105.52 917.75,-74.5 914.82,-74.21 911.81,-73.89 908.77,-73.53"/>
<polygon fill="#63b8ff" stroke="#63b8ff" points="1743.83,-121.88 1753.9,-118.59 1743.97,-114.88 1743.83,-121.88"/>
</a>
</g>
</g>
<!-- Node16 -->
<g id="Node000016" class="node">
<title>Node16</title>
<g id="a_Node000016"><a xlink:href="_deadtime_8cxx.html" target="_top" xlink:title=" ">
<polygon fill="white" stroke="#666666" points="1000.62,-74.5 926.88,-74.5 926.88,-55.25 1000.62,-55.25 1000.62,-74.5"/>
<text text-anchor="middle" x="963.75" y="-61" font-family="Helvetica,sans-Serif" font-size="10.00">Deadtime.cxx</text>
</a>
</g>
</g>
<!-- Node3&#45;&gt;Node16 -->
<g id="edge15_Node000003_Node000016" class="edge">
<title>Node3&#45;&gt;Node16</title>
<g id="a_edge15_Node000003_Node000016"><a xlink:title=" ">
<path fill="none" stroke="#63b8ff" d="M1743.75,-118.63C1630.14,-116.81 1289.77,-108.69 1009.75,-74.5 1006.93,-74.16 1004.02,-73.74 1001.09,-73.29"/>
<polygon fill="#63b8ff" stroke="#63b8ff" points="1743.69,-122.13 1753.74,-118.78 1743.79,-115.13 1743.69,-122.13"/>
</a>
</g>
</g>
<!-- Node17 -->
<g id="Node000017" class="node">
<title>Node17</title>
<g id="a_Node000017"><a xlink:href="_directory_helper_8hh.html" target="_top" xlink:title=" ">
<polygon fill="white" stroke="#666666" points="1114.5,-74.5 1019,-74.5 1019,-55.25 1114.5,-55.25 1114.5,-74.5"/>
<text text-anchor="middle" x="1066.75" y="-61" font-family="Helvetica,sans-Serif" font-size="10.00">DirectoryHelper.hh</text>
</a>
</g>
</g>
<!-- Node3&#45;&gt;Node17 -->
<g id="edge16_Node000003_Node000017" class="edge">
<title>Node3&#45;&gt;Node17</title>
<g id="a_edge16_Node000003_Node000017"><a xlink:title=" ">
<path fill="none" stroke="#63b8ff" d="M1744.16,-117.63C1642.44,-113.44 1358.68,-100.18 1123.75,-74.5 1120.86,-74.18 1117.9,-73.83 1114.92,-73.45"/>
<polygon fill="#63b8ff" stroke="#63b8ff" points="1743.73,-121.11 1753.86,-118.02 1744.01,-114.12 1743.73,-121.11"/>
</a>
</g>
</g>
<!-- Node19 -->
<g id="Node000019" class="node">
<title>Node19</title>
<g id="a_Node000019"><a xlink:href="_efficiency_helper_8hh.html" target="_top" xlink:title=" ">
<polygon fill="white" stroke="#666666" points="1230.62,-74.5 1132.88,-74.5 1132.88,-55.25 1230.62,-55.25 1230.62,-74.5"/>
<text text-anchor="middle" x="1181.75" y="-61" font-family="Helvetica,sans-Serif" font-size="10.00">EfficiencyHelper.hh</text>
</a>
</g>
</g>
<!-- Node3&#45;&gt;Node19 -->
<g id="edge18_Node000003_Node000019" class="edge">
<title>Node3&#45;&gt;Node19</title>
<g id="a_edge18_Node000003_Node000019"><a xlink:title=" ">
<path fill="none" stroke="#63b8ff" d="M1743.86,-116.81C1654.59,-111.3 1428.18,-96.23 1239.75,-74.5 1236.92,-74.17 1234.01,-73.82 1231.08,-73.44"/>
<polygon fill="#63b8ff" stroke="#63b8ff" points="1743.58,-120.3 1753.77,-117.41 1744,-113.31 1743.58,-120.3"/>
</a>
</g>
</g>
<!-- Node21 -->
<g id="Node000021" class="node">
<title>Node21</title>
<g id="a_Node000021"><a xlink:href="_example_event_helper_8hh.html" target="_top" xlink:title=" ">
<polygon fill="white" stroke="#666666" points="1367.12,-74.5 1248.38,-74.5 1248.38,-55.25 1367.12,-55.25 1367.12,-74.5"/>
<text text-anchor="middle" x="1307.75" y="-61" font-family="Helvetica,sans-Serif" font-size="10.00">ExampleEventHelper.hh</text>
</a>
</g>
</g>
<!-- Node3&#45;&gt;Node21 -->
<g id="edge20_Node000003_Node000021" class="edge">
<title>Node3&#45;&gt;Node21</title>
<g id="a_edge20_Node000003_Node000021"><a xlink:title=" ">
<path fill="none" stroke="#63b8ff" d="M1744.37,-115.14C1672.16,-107.58 1511.16,-90.51 1375.75,-74.5 1373.03,-74.18 1370.25,-73.85 1367.45,-73.51"/>
<polygon fill="#63b8ff" stroke="#63b8ff" points="1743.77,-118.59 1754.08,-116.15 1744.49,-111.63 1743.77,-118.59"/>
</a>
</g>
</g>
<!-- Node23 -->
<g id="Node000023" class="node">
<title>Node23</title>
<g id="a_Node000023"><a xlink:href="_example_event_selector_8h.html" target="_top" xlink:title=" ">
<polygon fill="white" stroke="#666666" points="1506.25,-74.5 1385.25,-74.5 1385.25,-55.25 1506.25,-55.25 1506.25,-74.5"/>
<text text-anchor="middle" x="1445.75" y="-61" font-family="Helvetica,sans-Serif" font-size="10.00">ExampleEventSelector.h</text>
</a>
</g>
</g>
<!-- Node3&#45;&gt;Node23 -->
<g id="edge22_Node000003_Node000023" class="edge">
<title>Node3&#45;&gt;Node23</title>
<g id="a_edge22_Node000003_Node000023"><a xlink:title=" ">
<path fill="none" stroke="#63b8ff" d="M1744.12,-113.02C1685.14,-103.7 1572.24,-85.86 1503.5,-75"/>
<polygon fill="#63b8ff" stroke="#63b8ff" points="1743.25,-116.43 1753.68,-114.53 1744.35,-109.51 1743.25,-116.43"/>
</a>
</g>
</g>
<!-- Node25 -->
<g id="Node000025" class="node">
<title>Node25</title>
<g id="a_Node000025"><a xlink:href="_example_tree_helper_8hh.html" target="_top" xlink:title=" ">
<polygon fill="white" stroke="#666666" points="1637.5,-74.5 1524,-74.5 1524,-55.25 1637.5,-55.25 1637.5,-74.5"/>
<text text-anchor="middle" x="1580.75" y="-61" font-family="Helvetica,sans-Serif" font-size="10.00">ExampleTreeHelper.hh</text>
</a>
</g>
</g>
<!-- Node3&#45;&gt;Node25 -->
<g id="edge24_Node000003_Node000025" class="edge">
<title>Node3&#45;&gt;Node25</title>
<g id="a_edge24_Node000003_Node000025"><a xlink:title=" ">
<path fill="none" stroke="#63b8ff" d="M1744.61,-109.07C1707.39,-99.26 1651.27,-84.46 1615.32,-74.99"/>
<polygon fill="#63b8ff" stroke="#63b8ff" points="1743.48,-112.39 1754.04,-111.56 1745.27,-105.62 1743.48,-112.39"/>
</a>
</g>
</g>
<!-- Node27 -->
<g id="Node000027" class="node">
<title>Node27</title>
<g id="a_Node000027"><a xlink:href="_example_tree_selector_8h.html" target="_top" xlink:title=" ">
<polygon fill="white" stroke="#666666" points="1771.62,-74.5 1655.88,-74.5 1655.88,-55.25 1771.62,-55.25 1771.62,-74.5"/>
<text text-anchor="middle" x="1713.75" y="-61" font-family="Helvetica,sans-Serif" font-size="10.00">ExampleTreeSelector.h</text>
</a>
</g>
</g>
<!-- Node3&#45;&gt;Node27 -->
<g id="edge26_Node000003_Node000027" class="edge">
<title>Node3&#45;&gt;Node27</title>
<g id="a_edge26_Node000003_Node000027"><a xlink:title=" ">
<path fill="none" stroke="#63b8ff" d="M1762.1,-103.19C1750.05,-93.89 1735.3,-82.51 1725.28,-74.77"/>
<polygon fill="#63b8ff" stroke="#63b8ff" points="1759.79,-105.83 1769.85,-109.17 1764.07,-100.29 1759.79,-105.83"/>
</a>
</g>
</g>
<!-- Node29 -->
<g id="Node000029" class="node">
<title>Node29</title>
<g id="a_Node000029"><a xlink:href="_fast_timing_hist_selector_8h.html" target="_top" xlink:title=" ">
<polygon fill="white" stroke="#666666" points="1915.88,-74.5 1789.62,-74.5 1789.62,-55.25 1915.88,-55.25 1915.88,-74.5"/>
<text text-anchor="middle" x="1852.75" y="-61" font-family="Helvetica,sans-Serif" font-size="10.00">FastTimingHistSelector.h</text>
</a>
</g>
</g>
<!-- Node3&#45;&gt;Node29 -->
<g id="edge28_Node000003_Node000029" class="edge">
<title>Node3&#45;&gt;Node29</title>
<g id="a_edge28_Node000003_Node000029"><a xlink:title=" ">
<path fill="none" stroke="#63b8ff" d="M1803.7,-103.19C1815.92,-93.89 1830.89,-82.51 1841.05,-74.77"/>
<polygon fill="#63b8ff" stroke="#63b8ff" points="1801.67,-100.34 1795.83,-109.18 1805.91,-105.91 1801.67,-100.34"/>
</a>
</g>
</g>
<!-- Node31 -->
<g id="Node000031" class="node">
<title>Node31</title>
<g id="a_Node000031"><a xlink:href="_get_tree_entries_8cxx.html" target="_top" xlink:title=" ">
<polygon fill="white" stroke="#666666" points="2031.62,-74.5 1933.88,-74.5 1933.88,-55.25 2031.62,-55.25 2031.62,-74.5"/>
<text text-anchor="middle" x="1982.75" y="-61" font-family="Helvetica,sans-Serif" font-size="10.00">GetTreeEntries.cxx</text>
</a>
</g>
</g>
<!-- Node3&#45;&gt;Node31 -->
<g id="edge31_Node000003_Node000031" class="edge">
<title>Node3&#45;&gt;Node31</title>
<g id="a_edge31_Node000003_Node000031"><a xlink:title=" ">
<path fill="none" stroke="#63b8ff" d="M1820.96,-108.95C1857.86,-99.13 1913.23,-84.38 1948.67,-74.95"/>
<polygon fill="#63b8ff" stroke="#63b8ff" points="1820.37,-105.49 1811.6,-111.44 1822.17,-112.25 1820.37,-105.49"/>
</a>
</g>
</g>
<!-- Node32 -->
<g id="Node000032" class="node">
<title>Node32</title>
<g id="a_Node000032"><a xlink:href="_griffin_c_t_fix_8cxx.html" target="_top" xlink:title=" ">
<polygon fill="white" stroke="#666666" points="2132.12,-74.5 2049.38,-74.5 2049.38,-55.25 2132.12,-55.25 2132.12,-74.5"/>
<text text-anchor="middle" x="2090.75" y="-61" font-family="Helvetica,sans-Serif" font-size="10.00">GriffinCTFix.cxx</text>
</a>
</g>
</g>
<!-- Node3&#45;&gt;Node32 -->
<g id="edge32_Node000003_Node000032" class="edge">
<title>Node3&#45;&gt;Node32</title>
<g id="a_edge32_Node000003_Node000032"><a xlink:title=" ">
<path fill="none" stroke="#63b8ff" d="M1821.63,-112.4C1879.85,-102.34 1989.24,-83.43 2049.06,-73.08"/>
<polygon fill="#63b8ff" stroke="#63b8ff" points="1821.1,-108.94 1811.85,-114.09 1822.3,-115.84 1821.1,-108.94"/>
</a>
</g>
</g>
<!-- Node33 -->
<g id="Node000033" class="node">
<title>Node33</title>
<g id="a_Node000033"><a xlink:href="_lean_compton_matrices_8cxx.html" target="_top" xlink:title=" ">
<polygon fill="white" stroke="#666666" points="2281.12,-74.5 2150.38,-74.5 2150.38,-55.25 2281.12,-55.25 2281.12,-74.5"/>
<text text-anchor="middle" x="2215.75" y="-61" font-family="Helvetica,sans-Serif" font-size="10.00">LeanComptonMatrices.cxx</text>
</a>
</g>
</g>
<!-- Node3&#45;&gt;Node33 -->
<g id="edge33_Node000003_Node000033" class="edge">
<title>Node3&#45;&gt;Node33</title>
<g id="a_edge33_Node000003_Node000033"><a xlink:title=" ">
<path fill="none" stroke="#63b8ff" d="M1821.27,-114.39C1895.42,-105.27 2058.69,-85.19 2150.24,-73.93"/>
<polygon fill="#63b8ff" stroke="#63b8ff" points="1821.16,-110.87 1811.67,-115.57 1822.02,-117.82 1821.16,-110.87"/>
</a>
</g>
</g>
<!-- Node34 -->
<g id="Node000034" class="node">
<title>Node34</title>
<g id="a_Node000034"><a xlink:href="_make_griffin_histograms_8cxx.html" target="_top" xlink:title=" ">
<polygon fill="white" stroke="#666666" points="2430.5,-74.5 2299,-74.5 2299,-55.25 2430.5,-55.25 2430.5,-74.5"/>
<text text-anchor="middle" x="2364.75" y="-61" font-family="Helvetica,sans-Serif" font-size="10.00">MakeGriffinHistograms.cxx</text>
</a>
</g>
</g>
<!-- Node3&#45;&gt;Node34 -->
<g id="edge34_Node000003_Node000034" class="edge">
<title>Node3&#45;&gt;Node34</title>
<g id="a_edge34_Node000003_Node000034"><a xlink:title=" ">
<path fill="none" stroke="#63b8ff" d="M1821.64,-116.06C1906.64,-109.28 2115.29,-92.21 2289.75,-74.5 2292.62,-74.21 2295.55,-73.9 2298.51,-73.59"/>
<polygon fill="#63b8ff" stroke="#63b8ff" points="1821.45,-112.56 1811.76,-116.84 1822.01,-119.54 1821.45,-112.56"/>
</a>
</g>
</g>
<!-- Node35 -->
<g id="Node000035" class="node">
<title>Node35</title>
<g id="a_Node000035"><a xlink:href="_t_angular_correlation_8cxx.html" target="_top" xlink:title=" ">
<polygon fill="white" stroke="#666666" points="2566.75,-74.5 2448.75,-74.5 2448.75,-55.25 2566.75,-55.25 2566.75,-74.5"/>
<text text-anchor="middle" x="2507.75" y="-61" font-family="Helvetica,sans-Serif" font-size="10.00">TAngularCorrelation.cxx</text>
</a>
</g>
</g>
<!-- Node3&#45;&gt;Node35 -->
<g id="edge35_Node000003_Node000035" class="edge">
<title>Node3&#45;&gt;Node35</title>
<g id="a_edge35_Node000003_Node000035"><a xlink:title=" ">
<path fill="none" stroke="#63b8ff" d="M1821.54,-117.28C1923.18,-112.28 2205.52,-97.29 2439.75,-74.5 2442.59,-74.22 2445.5,-73.92 2448.43,-73.61"/>
<polygon fill="#63b8ff" stroke="#63b8ff" points="1821.67,-113.77 1811.85,-117.76 1822.01,-120.76 1821.67,-113.77"/>
</a>
</g>
</g>
<!-- Node36 -->
<g id="Node000036" class="node">
<title>Node36</title>
<g id="a_Node000036"><a xlink:href="_t_g_r_s_i_mnemonic_8cxx.html" target="_top" xlink:title=" ">
<polygon fill="white" stroke="#666666" points="2692.5,-74.5 2585,-74.5 2585,-55.25 2692.5,-55.25 2692.5,-74.5"/>
<text text-anchor="middle" x="2638.75" y="-61" font-family="Helvetica,sans-Serif" font-size="10.00">TGRSIMnemonic.cxx</text>
</a>
</g>
</g>
<!-- Node3&#45;&gt;Node36 -->
<g id="edge36_Node000003_Node000036" class="edge">
<title>Node3&#45;&gt;Node36</title>
<g id="a_edge36_Node000003_Node000036"><a xlink:title=" ">
<path fill="none" stroke="#63b8ff" d="M1821.54,-118.04C1936.72,-114.58 2286.76,-102.37 2575.75,-74.5 2578.72,-74.21 2581.76,-73.89 2584.83,-73.55"/>
<polygon fill="#63b8ff" stroke="#63b8ff" points="1821.61,-114.54 1811.72,-118.33 1821.81,-121.53 1821.61,-114.54"/>
</a>
</g>
</g>
<!-- Node37 -->
<g id="Node000037" class="node">
<title>Node37</title>
<g id="a_Node000037"><a xlink:href="_t_griffin_8cxx.html" target="_top" xlink:title=" ">
<polygon fill="white" stroke="#666666" points="2773.38,-74.5 2710.12,-74.5 2710.12,-55.25 2773.38,-55.25 2773.38,-74.5"/>
<text text-anchor="middle" x="2741.75" y="-61" font-family="Helvetica,sans-Serif" font-size="10.00">TGriffin.cxx</text>
</a>
</g>
</g>
<!-- Node3&#45;&gt;Node37 -->
<g id="edge37_Node000003_Node000037" class="edge">
<title>Node3&#45;&gt;Node37</title>
<g id="a_edge37_Node000003_Node000037"><a xlink:title=" ">
<path fill="none" stroke="#63b8ff" d="M1821.74,-119.51C1948.92,-120.27 2363.05,-118.93 2701.75,-74.5 2704.43,-74.15 2707.19,-73.71 2709.96,-73.22"/>
<polygon fill="#63b8ff" stroke="#63b8ff" points="1821.88,-116.01 1811.85,-119.44 1821.83,-123.01 1821.88,-116.01"/>
</a>
</g>
</g>
<!-- Node38 -->
<g id="Node000038" class="node">
<title>Node38</title>
<g id="a_Node000038"><a xlink:href="_t_griffin_angles_8cxx.html" target="_top" xlink:title=" ">
<polygon fill="white" stroke="#666666" points="2884.38,-74.5 2791.12,-74.5 2791.12,-55.25 2884.38,-55.25 2884.38,-74.5"/>
<text text-anchor="middle" x="2837.75" y="-61" font-family="Helvetica,sans-Serif" font-size="10.00">TGriffinAngles.cxx</text>
</a>
</g>
</g>
<!-- Node3&#45;&gt;Node38 -->
<g id="edge38_Node000003_Node000038" class="edge">
<title>Node3&#45;&gt;Node38</title>
<g id="a_edge38_Node000003_Node000038"><a xlink:title=" ">
<path fill="none" stroke="#63b8ff" d="M1821.49,-118.94C1955.22,-117.97 2409.71,-111.96 2782.75,-74.5 2785.35,-74.24 2788.01,-73.94 2790.69,-73.61"/>
<polygon fill="#63b8ff" stroke="#63b8ff" points="1821.76,-115.44 1811.78,-119 1821.81,-122.44 1821.76,-115.44"/>
</a>
</g>
</g>
<!-- Node3&#45;&gt;Node39 -->
<g id="edge39_Node000003_Node000039" class="edge">
<title>Node3&#45;&gt;Node39</title>
<g id="a_edge39_Node000003_Node000039"><a xlink:title=" ">
<path fill="none" stroke="#63b8ff" d="M1821.44,-118.81C2030.38,-117 3025.83,-106.79 3331.75,-74.5 3334.56,-74.2 3337.44,-73.83 3340.35,-73.42"/>
<polygon fill="#63b8ff" stroke="#63b8ff" points="1821.66,-115.31 1811.69,-118.9 1821.72,-122.31 1821.66,-115.31"/>
</a>
</g>
</g>
<!-- Node40 -->
<g id="Node000040" class="node">
<title>Node40</title>
<g id="a_Node000040"><a xlink:href="_time_walk_helper_8hh.html" target="_top" xlink:title=" ">
<polygon fill="white" stroke="#666666" points="3003.12,-74.5 2902.38,-74.5 2902.38,-55.25 3003.12,-55.25 3003.12,-74.5"/>
<text text-anchor="middle" x="2952.75" y="-61" font-family="Helvetica,sans-Serif" font-size="10.00">TimeWalkHelper.hh</text>
</a>
</g>
</g>
<!-- Node3&#45;&gt;Node40 -->
<g id="edge40_Node000003_Node000040" class="edge">
<title>Node3&#45;&gt;Node40</title>
<g id="a_edge40_Node000003_Node000040"><a xlink:title=" ">
<path fill="none" stroke="#63b8ff" d="M1821.47,-119.04C1964.29,-118.41 2474.97,-113.41 2893.75,-74.5 2896.43,-74.25 2899.17,-73.96 2901.94,-73.65"/>
<polygon fill="#63b8ff" stroke="#63b8ff" points="1821.81,-115.54 1811.82,-119.08 1821.83,-122.54 1821.81,-115.54"/>
</a>
</g>
</g>
<!-- Node42 -->
<g id="Node000042" class="node">
<title>Node42</title>
<g id="a_Node000042"><a xlink:href="_time_walk_selector_8h.html" target="_top" xlink:title=" ">
<polygon fill="white" stroke="#666666" points="3124.25,-74.5 3021.25,-74.5 3021.25,-55.25 3124.25,-55.25 3124.25,-74.5"/>
<text text-anchor="middle" x="3072.75" y="-61" font-family="Helvetica,sans-Serif" font-size="10.00">TimeWalkSelector.h</text>
</a>
</g>
</g>
<!-- Node3&#45;&gt;Node42 -->
<g id="edge42_Node000003_Node000042" class="edge">
<title>Node3&#45;&gt;Node42</title>
<g id="a_edge42_Node000003_Node000042"><a xlink:title=" ">
<path fill="none" stroke="#63b8ff" d="M1821.49,-119.19C1973.56,-119.11 2544.29,-115.92 3011.75,-74.5 3014.73,-74.24 3017.79,-73.93 3020.88,-73.58"/>
<polygon fill="#63b8ff" stroke="#63b8ff" points="1821.58,-115.69 1811.58,-119.19 1821.58,-122.69 1821.58,-115.69"/>
</a>
</g>
</g>
<!-- Node44 -->
<g id="Node000044" class="node">
<title>Node44</title>
<g id="a_Node000044"><a xlink:href="tac__calibrator_8cxx.html" target="_top" xlink:title=" ">
<polygon fill="white" stroke="#666666" points="3233.25,-74.5 3142.25,-74.5 3142.25,-55.25 3233.25,-55.25 3233.25,-74.5"/>
<text text-anchor="middle" x="3187.75" y="-61" font-family="Helvetica,sans-Serif" font-size="10.00">tac_calibrator.cxx</text>
</a>
</g>
</g>
<!-- Node3&#45;&gt;Node44 -->
<g id="edge44_Node000003_Node000044" class="edge">
<title>Node3&#45;&gt;Node44</title>
<g id="a_edge44_Node000003_Node000044"><a xlink:title=" ">
<path fill="none" stroke="#63b8ff" d="M1821.85,-118.5C2015.07,-115.29 2869.18,-99.9 3133.75,-74.5 3136.4,-74.25 3139.11,-73.94 3141.84,-73.61"/>
<polygon fill="#63b8ff" stroke="#63b8ff" points="1821.8,-115 1811.86,-118.66 1821.91,-122 1821.8,-115"/>
</a>
</g>
</g>
<!-- Node45 -->
<g id="Node000045" class="node">
<title>Node45</title>
<g id="a_Node000045"><a xlink:href="write__cal_8cxx.html" target="_top" xlink:title=" ">
<polygon fill="white" stroke="#666666" points="3322.5,-74.5 3251,-74.5 3251,-55.25 3322.5,-55.25 3322.5,-74.5"/>
<text text-anchor="middle" x="3286.75" y="-61" font-family="Helvetica,sans-Serif" font-size="10.00">write_cal.cxx</text>
</a>
</g>
</g>
<!-- Node3&#45;&gt;Node45 -->
<g id="edge45_Node000003_Node000045" class="edge">
<title>Node3&#45;&gt;Node45</title>
<g id="a_edge45_Node000003_Node000045"><a xlink:title=" ">
<path fill="none" stroke="#63b8ff" d="M1821.75,-118.79C2024.08,-116.94 2955.82,-106.79 3242.75,-74.5 3245.38,-74.2 3248.09,-73.83 3250.81,-73.42"/>
<polygon fill="#63b8ff" stroke="#63b8ff" points="1821.76,-115.29 1811.79,-118.88 1821.82,-122.29 1821.76,-115.29"/>
</a>
</g>
</g>
<!-- Node5 -->
<g id="Node000005" class="node">
<title>Node5</title>
<g id="a_Node000005"><a xlink:href="_alphanumeric_helper_8cxx.html" target="_top" xlink:title=" ">
<polygon fill="white" stroke="#666666" points="250.88,-19.25 130.62,-19.25 130.62,0 250.88,0 250.88,-19.25"/>
<text text-anchor="middle" x="190.75" y="-5.75" font-family="Helvetica,sans-Serif" font-size="10.00">AlphanumericHelper.cxx</text>
</a>
</g>
</g>
<!-- Node4&#45;&gt;Node5 -->
<g id="edge4_Node000004_Node000005" class="edge">
<title>Node4&#45;&gt;Node5</title>
<g id="a_edge4_Node000004_Node000005"><a xlink:title=" ">
<path fill="none" stroke="#63b8ff" d="M193.85,-43.63C193.07,-35.34 192.21,-26.17 191.59,-19.61"/>
<polygon fill="#63b8ff" stroke="#63b8ff" points="190.36,-43.95 194.78,-53.57 197.33,-43.29 190.36,-43.95"/>
</a>
</g>
</g>
<!-- Node7 -->
<g id="Node000007" class="node">
<title>Node7</title>
<g id="a_Node000007"><a xlink:href="_alphanumeric_selector_8_c.html" target="_top" xlink:title=" ">
<polygon fill="white" stroke="#666666" points="388.88,-19.25 268.62,-19.25 268.62,0 388.88,0 388.88,-19.25"/>
<text text-anchor="middle" x="328.75" y="-5.75" font-family="Helvetica,sans-Serif" font-size="10.00">AlphanumericSelector.C</text>
</a>
</g>
</g>
<!-- Node6&#45;&gt;Node7 -->
<g id="edge6_Node000006_Node000007" class="edge">
<title>Node6&#45;&gt;Node7</title>
<g id="a_edge6_Node000006_Node000007"><a xlink:title=" ">
<path fill="none" stroke="#63b8ff" d="M330.61,-43.63C330.14,-35.34 329.63,-26.17 329.26,-19.61"/>
<polygon fill="#63b8ff" stroke="#63b8ff" points="327.11,-43.78 331.17,-53.57 334.1,-43.39 327.11,-43.78"/>
</a>
</g>
</g>
<!-- Node9 -->
<g id="Node000009" class="node">
<title>Node9</title>
<g id="a_Node000009"><a xlink:href="_angular_correlation_helper_8cxx.html" target="_top" xlink:title=" ">
<polygon fill="white" stroke="#666666" points="547,-19.25 406.5,-19.25 406.5,0 547,0 547,-19.25"/>
<text text-anchor="middle" x="476.75" y="-5.75" font-family="Helvetica,sans-Serif" font-size="10.00">AngularCorrelationHelper.cxx</text>
</a>
</g>
</g>
<!-- Node8&#45;&gt;Node9 -->
<g id="edge8_Node000008_Node000009" class="edge">
<title>Node8&#45;&gt;Node9</title>
<g id="a_edge8_Node000008_Node000009"><a xlink:title=" ">
<path fill="none" stroke="#63b8ff" d="M477.37,-43.63C477.21,-35.34 477.04,-26.17 476.92,-19.61"/>
<polygon fill="#63b8ff" stroke="#63b8ff" points="473.87,-43.64 477.56,-53.57 480.87,-43.5 473.87,-43.64"/>
</a>
</g>
</g>
<!-- Node11 -->
<g id="Node000011" class="node">
<title>Node11</title>
<g id="a_Node000011"><a xlink:href="_angular_correlation_selector_8_c.html" target="_top" xlink:title=" ">
<polygon fill="white" stroke="#666666" points="706,-19.25 565.5,-19.25 565.5,0 706,0 706,-19.25"/>
<text text-anchor="middle" x="635.75" y="-5.75" font-family="Helvetica,sans-Serif" font-size="10.00">AngularCorrelationSelector.C</text>
</a>
</g>
</g>
<!-- Node10&#45;&gt;Node11 -->
<g id="edge10_Node000010_Node000011" class="edge">
<title>Node10&#45;&gt;Node11</title>
<g id="a_edge10_Node000010_Node000011"><a xlink:title=" ">
<path fill="none" stroke="#63b8ff" d="M634.51,-43.63C634.82,-35.34 635.17,-26.17 635.41,-19.61"/>
<polygon fill="#63b8ff" stroke="#63b8ff" points="631.01,-43.45 634.14,-53.57 638.01,-43.71 631.01,-43.45"/>
</a>
</g>
</g>
<!-- Node13 -->
<g id="Node000013" class="node">
<title>Node13</title>
<g id="a_Node000013"><a xlink:href="_cross_talk_8_c.html" target="_top" xlink:title=" ">
<polygon fill="white" stroke="#666666" points="793.38,-19.25 724.12,-19.25 724.12,0 793.38,0 793.38,-19.25"/>
<text text-anchor="middle" x="758.75" y="-5.75" font-family="Helvetica,sans-Serif" font-size="10.00">CrossTalk.C</text>
</a>
</g>
</g>
<!-- Node12&#45;&gt;Node13 -->
<g id="edge12_Node000012_Node000013" class="edge">
<title>Node12&#45;&gt;Node13</title>
<g id="a_edge12_Node000012_Node000013"><a xlink:title=" ">
<path fill="none" stroke="#63b8ff" d="M756.27,-43.63C756.89,-35.34 757.58,-26.17 758.08,-19.61"/>
<polygon fill="#63b8ff" stroke="#63b8ff" points="752.78,-43.34 755.52,-53.57 759.76,-43.86 752.78,-43.34"/>
</a>
</g>
</g>
<!-- Node15 -->
<g id="Node000015" class="node">
<title>Node15</title>
<g id="a_Node000015"><a xlink:href="_cross_talk_helper_8cxx.html" target="_top" xlink:title=" ">
<polygon fill="white" stroke="#666666" points="916.38,-19.25 811.12,-19.25 811.12,0 916.38,0 916.38,-19.25"/>
<text text-anchor="middle" x="863.75" y="-5.75" font-family="Helvetica,sans-Serif" font-size="10.00">CrossTalkHelper.cxx</text>
</a>
</g>
</g>
<!-- Node14&#45;&gt;Node15 -->
<g id="edge14_Node000014_Node000015" class="edge">
<title>Node14&#45;&gt;Node15</title>
<g id="a_edge14_Node000014_Node000015"><a xlink:title=" ">
<path fill="none" stroke="#63b8ff" d="M860,-43.92C860.94,-35.55 861.99,-26.25 862.74,-19.61"/>
<polygon fill="#63b8ff" stroke="#63b8ff" points="856.55,-43.25 858.91,-53.58 863.51,-44.03 856.55,-43.25"/>
</a>
</g>
</g>
<!-- Node18 -->
<g id="Node000018" class="node">
<title>Node18</title>
<g id="a_Node000018"><a xlink:href="_directory_helper_8cxx.html" target="_top" xlink:title=" ">
<polygon fill="white" stroke="#666666" points="1106.38,-19.25 1007.12,-19.25 1007.12,0 1106.38,0 1106.38,-19.25"/>
<text text-anchor="middle" x="1056.75" y="-5.75" font-family="Helvetica,sans-Serif" font-size="10.00">DirectoryHelper.cxx</text>
</a>
</g>
</g>
<!-- Node17&#45;&gt;Node18 -->
<g id="edge17_Node000017_Node000018" class="edge">
<title>Node17&#45;&gt;Node18</title>
<g id="a_edge17_Node000017_Node000018"><a xlink:title=" ">
<path fill="none" stroke="#63b8ff" d="M1063,-43.92C1061.43,-35.55 1059.68,-26.25 1058.44,-19.61"/>
<polygon fill="#63b8ff" stroke="#63b8ff" points="1059.53,-44.41 1064.82,-53.59 1066.41,-43.12 1059.53,-44.41"/>
</a>
</g>
</g>
<!-- Node20 -->
<g id="Node000020" class="node">
<title>Node20</title>
<g id="a_Node000020"><a xlink:href="_efficiency_helper_8cxx.html" target="_top" xlink:title=" ">
<polygon fill="white" stroke="#666666" points="1225.5,-19.25 1124,-19.25 1124,0 1225.5,0 1225.5,-19.25"/>
<text text-anchor="middle" x="1174.75" y="-5.75" font-family="Helvetica,sans-Serif" font-size="10.00">EfficiencyHelper.cxx</text>
</a>
</g>
</g>
<!-- Node19&#45;&gt;Node20 -->
<g id="edge19_Node000019_Node000020" class="edge">
<title>Node19&#45;&gt;Node20</title>
<g id="a_edge19_Node000019_Node000020"><a xlink:title=" ">
<path fill="none" stroke="#63b8ff" d="M1179.13,-43.92C1178.03,-35.55 1176.8,-26.25 1175.93,-19.61"/>
<polygon fill="#63b8ff" stroke="#63b8ff" points="1175.62,-44.12 1180.4,-53.58 1182.56,-43.21 1175.62,-44.12"/>
</a>
</g>
</g>
<!-- Node22 -->
<g id="Node000022" class="node">
<title>Node22</title>
<g id="a_Node000022"><a xlink:href="_example_event_helper_8cxx.html" target="_top" xlink:title=" ">
<polygon fill="white" stroke="#666666" points="1366,-19.25 1243.5,-19.25 1243.5,0 1366,0 1366,-19.25"/>
<text text-anchor="middle" x="1304.75" y="-5.75" font-family="Helvetica,sans-Serif" font-size="10.00">ExampleEventHelper.cxx</text>
</a>
</g>
</g>
<!-- Node21&#45;&gt;Node22 -->
<g id="edge21_Node000021_Node000022" class="edge">
<title>Node21&#45;&gt;Node22</title>
<g id="a_edge21_Node000021_Node000022"><a xlink:title=" ">
<path fill="none" stroke="#63b8ff" d="M1306.61,-43.63C1306.14,-35.34 1305.63,-26.17 1305.26,-19.61"/>
<polygon fill="#63b8ff" stroke="#63b8ff" points="1303.11,-43.78 1307.17,-53.57 1310.1,-43.39 1303.11,-43.78"/>
</a>
</g>
</g>
<!-- Node24 -->
<g id="Node000024" class="node">
<title>Node24</title>
<g id="a_Node000024"><a xlink:href="_example_event_selector_8_c.html" target="_top" xlink:title=" ">
<polygon fill="white" stroke="#666666" points="1507,-19.25 1384.5,-19.25 1384.5,0 1507,0 1507,-19.25"/>
<text text-anchor="middle" x="1445.75" y="-5.75" font-family="Helvetica,sans-Serif" font-size="10.00">ExampleEventSelector.C</text>
</a>
</g>
</g>
<!-- Node23&#45;&gt;Node24 -->
<g id="edge23_Node000023_Node000024" class="edge">
<title>Node23&#45;&gt;Node24</title>
<g id="a_edge23_Node000023_Node000024"><a xlink:title=" ">
<path fill="none" stroke="#63b8ff" d="M1445.75,-43.63C1445.75,-35.34 1445.75,-26.17 1445.75,-19.61"/>
<polygon fill="#63b8ff" stroke="#63b8ff" points="1442.25,-43.57 1445.75,-53.57 1449.25,-43.57 1442.25,-43.57"/>
</a>
</g>
</g>
<!-- Node26 -->
<g id="Node000026" class="node">
<title>Node26</title>
<g id="a_Node000026"><a xlink:href="_example_tree_helper_8cxx.html" target="_top" xlink:title=" ">
<polygon fill="white" stroke="#666666" points="1642.38,-19.25 1525.12,-19.25 1525.12,0 1642.38,0 1642.38,-19.25"/>
<text text-anchor="middle" x="1583.75" y="-5.75" font-family="Helvetica,sans-Serif" font-size="10.00">ExampleTreeHelper.cxx</text>
</a>
</g>
</g>
<!-- Node25&#45;&gt;Node26 -->
<g id="edge25_Node000025_Node000026" class="edge">
<title>Node25&#45;&gt;Node26</title>
<g id="a_edge25_Node000025_Node000026"><a xlink:title=" ">
<path fill="none" stroke="#63b8ff" d="M1581.89,-43.63C1582.36,-35.34 1582.87,-26.17 1583.24,-19.61"/>
<polygon fill="#63b8ff" stroke="#63b8ff" points="1578.4,-43.39 1581.33,-53.57 1585.39,-43.78 1578.4,-43.39"/>
</a>
</g>
</g>
<!-- Node28 -->
<g id="Node000028" class="node">
<title>Node28</title>
<g id="a_Node000028"><a xlink:href="_example_tree_selector_8_c.html" target="_top" xlink:title=" ">
<polygon fill="white" stroke="#666666" points="1777.38,-19.25 1660.12,-19.25 1660.12,0 1777.38,0 1777.38,-19.25"/>
<text text-anchor="middle" x="1718.75" y="-5.75" font-family="Helvetica,sans-Serif" font-size="10.00">ExampleTreeSelector.C</text>
</a>
</g>
</g>
<!-- Node27&#45;&gt;Node28 -->
<g id="edge27_Node000027_Node000028" class="edge">
<title>Node27&#45;&gt;Node28</title>
<g id="a_edge27_Node000027_Node000028"><a xlink:title=" ">
<path fill="none" stroke="#63b8ff" d="M1715.65,-43.63C1716.43,-35.34 1717.29,-26.17 1717.91,-19.61"/>
<polygon fill="#63b8ff" stroke="#63b8ff" points="1712.17,-43.29 1714.72,-53.57 1719.14,-43.95 1712.17,-43.29"/>
</a>
</g>
</g>
<!-- Node30 -->
<g id="Node000030" class="node">
<title>Node30</title>
<g id="a_Node000030"><a xlink:href="_fast_timing_hist_selector_8_c.html" target="_top" xlink:title=" ">
<polygon fill="white" stroke="#666666" points="1923.62,-19.25 1795.88,-19.25 1795.88,0 1923.62,0 1923.62,-19.25"/>
<text text-anchor="middle" x="1859.75" y="-5.75" font-family="Helvetica,sans-Serif" font-size="10.00">FastTimingHistSelector.C</text>
</a>
</g>
</g>
<!-- Node29&#45;&gt;Node30 -->
<g id="edge29_Node000029_Node000030" class="edge">
<title>Node29&#45;&gt;Node30</title>
<g id="a_edge29_Node000029_Node000030"><a xlink:title=" ">
<path fill="none" stroke="#63b8ff" d="M1855.37,-43.92C1856.47,-35.55 1857.7,-26.25 1858.57,-19.61"/>
<polygon fill="#63b8ff" stroke="#63b8ff" points="1851.94,-43.21 1854.1,-53.58 1858.88,-44.12 1851.94,-43.21"/>
</a>
</g>
</g>
<!-- Node41 -->
<g id="Node000041" class="node">
<title>Node41</title>
<g id="a_Node000041"><a xlink:href="_time_walk_helper_8cxx.html" target="_top" xlink:title=" ">
<polygon fill="white" stroke="#666666" points="3003,-19.25 2898.5,-19.25 2898.5,0 3003,0 3003,-19.25"/>
<text text-anchor="middle" x="2950.75" y="-5.75" font-family="Helvetica,sans-Serif" font-size="10.00">TimeWalkHelper.cxx</text>
</a>
</g>
</g>
<!-- Node40&#45;&gt;Node41 -->
<g id="edge41_Node000040_Node000041" class="edge">
<title>Node40&#45;&gt;Node41</title>
<g id="a_edge41_Node000040_Node000041"><a xlink:title=" ">
<path fill="none" stroke="#63b8ff" d="M2951.99,-43.63C2951.68,-35.34 2951.33,-26.17 2951.09,-19.61"/>
<polygon fill="#63b8ff" stroke="#63b8ff" points="2948.49,-43.71 2952.36,-53.57 2955.49,-43.45 2948.49,-43.71"/>
</a>
</g>
</g>
<!-- Node43 -->
<g id="Node000043" class="node">
<title>Node43</title>
<g id="a_Node000043"><a xlink:href="_time_walk_selector_8_c.html" target="_top" xlink:title=" ">
<polygon fill="white" stroke="#666666" points="3126,-19.25 3021.5,-19.25 3021.5,0 3126,0 3126,-19.25"/>
<text text-anchor="middle" x="3073.75" y="-5.75" font-family="Helvetica,sans-Serif" font-size="10.00">TimeWalkSelector.C</text>
</a>
</g>
</g>
<!-- Node42&#45;&gt;Node43 -->
<g id="edge43_Node000042_Node000043" class="edge">
<title>Node42&#45;&gt;Node43</title>
<g id="a_edge43_Node000042_Node000043"><a xlink:title=" ">
<path fill="none" stroke="#63b8ff" d="M3073.13,-43.63C3073.29,-35.34 3073.46,-26.17 3073.58,-19.61"/>
<polygon fill="#63b8ff" stroke="#63b8ff" points="3069.63,-43.5 3072.94,-53.57 3076.63,-43.64 3069.63,-43.5"/>
</a>
</g>
</g>
</g>
</svg>
