<?xml version="1.0" encoding="UTF-8" standalone="no"?>
<!DOCTYPE svg PUBLIC "-//W3C//DTD SVG 1.1//EN"
 "http://www.w3.org/Graphics/SVG/1.1/DTD/svg11.dtd">
<!-- Generated by graphviz version 12.2.0 (20241103.1931)
 -->
<!-- Title: TGRSIOptions.h Pages: 1 -->
<!--zoomable 248 -->

<svg id="main" version="1.1" xmlns="http://www.w3.org/2000/svg" xmlns:xlink="http://www.w3.org/1999/xlink" xml:space="preserve" onload="init(evt)">

<style type="text/css"><![CDATA[
.node, .edge {opacity: 0.7;}
.node.selected, .edge.selected {opacity: 1;}
.edge:hover path { stroke: red; }
.edge:hover polygon { stroke: red; fill: red; }
]]></style>

<defs>
  <circle id="rim" cx="0" cy="0" r="7"/>
  <circle id="rim2" cx="0" cy="0" r="3.5"/>
  <g id="zoomPlus">
    <use xlink:href="#rim" fill="#404040"><set attributeName="fill" to="#808080" begin="zoomplus.mouseover" end="zoomplus.mouseout"/></use>
    <path d="M-4,0h8M0,-4v8" fill="none" stroke="white" stroke-width="1.5" pointer-events="none"/>
  </g>
  <g id="zoomMin">
    <use xlink:href="#rim" fill="#404040"><set attributeName="fill" to="#808080" begin="zoomminus.mouseover" end="zoomminus.mouseout"/></use>
    <path d="M-4,0h8" fill="none" stroke="white" stroke-width="1.5" pointer-events="none"/>
  </g>
  <g id="arrowUp" transform="translate(30 24)">
    <use xlink:href="#rim"/>
    <path pointer-events="none" fill="none" stroke="white" stroke-width="1.5" d="M0,-3.0v7 M-2.5,-0.5L0,-3.0L2.5,-0.5"/>
  </g>
  <g id="arrowRight" transform="rotate(90) translate(36 -43)">
    <use xlink:href="#rim"/>
    <path pointer-events="none" fill="none" stroke="white" stroke-width="1.5" d="M0,-3.0v7 M-2.5,-0.5L0,-3.0L2.5,-0.5"/>
  </g>
  <g id="arrowDown" transform="rotate(180) translate(-30 -48)">
    <use xlink:href="#rim"/>
    <path pointer-events="none" fill="none" stroke="white" stroke-width="1.5" d="M0,-3.0v7 M-2.5,-0.5L0,-3.0L2.5,-0.5"/>
  </g>
  <g id="arrowLeft" transform="rotate(270) translate(-36 17)">
    <use xlink:href="#rim"/>
    <path pointer-events="none" fill="none" stroke="white" stroke-width="1.5" d="M0,-3.0v7 M-2.5,-0.5L0,-3.0L2.5,-0.5"/>
  </g>
  <g id="resetDef">
    <use xlink:href="#rim2" fill="#404040"><set attributeName="fill" to="#808080" begin="reset.mouseover" end="reset.mouseout"/></use>
  </g>
</defs>
<script type="application/ecmascript">
var viewWidth = 1230;
var viewHeight = 248;
var sectionId = 'dynsection-0';
</script>
<script type="application/ecmascript" xlink:href="svg.min.js"/>
<svg id="graph" class="graph">
<g id="viewport">
<title>TGRSIOptions.h</title>
<!-- Node1 -->
<g id="Node000001" class="node">
<title>Node1</title>
<g id="a_Node000001"><a xlink:title=" ">
<polygon fill="#999999" stroke="#666666" points="408.38,-240.25 321.12,-240.25 321.12,-221 408.38,-221 408.38,-240.25"/>
<text text-anchor="middle" x="364.75" y="-226.75" font-family="Helvetica,sans-Serif" font-size="10.00">TGRSIOptions.h</text>
</a>
</g>
</g>
<!-- Node2 -->
<g id="Node000002" class="node">
<title>Node2</title>
<g id="a_Node000002"><a xlink:title=" ">
<polygon fill="#e0e0e0" stroke="#999999" points="144.12,-74.5 109.38,-74.5 109.38,-55.25 144.12,-55.25 144.12,-74.5"/>
<text text-anchor="middle" x="126.75" y="-61" font-family="Helvetica,sans-Serif" font-size="10.00">map</text>
</a>
</g>
</g>
<!-- Node1&#45;&gt;Node2 -->
<g id="edge1_Node000001_Node000002" class="edge">
<title>Node1&#45;&gt;Node2</title>
<g id="a_edge1_Node000001_Node000002"><a xlink:title=" ">
<path fill="none" stroke="#63b8ff" d="M351.62,-220.59C312.77,-193.86 198.1,-114.96 149.22,-81.34"/>
<polygon fill="#63b8ff" stroke="#63b8ff" points="151.31,-78.53 141.09,-75.74 147.35,-84.29 151.31,-78.53"/>
</a>
</g>
</g>
<!-- Node3 -->
<g id="Node000003" class="node">
<title>Node3</title>
<g id="a_Node000003"><a xlink:title=" ">
<polygon fill="#e0e0e0" stroke="#999999" points="463.75,-129.75 405.75,-129.75 405.75,-110.5 463.75,-110.5 463.75,-129.75"/>
<text text-anchor="middle" x="434.75" y="-116.25" font-family="Helvetica,sans-Serif" font-size="10.00">TObject.h</text>
</a>
</g>
</g>
<!-- Node1&#45;&gt;Node3 -->
<g id="edge2_Node000001_Node000003" class="edge">
<title>Node1&#45;&gt;Node3</title>
<g id="a_edge2_Node000001_Node000003"><a xlink:title=" ">
<path fill="none" stroke="#63b8ff" d="M370.48,-220.75C381.86,-203.1 407.54,-163.3 422.77,-139.7"/>
<polygon fill="#63b8ff" stroke="#63b8ff" points="425.64,-141.7 428.12,-131.4 419.76,-137.9 425.64,-141.7"/>
</a>
</g>
</g>
<!-- Node4 -->
<g id="Node000004" class="node">
<title>Node4</title>
<g id="a_Node000004"><a xlink:title=" ">
<polygon fill="#e0e0e0" stroke="#999999" points="614.38,-129.75 569.12,-129.75 569.12,-110.5 614.38,-110.5 614.38,-129.75"/>
<text text-anchor="middle" x="591.75" y="-116.25" font-family="Helvetica,sans-Serif" font-size="10.00">TFile.h</text>
</a>
</g>
</g>
<!-- Node1&#45;&gt;Node4 -->
<g id="edge3_Node000001_Node000004" class="edge">
<title>Node1&#45;&gt;Node4</title>
<g id="a_edge3_Node000001_Node000004"><a xlink:title=" ">
<path fill="none" stroke="#63b8ff" d="M408.46,-224.36C459.36,-217.46 539.45,-203.96 562.75,-185 576.19,-174.06 583.65,-155.54 587.63,-141.26"/>
<polygon fill="#63b8ff" stroke="#63b8ff" points="591.02,-142.1 589.93,-131.56 584.21,-140.47 591.02,-142.1"/>
</a>
</g>
</g>
<!-- Node5 -->
<g id="Node000005" class="node">
<title>Node5</title>
<g id="a_Node000005"><a xlink:href="_t_g_r_s_i_types_8h.html" target="_top" xlink:title=" ">
<polygon fill="white" stroke="#666666" points="144.62,-129.75 64.88,-129.75 64.88,-110.5 144.62,-110.5 144.62,-129.75"/>
<text text-anchor="middle" x="104.75" y="-116.25" font-family="Helvetica,sans-Serif" font-size="10.00">TGRSITypes.h</text>
</a>
</g>
</g>
<!-- Node1&#45;&gt;Node5 -->
<g id="edge4_Node000001_Node000005" class="edge">
<title>Node1&#45;&gt;Node5</title>
<g id="a_edge4_Node000001_Node000005"><a xlink:title=" ">
<path fill="none" stroke="#63b8ff" d="M333.65,-220.57C306.4,-212.3 265.92,-199.24 231.75,-185 195.87,-170.05 156.07,-149.32 130.75,-135.58"/>
<polygon fill="#63b8ff" stroke="#63b8ff" points="132.62,-132.61 122.17,-130.88 129.26,-138.75 132.62,-132.61"/>
</a>
</g>
</g>
<!-- Node8 -->
<g id="Node000008" class="node">
<title>Node8</title>
<g id="a_Node000008"><a xlink:href="_t_analysis_options_8h.html" target="_top" xlink:title=" ">
<polygon fill="white" stroke="#666666" points="553.75,-185 453.75,-185 453.75,-165.75 553.75,-165.75 553.75,-185"/>
<text text-anchor="middle" x="503.75" y="-171.5" font-family="Helvetica,sans-Serif" font-size="10.00">TAnalysisOptions.h</text>
</a>
</g>
</g>
<!-- Node1&#45;&gt;Node8 -->
<g id="edge8_Node000001_Node000008" class="edge">
<title>Node1&#45;&gt;Node8</title>
<g id="a_edge8_Node000001_Node000008"><a xlink:title=" ">
<path fill="none" stroke="#63b8ff" d="M388.33,-220.59C410.59,-212.06 444.24,-199.17 469.47,-189.51"/>
<polygon fill="#63b8ff" stroke="#63b8ff" points="470.56,-192.84 478.64,-185.99 468.05,-186.3 470.56,-192.84"/>
</a>
</g>
</g>
<!-- Node29 -->
<g id="Node000029" class="node">
<title>Node29</title>
<g id="a_Node000029"><a xlink:href="_t_user_settings_8h.html" target="_top" xlink:title=" ">
<polygon fill="white" stroke="#666666" points="386,-129.75 299.5,-129.75 299.5,-110.5 386,-110.5 386,-129.75"/>
<text text-anchor="middle" x="342.75" y="-116.25" font-family="Helvetica,sans-Serif" font-size="10.00">TUserSettings.h</text>
</a>
</g>
</g>
<!-- Node1&#45;&gt;Node29 -->
<g id="edge36_Node000001_Node000029" class="edge">
<title>Node1&#45;&gt;Node29</title>
<g id="a_edge36_Node000001_Node000029"><a xlink:title=" ">
<path fill="none" stroke="#63b8ff" d="M362.95,-220.75C359.45,-203.5 351.66,-165.08 346.84,-141.31"/>
<polygon fill="#63b8ff" stroke="#63b8ff" points="350.29,-140.72 344.88,-131.61 343.43,-142.11 350.29,-140.72"/>
</a>
</g>
</g>
<!-- Node5&#45;&gt;Node2 -->
<g id="edge5_Node000005_Node000002" class="edge">
<title>Node5&#45;&gt;Node2</title>
<g id="a_edge5_Node000005_Node000002"><a xlink:title=" ">
<path fill="none" stroke="#63b8ff" d="M108.38,-110.33C111.17,-103.59 115.12,-94.02 118.65,-85.49"/>
<polygon fill="#63b8ff" stroke="#63b8ff" points="121.88,-86.84 122.46,-76.26 115.41,-84.16 121.88,-86.84"/>
</a>
</g>
</g>
<!-- Node6 -->
<g id="Node000006" class="node">
<title>Node6</title>
<g id="a_Node000006"><a xlink:title=" ">
<polygon fill="#e0e0e0" stroke="#999999" points="191.75,-19.25 151.75,-19.25 151.75,0 191.75,0 191.75,-19.25"/>
<text text-anchor="middle" x="171.75" y="-5.75" font-family="Helvetica,sans-Serif" font-size="10.00">string</text>
</a>
</g>
</g>
<!-- Node5&#45;&gt;Node6 -->
<g id="edge6_Node000005_Node000006" class="edge">
<title>Node5&#45;&gt;Node6</title>
<g id="a_edge6_Node000005_Node000006"><a xlink:title=" ">
<path fill="none" stroke="#63b8ff" d="M101.34,-110.21C96.98,-97.22 91.08,-72.76 100.75,-55.25 109.36,-39.66 125.95,-28.78 140.93,-21.67"/>
<polygon fill="#63b8ff" stroke="#63b8ff" points="142.23,-24.92 150.03,-17.75 139.46,-18.5 142.23,-24.92"/>
</a>
</g>
</g>
<!-- Node7 -->
<g id="Node000007" class="node">
<title>Node7</title>
<g id="a_Node000007"><a xlink:title=" ">
<polygon fill="#e0e0e0" stroke="#999999" points="53.5,-74.5 0,-74.5 0,-55.25 53.5,-55.25 53.5,-74.5"/>
<text text-anchor="middle" x="26.75" y="-61" font-family="Helvetica,sans-Serif" font-size="10.00">Rtypes.h</text>
</a>
</g>
</g>
<!-- Node5&#45;&gt;Node7 -->
<g id="edge7_Node000005_Node000007" class="edge">
<title>Node5&#45;&gt;Node7</title>
<g id="a_edge7_Node000005_Node000007"><a xlink:title=" ">
<path fill="none" stroke="#63b8ff" d="M91.52,-110.09C79.98,-102.21 62.98,-90.61 49.3,-81.27"/>
<polygon fill="#63b8ff" stroke="#63b8ff" points="51.53,-78.55 41.3,-75.81 47.58,-84.33 51.53,-78.55"/>
</a>
</g>
</g>
<!-- Node8&#45;&gt;Node3 -->
<g id="edge9_Node000008_Node000003" class="edge">
<title>Node8&#45;&gt;Node3</title>
<g id="a_edge9_Node000008_Node000003"><a xlink:title=" ">
<path fill="none" stroke="#63b8ff" d="M492.05,-165.34C481.97,-157.57 467.21,-146.17 455.19,-136.9"/>
<polygon fill="#63b8ff" stroke="#63b8ff" points="457.54,-134.29 447.48,-130.95 453.26,-139.83 457.54,-134.29"/>
</a>
</g>
</g>
<!-- Node8&#45;&gt;Node4 -->
<g id="edge10_Node000008_Node000004" class="edge">
<title>Node8&#45;&gt;Node4</title>
<g id="a_edge10_Node000008_Node000004"><a xlink:title=" ">
<path fill="none" stroke="#63b8ff" d="M518.68,-165.34C531.95,-157.31 551.62,-145.41 567.2,-135.98"/>
<polygon fill="#63b8ff" stroke="#63b8ff" points="568.71,-139.16 575.45,-130.99 565.09,-133.17 568.71,-139.16"/>
</a>
</g>
</g>
<!-- Node9 -->
<g id="Node000009" class="node">
<title>Node9</title>
<g id="a_Node000009"><a xlink:href="_arg_parser_8h.html" target="_top" xlink:title=" ">
<polygon fill="white" stroke="#666666" points="551.25,-129.75 484.25,-129.75 484.25,-110.5 551.25,-110.5 551.25,-129.75"/>
<text text-anchor="middle" x="517.75" y="-116.25" font-family="Helvetica,sans-Serif" font-size="10.00">ArgParser.h</text>
</a>
</g>
</g>
<!-- Node8&#45;&gt;Node9 -->
<g id="edge11_Node000008_Node000009" class="edge">
<title>Node8&#45;&gt;Node9</title>
<g id="a_edge11_Node000008_Node000009"><a xlink:title=" ">
<path fill="none" stroke="#63b8ff" d="M506.06,-165.58C507.81,-158.92 510.29,-149.49 512.52,-141.03"/>
<polygon fill="#63b8ff" stroke="#63b8ff" points="515.85,-142.13 515,-131.57 509.08,-140.35 515.85,-142.13"/>
</a>
</g>
</g>
<!-- Node9&#45;&gt;Node6 -->
<g id="edge16_Node000009_Node000006" class="edge">
<title>Node9&#45;&gt;Node6</title>
<g id="a_edge16_Node000009_Node000006"><a xlink:title=" ">
<path fill="none" stroke="#63b8ff" d="M512.77,-110.33C504.18,-96.08 485.14,-68.26 460.75,-55.25 361.03,-2.07 317.51,-41.32 203.5,-19.45"/>
<polygon fill="#63b8ff" stroke="#63b8ff" points="204.23,-16.03 193.73,-17.44 202.82,-22.88 204.23,-16.03"/>
</a>
</g>
</g>
<!-- Node10 -->
<g id="Node000010" class="node">
<title>Node10</title>
<g id="a_Node000010"><a xlink:title=" ">
<polygon fill="#e0e0e0" stroke="#999999" points="1221.5,-19.25 1168,-19.25 1168,0 1221.5,0 1221.5,-19.25"/>
<text text-anchor="middle" x="1194.75" y="-5.75" font-family="Helvetica,sans-Serif" font-size="10.00">iostream</text>
</a>
</g>
</g>
<!-- Node9&#45;&gt;Node10 -->
<g id="edge12_Node000009_Node000010" class="edge">
<title>Node9&#45;&gt;Node10</title>
<g id="a_edge12_Node000009_Node000010"><a xlink:title=" ">
<path fill="none" stroke="#63b8ff" d="M551.64,-111.98C554.38,-111.46 557.11,-110.96 559.75,-110.5 670.77,-91.16 699.32,-91.34 810.75,-74.5 961.97,-51.65 1003.24,-49.87 1156.45,-19.58"/>
<polygon fill="#63b8ff" stroke="#63b8ff" points="1157.06,-23.03 1166.19,-17.65 1155.7,-16.16 1157.06,-23.03"/>
</a>
</g>
</g>
<!-- Node11 -->
<g id="Node000011" class="node">
<title>Node11</title>
<g id="a_Node000011"><a xlink:title=" ">
<polygon fill="#e0e0e0" stroke="#999999" points="745.25,-74.5 696.25,-74.5 696.25,-55.25 745.25,-55.25 745.25,-74.5"/>
<text text-anchor="middle" x="720.75" y="-61" font-family="Helvetica,sans-Serif" font-size="10.00">fstream</text>
</a>
</g>
</g>
<!-- Node9&#45;&gt;Node11 -->
<g id="edge13_Node000009_Node000011" class="edge">
<title>Node9&#45;&gt;Node11</title>
<g id="a_edge13_Node000009_Node000011"><a xlink:title=" ">
<path fill="none" stroke="#63b8ff" d="M551.73,-110.21C588.65,-100.53 647.4,-85.12 685.01,-75.25"/>
<polygon fill="#63b8ff" stroke="#63b8ff" points="685.7,-78.69 694.49,-72.76 683.92,-71.92 685.7,-78.69"/>
</a>
</g>
</g>
<!-- Node12 -->
<g id="Node000012" class="node">
<title>Node12</title>
<g id="a_Node000012"><a xlink:title=" ">
<polygon fill="#e0e0e0" stroke="#999999" points="337.38,-19.25 286.12,-19.25 286.12,0 337.38,0 337.38,-19.25"/>
<text text-anchor="middle" x="311.75" y="-5.75" font-family="Helvetica,sans-Serif" font-size="10.00">sstream</text>
</a>
</g>
</g>
<!-- Node9&#45;&gt;Node12 -->
<g id="edge14_Node000009_Node000012" class="edge">
<title>Node9&#45;&gt;Node12</title>
<g id="a_edge14_Node000009_Node000012"><a xlink:title=" ">
<path fill="none" stroke="#63b8ff" d="M523.88,-110.2C532.27,-96.75 544.89,-71.19 531.75,-55.25 480.71,6.68 432.75,-33.55 348.94,-19.37"/>
<polygon fill="#63b8ff" stroke="#63b8ff" points="349.68,-15.94 339.2,-17.46 348.34,-22.82 349.68,-15.94"/>
</a>
</g>
</g>
<!-- Node13 -->
<g id="Node000013" class="node">
<title>Node13</title>
<g id="a_Node000013"><a xlink:title=" ">
<polygon fill="#e0e0e0" stroke="#999999" points="267.75,-19.25 209.75,-19.25 209.75,0 267.75,0 267.75,-19.25"/>
<text text-anchor="middle" x="238.75" y="-5.75" font-family="Helvetica,sans-Serif" font-size="10.00">stdexcept</text>
</a>
</g>
</g>
<!-- Node9&#45;&gt;Node13 -->
<g id="edge15_Node000009_Node000013" class="edge">
<title>Node9&#45;&gt;Node13</title>
<g id="a_edge15_Node000009_Node000013"><a xlink:title=" ">
<path fill="none" stroke="#63b8ff" d="M517.12,-110.09C515.62,-96.03 510.59,-69.09 493.75,-55.25 420.95,4.58 376.01,-34.97 279.27,-19.47"/>
<polygon fill="#63b8ff" stroke="#63b8ff" points="280.12,-16.06 269.66,-17.75 278.89,-22.95 280.12,-16.06"/>
</a>
</g>
</g>
<!-- Node14 -->
<g id="Node000014" class="node">
<title>Node14</title>
<g id="a_Node000014"><a xlink:title=" ">
<polygon fill="#e0e0e0" stroke="#999999" points="802,-74.5 763.5,-74.5 763.5,-55.25 802,-55.25 802,-74.5"/>
<text text-anchor="middle" x="782.75" y="-61" font-family="Helvetica,sans-Serif" font-size="10.00">utility</text>
</a>
</g>
</g>
<!-- Node9&#45;&gt;Node14 -->
<g id="edge17_Node000009_Node000014" class="edge">
<title>Node9&#45;&gt;Node14</title>
<g id="a_edge17_Node000009_Node000014"><a xlink:title=" ">
<path fill="none" stroke="#63b8ff" d="M551.66,-112.1C554.4,-111.55 557.12,-111.01 559.75,-110.5 642.79,-94.31 667.22,-95.39 752.28,-74.88"/>
<polygon fill="#63b8ff" stroke="#63b8ff" points="752.9,-78.33 761.78,-72.56 751.23,-71.53 752.9,-78.33"/>
</a>
</g>
</g>
<!-- Node15 -->
<g id="Node000015" class="node">
<title>Node15</title>
<g id="a_Node000015"><a xlink:title=" ">
<polygon fill="#e0e0e0" stroke="#999999" points="451.25,-74.5 408.25,-74.5 408.25,-55.25 451.25,-55.25 451.25,-74.5"/>
<text text-anchor="middle" x="429.75" y="-61" font-family="Helvetica,sans-Serif" font-size="10.00">vector</text>
</a>
</g>
</g>
<!-- Node9&#45;&gt;Node15 -->
<g id="edge18_Node000009_Node000015" class="edge">
<title>Node9&#45;&gt;Node15</title>
<g id="a_edge18_Node000009_Node000015"><a xlink:title=" ">
<path fill="none" stroke="#63b8ff" d="M502.82,-110.09C489.55,-102.06 469.88,-90.16 454.3,-80.73"/>
<polygon fill="#63b8ff" stroke="#63b8ff" points="456.41,-77.92 446.05,-75.74 452.79,-83.91 456.41,-77.92"/>
</a>
</g>
</g>
<!-- Node16 -->
<g id="Node000016" class="node">
<title>Node16</title>
<g id="a_Node000016"><a xlink:href="_globals_8h.html" target="_top" xlink:title=" ">
<polygon fill="white" stroke="#666666" points="640,-74.5 583.5,-74.5 583.5,-55.25 640,-55.25 640,-74.5"/>
<text text-anchor="middle" x="611.75" y="-61" font-family="Helvetica,sans-Serif" font-size="10.00">Globals.h</text>
</a>
</g>
</g>
<!-- Node9&#45;&gt;Node16 -->
<g id="edge19_Node000009_Node000016" class="edge">
<title>Node9&#45;&gt;Node16</title>
<g id="a_edge19_Node000009_Node000016"><a xlink:title=" ">
<path fill="none" stroke="#63b8ff" d="M533.7,-110.09C548.01,-101.98 569.28,-89.93 586,-80.46"/>
<polygon fill="#63b8ff" stroke="#63b8ff" points="587.43,-83.67 594.41,-75.7 583.98,-77.58 587.43,-83.67"/>
</a>
</g>
</g>
<!-- Node16&#45;&gt;Node6 -->
<g id="edge24_Node000016_Node000006" class="edge">
<title>Node16&#45;&gt;Node6</title>
<g id="a_edge24_Node000016_Node000006"><a xlink:title=" ">
<path fill="none" stroke="#63b8ff" d="M583,-61.44C505.62,-54.77 293.24,-35.76 203.33,-19.36"/>
<polygon fill="#63b8ff" stroke="#63b8ff" points="204.2,-15.96 193.72,-17.5 202.87,-22.83 204.2,-15.96"/>
</a>
</g>
</g>
<!-- Node16&#45;&gt;Node10 -->
<g id="edge21_Node000016_Node000010" class="edge">
<title>Node16&#45;&gt;Node10</title>
<g id="a_edge21_Node000016_Node000010"><a xlink:title=" ">
<path fill="none" stroke="#63b8ff" d="M640.13,-57.52C644.67,-56.66 649.33,-55.86 653.75,-55.25 873.07,-25.05 934.4,-52.66 1156.67,-19.29"/>
<polygon fill="#63b8ff" stroke="#63b8ff" points="1156.86,-22.8 1166.22,-17.83 1155.81,-15.88 1156.86,-22.8"/>
</a>
</g>
</g>
<!-- Node16&#45;&gt;Node12 -->
<g id="edge29_Node000016_Node000012" class="edge">
<title>Node16&#45;&gt;Node12</title>
<g id="a_edge29_Node000016_Node000012"><a xlink:title=" ">
<path fill="none" stroke="#63b8ff" d="M583.32,-57.87C578.78,-56.96 574.14,-56.06 569.75,-55.25 474.47,-37.78 447.04,-39.15 348.73,-19.5"/>
<polygon fill="#63b8ff" stroke="#63b8ff" points="349.67,-16.12 339.17,-17.57 348.28,-22.98 349.67,-16.12"/>
</a>
</g>
</g>
<!-- Node16&#45;&gt;Node13 -->
<g id="edge23_Node000016_Node000013" class="edge">
<title>Node16&#45;&gt;Node13</title>
<g id="a_edge23_Node000016_Node000013"><a xlink:title=" ">
<path fill="none" stroke="#63b8ff" d="M583.19,-60.41C516.95,-52.32 353.43,-32.04 279.26,-19.52"/>
<polygon fill="#63b8ff" stroke="#63b8ff" points="280.1,-16.11 269.65,-17.84 278.89,-23.01 280.1,-16.11"/>
</a>
</g>
</g>
<!-- Node17 -->
<g id="Node000017" class="node">
<title>Node17</title>
<g id="a_Node000017"><a xlink:title=" ">
<polygon fill="#e0e0e0" stroke="#999999" points="1081.38,-19.25 1036.12,-19.25 1036.12,0 1081.38,0 1081.38,-19.25"/>
<text text-anchor="middle" x="1058.75" y="-5.75" font-family="Helvetica,sans-Serif" font-size="10.00">cstdint</text>
</a>
</g>
</g>
<!-- Node16&#45;&gt;Node17 -->
<g id="edge20_Node000016_Node000017" class="edge">
<title>Node16&#45;&gt;Node17</title>
<g id="a_edge20_Node000016_Node000017"><a xlink:title=" ">
<path fill="none" stroke="#63b8ff" d="M640.14,-57.62C644.68,-56.74 649.33,-55.91 653.75,-55.25 814.91,-31 860.92,-48.25 1024.81,-19.28"/>
<polygon fill="#63b8ff" stroke="#63b8ff" points="1025.07,-22.79 1034.29,-17.58 1023.83,-15.9 1025.07,-22.79"/>
</a>
</g>
</g>
<!-- Node18 -->
<g id="Node000018" class="node">
<title>Node18</title>
<g id="a_Node000018"><a xlink:title=" ">
<polygon fill="#e0e0e0" stroke="#999999" points="1149.62,-19.25 1099.88,-19.25 1099.88,0 1149.62,0 1149.62,-19.25"/>
<text text-anchor="middle" x="1124.75" y="-5.75" font-family="Helvetica,sans-Serif" font-size="10.00">iomanip</text>
</a>
</g>
</g>
<!-- Node16&#45;&gt;Node18 -->
<g id="edge22_Node000016_Node000018" class="edge">
<title>Node16&#45;&gt;Node18</title>
<g id="a_edge22_Node000016_Node000018"><a xlink:title=" ">
<path fill="none" stroke="#63b8ff" d="M640.14,-57.56C644.67,-56.69 649.33,-55.88 653.75,-55.25 842.98,-28.13 896.5,-50.44 1088.27,-19.37"/>
<polygon fill="#63b8ff" stroke="#63b8ff" points="1088.81,-22.83 1098.1,-17.75 1087.67,-15.92 1088.81,-22.83"/>
</a>
</g>
</g>
<!-- Node19 -->
<g id="Node000019" class="node">
<title>Node19</title>
<g id="a_Node000019"><a xlink:title=" ">
<polygon fill="#e0e0e0" stroke="#999999" points="397.88,-19.25 355.62,-19.25 355.62,0 397.88,0 397.88,-19.25"/>
<text text-anchor="middle" x="376.75" y="-5.75" font-family="Helvetica,sans-Serif" font-size="10.00">cstdio</text>
</a>
</g>
</g>
<!-- Node16&#45;&gt;Node19 -->
<g id="edge25_Node000016_Node000019" class="edge">
<title>Node16&#45;&gt;Node19</title>
<g id="a_edge25_Node000016_Node000019"><a xlink:title=" ">
<path fill="none" stroke="#63b8ff" d="M583.07,-57.87C538.8,-48.58 454.86,-30.79 409.31,-19.74"/>
<polygon fill="#63b8ff" stroke="#63b8ff" points="410.35,-16.39 399.8,-17.38 408.67,-23.18 410.35,-16.39"/>
</a>
</g>
</g>
<!-- Node20 -->
<g id="Node000020" class="node">
<title>Node20</title>
<g id="a_Node000020"><a xlink:title=" ">
<polygon fill="#e0e0e0" stroke="#999999" points="460,-19.25 415.5,-19.25 415.5,0 460,0 460,-19.25"/>
<text text-anchor="middle" x="437.75" y="-5.75" font-family="Helvetica,sans-Serif" font-size="10.00">cstdlib</text>
</a>
</g>
</g>
<!-- Node16&#45;&gt;Node20 -->
<g id="edge26_Node000016_Node000020" class="edge">
<title>Node16&#45;&gt;Node20</title>
<g id="a_edge26_Node000016_Node000020"><a xlink:title=" ">
<path fill="none" stroke="#63b8ff" d="M583.02,-55.08C552.28,-45.67 503.58,-30.77 471.15,-20.85"/>
<polygon fill="#63b8ff" stroke="#63b8ff" points="472.45,-17.59 461.87,-18.01 470.4,-24.28 472.45,-17.59"/>
</a>
</g>
</g>
<!-- Node21 -->
<g id="Node000021" class="node">
<title>Node21</title>
<g id="a_Node000021"><a xlink:title=" ">
<polygon fill="#e0e0e0" stroke="#999999" points="537.5,-19.25 478,-19.25 478,0 537.5,0 537.5,-19.25"/>
<text text-anchor="middle" x="507.75" y="-5.75" font-family="Helvetica,sans-Serif" font-size="10.00">execinfo.h</text>
</a>
</g>
</g>
<!-- Node16&#45;&gt;Node21 -->
<g id="edge27_Node000016_Node000021" class="edge">
<title>Node16&#45;&gt;Node21</title>
<g id="a_edge27_Node000016_Node000021"><a xlink:title=" ">
<path fill="none" stroke="#63b8ff" d="M594.11,-54.84C578.12,-46.66 554.29,-34.46 535.71,-24.94"/>
<polygon fill="#63b8ff" stroke="#63b8ff" points="537.32,-21.83 526.83,-20.39 534.13,-28.07 537.32,-21.83"/>
</a>
</g>
</g>
<!-- Node22 -->
<g id="Node000022" class="node">
<title>Node22</title>
<g id="a_Node000022"><a xlink:title=" ">
<polygon fill="#e0e0e0" stroke="#999999" points="606,-19.25 555.5,-19.25 555.5,0 606,0 606,-19.25"/>
<text text-anchor="middle" x="580.75" y="-5.75" font-family="Helvetica,sans-Serif" font-size="10.00">cxxabi.h</text>
</a>
</g>
</g>
<!-- Node16&#45;&gt;Node22 -->
<g id="edge28_Node000016_Node000022" class="edge">
<title>Node16&#45;&gt;Node22</title>
<g id="a_edge28_Node000016_Node000022"><a xlink:title=" ">
<path fill="none" stroke="#63b8ff" d="M606.63,-55.08C602.57,-48.11 596.76,-38.12 591.66,-29.37"/>
<polygon fill="#63b8ff" stroke="#63b8ff" points="594.8,-27.8 586.74,-20.92 588.75,-31.32 594.8,-27.8"/>
</a>
</g>
</g>
<!-- Node23 -->
<g id="Node000023" class="node">
<title>Node23</title>
<g id="a_Node000023"><a xlink:title=" ">
<polygon fill="#e0e0e0" stroke="#999999" points="661.25,-19.25 624.25,-19.25 624.25,0 661.25,0 661.25,-19.25"/>
<text text-anchor="middle" x="642.75" y="-5.75" font-family="Helvetica,sans-Serif" font-size="10.00">array</text>
</a>
</g>
</g>
<!-- Node16&#45;&gt;Node23 -->
<g id="edge30_Node000016_Node000023" class="edge">
<title>Node16&#45;&gt;Node23</title>
<g id="a_edge30_Node000016_Node000023"><a xlink:title=" ">
<path fill="none" stroke="#63b8ff" d="M616.87,-55.08C620.93,-48.11 626.74,-38.12 631.84,-29.37"/>
<polygon fill="#63b8ff" stroke="#63b8ff" points="634.75,-31.32 636.76,-20.92 628.7,-27.8 634.75,-31.32"/>
</a>
</g>
</g>
<!-- Node24 -->
<g id="Node000024" class="node">
<title>Node24</title>
<g id="a_Node000024"><a xlink:title=" ">
<polygon fill="#e0e0e0" stroke="#999999" points="730,-19.25 679.5,-19.25 679.5,0 730,0 730,-19.25"/>
<text text-anchor="middle" x="704.75" y="-5.75" font-family="Helvetica,sans-Serif" font-size="10.00">memory</text>
</a>
</g>
</g>
<!-- Node16&#45;&gt;Node24 -->
<g id="edge31_Node000016_Node000024" class="edge">
<title>Node16&#45;&gt;Node24</title>
<g id="a_edge31_Node000016_Node000024"><a xlink:title=" ">
<path fill="none" stroke="#63b8ff" d="M627.53,-54.84C641.69,-46.73 662.73,-34.68 679.28,-25.21"/>
<polygon fill="#63b8ff" stroke="#63b8ff" points="680.64,-28.46 687.58,-20.45 677.17,-22.39 680.64,-28.46"/>
</a>
</g>
</g>
<!-- Node25 -->
<g id="Node000025" class="node">
<title>Node25</title>
<g id="a_Node000025"><a xlink:title=" ">
<polygon fill="#e0e0e0" stroke="#999999" points="797.62,-19.25 747.88,-19.25 747.88,0 797.62,0 797.62,-19.25"/>
<text text-anchor="middle" x="772.75" y="-5.75" font-family="Helvetica,sans-Serif" font-size="10.00">unistd.h</text>
</a>
</g>
</g>
<!-- Node16&#45;&gt;Node25 -->
<g id="edge32_Node000016_Node000025" class="edge">
<title>Node16&#45;&gt;Node25</title>
<g id="a_edge32_Node000016_Node000025"><a xlink:title=" ">
<path fill="none" stroke="#63b8ff" d="M639.06,-54.84C665.95,-45.95 707.17,-32.32 736.73,-22.54"/>
<polygon fill="#63b8ff" stroke="#63b8ff" points="737.6,-25.94 745.99,-19.47 735.4,-19.29 737.6,-25.94"/>
</a>
</g>
</g>
<!-- Node26 -->
<g id="Node000026" class="node">
<title>Node26</title>
<g id="a_Node000026"><a xlink:title=" ">
<polygon fill="#e0e0e0" stroke="#999999" points="861.75,-19.25 815.75,-19.25 815.75,0 861.75,0 861.75,-19.25"/>
<text text-anchor="middle" x="838.75" y="-5.75" font-family="Helvetica,sans-Serif" font-size="10.00">TEnv.h</text>
</a>
</g>
</g>
<!-- Node16&#45;&gt;Node26 -->
<g id="edge33_Node000016_Node000026" class="edge">
<title>Node16&#45;&gt;Node26</title>
<g id="a_edge33_Node000016_Node000026"><a xlink:title=" ">
<path fill="none" stroke="#63b8ff" d="M640.25,-57.71C676.23,-49.85 740.27,-35.61 804.26,-19.8"/>
<polygon fill="#63b8ff" stroke="#63b8ff" points="805.03,-23.21 813.89,-17.41 803.34,-16.42 805.03,-23.21"/>
</a>
</g>
</g>
<!-- Node27 -->
<g id="Node000027" class="node">
<title>Node27</title>
<g id="a_Node000027"><a xlink:title=" ">
<polygon fill="#e0e0e0" stroke="#999999" points="939.5,-19.25 880,-19.25 880,0 939.5,0 939.5,-19.25"/>
<text text-anchor="middle" x="909.75" y="-5.75" font-family="Helvetica,sans-Serif" font-size="10.00">sys/wait.h</text>
</a>
</g>
</g>
<!-- Node16&#45;&gt;Node27 -->
<g id="edge34_Node000016_Node000027" class="edge">
<title>Node16&#45;&gt;Node27</title>
<g id="a_edge34_Node000016_Node000027"><a xlink:title=" ">
<path fill="none" stroke="#63b8ff" d="M640.19,-57.88C644.72,-56.97 649.36,-56.06 653.75,-55.25 746.4,-38.06 772.87,-37.81 868.5,-19.6"/>
<polygon fill="#63b8ff" stroke="#63b8ff" points="868.9,-23.08 878.06,-17.76 867.58,-16.21 868.9,-23.08"/>
</a>
</g>
</g>
<!-- Node28 -->
<g id="Node000028" class="node">
<title>Node28</title>
<g id="a_Node000028"><a xlink:title=" ">
<polygon fill="#e0e0e0" stroke="#999999" points="1017.88,-19.25 957.62,-19.25 957.62,0 1017.88,0 1017.88,-19.25"/>
<text text-anchor="middle" x="987.75" y="-5.75" font-family="Helvetica,sans-Serif" font-size="10.00">sys/prctl.h</text>
</a>
</g>
</g>
<!-- Node16&#45;&gt;Node28 -->
<g id="edge35_Node000016_Node000028" class="edge">
<title>Node16&#45;&gt;Node28</title>
<g id="a_edge35_Node000016_Node000028"><a xlink:title=" ">
<path fill="none" stroke="#63b8ff" d="M640.16,-57.72C644.69,-56.83 649.34,-55.97 653.75,-55.25 780.54,-34.53 816.6,-41.14 946.01,-19.57"/>
<polygon fill="#63b8ff" stroke="#63b8ff" points="946.38,-23.06 955.66,-17.94 945.21,-16.16 946.38,-23.06"/>
</a>
</g>
</g>
<!-- Node29&#45;&gt;Node2 -->
<g id="edge38_Node000029_Node000002" class="edge">
<title>Node29&#45;&gt;Node2</title>
<g id="a_edge38_Node000029_Node000002"><a xlink:title=" ">
<path fill="none" stroke="#63b8ff" d="M300.1,-110.04C264.04,-102.15 210.8,-89.97 155.49,-74.81"/>
<polygon fill="#63b8ff" stroke="#63b8ff" points="156.44,-71.44 145.87,-72.14 154.57,-78.18 156.44,-71.44"/>
</a>
</g>
</g>
<!-- Node29&#45;&gt;Node6 -->
<g id="edge39_Node000029_Node000006" class="edge">
<title>Node29&#45;&gt;Node6</title>
<g id="a_edge39_Node000029_Node000006"><a xlink:title=" ">
<path fill="none" stroke="#63b8ff" d="M342.51,-110.37C341.66,-96.68 337.99,-70.24 322.75,-55.25 284.89,-18.01 258.33,-33.14 203.08,-19.65"/>
<polygon fill="#63b8ff" stroke="#63b8ff" points="204.06,-16.29 193.49,-17.06 202.23,-23.05 204.06,-16.29"/>
</a>
</g>
</g>
<!-- Node29&#45;&gt;Node10 -->
<g id="edge37_Node000029_Node000010" class="edge">
<title>Node29&#45;&gt;Node10</title>
<g id="a_edge37_Node000029_Node000010"><a xlink:title=" ">
<path fill="none" stroke="#63b8ff" d="M386.36,-112.1C389.87,-111.55 393.37,-111.01 396.75,-110.5 508.61,-93.58 540.67,-107.96 648.75,-74.5 667.22,-68.78 669.11,-60.36 687.75,-55.25 886.67,-0.75 949.15,-50.01 1156.45,-19.31"/>
<polygon fill="#63b8ff" stroke="#63b8ff" points="1156.86,-22.79 1166.22,-17.82 1155.8,-15.87 1156.86,-22.79"/>
</a>
</g>
</g>
<!-- Node29&#45;&gt;Node13 -->
<g id="edge41_Node000029_Node000013" class="edge">
<title>Node29&#45;&gt;Node13</title>
<g id="a_edge41_Node000029_Node000013"><a xlink:title=" ">
<path fill="none" stroke="#63b8ff" d="M348.56,-110.01C356.18,-96.79 367.31,-72.03 355.75,-55.25 346.67,-42.07 309.35,-29.3 279.27,-20.82"/>
<polygon fill="#63b8ff" stroke="#63b8ff" points="280.2,-17.44 269.63,-18.18 278.35,-24.19 280.2,-17.44"/>
</a>
</g>
</g>
<!-- Node29&#45;&gt;Node15 -->
<g id="edge40_Node000029_Node000015" class="edge">
<title>Node29&#45;&gt;Node15</title>
<g id="a_edge40_Node000029_Node000015"><a xlink:title=" ">
<path fill="none" stroke="#63b8ff" d="M357.51,-110.09C370.63,-102.06 390.07,-90.16 405.48,-80.73"/>
<polygon fill="#63b8ff" stroke="#63b8ff" points="406.93,-83.95 413.63,-75.74 403.27,-77.98 406.93,-83.95"/>
</a>
</g>
</g>
<!-- Node30 -->
<g id="Node000030" class="node">
<title>Node30</title>
<g id="a_Node000030"><a xlink:title=" ">
<polygon fill="#e0e0e0" stroke="#999999" points="223.25,-74.5 162.25,-74.5 162.25,-55.25 223.25,-55.25 223.25,-74.5"/>
<text text-anchor="middle" x="192.75" y="-61" font-family="Helvetica,sans-Serif" font-size="10.00">TNamed.h</text>
</a>
</g>
</g>
<!-- Node29&#45;&gt;Node30 -->
<g id="edge42_Node000029_Node000030" class="edge">
<title>Node29&#45;&gt;Node30</title>
<g id="a_edge42_Node000029_Node000030"><a xlink:title=" ">
<path fill="none" stroke="#63b8ff" d="M317.3,-110.09C293.06,-101.49 256.32,-88.44 229.01,-78.75"/>
<polygon fill="#63b8ff" stroke="#63b8ff" points="230.34,-75.51 219.75,-75.46 228,-82.1 230.34,-75.51"/>
</a>
</g>
</g>
<!-- Node31 -->
<g id="Node000031" class="node">
<title>Node31</title>
<g id="a_Node000031"><a xlink:title=" ">
<polygon fill="#e0e0e0" stroke="#999999" points="313.88,-74.5 241.62,-74.5 241.62,-55.25 313.88,-55.25 313.88,-74.5"/>
<text text-anchor="middle" x="277.75" y="-61" font-family="Helvetica,sans-Serif" font-size="10.00">TCollection.h</text>
</a>
</g>
</g>
<!-- Node29&#45;&gt;Node31 -->
<g id="edge43_Node000029_Node000031" class="edge">
<title>Node29&#45;&gt;Node31</title>
<g id="a_edge43_Node000029_Node000031"><a xlink:title=" ">
<path fill="none" stroke="#63b8ff" d="M331.72,-110.09C322.33,-102.4 308.6,-91.15 297.34,-81.93"/>
<polygon fill="#63b8ff" stroke="#63b8ff" points="299.74,-79.36 289.78,-75.73 295.3,-84.78 299.74,-79.36"/>
</a>
</g>
</g>
</g>
</svg>

<g id="navigator" transform="translate(0 0)" fill="#404254">
  <rect fill="#f2f5e9" fill-opacity="0.5" stroke="#606060" stroke-width=".5" x="0" y="0" width="60" height="60"/>
  <use id="zoomplus" xlink:href="#zoomPlus" x="17" y="9" onmousedown="handleZoom(evt,'in')"/>
  <use id="zoomminus" xlink:href="#zoomMin" x="42" y="9" onmousedown="handleZoom(evt,'out')"/>
  <use id="reset" xlink:href="#resetDef" x="30" y="36" onmousedown="handleReset()"/>
   <use id="arrowup" xlink:href="#arrowUp" x="0" y="0" onmousedown="handlePan(0,-1)"/>
  <use id="arrowright" xlink:href="#arrowRight" x="0" y="0" onmousedown="handlePan(1,0)"/>
  <use id="arrowdown" xlink:href="#arrowDown" x="0" y="0" onmousedown="handlePan(0,1)"/>
  <use id="arrowleft" xlink:href="#arrowLeft" x="0" y="0" onmousedown="handlePan(-1,0)"/>
</g>
<svg viewBox="0 0 15 15" width="100%" height="30px" preserveAspectRatio="xMaxYMin meet">
 <g id="arrow_out" transform="scale(0.3 0.3)">
  <a xlink:href="_t_g_r_s_i_options_8h__incl_org.svg" target="_base">
   <rect id="button" ry="5" rx="5" y="6" x="6" height="38" width="38"
        fill="#f2f5e9" fill-opacity="0.5" stroke="#606060" stroke-width="1.0"/>
   <path id="arrow"
     d="M 11.500037,31.436501 C 11.940474,20.09759 22.043105,11.32322 32.158766,21.979434 L 37.068811,17.246167 C 37.068811,17.246167 37.088388,32 37.088388,32 L 22.160133,31.978069 C 22.160133,31.978069 26.997745,27.140456 26.997745,27.140456 C 18.528582,18.264221 13.291696,25.230495 11.500037,31.436501 z"
     style="fill:#404040;"/>
  </a>
 </g>
</svg>

<style type='text/css'>
<![CDATA[
[data-mouse-over-selected='false'] { opacity: 0.7; }
[data-mouse-over-selected='true']  { opacity: 1.0; }
]]>
</style>
<script type="application/ecmascript"><![CDATA[
document.addEventListener('DOMContentLoaded', (event) => {
  highlightEdges();
  highlightAdjacentNodes();
});
]]></script>
</svg>
