<?xml version="1.0" encoding="UTF-8" standalone="no"?>
<!DOCTYPE svg PUBLIC "-//W3C//DTD SVG 1.1//EN"
 "http://www.w3.org/Graphics/SVG/1.1/DTD/svg11.dtd">
<!-- Generated by graphviz version 12.2.0 (20241103.1931)
 -->
<!-- Title: TGauss.h Pages: 1 -->
<svg width="325pt" height="138pt"
 viewBox="0.00 0.00 324.62 137.75" xmlns="http://www.w3.org/2000/svg" xmlns:xlink="http://www.w3.org/1999/xlink">
<g id="graph0" class="graph" transform="scale(1 1) rotate(0) translate(4 133.75)">
<title>TGauss.h</title>
<!-- Node1 -->
<g id="Node000001" class="node">
<title>Node1</title>
<g id="a_Node000001"><a xlink:title=" ">
<polygon fill="#999999" stroke="#666666" points="183.12,-129.75 125.12,-129.75 125.12,-110.5 183.12,-110.5 183.12,-129.75"/>
<text text-anchor="middle" x="154.12" y="-116.25" font-family="Helvetica,sans-Serif" font-size="10.00">TGauss.h</text>
</a>
</g>
</g>
<!-- Node2 -->
<g id="Node000002" class="node">
<title>Node2</title>
<g id="a_Node000002"><a xlink:href="_t_b_g_subtraction_8cxx.html" target="_top" xlink:title=" ">
<polygon fill="white" stroke="#666666" points="102.25,-74.5 0,-74.5 0,-55.25 102.25,-55.25 102.25,-74.5"/>
<text text-anchor="middle" x="51.12" y="-61" font-family="Helvetica,sans-Serif" font-size="10.00">TBGSubtraction.cxx</text>
</a>
</g>
</g>
<!-- Node1&#45;&gt;Node2 -->
<g id="edge1_Node000001_Node000002" class="edge">
<title>Node1&#45;&gt;Node2</title>
<g id="a_edge1_Node000001_Node000002"><a xlink:title=" ">
<path fill="none" stroke="#63b8ff" d="M126.53,-104.86C108.15,-95.36 84.54,-83.15 68.68,-74.95"/>
<polygon fill="#63b8ff" stroke="#63b8ff" points="124.82,-107.91 135.31,-109.4 128.03,-101.7 124.82,-107.91"/>
</a>
</g>
</g>
<!-- Node3 -->
<g id="Node000003" class="node">
<title>Node3</title>
<g id="a_Node000003"><a xlink:href="_t_gauss_8cxx.html" target="_top" xlink:title=" ">
<polygon fill="white" stroke="#666666" points="187.62,-74.5 120.62,-74.5 120.62,-55.25 187.62,-55.25 187.62,-74.5"/>
<text text-anchor="middle" x="154.12" y="-61" font-family="Helvetica,sans-Serif" font-size="10.00">TGauss.cxx</text>
</a>
</g>
</g>
<!-- Node1&#45;&gt;Node3 -->
<g id="edge2_Node000001_Node000003" class="edge">
<title>Node1&#45;&gt;Node3</title>
<g id="a_edge2_Node000001_Node000003"><a xlink:title=" ">
<path fill="none" stroke="#63b8ff" d="M154.12,-98.88C154.12,-90.59 154.12,-81.42 154.12,-74.86"/>
<polygon fill="#63b8ff" stroke="#63b8ff" points="150.63,-98.82 154.13,-108.82 157.63,-98.82 150.63,-98.82"/>
</a>
</g>
</g>
<!-- Node4 -->
<g id="Node000004" class="node">
<title>Node4</title>
<g id="a_Node000004"><a xlink:href="_t_source_calibration_8h.html" target="_top" xlink:title=" ">
<polygon fill="white" stroke="#666666" points="312.12,-74.5 206.12,-74.5 206.12,-55.25 312.12,-55.25 312.12,-74.5"/>
<text text-anchor="middle" x="259.12" y="-61" font-family="Helvetica,sans-Serif" font-size="10.00">TSourceCalibration.h</text>
</a>
</g>
</g>
<!-- Node1&#45;&gt;Node4 -->
<g id="edge3_Node000001_Node000004" class="edge">
<title>Node1&#45;&gt;Node4</title>
<g id="a_edge3_Node000001_Node000004"><a xlink:title=" ">
<path fill="none" stroke="#63b8ff" d="M181.99,-104.99C200.77,-95.47 224.98,-83.19 241.23,-74.95"/>
<polygon fill="#63b8ff" stroke="#63b8ff" points="180.62,-101.76 173.29,-109.41 183.79,-108.01 180.62,-101.76"/>
</a>
</g>
</g>
<!-- Node5 -->
<g id="Node000005" class="node">
<title>Node5</title>
<g id="a_Node000005"><a xlink:href="_t_source_calibration_8cxx.html" target="_top" xlink:title=" ">
<polygon fill="white" stroke="#666666" points="316.62,-19.25 201.62,-19.25 201.62,0 316.62,0 316.62,-19.25"/>
<text text-anchor="middle" x="259.12" y="-5.75" font-family="Helvetica,sans-Serif" font-size="10.00">TSourceCalibration.cxx</text>
</a>
</g>
</g>
<!-- Node4&#45;&gt;Node5 -->
<g id="edge4_Node000004_Node000005" class="edge">
<title>Node4&#45;&gt;Node5</title>
<g id="a_edge4_Node000004_Node000005"><a xlink:title=" ">
<path fill="none" stroke="#63b8ff" d="M259.12,-43.63C259.12,-35.34 259.12,-26.17 259.12,-19.61"/>
<polygon fill="#63b8ff" stroke="#63b8ff" points="255.63,-43.57 259.13,-53.57 262.63,-43.57 255.63,-43.57"/>
</a>
</g>
</g>
</g>
</svg>
