<?xml version="1.0" encoding="UTF-8" standalone="no"?>
<!DOCTYPE svg PUBLIC "-//W3C//DTD SVG 1.1//EN"
 "http://www.w3.org/Graphics/SVG/1.1/DTD/svg11.dtd">
<!-- Generated by graphviz version 9.0.0 (20230911.1827)
 -->
<!-- Title: TGRSIFit.h Pages: 1 -->
<svg width="1250pt" height="469pt"
 viewBox="0.00 0.00 1250.12 469.25" xmlns="http://www.w3.org/2000/svg" xmlns:xlink="http://www.w3.org/1999/xlink">
<g id="graph0" class="graph" transform="scale(1 1) rotate(0) translate(4 465.25)">
<title>TGRSIFit.h</title>
<!-- Node1 -->
<g id="Node000001" class="node">
<title>Node1</title>
<g id="a_Node000001"><a xlink:title=" ">
<polygon fill="#999999" stroke="#666666" points="403.88,-461.25 339.12,-461.25 339.12,-442 403.88,-442 403.88,-461.25"/>
<text text-anchor="middle" x="371.5" y="-447.75" font-family="Helvetica,sans-Serif" font-size="10.00">TGRSIFit.h</text>
</a>
</g>
</g>
<!-- Node2 -->
<g id="Node000002" class="node">
<title>Node2</title>
<g id="a_Node000002"><a xlink:href="_t_g_r_s_i_fit_8cxx.html" target="_top" xlink:title=" ">
<polygon fill="white" stroke="#666666" points="227.38,-406 153.62,-406 153.62,-386.75 227.38,-386.75 227.38,-406"/>
<text text-anchor="middle" x="190.5" y="-392.5" font-family="Helvetica,sans-Serif" font-size="10.00">TGRSIFit.cxx</text>
</a>
</g>
</g>
<!-- Node1&#45;&gt;Node2 -->
<g id="edge1_Node000001_Node000002" class="edge">
<title>Node1&#45;&gt;Node2</title>
<g id="a_edge1_Node000001_Node000002"><a xlink:title=" ">
<path fill="none" stroke="#63b8ff" d="M330.09,-438.44C296.98,-428.7 251.31,-415.27 221.35,-406.45"/>
<polygon fill="#63b8ff" stroke="#63b8ff" points="328.76,-441.7 339.34,-441.16 330.74,-434.98 328.76,-441.7"/>
</a>
</g>
</g>
<!-- Node3 -->
<g id="Node000003" class="node">
<title>Node3</title>
<g id="a_Node000003"><a xlink:href="_t_gauss_8h.html" target="_top" xlink:title=" ">
<polygon fill="white" stroke="#666666" points="400.5,-406 342.5,-406 342.5,-386.75 400.5,-386.75 400.5,-406"/>
<text text-anchor="middle" x="371.5" y="-392.5" font-family="Helvetica,sans-Serif" font-size="10.00">TGauss.h</text>
</a>
</g>
</g>
<!-- Node1&#45;&gt;Node3 -->
<g id="edge2_Node000001_Node000003" class="edge">
<title>Node1&#45;&gt;Node3</title>
<g id="a_edge2_Node000001_Node000003"><a xlink:title=" ">
<path fill="none" stroke="#63b8ff" d="M371.5,-430.38C371.5,-422.09 371.5,-412.92 371.5,-406.36"/>
<polygon fill="#63b8ff" stroke="#63b8ff" points="368,-430.32 371.5,-440.32 375,-430.32 368,-430.32"/>
</a>
</g>
</g>
<!-- Node6 -->
<g id="Node000006" class="node">
<title>Node6</title>
<g id="a_Node000006"><a xlink:href="_t_multi_peak_8h.html" target="_top" xlink:title=" ">
<polygon fill="white" stroke="#666666" points="507,-350.75 434,-350.75 434,-331.5 507,-331.5 507,-350.75"/>
<text text-anchor="middle" x="470.5" y="-337.25" font-family="Helvetica,sans-Serif" font-size="10.00">TMultiPeak.h</text>
</a>
</g>
</g>
<!-- Node1&#45;&gt;Node6 -->
<g id="edge5_Node000001_Node000006" class="edge">
<title>Node1&#45;&gt;Node6</title>
<g id="a_edge5_Node000001_Node000006"><a xlink:title=" ">
<path fill="none" stroke="#63b8ff" d="M387.15,-433.47C408.45,-410.13 445.8,-369.19 462.29,-351.13"/>
<polygon fill="#63b8ff" stroke="#63b8ff" points="384.78,-430.88 380.62,-440.63 389.95,-435.6 384.78,-430.88"/>
</a>
</g>
</g>
<!-- Node8 -->
<g id="Node000008" class="node">
<title>Node8</title>
<g id="a_Node000008"><a xlink:href="_t_peak_8h.html" target="_top" xlink:title=" ">
<polygon fill="white" stroke="#666666" points="723.5,-406 671.5,-406 671.5,-386.75 723.5,-386.75 723.5,-406"/>
<text text-anchor="middle" x="697.5" y="-392.5" font-family="Helvetica,sans-Serif" font-size="10.00">TPeak.h</text>
</a>
</g>
</g>
<!-- Node1&#45;&gt;Node8 -->
<g id="edge7_Node000001_Node000008" class="edge">
<title>Node1&#45;&gt;Node8</title>
<g id="a_edge7_Node000001_Node000008"><a xlink:title=" ">
<path fill="none" stroke="#63b8ff" d="M415.55,-443.43C484.41,-432.18 615.44,-410.78 671.26,-401.66"/>
<polygon fill="#63b8ff" stroke="#63b8ff" points="415.05,-439.97 405.74,-445.03 416.18,-446.87 415.05,-439.97"/>
</a>
</g>
</g>
<!-- Node29 -->
<g id="Node000029" class="node">
<title>Node29</title>
<g id="a_Node000029"><a xlink:href="_t_r_w_peak_8h.html" target="_top" xlink:title=" ">
<polygon fill="white" stroke="#666666" points="313.38,-406 245.62,-406 245.62,-386.75 313.38,-386.75 313.38,-406"/>
<text text-anchor="middle" x="279.5" y="-392.5" font-family="Helvetica,sans-Serif" font-size="10.00">TRWPeak.h</text>
</a>
</g>
</g>
<!-- Node1&#45;&gt;Node29 -->
<g id="edge35_Node000001_Node000029" class="edge">
<title>Node1&#45;&gt;Node29</title>
<g id="a_edge35_Node000001_Node000029"><a xlink:title=" ">
<path fill="none" stroke="#63b8ff" d="M346.39,-436.09C330.04,-426.63 309.22,-414.58 295.18,-406.45"/>
<polygon fill="#63b8ff" stroke="#63b8ff" points="344.18,-438.85 354.58,-440.83 347.68,-432.79 344.18,-438.85"/>
</a>
</g>
</g>
<!-- Node4 -->
<g id="Node000004" class="node">
<title>Node4</title>
<g id="a_Node000004"><a xlink:href="_t_b_g_subtraction_8cxx.html" target="_top" xlink:title=" ">
<polygon fill="white" stroke="#666666" points="330.62,-350.75 228.38,-350.75 228.38,-331.5 330.62,-331.5 330.62,-350.75"/>
<text text-anchor="middle" x="279.5" y="-337.25" font-family="Helvetica,sans-Serif" font-size="10.00">TBGSubtraction.cxx</text>
</a>
</g>
</g>
<!-- Node3&#45;&gt;Node4 -->
<g id="edge3_Node000003_Node000004" class="edge">
<title>Node3&#45;&gt;Node4</title>
<g id="a_edge3_Node000003_Node000004"><a xlink:title=" ">
<path fill="none" stroke="#63b8ff" d="M346.39,-380.84C330.04,-371.38 309.22,-359.33 295.18,-351.2"/>
<polygon fill="#63b8ff" stroke="#63b8ff" points="344.18,-383.6 354.58,-385.58 347.68,-377.54 344.18,-383.6"/>
</a>
</g>
</g>
<!-- Node5 -->
<g id="Node000005" class="node">
<title>Node5</title>
<g id="a_Node000005"><a xlink:href="_t_gauss_8cxx.html" target="_top" xlink:title=" ">
<polygon fill="white" stroke="#666666" points="416,-350.75 349,-350.75 349,-331.5 416,-331.5 416,-350.75"/>
<text text-anchor="middle" x="382.5" y="-337.25" font-family="Helvetica,sans-Serif" font-size="10.00">TGauss.cxx</text>
</a>
</g>
</g>
<!-- Node3&#45;&gt;Node5 -->
<g id="edge4_Node000003_Node000005" class="edge">
<title>Node3&#45;&gt;Node5</title>
<g id="a_edge4_Node000003_Node000005"><a xlink:title=" ">
<path fill="none" stroke="#63b8ff" d="M375.62,-375.42C377.35,-367.05 379.27,-357.75 380.64,-351.11"/>
<polygon fill="#63b8ff" stroke="#63b8ff" points="372.22,-374.6 373.62,-385.1 379.07,-376.01 372.22,-374.6"/>
</a>
</g>
</g>
<!-- Node7 -->
<g id="Node000007" class="node">
<title>Node7</title>
<g id="a_Node000007"><a xlink:href="_t_multi_peak_8cxx.html" target="_top" xlink:title=" ">
<polygon fill="white" stroke="#666666" points="502.5,-295.5 420.5,-295.5 420.5,-276.25 502.5,-276.25 502.5,-295.5"/>
<text text-anchor="middle" x="461.5" y="-282" font-family="Helvetica,sans-Serif" font-size="10.00">TMultiPeak.cxx</text>
</a>
</g>
</g>
<!-- Node6&#45;&gt;Node7 -->
<g id="edge6_Node000006_Node000007" class="edge">
<title>Node6&#45;&gt;Node7</title>
<g id="a_edge6_Node000006_Node000007"><a xlink:title=" ">
<path fill="none" stroke="#63b8ff" d="M467.13,-320.17C465.71,-311.8 464.14,-302.5 463.02,-295.86"/>
<polygon fill="#63b8ff" stroke="#63b8ff" points="463.64,-320.56 468.76,-329.84 470.55,-319.4 463.64,-320.56"/>
</a>
</g>
</g>
<!-- Node8&#45;&gt;Node6 -->
<g id="edge33_Node000008_Node000006" class="edge">
<title>Node8&#45;&gt;Node6</title>
<g id="a_edge33_Node000008_Node000006"><a xlink:title=" ">
<path fill="none" stroke="#63b8ff" d="M659.81,-386.53C617.49,-376.61 549.26,-360.6 507.3,-350.76"/>
<polygon fill="#63b8ff" stroke="#63b8ff" points="659.01,-389.94 669.54,-388.82 660.61,-383.13 659.01,-389.94"/>
</a>
</g>
</g>
<!-- Node9 -->
<g id="Node000009" class="node">
<title>Node9</title>
<g id="a_Node000009"><a xlink:href="_g_root_commands_8cxx.html" target="_top" xlink:title=" ">
<polygon fill="white" stroke="#666666" points="899.38,-350.75 789.62,-350.75 789.62,-331.5 899.38,-331.5 899.38,-350.75"/>
<text text-anchor="middle" x="844.5" y="-337.25" font-family="Helvetica,sans-Serif" font-size="10.00">GRootCommands.cxx</text>
</a>
</g>
</g>
<!-- Node8&#45;&gt;Node9 -->
<g id="edge8_Node000008_Node000009" class="edge">
<title>Node8&#45;&gt;Node9</title>
<g id="a_edge8_Node000008_Node000009"><a xlink:title=" ">
<path fill="none" stroke="#63b8ff" d="M733.26,-382.42C759.94,-372.75 795.75,-359.79 819.44,-351.2"/>
<polygon fill="#63b8ff" stroke="#63b8ff" points="732.07,-379.13 723.86,-385.83 734.45,-385.71 732.07,-379.13"/>
</a>
</g>
</g>
<!-- Node10 -->
<g id="Node000010" class="node">
<title>Node10</title>
<g id="a_Node000010"><a xlink:href="_t_cal_point_8h.html" target="_top" xlink:title=" ">
<polygon fill="white" stroke="#666666" points="983.62,-350.75 917.38,-350.75 917.38,-331.5 983.62,-331.5 983.62,-350.75"/>
<text text-anchor="middle" x="950.5" y="-337.25" font-family="Helvetica,sans-Serif" font-size="10.00">TCalPoint.h</text>
</a>
</g>
</g>
<!-- Node8&#45;&gt;Node10 -->
<g id="edge9_Node000008_Node000010" class="edge">
<title>Node8&#45;&gt;Node10</title>
<g id="a_edge9_Node000008_Node000010"><a xlink:title=" ">
<path fill="none" stroke="#63b8ff" d="M734.7,-387.55C783.84,-377.2 869.7,-359.13 916.95,-349.19"/>
<polygon fill="#63b8ff" stroke="#63b8ff" points="734.17,-384.08 725.1,-389.57 735.61,-390.93 734.17,-384.08"/>
</a>
</g>
</g>
<!-- Node22 -->
<g id="Node000022" class="node">
<title>Node22</title>
<g id="a_Node000022"><a xlink:href="_t_efficiency_cal_8h.html" target="_top" xlink:title=" ">
<polygon fill="white" stroke="#666666" points="1161.62,-350.75 1077.38,-350.75 1077.38,-331.5 1161.62,-331.5 1161.62,-350.75"/>
<text text-anchor="middle" x="1119.5" y="-337.25" font-family="Helvetica,sans-Serif" font-size="10.00">TEfficiencyCal.h</text>
</a>
</g>
</g>
<!-- Node8&#45;&gt;Node22 -->
<g id="edge27_Node000008_Node000022" class="edge">
<title>Node8&#45;&gt;Node22</title>
<g id="a_edge27_Node000008_Node000022"><a xlink:title=" ">
<path fill="none" stroke="#63b8ff" d="M735.16,-390.62C813.74,-380.71 994.67,-357.88 1077.15,-347.47"/>
<polygon fill="#63b8ff" stroke="#63b8ff" points="734.88,-387.13 725.4,-391.85 735.76,-394.07 734.88,-387.13"/>
</a>
</g>
</g>
<!-- Node24 -->
<g id="Node000024" class="node">
<title>Node24</title>
<g id="a_Node000024"><a xlink:href="_t_energy_cal_8h.html" target="_top" xlink:title=" ">
<polygon fill="white" stroke="#666666" points="598,-350.75 525,-350.75 525,-331.5 598,-331.5 598,-350.75"/>
<text text-anchor="middle" x="561.5" y="-337.25" font-family="Helvetica,sans-Serif" font-size="10.00">TEnergyCal.h</text>
</a>
</g>
</g>
<!-- Node8&#45;&gt;Node24 -->
<g id="edge29_Node000008_Node000024" class="edge">
<title>Node8&#45;&gt;Node24</title>
<g id="a_edge29_Node000008_Node000024"><a xlink:title=" ">
<path fill="none" stroke="#63b8ff" d="M663.76,-382.16C639.14,-372.52 606.41,-359.71 584.68,-351.2"/>
<polygon fill="#63b8ff" stroke="#63b8ff" points="662.43,-385.4 673.02,-385.79 664.98,-378.88 662.43,-385.4"/>
</a>
</g>
</g>
<!-- Node26 -->
<g id="Node000026" class="node">
<title>Node26</title>
<g id="a_Node000026"><a xlink:href="_t_gain_match_8h.html" target="_top" xlink:title=" ">
<polygon fill="white" stroke="#666666" points="692.88,-350.75 616.12,-350.75 616.12,-331.5 692.88,-331.5 692.88,-350.75"/>
<text text-anchor="middle" x="654.5" y="-337.25" font-family="Helvetica,sans-Serif" font-size="10.00">TGainMatch.h</text>
</a>
</g>
</g>
<!-- Node8&#45;&gt;Node26 -->
<g id="edge31_Node000008_Node000026" class="edge">
<title>Node8&#45;&gt;Node26</title>
<g id="a_edge31_Node000008_Node000026"><a xlink:title=" ">
<path fill="none" stroke="#63b8ff" d="M683.25,-377.72C676.05,-368.81 667.62,-358.37 661.75,-351.11"/>
<polygon fill="#63b8ff" stroke="#63b8ff" points="680.44,-379.82 689.45,-385.4 685.89,-375.43 680.44,-379.82"/>
</a>
</g>
</g>
<!-- Node28 -->
<g id="Node000028" class="node">
<title>Node28</title>
<g id="a_Node000028"><a xlink:href="_t_peak_8cxx.html" target="_top" xlink:title=" ">
<polygon fill="white" stroke="#666666" points="772,-350.75 711,-350.75 711,-331.5 772,-331.5 772,-350.75"/>
<text text-anchor="middle" x="741.5" y="-337.25" font-family="Helvetica,sans-Serif" font-size="10.00">TPeak.cxx</text>
</a>
</g>
</g>
<!-- Node8&#45;&gt;Node28 -->
<g id="edge34_Node000008_Node000028" class="edge">
<title>Node8&#45;&gt;Node28</title>
<g id="a_edge34_Node000008_Node000028"><a xlink:title=" ">
<path fill="none" stroke="#63b8ff" d="M712.08,-377.72C719.45,-368.81 728.08,-358.37 734.08,-351.11"/>
<polygon fill="#63b8ff" stroke="#63b8ff" points="709.4,-375.48 705.73,-385.42 714.8,-379.94 709.4,-375.48"/>
</a>
</g>
</g>
<!-- Node11 -->
<g id="Node000011" class="node">
<title>Node11</title>
<g id="a_Node000011"><a xlink:href="_t_cal_graph_8h.html" target="_top" xlink:title=" ">
<polygon fill="white" stroke="#666666" points="1054.5,-185 984.5,-185 984.5,-165.75 1054.5,-165.75 1054.5,-185"/>
<text text-anchor="middle" x="1019.5" y="-171.5" font-family="Helvetica,sans-Serif" font-size="10.00">TCalGraph.h</text>
</a>
</g>
</g>
<!-- Node10&#45;&gt;Node11 -->
<g id="edge10_Node000010_Node000011" class="edge">
<title>Node10&#45;&gt;Node11</title>
<g id="a_edge10_Node000010_Node000011"><a xlink:title=" ">
<path fill="none" stroke="#63b8ff" d="M989.4,-327.07C1026.08,-312.41 1078.71,-284.66 1101.5,-240.25 1114.81,-214.32 1078.69,-195.69 1050.21,-185.46"/>
<polygon fill="#63b8ff" stroke="#63b8ff" points="988.55,-323.65 980.47,-330.5 991.06,-330.19 988.55,-323.65"/>
</a>
</g>
</g>
<!-- Node13 -->
<g id="Node000013" class="node">
<title>Node13</title>
<g id="a_Node000013"><a xlink:href="_t_efficiency_graph_8h.html" target="_top" xlink:title=" ">
<polygon fill="white" stroke="#666666" points="966.62,-129.75 870.38,-129.75 870.38,-110.5 966.62,-110.5 966.62,-129.75"/>
<text text-anchor="middle" x="918.5" y="-116.25" font-family="Helvetica,sans-Serif" font-size="10.00">TEfficiencyGraph.h</text>
</a>
</g>
</g>
<!-- Node10&#45;&gt;Node13 -->
<g id="edge25_Node000010_Node000013" class="edge">
<title>Node10&#45;&gt;Node13</title>
<g id="a_edge25_Node000010_Node000013"><a xlink:title=" ">
<path fill="none" stroke="#63b8ff" d="M909.44,-327.59C881.93,-318.49 848.91,-305.99 838.5,-295.5 801.39,-258.09 805.22,-236.79 795.5,-185 793.92,-176.59 790.59,-172.76 795.5,-165.75 812.32,-141.75 843.42,-130.61 870.14,-125.46"/>
<polygon fill="#63b8ff" stroke="#63b8ff" points="908.01,-330.81 918.6,-330.55 910.16,-324.15 908.01,-330.81"/>
</a>
</g>
</g>
<!-- Node17 -->
<g id="Node000017" class="node">
<title>Node17</title>
<g id="a_Node000017"><a xlink:href="_t_cal_list_8h.html" target="_top" xlink:title=" ">
<polygon fill="white" stroke="#666666" points="1015.62,-295.5 955.38,-295.5 955.38,-276.25 1015.62,-276.25 1015.62,-295.5"/>
<text text-anchor="middle" x="985.5" y="-282" font-family="Helvetica,sans-Serif" font-size="10.00">TCalList.h</text>
</a>
</g>
</g>
<!-- Node10&#45;&gt;Node17 -->
<g id="edge16_Node000010_Node000017" class="edge">
<title>Node10&#45;&gt;Node17</title>
<g id="a_edge16_Node000010_Node000017"><a xlink:title=" ">
<path fill="none" stroke="#63b8ff" d="M962.48,-321.9C968.25,-313.11 974.93,-302.96 979.59,-295.86"/>
<polygon fill="#63b8ff" stroke="#63b8ff" points="959.68,-319.79 957.11,-330.07 965.53,-323.63 959.68,-319.79"/>
</a>
</g>
</g>
<!-- Node20 -->
<g id="Node000020" class="node">
<title>Node20</title>
<g id="a_Node000020"><a xlink:href="_t_source_list_8cxx.html" target="_top" xlink:title=" ">
<polygon fill="white" stroke="#666666" points="890.38,-185 804.62,-185 804.62,-165.75 890.38,-165.75 890.38,-185"/>
<text text-anchor="middle" x="847.5" y="-171.5" font-family="Helvetica,sans-Serif" font-size="10.00">TSourceList.cxx</text>
</a>
</g>
</g>
<!-- Node10&#45;&gt;Node20 -->
<g id="edge26_Node000010_Node000020" class="edge">
<title>Node10&#45;&gt;Node20</title>
<g id="a_edge26_Node000010_Node000020"><a xlink:title=" ">
<path fill="none" stroke="#63b8ff" d="M906.39,-330.13C886.99,-323.49 865.66,-312.72 852.5,-295.5 826.99,-262.11 838.79,-206.77 844.77,-185.29"/>
<polygon fill="#63b8ff" stroke="#63b8ff" points="905.18,-333.42 915.77,-333.04 907.26,-326.73 905.18,-333.42"/>
</a>
</g>
</g>
<!-- Node21 -->
<g id="Node000021" class="node">
<title>Node21</title>
<g id="a_Node000021"><a xlink:href="_t_cal_point_8cxx.html" target="_top" xlink:title=" ">
<polygon fill="white" stroke="#666666" points="937.12,-295.5 861.88,-295.5 861.88,-276.25 937.12,-276.25 937.12,-295.5"/>
<text text-anchor="middle" x="899.5" y="-282" font-family="Helvetica,sans-Serif" font-size="10.00">TCalPoint.cxx</text>
</a>
</g>
</g>
<!-- Node10&#45;&gt;Node21 -->
<g id="edge24_Node000010_Node000021" class="edge">
<title>Node10&#45;&gt;Node21</title>
<g id="a_edge24_Node000010_Node000021"><a xlink:title=" ">
<path fill="none" stroke="#63b8ff" d="M934.14,-323.04C925.48,-314 915.2,-303.27 908.1,-295.86"/>
<polygon fill="#63b8ff" stroke="#63b8ff" points="931.59,-325.44 941.03,-330.24 936.64,-320.6 931.59,-325.44"/>
</a>
</g>
</g>
<!-- Node12 -->
<g id="Node000012" class="node">
<title>Node12</title>
<g id="a_Node000012"><a xlink:href="_t_cal_graph_8cxx.html" target="_top" xlink:title=" ">
<polygon fill="white" stroke="#666666" points="1064,-129.75 985,-129.75 985,-110.5 1064,-110.5 1064,-129.75"/>
<text text-anchor="middle" x="1024.5" y="-116.25" font-family="Helvetica,sans-Serif" font-size="10.00">TCalGraph.cxx</text>
</a>
</g>
</g>
<!-- Node11&#45;&gt;Node12 -->
<g id="edge11_Node000011_Node000012" class="edge">
<title>Node11&#45;&gt;Node12</title>
<g id="a_edge11_Node000011_Node000012"><a xlink:title=" ">
<path fill="none" stroke="#63b8ff" d="M1021.4,-154.13C1022.18,-145.84 1023.04,-136.67 1023.66,-130.11"/>
<polygon fill="#63b8ff" stroke="#63b8ff" points="1017.92,-153.79 1020.47,-164.07 1024.89,-154.45 1017.92,-153.79"/>
</a>
</g>
</g>
<!-- Node11&#45;&gt;Node13 -->
<g id="edge12_Node000011_Node000013" class="edge">
<title>Node11&#45;&gt;Node13</title>
<g id="a_edge12_Node000011_Node000013"><a xlink:title=" ">
<path fill="none" stroke="#63b8ff" d="M992.19,-159.98C974.2,-150.49 951.2,-138.36 935.72,-130.2"/>
<polygon fill="#63b8ff" stroke="#63b8ff" points="990.55,-163.07 1001.03,-164.64 993.81,-156.88 990.55,-163.07"/>
</a>
</g>
</g>
<!-- Node14 -->
<g id="Node000014" class="node">
<title>Node14</title>
<g id="a_Node000014"><a xlink:href="_t_efficiency_calibration_8h.html" target="_top" xlink:title=" ">
<polygon fill="white" stroke="#666666" points="912.38,-74.5 796.62,-74.5 796.62,-55.25 912.38,-55.25 912.38,-74.5"/>
<text text-anchor="middle" x="854.5" y="-61" font-family="Helvetica,sans-Serif" font-size="10.00">TEfficiencyCalibration.h</text>
</a>
</g>
</g>
<!-- Node13&#45;&gt;Node14 -->
<g id="edge13_Node000013_Node000014" class="edge">
<title>Node13&#45;&gt;Node14</title>
<g id="a_edge13_Node000013_Node000014"><a xlink:title=" ">
<path fill="none" stroke="#63b8ff" d="M899.02,-102.91C887.9,-93.67 874.4,-82.43 865.2,-74.77"/>
<polygon fill="#63b8ff" stroke="#63b8ff" points="896.55,-105.42 906.48,-109.12 901.03,-100.04 896.55,-105.42"/>
</a>
</g>
</g>
<!-- Node16 -->
<g id="Node000016" class="node">
<title>Node16</title>
<g id="a_Node000016"><a xlink:href="_t_efficiency_graph_8cxx.html" target="_top" xlink:title=" ">
<polygon fill="white" stroke="#666666" points="1036.12,-74.5 930.88,-74.5 930.88,-55.25 1036.12,-55.25 1036.12,-74.5"/>
<text text-anchor="middle" x="983.5" y="-61" font-family="Helvetica,sans-Serif" font-size="10.00">TEfficiencyGraph.cxx</text>
</a>
</g>
</g>
<!-- Node13&#45;&gt;Node16 -->
<g id="edge15_Node000013_Node000016" class="edge">
<title>Node13&#45;&gt;Node16</title>
<g id="a_edge15_Node000013_Node000016"><a xlink:title=" ">
<path fill="none" stroke="#63b8ff" d="M938.29,-102.91C949.58,-93.67 963.29,-82.43 972.64,-74.77"/>
<polygon fill="#63b8ff" stroke="#63b8ff" points="936.21,-100.09 930.7,-109.13 940.65,-105.5 936.21,-100.09"/>
</a>
</g>
</g>
<!-- Node15 -->
<g id="Node000015" class="node">
<title>Node15</title>
<g id="a_Node000015"><a xlink:href="_t_efficiency_calibration_8cxx.html" target="_top" xlink:title=" ">
<polygon fill="white" stroke="#666666" points="916.88,-19.25 792.12,-19.25 792.12,0 916.88,0 916.88,-19.25"/>
<text text-anchor="middle" x="854.5" y="-5.75" font-family="Helvetica,sans-Serif" font-size="10.00">TEfficiencyCalibration.cxx</text>
</a>
</g>
</g>
<!-- Node14&#45;&gt;Node15 -->
<g id="edge14_Node000014_Node000015" class="edge">
<title>Node14&#45;&gt;Node15</title>
<g id="a_edge14_Node000014_Node000015"><a xlink:title=" ">
<path fill="none" stroke="#63b8ff" d="M854.5,-43.63C854.5,-35.34 854.5,-26.17 854.5,-19.61"/>
<polygon fill="#63b8ff" stroke="#63b8ff" points="851,-43.57 854.5,-53.57 858,-43.57 851,-43.57"/>
</a>
</g>
</g>
<!-- Node17&#45;&gt;Node11 -->
<g id="edge17_Node000017_Node000011" class="edge">
<title>Node17&#45;&gt;Node11</title>
<g id="a_edge17_Node000017_Node000011"><a xlink:title=" ">
<path fill="none" stroke="#63b8ff" d="M991.67,-265.18C999.09,-241.51 1011.22,-202.8 1016.68,-185.38"/>
<polygon fill="#63b8ff" stroke="#63b8ff" points="988.39,-263.96 988.73,-274.55 995.07,-266.06 988.39,-263.96"/>
</a>
</g>
</g>
<!-- Node17&#45;&gt;Node13 -->
<g id="edge19_Node000017_Node000013" class="edge">
<title>Node17&#45;&gt;Node13</title>
<g id="a_edge19_Node000017_Node000013"><a xlink:title=" ">
<path fill="none" stroke="#63b8ff" d="M977.64,-265.66C963.11,-230.15 932.59,-155.57 922.12,-129.97"/>
<polygon fill="#63b8ff" stroke="#63b8ff" points="974.3,-266.74 981.32,-274.67 980.78,-264.09 974.3,-266.74"/>
</a>
</g>
</g>
<!-- Node18 -->
<g id="Node000018" class="node">
<title>Node18</title>
<g id="a_Node000018"><a xlink:href="_t_cal_list_8cxx.html" target="_top" xlink:title=" ">
<polygon fill="white" stroke="#666666" points="1092.12,-240.25 1022.88,-240.25 1022.88,-221 1092.12,-221 1092.12,-240.25"/>
<text text-anchor="middle" x="1057.5" y="-226.75" font-family="Helvetica,sans-Serif" font-size="10.00">TCalList.cxx</text>
</a>
</g>
</g>
<!-- Node17&#45;&gt;Node18 -->
<g id="edge18_Node000017_Node000018" class="edge">
<title>Node17&#45;&gt;Node18</title>
<g id="a_edge18_Node000017_Node000018"><a xlink:title=" ">
<path fill="none" stroke="#63b8ff" d="M1006.67,-269.22C1019.31,-259.87 1034.91,-248.33 1045.47,-240.52"/>
<polygon fill="#63b8ff" stroke="#63b8ff" points="1004.89,-266.18 998.93,-274.94 1009.05,-271.81 1004.89,-266.18"/>
</a>
</g>
</g>
<!-- Node19 -->
<g id="Node000019" class="node">
<title>Node19</title>
<g id="a_Node000019"><a xlink:href="_t_source_list_8h.html" target="_top" xlink:title=" ">
<polygon fill="white" stroke="#666666" points="928.88,-240.25 852.12,-240.25 852.12,-221 928.88,-221 928.88,-240.25"/>
<text text-anchor="middle" x="890.5" y="-226.75" font-family="Helvetica,sans-Serif" font-size="10.00">TSourceList.h</text>
</a>
</g>
</g>
<!-- Node17&#45;&gt;Node19 -->
<g id="edge20_Node000017_Node000019" class="edge">
<title>Node17&#45;&gt;Node19</title>
<g id="a_edge20_Node000017_Node000019"><a xlink:title=" ">
<path fill="none" stroke="#63b8ff" d="M959.57,-270.34C942.69,-260.88 921.19,-248.83 906.69,-240.7"/>
<polygon fill="#63b8ff" stroke="#63b8ff" points="957.63,-273.27 968.06,-275.1 961.05,-267.16 957.63,-273.27"/>
</a>
</g>
</g>
<!-- Node19&#45;&gt;Node11 -->
<g id="edge21_Node000019_Node000011" class="edge">
<title>Node19&#45;&gt;Node11</title>
<g id="a_edge21_Node000019_Node000011"><a xlink:title=" ">
<path fill="none" stroke="#63b8ff" d="M922.82,-216.28C946.14,-206.66 977,-193.92 997.51,-185.45"/>
<polygon fill="#63b8ff" stroke="#63b8ff" points="921.69,-212.96 913.78,-220.01 924.36,-219.43 921.69,-212.96"/>
</a>
</g>
</g>
<!-- Node19&#45;&gt;Node13 -->
<g id="edge22_Node000019_Node000013" class="edge">
<title>Node19&#45;&gt;Node13</title>
<g id="a_edge22_Node000019_Node000013"><a xlink:title=" ">
<path fill="none" stroke="#63b8ff" d="M895.67,-209.6C901.78,-185.9 911.7,-147.47 916.18,-130.13"/>
<polygon fill="#63b8ff" stroke="#63b8ff" points="892.28,-208.72 893.17,-219.28 899.06,-210.47 892.28,-208.72"/>
</a>
</g>
</g>
<!-- Node19&#45;&gt;Node20 -->
<g id="edge23_Node000019_Node000020" class="edge">
<title>Node19&#45;&gt;Node20</title>
<g id="a_edge23_Node000019_Node000020"><a xlink:title=" ">
<path fill="none" stroke="#63b8ff" d="M876.25,-211.97C869.05,-203.06 860.62,-192.62 854.75,-185.36"/>
<polygon fill="#63b8ff" stroke="#63b8ff" points="873.44,-214.07 882.45,-219.65 878.89,-209.68 873.44,-214.07"/>
</a>
</g>
</g>
<!-- Node23 -->
<g id="Node000023" class="node">
<title>Node23</title>
<g id="a_Node000023"><a xlink:href="_t_efficiency_cal_8cxx.html" target="_top" xlink:title=" ">
<polygon fill="white" stroke="#666666" points="1242.12,-295.5 1148.88,-295.5 1148.88,-276.25 1242.12,-276.25 1242.12,-295.5"/>
<text text-anchor="middle" x="1195.5" y="-282" font-family="Helvetica,sans-Serif" font-size="10.00">TEfficiencyCal.cxx</text>
</a>
</g>
</g>
<!-- Node22&#45;&gt;Node23 -->
<g id="edge28_Node000022_Node000023" class="edge">
<title>Node22&#45;&gt;Node23</title>
<g id="a_edge28_Node000022_Node000023"><a xlink:title=" ">
<path fill="none" stroke="#63b8ff" d="M1141.79,-324.51C1155.04,-315.22 1171.39,-303.77 1182.54,-295.95"/>
<polygon fill="#63b8ff" stroke="#63b8ff" points="1139.81,-321.62 1133.63,-330.22 1143.83,-327.35 1139.81,-321.62"/>
</a>
</g>
</g>
<!-- Node25 -->
<g id="Node000025" class="node">
<title>Node25</title>
<g id="a_Node000025"><a xlink:href="_t_energy_cal_8cxx.html" target="_top" xlink:title=" ">
<polygon fill="white" stroke="#666666" points="602.5,-295.5 520.5,-295.5 520.5,-276.25 602.5,-276.25 602.5,-295.5"/>
<text text-anchor="middle" x="561.5" y="-282" font-family="Helvetica,sans-Serif" font-size="10.00">TEnergyCal.cxx</text>
</a>
</g>
</g>
<!-- Node24&#45;&gt;Node25 -->
<g id="edge30_Node000024_Node000025" class="edge">
<title>Node24&#45;&gt;Node25</title>
<g id="a_edge30_Node000024_Node000025"><a xlink:title=" ">
<path fill="none" stroke="#63b8ff" d="M561.5,-319.88C561.5,-311.59 561.5,-302.42 561.5,-295.86"/>
<polygon fill="#63b8ff" stroke="#63b8ff" points="558,-319.82 561.5,-329.82 565,-319.82 558,-319.82"/>
</a>
</g>
</g>
<!-- Node27 -->
<g id="Node000027" class="node">
<title>Node27</title>
<g id="a_Node000027"><a xlink:href="_t_gain_match_8cxx.html" target="_top" xlink:title=" ">
<polygon fill="white" stroke="#666666" points="706.38,-295.5 620.62,-295.5 620.62,-276.25 706.38,-276.25 706.38,-295.5"/>
<text text-anchor="middle" x="663.5" y="-282" font-family="Helvetica,sans-Serif" font-size="10.00">TGainMatch.cxx</text>
</a>
</g>
</g>
<!-- Node26&#45;&gt;Node27 -->
<g id="edge32_Node000026_Node000027" class="edge">
<title>Node26&#45;&gt;Node27</title>
<g id="a_edge32_Node000026_Node000027"><a xlink:title=" ">
<path fill="none" stroke="#63b8ff" d="M657.87,-320.17C659.29,-311.8 660.86,-302.5 661.98,-295.86"/>
<polygon fill="#63b8ff" stroke="#63b8ff" points="654.45,-319.4 656.24,-329.84 661.36,-320.56 654.45,-319.4"/>
</a>
</g>
</g>
<!-- Node29&#45;&gt;Node4 -->
<g id="edge36_Node000029_Node000004" class="edge">
<title>Node29&#45;&gt;Node4</title>
<g id="a_edge36_Node000029_Node000004"><a xlink:title=" ">
<path fill="none" stroke="#63b8ff" d="M279.5,-375.13C279.5,-366.84 279.5,-357.67 279.5,-351.11"/>
<polygon fill="#63b8ff" stroke="#63b8ff" points="276,-375.07 279.5,-385.07 283,-375.07 276,-375.07"/>
</a>
</g>
</g>
<!-- Node30 -->
<g id="Node000030" class="node">
<title>Node30</title>
<g id="a_Node000030"><a xlink:href="_t_r_w_peak_8cxx.html" target="_top" xlink:title=" ">
<polygon fill="white" stroke="#666666" points="209.88,-350.75 133.12,-350.75 133.12,-331.5 209.88,-331.5 209.88,-350.75"/>
<text text-anchor="middle" x="171.5" y="-337.25" font-family="Helvetica,sans-Serif" font-size="10.00">TRWPeak.cxx</text>
</a>
</g>
</g>
<!-- Node29&#45;&gt;Node30 -->
<g id="edge37_Node000029_Node000030" class="edge">
<title>Node29&#45;&gt;Node30</title>
<g id="a_edge37_Node000029_Node000030"><a xlink:title=" ">
<path fill="none" stroke="#63b8ff" d="M251.11,-381.37C231.75,-371.83 206.7,-359.48 189.91,-351.2"/>
<polygon fill="#63b8ff" stroke="#63b8ff" points="249.3,-384.39 259.82,-385.67 252.4,-378.11 249.3,-384.39"/>
</a>
</g>
</g>
<!-- Node31 -->
<g id="Node000031" class="node">
<title>Node31</title>
<g id="a_Node000031"><a xlink:href="_t_source_calibration_8cxx.html" target="_top" xlink:title=" ">
<polygon fill="white" stroke="#666666" points="115,-350.75 0,-350.75 0,-331.5 115,-331.5 115,-350.75"/>
<text text-anchor="middle" x="57.5" y="-337.25" font-family="Helvetica,sans-Serif" font-size="10.00">TSourceCalibration.cxx</text>
</a>
</g>
</g>
<!-- Node29&#45;&gt;Node31 -->
<g id="edge38_Node000029_Node000031" class="edge">
<title>Node29&#45;&gt;Node31</title>
<g id="a_edge38_Node000029_Node000031"><a xlink:title=" ">
<path fill="none" stroke="#63b8ff" d="M234.3,-384.53C193.42,-374.73 133.92,-360.46 95.46,-351.23"/>
<polygon fill="#63b8ff" stroke="#63b8ff" points="233.29,-387.89 243.83,-386.82 234.92,-381.08 233.29,-387.89"/>
</a>
</g>
</g>
</g>
</svg>
