<?xml version="1.0" encoding="UTF-8" standalone="no"?>
<!DOCTYPE svg PUBLIC "-//W3C//DTD SVG 1.1//EN"
 "http://www.w3.org/Graphics/SVG/1.1/DTD/svg11.dtd">
<!-- Generated by graphviz version 12.2.0 (20241103.1931)
 -->
<!-- Title: TGRSIFrame.h Pages: 1 -->
<!--zoomable 248 -->

<svg id="main" version="1.1" xmlns="http://www.w3.org/2000/svg" xmlns:xlink="http://www.w3.org/1999/xlink" xml:space="preserve" onload="init(evt)">

<style type="text/css"><![CDATA[
.node, .edge {opacity: 0.7;}
.node.selected, .edge.selected {opacity: 1;}
.edge:hover path { stroke: red; }
.edge:hover polygon { stroke: red; fill: red; }
]]></style>

<defs>
  <circle id="rim" cx="0" cy="0" r="7"/>
  <circle id="rim2" cx="0" cy="0" r="3.5"/>
  <g id="zoomPlus">
    <use xlink:href="#rim" fill="#404040"><set attributeName="fill" to="#808080" begin="zoomplus.mouseover" end="zoomplus.mouseout"/></use>
    <path d="M-4,0h8M0,-4v8" fill="none" stroke="white" stroke-width="1.5" pointer-events="none"/>
  </g>
  <g id="zoomMin">
    <use xlink:href="#rim" fill="#404040"><set attributeName="fill" to="#808080" begin="zoomminus.mouseover" end="zoomminus.mouseout"/></use>
    <path d="M-4,0h8" fill="none" stroke="white" stroke-width="1.5" pointer-events="none"/>
  </g>
  <g id="arrowUp" transform="translate(30 24)">
    <use xlink:href="#rim"/>
    <path pointer-events="none" fill="none" stroke="white" stroke-width="1.5" d="M0,-3.0v7 M-2.5,-0.5L0,-3.0L2.5,-0.5"/>
  </g>
  <g id="arrowRight" transform="rotate(90) translate(36 -43)">
    <use xlink:href="#rim"/>
    <path pointer-events="none" fill="none" stroke="white" stroke-width="1.5" d="M0,-3.0v7 M-2.5,-0.5L0,-3.0L2.5,-0.5"/>
  </g>
  <g id="arrowDown" transform="rotate(180) translate(-30 -48)">
    <use xlink:href="#rim"/>
    <path pointer-events="none" fill="none" stroke="white" stroke-width="1.5" d="M0,-3.0v7 M-2.5,-0.5L0,-3.0L2.5,-0.5"/>
  </g>
  <g id="arrowLeft" transform="rotate(270) translate(-36 17)">
    <use xlink:href="#rim"/>
    <path pointer-events="none" fill="none" stroke="white" stroke-width="1.5" d="M0,-3.0v7 M-2.5,-0.5L0,-3.0L2.5,-0.5"/>
  </g>
  <g id="resetDef">
    <use xlink:href="#rim2" fill="#404040"><set attributeName="fill" to="#808080" begin="reset.mouseover" end="reset.mouseout"/></use>
  </g>
</defs>
<script type="application/ecmascript">
var viewWidth = 1576;
var viewHeight = 248;
var sectionId = 'dynsection-0';
</script>
<script type="application/ecmascript" xlink:href="svg.min.js"/>
<svg id="graph" class="graph">
<g id="viewport">
<title>TGRSIFrame.h</title>
<!-- Node1 -->
<g id="Node000001" class="node">
<title>Node1</title>
<g id="a_Node000001"><a xlink:title=" ">
<polygon fill="#999999" stroke="#666666" points="684.25,-240.25 603,-240.25 603,-221 684.25,-221 684.25,-240.25"/>
<text text-anchor="middle" x="643.62" y="-226.75" font-family="Helvetica,sans-Serif" font-size="10.00">TGRSIFrame.h</text>
</a>
</g>
</g>
<!-- Node2 -->
<g id="Node000002" class="node">
<title>Node2</title>
<g id="a_Node000002"><a xlink:title=" ">
<polygon fill="#e0e0e0" stroke="#999999" points="63.25,-185 0,-185 0,-165.75 63.25,-165.75 63.25,-185"/>
<text text-anchor="middle" x="31.62" y="-171.5" font-family="Helvetica,sans-Serif" font-size="10.00">RVersion.h</text>
</a>
</g>
</g>
<!-- Node1&#45;&gt;Node2 -->
<g id="edge1_Node000001_Node000002" class="edge">
<title>Node1&#45;&gt;Node2</title>
<g id="a_edge1_Node000001_Node000002"><a xlink:title=" ">
<path fill="none" stroke="#63b8ff" d="M602.63,-227.89C509.17,-223.62 273.29,-210.98 77.62,-185 76.78,-184.89 75.93,-184.77 75.07,-184.65"/>
<polygon fill="#63b8ff" stroke="#63b8ff" points="75.65,-181.2 65.22,-183.08 74.55,-188.11 75.65,-181.2"/>
</a>
</g>
</g>
<!-- Node3 -->
<g id="Node000003" class="node">
<title>Node3</title>
<g id="a_Node000003"><a xlink:title=" ">
<polygon fill="#e0e0e0" stroke="#999999" points="312,-19.25 277.25,-19.25 277.25,0 312,0 312,-19.25"/>
<text text-anchor="middle" x="294.62" y="-5.75" font-family="Helvetica,sans-Serif" font-size="10.00">map</text>
</a>
</g>
</g>
<!-- Node1&#45;&gt;Node3 -->
<g id="edge2_Node000001_Node000003" class="edge">
<title>Node1&#45;&gt;Node3</title>
<g id="a_edge2_Node000001_Node000003"><a xlink:title=" ">
<path fill="none" stroke="#63b8ff" d="M602.85,-227.98C497.88,-222.72 223.46,-202.14 178.62,-129.75 167.94,-112.49 177.05,-71.71 190.62,-55.25 195.78,-49 237.46,-32.28 266.46,-21.18"/>
<polygon fill="#63b8ff" stroke="#63b8ff" points="267.33,-24.59 275.44,-17.77 264.85,-18.05 267.33,-24.59"/>
</a>
</g>
</g>
<!-- Node4 -->
<g id="Node000004" class="node">
<title>Node4</title>
<g id="a_Node000004"><a xlink:title=" ">
<polygon fill="#e0e0e0" stroke="#999999" points="259.62,-19.25 219.62,-19.25 219.62,0 259.62,0 259.62,-19.25"/>
<text text-anchor="middle" x="239.62" y="-5.75" font-family="Helvetica,sans-Serif" font-size="10.00">string</text>
</a>
</g>
</g>
<!-- Node1&#45;&gt;Node4 -->
<g id="edge3_Node000001_Node000004" class="edge">
<title>Node1&#45;&gt;Node4</title>
<g id="a_edge3_Node000001_Node000004"><a xlink:title=" ">
<path fill="none" stroke="#63b8ff" d="M602.64,-228.77C510.49,-226.3 289.86,-217.1 223.62,-185 168.43,-158.25 145.08,-107.85 176.62,-55.25 184.33,-42.41 197.3,-32.28 209.49,-24.93"/>
<polygon fill="#63b8ff" stroke="#63b8ff" points="211.04,-28.08 218.08,-20.16 207.64,-21.96 211.04,-28.08"/>
</a>
</g>
</g>
<!-- Node5 -->
<g id="Node000005" class="node">
<title>Node5</title>
<g id="a_Node000005"><a xlink:title=" ">
<polygon fill="#e0e0e0" stroke="#999999" points="991.62,-74.5 945.62,-74.5 945.62,-55.25 991.62,-55.25 991.62,-74.5"/>
<text text-anchor="middle" x="968.62" y="-61" font-family="Helvetica,sans-Serif" font-size="10.00">TList.h</text>
</a>
</g>
</g>
<!-- Node1&#45;&gt;Node5 -->
<g id="edge4_Node000001_Node000005" class="edge">
<title>Node1&#45;&gt;Node5</title>
<g id="a_edge4_Node000001_Node000005"><a xlink:title=" ">
<path fill="none" stroke="#63b8ff" d="M661.56,-220.59C715.39,-193.47 875.81,-112.64 940.81,-79.89"/>
<polygon fill="#63b8ff" stroke="#63b8ff" points="942.04,-83.19 949.39,-75.57 938.89,-76.94 942.04,-83.19"/>
</a>
</g>
</g>
<!-- Node6 -->
<g id="Node000006" class="node">
<title>Node6</title>
<g id="a_Node000006"><a xlink:href="_t_g_r_s_i_options_8h.html" target="_top" xlink:title=" ">
<polygon fill="white" stroke="#666666" points="386.25,-185 299,-185 299,-165.75 386.25,-165.75 386.25,-185"/>
<text text-anchor="middle" x="342.62" y="-171.5" font-family="Helvetica,sans-Serif" font-size="10.00">TGRSIOptions.h</text>
</a>
</g>
</g>
<!-- Node1&#45;&gt;Node6 -->
<g id="edge5_Node000001_Node000006" class="edge">
<title>Node1&#45;&gt;Node6</title>
<g id="a_edge5_Node000001_Node000006"><a xlink:title=" ">
<path fill="none" stroke="#63b8ff" d="M602.72,-222.39C549.56,-212.98 456.57,-196.53 397.38,-186.06"/>
<polygon fill="#63b8ff" stroke="#63b8ff" points="398.32,-182.67 387.86,-184.38 397.1,-189.57 398.32,-182.67"/>
</a>
</g>
</g>
<!-- Node18 -->
<g id="Node000018" class="node">
<title>Node18</title>
<g id="a_Node000018"><a xlink:href="_t_p_p_g_8h.html" target="_top" xlink:title=" ">
<polygon fill="white" stroke="#666666" points="668.88,-185 618.38,-185 618.38,-165.75 668.88,-165.75 668.88,-185"/>
<text text-anchor="middle" x="643.62" y="-171.5" font-family="Helvetica,sans-Serif" font-size="10.00">TPPG.h</text>
</a>
</g>
</g>
<!-- Node1&#45;&gt;Node18 -->
<g id="edge21_Node000001_Node000018" class="edge">
<title>Node1&#45;&gt;Node18</title>
<g id="a_edge21_Node000001_Node000018"><a xlink:title=" ">
<path fill="none" stroke="#63b8ff" d="M643.62,-220.83C643.62,-214.32 643.62,-205.17 643.62,-196.87"/>
<polygon fill="#63b8ff" stroke="#63b8ff" points="647.13,-196.87 643.63,-186.87 640.13,-196.87 647.13,-196.87"/>
</a>
</g>
</g>
<!-- Node37 -->
<g id="Node000037" class="node">
<title>Node37</title>
<g id="a_Node000037"><a xlink:href="_t_redirect_8h.html" target="_top" xlink:title=" ">
<polygon fill="white" stroke="#666666" points="1450.38,-74.5 1384.88,-74.5 1384.88,-55.25 1450.38,-55.25 1450.38,-74.5"/>
<text text-anchor="middle" x="1417.62" y="-61" font-family="Helvetica,sans-Serif" font-size="10.00">TRedirect.h</text>
</a>
</g>
</g>
<!-- Node1&#45;&gt;Node37 -->
<g id="edge55_Node000001_Node000037" class="edge">
<title>Node1&#45;&gt;Node37</title>
<g id="a_edge55_Node000001_Node000037"><a xlink:title=" ">
<path fill="none" stroke="#63b8ff" d="M682.48,-220.58C736.96,-207.96 839.21,-184.5 926.62,-165.75 1091.09,-130.47 1287.23,-91.5 1373.36,-74.55"/>
<polygon fill="#63b8ff" stroke="#63b8ff" points="1373.91,-78.01 1383.04,-72.65 1372.56,-71.14 1373.91,-78.01"/>
</a>
</g>
</g>
<!-- Node39 -->
<g id="Node000039" class="node">
<title>Node39</title>
<g id="a_Node000039"><a xlink:title=" ">
<polygon fill="#e0e0e0" stroke="#999999" points="1053.62,-185 935.62,-185 935.62,-165.75 1053.62,-165.75 1053.62,-185"/>
<text text-anchor="middle" x="994.62" y="-171.5" font-family="Helvetica,sans-Serif" font-size="10.00">ROOT/RDataFrame.hxx</text>
</a>
</g>
</g>
<!-- Node1&#45;&gt;Node39 -->
<g id="edge60_Node000001_Node000039" class="edge">
<title>Node1&#45;&gt;Node39</title>
<g id="a_edge60_Node000001_Node000039"><a xlink:title=" ">
<path fill="none" stroke="#63b8ff" d="M684.58,-223.41C743.28,-214.51 852.19,-197.98 924.04,-187.08"/>
<polygon fill="#63b8ff" stroke="#63b8ff" points="924.38,-190.57 933.74,-185.61 923.33,-183.65 924.38,-190.57"/>
</a>
</g>
</g>
<!-- Node40 -->
<g id="Node000040" class="node">
<title>Node40</title>
<g id="a_Node000040"><a xlink:title=" ">
<polygon fill="#e0e0e0" stroke="#999999" points="1171.62,-185 1071.62,-185 1071.62,-165.75 1171.62,-165.75 1171.62,-185"/>
<text text-anchor="middle" x="1121.62" y="-171.5" font-family="Helvetica,sans-Serif" font-size="10.00">ROOT/RLogger.hxx</text>
</a>
</g>
</g>
<!-- Node1&#45;&gt;Node40 -->
<g id="edge61_Node000001_Node000040" class="edge">
<title>Node1&#45;&gt;Node40</title>
<g id="a_edge61_Node000001_Node000040"><a xlink:title=" ">
<path fill="none" stroke="#63b8ff" d="M684.72,-225.79C757.95,-218.83 916.07,-203.28 1060.2,-185.26"/>
<polygon fill="#63b8ff" stroke="#63b8ff" points="1060.44,-188.76 1069.93,-184.04 1059.57,-181.81 1060.44,-188.76"/>
</a>
</g>
</g>
<!-- Node7 -->
<g id="Node000007" class="node">
<title>Node7</title>
<g id="a_Node000007"><a xlink:title=" ">
<polygon fill="#e0e0e0" stroke="#999999" points="498.62,-74.5 440.62,-74.5 440.62,-55.25 498.62,-55.25 498.62,-74.5"/>
<text text-anchor="middle" x="469.62" y="-61" font-family="Helvetica,sans-Serif" font-size="10.00">TObject.h</text>
</a>
</g>
</g>
<!-- Node6&#45;&gt;Node7 -->
<g id="edge6_Node000006_Node000007" class="edge">
<title>Node6&#45;&gt;Node7</title>
<g id="a_edge6_Node000006_Node000007"><a xlink:title=" ">
<path fill="none" stroke="#63b8ff" d="M377.05,-165.4C397.68,-158.53 423.19,-147.21 440.62,-129.75 452.74,-117.62 460.3,-99.52 464.65,-85.68"/>
<polygon fill="#63b8ff" stroke="#63b8ff" points="467.94,-86.9 467.27,-76.33 461.2,-85.01 467.94,-86.9"/>
</a>
</g>
</g>
<!-- Node8 -->
<g id="Node000008" class="node">
<title>Node8</title>
<g id="a_Node000008"><a xlink:title=" ">
<polygon fill="#e0e0e0" stroke="#999999" points="404.25,-74.5 359,-74.5 359,-55.25 404.25,-55.25 404.25,-74.5"/>
<text text-anchor="middle" x="381.62" y="-61" font-family="Helvetica,sans-Serif" font-size="10.00">TFile.h</text>
</a>
</g>
</g>
<!-- Node6&#45;&gt;Node8 -->
<g id="edge7_Node000006_Node000008" class="edge">
<title>Node6&#45;&gt;Node8</title>
<g id="a_edge7_Node000006_Node000008"><a xlink:title=" ">
<path fill="none" stroke="#63b8ff" d="M335.62,-165.36C326.68,-152.67 313.41,-129.02 322.62,-110.5 328.86,-97.96 340.49,-88.01 351.79,-80.71"/>
<polygon fill="#63b8ff" stroke="#63b8ff" points="353.35,-83.85 360.18,-75.75 349.79,-77.82 353.35,-83.85"/>
</a>
</g>
</g>
<!-- Node9 -->
<g id="Node000009" class="node">
<title>Node9</title>
<g id="a_Node000009"><a xlink:href="_t_g_r_s_i_types_8h.html" target="_top" xlink:title=" ">
<polygon fill="white" stroke="#666666" points="275.5,-129.75 195.75,-129.75 195.75,-110.5 275.5,-110.5 275.5,-129.75"/>
<text text-anchor="middle" x="235.62" y="-116.25" font-family="Helvetica,sans-Serif" font-size="10.00">TGRSITypes.h</text>
</a>
</g>
</g>
<!-- Node6&#45;&gt;Node9 -->
<g id="edge8_Node000006_Node000009" class="edge">
<title>Node6&#45;&gt;Node9</title>
<g id="a_edge8_Node000006_Node000009"><a xlink:title=" ">
<path fill="none" stroke="#63b8ff" d="M324.47,-165.34C307.95,-157.12 283.28,-144.84 264.13,-135.31"/>
<polygon fill="#63b8ff" stroke="#63b8ff" points="265.73,-132.2 255.22,-130.88 262.61,-138.47 265.73,-132.2"/>
</a>
</g>
</g>
<!-- Node11 -->
<g id="Node000011" class="node">
<title>Node11</title>
<g id="a_Node000011"><a xlink:href="_t_analysis_options_8h.html" target="_top" xlink:title=" ">
<polygon fill="white" stroke="#666666" points="431.62,-129.75 331.62,-129.75 331.62,-110.5 431.62,-110.5 431.62,-129.75"/>
<text text-anchor="middle" x="381.62" y="-116.25" font-family="Helvetica,sans-Serif" font-size="10.00">TAnalysisOptions.h</text>
</a>
</g>
</g>
<!-- Node6&#45;&gt;Node11 -->
<g id="edge10_Node000006_Node000011" class="edge">
<title>Node6&#45;&gt;Node11</title>
<g id="a_edge10_Node000006_Node000011"><a xlink:title=" ">
<path fill="none" stroke="#63b8ff" d="M349.07,-165.58C354.28,-158.46 361.81,-148.18 368.32,-139.3"/>
<polygon fill="#63b8ff" stroke="#63b8ff" points="371.07,-141.47 374.15,-131.33 365.42,-137.33 371.07,-141.47"/>
</a>
</g>
</g>
<!-- Node12 -->
<g id="Node000012" class="node">
<title>Node12</title>
<g id="a_Node000012"><a xlink:href="_t_user_settings_8h.html" target="_top" xlink:title=" ">
<polygon fill="white" stroke="#666666" points="285.88,-74.5 199.38,-74.5 199.38,-55.25 285.88,-55.25 285.88,-74.5"/>
<text text-anchor="middle" x="242.62" y="-61" font-family="Helvetica,sans-Serif" font-size="10.00">TUserSettings.h</text>
</a>
</g>
</g>
<!-- Node6&#45;&gt;Node12 -->
<g id="edge13_Node000006_Node000012" class="edge">
<title>Node6&#45;&gt;Node12</title>
<g id="a_edge13_Node000006_Node000012"><a xlink:title=" ">
<path fill="none" stroke="#63b8ff" d="M298.6,-167.78C257.38,-160.6 200.15,-147.69 186.62,-129.75 173.33,-112.12 194.74,-93.27 214.8,-80.65"/>
<polygon fill="#63b8ff" stroke="#63b8ff" points="216.55,-83.69 223.38,-75.59 212.99,-77.66 216.55,-83.69"/>
</a>
</g>
</g>
<!-- Node10 -->
<g id="Node000010" class="node">
<title>Node10</title>
<g id="a_Node000010"><a xlink:title=" ">
<polygon fill="#e0e0e0" stroke="#999999" points="542.25,-19.25 497,-19.25 497,0 542.25,0 542.25,-19.25"/>
<text text-anchor="middle" x="519.62" y="-5.75" font-family="Helvetica,sans-Serif" font-size="10.00">cstdint</text>
</a>
</g>
</g>
<!-- Node9&#45;&gt;Node10 -->
<g id="edge9_Node000009_Node000010" class="edge">
<title>Node9&#45;&gt;Node10</title>
<g id="a_edge9_Node000009_Node000010"><a xlink:title=" ">
<path fill="none" stroke="#63b8ff" d="M249.09,-110.07C269.86,-96.45 311.33,-70.68 349.62,-55.25 405.2,-32.86 424.27,-35.15 485.5,-19.73"/>
<polygon fill="#63b8ff" stroke="#63b8ff" points="486.29,-23.14 495.09,-17.25 484.54,-16.36 486.29,-23.14"/>
</a>
</g>
</g>
<!-- Node11&#45;&gt;Node7 -->
<g id="edge11_Node000011_Node000007" class="edge">
<title>Node11&#45;&gt;Node7</title>
<g id="a_edge11_Node000011_Node000007"><a xlink:title=" ">
<path fill="none" stroke="#63b8ff" d="M396.55,-110.09C409.83,-102.06 429.49,-90.16 445.08,-80.73"/>
<polygon fill="#63b8ff" stroke="#63b8ff" points="446.59,-83.91 453.33,-75.74 442.96,-77.92 446.59,-83.91"/>
</a>
</g>
</g>
<!-- Node11&#45;&gt;Node8 -->
<g id="edge12_Node000011_Node000008" class="edge">
<title>Node11&#45;&gt;Node8</title>
<g id="a_edge12_Node000011_Node000008"><a xlink:title=" ">
<path fill="none" stroke="#63b8ff" d="M381.62,-110.33C381.62,-103.82 381.62,-94.67 381.62,-86.37"/>
<polygon fill="#63b8ff" stroke="#63b8ff" points="385.13,-86.37 381.63,-76.37 378.13,-86.37 385.13,-86.37"/>
</a>
</g>
</g>
<!-- Node12&#45;&gt;Node3 -->
<g id="edge14_Node000012_Node000003" class="edge">
<title>Node12&#45;&gt;Node3</title>
<g id="a_edge14_Node000012_Node000003"><a xlink:title=" ">
<path fill="none" stroke="#63b8ff" d="M251.21,-55.08C258.47,-47.65 269.08,-36.79 277.99,-27.66"/>
<polygon fill="#63b8ff" stroke="#63b8ff" points="280.31,-30.29 284.79,-20.69 275.3,-25.4 280.31,-30.29"/>
</a>
</g>
</g>
<!-- Node12&#45;&gt;Node4 -->
<g id="edge15_Node000012_Node000004" class="edge">
<title>Node12&#45;&gt;Node4</title>
<g id="a_edge15_Node000012_Node000004"><a xlink:title=" ">
<path fill="none" stroke="#63b8ff" d="M242.13,-55.08C241.76,-48.49 241.24,-39.21 240.76,-30.82"/>
<polygon fill="#63b8ff" stroke="#63b8ff" points="244.27,-30.91 240.22,-21.12 237.28,-31.3 244.27,-30.91"/>
</a>
</g>
</g>
<!-- Node13 -->
<g id="Node000013" class="node">
<title>Node13</title>
<g id="a_Node000013"><a xlink:title=" ">
<polygon fill="#e0e0e0" stroke="#999999" points="201.12,-19.25 158.12,-19.25 158.12,0 201.12,0 201.12,-19.25"/>
<text text-anchor="middle" x="179.62" y="-5.75" font-family="Helvetica,sans-Serif" font-size="10.00">vector</text>
</a>
</g>
</g>
<!-- Node12&#45;&gt;Node13 -->
<g id="edge16_Node000012_Node000013" class="edge">
<title>Node12&#45;&gt;Node13</title>
<g id="a_edge16_Node000012_Node000013"><a xlink:title=" ">
<path fill="none" stroke="#63b8ff" d="M231.94,-54.84C222.92,-47.22 209.79,-36.12 198.94,-26.95"/>
<polygon fill="#63b8ff" stroke="#63b8ff" points="201.21,-24.28 191.31,-20.5 196.69,-29.63 201.21,-24.28"/>
</a>
</g>
</g>
<!-- Node14 -->
<g id="Node000014" class="node">
<title>Node14</title>
<g id="a_Node000014"><a xlink:title=" ">
<polygon fill="#e0e0e0" stroke="#999999" points="478.62,-19.25 420.62,-19.25 420.62,0 478.62,0 478.62,-19.25"/>
<text text-anchor="middle" x="449.62" y="-5.75" font-family="Helvetica,sans-Serif" font-size="10.00">stdexcept</text>
</a>
</g>
</g>
<!-- Node12&#45;&gt;Node14 -->
<g id="edge17_Node000012_Node000014" class="edge">
<title>Node12&#45;&gt;Node14</title>
<g id="a_edge17_Node000012_Node000014"><a xlink:title=" ">
<path fill="none" stroke="#63b8ff" d="M277.74,-54.84C314.27,-45.44 371.39,-30.75 409.63,-20.91"/>
<polygon fill="#63b8ff" stroke="#63b8ff" points="410.09,-24.41 418.91,-18.53 408.35,-17.63 410.09,-24.41"/>
</a>
</g>
</g>
<!-- Node15 -->
<g id="Node000015" class="node">
<title>Node15</title>
<g id="a_Node000015"><a xlink:title=" ">
<polygon fill="#e0e0e0" stroke="#999999" points="613.38,-19.25 559.88,-19.25 559.88,0 613.38,0 613.38,-19.25"/>
<text text-anchor="middle" x="586.62" y="-5.75" font-family="Helvetica,sans-Serif" font-size="10.00">iostream</text>
</a>
</g>
</g>
<!-- Node12&#45;&gt;Node15 -->
<g id="edge18_Node000012_Node000015" class="edge">
<title>Node12&#45;&gt;Node15</title>
<g id="a_edge18_Node000012_Node000015"><a xlink:title=" ">
<path fill="none" stroke="#63b8ff" d="M286.35,-58.93C344.25,-52.09 449.75,-38.58 548.48,-19.72"/>
<polygon fill="#63b8ff" stroke="#63b8ff" points="548.91,-23.2 558.06,-17.86 547.58,-16.33 548.91,-23.2"/>
</a>
</g>
</g>
<!-- Node16 -->
<g id="Node000016" class="node">
<title>Node16</title>
<g id="a_Node000016"><a xlink:title=" ">
<polygon fill="#e0e0e0" stroke="#999999" points="140.12,-19.25 79.12,-19.25 79.12,0 140.12,0 140.12,-19.25"/>
<text text-anchor="middle" x="109.62" y="-5.75" font-family="Helvetica,sans-Serif" font-size="10.00">TNamed.h</text>
</a>
</g>
</g>
<!-- Node12&#45;&gt;Node16 -->
<g id="edge19_Node000012_Node000016" class="edge">
<title>Node12&#45;&gt;Node16</title>
<g id="a_edge19_Node000012_Node000016"><a xlink:title=" ">
<path fill="none" stroke="#63b8ff" d="M220.06,-54.84C198.85,-46.35 166.85,-33.54 142.75,-23.89"/>
<polygon fill="#63b8ff" stroke="#63b8ff" points="144.29,-20.73 133.7,-20.27 141.69,-27.23 144.29,-20.73"/>
</a>
</g>
</g>
<!-- Node17 -->
<g id="Node000017" class="node">
<title>Node17</title>
<g id="a_Node000017"><a xlink:title=" ">
<polygon fill="#e0e0e0" stroke="#999999" points="402.75,-19.25 330.5,-19.25 330.5,0 402.75,0 402.75,-19.25"/>
<text text-anchor="middle" x="366.62" y="-5.75" font-family="Helvetica,sans-Serif" font-size="10.00">TCollection.h</text>
</a>
</g>
</g>
<!-- Node12&#45;&gt;Node17 -->
<g id="edge20_Node000012_Node000017" class="edge">
<title>Node12&#45;&gt;Node17</title>
<g id="a_edge20_Node000012_Node000017"><a xlink:title=" ">
<path fill="none" stroke="#63b8ff" d="M263.66,-54.84C283.26,-46.43 312.73,-33.77 335.13,-24.15"/>
<polygon fill="#63b8ff" stroke="#63b8ff" points="336.29,-27.46 344.1,-20.3 333.53,-21.03 336.29,-27.46"/>
</a>
</g>
</g>
<!-- Node18&#45;&gt;Node3 -->
<g id="edge22_Node000018_Node000003" class="edge">
<title>Node18&#45;&gt;Node3</title>
<g id="a_edge22_Node000018_Node000003"><a xlink:title=" ">
<path fill="none" stroke="#63b8ff" d="M627.72,-165.25C613.65,-156.85 592.9,-143.62 576.62,-129.75 542.27,-100.48 547.07,-77.18 507.62,-55.25 437.12,-16.05 405.87,-38.05 323.4,-19.3"/>
<polygon fill="#63b8ff" stroke="#63b8ff" points="324.27,-15.91 313.73,-16.94 322.62,-22.71 324.27,-15.91"/>
</a>
</g>
</g>
<!-- Node18&#45;&gt;Node7 -->
<g id="edge26_Node000018_Node000007" class="edge">
<title>Node18&#45;&gt;Node7</title>
<g id="a_edge26_Node000018_Node000007"><a xlink:title=" ">
<path fill="none" stroke="#63b8ff" d="M617.91,-169.2C591.83,-163.04 551.2,-150.82 521.62,-129.75 504.55,-117.58 489.98,-98.4 480.64,-84.23"/>
<polygon fill="#63b8ff" stroke="#63b8ff" points="483.66,-82.45 475.37,-75.85 477.73,-86.18 483.66,-82.45"/>
</a>
</g>
</g>
<!-- Node18&#45;&gt;Node10 -->
<g id="edge25_Node000018_Node000010" class="edge">
<title>Node18&#45;&gt;Node10</title>
<g id="a_edge25_Node000018_Node000010"><a xlink:title=" ">
<path fill="none" stroke="#63b8ff" d="M646.83,-165.67C650.97,-152.95 656.74,-128.8 648.62,-110.5 630.16,-68.86 583.99,-40.12 552.2,-24.51"/>
<polygon fill="#63b8ff" stroke="#63b8ff" points="553.94,-21.46 543.41,-20.36 550.96,-27.79 553.94,-21.46"/>
</a>
</g>
</g>
<!-- Node18&#45;&gt;Node15 -->
<g id="edge24_Node000018_Node000015" class="edge">
<title>Node18&#45;&gt;Node15</title>
<g id="a_edge24_Node000018_Node000015"><a xlink:title=" ">
<path fill="none" stroke="#63b8ff" d="M655.31,-165.36C669.24,-153.43 689.7,-131.45 681.62,-110.5 667.62,-74.16 633.03,-43.66 609.68,-26.26"/>
<polygon fill="#63b8ff" stroke="#63b8ff" points="611.85,-23.51 601.69,-20.51 607.76,-29.19 611.85,-23.51"/>
</a>
</g>
</g>
<!-- Node18&#45;&gt;Node17 -->
<g id="edge27_Node000018_Node000017" class="edge">
<title>Node18&#45;&gt;Node17</title>
<g id="a_edge27_Node000018_Node000017"><a xlink:title=" ">
<path fill="none" stroke="#63b8ff" d="M631.27,-165.43C620.25,-157.05 604.13,-143.75 592.62,-129.75 568.36,-100.21 580.22,-78.18 549.62,-55.25 538.74,-47.09 464.68,-30.68 414.17,-20.2"/>
<polygon fill="#63b8ff" stroke="#63b8ff" points="415.14,-16.82 404.64,-18.23 413.73,-23.68 415.14,-16.82"/>
</a>
</g>
</g>
<!-- Node19 -->
<g id="Node000019" class="node">
<title>Node19</title>
<g id="a_Node000019"><a xlink:title=" ">
<polygon fill="#e0e0e0" stroke="#999999" points="639.88,-129.75 601.38,-129.75 601.38,-110.5 639.88,-110.5 639.88,-129.75"/>
<text text-anchor="middle" x="620.62" y="-116.25" font-family="Helvetica,sans-Serif" font-size="10.00">utility</text>
</a>
</g>
</g>
<!-- Node18&#45;&gt;Node19 -->
<g id="edge23_Node000018_Node000019" class="edge">
<title>Node18&#45;&gt;Node19</title>
<g id="a_edge23_Node000018_Node000019"><a xlink:title=" ">
<path fill="none" stroke="#63b8ff" d="M639.83,-165.58C636.88,-158.76 632.69,-149.06 628.97,-140.45"/>
<polygon fill="#63b8ff" stroke="#63b8ff" points="632.28,-139.29 625.11,-131.5 625.86,-142.07 632.28,-139.29"/>
</a>
</g>
</g>
<!-- Node20 -->
<g id="Node000020" class="node">
<title>Node20</title>
<g id="a_Node000020"><a xlink:href="_globals_8h.html" target="_top" xlink:title=" ">
<polygon fill="white" stroke="#666666" points="927.88,-74.5 871.38,-74.5 871.38,-55.25 927.88,-55.25 927.88,-74.5"/>
<text text-anchor="middle" x="899.62" y="-61" font-family="Helvetica,sans-Serif" font-size="10.00">Globals.h</text>
</a>
</g>
</g>
<!-- Node18&#45;&gt;Node20 -->
<g id="edge28_Node000018_Node000020" class="edge">
<title>Node18&#45;&gt;Node20</title>
<g id="a_edge28_Node000018_Node000020"><a xlink:title=" ">
<path fill="none" stroke="#63b8ff" d="M669.28,-170.68C703.33,-165.09 764.71,-152.64 812.62,-129.75 838.73,-117.28 864.99,-96.61 881.73,-82.18"/>
<polygon fill="#63b8ff" stroke="#63b8ff" points="883.67,-85.13 888.85,-75.89 879.04,-79.88 883.67,-85.13"/>
</a>
</g>
</g>
<!-- Node34 -->
<g id="Node000034" class="node">
<title>Node34</title>
<g id="a_Node000034"><a xlink:href="_t_singleton_8h.html" target="_top" xlink:title=" ">
<polygon fill="white" stroke="#666666" points="803.62,-129.75 733.62,-129.75 733.62,-110.5 803.62,-110.5 803.62,-129.75"/>
<text text-anchor="middle" x="768.62" y="-116.25" font-family="Helvetica,sans-Serif" font-size="10.00">TSingleton.h</text>
</a>
</g>
</g>
<!-- Node18&#45;&gt;Node34 -->
<g id="edge47_Node000018_Node000034" class="edge">
<title>Node18&#45;&gt;Node34</title>
<g id="a_edge47_Node000018_Node000034"><a xlink:title=" ">
<path fill="none" stroke="#63b8ff" d="M664.83,-165.34C684.58,-156.93 714.3,-144.27 736.88,-134.65"/>
<polygon fill="#63b8ff" stroke="#63b8ff" points="738.1,-137.93 745.92,-130.8 735.35,-131.49 738.1,-137.93"/>
</a>
</g>
</g>
<!-- Node20&#45;&gt;Node3 -->
<g id="edge42_Node000020_Node000003" class="edge">
<title>Node20&#45;&gt;Node3</title>
<g id="a_edge42_Node000020_Node000003"><a xlink:title=" ">
<path fill="none" stroke="#63b8ff" d="M871.16,-60.31C857.16,-58.63 840.02,-56.69 824.62,-55.25 605.17,-34.79 543.73,-60.76 323.76,-19.15"/>
<polygon fill="#63b8ff" stroke="#63b8ff" points="324.45,-15.72 313.97,-17.27 323.13,-22.59 324.45,-15.72"/>
</a>
</g>
</g>
<!-- Node20&#45;&gt;Node4 -->
<g id="edge32_Node000020_Node000004" class="edge">
<title>Node20&#45;&gt;Node4</title>
<g id="a_edge32_Node000020_Node000004"><a xlink:title=" ">
<path fill="none" stroke="#63b8ff" d="M871.17,-60.26C857.17,-58.57 840.03,-56.63 824.62,-55.25 581.72,-33.43 514.42,-61.93 271.41,-19.34"/>
<polygon fill="#63b8ff" stroke="#63b8ff" points="272.03,-15.9 261.57,-17.59 270.81,-22.79 272.03,-15.9"/>
</a>
</g>
</g>
<!-- Node20&#45;&gt;Node10 -->
<g id="edge34_Node000020_Node000010" class="edge">
<title>Node20&#45;&gt;Node10</title>
<g id="a_edge34_Node000020_Node000010"><a xlink:title=" ">
<path fill="none" stroke="#63b8ff" d="M870.98,-60.45C798.82,-51.8 611.65,-29.16 553.65,-19.43"/>
<polygon fill="#63b8ff" stroke="#63b8ff" points="554.51,-16.03 544.05,-17.67 553.26,-22.92 554.51,-16.03"/>
</a>
</g>
</g>
<!-- Node20&#45;&gt;Node14 -->
<g id="edge31_Node000020_Node000014" class="edge">
<title>Node20&#45;&gt;Node14</title>
<g id="a_edge31_Node000020_Node000014"><a xlink:title=" ">
<path fill="none" stroke="#63b8ff" d="M871.14,-60.54C857.13,-58.92 840,-56.95 824.62,-55.25 678.57,-39.05 638.17,-43.72 490.32,-19.52"/>
<polygon fill="#63b8ff" stroke="#63b8ff" points="490.95,-16.08 480.51,-17.9 489.8,-22.99 490.95,-16.08"/>
</a>
</g>
</g>
<!-- Node20&#45;&gt;Node15 -->
<g id="edge29_Node000020_Node000015" class="edge">
<title>Node20&#45;&gt;Node15</title>
<g id="a_edge29_Node000020_Node000015"><a xlink:title=" ">
<path fill="none" stroke="#63b8ff" d="M871.2,-57.83C866.66,-56.93 862.02,-56.04 857.62,-55.25 757.17,-37.25 728.27,-39.4 624.95,-19.56"/>
<polygon fill="#63b8ff" stroke="#63b8ff" points="625.67,-16.13 615.18,-17.66 624.33,-23 625.67,-16.13"/>
</a>
</g>
</g>
<!-- Node21 -->
<g id="Node000021" class="node">
<title>Node21</title>
<g id="a_Node000021"><a xlink:title=" ">
<polygon fill="#e0e0e0" stroke="#999999" points="1101.5,-19.25 1051.75,-19.25 1051.75,0 1101.5,0 1101.5,-19.25"/>
<text text-anchor="middle" x="1076.62" y="-5.75" font-family="Helvetica,sans-Serif" font-size="10.00">iomanip</text>
</a>
</g>
</g>
<!-- Node20&#45;&gt;Node21 -->
<g id="edge30_Node000020_Node000021" class="edge">
<title>Node20&#45;&gt;Node21</title>
<g id="a_edge30_Node000020_Node000021"><a xlink:title=" ">
<path fill="none" stroke="#63b8ff" d="M928.06,-55.32C958.7,-46.1 1007.53,-31.41 1040.78,-21.41"/>
<polygon fill="#63b8ff" stroke="#63b8ff" points="1041.39,-24.88 1049.96,-18.65 1039.38,-18.18 1041.39,-24.88"/>
</a>
</g>
</g>
<!-- Node22 -->
<g id="Node000022" class="node">
<title>Node22</title>
<g id="a_Node000022"><a xlink:title=" ">
<polygon fill="#e0e0e0" stroke="#999999" points="1377.75,-19.25 1335.5,-19.25 1335.5,0 1377.75,0 1377.75,-19.25"/>
<text text-anchor="middle" x="1356.62" y="-5.75" font-family="Helvetica,sans-Serif" font-size="10.00">cstdio</text>
</a>
</g>
</g>
<!-- Node20&#45;&gt;Node22 -->
<g id="edge33_Node000020_Node000022" class="edge">
<title>Node20&#45;&gt;Node22</title>
<g id="a_edge33_Node000020_Node000022"><a xlink:title=" ">
<path fill="none" stroke="#63b8ff" d="M928.23,-56.8C931.06,-56.22 933.89,-55.69 936.62,-55.25 1104.85,-28.01 1153.52,-50.45 1323.97,-19.41"/>
<polygon fill="#63b8ff" stroke="#63b8ff" points="1324.43,-22.88 1333.62,-17.61 1323.15,-16 1324.43,-22.88"/>
</a>
</g>
</g>
<!-- Node23 -->
<g id="Node000023" class="node">
<title>Node23</title>
<g id="a_Node000023"><a xlink:title=" ">
<polygon fill="#e0e0e0" stroke="#999999" points="1439.88,-19.25 1395.38,-19.25 1395.38,0 1439.88,0 1439.88,-19.25"/>
<text text-anchor="middle" x="1417.62" y="-5.75" font-family="Helvetica,sans-Serif" font-size="10.00">cstdlib</text>
</a>
</g>
</g>
<!-- Node20&#45;&gt;Node23 -->
<g id="edge35_Node000020_Node000023" class="edge">
<title>Node20&#45;&gt;Node23</title>
<g id="a_edge35_Node000020_Node000023"><a xlink:title=" ">
<path fill="none" stroke="#63b8ff" d="M928.23,-56.76C931.05,-56.19 933.89,-55.68 936.62,-55.25 1131.2,-24.96 1187.01,-53.21 1383.74,-19.43"/>
<polygon fill="#63b8ff" stroke="#63b8ff" points="1384.32,-22.88 1393.56,-17.71 1383.11,-15.98 1384.32,-22.88"/>
</a>
</g>
</g>
<!-- Node24 -->
<g id="Node000024" class="node">
<title>Node24</title>
<g id="a_Node000024"><a xlink:title=" ">
<polygon fill="#e0e0e0" stroke="#999999" points="1179.38,-19.25 1119.88,-19.25 1119.88,0 1179.38,0 1179.38,-19.25"/>
<text text-anchor="middle" x="1149.62" y="-5.75" font-family="Helvetica,sans-Serif" font-size="10.00">execinfo.h</text>
</a>
</g>
</g>
<!-- Node20&#45;&gt;Node24 -->
<g id="edge36_Node000020_Node000024" class="edge">
<title>Node20&#45;&gt;Node24</title>
<g id="a_edge36_Node000020_Node000024"><a xlink:title=" ">
<path fill="none" stroke="#63b8ff" d="M928.29,-57.12C931.11,-56.48 933.92,-55.85 936.62,-55.25 1010.29,-39.05 1031.52,-36.03 1108.2,-19.74"/>
<polygon fill="#63b8ff" stroke="#63b8ff" points="1108.87,-23.18 1117.92,-17.67 1107.41,-16.33 1108.87,-23.18"/>
</a>
</g>
</g>
<!-- Node25 -->
<g id="Node000025" class="node">
<title>Node25</title>
<g id="a_Node000025"><a xlink:title=" ">
<polygon fill="#e0e0e0" stroke="#999999" points="1247.88,-19.25 1197.38,-19.25 1197.38,0 1247.88,0 1247.88,-19.25"/>
<text text-anchor="middle" x="1222.62" y="-5.75" font-family="Helvetica,sans-Serif" font-size="10.00">cxxabi.h</text>
</a>
</g>
</g>
<!-- Node20&#45;&gt;Node25 -->
<g id="edge37_Node000020_Node000025" class="edge">
<title>Node20&#45;&gt;Node25</title>
<g id="a_edge37_Node000020_Node000025"><a xlink:title=" ">
<path fill="none" stroke="#63b8ff" d="M928.26,-56.94C931.08,-56.34 933.9,-55.76 936.62,-55.25 1044.24,-35.06 1075.63,-40.78 1185.8,-19.62"/>
<polygon fill="#63b8ff" stroke="#63b8ff" points="1186.44,-23.06 1195.59,-17.71 1185.1,-16.19 1186.44,-23.06"/>
</a>
</g>
</g>
<!-- Node26 -->
<g id="Node000026" class="node">
<title>Node26</title>
<g id="a_Node000026"><a xlink:title=" ">
<polygon fill="#e0e0e0" stroke="#999999" points="1317.25,-19.25 1266,-19.25 1266,0 1317.25,0 1317.25,-19.25"/>
<text text-anchor="middle" x="1291.62" y="-5.75" font-family="Helvetica,sans-Serif" font-size="10.00">sstream</text>
</a>
</g>
</g>
<!-- Node20&#45;&gt;Node26 -->
<g id="edge38_Node000020_Node000026" class="edge">
<title>Node20&#45;&gt;Node26</title>
<g id="a_edge38_Node000020_Node000026"><a xlink:title=" ">
<path fill="none" stroke="#63b8ff" d="M928.24,-56.86C931.06,-56.27 933.89,-55.72 936.62,-55.25 1074.09,-31.58 1113.74,-43.77 1254.5,-19.39"/>
<polygon fill="#63b8ff" stroke="#63b8ff" points="1254.98,-22.86 1264.22,-17.67 1253.76,-15.96 1254.98,-22.86"/>
</a>
</g>
</g>
<!-- Node27 -->
<g id="Node000027" class="node">
<title>Node27</title>
<g id="a_Node000027"><a xlink:title=" ">
<polygon fill="#e0e0e0" stroke="#999999" points="668.12,-19.25 631.12,-19.25 631.12,0 668.12,0 668.12,-19.25"/>
<text text-anchor="middle" x="649.62" y="-5.75" font-family="Helvetica,sans-Serif" font-size="10.00">array</text>
</a>
</g>
</g>
<!-- Node20&#45;&gt;Node27 -->
<g id="edge39_Node000020_Node000027" class="edge">
<title>Node20&#45;&gt;Node27</title>
<g id="a_edge39_Node000020_Node000027"><a xlink:title=" ">
<path fill="none" stroke="#63b8ff" d="M871.16,-58.01C866.63,-57.08 862,-56.14 857.62,-55.25 781.1,-39.74 758.62,-39.29 679.53,-19.52"/>
<polygon fill="#63b8ff" stroke="#63b8ff" points="680.55,-16.16 670,-17.1 678.83,-22.95 680.55,-16.16"/>
</a>
</g>
</g>
<!-- Node28 -->
<g id="Node000028" class="node">
<title>Node28</title>
<g id="a_Node000028"><a xlink:title=" ">
<polygon fill="#e0e0e0" stroke="#999999" points="736.88,-19.25 686.38,-19.25 686.38,0 736.88,0 736.88,-19.25"/>
<text text-anchor="middle" x="711.62" y="-5.75" font-family="Helvetica,sans-Serif" font-size="10.00">memory</text>
</a>
</g>
</g>
<!-- Node20&#45;&gt;Node28 -->
<g id="edge40_Node000020_Node000028" class="edge">
<title>Node20&#45;&gt;Node28</title>
<g id="a_edge40_Node000020_Node000028"><a xlink:title=" ">
<path fill="none" stroke="#63b8ff" d="M871.07,-55.79C838.17,-46.47 784.02,-31.13 748.1,-20.96"/>
<polygon fill="#63b8ff" stroke="#63b8ff" points="749.15,-17.62 738.58,-18.26 747.25,-24.35 749.15,-17.62"/>
</a>
</g>
</g>
<!-- Node29 -->
<g id="Node000029" class="node">
<title>Node29</title>
<g id="a_Node000029"><a xlink:title=" ">
<polygon fill="#e0e0e0" stroke="#999999" points="1507.5,-19.25 1457.75,-19.25 1457.75,0 1507.5,0 1507.5,-19.25"/>
<text text-anchor="middle" x="1482.62" y="-5.75" font-family="Helvetica,sans-Serif" font-size="10.00">unistd.h</text>
</a>
</g>
</g>
<!-- Node20&#45;&gt;Node29 -->
<g id="edge41_Node000020_Node000029" class="edge">
<title>Node20&#45;&gt;Node29</title>
<g id="a_edge41_Node000020_Node000029"><a xlink:title=" ">
<path fill="none" stroke="#63b8ff" d="M928.22,-56.74C931.05,-56.17 933.89,-55.66 936.62,-55.25 1158.56,-21.8 1221.38,-54.36 1446.3,-19.31"/>
<polygon fill="#63b8ff" stroke="#63b8ff" points="1446.66,-22.8 1455.98,-17.77 1445.56,-15.89 1446.66,-22.8"/>
</a>
</g>
</g>
<!-- Node30 -->
<g id="Node000030" class="node">
<title>Node30</title>
<g id="a_Node000030"><a xlink:title=" ">
<polygon fill="#e0e0e0" stroke="#999999" points="804.12,-19.25 755.12,-19.25 755.12,0 804.12,0 804.12,-19.25"/>
<text text-anchor="middle" x="779.62" y="-5.75" font-family="Helvetica,sans-Serif" font-size="10.00">fstream</text>
</a>
</g>
</g>
<!-- Node20&#45;&gt;Node30 -->
<g id="edge43_Node000020_Node000030" class="edge">
<title>Node20&#45;&gt;Node30</title>
<g id="a_edge43_Node000020_Node000030"><a xlink:title=" ">
<path fill="none" stroke="#63b8ff" d="M879.27,-54.84C860.39,-46.47 832.04,-33.88 810.4,-24.28"/>
<polygon fill="#63b8ff" stroke="#63b8ff" points="812.02,-21.17 801.46,-20.32 809.19,-27.57 812.02,-21.17"/>
</a>
</g>
</g>
<!-- Node31 -->
<g id="Node000031" class="node">
<title>Node31</title>
<g id="a_Node000031"><a xlink:title=" ">
<polygon fill="#e0e0e0" stroke="#999999" points="877.5,-19.25 821.75,-19.25 821.75,0 877.5,0 877.5,-19.25"/>
<text text-anchor="middle" x="849.62" y="-5.75" font-family="Helvetica,sans-Serif" font-size="10.00">algorithm</text>
</a>
</g>
</g>
<!-- Node20&#45;&gt;Node31 -->
<g id="edge44_Node000020_Node000031" class="edge">
<title>Node20&#45;&gt;Node31</title>
<g id="a_edge44_Node000020_Node000031"><a xlink:title=" ">
<path fill="none" stroke="#63b8ff" d="M891.37,-55.08C884.46,-47.73 874.4,-37.01 865.89,-27.94"/>
<polygon fill="#63b8ff" stroke="#63b8ff" points="868.49,-25.61 859.1,-20.71 863.39,-30.4 868.49,-25.61"/>
</a>
</g>
</g>
<!-- Node32 -->
<g id="Node000032" class="node">
<title>Node32</title>
<g id="a_Node000032"><a xlink:title=" ">
<polygon fill="#e0e0e0" stroke="#999999" points="955.38,-19.25 895.88,-19.25 895.88,0 955.38,0 955.38,-19.25"/>
<text text-anchor="middle" x="925.62" y="-5.75" font-family="Helvetica,sans-Serif" font-size="10.00">sys/wait.h</text>
</a>
</g>
</g>
<!-- Node20&#45;&gt;Node32 -->
<g id="edge45_Node000020_Node000032" class="edge">
<title>Node20&#45;&gt;Node32</title>
<g id="a_edge45_Node000020_Node000032"><a xlink:title=" ">
<path fill="none" stroke="#63b8ff" d="M903.92,-55.08C907.25,-48.26 911.99,-38.56 916.19,-29.95"/>
<polygon fill="#63b8ff" stroke="#63b8ff" points="919.33,-31.49 920.57,-20.97 913.04,-28.42 919.33,-31.49"/>
</a>
</g>
</g>
<!-- Node33 -->
<g id="Node000033" class="node">
<title>Node33</title>
<g id="a_Node000033"><a xlink:title=" ">
<polygon fill="#e0e0e0" stroke="#999999" points="1033.75,-19.25 973.5,-19.25 973.5,0 1033.75,0 1033.75,-19.25"/>
<text text-anchor="middle" x="1003.62" y="-5.75" font-family="Helvetica,sans-Serif" font-size="10.00">sys/prctl.h</text>
</a>
</g>
</g>
<!-- Node20&#45;&gt;Node33 -->
<g id="edge46_Node000020_Node000033" class="edge">
<title>Node20&#45;&gt;Node33</title>
<g id="a_edge46_Node000020_Node000033"><a xlink:title=" ">
<path fill="none" stroke="#63b8ff" d="M917.27,-54.84C933.25,-46.66 957.08,-34.46 975.66,-24.94"/>
<polygon fill="#63b8ff" stroke="#63b8ff" points="977.24,-28.07 984.55,-20.39 974.05,-21.83 977.24,-28.07"/>
</a>
</g>
</g>
<!-- Node34&#45;&gt;Node5 -->
<g id="edge52_Node000034_Node000005" class="edge">
<title>Node34&#45;&gt;Node5</title>
<g id="a_edge52_Node000034_Node000005"><a xlink:title=" ">
<path fill="none" stroke="#63b8ff" d="M803.06,-110.02C834.77,-101.62 883.41,-88.72 934.32,-75.11"/>
<polygon fill="#63b8ff" stroke="#63b8ff" points="934.99,-78.55 943.75,-72.59 933.18,-71.79 934.99,-78.55"/>
</a>
</g>
</g>
<!-- Node34&#45;&gt;Node7 -->
<g id="edge49_Node000034_Node000007" class="edge">
<title>Node34&#45;&gt;Node7</title>
<g id="a_edge49_Node000034_Node000007"><a xlink:title=" ">
<path fill="none" stroke="#63b8ff" d="M733.15,-112.81C677.17,-102.84 568.68,-83.52 509.87,-73.04"/>
<polygon fill="#63b8ff" stroke="#63b8ff" points="510.75,-69.64 500.29,-71.34 509.52,-76.54 510.75,-69.64"/>
</a>
</g>
</g>
<!-- Node34&#45;&gt;Node8 -->
<g id="edge51_Node000034_Node000008" class="edge">
<title>Node34&#45;&gt;Node8</title>
<g id="a_edge51_Node000034_Node000008"><a xlink:title=" ">
<path fill="none" stroke="#63b8ff" d="M733.14,-114.89C671.64,-107.45 541.31,-91.22 431.62,-74.5 426.54,-73.73 421.17,-72.85 415.92,-71.97"/>
<polygon fill="#63b8ff" stroke="#63b8ff" points="416.68,-68.55 406.24,-70.31 415.5,-75.45 416.68,-68.55"/>
</a>
</g>
</g>
<!-- Node34&#45;&gt;Node15 -->
<g id="edge48_Node000034_Node000015" class="edge">
<title>Node34&#45;&gt;Node15</title>
<g id="a_edge48_Node000034_Node000015"><a xlink:title=" ">
<path fill="none" stroke="#63b8ff" d="M786.5,-110.14C808.57,-97.88 841.29,-75.15 824.62,-55.25 797.24,-22.55 683.36,-27.68 624.95,-19.25"/>
<polygon fill="#63b8ff" stroke="#63b8ff" points="625.66,-15.82 615.2,-17.55 624.46,-22.71 625.66,-15.82"/>
</a>
</g>
</g>
<!-- Node34&#45;&gt;Node20 -->
<g id="edge54_Node000034_Node000020" class="edge">
<title>Node34&#45;&gt;Node20</title>
<g id="a_edge54_Node000034_Node000020"><a xlink:title=" ">
<path fill="none" stroke="#63b8ff" d="M790.85,-110.09C811.64,-101.64 842.97,-88.9 866.68,-79.27"/>
<polygon fill="#63b8ff" stroke="#63b8ff" points="867.95,-82.53 875.89,-75.52 865.31,-76.05 867.95,-82.53"/>
</a>
</g>
</g>
<!-- Node35 -->
<g id="Node000035" class="node">
<title>Node35</title>
<g id="a_Node000035"><a xlink:title=" ">
<polygon fill="#e0e0e0" stroke="#999999" points="751.5,-74.5 683.75,-74.5 683.75,-55.25 751.5,-55.25 751.5,-74.5"/>
<text text-anchor="middle" x="717.62" y="-61" font-family="Helvetica,sans-Serif" font-size="10.00">TDirectory.h</text>
</a>
</g>
</g>
<!-- Node34&#45;&gt;Node35 -->
<g id="edge50_Node000034_Node000035" class="edge">
<title>Node34&#45;&gt;Node35</title>
<g id="a_edge50_Node000034_Node000035"><a xlink:title=" ">
<path fill="none" stroke="#63b8ff" d="M760.2,-110.33C753.09,-102.9 742.68,-92.04 733.94,-82.91"/>
<polygon fill="#63b8ff" stroke="#63b8ff" points="736.72,-80.75 727.28,-75.95 731.67,-85.6 736.72,-80.75"/>
</a>
</g>
</g>
<!-- Node36 -->
<g id="Node000036" class="node">
<title>Node36</title>
<g id="a_Node000036"><a xlink:title=" ">
<polygon fill="#e0e0e0" stroke="#999999" points="815.62,-74.5 769.62,-74.5 769.62,-55.25 815.62,-55.25 815.62,-74.5"/>
<text text-anchor="middle" x="792.62" y="-61" font-family="Helvetica,sans-Serif" font-size="10.00">TKey.h</text>
</a>
</g>
</g>
<!-- Node34&#45;&gt;Node36 -->
<g id="edge53_Node000034_Node000036" class="edge">
<title>Node34&#45;&gt;Node36</title>
<g id="a_edge53_Node000034_Node000036"><a xlink:title=" ">
<path fill="none" stroke="#63b8ff" d="M772.59,-110.33C775.66,-103.51 780.04,-93.81 783.91,-85.2"/>
<polygon fill="#63b8ff" stroke="#63b8ff" points="787.04,-86.79 787.95,-76.24 780.65,-83.92 787.04,-86.79"/>
</a>
</g>
</g>
<!-- Node37&#45;&gt;Node22 -->
<g id="edge56_Node000037_Node000022" class="edge">
<title>Node37&#45;&gt;Node22</title>
<g id="a_edge56_Node000037_Node000022"><a xlink:title=" ">
<path fill="none" stroke="#63b8ff" d="M1407.28,-54.84C1398.55,-47.22 1385.84,-36.12 1375.33,-26.95"/>
<polygon fill="#63b8ff" stroke="#63b8ff" points="1377.8,-24.46 1367.96,-20.52 1373.19,-29.73 1377.8,-24.46"/>
</a>
</g>
</g>
<!-- Node37&#45;&gt;Node23 -->
<g id="edge57_Node000037_Node000023" class="edge">
<title>Node37&#45;&gt;Node23</title>
<g id="a_edge57_Node000037_Node000023"><a xlink:title=" ">
<path fill="none" stroke="#63b8ff" d="M1417.62,-55.08C1417.62,-48.57 1417.62,-39.42 1417.62,-31.12"/>
<polygon fill="#63b8ff" stroke="#63b8ff" points="1421.13,-31.12 1417.63,-21.12 1414.13,-31.12 1421.13,-31.12"/>
</a>
</g>
</g>
<!-- Node37&#45;&gt;Node29 -->
<g id="edge59_Node000037_Node000029" class="edge">
<title>Node37&#45;&gt;Node29</title>
<g id="a_edge59_Node000037_Node000029"><a xlink:title=" ">
<path fill="none" stroke="#63b8ff" d="M1428.65,-54.84C1438.05,-47.15 1451.77,-35.9 1463.03,-26.68"/>
<polygon fill="#63b8ff" stroke="#63b8ff" points="1465.07,-29.53 1470.59,-20.48 1460.64,-24.11 1465.07,-29.53"/>
</a>
</g>
</g>
<!-- Node38 -->
<g id="Node000038" class="node">
<title>Node38</title>
<g id="a_Node000038"><a xlink:title=" ">
<polygon fill="#e0e0e0" stroke="#999999" points="1567.75,-19.25 1525.5,-19.25 1525.5,0 1567.75,0 1567.75,-19.25"/>
<text text-anchor="middle" x="1546.62" y="-5.75" font-family="Helvetica,sans-Serif" font-size="10.00">fcntl.h</text>
</a>
</g>
</g>
<!-- Node37&#45;&gt;Node38 -->
<g id="edge58_Node000037_Node000038" class="edge">
<title>Node37&#45;&gt;Node38</title>
<g id="a_edge58_Node000037_Node000038"><a xlink:title=" ">
<path fill="none" stroke="#63b8ff" d="M1439.51,-54.84C1460.11,-46.34 1491.21,-33.5 1514.6,-23.84"/>
<polygon fill="#63b8ff" stroke="#63b8ff" points="1515.76,-27.15 1523.67,-20.1 1513.09,-20.68 1515.76,-27.15"/>
</a>
</g>
</g>
</g>
</svg>

<g id="navigator" transform="translate(0 0)" fill="#404254">
  <rect fill="#f2f5e9" fill-opacity="0.5" stroke="#606060" stroke-width=".5" x="0" y="0" width="60" height="60"/>
  <use id="zoomplus" xlink:href="#zoomPlus" x="17" y="9" onmousedown="handleZoom(evt,'in')"/>
  <use id="zoomminus" xlink:href="#zoomMin" x="42" y="9" onmousedown="handleZoom(evt,'out')"/>
  <use id="reset" xlink:href="#resetDef" x="30" y="36" onmousedown="handleReset()"/>
   <use id="arrowup" xlink:href="#arrowUp" x="0" y="0" onmousedown="handlePan(0,-1)"/>
  <use id="arrowright" xlink:href="#arrowRight" x="0" y="0" onmousedown="handlePan(1,0)"/>
  <use id="arrowdown" xlink:href="#arrowDown" x="0" y="0" onmousedown="handlePan(0,1)"/>
  <use id="arrowleft" xlink:href="#arrowLeft" x="0" y="0" onmousedown="handlePan(-1,0)"/>
</g>
<svg viewBox="0 0 15 15" width="100%" height="30px" preserveAspectRatio="xMaxYMin meet">
 <g id="arrow_out" transform="scale(0.3 0.3)">
  <a xlink:href="_t_g_r_s_i_frame_8h__incl_org.svg" target="_base">
   <rect id="button" ry="5" rx="5" y="6" x="6" height="38" width="38"
        fill="#f2f5e9" fill-opacity="0.5" stroke="#606060" stroke-width="1.0"/>
   <path id="arrow"
     d="M 11.500037,31.436501 C 11.940474,20.09759 22.043105,11.32322 32.158766,21.979434 L 37.068811,17.246167 C 37.068811,17.246167 37.088388,32 37.088388,32 L 22.160133,31.978069 C 22.160133,31.978069 26.997745,27.140456 26.997745,27.140456 C 18.528582,18.264221 13.291696,25.230495 11.500037,31.436501 z"
     style="fill:#404040;"/>
  </a>
 </g>
</svg>

<style type='text/css'>
<![CDATA[
[data-mouse-over-selected='false'] { opacity: 0.7; }
[data-mouse-over-selected='true']  { opacity: 1.0; }
]]>
</style>
<script type="application/ecmascript"><![CDATA[
document.addEventListener('DOMContentLoaded', (event) => {
  highlightEdges();
  highlightAdjacentNodes();
});
]]></script>
</svg>
