<?xml version="1.0" encoding="UTF-8" standalone="no"?>
<!DOCTYPE svg PUBLIC "-//W3C//DTD SVG 1.1//EN"
 "http://www.w3.org/Graphics/SVG/1.1/DTD/svg11.dtd">
<!-- Generated by graphviz version 9.0.0 (20230911.1827)
 -->
<!-- Title: TGenericDetector.h Pages: 1 -->
<svg width="242pt" height="83pt"
 viewBox="0.00 0.00 242.25 82.50" xmlns="http://www.w3.org/2000/svg" xmlns:xlink="http://www.w3.org/1999/xlink">
<g id="graph0" class="graph" transform="scale(1 1) rotate(0) translate(4 78.5)">
<title>TGenericDetector.h</title>
<!-- Node1 -->
<g id="Node000001" class="node">
<title>Node1</title>
<g id="a_Node000001"><a xlink:title=" ">
<polygon fill="#999999" stroke="#666666" points="166.75,-74.5 66.75,-74.5 66.75,-55.25 166.75,-55.25 166.75,-74.5"/>
<text text-anchor="middle" x="116.75" y="-61" font-family="Helvetica,sans-Serif" font-size="10.00">TGenericDetector.h</text>
</a>
</g>
</g>
<!-- Node2 -->
<g id="Node000002" class="node">
<title>Node2</title>
<g id="a_Node000002"><a xlink:href="_t_g_r_s_i_mnemonic_8cxx.html" target="_top" xlink:title=" ">
<polygon fill="white" stroke="#666666" points="107.5,-19.25 0,-19.25 0,0 107.5,0 107.5,-19.25"/>
<text text-anchor="middle" x="53.75" y="-5.75" font-family="Helvetica,sans-Serif" font-size="10.00">TGRSIMnemonic.cxx</text>
</a>
</g>
</g>
<!-- Node1&#45;&gt;Node2 -->
<g id="edge1_Node000001_Node000002" class="edge">
<title>Node1&#45;&gt;Node2</title>
<g id="a_edge1_Node000001_Node000002"><a xlink:title=" ">
<path fill="none" stroke="#63b8ff" d="M97.57,-47.66C86.63,-38.42 73.34,-27.18 64.28,-19.52"/>
<polygon fill="#63b8ff" stroke="#63b8ff" points="95.01,-50.08 104.91,-53.86 99.53,-44.74 95.01,-50.08"/>
</a>
</g>
</g>
<!-- Node3 -->
<g id="Node000003" class="node">
<title>Node3</title>
<g id="a_Node000003"><a xlink:href="_t_generic_detector_8cxx.html" target="_top" xlink:title=" ">
<polygon fill="white" stroke="#666666" points="234.25,-19.25 125.25,-19.25 125.25,0 234.25,0 234.25,-19.25"/>
<text text-anchor="middle" x="179.75" y="-5.75" font-family="Helvetica,sans-Serif" font-size="10.00">TGenericDetector.cxx</text>
</a>
</g>
</g>
<!-- Node1&#45;&gt;Node3 -->
<g id="edge2_Node000001_Node000003" class="edge">
<title>Node1&#45;&gt;Node3</title>
<g id="a_edge2_Node000001_Node000003"><a xlink:title=" ">
<path fill="none" stroke="#63b8ff" d="M135.93,-47.66C146.87,-38.42 160.16,-27.18 169.22,-19.52"/>
<polygon fill="#63b8ff" stroke="#63b8ff" points="133.97,-44.74 128.59,-53.86 138.49,-50.08 133.97,-44.74"/>
</a>
</g>
</g>
</g>
</svg>
