<?xml version="1.0" encoding="UTF-8" standalone="no"?>
<!DOCTYPE svg PUBLIC "-//W3C//DTD SVG 1.1//EN"
 "http://www.w3.org/Graphics/SVG/1.1/DTD/svg11.dtd">
<!-- Generated by graphviz version 12.2.0 (20241103.1931)
 -->
<!-- Title: TGRSIMap.h Pages: 1 -->
<!--zoomable 193 -->

<svg id="main" version="1.1" xmlns="http://www.w3.org/2000/svg" xmlns:xlink="http://www.w3.org/1999/xlink" xml:space="preserve" onload="init(evt)">

<style type="text/css"><![CDATA[
.node, .edge {opacity: 0.7;}
.node.selected, .edge.selected {opacity: 1;}
.edge:hover path { stroke: red; }
.edge:hover polygon { stroke: red; fill: red; }
]]></style>

<defs>
  <circle id="rim" cx="0" cy="0" r="7"/>
  <circle id="rim2" cx="0" cy="0" r="3.5"/>
  <g id="zoomPlus">
    <use xlink:href="#rim" fill="#404040"><set attributeName="fill" to="#808080" begin="zoomplus.mouseover" end="zoomplus.mouseout"/></use>
    <path d="M-4,0h8M0,-4v8" fill="none" stroke="white" stroke-width="1.5" pointer-events="none"/>
  </g>
  <g id="zoomMin">
    <use xlink:href="#rim" fill="#404040"><set attributeName="fill" to="#808080" begin="zoomminus.mouseover" end="zoomminus.mouseout"/></use>
    <path d="M-4,0h8" fill="none" stroke="white" stroke-width="1.5" pointer-events="none"/>
  </g>
  <g id="arrowUp" transform="translate(30 24)">
    <use xlink:href="#rim"/>
    <path pointer-events="none" fill="none" stroke="white" stroke-width="1.5" d="M0,-3.0v7 M-2.5,-0.5L0,-3.0L2.5,-0.5"/>
  </g>
  <g id="arrowRight" transform="rotate(90) translate(36 -43)">
    <use xlink:href="#rim"/>
    <path pointer-events="none" fill="none" stroke="white" stroke-width="1.5" d="M0,-3.0v7 M-2.5,-0.5L0,-3.0L2.5,-0.5"/>
  </g>
  <g id="arrowDown" transform="rotate(180) translate(-30 -48)">
    <use xlink:href="#rim"/>
    <path pointer-events="none" fill="none" stroke="white" stroke-width="1.5" d="M0,-3.0v7 M-2.5,-0.5L0,-3.0L2.5,-0.5"/>
  </g>
  <g id="arrowLeft" transform="rotate(270) translate(-36 17)">
    <use xlink:href="#rim"/>
    <path pointer-events="none" fill="none" stroke="white" stroke-width="1.5" d="M0,-3.0v7 M-2.5,-0.5L0,-3.0L2.5,-0.5"/>
  </g>
  <g id="resetDef">
    <use xlink:href="#rim2" fill="#404040"><set attributeName="fill" to="#808080" begin="reset.mouseover" end="reset.mouseout"/></use>
  </g>
</defs>
<script type="application/ecmascript">
var viewWidth = 3074;
var viewHeight = 193;
var sectionId = 'dynsection-1';
</script>
<script type="application/ecmascript" xlink:href="svg.min.js"/>
<svg id="graph" class="graph">
<g id="viewport">
<title>TGRSIMap.h</title>
<!-- Node1 -->
<g id="Node000001" class="node">
<title>Node1</title>
<g id="a_Node000001"><a xlink:title=" ">
<polygon fill="#999999" stroke="#666666" points="2383.25,-185 2311,-185 2311,-165.75 2383.25,-165.75 2383.25,-185"/>
<text text-anchor="middle" x="2347.12" y="-171.5" font-family="Helvetica,sans-Serif" font-size="10.00">TGRSIMap.h</text>
</a>
</g>
</g>
<!-- Node2 -->
<g id="Node000002" class="node">
<title>Node2</title>
<g id="a_Node000002"><a xlink:href="_t_g_r_s_i_helper_8h.html" target="_top" xlink:title=" ">
<polygon fill="white" stroke="#666666" points="998.12,-129.75 916.12,-129.75 916.12,-110.5 998.12,-110.5 998.12,-129.75"/>
<text text-anchor="middle" x="957.12" y="-116.25" font-family="Helvetica,sans-Serif" font-size="10.00">TGRSIHelper.h</text>
</a>
</g>
</g>
<!-- Node1&#45;&gt;Node2 -->
<g id="edge1_Node000001_Node000002" class="edge">
<title>Node1&#45;&gt;Node2</title>
<g id="a_edge1_Node000001_Node000002"><a xlink:title=" ">
<path fill="none" stroke="#63b8ff" d="M2299.44,-172.55C2083.68,-164.28 1200.65,-130.45 998.49,-122.71"/>
<polygon fill="#63b8ff" stroke="#63b8ff" points="2299.02,-176.03 2309.15,-172.92 2299.29,-169.04 2299.02,-176.03"/>
</a>
</g>
</g>
<!-- Node29 -->
<g id="Node000029" class="node">
<title>Node29</title>
<g id="a_Node000029"><a xlink:href="_t_g_r_s_i_selector_8h.html" target="_top" xlink:title=" ">
<polygon fill="white" stroke="#666666" points="2391.88,-129.75 2302.38,-129.75 2302.38,-110.5 2391.88,-110.5 2391.88,-129.75"/>
<text text-anchor="middle" x="2347.12" y="-116.25" font-family="Helvetica,sans-Serif" font-size="10.00">TGRSISelector.h</text>
</a>
</g>
</g>
<!-- Node1&#45;&gt;Node29 -->
<g id="edge28_Node000001_Node000029" class="edge">
<title>Node1&#45;&gt;Node29</title>
<g id="a_edge28_Node000001_Node000029"><a xlink:title=" ">
<path fill="none" stroke="#63b8ff" d="M2347.12,-154.13C2347.12,-145.84 2347.12,-136.67 2347.12,-130.11"/>
<polygon fill="#63b8ff" stroke="#63b8ff" points="2343.63,-154.07 2347.13,-164.07 2350.63,-154.07 2343.63,-154.07"/>
</a>
</g>
</g>
<!-- Node49 -->
<g id="Node000049" class="node">
<title>Node49</title>
<g id="a_Node000049"><a xlink:href="grsiproof_8cxx.html" target="_top" xlink:title=" ">
<polygon fill="white" stroke="#666666" points="2480.12,-129.75 2410.12,-129.75 2410.12,-110.5 2480.12,-110.5 2480.12,-129.75"/>
<text text-anchor="middle" x="2445.12" y="-116.25" font-family="Helvetica,sans-Serif" font-size="10.00">grsiproof.cxx</text>
</a>
</g>
</g>
<!-- Node1&#45;&gt;Node49 -->
<g id="edge48_Node000001_Node000049" class="edge">
<title>Node1&#45;&gt;Node49</title>
<g id="a_edge48_Node000001_Node000049"><a xlink:title=" ">
<path fill="none" stroke="#63b8ff" d="M2373.38,-160.11C2390.87,-150.61 2413.33,-138.4 2428.42,-130.2"/>
<polygon fill="#63b8ff" stroke="#63b8ff" points="2372.19,-156.77 2365.08,-164.62 2375.54,-162.92 2372.19,-156.77"/>
</a>
</g>
</g>
<!-- Node3 -->
<g id="Node000003" class="node">
<title>Node3</title>
<g id="a_Node000003"><a xlink:href="_alphanumeric_helper_8hh.html" target="_top" xlink:title=" ">
<polygon fill="white" stroke="#666666" points="122.38,-74.5 5.88,-74.5 5.88,-55.25 122.38,-55.25 122.38,-74.5"/>
<text text-anchor="middle" x="64.12" y="-61" font-family="Helvetica,sans-Serif" font-size="10.00">AlphanumericHelper.hh</text>
</a>
</g>
</g>
<!-- Node2&#45;&gt;Node3 -->
<g id="edge2_Node000002_Node000003" class="edge">
<title>Node2&#45;&gt;Node3</title>
<g id="a_edge2_Node000002_Node000003"><a xlink:title=" ">
<path fill="none" stroke="#63b8ff" d="M904.68,-117.56C774.11,-113.4 424.01,-100.52 133.12,-74.5 129.76,-74.2 126.3,-73.86 122.82,-73.5"/>
<polygon fill="#63b8ff" stroke="#63b8ff" points="904.28,-121.05 914.38,-117.87 904.5,-114.06 904.28,-121.05"/>
</a>
</g>
</g>
<!-- Node5 -->
<g id="Node000005" class="node">
<title>Node5</title>
<g id="a_Node000005"><a xlink:href="_angular_correlation_helper_8hh.html" target="_top" xlink:title=" ">
<polygon fill="white" stroke="#666666" points="278.5,-74.5 141.75,-74.5 141.75,-55.25 278.5,-55.25 278.5,-74.5"/>
<text text-anchor="middle" x="210.12" y="-61" font-family="Helvetica,sans-Serif" font-size="10.00">AngularCorrelationHelper.hh</text>
</a>
</g>
</g>
<!-- Node2&#45;&gt;Node5 -->
<g id="edge4_Node000002_Node000005" class="edge">
<title>Node2&#45;&gt;Node5</title>
<g id="a_edge4_Node000002_Node000005"><a xlink:title=" ">
<path fill="none" stroke="#63b8ff" d="M904.5,-116.27C792.01,-110.02 519.82,-94.11 292.12,-74.5 287.7,-74.12 283.15,-73.7 278.56,-73.27"/>
<polygon fill="#63b8ff" stroke="#63b8ff" points="904.15,-119.76 914.33,-116.81 904.54,-112.77 904.15,-119.76"/>
</a>
</g>
</g>
<!-- Node7 -->
<g id="Node000007" class="node">
<title>Node7</title>
<g id="a_Node000007"><a xlink:href="_compton_polarimetry_helper_8hh.html" target="_top" xlink:title=" ">
<polygon fill="white" stroke="#666666" points="445.62,-74.5 300.62,-74.5 300.62,-55.25 445.62,-55.25 445.62,-74.5"/>
<text text-anchor="middle" x="373.12" y="-61" font-family="Helvetica,sans-Serif" font-size="10.00">ComptonPolarimetryHelper.hh</text>
</a>
</g>
</g>
<!-- Node2&#45;&gt;Node7 -->
<g id="edge6_Node000002_Node000007" class="edge">
<title>Node2&#45;&gt;Node7</title>
<g id="a_edge6_Node000002_Node000007"><a xlink:title=" ">
<path fill="none" stroke="#63b8ff" d="M904.57,-114.67C813.44,-106.88 620.23,-90.15 457.12,-74.5 453.48,-74.15 449.74,-73.79 445.97,-73.41"/>
<polygon fill="#63b8ff" stroke="#63b8ff" points="904.18,-118.15 914.44,-115.51 904.78,-111.17 904.18,-118.15"/>
</a>
</g>
</g>
<!-- Node9 -->
<g id="Node000009" class="node">
<title>Node9</title>
<g id="a_Node000009"><a xlink:href="_cross_talk_helper_8hh.html" target="_top" xlink:title=" ">
<polygon fill="white" stroke="#666666" points="567.88,-74.5 466.38,-74.5 466.38,-55.25 567.88,-55.25 567.88,-74.5"/>
<text text-anchor="middle" x="517.12" y="-61" font-family="Helvetica,sans-Serif" font-size="10.00">CrossTalkHelper.hh</text>
</a>
</g>
</g>
<!-- Node2&#45;&gt;Node9 -->
<g id="edge8_Node000002_Node000009" class="edge">
<title>Node2&#45;&gt;Node9</title>
<g id="a_edge8_Node000002_Node000009"><a xlink:title=" ">
<path fill="none" stroke="#63b8ff" d="M904.67,-113.22C831.81,-104.95 695.86,-89.27 580.12,-74.5 576.29,-74.01 572.33,-73.49 568.35,-72.97"/>
<polygon fill="#63b8ff" stroke="#63b8ff" points="903.98,-116.67 914.31,-114.31 904.77,-109.71 903.98,-116.67"/>
</a>
</g>
</g>
<!-- Node11 -->
<g id="Node000011" class="node">
<title>Node11</title>
<g id="a_Node000011"><a xlink:href="_directory_helper_8hh.html" target="_top" xlink:title=" ">
<polygon fill="white" stroke="#666666" points="684.88,-74.5 589.38,-74.5 589.38,-55.25 684.88,-55.25 684.88,-74.5"/>
<text text-anchor="middle" x="637.12" y="-61" font-family="Helvetica,sans-Serif" font-size="10.00">DirectoryHelper.hh</text>
</a>
</g>
</g>
<!-- Node2&#45;&gt;Node11 -->
<g id="edge10_Node000002_Node000011" class="edge">
<title>Node2&#45;&gt;Node11</title>
<g id="a_edge10_Node000002_Node000011"><a xlink:title=" ">
<path fill="none" stroke="#63b8ff" d="M904.67,-110.4C843.77,-100.26 744.15,-83.69 685.19,-73.87"/>
<polygon fill="#63b8ff" stroke="#63b8ff" points="904.01,-113.84 914.45,-112.02 905.16,-106.93 904.01,-113.84"/>
</a>
</g>
</g>
<!-- Node13 -->
<g id="Node000013" class="node">
<title>Node13</title>
<g id="a_Node000013"><a xlink:href="_efficiency_helper_8hh.html" target="_top" xlink:title=" ">
<polygon fill="white" stroke="#666666" points="805,-74.5 707.25,-74.5 707.25,-55.25 805,-55.25 805,-74.5"/>
<text text-anchor="middle" x="756.12" y="-61" font-family="Helvetica,sans-Serif" font-size="10.00">EfficiencyHelper.hh</text>
</a>
</g>
</g>
<!-- Node2&#45;&gt;Node13 -->
<g id="edge12_Node000002_Node000013" class="edge">
<title>Node2&#45;&gt;Node13</title>
<g id="a_edge12_Node000002_Node000013"><a xlink:title=" ">
<path fill="none" stroke="#63b8ff" d="M912.1,-107.2C875.26,-97.44 823.94,-83.84 790.39,-74.95"/>
<polygon fill="#63b8ff" stroke="#63b8ff" points="911,-110.53 921.57,-109.7 912.79,-103.76 911,-110.53"/>
</a>
</g>
</g>
<!-- Node15 -->
<g id="Node000015" class="node">
<title>Node15</title>
<g id="a_Node000015"><a xlink:href="_example_event_helper_8hh.html" target="_top" xlink:title=" ">
<polygon fill="white" stroke="#666666" points="944.5,-74.5 825.75,-74.5 825.75,-55.25 944.5,-55.25 944.5,-74.5"/>
<text text-anchor="middle" x="885.12" y="-61" font-family="Helvetica,sans-Serif" font-size="10.00">ExampleEventHelper.hh</text>
</a>
</g>
</g>
<!-- Node2&#45;&gt;Node15 -->
<g id="edge14_Node000002_Node000015" class="edge">
<title>Node2&#45;&gt;Node15</title>
<g id="a_edge14_Node000002_Node000015"><a xlink:title=" ">
<path fill="none" stroke="#63b8ff" d="M935.95,-103.47C923.31,-94.12 907.72,-82.58 897.16,-74.77"/>
<polygon fill="#63b8ff" stroke="#63b8ff" points="933.57,-106.06 943.69,-109.19 937.74,-100.43 933.57,-106.06"/>
</a>
</g>
</g>
<!-- Node17 -->
<g id="Node000017" class="node">
<title>Node17</title>
<g id="a_Node000017"><a xlink:href="_example_fragment_helper_8hh.html" target="_top" xlink:title=" ">
<polygon fill="white" stroke="#666666" points="1098.75,-74.5 963.5,-74.5 963.5,-55.25 1098.75,-55.25 1098.75,-74.5"/>
<text text-anchor="middle" x="1031.12" y="-61" font-family="Helvetica,sans-Serif" font-size="10.00">ExampleFragmentHelper.hh</text>
</a>
</g>
</g>
<!-- Node2&#45;&gt;Node17 -->
<g id="edge16_Node000002_Node000017" class="edge">
<title>Node2&#45;&gt;Node17</title>
<g id="a_edge16_Node000002_Node000017"><a xlink:title=" ">
<path fill="none" stroke="#63b8ff" d="M978.88,-103.47C991.88,-94.12 1007.91,-82.58 1018.76,-74.77"/>
<polygon fill="#63b8ff" stroke="#63b8ff" points="976.98,-100.53 970.91,-109.21 981.07,-106.21 976.98,-100.53"/>
</a>
</g>
</g>
<!-- Node19 -->
<g id="Node000019" class="node">
<title>Node19</title>
<g id="a_Node000019"><a xlink:href="_example_tree_helper_8hh.html" target="_top" xlink:title=" ">
<polygon fill="white" stroke="#666666" points="1232.88,-74.5 1119.38,-74.5 1119.38,-55.25 1232.88,-55.25 1232.88,-74.5"/>
<text text-anchor="middle" x="1176.12" y="-61" font-family="Helvetica,sans-Serif" font-size="10.00">ExampleTreeHelper.hh</text>
</a>
</g>
</g>
<!-- Node2&#45;&gt;Node19 -->
<g id="edge18_Node000002_Node000019" class="edge">
<title>Node2&#45;&gt;Node19</title>
<g id="a_edge18_Node000002_Node000019"><a xlink:title=" ">
<path fill="none" stroke="#63b8ff" d="M1005.41,-107.38C1045.6,-97.61 1102,-83.9 1138.79,-74.95"/>
<polygon fill="#63b8ff" stroke="#63b8ff" points="1004.64,-103.97 995.75,-109.73 1006.29,-110.77 1004.64,-103.97"/>
</a>
</g>
</g>
<!-- Node21 -->
<g id="Node000021" class="node">
<title>Node21</title>
<g id="a_Node000021"><a xlink:href="_griffin_k_value_helper_8hh.html" target="_top" xlink:title=" ">
<polygon fill="white" stroke="#666666" points="1367.88,-74.5 1254.38,-74.5 1254.38,-55.25 1367.88,-55.25 1367.88,-74.5"/>
<text text-anchor="middle" x="1311.12" y="-61" font-family="Helvetica,sans-Serif" font-size="10.00">GriffinKValueHelper.hh</text>
</a>
</g>
</g>
<!-- Node2&#45;&gt;Node21 -->
<g id="edge20_Node000002_Node000021" class="edge">
<title>Node2&#45;&gt;Node21</title>
<g id="a_edge20_Node000002_Node000021"><a xlink:title=" ">
<path fill="none" stroke="#63b8ff" d="M1009.7,-111.22C1075.16,-101.37 1186.55,-84.61 1254.04,-74.46"/>
<polygon fill="#63b8ff" stroke="#63b8ff" points="1009.29,-107.74 999.92,-112.69 1010.33,-114.66 1009.29,-107.74"/>
</a>
</g>
</g>
<!-- Node23 -->
<g id="Node000023" class="node">
<title>Node23</title>
<g id="a_Node000023"><a xlink:href="_t_data_frame_library_8h.html" target="_top" xlink:title=" ">
<polygon fill="white" stroke="#666666" points="1497.5,-74.5 1390.75,-74.5 1390.75,-55.25 1497.5,-55.25 1497.5,-74.5"/>
<text text-anchor="middle" x="1444.12" y="-61" font-family="Helvetica,sans-Serif" font-size="10.00">TDataFrameLibrary.h</text>
</a>
</g>
</g>
<!-- Node2&#45;&gt;Node23 -->
<g id="edge22_Node000002_Node000023" class="edge">
<title>Node2&#45;&gt;Node23</title>
<g id="a_edge22_Node000002_Node000023"><a xlink:title=" ">
<path fill="none" stroke="#63b8ff" d="M1009.77,-113.91C1089.36,-105.94 1245.07,-90.01 1377.12,-74.5 1381.43,-73.99 1385.9,-73.45 1390.38,-72.9"/>
<polygon fill="#63b8ff" stroke="#63b8ff" points="1009.7,-110.4 1000.1,-114.88 1010.4,-117.36 1009.7,-110.4"/>
</a>
</g>
</g>
<!-- Node26 -->
<g id="Node000026" class="node">
<title>Node26</title>
<g id="a_Node000026"><a xlink:href="_t_g_r_s_i_helper_8cxx.html" target="_top" xlink:title=" ">
<polygon fill="white" stroke="#666666" points="1606.62,-74.5 1515.62,-74.5 1515.62,-55.25 1606.62,-55.25 1606.62,-74.5"/>
<text text-anchor="middle" x="1561.12" y="-61" font-family="Helvetica,sans-Serif" font-size="10.00">TGRSIHelper.cxx</text>
</a>
</g>
</g>
<!-- Node2&#45;&gt;Node26 -->
<g id="edge25_Node000002_Node000026" class="edge">
<title>Node2&#45;&gt;Node26</title>
<g id="a_edge25_Node000002_Node000026"><a xlink:title=" ">
<path fill="none" stroke="#63b8ff" d="M1009.9,-116.15C1107.91,-110.32 1324.54,-96.09 1506.12,-74.5 1509.1,-74.15 1512.16,-73.75 1515.24,-73.33"/>
<polygon fill="#63b8ff" stroke="#63b8ff" points="1009.84,-112.64 1000.06,-116.73 1010.25,-119.63 1009.84,-112.64"/>
</a>
</g>
</g>
<!-- Node27 -->
<g id="Node000027" class="node">
<title>Node27</title>
<g id="a_Node000027"><a xlink:href="_time_walk_helper_8hh.html" target="_top" xlink:title=" ">
<polygon fill="white" stroke="#666666" points="1730.5,-74.5 1629.75,-74.5 1629.75,-55.25 1730.5,-55.25 1730.5,-74.5"/>
<text text-anchor="middle" x="1680.12" y="-61" font-family="Helvetica,sans-Serif" font-size="10.00">TimeWalkHelper.hh</text>
</a>
</g>
</g>
<!-- Node2&#45;&gt;Node27 -->
<g id="edge26_Node000002_Node000027" class="edge">
<title>Node2&#45;&gt;Node27</title>
<g id="a_edge26_Node000002_Node000027"><a xlink:title=" ">
<path fill="none" stroke="#63b8ff" d="M1009.73,-116.75C1121.55,-111.44 1391.06,-97.26 1616.12,-74.5 1620.48,-74.06 1624.99,-73.55 1629.51,-73.01"/>
<polygon fill="#63b8ff" stroke="#63b8ff" points="1009.79,-113.24 999.97,-117.21 1010.12,-120.24 1009.79,-113.24"/>
</a>
</g>
</g>
<!-- Node4 -->
<g id="Node000004" class="node">
<title>Node4</title>
<g id="a_Node000004"><a xlink:href="_alphanumeric_helper_8cxx.html" target="_top" xlink:title=" ">
<polygon fill="white" stroke="#666666" points="120.25,-19.25 0,-19.25 0,0 120.25,0 120.25,-19.25"/>
<text text-anchor="middle" x="60.12" y="-5.75" font-family="Helvetica,sans-Serif" font-size="10.00">AlphanumericHelper.cxx</text>
</a>
</g>
</g>
<!-- Node3&#45;&gt;Node4 -->
<g id="edge3_Node000003_Node000004" class="edge">
<title>Node3&#45;&gt;Node4</title>
<g id="a_edge3_Node000003_Node000004"><a xlink:title=" ">
<path fill="none" stroke="#63b8ff" d="M62.6,-43.63C61.98,-35.34 61.29,-26.17 60.8,-19.61"/>
<polygon fill="#63b8ff" stroke="#63b8ff" points="59.11,-43.86 63.35,-53.57 66.09,-43.34 59.11,-43.86"/>
</a>
</g>
</g>
<!-- Node6 -->
<g id="Node000006" class="node">
<title>Node6</title>
<g id="a_Node000006"><a xlink:href="_angular_correlation_helper_8cxx.html" target="_top" xlink:title=" ">
<polygon fill="white" stroke="#666666" points="278.38,-19.25 137.88,-19.25 137.88,0 278.38,0 278.38,-19.25"/>
<text text-anchor="middle" x="208.12" y="-5.75" font-family="Helvetica,sans-Serif" font-size="10.00">AngularCorrelationHelper.cxx</text>
</a>
</g>
</g>
<!-- Node5&#45;&gt;Node6 -->
<g id="edge5_Node000005_Node000006" class="edge">
<title>Node5&#45;&gt;Node6</title>
<g id="a_edge5_Node000005_Node000006"><a xlink:title=" ">
<path fill="none" stroke="#63b8ff" d="M209.36,-43.63C209.05,-35.34 208.71,-26.17 208.46,-19.61"/>
<polygon fill="#63b8ff" stroke="#63b8ff" points="205.86,-43.71 209.74,-53.57 212.86,-43.45 205.86,-43.71"/>
</a>
</g>
</g>
<!-- Node8 -->
<g id="Node000008" class="node">
<title>Node8</title>
<g id="a_Node000008"><a xlink:href="_compton_polarimetry_helper_8cxx.html" target="_top" xlink:title=" ">
<polygon fill="white" stroke="#666666" points="445.5,-19.25 296.75,-19.25 296.75,0 445.5,0 445.5,-19.25"/>
<text text-anchor="middle" x="371.12" y="-5.75" font-family="Helvetica,sans-Serif" font-size="10.00">ComptonPolarimetryHelper.cxx</text>
</a>
</g>
</g>
<!-- Node7&#45;&gt;Node8 -->
<g id="edge7_Node000007_Node000008" class="edge">
<title>Node7&#45;&gt;Node8</title>
<g id="a_edge7_Node000007_Node000008"><a xlink:title=" ">
<path fill="none" stroke="#63b8ff" d="M372.36,-43.63C372.05,-35.34 371.71,-26.17 371.46,-19.61"/>
<polygon fill="#63b8ff" stroke="#63b8ff" points="368.86,-43.71 372.74,-53.57 375.86,-43.45 368.86,-43.71"/>
</a>
</g>
</g>
<!-- Node10 -->
<g id="Node000010" class="node">
<title>Node10</title>
<g id="a_Node000010"><a xlink:href="_cross_talk_helper_8cxx.html" target="_top" xlink:title=" ">
<polygon fill="white" stroke="#666666" points="568.75,-19.25 463.5,-19.25 463.5,0 568.75,0 568.75,-19.25"/>
<text text-anchor="middle" x="516.12" y="-5.75" font-family="Helvetica,sans-Serif" font-size="10.00">CrossTalkHelper.cxx</text>
</a>
</g>
</g>
<!-- Node9&#45;&gt;Node10 -->
<g id="edge9_Node000009_Node000010" class="edge">
<title>Node9&#45;&gt;Node10</title>
<g id="a_edge9_Node000009_Node000010"><a xlink:title=" ">
<path fill="none" stroke="#63b8ff" d="M516.74,-43.63C516.59,-35.34 516.42,-26.17 516.29,-19.61"/>
<polygon fill="#63b8ff" stroke="#63b8ff" points="513.24,-43.64 516.93,-53.57 520.24,-43.5 513.24,-43.64"/>
</a>
</g>
</g>
<!-- Node12 -->
<g id="Node000012" class="node">
<title>Node12</title>
<g id="a_Node000012"><a xlink:href="_directory_helper_8cxx.html" target="_top" xlink:title=" ">
<polygon fill="white" stroke="#666666" points="685.75,-19.25 586.5,-19.25 586.5,0 685.75,0 685.75,-19.25"/>
<text text-anchor="middle" x="636.12" y="-5.75" font-family="Helvetica,sans-Serif" font-size="10.00">DirectoryHelper.cxx</text>
</a>
</g>
</g>
<!-- Node11&#45;&gt;Node12 -->
<g id="edge11_Node000011_Node000012" class="edge">
<title>Node11&#45;&gt;Node12</title>
<g id="a_edge11_Node000011_Node000012"><a xlink:title=" ">
<path fill="none" stroke="#63b8ff" d="M636.74,-43.63C636.59,-35.34 636.42,-26.17 636.29,-19.61"/>
<polygon fill="#63b8ff" stroke="#63b8ff" points="633.24,-43.64 636.93,-53.57 640.24,-43.5 633.24,-43.64"/>
</a>
</g>
</g>
<!-- Node14 -->
<g id="Node000014" class="node">
<title>Node14</title>
<g id="a_Node000014"><a xlink:href="_efficiency_helper_8cxx.html" target="_top" xlink:title=" ">
<polygon fill="white" stroke="#666666" points="804.88,-19.25 703.38,-19.25 703.38,0 804.88,0 804.88,-19.25"/>
<text text-anchor="middle" x="754.12" y="-5.75" font-family="Helvetica,sans-Serif" font-size="10.00">EfficiencyHelper.cxx</text>
</a>
</g>
</g>
<!-- Node13&#45;&gt;Node14 -->
<g id="edge13_Node000013_Node000014" class="edge">
<title>Node13&#45;&gt;Node14</title>
<g id="a_edge13_Node000013_Node000014"><a xlink:title=" ">
<path fill="none" stroke="#63b8ff" d="M755.36,-43.63C755.05,-35.34 754.71,-26.17 754.46,-19.61"/>
<polygon fill="#63b8ff" stroke="#63b8ff" points="751.86,-43.71 755.74,-53.57 758.86,-43.45 751.86,-43.71"/>
</a>
</g>
</g>
<!-- Node16 -->
<g id="Node000016" class="node">
<title>Node16</title>
<g id="a_Node000016"><a xlink:href="_example_event_helper_8cxx.html" target="_top" xlink:title=" ">
<polygon fill="white" stroke="#666666" points="945.38,-19.25 822.88,-19.25 822.88,0 945.38,0 945.38,-19.25"/>
<text text-anchor="middle" x="884.12" y="-5.75" font-family="Helvetica,sans-Serif" font-size="10.00">ExampleEventHelper.cxx</text>
</a>
</g>
</g>
<!-- Node15&#45;&gt;Node16 -->
<g id="edge15_Node000015_Node000016" class="edge">
<title>Node15&#45;&gt;Node16</title>
<g id="a_edge15_Node000015_Node000016"><a xlink:title=" ">
<path fill="none" stroke="#63b8ff" d="M884.74,-43.63C884.59,-35.34 884.42,-26.17 884.29,-19.61"/>
<polygon fill="#63b8ff" stroke="#63b8ff" points="881.24,-43.64 884.93,-53.57 888.24,-43.5 881.24,-43.64"/>
</a>
</g>
</g>
<!-- Node18 -->
<g id="Node000018" class="node">
<title>Node18</title>
<g id="a_Node000018"><a xlink:href="_example_fragment_helper_8cxx.html" target="_top" xlink:title=" ">
<polygon fill="white" stroke="#666666" points="1102.62,-19.25 963.62,-19.25 963.62,0 1102.62,0 1102.62,-19.25"/>
<text text-anchor="middle" x="1033.12" y="-5.75" font-family="Helvetica,sans-Serif" font-size="10.00">ExampleFragmentHelper.cxx</text>
</a>
</g>
</g>
<!-- Node17&#45;&gt;Node18 -->
<g id="edge17_Node000017_Node000018" class="edge">
<title>Node17&#45;&gt;Node18</title>
<g id="a_edge17_Node000017_Node000018"><a xlink:title=" ">
<path fill="none" stroke="#63b8ff" d="M1031.89,-43.63C1032.2,-35.34 1032.54,-26.17 1032.79,-19.61"/>
<polygon fill="#63b8ff" stroke="#63b8ff" points="1028.39,-43.45 1031.51,-53.57 1035.39,-43.71 1028.39,-43.45"/>
</a>
</g>
</g>
<!-- Node20 -->
<g id="Node000020" class="node">
<title>Node20</title>
<g id="a_Node000020"><a xlink:href="_example_tree_helper_8cxx.html" target="_top" xlink:title=" ">
<polygon fill="white" stroke="#666666" points="1237.75,-19.25 1120.5,-19.25 1120.5,0 1237.75,0 1237.75,-19.25"/>
<text text-anchor="middle" x="1179.12" y="-5.75" font-family="Helvetica,sans-Serif" font-size="10.00">ExampleTreeHelper.cxx</text>
</a>
</g>
</g>
<!-- Node19&#45;&gt;Node20 -->
<g id="edge19_Node000019_Node000020" class="edge">
<title>Node19&#45;&gt;Node20</title>
<g id="a_edge19_Node000019_Node000020"><a xlink:title=" ">
<path fill="none" stroke="#63b8ff" d="M1177.27,-43.63C1177.73,-35.34 1178.25,-26.17 1178.62,-19.61"/>
<polygon fill="#63b8ff" stroke="#63b8ff" points="1173.77,-43.39 1176.71,-53.57 1180.76,-43.78 1173.77,-43.39"/>
</a>
</g>
</g>
<!-- Node22 -->
<g id="Node000022" class="node">
<title>Node22</title>
<g id="a_Node000022"><a xlink:href="_griffin_k_value_helper_8cxx.html" target="_top" xlink:title=" ">
<polygon fill="white" stroke="#666666" points="1372.75,-19.25 1255.5,-19.25 1255.5,0 1372.75,0 1372.75,-19.25"/>
<text text-anchor="middle" x="1314.12" y="-5.75" font-family="Helvetica,sans-Serif" font-size="10.00">GriffinKValueHelper.cxx</text>
</a>
</g>
</g>
<!-- Node21&#45;&gt;Node22 -->
<g id="edge21_Node000021_Node000022" class="edge">
<title>Node21&#45;&gt;Node22</title>
<g id="a_edge21_Node000021_Node000022"><a xlink:title=" ">
<path fill="none" stroke="#63b8ff" d="M1312.27,-43.63C1312.73,-35.34 1313.25,-26.17 1313.62,-19.61"/>
<polygon fill="#63b8ff" stroke="#63b8ff" points="1308.77,-43.39 1311.71,-53.57 1315.76,-43.78 1308.77,-43.39"/>
</a>
</g>
</g>
<!-- Node24 -->
<g id="Node000024" class="node">
<title>Node24</title>
<g id="a_Node000024"><a xlink:href="_t_data_frame_library_8cxx.html" target="_top" xlink:title=" ">
<polygon fill="white" stroke="#666666" points="1507,-19.25 1391.25,-19.25 1391.25,0 1507,0 1507,-19.25"/>
<text text-anchor="middle" x="1449.12" y="-5.75" font-family="Helvetica,sans-Serif" font-size="10.00">TDataFrameLibrary.cxx</text>
</a>
</g>
</g>
<!-- Node23&#45;&gt;Node24 -->
<g id="edge23_Node000023_Node000024" class="edge">
<title>Node23&#45;&gt;Node24</title>
<g id="a_edge23_Node000023_Node000024"><a xlink:title=" ">
<path fill="none" stroke="#63b8ff" d="M1446.03,-43.63C1446.8,-35.34 1447.67,-26.17 1448.28,-19.61"/>
<polygon fill="#63b8ff" stroke="#63b8ff" points="1442.54,-43.29 1445.09,-53.57 1449.51,-43.95 1442.54,-43.29"/>
</a>
</g>
</g>
<!-- Node25 -->
<g id="Node000025" class="node">
<title>Node25</title>
<g id="a_Node000025"><a xlink:href="_t_g_r_s_i_frame_8cxx.html" target="_top" xlink:title=" ">
<polygon fill="white" stroke="#666666" points="1615.25,-19.25 1525,-19.25 1525,0 1615.25,0 1615.25,-19.25"/>
<text text-anchor="middle" x="1570.12" y="-5.75" font-family="Helvetica,sans-Serif" font-size="10.00">TGRSIFrame.cxx</text>
</a>
</g>
</g>
<!-- Node23&#45;&gt;Node25 -->
<g id="edge24_Node000023_Node000025" class="edge">
<title>Node23&#45;&gt;Node25</title>
<g id="a_edge24_Node000023_Node000025"><a xlink:title=" ">
<path fill="none" stroke="#63b8ff" d="M1476.01,-50.4C1498.74,-40.79 1528.7,-28.13 1548.65,-19.7"/>
<polygon fill="#63b8ff" stroke="#63b8ff" points="1474.74,-47.14 1466.89,-54.25 1477.47,-53.58 1474.74,-47.14"/>
</a>
</g>
</g>
<!-- Node28 -->
<g id="Node000028" class="node">
<title>Node28</title>
<g id="a_Node000028"><a xlink:href="_time_walk_helper_8cxx.html" target="_top" xlink:title=" ">
<polygon fill="white" stroke="#666666" points="1737.38,-19.25 1632.88,-19.25 1632.88,0 1737.38,0 1737.38,-19.25"/>
<text text-anchor="middle" x="1685.12" y="-5.75" font-family="Helvetica,sans-Serif" font-size="10.00">TimeWalkHelper.cxx</text>
</a>
</g>
</g>
<!-- Node27&#45;&gt;Node28 -->
<g id="edge27_Node000027_Node000028" class="edge">
<title>Node27&#45;&gt;Node28</title>
<g id="a_edge27_Node000027_Node000028"><a xlink:title=" ">
<path fill="none" stroke="#63b8ff" d="M1682.03,-43.63C1682.8,-35.34 1683.67,-26.17 1684.28,-19.61"/>
<polygon fill="#63b8ff" stroke="#63b8ff" points="1678.54,-43.29 1681.09,-53.57 1685.51,-43.95 1678.54,-43.29"/>
</a>
</g>
</g>
<!-- Node30 -->
<g id="Node000030" class="node">
<title>Node30</title>
<g id="a_Node000030"><a xlink:href="_alphanumeric_selector_8h.html" target="_top" xlink:title=" ">
<polygon fill="white" stroke="#666666" points="1874.5,-74.5 1755.75,-74.5 1755.75,-55.25 1874.5,-55.25 1874.5,-74.5"/>
<text text-anchor="middle" x="1815.12" y="-61" font-family="Helvetica,sans-Serif" font-size="10.00">AlphanumericSelector.h</text>
</a>
</g>
</g>
<!-- Node29&#45;&gt;Node30 -->
<g id="edge29_Node000029_Node000030" class="edge">
<title>Node29&#45;&gt;Node30</title>
<g id="a_edge29_Node000029_Node000030"><a xlink:title=" ">
<path fill="none" stroke="#63b8ff" d="M2290.49,-114.09C2203.48,-106.26 2031.71,-90.39 1886.12,-74.5 1882.42,-74.1 1878.61,-73.67 1874.77,-73.23"/>
<polygon fill="#63b8ff" stroke="#63b8ff" points="2290.16,-117.57 2300.43,-114.98 2290.78,-110.6 2290.16,-117.57"/>
</a>
</g>
</g>
<!-- Node32 -->
<g id="Node000032" class="node">
<title>Node32</title>
<g id="a_Node000032"><a xlink:href="_angular_correlation_selector_8h.html" target="_top" xlink:title=" ">
<polygon fill="white" stroke="#666666" points="2033.62,-74.5 1894.62,-74.5 1894.62,-55.25 2033.62,-55.25 2033.62,-74.5"/>
<text text-anchor="middle" x="1964.12" y="-61" font-family="Helvetica,sans-Serif" font-size="10.00">AngularCorrelationSelector.h</text>
</a>
</g>
</g>
<!-- Node29&#45;&gt;Node32 -->
<g id="edge31_Node000029_Node000032" class="edge">
<title>Node29&#45;&gt;Node32</title>
<g id="a_edge31_Node000029_Node000032"><a xlink:title=" ">
<path fill="none" stroke="#63b8ff" d="M2290.91,-111.31C2221.32,-101.63 2103.03,-85.19 2029.47,-74.96"/>
<polygon fill="#63b8ff" stroke="#63b8ff" points="2290.18,-114.74 2300.56,-112.65 2291.14,-107.81 2290.18,-114.74"/>
</a>
</g>
</g>
<!-- Node34 -->
<g id="Node000034" class="node">
<title>Node34</title>
<g id="a_Node000034"><a xlink:href="_cross_talk_8h.html" target="_top" xlink:title=" ">
<polygon fill="white" stroke="#666666" points="2121,-74.5 2053.25,-74.5 2053.25,-55.25 2121,-55.25 2121,-74.5"/>
<text text-anchor="middle" x="2087.12" y="-61" font-family="Helvetica,sans-Serif" font-size="10.00">CrossTalk.h</text>
</a>
</g>
</g>
<!-- Node29&#45;&gt;Node34 -->
<g id="edge33_Node000029_Node000034" class="edge">
<title>Node29&#45;&gt;Node34</title>
<g id="a_edge33_Node000029_Node000034"><a xlink:title=" ">
<path fill="none" stroke="#63b8ff" d="M2291.77,-107.79C2240.15,-97.22 2164.79,-81.78 2121.38,-72.89"/>
<polygon fill="#63b8ff" stroke="#63b8ff" points="2290.74,-111.15 2301.24,-109.73 2292.15,-104.29 2290.74,-111.15"/>
</a>
</g>
</g>
<!-- Node36 -->
<g id="Node000036" class="node">
<title>Node36</title>
<g id="a_Node000036"><a xlink:href="_example_event_selector_8h.html" target="_top" xlink:title=" ">
<polygon fill="white" stroke="#666666" points="2260.62,-74.5 2139.62,-74.5 2139.62,-55.25 2260.62,-55.25 2260.62,-74.5"/>
<text text-anchor="middle" x="2200.12" y="-61" font-family="Helvetica,sans-Serif" font-size="10.00">ExampleEventSelector.h</text>
</a>
</g>
</g>
<!-- Node29&#45;&gt;Node36 -->
<g id="edge35_Node000029_Node000036" class="edge">
<title>Node29&#45;&gt;Node36</title>
<g id="a_edge35_Node000029_Node000036"><a xlink:title=" ">
<path fill="none" stroke="#63b8ff" d="M2311.37,-106.17C2284.68,-96.5 2248.88,-83.54 2225.18,-74.95"/>
<polygon fill="#63b8ff" stroke="#63b8ff" points="2310.17,-109.46 2320.77,-109.58 2312.56,-102.88 2310.17,-109.46"/>
</a>
</g>
</g>
<!-- Node38 -->
<g id="Node000038" class="node">
<title>Node38</title>
<g id="a_Node000038"><a xlink:href="_example_fragment_selector_8h.html" target="_top" xlink:title=" ">
<polygon fill="white" stroke="#666666" points="2415.88,-74.5 2278.38,-74.5 2278.38,-55.25 2415.88,-55.25 2415.88,-74.5"/>
<text text-anchor="middle" x="2347.12" y="-61" font-family="Helvetica,sans-Serif" font-size="10.00">ExampleFragmentSelector.h</text>
</a>
</g>
</g>
<!-- Node29&#45;&gt;Node38 -->
<g id="edge37_Node000029_Node000038" class="edge">
<title>Node29&#45;&gt;Node38</title>
<g id="a_edge37_Node000029_Node000038"><a xlink:title=" ">
<path fill="none" stroke="#63b8ff" d="M2347.12,-98.88C2347.12,-90.59 2347.12,-81.42 2347.12,-74.86"/>
<polygon fill="#63b8ff" stroke="#63b8ff" points="2343.63,-98.82 2347.13,-108.82 2350.63,-98.82 2343.63,-98.82"/>
</a>
</g>
</g>
<!-- Node40 -->
<g id="Node000040" class="node">
<title>Node40</title>
<g id="a_Node000040"><a xlink:href="_example_tree_selector_8h.html" target="_top" xlink:title=" ">
<polygon fill="white" stroke="#666666" points="2550,-74.5 2434.25,-74.5 2434.25,-55.25 2550,-55.25 2550,-74.5"/>
<text text-anchor="middle" x="2492.12" y="-61" font-family="Helvetica,sans-Serif" font-size="10.00">ExampleTreeSelector.h</text>
</a>
</g>
</g>
<!-- Node29&#45;&gt;Node40 -->
<g id="edge39_Node000029_Node000040" class="edge">
<title>Node29&#45;&gt;Node40</title>
<g id="a_edge39_Node000029_Node000040"><a xlink:title=" ">
<path fill="none" stroke="#63b8ff" d="M2382.39,-106.17C2408.72,-96.5 2444.04,-83.54 2467.41,-74.95"/>
<polygon fill="#63b8ff" stroke="#63b8ff" points="2381.32,-102.84 2373.14,-109.57 2383.74,-109.41 2381.32,-102.84"/>
</a>
</g>
</g>
<!-- Node42 -->
<g id="Node000042" class="node">
<title>Node42</title>
<g id="a_Node000042"><a xlink:href="_fast_timing_hist_selector_8h.html" target="_top" xlink:title=" ">
<polygon fill="white" stroke="#666666" points="2694.25,-74.5 2568,-74.5 2568,-55.25 2694.25,-55.25 2694.25,-74.5"/>
<text text-anchor="middle" x="2631.12" y="-61" font-family="Helvetica,sans-Serif" font-size="10.00">FastTimingHistSelector.h</text>
</a>
</g>
</g>
<!-- Node29&#45;&gt;Node42 -->
<g id="edge41_Node000029_Node000042" class="edge">
<title>Node29&#45;&gt;Node42</title>
<g id="a_edge41_Node000029_Node000042"><a xlink:title=" ">
<path fill="none" stroke="#63b8ff" d="M2403.22,-108.61C2455.54,-98.8 2532.78,-84.31 2582.53,-74.99"/>
<polygon fill="#63b8ff" stroke="#63b8ff" points="2402.8,-105.13 2393.61,-110.41 2404.09,-112.01 2402.8,-105.13"/>
</a>
</g>
</g>
<!-- Node44 -->
<g id="Node000044" class="node">
<title>Node44</title>
<g id="a_Node000044"><a xlink:href="_griffin_k_value_selector_8h.html" target="_top" xlink:title=" ">
<polygon fill="white" stroke="#666666" points="2828,-74.5 2712.25,-74.5 2712.25,-55.25 2828,-55.25 2828,-74.5"/>
<text text-anchor="middle" x="2770.12" y="-61" font-family="Helvetica,sans-Serif" font-size="10.00">GriffinKValueSelector.h</text>
</a>
</g>
</g>
<!-- Node29&#45;&gt;Node44 -->
<g id="edge43_Node000029_Node000044" class="edge">
<title>Node29&#45;&gt;Node44</title>
<g id="a_edge43_Node000029_Node000044"><a xlink:title=" ">
<path fill="none" stroke="#63b8ff" d="M2403.26,-110.25C2536.86,-91.79 2572.52,-90.69 2703.12,-74.5 2706.03,-74.14 2709.02,-73.77 2712.02,-73.39"/>
<polygon fill="#63b8ff" stroke="#63b8ff" points="2403.11,-106.74 2393.69,-111.58 2404.07,-113.67 2403.11,-106.74"/>
</a>
</g>
</g>
<!-- Node46 -->
<g id="Node000046" class="node">
<title>Node46</title>
<g id="a_Node000046"><a xlink:href="_t_g_r_s_i_selector_8cxx.html" target="_top" xlink:title=" ">
<polygon fill="white" stroke="#666666" points="2944.38,-74.5 2845.88,-74.5 2845.88,-55.25 2944.38,-55.25 2944.38,-74.5"/>
<text text-anchor="middle" x="2895.12" y="-61" font-family="Helvetica,sans-Serif" font-size="10.00">TGRSISelector.cxx</text>
</a>
</g>
</g>
<!-- Node29&#45;&gt;Node46 -->
<g id="edge45_Node000029_Node000046" class="edge">
<title>Node29&#45;&gt;Node46</title>
<g id="a_edge45_Node000029_Node000046"><a xlink:title=" ">
<path fill="none" stroke="#63b8ff" d="M2403.55,-110.3C2596.1,-87.51 2647.65,-96.39 2837.12,-74.5 2839.86,-74.18 2842.66,-73.84 2845.48,-73.48"/>
<polygon fill="#63b8ff" stroke="#63b8ff" points="2403.19,-106.82 2393.67,-111.49 2404.02,-113.77 2403.19,-106.82"/>
</a>
</g>
</g>
<!-- Node47 -->
<g id="Node000047" class="node">
<title>Node47</title>
<g id="a_Node000047"><a xlink:href="_time_walk_selector_8h.html" target="_top" xlink:title=" ">
<polygon fill="white" stroke="#666666" points="3065.62,-74.5 2962.62,-74.5 2962.62,-55.25 3065.62,-55.25 3065.62,-74.5"/>
<text text-anchor="middle" x="3014.12" y="-61" font-family="Helvetica,sans-Serif" font-size="10.00">TimeWalkSelector.h</text>
</a>
</g>
</g>
<!-- Node29&#45;&gt;Node47 -->
<g id="edge46_Node000029_Node000047" class="edge">
<title>Node29&#45;&gt;Node47</title>
<g id="a_edge46_Node000029_Node000047"><a xlink:title=" ">
<path fill="none" stroke="#63b8ff" d="M2403.54,-110.34C2647.4,-83.58 2712.27,-99.35 2953.12,-74.5 2956.1,-74.19 2959.16,-73.85 2962.24,-73.48"/>
<polygon fill="#63b8ff" stroke="#63b8ff" points="2403.22,-106.86 2393.67,-111.44 2403.99,-113.82 2403.22,-106.86"/>
</a>
</g>
</g>
<!-- Node31 -->
<g id="Node000031" class="node">
<title>Node31</title>
<g id="a_Node000031"><a xlink:href="_alphanumeric_selector_8_c.html" target="_top" xlink:title=" ">
<polygon fill="white" stroke="#666666" points="1875.25,-19.25 1755,-19.25 1755,0 1875.25,0 1875.25,-19.25"/>
<text text-anchor="middle" x="1815.12" y="-5.75" font-family="Helvetica,sans-Serif" font-size="10.00">AlphanumericSelector.C</text>
</a>
</g>
</g>
<!-- Node30&#45;&gt;Node31 -->
<g id="edge30_Node000030_Node000031" class="edge">
<title>Node30&#45;&gt;Node31</title>
<g id="a_edge30_Node000030_Node000031"><a xlink:title=" ">
<path fill="none" stroke="#63b8ff" d="M1815.12,-43.63C1815.12,-35.34 1815.12,-26.17 1815.12,-19.61"/>
<polygon fill="#63b8ff" stroke="#63b8ff" points="1811.63,-43.57 1815.13,-53.57 1818.63,-43.57 1811.63,-43.57"/>
</a>
</g>
</g>
<!-- Node33 -->
<g id="Node000033" class="node">
<title>Node33</title>
<g id="a_Node000033"><a xlink:href="_angular_correlation_selector_8_c.html" target="_top" xlink:title=" ">
<polygon fill="white" stroke="#666666" points="2033.38,-19.25 1892.88,-19.25 1892.88,0 2033.38,0 2033.38,-19.25"/>
<text text-anchor="middle" x="1963.12" y="-5.75" font-family="Helvetica,sans-Serif" font-size="10.00">AngularCorrelationSelector.C</text>
</a>
</g>
</g>
<!-- Node32&#45;&gt;Node33 -->
<g id="edge32_Node000032_Node000033" class="edge">
<title>Node32&#45;&gt;Node33</title>
<g id="a_edge32_Node000032_Node000033"><a xlink:title=" ">
<path fill="none" stroke="#63b8ff" d="M1963.74,-43.63C1963.59,-35.34 1963.42,-26.17 1963.29,-19.61"/>
<polygon fill="#63b8ff" stroke="#63b8ff" points="1960.24,-43.64 1963.93,-53.57 1967.24,-43.5 1960.24,-43.64"/>
</a>
</g>
</g>
<!-- Node35 -->
<g id="Node000035" class="node">
<title>Node35</title>
<g id="a_Node000035"><a xlink:href="_cross_talk_8_c.html" target="_top" xlink:title=" ">
<polygon fill="white" stroke="#666666" points="2120.75,-19.25 2051.5,-19.25 2051.5,0 2120.75,0 2120.75,-19.25"/>
<text text-anchor="middle" x="2086.12" y="-5.75" font-family="Helvetica,sans-Serif" font-size="10.00">CrossTalk.C</text>
</a>
</g>
</g>
<!-- Node34&#45;&gt;Node35 -->
<g id="edge34_Node000034_Node000035" class="edge">
<title>Node34&#45;&gt;Node35</title>
<g id="a_edge34_Node000034_Node000035"><a xlink:title=" ">
<path fill="none" stroke="#63b8ff" d="M2086.74,-43.63C2086.59,-35.34 2086.42,-26.17 2086.29,-19.61"/>
<polygon fill="#63b8ff" stroke="#63b8ff" points="2083.24,-43.64 2086.93,-53.57 2090.24,-43.5 2083.24,-43.64"/>
</a>
</g>
</g>
<!-- Node37 -->
<g id="Node000037" class="node">
<title>Node37</title>
<g id="a_Node000037"><a xlink:href="_example_event_selector_8_c.html" target="_top" xlink:title=" ">
<polygon fill="white" stroke="#666666" points="2261.38,-19.25 2138.88,-19.25 2138.88,0 2261.38,0 2261.38,-19.25"/>
<text text-anchor="middle" x="2200.12" y="-5.75" font-family="Helvetica,sans-Serif" font-size="10.00">ExampleEventSelector.C</text>
</a>
</g>
</g>
<!-- Node36&#45;&gt;Node37 -->
<g id="edge36_Node000036_Node000037" class="edge">
<title>Node36&#45;&gt;Node37</title>
<g id="a_edge36_Node000036_Node000037"><a xlink:title=" ">
<path fill="none" stroke="#63b8ff" d="M2200.12,-43.63C2200.12,-35.34 2200.12,-26.17 2200.12,-19.61"/>
<polygon fill="#63b8ff" stroke="#63b8ff" points="2196.63,-43.57 2200.13,-53.57 2203.63,-43.57 2196.63,-43.57"/>
</a>
</g>
</g>
<!-- Node39 -->
<g id="Node000039" class="node">
<title>Node39</title>
<g id="a_Node000039"><a xlink:href="_example_fragment_selector_8_c.html" target="_top" xlink:title=" ">
<polygon fill="white" stroke="#666666" points="2418.62,-19.25 2279.62,-19.25 2279.62,0 2418.62,0 2418.62,-19.25"/>
<text text-anchor="middle" x="2349.12" y="-5.75" font-family="Helvetica,sans-Serif" font-size="10.00">ExampleFragmentSelector.C</text>
</a>
</g>
</g>
<!-- Node38&#45;&gt;Node39 -->
<g id="edge38_Node000038_Node000039" class="edge">
<title>Node38&#45;&gt;Node39</title>
<g id="a_edge38_Node000038_Node000039"><a xlink:title=" ">
<path fill="none" stroke="#63b8ff" d="M2347.89,-43.63C2348.2,-35.34 2348.54,-26.17 2348.79,-19.61"/>
<polygon fill="#63b8ff" stroke="#63b8ff" points="2344.39,-43.45 2347.51,-53.57 2351.39,-43.71 2344.39,-43.45"/>
</a>
</g>
</g>
<!-- Node41 -->
<g id="Node000041" class="node">
<title>Node41</title>
<g id="a_Node000041"><a xlink:href="_example_tree_selector_8_c.html" target="_top" xlink:title=" ">
<polygon fill="white" stroke="#666666" points="2553.75,-19.25 2436.5,-19.25 2436.5,0 2553.75,0 2553.75,-19.25"/>
<text text-anchor="middle" x="2495.12" y="-5.75" font-family="Helvetica,sans-Serif" font-size="10.00">ExampleTreeSelector.C</text>
</a>
</g>
</g>
<!-- Node40&#45;&gt;Node41 -->
<g id="edge40_Node000040_Node000041" class="edge">
<title>Node40&#45;&gt;Node41</title>
<g id="a_edge40_Node000040_Node000041"><a xlink:title=" ">
<path fill="none" stroke="#63b8ff" d="M2493.27,-43.63C2493.73,-35.34 2494.25,-26.17 2494.62,-19.61"/>
<polygon fill="#63b8ff" stroke="#63b8ff" points="2489.77,-43.39 2492.71,-53.57 2496.76,-43.78 2489.77,-43.39"/>
</a>
</g>
</g>
<!-- Node43 -->
<g id="Node000043" class="node">
<title>Node43</title>
<g id="a_Node000043"><a xlink:href="_fast_timing_hist_selector_8_c.html" target="_top" xlink:title=" ">
<polygon fill="white" stroke="#666666" points="2700,-19.25 2572.25,-19.25 2572.25,0 2700,0 2700,-19.25"/>
<text text-anchor="middle" x="2636.12" y="-5.75" font-family="Helvetica,sans-Serif" font-size="10.00">FastTimingHistSelector.C</text>
</a>
</g>
</g>
<!-- Node42&#45;&gt;Node43 -->
<g id="edge42_Node000042_Node000043" class="edge">
<title>Node42&#45;&gt;Node43</title>
<g id="a_edge42_Node000042_Node000043"><a xlink:title=" ">
<path fill="none" stroke="#63b8ff" d="M2633.03,-43.63C2633.8,-35.34 2634.67,-26.17 2635.28,-19.61"/>
<polygon fill="#63b8ff" stroke="#63b8ff" points="2629.54,-43.29 2632.09,-53.57 2636.51,-43.95 2629.54,-43.29"/>
</a>
</g>
</g>
<!-- Node45 -->
<g id="Node000045" class="node">
<title>Node45</title>
<g id="a_Node000045"><a xlink:href="_griffin_k_value_selector_8_c.html" target="_top" xlink:title=" ">
<polygon fill="white" stroke="#666666" points="2835.75,-19.25 2718.5,-19.25 2718.5,0 2835.75,0 2835.75,-19.25"/>
<text text-anchor="middle" x="2777.12" y="-5.75" font-family="Helvetica,sans-Serif" font-size="10.00">GriffinKValueSelector.C</text>
</a>
</g>
</g>
<!-- Node44&#45;&gt;Node45 -->
<g id="edge44_Node000044_Node000045" class="edge">
<title>Node44&#45;&gt;Node45</title>
<g id="a_edge44_Node000044_Node000045"><a xlink:title=" ">
<path fill="none" stroke="#63b8ff" d="M2772.75,-43.92C2773.85,-35.55 2775.07,-26.25 2775.94,-19.61"/>
<polygon fill="#63b8ff" stroke="#63b8ff" points="2769.31,-43.21 2771.48,-53.58 2776.25,-44.12 2769.31,-43.21"/>
</a>
</g>
</g>
<!-- Node48 -->
<g id="Node000048" class="node">
<title>Node48</title>
<g id="a_Node000048"><a xlink:href="_time_walk_selector_8_c.html" target="_top" xlink:title=" ">
<polygon fill="white" stroke="#666666" points="3066.38,-19.25 2961.88,-19.25 2961.88,0 3066.38,0 3066.38,-19.25"/>
<text text-anchor="middle" x="3014.12" y="-5.75" font-family="Helvetica,sans-Serif" font-size="10.00">TimeWalkSelector.C</text>
</a>
</g>
</g>
<!-- Node47&#45;&gt;Node48 -->
<g id="edge47_Node000047_Node000048" class="edge">
<title>Node47&#45;&gt;Node48</title>
<g id="a_edge47_Node000047_Node000048"><a xlink:title=" ">
<path fill="none" stroke="#63b8ff" d="M3014.12,-43.63C3014.12,-35.34 3014.12,-26.17 3014.12,-19.61"/>
<polygon fill="#63b8ff" stroke="#63b8ff" points="3010.63,-43.57 3014.13,-53.57 3017.63,-43.57 3010.63,-43.57"/>
</a>
</g>
</g>
</g>
</svg>

<g id="navigator" transform="translate(0 0)" fill="#404254">
  <rect fill="#f2f5e9" fill-opacity="0.5" stroke="#606060" stroke-width=".5" x="0" y="0" width="60" height="60"/>
  <use id="zoomplus" xlink:href="#zoomPlus" x="17" y="9" onmousedown="handleZoom(evt,'in')"/>
  <use id="zoomminus" xlink:href="#zoomMin" x="42" y="9" onmousedown="handleZoom(evt,'out')"/>
  <use id="reset" xlink:href="#resetDef" x="30" y="36" onmousedown="handleReset()"/>
   <use id="arrowup" xlink:href="#arrowUp" x="0" y="0" onmousedown="handlePan(0,-1)"/>
  <use id="arrowright" xlink:href="#arrowRight" x="0" y="0" onmousedown="handlePan(1,0)"/>
  <use id="arrowdown" xlink:href="#arrowDown" x="0" y="0" onmousedown="handlePan(0,1)"/>
  <use id="arrowleft" xlink:href="#arrowLeft" x="0" y="0" onmousedown="handlePan(-1,0)"/>
</g>
<svg viewBox="0 0 15 15" width="100%" height="30px" preserveAspectRatio="xMaxYMin meet">
 <g id="arrow_out" transform="scale(0.3 0.3)">
  <a xlink:href="_t_g_r_s_i_map_8h__dep__incl_org.svg" target="_base">
   <rect id="button" ry="5" rx="5" y="6" x="6" height="38" width="38"
        fill="#f2f5e9" fill-opacity="0.5" stroke="#606060" stroke-width="1.0"/>
   <path id="arrow"
     d="M 11.500037,31.436501 C 11.940474,20.09759 22.043105,11.32322 32.158766,21.979434 L 37.068811,17.246167 C 37.068811,17.246167 37.088388,32 37.088388,32 L 22.160133,31.978069 C 22.160133,31.978069 26.997745,27.140456 26.997745,27.140456 C 18.528582,18.264221 13.291696,25.230495 11.500037,31.436501 z"
     style="fill:#404040;"/>
  </a>
 </g>
</svg>

<style type='text/css'>
<![CDATA[
[data-mouse-over-selected='false'] { opacity: 0.7; }
[data-mouse-over-selected='true']  { opacity: 1.0; }
]]>
</style>
<script type="application/ecmascript"><![CDATA[
document.addEventListener('DOMContentLoaded', (event) => {
  highlightEdges();
  highlightAdjacentNodes();
});
]]></script>
</svg>
