<?xml version="1.0" encoding="UTF-8" standalone="no"?>
<!DOCTYPE svg PUBLIC "-//W3C//DTD SVG 1.1//EN"
 "http://www.w3.org/Graphics/SVG/1.1/DTD/svg11.dtd">
<!-- Generated by graphviz version 12.2.0 (20241103.1931)
 -->
<!-- Title: TGRSIMap.h Pages: 1 -->
<svg width="303pt" height="83pt"
 viewBox="0.00 0.00 303.00 82.50" xmlns="http://www.w3.org/2000/svg" xmlns:xlink="http://www.w3.org/1999/xlink">
<g id="graph0" class="graph" transform="scale(1 1) rotate(0) translate(4 78.5)">
<title>TGRSIMap.h</title>
<!-- Node1 -->
<g id="Node000001" class="node">
<title>Node1</title>
<g id="a_Node000001"><a xlink:title=" ">
<polygon fill="#999999" stroke="#666666" points="181.5,-74.5 109.25,-74.5 109.25,-55.25 181.5,-55.25 181.5,-74.5"/>
<text text-anchor="middle" x="145.38" y="-61" font-family="Helvetica,sans-Serif" font-size="10.00">TGRSIMap.h</text>
</a>
</g>
</g>
<!-- Node2 -->
<g id="Node000002" class="node">
<title>Node2</title>
<g id="a_Node000002"><a xlink:title=" ">
<polygon fill="#e0e0e0" stroke="#999999" points="34.75,-19.25 0,-19.25 0,0 34.75,0 34.75,-19.25"/>
<text text-anchor="middle" x="17.38" y="-5.75" font-family="Helvetica,sans-Serif" font-size="10.00">map</text>
</a>
</g>
</g>
<!-- Node1&#45;&gt;Node2 -->
<g id="edge1_Node000001_Node000002" class="edge">
<title>Node1&#45;&gt;Node2</title>
<g id="a_edge1_Node000001_Node000002"><a xlink:title=" ">
<path fill="none" stroke="#63b8ff" d="M123.66,-54.84C102.11,-45.88 68.98,-32.09 45.44,-22.3"/>
<polygon fill="#63b8ff" stroke="#63b8ff" points="47.04,-19.18 36.46,-18.57 44.35,-25.64 47.04,-19.18"/>
</a>
</g>
</g>
<!-- Node3 -->
<g id="Node000003" class="node">
<title>Node3</title>
<g id="a_Node000003"><a xlink:title=" ">
<polygon fill="#e0e0e0" stroke="#999999" points="106.12,-19.25 52.62,-19.25 52.62,0 106.12,0 106.12,-19.25"/>
<text text-anchor="middle" x="79.38" y="-5.75" font-family="Helvetica,sans-Serif" font-size="10.00">iostream</text>
</a>
</g>
</g>
<!-- Node1&#45;&gt;Node3 -->
<g id="edge2_Node000001_Node000003" class="edge">
<title>Node1&#45;&gt;Node3</title>
<g id="a_edge2_Node000001_Node000003"><a xlink:title=" ">
<path fill="none" stroke="#63b8ff" d="M134.18,-54.84C124.64,-47.15 110.7,-35.9 99.27,-26.68"/>
<polygon fill="#63b8ff" stroke="#63b8ff" points="101.56,-24.03 91.58,-20.48 97.17,-29.48 101.56,-24.03"/>
</a>
</g>
</g>
<!-- Node4 -->
<g id="Node000004" class="node">
<title>Node4</title>
<g id="a_Node000004"><a xlink:title=" ">
<polygon fill="#e0e0e0" stroke="#999999" points="166.88,-19.25 123.88,-19.25 123.88,0 166.88,0 166.88,-19.25"/>
<text text-anchor="middle" x="145.38" y="-5.75" font-family="Helvetica,sans-Serif" font-size="10.00">vector</text>
</a>
</g>
</g>
<!-- Node1&#45;&gt;Node4 -->
<g id="edge3_Node000001_Node000004" class="edge">
<title>Node1&#45;&gt;Node4</title>
<g id="a_edge3_Node000001_Node000004"><a xlink:title=" ">
<path fill="none" stroke="#63b8ff" d="M145.38,-55.08C145.38,-48.57 145.38,-39.42 145.38,-31.12"/>
<polygon fill="#63b8ff" stroke="#63b8ff" points="148.88,-31.12 145.38,-21.12 141.88,-31.12 148.88,-31.12"/>
</a>
</g>
</g>
<!-- Node5 -->
<g id="Node000005" class="node">
<title>Node5</title>
<g id="a_Node000005"><a xlink:title=" ">
<polygon fill="#e0e0e0" stroke="#999999" points="225.38,-19.25 185.38,-19.25 185.38,0 225.38,0 225.38,-19.25"/>
<text text-anchor="middle" x="205.38" y="-5.75" font-family="Helvetica,sans-Serif" font-size="10.00">string</text>
</a>
</g>
</g>
<!-- Node1&#45;&gt;Node5 -->
<g id="edge4_Node000001_Node000005" class="edge">
<title>Node1&#45;&gt;Node5</title>
<g id="a_edge4_Node000001_Node000005"><a xlink:title=" ">
<path fill="none" stroke="#63b8ff" d="M155.55,-54.84C164.14,-47.22 176.64,-36.12 186.98,-26.95"/>
<polygon fill="#63b8ff" stroke="#63b8ff" points="189.06,-29.79 194.22,-20.53 184.41,-24.55 189.06,-29.79"/>
</a>
</g>
</g>
<!-- Node6 -->
<g id="Node000006" class="node">
<title>Node6</title>
<g id="a_Node000006"><a xlink:title=" ">
<polygon fill="#e0e0e0" stroke="#999999" points="295,-19.25 243.75,-19.25 243.75,0 295,0 295,-19.25"/>
<text text-anchor="middle" x="269.38" y="-5.75" font-family="Helvetica,sans-Serif" font-size="10.00">sstream</text>
</a>
</g>
</g>
<!-- Node1&#45;&gt;Node6 -->
<g id="edge5_Node000001_Node000006" class="edge">
<title>Node1&#45;&gt;Node6</title>
<g id="a_edge5_Node000001_Node000006"><a xlink:title=" ">
<path fill="none" stroke="#63b8ff" d="M166.41,-54.84C186.01,-46.43 215.48,-33.77 237.88,-24.15"/>
<polygon fill="#63b8ff" stroke="#63b8ff" points="239.04,-27.46 246.85,-20.3 236.28,-21.03 239.04,-27.46"/>
</a>
</g>
</g>
</g>
</svg>
