<?xml version="1.0" encoding="UTF-8" standalone="no"?>
<!DOCTYPE svg PUBLIC "-//W3C//DTD SVG 1.1//EN"
 "http://www.w3.org/Graphics/SVG/1.1/DTD/svg11.dtd">
<!-- Generated by graphviz version 9.0.0 (20230911.1827)
 -->
<!-- Title: TGriffinAngles.h Pages: 1 -->
<svg width="556pt" height="138pt"
 viewBox="0.00 0.00 555.88 137.75" xmlns="http://www.w3.org/2000/svg" xmlns:xlink="http://www.w3.org/1999/xlink">
<g id="graph0" class="graph" transform="scale(1 1) rotate(0) translate(4 133.75)">
<title>TGriffinAngles.h</title>
<!-- Node1 -->
<g id="Node000001" class="node">
<title>Node1</title>
<g id="a_Node000001"><a xlink:title=" ">
<polygon fill="#999999" stroke="#666666" points="331.38,-129.75 247.12,-129.75 247.12,-110.5 331.38,-110.5 331.38,-129.75"/>
<text text-anchor="middle" x="289.25" y="-116.25" font-family="Helvetica,sans-Serif" font-size="10.00">TGriffinAngles.h</text>
</a>
</g>
</g>
<!-- Node2 -->
<g id="Node000002" class="node">
<title>Node2</title>
<g id="a_Node000002"><a xlink:href="_angular_correlation_helper_8hh.html" target="_top" xlink:title=" ">
<polygon fill="white" stroke="#666666" points="138.62,-74.5 1.88,-74.5 1.88,-55.25 138.62,-55.25 138.62,-74.5"/>
<text text-anchor="middle" x="70.25" y="-61" font-family="Helvetica,sans-Serif" font-size="10.00">AngularCorrelationHelper.hh</text>
</a>
</g>
</g>
<!-- Node1&#45;&gt;Node2 -->
<g id="edge1_Node000001_Node000002" class="edge">
<title>Node1&#45;&gt;Node2</title>
<g id="a_edge1_Node000001_Node000002"><a xlink:title=" ">
<path fill="none" stroke="#63b8ff" d="M240.97,-107.38C200.78,-97.61 144.38,-83.9 107.58,-74.95"/>
<polygon fill="#63b8ff" stroke="#63b8ff" points="240.09,-110.77 250.63,-109.73 241.74,-103.97 240.09,-110.77"/>
</a>
</g>
</g>
<!-- Node4 -->
<g id="Node000004" class="node">
<title>Node4</title>
<g id="a_Node000004"><a xlink:href="_angular_correlations_8cxx.html" target="_top" xlink:title=" ">
<polygon fill="white" stroke="#666666" points="273.88,-74.5 156.62,-74.5 156.62,-55.25 273.88,-55.25 273.88,-74.5"/>
<text text-anchor="middle" x="215.25" y="-61" font-family="Helvetica,sans-Serif" font-size="10.00">AngularCorrelations.cxx</text>
</a>
</g>
</g>
<!-- Node1&#45;&gt;Node4 -->
<g id="edge3_Node000001_Node000004" class="edge">
<title>Node1&#45;&gt;Node4</title>
<g id="a_edge3_Node000001_Node000004"><a xlink:title=" ">
<path fill="none" stroke="#63b8ff" d="M267.49,-103.47C254.5,-94.12 238.47,-82.58 227.62,-74.77"/>
<polygon fill="#63b8ff" stroke="#63b8ff" points="265.31,-106.21 275.47,-109.21 269.4,-100.53 265.31,-106.21"/>
</a>
</g>
</g>
<!-- Node5 -->
<g id="Node000005" class="node">
<title>Node5</title>
<g id="a_Node000005"><a xlink:href="_compton_polarimetry_helper_8hh.html" target="_top" xlink:title=" ">
<polygon fill="white" stroke="#666666" points="436.75,-74.5 291.75,-74.5 291.75,-55.25 436.75,-55.25 436.75,-74.5"/>
<text text-anchor="middle" x="364.25" y="-61" font-family="Helvetica,sans-Serif" font-size="10.00">ComptonPolarimetryHelper.hh</text>
</a>
</g>
</g>
<!-- Node1&#45;&gt;Node5 -->
<g id="edge4_Node000001_Node000005" class="edge">
<title>Node1&#45;&gt;Node5</title>
<g id="a_edge4_Node000001_Node000005"><a xlink:title=" ">
<path fill="none" stroke="#63b8ff" d="M311.24,-103.51C324.32,-94.22 340.46,-82.77 351.46,-74.95"/>
<polygon fill="#63b8ff" stroke="#63b8ff" points="309.33,-100.57 303.21,-109.22 313.39,-106.28 309.33,-100.57"/>
</a>
</g>
</g>
<!-- Node7 -->
<g id="Node000007" class="node">
<title>Node7</title>
<g id="a_Node000007"><a xlink:href="_t_griffin_angles_8cxx.html" target="_top" xlink:title=" ">
<polygon fill="white" stroke="#666666" points="547.88,-74.5 454.62,-74.5 454.62,-55.25 547.88,-55.25 547.88,-74.5"/>
<text text-anchor="middle" x="501.25" y="-61" font-family="Helvetica,sans-Serif" font-size="10.00">TGriffinAngles.cxx</text>
</a>
</g>
</g>
<!-- Node1&#45;&gt;Node7 -->
<g id="edge6_Node000001_Node000007" class="edge">
<title>Node1&#45;&gt;Node7</title>
<g id="a_edge6_Node000001_Node000007"><a xlink:title=" ">
<path fill="none" stroke="#63b8ff" d="M336.24,-107.32C375.13,-97.55 429.57,-83.88 465.11,-74.95"/>
<polygon fill="#63b8ff" stroke="#63b8ff" points="335.53,-103.89 326.68,-109.72 337.23,-110.68 335.53,-103.89"/>
</a>
</g>
</g>
<!-- Node3 -->
<g id="Node000003" class="node">
<title>Node3</title>
<g id="a_Node000003"><a xlink:href="_angular_correlation_helper_8cxx.html" target="_top" xlink:title=" ">
<polygon fill="white" stroke="#666666" points="140.5,-19.25 0,-19.25 0,0 140.5,0 140.5,-19.25"/>
<text text-anchor="middle" x="70.25" y="-5.75" font-family="Helvetica,sans-Serif" font-size="10.00">AngularCorrelationHelper.cxx</text>
</a>
</g>
</g>
<!-- Node2&#45;&gt;Node3 -->
<g id="edge2_Node000002_Node000003" class="edge">
<title>Node2&#45;&gt;Node3</title>
<g id="a_edge2_Node000002_Node000003"><a xlink:title=" ">
<path fill="none" stroke="#63b8ff" d="M70.25,-43.63C70.25,-35.34 70.25,-26.17 70.25,-19.61"/>
<polygon fill="#63b8ff" stroke="#63b8ff" points="66.75,-43.57 70.25,-53.57 73.75,-43.57 66.75,-43.57"/>
</a>
</g>
</g>
<!-- Node6 -->
<g id="Node000006" class="node">
<title>Node6</title>
<g id="a_Node000006"><a xlink:href="_compton_polarimetry_helper_8cxx.html" target="_top" xlink:title=" ">
<polygon fill="white" stroke="#666666" points="438.62,-19.25 289.88,-19.25 289.88,0 438.62,0 438.62,-19.25"/>
<text text-anchor="middle" x="364.25" y="-5.75" font-family="Helvetica,sans-Serif" font-size="10.00">ComptonPolarimetryHelper.cxx</text>
</a>
</g>
</g>
<!-- Node5&#45;&gt;Node6 -->
<g id="edge5_Node000005_Node000006" class="edge">
<title>Node5&#45;&gt;Node6</title>
<g id="a_edge5_Node000005_Node000006"><a xlink:title=" ">
<path fill="none" stroke="#63b8ff" d="M364.25,-43.63C364.25,-35.34 364.25,-26.17 364.25,-19.61"/>
<polygon fill="#63b8ff" stroke="#63b8ff" points="360.75,-43.57 364.25,-53.57 367.75,-43.57 360.75,-43.57"/>
</a>
</g>
</g>
</g>
</svg>
