<?xml version="1.0" encoding="UTF-8" standalone="no"?>
<!DOCTYPE svg PUBLIC "-//W3C//DTD SVG 1.1//EN"
 "http://www.w3.org/Graphics/SVG/1.1/DTD/svg11.dtd">
<!-- Generated by graphviz version 12.2.0 (20241103.1931)
 -->
<!-- Title: TGriffinHit.h Pages: 1 -->
<!--zoomable 193 -->

<svg id="main" version="1.1" xmlns="http://www.w3.org/2000/svg" xmlns:xlink="http://www.w3.org/1999/xlink" xml:space="preserve" onload="init(evt)">

<style type="text/css"><![CDATA[
.node, .edge {opacity: 0.7;}
.node.selected, .edge.selected {opacity: 1;}
.edge:hover path { stroke: red; }
.edge:hover polygon { stroke: red; fill: red; }
]]></style>

<defs>
  <circle id="rim" cx="0" cy="0" r="7"/>
  <circle id="rim2" cx="0" cy="0" r="3.5"/>
  <g id="zoomPlus">
    <use xlink:href="#rim" fill="#404040"><set attributeName="fill" to="#808080" begin="zoomplus.mouseover" end="zoomplus.mouseout"/></use>
    <path d="M-4,0h8M0,-4v8" fill="none" stroke="white" stroke-width="1.5" pointer-events="none"/>
  </g>
  <g id="zoomMin">
    <use xlink:href="#rim" fill="#404040"><set attributeName="fill" to="#808080" begin="zoomminus.mouseover" end="zoomminus.mouseout"/></use>
    <path d="M-4,0h8" fill="none" stroke="white" stroke-width="1.5" pointer-events="none"/>
  </g>
  <g id="arrowUp" transform="translate(30 24)">
    <use xlink:href="#rim"/>
    <path pointer-events="none" fill="none" stroke="white" stroke-width="1.5" d="M0,-3.0v7 M-2.5,-0.5L0,-3.0L2.5,-0.5"/>
  </g>
  <g id="arrowRight" transform="rotate(90) translate(36 -43)">
    <use xlink:href="#rim"/>
    <path pointer-events="none" fill="none" stroke="white" stroke-width="1.5" d="M0,-3.0v7 M-2.5,-0.5L0,-3.0L2.5,-0.5"/>
  </g>
  <g id="arrowDown" transform="rotate(180) translate(-30 -48)">
    <use xlink:href="#rim"/>
    <path pointer-events="none" fill="none" stroke="white" stroke-width="1.5" d="M0,-3.0v7 M-2.5,-0.5L0,-3.0L2.5,-0.5"/>
  </g>
  <g id="arrowLeft" transform="rotate(270) translate(-36 17)">
    <use xlink:href="#rim"/>
    <path pointer-events="none" fill="none" stroke="white" stroke-width="1.5" d="M0,-3.0v7 M-2.5,-0.5L0,-3.0L2.5,-0.5"/>
  </g>
  <g id="resetDef">
    <use xlink:href="#rim2" fill="#404040"><set attributeName="fill" to="#808080" begin="reset.mouseover" end="reset.mouseout"/></use>
  </g>
</defs>
<script type="application/ecmascript">
var viewWidth = 3840;
var viewHeight = 193;
var sectionId = 'dynsection-1';
</script>
<script type="application/ecmascript" xlink:href="svg.min.js"/>
<svg id="graph" class="graph">
<g id="viewport">
<title>TGriffinHit.h</title>
<!-- Node1 -->
<g id="Node000001" class="node">
<title>Node1</title>
<g id="a_Node000001"><a xlink:title=" ">
<polygon fill="#999999" stroke="#666666" points="2010.25,-185 1943.25,-185 1943.25,-165.75 2010.25,-165.75 2010.25,-185"/>
<text text-anchor="middle" x="1976.75" y="-171.5" font-family="Helvetica,sans-Serif" font-size="10.00">TGriffinHit.h</text>
</a>
</g>
</g>
<!-- Node2 -->
<g id="Node000002" class="node">
<title>Node2</title>
<g id="a_Node000002"><a xlink:href="_gain_match_g_r_i_f_f_i_n_8cxx.html" target="_top" xlink:title=" ">
<polygon fill="white" stroke="#666666" points="119.5,-74.5 0,-74.5 0,-55.25 119.5,-55.25 119.5,-74.5"/>
<text text-anchor="middle" x="59.75" y="-61" font-family="Helvetica,sans-Serif" font-size="10.00">GainMatchGRIFFIN.cxx</text>
</a>
</g>
</g>
<!-- Node1&#45;&gt;Node2 -->
<g id="edge1_Node000001_Node000002" class="edge">
<title>Node1&#45;&gt;Node2</title>
<g id="a_edge1_Node000001_Node000002"><a xlink:title=" ">
<path fill="none" stroke="#63b8ff" d="M1931.7,-173.11C1724.96,-167.06 846.47,-138.67 128.75,-74.5 125.86,-74.24 122.91,-73.96 119.93,-73.65"/>
<polygon fill="#63b8ff" stroke="#63b8ff" points="1931.36,-176.6 1941.46,-173.39 1931.57,-169.6 1931.36,-176.6"/>
</a>
</g>
</g>
<!-- Node3 -->
<g id="Node000003" class="node">
<title>Node3</title>
<g id="a_Node000003"><a xlink:href="_t_griffin_8h.html" target="_top" xlink:title=" ">
<polygon fill="white" stroke="#666666" points="2003.88,-129.75 1949.62,-129.75 1949.62,-110.5 2003.88,-110.5 2003.88,-129.75"/>
<text text-anchor="middle" x="1976.75" y="-116.25" font-family="Helvetica,sans-Serif" font-size="10.00">TGriffin.h</text>
</a>
</g>
</g>
<!-- Node1&#45;&gt;Node3 -->
<g id="edge2_Node000001_Node000003" class="edge">
<title>Node1&#45;&gt;Node3</title>
<g id="a_edge2_Node000001_Node000003"><a xlink:title=" ">
<path fill="none" stroke="#63b8ff" d="M1976.75,-154.13C1976.75,-145.84 1976.75,-136.67 1976.75,-130.11"/>
<polygon fill="#63b8ff" stroke="#63b8ff" points="1973.25,-154.07 1976.75,-164.07 1980.25,-154.07 1973.25,-154.07"/>
</a>
</g>
</g>
<!-- Node43 -->
<g id="Node000043" class="node">
<title>Node43</title>
<g id="a_Node000043"><a xlink:href="_t_griffin_hit_8cxx.html" target="_top" xlink:title=" ">
<polygon fill="white" stroke="#666666" points="3831.75,-74.5 3755.75,-74.5 3755.75,-55.25 3831.75,-55.25 3831.75,-74.5"/>
<text text-anchor="middle" x="3793.75" y="-61" font-family="Helvetica,sans-Serif" font-size="10.00">TGriffinHit.cxx</text>
</a>
</g>
</g>
<!-- Node1&#45;&gt;Node43 -->
<g id="edge51_Node000001_Node000043" class="edge">
<title>Node1&#45;&gt;Node43</title>
<g id="a_edge51_Node000001_Node000043"><a xlink:title=" ">
<path fill="none" stroke="#63b8ff" d="M2021.94,-173.9C2223.86,-171.36 3063.58,-156.13 3746.75,-74.5 3749.55,-74.17 3752.44,-73.77 3755.34,-73.33"/>
<polygon fill="#63b8ff" stroke="#63b8ff" points="2022.1,-170.4 2012.15,-174.02 2022.19,-177.4 2022.1,-170.4"/>
</a>
</g>
</g>
<!-- Node3&#45;&gt;Node2 -->
<g id="edge32_Node000003_Node000002" class="edge">
<title>Node3&#45;&gt;Node2</title>
<g id="a_edge32_Node000003_Node000002"><a xlink:title=" ">
<path fill="none" stroke="#63b8ff" d="M1938.22,-118.72C1706.75,-116.22 498.57,-102.01 128.75,-74.5 125.86,-74.29 122.91,-74.03 119.93,-73.76"/>
<polygon fill="#63b8ff" stroke="#63b8ff" points="1937.85,-122.22 1947.88,-118.83 1937.92,-115.22 1937.85,-122.22"/>
</a>
</g>
</g>
<!-- Node4 -->
<g id="Node000004" class="node">
<title>Node4</title>
<g id="a_Node000004"><a xlink:href="_alphanumeric_helper_8hh.html" target="_top" xlink:title=" ">
<polygon fill="white" stroke="#666666" points="254,-74.5 137.5,-74.5 137.5,-55.25 254,-55.25 254,-74.5"/>
<text text-anchor="middle" x="195.75" y="-61" font-family="Helvetica,sans-Serif" font-size="10.00">AlphanumericHelper.hh</text>
</a>
</g>
</g>
<!-- Node3&#45;&gt;Node4 -->
<g id="edge3_Node000003_Node000004" class="edge">
<title>Node3&#45;&gt;Node4</title>
<g id="a_edge3_Node000003_Node000004"><a xlink:title=" ">
<path fill="none" stroke="#63b8ff" d="M1937.94,-118.64C1715.93,-115.81 604.91,-100.51 263.75,-74.5 260.66,-74.26 257.51,-73.99 254.32,-73.68"/>
<polygon fill="#63b8ff" stroke="#63b8ff" points="1937.72,-122.14 1947.77,-118.77 1937.81,-115.14 1937.72,-122.14"/>
</a>
</g>
</g>
<!-- Node6 -->
<g id="Node000006" class="node">
<title>Node6</title>
<g id="a_Node000006"><a xlink:href="_alphanumeric_selector_8h.html" target="_top" xlink:title=" ">
<polygon fill="white" stroke="#666666" points="391.12,-74.5 272.38,-74.5 272.38,-55.25 391.12,-55.25 391.12,-74.5"/>
<text text-anchor="middle" x="331.75" y="-61" font-family="Helvetica,sans-Serif" font-size="10.00">AlphanumericSelector.h</text>
</a>
</g>
</g>
<!-- Node3&#45;&gt;Node6 -->
<g id="edge5_Node000003_Node000006" class="edge">
<title>Node3&#45;&gt;Node6</title>
<g id="a_edge5_Node000003_Node000006"><a xlink:title=" ">
<path fill="none" stroke="#63b8ff" d="M1937.93,-119.4C1760.89,-120.35 1012.37,-121.28 400.75,-74.5 397.74,-74.27 394.66,-74 391.55,-73.71"/>
<polygon fill="#63b8ff" stroke="#63b8ff" points="1937.72,-122.9 1947.7,-119.34 1937.68,-115.9 1937.72,-122.9"/>
</a>
</g>
</g>
<!-- Node8 -->
<g id="Node000008" class="node">
<title>Node8</title>
<g id="a_Node000008"><a xlink:href="_angular_correlation_helper_8hh.html" target="_top" xlink:title=" ">
<polygon fill="white" stroke="#666666" points="546.12,-74.5 409.38,-74.5 409.38,-55.25 546.12,-55.25 546.12,-74.5"/>
<text text-anchor="middle" x="477.75" y="-61" font-family="Helvetica,sans-Serif" font-size="10.00">AngularCorrelationHelper.hh</text>
</a>
</g>
</g>
<!-- Node3&#45;&gt;Node8 -->
<g id="edge7_Node000003_Node000008" class="edge">
<title>Node3&#45;&gt;Node8</title>
<g id="a_edge7_Node000003_Node000008"><a xlink:title=" ">
<path fill="none" stroke="#63b8ff" d="M1938.08,-119.05C1772,-118.48 1102.75,-113.73 554.75,-74.5 552.07,-74.31 549.33,-74.09 546.57,-73.86"/>
<polygon fill="#63b8ff" stroke="#63b8ff" points="1938.07,-122.55 1948.08,-119.08 1938.09,-115.55 1938.07,-122.55"/>
</a>
</g>
</g>
<!-- Node10 -->
<g id="Node000010" class="node">
<title>Node10</title>
<g id="a_Node000010"><a xlink:href="_angular_correlation_selector_8h.html" target="_top" xlink:title=" ">
<polygon fill="white" stroke="#666666" points="703.25,-74.5 564.25,-74.5 564.25,-55.25 703.25,-55.25 703.25,-74.5"/>
<text text-anchor="middle" x="633.75" y="-61" font-family="Helvetica,sans-Serif" font-size="10.00">AngularCorrelationSelector.h</text>
</a>
</g>
</g>
<!-- Node3&#45;&gt;Node10 -->
<g id="edge9_Node000003_Node000010" class="edge">
<title>Node3&#45;&gt;Node10</title>
<g id="a_edge9_Node000003_Node000010"><a xlink:title=" ">
<path fill="none" stroke="#63b8ff" d="M1938.41,-118.82C1784.3,-117.37 1195.04,-109.7 711.75,-74.5 709.03,-74.3 706.26,-74.08 703.47,-73.85"/>
<polygon fill="#63b8ff" stroke="#63b8ff" points="1938.02,-122.32 1948.05,-118.91 1938.08,-115.32 1938.02,-122.32"/>
</a>
</g>
</g>
<!-- Node12 -->
<g id="Node000012" class="node">
<title>Node12</title>
<g id="a_Node000012"><a xlink:href="_compton_polarimetry_helper_8hh.html" target="_top" xlink:title=" ">
<polygon fill="white" stroke="#666666" points="866.25,-74.5 721.25,-74.5 721.25,-55.25 866.25,-55.25 866.25,-74.5"/>
<text text-anchor="middle" x="793.75" y="-61" font-family="Helvetica,sans-Serif" font-size="10.00">ComptonPolarimetryHelper.hh</text>
</a>
</g>
</g>
<!-- Node3&#45;&gt;Node12 -->
<g id="edge11_Node000003_Node000012" class="edge">
<title>Node3&#45;&gt;Node12</title>
<g id="a_edge11_Node000003_Node000012"><a xlink:title=" ">
<path fill="none" stroke="#63b8ff" d="M1937.96,-118.48C1795.87,-115.9 1290.39,-105.01 874.75,-74.5 872.07,-74.3 869.34,-74.09 866.59,-73.86"/>
<polygon fill="#63b8ff" stroke="#63b8ff" points="1937.88,-121.97 1947.94,-118.65 1938,-114.98 1937.88,-121.97"/>
</a>
</g>
</g>
<!-- Node14 -->
<g id="Node000014" class="node">
<title>Node14</title>
<g id="a_Node000014"><a xlink:href="_cross_talk_8h.html" target="_top" xlink:title=" ">
<polygon fill="white" stroke="#666666" points="951.62,-74.5 883.88,-74.5 883.88,-55.25 951.62,-55.25 951.62,-74.5"/>
<text text-anchor="middle" x="917.75" y="-61" font-family="Helvetica,sans-Serif" font-size="10.00">CrossTalk.h</text>
</a>
</g>
</g>
<!-- Node3&#45;&gt;Node14 -->
<g id="edge13_Node000003_Node000014" class="edge">
<title>Node3&#45;&gt;Node14</title>
<g id="a_edge13_Node000003_Node000014"><a xlink:title=" ">
<path fill="none" stroke="#63b8ff" d="M1937.78,-119.57C1802.28,-120.65 1339.3,-120.5 960.75,-74.5 957.88,-74.15 954.91,-73.72 951.94,-73.23"/>
<polygon fill="#63b8ff" stroke="#63b8ff" points="1937.66,-123.07 1947.63,-119.48 1937.6,-116.07 1937.66,-123.07"/>
</a>
</g>
</g>
<!-- Node16 -->
<g id="Node000016" class="node">
<title>Node16</title>
<g id="a_Node000016"><a xlink:href="_cross_talk_check_helper_8hh.html" target="_top" xlink:title=" ">
<polygon fill="white" stroke="#666666" points="1099.38,-74.5 970.12,-74.5 970.12,-55.25 1099.38,-55.25 1099.38,-74.5"/>
<text text-anchor="middle" x="1034.75" y="-61" font-family="Helvetica,sans-Serif" font-size="10.00">CrossTalkCheckHelper.hh</text>
</a>
</g>
</g>
<!-- Node3&#45;&gt;Node16 -->
<g id="edge15_Node000003_Node000016" class="edge">
<title>Node3&#45;&gt;Node16</title>
<g id="a_edge15_Node000003_Node000016"><a xlink:title=" ">
<path fill="none" stroke="#63b8ff" d="M1938,-118.05C1815.84,-114.47 1427.88,-101.6 1107.75,-74.5 1105.08,-74.27 1102.36,-74.03 1099.61,-73.76"/>
<polygon fill="#63b8ff" stroke="#63b8ff" points="1937.7,-121.54 1947.8,-118.33 1937.9,-114.55 1937.7,-121.54"/>
</a>
</g>
</g>
<!-- Node18 -->
<g id="Node000018" class="node">
<title>Node18</title>
<g id="a_Node000018"><a xlink:href="_cross_talk_helper_8hh.html" target="_top" xlink:title=" ">
<polygon fill="white" stroke="#666666" points="1218.5,-74.5 1117,-74.5 1117,-55.25 1218.5,-55.25 1218.5,-74.5"/>
<text text-anchor="middle" x="1167.75" y="-61" font-family="Helvetica,sans-Serif" font-size="10.00">CrossTalkHelper.hh</text>
</a>
</g>
</g>
<!-- Node3&#45;&gt;Node18 -->
<g id="edge17_Node000003_Node000018" class="edge">
<title>Node3&#45;&gt;Node18</title>
<g id="a_edge17_Node000003_Node000018"><a xlink:title=" ">
<path fill="none" stroke="#63b8ff" d="M1937.88,-117.95C1826.84,-114.35 1498.78,-102.01 1227.75,-74.5 1224.82,-74.2 1221.81,-73.87 1218.78,-73.51"/>
<polygon fill="#63b8ff" stroke="#63b8ff" points="1937.52,-121.44 1947.63,-118.26 1937.74,-114.45 1937.52,-121.44"/>
</a>
</g>
</g>
<!-- Node20 -->
<g id="Node000020" class="node">
<title>Node20</title>
<g id="a_Node000020"><a xlink:href="_deadtime_8cxx.html" target="_top" xlink:title=" ">
<polygon fill="white" stroke="#666666" points="1310.62,-74.5 1236.88,-74.5 1236.88,-55.25 1310.62,-55.25 1310.62,-74.5"/>
<text text-anchor="middle" x="1273.75" y="-61" font-family="Helvetica,sans-Serif" font-size="10.00">Deadtime.cxx</text>
</a>
</g>
</g>
<!-- Node3&#45;&gt;Node20 -->
<g id="edge19_Node000003_Node000020" class="edge">
<title>Node3&#45;&gt;Node20</title>
<g id="a_edge19_Node000003_Node000020"><a xlink:title=" ">
<path fill="none" stroke="#63b8ff" d="M1937.91,-118.08C1836.1,-115 1553.24,-104.21 1319.75,-74.5 1316.93,-74.14 1314.02,-73.72 1311.1,-73.26"/>
<polygon fill="#63b8ff" stroke="#63b8ff" points="1937.8,-121.58 1947.9,-118.37 1938.01,-114.58 1937.8,-121.58"/>
</a>
</g>
</g>
<!-- Node21 -->
<g id="Node000021" class="node">
<title>Node21</title>
<g id="a_Node000021"><a xlink:href="_directory_helper_8hh.html" target="_top" xlink:title=" ">
<polygon fill="white" stroke="#666666" points="1424.5,-74.5 1329,-74.5 1329,-55.25 1424.5,-55.25 1424.5,-74.5"/>
<text text-anchor="middle" x="1376.75" y="-61" font-family="Helvetica,sans-Serif" font-size="10.00">DirectoryHelper.hh</text>
</a>
</g>
</g>
<!-- Node3&#45;&gt;Node21 -->
<g id="edge20_Node000003_Node000021" class="edge">
<title>Node3&#45;&gt;Node21</title>
<g id="a_edge20_Node000003_Node000021"><a xlink:title=" ">
<path fill="none" stroke="#63b8ff" d="M1937.86,-116.84C1848.58,-111.4 1622.15,-96.47 1433.75,-74.5 1430.87,-74.16 1427.91,-73.79 1424.92,-73.4"/>
<polygon fill="#63b8ff" stroke="#63b8ff" points="1937.58,-120.33 1947.77,-117.44 1938,-113.34 1937.58,-120.33"/>
</a>
</g>
</g>
<!-- Node23 -->
<g id="Node000023" class="node">
<title>Node23</title>
<g id="a_Node000023"><a xlink:href="_example_event_helper_8hh.html" target="_top" xlink:title=" ">
<polygon fill="white" stroke="#666666" points="1561.12,-74.5 1442.38,-74.5 1442.38,-55.25 1561.12,-55.25 1561.12,-74.5"/>
<text text-anchor="middle" x="1501.75" y="-61" font-family="Helvetica,sans-Serif" font-size="10.00">ExampleEventHelper.hh</text>
</a>
</g>
</g>
<!-- Node3&#45;&gt;Node23 -->
<g id="edge22_Node000003_Node000023" class="edge">
<title>Node3&#45;&gt;Node23</title>
<g id="a_edge22_Node000003_Node000023"><a xlink:title=" ">
<path fill="none" stroke="#63b8ff" d="M1937.93,-115.05C1865.64,-107.43 1705.51,-90.33 1570.75,-74.5 1567.75,-74.15 1564.68,-73.78 1561.58,-73.41"/>
<polygon fill="#63b8ff" stroke="#63b8ff" points="1937.35,-118.51 1947.66,-116.08 1938.08,-111.55 1937.35,-118.51"/>
</a>
</g>
</g>
<!-- Node25 -->
<g id="Node000025" class="node">
<title>Node25</title>
<g id="a_Node000025"><a xlink:href="_example_event_selector_8h.html" target="_top" xlink:title=" ">
<polygon fill="white" stroke="#666666" points="1700.25,-74.5 1579.25,-74.5 1579.25,-55.25 1700.25,-55.25 1700.25,-74.5"/>
<text text-anchor="middle" x="1639.75" y="-61" font-family="Helvetica,sans-Serif" font-size="10.00">ExampleEventSelector.h</text>
</a>
</g>
</g>
<!-- Node3&#45;&gt;Node25 -->
<g id="edge24_Node000003_Node000025" class="edge">
<title>Node3&#45;&gt;Node25</title>
<g id="a_edge24_Node000003_Node000025"><a xlink:title=" ">
<path fill="none" stroke="#63b8ff" d="M1938.12,-113.02C1879.14,-103.7 1766.24,-85.86 1697.5,-75"/>
<polygon fill="#63b8ff" stroke="#63b8ff" points="1937.25,-116.43 1947.68,-114.53 1938.35,-109.51 1937.25,-116.43"/>
</a>
</g>
</g>
<!-- Node27 -->
<g id="Node000027" class="node">
<title>Node27</title>
<g id="a_Node000027"><a xlink:href="_example_tree_helper_8hh.html" target="_top" xlink:title=" ">
<polygon fill="white" stroke="#666666" points="1831.5,-74.5 1718,-74.5 1718,-55.25 1831.5,-55.25 1831.5,-74.5"/>
<text text-anchor="middle" x="1774.75" y="-61" font-family="Helvetica,sans-Serif" font-size="10.00">ExampleTreeHelper.hh</text>
</a>
</g>
</g>
<!-- Node3&#45;&gt;Node27 -->
<g id="edge26_Node000003_Node000027" class="edge">
<title>Node3&#45;&gt;Node27</title>
<g id="a_edge26_Node000003_Node000027"><a xlink:title=" ">
<path fill="none" stroke="#63b8ff" d="M1938.61,-109.07C1901.39,-99.26 1845.27,-84.46 1809.32,-74.99"/>
<polygon fill="#63b8ff" stroke="#63b8ff" points="1937.48,-112.39 1948.04,-111.56 1939.27,-105.62 1937.48,-112.39"/>
</a>
</g>
</g>
<!-- Node29 -->
<g id="Node000029" class="node">
<title>Node29</title>
<g id="a_Node000029"><a xlink:href="_example_tree_selector_8h.html" target="_top" xlink:title=" ">
<polygon fill="white" stroke="#666666" points="1965.62,-74.5 1849.88,-74.5 1849.88,-55.25 1965.62,-55.25 1965.62,-74.5"/>
<text text-anchor="middle" x="1907.75" y="-61" font-family="Helvetica,sans-Serif" font-size="10.00">ExampleTreeSelector.h</text>
</a>
</g>
</g>
<!-- Node3&#45;&gt;Node29 -->
<g id="edge28_Node000003_Node000029" class="edge">
<title>Node3&#45;&gt;Node29</title>
<g id="a_edge28_Node000003_Node000029"><a xlink:title=" ">
<path fill="none" stroke="#63b8ff" d="M1956.1,-103.19C1944.05,-93.89 1929.3,-82.51 1919.28,-74.77"/>
<polygon fill="#63b8ff" stroke="#63b8ff" points="1953.79,-105.83 1963.85,-109.17 1958.07,-100.29 1953.79,-105.83"/>
</a>
</g>
</g>
<!-- Node31 -->
<g id="Node000031" class="node">
<title>Node31</title>
<g id="a_Node000031"><a xlink:href="_fast_timing_hist_selector_8h.html" target="_top" xlink:title=" ">
<polygon fill="white" stroke="#666666" points="2109.88,-74.5 1983.62,-74.5 1983.62,-55.25 2109.88,-55.25 2109.88,-74.5"/>
<text text-anchor="middle" x="2046.75" y="-61" font-family="Helvetica,sans-Serif" font-size="10.00">FastTimingHistSelector.h</text>
</a>
</g>
</g>
<!-- Node3&#45;&gt;Node31 -->
<g id="edge30_Node000003_Node000031" class="edge">
<title>Node3&#45;&gt;Node31</title>
<g id="a_edge30_Node000003_Node000031"><a xlink:title=" ">
<path fill="none" stroke="#63b8ff" d="M1997.7,-103.19C2009.92,-93.89 2024.89,-82.51 2035.05,-74.77"/>
<polygon fill="#63b8ff" stroke="#63b8ff" points="1995.67,-100.34 1989.83,-109.18 1999.91,-105.91 1995.67,-100.34"/>
</a>
</g>
</g>
<!-- Node33 -->
<g id="Node000033" class="node">
<title>Node33</title>
<g id="a_Node000033"><a xlink:href="_get_tree_entries_8cxx.html" target="_top" xlink:title=" ">
<polygon fill="white" stroke="#666666" points="2225.62,-74.5 2127.88,-74.5 2127.88,-55.25 2225.62,-55.25 2225.62,-74.5"/>
<text text-anchor="middle" x="2176.75" y="-61" font-family="Helvetica,sans-Serif" font-size="10.00">GetTreeEntries.cxx</text>
</a>
</g>
</g>
<!-- Node3&#45;&gt;Node33 -->
<g id="edge33_Node000003_Node000033" class="edge">
<title>Node3&#45;&gt;Node33</title>
<g id="a_edge33_Node000003_Node000033"><a xlink:title=" ">
<path fill="none" stroke="#63b8ff" d="M2014.96,-108.95C2051.86,-99.13 2107.23,-84.38 2142.67,-74.95"/>
<polygon fill="#63b8ff" stroke="#63b8ff" points="2014.37,-105.49 2005.6,-111.44 2016.17,-112.25 2014.37,-105.49"/>
</a>
</g>
</g>
<!-- Node34 -->
<g id="Node000034" class="node">
<title>Node34</title>
<g id="a_Node000034"><a xlink:href="_griffin_c_t_fix_8cxx.html" target="_top" xlink:title=" ">
<polygon fill="white" stroke="#666666" points="2326.12,-74.5 2243.38,-74.5 2243.38,-55.25 2326.12,-55.25 2326.12,-74.5"/>
<text text-anchor="middle" x="2284.75" y="-61" font-family="Helvetica,sans-Serif" font-size="10.00">GriffinCTFix.cxx</text>
</a>
</g>
</g>
<!-- Node3&#45;&gt;Node34 -->
<g id="edge34_Node000003_Node000034" class="edge">
<title>Node3&#45;&gt;Node34</title>
<g id="a_edge34_Node000003_Node000034"><a xlink:title=" ">
<path fill="none" stroke="#63b8ff" d="M2015.63,-112.4C2073.85,-102.34 2183.24,-83.43 2243.06,-73.08"/>
<polygon fill="#63b8ff" stroke="#63b8ff" points="2015.1,-108.94 2005.85,-114.09 2016.3,-115.84 2015.1,-108.94"/>
</a>
</g>
</g>
<!-- Node35 -->
<g id="Node000035" class="node">
<title>Node35</title>
<g id="a_Node000035"><a xlink:href="_lean_compton_matrices_8cxx.html" target="_top" xlink:title=" ">
<polygon fill="white" stroke="#666666" points="2475.12,-74.5 2344.38,-74.5 2344.38,-55.25 2475.12,-55.25 2475.12,-74.5"/>
<text text-anchor="middle" x="2409.75" y="-61" font-family="Helvetica,sans-Serif" font-size="10.00">LeanComptonMatrices.cxx</text>
</a>
</g>
</g>
<!-- Node3&#45;&gt;Node35 -->
<g id="edge35_Node000003_Node000035" class="edge">
<title>Node3&#45;&gt;Node35</title>
<g id="a_edge35_Node000003_Node000035"><a xlink:title=" ">
<path fill="none" stroke="#63b8ff" d="M2015.27,-114.39C2089.42,-105.27 2252.69,-85.19 2344.24,-73.93"/>
<polygon fill="#63b8ff" stroke="#63b8ff" points="2015.16,-110.87 2005.67,-115.57 2016.02,-117.82 2015.16,-110.87"/>
</a>
</g>
</g>
<!-- Node36 -->
<g id="Node000036" class="node">
<title>Node36</title>
<g id="a_Node000036"><a xlink:href="_simulation_angular_correlation_8cxx.html" target="_top" xlink:title=" ">
<polygon fill="white" stroke="#666666" points="2650.62,-74.5 2492.88,-74.5 2492.88,-55.25 2650.62,-55.25 2650.62,-74.5"/>
<text text-anchor="middle" x="2571.75" y="-61" font-family="Helvetica,sans-Serif" font-size="10.00">SimulationAngularCorrelation.cxx</text>
</a>
</g>
</g>
<!-- Node3&#45;&gt;Node36 -->
<g id="edge36_Node000003_Node000036" class="edge">
<title>Node3&#45;&gt;Node36</title>
<g id="a_edge36_Node000003_Node000036"><a xlink:title=" ">
<path fill="none" stroke="#63b8ff" d="M2015.62,-115.84C2100.57,-108.62 2309.15,-90.74 2483.75,-74.5 2486.65,-74.23 2489.61,-73.95 2492.6,-73.67"/>
<polygon fill="#63b8ff" stroke="#63b8ff" points="2015.41,-112.34 2005.75,-116.67 2016.01,-119.32 2015.41,-112.34"/>
</a>
</g>
</g>
<!-- Node37 -->
<g id="Node000037" class="node">
<title>Node37</title>
<g id="a_Node000037"><a xlink:href="_summing_corrections_helper_8hh.html" target="_top" xlink:title=" ">
<polygon fill="white" stroke="#666666" points="2816.75,-74.5 2668.75,-74.5 2668.75,-55.25 2816.75,-55.25 2816.75,-74.5"/>
<text text-anchor="middle" x="2742.75" y="-61" font-family="Helvetica,sans-Serif" font-size="10.00">SummingCorrectionsHelper.hh</text>
</a>
</g>
</g>
<!-- Node3&#45;&gt;Node37 -->
<g id="edge37_Node000003_Node000037" class="edge">
<title>Node3&#45;&gt;Node37</title>
<g id="a_edge37_Node000003_Node000037"><a xlink:title=" ">
<path fill="none" stroke="#63b8ff" d="M2015.58,-117.11C2119.9,-111.58 2414.87,-95.22 2659.75,-74.5 2662.64,-74.26 2665.58,-74 2668.55,-73.73"/>
<polygon fill="#63b8ff" stroke="#63b8ff" points="2015.42,-113.61 2005.62,-117.64 2015.79,-120.6 2015.42,-113.61"/>
</a>
</g>
</g>
<!-- Node39 -->
<g id="Node000039" class="node">
<title>Node39</title>
<g id="a_Node000039"><a xlink:href="_t_angular_correlation_8cxx.html" target="_top" xlink:title=" ">
<polygon fill="white" stroke="#666666" points="2952.75,-74.5 2834.75,-74.5 2834.75,-55.25 2952.75,-55.25 2952.75,-74.5"/>
<text text-anchor="middle" x="2893.75" y="-61" font-family="Helvetica,sans-Serif" font-size="10.00">TAngularCorrelation.cxx</text>
</a>
</g>
</g>
<!-- Node3&#45;&gt;Node39 -->
<g id="edge39_Node000003_Node000039" class="edge">
<title>Node3&#45;&gt;Node39</title>
<g id="a_edge39_Node000003_Node000039"><a xlink:title=" ">
<path fill="none" stroke="#63b8ff" d="M2015.44,-118.11C2135.72,-114.72 2513.82,-102.44 2825.75,-74.5 2828.59,-74.25 2831.5,-73.96 2834.44,-73.66"/>
<polygon fill="#63b8ff" stroke="#63b8ff" points="2015.7,-114.6 2005.8,-118.37 2015.89,-121.59 2015.7,-114.6"/>
</a>
</g>
</g>
<!-- Node40 -->
<g id="Node000040" class="node">
<title>Node40</title>
<g id="a_Node000040"><a xlink:href="_t_g_r_s_i_mnemonic_8cxx.html" target="_top" xlink:title=" ">
<polygon fill="white" stroke="#666666" points="3078.5,-74.5 2971,-74.5 2971,-55.25 3078.5,-55.25 3078.5,-74.5"/>
<text text-anchor="middle" x="3024.75" y="-61" font-family="Helvetica,sans-Serif" font-size="10.00">TGRSIMnemonic.cxx</text>
</a>
</g>
</g>
<!-- Node3&#45;&gt;Node40 -->
<g id="edge40_Node000003_Node000040" class="edge">
<title>Node3&#45;&gt;Node40</title>
<g id="a_edge40_Node000003_Node000040"><a xlink:title=" ">
<path fill="none" stroke="#63b8ff" d="M2015.73,-118.63C2148.43,-116.67 2594.74,-107.87 2961.75,-74.5 2964.72,-74.23 2967.76,-73.92 2970.83,-73.58"/>
<polygon fill="#63b8ff" stroke="#63b8ff" points="2015.69,-115.13 2005.74,-118.77 2015.79,-122.13 2015.69,-115.13"/>
</a>
</g>
</g>
<!-- Node41 -->
<g id="Node000041" class="node">
<title>Node41</title>
<g id="a_Node000041"><a xlink:href="_t_griffin_8cxx.html" target="_top" xlink:title=" ">
<polygon fill="white" stroke="#666666" points="3159.38,-74.5 3096.12,-74.5 3096.12,-55.25 3159.38,-55.25 3159.38,-74.5"/>
<text text-anchor="middle" x="3127.75" y="-61" font-family="Helvetica,sans-Serif" font-size="10.00">TGriffin.cxx</text>
</a>
</g>
</g>
<!-- Node3&#45;&gt;Node41 -->
<g id="edge41_Node000003_Node000041" class="edge">
<title>Node3&#45;&gt;Node41</title>
<g id="a_edge41_Node000003_Node000041"><a xlink:title=" ">
<path fill="none" stroke="#63b8ff" d="M2015.27,-118.47C2185.78,-115.43 2873.62,-101.68 3087.75,-74.5 3090.43,-74.16 3093.19,-73.73 3095.96,-73.25"/>
<polygon fill="#63b8ff" stroke="#63b8ff" points="2015.35,-114.97 2005.41,-118.64 2015.47,-121.97 2015.35,-114.97"/>
</a>
</g>
</g>
<!-- Node42 -->
<g id="Node000042" class="node">
<title>Node42</title>
<g id="a_Node000042"><a xlink:href="_t_griffin_angles_8cxx.html" target="_top" xlink:title=" ">
<polygon fill="white" stroke="#666666" points="3270.38,-74.5 3177.12,-74.5 3177.12,-55.25 3270.38,-55.25 3270.38,-74.5"/>
<text text-anchor="middle" x="3223.75" y="-61" font-family="Helvetica,sans-Serif" font-size="10.00">TGriffinAngles.cxx</text>
</a>
</g>
</g>
<!-- Node3&#45;&gt;Node42 -->
<g id="edge42_Node000003_Node000042" class="edge">
<title>Node3&#45;&gt;Node42</title>
<g id="a_edge42_Node000003_Node000042"><a xlink:title=" ">
<path fill="none" stroke="#63b8ff" d="M2015.33,-119.33C2164.36,-119.79 2716.69,-118.25 3168.75,-74.5 3171.35,-74.25 3174.01,-73.95 3176.69,-73.63"/>
<polygon fill="#63b8ff" stroke="#63b8ff" points="2015.64,-115.84 2005.63,-119.3 2015.62,-122.84 2015.64,-115.84"/>
</a>
</g>
</g>
<!-- Node3&#45;&gt;Node43 -->
<g id="edge43_Node000003_Node000043" class="edge">
<title>Node3&#45;&gt;Node43</title>
<g id="a_edge43_Node000003_Node000043"><a xlink:title=" ">
<path fill="none" stroke="#63b8ff" d="M2015.45,-118.97C2241.6,-117.96 3394.37,-111.05 3746.75,-74.5 3749.56,-74.21 3752.44,-73.84 3755.35,-73.43"/>
<polygon fill="#63b8ff" stroke="#63b8ff" points="2015.7,-115.47 2005.72,-119.02 2015.74,-122.47 2015.7,-115.47"/>
</a>
</g>
</g>
<!-- Node44 -->
<g id="Node000044" class="node">
<title>Node44</title>
<g id="a_Node000044"><a xlink:href="_tac_offset_helper_8hh.html" target="_top" xlink:title=" ">
<polygon fill="white" stroke="#666666" points="3388.75,-74.5 3288.75,-74.5 3288.75,-55.25 3388.75,-55.25 3388.75,-74.5"/>
<text text-anchor="middle" x="3338.75" y="-61" font-family="Helvetica,sans-Serif" font-size="10.00">TacOffsetHelper.hh</text>
</a>
</g>
</g>
<!-- Node3&#45;&gt;Node44 -->
<g id="edge44_Node000003_Node000044" class="edge">
<title>Node3&#45;&gt;Node44</title>
<g id="a_edge44_Node000003_Node000044"><a xlink:title=" ">
<path fill="none" stroke="#63b8ff" d="M2015.76,-119.37C2173.84,-120.01 2782.1,-119.26 3279.75,-74.5 3282.53,-74.25 3285.39,-73.96 3288.26,-73.63"/>
<polygon fill="#63b8ff" stroke="#63b8ff" points="2015.86,-115.87 2005.84,-119.32 2015.83,-122.87 2015.86,-115.87"/>
</a>
</g>
</g>
<!-- Node46 -->
<g id="Node000046" class="node">
<title>Node46</title>
<g id="a_Node000046"><a xlink:href="_time_walk_helper_8hh.html" target="_top" xlink:title=" ">
<polygon fill="white" stroke="#666666" points="3507.12,-74.5 3406.38,-74.5 3406.38,-55.25 3507.12,-55.25 3507.12,-74.5"/>
<text text-anchor="middle" x="3456.75" y="-61" font-family="Helvetica,sans-Serif" font-size="10.00">TimeWalkHelper.hh</text>
</a>
</g>
</g>
<!-- Node3&#45;&gt;Node46 -->
<g id="edge46_Node000003_Node000046" class="edge">
<title>Node3&#45;&gt;Node46</title>
<g id="a_edge46_Node000003_Node000046"><a xlink:title=" ">
<path fill="none" stroke="#63b8ff" d="M2015.18,-119.52C2180.88,-120.88 2850.6,-122.93 3397.75,-74.5 3400.43,-74.26 3403.18,-73.98 3405.94,-73.68"/>
<polygon fill="#63b8ff" stroke="#63b8ff" points="2015.45,-116.02 2005.42,-119.43 2015.39,-123.02 2015.45,-116.02"/>
</a>
</g>
</g>
<!-- Node48 -->
<g id="Node000048" class="node">
<title>Node48</title>
<g id="a_Node000048"><a xlink:href="_time_walk_selector_8h.html" target="_top" xlink:title=" ">
<polygon fill="white" stroke="#666666" points="3628.25,-74.5 3525.25,-74.5 3525.25,-55.25 3628.25,-55.25 3628.25,-74.5"/>
<text text-anchor="middle" x="3576.75" y="-61" font-family="Helvetica,sans-Serif" font-size="10.00">TimeWalkSelector.h</text>
</a>
</g>
</g>
<!-- Node3&#45;&gt;Node48 -->
<g id="edge48_Node000003_Node000048" class="edge">
<title>Node3&#45;&gt;Node48</title>
<g id="a_edge48_Node000003_Node000048"><a xlink:title=" ">
<path fill="none" stroke="#63b8ff" d="M2015.51,-118.59C2223.72,-115.61 3211.37,-100.35 3515.75,-74.5 3518.73,-74.25 3521.8,-73.95 3524.88,-73.61"/>
<polygon fill="#63b8ff" stroke="#63b8ff" points="2015.73,-115.08 2005.79,-118.73 2015.83,-122.08 2015.73,-115.08"/>
</a>
</g>
</g>
<!-- Node50 -->
<g id="Node000050" class="node">
<title>Node50</title>
<g id="a_Node000050"><a xlink:href="tac__calibrator_8cxx.html" target="_top" xlink:title=" ">
<polygon fill="white" stroke="#666666" points="3737.25,-74.5 3646.25,-74.5 3646.25,-55.25 3737.25,-55.25 3737.25,-74.5"/>
<text text-anchor="middle" x="3691.75" y="-61" font-family="Helvetica,sans-Serif" font-size="10.00">tac_calibrator.cxx</text>
</a>
</g>
</g>
<!-- Node3&#45;&gt;Node50 -->
<g id="edge50_Node000003_Node000050" class="edge">
<title>Node3&#45;&gt;Node50</title>
<g id="a_edge50_Node000003_Node000050"><a xlink:title=" ">
<path fill="none" stroke="#63b8ff" d="M2015.76,-118.77C2234.26,-116.71 3308.1,-105.12 3637.75,-74.5 3640.4,-74.25 3643.11,-73.96 3645.85,-73.63"/>
<polygon fill="#63b8ff" stroke="#63b8ff" points="2015.78,-115.27 2005.81,-118.87 2015.84,-122.27 2015.78,-115.27"/>
</a>
</g>
</g>
<!-- Node5 -->
<g id="Node000005" class="node">
<title>Node5</title>
<g id="a_Node000005"><a xlink:href="_alphanumeric_helper_8cxx.html" target="_top" xlink:title=" ">
<polygon fill="white" stroke="#666666" points="246.88,-19.25 126.62,-19.25 126.62,0 246.88,0 246.88,-19.25"/>
<text text-anchor="middle" x="186.75" y="-5.75" font-family="Helvetica,sans-Serif" font-size="10.00">AlphanumericHelper.cxx</text>
</a>
</g>
</g>
<!-- Node4&#45;&gt;Node5 -->
<g id="edge4_Node000004_Node000005" class="edge">
<title>Node4&#45;&gt;Node5</title>
<g id="a_edge4_Node000004_Node000005"><a xlink:title=" ">
<path fill="none" stroke="#63b8ff" d="M192.38,-43.92C190.96,-35.55 189.39,-26.25 188.27,-19.61"/>
<polygon fill="#63b8ff" stroke="#63b8ff" points="188.89,-44.31 194.01,-53.59 195.8,-43.15 188.89,-44.31"/>
</a>
</g>
</g>
<!-- Node7 -->
<g id="Node000007" class="node">
<title>Node7</title>
<g id="a_Node000007"><a xlink:href="_alphanumeric_selector_8_c.html" target="_top" xlink:title=" ">
<polygon fill="white" stroke="#666666" points="384.88,-19.25 264.62,-19.25 264.62,0 384.88,0 384.88,-19.25"/>
<text text-anchor="middle" x="324.75" y="-5.75" font-family="Helvetica,sans-Serif" font-size="10.00">AlphanumericSelector.C</text>
</a>
</g>
</g>
<!-- Node6&#45;&gt;Node7 -->
<g id="edge6_Node000006_Node000007" class="edge">
<title>Node6&#45;&gt;Node7</title>
<g id="a_edge6_Node000006_Node000007"><a xlink:title=" ">
<path fill="none" stroke="#63b8ff" d="M329.13,-43.92C328.03,-35.55 326.8,-26.25 325.93,-19.61"/>
<polygon fill="#63b8ff" stroke="#63b8ff" points="325.62,-44.12 330.4,-53.58 332.56,-43.21 325.62,-44.12"/>
</a>
</g>
</g>
<!-- Node9 -->
<g id="Node000009" class="node">
<title>Node9</title>
<g id="a_Node000009"><a xlink:href="_angular_correlation_helper_8cxx.html" target="_top" xlink:title=" ">
<polygon fill="white" stroke="#666666" points="543,-19.25 402.5,-19.25 402.5,0 543,0 543,-19.25"/>
<text text-anchor="middle" x="472.75" y="-5.75" font-family="Helvetica,sans-Serif" font-size="10.00">AngularCorrelationHelper.cxx</text>
</a>
</g>
</g>
<!-- Node8&#45;&gt;Node9 -->
<g id="edge8_Node000008_Node000009" class="edge">
<title>Node8&#45;&gt;Node9</title>
<g id="a_edge8_Node000008_Node000009"><a xlink:title=" ">
<path fill="none" stroke="#63b8ff" d="M475.85,-43.63C475.07,-35.34 474.21,-26.17 473.59,-19.61"/>
<polygon fill="#63b8ff" stroke="#63b8ff" points="472.36,-43.95 476.78,-53.57 479.33,-43.29 472.36,-43.95"/>
</a>
</g>
</g>
<!-- Node11 -->
<g id="Node000011" class="node">
<title>Node11</title>
<g id="a_Node000011"><a xlink:href="_angular_correlation_selector_8_c.html" target="_top" xlink:title=" ">
<polygon fill="white" stroke="#666666" points="702,-19.25 561.5,-19.25 561.5,0 702,0 702,-19.25"/>
<text text-anchor="middle" x="631.75" y="-5.75" font-family="Helvetica,sans-Serif" font-size="10.00">AngularCorrelationSelector.C</text>
</a>
</g>
</g>
<!-- Node10&#45;&gt;Node11 -->
<g id="edge10_Node000010_Node000011" class="edge">
<title>Node10&#45;&gt;Node11</title>
<g id="a_edge10_Node000010_Node000011"><a xlink:title=" ">
<path fill="none" stroke="#63b8ff" d="M632.99,-43.63C632.68,-35.34 632.33,-26.17 632.09,-19.61"/>
<polygon fill="#63b8ff" stroke="#63b8ff" points="629.49,-43.71 633.36,-53.57 636.49,-43.45 629.49,-43.71"/>
</a>
</g>
</g>
<!-- Node13 -->
<g id="Node000013" class="node">
<title>Node13</title>
<g id="a_Node000013"><a xlink:href="_compton_polarimetry_helper_8cxx.html" target="_top" xlink:title=" ">
<polygon fill="white" stroke="#666666" points="869.12,-19.25 720.38,-19.25 720.38,0 869.12,0 869.12,-19.25"/>
<text text-anchor="middle" x="794.75" y="-5.75" font-family="Helvetica,sans-Serif" font-size="10.00">ComptonPolarimetryHelper.cxx</text>
</a>
</g>
</g>
<!-- Node12&#45;&gt;Node13 -->
<g id="edge12_Node000012_Node000013" class="edge">
<title>Node12&#45;&gt;Node13</title>
<g id="a_edge12_Node000012_Node000013"><a xlink:title=" ">
<path fill="none" stroke="#63b8ff" d="M794.13,-43.63C794.29,-35.34 794.46,-26.17 794.58,-19.61"/>
<polygon fill="#63b8ff" stroke="#63b8ff" points="790.63,-43.5 793.94,-53.57 797.63,-43.64 790.63,-43.5"/>
</a>
</g>
</g>
<!-- Node15 -->
<g id="Node000015" class="node">
<title>Node15</title>
<g id="a_Node000015"><a xlink:href="_cross_talk_8_c.html" target="_top" xlink:title=" ">
<polygon fill="white" stroke="#666666" points="956.38,-19.25 887.12,-19.25 887.12,0 956.38,0 956.38,-19.25"/>
<text text-anchor="middle" x="921.75" y="-5.75" font-family="Helvetica,sans-Serif" font-size="10.00">CrossTalk.C</text>
</a>
</g>
</g>
<!-- Node14&#45;&gt;Node15 -->
<g id="edge14_Node000014_Node000015" class="edge">
<title>Node14&#45;&gt;Node15</title>
<g id="a_edge14_Node000014_Node000015"><a xlink:title=" ">
<path fill="none" stroke="#63b8ff" d="M919.27,-43.63C919.89,-35.34 920.58,-26.17 921.08,-19.61"/>
<polygon fill="#63b8ff" stroke="#63b8ff" points="915.78,-43.34 918.52,-53.57 922.76,-43.86 915.78,-43.34"/>
</a>
</g>
</g>
<!-- Node17 -->
<g id="Node000017" class="node">
<title>Node17</title>
<g id="a_Node000017"><a xlink:href="_cross_talk_check_helper_8cxx.html" target="_top" xlink:title=" ">
<polygon fill="white" stroke="#666666" points="1107.25,-19.25 974.25,-19.25 974.25,0 1107.25,0 1107.25,-19.25"/>
<text text-anchor="middle" x="1040.75" y="-5.75" font-family="Helvetica,sans-Serif" font-size="10.00">CrossTalkCheckHelper.cxx</text>
</a>
</g>
</g>
<!-- Node16&#45;&gt;Node17 -->
<g id="edge16_Node000016_Node000017" class="edge">
<title>Node16&#45;&gt;Node17</title>
<g id="a_edge16_Node000016_Node000017"><a xlink:title=" ">
<path fill="none" stroke="#63b8ff" d="M1037,-43.92C1037.94,-35.55 1038.99,-26.25 1039.74,-19.61"/>
<polygon fill="#63b8ff" stroke="#63b8ff" points="1033.55,-43.25 1035.91,-53.58 1040.51,-44.03 1033.55,-43.25"/>
</a>
</g>
</g>
<!-- Node19 -->
<g id="Node000019" class="node">
<title>Node19</title>
<g id="a_Node000019"><a xlink:href="_cross_talk_helper_8cxx.html" target="_top" xlink:title=" ">
<polygon fill="white" stroke="#666666" points="1230.38,-19.25 1125.12,-19.25 1125.12,0 1230.38,0 1230.38,-19.25"/>
<text text-anchor="middle" x="1177.75" y="-5.75" font-family="Helvetica,sans-Serif" font-size="10.00">CrossTalkHelper.cxx</text>
</a>
</g>
</g>
<!-- Node18&#45;&gt;Node19 -->
<g id="edge18_Node000018_Node000019" class="edge">
<title>Node18&#45;&gt;Node19</title>
<g id="a_edge18_Node000018_Node000019"><a xlink:title=" ">
<path fill="none" stroke="#63b8ff" d="M1171.5,-43.92C1173.07,-35.55 1174.82,-26.25 1176.06,-19.61"/>
<polygon fill="#63b8ff" stroke="#63b8ff" points="1168.09,-43.12 1169.68,-53.59 1174.97,-44.41 1168.09,-43.12"/>
</a>
</g>
</g>
<!-- Node22 -->
<g id="Node000022" class="node">
<title>Node22</title>
<g id="a_Node000022"><a xlink:href="_directory_helper_8cxx.html" target="_top" xlink:title=" ">
<polygon fill="white" stroke="#666666" points="1417.38,-19.25 1318.12,-19.25 1318.12,0 1417.38,0 1417.38,-19.25"/>
<text text-anchor="middle" x="1367.75" y="-5.75" font-family="Helvetica,sans-Serif" font-size="10.00">DirectoryHelper.cxx</text>
</a>
</g>
</g>
<!-- Node21&#45;&gt;Node22 -->
<g id="edge21_Node000021_Node000022" class="edge">
<title>Node21&#45;&gt;Node22</title>
<g id="a_edge21_Node000021_Node000022"><a xlink:title=" ">
<path fill="none" stroke="#63b8ff" d="M1373.38,-43.92C1371.96,-35.55 1370.39,-26.25 1369.27,-19.61"/>
<polygon fill="#63b8ff" stroke="#63b8ff" points="1369.89,-44.31 1375.01,-53.59 1376.8,-43.15 1369.89,-44.31"/>
</a>
</g>
</g>
<!-- Node24 -->
<g id="Node000024" class="node">
<title>Node24</title>
<g id="a_Node000024"><a xlink:href="_example_event_helper_8cxx.html" target="_top" xlink:title=" ">
<polygon fill="white" stroke="#666666" points="1558,-19.25 1435.5,-19.25 1435.5,0 1558,0 1558,-19.25"/>
<text text-anchor="middle" x="1496.75" y="-5.75" font-family="Helvetica,sans-Serif" font-size="10.00">ExampleEventHelper.cxx</text>
</a>
</g>
</g>
<!-- Node23&#45;&gt;Node24 -->
<g id="edge23_Node000023_Node000024" class="edge">
<title>Node23&#45;&gt;Node24</title>
<g id="a_edge23_Node000023_Node000024"><a xlink:title=" ">
<path fill="none" stroke="#63b8ff" d="M1499.85,-43.63C1499.07,-35.34 1498.21,-26.17 1497.59,-19.61"/>
<polygon fill="#63b8ff" stroke="#63b8ff" points="1496.36,-43.95 1500.78,-53.57 1503.33,-43.29 1496.36,-43.95"/>
</a>
</g>
</g>
<!-- Node26 -->
<g id="Node000026" class="node">
<title>Node26</title>
<g id="a_Node000026"><a xlink:href="_example_event_selector_8_c.html" target="_top" xlink:title=" ">
<polygon fill="white" stroke="#666666" points="1699,-19.25 1576.5,-19.25 1576.5,0 1699,0 1699,-19.25"/>
<text text-anchor="middle" x="1637.75" y="-5.75" font-family="Helvetica,sans-Serif" font-size="10.00">ExampleEventSelector.C</text>
</a>
</g>
</g>
<!-- Node25&#45;&gt;Node26 -->
<g id="edge25_Node000025_Node000026" class="edge">
<title>Node25&#45;&gt;Node26</title>
<g id="a_edge25_Node000025_Node000026"><a xlink:title=" ">
<path fill="none" stroke="#63b8ff" d="M1638.99,-43.63C1638.68,-35.34 1638.33,-26.17 1638.09,-19.61"/>
<polygon fill="#63b8ff" stroke="#63b8ff" points="1635.49,-43.71 1639.36,-53.57 1642.49,-43.45 1635.49,-43.71"/>
</a>
</g>
</g>
<!-- Node28 -->
<g id="Node000028" class="node">
<title>Node28</title>
<g id="a_Node000028"><a xlink:href="_example_tree_helper_8cxx.html" target="_top" xlink:title=" ">
<polygon fill="white" stroke="#666666" points="1834.38,-19.25 1717.12,-19.25 1717.12,0 1834.38,0 1834.38,-19.25"/>
<text text-anchor="middle" x="1775.75" y="-5.75" font-family="Helvetica,sans-Serif" font-size="10.00">ExampleTreeHelper.cxx</text>
</a>
</g>
</g>
<!-- Node27&#45;&gt;Node28 -->
<g id="edge27_Node000027_Node000028" class="edge">
<title>Node27&#45;&gt;Node28</title>
<g id="a_edge27_Node000027_Node000028"><a xlink:title=" ">
<path fill="none" stroke="#63b8ff" d="M1775.13,-43.63C1775.29,-35.34 1775.46,-26.17 1775.58,-19.61"/>
<polygon fill="#63b8ff" stroke="#63b8ff" points="1771.63,-43.5 1774.94,-53.57 1778.63,-43.64 1771.63,-43.5"/>
</a>
</g>
</g>
<!-- Node30 -->
<g id="Node000030" class="node">
<title>Node30</title>
<g id="a_Node000030"><a xlink:href="_example_tree_selector_8_c.html" target="_top" xlink:title=" ">
<polygon fill="white" stroke="#666666" points="1969.38,-19.25 1852.12,-19.25 1852.12,0 1969.38,0 1969.38,-19.25"/>
<text text-anchor="middle" x="1910.75" y="-5.75" font-family="Helvetica,sans-Serif" font-size="10.00">ExampleTreeSelector.C</text>
</a>
</g>
</g>
<!-- Node29&#45;&gt;Node30 -->
<g id="edge29_Node000029_Node000030" class="edge">
<title>Node29&#45;&gt;Node30</title>
<g id="a_edge29_Node000029_Node000030"><a xlink:title=" ">
<path fill="none" stroke="#63b8ff" d="M1908.89,-43.63C1909.36,-35.34 1909.87,-26.17 1910.24,-19.61"/>
<polygon fill="#63b8ff" stroke="#63b8ff" points="1905.4,-43.39 1908.33,-53.57 1912.39,-43.78 1905.4,-43.39"/>
</a>
</g>
</g>
<!-- Node32 -->
<g id="Node000032" class="node">
<title>Node32</title>
<g id="a_Node000032"><a xlink:href="_fast_timing_hist_selector_8_c.html" target="_top" xlink:title=" ">
<polygon fill="white" stroke="#666666" points="2115.62,-19.25 1987.88,-19.25 1987.88,0 2115.62,0 2115.62,-19.25"/>
<text text-anchor="middle" x="2051.75" y="-5.75" font-family="Helvetica,sans-Serif" font-size="10.00">FastTimingHistSelector.C</text>
</a>
</g>
</g>
<!-- Node31&#45;&gt;Node32 -->
<g id="edge31_Node000031_Node000032" class="edge">
<title>Node31&#45;&gt;Node32</title>
<g id="a_edge31_Node000031_Node000032"><a xlink:title=" ">
<path fill="none" stroke="#63b8ff" d="M2048.65,-43.63C2049.43,-35.34 2050.29,-26.17 2050.91,-19.61"/>
<polygon fill="#63b8ff" stroke="#63b8ff" points="2045.17,-43.29 2047.72,-53.57 2052.14,-43.95 2045.17,-43.29"/>
</a>
</g>
</g>
<!-- Node38 -->
<g id="Node000038" class="node">
<title>Node38</title>
<g id="a_Node000038"><a xlink:href="_summing_corrections_helper_8cxx.html" target="_top" xlink:title=" ">
<polygon fill="white" stroke="#666666" points="2818.62,-19.25 2666.88,-19.25 2666.88,0 2818.62,0 2818.62,-19.25"/>
<text text-anchor="middle" x="2742.75" y="-5.75" font-family="Helvetica,sans-Serif" font-size="10.00">SummingCorrectionsHelper.cxx</text>
</a>
</g>
</g>
<!-- Node37&#45;&gt;Node38 -->
<g id="edge38_Node000037_Node000038" class="edge">
<title>Node37&#45;&gt;Node38</title>
<g id="a_edge38_Node000037_Node000038"><a xlink:title=" ">
<path fill="none" stroke="#63b8ff" d="M2742.75,-43.63C2742.75,-35.34 2742.75,-26.17 2742.75,-19.61"/>
<polygon fill="#63b8ff" stroke="#63b8ff" points="2739.25,-43.57 2742.75,-53.57 2746.25,-43.57 2739.25,-43.57"/>
</a>
</g>
</g>
<!-- Node45 -->
<g id="Node000045" class="node">
<title>Node45</title>
<g id="a_Node000045"><a xlink:href="_tac_offset_helper_8cxx.html" target="_top" xlink:title=" ">
<polygon fill="white" stroke="#666666" points="3386.62,-19.25 3282.88,-19.25 3282.88,0 3386.62,0 3386.62,-19.25"/>
<text text-anchor="middle" x="3334.75" y="-5.75" font-family="Helvetica,sans-Serif" font-size="10.00">TacOffsetHelper.cxx</text>
</a>
</g>
</g>
<!-- Node44&#45;&gt;Node45 -->
<g id="edge45_Node000044_Node000045" class="edge">
<title>Node44&#45;&gt;Node45</title>
<g id="a_edge45_Node000044_Node000045"><a xlink:title=" ">
<path fill="none" stroke="#63b8ff" d="M3337.23,-43.63C3336.61,-35.34 3335.92,-26.17 3335.42,-19.61"/>
<polygon fill="#63b8ff" stroke="#63b8ff" points="3333.74,-43.86 3337.98,-53.57 3340.72,-43.34 3333.74,-43.86"/>
</a>
</g>
</g>
<!-- Node47 -->
<g id="Node000047" class="node">
<title>Node47</title>
<g id="a_Node000047"><a xlink:href="_time_walk_helper_8cxx.html" target="_top" xlink:title=" ">
<polygon fill="white" stroke="#666666" points="3509,-19.25 3404.5,-19.25 3404.5,0 3509,0 3509,-19.25"/>
<text text-anchor="middle" x="3456.75" y="-5.75" font-family="Helvetica,sans-Serif" font-size="10.00">TimeWalkHelper.cxx</text>
</a>
</g>
</g>
<!-- Node46&#45;&gt;Node47 -->
<g id="edge47_Node000046_Node000047" class="edge">
<title>Node46&#45;&gt;Node47</title>
<g id="a_edge47_Node000046_Node000047"><a xlink:title=" ">
<path fill="none" stroke="#63b8ff" d="M3456.75,-43.63C3456.75,-35.34 3456.75,-26.17 3456.75,-19.61"/>
<polygon fill="#63b8ff" stroke="#63b8ff" points="3453.25,-43.57 3456.75,-53.57 3460.25,-43.57 3453.25,-43.57"/>
</a>
</g>
</g>
<!-- Node49 -->
<g id="Node000049" class="node">
<title>Node49</title>
<g id="a_Node000049"><a xlink:href="_time_walk_selector_8_c.html" target="_top" xlink:title=" ">
<polygon fill="white" stroke="#666666" points="3632,-19.25 3527.5,-19.25 3527.5,0 3632,0 3632,-19.25"/>
<text text-anchor="middle" x="3579.75" y="-5.75" font-family="Helvetica,sans-Serif" font-size="10.00">TimeWalkSelector.C</text>
</a>
</g>
</g>
<!-- Node48&#45;&gt;Node49 -->
<g id="edge49_Node000048_Node000049" class="edge">
<title>Node48&#45;&gt;Node49</title>
<g id="a_edge49_Node000048_Node000049"><a xlink:title=" ">
<path fill="none" stroke="#63b8ff" d="M3577.89,-43.63C3578.36,-35.34 3578.87,-26.17 3579.24,-19.61"/>
<polygon fill="#63b8ff" stroke="#63b8ff" points="3574.4,-43.39 3577.33,-53.57 3581.39,-43.78 3574.4,-43.39"/>
</a>
</g>
</g>
</g>
</svg>

<g id="navigator" transform="translate(0 0)" fill="#404254">
  <rect fill="#f2f5e9" fill-opacity="0.5" stroke="#606060" stroke-width=".5" x="0" y="0" width="60" height="60"/>
  <use id="zoomplus" xlink:href="#zoomPlus" x="17" y="9" onmousedown="handleZoom(evt,'in')"/>
  <use id="zoomminus" xlink:href="#zoomMin" x="42" y="9" onmousedown="handleZoom(evt,'out')"/>
  <use id="reset" xlink:href="#resetDef" x="30" y="36" onmousedown="handleReset()"/>
   <use id="arrowup" xlink:href="#arrowUp" x="0" y="0" onmousedown="handlePan(0,-1)"/>
  <use id="arrowright" xlink:href="#arrowRight" x="0" y="0" onmousedown="handlePan(1,0)"/>
  <use id="arrowdown" xlink:href="#arrowDown" x="0" y="0" onmousedown="handlePan(0,1)"/>
  <use id="arrowleft" xlink:href="#arrowLeft" x="0" y="0" onmousedown="handlePan(-1,0)"/>
</g>
<svg viewBox="0 0 15 15" width="100%" height="30px" preserveAspectRatio="xMaxYMin meet">
 <g id="arrow_out" transform="scale(0.3 0.3)">
  <a xlink:href="_t_griffin_hit_8h__dep__incl_org.svg" target="_base">
   <rect id="button" ry="5" rx="5" y="6" x="6" height="38" width="38"
        fill="#f2f5e9" fill-opacity="0.5" stroke="#606060" stroke-width="1.0"/>
   <path id="arrow"
     d="M 11.500037,31.436501 C 11.940474,20.09759 22.043105,11.32322 32.158766,21.979434 L 37.068811,17.246167 C 37.068811,17.246167 37.088388,32 37.088388,32 L 22.160133,31.978069 C 22.160133,31.978069 26.997745,27.140456 26.997745,27.140456 C 18.528582,18.264221 13.291696,25.230495 11.500037,31.436501 z"
     style="fill:#404040;"/>
  </a>
 </g>
</svg>

<style type='text/css'>
<![CDATA[
[data-mouse-over-selected='false'] { opacity: 0.7; }
[data-mouse-over-selected='true']  { opacity: 1.0; }
]]>
</style>
<script type="application/ecmascript"><![CDATA[
document.addEventListener('DOMContentLoaded', (event) => {
  highlightEdges();
  highlightAdjacentNodes();
});
]]></script>
</svg>
