<?xml version="1.0" encoding="UTF-8" standalone="no"?>
<!DOCTYPE svg PUBLIC "-//W3C//DTD SVG 1.1//EN"
 "http://www.w3.org/Graphics/SVG/1.1/DTD/svg11.dtd">
<!-- Generated by graphviz version 12.2.0 (20241103.1931)
 -->
<!-- Title: TGRSIUtilities.h Pages: 1 -->
<!--zoomable 83 -->

<svg id="main" version="1.1" xmlns="http://www.w3.org/2000/svg" xmlns:xlink="http://www.w3.org/1999/xlink" xml:space="preserve" onload="init(evt)">

<style type="text/css"><![CDATA[
.node, .edge {opacity: 0.7;}
.node.selected, .edge.selected {opacity: 1;}
.edge:hover path { stroke: red; }
.edge:hover polygon { stroke: red; fill: red; }
]]></style>

<defs>
  <circle id="rim" cx="0" cy="0" r="7"/>
  <circle id="rim2" cx="0" cy="0" r="3.5"/>
  <g id="zoomPlus">
    <use xlink:href="#rim" fill="#404040"><set attributeName="fill" to="#808080" begin="zoomplus.mouseover" end="zoomplus.mouseout"/></use>
    <path d="M-4,0h8M0,-4v8" fill="none" stroke="white" stroke-width="1.5" pointer-events="none"/>
  </g>
  <g id="zoomMin">
    <use xlink:href="#rim" fill="#404040"><set attributeName="fill" to="#808080" begin="zoomminus.mouseover" end="zoomminus.mouseout"/></use>
    <path d="M-4,0h8" fill="none" stroke="white" stroke-width="1.5" pointer-events="none"/>
  </g>
  <g id="arrowUp" transform="translate(30 24)">
    <use xlink:href="#rim"/>
    <path pointer-events="none" fill="none" stroke="white" stroke-width="1.5" d="M0,-3.0v7 M-2.5,-0.5L0,-3.0L2.5,-0.5"/>
  </g>
  <g id="arrowRight" transform="rotate(90) translate(36 -43)">
    <use xlink:href="#rim"/>
    <path pointer-events="none" fill="none" stroke="white" stroke-width="1.5" d="M0,-3.0v7 M-2.5,-0.5L0,-3.0L2.5,-0.5"/>
  </g>
  <g id="arrowDown" transform="rotate(180) translate(-30 -48)">
    <use xlink:href="#rim"/>
    <path pointer-events="none" fill="none" stroke="white" stroke-width="1.5" d="M0,-3.0v7 M-2.5,-0.5L0,-3.0L2.5,-0.5"/>
  </g>
  <g id="arrowLeft" transform="rotate(270) translate(-36 17)">
    <use xlink:href="#rim"/>
    <path pointer-events="none" fill="none" stroke="white" stroke-width="1.5" d="M0,-3.0v7 M-2.5,-0.5L0,-3.0L2.5,-0.5"/>
  </g>
  <g id="resetDef">
    <use xlink:href="#rim2" fill="#404040"><set attributeName="fill" to="#808080" begin="reset.mouseover" end="reset.mouseout"/></use>
  </g>
</defs>
<script type="application/ecmascript">
var viewWidth = 1143;
var viewHeight = 83;
var sectionId = 'dynsection-1';
</script>
<script type="application/ecmascript" xlink:href="svg.min.js"/>
<svg id="graph" class="graph">
<g id="viewport">
<title>TGRSIUtilities.h</title>
<!-- Node1 -->
<g id="Node000001" class="node">
<title>Node1</title>
<g id="a_Node000001"><a xlink:title=" ">
<polygon fill="#999999" stroke="#666666" points="640.62,-74.5 554.12,-74.5 554.12,-55.25 640.62,-55.25 640.62,-74.5"/>
<text text-anchor="middle" x="597.38" y="-61" font-family="Helvetica,sans-Serif" font-size="10.00">TGRSIUtilities.h</text>
</a>
</g>
</g>
<!-- Node2 -->
<g id="Node000002" class="node">
<title>Node2</title>
<g id="a_Node000002"><a xlink:href="_g_value_8cxx.html" target="_top" xlink:title=" ">
<polygon fill="white" stroke="#666666" points="64.75,-19.25 0,-19.25 0,0 64.75,0 64.75,-19.25"/>
<text text-anchor="middle" x="32.38" y="-5.75" font-family="Helvetica,sans-Serif" font-size="10.00">GValue.cxx</text>
</a>
</g>
</g>
<!-- Node1&#45;&gt;Node2 -->
<g id="edge1_Node000001_Node000002" class="edge">
<title>Node1&#45;&gt;Node2</title>
<g id="a_edge1_Node000001_Node000002"><a xlink:title=" ">
<path fill="none" stroke="#63b8ff" d="M542.28,-61.4C446.52,-56.62 243.33,-44.27 73.38,-19.25 70.64,-18.85 67.81,-18.37 64.98,-17.86"/>
<polygon fill="#63b8ff" stroke="#63b8ff" points="542.02,-64.9 552.18,-61.89 542.36,-57.9 542.02,-64.9"/>
</a>
</g>
</g>
<!-- Node3 -->
<g id="Node000003" class="node">
<title>Node3</title>
<g id="a_Node000003"><a xlink:href="_t_analysis_options_8cxx.html" target="_top" xlink:title=" ">
<polygon fill="white" stroke="#666666" points="191.88,-19.25 82.88,-19.25 82.88,0 191.88,0 191.88,-19.25"/>
<text text-anchor="middle" x="137.38" y="-5.75" font-family="Helvetica,sans-Serif" font-size="10.00">TAnalysisOptions.cxx</text>
</a>
</g>
</g>
<!-- Node1&#45;&gt;Node3 -->
<g id="edge2_Node000001_Node000003" class="edge">
<title>Node1&#45;&gt;Node3</title>
<g id="a_edge2_Node000001_Node000003"><a xlink:title=" ">
<path fill="none" stroke="#63b8ff" d="M542.6,-58.14C465.98,-50.02 322.47,-34.47 200.38,-19.25 197.75,-18.92 195.06,-18.58 192.34,-18.23"/>
<polygon fill="#63b8ff" stroke="#63b8ff" points="542.05,-61.6 552.36,-59.17 542.78,-54.64 542.05,-61.6"/>
</a>
</g>
</g>
<!-- Node4 -->
<g id="Node000004" class="node">
<title>Node4</title>
<g id="a_Node000004"><a xlink:href="_t_channel_8cxx.html" target="_top" xlink:title=" ">
<polygon fill="white" stroke="#666666" points="283.25,-19.25 209.5,-19.25 209.5,0 283.25,0 283.25,-19.25"/>
<text text-anchor="middle" x="246.38" y="-5.75" font-family="Helvetica,sans-Serif" font-size="10.00">TChannel.cxx</text>
</a>
</g>
</g>
<!-- Node1&#45;&gt;Node4 -->
<g id="edge3_Node000001_Node000004" class="edge">
<title>Node1&#45;&gt;Node4</title>
<g id="a_edge3_Node000001_Node000004"><a xlink:title=" ">
<path fill="none" stroke="#63b8ff" d="M542.55,-56.53C481.42,-48.18 379.65,-33.81 292.38,-19.25 289.49,-18.77 286.51,-18.25 283.51,-17.72"/>
<polygon fill="#63b8ff" stroke="#63b8ff" points="541.97,-59.98 552.35,-57.86 542.92,-53.04 541.97,-59.98"/>
</a>
</g>
</g>
<!-- Node5 -->
<g id="Node000005" class="node">
<title>Node5</title>
<g id="a_Node000005"><a xlink:href="_t_data_frame_library_8cxx.html" target="_top" xlink:title=" ">
<polygon fill="white" stroke="#666666" points="417.25,-19.25 301.5,-19.25 301.5,0 417.25,0 417.25,-19.25"/>
<text text-anchor="middle" x="359.38" y="-5.75" font-family="Helvetica,sans-Serif" font-size="10.00">TDataFrameLibrary.cxx</text>
</a>
</g>
</g>
<!-- Node1&#45;&gt;Node5 -->
<g id="edge4_Node000001_Node000005" class="edge">
<title>Node1&#45;&gt;Node5</title>
<g id="a_edge4_Node000001_Node000005"><a xlink:title=" ">
<path fill="none" stroke="#63b8ff" d="M545.74,-52.32C501.98,-42.53 440.09,-28.69 399.85,-19.68"/>
<polygon fill="#63b8ff" stroke="#63b8ff" points="544.73,-55.68 555.25,-54.45 546.26,-48.85 544.73,-55.68"/>
</a>
</g>
</g>
<!-- Node6 -->
<g id="Node000006" class="node">
<title>Node6</title>
<g id="a_Node000006"><a xlink:href="_t_g_r_s_i_options_8cxx.html" target="_top" xlink:title=" ">
<polygon fill="white" stroke="#666666" points="531.5,-19.25 435.25,-19.25 435.25,0 531.5,0 531.5,-19.25"/>
<text text-anchor="middle" x="483.38" y="-5.75" font-family="Helvetica,sans-Serif" font-size="10.00">TGRSIOptions.cxx</text>
</a>
</g>
</g>
<!-- Node1&#45;&gt;Node6 -->
<g id="edge5_Node000001_Node000006" class="edge">
<title>Node1&#45;&gt;Node6</title>
<g id="a_edge5_Node000001_Node000006"><a xlink:title=" ">
<path fill="none" stroke="#63b8ff" d="M567.69,-50.01C547.22,-40.45 520.61,-28.02 502.81,-19.7"/>
<polygon fill="#63b8ff" stroke="#63b8ff" points="566.12,-53.14 576.67,-54.2 569.09,-46.8 566.12,-53.14"/>
</a>
</g>
</g>
<!-- Node7 -->
<g id="Node000007" class="node">
<title>Node7</title>
<g id="a_Node000007"><a xlink:href="_t_g_r_s_i_utilities_8cxx.html" target="_top" xlink:title=" ">
<polygon fill="white" stroke="#666666" points="645.12,-19.25 549.62,-19.25 549.62,0 645.12,0 645.12,-19.25"/>
<text text-anchor="middle" x="597.38" y="-5.75" font-family="Helvetica,sans-Serif" font-size="10.00">TGRSIUtilities.cxx</text>
</a>
</g>
</g>
<!-- Node1&#45;&gt;Node7 -->
<g id="edge6_Node000001_Node000007" class="edge">
<title>Node1&#45;&gt;Node7</title>
<g id="a_edge6_Node000001_Node000007"><a xlink:title=" ">
<path fill="none" stroke="#63b8ff" d="M597.38,-43.63C597.38,-35.34 597.38,-26.17 597.38,-19.61"/>
<polygon fill="#63b8ff" stroke="#63b8ff" points="593.88,-43.57 597.38,-53.57 600.88,-43.57 593.88,-43.57"/>
</a>
</g>
</g>
<!-- Node8 -->
<g id="Node000008" class="node">
<title>Node8</title>
<g id="a_Node000008"><a xlink:href="_t_g_r_s_iint_8cxx.html" target="_top" xlink:title=" ">
<polygon fill="white" stroke="#666666" points="735.88,-19.25 662.88,-19.25 662.88,0 735.88,0 735.88,-19.25"/>
<text text-anchor="middle" x="699.38" y="-5.75" font-family="Helvetica,sans-Serif" font-size="10.00">TGRSIint.cxx</text>
</a>
</g>
</g>
<!-- Node1&#45;&gt;Node8 -->
<g id="edge7_Node000001_Node000008" class="edge">
<title>Node1&#45;&gt;Node8</title>
<g id="a_edge7_Node000001_Node000008"><a xlink:title=" ">
<path fill="none" stroke="#63b8ff" d="M624.7,-49.61C642.91,-40.11 666.28,-27.9 681.99,-19.7"/>
<polygon fill="#63b8ff" stroke="#63b8ff" points="623.26,-46.41 616.02,-54.14 626.5,-52.62 623.26,-46.41"/>
</a>
</g>
</g>
<!-- Node9 -->
<g id="Node000009" class="node">
<title>Node9</title>
<g id="a_Node000009"><a xlink:href="_t_parser_library_8cxx.html" target="_top" xlink:title=" ">
<polygon fill="white" stroke="#666666" points="850.5,-19.25 754.25,-19.25 754.25,0 850.5,0 850.5,-19.25"/>
<text text-anchor="middle" x="802.38" y="-5.75" font-family="Helvetica,sans-Serif" font-size="10.00">TParserLibrary.cxx</text>
</a>
</g>
</g>
<!-- Node1&#45;&gt;Node9 -->
<g id="edge8_Node000001_Node000009" class="edge">
<title>Node1&#45;&gt;Node9</title>
<g id="a_edge8_Node000001_Node000009"><a xlink:title=" ">
<path fill="none" stroke="#63b8ff" d="M642.81,-52.07C680.42,-42.3 733.06,-28.63 767.43,-19.7"/>
<polygon fill="#63b8ff" stroke="#63b8ff" points="642.41,-48.56 633.62,-54.46 644.17,-55.33 642.41,-48.56"/>
</a>
</g>
</g>
<!-- Node10 -->
<g id="Node000010" class="node">
<title>Node10</title>
<g id="a_Node000010"><a xlink:href="_t_run_info_8cxx.html" target="_top" xlink:title=" ">
<polygon fill="white" stroke="#666666" points="940.5,-19.25 868.25,-19.25 868.25,0 940.5,0 940.5,-19.25"/>
<text text-anchor="middle" x="904.38" y="-5.75" font-family="Helvetica,sans-Serif" font-size="10.00">TRunInfo.cxx</text>
</a>
</g>
</g>
<!-- Node1&#45;&gt;Node10 -->
<g id="edge9_Node000001_Node000010" class="edge">
<title>Node1&#45;&gt;Node10</title>
<g id="a_edge9_Node000001_Node000010"><a xlink:title=" ">
<path fill="none" stroke="#63b8ff" d="M652.18,-54.88C705.23,-46.09 787.89,-32.19 859.38,-19.25 862.19,-18.74 865.11,-18.2 868.04,-17.66"/>
<polygon fill="#63b8ff" stroke="#63b8ff" points="651.79,-51.4 642.49,-56.48 652.93,-58.3 651.79,-51.4"/>
</a>
</g>
</g>
<!-- Node11 -->
<g id="Node000011" class="node">
<title>Node11</title>
<g id="a_Node000011"><a xlink:href="_t_s_r_i_m_8cxx.html" target="_top" xlink:title=" ">
<polygon fill="white" stroke="#666666" points="1022,-19.25 958.75,-19.25 958.75,0 1022,0 1022,-19.25"/>
<text text-anchor="middle" x="990.38" y="-5.75" font-family="Helvetica,sans-Serif" font-size="10.00">TSRIM.cxx</text>
</a>
</g>
</g>
<!-- Node1&#45;&gt;Node11 -->
<g id="edge10_Node000001_Node000011" class="edge">
<title>Node1&#45;&gt;Node11</title>
<g id="a_edge10_Node000001_Node000011"><a xlink:title=" ">
<path fill="none" stroke="#63b8ff" d="M651.97,-58.35C721.33,-51 844.65,-36.87 949.38,-19.25 952.39,-18.74 955.52,-18.17 958.64,-17.57"/>
<polygon fill="#63b8ff" stroke="#63b8ff" points="651.98,-54.82 642.4,-59.35 652.71,-61.79 651.98,-54.82"/>
</a>
</g>
</g>
<!-- Node12 -->
<g id="Node000012" class="node">
<title>Node12</title>
<g id="a_Node000012"><a xlink:href="_t_user_settings_8cxx.html" target="_top" xlink:title=" ">
<polygon fill="white" stroke="#666666" points="1135.12,-19.25 1039.62,-19.25 1039.62,0 1135.12,0 1135.12,-19.25"/>
<text text-anchor="middle" x="1087.38" y="-5.75" font-family="Helvetica,sans-Serif" font-size="10.00">TUserSettings.cxx</text>
</a>
</g>
</g>
<!-- Node1&#45;&gt;Node12 -->
<g id="edge11_Node000001_Node000012" class="edge">
<title>Node1&#45;&gt;Node12</title>
<g id="a_edge11_Node000001_Node000012"><a xlink:title=" ">
<path fill="none" stroke="#63b8ff" d="M652.23,-59.13C734.67,-51.79 895.36,-36.71 1031.38,-19.25 1033.91,-18.92 1036.51,-18.58 1039.13,-18.21"/>
<polygon fill="#63b8ff" stroke="#63b8ff" points="652.05,-55.63 642.39,-60 652.66,-62.6 652.05,-55.63"/>
</a>
</g>
</g>
</g>
</svg>

<g id="navigator" transform="translate(0 0)" fill="#404254">
  <rect fill="#f2f5e9" fill-opacity="0.5" stroke="#606060" stroke-width=".5" x="0" y="0" width="60" height="60"/>
  <use id="zoomplus" xlink:href="#zoomPlus" x="17" y="9" onmousedown="handleZoom(evt,'in')"/>
  <use id="zoomminus" xlink:href="#zoomMin" x="42" y="9" onmousedown="handleZoom(evt,'out')"/>
  <use id="reset" xlink:href="#resetDef" x="30" y="36" onmousedown="handleReset()"/>
   <use id="arrowup" xlink:href="#arrowUp" x="0" y="0" onmousedown="handlePan(0,-1)"/>
  <use id="arrowright" xlink:href="#arrowRight" x="0" y="0" onmousedown="handlePan(1,0)"/>
  <use id="arrowdown" xlink:href="#arrowDown" x="0" y="0" onmousedown="handlePan(0,1)"/>
  <use id="arrowleft" xlink:href="#arrowLeft" x="0" y="0" onmousedown="handlePan(-1,0)"/>
</g>
<svg viewBox="0 0 15 15" width="100%" height="30px" preserveAspectRatio="xMaxYMin meet">
 <g id="arrow_out" transform="scale(0.3 0.3)">
  <a xlink:href="_t_g_r_s_i_utilities_8h__dep__incl_org.svg" target="_base">
   <rect id="button" ry="5" rx="5" y="6" x="6" height="38" width="38"
        fill="#f2f5e9" fill-opacity="0.5" stroke="#606060" stroke-width="1.0"/>
   <path id="arrow"
     d="M 11.500037,31.436501 C 11.940474,20.09759 22.043105,11.32322 32.158766,21.979434 L 37.068811,17.246167 C 37.068811,17.246167 37.088388,32 37.088388,32 L 22.160133,31.978069 C 22.160133,31.978069 26.997745,27.140456 26.997745,27.140456 C 18.528582,18.264221 13.291696,25.230495 11.500037,31.436501 z"
     style="fill:#404040;"/>
  </a>
 </g>
</svg>

<style type='text/css'>
<![CDATA[
[data-mouse-over-selected='false'] { opacity: 0.7; }
[data-mouse-over-selected='true']  { opacity: 1.0; }
]]>
</style>
<script type="application/ecmascript"><![CDATA[
document.addEventListener('DOMContentLoaded', (event) => {
  highlightEdges();
  highlightAdjacentNodes();
});
]]></script>
</svg>
