<?xml version="1.0" encoding="UTF-8" standalone="no"?>
<!DOCTYPE svg PUBLIC "-//W3C//DTD SVG 1.1//EN"
 "http://www.w3.org/Graphics/SVG/1.1/DTD/svg11.dtd">
<!-- Generated by graphviz version 9.0.0 (20230911.1827)
 -->
<!-- Title: TGRSIUtilities.h Pages: 1 -->
<svg width="1062pt" height="83pt"
 viewBox="0.00 0.00 1062.12 82.50" xmlns="http://www.w3.org/2000/svg" xmlns:xlink="http://www.w3.org/1999/xlink">
<g id="graph0" class="graph" transform="scale(1 1) rotate(0) translate(4 78.5)">
<title>TGRSIUtilities.h</title>
<!-- Node1 -->
<g id="Node000001" class="node">
<title>Node1</title>
<g id="a_Node000001"><a xlink:title=" ">
<polygon fill="#999999" stroke="#666666" points="583.62,-74.5 497.12,-74.5 497.12,-55.25 583.62,-55.25 583.62,-74.5"/>
<text text-anchor="middle" x="540.38" y="-61" font-family="Helvetica,sans-Serif" font-size="10.00">TGRSIUtilities.h</text>
</a>
</g>
</g>
<!-- Node2 -->
<g id="Node000002" class="node">
<title>Node2</title>
<g id="a_Node000002"><a xlink:href="_g_value_8cxx.html" target="_top" xlink:title=" ">
<polygon fill="white" stroke="#666666" points="64.75,-19.25 0,-19.25 0,0 64.75,0 64.75,-19.25"/>
<text text-anchor="middle" x="32.38" y="-5.75" font-family="Helvetica,sans-Serif" font-size="10.00">GValue.cxx</text>
</a>
</g>
</g>
<!-- Node1&#45;&gt;Node2 -->
<g id="edge1_Node000001_Node000002" class="edge">
<title>Node1&#45;&gt;Node2</title>
<g id="a_edge1_Node000001_Node000002"><a xlink:title=" ">
<path fill="none" stroke="#63b8ff" d="M485.47,-60.63C397.94,-55.01 221.51,-41.84 73.38,-19.25 70.64,-18.83 67.82,-18.35 64.99,-17.83"/>
<polygon fill="#63b8ff" stroke="#63b8ff" points="485,-64.11 495.21,-61.25 485.45,-57.12 485,-64.11"/>
</a>
</g>
</g>
<!-- Node3 -->
<g id="Node000003" class="node">
<title>Node3</title>
<g id="a_Node000003"><a xlink:href="_t_analysis_options_8cxx.html" target="_top" xlink:title=" ">
<polygon fill="white" stroke="#666666" points="191.88,-19.25 82.88,-19.25 82.88,0 191.88,0 191.88,-19.25"/>
<text text-anchor="middle" x="137.38" y="-5.75" font-family="Helvetica,sans-Serif" font-size="10.00">TAnalysisOptions.cxx</text>
</a>
</g>
</g>
<!-- Node1&#45;&gt;Node3 -->
<g id="edge2_Node000001_Node000003" class="edge">
<title>Node1&#45;&gt;Node3</title>
<g id="a_edge2_Node000001_Node000003"><a xlink:title=" ">
<path fill="none" stroke="#63b8ff" d="M485.75,-56.8C418.57,-48.08 301.06,-32.75 200.38,-19.25 197.75,-18.9 195.06,-18.54 192.35,-18.17"/>
<polygon fill="#63b8ff" stroke="#63b8ff" points="485.02,-60.24 495.39,-58.05 485.92,-53.29 485.02,-60.24"/>
</a>
</g>
</g>
<!-- Node4 -->
<g id="Node000004" class="node">
<title>Node4</title>
<g id="a_Node000004"><a xlink:href="_t_channel_8cxx.html" target="_top" xlink:title=" ">
<polygon fill="white" stroke="#666666" points="283.25,-19.25 209.5,-19.25 209.5,0 283.25,0 283.25,-19.25"/>
<text text-anchor="middle" x="246.38" y="-5.75" font-family="Helvetica,sans-Serif" font-size="10.00">TChannel.cxx</text>
</a>
</g>
</g>
<!-- Node1&#45;&gt;Node4 -->
<g id="edge3_Node000001_Node000004" class="edge">
<title>Node1&#45;&gt;Node4</title>
<g id="a_edge3_Node000001_Node000004"><a xlink:title=" ">
<path fill="none" stroke="#63b8ff" d="M485.65,-54.15C435.39,-45.18 358.84,-31.46 292.38,-19.25 289.5,-18.72 286.52,-18.17 283.53,-17.62"/>
<polygon fill="#63b8ff" stroke="#63b8ff" points="484.95,-57.58 495.41,-55.89 486.18,-50.69 484.95,-57.58"/>
</a>
</g>
</g>
<!-- Node5 -->
<g id="Node000005" class="node">
<title>Node5</title>
<g id="a_Node000005"><a xlink:href="_t_data_frame_library_8cxx.html" target="_top" xlink:title=" ">
<polygon fill="white" stroke="#666666" points="417.25,-19.25 301.5,-19.25 301.5,0 417.25,0 417.25,-19.25"/>
<text text-anchor="middle" x="359.38" y="-5.75" font-family="Helvetica,sans-Serif" font-size="10.00">TDataFrameLibrary.cxx</text>
</a>
</g>
</g>
<!-- Node1&#45;&gt;Node5 -->
<g id="edge4_Node000001_Node000005" class="edge">
<title>Node1&#45;&gt;Node5</title>
<g id="a_edge4_Node000001_Node000005"><a xlink:title=" ">
<path fill="none" stroke="#63b8ff" d="M498.97,-51.69C465.86,-41.95 420.19,-28.52 390.23,-19.7"/>
<polygon fill="#63b8ff" stroke="#63b8ff" points="497.64,-54.95 508.22,-54.41 499.61,-48.23 497.64,-54.95"/>
</a>
</g>
</g>
<!-- Node6 -->
<g id="Node000006" class="node">
<title>Node6</title>
<g id="a_Node000006"><a xlink:href="_t_g_r_s_i_options_8cxx.html" target="_top" xlink:title=" ">
<polygon fill="white" stroke="#666666" points="531.5,-19.25 435.25,-19.25 435.25,0 531.5,0 531.5,-19.25"/>
<text text-anchor="middle" x="483.38" y="-5.75" font-family="Helvetica,sans-Serif" font-size="10.00">TGRSIOptions.cxx</text>
</a>
</g>
</g>
<!-- Node1&#45;&gt;Node6 -->
<g id="edge5_Node000001_Node000006" class="edge">
<title>Node1&#45;&gt;Node6</title>
<g id="a_edge5_Node000001_Node000006"><a xlink:title=" ">
<path fill="none" stroke="#63b8ff" d="M522.43,-47.11C512.64,-37.97 500.93,-27.03 492.9,-19.52"/>
<polygon fill="#63b8ff" stroke="#63b8ff" points="519.9,-49.54 529.6,-53.81 524.68,-44.42 519.9,-49.54"/>
</a>
</g>
</g>
<!-- Node7 -->
<g id="Node000007" class="node">
<title>Node7</title>
<g id="a_Node000007"><a xlink:href="_t_g_r_s_i_utilities_8cxx.html" target="_top" xlink:title=" ">
<polygon fill="white" stroke="#666666" points="645.12,-19.25 549.62,-19.25 549.62,0 645.12,0 645.12,-19.25"/>
<text text-anchor="middle" x="597.38" y="-5.75" font-family="Helvetica,sans-Serif" font-size="10.00">TGRSIUtilities.cxx</text>
</a>
</g>
</g>
<!-- Node1&#45;&gt;Node7 -->
<g id="edge6_Node000001_Node000007" class="edge">
<title>Node1&#45;&gt;Node7</title>
<g id="a_edge6_Node000001_Node000007"><a xlink:title=" ">
<path fill="none" stroke="#63b8ff" d="M558.32,-47.11C568.11,-37.97 579.82,-27.03 587.85,-19.52"/>
<polygon fill="#63b8ff" stroke="#63b8ff" points="556.07,-44.42 551.15,-53.81 560.85,-49.54 556.07,-44.42"/>
</a>
</g>
</g>
<!-- Node8 -->
<g id="Node000008" class="node">
<title>Node8</title>
<g id="a_Node000008"><a xlink:href="_t_g_r_s_iint_8cxx.html" target="_top" xlink:title=" ">
<polygon fill="white" stroke="#666666" points="735.88,-19.25 662.88,-19.25 662.88,0 735.88,0 735.88,-19.25"/>
<text text-anchor="middle" x="699.38" y="-5.75" font-family="Helvetica,sans-Serif" font-size="10.00">TGRSIint.cxx</text>
</a>
</g>
</g>
<!-- Node1&#45;&gt;Node8 -->
<g id="edge7_Node000001_Node000008" class="edge">
<title>Node1&#45;&gt;Node8</title>
<g id="a_edge7_Node000001_Node000008"><a xlink:title=" ">
<path fill="none" stroke="#63b8ff" d="M577.89,-51.31C606.88,-41.6 646.3,-28.4 672.27,-19.7"/>
<polygon fill="#63b8ff" stroke="#63b8ff" points="577.15,-47.87 568.78,-54.36 579.38,-54.5 577.15,-47.87"/>
</a>
</g>
</g>
<!-- Node9 -->
<g id="Node000009" class="node">
<title>Node9</title>
<g id="a_Node000009"><a xlink:href="_t_parser_library_8cxx.html" target="_top" xlink:title=" ">
<polygon fill="white" stroke="#666666" points="850.5,-19.25 754.25,-19.25 754.25,0 850.5,0 850.5,-19.25"/>
<text text-anchor="middle" x="802.38" y="-5.75" font-family="Helvetica,sans-Serif" font-size="10.00">TParserLibrary.cxx</text>
</a>
</g>
</g>
<!-- Node1&#45;&gt;Node9 -->
<g id="edge8_Node000001_Node000009" class="edge">
<title>Node1&#45;&gt;Node9</title>
<g id="a_edge8_Node000001_Node000009"><a xlink:title=" ">
<path fill="none" stroke="#63b8ff" d="M595.11,-52.75C643.4,-42.94 712.89,-28.81 757.84,-19.68"/>
<polygon fill="#63b8ff" stroke="#63b8ff" points="594.52,-49.3 585.42,-54.72 595.91,-56.16 594.52,-49.3"/>
</a>
</g>
</g>
<!-- Node10 -->
<g id="Node000010" class="node">
<title>Node10</title>
<g id="a_Node000010"><a xlink:href="_t_run_info_8cxx.html" target="_top" xlink:title=" ">
<polygon fill="white" stroke="#666666" points="940.5,-19.25 868.25,-19.25 868.25,0 940.5,0 940.5,-19.25"/>
<text text-anchor="middle" x="904.38" y="-5.75" font-family="Helvetica,sans-Serif" font-size="10.00">TRunInfo.cxx</text>
</a>
</g>
</g>
<!-- Node1&#45;&gt;Node10 -->
<g id="edge9_Node000001_Node000010" class="edge">
<title>Node1&#45;&gt;Node10</title>
<g id="a_edge9_Node000001_Node000010"><a xlink:title=" ">
<path fill="none" stroke="#63b8ff" d="M595.44,-57.03C659.13,-48.91 767.06,-34.54 859.38,-19.25 862.2,-18.78 865.12,-18.27 868.05,-17.75"/>
<polygon fill="#63b8ff" stroke="#63b8ff" points="595.06,-53.55 585.58,-58.28 595.94,-60.49 595.06,-53.55"/>
</a>
</g>
</g>
<!-- Node11 -->
<g id="Node000011" class="node">
<title>Node11</title>
<g id="a_Node000011"><a xlink:href="_t_user_settings_8cxx.html" target="_top" xlink:title=" ">
<polygon fill="white" stroke="#666666" points="1054.12,-19.25 958.62,-19.25 958.62,0 1054.12,0 1054.12,-19.25"/>
<text text-anchor="middle" x="1006.38" y="-5.75" font-family="Helvetica,sans-Serif" font-size="10.00">TUserSettings.cxx</text>
</a>
</g>
</g>
<!-- Node1&#45;&gt;Node11 -->
<g id="edge10_Node000001_Node000011" class="edge">
<title>Node1&#45;&gt;Node11</title>
<g id="a_edge10_Node000001_Node000011"><a xlink:title=" ">
<path fill="none" stroke="#63b8ff" d="M595.09,-58.63C673.62,-50.95 822.79,-35.73 949.38,-19.25 952.25,-18.88 955.21,-18.47 958.19,-18.06"/>
<polygon fill="#63b8ff" stroke="#63b8ff" points="595.15,-55.11 585.53,-59.57 595.83,-62.08 595.15,-55.11"/>
</a>
</g>
</g>
</g>
</svg>
