<?xml version="1.0" encoding="UTF-8" standalone="no"?>
<!DOCTYPE svg PUBLIC "-//W3C//DTD SVG 1.1//EN"
 "http://www.w3.org/Graphics/SVG/1.1/DTD/svg11.dtd">
<!-- Generated by graphviz version 12.2.0 (20241103.1931)
 -->
<!-- Title: TGriffinAngles.h Pages: 1 -->
<svg width="732pt" height="138pt"
 viewBox="0.00 0.00 731.88 137.75" xmlns="http://www.w3.org/2000/svg" xmlns:xlink="http://www.w3.org/1999/xlink">
<g id="graph0" class="graph" transform="scale(1 1) rotate(0) translate(4 133.75)">
<title>TGriffinAngles.h</title>
<!-- Node1 -->
<g id="Node000001" class="node">
<title>Node1</title>
<g id="a_Node000001"><a xlink:title=" ">
<polygon fill="#999999" stroke="#666666" points="406.38,-129.75 322.12,-129.75 322.12,-110.5 406.38,-110.5 406.38,-129.75"/>
<text text-anchor="middle" x="364.25" y="-116.25" font-family="Helvetica,sans-Serif" font-size="10.00">TGriffinAngles.h</text>
</a>
</g>
</g>
<!-- Node2 -->
<g id="Node000002" class="node">
<title>Node2</title>
<g id="a_Node000002"><a xlink:href="_angular_correlation_helper_8hh.html" target="_top" xlink:title=" ">
<polygon fill="white" stroke="#666666" points="138.62,-74.5 1.88,-74.5 1.88,-55.25 138.62,-55.25 138.62,-74.5"/>
<text text-anchor="middle" x="70.25" y="-61" font-family="Helvetica,sans-Serif" font-size="10.00">AngularCorrelationHelper.hh</text>
</a>
</g>
</g>
<!-- Node1&#45;&gt;Node2 -->
<g id="edge1_Node000001_Node000002" class="edge">
<title>Node1&#45;&gt;Node2</title>
<g id="a_edge1_Node000001_Node000002"><a xlink:title=" ">
<path fill="none" stroke="#63b8ff" d="M310.72,-109.43C256.57,-99.62 173.52,-84.58 120.56,-74.99"/>
<polygon fill="#63b8ff" stroke="#63b8ff" points="309.86,-112.83 320.32,-111.17 311.11,-105.94 309.86,-112.83"/>
</a>
</g>
</g>
<!-- Node4 -->
<g id="Node000004" class="node">
<title>Node4</title>
<g id="a_Node000004"><a xlink:href="_angular_correlations_8cxx.html" target="_top" xlink:title=" ">
<polygon fill="white" stroke="#666666" points="273.88,-74.5 156.62,-74.5 156.62,-55.25 273.88,-55.25 273.88,-74.5"/>
<text text-anchor="middle" x="215.25" y="-61" font-family="Helvetica,sans-Serif" font-size="10.00">AngularCorrelations.cxx</text>
</a>
</g>
</g>
<!-- Node1&#45;&gt;Node4 -->
<g id="edge3_Node000001_Node000004" class="edge">
<title>Node1&#45;&gt;Node4</title>
<g id="a_edge3_Node000001_Node000004"><a xlink:title=" ">
<path fill="none" stroke="#63b8ff" d="M328.37,-106.3C301.28,-96.62 264.77,-83.57 240.65,-74.95"/>
<polygon fill="#63b8ff" stroke="#63b8ff" points="326.95,-109.51 337.55,-109.58 329.31,-102.92 326.95,-109.51"/>
</a>
</g>
</g>
<!-- Node5 -->
<g id="Node000005" class="node">
<title>Node5</title>
<g id="a_Node000005"><a xlink:href="_compton_polarimetry_helper_8hh.html" target="_top" xlink:title=" ">
<polygon fill="white" stroke="#666666" points="436.75,-74.5 291.75,-74.5 291.75,-55.25 436.75,-55.25 436.75,-74.5"/>
<text text-anchor="middle" x="364.25" y="-61" font-family="Helvetica,sans-Serif" font-size="10.00">ComptonPolarimetryHelper.hh</text>
</a>
</g>
</g>
<!-- Node1&#45;&gt;Node5 -->
<g id="edge4_Node000001_Node000005" class="edge">
<title>Node1&#45;&gt;Node5</title>
<g id="a_edge4_Node000001_Node000005"><a xlink:title=" ">
<path fill="none" stroke="#63b8ff" d="M364.25,-98.88C364.25,-90.59 364.25,-81.42 364.25,-74.86"/>
<polygon fill="#63b8ff" stroke="#63b8ff" points="360.75,-98.82 364.25,-108.82 367.75,-98.82 360.75,-98.82"/>
</a>
</g>
</g>
<!-- Node7 -->
<g id="Node000007" class="node">
<title>Node7</title>
<g id="a_Node000007"><a xlink:href="_simulation_angular_correlation_8cxx.html" target="_top" xlink:title=" ">
<polygon fill="white" stroke="#666666" points="612.12,-74.5 454.38,-74.5 454.38,-55.25 612.12,-55.25 612.12,-74.5"/>
<text text-anchor="middle" x="533.25" y="-61" font-family="Helvetica,sans-Serif" font-size="10.00">SimulationAngularCorrelation.cxx</text>
</a>
</g>
</g>
<!-- Node1&#45;&gt;Node7 -->
<g id="edge6_Node000001_Node000007" class="edge">
<title>Node1&#45;&gt;Node7</title>
<g id="a_edge6_Node000001_Node000007"><a xlink:title=" ">
<path fill="none" stroke="#63b8ff" d="M403.72,-106.69C434.57,-96.97 476.71,-83.69 504.44,-74.95"/>
<polygon fill="#63b8ff" stroke="#63b8ff" points="402.85,-103.29 394.36,-109.64 404.95,-109.97 402.85,-103.29"/>
</a>
</g>
</g>
<!-- Node8 -->
<g id="Node000008" class="node">
<title>Node8</title>
<g id="a_Node000008"><a xlink:href="_t_griffin_angles_8cxx.html" target="_top" xlink:title=" ">
<polygon fill="white" stroke="#666666" points="723.88,-74.5 630.62,-74.5 630.62,-55.25 723.88,-55.25 723.88,-74.5"/>
<text text-anchor="middle" x="677.25" y="-61" font-family="Helvetica,sans-Serif" font-size="10.00">TGriffinAngles.cxx</text>
</a>
</g>
</g>
<!-- Node1&#45;&gt;Node8 -->
<g id="edge7_Node000001_Node000008" class="edge">
<title>Node1&#45;&gt;Node8</title>
<g id="a_edge7_Node000001_Node000008"><a xlink:title=" ">
<path fill="none" stroke="#63b8ff" d="M417.87,-110C477.61,-99.84 573.27,-83.57 630.2,-73.88"/>
<polygon fill="#63b8ff" stroke="#63b8ff" points="417.55,-106.51 408.28,-111.63 418.73,-113.41 417.55,-106.51"/>
</a>
</g>
</g>
<!-- Node3 -->
<g id="Node000003" class="node">
<title>Node3</title>
<g id="a_Node000003"><a xlink:href="_angular_correlation_helper_8cxx.html" target="_top" xlink:title=" ">
<polygon fill="white" stroke="#666666" points="140.5,-19.25 0,-19.25 0,0 140.5,0 140.5,-19.25"/>
<text text-anchor="middle" x="70.25" y="-5.75" font-family="Helvetica,sans-Serif" font-size="10.00">AngularCorrelationHelper.cxx</text>
</a>
</g>
</g>
<!-- Node2&#45;&gt;Node3 -->
<g id="edge2_Node000002_Node000003" class="edge">
<title>Node2&#45;&gt;Node3</title>
<g id="a_edge2_Node000002_Node000003"><a xlink:title=" ">
<path fill="none" stroke="#63b8ff" d="M70.25,-43.63C70.25,-35.34 70.25,-26.17 70.25,-19.61"/>
<polygon fill="#63b8ff" stroke="#63b8ff" points="66.75,-43.57 70.25,-53.57 73.75,-43.57 66.75,-43.57"/>
</a>
</g>
</g>
<!-- Node6 -->
<g id="Node000006" class="node">
<title>Node6</title>
<g id="a_Node000006"><a xlink:href="_compton_polarimetry_helper_8cxx.html" target="_top" xlink:title=" ">
<polygon fill="white" stroke="#666666" points="438.62,-19.25 289.88,-19.25 289.88,0 438.62,0 438.62,-19.25"/>
<text text-anchor="middle" x="364.25" y="-5.75" font-family="Helvetica,sans-Serif" font-size="10.00">ComptonPolarimetryHelper.cxx</text>
</a>
</g>
</g>
<!-- Node5&#45;&gt;Node6 -->
<g id="edge5_Node000005_Node000006" class="edge">
<title>Node5&#45;&gt;Node6</title>
<g id="a_edge5_Node000005_Node000006"><a xlink:title=" ">
<path fill="none" stroke="#63b8ff" d="M364.25,-43.63C364.25,-35.34 364.25,-26.17 364.25,-19.61"/>
<polygon fill="#63b8ff" stroke="#63b8ff" points="360.75,-43.57 364.25,-53.57 367.75,-43.57 360.75,-43.57"/>
</a>
</g>
</g>
</g>
</svg>
