<?xml version="1.0" encoding="UTF-8" standalone="no"?>
<!DOCTYPE svg PUBLIC "-//W3C//DTD SVG 1.1//EN"
 "http://www.w3.org/Graphics/SVG/1.1/DTD/svg11.dtd">
<!-- Generated by graphviz version 12.2.0 (20241103.1931)
 -->
<!-- Title: TGRSIOptions.cxx Pages: 1 -->
<!--zoomable 193 -->

<svg id="main" version="1.1" xmlns="http://www.w3.org/2000/svg" xmlns:xlink="http://www.w3.org/1999/xlink" xml:space="preserve" onload="init(evt)">

<style type="text/css"><![CDATA[
.node, .edge {opacity: 0.7;}
.node.selected, .edge.selected {opacity: 1;}
.edge:hover path { stroke: red; }
.edge:hover polygon { stroke: red; fill: red; }
]]></style>

<defs>
  <circle id="rim" cx="0" cy="0" r="7"/>
  <circle id="rim2" cx="0" cy="0" r="3.5"/>
  <g id="zoomPlus">
    <use xlink:href="#rim" fill="#404040"><set attributeName="fill" to="#808080" begin="zoomplus.mouseover" end="zoomplus.mouseout"/></use>
    <path d="M-4,0h8M0,-4v8" fill="none" stroke="white" stroke-width="1.5" pointer-events="none"/>
  </g>
  <g id="zoomMin">
    <use xlink:href="#rim" fill="#404040"><set attributeName="fill" to="#808080" begin="zoomminus.mouseover" end="zoomminus.mouseout"/></use>
    <path d="M-4,0h8" fill="none" stroke="white" stroke-width="1.5" pointer-events="none"/>
  </g>
  <g id="arrowUp" transform="translate(30 24)">
    <use xlink:href="#rim"/>
    <path pointer-events="none" fill="none" stroke="white" stroke-width="1.5" d="M0,-3.0v7 M-2.5,-0.5L0,-3.0L2.5,-0.5"/>
  </g>
  <g id="arrowRight" transform="rotate(90) translate(36 -43)">
    <use xlink:href="#rim"/>
    <path pointer-events="none" fill="none" stroke="white" stroke-width="1.5" d="M0,-3.0v7 M-2.5,-0.5L0,-3.0L2.5,-0.5"/>
  </g>
  <g id="arrowDown" transform="rotate(180) translate(-30 -48)">
    <use xlink:href="#rim"/>
    <path pointer-events="none" fill="none" stroke="white" stroke-width="1.5" d="M0,-3.0v7 M-2.5,-0.5L0,-3.0L2.5,-0.5"/>
  </g>
  <g id="arrowLeft" transform="rotate(270) translate(-36 17)">
    <use xlink:href="#rim"/>
    <path pointer-events="none" fill="none" stroke="white" stroke-width="1.5" d="M0,-3.0v7 M-2.5,-0.5L0,-3.0L2.5,-0.5"/>
  </g>
  <g id="resetDef">
    <use xlink:href="#rim2" fill="#404040"><set attributeName="fill" to="#808080" begin="reset.mouseover" end="reset.mouseout"/></use>
  </g>
</defs>
<script type="application/ecmascript">
var viewWidth = 1774;
var viewHeight = 193;
var sectionId = 'dynsection-0';
</script>
<script type="application/ecmascript" xlink:href="svg.min.js"/>
<svg id="graph" class="graph">
<g id="viewport">
<title>TGRSIOptions.cxx</title>
<!-- Node1 -->
<g id="Node000001" class="node">
<title>Node1</title>
<g id="a_Node000001"><a xlink:title=" ">
<polygon fill="#999999" stroke="#666666" points="843.12,-185 746.88,-185 746.88,-165.75 843.12,-165.75 843.12,-185"/>
<text text-anchor="middle" x="795" y="-171.5" font-family="Helvetica,sans-Serif" font-size="10.00">TGRSIOptions.cxx</text>
</a>
</g>
</g>
<!-- Node2 -->
<g id="Node000002" class="node">
<title>Node2</title>
<g id="a_Node000002"><a xlink:href="_t_g_r_s_i_options_8h.html" target="_top" xlink:title=" ">
<polygon fill="white" stroke="#666666" points="221.62,-129.75 134.38,-129.75 134.38,-110.5 221.62,-110.5 221.62,-129.75"/>
<text text-anchor="middle" x="178" y="-116.25" font-family="Helvetica,sans-Serif" font-size="10.00">TGRSIOptions.h</text>
</a>
</g>
</g>
<!-- Node1&#45;&gt;Node2 -->
<g id="edge1_Node000001_Node000002" class="edge">
<title>Node1&#45;&gt;Node2</title>
<g id="a_edge1_Node000001_Node000002"><a xlink:title=" ">
<path fill="none" stroke="#63b8ff" d="M746.59,-170.2C633.59,-160.44 353.01,-136.23 233.42,-125.91"/>
<polygon fill="#63b8ff" stroke="#63b8ff" points="233.79,-122.43 223.53,-125.05 233.19,-129.4 233.79,-122.43"/>
</a>
</g>
</g>
<!-- Node13 -->
<g id="Node000013" class="node">
<title>Node13</title>
<g id="a_Node000013"><a xlink:title=" ">
<polygon fill="#e0e0e0" stroke="#999999" points="744.75,-19.25 691.25,-19.25 691.25,0 744.75,0 744.75,-19.25"/>
<text text-anchor="middle" x="718" y="-5.75" font-family="Helvetica,sans-Serif" font-size="10.00">iostream</text>
</a>
</g>
</g>
<!-- Node1&#45;&gt;Node13 -->
<g id="edge18_Node000001_Node000013" class="edge">
<title>Node1&#45;&gt;Node13</title>
<g id="a_edge18_Node000001_Node000013"><a xlink:title=" ">
<path fill="none" stroke="#63b8ff" d="M784.19,-165.54C774.69,-157.23 761.15,-143.96 753,-129.75 734.65,-97.74 725.19,-55.28 720.94,-30.65"/>
<polygon fill="#63b8ff" stroke="#63b8ff" points="724.44,-30.37 719.41,-21.05 717.53,-31.47 724.44,-30.37"/>
</a>
</g>
</g>
<!-- Node16 -->
<g id="Node000016" class="node">
<title>Node16</title>
<g id="a_Node000016"><a xlink:title=" ">
<polygon fill="#e0e0e0" stroke="#999999" points="929.25,-129.75 884.75,-129.75 884.75,-110.5 929.25,-110.5 929.25,-129.75"/>
<text text-anchor="middle" x="907" y="-116.25" font-family="Helvetica,sans-Serif" font-size="10.00">cctype</text>
</a>
</g>
</g>
<!-- Node1&#45;&gt;Node16 -->
<g id="edge17_Node000001_Node000016" class="edge">
<title>Node1&#45;&gt;Node16</title>
<g id="a_edge17_Node000001_Node000016"><a xlink:title=" ">
<path fill="none" stroke="#63b8ff" d="M814,-165.34C831.46,-157.04 857.6,-144.61 877.72,-135.04"/>
<polygon fill="#63b8ff" stroke="#63b8ff" points="879.01,-138.31 886.54,-130.85 876.01,-131.99 879.01,-138.31"/>
</a>
</g>
</g>
<!-- Node17 -->
<g id="Node000017" class="node">
<title>Node17</title>
<g id="a_Node000017"><a xlink:title=" ">
<polygon fill="#e0e0e0" stroke="#999999" points="993,-129.75 947,-129.75 947,-110.5 993,-110.5 993,-129.75"/>
<text text-anchor="middle" x="970" y="-116.25" font-family="Helvetica,sans-Serif" font-size="10.00">TEnv.h</text>
</a>
</g>
</g>
<!-- Node1&#45;&gt;Node17 -->
<g id="edge19_Node000001_Node000017" class="edge">
<title>Node1&#45;&gt;Node17</title>
<g id="a_edge19_Node000001_Node000017"><a xlink:title=" ">
<path fill="none" stroke="#63b8ff" d="M824.69,-165.34C855.48,-155.97 903.56,-141.34 935.9,-131.5"/>
<polygon fill="#63b8ff" stroke="#63b8ff" points="936.63,-134.94 945.17,-128.68 934.59,-128.24 936.63,-134.94"/>
</a>
</g>
</g>
<!-- Node18 -->
<g id="Node000018" class="node">
<title>Node18</title>
<g id="a_Node000018"><a xlink:title=" ">
<polygon fill="#e0e0e0" stroke="#999999" points="1057,-129.75 1011,-129.75 1011,-110.5 1057,-110.5 1057,-129.75"/>
<text text-anchor="middle" x="1034" y="-116.25" font-family="Helvetica,sans-Serif" font-size="10.00">TKey.h</text>
</a>
</g>
</g>
<!-- Node1&#45;&gt;Node18 -->
<g id="edge20_Node000001_Node000018" class="edge">
<title>Node1&#45;&gt;Node18</title>
<g id="a_edge20_Node000001_Node000018"><a xlink:title=" ">
<path fill="none" stroke="#63b8ff" d="M840.38,-165.29C880.04,-157.19 939.42,-144.69 999.74,-130.21"/>
<polygon fill="#63b8ff" stroke="#63b8ff" points="1000.25,-133.68 1009.15,-127.93 998.6,-126.88 1000.25,-133.68"/>
</a>
</g>
</g>
<!-- Node19 -->
<g id="Node000019" class="node">
<title>Node19</title>
<g id="a_Node000019"><a xlink:title=" ">
<polygon fill="#e0e0e0" stroke="#999999" points="1137.25,-129.75 1074.75,-129.75 1074.75,-110.5 1137.25,-110.5 1137.25,-129.75"/>
<text text-anchor="middle" x="1106" y="-116.25" font-family="Helvetica,sans-Serif" font-size="10.00">TSystem.h</text>
</a>
</g>
</g>
<!-- Node1&#45;&gt;Node19 -->
<g id="edge21_Node000001_Node000019" class="edge">
<title>Node1&#45;&gt;Node19</title>
<g id="a_edge21_Node000001_Node000019"><a xlink:title=" ">
<path fill="none" stroke="#63b8ff" d="M843.59,-167.11C895.59,-159.17 980.76,-145.7 1063.46,-130.16"/>
<polygon fill="#63b8ff" stroke="#63b8ff" points="1063.93,-133.63 1073.1,-128.33 1062.62,-126.75 1063.93,-133.63"/>
</a>
</g>
</g>
<!-- Node20 -->
<g id="Node000020" class="node">
<title>Node20</title>
<g id="a_Node000020"><a xlink:href="_globals_8h.html" target="_top" xlink:title=" ">
<polygon fill="white" stroke="#666666" points="1111.25,-74.5 1054.75,-74.5 1054.75,-55.25 1111.25,-55.25 1111.25,-74.5"/>
<text text-anchor="middle" x="1083" y="-61" font-family="Helvetica,sans-Serif" font-size="10.00">Globals.h</text>
</a>
</g>
</g>
<!-- Node1&#45;&gt;Node20 -->
<g id="edge22_Node000001_Node000020" class="edge">
<title>Node1&#45;&gt;Node20</title>
<g id="a_edge22_Node000001_Node000020"><a xlink:title=" ">
<path fill="none" stroke="#63b8ff" d="M803.54,-165.39C817.39,-151.39 846.19,-124.54 876,-110.5 930.57,-84.81 1000.22,-73.72 1043.21,-69.07"/>
<polygon fill="#63b8ff" stroke="#63b8ff" points="1043.48,-72.56 1053.08,-68.07 1042.78,-65.59 1043.48,-72.56"/>
</a>
</g>
</g>
<!-- Node34 -->
<g id="Node000034" class="node">
<title>Node34</title>
<g id="a_Node000034"><a xlink:href="_full_path_8h.html" target="_top" xlink:title=" ">
<polygon fill="white" stroke="#666666" points="447.75,-74.5 388.25,-74.5 388.25,-55.25 447.75,-55.25 447.75,-74.5"/>
<text text-anchor="middle" x="418" y="-61" font-family="Helvetica,sans-Serif" font-size="10.00">FullPath.h</text>
</a>
</g>
</g>
<!-- Node1&#45;&gt;Node34 -->
<g id="edge41_Node000001_Node000034" class="edge">
<title>Node1&#45;&gt;Node34</title>
<g id="a_edge41_Node000001_Node000034"><a xlink:title=" ">
<path fill="none" stroke="#63b8ff" d="M760.91,-165.28C727.89,-156.42 676.43,-142.46 632,-129.75 571.43,-112.42 501.54,-91.36 458.56,-78.28"/>
<polygon fill="#63b8ff" stroke="#63b8ff" points="459.74,-74.98 449.16,-75.42 457.7,-81.68 459.74,-74.98"/>
</a>
</g>
</g>
<!-- Node35 -->
<g id="Node000035" class="node">
<title>Node35</title>
<g id="a_Node000035"><a xlink:href="_arg_parser_8h.html" target="_top" xlink:title=" ">
<polygon fill="white" stroke="#666666" points="828.5,-129.75 761.5,-129.75 761.5,-110.5 828.5,-110.5 828.5,-129.75"/>
<text text-anchor="middle" x="795" y="-116.25" font-family="Helvetica,sans-Serif" font-size="10.00">ArgParser.h</text>
</a>
</g>
</g>
<!-- Node1&#45;&gt;Node35 -->
<g id="edge43_Node000001_Node000035" class="edge">
<title>Node1&#45;&gt;Node35</title>
<g id="a_edge43_Node000001_Node000035"><a xlink:title=" ">
<path fill="none" stroke="#63b8ff" d="M795,-165.58C795,-159.07 795,-149.92 795,-141.62"/>
<polygon fill="#63b8ff" stroke="#63b8ff" points="798.5,-141.62 795,-131.62 791.5,-141.62 798.5,-141.62"/>
</a>
</g>
</g>
<!-- Node36 -->
<g id="Node000036" class="node">
<title>Node36</title>
<g id="a_Node000036"><a xlink:href="_dynamic_library_8h.html" target="_top" xlink:title=" ">
<polygon fill="white" stroke="#666666" points="556.12,-74.5 465.88,-74.5 465.88,-55.25 556.12,-55.25 556.12,-74.5"/>
<text text-anchor="middle" x="511" y="-61" font-family="Helvetica,sans-Serif" font-size="10.00">DynamicLibrary.h</text>
</a>
</g>
</g>
<!-- Node1&#45;&gt;Node36 -->
<g id="edge52_Node000001_Node000036" class="edge">
<title>Node1&#45;&gt;Node36</title>
<g id="a_edge52_Node000001_Node000036"><a xlink:title=" ">
<path fill="none" stroke="#63b8ff" d="M771.27,-165.31C721.05,-146.12 603.83,-101.34 545.39,-79.01"/>
<polygon fill="#63b8ff" stroke="#63b8ff" points="546.86,-75.83 536.27,-75.53 544.36,-82.37 546.86,-75.83"/>
</a>
</g>
</g>
<!-- Node37 -->
<g id="Node000037" class="node">
<title>Node37</title>
<g id="a_Node000037"><a xlink:href="_g_root_commands_8h.html" target="_top" xlink:title=" ">
<polygon fill="white" stroke="#666666" points="370.38,-74.5 269.62,-74.5 269.62,-55.25 370.38,-55.25 370.38,-74.5"/>
<text text-anchor="middle" x="320" y="-61" font-family="Helvetica,sans-Serif" font-size="10.00">GRootCommands.h</text>
</a>
</g>
</g>
<!-- Node1&#45;&gt;Node37 -->
<g id="edge54_Node000001_Node000037" class="edge">
<title>Node1&#45;&gt;Node37</title>
<g id="a_edge54_Node000001_Node000037"><a xlink:title=" ">
<path fill="none" stroke="#63b8ff" d="M746.82,-166.08C699.76,-157.75 626.19,-144.12 563,-129.75 492.32,-113.68 411,-91.56 362.65,-78.01"/>
<polygon fill="#63b8ff" stroke="#63b8ff" points="363.71,-74.67 353.13,-75.34 361.81,-81.41 363.71,-74.67"/>
</a>
</g>
</g>
<!-- Node3 -->
<g id="Node000003" class="node">
<title>Node3</title>
<g id="a_Node000003"><a xlink:title=" ">
<polygon fill="#e0e0e0" stroke="#999999" points="58,-19.25 0,-19.25 0,0 58,0 58,-19.25"/>
<text text-anchor="middle" x="29" y="-5.75" font-family="Helvetica,sans-Serif" font-size="10.00">TObject.h</text>
</a>
</g>
</g>
<!-- Node2&#45;&gt;Node3 -->
<g id="edge2_Node000002_Node000003" class="edge">
<title>Node2&#45;&gt;Node3</title>
<g id="a_edge2_Node000002_Node000003"><a xlink:title=" ">
<path fill="none" stroke="#63b8ff" d="M133.99,-113.75C88.64,-107.2 22.43,-94.47 7,-74.5 -3.5,-60.91 5.21,-41.96 14.59,-28.24"/>
<polygon fill="#63b8ff" stroke="#63b8ff" points="17.17,-30.63 20.37,-20.53 11.57,-26.43 17.17,-30.63"/>
</a>
</g>
</g>
<!-- Node4 -->
<g id="Node000004" class="node">
<title>Node4</title>
<g id="a_Node000004"><a xlink:title=" ">
<polygon fill="#e0e0e0" stroke="#999999" points="125.62,-19.25 80.38,-19.25 80.38,0 125.62,0 125.62,-19.25"/>
<text text-anchor="middle" x="103" y="-5.75" font-family="Helvetica,sans-Serif" font-size="10.00">TFile.h</text>
</a>
</g>
</g>
<!-- Node2&#45;&gt;Node4 -->
<g id="edge3_Node000002_Node000004" class="edge">
<title>Node2&#45;&gt;Node4</title>
<g id="a_edge3_Node000002_Node000004"><a xlink:title=" ">
<path fill="none" stroke="#63b8ff" d="M171.86,-110.25C159.61,-92.52 131.91,-52.44 115.62,-28.88"/>
<polygon fill="#63b8ff" stroke="#63b8ff" points="118.65,-27.11 110.08,-20.87 112.89,-31.09 118.65,-27.11"/>
</a>
</g>
</g>
<!-- Node5 -->
<g id="Node000005" class="node">
<title>Node5</title>
<g id="a_Node000005"><a xlink:href="_t_g_r_s_i_types_8h.html" target="_top" xlink:title=" ">
<polygon fill="white" stroke="#666666" points="251.88,-74.5 172.12,-74.5 172.12,-55.25 251.88,-55.25 251.88,-74.5"/>
<text text-anchor="middle" x="212" y="-61" font-family="Helvetica,sans-Serif" font-size="10.00">TGRSITypes.h</text>
</a>
</g>
</g>
<!-- Node2&#45;&gt;Node5 -->
<g id="edge4_Node000002_Node000005" class="edge">
<title>Node2&#45;&gt;Node5</title>
<g id="a_edge4_Node000002_Node000005"><a xlink:title=" ">
<path fill="none" stroke="#63b8ff" d="M183.61,-110.33C188.12,-103.28 194.59,-93.15 200.21,-84.33"/>
<polygon fill="#63b8ff" stroke="#63b8ff" points="203.02,-86.45 205.45,-76.13 197.12,-82.68 203.02,-86.45"/>
</a>
</g>
</g>
<!-- Node7 -->
<g id="Node000007" class="node">
<title>Node7</title>
<g id="a_Node000007"><a xlink:href="_t_analysis_options_8h.html" target="_top" xlink:title=" ">
<polygon fill="white" stroke="#666666" points="116,-74.5 16,-74.5 16,-55.25 116,-55.25 116,-74.5"/>
<text text-anchor="middle" x="66" y="-61" font-family="Helvetica,sans-Serif" font-size="10.00">TAnalysisOptions.h</text>
</a>
</g>
</g>
<!-- Node2&#45;&gt;Node7 -->
<g id="edge6_Node000002_Node000007" class="edge">
<title>Node2&#45;&gt;Node7</title>
<g id="a_edge6_Node000002_Node000007"><a xlink:title=" ">
<path fill="none" stroke="#63b8ff" d="M159,-110.09C141.54,-101.79 115.4,-89.36 95.28,-79.79"/>
<polygon fill="#63b8ff" stroke="#63b8ff" points="96.99,-76.74 86.46,-75.6 93.99,-83.06 96.99,-76.74"/>
</a>
</g>
</g>
<!-- Node8 -->
<g id="Node000008" class="node">
<title>Node8</title>
<g id="a_Node000008"><a xlink:href="_t_user_settings_8h.html" target="_top" xlink:title=" ">
<polygon fill="white" stroke="#666666" points="698.25,-74.5 611.75,-74.5 611.75,-55.25 698.25,-55.25 698.25,-74.5"/>
<text text-anchor="middle" x="655" y="-61" font-family="Helvetica,sans-Serif" font-size="10.00">TUserSettings.h</text>
</a>
</g>
</g>
<!-- Node2&#45;&gt;Node8 -->
<g id="edge9_Node000002_Node000008" class="edge">
<title>Node2&#45;&gt;Node8</title>
<g id="a_edge9_Node000002_Node000008"><a xlink:title=" ">
<path fill="none" stroke="#63b8ff" d="M222.02,-114.21C309.36,-104.46 504.38,-82.69 600,-72.01"/>
<polygon fill="#63b8ff" stroke="#63b8ff" points="600.38,-75.49 609.93,-70.91 599.6,-68.54 600.38,-75.49"/>
</a>
</g>
</g>
<!-- Node6 -->
<g id="Node000006" class="node">
<title>Node6</title>
<g id="a_Node000006"><a xlink:title=" ">
<polygon fill="#e0e0e0" stroke="#999999" points="237.62,-19.25 192.38,-19.25 192.38,0 237.62,0 237.62,-19.25"/>
<text text-anchor="middle" x="215" y="-5.75" font-family="Helvetica,sans-Serif" font-size="10.00">cstdint</text>
</a>
</g>
</g>
<!-- Node5&#45;&gt;Node6 -->
<g id="edge5_Node000005_Node000006" class="edge">
<title>Node5&#45;&gt;Node6</title>
<g id="a_edge5_Node000005_Node000006"><a xlink:title=" ">
<path fill="none" stroke="#63b8ff" d="M212.5,-55.08C212.87,-48.49 213.39,-39.21 213.86,-30.82"/>
<polygon fill="#63b8ff" stroke="#63b8ff" points="217.34,-31.3 214.41,-21.12 210.35,-30.91 217.34,-31.3"/>
</a>
</g>
</g>
<!-- Node7&#45;&gt;Node3 -->
<g id="edge7_Node000007_Node000003" class="edge">
<title>Node7&#45;&gt;Node3</title>
<g id="a_edge7_Node000007_Node000003"><a xlink:title=" ">
<path fill="none" stroke="#63b8ff" d="M59.89,-55.08C54.94,-47.96 47.8,-37.68 41.63,-28.8"/>
<polygon fill="#63b8ff" stroke="#63b8ff" points="44.69,-27.07 36.11,-20.85 38.94,-31.06 44.69,-27.07"/>
</a>
</g>
</g>
<!-- Node7&#45;&gt;Node4 -->
<g id="edge8_Node000007_Node000004" class="edge">
<title>Node7&#45;&gt;Node4</title>
<g id="a_edge8_Node000007_Node000004"><a xlink:title=" ">
<path fill="none" stroke="#63b8ff" d="M72.11,-55.08C77.06,-47.96 84.2,-37.68 90.37,-28.8"/>
<polygon fill="#63b8ff" stroke="#63b8ff" points="93.06,-31.06 95.89,-20.85 87.31,-27.07 93.06,-31.06"/>
</a>
</g>
</g>
<!-- Node9 -->
<g id="Node000009" class="node">
<title>Node9</title>
<g id="a_Node000009"><a xlink:title=" ">
<polygon fill="#e0e0e0" stroke="#999999" points="873.38,-19.25 838.62,-19.25 838.62,0 873.38,0 873.38,-19.25"/>
<text text-anchor="middle" x="856" y="-5.75" font-family="Helvetica,sans-Serif" font-size="10.00">map</text>
</a>
</g>
</g>
<!-- Node8&#45;&gt;Node9 -->
<g id="edge10_Node000008_Node000009" class="edge">
<title>Node8&#45;&gt;Node9</title>
<g id="a_edge10_Node000008_Node000009"><a xlink:title=" ">
<path fill="none" stroke="#63b8ff" d="M693.79,-54.82C727.03,-46.87 776.41,-34.63 827.28,-19.91"/>
<polygon fill="#63b8ff" stroke="#63b8ff" points="828.08,-23.32 836.7,-17.16 826.12,-16.6 828.08,-23.32"/>
</a>
</g>
</g>
<!-- Node10 -->
<g id="Node000010" class="node">
<title>Node10</title>
<g id="a_Node000010"><a xlink:title=" ">
<polygon fill="#e0e0e0" stroke="#999999" points="442,-19.25 402,-19.25 402,0 442,0 442,-19.25"/>
<text text-anchor="middle" x="422" y="-5.75" font-family="Helvetica,sans-Serif" font-size="10.00">string</text>
</a>
</g>
</g>
<!-- Node8&#45;&gt;Node10 -->
<g id="edge11_Node000008_Node000010" class="edge">
<title>Node8&#45;&gt;Node10</title>
<g id="a_edge11_Node000008_Node000010"><a xlink:title=" ">
<path fill="none" stroke="#63b8ff" d="M611.4,-55.31C572.3,-47.41 513.12,-34.92 453.05,-19.63"/>
<polygon fill="#63b8ff" stroke="#63b8ff" points="454.25,-16.33 443.69,-17.23 452.51,-23.11 454.25,-16.33"/>
</a>
</g>
</g>
<!-- Node11 -->
<g id="Node000011" class="node">
<title>Node11</title>
<g id="a_Node000011"><a xlink:title=" ">
<polygon fill="#e0e0e0" stroke="#999999" points="673.5,-19.25 630.5,-19.25 630.5,0 673.5,0 673.5,-19.25"/>
<text text-anchor="middle" x="652" y="-5.75" font-family="Helvetica,sans-Serif" font-size="10.00">vector</text>
</a>
</g>
</g>
<!-- Node8&#45;&gt;Node11 -->
<g id="edge12_Node000008_Node000011" class="edge">
<title>Node8&#45;&gt;Node11</title>
<g id="a_edge12_Node000008_Node000011"><a xlink:title=" ">
<path fill="none" stroke="#63b8ff" d="M654.5,-55.08C654.13,-48.49 653.61,-39.21 653.14,-30.82"/>
<polygon fill="#63b8ff" stroke="#63b8ff" points="656.65,-30.91 652.59,-21.12 649.66,-31.3 656.65,-30.91"/>
</a>
</g>
</g>
<!-- Node12 -->
<g id="Node000012" class="node">
<title>Node12</title>
<g id="a_Node000012"><a xlink:title=" ">
<polygon fill="#e0e0e0" stroke="#999999" points="821,-19.25 763,-19.25 763,0 821,0 821,-19.25"/>
<text text-anchor="middle" x="792" y="-5.75" font-family="Helvetica,sans-Serif" font-size="10.00">stdexcept</text>
</a>
</g>
</g>
<!-- Node8&#45;&gt;Node12 -->
<g id="edge13_Node000008_Node000012" class="edge">
<title>Node8&#45;&gt;Node12</title>
<g id="a_edge13_Node000008_Node000012"><a xlink:title=" ">
<path fill="none" stroke="#63b8ff" d="M678.24,-54.84C700.19,-46.31 733.35,-33.42 758.21,-23.76"/>
<polygon fill="#63b8ff" stroke="#63b8ff" points="759.18,-27.14 767.24,-20.25 756.65,-20.61 759.18,-27.14"/>
</a>
</g>
</g>
<!-- Node8&#45;&gt;Node13 -->
<g id="edge14_Node000008_Node000013" class="edge">
<title>Node8&#45;&gt;Node13</title>
<g id="a_edge14_Node000008_Node000013"><a xlink:title=" ">
<path fill="none" stroke="#63b8ff" d="M665.69,-54.84C674.7,-47.22 687.83,-36.12 698.68,-26.95"/>
<polygon fill="#63b8ff" stroke="#63b8ff" points="700.94,-29.63 706.31,-20.5 696.42,-24.28 700.94,-29.63"/>
</a>
</g>
</g>
<!-- Node14 -->
<g id="Node000014" class="node">
<title>Node14</title>
<g id="a_Node000014"><a xlink:title=" ">
<polygon fill="#e0e0e0" stroke="#999999" points="521.5,-19.25 460.5,-19.25 460.5,0 521.5,0 521.5,-19.25"/>
<text text-anchor="middle" x="491" y="-5.75" font-family="Helvetica,sans-Serif" font-size="10.00">TNamed.h</text>
</a>
</g>
</g>
<!-- Node8&#45;&gt;Node14 -->
<g id="edge15_Node000008_Node000014" class="edge">
<title>Node8&#45;&gt;Node14</title>
<g id="a_edge15_Node000008_Node000014"><a xlink:title=" ">
<path fill="none" stroke="#63b8ff" d="M627.18,-54.84C600.44,-46.16 559.78,-32.96 529.85,-23.24"/>
<polygon fill="#63b8ff" stroke="#63b8ff" points="530.99,-19.93 520.4,-20.17 528.83,-26.59 530.99,-19.93"/>
</a>
</g>
</g>
<!-- Node15 -->
<g id="Node000015" class="node">
<title>Node15</title>
<g id="a_Node000015"><a xlink:title=" ">
<polygon fill="#e0e0e0" stroke="#999999" points="612.12,-19.25 539.88,-19.25 539.88,0 612.12,0 612.12,-19.25"/>
<text text-anchor="middle" x="576" y="-5.75" font-family="Helvetica,sans-Serif" font-size="10.00">TCollection.h</text>
</a>
</g>
</g>
<!-- Node8&#45;&gt;Node15 -->
<g id="edge16_Node000008_Node000015" class="edge">
<title>Node8&#45;&gt;Node15</title>
<g id="a_edge16_Node000008_Node000015"><a xlink:title=" ">
<path fill="none" stroke="#63b8ff" d="M641.6,-54.84C629.91,-46.96 612.7,-35.36 598.84,-26.02"/>
<polygon fill="#63b8ff" stroke="#63b8ff" points="600.97,-23.24 590.72,-20.55 597.06,-29.04 600.97,-23.24"/>
</a>
</g>
</g>
<!-- Node20&#45;&gt;Node6 -->
<g id="edge28_Node000020_Node000006" class="edge">
<title>Node20&#45;&gt;Node6</title>
<g id="a_edge28_Node000020_Node000006"><a xlink:title=" ">
<path fill="none" stroke="#63b8ff" d="M1054.61,-63.16C929.92,-59.9 429.39,-45.53 249.1,-19.14"/>
<polygon fill="#63b8ff" stroke="#63b8ff" points="249.86,-15.72 239.44,-17.66 248.79,-22.64 249.86,-15.72"/>
</a>
</g>
</g>
<!-- Node20&#45;&gt;Node9 -->
<g id="edge36_Node000020_Node000009" class="edge">
<title>Node20&#45;&gt;Node9</title>
<g id="a_edge36_Node000020_Node000009"><a xlink:title=" ">
<path fill="none" stroke="#63b8ff" d="M1054.48,-58.5C1017.38,-51.29 950.37,-37.59 884.77,-19.81"/>
<polygon fill="#63b8ff" stroke="#63b8ff" points="885.86,-16.48 875.29,-17.21 884,-23.23 885.86,-16.48"/>
</a>
</g>
</g>
<!-- Node20&#45;&gt;Node10 -->
<g id="edge26_Node000020_Node000010" class="edge">
<title>Node20&#45;&gt;Node10</title>
<g id="a_edge26_Node000020_Node000010"><a xlink:title=" ">
<path fill="none" stroke="#63b8ff" d="M1054.38,-64.07C966.02,-64.2 689.79,-61.15 453.67,-19.33"/>
<polygon fill="#63b8ff" stroke="#63b8ff" points="454.41,-15.91 443.95,-17.58 453.17,-22.8 454.41,-15.91"/>
</a>
</g>
</g>
<!-- Node20&#45;&gt;Node12 -->
<g id="edge25_Node000020_Node000012" class="edge">
<title>Node20&#45;&gt;Node12</title>
<g id="a_edge25_Node000020_Node000012"><a xlink:title=" ">
<path fill="none" stroke="#63b8ff" d="M1054.46,-59.31C1009.44,-52 918.93,-36.9 832.49,-19.67"/>
<polygon fill="#63b8ff" stroke="#63b8ff" points="833.41,-16.29 822.91,-17.75 832.03,-23.15 833.41,-16.29"/>
</a>
</g>
</g>
<!-- Node20&#45;&gt;Node13 -->
<g id="edge23_Node000020_Node000013" class="edge">
<title>Node20&#45;&gt;Node13</title>
<g id="a_edge23_Node000020_Node000013"><a xlink:title=" ">
<path fill="none" stroke="#63b8ff" d="M1054.68,-61C999.33,-55.18 872.72,-40.86 756.3,-19.51"/>
<polygon fill="#63b8ff" stroke="#63b8ff" points="757.02,-16.08 746.55,-17.69 755.74,-22.96 757.02,-16.08"/>
</a>
</g>
</g>
<!-- Node21 -->
<g id="Node000021" class="node">
<title>Node21</title>
<g id="a_Node000021"><a xlink:title=" ">
<polygon fill="#e0e0e0" stroke="#999999" points="1497.88,-19.25 1448.12,-19.25 1448.12,0 1497.88,0 1497.88,-19.25"/>
<text text-anchor="middle" x="1473" y="-5.75" font-family="Helvetica,sans-Serif" font-size="10.00">iomanip</text>
</a>
</g>
</g>
<!-- Node20&#45;&gt;Node21 -->
<g id="edge24_Node000020_Node000021" class="edge">
<title>Node20&#45;&gt;Node21</title>
<g id="a_edge24_Node000020_Node000021"><a xlink:title=" ">
<path fill="none" stroke="#63b8ff" d="M1111.34,-61.52C1170.15,-56.39 1309.9,-42.86 1436.77,-19.45"/>
<polygon fill="#63b8ff" stroke="#63b8ff" points="1437.15,-22.94 1446.34,-17.66 1435.87,-16.06 1437.15,-22.94"/>
</a>
</g>
</g>
<!-- Node22 -->
<g id="Node000022" class="node">
<title>Node22</title>
<g id="a_Node000022"><a xlink:title=" ">
<polygon fill="#e0e0e0" stroke="#999999" points="1558.12,-19.25 1515.88,-19.25 1515.88,0 1558.12,0 1558.12,-19.25"/>
<text text-anchor="middle" x="1537" y="-5.75" font-family="Helvetica,sans-Serif" font-size="10.00">cstdio</text>
</a>
</g>
</g>
<!-- Node20&#45;&gt;Node22 -->
<g id="edge27_Node000020_Node000022" class="edge">
<title>Node20&#45;&gt;Node22</title>
<g id="a_edge27_Node000020_Node000022"><a xlink:title=" ">
<path fill="none" stroke="#63b8ff" d="M1111.54,-62.6C1178.6,-59.23 1351.52,-48.43 1504.5,-19.42"/>
<polygon fill="#63b8ff" stroke="#63b8ff" points="1504.84,-22.92 1513.99,-17.59 1503.51,-16.05 1504.84,-22.92"/>
</a>
</g>
</g>
<!-- Node23 -->
<g id="Node000023" class="node">
<title>Node23</title>
<g id="a_Node000023"><a xlink:title=" ">
<polygon fill="#e0e0e0" stroke="#999999" points="1620.25,-19.25 1575.75,-19.25 1575.75,0 1620.25,0 1620.25,-19.25"/>
<text text-anchor="middle" x="1598" y="-5.75" font-family="Helvetica,sans-Serif" font-size="10.00">cstdlib</text>
</a>
</g>
</g>
<!-- Node20&#45;&gt;Node23 -->
<g id="edge29_Node000020_Node000023" class="edge">
<title>Node20&#45;&gt;Node23</title>
<g id="a_edge29_Node000020_Node000023"><a xlink:title=" ">
<path fill="none" stroke="#63b8ff" d="M1111.61,-63.03C1185.27,-60.47 1387.5,-51.05 1564.35,-19.43"/>
<polygon fill="#63b8ff" stroke="#63b8ff" points="1564.72,-22.92 1573.93,-17.68 1563.47,-16.03 1564.72,-22.92"/>
</a>
</g>
</g>
<!-- Node24 -->
<g id="Node000024" class="node">
<title>Node24</title>
<g id="a_Node000024"><a xlink:title=" ">
<polygon fill="#e0e0e0" stroke="#999999" points="1697.75,-19.25 1638.25,-19.25 1638.25,0 1697.75,0 1697.75,-19.25"/>
<text text-anchor="middle" x="1668" y="-5.75" font-family="Helvetica,sans-Serif" font-size="10.00">execinfo.h</text>
</a>
</g>
</g>
<!-- Node20&#45;&gt;Node24 -->
<g id="edge30_Node000020_Node000024" class="edge">
<title>Node20&#45;&gt;Node24</title>
<g id="a_edge30_Node000020_Node000024"><a xlink:title=" ">
<path fill="none" stroke="#63b8ff" d="M1111.58,-62.91C1191.44,-59.93 1423.84,-49.27 1626.68,-19.39"/>
<polygon fill="#63b8ff" stroke="#63b8ff" points="1626.97,-22.88 1636.35,-17.94 1625.94,-15.96 1626.97,-22.88"/>
</a>
</g>
</g>
<!-- Node25 -->
<g id="Node000025" class="node">
<title>Node25</title>
<g id="a_Node000025"><a xlink:title=" ">
<polygon fill="#e0e0e0" stroke="#999999" points="1766.25,-19.25 1715.75,-19.25 1715.75,0 1766.25,0 1766.25,-19.25"/>
<text text-anchor="middle" x="1741" y="-5.75" font-family="Helvetica,sans-Serif" font-size="10.00">cxxabi.h</text>
</a>
</g>
</g>
<!-- Node20&#45;&gt;Node25 -->
<g id="edge31_Node000020_Node000025" class="edge">
<title>Node20&#45;&gt;Node25</title>
<g id="a_edge31_Node000020_Node000025"><a xlink:title=" ">
<path fill="none" stroke="#63b8ff" d="M1111.5,-63.63C1198.88,-62.49 1470.74,-56.16 1704.39,-19.39"/>
<polygon fill="#63b8ff" stroke="#63b8ff" points="1704.67,-22.89 1713.99,-17.85 1703.56,-15.98 1704.67,-22.89"/>
</a>
</g>
</g>
<!-- Node26 -->
<g id="Node000026" class="node">
<title>Node26</title>
<g id="a_Node000026"><a xlink:title=" ">
<polygon fill="#e0e0e0" stroke="#999999" points="942.62,-19.25 891.38,-19.25 891.38,0 942.62,0 942.62,-19.25"/>
<text text-anchor="middle" x="917" y="-5.75" font-family="Helvetica,sans-Serif" font-size="10.00">sstream</text>
</a>
</g>
</g>
<!-- Node20&#45;&gt;Node26 -->
<g id="edge32_Node000020_Node000026" class="edge">
<title>Node20&#45;&gt;Node26</title>
<g id="a_edge32_Node000020_Node000026"><a xlink:title=" ">
<path fill="none" stroke="#63b8ff" d="M1054.84,-54.84C1026.99,-45.91 984.24,-32.2 953.74,-22.41"/>
<polygon fill="#63b8ff" stroke="#63b8ff" points="955.14,-19.18 944.55,-19.46 953,-25.85 955.14,-19.18"/>
</a>
</g>
</g>
<!-- Node27 -->
<g id="Node000027" class="node">
<title>Node27</title>
<g id="a_Node000027"><a xlink:title=" ">
<polygon fill="#e0e0e0" stroke="#999999" points="1137.5,-19.25 1100.5,-19.25 1100.5,0 1137.5,0 1137.5,-19.25"/>
<text text-anchor="middle" x="1119" y="-5.75" font-family="Helvetica,sans-Serif" font-size="10.00">array</text>
</a>
</g>
</g>
<!-- Node20&#45;&gt;Node27 -->
<g id="edge33_Node000020_Node000027" class="edge">
<title>Node20&#45;&gt;Node27</title>
<g id="a_edge33_Node000020_Node000027"><a xlink:title=" ">
<path fill="none" stroke="#63b8ff" d="M1088.94,-55.08C1093.71,-48.03 1100.56,-37.9 1106.52,-29.08"/>
<polygon fill="#63b8ff" stroke="#63b8ff" points="1109.38,-31.11 1112.08,-20.86 1103.58,-27.19 1109.38,-31.11"/>
</a>
</g>
</g>
<!-- Node28 -->
<g id="Node000028" class="node">
<title>Node28</title>
<g id="a_Node000028"><a xlink:title=" ">
<polygon fill="#e0e0e0" stroke="#999999" points="1206.25,-19.25 1155.75,-19.25 1155.75,0 1206.25,0 1206.25,-19.25"/>
<text text-anchor="middle" x="1181" y="-5.75" font-family="Helvetica,sans-Serif" font-size="10.00">memory</text>
</a>
</g>
</g>
<!-- Node20&#45;&gt;Node28 -->
<g id="edge34_Node000020_Node000028" class="edge">
<title>Node20&#45;&gt;Node28</title>
<g id="a_edge34_Node000020_Node000028"><a xlink:title=" ">
<path fill="none" stroke="#63b8ff" d="M1099.62,-54.84C1114.69,-46.66 1137.14,-34.46 1154.65,-24.94"/>
<polygon fill="#63b8ff" stroke="#63b8ff" points="1155.85,-28.27 1162.96,-20.43 1152.51,-22.12 1155.85,-28.27"/>
</a>
</g>
</g>
<!-- Node29 -->
<g id="Node000029" class="node">
<title>Node29</title>
<g id="a_Node000029"><a xlink:title=" ">
<polygon fill="#e0e0e0" stroke="#999999" points="1273.88,-19.25 1224.12,-19.25 1224.12,0 1273.88,0 1273.88,-19.25"/>
<text text-anchor="middle" x="1249" y="-5.75" font-family="Helvetica,sans-Serif" font-size="10.00">unistd.h</text>
</a>
</g>
</g>
<!-- Node20&#45;&gt;Node29 -->
<g id="edge35_Node000020_Node000029" class="edge">
<title>Node20&#45;&gt;Node29</title>
<g id="a_edge35_Node000020_Node000029"><a xlink:title=" ">
<path fill="none" stroke="#63b8ff" d="M1111.16,-54.84C1139.25,-45.83 1182.52,-31.95 1213.07,-22.15"/>
<polygon fill="#63b8ff" stroke="#63b8ff" points="1213.81,-25.59 1222.26,-19.2 1211.67,-18.93 1213.81,-25.59"/>
</a>
</g>
</g>
<!-- Node30 -->
<g id="Node000030" class="node">
<title>Node30</title>
<g id="a_Node000030"><a xlink:title=" ">
<polygon fill="#e0e0e0" stroke="#999999" points="1009.5,-19.25 960.5,-19.25 960.5,0 1009.5,0 1009.5,-19.25"/>
<text text-anchor="middle" x="985" y="-5.75" font-family="Helvetica,sans-Serif" font-size="10.00">fstream</text>
</a>
</g>
</g>
<!-- Node20&#45;&gt;Node30 -->
<g id="edge37_Node000020_Node000030" class="edge">
<title>Node20&#45;&gt;Node30</title>
<g id="a_edge37_Node000020_Node000030"><a xlink:title=" ">
<path fill="none" stroke="#63b8ff" d="M1066.38,-54.84C1051.31,-46.66 1028.86,-34.46 1011.35,-24.94"/>
<polygon fill="#63b8ff" stroke="#63b8ff" points="1013.49,-22.12 1003.04,-20.43 1010.15,-28.27 1013.49,-22.12"/>
</a>
</g>
</g>
<!-- Node31 -->
<g id="Node000031" class="node">
<title>Node31</title>
<g id="a_Node000031"><a xlink:title=" ">
<polygon fill="#e0e0e0" stroke="#999999" points="1082.88,-19.25 1027.12,-19.25 1027.12,0 1082.88,0 1082.88,-19.25"/>
<text text-anchor="middle" x="1055" y="-5.75" font-family="Helvetica,sans-Serif" font-size="10.00">algorithm</text>
</a>
</g>
</g>
<!-- Node20&#45;&gt;Node31 -->
<g id="edge38_Node000020_Node000031" class="edge">
<title>Node20&#45;&gt;Node31</title>
<g id="a_edge38_Node000020_Node000031"><a xlink:title=" ">
<path fill="none" stroke="#63b8ff" d="M1078.38,-55.08C1074.75,-48.19 1069.57,-38.34 1065.01,-29.66"/>
<polygon fill="#63b8ff" stroke="#63b8ff" points="1068.18,-28.17 1060.43,-20.95 1061.98,-31.43 1068.18,-28.17"/>
</a>
</g>
</g>
<!-- Node32 -->
<g id="Node000032" class="node">
<title>Node32</title>
<g id="a_Node000032"><a xlink:title=" ">
<polygon fill="#e0e0e0" stroke="#999999" points="1351.75,-19.25 1292.25,-19.25 1292.25,0 1351.75,0 1351.75,-19.25"/>
<text text-anchor="middle" x="1322" y="-5.75" font-family="Helvetica,sans-Serif" font-size="10.00">sys/wait.h</text>
</a>
</g>
</g>
<!-- Node20&#45;&gt;Node32 -->
<g id="edge39_Node000020_Node000032" class="edge">
<title>Node20&#45;&gt;Node32</title>
<g id="a_edge39_Node000020_Node000032"><a xlink:title=" ">
<path fill="none" stroke="#63b8ff" d="M1111.35,-57.56C1153.37,-48.2 1232.38,-30.59 1280.79,-19.81"/>
<polygon fill="#63b8ff" stroke="#63b8ff" points="1281.33,-23.27 1290.33,-17.68 1279.81,-16.44 1281.33,-23.27"/>
</a>
</g>
</g>
<!-- Node33 -->
<g id="Node000033" class="node">
<title>Node33</title>
<g id="a_Node000033"><a xlink:title=" ">
<polygon fill="#e0e0e0" stroke="#999999" points="1430.12,-19.25 1369.88,-19.25 1369.88,0 1430.12,0 1430.12,-19.25"/>
<text text-anchor="middle" x="1400" y="-5.75" font-family="Helvetica,sans-Serif" font-size="10.00">sys/prctl.h</text>
</a>
</g>
</g>
<!-- Node20&#45;&gt;Node33 -->
<g id="edge40_Node000020_Node000033" class="edge">
<title>Node20&#45;&gt;Node33</title>
<g id="a_edge40_Node000020_Node000033"><a xlink:title=" ">
<path fill="none" stroke="#63b8ff" d="M1111.51,-59.86C1160.1,-52.9 1262.29,-37.73 1358.31,-19.68"/>
<polygon fill="#63b8ff" stroke="#63b8ff" points="1358.72,-23.16 1367.89,-17.86 1357.41,-16.28 1358.72,-23.16"/>
</a>
</g>
</g>
<!-- Node34&#45;&gt;Node10 -->
<g id="edge42_Node000034_Node000010" class="edge">
<title>Node34&#45;&gt;Node10</title>
<g id="a_edge42_Node000034_Node000010"><a xlink:title=" ">
<path fill="none" stroke="#63b8ff" d="M418.66,-55.08C419.16,-48.49 419.85,-39.21 420.48,-30.82"/>
<polygon fill="#63b8ff" stroke="#63b8ff" points="423.95,-31.35 421.21,-21.12 416.97,-30.83 423.95,-31.35"/>
</a>
</g>
</g>
<!-- Node35&#45;&gt;Node10 -->
<g id="edge48_Node000035_Node000010" class="edge">
<title>Node35&#45;&gt;Node10</title>
<g id="a_edge48_Node000035_Node000010"><a xlink:title=" ">
<path fill="none" stroke="#63b8ff" d="M761.34,-113.83C722.44,-107.14 656.87,-94.08 603,-74.5 585.21,-68.03 582.54,-62.37 565,-55.25 554.5,-50.99 492.01,-31.84 453.19,-20.06"/>
<polygon fill="#63b8ff" stroke="#63b8ff" points="454.5,-16.8 443.91,-17.24 452.46,-23.49 454.5,-16.8"/>
</a>
</g>
</g>
<!-- Node35&#45;&gt;Node11 -->
<g id="edge49_Node000035_Node000011" class="edge">
<title>Node35&#45;&gt;Node11</title>
<g id="a_edge49_Node000035_Node000011"><a xlink:title=" ">
<path fill="none" stroke="#63b8ff" d="M783.3,-110.25C759.1,-91.89 703.29,-49.54 672.8,-26.41"/>
<polygon fill="#63b8ff" stroke="#63b8ff" points="675.15,-23.8 665.07,-20.54 670.92,-29.37 675.15,-23.8"/>
</a>
</g>
</g>
<!-- Node35&#45;&gt;Node12 -->
<g id="edge47_Node000035_Node000012" class="edge">
<title>Node35&#45;&gt;Node12</title>
<g id="a_edge47_Node000035_Node000012"><a xlink:title=" ">
<path fill="none" stroke="#63b8ff" d="M801.34,-110.15C809.21,-97.89 821.02,-75.17 816,-55.25 813.72,-46.21 809.21,-37 804.71,-29.31"/>
<polygon fill="#63b8ff" stroke="#63b8ff" points="807.71,-27.5 799.4,-20.92 801.79,-31.24 807.71,-27.5"/>
</a>
</g>
</g>
<!-- Node35&#45;&gt;Node13 -->
<g id="edge44_Node000035_Node000013" class="edge">
<title>Node35&#45;&gt;Node13</title>
<g id="a_edge44_Node000035_Node000013"><a xlink:title=" ">
<path fill="none" stroke="#63b8ff" d="M794.46,-110.1C793.29,-96.98 789.59,-72.35 778,-55.25 769.83,-43.2 757.3,-33.14 745.81,-25.65"/>
<polygon fill="#63b8ff" stroke="#63b8ff" points="747.75,-22.73 737.39,-20.52 744.11,-28.71 747.75,-22.73"/>
</a>
</g>
</g>
<!-- Node35&#45;&gt;Node20 -->
<g id="edge51_Node000035_Node000020" class="edge">
<title>Node35&#45;&gt;Node20</title>
<g id="a_edge51_Node000035_Node000020"><a xlink:title=" ">
<path fill="none" stroke="#63b8ff" d="M828.88,-112.86C882.44,-102.96 986.41,-83.73 1043.35,-73.21"/>
<polygon fill="#63b8ff" stroke="#63b8ff" points="1043.73,-76.69 1052.93,-71.43 1042.46,-69.81 1043.73,-76.69"/>
</a>
</g>
</g>
<!-- Node35&#45;&gt;Node26 -->
<g id="edge46_Node000035_Node000026" class="edge">
<title>Node35&#45;&gt;Node26</title>
<g id="a_edge46_Node000035_Node000026"><a xlink:title=" ">
<path fill="none" stroke="#63b8ff" d="M804.98,-110.25C825.45,-92.05 872.42,-50.27 898.57,-27.01"/>
<polygon fill="#63b8ff" stroke="#63b8ff" points="900.6,-29.89 905.75,-20.63 895.95,-24.66 900.6,-29.89"/>
</a>
</g>
</g>
<!-- Node35&#45;&gt;Node30 -->
<g id="edge45_Node000035_Node000030" class="edge">
<title>Node35&#45;&gt;Node30</title>
<g id="a_edge45_Node000035_Node000030"><a xlink:title=" ">
<path fill="none" stroke="#63b8ff" d="M810.87,-110.06C843.7,-91.31 919.33,-48.12 959.25,-25.33"/>
<polygon fill="#63b8ff" stroke="#63b8ff" points="960.78,-28.49 967.72,-20.49 957.31,-22.41 960.78,-28.49"/>
</a>
</g>
</g>
<!-- Node35&#45;&gt;Node31 -->
<g id="edge50_Node000035_Node000031" class="edge">
<title>Node35&#45;&gt;Node31</title>
<g id="a_edge50_Node000035_Node000031"><a xlink:title=" ">
<path fill="none" stroke="#63b8ff" d="M817.16,-110.14C839.21,-101.18 873.98,-86.99 904,-74.5 945.43,-57.26 993.09,-37.03 1023.6,-24.03"/>
<polygon fill="#63b8ff" stroke="#63b8ff" points="1024.81,-27.32 1032.63,-20.18 1022.06,-20.88 1024.81,-27.32"/>
</a>
</g>
</g>
<!-- Node36&#45;&gt;Node10 -->
<g id="edge53_Node000036_Node000010" class="edge">
<title>Node36&#45;&gt;Node10</title>
<g id="a_edge53_Node000036_Node000010"><a xlink:title=" ">
<path fill="none" stroke="#63b8ff" d="M495.9,-54.84C482.48,-46.81 462.59,-34.91 446.83,-25.48"/>
<polygon fill="#63b8ff" stroke="#63b8ff" points="448.85,-22.61 438.47,-20.48 445.25,-28.62 448.85,-22.61"/>
</a>
</g>
</g>
<!-- Node37&#45;&gt;Node6 -->
<g id="edge56_Node000037_Node000006" class="edge">
<title>Node37&#45;&gt;Node6</title>
<g id="a_edge56_Node000037_Node000006"><a xlink:title=" ">
<path fill="none" stroke="#63b8ff" d="M302.19,-54.84C285.97,-46.62 261.76,-34.34 242.97,-24.81"/>
<polygon fill="#63b8ff" stroke="#63b8ff" points="244.75,-21.79 234.25,-20.39 241.58,-28.03 244.75,-21.79"/>
</a>
</g>
</g>
<!-- Node37&#45;&gt;Node10 -->
<g id="edge55_Node000037_Node000010" class="edge">
<title>Node37&#45;&gt;Node10</title>
<g id="a_edge55_Node000037_Node000010"><a xlink:title=" ">
<path fill="none" stroke="#63b8ff" d="M337.3,-54.84C352.98,-46.66 376.35,-34.46 394.58,-24.94"/>
<polygon fill="#63b8ff" stroke="#63b8ff" points="396.03,-28.13 403.27,-20.4 392.79,-21.93 396.03,-28.13"/>
</a>
</g>
</g>
<!-- Node38 -->
<g id="Node000038" class="node">
<title>Node38</title>
<g id="a_Node000038"><a xlink:title=" ">
<polygon fill="#e0e0e0" stroke="#999999" points="323.88,-19.25 256.12,-19.25 256.12,0 323.88,0 323.88,-19.25"/>
<text text-anchor="middle" x="290" y="-5.75" font-family="Helvetica,sans-Serif" font-size="10.00">TDirectory.h</text>
</a>
</g>
</g>
<!-- Node37&#45;&gt;Node38 -->
<g id="edge57_Node000037_Node000038" class="edge">
<title>Node37&#45;&gt;Node38</title>
<g id="a_edge57_Node000037_Node000038"><a xlink:title=" ">
<path fill="none" stroke="#63b8ff" d="M315.05,-55.08C311.12,-48.11 305.49,-38.12 300.56,-29.37"/>
<polygon fill="#63b8ff" stroke="#63b8ff" points="303.76,-27.92 295.8,-20.93 297.66,-31.36 303.76,-27.92"/>
</a>
</g>
</g>
<!-- Node39 -->
<g id="Node000039" class="node">
<title>Node39</title>
<g id="a_Node000039"><a xlink:title=" ">
<polygon fill="#e0e0e0" stroke="#999999" points="384.12,-19.25 341.88,-19.25 341.88,0 384.12,0 384.12,-19.25"/>
<text text-anchor="middle" x="363" y="-5.75" font-family="Helvetica,sans-Serif" font-size="10.00">TH2.h</text>
</a>
</g>
</g>
<!-- Node37&#45;&gt;Node39 -->
<g id="edge58_Node000037_Node000039" class="edge">
<title>Node37&#45;&gt;Node39</title>
<g id="a_edge58_Node000037_Node000039"><a xlink:title=" ">
<path fill="none" stroke="#63b8ff" d="M327.1,-55.08C332.92,-47.88 341.33,-37.46 348.56,-28.51"/>
<polygon fill="#63b8ff" stroke="#63b8ff" points="351.23,-30.77 354.79,-20.79 345.79,-26.37 351.23,-30.77"/>
</a>
</g>
</g>
</g>
</svg>

<g id="navigator" transform="translate(0 0)" fill="#404254">
  <rect fill="#f2f5e9" fill-opacity="0.5" stroke="#606060" stroke-width=".5" x="0" y="0" width="60" height="60"/>
  <use id="zoomplus" xlink:href="#zoomPlus" x="17" y="9" onmousedown="handleZoom(evt,'in')"/>
  <use id="zoomminus" xlink:href="#zoomMin" x="42" y="9" onmousedown="handleZoom(evt,'out')"/>
  <use id="reset" xlink:href="#resetDef" x="30" y="36" onmousedown="handleReset()"/>
   <use id="arrowup" xlink:href="#arrowUp" x="0" y="0" onmousedown="handlePan(0,-1)"/>
  <use id="arrowright" xlink:href="#arrowRight" x="0" y="0" onmousedown="handlePan(1,0)"/>
  <use id="arrowdown" xlink:href="#arrowDown" x="0" y="0" onmousedown="handlePan(0,1)"/>
  <use id="arrowleft" xlink:href="#arrowLeft" x="0" y="0" onmousedown="handlePan(-1,0)"/>
</g>
<svg viewBox="0 0 15 15" width="100%" height="30px" preserveAspectRatio="xMaxYMin meet">
 <g id="arrow_out" transform="scale(0.3 0.3)">
  <a xlink:href="_t_g_r_s_i_options_8cxx__incl_org.svg" target="_base">
   <rect id="button" ry="5" rx="5" y="6" x="6" height="38" width="38"
        fill="#f2f5e9" fill-opacity="0.5" stroke="#606060" stroke-width="1.0"/>
   <path id="arrow"
     d="M 11.500037,31.436501 C 11.940474,20.09759 22.043105,11.32322 32.158766,21.979434 L 37.068811,17.246167 C 37.068811,17.246167 37.088388,32 37.088388,32 L 22.160133,31.978069 C 22.160133,31.978069 26.997745,27.140456 26.997745,27.140456 C 18.528582,18.264221 13.291696,25.230495 11.500037,31.436501 z"
     style="fill:#404040;"/>
  </a>
 </g>
</svg>

<style type='text/css'>
<![CDATA[
[data-mouse-over-selected='false'] { opacity: 0.7; }
[data-mouse-over-selected='true']  { opacity: 1.0; }
]]>
</style>
<script type="application/ecmascript"><![CDATA[
document.addEventListener('DOMContentLoaded', (event) => {
  highlightEdges();
  highlightAdjacentNodes();
});
]]></script>
</svg>
