<?xml version="1.0" encoding="UTF-8" standalone="no"?>
<!DOCTYPE svg PUBLIC "-//W3C//DTD SVG 1.1//EN"
 "http://www.w3.org/Graphics/SVG/1.1/DTD/svg11.dtd">
<!-- Generated by graphviz version 9.0.0 (20230911.1827)
 -->
<!-- Title: TGRSIOptions.cxx Pages: 1 -->
<svg width="1529pt" height="304pt"
 viewBox="0.00 0.00 1528.84 303.50" xmlns="http://www.w3.org/2000/svg" xmlns:xlink="http://www.w3.org/1999/xlink">
<g id="graph0" class="graph" transform="scale(1 1) rotate(0) translate(4 299.5)">
<title>TGRSIOptions.cxx</title>
<!-- Node1 -->
<g id="Node000001" class="node">
<title>Node1</title>
<g id="a_Node000001"><a xlink:title=" ">
<polygon fill="#999999" stroke="#666666" points="784.96,-295.5 688.71,-295.5 688.71,-276.25 784.96,-276.25 784.96,-295.5"/>
<text text-anchor="middle" x="736.84" y="-282" font-family="Helvetica,sans-Serif" font-size="10.00">TGRSIOptions.cxx</text>
</a>
</g>
</g>
<!-- Node2 -->
<g id="Node000002" class="node">
<title>Node2</title>
<g id="a_Node000002"><a xlink:href="_t_g_r_s_i_options_8h.html" target="_top" xlink:title=" ">
<polygon fill="white" stroke="#666666" points="210.46,-240.25 123.21,-240.25 123.21,-221 210.46,-221 210.46,-240.25"/>
<text text-anchor="middle" x="166.84" y="-226.75" font-family="Helvetica,sans-Serif" font-size="10.00">TGRSIOptions.h</text>
</a>
</g>
</g>
<!-- Node1&#45;&gt;Node2 -->
<g id="edge1_Node000001_Node000002" class="edge">
<title>Node1&#45;&gt;Node2</title>
<g id="a_edge1_Node000001_Node000002"><a xlink:title=" ">
<path fill="none" stroke="#63b8ff" d="M688.24,-280.33C582.8,-270.48 333.59,-247.2 222.25,-236.8"/>
<polygon fill="#63b8ff" stroke="#63b8ff" points="222.75,-233.33 212.47,-235.89 222.1,-240.3 222.75,-233.33"/>
</a>
</g>
</g>
<!-- Node10 -->
<g id="Node000010" class="node">
<title>Node10</title>
<g id="a_Node000010"><a xlink:href="_arg_parser_8h.html" target="_top" xlink:title=" ">
<polygon fill="white" stroke="#666666" points="378.34,-129.75 311.34,-129.75 311.34,-110.5 378.34,-110.5 378.34,-129.75"/>
<text text-anchor="middle" x="344.84" y="-116.25" font-family="Helvetica,sans-Serif" font-size="10.00">ArgParser.h</text>
</a>
</g>
</g>
<!-- Node1&#45;&gt;Node10 -->
<g id="edge55_Node000001_Node000010" class="edge">
<title>Node1&#45;&gt;Node10</title>
<g id="a_edge55_Node000001_Node000010"><a xlink:title=" ">
<path fill="none" stroke="#63b8ff" d="M688.44,-278.63C647.29,-272.24 587.19,-260.35 537.84,-240.25 470.13,-212.67 399.11,-162.43 365.2,-136.91"/>
<polygon fill="#63b8ff" stroke="#63b8ff" points="367.56,-134.31 357.49,-131.04 363.32,-139.88 367.56,-134.31"/>
</a>
</g>
</g>
<!-- Node11 -->
<g id="Node000011" class="node">
<title>Node11</title>
<g id="a_Node000011"><a xlink:title=" ">
<polygon fill="#e0e0e0" stroke="#999999" points="305.59,-19.25 252.09,-19.25 252.09,0 305.59,0 305.59,-19.25"/>
<text text-anchor="middle" x="278.84" y="-5.75" font-family="Helvetica,sans-Serif" font-size="10.00">iostream</text>
</a>
</g>
</g>
<!-- Node1&#45;&gt;Node11 -->
<g id="edge48_Node000001_Node000011" class="edge">
<title>Node1&#45;&gt;Node11</title>
<g id="a_edge48_Node000001_Node000011"><a xlink:title=" ">
<path fill="none" stroke="#63b8ff" d="M688.52,-284.29C595.33,-280.22 392.03,-256.48 301.84,-129.75 280.83,-100.23 277.67,-56.6 277.85,-31.14"/>
<polygon fill="#63b8ff" stroke="#63b8ff" points="281.35,-31.27 278.14,-21.18 274.35,-31.07 281.35,-31.27"/>
</a>
</g>
</g>
<!-- Node17 -->
<g id="Node000017" class="node">
<title>Node17</title>
<g id="a_Node000017"><a xlink:href="_globals_8h.html" target="_top" xlink:title=" ">
<polygon fill="white" stroke="#666666" points="863.09,-74.5 806.59,-74.5 806.59,-55.25 863.09,-55.25 863.09,-74.5"/>
<text text-anchor="middle" x="834.84" y="-61" font-family="Helvetica,sans-Serif" font-size="10.00">Globals.h</text>
</a>
</g>
</g>
<!-- Node1&#45;&gt;Node17 -->
<g id="edge52_Node000001_Node000017" class="edge">
<title>Node1&#45;&gt;Node17</title>
<g id="a_edge52_Node000001_Node000017"><a xlink:title=" ">
<path fill="none" stroke="#63b8ff" d="M754.81,-275.81C768.17,-268.15 785.76,-255.91 795.84,-240.25 827.38,-191.21 833.63,-120.16 834.72,-85.88"/>
<polygon fill="#63b8ff" stroke="#63b8ff" points="838.21,-86.23 834.9,-76.17 831.22,-86.1 838.21,-86.23"/>
</a>
</g>
</g>
<!-- Node27 -->
<g id="Node000027" class="node">
<title>Node27</title>
<g id="a_Node000027"><a xlink:title=" ">
<polygon fill="#e0e0e0" stroke="#999999" points="1520.84,-19.25 1474.84,-19.25 1474.84,0 1520.84,0 1520.84,-19.25"/>
<text text-anchor="middle" x="1497.84" y="-5.75" font-family="Helvetica,sans-Serif" font-size="10.00">TEnv.h</text>
</a>
</g>
</g>
<!-- Node1&#45;&gt;Node27 -->
<g id="edge49_Node000001_Node000027" class="edge">
<title>Node1&#45;&gt;Node27</title>
<g id="a_edge49_Node000001_Node000027"><a xlink:title=" ">
<path fill="none" stroke="#63b8ff" d="M755.99,-275.89C783.69,-263.03 836.68,-238.95 882.84,-221 1101.15,-136.07 1369.8,-50.54 1463.6,-21.24"/>
<polygon fill="#63b8ff" stroke="#63b8ff" points="1464.46,-24.64 1472.96,-18.32 1462.37,-17.95 1464.46,-24.64"/>
</a>
</g>
</g>
<!-- Node34 -->
<g id="Node000034" class="node">
<title>Node34</title>
<g id="a_Node000034"><a xlink:title=" ">
<polygon fill="#e0e0e0" stroke="#999999" points="947.71,-240.25 891.96,-240.25 891.96,-221 947.71,-221 947.71,-240.25"/>
<text text-anchor="middle" x="919.84" y="-226.75" font-family="Helvetica,sans-Serif" font-size="10.00">algorithm</text>
</a>
</g>
</g>
<!-- Node1&#45;&gt;Node34 -->
<g id="edge46_Node000001_Node000034" class="edge">
<title>Node1&#45;&gt;Node34</title>
<g id="a_edge46_Node000001_Node000034"><a xlink:title=" ">
<path fill="none" stroke="#63b8ff" d="M767.88,-275.84C799.03,-266.78 847.1,-252.79 880.81,-242.98"/>
<polygon fill="#63b8ff" stroke="#63b8ff" points="881.57,-246.4 890.2,-240.25 879.62,-239.68 881.57,-246.4"/>
</a>
</g>
</g>
<!-- Node35 -->
<g id="Node000035" class="node">
<title>Node35</title>
<g id="a_Node000035"><a xlink:title=" ">
<polygon fill="#e0e0e0" stroke="#999999" points="1010.09,-240.25 965.59,-240.25 965.59,-221 1010.09,-221 1010.09,-240.25"/>
<text text-anchor="middle" x="987.84" y="-226.75" font-family="Helvetica,sans-Serif" font-size="10.00">cctype</text>
</a>
</g>
</g>
<!-- Node1&#45;&gt;Node35 -->
<g id="edge47_Node000001_Node000035" class="edge">
<title>Node1&#45;&gt;Node35</title>
<g id="a_edge47_Node000001_Node000035"><a xlink:title=" ">
<path fill="none" stroke="#63b8ff" d="M785.12,-276.11C827.39,-268.2 890.7,-255.81 954.18,-240.76"/>
<polygon fill="#63b8ff" stroke="#63b8ff" points="954.82,-244.21 963.73,-238.48 953.19,-237.4 954.82,-244.21"/>
</a>
</g>
</g>
<!-- Node36 -->
<g id="Node000036" class="node">
<title>Node36</title>
<g id="a_Node000036"><a xlink:title=" ">
<polygon fill="#e0e0e0" stroke="#999999" points="1073.84,-240.25 1027.84,-240.25 1027.84,-221 1073.84,-221 1073.84,-240.25"/>
<text text-anchor="middle" x="1050.84" y="-226.75" font-family="Helvetica,sans-Serif" font-size="10.00">TKey.h</text>
</a>
</g>
</g>
<!-- Node1&#45;&gt;Node36 -->
<g id="edge50_Node000001_Node000036" class="edge">
<title>Node1&#45;&gt;Node36</title>
<g id="a_edge50_Node000001_Node000036"><a xlink:title=" ">
<path fill="none" stroke="#63b8ff" d="M785.27,-278.8C839.37,-271.67 929.72,-258.71 1016.39,-240.58"/>
<polygon fill="#63b8ff" stroke="#63b8ff" points="1016.95,-244.04 1026.01,-238.54 1015.5,-237.19 1016.95,-244.04"/>
</a>
</g>
</g>
<!-- Node37 -->
<g id="Node000037" class="node">
<title>Node37</title>
<g id="a_Node000037"><a xlink:title=" ">
<polygon fill="#e0e0e0" stroke="#999999" points="1154.09,-240.25 1091.59,-240.25 1091.59,-221 1154.09,-221 1154.09,-240.25"/>
<text text-anchor="middle" x="1122.84" y="-226.75" font-family="Helvetica,sans-Serif" font-size="10.00">TSystem.h</text>
</a>
</g>
</g>
<!-- Node1&#45;&gt;Node37 -->
<g id="edge51_Node000001_Node000037" class="edge">
<title>Node1&#45;&gt;Node37</title>
<g id="a_edge51_Node000001_Node000037"><a xlink:title=" ">
<path fill="none" stroke="#63b8ff" d="M785.45,-279.91C850.42,-272.99 969.35,-259.31 1080.38,-240.55"/>
<polygon fill="#63b8ff" stroke="#63b8ff" points="1080.68,-244.05 1089.95,-238.91 1079.5,-237.15 1080.68,-244.05"/>
</a>
</g>
</g>
<!-- Node38 -->
<g id="Node000038" class="node">
<title>Node38</title>
<g id="a_Node000038"><a xlink:href="_full_path_8h.html" target="_top" xlink:title=" ">
<polygon fill="white" stroke="#666666" points="673.59,-185 614.09,-185 614.09,-165.75 673.59,-165.75 673.59,-185"/>
<text text-anchor="middle" x="643.84" y="-171.5" font-family="Helvetica,sans-Serif" font-size="10.00">FullPath.h</text>
</a>
</g>
</g>
<!-- Node1&#45;&gt;Node38 -->
<g id="edge53_Node000001_Node000038" class="edge">
<title>Node1&#45;&gt;Node38</title>
<g id="a_edge53_Node000001_Node000038"><a xlink:title=" ">
<path fill="none" stroke="#63b8ff" d="M721.3,-275.8C708.44,-267.71 690.34,-254.91 677.84,-240.25 666.49,-226.94 657.43,-209.22 651.52,-195.82"/>
<polygon fill="#63b8ff" stroke="#63b8ff" points="654.83,-194.65 647.75,-186.77 648.37,-197.35 654.83,-194.65"/>
</a>
</g>
</g>
<!-- Node39 -->
<g id="Node000039" class="node">
<title>Node39</title>
<g id="a_Node000039"><a xlink:href="_dynamic_library_8h.html" target="_top" xlink:title=" ">
<polygon fill="white" stroke="#666666" points="595.96,-185 505.71,-185 505.71,-165.75 595.96,-165.75 595.96,-185"/>
<text text-anchor="middle" x="550.84" y="-171.5" font-family="Helvetica,sans-Serif" font-size="10.00">DynamicLibrary.h</text>
</a>
</g>
</g>
<!-- Node1&#45;&gt;Node39 -->
<g id="edge56_Node000001_Node000039" class="edge">
<title>Node1&#45;&gt;Node39</title>
<g id="a_edge56_Node000001_Node000039"><a xlink:title=" ">
<path fill="none" stroke="#63b8ff" d="M721.3,-275.81C689.23,-257.1 615.44,-214.06 576.29,-191.23"/>
<polygon fill="#63b8ff" stroke="#63b8ff" points="578.17,-188.27 567.77,-186.25 574.64,-194.31 578.17,-188.27"/>
</a>
</g>
</g>
<!-- Node40 -->
<g id="Node000040" class="node">
<title>Node40</title>
<g id="a_Node000040"><a xlink:href="_t_g_r_s_i_utilities_8h.html" target="_top" xlink:title=" ">
<polygon fill="white" stroke="#666666" points="521.09,-129.75 434.59,-129.75 434.59,-110.5 521.09,-110.5 521.09,-129.75"/>
<text text-anchor="middle" x="477.84" y="-116.25" font-family="Helvetica,sans-Serif" font-size="10.00">TGRSIUtilities.h</text>
</a>
</g>
</g>
<!-- Node1&#45;&gt;Node40 -->
<g id="edge58_Node000001_Node000040" class="edge">
<title>Node1&#45;&gt;Node40</title>
<g id="a_edge58_Node000001_Node000040"><a xlink:title=" ">
<path fill="none" stroke="#63b8ff" d="M688.21,-277.41C633.93,-266.54 547.12,-241.14 496.84,-185 486.08,-172.99 481.4,-155.13 479.38,-141.35"/>
<polygon fill="#63b8ff" stroke="#63b8ff" points="482.88,-141.19 478.32,-131.62 475.92,-141.94 482.88,-141.19"/>
</a>
</g>
</g>
<!-- Node41 -->
<g id="Node000041" class="node">
<title>Node41</title>
<g id="a_Node000041"><a xlink:href="_g_root_commands_8h.html" target="_top" xlink:title=" ">
<polygon fill="white" stroke="#666666" points="787.21,-240.25 686.46,-240.25 686.46,-221 787.21,-221 787.21,-240.25"/>
<text text-anchor="middle" x="736.84" y="-226.75" font-family="Helvetica,sans-Serif" font-size="10.00">GRootCommands.h</text>
</a>
</g>
</g>
<!-- Node1&#45;&gt;Node41 -->
<g id="edge63_Node000001_Node000041" class="edge">
<title>Node1&#45;&gt;Node41</title>
<g id="a_edge63_Node000001_Node000041"><a xlink:title=" ">
<path fill="none" stroke="#63b8ff" d="M736.84,-276.08C736.84,-269.57 736.84,-260.42 736.84,-252.12"/>
<polygon fill="#63b8ff" stroke="#63b8ff" points="740.34,-252.12 736.84,-242.12 733.34,-252.12 740.34,-252.12"/>
</a>
</g>
</g>
<!-- Node3 -->
<g id="Node000003" class="node">
<title>Node3</title>
<g id="a_Node000003"><a xlink:title=" ">
<polygon fill="#e0e0e0" stroke="#999999" points="234.21,-19.25 199.46,-19.25 199.46,0 234.21,0 234.21,-19.25"/>
<text text-anchor="middle" x="216.84" y="-5.75" font-family="Helvetica,sans-Serif" font-size="10.00">map</text>
</a>
</g>
</g>
<!-- Node2&#45;&gt;Node3 -->
<g id="edge2_Node000002_Node000003" class="edge">
<title>Node2&#45;&gt;Node3</title>
<g id="a_edge2_Node000002_Node000003"><a xlink:title=" ">
<path fill="none" stroke="#63b8ff" d="M140.85,-220.51C122.48,-213.1 98.15,-201.2 80.84,-185 33.45,-140.66 -27.2,-105.53 13.84,-55.25 62.15,3.95 108.43,-35.67 188.24,-19.14"/>
<polygon fill="#63b8ff" stroke="#63b8ff" points="188.79,-22.61 197.72,-16.91 187.19,-15.79 188.79,-22.61"/>
</a>
</g>
</g>
<!-- Node4 -->
<g id="Node000004" class="node">
<title>Node4</title>
<g id="a_Node000004"><a xlink:title=" ">
<polygon fill="#e0e0e0" stroke="#999999" points="143.84,-129.75 85.84,-129.75 85.84,-110.5 143.84,-110.5 143.84,-129.75"/>
<text text-anchor="middle" x="114.84" y="-116.25" font-family="Helvetica,sans-Serif" font-size="10.00">TObject.h</text>
</a>
</g>
</g>
<!-- Node2&#45;&gt;Node4 -->
<g id="edge3_Node000002_Node000004" class="edge">
<title>Node2&#45;&gt;Node4</title>
<g id="a_edge3_Node000002_Node000004"><a xlink:title=" ">
<path fill="none" stroke="#63b8ff" d="M146.7,-220.52C132.98,-213.1 115.9,-201.21 107.84,-185 100.99,-171.24 103.54,-153.78 107.36,-140.6"/>
<polygon fill="#63b8ff" stroke="#63b8ff" points="110.6,-141.95 110.5,-131.35 103.97,-139.69 110.6,-141.95"/>
</a>
</g>
</g>
<!-- Node5 -->
<g id="Node000005" class="node">
<title>Node5</title>
<g id="a_Node000005"><a xlink:title=" ">
<polygon fill="#e0e0e0" stroke="#999999" points="234.46,-129.75 189.21,-129.75 189.21,-110.5 234.46,-110.5 234.46,-129.75"/>
<text text-anchor="middle" x="211.84" y="-116.25" font-family="Helvetica,sans-Serif" font-size="10.00">TFile.h</text>
</a>
</g>
</g>
<!-- Node2&#45;&gt;Node5 -->
<g id="edge4_Node000002_Node000005" class="edge">
<title>Node2&#45;&gt;Node5</title>
<g id="a_edge4_Node000002_Node000005"><a xlink:title=" ">
<path fill="none" stroke="#63b8ff" d="M186.97,-220.52C200.69,-213.1 217.77,-201.21 225.84,-185 232.88,-170.85 228.12,-153.2 222.31,-140.04"/>
<polygon fill="#63b8ff" stroke="#63b8ff" points="225.49,-138.57 217.89,-131.19 219.23,-141.7 225.49,-138.57"/>
</a>
</g>
</g>
<!-- Node6 -->
<g id="Node000006" class="node">
<title>Node6</title>
<g id="a_Node000006"><a xlink:href="_t_g_r_s_i_types_8h.html" target="_top" xlink:title=" ">
<polygon fill="white" stroke="#666666" points="519.71,-74.5 439.96,-74.5 439.96,-55.25 519.71,-55.25 519.71,-74.5"/>
<text text-anchor="middle" x="479.84" y="-61" font-family="Helvetica,sans-Serif" font-size="10.00">TGRSITypes.h</text>
</a>
</g>
</g>
<!-- Node2&#45;&gt;Node6 -->
<g id="edge5_Node000002_Node000006" class="edge">
<title>Node2&#45;&gt;Node6</title>
<g id="a_edge5_Node000002_Node000006"><a xlink:title=" ">
<path fill="none" stroke="#63b8ff" d="M190.29,-220.56C231.25,-204.4 317.98,-168.62 386.84,-129.75 412.74,-115.12 440.64,-95.37 459.05,-81.72"/>
<polygon fill="#63b8ff" stroke="#63b8ff" points="461.12,-84.55 467.02,-75.75 456.92,-78.95 461.12,-84.55"/>
</a>
</g>
</g>
<!-- Node9 -->
<g id="Node000009" class="node">
<title>Node9</title>
<g id="a_Node000009"><a xlink:href="_t_analysis_options_8h.html" target="_top" xlink:title=" ">
<polygon fill="white" stroke="#666666" points="216.84,-185 116.84,-185 116.84,-165.75 216.84,-165.75 216.84,-185"/>
<text text-anchor="middle" x="166.84" y="-171.5" font-family="Helvetica,sans-Serif" font-size="10.00">TAnalysisOptions.h</text>
</a>
</g>
</g>
<!-- Node2&#45;&gt;Node9 -->
<g id="edge9_Node000002_Node000009" class="edge">
<title>Node2&#45;&gt;Node9</title>
<g id="a_edge9_Node000002_Node000009"><a xlink:title=" ">
<path fill="none" stroke="#63b8ff" d="M166.84,-220.83C166.84,-214.32 166.84,-205.17 166.84,-196.87"/>
<polygon fill="#63b8ff" stroke="#63b8ff" points="170.34,-196.87 166.84,-186.87 163.34,-196.87 170.34,-196.87"/>
</a>
</g>
</g>
<!-- Node32 -->
<g id="Node000032" class="node">
<title>Node32</title>
<g id="a_Node000032"><a xlink:href="_t_user_settings_8h.html" target="_top" xlink:title=" ">
<polygon fill="white" stroke="#666666" points="241.09,-74.5 154.59,-74.5 154.59,-55.25 241.09,-55.25 241.09,-74.5"/>
<text text-anchor="middle" x="197.84" y="-61" font-family="Helvetica,sans-Serif" font-size="10.00">TUserSettings.h</text>
</a>
</g>
</g>
<!-- Node2&#45;&gt;Node32 -->
<g id="edge39_Node000002_Node000032" class="edge">
<title>Node2&#45;&gt;Node32</title>
<g id="a_edge39_Node000002_Node000032"><a xlink:title=" ">
<path fill="none" stroke="#63b8ff" d="M147.24,-220.55C132.5,-212.88 112.72,-200.64 99.84,-185 77.81,-158.25 57.02,-138.93 76.84,-110.5 91.88,-88.92 118.61,-77.75 143.12,-71.97"/>
<polygon fill="#63b8ff" stroke="#63b8ff" points="143.61,-75.45 152.7,-69.99 142.19,-68.59 143.61,-75.45"/>
</a>
</g>
</g>
<!-- Node6&#45;&gt;Node3 -->
<g id="edge6_Node000006_Node000003" class="edge">
<title>Node6&#45;&gt;Node3</title>
<g id="a_edge6_Node000006_Node000003"><a xlink:title=" ">
<path fill="none" stroke="#63b8ff" d="M439.58,-56.6C383.48,-46.42 284.91,-28.37 245.7,-19.55"/>
<polygon fill="#63b8ff" stroke="#63b8ff" points="246.66,-16.18 236.12,-17.24 245.02,-22.98 246.66,-16.18"/>
</a>
</g>
</g>
<!-- Node7 -->
<g id="Node000007" class="node">
<title>Node7</title>
<g id="a_Node000007"><a xlink:title=" ">
<polygon fill="#e0e0e0" stroke="#999999" points="511.84,-19.25 471.84,-19.25 471.84,0 511.84,0 511.84,-19.25"/>
<text text-anchor="middle" x="491.84" y="-5.75" font-family="Helvetica,sans-Serif" font-size="10.00">string</text>
</a>
</g>
</g>
<!-- Node6&#45;&gt;Node7 -->
<g id="edge7_Node000006_Node000007" class="edge">
<title>Node6&#45;&gt;Node7</title>
<g id="a_edge7_Node000006_Node000007"><a xlink:title=" ">
<path fill="none" stroke="#63b8ff" d="M481.82,-55.08C483.3,-48.49 485.39,-39.21 487.28,-30.82"/>
<polygon fill="#63b8ff" stroke="#63b8ff" points="490.69,-31.61 489.48,-21.09 483.87,-30.07 490.69,-31.61"/>
</a>
</g>
</g>
<!-- Node8 -->
<g id="Node000008" class="node">
<title>Node8</title>
<g id="a_Node000008"><a xlink:title=" ">
<polygon fill="#e0e0e0" stroke="#999999" points="453.59,-19.25 400.09,-19.25 400.09,0 453.59,0 453.59,-19.25"/>
<text text-anchor="middle" x="426.84" y="-5.75" font-family="Helvetica,sans-Serif" font-size="10.00">Rtypes.h</text>
</a>
</g>
</g>
<!-- Node6&#45;&gt;Node8 -->
<g id="edge8_Node000006_Node000008" class="edge">
<title>Node6&#45;&gt;Node8</title>
<g id="a_edge8_Node000006_Node000008"><a xlink:title=" ">
<path fill="none" stroke="#63b8ff" d="M471.08,-55.08C463.69,-47.65 452.87,-36.79 443.79,-27.66"/>
<polygon fill="#63b8ff" stroke="#63b8ff" points="446.38,-25.3 436.85,-20.68 441.42,-30.24 446.38,-25.3"/>
</a>
</g>
</g>
<!-- Node9&#45;&gt;Node4 -->
<g id="edge10_Node000009_Node000004" class="edge">
<title>Node9&#45;&gt;Node4</title>
<g id="a_edge10_Node000009_Node000004"><a xlink:title=" ">
<path fill="none" stroke="#63b8ff" d="M158.25,-165.58C150.99,-158.15 140.38,-147.29 131.47,-138.16"/>
<polygon fill="#63b8ff" stroke="#63b8ff" points="134.16,-135.9 124.67,-131.19 129.15,-140.79 134.16,-135.9"/>
</a>
</g>
</g>
<!-- Node9&#45;&gt;Node5 -->
<g id="edge11_Node000009_Node000005" class="edge">
<title>Node9&#45;&gt;Node5</title>
<g id="a_edge11_Node000009_Node000005"><a xlink:title=" ">
<path fill="none" stroke="#63b8ff" d="M174.27,-165.58C180.42,-158.3 189.35,-147.73 196.96,-138.73"/>
<polygon fill="#63b8ff" stroke="#63b8ff" points="199.49,-141.16 203.27,-131.27 194.14,-136.64 199.49,-141.16"/>
</a>
</g>
</g>
<!-- Node9&#45;&gt;Node10 -->
<g id="edge12_Node000009_Node000010" class="edge">
<title>Node9&#45;&gt;Node10</title>
<g id="a_edge12_Node000009_Node000010"><a xlink:title=" ">
<path fill="none" stroke="#63b8ff" d="M197.03,-165.34C226.31,-156.58 270.96,-143.23 303.52,-133.48"/>
<polygon fill="#63b8ff" stroke="#63b8ff" points="304.46,-136.86 313.04,-130.64 302.46,-130.15 304.46,-136.86"/>
</a>
</g>
</g>
<!-- Node10&#45;&gt;Node7 -->
<g id="edge17_Node000010_Node000007" class="edge">
<title>Node10&#45;&gt;Node7</title>
<g id="a_edge17_Node000010_Node000007"><a xlink:title=" ">
<path fill="none" stroke="#63b8ff" d="M378.62,-115.85C426.55,-110.44 510.5,-97.82 528.84,-74.5 540.58,-59.57 526.32,-40.51 512.23,-27.11"/>
<polygon fill="#63b8ff" stroke="#63b8ff" points="514.66,-24.59 504.85,-20.59 510.02,-29.84 514.66,-24.59"/>
</a>
</g>
</g>
<!-- Node10&#45;&gt;Node11 -->
<g id="edge13_Node000010_Node000011" class="edge">
<title>Node10&#45;&gt;Node11</title>
<g id="a_edge13_Node000010_Node000011"><a xlink:title=" ">
<path fill="none" stroke="#63b8ff" d="M339.43,-110.25C328.7,-92.6 304.49,-52.8 290.13,-29.2"/>
<polygon fill="#63b8ff" stroke="#63b8ff" points="293.29,-27.64 285.1,-20.92 287.3,-31.28 293.29,-27.64"/>
</a>
</g>
</g>
<!-- Node12 -->
<g id="Node000012" class="node">
<title>Node12</title>
<g id="a_Node000012"><a xlink:title=" ">
<polygon fill="#e0e0e0" stroke="#999999" points="422.34,-74.5 373.34,-74.5 373.34,-55.25 422.34,-55.25 422.34,-74.5"/>
<text text-anchor="middle" x="397.84" y="-61" font-family="Helvetica,sans-Serif" font-size="10.00">fstream</text>
</a>
</g>
</g>
<!-- Node10&#45;&gt;Node12 -->
<g id="edge14_Node000010_Node000012" class="edge">
<title>Node10&#45;&gt;Node12</title>
<g id="a_edge14_Node000010_Node000012"><a xlink:title=" ">
<path fill="none" stroke="#63b8ff" d="M353.59,-110.33C360.98,-102.9 371.8,-92.04 380.88,-82.91"/>
<polygon fill="#63b8ff" stroke="#63b8ff" points="383.25,-85.49 387.83,-75.93 378.29,-80.55 383.25,-85.49"/>
</a>
</g>
</g>
<!-- Node13 -->
<g id="Node000013" class="node">
<title>Node13</title>
<g id="a_Node000013"><a xlink:title=" ">
<polygon fill="#e0e0e0" stroke="#999999" points="581.46,-19.25 530.21,-19.25 530.21,0 581.46,0 581.46,-19.25"/>
<text text-anchor="middle" x="555.84" y="-5.75" font-family="Helvetica,sans-Serif" font-size="10.00">sstream</text>
</a>
</g>
</g>
<!-- Node10&#45;&gt;Node13 -->
<g id="edge15_Node000010_Node000013" class="edge">
<title>Node10&#45;&gt;Node13</title>
<g id="a_edge15_Node000010_Node000013"><a xlink:title=" ">
<path fill="none" stroke="#63b8ff" d="M378.46,-116.1C429.33,-110.82 522.33,-98.14 544.84,-74.5 555.77,-63.02 558,-44.83 557.79,-30.79"/>
<polygon fill="#63b8ff" stroke="#63b8ff" points="561.29,-30.66 557.19,-20.89 554.31,-31.09 561.29,-30.66"/>
</a>
</g>
</g>
<!-- Node14 -->
<g id="Node000014" class="node">
<title>Node14</title>
<g id="a_Node000014"><a xlink:title=" ">
<polygon fill="#e0e0e0" stroke="#999999" points="381.84,-19.25 323.84,-19.25 323.84,0 381.84,0 381.84,-19.25"/>
<text text-anchor="middle" x="352.84" y="-5.75" font-family="Helvetica,sans-Serif" font-size="10.00">stdexcept</text>
</a>
</g>
</g>
<!-- Node10&#45;&gt;Node14 -->
<g id="edge16_Node000010_Node000014" class="edge">
<title>Node10&#45;&gt;Node14</title>
<g id="a_edge16_Node000010_Node000014"><a xlink:title=" ">
<path fill="none" stroke="#63b8ff" d="M345.49,-110.25C346.76,-93 349.59,-54.58 351.35,-30.81"/>
<polygon fill="#63b8ff" stroke="#63b8ff" points="354.82,-31.37 352.06,-21.14 347.83,-30.85 354.82,-31.37"/>
</a>
</g>
</g>
<!-- Node15 -->
<g id="Node000015" class="node">
<title>Node15</title>
<g id="a_Node000015"><a xlink:title=" ">
<polygon fill="#e0e0e0" stroke="#999999" points="61.09,-74.5 22.59,-74.5 22.59,-55.25 61.09,-55.25 61.09,-74.5"/>
<text text-anchor="middle" x="41.84" y="-61" font-family="Helvetica,sans-Serif" font-size="10.00">utility</text>
</a>
</g>
</g>
<!-- Node10&#45;&gt;Node15 -->
<g id="edge18_Node000010_Node000015" class="edge">
<title>Node10&#45;&gt;Node15</title>
<g id="a_edge18_Node000010_Node000015"><a xlink:title=" ">
<path fill="none" stroke="#63b8ff" d="M310.97,-114.55C259.64,-107.38 159.18,-92.45 74.84,-74.5 74.01,-74.32 73.17,-74.14 72.33,-73.95"/>
<polygon fill="#63b8ff" stroke="#63b8ff" points="73.32,-70.59 62.78,-71.64 71.67,-77.39 73.32,-70.59"/>
</a>
</g>
</g>
<!-- Node16 -->
<g id="Node000016" class="node">
<title>Node16</title>
<g id="a_Node000016"><a xlink:title=" ">
<polygon fill="#e0e0e0" stroke="#999999" points="102.34,-19.25 59.34,-19.25 59.34,0 102.34,0 102.34,-19.25"/>
<text text-anchor="middle" x="80.84" y="-5.75" font-family="Helvetica,sans-Serif" font-size="10.00">vector</text>
</a>
</g>
</g>
<!-- Node10&#45;&gt;Node16 -->
<g id="edge19_Node000010_Node000016" class="edge">
<title>Node10&#45;&gt;Node16</title>
<g id="a_edge19_Node000010_Node000016"><a xlink:title=" ">
<path fill="none" stroke="#63b8ff" d="M310.93,-116.28C254.28,-110.93 143.57,-97.78 112.84,-74.5 98.62,-63.74 90.28,-44.92 85.7,-30.49"/>
<polygon fill="#63b8ff" stroke="#63b8ff" points="89.15,-29.82 83.09,-21.13 82.4,-31.7 89.15,-29.82"/>
</a>
</g>
</g>
<!-- Node10&#45;&gt;Node17 -->
<g id="edge20_Node000010_Node000017" class="edge">
<title>Node10&#45;&gt;Node17</title>
<g id="a_edge20_Node000010_Node000017"><a xlink:title=" ">
<path fill="none" stroke="#63b8ff" d="M378.72,-115.45C393.23,-113.9 410.36,-112.08 425.84,-110.5 588.88,-93.82 630.79,-99.02 792.84,-74.5 793.66,-74.37 794.5,-74.24 795.34,-74.11"/>
<polygon fill="#63b8ff" stroke="#63b8ff" points="795.72,-77.6 804.95,-72.39 794.49,-70.7 795.72,-77.6"/>
</a>
</g>
</g>
<!-- Node17&#45;&gt;Node7 -->
<g id="edge25_Node000017_Node000007" class="edge">
<title>Node17&#45;&gt;Node7</title>
<g id="a_edge25_Node000017_Node000007"><a xlink:title=" ">
<path fill="none" stroke="#63b8ff" d="M806.56,-60.4C743.71,-52.6 593.03,-33.41 523.54,-19.49"/>
<polygon fill="#63b8ff" stroke="#63b8ff" points="524.32,-16.08 513.81,-17.44 522.88,-22.93 524.32,-16.08"/>
</a>
</g>
</g>
<!-- Node17&#45;&gt;Node11 -->
<g id="edge22_Node000017_Node000011" class="edge">
<title>Node17&#45;&gt;Node11</title>
<g id="a_edge22_Node000017_Node000011"><a xlink:title=" ">
<path fill="none" stroke="#63b8ff" d="M806.19,-62.92C728.84,-60.03 509.24,-49.71 317.04,-19.35"/>
<polygon fill="#63b8ff" stroke="#63b8ff" points="317.8,-15.93 307.37,-17.8 316.69,-22.84 317.8,-15.93"/>
</a>
</g>
</g>
<!-- Node17&#45;&gt;Node13 -->
<g id="edge30_Node000017_Node000013" class="edge">
<title>Node17&#45;&gt;Node13</title>
<g id="a_edge30_Node000017_Node000013"><a xlink:title=" ">
<path fill="none" stroke="#63b8ff" d="M806.39,-57.93C801.86,-57.01 797.22,-56.09 792.84,-55.25 706.77,-38.75 681.96,-38.19 592.97,-19.58"/>
<polygon fill="#63b8ff" stroke="#63b8ff" points="593.77,-16.17 583.27,-17.53 592.33,-23.02 593.77,-16.17"/>
</a>
</g>
</g>
<!-- Node17&#45;&gt;Node14 -->
<g id="edge24_Node000017_Node000014" class="edge">
<title>Node17&#45;&gt;Node14</title>
<g id="a_edge24_Node000017_Node000014"><a xlink:title=" ">
<path fill="none" stroke="#63b8ff" d="M806.11,-62.22C736.81,-57.96 554.86,-45.22 393.32,-19.47"/>
<polygon fill="#63b8ff" stroke="#63b8ff" points="394.15,-16.05 383.72,-17.91 393.03,-22.96 394.15,-16.05"/>
</a>
</g>
</g>
<!-- Node18 -->
<g id="Node000018" class="node">
<title>Node18</title>
<g id="a_Node000018"><a xlink:title=" ">
<polygon fill="#e0e0e0" stroke="#999999" points="928.46,-19.25 883.21,-19.25 883.21,0 928.46,0 928.46,-19.25"/>
<text text-anchor="middle" x="905.84" y="-5.75" font-family="Helvetica,sans-Serif" font-size="10.00">cstdint</text>
</a>
</g>
</g>
<!-- Node17&#45;&gt;Node18 -->
<g id="edge21_Node000017_Node000018" class="edge">
<title>Node17&#45;&gt;Node18</title>
<g id="a_edge21_Node000017_Node000018"><a xlink:title=" ">
<path fill="none" stroke="#63b8ff" d="M846.88,-54.84C857.24,-47.07 872.44,-35.67 884.8,-26.4"/>
<polygon fill="#63b8ff" stroke="#63b8ff" points="886.86,-29.23 892.76,-20.43 882.66,-23.63 886.86,-29.23"/>
</a>
</g>
</g>
<!-- Node19 -->
<g id="Node000019" class="node">
<title>Node19</title>
<g id="a_Node000019"><a xlink:title=" ">
<polygon fill="#e0e0e0" stroke="#999999" points="996.71,-19.25 946.96,-19.25 946.96,0 996.71,0 996.71,-19.25"/>
<text text-anchor="middle" x="971.84" y="-5.75" font-family="Helvetica,sans-Serif" font-size="10.00">iomanip</text>
</a>
</g>
</g>
<!-- Node17&#45;&gt;Node19 -->
<g id="edge23_Node000017_Node000019" class="edge">
<title>Node17&#45;&gt;Node19</title>
<g id="a_edge23_Node000017_Node000019"><a xlink:title=" ">
<path fill="none" stroke="#63b8ff" d="M858.08,-54.84C880.02,-46.31 913.18,-33.42 938.05,-23.76"/>
<polygon fill="#63b8ff" stroke="#63b8ff" points="939.02,-27.14 947.07,-20.25 936.48,-20.61 939.02,-27.14"/>
</a>
</g>
</g>
<!-- Node20 -->
<g id="Node000020" class="node">
<title>Node20</title>
<g id="a_Node000020"><a xlink:title=" ">
<polygon fill="#e0e0e0" stroke="#999999" points="1056.96,-19.25 1014.71,-19.25 1014.71,0 1056.96,0 1056.96,-19.25"/>
<text text-anchor="middle" x="1035.84" y="-5.75" font-family="Helvetica,sans-Serif" font-size="10.00">cstdio</text>
</a>
</g>
</g>
<!-- Node17&#45;&gt;Node20 -->
<g id="edge26_Node000017_Node000020" class="edge">
<title>Node17&#45;&gt;Node20</title>
<g id="a_edge26_Node000017_Node000020"><a xlink:title=" ">
<path fill="none" stroke="#63b8ff" d="M863.33,-56.67C895.2,-48.56 948.61,-34.82 1003.28,-19.9"/>
<polygon fill="#63b8ff" stroke="#63b8ff" points="1004.04,-23.32 1012.76,-17.31 1002.19,-16.57 1004.04,-23.32"/>
</a>
</g>
</g>
<!-- Node21 -->
<g id="Node000021" class="node">
<title>Node21</title>
<g id="a_Node000021"><a xlink:title=" ">
<polygon fill="#e0e0e0" stroke="#999999" points="1119.09,-19.25 1074.59,-19.25 1074.59,0 1119.09,0 1119.09,-19.25"/>
<text text-anchor="middle" x="1096.84" y="-5.75" font-family="Helvetica,sans-Serif" font-size="10.00">cstdlib</text>
</a>
</g>
</g>
<!-- Node17&#45;&gt;Node21 -->
<g id="edge27_Node000017_Node000021" class="edge">
<title>Node17&#45;&gt;Node21</title>
<g id="a_edge27_Node000017_Node000021"><a xlink:title=" ">
<path fill="none" stroke="#63b8ff" d="M863.29,-57.97C867.82,-57.05 872.45,-56.12 876.84,-55.25 957.2,-39.35 980.63,-38.75 1063.02,-19.76"/>
<polygon fill="#63b8ff" stroke="#63b8ff" points="1063.79,-23.18 1072.73,-17.5 1062.2,-16.36 1063.79,-23.18"/>
</a>
</g>
</g>
<!-- Node22 -->
<g id="Node000022" class="node">
<title>Node22</title>
<g id="a_Node000022"><a xlink:title=" ">
<polygon fill="#e0e0e0" stroke="#999999" points="1196.59,-19.25 1137.09,-19.25 1137.09,0 1196.59,0 1196.59,-19.25"/>
<text text-anchor="middle" x="1166.84" y="-5.75" font-family="Helvetica,sans-Serif" font-size="10.00">execinfo.h</text>
</a>
</g>
</g>
<!-- Node17&#45;&gt;Node22 -->
<g id="edge28_Node000017_Node000022" class="edge">
<title>Node17&#45;&gt;Node22</title>
<g id="a_edge28_Node000017_Node000022"><a xlink:title=" ">
<path fill="none" stroke="#63b8ff" d="M863.26,-57.8C867.79,-56.9 872.44,-56.02 876.84,-55.25 984.28,-36.53 1015,-39.23 1125.35,-19.58"/>
<polygon fill="#63b8ff" stroke="#63b8ff" points="1125.94,-23.03 1135.16,-17.81 1124.7,-16.14 1125.94,-23.03"/>
</a>
</g>
</g>
<!-- Node23 -->
<g id="Node000023" class="node">
<title>Node23</title>
<g id="a_Node000023"><a xlink:title=" ">
<polygon fill="#e0e0e0" stroke="#999999" points="1265.09,-19.25 1214.59,-19.25 1214.59,0 1265.09,0 1265.09,-19.25"/>
<text text-anchor="middle" x="1239.84" y="-5.75" font-family="Helvetica,sans-Serif" font-size="10.00">cxxabi.h</text>
</a>
</g>
</g>
<!-- Node17&#45;&gt;Node23 -->
<g id="edge29_Node000017_Node000023" class="edge">
<title>Node17&#45;&gt;Node23</title>
<g id="a_edge29_Node000017_Node000023"><a xlink:title=" ">
<path fill="none" stroke="#63b8ff" d="M863.24,-57.67C867.77,-56.78 872.42,-55.94 876.84,-55.25 1018.6,-32.99 1059.12,-44.79 1203.28,-19.48"/>
<polygon fill="#63b8ff" stroke="#63b8ff" points="1203.58,-22.98 1212.81,-17.78 1202.35,-16.09 1203.58,-22.98"/>
</a>
</g>
</g>
<!-- Node24 -->
<g id="Node000024" class="node">
<title>Node24</title>
<g id="a_Node000024"><a xlink:title=" ">
<polygon fill="#e0e0e0" stroke="#999999" points="1320.34,-19.25 1283.34,-19.25 1283.34,0 1320.34,0 1320.34,-19.25"/>
<text text-anchor="middle" x="1301.84" y="-5.75" font-family="Helvetica,sans-Serif" font-size="10.00">array</text>
</a>
</g>
</g>
<!-- Node17&#45;&gt;Node24 -->
<g id="edge31_Node000017_Node000024" class="edge">
<title>Node17&#45;&gt;Node24</title>
<g id="a_edge31_Node000017_Node000024"><a xlink:title=" ">
<path fill="none" stroke="#63b8ff" d="M863.23,-57.6C867.76,-56.72 872.42,-55.9 876.84,-55.25 1048.51,-29.92 1097.99,-52.55 1271.9,-19.18"/>
<polygon fill="#63b8ff" stroke="#63b8ff" points="1272.37,-22.66 1281.51,-17.3 1271.02,-15.79 1272.37,-22.66"/>
</a>
</g>
</g>
<!-- Node25 -->
<g id="Node000025" class="node">
<title>Node25</title>
<g id="a_Node000025"><a xlink:title=" ">
<polygon fill="#e0e0e0" stroke="#999999" points="1389.09,-19.25 1338.59,-19.25 1338.59,0 1389.09,0 1389.09,-19.25"/>
<text text-anchor="middle" x="1363.84" y="-5.75" font-family="Helvetica,sans-Serif" font-size="10.00">memory</text>
</a>
</g>
</g>
<!-- Node17&#45;&gt;Node25 -->
<g id="edge32_Node000017_Node000025" class="edge">
<title>Node17&#45;&gt;Node25</title>
<g id="a_edge32_Node000017_Node000025"><a xlink:title=" ">
<path fill="none" stroke="#63b8ff" d="M863.22,-57.55C867.76,-56.68 872.41,-55.88 876.84,-55.25 1073.19,-27.39 1128.58,-51.3 1327.2,-19.41"/>
<polygon fill="#63b8ff" stroke="#63b8ff" points="1327.52,-22.91 1336.82,-17.84 1326.39,-16 1327.52,-22.91"/>
</a>
</g>
</g>
<!-- Node26 -->
<g id="Node000026" class="node">
<title>Node26</title>
<g id="a_Node000026"><a xlink:title=" ">
<polygon fill="#e0e0e0" stroke="#999999" points="1456.71,-19.25 1406.96,-19.25 1406.96,0 1456.71,0 1456.71,-19.25"/>
<text text-anchor="middle" x="1431.84" y="-5.75" font-family="Helvetica,sans-Serif" font-size="10.00">unistd.h</text>
</a>
</g>
</g>
<!-- Node17&#45;&gt;Node26 -->
<g id="edge33_Node000017_Node000026" class="edge">
<title>Node17&#45;&gt;Node26</title>
<g id="a_edge33_Node000017_Node000026"><a xlink:title=" ">
<path fill="none" stroke="#63b8ff" d="M863.21,-57.51C867.75,-56.65 872.41,-55.85 876.84,-55.25 1103.1,-24.34 1166.61,-54.92 1395.32,-19.34"/>
<polygon fill="#63b8ff" stroke="#63b8ff" points="1395.87,-22.8 1405.19,-17.78 1394.77,-15.88 1395.87,-22.8"/>
</a>
</g>
</g>
<!-- Node17&#45;&gt;Node27 -->
<g id="edge34_Node000017_Node000027" class="edge">
<title>Node17&#45;&gt;Node27</title>
<g id="a_edge34_Node000017_Node000027"><a xlink:title=" ">
<path fill="none" stroke="#63b8ff" d="M863.21,-57.48C867.75,-56.62 872.41,-55.84 876.84,-55.25 1133.15,-21.27 1204.98,-60.45 1463.29,-19.31"/>
<polygon fill="#63b8ff" stroke="#63b8ff" points="1463.73,-22.79 1473.04,-17.73 1462.61,-15.88 1463.73,-22.79"/>
</a>
</g>
</g>
<!-- Node28 -->
<g id="Node000028" class="node">
<title>Node28</title>
<g id="a_Node000028"><a xlink:title=" ">
<polygon fill="#e0e0e0" stroke="#999999" points="644.09,-19.25 599.59,-19.25 599.59,0 644.09,0 644.09,-19.25"/>
<text text-anchor="middle" x="621.84" y="-5.75" font-family="Helvetica,sans-Serif" font-size="10.00">stdio.h</text>
</a>
</g>
</g>
<!-- Node17&#45;&gt;Node28 -->
<g id="edge35_Node000017_Node000028" class="edge">
<title>Node17&#45;&gt;Node28</title>
<g id="a_edge35_Node000017_Node000028"><a xlink:title=" ">
<path fill="none" stroke="#63b8ff" d="M806.26,-57.03C772.64,-48.94 714.87,-34.89 655.62,-19.67"/>
<polygon fill="#63b8ff" stroke="#63b8ff" points="656.57,-16.3 646.01,-17.19 654.82,-23.07 656.57,-16.3"/>
</a>
</g>
</g>
<!-- Node29 -->
<g id="Node000029" class="node">
<title>Node29</title>
<g id="a_Node000029"><a xlink:title=" ">
<polygon fill="#e0e0e0" stroke="#999999" points="709.21,-19.25 662.46,-19.25 662.46,0 709.21,0 709.21,-19.25"/>
<text text-anchor="middle" x="685.84" y="-5.75" font-family="Helvetica,sans-Serif" font-size="10.00">stdlib.h</text>
</a>
</g>
</g>
<!-- Node17&#45;&gt;Node29 -->
<g id="edge36_Node000017_Node000029" class="edge">
<title>Node17&#45;&gt;Node29</title>
<g id="a_edge36_Node000017_Node000029"><a xlink:title=" ">
<path fill="none" stroke="#63b8ff" d="M809.56,-54.84C784.89,-46.03 747.2,-32.56 719.9,-22.8"/>
<polygon fill="#63b8ff" stroke="#63b8ff" points="721.29,-19.58 710.69,-19.51 718.93,-26.17 721.29,-19.58"/>
</a>
</g>
</g>
<!-- Node30 -->
<g id="Node000030" class="node">
<title>Node30</title>
<g id="a_Node000030"><a xlink:title=" ">
<polygon fill="#e0e0e0" stroke="#999999" points="786.59,-19.25 727.09,-19.25 727.09,0 786.59,0 786.59,-19.25"/>
<text text-anchor="middle" x="756.84" y="-5.75" font-family="Helvetica,sans-Serif" font-size="10.00">sys/wait.h</text>
</a>
</g>
</g>
<!-- Node17&#45;&gt;Node30 -->
<g id="edge37_Node000017_Node000030" class="edge">
<title>Node17&#45;&gt;Node30</title>
<g id="a_edge37_Node000017_Node000030"><a xlink:title=" ">
<path fill="none" stroke="#63b8ff" d="M821.6,-54.84C810.06,-46.96 793.07,-35.36 779.39,-26.02"/>
<polygon fill="#63b8ff" stroke="#63b8ff" points="781.61,-23.3 771.38,-20.56 777.67,-29.08 781.61,-23.3"/>
</a>
</g>
</g>
<!-- Node31 -->
<g id="Node000031" class="node">
<title>Node31</title>
<g id="a_Node000031"><a xlink:title=" ">
<polygon fill="#e0e0e0" stroke="#999999" points="864.96,-19.25 804.71,-19.25 804.71,0 864.96,0 864.96,-19.25"/>
<text text-anchor="middle" x="834.84" y="-5.75" font-family="Helvetica,sans-Serif" font-size="10.00">sys/prctl.h</text>
</a>
</g>
</g>
<!-- Node17&#45;&gt;Node31 -->
<g id="edge38_Node000017_Node000031" class="edge">
<title>Node17&#45;&gt;Node31</title>
<g id="a_edge38_Node000017_Node000031"><a xlink:title=" ">
<path fill="none" stroke="#63b8ff" d="M834.84,-55.08C834.84,-48.57 834.84,-39.42 834.84,-31.12"/>
<polygon fill="#63b8ff" stroke="#63b8ff" points="838.34,-31.12 834.84,-21.12 831.34,-31.12 838.34,-31.12"/>
</a>
</g>
</g>
<!-- Node32&#45;&gt;Node3 -->
<g id="edge41_Node000032_Node000003" class="edge">
<title>Node32&#45;&gt;Node3</title>
<g id="a_edge41_Node000032_Node000003"><a xlink:title=" ">
<path fill="none" stroke="#63b8ff" d="M200.97,-55.08C203.38,-48.34 206.79,-38.77 209.84,-30.24"/>
<polygon fill="#63b8ff" stroke="#63b8ff" points="213.06,-31.63 213.12,-21.03 206.46,-29.28 213.06,-31.63"/>
</a>
</g>
</g>
<!-- Node32&#45;&gt;Node7 -->
<g id="edge42_Node000032_Node000007" class="edge">
<title>Node32&#45;&gt;Node7</title>
<g id="a_edge42_Node000032_Node000007"><a xlink:title=" ">
<path fill="none" stroke="#63b8ff" d="M241.3,-58.22C291.8,-51.28 377.78,-38.35 460.52,-19.54"/>
<polygon fill="#63b8ff" stroke="#63b8ff" points="461.21,-22.98 470.16,-17.32 459.63,-16.16 461.21,-22.98"/>
</a>
</g>
</g>
<!-- Node32&#45;&gt;Node11 -->
<g id="edge40_Node000032_Node000011" class="edge">
<title>Node32&#45;&gt;Node11</title>
<g id="a_edge40_Node000032_Node000011"><a xlink:title=" ">
<path fill="none" stroke="#63b8ff" d="M211.58,-54.84C223.56,-46.96 241.21,-35.36 255.42,-26.02"/>
<polygon fill="#63b8ff" stroke="#63b8ff" points="257.33,-28.95 263.76,-20.53 253.48,-23.1 257.33,-28.95"/>
</a>
</g>
</g>
<!-- Node32&#45;&gt;Node14 -->
<g id="edge44_Node000032_Node000014" class="edge">
<title>Node32&#45;&gt;Node14</title>
<g id="a_edge44_Node000032_Node000014"><a xlink:title=" ">
<path fill="none" stroke="#63b8ff" d="M224.13,-54.84C249.29,-46.2 287.49,-33.07 315.74,-23.37"/>
<polygon fill="#63b8ff" stroke="#63b8ff" points="316.66,-26.75 324.98,-20.19 314.39,-20.13 316.66,-26.75"/>
</a>
</g>
</g>
<!-- Node32&#45;&gt;Node16 -->
<g id="edge43_Node000032_Node000016" class="edge">
<title>Node32&#45;&gt;Node16</title>
<g id="a_edge43_Node000032_Node000016"><a xlink:title=" ">
<path fill="none" stroke="#63b8ff" d="M177.99,-54.84C159.67,-46.5 132.19,-34 111.13,-24.41"/>
<polygon fill="#63b8ff" stroke="#63b8ff" points="112.71,-21.29 102.16,-20.33 109.81,-27.66 112.71,-21.29"/>
</a>
</g>
</g>
<!-- Node33 -->
<g id="Node000033" class="node">
<title>Node33</title>
<g id="a_Node000033"><a xlink:title=" ">
<polygon fill="#e0e0e0" stroke="#999999" points="181.34,-19.25 120.34,-19.25 120.34,0 181.34,0 181.34,-19.25"/>
<text text-anchor="middle" x="150.84" y="-5.75" font-family="Helvetica,sans-Serif" font-size="10.00">TNamed.h</text>
</a>
</g>
</g>
<!-- Node32&#45;&gt;Node33 -->
<g id="edge45_Node000032_Node000033" class="edge">
<title>Node32&#45;&gt;Node33</title>
<g id="a_edge45_Node000032_Node000033"><a xlink:title=" ">
<path fill="none" stroke="#63b8ff" d="M190.07,-55.08C183.65,-47.8 174.32,-37.23 166.37,-28.23"/>
<polygon fill="#63b8ff" stroke="#63b8ff" points="169.01,-25.93 159.77,-20.74 163.76,-30.56 169.01,-25.93"/>
</a>
</g>
</g>
<!-- Node38&#45;&gt;Node7 -->
<g id="edge54_Node000038_Node000007" class="edge">
<title>Node38&#45;&gt;Node7</title>
<g id="a_edge54_Node000038_Node000007"><a xlink:title=" ">
<path fill="none" stroke="#63b8ff" d="M642.4,-165.34C638.51,-143.59 625.79,-87.69 593.84,-55.25 583.39,-44.65 548.6,-30.65 522.54,-21.18"/>
<polygon fill="#63b8ff" stroke="#63b8ff" points="524.02,-17.99 513.42,-17.93 521.67,-24.59 524.02,-17.99"/>
</a>
</g>
</g>
<!-- Node39&#45;&gt;Node7 -->
<g id="edge57_Node000039_Node000007" class="edge">
<title>Node39&#45;&gt;Node7</title>
<g id="a_edge57_Node000039_Node000007"><a xlink:title=" ">
<path fill="none" stroke="#63b8ff" d="M556.97,-165.28C570.26,-144.33 598.85,-91.66 576.84,-55.25 570.6,-44.94 544.3,-32.04 522.58,-22.77"/>
<polygon fill="#63b8ff" stroke="#63b8ff" points="524.07,-19.59 513.49,-18.99 521.38,-26.06 524.07,-19.59"/>
</a>
</g>
</g>
<!-- Node40&#45;&gt;Node6 -->
<g id="edge62_Node000040_Node000006" class="edge">
<title>Node40&#45;&gt;Node6</title>
<g id="a_edge62_Node000040_Node000006"><a xlink:title=" ">
<path fill="none" stroke="#63b8ff" d="M478.17,-110.33C478.41,-103.74 478.76,-94.46 479.08,-86.07"/>
<polygon fill="#63b8ff" stroke="#63b8ff" points="482.56,-86.5 479.44,-76.37 475.57,-86.23 482.56,-86.5"/>
</a>
</g>
</g>
<!-- Node40&#45;&gt;Node7 -->
<g id="edge60_Node000040_Node000007" class="edge">
<title>Node40&#45;&gt;Node7</title>
<g id="a_edge60_Node000040_Node000007"><a xlink:title=" ">
<path fill="none" stroke="#63b8ff" d="M512.53,-110.09C530.6,-103.42 551.12,-92.33 561.84,-74.5 574.9,-52.76 546.84,-34.04 522.45,-22.58"/>
<polygon fill="#63b8ff" stroke="#63b8ff" points="523.95,-19.42 513.39,-18.6 521.14,-25.83 523.95,-19.42"/>
</a>
</g>
</g>
<!-- Node40&#45;&gt;Node12 -->
<g id="edge59_Node000040_Node000012" class="edge">
<title>Node40&#45;&gt;Node12</title>
<g id="a_edge59_Node000040_Node000012"><a xlink:title=" ">
<path fill="none" stroke="#63b8ff" d="M464.26,-110.09C452.43,-102.21 435,-90.61 420.96,-81.27"/>
<polygon fill="#63b8ff" stroke="#63b8ff" points="423,-78.42 412.73,-75.79 419.12,-84.25 423,-78.42"/>
</a>
</g>
</g>
<!-- Node40&#45;&gt;Node16 -->
<g id="edge61_Node000040_Node000016" class="edge">
<title>Node40&#45;&gt;Node16</title>
<g id="a_edge61_Node000040_Node000016"><a xlink:title=" ">
<path fill="none" stroke="#63b8ff" d="M434.28,-114.82C350.14,-106.28 171.27,-86.95 145.84,-74.5 124.15,-63.89 105.23,-43.24 93.47,-28.28"/>
<polygon fill="#63b8ff" stroke="#63b8ff" points="96.54,-26.54 87.74,-20.65 90.95,-30.75 96.54,-26.54"/>
</a>
</g>
</g>
<!-- Node41&#45;&gt;Node7 -->
<g id="edge64_Node000041_Node000007" class="edge">
<title>Node41&#45;&gt;Node7</title>
<g id="a_edge64_Node000041_Node000007"><a xlink:title=" ">
<path fill="none" stroke="#63b8ff" d="M746.75,-220.92C759.51,-208.6 778.92,-185.39 768.84,-165.75 730.37,-90.8 689.35,-94.54 614.84,-55.25 598.55,-46.66 553.58,-31.06 522.77,-20.77"/>
<polygon fill="#63b8ff" stroke="#63b8ff" points="524.17,-17.54 513.58,-17.72 521.97,-24.19 524.17,-17.54"/>
</a>
</g>
</g>
<!-- Node42 -->
<g id="Node000042" class="node">
<title>Node42</title>
<g id="a_Node000042"><a xlink:title=" ">
<polygon fill="#e0e0e0" stroke="#999999" points="759.71,-185 691.96,-185 691.96,-165.75 759.71,-165.75 759.71,-185"/>
<text text-anchor="middle" x="725.84" y="-171.5" font-family="Helvetica,sans-Serif" font-size="10.00">TDirectory.h</text>
</a>
</g>
</g>
<!-- Node41&#45;&gt;Node42 -->
<g id="edge65_Node000041_Node000042" class="edge">
<title>Node41&#45;&gt;Node42</title>
<g id="a_edge65_Node000041_Node000042"><a xlink:title=" ">
<path fill="none" stroke="#63b8ff" d="M735.02,-220.83C733.66,-214.24 731.74,-204.96 730.01,-196.57"/>
<polygon fill="#63b8ff" stroke="#63b8ff" points="733.45,-195.93 728,-186.84 726.59,-197.34 733.45,-195.93"/>
</a>
</g>
</g>
</g>
</svg>
