<?xml version="1.0" encoding="UTF-8" standalone="no"?>
<!DOCTYPE svg PUBLIC "-//W3C//DTD SVG 1.1//EN"
 "http://www.w3.org/Graphics/SVG/1.1/DTD/svg11.dtd">
<!-- Generated by graphviz version 12.2.0 (20241103.1931)
 -->
<!-- Title: TGRSIHelper.h Pages: 1 -->
<svg width="1745pt" height="138pt"
 viewBox="0.00 0.00 1745.38 137.75" xmlns="http://www.w3.org/2000/svg" xmlns:xlink="http://www.w3.org/1999/xlink">
<g id="graph0" class="graph" transform="scale(1 1) rotate(0) translate(4 133.75)">
<title>TGRSIHelper.h</title>
<!-- Node1 -->
<g id="Node000001" class="node">
<title>Node1</title>
<g id="a_Node000001"><a xlink:title=" ">
<polygon fill="#999999" stroke="#666666" points="925.12,-129.75 843.12,-129.75 843.12,-110.5 925.12,-110.5 925.12,-129.75"/>
<text text-anchor="middle" x="884.12" y="-116.25" font-family="Helvetica,sans-Serif" font-size="10.00">TGRSIHelper.h</text>
</a>
</g>
</g>
<!-- Node2 -->
<g id="Node000002" class="node">
<title>Node2</title>
<g id="a_Node000002"><a xlink:href="_alphanumeric_helper_8hh.html" target="_top" xlink:title=" ">
<polygon fill="white" stroke="#666666" points="122.38,-74.5 5.88,-74.5 5.88,-55.25 122.38,-55.25 122.38,-74.5"/>
<text text-anchor="middle" x="64.12" y="-61" font-family="Helvetica,sans-Serif" font-size="10.00">AlphanumericHelper.hh</text>
</a>
</g>
</g>
<!-- Node1&#45;&gt;Node2 -->
<g id="edge1_Node000001_Node000002" class="edge">
<title>Node1&#45;&gt;Node2</title>
<g id="a_edge1_Node000001_Node000002"><a xlink:title=" ">
<path fill="none" stroke="#63b8ff" d="M831.7,-117.18C709.23,-112.39 394.88,-98.61 133.12,-74.5 129.76,-74.19 126.3,-73.84 122.82,-73.48"/>
<polygon fill="#63b8ff" stroke="#63b8ff" points="831.3,-120.67 841.43,-117.56 831.57,-113.68 831.3,-120.67"/>
</a>
</g>
</g>
<!-- Node4 -->
<g id="Node000004" class="node">
<title>Node4</title>
<g id="a_Node000004"><a xlink:href="_angular_correlation_helper_8hh.html" target="_top" xlink:title=" ">
<polygon fill="white" stroke="#666666" points="278.5,-74.5 141.75,-74.5 141.75,-55.25 278.5,-55.25 278.5,-74.5"/>
<text text-anchor="middle" x="210.12" y="-61" font-family="Helvetica,sans-Serif" font-size="10.00">AngularCorrelationHelper.hh</text>
</a>
</g>
</g>
<!-- Node1&#45;&gt;Node4 -->
<g id="edge3_Node000001_Node000004" class="edge">
<title>Node1&#45;&gt;Node4</title>
<g id="a_edge3_Node000001_Node000004"><a xlink:title=" ">
<path fill="none" stroke="#63b8ff" d="M831.47,-115.68C728.03,-108.8 491.05,-92.45 292.12,-74.5 287.71,-74.1 283.15,-73.67 278.57,-73.23"/>
<polygon fill="#63b8ff" stroke="#63b8ff" points="831.1,-119.16 841.31,-116.33 831.57,-112.18 831.1,-119.16"/>
</a>
</g>
</g>
<!-- Node6 -->
<g id="Node000006" class="node">
<title>Node6</title>
<g id="a_Node000006"><a xlink:href="_compton_polarimetry_helper_8hh.html" target="_top" xlink:title=" ">
<polygon fill="white" stroke="#666666" points="445.62,-74.5 300.62,-74.5 300.62,-55.25 445.62,-55.25 445.62,-74.5"/>
<text text-anchor="middle" x="373.12" y="-61" font-family="Helvetica,sans-Serif" font-size="10.00">ComptonPolarimetryHelper.hh</text>
</a>
</g>
</g>
<!-- Node1&#45;&gt;Node6 -->
<g id="edge5_Node000001_Node000006" class="edge">
<title>Node1&#45;&gt;Node6</title>
<g id="a_edge5_Node000001_Node000006"><a xlink:title=" ">
<path fill="none" stroke="#63b8ff" d="M831.52,-113.64C739.78,-104.08 550.37,-84.34 446.03,-73.47"/>
<polygon fill="#63b8ff" stroke="#63b8ff" points="830.93,-117.1 841.24,-114.66 831.65,-110.14 830.93,-117.1"/>
</a>
</g>
</g>
<!-- Node8 -->
<g id="Node000008" class="node">
<title>Node8</title>
<g id="a_Node000008"><a xlink:href="_cross_talk_helper_8hh.html" target="_top" xlink:title=" ">
<polygon fill="white" stroke="#666666" points="567.88,-74.5 466.38,-74.5 466.38,-55.25 567.88,-55.25 567.88,-74.5"/>
<text text-anchor="middle" x="517.12" y="-61" font-family="Helvetica,sans-Serif" font-size="10.00">CrossTalkHelper.hh</text>
</a>
</g>
</g>
<!-- Node1&#45;&gt;Node8 -->
<g id="edge7_Node000001_Node000008" class="edge">
<title>Node1&#45;&gt;Node8</title>
<g id="a_edge7_Node000001_Node000008"><a xlink:title=" ">
<path fill="none" stroke="#63b8ff" d="M831.53,-111.49C761.33,-101.31 637.82,-83.39 568.34,-73.31"/>
<polygon fill="#63b8ff" stroke="#63b8ff" points="830.84,-114.93 841.24,-112.9 831.85,-108 830.84,-114.93"/>
</a>
</g>
</g>
<!-- Node10 -->
<g id="Node000010" class="node">
<title>Node10</title>
<g id="a_Node000010"><a xlink:href="_directory_helper_8hh.html" target="_top" xlink:title=" ">
<polygon fill="white" stroke="#666666" points="684.88,-74.5 589.38,-74.5 589.38,-55.25 684.88,-55.25 684.88,-74.5"/>
<text text-anchor="middle" x="637.12" y="-61" font-family="Helvetica,sans-Serif" font-size="10.00">DirectoryHelper.hh</text>
</a>
</g>
</g>
<!-- Node1&#45;&gt;Node10 -->
<g id="edge9_Node000001_Node000010" class="edge">
<title>Node1&#45;&gt;Node10</title>
<g id="a_edge9_Node000001_Node000010"><a xlink:title=" ">
<path fill="none" stroke="#63b8ff" d="M831.69,-107.82C786.32,-98.04 721.56,-84.08 679.43,-75"/>
<polygon fill="#63b8ff" stroke="#63b8ff" points="830.79,-111.21 841.3,-109.89 832.27,-104.36 830.79,-111.21"/>
</a>
</g>
</g>
<!-- Node12 -->
<g id="Node000012" class="node">
<title>Node12</title>
<g id="a_Node000012"><a xlink:href="_efficiency_helper_8hh.html" target="_top" xlink:title=" ">
<polygon fill="white" stroke="#666666" points="805,-74.5 707.25,-74.5 707.25,-55.25 805,-55.25 805,-74.5"/>
<text text-anchor="middle" x="756.12" y="-61" font-family="Helvetica,sans-Serif" font-size="10.00">EfficiencyHelper.hh</text>
</a>
</g>
</g>
<!-- Node1&#45;&gt;Node12 -->
<g id="edge11_Node000001_Node000012" class="edge">
<title>Node1&#45;&gt;Node12</title>
<g id="a_edge11_Node000001_Node000012"><a xlink:title=" ">
<path fill="none" stroke="#63b8ff" d="M852.05,-105.78C828.92,-96.16 798.3,-83.42 777.94,-74.95"/>
<polygon fill="#63b8ff" stroke="#63b8ff" points="850.44,-108.9 861.01,-109.51 853.13,-102.44 850.44,-108.9"/>
</a>
</g>
</g>
<!-- Node14 -->
<g id="Node000014" class="node">
<title>Node14</title>
<g id="a_Node000014"><a xlink:href="_example_event_helper_8hh.html" target="_top" xlink:title=" ">
<polygon fill="white" stroke="#666666" points="943.5,-74.5 824.75,-74.5 824.75,-55.25 943.5,-55.25 943.5,-74.5"/>
<text text-anchor="middle" x="884.12" y="-61" font-family="Helvetica,sans-Serif" font-size="10.00">ExampleEventHelper.hh</text>
</a>
</g>
</g>
<!-- Node1&#45;&gt;Node14 -->
<g id="edge13_Node000001_Node000014" class="edge">
<title>Node1&#45;&gt;Node14</title>
<g id="a_edge13_Node000001_Node000014"><a xlink:title=" ">
<path fill="none" stroke="#63b8ff" d="M884.12,-98.88C884.12,-90.59 884.12,-81.42 884.12,-74.86"/>
<polygon fill="#63b8ff" stroke="#63b8ff" points="880.63,-98.82 884.13,-108.82 887.63,-98.82 880.63,-98.82"/>
</a>
</g>
</g>
<!-- Node16 -->
<g id="Node000016" class="node">
<title>Node16</title>
<g id="a_Node000016"><a xlink:href="_example_fragment_helper_8hh.html" target="_top" xlink:title=" ">
<polygon fill="white" stroke="#666666" points="1098.75,-74.5 963.5,-74.5 963.5,-55.25 1098.75,-55.25 1098.75,-74.5"/>
<text text-anchor="middle" x="1031.12" y="-61" font-family="Helvetica,sans-Serif" font-size="10.00">ExampleFragmentHelper.hh</text>
</a>
</g>
</g>
<!-- Node1&#45;&gt;Node16 -->
<g id="edge15_Node000001_Node000016" class="edge">
<title>Node1&#45;&gt;Node16</title>
<g id="a_edge15_Node000001_Node000016"><a xlink:title=" ">
<path fill="none" stroke="#63b8ff" d="M919.88,-106.17C946.57,-96.5 982.37,-83.54 1006.07,-74.95"/>
<polygon fill="#63b8ff" stroke="#63b8ff" points="918.69,-102.88 910.48,-109.58 921.08,-109.46 918.69,-102.88"/>
</a>
</g>
</g>
<!-- Node18 -->
<g id="Node000018" class="node">
<title>Node18</title>
<g id="a_Node000018"><a xlink:href="_example_tree_helper_8hh.html" target="_top" xlink:title=" ">
<polygon fill="white" stroke="#666666" points="1232.88,-74.5 1119.38,-74.5 1119.38,-55.25 1232.88,-55.25 1232.88,-74.5"/>
<text text-anchor="middle" x="1176.12" y="-61" font-family="Helvetica,sans-Serif" font-size="10.00">ExampleTreeHelper.hh</text>
</a>
</g>
</g>
<!-- Node1&#45;&gt;Node18 -->
<g id="edge17_Node000001_Node000018" class="edge">
<title>Node1&#45;&gt;Node18</title>
<g id="a_edge17_Node000001_Node000018"><a xlink:title=" ">
<path fill="none" stroke="#63b8ff" d="M936.36,-109.6C990.16,-99.79 1073.42,-84.6 1126.32,-74.96"/>
<polygon fill="#63b8ff" stroke="#63b8ff" points="936.04,-106.1 926.83,-111.34 937.3,-112.99 936.04,-106.1"/>
</a>
</g>
</g>
<!-- Node20 -->
<g id="Node000020" class="node">
<title>Node20</title>
<g id="a_Node000020"><a xlink:href="_griffin_k_value_helper_8hh.html" target="_top" xlink:title=" ">
<polygon fill="white" stroke="#666666" points="1367.88,-74.5 1254.38,-74.5 1254.38,-55.25 1367.88,-55.25 1367.88,-74.5"/>
<text text-anchor="middle" x="1311.12" y="-61" font-family="Helvetica,sans-Serif" font-size="10.00">GriffinKValueHelper.hh</text>
</a>
</g>
</g>
<!-- Node1&#45;&gt;Node20 -->
<g id="edge19_Node000001_Node000020" class="edge">
<title>Node1&#45;&gt;Node20</title>
<g id="a_edge19_Node000001_Node000020"><a xlink:title=" ">
<path fill="none" stroke="#63b8ff" d="M936.57,-112.59C1006.34,-103.9 1133.5,-88.06 1242.12,-74.5 1245.96,-74.02 1249.91,-73.53 1253.89,-73.03"/>
<polygon fill="#63b8ff" stroke="#63b8ff" points="936.46,-109.08 926.97,-113.79 937.33,-116.03 936.46,-109.08"/>
</a>
</g>
</g>
<!-- Node22 -->
<g id="Node000022" class="node">
<title>Node22</title>
<g id="a_Node000022"><a xlink:href="_t_data_frame_library_8h.html" target="_top" xlink:title=" ">
<polygon fill="white" stroke="#666666" points="1497.5,-74.5 1390.75,-74.5 1390.75,-55.25 1497.5,-55.25 1497.5,-74.5"/>
<text text-anchor="middle" x="1444.12" y="-61" font-family="Helvetica,sans-Serif" font-size="10.00">TDataFrameLibrary.h</text>
</a>
</g>
</g>
<!-- Node1&#45;&gt;Node22 -->
<g id="edge21_Node000001_Node000022" class="edge">
<title>Node1&#45;&gt;Node22</title>
<g id="a_edge21_Node000001_Node000022"><a xlink:title=" ">
<path fill="none" stroke="#63b8ff" d="M936.68,-115.02C1026.88,-107.84 1216.92,-92.06 1377.12,-74.5 1381.44,-74.03 1385.9,-73.51 1390.39,-72.97"/>
<polygon fill="#63b8ff" stroke="#63b8ff" points="936.61,-111.52 926.91,-115.8 937.16,-118.5 936.61,-111.52"/>
</a>
</g>
</g>
<!-- Node25 -->
<g id="Node000025" class="node">
<title>Node25</title>
<g id="a_Node000025"><a xlink:href="_t_g_r_s_i_helper_8cxx.html" target="_top" xlink:title=" ">
<polygon fill="white" stroke="#666666" points="1606.62,-74.5 1515.62,-74.5 1515.62,-55.25 1606.62,-55.25 1606.62,-74.5"/>
<text text-anchor="middle" x="1561.12" y="-61" font-family="Helvetica,sans-Serif" font-size="10.00">TGRSIHelper.cxx</text>
</a>
</g>
</g>
<!-- Node1&#45;&gt;Node25 -->
<g id="edge24_Node000001_Node000025" class="edge">
<title>Node1&#45;&gt;Node25</title>
<g id="a_edge24_Node000001_Node000025"><a xlink:title=" ">
<path fill="none" stroke="#63b8ff" d="M936.81,-116.84C1044.18,-111.85 1295.92,-98.48 1506.12,-74.5 1509.1,-74.16 1512.16,-73.78 1515.25,-73.36"/>
<polygon fill="#63b8ff" stroke="#63b8ff" points="936.7,-113.34 926.87,-117.3 937.02,-120.33 936.7,-113.34"/>
</a>
</g>
</g>
<!-- Node26 -->
<g id="Node000026" class="node">
<title>Node26</title>
<g id="a_Node000026"><a xlink:href="_time_walk_helper_8hh.html" target="_top" xlink:title=" ">
<polygon fill="white" stroke="#666666" points="1730.5,-74.5 1629.75,-74.5 1629.75,-55.25 1730.5,-55.25 1730.5,-74.5"/>
<text text-anchor="middle" x="1680.12" y="-61" font-family="Helvetica,sans-Serif" font-size="10.00">TimeWalkHelper.hh</text>
</a>
</g>
</g>
<!-- Node1&#45;&gt;Node26 -->
<g id="edge25_Node000001_Node000026" class="edge">
<title>Node1&#45;&gt;Node26</title>
<g id="a_edge25_Node000001_Node000026"><a xlink:title=" ">
<path fill="none" stroke="#63b8ff" d="M936.91,-117.23C1057.47,-112.62 1362.28,-99.31 1616.12,-74.5 1620.48,-74.07 1624.99,-73.58 1629.51,-73.04"/>
<polygon fill="#63b8ff" stroke="#63b8ff" points="936.86,-113.73 927,-117.61 937.12,-120.73 936.86,-113.73"/>
</a>
</g>
</g>
<!-- Node3 -->
<g id="Node000003" class="node">
<title>Node3</title>
<g id="a_Node000003"><a xlink:href="_alphanumeric_helper_8cxx.html" target="_top" xlink:title=" ">
<polygon fill="white" stroke="#666666" points="120.25,-19.25 0,-19.25 0,0 120.25,0 120.25,-19.25"/>
<text text-anchor="middle" x="60.12" y="-5.75" font-family="Helvetica,sans-Serif" font-size="10.00">AlphanumericHelper.cxx</text>
</a>
</g>
</g>
<!-- Node2&#45;&gt;Node3 -->
<g id="edge2_Node000002_Node000003" class="edge">
<title>Node2&#45;&gt;Node3</title>
<g id="a_edge2_Node000002_Node000003"><a xlink:title=" ">
<path fill="none" stroke="#63b8ff" d="M62.6,-43.63C61.98,-35.34 61.29,-26.17 60.8,-19.61"/>
<polygon fill="#63b8ff" stroke="#63b8ff" points="59.11,-43.86 63.35,-53.57 66.09,-43.34 59.11,-43.86"/>
</a>
</g>
</g>
<!-- Node5 -->
<g id="Node000005" class="node">
<title>Node5</title>
<g id="a_Node000005"><a xlink:href="_angular_correlation_helper_8cxx.html" target="_top" xlink:title=" ">
<polygon fill="white" stroke="#666666" points="278.38,-19.25 137.88,-19.25 137.88,0 278.38,0 278.38,-19.25"/>
<text text-anchor="middle" x="208.12" y="-5.75" font-family="Helvetica,sans-Serif" font-size="10.00">AngularCorrelationHelper.cxx</text>
</a>
</g>
</g>
<!-- Node4&#45;&gt;Node5 -->
<g id="edge4_Node000004_Node000005" class="edge">
<title>Node4&#45;&gt;Node5</title>
<g id="a_edge4_Node000004_Node000005"><a xlink:title=" ">
<path fill="none" stroke="#63b8ff" d="M209.36,-43.63C209.05,-35.34 208.71,-26.17 208.46,-19.61"/>
<polygon fill="#63b8ff" stroke="#63b8ff" points="205.86,-43.71 209.74,-53.57 212.86,-43.45 205.86,-43.71"/>
</a>
</g>
</g>
<!-- Node7 -->
<g id="Node000007" class="node">
<title>Node7</title>
<g id="a_Node000007"><a xlink:href="_compton_polarimetry_helper_8cxx.html" target="_top" xlink:title=" ">
<polygon fill="white" stroke="#666666" points="445.5,-19.25 296.75,-19.25 296.75,0 445.5,0 445.5,-19.25"/>
<text text-anchor="middle" x="371.12" y="-5.75" font-family="Helvetica,sans-Serif" font-size="10.00">ComptonPolarimetryHelper.cxx</text>
</a>
</g>
</g>
<!-- Node6&#45;&gt;Node7 -->
<g id="edge6_Node000006_Node000007" class="edge">
<title>Node6&#45;&gt;Node7</title>
<g id="a_edge6_Node000006_Node000007"><a xlink:title=" ">
<path fill="none" stroke="#63b8ff" d="M372.36,-43.63C372.05,-35.34 371.71,-26.17 371.46,-19.61"/>
<polygon fill="#63b8ff" stroke="#63b8ff" points="368.86,-43.71 372.74,-53.57 375.86,-43.45 368.86,-43.71"/>
</a>
</g>
</g>
<!-- Node9 -->
<g id="Node000009" class="node">
<title>Node9</title>
<g id="a_Node000009"><a xlink:href="_cross_talk_helper_8cxx.html" target="_top" xlink:title=" ">
<polygon fill="white" stroke="#666666" points="568.75,-19.25 463.5,-19.25 463.5,0 568.75,0 568.75,-19.25"/>
<text text-anchor="middle" x="516.12" y="-5.75" font-family="Helvetica,sans-Serif" font-size="10.00">CrossTalkHelper.cxx</text>
</a>
</g>
</g>
<!-- Node8&#45;&gt;Node9 -->
<g id="edge8_Node000008_Node000009" class="edge">
<title>Node8&#45;&gt;Node9</title>
<g id="a_edge8_Node000008_Node000009"><a xlink:title=" ">
<path fill="none" stroke="#63b8ff" d="M516.74,-43.63C516.59,-35.34 516.42,-26.17 516.29,-19.61"/>
<polygon fill="#63b8ff" stroke="#63b8ff" points="513.24,-43.64 516.93,-53.57 520.24,-43.5 513.24,-43.64"/>
</a>
</g>
</g>
<!-- Node11 -->
<g id="Node000011" class="node">
<title>Node11</title>
<g id="a_Node000011"><a xlink:href="_directory_helper_8cxx.html" target="_top" xlink:title=" ">
<polygon fill="white" stroke="#666666" points="685.75,-19.25 586.5,-19.25 586.5,0 685.75,0 685.75,-19.25"/>
<text text-anchor="middle" x="636.12" y="-5.75" font-family="Helvetica,sans-Serif" font-size="10.00">DirectoryHelper.cxx</text>
</a>
</g>
</g>
<!-- Node10&#45;&gt;Node11 -->
<g id="edge10_Node000010_Node000011" class="edge">
<title>Node10&#45;&gt;Node11</title>
<g id="a_edge10_Node000010_Node000011"><a xlink:title=" ">
<path fill="none" stroke="#63b8ff" d="M636.74,-43.63C636.59,-35.34 636.42,-26.17 636.29,-19.61"/>
<polygon fill="#63b8ff" stroke="#63b8ff" points="633.24,-43.64 636.93,-53.57 640.24,-43.5 633.24,-43.64"/>
</a>
</g>
</g>
<!-- Node13 -->
<g id="Node000013" class="node">
<title>Node13</title>
<g id="a_Node000013"><a xlink:href="_efficiency_helper_8cxx.html" target="_top" xlink:title=" ">
<polygon fill="white" stroke="#666666" points="804.88,-19.25 703.38,-19.25 703.38,0 804.88,0 804.88,-19.25"/>
<text text-anchor="middle" x="754.12" y="-5.75" font-family="Helvetica,sans-Serif" font-size="10.00">EfficiencyHelper.cxx</text>
</a>
</g>
</g>
<!-- Node12&#45;&gt;Node13 -->
<g id="edge12_Node000012_Node000013" class="edge">
<title>Node12&#45;&gt;Node13</title>
<g id="a_edge12_Node000012_Node000013"><a xlink:title=" ">
<path fill="none" stroke="#63b8ff" d="M755.36,-43.63C755.05,-35.34 754.71,-26.17 754.46,-19.61"/>
<polygon fill="#63b8ff" stroke="#63b8ff" points="751.86,-43.71 755.74,-53.57 758.86,-43.45 751.86,-43.71"/>
</a>
</g>
</g>
<!-- Node15 -->
<g id="Node000015" class="node">
<title>Node15</title>
<g id="a_Node000015"><a xlink:href="_example_event_helper_8cxx.html" target="_top" xlink:title=" ">
<polygon fill="white" stroke="#666666" points="945.38,-19.25 822.88,-19.25 822.88,0 945.38,0 945.38,-19.25"/>
<text text-anchor="middle" x="884.12" y="-5.75" font-family="Helvetica,sans-Serif" font-size="10.00">ExampleEventHelper.cxx</text>
</a>
</g>
</g>
<!-- Node14&#45;&gt;Node15 -->
<g id="edge14_Node000014_Node000015" class="edge">
<title>Node14&#45;&gt;Node15</title>
<g id="a_edge14_Node000014_Node000015"><a xlink:title=" ">
<path fill="none" stroke="#63b8ff" d="M884.12,-43.63C884.12,-35.34 884.12,-26.17 884.12,-19.61"/>
<polygon fill="#63b8ff" stroke="#63b8ff" points="880.63,-43.57 884.13,-53.57 887.63,-43.57 880.63,-43.57"/>
</a>
</g>
</g>
<!-- Node17 -->
<g id="Node000017" class="node">
<title>Node17</title>
<g id="a_Node000017"><a xlink:href="_example_fragment_helper_8cxx.html" target="_top" xlink:title=" ">
<polygon fill="white" stroke="#666666" points="1102.62,-19.25 963.62,-19.25 963.62,0 1102.62,0 1102.62,-19.25"/>
<text text-anchor="middle" x="1033.12" y="-5.75" font-family="Helvetica,sans-Serif" font-size="10.00">ExampleFragmentHelper.cxx</text>
</a>
</g>
</g>
<!-- Node16&#45;&gt;Node17 -->
<g id="edge16_Node000016_Node000017" class="edge">
<title>Node16&#45;&gt;Node17</title>
<g id="a_edge16_Node000016_Node000017"><a xlink:title=" ">
<path fill="none" stroke="#63b8ff" d="M1031.89,-43.63C1032.2,-35.34 1032.54,-26.17 1032.79,-19.61"/>
<polygon fill="#63b8ff" stroke="#63b8ff" points="1028.39,-43.45 1031.51,-53.57 1035.39,-43.71 1028.39,-43.45"/>
</a>
</g>
</g>
<!-- Node19 -->
<g id="Node000019" class="node">
<title>Node19</title>
<g id="a_Node000019"><a xlink:href="_example_tree_helper_8cxx.html" target="_top" xlink:title=" ">
<polygon fill="white" stroke="#666666" points="1237.75,-19.25 1120.5,-19.25 1120.5,0 1237.75,0 1237.75,-19.25"/>
<text text-anchor="middle" x="1179.12" y="-5.75" font-family="Helvetica,sans-Serif" font-size="10.00">ExampleTreeHelper.cxx</text>
</a>
</g>
</g>
<!-- Node18&#45;&gt;Node19 -->
<g id="edge18_Node000018_Node000019" class="edge">
<title>Node18&#45;&gt;Node19</title>
<g id="a_edge18_Node000018_Node000019"><a xlink:title=" ">
<path fill="none" stroke="#63b8ff" d="M1177.27,-43.63C1177.73,-35.34 1178.25,-26.17 1178.62,-19.61"/>
<polygon fill="#63b8ff" stroke="#63b8ff" points="1173.77,-43.39 1176.71,-53.57 1180.76,-43.78 1173.77,-43.39"/>
</a>
</g>
</g>
<!-- Node21 -->
<g id="Node000021" class="node">
<title>Node21</title>
<g id="a_Node000021"><a xlink:href="_griffin_k_value_helper_8cxx.html" target="_top" xlink:title=" ">
<polygon fill="white" stroke="#666666" points="1372.75,-19.25 1255.5,-19.25 1255.5,0 1372.75,0 1372.75,-19.25"/>
<text text-anchor="middle" x="1314.12" y="-5.75" font-family="Helvetica,sans-Serif" font-size="10.00">GriffinKValueHelper.cxx</text>
</a>
</g>
</g>
<!-- Node20&#45;&gt;Node21 -->
<g id="edge20_Node000020_Node000021" class="edge">
<title>Node20&#45;&gt;Node21</title>
<g id="a_edge20_Node000020_Node000021"><a xlink:title=" ">
<path fill="none" stroke="#63b8ff" d="M1312.27,-43.63C1312.73,-35.34 1313.25,-26.17 1313.62,-19.61"/>
<polygon fill="#63b8ff" stroke="#63b8ff" points="1308.77,-43.39 1311.71,-53.57 1315.76,-43.78 1308.77,-43.39"/>
</a>
</g>
</g>
<!-- Node23 -->
<g id="Node000023" class="node">
<title>Node23</title>
<g id="a_Node000023"><a xlink:href="_t_data_frame_library_8cxx.html" target="_top" xlink:title=" ">
<polygon fill="white" stroke="#666666" points="1507,-19.25 1391.25,-19.25 1391.25,0 1507,0 1507,-19.25"/>
<text text-anchor="middle" x="1449.12" y="-5.75" font-family="Helvetica,sans-Serif" font-size="10.00">TDataFrameLibrary.cxx</text>
</a>
</g>
</g>
<!-- Node22&#45;&gt;Node23 -->
<g id="edge22_Node000022_Node000023" class="edge">
<title>Node22&#45;&gt;Node23</title>
<g id="a_edge22_Node000022_Node000023"><a xlink:title=" ">
<path fill="none" stroke="#63b8ff" d="M1446.03,-43.63C1446.8,-35.34 1447.67,-26.17 1448.28,-19.61"/>
<polygon fill="#63b8ff" stroke="#63b8ff" points="1442.54,-43.29 1445.09,-53.57 1449.51,-43.95 1442.54,-43.29"/>
</a>
</g>
</g>
<!-- Node24 -->
<g id="Node000024" class="node">
<title>Node24</title>
<g id="a_Node000024"><a xlink:href="_t_g_r_s_i_frame_8cxx.html" target="_top" xlink:title=" ">
<polygon fill="white" stroke="#666666" points="1615.25,-19.25 1525,-19.25 1525,0 1615.25,0 1615.25,-19.25"/>
<text text-anchor="middle" x="1570.12" y="-5.75" font-family="Helvetica,sans-Serif" font-size="10.00">TGRSIFrame.cxx</text>
</a>
</g>
</g>
<!-- Node22&#45;&gt;Node24 -->
<g id="edge23_Node000022_Node000024" class="edge">
<title>Node22&#45;&gt;Node24</title>
<g id="a_edge23_Node000022_Node000024"><a xlink:title=" ">
<path fill="none" stroke="#63b8ff" d="M1476.01,-50.4C1498.74,-40.79 1528.7,-28.13 1548.65,-19.7"/>
<polygon fill="#63b8ff" stroke="#63b8ff" points="1474.74,-47.14 1466.89,-54.25 1477.47,-53.58 1474.74,-47.14"/>
</a>
</g>
</g>
<!-- Node27 -->
<g id="Node000027" class="node">
<title>Node27</title>
<g id="a_Node000027"><a xlink:href="_time_walk_helper_8cxx.html" target="_top" xlink:title=" ">
<polygon fill="white" stroke="#666666" points="1737.38,-19.25 1632.88,-19.25 1632.88,0 1737.38,0 1737.38,-19.25"/>
<text text-anchor="middle" x="1685.12" y="-5.75" font-family="Helvetica,sans-Serif" font-size="10.00">TimeWalkHelper.cxx</text>
</a>
</g>
</g>
<!-- Node26&#45;&gt;Node27 -->
<g id="edge26_Node000026_Node000027" class="edge">
<title>Node26&#45;&gt;Node27</title>
<g id="a_edge26_Node000026_Node000027"><a xlink:title=" ">
<path fill="none" stroke="#63b8ff" d="M1682.03,-43.63C1682.8,-35.34 1683.67,-26.17 1684.28,-19.61"/>
<polygon fill="#63b8ff" stroke="#63b8ff" points="1678.54,-43.29 1681.09,-53.57 1685.51,-43.95 1678.54,-43.29"/>
</a>
</g>
</g>
</g>
</svg>
