<?xml version="1.0" encoding="UTF-8" standalone="no"?>
<!DOCTYPE svg PUBLIC "-//W3C//DTD SVG 1.1//EN"
 "http://www.w3.org/Graphics/SVG/1.1/DTD/svg11.dtd">
<!-- Generated by graphviz version 12.2.0 (20241103.1931)
 -->
<!-- Title: TGRSIFit.h Pages: 1 -->
<svg width="1641pt" height="469pt"
 viewBox="0.00 0.00 1641.38 469.25" xmlns="http://www.w3.org/2000/svg" xmlns:xlink="http://www.w3.org/1999/xlink">
<g id="graph0" class="graph" transform="scale(1 1) rotate(0) translate(4 465.25)">
<title>TGRSIFit.h</title>
<!-- Node1 -->
<g id="Node000001" class="node">
<title>Node1</title>
<g id="a_Node000001"><a xlink:title=" ">
<polygon fill="#999999" stroke="#666666" points="417,-461.25 352.25,-461.25 352.25,-442 417,-442 417,-461.25"/>
<text text-anchor="middle" x="384.62" y="-447.75" font-family="Helvetica,sans-Serif" font-size="10.00">TGRSIFit.h</text>
</a>
</g>
</g>
<!-- Node2 -->
<g id="Node000002" class="node">
<title>Node2</title>
<g id="a_Node000002"><a xlink:href="_t_g_r_s_i_fit_8cxx.html" target="_top" xlink:title=" ">
<polygon fill="white" stroke="#666666" points="229.5,-406 155.75,-406 155.75,-386.75 229.5,-386.75 229.5,-406"/>
<text text-anchor="middle" x="192.62" y="-392.5" font-family="Helvetica,sans-Serif" font-size="10.00">TGRSIFit.cxx</text>
</a>
</g>
</g>
<!-- Node1&#45;&gt;Node2 -->
<g id="edge1_Node000001_Node000002" class="edge">
<title>Node1&#45;&gt;Node2</title>
<g id="a_edge1_Node000001_Node000002"><a xlink:title=" ">
<path fill="none" stroke="#63b8ff" d="M341.16,-438.57C306,-428.82 257.27,-415.3 225.35,-406.45"/>
<polygon fill="#63b8ff" stroke="#63b8ff" points="340.02,-441.89 350.6,-441.19 341.9,-435.14 340.02,-441.89"/>
</a>
</g>
</g>
<!-- Node3 -->
<g id="Node000003" class="node">
<title>Node3</title>
<g id="a_Node000003"><a xlink:href="_t_gauss_8h.html" target="_top" xlink:title=" ">
<polygon fill="white" stroke="#666666" points="413.62,-406 355.62,-406 355.62,-386.75 413.62,-386.75 413.62,-406"/>
<text text-anchor="middle" x="384.62" y="-392.5" font-family="Helvetica,sans-Serif" font-size="10.00">TGauss.h</text>
</a>
</g>
</g>
<!-- Node1&#45;&gt;Node3 -->
<g id="edge2_Node000001_Node000003" class="edge">
<title>Node1&#45;&gt;Node3</title>
<g id="a_edge2_Node000001_Node000003"><a xlink:title=" ">
<path fill="none" stroke="#63b8ff" d="M384.62,-430.38C384.62,-422.09 384.62,-412.92 384.62,-406.36"/>
<polygon fill="#63b8ff" stroke="#63b8ff" points="381.13,-430.32 384.63,-440.32 388.13,-430.32 381.13,-430.32"/>
</a>
</g>
</g>
<!-- Node8 -->
<g id="Node000008" class="node">
<title>Node8</title>
<g id="a_Node000008"><a xlink:href="_t_multi_peak_8h.html" target="_top" xlink:title=" ">
<polygon fill="white" stroke="#666666" points="634.12,-350.75 561.12,-350.75 561.12,-331.5 634.12,-331.5 634.12,-350.75"/>
<text text-anchor="middle" x="597.62" y="-337.25" font-family="Helvetica,sans-Serif" font-size="10.00">TMultiPeak.h</text>
</a>
</g>
</g>
<!-- Node1&#45;&gt;Node8 -->
<g id="edge7_Node000001_Node000008" class="edge">
<title>Node1&#45;&gt;Node8</title>
<g id="a_edge7_Node000001_Node000008"><a xlink:title=" ">
<path fill="none" stroke="#63b8ff" d="M412.52,-436.41C456.97,-413.78 542.61,-370.15 579.73,-351.24"/>
<polygon fill="#63b8ff" stroke="#63b8ff" points="411.09,-433.22 403.77,-440.87 414.27,-439.45 411.09,-433.22"/>
</a>
</g>
</g>
<!-- Node10 -->
<g id="Node000010" class="node">
<title>Node10</title>
<g id="a_Node000010"><a xlink:href="_t_peak_8h.html" target="_top" xlink:title=" ">
<polygon fill="white" stroke="#666666" points="1134.62,-406 1082.62,-406 1082.62,-386.75 1134.62,-386.75 1134.62,-406"/>
<text text-anchor="middle" x="1108.62" y="-392.5" font-family="Helvetica,sans-Serif" font-size="10.00">TPeak.h</text>
</a>
</g>
</g>
<!-- Node1&#45;&gt;Node10 -->
<g id="edge9_Node000001_Node000010" class="edge">
<title>Node1&#45;&gt;Node10</title>
<g id="a_edge9_Node000001_Node000010"><a xlink:title=" ">
<path fill="none" stroke="#63b8ff" d="M428.27,-447.41C563.79,-437.45 974.68,-407.23 1082.49,-399.3"/>
<polygon fill="#63b8ff" stroke="#63b8ff" points="428.37,-443.9 418.65,-448.12 428.88,-450.88 428.37,-443.9"/>
</a>
</g>
</g>
<!-- Node35 -->
<g id="Node000035" class="node">
<title>Node35</title>
<g id="a_Node000035"><a xlink:href="_t_r_w_peak_8h.html" target="_top" xlink:title=" ">
<polygon fill="white" stroke="#666666" points="315.5,-406 247.75,-406 247.75,-386.75 315.5,-386.75 315.5,-406"/>
<text text-anchor="middle" x="281.62" y="-392.5" font-family="Helvetica,sans-Serif" font-size="10.00">TRWPeak.h</text>
</a>
</g>
</g>
<!-- Node1&#45;&gt;Node35 -->
<g id="edge41_Node000001_Node000035" class="edge">
<title>Node1&#45;&gt;Node35</title>
<g id="a_edge41_Node000001_Node000035"><a xlink:title=" ">
<path fill="none" stroke="#63b8ff" d="M357.03,-436.36C338.65,-426.86 315.04,-414.65 299.18,-406.45"/>
<polygon fill="#63b8ff" stroke="#63b8ff" points="355.32,-439.41 365.81,-440.9 358.53,-433.2 355.32,-439.41"/>
</a>
</g>
</g>
<!-- Node4 -->
<g id="Node000004" class="node">
<title>Node4</title>
<g id="a_Node000004"><a xlink:href="_t_b_g_subtraction_8cxx.html" target="_top" xlink:title=" ">
<polygon fill="white" stroke="#666666" points="332.75,-350.75 230.5,-350.75 230.5,-331.5 332.75,-331.5 332.75,-350.75"/>
<text text-anchor="middle" x="281.62" y="-337.25" font-family="Helvetica,sans-Serif" font-size="10.00">TBGSubtraction.cxx</text>
</a>
</g>
</g>
<!-- Node3&#45;&gt;Node4 -->
<g id="edge3_Node000003_Node000004" class="edge">
<title>Node3&#45;&gt;Node4</title>
<g id="a_edge3_Node000003_Node000004"><a xlink:title=" ">
<path fill="none" stroke="#63b8ff" d="M357.03,-381.11C338.65,-371.61 315.04,-359.4 299.18,-351.2"/>
<polygon fill="#63b8ff" stroke="#63b8ff" points="355.32,-384.16 365.81,-385.65 358.53,-377.95 355.32,-384.16"/>
</a>
</g>
</g>
<!-- Node5 -->
<g id="Node000005" class="node">
<title>Node5</title>
<g id="a_Node000005"><a xlink:href="_t_gauss_8cxx.html" target="_top" xlink:title=" ">
<polygon fill="white" stroke="#666666" points="418.12,-350.75 351.12,-350.75 351.12,-331.5 418.12,-331.5 418.12,-350.75"/>
<text text-anchor="middle" x="384.62" y="-337.25" font-family="Helvetica,sans-Serif" font-size="10.00">TGauss.cxx</text>
</a>
</g>
</g>
<!-- Node3&#45;&gt;Node5 -->
<g id="edge4_Node000003_Node000005" class="edge">
<title>Node3&#45;&gt;Node5</title>
<g id="a_edge4_Node000003_Node000005"><a xlink:title=" ">
<path fill="none" stroke="#63b8ff" d="M384.62,-375.13C384.62,-366.84 384.62,-357.67 384.62,-351.11"/>
<polygon fill="#63b8ff" stroke="#63b8ff" points="381.13,-375.07 384.63,-385.07 388.13,-375.07 381.13,-375.07"/>
</a>
</g>
</g>
<!-- Node6 -->
<g id="Node000006" class="node">
<title>Node6</title>
<g id="a_Node000006"><a xlink:href="_t_source_calibration_8h.html" target="_top" xlink:title=" ">
<polygon fill="white" stroke="#666666" points="542.62,-350.75 436.62,-350.75 436.62,-331.5 542.62,-331.5 542.62,-350.75"/>
<text text-anchor="middle" x="489.62" y="-337.25" font-family="Helvetica,sans-Serif" font-size="10.00">TSourceCalibration.h</text>
</a>
</g>
</g>
<!-- Node3&#45;&gt;Node6 -->
<g id="edge5_Node000003_Node000006" class="edge">
<title>Node3&#45;&gt;Node6</title>
<g id="a_edge5_Node000003_Node000006"><a xlink:title=" ">
<path fill="none" stroke="#63b8ff" d="M412.49,-381.24C431.27,-371.72 455.48,-359.44 471.73,-351.2"/>
<polygon fill="#63b8ff" stroke="#63b8ff" points="411.12,-378.01 403.79,-385.66 414.29,-384.26 411.12,-378.01"/>
</a>
</g>
</g>
<!-- Node7 -->
<g id="Node000007" class="node">
<title>Node7</title>
<g id="a_Node000007"><a xlink:href="_t_source_calibration_8cxx.html" target="_top" xlink:title=" ">
<polygon fill="white" stroke="#666666" points="515.12,-295.5 400.12,-295.5 400.12,-276.25 515.12,-276.25 515.12,-295.5"/>
<text text-anchor="middle" x="457.62" y="-282" font-family="Helvetica,sans-Serif" font-size="10.00">TSourceCalibration.cxx</text>
</a>
</g>
</g>
<!-- Node6&#45;&gt;Node7 -->
<g id="edge6_Node000006_Node000007" class="edge">
<title>Node6&#45;&gt;Node7</title>
<g id="a_edge6_Node000006_Node000007"><a xlink:title=" ">
<path fill="none" stroke="#63b8ff" d="M478.5,-321.62C473.26,-312.89 467.25,-302.89 463.02,-295.86"/>
<polygon fill="#63b8ff" stroke="#63b8ff" points="475.41,-323.27 483.56,-330.03 481.41,-319.66 475.41,-323.27"/>
</a>
</g>
</g>
<!-- Node9 -->
<g id="Node000009" class="node">
<title>Node9</title>
<g id="a_Node000009"><a xlink:href="_t_multi_peak_8cxx.html" target="_top" xlink:title=" ">
<polygon fill="white" stroke="#666666" points="615.62,-295.5 533.62,-295.5 533.62,-276.25 615.62,-276.25 615.62,-295.5"/>
<text text-anchor="middle" x="574.62" y="-282" font-family="Helvetica,sans-Serif" font-size="10.00">TMultiPeak.cxx</text>
</a>
</g>
</g>
<!-- Node8&#45;&gt;Node9 -->
<g id="edge8_Node000008_Node000009" class="edge">
<title>Node8&#45;&gt;Node9</title>
<g id="a_edge8_Node000008_Node000009"><a xlink:title=" ">
<path fill="none" stroke="#63b8ff" d="M589.38,-321.04C585.67,-312.46 581.47,-302.73 578.51,-295.86"/>
<polygon fill="#63b8ff" stroke="#63b8ff" points="586.05,-322.15 593.23,-329.94 592.47,-319.37 586.05,-322.15"/>
</a>
</g>
</g>
<!-- Node10&#45;&gt;Node8 -->
<g id="edge39_Node000010_Node000008" class="edge">
<title>Node10&#45;&gt;Node8</title>
<g id="a_edge39_Node000010_Node000008"><a xlink:title=" ">
<path fill="none" stroke="#63b8ff" d="M1070.92,-391.45C976.05,-381.56 728.34,-355.75 634.44,-345.96"/>
<polygon fill="#63b8ff" stroke="#63b8ff" points="1070.41,-394.91 1080.72,-392.47 1071.14,-387.95 1070.41,-394.91"/>
</a>
</g>
</g>
<!-- Node11 -->
<g id="Node000011" class="node">
<title>Node11</title>
<g id="a_Node000011"><a xlink:href="_g_root_commands_8cxx.html" target="_top" xlink:title=" ">
<polygon fill="white" stroke="#666666" points="1495.5,-350.75 1385.75,-350.75 1385.75,-331.5 1495.5,-331.5 1495.5,-350.75"/>
<text text-anchor="middle" x="1440.62" y="-337.25" font-family="Helvetica,sans-Serif" font-size="10.00">GRootCommands.cxx</text>
</a>
</g>
</g>
<!-- Node10&#45;&gt;Node11 -->
<g id="edge10_Node000010_Node000011" class="edge">
<title>Node10&#45;&gt;Node11</title>
<g id="a_edge10_Node000010_Node000011"><a xlink:title=" ">
<path fill="none" stroke="#63b8ff" d="M1146.24,-389.34C1204.74,-379.96 1317.84,-361.82 1385.55,-350.96"/>
<polygon fill="#63b8ff" stroke="#63b8ff" points="1145.77,-385.87 1136.45,-390.91 1146.88,-392.78 1145.77,-385.87"/>
</a>
</g>
</g>
<!-- Node12 -->
<g id="Node000012" class="node">
<title>Node12</title>
<g id="a_Node000012"><a xlink:href="_gain_match_g_r_i_f_f_i_n_8cxx.html" target="_top" xlink:title=" ">
<polygon fill="white" stroke="#666666" points="1633.38,-350.75 1513.88,-350.75 1513.88,-331.5 1633.38,-331.5 1633.38,-350.75"/>
<text text-anchor="middle" x="1573.62" y="-337.25" font-family="Helvetica,sans-Serif" font-size="10.00">GainMatchGRIFFIN.cxx</text>
</a>
</g>
</g>
<!-- Node10&#45;&gt;Node12 -->
<g id="edge11_Node000010_Node000012" class="edge">
<title>Node10&#45;&gt;Node12</title>
<g id="a_edge11_Node000010_Node000012"><a xlink:title=" ">
<path fill="none" stroke="#63b8ff" d="M1146.4,-391.27C1216.86,-383.59 1373.11,-366.38 1504.62,-350.75 1507.5,-350.41 1510.45,-350.05 1513.42,-349.69"/>
<polygon fill="#63b8ff" stroke="#63b8ff" points="1146.12,-387.78 1136.56,-392.34 1146.88,-394.74 1146.12,-387.78"/>
</a>
</g>
</g>
<!-- Node13 -->
<g id="Node000013" class="node">
<title>Node13</title>
<g id="a_Node000013"><a xlink:href="_t_angular_correlation_8h.html" target="_top" xlink:title=" ">
<polygon fill="white" stroke="#666666" points="851.12,-350.75 742.12,-350.75 742.12,-331.5 851.12,-331.5 851.12,-350.75"/>
<text text-anchor="middle" x="796.62" y="-337.25" font-family="Helvetica,sans-Serif" font-size="10.00">TAngularCorrelation.h</text>
</a>
</g>
</g>
<!-- Node10&#45;&gt;Node13 -->
<g id="edge12_Node000010_Node000013" class="edge">
<title>Node10&#45;&gt;Node13</title>
<g id="a_edge12_Node000010_Node000013"><a xlink:title=" ">
<path fill="none" stroke="#63b8ff" d="M1070.97,-388.95C1015.85,-379.54 912.95,-361.98 850.04,-351.24"/>
<polygon fill="#63b8ff" stroke="#63b8ff" points="1070.35,-392.39 1080.8,-390.63 1071.53,-385.49 1070.35,-392.39"/>
</a>
</g>
</g>
<!-- Node15 -->
<g id="Node000015" class="node">
<title>Node15</title>
<g id="a_Node000015"><a xlink:href="_t_cal_point_8h.html" target="_top" xlink:title=" ">
<polygon fill="white" stroke="#666666" points="980.75,-350.75 914.5,-350.75 914.5,-331.5 980.75,-331.5 980.75,-350.75"/>
<text text-anchor="middle" x="947.62" y="-337.25" font-family="Helvetica,sans-Serif" font-size="10.00">TCalPoint.h</text>
</a>
</g>
</g>
<!-- Node10&#45;&gt;Node15 -->
<g id="edge14_Node000010_Node000015" class="edge">
<title>Node10&#45;&gt;Node15</title>
<g id="a_edge14_Node000010_Node000015"><a xlink:title=" ">
<path fill="none" stroke="#63b8ff" d="M1071.73,-383.17C1042.33,-373.45 1001.82,-360.05 975.19,-351.24"/>
<polygon fill="#63b8ff" stroke="#63b8ff" points="1070.37,-386.41 1080.96,-386.23 1072.57,-379.76 1070.37,-386.41"/>
</a>
</g>
</g>
<!-- Node27 -->
<g id="Node000027" class="node">
<title>Node27</title>
<g id="a_Node000027"><a xlink:href="_t_efficiency_cal_8h.html" target="_top" xlink:title=" ">
<polygon fill="white" stroke="#666666" points="1102.75,-350.75 1018.5,-350.75 1018.5,-331.5 1102.75,-331.5 1102.75,-350.75"/>
<text text-anchor="middle" x="1060.62" y="-337.25" font-family="Helvetica,sans-Serif" font-size="10.00">TEfficiencyCal.h</text>
</a>
</g>
</g>
<!-- Node10&#45;&gt;Node27 -->
<g id="edge32_Node000010_Node000027" class="edge">
<title>Node10&#45;&gt;Node27</title>
<g id="a_edge32_Node000010_Node000027"><a xlink:title=" ">
<path fill="none" stroke="#63b8ff" d="M1093.23,-378.29C1085.08,-369.25 1075.41,-358.52 1068.72,-351.11"/>
<polygon fill="#63b8ff" stroke="#63b8ff" points="1090.39,-380.37 1099.69,-385.46 1095.59,-375.69 1090.39,-380.37"/>
</a>
</g>
</g>
<!-- Node29 -->
<g id="Node000029" class="node">
<title>Node29</title>
<g id="a_Node000029"><a xlink:href="_t_energy_cal_8h.html" target="_top" xlink:title=" ">
<polygon fill="white" stroke="#666666" points="1194.12,-350.75 1121.12,-350.75 1121.12,-331.5 1194.12,-331.5 1194.12,-350.75"/>
<text text-anchor="middle" x="1157.62" y="-337.25" font-family="Helvetica,sans-Serif" font-size="10.00">TEnergyCal.h</text>
</a>
</g>
</g>
<!-- Node10&#45;&gt;Node29 -->
<g id="edge34_Node000010_Node000029" class="edge">
<title>Node10&#45;&gt;Node29</title>
<g id="a_edge34_Node000010_Node000029"><a xlink:title=" ">
<path fill="none" stroke="#63b8ff" d="M1124.34,-378.29C1132.66,-369.25 1142.54,-358.52 1149.36,-351.11"/>
<polygon fill="#63b8ff" stroke="#63b8ff" points="1121.94,-375.74 1117.74,-385.47 1127.09,-380.48 1121.94,-375.74"/>
</a>
</g>
</g>
<!-- Node31 -->
<g id="Node000031" class="node">
<title>Node31</title>
<g id="a_Node000031"><a xlink:href="_t_gain_match_8h.html" target="_top" xlink:title=" ">
<polygon fill="white" stroke="#666666" points="1289,-350.75 1212.25,-350.75 1212.25,-331.5 1289,-331.5 1289,-350.75"/>
<text text-anchor="middle" x="1250.62" y="-337.25" font-family="Helvetica,sans-Serif" font-size="10.00">TGainMatch.h</text>
</a>
</g>
</g>
<!-- Node10&#45;&gt;Node31 -->
<g id="edge36_Node000010_Node000031" class="edge">
<title>Node10&#45;&gt;Node31</title>
<g id="a_edge36_Node000010_Node000031"><a xlink:title=" ">
<path fill="none" stroke="#63b8ff" d="M1143.16,-382.42C1168.95,-372.75 1203.53,-359.79 1226.42,-351.2"/>
<polygon fill="#63b8ff" stroke="#63b8ff" points="1142.26,-379.02 1134.13,-385.81 1144.72,-385.58 1142.26,-379.02"/>
</a>
</g>
</g>
<!-- Node34 -->
<g id="Node000034" class="node">
<title>Node34</title>
<g id="a_Node000034"><a xlink:href="_t_peak_8cxx.html" target="_top" xlink:title=" ">
<polygon fill="white" stroke="#666666" points="1368.12,-350.75 1307.12,-350.75 1307.12,-331.5 1368.12,-331.5 1368.12,-350.75"/>
<text text-anchor="middle" x="1337.62" y="-337.25" font-family="Helvetica,sans-Serif" font-size="10.00">TPeak.cxx</text>
</a>
</g>
</g>
<!-- Node10&#45;&gt;Node34 -->
<g id="edge40_Node000010_Node000034" class="edge">
<title>Node10&#45;&gt;Node34</title>
<g id="a_edge40_Node000010_Node000034"><a xlink:title=" ">
<path fill="none" stroke="#63b8ff" d="M1145.9,-386.71C1190.76,-376.28 1265.25,-358.95 1306.95,-349.26"/>
<polygon fill="#63b8ff" stroke="#63b8ff" points="1145.32,-383.25 1136.37,-388.92 1146.9,-390.07 1145.32,-383.25"/>
</a>
</g>
</g>
<!-- Node14 -->
<g id="Node000014" class="node">
<title>Node14</title>
<g id="a_Node000014"><a xlink:href="_t_angular_correlation_8cxx.html" target="_top" xlink:title=" ">
<polygon fill="white" stroke="#666666" points="751.62,-295.5 633.62,-295.5 633.62,-276.25 751.62,-276.25 751.62,-295.5"/>
<text text-anchor="middle" x="692.62" y="-282" font-family="Helvetica,sans-Serif" font-size="10.00">TAngularCorrelation.cxx</text>
</a>
</g>
</g>
<!-- Node13&#45;&gt;Node14 -->
<g id="edge13_Node000013_Node000014" class="edge">
<title>Node13&#45;&gt;Node14</title>
<g id="a_edge13_Node000013_Node000014"><a xlink:title=" ">
<path fill="none" stroke="#63b8ff" d="M768.76,-325.86C750.2,-316.36 726.37,-304.15 710.35,-295.95"/>
<polygon fill="#63b8ff" stroke="#63b8ff" points="767.14,-328.96 777.64,-330.4 770.33,-322.73 767.14,-328.96"/>
</a>
</g>
</g>
<!-- Node16 -->
<g id="Node000016" class="node">
<title>Node16</title>
<g id="a_Node000016"><a xlink:href="_t_cal_graph_8h.html" target="_top" xlink:title=" ">
<polygon fill="white" stroke="#666666" points="871.62,-185 801.62,-185 801.62,-165.75 871.62,-165.75 871.62,-185"/>
<text text-anchor="middle" x="836.62" y="-171.5" font-family="Helvetica,sans-Serif" font-size="10.00">TCalGraph.h</text>
</a>
</g>
</g>
<!-- Node15&#45;&gt;Node16 -->
<g id="edge15_Node000015_Node000016" class="edge">
<title>Node15&#45;&gt;Node16</title>
<g id="a_edge15_Node000015_Node000016"><a xlink:title=" ">
<path fill="none" stroke="#63b8ff" d="M902.9,-336.29C875.71,-331.39 842.98,-320.33 825.62,-295.5 801.59,-261.11 822.33,-206.82 832.15,-185.45"/>
<polygon fill="#63b8ff" stroke="#63b8ff" points="902.24,-339.73 912.66,-337.81 903.31,-332.81 902.24,-339.73"/>
</a>
</g>
</g>
<!-- Node18 -->
<g id="Node000018" class="node">
<title>Node18</title>
<g id="a_Node000018"><a xlink:href="_t_efficiency_graph_8h.html" target="_top" xlink:title=" ">
<polygon fill="white" stroke="#666666" points="1098.75,-129.75 1002.5,-129.75 1002.5,-110.5 1098.75,-110.5 1098.75,-129.75"/>
<text text-anchor="middle" x="1050.62" y="-116.25" font-family="Helvetica,sans-Serif" font-size="10.00">TEfficiencyGraph.h</text>
</a>
</g>
</g>
<!-- Node15&#45;&gt;Node18 -->
<g id="edge30_Node000015_Node000018" class="edge">
<title>Node15&#45;&gt;Node18</title>
<g id="a_edge30_Node000015_Node000018"><a xlink:title=" ">
<path fill="none" stroke="#63b8ff" d="M971.27,-324.98C1004.67,-303.06 1062.9,-262.66 1074.62,-240.25 1090.01,-210.85 1089.06,-197.57 1079.62,-165.75 1075.58,-152.11 1065.91,-138.73 1058.84,-130.24"/>
<polygon fill="#63b8ff" stroke="#63b8ff" points="969.53,-321.94 963.05,-330.33 973.35,-327.81 969.53,-321.94"/>
</a>
</g>
</g>
<!-- Node22 -->
<g id="Node000022" class="node">
<title>Node22</title>
<g id="a_Node000022"><a xlink:href="_t_cal_list_8h.html" target="_top" xlink:title=" ">
<polygon fill="white" stroke="#666666" points="999.75,-295.5 939.5,-295.5 939.5,-276.25 999.75,-276.25 999.75,-295.5"/>
<text text-anchor="middle" x="969.62" y="-282" font-family="Helvetica,sans-Serif" font-size="10.00">TCalList.h</text>
</a>
</g>
</g>
<!-- Node15&#45;&gt;Node22 -->
<g id="edge21_Node000015_Node000022" class="edge">
<title>Node15&#45;&gt;Node22</title>
<g id="a_edge21_Node000015_Node000022"><a xlink:title=" ">
<path fill="none" stroke="#63b8ff" d="M955.63,-320.75C959.15,-312.24 963.11,-302.65 965.91,-295.86"/>
<polygon fill="#63b8ff" stroke="#63b8ff" points="952.42,-319.35 951.84,-329.93 958.89,-322.03 952.42,-319.35"/>
</a>
</g>
</g>
<!-- Node25 -->
<g id="Node000025" class="node">
<title>Node25</title>
<g id="a_Node000025"><a xlink:href="_t_source_list_8cxx.html" target="_top" xlink:title=" ">
<polygon fill="white" stroke="#666666" points="975.5,-185 889.75,-185 889.75,-165.75 975.5,-165.75 975.5,-185"/>
<text text-anchor="middle" x="932.62" y="-171.5" font-family="Helvetica,sans-Serif" font-size="10.00">TSourceList.cxx</text>
</a>
</g>
</g>
<!-- Node15&#45;&gt;Node25 -->
<g id="edge31_Node000015_Node000025" class="edge">
<title>Node15&#45;&gt;Node25</title>
<g id="a_edge31_Node000015_Node000025"><a xlink:title=" ">
<path fill="none" stroke="#63b8ff" d="M903.16,-334.3C879.16,-328.64 851.48,-317.49 836.62,-295.5 807.25,-252.04 880.34,-204.73 915.28,-185.38"/>
<polygon fill="#63b8ff" stroke="#63b8ff" points="902.23,-337.68 912.73,-336.29 903.66,-330.83 902.23,-337.68"/>
</a>
</g>
</g>
<!-- Node26 -->
<g id="Node000026" class="node">
<title>Node26</title>
<g id="a_Node000026"><a xlink:href="_t_cal_point_8cxx.html" target="_top" xlink:title=" ">
<polygon fill="white" stroke="#666666" points="921.25,-295.5 846,-295.5 846,-276.25 921.25,-276.25 921.25,-295.5"/>
<text text-anchor="middle" x="883.62" y="-282" font-family="Helvetica,sans-Serif" font-size="10.00">TCalPoint.cxx</text>
</a>
</g>
</g>
<!-- Node15&#45;&gt;Node26 -->
<g id="edge29_Node000015_Node000026" class="edge">
<title>Node15&#45;&gt;Node26</title>
<g id="a_edge29_Node000015_Node000026"><a xlink:title=" ">
<path fill="none" stroke="#63b8ff" d="M928.14,-323.91C917.03,-314.67 903.52,-303.43 894.32,-295.77"/>
<polygon fill="#63b8ff" stroke="#63b8ff" points="925.68,-326.42 935.6,-330.12 930.16,-321.04 925.68,-326.42"/>
</a>
</g>
</g>
<!-- Node17 -->
<g id="Node000017" class="node">
<title>Node17</title>
<g id="a_Node000017"><a xlink:href="_t_cal_graph_8cxx.html" target="_top" xlink:title=" ">
<polygon fill="white" stroke="#666666" points="876.12,-129.75 797.12,-129.75 797.12,-110.5 876.12,-110.5 876.12,-129.75"/>
<text text-anchor="middle" x="836.62" y="-116.25" font-family="Helvetica,sans-Serif" font-size="10.00">TCalGraph.cxx</text>
</a>
</g>
</g>
<!-- Node16&#45;&gt;Node17 -->
<g id="edge16_Node000016_Node000017" class="edge">
<title>Node16&#45;&gt;Node17</title>
<g id="a_edge16_Node000016_Node000017"><a xlink:title=" ">
<path fill="none" stroke="#63b8ff" d="M836.62,-154.13C836.62,-145.84 836.62,-136.67 836.62,-130.11"/>
<polygon fill="#63b8ff" stroke="#63b8ff" points="833.13,-154.07 836.63,-164.07 840.13,-154.07 833.13,-154.07"/>
</a>
</g>
</g>
<!-- Node16&#45;&gt;Node18 -->
<g id="edge17_Node000016_Node000018" class="edge">
<title>Node16&#45;&gt;Node18</title>
<g id="a_edge17_Node000016_Node000018"><a xlink:title=" ">
<path fill="none" stroke="#63b8ff" d="M883.1,-162.81C922.42,-153.03 977.99,-139.2 1014.16,-130.2"/>
<polygon fill="#63b8ff" stroke="#63b8ff" points="882.29,-159.41 873.43,-165.22 883.98,-166.2 882.29,-159.41"/>
</a>
</g>
</g>
<!-- Node19 -->
<g id="Node000019" class="node">
<title>Node19</title>
<g id="a_Node000019"><a xlink:href="_t_efficiency_calibration_8h.html" target="_top" xlink:title=" ">
<polygon fill="white" stroke="#666666" points="1043.5,-74.5 927.75,-74.5 927.75,-55.25 1043.5,-55.25 1043.5,-74.5"/>
<text text-anchor="middle" x="985.62" y="-61" font-family="Helvetica,sans-Serif" font-size="10.00">TEfficiencyCalibration.h</text>
</a>
</g>
</g>
<!-- Node18&#45;&gt;Node19 -->
<g id="edge18_Node000018_Node000019" class="edge">
<title>Node18&#45;&gt;Node19</title>
<g id="a_edge18_Node000018_Node000019"><a xlink:title=" ">
<path fill="none" stroke="#63b8ff" d="M1030.84,-102.91C1019.55,-93.67 1005.83,-82.43 996.49,-74.77"/>
<polygon fill="#63b8ff" stroke="#63b8ff" points="1028.47,-105.5 1038.43,-109.13 1032.91,-100.09 1028.47,-105.5"/>
</a>
</g>
</g>
<!-- Node21 -->
<g id="Node000021" class="node">
<title>Node21</title>
<g id="a_Node000021"><a xlink:href="_t_efficiency_graph_8cxx.html" target="_top" xlink:title=" ">
<polygon fill="white" stroke="#666666" points="1167.25,-74.5 1062,-74.5 1062,-55.25 1167.25,-55.25 1167.25,-74.5"/>
<text text-anchor="middle" x="1114.62" y="-61" font-family="Helvetica,sans-Serif" font-size="10.00">TEfficiencyGraph.cxx</text>
</a>
</g>
</g>
<!-- Node18&#45;&gt;Node21 -->
<g id="edge20_Node000018_Node000021" class="edge">
<title>Node18&#45;&gt;Node21</title>
<g id="a_edge20_Node000018_Node000021"><a xlink:title=" ">
<path fill="none" stroke="#63b8ff" d="M1070.11,-102.91C1081.22,-93.67 1094.73,-82.43 1103.93,-74.77"/>
<polygon fill="#63b8ff" stroke="#63b8ff" points="1068.09,-100.04 1062.65,-109.12 1072.57,-105.42 1068.09,-100.04"/>
</a>
</g>
</g>
<!-- Node20 -->
<g id="Node000020" class="node">
<title>Node20</title>
<g id="a_Node000020"><a xlink:href="_t_efficiency_calibration_8cxx.html" target="_top" xlink:title=" ">
<polygon fill="white" stroke="#666666" points="1048,-19.25 923.25,-19.25 923.25,0 1048,0 1048,-19.25"/>
<text text-anchor="middle" x="985.62" y="-5.75" font-family="Helvetica,sans-Serif" font-size="10.00">TEfficiencyCalibration.cxx</text>
</a>
</g>
</g>
<!-- Node19&#45;&gt;Node20 -->
<g id="edge19_Node000019_Node000020" class="edge">
<title>Node19&#45;&gt;Node20</title>
<g id="a_edge19_Node000019_Node000020"><a xlink:title=" ">
<path fill="none" stroke="#63b8ff" d="M985.62,-43.63C985.62,-35.34 985.62,-26.17 985.62,-19.61"/>
<polygon fill="#63b8ff" stroke="#63b8ff" points="982.13,-43.57 985.63,-53.57 989.13,-43.57 982.13,-43.57"/>
</a>
</g>
</g>
<!-- Node22&#45;&gt;Node16 -->
<g id="edge22_Node000022_Node000016" class="edge">
<title>Node22&#45;&gt;Node16</title>
<g id="a_edge22_Node000022_Node000016"><a xlink:title=" ">
<path fill="none" stroke="#63b8ff" d="M928.56,-271.8C910.53,-264.58 890.01,-254.2 874.62,-240.25 857.23,-224.47 845.36,-198.84 839.95,-185.35"/>
<polygon fill="#63b8ff" stroke="#63b8ff" points="927.11,-274.99 937.7,-275.25 929.58,-268.44 927.11,-274.99"/>
</a>
</g>
</g>
<!-- Node22&#45;&gt;Node18 -->
<g id="edge24_Node000022_Node000018" class="edge">
<title>Node22&#45;&gt;Node18</title>
<g id="a_edge24_Node000022_Node000018"><a xlink:title=" ">
<path fill="none" stroke="#63b8ff" d="M1010.42,-274.35C1027.82,-267.63 1046.44,-256.92 1056.62,-240.25 1078.43,-204.56 1062.09,-151.02 1054.22,-130.03"/>
<polygon fill="#63b8ff" stroke="#63b8ff" points="1009.54,-270.95 1001.25,-277.55 1011.85,-277.56 1009.54,-270.95"/>
</a>
</g>
</g>
<!-- Node23 -->
<g id="Node000023" class="node">
<title>Node23</title>
<g id="a_Node000023"><a xlink:href="_t_cal_list_8cxx.html" target="_top" xlink:title=" ">
<polygon fill="white" stroke="#666666" points="1047.25,-240.25 978,-240.25 978,-221 1047.25,-221 1047.25,-240.25"/>
<text text-anchor="middle" x="1012.62" y="-226.75" font-family="Helvetica,sans-Serif" font-size="10.00">TCalList.cxx</text>
</a>
</g>
</g>
<!-- Node22&#45;&gt;Node23 -->
<g id="edge23_Node000022_Node000023" class="edge">
<title>Node22&#45;&gt;Node23</title>
<g id="a_edge23_Node000022_Node000023"><a xlink:title=" ">
<path fill="none" stroke="#63b8ff" d="M983.88,-267.22C991.08,-258.31 999.51,-247.87 1005.37,-240.61"/>
<polygon fill="#63b8ff" stroke="#63b8ff" points="981.24,-264.93 977.68,-274.9 986.68,-269.32 981.24,-264.93"/>
</a>
</g>
</g>
<!-- Node24 -->
<g id="Node000024" class="node">
<title>Node24</title>
<g id="a_Node000024"><a xlink:href="_t_source_list_8h.html" target="_top" xlink:title=" ">
<polygon fill="white" stroke="#666666" points="960,-240.25 883.25,-240.25 883.25,-221 960,-221 960,-240.25"/>
<text text-anchor="middle" x="921.62" y="-226.75" font-family="Helvetica,sans-Serif" font-size="10.00">TSourceList.h</text>
</a>
</g>
</g>
<!-- Node22&#45;&gt;Node24 -->
<g id="edge25_Node000022_Node000024" class="edge">
<title>Node22&#45;&gt;Node24</title>
<g id="a_edge25_Node000022_Node000024"><a xlink:title=" ">
<path fill="none" stroke="#63b8ff" d="M954.23,-267.79C946.08,-258.75 936.41,-248.02 929.72,-240.61"/>
<polygon fill="#63b8ff" stroke="#63b8ff" points="951.39,-269.87 960.69,-274.96 956.59,-265.19 951.39,-269.87"/>
</a>
</g>
</g>
<!-- Node24&#45;&gt;Node16 -->
<g id="edge26_Node000024_Node000016" class="edge">
<title>Node24&#45;&gt;Node16</title>
<g id="a_edge26_Node000024_Node000016"><a xlink:title=" ">
<path fill="none" stroke="#63b8ff" d="M897.57,-214.55C882.6,-205.17 863.84,-193.42 851.11,-185.45"/>
<polygon fill="#63b8ff" stroke="#63b8ff" points="895.59,-217.45 905.92,-219.79 899.31,-211.51 895.59,-217.45"/>
</a>
</g>
</g>
<!-- Node24&#45;&gt;Node18 -->
<g id="edge27_Node000024_Node000018" class="edge">
<title>Node24&#45;&gt;Node18</title>
<g id="a_edge27_Node000024_Node000018"><a xlink:title=" ">
<path fill="none" stroke="#63b8ff" d="M945.03,-214.3C957.17,-206.04 972.05,-195.43 984.62,-185 1006.71,-166.67 1030.37,-142.54 1042.47,-129.82"/>
<polygon fill="#63b8ff" stroke="#63b8ff" points="943.21,-211.31 936.85,-219.79 947.1,-217.13 943.21,-211.31"/>
</a>
</g>
</g>
<!-- Node24&#45;&gt;Node25 -->
<g id="edge28_Node000024_Node000025" class="edge">
<title>Node24&#45;&gt;Node25</title>
<g id="a_edge28_Node000024_Node000025"><a xlink:title=" ">
<path fill="none" stroke="#63b8ff" d="M925.75,-209.67C927.48,-201.3 929.4,-192 930.77,-185.36"/>
<polygon fill="#63b8ff" stroke="#63b8ff" points="922.34,-208.85 923.75,-219.35 929.2,-210.26 922.34,-208.85"/>
</a>
</g>
</g>
<!-- Node28 -->
<g id="Node000028" class="node">
<title>Node28</title>
<g id="a_Node000028"><a xlink:href="_t_efficiency_cal_8cxx.html" target="_top" xlink:title=" ">
<polygon fill="white" stroke="#666666" points="1149.25,-295.5 1056,-295.5 1056,-276.25 1149.25,-276.25 1149.25,-295.5"/>
<text text-anchor="middle" x="1102.62" y="-282" font-family="Helvetica,sans-Serif" font-size="10.00">TEfficiencyCal.cxx</text>
</a>
</g>
</g>
<!-- Node27&#45;&gt;Node28 -->
<g id="edge33_Node000027_Node000028" class="edge">
<title>Node27&#45;&gt;Node28</title>
<g id="a_edge33_Node000027_Node000028"><a xlink:title=" ">
<path fill="none" stroke="#63b8ff" d="M1074.55,-322.47C1081.58,-313.56 1089.81,-303.12 1095.54,-295.86"/>
<polygon fill="#63b8ff" stroke="#63b8ff" points="1071.94,-320.12 1068.5,-330.14 1077.44,-324.46 1071.94,-320.12"/>
</a>
</g>
</g>
<!-- Node30 -->
<g id="Node000030" class="node">
<title>Node30</title>
<g id="a_Node000030"><a xlink:href="_t_energy_cal_8cxx.html" target="_top" xlink:title=" ">
<polygon fill="white" stroke="#666666" points="1249.62,-295.5 1167.62,-295.5 1167.62,-276.25 1249.62,-276.25 1249.62,-295.5"/>
<text text-anchor="middle" x="1208.62" y="-282" font-family="Helvetica,sans-Serif" font-size="10.00">TEnergyCal.cxx</text>
</a>
</g>
</g>
<!-- Node29&#45;&gt;Node30 -->
<g id="edge35_Node000029_Node000030" class="edge">
<title>Node29&#45;&gt;Node30</title>
<g id="a_edge35_Node000029_Node000030"><a xlink:title=" ">
<path fill="none" stroke="#63b8ff" d="M1173.99,-323.04C1182.64,-314 1192.92,-303.27 1200.02,-295.86"/>
<polygon fill="#63b8ff" stroke="#63b8ff" points="1171.48,-320.6 1167.09,-330.24 1176.54,-325.44 1171.48,-320.6"/>
</a>
</g>
</g>
<!-- Node32 -->
<g id="Node000032" class="node">
<title>Node32</title>
<g id="a_Node000032"><a xlink:href="_t_gain_match_8cxx.html" target="_top" xlink:title=" ">
<polygon fill="white" stroke="#666666" points="1353.5,-295.5 1267.75,-295.5 1267.75,-276.25 1353.5,-276.25 1353.5,-295.5"/>
<text text-anchor="middle" x="1310.62" y="-282" font-family="Helvetica,sans-Serif" font-size="10.00">TGainMatch.cxx</text>
</a>
</g>
</g>
<!-- Node31&#45;&gt;Node32 -->
<g id="edge37_Node000031_Node000032" class="edge">
<title>Node31&#45;&gt;Node32</title>
<g id="a_edge37_Node000031_Node000032"><a xlink:title=" ">
<path fill="none" stroke="#63b8ff" d="M1269.2,-323.64C1279.56,-314.44 1292.06,-303.35 1300.6,-295.77"/>
<polygon fill="#63b8ff" stroke="#63b8ff" points="1267.09,-320.83 1261.94,-330.09 1271.74,-326.07 1267.09,-320.83"/>
</a>
</g>
</g>
<!-- Node33 -->
<g id="Node000033" class="node">
<title>Node33</title>
<g id="a_Node000033"><a xlink:href="tac__calibrator_8cxx.html" target="_top" xlink:title=" ">
<polygon fill="white" stroke="#666666" points="1462.12,-295.5 1371.12,-295.5 1371.12,-276.25 1462.12,-276.25 1462.12,-295.5"/>
<text text-anchor="middle" x="1416.62" y="-282" font-family="Helvetica,sans-Serif" font-size="10.00">tac_calibrator.cxx</text>
</a>
</g>
</g>
<!-- Node31&#45;&gt;Node33 -->
<g id="edge38_Node000031_Node000033" class="edge">
<title>Node31&#45;&gt;Node33</title>
<g id="a_edge38_Node000031_Node000033"><a xlink:title=" ">
<path fill="none" stroke="#63b8ff" d="M1289.4,-327.69C1319.69,-317.97 1361.09,-304.69 1388.33,-295.95"/>
<polygon fill="#63b8ff" stroke="#63b8ff" points="1288.68,-324.24 1280.23,-330.63 1290.82,-330.91 1288.68,-324.24"/>
</a>
</g>
</g>
<!-- Node35&#45;&gt;Node4 -->
<g id="edge43_Node000035_Node000004" class="edge">
<title>Node35&#45;&gt;Node4</title>
<g id="a_edge43_Node000035_Node000004"><a xlink:title=" ">
<path fill="none" stroke="#63b8ff" d="M281.62,-375.13C281.62,-366.84 281.62,-357.67 281.62,-351.11"/>
<polygon fill="#63b8ff" stroke="#63b8ff" points="278.13,-375.07 281.63,-385.07 285.13,-375.07 278.13,-375.07"/>
</a>
</g>
</g>
<!-- Node36 -->
<g id="Node000036" class="node">
<title>Node36</title>
<g id="a_Node000036"><a xlink:href="_angular_correlations_8cxx.html" target="_top" xlink:title=" ">
<polygon fill="white" stroke="#666666" points="117.25,-350.75 0,-350.75 0,-331.5 117.25,-331.5 117.25,-350.75"/>
<text text-anchor="middle" x="58.62" y="-337.25" font-family="Helvetica,sans-Serif" font-size="10.00">AngularCorrelations.cxx</text>
</a>
</g>
</g>
<!-- Node35&#45;&gt;Node36 -->
<g id="edge42_Node000035_Node000036" class="edge">
<title>Node35&#45;&gt;Node36</title>
<g id="a_edge42_Node000035_Node000036"><a xlink:title=" ">
<path fill="none" stroke="#63b8ff" d="M236.22,-384.53C195.16,-374.73 135.39,-360.46 96.76,-351.23"/>
<polygon fill="#63b8ff" stroke="#63b8ff" points="235.26,-387.9 245.8,-386.82 236.88,-381.09 235.26,-387.9"/>
</a>
</g>
</g>
<!-- Node37 -->
<g id="Node000037" class="node">
<title>Node37</title>
<g id="a_Node000037"><a xlink:href="_t_r_w_peak_8cxx.html" target="_top" xlink:title=" ">
<polygon fill="white" stroke="#666666" points="212,-350.75 135.25,-350.75 135.25,-331.5 212,-331.5 212,-350.75"/>
<text text-anchor="middle" x="173.62" y="-337.25" font-family="Helvetica,sans-Serif" font-size="10.00">TRWPeak.cxx</text>
</a>
</g>
</g>
<!-- Node35&#45;&gt;Node37 -->
<g id="edge44_Node000035_Node000037" class="edge">
<title>Node35&#45;&gt;Node37</title>
<g id="a_edge44_Node000035_Node000037"><a xlink:title=" ">
<path fill="none" stroke="#63b8ff" d="M253.23,-381.37C233.88,-371.83 208.82,-359.48 192.04,-351.2"/>
<polygon fill="#63b8ff" stroke="#63b8ff" points="251.43,-384.39 261.95,-385.67 254.53,-378.11 251.43,-384.39"/>
</a>
</g>
</g>
</g>
</svg>
