<?xml version="1.0" encoding="UTF-8" standalone="no"?>
<!DOCTYPE svg PUBLIC "-//W3C//DTD SVG 1.1//EN"
 "http://www.w3.org/Graphics/SVG/1.1/DTD/svg11.dtd">
<!-- Generated by graphviz version 9.0.0 (20230911.1827)
 -->
<!-- Title: TGRSIFunctions.cxx Pages: 1 -->
<svg width="1204pt" height="193pt"
 viewBox="0.00 0.00 1203.50 193.00" xmlns="http://www.w3.org/2000/svg" xmlns:xlink="http://www.w3.org/1999/xlink">
<g id="graph0" class="graph" transform="scale(1 1) rotate(0) translate(4 189)">
<title>TGRSIFunctions.cxx</title>
<!-- Node1 -->
<g id="Node000001" class="node">
<title>Node1</title>
<g id="a_Node000001"><a xlink:title=" ">
<polygon fill="#999999" stroke="#666666" points="732.38,-185 627.12,-185 627.12,-165.75 732.38,-165.75 732.38,-185"/>
<text text-anchor="middle" x="679.75" y="-171.5" font-family="Helvetica,sans-Serif" font-size="10.00">TGRSIFunctions.cxx</text>
</a>
</g>
</g>
<!-- Node2 -->
<g id="Node000002" class="node">
<title>Node2</title>
<g id="a_Node000002"><a xlink:href="_t_g_r_s_i_functions_8h.html" target="_top" xlink:title=" ">
<polygon fill="white" stroke="#666666" points="727.88,-129.75 631.62,-129.75 631.62,-110.5 727.88,-110.5 727.88,-129.75"/>
<text text-anchor="middle" x="679.75" y="-116.25" font-family="Helvetica,sans-Serif" font-size="10.00">TGRSIFunctions.h</text>
</a>
</g>
</g>
<!-- Node1&#45;&gt;Node2 -->
<g id="edge1_Node000001_Node000002" class="edge">
<title>Node1&#45;&gt;Node2</title>
<g id="a_edge1_Node000001_Node000002"><a xlink:title=" ">
<path fill="none" stroke="#63b8ff" d="M679.75,-165.58C679.75,-159.07 679.75,-149.92 679.75,-141.62"/>
<polygon fill="#63b8ff" stroke="#63b8ff" points="683.25,-141.62 679.75,-131.62 676.25,-141.62 683.25,-141.62"/>
</a>
</g>
</g>
<!-- Node3 -->
<g id="Node000003" class="node">
<title>Node3</title>
<g id="a_Node000003"><a xlink:title=" ">
<polygon fill="#e0e0e0" stroke="#999999" points="53.5,-19.25 0,-19.25 0,0 53.5,0 53.5,-19.25"/>
<text text-anchor="middle" x="26.75" y="-5.75" font-family="Helvetica,sans-Serif" font-size="10.00">iostream</text>
</a>
</g>
</g>
<!-- Node2&#45;&gt;Node3 -->
<g id="edge2_Node000002_Node000003" class="edge">
<title>Node2&#45;&gt;Node3</title>
<g id="a_edge2_Node000002_Node000003"><a xlink:title=" ">
<path fill="none" stroke="#63b8ff" d="M631.21,-115.18C558.72,-108.89 418.02,-95.16 299.75,-74.5 196.74,-56.5 169.77,-44.92 64.95,-19.78"/>
<polygon fill="#63b8ff" stroke="#63b8ff" points="65.88,-16.4 55.34,-17.49 64.26,-23.21 65.88,-16.4"/>
</a>
</g>
</g>
<!-- Node4 -->
<g id="Node000004" class="node">
<title>Node4</title>
<g id="a_Node000004"><a xlink:title=" ">
<polygon fill="#e0e0e0" stroke="#999999" points="608.25,-74.5 559.25,-74.5 559.25,-55.25 608.25,-55.25 608.25,-74.5"/>
<text text-anchor="middle" x="583.75" y="-61" font-family="Helvetica,sans-Serif" font-size="10.00">fstream</text>
</a>
</g>
</g>
<!-- Node2&#45;&gt;Node4 -->
<g id="edge3_Node000002_Node000004" class="edge">
<title>Node2&#45;&gt;Node4</title>
<g id="a_edge3_Node000002_Node000004"><a xlink:title=" ">
<path fill="none" stroke="#63b8ff" d="M663.46,-110.09C648.85,-101.98 627.12,-89.93 610.04,-80.46"/>
<polygon fill="#63b8ff" stroke="#63b8ff" points="611.88,-77.48 601.44,-75.69 608.49,-83.6 611.88,-77.48"/>
</a>
</g>
</g>
<!-- Node5 -->
<g id="Node000005" class="node">
<title>Node5</title>
<g id="a_Node000005"><a xlink:title=" ">
<polygon fill="#e0e0e0" stroke="#999999" points="111.75,-19.25 71.75,-19.25 71.75,0 111.75,0 111.75,-19.25"/>
<text text-anchor="middle" x="91.75" y="-5.75" font-family="Helvetica,sans-Serif" font-size="10.00">string</text>
</a>
</g>
</g>
<!-- Node2&#45;&gt;Node5 -->
<g id="edge4_Node000002_Node000005" class="edge">
<title>Node2&#45;&gt;Node5</title>
<g id="a_edge4_Node000002_Node000005"><a xlink:title=" ">
<path fill="none" stroke="#63b8ff" d="M631.14,-112.32C535.46,-98.52 315.91,-64.85 122.87,-19.53"/>
<polygon fill="#63b8ff" stroke="#63b8ff" points="123.96,-16.19 113.43,-17.3 122.35,-23.01 123.96,-16.19"/>
</a>
</g>
</g>
<!-- Node6 -->
<g id="Node000006" class="node">
<title>Node6</title>
<g id="a_Node000006"><a xlink:title=" ">
<polygon fill="#e0e0e0" stroke="#999999" points="669.25,-74.5 626.25,-74.5 626.25,-55.25 669.25,-55.25 669.25,-74.5"/>
<text text-anchor="middle" x="647.75" y="-61" font-family="Helvetica,sans-Serif" font-size="10.00">cmath</text>
</a>
</g>
</g>
<!-- Node2&#45;&gt;Node6 -->
<g id="edge5_Node000002_Node000006" class="edge">
<title>Node2&#45;&gt;Node6</title>
<g id="a_edge5_Node000002_Node000006"><a xlink:title=" ">
<path fill="none" stroke="#63b8ff" d="M674.47,-110.33C670.28,-103.36 664.27,-93.37 659.02,-84.62"/>
<polygon fill="#63b8ff" stroke="#63b8ff" points="662.08,-82.93 653.93,-76.16 656.08,-86.53 662.08,-82.93"/>
</a>
</g>
</g>
<!-- Node7 -->
<g id="Node000007" class="node">
<title>Node7</title>
<g id="a_Node000007"><a xlink:title=" ">
<polygon fill="#e0e0e0" stroke="#999999" points="738.38,-74.5 687.12,-74.5 687.12,-55.25 738.38,-55.25 738.38,-74.5"/>
<text text-anchor="middle" x="712.75" y="-61" font-family="Helvetica,sans-Serif" font-size="10.00">TMath.h</text>
</a>
</g>
</g>
<!-- Node2&#45;&gt;Node7 -->
<g id="edge6_Node000002_Node000007" class="edge">
<title>Node2&#45;&gt;Node7</title>
<g id="a_edge6_Node000002_Node000007"><a xlink:title=" ">
<path fill="none" stroke="#63b8ff" d="M685.2,-110.33C689.52,-103.36 695.71,-93.37 701.13,-84.62"/>
<polygon fill="#63b8ff" stroke="#63b8ff" points="704.09,-86.49 706.39,-76.15 698.14,-82.8 704.09,-86.49"/>
</a>
</g>
</g>
<!-- Node8 -->
<g id="Node000008" class="node">
<title>Node8</title>
<g id="a_Node000008"><a xlink:title=" ">
<polygon fill="#e0e0e0" stroke="#999999" points="813.38,-74.5 756.12,-74.5 756.12,-55.25 813.38,-55.25 813.38,-74.5"/>
<text text-anchor="middle" x="784.75" y="-61" font-family="Helvetica,sans-Serif" font-size="10.00">TROOT.h</text>
</a>
</g>
</g>
<!-- Node2&#45;&gt;Node8 -->
<g id="edge7_Node000002_Node000008" class="edge">
<title>Node2&#45;&gt;Node8</title>
<g id="a_edge7_Node000002_Node000008"><a xlink:title=" ">
<path fill="none" stroke="#63b8ff" d="M697.56,-110.09C713.78,-101.87 737.99,-89.59 756.78,-80.06"/>
<polygon fill="#63b8ff" stroke="#63b8ff" points="758.17,-83.28 765.5,-75.64 755,-77.04 758.17,-83.28"/>
</a>
</g>
</g>
<!-- Node9 -->
<g id="Node000009" class="node">
<title>Node9</title>
<g id="a_Node000009"><a xlink:title=" ">
<polygon fill="#e0e0e0" stroke="#999999" points="912.38,-74.5 831.12,-74.5 831.12,-55.25 912.38,-55.25 912.38,-74.5"/>
<text text-anchor="middle" x="871.75" y="-61" font-family="Helvetica,sans-Serif" font-size="10.00">TFitResultPtr.h</text>
</a>
</g>
</g>
<!-- Node2&#45;&gt;Node9 -->
<g id="edge8_Node000002_Node000009" class="edge">
<title>Node2&#45;&gt;Node9</title>
<g id="a_edge8_Node000002_Node000009"><a xlink:title=" ">
<path fill="none" stroke="#63b8ff" d="M712.32,-110.09C744.18,-101.26 792.91,-87.74 828.11,-77.98"/>
<polygon fill="#63b8ff" stroke="#63b8ff" points="828.86,-81.4 837.56,-75.36 826.99,-74.66 828.86,-81.4"/>
</a>
</g>
</g>
<!-- Node10 -->
<g id="Node000010" class="node">
<title>Node10</title>
<g id="a_Node000010"><a xlink:title=" ">
<polygon fill="#e0e0e0" stroke="#999999" points="999,-74.5 930.5,-74.5 930.5,-55.25 999,-55.25 999,-74.5"/>
<text text-anchor="middle" x="964.75" y="-61" font-family="Helvetica,sans-Serif" font-size="10.00">TFitResult.h</text>
</a>
</g>
</g>
<!-- Node2&#45;&gt;Node10 -->
<g id="edge9_Node000002_Node000010" class="edge">
<title>Node2&#45;&gt;Node10</title>
<g id="a_edge9_Node000002_Node000010"><a xlink:title=" ">
<path fill="none" stroke="#63b8ff" d="M728,-110.46C774.49,-102.05 847.1,-88.79 918.97,-75.01"/>
<polygon fill="#63b8ff" stroke="#63b8ff" points="919.38,-78.5 928.54,-73.17 918.06,-71.62 919.38,-78.5"/>
</a>
</g>
</g>
<!-- Node11 -->
<g id="Node000011" class="node">
<title>Node11</title>
<g id="a_Node000011"><a xlink:title=" ">
<polygon fill="#e0e0e0" stroke="#999999" points="1152.75,-74.5 1016.75,-74.5 1016.75,-55.25 1152.75,-55.25 1152.75,-74.5"/>
<text text-anchor="middle" x="1084.75" y="-61" font-family="Helvetica,sans-Serif" font-size="10.00">Math/SpecFuncMathMore.h</text>
</a>
</g>
</g>
<!-- Node2&#45;&gt;Node11 -->
<g id="edge10_Node000002_Node000011" class="edge">
<title>Node2&#45;&gt;Node11</title>
<g id="a_edge10_Node000002_Node000011"><a xlink:title=" ">
<path fill="none" stroke="#63b8ff" d="M728.2,-112.75C796.68,-103.75 922.6,-87.19 1004.99,-76.36"/>
<polygon fill="#63b8ff" stroke="#63b8ff" points="1005.36,-79.84 1014.82,-75.07 1004.45,-72.9 1005.36,-79.84"/>
</a>
</g>
</g>
<!-- Node12 -->
<g id="Node000012" class="node">
<title>Node12</title>
<g id="a_Node000012"><a xlink:href="_globals_8h.html" target="_top" xlink:title=" ">
<polygon fill="white" stroke="#666666" points="541,-74.5 484.5,-74.5 484.5,-55.25 541,-55.25 541,-74.5"/>
<text text-anchor="middle" x="512.75" y="-61" font-family="Helvetica,sans-Serif" font-size="10.00">Globals.h</text>
</a>
</g>
</g>
<!-- Node2&#45;&gt;Node12 -->
<g id="edge11_Node000002_Node000012" class="edge">
<title>Node2&#45;&gt;Node12</title>
<g id="a_edge11_Node000002_Node000012"><a xlink:title=" ">
<path fill="none" stroke="#63b8ff" d="M651.42,-110.09C624.07,-101.37 582.43,-88.09 551.91,-78.36"/>
<polygon fill="#63b8ff" stroke="#63b8ff" points="553.25,-75.12 542.66,-75.41 551.12,-81.78 553.25,-75.12"/>
</a>
</g>
</g>
<!-- Node12&#45;&gt;Node3 -->
<g id="edge13_Node000012_Node000003" class="edge">
<title>Node12&#45;&gt;Node3</title>
<g id="a_edge13_Node000012_Node000003"><a xlink:title=" ">
<path fill="none" stroke="#63b8ff" d="M484.14,-62.39C414.27,-58.49 229.24,-46.43 65.08,-19.41"/>
<polygon fill="#63b8ff" stroke="#63b8ff" points="65.73,-15.97 55.29,-17.77 64.57,-22.87 65.73,-15.97"/>
</a>
</g>
</g>
<!-- Node12&#45;&gt;Node5 -->
<g id="edge16_Node000012_Node000005" class="edge">
<title>Node12&#45;&gt;Node5</title>
<g id="a_edge16_Node000012_Node000005"><a xlink:title=" ">
<path fill="none" stroke="#63b8ff" d="M484.44,-62.36C421.2,-58.62 263.59,-47.29 123.17,-19.41"/>
<polygon fill="#63b8ff" stroke="#63b8ff" points="124.21,-16.05 113.72,-17.5 122.82,-22.92 124.21,-16.05"/>
</a>
</g>
</g>
<!-- Node13 -->
<g id="Node000013" class="node">
<title>Node13</title>
<g id="a_Node000013"><a xlink:title=" ">
<polygon fill="#e0e0e0" stroke="#999999" points="851.38,-19.25 806.12,-19.25 806.12,0 851.38,0 851.38,-19.25"/>
<text text-anchor="middle" x="828.75" y="-5.75" font-family="Helvetica,sans-Serif" font-size="10.00">cstdint</text>
</a>
</g>
</g>
<!-- Node12&#45;&gt;Node13 -->
<g id="edge12_Node000012_Node000013" class="edge">
<title>Node12&#45;&gt;Node13</title>
<g id="a_edge12_Node000012_Node000013"><a xlink:title=" ">
<path fill="none" stroke="#63b8ff" d="M541.33,-57.14C544.5,-56.46 547.69,-55.82 550.75,-55.25 655.88,-35.66 686.59,-41.27 794.69,-19.44"/>
<polygon fill="#63b8ff" stroke="#63b8ff" points="795.18,-22.92 804.27,-17.48 793.77,-16.06 795.18,-22.92"/>
</a>
</g>
</g>
<!-- Node14 -->
<g id="Node000014" class="node">
<title>Node14</title>
<g id="a_Node000014"><a xlink:title=" ">
<polygon fill="#e0e0e0" stroke="#999999" points="919.62,-19.25 869.88,-19.25 869.88,0 919.62,0 919.62,-19.25"/>
<text text-anchor="middle" x="894.75" y="-5.75" font-family="Helvetica,sans-Serif" font-size="10.00">iomanip</text>
</a>
</g>
</g>
<!-- Node12&#45;&gt;Node14 -->
<g id="edge14_Node000012_Node000014" class="edge">
<title>Node12&#45;&gt;Node14</title>
<g id="a_edge14_Node000012_Node000014"><a xlink:title=" ">
<path fill="none" stroke="#63b8ff" d="M541.32,-57.04C544.49,-56.39 547.68,-55.77 550.75,-55.25 683.86,-32.48 722.32,-43.72 858.31,-19.46"/>
<polygon fill="#63b8ff" stroke="#63b8ff" points="858.88,-22.91 868.09,-17.68 857.63,-16.02 858.88,-22.91"/>
</a>
</g>
</g>
<!-- Node15 -->
<g id="Node000015" class="node">
<title>Node15</title>
<g id="a_Node000015"><a xlink:title=" ">
<polygon fill="#e0e0e0" stroke="#999999" points="995.75,-19.25 937.75,-19.25 937.75,0 995.75,0 995.75,-19.25"/>
<text text-anchor="middle" x="966.75" y="-5.75" font-family="Helvetica,sans-Serif" font-size="10.00">stdexcept</text>
</a>
</g>
</g>
<!-- Node12&#45;&gt;Node15 -->
<g id="edge15_Node000012_Node000015" class="edge">
<title>Node12&#45;&gt;Node15</title>
<g id="a_edge15_Node000012_Node000015"><a xlink:title=" ">
<path fill="none" stroke="#63b8ff" d="M541.31,-56.98C544.48,-56.34 547.68,-55.74 550.75,-55.25 713.8,-29.09 760.14,-45.25 926.25,-19.45"/>
<polygon fill="#63b8ff" stroke="#63b8ff" points="926.54,-22.94 935.87,-17.92 925.44,-16.03 926.54,-22.94"/>
</a>
</g>
</g>
<!-- Node16 -->
<g id="Node000016" class="node">
<title>Node16</title>
<g id="a_Node000016"><a xlink:title=" ">
<polygon fill="#e0e0e0" stroke="#999999" points="1055.88,-19.25 1013.62,-19.25 1013.62,0 1055.88,0 1055.88,-19.25"/>
<text text-anchor="middle" x="1034.75" y="-5.75" font-family="Helvetica,sans-Serif" font-size="10.00">cstdio</text>
</a>
</g>
</g>
<!-- Node12&#45;&gt;Node16 -->
<g id="edge17_Node000012_Node000016" class="edge">
<title>Node12&#45;&gt;Node16</title>
<g id="a_edge17_Node000012_Node000016"><a xlink:title=" ">
<path fill="none" stroke="#63b8ff" d="M541.3,-56.93C544.48,-56.3 547.67,-55.72 550.75,-55.25 747.24,-25.32 803.57,-54.31 1002.14,-19.36"/>
<polygon fill="#63b8ff" stroke="#63b8ff" points="1002.53,-22.85 1011.75,-17.64 1001.29,-15.96 1002.53,-22.85"/>
</a>
</g>
</g>
<!-- Node17 -->
<g id="Node000017" class="node">
<title>Node17</title>
<g id="a_Node000017"><a xlink:title=" ">
<polygon fill="#e0e0e0" stroke="#999999" points="1118,-19.25 1073.5,-19.25 1073.5,0 1118,0 1118,-19.25"/>
<text text-anchor="middle" x="1095.75" y="-5.75" font-family="Helvetica,sans-Serif" font-size="10.00">cstdlib</text>
</a>
</g>
</g>
<!-- Node12&#45;&gt;Node17 -->
<g id="edge18_Node000012_Node000017" class="edge">
<title>Node12&#45;&gt;Node17</title>
<g id="a_edge18_Node000012_Node000017"><a xlink:title=" ">
<path fill="none" stroke="#63b8ff" d="M541.3,-56.9C544.47,-56.27 547.67,-55.7 550.75,-55.25 773.65,-22.35 837.04,-56.99 1062,-19.38"/>
<polygon fill="#63b8ff" stroke="#63b8ff" points="1062.42,-22.86 1071.69,-17.72 1061.24,-15.95 1062.42,-22.86"/>
</a>
</g>
</g>
<!-- Node18 -->
<g id="Node000018" class="node">
<title>Node18</title>
<g id="a_Node000018"><a xlink:title=" ">
<polygon fill="#e0e0e0" stroke="#999999" points="1195.5,-19.25 1136,-19.25 1136,0 1195.5,0 1195.5,-19.25"/>
<text text-anchor="middle" x="1165.75" y="-5.75" font-family="Helvetica,sans-Serif" font-size="10.00">execinfo.h</text>
</a>
</g>
</g>
<!-- Node12&#45;&gt;Node18 -->
<g id="edge19_Node000012_Node000018" class="edge">
<title>Node12&#45;&gt;Node18</title>
<g id="a_edge19_Node000012_Node000018"><a xlink:title=" ">
<path fill="none" stroke="#63b8ff" d="M541.29,-56.88C544.47,-56.26 547.67,-55.69 550.75,-55.25 801.04,-19.26 870.79,-54.04 1124.55,-19.32"/>
<polygon fill="#63b8ff" stroke="#63b8ff" points="1124.68,-22.83 1134.1,-17.99 1123.71,-15.9 1124.68,-22.83"/>
</a>
</g>
</g>
<!-- Node19 -->
<g id="Node000019" class="node">
<title>Node19</title>
<g id="a_Node000019"><a xlink:title=" ">
<polygon fill="#e0e0e0" stroke="#999999" points="180,-19.25 129.5,-19.25 129.5,0 180,0 180,-19.25"/>
<text text-anchor="middle" x="154.75" y="-5.75" font-family="Helvetica,sans-Serif" font-size="10.00">cxxabi.h</text>
</a>
</g>
</g>
<!-- Node12&#45;&gt;Node19 -->
<g id="edge20_Node000012_Node000019" class="edge">
<title>Node12&#45;&gt;Node19</title>
<g id="a_edge20_Node000012_Node000019"><a xlink:title=" ">
<path fill="none" stroke="#63b8ff" d="M484.41,-61.05C429.62,-55.35 305.24,-41.31 191.29,-19.56"/>
<polygon fill="#63b8ff" stroke="#63b8ff" points="192.27,-16.18 181.79,-17.72 190.94,-23.06 192.27,-16.18"/>
</a>
</g>
</g>
<!-- Node20 -->
<g id="Node000020" class="node">
<title>Node20</title>
<g id="a_Node000020"><a xlink:title=" ">
<polygon fill="#e0e0e0" stroke="#999999" points="249.38,-19.25 198.12,-19.25 198.12,0 249.38,0 249.38,-19.25"/>
<text text-anchor="middle" x="223.75" y="-5.75" font-family="Helvetica,sans-Serif" font-size="10.00">sstream</text>
</a>
</g>
</g>
<!-- Node12&#45;&gt;Node20 -->
<g id="edge21_Node000012_Node000020" class="edge">
<title>Node12&#45;&gt;Node20</title>
<g id="a_edge21_Node000012_Node000020"><a xlink:title=" ">
<path fill="none" stroke="#63b8ff" d="M484.06,-59.48C438.81,-52.42 347.88,-37.66 260.84,-19.57"/>
<polygon fill="#63b8ff" stroke="#63b8ff" points="261.69,-16.17 251.18,-17.54 260.25,-23.02 261.69,-16.17"/>
</a>
</g>
</g>
<!-- Node21 -->
<g id="Node000021" class="node">
<title>Node21</title>
<g id="a_Node000021"><a xlink:title=" ">
<polygon fill="#e0e0e0" stroke="#999999" points="304.25,-19.25 267.25,-19.25 267.25,0 304.25,0 304.25,-19.25"/>
<text text-anchor="middle" x="285.75" y="-5.75" font-family="Helvetica,sans-Serif" font-size="10.00">array</text>
</a>
</g>
</g>
<!-- Node12&#45;&gt;Node21 -->
<g id="edge22_Node000012_Node000021" class="edge">
<title>Node12&#45;&gt;Node21</title>
<g id="a_edge22_Node000012_Node000021"><a xlink:title=" ">
<path fill="none" stroke="#63b8ff" d="M484.24,-58.21C447.5,-50.76 381.42,-36.82 315.65,-19.58"/>
<polygon fill="#63b8ff" stroke="#63b8ff" points="316.7,-16.24 306.13,-17.06 314.9,-23.01 316.7,-16.24"/>
</a>
</g>
</g>
<!-- Node22 -->
<g id="Node000022" class="node">
<title>Node22</title>
<g id="a_Node000022"><a xlink:title=" ">
<polygon fill="#e0e0e0" stroke="#999999" points="373,-19.25 322.5,-19.25 322.5,0 373,0 373,-19.25"/>
<text text-anchor="middle" x="347.75" y="-5.75" font-family="Helvetica,sans-Serif" font-size="10.00">memory</text>
</a>
</g>
</g>
<!-- Node12&#45;&gt;Node22 -->
<g id="edge23_Node000012_Node000022" class="edge">
<title>Node12&#45;&gt;Node22</title>
<g id="a_edge23_Node000012_Node000022"><a xlink:title=" ">
<path fill="none" stroke="#63b8ff" d="M484.76,-54.84C457,-45.88 414.34,-32.11 384,-22.32"/>
<polygon fill="#63b8ff" stroke="#63b8ff" points="385.46,-19.12 374.87,-19.38 383.31,-25.78 385.46,-19.12"/>
</a>
</g>
</g>
<!-- Node23 -->
<g id="Node000023" class="node">
<title>Node23</title>
<g id="a_Node000023"><a xlink:title=" ">
<polygon fill="#e0e0e0" stroke="#999999" points="440.62,-19.25 390.88,-19.25 390.88,0 440.62,0 440.62,-19.25"/>
<text text-anchor="middle" x="415.75" y="-5.75" font-family="Helvetica,sans-Serif" font-size="10.00">unistd.h</text>
</a>
</g>
</g>
<!-- Node12&#45;&gt;Node23 -->
<g id="edge24_Node000012_Node000023" class="edge">
<title>Node12&#45;&gt;Node23</title>
<g id="a_edge24_Node000012_Node000023"><a xlink:title=" ">
<path fill="none" stroke="#63b8ff" d="M496.3,-54.84C481.52,-46.73 459.57,-34.68 442.32,-25.21"/>
<polygon fill="#63b8ff" stroke="#63b8ff" points="444.06,-22.18 433.61,-20.43 440.69,-28.31 444.06,-22.18"/>
</a>
</g>
</g>
<!-- Node24 -->
<g id="Node000024" class="node">
<title>Node24</title>
<g id="a_Node000024"><a xlink:title=" ">
<polygon fill="#e0e0e0" stroke="#999999" points="504.75,-19.25 458.75,-19.25 458.75,0 504.75,0 504.75,-19.25"/>
<text text-anchor="middle" x="481.75" y="-5.75" font-family="Helvetica,sans-Serif" font-size="10.00">TEnv.h</text>
</a>
</g>
</g>
<!-- Node12&#45;&gt;Node24 -->
<g id="edge25_Node000012_Node000024" class="edge">
<title>Node12&#45;&gt;Node24</title>
<g id="a_edge25_Node000012_Node000024"><a xlink:title=" ">
<path fill="none" stroke="#63b8ff" d="M507.63,-55.08C503.57,-48.11 497.76,-38.12 492.66,-29.37"/>
<polygon fill="#63b8ff" stroke="#63b8ff" points="495.8,-27.8 487.74,-20.92 489.75,-31.32 495.8,-27.8"/>
</a>
</g>
</g>
<!-- Node25 -->
<g id="Node000025" class="node">
<title>Node25</title>
<g id="a_Node000025"><a xlink:title=" ">
<polygon fill="#e0e0e0" stroke="#999999" points="567,-19.25 522.5,-19.25 522.5,0 567,0 567,-19.25"/>
<text text-anchor="middle" x="544.75" y="-5.75" font-family="Helvetica,sans-Serif" font-size="10.00">stdio.h</text>
</a>
</g>
</g>
<!-- Node12&#45;&gt;Node25 -->
<g id="edge26_Node000012_Node000025" class="edge">
<title>Node12&#45;&gt;Node25</title>
<g id="a_edge26_Node000012_Node000025"><a xlink:title=" ">
<path fill="none" stroke="#63b8ff" d="M518.03,-55.08C522.22,-48.11 528.23,-38.12 533.48,-29.37"/>
<polygon fill="#63b8ff" stroke="#63b8ff" points="536.42,-31.28 538.57,-20.91 530.42,-27.68 536.42,-31.28"/>
</a>
</g>
</g>
<!-- Node26 -->
<g id="Node000026" class="node">
<title>Node26</title>
<g id="a_Node000026"><a xlink:title=" ">
<polygon fill="#e0e0e0" stroke="#999999" points="632.12,-19.25 585.38,-19.25 585.38,0 632.12,0 632.12,-19.25"/>
<text text-anchor="middle" x="608.75" y="-5.75" font-family="Helvetica,sans-Serif" font-size="10.00">stdlib.h</text>
</a>
</g>
</g>
<!-- Node12&#45;&gt;Node26 -->
<g id="edge27_Node000012_Node000026" class="edge">
<title>Node12&#45;&gt;Node26</title>
<g id="a_edge27_Node000012_Node000026"><a xlink:title=" ">
<path fill="none" stroke="#63b8ff" d="M529.04,-54.84C543.65,-46.73 565.38,-34.68 582.46,-25.21"/>
<polygon fill="#63b8ff" stroke="#63b8ff" points="584.01,-28.35 591.06,-20.44 580.62,-22.23 584.01,-28.35"/>
</a>
</g>
</g>
<!-- Node27 -->
<g id="Node000027" class="node">
<title>Node27</title>
<g id="a_Node000027"><a xlink:title=" ">
<polygon fill="#e0e0e0" stroke="#999999" points="709.5,-19.25 650,-19.25 650,0 709.5,0 709.5,-19.25"/>
<text text-anchor="middle" x="679.75" y="-5.75" font-family="Helvetica,sans-Serif" font-size="10.00">sys/wait.h</text>
</a>
</g>
</g>
<!-- Node12&#45;&gt;Node27 -->
<g id="edge28_Node000012_Node000027" class="edge">
<title>Node12&#45;&gt;Node27</title>
<g id="a_edge28_Node000012_Node000027"><a xlink:title=" ">
<path fill="none" stroke="#63b8ff" d="M541.08,-54.84C568.43,-46.12 610.07,-32.84 640.59,-23.11"/>
<polygon fill="#63b8ff" stroke="#63b8ff" points="641.38,-26.53 649.84,-20.16 639.25,-19.87 641.38,-26.53"/>
</a>
</g>
</g>
<!-- Node28 -->
<g id="Node000028" class="node">
<title>Node28</title>
<g id="a_Node000028"><a xlink:title=" ">
<polygon fill="#e0e0e0" stroke="#999999" points="787.88,-19.25 727.62,-19.25 727.62,0 787.88,0 787.88,-19.25"/>
<text text-anchor="middle" x="757.75" y="-5.75" font-family="Helvetica,sans-Serif" font-size="10.00">sys/prctl.h</text>
</a>
</g>
</g>
<!-- Node12&#45;&gt;Node28 -->
<g id="edge29_Node000012_Node000028" class="edge">
<title>Node12&#45;&gt;Node28</title>
<g id="a_edge29_Node000012_Node000028"><a xlink:title=" ">
<path fill="none" stroke="#63b8ff" d="M541.38,-57.34C544.54,-56.63 547.71,-55.92 550.75,-55.25 621.97,-39.54 642.33,-35.82 716.66,-19.69"/>
<polygon fill="#63b8ff" stroke="#63b8ff" points="717.01,-23.2 726.04,-17.65 715.53,-16.36 717.01,-23.2"/>
</a>
</g>
</g>
</g>
</svg>
