<?xml version="1.0" encoding="UTF-8" standalone="no"?>
<!DOCTYPE svg PUBLIC "-//W3C//DTD SVG 1.1//EN"
 "http://www.w3.org/Graphics/SVG/1.1/DTD/svg11.dtd">
<!-- Generated by graphviz version 12.2.0 (20241103.1931)
 -->
<!-- Title: TGRSIMnemonic.h Pages: 1 -->
<svg width="641pt" height="138pt"
 viewBox="0.00 0.00 640.62 137.75" xmlns="http://www.w3.org/2000/svg" xmlns:xlink="http://www.w3.org/1999/xlink">
<g id="graph0" class="graph" transform="scale(1 1) rotate(0) translate(4 133.75)">
<title>TGRSIMnemonic.h</title>
<!-- Node1 -->
<g id="Node000001" class="node">
<title>Node1</title>
<g id="a_Node000001"><a xlink:title=" ">
<polygon fill="#999999" stroke="#666666" points="355.25,-129.75 256.75,-129.75 256.75,-110.5 355.25,-110.5 355.25,-129.75"/>
<text text-anchor="middle" x="306" y="-116.25" font-family="Helvetica,sans-Serif" font-size="10.00">TGRSIMnemonic.h</text>
</a>
</g>
</g>
<!-- Node2 -->
<g id="Node000002" class="node">
<title>Node2</title>
<g id="a_Node000002"><a xlink:href="_g_r_s_i_data_library_8cxx.html" target="_top" xlink:title=" ">
<polygon fill="white" stroke="#666666" points="106,-74.5 0,-74.5 0,-55.25 106,-55.25 106,-74.5"/>
<text text-anchor="middle" x="53" y="-61" font-family="Helvetica,sans-Serif" font-size="10.00">GRSIDataLibrary.cxx</text>
</a>
</g>
</g>
<!-- Node1&#45;&gt;Node2 -->
<g id="edge1_Node000001_Node000002" class="edge">
<title>Node1&#45;&gt;Node2</title>
<g id="a_edge1_Node000001_Node000002"><a xlink:title=" ">
<path fill="none" stroke="#63b8ff" d="M251.7,-107.7C205.15,-97.9 138.99,-83.97 96.03,-74.93"/>
<polygon fill="#63b8ff" stroke="#63b8ff" points="250.81,-111.09 261.31,-109.72 252.25,-104.24 250.81,-111.09"/>
</a>
</g>
</g>
<!-- Node3 -->
<g id="Node000003" class="node">
<title>Node3</title>
<g id="a_Node000003"><a xlink:href="_t_c_s_m_8h.html" target="_top" xlink:title=" ">
<polygon fill="white" stroke="#666666" points="175.62,-74.5 124.38,-74.5 124.38,-55.25 175.62,-55.25 175.62,-74.5"/>
<text text-anchor="middle" x="150" y="-61" font-family="Helvetica,sans-Serif" font-size="10.00">TCSM.h</text>
</a>
</g>
</g>
<!-- Node1&#45;&gt;Node3 -->
<g id="edge2_Node000001_Node000003" class="edge">
<title>Node1&#45;&gt;Node3</title>
<g id="a_edge2_Node000001_Node000003"><a xlink:title=" ">
<path fill="none" stroke="#63b8ff" d="M268.74,-106.41C240.16,-96.65 201.41,-83.42 176.07,-74.77"/>
<polygon fill="#63b8ff" stroke="#63b8ff" points="267.51,-109.68 278.1,-109.6 269.77,-103.06 267.51,-109.68"/>
</a>
</g>
</g>
<!-- Node5 -->
<g id="Node000005" class="node">
<title>Node5</title>
<g id="a_Node000005"><a xlink:href="_t_g_r_s_i_mnemonic_8cxx.html" target="_top" xlink:title=" ">
<polygon fill="white" stroke="#666666" points="281.75,-19.25 174.25,-19.25 174.25,0 281.75,0 281.75,-19.25"/>
<text text-anchor="middle" x="228" y="-5.75" font-family="Helvetica,sans-Serif" font-size="10.00">TGRSIMnemonic.cxx</text>
</a>
</g>
</g>
<!-- Node1&#45;&gt;Node5 -->
<g id="edge6_Node000001_Node000005" class="edge">
<title>Node1&#45;&gt;Node5</title>
<g id="a_edge6_Node000001_Node000005"><a xlink:title=" ">
<path fill="none" stroke="#63b8ff" d="M261.84,-105.9C246.83,-99.05 231.66,-88.99 223,-74.5 212.73,-57.31 219.37,-32.72 224.22,-19.63"/>
<polygon fill="#63b8ff" stroke="#63b8ff" points="260.16,-108.99 270.73,-109.56 262.82,-102.51 260.16,-108.99"/>
</a>
</g>
</g>
<!-- Node6 -->
<g id="Node000006" class="node">
<title>Node6</title>
<g id="a_Node000006"><a xlink:href="_t_g_r_s_i_detector_information_8cxx.html" target="_top" xlink:title=" ">
<polygon fill="white" stroke="#666666" points="380,-74.5 232,-74.5 232,-55.25 380,-55.25 380,-74.5"/>
<text text-anchor="middle" x="306" y="-61" font-family="Helvetica,sans-Serif" font-size="10.00">TGRSIDetectorInformation.cxx</text>
</a>
</g>
</g>
<!-- Node1&#45;&gt;Node6 -->
<g id="edge5_Node000001_Node000006" class="edge">
<title>Node1&#45;&gt;Node6</title>
<g id="a_edge5_Node000001_Node000006"><a xlink:title=" ">
<path fill="none" stroke="#63b8ff" d="M306,-98.88C306,-90.59 306,-81.42 306,-74.86"/>
<polygon fill="#63b8ff" stroke="#63b8ff" points="302.5,-98.82 306,-108.82 309.5,-98.82 302.5,-98.82"/>
</a>
</g>
</g>
<!-- Node7 -->
<g id="Node000007" class="node">
<title>Node7</title>
<g id="a_Node000007"><a xlink:href="_t_midas_file_8cxx.html" target="_top" xlink:title=" ">
<polygon fill="white" stroke="#666666" points="478.25,-74.5 397.75,-74.5 397.75,-55.25 478.25,-55.25 478.25,-74.5"/>
<text text-anchor="middle" x="438" y="-61" font-family="Helvetica,sans-Serif" font-size="10.00">TMidasFile.cxx</text>
</a>
</g>
</g>
<!-- Node1&#45;&gt;Node7 -->
<g id="edge7_Node000001_Node000007" class="edge">
<title>Node1&#45;&gt;Node7</title>
<g id="a_edge7_Node000001_Node000007"><a xlink:title=" ">
<path fill="none" stroke="#63b8ff" d="M338.75,-105.91C362.65,-96.27 394.41,-83.46 415.5,-74.95"/>
<polygon fill="#63b8ff" stroke="#63b8ff" points="337.76,-102.54 329.8,-109.53 340.38,-109.03 337.76,-102.54"/>
</a>
</g>
</g>
<!-- Node8 -->
<g id="Node000008" class="node">
<title>Node8</title>
<g id="a_Node000008"><a xlink:href="_t_rcmp_8h.html" target="_top" xlink:title=" ">
<polygon fill="white" stroke="#666666" points="551.5,-74.5 496.5,-74.5 496.5,-55.25 551.5,-55.25 551.5,-74.5"/>
<text text-anchor="middle" x="524" y="-61" font-family="Helvetica,sans-Serif" font-size="10.00">TRcmp.h</text>
</a>
</g>
</g>
<!-- Node1&#45;&gt;Node8 -->
<g id="edge8_Node000001_Node000008" class="edge">
<title>Node1&#45;&gt;Node8</title>
<g id="a_edge8_Node000001_Node000008"><a xlink:title=" ">
<path fill="none" stroke="#63b8ff" d="M353.9,-107.43C397.5,-96.78 460.37,-81.42 496.2,-72.67"/>
<polygon fill="#63b8ff" stroke="#63b8ff" points="353.33,-103.96 344.45,-109.73 355,-110.76 353.33,-103.96"/>
</a>
</g>
</g>
<!-- Node11 -->
<g id="Node000011" class="node">
<title>Node11</title>
<g id="a_Node000011"><a xlink:href="_t_s3_hit_8cxx.html" target="_top" xlink:title=" ">
<polygon fill="white" stroke="#666666" points="632.62,-74.5 569.38,-74.5 569.38,-55.25 632.62,-55.25 632.62,-74.5"/>
<text text-anchor="middle" x="601" y="-61" font-family="Helvetica,sans-Serif" font-size="10.00">TS3Hit.cxx</text>
</a>
</g>
</g>
<!-- Node1&#45;&gt;Node11 -->
<g id="edge12_Node000001_Node000011" class="edge">
<title>Node1&#45;&gt;Node11</title>
<g id="a_edge12_Node000001_Node000011"><a xlink:title=" ">
<path fill="none" stroke="#63b8ff" d="M366.77,-109.18C418.51,-100.54 494.77,-87.43 561,-74.5 563.65,-73.98 566.39,-73.43 569.15,-72.86"/>
<polygon fill="#63b8ff" stroke="#63b8ff" points="366.25,-105.72 356.96,-110.81 367.4,-112.62 366.25,-105.72"/>
</a>
</g>
</g>
<!-- Node4 -->
<g id="Node000004" class="node">
<title>Node4</title>
<g id="a_Node000004"><a xlink:href="_t_c_s_m_8cxx.html" target="_top" xlink:title=" ">
<polygon fill="white" stroke="#666666" points="156.12,-19.25 95.88,-19.25 95.88,0 156.12,0 156.12,-19.25"/>
<text text-anchor="middle" x="126" y="-5.75" font-family="Helvetica,sans-Serif" font-size="10.00">TCSM.cxx</text>
</a>
</g>
</g>
<!-- Node3&#45;&gt;Node4 -->
<g id="edge3_Node000003_Node000004" class="edge">
<title>Node3&#45;&gt;Node4</title>
<g id="a_edge3_Node000003_Node000004"><a xlink:title=" ">
<path fill="none" stroke="#63b8ff" d="M141.4,-44.79C137.53,-36.21 133.15,-26.48 130.05,-19.61"/>
<polygon fill="#63b8ff" stroke="#63b8ff" points="138.12,-46.02 145.41,-53.7 144.5,-43.15 138.12,-46.02"/>
</a>
</g>
</g>
<!-- Node3&#45;&gt;Node5 -->
<g id="edge4_Node000003_Node000005" class="edge">
<title>Node3&#45;&gt;Node5</title>
<g id="a_edge4_Node000003_Node000005"><a xlink:title=" ">
<path fill="none" stroke="#63b8ff" d="M172.47,-48.53C186.15,-39.2 203.14,-27.6 214.7,-19.7"/>
<polygon fill="#63b8ff" stroke="#63b8ff" points="170.77,-45.46 164.48,-53.99 174.71,-51.24 170.77,-45.46"/>
</a>
</g>
</g>
<!-- Node8&#45;&gt;Node5 -->
<g id="edge9_Node000008_Node000005" class="edge">
<title>Node8&#45;&gt;Node5</title>
<g id="a_edge9_Node000008_Node000005"><a xlink:title=" ">
<path fill="none" stroke="#63b8ff" d="M484.95,-54.94C408.96,-39.72 332.3,-26.99 282.24,-19.03"/>
<polygon fill="#63b8ff" stroke="#63b8ff" points="484.18,-58.35 494.67,-56.9 485.56,-51.49 484.18,-58.35"/>
</a>
</g>
</g>
<!-- Node9 -->
<g id="Node000009" class="node">
<title>Node9</title>
<g id="a_Node000009"><a xlink:href="_t_rcmp_8cxx.html" target="_top" xlink:title=" ">
<polygon fill="white" stroke="#666666" points="512,-19.25 448,-19.25 448,0 512,0 512,-19.25"/>
<text text-anchor="middle" x="480" y="-5.75" font-family="Helvetica,sans-Serif" font-size="10.00">TRcmp.cxx</text>
</a>
</g>
</g>
<!-- Node8&#45;&gt;Node9 -->
<g id="edge10_Node000008_Node000009" class="edge">
<title>Node8&#45;&gt;Node9</title>
<g id="a_edge10_Node000008_Node000009"><a xlink:title=" ">
<path fill="none" stroke="#63b8ff" d="M509.42,-46.22C502.05,-37.31 493.42,-26.87 487.42,-19.61"/>
<polygon fill="#63b8ff" stroke="#63b8ff" points="506.7,-48.44 515.77,-53.92 512.1,-43.98 506.7,-48.44"/>
</a>
</g>
</g>
<!-- Node10 -->
<g id="Node000010" class="node">
<title>Node10</title>
<g id="a_Node000010"><a xlink:href="_t_rcmp_hit_8cxx.html" target="_top" xlink:title=" ">
<polygon fill="white" stroke="#666666" points="606.38,-19.25 529.62,-19.25 529.62,0 606.38,0 606.38,-19.25"/>
<text text-anchor="middle" x="568" y="-5.75" font-family="Helvetica,sans-Serif" font-size="10.00">TRcmpHit.cxx</text>
</a>
</g>
</g>
<!-- Node8&#45;&gt;Node10 -->
<g id="edge11_Node000008_Node000010" class="edge">
<title>Node8&#45;&gt;Node10</title>
<g id="a_edge11_Node000008_Node000010"><a xlink:title=" ">
<path fill="none" stroke="#63b8ff" d="M538.58,-46.22C545.95,-37.31 554.58,-26.87 560.58,-19.61"/>
<polygon fill="#63b8ff" stroke="#63b8ff" points="535.9,-43.98 532.23,-53.92 541.3,-48.44 535.9,-43.98"/>
</a>
</g>
</g>
</g>
</svg>
