<?xml version="1.0" encoding="UTF-8" standalone="no"?>
<!DOCTYPE svg PUBLIC "-//W3C//DTD SVG 1.1//EN"
 "http://www.w3.org/Graphics/SVG/1.1/DTD/svg11.dtd">
<!-- Generated by graphviz version 12.2.0 (20241103.1931)
 -->
<!-- Title: TGRSIMap.h Pages: 1 -->
<!--zoomable 193 -->

<svg id="main" version="1.1" xmlns="http://www.w3.org/2000/svg" xmlns:xlink="http://www.w3.org/1999/xlink" xml:space="preserve" onload="init(evt)">

<style type="text/css"><![CDATA[
.node, .edge {opacity: 0.7;}
.node.selected, .edge.selected {opacity: 1;}
.edge:hover path { stroke: red; }
.edge:hover polygon { stroke: red; fill: red; }
]]></style>

<defs>
  <circle id="rim" cx="0" cy="0" r="7"/>
  <circle id="rim2" cx="0" cy="0" r="3.5"/>
  <g id="zoomPlus">
    <use xlink:href="#rim" fill="#404040"><set attributeName="fill" to="#808080" begin="zoomplus.mouseover" end="zoomplus.mouseout"/></use>
    <path d="M-4,0h8M0,-4v8" fill="none" stroke="white" stroke-width="1.5" pointer-events="none"/>
  </g>
  <g id="zoomMin">
    <use xlink:href="#rim" fill="#404040"><set attributeName="fill" to="#808080" begin="zoomminus.mouseover" end="zoomminus.mouseout"/></use>
    <path d="M-4,0h8" fill="none" stroke="white" stroke-width="1.5" pointer-events="none"/>
  </g>
  <g id="arrowUp" transform="translate(30 24)">
    <use xlink:href="#rim"/>
    <path pointer-events="none" fill="none" stroke="white" stroke-width="1.5" d="M0,-3.0v7 M-2.5,-0.5L0,-3.0L2.5,-0.5"/>
  </g>
  <g id="arrowRight" transform="rotate(90) translate(36 -43)">
    <use xlink:href="#rim"/>
    <path pointer-events="none" fill="none" stroke="white" stroke-width="1.5" d="M0,-3.0v7 M-2.5,-0.5L0,-3.0L2.5,-0.5"/>
  </g>
  <g id="arrowDown" transform="rotate(180) translate(-30 -48)">
    <use xlink:href="#rim"/>
    <path pointer-events="none" fill="none" stroke="white" stroke-width="1.5" d="M0,-3.0v7 M-2.5,-0.5L0,-3.0L2.5,-0.5"/>
  </g>
  <g id="arrowLeft" transform="rotate(270) translate(-36 17)">
    <use xlink:href="#rim"/>
    <path pointer-events="none" fill="none" stroke="white" stroke-width="1.5" d="M0,-3.0v7 M-2.5,-0.5L0,-3.0L2.5,-0.5"/>
  </g>
  <g id="resetDef">
    <use xlink:href="#rim2" fill="#404040"><set attributeName="fill" to="#808080" begin="reset.mouseover" end="reset.mouseout"/></use>
  </g>
</defs>
<script type="application/ecmascript">
var viewWidth = 3398;
var viewHeight = 193;
var sectionId = 'dynsection-1';
</script>
<script type="application/ecmascript" xlink:href="svg.min.js"/>
<svg id="graph" class="graph">
<g id="viewport">
<title>TGRSIMap.h</title>
<!-- Node1 -->
<g id="Node000001" class="node">
<title>Node1</title>
<g id="a_Node000001"><a xlink:title=" ">
<polygon fill="#999999" stroke="#666666" points="2707.25,-185 2635,-185 2635,-165.75 2707.25,-165.75 2707.25,-185"/>
<text text-anchor="middle" x="2671.12" y="-171.5" font-family="Helvetica,sans-Serif" font-size="10.00">TGRSIMap.h</text>
</a>
</g>
</g>
<!-- Node2 -->
<g id="Node000002" class="node">
<title>Node2</title>
<g id="a_Node000002"><a xlink:href="_t_g_r_s_i_helper_8h.html" target="_top" xlink:title=" ">
<polygon fill="white" stroke="#666666" points="1177.12,-129.75 1095.12,-129.75 1095.12,-110.5 1177.12,-110.5 1177.12,-129.75"/>
<text text-anchor="middle" x="1136.12" y="-116.25" font-family="Helvetica,sans-Serif" font-size="10.00">TGRSIHelper.h</text>
</a>
</g>
</g>
<!-- Node1&#45;&gt;Node2 -->
<g id="edge1_Node000001_Node000002" class="edge">
<title>Node1&#45;&gt;Node2</title>
<g id="a_edge1_Node000001_Node000002"><a xlink:title=" ">
<path fill="none" stroke="#63b8ff" d="M2623.35,-172.72C2392.36,-164.7 1393.58,-130.06 1177.47,-122.56"/>
<polygon fill="#63b8ff" stroke="#63b8ff" points="2623.07,-176.21 2633.18,-173.06 2623.31,-169.21 2623.07,-176.21"/>
</a>
</g>
</g>
<!-- Node33 -->
<g id="Node000033" class="node">
<title>Node33</title>
<g id="a_Node000033"><a xlink:href="_t_g_r_s_i_selector_8h.html" target="_top" xlink:title=" ">
<polygon fill="white" stroke="#666666" points="2715.88,-129.75 2626.38,-129.75 2626.38,-110.5 2715.88,-110.5 2715.88,-129.75"/>
<text text-anchor="middle" x="2671.12" y="-116.25" font-family="Helvetica,sans-Serif" font-size="10.00">TGRSISelector.h</text>
</a>
</g>
</g>
<!-- Node1&#45;&gt;Node33 -->
<g id="edge32_Node000001_Node000033" class="edge">
<title>Node1&#45;&gt;Node33</title>
<g id="a_edge32_Node000001_Node000033"><a xlink:title=" ">
<path fill="none" stroke="#63b8ff" d="M2671.12,-154.13C2671.12,-145.84 2671.12,-136.67 2671.12,-130.11"/>
<polygon fill="#63b8ff" stroke="#63b8ff" points="2667.63,-154.07 2671.13,-164.07 2674.63,-154.07 2667.63,-154.07"/>
</a>
</g>
</g>
<!-- Node53 -->
<g id="Node000053" class="node">
<title>Node53</title>
<g id="a_Node000053"><a xlink:href="grsiproof_8cxx.html" target="_top" xlink:title=" ">
<polygon fill="white" stroke="#666666" points="2804.12,-129.75 2734.12,-129.75 2734.12,-110.5 2804.12,-110.5 2804.12,-129.75"/>
<text text-anchor="middle" x="2769.12" y="-116.25" font-family="Helvetica,sans-Serif" font-size="10.00">grsiproof.cxx</text>
</a>
</g>
</g>
<!-- Node1&#45;&gt;Node53 -->
<g id="edge52_Node000001_Node000053" class="edge">
<title>Node1&#45;&gt;Node53</title>
<g id="a_edge52_Node000001_Node000053"><a xlink:title=" ">
<path fill="none" stroke="#63b8ff" d="M2697.38,-160.11C2714.87,-150.61 2737.33,-138.4 2752.42,-130.2"/>
<polygon fill="#63b8ff" stroke="#63b8ff" points="2696.19,-156.77 2689.08,-164.62 2699.54,-162.92 2696.19,-156.77"/>
</a>
</g>
</g>
<!-- Node3 -->
<g id="Node000003" class="node">
<title>Node3</title>
<g id="a_Node000003"><a xlink:href="_alphanumeric_helper_8hh.html" target="_top" xlink:title=" ">
<polygon fill="white" stroke="#666666" points="122.38,-74.5 5.88,-74.5 5.88,-55.25 122.38,-55.25 122.38,-74.5"/>
<text text-anchor="middle" x="64.12" y="-61" font-family="Helvetica,sans-Serif" font-size="10.00">AlphanumericHelper.hh</text>
</a>
</g>
</g>
<!-- Node2&#45;&gt;Node3 -->
<g id="edge2_Node000002_Node000003" class="edge">
<title>Node2&#45;&gt;Node3</title>
<g id="a_edge2_Node000002_Node000003"><a xlink:title=" ">
<path fill="none" stroke="#63b8ff" d="M1083.49,-118.26C934.28,-115.51 495.85,-105.19 133.12,-74.5 129.76,-74.22 126.3,-73.89 122.81,-73.53"/>
<polygon fill="#63b8ff" stroke="#63b8ff" points="1083.39,-121.76 1093.45,-118.44 1083.52,-114.76 1083.39,-121.76"/>
</a>
</g>
</g>
<!-- Node5 -->
<g id="Node000005" class="node">
<title>Node5</title>
<g id="a_Node000005"><a xlink:href="_angular_correlation_helper_8hh.html" target="_top" xlink:title=" ">
<polygon fill="white" stroke="#666666" points="278.5,-74.5 141.75,-74.5 141.75,-55.25 278.5,-55.25 278.5,-74.5"/>
<text text-anchor="middle" x="210.12" y="-61" font-family="Helvetica,sans-Serif" font-size="10.00">AngularCorrelationHelper.hh</text>
</a>
</g>
</g>
<!-- Node2&#45;&gt;Node5 -->
<g id="edge4_Node000002_Node000005" class="edge">
<title>Node2&#45;&gt;Node5</title>
<g id="a_edge4_Node000002_Node000005"><a xlink:title=" ">
<path fill="none" stroke="#63b8ff" d="M1083.45,-117.26C950.7,-112.37 591.68,-97.9 293.12,-74.5 288.5,-74.14 283.74,-73.73 278.94,-73.3"/>
<polygon fill="#63b8ff" stroke="#63b8ff" points="1083.21,-120.76 1093.34,-117.63 1083.47,-113.76 1083.21,-120.76"/>
</a>
</g>
</g>
<!-- Node7 -->
<g id="Node000007" class="node">
<title>Node7</title>
<g id="a_Node000007"><a xlink:href="_compton_polarimetry_helper_8hh.html" target="_top" xlink:title=" ">
<polygon fill="white" stroke="#666666" points="446.62,-74.5 301.62,-74.5 301.62,-55.25 446.62,-55.25 446.62,-74.5"/>
<text text-anchor="middle" x="374.12" y="-61" font-family="Helvetica,sans-Serif" font-size="10.00">ComptonPolarimetryHelper.hh</text>
</a>
</g>
</g>
<!-- Node2&#45;&gt;Node7 -->
<g id="edge6_Node000002_Node000007" class="edge">
<title>Node2&#45;&gt;Node7</title>
<g id="a_edge6_Node000002_Node000007"><a xlink:title=" ">
<path fill="none" stroke="#63b8ff" d="M1083.32,-116.31C969.15,-110.08 690.86,-94.1 458.12,-74.5 454.47,-74.19 450.73,-73.86 446.96,-73.52"/>
<polygon fill="#63b8ff" stroke="#63b8ff" points="1083.13,-119.8 1093.3,-116.85 1083.51,-112.81 1083.13,-119.8"/>
</a>
</g>
</g>
<!-- Node9 -->
<g id="Node000009" class="node">
<title>Node9</title>
<g id="a_Node000009"><a xlink:href="_cross_talk_check_helper_8hh.html" target="_top" xlink:title=" ">
<polygon fill="white" stroke="#666666" points="596.75,-74.5 467.5,-74.5 467.5,-55.25 596.75,-55.25 596.75,-74.5"/>
<text text-anchor="middle" x="532.12" y="-61" font-family="Helvetica,sans-Serif" font-size="10.00">CrossTalkCheckHelper.hh</text>
</a>
</g>
</g>
<!-- Node2&#45;&gt;Node9 -->
<g id="edge8_Node000002_Node000009" class="edge">
<title>Node2&#45;&gt;Node9</title>
<g id="a_edge8_Node000002_Node000009"><a xlink:title=" ">
<path fill="none" stroke="#63b8ff" d="M1083.37,-115.17C988.29,-107.93 781.91,-91.7 608.12,-74.5 604.56,-74.15 600.9,-73.77 597.2,-73.38"/>
<polygon fill="#63b8ff" stroke="#63b8ff" points="1082.93,-118.65 1093.16,-115.91 1083.46,-111.67 1082.93,-118.65"/>
</a>
</g>
</g>
<!-- Node11 -->
<g id="Node000011" class="node">
<title>Node11</title>
<g id="a_Node000011"><a xlink:href="_cross_talk_helper_8hh.html" target="_top" xlink:title=" ">
<polygon fill="white" stroke="#666666" points="718.88,-74.5 617.38,-74.5 617.38,-55.25 718.88,-55.25 718.88,-74.5"/>
<text text-anchor="middle" x="668.12" y="-61" font-family="Helvetica,sans-Serif" font-size="10.00">CrossTalkHelper.hh</text>
</a>
</g>
</g>
<!-- Node2&#45;&gt;Node11 -->
<g id="edge10_Node000002_Node000011" class="edge">
<title>Node2&#45;&gt;Node11</title>
<g id="a_edge10_Node000002_Node000011"><a xlink:title=" ">
<path fill="none" stroke="#63b8ff" d="M1083.49,-113.72C1006.34,-105.7 858.04,-89.94 732.12,-74.5 727.9,-73.98 723.51,-73.43 719.11,-72.86"/>
<polygon fill="#63b8ff" stroke="#63b8ff" points="1082.98,-117.18 1093.29,-114.73 1083.7,-110.22 1082.98,-117.18"/>
</a>
</g>
</g>
<!-- Node13 -->
<g id="Node000013" class="node">
<title>Node13</title>
<g id="a_Node000013"><a xlink:href="_directory_helper_8hh.html" target="_top" xlink:title=" ">
<polygon fill="white" stroke="#666666" points="836.88,-74.5 741.38,-74.5 741.38,-55.25 836.88,-55.25 836.88,-74.5"/>
<text text-anchor="middle" x="789.12" y="-61" font-family="Helvetica,sans-Serif" font-size="10.00">DirectoryHelper.hh</text>
</a>
</g>
</g>
<!-- Node2&#45;&gt;Node13 -->
<g id="edge12_Node000002_Node000013" class="edge">
<title>Node2&#45;&gt;Node13</title>
<g id="a_edge12_Node000002_Node000013"><a xlink:title=" ">
<path fill="none" stroke="#63b8ff" d="M1083.85,-111.1C1016.95,-100.84 901.98,-83.19 837.18,-73.25"/>
<polygon fill="#63b8ff" stroke="#63b8ff" points="1083.05,-114.52 1093.46,-112.58 1084.11,-107.6 1083.05,-114.52"/>
</a>
</g>
</g>
<!-- Node15 -->
<g id="Node000015" class="node">
<title>Node15</title>
<g id="a_Node000015"><a xlink:href="_example_event_helper_8hh.html" target="_top" xlink:title=" ">
<polygon fill="white" stroke="#666666" points="977.5,-74.5 858.75,-74.5 858.75,-55.25 977.5,-55.25 977.5,-74.5"/>
<text text-anchor="middle" x="918.12" y="-61" font-family="Helvetica,sans-Serif" font-size="10.00">ExampleEventHelper.hh</text>
</a>
</g>
</g>
<!-- Node2&#45;&gt;Node15 -->
<g id="edge14_Node000002_Node000015" class="edge">
<title>Node2&#45;&gt;Node15</title>
<g id="a_edge14_Node000002_Node000015"><a xlink:title=" ">
<path fill="none" stroke="#63b8ff" d="M1088.06,-107.38C1048.06,-97.61 991.92,-83.9 955.29,-74.95"/>
<polygon fill="#63b8ff" stroke="#63b8ff" points="1087.13,-110.76 1097.67,-109.73 1088.79,-103.96 1087.13,-110.76"/>
</a>
</g>
</g>
<!-- Node17 -->
<g id="Node000017" class="node">
<title>Node17</title>
<g id="a_Node000017"><a xlink:href="_example_fragment_helper_8hh.html" target="_top" xlink:title=" ">
<polygon fill="white" stroke="#666666" points="1133.75,-74.5 998.5,-74.5 998.5,-55.25 1133.75,-55.25 1133.75,-74.5"/>
<text text-anchor="middle" x="1066.12" y="-61" font-family="Helvetica,sans-Serif" font-size="10.00">ExampleFragmentHelper.hh</text>
</a>
</g>
</g>
<!-- Node2&#45;&gt;Node17 -->
<g id="edge16_Node000002_Node000017" class="edge">
<title>Node2&#45;&gt;Node17</title>
<g id="a_edge16_Node000002_Node000017"><a xlink:title=" ">
<path fill="none" stroke="#63b8ff" d="M1115.18,-103.19C1102.95,-93.89 1087.99,-82.51 1077.82,-74.77"/>
<polygon fill="#63b8ff" stroke="#63b8ff" points="1112.97,-105.91 1123.05,-109.18 1117.21,-100.34 1112.97,-105.91"/>
</a>
</g>
</g>
<!-- Node19 -->
<g id="Node000019" class="node">
<title>Node19</title>
<g id="a_Node000019"><a xlink:href="_example_tree_helper_8hh.html" target="_top" xlink:title=" ">
<polygon fill="white" stroke="#666666" points="1265.88,-74.5 1152.38,-74.5 1152.38,-55.25 1265.88,-55.25 1265.88,-74.5"/>
<text text-anchor="middle" x="1209.12" y="-61" font-family="Helvetica,sans-Serif" font-size="10.00">ExampleTreeHelper.hh</text>
</a>
</g>
</g>
<!-- Node2&#45;&gt;Node19 -->
<g id="edge18_Node000002_Node000019" class="edge">
<title>Node2&#45;&gt;Node19</title>
<g id="a_edge18_Node000002_Node000019"><a xlink:title=" ">
<path fill="none" stroke="#63b8ff" d="M1157.59,-103.47C1170.41,-94.12 1186.22,-82.58 1196.92,-74.77"/>
<polygon fill="#63b8ff" stroke="#63b8ff" points="1155.75,-100.48 1149.73,-109.2 1159.87,-106.13 1155.75,-100.48"/>
</a>
</g>
</g>
<!-- Node21 -->
<g id="Node000021" class="node">
<title>Node21</title>
<g id="a_Node000021"><a xlink:href="_griffin_k_value_helper_8hh.html" target="_top" xlink:title=" ">
<polygon fill="white" stroke="#666666" points="1400.88,-74.5 1287.38,-74.5 1287.38,-55.25 1400.88,-55.25 1400.88,-74.5"/>
<text text-anchor="middle" x="1344.12" y="-61" font-family="Helvetica,sans-Serif" font-size="10.00">GriffinKValueHelper.hh</text>
</a>
</g>
</g>
<!-- Node2&#45;&gt;Node21 -->
<g id="edge20_Node000002_Node000021" class="edge">
<title>Node2&#45;&gt;Node21</title>
<g id="a_edge20_Node000002_Node000021"><a xlink:title=" ">
<path fill="none" stroke="#63b8ff" d="M1182.23,-107.32C1220.38,-97.55 1273.79,-83.88 1308.67,-74.95"/>
<polygon fill="#63b8ff" stroke="#63b8ff" points="1181.7,-103.85 1172.88,-109.72 1183.43,-110.63 1181.7,-103.85"/>
</a>
</g>
</g>
<!-- Node23 -->
<g id="Node000023" class="node">
<title>Node23</title>
<g id="a_Node000023"><a xlink:href="_summing_corrections_helper_8hh.html" target="_top" xlink:title=" ">
<polygon fill="white" stroke="#666666" points="1570.12,-74.5 1422.12,-74.5 1422.12,-55.25 1570.12,-55.25 1570.12,-74.5"/>
<text text-anchor="middle" x="1496.12" y="-61" font-family="Helvetica,sans-Serif" font-size="10.00">SummingCorrectionsHelper.hh</text>
</a>
</g>
</g>
<!-- Node2&#45;&gt;Node23 -->
<g id="edge22_Node000002_Node000023" class="edge">
<title>Node2&#45;&gt;Node23</title>
<g id="a_edge22_Node000002_Node000023"><a xlink:title=" ">
<path fill="none" stroke="#63b8ff" d="M1188.67,-111.35C1254.02,-101.69 1365.37,-85.22 1434.62,-74.97"/>
<polygon fill="#63b8ff" stroke="#63b8ff" points="1188.3,-107.87 1178.92,-112.8 1189.32,-114.79 1188.3,-107.87"/>
</a>
</g>
</g>
<!-- Node25 -->
<g id="Node000025" class="node">
<title>Node25</title>
<g id="a_Node000025"><a xlink:href="_t_data_frame_library_8h.html" target="_top" xlink:title=" ">
<polygon fill="white" stroke="#666666" points="1699.5,-74.5 1592.75,-74.5 1592.75,-55.25 1699.5,-55.25 1699.5,-74.5"/>
<text text-anchor="middle" x="1646.12" y="-61" font-family="Helvetica,sans-Serif" font-size="10.00">TDataFrameLibrary.h</text>
</a>
</g>
</g>
<!-- Node2&#45;&gt;Node25 -->
<g id="edge24_Node000002_Node000025" class="edge">
<title>Node2&#45;&gt;Node25</title>
<g id="a_edge24_Node000002_Node000025"><a xlink:title=" ">
<path fill="none" stroke="#63b8ff" d="M1188.79,-114.3C1271.83,-106.57 1438.26,-90.66 1579.12,-74.5 1583.44,-74.01 1587.9,-73.47 1592.38,-72.93"/>
<polygon fill="#63b8ff" stroke="#63b8ff" points="1188.53,-110.8 1178.9,-115.21 1189.18,-117.77 1188.53,-110.8"/>
</a>
</g>
</g>
<!-- Node28 -->
<g id="Node000028" class="node">
<title>Node28</title>
<g id="a_Node000028"><a xlink:href="_t_g_r_s_i_helper_8cxx.html" target="_top" xlink:title=" ">
<polygon fill="white" stroke="#666666" points="1808.62,-74.5 1717.62,-74.5 1717.62,-55.25 1808.62,-55.25 1808.62,-74.5"/>
<text text-anchor="middle" x="1763.12" y="-61" font-family="Helvetica,sans-Serif" font-size="10.00">TGRSIHelper.cxx</text>
</a>
</g>
</g>
<!-- Node2&#45;&gt;Node28 -->
<g id="edge27_Node000002_Node000028" class="edge">
<title>Node2&#45;&gt;Node28</title>
<g id="a_edge27_Node000002_Node000028"><a xlink:title=" ">
<path fill="none" stroke="#63b8ff" d="M1188.9,-116.38C1289.93,-110.83 1517.56,-96.84 1708.12,-74.5 1711.1,-74.15 1714.16,-73.76 1717.25,-73.34"/>
<polygon fill="#63b8ff" stroke="#63b8ff" points="1188.81,-112.88 1179.02,-116.92 1189.19,-119.87 1188.81,-112.88"/>
</a>
</g>
</g>
<!-- Node29 -->
<g id="Node000029" class="node">
<title>Node29</title>
<g id="a_Node000029"><a xlink:href="_tac_offset_helper_8hh.html" target="_top" xlink:title=" ">
<polygon fill="white" stroke="#666666" points="1932.12,-74.5 1832.12,-74.5 1832.12,-55.25 1932.12,-55.25 1932.12,-74.5"/>
<text text-anchor="middle" x="1882.12" y="-61" font-family="Helvetica,sans-Serif" font-size="10.00">TacOffsetHelper.hh</text>
</a>
</g>
</g>
<!-- Node2&#45;&gt;Node29 -->
<g id="edge28_Node000002_Node000029" class="edge">
<title>Node2&#45;&gt;Node29</title>
<g id="a_edge28_Node000002_Node000029"><a xlink:title=" ">
<path fill="none" stroke="#63b8ff" d="M1188.53,-116.92C1302.99,-111.85 1583.84,-97.92 1818.12,-74.5 1822.59,-74.05 1827.22,-73.54 1831.85,-72.98"/>
<polygon fill="#63b8ff" stroke="#63b8ff" points="1188.68,-113.41 1178.85,-117.35 1188.99,-120.41 1188.68,-113.41"/>
</a>
</g>
</g>
<!-- Node31 -->
<g id="Node000031" class="node">
<title>Node31</title>
<g id="a_Node000031"><a xlink:href="_time_walk_helper_8hh.html" target="_top" xlink:title=" ">
<polygon fill="white" stroke="#666666" points="2055.5,-74.5 1954.75,-74.5 1954.75,-55.25 2055.5,-55.25 2055.5,-74.5"/>
<text text-anchor="middle" x="2005.12" y="-61" font-family="Helvetica,sans-Serif" font-size="10.00">TimeWalkHelper.hh</text>
</a>
</g>
</g>
<!-- Node2&#45;&gt;Node31 -->
<g id="edge30_Node000002_Node000031" class="edge">
<title>Node2&#45;&gt;Node31</title>
<g id="a_edge30_Node000002_Node000031"><a xlink:title=" ">
<path fill="none" stroke="#63b8ff" d="M1188.68,-117.64C1317.29,-113.7 1658.04,-101.38 1941.12,-74.5 1945.48,-74.09 1949.99,-73.6 1954.51,-73.07"/>
<polygon fill="#63b8ff" stroke="#63b8ff" points="1188.66,-114.14 1178.77,-117.94 1188.87,-121.14 1188.66,-114.14"/>
</a>
</g>
</g>
<!-- Node4 -->
<g id="Node000004" class="node">
<title>Node4</title>
<g id="a_Node000004"><a xlink:href="_alphanumeric_helper_8cxx.html" target="_top" xlink:title=" ">
<polygon fill="white" stroke="#666666" points="120.25,-19.25 0,-19.25 0,0 120.25,0 120.25,-19.25"/>
<text text-anchor="middle" x="60.12" y="-5.75" font-family="Helvetica,sans-Serif" font-size="10.00">AlphanumericHelper.cxx</text>
</a>
</g>
</g>
<!-- Node3&#45;&gt;Node4 -->
<g id="edge3_Node000003_Node000004" class="edge">
<title>Node3&#45;&gt;Node4</title>
<g id="a_edge3_Node000003_Node000004"><a xlink:title=" ">
<path fill="none" stroke="#63b8ff" d="M62.6,-43.63C61.98,-35.34 61.29,-26.17 60.8,-19.61"/>
<polygon fill="#63b8ff" stroke="#63b8ff" points="59.11,-43.86 63.35,-53.57 66.09,-43.34 59.11,-43.86"/>
</a>
</g>
</g>
<!-- Node6 -->
<g id="Node000006" class="node">
<title>Node6</title>
<g id="a_Node000006"><a xlink:href="_angular_correlation_helper_8cxx.html" target="_top" xlink:title=" ">
<polygon fill="white" stroke="#666666" points="278.38,-19.25 137.88,-19.25 137.88,0 278.38,0 278.38,-19.25"/>
<text text-anchor="middle" x="208.12" y="-5.75" font-family="Helvetica,sans-Serif" font-size="10.00">AngularCorrelationHelper.cxx</text>
</a>
</g>
</g>
<!-- Node5&#45;&gt;Node6 -->
<g id="edge5_Node000005_Node000006" class="edge">
<title>Node5&#45;&gt;Node6</title>
<g id="a_edge5_Node000005_Node000006"><a xlink:title=" ">
<path fill="none" stroke="#63b8ff" d="M209.36,-43.63C209.05,-35.34 208.71,-26.17 208.46,-19.61"/>
<polygon fill="#63b8ff" stroke="#63b8ff" points="205.86,-43.71 209.74,-53.57 212.86,-43.45 205.86,-43.71"/>
</a>
</g>
</g>
<!-- Node8 -->
<g id="Node000008" class="node">
<title>Node8</title>
<g id="a_Node000008"><a xlink:href="_compton_polarimetry_helper_8cxx.html" target="_top" xlink:title=" ">
<polygon fill="white" stroke="#666666" points="445.5,-19.25 296.75,-19.25 296.75,0 445.5,0 445.5,-19.25"/>
<text text-anchor="middle" x="371.12" y="-5.75" font-family="Helvetica,sans-Serif" font-size="10.00">ComptonPolarimetryHelper.cxx</text>
</a>
</g>
</g>
<!-- Node7&#45;&gt;Node8 -->
<g id="edge7_Node000007_Node000008" class="edge">
<title>Node7&#45;&gt;Node8</title>
<g id="a_edge7_Node000007_Node000008"><a xlink:title=" ">
<path fill="none" stroke="#63b8ff" d="M372.98,-43.63C372.52,-35.34 372,-26.17 371.63,-19.61"/>
<polygon fill="#63b8ff" stroke="#63b8ff" points="369.49,-43.78 373.54,-53.57 376.48,-43.39 369.49,-43.78"/>
</a>
</g>
</g>
<!-- Node10 -->
<g id="Node000010" class="node">
<title>Node10</title>
<g id="a_Node000010"><a xlink:href="_cross_talk_check_helper_8cxx.html" target="_top" xlink:title=" ">
<polygon fill="white" stroke="#666666" points="596.62,-19.25 463.62,-19.25 463.62,0 596.62,0 596.62,-19.25"/>
<text text-anchor="middle" x="530.12" y="-5.75" font-family="Helvetica,sans-Serif" font-size="10.00">CrossTalkCheckHelper.cxx</text>
</a>
</g>
</g>
<!-- Node9&#45;&gt;Node10 -->
<g id="edge9_Node000009_Node000010" class="edge">
<title>Node9&#45;&gt;Node10</title>
<g id="a_edge9_Node000009_Node000010"><a xlink:title=" ">
<path fill="none" stroke="#63b8ff" d="M531.36,-43.63C531.05,-35.34 530.71,-26.17 530.46,-19.61"/>
<polygon fill="#63b8ff" stroke="#63b8ff" points="527.86,-43.71 531.74,-53.57 534.86,-43.45 527.86,-43.71"/>
</a>
</g>
</g>
<!-- Node12 -->
<g id="Node000012" class="node">
<title>Node12</title>
<g id="a_Node000012"><a xlink:href="_cross_talk_helper_8cxx.html" target="_top" xlink:title=" ">
<polygon fill="white" stroke="#666666" points="719.75,-19.25 614.5,-19.25 614.5,0 719.75,0 719.75,-19.25"/>
<text text-anchor="middle" x="667.12" y="-5.75" font-family="Helvetica,sans-Serif" font-size="10.00">CrossTalkHelper.cxx</text>
</a>
</g>
</g>
<!-- Node11&#45;&gt;Node12 -->
<g id="edge11_Node000011_Node000012" class="edge">
<title>Node11&#45;&gt;Node12</title>
<g id="a_edge11_Node000011_Node000012"><a xlink:title=" ">
<path fill="none" stroke="#63b8ff" d="M667.74,-43.63C667.59,-35.34 667.42,-26.17 667.29,-19.61"/>
<polygon fill="#63b8ff" stroke="#63b8ff" points="664.24,-43.64 667.93,-53.57 671.24,-43.5 664.24,-43.64"/>
</a>
</g>
</g>
<!-- Node14 -->
<g id="Node000014" class="node">
<title>Node14</title>
<g id="a_Node000014"><a xlink:href="_directory_helper_8cxx.html" target="_top" xlink:title=" ">
<polygon fill="white" stroke="#666666" points="836.75,-19.25 737.5,-19.25 737.5,0 836.75,0 836.75,-19.25"/>
<text text-anchor="middle" x="787.12" y="-5.75" font-family="Helvetica,sans-Serif" font-size="10.00">DirectoryHelper.cxx</text>
</a>
</g>
</g>
<!-- Node13&#45;&gt;Node14 -->
<g id="edge13_Node000013_Node000014" class="edge">
<title>Node13&#45;&gt;Node14</title>
<g id="a_edge13_Node000013_Node000014"><a xlink:title=" ">
<path fill="none" stroke="#63b8ff" d="M788.36,-43.63C788.05,-35.34 787.71,-26.17 787.46,-19.61"/>
<polygon fill="#63b8ff" stroke="#63b8ff" points="784.86,-43.71 788.74,-53.57 791.86,-43.45 784.86,-43.71"/>
</a>
</g>
</g>
<!-- Node16 -->
<g id="Node000016" class="node">
<title>Node16</title>
<g id="a_Node000016"><a xlink:href="_example_event_helper_8cxx.html" target="_top" xlink:title=" ">
<polygon fill="white" stroke="#666666" points="977.38,-19.25 854.88,-19.25 854.88,0 977.38,0 977.38,-19.25"/>
<text text-anchor="middle" x="916.12" y="-5.75" font-family="Helvetica,sans-Serif" font-size="10.00">ExampleEventHelper.cxx</text>
</a>
</g>
</g>
<!-- Node15&#45;&gt;Node16 -->
<g id="edge15_Node000015_Node000016" class="edge">
<title>Node15&#45;&gt;Node16</title>
<g id="a_edge15_Node000015_Node000016"><a xlink:title=" ">
<path fill="none" stroke="#63b8ff" d="M917.36,-43.63C917.05,-35.34 916.71,-26.17 916.46,-19.61"/>
<polygon fill="#63b8ff" stroke="#63b8ff" points="913.86,-43.71 917.74,-53.57 920.86,-43.45 913.86,-43.71"/>
</a>
</g>
</g>
<!-- Node18 -->
<g id="Node000018" class="node">
<title>Node18</title>
<g id="a_Node000018"><a xlink:href="_example_fragment_helper_8cxx.html" target="_top" xlink:title=" ">
<polygon fill="white" stroke="#666666" points="1134.62,-19.25 995.62,-19.25 995.62,0 1134.62,0 1134.62,-19.25"/>
<text text-anchor="middle" x="1065.12" y="-5.75" font-family="Helvetica,sans-Serif" font-size="10.00">ExampleFragmentHelper.cxx</text>
</a>
</g>
</g>
<!-- Node17&#45;&gt;Node18 -->
<g id="edge17_Node000017_Node000018" class="edge">
<title>Node17&#45;&gt;Node18</title>
<g id="a_edge17_Node000017_Node000018"><a xlink:title=" ">
<path fill="none" stroke="#63b8ff" d="M1065.74,-43.63C1065.59,-35.34 1065.42,-26.17 1065.29,-19.61"/>
<polygon fill="#63b8ff" stroke="#63b8ff" points="1062.24,-43.64 1065.93,-53.57 1069.24,-43.5 1062.24,-43.64"/>
</a>
</g>
</g>
<!-- Node20 -->
<g id="Node000020" class="node">
<title>Node20</title>
<g id="a_Node000020"><a xlink:href="_example_tree_helper_8cxx.html" target="_top" xlink:title=" ">
<polygon fill="white" stroke="#666666" points="1269.75,-19.25 1152.5,-19.25 1152.5,0 1269.75,0 1269.75,-19.25"/>
<text text-anchor="middle" x="1211.12" y="-5.75" font-family="Helvetica,sans-Serif" font-size="10.00">ExampleTreeHelper.cxx</text>
</a>
</g>
</g>
<!-- Node19&#45;&gt;Node20 -->
<g id="edge19_Node000019_Node000020" class="edge">
<title>Node19&#45;&gt;Node20</title>
<g id="a_edge19_Node000019_Node000020"><a xlink:title=" ">
<path fill="none" stroke="#63b8ff" d="M1209.89,-43.63C1210.2,-35.34 1210.54,-26.17 1210.79,-19.61"/>
<polygon fill="#63b8ff" stroke="#63b8ff" points="1206.39,-43.45 1209.51,-53.57 1213.39,-43.71 1206.39,-43.45"/>
</a>
</g>
</g>
<!-- Node22 -->
<g id="Node000022" class="node">
<title>Node22</title>
<g id="a_Node000022"><a xlink:href="_griffin_k_value_helper_8cxx.html" target="_top" xlink:title=" ">
<polygon fill="white" stroke="#666666" points="1404.75,-19.25 1287.5,-19.25 1287.5,0 1404.75,0 1404.75,-19.25"/>
<text text-anchor="middle" x="1346.12" y="-5.75" font-family="Helvetica,sans-Serif" font-size="10.00">GriffinKValueHelper.cxx</text>
</a>
</g>
</g>
<!-- Node21&#45;&gt;Node22 -->
<g id="edge21_Node000021_Node000022" class="edge">
<title>Node21&#45;&gt;Node22</title>
<g id="a_edge21_Node000021_Node000022"><a xlink:title=" ">
<path fill="none" stroke="#63b8ff" d="M1344.89,-43.63C1345.2,-35.34 1345.54,-26.17 1345.79,-19.61"/>
<polygon fill="#63b8ff" stroke="#63b8ff" points="1341.39,-43.45 1344.51,-53.57 1348.39,-43.71 1341.39,-43.45"/>
</a>
</g>
</g>
<!-- Node24 -->
<g id="Node000024" class="node">
<title>Node24</title>
<g id="a_Node000024"><a xlink:href="_summing_corrections_helper_8cxx.html" target="_top" xlink:title=" ">
<polygon fill="white" stroke="#666666" points="1575,-19.25 1423.25,-19.25 1423.25,0 1575,0 1575,-19.25"/>
<text text-anchor="middle" x="1499.12" y="-5.75" font-family="Helvetica,sans-Serif" font-size="10.00">SummingCorrectionsHelper.cxx</text>
</a>
</g>
</g>
<!-- Node23&#45;&gt;Node24 -->
<g id="edge23_Node000023_Node000024" class="edge">
<title>Node23&#45;&gt;Node24</title>
<g id="a_edge23_Node000023_Node000024"><a xlink:title=" ">
<path fill="none" stroke="#63b8ff" d="M1497.27,-43.63C1497.73,-35.34 1498.25,-26.17 1498.62,-19.61"/>
<polygon fill="#63b8ff" stroke="#63b8ff" points="1493.77,-43.39 1496.71,-53.57 1500.76,-43.78 1493.77,-43.39"/>
</a>
</g>
</g>
<!-- Node26 -->
<g id="Node000026" class="node">
<title>Node26</title>
<g id="a_Node000026"><a xlink:href="_t_data_frame_library_8cxx.html" target="_top" xlink:title=" ">
<polygon fill="white" stroke="#666666" points="1709,-19.25 1593.25,-19.25 1593.25,0 1709,0 1709,-19.25"/>
<text text-anchor="middle" x="1651.12" y="-5.75" font-family="Helvetica,sans-Serif" font-size="10.00">TDataFrameLibrary.cxx</text>
</a>
</g>
</g>
<!-- Node25&#45;&gt;Node26 -->
<g id="edge25_Node000025_Node000026" class="edge">
<title>Node25&#45;&gt;Node26</title>
<g id="a_edge25_Node000025_Node000026"><a xlink:title=" ">
<path fill="none" stroke="#63b8ff" d="M1648.03,-43.63C1648.8,-35.34 1649.67,-26.17 1650.28,-19.61"/>
<polygon fill="#63b8ff" stroke="#63b8ff" points="1644.54,-43.29 1647.09,-53.57 1651.51,-43.95 1644.54,-43.29"/>
</a>
</g>
</g>
<!-- Node27 -->
<g id="Node000027" class="node">
<title>Node27</title>
<g id="a_Node000027"><a xlink:href="_t_g_r_s_i_frame_8cxx.html" target="_top" xlink:title=" ">
<polygon fill="white" stroke="#666666" points="1817.25,-19.25 1727,-19.25 1727,0 1817.25,0 1817.25,-19.25"/>
<text text-anchor="middle" x="1772.12" y="-5.75" font-family="Helvetica,sans-Serif" font-size="10.00">TGRSIFrame.cxx</text>
</a>
</g>
</g>
<!-- Node25&#45;&gt;Node27 -->
<g id="edge26_Node000025_Node000027" class="edge">
<title>Node25&#45;&gt;Node27</title>
<g id="a_edge26_Node000025_Node000027"><a xlink:title=" ">
<path fill="none" stroke="#63b8ff" d="M1678.01,-50.4C1700.74,-40.79 1730.7,-28.13 1750.65,-19.7"/>
<polygon fill="#63b8ff" stroke="#63b8ff" points="1676.74,-47.14 1668.89,-54.25 1679.47,-53.58 1676.74,-47.14"/>
</a>
</g>
</g>
<!-- Node30 -->
<g id="Node000030" class="node">
<title>Node30</title>
<g id="a_Node000030"><a xlink:href="_tac_offset_helper_8cxx.html" target="_top" xlink:title=" ">
<polygon fill="white" stroke="#666666" points="1939,-19.25 1835.25,-19.25 1835.25,0 1939,0 1939,-19.25"/>
<text text-anchor="middle" x="1887.12" y="-5.75" font-family="Helvetica,sans-Serif" font-size="10.00">TacOffsetHelper.cxx</text>
</a>
</g>
</g>
<!-- Node29&#45;&gt;Node30 -->
<g id="edge29_Node000029_Node000030" class="edge">
<title>Node29&#45;&gt;Node30</title>
<g id="a_edge29_Node000029_Node000030"><a xlink:title=" ">
<path fill="none" stroke="#63b8ff" d="M1884.03,-43.63C1884.8,-35.34 1885.67,-26.17 1886.28,-19.61"/>
<polygon fill="#63b8ff" stroke="#63b8ff" points="1880.54,-43.29 1883.09,-53.57 1887.51,-43.95 1880.54,-43.29"/>
</a>
</g>
</g>
<!-- Node32 -->
<g id="Node000032" class="node">
<title>Node32</title>
<g id="a_Node000032"><a xlink:href="_time_walk_helper_8cxx.html" target="_top" xlink:title=" ">
<polygon fill="white" stroke="#666666" points="2061.38,-19.25 1956.88,-19.25 1956.88,0 2061.38,0 2061.38,-19.25"/>
<text text-anchor="middle" x="2009.12" y="-5.75" font-family="Helvetica,sans-Serif" font-size="10.00">TimeWalkHelper.cxx</text>
</a>
</g>
</g>
<!-- Node31&#45;&gt;Node32 -->
<g id="edge31_Node000031_Node000032" class="edge">
<title>Node31&#45;&gt;Node32</title>
<g id="a_edge31_Node000031_Node000032"><a xlink:title=" ">
<path fill="none" stroke="#63b8ff" d="M2006.65,-43.63C2007.27,-35.34 2007.96,-26.17 2008.45,-19.61"/>
<polygon fill="#63b8ff" stroke="#63b8ff" points="2003.16,-43.34 2005.9,-53.57 2010.14,-43.86 2003.16,-43.34"/>
</a>
</g>
</g>
<!-- Node34 -->
<g id="Node000034" class="node">
<title>Node34</title>
<g id="a_Node000034"><a xlink:href="_alphanumeric_selector_8h.html" target="_top" xlink:title=" ">
<polygon fill="white" stroke="#666666" points="2199.5,-74.5 2080.75,-74.5 2080.75,-55.25 2199.5,-55.25 2199.5,-74.5"/>
<text text-anchor="middle" x="2140.12" y="-61" font-family="Helvetica,sans-Serif" font-size="10.00">AlphanumericSelector.h</text>
</a>
</g>
</g>
<!-- Node33&#45;&gt;Node34 -->
<g id="edge33_Node000033_Node000034" class="edge">
<title>Node33&#45;&gt;Node34</title>
<g id="a_edge33_Node000033_Node000034"><a xlink:title=" ">
<path fill="none" stroke="#63b8ff" d="M2614.48,-114.12C2527.47,-106.33 2355.69,-90.51 2210.12,-74.5 2206.72,-74.13 2203.22,-73.73 2199.69,-73.32"/>
<polygon fill="#63b8ff" stroke="#63b8ff" points="2614.15,-117.61 2624.43,-115.01 2614.78,-110.63 2614.15,-117.61"/>
</a>
</g>
</g>
<!-- Node36 -->
<g id="Node000036" class="node">
<title>Node36</title>
<g id="a_Node000036"><a xlink:href="_angular_correlation_selector_8h.html" target="_top" xlink:title=" ">
<polygon fill="white" stroke="#666666" points="2357.62,-74.5 2218.62,-74.5 2218.62,-55.25 2357.62,-55.25 2357.62,-74.5"/>
<text text-anchor="middle" x="2288.12" y="-61" font-family="Helvetica,sans-Serif" font-size="10.00">AngularCorrelationSelector.h</text>
</a>
</g>
</g>
<!-- Node33&#45;&gt;Node36 -->
<g id="edge35_Node000033_Node000036" class="edge">
<title>Node33&#45;&gt;Node36</title>
<g id="a_edge35_Node000033_Node000036"><a xlink:title=" ">
<path fill="none" stroke="#63b8ff" d="M2614.91,-111.31C2545.32,-101.63 2427.03,-85.19 2353.47,-74.96"/>
<polygon fill="#63b8ff" stroke="#63b8ff" points="2614.18,-114.74 2624.56,-112.65 2615.14,-107.81 2614.18,-114.74"/>
</a>
</g>
</g>
<!-- Node38 -->
<g id="Node000038" class="node">
<title>Node38</title>
<g id="a_Node000038"><a xlink:href="_cross_talk_8h.html" target="_top" xlink:title=" ">
<polygon fill="white" stroke="#666666" points="2445,-74.5 2377.25,-74.5 2377.25,-55.25 2445,-55.25 2445,-74.5"/>
<text text-anchor="middle" x="2411.12" y="-61" font-family="Helvetica,sans-Serif" font-size="10.00">CrossTalk.h</text>
</a>
</g>
</g>
<!-- Node33&#45;&gt;Node38 -->
<g id="edge37_Node000033_Node000038" class="edge">
<title>Node33&#45;&gt;Node38</title>
<g id="a_edge37_Node000033_Node000038"><a xlink:title=" ">
<path fill="none" stroke="#63b8ff" d="M2615.77,-107.79C2564.15,-97.22 2488.79,-81.78 2445.38,-72.89"/>
<polygon fill="#63b8ff" stroke="#63b8ff" points="2614.74,-111.15 2625.24,-109.73 2616.15,-104.29 2614.74,-111.15"/>
</a>
</g>
</g>
<!-- Node40 -->
<g id="Node000040" class="node">
<title>Node40</title>
<g id="a_Node000040"><a xlink:href="_example_event_selector_8h.html" target="_top" xlink:title=" ">
<polygon fill="white" stroke="#666666" points="2584.62,-74.5 2463.62,-74.5 2463.62,-55.25 2584.62,-55.25 2584.62,-74.5"/>
<text text-anchor="middle" x="2524.12" y="-61" font-family="Helvetica,sans-Serif" font-size="10.00">ExampleEventSelector.h</text>
</a>
</g>
</g>
<!-- Node33&#45;&gt;Node40 -->
<g id="edge39_Node000033_Node000040" class="edge">
<title>Node33&#45;&gt;Node40</title>
<g id="a_edge39_Node000033_Node000040"><a xlink:title=" ">
<path fill="none" stroke="#63b8ff" d="M2635.37,-106.17C2608.68,-96.5 2572.88,-83.54 2549.18,-74.95"/>
<polygon fill="#63b8ff" stroke="#63b8ff" points="2634.17,-109.46 2644.77,-109.58 2636.56,-102.88 2634.17,-109.46"/>
</a>
</g>
</g>
<!-- Node42 -->
<g id="Node000042" class="node">
<title>Node42</title>
<g id="a_Node000042"><a xlink:href="_example_fragment_selector_8h.html" target="_top" xlink:title=" ">
<polygon fill="white" stroke="#666666" points="2739.88,-74.5 2602.38,-74.5 2602.38,-55.25 2739.88,-55.25 2739.88,-74.5"/>
<text text-anchor="middle" x="2671.12" y="-61" font-family="Helvetica,sans-Serif" font-size="10.00">ExampleFragmentSelector.h</text>
</a>
</g>
</g>
<!-- Node33&#45;&gt;Node42 -->
<g id="edge41_Node000033_Node000042" class="edge">
<title>Node33&#45;&gt;Node42</title>
<g id="a_edge41_Node000033_Node000042"><a xlink:title=" ">
<path fill="none" stroke="#63b8ff" d="M2671.12,-98.88C2671.12,-90.59 2671.12,-81.42 2671.12,-74.86"/>
<polygon fill="#63b8ff" stroke="#63b8ff" points="2667.63,-98.82 2671.13,-108.82 2674.63,-98.82 2667.63,-98.82"/>
</a>
</g>
</g>
<!-- Node44 -->
<g id="Node000044" class="node">
<title>Node44</title>
<g id="a_Node000044"><a xlink:href="_example_tree_selector_8h.html" target="_top" xlink:title=" ">
<polygon fill="white" stroke="#666666" points="2874,-74.5 2758.25,-74.5 2758.25,-55.25 2874,-55.25 2874,-74.5"/>
<text text-anchor="middle" x="2816.12" y="-61" font-family="Helvetica,sans-Serif" font-size="10.00">ExampleTreeSelector.h</text>
</a>
</g>
</g>
<!-- Node33&#45;&gt;Node44 -->
<g id="edge43_Node000033_Node000044" class="edge">
<title>Node33&#45;&gt;Node44</title>
<g id="a_edge43_Node000033_Node000044"><a xlink:title=" ">
<path fill="none" stroke="#63b8ff" d="M2706.39,-106.17C2732.72,-96.5 2768.04,-83.54 2791.41,-74.95"/>
<polygon fill="#63b8ff" stroke="#63b8ff" points="2705.32,-102.84 2697.14,-109.57 2707.74,-109.41 2705.32,-102.84"/>
</a>
</g>
</g>
<!-- Node46 -->
<g id="Node000046" class="node">
<title>Node46</title>
<g id="a_Node000046"><a xlink:href="_fast_timing_hist_selector_8h.html" target="_top" xlink:title=" ">
<polygon fill="white" stroke="#666666" points="3018.25,-74.5 2892,-74.5 2892,-55.25 3018.25,-55.25 3018.25,-74.5"/>
<text text-anchor="middle" x="2955.12" y="-61" font-family="Helvetica,sans-Serif" font-size="10.00">FastTimingHistSelector.h</text>
</a>
</g>
</g>
<!-- Node33&#45;&gt;Node46 -->
<g id="edge45_Node000033_Node000046" class="edge">
<title>Node33&#45;&gt;Node46</title>
<g id="a_edge45_Node000033_Node000046"><a xlink:title=" ">
<path fill="none" stroke="#63b8ff" d="M2727.22,-108.61C2779.54,-98.8 2856.78,-84.31 2906.53,-74.99"/>
<polygon fill="#63b8ff" stroke="#63b8ff" points="2726.8,-105.13 2717.61,-110.41 2728.09,-112.01 2726.8,-105.13"/>
</a>
</g>
</g>
<!-- Node48 -->
<g id="Node000048" class="node">
<title>Node48</title>
<g id="a_Node000048"><a xlink:href="_griffin_k_value_selector_8h.html" target="_top" xlink:title=" ">
<polygon fill="white" stroke="#666666" points="3152,-74.5 3036.25,-74.5 3036.25,-55.25 3152,-55.25 3152,-74.5"/>
<text text-anchor="middle" x="3094.12" y="-61" font-family="Helvetica,sans-Serif" font-size="10.00">GriffinKValueSelector.h</text>
</a>
</g>
</g>
<!-- Node33&#45;&gt;Node48 -->
<g id="edge47_Node000033_Node000048" class="edge">
<title>Node33&#45;&gt;Node48</title>
<g id="a_edge47_Node000033_Node000048"><a xlink:title=" ">
<path fill="none" stroke="#63b8ff" d="M2727.26,-110.25C2860.86,-91.79 2896.52,-90.69 3027.12,-74.5 3030.03,-74.14 3033.02,-73.77 3036.02,-73.39"/>
<polygon fill="#63b8ff" stroke="#63b8ff" points="2727.11,-106.74 2717.69,-111.58 2728.07,-113.67 2727.11,-106.74"/>
</a>
</g>
</g>
<!-- Node50 -->
<g id="Node000050" class="node">
<title>Node50</title>
<g id="a_Node000050"><a xlink:href="_t_g_r_s_i_selector_8cxx.html" target="_top" xlink:title=" ">
<polygon fill="white" stroke="#666666" points="3268.38,-74.5 3169.88,-74.5 3169.88,-55.25 3268.38,-55.25 3268.38,-74.5"/>
<text text-anchor="middle" x="3219.12" y="-61" font-family="Helvetica,sans-Serif" font-size="10.00">TGRSISelector.cxx</text>
</a>
</g>
</g>
<!-- Node33&#45;&gt;Node50 -->
<g id="edge49_Node000033_Node000050" class="edge">
<title>Node33&#45;&gt;Node50</title>
<g id="a_edge49_Node000033_Node000050"><a xlink:title=" ">
<path fill="none" stroke="#63b8ff" d="M2727.55,-110.3C2920.1,-87.51 2971.65,-96.39 3161.12,-74.5 3163.86,-74.18 3166.66,-73.84 3169.48,-73.48"/>
<polygon fill="#63b8ff" stroke="#63b8ff" points="2727.19,-106.82 2717.67,-111.49 2728.02,-113.77 2727.19,-106.82"/>
</a>
</g>
</g>
<!-- Node51 -->
<g id="Node000051" class="node">
<title>Node51</title>
<g id="a_Node000051"><a xlink:href="_time_walk_selector_8h.html" target="_top" xlink:title=" ">
<polygon fill="white" stroke="#666666" points="3389.62,-74.5 3286.62,-74.5 3286.62,-55.25 3389.62,-55.25 3389.62,-74.5"/>
<text text-anchor="middle" x="3338.12" y="-61" font-family="Helvetica,sans-Serif" font-size="10.00">TimeWalkSelector.h</text>
</a>
</g>
</g>
<!-- Node33&#45;&gt;Node51 -->
<g id="edge50_Node000033_Node000051" class="edge">
<title>Node33&#45;&gt;Node51</title>
<g id="a_edge50_Node000033_Node000051"><a xlink:title=" ">
<path fill="none" stroke="#63b8ff" d="M2727.54,-110.34C2971.4,-83.58 3036.27,-99.35 3277.12,-74.5 3280.1,-74.19 3283.16,-73.85 3286.24,-73.48"/>
<polygon fill="#63b8ff" stroke="#63b8ff" points="2727.22,-106.86 2717.67,-111.44 2727.99,-113.82 2727.22,-106.86"/>
</a>
</g>
</g>
<!-- Node35 -->
<g id="Node000035" class="node">
<title>Node35</title>
<g id="a_Node000035"><a xlink:href="_alphanumeric_selector_8_c.html" target="_top" xlink:title=" ">
<polygon fill="white" stroke="#666666" points="2199.25,-19.25 2079,-19.25 2079,0 2199.25,0 2199.25,-19.25"/>
<text text-anchor="middle" x="2139.12" y="-5.75" font-family="Helvetica,sans-Serif" font-size="10.00">AlphanumericSelector.C</text>
</a>
</g>
</g>
<!-- Node34&#45;&gt;Node35 -->
<g id="edge34_Node000034_Node000035" class="edge">
<title>Node34&#45;&gt;Node35</title>
<g id="a_edge34_Node000034_Node000035"><a xlink:title=" ">
<path fill="none" stroke="#63b8ff" d="M2139.74,-43.63C2139.59,-35.34 2139.42,-26.17 2139.29,-19.61"/>
<polygon fill="#63b8ff" stroke="#63b8ff" points="2136.24,-43.64 2139.93,-53.57 2143.24,-43.5 2136.24,-43.64"/>
</a>
</g>
</g>
<!-- Node37 -->
<g id="Node000037" class="node">
<title>Node37</title>
<g id="a_Node000037"><a xlink:href="_angular_correlation_selector_8_c.html" target="_top" xlink:title=" ">
<polygon fill="white" stroke="#666666" points="2357.38,-19.25 2216.88,-19.25 2216.88,0 2357.38,0 2357.38,-19.25"/>
<text text-anchor="middle" x="2287.12" y="-5.75" font-family="Helvetica,sans-Serif" font-size="10.00">AngularCorrelationSelector.C</text>
</a>
</g>
</g>
<!-- Node36&#45;&gt;Node37 -->
<g id="edge36_Node000036_Node000037" class="edge">
<title>Node36&#45;&gt;Node37</title>
<g id="a_edge36_Node000036_Node000037"><a xlink:title=" ">
<path fill="none" stroke="#63b8ff" d="M2287.74,-43.63C2287.59,-35.34 2287.42,-26.17 2287.29,-19.61"/>
<polygon fill="#63b8ff" stroke="#63b8ff" points="2284.24,-43.64 2287.93,-53.57 2291.24,-43.5 2284.24,-43.64"/>
</a>
</g>
</g>
<!-- Node39 -->
<g id="Node000039" class="node">
<title>Node39</title>
<g id="a_Node000039"><a xlink:href="_cross_talk_8_c.html" target="_top" xlink:title=" ">
<polygon fill="white" stroke="#666666" points="2444.75,-19.25 2375.5,-19.25 2375.5,0 2444.75,0 2444.75,-19.25"/>
<text text-anchor="middle" x="2410.12" y="-5.75" font-family="Helvetica,sans-Serif" font-size="10.00">CrossTalk.C</text>
</a>
</g>
</g>
<!-- Node38&#45;&gt;Node39 -->
<g id="edge38_Node000038_Node000039" class="edge">
<title>Node38&#45;&gt;Node39</title>
<g id="a_edge38_Node000038_Node000039"><a xlink:title=" ">
<path fill="none" stroke="#63b8ff" d="M2410.74,-43.63C2410.59,-35.34 2410.42,-26.17 2410.29,-19.61"/>
<polygon fill="#63b8ff" stroke="#63b8ff" points="2407.24,-43.64 2410.93,-53.57 2414.24,-43.5 2407.24,-43.64"/>
</a>
</g>
</g>
<!-- Node41 -->
<g id="Node000041" class="node">
<title>Node41</title>
<g id="a_Node000041"><a xlink:href="_example_event_selector_8_c.html" target="_top" xlink:title=" ">
<polygon fill="white" stroke="#666666" points="2585.38,-19.25 2462.88,-19.25 2462.88,0 2585.38,0 2585.38,-19.25"/>
<text text-anchor="middle" x="2524.12" y="-5.75" font-family="Helvetica,sans-Serif" font-size="10.00">ExampleEventSelector.C</text>
</a>
</g>
</g>
<!-- Node40&#45;&gt;Node41 -->
<g id="edge40_Node000040_Node000041" class="edge">
<title>Node40&#45;&gt;Node41</title>
<g id="a_edge40_Node000040_Node000041"><a xlink:title=" ">
<path fill="none" stroke="#63b8ff" d="M2524.12,-43.63C2524.12,-35.34 2524.12,-26.17 2524.12,-19.61"/>
<polygon fill="#63b8ff" stroke="#63b8ff" points="2520.63,-43.57 2524.13,-53.57 2527.63,-43.57 2520.63,-43.57"/>
</a>
</g>
</g>
<!-- Node43 -->
<g id="Node000043" class="node">
<title>Node43</title>
<g id="a_Node000043"><a xlink:href="_example_fragment_selector_8_c.html" target="_top" xlink:title=" ">
<polygon fill="white" stroke="#666666" points="2742.62,-19.25 2603.62,-19.25 2603.62,0 2742.62,0 2742.62,-19.25"/>
<text text-anchor="middle" x="2673.12" y="-5.75" font-family="Helvetica,sans-Serif" font-size="10.00">ExampleFragmentSelector.C</text>
</a>
</g>
</g>
<!-- Node42&#45;&gt;Node43 -->
<g id="edge42_Node000042_Node000043" class="edge">
<title>Node42&#45;&gt;Node43</title>
<g id="a_edge42_Node000042_Node000043"><a xlink:title=" ">
<path fill="none" stroke="#63b8ff" d="M2671.89,-43.63C2672.2,-35.34 2672.54,-26.17 2672.79,-19.61"/>
<polygon fill="#63b8ff" stroke="#63b8ff" points="2668.39,-43.45 2671.51,-53.57 2675.39,-43.71 2668.39,-43.45"/>
</a>
</g>
</g>
<!-- Node45 -->
<g id="Node000045" class="node">
<title>Node45</title>
<g id="a_Node000045"><a xlink:href="_example_tree_selector_8_c.html" target="_top" xlink:title=" ">
<polygon fill="white" stroke="#666666" points="2877.75,-19.25 2760.5,-19.25 2760.5,0 2877.75,0 2877.75,-19.25"/>
<text text-anchor="middle" x="2819.12" y="-5.75" font-family="Helvetica,sans-Serif" font-size="10.00">ExampleTreeSelector.C</text>
</a>
</g>
</g>
<!-- Node44&#45;&gt;Node45 -->
<g id="edge44_Node000044_Node000045" class="edge">
<title>Node44&#45;&gt;Node45</title>
<g id="a_edge44_Node000044_Node000045"><a xlink:title=" ">
<path fill="none" stroke="#63b8ff" d="M2817.27,-43.63C2817.73,-35.34 2818.25,-26.17 2818.62,-19.61"/>
<polygon fill="#63b8ff" stroke="#63b8ff" points="2813.77,-43.39 2816.71,-53.57 2820.76,-43.78 2813.77,-43.39"/>
</a>
</g>
</g>
<!-- Node47 -->
<g id="Node000047" class="node">
<title>Node47</title>
<g id="a_Node000047"><a xlink:href="_fast_timing_hist_selector_8_c.html" target="_top" xlink:title=" ">
<polygon fill="white" stroke="#666666" points="3024,-19.25 2896.25,-19.25 2896.25,0 3024,0 3024,-19.25"/>
<text text-anchor="middle" x="2960.12" y="-5.75" font-family="Helvetica,sans-Serif" font-size="10.00">FastTimingHistSelector.C</text>
</a>
</g>
</g>
<!-- Node46&#45;&gt;Node47 -->
<g id="edge46_Node000046_Node000047" class="edge">
<title>Node46&#45;&gt;Node47</title>
<g id="a_edge46_Node000046_Node000047"><a xlink:title=" ">
<path fill="none" stroke="#63b8ff" d="M2957.03,-43.63C2957.8,-35.34 2958.67,-26.17 2959.28,-19.61"/>
<polygon fill="#63b8ff" stroke="#63b8ff" points="2953.54,-43.29 2956.09,-53.57 2960.51,-43.95 2953.54,-43.29"/>
</a>
</g>
</g>
<!-- Node49 -->
<g id="Node000049" class="node">
<title>Node49</title>
<g id="a_Node000049"><a xlink:href="_griffin_k_value_selector_8_c.html" target="_top" xlink:title=" ">
<polygon fill="white" stroke="#666666" points="3159.75,-19.25 3042.5,-19.25 3042.5,0 3159.75,0 3159.75,-19.25"/>
<text text-anchor="middle" x="3101.12" y="-5.75" font-family="Helvetica,sans-Serif" font-size="10.00">GriffinKValueSelector.C</text>
</a>
</g>
</g>
<!-- Node48&#45;&gt;Node49 -->
<g id="edge48_Node000048_Node000049" class="edge">
<title>Node48&#45;&gt;Node49</title>
<g id="a_edge48_Node000048_Node000049"><a xlink:title=" ">
<path fill="none" stroke="#63b8ff" d="M3096.75,-43.92C3097.85,-35.55 3099.07,-26.25 3099.94,-19.61"/>
<polygon fill="#63b8ff" stroke="#63b8ff" points="3093.31,-43.21 3095.48,-53.58 3100.25,-44.12 3093.31,-43.21"/>
</a>
</g>
</g>
<!-- Node52 -->
<g id="Node000052" class="node">
<title>Node52</title>
<g id="a_Node000052"><a xlink:href="_time_walk_selector_8_c.html" target="_top" xlink:title=" ">
<polygon fill="white" stroke="#666666" points="3390.38,-19.25 3285.88,-19.25 3285.88,0 3390.38,0 3390.38,-19.25"/>
<text text-anchor="middle" x="3338.12" y="-5.75" font-family="Helvetica,sans-Serif" font-size="10.00">TimeWalkSelector.C</text>
</a>
</g>
</g>
<!-- Node51&#45;&gt;Node52 -->
<g id="edge51_Node000051_Node000052" class="edge">
<title>Node51&#45;&gt;Node52</title>
<g id="a_edge51_Node000051_Node000052"><a xlink:title=" ">
<path fill="none" stroke="#63b8ff" d="M3338.12,-43.63C3338.12,-35.34 3338.12,-26.17 3338.12,-19.61"/>
<polygon fill="#63b8ff" stroke="#63b8ff" points="3334.63,-43.57 3338.13,-53.57 3341.63,-43.57 3334.63,-43.57"/>
</a>
</g>
</g>
</g>
</svg>

<g id="navigator" transform="translate(0 0)" fill="#404254">
  <rect fill="#f2f5e9" fill-opacity="0.5" stroke="#606060" stroke-width=".5" x="0" y="0" width="60" height="60"/>
  <use id="zoomplus" xlink:href="#zoomPlus" x="17" y="9" onmousedown="handleZoom(evt,'in')"/>
  <use id="zoomminus" xlink:href="#zoomMin" x="42" y="9" onmousedown="handleZoom(evt,'out')"/>
  <use id="reset" xlink:href="#resetDef" x="30" y="36" onmousedown="handleReset()"/>
   <use id="arrowup" xlink:href="#arrowUp" x="0" y="0" onmousedown="handlePan(0,-1)"/>
  <use id="arrowright" xlink:href="#arrowRight" x="0" y="0" onmousedown="handlePan(1,0)"/>
  <use id="arrowdown" xlink:href="#arrowDown" x="0" y="0" onmousedown="handlePan(0,1)"/>
  <use id="arrowleft" xlink:href="#arrowLeft" x="0" y="0" onmousedown="handlePan(-1,0)"/>
</g>
<svg viewBox="0 0 15 15" width="100%" height="30px" preserveAspectRatio="xMaxYMin meet">
 <g id="arrow_out" transform="scale(0.3 0.3)">
  <a xlink:href="_t_g_r_s_i_map_8h__dep__incl_org.svg" target="_base">
   <rect id="button" ry="5" rx="5" y="6" x="6" height="38" width="38"
        fill="#f2f5e9" fill-opacity="0.5" stroke="#606060" stroke-width="1.0"/>
   <path id="arrow"
     d="M 11.500037,31.436501 C 11.940474,20.09759 22.043105,11.32322 32.158766,21.979434 L 37.068811,17.246167 C 37.068811,17.246167 37.088388,32 37.088388,32 L 22.160133,31.978069 C 22.160133,31.978069 26.997745,27.140456 26.997745,27.140456 C 18.528582,18.264221 13.291696,25.230495 11.500037,31.436501 z"
     style="fill:#404040;"/>
  </a>
 </g>
</svg>

<style type='text/css'>
<![CDATA[
[data-mouse-over-selected='false'] { opacity: 0.7; }
[data-mouse-over-selected='true']  { opacity: 1.0; }
]]>
</style>
<script type="application/ecmascript"><![CDATA[
document.addEventListener('DOMContentLoaded', (event) => {
  highlightEdges();
  highlightAdjacentNodes();
});
]]></script>
</svg>
