<?xml version="1.0" encoding="UTF-8" standalone="no"?>
<!DOCTYPE svg PUBLIC "-//W3C//DTD SVG 1.1//EN"
 "http://www.w3.org/Graphics/SVG/1.1/DTD/svg11.dtd">
<!-- Generated by graphviz version 12.2.0 (20241103.1931)
 -->
<!-- Title: TGRSIUtilities.cxx Pages: 1 -->
<svg width="686pt" height="138pt"
 viewBox="0.00 0.00 686.00 137.75" xmlns="http://www.w3.org/2000/svg" xmlns:xlink="http://www.w3.org/1999/xlink">
<g id="graph0" class="graph" transform="scale(1 1) rotate(0) translate(4 133.75)">
<title>TGRSIUtilities.cxx</title>
<!-- Node1 -->
<g id="Node000001" class="node">
<title>Node1</title>
<g id="a_Node000001"><a xlink:title=" ">
<polygon fill="#999999" stroke="#666666" points="366.25,-129.75 270.75,-129.75 270.75,-110.5 366.25,-110.5 366.25,-129.75"/>
<text text-anchor="middle" x="318.5" y="-116.25" font-family="Helvetica,sans-Serif" font-size="10.00">TGRSIUtilities.cxx</text>
</a>
</g>
</g>
<!-- Node2 -->
<g id="Node000002" class="node">
<title>Node2</title>
<g id="a_Node000002"><a xlink:href="_t_g_r_s_i_utilities_8h.html" target="_top" xlink:title=" ">
<polygon fill="white" stroke="#666666" points="134.75,-74.5 48.25,-74.5 48.25,-55.25 134.75,-55.25 134.75,-74.5"/>
<text text-anchor="middle" x="91.5" y="-61" font-family="Helvetica,sans-Serif" font-size="10.00">TGRSIUtilities.h</text>
</a>
</g>
</g>
<!-- Node1&#45;&gt;Node2 -->
<g id="edge1_Node000001_Node000002" class="edge">
<title>Node1&#45;&gt;Node2</title>
<g id="a_edge1_Node000001_Node000002"><a xlink:title=" ">
<path fill="none" stroke="#63b8ff" d="M279.74,-110.03C241.46,-101.05 182.76,-87.28 141.1,-77.51"/>
<polygon fill="#63b8ff" stroke="#63b8ff" points="142.11,-74.15 131.58,-75.28 140.51,-80.97 142.11,-74.15"/>
</a>
</g>
</g>
<!-- Node3 -->
<g id="Node000003" class="node">
<title>Node3</title>
<g id="a_Node000003"><a xlink:title=" ">
<polygon fill="#e0e0e0" stroke="#999999" points="49,-19.25 0,-19.25 0,0 49,0 49,-19.25"/>
<text text-anchor="middle" x="24.5" y="-5.75" font-family="Helvetica,sans-Serif" font-size="10.00">fstream</text>
</a>
</g>
</g>
<!-- Node1&#45;&gt;Node3 -->
<g id="edge8_Node000001_Node000003" class="edge">
<title>Node1&#45;&gt;Node3</title>
<g id="a_edge8_Node000001_Node000003"><a xlink:title=" ">
<path fill="none" stroke="#63b8ff" d="M270.52,-117.73C199.76,-114.66 72.23,-104.95 39.5,-74.5 27.63,-63.46 24.32,-44.95 23.73,-30.69"/>
<polygon fill="#63b8ff" stroke="#63b8ff" points="27.22,-31.07 23.75,-21.07 20.22,-31.06 27.22,-31.07"/>
</a>
</g>
</g>
<!-- Node6 -->
<g id="Node000006" class="node">
<title>Node6</title>
<g id="a_Node000006"><a xlink:title=" ">
<polygon fill="#e0e0e0" stroke="#999999" points="197.75,-74.5 153.25,-74.5 153.25,-55.25 197.75,-55.25 197.75,-74.5"/>
<text text-anchor="middle" x="175.5" y="-61" font-family="Helvetica,sans-Serif" font-size="10.00">cstdlib</text>
</a>
</g>
</g>
<!-- Node1&#45;&gt;Node6 -->
<g id="edge5_Node000001_Node000006" class="edge">
<title>Node1&#45;&gt;Node6</title>
<g id="a_edge5_Node000001_Node000006"><a xlink:title=" ">
<path fill="none" stroke="#63b8ff" d="M294.24,-110.09C270.68,-101.32 234.71,-87.93 208.54,-78.18"/>
<polygon fill="#63b8ff" stroke="#63b8ff" points="210,-74.99 199.41,-74.78 207.56,-81.55 210,-74.99"/>
</a>
</g>
</g>
<!-- Node7 -->
<g id="Node000007" class="node">
<title>Node7</title>
<g id="a_Node000007"><a xlink:title=" ">
<polygon fill="#e0e0e0" stroke="#999999" points="273.5,-74.5 215.5,-74.5 215.5,-55.25 273.5,-55.25 273.5,-74.5"/>
<text text-anchor="middle" x="244.5" y="-61" font-family="Helvetica,sans-Serif" font-size="10.00">sys/stat.h</text>
</a>
</g>
</g>
<!-- Node1&#45;&gt;Node7 -->
<g id="edge6_Node000001_Node000007" class="edge">
<title>Node1&#45;&gt;Node7</title>
<g id="a_edge6_Node000001_Node000007"><a xlink:title=" ">
<path fill="none" stroke="#63b8ff" d="M305.95,-110.09C295.04,-102.24 279,-90.7 266.04,-81.37"/>
<polygon fill="#63b8ff" stroke="#63b8ff" points="268.26,-78.66 258.1,-75.66 264.17,-84.34 268.26,-78.66"/>
</a>
</g>
</g>
<!-- Node8 -->
<g id="Node000008" class="node">
<title>Node8</title>
<g id="a_Node000008"><a xlink:title=" ">
<polygon fill="#e0e0e0" stroke="#999999" points="345.25,-74.5 291.75,-74.5 291.75,-55.25 345.25,-55.25 345.25,-74.5"/>
<text text-anchor="middle" x="318.5" y="-61" font-family="Helvetica,sans-Serif" font-size="10.00">iostream</text>
</a>
</g>
</g>
<!-- Node1&#45;&gt;Node8 -->
<g id="edge7_Node000001_Node000008" class="edge">
<title>Node1&#45;&gt;Node8</title>
<g id="a_edge7_Node000001_Node000008"><a xlink:title=" ">
<path fill="none" stroke="#63b8ff" d="M318.5,-110.33C318.5,-103.82 318.5,-94.67 318.5,-86.37"/>
<polygon fill="#63b8ff" stroke="#63b8ff" points="322,-86.37 318.5,-76.37 315,-86.37 322,-86.37"/>
</a>
</g>
</g>
<!-- Node9 -->
<g id="Node000009" class="node">
<title>Node9</title>
<g id="a_Node000009"><a xlink:title=" ">
<polygon fill="#e0e0e0" stroke="#999999" points="430,-74.5 363,-74.5 363,-55.25 430,-55.25 430,-74.5"/>
<text text-anchor="middle" x="396.5" y="-61" font-family="Helvetica,sans-Serif" font-size="10.00">TObjArray.h</text>
</a>
</g>
</g>
<!-- Node1&#45;&gt;Node9 -->
<g id="edge9_Node000001_Node000009" class="edge">
<title>Node1&#45;&gt;Node9</title>
<g id="a_edge9_Node000001_Node000009"><a xlink:title=" ">
<path fill="none" stroke="#63b8ff" d="M331.73,-110.09C343.27,-102.21 360.27,-90.61 373.95,-81.27"/>
<polygon fill="#63b8ff" stroke="#63b8ff" points="375.67,-84.33 381.95,-75.81 371.72,-78.55 375.67,-84.33"/>
</a>
</g>
</g>
<!-- Node10 -->
<g id="Node000010" class="node">
<title>Node10</title>
<g id="a_Node000010"><a xlink:title=" ">
<polygon fill="#e0e0e0" stroke="#999999" points="518.5,-74.5 448.5,-74.5 448.5,-55.25 518.5,-55.25 518.5,-74.5"/>
<text text-anchor="middle" x="483.5" y="-61" font-family="Helvetica,sans-Serif" font-size="10.00">TObjString.h</text>
</a>
</g>
</g>
<!-- Node1&#45;&gt;Node10 -->
<g id="edge10_Node000001_Node000010" class="edge">
<title>Node1&#45;&gt;Node10</title>
<g id="a_edge10_Node000001_Node000010"><a xlink:title=" ">
<path fill="none" stroke="#63b8ff" d="M346.49,-110.09C373.51,-101.37 414.66,-88.09 444.81,-78.36"/>
<polygon fill="#63b8ff" stroke="#63b8ff" points="445.49,-81.82 453.93,-75.42 443.34,-75.16 445.49,-81.82"/>
</a>
</g>
</g>
<!-- Node11 -->
<g id="Node000011" class="node">
<title>Node11</title>
<g id="a_Node000011"><a xlink:title=" ">
<polygon fill="#e0e0e0" stroke="#999999" points="604.75,-74.5 536.25,-74.5 536.25,-55.25 604.75,-55.25 604.75,-74.5"/>
<text text-anchor="middle" x="570.5" y="-61" font-family="Helvetica,sans-Serif" font-size="10.00">TPRegexp.h</text>
</a>
</g>
</g>
<!-- Node1&#45;&gt;Node11 -->
<g id="edge11_Node000001_Node000011" class="edge">
<title>Node1&#45;&gt;Node11</title>
<g id="a_edge11_Node000001_Node000011"><a xlink:title=" ">
<path fill="none" stroke="#63b8ff" d="M361.53,-110.03C406.89,-100.45 478.07,-85.41 524.51,-75.59"/>
<polygon fill="#63b8ff" stroke="#63b8ff" points="525.21,-79.02 534.27,-73.53 523.77,-72.17 525.21,-79.02"/>
</a>
</g>
</g>
<!-- Node12 -->
<g id="Node000012" class="node">
<title>Node12</title>
<g id="a_Node000012"><a xlink:title=" ">
<polygon fill="#e0e0e0" stroke="#999999" points="678,-74.5 623,-74.5 623,-55.25 678,-55.25 678,-74.5"/>
<text text-anchor="middle" x="650.5" y="-61" font-family="Helvetica,sans-Serif" font-size="10.00">TString.h</text>
</a>
</g>
</g>
<!-- Node1&#45;&gt;Node12 -->
<g id="edge12_Node000001_Node000012" class="edge">
<title>Node1&#45;&gt;Node12</title>
<g id="a_edge12_Node000001_Node000012"><a xlink:title=" ">
<path fill="none" stroke="#63b8ff" d="M366.73,-113.02C423.02,-105.63 519.14,-92.2 611.44,-74.76"/>
<polygon fill="#63b8ff" stroke="#63b8ff" points="612.02,-78.21 621.18,-72.89 610.7,-71.33 612.02,-78.21"/>
</a>
</g>
</g>
<!-- Node2&#45;&gt;Node3 -->
<g id="edge2_Node000002_Node000003" class="edge">
<title>Node2&#45;&gt;Node3</title>
<g id="a_edge2_Node000002_Node000003"><a xlink:title=" ">
<path fill="none" stroke="#63b8ff" d="M80.13,-54.84C70.45,-47.15 56.3,-35.9 44.69,-26.68"/>
<polygon fill="#63b8ff" stroke="#63b8ff" points="46.89,-23.95 36.88,-20.47 42.53,-29.43 46.89,-23.95"/>
</a>
</g>
</g>
<!-- Node4 -->
<g id="Node000004" class="node">
<title>Node4</title>
<g id="a_Node000004"><a xlink:title=" ">
<polygon fill="#e0e0e0" stroke="#999999" points="109.5,-19.25 69.5,-19.25 69.5,0 109.5,0 109.5,-19.25"/>
<text text-anchor="middle" x="89.5" y="-5.75" font-family="Helvetica,sans-Serif" font-size="10.00">string</text>
</a>
</g>
</g>
<!-- Node2&#45;&gt;Node4 -->
<g id="edge3_Node000002_Node000004" class="edge">
<title>Node2&#45;&gt;Node4</title>
<g id="a_edge3_Node000002_Node000004"><a xlink:title=" ">
<path fill="none" stroke="#63b8ff" d="M91.17,-55.08C90.92,-48.49 90.57,-39.21 90.26,-30.82"/>
<polygon fill="#63b8ff" stroke="#63b8ff" points="93.77,-30.98 89.89,-21.12 86.77,-31.25 93.77,-30.98"/>
</a>
</g>
</g>
<!-- Node5 -->
<g id="Node000005" class="node">
<title>Node5</title>
<g id="a_Node000005"><a xlink:title=" ">
<polygon fill="#e0e0e0" stroke="#999999" points="171,-19.25 128,-19.25 128,0 171,0 171,-19.25"/>
<text text-anchor="middle" x="149.5" y="-5.75" font-family="Helvetica,sans-Serif" font-size="10.00">vector</text>
</a>
</g>
</g>
<!-- Node2&#45;&gt;Node5 -->
<g id="edge4_Node000002_Node000005" class="edge">
<title>Node2&#45;&gt;Node5</title>
<g id="a_edge4_Node000002_Node000005"><a xlink:title=" ">
<path fill="none" stroke="#63b8ff" d="M101.34,-54.84C109.55,-47.3 121.48,-36.35 131.41,-27.23"/>
<polygon fill="#63b8ff" stroke="#63b8ff" points="133.69,-29.89 138.69,-20.55 128.96,-24.73 133.69,-29.89"/>
</a>
</g>
</g>
</g>
</svg>
