<?xml version="1.0" encoding="UTF-8" standalone="no"?>
<!DOCTYPE svg PUBLIC "-//W3C//DTD SVG 1.1//EN"
 "http://www.w3.org/Graphics/SVG/1.1/DTD/svg11.dtd">
<!-- Generated by graphviz version 12.2.0 (20241103.1931)
 -->
<!-- Title: TGriffinHit.h Pages: 1 -->
<!--zoomable 193 -->

<svg id="main" version="1.1" xmlns="http://www.w3.org/2000/svg" xmlns:xlink="http://www.w3.org/1999/xlink" xml:space="preserve" onload="init(evt)">

<style type="text/css"><![CDATA[
.node, .edge {opacity: 0.7;}
.node.selected, .edge.selected {opacity: 1;}
.edge:hover path { stroke: red; }
.edge:hover polygon { stroke: red; fill: red; }
]]></style>

<defs>
  <circle id="rim" cx="0" cy="0" r="7"/>
  <circle id="rim2" cx="0" cy="0" r="3.5"/>
  <g id="zoomPlus">
    <use xlink:href="#rim" fill="#404040"><set attributeName="fill" to="#808080" begin="zoomplus.mouseover" end="zoomplus.mouseout"/></use>
    <path d="M-4,0h8M0,-4v8" fill="none" stroke="white" stroke-width="1.5" pointer-events="none"/>
  </g>
  <g id="zoomMin">
    <use xlink:href="#rim" fill="#404040"><set attributeName="fill" to="#808080" begin="zoomminus.mouseover" end="zoomminus.mouseout"/></use>
    <path d="M-4,0h8" fill="none" stroke="white" stroke-width="1.5" pointer-events="none"/>
  </g>
  <g id="arrowUp" transform="translate(30 24)">
    <use xlink:href="#rim"/>
    <path pointer-events="none" fill="none" stroke="white" stroke-width="1.5" d="M0,-3.0v7 M-2.5,-0.5L0,-3.0L2.5,-0.5"/>
  </g>
  <g id="arrowRight" transform="rotate(90) translate(36 -43)">
    <use xlink:href="#rim"/>
    <path pointer-events="none" fill="none" stroke="white" stroke-width="1.5" d="M0,-3.0v7 M-2.5,-0.5L0,-3.0L2.5,-0.5"/>
  </g>
  <g id="arrowDown" transform="rotate(180) translate(-30 -48)">
    <use xlink:href="#rim"/>
    <path pointer-events="none" fill="none" stroke="white" stroke-width="1.5" d="M0,-3.0v7 M-2.5,-0.5L0,-3.0L2.5,-0.5"/>
  </g>
  <g id="arrowLeft" transform="rotate(270) translate(-36 17)">
    <use xlink:href="#rim"/>
    <path pointer-events="none" fill="none" stroke="white" stroke-width="1.5" d="M0,-3.0v7 M-2.5,-0.5L0,-3.0L2.5,-0.5"/>
  </g>
  <g id="resetDef">
    <use xlink:href="#rim2" fill="#404040"><set attributeName="fill" to="#808080" begin="reset.mouseover" end="reset.mouseout"/></use>
  </g>
</defs>
<script type="application/ecmascript">
var viewWidth = 3588;
var viewHeight = 193;
var sectionId = 'dynsection-1';
</script>
<script type="application/ecmascript" xlink:href="svg.min.js"/>
<svg id="graph" class="graph">
<g id="viewport">
<title>TGriffinHit.h</title>
<!-- Node1 -->
<g id="Node000001" class="node">
<title>Node1</title>
<g id="a_Node000001"><a xlink:title=" ">
<polygon fill="#999999" stroke="#666666" points="1910.25,-185 1843.25,-185 1843.25,-165.75 1910.25,-165.75 1910.25,-185"/>
<text text-anchor="middle" x="1876.75" y="-171.5" font-family="Helvetica,sans-Serif" font-size="10.00">TGriffinHit.h</text>
</a>
</g>
</g>
<!-- Node2 -->
<g id="Node000002" class="node">
<title>Node2</title>
<g id="a_Node000002"><a xlink:href="_gain_match_g_r_i_f_f_i_n_8cxx.html" target="_top" xlink:title=" ">
<polygon fill="white" stroke="#666666" points="119.5,-74.5 0,-74.5 0,-55.25 119.5,-55.25 119.5,-74.5"/>
<text text-anchor="middle" x="59.75" y="-61" font-family="Helvetica,sans-Serif" font-size="10.00">GainMatchGRIFFIN.cxx</text>
</a>
</g>
</g>
<!-- Node1&#45;&gt;Node2 -->
<g id="edge1_Node000001_Node000002" class="edge">
<title>Node1&#45;&gt;Node2</title>
<g id="a_edge1_Node000001_Node000002"><a xlink:title=" ">
<path fill="none" stroke="#63b8ff" d="M1831.57,-172.91C1631.41,-166.2 804.72,-135.99 128.75,-74.5 125.86,-74.24 122.91,-73.95 119.93,-73.64"/>
<polygon fill="#63b8ff" stroke="#63b8ff" points="1831.15,-176.4 1841.26,-173.24 1831.39,-169.4 1831.15,-176.4"/>
</a>
</g>
</g>
<!-- Node3 -->
<g id="Node000003" class="node">
<title>Node3</title>
<g id="a_Node000003"><a xlink:href="_t_griffin_8h.html" target="_top" xlink:title=" ">
<polygon fill="white" stroke="#666666" points="1903.88,-129.75 1849.62,-129.75 1849.62,-110.5 1903.88,-110.5 1903.88,-129.75"/>
<text text-anchor="middle" x="1876.75" y="-116.25" font-family="Helvetica,sans-Serif" font-size="10.00">TGriffin.h</text>
</a>
</g>
</g>
<!-- Node1&#45;&gt;Node3 -->
<g id="edge2_Node000001_Node000003" class="edge">
<title>Node1&#45;&gt;Node3</title>
<g id="a_edge2_Node000001_Node000003"><a xlink:title=" ">
<path fill="none" stroke="#63b8ff" d="M1876.75,-154.13C1876.75,-145.84 1876.75,-136.67 1876.75,-130.11"/>
<polygon fill="#63b8ff" stroke="#63b8ff" points="1873.25,-154.07 1876.75,-164.07 1880.25,-154.07 1873.25,-154.07"/>
</a>
</g>
</g>
<!-- Node41 -->
<g id="Node000041" class="node">
<title>Node41</title>
<g id="a_Node000041"><a xlink:href="_t_griffin_hit_8cxx.html" target="_top" xlink:title=" ">
<polygon fill="white" stroke="#666666" points="3579.75,-74.5 3503.75,-74.5 3503.75,-55.25 3579.75,-55.25 3579.75,-74.5"/>
<text text-anchor="middle" x="3541.75" y="-61" font-family="Helvetica,sans-Serif" font-size="10.00">TGriffinHit.cxx</text>
</a>
</g>
</g>
<!-- Node1&#45;&gt;Node41 -->
<g id="edge48_Node000001_Node000041" class="edge">
<title>Node1&#45;&gt;Node41</title>
<g id="a_edge48_Node000001_Node000041"><a xlink:title=" ">
<path fill="none" stroke="#63b8ff" d="M1921.71,-173.57C2112.57,-169.75 2874.29,-150.3 3494.75,-74.5 3497.55,-74.16 3500.43,-73.75 3503.33,-73.31"/>
<polygon fill="#63b8ff" stroke="#63b8ff" points="1921.93,-170.07 1912,-173.76 1922.06,-177.07 1921.93,-170.07"/>
</a>
</g>
</g>
<!-- Node3&#45;&gt;Node2 -->
<g id="edge32_Node000003_Node000002" class="edge">
<title>Node3&#45;&gt;Node2</title>
<g id="a_edge32_Node000003_Node000002"><a xlink:title=" ">
<path fill="none" stroke="#63b8ff" d="M1837.87,-118.66C1613.03,-115.86 477.28,-100.67 128.75,-74.5 125.86,-74.28 122.91,-74.03 119.93,-73.75"/>
<polygon fill="#63b8ff" stroke="#63b8ff" points="1837.79,-122.16 1847.83,-118.78 1837.87,-115.16 1837.79,-122.16"/>
</a>
</g>
</g>
<!-- Node4 -->
<g id="Node000004" class="node">
<title>Node4</title>
<g id="a_Node000004"><a xlink:href="_alphanumeric_helper_8hh.html" target="_top" xlink:title=" ">
<polygon fill="white" stroke="#666666" points="254,-74.5 137.5,-74.5 137.5,-55.25 254,-55.25 254,-74.5"/>
<text text-anchor="middle" x="195.75" y="-61" font-family="Helvetica,sans-Serif" font-size="10.00">AlphanumericHelper.hh</text>
</a>
</g>
</g>
<!-- Node3&#45;&gt;Node4 -->
<g id="edge3_Node000003_Node000004" class="edge">
<title>Node3&#45;&gt;Node4</title>
<g id="a_edge3_Node000003_Node000004"><a xlink:title=" ">
<path fill="none" stroke="#63b8ff" d="M1837.9,-119.46C1658.31,-120.71 890.72,-122.82 263.75,-74.5 260.67,-74.26 257.51,-73.98 254.32,-73.68"/>
<polygon fill="#63b8ff" stroke="#63b8ff" points="1837.85,-122.96 1847.82,-119.39 1837.8,-115.96 1837.85,-122.96"/>
</a>
</g>
</g>
<!-- Node6 -->
<g id="Node000006" class="node">
<title>Node6</title>
<g id="a_Node000006"><a xlink:href="_alphanumeric_selector_8h.html" target="_top" xlink:title=" ">
<polygon fill="white" stroke="#666666" points="391.12,-74.5 272.38,-74.5 272.38,-55.25 391.12,-55.25 391.12,-74.5"/>
<text text-anchor="middle" x="331.75" y="-61" font-family="Helvetica,sans-Serif" font-size="10.00">AlphanumericSelector.h</text>
</a>
</g>
</g>
<!-- Node3&#45;&gt;Node6 -->
<g id="edge5_Node000003_Node000006" class="edge">
<title>Node3&#45;&gt;Node6</title>
<g id="a_edge5_Node000003_Node000006"><a xlink:title=" ">
<path fill="none" stroke="#63b8ff" d="M1838.24,-119.29C1668.6,-119.74 971.11,-118.67 400.75,-74.5 397.74,-74.27 394.66,-74 391.55,-73.7"/>
<polygon fill="#63b8ff" stroke="#63b8ff" points="1838.03,-122.79 1848.02,-119.26 1838.01,-115.79 1838.03,-122.79"/>
</a>
</g>
</g>
<!-- Node8 -->
<g id="Node000008" class="node">
<title>Node8</title>
<g id="a_Node000008"><a xlink:href="_angular_correlation_helper_8hh.html" target="_top" xlink:title=" ">
<polygon fill="white" stroke="#666666" points="546.12,-74.5 409.38,-74.5 409.38,-55.25 546.12,-55.25 546.12,-74.5"/>
<text text-anchor="middle" x="477.75" y="-61" font-family="Helvetica,sans-Serif" font-size="10.00">AngularCorrelationHelper.hh</text>
</a>
</g>
</g>
<!-- Node3&#45;&gt;Node8 -->
<g id="edge7_Node000003_Node000008" class="edge">
<title>Node3&#45;&gt;Node8</title>
<g id="a_edge7_Node000003_Node000008"><a xlink:title=" ">
<path fill="none" stroke="#63b8ff" d="M1838.22,-118.92C1679.58,-117.84 1061.42,-111.37 554.75,-74.5 552.07,-74.3 549.33,-74.09 546.57,-73.85"/>
<polygon fill="#63b8ff" stroke="#63b8ff" points="1837.72,-122.42 1847.74,-118.98 1837.77,-115.42 1837.72,-122.42"/>
</a>
</g>
</g>
<!-- Node10 -->
<g id="Node000010" class="node">
<title>Node10</title>
<g id="a_Node000010"><a xlink:href="_angular_correlation_selector_8h.html" target="_top" xlink:title=" ">
<polygon fill="white" stroke="#666666" points="703.25,-74.5 564.25,-74.5 564.25,-55.25 703.25,-55.25 703.25,-74.5"/>
<text text-anchor="middle" x="633.75" y="-61" font-family="Helvetica,sans-Serif" font-size="10.00">AngularCorrelationSelector.h</text>
</a>
</g>
</g>
<!-- Node3&#45;&gt;Node10 -->
<g id="edge9_Node000003_Node000010" class="edge">
<title>Node3&#45;&gt;Node10</title>
<g id="a_edge9_Node000003_Node000010"><a xlink:title=" ">
<path fill="none" stroke="#63b8ff" d="M1837.68,-118.65C1690.16,-116.62 1153,-107.3 711.75,-74.5 709.03,-74.3 706.26,-74.07 703.47,-73.84"/>
<polygon fill="#63b8ff" stroke="#63b8ff" points="1837.63,-122.15 1847.68,-118.78 1837.72,-115.15 1837.63,-122.15"/>
</a>
</g>
</g>
<!-- Node12 -->
<g id="Node000012" class="node">
<title>Node12</title>
<g id="a_Node000012"><a xlink:href="_compton_polarimetry_helper_8hh.html" target="_top" xlink:title=" ">
<polygon fill="white" stroke="#666666" points="866.25,-74.5 721.25,-74.5 721.25,-55.25 866.25,-55.25 866.25,-74.5"/>
<text text-anchor="middle" x="793.75" y="-61" font-family="Helvetica,sans-Serif" font-size="10.00">ComptonPolarimetryHelper.hh</text>
</a>
</g>
</g>
<!-- Node3&#45;&gt;Node12 -->
<g id="edge11_Node000003_Node000012" class="edge">
<title>Node3&#45;&gt;Node12</title>
<g id="a_edge11_Node000003_Node000012"><a xlink:title=" ">
<path fill="none" stroke="#63b8ff" d="M1837.99,-118.26C1704.19,-115.08 1249.35,-102.76 874.75,-74.5 872.07,-74.3 869.34,-74.08 866.59,-73.84"/>
<polygon fill="#63b8ff" stroke="#63b8ff" points="1837.63,-121.75 1847.7,-118.49 1837.79,-114.75 1837.63,-121.75"/>
</a>
</g>
</g>
<!-- Node14 -->
<g id="Node000014" class="node">
<title>Node14</title>
<g id="a_Node000014"><a xlink:href="_cross_talk_8h.html" target="_top" xlink:title=" ">
<polygon fill="white" stroke="#666666" points="951.62,-74.5 883.88,-74.5 883.88,-55.25 951.62,-55.25 951.62,-74.5"/>
<text text-anchor="middle" x="917.75" y="-61" font-family="Helvetica,sans-Serif" font-size="10.00">CrossTalk.h</text>
</a>
</g>
</g>
<!-- Node3&#45;&gt;Node14 -->
<g id="edge13_Node000003_Node000014" class="edge">
<title>Node3&#45;&gt;Node14</title>
<g id="a_edge13_Node000003_Node000014"><a xlink:title=" ">
<path fill="none" stroke="#63b8ff" d="M1837.91,-119.3C1711.22,-119.43 1298.65,-116.38 960.75,-74.5 957.88,-74.14 954.91,-73.7 951.94,-73.21"/>
<polygon fill="#63b8ff" stroke="#63b8ff" points="1837.76,-122.8 1847.76,-119.28 1837.75,-115.8 1837.76,-122.8"/>
</a>
</g>
</g>
<!-- Node16 -->
<g id="Node000016" class="node">
<title>Node16</title>
<g id="a_Node000016"><a xlink:href="_cross_talk_helper_8hh.html" target="_top" xlink:title=" ">
<polygon fill="white" stroke="#666666" points="1071.5,-74.5 970,-74.5 970,-55.25 1071.5,-55.25 1071.5,-74.5"/>
<text text-anchor="middle" x="1020.75" y="-61" font-family="Helvetica,sans-Serif" font-size="10.00">CrossTalkHelper.hh</text>
</a>
</g>
</g>
<!-- Node3&#45;&gt;Node16 -->
<g id="edge15_Node000003_Node000016" class="edge">
<title>Node3&#45;&gt;Node16</title>
<g id="a_edge15_Node000003_Node000016"><a xlink:title=" ">
<path fill="none" stroke="#63b8ff" d="M1837.81,-118.14C1722.16,-114.95 1370.74,-103.42 1080.75,-74.5 1077.82,-74.21 1074.81,-73.88 1071.78,-73.52"/>
<polygon fill="#63b8ff" stroke="#63b8ff" points="1837.58,-121.63 1847.67,-118.41 1837.77,-114.64 1837.58,-121.63"/>
</a>
</g>
</g>
<!-- Node18 -->
<g id="Node000018" class="node">
<title>Node18</title>
<g id="a_Node000018"><a xlink:href="_deadtime_8cxx.html" target="_top" xlink:title=" ">
<polygon fill="white" stroke="#666666" points="1163.62,-74.5 1089.88,-74.5 1089.88,-55.25 1163.62,-55.25 1163.62,-74.5"/>
<text text-anchor="middle" x="1126.75" y="-61" font-family="Helvetica,sans-Serif" font-size="10.00">Deadtime.cxx</text>
</a>
</g>
</g>
<!-- Node3&#45;&gt;Node18 -->
<g id="edge17_Node000003_Node000018" class="edge">
<title>Node3&#45;&gt;Node18</title>
<g id="a_edge17_Node000003_Node000018"><a xlink:title=" ">
<path fill="none" stroke="#63b8ff" d="M1837.68,-118.32C1730.82,-115.76 1424.91,-106.01 1172.75,-74.5 1169.93,-74.15 1167.02,-73.73 1164.1,-73.27"/>
<polygon fill="#63b8ff" stroke="#63b8ff" points="1837.54,-121.82 1847.62,-118.55 1837.7,-114.82 1837.54,-121.82"/>
</a>
</g>
</g>
<!-- Node19 -->
<g id="Node000019" class="node">
<title>Node19</title>
<g id="a_Node000019"><a xlink:href="_directory_helper_8hh.html" target="_top" xlink:title=" ">
<polygon fill="white" stroke="#666666" points="1277.5,-74.5 1182,-74.5 1182,-55.25 1277.5,-55.25 1277.5,-74.5"/>
<text text-anchor="middle" x="1229.75" y="-61" font-family="Helvetica,sans-Serif" font-size="10.00">DirectoryHelper.hh</text>
</a>
</g>
</g>
<!-- Node3&#45;&gt;Node19 -->
<g id="edge18_Node000003_Node000019" class="edge">
<title>Node3&#45;&gt;Node19</title>
<g id="a_edge18_Node000003_Node000019"><a xlink:title=" ">
<path fill="none" stroke="#63b8ff" d="M1838.09,-117.2C1743.7,-112.29 1494.02,-97.99 1286.75,-74.5 1283.87,-74.17 1280.9,-73.81 1277.92,-73.42"/>
<polygon fill="#63b8ff" stroke="#63b8ff" points="1837.65,-120.68 1847.82,-117.7 1838.01,-113.69 1837.65,-120.68"/>
</a>
</g>
</g>
<!-- Node21 -->
<g id="Node000021" class="node">
<title>Node21</title>
<g id="a_Node000021"><a xlink:href="_efficiency_helper_8hh.html" target="_top" xlink:title=" ">
<polygon fill="white" stroke="#666666" points="1393.62,-74.5 1295.88,-74.5 1295.88,-55.25 1393.62,-55.25 1393.62,-74.5"/>
<text text-anchor="middle" x="1344.75" y="-61" font-family="Helvetica,sans-Serif" font-size="10.00">EfficiencyHelper.hh</text>
</a>
</g>
</g>
<!-- Node3&#45;&gt;Node21 -->
<g id="edge20_Node000003_Node000021" class="edge">
<title>Node3&#45;&gt;Node21</title>
<g id="a_edge20_Node000003_Node000021"><a xlink:title=" ">
<path fill="none" stroke="#63b8ff" d="M1837.82,-116.17C1756.73,-109.87 1563.89,-94.05 1402.75,-74.5 1399.92,-74.16 1397.02,-73.79 1394.09,-73.4"/>
<polygon fill="#63b8ff" stroke="#63b8ff" points="1837.43,-119.65 1847.67,-116.93 1837.97,-112.67 1837.43,-119.65"/>
</a>
</g>
</g>
<!-- Node23 -->
<g id="Node000023" class="node">
<title>Node23</title>
<g id="a_Node000023"><a xlink:href="_example_event_helper_8hh.html" target="_top" xlink:title=" ">
<polygon fill="white" stroke="#666666" points="1530.12,-74.5 1411.38,-74.5 1411.38,-55.25 1530.12,-55.25 1530.12,-74.5"/>
<text text-anchor="middle" x="1470.75" y="-61" font-family="Helvetica,sans-Serif" font-size="10.00">ExampleEventHelper.hh</text>
</a>
</g>
</g>
<!-- Node3&#45;&gt;Node23 -->
<g id="edge22_Node000003_Node000023" class="edge">
<title>Node3&#45;&gt;Node23</title>
<g id="a_edge22_Node000003_Node000023"><a xlink:title=" ">
<path fill="none" stroke="#63b8ff" d="M1838.05,-114.05C1766.87,-104.71 1614.74,-84.76 1530.31,-73.69"/>
<polygon fill="#63b8ff" stroke="#63b8ff" points="1837.29,-117.48 1847.66,-115.31 1838.2,-110.54 1837.29,-117.48"/>
</a>
</g>
</g>
<!-- Node25 -->
<g id="Node000025" class="node">
<title>Node25</title>
<g id="a_Node000025"><a xlink:href="_example_event_selector_8h.html" target="_top" xlink:title=" ">
<polygon fill="white" stroke="#666666" points="1669.25,-74.5 1548.25,-74.5 1548.25,-55.25 1669.25,-55.25 1669.25,-74.5"/>
<text text-anchor="middle" x="1608.75" y="-61" font-family="Helvetica,sans-Serif" font-size="10.00">ExampleEventSelector.h</text>
</a>
</g>
</g>
<!-- Node3&#45;&gt;Node25 -->
<g id="edge24_Node000003_Node000025" class="edge">
<title>Node3&#45;&gt;Node25</title>
<g id="a_edge24_Node000003_Node000025"><a xlink:title=" ">
<path fill="none" stroke="#63b8ff" d="M1838.3,-111.48C1789.66,-101.82 1706.01,-85.2 1654.25,-74.91"/>
<polygon fill="#63b8ff" stroke="#63b8ff" points="1837.6,-114.92 1848.09,-113.43 1838.97,-108.05 1837.6,-114.92"/>
</a>
</g>
</g>
<!-- Node27 -->
<g id="Node000027" class="node">
<title>Node27</title>
<g id="a_Node000027"><a xlink:href="_example_tree_helper_8hh.html" target="_top" xlink:title=" ">
<polygon fill="white" stroke="#666666" points="1800.5,-74.5 1687,-74.5 1687,-55.25 1800.5,-55.25 1800.5,-74.5"/>
<text text-anchor="middle" x="1743.75" y="-61" font-family="Helvetica,sans-Serif" font-size="10.00">ExampleTreeHelper.hh</text>
</a>
</g>
</g>
<!-- Node3&#45;&gt;Node27 -->
<g id="edge26_Node000003_Node000027" class="edge">
<title>Node3&#45;&gt;Node27</title>
<g id="a_edge26_Node000003_Node000027"><a xlink:title=" ">
<path fill="none" stroke="#63b8ff" d="M1843.75,-105.91C1819.68,-96.27 1787.67,-83.46 1766.42,-74.95"/>
<polygon fill="#63b8ff" stroke="#63b8ff" points="1842.2,-109.06 1852.78,-109.53 1844.8,-102.56 1842.2,-109.06"/>
</a>
</g>
</g>
<!-- Node29 -->
<g id="Node000029" class="node">
<title>Node29</title>
<g id="a_Node000029"><a xlink:href="_example_tree_selector_8h.html" target="_top" xlink:title=" ">
<polygon fill="white" stroke="#666666" points="1934.62,-74.5 1818.88,-74.5 1818.88,-55.25 1934.62,-55.25 1934.62,-74.5"/>
<text text-anchor="middle" x="1876.75" y="-61" font-family="Helvetica,sans-Serif" font-size="10.00">ExampleTreeSelector.h</text>
</a>
</g>
</g>
<!-- Node3&#45;&gt;Node29 -->
<g id="edge28_Node000003_Node000029" class="edge">
<title>Node3&#45;&gt;Node29</title>
<g id="a_edge28_Node000003_Node000029"><a xlink:title=" ">
<path fill="none" stroke="#63b8ff" d="M1876.75,-98.88C1876.75,-90.59 1876.75,-81.42 1876.75,-74.86"/>
<polygon fill="#63b8ff" stroke="#63b8ff" points="1873.25,-98.82 1876.75,-108.82 1880.25,-98.82 1873.25,-98.82"/>
</a>
</g>
</g>
<!-- Node31 -->
<g id="Node000031" class="node">
<title>Node31</title>
<g id="a_Node000031"><a xlink:href="_fast_timing_hist_selector_8h.html" target="_top" xlink:title=" ">
<polygon fill="white" stroke="#666666" points="2078.88,-74.5 1952.62,-74.5 1952.62,-55.25 2078.88,-55.25 2078.88,-74.5"/>
<text text-anchor="middle" x="2015.75" y="-61" font-family="Helvetica,sans-Serif" font-size="10.00">FastTimingHistSelector.h</text>
</a>
</g>
</g>
<!-- Node3&#45;&gt;Node31 -->
<g id="edge30_Node000003_Node000031" class="edge">
<title>Node3&#45;&gt;Node31</title>
<g id="a_edge30_Node000003_Node000031"><a xlink:title=" ">
<path fill="none" stroke="#63b8ff" d="M1910.9,-106.04C1936.1,-96.39 1969.75,-83.5 1992.05,-74.95"/>
<polygon fill="#63b8ff" stroke="#63b8ff" points="1909.83,-102.7 1901.74,-109.55 1912.33,-109.24 1909.83,-102.7"/>
</a>
</g>
</g>
<!-- Node33 -->
<g id="Node000033" class="node">
<title>Node33</title>
<g id="a_Node000033"><a xlink:href="_get_tree_entries_8cxx.html" target="_top" xlink:title=" ">
<polygon fill="white" stroke="#666666" points="2194.62,-74.5 2096.88,-74.5 2096.88,-55.25 2194.62,-55.25 2194.62,-74.5"/>
<text text-anchor="middle" x="2145.75" y="-61" font-family="Helvetica,sans-Serif" font-size="10.00">GetTreeEntries.cxx</text>
</a>
</g>
</g>
<!-- Node3&#45;&gt;Node33 -->
<g id="edge33_Node000003_Node000033" class="edge">
<title>Node3&#45;&gt;Node33</title>
<g id="a_edge33_Node000003_Node000033"><a xlink:title=" ">
<path fill="none" stroke="#63b8ff" d="M1915.27,-111.5C1963.96,-101.86 2047.68,-85.29 2099.69,-74.99"/>
<polygon fill="#63b8ff" stroke="#63b8ff" points="1914.89,-108.01 1905.76,-113.38 1916.25,-114.87 1914.89,-108.01"/>
</a>
</g>
</g>
<!-- Node34 -->
<g id="Node000034" class="node">
<title>Node34</title>
<g id="a_Node000034"><a xlink:href="_griffin_c_t_fix_8cxx.html" target="_top" xlink:title=" ">
<polygon fill="white" stroke="#666666" points="2295.12,-74.5 2212.38,-74.5 2212.38,-55.25 2295.12,-55.25 2295.12,-74.5"/>
<text text-anchor="middle" x="2253.75" y="-61" font-family="Helvetica,sans-Serif" font-size="10.00">GriffinCTFix.cxx</text>
</a>
</g>
</g>
<!-- Node3&#45;&gt;Node34 -->
<g id="edge34_Node000003_Node000034" class="edge">
<title>Node3&#45;&gt;Node34</title>
<g id="a_edge34_Node000003_Node000034"><a xlink:title=" ">
<path fill="none" stroke="#63b8ff" d="M1915.41,-114.3C1976.67,-106.55 2099.75,-90.56 2203.75,-74.5 2206.45,-74.08 2209.23,-73.64 2212.03,-73.19"/>
<polygon fill="#63b8ff" stroke="#63b8ff" points="1915.34,-110.78 1905.86,-115.5 1916.22,-117.72 1915.34,-110.78"/>
</a>
</g>
</g>
<!-- Node35 -->
<g id="Node000035" class="node">
<title>Node35</title>
<g id="a_Node000035"><a xlink:href="_lean_compton_matrices_8cxx.html" target="_top" xlink:title=" ">
<polygon fill="white" stroke="#666666" points="2444.12,-74.5 2313.38,-74.5 2313.38,-55.25 2444.12,-55.25 2444.12,-74.5"/>
<text text-anchor="middle" x="2378.75" y="-61" font-family="Helvetica,sans-Serif" font-size="10.00">LeanComptonMatrices.cxx</text>
</a>
</g>
</g>
<!-- Node3&#45;&gt;Node35 -->
<g id="edge35_Node000003_Node000035" class="edge">
<title>Node3&#45;&gt;Node35</title>
<g id="a_edge35_Node000003_Node000035"><a xlink:title=" ">
<path fill="none" stroke="#63b8ff" d="M1915.43,-115.22C1990.38,-107.62 2160.63,-90.21 2303.75,-74.5 2306.75,-74.17 2309.81,-73.83 2312.9,-73.49"/>
<polygon fill="#63b8ff" stroke="#63b8ff" points="1915.34,-111.71 1905.74,-116.2 1916.04,-118.67 1915.34,-111.71"/>
</a>
</g>
</g>
<!-- Node36 -->
<g id="Node000036" class="node">
<title>Node36</title>
<g id="a_Node000036"><a xlink:href="_make_griffin_histograms_8cxx.html" target="_top" xlink:title=" ">
<polygon fill="white" stroke="#666666" points="2593.5,-74.5 2462,-74.5 2462,-55.25 2593.5,-55.25 2593.5,-74.5"/>
<text text-anchor="middle" x="2527.75" y="-61" font-family="Helvetica,sans-Serif" font-size="10.00">MakeGriffinHistograms.cxx</text>
</a>
</g>
</g>
<!-- Node3&#45;&gt;Node36 -->
<g id="edge36_Node000003_Node000036" class="edge">
<title>Node3&#45;&gt;Node36</title>
<g id="a_edge36_Node000003_Node000036"><a xlink:title=" ">
<path fill="none" stroke="#63b8ff" d="M1915.71,-116.61C2008.71,-110.49 2250.94,-93.92 2452.75,-74.5 2455.62,-74.22 2458.55,-73.93 2461.51,-73.63"/>
<polygon fill="#63b8ff" stroke="#63b8ff" points="1915.62,-113.11 1905.87,-117.25 1916.08,-120.09 1915.62,-113.11"/>
</a>
</g>
</g>
<!-- Node37 -->
<g id="Node000037" class="node">
<title>Node37</title>
<g id="a_Node000037"><a xlink:href="_t_angular_correlation_8cxx.html" target="_top" xlink:title=" ">
<polygon fill="white" stroke="#666666" points="2729.75,-74.5 2611.75,-74.5 2611.75,-55.25 2729.75,-55.25 2729.75,-74.5"/>
<text text-anchor="middle" x="2670.75" y="-61" font-family="Helvetica,sans-Serif" font-size="10.00">TAngularCorrelation.cxx</text>
</a>
</g>
</g>
<!-- Node3&#45;&gt;Node37 -->
<g id="edge37_Node000003_Node000037" class="edge">
<title>Node3&#45;&gt;Node37</title>
<g id="a_edge37_Node000003_Node000037"><a xlink:title=" ">
<path fill="none" stroke="#63b8ff" d="M1915.48,-117.63C2024.09,-113.24 2340.69,-99.15 2602.75,-74.5 2605.59,-74.23 2608.5,-73.94 2611.44,-73.63"/>
<polygon fill="#63b8ff" stroke="#63b8ff" points="1915.53,-114.12 1905.67,-118.02 1915.8,-121.12 1915.53,-114.12"/>
</a>
</g>
</g>
<!-- Node38 -->
<g id="Node000038" class="node">
<title>Node38</title>
<g id="a_Node000038"><a xlink:href="_t_g_r_s_i_mnemonic_8cxx.html" target="_top" xlink:title=" ">
<polygon fill="white" stroke="#666666" points="2855.5,-74.5 2748,-74.5 2748,-55.25 2855.5,-55.25 2855.5,-74.5"/>
<text text-anchor="middle" x="2801.75" y="-61" font-family="Helvetica,sans-Serif" font-size="10.00">TGRSIMnemonic.cxx</text>
</a>
</g>
</g>
<!-- Node3&#45;&gt;Node38 -->
<g id="edge38_Node000003_Node000038" class="edge">
<title>Node3&#45;&gt;Node38</title>
<g id="a_edge38_Node000003_Node000038"><a xlink:title=" ">
<path fill="none" stroke="#63b8ff" d="M1915.62,-118.28C2037.33,-115.39 2421.82,-104.34 2738.75,-74.5 2741.72,-74.22 2744.76,-73.9 2747.83,-73.56"/>
<polygon fill="#63b8ff" stroke="#63b8ff" points="1915.78,-114.78 1905.86,-118.51 1915.94,-121.77 1915.78,-114.78"/>
</a>
</g>
</g>
<!-- Node39 -->
<g id="Node000039" class="node">
<title>Node39</title>
<g id="a_Node000039"><a xlink:href="_t_griffin_8cxx.html" target="_top" xlink:title=" ">
<polygon fill="white" stroke="#666666" points="2936.38,-74.5 2873.12,-74.5 2873.12,-55.25 2936.38,-55.25 2936.38,-74.5"/>
<text text-anchor="middle" x="2904.75" y="-61" font-family="Helvetica,sans-Serif" font-size="10.00">TGriffin.cxx</text>
</a>
</g>
</g>
<!-- Node3&#45;&gt;Node39 -->
<g id="edge39_Node000003_Node000039" class="edge">
<title>Node3&#45;&gt;Node39</title>
<g id="a_edge39_Node000003_Node000039"><a xlink:title=" ">
<path fill="none" stroke="#63b8ff" d="M1915.51,-118.24C2074.38,-114.49 2676.18,-98.91 2864.75,-74.5 2867.43,-74.15 2870.19,-73.72 2872.96,-73.23"/>
<polygon fill="#63b8ff" stroke="#63b8ff" points="1915.44,-114.74 1905.53,-118.48 1915.61,-121.74 1915.44,-114.74"/>
</a>
</g>
</g>
<!-- Node40 -->
<g id="Node000040" class="node">
<title>Node40</title>
<g id="a_Node000040"><a xlink:href="_t_griffin_angles_8cxx.html" target="_top" xlink:title=" ">
<polygon fill="white" stroke="#666666" points="3047.38,-74.5 2954.12,-74.5 2954.12,-55.25 3047.38,-55.25 3047.38,-74.5"/>
<text text-anchor="middle" x="3000.75" y="-61" font-family="Helvetica,sans-Serif" font-size="10.00">TGriffinAngles.cxx</text>
</a>
</g>
</g>
<!-- Node3&#45;&gt;Node40 -->
<g id="edge40_Node000003_Node000040" class="edge">
<title>Node3&#45;&gt;Node40</title>
<g id="a_edge40_Node000003_Node000040"><a xlink:title=" ">
<path fill="none" stroke="#63b8ff" d="M1915.36,-119.1C2054.67,-118.67 2544.31,-114.23 2945.75,-74.5 2948.35,-74.24 2951.01,-73.94 2953.69,-73.62"/>
<polygon fill="#63b8ff" stroke="#63b8ff" points="1915.59,-115.6 1905.6,-119.12 1915.61,-122.6 1915.59,-115.6"/>
</a>
</g>
</g>
<!-- Node3&#45;&gt;Node41 -->
<g id="edge41_Node000003_Node000041" class="edge">
<title>Node3&#45;&gt;Node41</title>
<g id="a_edge41_Node000003_Node000041"><a xlink:title=" ">
<path fill="none" stroke="#63b8ff" d="M1915.45,-118.87C2129.91,-117.31 3174.34,-108.12 3494.75,-74.5 3497.56,-74.21 3500.44,-73.84 3503.35,-73.42"/>
<polygon fill="#63b8ff" stroke="#63b8ff" points="1915.68,-115.37 1905.7,-118.94 1915.73,-122.36 1915.68,-115.37"/>
</a>
</g>
</g>
<!-- Node42 -->
<g id="Node000042" class="node">
<title>Node42</title>
<g id="a_Node000042"><a xlink:href="_time_walk_helper_8hh.html" target="_top" xlink:title=" ">
<polygon fill="white" stroke="#666666" points="3166.12,-74.5 3065.38,-74.5 3065.38,-55.25 3166.12,-55.25 3166.12,-74.5"/>
<text text-anchor="middle" x="3115.75" y="-61" font-family="Helvetica,sans-Serif" font-size="10.00">TimeWalkHelper.hh</text>
</a>
</g>
</g>
<!-- Node3&#45;&gt;Node42 -->
<g id="edge42_Node000003_Node000042" class="edge">
<title>Node3&#45;&gt;Node42</title>
<g id="a_edge42_Node000003_Node000042"><a xlink:title=" ">
<path fill="none" stroke="#63b8ff" d="M1915.42,-119.17C2063.62,-119.02 2609.52,-115.53 3056.75,-74.5 3059.43,-74.25 3062.17,-73.97 3064.94,-73.66"/>
<polygon fill="#63b8ff" stroke="#63b8ff" points="1915.77,-115.67 1905.78,-119.17 1915.78,-122.67 1915.77,-115.67"/>
</a>
</g>
</g>
<!-- Node44 -->
<g id="Node000044" class="node">
<title>Node44</title>
<g id="a_Node000044"><a xlink:href="_time_walk_selector_8h.html" target="_top" xlink:title=" ">
<polygon fill="white" stroke="#666666" points="3287.25,-74.5 3184.25,-74.5 3184.25,-55.25 3287.25,-55.25 3287.25,-74.5"/>
<text text-anchor="middle" x="3235.75" y="-61" font-family="Helvetica,sans-Serif" font-size="10.00">TimeWalkSelector.h</text>
</a>
</g>
</g>
<!-- Node3&#45;&gt;Node44 -->
<g id="edge44_Node000003_Node000044" class="edge">
<title>Node3&#45;&gt;Node44</title>
<g id="a_edge44_Node000003_Node000044"><a xlink:title=" ">
<path fill="none" stroke="#63b8ff" d="M1915.6,-119.29C2073.05,-119.65 2678.9,-117.95 3174.75,-74.5 3177.73,-74.24 3180.79,-73.93 3183.88,-73.59"/>
<polygon fill="#63b8ff" stroke="#63b8ff" points="1915.74,-115.79 1905.73,-119.26 1915.72,-122.79 1915.74,-115.79"/>
</a>
</g>
</g>
<!-- Node46 -->
<g id="Node000046" class="node">
<title>Node46</title>
<g id="a_Node000046"><a xlink:href="tac__calibrator_8cxx.html" target="_top" xlink:title=" ">
<polygon fill="white" stroke="#666666" points="3396.25,-74.5 3305.25,-74.5 3305.25,-55.25 3396.25,-55.25 3396.25,-74.5"/>
<text text-anchor="middle" x="3350.75" y="-61" font-family="Helvetica,sans-Serif" font-size="10.00">tac_calibrator.cxx</text>
</a>
</g>
</g>
<!-- Node3&#45;&gt;Node46 -->
<g id="edge46_Node000003_Node000046" class="edge">
<title>Node3&#45;&gt;Node46</title>
<g id="a_edge46_Node000003_Node000046"><a xlink:title=" ">
<path fill="none" stroke="#63b8ff" d="M1915.62,-118.57C2114.28,-115.64 3017.63,-101.07 3296.75,-74.5 3299.4,-74.25 3302.11,-73.95 3304.84,-73.61"/>
<polygon fill="#63b8ff" stroke="#63b8ff" points="1915.8,-115.07 1905.85,-118.71 1915.9,-122.07 1915.8,-115.07"/>
</a>
</g>
</g>
<!-- Node47 -->
<g id="Node000047" class="node">
<title>Node47</title>
<g id="a_Node000047"><a xlink:href="write__cal_8cxx.html" target="_top" xlink:title=" ">
<polygon fill="white" stroke="#666666" points="3485.5,-74.5 3414,-74.5 3414,-55.25 3485.5,-55.25 3485.5,-74.5"/>
<text text-anchor="middle" x="3449.75" y="-61" font-family="Helvetica,sans-Serif" font-size="10.00">write_cal.cxx</text>
</a>
</g>
</g>
<!-- Node3&#45;&gt;Node47 -->
<g id="edge47_Node000003_Node000047" class="edge">
<title>Node3&#45;&gt;Node47</title>
<g id="a_edge47_Node000003_Node000047"><a xlink:title=" ">
<path fill="none" stroke="#63b8ff" d="M1915.59,-118.86C2123.26,-117.29 3104.29,-108.21 3405.75,-74.5 3408.38,-74.21 3411.09,-73.84 3413.81,-73.42"/>
<polygon fill="#63b8ff" stroke="#63b8ff" points="1915.6,-115.36 1905.63,-118.93 1915.65,-122.36 1915.6,-115.36"/>
</a>
</g>
</g>
<!-- Node5 -->
<g id="Node000005" class="node">
<title>Node5</title>
<g id="a_Node000005"><a xlink:href="_alphanumeric_helper_8cxx.html" target="_top" xlink:title=" ">
<polygon fill="white" stroke="#666666" points="248.88,-19.25 128.62,-19.25 128.62,0 248.88,0 248.88,-19.25"/>
<text text-anchor="middle" x="188.75" y="-5.75" font-family="Helvetica,sans-Serif" font-size="10.00">AlphanumericHelper.cxx</text>
</a>
</g>
</g>
<!-- Node4&#45;&gt;Node5 -->
<g id="edge4_Node000004_Node000005" class="edge">
<title>Node4&#45;&gt;Node5</title>
<g id="a_edge4_Node000004_Node000005"><a xlink:title=" ">
<path fill="none" stroke="#63b8ff" d="M193.13,-43.92C192.03,-35.55 190.8,-26.25 189.93,-19.61"/>
<polygon fill="#63b8ff" stroke="#63b8ff" points="189.62,-44.12 194.4,-53.58 196.56,-43.21 189.62,-44.12"/>
</a>
</g>
</g>
<!-- Node7 -->
<g id="Node000007" class="node">
<title>Node7</title>
<g id="a_Node000007"><a xlink:href="_alphanumeric_selector_8_c.html" target="_top" xlink:title=" ">
<polygon fill="white" stroke="#666666" points="386.88,-19.25 266.62,-19.25 266.62,0 386.88,0 386.88,-19.25"/>
<text text-anchor="middle" x="326.75" y="-5.75" font-family="Helvetica,sans-Serif" font-size="10.00">AlphanumericSelector.C</text>
</a>
</g>
</g>
<!-- Node6&#45;&gt;Node7 -->
<g id="edge6_Node000006_Node000007" class="edge">
<title>Node6&#45;&gt;Node7</title>
<g id="a_edge6_Node000006_Node000007"><a xlink:title=" ">
<path fill="none" stroke="#63b8ff" d="M329.85,-43.63C329.07,-35.34 328.21,-26.17 327.59,-19.61"/>
<polygon fill="#63b8ff" stroke="#63b8ff" points="326.36,-43.95 330.78,-53.57 333.33,-43.29 326.36,-43.95"/>
</a>
</g>
</g>
<!-- Node9 -->
<g id="Node000009" class="node">
<title>Node9</title>
<g id="a_Node000009"><a xlink:href="_angular_correlation_helper_8cxx.html" target="_top" xlink:title=" ">
<polygon fill="white" stroke="#666666" points="545,-19.25 404.5,-19.25 404.5,0 545,0 545,-19.25"/>
<text text-anchor="middle" x="474.75" y="-5.75" font-family="Helvetica,sans-Serif" font-size="10.00">AngularCorrelationHelper.cxx</text>
</a>
</g>
</g>
<!-- Node8&#45;&gt;Node9 -->
<g id="edge8_Node000008_Node000009" class="edge">
<title>Node8&#45;&gt;Node9</title>
<g id="a_edge8_Node000008_Node000009"><a xlink:title=" ">
<path fill="none" stroke="#63b8ff" d="M476.61,-43.63C476.14,-35.34 475.63,-26.17 475.26,-19.61"/>
<polygon fill="#63b8ff" stroke="#63b8ff" points="473.11,-43.78 477.17,-53.57 480.1,-43.39 473.11,-43.78"/>
</a>
</g>
</g>
<!-- Node11 -->
<g id="Node000011" class="node">
<title>Node11</title>
<g id="a_Node000011"><a xlink:href="_angular_correlation_selector_8_c.html" target="_top" xlink:title=" ">
<polygon fill="white" stroke="#666666" points="704,-19.25 563.5,-19.25 563.5,0 704,0 704,-19.25"/>
<text text-anchor="middle" x="633.75" y="-5.75" font-family="Helvetica,sans-Serif" font-size="10.00">AngularCorrelationSelector.C</text>
</a>
</g>
</g>
<!-- Node10&#45;&gt;Node11 -->
<g id="edge10_Node000010_Node000011" class="edge">
<title>Node10&#45;&gt;Node11</title>
<g id="a_edge10_Node000010_Node000011"><a xlink:title=" ">
<path fill="none" stroke="#63b8ff" d="M633.75,-43.63C633.75,-35.34 633.75,-26.17 633.75,-19.61"/>
<polygon fill="#63b8ff" stroke="#63b8ff" points="630.25,-43.57 633.75,-53.57 637.25,-43.57 630.25,-43.57"/>
</a>
</g>
</g>
<!-- Node13 -->
<g id="Node000013" class="node">
<title>Node13</title>
<g id="a_Node000013"><a xlink:href="_compton_polarimetry_helper_8cxx.html" target="_top" xlink:title=" ">
<polygon fill="white" stroke="#666666" points="871.12,-19.25 722.38,-19.25 722.38,0 871.12,0 871.12,-19.25"/>
<text text-anchor="middle" x="796.75" y="-5.75" font-family="Helvetica,sans-Serif" font-size="10.00">ComptonPolarimetryHelper.cxx</text>
</a>
</g>
</g>
<!-- Node12&#45;&gt;Node13 -->
<g id="edge12_Node000012_Node000013" class="edge">
<title>Node12&#45;&gt;Node13</title>
<g id="a_edge12_Node000012_Node000013"><a xlink:title=" ">
<path fill="none" stroke="#63b8ff" d="M794.89,-43.63C795.36,-35.34 795.87,-26.17 796.24,-19.61"/>
<polygon fill="#63b8ff" stroke="#63b8ff" points="791.4,-43.39 794.33,-53.57 798.39,-43.78 791.4,-43.39"/>
</a>
</g>
</g>
<!-- Node15 -->
<g id="Node000015" class="node">
<title>Node15</title>
<g id="a_Node000015"><a xlink:href="_cross_talk_8_c.html" target="_top" xlink:title=" ">
<polygon fill="white" stroke="#666666" points="958.38,-19.25 889.12,-19.25 889.12,0 958.38,0 958.38,-19.25"/>
<text text-anchor="middle" x="923.75" y="-5.75" font-family="Helvetica,sans-Serif" font-size="10.00">CrossTalk.C</text>
</a>
</g>
</g>
<!-- Node14&#45;&gt;Node15 -->
<g id="edge14_Node000014_Node000015" class="edge">
<title>Node14&#45;&gt;Node15</title>
<g id="a_edge14_Node000014_Node000015"><a xlink:title=" ">
<path fill="none" stroke="#63b8ff" d="M920,-43.92C920.94,-35.55 921.99,-26.25 922.74,-19.61"/>
<polygon fill="#63b8ff" stroke="#63b8ff" points="916.55,-43.25 918.91,-53.58 923.51,-44.03 916.55,-43.25"/>
</a>
</g>
</g>
<!-- Node17 -->
<g id="Node000017" class="node">
<title>Node17</title>
<g id="a_Node000017"><a xlink:href="_cross_talk_helper_8cxx.html" target="_top" xlink:title=" ">
<polygon fill="white" stroke="#666666" points="1081.38,-19.25 976.12,-19.25 976.12,0 1081.38,0 1081.38,-19.25"/>
<text text-anchor="middle" x="1028.75" y="-5.75" font-family="Helvetica,sans-Serif" font-size="10.00">CrossTalkHelper.cxx</text>
</a>
</g>
</g>
<!-- Node16&#45;&gt;Node17 -->
<g id="edge16_Node000016_Node000017" class="edge">
<title>Node16&#45;&gt;Node17</title>
<g id="a_edge16_Node000016_Node000017"><a xlink:title=" ">
<path fill="none" stroke="#63b8ff" d="M1023.75,-43.92C1025,-35.55 1026.4,-26.25 1027.4,-19.61"/>
<polygon fill="#63b8ff" stroke="#63b8ff" points="1020.32,-43.18 1022.3,-53.59 1027.24,-44.22 1020.32,-43.18"/>
</a>
</g>
</g>
<!-- Node20 -->
<g id="Node000020" class="node">
<title>Node20</title>
<g id="a_Node000020"><a xlink:href="_directory_helper_8cxx.html" target="_top" xlink:title=" ">
<polygon fill="white" stroke="#666666" points="1269.38,-19.25 1170.12,-19.25 1170.12,0 1269.38,0 1269.38,-19.25"/>
<text text-anchor="middle" x="1219.75" y="-5.75" font-family="Helvetica,sans-Serif" font-size="10.00">DirectoryHelper.cxx</text>
</a>
</g>
</g>
<!-- Node19&#45;&gt;Node20 -->
<g id="edge19_Node000019_Node000020" class="edge">
<title>Node19&#45;&gt;Node20</title>
<g id="a_edge19_Node000019_Node000020"><a xlink:title=" ">
<path fill="none" stroke="#63b8ff" d="M1226,-43.92C1224.43,-35.55 1222.68,-26.25 1221.44,-19.61"/>
<polygon fill="#63b8ff" stroke="#63b8ff" points="1222.53,-44.41 1227.82,-53.59 1229.41,-43.12 1222.53,-44.41"/>
</a>
</g>
</g>
<!-- Node22 -->
<g id="Node000022" class="node">
<title>Node22</title>
<g id="a_Node000022"><a xlink:href="_efficiency_helper_8cxx.html" target="_top" xlink:title=" ">
<polygon fill="white" stroke="#666666" points="1388.5,-19.25 1287,-19.25 1287,0 1388.5,0 1388.5,-19.25"/>
<text text-anchor="middle" x="1337.75" y="-5.75" font-family="Helvetica,sans-Serif" font-size="10.00">EfficiencyHelper.cxx</text>
</a>
</g>
</g>
<!-- Node21&#45;&gt;Node22 -->
<g id="edge21_Node000021_Node000022" class="edge">
<title>Node21&#45;&gt;Node22</title>
<g id="a_edge21_Node000021_Node000022"><a xlink:title=" ">
<path fill="none" stroke="#63b8ff" d="M1342.13,-43.92C1341.03,-35.55 1339.8,-26.25 1338.93,-19.61"/>
<polygon fill="#63b8ff" stroke="#63b8ff" points="1338.62,-44.12 1343.4,-53.58 1345.56,-43.21 1338.62,-44.12"/>
</a>
</g>
</g>
<!-- Node24 -->
<g id="Node000024" class="node">
<title>Node24</title>
<g id="a_Node000024"><a xlink:href="_example_event_helper_8cxx.html" target="_top" xlink:title=" ">
<polygon fill="white" stroke="#666666" points="1529,-19.25 1406.5,-19.25 1406.5,0 1529,0 1529,-19.25"/>
<text text-anchor="middle" x="1467.75" y="-5.75" font-family="Helvetica,sans-Serif" font-size="10.00">ExampleEventHelper.cxx</text>
</a>
</g>
</g>
<!-- Node23&#45;&gt;Node24 -->
<g id="edge23_Node000023_Node000024" class="edge">
<title>Node23&#45;&gt;Node24</title>
<g id="a_edge23_Node000023_Node000024"><a xlink:title=" ">
<path fill="none" stroke="#63b8ff" d="M1469.61,-43.63C1469.14,-35.34 1468.63,-26.17 1468.26,-19.61"/>
<polygon fill="#63b8ff" stroke="#63b8ff" points="1466.11,-43.78 1470.17,-53.57 1473.1,-43.39 1466.11,-43.78"/>
</a>
</g>
</g>
<!-- Node26 -->
<g id="Node000026" class="node">
<title>Node26</title>
<g id="a_Node000026"><a xlink:href="_example_event_selector_8_c.html" target="_top" xlink:title=" ">
<polygon fill="white" stroke="#666666" points="1670,-19.25 1547.5,-19.25 1547.5,0 1670,0 1670,-19.25"/>
<text text-anchor="middle" x="1608.75" y="-5.75" font-family="Helvetica,sans-Serif" font-size="10.00">ExampleEventSelector.C</text>
</a>
</g>
</g>
<!-- Node25&#45;&gt;Node26 -->
<g id="edge25_Node000025_Node000026" class="edge">
<title>Node25&#45;&gt;Node26</title>
<g id="a_edge25_Node000025_Node000026"><a xlink:title=" ">
<path fill="none" stroke="#63b8ff" d="M1608.75,-43.63C1608.75,-35.34 1608.75,-26.17 1608.75,-19.61"/>
<polygon fill="#63b8ff" stroke="#63b8ff" points="1605.25,-43.57 1608.75,-53.57 1612.25,-43.57 1605.25,-43.57"/>
</a>
</g>
</g>
<!-- Node28 -->
<g id="Node000028" class="node">
<title>Node28</title>
<g id="a_Node000028"><a xlink:href="_example_tree_helper_8cxx.html" target="_top" xlink:title=" ">
<polygon fill="white" stroke="#666666" points="1805.38,-19.25 1688.12,-19.25 1688.12,0 1805.38,0 1805.38,-19.25"/>
<text text-anchor="middle" x="1746.75" y="-5.75" font-family="Helvetica,sans-Serif" font-size="10.00">ExampleTreeHelper.cxx</text>
</a>
</g>
</g>
<!-- Node27&#45;&gt;Node28 -->
<g id="edge27_Node000027_Node000028" class="edge">
<title>Node27&#45;&gt;Node28</title>
<g id="a_edge27_Node000027_Node000028"><a xlink:title=" ">
<path fill="none" stroke="#63b8ff" d="M1744.89,-43.63C1745.36,-35.34 1745.87,-26.17 1746.24,-19.61"/>
<polygon fill="#63b8ff" stroke="#63b8ff" points="1741.4,-43.39 1744.33,-53.57 1748.39,-43.78 1741.4,-43.39"/>
</a>
</g>
</g>
<!-- Node30 -->
<g id="Node000030" class="node">
<title>Node30</title>
<g id="a_Node000030"><a xlink:href="_example_tree_selector_8_c.html" target="_top" xlink:title=" ">
<polygon fill="white" stroke="#666666" points="1940.38,-19.25 1823.12,-19.25 1823.12,0 1940.38,0 1940.38,-19.25"/>
<text text-anchor="middle" x="1881.75" y="-5.75" font-family="Helvetica,sans-Serif" font-size="10.00">ExampleTreeSelector.C</text>
</a>
</g>
</g>
<!-- Node29&#45;&gt;Node30 -->
<g id="edge29_Node000029_Node000030" class="edge">
<title>Node29&#45;&gt;Node30</title>
<g id="a_edge29_Node000029_Node000030"><a xlink:title=" ">
<path fill="none" stroke="#63b8ff" d="M1878.65,-43.63C1879.43,-35.34 1880.29,-26.17 1880.91,-19.61"/>
<polygon fill="#63b8ff" stroke="#63b8ff" points="1875.17,-43.29 1877.72,-53.57 1882.14,-43.95 1875.17,-43.29"/>
</a>
</g>
</g>
<!-- Node32 -->
<g id="Node000032" class="node">
<title>Node32</title>
<g id="a_Node000032"><a xlink:href="_fast_timing_hist_selector_8_c.html" target="_top" xlink:title=" ">
<polygon fill="white" stroke="#666666" points="2086.62,-19.25 1958.88,-19.25 1958.88,0 2086.62,0 2086.62,-19.25"/>
<text text-anchor="middle" x="2022.75" y="-5.75" font-family="Helvetica,sans-Serif" font-size="10.00">FastTimingHistSelector.C</text>
</a>
</g>
</g>
<!-- Node31&#45;&gt;Node32 -->
<g id="edge31_Node000031_Node000032" class="edge">
<title>Node31&#45;&gt;Node32</title>
<g id="a_edge31_Node000031_Node000032"><a xlink:title=" ">
<path fill="none" stroke="#63b8ff" d="M2018.37,-43.92C2019.47,-35.55 2020.7,-26.25 2021.57,-19.61"/>
<polygon fill="#63b8ff" stroke="#63b8ff" points="2014.94,-43.21 2017.1,-53.58 2021.88,-44.12 2014.94,-43.21"/>
</a>
</g>
</g>
<!-- Node43 -->
<g id="Node000043" class="node">
<title>Node43</title>
<g id="a_Node000043"><a xlink:href="_time_walk_helper_8cxx.html" target="_top" xlink:title=" ">
<polygon fill="white" stroke="#666666" points="3166,-19.25 3061.5,-19.25 3061.5,0 3166,0 3166,-19.25"/>
<text text-anchor="middle" x="3113.75" y="-5.75" font-family="Helvetica,sans-Serif" font-size="10.00">TimeWalkHelper.cxx</text>
</a>
</g>
</g>
<!-- Node42&#45;&gt;Node43 -->
<g id="edge43_Node000042_Node000043" class="edge">
<title>Node42&#45;&gt;Node43</title>
<g id="a_edge43_Node000042_Node000043"><a xlink:title=" ">
<path fill="none" stroke="#63b8ff" d="M3114.99,-43.63C3114.68,-35.34 3114.33,-26.17 3114.09,-19.61"/>
<polygon fill="#63b8ff" stroke="#63b8ff" points="3111.49,-43.71 3115.36,-53.57 3118.49,-43.45 3111.49,-43.71"/>
</a>
</g>
</g>
<!-- Node45 -->
<g id="Node000045" class="node">
<title>Node45</title>
<g id="a_Node000045"><a xlink:href="_time_walk_selector_8_c.html" target="_top" xlink:title=" ">
<polygon fill="white" stroke="#666666" points="3289,-19.25 3184.5,-19.25 3184.5,0 3289,0 3289,-19.25"/>
<text text-anchor="middle" x="3236.75" y="-5.75" font-family="Helvetica,sans-Serif" font-size="10.00">TimeWalkSelector.C</text>
</a>
</g>
</g>
<!-- Node44&#45;&gt;Node45 -->
<g id="edge45_Node000044_Node000045" class="edge">
<title>Node44&#45;&gt;Node45</title>
<g id="a_edge45_Node000044_Node000045"><a xlink:title=" ">
<path fill="none" stroke="#63b8ff" d="M3236.13,-43.63C3236.29,-35.34 3236.46,-26.17 3236.58,-19.61"/>
<polygon fill="#63b8ff" stroke="#63b8ff" points="3232.63,-43.5 3235.94,-53.57 3239.63,-43.64 3232.63,-43.5"/>
</a>
</g>
</g>
</g>
</svg>

<g id="navigator" transform="translate(0 0)" fill="#404254">
  <rect fill="#f2f5e9" fill-opacity="0.5" stroke="#606060" stroke-width=".5" x="0" y="0" width="60" height="60"/>
  <use id="zoomplus" xlink:href="#zoomPlus" x="17" y="9" onmousedown="handleZoom(evt,'in')"/>
  <use id="zoomminus" xlink:href="#zoomMin" x="42" y="9" onmousedown="handleZoom(evt,'out')"/>
  <use id="reset" xlink:href="#resetDef" x="30" y="36" onmousedown="handleReset()"/>
   <use id="arrowup" xlink:href="#arrowUp" x="0" y="0" onmousedown="handlePan(0,-1)"/>
  <use id="arrowright" xlink:href="#arrowRight" x="0" y="0" onmousedown="handlePan(1,0)"/>
  <use id="arrowdown" xlink:href="#arrowDown" x="0" y="0" onmousedown="handlePan(0,1)"/>
  <use id="arrowleft" xlink:href="#arrowLeft" x="0" y="0" onmousedown="handlePan(-1,0)"/>
</g>
<svg viewBox="0 0 15 15" width="100%" height="30px" preserveAspectRatio="xMaxYMin meet">
 <g id="arrow_out" transform="scale(0.3 0.3)">
  <a xlink:href="_t_griffin_hit_8h__dep__incl_org.svg" target="_base">
   <rect id="button" ry="5" rx="5" y="6" x="6" height="38" width="38"
        fill="#f2f5e9" fill-opacity="0.5" stroke="#606060" stroke-width="1.0"/>
   <path id="arrow"
     d="M 11.500037,31.436501 C 11.940474,20.09759 22.043105,11.32322 32.158766,21.979434 L 37.068811,17.246167 C 37.068811,17.246167 37.088388,32 37.088388,32 L 22.160133,31.978069 C 22.160133,31.978069 26.997745,27.140456 26.997745,27.140456 C 18.528582,18.264221 13.291696,25.230495 11.500037,31.436501 z"
     style="fill:#404040;"/>
  </a>
 </g>
</svg>

<style type='text/css'>
<![CDATA[
[data-mouse-over-selected='false'] { opacity: 0.7; }
[data-mouse-over-selected='true']  { opacity: 1.0; }
]]>
</style>
<script type="application/ecmascript"><![CDATA[
document.addEventListener('DOMContentLoaded', (event) => {
  highlightEdges();
  highlightAdjacentNodes();
});
]]></script>
</svg>
