<?xml version="1.0" encoding="UTF-8" standalone="no"?>
<!DOCTYPE svg PUBLIC "-//W3C//DTD SVG 1.1//EN"
 "http://www.w3.org/Graphics/SVG/1.1/DTD/svg11.dtd">
<!-- Generated by graphviz version 12.2.0 (20241103.1931)
 -->
<!-- Title: THILFragment.h Pages: 1 -->
<svg width="1606pt" height="359pt"
 viewBox="0.00 0.00 1605.75 358.75" xmlns="http://www.w3.org/2000/svg" xmlns:xlink="http://www.w3.org/1999/xlink">
<g id="graph0" class="graph" transform="scale(1 1) rotate(0) translate(4 354.75)">
<title>THILFragment.h</title>
<!-- Node1 -->
<g id="Node000001" class="node">
<title>Node1</title>
<g id="a_Node000001"><a xlink:title=" ">
<polygon fill="#999999" stroke="#666666" points="493.62,-350.75 406.38,-350.75 406.38,-331.5 493.62,-331.5 493.62,-350.75"/>
<text text-anchor="middle" x="450" y="-337.25" font-family="Helvetica,sans-Serif" font-size="10.00">THILFragment.h</text>
</a>
</g>
</g>
<!-- Node2 -->
<g id="Node000002" class="node">
<title>Node2</title>
<g id="a_Node000002"><a xlink:title=" ">
<polygon fill="#e0e0e0" stroke="#999999" points="72.5,-74.5 29.5,-74.5 29.5,-55.25 72.5,-55.25 72.5,-74.5"/>
<text text-anchor="middle" x="51" y="-61" font-family="Helvetica,sans-Serif" font-size="10.00">vector</text>
</a>
</g>
</g>
<!-- Node1&#45;&gt;Node2 -->
<g id="edge1_Node000001_Node000002" class="edge">
<title>Node1&#45;&gt;Node2</title>
<g id="a_edge1_Node000001_Node000002"><a xlink:title=" ">
<path fill="none" stroke="#63b8ff" d="M406.03,-338.83C292.8,-334.31 0,-314.6 0,-231.62 0,-231.62 0,-231.62 0,-174.38 0,-139.83 21.43,-104.48 36.51,-83.88"/>
<polygon fill="#63b8ff" stroke="#63b8ff" points="39.26,-86.05 42.56,-75.98 33.7,-81.8 39.26,-86.05"/>
</a>
</g>
</g>
<!-- Node3 -->
<g id="Node000003" class="node">
<title>Node3</title>
<g id="a_Node000003"><a xlink:href="_t_fragment_8h.html" target="_top" xlink:title=" ">
<polygon fill="white" stroke="#666666" points="912.38,-295.5 841.62,-295.5 841.62,-276.25 912.38,-276.25 912.38,-295.5"/>
<text text-anchor="middle" x="877" y="-282" font-family="Helvetica,sans-Serif" font-size="10.00">TFragment.h</text>
</a>
</g>
</g>
<!-- Node1&#45;&gt;Node3 -->
<g id="edge2_Node000001_Node000003" class="edge">
<title>Node1&#45;&gt;Node3</title>
<g id="a_edge2_Node000001_Node000003"><a xlink:title=" ">
<path fill="none" stroke="#63b8ff" d="M494.09,-334.63C575.1,-324.52 746.95,-303.09 830.05,-292.73"/>
<polygon fill="#63b8ff" stroke="#63b8ff" points="830.42,-296.21 839.91,-291.5 829.55,-289.27 830.42,-296.21"/>
</a>
</g>
</g>
<!-- Node3&#45;&gt;Node2 -->
<g id="edge63_Node000003_Node000002" class="edge">
<title>Node3&#45;&gt;Node2</title>
<g id="a_edge63_Node000003_Node000002"><a xlink:title=" ">
<path fill="none" stroke="#63b8ff" d="M841.47,-285.17C702.15,-285.64 194.84,-280.65 73,-185 43.58,-161.9 44.42,-113.41 47.67,-85.95"/>
<polygon fill="#63b8ff" stroke="#63b8ff" points="51.12,-86.56 49.08,-76.17 44.19,-85.57 51.12,-86.56"/>
</a>
</g>
</g>
<!-- Node4 -->
<g id="Node000004" class="node">
<title>Node4</title>
<g id="a_Node000004"><a xlink:href="_t_detector_hit_8h.html" target="_top" xlink:title=" ">
<polygon fill="white" stroke="#666666" points="825.5,-240.25 746.5,-240.25 746.5,-221 825.5,-221 825.5,-240.25"/>
<text text-anchor="middle" x="786" y="-226.75" font-family="Helvetica,sans-Serif" font-size="10.00">TDetectorHit.h</text>
</a>
</g>
</g>
<!-- Node3&#45;&gt;Node4 -->
<g id="edge3_Node000003_Node000004" class="edge">
<title>Node3&#45;&gt;Node4</title>
<g id="a_edge3_Node000003_Node000004"><a xlink:title=" ">
<path fill="none" stroke="#63b8ff" d="M861.56,-275.84C847.84,-267.81 827.5,-255.91 811.38,-246.48"/>
<polygon fill="#63b8ff" stroke="#63b8ff" points="813.22,-243.5 802.82,-241.47 809.68,-249.54 813.22,-243.5"/>
</a>
</g>
</g>
<!-- Node19 -->
<g id="Node000019" class="node">
<title>Node19</title>
<g id="a_Node000019"><a xlink:title=" ">
<polygon fill="#e0e0e0" stroke="#999999" points="973.75,-185 920.25,-185 920.25,-165.75 973.75,-165.75 973.75,-185"/>
<text text-anchor="middle" x="947" y="-171.5" font-family="Helvetica,sans-Serif" font-size="10.00">Rtypes.h</text>
</a>
</g>
</g>
<!-- Node3&#45;&gt;Node19 -->
<g id="edge65_Node000003_Node000019" class="edge">
<title>Node3&#45;&gt;Node19</title>
<g id="a_edge65_Node000003_Node000019"><a xlink:title=" ">
<path fill="none" stroke="#63b8ff" d="M879,-276.04C882.2,-263.17 889.31,-238.84 901,-221 907.88,-210.5 917.63,-200.59 926.38,-192.79"/>
<polygon fill="#63b8ff" stroke="#63b8ff" points="928.47,-195.6 933.83,-186.46 923.94,-190.27 928.47,-195.6"/>
</a>
</g>
</g>
<!-- Node21 -->
<g id="Node000021" class="node">
<title>Node21</title>
<g id="a_Node000021"><a xlink:href="_t_p_p_g_8h.html" target="_top" xlink:title=" ">
<polygon fill="white" stroke="#666666" points="1068.25,-185 1017.75,-185 1017.75,-165.75 1068.25,-165.75 1068.25,-185"/>
<text text-anchor="middle" x="1043" y="-171.5" font-family="Helvetica,sans-Serif" font-size="10.00">TPPG.h</text>
</a>
</g>
</g>
<!-- Node3&#45;&gt;Node21 -->
<g id="edge61_Node000003_Node000021" class="edge">
<title>Node3&#45;&gt;Node21</title>
<g id="a_edge61_Node000003_Node000021"><a xlink:title=" ">
<path fill="none" stroke="#63b8ff" d="M883,-275.86C892.42,-262.31 911.91,-236.62 934,-221 956.14,-205.35 984.59,-193.94 1006.87,-186.57"/>
<polygon fill="#63b8ff" stroke="#63b8ff" points="1007.65,-190 1016.13,-183.64 1005.54,-183.32 1007.65,-190"/>
</a>
</g>
</g>
<!-- Node23 -->
<g id="Node000023" class="node">
<title>Node23</title>
<g id="a_Node000023"><a xlink:title=" ">
<polygon fill="#e0e0e0" stroke="#999999" points="1597.75,-19.25 1544.25,-19.25 1544.25,0 1597.75,0 1597.75,-19.25"/>
<text text-anchor="middle" x="1571" y="-5.75" font-family="Helvetica,sans-Serif" font-size="10.00">iostream</text>
</a>
</g>
</g>
<!-- Node3&#45;&gt;Node23 -->
<g id="edge62_Node000003_Node000023" class="edge">
<title>Node3&#45;&gt;Node23</title>
<g id="a_edge62_Node000003_Node000023"><a xlink:title=" ">
<path fill="none" stroke="#63b8ff" d="M912.73,-283.16C1055.58,-275.84 1578,-244.42 1578,-176.38 1578,-176.38 1578,-176.38 1578,-119.12 1578,-88.34 1575.16,-52.75 1573.1,-30.97"/>
<polygon fill="#63b8ff" stroke="#63b8ff" points="1576.59,-30.73 1572.12,-21.12 1569.62,-31.42 1576.59,-30.73"/>
</a>
</g>
</g>
<!-- Node47 -->
<g id="Node000047" class="node">
<title>Node47</title>
<g id="a_Node000047"><a xlink:title=" ">
<polygon fill="#e0e0e0" stroke="#999999" points="983,-240.25 943,-240.25 943,-221 983,-221 983,-240.25"/>
<text text-anchor="middle" x="963" y="-226.75" font-family="Helvetica,sans-Serif" font-size="10.00">ctime</text>
</a>
</g>
</g>
<!-- Node3&#45;&gt;Node47 -->
<g id="edge64_Node000003_Node000047" class="edge">
<title>Node3&#45;&gt;Node47</title>
<g id="a_edge64_Node000003_Node000047"><a xlink:title=" ">
<path fill="none" stroke="#63b8ff" d="M891.59,-275.84C904.44,-267.89 923.41,-256.14 938.57,-246.75"/>
<polygon fill="#63b8ff" stroke="#63b8ff" points="940.39,-249.74 947.05,-241.5 936.71,-243.79 940.39,-249.74"/>
</a>
</g>
</g>
<!-- Node4&#45;&gt;Node2 -->
<g id="edge4_Node000004_Node000002" class="edge">
<title>Node4&#45;&gt;Node2</title>
<g id="a_edge4_Node000004_Node000002"><a xlink:title=" ">
<path fill="none" stroke="#63b8ff" d="M746.41,-229.55C607.43,-228.94 147.28,-223.99 95,-185 63.72,-161.68 54.66,-113.67 52.05,-86.25"/>
<polygon fill="#63b8ff" stroke="#63b8ff" points="55.55,-86.19 51.34,-76.47 48.57,-86.69 55.55,-86.19"/>
</a>
</g>
</g>
<!-- Node5 -->
<g id="Node000005" class="node">
<title>Node5</title>
<g id="a_Node000005"><a xlink:title=" ">
<polygon fill="#e0e0e0" stroke="#999999" points="403.62,-19.25 358.38,-19.25 358.38,0 403.62,0 403.62,-19.25"/>
<text text-anchor="middle" x="381" y="-5.75" font-family="Helvetica,sans-Serif" font-size="10.00">cstdint</text>
</a>
</g>
</g>
<!-- Node4&#45;&gt;Node5 -->
<g id="edge5_Node000004_Node000005" class="edge">
<title>Node4&#45;&gt;Node5</title>
<g id="a_edge5_Node000004_Node000005"><a xlink:title=" ">
<path fill="none" stroke="#63b8ff" d="M746.4,-229.96C617.43,-230.12 213.13,-223.07 133,-129.75 118.04,-112.33 128.01,-74.39 149,-55.25 177.5,-29.25 289.39,-17.37 346.73,-12.89"/>
<polygon fill="#63b8ff" stroke="#63b8ff" points="346.86,-16.39 356.57,-12.16 346.34,-9.41 346.86,-16.39"/>
</a>
</g>
</g>
<!-- Node6 -->
<g id="Node000006" class="node">
<title>Node6</title>
<g id="a_Node000006"><a xlink:href="_t_channel_8h.html" target="_top" xlink:title=" ">
<polygon fill="white" stroke="#666666" points="577.38,-185 512.62,-185 512.62,-165.75 577.38,-165.75 577.38,-185"/>
<text text-anchor="middle" x="545" y="-171.5" font-family="Helvetica,sans-Serif" font-size="10.00">TChannel.h</text>
</a>
</g>
</g>
<!-- Node4&#45;&gt;Node6 -->
<g id="edge6_Node000004_Node000006" class="edge">
<title>Node4&#45;&gt;Node6</title>
<g id="a_edge6_Node000004_Node000006"><a xlink:title=" ">
<path fill="none" stroke="#63b8ff" d="M746.2,-220.83C702.79,-211.24 633.51,-195.93 588.64,-186.02"/>
<polygon fill="#63b8ff" stroke="#63b8ff" points="589.5,-182.62 578.98,-183.88 587.99,-189.46 589.5,-182.62"/>
</a>
</g>
</g>
<!-- Node17 -->
<g id="Node000017" class="node">
<title>Node17</title>
<g id="a_Node000017"><a xlink:title=" ">
<polygon fill="#e0e0e0" stroke="#999999" points="863.62,-185 800.38,-185 800.38,-165.75 863.62,-165.75 863.62,-185"/>
<text text-anchor="middle" x="832" y="-171.5" font-family="Helvetica,sans-Serif" font-size="10.00">TVector3.h</text>
</a>
</g>
</g>
<!-- Node4&#45;&gt;Node17 -->
<g id="edge20_Node000004_Node000017" class="edge">
<title>Node4&#45;&gt;Node17</title>
<g id="a_edge20_Node000004_Node000017"><a xlink:title=" ">
<path fill="none" stroke="#63b8ff" d="M793.6,-220.83C799.88,-213.55 809.01,-202.98 816.8,-193.98"/>
<polygon fill="#63b8ff" stroke="#63b8ff" points="819.36,-196.36 823.25,-186.5 814.06,-191.78 819.36,-196.36"/>
</a>
</g>
</g>
<!-- Node18 -->
<g id="Node000018" class="node">
<title>Node18</title>
<g id="a_Node000018"><a xlink:title=" ">
<polygon fill="#e0e0e0" stroke="#999999" points="1196,-74.5 1138,-74.5 1138,-55.25 1196,-55.25 1196,-74.5"/>
<text text-anchor="middle" x="1167" y="-61" font-family="Helvetica,sans-Serif" font-size="10.00">TObject.h</text>
</a>
</g>
</g>
<!-- Node4&#45;&gt;Node18 -->
<g id="edge21_Node000004_Node000018" class="edge">
<title>Node4&#45;&gt;Node18</title>
<g id="a_edge21_Node000004_Node000018"><a xlink:title=" ">
<path fill="none" stroke="#63b8ff" d="M813.46,-220.65C832.12,-213.42 856.33,-201.7 873,-185 899.25,-158.69 881.04,-132.5 911,-110.5 988.39,-53.68 1029.59,-91.94 1124,-74.5 1124.98,-74.32 1125.98,-74.13 1126.98,-73.94"/>
<polygon fill="#63b8ff" stroke="#63b8ff" points="1127.24,-77.46 1136.39,-72.13 1125.91,-70.59 1127.24,-77.46"/>
</a>
</g>
</g>
<!-- Node4&#45;&gt;Node19 -->
<g id="edge22_Node000004_Node000019" class="edge">
<title>Node4&#45;&gt;Node19</title>
<g id="a_edge22_Node000004_Node000019"><a xlink:title=" ">
<path fill="none" stroke="#63b8ff" d="M813.31,-220.59C839.64,-211.88 879.72,-198.63 909.13,-188.9"/>
<polygon fill="#63b8ff" stroke="#63b8ff" points="909.99,-192.3 918.39,-185.84 907.79,-185.66 909.99,-192.3"/>
</a>
</g>
</g>
<!-- Node20 -->
<g id="Node000020" class="node">
<title>Node20</title>
<g id="a_Node000020"><a xlink:title=" ">
<polygon fill="#e0e0e0" stroke="#999999" points="169.75,-185 104.25,-185 104.25,-165.75 169.75,-165.75 169.75,-185"/>
<text text-anchor="middle" x="137" y="-171.5" font-family="Helvetica,sans-Serif" font-size="10.00">TRandom.h</text>
</a>
</g>
</g>
<!-- Node4&#45;&gt;Node20 -->
<g id="edge23_Node000004_Node000020" class="edge">
<title>Node4&#45;&gt;Node20</title>
<g id="a_edge23_Node000004_Node000020"><a xlink:title=" ">
<path fill="none" stroke="#63b8ff" d="M746.05,-228.15C649.28,-224.25 394.75,-212.07 184,-185 183.15,-184.89 182.29,-184.78 181.43,-184.66"/>
<polygon fill="#63b8ff" stroke="#63b8ff" points="181.97,-181.2 171.55,-183.13 180.9,-188.12 181.97,-181.2"/>
</a>
</g>
</g>
<!-- Node4&#45;&gt;Node21 -->
<g id="edge24_Node000004_Node000021" class="edge">
<title>Node4&#45;&gt;Node21</title>
<g id="a_edge24_Node000004_Node000021"><a xlink:title=" ">
<path fill="none" stroke="#63b8ff" d="M825.87,-221.36C875.24,-211.13 958.63,-193.86 1006.42,-183.95"/>
<polygon fill="#63b8ff" stroke="#63b8ff" points="1006.91,-187.43 1015.99,-181.97 1005.49,-180.57 1006.91,-187.43"/>
</a>
</g>
</g>
<!-- Node45 -->
<g id="Node000045" class="node">
<title>Node45</title>
<g id="a_Node000045"><a xlink:href="_t_transient_bits_8h.html" target="_top" xlink:title=" ">
<polygon fill="white" stroke="#666666" points="782.62,-185 695.38,-185 695.38,-165.75 782.62,-165.75 782.62,-185"/>
<text text-anchor="middle" x="739" y="-171.5" font-family="Helvetica,sans-Serif" font-size="10.00">TTransientBits.h</text>
</a>
</g>
</g>
<!-- Node4&#45;&gt;Node45 -->
<g id="edge58_Node000004_Node000045" class="edge">
<title>Node4&#45;&gt;Node45</title>
<g id="a_edge58_Node000004_Node000045"><a xlink:title=" ">
<path fill="none" stroke="#63b8ff" d="M778.24,-220.83C771.81,-213.55 762.49,-202.98 754.54,-193.98"/>
<polygon fill="#63b8ff" stroke="#63b8ff" points="757.17,-191.68 747.93,-186.49 751.92,-196.31 757.17,-191.68"/>
</a>
</g>
</g>
<!-- Node7 -->
<g id="Node000007" class="node">
<title>Node7</title>
<g id="a_Node000007"><a xlink:title=" ">
<polygon fill="#e0e0e0" stroke="#999999" points="504,-19.25 464,-19.25 464,0 504,0 504,-19.25"/>
<text text-anchor="middle" x="484" y="-5.75" font-family="Helvetica,sans-Serif" font-size="10.00">string</text>
</a>
</g>
</g>
<!-- Node6&#45;&gt;Node7 -->
<g id="edge7_Node000006_Node000007" class="edge">
<title>Node6&#45;&gt;Node7</title>
<g id="a_edge7_Node000006_Node000007"><a xlink:title=" ">
<path fill="none" stroke="#63b8ff" d="M577.57,-173.35C632.76,-170.3 735.82,-158.25 705,-110.5 683.2,-76.73 571,-37.78 515.36,-20.16"/>
<polygon fill="#63b8ff" stroke="#63b8ff" points="516.43,-16.83 505.84,-17.18 514.34,-23.51 516.43,-16.83"/>
</a>
</g>
</g>
<!-- Node8 -->
<g id="Node000008" class="node">
<title>Node8</title>
<g id="a_Node000008"><a xlink:title=" ">
<polygon fill="#e0e0e0" stroke="#999999" points="287.5,-129.75 244.5,-129.75 244.5,-110.5 287.5,-110.5 287.5,-129.75"/>
<text text-anchor="middle" x="266" y="-116.25" font-family="Helvetica,sans-Serif" font-size="10.00">cmath</text>
</a>
</g>
</g>
<!-- Node6&#45;&gt;Node8 -->
<g id="edge8_Node000006_Node000008" class="edge">
<title>Node6&#45;&gt;Node8</title>
<g id="a_edge8_Node000006_Node000008"><a xlink:title=" ">
<path fill="none" stroke="#63b8ff" d="M512.31,-169.49C466.73,-162.46 381.3,-148.51 299.01,-130.02"/>
<polygon fill="#63b8ff" stroke="#63b8ff" points="299.95,-126.65 289.43,-127.84 298.4,-133.47 299.95,-126.65"/>
</a>
</g>
</g>
<!-- Node9 -->
<g id="Node000009" class="node">
<title>Node9</title>
<g id="a_Node000009"><a xlink:title=" ">
<polygon fill="#e0e0e0" stroke="#999999" points="958.25,-129.75 919.75,-129.75 919.75,-110.5 958.25,-110.5 958.25,-129.75"/>
<text text-anchor="middle" x="939" y="-116.25" font-family="Helvetica,sans-Serif" font-size="10.00">utility</text>
</a>
</g>
</g>
<!-- Node6&#45;&gt;Node9 -->
<g id="edge9_Node000006_Node000009" class="edge">
<title>Node6&#45;&gt;Node9</title>
<g id="a_edge9_Node000006_Node000009"><a xlink:title=" ">
<path fill="none" stroke="#63b8ff" d="M577.58,-169.97C652.33,-159.87 835.32,-135.14 908.26,-125.28"/>
<polygon fill="#63b8ff" stroke="#63b8ff" points="908.44,-128.79 917.88,-123.98 907.5,-121.85 908.44,-128.79"/>
</a>
</g>
</g>
<!-- Node10 -->
<g id="Node000010" class="node">
<title>Node10</title>
<g id="a_Node000010"><a xlink:title=" ">
<polygon fill="#e0e0e0" stroke="#999999" points="388.38,-129.75 305.62,-129.75 305.62,-110.5 388.38,-110.5 388.38,-129.75"/>
<text text-anchor="middle" x="347" y="-116.25" font-family="Helvetica,sans-Serif" font-size="10.00">unordered_map</text>
</a>
</g>
</g>
<!-- Node6&#45;&gt;Node10 -->
<g id="edge10_Node000006_Node000010" class="edge">
<title>Node6&#45;&gt;Node10</title>
<g id="a_edge10_Node000006_Node000010"><a xlink:title=" ">
<path fill="none" stroke="#63b8ff" d="M512.3,-165.58C479.36,-156.72 428.27,-142.98 391.62,-133.12"/>
<polygon fill="#63b8ff" stroke="#63b8ff" points="392.77,-129.81 382.2,-130.59 390.95,-136.57 392.77,-129.81"/>
</a>
</g>
</g>
<!-- Node11 -->
<g id="Node000011" class="node">
<title>Node11</title>
<g id="a_Node000011"><a xlink:title=" ">
<polygon fill="#e0e0e0" stroke="#999999" points="467.5,-129.75 406.5,-129.75 406.5,-110.5 467.5,-110.5 467.5,-129.75"/>
<text text-anchor="middle" x="437" y="-116.25" font-family="Helvetica,sans-Serif" font-size="10.00">TNamed.h</text>
</a>
</g>
</g>
<!-- Node6&#45;&gt;Node11 -->
<g id="edge11_Node000006_Node000011" class="edge">
<title>Node6&#45;&gt;Node11</title>
<g id="a_edge11_Node000006_Node000011"><a xlink:title=" ">
<path fill="none" stroke="#63b8ff" d="M526.68,-165.34C509.92,-157.08 484.87,-144.73 465.5,-135.18"/>
<polygon fill="#63b8ff" stroke="#63b8ff" points="467.28,-132.15 456.77,-130.87 464.19,-138.43 467.28,-132.15"/>
</a>
</g>
</g>
<!-- Node12 -->
<g id="Node000012" class="node">
<title>Node12</title>
<g id="a_Node000012"><a xlink:title=" ">
<polygon fill="#e0e0e0" stroke="#999999" points="534.5,-129.75 485.5,-129.75 485.5,-110.5 534.5,-110.5 534.5,-129.75"/>
<text text-anchor="middle" x="510" y="-116.25" font-family="Helvetica,sans-Serif" font-size="10.00">TTree.h</text>
</a>
</g>
</g>
<!-- Node6&#45;&gt;Node12 -->
<g id="edge12_Node000006_Node000012" class="edge">
<title>Node6&#45;&gt;Node12</title>
<g id="a_edge12_Node000006_Node000012"><a xlink:title=" ">
<path fill="none" stroke="#63b8ff" d="M539.22,-165.58C534.59,-158.53 527.93,-148.4 522.13,-139.58"/>
<polygon fill="#63b8ff" stroke="#63b8ff" points="525.15,-137.81 516.74,-131.37 519.3,-141.65 525.15,-137.81"/>
</a>
</g>
</g>
<!-- Node13 -->
<g id="Node000013" class="node">
<title>Node13</title>
<g id="a_Node000013"><a xlink:title=" ">
<polygon fill="#e0e0e0" stroke="#999999" points="607.88,-129.75 552.12,-129.75 552.12,-110.5 607.88,-110.5 607.88,-129.75"/>
<text text-anchor="middle" x="580" y="-116.25" font-family="Helvetica,sans-Serif" font-size="10.00">TGraph.h</text>
</a>
</g>
</g>
<!-- Node6&#45;&gt;Node13 -->
<g id="edge13_Node000006_Node000013" class="edge">
<title>Node6&#45;&gt;Node13</title>
<g id="a_edge13_Node000006_Node000013"><a xlink:title=" ">
<path fill="none" stroke="#63b8ff" d="M550.78,-165.58C555.41,-158.53 562.07,-148.4 567.87,-139.58"/>
<polygon fill="#63b8ff" stroke="#63b8ff" points="570.7,-141.65 573.26,-131.37 564.85,-137.81 570.7,-141.65"/>
</a>
</g>
</g>
<!-- Node14 -->
<g id="Node000014" class="node">
<title>Node14</title>
<g id="a_Node000014"><a xlink:title=" ">
<polygon fill="#e0e0e0" stroke="#999999" points="695.62,-129.75 626.38,-129.75 626.38,-110.5 695.62,-110.5 695.62,-129.75"/>
<text text-anchor="middle" x="661" y="-116.25" font-family="Helvetica,sans-Serif" font-size="10.00">TClassRef.h</text>
</a>
</g>
</g>
<!-- Node6&#45;&gt;Node14 -->
<g id="edge14_Node000006_Node000014" class="edge">
<title>Node6&#45;&gt;Node14</title>
<g id="a_edge14_Node000006_Node000014"><a xlink:title=" ">
<path fill="none" stroke="#63b8ff" d="M564.68,-165.34C582.84,-157 610.08,-144.5 630.97,-134.91"/>
<polygon fill="#63b8ff" stroke="#63b8ff" points="632.22,-138.19 639.85,-130.83 629.3,-131.83 632.22,-138.19"/>
</a>
</g>
</g>
<!-- Node15 -->
<g id="Node000015" class="node">
<title>Node15</title>
<g id="a_Node000015"><a xlink:href="_t_priority_value_8h.html" target="_top" xlink:title=" ">
<polygon fill="white" stroke="#666666" points="226.12,-129.75 141.88,-129.75 141.88,-110.5 226.12,-110.5 226.12,-129.75"/>
<text text-anchor="middle" x="184" y="-116.25" font-family="Helvetica,sans-Serif" font-size="10.00">TPriorityValue.h</text>
</a>
</g>
</g>
<!-- Node6&#45;&gt;Node15 -->
<g id="edge15_Node000006_Node000015" class="edge">
<title>Node6&#45;&gt;Node15</title>
<g id="a_edge15_Node000006_Node000015"><a xlink:title=" ">
<path fill="none" stroke="#63b8ff" d="M512.38,-169.95C457.77,-162.48 344.11,-146.68 237.82,-130.16"/>
<polygon fill="#63b8ff" stroke="#63b8ff" points="238.48,-126.72 228.06,-128.64 237.4,-133.64 238.48,-126.72"/>
</a>
</g>
</g>
<!-- Node15&#45;&gt;Node2 -->
<g id="edge18_Node000015_Node000002" class="edge">
<title>Node15&#45;&gt;Node2</title>
<g id="a_edge18_Node000015_Node000002"><a xlink:title=" ">
<path fill="none" stroke="#63b8ff" d="M161.44,-110.09C139.97,-101.5 107.45,-88.48 83.25,-78.79"/>
<polygon fill="#63b8ff" stroke="#63b8ff" points="84.78,-75.63 74.19,-75.16 82.18,-82.13 84.78,-75.63"/>
</a>
</g>
</g>
<!-- Node15&#45;&gt;Node5 -->
<g id="edge19_Node000015_Node000005" class="edge">
<title>Node15&#45;&gt;Node5</title>
<g id="a_edge19_Node000015_Node000005"><a xlink:title=" ">
<path fill="none" stroke="#63b8ff" d="M200.46,-110.06C234.57,-91.27 313.25,-47.94 354.56,-25.18"/>
<polygon fill="#63b8ff" stroke="#63b8ff" points="356.05,-28.36 363.13,-20.47 352.68,-22.23 356.05,-28.36"/>
</a>
</g>
</g>
<!-- Node15&#45;&gt;Node7 -->
<g id="edge17_Node000015_Node000007" class="edge">
<title>Node15&#45;&gt;Node7</title>
<g id="a_edge17_Node000015_Node000007"><a xlink:title=" ">
<path fill="none" stroke="#63b8ff" d="M209.06,-110.06C263.7,-90.3 393.42,-43.39 453.04,-21.82"/>
<polygon fill="#63b8ff" stroke="#63b8ff" points="454.02,-25.19 462.24,-18.5 451.64,-18.61 454.02,-25.19"/>
</a>
</g>
</g>
<!-- Node16 -->
<g id="Node000016" class="node">
<title>Node16</title>
<g id="a_Node000016"><a xlink:title=" ">
<polygon fill="#e0e0e0" stroke="#999999" points="209.62,-74.5 158.38,-74.5 158.38,-55.25 209.62,-55.25 209.62,-74.5"/>
<text text-anchor="middle" x="184" y="-61" font-family="Helvetica,sans-Serif" font-size="10.00">ostream</text>
</a>
</g>
</g>
<!-- Node15&#45;&gt;Node16 -->
<g id="edge16_Node000015_Node000016" class="edge">
<title>Node15&#45;&gt;Node16</title>
<g id="a_edge16_Node000015_Node000016"><a xlink:title=" ">
<path fill="none" stroke="#63b8ff" d="M184,-110.33C184,-103.82 184,-94.67 184,-86.37"/>
<polygon fill="#63b8ff" stroke="#63b8ff" points="187.5,-86.37 184,-76.37 180.5,-86.37 187.5,-86.37"/>
</a>
</g>
</g>
<!-- Node21&#45;&gt;Node5 -->
<g id="edge28_Node000021_Node000005" class="edge">
<title>Node21&#45;&gt;Node5</title>
<g id="a_edge28_Node000021_Node000005"><a xlink:title=" ">
<path fill="none" stroke="#63b8ff" d="M1035.58,-165.68C1023.03,-151.59 996.09,-123.98 967,-110.5 916.36,-87.04 532.88,-31.91 415.22,-15.39"/>
<polygon fill="#63b8ff" stroke="#63b8ff" points="415.95,-11.96 405.56,-14.04 414.98,-18.89 415.95,-11.96"/>
</a>
</g>
</g>
<!-- Node21&#45;&gt;Node9 -->
<g id="edge26_Node000021_Node000009" class="edge">
<title>Node21&#45;&gt;Node9</title>
<g id="a_edge26_Node000021_Node000009"><a xlink:title=" ">
<path fill="none" stroke="#63b8ff" d="M1025.36,-165.34C1009.37,-157.16 985.54,-144.96 966.96,-135.44"/>
<polygon fill="#63b8ff" stroke="#63b8ff" points="968.57,-132.33 958.08,-130.89 965.38,-138.57 968.57,-132.33"/>
</a>
</g>
</g>
<!-- Node21&#45;&gt;Node18 -->
<g id="edge29_Node000021_Node000018" class="edge">
<title>Node21&#45;&gt;Node18</title>
<g id="a_edge29_Node000021_Node000018"><a xlink:title=" ">
<path fill="none" stroke="#63b8ff" d="M1068.52,-173.71C1098.7,-171.39 1147.76,-162.46 1171,-129.75 1180.06,-117 1177.95,-98.96 1174.21,-85.3"/>
<polygon fill="#63b8ff" stroke="#63b8ff" points="1177.64,-84.53 1171.21,-76.11 1170.98,-86.7 1177.64,-84.53"/>
</a>
</g>
</g>
<!-- Node22 -->
<g id="Node000022" class="node">
<title>Node22</title>
<g id="a_Node000022"><a xlink:title=" ">
<polygon fill="#e0e0e0" stroke="#999999" points="556.38,-19.25 521.62,-19.25 521.62,0 556.38,0 556.38,-19.25"/>
<text text-anchor="middle" x="539" y="-5.75" font-family="Helvetica,sans-Serif" font-size="10.00">map</text>
</a>
</g>
</g>
<!-- Node21&#45;&gt;Node22 -->
<g id="edge25_Node000021_Node000022" class="edge">
<title>Node21&#45;&gt;Node22</title>
<g id="a_edge25_Node000021_Node000022"><a xlink:title=" ">
<path fill="none" stroke="#63b8ff" d="M1040.88,-165.54C1034.9,-142.71 1015.53,-81.69 974,-55.25 899.99,-8.14 672.5,-35.08 568.07,-18.94"/>
<polygon fill="#63b8ff" stroke="#63b8ff" points="568.81,-15.52 558.35,-17.21 567.58,-22.41 568.81,-15.52"/>
</a>
</g>
</g>
<!-- Node21&#45;&gt;Node23 -->
<g id="edge27_Node000021_Node000023" class="edge">
<title>Node21&#45;&gt;Node23</title>
<g id="a_edge27_Node000021_Node000023"><a xlink:title=" ">
<path fill="none" stroke="#63b8ff" d="M1068.46,-171.55C1156.15,-161.43 1444.45,-124.93 1521,-74.5 1538.24,-63.14 1552.14,-43.84 1560.86,-29.42"/>
<polygon fill="#63b8ff" stroke="#63b8ff" points="1563.82,-31.29 1565.74,-20.87 1557.74,-27.82 1563.82,-31.29"/>
</a>
</g>
</g>
<!-- Node24 -->
<g id="Node000024" class="node">
<title>Node24</title>
<g id="a_Node000024"><a xlink:title=" ">
<polygon fill="#e0e0e0" stroke="#999999" points="1162.12,-129.75 1089.88,-129.75 1089.88,-110.5 1162.12,-110.5 1162.12,-129.75"/>
<text text-anchor="middle" x="1126" y="-116.25" font-family="Helvetica,sans-Serif" font-size="10.00">TCollection.h</text>
</a>
</g>
</g>
<!-- Node21&#45;&gt;Node24 -->
<g id="edge30_Node000021_Node000024" class="edge">
<title>Node21&#45;&gt;Node24</title>
<g id="a_edge30_Node000021_Node000024"><a xlink:title=" ">
<path fill="none" stroke="#63b8ff" d="M1057.08,-165.34C1069.48,-157.39 1087.79,-145.64 1102.43,-136.25"/>
<polygon fill="#63b8ff" stroke="#63b8ff" points="1104.05,-139.37 1110.58,-131.02 1100.27,-133.47 1104.05,-139.37"/>
</a>
</g>
</g>
<!-- Node25 -->
<g id="Node000025" class="node">
<title>Node25</title>
<g id="a_Node000025"><a xlink:href="_globals_8h.html" target="_top" xlink:title=" ">
<polygon fill="white" stroke="#666666" points="1082.25,-74.5 1025.75,-74.5 1025.75,-55.25 1082.25,-55.25 1082.25,-74.5"/>
<text text-anchor="middle" x="1054" y="-61" font-family="Helvetica,sans-Serif" font-size="10.00">Globals.h</text>
</a>
</g>
</g>
<!-- Node21&#45;&gt;Node25 -->
<g id="edge31_Node000021_Node000025" class="edge">
<title>Node21&#45;&gt;Node25</title>
<g id="a_edge31_Node000021_Node000025"><a xlink:title=" ">
<path fill="none" stroke="#63b8ff" d="M1043.9,-165.5C1045.65,-148.25 1049.54,-109.83 1051.95,-86.06"/>
<polygon fill="#63b8ff" stroke="#63b8ff" points="1055.41,-86.68 1052.93,-76.38 1048.44,-85.98 1055.41,-86.68"/>
</a>
</g>
</g>
<!-- Node40 -->
<g id="Node000040" class="node">
<title>Node40</title>
<g id="a_Node000040"><a xlink:href="_t_singleton_8h.html" target="_top" xlink:title=" ">
<polygon fill="white" stroke="#666666" points="1303,-129.75 1233,-129.75 1233,-110.5 1303,-110.5 1303,-129.75"/>
<text text-anchor="middle" x="1268" y="-116.25" font-family="Helvetica,sans-Serif" font-size="10.00">TSingleton.h</text>
</a>
</g>
</g>
<!-- Node21&#45;&gt;Node40 -->
<g id="edge50_Node000021_Node000040" class="edge">
<title>Node21&#45;&gt;Node40</title>
<g id="a_edge50_Node000021_Node000040"><a xlink:title=" ">
<path fill="none" stroke="#63b8ff" d="M1068.37,-168.37C1105.53,-159.58 1175.37,-143.05 1221.8,-132.06"/>
<polygon fill="#63b8ff" stroke="#63b8ff" points="1222.37,-135.52 1231.3,-129.81 1220.76,-128.71 1222.37,-135.52"/>
</a>
</g>
</g>
<!-- Node25&#45;&gt;Node5 -->
<g id="edge37_Node000025_Node000005" class="edge">
<title>Node25&#45;&gt;Node5</title>
<g id="a_edge37_Node000025_Node000005"><a xlink:title=" ">
<path fill="none" stroke="#63b8ff" d="M1025.52,-60.54C1010.25,-58.82 991.12,-56.77 974,-55.25 743.68,-34.85 685.23,-40.64 455,-19.25 442.02,-18.04 427.79,-16.45 415.31,-14.96"/>
<polygon fill="#63b8ff" stroke="#63b8ff" points="415.82,-11.5 405.47,-13.77 414.98,-18.45 415.82,-11.5"/>
</a>
</g>
</g>
<!-- Node25&#45;&gt;Node7 -->
<g id="edge35_Node000025_Node000007" class="edge">
<title>Node25&#45;&gt;Node7</title>
<g id="a_edge35_Node000025_Node000007"><a xlink:title=" ">
<path fill="none" stroke="#63b8ff" d="M1025.51,-60.6C1010.24,-58.89 991.11,-56.84 974,-55.25 773.07,-36.58 717.07,-56.02 515.73,-19.37"/>
<polygon fill="#63b8ff" stroke="#63b8ff" points="516.42,-15.94 505.95,-17.57 515.15,-22.83 516.42,-15.94"/>
</a>
</g>
</g>
<!-- Node25&#45;&gt;Node22 -->
<g id="edge45_Node000025_Node000022" class="edge">
<title>Node25&#45;&gt;Node22</title>
<g id="a_edge45_Node000025_Node000022"><a xlink:title=" ">
<path fill="none" stroke="#63b8ff" d="M1025.62,-57.56C1021.08,-56.69 1016.42,-55.88 1012,-55.25 818.77,-27.72 763.16,-56.64 568.08,-19.16"/>
<polygon fill="#63b8ff" stroke="#63b8ff" points="568.83,-15.74 558.34,-17.25 567.48,-22.61 568.83,-15.74"/>
</a>
</g>
</g>
<!-- Node25&#45;&gt;Node23 -->
<g id="edge32_Node000025_Node000023" class="edge">
<title>Node25&#45;&gt;Node23</title>
<g id="a_edge32_Node000025_Node000023"><a xlink:title=" ">
<path fill="none" stroke="#63b8ff" d="M1082.39,-57.56C1086.92,-56.69 1091.58,-55.88 1096,-55.25 1286.19,-28.02 1339.71,-49.32 1532.86,-19.33"/>
<polygon fill="#63b8ff" stroke="#63b8ff" points="1533.14,-22.83 1542.47,-17.81 1532.04,-15.91 1533.14,-22.83"/>
</a>
</g>
</g>
<!-- Node26 -->
<g id="Node000026" class="node">
<title>Node26</title>
<g id="a_Node000026"><a xlink:title=" ">
<polygon fill="#e0e0e0" stroke="#999999" points="1449.88,-19.25 1400.12,-19.25 1400.12,0 1449.88,0 1449.88,-19.25"/>
<text text-anchor="middle" x="1425" y="-5.75" font-family="Helvetica,sans-Serif" font-size="10.00">iomanip</text>
</a>
</g>
</g>
<!-- Node25&#45;&gt;Node26 -->
<g id="edge33_Node000025_Node000026" class="edge">
<title>Node25&#45;&gt;Node26</title>
<g id="a_edge33_Node000025_Node000026"><a xlink:title=" ">
<path fill="none" stroke="#63b8ff" d="M1082.41,-57.72C1086.94,-56.83 1091.59,-55.97 1096,-55.25 1222.79,-34.53 1259.19,-43.04 1388.68,-19.46"/>
<polygon fill="#63b8ff" stroke="#63b8ff" points="1389.15,-22.93 1398.34,-17.67 1387.87,-16.05 1389.15,-22.93"/>
</a>
</g>
</g>
<!-- Node27 -->
<g id="Node000027" class="node">
<title>Node27</title>
<g id="a_Node000027"><a xlink:title=" ">
<polygon fill="#e0e0e0" stroke="#999999" points="1526,-19.25 1468,-19.25 1468,0 1526,0 1526,-19.25"/>
<text text-anchor="middle" x="1497" y="-5.75" font-family="Helvetica,sans-Serif" font-size="10.00">stdexcept</text>
</a>
</g>
</g>
<!-- Node25&#45;&gt;Node27 -->
<g id="edge34_Node000025_Node000027" class="edge">
<title>Node25&#45;&gt;Node27</title>
<g id="a_edge34_Node000025_Node000027"><a xlink:title=" ">
<path fill="none" stroke="#63b8ff" d="M1082.39,-57.63C1086.93,-56.75 1091.58,-55.92 1096,-55.25 1252.69,-31.46 1297,-44.62 1456.44,-19.47"/>
<polygon fill="#63b8ff" stroke="#63b8ff" points="1456.8,-22.96 1466.12,-17.91 1455.69,-16.05 1456.8,-22.96"/>
</a>
</g>
</g>
<!-- Node28 -->
<g id="Node000028" class="node">
<title>Node28</title>
<g id="a_Node000028"><a xlink:title=" ">
<polygon fill="#e0e0e0" stroke="#999999" points="617.12,-19.25 574.88,-19.25 574.88,0 617.12,0 617.12,-19.25"/>
<text text-anchor="middle" x="596" y="-5.75" font-family="Helvetica,sans-Serif" font-size="10.00">cstdio</text>
</a>
</g>
</g>
<!-- Node25&#45;&gt;Node28 -->
<g id="edge36_Node000025_Node000028" class="edge">
<title>Node25&#45;&gt;Node28</title>
<g id="a_edge36_Node000025_Node000028"><a xlink:title=" ">
<path fill="none" stroke="#63b8ff" d="M1025.61,-57.61C1021.07,-56.73 1016.42,-55.91 1012,-55.25 845.24,-30.43 797.36,-50.3 628.79,-19.44"/>
<polygon fill="#63b8ff" stroke="#63b8ff" points="629.47,-16.01 619,-17.61 628.19,-22.89 629.47,-16.01"/>
</a>
</g>
</g>
<!-- Node29 -->
<g id="Node000029" class="node">
<title>Node29</title>
<g id="a_Node000029"><a xlink:title=" ">
<polygon fill="#e0e0e0" stroke="#999999" points="679.25,-19.25 634.75,-19.25 634.75,0 679.25,0 679.25,-19.25"/>
<text text-anchor="middle" x="657" y="-5.75" font-family="Helvetica,sans-Serif" font-size="10.00">cstdlib</text>
</a>
</g>
</g>
<!-- Node25&#45;&gt;Node29 -->
<g id="edge38_Node000025_Node000029" class="edge">
<title>Node25&#45;&gt;Node29</title>
<g id="a_edge38_Node000025_Node000029"><a xlink:title=" ">
<path fill="none" stroke="#63b8ff" d="M1025.6,-57.67C1021.06,-56.79 1016.41,-55.95 1012,-55.25 872.52,-33.23 832.28,-46.06 690.85,-19.52"/>
<polygon fill="#63b8ff" stroke="#63b8ff" points="691.55,-16.09 681.07,-17.65 690.24,-22.96 691.55,-16.09"/>
</a>
</g>
</g>
<!-- Node30 -->
<g id="Node000030" class="node">
<title>Node30</title>
<g id="a_Node000030"><a xlink:title=" ">
<polygon fill="#e0e0e0" stroke="#999999" points="756.75,-19.25 697.25,-19.25 697.25,0 756.75,0 756.75,-19.25"/>
<text text-anchor="middle" x="727" y="-5.75" font-family="Helvetica,sans-Serif" font-size="10.00">execinfo.h</text>
</a>
</g>
</g>
<!-- Node25&#45;&gt;Node30 -->
<g id="edge39_Node000025_Node000030" class="edge">
<title>Node25&#45;&gt;Node30</title>
<g id="a_edge39_Node000025_Node000030"><a xlink:title=" ">
<path fill="none" stroke="#63b8ff" d="M1025.58,-57.81C1021.04,-56.91 1016.4,-56.02 1012,-55.25 906.68,-36.74 876.6,-39.02 768.28,-19.55"/>
<polygon fill="#63b8ff" stroke="#63b8ff" points="769.14,-16.15 758.68,-17.8 767.89,-23.03 769.14,-16.15"/>
</a>
</g>
</g>
<!-- Node31 -->
<g id="Node000031" class="node">
<title>Node31</title>
<g id="a_Node000031"><a xlink:title=" ">
<polygon fill="#e0e0e0" stroke="#999999" points="825.25,-19.25 774.75,-19.25 774.75,0 825.25,0 825.25,-19.25"/>
<text text-anchor="middle" x="800" y="-5.75" font-family="Helvetica,sans-Serif" font-size="10.00">cxxabi.h</text>
</a>
</g>
</g>
<!-- Node25&#45;&gt;Node31 -->
<g id="edge40_Node000025_Node000031" class="edge">
<title>Node25&#45;&gt;Node31</title>
<g id="a_edge40_Node000025_Node000031"><a xlink:title=" ">
<path fill="none" stroke="#63b8ff" d="M1025.54,-58.02C1021.01,-57.09 1016.38,-56.14 1012,-55.25 936.31,-39.82 914.54,-37.37 836.46,-19.73"/>
<polygon fill="#63b8ff" stroke="#63b8ff" points="837.59,-16.4 827.06,-17.59 836.04,-23.22 837.59,-16.4"/>
</a>
</g>
</g>
<!-- Node32 -->
<g id="Node000032" class="node">
<title>Node32</title>
<g id="a_Node000032"><a xlink:title=" ">
<polygon fill="#e0e0e0" stroke="#999999" points="894.62,-19.25 843.38,-19.25 843.38,0 894.62,0 894.62,-19.25"/>
<text text-anchor="middle" x="869" y="-5.75" font-family="Helvetica,sans-Serif" font-size="10.00">sstream</text>
</a>
</g>
</g>
<!-- Node25&#45;&gt;Node32 -->
<g id="edge41_Node000025_Node000032" class="edge">
<title>Node25&#45;&gt;Node32</title>
<g id="a_edge41_Node000025_Node000032"><a xlink:title=" ">
<path fill="none" stroke="#63b8ff" d="M1025.5,-55.67C993.31,-46.41 940.83,-31.3 905.62,-21.17"/>
<polygon fill="#63b8ff" stroke="#63b8ff" points="906.88,-17.89 896.3,-18.48 904.94,-24.61 906.88,-17.89"/>
</a>
</g>
</g>
<!-- Node33 -->
<g id="Node000033" class="node">
<title>Node33</title>
<g id="a_Node000033"><a xlink:title=" ">
<polygon fill="#e0e0e0" stroke="#999999" points="949.5,-19.25 912.5,-19.25 912.5,0 949.5,0 949.5,-19.25"/>
<text text-anchor="middle" x="931" y="-5.75" font-family="Helvetica,sans-Serif" font-size="10.00">array</text>
</a>
</g>
</g>
<!-- Node25&#45;&gt;Node33 -->
<g id="edge42_Node000025_Node000033" class="edge">
<title>Node25&#45;&gt;Node33</title>
<g id="a_edge42_Node000025_Node000033"><a xlink:title=" ">
<path fill="none" stroke="#63b8ff" d="M1033.13,-54.84C1013.11,-46.17 982.68,-33 960.24,-23.28"/>
<polygon fill="#63b8ff" stroke="#63b8ff" points="961.9,-20.19 951.33,-19.43 959.12,-26.61 961.9,-20.19"/>
</a>
</g>
</g>
<!-- Node34 -->
<g id="Node000034" class="node">
<title>Node34</title>
<g id="a_Node000034"><a xlink:title=" ">
<polygon fill="#e0e0e0" stroke="#999999" points="1018.25,-19.25 967.75,-19.25 967.75,0 1018.25,0 1018.25,-19.25"/>
<text text-anchor="middle" x="993" y="-5.75" font-family="Helvetica,sans-Serif" font-size="10.00">memory</text>
</a>
</g>
</g>
<!-- Node25&#45;&gt;Node34 -->
<g id="edge43_Node000025_Node000034" class="edge">
<title>Node25&#45;&gt;Node34</title>
<g id="a_edge43_Node000025_Node000034"><a xlink:title=" ">
<path fill="none" stroke="#63b8ff" d="M1043.65,-54.84C1034.92,-47.22 1022.21,-36.12 1011.7,-26.95"/>
<polygon fill="#63b8ff" stroke="#63b8ff" points="1014.17,-24.46 1004.34,-20.52 1009.57,-29.73 1014.17,-24.46"/>
</a>
</g>
</g>
<!-- Node35 -->
<g id="Node000035" class="node">
<title>Node35</title>
<g id="a_Node000035"><a xlink:title=" ">
<polygon fill="#e0e0e0" stroke="#999999" points="1085.88,-19.25 1036.12,-19.25 1036.12,0 1085.88,0 1085.88,-19.25"/>
<text text-anchor="middle" x="1061" y="-5.75" font-family="Helvetica,sans-Serif" font-size="10.00">unistd.h</text>
</a>
</g>
</g>
<!-- Node25&#45;&gt;Node35 -->
<g id="edge44_Node000025_Node000035" class="edge">
<title>Node25&#45;&gt;Node35</title>
<g id="a_edge44_Node000025_Node000035"><a xlink:title=" ">
<path fill="none" stroke="#63b8ff" d="M1055.16,-55.08C1056.02,-48.49 1057.24,-39.21 1058.34,-30.82"/>
<polygon fill="#63b8ff" stroke="#63b8ff" points="1061.79,-31.48 1059.62,-21.11 1054.85,-30.57 1061.79,-31.48"/>
</a>
</g>
</g>
<!-- Node36 -->
<g id="Node000036" class="node">
<title>Node36</title>
<g id="a_Node000036"><a xlink:title=" ">
<polygon fill="#e0e0e0" stroke="#999999" points="1152.5,-19.25 1103.5,-19.25 1103.5,0 1152.5,0 1152.5,-19.25"/>
<text text-anchor="middle" x="1128" y="-5.75" font-family="Helvetica,sans-Serif" font-size="10.00">fstream</text>
</a>
</g>
</g>
<!-- Node25&#45;&gt;Node36 -->
<g id="edge46_Node000025_Node000036" class="edge">
<title>Node25&#45;&gt;Node36</title>
<g id="a_edge46_Node000025_Node000036"><a xlink:title=" ">
<path fill="none" stroke="#63b8ff" d="M1066.55,-54.84C1077.46,-46.99 1093.5,-35.45 1106.46,-26.12"/>
<polygon fill="#63b8ff" stroke="#63b8ff" points="1108.33,-29.09 1114.4,-20.41 1104.24,-23.41 1108.33,-29.09"/>
</a>
</g>
</g>
<!-- Node37 -->
<g id="Node000037" class="node">
<title>Node37</title>
<g id="a_Node000037"><a xlink:title=" ">
<polygon fill="#e0e0e0" stroke="#999999" points="1225.88,-19.25 1170.12,-19.25 1170.12,0 1225.88,0 1225.88,-19.25"/>
<text text-anchor="middle" x="1198" y="-5.75" font-family="Helvetica,sans-Serif" font-size="10.00">algorithm</text>
</a>
</g>
</g>
<!-- Node25&#45;&gt;Node37 -->
<g id="edge47_Node000025_Node000037" class="edge">
<title>Node25&#45;&gt;Node37</title>
<g id="a_edge47_Node000025_Node000037"><a xlink:title=" ">
<path fill="none" stroke="#63b8ff" d="M1078.43,-54.84C1101.6,-46.27 1136.66,-33.31 1162.84,-23.63"/>
<polygon fill="#63b8ff" stroke="#63b8ff" points="1163.87,-26.98 1172.03,-20.23 1161.44,-20.41 1163.87,-26.98"/>
</a>
</g>
</g>
<!-- Node38 -->
<g id="Node000038" class="node">
<title>Node38</title>
<g id="a_Node000038"><a xlink:title=" ">
<polygon fill="#e0e0e0" stroke="#999999" points="1303.75,-19.25 1244.25,-19.25 1244.25,0 1303.75,0 1303.75,-19.25"/>
<text text-anchor="middle" x="1274" y="-5.75" font-family="Helvetica,sans-Serif" font-size="10.00">sys/wait.h</text>
</a>
</g>
</g>
<!-- Node25&#45;&gt;Node38 -->
<g id="edge48_Node000025_Node000038" class="edge">
<title>Node25&#45;&gt;Node38</title>
<g id="a_edge48_Node000025_Node000038"><a xlink:title=" ">
<path fill="none" stroke="#63b8ff" d="M1082.31,-57.02C1120.56,-47.77 1188.98,-31.2 1232.89,-20.57"/>
<polygon fill="#63b8ff" stroke="#63b8ff" points="1233.67,-23.99 1242.57,-18.23 1232.03,-17.18 1233.67,-23.99"/>
</a>
</g>
</g>
<!-- Node39 -->
<g id="Node000039" class="node">
<title>Node39</title>
<g id="a_Node000039"><a xlink:title=" ">
<polygon fill="#e0e0e0" stroke="#999999" points="1382.12,-19.25 1321.88,-19.25 1321.88,0 1382.12,0 1382.12,-19.25"/>
<text text-anchor="middle" x="1352" y="-5.75" font-family="Helvetica,sans-Serif" font-size="10.00">sys/prctl.h</text>
</a>
</g>
</g>
<!-- Node25&#45;&gt;Node39 -->
<g id="edge49_Node000025_Node000039" class="edge">
<title>Node25&#45;&gt;Node39</title>
<g id="a_edge49_Node000025_Node000039"><a xlink:title=" ">
<path fill="none" stroke="#63b8ff" d="M1082.44,-57.88C1086.97,-56.97 1091.61,-56.06 1096,-55.25 1188.55,-38.08 1215.07,-37.81 1310.08,-19.73"/>
<polygon fill="#63b8ff" stroke="#63b8ff" points="1310.73,-23.17 1319.89,-17.84 1309.41,-16.3 1310.73,-23.17"/>
</a>
</g>
</g>
<!-- Node40&#45;&gt;Node18 -->
<g id="edge52_Node000040_Node000018" class="edge">
<title>Node40&#45;&gt;Node18</title>
<g id="a_edge52_Node000040_Node000018"><a xlink:title=" ">
<path fill="none" stroke="#63b8ff" d="M1250.87,-110.09C1235.34,-101.91 1212.2,-89.71 1194.16,-80.19"/>
<polygon fill="#63b8ff" stroke="#63b8ff" points="1196.03,-77.23 1185.56,-75.66 1192.77,-83.42 1196.03,-77.23"/>
</a>
</g>
</g>
<!-- Node40&#45;&gt;Node23 -->
<g id="edge51_Node000040_Node000023" class="edge">
<title>Node40&#45;&gt;Node23</title>
<g id="a_edge51_Node000040_Node000023"><a xlink:title=" ">
<path fill="none" stroke="#63b8ff" d="M1259.34,-110.27C1247.34,-96.92 1228.64,-71.49 1243,-55.25 1284.28,-8.57 1453.69,-28.74 1532.93,-19.1"/>
<polygon fill="#63b8ff" stroke="#63b8ff" points="1533.07,-22.62 1542.45,-17.68 1532.04,-15.7 1533.07,-22.62"/>
</a>
</g>
</g>
<!-- Node40&#45;&gt;Node25 -->
<g id="edge57_Node000040_Node000025" class="edge">
<title>Node40&#45;&gt;Node25</title>
<g id="a_edge57_Node000040_Node000025"><a xlink:title=" ">
<path fill="none" stroke="#63b8ff" d="M1232.66,-110.33C1194.41,-100.81 1133.55,-85.67 1093.69,-75.75"/>
<polygon fill="#63b8ff" stroke="#63b8ff" points="1094.55,-72.36 1084,-73.34 1092.86,-79.15 1094.55,-72.36"/>
</a>
</g>
</g>
<!-- Node41 -->
<g id="Node000041" class="node">
<title>Node41</title>
<g id="a_Node000041"><a xlink:title=" ">
<polygon fill="#e0e0e0" stroke="#999999" points="1383.88,-74.5 1316.12,-74.5 1316.12,-55.25 1383.88,-55.25 1383.88,-74.5"/>
<text text-anchor="middle" x="1350" y="-61" font-family="Helvetica,sans-Serif" font-size="10.00">TDirectory.h</text>
</a>
</g>
</g>
<!-- Node40&#45;&gt;Node41 -->
<g id="edge53_Node000040_Node000041" class="edge">
<title>Node40&#45;&gt;Node41</title>
<g id="a_edge53_Node000040_Node000041"><a xlink:title=" ">
<path fill="none" stroke="#63b8ff" d="M1281.91,-110.09C1294.16,-102.14 1312.25,-90.39 1326.71,-81"/>
<polygon fill="#63b8ff" stroke="#63b8ff" points="1328.27,-84.16 1334.75,-75.78 1324.46,-78.29 1328.27,-84.16"/>
</a>
</g>
</g>
<!-- Node42 -->
<g id="Node000042" class="node">
<title>Node42</title>
<g id="a_Node000042"><a xlink:title=" ">
<polygon fill="#e0e0e0" stroke="#999999" points="1447.62,-74.5 1402.38,-74.5 1402.38,-55.25 1447.62,-55.25 1447.62,-74.5"/>
<text text-anchor="middle" x="1425" y="-61" font-family="Helvetica,sans-Serif" font-size="10.00">TFile.h</text>
</a>
</g>
</g>
<!-- Node40&#45;&gt;Node42 -->
<g id="edge54_Node000040_Node000042" class="edge">
<title>Node40&#45;&gt;Node42</title>
<g id="a_edge54_Node000040_Node000042"><a xlink:title=" ">
<path fill="none" stroke="#63b8ff" d="M1294.63,-110.09C1321.36,-101.03 1362.59,-87.04 1391.52,-77.23"/>
<polygon fill="#63b8ff" stroke="#63b8ff" points="1392.54,-80.58 1400.89,-74.05 1390.29,-73.95 1392.54,-80.58"/>
</a>
</g>
</g>
<!-- Node43 -->
<g id="Node000043" class="node">
<title>Node43</title>
<g id="a_Node000043"><a xlink:title=" ">
<polygon fill="#e0e0e0" stroke="#999999" points="1512,-74.5 1466,-74.5 1466,-55.25 1512,-55.25 1512,-74.5"/>
<text text-anchor="middle" x="1489" y="-61" font-family="Helvetica,sans-Serif" font-size="10.00">TList.h</text>
</a>
</g>
</g>
<!-- Node40&#45;&gt;Node43 -->
<g id="edge55_Node000040_Node000043" class="edge">
<title>Node40&#45;&gt;Node43</title>
<g id="a_edge55_Node000040_Node000043"><a xlink:title=" ">
<path fill="none" stroke="#63b8ff" d="M1303.26,-111.15C1339.06,-102.97 1396.34,-89.68 1454.7,-75.02"/>
<polygon fill="#63b8ff" stroke="#63b8ff" points="1455.3,-78.48 1464.14,-72.64 1453.58,-71.7 1455.3,-78.48"/>
</a>
</g>
</g>
<!-- Node44 -->
<g id="Node000044" class="node">
<title>Node44</title>
<g id="a_Node000044"><a xlink:title=" ">
<polygon fill="#e0e0e0" stroke="#999999" points="1298,-74.5 1252,-74.5 1252,-55.25 1298,-55.25 1298,-74.5"/>
<text text-anchor="middle" x="1275" y="-61" font-family="Helvetica,sans-Serif" font-size="10.00">TKey.h</text>
</a>
</g>
</g>
<!-- Node40&#45;&gt;Node44 -->
<g id="edge56_Node000040_Node000044" class="edge">
<title>Node40&#45;&gt;Node44</title>
<g id="a_edge56_Node000040_Node000044"><a xlink:title=" ">
<path fill="none" stroke="#63b8ff" d="M1269.16,-110.33C1270.02,-103.74 1271.24,-94.46 1272.34,-86.07"/>
<polygon fill="#63b8ff" stroke="#63b8ff" points="1275.79,-86.73 1273.62,-76.36 1268.85,-85.82 1275.79,-86.73"/>
</a>
</g>
</g>
<!-- Node45&#45;&gt;Node23 -->
<g id="edge59_Node000045_Node000023" class="edge">
<title>Node45&#45;&gt;Node23</title>
<g id="a_edge59_Node000045_Node000023"><a xlink:title=" ">
<path fill="none" stroke="#63b8ff" d="M756.78,-165.38C784.68,-151.62 840.77,-125.38 891,-110.5 977.6,-84.85 1005.37,-103.21 1091,-74.5 1108.95,-68.48 1110.8,-60.46 1129,-55.25 1299.68,-6.42 1354.04,-46.75 1532.84,-19.32"/>
<polygon fill="#63b8ff" stroke="#63b8ff" points="1533.14,-22.82 1542.46,-17.79 1532.04,-15.9 1533.14,-22.82"/>
</a>
</g>
</g>
<!-- Node46 -->
<g id="Node000046" class="node">
<title>Node46</title>
<g id="a_Node000046"><a xlink:title=" ">
<polygon fill="#e0e0e0" stroke="#999999" points="825.88,-129.75 752.12,-129.75 752.12,-110.5 825.88,-110.5 825.88,-129.75"/>
<text text-anchor="middle" x="789" y="-116.25" font-family="Helvetica,sans-Serif" font-size="10.00">RtypesCore.h</text>
</a>
</g>
</g>
<!-- Node45&#45;&gt;Node46 -->
<g id="edge60_Node000045_Node000046" class="edge">
<title>Node45&#45;&gt;Node46</title>
<g id="a_edge60_Node000045_Node000046"><a xlink:title=" ">
<path fill="none" stroke="#63b8ff" d="M747.26,-165.58C754.16,-158.23 764.22,-147.51 772.74,-138.44"/>
<polygon fill="#63b8ff" stroke="#63b8ff" points="775.23,-140.9 779.53,-131.21 770.13,-136.11 775.23,-140.9"/>
</a>
</g>
</g>
</g>
</svg>
