<?xml version="1.0" encoding="UTF-8" standalone="no"?>
<!DOCTYPE svg PUBLIC "-//W3C//DTD SVG 1.1//EN"
 "http://www.w3.org/Graphics/SVG/1.1/DTD/svg11.dtd">
<!-- Generated by graphviz version 12.2.0 (20241103.1931)
 -->
<!-- Title: TILLMnemonic.h Pages: 1 -->
<svg width="587pt" height="83pt"
 viewBox="0.00 0.00 586.75 82.50" xmlns="http://www.w3.org/2000/svg" xmlns:xlink="http://www.w3.org/1999/xlink">
<g id="graph0" class="graph" transform="scale(1 1) rotate(0) translate(4 78.5)">
<title>TILLMnemonic.h</title>
<!-- Node1 -->
<g id="Node000001" class="node">
<title>Node1</title>
<g id="a_Node000001"><a xlink:title=" ">
<polygon fill="#999999" stroke="#666666" points="350.25,-74.5 260.75,-74.5 260.75,-55.25 350.25,-55.25 350.25,-74.5"/>
<text text-anchor="middle" x="305.5" y="-61" font-family="Helvetica,sans-Serif" font-size="10.00">TILLMnemonic.h</text>
</a>
</g>
</g>
<!-- Node2 -->
<g id="Node000002" class="node">
<title>Node2</title>
<g id="a_Node000002"><a xlink:href="_i_l_l_data_library_8cxx.html" target="_top" xlink:title=" ">
<polygon fill="white" stroke="#666666" points="97,-19.25 0,-19.25 0,0 97,0 97,-19.25"/>
<text text-anchor="middle" x="48.5" y="-5.75" font-family="Helvetica,sans-Serif" font-size="10.00">ILLDataLibrary.cxx</text>
</a>
</g>
</g>
<!-- Node1&#45;&gt;Node2 -->
<g id="edge1_Node000001_Node000002" class="edge">
<title>Node1&#45;&gt;Node2</title>
<g id="a_edge1_Node000001_Node000002"><a xlink:title=" ">
<path fill="none" stroke="#63b8ff" d="M250.35,-52.45C203.06,-42.65 135.85,-28.72 92.21,-19.68"/>
<polygon fill="#63b8ff" stroke="#63b8ff" points="249.63,-55.87 260.13,-54.47 251.05,-49.02 249.63,-55.87"/>
</a>
</g>
</g>
<!-- Node3 -->
<g id="Node000003" class="node">
<title>Node3</title>
<g id="a_Node000003"><a xlink:href="_t_i_l_l_data_parser_8cxx.html" target="_top" xlink:title=" ">
<polygon fill="white" stroke="#666666" points="217.62,-19.25 115.38,-19.25 115.38,0 217.62,0 217.62,-19.25"/>
<text text-anchor="middle" x="166.5" y="-5.75" font-family="Helvetica,sans-Serif" font-size="10.00">TILLDataParser.cxx</text>
</a>
</g>
</g>
<!-- Node1&#45;&gt;Node3 -->
<g id="edge2_Node000001_Node000003" class="edge">
<title>Node1&#45;&gt;Node3</title>
<g id="a_edge2_Node000001_Node000003"><a xlink:title=" ">
<path fill="none" stroke="#63b8ff" d="M271.35,-50.79C246.15,-41.14 212.5,-28.25 190.2,-19.7"/>
<polygon fill="#63b8ff" stroke="#63b8ff" points="269.92,-53.99 280.51,-54.3 272.42,-47.45 269.92,-53.99"/>
</a>
</g>
</g>
<!-- Node4 -->
<g id="Node000004" class="node">
<title>Node4</title>
<g id="a_Node000004"><a xlink:href="_t_i_l_l_detector_information_8cxx.html" target="_top" xlink:title=" ">
<polygon fill="white" stroke="#666666" points="375,-19.25 236,-19.25 236,0 375,0 375,-19.25"/>
<text text-anchor="middle" x="305.5" y="-5.75" font-family="Helvetica,sans-Serif" font-size="10.00">TILLDetectorInformation.cxx</text>
</a>
</g>
</g>
<!-- Node1&#45;&gt;Node4 -->
<g id="edge3_Node000001_Node000004" class="edge">
<title>Node1&#45;&gt;Node4</title>
<g id="a_edge3_Node000001_Node000004"><a xlink:title=" ">
<path fill="none" stroke="#63b8ff" d="M305.5,-43.63C305.5,-35.34 305.5,-26.17 305.5,-19.61"/>
<polygon fill="#63b8ff" stroke="#63b8ff" points="302,-43.57 305.5,-53.57 309,-43.57 302,-43.57"/>
</a>
</g>
</g>
<!-- Node5 -->
<g id="Node000005" class="node">
<title>Node5</title>
<g id="a_Node000005"><a xlink:href="_t_i_l_l_mnemonic_8cxx.html" target="_top" xlink:title=" ">
<polygon fill="white" stroke="#666666" points="491.75,-19.25 393.25,-19.25 393.25,0 491.75,0 491.75,-19.25"/>
<text text-anchor="middle" x="442.5" y="-5.75" font-family="Helvetica,sans-Serif" font-size="10.00">TILLMnemonic.cxx</text>
</a>
</g>
</g>
<!-- Node1&#45;&gt;Node5 -->
<g id="edge4_Node000001_Node000005" class="edge">
<title>Node1&#45;&gt;Node5</title>
<g id="a_edge4_Node000001_Node000005"><a xlink:title=" ">
<path fill="none" stroke="#63b8ff" d="M339.16,-50.79C363.99,-41.14 397.16,-28.25 419.15,-19.7"/>
<polygon fill="#63b8ff" stroke="#63b8ff" points="338.2,-47.41 330.15,-54.29 340.74,-53.93 338.2,-47.41"/>
</a>
</g>
</g>
<!-- Node6 -->
<g id="Node000006" class="node">
<title>Node6</title>
<g id="a_Node000006"><a xlink:href="_t_lst_file_8cxx.html" target="_top" xlink:title=" ">
<polygon fill="white" stroke="#666666" points="578.75,-19.25 510.25,-19.25 510.25,0 578.75,0 578.75,-19.25"/>
<text text-anchor="middle" x="544.5" y="-5.75" font-family="Helvetica,sans-Serif" font-size="10.00">TLstFile.cxx</text>
</a>
</g>
</g>
<!-- Node1&#45;&gt;Node6 -->
<g id="edge5_Node000001_Node000006" class="edge">
<title>Node1&#45;&gt;Node6</title>
<g id="a_edge5_Node000001_Node000006"><a xlink:title=" ">
<path fill="none" stroke="#63b8ff" d="M357.32,-52.33C403.58,-42.02 470.03,-27.22 510.06,-18.3"/>
<polygon fill="#63b8ff" stroke="#63b8ff" points="356.79,-48.86 347.79,-54.45 358.31,-55.69 356.79,-48.86"/>
</a>
</g>
</g>
</g>
</svg>
