<?xml version="1.0" encoding="UTF-8" standalone="no"?>
<!DOCTYPE svg PUBLIC "-//W3C//DTD SVG 1.1//EN"
 "http://www.w3.org/Graphics/SVG/1.1/DTD/svg11.dtd">
<!-- Generated by graphviz version 12.2.0 (20241103.1931)
 -->
<!-- Title: TKinematics.cxx Pages: 1 -->
<svg width="1361pt" height="248pt"
 viewBox="0.00 0.00 1360.85 248.25" xmlns="http://www.w3.org/2000/svg" xmlns:xlink="http://www.w3.org/1999/xlink">
<g id="graph0" class="graph" transform="scale(1 1) rotate(0) translate(4 244.25)">
<title>TKinematics.cxx</title>
<!-- Node1 -->
<g id="Node000001" class="node">
<title>Node1</title>
<g id="a_Node000001"><a xlink:title=" ">
<polygon fill="#999999" stroke="#666666" points="889.97,-240.25 802.72,-240.25 802.72,-221 889.97,-221 889.97,-240.25"/>
<text text-anchor="middle" x="846.35" y="-226.75" font-family="Helvetica,sans-Serif" font-size="10.00">TKinematics.cxx</text>
</a>
</g>
</g>
<!-- Node2 -->
<g id="Node000002" class="node">
<title>Node2</title>
<g id="a_Node000002"><a xlink:href="_t_kinematics_8h.html" target="_top" xlink:title=" ">
<polygon fill="white" stroke="#666666" points="1168.47,-185 1090.22,-185 1090.22,-165.75 1168.47,-165.75 1168.47,-185"/>
<text text-anchor="middle" x="1129.35" y="-171.5" font-family="Helvetica,sans-Serif" font-size="10.00">TKinematics.h</text>
</a>
</g>
</g>
<!-- Node1&#45;&gt;Node2 -->
<g id="edge1_Node000001_Node000002" class="edge">
<title>Node1&#45;&gt;Node2</title>
<g id="a_edge1_Node000001_Node000002"><a xlink:title=" ">
<path fill="none" stroke="#63b8ff" d="M890.25,-221.36C941.17,-211.78 1024.95,-196.02 1078.6,-185.92"/>
<polygon fill="#63b8ff" stroke="#63b8ff" points="1079.24,-189.37 1088.42,-184.08 1077.94,-182.49 1079.24,-189.37"/>
</a>
</g>
</g>
<!-- Node16 -->
<g id="Node000016" class="node">
<title>Node16</title>
<g id="a_Node000016"><a xlink:href="_globals_8h.html" target="_top" xlink:title=" ">
<polygon fill="white" stroke="#666666" points="523.6,-129.75 467.1,-129.75 467.1,-110.5 523.6,-110.5 523.6,-129.75"/>
<text text-anchor="middle" x="495.35" y="-116.25" font-family="Helvetica,sans-Serif" font-size="10.00">Globals.h</text>
</a>
</g>
</g>
<!-- Node1&#45;&gt;Node16 -->
<g id="edge16_Node000001_Node000016" class="edge">
<title>Node1&#45;&gt;Node16</title>
<g id="a_edge16_Node000001_Node000016"><a xlink:title=" ">
<path fill="none" stroke="#63b8ff" d="M817.02,-220.56C754,-201.08 605.58,-155.2 534.56,-133.25"/>
<polygon fill="#63b8ff" stroke="#63b8ff" points="535.88,-129.99 525.29,-130.38 533.81,-136.68 535.88,-129.99"/>
</a>
</g>
</g>
<!-- Node3 -->
<g id="Node000003" class="node">
<title>Node3</title>
<g id="a_Node000003"><a xlink:title=" ">
<polygon fill="#e0e0e0" stroke="#999999" points="1352.85,-74.5 1291.85,-74.5 1291.85,-55.25 1352.85,-55.25 1352.85,-74.5"/>
<text text-anchor="middle" x="1322.35" y="-61" font-family="Helvetica,sans-Serif" font-size="10.00">TNamed.h</text>
</a>
</g>
</g>
<!-- Node2&#45;&gt;Node3 -->
<g id="edge2_Node000002_Node000003" class="edge">
<title>Node2&#45;&gt;Node3</title>
<g id="a_edge2_Node000002_Node000003"><a xlink:title=" ">
<path fill="none" stroke="#63b8ff" d="M1168.7,-169.78C1216.23,-163.4 1292.21,-150.27 1311.35,-129.75 1322.16,-118.16 1324.4,-99.98 1324.23,-85.98"/>
<polygon fill="#63b8ff" stroke="#63b8ff" points="1327.73,-85.89 1323.66,-76.11 1320.75,-86.29 1327.73,-85.89"/>
</a>
</g>
</g>
<!-- Node4 -->
<g id="Node000004" class="node">
<title>Node4</title>
<g id="a_Node000004"><a xlink:title=" ">
<polygon fill="#e0e0e0" stroke="#999999" points="1120.6,-129.75 1064.1,-129.75 1064.1,-110.5 1120.6,-110.5 1120.6,-129.75"/>
<text text-anchor="middle" x="1092.35" y="-116.25" font-family="Helvetica,sans-Serif" font-size="10.00">TSpline.h</text>
</a>
</g>
</g>
<!-- Node2&#45;&gt;Node4 -->
<g id="edge3_Node000002_Node000004" class="edge">
<title>Node2&#45;&gt;Node4</title>
<g id="a_edge3_Node000002_Node000004"><a xlink:title=" ">
<path fill="none" stroke="#63b8ff" d="M1123.24,-165.58C1118.29,-158.46 1111.14,-148.18 1104.97,-139.3"/>
<polygon fill="#63b8ff" stroke="#63b8ff" points="1108.03,-137.57 1099.45,-131.35 1102.28,-141.56 1108.03,-137.57"/>
</a>
</g>
</g>
<!-- Node5 -->
<g id="Node000005" class="node">
<title>Node5</title>
<g id="a_Node000005"><a xlink:title=" ">
<polygon fill="#e0e0e0" stroke="#999999" points="1194.22,-129.75 1138.47,-129.75 1138.47,-110.5 1194.22,-110.5 1194.22,-129.75"/>
<text text-anchor="middle" x="1166.35" y="-116.25" font-family="Helvetica,sans-Serif" font-size="10.00">TGraph.h</text>
</a>
</g>
</g>
<!-- Node2&#45;&gt;Node5 -->
<g id="edge4_Node000002_Node000005" class="edge">
<title>Node2&#45;&gt;Node5</title>
<g id="a_edge4_Node000002_Node000005"><a xlink:title=" ">
<path fill="none" stroke="#63b8ff" d="M1135.46,-165.58C1140.41,-158.46 1147.55,-148.18 1153.72,-139.3"/>
<polygon fill="#63b8ff" stroke="#63b8ff" points="1156.41,-141.56 1159.24,-131.35 1150.66,-137.57 1156.41,-141.56"/>
</a>
</g>
</g>
<!-- Node6 -->
<g id="Node000006" class="node">
<title>Node6</title>
<g id="a_Node000006"><a xlink:title=" ">
<polygon fill="#e0e0e0" stroke="#999999" points="1302.47,-129.75 1212.22,-129.75 1212.22,-110.5 1302.47,-110.5 1302.47,-129.75"/>
<text text-anchor="middle" x="1257.35" y="-116.25" font-family="Helvetica,sans-Serif" font-size="10.00">TLorentzVector.h</text>
</a>
</g>
</g>
<!-- Node2&#45;&gt;Node6 -->
<g id="edge5_Node000002_Node000006" class="edge">
<title>Node2&#45;&gt;Node6</title>
<g id="a_edge5_Node000002_Node000006"><a xlink:title=" ">
<path fill="none" stroke="#63b8ff" d="M1151.06,-165.34C1171.38,-156.89 1201.99,-144.15 1225.15,-134.52"/>
<polygon fill="#63b8ff" stroke="#63b8ff" points="1226.24,-137.86 1234.13,-130.78 1223.55,-131.39 1226.24,-137.86"/>
</a>
</g>
</g>
<!-- Node7 -->
<g id="Node000007" class="node">
<title>Node7</title>
<g id="a_Node000007"><a xlink:href="_t_nucleus_8h.html" target="_top" xlink:title=" ">
<polygon fill="white" stroke="#666666" points="1046.1,-129.75 980.6,-129.75 980.6,-110.5 1046.1,-110.5 1046.1,-129.75"/>
<text text-anchor="middle" x="1013.35" y="-116.25" font-family="Helvetica,sans-Serif" font-size="10.00">TNucleus.h</text>
</a>
</g>
</g>
<!-- Node2&#45;&gt;Node7 -->
<g id="edge6_Node000002_Node000007" class="edge">
<title>Node2&#45;&gt;Node7</title>
<g id="a_edge6_Node000002_Node000007"><a xlink:title=" ">
<path fill="none" stroke="#63b8ff" d="M1109.67,-165.34C1091.5,-157 1064.26,-144.5 1043.38,-134.91"/>
<polygon fill="#63b8ff" stroke="#63b8ff" points="1045.04,-131.83 1034.5,-130.83 1042.12,-138.19 1045.04,-131.83"/>
</a>
</g>
</g>
<!-- Node7&#45;&gt;Node3 -->
<g id="edge14_Node000007_Node000003" class="edge">
<title>Node7&#45;&gt;Node3</title>
<g id="a_edge14_Node000007_Node000003"><a xlink:title=" ">
<path fill="none" stroke="#63b8ff" d="M1046.34,-112.22C1049.38,-111.62 1052.42,-111.04 1055.35,-110.5 1152.34,-92.58 1177.13,-91.22 1274.35,-74.5 1276.24,-74.17 1278.17,-73.84 1280.13,-73.5"/>
<polygon fill="#63b8ff" stroke="#63b8ff" points="1280.64,-76.96 1289.88,-71.77 1279.43,-70.07 1280.64,-76.96"/>
</a>
</g>
</g>
<!-- Node8 -->
<g id="Node000008" class="node">
<title>Node8</title>
<g id="a_Node000008"><a xlink:title=" ">
<polygon fill="#e0e0e0" stroke="#999999" points="1111.85,-74.5 1068.85,-74.5 1068.85,-55.25 1111.85,-55.25 1111.85,-74.5"/>
<text text-anchor="middle" x="1090.35" y="-61" font-family="Helvetica,sans-Serif" font-size="10.00">cmath</text>
</a>
</g>
</g>
<!-- Node7&#45;&gt;Node8 -->
<g id="edge7_Node000007_Node000008" class="edge">
<title>Node7&#45;&gt;Node8</title>
<g id="a_edge7_Node000007_Node000008"><a xlink:title=" ">
<path fill="none" stroke="#63b8ff" d="M1026.41,-110.09C1037.8,-102.21 1054.58,-90.61 1068.08,-81.27"/>
<polygon fill="#63b8ff" stroke="#63b8ff" points="1069.74,-84.38 1075.98,-75.81 1065.76,-78.62 1069.74,-84.38"/>
</a>
</g>
</g>
<!-- Node9 -->
<g id="Node000009" class="node">
<title>Node9</title>
<g id="a_Node000009"><a xlink:title=" ">
<polygon fill="#e0e0e0" stroke="#999999" points="1174.97,-74.5 1129.72,-74.5 1129.72,-55.25 1174.97,-55.25 1174.97,-74.5"/>
<text text-anchor="middle" x="1152.35" y="-61" font-family="Helvetica,sans-Serif" font-size="10.00">cstring</text>
</a>
</g>
</g>
<!-- Node7&#45;&gt;Node9 -->
<g id="edge8_Node000007_Node000009" class="edge">
<title>Node7&#45;&gt;Node9</title>
<g id="a_edge8_Node000007_Node000009"><a xlink:title=" ">
<path fill="none" stroke="#63b8ff" d="M1036.93,-110.09C1059.46,-101.46 1093.66,-88.36 1118.98,-78.66"/>
<polygon fill="#63b8ff" stroke="#63b8ff" points="1120.08,-81.99 1128.16,-75.14 1117.57,-75.45 1120.08,-81.99"/>
</a>
</g>
</g>
<!-- Node10 -->
<g id="Node000010" class="node">
<title>Node10</title>
<g id="a_Node000010"><a xlink:title=" ">
<polygon fill="#e0e0e0" stroke="#999999" points="957.6,-74.5 913.1,-74.5 913.1,-55.25 957.6,-55.25 957.6,-74.5"/>
<text text-anchor="middle" x="935.35" y="-61" font-family="Helvetica,sans-Serif" font-size="10.00">cstdlib</text>
</a>
</g>
</g>
<!-- Node7&#45;&gt;Node10 -->
<g id="edge9_Node000007_Node000010" class="edge">
<title>Node7&#45;&gt;Node10</title>
<g id="a_edge9_Node000007_Node000010"><a xlink:title=" ">
<path fill="none" stroke="#63b8ff" d="M1000.11,-110.09C988.57,-102.21 971.58,-90.61 957.9,-81.27"/>
<polygon fill="#63b8ff" stroke="#63b8ff" points="960.13,-78.55 949.89,-75.81 956.18,-84.33 960.13,-78.55"/>
</a>
</g>
</g>
<!-- Node11 -->
<g id="Node000011" class="node">
<title>Node11</title>
<g id="a_Node000011"><a xlink:title=" ">
<polygon fill="#e0e0e0" stroke="#999999" points="895.35,-74.5 855.35,-74.5 855.35,-55.25 895.35,-55.25 895.35,-74.5"/>
<text text-anchor="middle" x="875.35" y="-61" font-family="Helvetica,sans-Serif" font-size="10.00">string</text>
</a>
</g>
</g>
<!-- Node7&#45;&gt;Node11 -->
<g id="edge10_Node000007_Node000011" class="edge">
<title>Node7&#45;&gt;Node11</title>
<g id="a_edge10_Node000007_Node000011"><a xlink:title=" ">
<path fill="none" stroke="#63b8ff" d="M989.94,-110.09C966.89,-101.2 931.57,-87.57 906.24,-77.79"/>
<polygon fill="#63b8ff" stroke="#63b8ff" points="907.72,-74.62 897.13,-74.28 905.2,-81.15 907.72,-74.62"/>
</a>
</g>
</g>
<!-- Node12 -->
<g id="Node000012" class="node">
<title>Node12</title>
<g id="a_Node000012"><a xlink:href="_t_transition_8h.html" target="_top" xlink:title=" ">
<polygon fill="white" stroke="#666666" points="1265.47,-74.5 1193.22,-74.5 1193.22,-55.25 1265.47,-55.25 1265.47,-74.5"/>
<text text-anchor="middle" x="1229.35" y="-61" font-family="Helvetica,sans-Serif" font-size="10.00">TTransition.h</text>
</a>
</g>
</g>
<!-- Node7&#45;&gt;Node12 -->
<g id="edge11_Node000007_Node000012" class="edge">
<title>Node7&#45;&gt;Node12</title>
<g id="a_edge11_Node000007_Node000012"><a xlink:title=" ">
<path fill="none" stroke="#63b8ff" d="M1046.15,-111.04C1082.29,-102.13 1140.73,-87.72 1181.87,-77.58"/>
<polygon fill="#63b8ff" stroke="#63b8ff" points="1182.64,-81 1191.51,-75.2 1180.96,-74.2 1182.64,-81"/>
</a>
</g>
</g>
<!-- Node15 -->
<g id="Node000015" class="node">
<title>Node15</title>
<g id="a_Node000015"><a xlink:title=" ">
<polygon fill="#e0e0e0" stroke="#999999" points="1050.6,-74.5 976.1,-74.5 976.1,-55.25 1050.6,-55.25 1050.6,-74.5"/>
<text text-anchor="middle" x="1013.35" y="-61" font-family="Helvetica,sans-Serif" font-size="10.00">TSortedList.h</text>
</a>
</g>
</g>
<!-- Node7&#45;&gt;Node15 -->
<g id="edge15_Node000007_Node000015" class="edge">
<title>Node7&#45;&gt;Node15</title>
<g id="a_edge15_Node000007_Node000015"><a xlink:title=" ">
<path fill="none" stroke="#63b8ff" d="M1013.35,-110.33C1013.35,-103.82 1013.35,-94.67 1013.35,-86.37"/>
<polygon fill="#63b8ff" stroke="#63b8ff" points="1016.85,-86.37 1013.35,-76.37 1009.85,-86.37 1016.85,-86.37"/>
</a>
</g>
</g>
<!-- Node13 -->
<g id="Node000013" class="node">
<title>Node13</title>
<g id="a_Node000013"><a xlink:title=" ">
<polygon fill="#e0e0e0" stroke="#999999" points="594.47,-19.25 552.22,-19.25 552.22,0 594.47,0 594.47,-19.25"/>
<text text-anchor="middle" x="573.35" y="-5.75" font-family="Helvetica,sans-Serif" font-size="10.00">cstdio</text>
</a>
</g>
</g>
<!-- Node12&#45;&gt;Node13 -->
<g id="edge12_Node000012_Node000013" class="edge">
<title>Node12&#45;&gt;Node13</title>
<g id="a_edge12_Node000012_Node000013"><a xlink:title=" ">
<path fill="none" stroke="#63b8ff" d="M1193.06,-56.54C1190.12,-56.06 1187.19,-55.62 1184.35,-55.25 964.6,-26.27 697.74,-14.9 606.08,-11.67"/>
<polygon fill="#63b8ff" stroke="#63b8ff" points="606.44,-8.18 596.33,-11.34 606.2,-15.18 606.44,-8.18"/>
</a>
</g>
</g>
<!-- Node14 -->
<g id="Node000014" class="node">
<title>Node14</title>
<g id="a_Node000014"><a xlink:title=" ">
<polygon fill="#e0e0e0" stroke="#999999" points="1258.35,-19.25 1200.35,-19.25 1200.35,0 1258.35,0 1258.35,-19.25"/>
<text text-anchor="middle" x="1229.35" y="-5.75" font-family="Helvetica,sans-Serif" font-size="10.00">TObject.h</text>
</a>
</g>
</g>
<!-- Node12&#45;&gt;Node14 -->
<g id="edge13_Node000012_Node000014" class="edge">
<title>Node12&#45;&gt;Node14</title>
<g id="a_edge13_Node000012_Node000014"><a xlink:title=" ">
<path fill="none" stroke="#63b8ff" d="M1229.35,-55.08C1229.35,-48.57 1229.35,-39.42 1229.35,-31.12"/>
<polygon fill="#63b8ff" stroke="#63b8ff" points="1232.85,-31.12 1229.35,-21.12 1225.85,-31.12 1232.85,-31.12"/>
</a>
</g>
</g>
<!-- Node16&#45;&gt;Node10 -->
<g id="edge23_Node000016_Node000010" class="edge">
<title>Node16&#45;&gt;Node10</title>
<g id="a_edge23_Node000016_Node000010"><a xlink:title=" ">
<path fill="none" stroke="#63b8ff" d="M523.85,-117.61C589.14,-113.82 754.66,-102.27 901.75,-74.72"/>
<polygon fill="#63b8ff" stroke="#63b8ff" points="902.11,-78.21 911.27,-72.9 900.8,-71.34 902.11,-78.21"/>
</a>
</g>
</g>
<!-- Node16&#45;&gt;Node11 -->
<g id="edge20_Node000016_Node000011" class="edge">
<title>Node16&#45;&gt;Node11</title>
<g id="a_edge20_Node000016_Node000011"><a xlink:title=" ">
<path fill="none" stroke="#63b8ff" d="M523.82,-117.08C582.15,-112.57 719.57,-100.22 843.66,-74.76"/>
<polygon fill="#63b8ff" stroke="#63b8ff" points="844.3,-78.2 853.38,-72.73 842.87,-71.35 844.3,-78.2"/>
</a>
</g>
</g>
<!-- Node16&#45;&gt;Node13 -->
<g id="edge21_Node000016_Node000013" class="edge">
<title>Node16&#45;&gt;Node13</title>
<g id="a_edge21_Node000016_Node000013"><a xlink:title=" ">
<path fill="none" stroke="#63b8ff" d="M466.81,-118.72C366.68,-117.01 35.66,-108.79 4.35,-74.5 -1.42,-68.18 -1.46,-61.53 4.35,-55.25 40.89,-15.72 425.4,-11.15 540.79,-10.67"/>
<polygon fill="#63b8ff" stroke="#63b8ff" points="540.5,-14.17 550.49,-10.63 540.48,-7.17 540.5,-14.17"/>
</a>
</g>
</g>
<!-- Node17 -->
<g id="Node000017" class="node">
<title>Node17</title>
<g id="a_Node000017"><a xlink:title=" ">
<polygon fill="#e0e0e0" stroke="#999999" points="67.1,-74.5 13.6,-74.5 13.6,-55.25 67.1,-55.25 67.1,-74.5"/>
<text text-anchor="middle" x="40.35" y="-61" font-family="Helvetica,sans-Serif" font-size="10.00">iostream</text>
</a>
</g>
</g>
<!-- Node16&#45;&gt;Node17 -->
<g id="edge17_Node000016_Node000017" class="edge">
<title>Node16&#45;&gt;Node17</title>
<g id="a_edge17_Node000016_Node000017"><a xlink:title=" ">
<path fill="none" stroke="#63b8ff" d="M466.72,-117.36C400.26,-112.98 230.2,-100.21 78.3,-74.62"/>
<polygon fill="#63b8ff" stroke="#63b8ff" points="79.33,-71.24 68.89,-73.01 78.15,-78.14 79.33,-71.24"/>
</a>
</g>
</g>
<!-- Node18 -->
<g id="Node000018" class="node">
<title>Node18</title>
<g id="a_Node000018"><a xlink:title=" ">
<polygon fill="#e0e0e0" stroke="#999999" points="135.22,-74.5 85.47,-74.5 85.47,-55.25 135.22,-55.25 135.22,-74.5"/>
<text text-anchor="middle" x="110.35" y="-61" font-family="Helvetica,sans-Serif" font-size="10.00">iomanip</text>
</a>
</g>
</g>
<!-- Node16&#45;&gt;Node18 -->
<g id="edge18_Node000016_Node000018" class="edge">
<title>Node16&#45;&gt;Node18</title>
<g id="a_edge18_Node000016_Node000018"><a xlink:title=" ">
<path fill="none" stroke="#63b8ff" d="M466.95,-116.7C408.76,-111.48 271.59,-97.88 146.79,-74.75"/>
<polygon fill="#63b8ff" stroke="#63b8ff" points="147.48,-71.32 137.01,-72.91 146.19,-78.2 147.48,-71.32"/>
</a>
</g>
</g>
<!-- Node19 -->
<g id="Node000019" class="node">
<title>Node19</title>
<g id="a_Node000019"><a xlink:title=" ">
<polygon fill="#e0e0e0" stroke="#999999" points="211.35,-74.5 153.35,-74.5 153.35,-55.25 211.35,-55.25 211.35,-74.5"/>
<text text-anchor="middle" x="182.35" y="-61" font-family="Helvetica,sans-Serif" font-size="10.00">stdexcept</text>
</a>
</g>
</g>
<!-- Node16&#45;&gt;Node19 -->
<g id="edge19_Node000016_Node000019" class="edge">
<title>Node16&#45;&gt;Node19</title>
<g id="a_edge19_Node000016_Node000019"><a xlink:title=" ">
<path fill="none" stroke="#63b8ff" d="M466.74,-115.08C418.55,-108.15 317.9,-93.1 223.01,-74.92"/>
<polygon fill="#63b8ff" stroke="#63b8ff" points="223.74,-71.49 213.25,-73.03 222.41,-78.37 223.74,-71.49"/>
</a>
</g>
</g>
<!-- Node20 -->
<g id="Node000020" class="node">
<title>Node20</title>
<g id="a_Node000020"><a xlink:title=" ">
<polygon fill="#e0e0e0" stroke="#999999" points="274.97,-74.5 229.72,-74.5 229.72,-55.25 274.97,-55.25 274.97,-74.5"/>
<text text-anchor="middle" x="252.35" y="-61" font-family="Helvetica,sans-Serif" font-size="10.00">cstdint</text>
</a>
</g>
</g>
<!-- Node16&#45;&gt;Node20 -->
<g id="edge22_Node000016_Node000020" class="edge">
<title>Node16&#45;&gt;Node20</title>
<g id="a_edge22_Node000016_Node000020"><a xlink:title=" ">
<path fill="none" stroke="#63b8ff" d="M466.75,-113.71C427.98,-106.24 356.33,-91.97 286.51,-75.16"/>
<polygon fill="#63b8ff" stroke="#63b8ff" points="287.34,-71.76 276.8,-72.8 285.69,-78.56 287.34,-71.76"/>
</a>
</g>
</g>
<!-- Node21 -->
<g id="Node000021" class="node">
<title>Node21</title>
<g id="a_Node000021"><a xlink:title=" ">
<polygon fill="#e0e0e0" stroke="#999999" points="352.1,-74.5 292.6,-74.5 292.6,-55.25 352.1,-55.25 352.1,-74.5"/>
<text text-anchor="middle" x="322.35" y="-61" font-family="Helvetica,sans-Serif" font-size="10.00">execinfo.h</text>
</a>
</g>
</g>
<!-- Node16&#45;&gt;Node21 -->
<g id="edge24_Node000016_Node000021" class="edge">
<title>Node16&#45;&gt;Node21</title>
<g id="a_edge24_Node000016_Node000021"><a xlink:title=" ">
<path fill="none" stroke="#63b8ff" d="M466.78,-110.33C438.36,-101.59 394.51,-88.09 362.58,-78.26"/>
<polygon fill="#63b8ff" stroke="#63b8ff" points="363.86,-74.99 353.27,-75.39 361.8,-81.68 363.86,-74.99"/>
</a>
</g>
</g>
<!-- Node22 -->
<g id="Node000022" class="node">
<title>Node22</title>
<g id="a_Node000022"><a xlink:title=" ">
<polygon fill="#e0e0e0" stroke="#999999" points="420.6,-74.5 370.1,-74.5 370.1,-55.25 420.6,-55.25 420.6,-74.5"/>
<text text-anchor="middle" x="395.35" y="-61" font-family="Helvetica,sans-Serif" font-size="10.00">cxxabi.h</text>
</a>
</g>
</g>
<!-- Node16&#45;&gt;Node22 -->
<g id="edge25_Node000016_Node000022" class="edge">
<title>Node16&#45;&gt;Node22</title>
<g id="a_edge25_Node000016_Node000022"><a xlink:title=" ">
<path fill="none" stroke="#63b8ff" d="M478.38,-110.09C463.08,-101.94 440.31,-89.82 422.48,-80.33"/>
<polygon fill="#63b8ff" stroke="#63b8ff" points="424.2,-77.27 413.73,-75.66 420.91,-83.45 424.2,-77.27"/>
</a>
</g>
</g>
<!-- Node23 -->
<g id="Node000023" class="node">
<title>Node23</title>
<g id="a_Node000023"><a xlink:title=" ">
<polygon fill="#e0e0e0" stroke="#999999" points="489.97,-74.5 438.72,-74.5 438.72,-55.25 489.97,-55.25 489.97,-74.5"/>
<text text-anchor="middle" x="464.35" y="-61" font-family="Helvetica,sans-Serif" font-size="10.00">sstream</text>
</a>
</g>
</g>
<!-- Node16&#45;&gt;Node23 -->
<g id="edge26_Node000016_Node000023" class="edge">
<title>Node16&#45;&gt;Node23</title>
<g id="a_edge26_Node000016_Node000023"><a xlink:title=" ">
<path fill="none" stroke="#63b8ff" d="M490.23,-110.33C486.17,-103.36 480.35,-93.37 475.26,-84.62"/>
<polygon fill="#63b8ff" stroke="#63b8ff" points="478.39,-83.05 470.34,-76.17 472.34,-86.57 478.39,-83.05"/>
</a>
</g>
</g>
<!-- Node24 -->
<g id="Node000024" class="node">
<title>Node24</title>
<g id="a_Node000024"><a xlink:title=" ">
<polygon fill="#e0e0e0" stroke="#999999" points="544.85,-74.5 507.85,-74.5 507.85,-55.25 544.85,-55.25 544.85,-74.5"/>
<text text-anchor="middle" x="526.35" y="-61" font-family="Helvetica,sans-Serif" font-size="10.00">array</text>
</a>
</g>
</g>
<!-- Node16&#45;&gt;Node24 -->
<g id="edge27_Node000016_Node000024" class="edge">
<title>Node16&#45;&gt;Node24</title>
<g id="a_edge27_Node000016_Node000024"><a xlink:title=" ">
<path fill="none" stroke="#63b8ff" d="M500.47,-110.33C504.52,-103.36 510.34,-93.37 515.43,-84.62"/>
<polygon fill="#63b8ff" stroke="#63b8ff" points="518.35,-86.57 520.35,-76.17 512.3,-83.05 518.35,-86.57"/>
</a>
</g>
</g>
<!-- Node25 -->
<g id="Node000025" class="node">
<title>Node25</title>
<g id="a_Node000025"><a xlink:title=" ">
<polygon fill="#e0e0e0" stroke="#999999" points="613.6,-74.5 563.1,-74.5 563.1,-55.25 613.6,-55.25 613.6,-74.5"/>
<text text-anchor="middle" x="588.35" y="-61" font-family="Helvetica,sans-Serif" font-size="10.00">memory</text>
</a>
</g>
</g>
<!-- Node16&#45;&gt;Node25 -->
<g id="edge28_Node000016_Node000025" class="edge">
<title>Node16&#45;&gt;Node25</title>
<g id="a_edge28_Node000016_Node000025"><a xlink:title=" ">
<path fill="none" stroke="#63b8ff" d="M511.12,-110.09C525.28,-101.98 546.33,-89.93 562.87,-80.46"/>
<polygon fill="#63b8ff" stroke="#63b8ff" points="564.24,-83.71 571.18,-75.7 560.76,-77.64 564.24,-83.71"/>
</a>
</g>
</g>
<!-- Node26 -->
<g id="Node000026" class="node">
<title>Node26</title>
<g id="a_Node000026"><a xlink:title=" ">
<polygon fill="#e0e0e0" stroke="#999999" points="681.22,-74.5 631.47,-74.5 631.47,-55.25 681.22,-55.25 681.22,-74.5"/>
<text text-anchor="middle" x="656.35" y="-61" font-family="Helvetica,sans-Serif" font-size="10.00">unistd.h</text>
</a>
</g>
</g>
<!-- Node16&#45;&gt;Node26 -->
<g id="edge29_Node000016_Node000026" class="edge">
<title>Node16&#45;&gt;Node26</title>
<g id="a_edge29_Node000016_Node000026"><a xlink:title=" ">
<path fill="none" stroke="#63b8ff" d="M522.66,-110.09C549.55,-101.2 590.77,-87.57 620.32,-77.79"/>
<polygon fill="#63b8ff" stroke="#63b8ff" points="621.19,-81.19 629.59,-74.72 619,-74.54 621.19,-81.19"/>
</a>
</g>
</g>
<!-- Node27 -->
<g id="Node000027" class="node">
<title>Node27</title>
<g id="a_Node000027"><a xlink:title=" ">
<polygon fill="#e0e0e0" stroke="#999999" points="759.1,-74.5 699.6,-74.5 699.6,-55.25 759.1,-55.25 759.1,-74.5"/>
<text text-anchor="middle" x="729.35" y="-61" font-family="Helvetica,sans-Serif" font-size="10.00">sys/wait.h</text>
</a>
</g>
</g>
<!-- Node16&#45;&gt;Node27 -->
<g id="edge30_Node000016_Node000027" class="edge">
<title>Node16&#45;&gt;Node27</title>
<g id="a_edge30_Node000016_Node000027"><a xlink:title=" ">
<path fill="none" stroke="#63b8ff" d="M524.04,-112.6C565.19,-103.23 641.19,-85.94 688.28,-75.22"/>
<polygon fill="#63b8ff" stroke="#63b8ff" points="688.86,-78.68 697.83,-73.05 687.31,-71.85 688.86,-78.68"/>
</a>
</g>
</g>
<!-- Node28 -->
<g id="Node000028" class="node">
<title>Node28</title>
<g id="a_Node000028"><a xlink:title=" ">
<polygon fill="#e0e0e0" stroke="#999999" points="837.47,-74.5 777.22,-74.5 777.22,-55.25 837.47,-55.25 837.47,-74.5"/>
<text text-anchor="middle" x="807.35" y="-61" font-family="Helvetica,sans-Serif" font-size="10.00">sys/prctl.h</text>
</a>
</g>
</g>
<!-- Node16&#45;&gt;Node28 -->
<g id="edge31_Node000016_Node000028" class="edge">
<title>Node16&#45;&gt;Node28</title>
<g id="a_edge31_Node000016_Node000028"><a xlink:title=" ">
<path fill="none" stroke="#63b8ff" d="M523.74,-115.02C571.56,-107.98 671.45,-92.8 765.57,-74.95"/>
<polygon fill="#63b8ff" stroke="#63b8ff" points="766.07,-78.42 775.24,-73.1 764.76,-71.54 766.07,-78.42"/>
</a>
</g>
</g>
</g>
</svg>
