<?xml version="1.0" encoding="UTF-8" standalone="no"?>
<!DOCTYPE svg PUBLIC "-//W3C//DTD SVG 1.1//EN"
 "http://www.w3.org/Graphics/SVG/1.1/DTD/svg11.dtd">
<!-- Generated by graphviz version 9.0.0 (20230911.1827)
 -->
<!-- Title: TLstFile.h Pages: 1 -->
<svg width="192pt" height="83pt"
 viewBox="0.00 0.00 191.75 82.50" xmlns="http://www.w3.org/2000/svg" xmlns:xlink="http://www.w3.org/1999/xlink">
<g id="graph0" class="graph" transform="scale(1 1) rotate(0) translate(4 78.5)">
<title>TLstFile.h</title>
<!-- Node1 -->
<g id="Node000001" class="node">
<title>Node1</title>
<g id="a_Node000001"><a xlink:title=" ">
<polygon fill="#999999" stroke="#666666" points="128.25,-74.5 68.75,-74.5 68.75,-55.25 128.25,-55.25 128.25,-74.5"/>
<text text-anchor="middle" x="98.5" y="-61" font-family="Helvetica,sans-Serif" font-size="10.00">TLstFile.h</text>
</a>
</g>
</g>
<!-- Node2 -->
<g id="Node000002" class="node">
<title>Node2</title>
<g id="a_Node000002"><a xlink:href="_i_l_l_data_library_8cxx.html" target="_top" xlink:title=" ">
<polygon fill="white" stroke="#666666" points="97,-19.25 0,-19.25 0,0 97,0 97,-19.25"/>
<text text-anchor="middle" x="48.5" y="-5.75" font-family="Helvetica,sans-Serif" font-size="10.00">ILLDataLibrary.cxx</text>
</a>
</g>
</g>
<!-- Node1&#45;&gt;Node2 -->
<g id="edge1_Node000001_Node000002" class="edge">
<title>Node1&#45;&gt;Node2</title>
<g id="a_edge1_Node000001_Node000002"><a xlink:title=" ">
<path fill="none" stroke="#63b8ff" d="M82.46,-46.79C73.97,-37.75 63.9,-27.02 56.94,-19.61"/>
<polygon fill="#63b8ff" stroke="#63b8ff" points="79.81,-49.08 89.21,-53.98 84.91,-44.29 79.81,-49.08"/>
</a>
</g>
</g>
<!-- Node3 -->
<g id="Node000003" class="node">
<title>Node3</title>
<g id="a_Node000003"><a xlink:href="_t_lst_file_8cxx.html" target="_top" xlink:title=" ">
<polygon fill="white" stroke="#666666" points="183.75,-19.25 115.25,-19.25 115.25,0 183.75,0 183.75,-19.25"/>
<text text-anchor="middle" x="149.5" y="-5.75" font-family="Helvetica,sans-Serif" font-size="10.00">TLstFile.cxx</text>
</a>
</g>
</g>
<!-- Node1&#45;&gt;Node3 -->
<g id="edge2_Node000001_Node000003" class="edge">
<title>Node1&#45;&gt;Node3</title>
<g id="a_edge2_Node000001_Node000003"><a xlink:title=" ">
<path fill="none" stroke="#63b8ff" d="M114.86,-46.79C123.52,-37.75 133.8,-27.02 140.9,-19.61"/>
<polygon fill="#63b8ff" stroke="#63b8ff" points="112.36,-44.35 107.97,-53.99 117.41,-49.19 112.36,-44.35"/>
</a>
</g>
</g>
</g>
</svg>
