<?xml version="1.0" encoding="UTF-8" standalone="no"?>
<!DOCTYPE svg PUBLIC "-//W3C//DTD SVG 1.1//EN"
 "http://www.w3.org/Graphics/SVG/1.1/DTD/svg11.dtd">
<!-- Generated by graphviz version 9.0.0 (20230911.1827)
 -->
<!-- Title: TLMFitter.h Pages: 1 -->
<svg width="1076pt" height="138pt"
 viewBox="0.00 0.00 1075.88 137.75" xmlns="http://www.w3.org/2000/svg" xmlns:xlink="http://www.w3.org/1999/xlink">
<g id="graph0" class="graph" transform="scale(1 1) rotate(0) translate(4 133.75)">
<title>TLMFitter.h</title>
<!-- Node1 -->
<g id="Node000001" class="node">
<title>Node1</title>
<g id="a_Node000001"><a xlink:title=" ">
<polygon fill="#999999" stroke="#666666" points="724.88,-129.75 658.62,-129.75 658.62,-110.5 724.88,-110.5 724.88,-129.75"/>
<text text-anchor="middle" x="691.75" y="-116.25" font-family="Helvetica,sans-Serif" font-size="10.00">TLMFitter.h</text>
</a>
</g>
</g>
<!-- Node2 -->
<g id="Node000002" class="node">
<title>Node2</title>
<g id="a_Node000002"><a xlink:href="_globals_8h.html" target="_top" xlink:title=" ">
<polygon fill="white" stroke="#666666" points="517,-74.5 460.5,-74.5 460.5,-55.25 517,-55.25 517,-74.5"/>
<text text-anchor="middle" x="488.75" y="-61" font-family="Helvetica,sans-Serif" font-size="10.00">Globals.h</text>
</a>
</g>
</g>
<!-- Node1&#45;&gt;Node2 -->
<g id="edge1_Node000001_Node000002" class="edge">
<title>Node1&#45;&gt;Node2</title>
<g id="a_edge1_Node000001_Node000002"><a xlink:title=" ">
<path fill="none" stroke="#63b8ff" d="M658.23,-110.33C622.61,-100.99 566.33,-86.22 528.5,-76.3"/>
<polygon fill="#63b8ff" stroke="#63b8ff" points="529.42,-72.92 518.86,-73.77 527.64,-79.7 529.42,-72.92"/>
</a>
</g>
</g>
<!-- Node4 -->
<g id="Node000004" class="node">
<title>Node4</title>
<g id="a_Node000004"><a xlink:title=" ">
<polygon fill="#e0e0e0" stroke="#999999" points="53.5,-19.25 0,-19.25 0,0 53.5,0 53.5,-19.25"/>
<text text-anchor="middle" x="26.75" y="-5.75" font-family="Helvetica,sans-Serif" font-size="10.00">iostream</text>
</a>
</g>
</g>
<!-- Node1&#45;&gt;Node4 -->
<g id="edge20_Node000001_Node000004" class="edge">
<title>Node1&#45;&gt;Node4</title>
<g id="a_edge20_Node000001_Node000004"><a xlink:title=" ">
<path fill="none" stroke="#63b8ff" d="M658.44,-114.85C565.77,-102.76 296.92,-66.21 64.85,-19.76"/>
<polygon fill="#63b8ff" stroke="#63b8ff" points="65.81,-16.38 55.32,-17.84 64.43,-23.24 65.81,-16.38"/>
</a>
</g>
</g>
<!-- Node19 -->
<g id="Node000019" class="node">
<title>Node19</title>
<g id="a_Node000019"><a xlink:title=" ">
<polygon fill="#e0e0e0" stroke="#999999" points="578.25,-74.5 535.25,-74.5 535.25,-55.25 578.25,-55.25 578.25,-74.5"/>
<text text-anchor="middle" x="556.75" y="-61" font-family="Helvetica,sans-Serif" font-size="10.00">vector</text>
</a>
</g>
</g>
<!-- Node1&#45;&gt;Node19 -->
<g id="edge18_Node000001_Node000019" class="edge">
<title>Node1&#45;&gt;Node19</title>
<g id="a_edge18_Node000001_Node000019"><a xlink:title=" ">
<path fill="none" stroke="#63b8ff" d="M668.85,-110.09C646.93,-101.45 613.65,-88.32 589.05,-78.61"/>
<polygon fill="#63b8ff" stroke="#63b8ff" points="590.42,-75.39 579.83,-74.98 587.85,-81.9 590.42,-75.39"/>
</a>
</g>
</g>
<!-- Node20 -->
<g id="Node000020" class="node">
<title>Node20</title>
<g id="a_Node000020"><a xlink:title=" ">
<polygon fill="#e0e0e0" stroke="#999999" points="648.75,-74.5 596.75,-74.5 596.75,-55.25 648.75,-55.25 648.75,-74.5"/>
<text text-anchor="middle" x="622.75" y="-61" font-family="Helvetica,sans-Serif" font-size="10.00">complex</text>
</a>
</g>
</g>
<!-- Node1&#45;&gt;Node20 -->
<g id="edge19_Node000001_Node000020" class="edge">
<title>Node1&#45;&gt;Node20</title>
<g id="a_edge19_Node000001_Node000020"><a xlink:title=" ">
<path fill="none" stroke="#63b8ff" d="M680.05,-110.09C669.97,-102.32 655.21,-90.92 643.19,-81.65"/>
<polygon fill="#63b8ff" stroke="#63b8ff" points="645.54,-79.04 635.48,-75.7 641.26,-84.58 645.54,-79.04"/>
</a>
</g>
</g>
<!-- Node21 -->
<g id="Node000021" class="node">
<title>Node21</title>
<g id="a_Node000021"><a xlink:title=" ">
<polygon fill="#e0e0e0" stroke="#999999" points="716.25,-74.5 667.25,-74.5 667.25,-55.25 716.25,-55.25 716.25,-74.5"/>
<text text-anchor="middle" x="691.75" y="-61" font-family="Helvetica,sans-Serif" font-size="10.00">fstream</text>
</a>
</g>
</g>
<!-- Node1&#45;&gt;Node21 -->
<g id="edge21_Node000001_Node000021" class="edge">
<title>Node1&#45;&gt;Node21</title>
<g id="a_edge21_Node000001_Node000021"><a xlink:title=" ">
<path fill="none" stroke="#63b8ff" d="M691.75,-110.33C691.75,-103.82 691.75,-94.67 691.75,-86.37"/>
<polygon fill="#63b8ff" stroke="#63b8ff" points="695.25,-86.37 691.75,-76.37 688.25,-86.37 695.25,-86.37"/>
</a>
</g>
</g>
<!-- Node22 -->
<g id="Node000022" class="node">
<title>Node22</title>
<g id="a_Node000022"><a xlink:title=" ">
<polygon fill="#e0e0e0" stroke="#999999" points="787.5,-74.5 734,-74.5 734,-55.25 787.5,-55.25 787.5,-74.5"/>
<text text-anchor="middle" x="760.75" y="-61" font-family="Helvetica,sans-Serif" font-size="10.00">Rtypes.h</text>
</a>
</g>
</g>
<!-- Node1&#45;&gt;Node22 -->
<g id="edge22_Node000001_Node000022" class="edge">
<title>Node1&#45;&gt;Node22</title>
<g id="a_edge22_Node000001_Node000022"><a xlink:title=" ">
<path fill="none" stroke="#63b8ff" d="M703.45,-110.09C713.53,-102.32 728.29,-90.92 740.31,-81.65"/>
<polygon fill="#63b8ff" stroke="#63b8ff" points="742.24,-84.58 748.02,-75.7 737.96,-79.04 742.24,-84.58"/>
</a>
</g>
</g>
<!-- Node23 -->
<g id="Node000023" class="node">
<title>Node23</title>
<g id="a_Node000023"><a xlink:title=" ">
<polygon fill="#e0e0e0" stroke="#999999" points="863.75,-74.5 805.75,-74.5 805.75,-55.25 863.75,-55.25 863.75,-74.5"/>
<text text-anchor="middle" x="834.75" y="-61" font-family="Helvetica,sans-Serif" font-size="10.00">TObject.h</text>
</a>
</g>
</g>
<!-- Node1&#45;&gt;Node23 -->
<g id="edge23_Node000001_Node000023" class="edge">
<title>Node1&#45;&gt;Node23</title>
<g id="a_edge23_Node000001_Node000023"><a xlink:title=" ">
<path fill="none" stroke="#63b8ff" d="M716.01,-110.09C739.02,-101.52 773.84,-88.56 799.83,-78.88"/>
<polygon fill="#63b8ff" stroke="#63b8ff" points="800.8,-82.25 808.95,-75.48 798.36,-75.69 800.8,-82.25"/>
</a>
</g>
</g>
<!-- Node24 -->
<g id="Node000024" class="node">
<title>Node24</title>
<g id="a_Node000024"><a xlink:title=" ">
<polygon fill="#e0e0e0" stroke="#999999" points="923.88,-74.5 881.62,-74.5 881.62,-55.25 923.88,-55.25 923.88,-74.5"/>
<text text-anchor="middle" x="902.75" y="-61" font-family="Helvetica,sans-Serif" font-size="10.00">TH1.h</text>
</a>
</g>
</g>
<!-- Node1&#45;&gt;Node24 -->
<g id="edge24_Node000001_Node000024" class="edge">
<title>Node1&#45;&gt;Node24</title>
<g id="a_edge24_Node000001_Node000024"><a xlink:title=" ">
<path fill="none" stroke="#63b8ff" d="M725.21,-111.28C759.4,-103.17 814.3,-89.92 870.31,-75.08"/>
<polygon fill="#63b8ff" stroke="#63b8ff" points="870.92,-78.54 879.68,-72.58 869.12,-71.78 870.92,-78.54"/>
</a>
</g>
</g>
<!-- Node25 -->
<g id="Node000025" class="node">
<title>Node25</title>
<g id="a_Node000025"><a xlink:title=" ">
<polygon fill="#e0e0e0" stroke="#999999" points="983.12,-74.5 942.38,-74.5 942.38,-55.25 983.12,-55.25 983.12,-74.5"/>
<text text-anchor="middle" x="962.75" y="-61" font-family="Helvetica,sans-Serif" font-size="10.00">TF1.h</text>
</a>
</g>
</g>
<!-- Node1&#45;&gt;Node25 -->
<g id="edge25_Node000001_Node000025" class="edge">
<title>Node1&#45;&gt;Node25</title>
<g id="a_edge25_Node000001_Node000025"><a xlink:title=" ">
<path fill="none" stroke="#63b8ff" d="M725.1,-114C769.71,-106.92 851.46,-93.14 930.96,-74.71"/>
<polygon fill="#63b8ff" stroke="#63b8ff" points="931.75,-78.12 940.69,-72.42 930.15,-71.3 931.75,-78.12"/>
</a>
</g>
</g>
<!-- Node3 -->
<g id="Node000003" class="node">
<title>Node3</title>
<g id="a_Node000003"><a xlink:title=" ">
<polygon fill="#e0e0e0" stroke="#999999" points="116.38,-19.25 71.12,-19.25 71.12,0 116.38,0 116.38,-19.25"/>
<text text-anchor="middle" x="93.75" y="-5.75" font-family="Helvetica,sans-Serif" font-size="10.00">cstdint</text>
</a>
</g>
</g>
<!-- Node2&#45;&gt;Node3 -->
<g id="edge2_Node000002_Node000003" class="edge">
<title>Node2&#45;&gt;Node3</title>
<g id="a_edge2_Node000002_Node000003"><a xlink:title=" ">
<path fill="none" stroke="#63b8ff" d="M460.3,-61.75C400.55,-57 257.55,-44.1 128.02,-19.42"/>
<polygon fill="#63b8ff" stroke="#63b8ff" points="128.7,-15.99 118.22,-17.52 127.37,-22.86 128.7,-15.99"/>
</a>
</g>
</g>
<!-- Node2&#45;&gt;Node4 -->
<g id="edge3_Node000002_Node000004" class="edge">
<title>Node2&#45;&gt;Node4</title>
<g id="a_edge3_Node000002_Node000004"><a xlink:title=" ">
<path fill="none" stroke="#63b8ff" d="M460.08,-62.24C392.69,-58.12 218.84,-45.81 64.86,-19.59"/>
<polygon fill="#63b8ff" stroke="#63b8ff" points="65.75,-16.2 55.3,-17.94 64.55,-23.09 65.75,-16.2"/>
</a>
</g>
</g>
<!-- Node5 -->
<g id="Node000005" class="node">
<title>Node5</title>
<g id="a_Node000005"><a xlink:title=" ">
<polygon fill="#e0e0e0" stroke="#999999" points="184.62,-19.25 134.88,-19.25 134.88,0 184.62,0 184.62,-19.25"/>
<text text-anchor="middle" x="159.75" y="-5.75" font-family="Helvetica,sans-Serif" font-size="10.00">iomanip</text>
</a>
</g>
</g>
<!-- Node2&#45;&gt;Node5 -->
<g id="edge4_Node000002_Node000005" class="edge">
<title>Node2&#45;&gt;Node5</title>
<g id="a_edge4_Node000002_Node000005"><a xlink:title=" ">
<path fill="none" stroke="#63b8ff" d="M460.11,-60.49C409.07,-54.26 298.84,-39.89 196.13,-19.55"/>
<polygon fill="#63b8ff" stroke="#63b8ff" points="196.92,-16.14 186.42,-17.61 195.54,-23.01 196.92,-16.14"/>
</a>
</g>
</g>
<!-- Node6 -->
<g id="Node000006" class="node">
<title>Node6</title>
<g id="a_Node000006"><a xlink:title=" ">
<polygon fill="#e0e0e0" stroke="#999999" points="260.75,-19.25 202.75,-19.25 202.75,0 260.75,0 260.75,-19.25"/>
<text text-anchor="middle" x="231.75" y="-5.75" font-family="Helvetica,sans-Serif" font-size="10.00">stdexcept</text>
</a>
</g>
</g>
<!-- Node2&#45;&gt;Node6 -->
<g id="edge5_Node000002_Node000006" class="edge">
<title>Node2&#45;&gt;Node6</title>
<g id="a_edge5_Node000002_Node000006"><a xlink:title=" ">
<path fill="none" stroke="#63b8ff" d="M460.01,-58.23C420.16,-50.36 345.59,-35.46 272.44,-19.79"/>
<polygon fill="#63b8ff" stroke="#63b8ff" points="273.19,-16.37 262.67,-17.69 271.71,-23.22 273.19,-16.37"/>
</a>
</g>
</g>
<!-- Node7 -->
<g id="Node000007" class="node">
<title>Node7</title>
<g id="a_Node000007"><a xlink:title=" ">
<polygon fill="#e0e0e0" stroke="#999999" points="318.75,-19.25 278.75,-19.25 278.75,0 318.75,0 318.75,-19.25"/>
<text text-anchor="middle" x="298.75" y="-5.75" font-family="Helvetica,sans-Serif" font-size="10.00">string</text>
</a>
</g>
</g>
<!-- Node2&#45;&gt;Node7 -->
<g id="edge6_Node000002_Node000007" class="edge">
<title>Node2&#45;&gt;Node7</title>
<g id="a_edge6_Node000002_Node000007"><a xlink:title=" ">
<path fill="none" stroke="#63b8ff" d="M460.2,-56.14C430.12,-47.94 381.1,-34.49 329.96,-19.85"/>
<polygon fill="#63b8ff" stroke="#63b8ff" points="331.05,-16.52 320.47,-17.12 329.12,-23.25 331.05,-16.52"/>
</a>
</g>
</g>
<!-- Node8 -->
<g id="Node000008" class="node">
<title>Node8</title>
<g id="a_Node000008"><a xlink:title=" ">
<polygon fill="#e0e0e0" stroke="#999999" points="378.88,-19.25 336.62,-19.25 336.62,0 378.88,0 378.88,-19.25"/>
<text text-anchor="middle" x="357.75" y="-5.75" font-family="Helvetica,sans-Serif" font-size="10.00">cstdio</text>
</a>
</g>
</g>
<!-- Node2&#45;&gt;Node8 -->
<g id="edge7_Node000002_Node000008" class="edge">
<title>Node2&#45;&gt;Node8</title>
<g id="a_edge7_Node000002_Node000008"><a xlink:title=" ">
<path fill="none" stroke="#63b8ff" d="M466.53,-54.84C445.48,-46.29 413.64,-33.34 389.84,-23.67"/>
<polygon fill="#63b8ff" stroke="#63b8ff" points="391.19,-20.44 380.61,-19.92 388.56,-26.93 391.19,-20.44"/>
</a>
</g>
</g>
<!-- Node9 -->
<g id="Node000009" class="node">
<title>Node9</title>
<g id="a_Node000009"><a xlink:title=" ">
<polygon fill="#e0e0e0" stroke="#999999" points="441,-19.25 396.5,-19.25 396.5,0 441,0 441,-19.25"/>
<text text-anchor="middle" x="418.75" y="-5.75" font-family="Helvetica,sans-Serif" font-size="10.00">cstdlib</text>
</a>
</g>
</g>
<!-- Node2&#45;&gt;Node9 -->
<g id="edge8_Node000002_Node000009" class="edge">
<title>Node2&#45;&gt;Node9</title>
<g id="a_edge8_Node000002_Node000009"><a xlink:title=" ">
<path fill="none" stroke="#63b8ff" d="M476.88,-54.84C466.66,-47.07 451.68,-35.67 439.49,-26.4"/>
<polygon fill="#63b8ff" stroke="#63b8ff" points="441.73,-23.71 431.65,-20.44 437.49,-29.28 441.73,-23.71"/>
</a>
</g>
</g>
<!-- Node10 -->
<g id="Node000010" class="node">
<title>Node10</title>
<g id="a_Node000010"><a xlink:title=" ">
<polygon fill="#e0e0e0" stroke="#999999" points="518.5,-19.25 459,-19.25 459,0 518.5,0 518.5,-19.25"/>
<text text-anchor="middle" x="488.75" y="-5.75" font-family="Helvetica,sans-Serif" font-size="10.00">execinfo.h</text>
</a>
</g>
</g>
<!-- Node2&#45;&gt;Node10 -->
<g id="edge9_Node000002_Node000010" class="edge">
<title>Node2&#45;&gt;Node10</title>
<g id="a_edge9_Node000002_Node000010"><a xlink:title=" ">
<path fill="none" stroke="#63b8ff" d="M488.75,-55.08C488.75,-48.57 488.75,-39.42 488.75,-31.12"/>
<polygon fill="#63b8ff" stroke="#63b8ff" points="492.25,-31.12 488.75,-21.12 485.25,-31.12 492.25,-31.12"/>
</a>
</g>
</g>
<!-- Node11 -->
<g id="Node000011" class="node">
<title>Node11</title>
<g id="a_Node000011"><a xlink:title=" ">
<polygon fill="#e0e0e0" stroke="#999999" points="587,-19.25 536.5,-19.25 536.5,0 587,0 587,-19.25"/>
<text text-anchor="middle" x="561.75" y="-5.75" font-family="Helvetica,sans-Serif" font-size="10.00">cxxabi.h</text>
</a>
</g>
</g>
<!-- Node2&#45;&gt;Node11 -->
<g id="edge10_Node000002_Node000011" class="edge">
<title>Node2&#45;&gt;Node11</title>
<g id="a_edge10_Node000002_Node000011"><a xlink:title=" ">
<path fill="none" stroke="#63b8ff" d="M501.13,-54.84C511.9,-46.99 527.72,-35.45 540.5,-26.12"/>
<polygon fill="#63b8ff" stroke="#63b8ff" points="542.31,-29.14 548.33,-20.42 538.19,-23.48 542.31,-29.14"/>
</a>
</g>
</g>
<!-- Node12 -->
<g id="Node000012" class="node">
<title>Node12</title>
<g id="a_Node000012"><a xlink:title=" ">
<polygon fill="#e0e0e0" stroke="#999999" points="656.38,-19.25 605.12,-19.25 605.12,0 656.38,0 656.38,-19.25"/>
<text text-anchor="middle" x="630.75" y="-5.75" font-family="Helvetica,sans-Serif" font-size="10.00">sstream</text>
</a>
</g>
</g>
<!-- Node2&#45;&gt;Node12 -->
<g id="edge11_Node000002_Node000012" class="edge">
<title>Node2&#45;&gt;Node12</title>
<g id="a_edge11_Node000002_Node000012"><a xlink:title=" ">
<path fill="none" stroke="#63b8ff" d="M512.84,-54.84C535.69,-46.27 570.27,-33.31 596.08,-23.63"/>
<polygon fill="#63b8ff" stroke="#63b8ff" points="596.99,-27.02 605.13,-20.23 594.53,-20.47 596.99,-27.02"/>
</a>
</g>
</g>
<!-- Node13 -->
<g id="Node000013" class="node">
<title>Node13</title>
<g id="a_Node000013"><a xlink:title=" ">
<polygon fill="#e0e0e0" stroke="#999999" points="711.25,-19.25 674.25,-19.25 674.25,0 711.25,0 711.25,-19.25"/>
<text text-anchor="middle" x="692.75" y="-5.75" font-family="Helvetica,sans-Serif" font-size="10.00">array</text>
</a>
</g>
</g>
<!-- Node2&#45;&gt;Node13 -->
<g id="edge12_Node000002_Node000013" class="edge">
<title>Node2&#45;&gt;Node13</title>
<g id="a_edge12_Node000002_Node000013"><a xlink:title=" ">
<path fill="none" stroke="#63b8ff" d="M517.41,-57.23C550.4,-49.45 606.47,-35.86 662.99,-19.92"/>
<polygon fill="#63b8ff" stroke="#63b8ff" points="663.8,-23.33 672.46,-17.22 661.88,-16.59 663.8,-23.33"/>
</a>
</g>
</g>
<!-- Node14 -->
<g id="Node000014" class="node">
<title>Node14</title>
<g id="a_Node000014"><a xlink:title=" ">
<polygon fill="#e0e0e0" stroke="#999999" points="780,-19.25 729.5,-19.25 729.5,0 780,0 780,-19.25"/>
<text text-anchor="middle" x="754.75" y="-5.75" font-family="Helvetica,sans-Serif" font-size="10.00">memory</text>
</a>
</g>
</g>
<!-- Node2&#45;&gt;Node14 -->
<g id="edge13_Node000002_Node000014" class="edge">
<title>Node2&#45;&gt;Node14</title>
<g id="a_edge13_Node000002_Node000014"><a xlink:title=" ">
<path fill="none" stroke="#63b8ff" d="M517.36,-57.25C520.52,-56.56 523.7,-55.88 526.75,-55.25 609.11,-38.27 633.14,-38.03 717.95,-19.75"/>
<polygon fill="#63b8ff" stroke="#63b8ff" points="718.67,-23.18 727.69,-17.63 717.18,-16.34 718.67,-23.18"/>
</a>
</g>
</g>
<!-- Node15 -->
<g id="Node000015" class="node">
<title>Node15</title>
<g id="a_Node000015"><a xlink:title=" ">
<polygon fill="#e0e0e0" stroke="#999999" points="847.62,-19.25 797.88,-19.25 797.88,0 847.62,0 847.62,-19.25"/>
<text text-anchor="middle" x="822.75" y="-5.75" font-family="Helvetica,sans-Serif" font-size="10.00">unistd.h</text>
</a>
</g>
</g>
<!-- Node2&#45;&gt;Node15 -->
<g id="edge14_Node000002_Node000015" class="edge">
<title>Node2&#45;&gt;Node15</title>
<g id="a_edge14_Node000002_Node000015"><a xlink:title=" ">
<path fill="none" stroke="#63b8ff" d="M517.33,-57.11C520.5,-56.44 523.69,-55.81 526.75,-55.25 638.89,-34.86 671.43,-41.31 786.54,-19.48"/>
<polygon fill="#63b8ff" stroke="#63b8ff" points="786.93,-22.97 796.08,-17.63 785.6,-16.09 786.93,-22.97"/>
</a>
</g>
</g>
<!-- Node16 -->
<g id="Node000016" class="node">
<title>Node16</title>
<g id="a_Node000016"><a xlink:title=" ">
<polygon fill="#e0e0e0" stroke="#999999" points="911.75,-19.25 865.75,-19.25 865.75,0 911.75,0 911.75,-19.25"/>
<text text-anchor="middle" x="888.75" y="-5.75" font-family="Helvetica,sans-Serif" font-size="10.00">TEnv.h</text>
</a>
</g>
</g>
<!-- Node2&#45;&gt;Node16 -->
<g id="edge15_Node000002_Node000016" class="edge">
<title>Node2&#45;&gt;Node16</title>
<g id="a_edge15_Node000002_Node000016"><a xlink:title=" ">
<path fill="none" stroke="#63b8ff" d="M517.31,-57.02C520.49,-56.37 523.68,-55.76 526.75,-55.25 668.71,-31.48 709.77,-45.79 854.37,-19.42"/>
<polygon fill="#63b8ff" stroke="#63b8ff" points="854.75,-22.91 863.94,-17.64 853.47,-16.02 854.75,-22.91"/>
</a>
</g>
</g>
<!-- Node17 -->
<g id="Node000017" class="node">
<title>Node17</title>
<g id="a_Node000017"><a xlink:title=" ">
<polygon fill="#e0e0e0" stroke="#999999" points="989.5,-19.25 930,-19.25 930,0 989.5,0 989.5,-19.25"/>
<text text-anchor="middle" x="959.75" y="-5.75" font-family="Helvetica,sans-Serif" font-size="10.00">sys/wait.h</text>
</a>
</g>
</g>
<!-- Node2&#45;&gt;Node17 -->
<g id="edge16_Node000002_Node000017" class="edge">
<title>Node2&#45;&gt;Node17</title>
<g id="a_edge16_Node000002_Node000017"><a xlink:title=" ">
<path fill="none" stroke="#63b8ff" d="M517.31,-56.97C520.48,-56.33 523.68,-55.74 526.75,-55.25 696.78,-28.31 744.99,-45.53 918.26,-19.43"/>
<polygon fill="#63b8ff" stroke="#63b8ff" points="918.74,-22.9 928.09,-17.92 917.68,-15.98 918.74,-22.9"/>
</a>
</g>
</g>
<!-- Node18 -->
<g id="Node000018" class="node">
<title>Node18</title>
<g id="a_Node000018"><a xlink:title=" ">
<polygon fill="#e0e0e0" stroke="#999999" points="1067.88,-19.25 1007.62,-19.25 1007.62,0 1067.88,0 1067.88,-19.25"/>
<text text-anchor="middle" x="1037.75" y="-5.75" font-family="Helvetica,sans-Serif" font-size="10.00">sys/prctl.h</text>
</a>
</g>
</g>
<!-- Node2&#45;&gt;Node18 -->
<g id="edge17_Node000002_Node000018" class="edge">
<title>Node2&#45;&gt;Node18</title>
<g id="a_edge17_Node000002_Node000018"><a xlink:title=" ">
<path fill="none" stroke="#63b8ff" d="M517.3,-56.92C520.47,-56.29 523.67,-55.71 526.75,-55.25 731.13,-24.43 788.62,-49.14 995.9,-19.46"/>
<polygon fill="#63b8ff" stroke="#63b8ff" points="996.28,-22.94 1005.67,-18.04 995.27,-16.02 996.28,-22.94"/>
</a>
</g>
</g>
</g>
</svg>
