<?xml version="1.0" encoding="UTF-8" standalone="no"?>
<!DOCTYPE svg PUBLIC "-//W3C//DTD SVG 1.1//EN"
 "http://www.w3.org/Graphics/SVG/1.1/DTD/svg11.dtd">
<!-- Generated by graphviz version 9.0.0 (20230911.1827)
 -->
<!-- Title: TLstEvent.h Pages: 1 -->
<svg width="438pt" height="193pt"
 viewBox="0.00 0.00 438.38 193.00" xmlns="http://www.w3.org/2000/svg" xmlns:xlink="http://www.w3.org/1999/xlink">

<svg id="main" version="1.1" xmlns="http://www.w3.org/2000/svg" xmlns:xlink="http://www.w3.org/1999/xlink" xml:space="preserve" onload="init(evt)">
<style type="text/css"><![CDATA[
.node, .edge {opacity: 0.7;}
.node.selected, .edge.selected {opacity: 1;}
.edge:hover path { stroke: red; }
.edge:hover polygon { stroke: red; fill: red; }
]]></style>
<script type="application/ecmascript" xlink:href="svg.min.js"/>
<svg id="graph" class="graph">
<g id="graph0" class="graph" transform="scale(1 1) rotate(0) translate(4 189)">
<title>TLstEvent.h</title>
<!-- Node1 -->
<g id="Node000001" class="node">
<title>Node1</title>
<g id="a_Node000001"><a xlink:title=" ">
<polygon fill="#999999" stroke="#666666" points="328.38,-185 259.88,-185 259.88,-165.75 328.38,-165.75 328.38,-185"/>
<text text-anchor="middle" x="294.12" y="-171.5" font-family="Helvetica,sans-Serif" font-size="10.00">TLstEvent.h</text>
</a>
</g>
</g>
<!-- Node2 -->
<g id="Node000002" class="node">
<title>Node2</title>
<g id="a_Node000002"><a xlink:href="_t_i_l_l_data_parser_8h.html" target="_top" xlink:title=" ">
<polygon fill="white" stroke="#666666" points="194.75,-129.75 101.5,-129.75 101.5,-110.5 194.75,-110.5 194.75,-129.75"/>
<text text-anchor="middle" x="148.12" y="-116.25" font-family="Helvetica,sans-Serif" font-size="10.00">TILLDataParser.h</text>
</a>
</g>
</g>
<!-- Node1&#45;&gt;Node2 -->
<g id="edge1_Node000001_Node000002" class="edge">
<title>Node1&#45;&gt;Node2</title>
<g id="a_edge1_Node000001_Node000002"><a xlink:title=" ">
<path fill="none" stroke="#63b8ff" d="M258.61,-161.42C232.11,-151.75 196.55,-138.79 173.01,-130.2"/>
<polygon fill="#63b8ff" stroke="#63b8ff" points="257.34,-164.68 267.94,-164.82 259.74,-158.11 257.34,-164.68"/>
</a>
</g>
</g>
<!-- Node7 -->
<g id="Node000007" class="node">
<title>Node7</title>
<g id="a_Node000007"><a xlink:href="_t_lst_event_8cxx.html" target="_top" xlink:title=" ">
<polygon fill="white" stroke="#666666" points="289.88,-129.75 212.38,-129.75 212.38,-110.5 289.88,-110.5 289.88,-129.75"/>
<text text-anchor="middle" x="251.12" y="-116.25" font-family="Helvetica,sans-Serif" font-size="10.00">TLstEvent.cxx</text>
</a>
</g>
</g>
<!-- Node1&#45;&gt;Node7 -->
<g id="edge8_Node000001_Node000007" class="edge">
<title>Node1&#45;&gt;Node7</title>
<g id="a_edge8_Node000001_Node000007"><a xlink:title=" ">
<path fill="none" stroke="#63b8ff" d="M279.87,-156.72C272.67,-147.81 264.24,-137.37 258.38,-130.11"/>
<polygon fill="#63b8ff" stroke="#63b8ff" points="277.07,-158.82 286.07,-164.4 282.51,-154.43 277.07,-158.82"/>
</a>
</g>
</g>
<!-- Node8 -->
<g id="Node000008" class="node">
<title>Node8</title>
<g id="a_Node000008"><a xlink:href="_t_lst_file_8cxx.html" target="_top" xlink:title=" ">
<polygon fill="white" stroke="#666666" points="430.38,-74.5 361.88,-74.5 361.88,-55.25 430.38,-55.25 430.38,-74.5"/>
<text text-anchor="middle" x="396.12" y="-61" font-family="Helvetica,sans-Serif" font-size="10.00">TLstFile.cxx</text>
</a>
</g>
</g>
<!-- Node1&#45;&gt;Node8 -->
<g id="edge9_Node000001_Node000008" class="edge">
<title>Node1&#45;&gt;Node8</title>
<g id="a_edge9_Node000001_Node000008"><a xlink:title=" ">
<path fill="none" stroke="#63b8ff" d="M333.37,-160.94C348.94,-153.85 365.8,-143.67 377.12,-129.75 390.42,-113.42 394.41,-88.03 395.61,-74.71"/>
<polygon fill="#63b8ff" stroke="#63b8ff" points="332.13,-157.67 324.27,-164.78 334.85,-164.12 332.13,-157.67"/>
</a>
</g>
</g>
<!-- Node9 -->
<g id="Node000009" class="node">
<title>Node9</title>
<g id="a_Node000009"><a xlink:href="_t_lst_file_8h.html" target="_top" xlink:title=" ">
<polygon fill="white" stroke="#666666" points="367.88,-129.75 308.38,-129.75 308.38,-110.5 367.88,-110.5 367.88,-129.75"/>
<text text-anchor="middle" x="338.12" y="-116.25" font-family="Helvetica,sans-Serif" font-size="10.00">TLstFile.h</text>
</a>
</g>
</g>
<!-- Node1&#45;&gt;Node9 -->
<g id="edge10_Node000001_Node000009" class="edge">
<title>Node1&#45;&gt;Node9</title>
<g id="a_edge10_Node000001_Node000009"><a xlink:title=" ">
<path fill="none" stroke="#63b8ff" d="M308.71,-156.72C316.08,-147.81 324.7,-137.37 330.7,-130.11"/>
<polygon fill="#63b8ff" stroke="#63b8ff" points="306.03,-154.48 302.35,-164.42 311.42,-158.94 306.03,-154.48"/>
</a>
</g>
</g>
<!-- Node3 -->
<g id="Node000003" class="node">
<title>Node3</title>
<g id="a_Node000003"><a xlink:href="_i_l_l_data_library_8cxx.html" target="_top" xlink:title=" ">
<polygon fill="white" stroke="#666666" points="343.62,-74.5 246.62,-74.5 246.62,-55.25 343.62,-55.25 343.62,-74.5"/>
<text text-anchor="middle" x="295.12" y="-61" font-family="Helvetica,sans-Serif" font-size="10.00">ILLDataLibrary.cxx</text>
</a>
</g>
</g>
<!-- Node2&#45;&gt;Node3 -->
<g id="edge2_Node000002_Node000003" class="edge">
<title>Node2&#45;&gt;Node3</title>
<g id="a_edge2_Node000002_Node000003"><a xlink:title=" ">
<path fill="none" stroke="#63b8ff" d="M183.88,-106.17C210.57,-96.5 246.37,-83.54 270.07,-74.95"/>
<polygon fill="#63b8ff" stroke="#63b8ff" points="182.69,-102.88 174.48,-109.58 185.08,-109.46 182.69,-102.88"/>
</a>
</g>
</g>
<!-- Node4 -->
<g id="Node000004" class="node">
<title>Node4</title>
<g id="a_Node000004"><a xlink:href="_t_i_l_l_data_parser_8cxx.html" target="_top" xlink:title=" ">
<polygon fill="white" stroke="#666666" points="102.25,-19.25 0,-19.25 0,0 102.25,0 102.25,-19.25"/>
<text text-anchor="middle" x="51.12" y="-5.75" font-family="Helvetica,sans-Serif" font-size="10.00">TILLDataParser.cxx</text>
</a>
</g>
</g>
<!-- Node2&#45;&gt;Node4 -->
<g id="edge3_Node000002_Node000004" class="edge">
<title>Node2&#45;&gt;Node4</title>
<g id="a_edge3_Node000002_Node000004"><a xlink:title=" ">
<path fill="none" stroke="#63b8ff" d="M90.23,-107.13C72.76,-100.51 55.49,-90.28 45.12,-74.5 34.12,-57.74 41.56,-32.97 46.94,-19.74"/>
<polygon fill="#63b8ff" stroke="#63b8ff" points="89.04,-110.42 99.64,-110.32 91.29,-103.79 89.04,-110.42"/>
</a>
</g>
</g>
<!-- Node5 -->
<g id="Node000005" class="node">
<title>Node5</title>
<g id="a_Node000005"><a xlink:href="_t_i_l_l_data_parser_exception_8cxx.html" target="_top" xlink:title=" ">
<polygon fill="white" stroke="#666666" points="277.25,-19.25 133,-19.25 133,0 277.25,0 277.25,-19.25"/>
<text text-anchor="middle" x="205.12" y="-5.75" font-family="Helvetica,sans-Serif" font-size="10.00">TILLDataParserException.cxx</text>
</a>
</g>
</g>
<!-- Node2&#45;&gt;Node5 -->
<g id="edge4_Node000002_Node000005" class="edge">
<title>Node2&#45;&gt;Node5</title>
<g id="a_edge4_Node000002_Node000005"><a xlink:title=" ">
<path fill="none" stroke="#63b8ff" d="M172.64,-103.82C182.58,-96.27 193.12,-86.25 199.12,-74.5 208.26,-56.65 207.51,-32.32 206.27,-19.45"/>
<polygon fill="#63b8ff" stroke="#63b8ff" points="170.87,-100.79 164.7,-109.41 174.89,-106.51 170.87,-100.79"/>
</a>
</g>
</g>
<!-- Node6 -->
<g id="Node000006" class="node">
<title>Node6</title>
<g id="a_Node000006"><a xlink:href="_t_i_l_l_data_parser_exception_8h.html" target="_top" xlink:title=" ">
<polygon fill="white" stroke="#666666" points="189.75,-74.5 54.5,-74.5 54.5,-55.25 189.75,-55.25 189.75,-74.5"/>
<text text-anchor="middle" x="122.12" y="-61" font-family="Helvetica,sans-Serif" font-size="10.00">TILLDataParserException.h</text>
</a>
</g>
</g>
<!-- Node2&#45;&gt;Node6 -->
<g id="edge5_Node000002_Node000006" class="edge">
<title>Node2&#45;&gt;Node6</title>
<g id="a_edge5_Node000002_Node000006"><a xlink:title=" ">
<path fill="none" stroke="#63b8ff" d="M138.81,-100.04C134.61,-91.46 129.87,-81.73 126.51,-74.86"/>
<polygon fill="#63b8ff" stroke="#63b8ff" points="135.63,-101.52 143.17,-108.97 141.93,-98.45 135.63,-101.52"/>
</a>
</g>
</g>
<!-- Node6&#45;&gt;Node4 -->
<g id="edge6_Node000006_Node000004" class="edge">
<title>Node6&#45;&gt;Node4</title>
<g id="a_edge6_Node000006_Node000004"><a xlink:title=" ">
<path fill="none" stroke="#63b8ff" d="M100.88,-47.94C88.48,-38.64 73.3,-27.26 62.99,-19.52"/>
<polygon fill="#63b8ff" stroke="#63b8ff" points="98.77,-50.73 108.87,-53.93 102.97,-45.13 98.77,-50.73"/>
</a>
</g>
</g>
<!-- Node6&#45;&gt;Node5 -->
<g id="edge7_Node000006_Node000005" class="edge">
<title>Node6&#45;&gt;Node5</title>
<g id="a_edge7_Node000006_Node000005"><a xlink:title=" ">
<path fill="none" stroke="#63b8ff" d="M145.62,-48.8C160.24,-39.42 178.55,-27.67 190.98,-19.7"/>
<polygon fill="#63b8ff" stroke="#63b8ff" points="144.01,-45.68 137.48,-54.02 147.79,-51.57 144.01,-45.68"/>
</a>
</g>
</g>
<!-- Node9&#45;&gt;Node3 -->
<g id="edge11_Node000009_Node000003" class="edge">
<title>Node9&#45;&gt;Node3</title>
<g id="a_edge11_Node000009_Node000003"><a xlink:title=" ">
<path fill="none" stroke="#63b8ff" d="M323.87,-101.47C316.67,-92.56 308.24,-82.12 302.38,-74.86"/>
<polygon fill="#63b8ff" stroke="#63b8ff" points="321.07,-103.57 330.07,-109.15 326.51,-99.18 321.07,-103.57"/>
</a>
</g>
</g>
<!-- Node9&#45;&gt;Node8 -->
<g id="edge12_Node000009_Node000008" class="edge">
<title>Node9&#45;&gt;Node8</title>
<g id="a_edge12_Node000009_Node000008"><a xlink:title=" ">
<path fill="none" stroke="#63b8ff" d="M356.39,-102.36C366.34,-93.22 378.26,-82.28 386.43,-74.77"/>
<polygon fill="#63b8ff" stroke="#63b8ff" points="354.08,-99.73 349.08,-109.07 358.81,-104.88 354.08,-99.73"/>
</a>
</g>
</g>
</g>
</svg>
</svg>

<style type='text/css'>
<![CDATA[
[data-mouse-over-selected='false'] { opacity: 0.7; }
[data-mouse-over-selected='true']  { opacity: 1.0; }
]]>
</style>
<script type="application/ecmascript"><![CDATA[
document.addEventListener('DOMContentLoaded', (event) => {
  highlightEdges();
  highlightAdjacentNodes();
});
]]></script>
</svg>
