<?xml version="1.0" encoding="UTF-8" standalone="no"?>
<!DOCTYPE svg PUBLIC "-//W3C//DTD SVG 1.1//EN"
 "http://www.w3.org/Graphics/SVG/1.1/DTD/svg11.dtd">
<!-- Generated by graphviz version 9.0.0 (20230911.1827)
 -->
<!-- Title: TLaBr.h Pages: 1 -->
<svg width="599pt" height="83pt"
 viewBox="0.00 0.00 598.62 82.50" xmlns="http://www.w3.org/2000/svg" xmlns:xlink="http://www.w3.org/1999/xlink">
<g id="graph0" class="graph" transform="scale(1 1) rotate(0) translate(4 78.5)">
<title>TLaBr.h</title>
<!-- Node1 -->
<g id="Node000001" class="node">
<title>Node1</title>
<g id="a_Node000001"><a xlink:title=" ">
<polygon fill="#999999" stroke="#666666" points="339.12,-74.5 288.62,-74.5 288.62,-55.25 339.12,-55.25 339.12,-74.5"/>
<text text-anchor="middle" x="313.88" y="-61" font-family="Helvetica,sans-Serif" font-size="10.00">TLaBr.h</text>
</a>
</g>
</g>
<!-- Node2 -->
<g id="Node000002" class="node">
<title>Node2</title>
<g id="a_Node000002"><a xlink:href="_get_tree_entries_8cxx.html" target="_top" xlink:title=" ">
<polygon fill="white" stroke="#666666" points="97.75,-19.25 0,-19.25 0,0 97.75,0 97.75,-19.25"/>
<text text-anchor="middle" x="48.88" y="-5.75" font-family="Helvetica,sans-Serif" font-size="10.00">GetTreeEntries.cxx</text>
</a>
</g>
</g>
<!-- Node1&#45;&gt;Node2 -->
<g id="edge1_Node000001_Node000002" class="edge">
<title>Node1&#45;&gt;Node2</title>
<g id="a_edge1_Node000001_Node000002"><a xlink:title=" ">
<path fill="none" stroke="#63b8ff" d="M277.41,-56.55C229.59,-46.94 145.72,-30.08 93.96,-19.69"/>
<polygon fill="#63b8ff" stroke="#63b8ff" points="276.49,-59.93 286.98,-58.47 277.87,-53.07 276.49,-59.93"/>
</a>
</g>
</g>
<!-- Node3 -->
<g id="Node000003" class="node">
<title>Node3</title>
<g id="a_Node000003"><a xlink:href="_t_g_r_s_i_mnemonic_8cxx.html" target="_top" xlink:title=" ">
<polygon fill="white" stroke="#666666" points="223.62,-19.25 116.12,-19.25 116.12,0 223.62,0 223.62,-19.25"/>
<text text-anchor="middle" x="169.88" y="-5.75" font-family="Helvetica,sans-Serif" font-size="10.00">TGRSIMnemonic.cxx</text>
</a>
</g>
</g>
<!-- Node1&#45;&gt;Node3 -->
<g id="edge2_Node000001_Node000003" class="edge">
<title>Node1&#45;&gt;Node3</title>
<g id="a_edge2_Node000001_Node000003"><a xlink:title=" ">
<path fill="none" stroke="#63b8ff" d="M278.85,-50.92C252.7,-41.25 217.63,-28.29 194.42,-19.7"/>
<polygon fill="#63b8ff" stroke="#63b8ff" points="277.43,-54.13 288.03,-54.32 279.86,-47.57 277.43,-54.13"/>
</a>
</g>
</g>
<!-- Node4 -->
<g id="Node000004" class="node">
<title>Node4</title>
<g id="a_Node000004"><a xlink:href="_t_la_br_8cxx.html" target="_top" xlink:title=" ">
<polygon fill="white" stroke="#666666" points="301.62,-19.25 242.12,-19.25 242.12,0 301.62,0 301.62,-19.25"/>
<text text-anchor="middle" x="271.88" y="-5.75" font-family="Helvetica,sans-Serif" font-size="10.00">TLaBr.cxx</text>
</a>
</g>
</g>
<!-- Node1&#45;&gt;Node4 -->
<g id="edge3_Node000001_Node000004" class="edge">
<title>Node1&#45;&gt;Node4</title>
<g id="a_edge3_Node000001_Node000004"><a xlink:title=" ">
<path fill="none" stroke="#63b8ff" d="M299.95,-46.22C292.92,-37.31 284.69,-26.87 278.96,-19.61"/>
<polygon fill="#63b8ff" stroke="#63b8ff" points="297.06,-48.21 306,-53.89 302.56,-43.87 297.06,-48.21"/>
</a>
</g>
</g>
<!-- Node5 -->
<g id="Node000005" class="node">
<title>Node5</title>
<g id="a_Node000005"><a xlink:href="_t_la_br_hit_8cxx.html" target="_top" xlink:title=" ">
<polygon fill="white" stroke="#666666" points="392,-19.25 319.75,-19.25 319.75,0 392,0 392,-19.25"/>
<text text-anchor="middle" x="355.88" y="-5.75" font-family="Helvetica,sans-Serif" font-size="10.00">TLaBrHit.cxx</text>
</a>
</g>
</g>
<!-- Node1&#45;&gt;Node5 -->
<g id="edge4_Node000001_Node000005" class="edge">
<title>Node1&#45;&gt;Node5</title>
<g id="a_edge4_Node000001_Node000005"><a xlink:title=" ">
<path fill="none" stroke="#63b8ff" d="M327.8,-46.22C334.83,-37.31 343.06,-26.87 348.79,-19.61"/>
<polygon fill="#63b8ff" stroke="#63b8ff" points="325.19,-43.87 321.75,-53.89 330.69,-48.21 325.19,-43.87"/>
</a>
</g>
</g>
<!-- Node6 -->
<g id="Node000006" class="node">
<title>Node6</title>
<g id="a_Node000006"><a xlink:href="tac__calibrator_8cxx.html" target="_top" xlink:title=" ">
<polygon fill="white" stroke="#666666" points="501.38,-19.25 410.38,-19.25 410.38,0 501.38,0 501.38,-19.25"/>
<text text-anchor="middle" x="455.88" y="-5.75" font-family="Helvetica,sans-Serif" font-size="10.00">tac_calibrator.cxx</text>
</a>
</g>
</g>
<!-- Node1&#45;&gt;Node6 -->
<g id="edge5_Node000001_Node000006" class="edge">
<title>Node1&#45;&gt;Node6</title>
<g id="a_edge5_Node000001_Node000006"><a xlink:title=" ">
<path fill="none" stroke="#63b8ff" d="M348.41,-50.92C374.2,-41.25 408.78,-28.29 431.67,-19.7"/>
<polygon fill="#63b8ff" stroke="#63b8ff" points="347.51,-47.52 339.38,-54.31 349.97,-54.08 347.51,-47.52"/>
</a>
</g>
</g>
<!-- Node7 -->
<g id="Node000007" class="node">
<title>Node7</title>
<g id="a_Node000007"><a xlink:href="write__cal_8cxx.html" target="_top" xlink:title=" ">
<polygon fill="white" stroke="#666666" points="590.62,-19.25 519.12,-19.25 519.12,0 590.62,0 590.62,-19.25"/>
<text text-anchor="middle" x="554.88" y="-5.75" font-family="Helvetica,sans-Serif" font-size="10.00">write_cal.cxx</text>
</a>
</g>
</g>
<!-- Node1&#45;&gt;Node7 -->
<g id="edge6_Node000001_Node000007" class="edge">
<title>Node1&#45;&gt;Node7</title>
<g id="a_edge6_Node000001_Node000007"><a xlink:title=" ">
<path fill="none" stroke="#63b8ff" d="M350.36,-55.81C396,-45.73 473.64,-28.57 518.99,-18.55"/>
<polygon fill="#63b8ff" stroke="#63b8ff" points="349.7,-52.38 340.69,-57.95 351.21,-59.21 349.7,-52.38"/>
</a>
</g>
</g>
</g>
</svg>
