<?xml version="1.0" encoding="UTF-8" standalone="no"?>
<!DOCTYPE svg PUBLIC "-//W3C//DTD SVG 1.1//EN"
 "http://www.w3.org/Graphics/SVG/1.1/DTD/svg11.dtd">
<!-- Generated by graphviz version 9.0.0 (20230911.1827)
 -->
<!-- Title: TMultiPeak.h Pages: 1 -->
<svg width="1641pt" height="304pt"
 viewBox="0.00 0.00 1641.12 303.50" xmlns="http://www.w3.org/2000/svg" xmlns:xlink="http://www.w3.org/1999/xlink">
<g id="graph0" class="graph" transform="scale(1 1) rotate(0) translate(4 299.5)">
<title>TMultiPeak.h</title>
<!-- Node1 -->
<g id="Node000001" class="node">
<title>Node1</title>
<g id="a_Node000001"><a xlink:title=" ">
<polygon fill="#999999" stroke="#666666" points="280.5,-295.5 207.5,-295.5 207.5,-276.25 280.5,-276.25 280.5,-295.5"/>
<text text-anchor="middle" x="244" y="-282" font-family="Helvetica,sans-Serif" font-size="10.00">TMultiPeak.h</text>
</a>
</g>
</g>
<!-- Node2 -->
<g id="Node000002" class="node">
<title>Node2</title>
<g id="a_Node000002"><a xlink:title=" ">
<polygon fill="#e0e0e0" stroke="#999999" points="368,-19.25 328,-19.25 328,0 368,0 368,-19.25"/>
<text text-anchor="middle" x="348" y="-5.75" font-family="Helvetica,sans-Serif" font-size="10.00">string</text>
</a>
</g>
</g>
<!-- Node1&#45;&gt;Node2 -->
<g id="edge1_Node000001_Node000002" class="edge">
<title>Node1&#45;&gt;Node2</title>
<g id="a_edge1_Node000001_Node000002"><a xlink:title=" ">
<path fill="none" stroke="#63b8ff" d="M207.21,-284.66C139.04,-282.12 0,-265.97 0,-176.38 0,-176.38 0,-176.38 0,-119.12 0,-53.23 230.25,-22.75 316.17,-13.67"/>
<polygon fill="#63b8ff" stroke="#63b8ff" points="316.43,-17.16 326.02,-12.66 315.72,-10.19 316.43,-17.16"/>
</a>
</g>
</g>
<!-- Node3 -->
<g id="Node000003" class="node">
<title>Node3</title>
<g id="a_Node000003"><a xlink:title=" ">
<polygon fill="#e0e0e0" stroke="#999999" points="121.88,-185 66.12,-185 66.12,-165.75 121.88,-165.75 121.88,-185"/>
<text text-anchor="middle" x="94" y="-171.5" font-family="Helvetica,sans-Serif" font-size="10.00">algorithm</text>
</a>
</g>
</g>
<!-- Node1&#45;&gt;Node3 -->
<g id="edge2_Node000001_Node000003" class="edge">
<title>Node1&#45;&gt;Node3</title>
<g id="a_edge2_Node000001_Node000003"><a xlink:title=" ">
<path fill="none" stroke="#63b8ff" d="M237.88,-276.02C228.31,-262.68 208.62,-237.26 187,-221 169.73,-208.01 148.09,-197.36 130.02,-189.72"/>
<polygon fill="#63b8ff" stroke="#63b8ff" points="131.57,-186.57 120.99,-186.04 128.93,-193.05 131.57,-186.57"/>
</a>
</g>
</g>
<!-- Node4 -->
<g id="Node000004" class="node">
<title>Node4</title>
<g id="a_Node000004"><a xlink:title=" ">
<polygon fill="#e0e0e0" stroke="#999999" points="111.5,-240.25 68.5,-240.25 68.5,-221 111.5,-221 111.5,-240.25"/>
<text text-anchor="middle" x="90" y="-226.75" font-family="Helvetica,sans-Serif" font-size="10.00">vector</text>
</a>
</g>
</g>
<!-- Node1&#45;&gt;Node4 -->
<g id="edge3_Node000001_Node000004" class="edge">
<title>Node1&#45;&gt;Node4</title>
<g id="a_edge3_Node000001_Node000004"><a xlink:title=" ">
<path fill="none" stroke="#63b8ff" d="M217.88,-275.84C191.51,-266.73 150.75,-252.63 122.35,-242.81"/>
<polygon fill="#63b8ff" stroke="#63b8ff" points="123.79,-239.61 113.19,-239.64 121.5,-246.22 123.79,-239.61"/>
</a>
</g>
</g>
<!-- Node5 -->
<g id="Node000005" class="node">
<title>Node5</title>
<g id="a_Node000005"><a xlink:title=" ">
<polygon fill="#e0e0e0" stroke="#999999" points="178.12,-240.25 129.88,-240.25 129.88,-221 178.12,-221 178.12,-240.25"/>
<text text-anchor="middle" x="154" y="-226.75" font-family="Helvetica,sans-Serif" font-size="10.00">cstdarg</text>
</a>
</g>
</g>
<!-- Node1&#45;&gt;Node5 -->
<g id="edge4_Node000001_Node000005" class="edge">
<title>Node1&#45;&gt;Node5</title>
<g id="a_edge4_Node000001_Node000005"><a xlink:title=" ">
<path fill="none" stroke="#63b8ff" d="M228.73,-275.84C215.16,-267.81 195.05,-255.91 179.1,-246.48"/>
<polygon fill="#63b8ff" stroke="#63b8ff" points="181.03,-243.55 170.64,-241.47 177.47,-249.58 181.03,-243.55"/>
</a>
</g>
</g>
<!-- Node6 -->
<g id="Node000006" class="node">
<title>Node6</title>
<g id="a_Node000006"><a xlink:title=" ">
<polygon fill="#e0e0e0" stroke="#999999" points="377.38,-129.75 336.62,-129.75 336.62,-110.5 377.38,-110.5 377.38,-129.75"/>
<text text-anchor="middle" x="357" y="-116.25" font-family="Helvetica,sans-Serif" font-size="10.00">TF1.h</text>
</a>
</g>
</g>
<!-- Node1&#45;&gt;Node6 -->
<g id="edge5_Node000001_Node000006" class="edge">
<title>Node1&#45;&gt;Node6</title>
<g id="a_edge5_Node000001_Node000006"><a xlink:title=" ">
<path fill="none" stroke="#63b8ff" d="M277.98,-275.91C296.97,-269.16 319.46,-257.97 333,-240.25 355.24,-211.14 358.35,-166.7 358.05,-141.13"/>
<polygon fill="#63b8ff" stroke="#63b8ff" points="361.56,-141.34 357.73,-131.47 354.56,-141.58 361.56,-141.34"/>
</a>
</g>
</g>
<!-- Node7 -->
<g id="Node000007" class="node">
<title>Node7</title>
<g id="a_Node000007"><a xlink:title=" ">
<polygon fill="#e0e0e0" stroke="#999999" points="401.62,-74.5 320.38,-74.5 320.38,-55.25 401.62,-55.25 401.62,-74.5"/>
<text text-anchor="middle" x="361" y="-61" font-family="Helvetica,sans-Serif" font-size="10.00">TFitResultPtr.h</text>
</a>
</g>
</g>
<!-- Node1&#45;&gt;Node7 -->
<g id="edge6_Node000001_Node000007" class="edge">
<title>Node1&#45;&gt;Node7</title>
<g id="a_edge6_Node000001_Node000007"><a xlink:title=" ">
<path fill="none" stroke="#63b8ff" d="M280.92,-278.08C304.49,-271.95 334.07,-260.62 353,-240.25 393.5,-196.66 401.03,-168.07 386,-110.5 383.59,-101.28 378.82,-91.96 374.08,-84.23"/>
<polygon fill="#63b8ff" stroke="#63b8ff" points="377.14,-82.51 368.7,-76.11 371.3,-86.38 377.14,-82.51"/>
</a>
</g>
</g>
<!-- Node8 -->
<g id="Node000008" class="node">
<title>Node8</title>
<g id="a_Node000008"><a xlink:title=" ">
<polygon fill="#e0e0e0" stroke="#999999" points="302.25,-74.5 233.75,-74.5 233.75,-55.25 302.25,-55.25 302.25,-74.5"/>
<text text-anchor="middle" x="268" y="-61" font-family="Helvetica,sans-Serif" font-size="10.00">TFitResult.h</text>
</a>
</g>
</g>
<!-- Node1&#45;&gt;Node8 -->
<g id="edge7_Node000001_Node000008" class="edge">
<title>Node1&#45;&gt;Node8</title>
<g id="a_edge7_Node000001_Node000008"><a xlink:title=" ">
<path fill="none" stroke="#63b8ff" d="M207.31,-281.22C158.86,-275.56 77.5,-262.89 59,-240.25 38.04,-214.6 39.28,-193.74 57,-165.75 93.2,-108.57 171.96,-83.49 222.34,-72.96"/>
<polygon fill="#63b8ff" stroke="#63b8ff" points="222.95,-76.41 232.08,-71.05 221.6,-69.54 222.95,-76.41"/>
</a>
</g>
</g>
<!-- Node9 -->
<g id="Node000009" class="node">
<title>Node9</title>
<g id="a_Node000009"><a xlink:title=" ">
<polygon fill="#e0e0e0" stroke="#999999" points="195.88,-185 140.12,-185 140.12,-165.75 195.88,-165.75 195.88,-185"/>
<text text-anchor="middle" x="168" y="-171.5" font-family="Helvetica,sans-Serif" font-size="10.00">TGraph.h</text>
</a>
</g>
</g>
<!-- Node1&#45;&gt;Node9 -->
<g id="edge8_Node000001_Node000009" class="edge">
<title>Node1&#45;&gt;Node9</title>
<g id="a_edge8_Node000001_Node000009"><a xlink:title=" ">
<path fill="none" stroke="#63b8ff" d="M242.14,-275.95C239.12,-262.95 232.22,-238.47 220,-221 212.25,-209.92 201.13,-199.88 191.16,-192.14"/>
<polygon fill="#63b8ff" stroke="#63b8ff" points="193.45,-189.48 183.32,-186.37 189.3,-195.12 193.45,-189.48"/>
</a>
</g>
</g>
<!-- Node10 -->
<g id="Node000010" class="node">
<title>Node10</title>
<g id="a_Node000010"><a xlink:href="_t_g_r_s_i_functions_8h.html" target="_top" xlink:title=" ">
<polygon fill="white" stroke="#666666" points="605.12,-129.75 508.88,-129.75 508.88,-110.5 605.12,-110.5 605.12,-129.75"/>
<text text-anchor="middle" x="557" y="-116.25" font-family="Helvetica,sans-Serif" font-size="10.00">TGRSIFunctions.h</text>
</a>
</g>
</g>
<!-- Node1&#45;&gt;Node10 -->
<g id="edge9_Node000001_Node000010" class="edge">
<title>Node1&#45;&gt;Node10</title>
<g id="a_edge9_Node000001_Node000010"><a xlink:title=" ">
<path fill="none" stroke="#63b8ff" d="M280.69,-285.21C327.22,-284 408.32,-276.28 466,-240.25 505.59,-215.52 534.38,-166.96 548.06,-140.11"/>
<polygon fill="#63b8ff" stroke="#63b8ff" points="551.06,-141.94 552.32,-131.42 544.78,-138.85 551.06,-141.94"/>
</a>
</g>
</g>
<!-- Node34 -->
<g id="Node000034" class="node">
<title>Node34</title>
<g id="a_Node000034"><a xlink:href="_t_g_r_s_i_fit_8h.html" target="_top" xlink:title=" ">
<polygon fill="white" stroke="#666666" points="858.38,-185 793.62,-185 793.62,-165.75 858.38,-165.75 858.38,-185"/>
<text text-anchor="middle" x="826" y="-171.5" font-family="Helvetica,sans-Serif" font-size="10.00">TGRSIFit.h</text>
</a>
</g>
</g>
<!-- Node1&#45;&gt;Node34 -->
<g id="edge38_Node000001_Node000034" class="edge">
<title>Node1&#45;&gt;Node34</title>
<g id="a_edge38_Node000001_Node000034"><a xlink:title=" ">
<path fill="none" stroke="#63b8ff" d="M280.62,-279.96C335.6,-272.4 442.66,-257.06 533,-240.25 621.83,-223.73 724.87,-200.25 782.04,-186.84"/>
<polygon fill="#63b8ff" stroke="#63b8ff" points="782.77,-190.27 791.7,-184.57 781.17,-183.45 782.77,-190.27"/>
</a>
</g>
</g>
<!-- Node45 -->
<g id="Node000045" class="node">
<title>Node45</title>
<g id="a_Node000045"><a xlink:href="_t_peak_8h.html" target="_top" xlink:title=" ">
<polygon fill="white" stroke="#666666" points="324,-240.25 272,-240.25 272,-221 324,-221 324,-240.25"/>
<text text-anchor="middle" x="298" y="-226.75" font-family="Helvetica,sans-Serif" font-size="10.00">TPeak.h</text>
</a>
</g>
</g>
<!-- Node1&#45;&gt;Node45 -->
<g id="edge56_Node000001_Node000045" class="edge">
<title>Node1&#45;&gt;Node45</title>
<g id="a_edge56_Node000001_Node000045"><a xlink:title=" ">
<path fill="none" stroke="#63b8ff" d="M252.92,-276.08C260.45,-268.65 271.47,-257.79 280.73,-248.66"/>
<polygon fill="#63b8ff" stroke="#63b8ff" points="283.15,-251.19 287.81,-241.67 278.23,-246.2 283.15,-251.19"/>
</a>
</g>
</g>
<!-- Node10&#45;&gt;Node2 -->
<g id="edge12_Node000010_Node000002" class="edge">
<title>Node10&#45;&gt;Node2</title>
<g id="a_edge12_Node000010_Node000002"><a xlink:title=" ">
<path fill="none" stroke="#63b8ff" d="M561.84,-110.15C568.39,-96.65 577.85,-71.01 565,-55.25 541.95,-26.98 433.95,-16.11 379.52,-12.37"/>
<polygon fill="#63b8ff" stroke="#63b8ff" points="379.87,-8.88 369.66,-11.73 379.42,-15.87 379.87,-8.88"/>
</a>
</g>
</g>
<!-- Node10&#45;&gt;Node7 -->
<g id="edge16_Node000010_Node000007" class="edge">
<title>Node10&#45;&gt;Node7</title>
<g id="a_edge16_Node000010_Node000007"><a xlink:title=" ">
<path fill="none" stroke="#63b8ff" d="M523.75,-110.09C491.09,-101.22 441.06,-87.62 405.09,-77.85"/>
<polygon fill="#63b8ff" stroke="#63b8ff" points="406.44,-74.59 395.87,-75.35 404.6,-81.35 406.44,-74.59"/>
</a>
</g>
</g>
<!-- Node10&#45;&gt;Node8 -->
<g id="edge17_Node000010_Node000008" class="edge">
<title>Node10&#45;&gt;Node8</title>
<g id="a_edge17_Node000010_Node000008"><a xlink:title=" ">
<path fill="none" stroke="#63b8ff" d="M508.41,-110.58C461.17,-102.22 387.1,-88.94 313.97,-75.04"/>
<polygon fill="#63b8ff" stroke="#63b8ff" points="314.69,-71.62 304.21,-73.18 313.38,-78.49 314.69,-71.62"/>
</a>
</g>
</g>
<!-- Node11 -->
<g id="Node000011" class="node">
<title>Node11</title>
<g id="a_Node000011"><a xlink:title=" ">
<polygon fill="#e0e0e0" stroke="#999999" points="548.75,-19.25 495.25,-19.25 495.25,0 548.75,0 548.75,-19.25"/>
<text text-anchor="middle" x="522" y="-5.75" font-family="Helvetica,sans-Serif" font-size="10.00">iostream</text>
</a>
</g>
</g>
<!-- Node10&#45;&gt;Node11 -->
<g id="edge10_Node000010_Node000011" class="edge">
<title>Node10&#45;&gt;Node11</title>
<g id="a_edge10_Node000010_Node000011"><a xlink:title=" ">
<path fill="none" stroke="#63b8ff" d="M569.88,-110.21C585.82,-98.02 609.52,-75.38 598,-55.25 589.62,-40.61 574.36,-30.3 559.71,-23.31"/>
<polygon fill="#63b8ff" stroke="#63b8ff" points="561.21,-20.15 550.64,-19.4 558.43,-26.57 561.21,-20.15"/>
</a>
</g>
</g>
<!-- Node12 -->
<g id="Node000012" class="node">
<title>Node12</title>
<g id="a_Node000012"><a xlink:title=" ">
<polygon fill="#e0e0e0" stroke="#999999" points="699.5,-74.5 650.5,-74.5 650.5,-55.25 699.5,-55.25 699.5,-74.5"/>
<text text-anchor="middle" x="675" y="-61" font-family="Helvetica,sans-Serif" font-size="10.00">fstream</text>
</a>
</g>
</g>
<!-- Node10&#45;&gt;Node12 -->
<g id="edge11_Node000010_Node000012" class="edge">
<title>Node10&#45;&gt;Node12</title>
<g id="a_edge11_Node000010_Node000012"><a xlink:title=" ">
<path fill="none" stroke="#63b8ff" d="M577.02,-110.09C595.49,-101.75 623.21,-89.25 644.45,-79.66"/>
<polygon fill="#63b8ff" stroke="#63b8ff" points="645.83,-82.88 653.51,-75.58 642.95,-76.5 645.83,-82.88"/>
</a>
</g>
</g>
<!-- Node13 -->
<g id="Node000013" class="node">
<title>Node13</title>
<g id="a_Node000013"><a xlink:title=" ">
<polygon fill="#e0e0e0" stroke="#999999" points="760.5,-74.5 717.5,-74.5 717.5,-55.25 760.5,-55.25 760.5,-74.5"/>
<text text-anchor="middle" x="739" y="-61" font-family="Helvetica,sans-Serif" font-size="10.00">cmath</text>
</a>
</g>
</g>
<!-- Node10&#45;&gt;Node13 -->
<g id="edge13_Node000010_Node000013" class="edge">
<title>Node10&#45;&gt;Node13</title>
<g id="a_edge13_Node000010_Node000013"><a xlink:title=" ">
<path fill="none" stroke="#63b8ff" d="M587.87,-110.09C620.86,-100.44 672.92,-85.21 706.51,-75.38"/>
<polygon fill="#63b8ff" stroke="#63b8ff" points="707.07,-78.86 715.69,-72.7 705.11,-72.14 707.07,-78.86"/>
</a>
</g>
</g>
<!-- Node14 -->
<g id="Node000014" class="node">
<title>Node14</title>
<g id="a_Node000014"><a xlink:title=" ">
<polygon fill="#e0e0e0" stroke="#999999" points="829.62,-74.5 778.38,-74.5 778.38,-55.25 829.62,-55.25 829.62,-74.5"/>
<text text-anchor="middle" x="804" y="-61" font-family="Helvetica,sans-Serif" font-size="10.00">TMath.h</text>
</a>
</g>
</g>
<!-- Node10&#45;&gt;Node14 -->
<g id="edge14_Node000010_Node000014" class="edge">
<title>Node10&#45;&gt;Node14</title>
<g id="a_edge14_Node000010_Node000014"><a xlink:title=" ">
<path fill="none" stroke="#63b8ff" d="M603.24,-110.02C644.02,-101.86 705.33,-89.28 766.94,-75.14"/>
<polygon fill="#63b8ff" stroke="#63b8ff" points="767.61,-78.58 776.56,-72.92 766.03,-71.76 767.61,-78.58"/>
</a>
</g>
</g>
<!-- Node15 -->
<g id="Node000015" class="node">
<title>Node15</title>
<g id="a_Node000015"><a xlink:title=" ">
<polygon fill="#e0e0e0" stroke="#999999" points="954.62,-74.5 897.38,-74.5 897.38,-55.25 954.62,-55.25 954.62,-74.5"/>
<text text-anchor="middle" x="926" y="-61" font-family="Helvetica,sans-Serif" font-size="10.00">TROOT.h</text>
</a>
</g>
</g>
<!-- Node10&#45;&gt;Node15 -->
<g id="edge15_Node000010_Node000015" class="edge">
<title>Node10&#45;&gt;Node15</title>
<g id="a_edge15_Node000010_Node000015"><a xlink:title=" ">
<path fill="none" stroke="#63b8ff" d="M605.51,-111.76C608.38,-111.33 611.23,-110.91 614,-110.5 711.7,-96.12 826.7,-79.84 886.06,-71.48"/>
<polygon fill="#63b8ff" stroke="#63b8ff" points="886.26,-74.99 895.67,-70.13 885.28,-68.06 886.26,-74.99"/>
</a>
</g>
</g>
<!-- Node16 -->
<g id="Node000016" class="node">
<title>Node16</title>
<g id="a_Node000016"><a xlink:title=" ">
<polygon fill="#e0e0e0" stroke="#999999" points="556,-74.5 420,-74.5 420,-55.25 556,-55.25 556,-74.5"/>
<text text-anchor="middle" x="488" y="-61" font-family="Helvetica,sans-Serif" font-size="10.00">Math/SpecFuncMathMore.h</text>
</a>
</g>
</g>
<!-- Node10&#45;&gt;Node16 -->
<g id="edge18_Node000010_Node000016" class="edge">
<title>Node10&#45;&gt;Node16</title>
<g id="a_edge18_Node000010_Node000016"><a xlink:title=" ">
<path fill="none" stroke="#63b8ff" d="M545.3,-110.09C535.22,-102.32 520.46,-90.92 508.44,-81.65"/>
<polygon fill="#63b8ff" stroke="#63b8ff" points="510.79,-79.04 500.73,-75.7 506.51,-84.58 510.79,-79.04"/>
</a>
</g>
</g>
<!-- Node17 -->
<g id="Node000017" class="node">
<title>Node17</title>
<g id="a_Node000017"><a xlink:href="_globals_8h.html" target="_top" xlink:title=" ">
<polygon fill="white" stroke="#666666" points="1054.25,-74.5 997.75,-74.5 997.75,-55.25 1054.25,-55.25 1054.25,-74.5"/>
<text text-anchor="middle" x="1026" y="-61" font-family="Helvetica,sans-Serif" font-size="10.00">Globals.h</text>
</a>
</g>
</g>
<!-- Node10&#45;&gt;Node17 -->
<g id="edge19_Node000010_Node000017" class="edge">
<title>Node10&#45;&gt;Node17</title>
<g id="a_edge19_Node000010_Node000017"><a xlink:title=" ">
<path fill="none" stroke="#63b8ff" d="M605.49,-111.63C608.37,-111.23 611.22,-110.85 614,-110.5 769.13,-90.8 808.76,-93.28 964,-74.5 971.15,-73.64 978.76,-72.64 986.1,-71.64"/>
<polygon fill="#63b8ff" stroke="#63b8ff" points="986.4,-75.13 995.82,-70.29 985.44,-68.2 986.4,-75.13"/>
</a>
</g>
</g>
<!-- Node17&#45;&gt;Node2 -->
<g id="edge24_Node000017_Node000002" class="edge">
<title>Node17&#45;&gt;Node2</title>
<g id="a_edge24_Node000017_Node000002"><a xlink:title=" ">
<path fill="none" stroke="#63b8ff" d="M997.34,-59.49C986.87,-57.99 974.92,-56.4 964,-55.25 848.75,-43.07 488.91,-19.64 379.73,-12.65"/>
<polygon fill="#63b8ff" stroke="#63b8ff" points="379.96,-9.15 369.76,-12.01 379.51,-16.14 379.96,-9.15"/>
</a>
</g>
</g>
<!-- Node17&#45;&gt;Node11 -->
<g id="edge21_Node000017_Node000011" class="edge">
<title>Node17&#45;&gt;Node11</title>
<g id="a_edge21_Node000017_Node000011"><a xlink:title=" ">
<path fill="none" stroke="#63b8ff" d="M997.33,-59.58C986.86,-58.1 974.91,-56.49 964,-55.25 787.61,-35.17 738.73,-47.9 560.15,-19.35"/>
<polygon fill="#63b8ff" stroke="#63b8ff" points="560.97,-15.94 550.53,-17.8 559.85,-22.85 560.97,-15.94"/>
</a>
</g>
</g>
<!-- Node18 -->
<g id="Node000018" class="node">
<title>Node18</title>
<g id="a_Node000018"><a xlink:title=" ">
<polygon fill="#e0e0e0" stroke="#999999" points="1428.62,-19.25 1383.38,-19.25 1383.38,0 1428.62,0 1428.62,-19.25"/>
<text text-anchor="middle" x="1406" y="-5.75" font-family="Helvetica,sans-Serif" font-size="10.00">cstdint</text>
</a>
</g>
</g>
<!-- Node17&#45;&gt;Node18 -->
<g id="edge20_Node000017_Node000018" class="edge">
<title>Node17&#45;&gt;Node18</title>
<g id="a_edge20_Node000017_Node000018"><a xlink:title=" ">
<path fill="none" stroke="#63b8ff" d="M1054.63,-61.53C1112.64,-56.5 1248.33,-43.29 1371.87,-19.41"/>
<polygon fill="#63b8ff" stroke="#63b8ff" points="1372.39,-22.88 1381.53,-17.51 1371.04,-16.01 1372.39,-22.88"/>
</a>
</g>
</g>
<!-- Node19 -->
<g id="Node000019" class="node">
<title>Node19</title>
<g id="a_Node000019"><a xlink:title=" ">
<polygon fill="#e0e0e0" stroke="#999999" points="1496.88,-19.25 1447.12,-19.25 1447.12,0 1496.88,0 1496.88,-19.25"/>
<text text-anchor="middle" x="1472" y="-5.75" font-family="Helvetica,sans-Serif" font-size="10.00">iomanip</text>
</a>
</g>
</g>
<!-- Node17&#45;&gt;Node19 -->
<g id="edge22_Node000017_Node000019" class="edge">
<title>Node17&#45;&gt;Node19</title>
<g id="a_edge22_Node000017_Node000019"><a xlink:title=" ">
<path fill="none" stroke="#63b8ff" d="M1054.67,-62.16C1120.36,-57.94 1286.92,-45.57 1435.7,-19.42"/>
<polygon fill="#63b8ff" stroke="#63b8ff" points="1436.12,-22.9 1445.35,-17.69 1434.89,-16.01 1436.12,-22.9"/>
</a>
</g>
</g>
<!-- Node20 -->
<g id="Node000020" class="node">
<title>Node20</title>
<g id="a_Node000020"><a xlink:title=" ">
<polygon fill="#e0e0e0" stroke="#999999" points="1573,-19.25 1515,-19.25 1515,0 1573,0 1573,-19.25"/>
<text text-anchor="middle" x="1544" y="-5.75" font-family="Helvetica,sans-Serif" font-size="10.00">stdexcept</text>
</a>
</g>
</g>
<!-- Node17&#45;&gt;Node20 -->
<g id="edge23_Node000017_Node000020" class="edge">
<title>Node17&#45;&gt;Node20</title>
<g id="a_edge23_Node000017_Node000020"><a xlink:title=" ">
<path fill="none" stroke="#63b8ff" d="M1054.57,-62.52C1127.62,-58.79 1327.32,-46.85 1503.33,-19.48"/>
<polygon fill="#63b8ff" stroke="#63b8ff" points="1503.79,-22.95 1513.12,-17.93 1502.7,-16.03 1503.79,-22.95"/>
</a>
</g>
</g>
<!-- Node21 -->
<g id="Node000021" class="node">
<title>Node21</title>
<g id="a_Node000021"><a xlink:title=" ">
<polygon fill="#e0e0e0" stroke="#999999" points="1633.12,-19.25 1590.88,-19.25 1590.88,0 1633.12,0 1633.12,-19.25"/>
<text text-anchor="middle" x="1612" y="-5.75" font-family="Helvetica,sans-Serif" font-size="10.00">cstdio</text>
</a>
</g>
</g>
<!-- Node17&#45;&gt;Node21 -->
<g id="edge25_Node000017_Node000021" class="edge">
<title>Node17&#45;&gt;Node21</title>
<g id="a_edge25_Node000017_Node000021"><a xlink:title=" ">
<path fill="none" stroke="#63b8ff" d="M1054.61,-63.59C1135.64,-62.35 1373.59,-55.82 1579.18,-19.41"/>
<polygon fill="#63b8ff" stroke="#63b8ff" points="1579.78,-22.85 1589,-17.63 1578.54,-15.96 1579.78,-22.85"/>
</a>
</g>
</g>
<!-- Node22 -->
<g id="Node000022" class="node">
<title>Node22</title>
<g id="a_Node000022"><a xlink:title=" ">
<polygon fill="#e0e0e0" stroke="#999999" points="611.25,-19.25 566.75,-19.25 566.75,0 611.25,0 611.25,-19.25"/>
<text text-anchor="middle" x="589" y="-5.75" font-family="Helvetica,sans-Serif" font-size="10.00">cstdlib</text>
</a>
</g>
</g>
<!-- Node17&#45;&gt;Node22 -->
<g id="edge26_Node000017_Node000022" class="edge">
<title>Node17&#45;&gt;Node22</title>
<g id="a_edge26_Node000017_Node000022"><a xlink:title=" ">
<path fill="none" stroke="#63b8ff" d="M997.32,-59.68C986.84,-58.2 974.9,-56.58 964,-55.25 814.98,-37.09 772.98,-47.44 622.6,-19.46"/>
<polygon fill="#63b8ff" stroke="#63b8ff" points="623.55,-16.08 613.07,-17.66 622.25,-22.96 623.55,-16.08"/>
</a>
</g>
</g>
<!-- Node23 -->
<g id="Node000023" class="node">
<title>Node23</title>
<g id="a_Node000023"><a xlink:title=" ">
<polygon fill="#e0e0e0" stroke="#999999" points="688.75,-19.25 629.25,-19.25 629.25,0 688.75,0 688.75,-19.25"/>
<text text-anchor="middle" x="659" y="-5.75" font-family="Helvetica,sans-Serif" font-size="10.00">execinfo.h</text>
</a>
</g>
</g>
<!-- Node17&#45;&gt;Node23 -->
<g id="edge27_Node000017_Node000023" class="edge">
<title>Node17&#45;&gt;Node23</title>
<g id="a_edge27_Node000017_Node000023"><a xlink:title=" ">
<path fill="none" stroke="#63b8ff" d="M997.3,-59.86C986.82,-58.4 974.87,-56.74 964,-55.25 849.39,-39.52 817.37,-40.1 700.39,-19.55"/>
<polygon fill="#63b8ff" stroke="#63b8ff" points="701.13,-16.12 690.67,-17.82 699.91,-23.02 701.13,-16.12"/>
</a>
</g>
</g>
<!-- Node24 -->
<g id="Node000024" class="node">
<title>Node24</title>
<g id="a_Node000024"><a xlink:title=" ">
<polygon fill="#e0e0e0" stroke="#999999" points="757.25,-19.25 706.75,-19.25 706.75,0 757.25,0 757.25,-19.25"/>
<text text-anchor="middle" x="732" y="-5.75" font-family="Helvetica,sans-Serif" font-size="10.00">cxxabi.h</text>
</a>
</g>
</g>
<!-- Node17&#45;&gt;Node24 -->
<g id="edge28_Node000017_Node000024" class="edge">
<title>Node17&#45;&gt;Node24</title>
<g id="a_edge28_Node000017_Node000024"><a xlink:title=" ">
<path fill="none" stroke="#63b8ff" d="M997.39,-59.72C951.28,-52.85 857.46,-38.22 768.65,-19.68"/>
<polygon fill="#63b8ff" stroke="#63b8ff" points="769.56,-16.29 759.05,-17.65 768.11,-23.14 769.56,-16.29"/>
</a>
</g>
</g>
<!-- Node25 -->
<g id="Node000025" class="node">
<title>Node25</title>
<g id="a_Node000025"><a xlink:title=" ">
<polygon fill="#e0e0e0" stroke="#999999" points="826.62,-19.25 775.38,-19.25 775.38,0 826.62,0 826.62,-19.25"/>
<text text-anchor="middle" x="801" y="-5.75" font-family="Helvetica,sans-Serif" font-size="10.00">sstream</text>
</a>
</g>
</g>
<!-- Node17&#45;&gt;Node25 -->
<g id="edge29_Node000017_Node000025" class="edge">
<title>Node17&#45;&gt;Node25</title>
<g id="a_edge29_Node000017_Node000025"><a xlink:title=" ">
<path fill="none" stroke="#63b8ff" d="M997.33,-57.24C962.15,-49.08 900.39,-34.69 837.84,-19.67"/>
<polygon fill="#63b8ff" stroke="#63b8ff" points="839,-16.35 828.46,-17.42 837.36,-23.16 839,-16.35"/>
</a>
</g>
</g>
<!-- Node26 -->
<g id="Node000026" class="node">
<title>Node26</title>
<g id="a_Node000026"><a xlink:title=" ">
<polygon fill="#e0e0e0" stroke="#999999" points="881.5,-19.25 844.5,-19.25 844.5,0 881.5,0 881.5,-19.25"/>
<text text-anchor="middle" x="863" y="-5.75" font-family="Helvetica,sans-Serif" font-size="10.00">array</text>
</a>
</g>
</g>
<!-- Node17&#45;&gt;Node26 -->
<g id="edge30_Node000017_Node000026" class="edge">
<title>Node17&#45;&gt;Node26</title>
<g id="a_edge30_Node000017_Node000026"><a xlink:title=" ">
<path fill="none" stroke="#63b8ff" d="M998.35,-54.84C968.87,-45.21 922.38,-30.02 892.29,-20.19"/>
<polygon fill="#63b8ff" stroke="#63b8ff" points="893.66,-16.96 883.07,-17.18 891.49,-23.61 893.66,-16.96"/>
</a>
</g>
</g>
<!-- Node27 -->
<g id="Node000027" class="node">
<title>Node27</title>
<g id="a_Node000027"><a xlink:title=" ">
<polygon fill="#e0e0e0" stroke="#999999" points="950.25,-19.25 899.75,-19.25 899.75,0 950.25,0 950.25,-19.25"/>
<text text-anchor="middle" x="925" y="-5.75" font-family="Helvetica,sans-Serif" font-size="10.00">memory</text>
</a>
</g>
</g>
<!-- Node17&#45;&gt;Node27 -->
<g id="edge31_Node000017_Node000027" class="edge">
<title>Node17&#45;&gt;Node27</title>
<g id="a_edge31_Node000017_Node000027"><a xlink:title=" ">
<path fill="none" stroke="#63b8ff" d="M1008.87,-54.84C993.34,-46.66 970.2,-34.46 952.16,-24.94"/>
<polygon fill="#63b8ff" stroke="#63b8ff" points="954.03,-21.98 943.56,-20.41 950.77,-28.17 954.03,-21.98"/>
</a>
</g>
</g>
<!-- Node28 -->
<g id="Node000028" class="node">
<title>Node28</title>
<g id="a_Node000028"><a xlink:title=" ">
<polygon fill="#e0e0e0" stroke="#999999" points="1017.88,-19.25 968.12,-19.25 968.12,0 1017.88,0 1017.88,-19.25"/>
<text text-anchor="middle" x="993" y="-5.75" font-family="Helvetica,sans-Serif" font-size="10.00">unistd.h</text>
</a>
</g>
</g>
<!-- Node17&#45;&gt;Node28 -->
<g id="edge32_Node000017_Node000028" class="edge">
<title>Node17&#45;&gt;Node28</title>
<g id="a_edge32_Node000017_Node000028"><a xlink:title=" ">
<path fill="none" stroke="#63b8ff" d="M1020.55,-55.08C1016.23,-48.11 1010.04,-38.12 1004.62,-29.37"/>
<polygon fill="#63b8ff" stroke="#63b8ff" points="1007.61,-27.55 999.36,-20.9 1001.66,-31.24 1007.61,-27.55"/>
</a>
</g>
</g>
<!-- Node29 -->
<g id="Node000029" class="node">
<title>Node29</title>
<g id="a_Node000029"><a xlink:title=" ">
<polygon fill="#e0e0e0" stroke="#999999" points="1082,-19.25 1036,-19.25 1036,0 1082,0 1082,-19.25"/>
<text text-anchor="middle" x="1059" y="-5.75" font-family="Helvetica,sans-Serif" font-size="10.00">TEnv.h</text>
</a>
</g>
</g>
<!-- Node17&#45;&gt;Node29 -->
<g id="edge33_Node000017_Node000029" class="edge">
<title>Node17&#45;&gt;Node29</title>
<g id="a_edge33_Node000017_Node000029"><a xlink:title=" ">
<path fill="none" stroke="#63b8ff" d="M1031.45,-55.08C1035.77,-48.11 1041.96,-38.12 1047.38,-29.37"/>
<polygon fill="#63b8ff" stroke="#63b8ff" points="1050.34,-31.24 1052.64,-20.9 1044.39,-27.55 1050.34,-31.24"/>
</a>
</g>
</g>
<!-- Node30 -->
<g id="Node000030" class="node">
<title>Node30</title>
<g id="a_Node000030"><a xlink:title=" ">
<polygon fill="#e0e0e0" stroke="#999999" points="1144.25,-19.25 1099.75,-19.25 1099.75,0 1144.25,0 1144.25,-19.25"/>
<text text-anchor="middle" x="1122" y="-5.75" font-family="Helvetica,sans-Serif" font-size="10.00">stdio.h</text>
</a>
</g>
</g>
<!-- Node17&#45;&gt;Node30 -->
<g id="edge34_Node000017_Node000030" class="edge">
<title>Node17&#45;&gt;Node30</title>
<g id="a_edge34_Node000017_Node000030"><a xlink:title=" ">
<path fill="none" stroke="#63b8ff" d="M1042.29,-54.84C1056.9,-46.73 1078.63,-34.68 1095.71,-25.21"/>
<polygon fill="#63b8ff" stroke="#63b8ff" points="1097.26,-28.35 1104.31,-20.44 1093.87,-22.23 1097.26,-28.35"/>
</a>
</g>
</g>
<!-- Node31 -->
<g id="Node000031" class="node">
<title>Node31</title>
<g id="a_Node000031"><a xlink:title=" ">
<polygon fill="#e0e0e0" stroke="#999999" points="1209.38,-19.25 1162.62,-19.25 1162.62,0 1209.38,0 1209.38,-19.25"/>
<text text-anchor="middle" x="1186" y="-5.75" font-family="Helvetica,sans-Serif" font-size="10.00">stdlib.h</text>
</a>
</g>
</g>
<!-- Node17&#45;&gt;Node31 -->
<g id="edge35_Node000017_Node000031" class="edge">
<title>Node17&#45;&gt;Node31</title>
<g id="a_edge35_Node000017_Node000031"><a xlink:title=" ">
<path fill="none" stroke="#63b8ff" d="M1053.14,-54.84C1080.26,-45.82 1122.04,-31.91 1151.5,-22.11"/>
<polygon fill="#63b8ff" stroke="#63b8ff" points="1152.31,-25.53 1160.69,-19.05 1150.1,-18.89 1152.31,-25.53"/>
</a>
</g>
</g>
<!-- Node32 -->
<g id="Node000032" class="node">
<title>Node32</title>
<g id="a_Node000032"><a xlink:title=" ">
<polygon fill="#e0e0e0" stroke="#999999" points="1286.75,-19.25 1227.25,-19.25 1227.25,0 1286.75,0 1286.75,-19.25"/>
<text text-anchor="middle" x="1257" y="-5.75" font-family="Helvetica,sans-Serif" font-size="10.00">sys/wait.h</text>
</a>
</g>
</g>
<!-- Node17&#45;&gt;Node32 -->
<g id="edge36_Node000017_Node000032" class="edge">
<title>Node17&#45;&gt;Node32</title>
<g id="a_edge36_Node000017_Node000032"><a xlink:title=" ">
<path fill="none" stroke="#63b8ff" d="M1054.33,-57.35C1094.75,-48.03 1169.25,-30.85 1215.79,-20.13"/>
<polygon fill="#63b8ff" stroke="#63b8ff" points="1216.55,-23.54 1225.5,-17.89 1214.97,-16.72 1216.55,-23.54"/>
</a>
</g>
</g>
<!-- Node33 -->
<g id="Node000033" class="node">
<title>Node33</title>
<g id="a_Node000033"><a xlink:title=" ">
<polygon fill="#e0e0e0" stroke="#999999" points="1365.12,-19.25 1304.88,-19.25 1304.88,0 1365.12,0 1365.12,-19.25"/>
<text text-anchor="middle" x="1335" y="-5.75" font-family="Helvetica,sans-Serif" font-size="10.00">sys/prctl.h</text>
</a>
</g>
</g>
<!-- Node17&#45;&gt;Node33 -->
<g id="edge37_Node000017_Node000033" class="edge">
<title>Node17&#45;&gt;Node33</title>
<g id="a_edge37_Node000017_Node000033"><a xlink:title=" ">
<path fill="none" stroke="#63b8ff" d="M1054.47,-59.69C1101.87,-52.6 1200.22,-37.43 1293.08,-19.73"/>
<polygon fill="#63b8ff" stroke="#63b8ff" points="1293.73,-23.17 1302.89,-17.85 1292.41,-16.3 1293.73,-23.17"/>
</a>
</g>
</g>
<!-- Node34&#45;&gt;Node6 -->
<g id="edge42_Node000034_Node000006" class="edge">
<title>Node34&#45;&gt;Node6</title>
<g id="a_edge42_Node000034_Node000006"><a xlink:title=" ">
<path fill="none" stroke="#63b8ff" d="M793.31,-172.66C720.55,-168.48 539.95,-156.14 391,-129.75 390.33,-129.63 389.64,-129.5 388.96,-129.37"/>
<polygon fill="#63b8ff" stroke="#63b8ff" points="389.75,-125.96 379.23,-127.23 388.24,-132.8 389.75,-125.96"/>
</a>
</g>
</g>
<!-- Node34&#45;&gt;Node7 -->
<g id="edge45_Node000034_Node000007" class="edge">
<title>Node34&#45;&gt;Node7</title>
<g id="a_edge45_Node000034_Node000007"><a xlink:title=" ">
<path fill="none" stroke="#63b8ff" d="M793.42,-173.08C733.99,-170.03 604.48,-160.18 500,-129.75 497.15,-128.92 430.61,-98.15 390.64,-79.63"/>
<polygon fill="#63b8ff" stroke="#63b8ff" points="392.3,-76.54 381.76,-75.51 389.36,-82.89 392.3,-76.54"/>
</a>
</g>
</g>
<!-- Node34&#45;&gt;Node8 -->
<g id="edge44_Node000034_Node000008" class="edge">
<title>Node34&#45;&gt;Node8</title>
<g id="a_edge44_Node000034_Node000008"><a xlink:title=" ">
<path fill="none" stroke="#63b8ff" d="M793.54,-172.69C728.81,-168.85 579.4,-157.52 457,-129.75 400.83,-117 337.88,-93.86 300.66,-79.21"/>
<polygon fill="#63b8ff" stroke="#63b8ff" points="301.97,-75.96 291.38,-75.52 299.38,-82.47 301.97,-75.96"/>
</a>
</g>
</g>
<!-- Node34&#45;&gt;Node10 -->
<g id="edge39_Node000034_Node000010" class="edge">
<title>Node34&#45;&gt;Node10</title>
<g id="a_edge39_Node000034_Node000010"><a xlink:title=" ">
<path fill="none" stroke="#63b8ff" d="M793.28,-167.9C748.84,-159.1 668.69,-143.23 614.18,-132.44"/>
<polygon fill="#63b8ff" stroke="#63b8ff" points="614.94,-129.03 604.45,-130.52 613.58,-135.89 614.94,-129.03"/>
</a>
</g>
</g>
<!-- Node34&#45;&gt;Node14 -->
<g id="edge49_Node000034_Node000014" class="edge">
<title>Node34&#45;&gt;Node14</title>
<g id="a_edge49_Node000034_Node000014"><a xlink:title=" ">
<path fill="none" stroke="#63b8ff" d="M814.93,-165.45C805.74,-157.28 793.34,-144.27 788,-129.75 782.56,-114.98 787.6,-97.62 793.42,-84.73"/>
<polygon fill="#63b8ff" stroke="#63b8ff" points="796.41,-86.58 797.81,-76.08 790.16,-83.42 796.41,-86.58"/>
</a>
</g>
</g>
<!-- Node34&#45;&gt;Node15 -->
<g id="edge51_Node000034_Node000015" class="edge">
<title>Node34&#45;&gt;Node15</title>
<g id="a_edge51_Node000034_Node000015"><a xlink:title=" ">
<path fill="none" stroke="#63b8ff" d="M858.65,-170.06C901.3,-163.68 972.4,-150.23 988,-129.75 1001.99,-111.39 978.55,-92.71 956.6,-80.34"/>
<polygon fill="#63b8ff" stroke="#63b8ff" points="958.25,-77.25 947.77,-75.67 954.97,-83.44 958.25,-77.25"/>
</a>
</g>
</g>
<!-- Node34&#45;&gt;Node17 -->
<g id="edge55_Node000034_Node000017" class="edge">
<title>Node34&#45;&gt;Node17</title>
<g id="a_edge55_Node000034_Node000017"><a xlink:title=" ">
<path fill="none" stroke="#63b8ff" d="M858.56,-175.06C897.92,-174.12 963.86,-166.58 1004,-129.75 1016.3,-118.47 1021.72,-99.99 1024.11,-85.8"/>
<polygon fill="#63b8ff" stroke="#63b8ff" points="1027.54,-86.59 1025.34,-76.23 1020.6,-85.7 1027.54,-86.59"/>
</a>
</g>
</g>
<!-- Node35 -->
<g id="Node000035" class="node">
<title>Node35</title>
<g id="a_Node000035"><a xlink:title=" ">
<polygon fill="#e0e0e0" stroke="#999999" points="855,-129.75 797,-129.75 797,-110.5 855,-110.5 855,-129.75"/>
<text text-anchor="middle" x="826" y="-116.25" font-family="Helvetica,sans-Serif" font-size="10.00">TObject.h</text>
</a>
</g>
</g>
<!-- Node34&#45;&gt;Node35 -->
<g id="edge40_Node000034_Node000035" class="edge">
<title>Node34&#45;&gt;Node35</title>
<g id="a_edge40_Node000034_Node000035"><a xlink:title=" ">
<path fill="none" stroke="#63b8ff" d="M826,-165.58C826,-159.07 826,-149.92 826,-141.62"/>
<polygon fill="#63b8ff" stroke="#63b8ff" points="829.5,-141.62 826,-131.62 822.5,-141.62 829.5,-141.62"/>
</a>
</g>
</g>
<!-- Node36 -->
<g id="Node000036" class="node">
<title>Node36</title>
<g id="a_Node000036"><a xlink:title=" ">
<polygon fill="#e0e0e0" stroke="#999999" points="915.12,-129.75 872.88,-129.75 872.88,-110.5 915.12,-110.5 915.12,-129.75"/>
<text text-anchor="middle" x="894" y="-116.25" font-family="Helvetica,sans-Serif" font-size="10.00">TH1.h</text>
</a>
</g>
</g>
<!-- Node34&#45;&gt;Node36 -->
<g id="edge41_Node000034_Node000036" class="edge">
<title>Node34&#45;&gt;Node36</title>
<g id="a_edge41_Node000034_Node000036"><a xlink:title=" ">
<path fill="none" stroke="#63b8ff" d="M837.54,-165.34C847.46,-157.57 862.01,-146.17 873.86,-136.9"/>
<polygon fill="#63b8ff" stroke="#63b8ff" points="875.73,-139.88 881.44,-130.96 871.41,-134.37 875.73,-139.88"/>
</a>
</g>
</g>
<!-- Node37 -->
<g id="Node000037" class="node">
<title>Node37</title>
<g id="a_Node000037"><a xlink:title=" ">
<polygon fill="#e0e0e0" stroke="#999999" points="979,-129.75 933,-129.75 933,-110.5 979,-110.5 979,-129.75"/>
<text text-anchor="middle" x="956" y="-116.25" font-family="Helvetica,sans-Serif" font-size="10.00">TList.h</text>
</a>
</g>
</g>
<!-- Node34&#45;&gt;Node37 -->
<g id="edge43_Node000034_Node000037" class="edge">
<title>Node34&#45;&gt;Node37</title>
<g id="a_edge43_Node000034_Node000037"><a xlink:title=" ">
<path fill="none" stroke="#63b8ff" d="M848.05,-165.34C868.69,-156.89 899.78,-144.15 923.3,-134.52"/>
<polygon fill="#63b8ff" stroke="#63b8ff" points="924.51,-137.81 932.44,-130.78 921.86,-131.33 924.51,-137.81"/>
</a>
</g>
</g>
<!-- Node38 -->
<g id="Node000038" class="node">
<title>Node38</title>
<g id="a_Node000038"><a xlink:title=" ">
<polygon fill="#e0e0e0" stroke="#999999" points="1138.75,-129.75 1073.25,-129.75 1073.25,-110.5 1138.75,-110.5 1138.75,-129.75"/>
<text text-anchor="middle" x="1106" y="-116.25" font-family="Helvetica,sans-Serif" font-size="10.00">TRandom.h</text>
</a>
</g>
</g>
<!-- Node34&#45;&gt;Node38 -->
<g id="edge46_Node000034_Node000038" class="edge">
<title>Node34&#45;&gt;Node38</title>
<g id="a_edge46_Node000034_Node000038"><a xlink:title=" ">
<path fill="none" stroke="#63b8ff" d="M858.67,-168.16C909.01,-158.59 1005.62,-140.22 1062.05,-129.48"/>
<polygon fill="#63b8ff" stroke="#63b8ff" points="1062.45,-132.97 1071.62,-127.66 1061.14,-126.09 1062.45,-132.97"/>
</a>
</g>
</g>
<!-- Node39 -->
<g id="Node000039" class="node">
<title>Node39</title>
<g id="a_Node000039"><a xlink:title=" ">
<polygon fill="#e0e0e0" stroke="#999999" points="1228.75,-129.75 1157.25,-129.75 1157.25,-110.5 1228.75,-110.5 1228.75,-129.75"/>
<text text-anchor="middle" x="1193" y="-116.25" font-family="Helvetica,sans-Serif" font-size="10.00">TSpectrum.h</text>
</a>
</g>
</g>
<!-- Node34&#45;&gt;Node39 -->
<g id="edge47_Node000034_Node000039" class="edge">
<title>Node34&#45;&gt;Node39</title>
<g id="a_edge47_Node000034_Node000039"><a xlink:title=" ">
<path fill="none" stroke="#63b8ff" d="M858.53,-170.43C914.86,-163.48 1034.44,-148.19 1146.05,-129.99"/>
<polygon fill="#63b8ff" stroke="#63b8ff" points="1146.37,-133.49 1155.67,-128.41 1145.24,-126.58 1146.37,-133.49"/>
</a>
</g>
</g>
<!-- Node40 -->
<g id="Node000040" class="node">
<title>Node40</title>
<g id="a_Node000040"><a xlink:title=" ">
<polygon fill="#e0e0e0" stroke="#999999" points="1326.88,-129.75 1247.12,-129.75 1247.12,-110.5 1326.88,-110.5 1326.88,-129.75"/>
<text text-anchor="middle" x="1287" y="-116.25" font-family="Helvetica,sans-Serif" font-size="10.00">TVirtualFitter.h</text>
</a>
</g>
</g>
<!-- Node34&#45;&gt;Node40 -->
<g id="edge48_Node000034_Node000040" class="edge">
<title>Node34&#45;&gt;Node40</title>
<g id="a_edge48_Node000034_Node000040"><a xlink:title=" ">
<path fill="none" stroke="#63b8ff" d="M858.67,-171.58C926.78,-165.59 1089.13,-150.49 1235.69,-129.99"/>
<polygon fill="#63b8ff" stroke="#63b8ff" points="1235.75,-133.52 1245.16,-128.66 1234.77,-126.59 1235.75,-133.52"/>
</a>
</g>
</g>
<!-- Node41 -->
<g id="Node000041" class="node">
<title>Node41</title>
<g id="a_Node000041"><a xlink:title=" ">
<polygon fill="#e0e0e0" stroke="#999999" points="1405.5,-129.75 1344.5,-129.75 1344.5,-110.5 1405.5,-110.5 1405.5,-129.75"/>
<text text-anchor="middle" x="1375" y="-116.25" font-family="Helvetica,sans-Serif" font-size="10.00">TNamed.h</text>
</a>
</g>
</g>
<!-- Node34&#45;&gt;Node41 -->
<g id="edge50_Node000034_Node000041" class="edge">
<title>Node34&#45;&gt;Node41</title>
<g id="a_edge50_Node000034_Node000041"><a xlink:title=" ">
<path fill="none" stroke="#63b8ff" d="M858.69,-172.99C938.25,-169.32 1148.37,-157.73 1333.12,-130"/>
<polygon fill="#63b8ff" stroke="#63b8ff" points="1333.56,-133.48 1342.92,-128.51 1332.5,-126.56 1333.56,-133.48"/>
</a>
</g>
</g>
<!-- Node42 -->
<g id="Node000042" class="node">
<title>Node42</title>
<g id="a_Node000042"><a xlink:title=" ">
<polygon fill="#e0e0e0" stroke="#999999" points="1462.25,-129.75 1423.75,-129.75 1423.75,-110.5 1462.25,-110.5 1462.25,-129.75"/>
<text text-anchor="middle" x="1443" y="-116.25" font-family="Helvetica,sans-Serif" font-size="10.00">utility</text>
</a>
</g>
</g>
<!-- Node34&#45;&gt;Node42 -->
<g id="edge52_Node000034_Node000042" class="edge">
<title>Node34&#45;&gt;Node42</title>
<g id="a_edge52_Node000034_Node000042"><a xlink:title=" ">
<path fill="none" stroke="#63b8ff" d="M858.57,-174.44C946.66,-174.09 1196.92,-169.56 1412.06,-129.91"/>
<polygon fill="#63b8ff" stroke="#63b8ff" points="1412.58,-133.37 1421.77,-128.08 1411.29,-126.49 1412.58,-133.37"/>
</a>
</g>
</g>
<!-- Node43 -->
<g id="Node000043" class="node">
<title>Node43</title>
<g id="a_Node000043"><a xlink:title=" ">
<polygon fill="#e0e0e0" stroke="#999999" points="667.25,-129.75 622.75,-129.75 622.75,-110.5 667.25,-110.5 667.25,-129.75"/>
<text text-anchor="middle" x="645" y="-116.25" font-family="Helvetica,sans-Serif" font-size="10.00">TRef.h</text>
</a>
</g>
</g>
<!-- Node34&#45;&gt;Node43 -->
<g id="edge53_Node000034_Node000043" class="edge">
<title>Node34&#45;&gt;Node43</title>
<g id="a_edge53_Node000034_Node000043"><a xlink:title=" ">
<path fill="none" stroke="#63b8ff" d="M795.3,-165.34C762.91,-155.81 712.02,-140.84 678.58,-131.01"/>
<polygon fill="#63b8ff" stroke="#63b8ff" points="679.58,-127.65 668.99,-128.18 677.6,-134.36 679.58,-127.65"/>
</a>
</g>
</g>
<!-- Node44 -->
<g id="Node000044" class="node">
<title>Node44</title>
<g id="a_Node000044"><a xlink:title=" ">
<polygon fill="#e0e0e0" stroke="#999999" points="740.5,-129.75 685.5,-129.75 685.5,-110.5 740.5,-110.5 740.5,-129.75"/>
<text text-anchor="middle" x="713" y="-116.25" font-family="Helvetica,sans-Serif" font-size="10.00">TString.h</text>
</a>
</g>
</g>
<!-- Node34&#45;&gt;Node44 -->
<g id="edge54_Node000034_Node000044" class="edge">
<title>Node34&#45;&gt;Node44</title>
<g id="a_edge54_Node000034_Node000044"><a xlink:title=" ">
<path fill="none" stroke="#63b8ff" d="M806.83,-165.34C789.22,-157.04 762.84,-144.61 742.54,-135.04"/>
<polygon fill="#63b8ff" stroke="#63b8ff" points="744.17,-131.94 733.63,-130.85 741.19,-138.28 744.17,-131.94"/>
</a>
</g>
</g>
<!-- Node45&#45;&gt;Node2 -->
<g id="edge57_Node000045_Node000002" class="edge">
<title>Node45&#45;&gt;Node2</title>
<g id="a_edge57_Node000045_Node000002"><a xlink:title=" ">
<path fill="none" stroke="#63b8ff" d="M288.34,-220.61C260.62,-193.64 185.25,-111.95 225,-55.25 245.51,-25.99 287.27,-15.84 316.41,-12.36"/>
<polygon fill="#63b8ff" stroke="#63b8ff" points="316.52,-15.87 326.14,-11.42 315.85,-8.9 316.52,-15.87"/>
</a>
</g>
</g>
<!-- Node45&#45;&gt;Node3 -->
<g id="edge58_Node000045_Node000003" class="edge">
<title>Node45&#45;&gt;Node3</title>
<g id="a_edge58_Node000045_Node000003"><a xlink:title=" ">
<path fill="none" stroke="#63b8ff" d="M271.75,-222.77C236.61,-213.6 173.99,-197.26 133.24,-186.62"/>
<polygon fill="#63b8ff" stroke="#63b8ff" points="134.14,-183.23 123.58,-184.1 132.37,-190.01 134.14,-183.23"/>
</a>
</g>
</g>
<!-- Node45&#45;&gt;Node6 -->
<g id="edge59_Node000045_Node000006" class="edge">
<title>Node45&#45;&gt;Node6</title>
<g id="a_edge59_Node000045_Node000006"><a xlink:title=" ">
<path fill="none" stroke="#63b8ff" d="M302.83,-220.75C312.38,-203.18 333.87,-163.66 346.73,-140.02"/>
<polygon fill="#63b8ff" stroke="#63b8ff" points="349.68,-141.91 351.38,-131.46 343.53,-138.57 349.68,-141.91"/>
</a>
</g>
</g>
<!-- Node45&#45;&gt;Node7 -->
<g id="edge60_Node000045_Node000007" class="edge">
<title>Node45&#45;&gt;Node7</title>
<g id="a_edge60_Node000045_Node000007"><a xlink:title=" ">
<path fill="none" stroke="#63b8ff" d="M299.06,-220.55C301.71,-200.08 309.77,-149.06 328,-110.5 332.52,-100.95 339.22,-91.39 345.41,-83.58"/>
<polygon fill="#63b8ff" stroke="#63b8ff" points="348.08,-85.84 351.8,-75.92 342.71,-81.36 348.08,-85.84"/>
</a>
</g>
</g>
<!-- Node45&#45;&gt;Node8 -->
<g id="edge61_Node000045_Node000008" class="edge">
<title>Node45&#45;&gt;Node8</title>
<g id="a_edge61_Node000045_Node000008"><a xlink:title=" ">
<path fill="none" stroke="#63b8ff" d="M295.31,-220.81C292.66,-211.85 288.63,-197.56 286,-185 278.81,-150.63 273.3,-110.1 270.37,-86.27"/>
<polygon fill="#63b8ff" stroke="#63b8ff" points="273.85,-85.92 269.19,-76.41 266.9,-86.75 273.85,-85.92"/>
</a>
</g>
</g>
<!-- Node45&#45;&gt;Node9 -->
<g id="edge62_Node000045_Node000009" class="edge">
<title>Node45&#45;&gt;Node9</title>
<g id="a_edge62_Node000045_Node000009"><a xlink:title=" ">
<path fill="none" stroke="#63b8ff" d="M275.95,-220.59C255.31,-212.14 224.22,-199.4 200.7,-189.77"/>
<polygon fill="#63b8ff" stroke="#63b8ff" points="202.14,-186.58 191.56,-186.03 199.49,-193.06 202.14,-186.58"/>
</a>
</g>
</g>
<!-- Node45&#45;&gt;Node10 -->
<g id="edge63_Node000045_Node000010" class="edge">
<title>Node45&#45;&gt;Node10</title>
<g id="a_edge63_Node000045_Node000010"><a xlink:title=" ">
<path fill="none" stroke="#63b8ff" d="M319.64,-220.56C365.15,-201.49 471.01,-157.15 524.63,-134.68"/>
<polygon fill="#63b8ff" stroke="#63b8ff" points="525.98,-137.92 533.85,-130.82 523.27,-131.46 525.98,-137.92"/>
</a>
</g>
</g>
<!-- Node45&#45;&gt;Node34 -->
<g id="edge64_Node000045_Node000034" class="edge">
<title>Node45&#45;&gt;Node34</title>
<g id="a_edge64_Node000045_Node000034"><a xlink:title=" ">
<path fill="none" stroke="#63b8ff" d="M324.18,-226.98C408.92,-218.44 676.33,-191.47 782.21,-180.79"/>
<polygon fill="#63b8ff" stroke="#63b8ff" points="782.31,-184.3 791.91,-179.81 781.61,-177.33 782.31,-184.3"/>
</a>
</g>
</g>
</g>
</svg>
