<?xml version="1.0" encoding="UTF-8" standalone="no"?>
<!DOCTYPE svg PUBLIC "-//W3C//DTD SVG 1.1//EN"
 "http://www.w3.org/Graphics/SVG/1.1/DTD/svg11.dtd">
<!-- Generated by graphviz version 12.2.0 (20241103.1931)
 -->
<!-- Title: TMnemonic.h Pages: 1 -->
<!--zoomable 193 -->

<svg id="main" version="1.1" xmlns="http://www.w3.org/2000/svg" xmlns:xlink="http://www.w3.org/1999/xlink" xml:space="preserve" onload="init(evt)">

<style type="text/css"><![CDATA[
.node, .edge {opacity: 0.7;}
.node.selected, .edge.selected {opacity: 1;}
.edge:hover path { stroke: red; }
.edge:hover polygon { stroke: red; fill: red; }
]]></style>

<defs>
  <circle id="rim" cx="0" cy="0" r="7"/>
  <circle id="rim2" cx="0" cy="0" r="3.5"/>
  <g id="zoomPlus">
    <use xlink:href="#rim" fill="#404040"><set attributeName="fill" to="#808080" begin="zoomplus.mouseover" end="zoomplus.mouseout"/></use>
    <path d="M-4,0h8M0,-4v8" fill="none" stroke="white" stroke-width="1.5" pointer-events="none"/>
  </g>
  <g id="zoomMin">
    <use xlink:href="#rim" fill="#404040"><set attributeName="fill" to="#808080" begin="zoomminus.mouseover" end="zoomminus.mouseout"/></use>
    <path d="M-4,0h8" fill="none" stroke="white" stroke-width="1.5" pointer-events="none"/>
  </g>
  <g id="arrowUp" transform="translate(30 24)">
    <use xlink:href="#rim"/>
    <path pointer-events="none" fill="none" stroke="white" stroke-width="1.5" d="M0,-3.0v7 M-2.5,-0.5L0,-3.0L2.5,-0.5"/>
  </g>
  <g id="arrowRight" transform="rotate(90) translate(36 -43)">
    <use xlink:href="#rim"/>
    <path pointer-events="none" fill="none" stroke="white" stroke-width="1.5" d="M0,-3.0v7 M-2.5,-0.5L0,-3.0L2.5,-0.5"/>
  </g>
  <g id="arrowDown" transform="rotate(180) translate(-30 -48)">
    <use xlink:href="#rim"/>
    <path pointer-events="none" fill="none" stroke="white" stroke-width="1.5" d="M0,-3.0v7 M-2.5,-0.5L0,-3.0L2.5,-0.5"/>
  </g>
  <g id="arrowLeft" transform="rotate(270) translate(-36 17)">
    <use xlink:href="#rim"/>
    <path pointer-events="none" fill="none" stroke="white" stroke-width="1.5" d="M0,-3.0v7 M-2.5,-0.5L0,-3.0L2.5,-0.5"/>
  </g>
  <g id="resetDef">
    <use xlink:href="#rim2" fill="#404040"><set attributeName="fill" to="#808080" begin="reset.mouseover" end="reset.mouseout"/></use>
  </g>
</defs>
<script type="application/ecmascript">
var viewWidth = 1726;
var viewHeight = 193;
var sectionId = 'dynsection-0';
</script>
<script type="application/ecmascript" xlink:href="svg.min.js"/>
<svg id="graph" class="graph">
<g id="viewport">
<title>TMnemonic.h</title>
<!-- Node1 -->
<g id="Node000001" class="node">
<title>Node1</title>
<g id="a_Node000001"><a xlink:title=" ">
<polygon fill="#999999" stroke="#666666" points="822.88,-185 748.38,-185 748.38,-165.75 822.88,-165.75 822.88,-185"/>
<text text-anchor="middle" x="785.62" y="-171.5" font-family="Helvetica,sans-Serif" font-size="10.00">TMnemonic.h</text>
</a>
</g>
</g>
<!-- Node2 -->
<g id="Node000002" class="node">
<title>Node2</title>
<g id="a_Node000002"><a xlink:title=" ">
<polygon fill="#e0e0e0" stroke="#999999" points="750.62,-19.25 710.62,-19.25 710.62,0 750.62,0 750.62,-19.25"/>
<text text-anchor="middle" x="730.62" y="-5.75" font-family="Helvetica,sans-Serif" font-size="10.00">string</text>
</a>
</g>
</g>
<!-- Node1&#45;&gt;Node2 -->
<g id="edge1_Node000001_Node000002" class="edge">
<title>Node1&#45;&gt;Node2</title>
<g id="a_edge1_Node000001_Node000002"><a xlink:title=" ">
<path fill="none" stroke="#63b8ff" d="M782.18,-165.35C775.55,-147.9 760.73,-108.29 749.62,-74.5 744.8,-59.83 739.84,-43.09 736.2,-30.43"/>
<polygon fill="#63b8ff" stroke="#63b8ff" points="739.57,-29.47 733.46,-20.81 732.83,-31.38 739.57,-29.47"/>
</a>
</g>
</g>
<!-- Node3 -->
<g id="Node000003" class="node">
<title>Node3</title>
<g id="a_Node000003"><a xlink:title=" ">
<polygon fill="#e0e0e0" stroke="#999999" points="812.38,-74.5 758.88,-74.5 758.88,-55.25 812.38,-55.25 812.38,-74.5"/>
<text text-anchor="middle" x="785.62" y="-61" font-family="Helvetica,sans-Serif" font-size="10.00">iostream</text>
</a>
</g>
</g>
<!-- Node1&#45;&gt;Node3 -->
<g id="edge2_Node000001_Node000003" class="edge">
<title>Node1&#45;&gt;Node3</title>
<g id="a_edge2_Node000001_Node000003"><a xlink:title=" ">
<path fill="none" stroke="#63b8ff" d="M785.62,-165.5C785.62,-148.25 785.62,-109.83 785.62,-86.06"/>
<polygon fill="#63b8ff" stroke="#63b8ff" points="789.13,-86.39 785.63,-76.39 782.13,-86.39 789.13,-86.39"/>
</a>
</g>
</g>
<!-- Node4 -->
<g id="Node000004" class="node">
<title>Node4</title>
<g id="a_Node000004"><a xlink:title=" ">
<polygon fill="#e0e0e0" stroke="#999999" points="881.25,-74.5 830,-74.5 830,-55.25 881.25,-55.25 881.25,-74.5"/>
<text text-anchor="middle" x="855.62" y="-61" font-family="Helvetica,sans-Serif" font-size="10.00">sstream</text>
</a>
</g>
</g>
<!-- Node1&#45;&gt;Node4 -->
<g id="edge3_Node000001_Node000004" class="edge">
<title>Node1&#45;&gt;Node4</title>
<g id="a_edge3_Node000001_Node000004"><a xlink:title=" ">
<path fill="none" stroke="#63b8ff" d="M791.35,-165.5C802.74,-147.85 828.41,-108.05 843.64,-84.45"/>
<polygon fill="#63b8ff" stroke="#63b8ff" points="846.52,-86.45 849,-76.15 840.63,-82.65 846.52,-86.45"/>
</a>
</g>
</g>
<!-- Node5 -->
<g id="Node000005" class="node">
<title>Node5</title>
<g id="a_Node000005"><a xlink:title=" ">
<polygon fill="#e0e0e0" stroke="#999999" points="692.25,-19.25 647,-19.25 647,0 692.25,0 692.25,-19.25"/>
<text text-anchor="middle" x="669.62" y="-5.75" font-family="Helvetica,sans-Serif" font-size="10.00">cstdint</text>
</a>
</g>
</g>
<!-- Node1&#45;&gt;Node5 -->
<g id="edge4_Node000001_Node000005" class="edge">
<title>Node1&#45;&gt;Node5</title>
<g id="a_edge4_Node000001_Node000005"><a xlink:title=" ">
<path fill="none" stroke="#63b8ff" d="M779.39,-165.57C761.06,-139.69 707.08,-63.5 682.31,-28.53"/>
<polygon fill="#63b8ff" stroke="#63b8ff" points="685.4,-26.84 676.77,-20.71 679.69,-30.89 685.4,-26.84"/>
</a>
</g>
</g>
<!-- Node6 -->
<g id="Node000006" class="node">
<title>Node6</title>
<g id="a_Node000006"><a xlink:title=" ">
<polygon fill="#e0e0e0" stroke="#999999" points="1210.62,-129.75 1152.62,-129.75 1152.62,-110.5 1210.62,-110.5 1210.62,-129.75"/>
<text text-anchor="middle" x="1181.62" y="-116.25" font-family="Helvetica,sans-Serif" font-size="10.00">TObject.h</text>
</a>
</g>
</g>
<!-- Node1&#45;&gt;Node6 -->
<g id="edge5_Node000001_Node000006" class="edge">
<title>Node1&#45;&gt;Node6</title>
<g id="a_edge5_Node000001_Node000006"><a xlink:title=" ">
<path fill="none" stroke="#63b8ff" d="M823.17,-170.93C886.65,-164.84 1019.41,-150.96 1141.23,-130.02"/>
<polygon fill="#63b8ff" stroke="#63b8ff" points="1141.48,-133.52 1150.73,-128.36 1140.28,-126.63 1141.48,-133.52"/>
</a>
</g>
</g>
<!-- Node7 -->
<g id="Node000007" class="node">
<title>Node7</title>
<g id="a_Node000007"><a xlink:title=" ">
<polygon fill="#e0e0e0" stroke="#999999" points="1282.75,-129.75 1228.5,-129.75 1228.5,-110.5 1282.75,-110.5 1282.75,-129.75"/>
<text text-anchor="middle" x="1255.62" y="-116.25" font-family="Helvetica,sans-Serif" font-size="10.00">TClass.h</text>
</a>
</g>
</g>
<!-- Node1&#45;&gt;Node7 -->
<g id="edge6_Node000001_Node000007" class="edge">
<title>Node1&#45;&gt;Node7</title>
<g id="a_edge6_Node000001_Node000007"><a xlink:title=" ">
<path fill="none" stroke="#63b8ff" d="M823.3,-172.19C897.03,-167.55 1065.71,-155.16 1216.87,-130.01"/>
<polygon fill="#63b8ff" stroke="#63b8ff" points="1217.42,-133.47 1226.69,-128.35 1216.25,-126.56 1217.42,-133.47"/>
</a>
</g>
</g>
<!-- Node8 -->
<g id="Node000008" class="node">
<title>Node8</title>
<g id="a_Node000008"><a xlink:href="_globals_8h.html" target="_top" xlink:title=" ">
<polygon fill="white" stroke="#666666" points="1134.88,-129.75 1078.38,-129.75 1078.38,-110.5 1134.88,-110.5 1134.88,-129.75"/>
<text text-anchor="middle" x="1106.62" y="-116.25" font-family="Helvetica,sans-Serif" font-size="10.00">Globals.h</text>
</a>
</g>
</g>
<!-- Node1&#45;&gt;Node8 -->
<g id="edge7_Node000001_Node000008" class="edge">
<title>Node1&#45;&gt;Node8</title>
<g id="a_edge7_Node000001_Node000008"><a xlink:title=" ">
<path fill="none" stroke="#63b8ff" d="M823.08,-168.16C883.98,-158.06 1003.97,-138.16 1066.53,-127.78"/>
<polygon fill="#63b8ff" stroke="#63b8ff" points="1067.1,-131.23 1076.39,-126.14 1065.95,-124.32 1067.1,-131.23"/>
</a>
</g>
</g>
<!-- Node20 -->
<g id="Node000020" class="node">
<title>Node20</title>
<g id="a_Node000020"><a xlink:href="_t_priority_value_8h.html" target="_top" xlink:title=" ">
<polygon fill="white" stroke="#666666" points="99.75,-74.5 15.5,-74.5 15.5,-55.25 99.75,-55.25 99.75,-74.5"/>
<text text-anchor="middle" x="57.62" y="-61" font-family="Helvetica,sans-Serif" font-size="10.00">TPriorityValue.h</text>
</a>
</g>
</g>
<!-- Node1&#45;&gt;Node20 -->
<g id="edge23_Node000001_Node000020" class="edge">
<title>Node1&#45;&gt;Node20</title>
<g id="a_edge23_Node000001_Node000020"><a xlink:title=" ">
<path fill="none" stroke="#63b8ff" d="M748.15,-171.83C673.38,-166.45 500.48,-152.53 356.62,-129.75 266.92,-115.54 163.57,-91.8 104.88,-77.61"/>
<polygon fill="#63b8ff" stroke="#63b8ff" points="105.77,-74.22 95.22,-75.26 104.11,-81.02 105.77,-74.22"/>
</a>
</g>
</g>
<!-- Node23 -->
<g id="Node000023" class="node">
<title>Node23</title>
<g id="a_Node000023"><a xlink:href="_t_channel_8h.html" target="_top" xlink:title=" ">
<polygon fill="white" stroke="#666666" points="430,-129.75 365.25,-129.75 365.25,-110.5 430,-110.5 430,-129.75"/>
<text text-anchor="middle" x="397.62" y="-116.25" font-family="Helvetica,sans-Serif" font-size="10.00">TChannel.h</text>
</a>
</g>
</g>
<!-- Node1&#45;&gt;Node23 -->
<g id="edge28_Node000001_Node000023" class="edge">
<title>Node1&#45;&gt;Node23</title>
<g id="a_edge28_Node000001_Node000023"><a xlink:title=" ">
<path fill="none" stroke="#63b8ff" d="M748.07,-169.22C675.98,-159.33 518.56,-137.72 441.66,-127.17"/>
<polygon fill="#63b8ff" stroke="#63b8ff" points="442.36,-123.73 431.98,-125.84 441.41,-130.67 442.36,-123.73"/>
</a>
</g>
</g>
<!-- Node8&#45;&gt;Node2 -->
<g id="edge11_Node000008_Node000002" class="edge">
<title>Node8&#45;&gt;Node2</title>
<g id="a_edge11_Node000008_Node000002"><a xlink:title=" ">
<path fill="none" stroke="#63b8ff" d="M1077.88,-110.99C1049.35,-102.68 1004.52,-88.97 966.62,-74.5 947.06,-67.03 943.47,-61.92 923.62,-55.25 868.05,-36.58 800.92,-22.99 762.26,-15.99"/>
<polygon fill="#63b8ff" stroke="#63b8ff" points="762.93,-12.56 752.48,-14.26 761.71,-19.45 762.93,-12.56"/>
</a>
</g>
</g>
<!-- Node8&#45;&gt;Node3 -->
<g id="edge8_Node000008_Node000003" class="edge">
<title>Node8&#45;&gt;Node3</title>
<g id="a_edge8_Node000008_Node000003"><a xlink:title=" ">
<path fill="none" stroke="#63b8ff" d="M1078.06,-115.5C1028.3,-109.02 922.27,-94.41 823.75,-75"/>
<polygon fill="#63b8ff" stroke="#63b8ff" points="824.68,-71.61 814.19,-73.09 823.31,-78.48 824.68,-71.61"/>
</a>
</g>
</g>
<!-- Node8&#45;&gt;Node4 -->
<g id="edge17_Node000008_Node000004" class="edge">
<title>Node8&#45;&gt;Node4</title>
<g id="a_edge17_Node000008_Node000004"><a xlink:title=" ">
<path fill="none" stroke="#63b8ff" d="M1077.95,-113.1C1037.35,-104.56 960.8,-88.42 895.62,-74.5 894.62,-74.29 893.6,-74.07 892.58,-73.85"/>
<polygon fill="#63b8ff" stroke="#63b8ff" points="893.43,-70.45 882.92,-71.78 891.96,-77.3 893.43,-70.45"/>
</a>
</g>
</g>
<!-- Node8&#45;&gt;Node5 -->
<g id="edge13_Node000008_Node000005" class="edge">
<title>Node8&#45;&gt;Node5</title>
<g id="a_edge13_Node000008_Node000005"><a xlink:title=" ">
<path fill="none" stroke="#63b8ff" d="M1077.93,-114.77C1041.22,-108.61 976.09,-95.68 923.62,-74.5 907.88,-68.14 906.53,-61.2 890.62,-55.25 813.83,-26.5 787.16,-37.39 703.68,-19.51"/>
<polygon fill="#63b8ff" stroke="#63b8ff" points="704.64,-16.14 694.12,-17.38 703.12,-22.97 704.64,-16.14"/>
</a>
</g>
</g>
<!-- Node9 -->
<g id="Node000009" class="node">
<title>Node9</title>
<g id="a_Node000009"><a xlink:title=" ">
<polygon fill="#e0e0e0" stroke="#999999" points="1025.5,-74.5 975.75,-74.5 975.75,-55.25 1025.5,-55.25 1025.5,-74.5"/>
<text text-anchor="middle" x="1000.62" y="-61" font-family="Helvetica,sans-Serif" font-size="10.00">iomanip</text>
</a>
</g>
</g>
<!-- Node8&#45;&gt;Node9 -->
<g id="edge9_Node000008_Node000009" class="edge">
<title>Node8&#45;&gt;Node9</title>
<g id="a_edge9_Node000008_Node000009"><a xlink:title=" ">
<path fill="none" stroke="#63b8ff" d="M1088.64,-110.09C1072.27,-101.87 1047.84,-89.59 1028.86,-80.06"/>
<polygon fill="#63b8ff" stroke="#63b8ff" points="1030.55,-76.99 1020.05,-75.63 1027.41,-83.25 1030.55,-76.99"/>
</a>
</g>
</g>
<!-- Node10 -->
<g id="Node000010" class="node">
<title>Node10</title>
<g id="a_Node000010"><a xlink:title=" ">
<polygon fill="#e0e0e0" stroke="#999999" points="1101.62,-74.5 1043.62,-74.5 1043.62,-55.25 1101.62,-55.25 1101.62,-74.5"/>
<text text-anchor="middle" x="1072.62" y="-61" font-family="Helvetica,sans-Serif" font-size="10.00">stdexcept</text>
</a>
</g>
</g>
<!-- Node8&#45;&gt;Node10 -->
<g id="edge10_Node000008_Node000010" class="edge">
<title>Node8&#45;&gt;Node10</title>
<g id="a_edge10_Node000008_Node000010"><a xlink:title=" ">
<path fill="none" stroke="#63b8ff" d="M1101.01,-110.33C1096.51,-103.28 1090.04,-93.15 1084.41,-84.33"/>
<polygon fill="#63b8ff" stroke="#63b8ff" points="1087.51,-82.68 1079.18,-76.13 1081.61,-86.45 1087.51,-82.68"/>
</a>
</g>
</g>
<!-- Node11 -->
<g id="Node000011" class="node">
<title>Node11</title>
<g id="a_Node000011"><a xlink:title=" ">
<polygon fill="#e0e0e0" stroke="#999999" points="1161.75,-74.5 1119.5,-74.5 1119.5,-55.25 1161.75,-55.25 1161.75,-74.5"/>
<text text-anchor="middle" x="1140.62" y="-61" font-family="Helvetica,sans-Serif" font-size="10.00">cstdio</text>
</a>
</g>
</g>
<!-- Node8&#45;&gt;Node11 -->
<g id="edge12_Node000008_Node000011" class="edge">
<title>Node8&#45;&gt;Node11</title>
<g id="a_edge12_Node000008_Node000011"><a xlink:title=" ">
<path fill="none" stroke="#63b8ff" d="M1112.24,-110.33C1116.74,-103.28 1123.21,-93.15 1128.84,-84.33"/>
<polygon fill="#63b8ff" stroke="#63b8ff" points="1131.64,-86.45 1134.07,-76.13 1125.74,-82.68 1131.64,-86.45"/>
</a>
</g>
</g>
<!-- Node12 -->
<g id="Node000012" class="node">
<title>Node12</title>
<g id="a_Node000012"><a xlink:title=" ">
<polygon fill="#e0e0e0" stroke="#999999" points="1223.88,-74.5 1179.38,-74.5 1179.38,-55.25 1223.88,-55.25 1223.88,-74.5"/>
<text text-anchor="middle" x="1201.62" y="-61" font-family="Helvetica,sans-Serif" font-size="10.00">cstdlib</text>
</a>
</g>
</g>
<!-- Node8&#45;&gt;Node12 -->
<g id="edge14_Node000008_Node000012" class="edge">
<title>Node8&#45;&gt;Node12</title>
<g id="a_edge14_Node000008_Node000012"><a xlink:title=" ">
<path fill="none" stroke="#63b8ff" d="M1122.74,-110.09C1137.21,-101.98 1158.7,-89.93 1175.61,-80.46"/>
<polygon fill="#63b8ff" stroke="#63b8ff" points="1177.1,-83.64 1184.11,-75.69 1173.68,-77.53 1177.1,-83.64"/>
</a>
</g>
</g>
<!-- Node13 -->
<g id="Node000013" class="node">
<title>Node13</title>
<g id="a_Node000013"><a xlink:title=" ">
<polygon fill="#e0e0e0" stroke="#999999" points="1301.38,-74.5 1241.88,-74.5 1241.88,-55.25 1301.38,-55.25 1301.38,-74.5"/>
<text text-anchor="middle" x="1271.62" y="-61" font-family="Helvetica,sans-Serif" font-size="10.00">execinfo.h</text>
</a>
</g>
</g>
<!-- Node8&#45;&gt;Node13 -->
<g id="edge15_Node000008_Node000013" class="edge">
<title>Node8&#45;&gt;Node13</title>
<g id="a_edge15_Node000008_Node000013"><a xlink:title=" ">
<path fill="none" stroke="#63b8ff" d="M1134.62,-110.09C1161.64,-101.37 1202.78,-88.09 1232.93,-78.36"/>
<polygon fill="#63b8ff" stroke="#63b8ff" points="1233.62,-81.82 1242.06,-75.42 1231.47,-75.16 1233.62,-81.82"/>
</a>
</g>
</g>
<!-- Node14 -->
<g id="Node000014" class="node">
<title>Node14</title>
<g id="a_Node000014"><a xlink:title=" ">
<polygon fill="#e0e0e0" stroke="#999999" points="1369.88,-74.5 1319.38,-74.5 1319.38,-55.25 1369.88,-55.25 1369.88,-74.5"/>
<text text-anchor="middle" x="1344.62" y="-61" font-family="Helvetica,sans-Serif" font-size="10.00">cxxabi.h</text>
</a>
</g>
</g>
<!-- Node8&#45;&gt;Node14 -->
<g id="edge16_Node000008_Node000014" class="edge">
<title>Node8&#45;&gt;Node14</title>
<g id="a_edge16_Node000008_Node000014"><a xlink:title=" ">
<path fill="none" stroke="#63b8ff" d="M1135.3,-112.39C1138.11,-111.75 1140.92,-111.11 1143.62,-110.5 1214.24,-94.66 1234.8,-92.06 1307.86,-75.09"/>
<polygon fill="#63b8ff" stroke="#63b8ff" points="1308.62,-78.5 1317.56,-72.82 1307.02,-71.69 1308.62,-78.5"/>
</a>
</g>
</g>
<!-- Node15 -->
<g id="Node000015" class="node">
<title>Node15</title>
<g id="a_Node000015"><a xlink:title=" ">
<polygon fill="#e0e0e0" stroke="#999999" points="1425.12,-74.5 1388.12,-74.5 1388.12,-55.25 1425.12,-55.25 1425.12,-74.5"/>
<text text-anchor="middle" x="1406.62" y="-61" font-family="Helvetica,sans-Serif" font-size="10.00">array</text>
</a>
</g>
</g>
<!-- Node8&#45;&gt;Node15 -->
<g id="edge18_Node000008_Node000015" class="edge">
<title>Node8&#45;&gt;Node15</title>
<g id="a_edge18_Node000008_Node000015"><a xlink:title=" ">
<path fill="none" stroke="#63b8ff" d="M1135.26,-112.22C1138.08,-111.61 1140.9,-111.02 1143.62,-110.5 1243.83,-91.18 1273.62,-97.63 1376.54,-74.65"/>
<polygon fill="#63b8ff" stroke="#63b8ff" points="1377.3,-78.07 1386.27,-72.44 1375.75,-71.24 1377.3,-78.07"/>
</a>
</g>
</g>
<!-- Node16 -->
<g id="Node000016" class="node">
<title>Node16</title>
<g id="a_Node000016"><a xlink:title=" ">
<polygon fill="#e0e0e0" stroke="#999999" points="1493.88,-74.5 1443.38,-74.5 1443.38,-55.25 1493.88,-55.25 1493.88,-74.5"/>
<text text-anchor="middle" x="1468.62" y="-61" font-family="Helvetica,sans-Serif" font-size="10.00">memory</text>
</a>
</g>
</g>
<!-- Node8&#45;&gt;Node16 -->
<g id="edge19_Node000008_Node000016" class="edge">
<title>Node8&#45;&gt;Node16</title>
<g id="a_edge19_Node000008_Node000016"><a xlink:title=" ">
<path fill="none" stroke="#63b8ff" d="M1135.25,-112.14C1138.07,-111.54 1140.9,-110.99 1143.62,-110.5 1268.42,-88.3 1304.58,-98 1432.11,-74.76"/>
<polygon fill="#63b8ff" stroke="#63b8ff" points="1432.4,-78.26 1441.59,-73 1431.12,-71.38 1432.4,-78.26"/>
</a>
</g>
</g>
<!-- Node17 -->
<g id="Node000017" class="node">
<title>Node17</title>
<g id="a_Node000017"><a xlink:title=" ">
<polygon fill="#e0e0e0" stroke="#999999" points="1561.5,-74.5 1511.75,-74.5 1511.75,-55.25 1561.5,-55.25 1561.5,-74.5"/>
<text text-anchor="middle" x="1536.62" y="-61" font-family="Helvetica,sans-Serif" font-size="10.00">unistd.h</text>
</a>
</g>
</g>
<!-- Node8&#45;&gt;Node17 -->
<g id="edge20_Node000008_Node000017" class="edge">
<title>Node8&#45;&gt;Node17</title>
<g id="a_edge20_Node000008_Node000017"><a xlink:title=" ">
<path fill="none" stroke="#63b8ff" d="M1135.23,-112.07C1138.06,-111.49 1140.89,-110.95 1143.62,-110.5 1298.26,-84.83 1342.71,-101.5 1500.41,-74.62"/>
<polygon fill="#63b8ff" stroke="#63b8ff" points="1500.72,-78.12 1509.97,-72.96 1499.52,-71.23 1500.72,-78.12"/>
</a>
</g>
</g>
<!-- Node18 -->
<g id="Node000018" class="node">
<title>Node18</title>
<g id="a_Node000018"><a xlink:title=" ">
<polygon fill="#e0e0e0" stroke="#999999" points="1639.38,-74.5 1579.88,-74.5 1579.88,-55.25 1639.38,-55.25 1639.38,-74.5"/>
<text text-anchor="middle" x="1609.62" y="-61" font-family="Helvetica,sans-Serif" font-size="10.00">sys/wait.h</text>
</a>
</g>
</g>
<!-- Node8&#45;&gt;Node18 -->
<g id="edge21_Node000008_Node000018" class="edge">
<title>Node8&#45;&gt;Node18</title>
<g id="a_edge21_Node000008_Node000018"><a xlink:title=" ">
<path fill="none" stroke="#63b8ff" d="M1135.23,-112.03C1138.05,-111.45 1140.89,-110.93 1143.62,-110.5 1328.07,-81.38 1380.31,-102.27 1568.08,-74.67"/>
<polygon fill="#63b8ff" stroke="#63b8ff" points="1568.6,-78.13 1577.97,-73.19 1567.56,-71.21 1568.6,-78.13"/>
</a>
</g>
</g>
<!-- Node19 -->
<g id="Node000019" class="node">
<title>Node19</title>
<g id="a_Node000019"><a xlink:title=" ">
<polygon fill="#e0e0e0" stroke="#999999" points="1717.75,-74.5 1657.5,-74.5 1657.5,-55.25 1717.75,-55.25 1717.75,-74.5"/>
<text text-anchor="middle" x="1687.62" y="-61" font-family="Helvetica,sans-Serif" font-size="10.00">sys/prctl.h</text>
</a>
</g>
</g>
<!-- Node8&#45;&gt;Node19 -->
<g id="edge22_Node000008_Node000019" class="edge">
<title>Node8&#45;&gt;Node19</title>
<g id="a_edge22_Node000008_Node000019"><a xlink:title=" ">
<path fill="none" stroke="#63b8ff" d="M1135.22,-111.99C1138.05,-111.42 1140.89,-110.91 1143.62,-110.5 1362.42,-77.41 1423.92,-105.9 1645.68,-74.71"/>
<polygon fill="#63b8ff" stroke="#63b8ff" points="1646.15,-78.18 1655.55,-73.3 1645.15,-71.25 1646.15,-78.18"/>
</a>
</g>
</g>
<!-- Node20&#45;&gt;Node2 -->
<g id="edge25_Node000020_Node000002" class="edge">
<title>Node20&#45;&gt;Node2</title>
<g id="a_edge25_Node000020_Node000002"><a xlink:title=" ">
<path fill="none" stroke="#63b8ff" d="M100.15,-56.33C103.02,-55.93 105.86,-55.57 108.62,-55.25 367.23,-25.62 439.57,-64.07 698.88,-19.32"/>
<polygon fill="#63b8ff" stroke="#63b8ff" points="699.43,-22.78 708.68,-17.6 698.22,-15.88 699.43,-22.78"/>
</a>
</g>
</g>
<!-- Node20&#45;&gt;Node5 -->
<g id="edge27_Node000020_Node000005" class="edge">
<title>Node20&#45;&gt;Node5</title>
<g id="a_edge27_Node000020_Node000005"><a xlink:title=" ">
<path fill="none" stroke="#63b8ff" d="M100.16,-56.39C103.02,-55.98 105.86,-55.59 108.62,-55.25 307.26,-30.6 547.25,-16.83 635.19,-12.3"/>
<polygon fill="#63b8ff" stroke="#63b8ff" points="635.25,-15.81 645.06,-11.8 634.9,-8.82 635.25,-15.81"/>
</a>
</g>
</g>
<!-- Node21 -->
<g id="Node000021" class="node">
<title>Node21</title>
<g id="a_Node000021"><a xlink:title=" ">
<polygon fill="#e0e0e0" stroke="#999999" points="51.25,-19.25 0,-19.25 0,0 51.25,0 51.25,-19.25"/>
<text text-anchor="middle" x="25.62" y="-5.75" font-family="Helvetica,sans-Serif" font-size="10.00">ostream</text>
</a>
</g>
</g>
<!-- Node20&#45;&gt;Node21 -->
<g id="edge24_Node000020_Node000021" class="edge">
<title>Node20&#45;&gt;Node21</title>
<g id="a_edge24_Node000020_Node000021"><a xlink:title=" ">
<path fill="none" stroke="#63b8ff" d="M52.34,-55.08C48.15,-48.11 42.15,-38.12 36.89,-29.37"/>
<polygon fill="#63b8ff" stroke="#63b8ff" points="39.95,-27.68 31.8,-20.91 33.95,-31.28 39.95,-27.68"/>
</a>
</g>
</g>
<!-- Node22 -->
<g id="Node000022" class="node">
<title>Node22</title>
<g id="a_Node000022"><a xlink:title=" ">
<polygon fill="#e0e0e0" stroke="#999999" points="112.12,-19.25 69.12,-19.25 69.12,0 112.12,0 112.12,-19.25"/>
<text text-anchor="middle" x="90.62" y="-5.75" font-family="Helvetica,sans-Serif" font-size="10.00">vector</text>
</a>
</g>
</g>
<!-- Node20&#45;&gt;Node22 -->
<g id="edge26_Node000020_Node000022" class="edge">
<title>Node20&#45;&gt;Node22</title>
<g id="a_edge26_Node000020_Node000022"><a xlink:title=" ">
<path fill="none" stroke="#63b8ff" d="M63.07,-55.08C67.4,-48.11 73.59,-38.12 79.01,-29.37"/>
<polygon fill="#63b8ff" stroke="#63b8ff" points="81.97,-31.24 84.26,-20.9 76.02,-27.55 81.97,-31.24"/>
</a>
</g>
</g>
<!-- Node23&#45;&gt;Node2 -->
<g id="edge29_Node000023_Node000002" class="edge">
<title>Node23&#45;&gt;Node2</title>
<g id="a_edge29_Node000023_Node000002"><a xlink:title=" ">
<path fill="none" stroke="#63b8ff" d="M430.37,-117.18C477.37,-113.47 565.99,-103.02 635.62,-74.5 664.44,-62.7 693.57,-41.42 711.84,-26.68"/>
<polygon fill="#63b8ff" stroke="#63b8ff" points="713.69,-29.68 719.17,-20.62 709.23,-24.29 713.69,-29.68"/>
</a>
</g>
</g>
<!-- Node23&#45;&gt;Node20 -->
<g id="edge37_Node000023_Node000020" class="edge">
<title>Node23&#45;&gt;Node20</title>
<g id="a_edge37_Node000023_Node000020"><a xlink:title=" ">
<path fill="none" stroke="#63b8ff" d="M365.1,-114.26C313.56,-106.51 209.68,-90.76 111.51,-74.95"/>
<polygon fill="#63b8ff" stroke="#63b8ff" points="112.12,-71.5 101.69,-73.36 111,-78.41 112.12,-71.5"/>
</a>
</g>
</g>
<!-- Node24 -->
<g id="Node000024" class="node">
<title>Node24</title>
<g id="a_Node000024"><a xlink:title=" ">
<polygon fill="#e0e0e0" stroke="#999999" points="389.12,-74.5 346.12,-74.5 346.12,-55.25 389.12,-55.25 389.12,-74.5"/>
<text text-anchor="middle" x="367.62" y="-61" font-family="Helvetica,sans-Serif" font-size="10.00">cmath</text>
</a>
</g>
</g>
<!-- Node23&#45;&gt;Node24 -->
<g id="edge30_Node000023_Node000024" class="edge">
<title>Node23&#45;&gt;Node24</title>
<g id="a_edge30_Node000023_Node000024"><a xlink:title=" ">
<path fill="none" stroke="#63b8ff" d="M392.67,-110.33C388.74,-103.36 383.11,-93.37 378.19,-84.62"/>
<polygon fill="#63b8ff" stroke="#63b8ff" points="381.39,-83.17 373.43,-76.18 375.29,-86.61 381.39,-83.17"/>
</a>
</g>
</g>
<!-- Node25 -->
<g id="Node000025" class="node">
<title>Node25</title>
<g id="a_Node000025"><a xlink:title=" ">
<polygon fill="#e0e0e0" stroke="#999999" points="445.88,-74.5 407.38,-74.5 407.38,-55.25 445.88,-55.25 445.88,-74.5"/>
<text text-anchor="middle" x="426.62" y="-61" font-family="Helvetica,sans-Serif" font-size="10.00">utility</text>
</a>
</g>
</g>
<!-- Node23&#45;&gt;Node25 -->
<g id="edge31_Node000023_Node000025" class="edge">
<title>Node23&#45;&gt;Node25</title>
<g id="a_edge31_Node000023_Node000025"><a xlink:title=" ">
<path fill="none" stroke="#63b8ff" d="M402.41,-110.33C406.17,-103.44 411.53,-93.59 416.26,-84.91"/>
<polygon fill="#63b8ff" stroke="#63b8ff" points="419.3,-86.64 421.01,-76.19 413.15,-83.3 419.3,-86.64"/>
</a>
</g>
</g>
<!-- Node26 -->
<g id="Node000026" class="node">
<title>Node26</title>
<g id="a_Node000026"><a xlink:title=" ">
<polygon fill="#e0e0e0" stroke="#999999" points="547,-74.5 464.25,-74.5 464.25,-55.25 547,-55.25 547,-74.5"/>
<text text-anchor="middle" x="505.62" y="-61" font-family="Helvetica,sans-Serif" font-size="10.00">unordered_map</text>
</a>
</g>
</g>
<!-- Node23&#45;&gt;Node26 -->
<g id="edge32_Node000023_Node000026" class="edge">
<title>Node23&#45;&gt;Node26</title>
<g id="a_edge32_Node000023_Node000026"><a xlink:title=" ">
<path fill="none" stroke="#63b8ff" d="M415.95,-110.09C432.7,-101.83 457.76,-89.48 477.13,-79.93"/>
<polygon fill="#63b8ff" stroke="#63b8ff" points="478.44,-83.18 485.86,-75.62 475.34,-76.9 478.44,-83.18"/>
</a>
</g>
</g>
<!-- Node27 -->
<g id="Node000027" class="node">
<title>Node27</title>
<g id="a_Node000027"><a xlink:title=" ">
<polygon fill="#e0e0e0" stroke="#999999" points="626.12,-74.5 565.12,-74.5 565.12,-55.25 626.12,-55.25 626.12,-74.5"/>
<text text-anchor="middle" x="595.62" y="-61" font-family="Helvetica,sans-Serif" font-size="10.00">TNamed.h</text>
</a>
</g>
</g>
<!-- Node23&#45;&gt;Node27 -->
<g id="edge33_Node000023_Node000027" class="edge">
<title>Node23&#45;&gt;Node27</title>
<g id="a_edge33_Node000023_Node000027"><a xlink:title=" ">
<path fill="none" stroke="#63b8ff" d="M430.32,-110.33C464.16,-101.23 517.14,-86.98 553.97,-77.08"/>
<polygon fill="#63b8ff" stroke="#63b8ff" points="554.63,-80.53 563.38,-74.55 552.81,-73.77 554.63,-80.53"/>
</a>
</g>
</g>
<!-- Node28 -->
<g id="Node000028" class="node">
<title>Node28</title>
<g id="a_Node000028"><a xlink:title=" ">
<polygon fill="#e0e0e0" stroke="#999999" points="167.12,-74.5 118.12,-74.5 118.12,-55.25 167.12,-55.25 167.12,-74.5"/>
<text text-anchor="middle" x="142.62" y="-61" font-family="Helvetica,sans-Serif" font-size="10.00">TTree.h</text>
</a>
</g>
</g>
<!-- Node23&#45;&gt;Node28 -->
<g id="edge34_Node000023_Node000028" class="edge">
<title>Node23&#45;&gt;Node28</title>
<g id="a_edge34_Node000023_Node000028"><a xlink:title=" ">
<path fill="none" stroke="#63b8ff" d="M364.77,-113.13C323.45,-105.46 250.08,-91.4 178.46,-75.06"/>
<polygon fill="#63b8ff" stroke="#63b8ff" points="179.46,-71.7 168.93,-72.87 177.89,-78.52 179.46,-71.7"/>
</a>
</g>
</g>
<!-- Node29 -->
<g id="Node000029" class="node">
<title>Node29</title>
<g id="a_Node000029"><a xlink:title=" ">
<polygon fill="#e0e0e0" stroke="#999999" points="240.5,-74.5 184.75,-74.5 184.75,-55.25 240.5,-55.25 240.5,-74.5"/>
<text text-anchor="middle" x="212.62" y="-61" font-family="Helvetica,sans-Serif" font-size="10.00">TGraph.h</text>
</a>
</g>
</g>
<!-- Node23&#45;&gt;Node29 -->
<g id="edge35_Node000023_Node000029" class="edge">
<title>Node23&#45;&gt;Node29</title>
<g id="a_edge35_Node000023_Node000029"><a xlink:title=" ">
<path fill="none" stroke="#63b8ff" d="M366.24,-110.09C334.66,-101 285.87,-86.96 251.77,-77.14"/>
<polygon fill="#63b8ff" stroke="#63b8ff" points="252.85,-73.81 242.28,-74.41 250.92,-80.54 252.85,-73.81"/>
</a>
</g>
</g>
<!-- Node30 -->
<g id="Node000030" class="node">
<title>Node30</title>
<g id="a_Node000030"><a xlink:title=" ">
<polygon fill="#e0e0e0" stroke="#999999" points="328.25,-74.5 259,-74.5 259,-55.25 328.25,-55.25 328.25,-74.5"/>
<text text-anchor="middle" x="293.62" y="-61" font-family="Helvetica,sans-Serif" font-size="10.00">TClassRef.h</text>
</a>
</g>
</g>
<!-- Node23&#45;&gt;Node30 -->
<g id="edge36_Node000023_Node000030" class="edge">
<title>Node23&#45;&gt;Node30</title>
<g id="a_edge36_Node000023_Node000030"><a xlink:title=" ">
<path fill="none" stroke="#63b8ff" d="M379.98,-110.09C364,-101.91 340.17,-89.71 321.59,-80.19"/>
<polygon fill="#63b8ff" stroke="#63b8ff" points="323.2,-77.08 312.7,-75.64 320.01,-83.32 323.2,-77.08"/>
</a>
</g>
</g>
</g>
</svg>

<g id="navigator" transform="translate(0 0)" fill="#404254">
  <rect fill="#f2f5e9" fill-opacity="0.5" stroke="#606060" stroke-width=".5" x="0" y="0" width="60" height="60"/>
  <use id="zoomplus" xlink:href="#zoomPlus" x="17" y="9" onmousedown="handleZoom(evt,'in')"/>
  <use id="zoomminus" xlink:href="#zoomMin" x="42" y="9" onmousedown="handleZoom(evt,'out')"/>
  <use id="reset" xlink:href="#resetDef" x="30" y="36" onmousedown="handleReset()"/>
   <use id="arrowup" xlink:href="#arrowUp" x="0" y="0" onmousedown="handlePan(0,-1)"/>
  <use id="arrowright" xlink:href="#arrowRight" x="0" y="0" onmousedown="handlePan(1,0)"/>
  <use id="arrowdown" xlink:href="#arrowDown" x="0" y="0" onmousedown="handlePan(0,1)"/>
  <use id="arrowleft" xlink:href="#arrowLeft" x="0" y="0" onmousedown="handlePan(-1,0)"/>
</g>
<svg viewBox="0 0 15 15" width="100%" height="30px" preserveAspectRatio="xMaxYMin meet">
 <g id="arrow_out" transform="scale(0.3 0.3)">
  <a xlink:href="_t_mnemonic_8h__incl_org.svg" target="_base">
   <rect id="button" ry="5" rx="5" y="6" x="6" height="38" width="38"
        fill="#f2f5e9" fill-opacity="0.5" stroke="#606060" stroke-width="1.0"/>
   <path id="arrow"
     d="M 11.500037,31.436501 C 11.940474,20.09759 22.043105,11.32322 32.158766,21.979434 L 37.068811,17.246167 C 37.068811,17.246167 37.088388,32 37.088388,32 L 22.160133,31.978069 C 22.160133,31.978069 26.997745,27.140456 26.997745,27.140456 C 18.528582,18.264221 13.291696,25.230495 11.500037,31.436501 z"
     style="fill:#404040;"/>
  </a>
 </g>
</svg>

<style type='text/css'>
<![CDATA[
[data-mouse-over-selected='false'] { opacity: 0.7; }
[data-mouse-over-selected='true']  { opacity: 1.0; }
]]>
</style>
<script type="application/ecmascript"><![CDATA[
document.addEventListener('DOMContentLoaded', (event) => {
  highlightEdges();
  highlightAdjacentNodes();
});
]]></script>
</svg>
