<?xml version="1.0" encoding="UTF-8" standalone="no"?>
<!DOCTYPE svg PUBLIC "-//W3C//DTD SVG 1.1//EN"
 "http://www.w3.org/Graphics/SVG/1.1/DTD/svg11.dtd">
<!-- Generated by graphviz version 12.2.0 (20241103.1931)
 -->
<!-- Title: TMnemonic.cxx Pages: 1 -->
<svg width="1902pt" height="248pt"
 viewBox="0.00 0.00 1902.25 248.25" xmlns="http://www.w3.org/2000/svg" xmlns:xlink="http://www.w3.org/1999/xlink">
<g id="graph0" class="graph" transform="scale(1 1) rotate(0) translate(4 244.25)">
<title>TMnemonic.cxx</title>
<!-- Node1 -->
<g id="Node000001" class="node">
<title>Node1</title>
<g id="a_Node000001"><a xlink:title=" ">
<polygon fill="#999999" stroke="#666666" points="302.5,-240.25 219,-240.25 219,-221 302.5,-221 302.5,-240.25"/>
<text text-anchor="middle" x="260.75" y="-226.75" font-family="Helvetica,sans-Serif" font-size="10.00">TMnemonic.cxx</text>
</a>
</g>
</g>
<!-- Node2 -->
<g id="Node000002" class="node">
<title>Node2</title>
<g id="a_Node000002"><a xlink:href="_t_mnemonic_8h.html" target="_top" xlink:title=" ">
<polygon fill="white" stroke="#666666" points="298,-185 223.5,-185 223.5,-165.75 298,-165.75 298,-185"/>
<text text-anchor="middle" x="260.75" y="-171.5" font-family="Helvetica,sans-Serif" font-size="10.00">TMnemonic.h</text>
</a>
</g>
</g>
<!-- Node1&#45;&gt;Node2 -->
<g id="edge1_Node000001_Node000002" class="edge">
<title>Node1&#45;&gt;Node2</title>
<g id="a_edge1_Node000001_Node000002"><a xlink:title=" ">
<path fill="none" stroke="#63b8ff" d="M260.75,-220.83C260.75,-214.32 260.75,-205.17 260.75,-196.87"/>
<polygon fill="#63b8ff" stroke="#63b8ff" points="264.25,-196.87 260.75,-186.87 257.25,-196.87 264.25,-196.87"/>
</a>
</g>
</g>
<!-- Node4 -->
<g id="Node000004" class="node">
<title>Node4</title>
<g id="a_Node000004"><a xlink:title=" ">
<polygon fill="#e0e0e0" stroke="#999999" points="53.5,-74.5 0,-74.5 0,-55.25 53.5,-55.25 53.5,-74.5"/>
<text text-anchor="middle" x="26.75" y="-61" font-family="Helvetica,sans-Serif" font-size="10.00">iostream</text>
</a>
</g>
</g>
<!-- Node1&#45;&gt;Node4 -->
<g id="edge42_Node000001_Node000004" class="edge">
<title>Node1&#45;&gt;Node4</title>
<g id="a_edge42_Node000001_Node000004"><a xlink:title=" ">
<path fill="none" stroke="#63b8ff" d="M238.04,-220.57C201.82,-205.41 129.84,-172.32 78.75,-129.75 62.82,-116.47 48.25,-97.74 38.61,-83.99"/>
<polygon fill="#63b8ff" stroke="#63b8ff" points="41.62,-82.19 33.11,-75.88 35.82,-86.12 41.62,-82.19"/>
</a>
</g>
</g>
<!-- Node35 -->
<g id="Node000035" class="node">
<title>Node35</title>
<g id="a_Node000035"><a xlink:title=" ">
<polygon fill="#e0e0e0" stroke="#999999" points="381.5,-185 316,-185 316,-165.75 381.5,-165.75 381.5,-185"/>
<text text-anchor="middle" x="348.75" y="-171.5" font-family="Helvetica,sans-Serif" font-size="10.00">TRandom.h</text>
</a>
</g>
</g>
<!-- Node1&#45;&gt;Node35 -->
<g id="edge43_Node000001_Node000035" class="edge">
<title>Node1&#45;&gt;Node35</title>
<g id="a_edge43_Node000001_Node000035"><a xlink:title=" ">
<path fill="none" stroke="#63b8ff" d="M275.68,-220.59C288.95,-212.56 308.62,-200.66 324.2,-191.23"/>
<polygon fill="#63b8ff" stroke="#63b8ff" points="325.71,-194.41 332.45,-186.24 322.09,-188.42 325.71,-194.41"/>
</a>
</g>
</g>
<!-- Node3 -->
<g id="Node000003" class="node">
<title>Node3</title>
<g id="a_Node000003"><a xlink:title=" ">
<polygon fill="#e0e0e0" stroke="#999999" points="1239.75,-19.25 1199.75,-19.25 1199.75,0 1239.75,0 1239.75,-19.25"/>
<text text-anchor="middle" x="1219.75" y="-5.75" font-family="Helvetica,sans-Serif" font-size="10.00">string</text>
</a>
</g>
</g>
<!-- Node2&#45;&gt;Node3 -->
<g id="edge2_Node000002_Node000003" class="edge">
<title>Node2&#45;&gt;Node3</title>
<g id="a_edge2_Node000002_Node000003"><a xlink:title=" ">
<path fill="none" stroke="#63b8ff" d="M298.36,-167.06C301.2,-166.59 304.02,-166.15 306.75,-165.75 504.17,-137.21 1045.22,-200.64 1199.75,-74.5 1212.56,-64.04 1217.31,-45.47 1219,-31.04"/>
<polygon fill="#63b8ff" stroke="#63b8ff" points="1222.48,-31.47 1219.71,-21.24 1215.5,-30.96 1222.48,-31.47"/>
</a>
</g>
</g>
<!-- Node2&#45;&gt;Node4 -->
<g id="edge3_Node000002_Node000004" class="edge">
<title>Node2&#45;&gt;Node4</title>
<g id="a_edge3_Node000002_Node000004"><a xlink:title=" ">
<path fill="none" stroke="#63b8ff" d="M223.21,-166.85C192.45,-159.8 148.36,-147.65 112.75,-129.75 87.23,-116.92 61.38,-96.5 44.78,-82.21"/>
<polygon fill="#63b8ff" stroke="#63b8ff" points="47.53,-79.96 37.71,-75.99 42.91,-85.22 47.53,-79.96"/>
</a>
</g>
</g>
<!-- Node5 -->
<g id="Node000005" class="node">
<title>Node5</title>
<g id="a_Node000005"><a xlink:title=" ">
<polygon fill="#e0e0e0" stroke="#999999" points="161.38,-74.5 110.12,-74.5 110.12,-55.25 161.38,-55.25 161.38,-74.5"/>
<text text-anchor="middle" x="135.75" y="-61" font-family="Helvetica,sans-Serif" font-size="10.00">sstream</text>
</a>
</g>
</g>
<!-- Node2&#45;&gt;Node5 -->
<g id="edge4_Node000002_Node000005" class="edge">
<title>Node2&#45;&gt;Node5</title>
<g id="a_edge4_Node000002_Node000005"><a xlink:title=" ">
<path fill="none" stroke="#63b8ff" d="M223.09,-173.79C190.38,-171.03 144.75,-161.29 121.75,-129.75 112.14,-116.58 117.72,-98.08 124.47,-84.38"/>
<polygon fill="#63b8ff" stroke="#63b8ff" points="127.36,-86.39 129.13,-75.94 121.23,-83 127.36,-86.39"/>
</a>
</g>
</g>
<!-- Node6 -->
<g id="Node000006" class="node">
<title>Node6</title>
<g id="a_Node000006"><a xlink:title=" ">
<polygon fill="#e0e0e0" stroke="#999999" points="212.38,-19.25 167.12,-19.25 167.12,0 212.38,0 212.38,-19.25"/>
<text text-anchor="middle" x="189.75" y="-5.75" font-family="Helvetica,sans-Serif" font-size="10.00">cstdint</text>
</a>
</g>
</g>
<!-- Node2&#45;&gt;Node6 -->
<g id="edge5_Node000002_Node000006" class="edge">
<title>Node2&#45;&gt;Node6</title>
<g id="a_edge5_Node000002_Node000006"><a xlink:title=" ">
<path fill="none" stroke="#63b8ff" d="M265.79,-165.42C272.61,-151.94 282.57,-126.34 269.75,-110.5 221.43,-50.81 149.07,-134.19 100.75,-74.5 81.08,-50.19 123.38,-30.76 156.17,-19.97"/>
<polygon fill="#63b8ff" stroke="#63b8ff" points="156.88,-23.42 165.38,-17.1 154.79,-16.73 156.88,-23.42"/>
</a>
</g>
</g>
<!-- Node7 -->
<g id="Node000007" class="node">
<title>Node7</title>
<g id="a_Node000007"><a xlink:title=" ">
<polygon fill="#e0e0e0" stroke="#999999" points="188.75,-129.75 130.75,-129.75 130.75,-110.5 188.75,-110.5 188.75,-129.75"/>
<text text-anchor="middle" x="159.75" y="-116.25" font-family="Helvetica,sans-Serif" font-size="10.00">TObject.h</text>
</a>
</g>
</g>
<!-- Node2&#45;&gt;Node7 -->
<g id="edge6_Node000002_Node000007" class="edge">
<title>Node2&#45;&gt;Node7</title>
<g id="a_edge6_Node000002_Node000007"><a xlink:title=" ">
<path fill="none" stroke="#63b8ff" d="M243.62,-165.34C228.09,-157.16 204.95,-144.96 186.91,-135.44"/>
<polygon fill="#63b8ff" stroke="#63b8ff" points="188.78,-132.48 178.31,-130.91 185.52,-138.67 188.78,-132.48"/>
</a>
</g>
</g>
<!-- Node8 -->
<g id="Node000008" class="node">
<title>Node8</title>
<g id="a_Node000008"><a xlink:title=" ">
<polygon fill="#e0e0e0" stroke="#999999" points="260.88,-129.75 206.62,-129.75 206.62,-110.5 260.88,-110.5 260.88,-129.75"/>
<text text-anchor="middle" x="233.75" y="-116.25" font-family="Helvetica,sans-Serif" font-size="10.00">TClass.h</text>
</a>
</g>
</g>
<!-- Node2&#45;&gt;Node8 -->
<g id="edge7_Node000002_Node000008" class="edge">
<title>Node2&#45;&gt;Node8</title>
<g id="a_edge7_Node000002_Node000008"><a xlink:title=" ">
<path fill="none" stroke="#63b8ff" d="M256.29,-165.58C252.8,-158.69 247.8,-148.84 243.4,-140.16"/>
<polygon fill="#63b8ff" stroke="#63b8ff" points="246.63,-138.8 238.99,-131.46 240.39,-141.96 246.63,-138.8"/>
</a>
</g>
</g>
<!-- Node9 -->
<g id="Node000009" class="node">
<title>Node9</title>
<g id="a_Node000009"><a xlink:href="_globals_8h.html" target="_top" xlink:title=" ">
<polygon fill="white" stroke="#666666" points="603,-129.75 546.5,-129.75 546.5,-110.5 603,-110.5 603,-129.75"/>
<text text-anchor="middle" x="574.75" y="-116.25" font-family="Helvetica,sans-Serif" font-size="10.00">Globals.h</text>
</a>
</g>
</g>
<!-- Node2&#45;&gt;Node9 -->
<g id="edge8_Node000002_Node000009" class="edge">
<title>Node2&#45;&gt;Node9</title>
<g id="a_edge8_Node000002_Node000009"><a xlink:title=" ">
<path fill="none" stroke="#63b8ff" d="M298.39,-167.25C301.22,-166.74 304.03,-166.23 306.75,-165.75 387.71,-151.42 482.68,-135.91 535.04,-127.48"/>
<polygon fill="#63b8ff" stroke="#63b8ff" points="535.35,-130.97 544.67,-125.93 534.24,-124.06 535.35,-130.97"/>
</a>
</g>
</g>
<!-- Node24 -->
<g id="Node000024" class="node">
<title>Node24</title>
<g id="a_Node000024"><a xlink:href="_t_priority_value_8h.html" target="_top" xlink:title=" ">
<polygon fill="white" stroke="#666666" points="1330.88,-74.5 1246.62,-74.5 1246.62,-55.25 1330.88,-55.25 1330.88,-74.5"/>
<text text-anchor="middle" x="1288.75" y="-61" font-family="Helvetica,sans-Serif" font-size="10.00">TPriorityValue.h</text>
</a>
</g>
</g>
<!-- Node2&#45;&gt;Node24 -->
<g id="edge27_Node000002_Node000024" class="edge">
<title>Node2&#45;&gt;Node24</title>
<g id="a_edge27_Node000002_Node000024"><a xlink:title=" ">
<path fill="none" stroke="#63b8ff" d="M298.34,-166.86C301.18,-166.44 304,-166.06 306.75,-165.75 409.07,-154.23 1139.81,-174.07 1232.75,-129.75 1252.87,-120.16 1268.75,-99.63 1278.38,-84.42"/>
<polygon fill="#63b8ff" stroke="#63b8ff" points="1281.15,-86.62 1283.26,-76.24 1275.13,-83.04 1281.15,-86.62"/>
</a>
</g>
</g>
<!-- Node27 -->
<g id="Node000027" class="node">
<title>Node27</title>
<g id="a_Node000027"><a xlink:href="_t_channel_8h.html" target="_top" xlink:title=" ">
<polygon fill="white" stroke="#666666" points="1562.12,-129.75 1497.38,-129.75 1497.38,-110.5 1562.12,-110.5 1562.12,-129.75"/>
<text text-anchor="middle" x="1529.75" y="-116.25" font-family="Helvetica,sans-Serif" font-size="10.00">TChannel.h</text>
</a>
</g>
</g>
<!-- Node2&#45;&gt;Node27 -->
<g id="edge32_Node000002_Node000027" class="edge">
<title>Node2&#45;&gt;Node27</title>
<g id="a_edge32_Node000002_Node000027"><a xlink:title=" ">
<path fill="none" stroke="#63b8ff" d="M298.34,-166.86C301.18,-166.43 304,-166.06 306.75,-165.75 321.71,-164.08 1269.28,-130.37 1485.95,-122.68"/>
<polygon fill="#63b8ff" stroke="#63b8ff" points="1485.78,-126.19 1495.65,-122.33 1485.53,-119.19 1485.78,-126.19"/>
</a>
</g>
</g>
<!-- Node9&#45;&gt;Node3 -->
<g id="edge12_Node000009_Node000003" class="edge">
<title>Node9&#45;&gt;Node3</title>
<g id="a_edge12_Node000009_Node000003"><a xlink:title=" ">
<path fill="none" stroke="#63b8ff" d="M603.31,-119.19C667.9,-118.62 829.55,-113.1 957.75,-74.5 975.88,-69.04 977.86,-61.43 995.75,-55.25 1062.21,-32.28 1144.08,-19.72 1188.12,-14.17"/>
<polygon fill="#63b8ff" stroke="#63b8ff" points="1188.48,-17.65 1197.99,-12.97 1187.64,-10.7 1188.48,-17.65"/>
</a>
</g>
</g>
<!-- Node9&#45;&gt;Node4 -->
<g id="edge9_Node000009_Node000004" class="edge">
<title>Node9&#45;&gt;Node4</title>
<g id="a_edge9_Node000009_Node000004"><a xlink:title=" ">
<path fill="none" stroke="#63b8ff" d="M546.14,-116.65C472.34,-110.23 269.47,-92.27 100.75,-74.5 89.2,-73.28 76.64,-71.86 65.21,-70.52"/>
<polygon fill="#63b8ff" stroke="#63b8ff" points="65.64,-67.05 55.3,-69.35 64.82,-74 65.64,-67.05"/>
</a>
</g>
</g>
<!-- Node9&#45;&gt;Node5 -->
<g id="edge18_Node000009_Node000005" class="edge">
<title>Node9&#45;&gt;Node5</title>
<g id="a_edge18_Node000009_Node000005"><a xlink:title=" ">
<path fill="none" stroke="#63b8ff" d="M546.07,-116.92C480.3,-111.64 313.68,-97.02 175.75,-74.5 174.74,-74.33 173.71,-74.16 172.68,-73.98"/>
<polygon fill="#63b8ff" stroke="#63b8ff" points="173.47,-70.57 162.98,-72.11 172.14,-77.44 173.47,-70.57"/>
</a>
</g>
</g>
<!-- Node9&#45;&gt;Node6 -->
<g id="edge14_Node000009_Node000006" class="edge">
<title>Node9&#45;&gt;Node6</title>
<g id="a_edge14_Node000009_Node000006"><a xlink:title=" ">
<path fill="none" stroke="#63b8ff" d="M546.06,-119.54C468.93,-120.06 259.54,-117.41 208.75,-74.5 196.17,-63.87 191.71,-45.32 190.22,-30.94"/>
<polygon fill="#63b8ff" stroke="#63b8ff" points="193.73,-30.97 189.64,-21.19 186.74,-31.38 193.73,-30.97"/>
</a>
</g>
</g>
<!-- Node10 -->
<g id="Node000010" class="node">
<title>Node10</title>
<g id="a_Node000010"><a xlink:title=" ">
<polygon fill="#e0e0e0" stroke="#999999" points="1054.62,-74.5 1004.88,-74.5 1004.88,-55.25 1054.62,-55.25 1054.62,-74.5"/>
<text text-anchor="middle" x="1029.75" y="-61" font-family="Helvetica,sans-Serif" font-size="10.00">iomanip</text>
</a>
</g>
</g>
<!-- Node9&#45;&gt;Node10 -->
<g id="edge10_Node000009_Node000010" class="edge">
<title>Node9&#45;&gt;Node10</title>
<g id="a_edge10_Node000009_Node000010"><a xlink:title=" ">
<path fill="none" stroke="#63b8ff" d="M603.39,-117.15C671.09,-112.25 846.13,-98.17 990.75,-74.5 991.74,-74.34 992.74,-74.17 993.75,-73.99"/>
<polygon fill="#63b8ff" stroke="#63b8ff" points="994.03,-77.5 1003.17,-72.14 992.68,-70.63 994.03,-77.5"/>
</a>
</g>
</g>
<!-- Node11 -->
<g id="Node000011" class="node">
<title>Node11</title>
<g id="a_Node000011"><a xlink:title=" ">
<polygon fill="#e0e0e0" stroke="#999999" points="1130.75,-74.5 1072.75,-74.5 1072.75,-55.25 1130.75,-55.25 1130.75,-74.5"/>
<text text-anchor="middle" x="1101.75" y="-61" font-family="Helvetica,sans-Serif" font-size="10.00">stdexcept</text>
</a>
</g>
</g>
<!-- Node9&#45;&gt;Node11 -->
<g id="edge11_Node000009_Node000011" class="edge">
<title>Node9&#45;&gt;Node11</title>
<g id="a_edge11_Node000009_Node000011"><a xlink:title=" ">
<path fill="none" stroke="#63b8ff" d="M603.3,-117.84C677.3,-114.23 881.48,-102.5 1061.12,-74.71"/>
<polygon fill="#63b8ff" stroke="#63b8ff" points="1061.53,-78.19 1070.87,-73.18 1060.45,-71.28 1061.53,-78.19"/>
</a>
</g>
</g>
<!-- Node12 -->
<g id="Node000012" class="node">
<title>Node12</title>
<g id="a_Node000012"><a xlink:title=" ">
<polygon fill="#e0e0e0" stroke="#999999" points="1190.88,-74.5 1148.62,-74.5 1148.62,-55.25 1190.88,-55.25 1190.88,-74.5"/>
<text text-anchor="middle" x="1169.75" y="-61" font-family="Helvetica,sans-Serif" font-size="10.00">cstdio</text>
</a>
</g>
</g>
<!-- Node9&#45;&gt;Node12 -->
<g id="edge13_Node000009_Node000012" class="edge">
<title>Node9&#45;&gt;Node12</title>
<g id="a_edge13_Node000009_Node000012"><a xlink:title=" ">
<path fill="none" stroke="#63b8ff" d="M603.23,-118.89C685.02,-117.8 927.7,-111.59 1137.04,-74.63"/>
<polygon fill="#63b8ff" stroke="#63b8ff" points="1137.53,-78.1 1146.75,-72.89 1136.29,-71.21 1137.53,-78.1"/>
</a>
</g>
</g>
<!-- Node13 -->
<g id="Node000013" class="node">
<title>Node13</title>
<g id="a_Node000013"><a xlink:title=" ">
<polygon fill="#e0e0e0" stroke="#999999" points="262,-74.5 217.5,-74.5 217.5,-55.25 262,-55.25 262,-74.5"/>
<text text-anchor="middle" x="239.75" y="-61" font-family="Helvetica,sans-Serif" font-size="10.00">cstdlib</text>
</a>
</g>
</g>
<!-- Node9&#45;&gt;Node13 -->
<g id="edge15_Node000009_Node000013" class="edge">
<title>Node9&#45;&gt;Node13</title>
<g id="a_edge15_Node000009_Node000013"><a xlink:title=" ">
<path fill="none" stroke="#63b8ff" d="M546.04,-116.13C493.7,-110.41 379.14,-96.69 273.53,-74.87"/>
<polygon fill="#63b8ff" stroke="#63b8ff" points="274.34,-71.46 263.84,-72.83 272.9,-78.31 274.34,-71.46"/>
</a>
</g>
</g>
<!-- Node14 -->
<g id="Node000014" class="node">
<title>Node14</title>
<g id="a_Node000014"><a xlink:title=" ">
<polygon fill="#e0e0e0" stroke="#999999" points="339.5,-74.5 280,-74.5 280,-55.25 339.5,-55.25 339.5,-74.5"/>
<text text-anchor="middle" x="309.75" y="-61" font-family="Helvetica,sans-Serif" font-size="10.00">execinfo.h</text>
</a>
</g>
</g>
<!-- Node9&#45;&gt;Node14 -->
<g id="edge16_Node000009_Node000014" class="edge">
<title>Node9&#45;&gt;Node14</title>
<g id="a_edge16_Node000009_Node000014"><a xlink:title=" ">
<path fill="none" stroke="#63b8ff" d="M546.17,-113.7C505.25,-105.88 427.36,-90.83 351.19,-74.97"/>
<polygon fill="#63b8ff" stroke="#63b8ff" points="351.96,-71.56 341.45,-72.94 350.52,-78.41 351.96,-71.56"/>
</a>
</g>
</g>
<!-- Node15 -->
<g id="Node000015" class="node">
<title>Node15</title>
<g id="a_Node000015"><a xlink:title=" ">
<polygon fill="#e0e0e0" stroke="#999999" points="408,-74.5 357.5,-74.5 357.5,-55.25 408,-55.25 408,-74.5"/>
<text text-anchor="middle" x="382.75" y="-61" font-family="Helvetica,sans-Serif" font-size="10.00">cxxabi.h</text>
</a>
</g>
</g>
<!-- Node9&#45;&gt;Node15 -->
<g id="edge17_Node000009_Node000015" class="edge">
<title>Node9&#45;&gt;Node15</title>
<g id="a_edge17_Node000009_Node000015"><a xlink:title=" ">
<path fill="none" stroke="#63b8ff" d="M546.01,-111.15C512.16,-101.77 455.9,-86.16 419.07,-75.95"/>
<polygon fill="#63b8ff" stroke="#63b8ff" points="420.34,-72.67 409.77,-73.37 418.47,-79.41 420.34,-72.67"/>
</a>
</g>
</g>
<!-- Node16 -->
<g id="Node000016" class="node">
<title>Node16</title>
<g id="a_Node000016"><a xlink:title=" ">
<polygon fill="#e0e0e0" stroke="#999999" points="463.25,-74.5 426.25,-74.5 426.25,-55.25 463.25,-55.25 463.25,-74.5"/>
<text text-anchor="middle" x="444.75" y="-61" font-family="Helvetica,sans-Serif" font-size="10.00">array</text>
</a>
</g>
</g>
<!-- Node9&#45;&gt;Node16 -->
<g id="edge19_Node000009_Node000016" class="edge">
<title>Node9&#45;&gt;Node16</title>
<g id="a_edge19_Node000009_Node000016"><a xlink:title=" ">
<path fill="none" stroke="#63b8ff" d="M552.7,-110.09C531.06,-101.23 497.93,-87.66 474.08,-77.89"/>
<polygon fill="#63b8ff" stroke="#63b8ff" points="475.51,-74.69 464.93,-74.14 472.86,-81.17 475.51,-74.69"/>
</a>
</g>
</g>
<!-- Node17 -->
<g id="Node000017" class="node">
<title>Node17</title>
<g id="a_Node000017"><a xlink:title=" ">
<polygon fill="#e0e0e0" stroke="#999999" points="532,-74.5 481.5,-74.5 481.5,-55.25 532,-55.25 532,-74.5"/>
<text text-anchor="middle" x="506.75" y="-61" font-family="Helvetica,sans-Serif" font-size="10.00">memory</text>
</a>
</g>
</g>
<!-- Node9&#45;&gt;Node17 -->
<g id="edge20_Node000009_Node000017" class="edge">
<title>Node9&#45;&gt;Node17</title>
<g id="a_edge20_Node000009_Node000017"><a xlink:title=" ">
<path fill="none" stroke="#63b8ff" d="M563.21,-110.09C553.29,-102.32 538.74,-90.92 526.89,-81.65"/>
<polygon fill="#63b8ff" stroke="#63b8ff" points="529.34,-79.12 519.31,-75.71 525.02,-84.63 529.34,-79.12"/>
</a>
</g>
</g>
<!-- Node18 -->
<g id="Node000018" class="node">
<title>Node18</title>
<g id="a_Node000018"><a xlink:title=" ">
<polygon fill="#e0e0e0" stroke="#999999" points="599.62,-74.5 549.88,-74.5 549.88,-55.25 599.62,-55.25 599.62,-74.5"/>
<text text-anchor="middle" x="574.75" y="-61" font-family="Helvetica,sans-Serif" font-size="10.00">unistd.h</text>
</a>
</g>
</g>
<!-- Node9&#45;&gt;Node18 -->
<g id="edge21_Node000009_Node000018" class="edge">
<title>Node9&#45;&gt;Node18</title>
<g id="a_edge21_Node000009_Node000018"><a xlink:title=" ">
<path fill="none" stroke="#63b8ff" d="M574.75,-110.33C574.75,-103.82 574.75,-94.67 574.75,-86.37"/>
<polygon fill="#63b8ff" stroke="#63b8ff" points="578.25,-86.37 574.75,-76.37 571.25,-86.37 578.25,-86.37"/>
</a>
</g>
</g>
<!-- Node19 -->
<g id="Node000019" class="node">
<title>Node19</title>
<g id="a_Node000019"><a xlink:title=" ">
<polygon fill="#e0e0e0" stroke="#999999" points="652.12,-74.5 617.38,-74.5 617.38,-55.25 652.12,-55.25 652.12,-74.5"/>
<text text-anchor="middle" x="634.75" y="-61" font-family="Helvetica,sans-Serif" font-size="10.00">map</text>
</a>
</g>
</g>
<!-- Node9&#45;&gt;Node19 -->
<g id="edge22_Node000009_Node000019" class="edge">
<title>Node9&#45;&gt;Node19</title>
<g id="a_edge22_Node000009_Node000019"><a xlink:title=" ">
<path fill="none" stroke="#63b8ff" d="M584.93,-110.09C593.51,-102.47 606.02,-91.37 616.35,-82.2"/>
<polygon fill="#63b8ff" stroke="#63b8ff" points="618.43,-85.04 623.59,-75.78 613.79,-79.8 618.43,-85.04"/>
</a>
</g>
</g>
<!-- Node20 -->
<g id="Node000020" class="node">
<title>Node20</title>
<g id="a_Node000020"><a xlink:title=" ">
<polygon fill="#e0e0e0" stroke="#999999" points="719.25,-74.5 670.25,-74.5 670.25,-55.25 719.25,-55.25 719.25,-74.5"/>
<text text-anchor="middle" x="694.75" y="-61" font-family="Helvetica,sans-Serif" font-size="10.00">fstream</text>
</a>
</g>
</g>
<!-- Node9&#45;&gt;Node20 -->
<g id="edge23_Node000009_Node000020" class="edge">
<title>Node9&#45;&gt;Node20</title>
<g id="a_edge23_Node000009_Node000020"><a xlink:title=" ">
<path fill="none" stroke="#63b8ff" d="M595.11,-110.09C613.98,-101.72 642.34,-89.13 663.98,-79.53"/>
<polygon fill="#63b8ff" stroke="#63b8ff" points="665.19,-82.82 672.91,-75.57 662.35,-76.42 665.19,-82.82"/>
</a>
</g>
</g>
<!-- Node21 -->
<g id="Node000021" class="node">
<title>Node21</title>
<g id="a_Node000021"><a xlink:title=" ">
<polygon fill="#e0e0e0" stroke="#999999" points="792.62,-74.5 736.88,-74.5 736.88,-55.25 792.62,-55.25 792.62,-74.5"/>
<text text-anchor="middle" x="764.75" y="-61" font-family="Helvetica,sans-Serif" font-size="10.00">algorithm</text>
</a>
</g>
</g>
<!-- Node9&#45;&gt;Node21 -->
<g id="edge24_Node000009_Node000021" class="edge">
<title>Node9&#45;&gt;Node21</title>
<g id="a_edge24_Node000009_Node000021"><a xlink:title=" ">
<path fill="none" stroke="#63b8ff" d="M603.19,-111.15C635.75,-102.03 689.26,-87.03 725.7,-76.82"/>
<polygon fill="#63b8ff" stroke="#63b8ff" points="726.28,-80.29 734.96,-74.22 724.39,-73.55 726.28,-80.29"/>
</a>
</g>
</g>
<!-- Node22 -->
<g id="Node000022" class="node">
<title>Node22</title>
<g id="a_Node000022"><a xlink:title=" ">
<polygon fill="#e0e0e0" stroke="#999999" points="870.5,-74.5 811,-74.5 811,-55.25 870.5,-55.25 870.5,-74.5"/>
<text text-anchor="middle" x="840.75" y="-61" font-family="Helvetica,sans-Serif" font-size="10.00">sys/wait.h</text>
</a>
</g>
</g>
<!-- Node9&#45;&gt;Node22 -->
<g id="edge25_Node000009_Node000022" class="edge">
<title>Node9&#45;&gt;Node22</title>
<g id="a_edge25_Node000009_Node000022"><a xlink:title=" ">
<path fill="none" stroke="#63b8ff" d="M603.46,-113.71C644.56,-105.9 722.8,-90.86 799.27,-74.98"/>
<polygon fill="#63b8ff" stroke="#63b8ff" points="799.97,-78.41 809.05,-72.94 798.55,-71.55 799.97,-78.41"/>
</a>
</g>
</g>
<!-- Node23 -->
<g id="Node000023" class="node">
<title>Node23</title>
<g id="a_Node000023"><a xlink:title=" ">
<polygon fill="#e0e0e0" stroke="#999999" points="948.88,-74.5 888.62,-74.5 888.62,-55.25 948.88,-55.25 948.88,-74.5"/>
<text text-anchor="middle" x="918.75" y="-61" font-family="Helvetica,sans-Serif" font-size="10.00">sys/prctl.h</text>
</a>
</g>
</g>
<!-- Node9&#45;&gt;Node23 -->
<g id="edge26_Node000009_Node000023" class="edge">
<title>Node9&#45;&gt;Node23</title>
<g id="a_edge26_Node000009_Node000023"><a xlink:title=" ">
<path fill="none" stroke="#63b8ff" d="M603.46,-115.63C655.8,-109.1 770.49,-94.11 876.88,-74.92"/>
<polygon fill="#63b8ff" stroke="#63b8ff" points="877.44,-78.37 886.65,-73.14 876.18,-71.49 877.44,-78.37"/>
</a>
</g>
</g>
<!-- Node24&#45;&gt;Node3 -->
<g id="edge29_Node000024_Node000003" class="edge">
<title>Node24&#45;&gt;Node3</title>
<g id="a_edge29_Node000024_Node000003"><a xlink:title=" ">
<path fill="none" stroke="#63b8ff" d="M1277.05,-54.84C1266.97,-47.07 1252.21,-35.67 1240.19,-26.4"/>
<polygon fill="#63b8ff" stroke="#63b8ff" points="1242.54,-23.79 1232.48,-20.45 1238.26,-29.33 1242.54,-23.79"/>
</a>
</g>
</g>
<!-- Node24&#45;&gt;Node6 -->
<g id="edge31_Node000024_Node000006" class="edge">
<title>Node24&#45;&gt;Node6</title>
<g id="a_edge31_Node000024_Node000006"><a xlink:title=" ">
<path fill="none" stroke="#63b8ff" d="M1246.23,-59.3C1231.52,-57.83 1214.93,-56.32 1199.75,-55.25 817.27,-28.29 352.1,-14.85 223.87,-11.48"/>
<polygon fill="#63b8ff" stroke="#63b8ff" points="224.13,-7.99 214.04,-11.23 223.95,-14.99 224.13,-7.99"/>
</a>
</g>
</g>
<!-- Node25 -->
<g id="Node000025" class="node">
<title>Node25</title>
<g id="a_Node000025"><a xlink:title=" ">
<polygon fill="#e0e0e0" stroke="#999999" points="1312.38,-19.25 1261.12,-19.25 1261.12,0 1312.38,0 1312.38,-19.25"/>
<text text-anchor="middle" x="1286.75" y="-5.75" font-family="Helvetica,sans-Serif" font-size="10.00">ostream</text>
</a>
</g>
</g>
<!-- Node24&#45;&gt;Node25 -->
<g id="edge28_Node000024_Node000025" class="edge">
<title>Node24&#45;&gt;Node25</title>
<g id="a_edge28_Node000024_Node000025"><a xlink:title=" ">
<path fill="none" stroke="#63b8ff" d="M1288.42,-55.08C1288.17,-48.49 1287.82,-39.21 1287.51,-30.82"/>
<polygon fill="#63b8ff" stroke="#63b8ff" points="1291.02,-30.98 1287.14,-21.12 1284.02,-31.25 1291.02,-30.98"/>
</a>
</g>
</g>
<!-- Node26 -->
<g id="Node000026" class="node">
<title>Node26</title>
<g id="a_Node000026"><a xlink:title=" ">
<polygon fill="#e0e0e0" stroke="#999999" points="1373.25,-19.25 1330.25,-19.25 1330.25,0 1373.25,0 1373.25,-19.25"/>
<text text-anchor="middle" x="1351.75" y="-5.75" font-family="Helvetica,sans-Serif" font-size="10.00">vector</text>
</a>
</g>
</g>
<!-- Node24&#45;&gt;Node26 -->
<g id="edge30_Node000024_Node000026" class="edge">
<title>Node24&#45;&gt;Node26</title>
<g id="a_edge30_Node000024_Node000026"><a xlink:title=" ">
<path fill="none" stroke="#63b8ff" d="M1299.44,-54.84C1308.45,-47.22 1321.58,-36.12 1332.43,-26.95"/>
<polygon fill="#63b8ff" stroke="#63b8ff" points="1334.69,-29.63 1340.06,-20.5 1330.17,-24.28 1334.69,-29.63"/>
</a>
</g>
</g>
<!-- Node27&#45;&gt;Node3 -->
<g id="edge33_Node000027_Node000003" class="edge">
<title>Node27&#45;&gt;Node3</title>
<g id="a_edge33_Node000027_Node000003"><a xlink:title=" ">
<path fill="none" stroke="#63b8ff" d="M1497.15,-111.4C1465.97,-103.59 1417.89,-90.4 1377.75,-74.5 1360.15,-67.53 1357.09,-62.84 1339.75,-55.25 1310.04,-42.25 1275.22,-29.57 1250.76,-21.07"/>
<polygon fill="#63b8ff" stroke="#63b8ff" points="1252.01,-17.8 1241.42,-17.86 1249.73,-24.42 1252.01,-17.8"/>
</a>
</g>
</g>
<!-- Node27&#45;&gt;Node24 -->
<g id="edge41_Node000027_Node000024" class="edge">
<title>Node27&#45;&gt;Node24</title>
<g id="a_edge41_Node000027_Node000024"><a xlink:title=" ">
<path fill="none" stroke="#63b8ff" d="M1497,-111.89C1456.84,-103.02 1388.3,-87.87 1340.88,-77.39"/>
<polygon fill="#63b8ff" stroke="#63b8ff" points="1341.9,-74.03 1331.38,-75.29 1340.39,-80.87 1341.9,-74.03"/>
</a>
</g>
</g>
<!-- Node28 -->
<g id="Node000028" class="node">
<title>Node28</title>
<g id="a_Node000028"><a xlink:title=" ">
<polygon fill="#e0e0e0" stroke="#999999" points="1894.25,-74.5 1851.25,-74.5 1851.25,-55.25 1894.25,-55.25 1894.25,-74.5"/>
<text text-anchor="middle" x="1872.75" y="-61" font-family="Helvetica,sans-Serif" font-size="10.00">cmath</text>
</a>
</g>
</g>
<!-- Node27&#45;&gt;Node28 -->
<g id="edge34_Node000027_Node000028" class="edge">
<title>Node27&#45;&gt;Node28</title>
<g id="a_edge34_Node000027_Node000028"><a xlink:title=" ">
<path fill="none" stroke="#63b8ff" d="M1562.45,-115.97C1617.74,-110.31 1733.32,-97.09 1839.63,-74.93"/>
<polygon fill="#63b8ff" stroke="#63b8ff" points="1840.35,-78.35 1849.4,-72.85 1838.89,-71.51 1840.35,-78.35"/>
</a>
</g>
</g>
<!-- Node29 -->
<g id="Node000029" class="node">
<title>Node29</title>
<g id="a_Node000029"><a xlink:title=" ">
<polygon fill="#e0e0e0" stroke="#999999" points="1425,-74.5 1386.5,-74.5 1386.5,-55.25 1425,-55.25 1425,-74.5"/>
<text text-anchor="middle" x="1405.75" y="-61" font-family="Helvetica,sans-Serif" font-size="10.00">utility</text>
</a>
</g>
</g>
<!-- Node27&#45;&gt;Node29 -->
<g id="edge35_Node000027_Node000029" class="edge">
<title>Node27&#45;&gt;Node29</title>
<g id="a_edge35_Node000027_Node000029"><a xlink:title=" ">
<path fill="none" stroke="#63b8ff" d="M1508.72,-110.09C1488.64,-101.47 1458.21,-88.4 1435.63,-78.7"/>
<polygon fill="#63b8ff" stroke="#63b8ff" points="1437.21,-75.58 1426.64,-74.85 1434.45,-82.01 1437.21,-75.58"/>
</a>
</g>
</g>
<!-- Node30 -->
<g id="Node000030" class="node">
<title>Node30</title>
<g id="a_Node000030"><a xlink:title=" ">
<polygon fill="#e0e0e0" stroke="#999999" points="1526.12,-74.5 1443.38,-74.5 1443.38,-55.25 1526.12,-55.25 1526.12,-74.5"/>
<text text-anchor="middle" x="1484.75" y="-61" font-family="Helvetica,sans-Serif" font-size="10.00">unordered_map</text>
</a>
</g>
</g>
<!-- Node27&#45;&gt;Node30 -->
<g id="edge36_Node000027_Node000030" class="edge">
<title>Node27&#45;&gt;Node30</title>
<g id="a_edge36_Node000027_Node000030"><a xlink:title=" ">
<path fill="none" stroke="#63b8ff" d="M1522.32,-110.33C1516.17,-103.05 1507.24,-92.48 1499.62,-83.48"/>
<polygon fill="#63b8ff" stroke="#63b8ff" points="1502.45,-81.39 1493.32,-76.02 1497.1,-85.91 1502.45,-81.39"/>
</a>
</g>
</g>
<!-- Node31 -->
<g id="Node000031" class="node">
<title>Node31</title>
<g id="a_Node000031"><a xlink:title=" ">
<polygon fill="#e0e0e0" stroke="#999999" points="1605.25,-74.5 1544.25,-74.5 1544.25,-55.25 1605.25,-55.25 1605.25,-74.5"/>
<text text-anchor="middle" x="1574.75" y="-61" font-family="Helvetica,sans-Serif" font-size="10.00">TNamed.h</text>
</a>
</g>
</g>
<!-- Node27&#45;&gt;Node31 -->
<g id="edge37_Node000027_Node000031" class="edge">
<title>Node27&#45;&gt;Node31</title>
<g id="a_edge37_Node000027_Node000031"><a xlink:title=" ">
<path fill="none" stroke="#63b8ff" d="M1537.18,-110.33C1543.33,-103.05 1552.26,-92.48 1559.88,-83.48"/>
<polygon fill="#63b8ff" stroke="#63b8ff" points="1562.4,-85.91 1566.18,-76.02 1557.05,-81.39 1562.4,-85.91"/>
</a>
</g>
</g>
<!-- Node32 -->
<g id="Node000032" class="node">
<title>Node32</title>
<g id="a_Node000032"><a xlink:title=" ">
<polygon fill="#e0e0e0" stroke="#999999" points="1672.25,-74.5 1623.25,-74.5 1623.25,-55.25 1672.25,-55.25 1672.25,-74.5"/>
<text text-anchor="middle" x="1647.75" y="-61" font-family="Helvetica,sans-Serif" font-size="10.00">TTree.h</text>
</a>
</g>
</g>
<!-- Node27&#45;&gt;Node32 -->
<g id="edge38_Node000027_Node000032" class="edge">
<title>Node27&#45;&gt;Node32</title>
<g id="a_edge38_Node000027_Node000032"><a xlink:title=" ">
<path fill="none" stroke="#63b8ff" d="M1549.77,-110.09C1568.24,-101.75 1595.96,-89.25 1617.2,-79.66"/>
<polygon fill="#63b8ff" stroke="#63b8ff" points="1618.58,-82.88 1626.26,-75.58 1615.7,-76.5 1618.58,-82.88"/>
</a>
</g>
</g>
<!-- Node33 -->
<g id="Node000033" class="node">
<title>Node33</title>
<g id="a_Node000033"><a xlink:title=" ">
<polygon fill="#e0e0e0" stroke="#999999" points="1745.62,-74.5 1689.88,-74.5 1689.88,-55.25 1745.62,-55.25 1745.62,-74.5"/>
<text text-anchor="middle" x="1717.75" y="-61" font-family="Helvetica,sans-Serif" font-size="10.00">TGraph.h</text>
</a>
</g>
</g>
<!-- Node27&#45;&gt;Node33 -->
<g id="edge39_Node000027_Node000033" class="edge">
<title>Node27&#45;&gt;Node33</title>
<g id="a_edge39_Node000027_Node000033"><a xlink:title=" ">
<path fill="none" stroke="#63b8ff" d="M1561.64,-110.09C1593.97,-100.93 1644.04,-86.75 1678.72,-76.93"/>
<polygon fill="#63b8ff" stroke="#63b8ff" points="1679.27,-80.41 1687.94,-74.32 1677.37,-73.68 1679.27,-80.41"/>
</a>
</g>
</g>
<!-- Node34 -->
<g id="Node000034" class="node">
<title>Node34</title>
<g id="a_Node000034"><a xlink:title=" ">
<polygon fill="#e0e0e0" stroke="#999999" points="1833.38,-74.5 1764.12,-74.5 1764.12,-55.25 1833.38,-55.25 1833.38,-74.5"/>
<text text-anchor="middle" x="1798.75" y="-61" font-family="Helvetica,sans-Serif" font-size="10.00">TClassRef.h</text>
</a>
</g>
</g>
<!-- Node27&#45;&gt;Node34 -->
<g id="edge40_Node000027_Node000034" class="edge">
<title>Node27&#45;&gt;Node34</title>
<g id="a_edge40_Node000027_Node000034"><a xlink:title=" ">
<path fill="none" stroke="#63b8ff" d="M1562.47,-112.65C1610.05,-103.23 1698.56,-85.71 1752.7,-74.99"/>
<polygon fill="#63b8ff" stroke="#63b8ff" points="1753.1,-78.48 1762.23,-73.11 1751.74,-71.61 1753.1,-78.48"/>
</a>
</g>
</g>
</g>
</svg>
