<?xml version="1.0" encoding="UTF-8" standalone="no"?>
<!DOCTYPE svg PUBLIC "-//W3C//DTD SVG 1.1//EN"
 "http://www.w3.org/Graphics/SVG/1.1/DTD/svg11.dtd">
<!-- Generated by graphviz version 9.0.0 (20230911.1827)
 -->
<!-- Title: TMnemonic.h Pages: 1 -->
<!--zoomable 193 -->

<svg id="main" version="1.1" xmlns="http://www.w3.org/2000/svg" xmlns:xlink="http://www.w3.org/1999/xlink" xml:space="preserve" onload="init(evt)">
<style type="text/css"><![CDATA[
.node, .edge {opacity: 0.7;}
.node.selected, .edge.selected {opacity: 1;}
.edge:hover path { stroke: red; }
.edge:hover polygon { stroke: red; fill: red; }
]]></style>

<defs>
  <circle id="rim" cx="0" cy="0" r="7"/>
  <circle id="rim2" cx="0" cy="0" r="3.5"/>
  <g id="zoomPlus">
    <use xlink:href="#rim" fill="#404040"><set attributeName="fill" to="#808080" begin="zoomplus.mouseover" end="zoomplus.mouseout"/></use>
    <path d="M-4,0h8M0,-4v8" fill="none" stroke="white" stroke-width="1.5" pointer-events="none"/>
  </g>
  <g id="zoomMin">
    <use xlink:href="#rim" fill="#404040"><set attributeName="fill" to="#808080" begin="zoomminus.mouseover" end="zoomminus.mouseout"/></use>
    <path d="M-4,0h8" fill="none" stroke="white" stroke-width="1.5" pointer-events="none"/>
  </g>
  <g id="arrowUp" transform="translate(30 24)">
    <use xlink:href="#rim"/>
    <path pointer-events="none" fill="none" stroke="white" stroke-width="1.5" d="M0,-3.0v7 M-2.5,-0.5L0,-3.0L2.5,-0.5"/>
  </g>
  <g id="arrowRight" transform="rotate(90) translate(36 -43)">
    <use xlink:href="#rim"/>
    <path pointer-events="none" fill="none" stroke="white" stroke-width="1.5" d="M0,-3.0v7 M-2.5,-0.5L0,-3.0L2.5,-0.5"/>
  </g>
  <g id="arrowDown" transform="rotate(180) translate(-30 -48)">
    <use xlink:href="#rim"/>
    <path pointer-events="none" fill="none" stroke="white" stroke-width="1.5" d="M0,-3.0v7 M-2.5,-0.5L0,-3.0L2.5,-0.5"/>
  </g>
  <g id="arrowLeft" transform="rotate(270) translate(-36 17)">
    <use xlink:href="#rim"/>
    <path pointer-events="none" fill="none" stroke="white" stroke-width="1.5" d="M0,-3.0v7 M-2.5,-0.5L0,-3.0L2.5,-0.5"/>
  </g>
  <g id="resetDef">
    <use xlink:href="#rim2" fill="#404040"><set attributeName="fill" to="#808080" begin="reset.mouseover" end="reset.mouseout"/></use>
  </g>
</defs>
<script type="application/ecmascript">
var viewWidth = 1524;
var viewHeight = 193;
var sectionId = 'dynsection-0';
</script>
<script type="application/ecmascript" xlink:href="svg.min.js"/>
<svg id="graph" class="graph">
<g id="viewport">
<title>TMnemonic.h</title>
<!-- Node1 -->
<g id="Node000001" class="node">
<title>Node1</title>
<g id="a_Node000001"><a xlink:title=" ">
<polygon fill="#999999" stroke="#666666" points="916.88,-185 842.38,-185 842.38,-165.75 916.88,-165.75 916.88,-185"/>
<text text-anchor="middle" x="879.62" y="-171.5" font-family="Helvetica,sans-Serif" font-size="10.00">TMnemonic.h</text>
</a>
</g>
</g>
<!-- Node2 -->
<g id="Node000002" class="node">
<title>Node2</title>
<g id="a_Node000002"><a xlink:title=" ">
<polygon fill="#e0e0e0" stroke="#999999" points="1255.62,-19.25 1215.62,-19.25 1215.62,0 1255.62,0 1255.62,-19.25"/>
<text text-anchor="middle" x="1235.62" y="-5.75" font-family="Helvetica,sans-Serif" font-size="10.00">string</text>
</a>
</g>
</g>
<!-- Node1&#45;&gt;Node2 -->
<g id="edge1_Node000001_Node000002" class="edge">
<title>Node1&#45;&gt;Node2</title>
<g id="a_edge1_Node000001_Node000002"><a xlink:title=" ">
<path fill="none" stroke="#63b8ff" d="M917.16,-172.68C1022.12,-167.06 1314.79,-145.23 1372.62,-74.5 1403.63,-36.59 1316.63,-20.01 1267.2,-13.8"/>
<polygon fill="#63b8ff" stroke="#63b8ff" points="1267.66,-10.33 1257.32,-12.65 1266.85,-17.29 1267.66,-10.33"/>
</a>
</g>
</g>
<!-- Node3 -->
<g id="Node000003" class="node">
<title>Node3</title>
<g id="a_Node000003"><a xlink:title=" ">
<polygon fill="#e0e0e0" stroke="#999999" points="1011.38,-19.25 957.88,-19.25 957.88,0 1011.38,0 1011.38,-19.25"/>
<text text-anchor="middle" x="984.62" y="-5.75" font-family="Helvetica,sans-Serif" font-size="10.00">iostream</text>
</a>
</g>
</g>
<!-- Node1&#45;&gt;Node3 -->
<g id="edge2_Node000001_Node000003" class="edge">
<title>Node1&#45;&gt;Node3</title>
<g id="a_edge2_Node000001_Node000003"><a xlink:title=" ">
<path fill="none" stroke="#63b8ff" d="M842.08,-170.63C756.13,-160.7 557.41,-129.21 623.62,-55.25 669.97,-3.49 859.33,-29.21 946.26,-19.12"/>
<polygon fill="#63b8ff" stroke="#63b8ff" points="946.68,-22.59 956.08,-17.7 945.68,-15.67 946.68,-22.59"/>
</a>
</g>
</g>
<!-- Node4 -->
<g id="Node000004" class="node">
<title>Node4</title>
<g id="a_Node000004"><a xlink:title=" ">
<polygon fill="#e0e0e0" stroke="#999999" points="51.25,-19.25 0,-19.25 0,0 51.25,0 51.25,-19.25"/>
<text text-anchor="middle" x="25.62" y="-5.75" font-family="Helvetica,sans-Serif" font-size="10.00">sstream</text>
</a>
</g>
</g>
<!-- Node1&#45;&gt;Node4 -->
<g id="edge3_Node000001_Node000004" class="edge">
<title>Node1&#45;&gt;Node4</title>
<g id="a_edge3_Node000001_Node000004"><a xlink:title=" ">
<path fill="none" stroke="#63b8ff" d="M841.9,-169.9C782.95,-162.71 665.48,-147.57 566.62,-129.75 375.92,-95.38 150.28,-41.32 62.83,-19.85"/>
<polygon fill="#63b8ff" stroke="#63b8ff" points="63.68,-16.46 53.13,-17.47 62,-23.26 63.68,-16.46"/>
</a>
</g>
</g>
<!-- Node5 -->
<g id="Node000005" class="node">
<title>Node5</title>
<g id="a_Node000005"><a xlink:title=" ">
<polygon fill="#e0e0e0" stroke="#999999" points="834.62,-129.75 776.62,-129.75 776.62,-110.5 834.62,-110.5 834.62,-129.75"/>
<text text-anchor="middle" x="805.62" y="-116.25" font-family="Helvetica,sans-Serif" font-size="10.00">TObject.h</text>
</a>
</g>
</g>
<!-- Node1&#45;&gt;Node5 -->
<g id="edge4_Node000001_Node000005" class="edge">
<title>Node1&#45;&gt;Node5</title>
<g id="a_edge4_Node000001_Node000005"><a xlink:title=" ">
<path fill="none" stroke="#63b8ff" d="M867.07,-165.34C856.16,-157.49 840.12,-145.95 827.16,-136.62"/>
<polygon fill="#63b8ff" stroke="#63b8ff" points="829.38,-133.91 819.22,-130.91 825.29,-139.59 829.38,-133.91"/>
</a>
</g>
</g>
<!-- Node6 -->
<g id="Node000006" class="node">
<title>Node6</title>
<g id="a_Node000006"><a xlink:title=" ">
<polygon fill="#e0e0e0" stroke="#999999" points="906.75,-129.75 852.5,-129.75 852.5,-110.5 906.75,-110.5 906.75,-129.75"/>
<text text-anchor="middle" x="879.62" y="-116.25" font-family="Helvetica,sans-Serif" font-size="10.00">TClass.h</text>
</a>
</g>
</g>
<!-- Node1&#45;&gt;Node6 -->
<g id="edge5_Node000001_Node000006" class="edge">
<title>Node1&#45;&gt;Node6</title>
<g id="a_edge5_Node000001_Node000006"><a xlink:title=" ">
<path fill="none" stroke="#63b8ff" d="M879.62,-165.58C879.62,-159.07 879.62,-149.92 879.62,-141.62"/>
<polygon fill="#63b8ff" stroke="#63b8ff" points="883.13,-141.62 879.63,-131.62 876.13,-141.62 883.13,-141.62"/>
</a>
</g>
</g>
<!-- Node7 -->
<g id="Node000007" class="node">
<title>Node7</title>
<g id="a_Node000007"><a xlink:href="_globals_8h.html" target="_top" xlink:title=" ">
<polygon fill="white" stroke="#666666" points="576.88,-74.5 520.38,-74.5 520.38,-55.25 576.88,-55.25 576.88,-74.5"/>
<text text-anchor="middle" x="548.62" y="-61" font-family="Helvetica,sans-Serif" font-size="10.00">Globals.h</text>
</a>
</g>
</g>
<!-- Node1&#45;&gt;Node7 -->
<g id="edge6_Node000001_Node000007" class="edge">
<title>Node1&#45;&gt;Node7</title>
<g id="a_edge6_Node000001_Node000007"><a xlink:title=" ">
<path fill="none" stroke="#63b8ff" d="M841.89,-172.33C773.32,-167.99 631.57,-156.06 590.62,-129.75 574.24,-119.22 562.84,-99.77 556.09,-85.09"/>
<polygon fill="#63b8ff" stroke="#63b8ff" points="559.37,-83.85 552.26,-75.99 552.91,-86.57 559.37,-83.85"/>
</a>
</g>
</g>
<!-- Node21 -->
<g id="Node000021" class="node">
<title>Node21</title>
<g id="a_Node000021"><a xlink:href="_t_priority_value_8h.html" target="_top" xlink:title=" ">
<polygon fill="white" stroke="#666666" points="1503.75,-74.5 1419.5,-74.5 1419.5,-55.25 1503.75,-55.25 1503.75,-74.5"/>
<text text-anchor="middle" x="1461.62" y="-61" font-family="Helvetica,sans-Serif" font-size="10.00">TPriorityValue.h</text>
</a>
</g>
</g>
<!-- Node1&#45;&gt;Node21 -->
<g id="edge23_Node000001_Node000021" class="edge">
<title>Node1&#45;&gt;Node21</title>
<g id="a_edge23_Node000001_Node000021"><a xlink:title=" ">
<path fill="none" stroke="#63b8ff" d="M917.28,-174.78C1022.94,-175.36 1320.04,-172.99 1405.62,-129.75 1425.33,-119.8 1441.13,-99.65 1450.86,-84.63"/>
<polygon fill="#63b8ff" stroke="#63b8ff" points="1453.84,-86.47 1456.06,-76.11 1447.86,-82.83 1453.84,-86.47"/>
</a>
</g>
</g>
<!-- Node24 -->
<g id="Node000024" class="node">
<title>Node24</title>
<g id="a_Node000024"><a xlink:href="_t_channel_8h.html" target="_top" xlink:title=" ">
<polygon fill="white" stroke="#666666" points="990,-129.75 925.25,-129.75 925.25,-110.5 990,-110.5 990,-129.75"/>
<text text-anchor="middle" x="957.62" y="-116.25" font-family="Helvetica,sans-Serif" font-size="10.00">TChannel.h</text>
</a>
</g>
</g>
<!-- Node1&#45;&gt;Node24 -->
<g id="edge27_Node000001_Node000024" class="edge">
<title>Node1&#45;&gt;Node24</title>
<g id="a_edge27_Node000001_Node000024"><a xlink:title=" ">
<path fill="none" stroke="#63b8ff" d="M887.64,-165.34C897.64,-157.39 914.53,-145.64 929.32,-136.25"/>
<polygon fill="#63b8ff" stroke="#63b8ff" points="931.15,-139.23 937.81,-131 927.47,-133.28 931.15,-139.23"/>
</a>
</g>
</g>
<!-- Node7&#45;&gt;Node2 -->
<g id="edge11_Node000007_Node000002" class="edge">
<title>Node7&#45;&gt;Node2</title>
<g id="a_edge11_Node000007_Node000002"><a xlink:title=" ">
<path fill="none" stroke="#63b8ff" d="M577.09,-60.32C591.09,-58.64 608.23,-56.7 623.62,-55.25 845.45,-34.42 1113.28,-17.84 1203.91,-12.47"/>
<polygon fill="#63b8ff" stroke="#63b8ff" points="1203.97,-15.97 1213.75,-11.89 1203.56,-8.98 1203.97,-15.97"/>
</a>
</g>
</g>
<!-- Node7&#45;&gt;Node3 -->
<g id="edge8_Node000007_Node000003" class="edge">
<title>Node7&#45;&gt;Node3</title>
<g id="a_edge8_Node000007_Node000003"><a xlink:title=" ">
<path fill="none" stroke="#63b8ff" d="M577.02,-57.63C581.56,-56.76 586.21,-55.92 590.62,-55.25 745.16,-31.68 789,-45.29 946.54,-19.37"/>
<polygon fill="#63b8ff" stroke="#63b8ff" points="946.8,-22.87 956.09,-17.77 945.65,-15.97 946.8,-22.87"/>
</a>
</g>
</g>
<!-- Node7&#45;&gt;Node4 -->
<g id="edge16_Node000007_Node000004" class="edge">
<title>Node7&#45;&gt;Node4</title>
<g id="a_edge16_Node000007_Node000004"><a xlink:title=" ">
<path fill="none" stroke="#63b8ff" d="M520.1,-62.77C446.19,-59.58 242.27,-48.77 62.77,-19.34"/>
<polygon fill="#63b8ff" stroke="#63b8ff" points="63.46,-15.91 53.02,-17.72 62.31,-22.81 63.46,-15.91"/>
</a>
</g>
</g>
<!-- Node8 -->
<g id="Node000008" class="node">
<title>Node8</title>
<g id="a_Node000008"><a xlink:title=" ">
<polygon fill="#e0e0e0" stroke="#999999" points="335.25,-19.25 290,-19.25 290,0 335.25,0 335.25,-19.25"/>
<text text-anchor="middle" x="312.62" y="-5.75" font-family="Helvetica,sans-Serif" font-size="10.00">cstdint</text>
</a>
</g>
</g>
<!-- Node7&#45;&gt;Node8 -->
<g id="edge7_Node000007_Node000008" class="edge">
<title>Node7&#45;&gt;Node8</title>
<g id="a_edge7_Node000007_Node000008"><a xlink:title=" ">
<path fill="none" stroke="#63b8ff" d="M520.14,-58.09C482.63,-50.38 414.36,-36.02 346.54,-19.62"/>
<polygon fill="#63b8ff" stroke="#63b8ff" points="347.68,-16.3 337.13,-17.33 346.02,-23.1 347.68,-16.3"/>
</a>
</g>
</g>
<!-- Node9 -->
<g id="Node000009" class="node">
<title>Node9</title>
<g id="a_Node000009"><a xlink:title=" ">
<polygon fill="#e0e0e0" stroke="#999999" points="403.5,-19.25 353.75,-19.25 353.75,0 403.5,0 403.5,-19.25"/>
<text text-anchor="middle" x="378.62" y="-5.75" font-family="Helvetica,sans-Serif" font-size="10.00">iomanip</text>
</a>
</g>
</g>
<!-- Node7&#45;&gt;Node9 -->
<g id="edge9_Node000007_Node000009" class="edge">
<title>Node7&#45;&gt;Node9</title>
<g id="a_edge9_Node000007_Node000009"><a xlink:title=" ">
<path fill="none" stroke="#63b8ff" d="M520.17,-54.96C491.21,-45.89 446.23,-31.8 414.77,-21.95"/>
<polygon fill="#63b8ff" stroke="#63b8ff" points="415.87,-18.63 405.28,-18.98 413.78,-25.31 415.87,-18.63"/>
</a>
</g>
</g>
<!-- Node10 -->
<g id="Node000010" class="node">
<title>Node10</title>
<g id="a_Node000010"><a xlink:title=" ">
<polygon fill="#e0e0e0" stroke="#999999" points="479.62,-19.25 421.62,-19.25 421.62,0 479.62,0 479.62,-19.25"/>
<text text-anchor="middle" x="450.62" y="-5.75" font-family="Helvetica,sans-Serif" font-size="10.00">stdexcept</text>
</a>
</g>
</g>
<!-- Node7&#45;&gt;Node10 -->
<g id="edge10_Node000007_Node000010" class="edge">
<title>Node7&#45;&gt;Node10</title>
<g id="a_edge10_Node000007_Node000010"><a xlink:title=" ">
<path fill="none" stroke="#63b8ff" d="M532,-54.84C516.94,-46.66 494.48,-34.46 476.97,-24.94"/>
<polygon fill="#63b8ff" stroke="#63b8ff" points="479.12,-22.12 468.66,-20.43 475.78,-28.27 479.12,-22.12"/>
</a>
</g>
</g>
<!-- Node11 -->
<g id="Node000011" class="node">
<title>Node11</title>
<g id="a_Node000011"><a xlink:title=" ">
<polygon fill="#e0e0e0" stroke="#999999" points="539.75,-19.25 497.5,-19.25 497.5,0 539.75,0 539.75,-19.25"/>
<text text-anchor="middle" x="518.62" y="-5.75" font-family="Helvetica,sans-Serif" font-size="10.00">cstdio</text>
</a>
</g>
</g>
<!-- Node7&#45;&gt;Node11 -->
<g id="edge12_Node000007_Node000011" class="edge">
<title>Node7&#45;&gt;Node11</title>
<g id="a_edge12_Node000007_Node000011"><a xlink:title=" ">
<path fill="none" stroke="#63b8ff" d="M543.67,-55.08C539.74,-48.11 534.11,-38.12 529.19,-29.37"/>
<polygon fill="#63b8ff" stroke="#63b8ff" points="532.39,-27.92 524.43,-20.93 526.29,-31.36 532.39,-27.92"/>
</a>
</g>
</g>
<!-- Node12 -->
<g id="Node000012" class="node">
<title>Node12</title>
<g id="a_Node000012"><a xlink:title=" ">
<polygon fill="#e0e0e0" stroke="#999999" points="601.88,-19.25 557.38,-19.25 557.38,0 601.88,0 601.88,-19.25"/>
<text text-anchor="middle" x="579.62" y="-5.75" font-family="Helvetica,sans-Serif" font-size="10.00">cstdlib</text>
</a>
</g>
</g>
<!-- Node7&#45;&gt;Node12 -->
<g id="edge13_Node000007_Node000012" class="edge">
<title>Node7&#45;&gt;Node12</title>
<g id="a_edge13_Node000007_Node000012"><a xlink:title=" ">
<path fill="none" stroke="#63b8ff" d="M553.74,-55.08C557.8,-48.11 563.62,-38.12 568.71,-29.37"/>
<polygon fill="#63b8ff" stroke="#63b8ff" points="571.63,-31.32 573.63,-20.92 565.58,-27.8 571.63,-31.32"/>
</a>
</g>
</g>
<!-- Node13 -->
<g id="Node000013" class="node">
<title>Node13</title>
<g id="a_Node000013"><a xlink:title=" ">
<polygon fill="#e0e0e0" stroke="#999999" points="679.38,-19.25 619.88,-19.25 619.88,0 679.38,0 679.38,-19.25"/>
<text text-anchor="middle" x="649.62" y="-5.75" font-family="Helvetica,sans-Serif" font-size="10.00">execinfo.h</text>
</a>
</g>
</g>
<!-- Node7&#45;&gt;Node13 -->
<g id="edge14_Node000007_Node000013" class="edge">
<title>Node7&#45;&gt;Node13</title>
<g id="a_edge14_Node000007_Node000013"><a xlink:title=" ">
<path fill="none" stroke="#63b8ff" d="M565.76,-54.84C581.28,-46.66 604.43,-34.46 622.47,-24.94"/>
<polygon fill="#63b8ff" stroke="#63b8ff" points="623.86,-28.17 631.07,-20.41 620.59,-21.98 623.86,-28.17"/>
</a>
</g>
</g>
<!-- Node14 -->
<g id="Node000014" class="node">
<title>Node14</title>
<g id="a_Node000014"><a xlink:title=" ">
<polygon fill="#e0e0e0" stroke="#999999" points="747.88,-19.25 697.38,-19.25 697.38,0 747.88,0 747.88,-19.25"/>
<text text-anchor="middle" x="722.62" y="-5.75" font-family="Helvetica,sans-Serif" font-size="10.00">cxxabi.h</text>
</a>
</g>
</g>
<!-- Node7&#45;&gt;Node14 -->
<g id="edge15_Node000007_Node000014" class="edge">
<title>Node7&#45;&gt;Node14</title>
<g id="a_edge15_Node000007_Node000014"><a xlink:title=" ">
<path fill="none" stroke="#63b8ff" d="M577.36,-55.08C607.15,-45.97 653.8,-31.69 686.17,-21.78"/>
<polygon fill="#63b8ff" stroke="#63b8ff" points="686.99,-25.19 695.52,-18.92 684.94,-18.5 686.99,-25.19"/>
</a>
</g>
</g>
<!-- Node15 -->
<g id="Node000015" class="node">
<title>Node15</title>
<g id="a_Node000015"><a xlink:title=" ">
<polygon fill="#e0e0e0" stroke="#999999" points="803.12,-19.25 766.12,-19.25 766.12,0 803.12,0 803.12,-19.25"/>
<text text-anchor="middle" x="784.62" y="-5.75" font-family="Helvetica,sans-Serif" font-size="10.00">array</text>
</a>
</g>
</g>
<!-- Node7&#45;&gt;Node15 -->
<g id="edge17_Node000007_Node000015" class="edge">
<title>Node7&#45;&gt;Node15</title>
<g id="a_edge17_Node000007_Node000015"><a xlink:title=" ">
<path fill="none" stroke="#63b8ff" d="M577.08,-57.91C624.34,-48 716.92,-28.48 754.77,-19.43"/>
<polygon fill="#63b8ff" stroke="#63b8ff" points="755.39,-22.88 764.24,-17.06 753.69,-16.09 755.39,-22.88"/>
</a>
</g>
</g>
<!-- Node16 -->
<g id="Node000016" class="node">
<title>Node16</title>
<g id="a_Node000016"><a xlink:title=" ">
<polygon fill="#e0e0e0" stroke="#999999" points="871.88,-19.25 821.38,-19.25 821.38,0 871.88,0 871.88,-19.25"/>
<text text-anchor="middle" x="846.62" y="-5.75" font-family="Helvetica,sans-Serif" font-size="10.00">memory</text>
</a>
</g>
</g>
<!-- Node7&#45;&gt;Node16 -->
<g id="edge18_Node000007_Node000016" class="edge">
<title>Node7&#45;&gt;Node16</title>
<g id="a_edge18_Node000007_Node000016"><a xlink:title=" ">
<path fill="none" stroke="#63b8ff" d="M577.06,-57.87C581.59,-56.96 586.23,-56.06 590.62,-55.25 685.38,-37.85 712.79,-39.41 809.85,-19.68"/>
<polygon fill="#63b8ff" stroke="#63b8ff" points="810.49,-23.12 819.58,-17.67 809.08,-16.26 810.49,-23.12"/>
</a>
</g>
</g>
<!-- Node17 -->
<g id="Node000017" class="node">
<title>Node17</title>
<g id="a_Node000017"><a xlink:title=" ">
<polygon fill="#e0e0e0" stroke="#999999" points="939.5,-19.25 889.75,-19.25 889.75,0 939.5,0 939.5,-19.25"/>
<text text-anchor="middle" x="914.62" y="-5.75" font-family="Helvetica,sans-Serif" font-size="10.00">unistd.h</text>
</a>
</g>
</g>
<!-- Node7&#45;&gt;Node17 -->
<g id="edge19_Node000007_Node000017" class="edge">
<title>Node7&#45;&gt;Node17</title>
<g id="a_edge19_Node000007_Node000017"><a xlink:title=" ">
<path fill="none" stroke="#63b8ff" d="M577.04,-57.72C581.57,-56.83 586.22,-55.97 590.62,-55.25 715.28,-34.75 751.05,-42.79 878.48,-19.43"/>
<polygon fill="#63b8ff" stroke="#63b8ff" points="878.78,-22.94 887.96,-17.66 877.49,-16.05 878.78,-22.94"/>
</a>
</g>
</g>
<!-- Node18 -->
<g id="Node000018" class="node">
<title>Node18</title>
<g id="a_Node000018"><a xlink:title=" ">
<polygon fill="#e0e0e0" stroke="#999999" points="115.62,-19.25 69.62,-19.25 69.62,0 115.62,0 115.62,-19.25"/>
<text text-anchor="middle" x="92.62" y="-5.75" font-family="Helvetica,sans-Serif" font-size="10.00">TEnv.h</text>
</a>
</g>
</g>
<!-- Node7&#45;&gt;Node18 -->
<g id="edge20_Node000007_Node000018" class="edge">
<title>Node7&#45;&gt;Node18</title>
<g id="a_edge20_Node000007_Node000018"><a xlink:title=" ">
<path fill="none" stroke="#63b8ff" d="M520.12,-62.44C453.12,-58.73 280.33,-47.24 126.95,-19.4"/>
<polygon fill="#63b8ff" stroke="#63b8ff" points="127.9,-16.02 117.43,-17.64 126.63,-22.9 127.9,-16.02"/>
</a>
</g>
</g>
<!-- Node19 -->
<g id="Node000019" class="node">
<title>Node19</title>
<g id="a_Node000019"><a xlink:title=" ">
<polygon fill="#e0e0e0" stroke="#999999" points="193.38,-19.25 133.88,-19.25 133.88,0 193.38,0 193.38,-19.25"/>
<text text-anchor="middle" x="163.62" y="-5.75" font-family="Helvetica,sans-Serif" font-size="10.00">sys/wait.h</text>
</a>
</g>
</g>
<!-- Node7&#45;&gt;Node19 -->
<g id="edge21_Node000007_Node000019" class="edge">
<title>Node7&#45;&gt;Node19</title>
<g id="a_edge21_Node000007_Node000019"><a xlink:title=" ">
<path fill="none" stroke="#63b8ff" d="M520.24,-61.08C462.71,-55.24 328.06,-40.62 204.92,-19.51"/>
<polygon fill="#63b8ff" stroke="#63b8ff" points="205.75,-16.1 195.3,-17.84 204.55,-23 205.75,-16.1"/>
</a>
</g>
</g>
<!-- Node20 -->
<g id="Node000020" class="node">
<title>Node20</title>
<g id="a_Node000020"><a xlink:title=" ">
<polygon fill="#e0e0e0" stroke="#999999" points="271.75,-19.25 211.5,-19.25 211.5,0 271.75,0 271.75,-19.25"/>
<text text-anchor="middle" x="241.62" y="-5.75" font-family="Helvetica,sans-Serif" font-size="10.00">sys/prctl.h</text>
</a>
</g>
</g>
<!-- Node7&#45;&gt;Node20 -->
<g id="edge22_Node000007_Node000020" class="edge">
<title>Node7&#45;&gt;Node20</title>
<g id="a_edge22_Node000007_Node000020"><a xlink:title=" ">
<path fill="none" stroke="#63b8ff" d="M519.98,-59.61C472.78,-52.48 375.45,-37.31 283.06,-19.64"/>
<polygon fill="#63b8ff" stroke="#63b8ff" points="283.79,-16.21 273.31,-17.76 282.47,-23.09 283.79,-16.21"/>
</a>
</g>
</g>
<!-- Node21&#45;&gt;Node2 -->
<g id="edge25_Node000021_Node000002" class="edge">
<title>Node21&#45;&gt;Node2</title>
<g id="a_edge25_Node000021_Node000002"><a xlink:title=" ">
<path fill="none" stroke="#63b8ff" d="M1423.03,-54.78C1379.08,-44.43 1308.11,-27.7 1267.28,-18.08"/>
<polygon fill="#63b8ff" stroke="#63b8ff" points="1268.13,-14.69 1257.6,-15.8 1266.53,-21.5 1268.13,-14.69"/>
</a>
</g>
</g>
<!-- Node22 -->
<g id="Node000022" class="node">
<title>Node22</title>
<g id="a_Node000022"><a xlink:title=" ">
<polygon fill="#e0e0e0" stroke="#999999" points="1455.25,-19.25 1404,-19.25 1404,0 1455.25,0 1455.25,-19.25"/>
<text text-anchor="middle" x="1429.62" y="-5.75" font-family="Helvetica,sans-Serif" font-size="10.00">ostream</text>
</a>
</g>
</g>
<!-- Node21&#45;&gt;Node22 -->
<g id="edge24_Node000021_Node000022" class="edge">
<title>Node21&#45;&gt;Node22</title>
<g id="a_edge24_Node000021_Node000022"><a xlink:title=" ">
<path fill="none" stroke="#63b8ff" d="M1456.34,-55.08C1452.15,-48.11 1446.15,-38.12 1440.89,-29.37"/>
<polygon fill="#63b8ff" stroke="#63b8ff" points="1443.95,-27.68 1435.8,-20.91 1437.95,-31.28 1443.95,-27.68"/>
</a>
</g>
</g>
<!-- Node23 -->
<g id="Node000023" class="node">
<title>Node23</title>
<g id="a_Node000023"><a xlink:title=" ">
<polygon fill="#e0e0e0" stroke="#999999" points="1516.12,-19.25 1473.12,-19.25 1473.12,0 1516.12,0 1516.12,-19.25"/>
<text text-anchor="middle" x="1494.62" y="-5.75" font-family="Helvetica,sans-Serif" font-size="10.00">vector</text>
</a>
</g>
</g>
<!-- Node21&#45;&gt;Node23 -->
<g id="edge26_Node000021_Node000023" class="edge">
<title>Node21&#45;&gt;Node23</title>
<g id="a_edge26_Node000021_Node000023"><a xlink:title=" ">
<path fill="none" stroke="#63b8ff" d="M1467.07,-55.08C1471.4,-48.11 1477.59,-38.12 1483.01,-29.37"/>
<polygon fill="#63b8ff" stroke="#63b8ff" points="1485.97,-31.24 1488.26,-20.9 1480.02,-27.55 1485.97,-31.24"/>
</a>
</g>
</g>
<!-- Node24&#45;&gt;Node1 -->
<g id="edge38_Node000024_Node000001" class="edge">
<title>Node24&#45;&gt;Node1</title>
<g id="a_edge38_Node000024_Node000001"><a xlink:title=" ">
<path fill="none" stroke="#63b8ff" d="M949.78,-130.02C939.7,-138.06 922.46,-150.05 907.49,-159.54"/>
<polygon fill="#63b8ff" stroke="#63b8ff" points="906.04,-156.32 899.36,-164.55 909.71,-162.28 906.04,-156.32"/>
</a>
</g>
</g>
<!-- Node24&#45;&gt;Node2 -->
<g id="edge29_Node000024_Node000002" class="edge">
<title>Node24&#45;&gt;Node2</title>
<g id="a_edge29_Node000024_Node000002"><a xlink:title=" ">
<path fill="none" stroke="#63b8ff" d="M924.9,-112.02C881.16,-102.21 808.23,-84.56 800.62,-74.5 795.47,-67.67 794.89,-61.6 800.62,-55.25 827.58,-25.39 1108.1,-14.38 1203.83,-11.48"/>
<polygon fill="#63b8ff" stroke="#63b8ff" points="1203.9,-14.98 1213.8,-11.19 1203.7,-7.98 1203.9,-14.98"/>
</a>
</g>
</g>
<!-- Node24&#45;&gt;Node3 -->
<g id="edge28_Node000024_Node000003" class="edge">
<title>Node24&#45;&gt;Node3</title>
<g id="a_edge28_Node000024_Node000003"><a xlink:title=" ">
<path fill="none" stroke="#63b8ff" d="M924.88,-112.02C870.95,-100.23 769.11,-77.63 766.62,-74.5 761.31,-67.8 761.19,-61.86 766.62,-55.25 816.77,5.79 863.94,-33.25 946.47,-19.38"/>
<polygon fill="#63b8ff" stroke="#63b8ff" points="946.89,-22.86 956.04,-17.53 945.56,-15.99 946.89,-22.86"/>
</a>
</g>
</g>
<!-- Node24&#45;&gt;Node7 -->
<g id="edge40_Node000024_Node000007" class="edge">
<title>Node24&#45;&gt;Node7</title>
<g id="a_edge40_Node000024_Node000007"><a xlink:title=" ">
<path fill="none" stroke="#63b8ff" d="M925.11,-112.18C921.91,-111.57 918.71,-111 915.62,-110.5 883.91,-105.32 677.16,-80.93 588.69,-70.56"/>
<polygon fill="#63b8ff" stroke="#63b8ff" points="589.11,-67.08 578.77,-69.4 588.3,-74.04 589.11,-67.08"/>
</a>
</g>
</g>
<!-- Node24&#45;&gt;Node21 -->
<g id="edge41_Node000024_Node000021" class="edge">
<title>Node24&#45;&gt;Node21</title>
<g id="a_edge41_Node000024_Node000021"><a xlink:title=" ">
<path fill="none" stroke="#63b8ff" d="M990.31,-115.67C1075.25,-106.7 1303.61,-82.57 1408.11,-71.53"/>
<polygon fill="#63b8ff" stroke="#63b8ff" points="1408.24,-75.03 1417.82,-70.5 1407.5,-68.07 1408.24,-75.03"/>
</a>
</g>
</g>
<!-- Node25 -->
<g id="Node000025" class="node">
<title>Node25</title>
<g id="a_Node000025"><a xlink:title=" ">
<polygon fill="#e0e0e0" stroke="#999999" points="1307.12,-74.5 1264.12,-74.5 1264.12,-55.25 1307.12,-55.25 1307.12,-74.5"/>
<text text-anchor="middle" x="1285.62" y="-61" font-family="Helvetica,sans-Serif" font-size="10.00">cmath</text>
</a>
</g>
</g>
<!-- Node24&#45;&gt;Node25 -->
<g id="edge30_Node000024_Node000025" class="edge">
<title>Node24&#45;&gt;Node25</title>
<g id="a_edge30_Node000024_Node000025"><a xlink:title=" ">
<path fill="none" stroke="#63b8ff" d="M990.07,-115.68C1043.15,-109.74 1152.03,-96.29 1252.78,-74.89"/>
<polygon fill="#63b8ff" stroke="#63b8ff" points="1253.24,-78.37 1262.28,-72.84 1251.76,-71.53 1253.24,-78.37"/>
</a>
</g>
</g>
<!-- Node26 -->
<g id="Node000026" class="node">
<title>Node26</title>
<g id="a_Node000026"><a xlink:title=" ">
<polygon fill="#e0e0e0" stroke="#999999" points="1363.88,-74.5 1325.38,-74.5 1325.38,-55.25 1363.88,-55.25 1363.88,-74.5"/>
<text text-anchor="middle" x="1344.62" y="-61" font-family="Helvetica,sans-Serif" font-size="10.00">utility</text>
</a>
</g>
</g>
<!-- Node24&#45;&gt;Node26 -->
<g id="edge31_Node000024_Node000026" class="edge">
<title>Node24&#45;&gt;Node26</title>
<g id="a_edge31_Node000024_Node000026"><a xlink:title=" ">
<path fill="none" stroke="#63b8ff" d="M990.12,-117C1051.64,-112.57 1189.41,-100.7 1313.92,-74.74"/>
<polygon fill="#63b8ff" stroke="#63b8ff" points="1314.62,-78.17 1323.68,-72.66 1313.17,-71.32 1314.62,-78.17"/>
</a>
</g>
</g>
<!-- Node27 -->
<g id="Node000027" class="node">
<title>Node27</title>
<g id="a_Node000027"><a xlink:title=" ">
<polygon fill="#e0e0e0" stroke="#999999" points="715,-74.5 632.25,-74.5 632.25,-55.25 715,-55.25 715,-74.5"/>
<text text-anchor="middle" x="673.62" y="-61" font-family="Helvetica,sans-Serif" font-size="10.00">unordered_map</text>
</a>
</g>
</g>
<!-- Node24&#45;&gt;Node27 -->
<g id="edge32_Node000024_Node000027" class="edge">
<title>Node24&#45;&gt;Node27</title>
<g id="a_edge32_Node000024_Node000027"><a xlink:title=" ">
<path fill="none" stroke="#63b8ff" d="M925.08,-112.37C921.89,-111.73 918.69,-111.1 915.62,-110.5 850.6,-97.83 775.56,-84.14 726.49,-75.31"/>
<polygon fill="#63b8ff" stroke="#63b8ff" points="727.16,-71.87 716.7,-73.55 725.92,-78.76 727.16,-71.87"/>
</a>
</g>
</g>
<!-- Node28 -->
<g id="Node000028" class="node">
<title>Node28</title>
<g id="a_Node000028"><a xlink:title=" ">
<polygon fill="#e0e0e0" stroke="#999999" points="870.12,-74.5 809.12,-74.5 809.12,-55.25 870.12,-55.25 870.12,-74.5"/>
<text text-anchor="middle" x="839.62" y="-61" font-family="Helvetica,sans-Serif" font-size="10.00">TNamed.h</text>
</a>
</g>
</g>
<!-- Node24&#45;&gt;Node28 -->
<g id="edge33_Node000024_Node000028" class="edge">
<title>Node24&#45;&gt;Node28</title>
<g id="a_edge33_Node000024_Node000028"><a xlink:title=" ">
<path fill="none" stroke="#63b8ff" d="M937.61,-110.09C919.13,-101.75 891.42,-89.25 870.18,-79.66"/>
<polygon fill="#63b8ff" stroke="#63b8ff" points="871.67,-76.5 861.12,-75.58 868.8,-82.88 871.67,-76.5"/>
</a>
</g>
</g>
<!-- Node29 -->
<g id="Node000029" class="node">
<title>Node29</title>
<g id="a_Node000029"><a xlink:title=" ">
<polygon fill="#e0e0e0" stroke="#999999" points="953.38,-74.5 887.88,-74.5 887.88,-55.25 953.38,-55.25 953.38,-74.5"/>
<text text-anchor="middle" x="920.62" y="-61" font-family="Helvetica,sans-Serif" font-size="10.00">TRandom.h</text>
</a>
</g>
</g>
<!-- Node24&#45;&gt;Node29 -->
<g id="edge34_Node000024_Node000029" class="edge">
<title>Node24&#45;&gt;Node29</title>
<g id="a_edge34_Node000024_Node000029"><a xlink:title=" ">
<path fill="none" stroke="#63b8ff" d="M951.52,-110.33C946.56,-103.21 939.42,-92.93 933.25,-84.05"/>
<polygon fill="#63b8ff" stroke="#63b8ff" points="936.31,-82.32 927.73,-76.1 930.56,-86.31 936.31,-82.32"/>
</a>
</g>
</g>
<!-- Node30 -->
<g id="Node000030" class="node">
<title>Node30</title>
<g id="a_Node000030"><a xlink:title=" ">
<polygon fill="#e0e0e0" stroke="#999999" points="1017.62,-74.5 971.62,-74.5 971.62,-55.25 1017.62,-55.25 1017.62,-74.5"/>
<text text-anchor="middle" x="994.62" y="-61" font-family="Helvetica,sans-Serif" font-size="10.00">TList.h</text>
</a>
</g>
</g>
<!-- Node24&#45;&gt;Node30 -->
<g id="edge35_Node000024_Node000030" class="edge">
<title>Node24&#45;&gt;Node30</title>
<g id="a_edge35_Node000024_Node000030"><a xlink:title=" ">
<path fill="none" stroke="#63b8ff" d="M963.73,-110.33C968.69,-103.21 975.83,-92.93 982,-84.05"/>
<polygon fill="#63b8ff" stroke="#63b8ff" points="984.69,-86.31 987.52,-76.1 978.94,-82.32 984.69,-86.31"/>
</a>
</g>
</g>
<!-- Node31 -->
<g id="Node000031" class="node">
<title>Node31</title>
<g id="a_Node000031"><a xlink:title=" ">
<polygon fill="#e0e0e0" stroke="#999999" points="1085.12,-74.5 1036.12,-74.5 1036.12,-55.25 1085.12,-55.25 1085.12,-74.5"/>
<text text-anchor="middle" x="1060.62" y="-61" font-family="Helvetica,sans-Serif" font-size="10.00">TTree.h</text>
</a>
</g>
</g>
<!-- Node24&#45;&gt;Node31 -->
<g id="edge36_Node000024_Node000031" class="edge">
<title>Node24&#45;&gt;Node31</title>
<g id="a_edge36_Node000024_Node000031"><a xlink:title=" ">
<path fill="none" stroke="#63b8ff" d="M975.1,-110.09C990.93,-101.91 1014.53,-89.71 1032.93,-80.19"/>
<polygon fill="#63b8ff" stroke="#63b8ff" points="1034.45,-83.35 1041.72,-75.65 1031.23,-77.13 1034.45,-83.35"/>
</a>
</g>
</g>
<!-- Node32 -->
<g id="Node000032" class="node">
<title>Node32</title>
<g id="a_Node000032"><a xlink:title=" ">
<polygon fill="#e0e0e0" stroke="#999999" points="1158.5,-74.5 1102.75,-74.5 1102.75,-55.25 1158.5,-55.25 1158.5,-74.5"/>
<text text-anchor="middle" x="1130.62" y="-61" font-family="Helvetica,sans-Serif" font-size="10.00">TGraph.h</text>
</a>
</g>
</g>
<!-- Node24&#45;&gt;Node32 -->
<g id="edge37_Node000024_Node000032" class="edge">
<title>Node24&#45;&gt;Node32</title>
<g id="a_edge37_Node000024_Node000032"><a xlink:title=" ">
<path fill="none" stroke="#63b8ff" d="M986.97,-110.09C1015.77,-101.23 1059.88,-87.65 1091.62,-77.88"/>
<polygon fill="#63b8ff" stroke="#63b8ff" points="1092.31,-81.33 1100.84,-75.04 1090.25,-74.64 1092.31,-81.33"/>
</a>
</g>
</g>
<!-- Node33 -->
<g id="Node000033" class="node">
<title>Node33</title>
<g id="a_Node000033"><a xlink:title=" ">
<polygon fill="#e0e0e0" stroke="#999999" points="1246.25,-74.5 1177,-74.5 1177,-55.25 1246.25,-55.25 1246.25,-74.5"/>
<text text-anchor="middle" x="1211.62" y="-61" font-family="Helvetica,sans-Serif" font-size="10.00">TClassRef.h</text>
</a>
</g>
</g>
<!-- Node24&#45;&gt;Node33 -->
<g id="edge39_Node000024_Node000033" class="edge">
<title>Node24&#45;&gt;Node33</title>
<g id="a_edge39_Node000024_Node000033"><a xlink:title=" ">
<path fill="none" stroke="#63b8ff" d="M990.31,-112.27C1034.91,-102.92 1115.04,-86.12 1165.67,-75.51"/>
<polygon fill="#63b8ff" stroke="#63b8ff" points="1166.07,-79 1175.14,-73.52 1164.64,-72.15 1166.07,-79"/>
</a>
</g>
</g>
</g>
</svg>

<g id="navigator" transform="translate(0 0)" fill="#404254">
  <rect fill="#f2f5e9" fill-opacity="0.5" stroke="#606060" stroke-width=".5" x="0" y="0" width="60" height="60"/>
  <use id="zoomplus" xlink:href="#zoomPlus" x="17" y="9" onmousedown="handleZoom(evt,'in')"/>
  <use id="zoomminus" xlink:href="#zoomMin" x="42" y="9" onmousedown="handleZoom(evt,'out')"/>
  <use id="reset" xlink:href="#resetDef" x="30" y="36" onmousedown="handleReset()"/>
   <use id="arrowup" xlink:href="#arrowUp" x="0" y="0" onmousedown="handlePan(0,-1)"/>
  <use id="arrowright" xlink:href="#arrowRight" x="0" y="0" onmousedown="handlePan(1,0)"/>
  <use id="arrowdown" xlink:href="#arrowDown" x="0" y="0" onmousedown="handlePan(0,1)"/>
  <use id="arrowleft" xlink:href="#arrowLeft" x="0" y="0" onmousedown="handlePan(-1,0)"/>
</g>
<svg viewBox="0 0 15 15" width="100%" height="30px" preserveAspectRatio="xMaxYMin meet">
 <g id="arrow_out" transform="scale(0.3 0.3)">
  <a xlink:href="_t_mnemonic_8h__incl_org.svg" target="_base">
   <rect id="button" ry="5" rx="5" y="6" x="6" height="38" width="38"
        fill="#f2f5e9" fill-opacity="0.5" stroke="#606060" stroke-width="1.0"/>
   <path id="arrow"
     d="M 11.500037,31.436501 C 11.940474,20.09759 22.043105,11.32322 32.158766,21.979434 L 37.068811,17.246167 C 37.068811,17.246167 37.088388,32 37.088388,32 L 22.160133,31.978069 C 22.160133,31.978069 26.997745,27.140456 26.997745,27.140456 C 18.528582,18.264221 13.291696,25.230495 11.500037,31.436501 z"
     style="fill:#404040;"/>
  </a>
 </g>
</svg>

<style type='text/css'>
<![CDATA[
[data-mouse-over-selected='false'] { opacity: 0.7; }
[data-mouse-over-selected='true']  { opacity: 1.0; }
]]>
</style>
<script type="application/ecmascript"><![CDATA[
document.addEventListener('DOMContentLoaded', (event) => {
  highlightEdges();
  highlightAdjacentNodes();
});
]]></script>
</svg>
