<?xml version="1.0" encoding="UTF-8" standalone="no"?>
<!DOCTYPE svg PUBLIC "-//W3C//DTD SVG 1.1//EN"
 "http://www.w3.org/Graphics/SVG/1.1/DTD/svg11.dtd">
<!-- Generated by graphviz version 12.2.0 (20241103.1931)
 -->
<!-- Title: TMultiPeak.h Pages: 1 -->
<!--zoomable 193 -->

<svg id="main" version="1.1" xmlns="http://www.w3.org/2000/svg" xmlns:xlink="http://www.w3.org/1999/xlink" xml:space="preserve" onload="init(evt)">

<style type="text/css"><![CDATA[
.node, .edge {opacity: 0.7;}
.node.selected, .edge.selected {opacity: 1;}
.edge:hover path { stroke: red; }
.edge:hover polygon { stroke: red; fill: red; }
]]></style>

<defs>
  <circle id="rim" cx="0" cy="0" r="7"/>
  <circle id="rim2" cx="0" cy="0" r="3.5"/>
  <g id="zoomPlus">
    <use xlink:href="#rim" fill="#404040"><set attributeName="fill" to="#808080" begin="zoomplus.mouseover" end="zoomplus.mouseout"/></use>
    <path d="M-4,0h8M0,-4v8" fill="none" stroke="white" stroke-width="1.5" pointer-events="none"/>
  </g>
  <g id="zoomMin">
    <use xlink:href="#rim" fill="#404040"><set attributeName="fill" to="#808080" begin="zoomminus.mouseover" end="zoomminus.mouseout"/></use>
    <path d="M-4,0h8" fill="none" stroke="white" stroke-width="1.5" pointer-events="none"/>
  </g>
  <g id="arrowUp" transform="translate(30 24)">
    <use xlink:href="#rim"/>
    <path pointer-events="none" fill="none" stroke="white" stroke-width="1.5" d="M0,-3.0v7 M-2.5,-0.5L0,-3.0L2.5,-0.5"/>
  </g>
  <g id="arrowRight" transform="rotate(90) translate(36 -43)">
    <use xlink:href="#rim"/>
    <path pointer-events="none" fill="none" stroke="white" stroke-width="1.5" d="M0,-3.0v7 M-2.5,-0.5L0,-3.0L2.5,-0.5"/>
  </g>
  <g id="arrowDown" transform="rotate(180) translate(-30 -48)">
    <use xlink:href="#rim"/>
    <path pointer-events="none" fill="none" stroke="white" stroke-width="1.5" d="M0,-3.0v7 M-2.5,-0.5L0,-3.0L2.5,-0.5"/>
  </g>
  <g id="arrowLeft" transform="rotate(270) translate(-36 17)">
    <use xlink:href="#rim"/>
    <path pointer-events="none" fill="none" stroke="white" stroke-width="1.5" d="M0,-3.0v7 M-2.5,-0.5L0,-3.0L2.5,-0.5"/>
  </g>
  <g id="resetDef">
    <use xlink:href="#rim2" fill="#404040"><set attributeName="fill" to="#808080" begin="reset.mouseover" end="reset.mouseout"/></use>
  </g>
</defs>
<script type="application/ecmascript">
var viewWidth = 607;
var viewHeight = 193;
var sectionId = 'dynsection-0';
</script>
<script type="application/ecmascript" xlink:href="svg.min.js"/>
<svg id="graph" class="graph">
<g id="viewport">
<title>TMultiPeak.h</title>
<!-- Node1 -->
<g id="Node000001" class="node">
<title>Node1</title>
<g id="a_Node000001"><a xlink:title=" ">
<polygon fill="#999999" stroke="#666666" points="202,-185 129,-185 129,-165.75 202,-165.75 202,-185"/>
<text text-anchor="middle" x="165.5" y="-171.5" font-family="Helvetica,sans-Serif" font-size="10.00">TMultiPeak.h</text>
</a>
</g>
</g>
<!-- Node2 -->
<g id="Node000002" class="node">
<title>Node2</title>
<g id="a_Node000002"><a xlink:title=" ">
<polygon fill="#e0e0e0" stroke="#999999" points="43,-129.75 0,-129.75 0,-110.5 43,-110.5 43,-129.75"/>
<text text-anchor="middle" x="21.5" y="-116.25" font-family="Helvetica,sans-Serif" font-size="10.00">vector</text>
</a>
</g>
</g>
<!-- Node1&#45;&gt;Node2 -->
<g id="edge1_Node000001_Node000002" class="edge">
<title>Node1&#45;&gt;Node2</title>
<g id="a_edge1_Node000001_Node000002"><a xlink:title=" ">
<path fill="none" stroke="#63b8ff" d="M141.07,-165.34C117.06,-156.46 80.27,-142.86 53.84,-133.08"/>
<polygon fill="#63b8ff" stroke="#63b8ff" points="55.23,-129.87 44.64,-129.68 52.8,-136.43 55.23,-129.87"/>
</a>
</g>
</g>
<!-- Node3 -->
<g id="Node000003" class="node">
<title>Node3</title>
<g id="a_Node000003"><a xlink:title=" ">
<polygon fill="#e0e0e0" stroke="#999999" points="109.62,-129.75 61.38,-129.75 61.38,-110.5 109.62,-110.5 109.62,-129.75"/>
<text text-anchor="middle" x="85.5" y="-116.25" font-family="Helvetica,sans-Serif" font-size="10.00">cstdarg</text>
</a>
</g>
</g>
<!-- Node1&#45;&gt;Node3 -->
<g id="edge2_Node000001_Node000003" class="edge">
<title>Node1&#45;&gt;Node3</title>
<g id="a_edge2_Node000001_Node000003"><a xlink:title=" ">
<path fill="none" stroke="#63b8ff" d="M151.93,-165.34C140.09,-157.46 122.66,-145.86 108.63,-136.52"/>
<polygon fill="#63b8ff" stroke="#63b8ff" points="110.66,-133.67 100.4,-131.04 106.78,-139.5 110.66,-133.67"/>
</a>
</g>
</g>
<!-- Node4 -->
<g id="Node000004" class="node">
<title>Node4</title>
<g id="a_Node000004"><a xlink:title=" ">
<polygon fill="#e0e0e0" stroke="#999999" points="237.88,-19.25 197.12,-19.25 197.12,0 237.88,0 237.88,-19.25"/>
<text text-anchor="middle" x="217.5" y="-5.75" font-family="Helvetica,sans-Serif" font-size="10.00">TF1.h</text>
</a>
</g>
</g>
<!-- Node1&#45;&gt;Node4 -->
<g id="edge3_Node000001_Node000004" class="edge">
<title>Node1&#45;&gt;Node4</title>
<g id="a_edge3_Node000001_Node000004"><a xlink:title=" ">
<path fill="none" stroke="#63b8ff" d="M161.82,-165.39C153.94,-144.66 137.63,-92.43 156.5,-55.25 163.04,-42.36 175.25,-32.3 187.03,-25.02"/>
<polygon fill="#63b8ff" stroke="#63b8ff" points="188.4,-28.27 195.38,-20.31 184.95,-22.18 188.4,-28.27"/>
</a>
</g>
</g>
<!-- Node5 -->
<g id="Node000005" class="node">
<title>Node5</title>
<g id="a_Node000005"><a xlink:title=" ">
<polygon fill="#e0e0e0" stroke="#999999" points="221.38,-74.5 165.62,-74.5 165.62,-55.25 221.38,-55.25 221.38,-74.5"/>
<text text-anchor="middle" x="193.5" y="-61" font-family="Helvetica,sans-Serif" font-size="10.00">TGraph.h</text>
</a>
</g>
</g>
<!-- Node1&#45;&gt;Node5 -->
<g id="edge4_Node000001_Node000005" class="edge">
<title>Node1&#45;&gt;Node5</title>
<g id="a_edge4_Node000001_Node000005"><a xlink:title=" ">
<path fill="none" stroke="#63b8ff" d="M167.79,-165.5C172.26,-148.17 182.25,-109.48 188.37,-85.74"/>
<polygon fill="#63b8ff" stroke="#63b8ff" points="191.69,-86.9 190.8,-76.34 184.91,-85.15 191.69,-86.9"/>
</a>
</g>
</g>
<!-- Node6 -->
<g id="Node000006" class="node">
<title>Node6</title>
<g id="a_Node000006"><a xlink:href="_t_g_r_s_i_fit_8h.html" target="_top" xlink:title=" ">
<polygon fill="white" stroke="#666666" points="428.88,-74.5 364.12,-74.5 364.12,-55.25 428.88,-55.25 428.88,-74.5"/>
<text text-anchor="middle" x="396.5" y="-61" font-family="Helvetica,sans-Serif" font-size="10.00">TGRSIFit.h</text>
</a>
</g>
</g>
<!-- Node1&#45;&gt;Node6 -->
<g id="edge5_Node000001_Node000006" class="edge">
<title>Node1&#45;&gt;Node6</title>
<g id="a_edge5_Node000001_Node000006"><a xlink:title=" ">
<path fill="none" stroke="#63b8ff" d="M193.43,-165.32C217.88,-157.05 254.14,-143.99 284.5,-129.75 315.99,-114.98 350.52,-94.61 372.79,-80.87"/>
<polygon fill="#63b8ff" stroke="#63b8ff" points="374.47,-83.95 381.11,-75.7 370.77,-78.01 374.47,-83.95"/>
</a>
</g>
</g>
<!-- Node12 -->
<g id="Node000012" class="node">
<title>Node12</title>
<g id="a_Node000012"><a xlink:href="_t_peak_8h.html" target="_top" xlink:title=" ">
<polygon fill="white" stroke="#666666" points="275.5,-129.75 223.5,-129.75 223.5,-110.5 275.5,-110.5 275.5,-129.75"/>
<text text-anchor="middle" x="249.5" y="-116.25" font-family="Helvetica,sans-Serif" font-size="10.00">TPeak.h</text>
</a>
</g>
</g>
<!-- Node1&#45;&gt;Node12 -->
<g id="edge12_Node000001_Node000012" class="edge">
<title>Node1&#45;&gt;Node12</title>
<g id="a_edge12_Node000001_Node000012"><a xlink:title=" ">
<path fill="none" stroke="#63b8ff" d="M179.75,-165.34C192.3,-157.39 210.83,-145.64 225.64,-136.25"/>
<polygon fill="#63b8ff" stroke="#63b8ff" points="227.33,-139.32 233.9,-131.01 223.58,-133.41 227.33,-139.32"/>
</a>
</g>
</g>
<!-- Node6&#45;&gt;Node4 -->
<g id="edge8_Node000006_Node000004" class="edge">
<title>Node6&#45;&gt;Node4</title>
<g id="a_edge8_Node000006_Node000004"><a xlink:title=" ">
<path fill="none" stroke="#63b8ff" d="M366.14,-54.84C333.57,-45.15 282.09,-29.84 249.07,-20.02"/>
<polygon fill="#63b8ff" stroke="#63b8ff" points="250.25,-16.72 239.67,-17.22 248.26,-23.43 250.25,-16.72"/>
</a>
</g>
</g>
<!-- Node7 -->
<g id="Node000007" class="node">
<title>Node7</title>
<g id="a_Node000007"><a xlink:title=" ">
<polygon fill="#e0e0e0" stroke="#999999" points="313.5,-19.25 255.5,-19.25 255.5,0 313.5,0 313.5,-19.25"/>
<text text-anchor="middle" x="284.5" y="-5.75" font-family="Helvetica,sans-Serif" font-size="10.00">TObject.h</text>
</a>
</g>
</g>
<!-- Node6&#45;&gt;Node7 -->
<g id="edge6_Node000006_Node000007" class="edge">
<title>Node6&#45;&gt;Node7</title>
<g id="a_edge6_Node000006_Node000007"><a xlink:title=" ">
<path fill="none" stroke="#63b8ff" d="M377.5,-54.84C360.04,-46.54 333.9,-34.11 313.78,-24.54"/>
<polygon fill="#63b8ff" stroke="#63b8ff" points="315.49,-21.49 304.96,-20.35 312.49,-27.81 315.49,-21.49"/>
</a>
</g>
</g>
<!-- Node8 -->
<g id="Node000008" class="node">
<title>Node8</title>
<g id="a_Node000008"><a xlink:title=" ">
<polygon fill="#e0e0e0" stroke="#999999" points="373.62,-19.25 331.38,-19.25 331.38,0 373.62,0 373.62,-19.25"/>
<text text-anchor="middle" x="352.5" y="-5.75" font-family="Helvetica,sans-Serif" font-size="10.00">TH1.h</text>
</a>
</g>
</g>
<!-- Node6&#45;&gt;Node8 -->
<g id="edge7_Node000006_Node000008" class="edge">
<title>Node6&#45;&gt;Node8</title>
<g id="a_edge7_Node000006_Node000008"><a xlink:title=" ">
<path fill="none" stroke="#63b8ff" d="M389.23,-55.08C383.22,-47.8 374.49,-37.23 367.04,-28.23"/>
<polygon fill="#63b8ff" stroke="#63b8ff" points="369.96,-26.26 360.89,-20.78 364.56,-30.71 369.96,-26.26"/>
</a>
</g>
</g>
<!-- Node9 -->
<g id="Node000009" class="node">
<title>Node9</title>
<g id="a_Node000009"><a xlink:title=" ">
<polygon fill="#e0e0e0" stroke="#999999" points="463.25,-19.25 391.75,-19.25 391.75,0 463.25,0 463.25,-19.25"/>
<text text-anchor="middle" x="427.5" y="-5.75" font-family="Helvetica,sans-Serif" font-size="10.00">TSpectrum.h</text>
</a>
</g>
</g>
<!-- Node6&#45;&gt;Node9 -->
<g id="edge9_Node000006_Node000009" class="edge">
<title>Node6&#45;&gt;Node9</title>
<g id="a_edge9_Node000006_Node000009"><a xlink:title=" ">
<path fill="none" stroke="#63b8ff" d="M401.62,-55.08C405.68,-48.11 411.49,-38.12 416.59,-29.37"/>
<polygon fill="#63b8ff" stroke="#63b8ff" points="419.5,-31.32 421.51,-20.92 413.45,-27.8 419.5,-31.32"/>
</a>
</g>
</g>
<!-- Node10 -->
<g id="Node000010" class="node">
<title>Node10</title>
<g id="a_Node000010"><a xlink:title=" ">
<polygon fill="#e0e0e0" stroke="#999999" points="525.75,-19.25 481.25,-19.25 481.25,0 525.75,0 525.75,-19.25"/>
<text text-anchor="middle" x="503.5" y="-5.75" font-family="Helvetica,sans-Serif" font-size="10.00">TRef.h</text>
</a>
</g>
</g>
<!-- Node6&#45;&gt;Node10 -->
<g id="edge10_Node000006_Node000010" class="edge">
<title>Node6&#45;&gt;Node10</title>
<g id="a_edge10_Node000006_Node000010"><a xlink:title=" ">
<path fill="none" stroke="#63b8ff" d="M414.65,-54.84C431.18,-46.62 455.84,-34.34 475,-24.81"/>
<polygon fill="#63b8ff" stroke="#63b8ff" points="476.51,-27.97 483.9,-20.38 473.39,-21.7 476.51,-27.97"/>
</a>
</g>
</g>
<!-- Node11 -->
<g id="Node000011" class="node">
<title>Node11</title>
<g id="a_Node000011"><a xlink:title=" ">
<polygon fill="#e0e0e0" stroke="#999999" points="599,-19.25 544,-19.25 544,0 599,0 599,-19.25"/>
<text text-anchor="middle" x="571.5" y="-5.75" font-family="Helvetica,sans-Serif" font-size="10.00">TString.h</text>
</a>
</g>
</g>
<!-- Node6&#45;&gt;Node11 -->
<g id="edge11_Node000006_Node000011" class="edge">
<title>Node6&#45;&gt;Node11</title>
<g id="a_edge11_Node000006_Node000011"><a xlink:title=" ">
<path fill="none" stroke="#63b8ff" d="M426.19,-54.84C455.58,-45.9 500.74,-32.16 532.9,-22.37"/>
<polygon fill="#63b8ff" stroke="#63b8ff" points="533.7,-25.79 542.25,-19.53 531.66,-19.09 533.7,-25.79"/>
</a>
</g>
</g>
<!-- Node12&#45;&gt;Node4 -->
<g id="edge13_Node000012_Node000004" class="edge">
<title>Node12&#45;&gt;Node4</title>
<g id="a_edge13_Node000012_Node000004"><a xlink:title=" ">
<path fill="none" stroke="#63b8ff" d="M246.88,-110.25C241.77,-92.92 230.36,-54.23 223.36,-30.49"/>
<polygon fill="#63b8ff" stroke="#63b8ff" points="226.77,-29.68 220.58,-21.08 220.05,-31.66 226.77,-29.68"/>
</a>
</g>
</g>
<!-- Node12&#45;&gt;Node5 -->
<g id="edge15_Node000012_Node000005" class="edge">
<title>Node12&#45;&gt;Node5</title>
<g id="a_edge15_Node000012_Node000005"><a xlink:title=" ">
<path fill="none" stroke="#63b8ff" d="M240,-110.09C232.07,-102.55 220.55,-91.6 210.96,-82.48"/>
<polygon fill="#63b8ff" stroke="#63b8ff" points="213.61,-80.17 203.96,-75.82 208.79,-85.24 213.61,-80.17"/>
</a>
</g>
</g>
<!-- Node12&#45;&gt;Node6 -->
<g id="edge16_Node000012_Node000006" class="edge">
<title>Node12&#45;&gt;Node6</title>
<g id="a_edge16_Node000012_Node000006"><a xlink:title=" ">
<path fill="none" stroke="#63b8ff" d="M274.44,-110.09C298.19,-101.49 334.21,-88.44 360.96,-78.75"/>
<polygon fill="#63b8ff" stroke="#63b8ff" points="361.81,-82.16 370.02,-75.47 359.42,-75.58 361.81,-82.16"/>
</a>
</g>
</g>
<!-- Node13 -->
<g id="Node000013" class="node">
<title>Node13</title>
<g id="a_Node000013"><a xlink:title=" ">
<polygon fill="#e0e0e0" stroke="#999999" points="345.75,-74.5 277.25,-74.5 277.25,-55.25 345.75,-55.25 345.75,-74.5"/>
<text text-anchor="middle" x="311.5" y="-61" font-family="Helvetica,sans-Serif" font-size="10.00">TFitResult.h</text>
</a>
</g>
</g>
<!-- Node12&#45;&gt;Node13 -->
<g id="edge14_Node000012_Node000013" class="edge">
<title>Node12&#45;&gt;Node13</title>
<g id="a_edge14_Node000012_Node000013"><a xlink:title=" ">
<path fill="none" stroke="#63b8ff" d="M260.02,-110.09C268.89,-102.47 281.81,-91.37 292.49,-82.2"/>
<polygon fill="#63b8ff" stroke="#63b8ff" points="294.68,-84.93 299.99,-75.76 290.12,-79.62 294.68,-84.93"/>
</a>
</g>
</g>
</g>
</svg>

<g id="navigator" transform="translate(0 0)" fill="#404254">
  <rect fill="#f2f5e9" fill-opacity="0.5" stroke="#606060" stroke-width=".5" x="0" y="0" width="60" height="60"/>
  <use id="zoomplus" xlink:href="#zoomPlus" x="17" y="9" onmousedown="handleZoom(evt,'in')"/>
  <use id="zoomminus" xlink:href="#zoomMin" x="42" y="9" onmousedown="handleZoom(evt,'out')"/>
  <use id="reset" xlink:href="#resetDef" x="30" y="36" onmousedown="handleReset()"/>
   <use id="arrowup" xlink:href="#arrowUp" x="0" y="0" onmousedown="handlePan(0,-1)"/>
  <use id="arrowright" xlink:href="#arrowRight" x="0" y="0" onmousedown="handlePan(1,0)"/>
  <use id="arrowdown" xlink:href="#arrowDown" x="0" y="0" onmousedown="handlePan(0,1)"/>
  <use id="arrowleft" xlink:href="#arrowLeft" x="0" y="0" onmousedown="handlePan(-1,0)"/>
</g>
<svg viewBox="0 0 15 15" width="100%" height="30px" preserveAspectRatio="xMaxYMin meet">
 <g id="arrow_out" transform="scale(0.3 0.3)">
  <a xlink:href="_t_multi_peak_8h__incl_org.svg" target="_base">
   <rect id="button" ry="5" rx="5" y="6" x="6" height="38" width="38"
        fill="#f2f5e9" fill-opacity="0.5" stroke="#606060" stroke-width="1.0"/>
   <path id="arrow"
     d="M 11.500037,31.436501 C 11.940474,20.09759 22.043105,11.32322 32.158766,21.979434 L 37.068811,17.246167 C 37.068811,17.246167 37.088388,32 37.088388,32 L 22.160133,31.978069 C 22.160133,31.978069 26.997745,27.140456 26.997745,27.140456 C 18.528582,18.264221 13.291696,25.230495 11.500037,31.436501 z"
     style="fill:#404040;"/>
  </a>
 </g>
</svg>

<style type='text/css'>
<![CDATA[
[data-mouse-over-selected='false'] { opacity: 0.7; }
[data-mouse-over-selected='true']  { opacity: 1.0; }
]]>
</style>
<script type="application/ecmascript"><![CDATA[
document.addEventListener('DOMContentLoaded', (event) => {
  highlightEdges();
  highlightAdjacentNodes();
});
]]></script>
</svg>
