<?xml version="1.0" encoding="UTF-8" standalone="no"?>
<!DOCTYPE svg PUBLIC "-//W3C//DTD SVG 1.1//EN"
 "http://www.w3.org/Graphics/SVG/1.1/DTD/svg11.dtd">
<!-- Generated by graphviz version 9.0.0 (20230911.1827)
 -->
<!-- Title: TPPG.h Pages: 1 -->
<!--zoomable 193 -->

<svg id="main" version="1.1" xmlns="http://www.w3.org/2000/svg" xmlns:xlink="http://www.w3.org/1999/xlink" xml:space="preserve" onload="init(evt)">
<style type="text/css"><![CDATA[
.node, .edge {opacity: 0.7;}
.node.selected, .edge.selected {opacity: 1;}
.edge:hover path { stroke: red; }
.edge:hover polygon { stroke: red; fill: red; }
]]></style>

<defs>
  <circle id="rim" cx="0" cy="0" r="7"/>
  <circle id="rim2" cx="0" cy="0" r="3.5"/>
  <g id="zoomPlus">
    <use xlink:href="#rim" fill="#404040"><set attributeName="fill" to="#808080" begin="zoomplus.mouseover" end="zoomplus.mouseout"/></use>
    <path d="M-4,0h8M0,-4v8" fill="none" stroke="white" stroke-width="1.5" pointer-events="none"/>
  </g>
  <g id="zoomMin">
    <use xlink:href="#rim" fill="#404040"><set attributeName="fill" to="#808080" begin="zoomminus.mouseover" end="zoomminus.mouseout"/></use>
    <path d="M-4,0h8" fill="none" stroke="white" stroke-width="1.5" pointer-events="none"/>
  </g>
  <g id="arrowUp" transform="translate(30 24)">
    <use xlink:href="#rim"/>
    <path pointer-events="none" fill="none" stroke="white" stroke-width="1.5" d="M0,-3.0v7 M-2.5,-0.5L0,-3.0L2.5,-0.5"/>
  </g>
  <g id="arrowRight" transform="rotate(90) translate(36 -43)">
    <use xlink:href="#rim"/>
    <path pointer-events="none" fill="none" stroke="white" stroke-width="1.5" d="M0,-3.0v7 M-2.5,-0.5L0,-3.0L2.5,-0.5"/>
  </g>
  <g id="arrowDown" transform="rotate(180) translate(-30 -48)">
    <use xlink:href="#rim"/>
    <path pointer-events="none" fill="none" stroke="white" stroke-width="1.5" d="M0,-3.0v7 M-2.5,-0.5L0,-3.0L2.5,-0.5"/>
  </g>
  <g id="arrowLeft" transform="rotate(270) translate(-36 17)">
    <use xlink:href="#rim"/>
    <path pointer-events="none" fill="none" stroke="white" stroke-width="1.5" d="M0,-3.0v7 M-2.5,-0.5L0,-3.0L2.5,-0.5"/>
  </g>
  <g id="resetDef">
    <use xlink:href="#rim2" fill="#404040"><set attributeName="fill" to="#808080" begin="reset.mouseover" end="reset.mouseout"/></use>
  </g>
</defs>
<script type="application/ecmascript">
var viewWidth = 1228;
var viewHeight = 193;
var sectionId = 'dynsection-0';
</script>
<script type="application/ecmascript" xlink:href="svg.min.js"/>
<svg id="graph" class="graph">
<g id="viewport">
<title>TPPG.h</title>
<!-- Node1 -->
<g id="Node000001" class="node">
<title>Node1</title>
<g id="a_Node000001"><a xlink:title=" ">
<polygon fill="#999999" stroke="#666666" points="260.75,-185 210.25,-185 210.25,-165.75 260.75,-165.75 260.75,-185"/>
<text text-anchor="middle" x="235.5" y="-171.5" font-family="Helvetica,sans-Serif" font-size="10.00">TPPG.h</text>
</a>
</g>
</g>
<!-- Node2 -->
<g id="Node000002" class="node">
<title>Node2</title>
<g id="a_Node000002"><a xlink:title=" ">
<polygon fill="#e0e0e0" stroke="#999999" points="55,-129.75 0,-129.75 0,-110.5 55,-110.5 55,-129.75"/>
<text text-anchor="middle" x="27.5" y="-116.25" font-family="Helvetica,sans-Serif" font-size="10.00">TBuffer.h</text>
</a>
</g>
</g>
<!-- Node1&#45;&gt;Node2 -->
<g id="edge1_Node000001_Node000002" class="edge">
<title>Node1&#45;&gt;Node2</title>
<g id="a_edge1_Node000001_Node000002"><a xlink:title=" ">
<path fill="none" stroke="#63b8ff" d="M210,-167.85C174.02,-158.64 108.1,-141.76 66.11,-131.01"/>
<polygon fill="#63b8ff" stroke="#63b8ff" points="67.22,-127.68 56.67,-128.59 65.49,-134.46 67.22,-127.68"/>
</a>
</g>
</g>
<!-- Node3 -->
<g id="Node000003" class="node">
<title>Node3</title>
<g id="a_Node000003"><a xlink:title=" ">
<polygon fill="#e0e0e0" stroke="#999999" points="107.88,-129.75 73.12,-129.75 73.12,-110.5 107.88,-110.5 107.88,-129.75"/>
<text text-anchor="middle" x="90.5" y="-116.25" font-family="Helvetica,sans-Serif" font-size="10.00">map</text>
</a>
</g>
</g>
<!-- Node1&#45;&gt;Node3 -->
<g id="edge2_Node000001_Node000003" class="edge">
<title>Node1&#45;&gt;Node3</title>
<g id="a_edge2_Node000001_Node000003"><a xlink:title=" ">
<path fill="none" stroke="#63b8ff" d="M210.9,-165.34C185.45,-155.99 145.74,-141.41 118.95,-131.57"/>
<polygon fill="#63b8ff" stroke="#63b8ff" points="120.36,-128.36 109.76,-128.2 117.94,-134.93 120.36,-128.36"/>
</a>
</g>
</g>
<!-- Node4 -->
<g id="Node000004" class="node">
<title>Node4</title>
<g id="a_Node000004"><a xlink:title=" ">
<polygon fill="#e0e0e0" stroke="#999999" points="164.75,-129.75 126.25,-129.75 126.25,-110.5 164.75,-110.5 164.75,-129.75"/>
<text text-anchor="middle" x="145.5" y="-116.25" font-family="Helvetica,sans-Serif" font-size="10.00">utility</text>
</a>
</g>
</g>
<!-- Node1&#45;&gt;Node4 -->
<g id="edge3_Node000001_Node000004" class="edge">
<title>Node1&#45;&gt;Node4</title>
<g id="a_edge3_Node000001_Node000004"><a xlink:title=" ">
<path fill="none" stroke="#63b8ff" d="M220.23,-165.34C206.66,-157.31 186.55,-145.41 170.6,-135.98"/>
<polygon fill="#63b8ff" stroke="#63b8ff" points="172.53,-133.05 162.14,-130.97 168.97,-139.08 172.53,-133.05"/>
</a>
</g>
</g>
<!-- Node5 -->
<g id="Node000005" class="node">
<title>Node5</title>
<g id="a_Node000005"><a xlink:title=" ">
<polygon fill="#e0e0e0" stroke="#999999" points="205.25,-19.25 151.75,-19.25 151.75,0 205.25,0 205.25,-19.25"/>
<text text-anchor="middle" x="178.5" y="-5.75" font-family="Helvetica,sans-Serif" font-size="10.00">iostream</text>
</a>
</g>
</g>
<!-- Node1&#45;&gt;Node5 -->
<g id="edge4_Node000001_Node000005" class="edge">
<title>Node1&#45;&gt;Node5</title>
<g id="a_edge4_Node000001_Node000005"><a xlink:title=" ">
<path fill="none" stroke="#63b8ff" d="M232.44,-165.57C223.54,-140.03 197.59,-65.45 185.21,-29.9"/>
<polygon fill="#63b8ff" stroke="#63b8ff" points="188.67,-29.2 182.08,-20.9 182.06,-31.5 188.67,-29.2"/>
</a>
</g>
</g>
<!-- Node6 -->
<g id="Node000006" class="node">
<title>Node6</title>
<g id="a_Node000006"><a xlink:title=" ">
<polygon fill="#e0e0e0" stroke="#999999" points="264.12,-74.5 218.88,-74.5 218.88,-55.25 264.12,-55.25 264.12,-74.5"/>
<text text-anchor="middle" x="241.5" y="-61" font-family="Helvetica,sans-Serif" font-size="10.00">TFile.h</text>
</a>
</g>
</g>
<!-- Node1&#45;&gt;Node6 -->
<g id="edge5_Node000001_Node000006" class="edge">
<title>Node1&#45;&gt;Node6</title>
<g id="a_edge5_Node000001_Node000006"><a xlink:title=" ">
<path fill="none" stroke="#63b8ff" d="M235.99,-165.5C236.94,-148.25 239.07,-109.83 240.38,-86.06"/>
<polygon fill="#63b8ff" stroke="#63b8ff" points="243.86,-86.57 240.92,-76.39 236.87,-86.18 243.86,-86.57"/>
</a>
</g>
</g>
<!-- Node7 -->
<g id="Node000007" class="node">
<title>Node7</title>
<g id="a_Node000007"><a xlink:title=" ">
<polygon fill="#e0e0e0" stroke="#999999" points="340.5,-74.5 282.5,-74.5 282.5,-55.25 340.5,-55.25 340.5,-74.5"/>
<text text-anchor="middle" x="311.5" y="-61" font-family="Helvetica,sans-Serif" font-size="10.00">TObject.h</text>
</a>
</g>
</g>
<!-- Node1&#45;&gt;Node7 -->
<g id="edge6_Node000001_Node000007" class="edge">
<title>Node1&#45;&gt;Node7</title>
<g id="a_edge6_Node000001_Node000007"><a xlink:title=" ">
<path fill="none" stroke="#63b8ff" d="M241.72,-165.5C254.13,-147.77 282.21,-107.69 298.71,-84.13"/>
<polygon fill="#63b8ff" stroke="#63b8ff" points="301.46,-86.31 304.33,-76.12 295.72,-82.3 301.46,-86.31"/>
</a>
</g>
</g>
<!-- Node8 -->
<g id="Node000008" class="node">
<title>Node8</title>
<g id="a_Node000008"><a xlink:title=" ">
<polygon fill="#e0e0e0" stroke="#999999" points="373.62,-129.75 301.38,-129.75 301.38,-110.5 373.62,-110.5 373.62,-129.75"/>
<text text-anchor="middle" x="337.5" y="-116.25" font-family="Helvetica,sans-Serif" font-size="10.00">TCollection.h</text>
</a>
</g>
</g>
<!-- Node1&#45;&gt;Node8 -->
<g id="edge7_Node000001_Node000008" class="edge">
<title>Node1&#45;&gt;Node8</title>
<g id="a_edge7_Node000001_Node000008"><a xlink:title=" ">
<path fill="none" stroke="#63b8ff" d="M252.8,-165.34C268.48,-157.16 291.85,-144.96 310.08,-135.44"/>
<polygon fill="#63b8ff" stroke="#63b8ff" points="311.53,-138.63 318.77,-130.9 308.29,-132.43 311.53,-138.63"/>
</a>
</g>
</g>
<!-- Node9 -->
<g id="Node000009" class="node">
<title>Node9</title>
<g id="a_Node000009"><a xlink:href="_globals_8h.html" target="_top" xlink:title=" ">
<polygon fill="white" stroke="#666666" points="672.75,-74.5 616.25,-74.5 616.25,-55.25 672.75,-55.25 672.75,-74.5"/>
<text text-anchor="middle" x="644.5" y="-61" font-family="Helvetica,sans-Serif" font-size="10.00">Globals.h</text>
</a>
</g>
</g>
<!-- Node1&#45;&gt;Node9 -->
<g id="edge8_Node000001_Node000009" class="edge">
<title>Node1&#45;&gt;Node9</title>
<g id="a_edge8_Node000001_Node000009"><a xlink:title=" ">
<path fill="none" stroke="#63b8ff" d="M261.19,-171.04C305.19,-165 397.56,-150.88 473.5,-129.75 523.64,-115.8 579.82,-93.46 613.66,-79.24"/>
<polygon fill="#63b8ff" stroke="#63b8ff" points="614.59,-82.64 622.43,-75.52 611.86,-76.2 614.59,-82.64"/>
</a>
</g>
</g>
<!-- Node25 -->
<g id="Node000025" class="node">
<title>Node25</title>
<g id="a_Node000025"><a xlink:href="_t_singleton_8h.html" target="_top" xlink:title=" ">
<polygon fill="white" stroke="#666666" points="464.5,-129.75 394.5,-129.75 394.5,-110.5 464.5,-110.5 464.5,-129.75"/>
<text text-anchor="middle" x="429.5" y="-116.25" font-family="Helvetica,sans-Serif" font-size="10.00">TSingleton.h</text>
</a>
</g>
</g>
<!-- Node1&#45;&gt;Node25 -->
<g id="edge25_Node000001_Node000025" class="edge">
<title>Node1&#45;&gt;Node25</title>
<g id="a_edge25_Node000001_Node000025"><a xlink:title=" ">
<path fill="none" stroke="#63b8ff" d="M260.86,-167.41C292.46,-158.74 346.97,-143.78 385.45,-133.22"/>
<polygon fill="#63b8ff" stroke="#63b8ff" points="386.16,-136.65 394.88,-130.63 384.31,-129.9 386.16,-136.65"/>
</a>
</g>
</g>
<!-- Node9&#45;&gt;Node5 -->
<g id="edge10_Node000009_Node000005" class="edge">
<title>Node9&#45;&gt;Node5</title>
<g id="a_edge10_Node000009_Node000005"><a xlink:title=" ">
<path fill="none" stroke="#63b8ff" d="M615.89,-57.7C611.1,-56.79 606.17,-55.93 601.5,-55.25 434.17,-30.75 386.9,-46.74 216.67,-19.36"/>
<polygon fill="#63b8ff" stroke="#63b8ff" points="217.47,-15.95 207.04,-17.79 216.34,-22.86 217.47,-15.95"/>
</a>
</g>
</g>
<!-- Node10 -->
<g id="Node000010" class="node">
<title>Node10</title>
<g id="a_Node000010"><a xlink:title=" ">
<polygon fill="#e0e0e0" stroke="#999999" points="1152.12,-19.25 1106.88,-19.25 1106.88,0 1152.12,0 1152.12,-19.25"/>
<text text-anchor="middle" x="1129.5" y="-5.75" font-family="Helvetica,sans-Serif" font-size="10.00">cstdint</text>
</a>
</g>
</g>
<!-- Node9&#45;&gt;Node10 -->
<g id="edge9_Node000009_Node000010" class="edge">
<title>Node9&#45;&gt;Node10</title>
<g id="a_edge9_Node000009_Node000010"><a xlink:title=" ">
<path fill="none" stroke="#63b8ff" d="M673.08,-62.7C743.4,-59.46 930.45,-48.74 1095.68,-19.27"/>
<polygon fill="#63b8ff" stroke="#63b8ff" points="1095.83,-22.8 1105.04,-17.57 1094.58,-15.91 1095.83,-22.8"/>
</a>
</g>
</g>
<!-- Node11 -->
<g id="Node000011" class="node">
<title>Node11</title>
<g id="a_Node000011"><a xlink:title=" ">
<polygon fill="#e0e0e0" stroke="#999999" points="1220.38,-19.25 1170.62,-19.25 1170.62,0 1220.38,0 1220.38,-19.25"/>
<text text-anchor="middle" x="1195.5" y="-5.75" font-family="Helvetica,sans-Serif" font-size="10.00">iomanip</text>
</a>
</g>
</g>
<!-- Node9&#45;&gt;Node11 -->
<g id="edge11_Node000009_Node000011" class="edge">
<title>Node9&#45;&gt;Node11</title>
<g id="a_edge11_Node000009_Node000011"><a xlink:title=" ">
<path fill="none" stroke="#63b8ff" d="M673.01,-63.04C749.96,-60.44 968.41,-50.79 1159.26,-19.35"/>
<polygon fill="#63b8ff" stroke="#63b8ff" points="1159.57,-22.84 1168.85,-17.74 1158.41,-15.94 1159.57,-22.84"/>
</a>
</g>
</g>
<!-- Node12 -->
<g id="Node000012" class="node">
<title>Node12</title>
<g id="a_Node000012"><a xlink:title=" ">
<polygon fill="#e0e0e0" stroke="#999999" points="281.5,-19.25 223.5,-19.25 223.5,0 281.5,0 281.5,-19.25"/>
<text text-anchor="middle" x="252.5" y="-5.75" font-family="Helvetica,sans-Serif" font-size="10.00">stdexcept</text>
</a>
</g>
</g>
<!-- Node9&#45;&gt;Node12 -->
<g id="edge12_Node000009_Node000012" class="edge">
<title>Node9&#45;&gt;Node12</title>
<g id="a_edge12_Node000009_Node000012"><a xlink:title=" ">
<path fill="none" stroke="#63b8ff" d="M615.88,-57.79C611.09,-56.87 606.16,-55.99 601.5,-55.25 467.68,-34.12 429.65,-42.22 293.2,-19.54"/>
<polygon fill="#63b8ff" stroke="#63b8ff" points="293.83,-16.1 283.39,-17.88 292.66,-23 293.83,-16.1"/>
</a>
</g>
</g>
<!-- Node13 -->
<g id="Node000013" class="node">
<title>Node13</title>
<g id="a_Node000013"><a xlink:title=" ">
<polygon fill="#e0e0e0" stroke="#999999" points="339.5,-19.25 299.5,-19.25 299.5,0 339.5,0 339.5,-19.25"/>
<text text-anchor="middle" x="319.5" y="-5.75" font-family="Helvetica,sans-Serif" font-size="10.00">string</text>
</a>
</g>
</g>
<!-- Node9&#45;&gt;Node13 -->
<g id="edge13_Node000009_Node000013" class="edge">
<title>Node9&#45;&gt;Node13</title>
<g id="a_edge13_Node000009_Node000013"><a xlink:title=" ">
<path fill="none" stroke="#63b8ff" d="M615.86,-57.9C611.07,-56.96 606.15,-56.05 601.5,-55.25 493.05,-36.67 461.42,-43.07 350.94,-19.5"/>
<polygon fill="#63b8ff" stroke="#63b8ff" points="351.99,-16.15 341.48,-17.45 350.51,-22.99 351.99,-16.15"/>
</a>
</g>
</g>
<!-- Node14 -->
<g id="Node000014" class="node">
<title>Node14</title>
<g id="a_Node000014"><a xlink:title=" ">
<polygon fill="#e0e0e0" stroke="#999999" points="399.62,-19.25 357.38,-19.25 357.38,0 399.62,0 399.62,-19.25"/>
<text text-anchor="middle" x="378.5" y="-5.75" font-family="Helvetica,sans-Serif" font-size="10.00">cstdio</text>
</a>
</g>
</g>
<!-- Node9&#45;&gt;Node14 -->
<g id="edge14_Node000009_Node000014" class="edge">
<title>Node9&#45;&gt;Node14</title>
<g id="a_edge14_Node000009_Node000014"><a xlink:title=" ">
<path fill="none" stroke="#63b8ff" d="M615.83,-58.07C611.05,-57.12 606.13,-56.15 601.5,-55.25 519.35,-39.35 495.36,-39.3 411.2,-19.72"/>
<polygon fill="#63b8ff" stroke="#63b8ff" points="412.07,-16.32 401.54,-17.44 410.47,-23.14 412.07,-16.32"/>
</a>
</g>
</g>
<!-- Node15 -->
<g id="Node000015" class="node">
<title>Node15</title>
<g id="a_Node000015"><a xlink:title=" ">
<polygon fill="#e0e0e0" stroke="#999999" points="461.75,-19.25 417.25,-19.25 417.25,0 461.75,0 461.75,-19.25"/>
<text text-anchor="middle" x="439.5" y="-5.75" font-family="Helvetica,sans-Serif" font-size="10.00">cstdlib</text>
</a>
</g>
</g>
<!-- Node9&#45;&gt;Node15 -->
<g id="edge15_Node000009_Node000015" class="edge">
<title>Node9&#45;&gt;Node15</title>
<g id="a_edge15_Node000009_Node000015"><a xlink:title=" ">
<path fill="none" stroke="#63b8ff" d="M615.82,-56.71C583.38,-48.56 528.71,-34.71 472.96,-19.87"/>
<polygon fill="#63b8ff" stroke="#63b8ff" points="474.2,-16.58 463.63,-17.38 472.39,-23.34 474.2,-16.58"/>
</a>
</g>
</g>
<!-- Node16 -->
<g id="Node000016" class="node">
<title>Node16</title>
<g id="a_Node000016"><a xlink:title=" ">
<polygon fill="#e0e0e0" stroke="#999999" points="539.25,-19.25 479.75,-19.25 479.75,0 539.25,0 539.25,-19.25"/>
<text text-anchor="middle" x="509.5" y="-5.75" font-family="Helvetica,sans-Serif" font-size="10.00">execinfo.h</text>
</a>
</g>
</g>
<!-- Node9&#45;&gt;Node16 -->
<g id="edge16_Node000009_Node000016" class="edge">
<title>Node9&#45;&gt;Node16</title>
<g id="a_edge16_Node000009_Node000016"><a xlink:title=" ">
<path fill="none" stroke="#63b8ff" d="M621.6,-54.84C600.07,-46.35 567.59,-33.54 543.12,-23.89"/>
<polygon fill="#63b8ff" stroke="#63b8ff" points="544.51,-20.67 533.92,-20.26 541.94,-27.18 544.51,-20.67"/>
</a>
</g>
</g>
<!-- Node17 -->
<g id="Node000017" class="node">
<title>Node17</title>
<g id="a_Node000017"><a xlink:title=" ">
<polygon fill="#e0e0e0" stroke="#999999" points="607.75,-19.25 557.25,-19.25 557.25,0 607.75,0 607.75,-19.25"/>
<text text-anchor="middle" x="582.5" y="-5.75" font-family="Helvetica,sans-Serif" font-size="10.00">cxxabi.h</text>
</a>
</g>
</g>
<!-- Node9&#45;&gt;Node17 -->
<g id="edge17_Node000009_Node000017" class="edge">
<title>Node9&#45;&gt;Node17</title>
<g id="a_edge17_Node000009_Node000017"><a xlink:title=" ">
<path fill="none" stroke="#63b8ff" d="M633.98,-54.84C625.11,-47.22 612.19,-36.12 601.51,-26.95"/>
<polygon fill="#63b8ff" stroke="#63b8ff" points="603.88,-24.37 594.01,-20.51 599.32,-29.68 603.88,-24.37"/>
</a>
</g>
</g>
<!-- Node18 -->
<g id="Node000018" class="node">
<title>Node18</title>
<g id="a_Node000018"><a xlink:title=" ">
<polygon fill="#e0e0e0" stroke="#999999" points="677.12,-19.25 625.88,-19.25 625.88,0 677.12,0 677.12,-19.25"/>
<text text-anchor="middle" x="651.5" y="-5.75" font-family="Helvetica,sans-Serif" font-size="10.00">sstream</text>
</a>
</g>
</g>
<!-- Node9&#45;&gt;Node18 -->
<g id="edge18_Node000009_Node000018" class="edge">
<title>Node9&#45;&gt;Node18</title>
<g id="a_edge18_Node000009_Node000018"><a xlink:title=" ">
<path fill="none" stroke="#63b8ff" d="M645.66,-55.08C646.52,-48.49 647.74,-39.21 648.84,-30.82"/>
<polygon fill="#63b8ff" stroke="#63b8ff" points="652.29,-31.48 650.12,-21.11 645.35,-30.57 652.29,-31.48"/>
</a>
</g>
</g>
<!-- Node19 -->
<g id="Node000019" class="node">
<title>Node19</title>
<g id="a_Node000019"><a xlink:title=" ">
<polygon fill="#e0e0e0" stroke="#999999" points="732,-19.25 695,-19.25 695,0 732,0 732,-19.25"/>
<text text-anchor="middle" x="713.5" y="-5.75" font-family="Helvetica,sans-Serif" font-size="10.00">array</text>
</a>
</g>
</g>
<!-- Node9&#45;&gt;Node19 -->
<g id="edge19_Node000009_Node000019" class="edge">
<title>Node9&#45;&gt;Node19</title>
<g id="a_edge19_Node000009_Node000019"><a xlink:title=" ">
<path fill="none" stroke="#63b8ff" d="M656.2,-54.84C666.28,-47.07 681.04,-35.67 693.06,-26.4"/>
<polygon fill="#63b8ff" stroke="#63b8ff" points="694.99,-29.33 700.77,-20.45 690.71,-23.79 694.99,-29.33"/>
</a>
</g>
</g>
<!-- Node20 -->
<g id="Node000020" class="node">
<title>Node20</title>
<g id="a_Node000020"><a xlink:title=" ">
<polygon fill="#e0e0e0" stroke="#999999" points="800.75,-19.25 750.25,-19.25 750.25,0 800.75,0 800.75,-19.25"/>
<text text-anchor="middle" x="775.5" y="-5.75" font-family="Helvetica,sans-Serif" font-size="10.00">memory</text>
</a>
</g>
</g>
<!-- Node9&#45;&gt;Node20 -->
<g id="edge20_Node000009_Node000020" class="edge">
<title>Node9&#45;&gt;Node20</title>
<g id="a_edge20_Node000009_Node000020"><a xlink:title=" ">
<path fill="none" stroke="#63b8ff" d="M666.72,-54.84C687.52,-46.39 718.85,-33.65 742.55,-24.02"/>
<polygon fill="#63b8ff" stroke="#63b8ff" points="743.82,-27.28 751.77,-20.27 741.18,-20.8 743.82,-27.28"/>
</a>
</g>
</g>
<!-- Node21 -->
<g id="Node000021" class="node">
<title>Node21</title>
<g id="a_Node000021"><a xlink:title=" ">
<polygon fill="#e0e0e0" stroke="#999999" points="868.38,-19.25 818.62,-19.25 818.62,0 868.38,0 868.38,-19.25"/>
<text text-anchor="middle" x="843.5" y="-5.75" font-family="Helvetica,sans-Serif" font-size="10.00">unistd.h</text>
</a>
</g>
</g>
<!-- Node9&#45;&gt;Node21 -->
<g id="edge21_Node000009_Node000021" class="edge">
<title>Node9&#45;&gt;Node21</title>
<g id="a_edge21_Node000009_Node000021"><a xlink:title=" ">
<path fill="none" stroke="#63b8ff" d="M673.01,-56.25C708.42,-46.77 768.86,-30.6 807.45,-20.27"/>
<polygon fill="#63b8ff" stroke="#63b8ff" points="807.97,-23.75 816.73,-17.79 806.17,-16.99 807.97,-23.75"/>
</a>
</g>
</g>
<!-- Node22 -->
<g id="Node000022" class="node">
<title>Node22</title>
<g id="a_Node000022"><a xlink:title=" ">
<polygon fill="#e0e0e0" stroke="#999999" points="932.5,-19.25 886.5,-19.25 886.5,0 932.5,0 932.5,-19.25"/>
<text text-anchor="middle" x="909.5" y="-5.75" font-family="Helvetica,sans-Serif" font-size="10.00">TEnv.h</text>
</a>
</g>
</g>
<!-- Node9&#45;&gt;Node22 -->
<g id="edge22_Node000009_Node000022" class="edge">
<title>Node9&#45;&gt;Node22</title>
<g id="a_edge22_Node000009_Node000022"><a xlink:title=" ">
<path fill="none" stroke="#63b8ff" d="M672.98,-59.12C715.05,-51.95 796.5,-37.49 875.07,-19.67"/>
<polygon fill="#63b8ff" stroke="#63b8ff" points="875.69,-23.12 884.66,-17.48 874.13,-16.3 875.69,-23.12"/>
</a>
</g>
</g>
<!-- Node23 -->
<g id="Node000023" class="node">
<title>Node23</title>
<g id="a_Node000023"><a xlink:title=" ">
<polygon fill="#e0e0e0" stroke="#999999" points="1010.25,-19.25 950.75,-19.25 950.75,0 1010.25,0 1010.25,-19.25"/>
<text text-anchor="middle" x="980.5" y="-5.75" font-family="Helvetica,sans-Serif" font-size="10.00">sys/wait.h</text>
</a>
</g>
</g>
<!-- Node9&#45;&gt;Node23 -->
<g id="edge23_Node000009_Node000023" class="edge">
<title>Node9&#45;&gt;Node23</title>
<g id="a_edge23_Node000009_Node000023"><a xlink:title=" ">
<path fill="none" stroke="#63b8ff" d="M672.86,-60.27C723.97,-53.64 835.14,-38.57 938.99,-19.6"/>
<polygon fill="#63b8ff" stroke="#63b8ff" points="939.62,-23.05 948.82,-17.79 938.35,-16.16 939.62,-23.05"/>
</a>
</g>
</g>
<!-- Node24 -->
<g id="Node000024" class="node">
<title>Node24</title>
<g id="a_Node000024"><a xlink:title=" ">
<polygon fill="#e0e0e0" stroke="#999999" points="1088.62,-19.25 1028.38,-19.25 1028.38,0 1088.62,0 1088.62,-19.25"/>
<text text-anchor="middle" x="1058.5" y="-5.75" font-family="Helvetica,sans-Serif" font-size="10.00">sys/prctl.h</text>
</a>
</g>
</g>
<!-- Node9&#45;&gt;Node24 -->
<g id="edge24_Node000009_Node000024" class="edge">
<title>Node9&#45;&gt;Node24</title>
<g id="a_edge24_Node000009_Node000024"><a xlink:title=" ">
<path fill="none" stroke="#63b8ff" d="M672.86,-61.47C733.9,-56.08 882.45,-41.88 1016.62,-19.59"/>
<polygon fill="#63b8ff" stroke="#63b8ff" points="1017.13,-23.06 1026.41,-17.94 1015.96,-16.15 1017.13,-23.06"/>
</a>
</g>
</g>
<!-- Node25&#45;&gt;Node5 -->
<g id="edge26_Node000025_Node000005" class="edge">
<title>Node25&#45;&gt;Node5</title>
<g id="a_edge26_Node000025_Node000005"><a xlink:title=" ">
<path fill="none" stroke="#63b8ff" d="M421.01,-110.29C407.27,-96.49 378.74,-69.9 349.5,-55.25 343.47,-52.23 264.99,-32.29 216.48,-20.11"/>
<polygon fill="#63b8ff" stroke="#63b8ff" points="217.46,-16.75 206.91,-17.71 215.75,-23.54 217.46,-16.75"/>
</a>
</g>
</g>
<!-- Node25&#45;&gt;Node6 -->
<g id="edge29_Node000025_Node000006" class="edge">
<title>Node25&#45;&gt;Node6</title>
<g id="a_edge29_Node000025_Node000006"><a xlink:title=" ">
<path fill="none" stroke="#63b8ff" d="M397.61,-110.09C363.63,-100.47 310.06,-85.29 275.35,-75.46"/>
<polygon fill="#63b8ff" stroke="#63b8ff" points="276.39,-72.12 265.81,-72.76 274.48,-78.85 276.39,-72.12"/>
</a>
</g>
</g>
<!-- Node25&#45;&gt;Node7 -->
<g id="edge27_Node000025_Node000007" class="edge">
<title>Node25&#45;&gt;Node7</title>
<g id="a_edge27_Node000025_Node000007"><a xlink:title=" ">
<path fill="none" stroke="#63b8ff" d="M409.48,-110.09C391.01,-101.75 363.29,-89.25 342.05,-79.66"/>
<polygon fill="#63b8ff" stroke="#63b8ff" points="343.55,-76.5 332.99,-75.58 340.67,-82.88 343.55,-76.5"/>
</a>
</g>
</g>
<!-- Node25&#45;&gt;Node9 -->
<g id="edge32_Node000025_Node000009" class="edge">
<title>Node25&#45;&gt;Node9</title>
<g id="a_edge32_Node000025_Node000009"><a xlink:title=" ">
<path fill="none" stroke="#63b8ff" d="M464.52,-110.45C503.05,-100.91 564.83,-85.61 605.04,-75.65"/>
<polygon fill="#63b8ff" stroke="#63b8ff" points="605.69,-79.09 614.56,-73.29 604.01,-72.3 605.69,-79.09"/>
</a>
</g>
</g>
<!-- Node26 -->
<g id="Node000026" class="node">
<title>Node26</title>
<g id="a_Node000026"><a xlink:title=" ">
<polygon fill="#e0e0e0" stroke="#999999" points="464.38,-74.5 396.62,-74.5 396.62,-55.25 464.38,-55.25 464.38,-74.5"/>
<text text-anchor="middle" x="430.5" y="-61" font-family="Helvetica,sans-Serif" font-size="10.00">TDirectory.h</text>
</a>
</g>
</g>
<!-- Node25&#45;&gt;Node26 -->
<g id="edge28_Node000025_Node000026" class="edge">
<title>Node25&#45;&gt;Node26</title>
<g id="a_edge28_Node000025_Node000026"><a xlink:title=" ">
<path fill="none" stroke="#63b8ff" d="M429.67,-110.33C429.79,-103.82 429.96,-94.67 430.12,-86.37"/>
<polygon fill="#63b8ff" stroke="#63b8ff" points="433.61,-86.44 430.3,-76.37 426.62,-86.3 433.61,-86.44"/>
</a>
</g>
</g>
<!-- Node27 -->
<g id="Node000027" class="node">
<title>Node27</title>
<g id="a_Node000027"><a xlink:title=" ">
<polygon fill="#e0e0e0" stroke="#999999" points="528.5,-74.5 482.5,-74.5 482.5,-55.25 528.5,-55.25 528.5,-74.5"/>
<text text-anchor="middle" x="505.5" y="-61" font-family="Helvetica,sans-Serif" font-size="10.00">TList.h</text>
</a>
</g>
</g>
<!-- Node25&#45;&gt;Node27 -->
<g id="edge30_Node000025_Node000027" class="edge">
<title>Node25&#45;&gt;Node27</title>
<g id="a_edge30_Node000025_Node000027"><a xlink:title=" ">
<path fill="none" stroke="#63b8ff" d="M442.39,-110.09C453.53,-102.29 469.87,-90.84 483.14,-81.54"/>
<polygon fill="#63b8ff" stroke="#63b8ff" points="485.12,-84.43 491.3,-75.82 481.11,-78.69 485.12,-84.43"/>
</a>
</g>
</g>
<!-- Node28 -->
<g id="Node000028" class="node">
<title>Node28</title>
<g id="a_Node000028"><a xlink:title=" ">
<polygon fill="#e0e0e0" stroke="#999999" points="592.5,-74.5 546.5,-74.5 546.5,-55.25 592.5,-55.25 592.5,-74.5"/>
<text text-anchor="middle" x="569.5" y="-61" font-family="Helvetica,sans-Serif" font-size="10.00">TKey.h</text>
</a>
</g>
</g>
<!-- Node25&#45;&gt;Node28 -->
<g id="edge31_Node000025_Node000028" class="edge">
<title>Node25&#45;&gt;Node28</title>
<g id="a_edge31_Node000025_Node000028"><a xlink:title=" ">
<path fill="none" stroke="#63b8ff" d="M453.25,-110.09C475.81,-101.51 509.97,-88.52 535.44,-78.83"/>
<polygon fill="#63b8ff" stroke="#63b8ff" points="536.58,-82.14 544.69,-75.31 534.1,-75.6 536.58,-82.14"/>
</a>
</g>
</g>
</g>
</svg>

<g id="navigator" transform="translate(0 0)" fill="#404254">
  <rect fill="#f2f5e9" fill-opacity="0.5" stroke="#606060" stroke-width=".5" x="0" y="0" width="60" height="60"/>
  <use id="zoomplus" xlink:href="#zoomPlus" x="17" y="9" onmousedown="handleZoom(evt,'in')"/>
  <use id="zoomminus" xlink:href="#zoomMin" x="42" y="9" onmousedown="handleZoom(evt,'out')"/>
  <use id="reset" xlink:href="#resetDef" x="30" y="36" onmousedown="handleReset()"/>
   <use id="arrowup" xlink:href="#arrowUp" x="0" y="0" onmousedown="handlePan(0,-1)"/>
  <use id="arrowright" xlink:href="#arrowRight" x="0" y="0" onmousedown="handlePan(1,0)"/>
  <use id="arrowdown" xlink:href="#arrowDown" x="0" y="0" onmousedown="handlePan(0,1)"/>
  <use id="arrowleft" xlink:href="#arrowLeft" x="0" y="0" onmousedown="handlePan(-1,0)"/>
</g>
<svg viewBox="0 0 15 15" width="100%" height="30px" preserveAspectRatio="xMaxYMin meet">
 <g id="arrow_out" transform="scale(0.3 0.3)">
  <a xlink:href="_t_p_p_g_8h__incl_org.svg" target="_base">
   <rect id="button" ry="5" rx="5" y="6" x="6" height="38" width="38"
        fill="#f2f5e9" fill-opacity="0.5" stroke="#606060" stroke-width="1.0"/>
   <path id="arrow"
     d="M 11.500037,31.436501 C 11.940474,20.09759 22.043105,11.32322 32.158766,21.979434 L 37.068811,17.246167 C 37.068811,17.246167 37.088388,32 37.088388,32 L 22.160133,31.978069 C 22.160133,31.978069 26.997745,27.140456 26.997745,27.140456 C 18.528582,18.264221 13.291696,25.230495 11.500037,31.436501 z"
     style="fill:#404040;"/>
  </a>
 </g>
</svg>

<style type='text/css'>
<![CDATA[
[data-mouse-over-selected='false'] { opacity: 0.7; }
[data-mouse-over-selected='true']  { opacity: 1.0; }
]]>
</style>
<script type="application/ecmascript"><![CDATA[
document.addEventListener('DOMContentLoaded', (event) => {
  highlightEdges();
  highlightAdjacentNodes();
});
]]></script>
</svg>
