<?xml version="1.0" encoding="UTF-8" standalone="no"?>
<!DOCTYPE svg PUBLIC "-//W3C//DTD SVG 1.1//EN"
 "http://www.w3.org/Graphics/SVG/1.1/DTD/svg11.dtd">
<!-- Generated by graphviz version 12.2.0 (20241103.1931)
 -->
<!-- Title: TPPG.h Pages: 1 -->
<!--zoomable 193 -->

<svg id="main" version="1.1" xmlns="http://www.w3.org/2000/svg" xmlns:xlink="http://www.w3.org/1999/xlink" xml:space="preserve" onload="init(evt)">

<style type="text/css"><![CDATA[
.node, .edge {opacity: 0.7;}
.node.selected, .edge.selected {opacity: 1;}
.edge:hover path { stroke: red; }
.edge:hover polygon { stroke: red; fill: red; }
]]></style>

<defs>
  <circle id="rim" cx="0" cy="0" r="7"/>
  <circle id="rim2" cx="0" cy="0" r="3.5"/>
  <g id="zoomPlus">
    <use xlink:href="#rim" fill="#404040"><set attributeName="fill" to="#808080" begin="zoomplus.mouseover" end="zoomplus.mouseout"/></use>
    <path d="M-4,0h8M0,-4v8" fill="none" stroke="white" stroke-width="1.5" pointer-events="none"/>
  </g>
  <g id="zoomMin">
    <use xlink:href="#rim" fill="#404040"><set attributeName="fill" to="#808080" begin="zoomminus.mouseover" end="zoomminus.mouseout"/></use>
    <path d="M-4,0h8" fill="none" stroke="white" stroke-width="1.5" pointer-events="none"/>
  </g>
  <g id="arrowUp" transform="translate(30 24)">
    <use xlink:href="#rim"/>
    <path pointer-events="none" fill="none" stroke="white" stroke-width="1.5" d="M0,-3.0v7 M-2.5,-0.5L0,-3.0L2.5,-0.5"/>
  </g>
  <g id="arrowRight" transform="rotate(90) translate(36 -43)">
    <use xlink:href="#rim"/>
    <path pointer-events="none" fill="none" stroke="white" stroke-width="1.5" d="M0,-3.0v7 M-2.5,-0.5L0,-3.0L2.5,-0.5"/>
  </g>
  <g id="arrowDown" transform="rotate(180) translate(-30 -48)">
    <use xlink:href="#rim"/>
    <path pointer-events="none" fill="none" stroke="white" stroke-width="1.5" d="M0,-3.0v7 M-2.5,-0.5L0,-3.0L2.5,-0.5"/>
  </g>
  <g id="arrowLeft" transform="rotate(270) translate(-36 17)">
    <use xlink:href="#rim"/>
    <path pointer-events="none" fill="none" stroke="white" stroke-width="1.5" d="M0,-3.0v7 M-2.5,-0.5L0,-3.0L2.5,-0.5"/>
  </g>
  <g id="resetDef">
    <use xlink:href="#rim2" fill="#404040"><set attributeName="fill" to="#808080" begin="reset.mouseover" end="reset.mouseout"/></use>
  </g>
</defs>
<script type="application/ecmascript">
var viewWidth = 1060;
var viewHeight = 193;
var sectionId = 'dynsection-0';
</script>
<script type="application/ecmascript" xlink:href="svg.min.js"/>
<svg id="graph" class="graph">
<g id="viewport">
<title>TPPG.h</title>
<!-- Node1 -->
<g id="Node000001" class="node">
<title>Node1</title>
<g id="a_Node000001"><a xlink:title=" ">
<polygon fill="#999999" stroke="#666666" points="566.88,-185 516.38,-185 516.38,-165.75 566.88,-165.75 566.88,-185"/>
<text text-anchor="middle" x="541.62" y="-171.5" font-family="Helvetica,sans-Serif" font-size="10.00">TPPG.h</text>
</a>
</g>
</g>
<!-- Node2 -->
<g id="Node000002" class="node">
<title>Node2</title>
<g id="a_Node000002"><a xlink:title=" ">
<polygon fill="#e0e0e0" stroke="#999999" points="363,-129.75 328.25,-129.75 328.25,-110.5 363,-110.5 363,-129.75"/>
<text text-anchor="middle" x="345.62" y="-116.25" font-family="Helvetica,sans-Serif" font-size="10.00">map</text>
</a>
</g>
</g>
<!-- Node1&#45;&gt;Node2 -->
<g id="edge1_Node000001_Node000002" class="edge">
<title>Node1&#45;&gt;Node2</title>
<g id="a_edge1_Node000001_Node000002"><a xlink:title=" ">
<path fill="none" stroke="#63b8ff" d="M516.03,-168.05C484.84,-160.25 430.3,-146.31 374.17,-130.08"/>
<polygon fill="#63b8ff" stroke="#63b8ff" points="375.34,-126.77 364.76,-127.34 373.38,-133.5 375.34,-126.77"/>
</a>
</g>
</g>
<!-- Node3 -->
<g id="Node000003" class="node">
<title>Node3</title>
<g id="a_Node000003"><a xlink:title=" ">
<polygon fill="#e0e0e0" stroke="#999999" points="419.88,-129.75 381.38,-129.75 381.38,-110.5 419.88,-110.5 419.88,-129.75"/>
<text text-anchor="middle" x="400.62" y="-116.25" font-family="Helvetica,sans-Serif" font-size="10.00">utility</text>
</a>
</g>
</g>
<!-- Node1&#45;&gt;Node3 -->
<g id="edge2_Node000001_Node000003" class="edge">
<title>Node1&#45;&gt;Node3</title>
<g id="a_edge2_Node000001_Node000003"><a xlink:title=" ">
<path fill="none" stroke="#63b8ff" d="M517.71,-165.34C493.75,-156.3 456.81,-142.34 430.84,-132.54"/>
<polygon fill="#63b8ff" stroke="#63b8ff" points="432.12,-129.28 421.53,-129.02 429.65,-135.83 432.12,-129.28"/>
</a>
</g>
</g>
<!-- Node4 -->
<g id="Node000004" class="node">
<title>Node4</title>
<g id="a_Node000004"><a xlink:title=" ">
<polygon fill="#e0e0e0" stroke="#999999" points="1004.38,-19.25 950.88,-19.25 950.88,0 1004.38,0 1004.38,-19.25"/>
<text text-anchor="middle" x="977.62" y="-5.75" font-family="Helvetica,sans-Serif" font-size="10.00">iostream</text>
</a>
</g>
</g>
<!-- Node1&#45;&gt;Node4 -->
<g id="edge3_Node000001_Node000004" class="edge">
<title>Node1&#45;&gt;Node4</title>
<g id="a_edge3_Node000001_Node000004"><a xlink:title=" ">
<path fill="none" stroke="#63b8ff" d="M566.96,-173.83C633.07,-171.23 813.9,-156.57 932.62,-74.5 948.83,-63.3 961.12,-44.26 968.74,-29.87"/>
<polygon fill="#63b8ff" stroke="#63b8ff" points="971.86,-31.45 973.15,-20.93 965.59,-28.35 971.86,-31.45"/>
</a>
</g>
</g>
<!-- Node5 -->
<g id="Node000005" class="node">
<title>Node5</title>
<g id="a_Node000005"><a xlink:title=" ">
<polygon fill="#e0e0e0" stroke="#999999" points="45.25,-19.25 0,-19.25 0,0 45.25,0 45.25,-19.25"/>
<text text-anchor="middle" x="22.62" y="-5.75" font-family="Helvetica,sans-Serif" font-size="10.00">cstdint</text>
</a>
</g>
</g>
<!-- Node1&#45;&gt;Node5 -->
<g id="edge4_Node000001_Node000005" class="edge">
<title>Node1&#45;&gt;Node5</title>
<g id="a_edge4_Node000001_Node000005"><a xlink:title=" ">
<path fill="none" stroke="#63b8ff" d="M528.65,-165.46C508.24,-151.8 466.97,-125.68 428.62,-110.5 272.95,-48.88 222.51,-61.22 56.77,-19.72"/>
<polygon fill="#63b8ff" stroke="#63b8ff" points="57.7,-16.35 47.15,-17.28 55.98,-23.13 57.7,-16.35"/>
</a>
</g>
</g>
<!-- Node6 -->
<g id="Node000006" class="node">
<title>Node6</title>
<g id="a_Node000006"><a xlink:title=" ">
<polygon fill="#e0e0e0" stroke="#999999" points="607.62,-74.5 549.62,-74.5 549.62,-55.25 607.62,-55.25 607.62,-74.5"/>
<text text-anchor="middle" x="578.62" y="-61" font-family="Helvetica,sans-Serif" font-size="10.00">TObject.h</text>
</a>
</g>
</g>
<!-- Node1&#45;&gt;Node6 -->
<g id="edge5_Node000001_Node000006" class="edge">
<title>Node1&#45;&gt;Node6</title>
<g id="a_edge5_Node000001_Node000006"><a xlink:title=" ">
<path fill="none" stroke="#63b8ff" d="M544.65,-165.5C550.56,-148.17 563.76,-109.48 571.85,-85.74"/>
<polygon fill="#63b8ff" stroke="#63b8ff" points="575.15,-86.9 575.07,-76.31 568.53,-84.64 575.15,-86.9"/>
</a>
</g>
</g>
<!-- Node7 -->
<g id="Node000007" class="node">
<title>Node7</title>
<g id="a_Node000007"><a xlink:title=" ">
<polygon fill="#e0e0e0" stroke="#999999" points="1051.75,-129.75 979.5,-129.75 979.5,-110.5 1051.75,-110.5 1051.75,-129.75"/>
<text text-anchor="middle" x="1015.62" y="-116.25" font-family="Helvetica,sans-Serif" font-size="10.00">TCollection.h</text>
</a>
</g>
</g>
<!-- Node1&#45;&gt;Node7 -->
<g id="edge6_Node000001_Node000007" class="edge">
<title>Node1&#45;&gt;Node7</title>
<g id="a_edge6_Node000001_Node000007"><a xlink:title=" ">
<path fill="none" stroke="#63b8ff" d="M567.03,-172.29C632.97,-166.75 814.96,-150.65 965.62,-129.75 966.44,-129.64 967.27,-129.52 968.1,-129.4"/>
<polygon fill="#63b8ff" stroke="#63b8ff" points="968.23,-132.92 977.58,-127.95 967.17,-126 968.23,-132.92"/>
</a>
</g>
</g>
<!-- Node8 -->
<g id="Node000008" class="node">
<title>Node8</title>
<g id="a_Node000008"><a xlink:href="_globals_8h.html" target="_top" xlink:title=" ">
<polygon fill="white" stroke="#666666" points="531.88,-74.5 475.38,-74.5 475.38,-55.25 531.88,-55.25 531.88,-74.5"/>
<text text-anchor="middle" x="503.62" y="-61" font-family="Helvetica,sans-Serif" font-size="10.00">Globals.h</text>
</a>
</g>
</g>
<!-- Node1&#45;&gt;Node8 -->
<g id="edge7_Node000001_Node000008" class="edge">
<title>Node1&#45;&gt;Node8</title>
<g id="a_edge7_Node000001_Node000008"><a xlink:title=" ">
<path fill="none" stroke="#63b8ff" d="M538.52,-165.5C532.45,-148.17 518.9,-109.48 510.58,-85.74"/>
<polygon fill="#63b8ff" stroke="#63b8ff" points="513.89,-84.59 507.28,-76.31 507.28,-86.9 513.89,-84.59"/>
</a>
</g>
</g>
<!-- Node22 -->
<g id="Node000022" class="node">
<title>Node22</title>
<g id="a_Node000022"><a xlink:href="_t_singleton_8h.html" target="_top" xlink:title=" ">
<polygon fill="white" stroke="#666666" points="709.62,-129.75 639.62,-129.75 639.62,-110.5 709.62,-110.5 709.62,-129.75"/>
<text text-anchor="middle" x="674.62" y="-116.25" font-family="Helvetica,sans-Serif" font-size="10.00">TSingleton.h</text>
</a>
</g>
</g>
<!-- Node1&#45;&gt;Node22 -->
<g id="edge23_Node000001_Node000022" class="edge">
<title>Node1&#45;&gt;Node22</title>
<g id="a_edge23_Node000001_Node000022"><a xlink:title=" ">
<path fill="none" stroke="#63b8ff" d="M564.19,-165.34C585.4,-156.85 617.4,-144.04 641.5,-134.39"/>
<polygon fill="#63b8ff" stroke="#63b8ff" points="642.56,-137.73 650.55,-130.77 639.96,-131.23 642.56,-137.73"/>
</a>
</g>
</g>
<!-- Node8&#45;&gt;Node4 -->
<g id="edge8_Node000008_Node000004" class="edge">
<title>Node8&#45;&gt;Node4</title>
<g id="a_edge8_Node000008_Node000004"><a xlink:title=" ">
<path fill="none" stroke="#63b8ff" d="M532.23,-56.79C535.06,-56.22 537.89,-55.69 540.62,-55.25 713.68,-27.45 763.03,-47.32 939.34,-19.37"/>
<polygon fill="#63b8ff" stroke="#63b8ff" points="939.78,-22.84 949.09,-17.79 938.66,-15.93 939.78,-22.84"/>
</a>
</g>
</g>
<!-- Node8&#45;&gt;Node5 -->
<g id="edge13_Node000008_Node000005" class="edge">
<title>Node8&#45;&gt;Node5</title>
<g id="a_edge13_Node000008_Node000005"><a xlink:title=" ">
<path fill="none" stroke="#63b8ff" d="M475.24,-57.59C470.7,-56.71 466.04,-55.9 461.62,-55.25 285.54,-29.47 235.42,-50.14 56.7,-19.29"/>
<polygon fill="#63b8ff" stroke="#63b8ff" points="57.53,-15.88 47.08,-17.59 56.32,-22.77 57.53,-15.88"/>
</a>
</g>
</g>
<!-- Node9 -->
<g id="Node000009" class="node">
<title>Node9</title>
<g id="a_Node000009"><a xlink:title=" ">
<polygon fill="#e0e0e0" stroke="#999999" points="856.5,-19.25 806.75,-19.25 806.75,0 856.5,0 856.5,-19.25"/>
<text text-anchor="middle" x="831.62" y="-5.75" font-family="Helvetica,sans-Serif" font-size="10.00">iomanip</text>
</a>
</g>
</g>
<!-- Node8&#45;&gt;Node9 -->
<g id="edge9_Node000008_Node000009" class="edge">
<title>Node8&#45;&gt;Node9</title>
<g id="a_edge9_Node000008_Node000009"><a xlink:title=" ">
<path fill="none" stroke="#63b8ff" d="M532.25,-56.93C535.08,-56.33 537.9,-55.76 540.62,-55.25 650.47,-34.8 682.46,-41.03 795.27,-19.51"/>
<polygon fill="#63b8ff" stroke="#63b8ff" points="795.81,-22.97 804.96,-17.63 794.47,-16.1 795.81,-22.97"/>
</a>
</g>
</g>
<!-- Node10 -->
<g id="Node000010" class="node">
<title>Node10</title>
<g id="a_Node000010"><a xlink:title=" ">
<polygon fill="#e0e0e0" stroke="#999999" points="932.62,-19.25 874.62,-19.25 874.62,0 932.62,0 932.62,-19.25"/>
<text text-anchor="middle" x="903.62" y="-5.75" font-family="Helvetica,sans-Serif" font-size="10.00">stdexcept</text>
</a>
</g>
</g>
<!-- Node8&#45;&gt;Node10 -->
<g id="edge10_Node000008_Node000010" class="edge">
<title>Node8&#45;&gt;Node10</title>
<g id="a_edge10_Node000008_Node000010"><a xlink:title=" ">
<path fill="none" stroke="#63b8ff" d="M532.24,-56.85C535.06,-56.26 537.89,-55.72 540.62,-55.25 680.23,-31.33 720.29,-42.75 862.88,-19.53"/>
<polygon fill="#63b8ff" stroke="#63b8ff" points="863.45,-22.98 872.74,-17.89 862.3,-16.08 863.45,-22.98"/>
</a>
</g>
</g>
<!-- Node11 -->
<g id="Node000011" class="node">
<title>Node11</title>
<g id="a_Node000011"><a xlink:title=" ">
<polygon fill="#e0e0e0" stroke="#999999" points="103.62,-19.25 63.62,-19.25 63.62,0 103.62,0 103.62,-19.25"/>
<text text-anchor="middle" x="83.62" y="-5.75" font-family="Helvetica,sans-Serif" font-size="10.00">string</text>
</a>
</g>
</g>
<!-- Node8&#45;&gt;Node11 -->
<g id="edge11_Node000008_Node000011" class="edge">
<title>Node8&#45;&gt;Node11</title>
<g id="a_edge11_Node000008_Node000011"><a xlink:title=" ">
<path fill="none" stroke="#63b8ff" d="M475.23,-57.64C470.69,-56.76 466.04,-55.93 461.62,-55.25 311.12,-32.09 267.6,-48.78 115.26,-19.42"/>
<polygon fill="#63b8ff" stroke="#63b8ff" points="116.07,-16.02 105.59,-17.52 114.72,-22.89 116.07,-16.02"/>
</a>
</g>
</g>
<!-- Node12 -->
<g id="Node000012" class="node">
<title>Node12</title>
<g id="a_Node000012"><a xlink:title=" ">
<polygon fill="#e0e0e0" stroke="#999999" points="163.75,-19.25 121.5,-19.25 121.5,0 163.75,0 163.75,-19.25"/>
<text text-anchor="middle" x="142.62" y="-5.75" font-family="Helvetica,sans-Serif" font-size="10.00">cstdio</text>
</a>
</g>
</g>
<!-- Node8&#45;&gt;Node12 -->
<g id="edge12_Node000008_Node000012" class="edge">
<title>Node8&#45;&gt;Node12</title>
<g id="a_edge12_Node000008_Node000012"><a xlink:title=" ">
<path fill="none" stroke="#63b8ff" d="M475.21,-57.73C470.68,-56.84 466.03,-55.98 461.62,-55.25 337.53,-34.81 301.46,-44.61 175.41,-19.53"/>
<polygon fill="#63b8ff" stroke="#63b8ff" points="176.13,-16.11 165.64,-17.55 174.74,-22.97 176.13,-16.11"/>
</a>
</g>
</g>
<!-- Node13 -->
<g id="Node000013" class="node">
<title>Node13</title>
<g id="a_Node000013"><a xlink:title=" ">
<polygon fill="#e0e0e0" stroke="#999999" points="225.88,-19.25 181.38,-19.25 181.38,0 225.88,0 225.88,-19.25"/>
<text text-anchor="middle" x="203.62" y="-5.75" font-family="Helvetica,sans-Serif" font-size="10.00">cstdlib</text>
</a>
</g>
</g>
<!-- Node8&#45;&gt;Node13 -->
<g id="edge14_Node000008_Node000013" class="edge">
<title>Node8&#45;&gt;Node13</title>
<g id="a_edge14_Node000008_Node000013"><a xlink:title=" ">
<path fill="none" stroke="#63b8ff" d="M475.19,-57.85C470.66,-56.95 466.02,-56.05 461.62,-55.25 364.66,-37.61 336.41,-40.72 237.35,-19.64"/>
<polygon fill="#63b8ff" stroke="#63b8ff" points="238.23,-16.25 227.72,-17.56 236.75,-23.09 238.23,-16.25"/>
</a>
</g>
</g>
<!-- Node14 -->
<g id="Node000014" class="node">
<title>Node14</title>
<g id="a_Node000014"><a xlink:title=" ">
<polygon fill="#e0e0e0" stroke="#999999" points="303.38,-19.25 243.88,-19.25 243.88,0 303.38,0 303.38,-19.25"/>
<text text-anchor="middle" x="273.62" y="-5.75" font-family="Helvetica,sans-Serif" font-size="10.00">execinfo.h</text>
</a>
</g>
</g>
<!-- Node8&#45;&gt;Node14 -->
<g id="edge15_Node000008_Node000014" class="edge">
<title>Node8&#45;&gt;Node14</title>
<g id="a_edge15_Node000008_Node000014"><a xlink:title=" ">
<path fill="none" stroke="#63b8ff" d="M474.96,-57.24C434.66,-47.91 361.03,-30.86 314.86,-20.17"/>
<polygon fill="#63b8ff" stroke="#63b8ff" points="315.75,-16.79 305.22,-17.94 314.18,-23.61 315.75,-16.79"/>
</a>
</g>
</g>
<!-- Node15 -->
<g id="Node000015" class="node">
<title>Node15</title>
<g id="a_Node000015"><a xlink:title=" ">
<polygon fill="#e0e0e0" stroke="#999999" points="371.88,-19.25 321.38,-19.25 321.38,0 371.88,0 371.88,-19.25"/>
<text text-anchor="middle" x="346.62" y="-5.75" font-family="Helvetica,sans-Serif" font-size="10.00">cxxabi.h</text>
</a>
</g>
</g>
<!-- Node8&#45;&gt;Node15 -->
<g id="edge16_Node000008_Node000015" class="edge">
<title>Node8&#45;&gt;Node15</title>
<g id="a_edge16_Node000008_Node000015"><a xlink:title=" ">
<path fill="none" stroke="#63b8ff" d="M476.99,-54.84C451.2,-46.09 411.87,-32.76 383.16,-23.02"/>
<polygon fill="#63b8ff" stroke="#63b8ff" points="384.37,-19.73 373.78,-19.83 382.12,-26.36 384.37,-19.73"/>
</a>
</g>
</g>
<!-- Node16 -->
<g id="Node000016" class="node">
<title>Node16</title>
<g id="a_Node000016"><a xlink:title=" ">
<polygon fill="#e0e0e0" stroke="#999999" points="441.25,-19.25 390,-19.25 390,0 441.25,0 441.25,-19.25"/>
<text text-anchor="middle" x="415.62" y="-5.75" font-family="Helvetica,sans-Serif" font-size="10.00">sstream</text>
</a>
</g>
</g>
<!-- Node8&#45;&gt;Node16 -->
<g id="edge17_Node000008_Node000016" class="edge">
<title>Node8&#45;&gt;Node16</title>
<g id="a_edge17_Node000008_Node000016"><a xlink:title=" ">
<path fill="none" stroke="#63b8ff" d="M488.7,-54.84C475.42,-46.81 455.76,-34.91 440.17,-25.48"/>
<polygon fill="#63b8ff" stroke="#63b8ff" points="442.29,-22.67 431.92,-20.49 438.66,-28.66 442.29,-22.67"/>
</a>
</g>
</g>
<!-- Node17 -->
<g id="Node000017" class="node">
<title>Node17</title>
<g id="a_Node000017"><a xlink:title=" ">
<polygon fill="#e0e0e0" stroke="#999999" points="496.12,-19.25 459.12,-19.25 459.12,0 496.12,0 496.12,-19.25"/>
<text text-anchor="middle" x="477.62" y="-5.75" font-family="Helvetica,sans-Serif" font-size="10.00">array</text>
</a>
</g>
</g>
<!-- Node8&#45;&gt;Node17 -->
<g id="edge18_Node000008_Node000017" class="edge">
<title>Node8&#45;&gt;Node17</title>
<g id="a_edge18_Node000008_Node000017"><a xlink:title=" ">
<path fill="none" stroke="#63b8ff" d="M499.33,-55.08C496,-48.26 491.26,-38.56 487.06,-29.95"/>
<polygon fill="#63b8ff" stroke="#63b8ff" points="490.21,-28.42 482.68,-20.97 483.92,-31.49 490.21,-28.42"/>
</a>
</g>
</g>
<!-- Node18 -->
<g id="Node000018" class="node">
<title>Node18</title>
<g id="a_Node000018"><a xlink:title=" ">
<polygon fill="#e0e0e0" stroke="#999999" points="564.88,-19.25 514.38,-19.25 514.38,0 564.88,0 564.88,-19.25"/>
<text text-anchor="middle" x="539.62" y="-5.75" font-family="Helvetica,sans-Serif" font-size="10.00">memory</text>
</a>
</g>
</g>
<!-- Node8&#45;&gt;Node18 -->
<g id="edge19_Node000008_Node000018" class="edge">
<title>Node8&#45;&gt;Node18</title>
<g id="a_edge19_Node000008_Node000018"><a xlink:title=" ">
<path fill="none" stroke="#63b8ff" d="M509.57,-55.08C514.34,-48.03 521.19,-37.9 527.15,-29.08"/>
<polygon fill="#63b8ff" stroke="#63b8ff" points="530,-31.11 532.7,-20.86 524.2,-27.19 530,-31.11"/>
</a>
</g>
</g>
<!-- Node19 -->
<g id="Node000019" class="node">
<title>Node19</title>
<g id="a_Node000019"><a xlink:title=" ">
<polygon fill="#e0e0e0" stroke="#999999" points="632.5,-19.25 582.75,-19.25 582.75,0 632.5,0 632.5,-19.25"/>
<text text-anchor="middle" x="607.62" y="-5.75" font-family="Helvetica,sans-Serif" font-size="10.00">unistd.h</text>
</a>
</g>
</g>
<!-- Node8&#45;&gt;Node19 -->
<g id="edge20_Node000008_Node000019" class="edge">
<title>Node8&#45;&gt;Node19</title>
<g id="a_edge20_Node000008_Node000019"><a xlink:title=" ">
<path fill="none" stroke="#63b8ff" d="M521.27,-54.84C537.25,-46.66 561.08,-34.46 579.66,-24.94"/>
<polygon fill="#63b8ff" stroke="#63b8ff" points="581.24,-28.07 588.55,-20.39 578.05,-21.83 581.24,-28.07"/>
</a>
</g>
</g>
<!-- Node20 -->
<g id="Node000020" class="node">
<title>Node20</title>
<g id="a_Node000020"><a xlink:title=" ">
<polygon fill="#e0e0e0" stroke="#999999" points="710.38,-19.25 650.88,-19.25 650.88,0 710.38,0 710.38,-19.25"/>
<text text-anchor="middle" x="680.62" y="-5.75" font-family="Helvetica,sans-Serif" font-size="10.00">sys/wait.h</text>
</a>
</g>
</g>
<!-- Node8&#45;&gt;Node20 -->
<g id="edge21_Node000008_Node000020" class="edge">
<title>Node8&#45;&gt;Node20</title>
<g id="a_edge21_Node000008_Node000020"><a xlink:title=" ">
<path fill="none" stroke="#63b8ff" d="M532.06,-55.32C561.21,-46.55 606.82,-32.83 639.82,-22.9"/>
<polygon fill="#63b8ff" stroke="#63b8ff" points="640.46,-26.36 649.03,-20.13 638.45,-19.66 640.46,-26.36"/>
</a>
</g>
</g>
<!-- Node21 -->
<g id="Node000021" class="node">
<title>Node21</title>
<g id="a_Node000021"><a xlink:title=" ">
<polygon fill="#e0e0e0" stroke="#999999" points="788.75,-19.25 728.5,-19.25 728.5,0 788.75,0 788.75,-19.25"/>
<text text-anchor="middle" x="758.62" y="-5.75" font-family="Helvetica,sans-Serif" font-size="10.00">sys/prctl.h</text>
</a>
</g>
</g>
<!-- Node8&#45;&gt;Node21 -->
<g id="edge22_Node000008_Node000021" class="edge">
<title>Node8&#45;&gt;Node21</title>
<g id="a_edge22_Node000008_Node000021"><a xlink:title=" ">
<path fill="none" stroke="#63b8ff" d="M532.29,-57.1C535.1,-56.46 537.92,-55.84 540.62,-55.25 616.52,-38.78 638.37,-36.21 717.4,-19.68"/>
<polygon fill="#63b8ff" stroke="#63b8ff" points="717.86,-23.16 726.92,-17.68 716.42,-16.31 717.86,-23.16"/>
</a>
</g>
</g>
<!-- Node22&#45;&gt;Node4 -->
<g id="edge24_Node000022_Node000004" class="edge">
<title>Node22&#45;&gt;Node4</title>
<g id="a_edge24_Node000022_Node000004"><a xlink:title=" ">
<path fill="none" stroke="#63b8ff" d="M677.95,-110.41C683.82,-96.29 697.46,-68.64 718.62,-55.25 800.5,-3.48 840.34,-36.44 939.47,-19.41"/>
<polygon fill="#63b8ff" stroke="#63b8ff" points="939.87,-22.9 949.06,-17.62 938.59,-16.02 939.87,-22.9"/>
</a>
</g>
</g>
<!-- Node22&#45;&gt;Node6 -->
<g id="edge25_Node000022_Node000006" class="edge">
<title>Node22&#45;&gt;Node6</title>
<g id="a_edge25_Node000022_Node000006"><a xlink:title=" ">
<path fill="none" stroke="#63b8ff" d="M658.34,-110.09C643.72,-101.98 622,-89.93 604.92,-80.46"/>
<polygon fill="#63b8ff" stroke="#63b8ff" points="606.76,-77.48 596.31,-75.69 603.36,-83.6 606.76,-77.48"/>
</a>
</g>
</g>
<!-- Node22&#45;&gt;Node8 -->
<g id="edge30_Node000022_Node000008" class="edge">
<title>Node22&#45;&gt;Node8</title>
<g id="a_edge30_Node000022_Node000008"><a xlink:title=" ">
<path fill="none" stroke="#63b8ff" d="M645.62,-110.09C617.44,-101.32 574.45,-87.93 543.16,-78.19"/>
<polygon fill="#63b8ff" stroke="#63b8ff" points="544.24,-74.86 533.65,-75.22 542.16,-81.54 544.24,-74.86"/>
</a>
</g>
</g>
<!-- Node23 -->
<g id="Node000023" class="node">
<title>Node23</title>
<g id="a_Node000023"><a xlink:title=" ">
<polygon fill="#e0e0e0" stroke="#999999" points="859.5,-74.5 791.75,-74.5 791.75,-55.25 859.5,-55.25 859.5,-74.5"/>
<text text-anchor="middle" x="825.62" y="-61" font-family="Helvetica,sans-Serif" font-size="10.00">TDirectory.h</text>
</a>
</g>
</g>
<!-- Node22&#45;&gt;Node23 -->
<g id="edge26_Node000022_Node000023" class="edge">
<title>Node22&#45;&gt;Node23</title>
<g id="a_edge26_Node000022_Node000023"><a xlink:title=" ">
<path fill="none" stroke="#63b8ff" d="M700.24,-110.09C724.64,-101.49 761.64,-88.44 789.12,-78.75"/>
<polygon fill="#63b8ff" stroke="#63b8ff" points="790.19,-82.08 798.46,-75.46 787.86,-75.48 790.19,-82.08"/>
</a>
</g>
</g>
<!-- Node24 -->
<g id="Node000024" class="node">
<title>Node24</title>
<g id="a_Node000024"><a xlink:title=" ">
<polygon fill="#e0e0e0" stroke="#999999" points="923.25,-74.5 878,-74.5 878,-55.25 923.25,-55.25 923.25,-74.5"/>
<text text-anchor="middle" x="900.62" y="-61" font-family="Helvetica,sans-Serif" font-size="10.00">TFile.h</text>
</a>
</g>
</g>
<!-- Node22&#45;&gt;Node24 -->
<g id="edge27_Node000022_Node000024" class="edge">
<title>Node22&#45;&gt;Node24</title>
<g id="a_edge27_Node000022_Node000024"><a xlink:title=" ">
<path fill="none" stroke="#63b8ff" d="M710.12,-111.38C746.88,-103.26 806.26,-89.9 866.69,-74.91"/>
<polygon fill="#63b8ff" stroke="#63b8ff" points="867.25,-78.38 876.11,-72.56 865.56,-71.59 867.25,-78.38"/>
</a>
</g>
</g>
<!-- Node25 -->
<g id="Node000025" class="node">
<title>Node25</title>
<g id="a_Node000025"><a xlink:title=" ">
<polygon fill="#e0e0e0" stroke="#999999" points="671.62,-74.5 625.62,-74.5 625.62,-55.25 671.62,-55.25 671.62,-74.5"/>
<text text-anchor="middle" x="648.62" y="-61" font-family="Helvetica,sans-Serif" font-size="10.00">TList.h</text>
</a>
</g>
</g>
<!-- Node22&#45;&gt;Node25 -->
<g id="edge28_Node000022_Node000025" class="edge">
<title>Node22&#45;&gt;Node25</title>
<g id="a_edge28_Node000022_Node000025"><a xlink:title=" ">
<path fill="none" stroke="#63b8ff" d="M670.33,-110.33C667,-103.51 662.26,-93.81 658.06,-85.2"/>
<polygon fill="#63b8ff" stroke="#63b8ff" points="661.21,-83.67 653.68,-76.22 654.92,-86.74 661.21,-83.67"/>
</a>
</g>
</g>
<!-- Node26 -->
<g id="Node000026" class="node">
<title>Node26</title>
<g id="a_Node000026"><a xlink:title=" ">
<polygon fill="#e0e0e0" stroke="#999999" points="773.62,-74.5 727.62,-74.5 727.62,-55.25 773.62,-55.25 773.62,-74.5"/>
<text text-anchor="middle" x="750.62" y="-61" font-family="Helvetica,sans-Serif" font-size="10.00">TKey.h</text>
</a>
</g>
</g>
<!-- Node22&#45;&gt;Node26 -->
<g id="edge29_Node000022_Node000026" class="edge">
<title>Node22&#45;&gt;Node26</title>
<g id="a_edge29_Node000022_Node000026"><a xlink:title=" ">
<path fill="none" stroke="#63b8ff" d="M687.52,-110.09C698.65,-102.29 715,-90.84 728.26,-81.54"/>
<polygon fill="#63b8ff" stroke="#63b8ff" points="730.25,-84.43 736.43,-75.82 726.23,-78.69 730.25,-84.43"/>
</a>
</g>
</g>
</g>
</svg>

<g id="navigator" transform="translate(0 0)" fill="#404254">
  <rect fill="#f2f5e9" fill-opacity="0.5" stroke="#606060" stroke-width=".5" x="0" y="0" width="60" height="60"/>
  <use id="zoomplus" xlink:href="#zoomPlus" x="17" y="9" onmousedown="handleZoom(evt,'in')"/>
  <use id="zoomminus" xlink:href="#zoomMin" x="42" y="9" onmousedown="handleZoom(evt,'out')"/>
  <use id="reset" xlink:href="#resetDef" x="30" y="36" onmousedown="handleReset()"/>
   <use id="arrowup" xlink:href="#arrowUp" x="0" y="0" onmousedown="handlePan(0,-1)"/>
  <use id="arrowright" xlink:href="#arrowRight" x="0" y="0" onmousedown="handlePan(1,0)"/>
  <use id="arrowdown" xlink:href="#arrowDown" x="0" y="0" onmousedown="handlePan(0,1)"/>
  <use id="arrowleft" xlink:href="#arrowLeft" x="0" y="0" onmousedown="handlePan(-1,0)"/>
</g>
<svg viewBox="0 0 15 15" width="100%" height="30px" preserveAspectRatio="xMaxYMin meet">
 <g id="arrow_out" transform="scale(0.3 0.3)">
  <a xlink:href="_t_p_p_g_8h__incl_org.svg" target="_base">
   <rect id="button" ry="5" rx="5" y="6" x="6" height="38" width="38"
        fill="#f2f5e9" fill-opacity="0.5" stroke="#606060" stroke-width="1.0"/>
   <path id="arrow"
     d="M 11.500037,31.436501 C 11.940474,20.09759 22.043105,11.32322 32.158766,21.979434 L 37.068811,17.246167 C 37.068811,17.246167 37.088388,32 37.088388,32 L 22.160133,31.978069 C 22.160133,31.978069 26.997745,27.140456 26.997745,27.140456 C 18.528582,18.264221 13.291696,25.230495 11.500037,31.436501 z"
     style="fill:#404040;"/>
  </a>
 </g>
</svg>

<style type='text/css'>
<![CDATA[
[data-mouse-over-selected='false'] { opacity: 0.7; }
[data-mouse-over-selected='true']  { opacity: 1.0; }
]]>
</style>
<script type="application/ecmascript"><![CDATA[
document.addEventListener('DOMContentLoaded', (event) => {
  highlightEdges();
  highlightAdjacentNodes();
});
]]></script>
</svg>
