<?xml version="1.0" encoding="UTF-8" standalone="no"?>
<!DOCTYPE svg PUBLIC "-//W3C//DTD SVG 1.1//EN"
 "http://www.w3.org/Graphics/SVG/1.1/DTD/svg11.dtd">
<!-- Generated by graphviz version 9.0.0 (20230911.1827)
 -->
<!-- Title: TPeak.h Pages: 1 -->
<svg width="1023pt" height="414pt"
 viewBox="0.00 0.00 1023.00 414.00" xmlns="http://www.w3.org/2000/svg" xmlns:xlink="http://www.w3.org/1999/xlink">
<g id="graph0" class="graph" transform="scale(1 1) rotate(0) translate(4 410)">
<title>TPeak.h</title>
<!-- Node1 -->
<g id="Node000001" class="node">
<title>Node1</title>
<g id="a_Node000001"><a xlink:title=" ">
<polygon fill="#999999" stroke="#666666" points="581,-406 529,-406 529,-386.75 581,-386.75 581,-406"/>
<text text-anchor="middle" x="555" y="-392.5" font-family="Helvetica,sans-Serif" font-size="10.00">TPeak.h</text>
</a>
</g>
</g>
<!-- Node2 -->
<g id="Node000002" class="node">
<title>Node2</title>
<g id="a_Node000002"><a xlink:href="_g_root_commands_8cxx.html" target="_top" xlink:title=" ">
<polygon fill="white" stroke="#666666" points="135.88,-350.75 26.12,-350.75 26.12,-331.5 135.88,-331.5 135.88,-350.75"/>
<text text-anchor="middle" x="81" y="-337.25" font-family="Helvetica,sans-Serif" font-size="10.00">GRootCommands.cxx</text>
</a>
</g>
</g>
<!-- Node1&#45;&gt;Node2 -->
<g id="edge1_Node000001_Node000002" class="edge">
<title>Node1&#45;&gt;Node2</title>
<g id="a_edge1_Node000001_Node000002"><a xlink:title=" ">
<path fill="none" stroke="#63b8ff" d="M517.39,-391.61C445.16,-384.3 282.01,-367.44 145,-350.75 142.11,-350.4 139.14,-350.03 136.15,-349.65"/>
<polygon fill="#63b8ff" stroke="#63b8ff" points="516.78,-395.06 527.09,-392.58 517.49,-388.1 516.78,-395.06"/>
</a>
</g>
</g>
<!-- Node3 -->
<g id="Node000003" class="node">
<title>Node3</title>
<g id="a_Node000003"><a xlink:href="_gain_match_g_r_i_f_f_i_n_8cxx.html" target="_top" xlink:title=" ">
<polygon fill="white" stroke="#666666" points="273.75,-350.75 154.25,-350.75 154.25,-331.5 273.75,-331.5 273.75,-350.75"/>
<text text-anchor="middle" x="214" y="-337.25" font-family="Helvetica,sans-Serif" font-size="10.00">GainMatchGRIFFIN.cxx</text>
</a>
</g>
</g>
<!-- Node1&#45;&gt;Node3 -->
<g id="edge2_Node000001_Node000003" class="edge">
<title>Node1&#45;&gt;Node3</title>
<g id="a_edge2_Node000001_Node000003"><a xlink:title=" ">
<path fill="none" stroke="#63b8ff" d="M517.46,-389.51C458.21,-380.26 342.57,-362.2 272.41,-351.25"/>
<polygon fill="#63b8ff" stroke="#63b8ff" points="516.61,-392.92 527.03,-391.01 517.69,-386.01 516.61,-392.92"/>
</a>
</g>
</g>
<!-- Node4 -->
<g id="Node000004" class="node">
<title>Node4</title>
<g id="a_Node000004"><a xlink:href="_t_angular_correlation_8h.html" target="_top" xlink:title=" ">
<polygon fill="white" stroke="#666666" points="400.5,-350.75 291.5,-350.75 291.5,-331.5 400.5,-331.5 400.5,-350.75"/>
<text text-anchor="middle" x="346" y="-337.25" font-family="Helvetica,sans-Serif" font-size="10.00">TAngularCorrelation.h</text>
</a>
</g>
</g>
<!-- Node1&#45;&gt;Node4 -->
<g id="edge3_Node000001_Node000004" class="edge">
<title>Node1&#45;&gt;Node4</title>
<g id="a_edge3_Node000001_Node000004"><a xlink:title=" ">
<path fill="none" stroke="#63b8ff" d="M517.79,-385.89C479.3,-376.09 419.6,-360.88 381.68,-351.22"/>
<polygon fill="#63b8ff" stroke="#63b8ff" points="516.51,-389.18 527.06,-388.26 518.24,-382.4 516.51,-389.18"/>
</a>
</g>
</g>
<!-- Node6 -->
<g id="Node000006" class="node">
<title>Node6</title>
<g id="a_Node000006"><a xlink:href="_t_cal_point_8h.html" target="_top" xlink:title=" ">
<polygon fill="white" stroke="#666666" points="485.12,-350.75 418.88,-350.75 418.88,-331.5 485.12,-331.5 485.12,-350.75"/>
<text text-anchor="middle" x="452" y="-337.25" font-family="Helvetica,sans-Serif" font-size="10.00">TCalPoint.h</text>
</a>
</g>
</g>
<!-- Node1&#45;&gt;Node6 -->
<g id="edge5_Node000001_Node000006" class="edge">
<title>Node1&#45;&gt;Node6</title>
<g id="a_edge5_Node000001_Node000006"><a xlink:title=" ">
<path fill="none" stroke="#63b8ff" d="M527.41,-381.11C509.02,-371.61 485.42,-359.4 469.56,-351.2"/>
<polygon fill="#63b8ff" stroke="#63b8ff" points="525.69,-384.16 536.18,-385.65 528.91,-377.95 525.69,-384.16"/>
</a>
</g>
</g>
<!-- Node18 -->
<g id="Node000018" class="node">
<title>Node18</title>
<g id="a_Node000018"><a xlink:href="_t_efficiency_cal_8h.html" target="_top" xlink:title=" ">
<polygon fill="white" stroke="#666666" points="597.12,-350.75 512.88,-350.75 512.88,-331.5 597.12,-331.5 597.12,-350.75"/>
<text text-anchor="middle" x="555" y="-337.25" font-family="Helvetica,sans-Serif" font-size="10.00">TEfficiencyCal.h</text>
</a>
</g>
</g>
<!-- Node1&#45;&gt;Node18 -->
<g id="edge23_Node000001_Node000018" class="edge">
<title>Node1&#45;&gt;Node18</title>
<g id="a_edge23_Node000001_Node000018"><a xlink:title=" ">
<path fill="none" stroke="#63b8ff" d="M555,-375.13C555,-366.84 555,-357.67 555,-351.11"/>
<polygon fill="#63b8ff" stroke="#63b8ff" points="551.5,-375.07 555,-385.07 558.5,-375.07 551.5,-375.07"/>
</a>
</g>
</g>
<!-- Node20 -->
<g id="Node000020" class="node">
<title>Node20</title>
<g id="a_Node000020"><a xlink:href="_t_energy_cal_8h.html" target="_top" xlink:title=" ">
<polygon fill="white" stroke="#666666" points="693.5,-350.75 620.5,-350.75 620.5,-331.5 693.5,-331.5 693.5,-350.75"/>
<text text-anchor="middle" x="657" y="-337.25" font-family="Helvetica,sans-Serif" font-size="10.00">TEnergyCal.h</text>
</a>
</g>
</g>
<!-- Node1&#45;&gt;Node20 -->
<g id="edge25_Node000001_Node000020" class="edge">
<title>Node1&#45;&gt;Node20</title>
<g id="a_edge25_Node000001_Node000020"><a xlink:title=" ">
<path fill="none" stroke="#63b8ff" d="M582.33,-381.11C600.53,-371.61 623.91,-359.4 639.61,-351.2"/>
<polygon fill="#63b8ff" stroke="#63b8ff" points="580.89,-377.91 573.64,-385.64 584.13,-384.12 580.89,-377.91"/>
</a>
</g>
</g>
<!-- Node22 -->
<g id="Node000022" class="node">
<title>Node22</title>
<g id="a_Node000022"><a xlink:href="_t_gain_match_8h.html" target="_top" xlink:title=" ">
<polygon fill="white" stroke="#666666" points="796.38,-350.75 719.62,-350.75 719.62,-331.5 796.38,-331.5 796.38,-350.75"/>
<text text-anchor="middle" x="758" y="-337.25" font-family="Helvetica,sans-Serif" font-size="10.00">TGainMatch.h</text>
</a>
</g>
</g>
<!-- Node1&#45;&gt;Node22 -->
<g id="edge27_Node000001_Node000022" class="edge">
<title>Node1&#45;&gt;Node22</title>
<g id="a_edge27_Node000001_Node000022"><a xlink:title=" ">
<path fill="none" stroke="#63b8ff" d="M592.06,-385.65C629.53,-375.82 686.97,-360.76 723.5,-351.18"/>
<polygon fill="#63b8ff" stroke="#63b8ff" points="591.37,-382.22 582.59,-388.14 593.15,-388.99 591.37,-382.22"/>
</a>
</g>
</g>
<!-- Node25 -->
<g id="Node000025" class="node">
<title>Node25</title>
<g id="a_Node000025"><a xlink:href="_t_multi_peak_8h.html" target="_top" xlink:title=" ">
<polygon fill="white" stroke="#666666" points="887.5,-350.75 814.5,-350.75 814.5,-331.5 887.5,-331.5 887.5,-350.75"/>
<text text-anchor="middle" x="851" y="-337.25" font-family="Helvetica,sans-Serif" font-size="10.00">TMultiPeak.h</text>
</a>
</g>
</g>
<!-- Node1&#45;&gt;Node25 -->
<g id="edge30_Node000001_Node000025" class="edge">
<title>Node1&#45;&gt;Node25</title>
<g id="a_edge30_Node000001_Node000025"><a xlink:title=" ">
<path fill="none" stroke="#63b8ff" d="M592.56,-388.78C641.49,-380.15 729.68,-364.53 805,-350.75 808.04,-350.19 811.19,-349.61 814.35,-349.03"/>
<polygon fill="#63b8ff" stroke="#63b8ff" points="592.02,-385.32 582.78,-390.5 593.23,-392.21 592.02,-385.32"/>
</a>
</g>
</g>
<!-- Node27 -->
<g id="Node000027" class="node">
<title>Node27</title>
<g id="a_Node000027"><a xlink:href="_t_peak_8cxx.html" target="_top" xlink:title=" ">
<polygon fill="white" stroke="#666666" points="966.5,-350.75 905.5,-350.75 905.5,-331.5 966.5,-331.5 966.5,-350.75"/>
<text text-anchor="middle" x="936" y="-337.25" font-family="Helvetica,sans-Serif" font-size="10.00">TPeak.cxx</text>
</a>
</g>
</g>
<!-- Node1&#45;&gt;Node27 -->
<g id="edge32_Node000001_Node000027" class="edge">
<title>Node1&#45;&gt;Node27</title>
<g id="a_edge32_Node000001_Node000027"><a xlink:title=" ">
<path fill="none" stroke="#63b8ff" d="M592.63,-391.56C655.79,-384.91 787.02,-370.05 897,-350.75 899.73,-350.27 902.56,-349.73 905.39,-349.16"/>
<polygon fill="#63b8ff" stroke="#63b8ff" points="592.38,-388.07 582.8,-392.58 593.11,-395.03 592.38,-388.07"/>
</a>
</g>
</g>
<!-- Node5 -->
<g id="Node000005" class="node">
<title>Node5</title>
<g id="a_Node000005"><a xlink:href="_t_angular_correlation_8cxx.html" target="_top" xlink:title=" ">
<polygon fill="white" stroke="#666666" points="118,-295.5 0,-295.5 0,-276.25 118,-276.25 118,-295.5"/>
<text text-anchor="middle" x="59" y="-282" font-family="Helvetica,sans-Serif" font-size="10.00">TAngularCorrelation.cxx</text>
</a>
</g>
</g>
<!-- Node4&#45;&gt;Node5 -->
<g id="edge4_Node000004_Node000005" class="edge">
<title>Node4&#45;&gt;Node5</title>
<g id="a_edge4_Node000004_Node000005"><a xlink:title=" ">
<path fill="none" stroke="#63b8ff" d="M285.74,-328.94C232.87,-319.14 156.96,-305.05 107.81,-295.93"/>
<polygon fill="#63b8ff" stroke="#63b8ff" points="285.03,-332.37 295.5,-330.76 286.31,-325.49 285.03,-332.37"/>
</a>
</g>
</g>
<!-- Node7 -->
<g id="Node000007" class="node">
<title>Node7</title>
<g id="a_Node000007"><a xlink:href="_t_cal_graph_8h.html" target="_top" xlink:title=" ">
<polygon fill="white" stroke="#666666" points="437,-185 367,-185 367,-165.75 437,-165.75 437,-185"/>
<text text-anchor="middle" x="402" y="-171.5" font-family="Helvetica,sans-Serif" font-size="10.00">TCalGraph.h</text>
</a>
</g>
</g>
<!-- Node6&#45;&gt;Node7 -->
<g id="edge6_Node000006_Node000007" class="edge">
<title>Node6&#45;&gt;Node7</title>
<g id="a_edge6_Node000006_Node000007"><a xlink:title=" ">
<path fill="none" stroke="#63b8ff" d="M458,-320.11C464.21,-295.49 471.09,-253.04 456,-221 448.54,-205.16 432.39,-193.02 419.68,-185.43"/>
<polygon fill="#63b8ff" stroke="#63b8ff" points="454.62,-319.17 455.33,-329.74 461.37,-321.04 454.62,-319.17"/>
</a>
</g>
</g>
<!-- Node9 -->
<g id="Node000009" class="node">
<title>Node9</title>
<g id="a_Node000009"><a xlink:href="_t_efficiency_graph_8h.html" target="_top" xlink:title=" ">
<polygon fill="white" stroke="#666666" points="255.12,-129.75 158.88,-129.75 158.88,-110.5 255.12,-110.5 255.12,-129.75"/>
<text text-anchor="middle" x="207" y="-116.25" font-family="Helvetica,sans-Serif" font-size="10.00">TEfficiencyGraph.h</text>
</a>
</g>
</g>
<!-- Node6&#45;&gt;Node9 -->
<g id="edge21_Node000006_Node000009" class="edge">
<title>Node6&#45;&gt;Node9</title>
<g id="a_edge21_Node000006_Node000009"><a xlink:title=" ">
<path fill="none" stroke="#63b8ff" d="M407.42,-331.35C326.22,-317.46 294.45,-338.08 229,-295.5 178.19,-262.45 174.33,-225.02 187,-165.75 189.81,-152.63 196.77,-138.71 201.68,-129.97"/>
<polygon fill="#63b8ff" stroke="#63b8ff" points="406.71,-334.78 417.18,-333.16 407.99,-327.89 406.71,-334.78"/>
</a>
</g>
</g>
<!-- Node13 -->
<g id="Node000013" class="node">
<title>Node13</title>
<g id="a_Node000013"><a xlink:href="_t_cal_list_8h.html" target="_top" xlink:title=" ">
<polygon fill="white" stroke="#666666" points="392.12,-295.5 331.88,-295.5 331.88,-276.25 392.12,-276.25 392.12,-295.5"/>
<text text-anchor="middle" x="362" y="-282" font-family="Helvetica,sans-Serif" font-size="10.00">TCalList.h</text>
</a>
</g>
</g>
<!-- Node6&#45;&gt;Node13 -->
<g id="edge12_Node000006_Node000013" class="edge">
<title>Node6&#45;&gt;Node13</title>
<g id="a_edge12_Node000006_Node000013"><a xlink:title=" ">
<path fill="none" stroke="#63b8ff" d="M426.98,-325.32C411.06,-315.9 390.94,-304 377.34,-295.95"/>
<polygon fill="#63b8ff" stroke="#63b8ff" points="425.04,-328.24 435.43,-330.32 428.61,-322.22 425.04,-328.24"/>
</a>
</g>
</g>
<!-- Node16 -->
<g id="Node000016" class="node">
<title>Node16</title>
<g id="a_Node000016"><a xlink:href="_t_source_list_8cxx.html" target="_top" xlink:title=" ">
<polygon fill="white" stroke="#666666" points="346.88,-185 261.12,-185 261.12,-165.75 346.88,-165.75 346.88,-185"/>
<text text-anchor="middle" x="304" y="-171.5" font-family="Helvetica,sans-Serif" font-size="10.00">TSourceList.cxx</text>
</a>
</g>
</g>
<!-- Node6&#45;&gt;Node16 -->
<g id="edge22_Node000006_Node000016" class="edge">
<title>Node6&#45;&gt;Node16</title>
<g id="a_edge22_Node000006_Node000016"><a xlink:title=" ">
<path fill="none" stroke="#63b8ff" d="M445.02,-320.78C435.03,-295.29 414.53,-250.27 385,-221 368.81,-204.95 345.66,-192.98 328.25,-185.49"/>
<polygon fill="#63b8ff" stroke="#63b8ff" points="441.64,-321.74 448.44,-329.87 448.19,-319.27 441.64,-321.74"/>
</a>
</g>
</g>
<!-- Node17 -->
<g id="Node000017" class="node">
<title>Node17</title>
<g id="a_Node000017"><a xlink:href="_t_cal_point_8cxx.html" target="_top" xlink:title=" ">
<polygon fill="white" stroke="#666666" points="313.62,-295.5 238.38,-295.5 238.38,-276.25 313.62,-276.25 313.62,-295.5"/>
<text text-anchor="middle" x="276" y="-282" font-family="Helvetica,sans-Serif" font-size="10.00">TCalPoint.cxx</text>
</a>
</g>
</g>
<!-- Node6&#45;&gt;Node17 -->
<g id="edge20_Node000006_Node000017" class="edge">
<title>Node6&#45;&gt;Node17</title>
<g id="a_edge20_Node000006_Node000017"><a xlink:title=" ">
<path fill="none" stroke="#63b8ff" d="M411.31,-327.82C379.16,-318.09 335,-304.73 306,-295.95"/>
<polygon fill="#63b8ff" stroke="#63b8ff" points="410.11,-331.11 420.7,-330.65 412.14,-324.41 410.11,-331.11"/>
</a>
</g>
</g>
<!-- Node8 -->
<g id="Node000008" class="node">
<title>Node8</title>
<g id="a_Node000008"><a xlink:href="_t_cal_graph_8cxx.html" target="_top" xlink:title=" ">
<polygon fill="white" stroke="#666666" points="441.5,-129.75 362.5,-129.75 362.5,-110.5 441.5,-110.5 441.5,-129.75"/>
<text text-anchor="middle" x="402" y="-116.25" font-family="Helvetica,sans-Serif" font-size="10.00">TCalGraph.cxx</text>
</a>
</g>
</g>
<!-- Node7&#45;&gt;Node8 -->
<g id="edge7_Node000007_Node000008" class="edge">
<title>Node7&#45;&gt;Node8</title>
<g id="a_edge7_Node000007_Node000008"><a xlink:title=" ">
<path fill="none" stroke="#63b8ff" d="M402,-154.13C402,-145.84 402,-136.67 402,-130.11"/>
<polygon fill="#63b8ff" stroke="#63b8ff" points="398.5,-154.07 402,-164.07 405.5,-154.07 398.5,-154.07"/>
</a>
</g>
</g>
<!-- Node7&#45;&gt;Node9 -->
<g id="edge8_Node000007_Node000009" class="edge">
<title>Node7&#45;&gt;Node9</title>
<g id="a_edge8_Node000007_Node000009"><a xlink:title=" ">
<path fill="none" stroke="#63b8ff" d="M357.85,-162.32C322.15,-152.57 272.65,-139.05 240.24,-130.2"/>
<polygon fill="#63b8ff" stroke="#63b8ff" points="356.89,-165.69 367.46,-164.94 358.74,-158.93 356.89,-165.69"/>
</a>
</g>
</g>
<!-- Node10 -->
<g id="Node000010" class="node">
<title>Node10</title>
<g id="a_Node000010"><a xlink:href="_t_efficiency_calibration_8h.html" target="_top" xlink:title=" ">
<polygon fill="white" stroke="#666666" points="200.88,-74.5 85.12,-74.5 85.12,-55.25 200.88,-55.25 200.88,-74.5"/>
<text text-anchor="middle" x="143" y="-61" font-family="Helvetica,sans-Serif" font-size="10.00">TEfficiencyCalibration.h</text>
</a>
</g>
</g>
<!-- Node9&#45;&gt;Node10 -->
<g id="edge9_Node000009_Node000010" class="edge">
<title>Node9&#45;&gt;Node10</title>
<g id="a_edge9_Node000009_Node000010"><a xlink:title=" ">
<path fill="none" stroke="#63b8ff" d="M187.52,-102.91C176.4,-93.67 162.9,-82.43 153.7,-74.77"/>
<polygon fill="#63b8ff" stroke="#63b8ff" points="185.05,-105.42 194.98,-109.12 189.53,-100.04 185.05,-105.42"/>
</a>
</g>
</g>
<!-- Node12 -->
<g id="Node000012" class="node">
<title>Node12</title>
<g id="a_Node000012"><a xlink:href="_t_efficiency_graph_8cxx.html" target="_top" xlink:title=" ">
<polygon fill="white" stroke="#666666" points="324.62,-74.5 219.38,-74.5 219.38,-55.25 324.62,-55.25 324.62,-74.5"/>
<text text-anchor="middle" x="272" y="-61" font-family="Helvetica,sans-Serif" font-size="10.00">TEfficiencyGraph.cxx</text>
</a>
</g>
</g>
<!-- Node9&#45;&gt;Node12 -->
<g id="edge11_Node000009_Node000012" class="edge">
<title>Node9&#45;&gt;Node12</title>
<g id="a_edge11_Node000009_Node000012"><a xlink:title=" ">
<path fill="none" stroke="#63b8ff" d="M226.79,-102.91C238.08,-93.67 251.79,-82.43 261.14,-74.77"/>
<polygon fill="#63b8ff" stroke="#63b8ff" points="224.71,-100.09 219.2,-109.13 229.15,-105.5 224.71,-100.09"/>
</a>
</g>
</g>
<!-- Node11 -->
<g id="Node000011" class="node">
<title>Node11</title>
<g id="a_Node000011"><a xlink:href="_t_efficiency_calibration_8cxx.html" target="_top" xlink:title=" ">
<polygon fill="white" stroke="#666666" points="205.38,-19.25 80.62,-19.25 80.62,0 205.38,0 205.38,-19.25"/>
<text text-anchor="middle" x="143" y="-5.75" font-family="Helvetica,sans-Serif" font-size="10.00">TEfficiencyCalibration.cxx</text>
</a>
</g>
</g>
<!-- Node10&#45;&gt;Node11 -->
<g id="edge10_Node000010_Node000011" class="edge">
<title>Node10&#45;&gt;Node11</title>
<g id="a_edge10_Node000010_Node000011"><a xlink:title=" ">
<path fill="none" stroke="#63b8ff" d="M143,-43.63C143,-35.34 143,-26.17 143,-19.61"/>
<polygon fill="#63b8ff" stroke="#63b8ff" points="139.5,-43.57 143,-53.57 146.5,-43.57 139.5,-43.57"/>
</a>
</g>
</g>
<!-- Node13&#45;&gt;Node7 -->
<g id="edge13_Node000013_Node000007" class="edge">
<title>Node13&#45;&gt;Node7</title>
<g id="a_edge13_Node000013_Node000007"><a xlink:title=" ">
<path fill="none" stroke="#63b8ff" d="M372.85,-266.05C377.04,-258.24 381.63,-248.98 385,-240.25 392.35,-221.19 397.7,-197.76 400.27,-185.24"/>
<polygon fill="#63b8ff" stroke="#63b8ff" points="369.9,-264.15 368.09,-274.59 376.02,-267.56 369.9,-264.15"/>
</a>
</g>
</g>
<!-- Node13&#45;&gt;Node9 -->
<g id="edge15_Node000013_Node000009" class="edge">
<title>Node13&#45;&gt;Node9</title>
<g id="a_edge15_Node000013_Node000009"><a xlink:title=" ">
<path fill="none" stroke="#63b8ff" d="M320.42,-274.53C274.54,-262.92 206.65,-245.07 203,-240.25 177.63,-206.77 195.01,-151.48 203.29,-130.02"/>
<polygon fill="#63b8ff" stroke="#63b8ff" points="319.53,-277.91 330.09,-276.96 321.24,-271.13 319.53,-277.91"/>
</a>
</g>
</g>
<!-- Node14 -->
<g id="Node000014" class="node">
<title>Node14</title>
<g id="a_Node000014"><a xlink:href="_t_cal_list_8cxx.html" target="_top" xlink:title=" ">
<polygon fill="white" stroke="#666666" points="375.62,-240.25 306.38,-240.25 306.38,-221 375.62,-221 375.62,-240.25"/>
<text text-anchor="middle" x="341" y="-226.75" font-family="Helvetica,sans-Serif" font-size="10.00">TCalList.cxx</text>
</a>
</g>
</g>
<!-- Node13&#45;&gt;Node14 -->
<g id="edge14_Node000013_Node000014" class="edge">
<title>Node13&#45;&gt;Node14</title>
<g id="a_edge14_Node000013_Node000014"><a xlink:title=" ">
<path fill="none" stroke="#63b8ff" d="M354.36,-265.5C351,-256.99 347.22,-247.4 344.54,-240.61"/>
<polygon fill="#63b8ff" stroke="#63b8ff" points="351.05,-266.66 357.98,-274.67 357.56,-264.09 351.05,-266.66"/>
</a>
</g>
</g>
<!-- Node15 -->
<g id="Node000015" class="node">
<title>Node15</title>
<g id="a_Node000015"><a xlink:href="_t_source_list_8h.html" target="_top" xlink:title=" ">
<polygon fill="white" stroke="#666666" points="288.38,-240.25 211.62,-240.25 211.62,-221 288.38,-221 288.38,-240.25"/>
<text text-anchor="middle" x="250" y="-226.75" font-family="Helvetica,sans-Serif" font-size="10.00">TSourceList.h</text>
</a>
</g>
</g>
<!-- Node13&#45;&gt;Node15 -->
<g id="edge16_Node000013_Node000015" class="edge">
<title>Node13&#45;&gt;Node15</title>
<g id="a_edge16_Node000013_Node000015"><a xlink:title=" ">
<path fill="none" stroke="#63b8ff" d="M332.83,-271.01C312.73,-261.45 286.58,-249.02 269.09,-240.7"/>
<polygon fill="#63b8ff" stroke="#63b8ff" points="331.1,-274.06 341.63,-275.19 334.11,-267.74 331.1,-274.06"/>
</a>
</g>
</g>
<!-- Node15&#45;&gt;Node7 -->
<g id="edge17_Node000015_Node000007" class="edge">
<title>Node15&#45;&gt;Node7</title>
<g id="a_edge17_Node000015_Node000007"><a xlink:title=" ">
<path fill="none" stroke="#63b8ff" d="M286.6,-216.8C314.24,-207.12 351.48,-194.07 376.09,-185.45"/>
<polygon fill="#63b8ff" stroke="#63b8ff" points="285.49,-213.48 277.21,-220.09 287.81,-220.09 285.49,-213.48"/>
</a>
</g>
</g>
<!-- Node15&#45;&gt;Node9 -->
<g id="edge18_Node000015_Node000009" class="edge">
<title>Node15&#45;&gt;Node9</title>
<g id="a_edge18_Node000015_Node000009"><a xlink:title=" ">
<path fill="none" stroke="#63b8ff" d="M242.32,-210.26C232.95,-186.62 217.51,-147.63 210.57,-130.13"/>
<polygon fill="#63b8ff" stroke="#63b8ff" points="238.99,-211.33 245.92,-219.34 245.49,-208.75 238.99,-211.33"/>
</a>
</g>
</g>
<!-- Node15&#45;&gt;Node16 -->
<g id="edge19_Node000015_Node000016" class="edge">
<title>Node15&#45;&gt;Node16</title>
<g id="a_edge19_Node000015_Node000016"><a xlink:title=" ">
<path fill="none" stroke="#63b8ff" d="M267.04,-212.82C276.26,-203.73 287.29,-192.85 294.89,-185.36"/>
<polygon fill="#63b8ff" stroke="#63b8ff" points="264.66,-210.26 259.99,-219.77 269.57,-215.24 264.66,-210.26"/>
</a>
</g>
</g>
<!-- Node19 -->
<g id="Node000019" class="node">
<title>Node19</title>
<g id="a_Node000019"><a xlink:href="_t_efficiency_cal_8cxx.html" target="_top" xlink:title=" ">
<polygon fill="white" stroke="#666666" points="601.62,-295.5 508.38,-295.5 508.38,-276.25 601.62,-276.25 601.62,-295.5"/>
<text text-anchor="middle" x="555" y="-282" font-family="Helvetica,sans-Serif" font-size="10.00">TEfficiencyCal.cxx</text>
</a>
</g>
</g>
<!-- Node18&#45;&gt;Node19 -->
<g id="edge24_Node000018_Node000019" class="edge">
<title>Node18&#45;&gt;Node19</title>
<g id="a_edge24_Node000018_Node000019"><a xlink:title=" ">
<path fill="none" stroke="#63b8ff" d="M555,-319.88C555,-311.59 555,-302.42 555,-295.86"/>
<polygon fill="#63b8ff" stroke="#63b8ff" points="551.5,-319.82 555,-329.82 558.5,-319.82 551.5,-319.82"/>
</a>
</g>
</g>
<!-- Node21 -->
<g id="Node000021" class="node">
<title>Node21</title>
<g id="a_Node000021"><a xlink:href="_t_energy_cal_8cxx.html" target="_top" xlink:title=" ">
<polygon fill="white" stroke="#666666" points="702,-295.5 620,-295.5 620,-276.25 702,-276.25 702,-295.5"/>
<text text-anchor="middle" x="661" y="-282" font-family="Helvetica,sans-Serif" font-size="10.00">TEnergyCal.cxx</text>
</a>
</g>
</g>
<!-- Node20&#45;&gt;Node21 -->
<g id="edge26_Node000020_Node000021" class="edge">
<title>Node20&#45;&gt;Node21</title>
<g id="a_edge26_Node000020_Node000021"><a xlink:title=" ">
<path fill="none" stroke="#63b8ff" d="M658.52,-319.88C659.14,-311.59 659.83,-302.42 660.33,-295.86"/>
<polygon fill="#63b8ff" stroke="#63b8ff" points="655.03,-319.59 657.77,-329.82 662.01,-320.11 655.03,-319.59"/>
</a>
</g>
</g>
<!-- Node23 -->
<g id="Node000023" class="node">
<title>Node23</title>
<g id="a_Node000023"><a xlink:href="_t_gain_match_8cxx.html" target="_top" xlink:title=" ">
<polygon fill="white" stroke="#666666" points="914.88,-295.5 829.12,-295.5 829.12,-276.25 914.88,-276.25 914.88,-295.5"/>
<text text-anchor="middle" x="872" y="-282" font-family="Helvetica,sans-Serif" font-size="10.00">TGainMatch.cxx</text>
</a>
</g>
</g>
<!-- Node22&#45;&gt;Node23 -->
<g id="edge28_Node000022_Node000023" class="edge">
<title>Node22&#45;&gt;Node23</title>
<g id="a_edge28_Node000022_Node000023"><a xlink:title=" ">
<path fill="none" stroke="#63b8ff" d="M787.69,-326.26C808.15,-316.7 834.77,-304.27 852.57,-295.95"/>
<polygon fill="#63b8ff" stroke="#63b8ff" points="786.29,-323.05 778.71,-330.45 789.25,-329.39 786.29,-323.05"/>
</a>
</g>
</g>
<!-- Node24 -->
<g id="Node000024" class="node">
<title>Node24</title>
<g id="a_Node000024"><a xlink:href="tac__calibrator_8cxx.html" target="_top" xlink:title=" ">
<polygon fill="white" stroke="#666666" points="811.5,-295.5 720.5,-295.5 720.5,-276.25 811.5,-276.25 811.5,-295.5"/>
<text text-anchor="middle" x="766" y="-282" font-family="Helvetica,sans-Serif" font-size="10.00">tac_calibrator.cxx</text>
</a>
</g>
</g>
<!-- Node22&#45;&gt;Node24 -->
<g id="edge29_Node000022_Node000024" class="edge">
<title>Node22&#45;&gt;Node24</title>
<g id="a_edge29_Node000022_Node000024"><a xlink:title=" ">
<path fill="none" stroke="#63b8ff" d="M761,-320.17C762.25,-311.8 763.65,-302.5 764.65,-295.86"/>
<polygon fill="#63b8ff" stroke="#63b8ff" points="757.57,-319.43 759.55,-329.84 764.49,-320.47 757.57,-319.43"/>
</a>
</g>
</g>
<!-- Node26 -->
<g id="Node000026" class="node">
<title>Node26</title>
<g id="a_Node000026"><a xlink:href="_t_multi_peak_8cxx.html" target="_top" xlink:title=" ">
<polygon fill="white" stroke="#666666" points="1015,-295.5 933,-295.5 933,-276.25 1015,-276.25 1015,-295.5"/>
<text text-anchor="middle" x="974" y="-282" font-family="Helvetica,sans-Serif" font-size="10.00">TMultiPeak.cxx</text>
</a>
</g>
</g>
<!-- Node25&#45;&gt;Node26 -->
<g id="edge31_Node000025_Node000026" class="edge">
<title>Node25&#45;&gt;Node26</title>
<g id="a_edge31_Node000025_Node000026"><a xlink:title=" ">
<path fill="none" stroke="#63b8ff" d="M882.42,-326.52C904.58,-316.93 933.65,-304.34 953.03,-295.95"/>
<polygon fill="#63b8ff" stroke="#63b8ff" points="881.04,-323.31 873.25,-330.49 883.82,-329.73 881.04,-323.31"/>
</a>
</g>
</g>
</g>
</svg>
