<?xml version="1.0" encoding="UTF-8" standalone="no"?>
<!DOCTYPE svg PUBLIC "-//W3C//DTD SVG 1.1//EN"
 "http://www.w3.org/Graphics/SVG/1.1/DTD/svg11.dtd">
<!-- Generated by graphviz version 9.0.0 (20230911.1827)
 -->
<!-- Title: TPeak.h Pages: 1 -->
<!--zoomable 248 -->

<svg id="main" version="1.1" xmlns="http://www.w3.org/2000/svg" xmlns:xlink="http://www.w3.org/1999/xlink" xml:space="preserve" onload="init(evt)">
<style type="text/css"><![CDATA[
.node, .edge {opacity: 0.7;}
.node.selected, .edge.selected {opacity: 1;}
.edge:hover path { stroke: red; }
.edge:hover polygon { stroke: red; fill: red; }
]]></style>

<defs>
  <circle id="rim" cx="0" cy="0" r="7"/>
  <circle id="rim2" cx="0" cy="0" r="3.5"/>
  <g id="zoomPlus">
    <use xlink:href="#rim" fill="#404040"><set attributeName="fill" to="#808080" begin="zoomplus.mouseover" end="zoomplus.mouseout"/></use>
    <path d="M-4,0h8M0,-4v8" fill="none" stroke="white" stroke-width="1.5" pointer-events="none"/>
  </g>
  <g id="zoomMin">
    <use xlink:href="#rim" fill="#404040"><set attributeName="fill" to="#808080" begin="zoomminus.mouseover" end="zoomminus.mouseout"/></use>
    <path d="M-4,0h8" fill="none" stroke="white" stroke-width="1.5" pointer-events="none"/>
  </g>
  <g id="arrowUp" transform="translate(30 24)">
    <use xlink:href="#rim"/>
    <path pointer-events="none" fill="none" stroke="white" stroke-width="1.5" d="M0,-3.0v7 M-2.5,-0.5L0,-3.0L2.5,-0.5"/>
  </g>
  <g id="arrowRight" transform="rotate(90) translate(36 -43)">
    <use xlink:href="#rim"/>
    <path pointer-events="none" fill="none" stroke="white" stroke-width="1.5" d="M0,-3.0v7 M-2.5,-0.5L0,-3.0L2.5,-0.5"/>
  </g>
  <g id="arrowDown" transform="rotate(180) translate(-30 -48)">
    <use xlink:href="#rim"/>
    <path pointer-events="none" fill="none" stroke="white" stroke-width="1.5" d="M0,-3.0v7 M-2.5,-0.5L0,-3.0L2.5,-0.5"/>
  </g>
  <g id="arrowLeft" transform="rotate(270) translate(-36 17)">
    <use xlink:href="#rim"/>
    <path pointer-events="none" fill="none" stroke="white" stroke-width="1.5" d="M0,-3.0v7 M-2.5,-0.5L0,-3.0L2.5,-0.5"/>
  </g>
  <g id="resetDef">
    <use xlink:href="#rim2" fill="#404040"><set attributeName="fill" to="#808080" begin="reset.mouseover" end="reset.mouseout"/></use>
  </g>
</defs>
<script type="application/ecmascript">
var viewWidth = 1450;
var viewHeight = 248;
var sectionId = 'dynsection-0';
</script>
<script type="application/ecmascript" xlink:href="svg.min.js"/>
<svg id="graph" class="graph">
<g id="viewport">
<title>TPeak.h</title>
<!-- Node1 -->
<g id="Node000001" class="node">
<title>Node1</title>
<g id="a_Node000001"><a xlink:title=" ">
<polygon fill="#999999" stroke="#666666" points="555,-240.25 503,-240.25 503,-221 555,-221 555,-240.25"/>
<text text-anchor="middle" x="529" y="-226.75" font-family="Helvetica,sans-Serif" font-size="10.00">TPeak.h</text>
</a>
</g>
</g>
<!-- Node2 -->
<g id="Node000002" class="node">
<title>Node2</title>
<g id="a_Node000002"><a xlink:title=" ">
<polygon fill="#e0e0e0" stroke="#999999" points="40,-19.25 0,-19.25 0,0 40,0 40,-19.25"/>
<text text-anchor="middle" x="20" y="-5.75" font-family="Helvetica,sans-Serif" font-size="10.00">string</text>
</a>
</g>
</g>
<!-- Node1&#45;&gt;Node2 -->
<g id="edge1_Node000001_Node000002" class="edge">
<title>Node1&#45;&gt;Node2</title>
<g id="a_edge1_Node000001_Node000002"><a xlink:title=" ">
<path fill="none" stroke="#63b8ff" d="M502.55,-228.48C450.49,-225.61 331.56,-215.92 237,-185 141.22,-153.68 100.75,-154.14 39,-74.5 29.12,-61.76 24.37,-43.96 22.09,-30.39"/>
<polygon fill="#63b8ff" stroke="#63b8ff" points="25.61,-30.33 20.81,-20.88 18.67,-31.26 25.61,-30.33"/>
</a>
</g>
</g>
<!-- Node3 -->
<g id="Node000003" class="node">
<title>Node3</title>
<g id="a_Node000003"><a xlink:title=" ">
<polygon fill="#e0e0e0" stroke="#999999" points="1367.88,-185 1312.12,-185 1312.12,-165.75 1367.88,-165.75 1367.88,-185"/>
<text text-anchor="middle" x="1340" y="-171.5" font-family="Helvetica,sans-Serif" font-size="10.00">algorithm</text>
</a>
</g>
</g>
<!-- Node1&#45;&gt;Node3 -->
<g id="edge2_Node000001_Node000003" class="edge">
<title>Node1&#45;&gt;Node3</title>
<g id="a_edge2_Node000001_Node000003"><a xlink:title=" ">
<path fill="none" stroke="#63b8ff" d="M555.35,-229.47C653.72,-228.61 1008.6,-222.91 1298,-185 1298.83,-184.89 1299.67,-184.78 1300.51,-184.65"/>
<polygon fill="#63b8ff" stroke="#63b8ff" points="1300.86,-188.14 1310.14,-183.03 1299.69,-181.24 1300.86,-188.14"/>
</a>
</g>
</g>
<!-- Node4 -->
<g id="Node000004" class="node">
<title>Node4</title>
<g id="a_Node000004"><a xlink:title=" ">
<polygon fill="#e0e0e0" stroke="#999999" points="209.38,-129.75 168.62,-129.75 168.62,-110.5 209.38,-110.5 209.38,-129.75"/>
<text text-anchor="middle" x="189" y="-116.25" font-family="Helvetica,sans-Serif" font-size="10.00">TF1.h</text>
</a>
</g>
</g>
<!-- Node1&#45;&gt;Node4 -->
<g id="edge3_Node000001_Node000004" class="edge">
<title>Node1&#45;&gt;Node4</title>
<g id="a_edge3_Node000001_Node000004"><a xlink:title=" ">
<path fill="none" stroke="#63b8ff" d="M502.6,-221.2C440.8,-201.48 286.94,-152.38 220.44,-131.16"/>
<polygon fill="#63b8ff" stroke="#63b8ff" points="221.84,-127.93 211.25,-128.23 219.72,-134.6 221.84,-127.93"/>
</a>
</g>
</g>
<!-- Node5 -->
<g id="Node000005" class="node">
<title>Node5</title>
<g id="a_Node000005"><a xlink:title=" ">
<polygon fill="#e0e0e0" stroke="#999999" points="129.62,-74.5 48.38,-74.5 48.38,-55.25 129.62,-55.25 129.62,-74.5"/>
<text text-anchor="middle" x="89" y="-61" font-family="Helvetica,sans-Serif" font-size="10.00">TFitResultPtr.h</text>
</a>
</g>
</g>
<!-- Node1&#45;&gt;Node5 -->
<g id="edge4_Node000001_Node000005" class="edge">
<title>Node1&#45;&gt;Node5</title>
<g id="a_edge4_Node000001_Node000005"><a xlink:title=" ">
<path fill="none" stroke="#63b8ff" d="M502.67,-227.11C439.63,-220.16 276.63,-196.53 160,-129.75 138.28,-117.31 117.49,-97.34 104.09,-83.04"/>
<polygon fill="#63b8ff" stroke="#63b8ff" points="106.74,-80.76 97.43,-75.71 101.56,-85.47 106.74,-80.76"/>
</a>
</g>
</g>
<!-- Node6 -->
<g id="Node000006" class="node">
<title>Node6</title>
<g id="a_Node000006"><a xlink:title=" ">
<polygon fill="#e0e0e0" stroke="#999999" points="957.25,-74.5 888.75,-74.5 888.75,-55.25 957.25,-55.25 957.25,-74.5"/>
<text text-anchor="middle" x="923" y="-61" font-family="Helvetica,sans-Serif" font-size="10.00">TFitResult.h</text>
</a>
</g>
</g>
<!-- Node1&#45;&gt;Node6 -->
<g id="edge5_Node000001_Node000006" class="edge">
<title>Node1&#45;&gt;Node6</title>
<g id="a_edge5_Node000001_Node000006"><a xlink:title=" ">
<path fill="none" stroke="#63b8ff" d="M555.4,-228.07C681.35,-220.37 1217.12,-184.56 1265,-129.75 1304.94,-84.02 1071.23,-70.72 969.04,-67.12"/>
<polygon fill="#63b8ff" stroke="#63b8ff" points="969.17,-63.62 959.06,-66.79 968.94,-70.62 969.17,-63.62"/>
</a>
</g>
</g>
<!-- Node7 -->
<g id="Node000007" class="node">
<title>Node7</title>
<g id="a_Node000007"><a xlink:title=" ">
<polygon fill="#e0e0e0" stroke="#999999" points="1441.88,-185 1386.12,-185 1386.12,-165.75 1441.88,-165.75 1441.88,-185"/>
<text text-anchor="middle" x="1414" y="-171.5" font-family="Helvetica,sans-Serif" font-size="10.00">TGraph.h</text>
</a>
</g>
</g>
<!-- Node1&#45;&gt;Node7 -->
<g id="edge6_Node000001_Node000007" class="edge">
<title>Node1&#45;&gt;Node7</title>
<g id="a_edge6_Node000001_Node000007"><a xlink:title=" ">
<path fill="none" stroke="#63b8ff" d="M555.18,-229.92C658.34,-230.75 1046.65,-230.57 1374.66,-185.05"/>
<polygon fill="#63b8ff" stroke="#63b8ff" points="1374.9,-188.55 1384.32,-183.7 1373.93,-181.62 1374.9,-188.55"/>
</a>
</g>
</g>
<!-- Node8 -->
<g id="Node000008" class="node">
<title>Node8</title>
<g id="a_Node000008"><a xlink:href="_t_g_r_s_i_functions_8h.html" target="_top" xlink:title=" ">
<polygon fill="white" stroke="#666666" points="361.12,-129.75 264.88,-129.75 264.88,-110.5 361.12,-110.5 361.12,-129.75"/>
<text text-anchor="middle" x="313" y="-116.25" font-family="Helvetica,sans-Serif" font-size="10.00">TGRSIFunctions.h</text>
</a>
</g>
</g>
<!-- Node1&#45;&gt;Node8 -->
<g id="edge7_Node000001_Node000008" class="edge">
<title>Node1&#45;&gt;Node8</title>
<g id="a_edge7_Node000001_Node000008"><a xlink:title=" ">
<path fill="none" stroke="#63b8ff" d="M510.96,-220.56C473.39,-201.69 386.55,-158.07 341.41,-135.4"/>
<polygon fill="#63b8ff" stroke="#63b8ff" points="343,-132.28 332.5,-130.92 339.86,-138.54 343,-132.28"/>
</a>
</g>
</g>
<!-- Node32 -->
<g id="Node000032" class="node">
<title>Node32</title>
<g id="a_Node000032"><a xlink:href="_t_g_r_s_i_fit_8h.html" target="_top" xlink:title=" ">
<polygon fill="white" stroke="#666666" points="661.38,-185 596.62,-185 596.62,-165.75 661.38,-165.75 661.38,-185"/>
<text text-anchor="middle" x="629" y="-171.5" font-family="Helvetica,sans-Serif" font-size="10.00">TGRSIFit.h</text>
</a>
</g>
</g>
<!-- Node1&#45;&gt;Node32 -->
<g id="edge36_Node000001_Node000032" class="edge">
<title>Node1&#45;&gt;Node32</title>
<g id="a_edge36_Node000001_Node000032"><a xlink:title=" ">
<path fill="none" stroke="#63b8ff" d="M545.96,-220.59C561.26,-212.44 584.03,-200.32 601.86,-190.83"/>
<polygon fill="#63b8ff" stroke="#63b8ff" points="603.44,-193.95 610.62,-186.16 600.15,-187.77 603.44,-193.95"/>
</a>
</g>
</g>
<!-- Node8&#45;&gt;Node2 -->
<g id="edge10_Node000008_Node000002" class="edge">
<title>Node8&#45;&gt;Node2</title>
<g id="a_edge10_Node000008_Node000002"><a xlink:title=" ">
<path fill="none" stroke="#63b8ff" d="M276.85,-110.06C247.87,-102.24 206.5,-89.8 172,-74.5 156.48,-67.62 154.34,-62.53 139,-55.25 109.92,-41.44 75.34,-28.88 50.97,-20.62"/>
<polygon fill="#63b8ff" stroke="#63b8ff" points="52.25,-17.36 41.66,-17.52 50.03,-24 52.25,-17.36"/>
</a>
</g>
</g>
<!-- Node8&#45;&gt;Node5 -->
<g id="edge14_Node000008_Node000005" class="edge">
<title>Node8&#45;&gt;Node5</title>
<g id="a_edge14_Node000008_Node000005"><a xlink:title=" ">
<path fill="none" stroke="#63b8ff" d="M274.75,-110.03C237.06,-101.07 179.31,-87.34 138.21,-77.57"/>
<polygon fill="#63b8ff" stroke="#63b8ff" points="139.11,-74.19 128.57,-75.28 137.49,-81 139.11,-74.19"/>
</a>
</g>
</g>
<!-- Node8&#45;&gt;Node6 -->
<g id="edge15_Node000008_Node000006" class="edge">
<title>Node8&#45;&gt;Node6</title>
<g id="a_edge15_Node000008_Node000006"><a xlink:title=" ">
<path fill="none" stroke="#63b8ff" d="M361.48,-111.55C364.36,-111.18 367.22,-110.82 370,-110.5 557.41,-88.79 781.77,-74.18 876.83,-68.51"/>
<polygon fill="#63b8ff" stroke="#63b8ff" points="877.01,-72.01 886.79,-67.92 876.6,-65.02 877.01,-72.01"/>
</a>
</g>
</g>
<!-- Node9 -->
<g id="Node000009" class="node">
<title>Node9</title>
<g id="a_Node000009"><a xlink:title=" ">
<polygon fill="#e0e0e0" stroke="#999999" points="111.75,-19.25 58.25,-19.25 58.25,0 111.75,0 111.75,-19.25"/>
<text text-anchor="middle" x="85" y="-5.75" font-family="Helvetica,sans-Serif" font-size="10.00">iostream</text>
</a>
</g>
</g>
<!-- Node8&#45;&gt;Node9 -->
<g id="edge8_Node000008_Node000009" class="edge">
<title>Node8&#45;&gt;Node9</title>
<g id="a_edge8_Node000008_Node000009"><a xlink:title=" ">
<path fill="none" stroke="#63b8ff" d="M292.65,-110.07C272.77,-101.17 241.7,-87.13 215,-74.5 179.64,-57.77 139.25,-37.78 113,-24.68"/>
<polygon fill="#63b8ff" stroke="#63b8ff" points="114.87,-21.7 104.36,-20.36 111.74,-27.96 114.87,-21.7"/>
</a>
</g>
</g>
<!-- Node10 -->
<g id="Node000010" class="node">
<title>Node10</title>
<g id="a_Node000010"><a xlink:title=" ">
<polygon fill="#e0e0e0" stroke="#999999" points="273.5,-74.5 224.5,-74.5 224.5,-55.25 273.5,-55.25 273.5,-74.5"/>
<text text-anchor="middle" x="249" y="-61" font-family="Helvetica,sans-Serif" font-size="10.00">fstream</text>
</a>
</g>
</g>
<!-- Node8&#45;&gt;Node10 -->
<g id="edge9_Node000008_Node000010" class="edge">
<title>Node8&#45;&gt;Node10</title>
<g id="a_edge9_Node000008_Node000010"><a xlink:title=" ">
<path fill="none" stroke="#63b8ff" d="M302.14,-110.09C292.89,-102.4 279.38,-91.15 268.29,-81.93"/>
<polygon fill="#63b8ff" stroke="#63b8ff" points="270.79,-79.45 260.86,-75.74 266.31,-84.83 270.79,-79.45"/>
</a>
</g>
</g>
<!-- Node11 -->
<g id="Node000011" class="node">
<title>Node11</title>
<g id="a_Node000011"><a xlink:title=" ">
<polygon fill="#e0e0e0" stroke="#999999" points="334.5,-74.5 291.5,-74.5 291.5,-55.25 334.5,-55.25 334.5,-74.5"/>
<text text-anchor="middle" x="313" y="-61" font-family="Helvetica,sans-Serif" font-size="10.00">cmath</text>
</a>
</g>
</g>
<!-- Node8&#45;&gt;Node11 -->
<g id="edge11_Node000008_Node000011" class="edge">
<title>Node8&#45;&gt;Node11</title>
<g id="a_edge11_Node000008_Node000011"><a xlink:title=" ">
<path fill="none" stroke="#63b8ff" d="M313,-110.33C313,-103.82 313,-94.67 313,-86.37"/>
<polygon fill="#63b8ff" stroke="#63b8ff" points="316.5,-86.37 313,-76.37 309.5,-86.37 316.5,-86.37"/>
</a>
</g>
</g>
<!-- Node12 -->
<g id="Node000012" class="node">
<title>Node12</title>
<g id="a_Node000012"><a xlink:title=" ">
<polygon fill="#e0e0e0" stroke="#999999" points="632.62,-74.5 581.38,-74.5 581.38,-55.25 632.62,-55.25 632.62,-74.5"/>
<text text-anchor="middle" x="607" y="-61" font-family="Helvetica,sans-Serif" font-size="10.00">TMath.h</text>
</a>
</g>
</g>
<!-- Node8&#45;&gt;Node12 -->
<g id="edge12_Node000008_Node000012" class="edge">
<title>Node8&#45;&gt;Node12</title>
<g id="a_edge12_Node000008_Node000012"><a xlink:title=" ">
<path fill="none" stroke="#63b8ff" d="M361.41,-111.84C411.24,-104.1 491.37,-91.01 569.98,-74.8"/>
<polygon fill="#63b8ff" stroke="#63b8ff" points="570.5,-78.26 579.57,-72.8 569.07,-71.41 570.5,-78.26"/>
</a>
</g>
</g>
<!-- Node13 -->
<g id="Node000013" class="node">
<title>Node13</title>
<g id="a_Node000013"><a xlink:title=" ">
<polygon fill="#e0e0e0" stroke="#999999" points="707.62,-74.5 650.38,-74.5 650.38,-55.25 707.62,-55.25 707.62,-74.5"/>
<text text-anchor="middle" x="679" y="-61" font-family="Helvetica,sans-Serif" font-size="10.00">TROOT.h</text>
</a>
</g>
</g>
<!-- Node8&#45;&gt;Node13 -->
<g id="edge13_Node000008_Node000013" class="edge">
<title>Node8&#45;&gt;Node13</title>
<g id="a_edge13_Node000008_Node000013"><a xlink:title=" ">
<path fill="none" stroke="#63b8ff" d="M361.5,-111.72C364.38,-111.3 367.23,-110.89 370,-110.5 487.2,-93.88 520.12,-96.21 638.97,-74.92"/>
<polygon fill="#63b8ff" stroke="#63b8ff" points="639.27,-78.42 648.48,-73.19 638.02,-71.53 639.27,-78.42"/>
</a>
</g>
</g>
<!-- Node14 -->
<g id="Node000014" class="node">
<title>Node14</title>
<g id="a_Node000014"><a xlink:title=" ">
<polygon fill="#e0e0e0" stroke="#999999" points="489,-74.5 353,-74.5 353,-55.25 489,-55.25 489,-74.5"/>
<text text-anchor="middle" x="421" y="-61" font-family="Helvetica,sans-Serif" font-size="10.00">Math/SpecFuncMathMore.h</text>
</a>
</g>
</g>
<!-- Node8&#45;&gt;Node14 -->
<g id="edge16_Node000008_Node000014" class="edge">
<title>Node8&#45;&gt;Node14</title>
<g id="a_edge16_Node000008_Node000014"><a xlink:title=" ">
<path fill="none" stroke="#63b8ff" d="M331.32,-110.09C348.08,-101.83 373.13,-89.48 392.5,-79.93"/>
<polygon fill="#63b8ff" stroke="#63b8ff" points="393.81,-83.18 401.23,-75.62 390.72,-76.9 393.81,-83.18"/>
</a>
</g>
</g>
<!-- Node15 -->
<g id="Node000015" class="node">
<title>Node15</title>
<g id="a_Node000015"><a xlink:href="_globals_8h.html" target="_top" xlink:title=" ">
<polygon fill="white" stroke="#666666" points="563.25,-74.5 506.75,-74.5 506.75,-55.25 563.25,-55.25 563.25,-74.5"/>
<text text-anchor="middle" x="535" y="-61" font-family="Helvetica,sans-Serif" font-size="10.00">Globals.h</text>
</a>
</g>
</g>
<!-- Node8&#45;&gt;Node15 -->
<g id="edge17_Node000008_Node000015" class="edge">
<title>Node8&#45;&gt;Node15</title>
<g id="a_edge17_Node000008_Node000015"><a xlink:title=" ">
<path fill="none" stroke="#63b8ff" d="M350.91,-110.03C391.12,-100.39 454.37,-85.21 495.27,-75.41"/>
<polygon fill="#63b8ff" stroke="#63b8ff" points="496.04,-78.82 504.95,-73.08 494.41,-72.01 496.04,-78.82"/>
</a>
</g>
</g>
<!-- Node15&#45;&gt;Node2 -->
<g id="edge22_Node000015_Node000002" class="edge">
<title>Node15&#45;&gt;Node2</title>
<g id="a_edge22_Node000015_Node000002"><a xlink:title=" ">
<path fill="none" stroke="#63b8ff" d="M506.4,-56.76C503.57,-56.19 500.74,-55.68 498,-55.25 303.86,-25.01 247.86,-54.84 51.74,-19.37"/>
<polygon fill="#63b8ff" stroke="#63b8ff" points="52.42,-15.94 41.95,-17.56 51.15,-22.82 52.42,-15.94"/>
</a>
</g>
</g>
<!-- Node15&#45;&gt;Node9 -->
<g id="edge19_Node000015_Node000009" class="edge">
<title>Node15&#45;&gt;Node9</title>
<g id="a_edge19_Node000015_Node000009"><a xlink:title=" ">
<path fill="none" stroke="#63b8ff" d="M506.39,-56.81C503.57,-56.23 500.73,-55.7 498,-55.25 335.46,-28.67 289.01,-46.14 123.14,-19.36"/>
<polygon fill="#63b8ff" stroke="#63b8ff" points="123.97,-15.95 113.54,-17.78 122.84,-22.86 123.97,-15.95"/>
</a>
</g>
</g>
<!-- Node16 -->
<g id="Node000016" class="node">
<title>Node16</title>
<g id="a_Node000016"><a xlink:title=" ">
<polygon fill="#e0e0e0" stroke="#999999" points="851.62,-19.25 806.38,-19.25 806.38,0 851.62,0 851.62,-19.25"/>
<text text-anchor="middle" x="829" y="-5.75" font-family="Helvetica,sans-Serif" font-size="10.00">cstdint</text>
</a>
</g>
</g>
<!-- Node15&#45;&gt;Node16 -->
<g id="edge18_Node000015_Node000016" class="edge">
<title>Node15&#45;&gt;Node16</title>
<g id="a_edge18_Node000015_Node000016"><a xlink:title=" ">
<path fill="none" stroke="#63b8ff" d="M563.64,-56.99C566.46,-56.37 569.28,-55.78 572,-55.25 667.88,-36.43 696.01,-40.16 794.9,-19.49"/>
<polygon fill="#63b8ff" stroke="#63b8ff" points="795.46,-22.95 804.52,-17.45 794.01,-16.1 795.46,-22.95"/>
</a>
</g>
</g>
<!-- Node17 -->
<g id="Node000017" class="node">
<title>Node17</title>
<g id="a_Node000017"><a xlink:title=" ">
<polygon fill="#e0e0e0" stroke="#999999" points="919.88,-19.25 870.12,-19.25 870.12,0 919.88,0 919.88,-19.25"/>
<text text-anchor="middle" x="895" y="-5.75" font-family="Helvetica,sans-Serif" font-size="10.00">iomanip</text>
</a>
</g>
</g>
<!-- Node15&#45;&gt;Node17 -->
<g id="edge20_Node000015_Node000017" class="edge">
<title>Node15&#45;&gt;Node17</title>
<g id="a_edge20_Node000015_Node000017"><a xlink:title=" ">
<path fill="none" stroke="#63b8ff" d="M563.62,-56.89C566.44,-56.3 569.27,-55.74 572,-55.25 695.82,-33.17 731.78,-42.63 858.51,-19.49"/>
<polygon fill="#63b8ff" stroke="#63b8ff" points="859.15,-22.93 868.34,-17.66 857.87,-16.05 859.15,-22.93"/>
</a>
</g>
</g>
<!-- Node18 -->
<g id="Node000018" class="node">
<title>Node18</title>
<g id="a_Node000018"><a xlink:title=" ">
<polygon fill="#e0e0e0" stroke="#999999" points="996,-19.25 938,-19.25 938,0 996,0 996,-19.25"/>
<text text-anchor="middle" x="967" y="-5.75" font-family="Helvetica,sans-Serif" font-size="10.00">stdexcept</text>
</a>
</g>
</g>
<!-- Node15&#45;&gt;Node18 -->
<g id="edge21_Node000015_Node000018" class="edge">
<title>Node15&#45;&gt;Node18</title>
<g id="a_edge21_Node000015_Node000018"><a xlink:title=" ">
<path fill="none" stroke="#63b8ff" d="M563.61,-56.82C566.44,-56.24 569.27,-55.7 572,-55.25 725.78,-29.68 769.65,-44.26 926.61,-19.44"/>
<polygon fill="#63b8ff" stroke="#63b8ff" points="926.8,-22.96 936.12,-17.91 925.69,-16.05 926.8,-22.96"/>
</a>
</g>
</g>
<!-- Node19 -->
<g id="Node000019" class="node">
<title>Node19</title>
<g id="a_Node000019"><a xlink:title=" ">
<polygon fill="#e0e0e0" stroke="#999999" points="1056.12,-19.25 1013.88,-19.25 1013.88,0 1056.12,0 1056.12,-19.25"/>
<text text-anchor="middle" x="1035" y="-5.75" font-family="Helvetica,sans-Serif" font-size="10.00">cstdio</text>
</a>
</g>
</g>
<!-- Node15&#45;&gt;Node19 -->
<g id="edge23_Node000015_Node000019" class="edge">
<title>Node15&#45;&gt;Node19</title>
<g id="a_edge23_Node000015_Node000019"><a xlink:title=" ">
<path fill="none" stroke="#63b8ff" d="M563.6,-56.77C566.43,-56.2 569.26,-55.68 572,-55.25 759.13,-25.82 813.02,-53.02 1002.31,-19.39"/>
<polygon fill="#63b8ff" stroke="#63b8ff" points="1002.79,-22.86 1012,-17.63 1001.54,-15.97 1002.79,-22.86"/>
</a>
</g>
</g>
<!-- Node20 -->
<g id="Node000020" class="node">
<title>Node20</title>
<g id="a_Node000020"><a xlink:title=" ">
<polygon fill="#e0e0e0" stroke="#999999" points="1118.25,-19.25 1073.75,-19.25 1073.75,0 1118.25,0 1118.25,-19.25"/>
<text text-anchor="middle" x="1096" y="-5.75" font-family="Helvetica,sans-Serif" font-size="10.00">cstdlib</text>
</a>
</g>
</g>
<!-- Node15&#45;&gt;Node20 -->
<g id="edge24_Node000015_Node000020" class="edge">
<title>Node15&#45;&gt;Node20</title>
<g id="a_edge24_Node000015_Node000020"><a xlink:title=" ">
<path fill="none" stroke="#63b8ff" d="M563.6,-56.74C566.43,-56.18 569.26,-55.67 572,-55.25 785.59,-22.76 846.54,-55.75 1062.37,-19.36"/>
<polygon fill="#63b8ff" stroke="#63b8ff" points="1062.68,-22.86 1071.94,-17.72 1061.49,-15.96 1062.68,-22.86"/>
</a>
</g>
</g>
<!-- Node21 -->
<g id="Node000021" class="node">
<title>Node21</title>
<g id="a_Node000021"><a xlink:title=" ">
<polygon fill="#e0e0e0" stroke="#999999" points="1195.75,-19.25 1136.25,-19.25 1136.25,0 1195.75,0 1195.75,-19.25"/>
<text text-anchor="middle" x="1166" y="-5.75" font-family="Helvetica,sans-Serif" font-size="10.00">execinfo.h</text>
</a>
</g>
</g>
<!-- Node15&#45;&gt;Node21 -->
<g id="edge25_Node000015_Node000021" class="edge">
<title>Node15&#45;&gt;Node21</title>
<g id="a_edge25_Node000015_Node000021"><a xlink:title=" ">
<path fill="none" stroke="#63b8ff" d="M563.59,-56.72C566.42,-56.16 569.26,-55.66 572,-55.25 812.82,-19.62 880.24,-53 1124.46,-19.37"/>
<polygon fill="#63b8ff" stroke="#63b8ff" points="1124.93,-22.84 1134.35,-17.98 1123.96,-15.91 1124.93,-22.84"/>
</a>
</g>
</g>
<!-- Node22 -->
<g id="Node000022" class="node">
<title>Node22</title>
<g id="a_Node000022"><a xlink:title=" ">
<polygon fill="#e0e0e0" stroke="#999999" points="180.25,-19.25 129.75,-19.25 129.75,0 180.25,0 180.25,-19.25"/>
<text text-anchor="middle" x="155" y="-5.75" font-family="Helvetica,sans-Serif" font-size="10.00">cxxabi.h</text>
</a>
</g>
</g>
<!-- Node15&#45;&gt;Node22 -->
<g id="edge26_Node000015_Node000022" class="edge">
<title>Node15&#45;&gt;Node22</title>
<g id="a_edge26_Node000015_Node000022"><a xlink:title=" ">
<path fill="none" stroke="#63b8ff" d="M506.38,-56.87C503.56,-56.28 500.73,-55.73 498,-55.25 365.38,-32.14 326.98,-43.65 191.74,-19.53"/>
<polygon fill="#63b8ff" stroke="#63b8ff" points="192.49,-16.11 182.03,-17.76 191.24,-23 192.49,-16.11"/>
</a>
</g>
</g>
<!-- Node23 -->
<g id="Node000023" class="node">
<title>Node23</title>
<g id="a_Node000023"><a xlink:title=" ">
<polygon fill="#e0e0e0" stroke="#999999" points="249.62,-19.25 198.38,-19.25 198.38,0 249.62,0 249.62,-19.25"/>
<text text-anchor="middle" x="224" y="-5.75" font-family="Helvetica,sans-Serif" font-size="10.00">sstream</text>
</a>
</g>
</g>
<!-- Node15&#45;&gt;Node23 -->
<g id="edge27_Node000015_Node000023" class="edge">
<title>Node15&#45;&gt;Node23</title>
<g id="a_edge27_Node000015_Node000023"><a xlink:title=" ">
<path fill="none" stroke="#63b8ff" d="M506.37,-56.96C503.54,-56.35 500.72,-55.77 498,-55.25 395.58,-35.66 365.7,-40.2 260.99,-19.69"/>
<polygon fill="#63b8ff" stroke="#63b8ff" points="261.9,-16.3 251.41,-17.78 260.54,-23.17 261.9,-16.3"/>
</a>
</g>
</g>
<!-- Node24 -->
<g id="Node000024" class="node">
<title>Node24</title>
<g id="a_Node000024"><a xlink:title=" ">
<polygon fill="#e0e0e0" stroke="#999999" points="304.5,-19.25 267.5,-19.25 267.5,0 304.5,0 304.5,-19.25"/>
<text text-anchor="middle" x="286" y="-5.75" font-family="Helvetica,sans-Serif" font-size="10.00">array</text>
</a>
</g>
</g>
<!-- Node15&#45;&gt;Node24 -->
<g id="edge28_Node000015_Node000024" class="edge">
<title>Node15&#45;&gt;Node24</title>
<g id="a_edge28_Node000015_Node000024"><a xlink:title=" ">
<path fill="none" stroke="#63b8ff" d="M506.34,-57.09C503.52,-56.45 500.71,-55.83 498,-55.25 419.86,-38.5 396.7,-39.43 315.63,-19.43"/>
<polygon fill="#63b8ff" stroke="#63b8ff" points="316.92,-16.14 306.37,-17.11 315.22,-22.93 316.92,-16.14"/>
</a>
</g>
</g>
<!-- Node25 -->
<g id="Node000025" class="node">
<title>Node25</title>
<g id="a_Node000025"><a xlink:title=" ">
<polygon fill="#e0e0e0" stroke="#999999" points="373.25,-19.25 322.75,-19.25 322.75,0 373.25,0 373.25,-19.25"/>
<text text-anchor="middle" x="348" y="-5.75" font-family="Helvetica,sans-Serif" font-size="10.00">memory</text>
</a>
</g>
</g>
<!-- Node15&#45;&gt;Node25 -->
<g id="edge29_Node000015_Node000025" class="edge">
<title>Node15&#45;&gt;Node25</title>
<g id="a_edge29_Node000015_Node000025"><a xlink:title=" ">
<path fill="none" stroke="#63b8ff" d="M506.6,-55.79C473.96,-46.49 420.32,-31.22 384.58,-21.04"/>
<polygon fill="#63b8ff" stroke="#63b8ff" points="385.69,-17.72 375.11,-18.35 383.77,-24.45 385.69,-17.72"/>
</a>
</g>
</g>
<!-- Node26 -->
<g id="Node000026" class="node">
<title>Node26</title>
<g id="a_Node000026"><a xlink:title=" ">
<polygon fill="#e0e0e0" stroke="#999999" points="440.88,-19.25 391.12,-19.25 391.12,0 440.88,0 440.88,-19.25"/>
<text text-anchor="middle" x="416" y="-5.75" font-family="Helvetica,sans-Serif" font-size="10.00">unistd.h</text>
</a>
</g>
</g>
<!-- Node15&#45;&gt;Node26 -->
<g id="edge30_Node000015_Node000026" class="edge">
<title>Node15&#45;&gt;Node26</title>
<g id="a_edge30_Node000015_Node000026"><a xlink:title=" ">
<path fill="none" stroke="#63b8ff" d="M514.81,-54.84C496.09,-46.47 467.98,-33.88 446.52,-24.28"/>
<polygon fill="#63b8ff" stroke="#63b8ff" points="448.22,-21.21 437.67,-20.32 445.37,-27.6 448.22,-21.21"/>
</a>
</g>
</g>
<!-- Node27 -->
<g id="Node000027" class="node">
<title>Node27</title>
<g id="a_Node000027"><a xlink:title=" ">
<polygon fill="#e0e0e0" stroke="#999999" points="505,-19.25 459,-19.25 459,0 505,0 505,-19.25"/>
<text text-anchor="middle" x="482" y="-5.75" font-family="Helvetica,sans-Serif" font-size="10.00">TEnv.h</text>
</a>
</g>
</g>
<!-- Node15&#45;&gt;Node27 -->
<g id="edge31_Node000015_Node000027" class="edge">
<title>Node15&#45;&gt;Node27</title>
<g id="a_edge31_Node000015_Node000027"><a xlink:title=" ">
<path fill="none" stroke="#63b8ff" d="M526.25,-55.08C518.85,-47.65 508.04,-36.79 498.95,-27.66"/>
<polygon fill="#63b8ff" stroke="#63b8ff" points="501.54,-25.3 492.01,-20.68 496.58,-30.24 501.54,-25.3"/>
</a>
</g>
</g>
<!-- Node28 -->
<g id="Node000028" class="node">
<title>Node28</title>
<g id="a_Node000028"><a xlink:title=" ">
<polygon fill="#e0e0e0" stroke="#999999" points="567.25,-19.25 522.75,-19.25 522.75,0 567.25,0 567.25,-19.25"/>
<text text-anchor="middle" x="545" y="-5.75" font-family="Helvetica,sans-Serif" font-size="10.00">stdio.h</text>
</a>
</g>
</g>
<!-- Node15&#45;&gt;Node28 -->
<g id="edge32_Node000015_Node000028" class="edge">
<title>Node15&#45;&gt;Node28</title>
<g id="a_edge32_Node000015_Node000028"><a xlink:title=" ">
<path fill="none" stroke="#63b8ff" d="M536.65,-55.08C537.89,-48.49 539.63,-39.21 541.21,-30.82"/>
<polygon fill="#63b8ff" stroke="#63b8ff" points="544.63,-31.57 543.03,-21.1 537.75,-30.28 544.63,-31.57"/>
</a>
</g>
</g>
<!-- Node29 -->
<g id="Node000029" class="node">
<title>Node29</title>
<g id="a_Node000029"><a xlink:title=" ">
<polygon fill="#e0e0e0" stroke="#999999" points="632.38,-19.25 585.62,-19.25 585.62,0 632.38,0 632.38,-19.25"/>
<text text-anchor="middle" x="609" y="-5.75" font-family="Helvetica,sans-Serif" font-size="10.00">stdlib.h</text>
</a>
</g>
</g>
<!-- Node15&#45;&gt;Node29 -->
<g id="edge33_Node000015_Node000029" class="edge">
<title>Node15&#45;&gt;Node29</title>
<g id="a_edge33_Node000015_Node000029"><a xlink:title=" ">
<path fill="none" stroke="#63b8ff" d="M547.55,-54.84C558.46,-46.99 574.5,-35.45 587.46,-26.12"/>
<polygon fill="#63b8ff" stroke="#63b8ff" points="589.33,-29.09 595.4,-20.41 585.24,-23.41 589.33,-29.09"/>
</a>
</g>
</g>
<!-- Node30 -->
<g id="Node000030" class="node">
<title>Node30</title>
<g id="a_Node000030"><a xlink:title=" ">
<polygon fill="#e0e0e0" stroke="#999999" points="709.75,-19.25 650.25,-19.25 650.25,0 709.75,0 709.75,-19.25"/>
<text text-anchor="middle" x="680" y="-5.75" font-family="Helvetica,sans-Serif" font-size="10.00">sys/wait.h</text>
</a>
</g>
</g>
<!-- Node15&#45;&gt;Node30 -->
<g id="edge34_Node000015_Node000030" class="edge">
<title>Node15&#45;&gt;Node30</title>
<g id="a_edge34_Node000015_Node000030"><a xlink:title=" ">
<path fill="none" stroke="#63b8ff" d="M559.6,-54.84C582.93,-46.27 618.24,-33.31 644.6,-23.63"/>
<polygon fill="#63b8ff" stroke="#63b8ff" points="645.68,-26.96 653.86,-20.22 643.27,-20.39 645.68,-26.96"/>
</a>
</g>
</g>
<!-- Node31 -->
<g id="Node000031" class="node">
<title>Node31</title>
<g id="a_Node000031"><a xlink:title=" ">
<polygon fill="#e0e0e0" stroke="#999999" points="788.12,-19.25 727.88,-19.25 727.88,0 788.12,0 788.12,-19.25"/>
<text text-anchor="middle" x="758" y="-5.75" font-family="Helvetica,sans-Serif" font-size="10.00">sys/prctl.h</text>
</a>
</g>
</g>
<!-- Node15&#45;&gt;Node31 -->
<g id="edge35_Node000015_Node000031" class="edge">
<title>Node15&#45;&gt;Node31</title>
<g id="a_edge35_Node000015_Node000031"><a xlink:title=" ">
<path fill="none" stroke="#63b8ff" d="M563.7,-57.02C602.55,-47.75 672.12,-31.13 716.62,-20.51"/>
<polygon fill="#63b8ff" stroke="#63b8ff" points="717.24,-23.96 726.16,-18.23 715.62,-17.15 717.24,-23.96"/>
</a>
</g>
</g>
<!-- Node32&#45;&gt;Node4 -->
<g id="edge40_Node000032_Node000004" class="edge">
<title>Node32&#45;&gt;Node4</title>
<g id="a_edge40_Node000032_Node000004"><a xlink:title=" ">
<path fill="none" stroke="#63b8ff" d="M596.15,-172.32C526.79,-167.64 360.46,-154.62 223,-129.75 222.33,-129.63 221.65,-129.5 220.96,-129.37"/>
<polygon fill="#63b8ff" stroke="#63b8ff" points="221.76,-125.96 211.24,-127.21 220.24,-132.79 221.76,-125.96"/>
</a>
</g>
</g>
<!-- Node32&#45;&gt;Node5 -->
<g id="edge43_Node000032_Node000005" class="edge">
<title>Node32&#45;&gt;Node5</title>
<g id="a_edge43_Node000032_Node000005"><a xlink:title=" ">
<path fill="none" stroke="#63b8ff" d="M596.29,-174.26C530.43,-173.2 377.72,-166.6 256,-129.75 237.88,-124.26 235.43,-117.89 218,-110.5 189.02,-98.21 155.38,-86.66 129.72,-78.39"/>
<polygon fill="#63b8ff" stroke="#63b8ff" points="130.92,-75.1 120.33,-75.4 128.8,-81.77 130.92,-75.1"/>
</a>
</g>
</g>
<!-- Node32&#45;&gt;Node6 -->
<g id="edge42_Node000032_Node000006" class="edge">
<title>Node32&#45;&gt;Node6</title>
<g id="a_edge42_Node000032_Node000006"><a xlink:title=" ">
<path fill="none" stroke="#63b8ff" d="M661.87,-173.31C726.84,-170.53 868.49,-160.97 904,-129.75 916.36,-118.88 920.85,-100.35 922.4,-86.05"/>
<polygon fill="#63b8ff" stroke="#63b8ff" points="925.88,-86.57 923.03,-76.37 918.89,-86.12 925.88,-86.57"/>
</a>
</g>
</g>
<!-- Node32&#45;&gt;Node8 -->
<g id="edge37_Node000032_Node000008" class="edge">
<title>Node32&#45;&gt;Node8</title>
<g id="a_edge37_Node000032_Node000008"><a xlink:title=" ">
<path fill="none" stroke="#63b8ff" d="M596.37,-168.88C543.6,-159.98 438.76,-142.32 372.46,-131.14"/>
<polygon fill="#63b8ff" stroke="#63b8ff" points="373.29,-127.74 362.85,-129.52 372.13,-134.64 373.29,-127.74"/>
</a>
</g>
</g>
<!-- Node32&#45;&gt;Node12 -->
<g id="edge47_Node000032_Node000012" class="edge">
<title>Node32&#45;&gt;Node12</title>
<g id="a_edge47_Node000032_Node000012"><a xlink:title=" ">
<path fill="none" stroke="#63b8ff" d="M616.39,-165.39C606.29,-157.36 592.88,-144.58 587,-129.75 581.04,-114.73 587.46,-97.18 594.56,-84.28"/>
<polygon fill="#63b8ff" stroke="#63b8ff" points="597.41,-86.34 599.65,-75.99 591.44,-82.68 597.41,-86.34"/>
</a>
</g>
</g>
<!-- Node32&#45;&gt;Node13 -->
<g id="edge49_Node000032_Node000013" class="edge">
<title>Node32&#45;&gt;Node13</title>
<g id="a_edge49_Node000032_Node000013"><a xlink:title=" ">
<path fill="none" stroke="#63b8ff" d="M624.72,-165.6C619.12,-152.79 611.02,-128.55 620,-110.5 626.24,-97.96 637.87,-88.01 649.16,-80.71"/>
<polygon fill="#63b8ff" stroke="#63b8ff" points="650.73,-83.85 657.56,-75.75 647.17,-77.82 650.73,-83.85"/>
</a>
</g>
</g>
<!-- Node32&#45;&gt;Node15 -->
<g id="edge53_Node000032_Node000015" class="edge">
<title>Node32&#45;&gt;Node15</title>
<g id="a_edge53_Node000032_Node000015"><a xlink:title=" ">
<path fill="none" stroke="#63b8ff" d="M617.85,-165.43C607.47,-156.84 591.87,-143.21 580,-129.75 567.25,-115.3 554.8,-97.22 546.24,-83.99"/>
<polygon fill="#63b8ff" stroke="#63b8ff" points="549.39,-82.43 541.08,-75.86 543.48,-86.18 549.39,-82.43"/>
</a>
</g>
</g>
<!-- Node33 -->
<g id="Node000033" class="node">
<title>Node33</title>
<g id="a_Node000033"><a xlink:title=" ">
<polygon fill="#e0e0e0" stroke="#999999" points="687,-129.75 629,-129.75 629,-110.5 687,-110.5 687,-129.75"/>
<text text-anchor="middle" x="658" y="-116.25" font-family="Helvetica,sans-Serif" font-size="10.00">TObject.h</text>
</a>
</g>
</g>
<!-- Node32&#45;&gt;Node33 -->
<g id="edge38_Node000032_Node000033" class="edge">
<title>Node32&#45;&gt;Node33</title>
<g id="a_edge38_Node000032_Node000033"><a xlink:title=" ">
<path fill="none" stroke="#63b8ff" d="M633.79,-165.58C637.54,-158.69 642.91,-148.84 647.63,-140.16"/>
<polygon fill="#63b8ff" stroke="#63b8ff" points="650.67,-141.89 652.38,-131.44 644.53,-138.55 650.67,-141.89"/>
</a>
</g>
</g>
<!-- Node34 -->
<g id="Node000034" class="node">
<title>Node34</title>
<g id="a_Node000034"><a xlink:title=" ">
<polygon fill="#e0e0e0" stroke="#999999" points="747.12,-129.75 704.88,-129.75 704.88,-110.5 747.12,-110.5 747.12,-129.75"/>
<text text-anchor="middle" x="726" y="-116.25" font-family="Helvetica,sans-Serif" font-size="10.00">TH1.h</text>
</a>
</g>
</g>
<!-- Node32&#45;&gt;Node34 -->
<g id="edge39_Node000032_Node000034" class="edge">
<title>Node32&#45;&gt;Node34</title>
<g id="a_edge39_Node000032_Node000034"><a xlink:title=" ">
<path fill="none" stroke="#63b8ff" d="M645.45,-165.34C660.23,-157.23 682.18,-145.18 699.43,-135.71"/>
<polygon fill="#63b8ff" stroke="#63b8ff" points="701.06,-138.81 708.14,-130.93 697.69,-132.68 701.06,-138.81"/>
</a>
</g>
</g>
<!-- Node35 -->
<g id="Node000035" class="node">
<title>Node35</title>
<g id="a_Node000035"><a xlink:title=" ">
<polygon fill="#e0e0e0" stroke="#999999" points="811,-129.75 765,-129.75 765,-110.5 811,-110.5 811,-129.75"/>
<text text-anchor="middle" x="788" y="-116.25" font-family="Helvetica,sans-Serif" font-size="10.00">TList.h</text>
</a>
</g>
</g>
<!-- Node32&#45;&gt;Node35 -->
<g id="edge41_Node000032_Node000035" class="edge">
<title>Node32&#45;&gt;Node35</title>
<g id="a_edge41_Node000032_Node000035"><a xlink:title=" ">
<path fill="none" stroke="#63b8ff" d="M655.97,-165.34C683,-156.29 724.68,-142.33 753.97,-132.52"/>
<polygon fill="#63b8ff" stroke="#63b8ff" points="754.72,-135.96 763.09,-129.47 752.5,-129.32 754.72,-135.96"/>
</a>
</g>
</g>
<!-- Node36 -->
<g id="Node000036" class="node">
<title>Node36</title>
<g id="a_Node000036"><a xlink:title=" ">
<polygon fill="#e0e0e0" stroke="#999999" points="894.75,-129.75 829.25,-129.75 829.25,-110.5 894.75,-110.5 894.75,-129.75"/>
<text text-anchor="middle" x="862" y="-116.25" font-family="Helvetica,sans-Serif" font-size="10.00">TRandom.h</text>
</a>
</g>
</g>
<!-- Node32&#45;&gt;Node36 -->
<g id="edge44_Node000032_Node000036" class="edge">
<title>Node32&#45;&gt;Node36</title>
<g id="a_edge44_Node000032_Node000036"><a xlink:title=" ">
<path fill="none" stroke="#63b8ff" d="M661.4,-166.97C702.2,-157.64 772.49,-141.58 818.1,-131.16"/>
<polygon fill="#63b8ff" stroke="#63b8ff" points="818.68,-134.62 827.65,-128.98 817.12,-127.79 818.68,-134.62"/>
</a>
</g>
</g>
<!-- Node37 -->
<g id="Node000037" class="node">
<title>Node37</title>
<g id="a_Node000037"><a xlink:title=" ">
<polygon fill="#e0e0e0" stroke="#999999" points="1022.75,-129.75 951.25,-129.75 951.25,-110.5 1022.75,-110.5 1022.75,-129.75"/>
<text text-anchor="middle" x="987" y="-116.25" font-family="Helvetica,sans-Serif" font-size="10.00">TSpectrum.h</text>
</a>
</g>
</g>
<!-- Node32&#45;&gt;Node37 -->
<g id="edge45_Node000032_Node000037" class="edge">
<title>Node32&#45;&gt;Node37</title>
<g id="a_edge45_Node000032_Node000037"><a xlink:title=" ">
<path fill="none" stroke="#63b8ff" d="M661.86,-169.91C718.23,-162.18 836.94,-145.63 937,-129.75 937.99,-129.59 938.99,-129.43 940,-129.27"/>
<polygon fill="#63b8ff" stroke="#63b8ff" points="940.18,-132.79 949.48,-127.71 939.04,-125.88 940.18,-132.79"/>
</a>
</g>
</g>
<!-- Node38 -->
<g id="Node000038" class="node">
<title>Node38</title>
<g id="a_Node000038"><a xlink:title=" ">
<polygon fill="#e0e0e0" stroke="#999999" points="1120.88,-129.75 1041.12,-129.75 1041.12,-110.5 1120.88,-110.5 1120.88,-129.75"/>
<text text-anchor="middle" x="1081" y="-116.25" font-family="Helvetica,sans-Serif" font-size="10.00">TVirtualFitter.h</text>
</a>
</g>
</g>
<!-- Node32&#45;&gt;Node38 -->
<g id="edge46_Node000032_Node000038" class="edge">
<title>Node32&#45;&gt;Node38</title>
<g id="a_edge46_Node000032_Node000038"><a xlink:title=" ">
<path fill="none" stroke="#63b8ff" d="M661.74,-171.47C728.75,-165.36 886.61,-150.18 1029.52,-130.02"/>
<polygon fill="#63b8ff" stroke="#63b8ff" points="1029.75,-133.53 1039.16,-128.65 1028.76,-126.6 1029.75,-133.53"/>
</a>
</g>
</g>
<!-- Node39 -->
<g id="Node000039" class="node">
<title>Node39</title>
<g id="a_Node000039"><a xlink:title=" ">
<polygon fill="#e0e0e0" stroke="#999999" points="1199.5,-129.75 1138.5,-129.75 1138.5,-110.5 1199.5,-110.5 1199.5,-129.75"/>
<text text-anchor="middle" x="1169" y="-116.25" font-family="Helvetica,sans-Serif" font-size="10.00">TNamed.h</text>
</a>
</g>
</g>
<!-- Node32&#45;&gt;Node39 -->
<g id="edge48_Node000032_Node000039" class="edge">
<title>Node32&#45;&gt;Node39</title>
<g id="a_edge48_Node000032_Node000039"><a xlink:title=" ">
<path fill="none" stroke="#63b8ff" d="M661.71,-172.92C740.26,-169.12 945.93,-157.34 1127.07,-130.02"/>
<polygon fill="#63b8ff" stroke="#63b8ff" points="1127.56,-133.48 1136.92,-128.51 1126.5,-126.56 1127.56,-133.48"/>
</a>
</g>
</g>
<!-- Node40 -->
<g id="Node000040" class="node">
<title>Node40</title>
<g id="a_Node000040"><a xlink:title=" ">
<polygon fill="#e0e0e0" stroke="#999999" points="1256.25,-129.75 1217.75,-129.75 1217.75,-110.5 1256.25,-110.5 1256.25,-129.75"/>
<text text-anchor="middle" x="1237" y="-116.25" font-family="Helvetica,sans-Serif" font-size="10.00">utility</text>
</a>
</g>
</g>
<!-- Node32&#45;&gt;Node40 -->
<g id="edge50_Node000032_Node000040" class="edge">
<title>Node32&#45;&gt;Node40</title>
<g id="a_edge50_Node000032_Node000040"><a xlink:title=" ">
<path fill="none" stroke="#63b8ff" d="M661.72,-174.39C748.99,-173.89 994.54,-169 1205.94,-129.93"/>
<polygon fill="#63b8ff" stroke="#63b8ff" points="1206.59,-133.37 1215.76,-128.08 1205.29,-126.49 1206.59,-133.37"/>
</a>
</g>
</g>
<!-- Node41 -->
<g id="Node000041" class="node">
<title>Node41</title>
<g id="a_Node000041"><a xlink:title=" ">
<polygon fill="#e0e0e0" stroke="#999999" points="423.25,-129.75 378.75,-129.75 378.75,-110.5 423.25,-110.5 423.25,-129.75"/>
<text text-anchor="middle" x="401" y="-116.25" font-family="Helvetica,sans-Serif" font-size="10.00">TRef.h</text>
</a>
</g>
</g>
<!-- Node32&#45;&gt;Node41 -->
<g id="edge51_Node000032_Node000041" class="edge">
<title>Node32&#45;&gt;Node41</title>
<g id="a_edge51_Node000032_Node000041"><a xlink:title=" ">
<path fill="none" stroke="#63b8ff" d="M596.31,-167.34C559.45,-159.33 497.49,-145.58 434.61,-130.07"/>
<polygon fill="#63b8ff" stroke="#63b8ff" points="435.71,-126.74 425.17,-127.73 434.03,-133.53 435.71,-126.74"/>
</a>
</g>
</g>
<!-- Node42 -->
<g id="Node000042" class="node">
<title>Node42</title>
<g id="a_Node000042"><a xlink:title=" ">
<polygon fill="#e0e0e0" stroke="#999999" points="496.5,-129.75 441.5,-129.75 441.5,-110.5 496.5,-110.5 496.5,-129.75"/>
<text text-anchor="middle" x="469" y="-116.25" font-family="Helvetica,sans-Serif" font-size="10.00">TString.h</text>
</a>
</g>
</g>
<!-- Node32&#45;&gt;Node42 -->
<g id="edge52_Node000032_Node000042" class="edge">
<title>Node32&#45;&gt;Node42</title>
<g id="a_edge52_Node000032_Node000042"><a xlink:title=" ">
<path fill="none" stroke="#63b8ff" d="M601.86,-165.34C575.77,-156.66 536.1,-143.46 506.9,-133.74"/>
<polygon fill="#63b8ff" stroke="#63b8ff" points="508.3,-130.52 497.71,-130.68 506.09,-137.16 508.3,-130.52"/>
</a>
</g>
</g>
</g>
</svg>

<g id="navigator" transform="translate(0 0)" fill="#404254">
  <rect fill="#f2f5e9" fill-opacity="0.5" stroke="#606060" stroke-width=".5" x="0" y="0" width="60" height="60"/>
  <use id="zoomplus" xlink:href="#zoomPlus" x="17" y="9" onmousedown="handleZoom(evt,'in')"/>
  <use id="zoomminus" xlink:href="#zoomMin" x="42" y="9" onmousedown="handleZoom(evt,'out')"/>
  <use id="reset" xlink:href="#resetDef" x="30" y="36" onmousedown="handleReset()"/>
   <use id="arrowup" xlink:href="#arrowUp" x="0" y="0" onmousedown="handlePan(0,-1)"/>
  <use id="arrowright" xlink:href="#arrowRight" x="0" y="0" onmousedown="handlePan(1,0)"/>
  <use id="arrowdown" xlink:href="#arrowDown" x="0" y="0" onmousedown="handlePan(0,1)"/>
  <use id="arrowleft" xlink:href="#arrowLeft" x="0" y="0" onmousedown="handlePan(-1,0)"/>
</g>
<svg viewBox="0 0 15 15" width="100%" height="30px" preserveAspectRatio="xMaxYMin meet">
 <g id="arrow_out" transform="scale(0.3 0.3)">
  <a xlink:href="_t_peak_8h__incl_org.svg" target="_base">
   <rect id="button" ry="5" rx="5" y="6" x="6" height="38" width="38"
        fill="#f2f5e9" fill-opacity="0.5" stroke="#606060" stroke-width="1.0"/>
   <path id="arrow"
     d="M 11.500037,31.436501 C 11.940474,20.09759 22.043105,11.32322 32.158766,21.979434 L 37.068811,17.246167 C 37.068811,17.246167 37.088388,32 37.088388,32 L 22.160133,31.978069 C 22.160133,31.978069 26.997745,27.140456 26.997745,27.140456 C 18.528582,18.264221 13.291696,25.230495 11.500037,31.436501 z"
     style="fill:#404040;"/>
  </a>
 </g>
</svg>

<style type='text/css'>
<![CDATA[
[data-mouse-over-selected='false'] { opacity: 0.7; }
[data-mouse-over-selected='true']  { opacity: 1.0; }
]]>
</style>
<script type="application/ecmascript"><![CDATA[
document.addEventListener('DOMContentLoaded', (event) => {
  highlightEdges();
  highlightAdjacentNodes();
});
]]></script>
</svg>
