<?xml version="1.0" encoding="UTF-8" standalone="no"?>
<!DOCTYPE svg PUBLIC "-//W3C//DTD SVG 1.1//EN"
 "http://www.w3.org/Graphics/SVG/1.1/DTD/svg11.dtd">
<!-- Generated by graphviz version 12.2.0 (20241103.1931)
 -->
<!-- Title: TPulseAnalyzer.h Pages: 1 -->
<svg width="1256pt" height="193pt"
 viewBox="0.00 0.00 1255.50 193.00" xmlns="http://www.w3.org/2000/svg" xmlns:xlink="http://www.w3.org/1999/xlink">
<g id="graph0" class="graph" transform="scale(1 1) rotate(0) translate(4 189)">
<title>TPulseAnalyzer.h</title>
<!-- Node1 -->
<g id="Node000001" class="node">
<title>Node1</title>
<g id="a_Node000001"><a xlink:title=" ">
<polygon fill="#999999" stroke="#666666" points="731.75,-185 640.75,-185 640.75,-165.75 731.75,-165.75 731.75,-185"/>
<text text-anchor="middle" x="686.25" y="-171.5" font-family="Helvetica,sans-Serif" font-size="10.00">TPulseAnalyzer.h</text>
</a>
</g>
</g>
<!-- Node2 -->
<g id="Node000002" class="node">
<title>Node2</title>
<g id="a_Node000002"><a xlink:href="_t_fipps_bgo_hit_8h.html" target="_top" xlink:title=" ">
<polygon fill="white" stroke="#666666" points="96,-129.75 12.5,-129.75 12.5,-110.5 96,-110.5 96,-129.75"/>
<text text-anchor="middle" x="54.25" y="-116.25" font-family="Helvetica,sans-Serif" font-size="10.00">TFippsBgoHit.h</text>
</a>
</g>
</g>
<!-- Node1&#45;&gt;Node2 -->
<g id="edge1_Node000001_Node000002" class="edge">
<title>Node1&#45;&gt;Node2</title>
<g id="a_edge1_Node000001_Node000002"><a xlink:title=" ">
<path fill="none" stroke="#63b8ff" d="M629.05,-169.56C503.53,-158.98 206.41,-133.95 96.28,-124.67"/>
<polygon fill="#63b8ff" stroke="#63b8ff" points="628.52,-173.02 638.78,-170.38 629.11,-166.05 628.52,-173.02"/>
</a>
</g>
</g>
<!-- Node4 -->
<g id="Node000004" class="node">
<title>Node4</title>
<g id="a_Node000004"><a xlink:href="_t_fipps_la_br_bgo_hit_8h.html" target="_top" xlink:title=" ">
<polygon fill="white" stroke="#666666" points="279.5,-129.75 175,-129.75 175,-110.5 279.5,-110.5 279.5,-129.75"/>
<text text-anchor="middle" x="227.25" y="-116.25" font-family="Helvetica,sans-Serif" font-size="10.00">TFippsLaBrBgoHit.h</text>
</a>
</g>
</g>
<!-- Node1&#45;&gt;Node4 -->
<g id="edge3_Node000001_Node000004" class="edge">
<title>Node1&#45;&gt;Node4</title>
<g id="a_edge3_Node000001_Node000004"><a xlink:title=" ">
<path fill="none" stroke="#63b8ff" d="M629.26,-167.76C539.52,-157.35 366.61,-137.29 279.75,-127.22"/>
<polygon fill="#63b8ff" stroke="#63b8ff" points="628.72,-171.22 639.06,-168.9 629.53,-164.27 628.72,-171.22"/>
</a>
</g>
</g>
<!-- Node6 -->
<g id="Node000006" class="node">
<title>Node6</title>
<g id="a_Node000006"><a xlink:href="_t_griffin_bgo_hit_8h.html" target="_top" xlink:title=" ">
<polygon fill="white" stroke="#666666" points="412.38,-129.75 328.12,-129.75 328.12,-110.5 412.38,-110.5 412.38,-129.75"/>
<text text-anchor="middle" x="370.25" y="-116.25" font-family="Helvetica,sans-Serif" font-size="10.00">TGriffinBgoHit.h</text>
</a>
</g>
</g>
<!-- Node1&#45;&gt;Node6 -->
<g id="edge5_Node000001_Node000006" class="edge">
<title>Node1&#45;&gt;Node6</title>
<g id="a_edge5_Node000001_Node000006"><a xlink:title=" ">
<path fill="none" stroke="#63b8ff" d="M629.1,-164.75C566.8,-154.25 468.53,-137.69 412.71,-128.28"/>
<polygon fill="#63b8ff" stroke="#63b8ff" points="628.37,-168.17 638.81,-166.38 629.53,-161.27 628.37,-168.17"/>
</a>
</g>
</g>
<!-- Node8 -->
<g id="Node000008" class="node">
<title>Node8</title>
<g id="a_Node000008"><a xlink:href="_t_ifin_bgo_hit_8h.html" target="_top" xlink:title=" ">
<polygon fill="white" stroke="#666666" points="517.38,-129.75 445.12,-129.75 445.12,-110.5 517.38,-110.5 517.38,-129.75"/>
<text text-anchor="middle" x="481.25" y="-116.25" font-family="Helvetica,sans-Serif" font-size="10.00">TIfinBgoHit.h</text>
</a>
</g>
</g>
<!-- Node1&#45;&gt;Node8 -->
<g id="edge7_Node000001_Node000008" class="edge">
<title>Node1&#45;&gt;Node8</title>
<g id="a_edge7_Node000001_Node000008"><a xlink:title=" ">
<path fill="none" stroke="#63b8ff" d="M640.81,-162.57C603.21,-152.8 550.57,-139.13 516.2,-130.2"/>
<polygon fill="#63b8ff" stroke="#63b8ff" points="639.45,-165.83 650.01,-164.96 641.21,-159.06 639.45,-165.83"/>
</a>
</g>
</g>
<!-- Node10 -->
<g id="Node000010" class="node">
<title>Node10</title>
<g id="a_Node000010"><a xlink:href="_t_la_br_bgo_hit_8h.html" target="_top" xlink:title=" ">
<polygon fill="white" stroke="#666666" points="623.5,-129.75 543,-129.75 543,-110.5 623.5,-110.5 623.5,-129.75"/>
<text text-anchor="middle" x="583.25" y="-116.25" font-family="Helvetica,sans-Serif" font-size="10.00">TLaBrBgoHit.h</text>
</a>
</g>
</g>
<!-- Node1&#45;&gt;Node10 -->
<g id="edge9_Node000001_Node000010" class="edge">
<title>Node1&#45;&gt;Node10</title>
<g id="a_edge9_Node000001_Node000010"><a xlink:title=" ">
<path fill="none" stroke="#63b8ff" d="M658.66,-160.11C640.27,-150.61 616.67,-138.4 600.81,-130.2"/>
<polygon fill="#63b8ff" stroke="#63b8ff" points="656.94,-163.16 667.43,-164.65 660.16,-156.95 656.94,-163.16"/>
</a>
</g>
</g>
<!-- Node15 -->
<g id="Node000015" class="node">
<title>Node15</title>
<g id="a_Node000015"><a xlink:href="_t_pulse_analyzer_8cxx.html" target="_top" xlink:title=" ">
<polygon fill="white" stroke="#666666" points="1105.25,-129.75 1005.25,-129.75 1005.25,-110.5 1105.25,-110.5 1105.25,-129.75"/>
<text text-anchor="middle" x="1055.25" y="-116.25" font-family="Helvetica,sans-Serif" font-size="10.00">TPulseAnalyzer.cxx</text>
</a>
</g>
</g>
<!-- Node1&#45;&gt;Node15 -->
<g id="edge14_Node000001_Node000015" class="edge">
<title>Node1&#45;&gt;Node15</title>
<g id="a_edge14_Node000001_Node000015"><a xlink:title=" ">
<path fill="none" stroke="#63b8ff" d="M743.35,-166.19C805.55,-157.27 907.98,-142.56 996.25,-129.75 999.12,-129.33 1002.07,-128.91 1005.04,-128.47"/>
<polygon fill="#63b8ff" stroke="#63b8ff" points="743.11,-162.69 733.71,-167.58 744.11,-169.62 743.11,-162.69"/>
</a>
</g>
</g>
<!-- Node16 -->
<g id="Node000016" class="node">
<title>Node16</title>
<g id="a_Node000016"><a xlink:href="_t_r_f_8h.html" target="_top" xlink:title=" ">
<polygon fill="white" stroke="#666666" points="707.38,-129.75 665.12,-129.75 665.12,-110.5 707.38,-110.5 707.38,-129.75"/>
<text text-anchor="middle" x="686.25" y="-116.25" font-family="Helvetica,sans-Serif" font-size="10.00">TRF.h</text>
</a>
</g>
</g>
<!-- Node1&#45;&gt;Node16 -->
<g id="edge15_Node000001_Node000016" class="edge">
<title>Node1&#45;&gt;Node16</title>
<g id="a_edge15_Node000001_Node000016"><a xlink:title=" ">
<path fill="none" stroke="#63b8ff" d="M686.25,-154.13C686.25,-145.84 686.25,-136.67 686.25,-130.11"/>
<polygon fill="#63b8ff" stroke="#63b8ff" points="682.75,-154.07 686.25,-164.07 689.75,-154.07 682.75,-154.07"/>
</a>
</g>
</g>
<!-- Node18 -->
<g id="Node000018" class="node">
<title>Node18</title>
<g id="a_Node000018"><a xlink:href="_t_s3_hit_8cxx.html" target="_top" xlink:title=" ">
<polygon fill="white" stroke="#666666" points="1186.88,-129.75 1123.62,-129.75 1123.62,-110.5 1186.88,-110.5 1186.88,-129.75"/>
<text text-anchor="middle" x="1155.25" y="-116.25" font-family="Helvetica,sans-Serif" font-size="10.00">TS3Hit.cxx</text>
</a>
</g>
</g>
<!-- Node1&#45;&gt;Node18 -->
<g id="edge18_Node000001_Node000018" class="edge">
<title>Node1&#45;&gt;Node18</title>
<g id="a_edge18_Node000001_Node000018"><a xlink:title=" ">
<path fill="none" stroke="#63b8ff" d="M743.41,-170.31C825.71,-164.02 982.22,-150.46 1114.25,-129.75 1117.27,-129.28 1120.4,-128.73 1123.53,-128.14"/>
<polygon fill="#63b8ff" stroke="#63b8ff" points="743.28,-166.81 733.57,-171.05 743.8,-173.79 743.28,-166.81"/>
</a>
</g>
</g>
<!-- Node19 -->
<g id="Node000019" class="node">
<title>Node19</title>
<g id="a_Node000019"><a xlink:href="_t_si_li_hit_8h.html" target="_top" xlink:title=" ">
<polygon fill="white" stroke="#666666" points="987,-129.75 927.5,-129.75 927.5,-110.5 987,-110.5 987,-129.75"/>
<text text-anchor="middle" x="957.25" y="-116.25" font-family="Helvetica,sans-Serif" font-size="10.00">TSiLiHit.h</text>
</a>
</g>
</g>
<!-- Node1&#45;&gt;Node19 -->
<g id="edge19_Node000001_Node000019" class="edge">
<title>Node1&#45;&gt;Node19</title>
<g id="a_edge19_Node000001_Node000019"><a xlink:title=" ">
<path fill="none" stroke="#63b8ff" d="M743.28,-163.86C790.3,-155.08 858.69,-142.06 918.25,-129.75 921.1,-129.16 924.07,-128.53 927.03,-127.89"/>
<polygon fill="#63b8ff" stroke="#63b8ff" points="742.78,-160.39 733.59,-165.66 744.06,-167.27 742.78,-160.39"/>
</a>
</g>
</g>
<!-- Node24 -->
<g id="Node000024" class="node">
<title>Node24</title>
<g id="a_Node000024"><a xlink:href="_t_tigress_hit_8h.html" target="_top" xlink:title=" ">
<polygon fill="white" stroke="#666666" points="822.5,-129.75 748,-129.75 748,-110.5 822.5,-110.5 822.5,-129.75"/>
<text text-anchor="middle" x="785.25" y="-116.25" font-family="Helvetica,sans-Serif" font-size="10.00">TTigressHit.h</text>
</a>
</g>
</g>
<!-- Node1&#45;&gt;Node24 -->
<g id="edge26_Node000001_Node000024" class="edge">
<title>Node1&#45;&gt;Node24</title>
<g id="a_edge26_Node000001_Node000024"><a xlink:title=" ">
<path fill="none" stroke="#63b8ff" d="M712.77,-160.11C730.44,-150.61 753.13,-138.4 768.37,-130.2"/>
<polygon fill="#63b8ff" stroke="#63b8ff" points="711.53,-156.81 704.38,-164.62 714.84,-162.97 711.53,-156.81"/>
</a>
</g>
</g>
<!-- Node28 -->
<g id="Node000028" class="node">
<title>Node28</title>
<g id="a_Node000028"><a xlink:href="_t_tip_hit_8h.html" target="_top" xlink:title=" ">
<polygon fill="white" stroke="#666666" points="909.12,-129.75 853.38,-129.75 853.38,-110.5 909.12,-110.5 909.12,-129.75"/>
<text text-anchor="middle" x="881.25" y="-116.25" font-family="Helvetica,sans-Serif" font-size="10.00">TTipHit.h</text>
</a>
</g>
</g>
<!-- Node1&#45;&gt;Node28 -->
<g id="edge33_Node000001_Node000028" class="edge">
<title>Node1&#45;&gt;Node28</title>
<g id="a_edge33_Node000001_Node000028"><a xlink:title=" ">
<path fill="none" stroke="#63b8ff" d="M729.99,-162.43C767.63,-152.15 820.84,-137.62 853.08,-128.82"/>
<polygon fill="#63b8ff" stroke="#63b8ff" points="729.51,-158.93 720.79,-164.94 731.36,-165.69 729.51,-158.93"/>
</a>
</g>
</g>
<!-- Node3 -->
<g id="Node000003" class="node">
<title>Node3</title>
<g id="a_Node000003"><a xlink:href="_t_fipps_bgo_hit_8cxx.html" target="_top" xlink:title=" ">
<polygon fill="white" stroke="#666666" points="92.5,-74.5 0,-74.5 0,-55.25 92.5,-55.25 92.5,-74.5"/>
<text text-anchor="middle" x="46.25" y="-61" font-family="Helvetica,sans-Serif" font-size="10.00">TFippsBgoHit.cxx</text>
</a>
</g>
</g>
<!-- Node2&#45;&gt;Node3 -->
<g id="edge2_Node000002_Node000003" class="edge">
<title>Node2&#45;&gt;Node3</title>
<g id="a_edge2_Node000002_Node000003"><a xlink:title=" ">
<path fill="none" stroke="#63b8ff" d="M51.25,-99.17C50,-90.8 48.6,-81.5 47.6,-74.86"/>
<polygon fill="#63b8ff" stroke="#63b8ff" points="47.76,-99.47 52.7,-108.84 54.68,-98.43 47.76,-99.47"/>
</a>
</g>
</g>
<!-- Node5 -->
<g id="Node000005" class="node">
<title>Node5</title>
<g id="a_Node000005"><a xlink:href="_t_fipps_la_br_bgo_hit_8cxx.html" target="_top" xlink:title=" ">
<polygon fill="white" stroke="#666666" points="224,-74.5 110.5,-74.5 110.5,-55.25 224,-55.25 224,-74.5"/>
<text text-anchor="middle" x="167.25" y="-61" font-family="Helvetica,sans-Serif" font-size="10.00">TFippsLaBrBgoHit.cxx</text>
</a>
</g>
</g>
<!-- Node4&#45;&gt;Node5 -->
<g id="edge4_Node000004_Node000005" class="edge">
<title>Node4&#45;&gt;Node5</title>
<g id="a_edge4_Node000004_Node000005"><a xlink:title=" ">
<path fill="none" stroke="#63b8ff" d="M208.67,-102.64C198.31,-93.44 185.82,-82.35 177.28,-74.77"/>
<polygon fill="#63b8ff" stroke="#63b8ff" points="206.14,-105.07 215.94,-109.09 210.78,-99.83 206.14,-105.07"/>
</a>
</g>
</g>
<!-- Node7 -->
<g id="Node000007" class="node">
<title>Node7</title>
<g id="a_Node000007"><a xlink:href="_t_griffin_bgo_hit_8cxx.html" target="_top" xlink:title=" ">
<polygon fill="white" stroke="#666666" points="334.88,-74.5 241.62,-74.5 241.62,-55.25 334.88,-55.25 334.88,-74.5"/>
<text text-anchor="middle" x="288.25" y="-61" font-family="Helvetica,sans-Serif" font-size="10.00">TGriffinBgoHit.cxx</text>
</a>
</g>
</g>
<!-- Node6&#45;&gt;Node7 -->
<g id="edge6_Node000006_Node000007" class="edge">
<title>Node6&#45;&gt;Node7</title>
<g id="a_edge6_Node000006_Node000007"><a xlink:title=" ">
<path fill="none" stroke="#63b8ff" d="M347.04,-104.05C332.6,-94.67 314.5,-82.92 302.23,-74.95"/>
<polygon fill="#63b8ff" stroke="#63b8ff" points="344.78,-106.76 355.07,-109.27 348.59,-100.89 344.78,-106.76"/>
</a>
</g>
</g>
<!-- Node9 -->
<g id="Node000009" class="node">
<title>Node9</title>
<g id="a_Node000009"><a xlink:href="_t_ifin_bgo_hit_8cxx.html" target="_top" xlink:title=" ">
<polygon fill="white" stroke="#666666" points="433.88,-74.5 352.62,-74.5 352.62,-55.25 433.88,-55.25 433.88,-74.5"/>
<text text-anchor="middle" x="393.25" y="-61" font-family="Helvetica,sans-Serif" font-size="10.00">TIfinBgoHit.cxx</text>
</a>
</g>
</g>
<!-- Node8&#45;&gt;Node9 -->
<g id="edge8_Node000008_Node000009" class="edge">
<title>Node8&#45;&gt;Node9</title>
<g id="a_edge8_Node000008_Node000009"><a xlink:title=" ">
<path fill="none" stroke="#63b8ff" d="M456.79,-104.32C441.22,-94.9 421.55,-83 408.25,-74.95"/>
<polygon fill="#63b8ff" stroke="#63b8ff" points="454.66,-107.13 465.03,-109.31 458.28,-101.14 454.66,-107.13"/>
</a>
</g>
</g>
<!-- Node11 -->
<g id="Node000011" class="node">
<title>Node11</title>
<g id="a_Node000011"><a xlink:href="_t_la_br_bgo_8h.html" target="_top" xlink:title=" ">
<polygon fill="white" stroke="#666666" points="520.12,-74.5 452.38,-74.5 452.38,-55.25 520.12,-55.25 520.12,-74.5"/>
<text text-anchor="middle" x="486.25" y="-61" font-family="Helvetica,sans-Serif" font-size="10.00">TLaBrBgo.h</text>
</a>
</g>
</g>
<!-- Node10&#45;&gt;Node11 -->
<g id="edge10_Node000010_Node000011" class="edge">
<title>Node10&#45;&gt;Node11</title>
<g id="a_edge10_Node000010_Node000011"><a xlink:title=" ">
<path fill="none" stroke="#63b8ff" d="M556.78,-104.59C539.54,-95.13 517.58,-83.08 502.79,-74.95"/>
<polygon fill="#63b8ff" stroke="#63b8ff" points="555.02,-107.62 565.47,-109.36 558.39,-101.48 555.02,-107.62"/>
</a>
</g>
</g>
<!-- Node14 -->
<g id="Node000014" class="node">
<title>Node14</title>
<g id="a_Node000014"><a xlink:href="_t_la_br_bgo_hit_8cxx.html" target="_top" xlink:title=" ">
<polygon fill="white" stroke="#666666" points="628,-74.5 538.5,-74.5 538.5,-55.25 628,-55.25 628,-74.5"/>
<text text-anchor="middle" x="583.25" y="-61" font-family="Helvetica,sans-Serif" font-size="10.00">TLaBrBgoHit.cxx</text>
</a>
</g>
</g>
<!-- Node10&#45;&gt;Node14 -->
<g id="edge13_Node000010_Node000014" class="edge">
<title>Node10&#45;&gt;Node14</title>
<g id="a_edge13_Node000010_Node000014"><a xlink:title=" ">
<path fill="none" stroke="#63b8ff" d="M583.25,-98.88C583.25,-90.59 583.25,-81.42 583.25,-74.86"/>
<polygon fill="#63b8ff" stroke="#63b8ff" points="579.75,-98.82 583.25,-108.82 586.75,-98.82 579.75,-98.82"/>
</a>
</g>
</g>
<!-- Node12 -->
<g id="Node000012" class="node">
<title>Node12</title>
<g id="a_Node000012"><a xlink:href="_t_g_r_s_i_mnemonic_8cxx.html" target="_top" xlink:title=" ">
<polygon fill="white" stroke="#666666" points="717,-19.25 609.5,-19.25 609.5,0 717,0 717,-19.25"/>
<text text-anchor="middle" x="663.25" y="-5.75" font-family="Helvetica,sans-Serif" font-size="10.00">TGRSIMnemonic.cxx</text>
</a>
</g>
</g>
<!-- Node11&#45;&gt;Node12 -->
<g id="edge11_Node000011_Node000012" class="edge">
<title>Node11&#45;&gt;Node12</title>
<g id="a_edge11_Node000011_Node000012"><a xlink:title=" ">
<path fill="none" stroke="#63b8ff" d="M527.17,-51.57C559.51,-41.84 603.91,-28.48 633.08,-19.7"/>
<polygon fill="#63b8ff" stroke="#63b8ff" points="526.29,-48.17 517.73,-54.41 528.31,-54.88 526.29,-48.17"/>
</a>
</g>
</g>
<!-- Node13 -->
<g id="Node000013" class="node">
<title>Node13</title>
<g id="a_Node000013"><a xlink:href="_t_la_br_bgo_8cxx.html" target="_top" xlink:title=" ">
<polygon fill="white" stroke="#666666" points="502.62,-19.25 425.88,-19.25 425.88,0 502.62,0 502.62,-19.25"/>
<text text-anchor="middle" x="464.25" y="-5.75" font-family="Helvetica,sans-Serif" font-size="10.00">TLaBrBgo.cxx</text>
</a>
</g>
</g>
<!-- Node11&#45;&gt;Node13 -->
<g id="edge12_Node000011_Node000013" class="edge">
<title>Node11&#45;&gt;Node13</title>
<g id="a_edge12_Node000011_Node000013"><a xlink:title=" ">
<path fill="none" stroke="#63b8ff" d="M478.25,-44.5C474.73,-35.99 470.77,-26.4 467.96,-19.61"/>
<polygon fill="#63b8ff" stroke="#63b8ff" points="474.99,-45.78 482.04,-53.68 481.46,-43.1 474.99,-45.78"/>
</a>
</g>
</g>
<!-- Node16&#45;&gt;Node12 -->
<g id="edge16_Node000016_Node000012" class="edge">
<title>Node16&#45;&gt;Node12</title>
<g id="a_edge16_Node000016_Node000012"><a xlink:title=" ">
<path fill="none" stroke="#63b8ff" d="M681.07,-99.13C679.14,-91.45 677.01,-82.59 675.25,-74.5 670.99,-54.87 666.85,-31.66 664.73,-19.33"/>
<polygon fill="#63b8ff" stroke="#63b8ff" points="677.67,-99.98 683.54,-108.8 684.45,-98.25 677.67,-99.98"/>
</a>
</g>
</g>
<!-- Node17 -->
<g id="Node000017" class="node">
<title>Node17</title>
<g id="a_Node000017"><a xlink:href="_t_r_f_8cxx.html" target="_top" xlink:title=" ">
<polygon fill="white" stroke="#666666" points="735.88,-74.5 684.62,-74.5 684.62,-55.25 735.88,-55.25 735.88,-74.5"/>
<text text-anchor="middle" x="710.25" y="-61" font-family="Helvetica,sans-Serif" font-size="10.00">TRF.cxx</text>
</a>
</g>
</g>
<!-- Node16&#45;&gt;Node17 -->
<g id="edge17_Node000016_Node000017" class="edge">
<title>Node16&#45;&gt;Node17</title>
<g id="a_edge17_Node000016_Node000017"><a xlink:title=" ">
<path fill="none" stroke="#63b8ff" d="M694.85,-100.04C698.72,-91.46 703.1,-81.73 706.2,-74.86"/>
<polygon fill="#63b8ff" stroke="#63b8ff" points="691.75,-98.4 690.84,-108.95 698.13,-101.27 691.75,-98.4"/>
</a>
</g>
</g>
<!-- Node20 -->
<g id="Node000020" class="node">
<title>Node20</title>
<g id="a_Node000020"><a xlink:href="_t_si_li_8h.html" target="_top" xlink:title=" ">
<polygon fill="white" stroke="#666666" points="1018.62,-74.5 971.88,-74.5 971.88,-55.25 1018.62,-55.25 1018.62,-74.5"/>
<text text-anchor="middle" x="995.25" y="-61" font-family="Helvetica,sans-Serif" font-size="10.00">TSiLi.h</text>
</a>
</g>
</g>
<!-- Node19&#45;&gt;Node20 -->
<g id="edge20_Node000019_Node000020" class="edge">
<title>Node19&#45;&gt;Node20</title>
<g id="a_edge20_Node000019_Node000020"><a xlink:title=" ">
<path fill="none" stroke="#63b8ff" d="M970.05,-101.19C976.37,-92.34 983.71,-82.04 988.84,-74.86"/>
<polygon fill="#63b8ff" stroke="#63b8ff" points="967.36,-98.93 964.4,-109.1 973.06,-102.99 967.36,-98.93"/>
</a>
</g>
</g>
<!-- Node23 -->
<g id="Node000023" class="node">
<title>Node23</title>
<g id="a_Node000023"><a xlink:href="_t_si_li_hit_8cxx.html" target="_top" xlink:title=" ">
<polygon fill="white" stroke="#666666" points="1247.5,-19.25 1179,-19.25 1179,0 1247.5,0 1247.5,-19.25"/>
<text text-anchor="middle" x="1213.25" y="-5.75" font-family="Helvetica,sans-Serif" font-size="10.00">TSiLiHit.cxx</text>
</a>
</g>
</g>
<!-- Node19&#45;&gt;Node23 -->
<g id="edge25_Node000019_Node000023" class="edge">
<title>Node19&#45;&gt;Node23</title>
<g id="a_edge25_Node000019_Node000023"><a xlink:title=" ">
<path fill="none" stroke="#63b8ff" d="M989.1,-105.63C1042.01,-83.2 1146.65,-38.85 1191.74,-19.74"/>
<polygon fill="#63b8ff" stroke="#63b8ff" points="987.87,-102.35 980.03,-109.47 990.6,-108.79 987.87,-102.35"/>
</a>
</g>
</g>
<!-- Node20&#45;&gt;Node12 -->
<g id="edge22_Node000020_Node000012" class="edge">
<title>Node20&#45;&gt;Node12</title>
<g id="a_edge22_Node000020_Node000012"><a xlink:title=" ">
<path fill="none" stroke="#63b8ff" d="M960.55,-58.31C902.68,-49.03 786.03,-30.32 717.31,-19.3"/>
<polygon fill="#63b8ff" stroke="#63b8ff" points="959.72,-61.72 970.15,-59.85 960.83,-54.81 959.72,-61.72"/>
</a>
</g>
</g>
<!-- Node21 -->
<g id="Node000021" class="node">
<title>Node21</title>
<g id="a_Node000021"><a xlink:href="_get_tree_entries_8cxx.html" target="_top" xlink:title=" ">
<polygon fill="white" stroke="#666666" points="1005.12,-19.25 907.38,-19.25 907.38,0 1005.12,0 1005.12,-19.25"/>
<text text-anchor="middle" x="956.25" y="-5.75" font-family="Helvetica,sans-Serif" font-size="10.00">GetTreeEntries.cxx</text>
</a>
</g>
</g>
<!-- Node20&#45;&gt;Node21 -->
<g id="edge21_Node000020_Node000021" class="edge">
<title>Node20&#45;&gt;Node21</title>
<g id="a_edge21_Node000020_Node000021"><a xlink:title=" ">
<path fill="none" stroke="#63b8ff" d="M982.11,-45.94C975.63,-37.09 968.09,-26.79 962.83,-19.61"/>
<polygon fill="#63b8ff" stroke="#63b8ff" points="979.18,-47.86 987.92,-53.86 984.83,-43.73 979.18,-47.86"/>
</a>
</g>
</g>
<!-- Node22 -->
<g id="Node000022" class="node">
<title>Node22</title>
<g id="a_Node000022"><a xlink:href="_t_si_li_8cxx.html" target="_top" xlink:title=" ">
<polygon fill="white" stroke="#666666" points="1161.12,-19.25 1105.38,-19.25 1105.38,0 1161.12,0 1161.12,-19.25"/>
<text text-anchor="middle" x="1133.25" y="-5.75" font-family="Helvetica,sans-Serif" font-size="10.00">TSiLi.cxx</text>
</a>
</g>
</g>
<!-- Node20&#45;&gt;Node22 -->
<g id="edge23_Node000020_Node000022" class="edge">
<title>Node20&#45;&gt;Node22</title>
<g id="a_edge23_Node000020_Node000022"><a xlink:title=" ">
<path fill="none" stroke="#63b8ff" d="M1029.15,-50.79C1054.17,-41.14 1087.58,-28.25 1109.73,-19.7"/>
<polygon fill="#63b8ff" stroke="#63b8ff" points="1028.14,-47.43 1020.07,-54.3 1030.66,-53.96 1028.14,-47.43"/>
</a>
</g>
</g>
<!-- Node20&#45;&gt;Node23 -->
<g id="edge24_Node000020_Node000023" class="edge">
<title>Node20&#45;&gt;Node23</title>
<g id="a_edge24_Node000020_Node000023"><a xlink:title=" ">
<path fill="none" stroke="#63b8ff" d="M1030.01,-55.38C1070.83,-45.41 1138.13,-28.97 1178.81,-19.04"/>
<polygon fill="#63b8ff" stroke="#63b8ff" points="1029.35,-51.94 1020.47,-57.72 1031.01,-58.74 1029.35,-51.94"/>
</a>
</g>
</g>
<!-- Node25 -->
<g id="Node000025" class="node">
<title>Node25</title>
<g id="a_Node000025"><a xlink:href="_t_tigress_8h.html" target="_top" xlink:title=" ">
<polygon fill="white" stroke="#666666" points="816.12,-74.5 754.38,-74.5 754.38,-55.25 816.12,-55.25 816.12,-74.5"/>
<text text-anchor="middle" x="785.25" y="-61" font-family="Helvetica,sans-Serif" font-size="10.00">TTigress.h</text>
</a>
</g>
</g>
<!-- Node24&#45;&gt;Node25 -->
<g id="edge27_Node000024_Node000025" class="edge">
<title>Node24&#45;&gt;Node25</title>
<g id="a_edge27_Node000024_Node000025"><a xlink:title=" ">
<path fill="none" stroke="#63b8ff" d="M785.25,-98.88C785.25,-90.59 785.25,-81.42 785.25,-74.86"/>
<polygon fill="#63b8ff" stroke="#63b8ff" points="781.75,-98.82 785.25,-108.82 788.75,-98.82 781.75,-98.82"/>
</a>
</g>
</g>
<!-- Node27 -->
<g id="Node000027" class="node">
<title>Node27</title>
<g id="a_Node000027"><a xlink:href="_t_tigress_hit_8cxx.html" target="_top" xlink:title=" ">
<polygon fill="white" stroke="#666666" points="819,-19.25 735.5,-19.25 735.5,0 819,0 819,-19.25"/>
<text text-anchor="middle" x="777.25" y="-5.75" font-family="Helvetica,sans-Serif" font-size="10.00">TTigressHit.cxx</text>
</a>
</g>
</g>
<!-- Node24&#45;&gt;Node27 -->
<g id="edge32_Node000024_Node000027" class="edge">
<title>Node24&#45;&gt;Node27</title>
<g id="a_edge32_Node000024_Node000027"><a xlink:title=" ">
<path fill="none" stroke="#63b8ff" d="M806.19,-102.73C819.42,-90.26 832.71,-72.37 825.25,-55.25 818.52,-39.81 803.53,-27.31 792.08,-19.51"/>
<polygon fill="#63b8ff" stroke="#63b8ff" points="804.13,-99.89 798.87,-109.09 808.72,-105.18 804.13,-99.89"/>
</a>
</g>
</g>
<!-- Node25&#45;&gt;Node12 -->
<g id="edge29_Node000025_Node000012" class="edge">
<title>Node25&#45;&gt;Node12</title>
<g id="a_edge29_Node000025_Node000012"><a xlink:title=" ">
<path fill="none" stroke="#63b8ff" d="M754.08,-50.27C732.1,-40.68 703.27,-28.09 684.05,-19.7"/>
<polygon fill="#63b8ff" stroke="#63b8ff" points="752.6,-53.44 763.17,-54.24 755.4,-47.03 752.6,-53.44"/>
</a>
</g>
</g>
<!-- Node25&#45;&gt;Node21 -->
<g id="edge28_Node000025_Node000021" class="edge">
<title>Node25&#45;&gt;Node21</title>
<g id="a_edge28_Node000025_Node000021"><a xlink:title=" ">
<path fill="none" stroke="#63b8ff" d="M825.19,-51.44C856.4,-41.72 899.04,-28.44 927.1,-19.7"/>
<polygon fill="#63b8ff" stroke="#63b8ff" points="824.21,-48.08 815.7,-54.39 826.29,-54.76 824.21,-48.08"/>
</a>
</g>
</g>
<!-- Node26 -->
<g id="Node000026" class="node">
<title>Node26</title>
<g id="a_Node000026"><a xlink:href="_t_tigress_8cxx.html" target="_top" xlink:title=" ">
<polygon fill="white" stroke="#666666" points="591.62,-19.25 520.88,-19.25 520.88,0 591.62,0 591.62,-19.25"/>
<text text-anchor="middle" x="556.25" y="-5.75" font-family="Helvetica,sans-Serif" font-size="10.00">TTigress.cxx</text>
</a>
</g>
</g>
<!-- Node25&#45;&gt;Node26 -->
<g id="edge30_Node000025_Node000026" class="edge">
<title>Node25&#45;&gt;Node26</title>
<g id="a_edge30_Node000025_Node000026"><a xlink:title=" ">
<path fill="none" stroke="#63b8ff" d="M742.86,-54.02C699.52,-43.94 632.94,-28.46 592.12,-18.97"/>
<polygon fill="#63b8ff" stroke="#63b8ff" points="741.88,-57.38 752.41,-56.24 743.47,-50.57 741.88,-57.38"/>
</a>
</g>
</g>
<!-- Node25&#45;&gt;Node27 -->
<g id="edge31_Node000025_Node000027" class="edge">
<title>Node25&#45;&gt;Node27</title>
<g id="a_edge31_Node000025_Node000027"><a xlink:title=" ">
<path fill="none" stroke="#63b8ff" d="M782.25,-43.92C781,-35.55 779.6,-26.25 778.6,-19.61"/>
<polygon fill="#63b8ff" stroke="#63b8ff" points="778.76,-44.22 783.7,-53.59 785.68,-43.18 778.76,-44.22"/>
</a>
</g>
</g>
<!-- Node29 -->
<g id="Node000029" class="node">
<title>Node29</title>
<g id="a_Node000029"><a xlink:href="_t_tip_8h.html" target="_top" xlink:title=" ">
<polygon fill="white" stroke="#666666" points="915.75,-74.5 872.75,-74.5 872.75,-55.25 915.75,-55.25 915.75,-74.5"/>
<text text-anchor="middle" x="894.25" y="-61" font-family="Helvetica,sans-Serif" font-size="10.00">TTip.h</text>
</a>
</g>
</g>
<!-- Node28&#45;&gt;Node29 -->
<g id="edge34_Node000028_Node000029" class="edge">
<title>Node28&#45;&gt;Node29</title>
<g id="a_edge34_Node000028_Node000029"><a xlink:title=" ">
<path fill="none" stroke="#63b8ff" d="M886.12,-99.17C888.16,-90.8 890.44,-81.5 892.06,-74.86"/>
<polygon fill="#63b8ff" stroke="#63b8ff" points="882.73,-98.32 883.76,-108.86 889.53,-99.98 882.73,-98.32"/>
</a>
</g>
</g>
<!-- Node31 -->
<g id="Node000031" class="node">
<title>Node31</title>
<g id="a_Node000031"><a xlink:href="_t_tip_hit_8cxx.html" target="_top" xlink:title=" ">
<polygon fill="white" stroke="#666666" points="1087.62,-19.25 1022.88,-19.25 1022.88,0 1087.62,0 1087.62,-19.25"/>
<text text-anchor="middle" x="1055.25" y="-5.75" font-family="Helvetica,sans-Serif" font-size="10.00">TTipHit.cxx</text>
</a>
</g>
</g>
<!-- Node28&#45;&gt;Node31 -->
<g id="edge39_Node000028_Node000031" class="edge">
<title>Node28&#45;&gt;Node31</title>
<g id="a_edge39_Node000028_Node000031"><a xlink:title=" ">
<path fill="none" stroke="#63b8ff" d="M899.81,-102.82C915.92,-89.15 940.2,-69.6 963.25,-55.25 986.16,-40.99 1014.3,-27.93 1033.38,-19.68"/>
<polygon fill="#63b8ff" stroke="#63b8ff" points="897.79,-99.95 892.5,-109.13 902.36,-105.25 897.79,-99.95"/>
</a>
</g>
</g>
<!-- Node29&#45;&gt;Node12 -->
<g id="edge36_Node000029_Node000012" class="edge">
<title>Node29&#45;&gt;Node12</title>
<g id="a_edge36_Node000029_Node000012"><a xlink:title=" ">
<path fill="none" stroke="#63b8ff" d="M861.33,-56.29C819.51,-46.65 747.44,-30.03 702.72,-19.72"/>
<polygon fill="#63b8ff" stroke="#63b8ff" points="860.51,-59.69 871.04,-58.53 862.08,-52.87 860.51,-59.69"/>
</a>
</g>
</g>
<!-- Node29&#45;&gt;Node21 -->
<g id="edge35_Node000029_Node000021" class="edge">
<title>Node29&#45;&gt;Node21</title>
<g id="a_edge35_Node000029_Node000021"><a xlink:title=" ">
<path fill="none" stroke="#63b8ff" d="M913.45,-47.39C924.15,-38.19 937.06,-27.1 945.89,-19.52"/>
<polygon fill="#63b8ff" stroke="#63b8ff" points="911.22,-44.69 905.92,-53.86 915.78,-50 911.22,-44.69"/>
</a>
</g>
</g>
<!-- Node30 -->
<g id="Node000030" class="node">
<title>Node30</title>
<g id="a_Node000030"><a xlink:href="_t_tip_8cxx.html" target="_top" xlink:title=" ">
<polygon fill="white" stroke="#666666" points="889.25,-19.25 837.25,-19.25 837.25,0 889.25,0 889.25,-19.25"/>
<text text-anchor="middle" x="863.25" y="-5.75" font-family="Helvetica,sans-Serif" font-size="10.00">TTip.cxx</text>
</a>
</g>
</g>
<!-- Node29&#45;&gt;Node30 -->
<g id="edge37_Node000029_Node000030" class="edge">
<title>Node29&#45;&gt;Node30</title>
<g id="a_edge37_Node000029_Node000030"><a xlink:title=" ">
<path fill="none" stroke="#63b8ff" d="M883.47,-45.37C878.4,-36.64 872.57,-26.64 868.48,-19.61"/>
<polygon fill="#63b8ff" stroke="#63b8ff" points="880.31,-46.89 888.37,-53.77 886.36,-43.37 880.31,-46.89"/>
</a>
</g>
</g>
<!-- Node29&#45;&gt;Node31 -->
<g id="edge38_Node000029_Node000031" class="edge">
<title>Node29&#45;&gt;Node31</title>
<g id="a_edge38_Node000029_Node000031"><a xlink:title=" ">
<path fill="none" stroke="#63b8ff" d="M926.59,-53.18C956.24,-43.37 999.66,-29.01 1027.69,-19.74"/>
<polygon fill="#63b8ff" stroke="#63b8ff" points="925.8,-49.76 917.4,-56.22 927.99,-56.4 925.8,-49.76"/>
</a>
</g>
</g>
</g>
</svg>
