<?xml version="1.0" encoding="UTF-8" standalone="no"?>
<!DOCTYPE svg PUBLIC "-//W3C//DTD SVG 1.1//EN"
 "http://www.w3.org/Graphics/SVG/1.1/DTD/svg11.dtd">
<!-- Generated by graphviz version 12.2.0 (20241103.1931)
 -->
<!-- Title: TPeakFitter.cxx Pages: 1 -->
<svg width="1542pt" height="193pt"
 viewBox="0.00 0.00 1542.12 193.00" xmlns="http://www.w3.org/2000/svg" xmlns:xlink="http://www.w3.org/1999/xlink">
<g id="graph0" class="graph" transform="scale(1 1) rotate(0) translate(4 189)">
<title>TPeakFitter.cxx</title>
<!-- Node1 -->
<g id="Node000001" class="node">
<title>Node1</title>
<g id="a_Node000001"><a xlink:title=" ">
<polygon fill="#999999" stroke="#666666" points="1117.88,-185 1034.38,-185 1034.38,-165.75 1117.88,-165.75 1117.88,-185"/>
<text text-anchor="middle" x="1076.12" y="-171.5" font-family="Helvetica,sans-Serif" font-size="10.00">TPeakFitter.cxx</text>
</a>
</g>
</g>
<!-- Node2 -->
<g id="Node000002" class="node">
<title>Node2</title>
<g id="a_Node000002"><a xlink:href="_t_peak_fitter_8h.html" target="_top" xlink:title=" ">
<polygon fill="white" stroke="#666666" points="293.38,-129.75 218.88,-129.75 218.88,-110.5 293.38,-110.5 293.38,-129.75"/>
<text text-anchor="middle" x="256.12" y="-116.25" font-family="Helvetica,sans-Serif" font-size="10.00">TPeakFitter.h</text>
</a>
</g>
</g>
<!-- Node1&#45;&gt;Node2 -->
<g id="edge1_Node000001_Node000002" class="edge">
<title>Node1&#45;&gt;Node2</title>
<g id="a_edge1_Node000001_Node000002"><a xlink:title=" ">
<path fill="none" stroke="#63b8ff" d="M1034.05,-171.64C895.33,-162.63 452.84,-133.9 304.86,-124.29"/>
<polygon fill="#63b8ff" stroke="#63b8ff" points="305.21,-120.81 295,-123.65 304.76,-127.79 305.21,-120.81"/>
</a>
</g>
</g>
<!-- Node7 -->
<g id="Node000007" class="node">
<title>Node7</title>
<g id="a_Node000007"><a xlink:href="_globals_8h.html" target="_top" xlink:title=" ">
<polygon fill="white" stroke="#666666" points="897.38,-74.5 840.88,-74.5 840.88,-55.25 897.38,-55.25 897.38,-74.5"/>
<text text-anchor="middle" x="869.12" y="-61" font-family="Helvetica,sans-Serif" font-size="10.00">Globals.h</text>
</a>
</g>
</g>
<!-- Node1&#45;&gt;Node7 -->
<g id="edge37_Node000001_Node000007" class="edge">
<title>Node1&#45;&gt;Node7</title>
<g id="a_edge37_Node000001_Node000007"><a xlink:title=" ">
<path fill="none" stroke="#63b8ff" d="M1034.04,-173.69C995.02,-170.95 937.4,-161.29 899.12,-129.75 885.67,-118.66 877.9,-100.16 873.66,-85.92"/>
<polygon fill="#63b8ff" stroke="#63b8ff" points="877.05,-85.06 871.16,-76.25 870.28,-86.81 877.05,-85.06"/>
</a>
</g>
</g>
<!-- Node29 -->
<g id="Node000029" class="node">
<title>Node29</title>
<g id="a_Node000029"><a xlink:title=" ">
<polygon fill="#e0e0e0" stroke="#999999" points="1064.25,-129.75 1022,-129.75 1022,-110.5 1064.25,-110.5 1064.25,-129.75"/>
<text text-anchor="middle" x="1043.12" y="-116.25" font-family="Helvetica,sans-Serif" font-size="10.00">TH1.h</text>
</a>
</g>
</g>
<!-- Node1&#45;&gt;Node29 -->
<g id="edge32_Node000001_Node000029" class="edge">
<title>Node1&#45;&gt;Node29</title>
<g id="a_edge32_Node000001_Node000029"><a xlink:title=" ">
<path fill="none" stroke="#63b8ff" d="M1070.68,-165.58C1066.35,-158.61 1060.16,-148.62 1054.74,-139.87"/>
<polygon fill="#63b8ff" stroke="#63b8ff" points="1057.73,-138.05 1049.49,-131.4 1051.78,-141.74 1057.73,-138.05"/>
</a>
</g>
</g>
<!-- Node30 -->
<g id="Node000030" class="node">
<title>Node30</title>
<g id="a_Node000030"><a xlink:title=" ">
<polygon fill="#e0e0e0" stroke="#999999" points="1136.25,-129.75 1082,-129.75 1082,-110.5 1136.25,-110.5 1136.25,-129.75"/>
<text text-anchor="middle" x="1109.12" y="-116.25" font-family="Helvetica,sans-Serif" font-size="10.00">TClass.h</text>
</a>
</g>
</g>
<!-- Node1&#45;&gt;Node30 -->
<g id="edge33_Node000001_Node000030" class="edge">
<title>Node1&#45;&gt;Node30</title>
<g id="a_edge33_Node000001_Node000030"><a xlink:title=" ">
<path fill="none" stroke="#63b8ff" d="M1081.57,-165.58C1085.9,-158.61 1092.09,-148.62 1097.51,-139.87"/>
<polygon fill="#63b8ff" stroke="#63b8ff" points="1100.47,-141.74 1102.76,-131.4 1094.52,-138.05 1100.47,-141.74"/>
</a>
</g>
</g>
<!-- Node31 -->
<g id="Node000031" class="node">
<title>Node31</title>
<g id="a_Node000031"><a xlink:title=" ">
<polygon fill="#e0e0e0" stroke="#999999" points="1277.75,-129.75 1154.5,-129.75 1154.5,-110.5 1277.75,-110.5 1277.75,-129.75"/>
<text text-anchor="middle" x="1216.12" y="-116.25" font-family="Helvetica,sans-Serif" font-size="10.00">Math/MinimizerOptions.h</text>
</a>
</g>
</g>
<!-- Node1&#45;&gt;Node31 -->
<g id="edge34_Node000001_Node000031" class="edge">
<title>Node1&#45;&gt;Node31</title>
<g id="a_edge34_Node000001_Node000031"><a xlink:title=" ">
<path fill="none" stroke="#63b8ff" d="M1099.87,-165.34C1122.3,-156.81 1156.19,-143.92 1181.6,-134.26"/>
<polygon fill="#63b8ff" stroke="#63b8ff" points="1182.74,-137.57 1190.84,-130.74 1180.25,-131.02 1182.74,-137.57"/>
</a>
</g>
</g>
<!-- Node32 -->
<g id="Node000032" class="node">
<title>Node32</title>
<g id="a_Node000032"><a xlink:title=" ">
<polygon fill="#e0e0e0" stroke="#999999" points="1376,-129.75 1296.25,-129.75 1296.25,-110.5 1376,-110.5 1376,-129.75"/>
<text text-anchor="middle" x="1336.12" y="-116.25" font-family="Helvetica,sans-Serif" font-size="10.00">TVirtualFitter.h</text>
</a>
</g>
</g>
<!-- Node1&#45;&gt;Node32 -->
<g id="edge35_Node000001_Node000032" class="edge">
<title>Node1&#45;&gt;Node32</title>
<g id="a_edge35_Node000001_Node000032"><a xlink:title=" ">
<path fill="none" stroke="#63b8ff" d="M1118.19,-165.76C1163.56,-156.47 1235.83,-141.67 1284.59,-131.68"/>
<polygon fill="#63b8ff" stroke="#63b8ff" points="1285.26,-135.12 1294.35,-129.68 1283.85,-128.26 1285.26,-135.12"/>
</a>
</g>
</g>
<!-- Node33 -->
<g id="Node000033" class="node">
<title>Node33</title>
<g id="a_Node000033"><a xlink:title=" ">
<polygon fill="#e0e0e0" stroke="#999999" points="1462.38,-129.75 1393.88,-129.75 1393.88,-110.5 1462.38,-110.5 1462.38,-129.75"/>
<text text-anchor="middle" x="1428.12" y="-116.25" font-family="Helvetica,sans-Serif" font-size="10.00">TFitResult.h</text>
</a>
</g>
</g>
<!-- Node1&#45;&gt;Node33 -->
<g id="edge36_Node000001_Node000033" class="edge">
<title>Node1&#45;&gt;Node33</title>
<g id="a_edge36_Node000001_Node000033"><a xlink:title=" ">
<path fill="none" stroke="#63b8ff" d="M1118.22,-169.04C1175.65,-161.59 1282,-147.23 1382.18,-130.18"/>
<polygon fill="#63b8ff" stroke="#63b8ff" points="1382.67,-133.65 1391.93,-128.51 1381.48,-126.75 1382.67,-133.65"/>
</a>
</g>
</g>
<!-- Node34 -->
<g id="Node000034" class="node">
<title>Node34</title>
<g id="a_Node000034"><a xlink:href="_t_g_r_s_i_functions_8h.html" target="_top" xlink:title=" ">
<polygon fill="white" stroke="#666666" points="1004.25,-129.75 908,-129.75 908,-110.5 1004.25,-110.5 1004.25,-129.75"/>
<text text-anchor="middle" x="956.12" y="-116.25" font-family="Helvetica,sans-Serif" font-size="10.00">TGRSIFunctions.h</text>
</a>
</g>
</g>
<!-- Node1&#45;&gt;Node34 -->
<g id="edge38_Node000001_Node000034" class="edge">
<title>Node1&#45;&gt;Node34</title>
<g id="a_edge38_Node000001_Node000034"><a xlink:title=" ">
<path fill="none" stroke="#63b8ff" d="M1055.77,-165.34C1036.89,-156.97 1008.54,-144.38 986.9,-134.78"/>
<polygon fill="#63b8ff" stroke="#63b8ff" points="988.52,-131.67 977.96,-130.82 985.69,-138.07 988.52,-131.67"/>
</a>
</g>
</g>
<!-- Node3 -->
<g id="Node000003" class="node">
<title>Node3</title>
<g id="a_Node000003"><a xlink:title=" ">
<polygon fill="#e0e0e0" stroke="#999999" points="48.25,-19.25 0,-19.25 0,0 48.25,0 48.25,-19.25"/>
<text text-anchor="middle" x="24.12" y="-5.75" font-family="Helvetica,sans-Serif" font-size="10.00">cstdarg</text>
</a>
</g>
</g>
<!-- Node2&#45;&gt;Node3 -->
<g id="edge2_Node000002_Node000003" class="edge">
<title>Node2&#45;&gt;Node3</title>
<g id="a_edge2_Node000002_Node000003"><a xlink:title=" ">
<path fill="none" stroke="#63b8ff" d="M230.39,-110.08C207.04,-101.63 171.81,-88.28 142.12,-74.5 109.33,-59.27 72.92,-39.03 49.34,-25.45"/>
<polygon fill="#63b8ff" stroke="#63b8ff" points="51.18,-22.47 40.77,-20.48 47.67,-28.53 51.18,-22.47"/>
</a>
</g>
</g>
<!-- Node4 -->
<g id="Node000004" class="node">
<title>Node4</title>
<g id="a_Node000004"><a xlink:title=" ">
<polygon fill="#e0e0e0" stroke="#999999" points="107.5,-19.25 66.75,-19.25 66.75,0 107.5,0 107.5,-19.25"/>
<text text-anchor="middle" x="87.12" y="-5.75" font-family="Helvetica,sans-Serif" font-size="10.00">TF1.h</text>
</a>
</g>
</g>
<!-- Node2&#45;&gt;Node4 -->
<g id="edge3_Node000002_Node000004" class="edge">
<title>Node2&#45;&gt;Node4</title>
<g id="a_edge3_Node000002_Node000004"><a xlink:title=" ">
<path fill="none" stroke="#63b8ff" d="M237.56,-110.12C220.44,-101.59 194.53,-88.1 173.12,-74.5 149.64,-59.57 124.23,-40.27 107.16,-26.81"/>
<polygon fill="#63b8ff" stroke="#63b8ff" points="109.35,-24.08 99.34,-20.58 104.98,-29.55 109.35,-24.08"/>
</a>
</g>
</g>
<!-- Node5 -->
<g id="Node000005" class="node">
<title>Node5</title>
<g id="a_Node000005"><a xlink:title=" ">
<polygon fill="#e0e0e0" stroke="#999999" points="996.75,-74.5 915.5,-74.5 915.5,-55.25 996.75,-55.25 996.75,-74.5"/>
<text text-anchor="middle" x="956.12" y="-61" font-family="Helvetica,sans-Serif" font-size="10.00">TFitResultPtr.h</text>
</a>
</g>
</g>
<!-- Node2&#45;&gt;Node5 -->
<g id="edge4_Node000002_Node000005" class="edge">
<title>Node2&#45;&gt;Node5</title>
<g id="a_edge4_Node000002_Node000005"><a xlink:title=" ">
<path fill="none" stroke="#63b8ff" d="M293.62,-117.89C391.95,-114.38 665.49,-102.76 903.92,-74.63"/>
<polygon fill="#63b8ff" stroke="#63b8ff" points="904.23,-78.12 913.74,-73.46 903.4,-71.17 904.23,-78.12"/>
</a>
</g>
</g>
<!-- Node6 -->
<g id="Node000006" class="node">
<title>Node6</title>
<g id="a_Node000006"><a xlink:title=" ">
<polygon fill="#e0e0e0" stroke="#999999" points="318,-19.25 262.25,-19.25 262.25,0 318,0 318,-19.25"/>
<text text-anchor="middle" x="290.12" y="-5.75" font-family="Helvetica,sans-Serif" font-size="10.00">TGraph.h</text>
</a>
</g>
</g>
<!-- Node2&#45;&gt;Node6 -->
<g id="edge5_Node000002_Node000006" class="edge">
<title>Node2&#45;&gt;Node6</title>
<g id="a_edge5_Node000002_Node000006"><a xlink:title=" ">
<path fill="none" stroke="#63b8ff" d="M258.92,-110.24C261.74,-101.23 266.24,-86.9 270.12,-74.5 274.76,-59.71 279.99,-42.99 283.95,-30.37"/>
<polygon fill="#63b8ff" stroke="#63b8ff" points="287.18,-31.76 286.83,-21.17 280.5,-29.66 287.18,-31.76"/>
</a>
</g>
</g>
<!-- Node2&#45;&gt;Node7 -->
<g id="edge6_Node000002_Node000007" class="edge">
<title>Node2&#45;&gt;Node7</title>
<g id="a_edge6_Node000002_Node000007"><a xlink:title=" ">
<path fill="none" stroke="#63b8ff" d="M293.55,-115.87C402.27,-106.43 717.47,-79.05 829.24,-69.34"/>
<polygon fill="#63b8ff" stroke="#63b8ff" points="829.46,-72.83 839.12,-68.48 828.86,-65.86 829.46,-72.83"/>
</a>
</g>
</g>
<!-- Node26 -->
<g id="Node000026" class="node">
<title>Node26</title>
<g id="a_Node000026"><a xlink:href="_t_single_peak_8h.html" target="_top" xlink:title=" ">
<polygon fill="white" stroke="#666666" points="261.62,-74.5 182.62,-74.5 182.62,-55.25 261.62,-55.25 261.62,-74.5"/>
<text text-anchor="middle" x="222.12" y="-61" font-family="Helvetica,sans-Serif" font-size="10.00">TSinglePeak.h</text>
</a>
</g>
</g>
<!-- Node2&#45;&gt;Node26 -->
<g id="edge25_Node000002_Node000026" class="edge">
<title>Node2&#45;&gt;Node26</title>
<g id="a_edge25_Node000002_Node000026"><a xlink:title=" ">
<path fill="none" stroke="#63b8ff" d="M245.34,-110.33C239.47,-103.44 232.73,-93.59 227.78,-84.91"/>
<polygon fill="#63b8ff" stroke="#63b8ff" points="231,-83.53 223.34,-76.21 224.77,-86.71 231,-83.53"/>
</a>
</g>
</g>
<!-- Node8 -->
<g id="Node000008" class="node">
<title>Node8</title>
<g id="a_Node000008"><a xlink:title=" ">
<polygon fill="#e0e0e0" stroke="#999999" points="1475.88,-19.25 1422.38,-19.25 1422.38,0 1475.88,0 1475.88,-19.25"/>
<text text-anchor="middle" x="1449.12" y="-5.75" font-family="Helvetica,sans-Serif" font-size="10.00">iostream</text>
</a>
</g>
</g>
<!-- Node7&#45;&gt;Node8 -->
<g id="edge7_Node000007_Node000008" class="edge">
<title>Node7&#45;&gt;Node8</title>
<g id="a_edge7_Node000007_Node000008"><a xlink:title=" ">
<path fill="none" stroke="#63b8ff" d="M897.72,-56.74C900.55,-56.17 903.39,-55.66 906.12,-55.25 1125.89,-22.05 1187.88,-52.66 1411,-19.3"/>
<polygon fill="#63b8ff" stroke="#63b8ff" points="1411.24,-22.8 1420.6,-17.83 1410.18,-15.88 1411.24,-22.8"/>
</a>
</g>
</g>
<!-- Node9 -->
<g id="Node000009" class="node">
<title>Node9</title>
<g id="a_Node000009"><a xlink:title=" ">
<polygon fill="#e0e0e0" stroke="#999999" points="386,-19.25 336.25,-19.25 336.25,0 386,0 386,-19.25"/>
<text text-anchor="middle" x="361.12" y="-5.75" font-family="Helvetica,sans-Serif" font-size="10.00">iomanip</text>
</a>
</g>
</g>
<!-- Node7&#45;&gt;Node9 -->
<g id="edge8_Node000007_Node000009" class="edge">
<title>Node7&#45;&gt;Node9</title>
<g id="a_edge8_Node000007_Node000009"><a xlink:title=" ">
<path fill="none" stroke="#63b8ff" d="M840.61,-62.73C768.15,-59.49 571.01,-48.65 397.42,-19.38"/>
<polygon fill="#63b8ff" stroke="#63b8ff" points="398.22,-15.96 387.77,-17.72 397.04,-22.86 398.22,-15.96"/>
</a>
</g>
</g>
<!-- Node10 -->
<g id="Node000010" class="node">
<title>Node10</title>
<g id="a_Node000010"><a xlink:title=" ">
<polygon fill="#e0e0e0" stroke="#999999" points="462.12,-19.25 404.12,-19.25 404.12,0 462.12,0 462.12,-19.25"/>
<text text-anchor="middle" x="433.12" y="-5.75" font-family="Helvetica,sans-Serif" font-size="10.00">stdexcept</text>
</a>
</g>
</g>
<!-- Node7&#45;&gt;Node10 -->
<g id="edge9_Node000007_Node000010" class="edge">
<title>Node7&#45;&gt;Node10</title>
<g id="a_edge9_Node000007_Node000010"><a xlink:title=" ">
<path fill="none" stroke="#63b8ff" d="M840.5,-61.77C776.53,-56.83 616.96,-43.2 473.68,-19.51"/>
<polygon fill="#63b8ff" stroke="#63b8ff" points="474.45,-16.09 464.01,-17.89 473.3,-22.99 474.45,-16.09"/>
</a>
</g>
</g>
<!-- Node11 -->
<g id="Node000011" class="node">
<title>Node11</title>
<g id="a_Node000011"><a xlink:title=" ">
<polygon fill="#e0e0e0" stroke="#999999" points="1534.12,-19.25 1494.12,-19.25 1494.12,0 1534.12,0 1534.12,-19.25"/>
<text text-anchor="middle" x="1514.12" y="-5.75" font-family="Helvetica,sans-Serif" font-size="10.00">string</text>
</a>
</g>
</g>
<!-- Node7&#45;&gt;Node11 -->
<g id="edge10_Node000007_Node000011" class="edge">
<title>Node7&#45;&gt;Node11</title>
<g id="a_edge10_Node000007_Node000011"><a xlink:title=" ">
<path fill="none" stroke="#63b8ff" d="M897.72,-56.71C900.55,-56.15 903.38,-55.65 906.12,-55.25 1157.62,-18.38 1229.24,-62.99 1482.64,-19.27"/>
<polygon fill="#63b8ff" stroke="#63b8ff" points="1482.93,-22.78 1492.18,-17.6 1481.72,-15.88 1482.93,-22.78"/>
</a>
</g>
</g>
<!-- Node12 -->
<g id="Node000012" class="node">
<title>Node12</title>
<g id="a_Node000012"><a xlink:title=" ">
<polygon fill="#e0e0e0" stroke="#999999" points="522.25,-19.25 480,-19.25 480,0 522.25,0 522.25,-19.25"/>
<text text-anchor="middle" x="501.12" y="-5.75" font-family="Helvetica,sans-Serif" font-size="10.00">cstdio</text>
</a>
</g>
</g>
<!-- Node7&#45;&gt;Node12 -->
<g id="edge11_Node000007_Node000012" class="edge">
<title>Node7&#45;&gt;Node12</title>
<g id="a_edge11_Node000007_Node000012"><a xlink:title=" ">
<path fill="none" stroke="#63b8ff" d="M840.39,-61.53C783.56,-56.6 652.65,-43.69 533.76,-19.53"/>
<polygon fill="#63b8ff" stroke="#63b8ff" points="534.64,-16.14 524.14,-17.54 533.22,-22.99 534.64,-16.14"/>
</a>
</g>
</g>
<!-- Node13 -->
<g id="Node000013" class="node">
<title>Node13</title>
<g id="a_Node000013"><a xlink:title=" ">
<polygon fill="#e0e0e0" stroke="#999999" points="585.75,-19.25 540.5,-19.25 540.5,0 585.75,0 585.75,-19.25"/>
<text text-anchor="middle" x="563.12" y="-5.75" font-family="Helvetica,sans-Serif" font-size="10.00">cstdint</text>
</a>
</g>
</g>
<!-- Node7&#45;&gt;Node13 -->
<g id="edge12_Node000007_Node000013" class="edge">
<title>Node7&#45;&gt;Node13</title>
<g id="a_edge12_Node000007_Node000013"><a xlink:title=" ">
<path fill="none" stroke="#63b8ff" d="M840.55,-60.2C792.42,-53.8 691.97,-39.54 597.34,-19.53"/>
<polygon fill="#63b8ff" stroke="#63b8ff" points="598.12,-16.12 587.61,-17.44 596.65,-22.96 598.12,-16.12"/>
</a>
</g>
</g>
<!-- Node14 -->
<g id="Node000014" class="node">
<title>Node14</title>
<g id="a_Node000014"><a xlink:title=" ">
<polygon fill="#e0e0e0" stroke="#999999" points="648.38,-19.25 603.88,-19.25 603.88,0 648.38,0 648.38,-19.25"/>
<text text-anchor="middle" x="626.12" y="-5.75" font-family="Helvetica,sans-Serif" font-size="10.00">cstdlib</text>
</a>
</g>
</g>
<!-- Node7&#45;&gt;Node14 -->
<g id="edge13_Node000007_Node000014" class="edge">
<title>Node7&#45;&gt;Node14</title>
<g id="a_edge13_Node000007_Node000014"><a xlink:title=" ">
<path fill="none" stroke="#63b8ff" d="M840.53,-58.46C801.68,-50.97 729.81,-36.66 659.57,-19.73"/>
<polygon fill="#63b8ff" stroke="#63b8ff" points="660.78,-16.42 650.24,-17.46 659.13,-23.23 660.78,-16.42"/>
</a>
</g>
</g>
<!-- Node15 -->
<g id="Node000015" class="node">
<title>Node15</title>
<g id="a_Node000015"><a xlink:title=" ">
<polygon fill="#e0e0e0" stroke="#999999" points="725.88,-19.25 666.38,-19.25 666.38,0 725.88,0 725.88,-19.25"/>
<text text-anchor="middle" x="696.12" y="-5.75" font-family="Helvetica,sans-Serif" font-size="10.00">execinfo.h</text>
</a>
</g>
</g>
<!-- Node7&#45;&gt;Node15 -->
<g id="edge14_Node000007_Node000015" class="edge">
<title>Node7&#45;&gt;Node15</title>
<g id="a_edge14_Node000007_Node000015"><a xlink:title=" ">
<path fill="none" stroke="#63b8ff" d="M840.56,-55.08C812.14,-46.34 768.29,-32.84 736.36,-23.01"/>
<polygon fill="#63b8ff" stroke="#63b8ff" points="737.64,-19.74 727.05,-20.14 735.58,-26.43 737.64,-19.74"/>
</a>
</g>
</g>
<!-- Node16 -->
<g id="Node000016" class="node">
<title>Node16</title>
<g id="a_Node000016"><a xlink:title=" ">
<polygon fill="#e0e0e0" stroke="#999999" points="794.38,-19.25 743.88,-19.25 743.88,0 794.38,0 794.38,-19.25"/>
<text text-anchor="middle" x="769.12" y="-5.75" font-family="Helvetica,sans-Serif" font-size="10.00">cxxabi.h</text>
</a>
</g>
</g>
<!-- Node7&#45;&gt;Node16 -->
<g id="edge15_Node000007_Node000016" class="edge">
<title>Node7&#45;&gt;Node16</title>
<g id="a_edge15_Node000007_Node000016"><a xlink:title=" ">
<path fill="none" stroke="#63b8ff" d="M852.16,-54.84C836.86,-46.69 814.09,-34.57 796.26,-25.08"/>
<polygon fill="#63b8ff" stroke="#63b8ff" points="797.98,-22.02 787.51,-20.41 794.69,-28.2 797.98,-22.02"/>
</a>
</g>
</g>
<!-- Node17 -->
<g id="Node000017" class="node">
<title>Node17</title>
<g id="a_Node000017"><a xlink:title=" ">
<polygon fill="#e0e0e0" stroke="#999999" points="863.75,-19.25 812.5,-19.25 812.5,0 863.75,0 863.75,-19.25"/>
<text text-anchor="middle" x="838.12" y="-5.75" font-family="Helvetica,sans-Serif" font-size="10.00">sstream</text>
</a>
</g>
</g>
<!-- Node7&#45;&gt;Node17 -->
<g id="edge16_Node000007_Node000017" class="edge">
<title>Node7&#45;&gt;Node17</title>
<g id="a_edge16_Node000007_Node000017"><a xlink:title=" ">
<path fill="none" stroke="#63b8ff" d="M864.01,-55.08C859.95,-48.11 854.13,-38.12 849.04,-29.37"/>
<polygon fill="#63b8ff" stroke="#63b8ff" points="852.17,-27.8 844.12,-20.92 846.12,-31.32 852.17,-27.8"/>
</a>
</g>
</g>
<!-- Node18 -->
<g id="Node000018" class="node">
<title>Node18</title>
<g id="a_Node000018"><a xlink:title=" ">
<polygon fill="#e0e0e0" stroke="#999999" points="918.62,-19.25 881.62,-19.25 881.62,0 918.62,0 918.62,-19.25"/>
<text text-anchor="middle" x="900.12" y="-5.75" font-family="Helvetica,sans-Serif" font-size="10.00">array</text>
</a>
</g>
</g>
<!-- Node7&#45;&gt;Node18 -->
<g id="edge17_Node000007_Node000018" class="edge">
<title>Node7&#45;&gt;Node18</title>
<g id="a_edge17_Node000007_Node000018"><a xlink:title=" ">
<path fill="none" stroke="#63b8ff" d="M874.24,-55.08C878.3,-48.11 884.12,-38.12 889.21,-29.37"/>
<polygon fill="#63b8ff" stroke="#63b8ff" points="892.13,-31.32 894.13,-20.92 886.08,-27.8 892.13,-31.32"/>
</a>
</g>
</g>
<!-- Node19 -->
<g id="Node000019" class="node">
<title>Node19</title>
<g id="a_Node000019"><a xlink:title=" ">
<polygon fill="#e0e0e0" stroke="#999999" points="987.38,-19.25 936.88,-19.25 936.88,0 987.38,0 987.38,-19.25"/>
<text text-anchor="middle" x="962.12" y="-5.75" font-family="Helvetica,sans-Serif" font-size="10.00">memory</text>
</a>
</g>
</g>
<!-- Node7&#45;&gt;Node19 -->
<g id="edge18_Node000007_Node000019" class="edge">
<title>Node7&#45;&gt;Node19</title>
<g id="a_edge18_Node000007_Node000019"><a xlink:title=" ">
<path fill="none" stroke="#63b8ff" d="M884.9,-54.84C899.06,-46.73 920.11,-34.68 936.65,-25.21"/>
<polygon fill="#63b8ff" stroke="#63b8ff" points="938.02,-28.46 944.96,-20.45 934.54,-22.39 938.02,-28.46"/>
</a>
</g>
</g>
<!-- Node20 -->
<g id="Node000020" class="node">
<title>Node20</title>
<g id="a_Node000020"><a xlink:title=" ">
<polygon fill="#e0e0e0" stroke="#999999" points="1055,-19.25 1005.25,-19.25 1005.25,0 1055,0 1055,-19.25"/>
<text text-anchor="middle" x="1030.12" y="-5.75" font-family="Helvetica,sans-Serif" font-size="10.00">unistd.h</text>
</a>
</g>
</g>
<!-- Node7&#45;&gt;Node20 -->
<g id="edge19_Node000007_Node000020" class="edge">
<title>Node7&#45;&gt;Node20</title>
<g id="a_edge19_Node000007_Node000020"><a xlink:title=" ">
<path fill="none" stroke="#63b8ff" d="M896.44,-54.84C923.32,-45.95 964.54,-32.32 994.1,-22.54"/>
<polygon fill="#63b8ff" stroke="#63b8ff" points="994.97,-25.94 1003.37,-19.47 992.78,-19.29 994.97,-25.94"/>
</a>
</g>
</g>
<!-- Node21 -->
<g id="Node000021" class="node">
<title>Node21</title>
<g id="a_Node000021"><a xlink:title=" ">
<polygon fill="#e0e0e0" stroke="#999999" points="1107.5,-19.25 1072.75,-19.25 1072.75,0 1107.5,0 1107.5,-19.25"/>
<text text-anchor="middle" x="1090.12" y="-5.75" font-family="Helvetica,sans-Serif" font-size="10.00">map</text>
</a>
</g>
</g>
<!-- Node7&#45;&gt;Node21 -->
<g id="edge20_Node000007_Node000021" class="edge">
<title>Node7&#45;&gt;Node21</title>
<g id="a_edge20_Node000007_Node000021"><a xlink:title=" ">
<path fill="none" stroke="#63b8ff" d="M897.8,-57.17C900.62,-56.52 903.43,-55.87 906.12,-55.25 972.88,-39.86 992.83,-38.69 1061.34,-19.84"/>
<polygon fill="#63b8ff" stroke="#63b8ff" points="1062.14,-23.25 1070.83,-17.2 1060.26,-16.51 1062.14,-23.25"/>
</a>
</g>
</g>
<!-- Node22 -->
<g id="Node000022" class="node">
<title>Node22</title>
<g id="a_Node000022"><a xlink:title=" ">
<polygon fill="#e0e0e0" stroke="#999999" points="1174.62,-19.25 1125.62,-19.25 1125.62,0 1174.62,0 1174.62,-19.25"/>
<text text-anchor="middle" x="1150.12" y="-5.75" font-family="Helvetica,sans-Serif" font-size="10.00">fstream</text>
</a>
</g>
</g>
<!-- Node7&#45;&gt;Node22 -->
<g id="edge21_Node000007_Node000022" class="edge">
<title>Node7&#45;&gt;Node22</title>
<g id="a_edge21_Node000007_Node000022"><a xlink:title=" ">
<path fill="none" stroke="#63b8ff" d="M897.77,-57.02C900.59,-56.4 903.41,-55.8 906.12,-55.25 995.5,-37.19 1021.58,-38.76 1114.27,-19.49"/>
<polygon fill="#63b8ff" stroke="#63b8ff" points="1114.75,-22.96 1123.81,-17.48 1113.31,-16.11 1114.75,-22.96"/>
</a>
</g>
</g>
<!-- Node23 -->
<g id="Node000023" class="node">
<title>Node23</title>
<g id="a_Node000023"><a xlink:title=" ">
<polygon fill="#e0e0e0" stroke="#999999" points="1248,-19.25 1192.25,-19.25 1192.25,0 1248,0 1248,-19.25"/>
<text text-anchor="middle" x="1220.12" y="-5.75" font-family="Helvetica,sans-Serif" font-size="10.00">algorithm</text>
</a>
</g>
</g>
<!-- Node7&#45;&gt;Node23 -->
<g id="edge22_Node000007_Node000023" class="edge">
<title>Node7&#45;&gt;Node23</title>
<g id="a_edge22_Node000007_Node000023"><a xlink:title=" ">
<path fill="none" stroke="#63b8ff" d="M897.75,-56.9C900.57,-56.31 903.4,-55.74 906.12,-55.25 1025.13,-33.73 1059.59,-41.31 1180.68,-19.73"/>
<polygon fill="#63b8ff" stroke="#63b8ff" points="1181.18,-23.19 1190.4,-17.96 1179.93,-16.3 1181.18,-23.19"/>
</a>
</g>
</g>
<!-- Node24 -->
<g id="Node000024" class="node">
<title>Node24</title>
<g id="a_Node000024"><a xlink:title=" ">
<polygon fill="#e0e0e0" stroke="#999999" points="1325.88,-19.25 1266.38,-19.25 1266.38,0 1325.88,0 1325.88,-19.25"/>
<text text-anchor="middle" x="1296.12" y="-5.75" font-family="Helvetica,sans-Serif" font-size="10.00">sys/wait.h</text>
</a>
</g>
</g>
<!-- Node7&#45;&gt;Node24 -->
<g id="edge23_Node000007_Node000024" class="edge">
<title>Node7&#45;&gt;Node24</title>
<g id="a_edge23_Node000007_Node000024"><a xlink:title=" ">
<path fill="none" stroke="#63b8ff" d="M897.74,-56.83C900.56,-56.25 903.39,-55.71 906.12,-55.25 1057.17,-30 1100.3,-43.55 1254.65,-19.46"/>
<polygon fill="#63b8ff" stroke="#63b8ff" points="1255.14,-22.92 1264.46,-17.9 1254.04,-16.01 1255.14,-22.92"/>
</a>
</g>
</g>
<!-- Node25 -->
<g id="Node000025" class="node">
<title>Node25</title>
<g id="a_Node000025"><a xlink:title=" ">
<polygon fill="#e0e0e0" stroke="#999999" points="1404.25,-19.25 1344,-19.25 1344,0 1404.25,0 1404.25,-19.25"/>
<text text-anchor="middle" x="1374.12" y="-5.75" font-family="Helvetica,sans-Serif" font-size="10.00">sys/prctl.h</text>
</a>
</g>
</g>
<!-- Node7&#45;&gt;Node25 -->
<g id="edge24_Node000007_Node000025" class="edge">
<title>Node7&#45;&gt;Node25</title>
<g id="a_edge24_Node000007_Node000025"><a xlink:title=" ">
<path fill="none" stroke="#63b8ff" d="M897.73,-56.77C900.55,-56.2 903.39,-55.68 906.12,-55.25 1091.53,-26.02 1143.97,-47.13 1332.41,-19.46"/>
<polygon fill="#63b8ff" stroke="#63b8ff" points="1332.67,-22.96 1342.04,-18.02 1331.64,-16.04 1332.67,-22.96"/>
</a>
</g>
</g>
<!-- Node26&#45;&gt;Node2 -->
<g id="edge31_Node000026_Node000002" class="edge">
<title>Node26&#45;&gt;Node2</title>
<g id="a_edge31_Node000026_Node000002"><a xlink:title=" ">
<path fill="none" stroke="#63b8ff" d="M233.07,-74.86C238.96,-81.81 245.69,-91.67 250.61,-100.33"/>
<polygon fill="#63b8ff" stroke="#63b8ff" points="247.35,-101.64 254.99,-108.98 253.59,-98.48 247.35,-101.64"/>
</a>
</g>
</g>
<!-- Node26&#45;&gt;Node3 -->
<g id="edge27_Node000026_Node000003" class="edge">
<title>Node26&#45;&gt;Node3</title>
<g id="a_edge27_Node000026_Node000003"><a xlink:title=" ">
<path fill="none" stroke="#63b8ff" d="M188.54,-54.84C152.7,-45.2 96.15,-30 59.6,-20.17"/>
<polygon fill="#63b8ff" stroke="#63b8ff" points="60.52,-16.79 49.95,-17.57 58.7,-23.55 60.52,-16.79"/>
</a>
</g>
</g>
<!-- Node26&#45;&gt;Node4 -->
<g id="edge29_Node000026_Node000004" class="edge">
<title>Node26&#45;&gt;Node4</title>
<g id="a_edge29_Node000026_Node000004"><a xlink:title=" ">
<path fill="none" stroke="#63b8ff" d="M199.22,-54.84C177.04,-46.09 143.23,-32.76 118.55,-23.02"/>
<polygon fill="#63b8ff" stroke="#63b8ff" points="119.91,-19.8 109.33,-19.38 117.34,-26.31 119.91,-19.8"/>
</a>
</g>
</g>
<!-- Node26&#45;&gt;Node6 -->
<g id="edge30_Node000026_Node000006" class="edge">
<title>Node26&#45;&gt;Node6</title>
<g id="a_edge30_Node000026_Node000006"><a xlink:title=" ">
<path fill="none" stroke="#63b8ff" d="M233.66,-54.84C243.59,-47.07 258.14,-35.67 269.98,-26.4"/>
<polygon fill="#63b8ff" stroke="#63b8ff" points="271.85,-29.38 277.57,-20.46 267.54,-23.87 271.85,-29.38"/>
</a>
</g>
</g>
<!-- Node27 -->
<g id="Node000027" class="node">
<title>Node27</title>
<g id="a_Node000027"><a xlink:title=" ">
<polygon fill="#e0e0e0" stroke="#999999" points="244.62,-19.25 201.62,-19.25 201.62,0 244.62,0 244.62,-19.25"/>
<text text-anchor="middle" x="223.12" y="-5.75" font-family="Helvetica,sans-Serif" font-size="10.00">vector</text>
</a>
</g>
</g>
<!-- Node26&#45;&gt;Node27 -->
<g id="edge26_Node000026_Node000027" class="edge">
<title>Node26&#45;&gt;Node27</title>
<g id="a_edge26_Node000026_Node000027"><a xlink:title=" ">
<path fill="none" stroke="#63b8ff" d="M222.29,-55.08C222.41,-48.57 222.58,-39.42 222.74,-31.12"/>
<polygon fill="#63b8ff" stroke="#63b8ff" points="226.24,-31.19 222.93,-21.12 219.24,-31.05 226.24,-31.19"/>
</a>
</g>
</g>
<!-- Node28 -->
<g id="Node000028" class="node">
<title>Node28</title>
<g id="a_Node000028"><a xlink:title=" ">
<polygon fill="#e0e0e0" stroke="#999999" points="183.12,-19.25 125.12,-19.25 125.12,0 183.12,0 183.12,-19.25"/>
<text text-anchor="middle" x="154.12" y="-5.75" font-family="Helvetica,sans-Serif" font-size="10.00">TObject.h</text>
</a>
</g>
</g>
<!-- Node26&#45;&gt;Node28 -->
<g id="edge28_Node000026_Node000028" class="edge">
<title>Node26&#45;&gt;Node28</title>
<g id="a_edge28_Node000026_Node000028"><a xlink:title=" ">
<path fill="none" stroke="#63b8ff" d="M210.59,-54.84C200.66,-47.07 186.11,-35.67 174.27,-26.4"/>
<polygon fill="#63b8ff" stroke="#63b8ff" points="176.71,-23.87 166.68,-20.46 172.4,-29.38 176.71,-23.87"/>
</a>
</g>
</g>
<!-- Node34&#45;&gt;Node5 -->
<g id="edge41_Node000034_Node000005" class="edge">
<title>Node34&#45;&gt;Node5</title>
<g id="a_edge41_Node000034_Node000005"><a xlink:title=" ">
<path fill="none" stroke="#63b8ff" d="M956.12,-110.33C956.12,-103.82 956.12,-94.67 956.12,-86.37"/>
<polygon fill="#63b8ff" stroke="#63b8ff" points="959.63,-86.37 956.13,-76.37 952.63,-86.37 959.63,-86.37"/>
</a>
</g>
</g>
<!-- Node34&#45;&gt;Node11 -->
<g id="edge39_Node000034_Node000011" class="edge">
<title>Node34&#45;&gt;Node11</title>
<g id="a_edge39_Node000034_Node000011"><a xlink:title=" ">
<path fill="none" stroke="#63b8ff" d="M965,-110.15C979.98,-95.64 1011.92,-67.45 1045.12,-55.25 1225.88,11.16 1289.9,-52.94 1482.59,-19.3"/>
<polygon fill="#63b8ff" stroke="#63b8ff" points="1482.96,-22.79 1492.17,-17.56 1481.7,-15.9 1482.96,-22.79"/>
</a>
</g>
</g>
<!-- Node35 -->
<g id="Node000035" class="node">
<title>Node35</title>
<g id="a_Node000035"><a xlink:title=" ">
<polygon fill="#e0e0e0" stroke="#999999" points="1096.62,-74.5 1053.62,-74.5 1053.62,-55.25 1096.62,-55.25 1096.62,-74.5"/>
<text text-anchor="middle" x="1075.12" y="-61" font-family="Helvetica,sans-Serif" font-size="10.00">cmath</text>
</a>
</g>
</g>
<!-- Node34&#45;&gt;Node35 -->
<g id="edge40_Node000034_Node000035" class="edge">
<title>Node34&#45;&gt;Node35</title>
<g id="a_edge40_Node000034_Node000035"><a xlink:title=" ">
<path fill="none" stroke="#63b8ff" d="M976.31,-110.09C995.03,-101.72 1023.15,-89.13 1044.61,-79.53"/>
<polygon fill="#63b8ff" stroke="#63b8ff" points="1045.76,-82.85 1053.46,-75.57 1042.9,-76.46 1045.76,-82.85"/>
</a>
</g>
</g>
</g>
</svg>
