<?xml version="1.0" encoding="UTF-8" standalone="no"?>
<!DOCTYPE svg PUBLIC "-//W3C//DTD SVG 1.1//EN"
 "http://www.w3.org/Graphics/SVG/1.1/DTD/svg11.dtd">
<!-- Generated by graphviz version 12.2.0 (20241103.1931)
 -->
<!-- Title: TPacesHit.h Pages: 1 -->
<svg width="413pt" height="138pt"
 viewBox="0.00 0.00 413.38 137.75" xmlns="http://www.w3.org/2000/svg" xmlns:xlink="http://www.w3.org/1999/xlink">
<g id="graph0" class="graph" transform="scale(1 1) rotate(0) translate(4 133.75)">
<title>TPacesHit.h</title>
<!-- Node1 -->
<g id="Node000001" class="node">
<title>Node1</title>
<g id="a_Node000001"><a xlink:title=" ">
<polygon fill="#999999" stroke="#666666" points="337.88,-129.75 267.88,-129.75 267.88,-110.5 337.88,-110.5 337.88,-129.75"/>
<text text-anchor="middle" x="302.88" y="-116.25" font-family="Helvetica,sans-Serif" font-size="10.00">TPacesHit.h</text>
</a>
</g>
</g>
<!-- Node2 -->
<g id="Node000002" class="node">
<title>Node2</title>
<g id="a_Node000002"><a xlink:href="_t_paces_8h.html" target="_top" xlink:title=" ">
<polygon fill="white" stroke="#666666" points="303.5,-74.5 246.25,-74.5 246.25,-55.25 303.5,-55.25 303.5,-74.5"/>
<text text-anchor="middle" x="274.88" y="-61" font-family="Helvetica,sans-Serif" font-size="10.00">TPaces.h</text>
</a>
</g>
</g>
<!-- Node1&#45;&gt;Node2 -->
<g id="edge1_Node000001_Node000002" class="edge">
<title>Node1&#45;&gt;Node2</title>
<g id="a_edge1_Node000001_Node000002"><a xlink:title=" ">
<path fill="none" stroke="#63b8ff" d="M292.99,-100.33C288.44,-91.67 283.25,-81.81 279.6,-74.86"/>
<polygon fill="#63b8ff" stroke="#63b8ff" points="289.8,-101.77 297.55,-108.99 295.99,-98.51 289.8,-101.77"/>
</a>
</g>
</g>
<!-- Node6 -->
<g id="Node000006" class="node">
<title>Node6</title>
<g id="a_Node000006"><a xlink:href="_t_paces_hit_8cxx.html" target="_top" xlink:title=" ">
<polygon fill="white" stroke="#666666" points="405.38,-19.25 326.38,-19.25 326.38,0 405.38,0 405.38,-19.25"/>
<text text-anchor="middle" x="365.88" y="-5.75" font-family="Helvetica,sans-Serif" font-size="10.00">TPacesHit.cxx</text>
</a>
</g>
</g>
<!-- Node1&#45;&gt;Node6 -->
<g id="edge6_Node000001_Node000006" class="edge">
<title>Node1&#45;&gt;Node6</title>
<g id="a_edge6_Node000001_Node000006"><a xlink:title=" ">
<path fill="none" stroke="#63b8ff" d="M313.75,-100.4C327.43,-76.83 350.39,-37.29 360.65,-19.63"/>
<polygon fill="#63b8ff" stroke="#63b8ff" points="310.79,-98.53 308.79,-108.94 316.84,-102.05 310.79,-98.53"/>
</a>
</g>
</g>
<!-- Node3 -->
<g id="Node000003" class="node">
<title>Node3</title>
<g id="a_Node000003"><a xlink:href="_get_tree_entries_8cxx.html" target="_top" xlink:title=" ">
<polygon fill="white" stroke="#666666" points="97.75,-19.25 0,-19.25 0,0 97.75,0 97.75,-19.25"/>
<text text-anchor="middle" x="48.88" y="-5.75" font-family="Helvetica,sans-Serif" font-size="10.00">GetTreeEntries.cxx</text>
</a>
</g>
</g>
<!-- Node2&#45;&gt;Node3 -->
<g id="edge2_Node000002_Node000003" class="edge">
<title>Node2&#45;&gt;Node3</title>
<g id="a_edge2_Node000002_Node000003"><a xlink:title=" ">
<path fill="none" stroke="#63b8ff" d="M234.68,-54.41C193,-44.58 128.3,-29.34 87.29,-19.68"/>
<polygon fill="#63b8ff" stroke="#63b8ff" points="233.78,-57.79 244.32,-56.68 235.39,-50.98 233.78,-57.79"/>
</a>
</g>
</g>
<!-- Node4 -->
<g id="Node000004" class="node">
<title>Node4</title>
<g id="a_Node000004"><a xlink:href="_t_g_r_s_i_mnemonic_8cxx.html" target="_top" xlink:title=" ">
<polygon fill="white" stroke="#666666" points="223.62,-19.25 116.12,-19.25 116.12,0 223.62,0 223.62,-19.25"/>
<text text-anchor="middle" x="169.88" y="-5.75" font-family="Helvetica,sans-Serif" font-size="10.00">TGRSIMnemonic.cxx</text>
</a>
</g>
</g>
<!-- Node2&#45;&gt;Node4 -->
<g id="edge3_Node000002_Node000004" class="edge">
<title>Node2&#45;&gt;Node4</title>
<g id="a_edge3_Node000002_Node000004"><a xlink:title=" ">
<path fill="none" stroke="#63b8ff" d="M247.01,-49.74C228.23,-40.22 204.02,-27.94 187.77,-19.7"/>
<polygon fill="#63b8ff" stroke="#63b8ff" points="245.21,-52.76 255.71,-54.16 248.38,-46.51 245.21,-52.76"/>
</a>
</g>
</g>
<!-- Node5 -->
<g id="Node000005" class="node">
<title>Node5</title>
<g id="a_Node000005"><a xlink:href="_t_paces_8cxx.html" target="_top" xlink:title=" ">
<polygon fill="white" stroke="#666666" points="308,-19.25 241.75,-19.25 241.75,0 308,0 308,-19.25"/>
<text text-anchor="middle" x="274.88" y="-5.75" font-family="Helvetica,sans-Serif" font-size="10.00">TPaces.cxx</text>
</a>
</g>
</g>
<!-- Node2&#45;&gt;Node5 -->
<g id="edge4_Node000002_Node000005" class="edge">
<title>Node2&#45;&gt;Node5</title>
<g id="a_edge4_Node000002_Node000005"><a xlink:title=" ">
<path fill="none" stroke="#63b8ff" d="M274.88,-43.63C274.88,-35.34 274.88,-26.17 274.88,-19.61"/>
<polygon fill="#63b8ff" stroke="#63b8ff" points="271.38,-43.57 274.88,-53.57 278.38,-43.57 271.38,-43.57"/>
</a>
</g>
</g>
<!-- Node2&#45;&gt;Node6 -->
<g id="edge5_Node000002_Node000006" class="edge">
<title>Node2&#45;&gt;Node6</title>
<g id="a_edge5_Node000002_Node000006"><a xlink:title=" ">
<path fill="none" stroke="#63b8ff" d="M300.17,-49.07C316.27,-39.65 336.61,-27.75 350.36,-19.7"/>
<polygon fill="#63b8ff" stroke="#63b8ff" points="298.48,-46.01 291.62,-54.08 302.02,-52.05 298.48,-46.01"/>
</a>
</g>
</g>
</g>
</svg>
