<?xml version="1.0" encoding="UTF-8" standalone="no"?>
<!DOCTYPE svg PUBLIC "-//W3C//DTD SVG 1.1//EN"
 "http://www.w3.org/Graphics/SVG/1.1/DTD/svg11.dtd">
<!-- Generated by graphviz version 12.2.0 (20241103.1931)
 -->
<!-- Title: TPeakFitter.h Pages: 1 -->
<svg width="828pt" height="248pt"
 viewBox="0.00 0.00 828.38 248.25" xmlns="http://www.w3.org/2000/svg" xmlns:xlink="http://www.w3.org/1999/xlink">
<g id="graph0" class="graph" transform="scale(1 1) rotate(0) translate(4 244.25)">
<title>TPeakFitter.h</title>
<!-- Node1 -->
<g id="Node000001" class="node">
<title>Node1</title>
<g id="a_Node000001"><a xlink:title=" ">
<polygon fill="#999999" stroke="#666666" points="464.88,-240.25 390.38,-240.25 390.38,-221 464.88,-221 464.88,-240.25"/>
<text text-anchor="middle" x="427.62" y="-226.75" font-family="Helvetica,sans-Serif" font-size="10.00">TPeakFitter.h</text>
</a>
</g>
</g>
<!-- Node2 -->
<g id="Node000002" class="node">
<title>Node2</title>
<g id="a_Node000002"><a xlink:href="_angular_correlations_8cxx.html" target="_top" xlink:title=" ">
<polygon fill="white" stroke="#666666" points="117.25,-74.5 0,-74.5 0,-55.25 117.25,-55.25 117.25,-74.5"/>
<text text-anchor="middle" x="58.62" y="-61" font-family="Helvetica,sans-Serif" font-size="10.00">AngularCorrelations.cxx</text>
</a>
</g>
</g>
<!-- Node1&#45;&gt;Node2 -->
<g id="edge1_Node000001_Node000002" class="edge">
<title>Node1&#45;&gt;Node2</title>
<g id="a_edge1_Node000001_Node000002"><a xlink:title=" ">
<path fill="none" stroke="#63b8ff" d="M378.58,-225.29C309.95,-217.05 184.2,-193.76 99.62,-129.75 80.29,-115.12 67.57,-88.52 61.94,-74.72"/>
<polygon fill="#63b8ff" stroke="#63b8ff" points="378.07,-228.76 388.4,-226.41 378.86,-221.8 378.07,-228.76"/>
</a>
</g>
</g>
<!-- Node3 -->
<g id="Node000003" class="node">
<title>Node3</title>
<g id="a_Node000003"><a xlink:href="_t_b_g_subtraction_8h.html" target="_top" xlink:title=" ">
<polygon fill="white" stroke="#666666" points="288.25,-129.75 195,-129.75 195,-110.5 288.25,-110.5 288.25,-129.75"/>
<text text-anchor="middle" x="241.62" y="-116.25" font-family="Helvetica,sans-Serif" font-size="10.00">TBGSubtraction.h</text>
</a>
</g>
</g>
<!-- Node1&#45;&gt;Node3 -->
<g id="edge2_Node000001_Node000003" class="edge">
<title>Node1&#45;&gt;Node3</title>
<g id="a_edge2_Node000001_Node000003"><a xlink:title=" ">
<path fill="none" stroke="#63b8ff" d="M402.52,-214.98C363.51,-192.22 289.46,-149.03 257.25,-130.24"/>
<polygon fill="#63b8ff" stroke="#63b8ff" points="400.38,-217.78 410.78,-219.8 403.91,-211.74 400.38,-217.78"/>
</a>
</g>
</g>
<!-- Node5 -->
<g id="Node000005" class="node">
<title>Node5</title>
<g id="a_Node000005"><a xlink:href="_t_peak_fitter_8cxx.html" target="_top" xlink:title=" ">
<polygon fill="white" stroke="#666666" points="820.38,-185 736.88,-185 736.88,-165.75 820.38,-165.75 820.38,-185"/>
<text text-anchor="middle" x="778.62" y="-171.5" font-family="Helvetica,sans-Serif" font-size="10.00">TPeakFitter.cxx</text>
</a>
</g>
</g>
<!-- Node1&#45;&gt;Node5 -->
<g id="edge4_Node000001_Node000005" class="edge">
<title>Node1&#45;&gt;Node5</title>
<g id="a_edge4_Node000001_Node000005"><a xlink:title=" ">
<path fill="none" stroke="#63b8ff" d="M476.47,-222.28C534.98,-213.47 635.98,-198.23 722.62,-185 727.1,-184.32 731.77,-183.6 736.43,-182.89"/>
<polygon fill="#63b8ff" stroke="#63b8ff" points="476.21,-218.78 466.85,-223.73 477.26,-225.7 476.21,-218.78"/>
</a>
</g>
</g>
<!-- Node6 -->
<g id="Node000006" class="node">
<title>Node6</title>
<g id="a_Node000006"><a xlink:href="_t_single_peak_8h.html" target="_top" xlink:title=" ">
<polygon fill="white" stroke="#666666" points="467.12,-185 388.12,-185 388.12,-165.75 467.12,-165.75 467.12,-185"/>
<text text-anchor="middle" x="427.62" y="-171.5" font-family="Helvetica,sans-Serif" font-size="10.00">TSinglePeak.h</text>
</a>
</g>
</g>
<!-- Node1&#45;&gt;Node6 -->
<g id="edge5_Node000001_Node000006" class="edge">
<title>Node1&#45;&gt;Node6</title>
<g id="a_edge5_Node000001_Node000006"><a xlink:title=" ">
<path fill="none" stroke="#63b8ff" d="M421.07,-209.67C420.58,-201.3 421.03,-192 422.42,-185.36"/>
<polygon fill="#63b8ff" stroke="#63b8ff" points="417.56,-209.84 422.27,-219.33 424.51,-208.97 417.56,-209.84"/>
</a>
</g>
</g>
<!-- Node13 -->
<g id="Node000013" class="node">
<title>Node13</title>
<g id="a_Node000013"><a xlink:href="_t_source_calibration_8h.html" target="_top" xlink:title=" ">
<polygon fill="white" stroke="#666666" points="746.62,-74.5 640.62,-74.5 640.62,-55.25 746.62,-55.25 746.62,-74.5"/>
<text text-anchor="middle" x="693.62" y="-61" font-family="Helvetica,sans-Serif" font-size="10.00">TSourceCalibration.h</text>
</a>
</g>
</g>
<!-- Node1&#45;&gt;Node13 -->
<g id="edge25_Node000001_Node000013" class="edge">
<title>Node1&#45;&gt;Node13</title>
<g id="a_edge25_Node000001_Node000013"><a xlink:title=" ">
<path fill="none" stroke="#63b8ff" d="M476.07,-223.07C532.08,-212.92 623.28,-188.09 675.62,-129.75 689.63,-114.14 692.82,-88.44 693.49,-74.89"/>
<polygon fill="#63b8ff" stroke="#63b8ff" points="475.77,-219.57 466.51,-224.7 476.95,-226.46 475.77,-219.57"/>
</a>
</g>
</g>
<!-- Node4 -->
<g id="Node000004" class="node">
<title>Node4</title>
<g id="a_Node000004"><a xlink:href="_t_b_g_subtraction_8cxx.html" target="_top" xlink:title=" ">
<polygon fill="white" stroke="#666666" points="429.75,-74.5 327.5,-74.5 327.5,-55.25 429.75,-55.25 429.75,-74.5"/>
<text text-anchor="middle" x="378.62" y="-61" font-family="Helvetica,sans-Serif" font-size="10.00">TBGSubtraction.cxx</text>
</a>
</g>
</g>
<!-- Node3&#45;&gt;Node4 -->
<g id="edge3_Node000003_Node000004" class="edge">
<title>Node3&#45;&gt;Node4</title>
<g id="a_edge3_Node000003_Node000004"><a xlink:title=" ">
<path fill="none" stroke="#63b8ff" d="M275.28,-106.04C300.12,-96.39 333.29,-83.5 355.27,-74.95"/>
<polygon fill="#63b8ff" stroke="#63b8ff" points="274.33,-102.66 266.28,-109.54 276.86,-109.18 274.33,-102.66"/>
</a>
</g>
</g>
<!-- Node6&#45;&gt;Node1 -->
<g id="edge18_Node000006_Node000001" class="edge">
<title>Node6&#45;&gt;Node1</title>
<g id="a_edge18_Node000006_Node000001"><a xlink:title=" ">
<path fill="none" stroke="#63b8ff" d="M434.2,-196.57C434.67,-204.96 434.2,-214.24 432.79,-220.83"/>
<polygon fill="#63b8ff" stroke="#63b8ff" points="437.7,-196.37 433.01,-186.86 430.75,-197.21 437.7,-196.37"/>
</a>
</g>
</g>
<!-- Node6&#45;&gt;Node3 -->
<g id="edge12_Node000006_Node000003" class="edge">
<title>Node6&#45;&gt;Node3</title>
<g id="a_edge12_Node000006_Node000003"><a xlink:title=" ">
<path fill="none" stroke="#63b8ff" d="M385.07,-162.19C351.05,-152.45 304.12,-139.02 273.33,-130.2"/>
<polygon fill="#63b8ff" stroke="#63b8ff" points="384.04,-165.54 394.62,-164.93 385.97,-158.81 384.04,-165.54"/>
</a>
</g>
</g>
<!-- Node7 -->
<g id="Node000007" class="node">
<title>Node7</title>
<g id="a_Node000007"><a xlink:href="_t_a_b3_peak_8h.html" target="_top" xlink:title=" ">
<polygon fill="white" stroke="#666666" points="377,-129.75 306.25,-129.75 306.25,-110.5 377,-110.5 377,-129.75"/>
<text text-anchor="middle" x="341.62" y="-116.25" font-family="Helvetica,sans-Serif" font-size="10.00">TAB3Peak.h</text>
</a>
</g>
</g>
<!-- Node6&#45;&gt;Node7 -->
<g id="edge6_Node000006_Node000007" class="edge">
<title>Node6&#45;&gt;Node7</title>
<g id="a_edge6_Node000006_Node000007"><a xlink:title=" ">
<path fill="none" stroke="#63b8ff" d="M403.28,-159.3C388.14,-149.92 369.16,-138.17 356.29,-130.2"/>
<polygon fill="#63b8ff" stroke="#63b8ff" points="401.4,-162.26 411.75,-164.55 405.09,-156.3 401.4,-162.26"/>
</a>
</g>
</g>
<!-- Node9 -->
<g id="Node000009" class="node">
<title>Node9</title>
<g id="a_Node000009"><a xlink:href="_t_a_b_peak_8h.html" target="_top" xlink:title=" ">
<polygon fill="white" stroke="#666666" points="460.38,-129.75 394.88,-129.75 394.88,-110.5 460.38,-110.5 460.38,-129.75"/>
<text text-anchor="middle" x="427.62" y="-116.25" font-family="Helvetica,sans-Serif" font-size="10.00">TABPeak.h</text>
</a>
</g>
</g>
<!-- Node6&#45;&gt;Node9 -->
<g id="edge9_Node000006_Node000009" class="edge">
<title>Node6&#45;&gt;Node9</title>
<g id="a_edge9_Node000006_Node000009"><a xlink:title=" ">
<path fill="none" stroke="#63b8ff" d="M427.62,-154.13C427.62,-145.84 427.62,-136.67 427.62,-130.11"/>
<polygon fill="#63b8ff" stroke="#63b8ff" points="424.13,-154.07 427.63,-164.07 431.13,-154.07 424.13,-154.07"/>
</a>
</g>
</g>
<!-- Node11 -->
<g id="Node000011" class="node">
<title>Node11</title>
<g id="a_Node000011"><a xlink:href="_t_gauss_8h.html" target="_top" xlink:title=" ">
<polygon fill="white" stroke="#666666" points="642.62,-129.75 584.62,-129.75 584.62,-110.5 642.62,-110.5 642.62,-129.75"/>
<text text-anchor="middle" x="613.62" y="-116.25" font-family="Helvetica,sans-Serif" font-size="10.00">TGauss.h</text>
</a>
</g>
</g>
<!-- Node6&#45;&gt;Node11 -->
<g id="edge13_Node000006_Node000011" class="edge">
<title>Node6&#45;&gt;Node11</title>
<g id="a_edge13_Node000006_Node000011"><a xlink:title=" ">
<path fill="none" stroke="#63b8ff" d="M470,-162.24C504.95,-152.24 553.63,-138.3 584.37,-129.5"/>
<polygon fill="#63b8ff" stroke="#63b8ff" points="469.28,-158.81 460.63,-164.93 471.21,-165.54 469.28,-158.81"/>
</a>
</g>
</g>
<!-- Node6&#45;&gt;Node13 -->
<g id="edge24_Node000006_Node000013" class="edge">
<title>Node6&#45;&gt;Node13</title>
<g id="a_edge24_Node000006_Node000013"><a xlink:title=" ">
<path fill="none" stroke="#63b8ff" d="M478.64,-168.83C535.75,-161.83 623.94,-148.41 651.62,-129.75 671.88,-116.1 684.71,-89.08 690.33,-74.95"/>
<polygon fill="#63b8ff" stroke="#63b8ff" points="478.32,-165.34 468.81,-170 479.15,-172.29 478.32,-165.34"/>
</a>
</g>
</g>
<!-- Node15 -->
<g id="Node000015" class="node">
<title>Node15</title>
<g id="a_Node000015"><a xlink:href="_t_r_w_peak_8h.html" target="_top" xlink:title=" ">
<polygon fill="white" stroke="#666666" points="176.5,-129.75 108.75,-129.75 108.75,-110.5 176.5,-110.5 176.5,-129.75"/>
<text text-anchor="middle" x="142.62" y="-116.25" font-family="Helvetica,sans-Serif" font-size="10.00">TRWPeak.h</text>
</a>
</g>
</g>
<!-- Node6&#45;&gt;Node15 -->
<g id="edge19_Node000006_Node000015" class="edge">
<title>Node6&#45;&gt;Node15</title>
<g id="a_edge19_Node000006_Node000015"><a xlink:title=" ">
<path fill="none" stroke="#63b8ff" d="M376.52,-165.19C327.51,-156.33 251.46,-142.42 185.62,-129.75 182.78,-129.2 179.84,-128.63 176.88,-128.05"/>
<polygon fill="#63b8ff" stroke="#63b8ff" points="375.81,-168.62 386.27,-166.95 377.06,-161.73 375.81,-168.62"/>
</a>
</g>
</g>
<!-- Node17 -->
<g id="Node000017" class="node">
<title>Node17</title>
<g id="a_Node000017"><a xlink:href="_t_single_peak_8cxx.html" target="_top" xlink:title=" ">
<polygon fill="white" stroke="#666666" points="566.62,-129.75 478.62,-129.75 478.62,-110.5 566.62,-110.5 566.62,-129.75"/>
<text text-anchor="middle" x="522.62" y="-116.25" font-family="Helvetica,sans-Serif" font-size="10.00">TSinglePeak.cxx</text>
</a>
</g>
</g>
<!-- Node6&#45;&gt;Node17 -->
<g id="edge23_Node000006_Node000017" class="edge">
<title>Node6&#45;&gt;Node17</title>
<g id="a_edge23_Node000006_Node000017"><a xlink:title=" ">
<path fill="none" stroke="#63b8ff" d="M453.55,-159.84C470.44,-150.38 491.94,-138.33 506.43,-130.2"/>
<polygon fill="#63b8ff" stroke="#63b8ff" points="452.07,-156.66 445.06,-164.6 455.5,-162.77 452.07,-156.66"/>
</a>
</g>
</g>
<!-- Node7&#45;&gt;Node4 -->
<g id="edge8_Node000007_Node000004" class="edge">
<title>Node7&#45;&gt;Node4</title>
<g id="a_edge8_Node000007_Node000004"><a xlink:title=" ">
<path fill="none" stroke="#63b8ff" d="M354.29,-100.9C360.39,-92.11 367.45,-81.96 372.38,-74.86"/>
<polygon fill="#63b8ff" stroke="#63b8ff" points="351.43,-98.88 348.6,-109.09 357.18,-102.87 351.43,-98.88"/>
</a>
</g>
</g>
<!-- Node8 -->
<g id="Node000008" class="node">
<title>Node8</title>
<g id="a_Node000008"><a xlink:href="_t_a_b3_peak_8cxx.html" target="_top" xlink:title=" ">
<polygon fill="white" stroke="#666666" points="309.5,-74.5 229.75,-74.5 229.75,-55.25 309.5,-55.25 309.5,-74.5"/>
<text text-anchor="middle" x="269.62" y="-61" font-family="Helvetica,sans-Serif" font-size="10.00">TAB3Peak.cxx</text>
</a>
</g>
</g>
<!-- Node7&#45;&gt;Node8 -->
<g id="edge7_Node000007_Node000008" class="edge">
<title>Node7&#45;&gt;Node8</title>
<g id="a_edge7_Node000007_Node000008"><a xlink:title=" ">
<path fill="none" stroke="#63b8ff" d="M320.45,-103.47C307.81,-94.12 292.22,-82.58 281.66,-74.77"/>
<polygon fill="#63b8ff" stroke="#63b8ff" points="318.07,-106.06 328.19,-109.19 322.24,-100.43 318.07,-106.06"/>
</a>
</g>
</g>
<!-- Node9&#45;&gt;Node4 -->
<g id="edge11_Node000009_Node000004" class="edge">
<title>Node9&#45;&gt;Node4</title>
<g id="a_edge11_Node000009_Node000004"><a xlink:title=" ">
<path fill="none" stroke="#63b8ff" d="M411.91,-102.04C403.59,-93 393.71,-82.27 386.89,-74.86"/>
<polygon fill="#63b8ff" stroke="#63b8ff" points="409.16,-104.23 418.51,-109.22 414.31,-99.49 409.16,-104.23"/>
</a>
</g>
</g>
<!-- Node10 -->
<g id="Node000010" class="node">
<title>Node10</title>
<g id="a_Node000010"><a xlink:href="_t_a_b_peak_8cxx.html" target="_top" xlink:title=" ">
<polygon fill="white" stroke="#666666" points="521.88,-74.5 447.38,-74.5 447.38,-55.25 521.88,-55.25 521.88,-74.5"/>
<text text-anchor="middle" x="484.62" y="-61" font-family="Helvetica,sans-Serif" font-size="10.00">TABPeak.cxx</text>
</a>
</g>
</g>
<!-- Node9&#45;&gt;Node10 -->
<g id="edge10_Node000009_Node000010" class="edge">
<title>Node9&#45;&gt;Node10</title>
<g id="a_edge10_Node000009_Node000010"><a xlink:title=" ">
<path fill="none" stroke="#63b8ff" d="M445.57,-102.36C455.36,-93.22 467.07,-82.28 475.1,-74.77"/>
<polygon fill="#63b8ff" stroke="#63b8ff" points="443.32,-99.67 438.4,-109.06 448.1,-104.79 443.32,-99.67"/>
</a>
</g>
</g>
<!-- Node11&#45;&gt;Node4 -->
<g id="edge14_Node000011_Node000004" class="edge">
<title>Node11&#45;&gt;Node4</title>
<g id="a_edge14_Node000011_Node000004"><a xlink:title=" ">
<path fill="none" stroke="#63b8ff" d="M573.11,-109.93C513.96,-96.52 456.09,-83.41 418.62,-74.93"/>
<polygon fill="#63b8ff" stroke="#63b8ff" points="572.16,-113.3 582.69,-112.1 573.71,-106.48 572.16,-113.3"/>
</a>
</g>
</g>
<!-- Node12 -->
<g id="Node000012" class="node">
<title>Node12</title>
<g id="a_Node000012"><a xlink:href="_t_gauss_8cxx.html" target="_top" xlink:title=" ">
<polygon fill="white" stroke="#666666" points="622.12,-74.5 555.12,-74.5 555.12,-55.25 622.12,-55.25 622.12,-74.5"/>
<text text-anchor="middle" x="588.62" y="-61" font-family="Helvetica,sans-Serif" font-size="10.00">TGauss.cxx</text>
</a>
</g>
</g>
<!-- Node11&#45;&gt;Node12 -->
<g id="edge15_Node000011_Node000012" class="edge">
<title>Node11&#45;&gt;Node12</title>
<g id="a_edge15_Node000011_Node000012"><a xlink:title=" ">
<path fill="none" stroke="#63b8ff" d="M604.66,-100.04C600.63,-91.46 596.07,-81.73 592.84,-74.86"/>
<polygon fill="#63b8ff" stroke="#63b8ff" points="601.44,-101.4 608.85,-108.96 607.77,-98.42 601.44,-101.4"/>
</a>
</g>
</g>
<!-- Node11&#45;&gt;Node13 -->
<g id="edge16_Node000011_Node000013" class="edge">
<title>Node11&#45;&gt;Node13</title>
<g id="a_edge16_Node000011_Node000013"><a xlink:title=" ">
<path fill="none" stroke="#63b8ff" d="M636.68,-103.78C650.7,-94.45 668.13,-82.85 679.99,-74.95"/>
<polygon fill="#63b8ff" stroke="#63b8ff" points="634.84,-100.8 628.46,-109.25 638.72,-106.63 634.84,-100.8"/>
</a>
</g>
</g>
<!-- Node14 -->
<g id="Node000014" class="node">
<title>Node14</title>
<g id="a_Node000014"><a xlink:href="_t_source_calibration_8cxx.html" target="_top" xlink:title=" ">
<polygon fill="white" stroke="#666666" points="751.12,-19.25 636.12,-19.25 636.12,0 751.12,0 751.12,-19.25"/>
<text text-anchor="middle" x="693.62" y="-5.75" font-family="Helvetica,sans-Serif" font-size="10.00">TSourceCalibration.cxx</text>
</a>
</g>
</g>
<!-- Node13&#45;&gt;Node14 -->
<g id="edge17_Node000013_Node000014" class="edge">
<title>Node13&#45;&gt;Node14</title>
<g id="a_edge17_Node000013_Node000014"><a xlink:title=" ">
<path fill="none" stroke="#63b8ff" d="M693.62,-43.63C693.62,-35.34 693.62,-26.17 693.62,-19.61"/>
<polygon fill="#63b8ff" stroke="#63b8ff" points="690.13,-43.57 693.63,-53.57 697.13,-43.57 690.13,-43.57"/>
</a>
</g>
</g>
<!-- Node15&#45;&gt;Node2 -->
<g id="edge20_Node000015_Node000002" class="edge">
<title>Node15&#45;&gt;Node2</title>
<g id="a_edge20_Node000015_Node000002"><a xlink:title=" ">
<path fill="none" stroke="#63b8ff" d="M118.85,-104.05C104.06,-94.67 85.52,-82.92 72.94,-74.95"/>
<polygon fill="#63b8ff" stroke="#63b8ff" points="116.78,-106.88 127.1,-109.28 120.53,-100.97 116.78,-106.88"/>
</a>
</g>
</g>
<!-- Node15&#45;&gt;Node4 -->
<g id="edge21_Node000015_Node000004" class="edge">
<title>Node15&#45;&gt;Node4</title>
<g id="a_edge21_Node000015_Node000004"><a xlink:title=" ">
<path fill="none" stroke="#63b8ff" d="M188.06,-108.87C231.58,-99.05 296.62,-84.38 338.33,-74.97"/>
<polygon fill="#63b8ff" stroke="#63b8ff" points="187.4,-105.43 178.42,-111.05 188.94,-112.26 187.4,-105.43"/>
</a>
</g>
</g>
<!-- Node16 -->
<g id="Node000016" class="node">
<title>Node16</title>
<g id="a_Node000016"><a xlink:href="_t_r_w_peak_8cxx.html" target="_top" xlink:title=" ">
<polygon fill="white" stroke="#666666" points="212,-74.5 135.25,-74.5 135.25,-55.25 212,-55.25 212,-74.5"/>
<text text-anchor="middle" x="173.62" y="-61" font-family="Helvetica,sans-Serif" font-size="10.00">TRWPeak.cxx</text>
</a>
</g>
</g>
<!-- Node15&#45;&gt;Node16 -->
<g id="edge22_Node000015_Node000016" class="edge">
<title>Node15&#45;&gt;Node16</title>
<g id="a_edge22_Node000015_Node000016"><a xlink:title=" ">
<path fill="none" stroke="#63b8ff" d="M153.4,-100.62C158.48,-91.89 164.3,-81.89 168.39,-74.86"/>
<polygon fill="#63b8ff" stroke="#63b8ff" points="150.51,-98.62 148.51,-109.02 156.56,-102.14 150.51,-98.62"/>
</a>
</g>
</g>
</g>
</svg>
