<?xml version="1.0" encoding="UTF-8" standalone="no"?>
<!DOCTYPE svg PUBLIC "-//W3C//DTD SVG 1.1//EN"
 "http://www.w3.org/Graphics/SVG/1.1/DTD/svg11.dtd">
<!-- Generated by graphviz version 9.0.0 (20230911.1827)
 -->
<!-- Title: TPeak.cxx Pages: 1 -->
<svg width="1655pt" height="304pt"
 viewBox="0.00 0.00 1654.62 303.50" xmlns="http://www.w3.org/2000/svg" xmlns:xlink="http://www.w3.org/1999/xlink">
<g id="graph0" class="graph" transform="scale(1 1) rotate(0) translate(4 299.5)">
<title>TPeak.cxx</title>
<!-- Node1 -->
<g id="Node000001" class="node">
<title>Node1</title>
<g id="a_Node000001"><a xlink:title=" ">
<polygon fill="#999999" stroke="#666666" points="1559.38,-295.5 1498.38,-295.5 1498.38,-276.25 1559.38,-276.25 1559.38,-295.5"/>
<text text-anchor="middle" x="1528.88" y="-282" font-family="Helvetica,sans-Serif" font-size="10.00">TPeak.cxx</text>
</a>
</g>
</g>
<!-- Node2 -->
<g id="Node000002" class="node">
<title>Node2</title>
<g id="a_Node000002"><a xlink:href="_t_peak_8h.html" target="_top" xlink:title=" ">
<polygon fill="white" stroke="#666666" points="1452.88,-240.25 1400.88,-240.25 1400.88,-221 1452.88,-221 1452.88,-240.25"/>
<text text-anchor="middle" x="1426.88" y="-226.75" font-family="Helvetica,sans-Serif" font-size="10.00">TPeak.h</text>
</a>
</g>
</g>
<!-- Node1&#45;&gt;Node2 -->
<g id="edge1_Node000001_Node000002" class="edge">
<title>Node1&#45;&gt;Node2</title>
<g id="a_edge1_Node000001_Node000002"><a xlink:title=" ">
<path fill="none" stroke="#63b8ff" d="M1511.57,-275.84C1495.89,-267.66 1472.52,-255.46 1454.3,-245.94"/>
<polygon fill="#63b8ff" stroke="#63b8ff" points="1456.09,-242.93 1445.6,-241.4 1452.85,-249.13 1456.09,-242.93"/>
</a>
</g>
</g>
<!-- Node8 -->
<g id="Node000008" class="node">
<title>Node8</title>
<g id="a_Node000008"><a xlink:title=" ">
<polygon fill="#e0e0e0" stroke="#999999" points="1610.75,-185 1555,-185 1555,-165.75 1610.75,-165.75 1610.75,-185"/>
<text text-anchor="middle" x="1582.88" y="-171.5" font-family="Helvetica,sans-Serif" font-size="10.00">TGraph.h</text>
</a>
</g>
</g>
<!-- Node1&#45;&gt;Node8 -->
<g id="edge55_Node000001_Node000008" class="edge">
<title>Node1&#45;&gt;Node8</title>
<g id="a_edge55_Node000001_Node000008"><a xlink:title=" ">
<path fill="none" stroke="#63b8ff" d="M1530.46,-275.79C1532.93,-263.03 1538.42,-239.29 1547.88,-221 1552.89,-211.3 1560.13,-201.63 1566.72,-193.78"/>
<polygon fill="#63b8ff" stroke="#63b8ff" points="1569.27,-196.19 1573.25,-186.37 1564.02,-191.56 1569.27,-196.19"/>
</a>
</g>
</g>
<!-- Node44 -->
<g id="Node000044" class="node">
<title>Node44</title>
<g id="a_Node000044"><a xlink:title=" ">
<polygon fill="#e0e0e0" stroke="#999999" points="1646.62,-240.25 1557.12,-240.25 1557.12,-221 1646.62,-221 1646.62,-240.25"/>
<text text-anchor="middle" x="1601.88" y="-226.75" font-family="Helvetica,sans-Serif" font-size="10.00">Math/Minimizer.h</text>
</a>
</g>
</g>
<!-- Node1&#45;&gt;Node44 -->
<g id="edge56_Node000001_Node000044" class="edge">
<title>Node1&#45;&gt;Node44</title>
<g id="a_edge56_Node000001_Node000044"><a xlink:title=" ">
<path fill="none" stroke="#63b8ff" d="M1541.26,-275.84C1552.02,-267.99 1567.85,-256.45 1580.63,-247.12"/>
<polygon fill="#63b8ff" stroke="#63b8ff" points="1582.44,-250.14 1588.45,-241.42 1578.31,-244.48 1582.44,-250.14"/>
</a>
</g>
</g>
<!-- Node3 -->
<g id="Node000003" class="node">
<title>Node3</title>
<g id="a_Node000003"><a xlink:title=" ">
<polygon fill="#e0e0e0" stroke="#999999" points="1322.88,-19.25 1282.88,-19.25 1282.88,0 1322.88,0 1322.88,-19.25"/>
<text text-anchor="middle" x="1302.88" y="-5.75" font-family="Helvetica,sans-Serif" font-size="10.00">string</text>
</a>
</g>
</g>
<!-- Node2&#45;&gt;Node3 -->
<g id="edge2_Node000002_Node000003" class="edge">
<title>Node2&#45;&gt;Node3</title>
<g id="a_edge2_Node000002_Node000003"><a xlink:title=" ">
<path fill="none" stroke="#63b8ff" d="M1442.49,-220.64C1454.76,-212.78 1471.32,-200.25 1480.88,-185 1512.16,-135.09 1544.83,-101.12 1507.88,-55.25 1486.46,-28.67 1386.54,-17.09 1334.53,-12.8"/>
<polygon fill="#63b8ff" stroke="#63b8ff" points="1335.06,-9.33 1324.82,-12.04 1334.52,-16.31 1335.06,-9.33"/>
</a>
</g>
</g>
<!-- Node4 -->
<g id="Node000004" class="node">
<title>Node4</title>
<g id="a_Node000004"><a xlink:title=" ">
<polygon fill="#e0e0e0" stroke="#999999" points="1454.75,-185 1399,-185 1399,-165.75 1454.75,-165.75 1454.75,-185"/>
<text text-anchor="middle" x="1426.88" y="-171.5" font-family="Helvetica,sans-Serif" font-size="10.00">algorithm</text>
</a>
</g>
</g>
<!-- Node2&#45;&gt;Node4 -->
<g id="edge3_Node000002_Node000004" class="edge">
<title>Node2&#45;&gt;Node4</title>
<g id="a_edge3_Node000002_Node000004"><a xlink:title=" ">
<path fill="none" stroke="#63b8ff" d="M1426.88,-220.83C1426.88,-214.32 1426.88,-205.17 1426.88,-196.87"/>
<polygon fill="#63b8ff" stroke="#63b8ff" points="1430.38,-196.87 1426.88,-186.87 1423.38,-196.87 1430.38,-196.87"/>
</a>
</g>
</g>
<!-- Node5 -->
<g id="Node000005" class="node">
<title>Node5</title>
<g id="a_Node000005"><a xlink:title=" ">
<polygon fill="#e0e0e0" stroke="#999999" points="295.25,-129.75 254.5,-129.75 254.5,-110.5 295.25,-110.5 295.25,-129.75"/>
<text text-anchor="middle" x="274.88" y="-116.25" font-family="Helvetica,sans-Serif" font-size="10.00">TF1.h</text>
</a>
</g>
</g>
<!-- Node2&#45;&gt;Node5 -->
<g id="edge4_Node000002_Node000005" class="edge">
<title>Node2&#45;&gt;Node5</title>
<g id="a_edge4_Node000002_Node000005"><a xlink:title=" ">
<path fill="none" stroke="#63b8ff" d="M1400.43,-227.94C1317.46,-222.58 1054.86,-205.11 837.88,-185 613.49,-164.21 557.4,-158.33 333.88,-129.75 325.12,-128.63 315.65,-127.3 306.92,-126.02"/>
<polygon fill="#63b8ff" stroke="#63b8ff" points="307.5,-122.57 297.1,-124.56 306.48,-129.5 307.5,-122.57"/>
</a>
</g>
</g>
<!-- Node6 -->
<g id="Node000006" class="node">
<title>Node6</title>
<g id="a_Node000006"><a xlink:title=" ">
<polygon fill="#e0e0e0" stroke="#999999" points="1498.5,-74.5 1417.25,-74.5 1417.25,-55.25 1498.5,-55.25 1498.5,-74.5"/>
<text text-anchor="middle" x="1457.88" y="-61" font-family="Helvetica,sans-Serif" font-size="10.00">TFitResultPtr.h</text>
</a>
</g>
</g>
<!-- Node2&#45;&gt;Node6 -->
<g id="edge5_Node000002_Node000006" class="edge">
<title>Node2&#45;&gt;Node6</title>
<g id="a_edge5_Node000002_Node000006"><a xlink:title=" ">
<path fill="none" stroke="#63b8ff" d="M1437.66,-220.64C1446.61,-212.42 1458.69,-199.39 1463.88,-185 1475.84,-151.82 1469.23,-110.07 1463.46,-85.83"/>
<polygon fill="#63b8ff" stroke="#63b8ff" points="1466.9,-85.16 1461.01,-76.35 1460.13,-86.91 1466.9,-85.16"/>
</a>
</g>
</g>
<!-- Node7 -->
<g id="Node000007" class="node">
<title>Node7</title>
<g id="a_Node000007"><a xlink:title=" ">
<polygon fill="#e0e0e0" stroke="#999999" points="1399.12,-74.5 1330.62,-74.5 1330.62,-55.25 1399.12,-55.25 1399.12,-74.5"/>
<text text-anchor="middle" x="1364.88" y="-61" font-family="Helvetica,sans-Serif" font-size="10.00">TFitResult.h</text>
</a>
</g>
</g>
<!-- Node2&#45;&gt;Node7 -->
<g id="edge6_Node000002_Node000007" class="edge">
<title>Node2&#45;&gt;Node7</title>
<g id="a_edge6_Node000002_Node000007"><a xlink:title=" ">
<path fill="none" stroke="#63b8ff" d="M1417.14,-220.67C1408.63,-212.27 1396.61,-198.96 1389.88,-185 1374.23,-152.57 1368.34,-110.54 1366.14,-86.06"/>
<polygon fill="#63b8ff" stroke="#63b8ff" points="1369.64,-85.93 1365.4,-76.22 1362.66,-86.46 1369.64,-85.93"/>
</a>
</g>
</g>
<!-- Node2&#45;&gt;Node8 -->
<g id="edge7_Node000002_Node000008" class="edge">
<title>Node2&#45;&gt;Node8</title>
<g id="a_edge7_Node000002_Node000008"><a xlink:title=" ">
<path fill="none" stroke="#63b8ff" d="M1453.34,-220.59C1478.66,-211.95 1517.11,-198.82 1545.54,-189.12"/>
<polygon fill="#63b8ff" stroke="#63b8ff" points="1546.52,-192.48 1554.85,-185.94 1544.25,-185.86 1546.52,-192.48"/>
</a>
</g>
</g>
<!-- Node9 -->
<g id="Node000009" class="node">
<title>Node9</title>
<g id="a_Node000009"><a xlink:href="_t_g_r_s_i_functions_8h.html" target="_top" xlink:title=" ">
<polygon fill="white" stroke="#666666" points="1267,-129.75 1170.75,-129.75 1170.75,-110.5 1267,-110.5 1267,-129.75"/>
<text text-anchor="middle" x="1218.88" y="-116.25" font-family="Helvetica,sans-Serif" font-size="10.00">TGRSIFunctions.h</text>
</a>
</g>
</g>
<!-- Node2&#45;&gt;Node9 -->
<g id="edge8_Node000002_Node000009" class="edge">
<title>Node2&#45;&gt;Node9</title>
<g id="a_edge8_Node000002_Node000009"><a xlink:title=" ">
<path fill="none" stroke="#63b8ff" d="M1409.5,-220.56C1373.4,-201.73 1290.06,-158.26 1246.51,-135.54"/>
<polygon fill="#63b8ff" stroke="#63b8ff" points="1248.17,-132.46 1237.69,-130.94 1244.94,-138.67 1248.17,-132.46"/>
</a>
</g>
</g>
<!-- Node33 -->
<g id="Node000033" class="node">
<title>Node33</title>
<g id="a_Node000033"><a xlink:href="_t_g_r_s_i_fit_8h.html" target="_top" xlink:title=" ">
<polygon fill="white" stroke="#666666" points="911.25,-185 846.5,-185 846.5,-165.75 911.25,-165.75 911.25,-185"/>
<text text-anchor="middle" x="878.88" y="-171.5" font-family="Helvetica,sans-Serif" font-size="10.00">TGRSIFit.h</text>
</a>
</g>
</g>
<!-- Node2&#45;&gt;Node33 -->
<g id="edge37_Node000002_Node000033" class="edge">
<title>Node2&#45;&gt;Node33</title>
<g id="a_edge37_Node000002_Node000033"><a xlink:title=" ">
<path fill="none" stroke="#63b8ff" d="M1400.44,-227.06C1312.88,-218.55 1031.64,-191.22 922.63,-180.63"/>
<polygon fill="#63b8ff" stroke="#63b8ff" points="923.21,-177.17 912.92,-179.68 922.54,-184.13 923.21,-177.17"/>
</a>
</g>
</g>
<!-- Node9&#45;&gt;Node3 -->
<g id="edge11_Node000009_Node000003" class="edge">
<title>Node9&#45;&gt;Node3</title>
<g id="a_edge11_Node000009_Node000003"><a xlink:title=" ">
<path fill="none" stroke="#63b8ff" d="M1238.28,-110.01C1252.53,-102.38 1271.34,-90.23 1282.88,-74.5 1292.25,-61.72 1297.31,-44.42 1300,-31.05"/>
<polygon fill="#63b8ff" stroke="#63b8ff" points="1303.44,-31.65 1301.65,-21.2 1296.54,-30.48 1303.44,-31.65"/>
</a>
</g>
</g>
<!-- Node9&#45;&gt;Node6 -->
<g id="edge15_Node000009_Node000006" class="edge">
<title>Node9&#45;&gt;Node6</title>
<g id="a_edge15_Node000009_Node000006"><a xlink:title=" ">
<path fill="none" stroke="#63b8ff" d="M1259.69,-110.03C1300.16,-101.01 1362.31,-87.17 1406.21,-77.39"/>
<polygon fill="#63b8ff" stroke="#63b8ff" points="1406.75,-80.85 1415.75,-75.26 1405.23,-74.02 1406.75,-80.85"/>
</a>
</g>
</g>
<!-- Node9&#45;&gt;Node7 -->
<g id="edge16_Node000009_Node000007" class="edge">
<title>Node9&#45;&gt;Node7</title>
<g id="a_edge16_Node000009_Node000007"><a xlink:title=" ">
<path fill="none" stroke="#63b8ff" d="M1243.64,-110.09C1267.13,-101.52 1302.69,-88.56 1329.23,-78.88"/>
<polygon fill="#63b8ff" stroke="#63b8ff" points="1330.37,-82.19 1338.56,-75.47 1327.97,-75.61 1330.37,-82.19"/>
</a>
</g>
</g>
<!-- Node10 -->
<g id="Node000010" class="node">
<title>Node10</title>
<g id="a_Node000010"><a xlink:title=" ">
<polygon fill="#e0e0e0" stroke="#999999" points="1136.62,-19.25 1083.12,-19.25 1083.12,0 1136.62,0 1136.62,-19.25"/>
<text text-anchor="middle" x="1109.88" y="-5.75" font-family="Helvetica,sans-Serif" font-size="10.00">iostream</text>
</a>
</g>
</g>
<!-- Node9&#45;&gt;Node10 -->
<g id="edge9_Node000009_Node000010" class="edge">
<title>Node9&#45;&gt;Node10</title>
<g id="a_edge9_Node000009_Node000010"><a xlink:title=" ">
<path fill="none" stroke="#63b8ff" d="M1170.47,-110.85C1107.63,-99.88 1005.3,-81.14 999.88,-74.5 994.46,-67.87 995.1,-62.35 999.88,-55.25 1008.36,-42.65 1043.56,-29.76 1071.88,-21.1"/>
<polygon fill="#63b8ff" stroke="#63b8ff" points="1072.68,-24.51 1081.27,-18.31 1070.69,-17.8 1072.68,-24.51"/>
</a>
</g>
</g>
<!-- Node11 -->
<g id="Node000011" class="node">
<title>Node11</title>
<g id="a_Node000011"><a xlink:title=" ">
<polygon fill="#e0e0e0" stroke="#999999" points="1274.38,-74.5 1225.38,-74.5 1225.38,-55.25 1274.38,-55.25 1274.38,-74.5"/>
<text text-anchor="middle" x="1249.88" y="-61" font-family="Helvetica,sans-Serif" font-size="10.00">fstream</text>
</a>
</g>
</g>
<!-- Node9&#45;&gt;Node11 -->
<g id="edge10_Node000009_Node000011" class="edge">
<title>Node9&#45;&gt;Node11</title>
<g id="a_edge10_Node000009_Node000011"><a xlink:title=" ">
<path fill="none" stroke="#63b8ff" d="M1223.99,-110.33C1228.05,-103.36 1233.87,-93.37 1238.96,-84.62"/>
<polygon fill="#63b8ff" stroke="#63b8ff" points="1241.88,-86.57 1243.88,-76.17 1235.83,-83.05 1241.88,-86.57"/>
</a>
</g>
</g>
<!-- Node12 -->
<g id="Node000012" class="node">
<title>Node12</title>
<g id="a_Node000012"><a xlink:title=" ">
<polygon fill="#e0e0e0" stroke="#999999" points="1052.38,-74.5 1009.38,-74.5 1009.38,-55.25 1052.38,-55.25 1052.38,-74.5"/>
<text text-anchor="middle" x="1030.88" y="-61" font-family="Helvetica,sans-Serif" font-size="10.00">cmath</text>
</a>
</g>
</g>
<!-- Node9&#45;&gt;Node12 -->
<g id="edge12_Node000009_Node000012" class="edge">
<title>Node9&#45;&gt;Node12</title>
<g id="a_edge12_Node000009_Node000012"><a xlink:title=" ">
<path fill="none" stroke="#63b8ff" d="M1186.98,-110.09C1152.63,-100.36 1098.24,-84.96 1063.58,-75.14"/>
<polygon fill="#63b8ff" stroke="#63b8ff" points="1064.67,-71.81 1054.09,-72.45 1062.76,-78.54 1064.67,-71.81"/>
</a>
</g>
</g>
<!-- Node13 -->
<g id="Node000013" class="node">
<title>Node13</title>
<g id="a_Node000013"><a xlink:title=" ">
<polygon fill="#e0e0e0" stroke="#999999" points="952.5,-74.5 901.25,-74.5 901.25,-55.25 952.5,-55.25 952.5,-74.5"/>
<text text-anchor="middle" x="926.88" y="-61" font-family="Helvetica,sans-Serif" font-size="10.00">TMath.h</text>
</a>
</g>
</g>
<!-- Node9&#45;&gt;Node13 -->
<g id="edge13_Node000009_Node000013" class="edge">
<title>Node9&#45;&gt;Node13</title>
<g id="a_edge13_Node000009_Node000013"><a xlink:title=" ">
<path fill="none" stroke="#63b8ff" d="M1170.47,-111.1C1119.66,-102.55 1037.5,-88.36 966.88,-74.5 965.87,-74.3 964.85,-74.1 963.82,-73.89"/>
<polygon fill="#63b8ff" stroke="#63b8ff" points="964.65,-70.49 954.15,-71.89 963.23,-77.35 964.65,-70.49"/>
</a>
</g>
</g>
<!-- Node14 -->
<g id="Node000014" class="node">
<title>Node14</title>
<g id="a_Node000014"><a xlink:title=" ">
<polygon fill="#e0e0e0" stroke="#999999" points="883.5,-74.5 826.25,-74.5 826.25,-55.25 883.5,-55.25 883.5,-74.5"/>
<text text-anchor="middle" x="854.88" y="-61" font-family="Helvetica,sans-Serif" font-size="10.00">TROOT.h</text>
</a>
</g>
</g>
<!-- Node9&#45;&gt;Node14 -->
<g id="edge14_Node000009_Node000014" class="edge">
<title>Node9&#45;&gt;Node14</title>
<g id="a_edge14_Node000009_Node000014"><a xlink:title=" ">
<path fill="none" stroke="#63b8ff" d="M1170.37,-111.73C1167.5,-111.31 1164.65,-110.89 1161.88,-110.5 1045.65,-93.96 1012.93,-96.11 895.19,-74.97"/>
<polygon fill="#63b8ff" stroke="#63b8ff" points="895.86,-71.54 885.39,-73.19 894.61,-78.42 895.86,-71.54"/>
</a>
</g>
</g>
<!-- Node15 -->
<g id="Node000015" class="node">
<title>Node15</title>
<g id="a_Node000015"><a xlink:title=" ">
<polygon fill="#e0e0e0" stroke="#999999" points="1206.88,-74.5 1070.88,-74.5 1070.88,-55.25 1206.88,-55.25 1206.88,-74.5"/>
<text text-anchor="middle" x="1138.88" y="-61" font-family="Helvetica,sans-Serif" font-size="10.00">Math/SpecFuncMathMore.h</text>
</a>
</g>
</g>
<!-- Node9&#45;&gt;Node15 -->
<g id="edge17_Node000009_Node000015" class="edge">
<title>Node9&#45;&gt;Node15</title>
<g id="a_edge17_Node000009_Node000015"><a xlink:title=" ">
<path fill="none" stroke="#63b8ff" d="M1205.3,-110.09C1193.47,-102.21 1176.04,-90.61 1162,-81.27"/>
<polygon fill="#63b8ff" stroke="#63b8ff" points="1164.04,-78.42 1153.77,-75.79 1160.16,-84.25 1164.04,-78.42"/>
</a>
</g>
</g>
<!-- Node16 -->
<g id="Node000016" class="node">
<title>Node16</title>
<g id="a_Node000016"><a xlink:href="_globals_8h.html" target="_top" xlink:title=" ">
<polygon fill="white" stroke="#666666" points="624.12,-74.5 567.62,-74.5 567.62,-55.25 624.12,-55.25 624.12,-74.5"/>
<text text-anchor="middle" x="595.88" y="-61" font-family="Helvetica,sans-Serif" font-size="10.00">Globals.h</text>
</a>
</g>
</g>
<!-- Node9&#45;&gt;Node16 -->
<g id="edge18_Node000009_Node000016" class="edge">
<title>Node9&#45;&gt;Node16</title>
<g id="a_edge18_Node000009_Node000016"><a xlink:title=" ">
<path fill="none" stroke="#63b8ff" d="M1170.4,-111.55C1167.52,-111.17 1164.66,-110.82 1161.88,-110.5 965.1,-87.89 728.51,-73.28 635.85,-68.04"/>
<polygon fill="#63b8ff" stroke="#63b8ff" points="636.2,-64.56 626.02,-67.49 635.81,-71.54 636.2,-64.56"/>
</a>
</g>
</g>
<!-- Node16&#45;&gt;Node3 -->
<g id="edge23_Node000016_Node000003" class="edge">
<title>Node16&#45;&gt;Node3</title>
<g id="a_edge23_Node000016_Node000003"><a xlink:title=" ">
<path fill="none" stroke="#63b8ff" d="M624.47,-61.72C737.49,-53.21 1152.73,-21.93 1271.16,-13.01"/>
<polygon fill="#63b8ff" stroke="#63b8ff" points="1271.37,-16.51 1281.08,-12.27 1270.84,-9.53 1271.37,-16.51"/>
</a>
</g>
</g>
<!-- Node16&#45;&gt;Node10 -->
<g id="edge20_Node000016_Node000010" class="edge">
<title>Node16&#45;&gt;Node10</title>
<g id="a_edge20_Node000016_Node000010"><a xlink:title=" ">
<path fill="none" stroke="#63b8ff" d="M624.41,-62.7C697.38,-59.38 896.82,-48.33 1071.61,-19.59"/>
<polygon fill="#63b8ff" stroke="#63b8ff" points="1072.05,-23.06 1081.33,-17.96 1070.89,-16.16 1072.05,-23.06"/>
</a>
</g>
</g>
<!-- Node17 -->
<g id="Node000017" class="node">
<title>Node17</title>
<g id="a_Node000017"><a xlink:title=" ">
<polygon fill="#e0e0e0" stroke="#999999" points="1065.5,-19.25 1020.25,-19.25 1020.25,0 1065.5,0 1065.5,-19.25"/>
<text text-anchor="middle" x="1042.88" y="-5.75" font-family="Helvetica,sans-Serif" font-size="10.00">cstdint</text>
</a>
</g>
</g>
<!-- Node16&#45;&gt;Node17 -->
<g id="edge19_Node000016_Node000017" class="edge">
<title>Node16&#45;&gt;Node17</title>
<g id="a_edge19_Node000016_Node000017"><a xlink:title=" ">
<path fill="none" stroke="#63b8ff" d="M624.53,-62.34C690.57,-58.47 858.7,-46.76 1008.68,-19.36"/>
<polygon fill="#63b8ff" stroke="#63b8ff" points="1009.22,-22.82 1018.41,-17.55 1007.94,-15.94 1009.22,-22.82"/>
</a>
</g>
</g>
<!-- Node18 -->
<g id="Node000018" class="node">
<title>Node18</title>
<g id="a_Node000018"><a xlink:title=" ">
<polygon fill="#e0e0e0" stroke="#999999" points="49.75,-19.25 0,-19.25 0,0 49.75,0 49.75,-19.25"/>
<text text-anchor="middle" x="24.88" y="-5.75" font-family="Helvetica,sans-Serif" font-size="10.00">iomanip</text>
</a>
</g>
</g>
<!-- Node16&#45;&gt;Node18 -->
<g id="edge21_Node000016_Node000018" class="edge">
<title>Node16&#45;&gt;Node18</title>
<g id="a_edge21_Node000016_Node000018"><a xlink:title=" ">
<path fill="none" stroke="#63b8ff" d="M567.14,-63.16C487.97,-60.83 259.93,-51.76 61.26,-19.36"/>
<polygon fill="#63b8ff" stroke="#63b8ff" points="61.96,-15.93 51.52,-17.75 60.81,-22.84 61.96,-15.93"/>
</a>
</g>
</g>
<!-- Node19 -->
<g id="Node000019" class="node">
<title>Node19</title>
<g id="a_Node000019"><a xlink:title=" ">
<polygon fill="#e0e0e0" stroke="#999999" points="125.88,-19.25 67.88,-19.25 67.88,0 125.88,0 125.88,-19.25"/>
<text text-anchor="middle" x="96.88" y="-5.75" font-family="Helvetica,sans-Serif" font-size="10.00">stdexcept</text>
</a>
</g>
</g>
<!-- Node16&#45;&gt;Node19 -->
<g id="edge22_Node000016_Node000019" class="edge">
<title>Node16&#45;&gt;Node19</title>
<g id="a_edge22_Node000016_Node000019"><a xlink:title=" ">
<path fill="none" stroke="#63b8ff" d="M567.39,-62.38C496.44,-58.38 306.03,-46.01 137.58,-19.49"/>
<polygon fill="#63b8ff" stroke="#63b8ff" points="138.18,-16.04 127.76,-17.92 137.08,-22.96 138.18,-16.04"/>
</a>
</g>
</g>
<!-- Node20 -->
<g id="Node000020" class="node">
<title>Node20</title>
<g id="a_Node000020"><a xlink:title=" ">
<polygon fill="#e0e0e0" stroke="#999999" points="186,-19.25 143.75,-19.25 143.75,0 186,0 186,-19.25"/>
<text text-anchor="middle" x="164.88" y="-5.75" font-family="Helvetica,sans-Serif" font-size="10.00">cstdio</text>
</a>
</g>
</g>
<!-- Node16&#45;&gt;Node20 -->
<g id="edge24_Node000016_Node000020" class="edge">
<title>Node16&#45;&gt;Node20</title>
<g id="a_edge24_Node000016_Node000020"><a xlink:title=" ">
<path fill="none" stroke="#63b8ff" d="M567.43,-62.37C503.1,-58.6 341.48,-47.19 197.6,-19.48"/>
<polygon fill="#63b8ff" stroke="#63b8ff" points="198.37,-16.07 187.88,-17.58 197.02,-22.94 198.37,-16.07"/>
</a>
</g>
</g>
<!-- Node21 -->
<g id="Node000021" class="node">
<title>Node21</title>
<g id="a_Node000021"><a xlink:title=" ">
<polygon fill="#e0e0e0" stroke="#999999" points="248.12,-19.25 203.62,-19.25 203.62,0 248.12,0 248.12,-19.25"/>
<text text-anchor="middle" x="225.88" y="-5.75" font-family="Helvetica,sans-Serif" font-size="10.00">cstdlib</text>
</a>
</g>
</g>
<!-- Node16&#45;&gt;Node21 -->
<g id="edge25_Node000016_Node000021" class="edge">
<title>Node16&#45;&gt;Node21</title>
<g id="a_edge25_Node000016_Node000021"><a xlink:title=" ">
<path fill="none" stroke="#63b8ff" d="M567.53,-61.5C510.8,-56.46 379.17,-43.32 259.63,-19.56"/>
<polygon fill="#63b8ff" stroke="#63b8ff" points="260.45,-16.16 249.96,-17.61 259.06,-23.02 260.45,-16.16"/>
</a>
</g>
</g>
<!-- Node22 -->
<g id="Node000022" class="node">
<title>Node22</title>
<g id="a_Node000022"><a xlink:title=" ">
<polygon fill="#e0e0e0" stroke="#999999" points="325.62,-19.25 266.12,-19.25 266.12,0 325.62,0 325.62,-19.25"/>
<text text-anchor="middle" x="295.88" y="-5.75" font-family="Helvetica,sans-Serif" font-size="10.00">execinfo.h</text>
</a>
</g>
</g>
<!-- Node16&#45;&gt;Node22 -->
<g id="edge26_Node000016_Node000022" class="edge">
<title>Node16&#45;&gt;Node22</title>
<g id="a_edge26_Node000016_Node000022"><a xlink:title=" ">
<path fill="none" stroke="#63b8ff" d="M567.21,-59.44C521.01,-52.19 426.94,-37.02 337.27,-19.64"/>
<polygon fill="#63b8ff" stroke="#63b8ff" points="338.05,-16.23 327.56,-17.75 336.71,-23.1 338.05,-16.23"/>
</a>
</g>
</g>
<!-- Node23 -->
<g id="Node000023" class="node">
<title>Node23</title>
<g id="a_Node000023"><a xlink:title=" ">
<polygon fill="#e0e0e0" stroke="#999999" points="394.12,-19.25 343.62,-19.25 343.62,0 394.12,0 394.12,-19.25"/>
<text text-anchor="middle" x="368.88" y="-5.75" font-family="Helvetica,sans-Serif" font-size="10.00">cxxabi.h</text>
</a>
</g>
</g>
<!-- Node16&#45;&gt;Node23 -->
<g id="edge27_Node000016_Node000023" class="edge">
<title>Node16&#45;&gt;Node23</title>
<g id="a_edge27_Node000016_Node000023"><a xlink:title=" ">
<path fill="none" stroke="#63b8ff" d="M567.38,-57.49C531.75,-49.45 468.6,-35.07 405.44,-19.83"/>
<polygon fill="#63b8ff" stroke="#63b8ff" points="406.49,-16.49 395.95,-17.54 404.85,-23.29 406.49,-16.49"/>
</a>
</g>
</g>
<!-- Node24 -->
<g id="Node000024" class="node">
<title>Node24</title>
<g id="a_Node000024"><a xlink:title=" ">
<polygon fill="#e0e0e0" stroke="#999999" points="463.5,-19.25 412.25,-19.25 412.25,0 463.5,0 463.5,-19.25"/>
<text text-anchor="middle" x="437.88" y="-5.75" font-family="Helvetica,sans-Serif" font-size="10.00">sstream</text>
</a>
</g>
</g>
<!-- Node16&#45;&gt;Node24 -->
<g id="edge28_Node000016_Node000024" class="edge">
<title>Node16&#45;&gt;Node24</title>
<g id="a_edge28_Node000016_Node000024"><a xlink:title=" ">
<path fill="none" stroke="#63b8ff" d="M569.07,-54.84C543.11,-46.09 503.54,-32.76 474.64,-23.02"/>
<polygon fill="#63b8ff" stroke="#63b8ff" points="475.79,-19.71 465.19,-19.83 473.55,-26.34 475.79,-19.71"/>
</a>
</g>
</g>
<!-- Node25 -->
<g id="Node000025" class="node">
<title>Node25</title>
<g id="a_Node000025"><a xlink:title=" ">
<polygon fill="#e0e0e0" stroke="#999999" points="518.38,-19.25 481.38,-19.25 481.38,0 518.38,0 518.38,-19.25"/>
<text text-anchor="middle" x="499.88" y="-5.75" font-family="Helvetica,sans-Serif" font-size="10.00">array</text>
</a>
</g>
</g>
<!-- Node16&#45;&gt;Node25 -->
<g id="edge29_Node000016_Node000025" class="edge">
<title>Node16&#45;&gt;Node25</title>
<g id="a_edge29_Node000016_Node000025"><a xlink:title=" ">
<path fill="none" stroke="#63b8ff" d="M579.59,-54.84C564.97,-46.73 543.25,-34.68 526.17,-25.21"/>
<polygon fill="#63b8ff" stroke="#63b8ff" points="528.01,-22.23 517.56,-20.44 524.61,-28.35 528.01,-22.23"/>
</a>
</g>
</g>
<!-- Node26 -->
<g id="Node000026" class="node">
<title>Node26</title>
<g id="a_Node000026"><a xlink:title=" ">
<polygon fill="#e0e0e0" stroke="#999999" points="587.12,-19.25 536.62,-19.25 536.62,0 587.12,0 587.12,-19.25"/>
<text text-anchor="middle" x="561.88" y="-5.75" font-family="Helvetica,sans-Serif" font-size="10.00">memory</text>
</a>
</g>
</g>
<!-- Node16&#45;&gt;Node26 -->
<g id="edge30_Node000016_Node000026" class="edge">
<title>Node16&#45;&gt;Node26</title>
<g id="a_edge30_Node000016_Node000026"><a xlink:title=" ">
<path fill="none" stroke="#63b8ff" d="M590.26,-55.08C585.76,-48.03 579.29,-37.9 573.66,-29.08"/>
<polygon fill="#63b8ff" stroke="#63b8ff" points="576.76,-27.43 568.43,-20.88 570.86,-31.2 576.76,-27.43"/>
</a>
</g>
</g>
<!-- Node27 -->
<g id="Node000027" class="node">
<title>Node27</title>
<g id="a_Node000027"><a xlink:title=" ">
<polygon fill="#e0e0e0" stroke="#999999" points="654.75,-19.25 605,-19.25 605,0 654.75,0 654.75,-19.25"/>
<text text-anchor="middle" x="629.88" y="-5.75" font-family="Helvetica,sans-Serif" font-size="10.00">unistd.h</text>
</a>
</g>
</g>
<!-- Node16&#45;&gt;Node27 -->
<g id="edge31_Node000016_Node000027" class="edge">
<title>Node16&#45;&gt;Node27</title>
<g id="a_edge31_Node000016_Node000027"><a xlink:title=" ">
<path fill="none" stroke="#63b8ff" d="M601.49,-55.08C605.99,-48.03 612.46,-37.9 618.09,-29.08"/>
<polygon fill="#63b8ff" stroke="#63b8ff" points="620.89,-31.2 623.32,-20.88 614.99,-27.43 620.89,-31.2"/>
</a>
</g>
</g>
<!-- Node28 -->
<g id="Node000028" class="node">
<title>Node28</title>
<g id="a_Node000028"><a xlink:title=" ">
<polygon fill="#e0e0e0" stroke="#999999" points="718.88,-19.25 672.88,-19.25 672.88,0 718.88,0 718.88,-19.25"/>
<text text-anchor="middle" x="695.88" y="-5.75" font-family="Helvetica,sans-Serif" font-size="10.00">TEnv.h</text>
</a>
</g>
</g>
<!-- Node16&#45;&gt;Node28 -->
<g id="edge32_Node000016_Node000028" class="edge">
<title>Node16&#45;&gt;Node28</title>
<g id="a_edge32_Node000016_Node000028"><a xlink:title=" ">
<path fill="none" stroke="#63b8ff" d="M612.84,-54.84C628.14,-46.69 650.91,-34.57 668.74,-25.08"/>
<polygon fill="#63b8ff" stroke="#63b8ff" points="670.31,-28.2 677.49,-20.41 667.02,-22.02 670.31,-28.2"/>
</a>
</g>
</g>
<!-- Node29 -->
<g id="Node000029" class="node">
<title>Node29</title>
<g id="a_Node000029"><a xlink:title=" ">
<polygon fill="#e0e0e0" stroke="#999999" points="781.12,-19.25 736.62,-19.25 736.62,0 781.12,0 781.12,-19.25"/>
<text text-anchor="middle" x="758.88" y="-5.75" font-family="Helvetica,sans-Serif" font-size="10.00">stdio.h</text>
</a>
</g>
</g>
<!-- Node16&#45;&gt;Node29 -->
<g id="edge33_Node000016_Node000029" class="edge">
<title>Node16&#45;&gt;Node29</title>
<g id="a_edge33_Node000016_Node000029"><a xlink:title=" ">
<path fill="none" stroke="#63b8ff" d="M623.53,-54.84C651.71,-45.63 695.46,-31.34 725.55,-21.51"/>
<polygon fill="#63b8ff" stroke="#63b8ff" points="726.49,-24.89 734.91,-18.45 724.32,-18.23 726.49,-24.89"/>
</a>
</g>
</g>
<!-- Node30 -->
<g id="Node000030" class="node">
<title>Node30</title>
<g id="a_Node000030"><a xlink:title=" ">
<polygon fill="#e0e0e0" stroke="#999999" points="846.25,-19.25 799.5,-19.25 799.5,0 846.25,0 846.25,-19.25"/>
<text text-anchor="middle" x="822.88" y="-5.75" font-family="Helvetica,sans-Serif" font-size="10.00">stdlib.h</text>
</a>
</g>
</g>
<!-- Node16&#45;&gt;Node30 -->
<g id="edge34_Node000016_Node000030" class="edge">
<title>Node16&#45;&gt;Node30</title>
<g id="a_edge34_Node000016_Node000030"><a xlink:title=" ">
<path fill="none" stroke="#63b8ff" d="M624.54,-57.56C660.37,-49.6 723.87,-35.31 787.98,-19.66"/>
<polygon fill="#63b8ff" stroke="#63b8ff" points="788.76,-23.07 797.63,-17.29 787.09,-16.27 788.76,-23.07"/>
</a>
</g>
</g>
<!-- Node31 -->
<g id="Node000031" class="node">
<title>Node31</title>
<g id="a_Node000031"><a xlink:title=" ">
<polygon fill="#e0e0e0" stroke="#999999" points="923.62,-19.25 864.12,-19.25 864.12,0 923.62,0 923.62,-19.25"/>
<text text-anchor="middle" x="893.88" y="-5.75" font-family="Helvetica,sans-Serif" font-size="10.00">sys/wait.h</text>
</a>
</g>
</g>
<!-- Node16&#45;&gt;Node31 -->
<g id="edge35_Node000016_Node000031" class="edge">
<title>Node16&#45;&gt;Node31</title>
<g id="a_edge35_Node000016_Node000031"><a xlink:title=" ">
<path fill="none" stroke="#63b8ff" d="M624.32,-59.42C670.17,-52.15 763.51,-36.95 852.55,-19.63"/>
<polygon fill="#63b8ff" stroke="#63b8ff" points="853.04,-23.1 862.19,-17.74 851.7,-16.23 853.04,-23.1"/>
</a>
</g>
</g>
<!-- Node32 -->
<g id="Node000032" class="node">
<title>Node32</title>
<g id="a_Node000032"><a xlink:title=" ">
<polygon fill="#e0e0e0" stroke="#999999" points="1002,-19.25 941.75,-19.25 941.75,0 1002,0 1002,-19.25"/>
<text text-anchor="middle" x="971.88" y="-5.75" font-family="Helvetica,sans-Serif" font-size="10.00">sys/prctl.h</text>
</a>
</g>
</g>
<!-- Node16&#45;&gt;Node32 -->
<g id="edge36_Node000016_Node000032" class="edge">
<title>Node16&#45;&gt;Node32</title>
<g id="a_edge36_Node000016_Node000032"><a xlink:title=" ">
<path fill="none" stroke="#63b8ff" d="M624.41,-60.94C680.87,-54.94 811.05,-40.23 930.15,-19.6"/>
<polygon fill="#63b8ff" stroke="#63b8ff" points="930.53,-23.09 939.78,-17.92 929.32,-16.19 930.53,-23.09"/>
</a>
</g>
</g>
<!-- Node33&#45;&gt;Node5 -->
<g id="edge41_Node000033_Node000005" class="edge">
<title>Node33&#45;&gt;Node5</title>
<g id="a_edge41_Node000033_Node000005"><a xlink:title=" ">
<path fill="none" stroke="#63b8ff" d="M846.19,-173.76C758.57,-171.69 511.37,-163.11 308.88,-129.75 308.2,-129.64 307.52,-129.52 306.83,-129.4"/>
<polygon fill="#63b8ff" stroke="#63b8ff" points="307.61,-125.98 297.09,-127.3 306.13,-132.83 307.61,-125.98"/>
</a>
</g>
</g>
<!-- Node33&#45;&gt;Node6 -->
<g id="edge44_Node000033_Node000006" class="edge">
<title>Node33&#45;&gt;Node6</title>
<g id="a_edge44_Node000033_Node000006"><a xlink:title=" ">
<path fill="none" stroke="#63b8ff" d="M911.48,-174.28C983.95,-173.35 1163.43,-167.11 1307.88,-129.75 1353.03,-118.07 1402.19,-94.97 1431.5,-79.98"/>
<polygon fill="#63b8ff" stroke="#63b8ff" points="1432.75,-83.28 1440.02,-75.56 1429.53,-77.06 1432.75,-83.28"/>
</a>
</g>
</g>
<!-- Node33&#45;&gt;Node7 -->
<g id="edge43_Node000033_Node000007" class="edge">
<title>Node33&#45;&gt;Node7</title>
<g id="a_edge43_Node000033_Node000007"><a xlink:title=" ">
<path fill="none" stroke="#63b8ff" d="M911.66,-172.82C994.34,-168.57 1209.44,-155.3 1275.88,-129.75 1303.73,-119.03 1330.88,-97.45 1347.72,-82.35"/>
<polygon fill="#63b8ff" stroke="#63b8ff" points="1349.88,-85.13 1354.85,-75.77 1345.13,-79.99 1349.88,-85.13"/>
</a>
</g>
</g>
<!-- Node33&#45;&gt;Node9 -->
<g id="edge38_Node000033_Node000009" class="edge">
<title>Node33&#45;&gt;Node9</title>
<g id="a_edge38_Node000033_Node000009"><a xlink:title=" ">
<path fill="none" stroke="#63b8ff" d="M911.48,-169.27C968.51,-160.34 1087.17,-141.75 1159.23,-130.47"/>
<polygon fill="#63b8ff" stroke="#63b8ff" points="1159.55,-133.96 1168.89,-128.95 1158.47,-127.04 1159.55,-133.96"/>
</a>
</g>
</g>
<!-- Node33&#45;&gt;Node13 -->
<g id="edge48_Node000033_Node000013" class="edge">
<title>Node33&#45;&gt;Node13</title>
<g id="a_edge48_Node000033_Node000013"><a xlink:title=" ">
<path fill="none" stroke="#63b8ff" d="M911.74,-166.46C930.84,-160 953.34,-148.72 964.88,-129.75 974.7,-113.59 960.81,-94.99 947.15,-82.05"/>
<polygon fill="#63b8ff" stroke="#63b8ff" points="949.85,-79.76 940.02,-75.79 945.23,-85.02 949.85,-79.76"/>
</a>
</g>
</g>
<!-- Node33&#45;&gt;Node14 -->
<g id="edge50_Node000033_Node000014" class="edge">
<title>Node33&#45;&gt;Node14</title>
<g id="a_edge50_Node000033_Node000014"><a xlink:title=" ">
<path fill="none" stroke="#63b8ff" d="M902.78,-165.4C928.47,-154.31 963.73,-134 948.88,-110.5 942.21,-99.95 915.37,-87.8 892.07,-78.84"/>
<polygon fill="#63b8ff" stroke="#63b8ff" points="893.37,-75.59 882.78,-75.37 890.92,-82.15 893.37,-75.59"/>
</a>
</g>
</g>
<!-- Node33&#45;&gt;Node16 -->
<g id="edge54_Node000033_Node000016" class="edge">
<title>Node33&#45;&gt;Node16</title>
<g id="a_edge54_Node000033_Node000016"><a xlink:title=" ">
<path fill="none" stroke="#63b8ff" d="M846.15,-174.17C734.86,-173.14 376.09,-166.92 341.88,-129.75 336.08,-123.45 336.37,-117.05 341.88,-110.5 368.77,-78.46 491.74,-69.42 556.2,-66.87"/>
<polygon fill="#63b8ff" stroke="#63b8ff" points="556.13,-70.38 566,-66.52 555.88,-63.38 556.13,-70.38"/>
</a>
</g>
</g>
<!-- Node34 -->
<g id="Node000034" class="node">
<title>Node34</title>
<g id="a_Node000034"><a xlink:title=" ">
<polygon fill="#e0e0e0" stroke="#999999" points="1092.88,-129.75 1034.88,-129.75 1034.88,-110.5 1092.88,-110.5 1092.88,-129.75"/>
<text text-anchor="middle" x="1063.88" y="-116.25" font-family="Helvetica,sans-Serif" font-size="10.00">TObject.h</text>
</a>
</g>
</g>
<!-- Node33&#45;&gt;Node34 -->
<g id="edge39_Node000033_Node000034" class="edge">
<title>Node33&#45;&gt;Node34</title>
<g id="a_edge39_Node000033_Node000034"><a xlink:title=" ">
<path fill="none" stroke="#63b8ff" d="M910.26,-165.34C941.47,-156.36 989.49,-142.54 1023.52,-132.74"/>
<polygon fill="#63b8ff" stroke="#63b8ff" points="1024.38,-136.13 1033.03,-130 1022.45,-129.41 1024.38,-136.13"/>
</a>
</g>
</g>
<!-- Node35 -->
<g id="Node000035" class="node">
<title>Node35</title>
<g id="a_Node000035"><a xlink:title=" ">
<polygon fill="#e0e0e0" stroke="#999999" points="1153,-129.75 1110.75,-129.75 1110.75,-110.5 1153,-110.5 1153,-129.75"/>
<text text-anchor="middle" x="1131.88" y="-116.25" font-family="Helvetica,sans-Serif" font-size="10.00">TH1.h</text>
</a>
</g>
</g>
<!-- Node33&#45;&gt;Node35 -->
<g id="edge40_Node000033_Node000035" class="edge">
<title>Node33&#45;&gt;Node35</title>
<g id="a_edge40_Node000033_Node000035"><a xlink:title=" ">
<path fill="none" stroke="#63b8ff" d="M911.56,-168.71C953.05,-161.32 1027.06,-147.52 1099.21,-130.25"/>
<polygon fill="#63b8ff" stroke="#63b8ff" points="1099.94,-133.67 1108.83,-127.91 1098.29,-126.87 1099.94,-133.67"/>
</a>
</g>
</g>
<!-- Node36 -->
<g id="Node000036" class="node">
<title>Node36</title>
<g id="a_Node000036"><a xlink:title=" ">
<polygon fill="#e0e0e0" stroke="#999999" points="396.88,-129.75 350.88,-129.75 350.88,-110.5 396.88,-110.5 396.88,-129.75"/>
<text text-anchor="middle" x="373.88" y="-116.25" font-family="Helvetica,sans-Serif" font-size="10.00">TList.h</text>
</a>
</g>
</g>
<!-- Node33&#45;&gt;Node36 -->
<g id="edge42_Node000033_Node000036" class="edge">
<title>Node33&#45;&gt;Node36</title>
<g id="a_edge42_Node000033_Node000036"><a xlink:title=" ">
<path fill="none" stroke="#63b8ff" d="M846.22,-173.2C770.71,-170.07 578.15,-159.78 408.34,-129.9"/>
<polygon fill="#63b8ff" stroke="#63b8ff" points="409.14,-126.48 398.68,-128.17 407.91,-133.37 409.14,-126.48"/>
</a>
</g>
</g>
<!-- Node37 -->
<g id="Node000037" class="node">
<title>Node37</title>
<g id="a_Node000037"><a xlink:title=" ">
<polygon fill="#e0e0e0" stroke="#999999" points="480.62,-129.75 415.12,-129.75 415.12,-110.5 480.62,-110.5 480.62,-129.75"/>
<text text-anchor="middle" x="447.88" y="-116.25" font-family="Helvetica,sans-Serif" font-size="10.00">TRandom.h</text>
</a>
</g>
</g>
<!-- Node33&#45;&gt;Node37 -->
<g id="edge45_Node000033_Node000037" class="edge">
<title>Node33&#45;&gt;Node37</title>
<g id="a_edge45_Node000033_Node000037"><a xlink:title=" ">
<path fill="none" stroke="#63b8ff" d="M846.21,-171.61C780.94,-165.88 629.54,-151.52 491.98,-129.95"/>
<polygon fill="#63b8ff" stroke="#63b8ff" points="492.76,-126.53 482.33,-128.42 491.66,-133.44 492.76,-126.53"/>
</a>
</g>
</g>
<!-- Node38 -->
<g id="Node000038" class="node">
<title>Node38</title>
<g id="a_Node000038"><a xlink:title=" ">
<polygon fill="#e0e0e0" stroke="#999999" points="570.62,-129.75 499.12,-129.75 499.12,-110.5 570.62,-110.5 570.62,-129.75"/>
<text text-anchor="middle" x="534.88" y="-116.25" font-family="Helvetica,sans-Serif" font-size="10.00">TSpectrum.h</text>
</a>
</g>
</g>
<!-- Node33&#45;&gt;Node38 -->
<g id="edge46_Node000033_Node000038" class="edge">
<title>Node33&#45;&gt;Node38</title>
<g id="a_edge46_Node000033_Node000038"><a xlink:title=" ">
<path fill="none" stroke="#63b8ff" d="M846.06,-169.93C792.89,-162.63 684.35,-147.32 581.89,-130.03"/>
<polygon fill="#63b8ff" stroke="#63b8ff" points="582.65,-126.61 572.2,-128.39 581.48,-133.51 582.65,-126.61"/>
</a>
</g>
</g>
<!-- Node39 -->
<g id="Node000039" class="node">
<title>Node39</title>
<g id="a_Node000039"><a xlink:title=" ">
<polygon fill="#e0e0e0" stroke="#999999" points="668.75,-129.75 589,-129.75 589,-110.5 668.75,-110.5 668.75,-129.75"/>
<text text-anchor="middle" x="628.88" y="-116.25" font-family="Helvetica,sans-Serif" font-size="10.00">TVirtualFitter.h</text>
</a>
</g>
</g>
<!-- Node33&#45;&gt;Node39 -->
<g id="edge47_Node000033_Node000039" class="edge">
<title>Node33&#45;&gt;Node39</title>
<g id="a_edge47_Node000033_Node000039"><a xlink:title=" ">
<path fill="none" stroke="#63b8ff" d="M846.19,-167.41C803.95,-158.42 729.94,-142.65 680.17,-132.05"/>
<polygon fill="#63b8ff" stroke="#63b8ff" points="681,-128.65 670.49,-129.99 679.54,-135.5 681,-128.65"/>
</a>
</g>
</g>
<!-- Node40 -->
<g id="Node000040" class="node">
<title>Node40</title>
<g id="a_Node000040"><a xlink:title=" ">
<polygon fill="#e0e0e0" stroke="#999999" points="747.38,-129.75 686.38,-129.75 686.38,-110.5 747.38,-110.5 747.38,-129.75"/>
<text text-anchor="middle" x="716.88" y="-116.25" font-family="Helvetica,sans-Serif" font-size="10.00">TNamed.h</text>
</a>
</g>
</g>
<!-- Node33&#45;&gt;Node40 -->
<g id="edge49_Node000033_Node000040" class="edge">
<title>Node33&#45;&gt;Node40</title>
<g id="a_edge49_Node000033_Node000040"><a xlink:title=" ">
<path fill="none" stroke="#63b8ff" d="M851.39,-165.34C824.98,-156.66 784.82,-143.46 755.25,-133.74"/>
<polygon fill="#63b8ff" stroke="#63b8ff" points="756.52,-130.47 745.93,-130.68 754.34,-137.12 756.52,-130.47"/>
</a>
</g>
</g>
<!-- Node41 -->
<g id="Node000041" class="node">
<title>Node41</title>
<g id="a_Node000041"><a xlink:title=" ">
<polygon fill="#e0e0e0" stroke="#999999" points="804.12,-129.75 765.62,-129.75 765.62,-110.5 804.12,-110.5 804.12,-129.75"/>
<text text-anchor="middle" x="784.88" y="-116.25" font-family="Helvetica,sans-Serif" font-size="10.00">utility</text>
</a>
</g>
</g>
<!-- Node33&#45;&gt;Node41 -->
<g id="edge51_Node000033_Node000041" class="edge">
<title>Node33&#45;&gt;Node41</title>
<g id="a_edge51_Node000033_Node000041"><a xlink:title=" ">
<path fill="none" stroke="#63b8ff" d="M862.93,-165.34C848.61,-157.23 827.34,-145.18 810.62,-135.71"/>
<polygon fill="#63b8ff" stroke="#63b8ff" points="812.64,-132.83 802.22,-130.95 809.19,-138.92 812.64,-132.83"/>
</a>
</g>
</g>
<!-- Node42 -->
<g id="Node000042" class="node">
<title>Node42</title>
<g id="a_Node000042"><a xlink:title=" ">
<polygon fill="#e0e0e0" stroke="#999999" points="867.12,-129.75 822.62,-129.75 822.62,-110.5 867.12,-110.5 867.12,-129.75"/>
<text text-anchor="middle" x="844.88" y="-116.25" font-family="Helvetica,sans-Serif" font-size="10.00">TRef.h</text>
</a>
</g>
</g>
<!-- Node33&#45;&gt;Node42 -->
<g id="edge52_Node000033_Node000042" class="edge">
<title>Node33&#45;&gt;Node42</title>
<g id="a_edge52_Node000033_Node000042"><a xlink:title=" ">
<path fill="none" stroke="#63b8ff" d="M873.26,-165.58C868.76,-158.53 862.29,-148.4 856.66,-139.58"/>
<polygon fill="#63b8ff" stroke="#63b8ff" points="859.76,-137.93 851.43,-131.38 853.86,-141.7 859.76,-137.93"/>
</a>
</g>
</g>
<!-- Node43 -->
<g id="Node000043" class="node">
<title>Node43</title>
<g id="a_Node000043"><a xlink:title=" ">
<polygon fill="#e0e0e0" stroke="#999999" points="940.38,-129.75 885.38,-129.75 885.38,-110.5 940.38,-110.5 940.38,-129.75"/>
<text text-anchor="middle" x="912.88" y="-116.25" font-family="Helvetica,sans-Serif" font-size="10.00">TString.h</text>
</a>
</g>
</g>
<!-- Node33&#45;&gt;Node43 -->
<g id="edge53_Node000033_Node000043" class="edge">
<title>Node33&#45;&gt;Node43</title>
<g id="a_edge53_Node000033_Node000043"><a xlink:title=" ">
<path fill="none" stroke="#63b8ff" d="M884.49,-165.58C888.99,-158.53 895.46,-148.4 901.09,-139.58"/>
<polygon fill="#63b8ff" stroke="#63b8ff" points="903.89,-141.7 906.32,-131.38 897.99,-137.93 903.89,-141.7"/>
</a>
</g>
</g>
</g>
</svg>
