<?xml version="1.0" encoding="UTF-8" standalone="no"?>
<!DOCTYPE svg PUBLIC "-//W3C//DTD SVG 1.1//EN"
 "http://www.w3.org/Graphics/SVG/1.1/DTD/svg11.dtd">
<!-- Generated by graphviz version 9.0.0 (20230911.1827)
 -->
<!-- Title: TParallelFileMerger.h Pages: 1 -->
<svg width="867pt" height="83pt"
 viewBox="0.00 0.00 867.38 82.50" xmlns="http://www.w3.org/2000/svg" xmlns:xlink="http://www.w3.org/1999/xlink">
<g id="graph0" class="graph" transform="scale(1 1) rotate(0) translate(4 78.5)">
<title>TParallelFileMerger.h</title>
<!-- Node1 -->
<g id="Node000001" class="node">
<title>Node1</title>
<g id="a_Node000001"><a xlink:title=" ">
<polygon fill="#999999" stroke="#666666" points="459.5,-74.5 352,-74.5 352,-55.25 459.5,-55.25 459.5,-74.5"/>
<text text-anchor="middle" x="405.75" y="-61" font-family="Helvetica,sans-Serif" font-size="10.00">TParallelFileMerger.h</text>
</a>
</g>
</g>
<!-- Node2 -->
<g id="Node000002" class="node">
<title>Node2</title>
<g id="a_Node000002"><a xlink:title=" ">
<polygon fill="#e0e0e0" stroke="#999999" points="53.5,-19.25 0,-19.25 0,0 53.5,0 53.5,-19.25"/>
<text text-anchor="middle" x="26.75" y="-5.75" font-family="Helvetica,sans-Serif" font-size="10.00">iostream</text>
</a>
</g>
</g>
<!-- Node1&#45;&gt;Node2 -->
<g id="edge1_Node000001_Node000002" class="edge">
<title>Node1&#45;&gt;Node2</title>
<g id="a_edge1_Node000001_Node000002"><a xlink:title=" ">
<path fill="none" stroke="#63b8ff" d="M351.71,-58.63C286.15,-51.87 172.07,-38.85 64.83,-19.45"/>
<polygon fill="#63b8ff" stroke="#63b8ff" points="65.77,-16.07 55.3,-17.71 64.51,-22.95 65.77,-16.07"/>
</a>
</g>
</g>
<!-- Node3 -->
<g id="Node000003" class="node">
<title>Node3</title>
<g id="a_Node000003"><a xlink:title=" ">
<polygon fill="#e0e0e0" stroke="#999999" points="134,-19.25 71.5,-19.25 71.5,0 134,0 134,-19.25"/>
<text text-anchor="middle" x="102.75" y="-5.75" font-family="Helvetica,sans-Serif" font-size="10.00">TSystem.h</text>
</a>
</g>
</g>
<!-- Node1&#45;&gt;Node3 -->
<g id="edge2_Node000001_Node000003" class="edge">
<title>Node1&#45;&gt;Node3</title>
<g id="a_edge2_Node000001_Node000003"><a xlink:title=" ">
<path fill="none" stroke="#63b8ff" d="M351.73,-55.43C300.86,-47.31 222.28,-34.36 145.05,-19.63"/>
<polygon fill="#63b8ff" stroke="#63b8ff" points="146.13,-16.27 135.65,-17.82 144.81,-23.14 146.13,-16.27"/>
</a>
</g>
</g>
<!-- Node4 -->
<g id="Node000004" class="node">
<title>Node4</title>
<g id="a_Node000004"><a xlink:title=" ">
<polygon fill="#e0e0e0" stroke="#999999" points="219.62,-19.25 151.88,-19.25 151.88,0 219.62,0 219.62,-19.25"/>
<text text-anchor="middle" x="185.75" y="-5.75" font-family="Helvetica,sans-Serif" font-size="10.00">TDirectory.h</text>
</a>
</g>
</g>
<!-- Node1&#45;&gt;Node4 -->
<g id="edge3_Node000001_Node000004" class="edge">
<title>Node1&#45;&gt;Node4</title>
<g id="a_edge3_Node000001_Node000004"><a xlink:title=" ">
<path fill="none" stroke="#63b8ff" d="M368.43,-54.84C330.44,-45.65 271.52,-31.39 230.92,-21.56"/>
<polygon fill="#63b8ff" stroke="#63b8ff" points="232,-18.22 221.46,-19.27 230.36,-25.02 232,-18.22"/>
</a>
</g>
</g>
<!-- Node5 -->
<g id="Node000005" class="node">
<title>Node5</title>
<g id="a_Node000005"><a xlink:title=" ">
<polygon fill="#e0e0e0" stroke="#999999" points="283.38,-19.25 238.12,-19.25 238.12,0 283.38,0 283.38,-19.25"/>
<text text-anchor="middle" x="260.75" y="-5.75" font-family="Helvetica,sans-Serif" font-size="10.00">TFile.h</text>
</a>
</g>
</g>
<!-- Node1&#45;&gt;Node5 -->
<g id="edge4_Node000001_Node000005" class="edge">
<title>Node1&#45;&gt;Node5</title>
<g id="a_edge4_Node000001_Node000005"><a xlink:title=" ">
<path fill="none" stroke="#63b8ff" d="M381.15,-54.84C357.26,-46.07 320.79,-32.68 294.25,-22.93"/>
<polygon fill="#63b8ff" stroke="#63b8ff" points="295.57,-19.68 284.97,-19.52 293.15,-26.25 295.57,-19.68"/>
</a>
</g>
</g>
<!-- Node6 -->
<g id="Node000006" class="node">
<title>Node6</title>
<g id="a_Node000006"><a xlink:title=" ">
<polygon fill="#e0e0e0" stroke="#999999" points="347.75,-19.25 301.75,-19.25 301.75,0 347.75,0 347.75,-19.25"/>
<text text-anchor="middle" x="324.75" y="-5.75" font-family="Helvetica,sans-Serif" font-size="10.00">TKey.h</text>
</a>
</g>
</g>
<!-- Node1&#45;&gt;Node6 -->
<g id="edge5_Node000001_Node000006" class="edge">
<title>Node1&#45;&gt;Node6</title>
<g id="a_edge5_Node000001_Node000006"><a xlink:title=" ">
<path fill="none" stroke="#63b8ff" d="M392.01,-54.84C380.02,-46.96 362.38,-35.36 348.17,-26.02"/>
<polygon fill="#63b8ff" stroke="#63b8ff" points="350.1,-23.1 339.82,-20.53 346.26,-28.95 350.1,-23.1"/>
</a>
</g>
</g>
<!-- Node7 -->
<g id="Node000007" class="node">
<title>Node7</title>
<g id="a_Node000007"><a xlink:title=" ">
<polygon fill="#e0e0e0" stroke="#999999" points="445.62,-19.25 365.88,-19.25 365.88,0 445.62,0 445.62,-19.25"/>
<text text-anchor="middle" x="405.75" y="-5.75" font-family="Helvetica,sans-Serif" font-size="10.00">TTimeStamp.h</text>
</a>
</g>
</g>
<!-- Node1&#45;&gt;Node7 -->
<g id="edge6_Node000001_Node000007" class="edge">
<title>Node1&#45;&gt;Node7</title>
<g id="a_edge6_Node000001_Node000007"><a xlink:title=" ">
<path fill="none" stroke="#63b8ff" d="M405.75,-55.08C405.75,-48.57 405.75,-39.42 405.75,-31.12"/>
<polygon fill="#63b8ff" stroke="#63b8ff" points="409.25,-31.12 405.75,-21.12 402.25,-31.12 409.25,-31.12"/>
</a>
</g>
</g>
<!-- Node8 -->
<g id="Node000008" class="node">
<title>Node8</title>
<g id="a_Node000008"><a xlink:title=" ">
<polygon fill="#e0e0e0" stroke="#999999" points="539.38,-19.25 464.12,-19.25 464.12,0 539.38,0 539.38,-19.25"/>
<text text-anchor="middle" x="501.75" y="-5.75" font-family="Helvetica,sans-Serif" font-size="10.00">TFileMerger.h</text>
</a>
</g>
</g>
<!-- Node1&#45;&gt;Node8 -->
<g id="edge7_Node000001_Node000008" class="edge">
<title>Node1&#45;&gt;Node8</title>
<g id="a_edge7_Node000001_Node000008"><a xlink:title=" ">
<path fill="none" stroke="#63b8ff" d="M422.04,-54.84C436.65,-46.73 458.38,-34.68 475.46,-25.21"/>
<polygon fill="#63b8ff" stroke="#63b8ff" points="477.01,-28.35 484.06,-20.44 473.62,-22.23 477.01,-28.35"/>
</a>
</g>
</g>
<!-- Node9 -->
<g id="Node000009" class="node">
<title>Node9</title>
<g id="a_Node000009"><a xlink:title=" ">
<polygon fill="#e0e0e0" stroke="#999999" points="604.12,-19.25 557.38,-19.25 557.38,0 604.12,0 604.12,-19.25"/>
<text text-anchor="middle" x="580.75" y="-5.75" font-family="Helvetica,sans-Serif" font-size="10.00">TBits.h</text>
</a>
</g>
</g>
<!-- Node1&#45;&gt;Node9 -->
<g id="edge8_Node000001_Node000009" class="edge">
<title>Node1&#45;&gt;Node9</title>
<g id="a_edge8_Node000001_Node000009"><a xlink:title=" ">
<path fill="none" stroke="#63b8ff" d="M435.44,-54.84C466.14,-45.5 514.04,-30.92 546.37,-21.09"/>
<polygon fill="#63b8ff" stroke="#63b8ff" points="547.11,-24.52 555.66,-18.26 545.07,-17.82 547.11,-24.52"/>
</a>
</g>
</g>
<!-- Node10 -->
<g id="Node000010" class="node">
<title>Node10</title>
<g id="a_Node000010"><a xlink:title=" ">
<polygon fill="#e0e0e0" stroke="#999999" points="676.88,-19.25 622.62,-19.25 622.62,0 676.88,0 676.88,-19.25"/>
<text text-anchor="middle" x="649.75" y="-5.75" font-family="Helvetica,sans-Serif" font-size="10.00">TClass.h</text>
</a>
</g>
</g>
<!-- Node1&#45;&gt;Node10 -->
<g id="edge9_Node000001_Node000010" class="edge">
<title>Node1&#45;&gt;Node10</title>
<g id="a_edge9_Node000001_Node000010"><a xlink:title=" ">
<path fill="none" stroke="#63b8ff" d="M449.01,-54.77C488.55,-46.4 548.93,-33.49 611.07,-19.59"/>
<polygon fill="#63b8ff" stroke="#63b8ff" points="611.81,-23.02 620.81,-17.41 610.28,-16.19 611.81,-23.02"/>
</a>
</g>
</g>
<!-- Node11 -->
<g id="Node000011" class="node">
<title>Node11</title>
<g id="a_Node000011"><a xlink:title=" ">
<polygon fill="#e0e0e0" stroke="#999999" points="790.5,-19.25 695,-19.25 695,0 790.5,0 790.5,-19.25"/>
<text text-anchor="middle" x="742.75" y="-5.75" font-family="Helvetica,sans-Serif" font-size="10.00">TFileCacheWrite.h</text>
</a>
</g>
</g>
<!-- Node1&#45;&gt;Node11 -->
<g id="edge10_Node000001_Node000011" class="edge">
<title>Node1&#45;&gt;Node11</title>
<g id="a_edge10_Node000001_Node000011"><a xlink:title=" ">
<path fill="none" stroke="#63b8ff" d="M459.89,-55.32C521.02,-45.66 620.17,-29.99 683.38,-20.01"/>
<polygon fill="#63b8ff" stroke="#63b8ff" points="683.92,-23.46 693.25,-18.45 682.82,-16.55 683.92,-23.46"/>
</a>
</g>
</g>
<!-- Node12 -->
<g id="Node000012" class="node">
<title>Node12</title>
<g id="a_Node000012"><a xlink:title=" ">
<polygon fill="#e0e0e0" stroke="#999999" points="859.38,-19.25 808.12,-19.25 808.12,0 859.38,0 859.38,-19.25"/>
<text text-anchor="middle" x="833.75" y="-5.75" font-family="Helvetica,sans-Serif" font-size="10.00">TMath.h</text>
</a>
</g>
</g>
<!-- Node1&#45;&gt;Node12 -->
<g id="edge11_Node000001_Node000012" class="edge">
<title>Node1&#45;&gt;Node12</title>
<g id="a_edge11_Node000001_Node000012"><a xlink:title=" ">
<path fill="none" stroke="#63b8ff" d="M459.94,-60.08C533.98,-54.37 671.05,-41.98 796.51,-19.63"/>
<polygon fill="#63b8ff" stroke="#63b8ff" points="797.14,-23.08 806.35,-17.85 795.89,-16.19 797.14,-23.08"/>
</a>
</g>
</g>
</g>
</svg>
