<?xml version="1.0" encoding="UTF-8" standalone="no"?>
<!DOCTYPE svg PUBLIC "-//W3C//DTD SVG 1.1//EN"
 "http://www.w3.org/Graphics/SVG/1.1/DTD/svg11.dtd">
<!-- Generated by graphviz version 12.2.0 (20241103.1931)
 -->
<!-- Title: TRedirect.h Pages: 1 -->
<!--zoomable 138 -->

<svg id="main" version="1.1" xmlns="http://www.w3.org/2000/svg" xmlns:xlink="http://www.w3.org/1999/xlink" xml:space="preserve" onload="init(evt)">

<style type="text/css"><![CDATA[
.node, .edge {opacity: 0.7;}
.node.selected, .edge.selected {opacity: 1;}
.edge:hover path { stroke: red; }
.edge:hover polygon { stroke: red; fill: red; }
]]></style>

<defs>
  <circle id="rim" cx="0" cy="0" r="7"/>
  <circle id="rim2" cx="0" cy="0" r="3.5"/>
  <g id="zoomPlus">
    <use xlink:href="#rim" fill="#404040"><set attributeName="fill" to="#808080" begin="zoomplus.mouseover" end="zoomplus.mouseout"/></use>
    <path d="M-4,0h8M0,-4v8" fill="none" stroke="white" stroke-width="1.5" pointer-events="none"/>
  </g>
  <g id="zoomMin">
    <use xlink:href="#rim" fill="#404040"><set attributeName="fill" to="#808080" begin="zoomminus.mouseover" end="zoomminus.mouseout"/></use>
    <path d="M-4,0h8" fill="none" stroke="white" stroke-width="1.5" pointer-events="none"/>
  </g>
  <g id="arrowUp" transform="translate(30 24)">
    <use xlink:href="#rim"/>
    <path pointer-events="none" fill="none" stroke="white" stroke-width="1.5" d="M0,-3.0v7 M-2.5,-0.5L0,-3.0L2.5,-0.5"/>
  </g>
  <g id="arrowRight" transform="rotate(90) translate(36 -43)">
    <use xlink:href="#rim"/>
    <path pointer-events="none" fill="none" stroke="white" stroke-width="1.5" d="M0,-3.0v7 M-2.5,-0.5L0,-3.0L2.5,-0.5"/>
  </g>
  <g id="arrowDown" transform="rotate(180) translate(-30 -48)">
    <use xlink:href="#rim"/>
    <path pointer-events="none" fill="none" stroke="white" stroke-width="1.5" d="M0,-3.0v7 M-2.5,-0.5L0,-3.0L2.5,-0.5"/>
  </g>
  <g id="arrowLeft" transform="rotate(270) translate(-36 17)">
    <use xlink:href="#rim"/>
    <path pointer-events="none" fill="none" stroke="white" stroke-width="1.5" d="M0,-3.0v7 M-2.5,-0.5L0,-3.0L2.5,-0.5"/>
  </g>
  <g id="resetDef">
    <use xlink:href="#rim2" fill="#404040"><set attributeName="fill" to="#808080" begin="reset.mouseover" end="reset.mouseout"/></use>
  </g>
</defs>
<script type="application/ecmascript">
var viewWidth = 539;
var viewHeight = 138;
var sectionId = 'dynsection-1';
</script>
<script type="application/ecmascript" xlink:href="svg.min.js"/>
<svg id="graph" class="graph">
<g id="viewport">
<title>TRedirect.h</title>
<!-- Node1 -->
<g id="Node000001" class="node">
<title>Node1</title>
<g id="a_Node000001"><a xlink:title=" ">
<polygon fill="#999999" stroke="#666666" points="316.38,-129.75 250.88,-129.75 250.88,-110.5 316.38,-110.5 316.38,-129.75"/>
<text text-anchor="middle" x="283.62" y="-116.25" font-family="Helvetica,sans-Serif" font-size="10.00">TRedirect.h</text>
</a>
</g>
</g>
<!-- Node2 -->
<g id="Node000002" class="node">
<title>Node2</title>
<g id="a_Node000002"><a xlink:href="_angular_correlations_8cxx.html" target="_top" xlink:title=" ">
<polygon fill="white" stroke="#666666" points="117.25,-74.5 0,-74.5 0,-55.25 117.25,-55.25 117.25,-74.5"/>
<text text-anchor="middle" x="58.62" y="-61" font-family="Helvetica,sans-Serif" font-size="10.00">AngularCorrelations.cxx</text>
</a>
</g>
</g>
<!-- Node1&#45;&gt;Node2 -->
<g id="edge1_Node000001_Node000002" class="edge">
<title>Node1&#45;&gt;Node2</title>
<g id="a_edge1_Node000001_Node000002"><a xlink:title=" ">
<path fill="none" stroke="#63b8ff" d="M239.27,-108.63C197.73,-98.8 136.29,-84.26 96.86,-74.92"/>
<polygon fill="#63b8ff" stroke="#63b8ff" points="238.42,-112.02 248.95,-110.92 240.03,-105.21 238.42,-112.02"/>
</a>
</g>
</g>
<!-- Node3 -->
<g id="Node000003" class="node">
<title>Node3</title>
<g id="a_Node000003"><a xlink:href="_simulation_angular_correlation_8cxx.html" target="_top" xlink:title=" ">
<polygon fill="white" stroke="#666666" points="293.5,-74.5 135.75,-74.5 135.75,-55.25 293.5,-55.25 293.5,-74.5"/>
<text text-anchor="middle" x="214.62" y="-61" font-family="Helvetica,sans-Serif" font-size="10.00">SimulationAngularCorrelation.cxx</text>
</a>
</g>
</g>
<!-- Node1&#45;&gt;Node3 -->
<g id="edge2_Node000001_Node000003" class="edge">
<title>Node1&#45;&gt;Node3</title>
<g id="a_edge2_Node000001_Node000003"><a xlink:title=" ">
<path fill="none" stroke="#63b8ff" d="M262.98,-103.19C250.93,-93.89 236.18,-82.51 226.16,-74.77"/>
<polygon fill="#63b8ff" stroke="#63b8ff" points="260.67,-105.83 270.72,-109.17 264.94,-100.29 260.67,-105.83"/>
</a>
</g>
</g>
<!-- Node4 -->
<g id="Node000004" class="node">
<title>Node4</title>
<g id="a_Node000004"><a xlink:href="_t_g_r_s_i_frame_8h.html" target="_top" xlink:title=" ">
<polygon fill="white" stroke="#666666" points="393.25,-74.5 312,-74.5 312,-55.25 393.25,-55.25 393.25,-74.5"/>
<text text-anchor="middle" x="352.62" y="-61" font-family="Helvetica,sans-Serif" font-size="10.00">TGRSIFrame.h</text>
</a>
</g>
</g>
<!-- Node1&#45;&gt;Node4 -->
<g id="edge3_Node000001_Node000004" class="edge">
<title>Node1&#45;&gt;Node4</title>
<g id="a_edge3_Node000001_Node000004"><a xlink:title=" ">
<path fill="none" stroke="#63b8ff" d="M304.27,-103.19C316.32,-93.89 331.07,-82.51 341.09,-74.77"/>
<polygon fill="#63b8ff" stroke="#63b8ff" points="302.31,-100.29 296.53,-109.17 306.58,-105.83 302.31,-100.29"/>
</a>
</g>
</g>
<!-- Node7 -->
<g id="Node000007" class="node">
<title>Node7</title>
<g id="a_Node000007"><a xlink:href="_t_source_calibration_8h.html" target="_top" xlink:title=" ">
<polygon fill="white" stroke="#666666" points="522.62,-74.5 416.62,-74.5 416.62,-55.25 522.62,-55.25 522.62,-74.5"/>
<text text-anchor="middle" x="469.62" y="-61" font-family="Helvetica,sans-Serif" font-size="10.00">TSourceCalibration.h</text>
</a>
</g>
</g>
<!-- Node1&#45;&gt;Node7 -->
<g id="edge6_Node000001_Node000007" class="edge">
<title>Node1&#45;&gt;Node7</title>
<g id="a_edge6_Node000001_Node000007"><a xlink:title=" ">
<path fill="none" stroke="#63b8ff" d="M326.18,-106.94C360.2,-97.2 407.13,-83.77 437.92,-74.95"/>
<polygon fill="#63b8ff" stroke="#63b8ff" points="325.28,-103.56 316.63,-109.68 327.21,-110.29 325.28,-103.56"/>
</a>
</g>
</g>
<!-- Node5 -->
<g id="Node000005" class="node">
<title>Node5</title>
<g id="a_Node000005"><a xlink:href="_t_data_frame_library_8cxx.html" target="_top" xlink:title=" ">
<polygon fill="white" stroke="#666666" points="289.5,-19.25 173.75,-19.25 173.75,0 289.5,0 289.5,-19.25"/>
<text text-anchor="middle" x="231.62" y="-5.75" font-family="Helvetica,sans-Serif" font-size="10.00">TDataFrameLibrary.cxx</text>
</a>
</g>
</g>
<!-- Node4&#45;&gt;Node5 -->
<g id="edge4_Node000004_Node000005" class="edge">
<title>Node4&#45;&gt;Node5</title>
<g id="a_edge4_Node000004_Node000005"><a xlink:title=" ">
<path fill="none" stroke="#63b8ff" d="M321.71,-50.27C299.91,-40.68 271.32,-28.09 252.25,-19.7"/>
<polygon fill="#63b8ff" stroke="#63b8ff" points="320.15,-53.41 330.71,-54.23 322.97,-47 320.15,-53.41"/>
</a>
</g>
</g>
<!-- Node6 -->
<g id="Node000006" class="node">
<title>Node6</title>
<g id="a_Node000006"><a xlink:href="_t_g_r_s_i_frame_8cxx.html" target="_top" xlink:title=" ">
<polygon fill="white" stroke="#666666" points="397.75,-19.25 307.5,-19.25 307.5,0 397.75,0 397.75,-19.25"/>
<text text-anchor="middle" x="352.62" y="-5.75" font-family="Helvetica,sans-Serif" font-size="10.00">TGRSIFrame.cxx</text>
</a>
</g>
</g>
<!-- Node4&#45;&gt;Node6 -->
<g id="edge5_Node000004_Node000006" class="edge">
<title>Node4&#45;&gt;Node6</title>
<g id="a_edge5_Node000004_Node000006"><a xlink:title=" ">
<path fill="none" stroke="#63b8ff" d="M352.62,-43.63C352.62,-35.34 352.62,-26.17 352.62,-19.61"/>
<polygon fill="#63b8ff" stroke="#63b8ff" points="349.13,-43.57 352.63,-53.57 356.13,-43.57 349.13,-43.57"/>
</a>
</g>
</g>
<!-- Node8 -->
<g id="Node000008" class="node">
<title>Node8</title>
<g id="a_Node000008"><a xlink:href="_t_source_calibration_8cxx.html" target="_top" xlink:title=" ">
<polygon fill="white" stroke="#666666" points="531.12,-19.25 416.12,-19.25 416.12,0 531.12,0 531.12,-19.25"/>
<text text-anchor="middle" x="473.62" y="-5.75" font-family="Helvetica,sans-Serif" font-size="10.00">TSourceCalibration.cxx</text>
</a>
</g>
</g>
<!-- Node7&#45;&gt;Node8 -->
<g id="edge7_Node000007_Node000008" class="edge">
<title>Node7&#45;&gt;Node8</title>
<g id="a_edge7_Node000007_Node000008"><a xlink:title=" ">
<path fill="none" stroke="#63b8ff" d="M471.15,-43.63C471.77,-35.34 472.46,-26.17 472.95,-19.61"/>
<polygon fill="#63b8ff" stroke="#63b8ff" points="467.66,-43.34 470.4,-53.57 474.64,-43.86 467.66,-43.34"/>
</a>
</g>
</g>
</g>
</svg>

<g id="navigator" transform="translate(0 0)" fill="#404254">
  <rect fill="#f2f5e9" fill-opacity="0.5" stroke="#606060" stroke-width=".5" x="0" y="0" width="60" height="60"/>
  <use id="zoomplus" xlink:href="#zoomPlus" x="17" y="9" onmousedown="handleZoom(evt,'in')"/>
  <use id="zoomminus" xlink:href="#zoomMin" x="42" y="9" onmousedown="handleZoom(evt,'out')"/>
  <use id="reset" xlink:href="#resetDef" x="30" y="36" onmousedown="handleReset()"/>
   <use id="arrowup" xlink:href="#arrowUp" x="0" y="0" onmousedown="handlePan(0,-1)"/>
  <use id="arrowright" xlink:href="#arrowRight" x="0" y="0" onmousedown="handlePan(1,0)"/>
  <use id="arrowdown" xlink:href="#arrowDown" x="0" y="0" onmousedown="handlePan(0,1)"/>
  <use id="arrowleft" xlink:href="#arrowLeft" x="0" y="0" onmousedown="handlePan(-1,0)"/>
</g>
<svg viewBox="0 0 15 15" width="100%" height="30px" preserveAspectRatio="xMaxYMin meet">
 <g id="arrow_out" transform="scale(0.3 0.3)">
  <a xlink:href="_t_redirect_8h__dep__incl_org.svg" target="_base">
   <rect id="button" ry="5" rx="5" y="6" x="6" height="38" width="38"
        fill="#f2f5e9" fill-opacity="0.5" stroke="#606060" stroke-width="1.0"/>
   <path id="arrow"
     d="M 11.500037,31.436501 C 11.940474,20.09759 22.043105,11.32322 32.158766,21.979434 L 37.068811,17.246167 C 37.068811,17.246167 37.088388,32 37.088388,32 L 22.160133,31.978069 C 22.160133,31.978069 26.997745,27.140456 26.997745,27.140456 C 18.528582,18.264221 13.291696,25.230495 11.500037,31.436501 z"
     style="fill:#404040;"/>
  </a>
 </g>
</svg>

<style type='text/css'>
<![CDATA[
[data-mouse-over-selected='false'] { opacity: 0.7; }
[data-mouse-over-selected='true']  { opacity: 1.0; }
]]>
</style>
<script type="application/ecmascript"><![CDATA[
document.addEventListener('DOMContentLoaded', (event) => {
  highlightEdges();
  highlightAdjacentNodes();
});
]]></script>
</svg>
