<?xml version="1.0" encoding="UTF-8" standalone="no"?>
<!DOCTYPE svg PUBLIC "-//W3C//DTD SVG 1.1//EN"
 "http://www.w3.org/Graphics/SVG/1.1/DTD/svg11.dtd">
<!-- Generated by graphviz version 9.0.0 (20230911.1827)
 -->
<!-- Title: TRWPeak.h Pages: 1 -->
<svg width="474pt" height="83pt"
 viewBox="0.00 0.00 474.12 82.50" xmlns="http://www.w3.org/2000/svg" xmlns:xlink="http://www.w3.org/1999/xlink">

<svg id="main" version="1.1" xmlns="http://www.w3.org/2000/svg" xmlns:xlink="http://www.w3.org/1999/xlink" xml:space="preserve" onload="init(evt)">
<style type="text/css"><![CDATA[
.node, .edge {opacity: 0.7;}
.node.selected, .edge.selected {opacity: 1;}
.edge:hover path { stroke: red; }
.edge:hover polygon { stroke: red; fill: red; }
]]></style>
<script type="application/ecmascript" xlink:href="svg.min.js"/>
<svg id="graph" class="graph">
<g id="graph0" class="graph" transform="scale(1 1) rotate(0) translate(4 78.5)">
<title>TRWPeak.h</title>
<!-- Node1 -->
<g id="Node000001" class="node">
<title>Node1</title>
<g id="a_Node000001"><a xlink:title=" ">
<polygon fill="#999999" stroke="#666666" points="274.5,-74.5 206.75,-74.5 206.75,-55.25 274.5,-55.25 274.5,-74.5"/>
<text text-anchor="middle" x="240.62" y="-61" font-family="Helvetica,sans-Serif" font-size="10.00">TRWPeak.h</text>
</a>
</g>
</g>
<!-- Node2 -->
<g id="Node000002" class="node">
<title>Node2</title>
<g id="a_Node000002"><a xlink:href="_angular_correlations_8cxx.html" target="_top" xlink:title=" ">
<polygon fill="white" stroke="#666666" points="117.25,-19.25 0,-19.25 0,0 117.25,0 117.25,-19.25"/>
<text text-anchor="middle" x="58.62" y="-5.75" font-family="Helvetica,sans-Serif" font-size="10.00">AngularCorrelations.cxx</text>
</a>
</g>
</g>
<!-- Node1&#45;&gt;Node2 -->
<g id="edge1_Node000001_Node000002" class="edge">
<title>Node1&#45;&gt;Node2</title>
<g id="a_edge1_Node000001_Node000002"><a xlink:title=" ">
<path fill="none" stroke="#63b8ff" d="M198.99,-51.69C165.7,-41.95 119.77,-28.52 89.65,-19.7"/>
<polygon fill="#63b8ff" stroke="#63b8ff" points="197.72,-54.97 208.3,-54.42 199.68,-48.25 197.72,-54.97"/>
</a>
</g>
</g>
<!-- Node3 -->
<g id="Node000003" class="node">
<title>Node3</title>
<g id="a_Node000003"><a xlink:href="_t_b_g_subtraction_8cxx.html" target="_top" xlink:title=" ">
<polygon fill="white" stroke="#666666" points="237.75,-19.25 135.5,-19.25 135.5,0 237.75,0 237.75,-19.25"/>
<text text-anchor="middle" x="186.62" y="-5.75" font-family="Helvetica,sans-Serif" font-size="10.00">TBGSubtraction.cxx</text>
</a>
</g>
</g>
<!-- Node1&#45;&gt;Node3 -->
<g id="edge2_Node000001_Node000003" class="edge">
<title>Node1&#45;&gt;Node3</title>
<g id="a_edge2_Node000001_Node000003"><a xlink:title=" ">
<path fill="none" stroke="#63b8ff" d="M223.59,-47.07C214.36,-37.98 203.33,-27.1 195.74,-19.61"/>
<polygon fill="#63b8ff" stroke="#63b8ff" points="221.05,-49.49 230.63,-54.02 225.97,-44.51 221.05,-49.49"/>
</a>
</g>
</g>
<!-- Node4 -->
<g id="Node000004" class="node">
<title>Node4</title>
<g id="a_Node000004"><a xlink:href="_t_r_w_peak_8cxx.html" target="_top" xlink:title=" ">
<polygon fill="white" stroke="#666666" points="333,-19.25 256.25,-19.25 256.25,0 333,0 333,-19.25"/>
<text text-anchor="middle" x="294.62" y="-5.75" font-family="Helvetica,sans-Serif" font-size="10.00">TRWPeak.cxx</text>
</a>
</g>
</g>
<!-- Node1&#45;&gt;Node4 -->
<g id="edge3_Node000001_Node000004" class="edge">
<title>Node1&#45;&gt;Node4</title>
<g id="a_edge3_Node000001_Node000004"><a xlink:title=" ">
<path fill="none" stroke="#63b8ff" d="M257.66,-47.07C266.89,-37.98 277.92,-27.1 285.51,-19.61"/>
<polygon fill="#63b8ff" stroke="#63b8ff" points="255.28,-44.51 250.62,-54.02 260.2,-49.49 255.28,-44.51"/>
</a>
</g>
</g>
<!-- Node5 -->
<g id="Node000005" class="node">
<title>Node5</title>
<g id="a_Node000005"><a xlink:href="_t_source_calibration_8cxx.html" target="_top" xlink:title=" ">
<polygon fill="white" stroke="#666666" points="466.12,-19.25 351.12,-19.25 351.12,0 466.12,0 466.12,-19.25"/>
<text text-anchor="middle" x="408.62" y="-5.75" font-family="Helvetica,sans-Serif" font-size="10.00">TSourceCalibration.cxx</text>
</a>
</g>
</g>
<!-- Node1&#45;&gt;Node5 -->
<g id="edge4_Node000001_Node000005" class="edge">
<title>Node1&#45;&gt;Node5</title>
<g id="a_edge4_Node000001_Node000005"><a xlink:title=" ">
<path fill="none" stroke="#63b8ff" d="M279.86,-51.44C310.52,-41.72 352.42,-28.44 379.99,-19.7"/>
<polygon fill="#63b8ff" stroke="#63b8ff" points="279.04,-48.03 270.57,-54.38 281.16,-54.7 279.04,-48.03"/>
</a>
</g>
</g>
</g>
</svg>
</svg>

<style type='text/css'>
<![CDATA[
[data-mouse-over-selected='false'] { opacity: 0.7; }
[data-mouse-over-selected='true']  { opacity: 1.0; }
]]>
</style>
<script type="application/ecmascript"><![CDATA[
document.addEventListener('DOMContentLoaded', (event) => {
  highlightEdges();
  highlightAdjacentNodes();
});
]]></script>
</svg>
