<?xml version="1.0" encoding="UTF-8" standalone="no"?>
<!DOCTYPE svg PUBLIC "-//W3C//DTD SVG 1.1//EN"
 "http://www.w3.org/Graphics/SVG/1.1/DTD/svg11.dtd">
<!-- Generated by graphviz version 12.2.0 (20241103.1931)
 -->
<!-- Title: TSRIM.cxx Pages: 1 -->
<svg width="1491pt" height="138pt"
 viewBox="0.00 0.00 1490.50 137.75" xmlns="http://www.w3.org/2000/svg" xmlns:xlink="http://www.w3.org/1999/xlink">
<g id="graph0" class="graph" transform="scale(1 1) rotate(0) translate(4 133.75)">
<title>TSRIM.cxx</title>
<!-- Node1 -->
<g id="Node000001" class="node">
<title>Node1</title>
<g id="a_Node000001"><a xlink:title=" ">
<polygon fill="#999999" stroke="#666666" points="1195.12,-129.75 1131.88,-129.75 1131.88,-110.5 1195.12,-110.5 1195.12,-129.75"/>
<text text-anchor="middle" x="1163.5" y="-116.25" font-family="Helvetica,sans-Serif" font-size="10.00">TSRIM.cxx</text>
</a>
</g>
</g>
<!-- Node2 -->
<g id="Node000002" class="node">
<title>Node2</title>
<g id="a_Node000002"><a xlink:href="_t_s_r_i_m_8h.html" target="_top" xlink:title=" ">
<polygon fill="white" stroke="#666666" points="1190.62,-74.5 1136.38,-74.5 1136.38,-55.25 1190.62,-55.25 1190.62,-74.5"/>
<text text-anchor="middle" x="1163.5" y="-61" font-family="Helvetica,sans-Serif" font-size="10.00">TSRIM.h</text>
</a>
</g>
</g>
<!-- Node1&#45;&gt;Node2 -->
<g id="edge1_Node000001_Node000002" class="edge">
<title>Node1&#45;&gt;Node2</title>
<g id="a_edge1_Node000001_Node000002"><a xlink:title=" ">
<path fill="none" stroke="#63b8ff" d="M1163.5,-110.33C1163.5,-103.82 1163.5,-94.67 1163.5,-86.37"/>
<polygon fill="#63b8ff" stroke="#63b8ff" points="1167,-86.37 1163.5,-76.37 1160,-86.37 1167,-86.37"/>
</a>
</g>
</g>
<!-- Node8 -->
<g id="Node000008" class="node">
<title>Node8</title>
<g id="a_Node000008"><a xlink:href="_globals_8h.html" target="_top" xlink:title=" ">
<polygon fill="white" stroke="#666666" points="616.75,-74.5 560.25,-74.5 560.25,-55.25 616.75,-55.25 616.75,-74.5"/>
<text text-anchor="middle" x="588.5" y="-61" font-family="Helvetica,sans-Serif" font-size="10.00">Globals.h</text>
</a>
</g>
</g>
<!-- Node1&#45;&gt;Node8 -->
<g id="edge7_Node000001_Node000008" class="edge">
<title>Node1&#45;&gt;Node8</title>
<g id="a_edge7_Node000001_Node000008"><a xlink:title=" ">
<path fill="none" stroke="#63b8ff" d="M1131.77,-116.19C1033.85,-107.12 736.53,-79.58 628.38,-69.57"/>
<polygon fill="#63b8ff" stroke="#63b8ff" points="628.82,-66.09 618.54,-68.66 628.17,-73.06 628.82,-66.09"/>
</a>
</g>
</g>
<!-- Node13 -->
<g id="Node000013" class="node">
<title>Node13</title>
<g id="a_Node000013"><a xlink:title=" ">
<polygon fill="#e0e0e0" stroke="#999999" points="1064.62,-19.25 1022.38,-19.25 1022.38,0 1064.62,0 1064.62,-19.25"/>
<text text-anchor="middle" x="1043.5" y="-5.75" font-family="Helvetica,sans-Serif" font-size="10.00">cstdio</text>
</a>
</g>
</g>
<!-- Node1&#45;&gt;Node13 -->
<g id="edge32_Node000001_Node000013" class="edge">
<title>Node1&#45;&gt;Node13</title>
<g id="a_edge32_Node000001_Node000013"><a xlink:title=" ">
<path fill="none" stroke="#63b8ff" d="M1153.68,-110.25C1133.64,-92.13 1087.75,-50.63 1061.96,-27.32"/>
<polygon fill="#63b8ff" stroke="#63b8ff" points="1064.34,-24.75 1054.58,-20.64 1059.65,-29.94 1064.34,-24.75"/>
</a>
</g>
</g>
<!-- Node18 -->
<g id="Node000018" class="node">
<title>Node18</title>
<g id="a_Node000018"><a xlink:title=" ">
<polygon fill="#e0e0e0" stroke="#999999" points="1134.12,-19.25 1082.88,-19.25 1082.88,0 1134.12,0 1134.12,-19.25"/>
<text text-anchor="middle" x="1108.5" y="-5.75" font-family="Helvetica,sans-Serif" font-size="10.00">sstream</text>
</a>
</g>
</g>
<!-- Node1&#45;&gt;Node18 -->
<g id="edge30_Node000001_Node000018" class="edge">
<title>Node1&#45;&gt;Node18</title>
<g id="a_edge30_Node000001_Node000018"><a xlink:title=" ">
<path fill="none" stroke="#63b8ff" d="M1154.62,-110.31C1146.51,-101.81 1134.73,-88.25 1127.5,-74.5 1120.24,-60.69 1115.35,-43.7 1112.36,-30.71"/>
<polygon fill="#63b8ff" stroke="#63b8ff" points="1115.84,-30.27 1110.36,-21.21 1108.99,-31.71 1115.84,-30.27"/>
</a>
</g>
</g>
<!-- Node24 -->
<g id="Node000024" class="node">
<title>Node24</title>
<g id="a_Node000024"><a xlink:href="_t_g_r_s_i_utilities_8h.html" target="_top" xlink:title=" ">
<polygon fill="white" stroke="#666666" points="353.75,-74.5 267.25,-74.5 267.25,-55.25 353.75,-55.25 353.75,-74.5"/>
<text text-anchor="middle" x="310.5" y="-61" font-family="Helvetica,sans-Serif" font-size="10.00">TGRSIUtilities.h</text>
</a>
</g>
</g>
<!-- Node1&#45;&gt;Node24 -->
<g id="edge23_Node000001_Node000024" class="edge">
<title>Node1&#45;&gt;Node24</title>
<g id="a_edge23_Node000001_Node000024"><a xlink:title=" ">
<path fill="none" stroke="#63b8ff" d="M1131.62,-117.13C1003.8,-109.16 527.56,-79.43 365.16,-69.29"/>
<polygon fill="#63b8ff" stroke="#63b8ff" points="365.73,-65.82 355.53,-68.69 365.29,-72.8 365.73,-65.82"/>
</a>
</g>
</g>
<!-- Node26 -->
<g id="Node000026" class="node">
<title>Node26</title>
<g id="a_Node000026"><a xlink:title=" ">
<polygon fill="#e0e0e0" stroke="#999999" points="1260.12,-74.5 1208.88,-74.5 1208.88,-55.25 1260.12,-55.25 1260.12,-74.5"/>
<text text-anchor="middle" x="1234.5" y="-61" font-family="Helvetica,sans-Serif" font-size="10.00">TMath.h</text>
</a>
</g>
</g>
<!-- Node1&#45;&gt;Node26 -->
<g id="edge27_Node000001_Node000026" class="edge">
<title>Node1&#45;&gt;Node26</title>
<g id="a_edge27_Node000001_Node000026"><a xlink:title=" ">
<path fill="none" stroke="#63b8ff" d="M1175.54,-110.09C1185.91,-102.32 1201.1,-90.92 1213.47,-81.65"/>
<polygon fill="#63b8ff" stroke="#63b8ff" points="1215.52,-84.48 1221.42,-75.68 1211.32,-78.88 1215.52,-84.48"/>
</a>
</g>
</g>
<!-- Node27 -->
<g id="Node000027" class="node">
<title>Node27</title>
<g id="a_Node000027"><a xlink:title=" ">
<polygon fill="#e0e0e0" stroke="#999999" points="1326.62,-74.5 1278.38,-74.5 1278.38,-55.25 1326.62,-55.25 1326.62,-74.5"/>
<text text-anchor="middle" x="1302.5" y="-61" font-family="Helvetica,sans-Serif" font-size="10.00">TAxis.h</text>
</a>
</g>
</g>
<!-- Node1&#45;&gt;Node27 -->
<g id="edge28_Node000001_Node000027" class="edge">
<title>Node1&#45;&gt;Node27</title>
<g id="a_edge28_Node000001_Node000027"><a xlink:title=" ">
<path fill="none" stroke="#63b8ff" d="M1187.08,-110.09C1209.34,-101.56 1242.99,-88.67 1268.22,-79.01"/>
<polygon fill="#63b8ff" stroke="#63b8ff" points="1269.31,-82.34 1277.39,-75.49 1266.8,-75.8 1269.31,-82.34"/>
</a>
</g>
</g>
<!-- Node28 -->
<g id="Node000028" class="node">
<title>Node28</title>
<g id="a_Node000028"><a xlink:title=" ">
<polygon fill="#e0e0e0" stroke="#999999" points="1388,-74.5 1345,-74.5 1345,-55.25 1388,-55.25 1388,-74.5"/>
<text text-anchor="middle" x="1366.5" y="-61" font-family="Helvetica,sans-Serif" font-size="10.00">cmath</text>
</a>
</g>
</g>
<!-- Node1&#45;&gt;Node28 -->
<g id="edge29_Node000001_Node000028" class="edge">
<title>Node1&#45;&gt;Node28</title>
<g id="a_edge29_Node000001_Node000028"><a xlink:title=" ">
<path fill="none" stroke="#63b8ff" d="M1195.56,-110.99C1227.98,-102.72 1279.79,-89.39 1333.97,-74.87"/>
<polygon fill="#63b8ff" stroke="#63b8ff" points="1334.62,-78.32 1343.37,-72.35 1332.81,-71.56 1334.62,-78.32"/>
</a>
</g>
</g>
<!-- Node29 -->
<g id="Node000029" class="node">
<title>Node29</title>
<g id="a_Node000029"><a xlink:title=" ">
<polygon fill="#e0e0e0" stroke="#999999" points="1482.5,-74.5 1406.5,-74.5 1406.5,-55.25 1482.5,-55.25 1482.5,-74.5"/>
<text text-anchor="middle" x="1444.5" y="-61" font-family="Helvetica,sans-Serif" font-size="10.00">TStopwatch.h</text>
</a>
</g>
</g>
<!-- Node1&#45;&gt;Node29 -->
<g id="edge31_Node000001_Node000029" class="edge">
<title>Node1&#45;&gt;Node29</title>
<g id="a_edge31_Node000001_Node000029"><a xlink:title=" ">
<path fill="none" stroke="#63b8ff" d="M1195.46,-113.07C1244.28,-103.82 1337.8,-86.1 1395.31,-75.2"/>
<polygon fill="#63b8ff" stroke="#63b8ff" points="1395.65,-78.7 1404.82,-73.39 1394.34,-71.82 1395.65,-78.7"/>
</a>
</g>
</g>
<!-- Node3 -->
<g id="Node000003" class="node">
<title>Node3</title>
<g id="a_Node000003"><a xlink:title=" ">
<polygon fill="#e0e0e0" stroke="#999999" points="1004,-19.25 961,-19.25 961,0 1004,0 1004,-19.25"/>
<text text-anchor="middle" x="982.5" y="-5.75" font-family="Helvetica,sans-Serif" font-size="10.00">vector</text>
</a>
</g>
</g>
<!-- Node2&#45;&gt;Node3 -->
<g id="edge2_Node000002_Node000003" class="edge">
<title>Node2&#45;&gt;Node3</title>
<g id="a_edge2_Node000002_Node000003"><a xlink:title=" ">
<path fill="none" stroke="#63b8ff" d="M1136.01,-55.79C1103.58,-46.25 1049.72,-30.4 1015.18,-20.24"/>
<polygon fill="#63b8ff" stroke="#63b8ff" points="1016.3,-16.92 1005.72,-17.46 1014.33,-23.64 1016.3,-16.92"/>
</a>
</g>
</g>
<!-- Node4 -->
<g id="Node000004" class="node">
<title>Node4</title>
<g id="a_Node000004"><a xlink:title=" ">
<polygon fill="#e0e0e0" stroke="#999999" points="1261.88,-19.25 1227.12,-19.25 1227.12,0 1261.88,0 1261.88,-19.25"/>
<text text-anchor="middle" x="1244.5" y="-5.75" font-family="Helvetica,sans-Serif" font-size="10.00">map</text>
</a>
</g>
</g>
<!-- Node2&#45;&gt;Node4 -->
<g id="edge3_Node000002_Node000004" class="edge">
<title>Node2&#45;&gt;Node4</title>
<g id="a_edge3_Node000002_Node000004"><a xlink:title=" ">
<path fill="none" stroke="#63b8ff" d="M1177.24,-54.84C1189.23,-46.96 1206.87,-35.36 1221.08,-26.02"/>
<polygon fill="#63b8ff" stroke="#63b8ff" points="1222.99,-28.95 1229.43,-20.53 1219.15,-23.1 1222.99,-28.95"/>
</a>
</g>
</g>
<!-- Node5 -->
<g id="Node000005" class="node">
<title>Node5</title>
<g id="a_Node000005"><a xlink:title=" ">
<polygon fill="#e0e0e0" stroke="#999999" points="1318.75,-19.25 1280.25,-19.25 1280.25,0 1318.75,0 1318.75,-19.25"/>
<text text-anchor="middle" x="1299.5" y="-5.75" font-family="Helvetica,sans-Serif" font-size="10.00">utility</text>
</a>
</g>
</g>
<!-- Node2&#45;&gt;Node5 -->
<g id="edge4_Node000002_Node000005" class="edge">
<title>Node2&#45;&gt;Node5</title>
<g id="a_edge4_Node000002_Node000005"><a xlink:title=" ">
<path fill="none" stroke="#63b8ff" d="M1186.57,-54.84C1209.31,-45.94 1244.18,-32.29 1269.15,-22.51"/>
<polygon fill="#63b8ff" stroke="#63b8ff" points="1270.41,-25.77 1278.44,-18.87 1267.86,-19.26 1270.41,-25.77"/>
</a>
</g>
</g>
<!-- Node6 -->
<g id="Node000006" class="node">
<title>Node6</title>
<g id="a_Node000006"><a xlink:title=" ">
<polygon fill="#e0e0e0" stroke="#999999" points="1392.38,-19.25 1336.62,-19.25 1336.62,0 1392.38,0 1392.38,-19.25"/>
<text text-anchor="middle" x="1364.5" y="-5.75" font-family="Helvetica,sans-Serif" font-size="10.00">TGraph.h</text>
</a>
</g>
</g>
<!-- Node2&#45;&gt;Node6 -->
<g id="edge5_Node000002_Node000006" class="edge">
<title>Node2&#45;&gt;Node6</title>
<g id="a_edge5_Node000002_Node000006"><a xlink:title=" ">
<path fill="none" stroke="#63b8ff" d="M1191.03,-56.58C1225.77,-47.38 1285.74,-31.49 1325.27,-21.02"/>
<polygon fill="#63b8ff" stroke="#63b8ff" points="1326.1,-24.42 1334.87,-18.47 1324.31,-17.65 1326.1,-24.42"/>
</a>
</g>
</g>
<!-- Node7 -->
<g id="Node000007" class="node">
<title>Node7</title>
<g id="a_Node000007"><a xlink:title=" ">
<polygon fill="#e0e0e0" stroke="#999999" points="1208.75,-19.25 1152.25,-19.25 1152.25,0 1208.75,0 1208.75,-19.25"/>
<text text-anchor="middle" x="1180.5" y="-5.75" font-family="Helvetica,sans-Serif" font-size="10.00">TSpline.h</text>
</a>
</g>
</g>
<!-- Node2&#45;&gt;Node7 -->
<g id="edge6_Node000002_Node000007" class="edge">
<title>Node2&#45;&gt;Node7</title>
<g id="a_edge6_Node000002_Node000007"><a xlink:title=" ">
<path fill="none" stroke="#63b8ff" d="M1166.31,-55.08C1168.44,-48.42 1171.44,-38.99 1174.14,-30.53"/>
<polygon fill="#63b8ff" stroke="#63b8ff" points="1177.46,-31.64 1177.17,-21.05 1170.8,-29.51 1177.46,-31.64"/>
</a>
</g>
</g>
<!-- Node9 -->
<g id="Node000009" class="node">
<title>Node9</title>
<g id="a_Node000009"><a xlink:title=" ">
<polygon fill="#e0e0e0" stroke="#999999" points="875.25,-19.25 821.75,-19.25 821.75,0 875.25,0 875.25,-19.25"/>
<text text-anchor="middle" x="848.5" y="-5.75" font-family="Helvetica,sans-Serif" font-size="10.00">iostream</text>
</a>
</g>
</g>
<!-- Node8&#45;&gt;Node9 -->
<g id="edge8_Node000008_Node000009" class="edge">
<title>Node8&#45;&gt;Node9</title>
<g id="a_edge8_Node000008_Node000009"><a xlink:title=" ">
<path fill="none" stroke="#63b8ff" d="M617.22,-58.52C657.9,-50.86 734.92,-36.06 810.3,-19.67"/>
<polygon fill="#63b8ff" stroke="#63b8ff" points="810.9,-23.12 819.92,-17.56 809.4,-16.28 810.9,-23.12"/>
</a>
</g>
</g>
<!-- Node10 -->
<g id="Node000010" class="node">
<title>Node10</title>
<g id="a_Node000010"><a xlink:title=" ">
<polygon fill="#e0e0e0" stroke="#999999" points="943.38,-19.25 893.62,-19.25 893.62,0 943.38,0 943.38,-19.25"/>
<text text-anchor="middle" x="918.5" y="-5.75" font-family="Helvetica,sans-Serif" font-size="10.00">iomanip</text>
</a>
</g>
</g>
<!-- Node8&#45;&gt;Node10 -->
<g id="edge9_Node000008_Node000010" class="edge">
<title>Node8&#45;&gt;Node10</title>
<g id="a_edge9_Node000008_Node000010"><a xlink:title=" ">
<path fill="none" stroke="#63b8ff" d="M617.24,-60.5C668.45,-54.28 779.06,-39.93 882.08,-19.56"/>
<polygon fill="#63b8ff" stroke="#63b8ff" points="882.71,-23 891.83,-17.61 881.34,-16.14 882.71,-23"/>
</a>
</g>
</g>
<!-- Node11 -->
<g id="Node000011" class="node">
<title>Node11</title>
<g id="a_Node000011"><a xlink:title=" ">
<polygon fill="#e0e0e0" stroke="#999999" points="183.5,-19.25 125.5,-19.25 125.5,0 183.5,0 183.5,-19.25"/>
<text text-anchor="middle" x="154.5" y="-5.75" font-family="Helvetica,sans-Serif" font-size="10.00">stdexcept</text>
</a>
</g>
</g>
<!-- Node8&#45;&gt;Node11 -->
<g id="edge10_Node000008_Node000011" class="edge">
<title>Node8&#45;&gt;Node11</title>
<g id="a_edge10_Node000008_Node000011"><a xlink:title=" ">
<path fill="none" stroke="#63b8ff" d="M560.02,-61.76C496.37,-56.79 337.61,-43.12 195,-19.5"/>
<polygon fill="#63b8ff" stroke="#63b8ff" points="195.83,-16.09 185.39,-17.89 194.67,-22.99 195.83,-16.09"/>
</a>
</g>
</g>
<!-- Node12 -->
<g id="Node000012" class="node">
<title>Node12</title>
<g id="a_Node000012"><a xlink:title=" ">
<polygon fill="#e0e0e0" stroke="#999999" points="107.5,-19.25 67.5,-19.25 67.5,0 107.5,0 107.5,-19.25"/>
<text text-anchor="middle" x="87.5" y="-5.75" font-family="Helvetica,sans-Serif" font-size="10.00">string</text>
</a>
</g>
</g>
<!-- Node8&#45;&gt;Node12 -->
<g id="edge11_Node000008_Node000012" class="edge">
<title>Node8&#45;&gt;Node12</title>
<g id="a_edge11_Node000008_Node000012"><a xlink:title=" ">
<path fill="none" stroke="#63b8ff" d="M559.76,-63.1C487.26,-60.75 291.02,-51.83 119.25,-19.42"/>
<polygon fill="#63b8ff" stroke="#63b8ff" points="119.94,-15.99 109.46,-17.54 118.62,-22.86 119.94,-15.99"/>
</a>
</g>
</g>
<!-- Node8&#45;&gt;Node13 -->
<g id="edge12_Node000008_Node000013" class="edge">
<title>Node8&#45;&gt;Node13</title>
<g id="a_edge12_Node000008_Node000013"><a xlink:title=" ">
<path fill="none" stroke="#63b8ff" d="M617.11,-62.6C684.33,-59.25 857.65,-48.48 1010.98,-19.42"/>
<polygon fill="#63b8ff" stroke="#63b8ff" points="1011.34,-22.92 1020.49,-17.59 1010.01,-16.05 1011.34,-22.92"/>
</a>
</g>
</g>
<!-- Node14 -->
<g id="Node000014" class="node">
<title>Node14</title>
<g id="a_Node000014"><a xlink:title=" ">
<polygon fill="#e0e0e0" stroke="#999999" points="247.12,-19.25 201.88,-19.25 201.88,0 247.12,0 247.12,-19.25"/>
<text text-anchor="middle" x="224.5" y="-5.75" font-family="Helvetica,sans-Serif" font-size="10.00">cstdint</text>
</a>
</g>
</g>
<!-- Node8&#45;&gt;Node14 -->
<g id="edge13_Node000008_Node000014" class="edge">
<title>Node8&#45;&gt;Node14</title>
<g id="a_edge13_Node000008_Node000014"><a xlink:title=" ">
<path fill="none" stroke="#63b8ff" d="M559.87,-61.29C503.86,-55.96 375.75,-42.46 258.44,-19.39"/>
<polygon fill="#63b8ff" stroke="#63b8ff" points="259.46,-16.03 248.97,-17.5 258.09,-22.89 259.46,-16.03"/>
</a>
</g>
</g>
<!-- Node15 -->
<g id="Node000015" class="node">
<title>Node15</title>
<g id="a_Node000015"><a xlink:title=" ">
<polygon fill="#e0e0e0" stroke="#999999" points="309.75,-19.25 265.25,-19.25 265.25,0 309.75,0 309.75,-19.25"/>
<text text-anchor="middle" x="287.5" y="-5.75" font-family="Helvetica,sans-Serif" font-size="10.00">cstdlib</text>
</a>
</g>
</g>
<!-- Node8&#45;&gt;Node15 -->
<g id="edge14_Node000008_Node000015" class="edge">
<title>Node8&#45;&gt;Node15</title>
<g id="a_edge14_Node000008_Node000015"><a xlink:title=" ">
<path fill="none" stroke="#63b8ff" d="M559.93,-60.18C512.38,-53.82 413.81,-39.69 321.36,-19.69"/>
<polygon fill="#63b8ff" stroke="#63b8ff" points="322.11,-16.27 311.59,-17.54 320.61,-23.11 322.11,-16.27"/>
</a>
</g>
</g>
<!-- Node16 -->
<g id="Node000016" class="node">
<title>Node16</title>
<g id="a_Node000016"><a xlink:title=" ">
<polygon fill="#e0e0e0" stroke="#999999" points="387.25,-19.25 327.75,-19.25 327.75,0 387.25,0 387.25,-19.25"/>
<text text-anchor="middle" x="357.5" y="-5.75" font-family="Helvetica,sans-Serif" font-size="10.00">execinfo.h</text>
</a>
</g>
</g>
<!-- Node8&#45;&gt;Node16 -->
<g id="edge15_Node000008_Node000016" class="edge">
<title>Node8&#45;&gt;Node16</title>
<g id="a_edge15_Node000008_Node000016"><a xlink:title=" ">
<path fill="none" stroke="#63b8ff" d="M560.17,-57.35C519.75,-48.03 445.25,-30.85 398.71,-20.13"/>
<polygon fill="#63b8ff" stroke="#63b8ff" points="399.53,-16.72 389,-17.89 397.95,-23.54 399.53,-16.72"/>
</a>
</g>
</g>
<!-- Node17 -->
<g id="Node000017" class="node">
<title>Node17</title>
<g id="a_Node000017"><a xlink:title=" ">
<polygon fill="#e0e0e0" stroke="#999999" points="455.75,-19.25 405.25,-19.25 405.25,0 455.75,0 455.75,-19.25"/>
<text text-anchor="middle" x="430.5" y="-5.75" font-family="Helvetica,sans-Serif" font-size="10.00">cxxabi.h</text>
</a>
</g>
</g>
<!-- Node8&#45;&gt;Node17 -->
<g id="edge16_Node000008_Node000017" class="edge">
<title>Node8&#45;&gt;Node17</title>
<g id="a_edge16_Node000008_Node000017"><a xlink:title=" ">
<path fill="none" stroke="#63b8ff" d="M561.7,-54.84C535.66,-46.07 495.93,-32.68 467.01,-22.93"/>
<polygon fill="#63b8ff" stroke="#63b8ff" points="468.15,-19.62 457.56,-19.74 465.92,-26.25 468.15,-19.62"/>
</a>
</g>
</g>
<!-- Node8&#45;&gt;Node18 -->
<g id="edge17_Node000008_Node000018" class="edge">
<title>Node8&#45;&gt;Node18</title>
<g id="a_edge17_Node000008_Node000018"><a xlink:title=" ">
<path fill="none" stroke="#63b8ff" d="M617.12,-62.74C690.81,-59.5 893.2,-48.61 1071.43,-19.33"/>
<polygon fill="#63b8ff" stroke="#63b8ff" points="1071.82,-22.82 1081.1,-17.72 1070.66,-15.91 1071.82,-22.82"/>
</a>
</g>
</g>
<!-- Node19 -->
<g id="Node000019" class="node">
<title>Node19</title>
<g id="a_Node000019"><a xlink:title=" ">
<polygon fill="#e0e0e0" stroke="#999999" points="511,-19.25 474,-19.25 474,0 511,0 511,-19.25"/>
<text text-anchor="middle" x="492.5" y="-5.75" font-family="Helvetica,sans-Serif" font-size="10.00">array</text>
</a>
</g>
</g>
<!-- Node8&#45;&gt;Node19 -->
<g id="edge18_Node000008_Node000019" class="edge">
<title>Node8&#45;&gt;Node19</title>
<g id="a_edge18_Node000008_Node000019"><a xlink:title=" ">
<path fill="none" stroke="#63b8ff" d="M572.21,-54.84C557.6,-46.73 535.87,-34.68 518.79,-25.21"/>
<polygon fill="#63b8ff" stroke="#63b8ff" points="520.63,-22.23 510.19,-20.44 517.24,-28.35 520.63,-22.23"/>
</a>
</g>
</g>
<!-- Node20 -->
<g id="Node000020" class="node">
<title>Node20</title>
<g id="a_Node000020"><a xlink:title=" ">
<polygon fill="#e0e0e0" stroke="#999999" points="579.75,-19.25 529.25,-19.25 529.25,0 579.75,0 579.75,-19.25"/>
<text text-anchor="middle" x="554.5" y="-5.75" font-family="Helvetica,sans-Serif" font-size="10.00">memory</text>
</a>
</g>
</g>
<!-- Node8&#45;&gt;Node20 -->
<g id="edge19_Node000008_Node000020" class="edge">
<title>Node8&#45;&gt;Node20</title>
<g id="a_edge19_Node000008_Node000020"><a xlink:title=" ">
<path fill="none" stroke="#63b8ff" d="M582.89,-55.08C578.38,-48.03 571.91,-37.9 566.29,-29.08"/>
<polygon fill="#63b8ff" stroke="#63b8ff" points="569.38,-27.43 561.05,-20.88 563.48,-31.2 569.38,-27.43"/>
</a>
</g>
</g>
<!-- Node21 -->
<g id="Node000021" class="node">
<title>Node21</title>
<g id="a_Node000021"><a xlink:title=" ">
<polygon fill="#e0e0e0" stroke="#999999" points="647.38,-19.25 597.62,-19.25 597.62,0 647.38,0 647.38,-19.25"/>
<text text-anchor="middle" x="622.5" y="-5.75" font-family="Helvetica,sans-Serif" font-size="10.00">unistd.h</text>
</a>
</g>
</g>
<!-- Node8&#45;&gt;Node21 -->
<g id="edge20_Node000008_Node000021" class="edge">
<title>Node8&#45;&gt;Node21</title>
<g id="a_edge20_Node000008_Node000021"><a xlink:title=" ">
<path fill="none" stroke="#63b8ff" d="M594.11,-55.08C598.62,-48.03 605.09,-37.9 610.71,-29.08"/>
<polygon fill="#63b8ff" stroke="#63b8ff" points="613.52,-31.2 615.95,-20.88 607.62,-27.43 613.52,-31.2"/>
</a>
</g>
</g>
<!-- Node22 -->
<g id="Node000022" class="node">
<title>Node22</title>
<g id="a_Node000022"><a xlink:title=" ">
<polygon fill="#e0e0e0" stroke="#999999" points="725.25,-19.25 665.75,-19.25 665.75,0 725.25,0 725.25,-19.25"/>
<text text-anchor="middle" x="695.5" y="-5.75" font-family="Helvetica,sans-Serif" font-size="10.00">sys/wait.h</text>
</a>
</g>
</g>
<!-- Node8&#45;&gt;Node22 -->
<g id="edge21_Node000008_Node000022" class="edge">
<title>Node8&#45;&gt;Node22</title>
<g id="a_edge21_Node000008_Node000022"><a xlink:title=" ">
<path fill="none" stroke="#63b8ff" d="M606.65,-54.84C623.18,-46.62 647.84,-34.34 667,-24.81"/>
<polygon fill="#63b8ff" stroke="#63b8ff" points="668.51,-27.97 675.9,-20.38 665.39,-21.7 668.51,-27.97"/>
</a>
</g>
</g>
<!-- Node23 -->
<g id="Node000023" class="node">
<title>Node23</title>
<g id="a_Node000023"><a xlink:title=" ">
<polygon fill="#e0e0e0" stroke="#999999" points="803.62,-19.25 743.38,-19.25 743.38,0 803.62,0 803.62,-19.25"/>
<text text-anchor="middle" x="773.5" y="-5.75" font-family="Helvetica,sans-Serif" font-size="10.00">sys/prctl.h</text>
</a>
</g>
</g>
<!-- Node8&#45;&gt;Node23 -->
<g id="edge22_Node000008_Node000023" class="edge">
<title>Node8&#45;&gt;Node23</title>
<g id="a_edge22_Node000008_Node000023"><a xlink:title=" ">
<path fill="none" stroke="#63b8ff" d="M617,-55.67C647.82,-46.8 697.24,-32.58 732.29,-22.49"/>
<polygon fill="#63b8ff" stroke="#63b8ff" points="733.02,-25.92 741.67,-19.79 731.09,-19.19 733.02,-25.92"/>
</a>
</g>
</g>
<!-- Node24&#45;&gt;Node3 -->
<g id="edge26_Node000024_Node000003" class="edge">
<title>Node24&#45;&gt;Node3</title>
<g id="a_edge26_Node000024_Node000003"><a xlink:title=" ">
<path fill="none" stroke="#63b8ff" d="M354.05,-62.05C475.43,-56.76 816.88,-40.59 949.61,-19.35"/>
<polygon fill="#63b8ff" stroke="#63b8ff" points="949.9,-22.85 959.18,-17.73 948.73,-15.94 949.9,-22.85"/>
</a>
</g>
</g>
<!-- Node24&#45;&gt;Node12 -->
<g id="edge25_Node000024_Node000012" class="edge">
<title>Node24&#45;&gt;Node12</title>
<g id="a_edge25_Node000024_Node000012"><a xlink:title=" ">
<path fill="none" stroke="#63b8ff" d="M267.54,-54.81C230.49,-46.81 175.32,-34.46 118.7,-19.7"/>
<polygon fill="#63b8ff" stroke="#63b8ff" points="119.76,-16.36 109.2,-17.21 117.98,-23.13 119.76,-16.36"/>
</a>
</g>
</g>
<!-- Node25 -->
<g id="Node000025" class="node">
<title>Node25</title>
<g id="a_Node000025"><a xlink:title=" ">
<polygon fill="#e0e0e0" stroke="#999999" points="49,-19.25 0,-19.25 0,0 49,0 49,-19.25"/>
<text text-anchor="middle" x="24.5" y="-5.75" font-family="Helvetica,sans-Serif" font-size="10.00">fstream</text>
</a>
</g>
</g>
<!-- Node24&#45;&gt;Node25 -->
<g id="edge24_Node000024_Node000025" class="edge">
<title>Node24&#45;&gt;Node25</title>
<g id="a_edge24_Node000024_Node000025"><a xlink:title=" ">
<path fill="none" stroke="#63b8ff" d="M267.06,-57.17C218.95,-49.53 138.86,-36.17 60.39,-19.52"/>
<polygon fill="#63b8ff" stroke="#63b8ff" points="61.32,-16.14 50.81,-17.47 59.86,-22.98 61.32,-16.14"/>
</a>
</g>
</g>
</g>
</svg>
