<?xml version="1.0" encoding="UTF-8" standalone="no"?>
<!DOCTYPE svg PUBLIC "-//W3C//DTD SVG 1.1//EN"
 "http://www.w3.org/Graphics/SVG/1.1/DTD/svg11.dtd">
<!-- Generated by graphviz version 9.0.0 (20230911.1827)
 -->
<!-- Title: TScaler.h Pages: 1 -->
<!--zoomable 359 -->

<svg id="main" version="1.1" xmlns="http://www.w3.org/2000/svg" xmlns:xlink="http://www.w3.org/1999/xlink" xml:space="preserve" onload="init(evt)">
<style type="text/css"><![CDATA[
.node, .edge {opacity: 0.7;}
.node.selected, .edge.selected {opacity: 1;}
.edge:hover path { stroke: red; }
.edge:hover polygon { stroke: red; fill: red; }
]]></style>

<defs>
  <circle id="rim" cx="0" cy="0" r="7"/>
  <circle id="rim2" cx="0" cy="0" r="3.5"/>
  <g id="zoomPlus">
    <use xlink:href="#rim" fill="#404040"><set attributeName="fill" to="#808080" begin="zoomplus.mouseover" end="zoomplus.mouseout"/></use>
    <path d="M-4,0h8M0,-4v8" fill="none" stroke="white" stroke-width="1.5" pointer-events="none"/>
  </g>
  <g id="zoomMin">
    <use xlink:href="#rim" fill="#404040"><set attributeName="fill" to="#808080" begin="zoomminus.mouseover" end="zoomminus.mouseout"/></use>
    <path d="M-4,0h8" fill="none" stroke="white" stroke-width="1.5" pointer-events="none"/>
  </g>
  <g id="arrowUp" transform="translate(30 24)">
    <use xlink:href="#rim"/>
    <path pointer-events="none" fill="none" stroke="white" stroke-width="1.5" d="M0,-3.0v7 M-2.5,-0.5L0,-3.0L2.5,-0.5"/>
  </g>
  <g id="arrowRight" transform="rotate(90) translate(36 -43)">
    <use xlink:href="#rim"/>
    <path pointer-events="none" fill="none" stroke="white" stroke-width="1.5" d="M0,-3.0v7 M-2.5,-0.5L0,-3.0L2.5,-0.5"/>
  </g>
  <g id="arrowDown" transform="rotate(180) translate(-30 -48)">
    <use xlink:href="#rim"/>
    <path pointer-events="none" fill="none" stroke="white" stroke-width="1.5" d="M0,-3.0v7 M-2.5,-0.5L0,-3.0L2.5,-0.5"/>
  </g>
  <g id="arrowLeft" transform="rotate(270) translate(-36 17)">
    <use xlink:href="#rim"/>
    <path pointer-events="none" fill="none" stroke="white" stroke-width="1.5" d="M0,-3.0v7 M-2.5,-0.5L0,-3.0L2.5,-0.5"/>
  </g>
  <g id="resetDef">
    <use xlink:href="#rim2" fill="#404040"><set attributeName="fill" to="#808080" begin="reset.mouseover" end="reset.mouseout"/></use>
  </g>
</defs>
<script type="application/ecmascript">
var viewWidth = 1322;
var viewHeight = 359;
var sectionId = 'dynsection-1';
</script>
<script type="application/ecmascript" xlink:href="svg.min.js"/>
<svg id="graph" class="graph">
<g id="viewport">
<title>TScaler.h</title>
<!-- Node1 -->
<g id="Node000001" class="node">
<title>Node1</title>
<g id="a_Node000001"><a xlink:title=" ">
<polygon fill="#999999" stroke="#666666" points="684,-350.75 626.75,-350.75 626.75,-331.5 684,-331.5 684,-350.75"/>
<text text-anchor="middle" x="655.38" y="-337.25" font-family="Helvetica,sans-Serif" font-size="10.00">TScaler.h</text>
</a>
</g>
</g>
<!-- Node2 -->
<g id="Node000002" class="node">
<title>Node2</title>
<g id="a_Node000002"><a xlink:href="_t_data_parser_8h.html" target="_top" xlink:title=" ">
<polygon fill="white" stroke="#666666" points="574.5,-295.5 496.25,-295.5 496.25,-276.25 574.5,-276.25 574.5,-295.5"/>
<text text-anchor="middle" x="535.38" y="-282" font-family="Helvetica,sans-Serif" font-size="10.00">TDataParser.h</text>
</a>
</g>
</g>
<!-- Node1&#45;&gt;Node2 -->
<g id="edge1_Node000001_Node000002" class="edge">
<title>Node1&#45;&gt;Node2</title>
<g id="a_edge1_Node000001_Node000002"><a xlink:title=" ">
<path fill="none" stroke="#63b8ff" d="M624.72,-326.52C603.1,-316.93 574.74,-304.34 555.83,-295.95"/>
<polygon fill="#63b8ff" stroke="#63b8ff" points="623.08,-329.62 633.64,-330.48 625.91,-323.22 623.08,-329.62"/>
</a>
</g>
</g>
<!-- Node24 -->
<g id="Node000024" class="node">
<title>Node24</title>
<g id="a_Node000024"><a xlink:href="_t_scaler_8cxx.html" target="_top" xlink:title=" ">
<polygon fill="white" stroke="#666666" points="688.5,-295.5 622.25,-295.5 622.25,-276.25 688.5,-276.25 688.5,-295.5"/>
<text text-anchor="middle" x="655.38" y="-282" font-family="Helvetica,sans-Serif" font-size="10.00">TScaler.cxx</text>
</a>
</g>
</g>
<!-- Node1&#45;&gt;Node24 -->
<g id="edge34_Node000001_Node000024" class="edge">
<title>Node1&#45;&gt;Node24</title>
<g id="a_edge34_Node000001_Node000024"><a xlink:title=" ">
<path fill="none" stroke="#63b8ff" d="M655.38,-319.88C655.38,-311.59 655.38,-302.42 655.38,-295.86"/>
<polygon fill="#63b8ff" stroke="#63b8ff" points="651.88,-319.82 655.38,-329.82 658.88,-319.82 651.88,-319.82"/>
</a>
</g>
</g>
<!-- Node25 -->
<g id="Node000025" class="node">
<title>Node25</title>
<g id="a_Node000025"><a xlink:href="_t_scaler_queue_8h.html" target="_top" xlink:title=" ">
<polygon fill="white" stroke="#666666" points="807.25,-295.5 721.5,-295.5 721.5,-276.25 807.25,-276.25 807.25,-295.5"/>
<text text-anchor="middle" x="764.38" y="-282" font-family="Helvetica,sans-Serif" font-size="10.00">TScalerQueue.h</text>
</a>
</g>
</g>
<!-- Node1&#45;&gt;Node25 -->
<g id="edge35_Node000001_Node000025" class="edge">
<title>Node1&#45;&gt;Node25</title>
<g id="a_edge35_Node000001_Node000025"><a xlink:title=" ">
<path fill="none" stroke="#63b8ff" d="M684.03,-326.12C703.56,-316.58 728.85,-304.23 745.79,-295.95"/>
<polygon fill="#63b8ff" stroke="#63b8ff" points="682.67,-322.89 675.23,-330.43 685.75,-329.18 682.67,-322.89"/>
</a>
</g>
</g>
<!-- Node3 -->
<g id="Node000003" class="node">
<title>Node3</title>
<g id="a_Node000003"><a xlink:href="_t_data_parser_8cxx.html" target="_top" xlink:title=" ">
<polygon fill="white" stroke="#666666" points="711,-240.25 623.75,-240.25 623.75,-221 711,-221 711,-240.25"/>
<text text-anchor="middle" x="667.38" y="-226.75" font-family="Helvetica,sans-Serif" font-size="10.00">TDataParser.cxx</text>
</a>
</g>
</g>
<!-- Node2&#45;&gt;Node3 -->
<g id="edge2_Node000002_Node000003" class="edge">
<title>Node2&#45;&gt;Node3</title>
<g id="a_edge2_Node000002_Node000003"><a xlink:title=" ">
<path fill="none" stroke="#63b8ff" d="M568.13,-271.66C592.02,-262.02 623.79,-249.21 644.87,-240.7"/>
<polygon fill="#63b8ff" stroke="#63b8ff" points="567.14,-268.29 559.17,-275.28 569.75,-274.78 567.14,-268.29"/>
</a>
</g>
</g>
<!-- Node4 -->
<g id="Node000004" class="node">
<title>Node4</title>
<g id="a_Node000004"><a xlink:href="_t_g_r_s_iint_8cxx.html" target="_top" xlink:title=" ">
<polygon fill="white" stroke="#666666" points="523.88,-74.5 450.88,-74.5 450.88,-55.25 523.88,-55.25 523.88,-74.5"/>
<text text-anchor="middle" x="487.38" y="-61" font-family="Helvetica,sans-Serif" font-size="10.00">TGRSIint.cxx</text>
</a>
</g>
</g>
<!-- Node2&#45;&gt;Node4 -->
<g id="edge3_Node000002_Node000004" class="edge">
<title>Node2&#45;&gt;Node4</title>
<g id="a_edge3_Node000002_Node000004"><a xlink:title=" ">
<path fill="none" stroke="#63b8ff" d="M518.07,-267.49C500.89,-248.9 475.68,-217.65 465.38,-185 452.72,-144.89 473.27,-94.74 482.86,-74.72"/>
<polygon fill="#63b8ff" stroke="#63b8ff" points="515.49,-269.86 524.93,-274.68 520.56,-265.03 515.49,-269.86"/>
</a>
</g>
</g>
<!-- Node5 -->
<g id="Node000005" class="node">
<title>Node5</title>
<g id="a_Node000005"><a xlink:href="_t_parser_library_8h.html" target="_top" xlink:title=" ">
<polygon fill="white" stroke="#666666" points="418,-129.75 330.75,-129.75 330.75,-110.5 418,-110.5 418,-129.75"/>
<text text-anchor="middle" x="374.38" y="-116.25" font-family="Helvetica,sans-Serif" font-size="10.00">TParserLibrary.h</text>
</a>
</g>
</g>
<!-- Node2&#45;&gt;Node5 -->
<g id="edge4_Node000002_Node000005" class="edge">
<title>Node2&#45;&gt;Node5</title>
<g id="a_edge4_Node000002_Node000005"><a xlink:title=" ">
<path fill="none" stroke="#63b8ff" d="M487.5,-272.09C468.55,-265.14 447.68,-254.89 432.38,-240.25 398.63,-207.97 381.93,-151.98 376.47,-130.18"/>
<polygon fill="#63b8ff" stroke="#63b8ff" points="486.36,-275.4 496.95,-275.32 488.62,-268.78 486.36,-275.4"/>
</a>
</g>
</g>
<!-- Node11 -->
<g id="Node000011" class="node">
<title>Node11</title>
<g id="a_Node000011"><a xlink:href="_t_raw_event_8h.html" target="_top" xlink:title=" ">
<polygon fill="white" stroke="#666666" points="605.25,-240.25 531.5,-240.25 531.5,-221 605.25,-221 605.25,-240.25"/>
<text text-anchor="middle" x="568.38" y="-226.75" font-family="Helvetica,sans-Serif" font-size="10.00">TRawEvent.h</text>
</a>
</g>
</g>
<!-- Node2&#45;&gt;Node11 -->
<g id="edge11_Node000002_Node000011" class="edge">
<title>Node2&#45;&gt;Node11</title>
<g id="a_edge11_Node000002_Node000011"><a xlink:title=" ">
<path fill="none" stroke="#63b8ff" d="M546.85,-266.37C552.25,-257.64 558.45,-247.64 562.81,-240.61"/>
<polygon fill="#63b8ff" stroke="#63b8ff" points="543.91,-264.45 541.62,-274.8 549.86,-268.14 543.91,-264.45"/>
</a>
</g>
</g>
<!-- Node21 -->
<g id="Node000021" class="node">
<title>Node21</title>
<g id="a_Node000021"><a xlink:href="_t_unpacking_loop_8h.html" target="_top" xlink:title=" ">
<polygon fill="white" stroke="#666666" points="572.25,-185 474.5,-185 474.5,-165.75 572.25,-165.75 572.25,-185"/>
<text text-anchor="middle" x="523.38" y="-171.5" font-family="Helvetica,sans-Serif" font-size="10.00">TUnpackingLoop.h</text>
</a>
</g>
</g>
<!-- Node2&#45;&gt;Node21 -->
<g id="edge33_Node000002_Node000021" class="edge">
<title>Node2&#45;&gt;Node21</title>
<g id="a_edge33_Node000002_Node000021"><a xlink:title=" ">
<path fill="none" stroke="#63b8ff" d="M528.3,-265.08C525.91,-257.43 523.56,-248.53 522.38,-240.25 519.59,-220.71 521.16,-197.46 522.38,-185.11"/>
<polygon fill="#63b8ff" stroke="#63b8ff" points="524.92,-266.01 531.43,-274.38 531.56,-263.78 524.92,-266.01"/>
</a>
</g>
</g>
<!-- Node5&#45;&gt;Node4 -->
<g id="edge8_Node000005_Node000004" class="edge">
<title>Node5&#45;&gt;Node4</title>
<g id="a_edge8_Node000005_Node000004"><a xlink:title=" ">
<path fill="none" stroke="#63b8ff" d="M403.8,-105.26C424.09,-95.7 450.47,-83.27 468.11,-74.95"/>
<polygon fill="#63b8ff" stroke="#63b8ff" points="402.47,-102.02 394.91,-109.45 405.45,-108.35 402.47,-102.02"/>
</a>
</g>
</g>
<!-- Node6 -->
<g id="Node000006" class="node">
<title>Node6</title>
<g id="a_Node000006"><a xlink:href="_t_g_r_s_i_proof_8h.html" target="_top" xlink:title=" ">
<polygon fill="white" stroke="#666666" points="76.75,-74.5 0,-74.5 0,-55.25 76.75,-55.25 76.75,-74.5"/>
<text text-anchor="middle" x="38.38" y="-61" font-family="Helvetica,sans-Serif" font-size="10.00">TGRSIProof.h</text>
</a>
</g>
</g>
<!-- Node5&#45;&gt;Node6 -->
<g id="edge5_Node000005_Node000006" class="edge">
<title>Node5&#45;&gt;Node6</title>
<g id="a_edge5_Node000005_Node000006"><a xlink:title=" ">
<path fill="none" stroke="#63b8ff" d="M319.3,-110.99C261.29,-102.34 167.31,-88.04 86.38,-74.5 83.37,-74 80.26,-73.47 77.13,-72.92"/>
<polygon fill="#63b8ff" stroke="#63b8ff" points="318.51,-114.41 328.91,-112.43 319.54,-107.49 318.51,-114.41"/>
</a>
</g>
</g>
<!-- Node8 -->
<g id="Node000008" class="node">
<title>Node8</title>
<g id="a_Node000008"><a xlink:href="_t_g_r_s_i_selector_8cxx.html" target="_top" xlink:title=" ">
<polygon fill="white" stroke="#666666" points="193.62,-74.5 95.12,-74.5 95.12,-55.25 193.62,-55.25 193.62,-74.5"/>
<text text-anchor="middle" x="144.38" y="-61" font-family="Helvetica,sans-Serif" font-size="10.00">TGRSISelector.cxx</text>
</a>
</g>
</g>
<!-- Node5&#45;&gt;Node8 -->
<g id="edge7_Node000005_Node000008" class="edge">
<title>Node5&#45;&gt;Node8</title>
<g id="a_edge7_Node000005_Node000008"><a xlink:title=" ">
<path fill="none" stroke="#63b8ff" d="M323.94,-107.45C281.68,-97.66 222.22,-83.9 183.49,-74.93"/>
<polygon fill="#63b8ff" stroke="#63b8ff" points="323.09,-110.84 333.62,-109.69 324.67,-104.02 323.09,-110.84"/>
</a>
</g>
</g>
<!-- Node9 -->
<g id="Node000009" class="node">
<title>Node9</title>
<g id="a_Node000009"><a xlink:href="_t_parser_library_8cxx.html" target="_top" xlink:title=" ">
<polygon fill="white" stroke="#666666" points="307.5,-74.5 211.25,-74.5 211.25,-55.25 307.5,-55.25 307.5,-74.5"/>
<text text-anchor="middle" x="259.38" y="-61" font-family="Helvetica,sans-Serif" font-size="10.00">TParserLibrary.cxx</text>
</a>
</g>
</g>
<!-- Node5&#45;&gt;Node9 -->
<g id="edge9_Node000005_Node000009" class="edge">
<title>Node5&#45;&gt;Node9</title>
<g id="a_edge9_Node000005_Node000009"><a xlink:title=" ">
<path fill="none" stroke="#63b8ff" d="M344.43,-105.26C323.78,-95.7 296.94,-83.27 278.98,-74.95"/>
<polygon fill="#63b8ff" stroke="#63b8ff" points="342.95,-108.43 353.49,-109.46 345.89,-102.08 342.95,-108.43"/>
</a>
</g>
</g>
<!-- Node10 -->
<g id="Node000010" class="node">
<title>Node10</title>
<g id="a_Node000010"><a xlink:href="_t_unpacking_loop_8cxx.html" target="_top" xlink:title=" ">
<polygon fill="white" stroke="#666666" points="432.75,-74.5 326,-74.5 326,-55.25 432.75,-55.25 432.75,-74.5"/>
<text text-anchor="middle" x="379.38" y="-61" font-family="Helvetica,sans-Serif" font-size="10.00">TUnpackingLoop.cxx</text>
</a>
</g>
</g>
<!-- Node5&#45;&gt;Node10 -->
<g id="edge10_Node000005_Node000010" class="edge">
<title>Node5&#45;&gt;Node10</title>
<g id="a_edge10_Node000005_Node000010"><a xlink:title=" ">
<path fill="none" stroke="#63b8ff" d="M376.28,-98.88C377.05,-90.59 377.92,-81.42 378.53,-74.86"/>
<polygon fill="#63b8ff" stroke="#63b8ff" points="372.79,-98.54 375.34,-108.82 379.76,-99.2 372.79,-98.54"/>
</a>
</g>
</g>
<!-- Node7 -->
<g id="Node000007" class="node">
<title>Node7</title>
<g id="a_Node000007"><a xlink:href="grsiproof_8cxx.html" target="_top" xlink:title=" ">
<polygon fill="white" stroke="#666666" points="73.38,-19.25 3.38,-19.25 3.38,0 73.38,0 73.38,-19.25"/>
<text text-anchor="middle" x="38.38" y="-5.75" font-family="Helvetica,sans-Serif" font-size="10.00">grsiproof.cxx</text>
</a>
</g>
</g>
<!-- Node6&#45;&gt;Node7 -->
<g id="edge6_Node000006_Node000007" class="edge">
<title>Node6&#45;&gt;Node7</title>
<g id="a_edge6_Node000006_Node000007"><a xlink:title=" ">
<path fill="none" stroke="#63b8ff" d="M38.38,-43.63C38.38,-35.34 38.38,-26.17 38.38,-19.61"/>
<polygon fill="#63b8ff" stroke="#63b8ff" points="34.88,-43.57 38.38,-53.57 41.88,-43.57 34.88,-43.57"/>
</a>
</g>
</g>
<!-- Node12 -->
<g id="Node000012" class="node">
<title>Node12</title>
<g id="a_Node000012"><a xlink:href="_t_data_loop_8h.html" target="_top" xlink:title=" ">
<polygon fill="white" stroke="#666666" points="768.12,-129.75 696.62,-129.75 696.62,-110.5 768.12,-110.5 768.12,-129.75"/>
<text text-anchor="middle" x="732.38" y="-116.25" font-family="Helvetica,sans-Serif" font-size="10.00">TDataLoop.h</text>
</a>
</g>
</g>
<!-- Node11&#45;&gt;Node12 -->
<g id="edge12_Node000011_Node000012" class="edge">
<title>Node11&#45;&gt;Node12</title>
<g id="a_edge12_Node000011_Node000012"><a xlink:title=" ">
<path fill="none" stroke="#63b8ff" d="M591.42,-214.38C626.14,-191.41 690.8,-148.63 718.83,-130.09"/>
<polygon fill="#63b8ff" stroke="#63b8ff" points="589.75,-211.29 583.34,-219.73 593.61,-217.13 589.75,-211.29"/>
</a>
</g>
</g>
<!-- Node15 -->
<g id="Node000015" class="node">
<title>Node15</title>
<g id="a_Node000015"><a xlink:href="_t_raw_file_8h.html" target="_top" xlink:title=" ">
<polygon fill="white" stroke="#666666" points="764.75,-185 700,-185 700,-165.75 764.75,-165.75 764.75,-185"/>
<text text-anchor="middle" x="732.38" y="-171.5" font-family="Helvetica,sans-Serif" font-size="10.00">TRawFile.h</text>
</a>
</g>
</g>
<!-- Node11&#45;&gt;Node15 -->
<g id="edge16_Node000011_Node000015" class="edge">
<title>Node11&#45;&gt;Node15</title>
<g id="a_edge16_Node000011_Node000015"><a xlink:title=" ">
<path fill="none" stroke="#63b8ff" d="M607.07,-217.06C636.97,-207.35 677.63,-194.15 704.42,-185.45"/>
<polygon fill="#63b8ff" stroke="#63b8ff" points="606.07,-213.71 597.63,-220.12 608.23,-220.37 606.07,-213.71"/>
</a>
</g>
</g>
<!-- Node11&#45;&gt;Node21 -->
<g id="edge26_Node000011_Node000021" class="edge">
<title>Node11&#45;&gt;Node21</title>
<g id="a_edge26_Node000011_Node000021"><a xlink:title=" ">
<path fill="none" stroke="#63b8ff" d="M553.7,-212.26C546.11,-203.28 537.17,-192.7 530.97,-185.36"/>
<polygon fill="#63b8ff" stroke="#63b8ff" points="550.84,-214.3 559.97,-219.68 556.19,-209.78 550.84,-214.3"/>
</a>
</g>
</g>
<!-- Node12&#45;&gt;Node4 -->
<g id="edge15_Node000012_Node000004" class="edge">
<title>Node12&#45;&gt;Node4</title>
<g id="a_edge15_Node000012_Node000004"><a xlink:title=" ">
<path fill="none" stroke="#63b8ff" d="M685.12,-108.85C638.12,-98.64 566.99,-83.18 524.07,-73.85"/>
<polygon fill="#63b8ff" stroke="#63b8ff" points="684.23,-112.24 694.75,-110.95 685.72,-105.4 684.23,-112.24"/>
</a>
</g>
</g>
<!-- Node13 -->
<g id="Node000013" class="node">
<title>Node13</title>
<g id="a_Node000013"><a xlink:href="_stoppable_thread_8cxx.html" target="_top" xlink:title=" ">
<polygon fill="white" stroke="#666666" points="792.38,-74.5 686.38,-74.5 686.38,-55.25 792.38,-55.25 792.38,-74.5"/>
<text text-anchor="middle" x="739.38" y="-61" font-family="Helvetica,sans-Serif" font-size="10.00">StoppableThread.cxx</text>
</a>
</g>
</g>
<!-- Node12&#45;&gt;Node13 -->
<g id="edge13_Node000012_Node000013" class="edge">
<title>Node12&#45;&gt;Node13</title>
<g id="a_edge13_Node000012_Node000013"><a xlink:title=" ">
<path fill="none" stroke="#63b8ff" d="M735,-99.17C736.1,-90.8 737.32,-81.5 738.19,-74.86"/>
<polygon fill="#63b8ff" stroke="#63b8ff" points="731.56,-98.46 733.73,-108.83 738.5,-99.37 731.56,-98.46"/>
</a>
</g>
</g>
<!-- Node14 -->
<g id="Node000014" class="node">
<title>Node14</title>
<g id="a_Node000014"><a xlink:href="_t_data_loop_8cxx.html" target="_top" xlink:title=" ">
<polygon fill="white" stroke="#666666" points="1180.62,-74.5 1100.12,-74.5 1100.12,-55.25 1180.62,-55.25 1180.62,-74.5"/>
<text text-anchor="middle" x="1140.38" y="-61" font-family="Helvetica,sans-Serif" font-size="10.00">TDataLoop.cxx</text>
</a>
</g>
</g>
<!-- Node12&#45;&gt;Node14 -->
<g id="edge14_Node000012_Node000014" class="edge">
<title>Node12&#45;&gt;Node14</title>
<g id="a_edge14_Node000012_Node000014"><a xlink:title=" ">
<path fill="none" stroke="#63b8ff" d="M779.67,-114.02C848.43,-106.42 979.97,-91.22 1091.38,-74.5 1094.11,-74.09 1096.92,-73.65 1099.76,-73.19"/>
<polygon fill="#63b8ff" stroke="#63b8ff" points="779.44,-110.52 769.89,-115.09 780.21,-117.48 779.44,-110.52"/>
</a>
</g>
</g>
<!-- Node15&#45;&gt;Node5 -->
<g id="edge25_Node000015_Node000005" class="edge">
<title>Node15&#45;&gt;Node5</title>
<g id="a_edge25_Node000015_Node000005"><a xlink:title=" ">
<path fill="none" stroke="#63b8ff" d="M688.38,-167.83C619.58,-157.6 487.31,-137.92 418.46,-127.68"/>
<polygon fill="#63b8ff" stroke="#63b8ff" points="687.75,-171.28 698.16,-169.29 688.78,-164.35 687.75,-171.28"/>
</a>
</g>
</g>
<!-- Node15&#45;&gt;Node12 -->
<g id="edge18_Node000015_Node000012" class="edge">
<title>Node15&#45;&gt;Node12</title>
<g id="a_edge18_Node000015_Node000012"><a xlink:title=" ">
<path fill="none" stroke="#63b8ff" d="M732.38,-154.13C732.38,-145.84 732.38,-136.67 732.38,-130.11"/>
<polygon fill="#63b8ff" stroke="#63b8ff" points="728.88,-154.07 732.38,-164.07 735.88,-154.07 728.88,-154.07"/>
</a>
</g>
</g>
<!-- Node15&#45;&gt;Node14 -->
<g id="edge17_Node000015_Node000014" class="edge">
<title>Node15&#45;&gt;Node14</title>
<g id="a_edge17_Node000015_Node000014"><a xlink:title=" ">
<path fill="none" stroke="#63b8ff" d="M776.19,-166.96C820.28,-159.12 890.05,-145.71 949.38,-129.75 1010.32,-113.36 1080.28,-88.33 1116.24,-74.99"/>
<polygon fill="#63b8ff" stroke="#63b8ff" points="775.75,-163.48 766.5,-168.66 776.96,-170.38 775.75,-163.48"/>
</a>
</g>
</g>
<!-- Node16 -->
<g id="Node000016" class="node">
<title>Node16</title>
<g id="a_Node000016"><a xlink:href="_t_g_r_s_iint_8h.html" target="_top" xlink:title=" ">
<polygon fill="white" stroke="#666666" points="940.38,-129.75 876.38,-129.75 876.38,-110.5 940.38,-110.5 940.38,-129.75"/>
<text text-anchor="middle" x="908.38" y="-116.25" font-family="Helvetica,sans-Serif" font-size="10.00">TGRSIint.h</text>
</a>
</g>
</g>
<!-- Node15&#45;&gt;Node16 -->
<g id="edge19_Node000015_Node000016" class="edge">
<title>Node15&#45;&gt;Node16</title>
<g id="a_edge19_Node000015_Node000016"><a xlink:title=" ">
<path fill="none" stroke="#63b8ff" d="M773.06,-162.07C805.22,-152.34 849.37,-138.98 878.37,-130.2"/>
<polygon fill="#63b8ff" stroke="#63b8ff" points="772.24,-158.66 763.68,-164.9 774.26,-165.36 772.24,-158.66"/>
</a>
</g>
</g>
<!-- Node16&#45;&gt;Node4 -->
<g id="edge23_Node000016_Node000004" class="edge">
<title>Node16&#45;&gt;Node4</title>
<g id="a_edge23_Node000016_Node000004"><a xlink:title=" ">
<path fill="none" stroke="#63b8ff" d="M864.48,-114.86C794.33,-107.84 652.69,-92.76 533.38,-74.5 530.4,-74.05 527.33,-73.54 524.25,-73.01"/>
<polygon fill="#63b8ff" stroke="#63b8ff" points="864.12,-118.34 874.42,-115.85 864.81,-111.38 864.12,-118.34"/>
</a>
</g>
</g>
<!-- Node17 -->
<g id="Node000017" class="node">
<title>Node17</title>
<g id="a_Node000017"><a xlink:href="_g_canvas_8cxx.html" target="_top" xlink:title=" ">
<polygon fill="white" stroke="#666666" points="1081.88,-74.5 1008.88,-74.5 1008.88,-55.25 1081.88,-55.25 1081.88,-74.5"/>
<text text-anchor="middle" x="1045.38" y="-61" font-family="Helvetica,sans-Serif" font-size="10.00">GCanvas.cxx</text>
</a>
</g>
</g>
<!-- Node16&#45;&gt;Node17 -->
<g id="edge20_Node000016_Node000017" class="edge">
<title>Node16&#45;&gt;Node17</title>
<g id="a_edge20_Node000016_Node000017"><a xlink:title=" ">
<path fill="none" stroke="#63b8ff" d="M942.03,-106.04C966.87,-96.39 1000.04,-83.5 1022.02,-74.95"/>
<polygon fill="#63b8ff" stroke="#63b8ff" points="941.08,-102.66 933.03,-109.54 943.61,-109.18 941.08,-102.66"/>
</a>
</g>
</g>
<!-- Node18 -->
<g id="Node000018" class="node">
<title>Node18</title>
<g id="a_Node000018"><a xlink:href="_t_analysis_hist_loop_8cxx.html" target="_top" xlink:title=" ">
<polygon fill="white" stroke="#666666" points="1313.88,-74.5 1198.88,-74.5 1198.88,-55.25 1313.88,-55.25 1313.88,-74.5"/>
<text text-anchor="middle" x="1256.38" y="-61" font-family="Helvetica,sans-Serif" font-size="10.00">TAnalysisHistLoop.cxx</text>
</a>
</g>
</g>
<!-- Node16&#45;&gt;Node18 -->
<g id="edge21_Node000016_Node000018" class="edge">
<title>Node16&#45;&gt;Node18</title>
<g id="a_edge21_Node000016_Node000018"><a xlink:title=" ">
<path fill="none" stroke="#63b8ff" d="M951.8,-112.48C1014.07,-102.95 1128.89,-85.38 1198.38,-74.75"/>
<polygon fill="#63b8ff" stroke="#63b8ff" points="951.65,-108.96 942.3,-113.93 952.71,-115.88 951.65,-108.96"/>
</a>
</g>
</g>
<!-- Node19 -->
<g id="Node000019" class="node">
<title>Node19</title>
<g id="a_Node000019"><a xlink:href="_t_frag_hist_loop_8cxx.html" target="_top" xlink:title=" ">
<polygon fill="white" stroke="#666666" points="908.25,-74.5 810.5,-74.5 810.5,-55.25 908.25,-55.25 908.25,-74.5"/>
<text text-anchor="middle" x="859.38" y="-61" font-family="Helvetica,sans-Serif" font-size="10.00">TFragHistLoop.cxx</text>
</a>
</g>
</g>
<!-- Node16&#45;&gt;Node19 -->
<g id="edge22_Node000016_Node000019" class="edge">
<title>Node16&#45;&gt;Node19</title>
<g id="a_edge22_Node000016_Node000019"><a xlink:title=" ">
<path fill="none" stroke="#63b8ff" d="M892.66,-102.04C884.34,-93 874.46,-82.27 867.64,-74.86"/>
<polygon fill="#63b8ff" stroke="#63b8ff" points="889.91,-104.23 899.26,-109.22 895.06,-99.49 889.91,-104.23"/>
</a>
</g>
</g>
<!-- Node20 -->
<g id="Node000020" class="node">
<title>Node20</title>
<g id="a_Node000020"><a xlink:href="grsisort_8cxx.html" target="_top" xlink:title=" ">
<polygon fill="white" stroke="#666666" points="990.75,-74.5 926,-74.5 926,-55.25 990.75,-55.25 990.75,-74.5"/>
<text text-anchor="middle" x="958.38" y="-61" font-family="Helvetica,sans-Serif" font-size="10.00">grsisort.cxx</text>
</a>
</g>
</g>
<!-- Node16&#45;&gt;Node20 -->
<g id="edge24_Node000016_Node000020" class="edge">
<title>Node16&#45;&gt;Node20</title>
<g id="a_edge24_Node000016_Node000020"><a xlink:title=" ">
<path fill="none" stroke="#63b8ff" d="M924.42,-102.04C932.9,-93 942.98,-82.27 949.94,-74.86"/>
<polygon fill="#63b8ff" stroke="#63b8ff" points="921.96,-99.54 917.67,-109.23 927.06,-104.33 921.96,-99.54"/>
</a>
</g>
</g>
<!-- Node21&#45;&gt;Node4 -->
<g id="edge31_Node000021_Node000004" class="edge">
<title>Node21&#45;&gt;Node4</title>
<g id="a_edge31_Node000021_Node000004"><a xlink:title=" ">
<path fill="none" stroke="#63b8ff" d="M516.84,-154.68C508.99,-131.01 496.14,-92.3 490.36,-74.88"/>
<polygon fill="#63b8ff" stroke="#63b8ff" points="513.48,-155.67 519.95,-164.06 520.13,-153.47 513.48,-155.67"/>
</a>
</g>
</g>
<!-- Node21&#45;&gt;Node10 -->
<g id="edge32_Node000021_Node000010" class="edge">
<title>Node21&#45;&gt;Node10</title>
<g id="a_edge32_Node000021_Node000010"><a xlink:title=" ">
<path fill="none" stroke="#63b8ff" d="M502.63,-158.75C472.05,-135.7 415.83,-93.34 391.32,-74.88"/>
<polygon fill="#63b8ff" stroke="#63b8ff" points="500.29,-161.36 510.38,-164.59 504.5,-155.77 500.29,-161.36"/>
</a>
</g>
</g>
<!-- Node22 -->
<g id="Node000022" class="node">
<title>Node22</title>
<g id="a_Node000022"><a xlink:href="_t_fragment_chain_loop_8h.html" target="_top" xlink:title=" ">
<polygon fill="white" stroke="#666666" points="668,-129.75 550.75,-129.75 550.75,-110.5 668,-110.5 668,-129.75"/>
<text text-anchor="middle" x="609.38" y="-116.25" font-family="Helvetica,sans-Serif" font-size="10.00">TFragmentChainLoop.h</text>
</a>
</g>
</g>
<!-- Node21&#45;&gt;Node22 -->
<g id="edge27_Node000021_Node000022" class="edge">
<title>Node21&#45;&gt;Node22</title>
<g id="a_edge27_Node000021_Node000022"><a xlink:title=" ">
<path fill="none" stroke="#63b8ff" d="M547.72,-159.3C562.86,-149.92 581.84,-138.17 594.71,-130.2"/>
<polygon fill="#63b8ff" stroke="#63b8ff" points="545.91,-156.3 539.25,-164.55 549.6,-162.26 545.91,-156.3"/>
</a>
</g>
</g>
<!-- Node22&#45;&gt;Node4 -->
<g id="edge30_Node000022_Node000004" class="edge">
<title>Node22&#45;&gt;Node4</title>
<g id="a_edge30_Node000022_Node000004"><a xlink:title=" ">
<path fill="none" stroke="#63b8ff" d="M578.21,-105.52C556.23,-95.93 527.4,-83.34 508.17,-74.95"/>
<polygon fill="#63b8ff" stroke="#63b8ff" points="576.73,-108.69 587.29,-109.49 579.53,-102.28 576.73,-108.69"/>
</a>
</g>
</g>
<!-- Node22&#45;&gt;Node13 -->
<g id="edge28_Node000022_Node000013" class="edge">
<title>Node22&#45;&gt;Node13</title>
<g id="a_edge28_Node000022_Node000013"><a xlink:title=" ">
<path fill="none" stroke="#63b8ff" d="M641.95,-105.78C665.44,-96.16 696.54,-83.42 717.21,-74.95"/>
<polygon fill="#63b8ff" stroke="#63b8ff" points="640.76,-102.49 632.83,-109.52 643.41,-108.97 640.76,-102.49"/>
</a>
</g>
</g>
<!-- Node23 -->
<g id="Node000023" class="node">
<title>Node23</title>
<g id="a_Node000023"><a xlink:href="_t_fragment_chain_loop_8cxx.html" target="_top" xlink:title=" ">
<polygon fill="white" stroke="#666666" points="668.5,-74.5 542.25,-74.5 542.25,-55.25 668.5,-55.25 668.5,-74.5"/>
<text text-anchor="middle" x="605.38" y="-61" font-family="Helvetica,sans-Serif" font-size="10.00">TFragmentChainLoop.cxx</text>
</a>
</g>
</g>
<!-- Node22&#45;&gt;Node23 -->
<g id="edge29_Node000022_Node000023" class="edge">
<title>Node22&#45;&gt;Node23</title>
<g id="a_edge29_Node000022_Node000023"><a xlink:title=" ">
<path fill="none" stroke="#63b8ff" d="M607.85,-98.88C607.23,-90.59 606.54,-81.42 606.05,-74.86"/>
<polygon fill="#63b8ff" stroke="#63b8ff" points="604.36,-99.11 608.6,-108.82 611.34,-98.59 604.36,-99.11"/>
</a>
</g>
</g>
<!-- Node25&#45;&gt;Node3 -->
<g id="edge36_Node000025_Node000003" class="edge">
<title>Node25&#45;&gt;Node3</title>
<g id="a_edge36_Node000025_Node000003"><a xlink:title=" ">
<path fill="none" stroke="#63b8ff" d="M737.9,-270.34C720.66,-260.88 698.71,-248.83 683.91,-240.7"/>
<polygon fill="#63b8ff" stroke="#63b8ff" points="736.14,-273.37 746.59,-275.11 739.51,-267.23 736.14,-273.37"/>
</a>
</g>
</g>
<!-- Node26 -->
<g id="Node000026" class="node">
<title>Node26</title>
<g id="a_Node000026"><a xlink:href="_t_frag_write_loop_8cxx.html" target="_top" xlink:title=" ">
<polygon fill="white" stroke="#666666" points="831.5,-240.25 729.25,-240.25 729.25,-221 831.5,-221 831.5,-240.25"/>
<text text-anchor="middle" x="780.38" y="-226.75" font-family="Helvetica,sans-Serif" font-size="10.00">TFragWriteLoop.cxx</text>
</a>
</g>
</g>
<!-- Node25&#45;&gt;Node26 -->
<g id="edge37_Node000025_Node000026" class="edge">
<title>Node25&#45;&gt;Node26</title>
<g id="a_edge37_Node000025_Node000026"><a xlink:title=" ">
<path fill="none" stroke="#63b8ff" d="M770.28,-265.21C772.82,-256.77 775.66,-247.33 777.68,-240.61"/>
<polygon fill="#63b8ff" stroke="#63b8ff" points="766.98,-264.05 767.45,-274.63 773.68,-266.06 766.98,-264.05"/>
</a>
</g>
</g>
<!-- Node27 -->
<g id="Node000027" class="node">
<title>Node27</title>
<g id="a_Node000027"><a xlink:href="_t_scaler_queue_8cxx.html" target="_top" xlink:title=" ">
<polygon fill="white" stroke="#666666" points="944.75,-240.25 850,-240.25 850,-221 944.75,-221 944.75,-240.25"/>
<text text-anchor="middle" x="897.38" y="-226.75" font-family="Helvetica,sans-Serif" font-size="10.00">TScalerQueue.cxx</text>
</a>
</g>
</g>
<!-- Node25&#45;&gt;Node27 -->
<g id="edge38_Node000025_Node000027" class="edge">
<title>Node25&#45;&gt;Node27</title>
<g id="a_edge38_Node000025_Node000027"><a xlink:title=" ">
<path fill="none" stroke="#63b8ff" d="M797.37,-271.66C821.45,-262.02 853.46,-249.21 874.7,-240.7"/>
<polygon fill="#63b8ff" stroke="#63b8ff" points="796.32,-268.31 788.34,-275.28 798.93,-274.81 796.32,-268.31"/>
</a>
</g>
</g>
</g>
</svg>

<g id="navigator" transform="translate(0 0)" fill="#404254">
  <rect fill="#f2f5e9" fill-opacity="0.5" stroke="#606060" stroke-width=".5" x="0" y="0" width="60" height="60"/>
  <use id="zoomplus" xlink:href="#zoomPlus" x="17" y="9" onmousedown="handleZoom(evt,'in')"/>
  <use id="zoomminus" xlink:href="#zoomMin" x="42" y="9" onmousedown="handleZoom(evt,'out')"/>
  <use id="reset" xlink:href="#resetDef" x="30" y="36" onmousedown="handleReset()"/>
   <use id="arrowup" xlink:href="#arrowUp" x="0" y="0" onmousedown="handlePan(0,-1)"/>
  <use id="arrowright" xlink:href="#arrowRight" x="0" y="0" onmousedown="handlePan(1,0)"/>
  <use id="arrowdown" xlink:href="#arrowDown" x="0" y="0" onmousedown="handlePan(0,1)"/>
  <use id="arrowleft" xlink:href="#arrowLeft" x="0" y="0" onmousedown="handlePan(-1,0)"/>
</g>
<svg viewBox="0 0 15 15" width="100%" height="30px" preserveAspectRatio="xMaxYMin meet">
 <g id="arrow_out" transform="scale(0.3 0.3)">
  <a xlink:href="_t_scaler_8h__dep__incl_org.svg" target="_base">
   <rect id="button" ry="5" rx="5" y="6" x="6" height="38" width="38"
        fill="#f2f5e9" fill-opacity="0.5" stroke="#606060" stroke-width="1.0"/>
   <path id="arrow"
     d="M 11.500037,31.436501 C 11.940474,20.09759 22.043105,11.32322 32.158766,21.979434 L 37.068811,17.246167 C 37.068811,17.246167 37.088388,32 37.088388,32 L 22.160133,31.978069 C 22.160133,31.978069 26.997745,27.140456 26.997745,27.140456 C 18.528582,18.264221 13.291696,25.230495 11.500037,31.436501 z"
     style="fill:#404040;"/>
  </a>
 </g>
</svg>

<style type='text/css'>
<![CDATA[
[data-mouse-over-selected='false'] { opacity: 0.7; }
[data-mouse-over-selected='true']  { opacity: 1.0; }
]]>
</style>
<script type="application/ecmascript"><![CDATA[
document.addEventListener('DOMContentLoaded', (event) => {
  highlightEdges();
  highlightAdjacentNodes();
});
]]></script>
</svg>
