<?xml version="1.0" encoding="UTF-8" standalone="no"?>
<!DOCTYPE svg PUBLIC "-//W3C//DTD SVG 1.1//EN"
 "http://www.w3.org/Graphics/SVG/1.1/DTD/svg11.dtd">
<!-- Generated by graphviz version 12.2.0 (20241103.1931)
 -->
<!-- Title: TSortingDiagnostics.cxx Pages: 1 -->
<!--zoomable 248 -->

<svg id="main" version="1.1" xmlns="http://www.w3.org/2000/svg" xmlns:xlink="http://www.w3.org/1999/xlink" xml:space="preserve" onload="init(evt)">

<style type="text/css"><![CDATA[
.node, .edge {opacity: 0.7;}
.node.selected, .edge.selected {opacity: 1;}
.edge:hover path { stroke: red; }
.edge:hover polygon { stroke: red; fill: red; }
]]></style>

<defs>
  <circle id="rim" cx="0" cy="0" r="7"/>
  <circle id="rim2" cx="0" cy="0" r="3.5"/>
  <g id="zoomPlus">
    <use xlink:href="#rim" fill="#404040"><set attributeName="fill" to="#808080" begin="zoomplus.mouseover" end="zoomplus.mouseout"/></use>
    <path d="M-4,0h8M0,-4v8" fill="none" stroke="white" stroke-width="1.5" pointer-events="none"/>
  </g>
  <g id="zoomMin">
    <use xlink:href="#rim" fill="#404040"><set attributeName="fill" to="#808080" begin="zoomminus.mouseover" end="zoomminus.mouseout"/></use>
    <path d="M-4,0h8" fill="none" stroke="white" stroke-width="1.5" pointer-events="none"/>
  </g>
  <g id="arrowUp" transform="translate(30 24)">
    <use xlink:href="#rim"/>
    <path pointer-events="none" fill="none" stroke="white" stroke-width="1.5" d="M0,-3.0v7 M-2.5,-0.5L0,-3.0L2.5,-0.5"/>
  </g>
  <g id="arrowRight" transform="rotate(90) translate(36 -43)">
    <use xlink:href="#rim"/>
    <path pointer-events="none" fill="none" stroke="white" stroke-width="1.5" d="M0,-3.0v7 M-2.5,-0.5L0,-3.0L2.5,-0.5"/>
  </g>
  <g id="arrowDown" transform="rotate(180) translate(-30 -48)">
    <use xlink:href="#rim"/>
    <path pointer-events="none" fill="none" stroke="white" stroke-width="1.5" d="M0,-3.0v7 M-2.5,-0.5L0,-3.0L2.5,-0.5"/>
  </g>
  <g id="arrowLeft" transform="rotate(270) translate(-36 17)">
    <use xlink:href="#rim"/>
    <path pointer-events="none" fill="none" stroke="white" stroke-width="1.5" d="M0,-3.0v7 M-2.5,-0.5L0,-3.0L2.5,-0.5"/>
  </g>
  <g id="resetDef">
    <use xlink:href="#rim2" fill="#404040"><set attributeName="fill" to="#808080" begin="reset.mouseover" end="reset.mouseout"/></use>
  </g>
</defs>
<script type="application/ecmascript">
var viewWidth = 1842;
var viewHeight = 248;
var sectionId = 'dynsection-0';
</script>
<script type="application/ecmascript" xlink:href="svg.min.js"/>
<svg id="graph" class="graph">
<g id="viewport">
<title>TSortingDiagnostics.cxx</title>
<!-- Node1 -->
<g id="Node000001" class="node">
<title>Node1</title>
<g id="a_Node000001"><a xlink:title=" ">
<polygon fill="#999999" stroke="#666666" points="710,-240.25 589.75,-240.25 589.75,-221 710,-221 710,-240.25"/>
<text text-anchor="middle" x="649.88" y="-226.75" font-family="Helvetica,sans-Serif" font-size="10.00">TSortingDiagnostics.cxx</text>
</a>
</g>
</g>
<!-- Node2 -->
<g id="Node000002" class="node">
<title>Node2</title>
<g id="a_Node000002"><a xlink:href="_t_sorting_diagnostics_8h.html" target="_top" xlink:title=" ">
<polygon fill="white" stroke="#666666" points="705.5,-185 594.25,-185 594.25,-165.75 705.5,-165.75 705.5,-185"/>
<text text-anchor="middle" x="649.88" y="-171.5" font-family="Helvetica,sans-Serif" font-size="10.00">TSortingDiagnostics.h</text>
</a>
</g>
</g>
<!-- Node1&#45;&gt;Node2 -->
<g id="edge1_Node000001_Node000002" class="edge">
<title>Node1&#45;&gt;Node2</title>
<g id="a_edge1_Node000001_Node000002"><a xlink:title=" ">
<path fill="none" stroke="#63b8ff" d="M649.88,-220.83C649.88,-214.32 649.88,-205.17 649.88,-196.87"/>
<polygon fill="#63b8ff" stroke="#63b8ff" points="653.38,-196.87 649.88,-186.87 646.38,-196.87 653.38,-196.87"/>
</a>
</g>
</g>
<!-- Node6 -->
<g id="Node000006" class="node">
<title>Node6</title>
<g id="a_Node000006"><a xlink:href="_t_channel_8h.html" target="_top" xlink:title=" ">
<polygon fill="white" stroke="#666666" points="379.25,-129.75 314.5,-129.75 314.5,-110.5 379.25,-110.5 379.25,-129.75"/>
<text text-anchor="middle" x="346.88" y="-116.25" font-family="Helvetica,sans-Serif" font-size="10.00">TChannel.h</text>
</a>
</g>
</g>
<!-- Node1&#45;&gt;Node6 -->
<g id="edge47_Node000001_Node000006" class="edge">
<title>Node1&#45;&gt;Node6</title>
<g id="a_edge47_Node000001_Node000006"><a xlink:title=" ">
<path fill="none" stroke="#63b8ff" d="M624.57,-220.56C570.76,-201.29 444.88,-156.22 382.8,-133.99"/>
<polygon fill="#63b8ff" stroke="#63b8ff" points="384.35,-130.83 373.76,-130.75 381.99,-137.42 384.35,-130.83"/>
</a>
</g>
</g>
<!-- Node7 -->
<g id="Node000007" class="node">
<title>Node7</title>
<g id="a_Node000007"><a xlink:title=" ">
<polygon fill="#e0e0e0" stroke="#999999" points="445.88,-19.25 405.88,-19.25 405.88,0 445.88,0 445.88,-19.25"/>
<text text-anchor="middle" x="425.88" y="-5.75" font-family="Helvetica,sans-Serif" font-size="10.00">string</text>
</a>
</g>
</g>
<!-- Node1&#45;&gt;Node7 -->
<g id="edge46_Node000001_Node000007" class="edge">
<title>Node1&#45;&gt;Node7</title>
<g id="a_edge46_Node000001_Node000007"><a xlink:title=" ">
<path fill="none" stroke="#63b8ff" d="M589.41,-224.38C443.42,-210.33 78.38,-166.53 5.88,-74.5 -46.46,-8.06 285.3,-33.8 394.14,-19.09"/>
<polygon fill="#63b8ff" stroke="#63b8ff" points="394.61,-22.56 403.91,-17.5 393.48,-15.65 394.61,-22.56"/>
</a>
</g>
</g>
<!-- Node35 -->
<g id="Node000035" class="node">
<title>Node35</title>
<g id="a_Node000035"><a xlink:title=" ">
<polygon fill="#e0e0e0" stroke="#999999" points="1834.38,-19.25 1785.38,-19.25 1785.38,0 1834.38,0 1834.38,-19.25"/>
<text text-anchor="middle" x="1809.88" y="-5.75" font-family="Helvetica,sans-Serif" font-size="10.00">fstream</text>
</a>
</g>
</g>
<!-- Node1&#45;&gt;Node35 -->
<g id="edge45_Node000001_Node000035" class="edge">
<title>Node1&#45;&gt;Node35</title>
<g id="a_edge45_Node000001_Node000035"><a xlink:title=" ">
<path fill="none" stroke="#63b8ff" d="M710.46,-225.92C794.5,-220.2 951.02,-207.46 1082.88,-185 1351.74,-139.2 1669.02,-51.11 1774.11,-21.01"/>
<polygon fill="#63b8ff" stroke="#63b8ff" points="1774.92,-24.41 1783.56,-18.29 1772.98,-17.69 1774.92,-24.41"/>
</a>
</g>
</g>
<!-- Node39 -->
<g id="Node000039" class="node">
<title>Node39</title>
<g id="a_Node000039"><a xlink:href="_t_g_r_s_i_options_8h.html" target="_top" xlink:title=" ">
<polygon fill="white" stroke="#666666" points="1073.5,-185 986.25,-185 986.25,-165.75 1073.5,-165.75 1073.5,-185"/>
<text text-anchor="middle" x="1029.88" y="-171.5" font-family="Helvetica,sans-Serif" font-size="10.00">TGRSIOptions.h</text>
</a>
</g>
</g>
<!-- Node1&#45;&gt;Node39 -->
<g id="edge48_Node000001_Node000039" class="edge">
<title>Node1&#45;&gt;Node39</title>
<g id="a_edge48_Node000001_Node000039"><a xlink:title=" ">
<path fill="none" stroke="#63b8ff" d="M710.09,-221.19C782.85,-210.99 904.23,-193.98 974.67,-184.11"/>
<polygon fill="#63b8ff" stroke="#63b8ff" points="975.03,-187.6 984.44,-182.74 974.05,-180.66 975.03,-187.6"/>
</a>
</g>
</g>
<!-- Node3 -->
<g id="Node000003" class="node">
<title>Node3</title>
<g id="a_Node000003"><a xlink:title=" ">
<polygon fill="#e0e0e0" stroke="#999999" points="507.38,-19.25 464.38,-19.25 464.38,0 507.38,0 507.38,-19.25"/>
<text text-anchor="middle" x="485.88" y="-5.75" font-family="Helvetica,sans-Serif" font-size="10.00">vector</text>
</a>
</g>
</g>
<!-- Node2&#45;&gt;Node3 -->
<g id="edge2_Node000002_Node000003" class="edge">
<title>Node2&#45;&gt;Node3</title>
<g id="a_edge2_Node000002_Node000003"><a xlink:title=" ">
<path fill="none" stroke="#63b8ff" d="M651.36,-165.3C654.37,-143.45 658.76,-87.35 630.88,-55.25 627.09,-50.89 560.35,-31.53 518.75,-19.79"/>
<polygon fill="#63b8ff" stroke="#63b8ff" points="519.79,-16.45 509.22,-17.11 517.89,-23.19 519.79,-16.45"/>
</a>
</g>
</g>
<!-- Node4 -->
<g id="Node000004" class="node">
<title>Node4</title>
<g id="a_Node000004"><a xlink:title=" ">
<polygon fill="#e0e0e0" stroke="#999999" points="622.25,-74.5 539.5,-74.5 539.5,-55.25 622.25,-55.25 622.25,-74.5"/>
<text text-anchor="middle" x="580.88" y="-61" font-family="Helvetica,sans-Serif" font-size="10.00">unordered_map</text>
</a>
</g>
</g>
<!-- Node2&#45;&gt;Node4 -->
<g id="edge3_Node000002_Node000004" class="edge">
<title>Node2&#45;&gt;Node4</title>
<g id="a_edge3_Node000002_Node000004"><a xlink:title=" ">
<path fill="none" stroke="#63b8ff" d="M644.23,-165.5C633.01,-147.85 607.7,-108.05 592.69,-84.45"/>
<polygon fill="#63b8ff" stroke="#63b8ff" points="595.74,-82.71 587.42,-76.15 589.83,-86.47 595.74,-82.71"/>
</a>
</g>
</g>
<!-- Node5 -->
<g id="Node000005" class="node">
<title>Node5</title>
<g id="a_Node000005"><a xlink:title=" ">
<polygon fill="#e0e0e0" stroke="#999999" points="1091.88,-74.5 1033.88,-74.5 1033.88,-55.25 1091.88,-55.25 1091.88,-74.5"/>
<text text-anchor="middle" x="1062.88" y="-61" font-family="Helvetica,sans-Serif" font-size="10.00">TObject.h</text>
</a>
</g>
</g>
<!-- Node2&#45;&gt;Node5 -->
<g id="edge4_Node000002_Node000005" class="edge">
<title>Node2&#45;&gt;Node5</title>
<g id="a_edge4_Node000002_Node000005"><a xlink:title=" ">
<path fill="none" stroke="#63b8ff" d="M706,-170.61C764.14,-165.54 857.06,-154.17 933.88,-129.75 972.22,-117.56 1013.36,-95.44 1038.61,-80.7"/>
<polygon fill="#63b8ff" stroke="#63b8ff" points="1040.29,-83.77 1047.1,-75.66 1036.72,-77.75 1040.29,-83.77"/>
</a>
</g>
</g>
<!-- Node2&#45;&gt;Node6 -->
<g id="edge5_Node000002_Node000006" class="edge">
<title>Node2&#45;&gt;Node6</title>
<g id="a_edge5_Node000002_Node000006"><a xlink:title=" ">
<path fill="none" stroke="#63b8ff" d="M598.14,-165.28C539.75,-155.02 445.78,-138.51 390.82,-128.85"/>
<polygon fill="#63b8ff" stroke="#63b8ff" points="391.65,-125.44 381.2,-127.16 390.44,-132.33 391.65,-125.44"/>
</a>
</g>
</g>
<!-- Node17 -->
<g id="Node000017" class="node">
<title>Node17</title>
<g id="a_Node000017"><a xlink:href="_t_singleton_8h.html" target="_top" xlink:title=" ">
<polygon fill="white" stroke="#666666" points="924.88,-129.75 854.88,-129.75 854.88,-110.5 924.88,-110.5 924.88,-129.75"/>
<text text-anchor="middle" x="889.88" y="-116.25" font-family="Helvetica,sans-Serif" font-size="10.00">TSingleton.h</text>
</a>
</g>
</g>
<!-- Node2&#45;&gt;Node17 -->
<g id="edge19_Node000002_Node000017" class="edge">
<title>Node2&#45;&gt;Node17</title>
<g id="a_edge19_Node000002_Node000017"><a xlink:title=" ">
<path fill="none" stroke="#63b8ff" d="M690.86,-165.28C733.23,-155.88 799.25,-141.23 843.5,-131.41"/>
<polygon fill="#63b8ff" stroke="#63b8ff" points="844.05,-134.88 853.06,-129.29 842.54,-128.04 844.05,-134.88"/>
</a>
</g>
</g>
<!-- Node6&#45;&gt;Node4 -->
<g id="edge9_Node000006_Node000004" class="edge">
<title>Node6&#45;&gt;Node4</title>
<g id="a_edge9_Node000006_Node000004"><a xlink:title=" ">
<path fill="none" stroke="#63b8ff" d="M379.42,-111.72C418.31,-102.87 483.88,-87.95 529.62,-77.54"/>
<polygon fill="#63b8ff" stroke="#63b8ff" points="530.34,-80.97 539.31,-75.33 528.78,-74.14 530.34,-80.97"/>
</a>
</g>
</g>
<!-- Node6&#45;&gt;Node7 -->
<g id="edge6_Node000006_Node000007" class="edge">
<title>Node6&#45;&gt;Node7</title>
<g id="a_edge6_Node000006_Node000007"><a xlink:title=" ">
<path fill="none" stroke="#63b8ff" d="M314.01,-118.57C249.99,-116.38 118.5,-105.78 161.88,-55.25 194.34,-17.43 328.81,-29.21 394.62,-19.09"/>
<polygon fill="#63b8ff" stroke="#63b8ff" points="395.02,-22.58 404.2,-17.29 393.73,-15.7 395.02,-22.58"/>
</a>
</g>
</g>
<!-- Node8 -->
<g id="Node000008" class="node">
<title>Node8</title>
<g id="a_Node000008"><a xlink:title=" ">
<polygon fill="#e0e0e0" stroke="#999999" points="58.38,-74.5 15.38,-74.5 15.38,-55.25 58.38,-55.25 58.38,-74.5"/>
<text text-anchor="middle" x="36.88" y="-61" font-family="Helvetica,sans-Serif" font-size="10.00">cmath</text>
</a>
</g>
</g>
<!-- Node6&#45;&gt;Node8 -->
<g id="edge7_Node000006_Node000008" class="edge">
<title>Node6&#45;&gt;Node8</title>
<g id="a_edge7_Node000006_Node000008"><a xlink:title=" ">
<path fill="none" stroke="#63b8ff" d="M314.01,-115.09C263.61,-108.64 164.02,-94.86 69.96,-74.73"/>
<polygon fill="#63b8ff" stroke="#63b8ff" points="70.81,-71.33 60.3,-72.63 69.33,-78.17 70.81,-71.33"/>
</a>
</g>
</g>
<!-- Node9 -->
<g id="Node000009" class="node">
<title>Node9</title>
<g id="a_Node000009"><a xlink:title=" ">
<polygon fill="#e0e0e0" stroke="#999999" points="115.13,-74.5 76.63,-74.5 76.63,-55.25 115.13,-55.25 115.13,-74.5"/>
<text text-anchor="middle" x="95.88" y="-61" font-family="Helvetica,sans-Serif" font-size="10.00">utility</text>
</a>
</g>
</g>
<!-- Node6&#45;&gt;Node9 -->
<g id="edge8_Node000006_Node000009" class="edge">
<title>Node6&#45;&gt;Node9</title>
<g id="a_edge8_Node000006_Node000009"><a xlink:title=" ">
<path fill="none" stroke="#63b8ff" d="M314.26,-113.01C271.53,-104.88 194.35,-89.74 128.88,-74.5 128.06,-74.31 127.22,-74.11 126.39,-73.91"/>
<polygon fill="#63b8ff" stroke="#63b8ff" points="127.4,-70.56 116.85,-71.52 125.7,-77.35 127.4,-70.56"/>
</a>
</g>
</g>
<!-- Node10 -->
<g id="Node000010" class="node">
<title>Node10</title>
<g id="a_Node000010"><a xlink:title=" ">
<polygon fill="#e0e0e0" stroke="#999999" points="586.38,-19.25 525.38,-19.25 525.38,0 586.38,0 586.38,-19.25"/>
<text text-anchor="middle" x="555.88" y="-5.75" font-family="Helvetica,sans-Serif" font-size="10.00">TNamed.h</text>
</a>
</g>
</g>
<!-- Node6&#45;&gt;Node10 -->
<g id="edge10_Node000006_Node000010" class="edge">
<title>Node6&#45;&gt;Node10</title>
<g id="a_edge10_Node000006_Node000010"><a xlink:title=" ">
<path fill="none" stroke="#63b8ff" d="M379.52,-113.94C410.44,-107.95 457.28,-96.05 492.88,-74.5 512.8,-62.44 530.94,-42.68 542.58,-28.33"/>
<polygon fill="#63b8ff" stroke="#63b8ff" points="545.22,-30.64 548.62,-20.61 539.7,-26.33 545.22,-30.64"/>
</a>
</g>
</g>
<!-- Node11 -->
<g id="Node000011" class="node">
<title>Node11</title>
<g id="a_Node000011"><a xlink:title=" ">
<polygon fill="#e0e0e0" stroke="#999999" points="220.38,-74.5 171.38,-74.5 171.38,-55.25 220.38,-55.25 220.38,-74.5"/>
<text text-anchor="middle" x="195.88" y="-61" font-family="Helvetica,sans-Serif" font-size="10.00">TTree.h</text>
</a>
</g>
</g>
<!-- Node6&#45;&gt;Node11 -->
<g id="edge11_Node000006_Node000011" class="edge">
<title>Node6&#45;&gt;Node11</title>
<g id="a_edge11_Node000006_Node000011"><a xlink:title=" ">
<path fill="none" stroke="#63b8ff" d="M321.26,-110.09C296.64,-101.41 259.19,-88.2 231.63,-78.48"/>
<polygon fill="#63b8ff" stroke="#63b8ff" points="232.89,-75.21 222.29,-75.19 230.56,-81.82 232.89,-75.21"/>
</a>
</g>
</g>
<!-- Node12 -->
<g id="Node000012" class="node">
<title>Node12</title>
<g id="a_Node000012"><a xlink:title=" ">
<polygon fill="#e0e0e0" stroke="#999999" points="293.75,-74.5 238,-74.5 238,-55.25 293.75,-55.25 293.75,-74.5"/>
<text text-anchor="middle" x="265.88" y="-61" font-family="Helvetica,sans-Serif" font-size="10.00">TGraph.h</text>
</a>
</g>
</g>
<!-- Node6&#45;&gt;Node12 -->
<g id="edge12_Node000006_Node000012" class="edge">
<title>Node6&#45;&gt;Node12</title>
<g id="a_edge12_Node000006_Node000012"><a xlink:title=" ">
<path fill="none" stroke="#63b8ff" d="M333.14,-110.09C321.15,-102.21 303.51,-90.61 289.3,-81.27"/>
<polygon fill="#63b8ff" stroke="#63b8ff" points="291.23,-78.35 280.95,-75.78 287.39,-84.2 291.23,-78.35"/>
</a>
</g>
</g>
<!-- Node13 -->
<g id="Node000013" class="node">
<title>Node13</title>
<g id="a_Node000013"><a xlink:title=" ">
<polygon fill="#e0e0e0" stroke="#999999" points="381.5,-74.5 312.25,-74.5 312.25,-55.25 381.5,-55.25 381.5,-74.5"/>
<text text-anchor="middle" x="346.88" y="-61" font-family="Helvetica,sans-Serif" font-size="10.00">TClassRef.h</text>
</a>
</g>
</g>
<!-- Node6&#45;&gt;Node13 -->
<g id="edge13_Node000006_Node000013" class="edge">
<title>Node6&#45;&gt;Node13</title>
<g id="a_edge13_Node000006_Node000013"><a xlink:title=" ">
<path fill="none" stroke="#63b8ff" d="M346.88,-110.33C346.88,-103.82 346.88,-94.67 346.88,-86.37"/>
<polygon fill="#63b8ff" stroke="#63b8ff" points="350.38,-86.37 346.88,-76.37 343.38,-86.37 350.38,-86.37"/>
</a>
</g>
</g>
<!-- Node14 -->
<g id="Node000014" class="node">
<title>Node14</title>
<g id="a_Node000014"><a xlink:href="_t_priority_value_8h.html" target="_top" xlink:title=" ">
<polygon fill="white" stroke="#666666" points="484,-74.5 399.75,-74.5 399.75,-55.25 484,-55.25 484,-74.5"/>
<text text-anchor="middle" x="441.88" y="-61" font-family="Helvetica,sans-Serif" font-size="10.00">TPriorityValue.h</text>
</a>
</g>
</g>
<!-- Node6&#45;&gt;Node14 -->
<g id="edge14_Node000006_Node000014" class="edge">
<title>Node6&#45;&gt;Node14</title>
<g id="a_edge14_Node000006_Node000014"><a xlink:title=" ">
<path fill="none" stroke="#63b8ff" d="M362.99,-110.09C377.46,-101.98 398.96,-89.93 415.86,-80.46"/>
<polygon fill="#63b8ff" stroke="#63b8ff" points="417.35,-83.64 424.36,-75.69 413.93,-77.53 417.35,-83.64"/>
</a>
</g>
</g>
<!-- Node14&#45;&gt;Node3 -->
<g id="edge17_Node000014_Node000003" class="edge">
<title>Node14&#45;&gt;Node3</title>
<g id="a_edge17_Node000014_Node000003"><a xlink:title=" ">
<path fill="none" stroke="#63b8ff" d="M449.14,-55.08C455.16,-47.8 463.89,-37.23 471.34,-28.23"/>
<polygon fill="#63b8ff" stroke="#63b8ff" points="473.82,-30.71 477.49,-20.78 468.42,-26.26 473.82,-30.71"/>
</a>
</g>
</g>
<!-- Node14&#45;&gt;Node7 -->
<g id="edge16_Node000014_Node000007" class="edge">
<title>Node14&#45;&gt;Node7</title>
<g id="a_edge16_Node000014_Node000007"><a xlink:title=" ">
<path fill="none" stroke="#63b8ff" d="M439.24,-55.08C437.23,-48.42 434.4,-38.99 431.86,-30.53"/>
<polygon fill="#63b8ff" stroke="#63b8ff" points="435.24,-29.63 429.01,-21.06 428.54,-31.64 435.24,-29.63"/>
</a>
</g>
</g>
<!-- Node15 -->
<g id="Node000015" class="node">
<title>Node15</title>
<g id="a_Node000015"><a xlink:title=" ">
<polygon fill="#e0e0e0" stroke="#999999" points="387.5,-19.25 336.25,-19.25 336.25,0 387.5,0 387.5,-19.25"/>
<text text-anchor="middle" x="361.88" y="-5.75" font-family="Helvetica,sans-Serif" font-size="10.00">ostream</text>
</a>
</g>
</g>
<!-- Node14&#45;&gt;Node15 -->
<g id="edge15_Node000014_Node000015" class="edge">
<title>Node14&#45;&gt;Node15</title>
<g id="a_edge15_Node000014_Node000015"><a xlink:title=" ">
<path fill="none" stroke="#63b8ff" d="M428.31,-54.84C416.47,-46.96 399.04,-35.36 385.01,-26.02"/>
<polygon fill="#63b8ff" stroke="#63b8ff" points="387.04,-23.17 376.78,-20.54 383.16,-29 387.04,-23.17"/>
</a>
</g>
</g>
<!-- Node16 -->
<g id="Node000016" class="node">
<title>Node16</title>
<g id="a_Node000016"><a xlink:title=" ">
<polygon fill="#e0e0e0" stroke="#999999" points="740.5,-19.25 695.25,-19.25 695.25,0 740.5,0 740.5,-19.25"/>
<text text-anchor="middle" x="717.88" y="-5.75" font-family="Helvetica,sans-Serif" font-size="10.00">cstdint</text>
</a>
</g>
</g>
<!-- Node14&#45;&gt;Node16 -->
<g id="edge18_Node000014_Node000016" class="edge">
<title>Node14&#45;&gt;Node16</title>
<g id="a_edge18_Node000014_Node000016"><a xlink:title=" ">
<path fill="none" stroke="#63b8ff" d="M484.41,-57.19C530.98,-49.63 608.07,-36.4 683.72,-19.58"/>
<polygon fill="#63b8ff" stroke="#63b8ff" points="684.4,-23.01 693.39,-17.4 682.86,-16.18 684.4,-23.01"/>
</a>
</g>
</g>
<!-- Node17&#45;&gt;Node5 -->
<g id="edge21_Node000017_Node000005" class="edge">
<title>Node17&#45;&gt;Node5</title>
<g id="a_edge21_Node000017_Node000005"><a xlink:title=" ">
<path fill="none" stroke="#63b8ff" d="M919.23,-110.09C947.68,-101.33 991.08,-87.98 1022.73,-78.23"/>
<polygon fill="#63b8ff" stroke="#63b8ff" points="1023.41,-81.68 1031.94,-75.4 1021.35,-74.99 1023.41,-81.68"/>
</a>
</g>
</g>
<!-- Node18 -->
<g id="Node000018" class="node">
<title>Node18</title>
<g id="a_Node000018"><a xlink:title=" ">
<polygon fill="#e0e0e0" stroke="#999999" points="940.63,-19.25 887.13,-19.25 887.13,0 940.63,0 940.63,-19.25"/>
<text text-anchor="middle" x="913.88" y="-5.75" font-family="Helvetica,sans-Serif" font-size="10.00">iostream</text>
</a>
</g>
</g>
<!-- Node17&#45;&gt;Node18 -->
<g id="edge20_Node000017_Node000018" class="edge">
<title>Node17&#45;&gt;Node18</title>
<g id="a_edge20_Node000017_Node000018"><a xlink:title=" ">
<path fill="none" stroke="#63b8ff" d="M925.36,-112.76C947.14,-106.83 973.38,-95.57 986.88,-74.5 1000.23,-53.66 974.18,-35.69 949.58,-24.17"/>
<polygon fill="#63b8ff" stroke="#63b8ff" points="951.19,-21.05 940.62,-20.24 948.38,-27.46 951.19,-21.05"/>
</a>
</g>
</g>
<!-- Node19 -->
<g id="Node000019" class="node">
<title>Node19</title>
<g id="a_Node000019"><a xlink:title=" ">
<polygon fill="#e0e0e0" stroke="#999999" points="977.75,-74.5 910,-74.5 910,-55.25 977.75,-55.25 977.75,-74.5"/>
<text text-anchor="middle" x="943.88" y="-61" font-family="Helvetica,sans-Serif" font-size="10.00">TDirectory.h</text>
</a>
</g>
</g>
<!-- Node17&#45;&gt;Node19 -->
<g id="edge22_Node000017_Node000019" class="edge">
<title>Node17&#45;&gt;Node19</title>
<g id="a_edge22_Node000017_Node000019"><a xlink:title=" ">
<path fill="none" stroke="#63b8ff" d="M898.8,-110.33C906.33,-102.9 917.35,-92.04 926.6,-82.91"/>
<polygon fill="#63b8ff" stroke="#63b8ff" points="929.03,-85.44 933.69,-75.92 924.11,-80.45 929.03,-85.44"/>
</a>
</g>
</g>
<!-- Node20 -->
<g id="Node000020" class="node">
<title>Node20</title>
<g id="a_Node000020"><a xlink:title=" ">
<polygon fill="#e0e0e0" stroke="#999999" points="1267.5,-74.5 1222.25,-74.5 1222.25,-55.25 1267.5,-55.25 1267.5,-74.5"/>
<text text-anchor="middle" x="1244.88" y="-61" font-family="Helvetica,sans-Serif" font-size="10.00">TFile.h</text>
</a>
</g>
</g>
<!-- Node17&#45;&gt;Node20 -->
<g id="edge23_Node000017_Node000020" class="edge">
<title>Node17&#45;&gt;Node20</title>
<g id="a_edge23_Node000017_Node000020"><a xlink:title=" ">
<path fill="none" stroke="#63b8ff" d="M925.02,-115.74C982.63,-109.87 1100.94,-96.49 1210.62,-74.72"/>
<polygon fill="#63b8ff" stroke="#63b8ff" points="1211.3,-78.15 1220.41,-72.74 1209.91,-71.29 1211.3,-78.15"/>
</a>
</g>
</g>
<!-- Node21 -->
<g id="Node000021" class="node">
<title>Node21</title>
<g id="a_Node000021"><a xlink:title=" ">
<polygon fill="#e0e0e0" stroke="#999999" points="827.88,-74.5 781.88,-74.5 781.88,-55.25 827.88,-55.25 827.88,-74.5"/>
<text text-anchor="middle" x="804.88" y="-61" font-family="Helvetica,sans-Serif" font-size="10.00">TList.h</text>
</a>
</g>
</g>
<!-- Node17&#45;&gt;Node21 -->
<g id="edge24_Node000017_Node000021" class="edge">
<title>Node17&#45;&gt;Node21</title>
<g id="a_edge24_Node000017_Node000021"><a xlink:title=" ">
<path fill="none" stroke="#63b8ff" d="M875.46,-110.09C862.76,-102.14 844.01,-90.39 829.02,-81"/>
<polygon fill="#63b8ff" stroke="#63b8ff" points="830.98,-78.1 820.65,-75.76 827.27,-84.03 830.98,-78.1"/>
</a>
</g>
</g>
<!-- Node22 -->
<g id="Node000022" class="node">
<title>Node22</title>
<g id="a_Node000022"><a xlink:title=" ">
<polygon fill="#e0e0e0" stroke="#999999" points="891.88,-74.5 845.88,-74.5 845.88,-55.25 891.88,-55.25 891.88,-74.5"/>
<text text-anchor="middle" x="868.88" y="-61" font-family="Helvetica,sans-Serif" font-size="10.00">TKey.h</text>
</a>
</g>
</g>
<!-- Node17&#45;&gt;Node22 -->
<g id="edge25_Node000017_Node000022" class="edge">
<title>Node17&#45;&gt;Node22</title>
<g id="a_edge25_Node000017_Node000022"><a xlink:title=" ">
<path fill="none" stroke="#63b8ff" d="M886.41,-110.33C883.75,-103.59 879.98,-94.02 876.62,-85.49"/>
<polygon fill="#63b8ff" stroke="#63b8ff" points="879.9,-84.29 872.98,-76.27 873.39,-86.85 879.9,-84.29"/>
</a>
</g>
</g>
<!-- Node23 -->
<g id="Node000023" class="node">
<title>Node23</title>
<g id="a_Node000023"><a xlink:href="_globals_8h.html" target="_top" xlink:title=" ">
<polygon fill="white" stroke="#666666" points="1204.13,-74.5 1147.63,-74.5 1147.63,-55.25 1204.13,-55.25 1204.13,-74.5"/>
<text text-anchor="middle" x="1175.88" y="-61" font-family="Helvetica,sans-Serif" font-size="10.00">Globals.h</text>
</a>
</g>
</g>
<!-- Node17&#45;&gt;Node23 -->
<g id="edge26_Node000017_Node000023" class="edge">
<title>Node17&#45;&gt;Node23</title>
<g id="a_edge26_Node000017_Node000023"><a xlink:title=" ">
<path fill="none" stroke="#63b8ff" d="M925.24,-112.54C978.81,-102.57 1080.25,-83.68 1136.25,-73.25"/>
<polygon fill="#63b8ff" stroke="#63b8ff" points="1136.8,-76.71 1145.99,-71.44 1135.52,-69.83 1136.8,-76.71"/>
</a>
</g>
</g>
<!-- Node23&#45;&gt;Node7 -->
<g id="edge30_Node000023_Node000007" class="edge">
<title>Node23&#45;&gt;Node7</title>
<g id="a_edge30_Node000023_Node000007"><a xlink:title=" ">
<path fill="none" stroke="#63b8ff" d="M1147.43,-60.2C1133.43,-58.5 1116.29,-56.56 1100.88,-55.25 818.44,-31.15 740.92,-66.3 457.12,-18.96"/>
<polygon fill="#63b8ff" stroke="#63b8ff" points="458.01,-15.56 447.56,-17.35 456.84,-22.46 458.01,-15.56"/>
</a>
</g>
</g>
<!-- Node23&#45;&gt;Node16 -->
<g id="edge32_Node000023_Node000016" class="edge">
<title>Node23&#45;&gt;Node16</title>
<g id="a_edge32_Node000023_Node000016"><a xlink:title=" ">
<path fill="none" stroke="#63b8ff" d="M1147.49,-57.61C1142.95,-56.73 1138.3,-55.91 1133.88,-55.25 967.98,-30.51 920.6,-48.84 752.12,-19.33"/>
<polygon fill="#63b8ff" stroke="#63b8ff" points="752.79,-15.89 742.34,-17.58 751.56,-22.79 752.79,-15.89"/>
</a>
</g>
</g>
<!-- Node23&#45;&gt;Node18 -->
<g id="edge27_Node000023_Node000018" class="edge">
<title>Node23&#45;&gt;Node18</title>
<g id="a_edge27_Node000023_Node000018"><a xlink:title=" ">
<path fill="none" stroke="#63b8ff" d="M1147.42,-57.99C1142.89,-57.06 1138.26,-56.13 1133.88,-55.25 1055.27,-39.53 1032.6,-37.44 952.17,-19.9"/>
<polygon fill="#63b8ff" stroke="#63b8ff" points="952.98,-16.49 942.46,-17.77 951.48,-23.33 952.98,-16.49"/>
</a>
</g>
</g>
<!-- Node24 -->
<g id="Node000024" class="node">
<title>Node24</title>
<g id="a_Node000024"><a xlink:title=" ">
<polygon fill="#e0e0e0" stroke="#999999" points="1498.75,-19.25 1449,-19.25 1449,0 1498.75,0 1498.75,-19.25"/>
<text text-anchor="middle" x="1473.88" y="-5.75" font-family="Helvetica,sans-Serif" font-size="10.00">iomanip</text>
</a>
</g>
</g>
<!-- Node23&#45;&gt;Node24 -->
<g id="edge28_Node000023_Node000024" class="edge">
<title>Node23&#45;&gt;Node24</title>
<g id="a_edge28_Node000023_Node000024"><a xlink:title=" ">
<path fill="none" stroke="#63b8ff" d="M1204.52,-56.99C1207.34,-56.37 1210.16,-55.78 1212.88,-55.25 1309.6,-36.33 1337.86,-39.57 1437.5,-19.57"/>
<polygon fill="#63b8ff" stroke="#63b8ff" points="1438.11,-23.02 1447.2,-17.59 1436.71,-16.16 1438.11,-23.02"/>
</a>
</g>
</g>
<!-- Node25 -->
<g id="Node000025" class="node">
<title>Node25</title>
<g id="a_Node000025"><a xlink:title=" ">
<polygon fill="#e0e0e0" stroke="#999999" points="868.88,-19.25 810.88,-19.25 810.88,0 868.88,0 868.88,-19.25"/>
<text text-anchor="middle" x="839.88" y="-5.75" font-family="Helvetica,sans-Serif" font-size="10.00">stdexcept</text>
</a>
</g>
</g>
<!-- Node23&#45;&gt;Node25 -->
<g id="edge29_Node000023_Node000025" class="edge">
<title>Node23&#45;&gt;Node25</title>
<g id="a_edge29_Node000023_Node000025"><a xlink:title=" ">
<path fill="none" stroke="#63b8ff" d="M1147.46,-57.79C1142.93,-56.89 1138.28,-56.01 1133.88,-55.25 1024.2,-36.3 992.83,-39.74 880.42,-19.58"/>
<polygon fill="#63b8ff" stroke="#63b8ff" points="881.24,-16.17 870.78,-17.83 879.99,-23.06 881.24,-16.17"/>
</a>
</g>
</g>
<!-- Node26 -->
<g id="Node000026" class="node">
<title>Node26</title>
<g id="a_Node000026"><a xlink:title=" ">
<polygon fill="#e0e0e0" stroke="#999999" points="1559,-19.25 1516.75,-19.25 1516.75,0 1559,0 1559,-19.25"/>
<text text-anchor="middle" x="1537.88" y="-5.75" font-family="Helvetica,sans-Serif" font-size="10.00">cstdio</text>
</a>
</g>
</g>
<!-- Node23&#45;&gt;Node26 -->
<g id="edge31_Node000023_Node000026" class="edge">
<title>Node23&#45;&gt;Node26</title>
<g id="a_edge31_Node000023_Node000026"><a xlink:title=" ">
<path fill="none" stroke="#63b8ff" d="M1204.5,-56.88C1207.32,-56.29 1210.15,-55.73 1212.88,-55.25 1339.38,-32.85 1376.43,-44.88 1505.26,-19.49"/>
<polygon fill="#63b8ff" stroke="#63b8ff" points="1505.75,-22.96 1514.87,-17.56 1504.37,-16.1 1505.75,-22.96"/>
</a>
</g>
</g>
<!-- Node27 -->
<g id="Node000027" class="node">
<title>Node27</title>
<g id="a_Node000027"><a xlink:title=" ">
<polygon fill="#e0e0e0" stroke="#999999" points="1621.13,-19.25 1576.63,-19.25 1576.63,0 1621.13,0 1621.13,-19.25"/>
<text text-anchor="middle" x="1598.88" y="-5.75" font-family="Helvetica,sans-Serif" font-size="10.00">cstdlib</text>
</a>
</g>
</g>
<!-- Node23&#45;&gt;Node27 -->
<g id="edge33_Node000023_Node000027" class="edge">
<title>Node23&#45;&gt;Node27</title>
<g id="a_edge33_Node000023_Node000027"><a xlink:title=" ">
<path fill="none" stroke="#63b8ff" d="M1204.49,-56.82C1207.31,-56.24 1210.15,-55.71 1212.88,-55.25 1365.8,-29.78 1410.06,-47.76 1565.41,-19.42"/>
<polygon fill="#63b8ff" stroke="#63b8ff" points="1565.62,-22.94 1574.81,-17.66 1564.34,-16.05 1565.62,-22.94"/>
</a>
</g>
</g>
<!-- Node28 -->
<g id="Node000028" class="node">
<title>Node28</title>
<g id="a_Node000028"><a xlink:title=" ">
<polygon fill="#e0e0e0" stroke="#999999" points="1698.63,-19.25 1639.13,-19.25 1639.13,0 1698.63,0 1698.63,-19.25"/>
<text text-anchor="middle" x="1668.88" y="-5.75" font-family="Helvetica,sans-Serif" font-size="10.00">execinfo.h</text>
</a>
</g>
</g>
<!-- Node23&#45;&gt;Node28 -->
<g id="edge34_Node000023_Node000028" class="edge">
<title>Node23&#45;&gt;Node28</title>
<g id="a_edge34_Node000023_Node000028"><a xlink:title=" ">
<path fill="none" stroke="#63b8ff" d="M1204.48,-56.78C1207.31,-56.21 1210.14,-55.68 1212.88,-55.25 1393.01,-26.63 1444.02,-46.58 1627.59,-19.39"/>
<polygon fill="#63b8ff" stroke="#63b8ff" points="1627.86,-22.89 1637.22,-17.93 1626.81,-15.97 1627.86,-22.89"/>
</a>
</g>
</g>
<!-- Node29 -->
<g id="Node000029" class="node">
<title>Node29</title>
<g id="a_Node000029"><a xlink:title=" ">
<polygon fill="#e0e0e0" stroke="#999999" points="1767.13,-19.25 1716.63,-19.25 1716.63,0 1767.13,0 1767.13,-19.25"/>
<text text-anchor="middle" x="1741.88" y="-5.75" font-family="Helvetica,sans-Serif" font-size="10.00">cxxabi.h</text>
</a>
</g>
</g>
<!-- Node23&#45;&gt;Node29 -->
<g id="edge35_Node000023_Node000029" class="edge">
<title>Node23&#45;&gt;Node29</title>
<g id="a_edge35_Node000023_Node000029"><a xlink:title=" ">
<path fill="none" stroke="#63b8ff" d="M1204.48,-56.74C1207.3,-56.18 1210.14,-55.67 1212.88,-55.25 1427.34,-22.66 1488.13,-53.45 1705.23,-19.39"/>
<polygon fill="#63b8ff" stroke="#63b8ff" points="1705.54,-22.89 1714.87,-17.85 1704.44,-15.97 1705.54,-22.89"/>
</a>
</g>
</g>
<!-- Node30 -->
<g id="Node000030" class="node">
<title>Node30</title>
<g id="a_Node000030"><a xlink:title=" ">
<polygon fill="#e0e0e0" stroke="#999999" points="1009.5,-19.25 958.25,-19.25 958.25,0 1009.5,0 1009.5,-19.25"/>
<text text-anchor="middle" x="983.88" y="-5.75" font-family="Helvetica,sans-Serif" font-size="10.00">sstream</text>
</a>
</g>
</g>
<!-- Node23&#45;&gt;Node30 -->
<g id="edge36_Node000023_Node000030" class="edge">
<title>Node23&#45;&gt;Node30</title>
<g id="a_edge36_Node000023_Node000030"><a xlink:title=" ">
<path fill="none" stroke="#63b8ff" d="M1147.13,-55.9C1113.38,-46.54 1057.35,-31 1020.51,-20.78"/>
<polygon fill="#63b8ff" stroke="#63b8ff" points="1021.77,-17.5 1011.2,-18.2 1019.9,-24.25 1021.77,-17.5"/>
</a>
</g>
</g>
<!-- Node31 -->
<g id="Node000031" class="node">
<title>Node31</title>
<g id="a_Node000031"><a xlink:title=" ">
<polygon fill="#e0e0e0" stroke="#999999" points="1064.38,-19.25 1027.38,-19.25 1027.38,0 1064.38,0 1064.38,-19.25"/>
<text text-anchor="middle" x="1045.88" y="-5.75" font-family="Helvetica,sans-Serif" font-size="10.00">array</text>
</a>
</g>
</g>
<!-- Node23&#45;&gt;Node31 -->
<g id="edge37_Node000023_Node000031" class="edge">
<title>Node23&#45;&gt;Node31</title>
<g id="a_edge37_Node000023_Node000031"><a xlink:title=" ">
<path fill="none" stroke="#63b8ff" d="M1153.83,-54.84C1132.19,-45.98 1099.06,-32.41 1075.21,-22.64"/>
<polygon fill="#63b8ff" stroke="#63b8ff" points="1076.64,-19.44 1066.06,-18.89 1073.99,-25.92 1076.64,-19.44"/>
</a>
</g>
</g>
<!-- Node32 -->
<g id="Node000032" class="node">
<title>Node32</title>
<g id="a_Node000032"><a xlink:title=" ">
<polygon fill="#e0e0e0" stroke="#999999" points="1133.13,-19.25 1082.63,-19.25 1082.63,0 1133.13,0 1133.13,-19.25"/>
<text text-anchor="middle" x="1107.88" y="-5.75" font-family="Helvetica,sans-Serif" font-size="10.00">memory</text>
</a>
</g>
</g>
<!-- Node23&#45;&gt;Node32 -->
<g id="edge38_Node000023_Node000032" class="edge">
<title>Node23&#45;&gt;Node32</title>
<g id="a_edge38_Node000023_Node000032"><a xlink:title=" ">
<path fill="none" stroke="#63b8ff" d="M1164.34,-54.84C1154.42,-47.07 1139.87,-35.67 1128.02,-26.4"/>
<polygon fill="#63b8ff" stroke="#63b8ff" points="1130.47,-23.87 1120.44,-20.46 1126.15,-29.38 1130.47,-23.87"/>
</a>
</g>
</g>
<!-- Node33 -->
<g id="Node000033" class="node">
<title>Node33</title>
<g id="a_Node000033"><a xlink:title=" ">
<polygon fill="#e0e0e0" stroke="#999999" points="1200.75,-19.25 1151,-19.25 1151,0 1200.75,0 1200.75,-19.25"/>
<text text-anchor="middle" x="1175.88" y="-5.75" font-family="Helvetica,sans-Serif" font-size="10.00">unistd.h</text>
</a>
</g>
</g>
<!-- Node23&#45;&gt;Node33 -->
<g id="edge39_Node000023_Node000033" class="edge">
<title>Node23&#45;&gt;Node33</title>
<g id="a_edge39_Node000023_Node000033"><a xlink:title=" ">
<path fill="none" stroke="#63b8ff" d="M1175.88,-55.08C1175.88,-48.57 1175.88,-39.42 1175.88,-31.12"/>
<polygon fill="#63b8ff" stroke="#63b8ff" points="1179.38,-31.12 1175.88,-21.12 1172.38,-31.12 1179.38,-31.12"/>
</a>
</g>
</g>
<!-- Node34 -->
<g id="Node000034" class="node">
<title>Node34</title>
<g id="a_Node000034"><a xlink:title=" ">
<polygon fill="#e0e0e0" stroke="#999999" points="793.25,-19.25 758.5,-19.25 758.5,0 793.25,0 793.25,-19.25"/>
<text text-anchor="middle" x="775.88" y="-5.75" font-family="Helvetica,sans-Serif" font-size="10.00">map</text>
</a>
</g>
</g>
<!-- Node23&#45;&gt;Node34 -->
<g id="edge40_Node000023_Node000034" class="edge">
<title>Node23&#45;&gt;Node34</title>
<g id="a_edge40_Node000023_Node000034"><a xlink:title=" ">
<path fill="none" stroke="#63b8ff" d="M1147.48,-57.66C1142.94,-56.78 1138.29,-55.94 1133.88,-55.25 990.82,-32.86 948.94,-49.91 804.67,-19.45"/>
<polygon fill="#63b8ff" stroke="#63b8ff" points="805.64,-16.08 795.12,-17.39 804.16,-22.92 805.64,-16.08"/>
</a>
</g>
</g>
<!-- Node23&#45;&gt;Node35 -->
<g id="edge41_Node000023_Node000035" class="edge">
<title>Node23&#45;&gt;Node35</title>
<g id="a_edge41_Node000023_Node000035"><a xlink:title=" ">
<path fill="none" stroke="#63b8ff" d="M1204.47,-56.72C1207.3,-56.16 1210.14,-55.65 1212.88,-55.25 1457.3,-19.2 1526.19,-57.1 1773.94,-19.21"/>
<polygon fill="#63b8ff" stroke="#63b8ff" points="1774.27,-22.7 1783.61,-17.7 1773.19,-15.79 1774.27,-22.7"/>
</a>
</g>
</g>
<!-- Node36 -->
<g id="Node000036" class="node">
<title>Node36</title>
<g id="a_Node000036"><a xlink:title=" ">
<polygon fill="#e0e0e0" stroke="#999999" points="1274.75,-19.25 1219,-19.25 1219,0 1274.75,0 1274.75,-19.25"/>
<text text-anchor="middle" x="1246.88" y="-5.75" font-family="Helvetica,sans-Serif" font-size="10.00">algorithm</text>
</a>
</g>
</g>
<!-- Node23&#45;&gt;Node36 -->
<g id="edge42_Node000023_Node000036" class="edge">
<title>Node23&#45;&gt;Node36</title>
<g id="a_edge42_Node000023_Node000036"><a xlink:title=" ">
<path fill="none" stroke="#63b8ff" d="M1187.92,-54.84C1198.29,-47.07 1213.48,-35.67 1225.85,-26.4"/>
<polygon fill="#63b8ff" stroke="#63b8ff" points="1227.9,-29.23 1233.8,-20.43 1223.7,-23.63 1227.9,-29.23"/>
</a>
</g>
</g>
<!-- Node37 -->
<g id="Node000037" class="node">
<title>Node37</title>
<g id="a_Node000037"><a xlink:title=" ">
<polygon fill="#e0e0e0" stroke="#999999" points="1352.63,-19.25 1293.13,-19.25 1293.13,0 1352.63,0 1352.63,-19.25"/>
<text text-anchor="middle" x="1322.88" y="-5.75" font-family="Helvetica,sans-Serif" font-size="10.00">sys/wait.h</text>
</a>
</g>
</g>
<!-- Node23&#45;&gt;Node37 -->
<g id="edge43_Node000023_Node000037" class="edge">
<title>Node23&#45;&gt;Node37</title>
<g id="a_edge43_Node000023_Node000037"><a xlink:title=" ">
<path fill="none" stroke="#63b8ff" d="M1200.82,-54.84C1224.57,-46.24 1260.59,-33.19 1287.34,-23.5"/>
<polygon fill="#63b8ff" stroke="#63b8ff" points="1288.19,-26.91 1296.4,-20.22 1285.8,-20.33 1288.19,-26.91"/>
</a>
</g>
</g>
<!-- Node38 -->
<g id="Node000038" class="node">
<title>Node38</title>
<g id="a_Node000038"><a xlink:title=" ">
<polygon fill="#e0e0e0" stroke="#999999" points="1431,-19.25 1370.75,-19.25 1370.75,0 1431,0 1431,-19.25"/>
<text text-anchor="middle" x="1400.88" y="-5.75" font-family="Helvetica,sans-Serif" font-size="10.00">sys/prctl.h</text>
</a>
</g>
</g>
<!-- Node23&#45;&gt;Node38 -->
<g id="edge44_Node000023_Node000038" class="edge">
<title>Node23&#45;&gt;Node38</title>
<g id="a_edge44_Node000023_Node000038"><a xlink:title=" ">
<path fill="none" stroke="#63b8ff" d="M1204.38,-57.13C1243.54,-47.86 1314.25,-31.13 1359.31,-20.46"/>
<polygon fill="#63b8ff" stroke="#63b8ff" points="1360.06,-23.88 1368.99,-18.17 1358.45,-17.07 1360.06,-23.88"/>
</a>
</g>
</g>
<!-- Node39&#45;&gt;Node5 -->
<g id="edge49_Node000039_Node000005" class="edge">
<title>Node39&#45;&gt;Node5</title>
<g id="a_edge49_Node000039_Node000005"><a xlink:title=" ">
<path fill="none" stroke="#63b8ff" d="M1023.01,-165.42C1014.23,-152.81 1001.15,-129.25 1009.88,-110.5 1015.45,-98.52 1026.01,-88.6 1036.24,-81.18"/>
<polygon fill="#63b8ff" stroke="#63b8ff" points="1038.12,-84.13 1044.52,-75.69 1034.25,-78.3 1038.12,-84.13"/>
</a>
</g>
</g>
<!-- Node39&#45;&gt;Node20 -->
<g id="edge50_Node000039_Node000020" class="edge">
<title>Node39&#45;&gt;Node20</title>
<g id="a_edge50_Node000039_Node000020"><a xlink:title=" ">
<path fill="none" stroke="#63b8ff" d="M1073.6,-169.57C1124.43,-163.13 1204.17,-150.09 1225.88,-129.75 1237.9,-118.49 1242.42,-100.01 1244.08,-85.82"/>
<polygon fill="#63b8ff" stroke="#63b8ff" points="1247.54,-86.48 1244.79,-76.25 1240.55,-85.96 1247.54,-86.48"/>
</a>
</g>
</g>
<!-- Node40 -->
<g id="Node000040" class="node">
<title>Node40</title>
<g id="a_Node000040"><a xlink:href="_t_g_r_s_i_types_8h.html" target="_top" xlink:title=" ">
<polygon fill="white" stroke="#666666" points="1216.75,-129.75 1137,-129.75 1137,-110.5 1216.75,-110.5 1216.75,-129.75"/>
<text text-anchor="middle" x="1176.88" y="-116.25" font-family="Helvetica,sans-Serif" font-size="10.00">TGRSITypes.h</text>
</a>
</g>
</g>
<!-- Node39&#45;&gt;Node40 -->
<g id="edge51_Node000039_Node000040" class="edge">
<title>Node39&#45;&gt;Node40</title>
<g id="a_edge51_Node000039_Node000040"><a xlink:title=" ">
<path fill="none" stroke="#63b8ff" d="M1054.82,-165.34C1078.57,-156.74 1114.59,-143.69 1141.34,-134"/>
<polygon fill="#63b8ff" stroke="#63b8ff" points="1142.19,-137.41 1150.4,-130.72 1139.8,-130.83 1142.19,-137.41"/>
</a>
</g>
</g>
<!-- Node41 -->
<g id="Node000041" class="node">
<title>Node41</title>
<g id="a_Node000041"><a xlink:href="_t_analysis_options_8h.html" target="_top" xlink:title=" ">
<polygon fill="white" stroke="#666666" points="1118.88,-129.75 1018.88,-129.75 1018.88,-110.5 1118.88,-110.5 1118.88,-129.75"/>
<text text-anchor="middle" x="1068.88" y="-116.25" font-family="Helvetica,sans-Serif" font-size="10.00">TAnalysisOptions.h</text>
</a>
</g>
</g>
<!-- Node39&#45;&gt;Node41 -->
<g id="edge53_Node000039_Node000041" class="edge">
<title>Node39&#45;&gt;Node41</title>
<g id="a_edge53_Node000039_Node000041"><a xlink:title=" ">
<path fill="none" stroke="#63b8ff" d="M1036.32,-165.58C1041.54,-158.46 1049.07,-148.18 1055.57,-139.3"/>
<polygon fill="#63b8ff" stroke="#63b8ff" points="1058.32,-141.47 1061.4,-131.33 1052.67,-137.33 1058.32,-141.47"/>
</a>
</g>
</g>
<!-- Node42 -->
<g id="Node000042" class="node">
<title>Node42</title>
<g id="a_Node000042"><a xlink:href="_t_user_settings_8h.html" target="_top" xlink:title=" ">
<polygon fill="white" stroke="#666666" points="764.13,-74.5 677.63,-74.5 677.63,-55.25 764.13,-55.25 764.13,-74.5"/>
<text text-anchor="middle" x="720.88" y="-61" font-family="Helvetica,sans-Serif" font-size="10.00">TUserSettings.h</text>
</a>
</g>
</g>
<!-- Node39&#45;&gt;Node42 -->
<g id="edge56_Node000039_Node000042" class="edge">
<title>Node39&#45;&gt;Node42</title>
<g id="a_edge56_Node000039_Node000042"><a xlink:title=" ">
<path fill="none" stroke="#63b8ff" d="M985.9,-166.72C948.07,-159.43 892.42,-147.01 845.88,-129.75 809.49,-116.25 770,-94.83 745.35,-80.57"/>
<polygon fill="#63b8ff" stroke="#63b8ff" points="747.45,-77.74 737.06,-75.7 743.91,-83.78 747.45,-77.74"/>
</a>
</g>
</g>
<!-- Node40&#45;&gt;Node16 -->
<g id="edge52_Node000040_Node000016" class="edge">
<title>Node40&#45;&gt;Node16</title>
<g id="a_edge52_Node000040_Node000016"><a xlink:title=" ">
<path fill="none" stroke="#63b8ff" d="M1169.56,-110.21C1157.14,-95.81 1130.4,-67.75 1100.88,-55.25 959.86,4.47 906.59,-45.3 752.15,-19.3"/>
<polygon fill="#63b8ff" stroke="#63b8ff" points="752.8,-15.86 742.34,-17.56 751.57,-22.75 752.8,-15.86"/>
</a>
</g>
</g>
<!-- Node41&#45;&gt;Node5 -->
<g id="edge54_Node000041_Node000005" class="edge">
<title>Node41&#45;&gt;Node5</title>
<g id="a_edge54_Node000041_Node000005"><a xlink:title=" ">
<path fill="none" stroke="#63b8ff" d="M1067.89,-110.33C1067.15,-103.74 1066.1,-94.46 1065.16,-86.07"/>
<polygon fill="#63b8ff" stroke="#63b8ff" points="1068.66,-85.91 1064.06,-76.36 1061.7,-86.69 1068.66,-85.91"/>
</a>
</g>
</g>
<!-- Node41&#45;&gt;Node20 -->
<g id="edge55_Node000041_Node000020" class="edge">
<title>Node41&#45;&gt;Node20</title>
<g id="a_edge55_Node000041_Node000020"><a xlink:title=" ">
<path fill="none" stroke="#63b8ff" d="M1098.74,-110.09C1129.88,-100.67 1178.61,-85.93 1211.13,-76.09"/>
<polygon fill="#63b8ff" stroke="#63b8ff" points="1211.9,-79.51 1220.45,-73.27 1209.87,-72.81 1211.9,-79.51"/>
</a>
</g>
</g>
<!-- Node42&#45;&gt;Node3 -->
<g id="edge59_Node000042_Node000003" class="edge">
<title>Node42&#45;&gt;Node3</title>
<g id="a_edge59_Node000042_Node000003"><a xlink:title=" ">
<path fill="none" stroke="#63b8ff" d="M677.34,-55.09C638.27,-47.04 579.12,-34.45 518.74,-19.6"/>
<polygon fill="#63b8ff" stroke="#63b8ff" points="519.87,-16.28 509.32,-17.27 518.19,-23.07 519.87,-16.28"/>
</a>
</g>
</g>
<!-- Node42&#45;&gt;Node7 -->
<g id="edge58_Node000042_Node000007" class="edge">
<title>Node42&#45;&gt;Node7</title>
<g id="a_edge58_Node000042_Node000007"><a xlink:title=" ">
<path fill="none" stroke="#63b8ff" d="M677.44,-58.1C626.92,-51.04 540.84,-37.98 457.12,-19.28"/>
<polygon fill="#63b8ff" stroke="#63b8ff" points="458.13,-15.92 447.61,-17.12 456.59,-22.74 458.13,-15.92"/>
</a>
</g>
</g>
<!-- Node42&#45;&gt;Node10 -->
<g id="edge61_Node000042_Node000010" class="edge">
<title>Node42&#45;&gt;Node10</title>
<g id="a_edge61_Node000042_Node000010"><a xlink:title=" ">
<path fill="none" stroke="#63b8ff" d="M692.89,-54.84C665.87,-46.12 624.72,-32.84 594.57,-23.11"/>
<polygon fill="#63b8ff" stroke="#63b8ff" points="596.04,-19.91 585.45,-20.17 593.89,-26.57 596.04,-19.91"/>
</a>
</g>
</g>
<!-- Node42&#45;&gt;Node25 -->
<g id="edge60_Node000042_Node000025" class="edge">
<title>Node42&#45;&gt;Node25</title>
<g id="a_edge60_Node000042_Node000025"><a xlink:title=" ">
<path fill="none" stroke="#63b8ff" d="M741.07,-54.84C759.79,-46.47 787.9,-33.88 809.36,-24.28"/>
<polygon fill="#63b8ff" stroke="#63b8ff" points="810.51,-27.6 818.21,-20.32 807.65,-21.21 810.51,-27.6"/>
</a>
</g>
</g>
<!-- Node42&#45;&gt;Node34 -->
<g id="edge57_Node000042_Node000034" class="edge">
<title>Node42&#45;&gt;Node34</title>
<g id="a_edge57_Node000042_Node000034"><a xlink:title=" ">
<path fill="none" stroke="#63b8ff" d="M729.96,-55.08C737.72,-47.57 749.09,-36.56 758.58,-27.38"/>
<polygon fill="#63b8ff" stroke="#63b8ff" points="760.76,-30.13 765.51,-20.66 755.89,-25.1 760.76,-30.13"/>
</a>
</g>
</g>
<!-- Node43 -->
<g id="Node000043" class="node">
<title>Node43</title>
<g id="a_Node000043"><a xlink:title=" ">
<polygon fill="#e0e0e0" stroke="#999999" points="677,-19.25 604.75,-19.25 604.75,0 677,0 677,-19.25"/>
<text text-anchor="middle" x="640.88" y="-5.75" font-family="Helvetica,sans-Serif" font-size="10.00">TCollection.h</text>
</a>
</g>
</g>
<!-- Node42&#45;&gt;Node43 -->
<g id="edge62_Node000042_Node000043" class="edge">
<title>Node42&#45;&gt;Node43</title>
<g id="a_edge62_Node000042_Node000043"><a xlink:title=" ">
<path fill="none" stroke="#63b8ff" d="M707.31,-54.84C695.47,-46.96 678.04,-35.36 664.01,-26.02"/>
<polygon fill="#63b8ff" stroke="#63b8ff" points="666.04,-23.17 655.78,-20.54 662.16,-29 666.04,-23.17"/>
</a>
</g>
</g>
</g>
</svg>

<g id="navigator" transform="translate(0 0)" fill="#404254">
  <rect fill="#f2f5e9" fill-opacity="0.5" stroke="#606060" stroke-width=".5" x="0" y="0" width="60" height="60"/>
  <use id="zoomplus" xlink:href="#zoomPlus" x="17" y="9" onmousedown="handleZoom(evt,'in')"/>
  <use id="zoomminus" xlink:href="#zoomMin" x="42" y="9" onmousedown="handleZoom(evt,'out')"/>
  <use id="reset" xlink:href="#resetDef" x="30" y="36" onmousedown="handleReset()"/>
   <use id="arrowup" xlink:href="#arrowUp" x="0" y="0" onmousedown="handlePan(0,-1)"/>
  <use id="arrowright" xlink:href="#arrowRight" x="0" y="0" onmousedown="handlePan(1,0)"/>
  <use id="arrowdown" xlink:href="#arrowDown" x="0" y="0" onmousedown="handlePan(0,1)"/>
  <use id="arrowleft" xlink:href="#arrowLeft" x="0" y="0" onmousedown="handlePan(-1,0)"/>
</g>
<svg viewBox="0 0 15 15" width="100%" height="30px" preserveAspectRatio="xMaxYMin meet">
 <g id="arrow_out" transform="scale(0.3 0.3)">
  <a xlink:href="_t_sorting_diagnostics_8cxx__incl_org.svg" target="_base">
   <rect id="button" ry="5" rx="5" y="6" x="6" height="38" width="38"
        fill="#f2f5e9" fill-opacity="0.5" stroke="#606060" stroke-width="1.0"/>
   <path id="arrow"
     d="M 11.500037,31.436501 C 11.940474,20.09759 22.043105,11.32322 32.158766,21.979434 L 37.068811,17.246167 C 37.068811,17.246167 37.088388,32 37.088388,32 L 22.160133,31.978069 C 22.160133,31.978069 26.997745,27.140456 26.997745,27.140456 C 18.528582,18.264221 13.291696,25.230495 11.500037,31.436501 z"
     style="fill:#404040;"/>
  </a>
 </g>
</svg>

<style type='text/css'>
<![CDATA[
[data-mouse-over-selected='false'] { opacity: 0.7; }
[data-mouse-over-selected='true']  { opacity: 1.0; }
]]>
</style>
<script type="application/ecmascript"><![CDATA[
document.addEventListener('DOMContentLoaded', (event) => {
  highlightEdges();
  highlightAdjacentNodes();
});
]]></script>
</svg>
