<?xml version="1.0" encoding="UTF-8" standalone="no"?>
<!DOCTYPE svg PUBLIC "-//W3C//DTD SVG 1.1//EN"
 "http://www.w3.org/Graphics/SVG/1.1/DTD/svg11.dtd">
<!-- Generated by graphviz version 12.2.0 (20241103.1931)
 -->
<!-- Title: TScalerQueue.cxx Pages: 1 -->
<svg width="1459pt" height="359pt"
 viewBox="0.00 0.00 1459.12 358.75" xmlns="http://www.w3.org/2000/svg" xmlns:xlink="http://www.w3.org/1999/xlink">
<g id="graph0" class="graph" transform="scale(1 1) rotate(0) translate(4 354.75)">
<title>TScalerQueue.cxx</title>
<!-- Node1 -->
<g id="Node000001" class="node">
<title>Node1</title>
<g id="a_Node000001"><a xlink:title=" ">
<polygon fill="#999999" stroke="#666666" points="1339.5,-350.75 1244.75,-350.75 1244.75,-331.5 1339.5,-331.5 1339.5,-350.75"/>
<text text-anchor="middle" x="1292.12" y="-337.25" font-family="Helvetica,sans-Serif" font-size="10.00">TScalerQueue.cxx</text>
</a>
</g>
</g>
<!-- Node2 -->
<g id="Node000002" class="node">
<title>Node2</title>
<g id="a_Node000002"><a xlink:href="_t_scaler_queue_8h.html" target="_top" xlink:title=" ">
<polygon fill="white" stroke="#666666" points="1294,-295.5 1208.25,-295.5 1208.25,-276.25 1294,-276.25 1294,-295.5"/>
<text text-anchor="middle" x="1251.12" y="-282" font-family="Helvetica,sans-Serif" font-size="10.00">TScalerQueue.h</text>
</a>
</g>
</g>
<!-- Node1&#45;&gt;Node2 -->
<g id="edge1_Node000001_Node000002" class="edge">
<title>Node1&#45;&gt;Node2</title>
<g id="a_edge1_Node000001_Node000002"><a xlink:title=" ">
<path fill="none" stroke="#63b8ff" d="M1285.35,-331.33C1279.81,-324.13 1271.78,-313.71 1264.9,-304.76"/>
<polygon fill="#63b8ff" stroke="#63b8ff" points="1267.84,-302.85 1258.97,-297.06 1262.29,-307.12 1267.84,-302.85"/>
</a>
</g>
</g>
<!-- Node37 -->
<g id="Node000037" class="node">
<title>Node37</title>
<g id="a_Node000037"><a xlink:title=" ">
<polygon fill="#e0e0e0" stroke="#999999" points="1354.62,-295.5 1311.62,-295.5 1311.62,-276.25 1354.62,-276.25 1354.62,-295.5"/>
<text text-anchor="middle" x="1333.12" y="-282" font-family="Helvetica,sans-Serif" font-size="10.00">thread</text>
</a>
</g>
</g>
<!-- Node1&#45;&gt;Node37 -->
<g id="edge48_Node000001_Node000037" class="edge">
<title>Node1&#45;&gt;Node37</title>
<g id="a_edge48_Node000001_Node000037"><a xlink:title=" ">
<path fill="none" stroke="#63b8ff" d="M1298.9,-331.33C1304.44,-324.13 1312.47,-313.71 1319.35,-304.76"/>
<polygon fill="#63b8ff" stroke="#63b8ff" points="1321.96,-307.12 1325.28,-297.06 1316.41,-302.85 1321.96,-307.12"/>
</a>
</g>
</g>
<!-- Node3 -->
<g id="Node000003" class="node">
<title>Node3</title>
<g id="a_Node000003"><a xlink:title=" ">
<polygon fill="#e0e0e0" stroke="#999999" points="42.25,-19.25 0,-19.25 0,0 42.25,0 42.25,-19.25"/>
<text text-anchor="middle" x="21.12" y="-5.75" font-family="Helvetica,sans-Serif" font-size="10.00">cstdio</text>
</a>
</g>
</g>
<!-- Node2&#45;&gt;Node3 -->
<g id="edge2_Node000002_Node000003" class="edge">
<title>Node2&#45;&gt;Node3</title>
<g id="a_edge2_Node000002_Node000003"><a xlink:title=" ">
<path fill="none" stroke="#63b8ff" d="M1207.84,-284.87C1014.1,-284.27 236.12,-275.67 236.12,-176.38 236.12,-176.38 236.12,-176.38 236.12,-119.12 236.12,-98.85 112.74,-47.03 52.91,-23.09"/>
<polygon fill="#63b8ff" stroke="#63b8ff" points="54.52,-19.96 43.93,-19.52 51.93,-26.47 54.52,-19.96"/>
</a>
</g>
</g>
<!-- Node4 -->
<g id="Node000004" class="node">
<title>Node4</title>
<g id="a_Node000004"><a xlink:title=" ">
<polygon fill="#e0e0e0" stroke="#999999" points="1297.25,-240.25 1255,-240.25 1255,-221 1297.25,-221 1297.25,-240.25"/>
<text text-anchor="middle" x="1276.12" y="-226.75" font-family="Helvetica,sans-Serif" font-size="10.00">queue</text>
</a>
</g>
</g>
<!-- Node2&#45;&gt;Node4 -->
<g id="edge3_Node000002_Node000004" class="edge">
<title>Node2&#45;&gt;Node4</title>
<g id="a_edge3_Node000002_Node000004"><a xlink:title=" ">
<path fill="none" stroke="#63b8ff" d="M1255.25,-276.08C1258.45,-269.26 1263.01,-259.56 1267.05,-250.95"/>
<polygon fill="#63b8ff" stroke="#63b8ff" points="1270.18,-252.52 1271.26,-241.98 1263.85,-249.54 1270.18,-252.52"/>
</a>
</g>
</g>
<!-- Node5 -->
<g id="Node000005" class="node">
<title>Node5</title>
<g id="a_Node000005"><a xlink:title=" ">
<polygon fill="#e0e0e0" stroke="#999999" points="1203.5,-19.25 1168.75,-19.25 1168.75,0 1203.5,0 1203.5,-19.25"/>
<text text-anchor="middle" x="1186.12" y="-5.75" font-family="Helvetica,sans-Serif" font-size="10.00">map</text>
</a>
</g>
</g>
<!-- Node2&#45;&gt;Node5 -->
<g id="edge4_Node000002_Node000005" class="edge">
<title>Node2&#45;&gt;Node5</title>
<g id="a_edge4_Node000002_Node000005"><a xlink:title=" ">
<path fill="none" stroke="#63b8ff" d="M1247.79,-276.02C1241.19,-257.7 1227.12,-214.19 1227.12,-176.38 1227.12,-176.38 1227.12,-176.38 1227.12,-119.12 1227.12,-85.84 1210.03,-50.3 1197.92,-29.3"/>
<polygon fill="#63b8ff" stroke="#63b8ff" points="1200.94,-27.53 1192.78,-20.78 1194.95,-31.15 1200.94,-27.53"/>
</a>
</g>
</g>
<!-- Node6 -->
<g id="Node000006" class="node">
<title>Node6</title>
<g id="a_Node000006"><a xlink:title=" ">
<polygon fill="#e0e0e0" stroke="#999999" points="1357.25,-240.25 1315,-240.25 1315,-221 1357.25,-221 1357.25,-240.25"/>
<text text-anchor="middle" x="1336.12" y="-226.75" font-family="Helvetica,sans-Serif" font-size="10.00">mutex</text>
</a>
</g>
</g>
<!-- Node2&#45;&gt;Node6 -->
<g id="edge5_Node000002_Node000006" class="edge">
<title>Node2&#45;&gt;Node6</title>
<g id="a_edge5_Node000002_Node000006"><a xlink:title=" ">
<path fill="none" stroke="#63b8ff" d="M1265.54,-275.84C1278.24,-267.89 1297,-256.14 1311.98,-246.75"/>
<polygon fill="#63b8ff" stroke="#63b8ff" points="1313.74,-249.78 1320.35,-241.51 1310.02,-243.85 1313.74,-249.78"/>
</a>
</g>
</g>
<!-- Node7 -->
<g id="Node000007" class="node">
<title>Node7</title>
<g id="a_Node000007"><a xlink:title=" ">
<polygon fill="#e0e0e0" stroke="#999999" points="1451.12,-240.25 1375.12,-240.25 1375.12,-221 1451.12,-221 1451.12,-240.25"/>
<text text-anchor="middle" x="1413.12" y="-226.75" font-family="Helvetica,sans-Serif" font-size="10.00">TStopwatch.h</text>
</a>
</g>
</g>
<!-- Node2&#45;&gt;Node7 -->
<g id="edge6_Node000002_Node000007" class="edge">
<title>Node2&#45;&gt;Node7</title>
<g id="a_edge6_Node000002_Node000007"><a xlink:title=" ">
<path fill="none" stroke="#63b8ff" d="M1278.61,-275.84C1305.02,-267.16 1345.18,-253.96 1374.75,-244.24"/>
<polygon fill="#63b8ff" stroke="#63b8ff" points="1375.66,-247.62 1384.07,-241.18 1373.48,-240.97 1375.66,-247.62"/>
</a>
</g>
</g>
<!-- Node8 -->
<g id="Node000008" class="node">
<title>Node8</title>
<g id="a_Node000008"><a xlink:href="_t_scaler_8h.html" target="_top" xlink:title=" ">
<polygon fill="white" stroke="#666666" points="1078.75,-240.25 1021.5,-240.25 1021.5,-221 1078.75,-221 1078.75,-240.25"/>
<text text-anchor="middle" x="1050.12" y="-226.75" font-family="Helvetica,sans-Serif" font-size="10.00">TScaler.h</text>
</a>
</g>
</g>
<!-- Node2&#45;&gt;Node8 -->
<g id="edge7_Node000002_Node000008" class="edge">
<title>Node2&#45;&gt;Node8</title>
<g id="a_edge7_Node000002_Node000008"><a xlink:title=" ">
<path fill="none" stroke="#63b8ff" d="M1217.03,-275.84C1181.91,-266.54 1127.2,-252.05 1090.08,-242.21"/>
<polygon fill="#63b8ff" stroke="#63b8ff" points="1091.19,-238.88 1080.62,-239.7 1089.39,-245.65 1091.19,-238.88"/>
</a>
</g>
</g>
<!-- Node8&#45;&gt;Node5 -->
<g id="edge9_Node000008_Node000005" class="edge">
<title>Node8&#45;&gt;Node5</title>
<g id="a_edge9_Node000008_Node000005"><a xlink:title=" ">
<path fill="none" stroke="#63b8ff" d="M1058.27,-220.77C1066.11,-212.02 1078.09,-198.09 1087.12,-185 1124.28,-131.19 1160.21,-62.46 1176.71,-29.68"/>
<polygon fill="#63b8ff" stroke="#63b8ff" points="1179.7,-31.53 1181.03,-21.02 1173.44,-28.4 1179.7,-31.53"/>
</a>
</g>
</g>
<!-- Node9 -->
<g id="Node000009" class="node">
<title>Node9</title>
<g id="a_Node000009"><a xlink:title=" ">
<polygon fill="#e0e0e0" stroke="#999999" points="1143.88,-19.25 1090.38,-19.25 1090.38,0 1143.88,0 1143.88,-19.25"/>
<text text-anchor="middle" x="1117.12" y="-5.75" font-family="Helvetica,sans-Serif" font-size="10.00">iostream</text>
</a>
</g>
</g>
<!-- Node8&#45;&gt;Node9 -->
<g id="edge8_Node000008_Node000009" class="edge">
<title>Node8&#45;&gt;Node9</title>
<g id="a_edge8_Node000008_Node000009"><a xlink:title=" ">
<path fill="none" stroke="#63b8ff" d="M1054.69,-220.57C1059.06,-211.67 1065.62,-197.64 1070.12,-185 1089.64,-130.25 1105.54,-63.35 1112.82,-30.61"/>
<polygon fill="#63b8ff" stroke="#63b8ff" points="1116.22,-31.48 1114.93,-20.96 1109.38,-29.98 1116.22,-31.48"/>
</a>
</g>
</g>
<!-- Node10 -->
<g id="Node000010" class="node">
<title>Node10</title>
<g id="a_Node000010"><a xlink:title=" ">
<polygon fill="#e0e0e0" stroke="#999999" points="1085.12,-74.5 1027.12,-74.5 1027.12,-55.25 1085.12,-55.25 1085.12,-74.5"/>
<text text-anchor="middle" x="1056.12" y="-61" font-family="Helvetica,sans-Serif" font-size="10.00">TObject.h</text>
</a>
</g>
</g>
<!-- Node8&#45;&gt;Node10 -->
<g id="edge10_Node000008_Node000010" class="edge">
<title>Node8&#45;&gt;Node10</title>
<g id="a_edge10_Node000008_Node000010"><a xlink:title=" ">
<path fill="none" stroke="#63b8ff" d="M1051.67,-220.77C1053.15,-211.79 1055.29,-197.48 1056.12,-185 1058.44,-150.35 1057.72,-109.91 1056.95,-86.18"/>
<polygon fill="#63b8ff" stroke="#63b8ff" points="1060.45,-86.23 1056.59,-76.37 1053.46,-86.49 1060.45,-86.23"/>
</a>
</g>
</g>
<!-- Node11 -->
<g id="Node000011" class="node">
<title>Node11</title>
<g id="a_Node000011"><a xlink:href="_globals_8h.html" target="_top" xlink:title=" ">
<polygon fill="white" stroke="#666666" points="655.38,-74.5 598.88,-74.5 598.88,-55.25 655.38,-55.25 655.38,-74.5"/>
<text text-anchor="middle" x="627.12" y="-61" font-family="Helvetica,sans-Serif" font-size="10.00">Globals.h</text>
</a>
</g>
</g>
<!-- Node8&#45;&gt;Node11 -->
<g id="edge11_Node000008_Node000011" class="edge">
<title>Node8&#45;&gt;Node11</title>
<g id="a_edge11_Node000008_Node000011"><a xlink:title=" ">
<path fill="none" stroke="#63b8ff" d="M1021,-228.42C924.74,-223.75 619.69,-203.3 563.12,-129.75 548.77,-111.08 573.22,-92.36 595.92,-80.05"/>
<polygon fill="#63b8ff" stroke="#63b8ff" points="597.41,-83.22 604.74,-75.56 594.24,-76.98 597.41,-83.22"/>
</a>
</g>
</g>
<!-- Node27 -->
<g id="Node000027" class="node">
<title>Node27</title>
<g id="a_Node000027"><a xlink:title=" ">
<polygon fill="#e0e0e0" stroke="#999999" points="986.62,-185 937.62,-185 937.62,-165.75 986.62,-165.75 986.62,-185"/>
<text text-anchor="middle" x="962.12" y="-171.5" font-family="Helvetica,sans-Serif" font-size="10.00">TTree.h</text>
</a>
</g>
</g>
<!-- Node8&#45;&gt;Node27 -->
<g id="edge30_Node000008_Node000027" class="edge">
<title>Node8&#45;&gt;Node27</title>
<g id="a_edge30_Node000008_Node000027"><a xlink:title=" ">
<path fill="none" stroke="#63b8ff" d="M1035.2,-220.59C1021.92,-212.56 1002.26,-200.66 986.67,-191.23"/>
<polygon fill="#63b8ff" stroke="#63b8ff" points="988.79,-188.42 978.42,-186.24 985.16,-194.41 988.79,-188.42"/>
</a>
</g>
</g>
<!-- Node28 -->
<g id="Node000028" class="node">
<title>Node28</title>
<g id="a_Node000028"><a xlink:title=" ">
<polygon fill="#e0e0e0" stroke="#999999" points="1047.25,-185 1005,-185 1005,-165.75 1047.25,-165.75 1047.25,-185"/>
<text text-anchor="middle" x="1026.12" y="-171.5" font-family="Helvetica,sans-Serif" font-size="10.00">TH1.h</text>
</a>
</g>
</g>
<!-- Node8&#45;&gt;Node28 -->
<g id="edge31_Node000008_Node000028" class="edge">
<title>Node8&#45;&gt;Node28</title>
<g id="a_edge31_Node000008_Node000028"><a xlink:title=" ">
<path fill="none" stroke="#63b8ff" d="M1046.16,-220.83C1043.09,-214.01 1038.71,-204.31 1034.84,-195.7"/>
<polygon fill="#63b8ff" stroke="#63b8ff" points="1038.1,-194.42 1030.8,-186.74 1031.71,-197.29 1038.1,-194.42"/>
</a>
</g>
</g>
<!-- Node29 -->
<g id="Node000029" class="node">
<title>Node29</title>
<g id="a_Node000029"><a xlink:href="_t_p_p_g_8h.html" target="_top" xlink:title=" ">
<polygon fill="white" stroke="#666666" points="830.38,-185 779.88,-185 779.88,-165.75 830.38,-165.75 830.38,-185"/>
<text text-anchor="middle" x="805.12" y="-171.5" font-family="Helvetica,sans-Serif" font-size="10.00">TPPG.h</text>
</a>
</g>
</g>
<!-- Node8&#45;&gt;Node29 -->
<g id="edge32_Node000008_Node000029" class="edge">
<title>Node8&#45;&gt;Node29</title>
<g id="a_edge32_Node000008_Node000029"><a xlink:title=" ">
<path fill="none" stroke="#63b8ff" d="M1021.06,-223.31C976.35,-213.59 890.76,-194.99 841.83,-184.35"/>
<polygon fill="#63b8ff" stroke="#63b8ff" points="842.81,-180.98 832.29,-182.28 841.32,-187.82 842.81,-180.98"/>
</a>
</g>
</g>
<!-- Node11&#45;&gt;Node3 -->
<g id="edge16_Node000011_Node000003" class="edge">
<title>Node11&#45;&gt;Node3</title>
<g id="a_edge16_Node000011_Node000003"><a xlink:title=" ">
<path fill="none" stroke="#63b8ff" d="M598.4,-63.7C515.27,-62.76 267.32,-56.92 53.74,-19.36"/>
<polygon fill="#63b8ff" stroke="#63b8ff" points="54.58,-15.96 44.12,-17.64 53.35,-22.85 54.58,-15.96"/>
</a>
</g>
</g>
<!-- Node11&#45;&gt;Node5 -->
<g id="edge25_Node000011_Node000005" class="edge">
<title>Node11&#45;&gt;Node5</title>
<g id="a_edge25_Node000011_Node000005"><a xlink:title=" ">
<path fill="none" stroke="#63b8ff" d="M655.73,-61.59C761.87,-53.07 1128.43,-23.49 1153.12,-19.25 1154.54,-19.01 1155.98,-18.73 1157.43,-18.44"/>
<polygon fill="#63b8ff" stroke="#63b8ff" points="1158.03,-21.89 1166.96,-16.19 1156.43,-15.08 1158.03,-21.89"/>
</a>
</g>
</g>
<!-- Node11&#45;&gt;Node9 -->
<g id="edge12_Node000011_Node000009" class="edge">
<title>Node11&#45;&gt;Node9</title>
<g id="a_edge12_Node000011_Node000009"><a xlink:title=" ">
<path fill="none" stroke="#63b8ff" d="M655.51,-57.58C660.05,-56.71 664.71,-55.89 669.12,-55.25 847.8,-29.21 898.34,-48.57 1078.85,-19.57"/>
<polygon fill="#63b8ff" stroke="#63b8ff" points="1079.28,-23.04 1088.58,-17.97 1078.15,-16.14 1079.28,-23.04"/>
</a>
</g>
</g>
<!-- Node12 -->
<g id="Node000012" class="node">
<title>Node12</title>
<g id="a_Node000012"><a xlink:title=" ">
<polygon fill="#e0e0e0" stroke="#999999" points="661,-19.25 611.25,-19.25 611.25,0 661,0 661,-19.25"/>
<text text-anchor="middle" x="636.12" y="-5.75" font-family="Helvetica,sans-Serif" font-size="10.00">iomanip</text>
</a>
</g>
</g>
<!-- Node11&#45;&gt;Node12 -->
<g id="edge13_Node000011_Node000012" class="edge">
<title>Node11&#45;&gt;Node12</title>
<g id="a_edge13_Node000011_Node000012"><a xlink:title=" ">
<path fill="none" stroke="#63b8ff" d="M628.61,-55.08C629.72,-48.49 631.29,-39.21 632.71,-30.82"/>
<polygon fill="#63b8ff" stroke="#63b8ff" points="636.14,-31.55 634.35,-21.1 629.24,-30.38 636.14,-31.55"/>
</a>
</g>
</g>
<!-- Node13 -->
<g id="Node000013" class="node">
<title>Node13</title>
<g id="a_Node000013"><a xlink:title=" ">
<polygon fill="#e0e0e0" stroke="#999999" points="737.12,-19.25 679.12,-19.25 679.12,0 737.12,0 737.12,-19.25"/>
<text text-anchor="middle" x="708.12" y="-5.75" font-family="Helvetica,sans-Serif" font-size="10.00">stdexcept</text>
</a>
</g>
</g>
<!-- Node11&#45;&gt;Node13 -->
<g id="edge14_Node000011_Node000013" class="edge">
<title>Node11&#45;&gt;Node13</title>
<g id="a_edge14_Node000011_Node000013"><a xlink:title=" ">
<path fill="none" stroke="#63b8ff" d="M640.87,-54.84C652.85,-46.96 670.5,-35.36 684.71,-26.02"/>
<polygon fill="#63b8ff" stroke="#63b8ff" points="686.62,-28.95 693.05,-20.53 682.77,-23.1 686.62,-28.95"/>
</a>
</g>
</g>
<!-- Node14 -->
<g id="Node000014" class="node">
<title>Node14</title>
<g id="a_Node000014"><a xlink:title=" ">
<polygon fill="#e0e0e0" stroke="#999999" points="795.12,-19.25 755.12,-19.25 755.12,0 795.12,0 795.12,-19.25"/>
<text text-anchor="middle" x="775.12" y="-5.75" font-family="Helvetica,sans-Serif" font-size="10.00">string</text>
</a>
</g>
</g>
<!-- Node11&#45;&gt;Node14 -->
<g id="edge15_Node000011_Node000014" class="edge">
<title>Node11&#45;&gt;Node14</title>
<g id="a_edge15_Node000011_Node000014"><a xlink:title=" ">
<path fill="none" stroke="#63b8ff" d="M652.23,-54.84C677.6,-45.71 716.85,-31.59 744.14,-21.77"/>
<polygon fill="#63b8ff" stroke="#63b8ff" points="745.02,-25.18 753.25,-18.5 742.65,-18.59 745.02,-25.18"/>
</a>
</g>
</g>
<!-- Node15 -->
<g id="Node000015" class="node">
<title>Node15</title>
<g id="a_Node000015"><a xlink:title=" ">
<polygon fill="#e0e0e0" stroke="#999999" points="105.75,-19.25 60.5,-19.25 60.5,0 105.75,0 105.75,-19.25"/>
<text text-anchor="middle" x="83.12" y="-5.75" font-family="Helvetica,sans-Serif" font-size="10.00">cstdint</text>
</a>
</g>
</g>
<!-- Node11&#45;&gt;Node15 -->
<g id="edge17_Node000011_Node000015" class="edge">
<title>Node11&#45;&gt;Node15</title>
<g id="a_edge17_Node000011_Node000015"><a xlink:title=" ">
<path fill="none" stroke="#63b8ff" d="M598.62,-60.03C586.2,-58.43 571.45,-56.62 558.12,-55.25 364.84,-35.34 311.03,-53.25 117.18,-19.49"/>
<polygon fill="#63b8ff" stroke="#63b8ff" points="117.98,-16.08 107.53,-17.79 116.76,-22.97 117.98,-16.08"/>
</a>
</g>
</g>
<!-- Node16 -->
<g id="Node000016" class="node">
<title>Node16</title>
<g id="a_Node000016"><a xlink:title=" ">
<polygon fill="#e0e0e0" stroke="#999999" points="857.38,-19.25 812.88,-19.25 812.88,0 857.38,0 857.38,-19.25"/>
<text text-anchor="middle" x="835.12" y="-5.75" font-family="Helvetica,sans-Serif" font-size="10.00">cstdlib</text>
</a>
</g>
</g>
<!-- Node11&#45;&gt;Node16 -->
<g id="edge18_Node000011_Node000016" class="edge">
<title>Node11&#45;&gt;Node16</title>
<g id="a_edge18_Node000011_Node000016"><a xlink:title=" ">
<path fill="none" stroke="#63b8ff" d="M655.69,-56.9C688.6,-48.82 744.59,-34.91 801.45,-19.91"/>
<polygon fill="#63b8ff" stroke="#63b8ff" points="802.22,-23.33 810.99,-17.39 800.43,-16.56 802.22,-23.33"/>
</a>
</g>
</g>
<!-- Node17 -->
<g id="Node000017" class="node">
<title>Node17</title>
<g id="a_Node000017"><a xlink:title=" ">
<polygon fill="#e0e0e0" stroke="#999999" points="934.88,-19.25 875.38,-19.25 875.38,0 934.88,0 934.88,-19.25"/>
<text text-anchor="middle" x="905.12" y="-5.75" font-family="Helvetica,sans-Serif" font-size="10.00">execinfo.h</text>
</a>
</g>
</g>
<!-- Node11&#45;&gt;Node17 -->
<g id="edge19_Node000011_Node000017" class="edge">
<title>Node11&#45;&gt;Node17</title>
<g id="a_edge19_Node000011_Node000017"><a xlink:title=" ">
<path fill="none" stroke="#63b8ff" d="M655.57,-57.95C660.1,-57.03 664.74,-56.1 669.12,-55.25 753,-38.98 776.98,-37 863.72,-19.67"/>
<polygon fill="#63b8ff" stroke="#63b8ff" points="864.32,-23.12 873.43,-17.72 862.94,-16.26 864.32,-23.12"/>
</a>
</g>
</g>
<!-- Node18 -->
<g id="Node000018" class="node">
<title>Node18</title>
<g id="a_Node000018"><a xlink:title=" ">
<polygon fill="#e0e0e0" stroke="#999999" points="1003.38,-19.25 952.88,-19.25 952.88,0 1003.38,0 1003.38,-19.25"/>
<text text-anchor="middle" x="978.12" y="-5.75" font-family="Helvetica,sans-Serif" font-size="10.00">cxxabi.h</text>
</a>
</g>
</g>
<!-- Node11&#45;&gt;Node18 -->
<g id="edge20_Node000011_Node000018" class="edge">
<title>Node11&#45;&gt;Node18</title>
<g id="a_edge20_Node000011_Node000018"><a xlink:title=" ">
<path fill="none" stroke="#63b8ff" d="M655.54,-57.75C660.07,-56.86 664.72,-55.99 669.12,-55.25 787.13,-35.44 821.09,-42.02 941.44,-19.56"/>
<polygon fill="#63b8ff" stroke="#63b8ff" points="941.92,-23.04 951.09,-17.73 940.61,-16.16 941.92,-23.04"/>
</a>
</g>
</g>
<!-- Node19 -->
<g id="Node000019" class="node">
<title>Node19</title>
<g id="a_Node000019"><a xlink:title=" ">
<polygon fill="#e0e0e0" stroke="#999999" points="1072.75,-19.25 1021.5,-19.25 1021.5,0 1072.75,0 1072.75,-19.25"/>
<text text-anchor="middle" x="1047.12" y="-5.75" font-family="Helvetica,sans-Serif" font-size="10.00">sstream</text>
</a>
</g>
</g>
<!-- Node11&#45;&gt;Node19 -->
<g id="edge21_Node000011_Node000019" class="edge">
<title>Node11&#45;&gt;Node19</title>
<g id="a_edge21_Node000011_Node000019"><a xlink:title=" ">
<path fill="none" stroke="#63b8ff" d="M655.52,-57.65C660.06,-56.77 664.71,-55.93 669.12,-55.25 817.05,-32.35 859.17,-45.02 1010.15,-19.35"/>
<polygon fill="#63b8ff" stroke="#63b8ff" points="1010.47,-22.84 1019.72,-17.69 1009.27,-15.95 1010.47,-22.84"/>
</a>
</g>
</g>
<!-- Node20 -->
<g id="Node000020" class="node">
<title>Node20</title>
<g id="a_Node000020"><a xlink:title=" ">
<polygon fill="#e0e0e0" stroke="#999999" points="160.62,-19.25 123.62,-19.25 123.62,0 160.62,0 160.62,-19.25"/>
<text text-anchor="middle" x="142.12" y="-5.75" font-family="Helvetica,sans-Serif" font-size="10.00">array</text>
</a>
</g>
</g>
<!-- Node11&#45;&gt;Node20 -->
<g id="edge22_Node000011_Node000020" class="edge">
<title>Node11&#45;&gt;Node20</title>
<g id="a_edge22_Node000011_Node000020"><a xlink:title=" ">
<path fill="none" stroke="#63b8ff" d="M598.61,-60.1C586.19,-58.51 571.45,-56.7 558.12,-55.25 389.57,-36.9 341.99,-52.25 172.07,-19.2"/>
<polygon fill="#63b8ff" stroke="#63b8ff" points="172.94,-15.81 162.45,-17.3 171.58,-22.67 172.94,-15.81"/>
</a>
</g>
</g>
<!-- Node21 -->
<g id="Node000021" class="node">
<title>Node21</title>
<g id="a_Node000021"><a xlink:title=" ">
<polygon fill="#e0e0e0" stroke="#999999" points="229.38,-19.25 178.88,-19.25 178.88,0 229.38,0 229.38,-19.25"/>
<text text-anchor="middle" x="204.12" y="-5.75" font-family="Helvetica,sans-Serif" font-size="10.00">memory</text>
</a>
</g>
</g>
<!-- Node11&#45;&gt;Node21 -->
<g id="edge23_Node000011_Node000021" class="edge">
<title>Node11&#45;&gt;Node21</title>
<g id="a_edge23_Node000011_Node000021"><a xlink:title=" ">
<path fill="none" stroke="#63b8ff" d="M598.6,-60.23C586.17,-58.66 571.43,-56.83 558.12,-55.25 419.61,-38.8 380.88,-44.59 240.82,-19.52"/>
<polygon fill="#63b8ff" stroke="#63b8ff" points="241.62,-16.11 231.15,-17.77 240.37,-23 241.62,-16.11"/>
</a>
</g>
</g>
<!-- Node22 -->
<g id="Node000022" class="node">
<title>Node22</title>
<g id="a_Node000022"><a xlink:title=" ">
<polygon fill="#e0e0e0" stroke="#999999" points="297,-19.25 247.25,-19.25 247.25,0 297,0 297,-19.25"/>
<text text-anchor="middle" x="272.12" y="-5.75" font-family="Helvetica,sans-Serif" font-size="10.00">unistd.h</text>
</a>
</g>
</g>
<!-- Node11&#45;&gt;Node22 -->
<g id="edge24_Node000011_Node000022" class="edge">
<title>Node11&#45;&gt;Node22</title>
<g id="a_edge24_Node000011_Node000022"><a xlink:title=" ">
<path fill="none" stroke="#63b8ff" d="M598.6,-60.12C530.96,-51.18 362.87,-28.82 308.52,-19.58"/>
<polygon fill="#63b8ff" stroke="#63b8ff" points="309.23,-16.15 298.77,-17.8 307.98,-23.04 309.23,-16.15"/>
</a>
</g>
</g>
<!-- Node23 -->
<g id="Node000023" class="node">
<title>Node23</title>
<g id="a_Node000023"><a xlink:title=" ">
<polygon fill="#e0e0e0" stroke="#999999" points="363.62,-19.25 314.62,-19.25 314.62,0 363.62,0 363.62,-19.25"/>
<text text-anchor="middle" x="339.12" y="-5.75" font-family="Helvetica,sans-Serif" font-size="10.00">fstream</text>
</a>
</g>
</g>
<!-- Node11&#45;&gt;Node23 -->
<g id="edge26_Node000011_Node000023" class="edge">
<title>Node11&#45;&gt;Node23</title>
<g id="a_edge26_Node000011_Node000023"><a xlink:title=" ">
<path fill="none" stroke="#63b8ff" d="M598.68,-59.68C553.35,-52.83 461.73,-38.3 375.03,-19.75"/>
<polygon fill="#63b8ff" stroke="#63b8ff" points="375.93,-16.36 365.42,-17.66 374.45,-23.2 375.93,-16.36"/>
</a>
</g>
</g>
<!-- Node24 -->
<g id="Node000024" class="node">
<title>Node24</title>
<g id="a_Node000024"><a xlink:title=" ">
<polygon fill="#e0e0e0" stroke="#999999" points="437,-19.25 381.25,-19.25 381.25,0 437,0 437,-19.25"/>
<text text-anchor="middle" x="409.12" y="-5.75" font-family="Helvetica,sans-Serif" font-size="10.00">algorithm</text>
</a>
</g>
</g>
<!-- Node11&#45;&gt;Node24 -->
<g id="edge27_Node000011_Node000024" class="edge">
<title>Node11&#45;&gt;Node24</title>
<g id="a_edge27_Node000011_Node000024"><a xlink:title=" ">
<path fill="none" stroke="#63b8ff" d="M598.63,-56.91C560.17,-47.52 491.5,-30.75 448.24,-20.18"/>
<polygon fill="#63b8ff" stroke="#63b8ff" points="449.3,-16.84 438.76,-17.86 447.64,-23.64 449.3,-16.84"/>
</a>
</g>
</g>
<!-- Node25 -->
<g id="Node000025" class="node">
<title>Node25</title>
<g id="a_Node000025"><a xlink:title=" ">
<polygon fill="#e0e0e0" stroke="#999999" points="514.88,-19.25 455.38,-19.25 455.38,0 514.88,0 514.88,-19.25"/>
<text text-anchor="middle" x="485.12" y="-5.75" font-family="Helvetica,sans-Serif" font-size="10.00">sys/wait.h</text>
</a>
</g>
</g>
<!-- Node11&#45;&gt;Node25 -->
<g id="edge28_Node000011_Node000025" class="edge">
<title>Node11&#45;&gt;Node25</title>
<g id="a_edge28_Node000011_Node000025"><a xlink:title=" ">
<path fill="none" stroke="#63b8ff" d="M603.04,-54.84C580.19,-46.27 545.61,-33.31 519.8,-23.63"/>
<polygon fill="#63b8ff" stroke="#63b8ff" points="521.34,-20.47 510.75,-20.23 518.88,-27.02 521.34,-20.47"/>
</a>
</g>
</g>
<!-- Node26 -->
<g id="Node000026" class="node">
<title>Node26</title>
<g id="a_Node000026"><a xlink:title=" ">
<polygon fill="#e0e0e0" stroke="#999999" points="593.25,-19.25 533,-19.25 533,0 593.25,0 593.25,-19.25"/>
<text text-anchor="middle" x="563.12" y="-5.75" font-family="Helvetica,sans-Serif" font-size="10.00">sys/prctl.h</text>
</a>
</g>
</g>
<!-- Node11&#45;&gt;Node26 -->
<g id="edge29_Node000011_Node000026" class="edge">
<title>Node11&#45;&gt;Node26</title>
<g id="a_edge29_Node000011_Node000026"><a xlink:title=" ">
<path fill="none" stroke="#63b8ff" d="M616.27,-54.84C607.02,-47.15 593.5,-35.9 582.42,-26.68"/>
<polygon fill="#63b8ff" stroke="#63b8ff" points="584.91,-24.2 574.98,-20.49 580.43,-29.58 584.91,-24.2"/>
</a>
</g>
</g>
<!-- Node29&#45;&gt;Node5 -->
<g id="edge33_Node000029_Node000005" class="edge">
<title>Node29&#45;&gt;Node5</title>
<g id="a_edge33_Node000029_Node000005"><a xlink:title=" ">
<path fill="none" stroke="#63b8ff" d="M830.5,-168.32C882.09,-155.44 1002.12,-122.52 1094.12,-74.5 1120.45,-60.76 1148.11,-40.68 1166.14,-26.72"/>
<polygon fill="#63b8ff" stroke="#63b8ff" points="1168.21,-29.54 1173.91,-20.6 1163.88,-24.04 1168.21,-29.54"/>
</a>
</g>
</g>
<!-- Node29&#45;&gt;Node9 -->
<g id="edge35_Node000029_Node000009" class="edge">
<title>Node29&#45;&gt;Node9</title>
<g id="a_edge35_Node000029_Node000009"><a xlink:title=" ">
<path fill="none" stroke="#63b8ff" d="M791.8,-165.27C762.65,-144.3 698.33,-91.58 731.12,-55.25 781.51,0.57 987.01,-29.9 1078.92,-19.28"/>
<polygon fill="#63b8ff" stroke="#63b8ff" points="1079.17,-22.78 1088.57,-17.9 1078.18,-15.86 1079.17,-22.78"/>
</a>
</g>
</g>
<!-- Node29&#45;&gt;Node10 -->
<g id="edge37_Node000029_Node000010" class="edge">
<title>Node29&#45;&gt;Node10</title>
<g id="a_edge37_Node000029_Node000010"><a xlink:title=" ">
<path fill="none" stroke="#63b8ff" d="M826.09,-165.31C870.2,-146.24 972.79,-101.9 1024.76,-79.43"/>
<polygon fill="#63b8ff" stroke="#63b8ff" points="1025.86,-82.77 1033.65,-75.59 1023.08,-76.35 1025.86,-82.77"/>
</a>
</g>
</g>
<!-- Node29&#45;&gt;Node11 -->
<g id="edge39_Node000029_Node000011" class="edge">
<title>Node29&#45;&gt;Node11</title>
<g id="a_edge39_Node000029_Node000011"><a xlink:title=" ">
<path fill="none" stroke="#63b8ff" d="M779.65,-166.83C756.73,-159.39 722.68,-146.68 696.12,-129.75 675.58,-116.65 655.53,-97.1 642.38,-83.09"/>
<polygon fill="#63b8ff" stroke="#63b8ff" points="645.16,-80.93 635.83,-75.91 639.99,-85.66 645.16,-80.93"/>
</a>
</g>
</g>
<!-- Node29&#45;&gt;Node15 -->
<g id="edge36_Node000029_Node000015" class="edge">
<title>Node29&#45;&gt;Node15</title>
<g id="a_edge36_Node000029_Node000015"><a xlink:title=" ">
<path fill="none" stroke="#63b8ff" d="M779.59,-170.18C735.35,-162.79 641.65,-146.64 563.12,-129.75 365.84,-87.32 314.75,-71.91 117.18,-20.01"/>
<polygon fill="#63b8ff" stroke="#63b8ff" points="118.15,-16.65 107.59,-17.49 116.37,-23.42 118.15,-16.65"/>
</a>
</g>
</g>
<!-- Node30 -->
<g id="Node000030" class="node">
<title>Node30</title>
<g id="a_Node000030"><a xlink:title=" ">
<polygon fill="#e0e0e0" stroke="#999999" points="896.38,-129.75 857.88,-129.75 857.88,-110.5 896.38,-110.5 896.38,-129.75"/>
<text text-anchor="middle" x="877.12" y="-116.25" font-family="Helvetica,sans-Serif" font-size="10.00">utility</text>
</a>
</g>
</g>
<!-- Node29&#45;&gt;Node30 -->
<g id="edge34_Node000029_Node000030" class="edge">
<title>Node29&#45;&gt;Node30</title>
<g id="a_edge34_Node000029_Node000030"><a xlink:title=" ">
<path fill="none" stroke="#63b8ff" d="M817.34,-165.34C827.95,-157.49 843.56,-145.95 856.17,-136.62"/>
<polygon fill="#63b8ff" stroke="#63b8ff" points="857.92,-139.69 863.87,-130.92 853.75,-134.06 857.92,-139.69"/>
</a>
</g>
</g>
<!-- Node31 -->
<g id="Node000031" class="node">
<title>Node31</title>
<g id="a_Node000031"><a xlink:title=" ">
<polygon fill="#e0e0e0" stroke="#999999" points="644.25,-129.75 572,-129.75 572,-110.5 644.25,-110.5 644.25,-129.75"/>
<text text-anchor="middle" x="608.12" y="-116.25" font-family="Helvetica,sans-Serif" font-size="10.00">TCollection.h</text>
</a>
</g>
</g>
<!-- Node29&#45;&gt;Node31 -->
<g id="edge38_Node000029_Node000031" class="edge">
<title>Node29&#45;&gt;Node31</title>
<g id="a_edge38_Node000029_Node000031"><a xlink:title=" ">
<path fill="none" stroke="#63b8ff" d="M779.77,-167.52C747.71,-158.86 691.96,-143.78 652.71,-133.18"/>
<polygon fill="#63b8ff" stroke="#63b8ff" points="653.63,-129.8 643.07,-130.57 651.81,-136.56 653.63,-129.8"/>
</a>
</g>
</g>
<!-- Node32 -->
<g id="Node000032" class="node">
<title>Node32</title>
<g id="a_Node000032"><a xlink:href="_t_singleton_8h.html" target="_top" xlink:title=" ">
<polygon fill="white" stroke="#666666" points="840.12,-129.75 770.12,-129.75 770.12,-110.5 840.12,-110.5 840.12,-129.75"/>
<text text-anchor="middle" x="805.12" y="-116.25" font-family="Helvetica,sans-Serif" font-size="10.00">TSingleton.h</text>
</a>
</g>
</g>
<!-- Node29&#45;&gt;Node32 -->
<g id="edge40_Node000029_Node000032" class="edge">
<title>Node29&#45;&gt;Node32</title>
<g id="a_edge40_Node000029_Node000032"><a xlink:title=" ">
<path fill="none" stroke="#63b8ff" d="M805.12,-165.58C805.12,-159.07 805.12,-149.92 805.12,-141.62"/>
<polygon fill="#63b8ff" stroke="#63b8ff" points="808.63,-141.62 805.13,-131.62 801.63,-141.62 808.63,-141.62"/>
</a>
</g>
</g>
<!-- Node32&#45;&gt;Node9 -->
<g id="edge41_Node000032_Node000009" class="edge">
<title>Node32&#45;&gt;Node9</title>
<g id="a_edge41_Node000032_Node000009"><a xlink:title=" ">
<path fill="none" stroke="#63b8ff" d="M784.16,-110.17C758.78,-98.12 721.6,-75.83 740.12,-55.25 789.11,-0.84 989.03,-29.73 1078.91,-19.29"/>
<polygon fill="#63b8ff" stroke="#63b8ff" points="1079.17,-22.79 1088.57,-17.9 1078.17,-15.86 1079.17,-22.79"/>
</a>
</g>
</g>
<!-- Node32&#45;&gt;Node10 -->
<g id="edge42_Node000032_Node000010" class="edge">
<title>Node32&#45;&gt;Node10</title>
<g id="a_edge42_Node000032_Node000010"><a xlink:title=" ">
<path fill="none" stroke="#63b8ff" d="M840.59,-111.88C880.67,-103.66 948.14,-89.69 1015.44,-75.06"/>
<polygon fill="#63b8ff" stroke="#63b8ff" points="1016.17,-78.48 1025.2,-72.93 1014.68,-71.64 1016.17,-78.48"/>
</a>
</g>
</g>
<!-- Node32&#45;&gt;Node11 -->
<g id="edge47_Node000032_Node000011" class="edge">
<title>Node32&#45;&gt;Node11</title>
<g id="a_edge47_Node000032_Node000011"><a xlink:title=" ">
<path fill="none" stroke="#63b8ff" d="M774.93,-110.09C745.12,-101.17 699.37,-87.49 666.67,-77.71"/>
<polygon fill="#63b8ff" stroke="#63b8ff" points="667.73,-74.37 657.15,-74.86 665.73,-81.08 667.73,-74.37"/>
</a>
</g>
</g>
<!-- Node33 -->
<g id="Node000033" class="node">
<title>Node33</title>
<g id="a_Node000033"><a xlink:title=" ">
<polygon fill="#e0e0e0" stroke="#999999" points="945,-74.5 877.25,-74.5 877.25,-55.25 945,-55.25 945,-74.5"/>
<text text-anchor="middle" x="911.12" y="-61" font-family="Helvetica,sans-Serif" font-size="10.00">TDirectory.h</text>
</a>
</g>
</g>
<!-- Node32&#45;&gt;Node33 -->
<g id="edge43_Node000032_Node000033" class="edge">
<title>Node32&#45;&gt;Node33</title>
<g id="a_edge43_Node000032_Node000033"><a xlink:title=" ">
<path fill="none" stroke="#63b8ff" d="M823.11,-110.09C839.48,-101.87 863.91,-89.59 882.89,-80.06"/>
<polygon fill="#63b8ff" stroke="#63b8ff" points="884.34,-83.25 891.7,-75.63 881.2,-76.99 884.34,-83.25"/>
</a>
</g>
</g>
<!-- Node34 -->
<g id="Node000034" class="node">
<title>Node34</title>
<g id="a_Node000034"><a xlink:title=" ">
<polygon fill="#e0e0e0" stroke="#999999" points="1008.75,-74.5 963.5,-74.5 963.5,-55.25 1008.75,-55.25 1008.75,-74.5"/>
<text text-anchor="middle" x="986.12" y="-61" font-family="Helvetica,sans-Serif" font-size="10.00">TFile.h</text>
</a>
</g>
</g>
<!-- Node32&#45;&gt;Node34 -->
<g id="edge44_Node000032_Node000034" class="edge">
<title>Node32&#45;&gt;Node34</title>
<g id="a_edge44_Node000032_Node000034"><a xlink:title=" ">
<path fill="none" stroke="#63b8ff" d="M835.83,-110.09C868.18,-100.57 918.98,-85.63 952.42,-75.79"/>
<polygon fill="#63b8ff" stroke="#63b8ff" points="952.98,-79.27 961.59,-73.09 951.01,-72.56 952.98,-79.27"/>
</a>
</g>
</g>
<!-- Node35 -->
<g id="Node000035" class="node">
<title>Node35</title>
<g id="a_Node000035"><a xlink:title=" ">
<polygon fill="#e0e0e0" stroke="#999999" points="795.12,-74.5 749.12,-74.5 749.12,-55.25 795.12,-55.25 795.12,-74.5"/>
<text text-anchor="middle" x="772.12" y="-61" font-family="Helvetica,sans-Serif" font-size="10.00">TList.h</text>
</a>
</g>
</g>
<!-- Node32&#45;&gt;Node35 -->
<g id="edge45_Node000032_Node000035" class="edge">
<title>Node32&#45;&gt;Node35</title>
<g id="a_edge45_Node000032_Node000035"><a xlink:title=" ">
<path fill="none" stroke="#63b8ff" d="M799.68,-110.33C795.35,-103.36 789.16,-93.37 783.74,-84.62"/>
<polygon fill="#63b8ff" stroke="#63b8ff" points="786.73,-82.8 778.49,-76.15 780.78,-86.49 786.73,-82.8"/>
</a>
</g>
</g>
<!-- Node36 -->
<g id="Node000036" class="node">
<title>Node36</title>
<g id="a_Node000036"><a xlink:title=" ">
<polygon fill="#e0e0e0" stroke="#999999" points="859.12,-74.5 813.12,-74.5 813.12,-55.25 859.12,-55.25 859.12,-74.5"/>
<text text-anchor="middle" x="836.12" y="-61" font-family="Helvetica,sans-Serif" font-size="10.00">TKey.h</text>
</a>
</g>
</g>
<!-- Node32&#45;&gt;Node36 -->
<g id="edge46_Node000032_Node000036" class="edge">
<title>Node32&#45;&gt;Node36</title>
<g id="a_edge46_Node000032_Node000036"><a xlink:title=" ">
<path fill="none" stroke="#63b8ff" d="M810.24,-110.33C814.3,-103.36 820.12,-93.37 825.21,-84.62"/>
<polygon fill="#63b8ff" stroke="#63b8ff" points="828.13,-86.57 830.13,-76.17 822.08,-83.05 828.13,-86.57"/>
</a>
</g>
</g>
</g>
</svg>
