<?xml version="1.0" encoding="UTF-8" standalone="no"?>
<!DOCTYPE svg PUBLIC "-//W3C//DTD SVG 1.1//EN"
 "http://www.w3.org/Graphics/SVG/1.1/DTD/svg11.dtd">
<!-- Generated by graphviz version 12.2.0 (20241103.1931)
 -->
<!-- Title: TScaler.h Pages: 1 -->
<!--zoomable 193 -->

<svg id="main" version="1.1" xmlns="http://www.w3.org/2000/svg" xmlns:xlink="http://www.w3.org/1999/xlink" xml:space="preserve" onload="init(evt)">

<style type="text/css"><![CDATA[
.node, .edge {opacity: 0.7;}
.node.selected, .edge.selected {opacity: 1;}
.edge:hover path { stroke: red; }
.edge:hover polygon { stroke: red; fill: red; }
]]></style>

<defs>
  <circle id="rim" cx="0" cy="0" r="7"/>
  <circle id="rim2" cx="0" cy="0" r="3.5"/>
  <g id="zoomPlus">
    <use xlink:href="#rim" fill="#404040"><set attributeName="fill" to="#808080" begin="zoomplus.mouseover" end="zoomplus.mouseout"/></use>
    <path d="M-4,0h8M0,-4v8" fill="none" stroke="white" stroke-width="1.5" pointer-events="none"/>
  </g>
  <g id="zoomMin">
    <use xlink:href="#rim" fill="#404040"><set attributeName="fill" to="#808080" begin="zoomminus.mouseover" end="zoomminus.mouseout"/></use>
    <path d="M-4,0h8" fill="none" stroke="white" stroke-width="1.5" pointer-events="none"/>
  </g>
  <g id="arrowUp" transform="translate(30 24)">
    <use xlink:href="#rim"/>
    <path pointer-events="none" fill="none" stroke="white" stroke-width="1.5" d="M0,-3.0v7 M-2.5,-0.5L0,-3.0L2.5,-0.5"/>
  </g>
  <g id="arrowRight" transform="rotate(90) translate(36 -43)">
    <use xlink:href="#rim"/>
    <path pointer-events="none" fill="none" stroke="white" stroke-width="1.5" d="M0,-3.0v7 M-2.5,-0.5L0,-3.0L2.5,-0.5"/>
  </g>
  <g id="arrowDown" transform="rotate(180) translate(-30 -48)">
    <use xlink:href="#rim"/>
    <path pointer-events="none" fill="none" stroke="white" stroke-width="1.5" d="M0,-3.0v7 M-2.5,-0.5L0,-3.0L2.5,-0.5"/>
  </g>
  <g id="arrowLeft" transform="rotate(270) translate(-36 17)">
    <use xlink:href="#rim"/>
    <path pointer-events="none" fill="none" stroke="white" stroke-width="1.5" d="M0,-3.0v7 M-2.5,-0.5L0,-3.0L2.5,-0.5"/>
  </g>
  <g id="resetDef">
    <use xlink:href="#rim2" fill="#404040"><set attributeName="fill" to="#808080" begin="reset.mouseover" end="reset.mouseout"/></use>
  </g>
</defs>
<script type="application/ecmascript">
var viewWidth = 1952;
var viewHeight = 193;
var sectionId = 'dynsection-1';
</script>
<script type="application/ecmascript" xlink:href="svg.min.js"/>
<svg id="graph" class="graph">
<g id="viewport">
<title>TScaler.h</title>
<!-- Node1 -->
<g id="Node000001" class="node">
<title>Node1</title>
<g id="a_Node000001"><a xlink:title=" ">
<polygon fill="#999999" stroke="#666666" points="965.25,-185 908,-185 908,-165.75 965.25,-165.75 965.25,-185"/>
<text text-anchor="middle" x="936.62" y="-171.5" font-family="Helvetica,sans-Serif" font-size="10.00">TScaler.h</text>
</a>
</g>
</g>
<!-- Node2 -->
<g id="Node000002" class="node">
<title>Node2</title>
<g id="a_Node000002"><a xlink:href="_deadtime_8cxx.html" target="_top" xlink:title=" ">
<polygon fill="white" stroke="#666666" points="243.5,-129.75 169.75,-129.75 169.75,-110.5 243.5,-110.5 243.5,-129.75"/>
<text text-anchor="middle" x="206.62" y="-116.25" font-family="Helvetica,sans-Serif" font-size="10.00">Deadtime.cxx</text>
</a>
</g>
</g>
<!-- Node1&#45;&gt;Node2 -->
<g id="edge1_Node000001_Node000002" class="edge">
<title>Node1&#45;&gt;Node2</title>
<g id="a_edge1_Node000001_Node000002"><a xlink:title=" ">
<path fill="none" stroke="#63b8ff" d="M896.09,-173.43C790.02,-170.59 495.63,-160.35 252.62,-129.75 249.8,-129.39 246.89,-128.98 243.97,-128.52"/>
<polygon fill="#63b8ff" stroke="#63b8ff" points="895.9,-176.93 905.99,-173.69 896.09,-169.93 895.9,-176.93"/>
</a>
</g>
</g>
<!-- Node3 -->
<g id="Node000003" class="node">
<title>Node3</title>
<g id="a_Node000003"><a xlink:href="_t_g_r_s_i_data_parser_8h.html" target="_top" xlink:title=" ">
<polygon fill="white" stroke="#666666" points="363.75,-129.75 261.5,-129.75 261.5,-110.5 363.75,-110.5 363.75,-129.75"/>
<text text-anchor="middle" x="312.62" y="-116.25" font-family="Helvetica,sans-Serif" font-size="10.00">TGRSIDataParser.h</text>
</a>
</g>
</g>
<!-- Node1&#45;&gt;Node3 -->
<g id="edge2_Node000001_Node000003" class="edge">
<title>Node1&#45;&gt;Node3</title>
<g id="a_edge2_Node000001_Node000003"><a xlink:title=" ">
<path fill="none" stroke="#63b8ff" d="M896.33,-170.94C787.12,-161.62 485.57,-135.88 364.21,-125.53"/>
<polygon fill="#63b8ff" stroke="#63b8ff" points="896.01,-174.42 906.27,-171.78 896.61,-167.45 896.01,-174.42"/>
</a>
</g>
</g>
<!-- Node9 -->
<g id="Node000009" class="node">
<title>Node9</title>
<g id="a_Node000009"><a xlink:href="_t_h_i_l_data_parser_8h.html" target="_top" xlink:title=" ">
<polygon fill="white" stroke="#666666" points="734,-129.75 639.25,-129.75 639.25,-110.5 734,-110.5 734,-129.75"/>
<text text-anchor="middle" x="686.62" y="-116.25" font-family="Helvetica,sans-Serif" font-size="10.00">THILDataParser.h</text>
</a>
</g>
</g>
<!-- Node1&#45;&gt;Node9 -->
<g id="edge11_Node000001_Node000009" class="edge">
<title>Node1&#45;&gt;Node9</title>
<g id="a_edge11_Node000001_Node000009"><a xlink:title=" ">
<path fill="none" stroke="#63b8ff" d="M896.97,-165.93C851.16,-156.17 776.09,-140.18 729.11,-130.18"/>
<polygon fill="#63b8ff" stroke="#63b8ff" points="895.96,-169.29 906.47,-167.95 897.42,-162.44 895.96,-169.29"/>
</a>
</g>
</g>
<!-- Node14 -->
<g id="Node000014" class="node">
<title>Node14</title>
<g id="a_Node000014"><a xlink:href="_t_i_l_l_data_parser_8h.html" target="_top" xlink:title=" ">
<polygon fill="white" stroke="#666666" points="983.25,-129.75 890,-129.75 890,-110.5 983.25,-110.5 983.25,-129.75"/>
<text text-anchor="middle" x="936.62" y="-116.25" font-family="Helvetica,sans-Serif" font-size="10.00">TILLDataParser.h</text>
</a>
</g>
</g>
<!-- Node1&#45;&gt;Node14 -->
<g id="edge18_Node000001_Node000014" class="edge">
<title>Node1&#45;&gt;Node14</title>
<g id="a_edge18_Node000001_Node000014"><a xlink:title=" ">
<path fill="none" stroke="#63b8ff" d="M936.62,-154.13C936.62,-145.84 936.62,-136.67 936.62,-130.11"/>
<polygon fill="#63b8ff" stroke="#63b8ff" points="933.13,-154.07 936.63,-164.07 940.13,-154.07 933.13,-154.07"/>
</a>
</g>
</g>
<!-- Node19 -->
<g id="Node000019" class="node">
<title>Node19</title>
<g id="a_Node000019"><a xlink:href="_t_scaler_8cxx.html" target="_top" xlink:title=" ">
<polygon fill="white" stroke="#666666" points="1067.75,-129.75 1001.5,-129.75 1001.5,-110.5 1067.75,-110.5 1067.75,-129.75"/>
<text text-anchor="middle" x="1034.62" y="-116.25" font-family="Helvetica,sans-Serif" font-size="10.00">TScaler.cxx</text>
</a>
</g>
</g>
<!-- Node1&#45;&gt;Node19 -->
<g id="edge25_Node000001_Node000019" class="edge">
<title>Node1&#45;&gt;Node19</title>
<g id="a_edge25_Node000001_Node000019"><a xlink:title=" ">
<path fill="none" stroke="#63b8ff" d="M962.88,-160.11C980.37,-150.61 1002.83,-138.4 1017.92,-130.2"/>
<polygon fill="#63b8ff" stroke="#63b8ff" points="961.69,-156.77 954.58,-164.62 965.04,-162.92 961.69,-156.77"/>
</a>
</g>
</g>
<!-- Node20 -->
<g id="Node000020" class="node">
<title>Node20</title>
<g id="a_Node000020"><a xlink:href="_t_scaler_queue_8h.html" target="_top" xlink:title=" ">
<polygon fill="white" stroke="#666666" points="1242.5,-74.5 1156.75,-74.5 1156.75,-55.25 1242.5,-55.25 1242.5,-74.5"/>
<text text-anchor="middle" x="1199.62" y="-61" font-family="Helvetica,sans-Serif" font-size="10.00">TScalerQueue.h</text>
</a>
</g>
</g>
<!-- Node1&#45;&gt;Node20 -->
<g id="edge26_Node000001_Node000020" class="edge">
<title>Node1&#45;&gt;Node20</title>
<g id="a_edge26_Node000001_Node000020"><a xlink:title=" ">
<path fill="none" stroke="#63b8ff" d="M976.27,-163.7C1004.66,-155.58 1043.56,-143.49 1076.62,-129.75 1116.84,-113.04 1161.68,-88.03 1184.5,-74.81"/>
<polygon fill="#63b8ff" stroke="#63b8ff" points="975.69,-160.22 967.02,-166.3 977.59,-166.96 975.69,-160.22"/>
</a>
</g>
</g>
<!-- Node26 -->
<g id="Node000026" class="node">
<title>Node26</title>
<g id="a_Node000026"><a xlink:href="_t_tdr_data_parser_8h.html" target="_top" xlink:title=" ">
<polygon fill="white" stroke="#666666" points="1747.88,-129.75 1655.38,-129.75 1655.38,-110.5 1747.88,-110.5 1747.88,-129.75"/>
<text text-anchor="middle" x="1701.62" y="-116.25" font-family="Helvetica,sans-Serif" font-size="10.00">TTdrDataParser.h</text>
</a>
</g>
</g>
<!-- Node1&#45;&gt;Node26 -->
<g id="edge35_Node000001_Node000026" class="edge">
<title>Node1&#45;&gt;Node26</title>
<g id="a_edge35_Node000001_Node000026"><a xlink:title=" ">
<path fill="none" stroke="#63b8ff" d="M977.06,-171.56C1107.38,-162.49 1516.02,-134.04 1654.89,-124.38"/>
<polygon fill="#63b8ff" stroke="#63b8ff" points="976.92,-168.06 967.19,-172.25 977.41,-175.04 976.92,-168.06"/>
</a>
</g>
</g>
<!-- Node4 -->
<g id="Node000004" class="node">
<title>Node4</title>
<g id="a_Node000004"><a xlink:href="_g_r_s_i_data_library_8cxx.html" target="_top" xlink:title=" ">
<polygon fill="white" stroke="#666666" points="446.62,-74.5 340.62,-74.5 340.62,-55.25 446.62,-55.25 446.62,-74.5"/>
<text text-anchor="middle" x="393.62" y="-61" font-family="Helvetica,sans-Serif" font-size="10.00">GRSIDataLibrary.cxx</text>
</a>
</g>
</g>
<!-- Node3&#45;&gt;Node4 -->
<g id="edge3_Node000003_Node000004" class="edge">
<title>Node3&#45;&gt;Node4</title>
<g id="a_edge3_Node000003_Node000004"><a xlink:title=" ">
<path fill="none" stroke="#63b8ff" d="M335.96,-103.78C350.16,-94.45 367.81,-82.85 379.82,-74.95"/>
<polygon fill="#63b8ff" stroke="#63b8ff" points="334.06,-100.84 327.63,-109.26 337.91,-106.69 334.06,-100.84"/>
</a>
</g>
</g>
<!-- Node5 -->
<g id="Node000005" class="node">
<title>Node5</title>
<g id="a_Node000005"><a xlink:href="_t_g_r_s_i_data_parser_8cxx.html" target="_top" xlink:title=" ">
<polygon fill="white" stroke="#666666" points="368.25,-19.25 257,-19.25 257,0 368.25,0 368.25,-19.25"/>
<text text-anchor="middle" x="312.62" y="-5.75" font-family="Helvetica,sans-Serif" font-size="10.00">TGRSIDataParser.cxx</text>
</a>
</g>
</g>
<!-- Node3&#45;&gt;Node5 -->
<g id="edge4_Node000003_Node000005" class="edge">
<title>Node3&#45;&gt;Node5</title>
<g id="a_edge4_Node000003_Node000005"><a xlink:title=" ">
<path fill="none" stroke="#63b8ff" d="M312.62,-98.78C312.62,-75.05 312.62,-36.89 312.62,-19.63"/>
<polygon fill="#63b8ff" stroke="#63b8ff" points="309.13,-98.73 312.63,-108.73 316.13,-98.73 309.13,-98.73"/>
</a>
</g>
</g>
<!-- Node6 -->
<g id="Node000006" class="node">
<title>Node6</title>
<g id="a_Node000006"><a xlink:href="_t_g_r_s_i_data_parser_exception_8cxx.html" target="_top" xlink:title=" ">
<polygon fill="white" stroke="#666666" points="153.25,-19.25 0,-19.25 0,0 153.25,0 153.25,-19.25"/>
<text text-anchor="middle" x="76.62" y="-5.75" font-family="Helvetica,sans-Serif" font-size="10.00">TGRSIDataParserException.cxx</text>
</a>
</g>
</g>
<!-- Node3&#45;&gt;Node6 -->
<g id="edge5_Node000003_Node000006" class="edge">
<title>Node3&#45;&gt;Node6</title>
<g id="a_edge5_Node000003_Node000006"><a xlink:title=" ">
<path fill="none" stroke="#63b8ff" d="M249.78,-109.25C202.82,-100.97 143.32,-88.32 122.62,-74.5 101.71,-60.54 87.1,-33.65 80.53,-19.63"/>
<polygon fill="#63b8ff" stroke="#63b8ff" points="249.17,-112.69 259.62,-110.94 250.36,-105.79 249.17,-112.69"/>
</a>
</g>
</g>
<!-- Node7 -->
<g id="Node000007" class="node">
<title>Node7</title>
<g id="a_Node000007"><a xlink:href="_t_g_r_s_i_data_parser_exception_8h.html" target="_top" xlink:title=" ">
<polygon fill="white" stroke="#666666" points="284.75,-74.5 140.5,-74.5 140.5,-55.25 284.75,-55.25 284.75,-74.5"/>
<text text-anchor="middle" x="212.62" y="-61" font-family="Helvetica,sans-Serif" font-size="10.00">TGRSIDataParserException.h</text>
</a>
</g>
</g>
<!-- Node3&#45;&gt;Node7 -->
<g id="edge6_Node000003_Node000007" class="edge">
<title>Node3&#45;&gt;Node7</title>
<g id="a_edge6_Node000003_Node000007"><a xlink:title=" ">
<path fill="none" stroke="#63b8ff" d="M285.58,-104.73C267.77,-95.24 245,-83.11 229.67,-74.95"/>
<polygon fill="#63b8ff" stroke="#63b8ff" points="283.85,-107.77 294.33,-109.38 287.14,-101.59 283.85,-107.77"/>
</a>
</g>
</g>
<!-- Node8 -->
<g id="Node000008" class="node">
<title>Node8</title>
<g id="a_Node000008"><a xlink:href="offsetfix_8cxx.html" target="_top" xlink:title=" ">
<polygon fill="white" stroke="#666666" points="238.38,-19.25 172.88,-19.25 172.88,0 238.38,0 238.38,-19.25"/>
<text text-anchor="middle" x="205.62" y="-5.75" font-family="Helvetica,sans-Serif" font-size="10.00">offsetfix.cxx</text>
</a>
</g>
</g>
<!-- Node3&#45;&gt;Node8 -->
<g id="edge10_Node000003_Node000008" class="edge">
<title>Node3&#45;&gt;Node8</title>
<g id="a_edge10_Node000003_Node000008"><a xlink:title=" ">
<path fill="none" stroke="#63b8ff" d="M251.18,-107.84C201.72,-98.13 139.22,-84.19 131.62,-74.5 113.83,-51.79 152.3,-31.07 180.16,-19.72"/>
<polygon fill="#63b8ff" stroke="#63b8ff" points="250.5,-111.27 260.98,-109.74 251.83,-104.4 250.5,-111.27"/>
</a>
</g>
</g>
<!-- Node7&#45;&gt;Node5 -->
<g id="edge7_Node000007_Node000005" class="edge">
<title>Node7&#45;&gt;Node5</title>
<g id="a_edge7_Node000007_Node000005"><a xlink:title=" ">
<path fill="none" stroke="#63b8ff" d="M239.67,-49.48C257.48,-39.99 280.25,-27.86 295.58,-19.7"/>
<polygon fill="#63b8ff" stroke="#63b8ff" points="238.11,-46.34 230.92,-54.13 241.4,-52.52 238.11,-46.34"/>
</a>
</g>
</g>
<!-- Node7&#45;&gt;Node6 -->
<g id="edge8_Node000007_Node000006" class="edge">
<title>Node7&#45;&gt;Node6</title>
<g id="a_edge8_Node000007_Node000006"><a xlink:title=" ">
<path fill="none" stroke="#63b8ff" d="M178.88,-50.66C154.26,-41.02 121.53,-28.21 99.81,-19.7"/>
<polygon fill="#63b8ff" stroke="#63b8ff" points="177.56,-53.9 188.15,-54.29 180.11,-47.38 177.56,-53.9"/>
</a>
</g>
</g>
<!-- Node7&#45;&gt;Node8 -->
<g id="edge9_Node000007_Node000008" class="edge">
<title>Node7&#45;&gt;Node8</title>
<g id="a_edge9_Node000007_Node000008"><a xlink:title=" ">
<path fill="none" stroke="#63b8ff" d="M210,-43.92C208.9,-35.55 207.68,-26.25 206.81,-19.61"/>
<polygon fill="#63b8ff" stroke="#63b8ff" points="206.5,-44.12 211.27,-53.58 213.44,-43.21 206.5,-44.12"/>
</a>
</g>
</g>
<!-- Node10 -->
<g id="Node000010" class="node">
<title>Node10</title>
<g id="a_Node000010"><a xlink:href="_h_i_l_data_library_8cxx.html" target="_top" xlink:title=" ">
<polygon fill="white" stroke="#666666" points="562.88,-74.5 464.38,-74.5 464.38,-55.25 562.88,-55.25 562.88,-74.5"/>
<text text-anchor="middle" x="513.62" y="-61" font-family="Helvetica,sans-Serif" font-size="10.00">HILDataLibrary.cxx</text>
</a>
</g>
</g>
<!-- Node9&#45;&gt;Node10 -->
<g id="edge12_Node000009_Node000010" class="edge">
<title>Node9&#45;&gt;Node10</title>
<g id="a_edge12_Node000009_Node000010"><a xlink:title=" ">
<path fill="none" stroke="#63b8ff" d="M646.63,-106.82C615.02,-97.09 571.62,-83.73 543.12,-74.95"/>
<polygon fill="#63b8ff" stroke="#63b8ff" points="645.24,-110.05 655.83,-109.65 647.3,-103.36 645.24,-110.05"/>
</a>
</g>
</g>
<!-- Node11 -->
<g id="Node000011" class="node">
<title>Node11</title>
<g id="a_Node000011"><a xlink:href="_t_h_i_l_data_parser_8cxx.html" target="_top" xlink:title=" ">
<polygon fill="white" stroke="#666666" points="817.5,-19.25 713.75,-19.25 713.75,0 817.5,0 817.5,-19.25"/>
<text text-anchor="middle" x="765.62" y="-5.75" font-family="Helvetica,sans-Serif" font-size="10.00">THILDataParser.cxx</text>
</a>
</g>
</g>
<!-- Node9&#45;&gt;Node11 -->
<g id="edge13_Node000009_Node000011" class="edge">
<title>Node9&#45;&gt;Node11</title>
<g id="a_edge13_Node000009_Node000011"><a xlink:title=" ">
<path fill="none" stroke="#63b8ff" d="M726.54,-105.48C740.74,-98.52 755.27,-88.48 763.62,-74.5 773.87,-57.35 770.69,-32.74 767.91,-19.64"/>
<polygon fill="#63b8ff" stroke="#63b8ff" points="725.44,-102.14 717.73,-109.41 728.29,-108.54 725.44,-102.14"/>
</a>
</g>
</g>
<!-- Node12 -->
<g id="Node000012" class="node">
<title>Node12</title>
<g id="a_Node000012"><a xlink:href="_t_h_i_l_data_parser_exception_8cxx.html" target="_top" xlink:title=" ">
<polygon fill="white" stroke="#666666" points="671.5,-19.25 525.75,-19.25 525.75,0 671.5,0 671.5,-19.25"/>
<text text-anchor="middle" x="598.62" y="-5.75" font-family="Helvetica,sans-Serif" font-size="10.00">THILDataParserException.cxx</text>
</a>
</g>
</g>
<!-- Node9&#45;&gt;Node12 -->
<g id="edge14_Node000009_Node000012" class="edge">
<title>Node9&#45;&gt;Node12</title>
<g id="a_edge14_Node000009_Node000012"><a xlink:title=" ">
<path fill="none" stroke="#63b8ff" d="M648.99,-105.48C634.53,-98.4 619.21,-88.28 609.62,-74.5 597.93,-57.69 597.3,-32.5 597.92,-19.34"/>
<polygon fill="#63b8ff" stroke="#63b8ff" points="647.33,-108.58 657.89,-109.49 650.21,-102.19 647.33,-108.58"/>
</a>
</g>
</g>
<!-- Node13 -->
<g id="Node000013" class="node">
<title>Node13</title>
<g id="a_Node000013"><a xlink:href="_t_h_i_l_data_parser_exception_8h.html" target="_top" xlink:title=" ">
<polygon fill="white" stroke="#666666" points="755,-74.5 618.25,-74.5 618.25,-55.25 755,-55.25 755,-74.5"/>
<text text-anchor="middle" x="686.62" y="-61" font-family="Helvetica,sans-Serif" font-size="10.00">THILDataParserException.h</text>
</a>
</g>
</g>
<!-- Node9&#45;&gt;Node13 -->
<g id="edge15_Node000009_Node000013" class="edge">
<title>Node9&#45;&gt;Node13</title>
<g id="a_edge15_Node000009_Node000013"><a xlink:title=" ">
<path fill="none" stroke="#63b8ff" d="M686.62,-98.88C686.62,-90.59 686.62,-81.42 686.62,-74.86"/>
<polygon fill="#63b8ff" stroke="#63b8ff" points="683.13,-98.82 686.63,-108.82 690.13,-98.82 683.13,-98.82"/>
</a>
</g>
</g>
<!-- Node13&#45;&gt;Node11 -->
<g id="edge16_Node000013_Node000011" class="edge">
<title>Node13&#45;&gt;Node11</title>
<g id="a_edge16_Node000013_Node000011"><a xlink:title=" ">
<path fill="none" stroke="#63b8ff" d="M709.39,-48.53C723.23,-39.2 740.45,-27.6 752.16,-19.7"/>
<polygon fill="#63b8ff" stroke="#63b8ff" points="707.62,-45.5 701.28,-54 711.53,-51.31 707.62,-45.5"/>
</a>
</g>
</g>
<!-- Node13&#45;&gt;Node12 -->
<g id="edge17_Node000013_Node000012" class="edge">
<title>Node13&#45;&gt;Node12</title>
<g id="a_edge17_Node000013_Node000012"><a xlink:title=" ">
<path fill="none" stroke="#63b8ff" d="M662.16,-49.07C646.59,-39.65 626.92,-27.75 613.63,-19.7"/>
<polygon fill="#63b8ff" stroke="#63b8ff" points="660.03,-51.88 670.4,-54.06 663.66,-45.89 660.03,-51.88"/>
</a>
</g>
</g>
<!-- Node15 -->
<g id="Node000015" class="node">
<title>Node15</title>
<g id="a_Node000015"><a xlink:href="_i_l_l_data_library_8cxx.html" target="_top" xlink:title=" ">
<polygon fill="white" stroke="#666666" points="908.12,-74.5 811.12,-74.5 811.12,-55.25 908.12,-55.25 908.12,-74.5"/>
<text text-anchor="middle" x="859.62" y="-61" font-family="Helvetica,sans-Serif" font-size="10.00">ILLDataLibrary.cxx</text>
</a>
</g>
</g>
<!-- Node14&#45;&gt;Node15 -->
<g id="edge19_Node000014_Node000015" class="edge">
<title>Node14&#45;&gt;Node15</title>
<g id="a_edge19_Node000014_Node000015"><a xlink:title=" ">
<path fill="none" stroke="#63b8ff" d="M914.44,-103.78C900.94,-94.45 884.17,-82.85 872.75,-74.95"/>
<polygon fill="#63b8ff" stroke="#63b8ff" points="912.1,-106.42 922.32,-109.23 916.08,-100.66 912.1,-106.42"/>
</a>
</g>
</g>
<!-- Node16 -->
<g id="Node000016" class="node">
<title>Node16</title>
<g id="a_Node000016"><a xlink:href="_t_i_l_l_data_parser_8cxx.html" target="_top" xlink:title=" ">
<polygon fill="white" stroke="#666666" points="1099.75,-19.25 997.5,-19.25 997.5,0 1099.75,0 1099.75,-19.25"/>
<text text-anchor="middle" x="1048.62" y="-5.75" font-family="Helvetica,sans-Serif" font-size="10.00">TILLDataParser.cxx</text>
</a>
</g>
</g>
<!-- Node14&#45;&gt;Node16 -->
<g id="edge20_Node000014_Node000016" class="edge">
<title>Node14&#45;&gt;Node16</title>
<g id="a_edge20_Node000014_Node000016"><a xlink:title=" ">
<path fill="none" stroke="#63b8ff" d="M994.81,-107.77C1042.18,-97.94 1102.37,-83.86 1109.62,-74.5 1125.97,-53.41 1091.91,-31.48 1068.42,-19.6"/>
<polygon fill="#63b8ff" stroke="#63b8ff" points="994.27,-104.31 985.18,-109.75 995.68,-111.17 994.27,-104.31"/>
</a>
</g>
</g>
<!-- Node17 -->
<g id="Node000017" class="node">
<title>Node17</title>
<g id="a_Node000017"><a xlink:href="_t_i_l_l_data_parser_exception_8cxx.html" target="_top" xlink:title=" ">
<polygon fill="white" stroke="#666666" points="979.75,-19.25 835.5,-19.25 835.5,0 979.75,0 979.75,-19.25"/>
<text text-anchor="middle" x="907.62" y="-5.75" font-family="Helvetica,sans-Serif" font-size="10.00">TILLDataParserException.cxx</text>
</a>
</g>
</g>
<!-- Node14&#45;&gt;Node17 -->
<g id="edge21_Node000014_Node000017" class="edge">
<title>Node14&#45;&gt;Node17</title>
<g id="a_edge21_Node000014_Node000017"><a xlink:title=" ">
<path fill="none" stroke="#63b8ff" d="M931.36,-99.43C925.03,-75.76 914.69,-37.05 910.03,-19.63"/>
<polygon fill="#63b8ff" stroke="#63b8ff" points="927.9,-100.03 933.86,-108.78 934.66,-98.22 927.9,-100.03"/>
</a>
</g>
</g>
<!-- Node18 -->
<g id="Node000018" class="node">
<title>Node18</title>
<g id="a_Node000018"><a xlink:href="_t_i_l_l_data_parser_exception_8h.html" target="_top" xlink:title=" ">
<polygon fill="white" stroke="#666666" points="1100.25,-74.5 965,-74.5 965,-55.25 1100.25,-55.25 1100.25,-74.5"/>
<text text-anchor="middle" x="1032.62" y="-61" font-family="Helvetica,sans-Serif" font-size="10.00">TILLDataParserException.h</text>
</a>
</g>
</g>
<!-- Node14&#45;&gt;Node18 -->
<g id="edge22_Node000014_Node000018" class="edge">
<title>Node14&#45;&gt;Node18</title>
<g id="a_edge22_Node000014_Node000018"><a xlink:title=" ">
<path fill="none" stroke="#63b8ff" d="M962.83,-104.59C979.89,-95.13 1001.62,-83.08 1016.26,-74.95"/>
<polygon fill="#63b8ff" stroke="#63b8ff" points="961.28,-101.45 954.23,-109.36 964.68,-107.57 961.28,-101.45"/>
</a>
</g>
</g>
<!-- Node18&#45;&gt;Node16 -->
<g id="edge23_Node000018_Node000016" class="edge">
<title>Node18&#45;&gt;Node16</title>
<g id="a_edge23_Node000018_Node000016"><a xlink:title=" ">
<path fill="none" stroke="#63b8ff" d="M1038.53,-44.21C1041.07,-35.77 1043.91,-26.33 1045.93,-19.61"/>
<polygon fill="#63b8ff" stroke="#63b8ff" points="1035.23,-43.05 1035.7,-53.63 1041.93,-45.06 1035.23,-43.05"/>
</a>
</g>
</g>
<!-- Node18&#45;&gt;Node17 -->
<g id="edge24_Node000018_Node000017" class="edge">
<title>Node18&#45;&gt;Node17</title>
<g id="a_edge24_Node000018_Node000017"><a xlink:title=" ">
<path fill="none" stroke="#63b8ff" d="M1001,-50.4C978.44,-40.79 948.72,-28.13 928.93,-19.7"/>
<polygon fill="#63b8ff" stroke="#63b8ff" points="999.46,-53.55 1010.03,-54.25 1002.2,-47.11 999.46,-53.55"/>
</a>
</g>
</g>
<!-- Node20&#45;&gt;Node5 -->
<g id="edge30_Node000020_Node000005" class="edge">
<title>Node20&#45;&gt;Node5</title>
<g id="a_edge30_Node000020_Node000005"><a xlink:title=" ">
<path fill="none" stroke="#63b8ff" d="M1145.53,-58.34C1133.7,-57.23 1121.25,-56.13 1109.62,-55.25 831.87,-34.17 498.95,-18.68 368.72,-13"/>
<polygon fill="#63b8ff" stroke="#63b8ff" points="1144.83,-61.79 1155.12,-59.26 1145.5,-54.82 1144.83,-61.79"/>
</a>
</g>
</g>
<!-- Node20&#45;&gt;Node11 -->
<g id="edge31_Node000020_Node000011" class="edge">
<title>Node20&#45;&gt;Node11</title>
<g id="a_edge31_Node000020_Node000011"><a xlink:title=" ">
<path fill="none" stroke="#63b8ff" d="M1145.38,-57.75C1072.74,-49.47 939.88,-34.03 826.62,-19.25 823.76,-18.88 820.82,-18.49 817.86,-18.09"/>
<polygon fill="#63b8ff" stroke="#63b8ff" points="1144.68,-61.2 1155.01,-58.85 1145.47,-54.24 1144.68,-61.2"/>
</a>
</g>
</g>
<!-- Node20&#45;&gt;Node16 -->
<g id="edge32_Node000020_Node000016" class="edge">
<title>Node20&#45;&gt;Node16</title>
<g id="a_edge32_Node000020_Node000016"><a xlink:title=" ">
<path fill="none" stroke="#63b8ff" d="M1163.26,-51.05C1135.81,-41.37 1098.81,-28.32 1074.37,-19.7"/>
<polygon fill="#63b8ff" stroke="#63b8ff" points="1161.99,-54.31 1172.58,-54.34 1164.32,-47.71 1161.99,-54.31"/>
</a>
</g>
</g>
<!-- Node21 -->
<g id="Node000021" class="node">
<title>Node21</title>
<g id="a_Node000021"><a xlink:href="_t_data_parser_8cxx.html" target="_top" xlink:title=" ">
<polygon fill="white" stroke="#666666" points="1438.25,-19.25 1351,-19.25 1351,0 1438.25,0 1438.25,-19.25"/>
<text text-anchor="middle" x="1394.62" y="-5.75" font-family="Helvetica,sans-Serif" font-size="10.00">TDataParser.cxx</text>
</a>
</g>
</g>
<!-- Node20&#45;&gt;Node21 -->
<g id="edge27_Node000020_Node000021" class="edge">
<title>Node20&#45;&gt;Node21</title>
<g id="a_edge27_Node000020_Node000021"><a xlink:title=" ">
<path fill="none" stroke="#63b8ff" d="M1243.77,-51.82C1279.48,-42.07 1328.97,-28.55 1361.38,-19.7"/>
<polygon fill="#63b8ff" stroke="#63b8ff" points="1242.89,-48.43 1234.16,-54.44 1244.73,-55.19 1242.89,-48.43"/>
</a>
</g>
</g>
<!-- Node22 -->
<g id="Node000022" class="node">
<title>Node22</title>
<g id="a_Node000022"><a xlink:href="_t_frag_diagnostics_loop_8cxx.html" target="_top" xlink:title=" ">
<polygon fill="white" stroke="#666666" points="1587,-19.25 1456.25,-19.25 1456.25,0 1587,0 1587,-19.25"/>
<text text-anchor="middle" x="1521.62" y="-5.75" font-family="Helvetica,sans-Serif" font-size="10.00">TFragDiagnosticsLoop.cxx</text>
</a>
</g>
</g>
<!-- Node20&#45;&gt;Node22 -->
<g id="edge28_Node000020_Node000022" class="edge">
<title>Node20&#45;&gt;Node22</title>
<g id="a_edge28_Node000020_Node000022"><a xlink:title=" ">
<path fill="none" stroke="#63b8ff" d="M1254.07,-54.87C1313.25,-45.08 1407.29,-29.53 1466.67,-19.71"/>
<polygon fill="#63b8ff" stroke="#63b8ff" points="1253.51,-51.42 1244.21,-56.5 1254.65,-58.32 1253.51,-51.42"/>
</a>
</g>
</g>
<!-- Node23 -->
<g id="Node000023" class="node">
<title>Node23</title>
<g id="a_Node000023"><a xlink:href="_t_frag_write_loop_8cxx.html" target="_top" xlink:title=" ">
<polygon fill="white" stroke="#666666" points="1219.75,-19.25 1117.5,-19.25 1117.5,0 1219.75,0 1219.75,-19.25"/>
<text text-anchor="middle" x="1168.62" y="-5.75" font-family="Helvetica,sans-Serif" font-size="10.00">TFragWriteLoop.cxx</text>
</a>
</g>
</g>
<!-- Node20&#45;&gt;Node23 -->
<g id="edge29_Node000020_Node000023" class="edge">
<title>Node20&#45;&gt;Node23</title>
<g id="a_edge29_Node000020_Node000023"><a xlink:title=" ">
<path fill="none" stroke="#63b8ff" d="M1188.85,-45.37C1183.77,-36.64 1177.95,-26.64 1173.86,-19.61"/>
<polygon fill="#63b8ff" stroke="#63b8ff" points="1185.69,-46.89 1193.74,-53.77 1191.74,-43.37 1185.69,-46.89"/>
</a>
</g>
</g>
<!-- Node24 -->
<g id="Node000024" class="node">
<title>Node24</title>
<g id="a_Node000024"><a xlink:href="_t_scaler_queue_8cxx.html" target="_top" xlink:title=" ">
<polygon fill="white" stroke="#666666" points="1333,-19.25 1238.25,-19.25 1238.25,0 1333,0 1333,-19.25"/>
<text text-anchor="middle" x="1285.62" y="-5.75" font-family="Helvetica,sans-Serif" font-size="10.00">TScalerQueue.cxx</text>
</a>
</g>
</g>
<!-- Node20&#45;&gt;Node24 -->
<g id="edge33_Node000020_Node000024" class="edge">
<title>Node20&#45;&gt;Node24</title>
<g id="a_edge33_Node000020_Node000024"><a xlink:title=" ">
<path fill="none" stroke="#63b8ff" d="M1223.97,-48.8C1239.11,-39.42 1258.09,-27.67 1270.96,-19.7"/>
<polygon fill="#63b8ff" stroke="#63b8ff" points="1222.16,-45.8 1215.5,-54.05 1225.85,-51.76 1222.16,-45.8"/>
</a>
</g>
</g>
<!-- Node25 -->
<g id="Node000025" class="node">
<title>Node25</title>
<g id="a_Node000025"><a xlink:href="_t_tdr_data_parser_8cxx.html" target="_top" xlink:title=" ">
<polygon fill="white" stroke="#666666" points="1706.38,-19.25 1604.88,-19.25 1604.88,0 1706.38,0 1706.38,-19.25"/>
<text text-anchor="middle" x="1655.62" y="-5.75" font-family="Helvetica,sans-Serif" font-size="10.00">TTdrDataParser.cxx</text>
</a>
</g>
</g>
<!-- Node20&#45;&gt;Node25 -->
<g id="edge34_Node000020_Node000025" class="edge">
<title>Node20&#45;&gt;Node25</title>
<g id="a_edge34_Node000020_Node000025"><a xlink:title=" ">
<path fill="none" stroke="#63b8ff" d="M1253.97,-58.28C1330.34,-50.3 1473.73,-34.88 1595.62,-19.25 1598.55,-18.88 1601.55,-18.48 1604.58,-18.07"/>
<polygon fill="#63b8ff" stroke="#63b8ff" points="1253.84,-54.78 1244.25,-59.29 1254.56,-61.74 1253.84,-54.78"/>
</a>
</g>
</g>
<!-- Node26&#45;&gt;Node25 -->
<g id="edge36_Node000026_Node000025" class="edge">
<title>Node26&#45;&gt;Node25</title>
<g id="a_edge36_Node000026_Node000025"><a xlink:title=" ">
<path fill="none" stroke="#63b8ff" d="M1661.99,-105.5C1647.94,-98.53 1633.64,-88.5 1625.62,-74.5 1614.79,-55.57 1633.53,-32.09 1645.95,-19.53"/>
<polygon fill="#63b8ff" stroke="#63b8ff" points="1660.15,-108.51 1670.7,-109.42 1663.02,-102.12 1660.15,-108.51"/>
</a>
</g>
</g>
<!-- Node27 -->
<g id="Node000027" class="node">
<title>Node27</title>
<g id="a_Node000027"><a xlink:href="_t_tdr_data_parser_exception_8cxx.html" target="_top" xlink:title=" ">
<polygon fill="white" stroke="#666666" points="1868.38,-19.25 1724.88,-19.25 1724.88,0 1868.38,0 1868.38,-19.25"/>
<text text-anchor="middle" x="1796.62" y="-5.75" font-family="Helvetica,sans-Serif" font-size="10.00">TTdrDataParserException.cxx</text>
</a>
</g>
</g>
<!-- Node26&#45;&gt;Node27 -->
<g id="edge37_Node000026_Node000027" class="edge">
<title>Node26&#45;&gt;Node27</title>
<g id="a_edge37_Node000026_Node000027"><a xlink:title=" ">
<path fill="none" stroke="#63b8ff" d="M1737.05,-105.27C1751.46,-98.04 1767.15,-87.88 1777.62,-74.5 1790.61,-57.92 1794.74,-32.63 1796.03,-19.4"/>
<polygon fill="#63b8ff" stroke="#63b8ff" points="1735.84,-101.98 1728.25,-109.38 1738.8,-108.32 1735.84,-101.98"/>
</a>
</g>
</g>
<!-- Node28 -->
<g id="Node000028" class="node">
<title>Node28</title>
<g id="a_Node000028"><a xlink:href="_t_tdr_data_parser_exception_8h.html" target="_top" xlink:title=" ">
<polygon fill="white" stroke="#666666" points="1768.88,-74.5 1634.38,-74.5 1634.38,-55.25 1768.88,-55.25 1768.88,-74.5"/>
<text text-anchor="middle" x="1701.62" y="-61" font-family="Helvetica,sans-Serif" font-size="10.00">TTdrDataParserException.h</text>
</a>
</g>
</g>
<!-- Node26&#45;&gt;Node28 -->
<g id="edge38_Node000026_Node000028" class="edge">
<title>Node26&#45;&gt;Node28</title>
<g id="a_edge38_Node000026_Node000028"><a xlink:title=" ">
<path fill="none" stroke="#63b8ff" d="M1701.62,-98.88C1701.62,-90.59 1701.62,-81.42 1701.62,-74.86"/>
<polygon fill="#63b8ff" stroke="#63b8ff" points="1698.13,-98.82 1701.63,-108.82 1705.13,-98.82 1698.13,-98.82"/>
</a>
</g>
</g>
<!-- Node29 -->
<g id="Node000029" class="node">
<title>Node29</title>
<g id="a_Node000029"><a xlink:href="i_themba_data_library_8cxx.html" target="_top" xlink:title=" ">
<polygon fill="white" stroke="#666666" points="1944.38,-74.5 1824.88,-74.5 1824.88,-55.25 1944.38,-55.25 1944.38,-74.5"/>
<text text-anchor="middle" x="1884.62" y="-61" font-family="Helvetica,sans-Serif" font-size="10.00">iThembaDataLibrary.cxx</text>
</a>
</g>
</g>
<!-- Node26&#45;&gt;Node29 -->
<g id="edge41_Node000026_Node000029" class="edge">
<title>Node26&#45;&gt;Node29</title>
<g id="a_edge41_Node000026_Node000029"><a xlink:title=" ">
<path fill="none" stroke="#63b8ff" d="M1743.49,-106.94C1776.96,-97.2 1823.14,-83.77 1853.43,-74.95"/>
<polygon fill="#63b8ff" stroke="#63b8ff" points="1742.75,-103.51 1734.12,-109.67 1744.7,-110.24 1742.75,-103.51"/>
</a>
</g>
</g>
<!-- Node28&#45;&gt;Node25 -->
<g id="edge39_Node000028_Node000025" class="edge">
<title>Node28&#45;&gt;Node25</title>
<g id="a_edge39_Node000028_Node000025"><a xlink:title=" ">
<path fill="none" stroke="#63b8ff" d="M1686.62,-46.51C1678.87,-37.53 1669.72,-26.95 1663.39,-19.61"/>
<polygon fill="#63b8ff" stroke="#63b8ff" points="1683.85,-48.66 1693.04,-53.94 1689.15,-44.08 1683.85,-48.66"/>
</a>
</g>
</g>
<!-- Node28&#45;&gt;Node27 -->
<g id="edge40_Node000028_Node000027" class="edge">
<title>Node28&#45;&gt;Node27</title>
<g id="a_edge40_Node000028_Node000027"><a xlink:title=" ">
<path fill="none" stroke="#63b8ff" d="M1727.55,-49.34C1744.44,-39.88 1765.94,-27.83 1780.43,-19.7"/>
<polygon fill="#63b8ff" stroke="#63b8ff" points="1726.07,-46.16 1719.06,-54.1 1729.5,-52.27 1726.07,-46.16"/>
</a>
</g>
</g>
</g>
</svg>

<g id="navigator" transform="translate(0 0)" fill="#404254">
  <rect fill="#f2f5e9" fill-opacity="0.5" stroke="#606060" stroke-width=".5" x="0" y="0" width="60" height="60"/>
  <use id="zoomplus" xlink:href="#zoomPlus" x="17" y="9" onmousedown="handleZoom(evt,'in')"/>
  <use id="zoomminus" xlink:href="#zoomMin" x="42" y="9" onmousedown="handleZoom(evt,'out')"/>
  <use id="reset" xlink:href="#resetDef" x="30" y="36" onmousedown="handleReset()"/>
   <use id="arrowup" xlink:href="#arrowUp" x="0" y="0" onmousedown="handlePan(0,-1)"/>
  <use id="arrowright" xlink:href="#arrowRight" x="0" y="0" onmousedown="handlePan(1,0)"/>
  <use id="arrowdown" xlink:href="#arrowDown" x="0" y="0" onmousedown="handlePan(0,1)"/>
  <use id="arrowleft" xlink:href="#arrowLeft" x="0" y="0" onmousedown="handlePan(-1,0)"/>
</g>
<svg viewBox="0 0 15 15" width="100%" height="30px" preserveAspectRatio="xMaxYMin meet">
 <g id="arrow_out" transform="scale(0.3 0.3)">
  <a xlink:href="_t_scaler_8h__dep__incl_org.svg" target="_base">
   <rect id="button" ry="5" rx="5" y="6" x="6" height="38" width="38"
        fill="#f2f5e9" fill-opacity="0.5" stroke="#606060" stroke-width="1.0"/>
   <path id="arrow"
     d="M 11.500037,31.436501 C 11.940474,20.09759 22.043105,11.32322 32.158766,21.979434 L 37.068811,17.246167 C 37.068811,17.246167 37.088388,32 37.088388,32 L 22.160133,31.978069 C 22.160133,31.978069 26.997745,27.140456 26.997745,27.140456 C 18.528582,18.264221 13.291696,25.230495 11.500037,31.436501 z"
     style="fill:#404040;"/>
  </a>
 </g>
</svg>

<style type='text/css'>
<![CDATA[
[data-mouse-over-selected='false'] { opacity: 0.7; }
[data-mouse-over-selected='true']  { opacity: 1.0; }
]]>
</style>
<script type="application/ecmascript"><![CDATA[
document.addEventListener('DOMContentLoaded', (event) => {
  highlightEdges();
  highlightAdjacentNodes();
});
]]></script>
</svg>
