<?xml version="1.0" encoding="UTF-8" standalone="no"?>
<!DOCTYPE svg PUBLIC "-//W3C//DTD SVG 1.1//EN"
 "http://www.w3.org/Graphics/SVG/1.1/DTD/svg11.dtd">
<!-- Generated by graphviz version 12.2.0 (20241103.1931)
 -->
<!-- Title: TSceptarHit.h Pages: 1 -->
<!--zoomable 193 -->

<svg id="main" version="1.1" xmlns="http://www.w3.org/2000/svg" xmlns:xlink="http://www.w3.org/1999/xlink" xml:space="preserve" onload="init(evt)">

<style type="text/css"><![CDATA[
.node, .edge {opacity: 0.7;}
.node.selected, .edge.selected {opacity: 1;}
.edge:hover path { stroke: red; }
.edge:hover polygon { stroke: red; fill: red; }
]]></style>

<defs>
  <circle id="rim" cx="0" cy="0" r="7"/>
  <circle id="rim2" cx="0" cy="0" r="3.5"/>
  <g id="zoomPlus">
    <use xlink:href="#rim" fill="#404040"><set attributeName="fill" to="#808080" begin="zoomplus.mouseover" end="zoomplus.mouseout"/></use>
    <path d="M-4,0h8M0,-4v8" fill="none" stroke="white" stroke-width="1.5" pointer-events="none"/>
  </g>
  <g id="zoomMin">
    <use xlink:href="#rim" fill="#404040"><set attributeName="fill" to="#808080" begin="zoomminus.mouseover" end="zoomminus.mouseout"/></use>
    <path d="M-4,0h8" fill="none" stroke="white" stroke-width="1.5" pointer-events="none"/>
  </g>
  <g id="arrowUp" transform="translate(30 24)">
    <use xlink:href="#rim"/>
    <path pointer-events="none" fill="none" stroke="white" stroke-width="1.5" d="M0,-3.0v7 M-2.5,-0.5L0,-3.0L2.5,-0.5"/>
  </g>
  <g id="arrowRight" transform="rotate(90) translate(36 -43)">
    <use xlink:href="#rim"/>
    <path pointer-events="none" fill="none" stroke="white" stroke-width="1.5" d="M0,-3.0v7 M-2.5,-0.5L0,-3.0L2.5,-0.5"/>
  </g>
  <g id="arrowDown" transform="rotate(180) translate(-30 -48)">
    <use xlink:href="#rim"/>
    <path pointer-events="none" fill="none" stroke="white" stroke-width="1.5" d="M0,-3.0v7 M-2.5,-0.5L0,-3.0L2.5,-0.5"/>
  </g>
  <g id="arrowLeft" transform="rotate(270) translate(-36 17)">
    <use xlink:href="#rim"/>
    <path pointer-events="none" fill="none" stroke="white" stroke-width="1.5" d="M0,-3.0v7 M-2.5,-0.5L0,-3.0L2.5,-0.5"/>
  </g>
  <g id="resetDef">
    <use xlink:href="#rim2" fill="#404040"><set attributeName="fill" to="#808080" begin="reset.mouseover" end="reset.mouseout"/></use>
  </g>
</defs>
<script type="application/ecmascript">
var viewWidth = 1659;
var viewHeight = 193;
var sectionId = 'dynsection-1';
</script>
<script type="application/ecmascript" xlink:href="svg.min.js"/>
<svg id="graph" class="graph">
<g id="viewport">
<title>TSceptarHit.h</title>
<!-- Node1 -->
<g id="Node000001" class="node">
<title>Node1</title>
<g id="a_Node000001"><a xlink:title=" ">
<polygon fill="#999999" stroke="#666666" points="1001.25,-185 925.25,-185 925.25,-165.75 1001.25,-165.75 1001.25,-185"/>
<text text-anchor="middle" x="963.25" y="-171.5" font-family="Helvetica,sans-Serif" font-size="10.00">TSceptarHit.h</text>
</a>
</g>
</g>
<!-- Node2 -->
<g id="Node000002" class="node">
<title>Node2</title>
<g id="a_Node000002"><a xlink:href="_t_sceptar_8h.html" target="_top" xlink:title=" ">
<polygon fill="white" stroke="#666666" points="964.88,-129.75 901.62,-129.75 901.62,-110.5 964.88,-110.5 964.88,-129.75"/>
<text text-anchor="middle" x="933.25" y="-116.25" font-family="Helvetica,sans-Serif" font-size="10.00">TSceptar.h</text>
</a>
</g>
</g>
<!-- Node1&#45;&gt;Node2 -->
<g id="edge1_Node000001_Node000002" class="edge">
<title>Node1&#45;&gt;Node2</title>
<g id="a_edge1_Node000001_Node000002"><a xlink:title=" ">
<path fill="none" stroke="#63b8ff" d="M952.66,-155.58C947.78,-146.92 942.23,-137.06 938.31,-130.11"/>
<polygon fill="#63b8ff" stroke="#63b8ff" points="949.6,-157.27 957.55,-164.26 955.69,-153.83 949.6,-157.27"/>
</a>
</g>
</g>
<!-- Node19 -->
<g id="Node000019" class="node">
<title>Node19</title>
<g id="a_Node000019"><a xlink:href="_t_sceptar_hit_8cxx.html" target="_top" xlink:title=" ">
<polygon fill="white" stroke="#666666" points="1650.75,-74.5 1565.75,-74.5 1565.75,-55.25 1650.75,-55.25 1650.75,-74.5"/>
<text text-anchor="middle" x="1608.25" y="-61" font-family="Helvetica,sans-Serif" font-size="10.00">TSceptarHit.cxx</text>
</a>
</g>
</g>
<!-- Node1&#45;&gt;Node19 -->
<g id="edge24_Node000001_Node000019" class="edge">
<title>Node1&#45;&gt;Node19</title>
<g id="a_edge24_Node000001_Node000019"><a xlink:title=" ">
<path fill="none" stroke="#63b8ff" d="M1012.62,-166.09C1114.45,-149 1355.19,-108.57 1557.25,-74.5 1559.91,-74.05 1562.64,-73.59 1565.4,-73.13"/>
<polygon fill="#63b8ff" stroke="#63b8ff" points="1012.25,-162.6 1002.97,-167.71 1013.41,-169.51 1012.25,-162.6"/>
</a>
</g>
</g>
<!-- Node3 -->
<g id="Node000003" class="node">
<title>Node3</title>
<g id="a_Node000003"><a xlink:href="_angular_correlation_selector_8h.html" target="_top" xlink:title=" ">
<polygon fill="white" stroke="#666666" points="140.75,-74.5 1.75,-74.5 1.75,-55.25 140.75,-55.25 140.75,-74.5"/>
<text text-anchor="middle" x="71.25" y="-61" font-family="Helvetica,sans-Serif" font-size="10.00">AngularCorrelationSelector.h</text>
</a>
</g>
</g>
<!-- Node2&#45;&gt;Node3 -->
<g id="edge2_Node000002_Node000003" class="edge">
<title>Node2&#45;&gt;Node3</title>
<g id="a_edge2_Node000002_Node000003"><a xlink:title=" ">
<path fill="none" stroke="#63b8ff" d="M890.05,-117.48C771.53,-112.77 431.31,-98.11 149.25,-74.5 146.53,-74.27 143.77,-74.03 140.97,-73.77"/>
<polygon fill="#63b8ff" stroke="#63b8ff" points="889.83,-120.97 899.96,-117.86 890.1,-113.97 889.83,-120.97"/>
</a>
</g>
</g>
<!-- Node5 -->
<g id="Node000005" class="node">
<title>Node5</title>
<g id="a_Node000005"><a xlink:href="_cross_talk_8h.html" target="_top" xlink:title=" ">
<polygon fill="white" stroke="#666666" points="226.12,-74.5 158.38,-74.5 158.38,-55.25 226.12,-55.25 226.12,-74.5"/>
<text text-anchor="middle" x="192.25" y="-61" font-family="Helvetica,sans-Serif" font-size="10.00">CrossTalk.h</text>
</a>
</g>
</g>
<!-- Node2&#45;&gt;Node5 -->
<g id="edge4_Node000002_Node000005" class="edge">
<title>Node2&#45;&gt;Node5</title>
<g id="a_edge4_Node000002_Node000005"><a xlink:title=" ">
<path fill="none" stroke="#63b8ff" d="M890.23,-118.38C780.56,-116.04 481.79,-106.96 235.25,-74.5 232.38,-74.12 229.42,-73.67 226.45,-73.16"/>
<polygon fill="#63b8ff" stroke="#63b8ff" points="889.87,-121.87 899.94,-118.58 890.01,-114.87 889.87,-121.87"/>
</a>
</g>
</g>
<!-- Node7 -->
<g id="Node000007" class="node">
<title>Node7</title>
<g id="a_Node000007"><a xlink:href="_deadtime_8cxx.html" target="_top" xlink:title=" ">
<polygon fill="white" stroke="#666666" points="318.12,-74.5 244.38,-74.5 244.38,-55.25 318.12,-55.25 318.12,-74.5"/>
<text text-anchor="middle" x="281.25" y="-61" font-family="Helvetica,sans-Serif" font-size="10.00">Deadtime.cxx</text>
</a>
</g>
</g>
<!-- Node2&#45;&gt;Node7 -->
<g id="edge6_Node000002_Node000007" class="edge">
<title>Node2&#45;&gt;Node7</title>
<g id="a_edge6_Node000002_Node000007"><a xlink:title=" ">
<path fill="none" stroke="#63b8ff" d="M889.79,-117.66C789.9,-113.92 536.39,-102.27 326.25,-74.5 323.73,-74.17 321.13,-73.78 318.52,-73.36"/>
<polygon fill="#63b8ff" stroke="#63b8ff" points="889.56,-121.15 899.68,-118.02 889.82,-114.16 889.56,-121.15"/>
</a>
</g>
</g>
<!-- Node8 -->
<g id="Node000008" class="node">
<title>Node8</title>
<g id="a_Node000008"><a xlink:href="_example_event_selector_8h.html" target="_top" xlink:title=" ">
<polygon fill="white" stroke="#666666" points="456.75,-74.5 335.75,-74.5 335.75,-55.25 456.75,-55.25 456.75,-74.5"/>
<text text-anchor="middle" x="396.25" y="-61" font-family="Helvetica,sans-Serif" font-size="10.00">ExampleEventSelector.h</text>
</a>
</g>
</g>
<!-- Node2&#45;&gt;Node8 -->
<g id="edge7_Node000002_Node000008" class="edge">
<title>Node2&#45;&gt;Node8</title>
<g id="a_edge7_Node000002_Node000008"><a xlink:title=" ">
<path fill="none" stroke="#63b8ff" d="M889.71,-115.4C806.95,-108.23 621.25,-91.68 465.25,-74.5 462.61,-74.21 459.91,-73.9 457.19,-73.59"/>
<polygon fill="#63b8ff" stroke="#63b8ff" points="889.39,-118.89 899.65,-116.26 889.99,-111.91 889.39,-118.89"/>
</a>
</g>
</g>
<!-- Node10 -->
<g id="Node000010" class="node">
<title>Node10</title>
<g id="a_Node000010"><a xlink:href="_example_tree_helper_8hh.html" target="_top" xlink:title=" ">
<polygon fill="white" stroke="#666666" points="588,-74.5 474.5,-74.5 474.5,-55.25 588,-55.25 588,-74.5"/>
<text text-anchor="middle" x="531.25" y="-61" font-family="Helvetica,sans-Serif" font-size="10.00">ExampleTreeHelper.hh</text>
</a>
</g>
</g>
<!-- Node2&#45;&gt;Node10 -->
<g id="edge9_Node000002_Node000010" class="edge">
<title>Node2&#45;&gt;Node10</title>
<g id="a_edge9_Node000002_Node000010"><a xlink:title=" ">
<path fill="none" stroke="#63b8ff" d="M890.36,-113.44C817.6,-103.81 669.99,-84.25 588.5,-73.46"/>
<polygon fill="#63b8ff" stroke="#63b8ff" points="889.5,-116.86 899.87,-114.7 890.42,-109.92 889.5,-116.86"/>
</a>
</g>
</g>
<!-- Node12 -->
<g id="Node000012" class="node">
<title>Node12</title>
<g id="a_Node000012"><a xlink:href="_example_tree_selector_8h.html" target="_top" xlink:title=" ">
<polygon fill="white" stroke="#666666" points="722.12,-74.5 606.38,-74.5 606.38,-55.25 722.12,-55.25 722.12,-74.5"/>
<text text-anchor="middle" x="664.25" y="-61" font-family="Helvetica,sans-Serif" font-size="10.00">ExampleTreeSelector.h</text>
</a>
</g>
</g>
<!-- Node2&#45;&gt;Node12 -->
<g id="edge11_Node000002_Node000012" class="edge">
<title>Node2&#45;&gt;Node12</title>
<g id="a_edge11_Node000002_Node000012"><a xlink:title=" ">
<path fill="none" stroke="#63b8ff" d="M890.11,-110.58C840.8,-100.82 760.43,-84.91 710.04,-74.94"/>
<polygon fill="#63b8ff" stroke="#63b8ff" points="889.36,-114 899.85,-112.51 890.72,-107.14 889.36,-114"/>
</a>
</g>
</g>
<!-- Node14 -->
<g id="Node000014" class="node">
<title>Node14</title>
<g id="a_Node000014"><a xlink:href="_fast_timing_hist_selector_8h.html" target="_top" xlink:title=" ">
<polygon fill="white" stroke="#666666" points="866.38,-74.5 740.12,-74.5 740.12,-55.25 866.38,-55.25 866.38,-74.5"/>
<text text-anchor="middle" x="803.25" y="-61" font-family="Helvetica,sans-Serif" font-size="10.00">FastTimingHistSelector.h</text>
</a>
</g>
</g>
<!-- Node2&#45;&gt;Node14 -->
<g id="edge13_Node000002_Node000014" class="edge">
<title>Node2&#45;&gt;Node14</title>
<g id="a_edge13_Node000002_Node000014"><a xlink:title=" ">
<path fill="none" stroke="#63b8ff" d="M900.68,-105.78C877.18,-96.16 846.08,-83.42 825.41,-74.95"/>
<polygon fill="#63b8ff" stroke="#63b8ff" points="899.22,-108.97 909.8,-109.52 901.87,-102.49 899.22,-108.97"/>
</a>
</g>
</g>
<!-- Node16 -->
<g id="Node000016" class="node">
<title>Node16</title>
<g id="a_Node000016"><a xlink:href="_get_tree_entries_8cxx.html" target="_top" xlink:title=" ">
<polygon fill="white" stroke="#666666" points="982.12,-74.5 884.38,-74.5 884.38,-55.25 982.12,-55.25 982.12,-74.5"/>
<text text-anchor="middle" x="933.25" y="-61" font-family="Helvetica,sans-Serif" font-size="10.00">GetTreeEntries.cxx</text>
</a>
</g>
</g>
<!-- Node2&#45;&gt;Node16 -->
<g id="edge15_Node000002_Node000016" class="edge">
<title>Node2&#45;&gt;Node16</title>
<g id="a_edge15_Node000002_Node000016"><a xlink:title=" ">
<path fill="none" stroke="#63b8ff" d="M933.25,-98.88C933.25,-90.59 933.25,-81.42 933.25,-74.86"/>
<polygon fill="#63b8ff" stroke="#63b8ff" points="929.75,-98.82 933.25,-108.82 936.75,-98.82 929.75,-98.82"/>
</a>
</g>
</g>
<!-- Node17 -->
<g id="Node000017" class="node">
<title>Node17</title>
<g id="a_Node000017"><a xlink:href="_t_g_r_s_i_mnemonic_8cxx.html" target="_top" xlink:title=" ">
<polygon fill="white" stroke="#666666" points="1108,-74.5 1000.5,-74.5 1000.5,-55.25 1108,-55.25 1108,-74.5"/>
<text text-anchor="middle" x="1054.25" y="-61" font-family="Helvetica,sans-Serif" font-size="10.00">TGRSIMnemonic.cxx</text>
</a>
</g>
</g>
<!-- Node2&#45;&gt;Node17 -->
<g id="edge16_Node000002_Node000017" class="edge">
<title>Node2&#45;&gt;Node17</title>
<g id="a_edge16_Node000002_Node000017"><a xlink:title=" ">
<path fill="none" stroke="#63b8ff" d="M964.16,-105.52C985.96,-95.93 1014.56,-83.34 1033.62,-74.95"/>
<polygon fill="#63b8ff" stroke="#63b8ff" points="962.9,-102.25 955.16,-109.48 965.72,-108.66 962.9,-102.25"/>
</a>
</g>
</g>
<!-- Node18 -->
<g id="Node000018" class="node">
<title>Node18</title>
<g id="a_Node000018"><a xlink:href="_t_sceptar_8cxx.html" target="_top" xlink:title=" ">
<polygon fill="white" stroke="#666666" points="1198.38,-74.5 1126.12,-74.5 1126.12,-55.25 1198.38,-55.25 1198.38,-74.5"/>
<text text-anchor="middle" x="1162.25" y="-61" font-family="Helvetica,sans-Serif" font-size="10.00">TSceptar.cxx</text>
</a>
</g>
</g>
<!-- Node2&#45;&gt;Node18 -->
<g id="edge17_Node000002_Node000018" class="edge">
<title>Node2&#45;&gt;Node18</title>
<g id="a_edge17_Node000002_Node000018"><a xlink:title=" ">
<path fill="none" stroke="#63b8ff" d="M976.08,-109.17C1019.21,-99.14 1085.04,-83.83 1125.77,-74.36"/>
<polygon fill="#63b8ff" stroke="#63b8ff" points="975.51,-105.7 966.57,-111.38 977.1,-112.52 975.51,-105.7"/>
</a>
</g>
</g>
<!-- Node2&#45;&gt;Node19 -->
<g id="edge18_Node000002_Node000019" class="edge">
<title>Node2&#45;&gt;Node19</title>
<g id="a_edge18_Node000002_Node000019"><a xlink:title=" ">
<path fill="none" stroke="#63b8ff" d="M976.48,-117.47C1078.08,-113.25 1339.94,-100.58 1557.25,-74.5 1559.92,-74.18 1562.67,-73.81 1565.44,-73.42"/>
<polygon fill="#63b8ff" stroke="#63b8ff" points="976.53,-113.96 966.69,-117.87 976.82,-120.96 976.53,-113.96"/>
</a>
</g>
</g>
<!-- Node20 -->
<g id="Node000020" class="node">
<title>Node20</title>
<g id="a_Node000020"><a xlink:href="_time_walk_helper_8hh.html" target="_top" xlink:title=" ">
<polygon fill="white" stroke="#666666" points="1317.62,-74.5 1216.88,-74.5 1216.88,-55.25 1317.62,-55.25 1317.62,-74.5"/>
<text text-anchor="middle" x="1267.25" y="-61" font-family="Helvetica,sans-Serif" font-size="10.00">TimeWalkHelper.hh</text>
</a>
</g>
</g>
<!-- Node2&#45;&gt;Node20 -->
<g id="edge19_Node000002_Node000020" class="edge">
<title>Node2&#45;&gt;Node20</title>
<g id="a_edge19_Node000002_Node000020"><a xlink:title=" ">
<path fill="none" stroke="#63b8ff" d="M976.52,-112.23C1038.13,-102.4 1150.91,-84.42 1216.42,-73.98"/>
<polygon fill="#63b8ff" stroke="#63b8ff" points="976.09,-108.75 966.77,-113.78 977.2,-115.66 976.09,-108.75"/>
</a>
</g>
</g>
<!-- Node22 -->
<g id="Node000022" class="node">
<title>Node22</title>
<g id="a_Node000022"><a xlink:href="_time_walk_selector_8h.html" target="_top" xlink:title=" ">
<polygon fill="white" stroke="#666666" points="1438.75,-74.5 1335.75,-74.5 1335.75,-55.25 1438.75,-55.25 1438.75,-74.5"/>
<text text-anchor="middle" x="1387.25" y="-61" font-family="Helvetica,sans-Serif" font-size="10.00">TimeWalkSelector.h</text>
</a>
</g>
</g>
<!-- Node2&#45;&gt;Node22 -->
<g id="edge21_Node000002_Node000022" class="edge">
<title>Node2&#45;&gt;Node22</title>
<g id="a_edge21_Node000002_Node000022"><a xlink:title=" ">
<path fill="none" stroke="#63b8ff" d="M976.48,-114.61C1048.9,-106.95 1199.3,-90.68 1326.25,-74.5 1329.22,-74.12 1332.27,-73.72 1335.35,-73.31"/>
<polygon fill="#63b8ff" stroke="#63b8ff" points="976.21,-111.12 966.63,-115.65 976.94,-118.08 976.21,-111.12"/>
</a>
</g>
</g>
<!-- Node24 -->
<g id="Node000024" class="node">
<title>Node24</title>
<g id="a_Node000024"><a xlink:href="tac__calibrator_8cxx.html" target="_top" xlink:title=" ">
<polygon fill="white" stroke="#666666" points="1547.75,-74.5 1456.75,-74.5 1456.75,-55.25 1547.75,-55.25 1547.75,-74.5"/>
<text text-anchor="middle" x="1502.25" y="-61" font-family="Helvetica,sans-Serif" font-size="10.00">tac_calibrator.cxx</text>
</a>
</g>
</g>
<!-- Node2&#45;&gt;Node24 -->
<g id="edge23_Node000002_Node000024" class="edge">
<title>Node2&#45;&gt;Node24</title>
<g id="a_edge23_Node000002_Node000024"><a xlink:title=" ">
<path fill="none" stroke="#63b8ff" d="M976.75,-116.42C1065.57,-110.65 1274.1,-95.92 1448.25,-74.5 1450.89,-74.18 1453.6,-73.82 1456.33,-73.44"/>
<polygon fill="#63b8ff" stroke="#63b8ff" points="976.54,-112.92 966.79,-117.06 976.99,-119.91 976.54,-112.92"/>
</a>
</g>
</g>
<!-- Node4 -->
<g id="Node000004" class="node">
<title>Node4</title>
<g id="a_Node000004"><a xlink:href="_angular_correlation_selector_8_c.html" target="_top" xlink:title=" ">
<polygon fill="white" stroke="#666666" points="140.5,-19.25 0,-19.25 0,0 140.5,0 140.5,-19.25"/>
<text text-anchor="middle" x="70.25" y="-5.75" font-family="Helvetica,sans-Serif" font-size="10.00">AngularCorrelationSelector.C</text>
</a>
</g>
</g>
<!-- Node3&#45;&gt;Node4 -->
<g id="edge3_Node000003_Node000004" class="edge">
<title>Node3&#45;&gt;Node4</title>
<g id="a_edge3_Node000003_Node000004"><a xlink:title=" ">
<path fill="none" stroke="#63b8ff" d="M70.87,-43.63C70.71,-35.34 70.54,-26.17 70.42,-19.61"/>
<polygon fill="#63b8ff" stroke="#63b8ff" points="67.37,-43.64 71.06,-53.57 74.37,-43.5 67.37,-43.64"/>
</a>
</g>
</g>
<!-- Node6 -->
<g id="Node000006" class="node">
<title>Node6</title>
<g id="a_Node000006"><a xlink:href="_cross_talk_8_c.html" target="_top" xlink:title=" ">
<polygon fill="white" stroke="#666666" points="227.88,-19.25 158.62,-19.25 158.62,0 227.88,0 227.88,-19.25"/>
<text text-anchor="middle" x="193.25" y="-5.75" font-family="Helvetica,sans-Serif" font-size="10.00">CrossTalk.C</text>
</a>
</g>
</g>
<!-- Node5&#45;&gt;Node6 -->
<g id="edge5_Node000005_Node000006" class="edge">
<title>Node5&#45;&gt;Node6</title>
<g id="a_edge5_Node000005_Node000006"><a xlink:title=" ">
<path fill="none" stroke="#63b8ff" d="M192.63,-43.63C192.79,-35.34 192.96,-26.17 193.08,-19.61"/>
<polygon fill="#63b8ff" stroke="#63b8ff" points="189.13,-43.5 192.44,-53.57 196.13,-43.64 189.13,-43.5"/>
</a>
</g>
</g>
<!-- Node9 -->
<g id="Node000009" class="node">
<title>Node9</title>
<g id="a_Node000009"><a xlink:href="_example_event_selector_8_c.html" target="_top" xlink:title=" ">
<polygon fill="white" stroke="#666666" points="453.5,-19.25 331,-19.25 331,0 453.5,0 453.5,-19.25"/>
<text text-anchor="middle" x="392.25" y="-5.75" font-family="Helvetica,sans-Serif" font-size="10.00">ExampleEventSelector.C</text>
</a>
</g>
</g>
<!-- Node8&#45;&gt;Node9 -->
<g id="edge8_Node000008_Node000009" class="edge">
<title>Node8&#45;&gt;Node9</title>
<g id="a_edge8_Node000008_Node000009"><a xlink:title=" ">
<path fill="none" stroke="#63b8ff" d="M394.73,-43.63C394.11,-35.34 393.42,-26.17 392.92,-19.61"/>
<polygon fill="#63b8ff" stroke="#63b8ff" points="391.24,-43.86 395.48,-53.57 398.22,-43.34 391.24,-43.86"/>
</a>
</g>
</g>
<!-- Node11 -->
<g id="Node000011" class="node">
<title>Node11</title>
<g id="a_Node000011"><a xlink:href="_example_tree_helper_8cxx.html" target="_top" xlink:title=" ">
<polygon fill="white" stroke="#666666" points="588.88,-19.25 471.62,-19.25 471.62,0 588.88,0 588.88,-19.25"/>
<text text-anchor="middle" x="530.25" y="-5.75" font-family="Helvetica,sans-Serif" font-size="10.00">ExampleTreeHelper.cxx</text>
</a>
</g>
</g>
<!-- Node10&#45;&gt;Node11 -->
<g id="edge10_Node000010_Node000011" class="edge">
<title>Node10&#45;&gt;Node11</title>
<g id="a_edge10_Node000010_Node000011"><a xlink:title=" ">
<path fill="none" stroke="#63b8ff" d="M530.87,-43.63C530.71,-35.34 530.54,-26.17 530.42,-19.61"/>
<polygon fill="#63b8ff" stroke="#63b8ff" points="527.37,-43.64 531.06,-53.57 534.37,-43.5 527.37,-43.64"/>
</a>
</g>
</g>
<!-- Node13 -->
<g id="Node000013" class="node">
<title>Node13</title>
<g id="a_Node000013"><a xlink:href="_example_tree_selector_8_c.html" target="_top" xlink:title=" ">
<polygon fill="white" stroke="#666666" points="723.88,-19.25 606.62,-19.25 606.62,0 723.88,0 723.88,-19.25"/>
<text text-anchor="middle" x="665.25" y="-5.75" font-family="Helvetica,sans-Serif" font-size="10.00">ExampleTreeSelector.C</text>
</a>
</g>
</g>
<!-- Node12&#45;&gt;Node13 -->
<g id="edge12_Node000012_Node000013" class="edge">
<title>Node12&#45;&gt;Node13</title>
<g id="a_edge12_Node000012_Node000013"><a xlink:title=" ">
<path fill="none" stroke="#63b8ff" d="M664.63,-43.63C664.79,-35.34 664.96,-26.17 665.08,-19.61"/>
<polygon fill="#63b8ff" stroke="#63b8ff" points="661.13,-43.5 664.44,-53.57 668.13,-43.64 661.13,-43.5"/>
</a>
</g>
</g>
<!-- Node15 -->
<g id="Node000015" class="node">
<title>Node15</title>
<g id="a_Node000015"><a xlink:href="_fast_timing_hist_selector_8_c.html" target="_top" xlink:title=" ">
<polygon fill="white" stroke="#666666" points="870.12,-19.25 742.38,-19.25 742.38,0 870.12,0 870.12,-19.25"/>
<text text-anchor="middle" x="806.25" y="-5.75" font-family="Helvetica,sans-Serif" font-size="10.00">FastTimingHistSelector.C</text>
</a>
</g>
</g>
<!-- Node14&#45;&gt;Node15 -->
<g id="edge14_Node000014_Node000015" class="edge">
<title>Node14&#45;&gt;Node15</title>
<g id="a_edge14_Node000014_Node000015"><a xlink:title=" ">
<path fill="none" stroke="#63b8ff" d="M804.39,-43.63C804.86,-35.34 805.37,-26.17 805.74,-19.61"/>
<polygon fill="#63b8ff" stroke="#63b8ff" points="800.9,-43.39 803.83,-53.57 807.89,-43.78 800.9,-43.39"/>
</a>
</g>
</g>
<!-- Node21 -->
<g id="Node000021" class="node">
<title>Node21</title>
<g id="a_Node000021"><a xlink:href="_time_walk_helper_8cxx.html" target="_top" xlink:title=" ">
<polygon fill="white" stroke="#666666" points="1317.5,-19.25 1213,-19.25 1213,0 1317.5,0 1317.5,-19.25"/>
<text text-anchor="middle" x="1265.25" y="-5.75" font-family="Helvetica,sans-Serif" font-size="10.00">TimeWalkHelper.cxx</text>
</a>
</g>
</g>
<!-- Node20&#45;&gt;Node21 -->
<g id="edge20_Node000020_Node000021" class="edge">
<title>Node20&#45;&gt;Node21</title>
<g id="a_edge20_Node000020_Node000021"><a xlink:title=" ">
<path fill="none" stroke="#63b8ff" d="M1266.49,-43.63C1266.18,-35.34 1265.83,-26.17 1265.59,-19.61"/>
<polygon fill="#63b8ff" stroke="#63b8ff" points="1262.99,-43.71 1266.86,-53.57 1269.99,-43.45 1262.99,-43.71"/>
</a>
</g>
</g>
<!-- Node23 -->
<g id="Node000023" class="node">
<title>Node23</title>
<g id="a_Node000023"><a xlink:href="_time_walk_selector_8_c.html" target="_top" xlink:title=" ">
<polygon fill="white" stroke="#666666" points="1440.5,-19.25 1336,-19.25 1336,0 1440.5,0 1440.5,-19.25"/>
<text text-anchor="middle" x="1388.25" y="-5.75" font-family="Helvetica,sans-Serif" font-size="10.00">TimeWalkSelector.C</text>
</a>
</g>
</g>
<!-- Node22&#45;&gt;Node23 -->
<g id="edge22_Node000022_Node000023" class="edge">
<title>Node22&#45;&gt;Node23</title>
<g id="a_edge22_Node000022_Node000023"><a xlink:title=" ">
<path fill="none" stroke="#63b8ff" d="M1387.63,-43.63C1387.79,-35.34 1387.96,-26.17 1388.08,-19.61"/>
<polygon fill="#63b8ff" stroke="#63b8ff" points="1384.13,-43.5 1387.44,-53.57 1391.13,-43.64 1384.13,-43.5"/>
</a>
</g>
</g>
</g>
</svg>

<g id="navigator" transform="translate(0 0)" fill="#404254">
  <rect fill="#f2f5e9" fill-opacity="0.5" stroke="#606060" stroke-width=".5" x="0" y="0" width="60" height="60"/>
  <use id="zoomplus" xlink:href="#zoomPlus" x="17" y="9" onmousedown="handleZoom(evt,'in')"/>
  <use id="zoomminus" xlink:href="#zoomMin" x="42" y="9" onmousedown="handleZoom(evt,'out')"/>
  <use id="reset" xlink:href="#resetDef" x="30" y="36" onmousedown="handleReset()"/>
   <use id="arrowup" xlink:href="#arrowUp" x="0" y="0" onmousedown="handlePan(0,-1)"/>
  <use id="arrowright" xlink:href="#arrowRight" x="0" y="0" onmousedown="handlePan(1,0)"/>
  <use id="arrowdown" xlink:href="#arrowDown" x="0" y="0" onmousedown="handlePan(0,1)"/>
  <use id="arrowleft" xlink:href="#arrowLeft" x="0" y="0" onmousedown="handlePan(-1,0)"/>
</g>
<svg viewBox="0 0 15 15" width="100%" height="30px" preserveAspectRatio="xMaxYMin meet">
 <g id="arrow_out" transform="scale(0.3 0.3)">
  <a xlink:href="_t_sceptar_hit_8h__dep__incl_org.svg" target="_base">
   <rect id="button" ry="5" rx="5" y="6" x="6" height="38" width="38"
        fill="#f2f5e9" fill-opacity="0.5" stroke="#606060" stroke-width="1.0"/>
   <path id="arrow"
     d="M 11.500037,31.436501 C 11.940474,20.09759 22.043105,11.32322 32.158766,21.979434 L 37.068811,17.246167 C 37.068811,17.246167 37.088388,32 37.088388,32 L 22.160133,31.978069 C 22.160133,31.978069 26.997745,27.140456 26.997745,27.140456 C 18.528582,18.264221 13.291696,25.230495 11.500037,31.436501 z"
     style="fill:#404040;"/>
  </a>
 </g>
</svg>

<style type='text/css'>
<![CDATA[
[data-mouse-over-selected='false'] { opacity: 0.7; }
[data-mouse-over-selected='true']  { opacity: 1.0; }
]]>
</style>
<script type="application/ecmascript"><![CDATA[
document.addEventListener('DOMContentLoaded', (event) => {
  highlightEdges();
  highlightAdjacentNodes();
});
]]></script>
</svg>
