<?xml version="1.0" encoding="UTF-8" standalone="no"?>
<!DOCTYPE svg PUBLIC "-//W3C//DTD SVG 1.1//EN"
 "http://www.w3.org/Graphics/SVG/1.1/DTD/svg11.dtd">
<!-- Generated by graphviz version 9.0.0 (20230911.1827)
 -->
<!-- Title: TScalerQueue.h Pages: 1 -->
<svg width="820pt" height="83pt"
 viewBox="0.00 0.00 820.38 82.50" xmlns="http://www.w3.org/2000/svg" xmlns:xlink="http://www.w3.org/1999/xlink">
<g id="graph0" class="graph" transform="scale(1 1) rotate(0) translate(4 78.5)">
<title>TScalerQueue.h</title>
<!-- Node1 -->
<g id="Node000001" class="node">
<title>Node1</title>
<g id="a_Node000001"><a xlink:title=" ">
<polygon fill="#999999" stroke="#666666" points="450.5,-74.5 364.75,-74.5 364.75,-55.25 450.5,-55.25 450.5,-74.5"/>
<text text-anchor="middle" x="407.62" y="-61" font-family="Helvetica,sans-Serif" font-size="10.00">TScalerQueue.h</text>
</a>
</g>
</g>
<!-- Node2 -->
<g id="Node000002" class="node">
<title>Node2</title>
<g id="a_Node000002"><a xlink:href="_t_data_parser_8cxx.html" target="_top" xlink:title=" ">
<polygon fill="white" stroke="#666666" points="87.25,-19.25 0,-19.25 0,0 87.25,0 87.25,-19.25"/>
<text text-anchor="middle" x="43.62" y="-5.75" font-family="Helvetica,sans-Serif" font-size="10.00">TDataParser.cxx</text>
</a>
</g>
</g>
<!-- Node1&#45;&gt;Node2 -->
<g id="edge1_Node000001_Node000002" class="edge">
<title>Node1&#45;&gt;Node2</title>
<g id="a_edge1_Node000001_Node000002"><a xlink:title=" ">
<path fill="none" stroke="#63b8ff" d="M353.23,-56.39C291.11,-47.76 186.47,-33 96.62,-19.25 93.68,-18.8 90.64,-18.33 87.57,-17.84"/>
<polygon fill="#63b8ff" stroke="#63b8ff" points="352.43,-59.81 362.82,-57.72 353.4,-52.87 352.43,-59.81"/>
</a>
</g>
</g>
<!-- Node3 -->
<g id="Node000003" class="node">
<title>Node3</title>
<g id="a_Node000003"><a xlink:href="_t_frag_write_loop_8cxx.html" target="_top" xlink:title=" ">
<polygon fill="white" stroke="#666666" points="207.75,-19.25 105.5,-19.25 105.5,0 207.75,0 207.75,-19.25"/>
<text text-anchor="middle" x="156.62" y="-5.75" font-family="Helvetica,sans-Serif" font-size="10.00">TFragWriteLoop.cxx</text>
</a>
</g>
</g>
<!-- Node1&#45;&gt;Node3 -->
<g id="edge2_Node000001_Node000003" class="edge">
<title>Node1&#45;&gt;Node3</title>
<g id="a_edge2_Node000001_Node000003"><a xlink:title=" ">
<path fill="none" stroke="#63b8ff" d="M353.76,-52.45C307.58,-42.65 241.93,-28.72 199.31,-19.68"/>
<polygon fill="#63b8ff" stroke="#63b8ff" points="352.77,-55.82 363.28,-54.47 354.23,-48.97 352.77,-55.82"/>
</a>
</g>
</g>
<!-- Node4 -->
<g id="Node000004" class="node">
<title>Node4</title>
<g id="a_Node000004"><a xlink:href="_t_g_r_s_i_data_parser_8cxx.html" target="_top" xlink:title=" ">
<polygon fill="white" stroke="#666666" points="337.25,-19.25 226,-19.25 226,0 337.25,0 337.25,-19.25"/>
<text text-anchor="middle" x="281.62" y="-5.75" font-family="Helvetica,sans-Serif" font-size="10.00">TGRSIDataParser.cxx</text>
</a>
</g>
</g>
<!-- Node1&#45;&gt;Node4 -->
<g id="edge3_Node000001_Node000004" class="edge">
<title>Node1&#45;&gt;Node4</title>
<g id="a_edge3_Node000001_Node000004"><a xlink:title=" ">
<path fill="none" stroke="#63b8ff" d="M375.74,-50.4C353.01,-40.79 323.05,-28.13 303.1,-19.7"/>
<polygon fill="#63b8ff" stroke="#63b8ff" points="374.28,-53.58 384.86,-54.25 377.01,-47.14 374.28,-53.58"/>
</a>
</g>
</g>
<!-- Node5 -->
<g id="Node000005" class="node">
<title>Node5</title>
<g id="a_Node000005"><a xlink:href="_t_h_i_l_data_parser_8cxx.html" target="_top" xlink:title=" ">
<polygon fill="white" stroke="#666666" points="459.5,-19.25 355.75,-19.25 355.75,0 459.5,0 459.5,-19.25"/>
<text text-anchor="middle" x="407.62" y="-5.75" font-family="Helvetica,sans-Serif" font-size="10.00">THILDataParser.cxx</text>
</a>
</g>
</g>
<!-- Node1&#45;&gt;Node5 -->
<g id="edge4_Node000001_Node000005" class="edge">
<title>Node1&#45;&gt;Node5</title>
<g id="a_edge4_Node000001_Node000005"><a xlink:title=" ">
<path fill="none" stroke="#63b8ff" d="M407.62,-43.63C407.62,-35.34 407.62,-26.17 407.62,-19.61"/>
<polygon fill="#63b8ff" stroke="#63b8ff" points="404.13,-43.57 407.63,-53.57 411.13,-43.57 404.13,-43.57"/>
</a>
</g>
</g>
<!-- Node6 -->
<g id="Node000006" class="node">
<title>Node6</title>
<g id="a_Node000006"><a xlink:href="_t_i_l_l_data_parser_8cxx.html" target="_top" xlink:title=" ">
<polygon fill="white" stroke="#666666" points="579.75,-19.25 477.5,-19.25 477.5,0 579.75,0 579.75,-19.25"/>
<text text-anchor="middle" x="528.62" y="-5.75" font-family="Helvetica,sans-Serif" font-size="10.00">TILLDataParser.cxx</text>
</a>
</g>
</g>
<!-- Node1&#45;&gt;Node6 -->
<g id="edge5_Node000001_Node000006" class="edge">
<title>Node1&#45;&gt;Node6</title>
<g id="a_edge5_Node000001_Node000006"><a xlink:title=" ">
<path fill="none" stroke="#63b8ff" d="M438.54,-50.27C460.34,-40.68 488.93,-28.09 508,-19.7"/>
<polygon fill="#63b8ff" stroke="#63b8ff" points="437.28,-47 429.54,-54.23 440.1,-53.41 437.28,-47"/>
</a>
</g>
</g>
<!-- Node7 -->
<g id="Node000007" class="node">
<title>Node7</title>
<g id="a_Node000007"><a xlink:href="_t_scaler_queue_8cxx.html" target="_top" xlink:title=" ">
<polygon fill="white" stroke="#666666" points="693,-19.25 598.25,-19.25 598.25,0 693,0 693,-19.25"/>
<text text-anchor="middle" x="645.62" y="-5.75" font-family="Helvetica,sans-Serif" font-size="10.00">TScalerQueue.cxx</text>
</a>
</g>
</g>
<!-- Node1&#45;&gt;Node7 -->
<g id="edge6_Node000001_Node000007" class="edge">
<title>Node1&#45;&gt;Node7</title>
<g id="a_edge6_Node000001_Node000007"><a xlink:title=" ">
<path fill="none" stroke="#63b8ff" d="M459.26,-52.32C503.02,-42.53 564.91,-28.69 605.15,-19.68"/>
<polygon fill="#63b8ff" stroke="#63b8ff" points="458.74,-48.85 449.75,-54.45 460.27,-55.68 458.74,-48.85"/>
</a>
</g>
</g>
<!-- Node8 -->
<g id="Node000008" class="node">
<title>Node8</title>
<g id="a_Node000008"><a xlink:href="_t_tdr_data_parser_8cxx.html" target="_top" xlink:title=" ">
<polygon fill="white" stroke="#666666" points="812.38,-19.25 710.88,-19.25 710.88,0 812.38,0 812.38,-19.25"/>
<text text-anchor="middle" x="761.62" y="-5.75" font-family="Helvetica,sans-Serif" font-size="10.00">TTdrDataParser.cxx</text>
</a>
</g>
</g>
<!-- Node1&#45;&gt;Node8 -->
<g id="edge7_Node000001_Node000008" class="edge">
<title>Node1&#45;&gt;Node8</title>
<g id="a_edge7_Node000001_Node000008"><a xlink:title=" ">
<path fill="none" stroke="#63b8ff" d="M461.94,-55.71C529.63,-45.52 644.46,-28.25 710.59,-18.3"/>
<polygon fill="#63b8ff" stroke="#63b8ff" points="461.54,-52.22 452.18,-57.17 462.58,-59.15 461.54,-52.22"/>
</a>
</g>
</g>
</g>
</svg>
