<?xml version="1.0" encoding="UTF-8" standalone="no"?>
<!DOCTYPE svg PUBLIC "-//W3C//DTD SVG 1.1//EN"
 "http://www.w3.org/Graphics/SVG/1.1/DTD/svg11.dtd">
<!-- Generated by graphviz version 12.2.0 (20241103.1931)
 -->
<!-- Title: TSharcHit.h Pages: 1 -->
<svg width="408pt" height="138pt"
 viewBox="0.00 0.00 408.25 137.75" xmlns="http://www.w3.org/2000/svg" xmlns:xlink="http://www.w3.org/1999/xlink">
<g id="graph0" class="graph" transform="scale(1 1) rotate(0) translate(4 133.75)">
<title>TSharcHit.h</title>
<!-- Node1 -->
<g id="Node000001" class="node">
<title>Node1</title>
<g id="a_Node000001"><a xlink:title=" ">
<polygon fill="#999999" stroke="#666666" points="335.75,-129.75 268,-129.75 268,-110.5 335.75,-110.5 335.75,-129.75"/>
<text text-anchor="middle" x="301.88" y="-116.25" font-family="Helvetica,sans-Serif" font-size="10.00">TSharcHit.h</text>
</a>
</g>
</g>
<!-- Node2 -->
<g id="Node000002" class="node">
<title>Node2</title>
<g id="a_Node000002"><a xlink:href="_t_sharc_8h.html" target="_top" xlink:title=" ">
<polygon fill="white" stroke="#666666" points="301.38,-74.5 246.38,-74.5 246.38,-55.25 301.38,-55.25 301.38,-74.5"/>
<text text-anchor="middle" x="273.88" y="-61" font-family="Helvetica,sans-Serif" font-size="10.00">TSharc.h</text>
</a>
</g>
</g>
<!-- Node1&#45;&gt;Node2 -->
<g id="edge1_Node000001_Node000002" class="edge">
<title>Node1&#45;&gt;Node2</title>
<g id="a_edge1_Node000001_Node000002"><a xlink:title=" ">
<path fill="none" stroke="#63b8ff" d="M291.99,-100.33C287.44,-91.67 282.25,-81.81 278.6,-74.86"/>
<polygon fill="#63b8ff" stroke="#63b8ff" points="288.8,-101.77 296.55,-108.99 294.99,-98.51 288.8,-101.77"/>
</a>
</g>
</g>
<!-- Node6 -->
<g id="Node000006" class="node">
<title>Node6</title>
<g id="a_Node000006"><a xlink:href="_t_sharc_hit_8cxx.html" target="_top" xlink:title=" ">
<polygon fill="white" stroke="#666666" points="400.25,-19.25 323.5,-19.25 323.5,0 400.25,0 400.25,-19.25"/>
<text text-anchor="middle" x="361.88" y="-5.75" font-family="Helvetica,sans-Serif" font-size="10.00">TSharcHit.cxx</text>
</a>
</g>
</g>
<!-- Node1&#45;&gt;Node6 -->
<g id="edge6_Node000001_Node000006" class="edge">
<title>Node1&#45;&gt;Node6</title>
<g id="a_edge6_Node000001_Node000006"><a xlink:title=" ">
<path fill="none" stroke="#63b8ff" d="M312.23,-100.4C325.26,-76.83 347.13,-37.29 356.9,-19.63"/>
<polygon fill="#63b8ff" stroke="#63b8ff" points="309.29,-98.48 307.52,-108.92 315.42,-101.86 309.29,-98.48"/>
</a>
</g>
</g>
<!-- Node3 -->
<g id="Node000003" class="node">
<title>Node3</title>
<g id="a_Node000003"><a xlink:href="_get_tree_entries_8cxx.html" target="_top" xlink:title=" ">
<polygon fill="white" stroke="#666666" points="97.75,-19.25 0,-19.25 0,0 97.75,0 97.75,-19.25"/>
<text text-anchor="middle" x="48.88" y="-5.75" font-family="Helvetica,sans-Serif" font-size="10.00">GetTreeEntries.cxx</text>
</a>
</g>
</g>
<!-- Node2&#45;&gt;Node3 -->
<g id="edge2_Node000002_Node000003" class="edge">
<title>Node2&#45;&gt;Node3</title>
<g id="a_edge2_Node000002_Node000003"><a xlink:title=" ">
<path fill="none" stroke="#63b8ff" d="M235.28,-54.74C193.89,-44.94 128.54,-29.48 87.23,-19.7"/>
<polygon fill="#63b8ff" stroke="#63b8ff" points="234.28,-58.1 244.81,-57 235.89,-51.29 234.28,-58.1"/>
</a>
</g>
</g>
<!-- Node4 -->
<g id="Node000004" class="node">
<title>Node4</title>
<g id="a_Node000004"><a xlink:href="_t_g_r_s_i_mnemonic_8cxx.html" target="_top" xlink:title=" ">
<polygon fill="white" stroke="#666666" points="223.62,-19.25 116.12,-19.25 116.12,0 223.62,0 223.62,-19.25"/>
<text text-anchor="middle" x="169.88" y="-5.75" font-family="Helvetica,sans-Serif" font-size="10.00">TGRSIMnemonic.cxx</text>
</a>
</g>
</g>
<!-- Node2&#45;&gt;Node4 -->
<g id="edge3_Node000002_Node000004" class="edge">
<title>Node2&#45;&gt;Node4</title>
<g id="a_edge3_Node000002_Node000004"><a xlink:title=" ">
<path fill="none" stroke="#63b8ff" d="M246.01,-49.61C227.45,-40.11 203.62,-27.9 187.6,-19.7"/>
<polygon fill="#63b8ff" stroke="#63b8ff" points="244.39,-52.71 254.89,-54.15 247.58,-46.48 244.39,-52.71"/>
</a>
</g>
</g>
<!-- Node5 -->
<g id="Node000005" class="node">
<title>Node5</title>
<g id="a_Node000005"><a xlink:href="_t_sharc_8cxx.html" target="_top" xlink:title=" ">
<polygon fill="white" stroke="#666666" points="305.88,-19.25 241.88,-19.25 241.88,0 305.88,0 305.88,-19.25"/>
<text text-anchor="middle" x="273.88" y="-5.75" font-family="Helvetica,sans-Serif" font-size="10.00">TSharc.cxx</text>
</a>
</g>
</g>
<!-- Node2&#45;&gt;Node5 -->
<g id="edge4_Node000002_Node000005" class="edge">
<title>Node2&#45;&gt;Node5</title>
<g id="a_edge4_Node000002_Node000005"><a xlink:title=" ">
<path fill="none" stroke="#63b8ff" d="M273.88,-43.63C273.88,-35.34 273.88,-26.17 273.88,-19.61"/>
<polygon fill="#63b8ff" stroke="#63b8ff" points="270.38,-43.57 273.88,-53.57 277.38,-43.57 270.38,-43.57"/>
</a>
</g>
</g>
<!-- Node2&#45;&gt;Node6 -->
<g id="edge5_Node000002_Node000006" class="edge">
<title>Node2&#45;&gt;Node6</title>
<g id="a_edge5_Node000002_Node000006"><a xlink:title=" ">
<path fill="none" stroke="#63b8ff" d="M298.34,-49.07C313.91,-39.65 333.58,-27.75 346.87,-19.7"/>
<polygon fill="#63b8ff" stroke="#63b8ff" points="296.84,-45.89 290.1,-54.06 300.47,-51.88 296.84,-45.89"/>
</a>
</g>
</g>
</g>
</svg>
