<?xml version="1.0" encoding="UTF-8" standalone="no"?>
<!DOCTYPE svg PUBLIC "-//W3C//DTD SVG 1.1//EN"
 "http://www.w3.org/Graphics/SVG/1.1/DTD/svg11.dtd">
<!-- Generated by graphviz version 9.0.0 (20230911.1827)
 -->
<!-- Title: TScaler.cxx Pages: 1 -->
<!--zoomable 304 -->

<svg id="main" version="1.1" xmlns="http://www.w3.org/2000/svg" xmlns:xlink="http://www.w3.org/1999/xlink" xml:space="preserve" onload="init(evt)">
<style type="text/css"><![CDATA[
.node, .edge {opacity: 0.7;}
.node.selected, .edge.selected {opacity: 1;}
.edge:hover path { stroke: red; }
.edge:hover polygon { stroke: red; fill: red; }
]]></style>

<defs>
  <circle id="rim" cx="0" cy="0" r="7"/>
  <circle id="rim2" cx="0" cy="0" r="3.5"/>
  <g id="zoomPlus">
    <use xlink:href="#rim" fill="#404040"><set attributeName="fill" to="#808080" begin="zoomplus.mouseover" end="zoomplus.mouseout"/></use>
    <path d="M-4,0h8M0,-4v8" fill="none" stroke="white" stroke-width="1.5" pointer-events="none"/>
  </g>
  <g id="zoomMin">
    <use xlink:href="#rim" fill="#404040"><set attributeName="fill" to="#808080" begin="zoomminus.mouseover" end="zoomminus.mouseout"/></use>
    <path d="M-4,0h8" fill="none" stroke="white" stroke-width="1.5" pointer-events="none"/>
  </g>
  <g id="arrowUp" transform="translate(30 24)">
    <use xlink:href="#rim"/>
    <path pointer-events="none" fill="none" stroke="white" stroke-width="1.5" d="M0,-3.0v7 M-2.5,-0.5L0,-3.0L2.5,-0.5"/>
  </g>
  <g id="arrowRight" transform="rotate(90) translate(36 -43)">
    <use xlink:href="#rim"/>
    <path pointer-events="none" fill="none" stroke="white" stroke-width="1.5" d="M0,-3.0v7 M-2.5,-0.5L0,-3.0L2.5,-0.5"/>
  </g>
  <g id="arrowDown" transform="rotate(180) translate(-30 -48)">
    <use xlink:href="#rim"/>
    <path pointer-events="none" fill="none" stroke="white" stroke-width="1.5" d="M0,-3.0v7 M-2.5,-0.5L0,-3.0L2.5,-0.5"/>
  </g>
  <g id="arrowLeft" transform="rotate(270) translate(-36 17)">
    <use xlink:href="#rim"/>
    <path pointer-events="none" fill="none" stroke="white" stroke-width="1.5" d="M0,-3.0v7 M-2.5,-0.5L0,-3.0L2.5,-0.5"/>
  </g>
  <g id="resetDef">
    <use xlink:href="#rim2" fill="#404040"><set attributeName="fill" to="#808080" begin="reset.mouseover" end="reset.mouseout"/></use>
  </g>
</defs>
<script type="application/ecmascript">
var viewWidth = 1203;
var viewHeight = 304;
var sectionId = 'dynsection-0';
</script>
<script type="application/ecmascript" xlink:href="svg.min.js"/>
<svg id="graph" class="graph">
<g id="viewport">
<title>TScaler.cxx</title>
<!-- Node1 -->
<g id="Node000001" class="node">
<title>Node1</title>
<g id="a_Node000001"><a xlink:title=" ">
<polygon fill="#999999" stroke="#666666" points="869,-295.5 802.75,-295.5 802.75,-276.25 869,-276.25 869,-295.5"/>
<text text-anchor="middle" x="835.88" y="-282" font-family="Helvetica,sans-Serif" font-size="10.00">TScaler.cxx</text>
</a>
</g>
</g>
<!-- Node2 -->
<g id="Node000002" class="node">
<title>Node2</title>
<g id="a_Node000002"><a xlink:href="_t_scaler_8h.html" target="_top" xlink:title=" ">
<polygon fill="white" stroke="#666666" points="864.5,-240.25 807.25,-240.25 807.25,-221 864.5,-221 864.5,-240.25"/>
<text text-anchor="middle" x="835.88" y="-226.75" font-family="Helvetica,sans-Serif" font-size="10.00">TScaler.h</text>
</a>
</g>
</g>
<!-- Node1&#45;&gt;Node2 -->
<g id="edge1_Node000001_Node000002" class="edge">
<title>Node1&#45;&gt;Node2</title>
<g id="a_edge1_Node000001_Node000002"><a xlink:title=" ">
<path fill="none" stroke="#63b8ff" d="M835.88,-276.08C835.88,-269.57 835.88,-260.42 835.88,-252.12"/>
<polygon fill="#63b8ff" stroke="#63b8ff" points="839.38,-252.12 835.88,-242.12 832.38,-252.12 839.38,-252.12"/>
</a>
</g>
</g>
<!-- Node8 -->
<g id="Node000008" class="node">
<title>Node8</title>
<g id="a_Node000008"><a xlink:title=" ">
<polygon fill="#e0e0e0" stroke="#999999" points="49.75,-19.25 0,-19.25 0,0 49.75,0 49.75,-19.25"/>
<text text-anchor="middle" x="24.88" y="-5.75" font-family="Helvetica,sans-Serif" font-size="10.00">iomanip</text>
</a>
</g>
</g>
<!-- Node1&#45;&gt;Node8 -->
<g id="edge44_Node000001_Node000008" class="edge">
<title>Node1&#45;&gt;Node8</title>
<g id="a_edge44_Node000001_Node000008"><a xlink:title=" ">
<path fill="none" stroke="#63b8ff" d="M802.6,-285.37C684.28,-286.25 290.88,-281.29 290.88,-176.38 290.88,-176.38 290.88,-176.38 290.88,-119.12 290.88,-94.57 133.41,-43.57 60.79,-21.36"/>
<polygon fill="#63b8ff" stroke="#63b8ff" points="61.93,-18.05 51.35,-18.49 59.9,-24.74 61.93,-18.05"/>
</a>
</g>
</g>
<!-- Node35 -->
<g id="Node000035" class="node">
<title>Node35</title>
<g id="a_Node000035"><a xlink:title=" ">
<polygon fill="#e0e0e0" stroke="#999999" points="939.5,-240.25 882.25,-240.25 882.25,-221 939.5,-221 939.5,-240.25"/>
<text text-anchor="middle" x="910.88" y="-226.75" font-family="Helvetica,sans-Serif" font-size="10.00">TROOT.h</text>
</a>
</g>
</g>
<!-- Node1&#45;&gt;Node35 -->
<g id="edge45_Node000001_Node000035" class="edge">
<title>Node1&#45;&gt;Node35</title>
<g id="a_edge45_Node000001_Node000035"><a xlink:title=" ">
<path fill="none" stroke="#63b8ff" d="M848.6,-275.84C859.59,-268.04 875.72,-256.59 888.81,-247.29"/>
<polygon fill="#63b8ff" stroke="#63b8ff" points="890.73,-250.22 896.86,-241.58 886.68,-244.51 890.73,-250.22"/>
</a>
</g>
</g>
<!-- Node3 -->
<g id="Node000003" class="node">
<title>Node3</title>
<g id="a_Node000003"><a xlink:title=" ">
<polygon fill="#e0e0e0" stroke="#999999" points="1194.62,-19.25 1141.12,-19.25 1141.12,0 1194.62,0 1194.62,-19.25"/>
<text text-anchor="middle" x="1167.88" y="-5.75" font-family="Helvetica,sans-Serif" font-size="10.00">iostream</text>
</a>
</g>
</g>
<!-- Node2&#45;&gt;Node3 -->
<g id="edge2_Node000002_Node000003" class="edge">
<title>Node2&#45;&gt;Node3</title>
<g id="a_edge2_Node000002_Node000003"><a xlink:title=" ">
<path fill="none" stroke="#63b8ff" d="M864.95,-222.79C867.63,-222.18 870.3,-221.57 872.88,-221 1001.86,-192.23 1080.17,-238.07 1155.88,-129.75 1176.45,-100.31 1174.72,-56.33 1171.42,-30.86"/>
<polygon fill="#63b8ff" stroke="#63b8ff" points="1174.91,-30.55 1169.94,-21.19 1167.99,-31.61 1174.91,-30.55"/>
</a>
</g>
</g>
<!-- Node4 -->
<g id="Node000004" class="node">
<title>Node4</title>
<g id="a_Node000004"><a xlink:title=" ">
<polygon fill="#e0e0e0" stroke="#999999" points="687.25,-129.75 652.5,-129.75 652.5,-110.5 687.25,-110.5 687.25,-129.75"/>
<text text-anchor="middle" x="669.88" y="-116.25" font-family="Helvetica,sans-Serif" font-size="10.00">map</text>
</a>
</g>
</g>
<!-- Node2&#45;&gt;Node4 -->
<g id="edge3_Node000002_Node000004" class="edge">
<title>Node2&#45;&gt;Node4</title>
<g id="a_edge3_Node000002_Node000004"><a xlink:title=" ">
<path fill="none" stroke="#63b8ff" d="M822.01,-220.56C793.5,-201.93 728.04,-159.15 693.01,-136.25"/>
<polygon fill="#63b8ff" stroke="#63b8ff" points="695.14,-133.46 684.85,-130.92 691.31,-139.32 695.14,-133.46"/>
</a>
</g>
</g>
<!-- Node5 -->
<g id="Node000005" class="node">
<title>Node5</title>
<g id="a_Node000005"><a xlink:title=" ">
<polygon fill="#e0e0e0" stroke="#999999" points="719.88,-74.5 661.88,-74.5 661.88,-55.25 719.88,-55.25 719.88,-74.5"/>
<text text-anchor="middle" x="690.88" y="-61" font-family="Helvetica,sans-Serif" font-size="10.00">TObject.h</text>
</a>
</g>
</g>
<!-- Node2&#45;&gt;Node5 -->
<g id="edge4_Node000002_Node000005" class="edge">
<title>Node2&#45;&gt;Node5</title>
<g id="a_edge4_Node000002_Node000005"><a xlink:title=" ">
<path fill="none" stroke="#63b8ff" d="M807.07,-224.57C762.53,-215.01 678.48,-189.6 643.88,-129.75 633.85,-112.41 650.39,-94.16 666.54,-81.62"/>
<polygon fill="#63b8ff" stroke="#63b8ff" points="668.51,-84.52 674.58,-75.84 664.42,-78.84 668.51,-84.52"/>
</a>
</g>
</g>
<!-- Node6 -->
<g id="Node000006" class="node">
<title>Node6</title>
<g id="a_Node000006"><a xlink:href="_globals_8h.html" target="_top" xlink:title=" ">
<polygon fill="white" stroke="#666666" points="644.12,-74.5 587.62,-74.5 587.62,-55.25 644.12,-55.25 644.12,-74.5"/>
<text text-anchor="middle" x="615.88" y="-61" font-family="Helvetica,sans-Serif" font-size="10.00">Globals.h</text>
</a>
</g>
</g>
<!-- Node2&#45;&gt;Node6 -->
<g id="edge5_Node000002_Node000006" class="edge">
<title>Node2&#45;&gt;Node6</title>
<g id="a_edge5_Node000002_Node000006"><a xlink:title=" ">
<path fill="none" stroke="#63b8ff" d="M806.76,-228.02C771.66,-224.75 712.35,-214.88 671.88,-185 639.34,-160.98 625.02,-113.24 619.29,-86.06"/>
<polygon fill="#63b8ff" stroke="#63b8ff" points="622.75,-85.52 617.45,-76.35 615.87,-86.83 622.75,-85.52"/>
</a>
</g>
</g>
<!-- Node24 -->
<g id="Node000024" class="node">
<title>Node24</title>
<g id="a_Node000024"><a xlink:title=" ">
<polygon fill="#e0e0e0" stroke="#999999" points="1147,-129.75 1074.75,-129.75 1074.75,-110.5 1147,-110.5 1147,-129.75"/>
<text text-anchor="middle" x="1110.88" y="-116.25" font-family="Helvetica,sans-Serif" font-size="10.00">TCollection.h</text>
</a>
</g>
</g>
<!-- Node2&#45;&gt;Node24 -->
<g id="edge24_Node000002_Node000024" class="edge">
<title>Node2&#45;&gt;Node24</title>
<g id="a_edge24_Node000002_Node000024"><a xlink:title=" ">
<path fill="none" stroke="#63b8ff" d="M843.26,-220.62C855.27,-206.6 880.48,-179.7 907.88,-165.75 921.64,-158.74 1007.78,-141.15 1063.34,-130.26"/>
<polygon fill="#63b8ff" stroke="#63b8ff" points="1063.73,-133.75 1072.87,-128.4 1062.39,-126.88 1063.73,-133.75"/>
</a>
</g>
</g>
<!-- Node25 -->
<g id="Node000025" class="node">
<title>Node25</title>
<g id="a_Node000025"><a xlink:title=" ">
<polygon fill="#e0e0e0" stroke="#999999" points="966.38,-185 917.38,-185 917.38,-165.75 966.38,-165.75 966.38,-185"/>
<text text-anchor="middle" x="941.88" y="-171.5" font-family="Helvetica,sans-Serif" font-size="10.00">TTree.h</text>
</a>
</g>
</g>
<!-- Node2&#45;&gt;Node25 -->
<g id="edge25_Node000002_Node000025" class="edge">
<title>Node2&#45;&gt;Node25</title>
<g id="a_edge25_Node000002_Node000025"><a xlink:title=" ">
<path fill="none" stroke="#63b8ff" d="M853.86,-220.59C870.23,-212.37 894.66,-200.09 913.64,-190.56"/>
<polygon fill="#63b8ff" stroke="#63b8ff" points="915.09,-193.75 922.45,-186.13 911.95,-187.49 915.09,-193.75"/>
</a>
</g>
</g>
<!-- Node26 -->
<g id="Node000026" class="node">
<title>Node26</title>
<g id="a_Node000026"><a xlink:title=" ">
<polygon fill="#e0e0e0" stroke="#999999" points="1033.38,-185 984.38,-185 984.38,-165.75 1033.38,-165.75 1033.38,-185"/>
<text text-anchor="middle" x="1008.88" y="-171.5" font-family="Helvetica,sans-Serif" font-size="10.00">TH1D.h</text>
</a>
</g>
</g>
<!-- Node2&#45;&gt;Node26 -->
<g id="edge26_Node000002_Node000026" class="edge">
<title>Node2&#45;&gt;Node26</title>
<g id="a_edge26_Node000002_Node000026"><a xlink:title=" ">
<path fill="none" stroke="#63b8ff" d="M864.83,-220.71C894.69,-211.52 941.29,-197.18 973.35,-187.31"/>
<polygon fill="#63b8ff" stroke="#63b8ff" points="974.06,-190.75 982.59,-184.47 972,-184.06 974.06,-190.75"/>
</a>
</g>
</g>
<!-- Node27 -->
<g id="Node000027" class="node">
<title>Node27</title>
<g id="a_Node000027"><a xlink:href="_t_p_p_g_8h.html" target="_top" xlink:title=" ">
<polygon fill="white" stroke="#666666" points="861.12,-185 810.62,-185 810.62,-165.75 861.12,-165.75 861.12,-185"/>
<text text-anchor="middle" x="835.88" y="-171.5" font-family="Helvetica,sans-Serif" font-size="10.00">TPPG.h</text>
</a>
</g>
</g>
<!-- Node2&#45;&gt;Node27 -->
<g id="edge27_Node000002_Node000027" class="edge">
<title>Node2&#45;&gt;Node27</title>
<g id="a_edge27_Node000002_Node000027"><a xlink:title=" ">
<path fill="none" stroke="#63b8ff" d="M835.88,-220.83C835.88,-214.32 835.88,-205.17 835.88,-196.87"/>
<polygon fill="#63b8ff" stroke="#63b8ff" points="839.38,-196.87 835.88,-186.87 832.38,-196.87 839.38,-196.87"/>
</a>
</g>
</g>
<!-- Node6&#45;&gt;Node3 -->
<g id="edge7_Node000006_Node000003" class="edge">
<title>Node6&#45;&gt;Node3</title>
<g id="a_edge7_Node000006_Node000003"><a xlink:title=" ">
<path fill="none" stroke="#63b8ff" d="M644.47,-56.75C647.3,-56.18 650.14,-55.67 652.88,-55.25 860.73,-23.42 919.61,-51.95 1129.73,-19.51"/>
<polygon fill="#63b8ff" stroke="#63b8ff" points="1130,-23.01 1139.34,-18 1128.92,-16.1 1130,-23.01"/>
</a>
</g>
</g>
<!-- Node7 -->
<g id="Node000007" class="node">
<title>Node7</title>
<g id="a_Node000007"><a xlink:title=" ">
<polygon fill="#e0e0e0" stroke="#999999" points="1123.5,-19.25 1078.25,-19.25 1078.25,0 1123.5,0 1123.5,-19.25"/>
<text text-anchor="middle" x="1100.88" y="-5.75" font-family="Helvetica,sans-Serif" font-size="10.00">cstdint</text>
</a>
</g>
</g>
<!-- Node6&#45;&gt;Node7 -->
<g id="edge6_Node000006_Node000007" class="edge">
<title>Node6&#45;&gt;Node7</title>
<g id="a_edge6_Node000006_Node000007"><a xlink:title=" ">
<path fill="none" stroke="#63b8ff" d="M644.48,-56.78C647.31,-56.21 650.14,-55.68 652.88,-55.25 832.57,-26.68 884.12,-50.55 1066.84,-19.27"/>
<polygon fill="#63b8ff" stroke="#63b8ff" points="1067.17,-22.77 1076.42,-17.6 1065.97,-15.87 1067.17,-22.77"/>
</a>
</g>
</g>
<!-- Node6&#45;&gt;Node8 -->
<g id="edge8_Node000006_Node000008" class="edge">
<title>Node6&#45;&gt;Node8</title>
<g id="a_edge8_Node000006_Node000008"><a xlink:title=" ">
<path fill="none" stroke="#63b8ff" d="M587.27,-63.28C506.19,-61.24 267.96,-52.78 61.1,-19.33"/>
<polygon fill="#63b8ff" stroke="#63b8ff" points="61.95,-15.92 51.52,-17.75 60.82,-22.83 61.95,-15.92"/>
</a>
</g>
</g>
<!-- Node9 -->
<g id="Node000009" class="node">
<title>Node9</title>
<g id="a_Node000009"><a xlink:title=" ">
<polygon fill="#e0e0e0" stroke="#999999" points="125.88,-19.25 67.88,-19.25 67.88,0 125.88,0 125.88,-19.25"/>
<text text-anchor="middle" x="96.88" y="-5.75" font-family="Helvetica,sans-Serif" font-size="10.00">stdexcept</text>
</a>
</g>
</g>
<!-- Node6&#45;&gt;Node9 -->
<g id="edge9_Node000006_Node000009" class="edge">
<title>Node6&#45;&gt;Node9</title>
<g id="a_edge9_Node000006_Node000009"><a xlink:title=" ">
<path fill="none" stroke="#63b8ff" d="M587.25,-62.53C514.05,-58.8 313.93,-46.89 137.57,-19.48"/>
<polygon fill="#63b8ff" stroke="#63b8ff" points="138.18,-16.03 127.75,-17.93 137.09,-22.95 138.18,-16.03"/>
</a>
</g>
</g>
<!-- Node10 -->
<g id="Node000010" class="node">
<title>Node10</title>
<g id="a_Node000010"><a xlink:title=" ">
<polygon fill="#e0e0e0" stroke="#999999" points="183.88,-19.25 143.88,-19.25 143.88,0 183.88,0 183.88,-19.25"/>
<text text-anchor="middle" x="163.88" y="-5.75" font-family="Helvetica,sans-Serif" font-size="10.00">string</text>
</a>
</g>
</g>
<!-- Node6&#45;&gt;Node10 -->
<g id="edge10_Node000006_Node000010" class="edge">
<title>Node6&#45;&gt;Node10</title>
<g id="a_edge10_Node000006_Node000010"><a xlink:title=" ">
<path fill="none" stroke="#63b8ff" d="M587.13,-62.67C520.01,-59.46 347.67,-49 195.29,-19.39"/>
<polygon fill="#63b8ff" stroke="#63b8ff" points="196.33,-16.03 185.84,-17.52 194.97,-22.89 196.33,-16.03"/>
</a>
</g>
</g>
<!-- Node11 -->
<g id="Node000011" class="node">
<title>Node11</title>
<g id="a_Node000011"><a xlink:title=" ">
<polygon fill="#e0e0e0" stroke="#999999" points="244,-19.25 201.75,-19.25 201.75,0 244,0 244,-19.25"/>
<text text-anchor="middle" x="222.88" y="-5.75" font-family="Helvetica,sans-Serif" font-size="10.00">cstdio</text>
</a>
</g>
</g>
<!-- Node6&#45;&gt;Node11 -->
<g id="edge11_Node000006_Node000011" class="edge">
<title>Node6&#45;&gt;Node11</title>
<g id="a_edge11_Node000006_Node000011"><a xlink:title=" ">
<path fill="none" stroke="#63b8ff" d="M587.39,-61.91C527.59,-57.46 384.47,-45.09 255.63,-19.52"/>
<polygon fill="#63b8ff" stroke="#63b8ff" points="256.38,-16.11 245.89,-17.55 255,-22.97 256.38,-16.11"/>
</a>
</g>
</g>
<!-- Node12 -->
<g id="Node000012" class="node">
<title>Node12</title>
<g id="a_Node000012"><a xlink:title=" ">
<polygon fill="#e0e0e0" stroke="#999999" points="306.12,-19.25 261.62,-19.25 261.62,0 306.12,0 306.12,-19.25"/>
<text text-anchor="middle" x="283.88" y="-5.75" font-family="Helvetica,sans-Serif" font-size="10.00">cstdlib</text>
</a>
</g>
</g>
<!-- Node6&#45;&gt;Node12 -->
<g id="edge12_Node000006_Node000012" class="edge">
<title>Node6&#45;&gt;Node12</title>
<g id="a_edge12_Node000006_Node000012"><a xlink:title=" ">
<path fill="none" stroke="#63b8ff" d="M587.45,-60.85C535.63,-55.09 422.2,-41.31 317.56,-19.6"/>
<polygon fill="#63b8ff" stroke="#63b8ff" points="318.47,-16.21 307.96,-17.58 317.03,-23.06 318.47,-16.21"/>
</a>
</g>
</g>
<!-- Node13 -->
<g id="Node000013" class="node">
<title>Node13</title>
<g id="a_Node000013"><a xlink:title=" ">
<polygon fill="#e0e0e0" stroke="#999999" points="383.62,-19.25 324.12,-19.25 324.12,0 383.62,0 383.62,-19.25"/>
<text text-anchor="middle" x="353.88" y="-5.75" font-family="Helvetica,sans-Serif" font-size="10.00">execinfo.h</text>
</a>
</g>
</g>
<!-- Node6&#45;&gt;Node13 -->
<g id="edge13_Node000006_Node000013" class="edge">
<title>Node6&#45;&gt;Node13</title>
<g id="a_edge13_Node000006_Node000013"><a xlink:title=" ">
<path fill="none" stroke="#63b8ff" d="M587.32,-58.35C546.86,-50.48 470.24,-35.43 395.16,-19.7"/>
<polygon fill="#63b8ff" stroke="#63b8ff" points="396.08,-16.32 385.58,-17.68 394.64,-23.17 396.08,-16.32"/>
</a>
</g>
</g>
<!-- Node14 -->
<g id="Node000014" class="node">
<title>Node14</title>
<g id="a_Node000014"><a xlink:title=" ">
<polygon fill="#e0e0e0" stroke="#999999" points="452.12,-19.25 401.62,-19.25 401.62,0 452.12,0 452.12,-19.25"/>
<text text-anchor="middle" x="426.88" y="-5.75" font-family="Helvetica,sans-Serif" font-size="10.00">cxxabi.h</text>
</a>
</g>
</g>
<!-- Node6&#45;&gt;Node14 -->
<g id="edge14_Node000006_Node000014" class="edge">
<title>Node6&#45;&gt;Node14</title>
<g id="a_edge14_Node000006_Node000014"><a xlink:title=" ">
<path fill="none" stroke="#63b8ff" d="M587.17,-55.79C554.09,-46.47 499.66,-31.13 463.54,-20.96"/>
<polygon fill="#63b8ff" stroke="#63b8ff" points="464.54,-17.6 453.96,-18.26 462.64,-24.34 464.54,-17.6"/>
</a>
</g>
</g>
<!-- Node15 -->
<g id="Node000015" class="node">
<title>Node15</title>
<g id="a_Node000015"><a xlink:title=" ">
<polygon fill="#e0e0e0" stroke="#999999" points="521.5,-19.25 470.25,-19.25 470.25,0 521.5,0 521.5,-19.25"/>
<text text-anchor="middle" x="495.88" y="-5.75" font-family="Helvetica,sans-Serif" font-size="10.00">sstream</text>
</a>
</g>
</g>
<!-- Node6&#45;&gt;Node15 -->
<g id="edge15_Node000006_Node000015" class="edge">
<title>Node6&#45;&gt;Node15</title>
<g id="a_edge15_Node000006_Node000015"><a xlink:title=" ">
<path fill="none" stroke="#63b8ff" d="M595.52,-54.84C576.64,-46.47 548.29,-33.88 526.65,-24.28"/>
<polygon fill="#63b8ff" stroke="#63b8ff" points="528.27,-21.17 517.71,-20.32 525.44,-27.57 528.27,-21.17"/>
</a>
</g>
</g>
<!-- Node16 -->
<g id="Node000016" class="node">
<title>Node16</title>
<g id="a_Node000016"><a xlink:title=" ">
<polygon fill="#e0e0e0" stroke="#999999" points="576.38,-19.25 539.38,-19.25 539.38,0 576.38,0 576.38,-19.25"/>
<text text-anchor="middle" x="557.88" y="-5.75" font-family="Helvetica,sans-Serif" font-size="10.00">array</text>
</a>
</g>
</g>
<!-- Node6&#45;&gt;Node16 -->
<g id="edge16_Node000006_Node000016" class="edge">
<title>Node6&#45;&gt;Node16</title>
<g id="a_edge16_Node000006_Node000016"><a xlink:title=" ">
<path fill="none" stroke="#63b8ff" d="M606.04,-54.84C597.82,-47.3 585.89,-36.35 575.96,-27.23"/>
<polygon fill="#63b8ff" stroke="#63b8ff" points="578.42,-24.73 568.68,-20.55 573.68,-29.89 578.42,-24.73"/>
</a>
</g>
</g>
<!-- Node17 -->
<g id="Node000017" class="node">
<title>Node17</title>
<g id="a_Node000017"><a xlink:title=" ">
<polygon fill="#e0e0e0" stroke="#999999" points="645.12,-19.25 594.62,-19.25 594.62,0 645.12,0 645.12,-19.25"/>
<text text-anchor="middle" x="619.88" y="-5.75" font-family="Helvetica,sans-Serif" font-size="10.00">memory</text>
</a>
</g>
</g>
<!-- Node6&#45;&gt;Node17 -->
<g id="edge17_Node000006_Node000017" class="edge">
<title>Node6&#45;&gt;Node17</title>
<g id="a_edge17_Node000006_Node000017"><a xlink:title=" ">
<path fill="none" stroke="#63b8ff" d="M616.54,-55.08C617.03,-48.49 617.73,-39.21 618.36,-30.82"/>
<polygon fill="#63b8ff" stroke="#63b8ff" points="621.83,-31.35 619.09,-21.12 614.85,-30.83 621.83,-31.35"/>
</a>
</g>
</g>
<!-- Node18 -->
<g id="Node000018" class="node">
<title>Node18</title>
<g id="a_Node000018"><a xlink:title=" ">
<polygon fill="#e0e0e0" stroke="#999999" points="712.75,-19.25 663,-19.25 663,0 712.75,0 712.75,-19.25"/>
<text text-anchor="middle" x="687.88" y="-5.75" font-family="Helvetica,sans-Serif" font-size="10.00">unistd.h</text>
</a>
</g>
</g>
<!-- Node6&#45;&gt;Node18 -->
<g id="edge18_Node000006_Node000018" class="edge">
<title>Node6&#45;&gt;Node18</title>
<g id="a_edge18_Node000006_Node000018"><a xlink:title=" ">
<path fill="none" stroke="#63b8ff" d="M628.09,-54.84C638.7,-46.99 654.31,-35.45 666.92,-26.12"/>
<polygon fill="#63b8ff" stroke="#63b8ff" points="668.67,-29.19 674.62,-20.42 664.5,-23.56 668.67,-29.19"/>
</a>
</g>
</g>
<!-- Node19 -->
<g id="Node000019" class="node">
<title>Node19</title>
<g id="a_Node000019"><a xlink:title=" ">
<polygon fill="#e0e0e0" stroke="#999999" points="776.88,-19.25 730.88,-19.25 730.88,0 776.88,0 776.88,-19.25"/>
<text text-anchor="middle" x="753.88" y="-5.75" font-family="Helvetica,sans-Serif" font-size="10.00">TEnv.h</text>
</a>
</g>
</g>
<!-- Node6&#45;&gt;Node19 -->
<g id="edge19_Node000006_Node000019" class="edge">
<title>Node6&#45;&gt;Node19</title>
<g id="a_edge19_Node000006_Node000019"><a xlink:title=" ">
<path fill="none" stroke="#63b8ff" d="M639.28,-54.84C661.52,-46.26 695.2,-33.27 720.3,-23.58"/>
<polygon fill="#63b8ff" stroke="#63b8ff" points="721.33,-26.93 729.4,-20.07 718.81,-20.4 721.33,-26.93"/>
</a>
</g>
</g>
<!-- Node20 -->
<g id="Node000020" class="node">
<title>Node20</title>
<g id="a_Node000020"><a xlink:title=" ">
<polygon fill="#e0e0e0" stroke="#999999" points="839.12,-19.25 794.62,-19.25 794.62,0 839.12,0 839.12,-19.25"/>
<text text-anchor="middle" x="816.88" y="-5.75" font-family="Helvetica,sans-Serif" font-size="10.00">stdio.h</text>
</a>
</g>
</g>
<!-- Node6&#45;&gt;Node20 -->
<g id="edge20_Node000006_Node000020" class="edge">
<title>Node6&#45;&gt;Node20</title>
<g id="a_edge20_Node000006_Node000020"><a xlink:title=" ">
<path fill="none" stroke="#63b8ff" d="M644.48,-56.5C676.18,-48.3 729.09,-34.53 783.34,-19.91"/>
<polygon fill="#63b8ff" stroke="#63b8ff" points="784,-23.36 792.74,-17.37 782.17,-16.6 784,-23.36"/>
</a>
</g>
</g>
<!-- Node21 -->
<g id="Node000021" class="node">
<title>Node21</title>
<g id="a_Node000021"><a xlink:title=" ">
<polygon fill="#e0e0e0" stroke="#999999" points="904.25,-19.25 857.5,-19.25 857.5,0 904.25,0 904.25,-19.25"/>
<text text-anchor="middle" x="880.88" y="-5.75" font-family="Helvetica,sans-Serif" font-size="10.00">stdlib.h</text>
</a>
</g>
</g>
<!-- Node6&#45;&gt;Node21 -->
<g id="edge21_Node000006_Node000021" class="edge">
<title>Node6&#45;&gt;Node21</title>
<g id="a_edge21_Node000006_Node000021"><a xlink:title=" ">
<path fill="none" stroke="#63b8ff" d="M644.53,-57.06C647.35,-56.43 650.16,-55.82 652.88,-55.25 735.69,-37.96 759.93,-38.34 846.03,-19.51"/>
<polygon fill="#63b8ff" stroke="#63b8ff" points="846.65,-22.96 855.65,-17.38 845.13,-16.12 846.65,-22.96"/>
</a>
</g>
</g>
<!-- Node22 -->
<g id="Node000022" class="node">
<title>Node22</title>
<g id="a_Node000022"><a xlink:title=" ">
<polygon fill="#e0e0e0" stroke="#999999" points="981.62,-19.25 922.12,-19.25 922.12,0 981.62,0 981.62,-19.25"/>
<text text-anchor="middle" x="951.88" y="-5.75" font-family="Helvetica,sans-Serif" font-size="10.00">sys/wait.h</text>
</a>
</g>
</g>
<!-- Node6&#45;&gt;Node22 -->
<g id="edge22_Node000006_Node000022" class="edge">
<title>Node6&#45;&gt;Node22</title>
<g id="a_edge22_Node000006_Node000022"><a xlink:title=" ">
<path fill="none" stroke="#63b8ff" d="M644.5,-56.93C647.33,-56.33 650.15,-55.75 652.88,-55.25 763.99,-34.65 796.07,-39.52 910.37,-19.56"/>
<polygon fill="#63b8ff" stroke="#63b8ff" points="910.97,-23.01 920.2,-17.82 909.74,-16.12 910.97,-23.01"/>
</a>
</g>
</g>
<!-- Node23 -->
<g id="Node000023" class="node">
<title>Node23</title>
<g id="a_Node000023"><a xlink:title=" ">
<polygon fill="#e0e0e0" stroke="#999999" points="1060,-19.25 999.75,-19.25 999.75,0 1060,0 1060,-19.25"/>
<text text-anchor="middle" x="1029.88" y="-5.75" font-family="Helvetica,sans-Serif" font-size="10.00">sys/prctl.h</text>
</a>
</g>
</g>
<!-- Node6&#45;&gt;Node23 -->
<g id="edge23_Node000006_Node000023" class="edge">
<title>Node6&#45;&gt;Node23</title>
<g id="a_edge23_Node000006_Node000023"><a xlink:title=" ">
<path fill="none" stroke="#63b8ff" d="M644.49,-56.84C647.31,-56.25 650.14,-55.71 652.88,-55.25 798.19,-30.67 839.76,-42.96 987.95,-19.55"/>
<polygon fill="#63b8ff" stroke="#63b8ff" points="988.47,-23.02 997.79,-17.97 987.36,-16.11 988.47,-23.02"/>
</a>
</g>
</g>
<!-- Node27&#45;&gt;Node3 -->
<g id="edge31_Node000027_Node000003" class="edge">
<title>Node27&#45;&gt;Node3</title>
<g id="a_edge31_Node000027_Node000003"><a xlink:title=" ">
<path fill="none" stroke="#63b8ff" d="M861.38,-168.46C906.61,-157.89 997.39,-136.25 1010.88,-129.75 1067.36,-102.51 1123.44,-53.21 1150.74,-27.41"/>
<polygon fill="#63b8ff" stroke="#63b8ff" points="1152.97,-30.12 1157.76,-20.67 1148.12,-25.07 1152.97,-30.12"/>
</a>
</g>
</g>
<!-- Node27&#45;&gt;Node4 -->
<g id="edge29_Node000027_Node000004" class="edge">
<title>Node27&#45;&gt;Node4</title>
<g id="a_edge29_Node000027_Node000004"><a xlink:title=" ">
<path fill="none" stroke="#63b8ff" d="M810.3,-166.17C780.01,-156.45 729.7,-140.31 698.23,-130.22"/>
<polygon fill="#63b8ff" stroke="#63b8ff" points="699.6,-126.98 689.01,-127.26 697.46,-133.65 699.6,-126.98"/>
</a>
</g>
</g>
<!-- Node27&#45;&gt;Node5 -->
<g id="edge33_Node000027_Node000005" class="edge">
<title>Node27&#45;&gt;Node5</title>
<g id="a_edge33_Node000027_Node000005"><a xlink:title=" ">
<path fill="none" stroke="#63b8ff" d="M845.34,-165.38C857.96,-152.31 877.22,-127.73 863.88,-110.5 859.73,-105.15 780.93,-86.38 731.13,-74.95"/>
<polygon fill="#63b8ff" stroke="#63b8ff" points="732.07,-71.58 721.54,-72.77 730.51,-78.4 732.07,-71.58"/>
</a>
</g>
</g>
<!-- Node27&#45;&gt;Node6 -->
<g id="edge35_Node000027_Node000006" class="edge">
<title>Node27&#45;&gt;Node6</title>
<g id="a_edge35_Node000027_Node000006"><a xlink:title=" ">
<path fill="none" stroke="#63b8ff" d="M813.75,-165.32C792.92,-156.66 760.97,-142.98 733.88,-129.75 701.56,-113.97 665.32,-94 641.63,-80.62"/>
<polygon fill="#63b8ff" stroke="#63b8ff" points="643.43,-77.62 633,-75.73 639.97,-83.71 643.43,-77.62"/>
</a>
</g>
</g>
<!-- Node27&#45;&gt;Node24 -->
<g id="edge34_Node000027_Node000024" class="edge">
<title>Node27&#45;&gt;Node24</title>
<g id="a_edge34_Node000027_Node000024"><a xlink:title=" ">
<path fill="none" stroke="#63b8ff" d="M861.44,-168.6C865.92,-167.63 870.53,-166.64 874.88,-165.75 939.97,-152.4 1015.47,-138.38 1063.2,-129.69"/>
<polygon fill="#63b8ff" stroke="#63b8ff" points="1063.72,-133.16 1072.93,-127.93 1062.47,-126.27 1063.72,-133.16"/>
</a>
</g>
</g>
<!-- Node28 -->
<g id="Node000028" class="node">
<title>Node28</title>
<g id="a_Node000028"><a xlink:title=" ">
<polygon fill="#e0e0e0" stroke="#999999" points="798.38,-129.75 743.38,-129.75 743.38,-110.5 798.38,-110.5 798.38,-129.75"/>
<text text-anchor="middle" x="770.88" y="-116.25" font-family="Helvetica,sans-Serif" font-size="10.00">TBuffer.h</text>
</a>
</g>
</g>
<!-- Node27&#45;&gt;Node28 -->
<g id="edge28_Node000027_Node000028" class="edge">
<title>Node27&#45;&gt;Node28</title>
<g id="a_edge28_Node000027_Node000028"><a xlink:title=" ">
<path fill="none" stroke="#63b8ff" d="M824.85,-165.34C815.45,-157.65 801.73,-146.4 790.47,-137.18"/>
<polygon fill="#63b8ff" stroke="#63b8ff" points="792.86,-134.61 782.91,-130.98 788.43,-140.03 792.86,-134.61"/>
</a>
</g>
</g>
<!-- Node29 -->
<g id="Node000029" class="node">
<title>Node29</title>
<g id="a_Node000029"><a xlink:title=" ">
<polygon fill="#e0e0e0" stroke="#999999" points="855.12,-129.75 816.62,-129.75 816.62,-110.5 855.12,-110.5 855.12,-129.75"/>
<text text-anchor="middle" x="835.88" y="-116.25" font-family="Helvetica,sans-Serif" font-size="10.00">utility</text>
</a>
</g>
</g>
<!-- Node27&#45;&gt;Node29 -->
<g id="edge30_Node000027_Node000029" class="edge">
<title>Node27&#45;&gt;Node29</title>
<g id="a_edge30_Node000027_Node000029"><a xlink:title=" ">
<path fill="none" stroke="#63b8ff" d="M835.88,-165.58C835.88,-159.07 835.88,-149.92 835.88,-141.62"/>
<polygon fill="#63b8ff" stroke="#63b8ff" points="839.38,-141.62 835.88,-131.62 832.38,-141.62 839.38,-141.62"/>
</a>
</g>
</g>
<!-- Node30 -->
<g id="Node000030" class="node">
<title>Node30</title>
<g id="a_Node000030"><a xlink:title=" ">
<polygon fill="#e0e0e0" stroke="#999999" points="1035.5,-74.5 990.25,-74.5 990.25,-55.25 1035.5,-55.25 1035.5,-74.5"/>
<text text-anchor="middle" x="1012.88" y="-61" font-family="Helvetica,sans-Serif" font-size="10.00">TFile.h</text>
</a>
</g>
</g>
<!-- Node27&#45;&gt;Node30 -->
<g id="edge32_Node000027_Node000030" class="edge">
<title>Node27&#45;&gt;Node30</title>
<g id="a_edge32_Node000027_Node000030"><a xlink:title=" ">
<path fill="none" stroke="#63b8ff" d="M861.34,-168.34C902.59,-158.36 980.39,-138.65 989.88,-129.75 1002.11,-118.27 1007.85,-99.82 1010.53,-85.69"/>
<polygon fill="#63b8ff" stroke="#63b8ff" points="1013.94,-86.58 1011.97,-76.17 1007.02,-85.53 1013.94,-86.58"/>
</a>
</g>
</g>
<!-- Node31 -->
<g id="Node000031" class="node">
<title>Node31</title>
<g id="a_Node000031"><a xlink:href="_t_singleton_8h.html" target="_top" xlink:title=" ">
<polygon fill="white" stroke="#666666" points="980.88,-129.75 910.88,-129.75 910.88,-110.5 980.88,-110.5 980.88,-129.75"/>
<text text-anchor="middle" x="945.88" y="-116.25" font-family="Helvetica,sans-Serif" font-size="10.00">TSingleton.h</text>
</a>
</g>
</g>
<!-- Node27&#45;&gt;Node31 -->
<g id="edge36_Node000027_Node000031" class="edge">
<title>Node27&#45;&gt;Node31</title>
<g id="a_edge36_Node000027_Node000031"><a xlink:title=" ">
<path fill="none" stroke="#63b8ff" d="M854.54,-165.34C871.6,-157.08 897.12,-144.73 916.85,-135.18"/>
<polygon fill="#63b8ff" stroke="#63b8ff" points="918.29,-138.37 925.76,-130.86 915.24,-132.07 918.29,-138.37"/>
</a>
</g>
</g>
<!-- Node31&#45;&gt;Node3 -->
<g id="edge37_Node000031_Node000003" class="edge">
<title>Node31&#45;&gt;Node3</title>
<g id="a_edge37_Node000031_Node000003"><a xlink:title=" ">
<path fill="none" stroke="#63b8ff" d="M910.67,-112.74C861.11,-103.4 775.77,-85.89 766.88,-74.5 761.61,-67.76 761.13,-61.59 766.88,-55.25 819.56,2.88 1034.14,-30.15 1129.53,-19.3"/>
<polygon fill="#63b8ff" stroke="#63b8ff" points="1129.91,-22.78 1139.32,-17.91 1128.93,-15.85 1129.91,-22.78"/>
</a>
</g>
</g>
<!-- Node31&#45;&gt;Node5 -->
<g id="edge38_Node000031_Node000005" class="edge">
<title>Node31&#45;&gt;Node5</title>
<g id="a_edge38_Node000031_Node000005"><a xlink:title=" ">
<path fill="none" stroke="#63b8ff" d="M910.42,-111.72C863.42,-101.91 780.68,-84.63 731.3,-74.32"/>
<polygon fill="#63b8ff" stroke="#63b8ff" points="732.09,-70.91 721.59,-72.29 730.66,-77.76 732.09,-70.91"/>
</a>
</g>
</g>
<!-- Node31&#45;&gt;Node6 -->
<g id="edge43_Node000031_Node000006" class="edge">
<title>Node31&#45;&gt;Node6</title>
<g id="a_edge43_Node000031_Node000006"><a xlink:title=" ">
<path fill="none" stroke="#63b8ff" d="M910.54,-114.65C857.38,-107.72 753.43,-93.4 655.77,-74.94"/>
<polygon fill="#63b8ff" stroke="#63b8ff" points="656.48,-71.51 646,-73.07 655.16,-78.38 656.48,-71.51"/>
</a>
</g>
</g>
<!-- Node31&#45;&gt;Node30 -->
<g id="edge40_Node000031_Node000030" class="edge">
<title>Node31&#45;&gt;Node30</title>
<g id="a_edge40_Node000031_Node000030"><a xlink:title=" ">
<path fill="none" stroke="#63b8ff" d="M957.24,-110.09C966.92,-102.4 981.07,-91.15 992.68,-81.93"/>
<polygon fill="#63b8ff" stroke="#63b8ff" points="994.84,-84.68 1000.49,-75.72 990.49,-79.2 994.84,-84.68"/>
</a>
</g>
</g>
<!-- Node32 -->
<g id="Node000032" class="node">
<title>Node32</title>
<g id="a_Node000032"><a xlink:title=" ">
<polygon fill="#e0e0e0" stroke="#999999" points="843.75,-74.5 776,-74.5 776,-55.25 843.75,-55.25 843.75,-74.5"/>
<text text-anchor="middle" x="809.88" y="-61" font-family="Helvetica,sans-Serif" font-size="10.00">TDirectory.h</text>
</a>
</g>
</g>
<!-- Node31&#45;&gt;Node32 -->
<g id="edge39_Node000031_Node000032" class="edge">
<title>Node31&#45;&gt;Node32</title>
<g id="a_edge39_Node000031_Node000032"><a xlink:title=" ">
<path fill="none" stroke="#63b8ff" d="M922.8,-110.09C901.12,-101.6 868.39,-88.79 843.75,-79.14"/>
<polygon fill="#63b8ff" stroke="#63b8ff" points="845.06,-75.89 834.47,-75.5 842.5,-82.41 845.06,-75.89"/>
</a>
</g>
</g>
<!-- Node33 -->
<g id="Node000033" class="node">
<title>Node33</title>
<g id="a_Node000033"><a xlink:title=" ">
<polygon fill="#e0e0e0" stroke="#999999" points="907.88,-74.5 861.88,-74.5 861.88,-55.25 907.88,-55.25 907.88,-74.5"/>
<text text-anchor="middle" x="884.88" y="-61" font-family="Helvetica,sans-Serif" font-size="10.00">TList.h</text>
</a>
</g>
</g>
<!-- Node31&#45;&gt;Node33 -->
<g id="edge41_Node000031_Node000033" class="edge">
<title>Node31&#45;&gt;Node33</title>
<g id="a_edge41_Node000031_Node000033"><a xlink:title=" ">
<path fill="none" stroke="#63b8ff" d="M935.53,-110.09C926.8,-102.47 914.09,-91.37 903.58,-82.2"/>
<polygon fill="#63b8ff" stroke="#63b8ff" points="906.05,-79.71 896.21,-75.77 901.44,-84.98 906.05,-79.71"/>
</a>
</g>
</g>
<!-- Node34 -->
<g id="Node000034" class="node">
<title>Node34</title>
<g id="a_Node000034"><a xlink:title=" ">
<polygon fill="#e0e0e0" stroke="#999999" points="971.88,-74.5 925.88,-74.5 925.88,-55.25 971.88,-55.25 971.88,-74.5"/>
<text text-anchor="middle" x="948.88" y="-61" font-family="Helvetica,sans-Serif" font-size="10.00">TKey.h</text>
</a>
</g>
</g>
<!-- Node31&#45;&gt;Node34 -->
<g id="edge42_Node000031_Node000034" class="edge">
<title>Node31&#45;&gt;Node34</title>
<g id="a_edge42_Node000031_Node000034"><a xlink:title=" ">
<path fill="none" stroke="#63b8ff" d="M946.37,-110.33C946.74,-103.74 947.26,-94.46 947.74,-86.07"/>
<polygon fill="#63b8ff" stroke="#63b8ff" points="951.22,-86.55 948.28,-76.37 944.23,-86.16 951.22,-86.55"/>
</a>
</g>
</g>
</g>
</svg>

<g id="navigator" transform="translate(0 0)" fill="#404254">
  <rect fill="#f2f5e9" fill-opacity="0.5" stroke="#606060" stroke-width=".5" x="0" y="0" width="60" height="60"/>
  <use id="zoomplus" xlink:href="#zoomPlus" x="17" y="9" onmousedown="handleZoom(evt,'in')"/>
  <use id="zoomminus" xlink:href="#zoomMin" x="42" y="9" onmousedown="handleZoom(evt,'out')"/>
  <use id="reset" xlink:href="#resetDef" x="30" y="36" onmousedown="handleReset()"/>
   <use id="arrowup" xlink:href="#arrowUp" x="0" y="0" onmousedown="handlePan(0,-1)"/>
  <use id="arrowright" xlink:href="#arrowRight" x="0" y="0" onmousedown="handlePan(1,0)"/>
  <use id="arrowdown" xlink:href="#arrowDown" x="0" y="0" onmousedown="handlePan(0,1)"/>
  <use id="arrowleft" xlink:href="#arrowLeft" x="0" y="0" onmousedown="handlePan(-1,0)"/>
</g>
<svg viewBox="0 0 15 15" width="100%" height="30px" preserveAspectRatio="xMaxYMin meet">
 <g id="arrow_out" transform="scale(0.3 0.3)">
  <a xlink:href="_t_scaler_8cxx__incl_org.svg" target="_base">
   <rect id="button" ry="5" rx="5" y="6" x="6" height="38" width="38"
        fill="#f2f5e9" fill-opacity="0.5" stroke="#606060" stroke-width="1.0"/>
   <path id="arrow"
     d="M 11.500037,31.436501 C 11.940474,20.09759 22.043105,11.32322 32.158766,21.979434 L 37.068811,17.246167 C 37.068811,17.246167 37.088388,32 37.088388,32 L 22.160133,31.978069 C 22.160133,31.978069 26.997745,27.140456 26.997745,27.140456 C 18.528582,18.264221 13.291696,25.230495 11.500037,31.436501 z"
     style="fill:#404040;"/>
  </a>
 </g>
</svg>

<style type='text/css'>
<![CDATA[
[data-mouse-over-selected='false'] { opacity: 0.7; }
[data-mouse-over-selected='true']  { opacity: 1.0; }
]]>
</style>
<script type="application/ecmascript"><![CDATA[
document.addEventListener('DOMContentLoaded', (event) => {
  highlightEdges();
  highlightAdjacentNodes();
});
]]></script>
</svg>
