<?xml version="1.0" encoding="UTF-8" standalone="no"?>
<!DOCTYPE svg PUBLIC "-//W3C//DTD SVG 1.1//EN"
 "http://www.w3.org/Graphics/SVG/1.1/DTD/svg11.dtd">
<!-- Generated by graphviz version 9.0.0 (20230911.1827)
 -->
<!-- Title: TSceptar.h Pages: 1 -->
<svg width="1993pt" height="138pt"
 viewBox="0.00 0.00 1993.00 137.75" xmlns="http://www.w3.org/2000/svg" xmlns:xlink="http://www.w3.org/1999/xlink">
<g id="graph0" class="graph" transform="scale(1 1) rotate(0) translate(4 133.75)">
<title>TSceptar.h</title>
<!-- Node1 -->
<g id="Node000001" class="node">
<title>Node1</title>
<g id="a_Node000001"><a xlink:title=" ">
<polygon fill="#999999" stroke="#666666" points="1097.88,-129.75 1034.62,-129.75 1034.62,-110.5 1097.88,-110.5 1097.88,-129.75"/>
<text text-anchor="middle" x="1066.25" y="-116.25" font-family="Helvetica,sans-Serif" font-size="10.00">TSceptar.h</text>
</a>
</g>
</g>
<!-- Node2 -->
<g id="Node000002" class="node">
<title>Node2</title>
<g id="a_Node000002"><a xlink:href="_angular_correlation_selector_8h.html" target="_top" xlink:title=" ">
<polygon fill="white" stroke="#666666" points="140.75,-74.5 1.75,-74.5 1.75,-55.25 140.75,-55.25 140.75,-74.5"/>
<text text-anchor="middle" x="71.25" y="-61" font-family="Helvetica,sans-Serif" font-size="10.00">AngularCorrelationSelector.h</text>
</a>
</g>
</g>
<!-- Node1&#45;&gt;Node2 -->
<g id="edge1_Node000001_Node000002" class="edge">
<title>Node1&#45;&gt;Node2</title>
<g id="a_edge1_Node000001_Node000002"><a xlink:title=" ">
<path fill="none" stroke="#63b8ff" d="M1023.03,-117.97C891.6,-114.24 485.14,-101.22 149.25,-74.5 146.53,-74.28 143.77,-74.05 140.97,-73.8"/>
<polygon fill="#63b8ff" stroke="#63b8ff" points="1022.92,-121.46 1033.02,-118.25 1023.12,-114.47 1022.92,-121.46"/>
</a>
</g>
</g>
<!-- Node4 -->
<g id="Node000004" class="node">
<title>Node4</title>
<g id="a_Node000004"><a xlink:href="_cross_talk_8h.html" target="_top" xlink:title=" ">
<polygon fill="white" stroke="#666666" points="226.12,-74.5 158.38,-74.5 158.38,-55.25 226.12,-55.25 226.12,-74.5"/>
<text text-anchor="middle" x="192.25" y="-61" font-family="Helvetica,sans-Serif" font-size="10.00">CrossTalk.h</text>
</a>
</g>
</g>
<!-- Node1&#45;&gt;Node4 -->
<g id="edge3_Node000001_Node000004" class="edge">
<title>Node1&#45;&gt;Node4</title>
<g id="a_edge3_Node000001_Node000004"><a xlink:title=" ">
<path fill="none" stroke="#63b8ff" d="M1023.24,-119C900,-118.17 535.18,-112.43 235.25,-74.5 232.38,-74.14 229.41,-73.69 226.44,-73.2"/>
<polygon fill="#63b8ff" stroke="#63b8ff" points="1022.87,-122.5 1032.89,-119.06 1022.91,-115.5 1022.87,-122.5"/>
</a>
</g>
</g>
<!-- Node6 -->
<g id="Node000006" class="node">
<title>Node6</title>
<g id="a_Node000006"><a xlink:href="_deadtime_8cxx.html" target="_top" xlink:title=" ">
<polygon fill="white" stroke="#666666" points="318.12,-74.5 244.38,-74.5 244.38,-55.25 318.12,-55.25 318.12,-74.5"/>
<text text-anchor="middle" x="281.25" y="-61" font-family="Helvetica,sans-Serif" font-size="10.00">Deadtime.cxx</text>
</a>
</g>
</g>
<!-- Node1&#45;&gt;Node6 -->
<g id="edge5_Node000001_Node000006" class="edge">
<title>Node1&#45;&gt;Node6</title>
<g id="a_edge5_Node000001_Node000006"><a xlink:title=" ">
<path fill="none" stroke="#63b8ff" d="M1023.03,-118.47C908.81,-116.3 589.58,-107.54 326.25,-74.5 323.72,-74.18 321.13,-73.81 318.52,-73.4"/>
<polygon fill="#63b8ff" stroke="#63b8ff" points="1022.8,-121.96 1032.87,-118.64 1022.93,-114.96 1022.8,-121.96"/>
</a>
</g>
</g>
<!-- Node7 -->
<g id="Node000007" class="node">
<title>Node7</title>
<g id="a_Node000007"><a xlink:href="_example_event_selector_8h.html" target="_top" xlink:title=" ">
<polygon fill="white" stroke="#666666" points="456.75,-74.5 335.75,-74.5 335.75,-55.25 456.75,-55.25 456.75,-74.5"/>
<text text-anchor="middle" x="396.25" y="-61" font-family="Helvetica,sans-Serif" font-size="10.00">ExampleEventSelector.h</text>
</a>
</g>
</g>
<!-- Node1&#45;&gt;Node7 -->
<g id="edge6_Node000001_Node000007" class="edge">
<title>Node1&#45;&gt;Node7</title>
<g id="a_edge6_Node000001_Node000007"><a xlink:title=" ">
<path fill="none" stroke="#63b8ff" d="M1022.98,-116.66C924.06,-110.86 673.85,-95.27 465.25,-74.5 462.61,-74.24 459.91,-73.96 457.18,-73.66"/>
<polygon fill="#63b8ff" stroke="#63b8ff" points="1022.58,-120.14 1032.76,-117.23 1022.98,-113.15 1022.58,-120.14"/>
</a>
</g>
</g>
<!-- Node9 -->
<g id="Node000009" class="node">
<title>Node9</title>
<g id="a_Node000009"><a xlink:href="_example_tree_helper_8hh.html" target="_top" xlink:title=" ">
<polygon fill="white" stroke="#666666" points="588,-74.5 474.5,-74.5 474.5,-55.25 588,-55.25 588,-74.5"/>
<text text-anchor="middle" x="531.25" y="-61" font-family="Helvetica,sans-Serif" font-size="10.00">ExampleTreeHelper.hh</text>
</a>
</g>
</g>
<!-- Node1&#45;&gt;Node9 -->
<g id="edge8_Node000001_Node000009" class="edge">
<title>Node1&#45;&gt;Node9</title>
<g id="a_edge8_Node000001_Node000009"><a xlink:title=" ">
<path fill="none" stroke="#63b8ff" d="M1022.92,-115.51C940.12,-108.5 753.73,-92.16 597.25,-74.5 594.38,-74.18 591.44,-73.83 588.47,-73.48"/>
<polygon fill="#63b8ff" stroke="#63b8ff" points="1022.6,-119 1032.86,-116.35 1023.19,-112.02 1022.6,-119"/>
</a>
</g>
</g>
<!-- Node11 -->
<g id="Node000011" class="node">
<title>Node11</title>
<g id="a_Node000011"><a xlink:href="_example_tree_selector_8h.html" target="_top" xlink:title=" ">
<polygon fill="white" stroke="#666666" points="722.12,-74.5 606.38,-74.5 606.38,-55.25 722.12,-55.25 722.12,-74.5"/>
<text text-anchor="middle" x="664.25" y="-61" font-family="Helvetica,sans-Serif" font-size="10.00">ExampleTreeSelector.h</text>
</a>
</g>
</g>
<!-- Node1&#45;&gt;Node11 -->
<g id="edge10_Node000001_Node000011" class="edge">
<title>Node1&#45;&gt;Node11</title>
<g id="a_edge10_Node000001_Node000011"><a xlink:title=" ">
<path fill="none" stroke="#63b8ff" d="M1022.96,-113.39C950.38,-103.78 804.11,-84.4 722.56,-73.6"/>
<polygon fill="#63b8ff" stroke="#63b8ff" points="1022.5,-116.86 1032.87,-114.7 1023.42,-109.92 1022.5,-116.86"/>
</a>
</g>
</g>
<!-- Node13 -->
<g id="Node000013" class="node">
<title>Node13</title>
<g id="a_Node000013"><a xlink:href="_fast_timing_hist_selector_8h.html" target="_top" xlink:title=" ">
<polygon fill="white" stroke="#666666" points="866.38,-74.5 740.12,-74.5 740.12,-55.25 866.38,-55.25 866.38,-74.5"/>
<text text-anchor="middle" x="803.25" y="-61" font-family="Helvetica,sans-Serif" font-size="10.00">FastTimingHistSelector.h</text>
</a>
</g>
</g>
<!-- Node1&#45;&gt;Node13 -->
<g id="edge12_Node000001_Node000013" class="edge">
<title>Node1&#45;&gt;Node13</title>
<g id="a_edge12_Node000001_Node000013"><a xlink:title=" ">
<path fill="none" stroke="#63b8ff" d="M1023.27,-110.42C975.05,-100.66 897.19,-84.9 848.19,-74.97"/>
<polygon fill="#63b8ff" stroke="#63b8ff" points="1022.28,-113.79 1032.78,-112.35 1023.67,-106.93 1022.28,-113.79"/>
</a>
</g>
</g>
<!-- Node15 -->
<g id="Node000015" class="node">
<title>Node15</title>
<g id="a_Node000015"><a xlink:href="_get_tree_entries_8cxx.html" target="_top" xlink:title=" ">
<polygon fill="white" stroke="#666666" points="982.12,-74.5 884.38,-74.5 884.38,-55.25 982.12,-55.25 982.12,-74.5"/>
<text text-anchor="middle" x="933.25" y="-61" font-family="Helvetica,sans-Serif" font-size="10.00">GetTreeEntries.cxx</text>
</a>
</g>
</g>
<!-- Node1&#45;&gt;Node15 -->
<g id="edge14_Node000001_Node000015" class="edge">
<title>Node1&#45;&gt;Node15</title>
<g id="a_edge14_Node000001_Node000015"><a xlink:title=" ">
<path fill="none" stroke="#63b8ff" d="M1033.25,-105.91C1009.18,-96.27 977.17,-83.46 955.92,-74.95"/>
<polygon fill="#63b8ff" stroke="#63b8ff" points="1031.7,-109.06 1042.28,-109.53 1034.3,-102.56 1031.7,-109.06"/>
</a>
</g>
</g>
<!-- Node16 -->
<g id="Node000016" class="node">
<title>Node16</title>
<g id="a_Node000016"><a xlink:href="_make_griffin_histograms_8cxx.html" target="_top" xlink:title=" ">
<polygon fill="white" stroke="#666666" points="1132,-74.5 1000.5,-74.5 1000.5,-55.25 1132,-55.25 1132,-74.5"/>
<text text-anchor="middle" x="1066.25" y="-61" font-family="Helvetica,sans-Serif" font-size="10.00">MakeGriffinHistograms.cxx</text>
</a>
</g>
</g>
<!-- Node1&#45;&gt;Node16 -->
<g id="edge15_Node000001_Node000016" class="edge">
<title>Node1&#45;&gt;Node16</title>
<g id="a_edge15_Node000001_Node000016"><a xlink:title=" ">
<path fill="none" stroke="#63b8ff" d="M1066.25,-98.88C1066.25,-90.59 1066.25,-81.42 1066.25,-74.86"/>
<polygon fill="#63b8ff" stroke="#63b8ff" points="1062.75,-98.82 1066.25,-108.82 1069.75,-98.82 1062.75,-98.82"/>
</a>
</g>
</g>
<!-- Node17 -->
<g id="Node000017" class="node">
<title>Node17</title>
<g id="a_Node000017"><a xlink:href="_t_g_r_s_i_mnemonic_8cxx.html" target="_top" xlink:title=" ">
<polygon fill="white" stroke="#666666" points="1258,-74.5 1150.5,-74.5 1150.5,-55.25 1258,-55.25 1258,-74.5"/>
<text text-anchor="middle" x="1204.25" y="-61" font-family="Helvetica,sans-Serif" font-size="10.00">TGRSIMnemonic.cxx</text>
</a>
</g>
</g>
<!-- Node1&#45;&gt;Node17 -->
<g id="edge16_Node000001_Node000017" class="edge">
<title>Node1&#45;&gt;Node17</title>
<g id="a_edge16_Node000001_Node000017"><a xlink:title=" ">
<path fill="none" stroke="#63b8ff" d="M1100.15,-106.04C1125.17,-96.39 1158.58,-83.5 1180.73,-74.95"/>
<polygon fill="#63b8ff" stroke="#63b8ff" points="1099.14,-102.68 1091.07,-109.55 1101.66,-109.21 1099.14,-102.68"/>
</a>
</g>
</g>
<!-- Node18 -->
<g id="Node000018" class="node">
<title>Node18</title>
<g id="a_Node000018"><a xlink:href="_t_sceptar_8cxx.html" target="_top" xlink:title=" ">
<polygon fill="white" stroke="#666666" points="1348.38,-74.5 1276.12,-74.5 1276.12,-55.25 1348.38,-55.25 1348.38,-74.5"/>
<text text-anchor="middle" x="1312.25" y="-61" font-family="Helvetica,sans-Serif" font-size="10.00">TSceptar.cxx</text>
</a>
</g>
</g>
<!-- Node1&#45;&gt;Node18 -->
<g id="edge17_Node000001_Node000018" class="edge">
<title>Node1&#45;&gt;Node18</title>
<g id="a_edge17_Node000001_Node000018"><a xlink:title=" ">
<path fill="none" stroke="#63b8ff" d="M1109.25,-109.82C1156.51,-99.59 1231.61,-83.33 1276,-73.72"/>
<polygon fill="#63b8ff" stroke="#63b8ff" points="1108.67,-106.36 1099.64,-111.9 1110.15,-113.2 1108.67,-106.36"/>
</a>
</g>
</g>
<!-- Node19 -->
<g id="Node000019" class="node">
<title>Node19</title>
<g id="a_Node000019"><a xlink:href="_t_sceptar_hit_8cxx.html" target="_top" xlink:title=" ">
<polygon fill="white" stroke="#666666" points="1451.75,-74.5 1366.75,-74.5 1366.75,-55.25 1451.75,-55.25 1451.75,-74.5"/>
<text text-anchor="middle" x="1409.25" y="-61" font-family="Helvetica,sans-Serif" font-size="10.00">TSceptarHit.cxx</text>
</a>
</g>
</g>
<!-- Node1&#45;&gt;Node19 -->
<g id="edge18_Node000001_Node000019" class="edge">
<title>Node1&#45;&gt;Node19</title>
<g id="a_edge18_Node000001_Node000019"><a xlink:title=" ">
<path fill="none" stroke="#63b8ff" d="M1109.19,-112.71C1165.99,-104.18 1269.19,-88.56 1357.25,-74.5 1360.23,-74.02 1363.31,-73.53 1366.41,-73.02"/>
<polygon fill="#63b8ff" stroke="#63b8ff" points="1109,-109.2 1099.63,-114.14 1110.04,-116.12 1109,-109.2"/>
</a>
</g>
</g>
<!-- Node20 -->
<g id="Node000020" class="node">
<title>Node20</title>
<g id="a_Node000020"><a xlink:href="_test_helper_8hh.html" target="_top" xlink:title=" ">
<polygon fill="white" stroke="#666666" points="1546.62,-74.5 1469.88,-74.5 1469.88,-55.25 1546.62,-55.25 1546.62,-74.5"/>
<text text-anchor="middle" x="1508.25" y="-61" font-family="Helvetica,sans-Serif" font-size="10.00">TestHelper.hh</text>
</a>
</g>
</g>
<!-- Node1&#45;&gt;Node20 -->
<g id="edge19_Node000001_Node000020" class="edge">
<title>Node1&#45;&gt;Node20</title>
<g id="a_edge19_Node000001_Node000020"><a xlink:title=" ">
<path fill="none" stroke="#63b8ff" d="M1109.66,-115.14C1182.37,-108.26 1333.3,-93.07 1460.25,-74.5 1463.27,-74.06 1466.38,-73.57 1469.51,-73.06"/>
<polygon fill="#63b8ff" stroke="#63b8ff" points="1109.4,-111.65 1099.77,-116.07 1110.05,-118.62 1109.4,-111.65"/>
</a>
</g>
</g>
<!-- Node22 -->
<g id="Node000022" class="node">
<title>Node22</title>
<g id="a_Node000022"><a xlink:href="_time_walk_helper_8hh.html" target="_top" xlink:title=" ">
<polygon fill="white" stroke="#666666" points="1665.62,-74.5 1564.88,-74.5 1564.88,-55.25 1665.62,-55.25 1665.62,-74.5"/>
<text text-anchor="middle" x="1615.25" y="-61" font-family="Helvetica,sans-Serif" font-size="10.00">TimeWalkHelper.hh</text>
</a>
</g>
</g>
<!-- Node1&#45;&gt;Node22 -->
<g id="edge21_Node000001_Node000022" class="edge">
<title>Node1&#45;&gt;Node22</title>
<g id="a_edge21_Node000001_Node000022"><a xlink:title=" ">
<path fill="none" stroke="#63b8ff" d="M1109.66,-115.92C1195.11,-109.45 1391.1,-93.78 1555.25,-74.5 1558.28,-74.14 1561.4,-73.76 1564.54,-73.35"/>
<polygon fill="#63b8ff" stroke="#63b8ff" points="1109.57,-112.42 1099.86,-116.66 1110.09,-119.4 1109.57,-112.42"/>
</a>
</g>
</g>
<!-- Node24 -->
<g id="Node000024" class="node">
<title>Node24</title>
<g id="a_Node000024"><a xlink:href="_time_walk_selector_8h.html" target="_top" xlink:title=" ">
<polygon fill="white" stroke="#666666" points="1786.75,-74.5 1683.75,-74.5 1683.75,-55.25 1786.75,-55.25 1786.75,-74.5"/>
<text text-anchor="middle" x="1735.25" y="-61" font-family="Helvetica,sans-Serif" font-size="10.00">TimeWalkSelector.h</text>
</a>
</g>
</g>
<!-- Node1&#45;&gt;Node24 -->
<g id="edge23_Node000001_Node000024" class="edge">
<title>Node1&#45;&gt;Node24</title>
<g id="a_edge23_Node000001_Node000024"><a xlink:title=" ">
<path fill="none" stroke="#63b8ff" d="M1109.69,-116.94C1209.57,-111.7 1463.15,-97.15 1674.25,-74.5 1677.23,-74.18 1680.28,-73.83 1683.37,-73.45"/>
<polygon fill="#63b8ff" stroke="#63b8ff" points="1109.61,-113.44 1099.8,-117.46 1109.97,-120.43 1109.61,-113.44"/>
</a>
</g>
</g>
<!-- Node26 -->
<g id="Node000026" class="node">
<title>Node26</title>
<g id="a_Node000026"><a xlink:href="tac__calibrator_8cxx.html" target="_top" xlink:title=" ">
<polygon fill="white" stroke="#666666" points="1895.75,-74.5 1804.75,-74.5 1804.75,-55.25 1895.75,-55.25 1895.75,-74.5"/>
<text text-anchor="middle" x="1850.25" y="-61" font-family="Helvetica,sans-Serif" font-size="10.00">tac_calibrator.cxx</text>
</a>
</g>
</g>
<!-- Node1&#45;&gt;Node26 -->
<g id="edge25_Node000001_Node000026" class="edge">
<title>Node1&#45;&gt;Node26</title>
<g id="a_edge25_Node000001_Node000026"><a xlink:title=" ">
<path fill="none" stroke="#63b8ff" d="M1109.62,-117.95C1222.86,-114.55 1536.61,-103.1 1796.25,-74.5 1798.89,-74.21 1801.6,-73.88 1804.33,-73.52"/>
<polygon fill="#63b8ff" stroke="#63b8ff" points="1109.77,-114.44 1099.88,-118.23 1109.98,-121.44 1109.77,-114.44"/>
</a>
</g>
</g>
<!-- Node27 -->
<g id="Node000027" class="node">
<title>Node27</title>
<g id="a_Node000027"><a xlink:href="write__cal_8cxx.html" target="_top" xlink:title=" ">
<polygon fill="white" stroke="#666666" points="1985,-74.5 1913.5,-74.5 1913.5,-55.25 1985,-55.25 1985,-74.5"/>
<text text-anchor="middle" x="1949.25" y="-61" font-family="Helvetica,sans-Serif" font-size="10.00">write_cal.cxx</text>
</a>
</g>
</g>
<!-- Node1&#45;&gt;Node27 -->
<g id="edge26_Node000001_Node000027" class="edge">
<title>Node1&#45;&gt;Node27</title>
<g id="a_edge26_Node000001_Node000027"><a xlink:title=" ">
<path fill="none" stroke="#63b8ff" d="M1109.23,-118.96C1233.22,-118.04 1601.99,-112.1 1905.25,-74.5 1907.88,-74.17 1910.58,-73.78 1913.3,-73.35"/>
<polygon fill="#63b8ff" stroke="#63b8ff" points="1109.5,-115.46 1099.52,-119.03 1109.55,-122.46 1109.5,-115.46"/>
</a>
</g>
</g>
<!-- Node3 -->
<g id="Node000003" class="node">
<title>Node3</title>
<g id="a_Node000003"><a xlink:href="_angular_correlation_selector_8_c.html" target="_top" xlink:title=" ">
<polygon fill="white" stroke="#666666" points="140.5,-19.25 0,-19.25 0,0 140.5,0 140.5,-19.25"/>
<text text-anchor="middle" x="70.25" y="-5.75" font-family="Helvetica,sans-Serif" font-size="10.00">AngularCorrelationSelector.C</text>
</a>
</g>
</g>
<!-- Node2&#45;&gt;Node3 -->
<g id="edge2_Node000002_Node000003" class="edge">
<title>Node2&#45;&gt;Node3</title>
<g id="a_edge2_Node000002_Node000003"><a xlink:title=" ">
<path fill="none" stroke="#63b8ff" d="M70.87,-43.63C70.71,-35.34 70.54,-26.17 70.42,-19.61"/>
<polygon fill="#63b8ff" stroke="#63b8ff" points="67.37,-43.64 71.06,-53.57 74.37,-43.5 67.37,-43.64"/>
</a>
</g>
</g>
<!-- Node5 -->
<g id="Node000005" class="node">
<title>Node5</title>
<g id="a_Node000005"><a xlink:href="_cross_talk_8_c.html" target="_top" xlink:title=" ">
<polygon fill="white" stroke="#666666" points="227.88,-19.25 158.62,-19.25 158.62,0 227.88,0 227.88,-19.25"/>
<text text-anchor="middle" x="193.25" y="-5.75" font-family="Helvetica,sans-Serif" font-size="10.00">CrossTalk.C</text>
</a>
</g>
</g>
<!-- Node4&#45;&gt;Node5 -->
<g id="edge4_Node000004_Node000005" class="edge">
<title>Node4&#45;&gt;Node5</title>
<g id="a_edge4_Node000004_Node000005"><a xlink:title=" ">
<path fill="none" stroke="#63b8ff" d="M192.63,-43.63C192.79,-35.34 192.96,-26.17 193.08,-19.61"/>
<polygon fill="#63b8ff" stroke="#63b8ff" points="189.13,-43.5 192.44,-53.57 196.13,-43.64 189.13,-43.5"/>
</a>
</g>
</g>
<!-- Node8 -->
<g id="Node000008" class="node">
<title>Node8</title>
<g id="a_Node000008"><a xlink:href="_example_event_selector_8_c.html" target="_top" xlink:title=" ">
<polygon fill="white" stroke="#666666" points="453.5,-19.25 331,-19.25 331,0 453.5,0 453.5,-19.25"/>
<text text-anchor="middle" x="392.25" y="-5.75" font-family="Helvetica,sans-Serif" font-size="10.00">ExampleEventSelector.C</text>
</a>
</g>
</g>
<!-- Node7&#45;&gt;Node8 -->
<g id="edge7_Node000007_Node000008" class="edge">
<title>Node7&#45;&gt;Node8</title>
<g id="a_edge7_Node000007_Node000008"><a xlink:title=" ">
<path fill="none" stroke="#63b8ff" d="M394.73,-43.63C394.11,-35.34 393.42,-26.17 392.92,-19.61"/>
<polygon fill="#63b8ff" stroke="#63b8ff" points="391.24,-43.86 395.48,-53.57 398.22,-43.34 391.24,-43.86"/>
</a>
</g>
</g>
<!-- Node10 -->
<g id="Node000010" class="node">
<title>Node10</title>
<g id="a_Node000010"><a xlink:href="_example_tree_helper_8cxx.html" target="_top" xlink:title=" ">
<polygon fill="white" stroke="#666666" points="588.88,-19.25 471.62,-19.25 471.62,0 588.88,0 588.88,-19.25"/>
<text text-anchor="middle" x="530.25" y="-5.75" font-family="Helvetica,sans-Serif" font-size="10.00">ExampleTreeHelper.cxx</text>
</a>
</g>
</g>
<!-- Node9&#45;&gt;Node10 -->
<g id="edge9_Node000009_Node000010" class="edge">
<title>Node9&#45;&gt;Node10</title>
<g id="a_edge9_Node000009_Node000010"><a xlink:title=" ">
<path fill="none" stroke="#63b8ff" d="M530.87,-43.63C530.71,-35.34 530.54,-26.17 530.42,-19.61"/>
<polygon fill="#63b8ff" stroke="#63b8ff" points="527.37,-43.64 531.06,-53.57 534.37,-43.5 527.37,-43.64"/>
</a>
</g>
</g>
<!-- Node12 -->
<g id="Node000012" class="node">
<title>Node12</title>
<g id="a_Node000012"><a xlink:href="_example_tree_selector_8_c.html" target="_top" xlink:title=" ">
<polygon fill="white" stroke="#666666" points="723.88,-19.25 606.62,-19.25 606.62,0 723.88,0 723.88,-19.25"/>
<text text-anchor="middle" x="665.25" y="-5.75" font-family="Helvetica,sans-Serif" font-size="10.00">ExampleTreeSelector.C</text>
</a>
</g>
</g>
<!-- Node11&#45;&gt;Node12 -->
<g id="edge11_Node000011_Node000012" class="edge">
<title>Node11&#45;&gt;Node12</title>
<g id="a_edge11_Node000011_Node000012"><a xlink:title=" ">
<path fill="none" stroke="#63b8ff" d="M664.63,-43.63C664.79,-35.34 664.96,-26.17 665.08,-19.61"/>
<polygon fill="#63b8ff" stroke="#63b8ff" points="661.13,-43.5 664.44,-53.57 668.13,-43.64 661.13,-43.5"/>
</a>
</g>
</g>
<!-- Node14 -->
<g id="Node000014" class="node">
<title>Node14</title>
<g id="a_Node000014"><a xlink:href="_fast_timing_hist_selector_8_c.html" target="_top" xlink:title=" ">
<polygon fill="white" stroke="#666666" points="870.12,-19.25 742.38,-19.25 742.38,0 870.12,0 870.12,-19.25"/>
<text text-anchor="middle" x="806.25" y="-5.75" font-family="Helvetica,sans-Serif" font-size="10.00">FastTimingHistSelector.C</text>
</a>
</g>
</g>
<!-- Node13&#45;&gt;Node14 -->
<g id="edge13_Node000013_Node000014" class="edge">
<title>Node13&#45;&gt;Node14</title>
<g id="a_edge13_Node000013_Node000014"><a xlink:title=" ">
<path fill="none" stroke="#63b8ff" d="M804.39,-43.63C804.86,-35.34 805.37,-26.17 805.74,-19.61"/>
<polygon fill="#63b8ff" stroke="#63b8ff" points="800.9,-43.39 803.83,-53.57 807.89,-43.78 800.9,-43.39"/>
</a>
</g>
</g>
<!-- Node21 -->
<g id="Node000021" class="node">
<title>Node21</title>
<g id="a_Node000021"><a xlink:href="_test_helper_8cxx.html" target="_top" xlink:title=" ">
<polygon fill="white" stroke="#666666" points="1544.5,-19.25 1464,-19.25 1464,0 1544.5,0 1544.5,-19.25"/>
<text text-anchor="middle" x="1504.25" y="-5.75" font-family="Helvetica,sans-Serif" font-size="10.00">TestHelper.cxx</text>
</a>
</g>
</g>
<!-- Node20&#45;&gt;Node21 -->
<g id="edge20_Node000020_Node000021" class="edge">
<title>Node20&#45;&gt;Node21</title>
<g id="a_edge20_Node000020_Node000021"><a xlink:title=" ">
<path fill="none" stroke="#63b8ff" d="M1506.73,-43.63C1506.11,-35.34 1505.42,-26.17 1504.92,-19.61"/>
<polygon fill="#63b8ff" stroke="#63b8ff" points="1503.24,-43.86 1507.48,-53.57 1510.22,-43.34 1503.24,-43.86"/>
</a>
</g>
</g>
<!-- Node23 -->
<g id="Node000023" class="node">
<title>Node23</title>
<g id="a_Node000023"><a xlink:href="_time_walk_helper_8cxx.html" target="_top" xlink:title=" ">
<polygon fill="white" stroke="#666666" points="1667.5,-19.25 1563,-19.25 1563,0 1667.5,0 1667.5,-19.25"/>
<text text-anchor="middle" x="1615.25" y="-5.75" font-family="Helvetica,sans-Serif" font-size="10.00">TimeWalkHelper.cxx</text>
</a>
</g>
</g>
<!-- Node22&#45;&gt;Node23 -->
<g id="edge22_Node000022_Node000023" class="edge">
<title>Node22&#45;&gt;Node23</title>
<g id="a_edge22_Node000022_Node000023"><a xlink:title=" ">
<path fill="none" stroke="#63b8ff" d="M1615.25,-43.63C1615.25,-35.34 1615.25,-26.17 1615.25,-19.61"/>
<polygon fill="#63b8ff" stroke="#63b8ff" points="1611.75,-43.57 1615.25,-53.57 1618.75,-43.57 1611.75,-43.57"/>
</a>
</g>
</g>
<!-- Node25 -->
<g id="Node000025" class="node">
<title>Node25</title>
<g id="a_Node000025"><a xlink:href="_time_walk_selector_8_c.html" target="_top" xlink:title=" ">
<polygon fill="white" stroke="#666666" points="1790.5,-19.25 1686,-19.25 1686,0 1790.5,0 1790.5,-19.25"/>
<text text-anchor="middle" x="1738.25" y="-5.75" font-family="Helvetica,sans-Serif" font-size="10.00">TimeWalkSelector.C</text>
</a>
</g>
</g>
<!-- Node24&#45;&gt;Node25 -->
<g id="edge24_Node000024_Node000025" class="edge">
<title>Node24&#45;&gt;Node25</title>
<g id="a_edge24_Node000024_Node000025"><a xlink:title=" ">
<path fill="none" stroke="#63b8ff" d="M1736.39,-43.63C1736.86,-35.34 1737.37,-26.17 1737.74,-19.61"/>
<polygon fill="#63b8ff" stroke="#63b8ff" points="1732.9,-43.39 1735.83,-53.57 1739.89,-43.78 1732.9,-43.39"/>
</a>
</g>
</g>
</g>
</svg>
