<?xml version="1.0" encoding="UTF-8" standalone="no"?>
<!DOCTYPE svg PUBLIC "-//W3C//DTD SVG 1.1//EN"
 "http://www.w3.org/Graphics/SVG/1.1/DTD/svg11.dtd">
<!-- Generated by graphviz version 9.0.0 (20230911.1827)
 -->
<!-- Title: TSortingDiagnostics.h Pages: 1 -->
<svg width="621pt" height="83pt"
 viewBox="0.00 0.00 620.50 83.15" xmlns="http://www.w3.org/2000/svg" xmlns:xlink="http://www.w3.org/1999/xlink">
<g id="graph0" class="graph" transform="scale(1 1) rotate(0) translate(4 79.15)">
<title>TSortingDiagnostics.h</title>
<!-- Node1 -->
<g id="Node000001" class="node">
<title>Node1</title>
<g id="a_Node000001"><a xlink:title=" ">
<polygon fill="#999999" stroke="#666666" points="367.38,-74.5 256.12,-74.5 256.12,-55.25 367.38,-55.25 367.38,-74.5"/>
<text text-anchor="middle" x="311.75" y="-61" font-family="Helvetica,sans-Serif" font-size="10.00">TSortingDiagnostics.h</text>
</a>
</g>
</g>
<!-- Node1&#45;&gt;Node1 -->
<g id="edge5_Node000001_Node000001" class="edge">
<title>Node1&#45;&gt;Node1</title>
<g id="a_edge5_Node000001_Node000001"><a xlink:title=" ">
<path fill="none" stroke="#63b8ff" d="M361.72,-75.15C375.16,-74.6 385.38,-71.18 385.38,-64.88 385.38,-56.89 368.97,-53.52 350.39,-54.77"/>
<polygon fill="#63b8ff" stroke="#63b8ff" points="361.95,-71.66 351.9,-75 361.84,-78.66 361.95,-71.66"/>
</a>
</g>
</g>
<!-- Node2 -->
<g id="Node000002" class="node">
<title>Node2</title>
<g id="a_Node000002"><a xlink:href="_t_analysis_write_loop_8cxx.html" target="_top" xlink:title=" ">
<polygon fill="white" stroke="#666666" points="119.5,-19.25 0,-19.25 0,0 119.5,0 119.5,-19.25"/>
<text text-anchor="middle" x="59.75" y="-5.75" font-family="Helvetica,sans-Serif" font-size="10.00">TAnalysisWriteLoop.cxx</text>
</a>
</g>
</g>
<!-- Node1&#45;&gt;Node2 -->
<g id="edge1_Node000001_Node000002" class="edge">
<title>Node1&#45;&gt;Node2</title>
<g id="a_edge1_Node000001_Node000002"><a xlink:title=" ">
<path fill="none" stroke="#63b8ff" d="M257.67,-52.45C211.3,-42.65 145.4,-28.72 102.61,-19.68"/>
<polygon fill="#63b8ff" stroke="#63b8ff" points="256.73,-55.83 267.24,-54.47 258.17,-48.98 256.73,-55.83"/>
</a>
</g>
</g>
<!-- Node3 -->
<g id="Node000003" class="node">
<title>Node3</title>
<g id="a_Node000003"><a xlink:href="_t_event_building_loop_8cxx.html" target="_top" xlink:title=" ">
<polygon fill="white" stroke="#666666" points="257.5,-19.25 138,-19.25 138,0 257.5,0 257.5,-19.25"/>
<text text-anchor="middle" x="197.75" y="-5.75" font-family="Helvetica,sans-Serif" font-size="10.00">TEventBuildingLoop.cxx</text>
</a>
</g>
</g>
<!-- Node1&#45;&gt;Node3 -->
<g id="edge2_Node000001_Node000003" class="edge">
<title>Node1&#45;&gt;Node3</title>
<g id="a_edge2_Node000001_Node000003"><a xlink:title=" ">
<path fill="none" stroke="#63b8ff" d="M282.06,-50.01C261.6,-40.45 234.98,-28.02 217.18,-19.7"/>
<polygon fill="#63b8ff" stroke="#63b8ff" points="280.5,-53.14 291.04,-54.2 283.46,-46.8 280.5,-53.14"/>
</a>
</g>
</g>
<!-- Node4 -->
<g id="Node000004" class="node">
<title>Node4</title>
<g id="a_Node000004"><a xlink:href="_t_g_r_s_iint_8cxx.html" target="_top" xlink:title=" ">
<polygon fill="white" stroke="#666666" points="348.25,-19.25 275.25,-19.25 275.25,0 348.25,0 348.25,-19.25"/>
<text text-anchor="middle" x="311.75" y="-5.75" font-family="Helvetica,sans-Serif" font-size="10.00">TGRSIint.cxx</text>
</a>
</g>
</g>
<!-- Node1&#45;&gt;Node4 -->
<g id="edge3_Node000001_Node000004" class="edge">
<title>Node1&#45;&gt;Node4</title>
<g id="a_edge3_Node000001_Node000004"><a xlink:title=" ">
<path fill="none" stroke="#63b8ff" d="M311.75,-43.63C311.75,-35.34 311.75,-26.17 311.75,-19.61"/>
<polygon fill="#63b8ff" stroke="#63b8ff" points="308.25,-43.57 311.75,-53.57 315.25,-43.57 308.25,-43.57"/>
</a>
</g>
</g>
<!-- Node5 -->
<g id="Node000005" class="node">
<title>Node5</title>
<g id="a_Node000005"><a xlink:href="_t_sorting_diagnostics_8cxx.html" target="_top" xlink:title=" ">
<polygon fill="white" stroke="#666666" points="486.88,-19.25 366.62,-19.25 366.62,0 486.88,0 486.88,-19.25"/>
<text text-anchor="middle" x="426.75" y="-5.75" font-family="Helvetica,sans-Serif" font-size="10.00">TSortingDiagnostics.cxx</text>
</a>
</g>
</g>
<!-- Node1&#45;&gt;Node5 -->
<g id="edge4_Node000001_Node000005" class="edge">
<title>Node1&#45;&gt;Node5</title>
<g id="a_edge4_Node000001_Node000005"><a xlink:title=" ">
<path fill="none" stroke="#63b8ff" d="M341.7,-50.01C362.34,-40.45 389.19,-28.02 407.15,-19.7"/>
<polygon fill="#63b8ff" stroke="#63b8ff" points="340.24,-46.83 332.63,-54.21 343.18,-53.18 340.24,-46.83"/>
</a>
</g>
</g>
<!-- Node6 -->
<g id="Node000006" class="node">
<title>Node6</title>
<g id="a_Node000006"><a xlink:href="_t_unpacked_event_8cxx.html" target="_top" xlink:title=" ">
<polygon fill="white" stroke="#666666" points="612.5,-19.25 505,-19.25 505,0 612.5,0 612.5,-19.25"/>
<text text-anchor="middle" x="558.75" y="-5.75" font-family="Helvetica,sans-Serif" font-size="10.00">TUnpackedEvent.cxx</text>
</a>
</g>
</g>
<!-- Node1&#45;&gt;Node6 -->
<g id="edge6_Node000001_Node000006" class="edge">
<title>Node1&#45;&gt;Node6</title>
<g id="a_edge6_Node000001_Node000006"><a xlink:title=" ">
<path fill="none" stroke="#63b8ff" d="M365.05,-52.38C410.48,-42.59 474.89,-28.7 516.74,-19.68"/>
<polygon fill="#63b8ff" stroke="#63b8ff" points="364.45,-48.93 355.41,-54.46 365.92,-55.78 364.45,-48.93"/>
</a>
</g>
</g>
</g>
</svg>
