<?xml version="1.0" encoding="UTF-8" standalone="no"?>
<!DOCTYPE svg PUBLIC "-//W3C//DTD SVG 1.1//EN"
 "http://www.w3.org/Graphics/SVG/1.1/DTD/svg11.dtd">
<!-- Generated by graphviz version 9.0.0 (20230911.1827)
 -->
<!-- Title: TSceptarHit.h Pages: 1 -->
<svg width="1993pt" height="193pt"
 viewBox="0.00 0.00 1992.75 193.00" xmlns="http://www.w3.org/2000/svg" xmlns:xlink="http://www.w3.org/1999/xlink">
<g id="graph0" class="graph" transform="scale(1 1) rotate(0) translate(4 189)">
<title>TSceptarHit.h</title>
<!-- Node1 -->
<g id="Node000001" class="node">
<title>Node1</title>
<g id="a_Node000001"><a xlink:title=" ">
<polygon fill="#999999" stroke="#666666" points="1203.25,-185 1127.25,-185 1127.25,-165.75 1203.25,-165.75 1203.25,-185"/>
<text text-anchor="middle" x="1165.25" y="-171.5" font-family="Helvetica,sans-Serif" font-size="10.00">TSceptarHit.h</text>
</a>
</g>
</g>
<!-- Node2 -->
<g id="Node000002" class="node">
<title>Node2</title>
<g id="a_Node000002"><a xlink:href="_t_sceptar_8h.html" target="_top" xlink:title=" ">
<polygon fill="white" stroke="#666666" points="1166.88,-129.75 1103.62,-129.75 1103.62,-110.5 1166.88,-110.5 1166.88,-129.75"/>
<text text-anchor="middle" x="1135.25" y="-116.25" font-family="Helvetica,sans-Serif" font-size="10.00">TSceptar.h</text>
</a>
</g>
</g>
<!-- Node1&#45;&gt;Node2 -->
<g id="edge1_Node000001_Node000002" class="edge">
<title>Node1&#45;&gt;Node2</title>
<g id="a_edge1_Node000001_Node000002"><a xlink:title=" ">
<path fill="none" stroke="#63b8ff" d="M1154.66,-155.58C1149.78,-146.92 1144.23,-137.06 1140.31,-130.11"/>
<polygon fill="#63b8ff" stroke="#63b8ff" points="1151.6,-157.27 1159.55,-164.26 1157.69,-153.83 1151.6,-157.27"/>
</a>
</g>
</g>
<!-- Node20 -->
<g id="Node000020" class="node">
<title>Node20</title>
<g id="a_Node000020"><a xlink:href="_t_sceptar_hit_8cxx.html" target="_top" xlink:title=" ">
<polygon fill="white" stroke="#666666" points="1984.75,-74.5 1899.75,-74.5 1899.75,-55.25 1984.75,-55.25 1984.75,-74.5"/>
<text text-anchor="middle" x="1942.25" y="-61" font-family="Helvetica,sans-Serif" font-size="10.00">TSceptarHit.cxx</text>
</a>
</g>
</g>
<!-- Node1&#45;&gt;Node20 -->
<g id="edge28_Node000001_Node000020" class="edge">
<title>Node1&#45;&gt;Node20</title>
<g id="a_edge28_Node000001_Node000020"><a xlink:title=" ">
<path fill="none" stroke="#63b8ff" d="M1214.58,-168.12C1331.99,-153.12 1637.19,-113.45 1891.25,-74.5 1893.91,-74.09 1896.65,-73.66 1899.41,-73.22"/>
<polygon fill="#63b8ff" stroke="#63b8ff" points="1214.47,-164.61 1204.99,-169.35 1215.35,-171.55 1214.47,-164.61"/>
</a>
</g>
</g>
<!-- Node3 -->
<g id="Node000003" class="node">
<title>Node3</title>
<g id="a_Node000003"><a xlink:href="_angular_correlation_selector_8h.html" target="_top" xlink:title=" ">
<polygon fill="white" stroke="#666666" points="140.75,-74.5 1.75,-74.5 1.75,-55.25 140.75,-55.25 140.75,-74.5"/>
<text text-anchor="middle" x="71.25" y="-61" font-family="Helvetica,sans-Serif" font-size="10.00">AngularCorrelationSelector.h</text>
</a>
</g>
</g>
<!-- Node2&#45;&gt;Node3 -->
<g id="edge2_Node000002_Node000003" class="edge">
<title>Node2&#45;&gt;Node3</title>
<g id="a_edge2_Node000002_Node000003"><a xlink:title=" ">
<path fill="none" stroke="#63b8ff" d="M1092.02,-118.17C954.25,-114.91 513.21,-102.83 149.25,-74.5 146.53,-74.29 143.77,-74.06 140.97,-73.81"/>
<polygon fill="#63b8ff" stroke="#63b8ff" points="1091.69,-121.66 1101.77,-118.4 1091.85,-114.67 1091.69,-121.66"/>
</a>
</g>
</g>
<!-- Node5 -->
<g id="Node000005" class="node">
<title>Node5</title>
<g id="a_Node000005"><a xlink:href="_cross_talk_8h.html" target="_top" xlink:title=" ">
<polygon fill="white" stroke="#666666" points="226.12,-74.5 158.38,-74.5 158.38,-55.25 226.12,-55.25 226.12,-74.5"/>
<text text-anchor="middle" x="192.25" y="-61" font-family="Helvetica,sans-Serif" font-size="10.00">CrossTalk.h</text>
</a>
</g>
</g>
<!-- Node2&#45;&gt;Node5 -->
<g id="edge4_Node000002_Node000005" class="edge">
<title>Node2&#45;&gt;Node5</title>
<g id="a_edge4_Node000002_Node000005"><a xlink:title=" ">
<path fill="none" stroke="#63b8ff" d="M1091.81,-119.25C961.49,-119.14 562.69,-115.23 235.25,-74.5 232.38,-74.14 229.41,-73.7 226.44,-73.21"/>
<polygon fill="#63b8ff" stroke="#63b8ff" points="1091.7,-122.75 1101.7,-119.25 1091.7,-115.75 1091.7,-122.75"/>
</a>
</g>
</g>
<!-- Node7 -->
<g id="Node000007" class="node">
<title>Node7</title>
<g id="a_Node000007"><a xlink:href="_deadtime_8cxx.html" target="_top" xlink:title=" ">
<polygon fill="white" stroke="#666666" points="318.12,-74.5 244.38,-74.5 244.38,-55.25 318.12,-55.25 318.12,-74.5"/>
<text text-anchor="middle" x="281.25" y="-61" font-family="Helvetica,sans-Serif" font-size="10.00">Deadtime.cxx</text>
</a>
</g>
</g>
<!-- Node2&#45;&gt;Node7 -->
<g id="edge6_Node000002_Node000007" class="edge">
<title>Node2&#45;&gt;Node7</title>
<g id="a_edge6_Node000002_Node000007"><a xlink:title=" ">
<path fill="none" stroke="#63b8ff" d="M1092.19,-118.78C971.1,-117.38 617.42,-110.27 326.25,-74.5 323.72,-74.19 321.13,-73.82 318.51,-73.42"/>
<polygon fill="#63b8ff" stroke="#63b8ff" points="1091.95,-122.28 1101.99,-118.89 1092.03,-115.28 1091.95,-122.28"/>
</a>
</g>
</g>
<!-- Node8 -->
<g id="Node000008" class="node">
<title>Node8</title>
<g id="a_Node000008"><a xlink:href="_example_event_selector_8h.html" target="_top" xlink:title=" ">
<polygon fill="white" stroke="#666666" points="456.75,-74.5 335.75,-74.5 335.75,-55.25 456.75,-55.25 456.75,-74.5"/>
<text text-anchor="middle" x="396.25" y="-61" font-family="Helvetica,sans-Serif" font-size="10.00">ExampleEventSelector.h</text>
</a>
</g>
</g>
<!-- Node2&#45;&gt;Node8 -->
<g id="edge7_Node000002_Node000008" class="edge">
<title>Node2&#45;&gt;Node8</title>
<g id="a_edge7_Node000002_Node000008"><a xlink:title=" ">
<path fill="none" stroke="#63b8ff" d="M1092.25,-117.13C985.81,-111.99 701.54,-97.12 465.25,-74.5 462.61,-74.25 459.91,-73.97 457.18,-73.69"/>
<polygon fill="#63b8ff" stroke="#63b8ff" points="1091.79,-120.61 1101.95,-117.59 1092.13,-113.62 1091.79,-120.61"/>
</a>
</g>
</g>
<!-- Node10 -->
<g id="Node000010" class="node">
<title>Node10</title>
<g id="a_Node000010"><a xlink:href="_example_tree_helper_8hh.html" target="_top" xlink:title=" ">
<polygon fill="white" stroke="#666666" points="588,-74.5 474.5,-74.5 474.5,-55.25 588,-55.25 588,-74.5"/>
<text text-anchor="middle" x="531.25" y="-61" font-family="Helvetica,sans-Serif" font-size="10.00">ExampleTreeHelper.hh</text>
</a>
</g>
</g>
<!-- Node2&#45;&gt;Node10 -->
<g id="edge9_Node000002_Node000010" class="edge">
<title>Node2&#45;&gt;Node10</title>
<g id="a_edge9_Node000002_Node000010"><a xlink:title=" ">
<path fill="none" stroke="#63b8ff" d="M1092.1,-116.24C1000.71,-109.98 780.94,-94.11 597.25,-74.5 594.38,-74.19 591.44,-73.86 588.47,-73.52"/>
<polygon fill="#63b8ff" stroke="#63b8ff" points="1091.64,-119.72 1101.85,-116.9 1092.12,-112.73 1091.64,-119.72"/>
</a>
</g>
</g>
<!-- Node12 -->
<g id="Node000012" class="node">
<title>Node12</title>
<g id="a_Node000012"><a xlink:href="_example_tree_selector_8h.html" target="_top" xlink:title=" ">
<polygon fill="white" stroke="#666666" points="722.12,-74.5 606.38,-74.5 606.38,-55.25 722.12,-55.25 722.12,-74.5"/>
<text text-anchor="middle" x="664.25" y="-61" font-family="Helvetica,sans-Serif" font-size="10.00">ExampleTreeSelector.h</text>
</a>
</g>
</g>
<!-- Node2&#45;&gt;Node12 -->
<g id="edge11_Node000002_Node000012" class="edge">
<title>Node2&#45;&gt;Node12</title>
<g id="a_edge11_Node000002_Node000012"><a xlink:title=" ">
<path fill="none" stroke="#63b8ff" d="M1092.14,-114.62C1018.23,-106.84 862.6,-90.21 731.25,-74.5 728.34,-74.15 725.36,-73.79 722.35,-73.42"/>
<polygon fill="#63b8ff" stroke="#63b8ff" points="1091.46,-118.07 1101.78,-115.63 1092.2,-111.11 1091.46,-118.07"/>
</a>
</g>
</g>
<!-- Node14 -->
<g id="Node000014" class="node">
<title>Node14</title>
<g id="a_Node000014"><a xlink:href="_fast_timing_hist_selector_8h.html" target="_top" xlink:title=" ">
<polygon fill="white" stroke="#666666" points="866.38,-74.5 740.12,-74.5 740.12,-55.25 866.38,-55.25 866.38,-74.5"/>
<text text-anchor="middle" x="803.25" y="-61" font-family="Helvetica,sans-Serif" font-size="10.00">FastTimingHistSelector.h</text>
</a>
</g>
</g>
<!-- Node2&#45;&gt;Node14 -->
<g id="edge13_Node000002_Node000014" class="edge">
<title>Node2&#45;&gt;Node14</title>
<g id="a_edge13_Node000002_Node000014"><a xlink:title=" ">
<path fill="none" stroke="#63b8ff" d="M1092.21,-112.22C1032.89,-102.71 925.87,-85.54 860.04,-74.98"/>
<polygon fill="#63b8ff" stroke="#63b8ff" points="1091.49,-115.65 1101.92,-113.78 1092.6,-108.74 1091.49,-115.65"/>
</a>
</g>
</g>
<!-- Node16 -->
<g id="Node000016" class="node">
<title>Node16</title>
<g id="a_Node000016"><a xlink:href="_get_tree_entries_8cxx.html" target="_top" xlink:title=" ">
<polygon fill="white" stroke="#666666" points="982.12,-74.5 884.38,-74.5 884.38,-55.25 982.12,-55.25 982.12,-74.5"/>
<text text-anchor="middle" x="933.25" y="-61" font-family="Helvetica,sans-Serif" font-size="10.00">GetTreeEntries.cxx</text>
</a>
</g>
</g>
<!-- Node2&#45;&gt;Node16 -->
<g id="edge15_Node000002_Node000016" class="edge">
<title>Node2&#45;&gt;Node16</title>
<g id="a_edge15_Node000002_Node000016"><a xlink:title=" ">
<path fill="none" stroke="#63b8ff" d="M1092.27,-107.8C1055.16,-98.01 1002.24,-84.06 967.81,-74.99"/>
<polygon fill="#63b8ff" stroke="#63b8ff" points="1091.22,-111.14 1101.78,-110.3 1093,-104.37 1091.22,-111.14"/>
</a>
</g>
</g>
<!-- Node17 -->
<g id="Node000017" class="node">
<title>Node17</title>
<g id="a_Node000017"><a xlink:href="_make_griffin_histograms_8cxx.html" target="_top" xlink:title=" ">
<polygon fill="white" stroke="#666666" points="1132,-74.5 1000.5,-74.5 1000.5,-55.25 1132,-55.25 1132,-74.5"/>
<text text-anchor="middle" x="1066.25" y="-61" font-family="Helvetica,sans-Serif" font-size="10.00">MakeGriffinHistograms.cxx</text>
</a>
</g>
</g>
<!-- Node2&#45;&gt;Node17 -->
<g id="edge16_Node000002_Node000017" class="edge">
<title>Node2&#45;&gt;Node17</title>
<g id="a_edge16_Node000002_Node000017"><a xlink:title=" ">
<path fill="none" stroke="#63b8ff" d="M1114.6,-103.19C1102.55,-93.89 1087.8,-82.51 1077.78,-74.77"/>
<polygon fill="#63b8ff" stroke="#63b8ff" points="1112.29,-105.83 1122.35,-109.17 1116.57,-100.29 1112.29,-105.83"/>
</a>
</g>
</g>
<!-- Node18 -->
<g id="Node000018" class="node">
<title>Node18</title>
<g id="a_Node000018"><a xlink:href="_t_g_r_s_i_mnemonic_8cxx.html" target="_top" xlink:title=" ">
<polygon fill="white" stroke="#666666" points="1258,-74.5 1150.5,-74.5 1150.5,-55.25 1258,-55.25 1258,-74.5"/>
<text text-anchor="middle" x="1204.25" y="-61" font-family="Helvetica,sans-Serif" font-size="10.00">TGRSIMnemonic.cxx</text>
</a>
</g>
</g>
<!-- Node2&#45;&gt;Node18 -->
<g id="edge17_Node000002_Node000018" class="edge">
<title>Node2&#45;&gt;Node18</title>
<g id="a_edge17_Node000002_Node000018"><a xlink:title=" ">
<path fill="none" stroke="#63b8ff" d="M1155.9,-103.19C1167.95,-93.89 1182.7,-82.51 1192.72,-74.77"/>
<polygon fill="#63b8ff" stroke="#63b8ff" points="1153.93,-100.29 1148.15,-109.17 1158.21,-105.83 1153.93,-100.29"/>
</a>
</g>
</g>
<!-- Node19 -->
<g id="Node000019" class="node">
<title>Node19</title>
<g id="a_Node000019"><a xlink:href="_t_sceptar_8cxx.html" target="_top" xlink:title=" ">
<polygon fill="white" stroke="#666666" points="1348.38,-74.5 1276.12,-74.5 1276.12,-55.25 1348.38,-55.25 1348.38,-74.5"/>
<text text-anchor="middle" x="1312.25" y="-61" font-family="Helvetica,sans-Serif" font-size="10.00">TSceptar.cxx</text>
</a>
</g>
</g>
<!-- Node2&#45;&gt;Node19 -->
<g id="edge18_Node000002_Node000019" class="edge">
<title>Node2&#45;&gt;Node19</title>
<g id="a_edge18_Node000002_Node000019"><a xlink:title=" ">
<path fill="none" stroke="#63b8ff" d="M1176.17,-106.82C1208.51,-97.09 1252.91,-83.73 1282.08,-74.95"/>
<polygon fill="#63b8ff" stroke="#63b8ff" points="1175.29,-103.42 1166.73,-109.66 1177.31,-110.13 1175.29,-103.42"/>
</a>
</g>
</g>
<!-- Node2&#45;&gt;Node20 -->
<g id="edge19_Node000002_Node000020" class="edge">
<title>Node2&#45;&gt;Node20</title>
<g id="a_edge19_Node000002_Node000020"><a xlink:title=" ">
<path fill="none" stroke="#63b8ff" d="M1178.54,-118.21C1294.43,-115.42 1621.24,-105.21 1891.25,-74.5 1893.93,-74.2 1896.68,-73.84 1899.45,-73.46"/>
<polygon fill="#63b8ff" stroke="#63b8ff" points="1178.47,-114.71 1168.56,-118.45 1178.64,-121.71 1178.47,-114.71"/>
</a>
</g>
</g>
<!-- Node21 -->
<g id="Node000021" class="node">
<title>Node21</title>
<g id="a_Node000021"><a xlink:href="_test_helper_8hh.html" target="_top" xlink:title=" ">
<polygon fill="white" stroke="#666666" points="1443.62,-74.5 1366.88,-74.5 1366.88,-55.25 1443.62,-55.25 1443.62,-74.5"/>
<text text-anchor="middle" x="1405.25" y="-61" font-family="Helvetica,sans-Serif" font-size="10.00">TestHelper.hh</text>
</a>
</g>
</g>
<!-- Node2&#45;&gt;Node21 -->
<g id="edge20_Node000002_Node000021" class="edge">
<title>Node2&#45;&gt;Node21</title>
<g id="a_edge20_Node000002_Node000021"><a xlink:title=" ">
<path fill="none" stroke="#63b8ff" d="M1178.46,-110.6C1230.44,-100.35 1316.94,-83.29 1366.74,-73.47"/>
<polygon fill="#63b8ff" stroke="#63b8ff" points="1177.9,-107.15 1168.77,-112.51 1179.26,-114.01 1177.9,-107.15"/>
</a>
</g>
</g>
<!-- Node23 -->
<g id="Node000023" class="node">
<title>Node23</title>
<g id="a_Node000023"><a xlink:href="_time_walk_helper_8hh.html" target="_top" xlink:title=" ">
<polygon fill="white" stroke="#666666" points="1562.62,-74.5 1461.88,-74.5 1461.88,-55.25 1562.62,-55.25 1562.62,-74.5"/>
<text text-anchor="middle" x="1512.25" y="-61" font-family="Helvetica,sans-Serif" font-size="10.00">TimeWalkHelper.hh</text>
</a>
</g>
</g>
<!-- Node2&#45;&gt;Node23 -->
<g id="edge22_Node000002_Node000023" class="edge">
<title>Node2&#45;&gt;Node23</title>
<g id="a_edge22_Node000002_Node000023"><a xlink:title=" ">
<path fill="none" stroke="#63b8ff" d="M1178.3,-113.11C1239.28,-104.57 1354.29,-88.44 1452.25,-74.5 1455.27,-74.07 1458.38,-73.63 1461.51,-73.18"/>
<polygon fill="#63b8ff" stroke="#63b8ff" points="1178.12,-109.6 1168.7,-114.45 1179.09,-116.53 1178.12,-109.6"/>
</a>
</g>
</g>
<!-- Node25 -->
<g id="Node000025" class="node">
<title>Node25</title>
<g id="a_Node000025"><a xlink:href="_time_walk_selector_8h.html" target="_top" xlink:title=" ">
<polygon fill="white" stroke="#666666" points="1683.75,-74.5 1580.75,-74.5 1580.75,-55.25 1683.75,-55.25 1683.75,-74.5"/>
<text text-anchor="middle" x="1632.25" y="-61" font-family="Helvetica,sans-Serif" font-size="10.00">TimeWalkSelector.h</text>
</a>
</g>
</g>
<!-- Node2&#45;&gt;Node25 -->
<g id="edge24_Node000002_Node000025" class="edge">
<title>Node2&#45;&gt;Node25</title>
<g id="a_edge24_Node000002_Node000025"><a xlink:title=" ">
<path fill="none" stroke="#63b8ff" d="M1178.63,-115.24C1257.09,-108.1 1427.74,-91.98 1571.25,-74.5 1574.22,-74.14 1577.28,-73.75 1580.35,-73.35"/>
<polygon fill="#63b8ff" stroke="#63b8ff" points="1178.45,-111.74 1168.8,-116.13 1179.08,-118.72 1178.45,-111.74"/>
</a>
</g>
</g>
<!-- Node27 -->
<g id="Node000027" class="node">
<title>Node27</title>
<g id="a_Node000027"><a xlink:href="tac__calibrator_8cxx.html" target="_top" xlink:title=" ">
<polygon fill="white" stroke="#666666" points="1792.75,-74.5 1701.75,-74.5 1701.75,-55.25 1792.75,-55.25 1792.75,-74.5"/>
<text text-anchor="middle" x="1747.25" y="-61" font-family="Helvetica,sans-Serif" font-size="10.00">tac_calibrator.cxx</text>
</a>
</g>
</g>
<!-- Node2&#45;&gt;Node27 -->
<g id="edge26_Node000002_Node000027" class="edge">
<title>Node2&#45;&gt;Node27</title>
<g id="a_edge26_Node000002_Node000027"><a xlink:title=" ">
<path fill="none" stroke="#63b8ff" d="M1178.39,-116.83C1272.25,-111.59 1501.93,-97.39 1693.25,-74.5 1695.89,-74.18 1698.6,-73.83 1701.33,-73.46"/>
<polygon fill="#63b8ff" stroke="#63b8ff" points="1178.41,-113.33 1168.62,-117.37 1178.8,-120.32 1178.41,-113.33"/>
</a>
</g>
</g>
<!-- Node28 -->
<g id="Node000028" class="node">
<title>Node28</title>
<g id="a_Node000028"><a xlink:href="write__cal_8cxx.html" target="_top" xlink:title=" ">
<polygon fill="white" stroke="#666666" points="1882,-74.5 1810.5,-74.5 1810.5,-55.25 1882,-55.25 1882,-74.5"/>
<text text-anchor="middle" x="1846.25" y="-61" font-family="Helvetica,sans-Serif" font-size="10.00">write_cal.cxx</text>
</a>
</g>
</g>
<!-- Node2&#45;&gt;Node28 -->
<g id="edge27_Node000002_Node000028" class="edge">
<title>Node2&#45;&gt;Node28</title>
<g id="a_edge27_Node000002_Node000028"><a xlink:title=" ">
<path fill="none" stroke="#63b8ff" d="M1178.55,-118.13C1285.07,-115.26 1568.21,-105.14 1802.25,-74.5 1804.87,-74.16 1807.58,-73.75 1810.29,-73.31"/>
<polygon fill="#63b8ff" stroke="#63b8ff" points="1178.74,-114.62 1168.84,-118.38 1178.93,-121.62 1178.74,-114.62"/>
</a>
</g>
</g>
<!-- Node4 -->
<g id="Node000004" class="node">
<title>Node4</title>
<g id="a_Node000004"><a xlink:href="_angular_correlation_selector_8_c.html" target="_top" xlink:title=" ">
<polygon fill="white" stroke="#666666" points="140.5,-19.25 0,-19.25 0,0 140.5,0 140.5,-19.25"/>
<text text-anchor="middle" x="70.25" y="-5.75" font-family="Helvetica,sans-Serif" font-size="10.00">AngularCorrelationSelector.C</text>
</a>
</g>
</g>
<!-- Node3&#45;&gt;Node4 -->
<g id="edge3_Node000003_Node000004" class="edge">
<title>Node3&#45;&gt;Node4</title>
<g id="a_edge3_Node000003_Node000004"><a xlink:title=" ">
<path fill="none" stroke="#63b8ff" d="M70.87,-43.63C70.71,-35.34 70.54,-26.17 70.42,-19.61"/>
<polygon fill="#63b8ff" stroke="#63b8ff" points="67.37,-43.64 71.06,-53.57 74.37,-43.5 67.37,-43.64"/>
</a>
</g>
</g>
<!-- Node6 -->
<g id="Node000006" class="node">
<title>Node6</title>
<g id="a_Node000006"><a xlink:href="_cross_talk_8_c.html" target="_top" xlink:title=" ">
<polygon fill="white" stroke="#666666" points="227.88,-19.25 158.62,-19.25 158.62,0 227.88,0 227.88,-19.25"/>
<text text-anchor="middle" x="193.25" y="-5.75" font-family="Helvetica,sans-Serif" font-size="10.00">CrossTalk.C</text>
</a>
</g>
</g>
<!-- Node5&#45;&gt;Node6 -->
<g id="edge5_Node000005_Node000006" class="edge">
<title>Node5&#45;&gt;Node6</title>
<g id="a_edge5_Node000005_Node000006"><a xlink:title=" ">
<path fill="none" stroke="#63b8ff" d="M192.63,-43.63C192.79,-35.34 192.96,-26.17 193.08,-19.61"/>
<polygon fill="#63b8ff" stroke="#63b8ff" points="189.13,-43.5 192.44,-53.57 196.13,-43.64 189.13,-43.5"/>
</a>
</g>
</g>
<!-- Node9 -->
<g id="Node000009" class="node">
<title>Node9</title>
<g id="a_Node000009"><a xlink:href="_example_event_selector_8_c.html" target="_top" xlink:title=" ">
<polygon fill="white" stroke="#666666" points="453.5,-19.25 331,-19.25 331,0 453.5,0 453.5,-19.25"/>
<text text-anchor="middle" x="392.25" y="-5.75" font-family="Helvetica,sans-Serif" font-size="10.00">ExampleEventSelector.C</text>
</a>
</g>
</g>
<!-- Node8&#45;&gt;Node9 -->
<g id="edge8_Node000008_Node000009" class="edge">
<title>Node8&#45;&gt;Node9</title>
<g id="a_edge8_Node000008_Node000009"><a xlink:title=" ">
<path fill="none" stroke="#63b8ff" d="M394.73,-43.63C394.11,-35.34 393.42,-26.17 392.92,-19.61"/>
<polygon fill="#63b8ff" stroke="#63b8ff" points="391.24,-43.86 395.48,-53.57 398.22,-43.34 391.24,-43.86"/>
</a>
</g>
</g>
<!-- Node11 -->
<g id="Node000011" class="node">
<title>Node11</title>
<g id="a_Node000011"><a xlink:href="_example_tree_helper_8cxx.html" target="_top" xlink:title=" ">
<polygon fill="white" stroke="#666666" points="588.88,-19.25 471.62,-19.25 471.62,0 588.88,0 588.88,-19.25"/>
<text text-anchor="middle" x="530.25" y="-5.75" font-family="Helvetica,sans-Serif" font-size="10.00">ExampleTreeHelper.cxx</text>
</a>
</g>
</g>
<!-- Node10&#45;&gt;Node11 -->
<g id="edge10_Node000010_Node000011" class="edge">
<title>Node10&#45;&gt;Node11</title>
<g id="a_edge10_Node000010_Node000011"><a xlink:title=" ">
<path fill="none" stroke="#63b8ff" d="M530.87,-43.63C530.71,-35.34 530.54,-26.17 530.42,-19.61"/>
<polygon fill="#63b8ff" stroke="#63b8ff" points="527.37,-43.64 531.06,-53.57 534.37,-43.5 527.37,-43.64"/>
</a>
</g>
</g>
<!-- Node13 -->
<g id="Node000013" class="node">
<title>Node13</title>
<g id="a_Node000013"><a xlink:href="_example_tree_selector_8_c.html" target="_top" xlink:title=" ">
<polygon fill="white" stroke="#666666" points="723.88,-19.25 606.62,-19.25 606.62,0 723.88,0 723.88,-19.25"/>
<text text-anchor="middle" x="665.25" y="-5.75" font-family="Helvetica,sans-Serif" font-size="10.00">ExampleTreeSelector.C</text>
</a>
</g>
</g>
<!-- Node12&#45;&gt;Node13 -->
<g id="edge12_Node000012_Node000013" class="edge">
<title>Node12&#45;&gt;Node13</title>
<g id="a_edge12_Node000012_Node000013"><a xlink:title=" ">
<path fill="none" stroke="#63b8ff" d="M664.63,-43.63C664.79,-35.34 664.96,-26.17 665.08,-19.61"/>
<polygon fill="#63b8ff" stroke="#63b8ff" points="661.13,-43.5 664.44,-53.57 668.13,-43.64 661.13,-43.5"/>
</a>
</g>
</g>
<!-- Node15 -->
<g id="Node000015" class="node">
<title>Node15</title>
<g id="a_Node000015"><a xlink:href="_fast_timing_hist_selector_8_c.html" target="_top" xlink:title=" ">
<polygon fill="white" stroke="#666666" points="870.12,-19.25 742.38,-19.25 742.38,0 870.12,0 870.12,-19.25"/>
<text text-anchor="middle" x="806.25" y="-5.75" font-family="Helvetica,sans-Serif" font-size="10.00">FastTimingHistSelector.C</text>
</a>
</g>
</g>
<!-- Node14&#45;&gt;Node15 -->
<g id="edge14_Node000014_Node000015" class="edge">
<title>Node14&#45;&gt;Node15</title>
<g id="a_edge14_Node000014_Node000015"><a xlink:title=" ">
<path fill="none" stroke="#63b8ff" d="M804.39,-43.63C804.86,-35.34 805.37,-26.17 805.74,-19.61"/>
<polygon fill="#63b8ff" stroke="#63b8ff" points="800.9,-43.39 803.83,-53.57 807.89,-43.78 800.9,-43.39"/>
</a>
</g>
</g>
<!-- Node22 -->
<g id="Node000022" class="node">
<title>Node22</title>
<g id="a_Node000022"><a xlink:href="_test_helper_8cxx.html" target="_top" xlink:title=" ">
<polygon fill="white" stroke="#666666" points="1441.5,-19.25 1361,-19.25 1361,0 1441.5,0 1441.5,-19.25"/>
<text text-anchor="middle" x="1401.25" y="-5.75" font-family="Helvetica,sans-Serif" font-size="10.00">TestHelper.cxx</text>
</a>
</g>
</g>
<!-- Node21&#45;&gt;Node22 -->
<g id="edge21_Node000021_Node000022" class="edge">
<title>Node21&#45;&gt;Node22</title>
<g id="a_edge21_Node000021_Node000022"><a xlink:title=" ">
<path fill="none" stroke="#63b8ff" d="M1403.73,-43.63C1403.11,-35.34 1402.42,-26.17 1401.92,-19.61"/>
<polygon fill="#63b8ff" stroke="#63b8ff" points="1400.24,-43.86 1404.48,-53.57 1407.22,-43.34 1400.24,-43.86"/>
</a>
</g>
</g>
<!-- Node24 -->
<g id="Node000024" class="node">
<title>Node24</title>
<g id="a_Node000024"><a xlink:href="_time_walk_helper_8cxx.html" target="_top" xlink:title=" ">
<polygon fill="white" stroke="#666666" points="1564.5,-19.25 1460,-19.25 1460,0 1564.5,0 1564.5,-19.25"/>
<text text-anchor="middle" x="1512.25" y="-5.75" font-family="Helvetica,sans-Serif" font-size="10.00">TimeWalkHelper.cxx</text>
</a>
</g>
</g>
<!-- Node23&#45;&gt;Node24 -->
<g id="edge23_Node000023_Node000024" class="edge">
<title>Node23&#45;&gt;Node24</title>
<g id="a_edge23_Node000023_Node000024"><a xlink:title=" ">
<path fill="none" stroke="#63b8ff" d="M1512.25,-43.63C1512.25,-35.34 1512.25,-26.17 1512.25,-19.61"/>
<polygon fill="#63b8ff" stroke="#63b8ff" points="1508.75,-43.57 1512.25,-53.57 1515.75,-43.57 1508.75,-43.57"/>
</a>
</g>
</g>
<!-- Node26 -->
<g id="Node000026" class="node">
<title>Node26</title>
<g id="a_Node000026"><a xlink:href="_time_walk_selector_8_c.html" target="_top" xlink:title=" ">
<polygon fill="white" stroke="#666666" points="1687.5,-19.25 1583,-19.25 1583,0 1687.5,0 1687.5,-19.25"/>
<text text-anchor="middle" x="1635.25" y="-5.75" font-family="Helvetica,sans-Serif" font-size="10.00">TimeWalkSelector.C</text>
</a>
</g>
</g>
<!-- Node25&#45;&gt;Node26 -->
<g id="edge25_Node000025_Node000026" class="edge">
<title>Node25&#45;&gt;Node26</title>
<g id="a_edge25_Node000025_Node000026"><a xlink:title=" ">
<path fill="none" stroke="#63b8ff" d="M1633.39,-43.63C1633.86,-35.34 1634.37,-26.17 1634.74,-19.61"/>
<polygon fill="#63b8ff" stroke="#63b8ff" points="1629.9,-43.39 1632.83,-53.57 1636.89,-43.78 1629.9,-43.39"/>
</a>
</g>
</g>
</g>
</svg>
