<?xml version="1.0" encoding="UTF-8" standalone="no"?>
<!DOCTYPE svg PUBLIC "-//W3C//DTD SVG 1.1//EN"
 "http://www.w3.org/Graphics/SVG/1.1/DTD/svg11.dtd">
<!-- Generated by graphviz version 9.0.0 (20230911.1827)
 -->
<!-- Title: TTriFoil.h Pages: 1 -->
<svg width="200pt" height="83pt"
 viewBox="0.00 0.00 199.50 82.50" xmlns="http://www.w3.org/2000/svg" xmlns:xlink="http://www.w3.org/1999/xlink">
<g id="graph0" class="graph" transform="scale(1 1) rotate(0) translate(4 78.5)">
<title>TTriFoil.h</title>
<!-- Node1 -->
<g id="Node000001" class="node">
<title>Node1</title>
<g id="a_Node000001"><a xlink:title=" ">
<polygon fill="#999999" stroke="#666666" points="134,-74.5 77.5,-74.5 77.5,-55.25 134,-55.25 134,-74.5"/>
<text text-anchor="middle" x="105.75" y="-61" font-family="Helvetica,sans-Serif" font-size="10.00">TTriFoil.h</text>
</a>
</g>
</g>
<!-- Node2 -->
<g id="Node000002" class="node">
<title>Node2</title>
<g id="a_Node000002"><a xlink:href="_t_g_r_s_i_mnemonic_8cxx.html" target="_top" xlink:title=" ">
<polygon fill="white" stroke="#666666" points="107.5,-19.25 0,-19.25 0,0 107.5,0 107.5,-19.25"/>
<text text-anchor="middle" x="53.75" y="-5.75" font-family="Helvetica,sans-Serif" font-size="10.00">TGRSIMnemonic.cxx</text>
</a>
</g>
</g>
<!-- Node1&#45;&gt;Node2 -->
<g id="edge1_Node000001_Node000002" class="edge">
<title>Node1&#45;&gt;Node2</title>
<g id="a_edge1_Node000001_Node000002"><a xlink:title=" ">
<path fill="none" stroke="#63b8ff" d="M89.34,-47.07C80.46,-37.98 69.84,-27.1 62.52,-19.61"/>
<polygon fill="#63b8ff" stroke="#63b8ff" points="86.62,-49.29 96.11,-54 91.62,-44.4 86.62,-49.29"/>
</a>
</g>
</g>
<!-- Node3 -->
<g id="Node000003" class="node">
<title>Node3</title>
<g id="a_Node000003"><a xlink:href="_t_tri_foil_8cxx.html" target="_top" xlink:title=" ">
<polygon fill="white" stroke="#666666" points="191.5,-19.25 126,-19.25 126,0 191.5,0 191.5,-19.25"/>
<text text-anchor="middle" x="158.75" y="-5.75" font-family="Helvetica,sans-Serif" font-size="10.00">TTriFoil.cxx</text>
</a>
</g>
</g>
<!-- Node1&#45;&gt;Node3 -->
<g id="edge2_Node000001_Node000003" class="edge">
<title>Node1&#45;&gt;Node3</title>
<g id="a_edge2_Node000001_Node000003"><a xlink:title=" ">
<path fill="none" stroke="#63b8ff" d="M122.47,-47.07C131.53,-37.98 142.35,-27.1 149.81,-19.61"/>
<polygon fill="#63b8ff" stroke="#63b8ff" points="120.14,-44.45 115.57,-54.01 125.1,-49.39 120.14,-44.45"/>
</a>
</g>
</g>
</g>
</svg>
