<?xml version="1.0" encoding="UTF-8" standalone="no"?>
<!DOCTYPE svg PUBLIC "-//W3C//DTD SVG 1.1//EN"
 "http://www.w3.org/Graphics/SVG/1.1/DTD/svg11.dtd">
<!-- Generated by graphviz version 9.0.0 (20230911.1827)
 -->
<!-- Title: TTrificHit.h Pages: 1 -->
<svg width="284pt" height="138pt"
 viewBox="0.00 0.00 283.88 137.75" xmlns="http://www.w3.org/2000/svg" xmlns:xlink="http://www.w3.org/1999/xlink">
<g id="graph0" class="graph" transform="scale(1 1) rotate(0) translate(4 133.75)">
<title>TTrificHit.h</title>
<!-- Node1 -->
<g id="Node000001" class="node">
<title>Node1</title>
<g id="a_Node000001"><a xlink:title=" ">
<polygon fill="#999999" stroke="#666666" points="228.38,-129.75 165.12,-129.75 165.12,-110.5 228.38,-110.5 228.38,-129.75"/>
<text text-anchor="middle" x="196.75" y="-116.25" font-family="Helvetica,sans-Serif" font-size="10.00">TTrificHit.h</text>
</a>
</g>
</g>
<!-- Node2 -->
<g id="Node000002" class="node">
<title>Node2</title>
<g id="a_Node000002"><a xlink:href="_t_trific_8h.html" target="_top" xlink:title=" ">
<polygon fill="white" stroke="#666666" points="196,-74.5 145.5,-74.5 145.5,-55.25 196,-55.25 196,-74.5"/>
<text text-anchor="middle" x="170.75" y="-61" font-family="Helvetica,sans-Serif" font-size="10.00">TTrific.h</text>
</a>
</g>
</g>
<!-- Node1&#45;&gt;Node2 -->
<g id="edge1_Node000001_Node000002" class="edge">
<title>Node1&#45;&gt;Node2</title>
<g id="a_edge1_Node000001_Node000002"><a xlink:title=" ">
<path fill="none" stroke="#63b8ff" d="M187.43,-100.04C183.24,-91.46 178.49,-81.73 175.14,-74.86"/>
<polygon fill="#63b8ff" stroke="#63b8ff" points="184.26,-101.52 191.79,-108.97 190.55,-98.45 184.26,-101.52"/>
</a>
</g>
</g>
<!-- Node5 -->
<g id="Node000005" class="node">
<title>Node5</title>
<g id="a_Node000005"><a xlink:href="_t_trific_hit_8cxx.html" target="_top" xlink:title=" ">
<polygon fill="white" stroke="#666666" points="275.88,-19.25 203.62,-19.25 203.62,0 275.88,0 275.88,-19.25"/>
<text text-anchor="middle" x="239.75" y="-5.75" font-family="Helvetica,sans-Serif" font-size="10.00">TTrificHit.cxx</text>
</a>
</g>
</g>
<!-- Node1&#45;&gt;Node5 -->
<g id="edge5_Node000001_Node000005" class="edge">
<title>Node1&#45;&gt;Node5</title>
<g id="a_edge5_Node000001_Node000005"><a xlink:title=" ">
<path fill="none" stroke="#63b8ff" d="M204.43,-99.76C213.8,-76.12 229.24,-37.13 236.18,-19.63"/>
<polygon fill="#63b8ff" stroke="#63b8ff" points="201.26,-98.25 200.83,-108.84 207.76,-100.83 201.26,-98.25"/>
</a>
</g>
</g>
<!-- Node3 -->
<g id="Node000003" class="node">
<title>Node3</title>
<g id="a_Node000003"><a xlink:href="_t_g_r_s_i_mnemonic_8cxx.html" target="_top" xlink:title=" ">
<polygon fill="white" stroke="#666666" points="107.5,-19.25 0,-19.25 0,0 107.5,0 107.5,-19.25"/>
<text text-anchor="middle" x="53.75" y="-5.75" font-family="Helvetica,sans-Serif" font-size="10.00">TGRSIMnemonic.cxx</text>
</a>
</g>
</g>
<!-- Node2&#45;&gt;Node3 -->
<g id="edge2_Node000002_Node000003" class="edge">
<title>Node2&#45;&gt;Node3</title>
<g id="a_edge2_Node000002_Node000003"><a xlink:title=" ">
<path fill="none" stroke="#63b8ff" d="M140.57,-50.14C119.53,-40.56 92.05,-28.06 73.69,-19.7"/>
<polygon fill="#63b8ff" stroke="#63b8ff" points="138.97,-53.26 149.52,-54.21 141.87,-46.89 138.97,-53.26"/>
</a>
</g>
</g>
<!-- Node4 -->
<g id="Node000004" class="node">
<title>Node4</title>
<g id="a_Node000004"><a xlink:href="_t_trific_8cxx.html" target="_top" xlink:title=" ">
<polygon fill="white" stroke="#666666" points="185.5,-19.25 126,-19.25 126,0 185.5,0 185.5,-19.25"/>
<text text-anchor="middle" x="155.75" y="-5.75" font-family="Helvetica,sans-Serif" font-size="10.00">TTrific.cxx</text>
</a>
</g>
</g>
<!-- Node2&#45;&gt;Node4 -->
<g id="edge3_Node000002_Node000004" class="edge">
<title>Node2&#45;&gt;Node4</title>
<g id="a_edge3_Node000002_Node000004"><a xlink:title=" ">
<path fill="none" stroke="#63b8ff" d="M165.21,-44.21C162.83,-35.77 160.17,-26.33 158.28,-19.61"/>
<polygon fill="#63b8ff" stroke="#63b8ff" points="161.78,-44.95 167.86,-53.63 168.52,-43.05 161.78,-44.95"/>
</a>
</g>
</g>
<!-- Node2&#45;&gt;Node5 -->
<g id="edge4_Node000002_Node000005" class="edge">
<title>Node2&#45;&gt;Node5</title>
<g id="a_edge4_Node000002_Node000005"><a xlink:title=" ">
<path fill="none" stroke="#63b8ff" d="M191.4,-47.94C203.45,-38.64 218.2,-27.26 228.22,-19.52"/>
<polygon fill="#63b8ff" stroke="#63b8ff" points="189.43,-45.04 183.65,-53.92 193.71,-50.58 189.43,-45.04"/>
</a>
</g>
</g>
</g>
</svg>
