<?xml version="1.0" encoding="UTF-8" standalone="no"?>
<!DOCTYPE svg PUBLIC "-//W3C//DTD SVG 1.1//EN"
 "http://www.w3.org/Graphics/SVG/1.1/DTD/svg11.dtd">
<!-- Generated by graphviz version 9.0.0 (20230911.1827)
 -->
<!-- Title: TTAC.h Pages: 1 -->
<svg width="595pt" height="83pt"
 viewBox="0.00 0.00 594.62 82.50" xmlns="http://www.w3.org/2000/svg" xmlns:xlink="http://www.w3.org/1999/xlink">
<g id="graph0" class="graph" transform="scale(1 1) rotate(0) translate(4 78.5)">
<title>TTAC.h</title>
<!-- Node1 -->
<g id="Node000001" class="node">
<title>Node1</title>
<g id="a_Node000001"><a xlink:title=" ">
<polygon fill="#999999" stroke="#666666" points="336.38,-74.5 287.38,-74.5 287.38,-55.25 336.38,-55.25 336.38,-74.5"/>
<text text-anchor="middle" x="311.88" y="-61" font-family="Helvetica,sans-Serif" font-size="10.00">TTAC.h</text>
</a>
</g>
</g>
<!-- Node2 -->
<g id="Node000002" class="node">
<title>Node2</title>
<g id="a_Node000002"><a xlink:href="_get_tree_entries_8cxx.html" target="_top" xlink:title=" ">
<polygon fill="white" stroke="#666666" points="97.75,-19.25 0,-19.25 0,0 97.75,0 97.75,-19.25"/>
<text text-anchor="middle" x="48.88" y="-5.75" font-family="Helvetica,sans-Serif" font-size="10.00">GetTreeEntries.cxx</text>
</a>
</g>
</g>
<!-- Node1&#45;&gt;Node2 -->
<g id="edge1_Node000001_Node000002" class="edge">
<title>Node1&#45;&gt;Node2</title>
<g id="a_edge1_Node000001_Node000002"><a xlink:title=" ">
<path fill="none" stroke="#63b8ff" d="M275.91,-56.59C228.55,-47 145.28,-30.14 93.82,-19.72"/>
<polygon fill="#63b8ff" stroke="#63b8ff" points="275.15,-60.01 285.65,-58.57 276.54,-53.15 275.15,-60.01"/>
</a>
</g>
</g>
<!-- Node3 -->
<g id="Node000003" class="node">
<title>Node3</title>
<g id="a_Node000003"><a xlink:href="_t_g_r_s_i_mnemonic_8cxx.html" target="_top" xlink:title=" ">
<polygon fill="white" stroke="#666666" points="223.62,-19.25 116.12,-19.25 116.12,0 223.62,0 223.62,-19.25"/>
<text text-anchor="middle" x="169.88" y="-5.75" font-family="Helvetica,sans-Serif" font-size="10.00">TGRSIMnemonic.cxx</text>
</a>
</g>
</g>
<!-- Node1&#45;&gt;Node3 -->
<g id="edge2_Node000001_Node000003" class="edge">
<title>Node1&#45;&gt;Node3</title>
<g id="a_edge2_Node000001_Node000003"><a xlink:title=" ">
<path fill="none" stroke="#63b8ff" d="M277.34,-50.92C251.55,-41.25 216.97,-28.29 194.08,-19.7"/>
<polygon fill="#63b8ff" stroke="#63b8ff" points="275.78,-54.08 286.37,-54.31 278.24,-47.52 275.78,-54.08"/>
</a>
</g>
</g>
<!-- Node4 -->
<g id="Node000004" class="node">
<title>Node4</title>
<g id="a_Node000004"><a xlink:href="_t_t_a_c_8cxx.html" target="_top" xlink:title=" ">
<polygon fill="white" stroke="#666666" points="299.88,-19.25 241.88,-19.25 241.88,0 299.88,0 299.88,-19.25"/>
<text text-anchor="middle" x="270.88" y="-5.75" font-family="Helvetica,sans-Serif" font-size="10.00">TTAC.cxx</text>
</a>
</g>
</g>
<!-- Node1&#45;&gt;Node4 -->
<g id="edge3_Node000001_Node000004" class="edge">
<title>Node1&#45;&gt;Node4</title>
<g id="a_edge3_Node000001_Node000004"><a xlink:title=" ">
<path fill="none" stroke="#63b8ff" d="M298.29,-46.22C291.42,-37.31 283.38,-26.87 277.79,-19.61"/>
<polygon fill="#63b8ff" stroke="#63b8ff" points="295.31,-48.09 304.18,-53.88 300.85,-43.82 295.31,-48.09"/>
</a>
</g>
</g>
<!-- Node5 -->
<g id="Node000005" class="node">
<title>Node5</title>
<g id="a_Node000005"><a xlink:href="_t_t_a_c_hit_8cxx.html" target="_top" xlink:title=" ">
<polygon fill="white" stroke="#666666" points="388.25,-19.25 317.5,-19.25 317.5,0 388.25,0 388.25,-19.25"/>
<text text-anchor="middle" x="352.88" y="-5.75" font-family="Helvetica,sans-Serif" font-size="10.00">TTACHit.cxx</text>
</a>
</g>
</g>
<!-- Node1&#45;&gt;Node5 -->
<g id="edge4_Node000001_Node000005" class="edge">
<title>Node1&#45;&gt;Node5</title>
<g id="a_edge4_Node000001_Node000005"><a xlink:title=" ">
<path fill="none" stroke="#63b8ff" d="M325.46,-46.22C332.33,-37.31 340.37,-26.87 345.96,-19.61"/>
<polygon fill="#63b8ff" stroke="#63b8ff" points="322.9,-43.82 319.57,-53.88 328.44,-48.09 322.9,-43.82"/>
</a>
</g>
</g>
<!-- Node6 -->
<g id="Node000006" class="node">
<title>Node6</title>
<g id="a_Node000006"><a xlink:href="tac__calibrator_8cxx.html" target="_top" xlink:title=" ">
<polygon fill="white" stroke="#666666" points="497.38,-19.25 406.38,-19.25 406.38,0 497.38,0 497.38,-19.25"/>
<text text-anchor="middle" x="451.88" y="-5.75" font-family="Helvetica,sans-Serif" font-size="10.00">tac_calibrator.cxx</text>
</a>
</g>
</g>
<!-- Node1&#45;&gt;Node6 -->
<g id="edge5_Node000001_Node000006" class="edge">
<title>Node1&#45;&gt;Node6</title>
<g id="a_edge5_Node000001_Node000006"><a xlink:title=" ">
<path fill="none" stroke="#63b8ff" d="M346.27,-50.79C371.65,-41.14 405.54,-28.25 428.01,-19.7"/>
<polygon fill="#63b8ff" stroke="#63b8ff" points="345.14,-47.48 337.04,-54.3 347.63,-54.02 345.14,-47.48"/>
</a>
</g>
</g>
<!-- Node7 -->
<g id="Node000007" class="node">
<title>Node7</title>
<g id="a_Node000007"><a xlink:href="write__cal_8cxx.html" target="_top" xlink:title=" ">
<polygon fill="white" stroke="#666666" points="586.62,-19.25 515.12,-19.25 515.12,0 586.62,0 586.62,-19.25"/>
<text text-anchor="middle" x="550.88" y="-5.75" font-family="Helvetica,sans-Serif" font-size="10.00">write_cal.cxx</text>
</a>
</g>
</g>
<!-- Node1&#45;&gt;Node7 -->
<g id="edge6_Node000001_Node000007" class="edge">
<title>Node1&#45;&gt;Node7</title>
<g id="a_edge6_Node000001_Node000007"><a xlink:title=" ">
<path fill="none" stroke="#63b8ff" d="M347.53,-55.93C392.53,-45.9 469.49,-28.76 514.72,-18.68"/>
<polygon fill="#63b8ff" stroke="#63b8ff" points="347.03,-52.46 338.03,-58.05 348.55,-59.29 347.03,-52.46"/>
</a>
</g>
</g>
</g>
</svg>
