<?xml version="1.0" encoding="UTF-8" standalone="no"?>
<!DOCTYPE svg PUBLIC "-//W3C//DTD SVG 1.1//EN"
 "http://www.w3.org/Graphics/SVG/1.1/DTD/svg11.dtd">
<!-- Generated by graphviz version 12.2.0 (20241103.1931)
 -->
<!-- Title: TTreeFillMutex.h Pages: 1 -->
<svg width="363pt" height="83pt"
 viewBox="0.00 0.00 363.25 82.50" xmlns="http://www.w3.org/2000/svg" xmlns:xlink="http://www.w3.org/1999/xlink">
<g id="graph0" class="graph" transform="scale(1 1) rotate(0) translate(4 78.5)">
<title>TTreeFillMutex.h</title>
<!-- Node1 -->
<g id="Node000001" class="node">
<title>Node1</title>
<g id="a_Node000001"><a xlink:title=" ">
<polygon fill="#999999" stroke="#666666" points="232.75,-74.5 144.75,-74.5 144.75,-55.25 232.75,-55.25 232.75,-74.5"/>
<text text-anchor="middle" x="188.75" y="-61" font-family="Helvetica,sans-Serif" font-size="10.00">TTreeFillMutex.h</text>
</a>
</g>
</g>
<!-- Node2 -->
<g id="Node000002" class="node">
<title>Node2</title>
<g id="a_Node000002"><a xlink:href="_t_analysis_write_loop_8cxx.html" target="_top" xlink:title=" ">
<polygon fill="white" stroke="#666666" points="119.5,-19.25 0,-19.25 0,0 119.5,0 119.5,-19.25"/>
<text text-anchor="middle" x="59.75" y="-5.75" font-family="Helvetica,sans-Serif" font-size="10.00">TAnalysisWriteLoop.cxx</text>
</a>
</g>
</g>
<!-- Node1&#45;&gt;Node2 -->
<g id="edge1_Node000001_Node000002" class="edge">
<title>Node1&#45;&gt;Node2</title>
<g id="a_edge1_Node000001_Node000002"><a xlink:title=" ">
<path fill="none" stroke="#63b8ff" d="M156.43,-50.53C133.11,-40.91 102.25,-28.17 81.74,-19.7"/>
<polygon fill="#63b8ff" stroke="#63b8ff" points="154.89,-53.68 165.47,-54.26 157.56,-47.21 154.89,-53.68"/>
</a>
</g>
</g>
<!-- Node3 -->
<g id="Node000003" class="node">
<title>Node3</title>
<g id="a_Node000003"><a xlink:href="_t_frag_write_loop_8cxx.html" target="_top" xlink:title=" ">
<polygon fill="white" stroke="#666666" points="239.88,-19.25 137.62,-19.25 137.62,0 239.88,0 239.88,-19.25"/>
<text text-anchor="middle" x="188.75" y="-5.75" font-family="Helvetica,sans-Serif" font-size="10.00">TFragWriteLoop.cxx</text>
</a>
</g>
</g>
<!-- Node1&#45;&gt;Node3 -->
<g id="edge2_Node000001_Node000003" class="edge">
<title>Node1&#45;&gt;Node3</title>
<g id="a_edge2_Node000001_Node000003"><a xlink:title=" ">
<path fill="none" stroke="#63b8ff" d="M188.75,-43.63C188.75,-35.34 188.75,-26.17 188.75,-19.61"/>
<polygon fill="#63b8ff" stroke="#63b8ff" points="185.25,-43.57 188.75,-53.57 192.25,-43.57 185.25,-43.57"/>
</a>
</g>
</g>
<!-- Node4 -->
<g id="Node000004" class="node">
<title>Node4</title>
<g id="a_Node000004"><a xlink:href="_t_tree_fill_mutex_8cxx.html" target="_top" xlink:title=" ">
<polygon fill="white" stroke="#666666" points="355.25,-19.25 258.25,-19.25 258.25,0 355.25,0 355.25,-19.25"/>
<text text-anchor="middle" x="306.75" y="-5.75" font-family="Helvetica,sans-Serif" font-size="10.00">TTreeFillMutex.cxx</text>
</a>
</g>
</g>
<!-- Node1&#45;&gt;Node4 -->
<g id="edge3_Node000001_Node000004" class="edge">
<title>Node1&#45;&gt;Node4</title>
<g id="a_edge3_Node000001_Node000004"><a xlink:title=" ">
<path fill="none" stroke="#63b8ff" d="M219.19,-50.14C240.41,-40.56 268.12,-28.06 286.63,-19.7"/>
<polygon fill="#63b8ff" stroke="#63b8ff" points="217.82,-46.92 210.15,-54.22 220.7,-53.3 217.82,-46.92"/>
</a>
</g>
</g>
</g>
</svg>
