<?xml version="1.0" encoding="UTF-8" standalone="no"?>
<!DOCTYPE svg PUBLIC "-//W3C//DTD SVG 1.1//EN"
 "http://www.w3.org/Graphics/SVG/1.1/DTD/svg11.dtd">
<!-- Generated by graphviz version 9.0.0 (20230911.1827)
 -->
<!-- Title: TTdrDataParser.h Pages: 1 -->
<svg width="373pt" height="138pt"
 viewBox="0.00 0.00 372.50 137.75" xmlns="http://www.w3.org/2000/svg" xmlns:xlink="http://www.w3.org/1999/xlink">

<svg id="main" version="1.1" xmlns="http://www.w3.org/2000/svg" xmlns:xlink="http://www.w3.org/1999/xlink" xml:space="preserve" onload="init(evt)">
<style type="text/css"><![CDATA[
.node, .edge {opacity: 0.7;}
.node.selected, .edge.selected {opacity: 1;}
.edge:hover path { stroke: red; }
.edge:hover polygon { stroke: red; fill: red; }
]]></style>
<script type="application/ecmascript" xlink:href="svg.min.js"/>
<svg id="graph" class="graph">
<g id="graph0" class="graph" transform="scale(1 1) rotate(0) translate(4 133.75)">
<title>TTdrDataParser.h</title>
<!-- Node1 -->
<g id="Node000001" class="node">
<title>Node1</title>
<g id="a_Node000001"><a xlink:title=" ">
<polygon fill="#999999" stroke="#666666" points="215,-129.75 122.5,-129.75 122.5,-110.5 215,-110.5 215,-129.75"/>
<text text-anchor="middle" x="168.75" y="-116.25" font-family="Helvetica,sans-Serif" font-size="10.00">TTdrDataParser.h</text>
</a>
</g>
</g>
<!-- Node2 -->
<g id="Node000002" class="node">
<title>Node2</title>
<g id="a_Node000002"><a xlink:href="_t_tdr_data_parser_8cxx.html" target="_top" xlink:title=" ">
<polygon fill="white" stroke="#666666" points="101.5,-19.25 0,-19.25 0,0 101.5,0 101.5,-19.25"/>
<text text-anchor="middle" x="50.75" y="-5.75" font-family="Helvetica,sans-Serif" font-size="10.00">TTdrDataParser.cxx</text>
</a>
</g>
</g>
<!-- Node1&#45;&gt;Node2 -->
<g id="edge1_Node000001_Node000002" class="edge">
<title>Node1&#45;&gt;Node2</title>
<g id="a_edge1_Node000001_Node000002"><a xlink:title=" ">
<path fill="none" stroke="#63b8ff" d="M111.22,-112.81C86.85,-106.97 60.68,-95.79 45.75,-74.5 34.13,-57.92 41.56,-32.63 46.83,-19.4"/>
<polygon fill="#63b8ff" stroke="#63b8ff" points="110.26,-116.19 120.77,-114.83 111.7,-109.34 110.26,-116.19"/>
</a>
</g>
</g>
<!-- Node3 -->
<g id="Node000003" class="node">
<title>Node3</title>
<g id="a_Node000003"><a xlink:href="_t_tdr_data_parser_exception_8cxx.html" target="_top" xlink:title=" ">
<polygon fill="white" stroke="#666666" points="275.5,-19.25 132,-19.25 132,0 275.5,0 275.5,-19.25"/>
<text text-anchor="middle" x="203.75" y="-5.75" font-family="Helvetica,sans-Serif" font-size="10.00">TTdrDataParserException.cxx</text>
</a>
</g>
</g>
<!-- Node1&#45;&gt;Node3 -->
<g id="edge2_Node000001_Node000003" class="edge">
<title>Node1&#45;&gt;Node3</title>
<g id="a_edge2_Node000001_Node000003"><a xlink:title=" ">
<path fill="none" stroke="#63b8ff" d="M183.26,-101.18C188.75,-93.42 194.46,-83.97 197.75,-74.5 204.27,-55.78 204.62,-32.21 204.23,-19.59"/>
<polygon fill="#63b8ff" stroke="#63b8ff" points="180.55,-98.95 177.31,-109.04 186.14,-103.18 180.55,-98.95"/>
</a>
</g>
</g>
<!-- Node4 -->
<g id="Node000004" class="node">
<title>Node4</title>
<g id="a_Node000004"><a xlink:href="_t_tdr_data_parser_exception_8h.html" target="_top" xlink:title=" ">
<polygon fill="white" stroke="#666666" points="189,-74.5 54.5,-74.5 54.5,-55.25 189,-55.25 189,-74.5"/>
<text text-anchor="middle" x="121.75" y="-61" font-family="Helvetica,sans-Serif" font-size="10.00">TTdrDataParserException.h</text>
</a>
</g>
</g>
<!-- Node1&#45;&gt;Node4 -->
<g id="edge3_Node000001_Node000004" class="edge">
<title>Node1&#45;&gt;Node4</title>
<g id="a_edge3_Node000001_Node000004"><a xlink:title=" ">
<path fill="none" stroke="#63b8ff" d="M153.42,-101.76C145.5,-92.78 136.15,-82.2 129.68,-74.86"/>
<polygon fill="#63b8ff" stroke="#63b8ff" points="150.75,-104.02 159.99,-109.2 155.99,-99.38 150.75,-104.02"/>
</a>
</g>
</g>
<!-- Node5 -->
<g id="Node000005" class="node">
<title>Node5</title>
<g id="a_Node000005"><a xlink:href="i_themba_data_library_8cxx.html" target="_top" xlink:title=" ">
<polygon fill="white" stroke="#666666" points="364.5,-74.5 245,-74.5 245,-55.25 364.5,-55.25 364.5,-74.5"/>
<text text-anchor="middle" x="304.75" y="-61" font-family="Helvetica,sans-Serif" font-size="10.00">iThembaDataLibrary.cxx</text>
</a>
</g>
</g>
<!-- Node1&#45;&gt;Node5 -->
<g id="edge6_Node000001_Node000005" class="edge">
<title>Node1&#45;&gt;Node5</title>
<g id="a_edge6_Node000001_Node000005"><a xlink:title=" ">
<path fill="none" stroke="#63b8ff" d="M202.49,-105.91C227.11,-96.27 259.84,-83.46 281.57,-74.95"/>
<polygon fill="#63b8ff" stroke="#63b8ff" points="201.27,-102.63 193.23,-109.54 203.82,-109.15 201.27,-102.63"/>
</a>
</g>
</g>
<!-- Node4&#45;&gt;Node2 -->
<g id="edge4_Node000004_Node000002" class="edge">
<title>Node4&#45;&gt;Node2</title>
<g id="a_edge4_Node000004_Node000002"><a xlink:title=" ">
<path fill="none" stroke="#63b8ff" d="M100.5,-47.94C88.11,-38.64 72.93,-27.26 62.62,-19.52"/>
<polygon fill="#63b8ff" stroke="#63b8ff" points="98.39,-50.73 108.49,-53.93 102.59,-45.13 98.39,-50.73"/>
</a>
</g>
</g>
<!-- Node4&#45;&gt;Node3 -->
<g id="edge5_Node000004_Node000003" class="edge">
<title>Node4&#45;&gt;Node3</title>
<g id="a_edge5_Node000004_Node000003"><a xlink:title=" ">
<path fill="none" stroke="#63b8ff" d="M144.96,-48.8C159.4,-39.42 177.5,-27.67 189.77,-19.7"/>
<polygon fill="#63b8ff" stroke="#63b8ff" points="143.41,-45.64 136.93,-54.02 147.22,-51.51 143.41,-45.64"/>
</a>
</g>
</g>
</g>
</svg>
</svg>

<style type='text/css'>
<![CDATA[
[data-mouse-over-selected='false'] { opacity: 0.7; }
[data-mouse-over-selected='true']  { opacity: 1.0; }
]]>
</style>
<script type="application/ecmascript"><![CDATA[
document.addEventListener('DOMContentLoaded', (event) => {
  highlightEdges();
  highlightAdjacentNodes();
});
]]></script>
</svg>
