<?xml version="1.0" encoding="UTF-8" standalone="no"?>
<!DOCTYPE svg PUBLIC "-//W3C//DTD SVG 1.1//EN"
 "http://www.w3.org/Graphics/SVG/1.1/DTD/svg11.dtd">
<!-- Generated by graphviz version 9.0.0 (20230911.1827)
 -->
<!-- Title: TTdrMnemonic.h Pages: 1 -->
<!--zoomable 248 -->

<svg id="main" version="1.1" xmlns="http://www.w3.org/2000/svg" xmlns:xlink="http://www.w3.org/1999/xlink" xml:space="preserve" onload="init(evt)">
<style type="text/css"><![CDATA[
.node, .edge {opacity: 0.7;}
.node.selected, .edge.selected {opacity: 1;}
.edge:hover path { stroke: red; }
.edge:hover polygon { stroke: red; fill: red; }
]]></style>

<defs>
  <circle id="rim" cx="0" cy="0" r="7"/>
  <circle id="rim2" cx="0" cy="0" r="3.5"/>
  <g id="zoomPlus">
    <use xlink:href="#rim" fill="#404040"><set attributeName="fill" to="#808080" begin="zoomplus.mouseover" end="zoomplus.mouseout"/></use>
    <path d="M-4,0h8M0,-4v8" fill="none" stroke="white" stroke-width="1.5" pointer-events="none"/>
  </g>
  <g id="zoomMin">
    <use xlink:href="#rim" fill="#404040"><set attributeName="fill" to="#808080" begin="zoomminus.mouseover" end="zoomminus.mouseout"/></use>
    <path d="M-4,0h8" fill="none" stroke="white" stroke-width="1.5" pointer-events="none"/>
  </g>
  <g id="arrowUp" transform="translate(30 24)">
    <use xlink:href="#rim"/>
    <path pointer-events="none" fill="none" stroke="white" stroke-width="1.5" d="M0,-3.0v7 M-2.5,-0.5L0,-3.0L2.5,-0.5"/>
  </g>
  <g id="arrowRight" transform="rotate(90) translate(36 -43)">
    <use xlink:href="#rim"/>
    <path pointer-events="none" fill="none" stroke="white" stroke-width="1.5" d="M0,-3.0v7 M-2.5,-0.5L0,-3.0L2.5,-0.5"/>
  </g>
  <g id="arrowDown" transform="rotate(180) translate(-30 -48)">
    <use xlink:href="#rim"/>
    <path pointer-events="none" fill="none" stroke="white" stroke-width="1.5" d="M0,-3.0v7 M-2.5,-0.5L0,-3.0L2.5,-0.5"/>
  </g>
  <g id="arrowLeft" transform="rotate(270) translate(-36 17)">
    <use xlink:href="#rim"/>
    <path pointer-events="none" fill="none" stroke="white" stroke-width="1.5" d="M0,-3.0v7 M-2.5,-0.5L0,-3.0L2.5,-0.5"/>
  </g>
  <g id="resetDef">
    <use xlink:href="#rim2" fill="#404040"><set attributeName="fill" to="#808080" begin="reset.mouseover" end="reset.mouseout"/></use>
  </g>
</defs>
<script type="application/ecmascript">
var viewWidth = 1575;
var viewHeight = 248;
var sectionId = 'dynsection-0';
</script>
<script type="application/ecmascript" xlink:href="svg.min.js"/>
<svg id="graph" class="graph">
<g id="viewport">
<title>TTdrMnemonic.h</title>
<!-- Node1 -->
<g id="Node000001" class="node">
<title>Node1</title>
<g id="a_Node000001"><a xlink:title=" ">
<polygon fill="#999999" stroke="#666666" points="1297,-240.25 1208.25,-240.25 1208.25,-221 1297,-221 1297,-240.25"/>
<text text-anchor="middle" x="1252.62" y="-226.75" font-family="Helvetica,sans-Serif" font-size="10.00">TTdrMnemonic.h</text>
</a>
</g>
</g>
<!-- Node2 -->
<g id="Node000002" class="node">
<title>Node2</title>
<g id="a_Node000002"><a xlink:title=" ">
<polygon fill="#e0e0e0" stroke="#999999" points="1414.62,-19.25 1374.62,-19.25 1374.62,0 1414.62,0 1414.62,-19.25"/>
<text text-anchor="middle" x="1394.62" y="-5.75" font-family="Helvetica,sans-Serif" font-size="10.00">string</text>
</a>
</g>
</g>
<!-- Node1&#45;&gt;Node2 -->
<g id="edge1_Node000001_Node000002" class="edge">
<title>Node1&#45;&gt;Node2</title>
<g id="a_edge1_Node000001_Node000002"><a xlink:title=" ">
<path fill="none" stroke="#63b8ff" d="M1284.58,-220.51C1323.33,-207.52 1386.77,-179.55 1413.62,-129.75 1430.87,-97.76 1416.01,-54.41 1404.64,-29.79"/>
<polygon fill="#63b8ff" stroke="#63b8ff" points="1407.87,-28.42 1400.31,-20.99 1401.58,-31.5 1407.87,-28.42"/>
</a>
</g>
</g>
<!-- Node3 -->
<g id="Node000003" class="node">
<title>Node3</title>
<g id="a_Node000003"><a xlink:href="_t_mnemonic_8h.html" target="_top" xlink:title=" ">
<polygon fill="white" stroke="#666666" points="1097.88,-185 1023.38,-185 1023.38,-165.75 1097.88,-165.75 1097.88,-185"/>
<text text-anchor="middle" x="1060.62" y="-171.5" font-family="Helvetica,sans-Serif" font-size="10.00">TMnemonic.h</text>
</a>
</g>
</g>
<!-- Node1&#45;&gt;Node3 -->
<g id="edge2_Node000001_Node000003" class="edge">
<title>Node1&#45;&gt;Node3</title>
<g id="a_edge2_Node000001_Node000003"><a xlink:title=" ">
<path fill="none" stroke="#63b8ff" d="M1220.05,-220.59C1188.2,-211.76 1139.47,-198.24 1104.27,-188.48"/>
<polygon fill="#63b8ff" stroke="#63b8ff" points="1105.39,-185.16 1094.81,-185.86 1103.51,-191.9 1105.39,-185.16"/>
</a>
</g>
</g>
<!-- Node7 -->
<g id="Node000007" class="node">
<title>Node7</title>
<g id="a_Node000007"><a xlink:title=" ">
<polygon fill="#e0e0e0" stroke="#999999" points="1404.75,-129.75 1350.5,-129.75 1350.5,-110.5 1404.75,-110.5 1404.75,-129.75"/>
<text text-anchor="middle" x="1377.62" y="-116.25" font-family="Helvetica,sans-Serif" font-size="10.00">TClass.h</text>
</a>
</g>
</g>
<!-- Node1&#45;&gt;Node7 -->
<g id="edge45_Node000001_Node000007" class="edge">
<title>Node1&#45;&gt;Node7</title>
<g id="a_edge45_Node000001_Node000007"><a xlink:title=" ">
<path fill="none" stroke="#63b8ff" d="M1262.85,-220.75C1283.82,-202.55 1331.95,-160.77 1358.75,-137.51"/>
<polygon fill="#63b8ff" stroke="#63b8ff" points="1360.85,-140.32 1366.11,-131.12 1356.27,-135.03 1360.85,-140.32"/>
</a>
</g>
</g>
<!-- Node8 -->
<g id="Node000008" class="node">
<title>Node8</title>
<g id="a_Node000008"><a xlink:href="_globals_8h.html" target="_top" xlink:title=" ">
<polygon fill="white" stroke="#666666" points="576.88,-74.5 520.38,-74.5 520.38,-55.25 576.88,-55.25 576.88,-74.5"/>
<text text-anchor="middle" x="548.62" y="-61" font-family="Helvetica,sans-Serif" font-size="10.00">Globals.h</text>
</a>
</g>
</g>
<!-- Node1&#45;&gt;Node8 -->
<g id="edge44_Node000001_Node000008" class="edge">
<title>Node1&#45;&gt;Node8</title>
<g id="a_edge44_Node000001_Node000008"><a xlink:title=" ">
<path fill="none" stroke="#63b8ff" d="M1207.9,-229.18C1071.47,-226.93 664.08,-213.2 567.62,-129.75 555.17,-118.98 550.69,-100.44 549.17,-86.1"/>
<polygon fill="#63b8ff" stroke="#63b8ff" points="552.68,-86.16 548.56,-76.4 545.7,-86.6 552.68,-86.16"/>
</a>
</g>
</g>
<!-- Node3&#45;&gt;Node2 -->
<g id="edge3_Node000003_Node000002" class="edge">
<title>Node3&#45;&gt;Node2</title>
<g id="a_edge3_Node000003_Node000002"><a xlink:title=" ">
<path fill="none" stroke="#63b8ff" d="M1098.22,-165.86C1170.03,-148.99 1323.19,-109.87 1363.62,-74.5 1376.83,-62.95 1384.93,-44.5 1389.53,-30.39"/>
<polygon fill="#63b8ff" stroke="#63b8ff" points="1392.87,-31.43 1392.28,-20.85 1386.14,-29.49 1392.87,-31.43"/>
</a>
</g>
</g>
<!-- Node4 -->
<g id="Node000004" class="node">
<title>Node4</title>
<g id="a_Node000004"><a xlink:title=" ">
<polygon fill="#e0e0e0" stroke="#999999" points="1011.38,-19.25 957.88,-19.25 957.88,0 1011.38,0 1011.38,-19.25"/>
<text text-anchor="middle" x="984.62" y="-5.75" font-family="Helvetica,sans-Serif" font-size="10.00">iostream</text>
</a>
</g>
</g>
<!-- Node3&#45;&gt;Node4 -->
<g id="edge4_Node000003_Node000004" class="edge">
<title>Node3&#45;&gt;Node4</title>
<g id="a_edge4_Node000003_Node000004"><a xlink:title=" ">
<path fill="none" stroke="#63b8ff" d="M1023.2,-171.64C926.72,-163.72 673.65,-137.25 623.62,-74.5 618.29,-67.81 617.92,-61.62 623.62,-55.25 669.97,-3.49 859.33,-29.21 946.26,-19.12"/>
<polygon fill="#63b8ff" stroke="#63b8ff" points="946.68,-22.59 956.08,-17.7 945.68,-15.67 946.68,-22.59"/>
</a>
</g>
</g>
<!-- Node5 -->
<g id="Node000005" class="node">
<title>Node5</title>
<g id="a_Node000005"><a xlink:title=" ">
<polygon fill="#e0e0e0" stroke="#999999" points="51.25,-19.25 0,-19.25 0,0 51.25,0 51.25,-19.25"/>
<text text-anchor="middle" x="25.62" y="-5.75" font-family="Helvetica,sans-Serif" font-size="10.00">sstream</text>
</a>
</g>
</g>
<!-- Node3&#45;&gt;Node5 -->
<g id="edge5_Node000003_Node000005" class="edge">
<title>Node3&#45;&gt;Node5</title>
<g id="a_edge5_Node000003_Node000005"><a xlink:title=" ">
<path fill="none" stroke="#63b8ff" d="M1023.02,-172.57C940.29,-168.25 736.45,-155.69 567.62,-129.75 375.56,-100.24 149.7,-43.29 62.52,-20.45"/>
<polygon fill="#63b8ff" stroke="#63b8ff" points="63.65,-17.13 53.09,-17.97 61.87,-23.9 63.65,-17.13"/>
</a>
</g>
</g>
<!-- Node6 -->
<g id="Node000006" class="node">
<title>Node6</title>
<g id="a_Node000006"><a xlink:title=" ">
<polygon fill="#e0e0e0" stroke="#999999" points="1129.62,-129.75 1071.62,-129.75 1071.62,-110.5 1129.62,-110.5 1129.62,-129.75"/>
<text text-anchor="middle" x="1100.62" y="-116.25" font-family="Helvetica,sans-Serif" font-size="10.00">TObject.h</text>
</a>
</g>
</g>
<!-- Node3&#45;&gt;Node6 -->
<g id="edge6_Node000003_Node000006" class="edge">
<title>Node3&#45;&gt;Node6</title>
<g id="a_edge6_Node000003_Node000006"><a xlink:title=" ">
<path fill="none" stroke="#63b8ff" d="M1067.23,-165.58C1072.58,-158.46 1080.3,-148.18 1086.97,-139.3"/>
<polygon fill="#63b8ff" stroke="#63b8ff" points="1089.76,-141.42 1092.97,-131.32 1084.16,-137.21 1089.76,-141.42"/>
</a>
</g>
</g>
<!-- Node3&#45;&gt;Node7 -->
<g id="edge7_Node000003_Node000007" class="edge">
<title>Node3&#45;&gt;Node7</title>
<g id="a_edge7_Node000003_Node000007"><a xlink:title=" ">
<path fill="none" stroke="#63b8ff" d="M1098.22,-168.87C1151.43,-160.95 1251.68,-145.54 1336.62,-129.75 1337.46,-129.6 1338.3,-129.44 1339.14,-129.28"/>
<polygon fill="#63b8ff" stroke="#63b8ff" points="1339.7,-132.73 1348.83,-127.35 1338.34,-125.87 1339.7,-132.73"/>
</a>
</g>
</g>
<!-- Node3&#45;&gt;Node8 -->
<g id="edge8_Node000003_Node000008" class="edge">
<title>Node3&#45;&gt;Node8</title>
<g id="a_edge8_Node000003_Node000008"><a xlink:title=" ">
<path fill="none" stroke="#63b8ff" d="M1023.19,-174.91C925.11,-175.67 663.22,-173.45 590.62,-129.75 573.94,-119.7 562.58,-100.18 555.92,-85.35"/>
<polygon fill="#63b8ff" stroke="#63b8ff" points="559.18,-84.07 552.16,-76.14 552.7,-86.72 559.18,-84.07"/>
</a>
</g>
</g>
<!-- Node22 -->
<g id="Node000022" class="node">
<title>Node22</title>
<g id="a_Node000022"><a xlink:href="_t_priority_value_8h.html" target="_top" xlink:title=" ">
<polygon fill="white" stroke="#666666" points="1544.75,-74.5 1460.5,-74.5 1460.5,-55.25 1544.75,-55.25 1544.75,-74.5"/>
<text text-anchor="middle" x="1502.62" y="-61" font-family="Helvetica,sans-Serif" font-size="10.00">TPriorityValue.h</text>
</a>
</g>
</g>
<!-- Node3&#45;&gt;Node22 -->
<g id="edge25_Node000003_Node000022" class="edge">
<title>Node3&#45;&gt;Node22</title>
<g id="a_edge25_Node000003_Node000022"><a xlink:title=" ">
<path fill="none" stroke="#63b8ff" d="M1097.98,-170.14C1145.41,-164.13 1229.41,-151.4 1298.62,-129.75 1318.61,-123.5 1321.92,-117.59 1341.62,-110.5 1378.12,-97.36 1420.42,-85.77 1452.5,-77.7"/>
<polygon fill="#63b8ff" stroke="#63b8ff" points="1453.07,-81.16 1461.93,-75.36 1451.38,-74.37 1453.07,-81.16"/>
</a>
</g>
</g>
<!-- Node25 -->
<g id="Node000025" class="node">
<title>Node25</title>
<g id="a_Node000025"><a xlink:href="_t_channel_8h.html" target="_top" xlink:title=" ">
<polygon fill="white" stroke="#666666" points="1054,-129.75 989.25,-129.75 989.25,-110.5 1054,-110.5 1054,-129.75"/>
<text text-anchor="middle" x="1021.62" y="-116.25" font-family="Helvetica,sans-Serif" font-size="10.00">TChannel.h</text>
</a>
</g>
</g>
<!-- Node3&#45;&gt;Node25 -->
<g id="edge29_Node000003_Node000025" class="edge">
<title>Node3&#45;&gt;Node25</title>
<g id="a_edge29_Node000003_Node000025"><a xlink:title=" ">
<path fill="none" stroke="#63b8ff" d="M1049.02,-165.58C1042.42,-158.61 1034.66,-148.62 1028.88,-139.87"/>
<polygon fill="#63b8ff" stroke="#63b8ff" points="1031.93,-138.17 1023.78,-131.41 1025.94,-141.78 1031.93,-138.17"/>
</a>
</g>
</g>
<!-- Node8&#45;&gt;Node2 -->
<g id="edge13_Node000008_Node000002" class="edge">
<title>Node8&#45;&gt;Node2</title>
<g id="a_edge13_Node000008_Node000002"><a xlink:title=" ">
<path fill="none" stroke="#63b8ff" d="M577.08,-60.22C591.08,-58.52 608.22,-56.58 623.62,-55.25 910.17,-30.5 1257.83,-15.9 1363.01,-11.81"/>
<polygon fill="#63b8ff" stroke="#63b8ff" points="1362.97,-15.32 1372.83,-11.43 1362.7,-8.32 1362.97,-15.32"/>
</a>
</g>
</g>
<!-- Node8&#45;&gt;Node4 -->
<g id="edge10_Node000008_Node000004" class="edge">
<title>Node8&#45;&gt;Node4</title>
<g id="a_edge10_Node000008_Node000004"><a xlink:title=" ">
<path fill="none" stroke="#63b8ff" d="M577.02,-57.63C581.56,-56.76 586.21,-55.92 590.62,-55.25 745.16,-31.68 789,-45.29 946.54,-19.37"/>
<polygon fill="#63b8ff" stroke="#63b8ff" points="946.8,-22.87 956.09,-17.77 945.65,-15.97 946.8,-22.87"/>
</a>
</g>
</g>
<!-- Node8&#45;&gt;Node5 -->
<g id="edge18_Node000008_Node000005" class="edge">
<title>Node8&#45;&gt;Node5</title>
<g id="a_edge18_Node000008_Node000005"><a xlink:title=" ">
<path fill="none" stroke="#63b8ff" d="M520.1,-62.77C446.19,-59.58 242.27,-48.77 62.77,-19.34"/>
<polygon fill="#63b8ff" stroke="#63b8ff" points="63.46,-15.91 53.02,-17.72 62.31,-22.81 63.46,-15.91"/>
</a>
</g>
</g>
<!-- Node9 -->
<g id="Node000009" class="node">
<title>Node9</title>
<g id="a_Node000009"><a xlink:title=" ">
<polygon fill="#e0e0e0" stroke="#999999" points="335.25,-19.25 290,-19.25 290,0 335.25,0 335.25,-19.25"/>
<text text-anchor="middle" x="312.62" y="-5.75" font-family="Helvetica,sans-Serif" font-size="10.00">cstdint</text>
</a>
</g>
</g>
<!-- Node8&#45;&gt;Node9 -->
<g id="edge9_Node000008_Node000009" class="edge">
<title>Node8&#45;&gt;Node9</title>
<g id="a_edge9_Node000008_Node000009"><a xlink:title=" ">
<path fill="none" stroke="#63b8ff" d="M520.14,-58.09C482.63,-50.38 414.36,-36.02 346.54,-19.62"/>
<polygon fill="#63b8ff" stroke="#63b8ff" points="347.68,-16.3 337.13,-17.33 346.02,-23.1 347.68,-16.3"/>
</a>
</g>
</g>
<!-- Node10 -->
<g id="Node000010" class="node">
<title>Node10</title>
<g id="a_Node000010"><a xlink:title=" ">
<polygon fill="#e0e0e0" stroke="#999999" points="403.5,-19.25 353.75,-19.25 353.75,0 403.5,0 403.5,-19.25"/>
<text text-anchor="middle" x="378.62" y="-5.75" font-family="Helvetica,sans-Serif" font-size="10.00">iomanip</text>
</a>
</g>
</g>
<!-- Node8&#45;&gt;Node10 -->
<g id="edge11_Node000008_Node000010" class="edge">
<title>Node8&#45;&gt;Node10</title>
<g id="a_edge11_Node000008_Node000010"><a xlink:title=" ">
<path fill="none" stroke="#63b8ff" d="M520.17,-54.96C491.21,-45.89 446.23,-31.8 414.77,-21.95"/>
<polygon fill="#63b8ff" stroke="#63b8ff" points="415.87,-18.63 405.28,-18.98 413.78,-25.31 415.87,-18.63"/>
</a>
</g>
</g>
<!-- Node11 -->
<g id="Node000011" class="node">
<title>Node11</title>
<g id="a_Node000011"><a xlink:title=" ">
<polygon fill="#e0e0e0" stroke="#999999" points="479.62,-19.25 421.62,-19.25 421.62,0 479.62,0 479.62,-19.25"/>
<text text-anchor="middle" x="450.62" y="-5.75" font-family="Helvetica,sans-Serif" font-size="10.00">stdexcept</text>
</a>
</g>
</g>
<!-- Node8&#45;&gt;Node11 -->
<g id="edge12_Node000008_Node000011" class="edge">
<title>Node8&#45;&gt;Node11</title>
<g id="a_edge12_Node000008_Node000011"><a xlink:title=" ">
<path fill="none" stroke="#63b8ff" d="M532,-54.84C516.94,-46.66 494.48,-34.46 476.97,-24.94"/>
<polygon fill="#63b8ff" stroke="#63b8ff" points="479.12,-22.12 468.66,-20.43 475.78,-28.27 479.12,-22.12"/>
</a>
</g>
</g>
<!-- Node12 -->
<g id="Node000012" class="node">
<title>Node12</title>
<g id="a_Node000012"><a xlink:title=" ">
<polygon fill="#e0e0e0" stroke="#999999" points="539.75,-19.25 497.5,-19.25 497.5,0 539.75,0 539.75,-19.25"/>
<text text-anchor="middle" x="518.62" y="-5.75" font-family="Helvetica,sans-Serif" font-size="10.00">cstdio</text>
</a>
</g>
</g>
<!-- Node8&#45;&gt;Node12 -->
<g id="edge14_Node000008_Node000012" class="edge">
<title>Node8&#45;&gt;Node12</title>
<g id="a_edge14_Node000008_Node000012"><a xlink:title=" ">
<path fill="none" stroke="#63b8ff" d="M543.67,-55.08C539.74,-48.11 534.11,-38.12 529.19,-29.37"/>
<polygon fill="#63b8ff" stroke="#63b8ff" points="532.39,-27.92 524.43,-20.93 526.29,-31.36 532.39,-27.92"/>
</a>
</g>
</g>
<!-- Node13 -->
<g id="Node000013" class="node">
<title>Node13</title>
<g id="a_Node000013"><a xlink:title=" ">
<polygon fill="#e0e0e0" stroke="#999999" points="601.88,-19.25 557.38,-19.25 557.38,0 601.88,0 601.88,-19.25"/>
<text text-anchor="middle" x="579.62" y="-5.75" font-family="Helvetica,sans-Serif" font-size="10.00">cstdlib</text>
</a>
</g>
</g>
<!-- Node8&#45;&gt;Node13 -->
<g id="edge15_Node000008_Node000013" class="edge">
<title>Node8&#45;&gt;Node13</title>
<g id="a_edge15_Node000008_Node000013"><a xlink:title=" ">
<path fill="none" stroke="#63b8ff" d="M553.74,-55.08C557.8,-48.11 563.62,-38.12 568.71,-29.37"/>
<polygon fill="#63b8ff" stroke="#63b8ff" points="571.63,-31.32 573.63,-20.92 565.58,-27.8 571.63,-31.32"/>
</a>
</g>
</g>
<!-- Node14 -->
<g id="Node000014" class="node">
<title>Node14</title>
<g id="a_Node000014"><a xlink:title=" ">
<polygon fill="#e0e0e0" stroke="#999999" points="679.38,-19.25 619.88,-19.25 619.88,0 679.38,0 679.38,-19.25"/>
<text text-anchor="middle" x="649.62" y="-5.75" font-family="Helvetica,sans-Serif" font-size="10.00">execinfo.h</text>
</a>
</g>
</g>
<!-- Node8&#45;&gt;Node14 -->
<g id="edge16_Node000008_Node000014" class="edge">
<title>Node8&#45;&gt;Node14</title>
<g id="a_edge16_Node000008_Node000014"><a xlink:title=" ">
<path fill="none" stroke="#63b8ff" d="M565.76,-54.84C581.28,-46.66 604.43,-34.46 622.47,-24.94"/>
<polygon fill="#63b8ff" stroke="#63b8ff" points="623.86,-28.17 631.07,-20.41 620.59,-21.98 623.86,-28.17"/>
</a>
</g>
</g>
<!-- Node15 -->
<g id="Node000015" class="node">
<title>Node15</title>
<g id="a_Node000015"><a xlink:title=" ">
<polygon fill="#e0e0e0" stroke="#999999" points="747.88,-19.25 697.38,-19.25 697.38,0 747.88,0 747.88,-19.25"/>
<text text-anchor="middle" x="722.62" y="-5.75" font-family="Helvetica,sans-Serif" font-size="10.00">cxxabi.h</text>
</a>
</g>
</g>
<!-- Node8&#45;&gt;Node15 -->
<g id="edge17_Node000008_Node000015" class="edge">
<title>Node8&#45;&gt;Node15</title>
<g id="a_edge17_Node000008_Node000015"><a xlink:title=" ">
<path fill="none" stroke="#63b8ff" d="M577.36,-55.08C607.15,-45.97 653.8,-31.69 686.17,-21.78"/>
<polygon fill="#63b8ff" stroke="#63b8ff" points="686.99,-25.19 695.52,-18.92 684.94,-18.5 686.99,-25.19"/>
</a>
</g>
</g>
<!-- Node16 -->
<g id="Node000016" class="node">
<title>Node16</title>
<g id="a_Node000016"><a xlink:title=" ">
<polygon fill="#e0e0e0" stroke="#999999" points="803.12,-19.25 766.12,-19.25 766.12,0 803.12,0 803.12,-19.25"/>
<text text-anchor="middle" x="784.62" y="-5.75" font-family="Helvetica,sans-Serif" font-size="10.00">array</text>
</a>
</g>
</g>
<!-- Node8&#45;&gt;Node16 -->
<g id="edge19_Node000008_Node000016" class="edge">
<title>Node8&#45;&gt;Node16</title>
<g id="a_edge19_Node000008_Node000016"><a xlink:title=" ">
<path fill="none" stroke="#63b8ff" d="M577.08,-57.91C624.34,-48 716.92,-28.48 754.77,-19.43"/>
<polygon fill="#63b8ff" stroke="#63b8ff" points="755.39,-22.88 764.24,-17.06 753.69,-16.09 755.39,-22.88"/>
</a>
</g>
</g>
<!-- Node17 -->
<g id="Node000017" class="node">
<title>Node17</title>
<g id="a_Node000017"><a xlink:title=" ">
<polygon fill="#e0e0e0" stroke="#999999" points="871.88,-19.25 821.38,-19.25 821.38,0 871.88,0 871.88,-19.25"/>
<text text-anchor="middle" x="846.62" y="-5.75" font-family="Helvetica,sans-Serif" font-size="10.00">memory</text>
</a>
</g>
</g>
<!-- Node8&#45;&gt;Node17 -->
<g id="edge20_Node000008_Node000017" class="edge">
<title>Node8&#45;&gt;Node17</title>
<g id="a_edge20_Node000008_Node000017"><a xlink:title=" ">
<path fill="none" stroke="#63b8ff" d="M577.06,-57.87C581.59,-56.96 586.23,-56.06 590.62,-55.25 684.96,-37.89 712.18,-39.06 809.78,-19.47"/>
<polygon fill="#63b8ff" stroke="#63b8ff" points="810.48,-22.9 819.58,-17.48 809.08,-16.04 810.48,-22.9"/>
</a>
</g>
</g>
<!-- Node18 -->
<g id="Node000018" class="node">
<title>Node18</title>
<g id="a_Node000018"><a xlink:title=" ">
<polygon fill="#e0e0e0" stroke="#999999" points="939.5,-19.25 889.75,-19.25 889.75,0 939.5,0 939.5,-19.25"/>
<text text-anchor="middle" x="914.62" y="-5.75" font-family="Helvetica,sans-Serif" font-size="10.00">unistd.h</text>
</a>
</g>
</g>
<!-- Node8&#45;&gt;Node18 -->
<g id="edge21_Node000008_Node000018" class="edge">
<title>Node8&#45;&gt;Node18</title>
<g id="a_edge21_Node000008_Node000018"><a xlink:title=" ">
<path fill="none" stroke="#63b8ff" d="M577.04,-57.72C581.57,-56.83 586.22,-55.97 590.62,-55.25 715.28,-34.75 751.05,-42.79 878.48,-19.43"/>
<polygon fill="#63b8ff" stroke="#63b8ff" points="878.78,-22.94 887.96,-17.66 877.49,-16.05 878.78,-22.94"/>
</a>
</g>
</g>
<!-- Node19 -->
<g id="Node000019" class="node">
<title>Node19</title>
<g id="a_Node000019"><a xlink:title=" ">
<polygon fill="#e0e0e0" stroke="#999999" points="115.62,-19.25 69.62,-19.25 69.62,0 115.62,0 115.62,-19.25"/>
<text text-anchor="middle" x="92.62" y="-5.75" font-family="Helvetica,sans-Serif" font-size="10.00">TEnv.h</text>
</a>
</g>
</g>
<!-- Node8&#45;&gt;Node19 -->
<g id="edge22_Node000008_Node000019" class="edge">
<title>Node8&#45;&gt;Node19</title>
<g id="a_edge22_Node000008_Node000019"><a xlink:title=" ">
<path fill="none" stroke="#63b8ff" d="M520.12,-62.44C453.12,-58.73 280.33,-47.24 126.95,-19.4"/>
<polygon fill="#63b8ff" stroke="#63b8ff" points="127.9,-16.02 117.43,-17.64 126.63,-22.9 127.9,-16.02"/>
</a>
</g>
</g>
<!-- Node20 -->
<g id="Node000020" class="node">
<title>Node20</title>
<g id="a_Node000020"><a xlink:title=" ">
<polygon fill="#e0e0e0" stroke="#999999" points="193.38,-19.25 133.88,-19.25 133.88,0 193.38,0 193.38,-19.25"/>
<text text-anchor="middle" x="163.62" y="-5.75" font-family="Helvetica,sans-Serif" font-size="10.00">sys/wait.h</text>
</a>
</g>
</g>
<!-- Node8&#45;&gt;Node20 -->
<g id="edge23_Node000008_Node000020" class="edge">
<title>Node8&#45;&gt;Node20</title>
<g id="a_edge23_Node000008_Node000020"><a xlink:title=" ">
<path fill="none" stroke="#63b8ff" d="M520.24,-61.08C462.71,-55.24 328.06,-40.62 204.92,-19.51"/>
<polygon fill="#63b8ff" stroke="#63b8ff" points="205.75,-16.1 195.3,-17.84 204.55,-23 205.75,-16.1"/>
</a>
</g>
</g>
<!-- Node21 -->
<g id="Node000021" class="node">
<title>Node21</title>
<g id="a_Node000021"><a xlink:title=" ">
<polygon fill="#e0e0e0" stroke="#999999" points="271.75,-19.25 211.5,-19.25 211.5,0 271.75,0 271.75,-19.25"/>
<text text-anchor="middle" x="241.62" y="-5.75" font-family="Helvetica,sans-Serif" font-size="10.00">sys/prctl.h</text>
</a>
</g>
</g>
<!-- Node8&#45;&gt;Node21 -->
<g id="edge24_Node000008_Node000021" class="edge">
<title>Node8&#45;&gt;Node21</title>
<g id="a_edge24_Node000008_Node000021"><a xlink:title=" ">
<path fill="none" stroke="#63b8ff" d="M519.98,-59.61C472.78,-52.48 375.45,-37.31 283.06,-19.64"/>
<polygon fill="#63b8ff" stroke="#63b8ff" points="283.79,-16.21 273.31,-17.76 282.47,-23.09 283.79,-16.21"/>
</a>
</g>
</g>
<!-- Node22&#45;&gt;Node2 -->
<g id="edge27_Node000022_Node000002" class="edge">
<title>Node22&#45;&gt;Node2</title>
<g id="a_edge27_Node000022_Node000002"><a xlink:title=" ">
<path fill="none" stroke="#63b8ff" d="M1484.3,-54.84C1467.55,-46.58 1442.49,-34.23 1423.12,-24.68"/>
<polygon fill="#63b8ff" stroke="#63b8ff" points="1424.91,-21.65 1414.39,-20.37 1421.81,-27.93 1424.91,-21.65"/>
</a>
</g>
</g>
<!-- Node23 -->
<g id="Node000023" class="node">
<title>Node23</title>
<g id="a_Node000023"><a xlink:title=" ">
<polygon fill="#e0e0e0" stroke="#999999" points="1506.25,-19.25 1455,-19.25 1455,0 1506.25,0 1506.25,-19.25"/>
<text text-anchor="middle" x="1480.62" y="-5.75" font-family="Helvetica,sans-Serif" font-size="10.00">ostream</text>
</a>
</g>
</g>
<!-- Node22&#45;&gt;Node23 -->
<g id="edge26_Node000022_Node000023" class="edge">
<title>Node22&#45;&gt;Node23</title>
<g id="a_edge26_Node000022_Node000023"><a xlink:title=" ">
<path fill="none" stroke="#63b8ff" d="M1498.99,-55.08C1496.21,-48.34 1492.25,-38.77 1488.73,-30.24"/>
<polygon fill="#63b8ff" stroke="#63b8ff" points="1491.97,-28.91 1484.91,-21.01 1485.5,-31.59 1491.97,-28.91"/>
</a>
</g>
</g>
<!-- Node24 -->
<g id="Node000024" class="node">
<title>Node24</title>
<g id="a_Node000024"><a xlink:title=" ">
<polygon fill="#e0e0e0" stroke="#999999" points="1567.12,-19.25 1524.12,-19.25 1524.12,0 1567.12,0 1567.12,-19.25"/>
<text text-anchor="middle" x="1545.62" y="-5.75" font-family="Helvetica,sans-Serif" font-size="10.00">vector</text>
</a>
</g>
</g>
<!-- Node22&#45;&gt;Node24 -->
<g id="edge28_Node000022_Node000024" class="edge">
<title>Node22&#45;&gt;Node24</title>
<g id="a_edge28_Node000022_Node000024"><a xlink:title=" ">
<path fill="none" stroke="#63b8ff" d="M1509.73,-55.08C1515.54,-47.88 1523.96,-37.46 1531.18,-28.51"/>
<polygon fill="#63b8ff" stroke="#63b8ff" points="1533.86,-30.77 1537.42,-20.79 1528.41,-26.37 1533.86,-30.77"/>
</a>
</g>
</g>
<!-- Node25&#45;&gt;Node2 -->
<g id="edge31_Node000025_Node000002" class="edge">
<title>Node25&#45;&gt;Node2</title>
<g id="a_edge31_Node000025_Node000002"><a xlink:title=" ">
<path fill="none" stroke="#63b8ff" d="M1054.26,-112.03C1057.08,-111.48 1059.9,-110.96 1062.62,-110.5 1183.7,-89.84 1227.8,-131.45 1336.62,-74.5 1356.68,-64 1373.27,-43.64 1383.5,-28.72"/>
<polygon fill="#63b8ff" stroke="#63b8ff" points="1386.18,-31 1388.7,-20.71 1380.32,-27.19 1386.18,-31"/>
</a>
</g>
</g>
<!-- Node25&#45;&gt;Node3 -->
<g id="edge40_Node000025_Node000003" class="edge">
<title>Node25&#45;&gt;Node3</title>
<g id="a_edge40_Node000025_Node000003"><a xlink:title=" ">
<path fill="none" stroke="#63b8ff" d="M1033.41,-130.11C1040.03,-137.14 1047.78,-147.14 1053.53,-155.87"/>
<polygon fill="#63b8ff" stroke="#63b8ff" points="1050.43,-157.5 1058.57,-164.28 1056.44,-153.91 1050.43,-157.5"/>
</a>
</g>
</g>
<!-- Node25&#45;&gt;Node4 -->
<g id="edge30_Node000025_Node000004" class="edge">
<title>Node25&#45;&gt;Node4</title>
<g id="a_edge30_Node000025_Node000004"><a xlink:title=" ">
<path fill="none" stroke="#63b8ff" d="M989.08,-116.61C938.32,-111.92 843.98,-99.96 823.62,-74.5 818.28,-67.82 818.45,-62.06 823.62,-55.25 827.44,-50.24 900.18,-31.49 946.57,-19.95"/>
<polygon fill="#63b8ff" stroke="#63b8ff" points="947.12,-23.42 955.99,-17.61 945.44,-16.62 947.12,-23.42"/>
</a>
</g>
</g>
<!-- Node25&#45;&gt;Node8 -->
<g id="edge42_Node000025_Node000008" class="edge">
<title>Node25&#45;&gt;Node8</title>
<g id="a_edge42_Node000025_Node000008"><a xlink:title=" ">
<path fill="none" stroke="#63b8ff" d="M988.86,-115.48C920.81,-107.91 759.21,-89.9 623.62,-74.5 612.22,-73.2 599.84,-71.79 588.49,-70.48"/>
<polygon fill="#63b8ff" stroke="#63b8ff" points="588.95,-67.01 578.62,-69.34 588.15,-73.97 588.95,-67.01"/>
</a>
</g>
</g>
<!-- Node25&#45;&gt;Node22 -->
<g id="edge43_Node000025_Node000022" class="edge">
<title>Node25&#45;&gt;Node22</title>
<g id="a_edge43_Node000025_Node000022"><a xlink:title=" ">
<path fill="none" stroke="#63b8ff" d="M1054.24,-111.94C1057.07,-111.41 1059.89,-110.92 1062.62,-110.5 1201.07,-88.98 1365.7,-75.47 1448.84,-69.48"/>
<polygon fill="#63b8ff" stroke="#63b8ff" points="1449.03,-72.97 1458.76,-68.77 1448.53,-65.99 1449.03,-72.97"/>
</a>
</g>
</g>
<!-- Node26 -->
<g id="Node000026" class="node">
<title>Node26</title>
<g id="a_Node000026"><a xlink:title=" ">
<polygon fill="#e0e0e0" stroke="#999999" points="876.12,-74.5 833.12,-74.5 833.12,-55.25 876.12,-55.25 876.12,-74.5"/>
<text text-anchor="middle" x="854.62" y="-61" font-family="Helvetica,sans-Serif" font-size="10.00">cmath</text>
</a>
</g>
</g>
<!-- Node25&#45;&gt;Node26 -->
<g id="edge32_Node000025_Node000026" class="edge">
<title>Node25&#45;&gt;Node26</title>
<g id="a_edge32_Node000025_Node000026"><a xlink:title=" ">
<path fill="none" stroke="#63b8ff" d="M993.3,-110.09C963.87,-100.71 917.91,-86.05 887.05,-76.21"/>
<polygon fill="#63b8ff" stroke="#63b8ff" points="888.46,-72.99 877.87,-73.29 886.33,-79.66 888.46,-72.99"/>
</a>
</g>
</g>
<!-- Node27 -->
<g id="Node000027" class="node">
<title>Node27</title>
<g id="a_Node000027"><a xlink:title=" ">
<polygon fill="#e0e0e0" stroke="#999999" points="932.88,-74.5 894.38,-74.5 894.38,-55.25 932.88,-55.25 932.88,-74.5"/>
<text text-anchor="middle" x="913.62" y="-61" font-family="Helvetica,sans-Serif" font-size="10.00">utility</text>
</a>
</g>
</g>
<!-- Node25&#45;&gt;Node27 -->
<g id="edge33_Node000025_Node000027" class="edge">
<title>Node25&#45;&gt;Node27</title>
<g id="a_edge33_Node000025_Node000027"><a xlink:title=" ">
<path fill="none" stroke="#63b8ff" d="M1003.3,-110.09C986.55,-101.83 961.49,-89.48 942.12,-79.93"/>
<polygon fill="#63b8ff" stroke="#63b8ff" points="943.91,-76.9 933.39,-75.62 940.81,-83.18 943.91,-76.9"/>
</a>
</g>
</g>
<!-- Node28 -->
<g id="Node000028" class="node">
<title>Node28</title>
<g id="a_Node000028"><a xlink:title=" ">
<polygon fill="#e0e0e0" stroke="#999999" points="1034,-74.5 951.25,-74.5 951.25,-55.25 1034,-55.25 1034,-74.5"/>
<text text-anchor="middle" x="992.62" y="-61" font-family="Helvetica,sans-Serif" font-size="10.00">unordered_map</text>
</a>
</g>
</g>
<!-- Node25&#45;&gt;Node28 -->
<g id="edge34_Node000025_Node000028" class="edge">
<title>Node25&#45;&gt;Node28</title>
<g id="a_edge34_Node000025_Node000028"><a xlink:title=" ">
<path fill="none" stroke="#63b8ff" d="M1016.84,-110.33C1013.08,-103.44 1007.72,-93.59 1002.99,-84.91"/>
<polygon fill="#63b8ff" stroke="#63b8ff" points="1006.1,-83.3 998.24,-76.19 999.95,-86.64 1006.1,-83.3"/>
</a>
</g>
</g>
<!-- Node29 -->
<g id="Node000029" class="node">
<title>Node29</title>
<g id="a_Node000029"><a xlink:title=" ">
<polygon fill="#e0e0e0" stroke="#999999" points="1113.12,-74.5 1052.12,-74.5 1052.12,-55.25 1113.12,-55.25 1113.12,-74.5"/>
<text text-anchor="middle" x="1082.62" y="-61" font-family="Helvetica,sans-Serif" font-size="10.00">TNamed.h</text>
</a>
</g>
</g>
<!-- Node25&#45;&gt;Node29 -->
<g id="edge35_Node000025_Node000029" class="edge">
<title>Node25&#45;&gt;Node29</title>
<g id="a_edge35_Node000025_Node000029"><a xlink:title=" ">
<path fill="none" stroke="#63b8ff" d="M1031.97,-110.09C1040.7,-102.47 1053.41,-91.37 1063.92,-82.2"/>
<polygon fill="#63b8ff" stroke="#63b8ff" points="1066.06,-84.98 1071.29,-75.77 1061.45,-79.71 1066.06,-84.98"/>
</a>
</g>
</g>
<!-- Node30 -->
<g id="Node000030" class="node">
<title>Node30</title>
<g id="a_Node000030"><a xlink:title=" ">
<polygon fill="#e0e0e0" stroke="#999999" points="1196.38,-74.5 1130.88,-74.5 1130.88,-55.25 1196.38,-55.25 1196.38,-74.5"/>
<text text-anchor="middle" x="1163.62" y="-61" font-family="Helvetica,sans-Serif" font-size="10.00">TRandom.h</text>
</a>
</g>
</g>
<!-- Node25&#45;&gt;Node30 -->
<g id="edge36_Node000025_Node000030" class="edge">
<title>Node25&#45;&gt;Node30</title>
<g id="a_edge36_Node000025_Node000030"><a xlink:title=" ">
<path fill="none" stroke="#63b8ff" d="M1045.71,-110.09C1068.56,-101.52 1103.14,-88.56 1128.95,-78.88"/>
<polygon fill="#63b8ff" stroke="#63b8ff" points="1129.87,-82.27 1138,-75.48 1127.41,-75.72 1129.87,-82.27"/>
</a>
</g>
</g>
<!-- Node31 -->
<g id="Node000031" class="node">
<title>Node31</title>
<g id="a_Node000031"><a xlink:title=" ">
<polygon fill="#e0e0e0" stroke="#999999" points="1260.62,-74.5 1214.62,-74.5 1214.62,-55.25 1260.62,-55.25 1260.62,-74.5"/>
<text text-anchor="middle" x="1237.62" y="-61" font-family="Helvetica,sans-Serif" font-size="10.00">TList.h</text>
</a>
</g>
</g>
<!-- Node25&#45;&gt;Node31 -->
<g id="edge37_Node000025_Node000031" class="edge">
<title>Node25&#45;&gt;Node31</title>
<g id="a_edge37_Node000025_Node000031"><a xlink:title=" ">
<path fill="none" stroke="#63b8ff" d="M1054.26,-111.47C1088.93,-103.29 1145.62,-89.74 1203.42,-75.02"/>
<polygon fill="#63b8ff" stroke="#63b8ff" points="1203.94,-78.5 1212.76,-72.63 1202.2,-71.72 1203.94,-78.5"/>
</a>
</g>
</g>
<!-- Node32 -->
<g id="Node000032" class="node">
<title>Node32</title>
<g id="a_Node000032"><a xlink:title=" ">
<polygon fill="#e0e0e0" stroke="#999999" points="1328.12,-74.5 1279.12,-74.5 1279.12,-55.25 1328.12,-55.25 1328.12,-74.5"/>
<text text-anchor="middle" x="1303.62" y="-61" font-family="Helvetica,sans-Serif" font-size="10.00">TTree.h</text>
</a>
</g>
</g>
<!-- Node25&#45;&gt;Node32 -->
<g id="edge38_Node000025_Node000032" class="edge">
<title>Node25&#45;&gt;Node32</title>
<g id="a_edge38_Node000025_Node000032"><a xlink:title=" ">
<path fill="none" stroke="#63b8ff" d="M1054.28,-112.15C1057.1,-111.58 1059.91,-111.02 1062.62,-110.5 1150.84,-93.56 1176.38,-93.94 1267.64,-74.78"/>
<polygon fill="#63b8ff" stroke="#63b8ff" points="1268.26,-78.22 1277.31,-72.72 1266.8,-71.38 1268.26,-78.22"/>
</a>
</g>
</g>
<!-- Node33 -->
<g id="Node000033" class="node">
<title>Node33</title>
<g id="a_Node000033"><a xlink:title=" ">
<polygon fill="#e0e0e0" stroke="#999999" points="688.5,-74.5 632.75,-74.5 632.75,-55.25 688.5,-55.25 688.5,-74.5"/>
<text text-anchor="middle" x="660.62" y="-61" font-family="Helvetica,sans-Serif" font-size="10.00">TGraph.h</text>
</a>
</g>
</g>
<!-- Node25&#45;&gt;Node33 -->
<g id="edge39_Node000025_Node000033" class="edge">
<title>Node25&#45;&gt;Node33</title>
<g id="a_edge39_Node000025_Node000033"><a xlink:title=" ">
<path fill="none" stroke="#63b8ff" d="M988.81,-115.62C932.02,-109.33 811.52,-95.04 699.96,-74.78"/>
<polygon fill="#63b8ff" stroke="#63b8ff" points="700.81,-71.38 690.34,-73.01 699.54,-78.26 700.81,-71.38"/>
</a>
</g>
</g>
<!-- Node34 -->
<g id="Node000034" class="node">
<title>Node34</title>
<g id="a_Node000034"><a xlink:title=" ">
<polygon fill="#e0e0e0" stroke="#999999" points="776.25,-74.5 707,-74.5 707,-55.25 776.25,-55.25 776.25,-74.5"/>
<text text-anchor="middle" x="741.62" y="-61" font-family="Helvetica,sans-Serif" font-size="10.00">TClassRef.h</text>
</a>
</g>
</g>
<!-- Node25&#45;&gt;Node34 -->
<g id="edge41_Node000025_Node000034" class="edge">
<title>Node25&#45;&gt;Node34</title>
<g id="a_edge41_Node000025_Node000034"><a xlink:title=" ">
<path fill="none" stroke="#63b8ff" d="M988.96,-112.91C939.29,-103.47 844.59,-85.46 787.87,-74.67"/>
<polygon fill="#63b8ff" stroke="#63b8ff" points="788.68,-71.26 778.2,-72.83 787.37,-78.14 788.68,-71.26"/>
</a>
</g>
</g>
</g>
</svg>

<g id="navigator" transform="translate(0 0)" fill="#404254">
  <rect fill="#f2f5e9" fill-opacity="0.5" stroke="#606060" stroke-width=".5" x="0" y="0" width="60" height="60"/>
  <use id="zoomplus" xlink:href="#zoomPlus" x="17" y="9" onmousedown="handleZoom(evt,'in')"/>
  <use id="zoomminus" xlink:href="#zoomMin" x="42" y="9" onmousedown="handleZoom(evt,'out')"/>
  <use id="reset" xlink:href="#resetDef" x="30" y="36" onmousedown="handleReset()"/>
   <use id="arrowup" xlink:href="#arrowUp" x="0" y="0" onmousedown="handlePan(0,-1)"/>
  <use id="arrowright" xlink:href="#arrowRight" x="0" y="0" onmousedown="handlePan(1,0)"/>
  <use id="arrowdown" xlink:href="#arrowDown" x="0" y="0" onmousedown="handlePan(0,1)"/>
  <use id="arrowleft" xlink:href="#arrowLeft" x="0" y="0" onmousedown="handlePan(-1,0)"/>
</g>
<svg viewBox="0 0 15 15" width="100%" height="30px" preserveAspectRatio="xMaxYMin meet">
 <g id="arrow_out" transform="scale(0.3 0.3)">
  <a xlink:href="_t_tdr_mnemonic_8h__incl_org.svg" target="_base">
   <rect id="button" ry="5" rx="5" y="6" x="6" height="38" width="38"
        fill="#f2f5e9" fill-opacity="0.5" stroke="#606060" stroke-width="1.0"/>
   <path id="arrow"
     d="M 11.500037,31.436501 C 11.940474,20.09759 22.043105,11.32322 32.158766,21.979434 L 37.068811,17.246167 C 37.068811,17.246167 37.088388,32 37.088388,32 L 22.160133,31.978069 C 22.160133,31.978069 26.997745,27.140456 26.997745,27.140456 C 18.528582,18.264221 13.291696,25.230495 11.500037,31.436501 z"
     style="fill:#404040;"/>
  </a>
 </g>
</svg>

<style type='text/css'>
<![CDATA[
[data-mouse-over-selected='false'] { opacity: 0.7; }
[data-mouse-over-selected='true']  { opacity: 1.0; }
]]>
</style>
<script type="application/ecmascript"><![CDATA[
document.addEventListener('DOMContentLoaded', (event) => {
  highlightEdges();
  highlightAdjacentNodes();
});
]]></script>
</svg>
