<?xml version="1.0" encoding="UTF-8" standalone="no"?>
<!DOCTYPE svg PUBLIC "-//W3C//DTD SVG 1.1//EN"
 "http://www.w3.org/Graphics/SVG/1.1/DTD/svg11.dtd">
<!-- Generated by graphviz version 9.0.0 (20230911.1827)
 -->
<!-- Title: TTdrTigressHit.h Pages: 1 -->
<svg width="324pt" height="138pt"
 viewBox="0.00 0.00 323.75 137.75" xmlns="http://www.w3.org/2000/svg" xmlns:xlink="http://www.w3.org/1999/xlink">

<svg id="main" version="1.1" xmlns="http://www.w3.org/2000/svg" xmlns:xlink="http://www.w3.org/1999/xlink" xml:space="preserve" onload="init(evt)">
<style type="text/css"><![CDATA[
.node, .edge {opacity: 0.7;}
.node.selected, .edge.selected {opacity: 1;}
.edge:hover path { stroke: red; }
.edge:hover polygon { stroke: red; fill: red; }
]]></style>
<script type="application/ecmascript" xlink:href="svg.min.js"/>
<svg id="graph" class="graph">
<g id="graph0" class="graph" transform="scale(1 1) rotate(0) translate(4 133.75)">
<title>TTdrTigressHit.h</title>
<!-- Node1 -->
<g id="Node000001" class="node">
<title>Node1</title>
<g id="a_Node000001"><a xlink:title=" ">
<polygon fill="#999999" stroke="#666666" points="256.25,-129.75 167.5,-129.75 167.5,-110.5 256.25,-110.5 256.25,-129.75"/>
<text text-anchor="middle" x="211.88" y="-116.25" font-family="Helvetica,sans-Serif" font-size="10.00">TTdrTigressHit.h</text>
</a>
</g>
</g>
<!-- Node2 -->
<g id="Node000002" class="node">
<title>Node2</title>
<g id="a_Node000002"><a xlink:href="_t_tdr_tigress_8h.html" target="_top" xlink:title=" ">
<polygon fill="white" stroke="#666666" points="206.88,-74.5 130.88,-74.5 130.88,-55.25 206.88,-55.25 206.88,-74.5"/>
<text text-anchor="middle" x="168.88" y="-61" font-family="Helvetica,sans-Serif" font-size="10.00">TTdrTigress.h</text>
</a>
</g>
</g>
<!-- Node1&#45;&gt;Node2 -->
<g id="edge1_Node000001_Node000002" class="edge">
<title>Node1&#45;&gt;Node2</title>
<g id="a_edge1_Node000001_Node000002"><a xlink:title=" ">
<path fill="none" stroke="#63b8ff" d="M197.62,-101.47C190.42,-92.56 181.99,-82.12 176.13,-74.86"/>
<polygon fill="#63b8ff" stroke="#63b8ff" points="194.82,-103.57 203.82,-109.15 200.26,-99.18 194.82,-103.57"/>
</a>
</g>
</g>
<!-- Node5 -->
<g id="Node000005" class="node">
<title>Node5</title>
<g id="a_Node000005"><a xlink:href="_t_tdr_tigress_hit_8cxx.html" target="_top" xlink:title=" ">
<polygon fill="white" stroke="#666666" points="315.75,-19.25 218,-19.25 218,0 315.75,0 315.75,-19.25"/>
<text text-anchor="middle" x="266.88" y="-5.75" font-family="Helvetica,sans-Serif" font-size="10.00">TTdrTigressHit.cxx</text>
</a>
</g>
</g>
<!-- Node1&#45;&gt;Node5 -->
<g id="edge5_Node000001_Node000005" class="edge">
<title>Node1&#45;&gt;Node5</title>
<g id="a_edge5_Node000001_Node000005"><a xlink:title=" ">
<path fill="none" stroke="#63b8ff" d="M221.53,-100.08C233.5,-76.47 253.4,-37.21 262.31,-19.63"/>
<polygon fill="#63b8ff" stroke="#63b8ff" points="218.46,-98.39 217.06,-108.9 224.7,-101.56 218.46,-98.39"/>
</a>
</g>
</g>
<!-- Node3 -->
<g id="Node000003" class="node">
<title>Node3</title>
<g id="a_Node000003"><a xlink:href="_t_tdr_mnemonic_8cxx.html" target="_top" xlink:title=" ">
<polygon fill="white" stroke="#666666" points="97.75,-19.25 0,-19.25 0,0 97.75,0 97.75,-19.25"/>
<text text-anchor="middle" x="48.88" y="-5.75" font-family="Helvetica,sans-Serif" font-size="10.00">TTdrMnemonic.cxx</text>
</a>
</g>
</g>
<!-- Node2&#45;&gt;Node3 -->
<g id="edge2_Node000002_Node000003" class="edge">
<title>Node2&#45;&gt;Node3</title>
<g id="a_edge2_Node000002_Node000003"><a xlink:title=" ">
<path fill="none" stroke="#63b8ff" d="M138.22,-50.27C116.6,-40.68 88.24,-28.09 69.33,-19.7"/>
<polygon fill="#63b8ff" stroke="#63b8ff" points="136.58,-53.37 147.14,-54.23 139.41,-46.97 136.58,-53.37"/>
</a>
</g>
</g>
<!-- Node4 -->
<g id="Node000004" class="node">
<title>Node4</title>
<g id="a_Node000004"><a xlink:href="_t_tdr_tigress_8cxx.html" target="_top" xlink:title=" ">
<polygon fill="white" stroke="#666666" points="200.38,-19.25 115.38,-19.25 115.38,0 200.38,0 200.38,-19.25"/>
<text text-anchor="middle" x="157.88" y="-5.75" font-family="Helvetica,sans-Serif" font-size="10.00">TTdrTigress.cxx</text>
</a>
</g>
</g>
<!-- Node2&#45;&gt;Node4 -->
<g id="edge3_Node000002_Node000004" class="edge">
<title>Node2&#45;&gt;Node4</title>
<g id="a_edge3_Node000002_Node000004"><a xlink:title=" ">
<path fill="none" stroke="#63b8ff" d="M164.75,-43.92C163.02,-35.55 161.1,-26.25 159.73,-19.61"/>
<polygon fill="#63b8ff" stroke="#63b8ff" points="161.3,-44.51 166.75,-53.6 168.16,-43.1 161.3,-44.51"/>
</a>
</g>
</g>
<!-- Node2&#45;&gt;Node5 -->
<g id="edge4_Node000002_Node000005" class="edge">
<title>Node2&#45;&gt;Node5</title>
<g id="a_edge4_Node000002_Node000005"><a xlink:title=" ">
<path fill="none" stroke="#63b8ff" d="M195.13,-49.61C212.62,-40.11 235.08,-27.9 250.17,-19.7"/>
<polygon fill="#63b8ff" stroke="#63b8ff" points="193.94,-46.27 186.83,-54.12 197.29,-52.42 193.94,-46.27"/>
</a>
</g>
</g>
</g>
</svg>
</svg>

<style type='text/css'>
<![CDATA[
[data-mouse-over-selected='false'] { opacity: 0.7; }
[data-mouse-over-selected='true']  { opacity: 1.0; }
]]>
</style>
<script type="application/ecmascript"><![CDATA[
document.addEventListener('DOMContentLoaded', (event) => {
  highlightEdges();
  highlightAdjacentNodes();
});
]]></script>
</svg>
