<?xml version="1.0" encoding="UTF-8" standalone="no"?>
<!DOCTYPE svg PUBLIC "-//W3C//DTD SVG 1.1//EN"
 "http://www.w3.org/Graphics/SVG/1.1/DTD/svg11.dtd">
<!-- Generated by graphviz version 9.0.0 (20230911.1827)
 -->
<!-- Title: TUnpackedEvent.h Pages: 1 -->
<!--zoomable 248 -->

<svg id="main" version="1.1" xmlns="http://www.w3.org/2000/svg" xmlns:xlink="http://www.w3.org/1999/xlink" xml:space="preserve" onload="init(evt)">
<style type="text/css"><![CDATA[
.node, .edge {opacity: 0.7;}
.node.selected, .edge.selected {opacity: 1;}
.edge:hover path { stroke: red; }
.edge:hover polygon { stroke: red; fill: red; }
]]></style>

<defs>
  <circle id="rim" cx="0" cy="0" r="7"/>
  <circle id="rim2" cx="0" cy="0" r="3.5"/>
  <g id="zoomPlus">
    <use xlink:href="#rim" fill="#404040"><set attributeName="fill" to="#808080" begin="zoomplus.mouseover" end="zoomplus.mouseout"/></use>
    <path d="M-4,0h8M0,-4v8" fill="none" stroke="white" stroke-width="1.5" pointer-events="none"/>
  </g>
  <g id="zoomMin">
    <use xlink:href="#rim" fill="#404040"><set attributeName="fill" to="#808080" begin="zoomminus.mouseover" end="zoomminus.mouseout"/></use>
    <path d="M-4,0h8" fill="none" stroke="white" stroke-width="1.5" pointer-events="none"/>
  </g>
  <g id="arrowUp" transform="translate(30 24)">
    <use xlink:href="#rim"/>
    <path pointer-events="none" fill="none" stroke="white" stroke-width="1.5" d="M0,-3.0v7 M-2.5,-0.5L0,-3.0L2.5,-0.5"/>
  </g>
  <g id="arrowRight" transform="rotate(90) translate(36 -43)">
    <use xlink:href="#rim"/>
    <path pointer-events="none" fill="none" stroke="white" stroke-width="1.5" d="M0,-3.0v7 M-2.5,-0.5L0,-3.0L2.5,-0.5"/>
  </g>
  <g id="arrowDown" transform="rotate(180) translate(-30 -48)">
    <use xlink:href="#rim"/>
    <path pointer-events="none" fill="none" stroke="white" stroke-width="1.5" d="M0,-3.0v7 M-2.5,-0.5L0,-3.0L2.5,-0.5"/>
  </g>
  <g id="arrowLeft" transform="rotate(270) translate(-36 17)">
    <use xlink:href="#rim"/>
    <path pointer-events="none" fill="none" stroke="white" stroke-width="1.5" d="M0,-3.0v7 M-2.5,-0.5L0,-3.0L2.5,-0.5"/>
  </g>
  <g id="resetDef">
    <use xlink:href="#rim2" fill="#404040"><set attributeName="fill" to="#808080" begin="reset.mouseover" end="reset.mouseout"/></use>
  </g>
</defs>
<script type="application/ecmascript">
var viewWidth = 760;
var viewHeight = 248;
var sectionId = 'dynsection-1';
</script>
<script type="application/ecmascript" xlink:href="svg.min.js"/>
<svg id="graph" class="graph">
<g id="viewport">
<title>TUnpackedEvent.h</title>
<!-- Node1 -->
<g id="Node000001" class="node">
<title>Node1</title>
<g id="a_Node000001"><a xlink:title=" ">
<polygon fill="#999999" stroke="#666666" points="337.75,-240.25 239.25,-240.25 239.25,-221 337.75,-221 337.75,-240.25"/>
<text text-anchor="middle" x="288.5" y="-226.75" font-family="Helvetica,sans-Serif" font-size="10.00">TUnpackedEvent.h</text>
</a>
</g>
</g>
<!-- Node2 -->
<g id="Node000002" class="node">
<title>Node2</title>
<g id="a_Node000002"><a xlink:href="_t_analysis_hist_loop_8h.html" target="_top" xlink:title=" ">
<polygon fill="white" stroke="#666666" points="125.5,-74.5 19.5,-74.5 19.5,-55.25 125.5,-55.25 125.5,-74.5"/>
<text text-anchor="middle" x="72.5" y="-61" font-family="Helvetica,sans-Serif" font-size="10.00">TAnalysisHistLoop.h</text>
</a>
</g>
</g>
<!-- Node1&#45;&gt;Node2 -->
<g id="edge1_Node000001_Node000002" class="edge">
<title>Node1&#45;&gt;Node2</title>
<g id="a_edge1_Node000001_Node000002"><a xlink:title=" ">
<path fill="none" stroke="#63b8ff" d="M227.64,-229.47C158.08,-225.47 48.21,-206.56 4.5,-129.75 -8.96,-106.1 24.53,-85.98 49.15,-74.95"/>
<polygon fill="#63b8ff" stroke="#63b8ff" points="227.19,-232.95 237.35,-229.93 227.53,-225.96 227.19,-232.95"/>
</a>
</g>
</g>
<!-- Node5 -->
<g id="Node000005" class="node">
<title>Node5</title>
<g id="a_Node000005"><a xlink:href="_t_analysis_write_loop_8h.html" target="_top" xlink:title=" ">
<polygon fill="white" stroke="#666666" points="216.75,-185 106.25,-185 106.25,-165.75 216.75,-165.75 216.75,-185"/>
<text text-anchor="middle" x="161.5" y="-171.5" font-family="Helvetica,sans-Serif" font-size="10.00">TAnalysisWriteLoop.h</text>
</a>
</g>
</g>
<!-- Node1&#45;&gt;Node5 -->
<g id="edge4_Node000001_Node000005" class="edge">
<title>Node1&#45;&gt;Node5</title>
<g id="a_edge4_Node000001_Node000005"><a xlink:title=" ">
<path fill="none" stroke="#63b8ff" d="M256.37,-216.15C233.45,-206.54 203.25,-193.88 183.15,-185.45"/>
<polygon fill="#63b8ff" stroke="#63b8ff" points="254.98,-219.37 265.56,-220.01 257.69,-212.91 254.98,-219.37"/>
</a>
</g>
</g>
<!-- Node7 -->
<g id="Node000007" class="node">
<title>Node7</title>
<g id="a_Node000007"><a xlink:href="_t_compiled_histograms_8h.html" target="_top" xlink:title=" ">
<polygon fill="white" stroke="#666666" points="309.62,-129.75 189.38,-129.75 189.38,-110.5 309.62,-110.5 309.62,-129.75"/>
<text text-anchor="middle" x="249.5" y="-116.25" font-family="Helvetica,sans-Serif" font-size="10.00">TCompiledHistograms.h</text>
</a>
</g>
</g>
<!-- Node1&#45;&gt;Node7 -->
<g id="edge7_Node000001_Node000007" class="edge">
<title>Node1&#45;&gt;Node7</title>
<g id="a_edge7_Node000001_Node000007"><a xlink:title=" ">
<path fill="none" stroke="#63b8ff" d="M279.19,-210.34C275.61,-202.57 271.63,-193.45 268.5,-185 261.34,-165.69 254.95,-142.35 251.72,-129.92"/>
<polygon fill="#63b8ff" stroke="#63b8ff" points="275.92,-211.62 283.36,-219.17 282.25,-208.64 275.92,-211.62"/>
</a>
</g>
</g>
<!-- Node11 -->
<g id="Node000011" class="node">
<title>Node11</title>
<g id="a_Node000011"><a xlink:href="_t_det_building_loop_8cxx.html" target="_top" xlink:title=" ">
<polygon fill="white" stroke="#666666" points="505.38,-185 395.62,-185 395.62,-165.75 505.38,-165.75 505.38,-185"/>
<text text-anchor="middle" x="450.5" y="-171.5" font-family="Helvetica,sans-Serif" font-size="10.00">TDetBuildingLoop.cxx</text>
</a>
</g>
</g>
<!-- Node1&#45;&gt;Node11 -->
<g id="edge13_Node000001_Node000011" class="edge">
<title>Node1&#45;&gt;Node11</title>
<g id="a_edge13_Node000001_Node000011"><a xlink:title=" ">
<path fill="none" stroke="#63b8ff" d="M326.73,-217.06C356.26,-207.35 396.42,-194.15 422.88,-185.45"/>
<polygon fill="#63b8ff" stroke="#63b8ff" points="325.83,-213.67 317.42,-220.12 328.01,-220.32 325.83,-213.67"/>
</a>
</g>
</g>
<!-- Node12 -->
<g id="Node000012" class="node">
<title>Node12</title>
<g id="a_Node000012"><a xlink:href="_t_runtime_objects_8h.html" target="_top" xlink:title=" ">
<polygon fill="white" stroke="#666666" points="377.12,-185 277.88,-185 277.88,-165.75 377.12,-165.75 377.12,-185"/>
<text text-anchor="middle" x="327.5" y="-171.5" font-family="Helvetica,sans-Serif" font-size="10.00">TRuntimeObjects.h</text>
</a>
</g>
</g>
<!-- Node1&#45;&gt;Node12 -->
<g id="edge14_Node000001_Node000012" class="edge">
<title>Node1&#45;&gt;Node12</title>
<g id="a_edge14_Node000001_Node000012"><a xlink:title=" ">
<path fill="none" stroke="#63b8ff" d="M301.64,-211.69C308.12,-202.84 315.66,-192.54 320.92,-185.36"/>
<polygon fill="#63b8ff" stroke="#63b8ff" points="298.92,-209.48 295.83,-219.61 304.57,-213.61 298.92,-209.48"/>
</a>
</g>
</g>
<!-- Node16 -->
<g id="Node000016" class="node">
<title>Node16</title>
<g id="a_Node000016"><a xlink:href="_t_unpacked_event_8cxx.html" target="_top" xlink:title=" ">
<polygon fill="white" stroke="#666666" points="631.25,-185 523.75,-185 523.75,-165.75 631.25,-165.75 631.25,-185"/>
<text text-anchor="middle" x="577.5" y="-171.5" font-family="Helvetica,sans-Serif" font-size="10.00">TUnpackedEvent.cxx</text>
</a>
</g>
</g>
<!-- Node1&#45;&gt;Node16 -->
<g id="edge19_Node000001_Node000016" class="edge">
<title>Node1&#45;&gt;Node16</title>
<g id="a_edge19_Node000001_Node000016"><a xlink:title=" ">
<path fill="none" stroke="#63b8ff" d="M348.84,-218.51C402.1,-208.69 478.76,-194.57 528.35,-185.43"/>
<polygon fill="#63b8ff" stroke="#63b8ff" points="348.54,-215 339.34,-220.26 349.81,-221.89 348.54,-215"/>
</a>
</g>
</g>
<!-- Node3 -->
<g id="Node000003" class="node">
<title>Node3</title>
<g id="a_Node000003"><a xlink:href="_t_analysis_hist_loop_8cxx.html" target="_top" xlink:title=" ">
<polygon fill="white" stroke="#666666" points="115,-19.25 0,-19.25 0,0 115,0 115,-19.25"/>
<text text-anchor="middle" x="57.5" y="-5.75" font-family="Helvetica,sans-Serif" font-size="10.00">TAnalysisHistLoop.cxx</text>
</a>
</g>
</g>
<!-- Node2&#45;&gt;Node3 -->
<g id="edge2_Node000002_Node000003" class="edge">
<title>Node2&#45;&gt;Node3</title>
<g id="a_edge2_Node000002_Node000003"><a xlink:title=" ">
<path fill="none" stroke="#63b8ff" d="M66.96,-44.21C64.58,-35.77 61.92,-26.33 60.03,-19.61"/>
<polygon fill="#63b8ff" stroke="#63b8ff" points="63.53,-44.95 69.61,-53.63 70.27,-43.05 63.53,-44.95"/>
</a>
</g>
</g>
<!-- Node4 -->
<g id="Node000004" class="node">
<title>Node4</title>
<g id="a_Node000004"><a xlink:href="_t_g_r_s_iint_8cxx.html" target="_top" xlink:title=" ">
<polygon fill="white" stroke="#666666" points="206,-19.25 133,-19.25 133,0 206,0 206,-19.25"/>
<text text-anchor="middle" x="169.5" y="-5.75" font-family="Helvetica,sans-Serif" font-size="10.00">TGRSIint.cxx</text>
</a>
</g>
</g>
<!-- Node2&#45;&gt;Node4 -->
<g id="edge3_Node000002_Node000004" class="edge">
<title>Node2&#45;&gt;Node4</title>
<g id="a_edge3_Node000002_Node000004"><a xlink:title=" ">
<path fill="none" stroke="#63b8ff" d="M98.97,-49.34C116.21,-39.88 138.17,-27.83 152.96,-19.7"/>
<polygon fill="#63b8ff" stroke="#63b8ff" points="97.36,-46.23 90.28,-54.11 100.73,-52.37 97.36,-46.23"/>
</a>
</g>
</g>
<!-- Node5&#45;&gt;Node4 -->
<g id="edge6_Node000005_Node000004" class="edge">
<title>Node5&#45;&gt;Node4</title>
<g id="a_edge6_Node000005_Node000004"><a xlink:title=" ">
<path fill="none" stroke="#63b8ff" d="M162.48,-154.22C164.24,-118.36 167.83,-44.85 169.07,-19.47"/>
<polygon fill="#63b8ff" stroke="#63b8ff" points="159,-153.9 162,-164.06 165.99,-154.24 159,-153.9"/>
</a>
</g>
</g>
<!-- Node6 -->
<g id="Node000006" class="node">
<title>Node6</title>
<g id="a_Node000006"><a xlink:href="_t_analysis_write_loop_8cxx.html" target="_top" xlink:title=" ">
<polygon fill="white" stroke="#666666" points="133.25,-129.75 13.75,-129.75 13.75,-110.5 133.25,-110.5 133.25,-129.75"/>
<text text-anchor="middle" x="73.5" y="-116.25" font-family="Helvetica,sans-Serif" font-size="10.00">TAnalysisWriteLoop.cxx</text>
</a>
</g>
</g>
<!-- Node5&#45;&gt;Node6 -->
<g id="edge5_Node000005_Node000006" class="edge">
<title>Node5&#45;&gt;Node6</title>
<g id="a_edge5_Node000005_Node000006"><a xlink:title=" ">
<path fill="none" stroke="#63b8ff" d="M137.04,-159.57C121.47,-150.15 101.8,-138.25 88.5,-130.2"/>
<polygon fill="#63b8ff" stroke="#63b8ff" points="134.91,-162.38 145.28,-164.56 138.53,-156.39 134.91,-162.38"/>
</a>
</g>
</g>
<!-- Node7&#45;&gt;Node2 -->
<g id="edge8_Node000007_Node000002" class="edge">
<title>Node7&#45;&gt;Node2</title>
<g id="a_edge8_Node000007_Node000002"><a xlink:title=" ">
<path fill="none" stroke="#63b8ff" d="M208.58,-106.82C176.24,-97.09 131.84,-83.73 102.67,-74.95"/>
<polygon fill="#63b8ff" stroke="#63b8ff" points="207.44,-110.13 218.02,-109.66 209.46,-103.42 207.44,-110.13"/>
</a>
</g>
</g>
<!-- Node8 -->
<g id="Node000008" class="node">
<title>Node8</title>
<g id="a_Node000008"><a xlink:href="_t_compiled_histograms_8cxx.html" target="_top" xlink:title=" ">
<polygon fill="white" stroke="#666666" points="319.12,-74.5 189.88,-74.5 189.88,-55.25 319.12,-55.25 319.12,-74.5"/>
<text text-anchor="middle" x="254.5" y="-61" font-family="Helvetica,sans-Serif" font-size="10.00">TCompiledHistograms.cxx</text>
</a>
</g>
</g>
<!-- Node7&#45;&gt;Node8 -->
<g id="edge9_Node000007_Node000008" class="edge">
<title>Node7&#45;&gt;Node8</title>
<g id="a_edge9_Node000007_Node000008"><a xlink:title=" ">
<path fill="none" stroke="#63b8ff" d="M251.4,-98.88C252.18,-90.59 253.04,-81.42 253.66,-74.86"/>
<polygon fill="#63b8ff" stroke="#63b8ff" points="247.92,-98.54 250.47,-108.82 254.89,-99.2 247.92,-98.54"/>
</a>
</g>
</g>
<!-- Node9 -->
<g id="Node000009" class="node">
<title>Node9</title>
<g id="a_Node000009"><a xlink:href="_t_frag_hist_loop_8h.html" target="_top" xlink:title=" ">
<polygon fill="white" stroke="#666666" points="425.88,-74.5 337.12,-74.5 337.12,-55.25 425.88,-55.25 425.88,-74.5"/>
<text text-anchor="middle" x="381.5" y="-61" font-family="Helvetica,sans-Serif" font-size="10.00">TFragHistLoop.h</text>
</a>
</g>
</g>
<!-- Node7&#45;&gt;Node9 -->
<g id="edge10_Node000007_Node000009" class="edge">
<title>Node7&#45;&gt;Node9</title>
<g id="a_edge10_Node000007_Node000009"><a xlink:title=" ">
<path fill="none" stroke="#63b8ff" d="M282.25,-105.91C306.15,-96.27 337.91,-83.46 359,-74.95"/>
<polygon fill="#63b8ff" stroke="#63b8ff" points="281.26,-102.54 273.3,-109.53 283.88,-109.03 281.26,-102.54"/>
</a>
</g>
</g>
<!-- Node9&#45;&gt;Node4 -->
<g id="edge12_Node000009_Node000004" class="edge">
<title>Node9&#45;&gt;Node4</title>
<g id="a_edge12_Node000009_Node000004"><a xlink:title=" ">
<path fill="none" stroke="#63b8ff" d="M334.51,-52.07C295.62,-42.3 241.18,-28.63 205.64,-19.7"/>
<polygon fill="#63b8ff" stroke="#63b8ff" points="333.52,-55.43 344.07,-54.47 335.22,-48.64 333.52,-55.43"/>
</a>
</g>
</g>
<!-- Node10 -->
<g id="Node000010" class="node">
<title>Node10</title>
<g id="a_Node000010"><a xlink:href="_t_frag_hist_loop_8cxx.html" target="_top" xlink:title=" ">
<polygon fill="white" stroke="#666666" points="430.38,-19.25 332.62,-19.25 332.62,0 430.38,0 430.38,-19.25"/>
<text text-anchor="middle" x="381.5" y="-5.75" font-family="Helvetica,sans-Serif" font-size="10.00">TFragHistLoop.cxx</text>
</a>
</g>
</g>
<!-- Node9&#45;&gt;Node10 -->
<g id="edge11_Node000009_Node000010" class="edge">
<title>Node9&#45;&gt;Node10</title>
<g id="a_edge11_Node000009_Node000010"><a xlink:title=" ">
<path fill="none" stroke="#63b8ff" d="M381.5,-43.63C381.5,-35.34 381.5,-26.17 381.5,-19.61"/>
<polygon fill="#63b8ff" stroke="#63b8ff" points="378,-43.57 381.5,-53.57 385,-43.57 378,-43.57"/>
</a>
</g>
</g>
<!-- Node12&#45;&gt;Node7 -->
<g id="edge17_Node000012_Node000007" class="edge">
<title>Node12&#45;&gt;Node7</title>
<g id="a_edge17_Node000012_Node000007"><a xlink:title=" ">
<path fill="none" stroke="#63b8ff" d="M305.03,-159.03C291.35,-149.7 274.36,-138.1 262.8,-130.2"/>
<polygon fill="#63b8ff" stroke="#63b8ff" points="302.79,-161.74 313.02,-164.49 306.73,-155.96 302.79,-161.74"/>
</a>
</g>
</g>
<!-- Node13 -->
<g id="Node000013" class="node">
<title>Node13</title>
<g id="a_Node000013"><a xlink:href="_make_fragment_histograms_8cxx.html" target="_top" xlink:title=" ">
<polygon fill="white" stroke="#666666" points="475.5,-129.75 327.5,-129.75 327.5,-110.5 475.5,-110.5 475.5,-129.75"/>
<text text-anchor="middle" x="401.5" y="-116.25" font-family="Helvetica,sans-Serif" font-size="10.00">MakeFragmentHistograms.cxx</text>
</a>
</g>
</g>
<!-- Node12&#45;&gt;Node13 -->
<g id="edge15_Node000012_Node000013" class="edge">
<title>Node12&#45;&gt;Node13</title>
<g id="a_edge15_Node000012_Node000013"><a xlink:title=" ">
<path fill="none" stroke="#63b8ff" d="M349.26,-158.72C362.25,-149.37 378.28,-137.83 389.13,-130.02"/>
<polygon fill="#63b8ff" stroke="#63b8ff" points="347.35,-155.78 341.28,-164.46 351.44,-161.46 347.35,-155.78"/>
</a>
</g>
</g>
<!-- Node14 -->
<g id="Node000014" class="node">
<title>Node14</title>
<g id="a_Node000014"><a xlink:href="_make_griffin_histograms_8cxx.html" target="_top" xlink:title=" ">
<polygon fill="white" stroke="#666666" points="625.25,-129.75 493.75,-129.75 493.75,-110.5 625.25,-110.5 625.25,-129.75"/>
<text text-anchor="middle" x="559.5" y="-116.25" font-family="Helvetica,sans-Serif" font-size="10.00">MakeGriffinHistograms.cxx</text>
</a>
</g>
</g>
<!-- Node12&#45;&gt;Node14 -->
<g id="edge16_Node000012_Node000014" class="edge">
<title>Node12&#45;&gt;Node14</title>
<g id="a_edge16_Node000012_Node000014"><a xlink:title=" ">
<path fill="none" stroke="#63b8ff" d="M378.1,-162.76C420.75,-152.97 480.9,-139.17 520.04,-130.18"/>
<polygon fill="#63b8ff" stroke="#63b8ff" points="377.56,-159.29 368.59,-164.94 379.12,-166.12 377.56,-159.29"/>
</a>
</g>
</g>
<!-- Node15 -->
<g id="Node000015" class="node">
<title>Node15</title>
<g id="a_Node000015"><a xlink:href="_t_runtime_objects_8cxx.html" target="_top" xlink:title=" ">
<polygon fill="white" stroke="#666666" points="751.62,-129.75 643.38,-129.75 643.38,-110.5 751.62,-110.5 751.62,-129.75"/>
<text text-anchor="middle" x="697.5" y="-116.25" font-family="Helvetica,sans-Serif" font-size="10.00">TRuntimeObjects.cxx</text>
</a>
</g>
</g>
<!-- Node12&#45;&gt;Node15 -->
<g id="edge18_Node000012_Node000015" class="edge">
<title>Node12&#45;&gt;Node15</title>
<g id="a_edge18_Node000012_Node000015"><a xlink:title=" ">
<path fill="none" stroke="#63b8ff" d="M388.72,-165.43C484.28,-151.6 583.27,-137.43 643,-128.9"/>
<polygon fill="#63b8ff" stroke="#63b8ff" points="388.29,-161.96 378.89,-166.86 389.29,-168.89 388.29,-161.96"/>
</a>
</g>
</g>
</g>
</svg>

<g id="navigator" transform="translate(0 0)" fill="#404254">
  <rect fill="#f2f5e9" fill-opacity="0.5" stroke="#606060" stroke-width=".5" x="0" y="0" width="60" height="60"/>
  <use id="zoomplus" xlink:href="#zoomPlus" x="17" y="9" onmousedown="handleZoom(evt,'in')"/>
  <use id="zoomminus" xlink:href="#zoomMin" x="42" y="9" onmousedown="handleZoom(evt,'out')"/>
  <use id="reset" xlink:href="#resetDef" x="30" y="36" onmousedown="handleReset()"/>
   <use id="arrowup" xlink:href="#arrowUp" x="0" y="0" onmousedown="handlePan(0,-1)"/>
  <use id="arrowright" xlink:href="#arrowRight" x="0" y="0" onmousedown="handlePan(1,0)"/>
  <use id="arrowdown" xlink:href="#arrowDown" x="0" y="0" onmousedown="handlePan(0,1)"/>
  <use id="arrowleft" xlink:href="#arrowLeft" x="0" y="0" onmousedown="handlePan(-1,0)"/>
</g>
<svg viewBox="0 0 15 15" width="100%" height="30px" preserveAspectRatio="xMaxYMin meet">
 <g id="arrow_out" transform="scale(0.3 0.3)">
  <a xlink:href="_t_unpacked_event_8h__dep__incl_org.svg" target="_base">
   <rect id="button" ry="5" rx="5" y="6" x="6" height="38" width="38"
        fill="#f2f5e9" fill-opacity="0.5" stroke="#606060" stroke-width="1.0"/>
   <path id="arrow"
     d="M 11.500037,31.436501 C 11.940474,20.09759 22.043105,11.32322 32.158766,21.979434 L 37.068811,17.246167 C 37.068811,17.246167 37.088388,32 37.088388,32 L 22.160133,31.978069 C 22.160133,31.978069 26.997745,27.140456 26.997745,27.140456 C 18.528582,18.264221 13.291696,25.230495 11.500037,31.436501 z"
     style="fill:#404040;"/>
  </a>
 </g>
</svg>

<style type='text/css'>
<![CDATA[
[data-mouse-over-selected='false'] { opacity: 0.7; }
[data-mouse-over-selected='true']  { opacity: 1.0; }
]]>
</style>
<script type="application/ecmascript"><![CDATA[
document.addEventListener('DOMContentLoaded', (event) => {
  highlightEdges();
  highlightAdjacentNodes();
});
]]></script>
</svg>
