<?xml version="1.0" encoding="UTF-8" standalone="no"?>
<!DOCTYPE svg PUBLIC "-//W3C//DTD SVG 1.1//EN"
 "http://www.w3.org/Graphics/SVG/1.1/DTD/svg11.dtd">
<!-- Generated by graphviz version 9.0.0 (20230911.1827)
 -->
<!-- Title: TUserSettings.cxx Pages: 1 -->
<svg width="745pt" height="193pt"
 viewBox="0.00 0.00 744.62 193.00" xmlns="http://www.w3.org/2000/svg" xmlns:xlink="http://www.w3.org/1999/xlink">
<g id="graph0" class="graph" transform="scale(1 1) rotate(0) translate(4 189)">
<title>TUserSettings.cxx</title>
<!-- Node1 -->
<g id="Node000001" class="node">
<title>Node1</title>
<g id="a_Node000001"><a xlink:title=" ">
<polygon fill="#999999" stroke="#666666" points="511.5,-185 416,-185 416,-165.75 511.5,-165.75 511.5,-185"/>
<text text-anchor="middle" x="463.75" y="-171.5" font-family="Helvetica,sans-Serif" font-size="10.00">TUserSettings.cxx</text>
</a>
</g>
</g>
<!-- Node2 -->
<g id="Node000002" class="node">
<title>Node2</title>
<g id="a_Node000002"><a xlink:href="_t_user_settings_8h.html" target="_top" xlink:title=" ">
<polygon fill="white" stroke="#666666" points="260,-129.75 173.5,-129.75 173.5,-110.5 260,-110.5 260,-129.75"/>
<text text-anchor="middle" x="216.75" y="-116.25" font-family="Helvetica,sans-Serif" font-size="10.00">TUserSettings.h</text>
</a>
</g>
</g>
<!-- Node1&#45;&gt;Node2 -->
<g id="edge1_Node000001_Node000002" class="edge">
<title>Node1&#45;&gt;Node2</title>
<g id="a_edge1_Node000001_Node000002"><a xlink:title=" ">
<path fill="none" stroke="#63b8ff" d="M421.57,-165.28C379.65,-156.24 315.24,-142.36 269.86,-132.57"/>
<polygon fill="#63b8ff" stroke="#63b8ff" points="270.75,-129.19 260.24,-130.5 269.27,-136.03 270.75,-129.19"/>
</a>
</g>
</g>
<!-- Node3 -->
<g id="Node000003" class="node">
<title>Node3</title>
<g id="a_Node000003"><a xlink:title=" ">
<polygon fill="#e0e0e0" stroke="#999999" points="53.5,-74.5 0,-74.5 0,-55.25 53.5,-55.25 53.5,-74.5"/>
<text text-anchor="middle" x="26.75" y="-61" font-family="Helvetica,sans-Serif" font-size="10.00">iostream</text>
</a>
</g>
</g>
<!-- Node1&#45;&gt;Node3 -->
<g id="edge8_Node000001_Node000003" class="edge">
<title>Node1&#45;&gt;Node3</title>
<g id="a_edge8_Node000001_Node000003"><a xlink:title=" ">
<path fill="none" stroke="#63b8ff" d="M415.71,-171.43C355.87,-166.82 250.98,-155.56 164.75,-129.75 123.67,-117.45 79.16,-95.04 52.11,-80.31"/>
<polygon fill="#63b8ff" stroke="#63b8ff" points="54.08,-77.4 43.64,-75.62 50.69,-83.52 54.08,-77.4"/>
</a>
</g>
</g>
<!-- Node9 -->
<g id="Node000009" class="node">
<title>Node9</title>
<g id="a_Node000009"><a xlink:title=" ">
<polygon fill="#e0e0e0" stroke="#999999" points="549.25,-74.5 500.25,-74.5 500.25,-55.25 549.25,-55.25 549.25,-74.5"/>
<text text-anchor="middle" x="524.75" y="-61" font-family="Helvetica,sans-Serif" font-size="10.00">fstream</text>
</a>
</g>
</g>
<!-- Node1&#45;&gt;Node9 -->
<g id="edge9_Node000001_Node000009" class="edge">
<title>Node1&#45;&gt;Node9</title>
<g id="a_edge9_Node000001_Node000009"><a xlink:title=" ">
<path fill="none" stroke="#63b8ff" d="M459.51,-165.5C454,-152.57 446.13,-128.17 455.75,-110.5 463.12,-96.95 476.57,-86.89 489.65,-79.78"/>
<polygon fill="#63b8ff" stroke="#63b8ff" points="491.16,-82.94 498.58,-75.38 488.06,-76.66 491.16,-82.94"/>
</a>
</g>
</g>
<!-- Node10 -->
<g id="Node000010" class="node">
<title>Node10</title>
<g id="a_Node000010"><a xlink:title=" ">
<polygon fill="#e0e0e0" stroke="#999999" points="516.38,-129.75 465.12,-129.75 465.12,-110.5 516.38,-110.5 516.38,-129.75"/>
<text text-anchor="middle" x="490.75" y="-116.25" font-family="Helvetica,sans-Serif" font-size="10.00">sstream</text>
</a>
</g>
</g>
<!-- Node1&#45;&gt;Node10 -->
<g id="edge10_Node000001_Node000010" class="edge">
<title>Node1&#45;&gt;Node10</title>
<g id="a_edge10_Node000001_Node000010"><a xlink:title=" ">
<path fill="none" stroke="#63b8ff" d="M468.21,-165.58C471.7,-158.69 476.7,-148.84 481.1,-140.16"/>
<polygon fill="#63b8ff" stroke="#63b8ff" points="484.11,-141.96 485.51,-131.46 477.87,-138.8 484.11,-141.96"/>
</a>
</g>
</g>
<!-- Node11 -->
<g id="Node000011" class="node">
<title>Node11</title>
<g id="a_Node000011"><a xlink:title=" ">
<polygon fill="#e0e0e0" stroke="#999999" points="595.25,-129.75 534.25,-129.75 534.25,-110.5 595.25,-110.5 595.25,-129.75"/>
<text text-anchor="middle" x="564.75" y="-116.25" font-family="Helvetica,sans-Serif" font-size="10.00">type_traits</text>
</a>
</g>
</g>
<!-- Node1&#45;&gt;Node11 -->
<g id="edge11_Node000001_Node000011" class="edge">
<title>Node1&#45;&gt;Node11</title>
<g id="a_edge11_Node000001_Node000011"><a xlink:title=" ">
<path fill="none" stroke="#63b8ff" d="M480.88,-165.34C496.41,-157.16 519.55,-144.96 537.59,-135.44"/>
<polygon fill="#63b8ff" stroke="#63b8ff" points="538.98,-138.67 546.19,-130.91 535.72,-132.48 538.98,-138.67"/>
</a>
</g>
</g>
<!-- Node12 -->
<g id="Node000012" class="node">
<title>Node12</title>
<g id="a_Node000012"><a xlink:title=" ">
<polygon fill="#e0e0e0" stroke="#999999" points="668.62,-129.75 612.88,-129.75 612.88,-110.5 668.62,-110.5 668.62,-129.75"/>
<text text-anchor="middle" x="640.75" y="-116.25" font-family="Helvetica,sans-Serif" font-size="10.00">algorithm</text>
</a>
</g>
</g>
<!-- Node1&#45;&gt;Node12 -->
<g id="edge12_Node000001_Node000012" class="edge">
<title>Node1&#45;&gt;Node12</title>
<g id="a_edge12_Node000001_Node000012"><a xlink:title=" ">
<path fill="none" stroke="#63b8ff" d="M493.78,-165.34C523.51,-156.4 569.18,-142.66 601.71,-132.87"/>
<polygon fill="#63b8ff" stroke="#63b8ff" points="602.61,-136.25 611.18,-130.02 600.59,-129.55 602.61,-136.25"/>
</a>
</g>
</g>
<!-- Node13 -->
<g id="Node000013" class="node">
<title>Node13</title>
<g id="a_Node000013"><a xlink:title=" ">
<polygon fill="#e0e0e0" stroke="#999999" points="736.62,-129.75 686.88,-129.75 686.88,-110.5 736.62,-110.5 736.62,-129.75"/>
<text text-anchor="middle" x="711.75" y="-116.25" font-family="Helvetica,sans-Serif" font-size="10.00">iomanip</text>
</a>
</g>
</g>
<!-- Node1&#45;&gt;Node13 -->
<g id="edge13_Node000001_Node000013" class="edge">
<title>Node1&#45;&gt;Node13</title>
<g id="a_edge13_Node000001_Node000013"><a xlink:title=" ">
<path fill="none" stroke="#63b8ff" d="M510.21,-165.28C551.27,-157.12 613.03,-144.51 675.66,-130.16"/>
<polygon fill="#63b8ff" stroke="#63b8ff" points="676.1,-133.65 685.05,-127.99 674.52,-126.83 676.1,-133.65"/>
</a>
</g>
</g>
<!-- Node14 -->
<g id="Node000014" class="node">
<title>Node14</title>
<g id="a_Node000014"><a xlink:href="_t_g_r_s_i_utilities_8h.html" target="_top" xlink:title=" ">
<polygon fill="white" stroke="#666666" points="409,-129.75 322.5,-129.75 322.5,-110.5 409,-110.5 409,-129.75"/>
<text text-anchor="middle" x="365.75" y="-116.25" font-family="Helvetica,sans-Serif" font-size="10.00">TGRSIUtilities.h</text>
</a>
</g>
</g>
<!-- Node1&#45;&gt;Node14 -->
<g id="edge14_Node000001_Node000014" class="edge">
<title>Node1&#45;&gt;Node14</title>
<g id="a_edge14_Node000001_Node000014"><a xlink:title=" ">
<path fill="none" stroke="#63b8ff" d="M447.13,-165.34C432.06,-157.16 409.61,-144.96 392.1,-135.44"/>
<polygon fill="#63b8ff" stroke="#63b8ff" points="394.24,-132.62 383.79,-130.93 390.9,-138.77 394.24,-132.62"/>
</a>
</g>
</g>
<!-- Node2&#45;&gt;Node3 -->
<g id="edge2_Node000002_Node000003" class="edge">
<title>Node2&#45;&gt;Node3</title>
<g id="a_edge2_Node000002_Node000003"><a xlink:title=" ">
<path fill="none" stroke="#63b8ff" d="M184.52,-110.09C151.37,-100.8 99.76,-86.34 64.67,-76.5"/>
<polygon fill="#63b8ff" stroke="#63b8ff" points="65.93,-73.22 55.36,-73.89 64.04,-79.96 65.93,-73.22"/>
</a>
</g>
</g>
<!-- Node4 -->
<g id="Node000004" class="node">
<title>Node4</title>
<g id="a_Node000004"><a xlink:title=" ">
<polygon fill="#e0e0e0" stroke="#999999" points="210.12,-19.25 175.38,-19.25 175.38,0 210.12,0 210.12,-19.25"/>
<text text-anchor="middle" x="192.75" y="-5.75" font-family="Helvetica,sans-Serif" font-size="10.00">map</text>
</a>
</g>
</g>
<!-- Node2&#45;&gt;Node4 -->
<g id="edge3_Node000002_Node000004" class="edge">
<title>Node2&#45;&gt;Node4</title>
<g id="a_edge3_Node000002_Node000004"><a xlink:title=" ">
<path fill="none" stroke="#63b8ff" d="M173.11,-114.44C147.44,-109.19 116.94,-98.07 100.75,-74.5 81.66,-46.71 130.64,-27.26 164.23,-17.6"/>
<polygon fill="#63b8ff" stroke="#63b8ff" points="164.72,-21.1 173.46,-15.1 162.89,-14.34 164.72,-21.1"/>
</a>
</g>
</g>
<!-- Node5 -->
<g id="Node000005" class="node">
<title>Node5</title>
<g id="a_Node000005"><a xlink:title=" ">
<polygon fill="#e0e0e0" stroke="#999999" points="453.75,-19.25 413.75,-19.25 413.75,0 453.75,0 453.75,-19.25"/>
<text text-anchor="middle" x="433.75" y="-5.75" font-family="Helvetica,sans-Serif" font-size="10.00">string</text>
</a>
</g>
</g>
<!-- Node2&#45;&gt;Node5 -->
<g id="edge4_Node000002_Node000005" class="edge">
<title>Node2&#45;&gt;Node5</title>
<g id="a_edge4_Node000002_Node000005"><a xlink:title=" ">
<path fill="none" stroke="#63b8ff" d="M260.46,-114.44C311.79,-108.07 392.74,-95.07 414.75,-74.5 426.78,-63.26 431.31,-44.77 432.95,-30.58"/>
<polygon fill="#63b8ff" stroke="#63b8ff" points="436.41,-31.23 433.66,-21 429.43,-30.71 436.41,-31.23"/>
</a>
</g>
</g>
<!-- Node6 -->
<g id="Node000006" class="node">
<title>Node6</title>
<g id="a_Node000006"><a xlink:title=" ">
<polygon fill="#e0e0e0" stroke="#999999" points="308.25,-74.5 265.25,-74.5 265.25,-55.25 308.25,-55.25 308.25,-74.5"/>
<text text-anchor="middle" x="286.75" y="-61" font-family="Helvetica,sans-Serif" font-size="10.00">vector</text>
</a>
</g>
</g>
<!-- Node2&#45;&gt;Node6 -->
<g id="edge5_Node000002_Node000006" class="edge">
<title>Node2&#45;&gt;Node6</title>
<g id="a_edge5_Node000002_Node000006"><a xlink:title=" ">
<path fill="none" stroke="#63b8ff" d="M228.62,-110.09C238.84,-102.32 253.82,-90.92 266.01,-81.65"/>
<polygon fill="#63b8ff" stroke="#63b8ff" points="268.01,-84.53 273.85,-75.69 263.77,-78.96 268.01,-84.53"/>
</a>
</g>
</g>
<!-- Node7 -->
<g id="Node000007" class="node">
<title>Node7</title>
<g id="a_Node000007"><a xlink:title=" ">
<polygon fill="#e0e0e0" stroke="#999999" points="167.75,-74.5 109.75,-74.5 109.75,-55.25 167.75,-55.25 167.75,-74.5"/>
<text text-anchor="middle" x="138.75" y="-61" font-family="Helvetica,sans-Serif" font-size="10.00">stdexcept</text>
</a>
</g>
</g>
<!-- Node2&#45;&gt;Node7 -->
<g id="edge6_Node000002_Node000007" class="edge">
<title>Node2&#45;&gt;Node7</title>
<g id="a_edge6_Node000002_Node000007"><a xlink:title=" ">
<path fill="none" stroke="#63b8ff" d="M203.52,-110.09C191.98,-102.21 174.98,-90.61 161.3,-81.27"/>
<polygon fill="#63b8ff" stroke="#63b8ff" points="163.53,-78.55 153.3,-75.81 159.58,-84.33 163.53,-78.55"/>
</a>
</g>
</g>
<!-- Node8 -->
<g id="Node000008" class="node">
<title>Node8</title>
<g id="a_Node000008"><a xlink:title=" ">
<polygon fill="#e0e0e0" stroke="#999999" points="247.25,-74.5 186.25,-74.5 186.25,-55.25 247.25,-55.25 247.25,-74.5"/>
<text text-anchor="middle" x="216.75" y="-61" font-family="Helvetica,sans-Serif" font-size="10.00">TNamed.h</text>
</a>
</g>
</g>
<!-- Node2&#45;&gt;Node8 -->
<g id="edge7_Node000002_Node000008" class="edge">
<title>Node2&#45;&gt;Node8</title>
<g id="a_edge7_Node000002_Node000008"><a xlink:title=" ">
<path fill="none" stroke="#63b8ff" d="M216.75,-110.33C216.75,-103.82 216.75,-94.67 216.75,-86.37"/>
<polygon fill="#63b8ff" stroke="#63b8ff" points="220.25,-86.37 216.75,-76.37 213.25,-86.37 220.25,-86.37"/>
</a>
</g>
</g>
<!-- Node14&#45;&gt;Node5 -->
<g id="edge16_Node000014_Node000005" class="edge">
<title>Node14&#45;&gt;Node5</title>
<g id="a_edge16_Node000014_Node000005"><a xlink:title=" ">
<path fill="none" stroke="#63b8ff" d="M399.22,-110.03C416.97,-103.32 437.23,-92.19 447.75,-74.5 455.91,-60.78 450.88,-42.86 444.69,-29.49"/>
<polygon fill="#63b8ff" stroke="#63b8ff" points="447.91,-28.11 440.18,-20.87 441.71,-31.35 447.91,-28.11"/>
</a>
</g>
</g>
<!-- Node14&#45;&gt;Node6 -->
<g id="edge17_Node000014_Node000006" class="edge">
<title>Node14&#45;&gt;Node6</title>
<g id="a_edge17_Node000014_Node000006"><a xlink:title=" ">
<path fill="none" stroke="#63b8ff" d="M352.35,-110.09C340.66,-102.21 323.45,-90.61 309.59,-81.27"/>
<polygon fill="#63b8ff" stroke="#63b8ff" points="311.72,-78.49 301.47,-75.8 307.81,-84.29 311.72,-78.49"/>
</a>
</g>
</g>
<!-- Node14&#45;&gt;Node9 -->
<g id="edge15_Node000014_Node000009" class="edge">
<title>Node14&#45;&gt;Node9</title>
<g id="a_edge15_Node000014_Node000009"><a xlink:title=" ">
<path fill="none" stroke="#63b8ff" d="M392.72,-110.09C419.36,-101.17 460.22,-87.48 489.43,-77.7"/>
<polygon fill="#63b8ff" stroke="#63b8ff" points="490.2,-81.14 498.57,-74.64 487.97,-74.5 490.2,-81.14"/>
</a>
</g>
</g>
<!-- Node15 -->
<g id="Node000015" class="node">
<title>Node15</title>
<g id="a_Node000015"><a xlink:href="_t_g_r_s_i_types_8h.html" target="_top" xlink:title=" ">
<polygon fill="white" stroke="#666666" points="405.62,-74.5 325.88,-74.5 325.88,-55.25 405.62,-55.25 405.62,-74.5"/>
<text text-anchor="middle" x="365.75" y="-61" font-family="Helvetica,sans-Serif" font-size="10.00">TGRSITypes.h</text>
</a>
</g>
</g>
<!-- Node14&#45;&gt;Node15 -->
<g id="edge18_Node000014_Node000015" class="edge">
<title>Node14&#45;&gt;Node15</title>
<g id="a_edge18_Node000014_Node000015"><a xlink:title=" ">
<path fill="none" stroke="#63b8ff" d="M365.75,-110.33C365.75,-103.82 365.75,-94.67 365.75,-86.37"/>
<polygon fill="#63b8ff" stroke="#63b8ff" points="369.25,-86.37 365.75,-76.37 362.25,-86.37 369.25,-86.37"/>
</a>
</g>
</g>
<!-- Node15&#45;&gt;Node4 -->
<g id="edge19_Node000015_Node000004" class="edge">
<title>Node15&#45;&gt;Node4</title>
<g id="a_edge19_Node000015_Node000004"><a xlink:title=" ">
<path fill="none" stroke="#63b8ff" d="M336.4,-54.84C304.29,-44.96 253.16,-29.22 221.35,-19.43"/>
<polygon fill="#63b8ff" stroke="#63b8ff" points="222.61,-16.15 212.02,-16.56 220.55,-22.84 222.61,-16.15"/>
</a>
</g>
</g>
<!-- Node15&#45;&gt;Node5 -->
<g id="edge20_Node000015_Node000005" class="edge">
<title>Node15&#45;&gt;Node5</title>
<g id="a_edge20_Node000015_Node000005"><a xlink:title=" ">
<path fill="none" stroke="#63b8ff" d="M377.29,-54.84C387.21,-47.07 401.76,-35.67 413.61,-26.4"/>
<polygon fill="#63b8ff" stroke="#63b8ff" points="415.48,-29.38 421.19,-20.46 411.16,-23.87 415.48,-29.38"/>
</a>
</g>
</g>
<!-- Node16 -->
<g id="Node000016" class="node">
<title>Node16</title>
<g id="a_Node000016"><a xlink:title=" ">
<polygon fill="#e0e0e0" stroke="#999999" points="392.5,-19.25 339,-19.25 339,0 392.5,0 392.5,-19.25"/>
<text text-anchor="middle" x="365.75" y="-5.75" font-family="Helvetica,sans-Serif" font-size="10.00">Rtypes.h</text>
</a>
</g>
</g>
<!-- Node15&#45;&gt;Node16 -->
<g id="edge21_Node000015_Node000016" class="edge">
<title>Node15&#45;&gt;Node16</title>
<g id="a_edge21_Node000015_Node000016"><a xlink:title=" ">
<path fill="none" stroke="#63b8ff" d="M365.75,-55.08C365.75,-48.57 365.75,-39.42 365.75,-31.12"/>
<polygon fill="#63b8ff" stroke="#63b8ff" points="369.25,-31.12 365.75,-21.12 362.25,-31.12 369.25,-31.12"/>
</a>
</g>
</g>
</g>
</svg>
