<?xml version="1.0" encoding="UTF-8" standalone="no"?>
<!DOCTYPE svg PUBLIC "-//W3C//DTD SVG 1.1//EN"
 "http://www.w3.org/Graphics/SVG/1.1/DTD/svg11.dtd">
<!-- Generated by graphviz version 12.2.0 (20241103.1931)
 -->
<!-- Title: TUnpackingLoop.h Pages: 1 -->
<svg width="439pt" height="138pt"
 viewBox="0.00 0.00 439.38 137.75" xmlns="http://www.w3.org/2000/svg" xmlns:xlink="http://www.w3.org/1999/xlink">

<svg id="main" version="1.1" xmlns="http://www.w3.org/2000/svg" xmlns:xlink="http://www.w3.org/1999/xlink" xml:space="preserve">

<style type="text/css"><![CDATA[
.node, .edge {opacity: 0.7;}
.node.selected, .edge.selected {opacity: 1;}
.edge:hover path { stroke: red; }
.edge:hover polygon { stroke: red; fill: red; }
]]></style>
<script type="application/ecmascript" xlink:href="svg.min.js"/>
<svg id="graph" class="graph">
<g id="graph0" class="graph" transform="scale(1 1) rotate(0) translate(4 133.75)">
<title>TUnpackingLoop.h</title>
<!-- Node1 -->
<g id="Node000001" class="node">
<title>Node1</title>
<g id="a_Node000001"><a xlink:title=" ">
<polygon fill="#999999" stroke="#666666" points="345.88,-129.75 248.12,-129.75 248.12,-110.5 345.88,-110.5 345.88,-129.75"/>
<text text-anchor="middle" x="297" y="-116.25" font-family="Helvetica,sans-Serif" font-size="10.00">TUnpackingLoop.h</text>
</a>
</g>
</g>
<!-- Node2 -->
<g id="Node000002" class="node">
<title>Node2</title>
<g id="a_Node000002"><a xlink:href="_t_fragment_chain_loop_8h.html" target="_top" xlink:title=" ">
<polygon fill="white" stroke="#666666" points="260.62,-74.5 143.38,-74.5 143.38,-55.25 260.62,-55.25 260.62,-74.5"/>
<text text-anchor="middle" x="202" y="-61" font-family="Helvetica,sans-Serif" font-size="10.00">TFragmentChainLoop.h</text>
</a>
</g>
</g>
<!-- Node1&#45;&gt;Node2 -->
<g id="edge1_Node000001_Node000002" class="edge">
<title>Node1&#45;&gt;Node2</title>
<g id="a_edge1_Node000001_Node000002"><a xlink:title=" ">
<path fill="none" stroke="#63b8ff" d="M271.07,-104.59C254.19,-95.13 232.69,-83.08 218.19,-74.95"/>
<polygon fill="#63b8ff" stroke="#63b8ff" points="269.13,-107.52 279.56,-109.35 272.55,-101.41 269.13,-107.52"/>
</a>
</g>
</g>
<!-- Node5 -->
<g id="Node000005" class="node">
<title>Node5</title>
<g id="a_Node000005"><a xlink:href="_t_g_r_s_iint_8cxx.html" target="_top" xlink:title=" ">
<polygon fill="white" stroke="#666666" points="341.5,-19.25 268.5,-19.25 268.5,0 341.5,0 341.5,-19.25"/>
<text text-anchor="middle" x="305" y="-5.75" font-family="Helvetica,sans-Serif" font-size="10.00">TGRSIint.cxx</text>
</a>
</g>
</g>
<!-- Node1&#45;&gt;Node5 -->
<g id="edge5_Node000001_Node000005" class="edge">
<title>Node1&#45;&gt;Node5</title>
<g id="a_edge5_Node000001_Node000005"><a xlink:title=" ">
<path fill="none" stroke="#63b8ff" d="M298.5,-98.78C300.25,-75.05 303.06,-36.89 304.34,-19.63"/>
<polygon fill="#63b8ff" stroke="#63b8ff" points="295.01,-98.51 297.77,-108.74 301.99,-99.02 295.01,-98.51"/>
</a>
</g>
</g>
<!-- Node6 -->
<g id="Node000006" class="node">
<title>Node6</title>
<g id="a_Node000006"><a xlink:href="_t_unpacking_loop_8cxx.html" target="_top" xlink:title=" ">
<polygon fill="white" stroke="#666666" points="431.38,-74.5 324.62,-74.5 324.62,-55.25 431.38,-55.25 431.38,-74.5"/>
<text text-anchor="middle" x="378" y="-61" font-family="Helvetica,sans-Serif" font-size="10.00">TUnpackingLoop.cxx</text>
</a>
</g>
</g>
<!-- Node1&#45;&gt;Node6 -->
<g id="edge6_Node000001_Node000006" class="edge">
<title>Node1&#45;&gt;Node6</title>
<g id="a_edge6_Node000001_Node000006"><a xlink:title=" ">
<path fill="none" stroke="#63b8ff" d="M320.34,-103.78C334.54,-94.45 352.19,-82.85 364.19,-74.95"/>
<polygon fill="#63b8ff" stroke="#63b8ff" points="318.44,-100.84 312.01,-109.26 322.28,-106.69 318.44,-100.84"/>
</a>
</g>
</g>
<!-- Node3 -->
<g id="Node000003" class="node">
<title>Node3</title>
<g id="a_Node000003"><a xlink:href="_stoppable_thread_8cxx.html" target="_top" xlink:title=" ">
<polygon fill="white" stroke="#666666" points="106,-19.25 0,-19.25 0,0 106,0 106,-19.25"/>
<text text-anchor="middle" x="53" y="-5.75" font-family="Helvetica,sans-Serif" font-size="10.00">StoppableThread.cxx</text>
</a>
</g>
</g>
<!-- Node2&#45;&gt;Node3 -->
<g id="edge2_Node000002_Node000003" class="edge">
<title>Node2&#45;&gt;Node3</title>
<g id="a_edge2_Node000002_Node000003"><a xlink:title=" ">
<path fill="none" stroke="#63b8ff" d="M166.12,-51.05C139.03,-41.37 102.52,-28.32 78.4,-19.7"/>
<polygon fill="#63b8ff" stroke="#63b8ff" points="164.7,-54.26 175.3,-54.33 167.06,-47.67 164.7,-54.26"/>
</a>
</g>
</g>
<!-- Node4 -->
<g id="Node000004" class="node">
<title>Node4</title>
<g id="a_Node000004"><a xlink:href="_t_fragment_chain_loop_8cxx.html" target="_top" xlink:title=" ">
<polygon fill="white" stroke="#666666" points="250.12,-19.25 123.88,-19.25 123.88,0 250.12,0 250.12,-19.25"/>
<text text-anchor="middle" x="187" y="-5.75" font-family="Helvetica,sans-Serif" font-size="10.00">TFragmentChainLoop.cxx</text>
</a>
</g>
</g>
<!-- Node2&#45;&gt;Node4 -->
<g id="edge3_Node000002_Node000004" class="edge">
<title>Node2&#45;&gt;Node4</title>
<g id="a_edge3_Node000002_Node000004"><a xlink:title=" ">
<path fill="none" stroke="#63b8ff" d="M196.46,-44.21C194.08,-35.77 191.42,-26.33 189.53,-19.61"/>
<polygon fill="#63b8ff" stroke="#63b8ff" points="193.03,-44.95 199.11,-53.63 199.77,-43.05 193.03,-44.95"/>
</a>
</g>
</g>
<!-- Node2&#45;&gt;Node5 -->
<g id="edge4_Node000002_Node000005" class="edge">
<title>Node2&#45;&gt;Node5</title>
<g id="a_edge4_Node000002_Node000005"><a xlink:title=" ">
<path fill="none" stroke="#63b8ff" d="M229.59,-49.61C247.98,-40.11 271.58,-27.9 287.44,-19.7"/>
<polygon fill="#63b8ff" stroke="#63b8ff" points="228.09,-46.45 220.82,-54.15 231.31,-52.66 228.09,-46.45"/>
</a>
</g>
</g>
</g>
</svg>
</svg>

<style type='text/css'>
<![CDATA[
[data-mouse-over-selected='false'] { opacity: 0.7; }
[data-mouse-over-selected='true']  { opacity: 1.0; }
]]>
</style>
<script type="application/ecmascript"><![CDATA[
document.addEventListener('DOMContentLoaded', (event) => {
  highlightEdges();
  highlightAdjacentNodes();
});
]]></script>
</svg>
