<?xml version="1.0" encoding="UTF-8" standalone="no"?>
<!DOCTYPE svg PUBLIC "-//W3C//DTD SVG 1.1//EN"
 "http://www.w3.org/Graphics/SVG/1.1/DTD/svg11.dtd">
<!-- Generated by graphviz version 12.2.0 (20241103.1931)
 -->
<!-- Title: TUserSettings.cxx Pages: 1 -->
<svg width="607pt" height="138pt"
 viewBox="0.00 0.00 607.38 137.75" xmlns="http://www.w3.org/2000/svg" xmlns:xlink="http://www.w3.org/1999/xlink">
<g id="graph0" class="graph" transform="scale(1 1) rotate(0) translate(4 133.75)">
<title>TUserSettings.cxx</title>
<!-- Node1 -->
<g id="Node000001" class="node">
<title>Node1</title>
<g id="a_Node000001"><a xlink:title=" ">
<polygon fill="#999999" stroke="#666666" points="374.25,-129.75 278.75,-129.75 278.75,-110.5 374.25,-110.5 374.25,-129.75"/>
<text text-anchor="middle" x="326.5" y="-116.25" font-family="Helvetica,sans-Serif" font-size="10.00">TUserSettings.cxx</text>
</a>
</g>
</g>
<!-- Node2 -->
<g id="Node000002" class="node">
<title>Node2</title>
<g id="a_Node000002"><a xlink:href="_t_user_settings_8h.html" target="_top" xlink:title=" ">
<polygon fill="white" stroke="#666666" points="271.75,-74.5 185.25,-74.5 185.25,-55.25 271.75,-55.25 271.75,-74.5"/>
<text text-anchor="middle" x="228.5" y="-61" font-family="Helvetica,sans-Serif" font-size="10.00">TUserSettings.h</text>
</a>
</g>
</g>
<!-- Node1&#45;&gt;Node2 -->
<g id="edge1_Node000001_Node000002" class="edge">
<title>Node1&#45;&gt;Node2</title>
<g id="a_edge1_Node000001_Node000002"><a xlink:title=" ">
<path fill="none" stroke="#63b8ff" d="M309.88,-110.09C294.81,-101.91 272.36,-89.71 254.85,-80.19"/>
<polygon fill="#63b8ff" stroke="#63b8ff" points="256.99,-77.37 246.54,-75.68 253.65,-83.52 256.99,-77.37"/>
</a>
</g>
</g>
<!-- Node7 -->
<g id="Node000007" class="node">
<title>Node7</title>
<g id="a_Node000007"><a xlink:title=" ">
<polygon fill="#e0e0e0" stroke="#999999" points="539.25,-19.25 485.75,-19.25 485.75,0 539.25,0 539.25,-19.25"/>
<text text-anchor="middle" x="512.5" y="-5.75" font-family="Helvetica,sans-Serif" font-size="10.00">iostream</text>
</a>
</g>
</g>
<!-- Node1&#45;&gt;Node7 -->
<g id="edge9_Node000001_Node000007" class="edge">
<title>Node1&#45;&gt;Node7</title>
<g id="a_edge9_Node000001_Node000007"><a xlink:title=" ">
<path fill="none" stroke="#63b8ff" d="M321.7,-110.18C315.21,-96.73 305.81,-71.15 318.5,-55.25 361.31,-1.59 402.34,-32.4 474.5,-19.41"/>
<polygon fill="#63b8ff" stroke="#63b8ff" points="474.82,-22.92 483.9,-17.46 473.4,-16.06 474.82,-22.92"/>
</a>
</g>
</g>
<!-- Node10 -->
<g id="Node000010" class="node">
<title>Node10</title>
<g id="a_Node000010"><a xlink:title=" ">
<polygon fill="#e0e0e0" stroke="#999999" points="49,-19.25 0,-19.25 0,0 49,0 49,-19.25"/>
<text text-anchor="middle" x="24.5" y="-5.75" font-family="Helvetica,sans-Serif" font-size="10.00">fstream</text>
</a>
</g>
</g>
<!-- Node1&#45;&gt;Node10 -->
<g id="edge10_Node000001_Node000010" class="edge">
<title>Node1&#45;&gt;Node10</title>
<g id="a_edge10_Node000001_Node000010"><a xlink:title=" ">
<path fill="none" stroke="#63b8ff" d="M278.35,-115.08C214.07,-108.95 104.38,-95.73 70.5,-74.5 53.33,-63.75 40.63,-44.03 32.97,-29.34"/>
<polygon fill="#63b8ff" stroke="#63b8ff" points="36.28,-28.15 28.77,-20.68 29.98,-31.2 36.28,-28.15"/>
</a>
</g>
</g>
<!-- Node11 -->
<g id="Node000011" class="node">
<title>Node11</title>
<g id="a_Node000011"><a xlink:title=" ">
<polygon fill="#e0e0e0" stroke="#999999" points="379.12,-74.5 327.88,-74.5 327.88,-55.25 379.12,-55.25 379.12,-74.5"/>
<text text-anchor="middle" x="353.5" y="-61" font-family="Helvetica,sans-Serif" font-size="10.00">sstream</text>
</a>
</g>
</g>
<!-- Node1&#45;&gt;Node11 -->
<g id="edge11_Node000001_Node000011" class="edge">
<title>Node1&#45;&gt;Node11</title>
<g id="a_edge11_Node000001_Node000011"><a xlink:title=" ">
<path fill="none" stroke="#63b8ff" d="M330.96,-110.33C334.45,-103.44 339.45,-93.59 343.85,-84.91"/>
<polygon fill="#63b8ff" stroke="#63b8ff" points="346.86,-86.71 348.26,-76.21 340.62,-83.55 346.86,-86.71"/>
</a>
</g>
</g>
<!-- Node12 -->
<g id="Node000012" class="node">
<title>Node12</title>
<g id="a_Node000012"><a xlink:title=" ">
<polygon fill="#e0e0e0" stroke="#999999" points="458,-74.5 397,-74.5 397,-55.25 458,-55.25 458,-74.5"/>
<text text-anchor="middle" x="427.5" y="-61" font-family="Helvetica,sans-Serif" font-size="10.00">type_traits</text>
</a>
</g>
</g>
<!-- Node1&#45;&gt;Node12 -->
<g id="edge12_Node000001_Node000012" class="edge">
<title>Node1&#45;&gt;Node12</title>
<g id="a_edge12_Node000001_Node000012"><a xlink:title=" ">
<path fill="none" stroke="#63b8ff" d="M343.63,-110.09C359.16,-101.91 382.3,-89.71 400.34,-80.19"/>
<polygon fill="#63b8ff" stroke="#63b8ff" points="401.73,-83.42 408.94,-75.66 398.47,-77.23 401.73,-83.42"/>
</a>
</g>
</g>
<!-- Node13 -->
<g id="Node000013" class="node">
<title>Node13</title>
<g id="a_Node000013"><a xlink:title=" ">
<polygon fill="#e0e0e0" stroke="#999999" points="531.38,-74.5 475.62,-74.5 475.62,-55.25 531.38,-55.25 531.38,-74.5"/>
<text text-anchor="middle" x="503.5" y="-61" font-family="Helvetica,sans-Serif" font-size="10.00">algorithm</text>
</a>
</g>
</g>
<!-- Node1&#45;&gt;Node13 -->
<g id="edge13_Node000001_Node000013" class="edge">
<title>Node1&#45;&gt;Node13</title>
<g id="a_edge13_Node000001_Node000013"><a xlink:title=" ">
<path fill="none" stroke="#63b8ff" d="M356.53,-110.09C386.26,-101.15 431.93,-87.41 464.46,-77.62"/>
<polygon fill="#63b8ff" stroke="#63b8ff" points="465.36,-81 473.93,-74.77 463.34,-74.3 465.36,-81"/>
</a>
</g>
</g>
<!-- Node14 -->
<g id="Node000014" class="node">
<title>Node14</title>
<g id="a_Node000014"><a xlink:title=" ">
<polygon fill="#e0e0e0" stroke="#999999" points="599.38,-74.5 549.62,-74.5 549.62,-55.25 599.38,-55.25 599.38,-74.5"/>
<text text-anchor="middle" x="574.5" y="-61" font-family="Helvetica,sans-Serif" font-size="10.00">iomanip</text>
</a>
</g>
</g>
<!-- Node1&#45;&gt;Node14 -->
<g id="edge14_Node000001_Node000014" class="edge">
<title>Node1&#45;&gt;Node14</title>
<g id="a_edge14_Node000001_Node000014"><a xlink:title=" ">
<path fill="none" stroke="#63b8ff" d="M372.96,-110.03C414.02,-101.87 475.78,-89.26 538.41,-74.91"/>
<polygon fill="#63b8ff" stroke="#63b8ff" points="538.85,-78.4 547.8,-72.74 537.27,-71.58 538.85,-78.4"/>
</a>
</g>
</g>
<!-- Node15 -->
<g id="Node000015" class="node">
<title>Node15</title>
<g id="a_Node000015"><a xlink:href="_t_g_r_s_i_utilities_8h.html" target="_top" xlink:title=" ">
<polygon fill="white" stroke="#666666" points="165.75,-74.5 79.25,-74.5 79.25,-55.25 165.75,-55.25 165.75,-74.5"/>
<text text-anchor="middle" x="122.5" y="-61" font-family="Helvetica,sans-Serif" font-size="10.00">TGRSIUtilities.h</text>
</a>
</g>
</g>
<!-- Node1&#45;&gt;Node15 -->
<g id="edge15_Node000001_Node000015" class="edge">
<title>Node1&#45;&gt;Node15</title>
<g id="a_edge15_Node000001_Node000015"><a xlink:title=" ">
<path fill="none" stroke="#63b8ff" d="M291.89,-110.09C257.9,-101.22 205.82,-87.62 168.39,-77.85"/>
<polygon fill="#63b8ff" stroke="#63b8ff" points="169.3,-74.47 158.74,-75.33 167.53,-81.25 169.3,-74.47"/>
</a>
</g>
</g>
<!-- Node3 -->
<g id="Node000003" class="node">
<title>Node3</title>
<g id="a_Node000003"><a xlink:title=" ">
<polygon fill="#e0e0e0" stroke="#999999" points="221.88,-19.25 187.12,-19.25 187.12,0 221.88,0 221.88,-19.25"/>
<text text-anchor="middle" x="204.5" y="-5.75" font-family="Helvetica,sans-Serif" font-size="10.00">map</text>
</a>
</g>
</g>
<!-- Node2&#45;&gt;Node3 -->
<g id="edge2_Node000002_Node000003" class="edge">
<title>Node2&#45;&gt;Node3</title>
<g id="a_edge2_Node000002_Node000003"><a xlink:title=" ">
<path fill="none" stroke="#63b8ff" d="M224.54,-55.08C221.46,-48.26 217.09,-38.56 213.21,-29.95"/>
<polygon fill="#63b8ff" stroke="#63b8ff" points="216.47,-28.67 209.17,-20.99 210.09,-31.54 216.47,-28.67"/>
</a>
</g>
</g>
<!-- Node4 -->
<g id="Node000004" class="node">
<title>Node4</title>
<g id="a_Node000004"><a xlink:title=" ">
<polygon fill="#e0e0e0" stroke="#999999" points="107.5,-19.25 67.5,-19.25 67.5,0 107.5,0 107.5,-19.25"/>
<text text-anchor="middle" x="87.5" y="-5.75" font-family="Helvetica,sans-Serif" font-size="10.00">string</text>
</a>
</g>
</g>
<!-- Node2&#45;&gt;Node4 -->
<g id="edge3_Node000002_Node000004" class="edge">
<title>Node2&#45;&gt;Node4</title>
<g id="a_edge3_Node000002_Node000004"><a xlink:title=" ">
<path fill="none" stroke="#63b8ff" d="M204.58,-54.84C180.9,-45.9 144.53,-32.16 118.61,-22.37"/>
<polygon fill="#63b8ff" stroke="#63b8ff" points="119.88,-19.11 109.28,-18.85 117.4,-25.66 119.88,-19.11"/>
</a>
</g>
</g>
<!-- Node5 -->
<g id="Node000005" class="node">
<title>Node5</title>
<g id="a_Node000005"><a xlink:title=" ">
<polygon fill="#e0e0e0" stroke="#999999" points="169,-19.25 126,-19.25 126,0 169,0 169,-19.25"/>
<text text-anchor="middle" x="147.5" y="-5.75" font-family="Helvetica,sans-Serif" font-size="10.00">vector</text>
</a>
</g>
</g>
<!-- Node2&#45;&gt;Node5 -->
<g id="edge4_Node000002_Node000005" class="edge">
<title>Node2&#45;&gt;Node5</title>
<g id="a_edge4_Node000002_Node000005"><a xlink:title=" ">
<path fill="none" stroke="#63b8ff" d="M214.76,-54.84C202.77,-46.96 185.13,-35.36 170.92,-26.02"/>
<polygon fill="#63b8ff" stroke="#63b8ff" points="172.85,-23.1 162.57,-20.53 169.01,-28.95 172.85,-23.1"/>
</a>
</g>
</g>
<!-- Node6 -->
<g id="Node000006" class="node">
<title>Node6</title>
<g id="a_Node000006"><a xlink:title=" ">
<polygon fill="#e0e0e0" stroke="#999999" points="297.5,-19.25 239.5,-19.25 239.5,0 297.5,0 297.5,-19.25"/>
<text text-anchor="middle" x="268.5" y="-5.75" font-family="Helvetica,sans-Serif" font-size="10.00">stdexcept</text>
</a>
</g>
</g>
<!-- Node2&#45;&gt;Node6 -->
<g id="edge5_Node000002_Node000006" class="edge">
<title>Node2&#45;&gt;Node6</title>
<g id="a_edge5_Node000002_Node000006"><a xlink:title=" ">
<path fill="none" stroke="#63b8ff" d="M235.11,-55.08C240.46,-47.96 248.18,-37.68 254.85,-28.8"/>
<polygon fill="#63b8ff" stroke="#63b8ff" points="257.63,-30.92 260.84,-20.82 252.04,-26.71 257.63,-30.92"/>
</a>
</g>
</g>
<!-- Node2&#45;&gt;Node7 -->
<g id="edge6_Node000002_Node000007" class="edge">
<title>Node2&#45;&gt;Node7</title>
<g id="a_edge6_Node000002_Node000007"><a xlink:title=" ">
<path fill="none" stroke="#63b8ff" d="M272.1,-56.8C319.52,-48.94 397.78,-35.47 474.59,-19.55"/>
<polygon fill="#63b8ff" stroke="#63b8ff" points="474.86,-23.07 483.93,-17.6 473.42,-16.22 474.86,-23.07"/>
</a>
</g>
</g>
<!-- Node8 -->
<g id="Node000008" class="node">
<title>Node8</title>
<g id="a_Node000008"><a xlink:title=" ">
<polygon fill="#e0e0e0" stroke="#999999" points="377,-19.25 316,-19.25 316,0 377,0 377,-19.25"/>
<text text-anchor="middle" x="346.5" y="-5.75" font-family="Helvetica,sans-Serif" font-size="10.00">TNamed.h</text>
</a>
</g>
</g>
<!-- Node2&#45;&gt;Node8 -->
<g id="edge7_Node000002_Node000008" class="edge">
<title>Node2&#45;&gt;Node8</title>
<g id="a_edge7_Node000002_Node000008"><a xlink:title=" ">
<path fill="none" stroke="#63b8ff" d="M248.52,-54.84C266.99,-46.5 294.71,-34 315.95,-24.41"/>
<polygon fill="#63b8ff" stroke="#63b8ff" points="317.33,-27.63 325.01,-20.33 314.45,-21.25 317.33,-27.63"/>
</a>
</g>
</g>
<!-- Node9 -->
<g id="Node000009" class="node">
<title>Node9</title>
<g id="a_Node000009"><a xlink:title=" ">
<polygon fill="#e0e0e0" stroke="#999999" points="467.62,-19.25 395.38,-19.25 395.38,0 467.62,0 467.62,-19.25"/>
<text text-anchor="middle" x="431.5" y="-5.75" font-family="Helvetica,sans-Serif" font-size="10.00">TCollection.h</text>
</a>
</g>
</g>
<!-- Node2&#45;&gt;Node9 -->
<g id="edge8_Node000002_Node000009" class="edge">
<title>Node2&#45;&gt;Node9</title>
<g id="a_edge8_Node000002_Node000009"><a xlink:title=" ">
<path fill="none" stroke="#63b8ff" d="M262.94,-54.84C296.77,-45.97 348.59,-32.37 385.84,-22.6"/>
<polygon fill="#63b8ff" stroke="#63b8ff" points="386.65,-26.01 395.43,-20.09 384.87,-19.24 386.65,-26.01"/>
</a>
</g>
</g>
<!-- Node15&#45;&gt;Node4 -->
<g id="edge17_Node000015_Node000004" class="edge">
<title>Node15&#45;&gt;Node4</title>
<g id="a_edge17_Node000015_Node000004"><a xlink:title=" ">
<path fill="none" stroke="#63b8ff" d="M116.72,-55.08C112.09,-48.03 105.43,-37.9 99.63,-29.08"/>
<polygon fill="#63b8ff" stroke="#63b8ff" points="102.65,-27.31 94.24,-20.87 96.8,-31.15 102.65,-27.31"/>
</a>
</g>
</g>
<!-- Node15&#45;&gt;Node5 -->
<g id="edge18_Node000015_Node000005" class="edge">
<title>Node15&#45;&gt;Node5</title>
<g id="a_edge18_Node000015_Node000005"><a xlink:title=" ">
<path fill="none" stroke="#63b8ff" d="M126.63,-55.08C129.83,-48.26 134.39,-38.56 138.43,-29.95"/>
<polygon fill="#63b8ff" stroke="#63b8ff" points="141.56,-31.52 142.64,-20.98 135.22,-28.54 141.56,-31.52"/>
</a>
</g>
</g>
<!-- Node15&#45;&gt;Node10 -->
<g id="edge16_Node000015_Node000010" class="edge">
<title>Node15&#45;&gt;Node10</title>
<g id="a_edge16_Node000015_Node000010"><a xlink:title=" ">
<path fill="none" stroke="#63b8ff" d="M105.88,-54.84C90.81,-46.66 68.36,-34.46 50.85,-24.94"/>
<polygon fill="#63b8ff" stroke="#63b8ff" points="52.99,-22.12 42.54,-20.43 49.65,-28.27 52.99,-22.12"/>
</a>
</g>
</g>
</g>
</svg>
