<?xml version="1.0" encoding="UTF-8" standalone="no"?>
<!DOCTYPE svg PUBLIC "-//W3C//DTD SVG 1.1//EN"
 "http://www.w3.org/Graphics/SVG/1.1/DTD/svg11.dtd">
<!-- Generated by graphviz version 9.0.0 (20230911.1827)
 -->
<!-- Title: TXMLOdb.cxx Pages: 1 -->
<!--zoomable 193 -->

<svg id="main" version="1.1" xmlns="http://www.w3.org/2000/svg" xmlns:xlink="http://www.w3.org/1999/xlink" xml:space="preserve" onload="init(evt)">
<style type="text/css"><![CDATA[
.node, .edge {opacity: 0.7;}
.node.selected, .edge.selected {opacity: 1;}
.edge:hover path { stroke: red; }
.edge:hover polygon { stroke: red; fill: red; }
]]></style>

<defs>
  <circle id="rim" cx="0" cy="0" r="7"/>
  <circle id="rim2" cx="0" cy="0" r="3.5"/>
  <g id="zoomPlus">
    <use xlink:href="#rim" fill="#404040"><set attributeName="fill" to="#808080" begin="zoomplus.mouseover" end="zoomplus.mouseout"/></use>
    <path d="M-4,0h8M0,-4v8" fill="none" stroke="white" stroke-width="1.5" pointer-events="none"/>
  </g>
  <g id="zoomMin">
    <use xlink:href="#rim" fill="#404040"><set attributeName="fill" to="#808080" begin="zoomminus.mouseover" end="zoomminus.mouseout"/></use>
    <path d="M-4,0h8" fill="none" stroke="white" stroke-width="1.5" pointer-events="none"/>
  </g>
  <g id="arrowUp" transform="translate(30 24)">
    <use xlink:href="#rim"/>
    <path pointer-events="none" fill="none" stroke="white" stroke-width="1.5" d="M0,-3.0v7 M-2.5,-0.5L0,-3.0L2.5,-0.5"/>
  </g>
  <g id="arrowRight" transform="rotate(90) translate(36 -43)">
    <use xlink:href="#rim"/>
    <path pointer-events="none" fill="none" stroke="white" stroke-width="1.5" d="M0,-3.0v7 M-2.5,-0.5L0,-3.0L2.5,-0.5"/>
  </g>
  <g id="arrowDown" transform="rotate(180) translate(-30 -48)">
    <use xlink:href="#rim"/>
    <path pointer-events="none" fill="none" stroke="white" stroke-width="1.5" d="M0,-3.0v7 M-2.5,-0.5L0,-3.0L2.5,-0.5"/>
  </g>
  <g id="arrowLeft" transform="rotate(270) translate(-36 17)">
    <use xlink:href="#rim"/>
    <path pointer-events="none" fill="none" stroke="white" stroke-width="1.5" d="M0,-3.0v7 M-2.5,-0.5L0,-3.0L2.5,-0.5"/>
  </g>
  <g id="resetDef">
    <use xlink:href="#rim2" fill="#404040"><set attributeName="fill" to="#808080" begin="reset.mouseover" end="reset.mouseout"/></use>
  </g>
</defs>
<script type="application/ecmascript">
var viewWidth = 1076;
var viewHeight = 193;
var sectionId = 'dynsection-0';
</script>
<script type="application/ecmascript" xlink:href="svg.min.js"/>
<svg id="graph" class="graph">
<g id="viewport">
<title>TXMLOdb.cxx</title>
<!-- Node1 -->
<g id="Node000001" class="node">
<title>Node1</title>
<g id="a_Node000001"><a xlink:title=" ">
<polygon fill="#999999" stroke="#666666" points="729.75,-185 652.25,-185 652.25,-165.75 729.75,-165.75 729.75,-185"/>
<text text-anchor="middle" x="691" y="-171.5" font-family="Helvetica,sans-Serif" font-size="10.00">TXMLOdb.cxx</text>
</a>
</g>
</g>
<!-- Node2 -->
<g id="Node000002" class="node">
<title>Node2</title>
<g id="a_Node000002"><a xlink:title=" ">
<polygon fill="#e0e0e0" stroke="#999999" points="58,-19.25 0,-19.25 0,0 58,0 58,-19.25"/>
<text text-anchor="middle" x="29" y="-5.75" font-family="Helvetica,sans-Serif" font-size="10.00">stdexcept</text>
</a>
</g>
</g>
<!-- Node1&#45;&gt;Node2 -->
<g id="edge1_Node000001_Node000002" class="edge">
<title>Node1&#45;&gt;Node2</title>
<g id="a_edge1_Node000001_Node000002"><a xlink:title=" ">
<path fill="none" stroke="#63b8ff" d="M654.47,-165.34C539.98,-137.02 188.73,-50.13 69.26,-20.58"/>
<polygon fill="#63b8ff" stroke="#63b8ff" points="70.46,-17.27 59.91,-18.27 68.78,-24.07 70.46,-17.27"/>
</a>
</g>
</g>
<!-- Node3 -->
<g id="Node000003" class="node">
<title>Node3</title>
<g id="a_Node000003"><a xlink:href="_t_x_m_l_odb_8h.html" target="_top" xlink:title=" ">
<polygon fill="white" stroke="#666666" points="688.25,-129.75 619.75,-129.75 619.75,-110.5 688.25,-110.5 688.25,-129.75"/>
<text text-anchor="middle" x="654" y="-116.25" font-family="Helvetica,sans-Serif" font-size="10.00">TXMLOdb.h</text>
</a>
</g>
</g>
<!-- Node1&#45;&gt;Node3 -->
<g id="edge2_Node000001_Node000003" class="edge">
<title>Node1&#45;&gt;Node3</title>
<g id="a_edge2_Node000001_Node000003"><a xlink:title=" ">
<path fill="none" stroke="#63b8ff" d="M684.89,-165.58C679.94,-158.46 672.8,-148.18 666.63,-139.3"/>
<polygon fill="#63b8ff" stroke="#63b8ff" points="669.69,-137.57 661.11,-131.35 663.94,-141.56 669.69,-137.57"/>
</a>
</g>
</g>
<!-- Node25 -->
<g id="Node000025" class="node">
<title>Node25</title>
<g id="a_Node000025"><a xlink:title=" ">
<polygon fill="#e0e0e0" stroke="#999999" points="752,-129.75 706,-129.75 706,-110.5 752,-110.5 752,-129.75"/>
<text text-anchor="middle" x="729" y="-116.25" font-family="Helvetica,sans-Serif" font-size="10.00">TList.h</text>
</a>
</g>
</g>
<!-- Node1&#45;&gt;Node25 -->
<g id="edge28_Node000001_Node000025" class="edge">
<title>Node1&#45;&gt;Node25</title>
<g id="a_edge28_Node000001_Node000025"><a xlink:title=" ">
<path fill="none" stroke="#63b8ff" d="M697.27,-165.58C702.36,-158.46 709.7,-148.18 716.03,-139.3"/>
<polygon fill="#63b8ff" stroke="#63b8ff" points="718.75,-141.51 721.71,-131.34 713.05,-137.45 718.75,-141.51"/>
</a>
</g>
</g>
<!-- Node26 -->
<g id="Node000026" class="node">
<title>Node26</title>
<g id="a_Node000026"><a xlink:title=" ">
<polygon fill="#e0e0e0" stroke="#999999" points="836.12,-129.75 769.88,-129.75 769.88,-110.5 836.12,-110.5 836.12,-129.75"/>
<text text-anchor="middle" x="803" y="-116.25" font-family="Helvetica,sans-Serif" font-size="10.00">TXMLAttr.h</text>
</a>
</g>
</g>
<!-- Node1&#45;&gt;Node26 -->
<g id="edge29_Node000001_Node000026" class="edge">
<title>Node1&#45;&gt;Node26</title>
<g id="a_edge29_Node000001_Node000026"><a xlink:title=" ">
<path fill="none" stroke="#63b8ff" d="M710,-165.34C727.46,-157.04 753.6,-144.61 773.72,-135.04"/>
<polygon fill="#63b8ff" stroke="#63b8ff" points="775.01,-138.31 782.54,-130.85 772.01,-131.99 775.01,-138.31"/>
</a>
</g>
</g>
<!-- Node4 -->
<g id="Node000004" class="node">
<title>Node4</title>
<g id="a_Node000004"><a xlink:title=" ">
<polygon fill="#e0e0e0" stroke="#999999" points="1068.25,-19.25 1023.75,-19.25 1023.75,0 1068.25,0 1068.25,-19.25"/>
<text text-anchor="middle" x="1046" y="-5.75" font-family="Helvetica,sans-Serif" font-size="10.00">cstdlib</text>
</a>
</g>
</g>
<!-- Node3&#45;&gt;Node4 -->
<g id="edge3_Node000003_Node000004" class="edge">
<title>Node3&#45;&gt;Node4</title>
<g id="a_edge3_Node000003_Node000004"><a xlink:title=" ">
<path fill="none" stroke="#63b8ff" d="M688.69,-111.91C691.5,-111.4 694.29,-110.93 697,-110.5 766.6,-99.56 953.76,-114.15 1012,-74.5 1027.09,-64.23 1036,-45.04 1040.89,-30.36"/>
<polygon fill="#63b8ff" stroke="#63b8ff" points="1044.23,-31.42 1043.67,-20.84 1037.51,-29.46 1044.23,-31.42"/>
</a>
</g>
</g>
<!-- Node5 -->
<g id="Node000005" class="node">
<title>Node5</title>
<g id="a_Node000005"><a xlink:title=" ">
<polygon fill="#e0e0e0" stroke="#999999" points="118.12,-19.25 75.88,-19.25 75.88,0 118.12,0 118.12,-19.25"/>
<text text-anchor="middle" x="97" y="-5.75" font-family="Helvetica,sans-Serif" font-size="10.00">cstdio</text>
</a>
</g>
</g>
<!-- Node3&#45;&gt;Node5 -->
<g id="edge4_Node000003_Node000005" class="edge">
<title>Node3&#45;&gt;Node5</title>
<g id="a_edge4_Node000003_Node000005"><a xlink:title=" ">
<path fill="none" stroke="#63b8ff" d="M619.55,-113.73C536.68,-100.52 319.61,-64.47 129.6,-19.7"/>
<polygon fill="#63b8ff" stroke="#63b8ff" points="130.58,-16.34 120.04,-17.43 128.96,-23.15 130.58,-16.34"/>
</a>
</g>
</g>
<!-- Node6 -->
<g id="Node000006" class="node">
<title>Node6</title>
<g id="a_Node000006"><a xlink:title=" ">
<polygon fill="#e0e0e0" stroke="#999999" points="600.5,-74.5 551.5,-74.5 551.5,-55.25 600.5,-55.25 600.5,-74.5"/>
<text text-anchor="middle" x="576" y="-61" font-family="Helvetica,sans-Serif" font-size="10.00">fstream</text>
</a>
</g>
</g>
<!-- Node3&#45;&gt;Node6 -->
<g id="edge5_Node000003_Node000006" class="edge">
<title>Node3&#45;&gt;Node6</title>
<g id="a_edge5_Node000003_Node000006"><a xlink:title=" ">
<path fill="none" stroke="#63b8ff" d="M640.77,-110.09C629.23,-102.21 612.23,-90.61 598.55,-81.27"/>
<polygon fill="#63b8ff" stroke="#63b8ff" points="600.78,-78.55 590.55,-75.81 596.83,-84.33 600.78,-78.55"/>
</a>
</g>
</g>
<!-- Node7 -->
<g id="Node000007" class="node">
<title>Node7</title>
<g id="a_Node000007"><a xlink:title=" ">
<polygon fill="#e0e0e0" stroke="#999999" points="1006,-19.25 966,-19.25 966,0 1006,0 1006,-19.25"/>
<text text-anchor="middle" x="986" y="-5.75" font-family="Helvetica,sans-Serif" font-size="10.00">string</text>
</a>
</g>
</g>
<!-- Node3&#45;&gt;Node7 -->
<g id="edge6_Node000003_Node000007" class="edge">
<title>Node3&#45;&gt;Node7</title>
<g id="a_edge6_Node000003_Node000007"><a xlink:title=" ">
<path fill="none" stroke="#63b8ff" d="M649.81,-110.44C643.93,-96.85 635.39,-70.54 649,-55.25 692.71,-6.13 871.94,-30.6 954.33,-19.11"/>
<polygon fill="#63b8ff" stroke="#63b8ff" points="954.76,-22.59 964.02,-17.45 953.58,-15.69 954.76,-22.59"/>
</a>
</g>
</g>
<!-- Node8 -->
<g id="Node000008" class="node">
<title>Node8</title>
<g id="a_Node000008"><a xlink:title=" ">
<polygon fill="#e0e0e0" stroke="#999999" points="700.5,-74.5 657.5,-74.5 657.5,-55.25 700.5,-55.25 700.5,-74.5"/>
<text text-anchor="middle" x="679" y="-61" font-family="Helvetica,sans-Serif" font-size="10.00">vector</text>
</a>
</g>
</g>
<!-- Node3&#45;&gt;Node8 -->
<g id="edge7_Node000003_Node000008" class="edge">
<title>Node3&#45;&gt;Node8</title>
<g id="a_edge7_Node000003_Node000008"><a xlink:title=" ">
<path fill="none" stroke="#63b8ff" d="M658.13,-110.33C661.33,-103.51 665.89,-93.81 669.93,-85.2"/>
<polygon fill="#63b8ff" stroke="#63b8ff" points="673.06,-86.77 674.14,-76.23 666.72,-83.79 673.06,-86.77"/>
</a>
</g>
</g>
<!-- Node9 -->
<g id="Node000009" class="node">
<title>Node9</title>
<g id="a_Node000009"><a xlink:href="_globals_8h.html" target="_top" xlink:title=" ">
<polygon fill="white" stroke="#666666" points="533.25,-74.5 476.75,-74.5 476.75,-55.25 533.25,-55.25 533.25,-74.5"/>
<text text-anchor="middle" x="505" y="-61" font-family="Helvetica,sans-Serif" font-size="10.00">Globals.h</text>
</a>
</g>
</g>
<!-- Node3&#45;&gt;Node9 -->
<g id="edge8_Node000003_Node000009" class="edge">
<title>Node3&#45;&gt;Node9</title>
<g id="a_edge8_Node000003_Node000009"><a xlink:title=" ">
<path fill="none" stroke="#63b8ff" d="M628.72,-110.09C604.64,-101.49 568.14,-88.44 541.02,-78.75"/>
<polygon fill="#63b8ff" stroke="#63b8ff" points="542.42,-75.53 531.83,-75.46 540.06,-82.12 542.42,-75.53"/>
</a>
</g>
</g>
<!-- Node22 -->
<g id="Node000022" class="node">
<title>Node22</title>
<g id="a_Node000022"><a xlink:title=" ">
<polygon fill="#e0e0e0" stroke="#999999" points="791.88,-74.5 718.12,-74.5 718.12,-55.25 791.88,-55.25 791.88,-74.5"/>
<text text-anchor="middle" x="755" y="-61" font-family="Helvetica,sans-Serif" font-size="10.00">TXMLNode.h</text>
</a>
</g>
</g>
<!-- Node3&#45;&gt;Node22 -->
<g id="edge25_Node000003_Node000022" class="edge">
<title>Node3&#45;&gt;Node22</title>
<g id="a_edge25_Node000003_Node000022"><a xlink:title=" ">
<path fill="none" stroke="#63b8ff" d="M671.13,-110.09C686.66,-101.91 709.8,-89.71 727.84,-80.19"/>
<polygon fill="#63b8ff" stroke="#63b8ff" points="729.23,-83.42 736.44,-75.66 725.97,-77.23 729.23,-83.42"/>
</a>
</g>
</g>
<!-- Node23 -->
<g id="Node000023" class="node">
<title>Node23</title>
<g id="a_Node000023"><a xlink:title=" ">
<polygon fill="#e0e0e0" stroke="#999999" points="904.38,-74.5 809.62,-74.5 809.62,-55.25 904.38,-55.25 904.38,-74.5"/>
<text text-anchor="middle" x="857" y="-61" font-family="Helvetica,sans-Serif" font-size="10.00">TXMLDocument.h</text>
</a>
</g>
</g>
<!-- Node3&#45;&gt;Node23 -->
<g id="edge26_Node000003_Node000023" class="edge">
<title>Node3&#45;&gt;Node23</title>
<g id="a_edge26_Node000003_Node000023"><a xlink:title=" ">
<path fill="none" stroke="#63b8ff" d="M688.44,-110.09C722.27,-101.22 774.09,-87.62 811.34,-77.85"/>
<polygon fill="#63b8ff" stroke="#63b8ff" points="812.15,-81.26 820.93,-75.34 810.37,-74.49 812.15,-81.26"/>
</a>
</g>
</g>
<!-- Node24 -->
<g id="Node000024" class="node">
<title>Node24</title>
<g id="a_Node000024"><a xlink:title=" ">
<polygon fill="#e0e0e0" stroke="#999999" points="1003.25,-74.5 922.75,-74.5 922.75,-55.25 1003.25,-55.25 1003.25,-74.5"/>
<text text-anchor="middle" x="963" y="-61" font-family="Helvetica,sans-Serif" font-size="10.00">TDOMParser.h</text>
</a>
</g>
</g>
<!-- Node3&#45;&gt;Node24 -->
<g id="edge27_Node000003_Node000024" class="edge">
<title>Node3&#45;&gt;Node24</title>
<g id="a_edge27_Node000003_Node000024"><a xlink:title=" ">
<path fill="none" stroke="#63b8ff" d="M688.71,-112.06C691.52,-111.52 694.3,-110.99 697,-110.5 789.27,-93.56 815.19,-90.95 911.24,-74.78"/>
<polygon fill="#63b8ff" stroke="#63b8ff" points="911.57,-78.28 920.85,-73.16 910.41,-71.38 911.57,-78.28"/>
</a>
</g>
</g>
<!-- Node9&#45;&gt;Node2 -->
<g id="edge12_Node000009_Node000002" class="edge">
<title>Node9&#45;&gt;Node2</title>
<g id="a_edge12_Node000009_Node000002"><a xlink:title=" ">
<path fill="none" stroke="#63b8ff" d="M476.4,-62.17C407.85,-57.83 228.61,-44.96 69.33,-19.45"/>
<polygon fill="#63b8ff" stroke="#63b8ff" points="70.31,-16.06 59.88,-17.91 69.19,-22.97 70.31,-16.06"/>
</a>
</g>
</g>
<!-- Node9&#45;&gt;Node4 -->
<g id="edge15_Node000009_Node000004" class="edge">
<title>Node9&#45;&gt;Node4</title>
<g id="a_edge15_Node000009_Node000004"><a xlink:title=" ">
<path fill="none" stroke="#63b8ff" d="M533.55,-56.92C536.72,-56.29 539.92,-55.71 543,-55.25 747.38,-24.43 805.74,-54.52 1012.2,-19.4"/>
<polygon fill="#63b8ff" stroke="#63b8ff" points="1012.68,-22.87 1021.94,-17.71 1011.49,-15.97 1012.68,-22.87"/>
</a>
</g>
</g>
<!-- Node9&#45;&gt;Node5 -->
<g id="edge14_Node000009_Node000005" class="edge">
<title>Node9&#45;&gt;Node5</title>
<g id="a_edge14_Node000009_Node000005"><a xlink:title=" ">
<path fill="none" stroke="#63b8ff" d="M476.3,-62.08C414.49,-57.89 264.12,-45.87 129.43,-19.45"/>
<polygon fill="#63b8ff" stroke="#63b8ff" points="130.5,-16.09 120.01,-17.56 129.13,-22.95 130.5,-16.09"/>
</a>
</g>
</g>
<!-- Node9&#45;&gt;Node7 -->
<g id="edge13_Node000009_Node000007" class="edge">
<title>Node9&#45;&gt;Node7</title>
<g id="a_edge13_Node000009_Node000007"><a xlink:title=" ">
<path fill="none" stroke="#63b8ff" d="M533.55,-56.95C536.73,-56.32 539.93,-55.73 543,-55.25 721.83,-27.31 773.5,-52.69 954.29,-19.39"/>
<polygon fill="#63b8ff" stroke="#63b8ff" points="954.86,-22.84 964.04,-17.55 953.57,-15.96 954.86,-22.84"/>
</a>
</g>
</g>
<!-- Node10 -->
<g id="Node000010" class="node">
<title>Node10</title>
<g id="a_Node000010"><a xlink:title=" ">
<polygon fill="#e0e0e0" stroke="#999999" points="808.62,-19.25 763.38,-19.25 763.38,0 808.62,0 808.62,-19.25"/>
<text text-anchor="middle" x="786" y="-5.75" font-family="Helvetica,sans-Serif" font-size="10.00">cstdint</text>
</a>
</g>
</g>
<!-- Node9&#45;&gt;Node10 -->
<g id="edge9_Node000009_Node000010" class="edge">
<title>Node9&#45;&gt;Node10</title>
<g id="a_edge9_Node000009_Node000010"><a xlink:title=" ">
<path fill="none" stroke="#63b8ff" d="M533.6,-57.21C536.77,-56.52 539.95,-55.86 543,-55.25 632.85,-37.4 659.15,-39.46 751.96,-19.51"/>
<polygon fill="#63b8ff" stroke="#63b8ff" points="752.49,-22.98 761.51,-17.43 751,-16.14 752.49,-22.98"/>
</a>
</g>
</g>
<!-- Node11 -->
<g id="Node000011" class="node">
<title>Node11</title>
<g id="a_Node000011"><a xlink:title=" ">
<polygon fill="#e0e0e0" stroke="#999999" points="879.75,-19.25 826.25,-19.25 826.25,0 879.75,0 879.75,-19.25"/>
<text text-anchor="middle" x="853" y="-5.75" font-family="Helvetica,sans-Serif" font-size="10.00">iostream</text>
</a>
</g>
</g>
<!-- Node9&#45;&gt;Node11 -->
<g id="edge10_Node000009_Node000011" class="edge">
<title>Node9&#45;&gt;Node11</title>
<g id="a_edge10_Node000009_Node000011"><a xlink:title=" ">
<path fill="none" stroke="#63b8ff" d="M533.58,-57.09C536.75,-56.43 539.94,-55.8 543,-55.25 660.79,-34.22 694.88,-41.56 814.83,-19.67"/>
<polygon fill="#63b8ff" stroke="#63b8ff" points="815.25,-23.16 824.44,-17.89 813.97,-16.27 815.25,-23.16"/>
</a>
</g>
</g>
<!-- Node12 -->
<g id="Node000012" class="node">
<title>Node12</title>
<g id="a_Node000012"><a xlink:title=" ">
<polygon fill="#e0e0e0" stroke="#999999" points="947.88,-19.25 898.12,-19.25 898.12,0 947.88,0 947.88,-19.25"/>
<text text-anchor="middle" x="923" y="-5.75" font-family="Helvetica,sans-Serif" font-size="10.00">iomanip</text>
</a>
</g>
</g>
<!-- Node9&#45;&gt;Node12 -->
<g id="edge11_Node000009_Node000012" class="edge">
<title>Node9&#45;&gt;Node12</title>
<g id="a_edge11_Node000009_Node000012"><a xlink:title=" ">
<path fill="none" stroke="#63b8ff" d="M533.56,-57.01C536.74,-56.36 539.93,-55.76 543,-55.25 691.97,-30.68 734.79,-45.59 886.71,-19.4"/>
<polygon fill="#63b8ff" stroke="#63b8ff" points="887.1,-22.88 896.35,-17.7 885.89,-15.99 887.1,-22.88"/>
</a>
</g>
</g>
<!-- Node13 -->
<g id="Node000013" class="node">
<title>Node13</title>
<g id="a_Node000013"><a xlink:title=" ">
<polygon fill="#e0e0e0" stroke="#999999" points="195.75,-19.25 136.25,-19.25 136.25,0 195.75,0 195.75,-19.25"/>
<text text-anchor="middle" x="166" y="-5.75" font-family="Helvetica,sans-Serif" font-size="10.00">execinfo.h</text>
</a>
</g>
</g>
<!-- Node9&#45;&gt;Node13 -->
<g id="edge16_Node000009_Node000013" class="edge">
<title>Node9&#45;&gt;Node13</title>
<g id="a_edge16_Node000009_Node000013"><a xlink:title=" ">
<path fill="none" stroke="#63b8ff" d="M476.35,-60.29C424.67,-53.68 312.2,-38.64 207.3,-19.56"/>
<polygon fill="#63b8ff" stroke="#63b8ff" points="208.15,-16.16 197.68,-17.79 206.88,-23.04 208.15,-16.16"/>
</a>
</g>
</g>
<!-- Node14 -->
<g id="Node000014" class="node">
<title>Node14</title>
<g id="a_Node000014"><a xlink:title=" ">
<polygon fill="#e0e0e0" stroke="#999999" points="264.25,-19.25 213.75,-19.25 213.75,0 264.25,0 264.25,-19.25"/>
<text text-anchor="middle" x="239" y="-5.75" font-family="Helvetica,sans-Serif" font-size="10.00">cxxabi.h</text>
</a>
</g>
</g>
<!-- Node9&#45;&gt;Node14 -->
<g id="edge17_Node000009_Node000014" class="edge">
<title>Node9&#45;&gt;Node14</title>
<g id="a_edge17_Node000009_Node000014"><a xlink:title=" ">
<path fill="none" stroke="#63b8ff" d="M476.32,-58.91C434.36,-51.54 353.55,-36.88 275.56,-19.72"/>
<polygon fill="#63b8ff" stroke="#63b8ff" points="276.58,-16.36 266.06,-17.61 275.06,-23.2 276.58,-16.36"/>
</a>
</g>
</g>
<!-- Node15 -->
<g id="Node000015" class="node">
<title>Node15</title>
<g id="a_Node000015"><a xlink:title=" ">
<polygon fill="#e0e0e0" stroke="#999999" points="333.62,-19.25 282.38,-19.25 282.38,0 333.62,0 333.62,-19.25"/>
<text text-anchor="middle" x="308" y="-5.75" font-family="Helvetica,sans-Serif" font-size="10.00">sstream</text>
</a>
</g>
</g>
<!-- Node9&#45;&gt;Node15 -->
<g id="edge18_Node000009_Node000015" class="edge">
<title>Node9&#45;&gt;Node15</title>
<g id="a_edge18_Node000009_Node000015"><a xlink:title=" ">
<path fill="none" stroke="#63b8ff" d="M476.35,-56.13C441.49,-46.71 382.56,-30.78 344.48,-20.48"/>
<polygon fill="#63b8ff" stroke="#63b8ff" points="345.88,-17.24 335.31,-18.01 344.05,-24 345.88,-17.24"/>
</a>
</g>
</g>
<!-- Node16 -->
<g id="Node000016" class="node">
<title>Node16</title>
<g id="a_Node000016"><a xlink:title=" ">
<polygon fill="#e0e0e0" stroke="#999999" points="388.5,-19.25 351.5,-19.25 351.5,0 388.5,0 388.5,-19.25"/>
<text text-anchor="middle" x="370" y="-5.75" font-family="Helvetica,sans-Serif" font-size="10.00">array</text>
</a>
</g>
</g>
<!-- Node9&#45;&gt;Node16 -->
<g id="edge19_Node000009_Node000016" class="edge">
<title>Node9&#45;&gt;Node16</title>
<g id="a_edge19_Node000009_Node000016"><a xlink:title=" ">
<path fill="none" stroke="#63b8ff" d="M482.1,-54.84C459.27,-45.84 424.11,-31.97 399.27,-22.17"/>
<polygon fill="#63b8ff" stroke="#63b8ff" points="400.65,-18.95 390.07,-18.54 398.08,-25.47 400.65,-18.95"/>
</a>
</g>
</g>
<!-- Node17 -->
<g id="Node000017" class="node">
<title>Node17</title>
<g id="a_Node000017"><a xlink:title=" ">
<polygon fill="#e0e0e0" stroke="#999999" points="457.25,-19.25 406.75,-19.25 406.75,0 457.25,0 457.25,-19.25"/>
<text text-anchor="middle" x="432" y="-5.75" font-family="Helvetica,sans-Serif" font-size="10.00">memory</text>
</a>
</g>
</g>
<!-- Node9&#45;&gt;Node17 -->
<g id="edge20_Node000009_Node000017" class="edge">
<title>Node9&#45;&gt;Node17</title>
<g id="a_edge20_Node000009_Node000017"><a xlink:title=" ">
<path fill="none" stroke="#63b8ff" d="M492.62,-54.84C481.85,-46.99 466.03,-35.45 453.25,-26.12"/>
<polygon fill="#63b8ff" stroke="#63b8ff" points="455.56,-23.48 445.42,-20.42 451.44,-29.14 455.56,-23.48"/>
</a>
</g>
</g>
<!-- Node18 -->
<g id="Node000018" class="node">
<title>Node18</title>
<g id="a_Node000018"><a xlink:title=" ">
<polygon fill="#e0e0e0" stroke="#999999" points="524.88,-19.25 475.12,-19.25 475.12,0 524.88,0 524.88,-19.25"/>
<text text-anchor="middle" x="500" y="-5.75" font-family="Helvetica,sans-Serif" font-size="10.00">unistd.h</text>
</a>
</g>
</g>
<!-- Node9&#45;&gt;Node18 -->
<g id="edge21_Node000009_Node000018" class="edge">
<title>Node9&#45;&gt;Node18</title>
<g id="a_edge21_Node000009_Node000018"><a xlink:title=" ">
<path fill="none" stroke="#63b8ff" d="M504.17,-55.08C503.56,-48.49 502.68,-39.21 501.9,-30.82"/>
<polygon fill="#63b8ff" stroke="#63b8ff" points="505.4,-30.75 500.99,-21.12 498.44,-31.4 505.4,-30.75"/>
</a>
</g>
</g>
<!-- Node19 -->
<g id="Node000019" class="node">
<title>Node19</title>
<g id="a_Node000019"><a xlink:title=" ">
<polygon fill="#e0e0e0" stroke="#999999" points="589,-19.25 543,-19.25 543,0 589,0 589,-19.25"/>
<text text-anchor="middle" x="566" y="-5.75" font-family="Helvetica,sans-Serif" font-size="10.00">TEnv.h</text>
</a>
</g>
</g>
<!-- Node9&#45;&gt;Node19 -->
<g id="edge22_Node000009_Node000019" class="edge">
<title>Node9&#45;&gt;Node19</title>
<g id="a_edge22_Node000009_Node000019"><a xlink:title=" ">
<path fill="none" stroke="#63b8ff" d="M515.35,-54.84C524.08,-47.22 536.79,-36.12 547.3,-26.95"/>
<polygon fill="#63b8ff" stroke="#63b8ff" points="549.43,-29.73 554.66,-20.52 544.83,-24.46 549.43,-29.73"/>
</a>
</g>
</g>
<!-- Node20 -->
<g id="Node000020" class="node">
<title>Node20</title>
<g id="a_Node000020"><a xlink:title=" ">
<polygon fill="#e0e0e0" stroke="#999999" points="666.75,-19.25 607.25,-19.25 607.25,0 666.75,0 666.75,-19.25"/>
<text text-anchor="middle" x="637" y="-5.75" font-family="Helvetica,sans-Serif" font-size="10.00">sys/wait.h</text>
</a>
</g>
</g>
<!-- Node9&#45;&gt;Node20 -->
<g id="edge23_Node000009_Node000020" class="edge">
<title>Node9&#45;&gt;Node20</title>
<g id="a_edge23_Node000009_Node000020"><a xlink:title=" ">
<path fill="none" stroke="#63b8ff" d="M527.39,-54.84C548.44,-46.35 580.2,-33.54 604.12,-23.89"/>
<polygon fill="#63b8ff" stroke="#63b8ff" points="605.13,-27.26 613.09,-20.27 602.51,-20.76 605.13,-27.26"/>
</a>
</g>
</g>
<!-- Node21 -->
<g id="Node000021" class="node">
<title>Node21</title>
<g id="a_Node000021"><a xlink:title=" ">
<polygon fill="#e0e0e0" stroke="#999999" points="745.12,-19.25 684.88,-19.25 684.88,0 745.12,0 745.12,-19.25"/>
<text text-anchor="middle" x="715" y="-5.75" font-family="Helvetica,sans-Serif" font-size="10.00">sys/prctl.h</text>
</a>
</g>
</g>
<!-- Node9&#45;&gt;Node21 -->
<g id="edge24_Node000009_Node000021" class="edge">
<title>Node9&#45;&gt;Node21</title>
<g id="a_edge24_Node000009_Node000021"><a xlink:title=" ">
<path fill="none" stroke="#63b8ff" d="M533.32,-56.69C569.34,-47.56 631.84,-31.71 673.31,-21.2"/>
<polygon fill="#63b8ff" stroke="#63b8ff" points="674.11,-24.6 682.94,-18.75 672.39,-17.82 674.11,-24.6"/>
</a>
</g>
</g>
</g>
</svg>

<g id="navigator" transform="translate(0 0)" fill="#404254">
  <rect fill="#f2f5e9" fill-opacity="0.5" stroke="#606060" stroke-width=".5" x="0" y="0" width="60" height="60"/>
  <use id="zoomplus" xlink:href="#zoomPlus" x="17" y="9" onmousedown="handleZoom(evt,'in')"/>
  <use id="zoomminus" xlink:href="#zoomMin" x="42" y="9" onmousedown="handleZoom(evt,'out')"/>
  <use id="reset" xlink:href="#resetDef" x="30" y="36" onmousedown="handleReset()"/>
   <use id="arrowup" xlink:href="#arrowUp" x="0" y="0" onmousedown="handlePan(0,-1)"/>
  <use id="arrowright" xlink:href="#arrowRight" x="0" y="0" onmousedown="handlePan(1,0)"/>
  <use id="arrowdown" xlink:href="#arrowDown" x="0" y="0" onmousedown="handlePan(0,1)"/>
  <use id="arrowleft" xlink:href="#arrowLeft" x="0" y="0" onmousedown="handlePan(-1,0)"/>
</g>
<svg viewBox="0 0 15 15" width="100%" height="30px" preserveAspectRatio="xMaxYMin meet">
 <g id="arrow_out" transform="scale(0.3 0.3)">
  <a xlink:href="_t_x_m_l_odb_8cxx__incl_org.svg" target="_base">
   <rect id="button" ry="5" rx="5" y="6" x="6" height="38" width="38"
        fill="#f2f5e9" fill-opacity="0.5" stroke="#606060" stroke-width="1.0"/>
   <path id="arrow"
     d="M 11.500037,31.436501 C 11.940474,20.09759 22.043105,11.32322 32.158766,21.979434 L 37.068811,17.246167 C 37.068811,17.246167 37.088388,32 37.088388,32 L 22.160133,31.978069 C 22.160133,31.978069 26.997745,27.140456 26.997745,27.140456 C 18.528582,18.264221 13.291696,25.230495 11.500037,31.436501 z"
     style="fill:#404040;"/>
  </a>
 </g>
</svg>

<style type='text/css'>
<![CDATA[
[data-mouse-over-selected='false'] { opacity: 0.7; }
[data-mouse-over-selected='true']  { opacity: 1.0; }
]]>
</style>
<script type="application/ecmascript"><![CDATA[
document.addEventListener('DOMContentLoaded', (event) => {
  highlightEdges();
  highlightAdjacentNodes();
});
]]></script>
</svg>
