<?xml version="1.0" encoding="UTF-8" standalone="no"?>
<!DOCTYPE svg PUBLIC "-//W3C//DTD SVG 1.1//EN"
 "http://www.w3.org/Graphics/SVG/1.1/DTD/svg11.dtd">
<!-- Generated by graphviz version 12.2.0 (20241103.1931)
 -->
<!-- Title: TXMLOdb.h Pages: 1 -->
<!--zoomable 138 -->

<svg id="main" version="1.1" xmlns="http://www.w3.org/2000/svg" xmlns:xlink="http://www.w3.org/1999/xlink" xml:space="preserve" onload="init(evt)">

<style type="text/css"><![CDATA[
.node, .edge {opacity: 0.7;}
.node.selected, .edge.selected {opacity: 1;}
.edge:hover path { stroke: red; }
.edge:hover polygon { stroke: red; fill: red; }
]]></style>

<defs>
  <circle id="rim" cx="0" cy="0" r="7"/>
  <circle id="rim2" cx="0" cy="0" r="3.5"/>
  <g id="zoomPlus">
    <use xlink:href="#rim" fill="#404040"><set attributeName="fill" to="#808080" begin="zoomplus.mouseover" end="zoomplus.mouseout"/></use>
    <path d="M-4,0h8M0,-4v8" fill="none" stroke="white" stroke-width="1.5" pointer-events="none"/>
  </g>
  <g id="zoomMin">
    <use xlink:href="#rim" fill="#404040"><set attributeName="fill" to="#808080" begin="zoomminus.mouseover" end="zoomminus.mouseout"/></use>
    <path d="M-4,0h8" fill="none" stroke="white" stroke-width="1.5" pointer-events="none"/>
  </g>
  <g id="arrowUp" transform="translate(30 24)">
    <use xlink:href="#rim"/>
    <path pointer-events="none" fill="none" stroke="white" stroke-width="1.5" d="M0,-3.0v7 M-2.5,-0.5L0,-3.0L2.5,-0.5"/>
  </g>
  <g id="arrowRight" transform="rotate(90) translate(36 -43)">
    <use xlink:href="#rim"/>
    <path pointer-events="none" fill="none" stroke="white" stroke-width="1.5" d="M0,-3.0v7 M-2.5,-0.5L0,-3.0L2.5,-0.5"/>
  </g>
  <g id="arrowDown" transform="rotate(180) translate(-30 -48)">
    <use xlink:href="#rim"/>
    <path pointer-events="none" fill="none" stroke="white" stroke-width="1.5" d="M0,-3.0v7 M-2.5,-0.5L0,-3.0L2.5,-0.5"/>
  </g>
  <g id="arrowLeft" transform="rotate(270) translate(-36 17)">
    <use xlink:href="#rim"/>
    <path pointer-events="none" fill="none" stroke="white" stroke-width="1.5" d="M0,-3.0v7 M-2.5,-0.5L0,-3.0L2.5,-0.5"/>
  </g>
  <g id="resetDef">
    <use xlink:href="#rim2" fill="#404040"><set attributeName="fill" to="#808080" begin="reset.mouseover" end="reset.mouseout"/></use>
  </g>
</defs>
<script type="application/ecmascript">
var viewWidth = 1013;
var viewHeight = 138;
var sectionId = 'dynsection-0';
</script>
<script type="application/ecmascript" xlink:href="svg.min.js"/>
<svg id="graph" class="graph">
<g id="viewport">
<title>TXMLOdb.h</title>
<!-- Node1 -->
<g id="Node000001" class="node">
<title>Node1</title>
<g id="a_Node000001"><a xlink:title=" ">
<polygon fill="#999999" stroke="#666666" points="498.5,-129.75 430,-129.75 430,-110.5 498.5,-110.5 498.5,-129.75"/>
<text text-anchor="middle" x="464.25" y="-116.25" font-family="Helvetica,sans-Serif" font-size="10.00">TXMLOdb.h</text>
</a>
</g>
</g>
<!-- Node2 -->
<g id="Node000002" class="node">
<title>Node2</title>
<g id="a_Node000002"><a xlink:title=" ">
<polygon fill="#e0e0e0" stroke="#999999" points="44.5,-19.25 0,-19.25 0,0 44.5,0 44.5,-19.25"/>
<text text-anchor="middle" x="22.25" y="-5.75" font-family="Helvetica,sans-Serif" font-size="10.00">cstdlib</text>
</a>
</g>
</g>
<!-- Node1&#45;&gt;Node2 -->
<g id="edge1_Node000001_Node000002" class="edge">
<title>Node1&#45;&gt;Node2</title>
<g id="a_edge1_Node000001_Node000002"><a xlink:title=" ">
<path fill="none" stroke="#63b8ff" d="M429.83,-114.49C381.64,-107.65 291.52,-93.56 216.25,-74.5 158.84,-59.96 93.77,-37.21 55.47,-23.14"/>
<polygon fill="#63b8ff" stroke="#63b8ff" points="56.95,-19.96 46.36,-19.77 54.52,-26.53 56.95,-19.96"/>
</a>
</g>
</g>
<!-- Node3 -->
<g id="Node000003" class="node">
<title>Node3</title>
<g id="a_Node000003"><a xlink:title=" ">
<polygon fill="#e0e0e0" stroke="#999999" points="104.38,-19.25 62.12,-19.25 62.12,0 104.38,0 104.38,-19.25"/>
<text text-anchor="middle" x="83.25" y="-5.75" font-family="Helvetica,sans-Serif" font-size="10.00">cstdio</text>
</a>
</g>
</g>
<!-- Node1&#45;&gt;Node3 -->
<g id="edge2_Node000001_Node000003" class="edge">
<title>Node1&#45;&gt;Node3</title>
<g id="a_edge2_Node000001_Node000003"><a xlink:title=" ">
<path fill="none" stroke="#63b8ff" d="M429.8,-111.59C392.67,-103.28 331.96,-89.13 280.25,-74.5 221.53,-57.88 154.07,-35.22 115.27,-21.83"/>
<polygon fill="#63b8ff" stroke="#63b8ff" points="116.68,-18.62 106.09,-18.65 114.39,-25.23 116.68,-18.62"/>
</a>
</g>
</g>
<!-- Node4 -->
<g id="Node000004" class="node">
<title>Node4</title>
<g id="a_Node000004"><a xlink:title=" ">
<polygon fill="#e0e0e0" stroke="#999999" points="488.75,-74.5 439.75,-74.5 439.75,-55.25 488.75,-55.25 488.75,-74.5"/>
<text text-anchor="middle" x="464.25" y="-61" font-family="Helvetica,sans-Serif" font-size="10.00">fstream</text>
</a>
</g>
</g>
<!-- Node1&#45;&gt;Node4 -->
<g id="edge3_Node000001_Node000004" class="edge">
<title>Node1&#45;&gt;Node4</title>
<g id="a_edge3_Node000001_Node000004"><a xlink:title=" ">
<path fill="none" stroke="#63b8ff" d="M464.25,-110.33C464.25,-103.82 464.25,-94.67 464.25,-86.37"/>
<polygon fill="#63b8ff" stroke="#63b8ff" points="467.75,-86.37 464.25,-76.37 460.75,-86.37 467.75,-86.37"/>
</a>
</g>
</g>
<!-- Node5 -->
<g id="Node000005" class="node">
<title>Node5</title>
<g id="a_Node000005"><a xlink:title=" ">
<polygon fill="#e0e0e0" stroke="#999999" points="162.25,-19.25 122.25,-19.25 122.25,0 162.25,0 162.25,-19.25"/>
<text text-anchor="middle" x="142.25" y="-5.75" font-family="Helvetica,sans-Serif" font-size="10.00">string</text>
</a>
</g>
</g>
<!-- Node1&#45;&gt;Node5 -->
<g id="edge4_Node000001_Node000005" class="edge">
<title>Node1&#45;&gt;Node5</title>
<g id="a_edge4_Node000001_Node000005"><a xlink:title=" ">
<path fill="none" stroke="#63b8ff" d="M437.35,-110.06C378.01,-90.07 236.18,-42.28 173.25,-21.07"/>
<polygon fill="#63b8ff" stroke="#63b8ff" points="174.48,-17.79 163.88,-17.91 172.24,-24.42 174.48,-17.79"/>
</a>
</g>
</g>
<!-- Node6 -->
<g id="Node000006" class="node">
<title>Node6</title>
<g id="a_Node000006"><a xlink:title=" ">
<polygon fill="#e0e0e0" stroke="#999999" points="549.75,-74.5 506.75,-74.5 506.75,-55.25 549.75,-55.25 549.75,-74.5"/>
<text text-anchor="middle" x="528.25" y="-61" font-family="Helvetica,sans-Serif" font-size="10.00">vector</text>
</a>
</g>
</g>
<!-- Node1&#45;&gt;Node6 -->
<g id="edge5_Node000001_Node000006" class="edge">
<title>Node1&#45;&gt;Node6</title>
<g id="a_edge5_Node000001_Node000006"><a xlink:title=" ">
<path fill="none" stroke="#63b8ff" d="M475.11,-110.09C484.36,-102.4 497.87,-91.15 508.96,-81.93"/>
<polygon fill="#63b8ff" stroke="#63b8ff" points="510.94,-84.83 516.39,-75.74 506.46,-79.45 510.94,-84.83"/>
</a>
</g>
</g>
<!-- Node7 -->
<g id="Node000007" class="node">
<title>Node7</title>
<g id="a_Node000007"><a xlink:href="_globals_8h.html" target="_top" xlink:title=" ">
<polygon fill="white" stroke="#666666" points="421.5,-74.5 365,-74.5 365,-55.25 421.5,-55.25 421.5,-74.5"/>
<text text-anchor="middle" x="393.25" y="-61" font-family="Helvetica,sans-Serif" font-size="10.00">Globals.h</text>
</a>
</g>
</g>
<!-- Node1&#45;&gt;Node7 -->
<g id="edge6_Node000001_Node000007" class="edge">
<title>Node1&#45;&gt;Node7</title>
<g id="a_edge6_Node000001_Node000007"><a xlink:title=" ">
<path fill="none" stroke="#63b8ff" d="M452.21,-110.09C441.84,-102.32 426.65,-90.92 414.28,-81.65"/>
<polygon fill="#63b8ff" stroke="#63b8ff" points="416.43,-78.88 406.33,-75.68 412.23,-84.48 416.43,-78.88"/>
</a>
</g>
</g>
<!-- Node20 -->
<g id="Node000020" class="node">
<title>Node20</title>
<g id="a_Node000020"><a xlink:title=" ">
<polygon fill="#e0e0e0" stroke="#999999" points="641.12,-74.5 567.38,-74.5 567.38,-55.25 641.12,-55.25 641.12,-74.5"/>
<text text-anchor="middle" x="604.25" y="-61" font-family="Helvetica,sans-Serif" font-size="10.00">TXMLNode.h</text>
</a>
</g>
</g>
<!-- Node1&#45;&gt;Node20 -->
<g id="edge22_Node000001_Node000020" class="edge">
<title>Node1&#45;&gt;Node20</title>
<g id="a_edge22_Node000001_Node000020"><a xlink:title=" ">
<path fill="none" stroke="#63b8ff" d="M488,-110.09C510.42,-101.56 544.31,-88.67 569.72,-79.01"/>
<polygon fill="#63b8ff" stroke="#63b8ff" points="570.87,-82.32 578.97,-75.49 568.38,-75.77 570.87,-82.32"/>
</a>
</g>
</g>
<!-- Node21 -->
<g id="Node000021" class="node">
<title>Node21</title>
<g id="a_Node000021"><a xlink:title=" ">
<polygon fill="#e0e0e0" stroke="#999999" points="753.62,-74.5 658.88,-74.5 658.88,-55.25 753.62,-55.25 753.62,-74.5"/>
<text text-anchor="middle" x="706.25" y="-61" font-family="Helvetica,sans-Serif" font-size="10.00">TXMLDocument.h</text>
</a>
</g>
</g>
<!-- Node1&#45;&gt;Node21 -->
<g id="edge23_Node000001_Node000021" class="edge">
<title>Node1&#45;&gt;Node21</title>
<g id="a_edge23_Node000001_Node000021"><a xlink:title=" ">
<path fill="none" stroke="#63b8ff" d="M498.92,-111.5C539.49,-102.57 607.07,-87.7 654,-77.37"/>
<polygon fill="#63b8ff" stroke="#63b8ff" points="654.67,-80.81 663.69,-75.24 653.17,-73.97 654.67,-80.81"/>
</a>
</g>
</g>
<!-- Node22 -->
<g id="Node000022" class="node">
<title>Node22</title>
<g id="a_Node000022"><a xlink:title=" ">
<polygon fill="#e0e0e0" stroke="#999999" points="852.5,-74.5 772,-74.5 772,-55.25 852.5,-55.25 852.5,-74.5"/>
<text text-anchor="middle" x="812.25" y="-61" font-family="Helvetica,sans-Serif" font-size="10.00">TDOMParser.h</text>
</a>
</g>
</g>
<!-- Node1&#45;&gt;Node22 -->
<g id="edge24_Node000001_Node000022" class="edge">
<title>Node1&#45;&gt;Node22</title>
<g id="a_edge24_Node000001_Node000022"><a xlink:title=" ">
<path fill="none" stroke="#63b8ff" d="M498.7,-114.22C552.28,-106.53 659.11,-90.99 760.54,-74.74"/>
<polygon fill="#63b8ff" stroke="#63b8ff" points="760.79,-78.25 770.11,-73.2 759.68,-71.34 760.79,-78.25"/>
</a>
</g>
</g>
<!-- Node7&#45;&gt;Node2 -->
<g id="edge13_Node000007_Node000002" class="edge">
<title>Node7&#45;&gt;Node2</title>
<g id="a_edge13_Node000007_Node000002"><a xlink:title=" ">
<path fill="none" stroke="#63b8ff" d="M364.82,-61.51C307.92,-56.48 175.91,-43.37 56.04,-19.57"/>
<polygon fill="#63b8ff" stroke="#63b8ff" points="56.83,-16.16 46.33,-17.61 55.44,-23.02 56.83,-16.16"/>
</a>
</g>
</g>
<!-- Node7&#45;&gt;Node3 -->
<g id="edge11_Node000007_Node000003" class="edge">
<title>Node7&#45;&gt;Node3</title>
<g id="a_edge11_Node000007_Node000003"><a xlink:title=" ">
<path fill="none" stroke="#63b8ff" d="M364.82,-60.51C315.87,-54.46 212.36,-40.6 115.92,-19.62"/>
<polygon fill="#63b8ff" stroke="#63b8ff" points="116.8,-16.23 106.28,-17.49 115.29,-23.06 116.8,-16.23"/>
</a>
</g>
</g>
<!-- Node7&#45;&gt;Node5 -->
<g id="edge10_Node000007_Node000005" class="edge">
<title>Node7&#45;&gt;Node5</title>
<g id="a_edge10_Node000007_Node000005"><a xlink:title=" ">
<path fill="none" stroke="#63b8ff" d="M364.68,-58.99C324.22,-51.88 247.72,-37.78 173.41,-19.6"/>
<polygon fill="#63b8ff" stroke="#63b8ff" points="174.48,-16.26 163.94,-17.26 172.8,-23.06 174.48,-16.26"/>
</a>
</g>
</g>
<!-- Node8 -->
<g id="Node000008" class="node">
<title>Node8</title>
<g id="a_Node000008"><a xlink:title=" ">
<polygon fill="#e0e0e0" stroke="#999999" points="458,-19.25 404.5,-19.25 404.5,0 458,0 458,-19.25"/>
<text text-anchor="middle" x="431.25" y="-5.75" font-family="Helvetica,sans-Serif" font-size="10.00">iostream</text>
</a>
</g>
</g>
<!-- Node7&#45;&gt;Node8 -->
<g id="edge7_Node000007_Node000008" class="edge">
<title>Node7&#45;&gt;Node8</title>
<g id="a_edge7_Node000007_Node000008"><a xlink:title=" ">
<path fill="none" stroke="#63b8ff" d="M399.52,-55.08C404.61,-47.96 411.95,-37.68 418.28,-28.8"/>
<polygon fill="#63b8ff" stroke="#63b8ff" points="421,-31.01 423.96,-20.84 415.3,-26.95 421,-31.01"/>
</a>
</g>
</g>
<!-- Node9 -->
<g id="Node000009" class="node">
<title>Node9</title>
<g id="a_Node000009"><a xlink:title=" ">
<polygon fill="#e0e0e0" stroke="#999999" points="526.12,-19.25 476.38,-19.25 476.38,0 526.12,0 526.12,-19.25"/>
<text text-anchor="middle" x="501.25" y="-5.75" font-family="Helvetica,sans-Serif" font-size="10.00">iomanip</text>
</a>
</g>
</g>
<!-- Node7&#45;&gt;Node9 -->
<g id="edge8_Node000007_Node000009" class="edge">
<title>Node7&#45;&gt;Node9</title>
<g id="a_edge8_Node000007_Node000009"><a xlink:title=" ">
<path fill="none" stroke="#63b8ff" d="M411.57,-54.84C428.33,-46.58 453.38,-34.23 472.75,-24.68"/>
<polygon fill="#63b8ff" stroke="#63b8ff" points="474.06,-27.93 481.48,-20.37 470.97,-21.65 474.06,-27.93"/>
</a>
</g>
</g>
<!-- Node10 -->
<g id="Node000010" class="node">
<title>Node10</title>
<g id="a_Node000010"><a xlink:title=" ">
<polygon fill="#e0e0e0" stroke="#999999" points="602.25,-19.25 544.25,-19.25 544.25,0 602.25,0 602.25,-19.25"/>
<text text-anchor="middle" x="573.25" y="-5.75" font-family="Helvetica,sans-Serif" font-size="10.00">stdexcept</text>
</a>
</g>
</g>
<!-- Node7&#45;&gt;Node10 -->
<g id="edge9_Node000007_Node000010" class="edge">
<title>Node7&#45;&gt;Node10</title>
<g id="a_edge9_Node000007_Node000010"><a xlink:title=" ">
<path fill="none" stroke="#63b8ff" d="M421.77,-55.44C451.79,-46.56 499.27,-32.51 533.07,-22.51"/>
<polygon fill="#63b8ff" stroke="#63b8ff" points="533.92,-25.91 542.51,-19.72 531.93,-19.2 533.92,-25.91"/>
</a>
</g>
</g>
<!-- Node11 -->
<g id="Node000011" class="node">
<title>Node11</title>
<g id="a_Node000011"><a xlink:title=" ">
<polygon fill="#e0e0e0" stroke="#999999" points="665.88,-19.25 620.62,-19.25 620.62,0 665.88,0 665.88,-19.25"/>
<text text-anchor="middle" x="643.25" y="-5.75" font-family="Helvetica,sans-Serif" font-size="10.00">cstdint</text>
</a>
</g>
</g>
<!-- Node7&#45;&gt;Node11 -->
<g id="edge12_Node000007_Node000011" class="edge">
<title>Node7&#45;&gt;Node11</title>
<g id="a_edge12_Node000007_Node000011"><a xlink:title=" ">
<path fill="none" stroke="#63b8ff" d="M421.87,-57.3C425.03,-56.59 428.21,-55.9 431.25,-55.25 507.61,-38.95 529.93,-37.94 609.19,-19.6"/>
<polygon fill="#63b8ff" stroke="#63b8ff" points="609.81,-23.05 618.75,-17.37 608.22,-16.24 609.81,-23.05"/>
</a>
</g>
</g>
<!-- Node12 -->
<g id="Node000012" class="node">
<title>Node12</title>
<g id="a_Node000012"><a xlink:title=" ">
<polygon fill="#e0e0e0" stroke="#999999" points="743,-19.25 683.5,-19.25 683.5,0 743,0 743,-19.25"/>
<text text-anchor="middle" x="713.25" y="-5.75" font-family="Helvetica,sans-Serif" font-size="10.00">execinfo.h</text>
</a>
</g>
</g>
<!-- Node7&#45;&gt;Node12 -->
<g id="edge14_Node000007_Node000012" class="edge">
<title>Node7&#45;&gt;Node12</title>
<g id="a_edge14_Node000007_Node000012"><a xlink:title=" ">
<path fill="none" stroke="#63b8ff" d="M421.84,-57.14C425,-56.47 428.19,-55.82 431.25,-55.25 535.42,-35.77 565.52,-39.14 671.79,-19.78"/>
<polygon fill="#63b8ff" stroke="#63b8ff" points="672.33,-23.24 681.52,-17.98 671.05,-16.36 672.33,-23.24"/>
</a>
</g>
</g>
<!-- Node13 -->
<g id="Node000013" class="node">
<title>Node13</title>
<g id="a_Node000013"><a xlink:title=" ">
<polygon fill="#e0e0e0" stroke="#999999" points="811.5,-19.25 761,-19.25 761,0 811.5,0 811.5,-19.25"/>
<text text-anchor="middle" x="786.25" y="-5.75" font-family="Helvetica,sans-Serif" font-size="10.00">cxxabi.h</text>
</a>
</g>
</g>
<!-- Node7&#45;&gt;Node13 -->
<g id="edge15_Node000007_Node000013" class="edge">
<title>Node7&#45;&gt;Node13</title>
<g id="a_edge15_Node000007_Node000013"><a xlink:title=" ">
<path fill="none" stroke="#63b8ff" d="M421.82,-57.03C424.99,-56.38 428.18,-55.77 431.25,-55.25 569.21,-31.93 609,-44.29 749.52,-19.52"/>
<polygon fill="#63b8ff" stroke="#63b8ff" points="750,-22.99 759.22,-17.77 748.76,-16.1 750,-22.99"/>
</a>
</g>
</g>
<!-- Node14 -->
<g id="Node000014" class="node">
<title>Node14</title>
<g id="a_Node000014"><a xlink:title=" ">
<polygon fill="#e0e0e0" stroke="#999999" points="880.88,-19.25 829.62,-19.25 829.62,0 880.88,0 880.88,-19.25"/>
<text text-anchor="middle" x="855.25" y="-5.75" font-family="Helvetica,sans-Serif" font-size="10.00">sstream</text>
</a>
</g>
</g>
<!-- Node7&#45;&gt;Node14 -->
<g id="edge16_Node000007_Node000014" class="edge">
<title>Node7&#45;&gt;Node14</title>
<g id="a_edge16_Node000007_Node000014"><a xlink:title=" ">
<path fill="none" stroke="#63b8ff" d="M421.81,-56.97C424.98,-56.33 428.18,-55.74 431.25,-55.25 599.12,-28.55 647.04,-47.28 818.16,-19.33"/>
<polygon fill="#63b8ff" stroke="#63b8ff" points="818.56,-22.81 827.85,-17.71 817.41,-15.91 818.56,-22.81"/>
</a>
</g>
</g>
<!-- Node15 -->
<g id="Node000015" class="node">
<title>Node15</title>
<g id="a_Node000015"><a xlink:title=" ">
<polygon fill="#e0e0e0" stroke="#999999" points="935.75,-19.25 898.75,-19.25 898.75,0 935.75,0 935.75,-19.25"/>
<text text-anchor="middle" x="917.25" y="-5.75" font-family="Helvetica,sans-Serif" font-size="10.00">array</text>
</a>
</g>
</g>
<!-- Node7&#45;&gt;Node15 -->
<g id="edge17_Node000007_Node000015" class="edge">
<title>Node7&#45;&gt;Node15</title>
<g id="a_edge17_Node000007_Node000015"><a xlink:title=" ">
<path fill="none" stroke="#63b8ff" d="M421.8,-56.93C424.98,-56.3 428.17,-55.72 431.25,-55.25 629.9,-25.08 687.38,-57.43 887.33,-19.39"/>
<polygon fill="#63b8ff" stroke="#63b8ff" points="887.88,-22.85 897.03,-17.51 886.54,-15.98 887.88,-22.85"/>
</a>
</g>
</g>
<!-- Node16 -->
<g id="Node000016" class="node">
<title>Node16</title>
<g id="a_Node000016"><a xlink:title=" ">
<polygon fill="#e0e0e0" stroke="#999999" points="1004.5,-19.25 954,-19.25 954,0 1004.5,0 1004.5,-19.25"/>
<text text-anchor="middle" x="979.25" y="-5.75" font-family="Helvetica,sans-Serif" font-size="10.00">memory</text>
</a>
</g>
</g>
<!-- Node7&#45;&gt;Node16 -->
<g id="edge18_Node000007_Node000016" class="edge">
<title>Node7&#45;&gt;Node16</title>
<g id="a_edge18_Node000007_Node000016"><a xlink:title=" ">
<path fill="none" stroke="#63b8ff" d="M421.8,-56.9C424.97,-56.27 428.17,-55.7 431.25,-55.25 654.15,-22.35 717.12,-54.48 942.53,-19.4"/>
<polygon fill="#63b8ff" stroke="#63b8ff" points="942.91,-22.88 952.24,-17.86 941.81,-15.97 942.91,-22.88"/>
</a>
</g>
</g>
<!-- Node17 -->
<g id="Node000017" class="node">
<title>Node17</title>
<g id="a_Node000017"><a xlink:title=" ">
<polygon fill="#e0e0e0" stroke="#999999" points="230.12,-19.25 180.38,-19.25 180.38,0 230.12,0 230.12,-19.25"/>
<text text-anchor="middle" x="205.25" y="-5.75" font-family="Helvetica,sans-Serif" font-size="10.00">unistd.h</text>
</a>
</g>
</g>
<!-- Node7&#45;&gt;Node17 -->
<g id="edge19_Node000007_Node000017" class="edge">
<title>Node7&#45;&gt;Node17</title>
<g id="a_edge19_Node000007_Node000017"><a xlink:title=" ">
<path fill="none" stroke="#63b8ff" d="M364.7,-55.79C331.7,-46.44 277.34,-31.04 241.42,-20.87"/>
<polygon fill="#63b8ff" stroke="#63b8ff" points="242.48,-17.53 231.91,-18.18 240.58,-24.27 242.48,-17.53"/>
</a>
</g>
</g>
<!-- Node18 -->
<g id="Node000018" class="node">
<title>Node18</title>
<g id="a_Node000018"><a xlink:title=" ">
<polygon fill="#e0e0e0" stroke="#999999" points="308,-19.25 248.5,-19.25 248.5,0 308,0 308,-19.25"/>
<text text-anchor="middle" x="278.25" y="-5.75" font-family="Helvetica,sans-Serif" font-size="10.00">sys/wait.h</text>
</a>
</g>
</g>
<!-- Node7&#45;&gt;Node18 -->
<g id="edge20_Node000007_Node000018" class="edge">
<title>Node7&#45;&gt;Node18</title>
<g id="a_edge20_Node000007_Node000018"><a xlink:title=" ">
<path fill="none" stroke="#63b8ff" d="M373.74,-54.84C355.73,-46.5 328.73,-34 308.02,-24.41"/>
<polygon fill="#63b8ff" stroke="#63b8ff" points="309.77,-21.36 299.23,-20.34 306.83,-27.72 309.77,-21.36"/>
</a>
</g>
</g>
<!-- Node19 -->
<g id="Node000019" class="node">
<title>Node19</title>
<g id="a_Node000019"><a xlink:title=" ">
<polygon fill="#e0e0e0" stroke="#999999" points="386.38,-19.25 326.12,-19.25 326.12,0 386.38,0 386.38,-19.25"/>
<text text-anchor="middle" x="356.25" y="-5.75" font-family="Helvetica,sans-Serif" font-size="10.00">sys/prctl.h</text>
</a>
</g>
</g>
<!-- Node7&#45;&gt;Node19 -->
<g id="edge21_Node000007_Node000019" class="edge">
<title>Node7&#45;&gt;Node19</title>
<g id="a_edge21_Node000007_Node000019"><a xlink:title=" ">
<path fill="none" stroke="#63b8ff" d="M387.14,-55.08C382.19,-47.96 375.05,-37.68 368.88,-28.8"/>
<polygon fill="#63b8ff" stroke="#63b8ff" points="371.94,-27.07 363.36,-20.85 366.19,-31.06 371.94,-27.07"/>
</a>
</g>
</g>
</g>
</svg>

<g id="navigator" transform="translate(0 0)" fill="#404254">
  <rect fill="#f2f5e9" fill-opacity="0.5" stroke="#606060" stroke-width=".5" x="0" y="0" width="60" height="60"/>
  <use id="zoomplus" xlink:href="#zoomPlus" x="17" y="9" onmousedown="handleZoom(evt,'in')"/>
  <use id="zoomminus" xlink:href="#zoomMin" x="42" y="9" onmousedown="handleZoom(evt,'out')"/>
  <use id="reset" xlink:href="#resetDef" x="30" y="36" onmousedown="handleReset()"/>
   <use id="arrowup" xlink:href="#arrowUp" x="0" y="0" onmousedown="handlePan(0,-1)"/>
  <use id="arrowright" xlink:href="#arrowRight" x="0" y="0" onmousedown="handlePan(1,0)"/>
  <use id="arrowdown" xlink:href="#arrowDown" x="0" y="0" onmousedown="handlePan(0,1)"/>
  <use id="arrowleft" xlink:href="#arrowLeft" x="0" y="0" onmousedown="handlePan(-1,0)"/>
</g>
<svg viewBox="0 0 15 15" width="100%" height="30px" preserveAspectRatio="xMaxYMin meet">
 <g id="arrow_out" transform="scale(0.3 0.3)">
  <a xlink:href="_t_x_m_l_odb_8h__incl_org.svg" target="_base">
   <rect id="button" ry="5" rx="5" y="6" x="6" height="38" width="38"
        fill="#f2f5e9" fill-opacity="0.5" stroke="#606060" stroke-width="1.0"/>
   <path id="arrow"
     d="M 11.500037,31.436501 C 11.940474,20.09759 22.043105,11.32322 32.158766,21.979434 L 37.068811,17.246167 C 37.068811,17.246167 37.088388,32 37.088388,32 L 22.160133,31.978069 C 22.160133,31.978069 26.997745,27.140456 26.997745,27.140456 C 18.528582,18.264221 13.291696,25.230495 11.500037,31.436501 z"
     style="fill:#404040;"/>
  </a>
 </g>
</svg>

<style type='text/css'>
<![CDATA[
[data-mouse-over-selected='false'] { opacity: 0.7; }
[data-mouse-over-selected='true']  { opacity: 1.0; }
]]>
</style>
<script type="application/ecmascript"><![CDATA[
document.addEventListener('DOMContentLoaded', (event) => {
  highlightEdges();
  highlightAdjacentNodes();
});
]]></script>
</svg>
