<?xml version="1.0" encoding="UTF-8" standalone="no"?>
<!DOCTYPE svg PUBLIC "-//W3C//DTD SVG 1.1//EN"
 "http://www.w3.org/Graphics/SVG/1.1/DTD/svg11.dtd">
<!-- Generated by graphviz version 9.0.0 (20230911.1827)
 -->
<!-- Title: TXMLOdb.h Pages: 1 -->
<svg width="1204pt" height="138pt"
 viewBox="0.00 0.00 1203.50 137.75" xmlns="http://www.w3.org/2000/svg" xmlns:xlink="http://www.w3.org/1999/xlink">
<g id="graph0" class="graph" transform="scale(1 1) rotate(0) translate(4 133.75)">
<title>TXMLOdb.h</title>
<!-- Node1 -->
<g id="Node000001" class="node">
<title>Node1</title>
<g id="a_Node000001"><a xlink:title=" ">
<polygon fill="#999999" stroke="#666666" points="574.5,-129.75 506,-129.75 506,-110.5 574.5,-110.5 574.5,-129.75"/>
<text text-anchor="middle" x="540.25" y="-116.25" font-family="Helvetica,sans-Serif" font-size="10.00">TXMLOdb.h</text>
</a>
</g>
</g>
<!-- Node2 -->
<g id="Node000002" class="node">
<title>Node2</title>
<g id="a_Node000002"><a xlink:title=" ">
<polygon fill="#e0e0e0" stroke="#999999" points="44.5,-19.25 0,-19.25 0,0 44.5,0 44.5,-19.25"/>
<text text-anchor="middle" x="22.25" y="-5.75" font-family="Helvetica,sans-Serif" font-size="10.00">cstdlib</text>
</a>
</g>
</g>
<!-- Node1&#45;&gt;Node2 -->
<g id="edge1_Node000001_Node000002" class="edge">
<title>Node1&#45;&gt;Node2</title>
<g id="a_edge1_Node000001_Node000002"><a xlink:title=" ">
<path fill="none" stroke="#63b8ff" d="M505.55,-116.2C446.72,-110.81 323.89,-97.69 222.25,-74.5 162.57,-60.89 95.13,-37.65 55.79,-23.27"/>
<polygon fill="#63b8ff" stroke="#63b8ff" points="57.01,-19.99 46.42,-19.81 54.59,-26.56 57.01,-19.99"/>
</a>
</g>
</g>
<!-- Node3 -->
<g id="Node000003" class="node">
<title>Node3</title>
<g id="a_Node000003"><a xlink:title=" ">
<polygon fill="#e0e0e0" stroke="#999999" points="104.38,-19.25 62.12,-19.25 62.12,0 104.38,0 104.38,-19.25"/>
<text text-anchor="middle" x="83.25" y="-5.75" font-family="Helvetica,sans-Serif" font-size="10.00">cstdio</text>
</a>
</g>
</g>
<!-- Node1&#45;&gt;Node3 -->
<g id="edge2_Node000001_Node000003" class="edge">
<title>Node1&#45;&gt;Node3</title>
<g id="a_edge2_Node000001_Node000003"><a xlink:title=" ">
<path fill="none" stroke="#63b8ff" d="M505.54,-113.92C458.33,-106.56 371.36,-92.05 298.25,-74.5 232.66,-58.76 157.4,-35.08 115.58,-21.41"/>
<polygon fill="#63b8ff" stroke="#63b8ff" points="116.74,-18.1 106.15,-18.3 114.56,-24.75 116.74,-18.1"/>
</a>
</g>
</g>
<!-- Node4 -->
<g id="Node000004" class="node">
<title>Node4</title>
<g id="a_Node000004"><a xlink:title=" ">
<polygon fill="#e0e0e0" stroke="#999999" points="564.75,-74.5 515.75,-74.5 515.75,-55.25 564.75,-55.25 564.75,-74.5"/>
<text text-anchor="middle" x="540.25" y="-61" font-family="Helvetica,sans-Serif" font-size="10.00">fstream</text>
</a>
</g>
</g>
<!-- Node1&#45;&gt;Node4 -->
<g id="edge3_Node000001_Node000004" class="edge">
<title>Node1&#45;&gt;Node4</title>
<g id="a_edge3_Node000001_Node000004"><a xlink:title=" ">
<path fill="none" stroke="#63b8ff" d="M540.25,-110.33C540.25,-103.82 540.25,-94.67 540.25,-86.37"/>
<polygon fill="#63b8ff" stroke="#63b8ff" points="543.75,-86.37 540.25,-76.37 536.75,-86.37 543.75,-86.37"/>
</a>
</g>
</g>
<!-- Node5 -->
<g id="Node000005" class="node">
<title>Node5</title>
<g id="a_Node000005"><a xlink:title=" ">
<polygon fill="#e0e0e0" stroke="#999999" points="162.25,-19.25 122.25,-19.25 122.25,0 162.25,0 162.25,-19.25"/>
<text text-anchor="middle" x="142.25" y="-5.75" font-family="Helvetica,sans-Serif" font-size="10.00">string</text>
</a>
</g>
</g>
<!-- Node1&#45;&gt;Node5 -->
<g id="edge4_Node000001_Node000005" class="edge">
<title>Node1&#45;&gt;Node5</title>
<g id="a_edge4_Node000001_Node000005"><a xlink:title=" ">
<path fill="none" stroke="#63b8ff" d="M505.58,-110.05C441.89,-93.31 301.77,-56.17 173.32,-19.79"/>
<polygon fill="#63b8ff" stroke="#63b8ff" points="174.54,-16.5 163.97,-17.13 172.63,-23.23 174.54,-16.5"/>
</a>
</g>
</g>
<!-- Node6 -->
<g id="Node000006" class="node">
<title>Node6</title>
<g id="a_Node000006"><a xlink:title=" ">
<polygon fill="#e0e0e0" stroke="#999999" points="625.75,-74.5 582.75,-74.5 582.75,-55.25 625.75,-55.25 625.75,-74.5"/>
<text text-anchor="middle" x="604.25" y="-61" font-family="Helvetica,sans-Serif" font-size="10.00">vector</text>
</a>
</g>
</g>
<!-- Node1&#45;&gt;Node6 -->
<g id="edge5_Node000001_Node000006" class="edge">
<title>Node1&#45;&gt;Node6</title>
<g id="a_edge5_Node000001_Node000006"><a xlink:title=" ">
<path fill="none" stroke="#63b8ff" d="M551.11,-110.09C560.36,-102.4 573.87,-91.15 584.96,-81.93"/>
<polygon fill="#63b8ff" stroke="#63b8ff" points="586.94,-84.83 592.39,-75.74 582.46,-79.45 586.94,-84.83"/>
</a>
</g>
</g>
<!-- Node7 -->
<g id="Node000007" class="node">
<title>Node7</title>
<g id="a_Node000007"><a xlink:href="_globals_8h.html" target="_top" xlink:title=" ">
<polygon fill="white" stroke="#666666" points="497.5,-74.5 441,-74.5 441,-55.25 497.5,-55.25 497.5,-74.5"/>
<text text-anchor="middle" x="469.25" y="-61" font-family="Helvetica,sans-Serif" font-size="10.00">Globals.h</text>
</a>
</g>
</g>
<!-- Node1&#45;&gt;Node7 -->
<g id="edge6_Node000001_Node000007" class="edge">
<title>Node1&#45;&gt;Node7</title>
<g id="a_edge6_Node000001_Node000007"><a xlink:title=" ">
<path fill="none" stroke="#63b8ff" d="M528.21,-110.09C517.84,-102.32 502.65,-90.92 490.28,-81.65"/>
<polygon fill="#63b8ff" stroke="#63b8ff" points="492.43,-78.88 482.33,-75.68 488.23,-84.48 492.43,-78.88"/>
</a>
</g>
</g>
<!-- Node23 -->
<g id="Node000023" class="node">
<title>Node23</title>
<g id="a_Node000023"><a xlink:title=" ">
<polygon fill="#e0e0e0" stroke="#999999" points="717.12,-74.5 643.38,-74.5 643.38,-55.25 717.12,-55.25 717.12,-74.5"/>
<text text-anchor="middle" x="680.25" y="-61" font-family="Helvetica,sans-Serif" font-size="10.00">TXMLNode.h</text>
</a>
</g>
</g>
<!-- Node1&#45;&gt;Node23 -->
<g id="edge25_Node000001_Node000023" class="edge">
<title>Node1&#45;&gt;Node23</title>
<g id="a_edge25_Node000001_Node000023"><a xlink:title=" ">
<path fill="none" stroke="#63b8ff" d="M564,-110.09C586.42,-101.56 620.31,-88.67 645.72,-79.01"/>
<polygon fill="#63b8ff" stroke="#63b8ff" points="646.87,-82.32 654.97,-75.49 644.38,-75.77 646.87,-82.32"/>
</a>
</g>
</g>
<!-- Node24 -->
<g id="Node000024" class="node">
<title>Node24</title>
<g id="a_Node000024"><a xlink:title=" ">
<polygon fill="#e0e0e0" stroke="#999999" points="829.62,-74.5 734.88,-74.5 734.88,-55.25 829.62,-55.25 829.62,-74.5"/>
<text text-anchor="middle" x="782.25" y="-61" font-family="Helvetica,sans-Serif" font-size="10.00">TXMLDocument.h</text>
</a>
</g>
</g>
<!-- Node1&#45;&gt;Node24 -->
<g id="edge26_Node000001_Node000024" class="edge">
<title>Node1&#45;&gt;Node24</title>
<g id="a_edge26_Node000001_Node000024"><a xlink:title=" ">
<path fill="none" stroke="#63b8ff" d="M574.92,-111.5C615.49,-102.57 683.07,-87.7 730,-77.37"/>
<polygon fill="#63b8ff" stroke="#63b8ff" points="730.67,-80.81 739.69,-75.24 729.17,-73.97 730.67,-80.81"/>
</a>
</g>
</g>
<!-- Node25 -->
<g id="Node000025" class="node">
<title>Node25</title>
<g id="a_Node000025"><a xlink:title=" ">
<polygon fill="#e0e0e0" stroke="#999999" points="928.5,-74.5 848,-74.5 848,-55.25 928.5,-55.25 928.5,-74.5"/>
<text text-anchor="middle" x="888.25" y="-61" font-family="Helvetica,sans-Serif" font-size="10.00">TDOMParser.h</text>
</a>
</g>
</g>
<!-- Node1&#45;&gt;Node25 -->
<g id="edge27_Node000001_Node000025" class="edge">
<title>Node1&#45;&gt;Node25</title>
<g id="a_edge27_Node000001_Node000025"><a xlink:title=" ">
<path fill="none" stroke="#63b8ff" d="M574.7,-114.22C628.28,-106.53 735.11,-90.99 836.54,-74.74"/>
<polygon fill="#63b8ff" stroke="#63b8ff" points="836.79,-78.25 846.11,-73.2 835.68,-71.34 836.79,-78.25"/>
</a>
</g>
</g>
<!-- Node7&#45;&gt;Node2 -->
<g id="edge13_Node000007_Node000002" class="edge">
<title>Node7&#45;&gt;Node2</title>
<g id="a_edge13_Node000007_Node000002"><a xlink:title=" ">
<path fill="none" stroke="#63b8ff" d="M440.51,-62.42C374.28,-58.73 205.68,-47.37 56.03,-19.5"/>
<polygon fill="#63b8ff" stroke="#63b8ff" points="56.8,-16.08 46.32,-17.65 55.49,-22.96 56.8,-16.08"/>
</a>
</g>
</g>
<!-- Node7&#45;&gt;Node3 -->
<g id="edge12_Node000007_Node000003" class="edge">
<title>Node7&#45;&gt;Node3</title>
<g id="a_edge12_Node000007_Node000003"><a xlink:title=" ">
<path fill="none" stroke="#63b8ff" d="M440.86,-61.82C381.93,-57.24 241.99,-44.71 115.78,-19.49"/>
<polygon fill="#63b8ff" stroke="#63b8ff" points="116.76,-16.11 106.26,-17.55 115.37,-22.97 116.76,-16.11"/>
</a>
</g>
</g>
<!-- Node7&#45;&gt;Node5 -->
<g id="edge11_Node000007_Node000005" class="edge">
<title>Node7&#45;&gt;Node5</title>
<g id="a_edge11_Node000007_Node000005"><a xlink:title=" ">
<path fill="none" stroke="#63b8ff" d="M440.65,-60.95C389.1,-55.38 277.05,-41.96 173.41,-19.45"/>
<polygon fill="#63b8ff" stroke="#63b8ff" points="174.43,-16.09 163.91,-17.35 172.92,-22.93 174.43,-16.09"/>
</a>
</g>
</g>
<!-- Node8 -->
<g id="Node000008" class="node">
<title>Node8</title>
<g id="a_Node000008"><a xlink:title=" ">
<polygon fill="#e0e0e0" stroke="#999999" points="640.88,-19.25 595.62,-19.25 595.62,0 640.88,0 640.88,-19.25"/>
<text text-anchor="middle" x="618.25" y="-5.75" font-family="Helvetica,sans-Serif" font-size="10.00">cstdint</text>
</a>
</g>
</g>
<!-- Node7&#45;&gt;Node8 -->
<g id="edge7_Node000007_Node000008" class="edge">
<title>Node7&#45;&gt;Node8</title>
<g id="a_edge7_Node000007_Node000008"><a xlink:title=" ">
<path fill="none" stroke="#63b8ff" d="M494.53,-54.84C519.34,-45.97 557.33,-32.4 584.67,-22.63"/>
<polygon fill="#63b8ff" stroke="#63b8ff" points="585.64,-26 593.88,-19.34 583.28,-19.41 585.64,-26"/>
</a>
</g>
</g>
<!-- Node9 -->
<g id="Node000009" class="node">
<title>Node9</title>
<g id="a_Node000009"><a xlink:title=" ">
<polygon fill="#e0e0e0" stroke="#999999" points="712,-19.25 658.5,-19.25 658.5,0 712,0 712,-19.25"/>
<text text-anchor="middle" x="685.25" y="-5.75" font-family="Helvetica,sans-Serif" font-size="10.00">iostream</text>
</a>
</g>
</g>
<!-- Node7&#45;&gt;Node9 -->
<g id="edge8_Node000007_Node000009" class="edge">
<title>Node7&#45;&gt;Node9</title>
<g id="a_edge8_Node000007_Node000009"><a xlink:title=" ">
<path fill="none" stroke="#63b8ff" d="M497.93,-56.8C536.3,-47.34 604.44,-30.55 647.1,-20.03"/>
<polygon fill="#63b8ff" stroke="#63b8ff" points="647.81,-23.46 656.68,-17.67 646.14,-16.66 647.81,-23.46"/>
</a>
</g>
</g>
<!-- Node10 -->
<g id="Node000010" class="node">
<title>Node10</title>
<g id="a_Node000010"><a xlink:title=" ">
<polygon fill="#e0e0e0" stroke="#999999" points="780.12,-19.25 730.38,-19.25 730.38,0 780.12,0 780.12,-19.25"/>
<text text-anchor="middle" x="755.25" y="-5.75" font-family="Helvetica,sans-Serif" font-size="10.00">iomanip</text>
</a>
</g>
</g>
<!-- Node7&#45;&gt;Node10 -->
<g id="edge9_Node000007_Node000010" class="edge">
<title>Node7&#45;&gt;Node10</title>
<g id="a_edge9_Node000007_Node000010"><a xlink:title=" ">
<path fill="none" stroke="#63b8ff" d="M497.85,-57.2C501.01,-56.52 504.2,-55.85 507.25,-55.25 598.36,-37.26 624.92,-38.96 718.88,-19.6"/>
<polygon fill="#63b8ff" stroke="#63b8ff" points="719.5,-23.04 728.57,-17.57 718.07,-16.19 719.5,-23.04"/>
</a>
</g>
</g>
<!-- Node11 -->
<g id="Node000011" class="node">
<title>Node11</title>
<g id="a_Node000011"><a xlink:title=" ">
<polygon fill="#e0e0e0" stroke="#999999" points="856.25,-19.25 798.25,-19.25 798.25,0 856.25,0 856.25,-19.25"/>
<text text-anchor="middle" x="827.25" y="-5.75" font-family="Helvetica,sans-Serif" font-size="10.00">stdexcept</text>
</a>
</g>
</g>
<!-- Node7&#45;&gt;Node11 -->
<g id="edge10_Node000007_Node000011" class="edge">
<title>Node7&#45;&gt;Node11</title>
<g id="a_edge10_Node000007_Node000011"><a xlink:title=" ">
<path fill="none" stroke="#63b8ff" d="M497.82,-57.08C501,-56.42 504.19,-55.79 507.25,-55.25 628.15,-33.86 662.88,-40.83 786.78,-19.53"/>
<polygon fill="#63b8ff" stroke="#63b8ff" points="787.11,-23.02 796.36,-17.85 785.9,-16.13 787.11,-23.02"/>
</a>
</g>
</g>
<!-- Node12 -->
<g id="Node000012" class="node">
<title>Node12</title>
<g id="a_Node000012"><a xlink:title=" ">
<polygon fill="#e0e0e0" stroke="#999999" points="934,-19.25 874.5,-19.25 874.5,0 934,0 934,-19.25"/>
<text text-anchor="middle" x="904.25" y="-5.75" font-family="Helvetica,sans-Serif" font-size="10.00">execinfo.h</text>
</a>
</g>
</g>
<!-- Node7&#45;&gt;Node12 -->
<g id="edge14_Node000007_Node000012" class="edge">
<title>Node7&#45;&gt;Node12</title>
<g id="a_edge14_Node000007_Node000012"><a xlink:title=" ">
<path fill="none" stroke="#63b8ff" d="M497.81,-57C500.98,-56.35 504.18,-55.75 507.25,-55.25 661.53,-30.08 705.39,-43.9 863.03,-19.41"/>
<polygon fill="#63b8ff" stroke="#63b8ff" points="863.26,-22.92 872.59,-17.9 862.16,-16.01 863.26,-22.92"/>
</a>
</g>
</g>
<!-- Node13 -->
<g id="Node000013" class="node">
<title>Node13</title>
<g id="a_Node000013"><a xlink:title=" ">
<polygon fill="#e0e0e0" stroke="#999999" points="1002.5,-19.25 952,-19.25 952,0 1002.5,0 1002.5,-19.25"/>
<text text-anchor="middle" x="977.25" y="-5.75" font-family="Helvetica,sans-Serif" font-size="10.00">cxxabi.h</text>
</a>
</g>
</g>
<!-- Node7&#45;&gt;Node13 -->
<g id="edge15_Node000007_Node000013" class="edge">
<title>Node7&#45;&gt;Node13</title>
<g id="a_edge15_Node000007_Node000013"><a xlink:title=" ">
<path fill="none" stroke="#63b8ff" d="M497.8,-56.94C500.98,-56.31 504.17,-55.72 507.25,-55.25 695.76,-26.22 749.43,-50.31 940.45,-19.44"/>
<polygon fill="#63b8ff" stroke="#63b8ff" points="940.94,-22.91 950.23,-17.83 939.8,-16 940.94,-22.91"/>
</a>
</g>
</g>
<!-- Node14 -->
<g id="Node000014" class="node">
<title>Node14</title>
<g id="a_Node000014"><a xlink:title=" ">
<polygon fill="#e0e0e0" stroke="#999999" points="1071.88,-19.25 1020.62,-19.25 1020.62,0 1071.88,0 1071.88,-19.25"/>
<text text-anchor="middle" x="1046.25" y="-5.75" font-family="Helvetica,sans-Serif" font-size="10.00">sstream</text>
</a>
</g>
</g>
<!-- Node7&#45;&gt;Node14 -->
<g id="edge16_Node000007_Node000014" class="edge">
<title>Node7&#45;&gt;Node14</title>
<g id="a_edge16_Node000007_Node000014"><a xlink:title=" ">
<path fill="none" stroke="#63b8ff" d="M497.8,-56.91C500.97,-56.28 504.17,-55.71 507.25,-55.25 725.7,-22.85 787.38,-53.2 1008.99,-19.3"/>
<polygon fill="#63b8ff" stroke="#63b8ff" points="1009.52,-22.76 1018.86,-17.76 1008.44,-15.84 1009.52,-22.76"/>
</a>
</g>
</g>
<!-- Node15 -->
<g id="Node000015" class="node">
<title>Node15</title>
<g id="a_Node000015"><a xlink:title=" ">
<polygon fill="#e0e0e0" stroke="#999999" points="1126.75,-19.25 1089.75,-19.25 1089.75,0 1126.75,0 1126.75,-19.25"/>
<text text-anchor="middle" x="1108.25" y="-5.75" font-family="Helvetica,sans-Serif" font-size="10.00">array</text>
</a>
</g>
</g>
<!-- Node7&#45;&gt;Node15 -->
<g id="edge17_Node000007_Node000015" class="edge">
<title>Node7&#45;&gt;Node15</title>
<g id="a_edge17_Node000007_Node000015"><a xlink:title=" ">
<path fill="none" stroke="#63b8ff" d="M497.79,-56.88C500.97,-56.26 504.17,-55.69 507.25,-55.25 756.55,-19.38 827.96,-65.12 1078.24,-19.36"/>
<polygon fill="#63b8ff" stroke="#63b8ff" points="1078.84,-22.81 1088.03,-17.54 1077.56,-15.93 1078.84,-22.81"/>
</a>
</g>
</g>
<!-- Node16 -->
<g id="Node000016" class="node">
<title>Node16</title>
<g id="a_Node000016"><a xlink:title=" ">
<polygon fill="#e0e0e0" stroke="#999999" points="1195.5,-19.25 1145,-19.25 1145,0 1195.5,0 1195.5,-19.25"/>
<text text-anchor="middle" x="1170.25" y="-5.75" font-family="Helvetica,sans-Serif" font-size="10.00">memory</text>
</a>
</g>
</g>
<!-- Node7&#45;&gt;Node16 -->
<g id="edge18_Node000007_Node000016" class="edge">
<title>Node7&#45;&gt;Node16</title>
<g id="a_edge18_Node000007_Node000016"><a xlink:title=" ">
<path fill="none" stroke="#63b8ff" d="M497.79,-56.86C500.97,-56.24 504.17,-55.68 507.25,-55.25 780.86,-16.64 857.49,-60.68 1133.57,-19.36"/>
<polygon fill="#63b8ff" stroke="#63b8ff" points="1133.88,-22.85 1143.24,-17.88 1132.83,-15.93 1133.88,-22.85"/>
</a>
</g>
</g>
<!-- Node17 -->
<g id="Node000017" class="node">
<title>Node17</title>
<g id="a_Node000017"><a xlink:title=" ">
<polygon fill="#e0e0e0" stroke="#999999" points="230.12,-19.25 180.38,-19.25 180.38,0 230.12,0 230.12,-19.25"/>
<text text-anchor="middle" x="205.25" y="-5.75" font-family="Helvetica,sans-Serif" font-size="10.00">unistd.h</text>
</a>
</g>
</g>
<!-- Node7&#45;&gt;Node17 -->
<g id="edge19_Node000007_Node000017" class="edge">
<title>Node7&#45;&gt;Node17</title>
<g id="a_edge19_Node000007_Node000017"><a xlink:title=" ">
<path fill="none" stroke="#63b8ff" d="M440.82,-58.89C399.22,-51.49 319.11,-36.81 241.41,-19.63"/>
<polygon fill="#63b8ff" stroke="#63b8ff" points="242.46,-16.28 231.94,-17.52 240.94,-23.11 242.46,-16.28"/>
</a>
</g>
</g>
<!-- Node18 -->
<g id="Node000018" class="node">
<title>Node18</title>
<g id="a_Node000018"><a xlink:title=" ">
<polygon fill="#e0e0e0" stroke="#999999" points="294.25,-19.25 248.25,-19.25 248.25,0 294.25,0 294.25,-19.25"/>
<text text-anchor="middle" x="271.25" y="-5.75" font-family="Helvetica,sans-Serif" font-size="10.00">TEnv.h</text>
</a>
</g>
</g>
<!-- Node7&#45;&gt;Node18 -->
<g id="edge20_Node000007_Node000018" class="edge">
<title>Node7&#45;&gt;Node18</title>
<g id="a_edge20_Node000007_Node000018"><a xlink:title=" ">
<path fill="none" stroke="#63b8ff" d="M440.76,-56.22C409.82,-47.91 358.66,-34.16 305.65,-19.89"/>
<polygon fill="#63b8ff" stroke="#63b8ff" points="306.7,-16.55 296.13,-17.33 304.88,-23.31 306.7,-16.55"/>
</a>
</g>
</g>
<!-- Node19 -->
<g id="Node000019" class="node">
<title>Node19</title>
<g id="a_Node000019"><a xlink:title=" ">
<polygon fill="#e0e0e0" stroke="#999999" points="356.5,-19.25 312,-19.25 312,0 356.5,0 356.5,-19.25"/>
<text text-anchor="middle" x="334.25" y="-5.75" font-family="Helvetica,sans-Serif" font-size="10.00">stdio.h</text>
</a>
</g>
</g>
<!-- Node7&#45;&gt;Node19 -->
<g id="edge21_Node000007_Node000019" class="edge">
<title>Node7&#45;&gt;Node19</title>
<g id="a_edge21_Node000007_Node000019"><a xlink:title=" ">
<path fill="none" stroke="#63b8ff" d="M446.35,-54.84C424.69,-46.3 391.94,-33.38 367.43,-23.71"/>
<polygon fill="#63b8ff" stroke="#63b8ff" points="368.81,-20.49 358.22,-20.08 366.24,-27.01 368.81,-20.49"/>
</a>
</g>
</g>
<!-- Node20 -->
<g id="Node000020" class="node">
<title>Node20</title>
<g id="a_Node000020"><a xlink:title=" ">
<polygon fill="#e0e0e0" stroke="#999999" points="421.62,-19.25 374.88,-19.25 374.88,0 421.62,0 421.62,-19.25"/>
<text text-anchor="middle" x="398.25" y="-5.75" font-family="Helvetica,sans-Serif" font-size="10.00">stdlib.h</text>
</a>
</g>
</g>
<!-- Node7&#45;&gt;Node20 -->
<g id="edge22_Node000007_Node000020" class="edge">
<title>Node7&#45;&gt;Node20</title>
<g id="a_edge22_Node000007_Node000020"><a xlink:title=" ">
<path fill="none" stroke="#63b8ff" d="M457.21,-54.84C446.84,-47.07 431.65,-35.67 419.28,-26.4"/>
<polygon fill="#63b8ff" stroke="#63b8ff" points="421.43,-23.63 411.33,-20.43 417.23,-29.23 421.43,-23.63"/>
</a>
</g>
</g>
<!-- Node21 -->
<g id="Node000021" class="node">
<title>Node21</title>
<g id="a_Node000021"><a xlink:title=" ">
<polygon fill="#e0e0e0" stroke="#999999" points="499,-19.25 439.5,-19.25 439.5,0 499,0 499,-19.25"/>
<text text-anchor="middle" x="469.25" y="-5.75" font-family="Helvetica,sans-Serif" font-size="10.00">sys/wait.h</text>
</a>
</g>
</g>
<!-- Node7&#45;&gt;Node21 -->
<g id="edge23_Node000007_Node000021" class="edge">
<title>Node7&#45;&gt;Node21</title>
<g id="a_edge23_Node000007_Node000021"><a xlink:title=" ">
<path fill="none" stroke="#63b8ff" d="M469.25,-55.08C469.25,-48.57 469.25,-39.42 469.25,-31.12"/>
<polygon fill="#63b8ff" stroke="#63b8ff" points="472.75,-31.12 469.25,-21.12 465.75,-31.12 472.75,-31.12"/>
</a>
</g>
</g>
<!-- Node22 -->
<g id="Node000022" class="node">
<title>Node22</title>
<g id="a_Node000022"><a xlink:title=" ">
<polygon fill="#e0e0e0" stroke="#999999" points="577.38,-19.25 517.12,-19.25 517.12,0 577.38,0 577.38,-19.25"/>
<text text-anchor="middle" x="547.25" y="-5.75" font-family="Helvetica,sans-Serif" font-size="10.00">sys/prctl.h</text>
</a>
</g>
</g>
<!-- Node7&#45;&gt;Node22 -->
<g id="edge24_Node000007_Node000022" class="edge">
<title>Node7&#45;&gt;Node22</title>
<g id="a_edge24_Node000007_Node000022"><a xlink:title=" ">
<path fill="none" stroke="#63b8ff" d="M482.48,-54.84C494.02,-46.96 511.02,-35.36 524.7,-26.02"/>
<polygon fill="#63b8ff" stroke="#63b8ff" points="526.42,-29.08 532.7,-20.56 522.47,-23.3 526.42,-29.08"/>
</a>
</g>
</g>
</g>
</svg>
