<?xml version="1.0" encoding="UTF-8" standalone="no"?>
<!DOCTYPE svg PUBLIC "-//W3C//DTD SVG 1.1//EN"
 "http://www.w3.org/Graphics/SVG/1.1/DTD/svg11.dtd">
<!-- Generated by graphviz version 12.2.0 (20241103.1931)
 -->
<!-- Title: ThreadsafeQueue.h Pages: 1 -->
<svg width="529pt" height="83pt"
 viewBox="0.00 0.00 529.38 82.50" xmlns="http://www.w3.org/2000/svg" xmlns:xlink="http://www.w3.org/1999/xlink">
<g id="graph0" class="graph" transform="scale(1 1) rotate(0) translate(4 78.5)">
<title>ThreadsafeQueue.h</title>
<!-- Node1 -->
<g id="Node000001" class="node">
<title>Node1</title>
<g id="a_Node000001"><a xlink:title=" ">
<polygon fill="#999999" stroke="#666666" points="304.5,-74.5 203.75,-74.5 203.75,-55.25 304.5,-55.25 304.5,-74.5"/>
<text text-anchor="middle" x="254.12" y="-61" font-family="Helvetica,sans-Serif" font-size="10.00">ThreadsafeQueue.h</text>
</a>
</g>
</g>
<!-- Node2 -->
<g id="Node000002" class="node">
<title>Node2</title>
<g id="a_Node000002"><a xlink:title=" ">
<polygon fill="#e0e0e0" stroke="#999999" points="48.25,-19.25 0,-19.25 0,0 48.25,0 48.25,-19.25"/>
<text text-anchor="middle" x="24.12" y="-5.75" font-family="Helvetica,sans-Serif" font-size="10.00">cassert</text>
</a>
</g>
</g>
<!-- Node1&#45;&gt;Node2 -->
<g id="edge1_Node000001_Node000002" class="edge">
<title>Node1&#45;&gt;Node2</title>
<g id="a_edge1_Node000001_Node000002"><a xlink:title=" ">
<path fill="none" stroke="#63b8ff" d="M212.14,-54.78C174.54,-46.55 117.61,-33.85 59.47,-19.77"/>
<polygon fill="#63b8ff" stroke="#63b8ff" points="60.63,-16.44 50.08,-17.48 58.97,-23.25 60.63,-16.44"/>
</a>
</g>
</g>
<!-- Node3 -->
<g id="Node000003" class="node">
<title>Node3</title>
<g id="a_Node000003"><a xlink:title=" ">
<polygon fill="#e0e0e0" stroke="#999999" points="106.12,-19.25 66.12,-19.25 66.12,0 106.12,0 106.12,-19.25"/>
<text text-anchor="middle" x="86.12" y="-5.75" font-family="Helvetica,sans-Serif" font-size="10.00">string</text>
</a>
</g>
</g>
<!-- Node1&#45;&gt;Node3 -->
<g id="edge2_Node000001_Node000003" class="edge">
<title>Node1&#45;&gt;Node3</title>
<g id="a_edge2_Node000001_Node000003"><a xlink:title=" ">
<path fill="none" stroke="#63b8ff" d="M225.63,-54.84C195.44,-45.28 147.96,-30.22 116.93,-20.39"/>
<polygon fill="#63b8ff" stroke="#63b8ff" points="118.34,-17.16 107.75,-17.48 116.22,-23.84 118.34,-17.16"/>
</a>
</g>
</g>
<!-- Node4 -->
<g id="Node000004" class="node">
<title>Node4</title>
<g id="a_Node000004"><a xlink:title=" ">
<polygon fill="#e0e0e0" stroke="#999999" points="169.75,-19.25 124.5,-19.25 124.5,0 169.75,0 169.75,-19.25"/>
<text text-anchor="middle" x="147.12" y="-5.75" font-family="Helvetica,sans-Serif" font-size="10.00">atomic</text>
</a>
</g>
</g>
<!-- Node1&#45;&gt;Node4 -->
<g id="edge3_Node000001_Node000004" class="edge">
<title>Node1&#45;&gt;Node4</title>
<g id="a_edge3_Node000001_Node000004"><a xlink:title=" ">
<path fill="none" stroke="#63b8ff" d="M235.97,-54.84C219.45,-46.62 194.78,-34.34 175.63,-24.81"/>
<polygon fill="#63b8ff" stroke="#63b8ff" points="177.23,-21.7 166.72,-20.38 174.11,-27.97 177.23,-21.7"/>
</a>
</g>
</g>
<!-- Node5 -->
<g id="Node000005" class="node">
<title>Node5</title>
<g id="a_Node000005"><a xlink:title=" ">
<polygon fill="#e0e0e0" stroke="#999999" points="232.75,-19.25 187.5,-19.25 187.5,0 232.75,0 232.75,-19.25"/>
<text text-anchor="middle" x="210.12" y="-5.75" font-family="Helvetica,sans-Serif" font-size="10.00">chrono</text>
</a>
</g>
</g>
<!-- Node1&#45;&gt;Node5 -->
<g id="edge4_Node000001_Node000005" class="edge">
<title>Node1&#45;&gt;Node5</title>
<g id="a_edge4_Node000001_Node000005"><a xlink:title=" ">
<path fill="none" stroke="#63b8ff" d="M246.86,-55.08C240.84,-47.8 232.11,-37.23 224.67,-28.23"/>
<polygon fill="#63b8ff" stroke="#63b8ff" points="227.58,-26.26 218.51,-20.78 222.18,-30.71 227.58,-26.26"/>
</a>
</g>
</g>
<!-- Node6 -->
<g id="Node000006" class="node">
<title>Node6</title>
<g id="a_Node000006"><a xlink:title=" ">
<polygon fill="#e0e0e0" stroke="#999999" points="345.12,-19.25 251.12,-19.25 251.12,0 345.12,0 345.12,-19.25"/>
<text text-anchor="middle" x="298.12" y="-5.75" font-family="Helvetica,sans-Serif" font-size="10.00">condition_variable</text>
</a>
</g>
</g>
<!-- Node1&#45;&gt;Node6 -->
<g id="edge5_Node000001_Node000006" class="edge">
<title>Node1&#45;&gt;Node6</title>
<g id="a_edge5_Node000001_Node000006"><a xlink:title=" ">
<path fill="none" stroke="#63b8ff" d="M261.39,-55.08C267.41,-47.8 276.14,-37.23 283.58,-28.23"/>
<polygon fill="#63b8ff" stroke="#63b8ff" points="286.07,-30.71 289.74,-20.78 280.67,-26.26 286.07,-30.71"/>
</a>
</g>
</g>
<!-- Node7 -->
<g id="Node000007" class="node">
<title>Node7</title>
<g id="a_Node000007"><a xlink:title=" ">
<polygon fill="#e0e0e0" stroke="#999999" points="405.25,-19.25 363,-19.25 363,0 405.25,0 405.25,-19.25"/>
<text text-anchor="middle" x="384.12" y="-5.75" font-family="Helvetica,sans-Serif" font-size="10.00">mutex</text>
</a>
</g>
</g>
<!-- Node1&#45;&gt;Node7 -->
<g id="edge6_Node000001_Node000007" class="edge">
<title>Node1&#45;&gt;Node7</title>
<g id="a_edge6_Node000001_Node000007"><a xlink:title=" ">
<path fill="none" stroke="#63b8ff" d="M276.18,-54.84C297.06,-46.29 328.66,-33.34 352.28,-23.67"/>
<polygon fill="#63b8ff" stroke="#63b8ff" points="353.5,-26.95 361.43,-19.92 350.85,-20.47 353.5,-26.95"/>
</a>
</g>
</g>
<!-- Node8 -->
<g id="Node000008" class="node">
<title>Node8</title>
<g id="a_Node000008"><a xlink:title=" ">
<polygon fill="#e0e0e0" stroke="#999999" points="465.25,-19.25 423,-19.25 423,0 465.25,0 465.25,-19.25"/>
<text text-anchor="middle" x="444.12" y="-5.75" font-family="Helvetica,sans-Serif" font-size="10.00">queue</text>
</a>
</g>
</g>
<!-- Node1&#45;&gt;Node8 -->
<g id="edge7_Node000001_Node000008" class="edge">
<title>Node1&#45;&gt;Node8</title>
<g id="a_edge7_Node000001_Node000008"><a xlink:title=" ">
<path fill="none" stroke="#63b8ff" d="M286.93,-54.81C317.02,-46.47 363.09,-33.67 411.49,-19.98"/>
<polygon fill="#63b8ff" stroke="#63b8ff" points="412.38,-23.37 421.04,-17.28 410.47,-16.63 412.38,-23.37"/>
</a>
</g>
</g>
<!-- Node9 -->
<g id="Node000009" class="node">
<title>Node9</title>
<g id="a_Node000009"><a xlink:title=" ">
<polygon fill="#e0e0e0" stroke="#999999" points="521.38,-19.25 482.88,-19.25 482.88,0 521.38,0 521.38,-19.25"/>
<text text-anchor="middle" x="502.12" y="-5.75" font-family="Helvetica,sans-Serif" font-size="10.00">utility</text>
</a>
</g>
</g>
<!-- Node1&#45;&gt;Node9 -->
<g id="edge8_Node000001_Node000009" class="edge">
<title>Node1&#45;&gt;Node9</title>
<g id="a_edge8_Node000001_Node000009"><a xlink:title=" ">
<path fill="none" stroke="#63b8ff" d="M304.69,-55.09C347.04,-47.4 409.27,-35.33 471.77,-19.66"/>
<polygon fill="#63b8ff" stroke="#63b8ff" points="472.32,-23.13 481.15,-17.28 470.59,-16.35 472.32,-23.13"/>
</a>
</g>
</g>
</g>
</svg>
