<?xml version="1.0" encoding="UTF-8" standalone="no"?>
<!DOCTYPE svg PUBLIC "-//W3C//DTD SVG 1.1//EN"
 "http://www.w3.org/Graphics/SVG/1.1/DTD/svg11.dtd">
<!-- Generated by graphviz version 12.2.0 (20241103.1931)
 -->
<!-- Title: TSourceTab Pages: 1 -->
<svg width="916pt" height="884pt"
 viewBox="0.00 0.00 916.25 883.88" xmlns="http://www.w3.org/2000/svg" xmlns:xlink="http://www.w3.org/1999/xlink">
<g id="graph0" class="graph" transform="scale(1 1) rotate(0) translate(4 879.88)">
<title>TSourceTab</title>
<!-- Node1 -->
<g id="Node000001" class="node">
<title>Node1</title>
<g id="a_Node000001"><a xlink:title=" ">
<polygon fill="#999999" stroke="#666666" points="908.25,-127.88 839,-127.88 839,-108.62 908.25,-108.62 908.25,-127.88"/>
<text text-anchor="middle" x="873.62" y="-114.38" font-family="Helvetica,sans-Serif" font-size="10.00">TSourceTab</text>
</a>
</g>
</g>
<!-- Node2 -->
<g id="Node000002" class="node">
<title>Node2</title>
<g id="a_Node000002"><a xlink:href="class_t_channel_tab.html" target="_top" xlink:title=" ">
<polygon fill="white" stroke="#666666" points="713,-545.88 639.25,-545.88 639.25,-526.62 713,-526.62 713,-545.88"/>
<text text-anchor="middle" x="676.12" y="-532.38" font-family="Helvetica,sans-Serif" font-size="10.00">TChannelTab</text>
</a>
</g>
</g>
<!-- Node2&#45;&gt;Node1 -->
<g id="edge1_Node000001_Node000002" class="edge">
<title>Node2&#45;&gt;Node1</title>
<g id="a_edge1_Node000001_Node000002"><a xlink:title=" ">
<path fill="none" stroke="#9a32cd" stroke-dasharray="5,2" d="M686.61,-515.97C721.58,-441.19 842.58,-182.48 867.94,-128.26"/>
<polygon fill="#9a32cd" stroke="#9a32cd" points="683.47,-514.42 682.41,-524.96 689.81,-517.38 683.47,-514.42"/>
</a>
</g>
<text text-anchor="middle" x="788.38" y="-366.44" font-family="Helvetica,sans-Serif" font-size="10.00" fill="grey"> fParent</text>
</g>
<!-- Node3 -->
<g id="Node000003" class="node">
<title>Node3</title>
<g id="a_Node000003"><a xlink:title=" ">
<polygon fill="white" stroke="#666666" points="520.75,-679.88 384,-679.88 384,-660.62 520.75,-660.62 520.75,-679.88"/>
<text text-anchor="middle" x="452.38" y="-666.38" font-family="Helvetica,sans-Serif" font-size="10.00">std::vector&lt; TSourceTab * &gt;</text>
</a>
</g>
</g>
<!-- Node3&#45;&gt;Node2 -->
<g id="edge2_Node000002_Node000003" class="edge">
<title>Node3&#45;&gt;Node2</title>
<g id="a_edge2_Node000002_Node000003"><a xlink:title=" ">
<path fill="none" stroke="#9a32cd" stroke-dasharray="5,2" d="M532.35,-667.42C554.38,-663.81 577.47,-657.16 596.5,-645.25 636.05,-620.48 661.79,-567.89 671.16,-546.06"/>
<polygon fill="#9a32cd" stroke="#9a32cd" points="531.86,-663.96 522.45,-668.83 532.84,-670.89 531.86,-663.96"/>
</a>
</g>
<text text-anchor="middle" x="567.62" y="-667.51" font-family="Helvetica,sans-Serif" font-size="10.00" fill="grey"> fSources</text>
</g>
<!-- Node4 -->
<g id="Node000004" class="node">
<title>Node4</title>
<g id="a_Node000004"><a xlink:href="class_t_source_calibration.html" target="_top" xlink:title=" ">
<polygon fill="white" stroke="#666666" points="501.62,-462.88 403.12,-462.88 403.12,-443.62 501.62,-443.62 501.62,-462.88"/>
<text text-anchor="middle" x="452.38" y="-449.38" font-family="Helvetica,sans-Serif" font-size="10.00">TSourceCalibration</text>
</a>
</g>
</g>
<!-- Node4&#45;&gt;Node2 -->
<g id="edge3_Node000002_Node000004" class="edge">
<title>Node4&#45;&gt;Node2</title>
<g id="a_edge3_Node000002_Node000004"><a xlink:title=" ">
<path fill="none" stroke="#9a32cd" stroke-dasharray="5,2" d="M490.81,-467.26C535.45,-483.97 608.94,-511.48 648.28,-526.2"/>
<polygon fill="#9a32cd" stroke="#9a32cd" points="492.13,-464.02 481.54,-463.79 489.68,-470.58 492.13,-464.02"/>
</a>
</g>
<text text-anchor="middle" x="567.62" y="-506.38" font-family="Helvetica,sans-Serif" font-size="10.00" fill="grey"> fParent</text>
</g>
<!-- Node5 -->
<g id="Node000005" class="node">
<title>Node5</title>
<g id="a_Node000005"><a xlink:title=" ">
<polygon fill="white" stroke="#666666" points="240.75,-499.88 162.5,-499.88 162.5,-480.62 240.75,-480.62 240.75,-499.88"/>
<text text-anchor="middle" x="201.62" y="-486.38" font-family="Helvetica,sans-Serif" font-size="10.00">TGMainFrame</text>
</a>
</g>
</g>
<!-- Node5&#45;&gt;Node4 -->
<g id="edge4_Node000004_Node000005" class="edge">
<title>Node5&#45;&gt;Node4</title>
<g id="a_edge4_Node000004_Node000005"><a xlink:title=" ">
<path fill="none" stroke="#63b8ff" d="M252.46,-482.84C296.22,-476.33 359.49,-466.92 402.86,-460.47"/>
<polygon fill="#63b8ff" stroke="#63b8ff" points="252.09,-479.35 242.72,-484.29 253.12,-486.28 252.09,-479.35"/>
</a>
</g>
</g>
<!-- Node6 -->
<g id="Node000006" class="node">
<title>Node6</title>
<g id="a_Node000006"><a xlink:title=" ">
<polygon fill="white" stroke="#666666" points="272.25,-462.88 131,-462.88 131,-443.62 272.25,-443.62 272.25,-462.88"/>
<text text-anchor="middle" x="201.62" y="-449.38" font-family="Helvetica,sans-Serif" font-size="10.00">std::vector&lt; TChannelTab * &gt;</text>
</a>
</g>
</g>
<!-- Node6&#45;&gt;Node4 -->
<g id="edge5_Node000004_Node000006" class="edge">
<title>Node6&#45;&gt;Node4</title>
<g id="a_edge5_Node000004_Node000006"><a xlink:title=" ">
<path fill="none" stroke="#9a32cd" stroke-dasharray="5,2" d="M284,-453.25C323.26,-453.25 369.05,-453.25 402.8,-453.25"/>
<polygon fill="#9a32cd" stroke="#9a32cd" points="284.09,-449.75 274.09,-453.25 284.09,-456.75 284.09,-449.75"/>
</a>
</g>
<text text-anchor="middle" x="328.88" y="-455" font-family="Helvetica,sans-Serif" font-size="10.00" fill="grey"> fChannelTab</text>
</g>
<!-- Node7 -->
<g id="Node000007" class="node">
<title>Node7</title>
<g id="a_Node000007"><a xlink:title=" ">
<polygon fill="white" stroke="#666666" points="262.12,-425.88 141.12,-425.88 141.12,-406.62 262.12,-406.62 262.12,-425.88"/>
<text text-anchor="middle" x="201.62" y="-412.38" font-family="Helvetica,sans-Serif" font-size="10.00">std::vector&lt; TGLabel * &gt;</text>
</a>
</g>
</g>
<!-- Node7&#45;&gt;Node4 -->
<g id="edge6_Node000004_Node000007" class="edge">
<title>Node7&#45;&gt;Node4</title>
<g id="a_edge6_Node000004_Node000007"><a xlink:title=" ">
<path fill="none" stroke="#9a32cd" stroke-dasharray="5,2" d="M273.64,-425.01C302.36,-428.73 335.8,-433.29 366,-438 377.9,-439.85 390.7,-442.04 402.68,-444.17"/>
<polygon fill="#9a32cd" stroke="#9a32cd" points="274.33,-421.57 263.97,-423.76 273.44,-428.51 274.33,-421.57"/>
</a>
</g>
<text text-anchor="middle" x="328.88" y="-439.75" font-family="Helvetica,sans-Serif" font-size="10.00" fill="grey"> fMatrixNames</text>
</g>
<!-- Node8 -->
<g id="Node000008" class="node">
<title>Node8</title>
<g id="a_Node000008"><a xlink:title=" ">
<polygon fill="white" stroke="#666666" points="273.75,-388.88 129.5,-388.88 129.5,-369.62 273.75,-369.62 273.75,-388.88"/>
<text text-anchor="middle" x="201.62" y="-375.38" font-family="Helvetica,sans-Serif" font-size="10.00">std::vector&lt; TGComboBox * &gt;</text>
</a>
</g>
</g>
<!-- Node8&#45;&gt;Node4 -->
<g id="edge7_Node000004_Node000008" class="edge">
<title>Node8&#45;&gt;Node4</title>
<g id="a_edge7_Node000004_Node000008"><a xlink:title=" ">
<path fill="none" stroke="#9a32cd" stroke-dasharray="5,2" d="M283.98,-391.38C310.5,-396.43 339.85,-403.22 366,-412 390.5,-420.23 417.06,-433.88 433.94,-443.21"/>
<polygon fill="#9a32cd" stroke="#9a32cd" points="284.76,-387.96 274.29,-389.59 283.49,-394.85 284.76,-387.96"/>
</a>
</g>
<text text-anchor="middle" x="328.88" y="-413.75" font-family="Helvetica,sans-Serif" font-size="10.00" fill="grey"> fSourceBox</text>
</g>
<!-- Node9 -->
<g id="Node000009" class="node">
<title>Node9</title>
<g id="a_Node000009"><a xlink:title=" ">
<polygon fill="white" stroke="#666666" points="264.38,-577.88 138.88,-577.88 138.88,-558.62 264.38,-558.62 264.38,-577.88"/>
<text text-anchor="middle" x="201.62" y="-564.38" font-family="Helvetica,sans-Serif" font-size="10.00">std::vector&lt; TNucleus * &gt;</text>
</a>
</g>
</g>
<!-- Node9&#45;&gt;Node2 -->
<g id="edge15_Node000002_Node000009" class="edge">
<title>Node9&#45;&gt;Node2</title>
<g id="a_edge15_Node000002_Node000009"><a xlink:title=" ">
<path fill="none" stroke="#9a32cd" stroke-dasharray="5,2" d="M276.07,-563.91C304.2,-562.21 336.59,-560.2 366,-558.25 464.78,-551.71 581.26,-543.21 638.96,-538.94"/>
<polygon fill="#9a32cd" stroke="#9a32cd" points="275.98,-560.41 266.21,-564.5 276.4,-567.4 275.98,-560.41"/>
</a>
</g>
<text text-anchor="middle" x="452.38" y="-558.77" font-family="Helvetica,sans-Serif" font-size="10.00" fill="grey"> fNuclei</text>
</g>
<!-- Node9&#45;&gt;Node4 -->
<g id="edge8_Node000004_Node000009" class="edge">
<title>Node9&#45;&gt;Node4</title>
<g id="a_edge8_Node000004_Node000009"><a xlink:title=" ">
<path fill="none" stroke="#9a32cd" stroke-dasharray="5,2" d="M253.01,-555.3C293.3,-544.55 346.2,-529.43 366,-519.25 395.99,-503.84 426.02,-477.47 441.2,-463.17"/>
<polygon fill="#9a32cd" stroke="#9a32cd" points="252.25,-551.88 243.48,-557.83 254.04,-558.65 252.25,-551.88"/>
</a>
</g>
<text text-anchor="middle" x="328.88" y="-545.73" font-family="Helvetica,sans-Serif" font-size="10.00" fill="grey"> fSource</text>
</g>
<!-- Node10 -->
<g id="Node000010" class="node">
<title>Node10</title>
<g id="a_Node000010"><a xlink:title=" ">
<polygon fill="white" stroke="#666666" points="270,-262.12 133.25,-262.12 133.25,-220.38 270,-220.38 270,-262.12"/>
<text text-anchor="start" x="141.25" y="-248.62" font-family="Helvetica,sans-Serif" font-size="10.00">std::vector&lt; std::vector</text>
<text text-anchor="start" x="141.25" y="-237.38" font-family="Helvetica,sans-Serif" font-size="10.00">&lt; std::tuple&lt; double, double,</text>
<text text-anchor="middle" x="201.62" y="-226.12" font-family="Helvetica,sans-Serif" font-size="10.00"> double, double &gt; &gt; &gt;</text>
</a>
</g>
</g>
<!-- Node10&#45;&gt;Node2 -->
<g id="edge18_Node000002_Node000010" class="edge">
<title>Node10&#45;&gt;Node2</title>
<g id="a_edge18_Node000002_Node000010"><a xlink:title=" ">
<path fill="none" stroke="#9a32cd" stroke-dasharray="5,2" d="M281.42,-236.04C309.11,-236.9 339.82,-241.02 366,-252.25 515.03,-316.16 638.52,-483.51 668.29,-526.22"/>
<polygon fill="#9a32cd" stroke="#9a32cd" points="281.74,-232.54 271.68,-235.88 281.63,-239.54 281.74,-232.54"/>
</a>
</g>
<text text-anchor="middle" x="452.38" y="-356.11" font-family="Helvetica,sans-Serif" font-size="10.00" fill="grey"> fSourceEnergies</text>
</g>
<!-- Node10&#45;&gt;Node4 -->
<g id="edge9_Node000004_Node000010" class="edge">
<title>Node10&#45;&gt;Node4</title>
<g id="a_edge9_Node000004_Node000010"><a xlink:title=" ">
<path fill="none" stroke="#9a32cd" stroke-dasharray="5,2" d="M281.39,-250.44C310.47,-257.06 342.12,-268.44 366,-288 418.46,-330.97 442.3,-414.64 449.18,-443.32"/>
<polygon fill="#9a32cd" stroke="#9a32cd" points="282.38,-247.07 271.87,-248.44 280.94,-253.92 282.38,-247.07"/>
</a>
</g>
<text text-anchor="middle" x="328.88" y="-289.75" font-family="Helvetica,sans-Serif" font-size="10.00" fill="grey"> fSourceEnergy</text>
</g>
<!-- Node11 -->
<g id="Node000011" class="node">
<title>Node11</title>
<g id="a_Node000011"><a xlink:title=" ">
<polygon fill="white" stroke="#666666" points="245.62,-350.88 157.62,-350.88 157.62,-331.62 245.62,-331.62 245.62,-350.88"/>
<text text-anchor="middle" x="201.62" y="-337.38" font-family="Helvetica,sans-Serif" font-size="10.00">std::vector&lt; int &gt;</text>
</a>
</g>
</g>
<!-- Node11&#45;&gt;Node4 -->
<g id="edge10_Node000004_Node000011" class="edge">
<title>Node11&#45;&gt;Node4</title>
<g id="a_edge10_Node000004_Node000011"><a xlink:title=" ">
<path fill="none" stroke="#9a32cd" stroke-dasharray="5,2" d="M257.13,-341.27C290.21,-343.28 332.4,-349.54 366,-366.75 402.06,-385.22 432.05,-424.64 444.8,-443.2"/>
<polygon fill="#9a32cd" stroke="#9a32cd" points="257.5,-337.78 247.34,-340.79 257.16,-344.77 257.5,-337.78"/>
</a>
</g>
<text text-anchor="middle" x="328.88" y="-379.75" font-family="Helvetica,sans-Serif" font-size="10.00" fill="grey"> fActiveBins</text>
<text text-anchor="middle" x="328.88" y="-368.5" font-family="Helvetica,sans-Serif" font-size="10.00" fill="grey">fActualChannelId</text>
</g>
<!-- Node12 -->
<g id="Node000012" class="node">
<title>Node12</title>
<g id="a_Node000012"><a xlink:title=" ">
<polygon fill="white" stroke="#666666" points="248.25,-313.5 155,-313.5 155,-283 248.25,-283 248.25,-313.5"/>
<text text-anchor="start" x="163" y="-300" font-family="Helvetica,sans-Serif" font-size="10.00">std::vector&lt; const</text>
<text text-anchor="middle" x="201.62" y="-288.75" font-family="Helvetica,sans-Serif" font-size="10.00"> char * &gt;</text>
</a>
</g>
</g>
<!-- Node12&#45;&gt;Node4 -->
<g id="edge11_Node000004_Node000012" class="edge">
<title>Node12&#45;&gt;Node4</title>
<g id="a_edge11_Node000004_Node000012"><a xlink:title=" ">
<path fill="none" stroke="#9a32cd" stroke-dasharray="5,2" d="M260.11,-298.88C293.38,-301.69 334.73,-309.58 366,-330 410.24,-358.89 438,-419.46 447.6,-443.3"/>
<polygon fill="#9a32cd" stroke="#9a32cd" points="260.44,-295.39 250.22,-298.19 259.95,-302.37 260.44,-295.39"/>
</a>
</g>
<text text-anchor="middle" x="328.88" y="-331.75" font-family="Helvetica,sans-Serif" font-size="10.00" fill="grey"> fChannelLabel</text>
</g>
<!-- Node13 -->
<g id="Node000013" class="node">
<title>Node13</title>
<g id="a_Node000013"><a xlink:title=" ">
<polygon fill="white" stroke="#666666" points="252.75,-536.88 150.5,-536.88 150.5,-517.62 252.75,-517.62 252.75,-536.88"/>
<text text-anchor="middle" x="201.62" y="-523.38" font-family="Helvetica,sans-Serif" font-size="10.00">std::vector&lt; TH2 * &gt;</text>
</a>
</g>
</g>
<!-- Node13&#45;&gt;Node4 -->
<g id="edge12_Node000004_Node000013" class="edge">
<title>Node13&#45;&gt;Node4</title>
<g id="a_edge12_Node000004_Node000013"><a xlink:title=" ">
<path fill="none" stroke="#9a32cd" stroke-dasharray="5,2" d="M253.22,-514.49C260.12,-512.74 267.11,-510.95 273.75,-509.25 314.79,-498.72 325.61,-498.04 366,-485.25 386.67,-478.71 409.67,-470 426.58,-463.32"/>
<polygon fill="#9a32cd" stroke="#9a32cd" points="252.81,-510.98 243.98,-516.83 254.53,-517.77 252.81,-510.98"/>
</a>
</g>
<text text-anchor="middle" x="328.88" y="-506.14" font-family="Helvetica,sans-Serif" font-size="10.00" fill="grey"> fMatrices</text>
</g>
<!-- Node14 -->
<g id="Node000014" class="node">
<title>Node14</title>
<g id="a_Node000014"><a xlink:title=" ">
<polygon fill="white" stroke="#666666" points="230.62,-640.88 172.62,-640.88 172.62,-621.62 230.62,-621.62 230.62,-640.88"/>
<text text-anchor="middle" x="201.62" y="-627.38" font-family="Helvetica,sans-Serif" font-size="10.00">std::string</text>
</a>
</g>
</g>
<!-- Node14&#45;&gt;Node2 -->
<g id="edge17_Node000002_Node000014" class="edge">
<title>Node14&#45;&gt;Node2</title>
<g id="a_edge17_Node000002_Node000014"><a xlink:title=" ">
<path fill="none" stroke="#9a32cd" stroke-dasharray="5,2" d="M241.9,-629.01C275.13,-626.72 323.91,-622.48 366,-615.25 470.01,-597.39 494.45,-585.14 596.5,-558.25 610.75,-554.49 626.4,-550.16 639.96,-546.34"/>
<polygon fill="#9a32cd" stroke="#9a32cd" points="242.09,-625.48 232.34,-629.63 242.55,-632.47 242.09,-625.48"/>
</a>
</g>
<text text-anchor="middle" x="452.38" y="-613.5" font-family="Helvetica,sans-Serif" font-size="10.00" fill="grey"> fName</text>
</g>
<!-- Node14&#45;&gt;Node4 -->
<g id="edge13_Node000004_Node000014" class="edge">
<title>Node14&#45;&gt;Node4</title>
<g id="a_edge13_Node000004_Node000014"><a xlink:title=" ">
<path fill="none" stroke="#9a32cd" stroke-dasharray="5,2" d="M241.82,-619.86C276.79,-608.4 328.15,-588.26 366,-559.25 402.76,-531.08 433.28,-483.91 445.56,-463.35"/>
<polygon fill="#9a32cd" stroke="#9a32cd" points="241,-616.45 232.53,-622.82 243.12,-623.12 241,-616.45"/>
</a>
</g>
<text text-anchor="middle" x="328.88" y="-601.76" font-family="Helvetica,sans-Serif" font-size="10.00" fill="grey"> fLogFile</text>
</g>
<!-- Node17 -->
<g id="Node000017" class="node">
<title>Node17</title>
<g id="a_Node000017"><a xlink:href="class_t_calibration_graph_set.html" target="_top" xlink:title=" ">
<polygon fill="white" stroke="#666666" points="506.88,-757.88 397.88,-757.88 397.88,-738.62 506.88,-738.62 506.88,-757.88"/>
<text text-anchor="middle" x="452.38" y="-744.38" font-family="Helvetica,sans-Serif" font-size="10.00">TCalibrationGraphSet</text>
</a>
</g>
</g>
<!-- Node14&#45;&gt;Node17 -->
<g id="edge25_Node000017_Node000014" class="edge">
<title>Node14&#45;&gt;Node17</title>
<g id="a_edge25_Node000017_Node000014"><a xlink:title=" ">
<path fill="none" stroke="#9a32cd" stroke-dasharray="5,2" d="M241.77,-640.26C275.78,-648.97 325.76,-663.9 366,-684.75 395.03,-699.79 424.73,-724.39 440.3,-738.14"/>
<polygon fill="#9a32cd" stroke="#9a32cd" points="242.91,-636.94 232.36,-637.91 241.21,-643.73 242.91,-636.94"/>
</a>
</g>
<text text-anchor="middle" x="328.88" y="-697.75" font-family="Helvetica,sans-Serif" font-size="10.00" fill="grey"> fXAxisLabel</text>
<text text-anchor="middle" x="328.88" y="-686.5" font-family="Helvetica,sans-Serif" font-size="10.00" fill="grey">fYAxisLabel</text>
</g>
<!-- Node15 -->
<g id="Node000015" class="node">
<title>Node15</title>
<g id="a_Node000015"><a xlink:title=" ">
<polygon fill="white" stroke="#666666" points="92.5,-646.5 0,-646.5 0,-616 92.5,-616 92.5,-646.5"/>
<text text-anchor="start" x="8" y="-633" font-family="Helvetica,sans-Serif" font-size="10.00">std::basic_string&lt;</text>
<text text-anchor="middle" x="46.25" y="-621.75" font-family="Helvetica,sans-Serif" font-size="10.00"> Char &gt;</text>
</a>
</g>
</g>
<!-- Node15&#45;&gt;Node14 -->
<g id="edge14_Node000014_Node000015" class="edge">
<title>Node15&#45;&gt;Node14</title>
<g id="a_edge14_Node000014_Node000015"><a xlink:title=" ">
<path fill="none" stroke="#63b8ff" d="M104.34,-631.25C127.53,-631.25 153.28,-631.25 172.31,-631.25"/>
<polygon fill="#63b8ff" stroke="#63b8ff" points="104.37,-627.75 94.37,-631.25 104.37,-634.75 104.37,-627.75"/>
</a>
</g>
</g>
<!-- Node16 -->
<g id="Node000016" class="node">
<title>Node16</title>
<g id="a_Node000016"><a xlink:title=" ">
<polygon fill="white" stroke="#666666" points="507.62,-201.88 397.12,-201.88 397.12,-182.62 507.62,-182.62 507.62,-201.88"/>
<text text-anchor="middle" x="452.38" y="-188.38" font-family="Helvetica,sans-Serif" font-size="10.00">std::vector&lt; GH1D * &gt;</text>
</a>
</g>
</g>
<!-- Node16&#45;&gt;Node2 -->
<g id="edge16_Node000002_Node000016" class="edge">
<title>Node16&#45;&gt;Node2</title>
<g id="a_edge16_Node000002_Node000016"><a xlink:title=" ">
<path fill="none" stroke="#9a32cd" stroke-dasharray="5,2" d="M519.18,-186.63C546.17,-187.84 575.86,-194.23 596.5,-213 644.99,-257.11 669.31,-477.16 674.19,-526.44"/>
<polygon fill="#9a32cd" stroke="#9a32cd" points="519.39,-183.13 509.32,-186.43 519.25,-190.13 519.39,-183.13"/>
</a>
</g>
<text text-anchor="middle" x="567.62" y="-214.75" font-family="Helvetica,sans-Serif" font-size="10.00" fill="grey"> fProjections</text>
</g>
<!-- Node17&#45;&gt;Node2 -->
<g id="edge19_Node000002_Node000017" class="edge">
<title>Node17&#45;&gt;Node2</title>
<g id="a_edge19_Node000002_Node000017"><a xlink:title=" ">
<path fill="none" stroke="#9a32cd" stroke-dasharray="5,2" d="M500.76,-734.61C531.01,-723.99 569.47,-706.73 596.5,-681.25 639.43,-640.79 664.18,-571.55 672.21,-546.05"/>
<polygon fill="#9a32cd" stroke="#9a32cd" points="499.82,-731.23 491.46,-737.74 502.05,-737.87 499.82,-731.23"/>
</a>
</g>
<text text-anchor="middle" x="567.62" y="-731.83" font-family="Helvetica,sans-Serif" font-size="10.00" fill="grey"> fData</text>
<text text-anchor="middle" x="567.62" y="-720.58" font-family="Helvetica,sans-Serif" font-size="10.00" fill="grey">fFwhm</text>
</g>
<!-- Node18 -->
<g id="Node000018" class="node">
<title>Node18</title>
<g id="a_Node000018"><a xlink:title=" ">
<polygon fill="white" stroke="#666666" points="228.38,-794.88 174.88,-794.88 174.88,-775.62 228.38,-775.62 228.38,-794.88"/>
<text text-anchor="middle" x="201.62" y="-781.38" font-family="Helvetica,sans-Serif" font-size="10.00">TNamed</text>
</a>
</g>
</g>
<!-- Node18&#45;&gt;Node17 -->
<g id="edge20_Node000017_Node000018" class="edge">
<title>Node18&#45;&gt;Node17</title>
<g id="a_edge20_Node000017_Node000018"><a xlink:title=" ">
<path fill="none" stroke="#63b8ff" d="M239.67,-780.28C272.8,-775.77 322.69,-768.85 366,-762.25 376.25,-760.69 387.17,-758.95 397.66,-757.25"/>
<polygon fill="#63b8ff" stroke="#63b8ff" points="239.62,-776.75 230.18,-781.56 240.56,-783.69 239.62,-776.75"/>
</a>
</g>
</g>
<!-- Node19 -->
<g id="Node000019" class="node">
<title>Node19</title>
<g id="a_Node000019"><a xlink:title=" ">
<polygon fill="white" stroke="#666666" points="230.62,-757.88 172.62,-757.88 172.62,-738.62 230.62,-738.62 230.62,-757.88"/>
<text text-anchor="middle" x="201.62" y="-744.38" font-family="Helvetica,sans-Serif" font-size="10.00">TQObject</text>
</a>
</g>
</g>
<!-- Node19&#45;&gt;Node17 -->
<g id="edge21_Node000017_Node000019" class="edge">
<title>Node19&#45;&gt;Node17</title>
<g id="a_edge21_Node000017_Node000019"><a xlink:title=" ">
<path fill="none" stroke="#63b8ff" d="M242.1,-748.25C284.14,-748.25 350.94,-748.25 397.73,-748.25"/>
<polygon fill="#63b8ff" stroke="#63b8ff" points="242.19,-744.75 232.19,-748.25 242.19,-751.75 242.19,-744.75"/>
</a>
</g>
</g>
<!-- Node20 -->
<g id="Node000020" class="node">
<title>Node20</title>
<g id="a_Node000020"><a xlink:title=" ">
<polygon fill="white" stroke="#666666" points="262.12,-720.5 141.12,-720.5 141.12,-690 262.12,-690 262.12,-720.5"/>
<text text-anchor="start" x="149.12" y="-707" font-family="Helvetica,sans-Serif" font-size="10.00">std::vector&lt; TCalibration</text>
<text text-anchor="middle" x="201.62" y="-695.75" font-family="Helvetica,sans-Serif" font-size="10.00">Graph &gt;</text>
</a>
</g>
</g>
<!-- Node20&#45;&gt;Node17 -->
<g id="edge22_Node000017_Node000020" class="edge">
<title>Node20&#45;&gt;Node17</title>
<g id="a_edge22_Node000017_Node000020"><a xlink:title=" ">
<path fill="none" stroke="#9a32cd" stroke-dasharray="5,2" d="M273.65,-709.31C302.5,-711.77 336.04,-715.65 366,-721.75 385.77,-725.77 407.48,-732.55 424.06,-738.24"/>
<polygon fill="#9a32cd" stroke="#9a32cd" points="274.18,-705.84 263.93,-708.53 273.62,-712.82 274.18,-705.84"/>
</a>
</g>
<text text-anchor="middle" x="328.88" y="-734.75" font-family="Helvetica,sans-Serif" font-size="10.00" fill="grey"> fGraphs</text>
<text text-anchor="middle" x="328.88" y="-723.5" font-family="Helvetica,sans-Serif" font-size="10.00" fill="grey">fResidualGraphs</text>
</g>
<!-- Node21 -->
<g id="Node000021" class="node">
<title>Node21</title>
<g id="a_Node000021"><a xlink:title=" ">
<polygon fill="white" stroke="#666666" points="261.38,-875.88 141.88,-875.88 141.88,-856.62 261.38,-856.62 261.38,-875.88"/>
<text text-anchor="middle" x="201.62" y="-862.38" font-family="Helvetica,sans-Serif" font-size="10.00">std::vector&lt; std::string &gt;</text>
</a>
</g>
</g>
<!-- Node21&#45;&gt;Node17 -->
<g id="edge23_Node000017_Node000021" class="edge">
<title>Node21&#45;&gt;Node17</title>
<g id="a_edge23_Node000017_Node000021"><a xlink:title=" ">
<path fill="none" stroke="#9a32cd" stroke-dasharray="5,2" d="M272.78,-857.61C302.76,-851.9 337.37,-842.54 366,-827.25 399.49,-809.37 429.83,-775.14 443.59,-758.23"/>
<polygon fill="#9a32cd" stroke="#9a32cd" points="272.26,-854.14 263.03,-859.35 273.49,-861.04 272.26,-854.14"/>
</a>
</g>
<text text-anchor="middle" x="328.88" y="-855.08" font-family="Helvetica,sans-Serif" font-size="10.00" fill="grey"> fLabel</text>
</g>
<!-- Node22 -->
<g id="Node000022" class="node">
<title>Node22</title>
<g id="a_Node000022"><a xlink:title=" ">
<polygon fill="white" stroke="#666666" points="253.12,-831.88 150.12,-831.88 150.12,-812.62 253.12,-812.62 253.12,-831.88"/>
<text text-anchor="middle" x="201.62" y="-818.38" font-family="Helvetica,sans-Serif" font-size="10.00">std::vector&lt; size_t &gt;</text>
</a>
</g>
</g>
<!-- Node22&#45;&gt;Node17 -->
<g id="edge24_Node000017_Node000022" class="edge">
<title>Node22&#45;&gt;Node17</title>
<g id="a_edge24_Node000017_Node000022"><a xlink:title=" ">
<path fill="none" stroke="#9a32cd" stroke-dasharray="5,2" d="M260.39,-809.58C291.87,-802.22 331.37,-792.24 366,-781.25 387.2,-774.52 410.75,-765.28 427.73,-758.29"/>
<polygon fill="#9a32cd" stroke="#9a32cd" points="259.61,-806.17 250.65,-811.83 261.18,-812.99 259.61,-806.17"/>
</a>
</g>
<text text-anchor="middle" x="328.88" y="-814.21" font-family="Helvetica,sans-Serif" font-size="10.00" fill="grey"> fGraphIndex</text>
<text text-anchor="middle" x="328.88" y="-802.96" font-family="Helvetica,sans-Serif" font-size="10.00" fill="grey">fPointIndex</text>
</g>
<!-- Node23 -->
<g id="Node000023" class="node">
<title>Node23</title>
<g id="a_Node000023"><a xlink:href="class_g_h1_d.html" target="_top" xlink:title=" ">
<polygon fill="white" stroke="#666666" points="697.62,-164.88 654.62,-164.88 654.62,-145.62 697.62,-145.62 697.62,-164.88"/>
<text text-anchor="middle" x="676.12" y="-151.38" font-family="Helvetica,sans-Serif" font-size="10.00">GH1D</text>
</a>
</g>
</g>
<!-- Node23&#45;&gt;Node1 -->
<g id="edge26_Node000001_Node000023" class="edge">
<title>Node23&#45;&gt;Node1</title>
<g id="a_edge26_Node000001_Node000023"><a xlink:title=" ">
<path fill="none" stroke="#9a32cd" stroke-dasharray="5,2" d="M708.87,-150.71C738.12,-146.35 782.66,-139.26 821,-131.25 826.7,-130.06 832.72,-128.67 838.56,-127.24"/>
<polygon fill="#9a32cd" stroke="#9a32cd" points="708.59,-147.22 699.21,-152.13 709.61,-154.14 708.59,-147.22"/>
</a>
</g>
<text text-anchor="middle" x="788.38" y="-144.69" font-family="Helvetica,sans-Serif" font-size="10.00" fill="grey"> fProjection</text>
</g>
<!-- Node24 -->
<g id="Node000024" class="node">
<title>Node24</title>
<g id="a_Node000024"><a xlink:title=" ">
<polygon fill="white" stroke="#666666" points="473.12,-164.88 431.62,-164.88 431.62,-145.62 473.12,-145.62 473.12,-164.88"/>
<text text-anchor="middle" x="452.38" y="-151.38" font-family="Helvetica,sans-Serif" font-size="10.00">TH1D</text>
</a>
</g>
</g>
<!-- Node24&#45;&gt;Node23 -->
<g id="edge27_Node000023_Node000024" class="edge">
<title>Node24&#45;&gt;Node23</title>
<g id="a_edge27_Node000023_Node000024"><a xlink:title=" ">
<path fill="none" stroke="#63b8ff" d="M484.8,-155.25C530.8,-155.25 615.24,-155.25 654.3,-155.25"/>
<polygon fill="#63b8ff" stroke="#63b8ff" points="484.96,-151.75 474.96,-155.25 484.96,-158.75 484.96,-151.75"/>
</a>
</g>
</g>
<!-- Node25 -->
<g id="Node000025" class="node">
<title>Node25</title>
<g id="a_Node000025"><a xlink:title=" ">
<polygon fill="white" stroke="#666666" points="498.62,-127.88 406.12,-127.88 406.12,-108.62 498.62,-108.62 498.62,-127.88"/>
<text text-anchor="middle" x="452.38" y="-114.38" font-family="Helvetica,sans-Serif" font-size="10.00">std::array&lt; int, 3 &gt;</text>
</a>
</g>
</g>
<!-- Node25&#45;&gt;Node23 -->
<g id="edge28_Node000023_Node000025" class="edge">
<title>Node25&#45;&gt;Node23</title>
<g id="a_edge28_Node000023_Node000025"><a xlink:title=" ">
<path fill="none" stroke="#9a32cd" stroke-dasharray="5,2" d="M510.19,-126.34C536.49,-130.23 568.13,-135.1 596.5,-140 616.09,-143.39 638.33,-147.75 654.14,-150.94"/>
<polygon fill="#9a32cd" stroke="#9a32cd" points="510.79,-122.89 500.39,-124.9 509.78,-129.82 510.79,-122.89"/>
</a>
</g>
<text text-anchor="middle" x="567.62" y="-141.75" font-family="Helvetica,sans-Serif" font-size="10.00" fill="grey"> fRegionColor</text>
</g>
<!-- Node26 -->
<g id="Node000026" class="node">
<title>Node26</title>
<g id="a_Node000026"><a xlink:title=" ">
<polygon fill="white" stroke="#666666" points="732.88,-127.88 619.38,-127.88 619.38,-108.62 732.88,-108.62 732.88,-127.88"/>
<text text-anchor="middle" x="676.12" y="-114.38" font-family="Helvetica,sans-Serif" font-size="10.00">std::vector&lt; GPeak * &gt;</text>
</a>
</g>
</g>
<!-- Node26&#45;&gt;Node1 -->
<g id="edge29_Node000001_Node000026" class="edge">
<title>Node26&#45;&gt;Node1</title>
<g id="a_edge29_Node000001_Node000026"><a xlink:title=" ">
<path fill="none" stroke="#9a32cd" stroke-dasharray="5,2" d="M744.6,-118.25C776.34,-118.25 812.8,-118.25 838.68,-118.25"/>
<polygon fill="#9a32cd" stroke="#9a32cd" points="744.66,-114.75 734.66,-118.25 744.66,-121.75 744.66,-114.75"/>
</a>
</g>
<text text-anchor="middle" x="788.38" y="-120" font-family="Helvetica,sans-Serif" font-size="10.00" fill="grey"> fPeaks</text>
</g>
<!-- Node27 -->
<g id="Node000027" class="node">
<title>Node27</title>
<g id="a_Node000027"><a xlink:title=" ">
<polygon fill="white" stroke="#666666" points="737.75,-90.12 614.5,-90.12 614.5,-48.38 737.75,-48.38 737.75,-90.12"/>
<text text-anchor="start" x="622.5" y="-76.62" font-family="Helvetica,sans-Serif" font-size="10.00">std::vector&lt; std::tuple</text>
<text text-anchor="start" x="622.5" y="-65.38" font-family="Helvetica,sans-Serif" font-size="10.00">&lt; double, double, double,</text>
<text text-anchor="middle" x="676.12" y="-54.12" font-family="Helvetica,sans-Serif" font-size="10.00"> double &gt; &gt;</text>
</a>
</g>
</g>
<!-- Node27&#45;&gt;Node1 -->
<g id="edge30_Node000001_Node000027" class="edge">
<title>Node27&#45;&gt;Node1</title>
<g id="a_edge30_Node000001_Node000027"><a xlink:title=" ">
<path fill="none" stroke="#9a32cd" stroke-dasharray="5,2" d="M749.28,-85.33C772.27,-90.68 797.77,-96.85 821,-103 826.96,-104.58 833.28,-106.36 839.38,-108.13"/>
<polygon fill="#9a32cd" stroke="#9a32cd" points="750.23,-81.96 739.7,-83.12 748.65,-88.78 750.23,-81.96"/>
</a>
</g>
<text text-anchor="middle" x="788.38" y="-104.75" font-family="Helvetica,sans-Serif" font-size="10.00" fill="grey"> fSourceEnergy</text>
</g>
<!-- Node28 -->
<g id="Node000028" class="node">
<title>Node28</title>
<g id="a_Node000028"><a xlink:title=" ">
<polygon fill="white" stroke="#666666" points="727.62,-30.5 624.62,-30.5 624.62,0 727.62,0 727.62,-30.5"/>
<text text-anchor="start" x="632.62" y="-17" font-family="Helvetica,sans-Serif" font-size="10.00">std::vector&lt; std::pair</text>
<text text-anchor="middle" x="676.12" y="-5.75" font-family="Helvetica,sans-Serif" font-size="10.00">&lt; double, double &gt; &gt;</text>
</a>
</g>
</g>
<!-- Node28&#45;&gt;Node1 -->
<g id="edge31_Node000001_Node000028" class="edge">
<title>Node28&#45;&gt;Node1</title>
<g id="a_edge31_Node000001_Node000028"><a xlink:title=" ">
<path fill="none" stroke="#9a32cd" stroke-dasharray="5,2" d="M738.46,-34.02C764.88,-43.45 795.5,-56.25 821,-72 837.59,-82.24 853.85,-98.04 863.56,-108.26"/>
<polygon fill="#9a32cd" stroke="#9a32cd" points="739.83,-30.79 729.23,-30.81 737.53,-37.4 739.83,-30.79"/>
</a>
</g>
<text text-anchor="middle" x="788.38" y="-73.75" font-family="Helvetica,sans-Serif" font-size="10.00" fill="grey"> fRegions</text>
</g>
</g>
</svg>
