<?xml version="1.0" encoding="UTF-8" standalone="no"?>
<!DOCTYPE svg PUBLIC "-//W3C//DTD SVG 1.1//EN"
 "http://www.w3.org/Graphics/SVG/1.1/DTD/svg11.dtd">
<!-- Generated by graphviz version 9.0.0 (20230911.1827)
 -->
<!-- Title: TSourceTab Pages: 1 -->
<!--zoomable 816 -->

<svg id="main" version="1.1" xmlns="http://www.w3.org/2000/svg" xmlns:xlink="http://www.w3.org/1999/xlink" xml:space="preserve" onload="init(evt)">
<style type="text/css"><![CDATA[
.node, .edge {opacity: 0.7;}
.node.selected, .edge.selected {opacity: 1;}
.edge:hover path { stroke: red; }
.edge:hover polygon { stroke: red; fill: red; }
]]></style>

<defs>
  <circle id="rim" cx="0" cy="0" r="7"/>
  <circle id="rim2" cx="0" cy="0" r="3.5"/>
  <g id="zoomPlus">
    <use xlink:href="#rim" fill="#404040"><set attributeName="fill" to="#808080" begin="zoomplus.mouseover" end="zoomplus.mouseout"/></use>
    <path d="M-4,0h8M0,-4v8" fill="none" stroke="white" stroke-width="1.5" pointer-events="none"/>
  </g>
  <g id="zoomMin">
    <use xlink:href="#rim" fill="#404040"><set attributeName="fill" to="#808080" begin="zoomminus.mouseover" end="zoomminus.mouseout"/></use>
    <path d="M-4,0h8" fill="none" stroke="white" stroke-width="1.5" pointer-events="none"/>
  </g>
  <g id="arrowUp" transform="translate(30 24)">
    <use xlink:href="#rim"/>
    <path pointer-events="none" fill="none" stroke="white" stroke-width="1.5" d="M0,-3.0v7 M-2.5,-0.5L0,-3.0L2.5,-0.5"/>
  </g>
  <g id="arrowRight" transform="rotate(90) translate(36 -43)">
    <use xlink:href="#rim"/>
    <path pointer-events="none" fill="none" stroke="white" stroke-width="1.5" d="M0,-3.0v7 M-2.5,-0.5L0,-3.0L2.5,-0.5"/>
  </g>
  <g id="arrowDown" transform="rotate(180) translate(-30 -48)">
    <use xlink:href="#rim"/>
    <path pointer-events="none" fill="none" stroke="white" stroke-width="1.5" d="M0,-3.0v7 M-2.5,-0.5L0,-3.0L2.5,-0.5"/>
  </g>
  <g id="arrowLeft" transform="rotate(270) translate(-36 17)">
    <use xlink:href="#rim"/>
    <path pointer-events="none" fill="none" stroke="white" stroke-width="1.5" d="M0,-3.0v7 M-2.5,-0.5L0,-3.0L2.5,-0.5"/>
  </g>
  <g id="resetDef">
    <use xlink:href="#rim2" fill="#404040"><set attributeName="fill" to="#808080" begin="reset.mouseover" end="reset.mouseout"/></use>
  </g>
</defs>
<script type="application/ecmascript">
var viewWidth = 916;
var viewHeight = 816;
var sectionId = 'dynsection-0';
</script>
<script type="application/ecmascript" xlink:href="svg.min.js"/>
<svg id="graph" class="graph">
<g id="viewport">
<title>TSourceTab</title>
<!-- Node1 -->
<g id="Node000001" class="node">
<title>Node1</title>
<g id="a_Node000001"><a xlink:title=" ">
<polygon fill="#999999" stroke="#666666" points="908.25,-127.88 839,-127.88 839,-108.62 908.25,-108.62 908.25,-127.88"/>
<text text-anchor="middle" x="873.62" y="-114.38" font-family="Helvetica,sans-Serif" font-size="10.00">TSourceTab</text>
</a>
</g>
</g>
<!-- Node2 -->
<g id="Node000002" class="node">
<title>Node2</title>
<g id="a_Node000002"><a xlink:href="class_t_channel_tab.html" target="_top" xlink:title=" ">
<polygon fill="white" stroke="#666666" points="713,-533.88 639.25,-533.88 639.25,-514.62 713,-514.62 713,-533.88"/>
<text text-anchor="middle" x="676.12" y="-520.38" font-family="Helvetica,sans-Serif" font-size="10.00">TChannelTab</text>
</a>
</g>
</g>
<!-- Node2&#45;&gt;Node1 -->
<g id="edge1_Node000001_Node000002" class="edge">
<title>Node2&#45;&gt;Node1</title>
<g id="a_edge1_Node000001_Node000002"><a xlink:title=" ">
<path fill="none" stroke="#9a32cd" stroke-dasharray="5,2" d="M686.85,-504.05C722.07,-430.92 842.15,-181.53 867.79,-128.3"/>
<polygon fill="#9a32cd" stroke="#9a32cd" points="683.8,-502.32 682.61,-512.85 690.11,-505.36 683.8,-502.32"/>
</a>
</g>
<text text-anchor="middle" x="788.38" y="-359" font-family="Helvetica,sans-Serif" font-size="10.00" fill="grey"> fParent</text>
</g>
<!-- Node3 -->
<g id="Node000003" class="node">
<title>Node3</title>
<g id="a_Node000003"><a xlink:title=" ">
<polygon fill="white" stroke="#666666" points="520.75,-510.88 384,-510.88 384,-491.62 520.75,-491.62 520.75,-510.88"/>
<text text-anchor="middle" x="452.38" y="-497.38" font-family="Helvetica,sans-Serif" font-size="10.00">std::vector&lt; TSourceTab * &gt;</text>
</a>
</g>
</g>
<!-- Node3&#45;&gt;Node2 -->
<g id="edge2_Node000002_Node000003" class="edge">
<title>Node3&#45;&gt;Node2</title>
<g id="a_edge2_Node000002_Node000003"><a xlink:title=" ">
<path fill="none" stroke="#9a32cd" stroke-dasharray="5,2" d="M532.24,-509.43C568.68,-513.21 610.16,-517.51 639.01,-520.5"/>
<polygon fill="#9a32cd" stroke="#9a32cd" points="532.93,-505.98 522.62,-508.43 532.2,-512.94 532.93,-505.98"/>
</a>
</g>
<text text-anchor="middle" x="567.62" y="-517" font-family="Helvetica,sans-Serif" font-size="10.00" fill="grey"> fSources</text>
</g>
<!-- Node4 -->
<g id="Node000004" class="node">
<title>Node4</title>
<g id="a_Node000004"><a xlink:href="class_t_source_calibration.html" target="_top" xlink:title=" ">
<polygon fill="white" stroke="#666666" points="501.62,-408.88 403.12,-408.88 403.12,-389.62 501.62,-389.62 501.62,-408.88"/>
<text text-anchor="middle" x="452.38" y="-395.38" font-family="Helvetica,sans-Serif" font-size="10.00">TSourceCalibration</text>
</a>
</g>
</g>
<!-- Node4&#45;&gt;Node2 -->
<g id="edge3_Node000002_Node000004" class="edge">
<title>Node4&#45;&gt;Node2</title>
<g id="a_edge3_Node000002_Node000004"><a xlink:title=" ">
<path fill="none" stroke="#9a32cd" stroke-dasharray="5,2" d="M481.07,-414.86C527.23,-440.88 618.67,-492.43 657.27,-514.18"/>
<polygon fill="#9a32cd" stroke="#9a32cd" points="482.9,-411.87 472.47,-410.01 479.46,-417.97 482.9,-411.87"/>
</a>
</g>
<text text-anchor="middle" x="567.62" y="-478" font-family="Helvetica,sans-Serif" font-size="10.00" fill="grey"> fParent</text>
</g>
<!-- Node5 -->
<g id="Node000005" class="node">
<title>Node5</title>
<g id="a_Node000005"><a xlink:title=" ">
<polygon fill="white" stroke="#666666" points="240.75,-461.88 162.5,-461.88 162.5,-442.62 240.75,-442.62 240.75,-461.88"/>
<text text-anchor="middle" x="201.62" y="-448.38" font-family="Helvetica,sans-Serif" font-size="10.00">TGMainFrame</text>
</a>
</g>
</g>
<!-- Node5&#45;&gt;Node4 -->
<g id="edge4_Node000004_Node000005" class="edge">
<title>Node5&#45;&gt;Node4</title>
<g id="a_edge4_Node000004_Node000005"><a xlink:title=" ">
<path fill="none" stroke="#63b8ff" d="M252.16,-444.76C284.68,-439.52 328.07,-431.93 366,-423.25 383.41,-419.27 402.57,-413.97 418.32,-409.36"/>
<polygon fill="#63b8ff" stroke="#63b8ff" points="251.95,-441.25 242.63,-446.27 253.05,-448.16 251.95,-441.25"/>
</a>
</g>
</g>
<!-- Node6 -->
<g id="Node000006" class="node">
<title>Node6</title>
<g id="a_Node000006"><a xlink:title=" ">
<polygon fill="white" stroke="#666666" points="272.25,-424.88 131,-424.88 131,-405.62 272.25,-405.62 272.25,-424.88"/>
<text text-anchor="middle" x="201.62" y="-411.38" font-family="Helvetica,sans-Serif" font-size="10.00">std::vector&lt; TChannelTab * &gt;</text>
</a>
</g>
</g>
<!-- Node6&#45;&gt;Node4 -->
<g id="edge5_Node000004_Node000006" class="edge">
<title>Node6&#45;&gt;Node4</title>
<g id="a_edge5_Node000004_Node000006"><a xlink:title=" ">
<path fill="none" stroke="#9a32cd" stroke-dasharray="5,2" d="M284,-410.02C323.26,-407.49 369.05,-404.55 402.8,-402.37"/>
<polygon fill="#9a32cd" stroke="#9a32cd" points="283.84,-406.52 274.09,-410.65 284.29,-413.5 283.84,-406.52"/>
</a>
</g>
<text text-anchor="middle" x="328.88" y="-410" font-family="Helvetica,sans-Serif" font-size="10.00" fill="grey"> fChannelTab</text>
</g>
<!-- Node7 -->
<g id="Node000007" class="node">
<title>Node7</title>
<g id="a_Node000007"><a xlink:title=" ">
<polygon fill="white" stroke="#666666" points="262.12,-387.88 141.12,-387.88 141.12,-368.62 262.12,-368.62 262.12,-387.88"/>
<text text-anchor="middle" x="201.62" y="-374.38" font-family="Helvetica,sans-Serif" font-size="10.00">std::vector&lt; TGLabel * &gt;</text>
</a>
</g>
</g>
<!-- Node7&#45;&gt;Node4 -->
<g id="edge6_Node000004_Node000007" class="edge">
<title>Node7&#45;&gt;Node4</title>
<g id="a_edge6_Node000004_Node000007"><a xlink:title=" ">
<path fill="none" stroke="#9a32cd" stroke-dasharray="5,2" d="M273.6,-382.09C302.32,-383.86 335.77,-386.19 366,-389 377.89,-390.1 390.69,-391.52 402.66,-392.94"/>
<polygon fill="#9a32cd" stroke="#9a32cd" points="274.14,-378.61 263.95,-381.5 273.72,-385.6 274.14,-378.61"/>
</a>
</g>
<text text-anchor="middle" x="328.88" y="-390" font-family="Helvetica,sans-Serif" font-size="10.00" fill="grey"> fMatrixNames</text>
</g>
<!-- Node8 -->
<g id="Node000008" class="node">
<title>Node8</title>
<g id="a_Node000008"><a xlink:title=" ">
<polygon fill="white" stroke="#666666" points="273.75,-350.88 129.5,-350.88 129.5,-331.62 273.75,-331.62 273.75,-350.88"/>
<text text-anchor="middle" x="201.62" y="-337.38" font-family="Helvetica,sans-Serif" font-size="10.00">std::vector&lt; TGComboBox * &gt;</text>
</a>
</g>
</g>
<!-- Node8&#45;&gt;Node4 -->
<g id="edge7_Node000004_Node000008" class="edge">
<title>Node8&#45;&gt;Node4</title>
<g id="a_edge7_Node000004_Node000008"><a xlink:title=" ">
<path fill="none" stroke="#9a32cd" stroke-dasharray="5,2" d="M285.36,-351.7C311.39,-355.81 340.09,-361.2 366,-368 387.37,-373.61 410.9,-382.43 427.84,-389.27"/>
<polygon fill="#9a32cd" stroke="#9a32cd" points="285.92,-348.24 275.5,-350.18 284.85,-355.16 285.92,-348.24"/>
</a>
</g>
<text text-anchor="middle" x="328.88" y="-369" font-family="Helvetica,sans-Serif" font-size="10.00" fill="grey"> fSourceBox</text>
</g>
<!-- Node9 -->
<g id="Node000009" class="node">
<title>Node9</title>
<g id="a_Node000009"><a xlink:title=" ">
<polygon fill="white" stroke="#666666" points="264.38,-219.88 138.88,-219.88 138.88,-200.62 264.38,-200.62 264.38,-219.88"/>
<text text-anchor="middle" x="201.62" y="-206.38" font-family="Helvetica,sans-Serif" font-size="10.00">std::vector&lt; TNucleus * &gt;</text>
</a>
</g>
</g>
<!-- Node9&#45;&gt;Node2 -->
<g id="edge13_Node000002_Node000009" class="edge">
<title>Node9&#45;&gt;Node2</title>
<g id="a_edge13_Node000002_Node000009"><a xlink:title=" ">
<path fill="none" stroke="#9a32cd" stroke-dasharray="5,2" d="M276.04,-201.16C305.1,-200.41 338.16,-203.27 366,-215.25 522.48,-282.59 642.24,-469.46 669.34,-514.42"/>
<polygon fill="#9a32cd" stroke="#9a32cd" points="276.05,-197.65 266.21,-201.57 276.34,-204.65 276.05,-197.65"/>
</a>
</g>
<text text-anchor="middle" x="452.38" y="-322" font-family="Helvetica,sans-Serif" font-size="10.00" fill="grey"> fNuclei</text>
</g>
<!-- Node9&#45;&gt;Node4 -->
<g id="edge8_Node000004_Node000009" class="edge">
<title>Node9&#45;&gt;Node4</title>
<g id="a_edge8_Node000004_Node000009"><a xlink:title=" ">
<path fill="none" stroke="#9a32cd" stroke-dasharray="5,2" d="M275.67,-215.33C306.02,-220.48 340.13,-230.54 366,-250 415.62,-287.33 440.97,-362.53 448.73,-389.41"/>
<polygon fill="#9a32cd" stroke="#9a32cd" points="276.58,-211.93 266.17,-213.88 275.52,-218.85 276.58,-211.93"/>
</a>
</g>
<text text-anchor="middle" x="328.88" y="-251" font-family="Helvetica,sans-Serif" font-size="10.00" fill="grey"> fSource</text>
</g>
<!-- Node10 -->
<g id="Node000010" class="node">
<title>Node10</title>
<g id="a_Node000010"><a xlink:title=" ">
<polygon fill="white" stroke="#666666" points="270,-559.12 133.25,-559.12 133.25,-517.38 270,-517.38 270,-559.12"/>
<text text-anchor="start" x="141.25" y="-545.62" font-family="Helvetica,sans-Serif" font-size="10.00">std::vector&lt; std::vector</text>
<text text-anchor="start" x="141.25" y="-534.38" font-family="Helvetica,sans-Serif" font-size="10.00">&lt; std::tuple&lt; double, double,</text>
<text text-anchor="middle" x="201.62" y="-523.12" font-family="Helvetica,sans-Serif" font-size="10.00"> double, double &gt; &gt; &gt;</text>
</a>
</g>
</g>
<!-- Node10&#45;&gt;Node2 -->
<g id="edge17_Node000002_Node000010" class="edge">
<title>Node10&#45;&gt;Node2</title>
<g id="a_edge17_Node000002_Node000010"><a xlink:title=" ">
<path fill="none" stroke="#9a32cd" stroke-dasharray="5,2" d="M281.66,-537.94C361.22,-537.32 487.44,-535.51 596.5,-530.25 610.45,-529.58 625.76,-528.49 639.14,-527.42"/>
<polygon fill="#9a32cd" stroke="#9a32cd" points="281.76,-534.44 271.78,-538.01 281.81,-541.44 281.76,-534.44"/>
</a>
</g>
<text text-anchor="middle" x="452.38" y="-538" font-family="Helvetica,sans-Serif" font-size="10.00" fill="grey"> fSourceEnergies</text>
</g>
<!-- Node10&#45;&gt;Node4 -->
<g id="edge9_Node000004_Node000010" class="edge">
<title>Node10&#45;&gt;Node4</title>
<g id="a_edge9_Node000004_Node000010"><a xlink:title=" ">
<path fill="none" stroke="#9a32cd" stroke-dasharray="5,2" d="M281.21,-517.71C309.14,-508.54 340.06,-496.16 366,-480.25 398.74,-460.17 429.44,-425.9 443.43,-409.11"/>
<polygon fill="#9a32cd" stroke="#9a32cd" points="280.17,-514.37 271.7,-520.73 282.29,-521.04 280.17,-514.37"/>
</a>
</g>
<text text-anchor="middle" x="328.88" y="-515" font-family="Helvetica,sans-Serif" font-size="10.00" fill="grey"> fSourceEnergy</text>
</g>
<!-- Node11 -->
<g id="Node000011" class="node">
<title>Node11</title>
<g id="a_Node000011"><a xlink:title=" ">
<polygon fill="white" stroke="#666666" points="245.62,-312.88 157.62,-312.88 157.62,-293.62 245.62,-293.62 245.62,-312.88"/>
<text text-anchor="middle" x="201.62" y="-299.38" font-family="Helvetica,sans-Serif" font-size="10.00">std::vector&lt; int &gt;</text>
</a>
</g>
</g>
<!-- Node11&#45;&gt;Node4 -->
<g id="edge10_Node000004_Node000011" class="edge">
<title>Node11&#45;&gt;Node4</title>
<g id="a_edge10_Node000004_Node000011"><a xlink:title=" ">
<path fill="none" stroke="#9a32cd" stroke-dasharray="5,2" d="M257.29,-303.09C290.09,-304.83 331.92,-310.37 366,-325.75 399.34,-340.79 429.53,-373.08 443.38,-389.39"/>
<polygon fill="#9a32cd" stroke="#9a32cd" points="257.74,-299.6 247.6,-302.68 257.45,-306.6 257.74,-299.6"/>
</a>
</g>
<text text-anchor="middle" x="328.88" y="-338.25" font-family="Helvetica,sans-Serif" font-size="10.00" fill="grey"> fActiveBins</text>
<text text-anchor="middle" x="328.88" y="-327" font-family="Helvetica,sans-Serif" font-size="10.00" fill="grey">fActualChannelId</text>
</g>
<!-- Node12 -->
<g id="Node000012" class="node">
<title>Node12</title>
<g id="a_Node000012"><a xlink:title=" ">
<polygon fill="white" stroke="#666666" points="248.25,-275.5 155,-275.5 155,-245 248.25,-245 248.25,-275.5"/>
<text text-anchor="start" x="163" y="-262" font-family="Helvetica,sans-Serif" font-size="10.00">std::vector&lt; const</text>
<text text-anchor="middle" x="201.62" y="-250.75" font-family="Helvetica,sans-Serif" font-size="10.00"> char * &gt;</text>
</a>
</g>
</g>
<!-- Node12&#45;&gt;Node4 -->
<g id="edge11_Node000004_Node000012" class="edge">
<title>Node12&#45;&gt;Node4</title>
<g id="a_edge11_Node000004_Node000012"><a xlink:title=" ">
<path fill="none" stroke="#9a32cd" stroke-dasharray="5,2" d="M259.99,-261.22C293.04,-264.08 334.2,-271.74 366,-291 406.74,-315.67 435.73,-367.4 446.62,-389.21"/>
<polygon fill="#9a32cd" stroke="#9a32cd" points="260.4,-257.74 250.17,-260.5 259.89,-264.72 260.4,-257.74"/>
</a>
</g>
<text text-anchor="middle" x="328.88" y="-292" font-family="Helvetica,sans-Serif" font-size="10.00" fill="grey"> fChannelLabel</text>
</g>
<!-- Node13 -->
<g id="Node000013" class="node">
<title>Node13</title>
<g id="a_Node000013"><a xlink:title=" ">
<polygon fill="white" stroke="#666666" points="252.75,-498.88 150.5,-498.88 150.5,-479.62 252.75,-479.62 252.75,-498.88"/>
<text text-anchor="middle" x="201.62" y="-485.38" font-family="Helvetica,sans-Serif" font-size="10.00">std::vector&lt; TH2 * &gt;</text>
</a>
</g>
</g>
<!-- Node13&#45;&gt;Node4 -->
<g id="edge12_Node000004_Node000013" class="edge">
<title>Node13&#45;&gt;Node4</title>
<g id="a_edge12_Node000004_Node000013"><a xlink:title=" ">
<path fill="none" stroke="#9a32cd" stroke-dasharray="5,2" d="M254.5,-476.36C260.99,-474.68 267.53,-472.95 273.75,-471.25 314.96,-460.01 326.41,-460.29 366,-444.25 390.85,-434.18 417.98,-419.12 434.84,-409.24"/>
<polygon fill="#9a32cd" stroke="#9a32cd" points="253.97,-472.88 245.15,-478.76 255.71,-479.66 253.97,-472.88"/>
</a>
</g>
<text text-anchor="middle" x="328.88" y="-467" font-family="Helvetica,sans-Serif" font-size="10.00" fill="grey"> fMatrices</text>
</g>
<!-- Node14 -->
<g id="Node000014" class="node">
<title>Node14</title>
<g id="a_Node000014"><a xlink:title=" ">
<polygon fill="white" stroke="#666666" points="507.62,-696.88 397.12,-696.88 397.12,-677.62 507.62,-677.62 507.62,-696.88"/>
<text text-anchor="middle" x="452.38" y="-683.38" font-family="Helvetica,sans-Serif" font-size="10.00">std::vector&lt; GH1D * &gt;</text>
</a>
</g>
</g>
<!-- Node14&#45;&gt;Node2 -->
<g id="edge14_Node000002_Node000014" class="edge">
<title>Node14&#45;&gt;Node2</title>
<g id="a_edge14_Node000002_Node000014"><a xlink:title=" ">
<path fill="none" stroke="#9a32cd" stroke-dasharray="5,2" d="M508.73,-673.74C512.84,-672.35 516.89,-670.85 520.75,-669.25 556.71,-654.32 567.17,-650.86 596.5,-625.25 628.97,-596.9 657.38,-553.51 669.24,-534.16"/>
<polygon fill="#9a32cd" stroke="#9a32cd" points="507.72,-670.39 499.23,-676.73 509.82,-677.07 507.72,-670.39"/>
</a>
</g>
<text text-anchor="middle" x="567.62" y="-663" font-family="Helvetica,sans-Serif" font-size="10.00" fill="grey"> fProjections</text>
</g>
<!-- Node15 -->
<g id="Node000015" class="node">
<title>Node15</title>
<g id="a_Node000015"><a xlink:title=" ">
<polygon fill="white" stroke="#666666" points="230.62,-801.88 172.62,-801.88 172.62,-782.62 230.62,-782.62 230.62,-801.88"/>
<text text-anchor="middle" x="201.62" y="-788.38" font-family="Helvetica,sans-Serif" font-size="10.00">std::string</text>
</a>
</g>
</g>
<!-- Node15&#45;&gt;Node2 -->
<g id="edge15_Node000002_Node000015" class="edge">
<title>Node15&#45;&gt;Node2</title>
<g id="a_edge15_Node000002_Node000015"><a xlink:title=" ">
<path fill="none" stroke="#9a32cd" stroke-dasharray="5,2" d="M242,-796.26C275.47,-798.55 324.56,-799.26 366,-789.25 476.9,-762.45 514.96,-756.05 596.5,-676.25 640.45,-633.23 664.73,-560.4 672.42,-534.1"/>
<polygon fill="#9a32cd" stroke="#9a32cd" points="242.59,-792.8 232.35,-795.51 242.06,-799.78 242.59,-792.8"/>
</a>
</g>
<text text-anchor="middle" x="452.38" y="-785" font-family="Helvetica,sans-Serif" font-size="10.00" fill="grey"> fName</text>
</g>
<!-- Node17 -->
<g id="Node000017" class="node">
<title>Node17</title>
<g id="a_Node000017"><a xlink:href="class_t_calibration_graph_set.html" target="_top" xlink:title=" ">
<polygon fill="white" stroke="#666666" points="506.88,-659.88 397.88,-659.88 397.88,-640.62 506.88,-640.62 506.88,-659.88"/>
<text text-anchor="middle" x="452.38" y="-646.38" font-family="Helvetica,sans-Serif" font-size="10.00">TCalibrationGraphSet</text>
</a>
</g>
</g>
<!-- Node15&#45;&gt;Node17 -->
<g id="edge24_Node000017_Node000015" class="edge">
<title>Node15&#45;&gt;Node17</title>
<g id="a_edge24_Node000017_Node000015"><a xlink:title=" ">
<path fill="none" stroke="#9a32cd" stroke-dasharray="5,2" d="M241.82,-780.82C288.74,-766.98 361.6,-744.94 366,-740.25 388.58,-716.2 360.86,-691.76 384,-668.25 387.91,-664.28 392.58,-661.16 397.63,-658.7"/>
<polygon fill="#9a32cd" stroke="#9a32cd" points="240.85,-777.45 232.25,-783.63 242.83,-784.17 240.85,-777.45"/>
</a>
</g>
<text text-anchor="middle" x="328.88" y="-777.25" font-family="Helvetica,sans-Serif" font-size="10.00" fill="grey"> fXAxisLabel</text>
<text text-anchor="middle" x="328.88" y="-766" font-family="Helvetica,sans-Serif" font-size="10.00" fill="grey">fYAxisLabel</text>
</g>
<!-- Node16 -->
<g id="Node000016" class="node">
<title>Node16</title>
<g id="a_Node000016"><a xlink:title=" ">
<polygon fill="white" stroke="#666666" points="92.5,-807.5 0,-807.5 0,-777 92.5,-777 92.5,-807.5"/>
<text text-anchor="start" x="8" y="-794" font-family="Helvetica,sans-Serif" font-size="10.00">std::basic_string&lt;</text>
<text text-anchor="middle" x="46.25" y="-782.75" font-family="Helvetica,sans-Serif" font-size="10.00"> Char &gt;</text>
</a>
</g>
</g>
<!-- Node16&#45;&gt;Node15 -->
<g id="edge16_Node000015_Node000016" class="edge">
<title>Node16&#45;&gt;Node15</title>
<g id="a_edge16_Node000015_Node000016"><a xlink:title=" ">
<path fill="none" stroke="#63b8ff" d="M104.34,-792.25C127.53,-792.25 153.28,-792.25 172.31,-792.25"/>
<polygon fill="#63b8ff" stroke="#63b8ff" points="104.37,-788.75 94.37,-792.25 104.37,-795.75 104.37,-788.75"/>
</a>
</g>
</g>
<!-- Node17&#45;&gt;Node2 -->
<g id="edge18_Node000002_Node000017" class="edge">
<title>Node17&#45;&gt;Node2</title>
<g id="a_edge18_Node000002_Node000017"><a xlink:title=" ">
<path fill="none" stroke="#9a32cd" stroke-dasharray="5,2" d="M481.09,-634.5C527.39,-608.19 619.17,-556.05 657.58,-534.22"/>
<polygon fill="#9a32cd" stroke="#9a32cd" points="479.43,-631.42 472.46,-639.4 482.89,-637.51 479.43,-631.42"/>
</a>
</g>
<text text-anchor="middle" x="567.62" y="-611.25" font-family="Helvetica,sans-Serif" font-size="10.00" fill="grey"> fData</text>
<text text-anchor="middle" x="567.62" y="-600" font-family="Helvetica,sans-Serif" font-size="10.00" fill="grey">fFwhm</text>
</g>
<!-- Node18 -->
<g id="Node000018" class="node">
<title>Node18</title>
<g id="a_Node000018"><a xlink:title=" ">
<polygon fill="white" stroke="#666666" points="228.38,-756.88 174.88,-756.88 174.88,-737.62 228.38,-737.62 228.38,-756.88"/>
<text text-anchor="middle" x="201.62" y="-743.38" font-family="Helvetica,sans-Serif" font-size="10.00">TNamed</text>
</a>
</g>
</g>
<!-- Node18&#45;&gt;Node17 -->
<g id="edge19_Node000017_Node000018" class="edge">
<title>Node18&#45;&gt;Node17</title>
<g id="a_edge19_Node000017_Node000018"><a xlink:title=" ">
<path fill="none" stroke="#63b8ff" d="M239.77,-748.41C275.93,-747.59 330.49,-740.89 366,-711.25 381.9,-697.97 368.39,-681.88 384,-668.25 388.01,-664.75 392.64,-661.92 397.54,-659.63"/>
<polygon fill="#63b8ff" stroke="#63b8ff" points="240.21,-744.91 230.23,-748.48 240.26,-751.91 240.21,-744.91"/>
</a>
</g>
</g>
<!-- Node19 -->
<g id="Node000019" class="node">
<title>Node19</title>
<g id="a_Node000019"><a xlink:title=" ">
<polygon fill="white" stroke="#666666" points="230.62,-719.88 172.62,-719.88 172.62,-700.62 230.62,-700.62 230.62,-719.88"/>
<text text-anchor="middle" x="201.62" y="-706.38" font-family="Helvetica,sans-Serif" font-size="10.00">TQObject</text>
</a>
</g>
</g>
<!-- Node19&#45;&gt;Node17 -->
<g id="edge20_Node000017_Node000019" class="edge">
<title>Node19&#45;&gt;Node17</title>
<g id="a_edge20_Node000017_Node000019"><a xlink:title=" ">
<path fill="none" stroke="#63b8ff" d="M242.4,-711.83C276.92,-711.58 327.29,-707.21 366,-687.25 376.34,-681.92 374,-674.2 384,-668.25 389.31,-665.09 395.17,-662.48 401.16,-660.32"/>
<polygon fill="#63b8ff" stroke="#63b8ff" points="242.43,-708.33 232.41,-711.77 242.39,-715.33 242.43,-708.33"/>
</a>
</g>
</g>
<!-- Node20 -->
<g id="Node000020" class="node">
<title>Node20</title>
<g id="a_Node000020"><a xlink:title=" ">
<polygon fill="white" stroke="#666666" points="262.12,-682.5 141.12,-682.5 141.12,-652 262.12,-652 262.12,-682.5"/>
<text text-anchor="start" x="149.12" y="-669" font-family="Helvetica,sans-Serif" font-size="10.00">std::vector&lt; TCalibration</text>
<text text-anchor="middle" x="201.62" y="-657.75" font-family="Helvetica,sans-Serif" font-size="10.00">Graph &gt;</text>
</a>
</g>
</g>
<!-- Node20&#45;&gt;Node17 -->
<g id="edge21_Node000017_Node000020" class="edge">
<title>Node20&#45;&gt;Node17</title>
<g id="a_edge21_Node000017_Node000020"><a xlink:title=" ">
<path fill="none" stroke="#9a32cd" stroke-dasharray="5,2" d="M273.9,-662.38C313.25,-659.69 361.32,-656.4 397.5,-653.93"/>
<polygon fill="#9a32cd" stroke="#9a32cd" points="273.77,-658.88 264.03,-663.05 274.25,-665.86 273.77,-658.88"/>
</a>
</g>
<text text-anchor="middle" x="328.88" y="-673.25" font-family="Helvetica,sans-Serif" font-size="10.00" fill="grey"> fGraphs</text>
<text text-anchor="middle" x="328.88" y="-662" font-family="Helvetica,sans-Serif" font-size="10.00" fill="grey">fResidualGraphs</text>
</g>
<!-- Node21 -->
<g id="Node000021" class="node">
<title>Node21</title>
<g id="a_Node000021"><a xlink:title=" ">
<polygon fill="white" stroke="#666666" points="261.38,-633.88 141.88,-633.88 141.88,-614.62 261.38,-614.62 261.38,-633.88"/>
<text text-anchor="middle" x="201.62" y="-620.38" font-family="Helvetica,sans-Serif" font-size="10.00">std::vector&lt; std::string &gt;</text>
</a>
</g>
</g>
<!-- Node21&#45;&gt;Node17 -->
<g id="edge22_Node000017_Node000021" class="edge">
<title>Node21&#45;&gt;Node17</title>
<g id="a_edge22_Node000017_Node000021"><a xlink:title=" ">
<path fill="none" stroke="#9a32cd" stroke-dasharray="5,2" d="M272.86,-630.66C301.73,-633.39 335.49,-636.7 366,-640 376.24,-641.11 387.16,-642.36 397.66,-643.61"/>
<polygon fill="#9a32cd" stroke="#9a32cd" points="273.43,-627.2 263.15,-629.75 272.78,-634.17 273.43,-627.2"/>
</a>
</g>
<text text-anchor="middle" x="328.88" y="-641" font-family="Helvetica,sans-Serif" font-size="10.00" fill="grey"> fLabel</text>
</g>
<!-- Node22 -->
<g id="Node000022" class="node">
<title>Node22</title>
<g id="a_Node000022"><a xlink:title=" ">
<polygon fill="white" stroke="#666666" points="253.12,-596.88 150.12,-596.88 150.12,-577.62 253.12,-577.62 253.12,-596.88"/>
<text text-anchor="middle" x="201.62" y="-583.38" font-family="Helvetica,sans-Serif" font-size="10.00">std::vector&lt; size_t &gt;</text>
</a>
</g>
</g>
<!-- Node22&#45;&gt;Node17 -->
<g id="edge23_Node000017_Node000022" class="edge">
<title>Node22&#45;&gt;Node17</title>
<g id="a_edge23_Node000017_Node000022"><a xlink:title=" ">
<path fill="none" stroke="#9a32cd" stroke-dasharray="5,2" d="M264.39,-588.9C295.43,-591.06 333.3,-595.76 366,-605.75 392.21,-613.76 419.88,-629.77 436.38,-640.24"/>
<polygon fill="#9a32cd" stroke="#9a32cd" points="264.99,-585.43 254.79,-588.31 264.56,-592.42 264.99,-585.43"/>
</a>
</g>
<text text-anchor="middle" x="328.88" y="-618.25" font-family="Helvetica,sans-Serif" font-size="10.00" fill="grey"> fGraphIndex</text>
<text text-anchor="middle" x="328.88" y="-607" font-family="Helvetica,sans-Serif" font-size="10.00" fill="grey">fPointIndex</text>
</g>
<!-- Node23 -->
<g id="Node000023" class="node">
<title>Node23</title>
<g id="a_Node000023"><a xlink:href="class_g_h1_d.html" target="_top" xlink:title=" ">
<polygon fill="white" stroke="#666666" points="697.62,-164.88 654.62,-164.88 654.62,-145.62 697.62,-145.62 697.62,-164.88"/>
<text text-anchor="middle" x="676.12" y="-151.38" font-family="Helvetica,sans-Serif" font-size="10.00">GH1D</text>
</a>
</g>
</g>
<!-- Node23&#45;&gt;Node1 -->
<g id="edge25_Node000001_Node000023" class="edge">
<title>Node23&#45;&gt;Node1</title>
<g id="a_edge25_Node000001_Node000023"><a xlink:title=" ">
<path fill="none" stroke="#9a32cd" stroke-dasharray="5,2" d="M708.87,-150.71C738.12,-146.35 782.66,-139.26 821,-131.25 826.7,-130.06 832.72,-128.67 838.56,-127.24"/>
<polygon fill="#9a32cd" stroke="#9a32cd" points="708.59,-147.22 699.21,-152.13 709.61,-154.14 708.59,-147.22"/>
</a>
</g>
<text text-anchor="middle" x="788.38" y="-144" font-family="Helvetica,sans-Serif" font-size="10.00" fill="grey"> fProjection</text>
</g>
<!-- Node24 -->
<g id="Node000024" class="node">
<title>Node24</title>
<g id="a_Node000024"><a xlink:title=" ">
<polygon fill="white" stroke="#666666" points="473.12,-164.88 431.62,-164.88 431.62,-145.62 473.12,-145.62 473.12,-164.88"/>
<text text-anchor="middle" x="452.38" y="-151.38" font-family="Helvetica,sans-Serif" font-size="10.00">TH1D</text>
</a>
</g>
</g>
<!-- Node24&#45;&gt;Node23 -->
<g id="edge26_Node000023_Node000024" class="edge">
<title>Node24&#45;&gt;Node23</title>
<g id="a_edge26_Node000023_Node000024"><a xlink:title=" ">
<path fill="none" stroke="#63b8ff" d="M484.8,-155.25C530.8,-155.25 615.24,-155.25 654.3,-155.25"/>
<polygon fill="#63b8ff" stroke="#63b8ff" points="484.96,-151.75 474.96,-155.25 484.96,-158.75 484.96,-151.75"/>
</a>
</g>
</g>
<!-- Node25 -->
<g id="Node000025" class="node">
<title>Node25</title>
<g id="a_Node000025"><a xlink:title=" ">
<polygon fill="white" stroke="#666666" points="498.62,-127.88 406.12,-127.88 406.12,-108.62 498.62,-108.62 498.62,-127.88"/>
<text text-anchor="middle" x="452.38" y="-114.38" font-family="Helvetica,sans-Serif" font-size="10.00">std::array&lt; int, 3 &gt;</text>
</a>
</g>
</g>
<!-- Node25&#45;&gt;Node23 -->
<g id="edge27_Node000023_Node000025" class="edge">
<title>Node25&#45;&gt;Node23</title>
<g id="a_edge27_Node000023_Node000025"><a xlink:title=" ">
<path fill="none" stroke="#9a32cd" stroke-dasharray="5,2" d="M510.19,-126.34C536.49,-130.23 568.13,-135.1 596.5,-140 616.09,-143.39 638.33,-147.75 654.14,-150.94"/>
<polygon fill="#9a32cd" stroke="#9a32cd" points="510.79,-122.89 500.39,-124.9 509.78,-129.82 510.79,-122.89"/>
</a>
</g>
<text text-anchor="middle" x="567.62" y="-141" font-family="Helvetica,sans-Serif" font-size="10.00" fill="grey"> fRegionColor</text>
</g>
<!-- Node26 -->
<g id="Node000026" class="node">
<title>Node26</title>
<g id="a_Node000026"><a xlink:title=" ">
<polygon fill="white" stroke="#666666" points="732.88,-127.88 619.38,-127.88 619.38,-108.62 732.88,-108.62 732.88,-127.88"/>
<text text-anchor="middle" x="676.12" y="-114.38" font-family="Helvetica,sans-Serif" font-size="10.00">std::vector&lt; GPeak * &gt;</text>
</a>
</g>
</g>
<!-- Node26&#45;&gt;Node1 -->
<g id="edge28_Node000001_Node000026" class="edge">
<title>Node26&#45;&gt;Node1</title>
<g id="a_edge28_Node000001_Node000026"><a xlink:title=" ">
<path fill="none" stroke="#9a32cd" stroke-dasharray="5,2" d="M744.6,-118.25C776.34,-118.25 812.8,-118.25 838.68,-118.25"/>
<polygon fill="#9a32cd" stroke="#9a32cd" points="744.66,-114.75 734.66,-118.25 744.66,-121.75 744.66,-114.75"/>
</a>
</g>
<text text-anchor="middle" x="788.38" y="-120" font-family="Helvetica,sans-Serif" font-size="10.00" fill="grey"> fPeaks</text>
</g>
<!-- Node27 -->
<g id="Node000027" class="node">
<title>Node27</title>
<g id="a_Node000027"><a xlink:title=" ">
<polygon fill="white" stroke="#666666" points="737.75,-90.12 614.5,-90.12 614.5,-48.38 737.75,-48.38 737.75,-90.12"/>
<text text-anchor="start" x="622.5" y="-76.62" font-family="Helvetica,sans-Serif" font-size="10.00">std::vector&lt; std::tuple</text>
<text text-anchor="start" x="622.5" y="-65.38" font-family="Helvetica,sans-Serif" font-size="10.00">&lt; double, double, double,</text>
<text text-anchor="middle" x="676.12" y="-54.12" font-family="Helvetica,sans-Serif" font-size="10.00"> double &gt; &gt;</text>
</a>
</g>
</g>
<!-- Node27&#45;&gt;Node1 -->
<g id="edge29_Node000001_Node000027" class="edge">
<title>Node27&#45;&gt;Node1</title>
<g id="a_edge29_Node000001_Node000027"><a xlink:title=" ">
<path fill="none" stroke="#9a32cd" stroke-dasharray="5,2" d="M749.28,-85.33C772.27,-90.68 797.77,-96.85 821,-103 826.96,-104.58 833.28,-106.36 839.38,-108.13"/>
<polygon fill="#9a32cd" stroke="#9a32cd" points="750.23,-81.96 739.7,-83.12 748.65,-88.78 750.23,-81.96"/>
</a>
</g>
<text text-anchor="middle" x="788.38" y="-104" font-family="Helvetica,sans-Serif" font-size="10.00" fill="grey"> fSourceEnergy</text>
</g>
<!-- Node28 -->
<g id="Node000028" class="node">
<title>Node28</title>
<g id="a_Node000028"><a xlink:title=" ">
<polygon fill="white" stroke="#666666" points="727.62,-30.5 624.62,-30.5 624.62,0 727.62,0 727.62,-30.5"/>
<text text-anchor="start" x="632.62" y="-17" font-family="Helvetica,sans-Serif" font-size="10.00">std::vector&lt; std::pair</text>
<text text-anchor="middle" x="676.12" y="-5.75" font-family="Helvetica,sans-Serif" font-size="10.00">&lt; double, double &gt; &gt;</text>
</a>
</g>
</g>
<!-- Node28&#45;&gt;Node1 -->
<g id="edge30_Node000001_Node000028" class="edge">
<title>Node28&#45;&gt;Node1</title>
<g id="a_edge30_Node000001_Node000028"><a xlink:title=" ">
<path fill="none" stroke="#9a32cd" stroke-dasharray="5,2" d="M738.46,-34.02C764.88,-43.45 795.5,-56.25 821,-72 837.59,-82.24 853.85,-98.04 863.56,-108.26"/>
<polygon fill="#9a32cd" stroke="#9a32cd" points="739.83,-30.79 729.23,-30.81 737.53,-37.4 739.83,-30.79"/>
</a>
</g>
<text text-anchor="middle" x="788.38" y="-73" font-family="Helvetica,sans-Serif" font-size="10.00" fill="grey"> fRegions</text>
</g>
</g>
</svg>

<g id="navigator" transform="translate(0 0)" fill="#404254">
  <rect fill="#f2f5e9" fill-opacity="0.5" stroke="#606060" stroke-width=".5" x="0" y="0" width="60" height="60"/>
  <use id="zoomplus" xlink:href="#zoomPlus" x="17" y="9" onmousedown="handleZoom(evt,'in')"/>
  <use id="zoomminus" xlink:href="#zoomMin" x="42" y="9" onmousedown="handleZoom(evt,'out')"/>
  <use id="reset" xlink:href="#resetDef" x="30" y="36" onmousedown="handleReset()"/>
   <use id="arrowup" xlink:href="#arrowUp" x="0" y="0" onmousedown="handlePan(0,-1)"/>
  <use id="arrowright" xlink:href="#arrowRight" x="0" y="0" onmousedown="handlePan(1,0)"/>
  <use id="arrowdown" xlink:href="#arrowDown" x="0" y="0" onmousedown="handlePan(0,1)"/>
  <use id="arrowleft" xlink:href="#arrowLeft" x="0" y="0" onmousedown="handlePan(-1,0)"/>
</g>
<svg viewBox="0 0 15 15" width="100%" height="30px" preserveAspectRatio="xMaxYMin meet">
 <g id="arrow_out" transform="scale(0.3 0.3)">
  <a xlink:href="class_t_source_tab__coll__graph_org.svg" target="_base">
   <rect id="button" ry="5" rx="5" y="6" x="6" height="38" width="38"
        fill="#f2f5e9" fill-opacity="0.5" stroke="#606060" stroke-width="1.0"/>
   <path id="arrow"
     d="M 11.500037,31.436501 C 11.940474,20.09759 22.043105,11.32322 32.158766,21.979434 L 37.068811,17.246167 C 37.068811,17.246167 37.088388,32 37.088388,32 L 22.160133,31.978069 C 22.160133,31.978069 26.997745,27.140456 26.997745,27.140456 C 18.528582,18.264221 13.291696,25.230495 11.500037,31.436501 z"
     style="fill:#404040;"/>
  </a>
 </g>
</svg>

<style type='text/css'>
<![CDATA[
[data-mouse-over-selected='false'] { opacity: 0.7; }
[data-mouse-over-selected='true']  { opacity: 1.0; }
]]>
</style>
<script type="application/ecmascript"><![CDATA[
document.addEventListener('DOMContentLoaded', (event) => {
  highlightEdges();
  highlightAdjacentNodes();
});
]]></script>
</svg>
