<?xml version="1.0" encoding="UTF-8" standalone="no"?>
<!DOCTYPE svg PUBLIC "-//W3C//DTD SVG 1.1//EN"
 "http://www.w3.org/Graphics/SVG/1.1/DTD/svg11.dtd">
<!-- Generated by graphviz version 9.0.0 (20230911.1827)
 -->
<!-- Title: TChannelTab Pages: 1 -->
<!--zoomable 709 -->

<svg id="main" version="1.1" xmlns="http://www.w3.org/2000/svg" xmlns:xlink="http://www.w3.org/1999/xlink" xml:space="preserve" onload="init(evt)">
<style type="text/css"><![CDATA[
.node, .edge {opacity: 0.7;}
.node.selected, .edge.selected {opacity: 1;}
.edge:hover path { stroke: red; }
.edge:hover polygon { stroke: red; fill: red; }
]]></style>

<defs>
  <circle id="rim" cx="0" cy="0" r="7"/>
  <circle id="rim2" cx="0" cy="0" r="3.5"/>
  <g id="zoomPlus">
    <use xlink:href="#rim" fill="#404040"><set attributeName="fill" to="#808080" begin="zoomplus.mouseover" end="zoomplus.mouseout"/></use>
    <path d="M-4,0h8M0,-4v8" fill="none" stroke="white" stroke-width="1.5" pointer-events="none"/>
  </g>
  <g id="zoomMin">
    <use xlink:href="#rim" fill="#404040"><set attributeName="fill" to="#808080" begin="zoomminus.mouseover" end="zoomminus.mouseout"/></use>
    <path d="M-4,0h8" fill="none" stroke="white" stroke-width="1.5" pointer-events="none"/>
  </g>
  <g id="arrowUp" transform="translate(30 24)">
    <use xlink:href="#rim"/>
    <path pointer-events="none" fill="none" stroke="white" stroke-width="1.5" d="M0,-3.0v7 M-2.5,-0.5L0,-3.0L2.5,-0.5"/>
  </g>
  <g id="arrowRight" transform="rotate(90) translate(36 -43)">
    <use xlink:href="#rim"/>
    <path pointer-events="none" fill="none" stroke="white" stroke-width="1.5" d="M0,-3.0v7 M-2.5,-0.5L0,-3.0L2.5,-0.5"/>
  </g>
  <g id="arrowDown" transform="rotate(180) translate(-30 -48)">
    <use xlink:href="#rim"/>
    <path pointer-events="none" fill="none" stroke="white" stroke-width="1.5" d="M0,-3.0v7 M-2.5,-0.5L0,-3.0L2.5,-0.5"/>
  </g>
  <g id="arrowLeft" transform="rotate(270) translate(-36 17)">
    <use xlink:href="#rim"/>
    <path pointer-events="none" fill="none" stroke="white" stroke-width="1.5" d="M0,-3.0v7 M-2.5,-0.5L0,-3.0L2.5,-0.5"/>
  </g>
  <g id="resetDef">
    <use xlink:href="#rim2" fill="#404040"><set attributeName="fill" to="#808080" begin="reset.mouseover" end="reset.mouseout"/></use>
  </g>
</defs>
<script type="application/ecmascript">
var viewWidth = 693;
var viewHeight = 709;
var sectionId = 'dynsection-0';
</script>
<script type="application/ecmascript" xlink:href="svg.min.js"/>
<svg id="graph" class="graph">
<g id="viewport">
<title>TChannelTab</title>
<!-- Node1 -->
<g id="Node000001" class="node">
<title>Node1</title>
<g id="a_Node000001"><a xlink:title=" ">
<polygon fill="#999999" stroke="#666666" points="684.5,-327.25 610.75,-327.25 610.75,-308 684.5,-308 684.5,-327.25"/>
<text text-anchor="middle" x="647.62" y="-313.75" font-family="Helvetica,sans-Serif" font-size="10.00">TChannelTab</text>
</a>
</g>
</g>
<!-- Node2 -->
<g id="Node000002" class="node">
<title>Node2</title>
<g id="a_Node000002"><a xlink:title=" ">
<polygon fill="white" stroke="#666666" points="520.75,-546.25 384,-546.25 384,-527 520.75,-527 520.75,-546.25"/>
<text text-anchor="middle" x="452.38" y="-532.75" font-family="Helvetica,sans-Serif" font-size="10.00">std::vector&lt; TSourceTab * &gt;</text>
</a>
</g>
</g>
<!-- Node2&#45;&gt;Node1 -->
<g id="edge1_Node000001_Node000002" class="edge">
<title>Node2&#45;&gt;Node1</title>
<g id="a_edge1_Node000001_Node000002"><a xlink:title=" ">
<path fill="none" stroke="#9a32cd" stroke-dasharray="5,2" d="M514.05,-522.23C516.35,-521.11 518.6,-519.91 520.75,-518.62 597.03,-472.9 634.2,-361.24 643.95,-327.46"/>
<polygon fill="#9a32cd" stroke="#9a32cd" points="512.88,-518.92 505,-526.01 515.58,-525.38 512.88,-518.92"/>
</a>
</g>
<text text-anchor="middle" x="565.75" y="-505.38" font-family="Helvetica,sans-Serif" font-size="10.00" fill="grey"> fSources</text>
</g>
<!-- Node3 -->
<g id="Node000003" class="node">
<title>Node3</title>
<g id="a_Node000003"><a xlink:href="class_t_source_calibration.html" target="_top" xlink:title=" ">
<polygon fill="white" stroke="#666666" points="501.62,-509.25 403.12,-509.25 403.12,-490 501.62,-490 501.62,-509.25"/>
<text text-anchor="middle" x="452.38" y="-495.75" font-family="Helvetica,sans-Serif" font-size="10.00">TSourceCalibration</text>
</a>
</g>
</g>
<!-- Node3&#45;&gt;Node1 -->
<g id="edge2_Node000001_Node000003" class="edge">
<title>Node3&#45;&gt;Node1</title>
<g id="a_edge2_Node000001_Node000003"><a xlink:title=" ">
<path fill="none" stroke="#9a32cd" stroke-dasharray="5,2" d="M474.72,-482.59C502.75,-459.88 553.06,-417.98 592.75,-378.62 610.01,-361.51 628.4,-339.86 638.6,-327.49"/>
<polygon fill="#9a32cd" stroke="#9a32cd" points="472.56,-479.83 466.96,-488.83 476.95,-485.29 472.56,-479.83"/>
</a>
</g>
<text text-anchor="middle" x="565.75" y="-428.38" font-family="Helvetica,sans-Serif" font-size="10.00" fill="grey"> fParent</text>
</g>
<!-- Node4 -->
<g id="Node000004" class="node">
<title>Node4</title>
<g id="a_Node000004"><a xlink:title=" ">
<polygon fill="white" stroke="#666666" points="240.75,-700.25 162.5,-700.25 162.5,-681 240.75,-681 240.75,-700.25"/>
<text text-anchor="middle" x="201.62" y="-686.75" font-family="Helvetica,sans-Serif" font-size="10.00">TGMainFrame</text>
</a>
</g>
</g>
<!-- Node4&#45;&gt;Node3 -->
<g id="edge3_Node000003_Node000004" class="edge">
<title>Node4&#45;&gt;Node3</title>
<g id="a_edge3_Node000003_Node000004"><a xlink:title=" ">
<path fill="none" stroke="#63b8ff" d="M252.4,-699.94C288.86,-703.67 336.87,-701.58 366,-672.62 415.18,-623.73 338.65,-570.1 384,-517.62 388.99,-511.85 395.6,-507.83 402.74,-505.05"/>
<polygon fill="#63b8ff" stroke="#63b8ff" points="252.86,-696.47 242.51,-698.74 252.01,-703.42 252.86,-696.47"/>
</a>
</g>
</g>
<!-- Node5 -->
<g id="Node000005" class="node">
<title>Node5</title>
<g id="a_Node000005"><a xlink:title=" ">
<polygon fill="white" stroke="#666666" points="272.25,-663.25 131,-663.25 131,-644 272.25,-644 272.25,-663.25"/>
<text text-anchor="middle" x="201.62" y="-649.75" font-family="Helvetica,sans-Serif" font-size="10.00">std::vector&lt; TChannelTab * &gt;</text>
</a>
</g>
</g>
<!-- Node5&#45;&gt;Node3 -->
<g id="edge4_Node000003_Node000005" class="edge">
<title>Node5&#45;&gt;Node3</title>
<g id="a_edge4_Node000003_Node000005"><a xlink:title=" ">
<path fill="none" stroke="#9a32cd" stroke-dasharray="5,2" d="M283.72,-659.37C313.26,-657.11 344.61,-648.92 366,-627.62 401.11,-592.67 350.74,-554.34 384,-517.62 389.12,-511.97 395.8,-508.01 402.96,-505.25"/>
<polygon fill="#9a32cd" stroke="#9a32cd" points="283.83,-655.86 274.03,-659.88 284.2,-662.85 283.83,-655.86"/>
</a>
</g>
<text text-anchor="middle" x="328.88" y="-659.38" font-family="Helvetica,sans-Serif" font-size="10.00" fill="grey"> fChannelTab</text>
</g>
<!-- Node6 -->
<g id="Node000006" class="node">
<title>Node6</title>
<g id="a_Node000006"><a xlink:title=" ">
<polygon fill="white" stroke="#666666" points="262.12,-626.25 141.12,-626.25 141.12,-607 262.12,-607 262.12,-626.25"/>
<text text-anchor="middle" x="201.62" y="-612.75" font-family="Helvetica,sans-Serif" font-size="10.00">std::vector&lt; TGLabel * &gt;</text>
</a>
</g>
</g>
<!-- Node6&#45;&gt;Node3 -->
<g id="edge5_Node000003_Node000006" class="edge">
<title>Node6&#45;&gt;Node3</title>
<g id="a_edge5_Node000003_Node000006"><a xlink:title=" ">
<path fill="none" stroke="#9a32cd" stroke-dasharray="5,2" d="M273.46,-614.43C311.1,-611.79 352.37,-606.05 366,-593.62 391.66,-570.24 359.81,-542.52 384,-517.62 389.23,-512.24 395.88,-508.41 402.95,-505.69"/>
<polygon fill="#9a32cd" stroke="#9a32cd" points="273.72,-610.91 263.96,-615.03 274.16,-617.9 273.72,-610.91"/>
</a>
</g>
<text text-anchor="middle" x="328.88" y="-614.38" font-family="Helvetica,sans-Serif" font-size="10.00" fill="grey"> fMatrixNames</text>
</g>
<!-- Node7 -->
<g id="Node000007" class="node">
<title>Node7</title>
<g id="a_Node000007"><a xlink:title=" ">
<polygon fill="white" stroke="#666666" points="273.75,-589.25 129.5,-589.25 129.5,-570 273.75,-570 273.75,-589.25"/>
<text text-anchor="middle" x="201.62" y="-575.75" font-family="Helvetica,sans-Serif" font-size="10.00">std::vector&lt; TGComboBox * &gt;</text>
</a>
</g>
</g>
<!-- Node7&#45;&gt;Node3 -->
<g id="edge6_Node000003_Node000007" class="edge">
<title>Node7&#45;&gt;Node3</title>
<g id="a_edge6_Node000003_Node000007"><a xlink:title=" ">
<path fill="none" stroke="#9a32cd" stroke-dasharray="5,2" d="M285.38,-580.56C313.17,-577.27 342.93,-569.44 366,-552.62 380.14,-542.32 370.38,-528.6 384,-517.62 389.56,-513.14 396.14,-509.77 402.97,-507.23"/>
<polygon fill="#9a32cd" stroke="#9a32cd" points="285.15,-577.07 275.54,-581.53 285.83,-584.03 285.15,-577.07"/>
</a>
</g>
<text text-anchor="middle" x="328.88" y="-580.38" font-family="Helvetica,sans-Serif" font-size="10.00" fill="grey"> fSourceBox</text>
</g>
<!-- Node8 -->
<g id="Node000008" class="node">
<title>Node8</title>
<g id="a_Node000008"><a xlink:title=" ">
<polygon fill="white" stroke="#666666" points="264.38,-416.25 138.88,-416.25 138.88,-397 264.38,-397 264.38,-416.25"/>
<text text-anchor="middle" x="201.62" y="-402.75" font-family="Helvetica,sans-Serif" font-size="10.00">std::vector&lt; TNucleus * &gt;</text>
</a>
</g>
</g>
<!-- Node8&#45;&gt;Node1 -->
<g id="edge12_Node000001_Node000008" class="edge">
<title>Node8&#45;&gt;Node1</title>
<g id="a_edge12_Node000001_Node000008"><a xlink:title=" ">
<path fill="none" stroke="#9a32cd" stroke-dasharray="5,2" d="M241.57,-392.94C257.04,-387.89 275.09,-382.46 291.75,-378.62 423.56,-348.26 460.7,-362.95 592.75,-333.62 600.18,-331.97 608.08,-329.85 615.48,-327.68"/>
<polygon fill="#9a32cd" stroke="#9a32cd" points="240.63,-389.57 232.25,-396.05 242.84,-396.21 240.63,-389.57"/>
</a>
</g>
<text text-anchor="middle" x="452.38" y="-362.38" font-family="Helvetica,sans-Serif" font-size="10.00" fill="grey"> fNuclei</text>
</g>
<!-- Node8&#45;&gt;Node3 -->
<g id="edge7_Node000003_Node000008" class="edge">
<title>Node8&#45;&gt;Node3</title>
<g id="a_edge7_Node000003_Node000008"><a xlink:title=" ">
<path fill="none" stroke="#9a32cd" stroke-dasharray="5,2" d="M253.65,-419.71C286.27,-428.67 329.21,-441.58 366,-456.38 390.2,-466.11 416.83,-480.17 433.81,-489.59"/>
<polygon fill="#9a32cd" stroke="#9a32cd" points="254.6,-416.34 244.03,-417.1 252.77,-423.1 254.6,-416.34"/>
</a>
</g>
<text text-anchor="middle" x="328.88" y="-457.38" font-family="Helvetica,sans-Serif" font-size="10.00" fill="grey"> fSource</text>
</g>
<!-- Node9 -->
<g id="Node000009" class="node">
<title>Node9</title>
<g id="a_Node000009"><a xlink:title=" ">
<polygon fill="white" stroke="#666666" points="270,-352.5 133.25,-352.5 133.25,-310.75 270,-310.75 270,-352.5"/>
<text text-anchor="start" x="141.25" y="-339" font-family="Helvetica,sans-Serif" font-size="10.00">std::vector&lt; std::vector</text>
<text text-anchor="start" x="141.25" y="-327.75" font-family="Helvetica,sans-Serif" font-size="10.00">&lt; std::tuple&lt; double, double,</text>
<text text-anchor="middle" x="201.62" y="-316.5" font-family="Helvetica,sans-Serif" font-size="10.00"> double, double &gt; &gt; &gt;</text>
</a>
</g>
</g>
<!-- Node9&#45;&gt;Node1 -->
<g id="edge16_Node000001_Node000009" class="edge">
<title>Node9&#45;&gt;Node1</title>
<g id="a_edge16_Node000001_Node000009"><a xlink:title=" ">
<path fill="none" stroke="#9a32cd" stroke-dasharray="5,2" d="M281.27,-329.15C378.27,-326.09 539.07,-321.02 610.51,-318.76"/>
<polygon fill="#9a32cd" stroke="#9a32cd" points="281.46,-325.64 271.57,-329.45 281.68,-332.63 281.46,-325.64"/>
</a>
</g>
<text text-anchor="middle" x="452.38" y="-327.38" font-family="Helvetica,sans-Serif" font-size="10.00" fill="grey"> fSourceEnergies</text>
</g>
<!-- Node9&#45;&gt;Node3 -->
<g id="edge8_Node000003_Node000009" class="edge">
<title>Node9&#45;&gt;Node3</title>
<g id="a_edge8_Node000003_Node000009"><a xlink:title=" ">
<path fill="none" stroke="#9a32cd" stroke-dasharray="5,2" d="M262.82,-357.62C294.79,-372.69 333.98,-393.24 366,-416.38 397.38,-439.05 428.47,-473.02 442.95,-489.68"/>
<polygon fill="#9a32cd" stroke="#9a32cd" points="264.63,-354.6 254.08,-353.56 261.68,-360.95 264.63,-354.6"/>
</a>
</g>
<text text-anchor="middle" x="328.88" y="-417.38" font-family="Helvetica,sans-Serif" font-size="10.00" fill="grey"> fSourceEnergy</text>
</g>
<!-- Node10 -->
<g id="Node000010" class="node">
<title>Node10</title>
<g id="a_Node000010"><a xlink:title=" ">
<polygon fill="white" stroke="#666666" points="245.62,-552.25 157.62,-552.25 157.62,-533 245.62,-533 245.62,-552.25"/>
<text text-anchor="middle" x="201.62" y="-538.75" font-family="Helvetica,sans-Serif" font-size="10.00">std::vector&lt; int &gt;</text>
</a>
</g>
</g>
<!-- Node10&#45;&gt;Node3 -->
<g id="edge9_Node000003_Node000010" class="edge">
<title>Node10&#45;&gt;Node3</title>
<g id="a_edge9_Node000003_Node000010"><a xlink:title=" ">
<path fill="none" stroke="#9a32cd" stroke-dasharray="5,2" d="M257.2,-533.19C300.75,-525.66 361.19,-515.22 403.02,-507.98"/>
<polygon fill="#9a32cd" stroke="#9a32cd" points="256.7,-529.72 247.45,-534.88 257.9,-536.62 256.7,-529.72"/>
</a>
</g>
<text text-anchor="middle" x="328.88" y="-538.62" font-family="Helvetica,sans-Serif" font-size="10.00" fill="grey"> fActiveBins</text>
<text text-anchor="middle" x="328.88" y="-527.38" font-family="Helvetica,sans-Serif" font-size="10.00" fill="grey">fActualChannelId</text>
</g>
<!-- Node11 -->
<g id="Node000011" class="node">
<title>Node11</title>
<g id="a_Node000011"><a xlink:title=" ">
<polygon fill="white" stroke="#666666" points="248.25,-514.88 155,-514.88 155,-484.38 248.25,-484.38 248.25,-514.88"/>
<text text-anchor="start" x="163" y="-501.38" font-family="Helvetica,sans-Serif" font-size="10.00">std::vector&lt; const</text>
<text text-anchor="middle" x="201.62" y="-490.12" font-family="Helvetica,sans-Serif" font-size="10.00"> char * &gt;</text>
</a>
</g>
</g>
<!-- Node11&#45;&gt;Node3 -->
<g id="edge10_Node000003_Node000011" class="edge">
<title>Node11&#45;&gt;Node3</title>
<g id="a_edge10_Node000003_Node000011"><a xlink:title=" ">
<path fill="none" stroke="#9a32cd" stroke-dasharray="5,2" d="M260.01,-499.62C303.23,-499.62 361.83,-499.62 402.75,-499.62"/>
<polygon fill="#9a32cd" stroke="#9a32cd" points="260.05,-496.13 250.05,-499.63 260.05,-503.13 260.05,-496.13"/>
</a>
</g>
<text text-anchor="middle" x="328.88" y="-501.38" font-family="Helvetica,sans-Serif" font-size="10.00" fill="grey"> fChannelLabel</text>
</g>
<!-- Node12 -->
<g id="Node000012" class="node">
<title>Node12</title>
<g id="a_Node000012"><a xlink:title=" ">
<polygon fill="white" stroke="#666666" points="252.75,-466.25 150.5,-466.25 150.5,-447 252.75,-447 252.75,-466.25"/>
<text text-anchor="middle" x="201.62" y="-452.75" font-family="Helvetica,sans-Serif" font-size="10.00">std::vector&lt; TH2 * &gt;</text>
</a>
</g>
</g>
<!-- Node12&#45;&gt;Node3 -->
<g id="edge11_Node000003_Node000012" class="edge">
<title>Node12&#45;&gt;Node3</title>
<g id="a_edge11_Node000003_Node000012"><a xlink:title=" ">
<path fill="none" stroke="#9a32cd" stroke-dasharray="5,2" d="M264.01,-466.93C294.66,-472.1 332.3,-478.5 366,-484.38 377.87,-486.44 390.65,-488.71 402.63,-490.84"/>
<polygon fill="#9a32cd" stroke="#9a32cd" points="264.99,-463.54 254.55,-465.33 263.83,-470.44 264.99,-463.54"/>
</a>
</g>
<text text-anchor="middle" x="328.88" y="-485.38" font-family="Helvetica,sans-Serif" font-size="10.00" fill="grey"> fMatrices</text>
</g>
<!-- Node13 -->
<g id="Node000013" class="node">
<title>Node13</title>
<g id="a_Node000013"><a xlink:title=" ">
<polygon fill="white" stroke="#666666" points="507.62,-281.25 397.12,-281.25 397.12,-262 507.62,-262 507.62,-281.25"/>
<text text-anchor="middle" x="452.38" y="-267.75" font-family="Helvetica,sans-Serif" font-size="10.00">std::vector&lt; GH1D * &gt;</text>
</a>
</g>
</g>
<!-- Node13&#45;&gt;Node1 -->
<g id="edge13_Node000001_Node000013" class="edge">
<title>Node13&#45;&gt;Node1</title>
<g id="a_edge13_Node000001_Node000013"><a xlink:title=" ">
<path fill="none" stroke="#9a32cd" stroke-dasharray="5,2" d="M519.39,-277.47C542.88,-280.59 569.3,-285.3 592.75,-292.38 605.21,-296.13 618.46,-302.31 628.7,-307.61"/>
<polygon fill="#9a32cd" stroke="#9a32cd" points="519.98,-274.01 509.62,-276.25 519.11,-280.96 519.98,-274.01"/>
</a>
</g>
<text text-anchor="middle" x="565.75" y="-293.38" font-family="Helvetica,sans-Serif" font-size="10.00" fill="grey"> fProjections</text>
</g>
<!-- Node14 -->
<g id="Node000014" class="node">
<title>Node14</title>
<g id="a_Node000014"><a xlink:title=" ">
<polygon fill="white" stroke="#666666" points="230.62,-231.25 172.62,-231.25 172.62,-212 230.62,-212 230.62,-231.25"/>
<text text-anchor="middle" x="201.62" y="-217.75" font-family="Helvetica,sans-Serif" font-size="10.00">std::string</text>
</a>
</g>
</g>
<!-- Node14&#45;&gt;Node1 -->
<g id="edge14_Node000001_Node000014" class="edge">
<title>Node14&#45;&gt;Node1</title>
<g id="a_edge14_Node000001_Node000014"><a xlink:title=" ">
<path fill="none" stroke="#9a32cd" stroke-dasharray="5,2" d="M242.35,-222.21C315.62,-223.6 469.24,-228.06 520.75,-241.38 568,-253.59 614.81,-290.02 635.54,-307.74"/>
<polygon fill="#9a32cd" stroke="#9a32cd" points="242.47,-218.71 232.41,-222.03 242.34,-225.71 242.47,-218.71"/>
</a>
</g>
<text text-anchor="middle" x="452.38" y="-242.38" font-family="Helvetica,sans-Serif" font-size="10.00" fill="grey"> fName</text>
</g>
<!-- Node16 -->
<g id="Node000016" class="node">
<title>Node16</title>
<g id="a_Node000016"><a xlink:href="class_t_calibration_graph_set.html" target="_top" xlink:title=" ">
<polygon fill="white" stroke="#666666" points="506.88,-146.25 397.88,-146.25 397.88,-127 506.88,-127 506.88,-146.25"/>
<text text-anchor="middle" x="452.38" y="-132.75" font-family="Helvetica,sans-Serif" font-size="10.00">TCalibrationGraphSet</text>
</a>
</g>
</g>
<!-- Node14&#45;&gt;Node16 -->
<g id="edge23_Node000016_Node000014" class="edge">
<title>Node14&#45;&gt;Node16</title>
<g id="a_edge23_Node000016_Node000014"><a xlink:title=" ">
<path fill="none" stroke="#9a32cd" stroke-dasharray="5,2" d="M241.66,-209.08C274.82,-198.33 323.65,-182.31 366,-167.62 385.52,-160.86 407.42,-152.9 424.15,-146.74"/>
<polygon fill="#9a32cd" stroke="#9a32cd" points="240.92,-205.64 232.48,-212.04 243.08,-212.3 240.92,-205.64"/>
</a>
</g>
<text text-anchor="middle" x="328.88" y="-204.62" font-family="Helvetica,sans-Serif" font-size="10.00" fill="grey"> fXAxisLabel</text>
<text text-anchor="middle" x="328.88" y="-193.38" font-family="Helvetica,sans-Serif" font-size="10.00" fill="grey">fYAxisLabel</text>
</g>
<!-- Node15 -->
<g id="Node000015" class="node">
<title>Node15</title>
<g id="a_Node000015"><a xlink:title=" ">
<polygon fill="white" stroke="#666666" points="92.5,-236.88 0,-236.88 0,-206.38 92.5,-206.38 92.5,-236.88"/>
<text text-anchor="start" x="8" y="-223.38" font-family="Helvetica,sans-Serif" font-size="10.00">std::basic_string&lt;</text>
<text text-anchor="middle" x="46.25" y="-212.12" font-family="Helvetica,sans-Serif" font-size="10.00"> Char &gt;</text>
</a>
</g>
</g>
<!-- Node15&#45;&gt;Node14 -->
<g id="edge15_Node000014_Node000015" class="edge">
<title>Node15&#45;&gt;Node14</title>
<g id="a_edge15_Node000014_Node000015"><a xlink:title=" ">
<path fill="none" stroke="#63b8ff" d="M104.34,-221.62C127.53,-221.62 153.28,-221.62 172.31,-221.62"/>
<polygon fill="#63b8ff" stroke="#63b8ff" points="104.37,-218.13 94.37,-221.63 104.37,-225.13 104.37,-218.13"/>
</a>
</g>
</g>
<!-- Node16&#45;&gt;Node1 -->
<g id="edge17_Node000001_Node000016" class="edge">
<title>Node16&#45;&gt;Node1</title>
<g id="a_edge17_Node000001_Node000016"><a xlink:title=" ">
<path fill="none" stroke="#9a32cd" stroke-dasharray="5,2" d="M509.6,-150.08C537.5,-159.16 570.01,-173.7 592.75,-196.12 625.77,-228.69 640.15,-285.02 644.81,-307.72"/>
<polygon fill="#9a32cd" stroke="#9a32cd" points="510.8,-146.78 500.21,-147.19 508.74,-153.47 510.8,-146.78"/>
</a>
</g>
<text text-anchor="middle" x="565.75" y="-208.62" font-family="Helvetica,sans-Serif" font-size="10.00" fill="grey"> fData</text>
<text text-anchor="middle" x="565.75" y="-197.38" font-family="Helvetica,sans-Serif" font-size="10.00" fill="grey">fFwhm</text>
</g>
<!-- Node17 -->
<g id="Node000017" class="node">
<title>Node17</title>
<g id="a_Node000017"><a xlink:title=" ">
<polygon fill="white" stroke="#666666" points="228.38,-183.25 174.88,-183.25 174.88,-164 228.38,-164 228.38,-183.25"/>
<text text-anchor="middle" x="201.62" y="-169.75" font-family="Helvetica,sans-Serif" font-size="10.00">TNamed</text>
</a>
</g>
</g>
<!-- Node17&#45;&gt;Node16 -->
<g id="edge18_Node000016_Node000017" class="edge">
<title>Node17&#45;&gt;Node16</title>
<g id="a_edge18_Node000016_Node000017"><a xlink:title=" ">
<path fill="none" stroke="#63b8ff" d="M240.12,-168.05C282.03,-161.81 350.25,-151.67 397.78,-144.6"/>
<polygon fill="#63b8ff" stroke="#63b8ff" points="239.65,-164.58 230.27,-169.51 240.68,-171.5 239.65,-164.58"/>
</a>
</g>
</g>
<!-- Node18 -->
<g id="Node000018" class="node">
<title>Node18</title>
<g id="a_Node000018"><a xlink:title=" ">
<polygon fill="white" stroke="#666666" points="230.62,-146.25 172.62,-146.25 172.62,-127 230.62,-127 230.62,-146.25"/>
<text text-anchor="middle" x="201.62" y="-132.75" font-family="Helvetica,sans-Serif" font-size="10.00">TQObject</text>
</a>
</g>
</g>
<!-- Node18&#45;&gt;Node16 -->
<g id="edge19_Node000016_Node000018" class="edge">
<title>Node18&#45;&gt;Node16</title>
<g id="a_edge19_Node000016_Node000018"><a xlink:title=" ">
<path fill="none" stroke="#63b8ff" d="M242.1,-136.62C284.14,-136.62 350.94,-136.62 397.73,-136.62"/>
<polygon fill="#63b8ff" stroke="#63b8ff" points="242.19,-133.13 232.19,-136.63 242.19,-140.13 242.19,-133.13"/>
</a>
</g>
</g>
<!-- Node19 -->
<g id="Node000019" class="node">
<title>Node19</title>
<g id="a_Node000019"><a xlink:title=" ">
<polygon fill="white" stroke="#666666" points="262.12,-108.88 141.12,-108.88 141.12,-78.38 262.12,-78.38 262.12,-108.88"/>
<text text-anchor="start" x="149.12" y="-95.38" font-family="Helvetica,sans-Serif" font-size="10.00">std::vector&lt; TCalibration</text>
<text text-anchor="middle" x="201.62" y="-84.12" font-family="Helvetica,sans-Serif" font-size="10.00">Graph &gt;</text>
</a>
</g>
</g>
<!-- Node19&#45;&gt;Node16 -->
<g id="edge20_Node000016_Node000019" class="edge">
<title>Node19&#45;&gt;Node16</title>
<g id="a_edge20_Node000016_Node000019"><a xlink:title=" ">
<path fill="none" stroke="#9a32cd" stroke-dasharray="5,2" d="M273.65,-97.69C302.5,-100.14 336.04,-104.03 366,-110.12 385.77,-114.15 407.48,-120.92 424.06,-126.61"/>
<polygon fill="#9a32cd" stroke="#9a32cd" points="274.18,-94.22 263.93,-96.9 273.62,-101.19 274.18,-94.22"/>
</a>
</g>
<text text-anchor="middle" x="328.88" y="-122.62" font-family="Helvetica,sans-Serif" font-size="10.00" fill="grey"> fGraphs</text>
<text text-anchor="middle" x="328.88" y="-111.38" font-family="Helvetica,sans-Serif" font-size="10.00" fill="grey">fResidualGraphs</text>
</g>
<!-- Node20 -->
<g id="Node000020" class="node">
<title>Node20</title>
<g id="a_Node000020"><a xlink:title=" ">
<polygon fill="white" stroke="#666666" points="261.38,-60.25 141.88,-60.25 141.88,-41 261.38,-41 261.38,-60.25"/>
<text text-anchor="middle" x="201.62" y="-46.75" font-family="Helvetica,sans-Serif" font-size="10.00">std::vector&lt; std::string &gt;</text>
</a>
</g>
</g>
<!-- Node20&#45;&gt;Node16 -->
<g id="edge21_Node000016_Node000020" class="edge">
<title>Node20&#45;&gt;Node16</title>
<g id="a_edge21_Node000016_Node000020"><a xlink:title=" ">
<path fill="none" stroke="#9a32cd" stroke-dasharray="5,2" d="M272.56,-59.61C302.07,-64.79 336.38,-72.67 366,-84.38 393.47,-95.24 422.11,-114.71 438.25,-126.57"/>
<polygon fill="#9a32cd" stroke="#9a32cd" points="273.44,-56.21 262.99,-58.01 272.28,-63.12 273.44,-56.21"/>
</a>
</g>
<text text-anchor="middle" x="328.88" y="-85.38" font-family="Helvetica,sans-Serif" font-size="10.00" fill="grey"> fLabel</text>
</g>
<!-- Node21 -->
<g id="Node000021" class="node">
<title>Node21</title>
<g id="a_Node000021"><a xlink:title=" ">
<polygon fill="white" stroke="#666666" points="253.12,-19.25 150.12,-19.25 150.12,0 253.12,0 253.12,-19.25"/>
<text text-anchor="middle" x="201.62" y="-5.75" font-family="Helvetica,sans-Serif" font-size="10.00">std::vector&lt; size_t &gt;</text>
</a>
</g>
</g>
<!-- Node21&#45;&gt;Node16 -->
<g id="edge22_Node000016_Node000021" class="edge">
<title>Node21&#45;&gt;Node16</title>
<g id="a_edge22_Node000016_Node000021"><a xlink:title=" ">
<path fill="none" stroke="#9a32cd" stroke-dasharray="5,2" d="M264.93,-10.15C296.9,-12.81 335.44,-19.86 366,-37.12 405.04,-59.18 434.55,-106.21 446.08,-126.72"/>
<polygon fill="#9a32cd" stroke="#9a32cd" points="265.2,-6.66 254.98,-9.47 264.72,-13.65 265.2,-6.66"/>
</a>
</g>
<text text-anchor="middle" x="328.88" y="-49.62" font-family="Helvetica,sans-Serif" font-size="10.00" fill="grey"> fGraphIndex</text>
<text text-anchor="middle" x="328.88" y="-38.38" font-family="Helvetica,sans-Serif" font-size="10.00" fill="grey">fPointIndex</text>
</g>
</g>
</svg>

<g id="navigator" transform="translate(0 0)" fill="#404254">
  <rect fill="#f2f5e9" fill-opacity="0.5" stroke="#606060" stroke-width=".5" x="0" y="0" width="60" height="60"/>
  <use id="zoomplus" xlink:href="#zoomPlus" x="17" y="9" onmousedown="handleZoom(evt,'in')"/>
  <use id="zoomminus" xlink:href="#zoomMin" x="42" y="9" onmousedown="handleZoom(evt,'out')"/>
  <use id="reset" xlink:href="#resetDef" x="30" y="36" onmousedown="handleReset()"/>
   <use id="arrowup" xlink:href="#arrowUp" x="0" y="0" onmousedown="handlePan(0,-1)"/>
  <use id="arrowright" xlink:href="#arrowRight" x="0" y="0" onmousedown="handlePan(1,0)"/>
  <use id="arrowdown" xlink:href="#arrowDown" x="0" y="0" onmousedown="handlePan(0,1)"/>
  <use id="arrowleft" xlink:href="#arrowLeft" x="0" y="0" onmousedown="handlePan(-1,0)"/>
</g>
<svg viewBox="0 0 15 15" width="100%" height="30px" preserveAspectRatio="xMaxYMin meet">
 <g id="arrow_out" transform="scale(0.3 0.3)">
  <a xlink:href="class_t_channel_tab__coll__graph_org.svg" target="_base">
   <rect id="button" ry="5" rx="5" y="6" x="6" height="38" width="38"
        fill="#f2f5e9" fill-opacity="0.5" stroke="#606060" stroke-width="1.0"/>
   <path id="arrow"
     d="M 11.500037,31.436501 C 11.940474,20.09759 22.043105,11.32322 32.158766,21.979434 L 37.068811,17.246167 C 37.068811,17.246167 37.088388,32 37.088388,32 L 22.160133,31.978069 C 22.160133,31.978069 26.997745,27.140456 26.997745,27.140456 C 18.528582,18.264221 13.291696,25.230495 11.500037,31.436501 z"
     style="fill:#404040;"/>
  </a>
 </g>
</svg>

<style type='text/css'>
<![CDATA[
[data-mouse-over-selected='false'] { opacity: 0.7; }
[data-mouse-over-selected='true']  { opacity: 1.0; }
]]>
</style>
<script type="application/ecmascript"><![CDATA[
document.addEventListener('DOMContentLoaded', (event) => {
  highlightEdges();
  highlightAdjacentNodes();
});
]]></script>
</svg>
