<?xml version="1.0" encoding="UTF-8" standalone="no"?>
<!DOCTYPE svg PUBLIC "-//W3C//DTD SVG 1.1//EN"
 "http://www.w3.org/Graphics/SVG/1.1/DTD/svg11.dtd">
<!-- Generated by graphviz version 12.2.0 (20241103.1931)
 -->
<!-- Title: TSiLiHit Pages: 1 -->
<!--zoomable 930 -->

<svg id="main" version="1.1" xmlns="http://www.w3.org/2000/svg" xmlns:xlink="http://www.w3.org/1999/xlink" xml:space="preserve" onload="init(evt)">

<style type="text/css"><![CDATA[
.node, .edge {opacity: 0.7;}
.node.selected, .edge.selected {opacity: 1;}
.edge:hover path { stroke: red; }
.edge:hover polygon { stroke: red; fill: red; }
]]></style>

<defs>
  <circle id="rim" cx="0" cy="0" r="7"/>
  <circle id="rim2" cx="0" cy="0" r="3.5"/>
  <g id="zoomPlus">
    <use xlink:href="#rim" fill="#404040"><set attributeName="fill" to="#808080" begin="zoomplus.mouseover" end="zoomplus.mouseout"/></use>
    <path d="M-4,0h8M0,-4v8" fill="none" stroke="white" stroke-width="1.5" pointer-events="none"/>
  </g>
  <g id="zoomMin">
    <use xlink:href="#rim" fill="#404040"><set attributeName="fill" to="#808080" begin="zoomminus.mouseover" end="zoomminus.mouseout"/></use>
    <path d="M-4,0h8" fill="none" stroke="white" stroke-width="1.5" pointer-events="none"/>
  </g>
  <g id="arrowUp" transform="translate(30 24)">
    <use xlink:href="#rim"/>
    <path pointer-events="none" fill="none" stroke="white" stroke-width="1.5" d="M0,-3.0v7 M-2.5,-0.5L0,-3.0L2.5,-0.5"/>
  </g>
  <g id="arrowRight" transform="rotate(90) translate(36 -43)">
    <use xlink:href="#rim"/>
    <path pointer-events="none" fill="none" stroke="white" stroke-width="1.5" d="M0,-3.0v7 M-2.5,-0.5L0,-3.0L2.5,-0.5"/>
  </g>
  <g id="arrowDown" transform="rotate(180) translate(-30 -48)">
    <use xlink:href="#rim"/>
    <path pointer-events="none" fill="none" stroke="white" stroke-width="1.5" d="M0,-3.0v7 M-2.5,-0.5L0,-3.0L2.5,-0.5"/>
  </g>
  <g id="arrowLeft" transform="rotate(270) translate(-36 17)">
    <use xlink:href="#rim"/>
    <path pointer-events="none" fill="none" stroke="white" stroke-width="1.5" d="M0,-3.0v7 M-2.5,-0.5L0,-3.0L2.5,-0.5"/>
  </g>
  <g id="resetDef">
    <use xlink:href="#rim2" fill="#404040"><set attributeName="fill" to="#808080" begin="reset.mouseover" end="reset.mouseout"/></use>
  </g>
</defs>
<script type="application/ecmascript">
var viewWidth = 1312;
var viewHeight = 930;
var sectionId = 'dynsection-1';
</script>
<script type="application/ecmascript" xlink:href="svg.min.js"/>
<svg id="graph" class="graph">
<g id="viewport">
<title>TSiLiHit</title>
<!-- Node1 -->
<g id="Node000001" class="node">
<title>Node1</title>
<g id="a_Node000001"><a xlink:title=" ">
<polygon fill="#999999" stroke="#666666" points="1304,-146.99 1252,-146.99 1252,-127.74 1304,-127.74 1304,-146.99"/>
<text text-anchor="middle" x="1278" y="-133.49" font-family="Helvetica,sans-Serif" font-size="10.00">TSiLiHit</text>
</a>
</g>
</g>
<!-- Node2 -->
<g id="Node000002" class="node">
<title>Node2</title>
<g id="a_Node000002"><a xlink:href="class_t_detector_hit.html" target="_top" xlink:title=" ">
<polygon fill="white" stroke="#666666" points="1109.12,-479.99 1037.62,-479.99 1037.62,-460.74 1109.12,-460.74 1109.12,-479.99"/>
<text text-anchor="middle" x="1073.38" y="-466.49" font-family="Helvetica,sans-Serif" font-size="10.00">TDetectorHit</text>
</a>
</g>
</g>
<!-- Node2&#45;&gt;Node1 -->
<g id="edge1_Node000001_Node000002" class="edge">
<title>Node2&#45;&gt;Node1</title>
<g id="a_edge1_Node000001_Node000002"><a xlink:title=" ">
<path fill="none" stroke="#63b8ff" d="M1089.7,-451.45C1120.05,-413.39 1188.75,-324.11 1234,-241.37 1252,-208.45 1267.19,-166.41 1273.66,-147.44"/>
<polygon fill="#63b8ff" stroke="#63b8ff" points="1087.01,-449.22 1083.48,-459.2 1092.47,-453.6 1087.01,-449.22"/>
</a>
</g>
</g>
<!-- Node3 -->
<g id="Node000003" class="node">
<title>Node3</title>
<g id="a_Node000003"><a xlink:title=" ">
<polygon fill="white" stroke="#666666" points="183.75,-847.99 133.25,-847.99 133.25,-828.74 183.75,-828.74 183.75,-847.99"/>
<text text-anchor="middle" x="158.5" y="-834.49" font-family="Helvetica,sans-Serif" font-size="10.00">TObject</text>
</a>
</g>
</g>
<!-- Node3&#45;&gt;Node2 -->
<g id="edge2_Node000002_Node000003" class="edge">
<title>Node3&#45;&gt;Node2</title>
<g id="a_edge2_Node000002_Node000003"><a xlink:title=" ">
<path fill="none" stroke="#63b8ff" d="M195.08,-847.09C239.38,-857.16 317.48,-872.37 385.38,-872.37 385.38,-872.37 385.38,-872.37 869.38,-872.37 1050.77,-872.37 1070.11,-542.21 1072.14,-480.3"/>
<polygon fill="#63b8ff" stroke="#63b8ff" points="196.06,-843.72 185.53,-844.86 194.47,-850.54 196.06,-843.72"/>
</a>
</g>
</g>
<!-- Node14 -->
<g id="Node000014" class="node">
<title>Node14</title>
<g id="a_Node000014"><a xlink:href="class_t_mnemonic.html" target="_top" xlink:title=" ">
<polygon fill="white" stroke="#666666" points="419.88,-746.99 352.88,-746.99 352.88,-727.74 419.88,-727.74 419.88,-746.99"/>
<text text-anchor="middle" x="386.38" y="-733.49" font-family="Helvetica,sans-Serif" font-size="10.00">TMnemonic</text>
</a>
</g>
</g>
<!-- Node3&#45;&gt;Node14 -->
<g id="edge14_Node000014_Node000003" class="edge">
<title>Node3&#45;&gt;Node14</title>
<g id="a_edge14_Node000014_Node000003"><a xlink:title=" ">
<path fill="none" stroke="#63b8ff" d="M192.43,-823.64C239.02,-802.81 322.97,-765.27 362.98,-747.38"/>
<polygon fill="#63b8ff" stroke="#63b8ff" points="191.07,-820.42 183.37,-827.69 193.92,-826.81 191.07,-820.42"/>
</a>
</g>
</g>
<!-- Node4 -->
<g id="Node000004" class="node">
<title>Node4</title>
<g id="a_Node000004"><a xlink:title=" ">
<polygon fill="white" stroke="#666666" points="922.88,-919.99 813.88,-919.99 813.88,-900.74 922.88,-900.74 922.88,-919.99"/>
<text text-anchor="middle" x="868.38" y="-906.49" font-family="Helvetica,sans-Serif" font-size="10.00">std::vector&lt; Short_t &gt;</text>
</a>
</g>
</g>
<!-- Node4&#45;&gt;Node2 -->
<g id="edge3_Node000002_Node000004" class="edge">
<title>Node4&#45;&gt;Node2</title>
<g id="a_edge3_Node000002_Node000004"><a xlink:title=" ">
<path fill="none" stroke="#9a32cd" stroke-dasharray="5,2" d="M934.53,-913.48C958.74,-911.17 984.53,-904.03 1002,-886.37 1061.35,-826.33 1070.88,-537.15 1072.19,-480.14"/>
<polygon fill="#9a32cd" stroke="#9a32cd" points="934.44,-909.98 924.7,-914.14 934.91,-916.96 934.44,-909.98"/>
</a>
</g>
<text text-anchor="middle" x="977.25" y="-912.09" font-family="Helvetica,sans-Serif" font-size="10.00" fill="grey"> fWaveform</text>
</g>
<!-- Node5 -->
<g id="Node000005" class="node">
<title>Node5</title>
<g id="a_Node000005"><a xlink:href="class_t_channel.html" target="_top" xlink:title=" ">
<polygon fill="white" stroke="#666666" points="897,-479.99 839.75,-479.99 839.75,-460.74 897,-460.74 897,-479.99"/>
<text text-anchor="middle" x="868.38" y="-466.49" font-family="Helvetica,sans-Serif" font-size="10.00">TChannel</text>
</a>
</g>
</g>
<!-- Node5&#45;&gt;Node2 -->
<g id="edge4_Node000002_Node000005" class="edge">
<title>Node5&#45;&gt;Node2</title>
<g id="a_edge4_Node000002_Node000005"><a xlink:title=" ">
<path fill="none" stroke="#9a32cd" stroke-dasharray="5,2" d="M908.6,-470.37C945.94,-470.37 1001.59,-470.37 1037.43,-470.37"/>
<polygon fill="#9a32cd" stroke="#9a32cd" points="908.69,-466.87 898.69,-470.37 908.69,-473.87 908.69,-466.87"/>
</a>
</g>
<text text-anchor="middle" x="977.25" y="-472.12" font-family="Helvetica,sans-Serif" font-size="10.00" fill="grey"> fChannel</text>
</g>
<!-- Node6 -->
<g id="Node000006" class="node">
<title>Node6</title>
<g id="a_Node000006"><a xlink:title=" ">
<polygon fill="white" stroke="#666666" points="623.38,-709.99 569.88,-709.99 569.88,-690.74 623.38,-690.74 623.38,-709.99"/>
<text text-anchor="middle" x="596.62" y="-696.49" font-family="Helvetica,sans-Serif" font-size="10.00">TNamed</text>
</a>
</g>
</g>
<!-- Node6&#45;&gt;Node5 -->
<g id="edge5_Node000005_Node000006" class="edge">
<title>Node6&#45;&gt;Node5</title>
<g id="a_edge5_Node000005_Node000006"><a xlink:title=" ">
<path fill="none" stroke="#63b8ff" d="M634.78,-709.88C675.5,-717.99 740.8,-723.89 784.25,-692.37 856.87,-639.68 866.09,-515.74 867.22,-480.1"/>
<polygon fill="#63b8ff" stroke="#63b8ff" points="635.73,-706.51 625.22,-707.83 634.26,-713.35 635.73,-706.51"/>
</a>
</g>
</g>
<!-- Node7 -->
<g id="Node000007" class="node">
<title>Node7</title>
<g id="a_Node000007"><a xlink:href="class_t_priority_value.html" target="_top" xlink:title=" ">
<polygon fill="white" stroke="#666666" points="648.5,-672.99 544.75,-672.99 544.75,-653.74 648.5,-653.74 648.5,-672.99"/>
<text text-anchor="middle" x="596.62" y="-659.49" font-family="Helvetica,sans-Serif" font-size="10.00">TPriorityValue&lt; int &gt;</text>
</a>
</g>
</g>
<!-- Node7&#45;&gt;Node5 -->
<g id="edge6_Node000005_Node000007" class="edge">
<title>Node7&#45;&gt;Node5</title>
<g id="a_edge6_Node000005_Node000007"><a xlink:title=" ">
<path fill="none" stroke="#9a32cd" stroke-dasharray="5,2" d="M659.8,-651.67C712.08,-641.63 779.12,-628.19 784.25,-624.37 835.15,-586.4 858.34,-507.78 865.14,-480.19"/>
<polygon fill="#9a32cd" stroke="#9a32cd" points="659.21,-648.22 650.05,-653.53 660.53,-655.09 659.21,-648.22"/>
</a>
</g>
<text text-anchor="middle" x="737.38" y="-680.66" font-family="Helvetica,sans-Serif" font-size="10.00" fill="grey"> fIntegration</text>
<text text-anchor="middle" x="737.38" y="-669.41" font-family="Helvetica,sans-Serif" font-size="10.00" fill="grey">fNumber</text>
<text text-anchor="middle" x="737.38" y="-658.16" font-family="Helvetica,sans-Serif" font-size="10.00" fill="grey">fStream</text>
<text text-anchor="middle" x="737.38" y="-646.91" font-family="Helvetica,sans-Serif" font-size="10.00" fill="grey">fTimeStampUnit</text>
</g>
<!-- Node8 -->
<g id="Node000008" class="node">
<title>Node8</title>
<g id="a_Node000008"><a xlink:title=" ">
<polygon fill="white" stroke="#666666" points="645.88,-635.62 547.38,-635.62 547.38,-605.12 645.88,-605.12 645.88,-635.62"/>
<text text-anchor="start" x="555.38" y="-622.12" font-family="Helvetica,sans-Serif" font-size="10.00">TPriorityValue&lt; std</text>
<text text-anchor="middle" x="596.62" y="-610.87" font-family="Helvetica,sans-Serif" font-size="10.00">::string &gt;</text>
</a>
</g>
</g>
<!-- Node8&#45;&gt;Node5 -->
<g id="edge7_Node000005_Node000008" class="edge">
<title>Node8&#45;&gt;Node5</title>
<g id="a_edge7_Node000005_Node000008"><a xlink:title=" ">
<path fill="none" stroke="#9a32cd" stroke-dasharray="5,2" d="M657.15,-615.51C703.57,-610.8 763.53,-602.44 784.25,-589.37 827.3,-562.2 854.17,-503.81 863.59,-480.39"/>
<polygon fill="#9a32cd" stroke="#9a32cd" points="657.09,-612 647.48,-616.45 657.77,-618.96 657.09,-612"/>
</a>
</g>
<text text-anchor="middle" x="737.38" y="-613.12" font-family="Helvetica,sans-Serif" font-size="10.00" fill="grey"> fDigitizerTypeString</text>
</g>
<!-- Node9 -->
<g id="Node000009" class="node">
<title>Node9</title>
<g id="a_Node000009"><a xlink:href="class_t_priority_value.html" target="_top" xlink:title=" ">
<polygon fill="white" stroke="#666666" points="663.5,-586.99 529.75,-586.99 529.75,-567.74 663.5,-567.74 663.5,-586.99"/>
<text text-anchor="middle" x="596.62" y="-573.49" font-family="Helvetica,sans-Serif" font-size="10.00">TPriorityValue&lt; EDigitizer &gt;</text>
</a>
</g>
</g>
<!-- Node9&#45;&gt;Node5 -->
<g id="edge8_Node000005_Node000009" class="edge">
<title>Node9&#45;&gt;Node5</title>
<g id="a_edge8_Node000005_Node000009"><a xlink:title=" ">
<path fill="none" stroke="#9a32cd" stroke-dasharray="5,2" d="M675.04,-575.64C709.87,-572.32 750.61,-564.78 784.25,-548.37 817.87,-531.97 847.15,-497.27 860.18,-480.23"/>
<polygon fill="#9a32cd" stroke="#9a32cd" points="675.14,-572.12 665.47,-576.44 675.73,-579.09 675.14,-572.12"/>
</a>
</g>
<text text-anchor="middle" x="737.38" y="-575.62" font-family="Helvetica,sans-Serif" font-size="10.00" fill="grey"> fDigitizerType</text>
</g>
<!-- Node10 -->
<g id="Node000010" class="node">
<title>Node10</title>
<g id="a_Node000010"><a xlink:href="class_t_priority_value.html" target="_top" xlink:title=" ">
<polygon fill="white" stroke="#666666" points="652.25,-549.99 541,-549.99 541,-530.74 652.25,-530.74 652.25,-549.99"/>
<text text-anchor="middle" x="596.62" y="-536.49" font-family="Helvetica,sans-Serif" font-size="10.00">TPriorityValue&lt; bool &gt;</text>
</a>
</g>
</g>
<!-- Node10&#45;&gt;Node5 -->
<g id="edge9_Node000005_Node000010" class="edge">
<title>Node10&#45;&gt;Node5</title>
<g id="a_edge9_Node000005_Node000010"><a xlink:title=" ">
<path fill="none" stroke="#9a32cd" stroke-dasharray="5,2" d="M664.02,-536.17C700.22,-532.55 745.43,-525.82 784.25,-513.37 809.16,-505.37 835.61,-490.43 851.82,-480.43"/>
<polygon fill="#9a32cd" stroke="#9a32cd" points="663.74,-532.68 654.11,-537.1 664.4,-539.65 663.74,-532.68"/>
</a>
</g>
<text text-anchor="middle" x="737.38" y="-534.42" font-family="Helvetica,sans-Serif" font-size="10.00" fill="grey"> fUseCalFileInt</text>
</g>
<!-- Node11 -->
<g id="Node000011" class="node">
<title>Node11</title>
<g id="a_Node000011"><a xlink:href="class_t_priority_value.html" target="_top" xlink:title=" ">
<polygon fill="white" stroke="#666666" points="663.5,-512.99 529.75,-512.99 529.75,-493.74 663.5,-493.74 663.5,-512.99"/>
<text text-anchor="middle" x="596.62" y="-499.49" font-family="Helvetica,sans-Serif" font-size="10.00">TPriorityValue&lt; Long64_t &gt;</text>
</a>
</g>
</g>
<!-- Node11&#45;&gt;Node5 -->
<g id="edge10_Node000005_Node000011" class="edge">
<title>Node11&#45;&gt;Node5</title>
<g id="a_edge10_Node000005_Node000011"><a xlink:title=" ">
<path fill="none" stroke="#9a32cd" stroke-dasharray="5,2" d="M675.1,-499.45C708.76,-497.16 748.57,-493.64 784.25,-488.37 802.8,-485.62 823.4,-481.17 839.46,-477.38"/>
<polygon fill="#9a32cd" stroke="#9a32cd" points="675.2,-495.94 665.45,-500.09 675.66,-502.93 675.2,-495.94"/>
</a>
</g>
<text text-anchor="middle" x="737.38" y="-499.93" font-family="Helvetica,sans-Serif" font-size="10.00" fill="grey"> fTimeOffset</text>
</g>
<!-- Node12 -->
<g id="Node000012" class="node">
<title>Node12</title>
<g id="a_Node000012"><a xlink:href="class_t_priority_value.html" target="_top" xlink:title=" ">
<polygon fill="white" stroke="#666666" points="657.5,-473.99 535.75,-473.99 535.75,-454.74 657.5,-454.74 657.5,-473.99"/>
<text text-anchor="middle" x="596.62" y="-460.49" font-family="Helvetica,sans-Serif" font-size="10.00">TPriorityValue&lt; double &gt;</text>
</a>
</g>
</g>
<!-- Node12&#45;&gt;Node5 -->
<g id="edge11_Node000005_Node000012" class="edge">
<title>Node12&#45;&gt;Node5</title>
<g id="a_edge11_Node000005_Node000012"><a xlink:title=" ">
<path fill="none" stroke="#9a32cd" stroke-dasharray="5,2" d="M642.74,-450.87C652.62,-447.64 662.98,-444.06 672.5,-440.37 680.7,-437.18 681.9,-433.99 690.5,-432.12 731.21,-423.23 743.55,-423.2 784.25,-432.12 808.92,-437.52 835.01,-450.97 851.24,-460.38"/>
<polygon fill="#9a32cd" stroke="#9a32cd" points="641.75,-447.51 633.29,-453.88 643.88,-454.18 641.75,-447.51"/>
</a>
</g>
<text text-anchor="middle" x="737.38" y="-478.87" font-family="Helvetica,sans-Serif" font-size="10.00" fill="grey"> fCFDChi2</text>
<text text-anchor="middle" x="737.38" y="-467.62" font-family="Helvetica,sans-Serif" font-size="10.00" fill="grey">fEFFChi2</text>
<text text-anchor="middle" x="737.38" y="-456.37" font-family="Helvetica,sans-Serif" font-size="10.00" fill="grey">fLEDChi2</text>
<text text-anchor="middle" x="737.38" y="-445.12" font-family="Helvetica,sans-Serif" font-size="10.00" fill="grey">fTIMEChi2</text>
<text text-anchor="middle" x="737.38" y="-433.87" font-family="Helvetica,sans-Serif" font-size="10.00" fill="grey">fTimeDrift</text>
</g>
<!-- Node13 -->
<g id="Node000013" class="node">
<title>Node13</title>
<g id="a_Node000013"><a xlink:href="class_t_priority_value.html" target="_top" xlink:title=" ">
<polygon fill="white" stroke="#666666" points="671.75,-746.99 521.5,-746.99 521.5,-727.74 671.75,-727.74 671.75,-746.99"/>
<text text-anchor="middle" x="596.62" y="-733.49" font-family="Helvetica,sans-Serif" font-size="10.00">TPriorityValue&lt; TMnemonic * &gt;</text>
</a>
</g>
</g>
<!-- Node13&#45;&gt;Node5 -->
<g id="edge12_Node000005_Node000013" class="edge">
<title>Node13&#45;&gt;Node5</title>
<g id="a_edge12_Node000005_Node000013"><a xlink:title=" ">
<path fill="none" stroke="#9a32cd" stroke-dasharray="5,2" d="M683.14,-747.17C717.85,-746.66 756.28,-739.82 784.25,-717.37 861.52,-655.33 867.42,-518.67 867.51,-480.47"/>
<polygon fill="#9a32cd" stroke="#9a32cd" points="683.54,-743.67 673.53,-747.13 683.51,-750.67 683.54,-743.67"/>
</a>
</g>
<text text-anchor="middle" x="737.38" y="-748.47" font-family="Helvetica,sans-Serif" font-size="10.00" fill="grey"> fMnemonic</text>
</g>
<!-- Node14&#45;&gt;Node13 -->
<g id="edge13_Node000013_Node000014" class="edge">
<title>Node14&#45;&gt;Node13</title>
<g id="a_edge13_Node000013_Node000014"><a xlink:title=" ">
<path fill="none" stroke="#9a32cd" stroke-dasharray="5,2" d="M431.77,-737.37C457.81,-737.37 491.38,-737.37 521.35,-737.37"/>
<polygon fill="#9a32cd" stroke="#9a32cd" points="431.89,-733.87 421.89,-737.37 431.89,-740.87 431.89,-733.87"/>
</a>
</g>
<text text-anchor="middle" x="482.12" y="-739.12" font-family="Helvetica,sans-Serif" font-size="10.00" fill="grey"> fValue</text>
</g>
<!-- Node15 -->
<g id="Node000015" class="node">
<title>Node15</title>
<g id="a_Node000015"><a xlink:title=" ">
<polygon fill="white" stroke="#666666" points="187.5,-526.99 129.5,-526.99 129.5,-507.74 187.5,-507.74 187.5,-526.99"/>
<text text-anchor="middle" x="158.5" y="-513.49" font-family="Helvetica,sans-Serif" font-size="10.00">std::string</text>
</a>
</g>
</g>
<!-- Node15&#45;&gt;Node5 -->
<g id="edge30_Node000005_Node000015" class="edge">
<title>Node15&#45;&gt;Node5</title>
<g id="a_edge30_Node000005_Node000015"><a xlink:title=" ">
<path fill="none" stroke="#9a32cd" stroke-dasharray="5,2" d="M198.69,-507.25C286.16,-485.35 504.25,-434.47 690.5,-421.37 732.06,-418.44 744.05,-410.4 784.25,-421.37 812.05,-428.95 840.02,-448.46 855.38,-460.45"/>
<polygon fill="#9a32cd" stroke="#9a32cd" points="198.03,-503.81 189.19,-509.65 199.74,-510.6 198.03,-503.81"/>
</a>
</g>
<text text-anchor="middle" x="482.12" y="-452.23" font-family="Helvetica,sans-Serif" font-size="10.00" fill="grey"> fFileData</text>
</g>
<!-- Node15&#45;&gt;Node14 -->
<g id="edge15_Node000014_Node000015" class="edge">
<title>Node15&#45;&gt;Node14</title>
<g id="a_edge15_Node000014_Node000015"><a xlink:title=" ">
<path fill="none" stroke="#9a32cd" stroke-dasharray="5,2" d="M177.88,-535.27C223.3,-579.5 339.65,-692.83 375.02,-727.28"/>
<polygon fill="#9a32cd" stroke="#9a32cd" points="180.48,-532.92 170.88,-528.45 175.6,-537.93 180.48,-532.92"/>
</a>
</g>
<text text-anchor="middle" x="258.38" y="-717.93" font-family="Helvetica,sans-Serif" font-size="10.00" fill="grey"> fArraySubPositionString</text>
<text text-anchor="middle" x="258.38" y="-706.68" font-family="Helvetica,sans-Serif" font-size="10.00" fill="grey">fCollectedChargeString</text>
<text text-anchor="middle" x="258.38" y="-695.43" font-family="Helvetica,sans-Serif" font-size="10.00" fill="grey">fName</text>
<text text-anchor="middle" x="258.38" y="-684.18" font-family="Helvetica,sans-Serif" font-size="10.00" fill="grey">fOutputSensorString</text>
<text text-anchor="middle" x="258.38" y="-672.93" font-family="Helvetica,sans-Serif" font-size="10.00" fill="grey">fSubSystemString</text>
<text text-anchor="middle" x="258.38" y="-661.68" font-family="Helvetica,sans-Serif" font-size="10.00" fill="grey">fSystemString</text>
</g>
<!-- Node16 -->
<g id="Node000016" class="node">
<title>Node16</title>
<g id="a_Node000016"><a xlink:title=" ">
<polygon fill="white" stroke="#666666" points="92.5,-532.62 0,-532.62 0,-502.12 92.5,-502.12 92.5,-532.62"/>
<text text-anchor="start" x="8" y="-519.12" font-family="Helvetica,sans-Serif" font-size="10.00">std::basic_string&lt;</text>
<text text-anchor="middle" x="46.25" y="-507.87" font-family="Helvetica,sans-Serif" font-size="10.00"> Char &gt;</text>
</a>
</g>
</g>
<!-- Node16&#45;&gt;Node15 -->
<g id="edge16_Node000015_Node000016" class="edge">
<title>Node16&#45;&gt;Node15</title>
<g id="a_edge16_Node000015_Node000016"><a xlink:title=" ">
<path fill="none" stroke="#63b8ff" d="M104.12,-517.37C112.81,-517.37 121.45,-517.37 129.16,-517.37"/>
<polygon fill="#63b8ff" stroke="#63b8ff" points="104.24,-513.87 94.24,-517.37 104.24,-520.87 104.24,-513.87"/>
</a>
</g>
</g>
<!-- Node17 -->
<g id="Node000017" class="node">
<title>Node17</title>
<g id="a_Node000017"><a xlink:title=" ">
<polygon fill="white" stroke="#666666" points="647,-398.24 546.25,-398.24 546.25,-356.49 647,-356.49 647,-398.24"/>
<text text-anchor="start" x="554.25" y="-384.74" font-family="Helvetica,sans-Serif" font-size="10.00">TPriorityValue&lt; std</text>
<text text-anchor="start" x="554.25" y="-373.49" font-family="Helvetica,sans-Serif" font-size="10.00">::vector&lt; std::vector</text>
<text text-anchor="middle" x="596.62" y="-362.24" font-family="Helvetica,sans-Serif" font-size="10.00">&lt; Float_t &gt; &gt; &gt;</text>
</a>
</g>
</g>
<!-- Node17&#45;&gt;Node5 -->
<g id="edge17_Node000005_Node000017" class="edge">
<title>Node17&#45;&gt;Node5</title>
<g id="a_edge17_Node000005_Node000017"><a xlink:title=" ">
<path fill="none" stroke="#9a32cd" stroke-dasharray="5,2" d="M658.07,-362.92C696.01,-356.94 745,-355.03 784.25,-373.12 824.19,-391.52 852.07,-439.63 862.66,-460.49"/>
<polygon fill="#9a32cd" stroke="#9a32cd" points="657.93,-359.39 648.67,-364.54 659.12,-366.29 657.93,-359.39"/>
</a>
</g>
<text text-anchor="middle" x="737.38" y="-374.87" font-family="Helvetica,sans-Serif" font-size="10.00" fill="grey"> fENGCoefficients</text>
</g>
<!-- Node18 -->
<g id="Node000018" class="node">
<title>Node18</title>
<g id="a_Node000018"><a xlink:title=" ">
<polygon fill="white" stroke="#666666" points="443.5,-392.62 329.25,-392.62 329.25,-362.12 443.5,-362.12 443.5,-392.62"/>
<text text-anchor="start" x="337.25" y="-379.12" font-family="Helvetica,sans-Serif" font-size="10.00">std::vector&lt; std::vector</text>
<text text-anchor="middle" x="386.38" y="-367.87" font-family="Helvetica,sans-Serif" font-size="10.00">&lt; Float_t &gt; &gt;</text>
</a>
</g>
</g>
<!-- Node18&#45;&gt;Node17 -->
<g id="edge18_Node000017_Node000018" class="edge">
<title>Node18&#45;&gt;Node17</title>
<g id="a_edge18_Node000017_Node000018"><a xlink:title=" ">
<path fill="none" stroke="#9a32cd" stroke-dasharray="5,2" d="M455.24,-377.37C484.8,-377.37 518.82,-377.37 545.97,-377.37"/>
<polygon fill="#9a32cd" stroke="#9a32cd" points="455.24,-373.87 445.24,-377.37 455.24,-380.87 455.24,-373.87"/>
</a>
</g>
<text text-anchor="middle" x="482.12" y="-379.12" font-family="Helvetica,sans-Serif" font-size="10.00" fill="grey"> fValue</text>
</g>
<!-- Node19 -->
<g id="Node000019" class="node">
<title>Node19</title>
<g id="a_Node000019"><a xlink:title=" ">
<polygon fill="white" stroke="#666666" points="652.25,-338.24 541,-338.24 541,-296.49 652.25,-296.49 652.25,-338.24"/>
<text text-anchor="start" x="549" y="-324.74" font-family="Helvetica,sans-Serif" font-size="10.00">TPriorityValue&lt; std</text>
<text text-anchor="start" x="549" y="-313.49" font-family="Helvetica,sans-Serif" font-size="10.00">::vector&lt; std::pair</text>
<text text-anchor="middle" x="596.62" y="-302.24" font-family="Helvetica,sans-Serif" font-size="10.00">&lt; double, double &gt; &gt; &gt;</text>
</a>
</g>
</g>
<!-- Node19&#45;&gt;Node5 -->
<g id="edge19_Node000005_Node000019" class="edge">
<title>Node19&#45;&gt;Node5</title>
<g id="a_edge19_Node000005_Node000019"><a xlink:title=" ">
<path fill="none" stroke="#9a32cd" stroke-dasharray="5,2" d="M663.61,-320.71C709.02,-324.09 764.57,-330.65 784.25,-343.12 785.73,-344.05 841.76,-430.7 860.98,-460.46"/>
<polygon fill="#9a32cd" stroke="#9a32cd" points="664.04,-317.23 653.82,-320.03 663.55,-324.22 664.04,-317.23"/>
</a>
</g>
<text text-anchor="middle" x="737.38" y="-344.87" font-family="Helvetica,sans-Serif" font-size="10.00" fill="grey"> fENGRanges</text>
</g>
<!-- Node20 -->
<g id="Node000020" class="node">
<title>Node20</title>
<g id="a_Node000020"><a xlink:title=" ">
<polygon fill="white" stroke="#666666" points="437.88,-332.62 334.88,-332.62 334.88,-302.12 437.88,-302.12 437.88,-332.62"/>
<text text-anchor="start" x="342.88" y="-319.12" font-family="Helvetica,sans-Serif" font-size="10.00">std::vector&lt; std::pair</text>
<text text-anchor="middle" x="386.38" y="-307.87" font-family="Helvetica,sans-Serif" font-size="10.00">&lt; double, double &gt; &gt;</text>
</a>
</g>
</g>
<!-- Node20&#45;&gt;Node19 -->
<g id="edge20_Node000019_Node000020" class="edge">
<title>Node20&#45;&gt;Node19</title>
<g id="a_edge20_Node000019_Node000020"><a xlink:title=" ">
<path fill="none" stroke="#9a32cd" stroke-dasharray="5,2" d="M449.57,-317.37C478.58,-317.37 512.81,-317.37 540.83,-317.37"/>
<polygon fill="#9a32cd" stroke="#9a32cd" points="449.83,-313.87 439.83,-317.37 449.83,-320.87 449.83,-313.87"/>
</a>
</g>
<text text-anchor="middle" x="482.12" y="-319.12" font-family="Helvetica,sans-Serif" font-size="10.00" fill="grey"> fValue</text>
</g>
<!-- Node21 -->
<g id="Node000021" class="node">
<title>Node21</title>
<g id="a_Node000021"><a xlink:title=" ">
<polygon fill="white" stroke="#666666" points="647,-229.62 546.25,-229.62 546.25,-199.12 647,-199.12 647,-229.62"/>
<text text-anchor="start" x="554.25" y="-216.12" font-family="Helvetica,sans-Serif" font-size="10.00">TPriorityValue&lt; std</text>
<text text-anchor="middle" x="596.62" y="-204.87" font-family="Helvetica,sans-Serif" font-size="10.00">::vector&lt; double &gt; &gt;</text>
</a>
</g>
</g>
<!-- Node21&#45;&gt;Node5 -->
<g id="edge21_Node000005_Node000021" class="edge">
<title>Node21&#45;&gt;Node5</title>
<g id="a_edge21_Node000005_Node000021"><a xlink:title=" ">
<path fill="none" stroke="#9a32cd" stroke-dasharray="5,2" d="M653.69,-195.89C694.87,-186.16 749.47,-181.86 784.25,-212.87 810.38,-236.16 790.46,-336.4 802.25,-369.37 815.39,-406.1 844.09,-443.06 858.6,-460.31"/>
<polygon fill="#9a32cd" stroke="#9a32cd" points="653.03,-192.45 644.2,-198.3 654.75,-199.23 653.03,-192.45"/>
</a>
</g>
<text text-anchor="middle" x="737.38" y="-270.87" font-family="Helvetica,sans-Serif" font-size="10.00" fill="grey"> fCFDCoefficients</text>
<text text-anchor="middle" x="737.38" y="-259.62" font-family="Helvetica,sans-Serif" font-size="10.00" fill="grey">fCTCoefficients</text>
<text text-anchor="middle" x="737.38" y="-248.37" font-family="Helvetica,sans-Serif" font-size="10.00" fill="grey">fEFFCoefficients</text>
<text text-anchor="middle" x="737.38" y="-237.12" font-family="Helvetica,sans-Serif" font-size="10.00" fill="grey">fENGChi2</text>
<text text-anchor="middle" x="737.38" y="-225.87" font-family="Helvetica,sans-Serif" font-size="10.00" fill="grey">fLEDCoefficients</text>
<text text-anchor="middle" x="737.38" y="-214.62" font-family="Helvetica,sans-Serif" font-size="10.00" fill="grey">fTIMECoefficients</text>
</g>
<!-- Node22 -->
<g id="Node000022" class="node">
<title>Node22</title>
<g id="a_Node000022"><a xlink:title=" ">
<polygon fill="white" stroke="#666666" points="439.38,-107.99 333.38,-107.99 333.38,-88.74 439.38,-88.74 439.38,-107.99"/>
<text text-anchor="middle" x="386.38" y="-94.49" font-family="Helvetica,sans-Serif" font-size="10.00">std::vector&lt; double &gt;</text>
</a>
</g>
</g>
<!-- Node22&#45;&gt;Node1 -->
<g id="edge33_Node000001_Node000022" class="edge">
<title>Node22&#45;&gt;Node1</title>
<g id="a_edge33_Node000001_Node000022"><a xlink:title=" ">
<path fill="none" stroke="#9a32cd" stroke-dasharray="5,2" d="M423.34,-84.27C464.36,-69.48 533.77,-48.37 595.62,-48.37 595.62,-48.37 595.62,-48.37 1074.38,-48.37 1152.37,-48.37 1234.08,-104.33 1264.57,-127.5"/>
<polygon fill="#9a32cd" stroke="#9a32cd" points="422.14,-80.98 413.97,-87.72 424.57,-87.55 422.14,-80.98"/>
</a>
</g>
<text text-anchor="middle" x="868.38" y="-50.12" font-family="Helvetica,sans-Serif" font-size="10.00" fill="grey"> fAddBackEnergy</text>
</g>
<!-- Node22&#45;&gt;Node21 -->
<g id="edge22_Node000021_Node000022" class="edge">
<title>Node22&#45;&gt;Node21</title>
<g id="a_edge22_Node000021_Node000022"><a xlink:title=" ">
<path fill="none" stroke="#9a32cd" stroke-dasharray="5,2" d="M407.78,-115.3C432.97,-135.52 477.77,-169.23 520.75,-190.37 528.71,-194.28 537.46,-197.75 546.08,-200.76"/>
<polygon fill="#9a32cd" stroke="#9a32cd" points="410.27,-112.82 400.3,-109.23 405.85,-118.25 410.27,-112.82"/>
</a>
</g>
<text text-anchor="middle" x="482.12" y="-181.82" font-family="Helvetica,sans-Serif" font-size="10.00" fill="grey"> fValue</text>
</g>
<!-- Node23 -->
<g id="Node000023" class="node">
<title>Node23</title>
<g id="a_Node000023"><a xlink:title=" ">
<polygon fill="white" stroke="#666666" points="647.75,-278.62 545.5,-278.62 545.5,-248.12 647.75,-248.12 647.75,-278.62"/>
<text text-anchor="start" x="553.5" y="-265.12" font-family="Helvetica,sans-Serif" font-size="10.00">TPriorityValue&lt; std</text>
<text text-anchor="middle" x="596.62" y="-253.87" font-family="Helvetica,sans-Serif" font-size="10.00">::vector&lt; Float_t &gt; &gt;</text>
</a>
</g>
</g>
<!-- Node23&#45;&gt;Node5 -->
<g id="edge23_Node000005_Node000023" class="edge">
<title>Node23&#45;&gt;Node5</title>
<g id="a_edge23_Node000005_Node000023"><a xlink:title=" ">
<path fill="none" stroke="#9a32cd" stroke-dasharray="5,2" d="M658.74,-276.49C711.35,-288.02 779.54,-303.64 784.25,-308.12 804.81,-327.67 790.44,-343.57 802.25,-369.37 818.58,-405.03 846.05,-442.78 859.49,-460.32"/>
<polygon fill="#9a32cd" stroke="#9a32cd" points="659.78,-273.13 649.26,-274.42 658.28,-279.97 659.78,-273.13"/>
</a>
</g>
<text text-anchor="middle" x="737.38" y="-309.87" font-family="Helvetica,sans-Serif" font-size="10.00" fill="grey"> fENGDriftCoefficents</text>
</g>
<!-- Node24 -->
<g id="Node000024" class="node">
<title>Node24</title>
<g id="a_Node000024"><a xlink:title=" ">
<polygon fill="white" stroke="#666666" points="440.12,-272.99 332.62,-272.99 332.62,-253.74 440.12,-253.74 440.12,-272.99"/>
<text text-anchor="middle" x="386.38" y="-259.49" font-family="Helvetica,sans-Serif" font-size="10.00">std::vector&lt; Float_t &gt;</text>
</a>
</g>
</g>
<!-- Node24&#45;&gt;Node23 -->
<g id="edge24_Node000023_Node000024" class="edge">
<title>Node24&#45;&gt;Node23</title>
<g id="a_edge24_Node000023_Node000024"><a xlink:title=" ">
<path fill="none" stroke="#9a32cd" stroke-dasharray="5,2" d="M451.71,-263.37C481.77,-263.37 517.04,-263.37 545.14,-263.37"/>
<polygon fill="#9a32cd" stroke="#9a32cd" points="451.98,-259.87 441.98,-263.37 451.98,-266.87 451.98,-259.87"/>
</a>
</g>
<text text-anchor="middle" x="482.12" y="-265.12" font-family="Helvetica,sans-Serif" font-size="10.00" fill="grey"> fValue</text>
</g>
<!-- Node25 -->
<g id="Node000025" class="node">
<title>Node25</title>
<g id="a_Node000025"><a xlink:href="class_t_priority_value.html" target="_top" xlink:title=" ">
<polygon fill="white" stroke="#666666" points="659.38,-180.99 533.88,-180.99 533.88,-161.74 659.38,-161.74 659.38,-180.99"/>
<text text-anchor="middle" x="596.62" y="-167.49" font-family="Helvetica,sans-Serif" font-size="10.00">TPriorityValue&lt; TGraph &gt;</text>
</a>
</g>
</g>
<!-- Node25&#45;&gt;Node5 -->
<g id="edge25_Node000005_Node000025" class="edge">
<title>Node25&#45;&gt;Node5</title>
<g id="a_edge25_Node000005_Node000025"><a xlink:title=" ">
<path fill="none" stroke="#9a32cd" stroke-dasharray="5,2" d="M671.09,-162.35C716.05,-158.63 767.99,-158.14 784.25,-173.12 816.46,-202.79 787.97,-327.96 802.25,-369.37 814.97,-406.25 843.86,-443.14 858.5,-460.35"/>
<polygon fill="#9a32cd" stroke="#9a32cd" points="670.98,-158.85 661.34,-163.23 671.61,-165.82 670.98,-158.85"/>
</a>
</g>
<text text-anchor="middle" x="737.38" y="-174.87" font-family="Helvetica,sans-Serif" font-size="10.00" fill="grey"> fEnergyNonlinearity</text>
</g>
<!-- Node26 -->
<g id="Node000026" class="node">
<title>Node26</title>
<g id="a_Node000026"><a xlink:href="struct_t_channel_1_1_wave_form_shape_par.html" target="_top" xlink:title=" ">
<polygon fill="white" stroke="#666666" points="672.5,-143.99 520.75,-143.99 520.75,-124.74 672.5,-124.74 672.5,-143.99"/>
<text text-anchor="middle" x="596.62" y="-130.49" font-family="Helvetica,sans-Serif" font-size="10.00">TChannel::WaveFormShapePar</text>
</a>
</g>
</g>
<!-- Node26&#45;&gt;Node5 -->
<g id="edge26_Node000005_Node000026" class="edge">
<title>Node26&#45;&gt;Node5</title>
<g id="a_edge26_Node000005_Node000026"><a xlink:title=" ">
<path fill="none" stroke="#9a32cd" stroke-dasharray="5,2" d="M643.72,-121.91C686.16,-113.5 747.9,-109.58 784.25,-145.12 820,-180.07 786.22,-322.01 802.25,-369.37 814.76,-406.32 843.74,-443.18 858.46,-460.36"/>
<polygon fill="#9a32cd" stroke="#9a32cd" points="643.08,-118.46 634.04,-123.98 644.55,-125.31 643.08,-118.46"/>
</a>
</g>
<text text-anchor="middle" x="737.38" y="-146.87" font-family="Helvetica,sans-Serif" font-size="10.00" fill="grey"> WaveFormShape</text>
</g>
<!-- Node27 -->
<g id="Node000027" class="node">
<title>Node27</title>
<g id="a_Node000027"><a xlink:title=" ">
<polygon fill="white" stroke="#666666" points="665,-106.62 528.25,-106.62 528.25,-76.12 665,-76.12 665,-106.62"/>
<text text-anchor="start" x="536.25" y="-93.12" font-family="Helvetica,sans-Serif" font-size="10.00">std::unordered_map</text>
<text text-anchor="middle" x="596.62" y="-81.87" font-family="Helvetica,sans-Serif" font-size="10.00">&lt; unsigned int, TChannel * &gt;</text>
</a>
</g>
</g>
<!-- Node27&#45;&gt;Node5 -->
<g id="edge27_Node000005_Node000027" class="edge">
<title>Node27&#45;&gt;Node5</title>
<g id="a_edge27_Node000005_Node000027"><a xlink:title=" ">
<path fill="none" stroke="#9a32cd" stroke-dasharray="5,2" d="M670.97,-74.12C709.75,-69.63 755.22,-72.51 784.25,-101.12 805.53,-122.08 792.86,-341.01 802.25,-369.37 814.52,-406.4 843.61,-443.22 858.41,-460.38"/>
<polygon fill="#9a32cd" stroke="#9a32cd" points="670.64,-70.63 661.2,-75.44 671.58,-77.56 670.64,-70.63"/>
</a>
</g>
<text text-anchor="middle" x="737.38" y="-102.87" font-family="Helvetica,sans-Serif" font-size="10.00" fill="grey"> fChannelMap</text>
</g>
<!-- Node28 -->
<g id="Node000028" class="node">
<title>Node28</title>
<g id="a_Node000028"><a xlink:title=" ">
<polygon fill="white" stroke="#666666" points="647,-844.62 546.25,-844.62 546.25,-814.12 647,-814.12 647,-844.62"/>
<text text-anchor="start" x="554.25" y="-831.12" font-family="Helvetica,sans-Serif" font-size="10.00">std::unordered_map</text>
<text text-anchor="middle" x="596.62" y="-819.87" font-family="Helvetica,sans-Serif" font-size="10.00">&lt; unsigned int, int &gt;</text>
</a>
</g>
</g>
<!-- Node28&#45;&gt;Node5 -->
<g id="edge28_Node000005_Node000028" class="edge">
<title>Node28&#45;&gt;Node5</title>
<g id="a_edge28_Node000005_Node000028"><a xlink:title=" ">
<path fill="none" stroke="#9a32cd" stroke-dasharray="5,2" d="M658.84,-837.51C699.23,-839.34 750.7,-834.39 784.25,-804.37 834.9,-759.04 861.17,-530.5 866.4,-480.18"/>
<polygon fill="#9a32cd" stroke="#9a32cd" points="659.2,-834.03 649,-836.91 658.77,-841.02 659.2,-834.03"/>
</a>
</g>
<text text-anchor="middle" x="737.38" y="-839.02" font-family="Helvetica,sans-Serif" font-size="10.00" fill="grey"> fMissingChannelMap</text>
</g>
<!-- Node29 -->
<g id="Node000029" class="node">
<title>Node29</title>
<g id="a_Node000029"><a xlink:title=" ">
<polygon fill="white" stroke="#666666" points="647,-795.62 546.25,-795.62 546.25,-765.12 647,-765.12 647,-795.62"/>
<text text-anchor="start" x="554.25" y="-782.12" font-family="Helvetica,sans-Serif" font-size="10.00">std::unordered_map</text>
<text text-anchor="middle" x="596.62" y="-770.87" font-family="Helvetica,sans-Serif" font-size="10.00">&lt; int, TChannel * &gt;</text>
</a>
</g>
</g>
<!-- Node29&#45;&gt;Node5 -->
<g id="edge29_Node000005_Node000029" class="edge">
<title>Node29&#45;&gt;Node5</title>
<g id="a_edge29_Node000005_Node000029"><a xlink:title=" ">
<path fill="none" stroke="#9a32cd" stroke-dasharray="5,2" d="M658.38,-789.23C698.57,-791.59 749.99,-787.43 784.25,-758.37 828.89,-720.49 859.27,-526.72 865.98,-480.35"/>
<polygon fill="#9a32cd" stroke="#9a32cd" points="658.84,-785.76 648.61,-788.5 658.32,-792.74 658.84,-785.76"/>
</a>
</g>
<text text-anchor="middle" x="737.38" y="-791.2" font-family="Helvetica,sans-Serif" font-size="10.00" fill="grey"> fChannelNumberMap</text>
</g>
<!-- Node30 -->
<g id="Node000030" class="node">
<title>Node30</title>
<g id="a_Node000030"><a xlink:href="class_t_transient_bits.html" target="_top" xlink:title=" ">
<polygon fill="white" stroke="#666666" points="934.5,-359.99 802.25,-359.99 802.25,-340.74 934.5,-340.74 934.5,-359.99"/>
<text text-anchor="middle" x="868.38" y="-346.49" font-family="Helvetica,sans-Serif" font-size="10.00">TTransientBits&lt; UChar_t &gt;</text>
</a>
</g>
</g>
<!-- Node30&#45;&gt;Node1 -->
<g id="edge34_Node000001_Node000030" class="edge">
<title>Node30&#45;&gt;Node1</title>
<g id="a_edge34_Node000001_Node000030"><a xlink:title=" ">
<path fill="none" stroke="#9a32cd" stroke-dasharray="5,2" d="M898.68,-335.05C977.52,-293.85 1192.6,-181.47 1257.93,-147.33"/>
<polygon fill="#9a32cd" stroke="#9a32cd" points="897.07,-331.94 889.83,-339.68 900.31,-338.15 897.07,-331.94"/>
</a>
</g>
<text text-anchor="middle" x="1073.38" y="-270.26" font-family="Helvetica,sans-Serif" font-size="10.00" fill="grey"> fSiLiHitBits</text>
</g>
<!-- Node30&#45;&gt;Node2 -->
<g id="edge31_Node000002_Node000030" class="edge">
<title>Node30&#45;&gt;Node2</title>
<g id="a_edge31_Node000002_Node000030"><a xlink:title=" ">
<path fill="none" stroke="#9a32cd" stroke-dasharray="5,2" d="M896.23,-366.24C938.66,-391.32 1020.01,-439.41 1055.32,-460.28"/>
<polygon fill="#9a32cd" stroke="#9a32cd" points="898.03,-363.24 887.64,-361.16 894.46,-369.26 898.03,-363.24"/>
</a>
</g>
<text text-anchor="middle" x="977.25" y="-429.88" font-family="Helvetica,sans-Serif" font-size="10.00" fill="grey"> fBitFlags</text>
</g>
<!-- Node31 -->
<g id="Node000031" class="node">
<title>Node31</title>
<g id="a_Node000031"><a xlink:title=" ">
<polygon fill="white" stroke="#666666" points="1126.75,-19.99 1020,-19.99 1020,-0.74 1126.75,-0.74 1126.75,-19.99"/>
<text text-anchor="middle" x="1073.38" y="-6.49" font-family="Helvetica,sans-Serif" font-size="10.00">std::vector&lt; int16_t &gt;</text>
</a>
</g>
</g>
<!-- Node31&#45;&gt;Node1 -->
<g id="edge32_Node000001_Node000031" class="edge">
<title>Node31&#45;&gt;Node1</title>
<g id="a_edge32_Node000001_Node000031"><a xlink:title=" ">
<path fill="none" stroke="#9a32cd" stroke-dasharray="5,2" d="M1138.56,-0.37C1170.19,1.05 1207.2,-2.94 1234,-23.12 1268.03,-48.73 1275.13,-104.56 1276.61,-127.36"/>
<polygon fill="#9a32cd" stroke="#9a32cd" points="1138.44,3.13 1128.69,-1.02 1138.89,-3.86 1138.44,3.13"/>
</a>
</g>
<text text-anchor="middle" x="1189.38" y="-24.87" font-family="Helvetica,sans-Serif" font-size="10.00" fill="grey"> fAddBackSegments</text>
</g>
</g>
</svg>

<g id="navigator" transform="translate(0 0)" fill="#404254">
  <rect fill="#f2f5e9" fill-opacity="0.5" stroke="#606060" stroke-width=".5" x="0" y="0" width="60" height="60"/>
  <use id="zoomplus" xlink:href="#zoomPlus" x="17" y="9" onmousedown="handleZoom(evt,'in')"/>
  <use id="zoomminus" xlink:href="#zoomMin" x="42" y="9" onmousedown="handleZoom(evt,'out')"/>
  <use id="reset" xlink:href="#resetDef" x="30" y="36" onmousedown="handleReset()"/>
   <use id="arrowup" xlink:href="#arrowUp" x="0" y="0" onmousedown="handlePan(0,-1)"/>
  <use id="arrowright" xlink:href="#arrowRight" x="0" y="0" onmousedown="handlePan(1,0)"/>
  <use id="arrowdown" xlink:href="#arrowDown" x="0" y="0" onmousedown="handlePan(0,1)"/>
  <use id="arrowleft" xlink:href="#arrowLeft" x="0" y="0" onmousedown="handlePan(-1,0)"/>
</g>
<svg viewBox="0 0 15 15" width="100%" height="30px" preserveAspectRatio="xMaxYMin meet">
 <g id="arrow_out" transform="scale(0.3 0.3)">
  <a xlink:href="class_t_si_li_hit__coll__graph_org.svg" target="_base">
   <rect id="button" ry="5" rx="5" y="6" x="6" height="38" width="38"
        fill="#f2f5e9" fill-opacity="0.5" stroke="#606060" stroke-width="1.0"/>
   <path id="arrow"
     d="M 11.500037,31.436501 C 11.940474,20.09759 22.043105,11.32322 32.158766,21.979434 L 37.068811,17.246167 C 37.068811,17.246167 37.088388,32 37.088388,32 L 22.160133,31.978069 C 22.160133,31.978069 26.997745,27.140456 26.997745,27.140456 C 18.528582,18.264221 13.291696,25.230495 11.500037,31.436501 z"
     style="fill:#404040;"/>
  </a>
 </g>
</svg>

<style type='text/css'>
<![CDATA[
[data-mouse-over-selected='false'] { opacity: 0.7; }
[data-mouse-over-selected='true']  { opacity: 1.0; }
]]>
</style>
<script type="application/ecmascript"><![CDATA[
document.addEventListener('DOMContentLoaded', (event) => {
  highlightEdges();
  highlightAdjacentNodes();
});
]]></script>
</svg>
