<?xml version="1.0" encoding="UTF-8" standalone="no"?>
<!DOCTYPE svg PUBLIC "-//W3C//DTD SVG 1.1//EN"
 "http://www.w3.org/Graphics/SVG/1.1/DTD/svg11.dtd">
<!-- Generated by graphviz version 9.0.0 (20230911.1827)
 -->
<!-- Title: TFragment Pages: 1 -->
<!--zoomable 1123 -->

<svg id="main" version="1.1" xmlns="http://www.w3.org/2000/svg" xmlns:xlink="http://www.w3.org/1999/xlink" xml:space="preserve" onload="init(evt)">
<style type="text/css"><![CDATA[
.node, .edge {opacity: 0.7;}
.node.selected, .edge.selected {opacity: 1;}
.edge:hover path { stroke: red; }
.edge:hover polygon { stroke: red; fill: red; }
]]></style>

<defs>
  <circle id="rim" cx="0" cy="0" r="7"/>
  <circle id="rim2" cx="0" cy="0" r="3.5"/>
  <g id="zoomPlus">
    <use xlink:href="#rim" fill="#404040"><set attributeName="fill" to="#808080" begin="zoomplus.mouseover" end="zoomplus.mouseout"/></use>
    <path d="M-4,0h8M0,-4v8" fill="none" stroke="white" stroke-width="1.5" pointer-events="none"/>
  </g>
  <g id="zoomMin">
    <use xlink:href="#rim" fill="#404040"><set attributeName="fill" to="#808080" begin="zoomminus.mouseover" end="zoomminus.mouseout"/></use>
    <path d="M-4,0h8" fill="none" stroke="white" stroke-width="1.5" pointer-events="none"/>
  </g>
  <g id="arrowUp" transform="translate(30 24)">
    <use xlink:href="#rim"/>
    <path pointer-events="none" fill="none" stroke="white" stroke-width="1.5" d="M0,-3.0v7 M-2.5,-0.5L0,-3.0L2.5,-0.5"/>
  </g>
  <g id="arrowRight" transform="rotate(90) translate(36 -43)">
    <use xlink:href="#rim"/>
    <path pointer-events="none" fill="none" stroke="white" stroke-width="1.5" d="M0,-3.0v7 M-2.5,-0.5L0,-3.0L2.5,-0.5"/>
  </g>
  <g id="arrowDown" transform="rotate(180) translate(-30 -48)">
    <use xlink:href="#rim"/>
    <path pointer-events="none" fill="none" stroke="white" stroke-width="1.5" d="M0,-3.0v7 M-2.5,-0.5L0,-3.0L2.5,-0.5"/>
  </g>
  <g id="arrowLeft" transform="rotate(270) translate(-36 17)">
    <use xlink:href="#rim"/>
    <path pointer-events="none" fill="none" stroke="white" stroke-width="1.5" d="M0,-3.0v7 M-2.5,-0.5L0,-3.0L2.5,-0.5"/>
  </g>
  <g id="resetDef">
    <use xlink:href="#rim2" fill="#404040"><set attributeName="fill" to="#808080" begin="reset.mouseover" end="reset.mouseout"/></use>
  </g>
</defs>
<script type="application/ecmascript">
var viewWidth = 1358;
var viewHeight = 1123;
var sectionId = 'dynsection-1';
</script>
<script type="application/ecmascript" xlink:href="svg.min.js"/>
<svg id="graph" class="graph">
<g id="viewport">
<title>TFragment</title>
<!-- Node1 -->
<g id="Node000001" class="node">
<title>Node1</title>
<g id="a_Node000001"><a xlink:title=" ">
<polygon fill="#999999" stroke="#666666" points="1349.75,-480.88 1286.5,-480.88 1286.5,-461.62 1349.75,-461.62 1349.75,-480.88"/>
<text text-anchor="middle" x="1318.12" y="-467.38" font-family="Helvetica,sans-Serif" font-size="10.00">TFragment</text>
</a>
</g>
</g>
<!-- Node2 -->
<g id="Node000002" class="node">
<title>Node2</title>
<g id="a_Node000002"><a xlink:href="class_t_detector_hit.html" target="_top" xlink:title=" ">
<polygon fill="white" stroke="#666666" points="1189,-480.88 1117.5,-480.88 1117.5,-461.62 1189,-461.62 1189,-480.88"/>
<text text-anchor="middle" x="1153.25" y="-467.38" font-family="Helvetica,sans-Serif" font-size="10.00">TDetectorHit</text>
</a>
</g>
</g>
<!-- Node2&#45;&gt;Node1 -->
<g id="edge1_Node000001_Node000002" class="edge">
<title>Node2&#45;&gt;Node1</title>
<g id="a_edge1_Node000001_Node000002"><a xlink:title=" ">
<path fill="none" stroke="#63b8ff" d="M1200.49,-471.25C1227.89,-471.25 1261.89,-471.25 1286.09,-471.25"/>
<polygon fill="#63b8ff" stroke="#63b8ff" points="1200.7,-467.75 1190.7,-471.25 1200.7,-474.75 1200.7,-467.75"/>
</a>
</g>
</g>
<!-- Node3 -->
<g id="Node000003" class="node">
<title>Node3</title>
<g id="a_Node000003"><a xlink:title=" ">
<polygon fill="white" stroke="#666666" points="183.75,-825.88 133.25,-825.88 133.25,-806.62 183.75,-806.62 183.75,-825.88"/>
<text text-anchor="middle" x="158.5" y="-812.38" font-family="Helvetica,sans-Serif" font-size="10.00">TObject</text>
</a>
</g>
</g>
<!-- Node3&#45;&gt;Node2 -->
<g id="edge2_Node000002_Node000003" class="edge">
<title>Node3&#45;&gt;Node2</title>
<g id="a_edge2_Node000002_Node000003"><a xlink:title=" ">
<path fill="none" stroke="#63b8ff" d="M195.49,-816.25C241.02,-816.25 321.82,-816.25 391,-816.25 391,-816.25 391,-816.25 948.88,-816.25 1028.83,-816.25 1129.28,-537.77 1148.86,-481.2"/>
<polygon fill="#63b8ff" stroke="#63b8ff" points="195.68,-812.75 185.68,-816.25 195.68,-819.75 195.68,-812.75"/>
</a>
</g>
</g>
<!-- Node14 -->
<g id="Node000014" class="node">
<title>Node14</title>
<g id="a_Node000014"><a xlink:href="class_t_mnemonic.html" target="_top" xlink:title=" ">
<polygon fill="white" stroke="#666666" points="425.5,-770.88 358.5,-770.88 358.5,-751.62 425.5,-751.62 425.5,-770.88"/>
<text text-anchor="middle" x="392" y="-757.38" font-family="Helvetica,sans-Serif" font-size="10.00">TMnemonic</text>
</a>
</g>
</g>
<!-- Node3&#45;&gt;Node14 -->
<g id="edge14_Node000014_Node000003" class="edge">
<title>Node3&#45;&gt;Node14</title>
<g id="a_edge14_Node000014_Node000003"><a xlink:title=" ">
<path fill="none" stroke="#63b8ff" d="M195,-807.75C198.55,-806.91 202.1,-806.06 205.5,-805.25 258.95,-792.52 321.08,-777.8 358.16,-769.02"/>
<polygon fill="#63b8ff" stroke="#63b8ff" points="194.23,-804.34 185.32,-810.07 195.86,-811.15 194.23,-804.34"/>
</a>
</g>
</g>
<!-- Node33 -->
<g id="Node000033" class="node">
<title>Node33</title>
<g id="a_Node000033"><a xlink:href="class_t_singleton.html" target="_top" xlink:title=" ">
<polygon fill="white" stroke="#666666" points="445,-980.88 339,-980.88 339,-961.62 445,-961.62 445,-980.88"/>
<text text-anchor="middle" x="392" y="-967.38" font-family="Helvetica,sans-Serif" font-size="10.00">TSingleton&lt; TPPG &gt;</text>
</a>
</g>
</g>
<!-- Node3&#45;&gt;Node33 -->
<g id="edge35_Node000033_Node000003" class="edge">
<title>Node3&#45;&gt;Node33</title>
<g id="a_edge35_Node000033_Node000003"><a xlink:title=" ">
<path fill="none" stroke="#63b8ff" d="M178.54,-833.93C208.63,-861.17 269.91,-913.75 329.25,-947.25 338.87,-952.68 349.95,-957.41 360.06,-961.21"/>
<polygon fill="#63b8ff" stroke="#63b8ff" points="181.09,-831.53 171.35,-827.36 176.37,-836.69 181.09,-831.53"/>
</a>
</g>
</g>
<!-- Node4 -->
<g id="Node000004" class="node">
<title>Node4</title>
<g id="a_Node000004"><a xlink:title=" ">
<polygon fill="white" stroke="#666666" points="1002.38,-406.88 893.38,-406.88 893.38,-387.62 1002.38,-387.62 1002.38,-406.88"/>
<text text-anchor="middle" x="947.88" y="-393.38" font-family="Helvetica,sans-Serif" font-size="10.00">std::vector&lt; Short_t &gt;</text>
</a>
</g>
</g>
<!-- Node4&#45;&gt;Node2 -->
<g id="edge3_Node000002_Node000004" class="edge">
<title>Node4&#45;&gt;Node2</title>
<g id="a_edge3_Node000002_Node000004"><a xlink:title=" ">
<path fill="none" stroke="#9a32cd" stroke-dasharray="5,2" d="M1013.94,-406.91C1036.5,-412.25 1061.2,-420.45 1081.5,-433 1091.74,-439.33 1089.47,-446.59 1099.5,-453.25 1104.82,-456.78 1110.9,-459.69 1117,-462.06"/>
<polygon fill="#9a32cd" stroke="#9a32cd" points="1014.72,-403.5 1004.2,-404.77 1013.22,-410.34 1014.72,-403.5"/>
</a>
</g>
<text text-anchor="middle" x="1056.75" y="-435" font-family="Helvetica,sans-Serif" font-size="10.00" fill="grey"> fWaveform</text>
</g>
<!-- Node5 -->
<g id="Node000005" class="node">
<title>Node5</title>
<g id="a_Node000005"><a xlink:href="class_t_channel.html" target="_top" xlink:title=" ">
<polygon fill="white" stroke="#666666" points="976.5,-480.88 919.25,-480.88 919.25,-461.62 976.5,-461.62 976.5,-480.88"/>
<text text-anchor="middle" x="947.88" y="-467.38" font-family="Helvetica,sans-Serif" font-size="10.00">TChannel</text>
</a>
</g>
</g>
<!-- Node5&#45;&gt;Node2 -->
<g id="edge4_Node000002_Node000005" class="edge">
<title>Node5&#45;&gt;Node2</title>
<g id="a_edge4_Node000002_Node000005"><a xlink:title=" ">
<path fill="none" stroke="#9a32cd" stroke-dasharray="5,2" d="M988.18,-471.25C1025.58,-471.25 1081.33,-471.25 1117.25,-471.25"/>
<polygon fill="#9a32cd" stroke="#9a32cd" points="988.24,-467.75 978.24,-471.25 988.24,-474.75 988.24,-467.75"/>
</a>
</g>
<text text-anchor="middle" x="1056.75" y="-473" font-family="Helvetica,sans-Serif" font-size="10.00" fill="grey"> fChannel</text>
</g>
<!-- Node6 -->
<g id="Node000006" class="node">
<title>Node6</title>
<g id="a_Node000006"><a xlink:title=" ">
<polygon fill="white" stroke="#666666" points="702.88,-646.88 649.38,-646.88 649.38,-627.62 702.88,-627.62 702.88,-646.88"/>
<text text-anchor="middle" x="676.12" y="-633.38" font-family="Helvetica,sans-Serif" font-size="10.00">TNamed</text>
</a>
</g>
</g>
<!-- Node6&#45;&gt;Node5 -->
<g id="edge5_Node000005_Node000006" class="edge">
<title>Node6&#45;&gt;Node5</title>
<g id="a_edge5_Node000005_Node000006"><a xlink:title=" ">
<path fill="none" stroke="#63b8ff" d="M714.4,-647.75C754.47,-656.75 818.5,-664.29 863.75,-636.25 921.55,-600.43 940.63,-510.78 945.47,-481.02"/>
<polygon fill="#63b8ff" stroke="#63b8ff" points="715.29,-644.37 704.75,-645.43 713.65,-651.17 715.29,-644.37"/>
</a>
</g>
</g>
<!-- Node7 -->
<g id="Node000007" class="node">
<title>Node7</title>
<g id="a_Node000007"><a xlink:href="class_t_priority_value.html" target="_top" xlink:title=" ">
<polygon fill="white" stroke="#666666" points="728,-609.88 624.25,-609.88 624.25,-590.62 728,-590.62 728,-609.88"/>
<text text-anchor="middle" x="676.12" y="-596.38" font-family="Helvetica,sans-Serif" font-size="10.00">TPriorityValue&lt; int &gt;</text>
</a>
</g>
</g>
<!-- Node7&#45;&gt;Node5 -->
<g id="edge6_Node000005_Node000007" class="edge">
<title>Node7&#45;&gt;Node5</title>
<g id="a_edge6_Node000005_Node000007"><a xlink:title=" ">
<path fill="none" stroke="#9a32cd" stroke-dasharray="5,2" d="M739.72,-595.36C777.6,-590.23 825.76,-579.74 863.75,-558.25 898.66,-538.5 927.96,-499.44 940.43,-481.14"/>
<polygon fill="#9a32cd" stroke="#9a32cd" points="739.31,-591.88 729.82,-596.59 740.18,-598.83 739.31,-591.88"/>
</a>
</g>
<text text-anchor="middle" x="816.88" y="-624.75" font-family="Helvetica,sans-Serif" font-size="10.00" fill="grey"> fIntegration</text>
<text text-anchor="middle" x="816.88" y="-613.5" font-family="Helvetica,sans-Serif" font-size="10.00" fill="grey">fNumber</text>
<text text-anchor="middle" x="816.88" y="-602.25" font-family="Helvetica,sans-Serif" font-size="10.00" fill="grey">fStream</text>
<text text-anchor="middle" x="816.88" y="-591" font-family="Helvetica,sans-Serif" font-size="10.00" fill="grey">fTimeStampUnit</text>
</g>
<!-- Node8 -->
<g id="Node000008" class="node">
<title>Node8</title>
<g id="a_Node000008"><a xlink:title=" ">
<polygon fill="white" stroke="#666666" points="725.38,-572.5 626.88,-572.5 626.88,-542 725.38,-542 725.38,-572.5"/>
<text text-anchor="start" x="634.88" y="-559" font-family="Helvetica,sans-Serif" font-size="10.00">TPriorityValue&lt; std</text>
<text text-anchor="middle" x="676.12" y="-547.75" font-family="Helvetica,sans-Serif" font-size="10.00">::string &gt;</text>
</a>
</g>
</g>
<!-- Node8&#45;&gt;Node5 -->
<g id="edge7_Node000005_Node000008" class="edge">
<title>Node8&#45;&gt;Node5</title>
<g id="a_edge7_Node000005_Node000008"><a xlink:title=" ">
<path fill="none" stroke="#9a32cd" stroke-dasharray="5,2" d="M736.69,-550.13C774.03,-544.45 822.7,-534.81 863.75,-519.25 889.62,-509.45 916.89,-492.17 932.87,-481.24"/>
<polygon fill="#9a32cd" stroke="#9a32cd" points="736.37,-546.64 726.98,-551.54 737.39,-553.56 736.37,-546.64"/>
</a>
</g>
<text text-anchor="middle" x="816.88" y="-545" font-family="Helvetica,sans-Serif" font-size="10.00" fill="grey"> fDigitizerTypeString</text>
</g>
<!-- Node9 -->
<g id="Node000009" class="node">
<title>Node9</title>
<g id="a_Node000009"><a xlink:href="class_t_priority_value.html" target="_top" xlink:title=" ">
<polygon fill="white" stroke="#666666" points="743,-523.88 609.25,-523.88 609.25,-504.62 743,-504.62 743,-523.88"/>
<text text-anchor="middle" x="676.12" y="-510.38" font-family="Helvetica,sans-Serif" font-size="10.00">TPriorityValue&lt; EDigitizer &gt;</text>
</a>
</g>
</g>
<!-- Node9&#45;&gt;Node5 -->
<g id="edge8_Node000005_Node000009" class="edge">
<title>Node9&#45;&gt;Node5</title>
<g id="a_edge8_Node000005_Node000009"><a xlink:title=" ">
<path fill="none" stroke="#9a32cd" stroke-dasharray="5,2" d="M754.6,-505.99C788.26,-501.96 828.07,-496.61 863.75,-490.25 882.26,-486.95 902.86,-482.25 918.93,-478.35"/>
<polygon fill="#9a32cd" stroke="#9a32cd" points="754.46,-502.48 744.94,-507.13 755.28,-509.43 754.46,-502.48"/>
</a>
</g>
<text text-anchor="middle" x="816.88" y="-506" font-family="Helvetica,sans-Serif" font-size="10.00" fill="grey"> fDigitizerType</text>
</g>
<!-- Node10 -->
<g id="Node000010" class="node">
<title>Node10</title>
<g id="a_Node000010"><a xlink:href="class_t_priority_value.html" target="_top" xlink:title=" ">
<polygon fill="white" stroke="#666666" points="731.75,-486.88 620.5,-486.88 620.5,-467.62 731.75,-467.62 731.75,-486.88"/>
<text text-anchor="middle" x="676.12" y="-473.38" font-family="Helvetica,sans-Serif" font-size="10.00">TPriorityValue&lt; bool &gt;</text>
</a>
</g>
</g>
<!-- Node10&#45;&gt;Node5 -->
<g id="edge9_Node000005_Node000010" class="edge">
<title>Node10&#45;&gt;Node5</title>
<g id="a_edge9_Node000005_Node000010"><a xlink:title=" ">
<path fill="none" stroke="#9a32cd" stroke-dasharray="5,2" d="M743.35,-475.78C799.66,-474.52 877.75,-472.79 918.9,-471.87"/>
<polygon fill="#9a32cd" stroke="#9a32cd" points="743.47,-472.27 733.55,-475.99 743.63,-479.27 743.47,-472.27"/>
</a>
</g>
<text text-anchor="middle" x="816.88" y="-477" font-family="Helvetica,sans-Serif" font-size="10.00" fill="grey"> fUseCalFileInt</text>
</g>
<!-- Node11 -->
<g id="Node000011" class="node">
<title>Node11</title>
<g id="a_Node000011"><a xlink:href="class_t_priority_value.html" target="_top" xlink:title=" ">
<polygon fill="white" stroke="#666666" points="743,-449.88 609.25,-449.88 609.25,-430.62 743,-430.62 743,-449.88"/>
<text text-anchor="middle" x="676.12" y="-436.38" font-family="Helvetica,sans-Serif" font-size="10.00">TPriorityValue&lt; Long64_t &gt;</text>
</a>
</g>
</g>
<!-- Node11&#45;&gt;Node5 -->
<g id="edge10_Node000005_Node000011" class="edge">
<title>Node11&#45;&gt;Node5</title>
<g id="a_edge10_Node000005_Node000011"><a xlink:title=" ">
<path fill="none" stroke="#9a32cd" stroke-dasharray="5,2" d="M754.46,-446.5C788.1,-449.5 827.93,-453.45 863.75,-458 882.16,-460.34 902.76,-463.62 918.85,-466.33"/>
<polygon fill="#9a32cd" stroke="#9a32cd" points="755.09,-443.04 744.82,-445.65 754.47,-450.02 755.09,-443.04"/>
</a>
</g>
<text text-anchor="middle" x="816.88" y="-460" font-family="Helvetica,sans-Serif" font-size="10.00" fill="grey"> fTimeOffset</text>
</g>
<!-- Node12 -->
<g id="Node000012" class="node">
<title>Node12</title>
<g id="a_Node000012"><a xlink:href="class_t_priority_value.html" target="_top" xlink:title=" ">
<polygon fill="white" stroke="#666666" points="737,-408.88 615.25,-408.88 615.25,-389.62 737,-389.62 737,-408.88"/>
<text text-anchor="middle" x="676.12" y="-395.38" font-family="Helvetica,sans-Serif" font-size="10.00">TPriorityValue&lt; double &gt;</text>
</a>
</g>
</g>
<!-- Node12&#45;&gt;Node5 -->
<g id="edge11_Node000005_Node000012" class="edge">
<title>Node12&#45;&gt;Node5</title>
<g id="a_edge11_Node000005_Node000012"><a xlink:title=" ">
<path fill="none" stroke="#9a32cd" stroke-dasharray="5,2" d="M738.28,-387.21C785.03,-379.5 844.6,-373.42 863.75,-388 887.68,-406.23 860.48,-431.97 881.75,-453.25 891.54,-463.04 906.14,-467.63 919.03,-469.73"/>
<polygon fill="#9a32cd" stroke="#9a32cd" points="737.77,-383.74 728.5,-388.88 738.95,-390.64 737.77,-383.74"/>
</a>
</g>
<text text-anchor="middle" x="816.88" y="-435" font-family="Helvetica,sans-Serif" font-size="10.00" fill="grey"> fCFDChi2</text>
<text text-anchor="middle" x="816.88" y="-423.75" font-family="Helvetica,sans-Serif" font-size="10.00" fill="grey">fEFFChi2</text>
<text text-anchor="middle" x="816.88" y="-412.5" font-family="Helvetica,sans-Serif" font-size="10.00" fill="grey">fLEDChi2</text>
<text text-anchor="middle" x="816.88" y="-401.25" font-family="Helvetica,sans-Serif" font-size="10.00" fill="grey">fTIMEChi2</text>
<text text-anchor="middle" x="816.88" y="-390" font-family="Helvetica,sans-Serif" font-size="10.00" fill="grey">fTimeDrift</text>
</g>
<!-- Node13 -->
<g id="Node000013" class="node">
<title>Node13</title>
<g id="a_Node000013"><a xlink:href="class_t_priority_value.html" target="_top" xlink:title=" ">
<polygon fill="white" stroke="#666666" points="751.25,-770.88 601,-770.88 601,-751.62 751.25,-751.62 751.25,-770.88"/>
<text text-anchor="middle" x="676.12" y="-757.38" font-family="Helvetica,sans-Serif" font-size="10.00">TPriorityValue&lt; TMnemonic * &gt;</text>
</a>
</g>
</g>
<!-- Node13&#45;&gt;Node5 -->
<g id="edge12_Node000005_Node000013" class="edge">
<title>Node13&#45;&gt;Node5</title>
<g id="a_edge12_Node000005_Node000013"><a xlink:title=" ">
<path fill="none" stroke="#9a32cd" stroke-dasharray="5,2" d="M762.67,-768.23C797.58,-766.64 836.14,-758.6 863.75,-735.25 944.65,-666.82 947.86,-520.41 947.19,-481.12"/>
<polygon fill="#9a32cd" stroke="#9a32cd" points="762.9,-764.72 753,-768.49 763.09,-771.72 762.9,-764.72"/>
</a>
</g>
<text text-anchor="middle" x="816.88" y="-769" font-family="Helvetica,sans-Serif" font-size="10.00" fill="grey"> fMnemonic</text>
</g>
<!-- Node14&#45;&gt;Node13 -->
<g id="edge13_Node000013_Node000014" class="edge">
<title>Node14&#45;&gt;Node13</title>
<g id="a_edge13_Node000013_Node000014"><a xlink:title=" ">
<path fill="none" stroke="#9a32cd" stroke-dasharray="5,2" d="M437.31,-761.25C481.05,-761.25 548.73,-761.25 600.72,-761.25"/>
<polygon fill="#9a32cd" stroke="#9a32cd" points="437.43,-757.75 427.43,-761.25 437.43,-764.75 437.43,-757.75"/>
</a>
</g>
<text text-anchor="middle" x="527.5" y="-763" font-family="Helvetica,sans-Serif" font-size="10.00" fill="grey"> fValue</text>
</g>
<!-- Node15 -->
<g id="Node000015" class="node">
<title>Node15</title>
<g id="a_Node000015"><a xlink:title=" ">
<polygon fill="white" stroke="#666666" points="187.5,-701.88 129.5,-701.88 129.5,-682.62 187.5,-682.62 187.5,-701.88"/>
<text text-anchor="middle" x="158.5" y="-688.38" font-family="Helvetica,sans-Serif" font-size="10.00">std::string</text>
</a>
</g>
</g>
<!-- Node15&#45;&gt;Node5 -->
<g id="edge30_Node000005_Node000015" class="edge">
<title>Node15&#45;&gt;Node5</title>
<g id="a_edge30_Node000005_Node000015"><a xlink:title=" ">
<path fill="none" stroke="#9a32cd" stroke-dasharray="5,2" d="M199.17,-689.61C201.31,-689.49 203.43,-689.36 205.5,-689.25 278.6,-685.2 803.32,-700.59 863.75,-659.25 926.78,-616.13 942.52,-513.73 945.99,-481.29"/>
<polygon fill="#9a32cd" stroke="#9a32cd" points="198.99,-686.12 189.22,-690.23 199.42,-693.1 198.99,-686.12"/>
</a>
</g>
<text text-anchor="middle" x="527.5" y="-690" font-family="Helvetica,sans-Serif" font-size="10.00" fill="grey"> fFileData</text>
</g>
<!-- Node15&#45;&gt;Node14 -->
<g id="edge15_Node000014_Node000015" class="edge">
<title>Node15&#45;&gt;Node14</title>
<g id="a_edge15_Node000014_Node000015"><a xlink:title=" ">
<path fill="none" stroke="#9a32cd" stroke-dasharray="5,2" d="M199.13,-691.1C230.45,-691.42 274.8,-694.6 311.25,-707.75 338.54,-717.6 365.57,-738.77 380.09,-751.33"/>
<polygon fill="#9a32cd" stroke="#9a32cd" points="199.32,-687.6 189.33,-691.11 199.33,-694.6 199.32,-687.6"/>
</a>
</g>
<text text-anchor="middle" x="258.38" y="-765.25" font-family="Helvetica,sans-Serif" font-size="10.00" fill="grey"> fArraySubPositionString</text>
<text text-anchor="middle" x="258.38" y="-754" font-family="Helvetica,sans-Serif" font-size="10.00" fill="grey">fCollectedChargeString</text>
<text text-anchor="middle" x="258.38" y="-742.75" font-family="Helvetica,sans-Serif" font-size="10.00" fill="grey">fName</text>
<text text-anchor="middle" x="258.38" y="-731.5" font-family="Helvetica,sans-Serif" font-size="10.00" fill="grey">fOutputSensorString</text>
<text text-anchor="middle" x="258.38" y="-720.25" font-family="Helvetica,sans-Serif" font-size="10.00" fill="grey">fSubSystemString</text>
<text text-anchor="middle" x="258.38" y="-709" font-family="Helvetica,sans-Serif" font-size="10.00" fill="grey">fSystemString</text>
</g>
<!-- Node16 -->
<g id="Node000016" class="node">
<title>Node16</title>
<g id="a_Node000016"><a xlink:title=" ">
<polygon fill="white" stroke="#666666" points="92.5,-707.5 0,-707.5 0,-677 92.5,-677 92.5,-707.5"/>
<text text-anchor="start" x="8" y="-694" font-family="Helvetica,sans-Serif" font-size="10.00">std::basic_string&lt;</text>
<text text-anchor="middle" x="46.25" y="-682.75" font-family="Helvetica,sans-Serif" font-size="10.00"> Char &gt;</text>
</a>
</g>
</g>
<!-- Node16&#45;&gt;Node15 -->
<g id="edge16_Node000015_Node000016" class="edge">
<title>Node16&#45;&gt;Node15</title>
<g id="a_edge16_Node000015_Node000016"><a xlink:title=" ">
<path fill="none" stroke="#63b8ff" d="M104.12,-692.25C112.81,-692.25 121.45,-692.25 129.16,-692.25"/>
<polygon fill="#63b8ff" stroke="#63b8ff" points="104.24,-688.75 94.24,-692.25 104.24,-695.75 104.24,-688.75"/>
</a>
</g>
</g>
<!-- Node17 -->
<g id="Node000017" class="node">
<title>Node17</title>
<g id="a_Node000017"><a xlink:title=" ">
<polygon fill="white" stroke="#666666" points="726.5,-371.12 625.75,-371.12 625.75,-329.38 726.5,-329.38 726.5,-371.12"/>
<text text-anchor="start" x="633.75" y="-357.62" font-family="Helvetica,sans-Serif" font-size="10.00">TPriorityValue&lt; std</text>
<text text-anchor="start" x="633.75" y="-346.38" font-family="Helvetica,sans-Serif" font-size="10.00">::vector&lt; std::vector</text>
<text text-anchor="middle" x="676.12" y="-335.12" font-family="Helvetica,sans-Serif" font-size="10.00">&lt; Float_t &gt; &gt; &gt;</text>
</a>
</g>
</g>
<!-- Node17&#45;&gt;Node5 -->
<g id="edge17_Node000005_Node000017" class="edge">
<title>Node17&#45;&gt;Node5</title>
<g id="a_edge17_Node000005_Node000017"><a xlink:title=" ">
<path fill="none" stroke="#9a32cd" stroke-dasharray="5,2" d="M738.33,-337.39C778.72,-332.68 830.19,-334.41 863.75,-364 894.1,-390.76 854.17,-423.64 881.75,-453.25 891.27,-463.46 906.01,-468.07 919.06,-470.08"/>
<polygon fill="#9a32cd" stroke="#9a32cd" points="737.93,-333.91 728.49,-338.72 738.86,-340.85 737.93,-333.91"/>
</a>
</g>
<text text-anchor="middle" x="816.88" y="-366" font-family="Helvetica,sans-Serif" font-size="10.00" fill="grey"> fENGCoefficients</text>
</g>
<!-- Node18 -->
<g id="Node000018" class="node">
<title>Node18</title>
<g id="a_Node000018"><a xlink:title=" ">
<polygon fill="white" stroke="#666666" points="449.12,-365.5 334.88,-365.5 334.88,-335 449.12,-335 449.12,-365.5"/>
<text text-anchor="start" x="342.88" y="-352" font-family="Helvetica,sans-Serif" font-size="10.00">std::vector&lt; std::vector</text>
<text text-anchor="middle" x="392" y="-340.75" font-family="Helvetica,sans-Serif" font-size="10.00">&lt; Float_t &gt; &gt;</text>
</a>
</g>
</g>
<!-- Node18&#45;&gt;Node17 -->
<g id="edge18_Node000017_Node000018" class="edge">
<title>Node18&#45;&gt;Node17</title>
<g id="a_edge18_Node000017_Node000018"><a xlink:title=" ">
<path fill="none" stroke="#9a32cd" stroke-dasharray="5,2" d="M460.92,-350.25C511.62,-350.25 579.73,-350.25 625.42,-350.25"/>
<polygon fill="#9a32cd" stroke="#9a32cd" points="460.93,-346.75 450.93,-350.25 460.93,-353.75 460.93,-346.75"/>
</a>
</g>
<text text-anchor="middle" x="527.5" y="-352" font-family="Helvetica,sans-Serif" font-size="10.00" fill="grey"> fValue</text>
</g>
<!-- Node19 -->
<g id="Node000019" class="node">
<title>Node19</title>
<g id="a_Node000019"><a xlink:title=" ">
<polygon fill="white" stroke="#666666" points="731.75,-311.12 620.5,-311.12 620.5,-269.38 731.75,-269.38 731.75,-311.12"/>
<text text-anchor="start" x="628.5" y="-297.62" font-family="Helvetica,sans-Serif" font-size="10.00">TPriorityValue&lt; std</text>
<text text-anchor="start" x="628.5" y="-286.38" font-family="Helvetica,sans-Serif" font-size="10.00">::vector&lt; std::pair</text>
<text text-anchor="middle" x="676.12" y="-275.12" font-family="Helvetica,sans-Serif" font-size="10.00">&lt; double, double &gt; &gt; &gt;</text>
</a>
</g>
</g>
<!-- Node19&#45;&gt;Node5 -->
<g id="edge19_Node000005_Node000019" class="edge">
<title>Node19&#45;&gt;Node5</title>
<g id="a_edge19_Node000005_Node000019"><a xlink:title=" ">
<path fill="none" stroke="#9a32cd" stroke-dasharray="5,2" d="M743.45,-293.02C790.19,-296.43 847.25,-304.04 863.75,-321 905.1,-363.53 842.72,-408.58 881.75,-453.25 890.94,-463.76 905.65,-468.39 918.78,-470.33"/>
<polygon fill="#9a32cd" stroke="#9a32cd" points="743.86,-289.53 733.64,-292.36 743.39,-296.52 743.86,-289.53"/>
</a>
</g>
<text text-anchor="middle" x="816.88" y="-323" font-family="Helvetica,sans-Serif" font-size="10.00" fill="grey"> fENGRanges</text>
</g>
<!-- Node20 -->
<g id="Node000020" class="node">
<title>Node20</title>
<g id="a_Node000020"><a xlink:title=" ">
<polygon fill="white" stroke="#666666" points="443.5,-305.5 340.5,-305.5 340.5,-275 443.5,-275 443.5,-305.5"/>
<text text-anchor="start" x="348.5" y="-292" font-family="Helvetica,sans-Serif" font-size="10.00">std::vector&lt; std::pair</text>
<text text-anchor="middle" x="392" y="-280.75" font-family="Helvetica,sans-Serif" font-size="10.00">&lt; double, double &gt; &gt;</text>
</a>
</g>
</g>
<!-- Node20&#45;&gt;Node19 -->
<g id="edge20_Node000019_Node000020" class="edge">
<title>Node20&#45;&gt;Node19</title>
<g id="a_edge20_Node000019_Node000020"><a xlink:title=" ">
<path fill="none" stroke="#9a32cd" stroke-dasharray="5,2" d="M455.26,-290.25C504.68,-290.25 573.1,-290.25 620.43,-290.25"/>
<polygon fill="#9a32cd" stroke="#9a32cd" points="455.28,-286.75 445.28,-290.25 455.28,-293.75 455.28,-286.75"/>
</a>
</g>
<text text-anchor="middle" x="527.5" y="-292" font-family="Helvetica,sans-Serif" font-size="10.00" fill="grey"> fValue</text>
</g>
<!-- Node21 -->
<g id="Node000021" class="node">
<title>Node21</title>
<g id="a_Node000021"><a xlink:title=" ">
<polygon fill="white" stroke="#666666" points="726.5,-251.5 625.75,-251.5 625.75,-221 726.5,-221 726.5,-251.5"/>
<text text-anchor="start" x="633.75" y="-238" font-family="Helvetica,sans-Serif" font-size="10.00">TPriorityValue&lt; std</text>
<text text-anchor="middle" x="676.12" y="-226.75" font-family="Helvetica,sans-Serif" font-size="10.00">::vector&lt; double &gt; &gt;</text>
</a>
</g>
</g>
<!-- Node21&#45;&gt;Node5 -->
<g id="edge21_Node000005_Node000021" class="edge">
<title>Node21&#45;&gt;Node5</title>
<g id="a_edge21_Node000005_Node000021"><a xlink:title=" ">
<path fill="none" stroke="#9a32cd" stroke-dasharray="5,2" d="M737.88,-223.39C785.27,-214.97 845.93,-208.28 863.75,-224.75 901.15,-259.32 849.33,-413.96 881.75,-453.25 890.71,-464.11 905.58,-468.74 918.85,-470.6"/>
<polygon fill="#9a32cd" stroke="#9a32cd" points="737.46,-219.9 728.26,-225.16 738.73,-226.79 737.46,-219.9"/>
</a>
</g>
<text text-anchor="middle" x="816.88" y="-283.25" font-family="Helvetica,sans-Serif" font-size="10.00" fill="grey"> fCFDCoefficients</text>
<text text-anchor="middle" x="816.88" y="-272" font-family="Helvetica,sans-Serif" font-size="10.00" fill="grey">fCTCoefficients</text>
<text text-anchor="middle" x="816.88" y="-260.75" font-family="Helvetica,sans-Serif" font-size="10.00" fill="grey">fEFFCoefficients</text>
<text text-anchor="middle" x="816.88" y="-249.5" font-family="Helvetica,sans-Serif" font-size="10.00" fill="grey">fENGChi2</text>
<text text-anchor="middle" x="816.88" y="-238.25" font-family="Helvetica,sans-Serif" font-size="10.00" fill="grey">fLEDCoefficients</text>
<text text-anchor="middle" x="816.88" y="-227" font-family="Helvetica,sans-Serif" font-size="10.00" fill="grey">fTIMECoefficients</text>
</g>
<!-- Node22 -->
<g id="Node000022" class="node">
<title>Node22</title>
<g id="a_Node000022"><a xlink:title=" ">
<polygon fill="white" stroke="#666666" points="445,-245.88 339,-245.88 339,-226.62 445,-226.62 445,-245.88"/>
<text text-anchor="middle" x="392" y="-232.38" font-family="Helvetica,sans-Serif" font-size="10.00">std::vector&lt; double &gt;</text>
</a>
</g>
</g>
<!-- Node22&#45;&gt;Node21 -->
<g id="edge22_Node000021_Node000022" class="edge">
<title>Node22&#45;&gt;Node21</title>
<g id="a_edge22_Node000021_Node000022"><a xlink:title=" ">
<path fill="none" stroke="#9a32cd" stroke-dasharray="5,2" d="M456.64,-236.25C507.7,-236.25 578.38,-236.25 625.37,-236.25"/>
<polygon fill="#9a32cd" stroke="#9a32cd" points="456.92,-232.75 446.92,-236.25 456.92,-239.75 456.92,-232.75"/>
</a>
</g>
<text text-anchor="middle" x="527.5" y="-238" font-family="Helvetica,sans-Serif" font-size="10.00" fill="grey"> fValue</text>
</g>
<!-- Node23 -->
<g id="Node000023" class="node">
<title>Node23</title>
<g id="a_Node000023"><a xlink:title=" ">
<polygon fill="white" stroke="#666666" points="727.25,-202.5 625,-202.5 625,-172 727.25,-172 727.25,-202.5"/>
<text text-anchor="start" x="633" y="-189" font-family="Helvetica,sans-Serif" font-size="10.00">TPriorityValue&lt; std</text>
<text text-anchor="middle" x="676.12" y="-177.75" font-family="Helvetica,sans-Serif" font-size="10.00">::vector&lt; Float_t &gt; &gt;</text>
</a>
</g>
</g>
<!-- Node23&#45;&gt;Node5 -->
<g id="edge23_Node000005_Node000023" class="edge">
<title>Node23&#45;&gt;Node5</title>
<g id="a_edge23_Node000005_Node000023"><a xlink:title=" ">
<path fill="none" stroke="#9a32cd" stroke-dasharray="5,2" d="M738.87,-172.77C779.9,-167.11 831.91,-168.24 863.75,-200 903.7,-239.84 846.01,-409.59 881.75,-453.25 890.67,-464.14 905.53,-468.78 918.81,-470.63"/>
<polygon fill="#9a32cd" stroke="#9a32cd" points="738.45,-169.29 729.11,-174.29 739.53,-176.21 738.45,-169.29"/>
</a>
</g>
<text text-anchor="middle" x="816.88" y="-202" font-family="Helvetica,sans-Serif" font-size="10.00" fill="grey"> fENGDriftCoefficents</text>
</g>
<!-- Node24 -->
<g id="Node000024" class="node">
<title>Node24</title>
<g id="a_Node000024"><a xlink:title=" ">
<polygon fill="white" stroke="#666666" points="445.75,-196.88 338.25,-196.88 338.25,-177.62 445.75,-177.62 445.75,-196.88"/>
<text text-anchor="middle" x="392" y="-183.38" font-family="Helvetica,sans-Serif" font-size="10.00">std::vector&lt; Float_t &gt;</text>
</a>
</g>
</g>
<!-- Node24&#45;&gt;Node23 -->
<g id="edge24_Node000023_Node000024" class="edge">
<title>Node24&#45;&gt;Node23</title>
<g id="a_edge24_Node000023_Node000024"><a xlink:title=" ">
<path fill="none" stroke="#9a32cd" stroke-dasharray="5,2" d="M457.56,-187.25C508.3,-187.25 577.97,-187.25 624.67,-187.25"/>
<polygon fill="#9a32cd" stroke="#9a32cd" points="457.58,-183.75 447.58,-187.25 457.58,-190.75 457.58,-183.75"/>
</a>
</g>
<text text-anchor="middle" x="527.5" y="-189" font-family="Helvetica,sans-Serif" font-size="10.00" fill="grey"> fValue</text>
</g>
<!-- Node25 -->
<g id="Node000025" class="node">
<title>Node25</title>
<g id="a_Node000025"><a xlink:href="class_t_priority_value.html" target="_top" xlink:title=" ">
<polygon fill="white" stroke="#666666" points="738.88,-104.88 613.38,-104.88 613.38,-85.62 738.88,-85.62 738.88,-104.88"/>
<text text-anchor="middle" x="676.12" y="-91.38" font-family="Helvetica,sans-Serif" font-size="10.00">TPriorityValue&lt; TGraph &gt;</text>
</a>
</g>
</g>
<!-- Node25&#45;&gt;Node5 -->
<g id="edge25_Node000005_Node000025" class="edge">
<title>Node25&#45;&gt;Node5</title>
<g id="a_edge25_Node000005_Node000025"><a xlink:title=" ">
<path fill="none" stroke="#9a32cd" stroke-dasharray="5,2" d="M725.82,-83.02C768.41,-75.53 828.78,-73.27 863.75,-109 890.54,-136.37 857.76,-423.39 881.75,-453.25 890.64,-464.32 905.67,-468.94 919.06,-470.74"/>
<polygon fill="#9a32cd" stroke="#9a32cd" points="725.23,-79.57 716.07,-84.89 726.55,-86.44 725.23,-79.57"/>
</a>
</g>
<text text-anchor="middle" x="816.88" y="-111" font-family="Helvetica,sans-Serif" font-size="10.00" fill="grey"> fEnergyNonlinearity</text>
</g>
<!-- Node26 -->
<g id="Node000026" class="node">
<title>Node26</title>
<g id="a_Node000026"><a xlink:href="struct_t_channel_1_1_wave_form_shape_par.html" target="_top" xlink:title=" ">
<polygon fill="white" stroke="#666666" points="752,-67.88 600.25,-67.88 600.25,-48.62 752,-48.62 752,-67.88"/>
<text text-anchor="middle" x="676.12" y="-54.38" font-family="Helvetica,sans-Serif" font-size="10.00">TChannel::WaveFormShapePar</text>
</a>
</g>
</g>
<!-- Node26&#45;&gt;Node5 -->
<g id="edge26_Node000005_Node000026" class="edge">
<title>Node26&#45;&gt;Node5</title>
<g id="a_edge26_Node000005_Node000026"><a xlink:title=" ">
<path fill="none" stroke="#9a32cd" stroke-dasharray="5,2" d="M763.73,-50C805.44,-48.12 849.47,-49.94 863.75,-64 894.6,-94.38 854.74,-419.41 881.75,-453.25 890.6,-464.34 905.64,-468.97 919.03,-470.77"/>
<polygon fill="#9a32cd" stroke="#9a32cd" points="763.65,-46.5 753.85,-50.52 764.02,-53.49 763.65,-46.5"/>
</a>
</g>
<text text-anchor="middle" x="816.88" y="-66" font-family="Helvetica,sans-Serif" font-size="10.00" fill="grey"> WaveFormShape</text>
</g>
<!-- Node27 -->
<g id="Node000027" class="node">
<title>Node27</title>
<g id="a_Node000027"><a xlink:title=" ">
<polygon fill="white" stroke="#666666" points="744.5,-30.5 607.75,-30.5 607.75,0 744.5,0 744.5,-30.5"/>
<text text-anchor="start" x="615.75" y="-17" font-family="Helvetica,sans-Serif" font-size="10.00">std::unordered_map</text>
<text text-anchor="middle" x="676.12" y="-5.75" font-family="Helvetica,sans-Serif" font-size="10.00">&lt; unsigned int, TChannel * &gt;</text>
</a>
</g>
</g>
<!-- Node27&#45;&gt;Node5 -->
<g id="edge27_Node000005_Node000027" class="edge">
<title>Node27&#45;&gt;Node5</title>
<g id="a_edge27_Node000005_Node000027"><a xlink:title=" ">
<path fill="none" stroke="#9a32cd" stroke-dasharray="5,2" d="M755.95,-1.95C793.88,-0.32 836.85,-6.36 863.75,-35 895.6,-68.9 852.79,-416.85 881.75,-453.25 890.59,-464.36 905.62,-468.99 919.02,-470.78"/>
<polygon fill="#9a32cd" stroke="#9a32cd" points="756.15,1.57 746.39,-2.54 756.59,-5.41 756.15,1.57"/>
</a>
</g>
<text text-anchor="middle" x="816.88" y="-37" font-family="Helvetica,sans-Serif" font-size="10.00" fill="grey"> fChannelMap</text>
</g>
<!-- Node28 -->
<g id="Node000028" class="node">
<title>Node28</title>
<g id="a_Node000028"><a xlink:title=" ">
<polygon fill="white" stroke="#666666" points="726.5,-733.5 625.75,-733.5 625.75,-703 726.5,-703 726.5,-733.5"/>
<text text-anchor="start" x="633.75" y="-720" font-family="Helvetica,sans-Serif" font-size="10.00">std::unordered_map</text>
<text text-anchor="middle" x="676.12" y="-708.75" font-family="Helvetica,sans-Serif" font-size="10.00">&lt; unsigned int, int &gt;</text>
</a>
</g>
</g>
<!-- Node28&#45;&gt;Node5 -->
<g id="edge28_Node000005_Node000028" class="edge">
<title>Node28&#45;&gt;Node5</title>
<g id="a_edge28_Node000005_Node000028"><a xlink:title=" ">
<path fill="none" stroke="#9a32cd" stroke-dasharray="5,2" d="M738.39,-723.6C778.19,-723.78 828.95,-717.41 863.75,-689.25 932.08,-633.96 944.3,-515.77 946.43,-481.04"/>
<polygon fill="#9a32cd" stroke="#9a32cd" points="738.53,-720.1 728.47,-723.4 738.39,-727.1 738.53,-720.1"/>
</a>
</g>
<text text-anchor="middle" x="816.88" y="-723" font-family="Helvetica,sans-Serif" font-size="10.00" fill="grey"> fMissingChannelMap</text>
</g>
<!-- Node29 -->
<g id="Node000029" class="node">
<title>Node29</title>
<g id="a_Node000029"><a xlink:title=" ">
<polygon fill="white" stroke="#666666" points="726.5,-153.5 625.75,-153.5 625.75,-123 726.5,-123 726.5,-153.5"/>
<text text-anchor="start" x="633.75" y="-140" font-family="Helvetica,sans-Serif" font-size="10.00">std::unordered_map</text>
<text text-anchor="middle" x="676.12" y="-128.75" font-family="Helvetica,sans-Serif" font-size="10.00">&lt; int, TChannel * &gt;</text>
</a>
</g>
</g>
<!-- Node29&#45;&gt;Node5 -->
<g id="edge29_Node000005_Node000029" class="edge">
<title>Node29&#45;&gt;Node5</title>
<g id="a_edge29_Node000005_Node000029"><a xlink:title=" ">
<path fill="none" stroke="#9a32cd" stroke-dasharray="5,2" d="M737.94,-125.31C779.29,-120.39 832.05,-122.36 863.75,-155 910.01,-202.63 839.96,-401.65 881.75,-453.25 890.61,-464.19 905.47,-468.83 918.76,-470.67"/>
<polygon fill="#9a32cd" stroke="#9a32cd" points="737.54,-121.83 728.11,-126.66 738.49,-128.77 737.54,-121.83"/>
</a>
</g>
<text text-anchor="middle" x="816.88" y="-157" font-family="Helvetica,sans-Serif" font-size="10.00" fill="grey"> fChannelNumberMap</text>
</g>
<!-- Node30 -->
<g id="Node000030" class="node">
<title>Node30</title>
<g id="a_Node000030"><a xlink:href="class_t_transient_bits.html" target="_top" xlink:title=" ">
<polygon fill="white" stroke="#666666" points="1014,-443.88 881.75,-443.88 881.75,-424.62 1014,-424.62 1014,-443.88"/>
<text text-anchor="middle" x="947.88" y="-430.38" font-family="Helvetica,sans-Serif" font-size="10.00">TTransientBits&lt; UChar_t &gt;</text>
</a>
</g>
</g>
<!-- Node30&#45;&gt;Node2 -->
<g id="edge31_Node000002_Node000030" class="edge">
<title>Node30&#45;&gt;Node2</title>
<g id="a_edge31_Node000002_Node000030"><a xlink:title=" ">
<path fill="none" stroke="#9a32cd" stroke-dasharray="5,2" d="M1025.66,-446.18C1043.99,-449.21 1063.47,-452.58 1081.5,-456 1093.1,-458.2 1105.73,-460.84 1117.05,-463.3"/>
<polygon fill="#9a32cd" stroke="#9a32cd" points="1026.35,-442.74 1015.92,-444.58 1025.22,-449.65 1026.35,-442.74"/>
</a>
</g>
<text text-anchor="middle" x="1056.75" y="-458" font-family="Helvetica,sans-Serif" font-size="10.00" fill="grey"> fBitFlags</text>
</g>
<!-- Node31 -->
<g id="Node000031" class="node">
<title>Node31</title>
<g id="a_Node000031"><a xlink:title=" ">
<polygon fill="white" stroke="#666666" points="1207,-443.88 1099.5,-443.88 1099.5,-424.62 1207,-424.62 1207,-443.88"/>
<text text-anchor="middle" x="1153.25" y="-430.38" font-family="Helvetica,sans-Serif" font-size="10.00">std::vector&lt; Long_t &gt;</text>
</a>
</g>
</g>
<!-- Node31&#45;&gt;Node1 -->
<g id="edge32_Node000001_Node000031" class="edge">
<title>Node31&#45;&gt;Node1</title>
<g id="a_edge32_Node000001_Node000031"><a xlink:title=" ">
<path fill="none" stroke="#9a32cd" stroke-dasharray="5,2" d="M1218.55,-445.14C1234.92,-448.28 1252.43,-451.96 1268.5,-456 1274.51,-457.51 1280.86,-459.33 1286.93,-461.19"/>
<polygon fill="#9a32cd" stroke="#9a32cd" points="1219.39,-441.74 1208.92,-443.33 1218.1,-448.62 1219.39,-441.74"/>
</a>
</g>
<text text-anchor="middle" x="1246.75" y="-458" font-family="Helvetica,sans-Serif" font-size="10.00" fill="grey"> fTriggerId</text>
</g>
<!-- Node32 -->
<g id="Node000032" class="node">
<title>Node32</title>
<g id="a_Node000032"><a xlink:href="class_t_p_p_g.html" target="_top" xlink:title=" ">
<polygon fill="white" stroke="#666666" points="697.62,-980.88 654.62,-980.88 654.62,-961.62 697.62,-961.62 697.62,-980.88"/>
<text text-anchor="middle" x="676.12" y="-967.38" font-family="Helvetica,sans-Serif" font-size="10.00">TPPG</text>
</a>
</g>
</g>
<!-- Node32&#45;&gt;Node1 -->
<g id="edge33_Node000001_Node000032" class="edge">
<title>Node32&#45;&gt;Node1</title>
<g id="a_edge33_Node000001_Node000032"><a xlink:title=" ">
<path fill="none" stroke="#9a32cd" stroke-dasharray="5,2" d="M708.98,-967.23C781.92,-956.62 963.8,-922.12 1081.5,-830.25 1213.73,-727.04 1295.54,-527.94 1313.41,-481.23"/>
<polygon fill="#9a32cd" stroke="#9a32cd" points="708.76,-963.72 699.34,-968.57 709.73,-970.66 708.76,-963.72"/>
</a>
</g>
<text text-anchor="middle" x="1056.75" y="-864" font-family="Helvetica,sans-Serif" font-size="10.00" fill="grey"> fPPG</text>
</g>
<!-- Node32&#45;&gt;Node33 -->
<g id="edge36_Node000033_Node000032" class="edge">
<title>Node32&#45;&gt;Node33</title>
<g id="a_edge36_Node000033_Node000032"><a xlink:title=" ">
<path fill="none" stroke="#9a32cd" stroke-dasharray="5,2" d="M643.2,-970.71C625.29,-970.44 602.52,-970.14 582.25,-970 533.58,-969.67 521.42,-969.62 472.75,-970 463.89,-970.07 454.47,-970.18 445.33,-970.31"/>
<polygon fill="#9a32cd" stroke="#9a32cd" points="642.9,-974.21 652.96,-970.87 643.01,-967.21 642.9,-974.21"/>
</a>
</g>
<text text-anchor="middle" x="527.5" y="-971" font-family="Helvetica,sans-Serif" font-size="10.00" fill="grey"> fSingleton</text>
</g>
<!-- Node33&#45;&gt;Node32 -->
<g id="edge34_Node000032_Node000033" class="edge">
<title>Node33&#45;&gt;Node32</title>
<g id="a_edge34_Node000032_Node000033"><a xlink:title=" ">
<path fill="none" stroke="#63b8ff" d="M456.46,-981.67C461.96,-982.31 467.44,-982.85 472.75,-983.25 521.28,-986.88 533.68,-986.37 582.25,-983.25 607.07,-981.65 635.4,-977.68 654.17,-974.74"/>
<polygon fill="#63b8ff" stroke="#63b8ff" points="457.07,-978.22 446.71,-980.44 456.19,-985.17 457.07,-978.22"/>
</a>
</g>
</g>
<!-- Node34 -->
<g id="Node000034" class="node">
<title>Node34</title>
<g id="a_Node000034"><a xlink:title=" ">
<polygon fill="white" stroke="#666666" points="452.88,-1114.88 331.12,-1114.88 331.12,-1095.62 452.88,-1095.62 452.88,-1114.88"/>
<text text-anchor="middle" x="392" y="-1101.38" font-family="Helvetica,sans-Serif" font-size="10.00">std::map&lt; K, T &gt;::iterator</text>
</a>
</g>
</g>
<!-- Node34&#45;&gt;Node32 -->
<g id="edge37_Node000032_Node000034" class="edge">
<title>Node34&#45;&gt;Node32</title>
<g id="a_edge37_Node000032_Node000034"><a xlink:title=" ">
<path fill="none" stroke="#9a32cd" stroke-dasharray="5,2" d="M464.22,-1104.2C501.33,-1101.02 546.34,-1092.86 582.25,-1073.25 623.87,-1050.52 656.67,-1001.93 669.39,-981.08"/>
<polygon fill="#9a32cd" stroke="#9a32cd" points="464.2,-1100.7 454.49,-1104.93 464.72,-1107.68 464.2,-1100.7"/>
</a>
</g>
<text text-anchor="middle" x="527.5" y="-1105" font-family="Helvetica,sans-Serif" font-size="10.00" fill="grey"> fCurrIterator</text>
</g>
<!-- Node35 -->
<g id="Node000035" class="node">
<title>Node35</title>
<g id="a_Node000035"><a xlink:title=" ">
<polygon fill="white" stroke="#666666" points="435.62,-1077.88 348.38,-1077.88 348.38,-1058.62 435.62,-1058.62 435.62,-1077.88"/>
<text text-anchor="middle" x="392" y="-1064.38" font-family="Helvetica,sans-Serif" font-size="10.00">std::map&lt; K, T &gt;</text>
</a>
</g>
</g>
<!-- Node35&#45;&gt;Node32 -->
<g id="edge38_Node000032_Node000035" class="edge">
<title>Node35&#45;&gt;Node32</title>
<g id="a_edge38_Node000032_Node000035"><a xlink:title=" ">
<path fill="none" stroke="#9a32cd" stroke-dasharray="5,2" d="M447.03,-1062.76C485.73,-1057.55 538.52,-1047.82 582.25,-1030.25 613.45,-1017.72 645.65,-994.53 662.72,-981.26"/>
<polygon fill="#9a32cd" stroke="#9a32cd" points="446.98,-1059.24 437.5,-1063.98 447.87,-1066.18 446.98,-1059.24"/>
</a>
</g>
<text text-anchor="middle" x="527.5" y="-1060" font-family="Helvetica,sans-Serif" font-size="10.00" fill="grey"> fPPGStatusMap</text>
</g>
<!-- Node36 -->
<g id="Node000036" class="node">
<title>Node36</title>
<g id="a_Node000036"><a xlink:title=" ">
<polygon fill="white" stroke="#666666" points="448,-1040.5 336,-1040.5 336,-1010 448,-1010 448,-1040.5"/>
<text text-anchor="start" x="344" y="-1027" font-family="Helvetica,sans-Serif" font-size="10.00">std::map&lt; ULong64_t,</text>
<text text-anchor="middle" x="392" y="-1015.75" font-family="Helvetica,sans-Serif" font-size="10.00"> int &gt;</text>
</a>
</g>
</g>
<!-- Node36&#45;&gt;Node32 -->
<g id="edge39_Node000032_Node000036" class="edge">
<title>Node36&#45;&gt;Node32</title>
<g id="a_edge39_Node000032_Node000036"><a xlink:title=" ">
<path fill="none" stroke="#9a32cd" stroke-dasharray="5,2" d="M459.44,-1018.1C495.91,-1013.59 541.82,-1006.96 582.25,-998.25 607.36,-992.84 635.63,-984.25 654.32,-978.22"/>
<polygon fill="#9a32cd" stroke="#9a32cd" points="459.44,-1014.57 449.94,-1019.25 460.29,-1021.52 459.44,-1014.57"/>
</a>
</g>
<text text-anchor="middle" x="527.5" y="-1017" font-family="Helvetica,sans-Serif" font-size="10.00" fill="grey"> fNumberOfCycleLengths</text>
</g>
<!-- Node37 -->
<g id="Node000037" class="node">
<title>Node37</title>
<g id="a_Node000037"><a xlink:title=" ">
<polygon fill="white" stroke="#666666" points="445.38,-937.88 338.62,-937.88 338.62,-918.62 445.38,-918.62 445.38,-937.88"/>
<text text-anchor="middle" x="392" y="-924.38" font-family="Helvetica,sans-Serif" font-size="10.00">std::vector&lt; int16_t &gt;</text>
</a>
</g>
</g>
<!-- Node37&#45;&gt;Node32 -->
<g id="edge40_Node000032_Node000037" class="edge">
<title>Node37&#45;&gt;Node32</title>
<g id="a_edge40_Node000032_Node000037"><a xlink:title=" ">
<path fill="none" stroke="#9a32cd" stroke-dasharray="5,2" d="M456.73,-929.62C493.66,-931.29 540.88,-934.92 582.25,-942.75 607.6,-947.55 635.83,-956.79 654.43,-963.45"/>
<polygon fill="#9a32cd" stroke="#9a32cd" points="457.27,-926.14 447.13,-929.23 456.98,-933.14 457.27,-926.14"/>
</a>
</g>
<text text-anchor="middle" x="527.5" y="-955.25" font-family="Helvetica,sans-Serif" font-size="10.00" fill="grey"> fOdbPPGCodes</text>
<text text-anchor="middle" x="527.5" y="-944" font-family="Helvetica,sans-Serif" font-size="10.00" fill="grey">fPPGCodes</text>
</g>
<!-- Node38 -->
<g id="Node000038" class="node">
<title>Node38</title>
<g id="a_Node000038"><a xlink:title=" ">
<polygon fill="white" stroke="#666666" points="436,-900.88 348,-900.88 348,-881.62 436,-881.62 436,-900.88"/>
<text text-anchor="middle" x="392" y="-887.38" font-family="Helvetica,sans-Serif" font-size="10.00">std::vector&lt; int &gt;</text>
</a>
</g>
</g>
<!-- Node38&#45;&gt;Node32 -->
<g id="edge41_Node000032_Node000038" class="edge">
<title>Node38&#45;&gt;Node32</title>
<g id="a_edge41_Node000032_Node000038"><a xlink:title=" ">
<path fill="none" stroke="#9a32cd" stroke-dasharray="5,2" d="M447.75,-892.1C486.3,-894.13 538.6,-899.82 582.25,-915 613.41,-925.84 645.37,-948.14 662.47,-961.17"/>
<polygon fill="#9a32cd" stroke="#9a32cd" points="447.91,-888.6 437.76,-891.65 447.6,-895.6 447.91,-888.6"/>
</a>
</g>
<text text-anchor="middle" x="527.5" y="-916" font-family="Helvetica,sans-Serif" font-size="10.00" fill="grey"> fOdbDurations</text>
</g>
<!-- Node39 -->
<g id="Node000039" class="node">
<title>Node39</title>
<g id="a_Node000039"><a xlink:title=" ">
<polygon fill="white" stroke="#666666" points="454.75,-863.88 329.25,-863.88 329.25,-844.62 454.75,-844.62 454.75,-863.88"/>
<text text-anchor="middle" x="392" y="-850.38" font-family="Helvetica,sans-Serif" font-size="10.00">std::vector&lt; ULong64_t &gt;</text>
</a>
</g>
</g>
<!-- Node39&#45;&gt;Node32 -->
<g id="edge42_Node000032_Node000039" class="edge">
<title>Node39&#45;&gt;Node32</title>
<g id="a_edge42_Node000032_Node000039"><a xlink:title=" ">
<path fill="none" stroke="#9a32cd" stroke-dasharray="5,2" d="M466.21,-852.41C502.71,-854.18 546.55,-860.49 582.25,-878 622.25,-897.63 655.2,-941.46 668.63,-961.23"/>
<polygon fill="#9a32cd" stroke="#9a32cd" points="466.77,-848.93 456.65,-852.06 466.51,-855.93 466.77,-848.93"/>
</a>
</g>
<text text-anchor="middle" x="527.5" y="-879" font-family="Helvetica,sans-Serif" font-size="10.00" fill="grey"> fDurations</text>
</g>
</g>
</svg>

<g id="navigator" transform="translate(0 0)" fill="#404254">
  <rect fill="#f2f5e9" fill-opacity="0.5" stroke="#606060" stroke-width=".5" x="0" y="0" width="60" height="60"/>
  <use id="zoomplus" xlink:href="#zoomPlus" x="17" y="9" onmousedown="handleZoom(evt,'in')"/>
  <use id="zoomminus" xlink:href="#zoomMin" x="42" y="9" onmousedown="handleZoom(evt,'out')"/>
  <use id="reset" xlink:href="#resetDef" x="30" y="36" onmousedown="handleReset()"/>
   <use id="arrowup" xlink:href="#arrowUp" x="0" y="0" onmousedown="handlePan(0,-1)"/>
  <use id="arrowright" xlink:href="#arrowRight" x="0" y="0" onmousedown="handlePan(1,0)"/>
  <use id="arrowdown" xlink:href="#arrowDown" x="0" y="0" onmousedown="handlePan(0,1)"/>
  <use id="arrowleft" xlink:href="#arrowLeft" x="0" y="0" onmousedown="handlePan(-1,0)"/>
</g>
<svg viewBox="0 0 15 15" width="100%" height="30px" preserveAspectRatio="xMaxYMin meet">
 <g id="arrow_out" transform="scale(0.3 0.3)">
  <a xlink:href="class_t_fragment__coll__graph_org.svg" target="_base">
   <rect id="button" ry="5" rx="5" y="6" x="6" height="38" width="38"
        fill="#f2f5e9" fill-opacity="0.5" stroke="#606060" stroke-width="1.0"/>
   <path id="arrow"
     d="M 11.500037,31.436501 C 11.940474,20.09759 22.043105,11.32322 32.158766,21.979434 L 37.068811,17.246167 C 37.068811,17.246167 37.088388,32 37.088388,32 L 22.160133,31.978069 C 22.160133,31.978069 26.997745,27.140456 26.997745,27.140456 C 18.528582,18.264221 13.291696,25.230495 11.500037,31.436501 z"
     style="fill:#404040;"/>
  </a>
 </g>
</svg>

<style type='text/css'>
<![CDATA[
[data-mouse-over-selected='false'] { opacity: 0.7; }
[data-mouse-over-selected='true']  { opacity: 1.0; }
]]>
</style>
<script type="application/ecmascript"><![CDATA[
document.addEventListener('DOMContentLoaded', (event) => {
  highlightEdges();
  highlightAdjacentNodes();
});
]]></script>
</svg>
