<?xml version="1.0" encoding="UTF-8" standalone="no"?>
<!DOCTYPE svg PUBLIC "-//W3C//DTD SVG 1.1//EN"
 "http://www.w3.org/Graphics/SVG/1.1/DTD/svg11.dtd">
<!-- Generated by graphviz version 9.0.0 (20230911.1827)
 -->
<!-- Title: TDetBuildingLoop Pages: 1 -->
<!--zoomable 233 -->

<svg id="main" version="1.1" xmlns="http://www.w3.org/2000/svg" xmlns:xlink="http://www.w3.org/1999/xlink" xml:space="preserve" onload="init(evt)">
<style type="text/css"><![CDATA[
.node, .edge {opacity: 0.7;}
.node.selected, .edge.selected {opacity: 1;}
.edge:hover path { stroke: red; }
.edge:hover polygon { stroke: red; fill: red; }
]]></style>

<defs>
  <circle id="rim" cx="0" cy="0" r="7"/>
  <circle id="rim2" cx="0" cy="0" r="3.5"/>
  <g id="zoomPlus">
    <use xlink:href="#rim" fill="#404040"><set attributeName="fill" to="#808080" begin="zoomplus.mouseover" end="zoomplus.mouseout"/></use>
    <path d="M-4,0h8M0,-4v8" fill="none" stroke="white" stroke-width="1.5" pointer-events="none"/>
  </g>
  <g id="zoomMin">
    <use xlink:href="#rim" fill="#404040"><set attributeName="fill" to="#808080" begin="zoomminus.mouseover" end="zoomminus.mouseout"/></use>
    <path d="M-4,0h8" fill="none" stroke="white" stroke-width="1.5" pointer-events="none"/>
  </g>
  <g id="arrowUp" transform="translate(30 24)">
    <use xlink:href="#rim"/>
    <path pointer-events="none" fill="none" stroke="white" stroke-width="1.5" d="M0,-3.0v7 M-2.5,-0.5L0,-3.0L2.5,-0.5"/>
  </g>
  <g id="arrowRight" transform="rotate(90) translate(36 -43)">
    <use xlink:href="#rim"/>
    <path pointer-events="none" fill="none" stroke="white" stroke-width="1.5" d="M0,-3.0v7 M-2.5,-0.5L0,-3.0L2.5,-0.5"/>
  </g>
  <g id="arrowDown" transform="rotate(180) translate(-30 -48)">
    <use xlink:href="#rim"/>
    <path pointer-events="none" fill="none" stroke="white" stroke-width="1.5" d="M0,-3.0v7 M-2.5,-0.5L0,-3.0L2.5,-0.5"/>
  </g>
  <g id="arrowLeft" transform="rotate(270) translate(-36 17)">
    <use xlink:href="#rim"/>
    <path pointer-events="none" fill="none" stroke="white" stroke-width="1.5" d="M0,-3.0v7 M-2.5,-0.5L0,-3.0L2.5,-0.5"/>
  </g>
  <g id="resetDef">
    <use xlink:href="#rim2" fill="#404040"><set attributeName="fill" to="#808080" begin="reset.mouseover" end="reset.mouseout"/></use>
  </g>
</defs>
<script type="application/ecmascript">
var viewWidth = 706;
var viewHeight = 233;
var sectionId = 'dynsection-1';
</script>
<script type="application/ecmascript" xlink:href="svg.min.js"/>
<svg id="graph" class="graph">
<g id="viewport">
<title>TDetBuildingLoop</title>
<!-- Node1 -->
<g id="Node000001" class="node">
<title>Node1</title>
<g id="a_Node000001"><a xlink:title=" ">
<polygon fill="#999999" stroke="#666666" points="698,-107.12 604.75,-107.12 604.75,-87.88 698,-87.88 698,-107.12"/>
<text text-anchor="middle" x="651.38" y="-93.62" font-family="Helvetica,sans-Serif" font-size="10.00">TDetBuildingLoop</text>
</a>
</g>
</g>
<!-- Node2 -->
<g id="Node000002" class="node">
<title>Node2</title>
<g id="a_Node000002"><a xlink:href="class_stoppable_thread.html" target="_top" xlink:title=" ">
<polygon fill="white" stroke="#666666" points="462.62,-161.12 373.12,-161.12 373.12,-141.88 462.62,-141.88 462.62,-161.12"/>
<text text-anchor="middle" x="417.88" y="-147.62" font-family="Helvetica,sans-Serif" font-size="10.00">StoppableThread</text>
</a>
</g>
</g>
<!-- Node2&#45;&gt;Node1 -->
<g id="edge1_Node000001_Node000002" class="edge">
<title>Node2&#45;&gt;Node1</title>
<g id="a_edge1_Node000001_Node000002"><a xlink:title=" ">
<path fill="none" stroke="#63b8ff" d="M474.02,-139.49C482.88,-137.51 491.95,-135.47 500.5,-133.5 537.4,-125 579.3,-114.9 609.39,-107.56"/>
<polygon fill="#63b8ff" stroke="#63b8ff" points="473.45,-136.03 464.44,-141.61 474.96,-142.86 473.45,-136.03"/>
</a>
</g>
</g>
<!-- Node3 -->
<g id="Node000003" class="node">
<title>Node3</title>
<g id="a_Node000003"><a xlink:title=" ">
<polygon fill="white" stroke="#666666" points="213,-225.12 152,-225.12 152,-205.88 213,-205.88 213,-225.12"/>
<text text-anchor="middle" x="182.5" y="-211.62" font-family="Helvetica,sans-Serif" font-size="10.00">std::thread</text>
</a>
</g>
</g>
<!-- Node3&#45;&gt;Node2 -->
<g id="edge2_Node000002_Node000003" class="edge">
<title>Node3&#45;&gt;Node2</title>
<g id="a_edge2_Node000002_Node000003"><a xlink:title=" ">
<path fill="none" stroke="#9a32cd" stroke-dasharray="5,2" d="M224.11,-205.18C250.66,-198.36 286.08,-189.11 317.25,-180.5 339.3,-174.41 363.99,-167.22 383.28,-161.53"/>
<polygon fill="#9a32cd" stroke="#9a32cd" points="223.6,-201.7 214.78,-207.57 225.33,-208.48 223.6,-201.7"/>
</a>
</g>
<text text-anchor="middle" x="285.38" y="-209.5" font-family="Helvetica,sans-Serif" font-size="10.00" fill="grey"> fStatusThread</text>
<text text-anchor="middle" x="285.38" y="-198.25" font-family="Helvetica,sans-Serif" font-size="10.00" fill="grey">fThread</text>
</g>
<!-- Node4 -->
<g id="Node000004" class="node">
<title>Node4</title>
<g id="a_Node000004"><a xlink:title=" ">
<polygon fill="white" stroke="#666666" points="235.5,-187.75 129.5,-187.75 129.5,-157.25 235.5,-157.25 235.5,-187.75"/>
<text text-anchor="start" x="137.5" y="-174.25" font-family="Helvetica,sans-Serif" font-size="10.00">std::map&lt; std::string,</text>
<text text-anchor="middle" x="182.5" y="-163" font-family="Helvetica,sans-Serif" font-size="10.00"> StoppableThread * &gt;</text>
</a>
</g>
</g>
<!-- Node4&#45;&gt;Node2 -->
<g id="edge3_Node000002_Node000004" class="edge">
<title>Node4&#45;&gt;Node2</title>
<g id="a_edge3_Node000002_Node000004"><a xlink:title=" ">
<path fill="none" stroke="#9a32cd" stroke-dasharray="5,2" d="M247.09,-166.78C286.99,-163.19 337.41,-158.65 372.9,-155.46"/>
<polygon fill="#9a32cd" stroke="#9a32cd" points="247.03,-163.27 237.38,-167.65 247.65,-170.24 247.03,-163.27"/>
</a>
</g>
<text text-anchor="middle" x="285.38" y="-167.25" font-family="Helvetica,sans-Serif" font-size="10.00" fill="grey"> fThreadMap</text>
</g>
<!-- Node5 -->
<g id="Node000005" class="node">
<title>Node5</title>
<g id="a_Node000005"><a xlink:title=" ">
<polygon fill="white" stroke="#666666" points="211.5,-139.12 153.5,-139.12 153.5,-119.88 211.5,-119.88 211.5,-139.12"/>
<text text-anchor="middle" x="182.5" y="-125.62" font-family="Helvetica,sans-Serif" font-size="10.00">std::string</text>
</a>
</g>
</g>
<!-- Node5&#45;&gt;Node2 -->
<g id="edge4_Node000002_Node000005" class="edge">
<title>Node5&#45;&gt;Node2</title>
<g id="a_edge4_Node000002_Node000005"><a xlink:title=" ">
<path fill="none" stroke="#9a32cd" stroke-dasharray="5,2" d="M222.94,-133.22C264.41,-137.13 329.51,-143.26 372.68,-147.33"/>
<polygon fill="#9a32cd" stroke="#9a32cd" points="223.44,-129.75 213.16,-132.3 222.78,-136.72 223.44,-129.75"/>
</a>
</g>
<text text-anchor="middle" x="285.38" y="-143.25" font-family="Helvetica,sans-Serif" font-size="10.00" fill="grey"> fName</text>
</g>
<!-- Node6 -->
<g id="Node000006" class="node">
<title>Node6</title>
<g id="a_Node000006"><a xlink:title=" ">
<polygon fill="white" stroke="#666666" points="92.5,-144.75 0,-144.75 0,-114.25 92.5,-114.25 92.5,-144.75"/>
<text text-anchor="start" x="8" y="-131.25" font-family="Helvetica,sans-Serif" font-size="10.00">std::basic_string&lt;</text>
<text text-anchor="middle" x="46.25" y="-120" font-family="Helvetica,sans-Serif" font-size="10.00"> Char &gt;</text>
</a>
</g>
</g>
<!-- Node6&#45;&gt;Node5 -->
<g id="edge5_Node000005_Node000006" class="edge">
<title>Node6&#45;&gt;Node5</title>
<g id="a_edge5_Node000005_Node000006"><a xlink:title=" ">
<path fill="none" stroke="#63b8ff" d="M103.76,-129.5C120.87,-129.5 138.92,-129.5 153.32,-129.5"/>
<polygon fill="#63b8ff" stroke="#63b8ff" points="104.21,-126 94.21,-129.5 104.21,-133 104.21,-126"/>
</a>
</g>
</g>
<!-- Node7 -->
<g id="Node000007" class="node">
<title>Node7</title>
<g id="a_Node000007"><a xlink:title=" ">
<polygon fill="white" stroke="#666666" points="212.62,-102.12 152.38,-102.12 152.38,-82.88 212.62,-82.88 212.62,-102.12"/>
<text text-anchor="middle" x="182.5" y="-88.62" font-family="Helvetica,sans-Serif" font-size="10.00">std::mutex</text>
</a>
</g>
</g>
<!-- Node7&#45;&gt;Node2 -->
<g id="edge6_Node000002_Node000007" class="edge">
<title>Node7&#45;&gt;Node2</title>
<g id="a_edge6_Node000002_Node000007"><a xlink:title=" ">
<path fill="none" stroke="#9a32cd" stroke-dasharray="5,2" d="M223.98,-97.06C251.17,-101.11 287.35,-108.45 317.25,-121.25 326.15,-125.06 326.36,-129.67 335.25,-133.5 346.98,-138.56 360.28,-142.27 372.7,-144.95"/>
<polygon fill="#9a32cd" stroke="#9a32cd" points="224.81,-93.64 214.42,-95.73 223.84,-100.58 224.81,-93.64"/>
</a>
</g>
<text text-anchor="middle" x="285.38" y="-122.25" font-family="Helvetica,sans-Serif" font-size="10.00" fill="grey"> fPauseMutex</text>
</g>
<!-- Node8 -->
<g id="Node000008" class="node">
<title>Node8</title>
<g id="a_Node000008"><a xlink:title=" ">
<polygon fill="white" stroke="#666666" points="491.88,-124 343.88,-124 343.88,-71 491.88,-71 491.88,-124"/>
<text text-anchor="start" x="351.88" y="-110.5" font-family="Helvetica,sans-Serif" font-size="10.00">std::shared_ptr&lt; Threadsafe</text>
<text text-anchor="start" x="351.88" y="-99.25" font-family="Helvetica,sans-Serif" font-size="10.00">Queue&lt; std::vector&lt; std</text>
<text text-anchor="start" x="351.88" y="-88" font-family="Helvetica,sans-Serif" font-size="10.00">::shared_ptr&lt; const TFragment</text>
<text text-anchor="middle" x="417.88" y="-76.75" font-family="Helvetica,sans-Serif" font-size="10.00"> &gt; &gt; &gt; &gt;</text>
</a>
</g>
</g>
<!-- Node8&#45;&gt;Node1 -->
<g id="edge7_Node000001_Node000008" class="edge">
<title>Node8&#45;&gt;Node1</title>
<g id="a_edge7_Node000001_Node000008"><a xlink:title=" ">
<path fill="none" stroke="#9a32cd" stroke-dasharray="5,2" d="M503.53,-97.5C537.66,-97.5 575.69,-97.5 604.5,-97.5"/>
<polygon fill="#9a32cd" stroke="#9a32cd" points="503.64,-94 493.64,-97.5 503.64,-101 503.64,-94"/>
</a>
</g>
<text text-anchor="middle" x="552.62" y="-99.25" font-family="Helvetica,sans-Serif" font-size="10.00" fill="grey"> fInputQueue</text>
</g>
<!-- Node9 -->
<g id="Node000009" class="node">
<title>Node9</title>
<g id="a_Node000009"><a xlink:title=" ">
<polygon fill="white" stroke="#666666" points="500.5,-53 335.25,-53 335.25,0 500.5,0 500.5,-53"/>
<text text-anchor="start" x="343.25" y="-39.5" font-family="Helvetica,sans-Serif" font-size="10.00">std::vector&lt; std::shared</text>
<text text-anchor="start" x="343.25" y="-28.25" font-family="Helvetica,sans-Serif" font-size="10.00">_ptr&lt; ThreadsafeQueue&lt;</text>
<text text-anchor="start" x="343.25" y="-17" font-family="Helvetica,sans-Serif" font-size="10.00"> std::shared_ptr&lt; TUnpackedEvent</text>
<text text-anchor="middle" x="417.88" y="-5.75" font-family="Helvetica,sans-Serif" font-size="10.00"> &gt; &gt; &gt; &gt;</text>
</a>
</g>
</g>
<!-- Node9&#45;&gt;Node1 -->
<g id="edge8_Node000001_Node000009" class="edge">
<title>Node9&#45;&gt;Node1</title>
<g id="a_edge8_Node000001_Node000009"><a xlink:title=" ">
<path fill="none" stroke="#9a32cd" stroke-dasharray="5,2" d="M511.78,-54.99C549.18,-66.46 589.88,-78.95 617.44,-87.4"/>
<polygon fill="#9a32cd" stroke="#9a32cd" points="512.85,-51.66 502.27,-52.08 510.8,-58.35 512.85,-51.66"/>
</a>
</g>
<text text-anchor="middle" x="552.62" y="-79.25" font-family="Helvetica,sans-Serif" font-size="10.00" fill="grey"> fOutputQueues</text>
</g>
</g>
</svg>

<g id="navigator" transform="translate(0 0)" fill="#404254">
  <rect fill="#f2f5e9" fill-opacity="0.5" stroke="#606060" stroke-width=".5" x="0" y="0" width="60" height="60"/>
  <use id="zoomplus" xlink:href="#zoomPlus" x="17" y="9" onmousedown="handleZoom(evt,'in')"/>
  <use id="zoomminus" xlink:href="#zoomMin" x="42" y="9" onmousedown="handleZoom(evt,'out')"/>
  <use id="reset" xlink:href="#resetDef" x="30" y="36" onmousedown="handleReset()"/>
   <use id="arrowup" xlink:href="#arrowUp" x="0" y="0" onmousedown="handlePan(0,-1)"/>
  <use id="arrowright" xlink:href="#arrowRight" x="0" y="0" onmousedown="handlePan(1,0)"/>
  <use id="arrowdown" xlink:href="#arrowDown" x="0" y="0" onmousedown="handlePan(0,1)"/>
  <use id="arrowleft" xlink:href="#arrowLeft" x="0" y="0" onmousedown="handlePan(-1,0)"/>
</g>
<svg viewBox="0 0 15 15" width="100%" height="30px" preserveAspectRatio="xMaxYMin meet">
 <g id="arrow_out" transform="scale(0.3 0.3)">
  <a xlink:href="class_t_det_building_loop__coll__graph_org.svg" target="_base">
   <rect id="button" ry="5" rx="5" y="6" x="6" height="38" width="38"
        fill="#f2f5e9" fill-opacity="0.5" stroke="#606060" stroke-width="1.0"/>
   <path id="arrow"
     d="M 11.500037,31.436501 C 11.940474,20.09759 22.043105,11.32322 32.158766,21.979434 L 37.068811,17.246167 C 37.068811,17.246167 37.088388,32 37.088388,32 L 22.160133,31.978069 C 22.160133,31.978069 26.997745,27.140456 26.997745,27.140456 C 18.528582,18.264221 13.291696,25.230495 11.500037,31.436501 z"
     style="fill:#404040;"/>
  </a>
 </g>
</svg>

<style type='text/css'>
<![CDATA[
[data-mouse-over-selected='false'] { opacity: 0.7; }
[data-mouse-over-selected='true']  { opacity: 1.0; }
]]>
</style>
<script type="application/ecmascript"><![CDATA[
document.addEventListener('DOMContentLoaded', (event) => {
  highlightEdges();
  highlightAdjacentNodes();
});
]]></script>
</svg>
