<?xml version="1.0" encoding="UTF-8" standalone="no"?>
<!DOCTYPE svg PUBLIC "-//W3C//DTD SVG 1.1//EN"
 "http://www.w3.org/Graphics/SVG/1.1/DTD/svg11.dtd">
<!-- Generated by graphviz version 12.2.0 (20241103.1931)
 -->
<!-- Title: TChannelTab Pages: 1 -->
<!--zoomable 705 -->

<svg id="main" version="1.1" xmlns="http://www.w3.org/2000/svg" xmlns:xlink="http://www.w3.org/1999/xlink" xml:space="preserve" onload="init(evt)">

<style type="text/css"><![CDATA[
.node, .edge {opacity: 0.7;}
.node.selected, .edge.selected {opacity: 1;}
.edge:hover path { stroke: red; }
.edge:hover polygon { stroke: red; fill: red; }
]]></style>

<defs>
  <circle id="rim" cx="0" cy="0" r="7"/>
  <circle id="rim2" cx="0" cy="0" r="3.5"/>
  <g id="zoomPlus">
    <use xlink:href="#rim" fill="#404040"><set attributeName="fill" to="#808080" begin="zoomplus.mouseover" end="zoomplus.mouseout"/></use>
    <path d="M-4,0h8M0,-4v8" fill="none" stroke="white" stroke-width="1.5" pointer-events="none"/>
  </g>
  <g id="zoomMin">
    <use xlink:href="#rim" fill="#404040"><set attributeName="fill" to="#808080" begin="zoomminus.mouseover" end="zoomminus.mouseout"/></use>
    <path d="M-4,0h8" fill="none" stroke="white" stroke-width="1.5" pointer-events="none"/>
  </g>
  <g id="arrowUp" transform="translate(30 24)">
    <use xlink:href="#rim"/>
    <path pointer-events="none" fill="none" stroke="white" stroke-width="1.5" d="M0,-3.0v7 M-2.5,-0.5L0,-3.0L2.5,-0.5"/>
  </g>
  <g id="arrowRight" transform="rotate(90) translate(36 -43)">
    <use xlink:href="#rim"/>
    <path pointer-events="none" fill="none" stroke="white" stroke-width="1.5" d="M0,-3.0v7 M-2.5,-0.5L0,-3.0L2.5,-0.5"/>
  </g>
  <g id="arrowDown" transform="rotate(180) translate(-30 -48)">
    <use xlink:href="#rim"/>
    <path pointer-events="none" fill="none" stroke="white" stroke-width="1.5" d="M0,-3.0v7 M-2.5,-0.5L0,-3.0L2.5,-0.5"/>
  </g>
  <g id="arrowLeft" transform="rotate(270) translate(-36 17)">
    <use xlink:href="#rim"/>
    <path pointer-events="none" fill="none" stroke="white" stroke-width="1.5" d="M0,-3.0v7 M-2.5,-0.5L0,-3.0L2.5,-0.5"/>
  </g>
  <g id="resetDef">
    <use xlink:href="#rim2" fill="#404040"><set attributeName="fill" to="#808080" begin="reset.mouseover" end="reset.mouseout"/></use>
  </g>
</defs>
<script type="application/ecmascript">
var viewWidth = 693;
var viewHeight = 705;
var sectionId = 'dynsection-0';
</script>
<script type="application/ecmascript" xlink:href="svg.min.js"/>
<svg id="graph" class="graph">
<g id="viewport">
<title>TChannelTab</title>
<!-- Node1 -->
<g id="Node000001" class="node">
<title>Node1</title>
<g id="a_Node000001"><a xlink:title=" ">
<polygon fill="#999999" stroke="#666666" points="684.5,-352.25 610.75,-352.25 610.75,-333 684.5,-333 684.5,-352.25"/>
<text text-anchor="middle" x="647.62" y="-338.75" font-family="Helvetica,sans-Serif" font-size="10.00">TChannelTab</text>
</a>
</g>
</g>
<!-- Node2 -->
<g id="Node000002" class="node">
<title>Node2</title>
<g id="a_Node000002"><a xlink:title=" ">
<polygon fill="white" stroke="#666666" points="520.75,-694.25 384,-694.25 384,-675 520.75,-675 520.75,-694.25"/>
<text text-anchor="middle" x="452.38" y="-680.75" font-family="Helvetica,sans-Serif" font-size="10.00">std::vector&lt; TSourceTab * &gt;</text>
</a>
</g>
</g>
<!-- Node2&#45;&gt;Node1 -->
<g id="edge1_Node000001_Node000002" class="edge">
<title>Node2&#45;&gt;Node1</title>
<g id="a_edge1_Node000001_Node000002"><a xlink:title=" ">
<path fill="none" stroke="#9a32cd" stroke-dasharray="5,2" d="M532.42,-686.72C554.58,-683.36 576.91,-675.61 592.75,-659.62 637.25,-614.72 645.18,-401.12 646.42,-352.49"/>
<polygon fill="#9a32cd" stroke="#9a32cd" points="532.26,-683.21 522.74,-687.88 533.09,-690.16 532.26,-683.21"/>
</a>
</g>
<text text-anchor="middle" x="565.75" y="-687.26" font-family="Helvetica,sans-Serif" font-size="10.00" fill="grey"> fSources</text>
</g>
<!-- Node3 -->
<g id="Node000003" class="node">
<title>Node3</title>
<g id="a_Node000003"><a xlink:href="class_t_source_calibration.html" target="_top" xlink:title=" ">
<polygon fill="white" stroke="#666666" points="501.62,-444.25 403.12,-444.25 403.12,-425 501.62,-425 501.62,-444.25"/>
<text text-anchor="middle" x="452.38" y="-430.75" font-family="Helvetica,sans-Serif" font-size="10.00">TSourceCalibration</text>
</a>
</g>
</g>
<!-- Node3&#45;&gt;Node1 -->
<g id="edge2_Node000001_Node000003" class="edge">
<title>Node3&#45;&gt;Node1</title>
<g id="a_edge2_Node000001_Node000003"><a xlink:title=" ">
<path fill="none" stroke="#9a32cd" stroke-dasharray="5,2" d="M484.58,-419.77C524.23,-400.9 591.57,-368.84 625.6,-352.63"/>
<polygon fill="#9a32cd" stroke="#9a32cd" points="483.32,-416.5 475.79,-423.95 486.32,-422.82 483.32,-416.5"/>
</a>
</g>
<text text-anchor="middle" x="565.75" y="-393.13" font-family="Helvetica,sans-Serif" font-size="10.00" fill="grey"> fParent</text>
</g>
<!-- Node4 -->
<g id="Node000004" class="node">
<title>Node4</title>
<g id="a_Node000004"><a xlink:title=" ">
<polygon fill="white" stroke="#666666" points="240.75,-401.25 162.5,-401.25 162.5,-382 240.75,-382 240.75,-401.25"/>
<text text-anchor="middle" x="201.62" y="-387.75" font-family="Helvetica,sans-Serif" font-size="10.00">TGMainFrame</text>
</a>
</g>
</g>
<!-- Node4&#45;&gt;Node3 -->
<g id="edge3_Node000003_Node000004" class="edge">
<title>Node4&#45;&gt;Node3</title>
<g id="a_edge3_Node000003_Node000004"><a xlink:title=" ">
<path fill="none" stroke="#63b8ff" d="M252.46,-400.24C296.22,-407.8 359.49,-418.74 402.86,-426.24"/>
<polygon fill="#63b8ff" stroke="#63b8ff" points="253.16,-396.81 242.71,-398.55 251.97,-403.71 253.16,-396.81"/>
</a>
</g>
</g>
<!-- Node5 -->
<g id="Node000005" class="node">
<title>Node5</title>
<g id="a_Node000005"><a xlink:title=" ">
<polygon fill="white" stroke="#666666" points="272.25,-303.25 131,-303.25 131,-284 272.25,-284 272.25,-303.25"/>
<text text-anchor="middle" x="201.62" y="-289.75" font-family="Helvetica,sans-Serif" font-size="10.00">std::vector&lt; TChannelTab * &gt;</text>
</a>
</g>
</g>
<!-- Node5&#45;&gt;Node3 -->
<g id="edge4_Node000003_Node000005" class="edge">
<title>Node5&#45;&gt;Node3</title>
<g id="a_edge4_Node000003_Node000005"><a xlink:title=" ">
<path fill="none" stroke="#9a32cd" stroke-dasharray="5,2" d="M254.95,-306.67C261.33,-308.53 267.72,-310.53 273.75,-312.62 315.93,-327.26 328.82,-327.66 366,-352.38 398.05,-373.69 428.83,-407.75 443.1,-424.56"/>
<polygon fill="#9a32cd" stroke="#9a32cd" points="256.34,-303.42 245.76,-304.08 254.44,-310.16 256.34,-303.42"/>
</a>
</g>
<text text-anchor="middle" x="328.88" y="-354.12" font-family="Helvetica,sans-Serif" font-size="10.00" fill="grey"> fChannelTab</text>
</g>
<!-- Node6 -->
<g id="Node000006" class="node">
<title>Node6</title>
<g id="a_Node000006"><a xlink:title=" ">
<polygon fill="white" stroke="#666666" points="262.12,-598.25 141.12,-598.25 141.12,-579 262.12,-579 262.12,-598.25"/>
<text text-anchor="middle" x="201.62" y="-584.75" font-family="Helvetica,sans-Serif" font-size="10.00">std::vector&lt; TGLabel * &gt;</text>
</a>
</g>
</g>
<!-- Node6&#45;&gt;Node3 -->
<g id="edge5_Node000003_Node000006" class="edge">
<title>Node6&#45;&gt;Node3</title>
<g id="a_edge5_Node000003_Node000006"><a xlink:title=" ">
<path fill="none" stroke="#9a32cd" stroke-dasharray="5,2" d="M273.69,-588.05C304.14,-584.9 338.86,-577.16 366,-559.62 411.03,-530.53 438.51,-468.43 447.81,-444.4"/>
<polygon fill="#9a32cd" stroke="#9a32cd" points="273.42,-584.56 263.76,-588.92 274.03,-591.54 273.42,-584.56"/>
</a>
</g>
<text text-anchor="middle" x="328.88" y="-586.93" font-family="Helvetica,sans-Serif" font-size="10.00" fill="grey"> fMatrixNames</text>
</g>
<!-- Node7 -->
<g id="Node000007" class="node">
<title>Node7</title>
<g id="a_Node000007"><a xlink:title=" ">
<polygon fill="white" stroke="#666666" points="273.75,-561.25 129.5,-561.25 129.5,-542 273.75,-542 273.75,-561.25"/>
<text text-anchor="middle" x="201.62" y="-547.75" font-family="Helvetica,sans-Serif" font-size="10.00">std::vector&lt; TGComboBox * &gt;</text>
</a>
</g>
</g>
<!-- Node7&#45;&gt;Node3 -->
<g id="edge6_Node000003_Node000007" class="edge">
<title>Node7&#45;&gt;Node3</title>
<g id="a_edge6_Node000003_Node000007"><a xlink:title=" ">
<path fill="none" stroke="#9a32cd" stroke-dasharray="5,2" d="M285.41,-545.7C312.28,-541.28 341.46,-533.66 366,-520.62 401.67,-501.68 431.86,-462.78 444.72,-444.51"/>
<polygon fill="#9a32cd" stroke="#9a32cd" points="284.93,-542.24 275.56,-547.19 285.97,-549.16 284.93,-542.24"/>
</a>
</g>
<text text-anchor="middle" x="328.88" y="-546.09" font-family="Helvetica,sans-Serif" font-size="10.00" fill="grey"> fSourceBox</text>
</g>
<!-- Node8 -->
<g id="Node000008" class="node">
<title>Node8</title>
<g id="a_Node000008"><a xlink:title=" ">
<polygon fill="white" stroke="#666666" points="264.38,-645.25 138.88,-645.25 138.88,-626 264.38,-626 264.38,-645.25"/>
<text text-anchor="middle" x="201.62" y="-631.75" font-family="Helvetica,sans-Serif" font-size="10.00">std::vector&lt; TNucleus * &gt;</text>
</a>
</g>
</g>
<!-- Node8&#45;&gt;Node1 -->
<g id="edge14_Node000001_Node000008" class="edge">
<title>Node8&#45;&gt;Node1</title>
<g id="a_edge14_Node000001_Node000008"><a xlink:title=" ">
<path fill="none" stroke="#9a32cd" stroke-dasharray="5,2" d="M276,-645.24C305.06,-646.17 338.12,-643.51 366,-631.62 509.46,-570.46 615.93,-396.56 640.99,-352.74"/>
<polygon fill="#9a32cd" stroke="#9a32cd" points="276.33,-641.75 266.17,-644.77 275.99,-648.75 276.33,-641.75"/>
</a>
</g>
<text text-anchor="middle" x="452.38" y="-623.16" font-family="Helvetica,sans-Serif" font-size="10.00" fill="grey"> fNuclei</text>
</g>
<!-- Node8&#45;&gt;Node3 -->
<g id="edge7_Node000003_Node000008" class="edge">
<title>Node8&#45;&gt;Node3</title>
<g id="a_edge7_Node000003_Node000008"><a xlink:title=" ">
<path fill="none" stroke="#9a32cd" stroke-dasharray="5,2" d="M267.08,-623.3C309.21,-614.78 357.89,-603.9 366,-597.62 419.06,-556.58 442.52,-473.19 449.24,-444.55"/>
<polygon fill="#9a32cd" stroke="#9a32cd" points="266.58,-619.83 257.46,-625.22 267.95,-626.69 266.58,-619.83"/>
</a>
</g>
<text text-anchor="middle" x="328.88" y="-619.69" font-family="Helvetica,sans-Serif" font-size="10.00" fill="grey"> fSource</text>
</g>
<!-- Node9 -->
<g id="Node000009" class="node">
<title>Node9</title>
<g id="a_Node000009"><a xlink:title=" ">
<polygon fill="white" stroke="#666666" points="270,-363.5 133.25,-363.5 133.25,-321.75 270,-321.75 270,-363.5"/>
<text text-anchor="start" x="141.25" y="-350" font-family="Helvetica,sans-Serif" font-size="10.00">std::vector&lt; std::vector</text>
<text text-anchor="start" x="141.25" y="-338.75" font-family="Helvetica,sans-Serif" font-size="10.00">&lt; std::tuple&lt; double, double,</text>
<text text-anchor="middle" x="201.62" y="-327.5" font-family="Helvetica,sans-Serif" font-size="10.00"> double, double &gt; &gt; &gt;</text>
</a>
</g>
</g>
<!-- Node9&#45;&gt;Node1 -->
<g id="edge17_Node000001_Node000009" class="edge">
<title>Node9&#45;&gt;Node1</title>
<g id="a_edge17_Node000001_Node000009"><a xlink:title=" ">
<path fill="none" stroke="#9a32cd" stroke-dasharray="5,2" d="M281.57,-342.62C378.6,-342.62 539.14,-342.62 610.51,-342.62"/>
<polygon fill="#9a32cd" stroke="#9a32cd" points="281.57,-339.13 271.57,-342.63 281.57,-346.13 281.57,-339.13"/>
</a>
</g>
<text text-anchor="middle" x="452.38" y="-344.38" font-family="Helvetica,sans-Serif" font-size="10.00" fill="grey"> fSourceEnergies</text>
</g>
<!-- Node9&#45;&gt;Node3 -->
<g id="edge8_Node000003_Node000009" class="edge">
<title>Node9&#45;&gt;Node3</title>
<g id="a_edge8_Node000003_Node000009"><a xlink:title=" ">
<path fill="none" stroke="#9a32cd" stroke-dasharray="5,2" d="M281.28,-363.74C308.45,-371.77 338.87,-381.62 366,-392.38 389.98,-401.89 416.44,-415.49 433.45,-424.67"/>
<polygon fill="#9a32cd" stroke="#9a32cd" points="282.28,-360.38 271.7,-360.94 280.32,-367.1 282.28,-360.38"/>
</a>
</g>
<text text-anchor="middle" x="328.88" y="-394.12" font-family="Helvetica,sans-Serif" font-size="10.00" fill="grey"> fSourceEnergy</text>
</g>
<!-- Node10 -->
<g id="Node000010" class="node">
<title>Node10</title>
<g id="a_Node000010"><a xlink:title=" ">
<polygon fill="white" stroke="#666666" points="245.62,-524.25 157.62,-524.25 157.62,-505 245.62,-505 245.62,-524.25"/>
<text text-anchor="middle" x="201.62" y="-510.75" font-family="Helvetica,sans-Serif" font-size="10.00">std::vector&lt; int &gt;</text>
</a>
</g>
</g>
<!-- Node10&#45;&gt;Node3 -->
<g id="edge9_Node000003_Node000010" class="edge">
<title>Node10&#45;&gt;Node3</title>
<g id="a_edge9_Node000003_Node000010"><a xlink:title=" ">
<path fill="none" stroke="#9a32cd" stroke-dasharray="5,2" d="M256.88,-503.62C289.03,-496.46 330.33,-486.13 366,-473.62 389.37,-465.43 415.09,-453.22 432.13,-444.65"/>
<polygon fill="#9a32cd" stroke="#9a32cd" points="256.41,-500.14 247.39,-505.7 257.91,-506.98 256.41,-500.14"/>
</a>
</g>
<text text-anchor="middle" x="328.88" y="-507.53" font-family="Helvetica,sans-Serif" font-size="10.00" fill="grey"> fActiveBins</text>
<text text-anchor="middle" x="328.88" y="-496.28" font-family="Helvetica,sans-Serif" font-size="10.00" fill="grey">fActualChannelId</text>
</g>
<!-- Node11 -->
<g id="Node000011" class="node">
<title>Node11</title>
<g id="a_Node000011"><a xlink:title=" ">
<polygon fill="white" stroke="#666666" points="248.25,-486.88 155,-486.88 155,-456.38 248.25,-456.38 248.25,-486.88"/>
<text text-anchor="start" x="163" y="-473.38" font-family="Helvetica,sans-Serif" font-size="10.00">std::vector&lt; const</text>
<text text-anchor="middle" x="201.62" y="-462.12" font-family="Helvetica,sans-Serif" font-size="10.00"> char * &gt;</text>
</a>
</g>
</g>
<!-- Node11&#45;&gt;Node3 -->
<g id="edge10_Node000003_Node000011" class="edge">
<title>Node11&#45;&gt;Node3</title>
<g id="a_edge10_Node000003_Node000011"><a xlink:title=" ">
<path fill="none" stroke="#9a32cd" stroke-dasharray="5,2" d="M259.58,-463.33C290.98,-458.74 330.65,-452.91 366,-447.62 378.01,-445.83 390.97,-443.87 403.07,-442.03"/>
<polygon fill="#9a32cd" stroke="#9a32cd" points="259.3,-459.84 249.91,-464.75 260.31,-466.76 259.3,-459.84"/>
</a>
</g>
<text text-anchor="middle" x="328.88" y="-459.99" font-family="Helvetica,sans-Serif" font-size="10.00" fill="grey"> fChannelLabel</text>
</g>
<!-- Node12 -->
<g id="Node000012" class="node">
<title>Node12</title>
<g id="a_Node000012"><a xlink:title=" ">
<polygon fill="white" stroke="#666666" points="252.75,-438.25 150.5,-438.25 150.5,-419 252.75,-419 252.75,-438.25"/>
<text text-anchor="middle" x="201.62" y="-424.75" font-family="Helvetica,sans-Serif" font-size="10.00">std::vector&lt; TH2 * &gt;</text>
</a>
</g>
</g>
<!-- Node12&#45;&gt;Node3 -->
<g id="edge11_Node000003_Node000012" class="edge">
<title>Node12&#45;&gt;Node3</title>
<g id="a_edge11_Node000003_Node000012"><a xlink:title=" ">
<path fill="none" stroke="#9a32cd" stroke-dasharray="5,2" d="M264.36,-430.11C307.12,-431.15 363.24,-432.5 402.8,-433.45"/>
<polygon fill="#9a32cd" stroke="#9a32cd" points="264.56,-426.62 254.48,-429.88 264.39,-433.62 264.56,-426.62"/>
</a>
</g>
<text text-anchor="middle" x="328.88" y="-434.26" font-family="Helvetica,sans-Serif" font-size="10.00" fill="grey"> fMatrices</text>
</g>
<!-- Node13 -->
<g id="Node000013" class="node">
<title>Node13</title>
<g id="a_Node000013"><a xlink:title=" ">
<polygon fill="white" stroke="#666666" points="230.62,-259.25 172.62,-259.25 172.62,-240 230.62,-240 230.62,-259.25"/>
<text text-anchor="middle" x="201.62" y="-245.75" font-family="Helvetica,sans-Serif" font-size="10.00">std::string</text>
</a>
</g>
</g>
<!-- Node13&#45;&gt;Node1 -->
<g id="edge16_Node000001_Node000013" class="edge">
<title>Node13&#45;&gt;Node1</title>
<g id="a_edge16_Node000001_Node000013"><a xlink:title=" ">
<path fill="none" stroke="#9a32cd" stroke-dasharray="5,2" d="M241.96,-250.91C275.23,-252.5 324.03,-255.99 366,-263.62 459.87,-280.7 567.65,-315.46 617.96,-332.61"/>
<polygon fill="#9a32cd" stroke="#9a32cd" points="242.54,-247.43 232.39,-250.49 242.23,-254.43 242.54,-247.43"/>
</a>
</g>
<text text-anchor="middle" x="452.38" y="-303.2" font-family="Helvetica,sans-Serif" font-size="10.00" fill="grey"> fName</text>
</g>
<!-- Node13&#45;&gt;Node3 -->
<g id="edge12_Node000003_Node000013" class="edge">
<title>Node13&#45;&gt;Node3</title>
<g id="a_edge12_Node000003_Node000013"><a xlink:title=" ">
<path fill="none" stroke="#9a32cd" stroke-dasharray="5,2" d="M242.13,-252.67C278.88,-257.55 332.81,-270.27 366,-303.38 383.99,-321.32 371.39,-335.57 384,-357.62 399.52,-384.76 425.55,-410.98 440.3,-424.72"/>
<polygon fill="#9a32cd" stroke="#9a32cd" points="242.69,-249.21 232.35,-251.52 241.88,-256.16 242.69,-249.21"/>
</a>
</g>
<text text-anchor="middle" x="328.88" y="-305.12" font-family="Helvetica,sans-Serif" font-size="10.00" fill="grey"> fLogFile</text>
</g>
<!-- Node16 -->
<g id="Node000016" class="node">
<title>Node16</title>
<g id="a_Node000016"><a xlink:href="class_t_calibration_graph_set.html" target="_top" xlink:title=" ">
<polygon fill="white" stroke="#666666" points="506.88,-142.25 397.88,-142.25 397.88,-123 506.88,-123 506.88,-142.25"/>
<text text-anchor="middle" x="452.38" y="-128.75" font-family="Helvetica,sans-Serif" font-size="10.00">TCalibrationGraphSet</text>
</a>
</g>
</g>
<!-- Node13&#45;&gt;Node16 -->
<g id="edge24_Node000016_Node000013" class="edge">
<title>Node13&#45;&gt;Node16</title>
<g id="a_edge24_Node000016_Node000013"><a xlink:title=" ">
<path fill="none" stroke="#9a32cd" stroke-dasharray="5,2" d="M237.95,-235.2C282.27,-217.06 353.96,-187.55 366,-181.62 390.84,-169.39 418.43,-153.02 435.34,-142.64"/>
<polygon fill="#9a32cd" stroke="#9a32cd" points="236.66,-231.95 228.73,-238.97 239.31,-238.43 236.66,-231.95"/>
</a>
</g>
<text text-anchor="middle" x="328.88" y="-224.22" font-family="Helvetica,sans-Serif" font-size="10.00" fill="grey"> fXAxisLabel</text>
<text text-anchor="middle" x="328.88" y="-212.97" font-family="Helvetica,sans-Serif" font-size="10.00" fill="grey">fYAxisLabel</text>
</g>
<!-- Node14 -->
<g id="Node000014" class="node">
<title>Node14</title>
<g id="a_Node000014"><a xlink:title=" ">
<polygon fill="white" stroke="#666666" points="92.5,-264.88 0,-264.88 0,-234.38 92.5,-234.38 92.5,-264.88"/>
<text text-anchor="start" x="8" y="-251.38" font-family="Helvetica,sans-Serif" font-size="10.00">std::basic_string&lt;</text>
<text text-anchor="middle" x="46.25" y="-240.12" font-family="Helvetica,sans-Serif" font-size="10.00"> Char &gt;</text>
</a>
</g>
</g>
<!-- Node14&#45;&gt;Node13 -->
<g id="edge13_Node000013_Node000014" class="edge">
<title>Node14&#45;&gt;Node13</title>
<g id="a_edge13_Node000013_Node000014"><a xlink:title=" ">
<path fill="none" stroke="#63b8ff" d="M104.34,-249.62C127.53,-249.62 153.28,-249.62 172.31,-249.62"/>
<polygon fill="#63b8ff" stroke="#63b8ff" points="104.37,-246.13 94.37,-249.63 104.37,-253.13 104.37,-246.13"/>
</a>
</g>
</g>
<!-- Node15 -->
<g id="Node000015" class="node">
<title>Node15</title>
<g id="a_Node000015"><a xlink:title=" ">
<polygon fill="white" stroke="#666666" points="507.62,-213.25 397.12,-213.25 397.12,-194 507.62,-194 507.62,-213.25"/>
<text text-anchor="middle" x="452.38" y="-199.75" font-family="Helvetica,sans-Serif" font-size="10.00">std::vector&lt; GH1D * &gt;</text>
</a>
</g>
</g>
<!-- Node15&#45;&gt;Node1 -->
<g id="edge15_Node000001_Node000015" class="edge">
<title>Node15&#45;&gt;Node1</title>
<g id="a_edge15_Node000001_Node000015"><a xlink:title=" ">
<path fill="none" stroke="#9a32cd" stroke-dasharray="5,2" d="M519.35,-200.57C544.46,-202.51 571.99,-208.74 592.75,-224.38 629.15,-251.79 641.65,-309.57 645.3,-332.72"/>
<polygon fill="#9a32cd" stroke="#9a32cd" points="519.71,-197.08 509.53,-200.04 519.33,-204.07 519.71,-197.08"/>
</a>
</g>
<text text-anchor="middle" x="565.75" y="-226.12" font-family="Helvetica,sans-Serif" font-size="10.00" fill="grey"> fProjections</text>
</g>
<!-- Node16&#45;&gt;Node1 -->
<g id="edge18_Node000001_Node000016" class="edge">
<title>Node16&#45;&gt;Node1</title>
<g id="a_edge18_Node000001_Node000016"><a xlink:title=" ">
<path fill="none" stroke="#9a32cd" stroke-dasharray="5,2" d="M518.15,-140.27C544.29,-146.39 572.89,-157.38 592.75,-177.12 637.75,-221.87 645.17,-304.57 646.39,-332.85"/>
<polygon fill="#9a32cd" stroke="#9a32cd" points="519.13,-136.9 508.62,-138.25 517.68,-143.75 519.13,-136.9"/>
</a>
</g>
<text text-anchor="middle" x="565.75" y="-190.12" font-family="Helvetica,sans-Serif" font-size="10.00" fill="grey"> fData</text>
<text text-anchor="middle" x="565.75" y="-178.88" font-family="Helvetica,sans-Serif" font-size="10.00" fill="grey">fFwhm</text>
</g>
<!-- Node17 -->
<g id="Node000017" class="node">
<title>Node17</title>
<g id="a_Node000017"><a xlink:title=" ">
<polygon fill="white" stroke="#666666" points="228.38,-142.25 174.88,-142.25 174.88,-123 228.38,-123 228.38,-142.25"/>
<text text-anchor="middle" x="201.62" y="-128.75" font-family="Helvetica,sans-Serif" font-size="10.00">TNamed</text>
</a>
</g>
</g>
<!-- Node17&#45;&gt;Node16 -->
<g id="edge19_Node000016_Node000017" class="edge">
<title>Node17&#45;&gt;Node16</title>
<g id="a_edge19_Node000016_Node000017"><a xlink:title=" ">
<path fill="none" stroke="#63b8ff" d="M240.12,-132.62C282.03,-132.62 350.25,-132.62 397.78,-132.62"/>
<polygon fill="#63b8ff" stroke="#63b8ff" points="240.29,-129.13 230.29,-132.63 240.29,-136.13 240.29,-129.13"/>
</a>
</g>
</g>
<!-- Node18 -->
<g id="Node000018" class="node">
<title>Node18</title>
<g id="a_Node000018"><a xlink:title=" ">
<polygon fill="white" stroke="#666666" points="230.62,-105.25 172.62,-105.25 172.62,-86 230.62,-86 230.62,-105.25"/>
<text text-anchor="middle" x="201.62" y="-91.75" font-family="Helvetica,sans-Serif" font-size="10.00">TQObject</text>
</a>
</g>
</g>
<!-- Node18&#45;&gt;Node16 -->
<g id="edge20_Node000016_Node000018" class="edge">
<title>Node18&#45;&gt;Node16</title>
<g id="a_edge20_Node000016_Node000018"><a xlink:title=" ">
<path fill="none" stroke="#63b8ff" d="M241.83,-101.46C283.85,-107.71 350.84,-117.67 397.73,-124.65"/>
<polygon fill="#63b8ff" stroke="#63b8ff" points="242.58,-98.03 232.17,-100.02 241.55,-104.95 242.58,-98.03"/>
</a>
</g>
</g>
<!-- Node19 -->
<g id="Node000019" class="node">
<title>Node19</title>
<g id="a_Node000019"><a xlink:title=" ">
<polygon fill="white" stroke="#666666" points="262.12,-67.88 141.12,-67.88 141.12,-37.38 262.12,-37.38 262.12,-67.88"/>
<text text-anchor="start" x="149.12" y="-54.38" font-family="Helvetica,sans-Serif" font-size="10.00">std::vector&lt; TCalibration</text>
<text text-anchor="middle" x="201.62" y="-43.12" font-family="Helvetica,sans-Serif" font-size="10.00">Graph &gt;</text>
</a>
</g>
</g>
<!-- Node19&#45;&gt;Node16 -->
<g id="edge21_Node000016_Node000019" class="edge">
<title>Node19&#45;&gt;Node16</title>
<g id="a_edge21_Node000016_Node000019"><a xlink:title=" ">
<path fill="none" stroke="#9a32cd" stroke-dasharray="5,2" d="M273.89,-60.54C303.05,-65.15 336.74,-72.28 366,-83.12 392.99,-93.13 421.32,-111.32 437.61,-122.65"/>
<polygon fill="#9a32cd" stroke="#9a32cd" points="274.44,-57.09 264.03,-59.06 273.4,-64.01 274.44,-57.09"/>
</a>
</g>
<text text-anchor="middle" x="328.88" y="-96.12" font-family="Helvetica,sans-Serif" font-size="10.00" fill="grey"> fGraphs</text>
<text text-anchor="middle" x="328.88" y="-84.88" font-family="Helvetica,sans-Serif" font-size="10.00" fill="grey">fResidualGraphs</text>
</g>
<!-- Node20 -->
<g id="Node000020" class="node">
<title>Node20</title>
<g id="a_Node000020"><a xlink:title=" ">
<polygon fill="white" stroke="#666666" points="261.38,-19.25 141.88,-19.25 141.88,0 261.38,0 261.38,-19.25"/>
<text text-anchor="middle" x="201.62" y="-5.75" font-family="Helvetica,sans-Serif" font-size="10.00">std::vector&lt; std::string &gt;</text>
</a>
</g>
</g>
<!-- Node20&#45;&gt;Node16 -->
<g id="edge22_Node000016_Node000020" class="edge">
<title>Node20&#45;&gt;Node16</title>
<g id="a_edge22_Node000016_Node000020"><a xlink:title=" ">
<path fill="none" stroke="#9a32cd" stroke-dasharray="5,2" d="M272.98,-18.28C303,-24.07 337.58,-33.64 366,-49.38 400.41,-68.43 430.77,-105.06 444.14,-122.68"/>
<polygon fill="#9a32cd" stroke="#9a32cd" points="273.67,-14.85 263.21,-16.52 272.43,-21.74 273.67,-14.85"/>
</a>
</g>
<text text-anchor="middle" x="328.88" y="-51.12" font-family="Helvetica,sans-Serif" font-size="10.00" fill="grey"> fLabel</text>
</g>
<!-- Node21 -->
<g id="Node000021" class="node">
<title>Node21</title>
<g id="a_Node000021"><a xlink:title=" ">
<polygon fill="white" stroke="#666666" points="253.12,-179.25 150.12,-179.25 150.12,-160 253.12,-160 253.12,-179.25"/>
<text text-anchor="middle" x="201.62" y="-165.75" font-family="Helvetica,sans-Serif" font-size="10.00">std::vector&lt; size_t &gt;</text>
</a>
</g>
</g>
<!-- Node21&#45;&gt;Node16 -->
<g id="edge23_Node000016_Node000021" class="edge">
<title>Node21&#45;&gt;Node16</title>
<g id="a_edge23_Node000016_Node000021"><a xlink:title=" ">
<path fill="none" stroke="#9a32cd" stroke-dasharray="5,2" d="M264.74,-160.39C305.56,-154.31 358.45,-146.45 397.49,-140.64"/>
<polygon fill="#9a32cd" stroke="#9a32cd" points="264.44,-156.89 255.06,-161.83 265.47,-163.82 264.44,-156.89"/>
</a>
</g>
<text text-anchor="middle" x="328.88" y="-168.53" font-family="Helvetica,sans-Serif" font-size="10.00" fill="grey"> fGraphIndex</text>
<text text-anchor="middle" x="328.88" y="-157.28" font-family="Helvetica,sans-Serif" font-size="10.00" fill="grey">fPointIndex</text>
</g>
</g>
</svg>

<g id="navigator" transform="translate(0 0)" fill="#404254">
  <rect fill="#f2f5e9" fill-opacity="0.5" stroke="#606060" stroke-width=".5" x="0" y="0" width="60" height="60"/>
  <use id="zoomplus" xlink:href="#zoomPlus" x="17" y="9" onmousedown="handleZoom(evt,'in')"/>
  <use id="zoomminus" xlink:href="#zoomMin" x="42" y="9" onmousedown="handleZoom(evt,'out')"/>
  <use id="reset" xlink:href="#resetDef" x="30" y="36" onmousedown="handleReset()"/>
   <use id="arrowup" xlink:href="#arrowUp" x="0" y="0" onmousedown="handlePan(0,-1)"/>
  <use id="arrowright" xlink:href="#arrowRight" x="0" y="0" onmousedown="handlePan(1,0)"/>
  <use id="arrowdown" xlink:href="#arrowDown" x="0" y="0" onmousedown="handlePan(0,1)"/>
  <use id="arrowleft" xlink:href="#arrowLeft" x="0" y="0" onmousedown="handlePan(-1,0)"/>
</g>
<svg viewBox="0 0 15 15" width="100%" height="30px" preserveAspectRatio="xMaxYMin meet">
 <g id="arrow_out" transform="scale(0.3 0.3)">
  <a xlink:href="class_t_channel_tab__coll__graph_org.svg" target="_base">
   <rect id="button" ry="5" rx="5" y="6" x="6" height="38" width="38"
        fill="#f2f5e9" fill-opacity="0.5" stroke="#606060" stroke-width="1.0"/>
   <path id="arrow"
     d="M 11.500037,31.436501 C 11.940474,20.09759 22.043105,11.32322 32.158766,21.979434 L 37.068811,17.246167 C 37.068811,17.246167 37.088388,32 37.088388,32 L 22.160133,31.978069 C 22.160133,31.978069 26.997745,27.140456 26.997745,27.140456 C 18.528582,18.264221 13.291696,25.230495 11.500037,31.436501 z"
     style="fill:#404040;"/>
  </a>
 </g>
</svg>

<style type='text/css'>
<![CDATA[
[data-mouse-over-selected='false'] { opacity: 0.7; }
[data-mouse-over-selected='true']  { opacity: 1.0; }
]]>
</style>
<script type="application/ecmascript"><![CDATA[
document.addEventListener('DOMContentLoaded', (event) => {
  highlightEdges();
  highlightAdjacentNodes();
});
]]></script>
</svg>
