<?xml version="1.0" encoding="UTF-8" standalone="no"?>
<!DOCTYPE svg PUBLIC "-//W3C//DTD SVG 1.1//EN"
 "http://www.w3.org/Graphics/SVG/1.1/DTD/svg11.dtd">
<!-- Generated by graphviz version 9.0.0 (20230911.1827)
 -->
<!-- Title: TDataParser Pages: 1 -->
<svg width="415pt" height="83pt"
 viewBox="0.00 0.00 414.88 82.50" xmlns="http://www.w3.org/2000/svg" xmlns:xlink="http://www.w3.org/1999/xlink">

<svg id="main" version="1.1" xmlns="http://www.w3.org/2000/svg" xmlns:xlink="http://www.w3.org/1999/xlink" xml:space="preserve" onload="init(evt)">
<style type="text/css"><![CDATA[
.node, .edge {opacity: 0.7;}
.node.selected, .edge.selected {opacity: 1;}
.edge:hover path { stroke: red; }
.edge:hover polygon { stroke: red; fill: red; }
]]></style>
<script type="application/ecmascript" xlink:href="svg.min.js"/>
<svg id="graph" class="graph">
<g id="graph0" class="graph" transform="scale(1 1) rotate(0) translate(4 78.5)">
<title>TDataParser</title>
<!-- Node1 -->
<g id="Node000001" class="node">
<title>Node1</title>
<g id="a_Node000001"><a xlink:title=" ">
<polygon fill="#999999" stroke="#666666" points="243.75,-74.5 173,-74.5 173,-55.25 243.75,-55.25 243.75,-74.5"/>
<text text-anchor="middle" x="208.38" y="-61" font-family="Helvetica,sans-Serif" font-size="10.00">TDataParser</text>
</a>
</g>
</g>
<!-- Node2 -->
<g id="Node000002" class="node">
<title>Node2</title>
<g id="a_Node000002"><a xlink:href="class_t_g_r_s_i_data_parser.html" target="_top" xlink:title=" ">
<polygon fill="white" stroke="#666666" points="94.75,-19.25 0,-19.25 0,0 94.75,0 94.75,-19.25"/>
<text text-anchor="middle" x="47.38" y="-5.75" font-family="Helvetica,sans-Serif" font-size="10.00">TGRSIDataParser</text>
</a>
</g>
</g>
<!-- Node1&#45;&gt;Node2 -->
<g id="edge1_Node000001_Node000002" class="edge">
<title>Node1&#45;&gt;Node2</title>
<g id="a_edge1_Node000001_Node000002"><a xlink:title=" ">
<path fill="none" stroke="#63b8ff" d="M170.38,-51.31C141.04,-41.6 101.12,-28.4 74.82,-19.7"/>
<polygon fill="#63b8ff" stroke="#63b8ff" points="169.03,-54.55 179.63,-54.37 171.23,-47.9 169.03,-54.55"/>
</a>
</g>
</g>
<!-- Node3 -->
<g id="Node000003" class="node">
<title>Node3</title>
<g id="a_Node000003"><a xlink:href="class_t_h_i_l_data_parser.html" target="_top" xlink:title=" ">
<polygon fill="white" stroke="#666666" points="200,-19.25 112.75,-19.25 112.75,0 200,0 200,-19.25"/>
<text text-anchor="middle" x="156.38" y="-5.75" font-family="Helvetica,sans-Serif" font-size="10.00">THILDataParser</text>
</a>
</g>
</g>
<!-- Node1&#45;&gt;Node3 -->
<g id="edge2_Node000001_Node000003" class="edge">
<title>Node1&#45;&gt;Node3</title>
<g id="a_edge2_Node000001_Node000003"><a xlink:title=" ">
<path fill="none" stroke="#63b8ff" d="M191.97,-47.07C183.08,-37.98 172.46,-27.1 165.15,-19.61"/>
<polygon fill="#63b8ff" stroke="#63b8ff" points="189.24,-49.29 198.73,-54 194.25,-44.4 189.24,-49.29"/>
</a>
</g>
</g>
<!-- Node4 -->
<g id="Node000004" class="node">
<title>Node4</title>
<g id="a_Node000004"><a xlink:href="class_t_i_l_l_data_parser.html" target="_top" xlink:title=" ">
<polygon fill="white" stroke="#666666" points="304.25,-19.25 218.5,-19.25 218.5,0 304.25,0 304.25,-19.25"/>
<text text-anchor="middle" x="261.38" y="-5.75" font-family="Helvetica,sans-Serif" font-size="10.00">TILLDataParser</text>
</a>
</g>
</g>
<!-- Node1&#45;&gt;Node4 -->
<g id="edge3_Node000001_Node000004" class="edge">
<title>Node1&#45;&gt;Node4</title>
<g id="a_edge3_Node000001_Node000004"><a xlink:title=" ">
<path fill="none" stroke="#63b8ff" d="M225.1,-47.07C234.15,-37.98 244.98,-27.1 252.43,-19.61"/>
<polygon fill="#63b8ff" stroke="#63b8ff" points="222.77,-44.45 218.19,-54.01 227.73,-49.39 222.77,-44.45"/>
</a>
</g>
</g>
<!-- Node5 -->
<g id="Node000005" class="node">
<title>Node5</title>
<g id="a_Node000005"><a xlink:href="class_t_tdr_data_parser.html" target="_top" xlink:title=" ">
<polygon fill="white" stroke="#666666" points="406.88,-19.25 321.88,-19.25 321.88,0 406.88,0 406.88,-19.25"/>
<text text-anchor="middle" x="364.38" y="-5.75" font-family="Helvetica,sans-Serif" font-size="10.00">TTdrDataParser</text>
</a>
</g>
</g>
<!-- Node1&#45;&gt;Node5 -->
<g id="edge4_Node000001_Node000005" class="edge">
<title>Node1&#45;&gt;Node5</title>
<g id="a_edge4_Node000001_Node000005"><a xlink:title=" ">
<path fill="none" stroke="#63b8ff" d="M245.56,-51.18C273.96,-41.49 312.41,-28.36 337.78,-19.7"/>
<polygon fill="#63b8ff" stroke="#63b8ff" points="244.6,-47.81 236.27,-54.35 246.87,-54.43 244.6,-47.81"/>
</a>
</g>
</g>
</g>
</svg>
</svg>

<style type='text/css'>
<![CDATA[
[data-mouse-over-selected='false'] { opacity: 0.7; }
[data-mouse-over-selected='true']  { opacity: 1.0; }
]]>
</style>
<script type="application/ecmascript"><![CDATA[
document.addEventListener('DOMContentLoaded', (event) => {
  highlightEdges();
  highlightAdjacentNodes();
});
]]></script>
</svg>
