<?xml version="1.0" encoding="UTF-8" standalone="no"?>
<!DOCTYPE svg PUBLIC "-//W3C//DTD SVG 1.1//EN"
 "http://www.w3.org/Graphics/SVG/1.1/DTD/svg11.dtd">
<!-- Generated by graphviz version 9.0.0 (20230911.1827)
 -->
<!-- Title: TDataFrameLibrary Pages: 1 -->
<!--zoomable 1360 -->

<svg id="main" version="1.1" xmlns="http://www.w3.org/2000/svg" xmlns:xlink="http://www.w3.org/1999/xlink" xml:space="preserve" onload="init(evt)">
<style type="text/css"><![CDATA[
.node, .edge {opacity: 0.7;}
.node.selected, .edge.selected {opacity: 1;}
.edge:hover path { stroke: red; }
.edge:hover polygon { stroke: red; fill: red; }
]]></style>

<defs>
  <circle id="rim" cx="0" cy="0" r="7"/>
  <circle id="rim2" cx="0" cy="0" r="3.5"/>
  <g id="zoomPlus">
    <use xlink:href="#rim" fill="#404040"><set attributeName="fill" to="#808080" begin="zoomplus.mouseover" end="zoomplus.mouseout"/></use>
    <path d="M-4,0h8M0,-4v8" fill="none" stroke="white" stroke-width="1.5" pointer-events="none"/>
  </g>
  <g id="zoomMin">
    <use xlink:href="#rim" fill="#404040"><set attributeName="fill" to="#808080" begin="zoomminus.mouseover" end="zoomminus.mouseout"/></use>
    <path d="M-4,0h8" fill="none" stroke="white" stroke-width="1.5" pointer-events="none"/>
  </g>
  <g id="arrowUp" transform="translate(30 24)">
    <use xlink:href="#rim"/>
    <path pointer-events="none" fill="none" stroke="white" stroke-width="1.5" d="M0,-3.0v7 M-2.5,-0.5L0,-3.0L2.5,-0.5"/>
  </g>
  <g id="arrowRight" transform="rotate(90) translate(36 -43)">
    <use xlink:href="#rim"/>
    <path pointer-events="none" fill="none" stroke="white" stroke-width="1.5" d="M0,-3.0v7 M-2.5,-0.5L0,-3.0L2.5,-0.5"/>
  </g>
  <g id="arrowDown" transform="rotate(180) translate(-30 -48)">
    <use xlink:href="#rim"/>
    <path pointer-events="none" fill="none" stroke="white" stroke-width="1.5" d="M0,-3.0v7 M-2.5,-0.5L0,-3.0L2.5,-0.5"/>
  </g>
  <g id="arrowLeft" transform="rotate(270) translate(-36 17)">
    <use xlink:href="#rim"/>
    <path pointer-events="none" fill="none" stroke="white" stroke-width="1.5" d="M0,-3.0v7 M-2.5,-0.5L0,-3.0L2.5,-0.5"/>
  </g>
  <g id="resetDef">
    <use xlink:href="#rim2" fill="#404040"><set attributeName="fill" to="#808080" begin="reset.mouseover" end="reset.mouseout"/></use>
  </g>
</defs>
<script type="application/ecmascript">
var viewWidth = 1158;
var viewHeight = 1360;
var sectionId = 'dynsection-1';
</script>
<script type="application/ecmascript" xlink:href="svg.min.js"/>
<svg id="graph" class="graph">
<g id="viewport">
<title>TDataFrameLibrary</title>
<!-- Node1 -->
<g id="Node000001" class="node">
<title>Node1</title>
<g id="a_Node000001"><a xlink:title=" ">
<polygon fill="#999999" stroke="#666666" points="906,-1233.88 806.75,-1233.88 806.75,-1214.62 906,-1214.62 906,-1233.88"/>
<text text-anchor="middle" x="856.38" y="-1220.38" font-family="Helvetica,sans-Serif" font-size="10.00">TDataFrameLibrary</text>
</a>
</g>
</g>
<!-- Node2 -->
<g id="Node000002" class="node">
<title>Node2</title>
<g id="a_Node000002"><a xlink:href="class_t_singleton.html" target="_top" xlink:title=" ">
<polygon fill="white" stroke="#666666" points="1150,-1266.88 987.75,-1266.88 987.75,-1247.62 1150,-1247.62 1150,-1266.88"/>
<text text-anchor="middle" x="1068.88" y="-1253.38" font-family="Helvetica,sans-Serif" font-size="10.00">TSingleton&lt; TDataFrameLibrary &gt;</text>
</a>
</g>
</g>
<!-- Node1&#45;&gt;Node2 -->
<g id="edge3_Node000002_Node000001" class="edge">
<title>Node1&#45;&gt;Node2</title>
<g id="a_edge3_Node000002_Node000001"><a xlink:title=" ">
<path fill="none" stroke="#9a32cd" stroke-dasharray="5,2" d="M917.79,-1234.26C919.89,-1234.59 921.96,-1234.93 924,-1235.25 949.08,-1239.24 976.64,-1243.49 1000.87,-1247.17"/>
<polygon fill="#9a32cd" stroke="#9a32cd" points="918.41,-1230.81 907.98,-1232.67 917.29,-1237.72 918.41,-1230.81"/>
</a>
</g>
<text text-anchor="middle" x="946.88" y="-1243" font-family="Helvetica,sans-Serif" font-size="10.00" fill="grey"> fSingleton</text>
</g>
<!-- Node2&#45;&gt;Node1 -->
<g id="edge1_Node000001_Node000002" class="edge">
<title>Node2&#45;&gt;Node1</title>
<g id="a_edge1_Node000001_Node000002"><a xlink:title=" ">
<path fill="none" stroke="#63b8ff" d="M1007.78,-1244.95C995.24,-1242.57 982.08,-1240.21 969.75,-1238.25 949.07,-1234.96 926.15,-1231.99 906.43,-1229.63"/>
<polygon fill="#63b8ff" stroke="#63b8ff" points="1007.11,-1248.38 1017.59,-1246.84 1008.43,-1241.51 1007.11,-1248.38"/>
</a>
</g>
</g>
<!-- Node3 -->
<g id="Node000003" class="node">
<title>Node3</title>
<g id="a_Node000003"><a xlink:title=" ">
<polygon fill="white" stroke="#666666" points="71.5,-1034.88 21,-1034.88 21,-1015.62 71.5,-1015.62 71.5,-1034.88"/>
<text text-anchor="middle" x="46.25" y="-1021.38" font-family="Helvetica,sans-Serif" font-size="10.00">TObject</text>
</a>
</g>
</g>
<!-- Node3&#45;&gt;Node2 -->
<g id="edge2_Node000002_Node000003" class="edge">
<title>Node3&#45;&gt;Node2</title>
<g id="a_edge2_Node000002_Node000003"><a xlink:title=" ">
<path fill="none" stroke="#63b8ff" d="M47,-1046.2C47.35,-1118.37 58.86,-1352.25 193.5,-1352.25 193.5,-1352.25 193.5,-1352.25 857.38,-1352.25 939.57,-1352.25 1025.11,-1291.33 1055.93,-1267.06"/>
<polygon fill="#63b8ff" stroke="#63b8ff" points="50.5,-1046.56 47.03,-1036.55 43.5,-1046.54 50.5,-1046.56"/>
</a>
</g>
</g>
<!-- Node4 -->
<g id="Node000004" class="node">
<title>Node4</title>
<g id="a_Node000004"><a xlink:href="class_t_g_r_s_i_helper.html" target="_top" xlink:title=" ">
<polygon fill="white" stroke="#666666" points="708.5,-1024.88 634,-1024.88 634,-1005.62 708.5,-1005.62 708.5,-1024.88"/>
<text text-anchor="middle" x="671.25" y="-1011.38" font-family="Helvetica,sans-Serif" font-size="10.00">TGRSIHelper</text>
</a>
</g>
</g>
<!-- Node3&#45;&gt;Node4 -->
<g id="edge5_Node000004_Node000003" class="edge">
<title>Node3&#45;&gt;Node4</title>
<g id="a_edge5_Node000004_Node000003"><a xlink:title=" ">
<path fill="none" stroke="#63b8ff" d="M63.41,-1043.99C109.94,-1096.33 250.8,-1243.59 405,-1295.25 460.1,-1313.71 478.93,-1307.41 535.75,-1295.25 573.98,-1287.07 591.3,-1289.55 616,-1259.25 646.37,-1222 664.8,-1066.54 669.21,-1025.32"/>
<polygon fill="#63b8ff" stroke="#63b8ff" points="66.06,-1041.71 56.84,-1036.51 60.8,-1046.33 66.06,-1041.71"/>
</a>
</g>
</g>
<!-- Node15 -->
<g id="Node000015" class="node">
<title>Node15</title>
<g id="a_Node000015"><a xlink:href="class_t_singleton.html" target="_top" xlink:title=" ">
<polygon fill="white" stroke="#666666" points="247.5,-1034.88 141.5,-1034.88 141.5,-1015.62 247.5,-1015.62 247.5,-1034.88"/>
<text text-anchor="middle" x="194.5" y="-1021.38" font-family="Helvetica,sans-Serif" font-size="10.00">TSingleton&lt; TPPG &gt;</text>
</a>
</g>
</g>
<!-- Node3&#45;&gt;Node15 -->
<g id="edge17_Node000015_Node000003" class="edge">
<title>Node3&#45;&gt;Node15</title>
<g id="a_edge17_Node000015_Node000003"><a xlink:title=" ">
<path fill="none" stroke="#63b8ff" d="M83.1,-1025.25C100.52,-1025.25 121.8,-1025.25 141,-1025.25"/>
<polygon fill="#63b8ff" stroke="#63b8ff" points="83.24,-1021.75 73.24,-1025.25 83.24,-1028.75 83.24,-1021.75"/>
</a>
</g>
</g>
<!-- Node23 -->
<g id="Node000023" class="node">
<title>Node23</title>
<g id="a_Node000023"><a xlink:href="class_t_singleton.html" target="_top" xlink:title=" ">
<polygon fill="white" stroke="#666666" points="253.88,-655.88 135.12,-655.88 135.12,-636.62 253.88,-636.62 253.88,-655.88"/>
<text text-anchor="middle" x="194.5" y="-642.38" font-family="Helvetica,sans-Serif" font-size="10.00">TSingleton&lt; TRunInfo &gt;</text>
</a>
</g>
</g>
<!-- Node3&#45;&gt;Node23 -->
<g id="edge27_Node000023_Node000003" class="edge">
<title>Node3&#45;&gt;Node23</title>
<g id="a_edge27_Node000023_Node000003"><a xlink:title=" ">
<path fill="none" stroke="#63b8ff" d="M49.31,-1004.03C56.47,-934.54 82.43,-715.43 129.5,-665.25 132.91,-661.61 136.98,-658.67 141.39,-656.27"/>
<polygon fill="#63b8ff" stroke="#63b8ff" points="45.86,-1003.38 48.34,-1013.68 52.82,-1004.08 45.86,-1003.38"/>
</a>
</g>
</g>
<!-- Node27 -->
<g id="Node000027" class="node">
<title>Node27</title>
<g id="a_Node000027"><a xlink:href="class_t_detector_information.html" target="_top" xlink:title=" ">
<polygon fill="white" stroke="#666666" points="248.25,-745.88 140.75,-745.88 140.75,-726.62 248.25,-726.62 248.25,-745.88"/>
<text text-anchor="middle" x="194.5" y="-732.38" font-family="Helvetica,sans-Serif" font-size="10.00">TDetectorInformation</text>
</a>
</g>
</g>
<!-- Node3&#45;&gt;Node27 -->
<g id="edge34_Node000027_Node000003" class="edge">
<title>Node3&#45;&gt;Node27</title>
<g id="a_edge34_Node000027_Node000003"><a xlink:title=" ">
<path fill="none" stroke="#63b8ff" d="M47.99,-1003.87C50.81,-954.82 64.37,-833.01 129.5,-762.25 135.92,-755.28 144.47,-750.13 153.22,-746.35"/>
<polygon fill="#63b8ff" stroke="#63b8ff" points="44.5,-1003.52 47.53,-1013.68 51.49,-1003.85 44.5,-1003.52"/>
</a>
</g>
</g>
<!-- Node4&#45;&gt;Node1 -->
<g id="edge4_Node000001_Node000004" class="edge">
<title>Node4&#45;&gt;Node1</title>
<g id="a_edge4_Node000001_Node000004"><a xlink:title=" ">
<path fill="none" stroke="#9a32cd" stroke-dasharray="5,2" d="M688.65,-1033.97C726.31,-1076.95 817.93,-1181.52 846.63,-1214.27"/>
<polygon fill="#9a32cd" stroke="#9a32cd" points="691.3,-1031.68 682.08,-1026.47 686.04,-1036.3 691.3,-1031.68"/>
</a>
</g>
<text text-anchor="middle" x="757.62" y="-1146" font-family="Helvetica,sans-Serif" font-size="10.00" fill="grey"> fCreateHelper</text>
</g>
<!-- Node5 -->
<g id="Node000005" class="node">
<title>Node5</title>
<g id="a_Node000005"><a xlink:title=" ">
<polygon fill="white" stroke="#666666" points="535.75,-1286.12 405,-1286.12 405,-1244.38 535.75,-1244.38 535.75,-1286.12"/>
<text text-anchor="start" x="413" y="-1272.62" font-family="Helvetica,sans-Serif" font-size="10.00">std::vector&lt; std::shared</text>
<text text-anchor="start" x="413" y="-1261.38" font-family="Helvetica,sans-Serif" font-size="10.00">_ptr&lt; std::map&lt; std::string,</text>
<text text-anchor="middle" x="470.38" y="-1250.12" font-family="Helvetica,sans-Serif" font-size="10.00"> TList &gt; &gt; &gt;</text>
</a>
</g>
</g>
<!-- Node5&#45;&gt;Node4 -->
<g id="edge6_Node000004_Node000005" class="edge">
<title>Node5&#45;&gt;Node4</title>
<g id="a_edge6_Node000004_Node000005"><a xlink:title=" ">
<path fill="none" stroke="#9a32cd" stroke-dasharray="5,2" d="M546.75,-1248.22C571.79,-1239.19 597.88,-1225.58 616,-1205.25 664.38,-1150.95 669.84,-1056.28 670.28,-1025.35"/>
<polygon fill="#9a32cd" stroke="#9a32cd" points="545.89,-1244.82 537.54,-1251.34 548.14,-1251.45 545.89,-1244.82"/>
</a>
</g>
<text text-anchor="middle" x="584.88" y="-1246" font-family="Helvetica,sans-Serif" font-size="10.00" fill="grey"> fLists</text>
</g>
<!-- Node6 -->
<g id="Node000006" class="node">
<title>Node6</title>
<g id="a_Node000006"><a xlink:title=" ">
<polygon fill="white" stroke="#666666" points="529.38,-1226.5 411.38,-1226.5 411.38,-1196 529.38,-1196 529.38,-1226.5"/>
<text text-anchor="start" x="419.38" y="-1213" font-family="Helvetica,sans-Serif" font-size="10.00">std::vector&lt; TGRSIMap</text>
<text text-anchor="middle" x="470.38" y="-1201.75" font-family="Helvetica,sans-Serif" font-size="10.00">&lt; std::string, TH1 * &gt; &gt;</text>
</a>
</g>
</g>
<!-- Node6&#45;&gt;Node4 -->
<g id="edge7_Node000004_Node000006" class="edge">
<title>Node6&#45;&gt;Node4</title>
<g id="a_edge7_Node000004_Node000006"><a xlink:title=" ">
<path fill="none" stroke="#9a32cd" stroke-dasharray="5,2" d="M540.52,-1196.2C566.97,-1187.45 595.65,-1173.92 616,-1153.25 653.02,-1115.64 665.54,-1049.77 669.06,-1025.02"/>
<polygon fill="#9a32cd" stroke="#9a32cd" points="539.69,-1192.79 531.18,-1199.09 541.77,-1199.47 539.69,-1192.79"/>
</a>
</g>
<text text-anchor="middle" x="584.88" y="-1192" font-family="Helvetica,sans-Serif" font-size="10.00" fill="grey"> fH1</text>
</g>
<!-- Node7 -->
<g id="Node000007" class="node">
<title>Node7</title>
<g id="a_Node000007"><a xlink:title=" ">
<polygon fill="white" stroke="#666666" points="529.38,-1177.5 411.38,-1177.5 411.38,-1147 529.38,-1147 529.38,-1177.5"/>
<text text-anchor="start" x="419.38" y="-1164" font-family="Helvetica,sans-Serif" font-size="10.00">std::vector&lt; TGRSIMap</text>
<text text-anchor="middle" x="470.38" y="-1152.75" font-family="Helvetica,sans-Serif" font-size="10.00">&lt; std::string, TH2 * &gt; &gt;</text>
</a>
</g>
</g>
<!-- Node7&#45;&gt;Node4 -->
<g id="edge8_Node000004_Node000007" class="edge">
<title>Node7&#45;&gt;Node4</title>
<g id="a_edge8_Node000004_Node000007"><a xlink:title=" ">
<path fill="none" stroke="#9a32cd" stroke-dasharray="5,2" d="M540.42,-1143.72C566.18,-1134.35 594.4,-1120.9 616,-1102.25 641.6,-1080.15 659.08,-1042.93 666.4,-1025.21"/>
<polygon fill="#9a32cd" stroke="#9a32cd" points="539.28,-1140.41 530.98,-1146.99 541.58,-1147.02 539.28,-1140.41"/>
</a>
</g>
<text text-anchor="middle" x="584.88" y="-1140" font-family="Helvetica,sans-Serif" font-size="10.00" fill="grey"> fH2</text>
</g>
<!-- Node8 -->
<g id="Node000008" class="node">
<title>Node8</title>
<g id="a_Node000008"><a xlink:title=" ">
<polygon fill="white" stroke="#666666" points="529.38,-1128.5 411.38,-1128.5 411.38,-1098 529.38,-1098 529.38,-1128.5"/>
<text text-anchor="start" x="419.38" y="-1115" font-family="Helvetica,sans-Serif" font-size="10.00">std::vector&lt; TGRSIMap</text>
<text text-anchor="middle" x="470.38" y="-1103.75" font-family="Helvetica,sans-Serif" font-size="10.00">&lt; std::string, TH3 * &gt; &gt;</text>
</a>
</g>
</g>
<!-- Node8&#45;&gt;Node4 -->
<g id="edge9_Node000004_Node000008" class="edge">
<title>Node8&#45;&gt;Node4</title>
<g id="a_edge9_Node000004_Node000008"><a xlink:title=" ">
<path fill="none" stroke="#9a32cd" stroke-dasharray="5,2" d="M536.52,-1093.96C562.13,-1085.1 591.26,-1073.39 616,-1059.25 632.84,-1049.62 649.82,-1034.84 660.19,-1025.11"/>
<polygon fill="#9a32cd" stroke="#9a32cd" points="535.57,-1090.59 527.22,-1097.1 537.81,-1097.22 535.57,-1090.59"/>
</a>
</g>
<text text-anchor="middle" x="584.88" y="-1089" font-family="Helvetica,sans-Serif" font-size="10.00" fill="grey"> fH3</text>
</g>
<!-- Node9 -->
<g id="Node000009" class="node">
<title>Node9</title>
<g id="a_Node000009"><a xlink:title=" ">
<polygon fill="white" stroke="#666666" points="534.62,-1079.5 406.12,-1079.5 406.12,-1049 534.62,-1049 534.62,-1079.5"/>
<text text-anchor="start" x="414.12" y="-1066" font-family="Helvetica,sans-Serif" font-size="10.00">std::vector&lt; TGRSIMap</text>
<text text-anchor="middle" x="470.38" y="-1054.75" font-family="Helvetica,sans-Serif" font-size="10.00">&lt; std::string, GHSym * &gt; &gt;</text>
</a>
</g>
</g>
<!-- Node9&#45;&gt;Node4 -->
<g id="edge10_Node000004_Node000009" class="edge">
<title>Node9&#45;&gt;Node4</title>
<g id="a_edge10_Node000004_Node000009"><a xlink:title=" ">
<path fill="none" stroke="#9a32cd" stroke-dasharray="5,2" d="M546.07,-1047.27C568.59,-1042 593.34,-1036.04 616,-1030.25 621.96,-1028.72 628.28,-1027.04 634.41,-1025.37"/>
<polygon fill="#9a32cd" stroke="#9a32cd" points="545.28,-1043.86 536.34,-1049.54 546.87,-1050.68 545.28,-1043.86"/>
</a>
</g>
<text text-anchor="middle" x="584.88" y="-1046" font-family="Helvetica,sans-Serif" font-size="10.00" fill="grey"> fSym</text>
</g>
<!-- Node10 -->
<g id="Node000010" class="node">
<title>Node10</title>
<g id="a_Node000010"><a xlink:title=" ">
<polygon fill="white" stroke="#666666" points="532.38,-1030.5 408.38,-1030.5 408.38,-1000 532.38,-1000 532.38,-1030.5"/>
<text text-anchor="start" x="416.38" y="-1017" font-family="Helvetica,sans-Serif" font-size="10.00">std::vector&lt; TGRSIMap</text>
<text text-anchor="middle" x="470.38" y="-1005.75" font-family="Helvetica,sans-Serif" font-size="10.00">&lt; std::string, GCube * &gt; &gt;</text>
</a>
</g>
</g>
<!-- Node10&#45;&gt;Node4 -->
<g id="edge11_Node000004_Node000010" class="edge">
<title>Node10&#45;&gt;Node4</title>
<g id="a_edge11_Node000004_Node000010"><a xlink:title=" ">
<path fill="none" stroke="#9a32cd" stroke-dasharray="5,2" d="M544.14,-1015.25C574.62,-1015.25 608.71,-1015.25 633.75,-1015.25"/>
<polygon fill="#9a32cd" stroke="#9a32cd" points="544.18,-1011.75 534.18,-1015.25 544.18,-1018.75 544.18,-1011.75"/>
</a>
</g>
<text text-anchor="middle" x="584.88" y="-1017" font-family="Helvetica,sans-Serif" font-size="10.00" fill="grey"> fCube</text>
</g>
<!-- Node11 -->
<g id="Node000011" class="node">
<title>Node11</title>
<g id="a_Node000011"><a xlink:title=" ">
<polygon fill="white" stroke="#666666" points="530.12,-981.5 410.62,-981.5 410.62,-951 530.12,-951 530.12,-981.5"/>
<text text-anchor="start" x="418.62" y="-968" font-family="Helvetica,sans-Serif" font-size="10.00">std::vector&lt; TGRSIMap</text>
<text text-anchor="middle" x="470.38" y="-956.75" font-family="Helvetica,sans-Serif" font-size="10.00">&lt; std::string, TTree * &gt; &gt;</text>
</a>
</g>
</g>
<!-- Node11&#45;&gt;Node4 -->
<g id="edge12_Node000004_Node000011" class="edge">
<title>Node11&#45;&gt;Node4</title>
<g id="a_edge12_Node000004_Node000011"><a xlink:title=" ">
<path fill="none" stroke="#9a32cd" stroke-dasharray="5,2" d="M541.32,-981.91C565.08,-987.4 591.75,-993.76 616,-1000 622.25,-1001.61 628.89,-1003.4 635.29,-1005.18"/>
<polygon fill="#9a32cd" stroke="#9a32cd" points="542.28,-978.54 531.75,-979.71 540.71,-985.36 542.28,-978.54"/>
</a>
</g>
<text text-anchor="middle" x="584.88" y="-1001" font-family="Helvetica,sans-Serif" font-size="10.00" fill="grey"> fTree</text>
</g>
<!-- Node12 -->
<g id="Node000012" class="node">
<title>Node12</title>
<g id="a_Node000012"><a xlink:title=" ">
<polygon fill="white" stroke="#666666" points="534.62,-932.5 406.12,-932.5 406.12,-902 534.62,-902 534.62,-932.5"/>
<text text-anchor="start" x="414.12" y="-919" font-family="Helvetica,sans-Serif" font-size="10.00">std::vector&lt; TGRSIMap</text>
<text text-anchor="middle" x="470.38" y="-907.75" font-family="Helvetica,sans-Serif" font-size="10.00">&lt; std::string, TObject * &gt; &gt;</text>
</a>
</g>
</g>
<!-- Node12&#45;&gt;Node4 -->
<g id="edge13_Node000004_Node000012" class="edge">
<title>Node12&#45;&gt;Node4</title>
<g id="a_edge13_Node000004_Node000012"><a xlink:title=" ">
<path fill="none" stroke="#9a32cd" stroke-dasharray="5,2" d="M539.19,-936.59C564.19,-945.09 592.19,-956.29 616,-970 633.22,-979.91 650.37,-995.4 660.64,-1005.44"/>
<polygon fill="#9a32cd" stroke="#9a32cd" points="540.35,-933.28 529.76,-933.47 538.15,-939.93 540.35,-933.28"/>
</a>
</g>
<text text-anchor="middle" x="584.88" y="-971" font-family="Helvetica,sans-Serif" font-size="10.00" fill="grey"> fObject</text>
</g>
<!-- Node13 -->
<g id="Node000013" class="node">
<title>Node13</title>
<g id="a_Node000013"><a xlink:title=" ">
<polygon fill="white" stroke="#666666" points="523.38,-883.5 417.38,-883.5 417.38,-853 523.38,-853 523.38,-883.5"/>
<text text-anchor="start" x="425.38" y="-870" font-family="Helvetica,sans-Serif" font-size="10.00">std::map&lt; std::string,</text>
<text text-anchor="middle" x="470.38" y="-858.75" font-family="Helvetica,sans-Serif" font-size="10.00"> TCutG * &gt;</text>
</a>
</g>
</g>
<!-- Node13&#45;&gt;Node4 -->
<g id="edge14_Node000004_Node000013" class="edge">
<title>Node13&#45;&gt;Node4</title>
<g id="a_edge14_Node000004_Node000013"><a xlink:title=" ">
<path fill="none" stroke="#9a32cd" stroke-dasharray="5,2" d="M534.26,-883.52C561.61,-892.5 592.66,-906.1 616,-926 642.35,-948.47 659.58,-987.09 666.63,-1005.26"/>
<polygon fill="#9a32cd" stroke="#9a32cd" points="535.62,-880.28 525.04,-880.63 533.54,-886.96 535.62,-880.28"/>
</a>
</g>
<text text-anchor="middle" x="584.88" y="-927" font-family="Helvetica,sans-Serif" font-size="10.00" fill="grey"> fCuts</text>
</g>
<!-- Node14 -->
<g id="Node000014" class="node">
<title>Node14</title>
<g id="a_Node000014"><a xlink:href="class_t_p_p_g.html" target="_top" xlink:title=" ">
<polygon fill="white" stroke="#666666" points="491.88,-834.88 448.88,-834.88 448.88,-815.62 491.88,-815.62 491.88,-834.88"/>
<text text-anchor="middle" x="470.38" y="-821.38" font-family="Helvetica,sans-Serif" font-size="10.00">TPPG</text>
</a>
</g>
</g>
<!-- Node14&#45;&gt;Node4 -->
<g id="edge15_Node000004_Node000014" class="edge">
<title>Node14&#45;&gt;Node4</title>
<g id="a_edge15_Node000004_Node000014"><a xlink:title=" ">
<path fill="none" stroke="#9a32cd" stroke-dasharray="5,2" d="M503.44,-828.19C535.93,-832.83 585.6,-844.7 616,-875 653.9,-912.78 665.89,-979.99 669.16,-1005.27"/>
<polygon fill="#9a32cd" stroke="#9a32cd" points="504.18,-824.76 493.82,-826.98 503.31,-831.7 504.18,-824.76"/>
</a>
</g>
<text text-anchor="middle" x="584.88" y="-876" font-family="Helvetica,sans-Serif" font-size="10.00" fill="grey"> fPpg</text>
</g>
<!-- Node14&#45;&gt;Node15 -->
<g id="edge18_Node000015_Node000014" class="edge">
<title>Node14&#45;&gt;Node15</title>
<g id="a_edge18_Node000015_Node000014"><a xlink:title=" ">
<path fill="none" stroke="#9a32cd" stroke-dasharray="5,2" d="M437.4,-827.34C425.51,-829.8 412.97,-834.69 405,-844.25 380.82,-873.26 414.28,-987.13 387,-1013.25 346.09,-1052.41 275.07,-1044.85 231.97,-1035.36"/>
<polygon fill="#9a32cd" stroke="#9a32cd" points="437.59,-830.86 446.95,-825.89 436.54,-823.94 437.59,-830.86"/>
</a>
</g>
<text text-anchor="middle" x="332.25" y="-1044" font-family="Helvetica,sans-Serif" font-size="10.00" fill="grey"> fSingleton</text>
</g>
<!-- Node15&#45;&gt;Node14 -->
<g id="edge16_Node000014_Node000015" class="edge">
<title>Node15&#45;&gt;Node14</title>
<g id="a_edge16_Node000014_Node000015"><a xlink:title=" ">
<path fill="none" stroke="#63b8ff" d="M259,-1016.73C311.25,-1009.11 378.14,-997.72 387,-988.25 431.07,-941.15 363.25,-893.41 405,-844.25 415.64,-831.73 434.08,-827.23 448.51,-825.73"/>
<polygon fill="#63b8ff" stroke="#63b8ff" points="258.66,-1013.24 249.26,-1018.13 259.65,-1020.17 258.66,-1013.24"/>
</a>
</g>
</g>
<!-- Node16 -->
<g id="Node000016" class="node">
<title>Node16</title>
<g id="a_Node000016"><a xlink:title=" ">
<polygon fill="white" stroke="#666666" points="255.38,-991.88 133.62,-991.88 133.62,-972.62 255.38,-972.62 255.38,-991.88"/>
<text text-anchor="middle" x="194.5" y="-978.38" font-family="Helvetica,sans-Serif" font-size="10.00">std::map&lt; K, T &gt;::iterator</text>
</a>
</g>
</g>
<!-- Node16&#45;&gt;Node14 -->
<g id="edge19_Node000014_Node000016" class="edge">
<title>Node16&#45;&gt;Node14</title>
<g id="a_edge19_Node000014_Node000016"><a xlink:title=" ">
<path fill="none" stroke="#9a32cd" stroke-dasharray="5,2" d="M267.12,-975.48C317.82,-970.01 378.31,-961.83 387,-953.25 421.95,-918.76 372.49,-881.04 405,-844.25 415.88,-831.94 434.3,-827.42 448.66,-825.85"/>
<polygon fill="#9a32cd" stroke="#9a32cd" points="266.89,-971.98 257.31,-976.52 267.63,-978.95 266.89,-971.98"/>
</a>
</g>
<text text-anchor="middle" x="332.25" y="-975" font-family="Helvetica,sans-Serif" font-size="10.00" fill="grey"> fCurrIterator</text>
</g>
<!-- Node17 -->
<g id="Node000017" class="node">
<title>Node17</title>
<g id="a_Node000017"><a xlink:title=" ">
<polygon fill="white" stroke="#666666" points="238.12,-954.88 150.88,-954.88 150.88,-935.62 238.12,-935.62 238.12,-954.88"/>
<text text-anchor="middle" x="194.5" y="-941.38" font-family="Helvetica,sans-Serif" font-size="10.00">std::map&lt; K, T &gt;</text>
</a>
</g>
</g>
<!-- Node17&#45;&gt;Node14 -->
<g id="edge20_Node000014_Node000017" class="edge">
<title>Node17&#45;&gt;Node14</title>
<g id="a_edge20_Node000014_Node000017"><a xlink:title=" ">
<path fill="none" stroke="#9a32cd" stroke-dasharray="5,2" d="M249.82,-941.3C302.81,-936.95 376.91,-929.35 387,-920.25 412.77,-897 381.13,-869.45 405,-844.25 416.22,-832.4 434.42,-827.83 448.61,-826.12"/>
<polygon fill="#9a32cd" stroke="#9a32cd" points="249.72,-937.8 240.03,-942.08 250.28,-944.77 249.72,-937.8"/>
</a>
</g>
<text text-anchor="middle" x="332.25" y="-940" font-family="Helvetica,sans-Serif" font-size="10.00" fill="grey"> fPPGStatusMap</text>
</g>
<!-- Node18 -->
<g id="Node000018" class="node">
<title>Node18</title>
<g id="a_Node000018"><a xlink:title=" ">
<polygon fill="white" stroke="#666666" points="250.5,-917.5 138.5,-917.5 138.5,-887 250.5,-887 250.5,-917.5"/>
<text text-anchor="start" x="146.5" y="-904" font-family="Helvetica,sans-Serif" font-size="10.00">std::map&lt; ULong64_t,</text>
<text text-anchor="middle" x="194.5" y="-892.75" font-family="Helvetica,sans-Serif" font-size="10.00"> int &gt;</text>
</a>
</g>
</g>
<!-- Node18&#45;&gt;Node14 -->
<g id="edge21_Node000014_Node000018" class="edge">
<title>Node18&#45;&gt;Node14</title>
<g id="a_edge21_Node000014_Node000018"><a xlink:title=" ">
<path fill="none" stroke="#9a32cd" stroke-dasharray="5,2" d="M262.32,-907.95C301.76,-908 350.87,-902 387,-877.25 400.78,-867.81 392,-854.74 405,-844.25 417.42,-834.22 434.98,-829.49 448.63,-827.25"/>
<polygon fill="#9a32cd" stroke="#9a32cd" points="262.51,-904.45 252.46,-907.79 262.4,-911.45 262.51,-904.45"/>
</a>
</g>
<text text-anchor="middle" x="332.25" y="-909" font-family="Helvetica,sans-Serif" font-size="10.00" fill="grey"> fNumberOfCycleLengths</text>
</g>
<!-- Node19 -->
<g id="Node000019" class="node">
<title>Node19</title>
<g id="a_Node000019"><a xlink:title=" ">
<polygon fill="white" stroke="#666666" points="247.88,-868.88 141.12,-868.88 141.12,-849.62 247.88,-849.62 247.88,-868.88"/>
<text text-anchor="middle" x="194.5" y="-855.38" font-family="Helvetica,sans-Serif" font-size="10.00">std::vector&lt; int16_t &gt;</text>
</a>
</g>
</g>
<!-- Node19&#45;&gt;Node14 -->
<g id="edge22_Node000014_Node000019" class="edge">
<title>Node19&#45;&gt;Node14</title>
<g id="a_edge22_Node000014_Node000019"><a xlink:title=" ">
<path fill="none" stroke="#9a32cd" stroke-dasharray="5,2" d="M259.19,-852.42C296.47,-848.3 344.45,-842.79 387,-837.25 407.92,-834.52 431.77,-831 448.41,-828.48"/>
<polygon fill="#9a32cd" stroke="#9a32cd" points="259.04,-848.92 249.48,-853.49 259.8,-855.88 259.04,-848.92"/>
</a>
</g>
<text text-anchor="middle" x="332.25" y="-863.25" font-family="Helvetica,sans-Serif" font-size="10.00" fill="grey"> fOdbPPGCodes</text>
<text text-anchor="middle" x="332.25" y="-852" font-family="Helvetica,sans-Serif" font-size="10.00" fill="grey">fPPGCodes</text>
</g>
<!-- Node20 -->
<g id="Node000020" class="node">
<title>Node20</title>
<g id="a_Node000020"><a xlink:title=" ">
<polygon fill="white" stroke="#666666" points="238.5,-790.88 150.5,-790.88 150.5,-771.62 238.5,-771.62 238.5,-790.88"/>
<text text-anchor="middle" x="194.5" y="-777.38" font-family="Helvetica,sans-Serif" font-size="10.00">std::vector&lt; int &gt;</text>
</a>
</g>
</g>
<!-- Node20&#45;&gt;Node14 -->
<g id="edge23_Node000014_Node000020" class="edge">
<title>Node20&#45;&gt;Node14</title>
<g id="a_edge23_Node000014_Node000020"><a xlink:title=" ">
<path fill="none" stroke="#9a32cd" stroke-dasharray="5,2" d="M249.58,-787.29C288.04,-791.88 340.86,-798.8 387,-807 408.06,-810.74 431.89,-816.15 448.48,-820.11"/>
<polygon fill="#9a32cd" stroke="#9a32cd" points="250.48,-783.87 240.14,-786.17 249.66,-790.82 250.48,-783.87"/>
</a>
</g>
<text text-anchor="middle" x="332.25" y="-808" font-family="Helvetica,sans-Serif" font-size="10.00" fill="grey"> fOdbDurations</text>
</g>
<!-- Node22 -->
<g id="Node000022" class="node">
<title>Node22</title>
<g id="a_Node000022"><a xlink:href="class_t_run_info.html" target="_top" xlink:title=" ">
<polygon fill="white" stroke="#666666" points="498.25,-698.88 442.5,-698.88 442.5,-679.62 498.25,-679.62 498.25,-698.88"/>
<text text-anchor="middle" x="470.38" y="-685.38" font-family="Helvetica,sans-Serif" font-size="10.00">TRunInfo</text>
</a>
</g>
</g>
<!-- Node20&#45;&gt;Node22 -->
<g id="edge32_Node000022_Node000020" class="edge">
<title>Node20&#45;&gt;Node22</title>
<g id="a_edge32_Node000022_Node000020"><a xlink:title=" ">
<path fill="none" stroke="#9a32cd" stroke-dasharray="5,2" d="M249.85,-772.3C288.85,-764.9 342.22,-752.75 387,-735.25 411.87,-725.53 438.46,-709.54 454.51,-699.2"/>
<polygon fill="#9a32cd" stroke="#9a32cd" points="249.42,-768.82 240.22,-774.08 250.69,-775.71 249.42,-768.82"/>
</a>
</g>
<text text-anchor="middle" x="332.25" y="-768" font-family="Helvetica,sans-Serif" font-size="10.00" fill="grey"> fBadCycleList</text>
</g>
<!-- Node21 -->
<g id="Node000021" class="node">
<title>Node21</title>
<g id="a_Node000021"><a xlink:title=" ">
<polygon fill="white" stroke="#666666" points="257.25,-831.88 131.75,-831.88 131.75,-812.62 257.25,-812.62 257.25,-831.88"/>
<text text-anchor="middle" x="194.5" y="-818.38" font-family="Helvetica,sans-Serif" font-size="10.00">std::vector&lt; ULong64_t &gt;</text>
</a>
</g>
</g>
<!-- Node21&#45;&gt;Node14 -->
<g id="edge24_Node000014_Node000021" class="edge">
<title>Node21&#45;&gt;Node14</title>
<g id="a_edge24_Node000014_Node000021"><a xlink:title=" ">
<path fill="none" stroke="#9a32cd" stroke-dasharray="5,2" d="M269.04,-823.06C329.41,-823.72 410.87,-824.61 448.6,-825.02"/>
<polygon fill="#9a32cd" stroke="#9a32cd" points="269.2,-819.56 259.16,-822.95 269.12,-826.56 269.2,-819.56"/>
</a>
</g>
<text text-anchor="middle" x="332.25" y="-826" font-family="Helvetica,sans-Serif" font-size="10.00" fill="grey"> fDurations</text>
</g>
<!-- Node22&#45;&gt;Node4 -->
<g id="edge25_Node000004_Node000022" class="edge">
<title>Node22&#45;&gt;Node4</title>
<g id="a_edge25_Node000004_Node000022"><a xlink:title=" ">
<path fill="none" stroke="#9a32cd" stroke-dasharray="5,2" d="M495.78,-705.65C528.05,-728.59 584.49,-773.3 616,-825 653.72,-886.88 666.11,-976 669.31,-1005.42"/>
<polygon fill="#9a32cd" stroke="#9a32cd" points="498.04,-702.96 487.84,-700.11 494.04,-708.7 498.04,-702.96"/>
</a>
</g>
<text text-anchor="middle" x="584.88" y="-826" font-family="Helvetica,sans-Serif" font-size="10.00" fill="grey"> fRunInfo</text>
</g>
<!-- Node22&#45;&gt;Node23 -->
<g id="edge28_Node000023_Node000022" class="edge">
<title>Node22&#45;&gt;Node23</title>
<g id="a_edge28_Node000023_Node000022"><a xlink:title=" ">
<path fill="none" stroke="#9a32cd" stroke-dasharray="5,2" d="M446.84,-672.79C430.98,-662.27 408.78,-649.59 387,-644 343.52,-632.84 292.65,-634.08 254.26,-637.74"/>
<polygon fill="#9a32cd" stroke="#9a32cd" points="444.81,-675.65 455.03,-678.44 448.79,-669.88 444.81,-675.65"/>
</a>
</g>
<text text-anchor="middle" x="332.25" y="-645" font-family="Helvetica,sans-Serif" font-size="10.00" fill="grey"> fSingleton</text>
</g>
<!-- Node23&#45;&gt;Node22 -->
<g id="edge26_Node000022_Node000023" class="edge">
<title>Node23&#45;&gt;Node22</title>
<g id="a_edge26_Node000022_Node000023"><a xlink:title=" ">
<path fill="none" stroke="#63b8ff" d="M265.47,-657.24C323.05,-666.28 401.57,-678.6 442.33,-685"/>
<polygon fill="#63b8ff" stroke="#63b8ff" points="266.17,-653.8 255.75,-655.71 265.08,-660.72 266.17,-653.8"/>
</a>
</g>
</g>
<!-- Node24 -->
<g id="Node000024" class="node">
<title>Node24</title>
<g id="a_Node000024"><a xlink:title=" ">
<polygon fill="white" stroke="#666666" points="223.5,-488.88 165.5,-488.88 165.5,-469.62 223.5,-469.62 223.5,-488.88"/>
<text text-anchor="middle" x="194.5" y="-475.38" font-family="Helvetica,sans-Serif" font-size="10.00">std::string</text>
</a>
</g>
</g>
<!-- Node24&#45;&gt;Node4 -->
<g id="edge46_Node000004_Node000024" class="edge">
<title>Node24&#45;&gt;Node4</title>
<g id="a_edge46_Node000004_Node000024"><a xlink:title=" ">
<path fill="none" stroke="#9a32cd" stroke-dasharray="5,2" d="M234.71,-466.73C274.98,-456.19 338.45,-446.19 387,-469.25 532.52,-538.38 546.96,-604.68 616,-750.25 659.87,-842.75 668.36,-969.88 669.92,-1005.58"/>
<polygon fill="#9a32cd" stroke="#9a32cd" points="233.91,-463.31 225.21,-469.35 235.78,-470.06 233.91,-463.31"/>
</a>
</g>
<text text-anchor="middle" x="470.38" y="-588" font-family="Helvetica,sans-Serif" font-size="10.00" fill="grey"> fPrefix</text>
</g>
<!-- Node24&#45;&gt;Node22 -->
<g id="edge29_Node000022_Node000024" class="edge">
<title>Node24&#45;&gt;Node22</title>
<g id="a_edge29_Node000022_Node000024"><a xlink:title=" ">
<path fill="none" stroke="#9a32cd" stroke-dasharray="5,2" d="M235.07,-474.45C276.98,-471.55 343.04,-473.47 387,-506.5 446.26,-551.03 463.94,-647.97 468.2,-679.28"/>
<polygon fill="#9a32cd" stroke="#9a32cd" points="234.85,-470.95 225.18,-475.27 235.44,-477.93 234.85,-470.95"/>
</a>
</g>
<text text-anchor="middle" x="332.25" y="-620.5" font-family="Helvetica,sans-Serif" font-size="10.00" fill="grey"> fCalFile</text>
<text text-anchor="middle" x="332.25" y="-609.25" font-family="Helvetica,sans-Serif" font-size="10.00" fill="grey">fCalFileName</text>
<text text-anchor="middle" x="332.25" y="-598" font-family="Helvetica,sans-Serif" font-size="10.00" fill="grey">fDate</text>
<text text-anchor="middle" x="332.25" y="-586.75" font-family="Helvetica,sans-Serif" font-size="10.00" fill="grey">fFullVersion</text>
<text text-anchor="middle" x="332.25" y="-575.5" font-family="Helvetica,sans-Serif" font-size="10.00" fill="grey">fLibraryPath</text>
<text text-anchor="middle" x="332.25" y="-564.25" font-family="Helvetica,sans-Serif" font-size="10.00" fill="grey">fLibraryVersion</text>
<text text-anchor="middle" x="332.25" y="-553" font-family="Helvetica,sans-Serif" font-size="10.00" fill="grey">fRunComment</text>
<text text-anchor="middle" x="332.25" y="-541.75" font-family="Helvetica,sans-Serif" font-size="10.00" fill="grey">fRunInfoFile</text>
<text text-anchor="middle" x="332.25" y="-530.5" font-family="Helvetica,sans-Serif" font-size="10.00" fill="grey">fRunInfoFileName</text>
<text text-anchor="middle" x="332.25" y="-519.25" font-family="Helvetica,sans-Serif" font-size="10.00" fill="grey">fRunTitle</text>
<text text-anchor="middle" x="332.25" y="-508" font-family="Helvetica,sans-Serif" font-size="10.00" fill="grey">...</text>
</g>
<!-- Node25 -->
<g id="Node000025" class="node">
<title>Node25</title>
<g id="a_Node000025"><a xlink:title=" ">
<polygon fill="white" stroke="#666666" points="92.5,-494.5 0,-494.5 0,-464 92.5,-464 92.5,-494.5"/>
<text text-anchor="start" x="8" y="-481" font-family="Helvetica,sans-Serif" font-size="10.00">std::basic_string&lt;</text>
<text text-anchor="middle" x="46.25" y="-469.75" font-family="Helvetica,sans-Serif" font-size="10.00"> Char &gt;</text>
</a>
</g>
</g>
<!-- Node25&#45;&gt;Node24 -->
<g id="edge30_Node000024_Node000025" class="edge">
<title>Node25&#45;&gt;Node24</title>
<g id="a_edge30_Node000024_Node000025"><a xlink:title=" ">
<path fill="none" stroke="#63b8ff" d="M104.09,-479.25C124.99,-479.25 147.75,-479.25 165.08,-479.25"/>
<polygon fill="#63b8ff" stroke="#63b8ff" points="104.24,-475.75 94.24,-479.25 104.24,-482.75 104.24,-475.75"/>
</a>
</g>
</g>
<!-- Node26 -->
<g id="Node000026" class="node">
<title>Node26</title>
<g id="a_Node000026"><a xlink:title=" ">
<polygon fill="white" stroke="#666666" points="239.25,-704.5 149.75,-704.5 149.75,-674 239.25,-674 239.25,-704.5"/>
<text text-anchor="start" x="157.75" y="-691" font-family="Helvetica,sans-Serif" font-size="10.00">std::set&lt; std::pair</text>
<text text-anchor="middle" x="194.5" y="-679.75" font-family="Helvetica,sans-Serif" font-size="10.00">&lt; int, int &gt; &gt;</text>
</a>
</g>
</g>
<!-- Node26&#45;&gt;Node22 -->
<g id="edge31_Node000022_Node000026" class="edge">
<title>Node26&#45;&gt;Node22</title>
<g id="a_edge31_Node000022_Node000026"><a xlink:title=" ">
<path fill="none" stroke="#9a32cd" stroke-dasharray="5,2" d="M250.68,-689.25C308.72,-689.25 397.68,-689.25 442.13,-689.25"/>
<polygon fill="#9a32cd" stroke="#9a32cd" points="251.02,-685.75 241.02,-689.25 251.02,-692.75 251.02,-685.75"/>
</a>
</g>
<text text-anchor="middle" x="332.25" y="-691" font-family="Helvetica,sans-Serif" font-size="10.00" fill="grey"> fRunList</text>
</g>
<!-- Node27&#45;&gt;Node22 -->
<g id="edge33_Node000022_Node000027" class="edge">
<title>Node27&#45;&gt;Node22</title>
<g id="a_edge33_Node000022_Node000027"><a xlink:title=" ">
<path fill="none" stroke="#9a32cd" stroke-dasharray="5,2" d="M259.87,-725.2C317.8,-715.26 400.1,-701.14 442.23,-693.91"/>
<polygon fill="#9a32cd" stroke="#9a32cd" points="259.39,-721.74 250.12,-726.88 260.57,-728.63 259.39,-721.74"/>
</a>
</g>
<text text-anchor="middle" x="332.25" y="-722" font-family="Helvetica,sans-Serif" font-size="10.00" fill="grey"> fDetectorInformation</text>
</g>
<!-- Node28 -->
<g id="Node000028" class="node">
<title>Node28</title>
<g id="a_Node000028"><a xlink:href="class_t_user_settings.html" target="_top" xlink:title=" ">
<polygon fill="white" stroke="#666666" points="509.88,-251.88 430.88,-251.88 430.88,-232.62 509.88,-232.62 509.88,-251.88"/>
<text text-anchor="middle" x="470.38" y="-238.38" font-family="Helvetica,sans-Serif" font-size="10.00">TUserSettings</text>
</a>
</g>
</g>
<!-- Node28&#45;&gt;Node4 -->
<g id="edge35_Node000004_Node000028" class="edge">
<title>Node28&#45;&gt;Node4</title>
<g id="a_edge35_Node000004_Node000028"><a xlink:title=" ">
<path fill="none" stroke="#9a32cd" stroke-dasharray="5,2" d="M491.38,-259.87C524.05,-289.99 587.98,-354.95 616,-425 660.72,-536.79 669.01,-937.37 670.11,-1005.4"/>
<polygon fill="#9a32cd" stroke="#9a32cd" points="493.94,-257.46 484.18,-253.34 489.24,-262.65 493.94,-257.46"/>
</a>
</g>
<text text-anchor="middle" x="584.88" y="-426" font-family="Helvetica,sans-Serif" font-size="10.00" fill="grey"> fUserSettings</text>
</g>
<!-- Node29 -->
<g id="Node000029" class="node">
<title>Node29</title>
<g id="a_Node000029"><a xlink:title=" ">
<polygon fill="white" stroke="#666666" points="221.25,-214.88 167.75,-214.88 167.75,-195.62 221.25,-195.62 221.25,-214.88"/>
<text text-anchor="middle" x="194.5" y="-201.38" font-family="Helvetica,sans-Serif" font-size="10.00">TNamed</text>
</a>
</g>
</g>
<!-- Node29&#45;&gt;Node28 -->
<g id="edge36_Node000028_Node000029" class="edge">
<title>Node29&#45;&gt;Node28</title>
<g id="a_edge36_Node000028_Node000029"><a xlink:title=" ">
<path fill="none" stroke="#63b8ff" d="M232.55,-210.26C284.26,-217.24 377.65,-229.86 430.38,-236.98"/>
<polygon fill="#63b8ff" stroke="#63b8ff" points="233.14,-206.8 222.77,-208.93 232.21,-213.74 233.14,-206.8"/>
</a>
</g>
</g>
<!-- Node30 -->
<g id="Node000030" class="node">
<title>Node30</title>
<g id="a_Node000030"><a xlink:title=" ">
<polygon fill="white" stroke="#666666" points="247.5,-177.5 141.5,-177.5 141.5,-147 247.5,-147 247.5,-177.5"/>
<text text-anchor="start" x="149.5" y="-164" font-family="Helvetica,sans-Serif" font-size="10.00">std::map&lt; std::string,</text>
<text text-anchor="middle" x="194.5" y="-152.75" font-family="Helvetica,sans-Serif" font-size="10.00"> bool &gt;</text>
</a>
</g>
</g>
<!-- Node30&#45;&gt;Node28 -->
<g id="edge37_Node000028_Node000030" class="edge">
<title>Node30&#45;&gt;Node28</title>
<g id="a_edge37_Node000028_Node000030"><a xlink:title=" ">
<path fill="none" stroke="#9a32cd" stroke-dasharray="5,2" d="M259.06,-170.78C296.88,-176.92 345.44,-186.67 387,-201 410.74,-209.18 436.34,-222.84 452.6,-232.19"/>
<polygon fill="#9a32cd" stroke="#9a32cd" points="259.61,-167.33 249.19,-169.23 258.52,-174.24 259.61,-167.33"/>
</a>
</g>
<text text-anchor="middle" x="332.25" y="-202" font-family="Helvetica,sans-Serif" font-size="10.00" fill="grey"> fBool</text>
</g>
<!-- Node31 -->
<g id="Node000031" class="node">
<title>Node31</title>
<g id="a_Node000031"><a xlink:title=" ">
<polygon fill="white" stroke="#666666" points="247.5,-128.5 141.5,-128.5 141.5,-98 247.5,-98 247.5,-128.5"/>
<text text-anchor="start" x="149.5" y="-115" font-family="Helvetica,sans-Serif" font-size="10.00">std::map&lt; std::string,</text>
<text text-anchor="middle" x="194.5" y="-103.75" font-family="Helvetica,sans-Serif" font-size="10.00"> int &gt;</text>
</a>
</g>
</g>
<!-- Node31&#45;&gt;Node28 -->
<g id="edge38_Node000028_Node000031" class="edge">
<title>Node31&#45;&gt;Node28</title>
<g id="a_edge38_Node000028_Node000031"><a xlink:title=" ">
<path fill="none" stroke="#9a32cd" stroke-dasharray="5,2" d="M259.15,-119.01C298.07,-124.68 347.74,-135.88 387,-158 420.86,-177.08 449.84,-214.25 462.52,-232.14"/>
<polygon fill="#9a32cd" stroke="#9a32cd" points="259.84,-115.57 249.46,-117.69 258.9,-122.51 259.84,-115.57"/>
</a>
</g>
<text text-anchor="middle" x="332.25" y="-159" font-family="Helvetica,sans-Serif" font-size="10.00" fill="grey"> fInt</text>
</g>
<!-- Node32 -->
<g id="Node000032" class="node">
<title>Node32</title>
<g id="a_Node000032"><a xlink:title=" ">
<polygon fill="white" stroke="#666666" points="247.5,-79.5 141.5,-79.5 141.5,-49 247.5,-49 247.5,-79.5"/>
<text text-anchor="start" x="149.5" y="-66" font-family="Helvetica,sans-Serif" font-size="10.00">std::map&lt; std::string,</text>
<text text-anchor="middle" x="194.5" y="-54.75" font-family="Helvetica,sans-Serif" font-size="10.00"> double &gt;</text>
</a>
</g>
</g>
<!-- Node32&#45;&gt;Node28 -->
<g id="edge39_Node000028_Node000032" class="edge">
<title>Node32&#45;&gt;Node28</title>
<g id="a_edge39_Node000028_Node000032"><a xlink:title=" ">
<path fill="none" stroke="#9a32cd" stroke-dasharray="5,2" d="M259.17,-66C299.1,-69.94 349.87,-80.4 387,-107 432.82,-139.83 458.08,-206.81 466.32,-232.19"/>
<polygon fill="#9a32cd" stroke="#9a32cd" points="259.72,-62.54 249.46,-65.17 259.12,-69.51 259.72,-62.54"/>
</a>
</g>
<text text-anchor="middle" x="332.25" y="-108" font-family="Helvetica,sans-Serif" font-size="10.00" fill="grey"> fDouble</text>
</g>
<!-- Node33 -->
<g id="Node000033" class="node">
<title>Node33</title>
<g id="a_Node000033"><a xlink:title=" ">
<polygon fill="white" stroke="#666666" points="247.5,-30.5 141.5,-30.5 141.5,0 247.5,0 247.5,-30.5"/>
<text text-anchor="start" x="149.5" y="-17" font-family="Helvetica,sans-Serif" font-size="10.00">std::map&lt; std::string,</text>
<text text-anchor="middle" x="194.5" y="-5.75" font-family="Helvetica,sans-Serif" font-size="10.00"> std::string &gt;</text>
</a>
</g>
</g>
<!-- Node33&#45;&gt;Node28 -->
<g id="edge40_Node000028_Node000033" class="edge">
<title>Node33&#45;&gt;Node28</title>
<g id="a_edge40_Node000028_Node000033"><a xlink:title=" ">
<path fill="none" stroke="#9a32cd" stroke-dasharray="5,2" d="M259.12,-13.74C299.72,-15.98 351.25,-25.15 387,-54 446.13,-101.72 463.89,-200.35 468.19,-232.14"/>
<polygon fill="#9a32cd" stroke="#9a32cd" points="259.35,-10.25 249.22,-13.34 259.07,-17.24 259.35,-10.25"/>
</a>
</g>
<text text-anchor="middle" x="332.25" y="-56" font-family="Helvetica,sans-Serif" font-size="10.00" fill="grey"> fString</text>
</g>
<!-- Node34 -->
<g id="Node000034" class="node">
<title>Node34</title>
<g id="a_Node000034"><a xlink:title=" ">
<polygon fill="white" stroke="#666666" points="247.5,-447.5 141.5,-447.5 141.5,-417 247.5,-417 247.5,-447.5"/>
<text text-anchor="start" x="149.5" y="-434" font-family="Helvetica,sans-Serif" font-size="10.00">std::map&lt; std::string,</text>
<text text-anchor="middle" x="194.5" y="-422.75" font-family="Helvetica,sans-Serif" font-size="10.00"> std::vector&lt; bool &gt; &gt;</text>
</a>
</g>
</g>
<!-- Node34&#45;&gt;Node28 -->
<g id="edge41_Node000028_Node000034" class="edge">
<title>Node34&#45;&gt;Node28</title>
<g id="a_edge41_Node000028_Node000034"><a xlink:title=" ">
<path fill="none" stroke="#9a32cd" stroke-dasharray="5,2" d="M258.96,-422.57C306.57,-414.29 366.87,-401.35 387,-386.25 434.7,-350.48 459.12,-278.41 466.72,-252.13"/>
<polygon fill="#9a32cd" stroke="#9a32cd" points="258.54,-419.09 249.27,-424.21 259.72,-425.99 258.54,-419.09"/>
</a>
</g>
<text text-anchor="middle" x="332.25" y="-420" font-family="Helvetica,sans-Serif" font-size="10.00" fill="grey"> fBoolVector</text>
</g>
<!-- Node35 -->
<g id="Node000035" class="node">
<title>Node35</title>
<g id="a_Node000035"><a xlink:title=" ">
<polygon fill="white" stroke="#666666" points="247.5,-398.5 141.5,-398.5 141.5,-368 247.5,-368 247.5,-398.5"/>
<text text-anchor="start" x="149.5" y="-385" font-family="Helvetica,sans-Serif" font-size="10.00">std::map&lt; std::string,</text>
<text text-anchor="middle" x="194.5" y="-373.75" font-family="Helvetica,sans-Serif" font-size="10.00"> std::vector&lt; int &gt; &gt;</text>
</a>
</g>
</g>
<!-- Node35&#45;&gt;Node28 -->
<g id="edge42_Node000028_Node000035" class="edge">
<title>Node35&#45;&gt;Node28</title>
<g id="a_edge42_Node000028_Node000035"><a xlink:title=" ">
<path fill="none" stroke="#9a32cd" stroke-dasharray="5,2" d="M259.13,-376.5C298.25,-370.13 348.15,-357.83 387,-334.25 422.37,-312.78 451.23,-271.39 463.29,-252.32"/>
<polygon fill="#9a32cd" stroke="#9a32cd" points="258.73,-373.02 249.37,-378 259.79,-379.94 258.73,-373.02"/>
</a>
</g>
<text text-anchor="middle" x="332.25" y="-373" font-family="Helvetica,sans-Serif" font-size="10.00" fill="grey"> fIntVector</text>
</g>
<!-- Node36 -->
<g id="Node000036" class="node">
<title>Node36</title>
<g id="a_Node000036"><a xlink:title=" ">
<polygon fill="white" stroke="#666666" points="252.75,-349.5 136.25,-349.5 136.25,-319 252.75,-319 252.75,-349.5"/>
<text text-anchor="start" x="144.25" y="-336" font-family="Helvetica,sans-Serif" font-size="10.00">std::map&lt; std::string,</text>
<text text-anchor="middle" x="194.5" y="-324.75" font-family="Helvetica,sans-Serif" font-size="10.00"> std::vector&lt; double &gt; &gt;</text>
</a>
</g>
</g>
<!-- Node36&#45;&gt;Node28 -->
<g id="edge43_Node000028_Node000036" class="edge">
<title>Node36&#45;&gt;Node28</title>
<g id="a_edge43_Node000028_Node000036"><a xlink:title=" ">
<path fill="none" stroke="#9a32cd" stroke-dasharray="5,2" d="M264.1,-322.51C301.23,-314.98 347.46,-303.7 387,-288.25 411.87,-278.53 438.46,-262.54 454.51,-252.2"/>
<polygon fill="#9a32cd" stroke="#9a32cd" points="263.5,-319.06 254.37,-324.43 264.86,-325.93 263.5,-319.06"/>
</a>
</g>
<text text-anchor="middle" x="332.25" y="-321" font-family="Helvetica,sans-Serif" font-size="10.00" fill="grey"> fDoubleVector</text>
</g>
<!-- Node37 -->
<g id="Node000037" class="node">
<title>Node37</title>
<g id="a_Node000037"><a xlink:title=" ">
<polygon fill="white" stroke="#666666" points="259.5,-300.5 129.5,-300.5 129.5,-270 259.5,-270 259.5,-300.5"/>
<text text-anchor="start" x="137.5" y="-287" font-family="Helvetica,sans-Serif" font-size="10.00">std::map&lt; std::string,</text>
<text text-anchor="middle" x="194.5" y="-275.75" font-family="Helvetica,sans-Serif" font-size="10.00"> std::vector&lt; std::string &gt; &gt;</text>
</a>
</g>
</g>
<!-- Node37&#45;&gt;Node28 -->
<g id="edge44_Node000028_Node000037" class="edge">
<title>Node37&#45;&gt;Node28</title>
<g id="a_edge44_Node000028_Node000037"><a xlink:title=" ">
<path fill="none" stroke="#9a32cd" stroke-dasharray="5,2" d="M271.04,-274.83C306.32,-269.8 348.85,-263.51 387,-257.25 401.2,-254.92 416.74,-252.15 430.45,-249.63"/>
<polygon fill="#9a32cd" stroke="#9a32cd" points="270.76,-271.33 261.36,-276.2 271.75,-278.26 270.76,-271.33"/>
</a>
</g>
<text text-anchor="middle" x="332.25" y="-275" font-family="Helvetica,sans-Serif" font-size="10.00" fill="grey"> fStringVector</text>
</g>
<!-- Node38 -->
<g id="Node000038" class="node">
<title>Node38</title>
<g id="a_Node000038"><a xlink:title=" ">
<polygon fill="white" stroke="#666666" points="254.25,-251.88 134.75,-251.88 134.75,-232.62 254.25,-232.62 254.25,-251.88"/>
<text text-anchor="middle" x="194.5" y="-238.38" font-family="Helvetica,sans-Serif" font-size="10.00">std::vector&lt; std::string &gt;</text>
</a>
</g>
</g>
<!-- Node38&#45;&gt;Node28 -->
<g id="edge45_Node000028_Node000038" class="edge">
<title>Node38&#45;&gt;Node28</title>
<g id="a_edge45_Node000028_Node000038"><a xlink:title=" ">
<path fill="none" stroke="#9a32cd" stroke-dasharray="5,2" d="M265.83,-242.25C318.26,-242.25 387.91,-242.25 430.64,-242.25"/>
<polygon fill="#9a32cd" stroke="#9a32cd" points="266.1,-238.75 256.1,-242.25 266.1,-245.75 266.1,-238.75"/>
</a>
</g>
<text text-anchor="middle" x="332.25" y="-244" font-family="Helvetica,sans-Serif" font-size="10.00" fill="grey"> fSettingsFiles</text>
</g>
</g>
</svg>

<g id="navigator" transform="translate(0 0)" fill="#404254">
  <rect fill="#f2f5e9" fill-opacity="0.5" stroke="#606060" stroke-width=".5" x="0" y="0" width="60" height="60"/>
  <use id="zoomplus" xlink:href="#zoomPlus" x="17" y="9" onmousedown="handleZoom(evt,'in')"/>
  <use id="zoomminus" xlink:href="#zoomMin" x="42" y="9" onmousedown="handleZoom(evt,'out')"/>
  <use id="reset" xlink:href="#resetDef" x="30" y="36" onmousedown="handleReset()"/>
   <use id="arrowup" xlink:href="#arrowUp" x="0" y="0" onmousedown="handlePan(0,-1)"/>
  <use id="arrowright" xlink:href="#arrowRight" x="0" y="0" onmousedown="handlePan(1,0)"/>
  <use id="arrowdown" xlink:href="#arrowDown" x="0" y="0" onmousedown="handlePan(0,1)"/>
  <use id="arrowleft" xlink:href="#arrowLeft" x="0" y="0" onmousedown="handlePan(-1,0)"/>
</g>
<svg viewBox="0 0 15 15" width="100%" height="30px" preserveAspectRatio="xMaxYMin meet">
 <g id="arrow_out" transform="scale(0.3 0.3)">
  <a xlink:href="class_t_data_frame_library__coll__graph_org.svg" target="_base">
   <rect id="button" ry="5" rx="5" y="6" x="6" height="38" width="38"
        fill="#f2f5e9" fill-opacity="0.5" stroke="#606060" stroke-width="1.0"/>
   <path id="arrow"
     d="M 11.500037,31.436501 C 11.940474,20.09759 22.043105,11.32322 32.158766,21.979434 L 37.068811,17.246167 C 37.068811,17.246167 37.088388,32 37.088388,32 L 22.160133,31.978069 C 22.160133,31.978069 26.997745,27.140456 26.997745,27.140456 C 18.528582,18.264221 13.291696,25.230495 11.500037,31.436501 z"
     style="fill:#404040;"/>
  </a>
 </g>
</svg>

<style type='text/css'>
<![CDATA[
[data-mouse-over-selected='false'] { opacity: 0.7; }
[data-mouse-over-selected='true']  { opacity: 1.0; }
]]>
</style>
<script type="application/ecmascript"><![CDATA[
document.addEventListener('DOMContentLoaded', (event) => {
  highlightEdges();
  highlightAdjacentNodes();
});
]]></script>
</svg>
