<?xml version="1.0" encoding="UTF-8" standalone="no"?>
<!DOCTYPE svg PUBLIC "-//W3C//DTD SVG 1.1//EN"
 "http://www.w3.org/Graphics/SVG/1.1/DTD/svg11.dtd">
<!-- Generated by graphviz version 9.0.0 (20230911.1827)
 -->
<!-- Title: TSiLiHit Pages: 1 -->
<svg width="1305pt" height="929pt"
 viewBox="0.00 0.00 1304.50 929.28" xmlns="http://www.w3.org/2000/svg" xmlns:xlink="http://www.w3.org/1999/xlink">
<g id="graph0" class="graph" transform="scale(1 1) rotate(0) translate(4 925.28)">
<title>TSiLiHit</title>
<!-- Node1 -->
<g id="Node000001" class="node">
<title>Node1</title>
<g id="a_Node000001"><a xlink:title=" ">
<polygon fill="#999999" stroke="#666666" points="1296.5,-147.65 1244.5,-147.65 1244.5,-128.4 1296.5,-128.4 1296.5,-147.65"/>
<text text-anchor="middle" x="1270.5" y="-134.15" font-family="Helvetica,sans-Serif" font-size="10.00">TSiLiHit</text>
</a>
</g>
</g>
<!-- Node2 -->
<g id="Node000002" class="node">
<title>Node2</title>
<g id="a_Node000002"><a xlink:href="class_t_detector_hit.html" target="_top" xlink:title=" ">
<polygon fill="white" stroke="#666666" points="1105.38,-479.65 1033.88,-479.65 1033.88,-460.4 1105.38,-460.4 1105.38,-479.65"/>
<text text-anchor="middle" x="1069.62" y="-466.15" font-family="Helvetica,sans-Serif" font-size="10.00">TDetectorHit</text>
</a>
</g>
</g>
<!-- Node2&#45;&gt;Node1 -->
<g id="edge1_Node000001_Node000002" class="edge">
<title>Node2&#45;&gt;Node1</title>
<g id="a_edge1_Node000001_Node000002"><a xlink:title=" ">
<path fill="none" stroke="#63b8ff" d="M1085.56,-451.14C1115.13,-413.15 1182.1,-324.1 1226.5,-242.03 1244.35,-209.03 1259.61,-167.03 1266.13,-148.09"/>
<polygon fill="#63b8ff" stroke="#63b8ff" points="1082.92,-448.84 1079.5,-458.87 1088.43,-453.15 1082.92,-448.84"/>
</a>
</g>
</g>
<!-- Node3 -->
<g id="Node000003" class="node">
<title>Node3</title>
<g id="a_Node000003"><a xlink:title=" ">
<polygon fill="white" stroke="#666666" points="183.75,-847.65 133.25,-847.65 133.25,-828.4 183.75,-828.4 183.75,-847.65"/>
<text text-anchor="middle" x="158.5" y="-834.15" font-family="Helvetica,sans-Serif" font-size="10.00">TObject</text>
</a>
</g>
</g>
<!-- Node3&#45;&gt;Node2 -->
<g id="edge2_Node000002_Node000003" class="edge">
<title>Node3&#45;&gt;Node2</title>
<g id="a_edge2_Node000002_Node000003"><a xlink:title=" ">
<path fill="none" stroke="#63b8ff" d="M195.08,-846.75C239.38,-856.82 317.48,-872.03 385.38,-872.03 385.38,-872.03 385.38,-872.03 869.38,-872.03 1050.09,-872.03 1066.9,-541.87 1068.46,-479.96"/>
<polygon fill="#63b8ff" stroke="#63b8ff" points="196.06,-843.38 185.53,-844.53 194.47,-850.2 196.06,-843.38"/>
</a>
</g>
</g>
<!-- Node14 -->
<g id="Node000014" class="node">
<title>Node14</title>
<g id="a_Node000014"><a xlink:href="class_t_mnemonic.html" target="_top" xlink:title=" ">
<polygon fill="white" stroke="#666666" points="419.88,-746.65 352.88,-746.65 352.88,-727.4 419.88,-727.4 419.88,-746.65"/>
<text text-anchor="middle" x="386.38" y="-733.15" font-family="Helvetica,sans-Serif" font-size="10.00">TMnemonic</text>
</a>
</g>
</g>
<!-- Node3&#45;&gt;Node14 -->
<g id="edge14_Node000014_Node000003" class="edge">
<title>Node3&#45;&gt;Node14</title>
<g id="a_edge14_Node000014_Node000003"><a xlink:title=" ">
<path fill="none" stroke="#63b8ff" d="M192.43,-823.3C239.02,-802.47 322.97,-764.93 362.98,-747.04"/>
<polygon fill="#63b8ff" stroke="#63b8ff" points="191.07,-820.08 183.37,-827.35 193.92,-826.47 191.07,-820.08"/>
</a>
</g>
</g>
<!-- Node4 -->
<g id="Node000004" class="node">
<title>Node4</title>
<g id="a_Node000004"><a xlink:title=" ">
<polygon fill="white" stroke="#666666" points="922.88,-919.65 813.88,-919.65 813.88,-900.4 922.88,-900.4 922.88,-919.65"/>
<text text-anchor="middle" x="868.38" y="-906.15" font-family="Helvetica,sans-Serif" font-size="10.00">std::vector&lt; Short_t &gt;</text>
</a>
</g>
</g>
<!-- Node4&#45;&gt;Node2 -->
<g id="edge3_Node000002_Node000004" class="edge">
<title>Node4&#45;&gt;Node2</title>
<g id="a_edge3_Node000002_Node000004"><a xlink:title=" ">
<path fill="none" stroke="#9a32cd" stroke-dasharray="5,2" d="M934.61,-913.22C958.83,-910.93 984.61,-903.77 1002,-886.03 1061,-825.82 1067.77,-536.78 1068.53,-479.79"/>
<polygon fill="#9a32cd" stroke="#9a32cd" points="934.52,-909.72 924.77,-913.87 934.98,-916.7 934.52,-909.72"/>
</a>
</g>
<text text-anchor="middle" x="977.25" y="-911.78" font-family="Helvetica,sans-Serif" font-size="10.00" fill="grey"> fWaveform</text>
</g>
<!-- Node5 -->
<g id="Node000005" class="node">
<title>Node5</title>
<g id="a_Node000005"><a xlink:href="class_t_channel.html" target="_top" xlink:title=" ">
<polygon fill="white" stroke="#666666" points="897,-479.65 839.75,-479.65 839.75,-460.4 897,-460.4 897,-479.65"/>
<text text-anchor="middle" x="868.38" y="-466.15" font-family="Helvetica,sans-Serif" font-size="10.00">TChannel</text>
</a>
</g>
</g>
<!-- Node5&#45;&gt;Node2 -->
<g id="edge4_Node000002_Node000005" class="edge">
<title>Node5&#45;&gt;Node2</title>
<g id="a_edge4_Node000002_Node000005"><a xlink:title=" ">
<path fill="none" stroke="#9a32cd" stroke-dasharray="5,2" d="M908.22,-470.03C944.55,-470.03 998.34,-470.03 1033.44,-470.03"/>
<polygon fill="#9a32cd" stroke="#9a32cd" points="908.59,-466.53 898.59,-470.03 908.59,-473.53 908.59,-466.53"/>
</a>
</g>
<text text-anchor="middle" x="977.25" y="-471.78" font-family="Helvetica,sans-Serif" font-size="10.00" fill="grey"> fChannel</text>
</g>
<!-- Node6 -->
<g id="Node000006" class="node">
<title>Node6</title>
<g id="a_Node000006"><a xlink:title=" ">
<polygon fill="white" stroke="#666666" points="623.38,-709.65 569.88,-709.65 569.88,-690.4 623.38,-690.4 623.38,-709.65"/>
<text text-anchor="middle" x="596.62" y="-696.15" font-family="Helvetica,sans-Serif" font-size="10.00">TNamed</text>
</a>
</g>
</g>
<!-- Node6&#45;&gt;Node5 -->
<g id="edge5_Node000005_Node000006" class="edge">
<title>Node6&#45;&gt;Node5</title>
<g id="a_edge5_Node000005_Node000006"><a xlink:title=" ">
<path fill="none" stroke="#63b8ff" d="M634.78,-709.54C675.5,-717.65 740.8,-723.55 784.25,-692.03 856.87,-639.34 866.09,-515.4 867.22,-479.77"/>
<polygon fill="#63b8ff" stroke="#63b8ff" points="635.73,-706.17 625.22,-707.49 634.26,-713.01 635.73,-706.17"/>
</a>
</g>
</g>
<!-- Node7 -->
<g id="Node000007" class="node">
<title>Node7</title>
<g id="a_Node000007"><a xlink:href="class_t_priority_value.html" target="_top" xlink:title=" ">
<polygon fill="white" stroke="#666666" points="648.5,-672.65 544.75,-672.65 544.75,-653.4 648.5,-653.4 648.5,-672.65"/>
<text text-anchor="middle" x="596.62" y="-659.15" font-family="Helvetica,sans-Serif" font-size="10.00">TPriorityValue&lt; int &gt;</text>
</a>
</g>
</g>
<!-- Node7&#45;&gt;Node5 -->
<g id="edge6_Node000005_Node000007" class="edge">
<title>Node7&#45;&gt;Node5</title>
<g id="a_edge6_Node000005_Node000007"><a xlink:title=" ">
<path fill="none" stroke="#9a32cd" stroke-dasharray="5,2" d="M659.8,-651.33C712.08,-641.29 779.12,-627.85 784.25,-624.03 835.15,-586.06 858.34,-507.44 865.14,-479.85"/>
<polygon fill="#9a32cd" stroke="#9a32cd" points="659.21,-647.88 650.05,-653.19 660.53,-654.75 659.21,-647.88"/>
</a>
</g>
<text text-anchor="middle" x="737.38" y="-679.53" font-family="Helvetica,sans-Serif" font-size="10.00" fill="grey"> fIntegration</text>
<text text-anchor="middle" x="737.38" y="-668.28" font-family="Helvetica,sans-Serif" font-size="10.00" fill="grey">fNumber</text>
<text text-anchor="middle" x="737.38" y="-657.03" font-family="Helvetica,sans-Serif" font-size="10.00" fill="grey">fStream</text>
<text text-anchor="middle" x="737.38" y="-645.78" font-family="Helvetica,sans-Serif" font-size="10.00" fill="grey">fTimeStampUnit</text>
</g>
<!-- Node8 -->
<g id="Node000008" class="node">
<title>Node8</title>
<g id="a_Node000008"><a xlink:title=" ">
<polygon fill="white" stroke="#666666" points="645.88,-635.28 547.38,-635.28 547.38,-604.78 645.88,-604.78 645.88,-635.28"/>
<text text-anchor="start" x="555.38" y="-621.78" font-family="Helvetica,sans-Serif" font-size="10.00">TPriorityValue&lt; std</text>
<text text-anchor="middle" x="596.62" y="-610.53" font-family="Helvetica,sans-Serif" font-size="10.00">::string &gt;</text>
</a>
</g>
</g>
<!-- Node8&#45;&gt;Node5 -->
<g id="edge7_Node000005_Node000008" class="edge">
<title>Node8&#45;&gt;Node5</title>
<g id="a_edge7_Node000005_Node000008"><a xlink:title=" ">
<path fill="none" stroke="#9a32cd" stroke-dasharray="5,2" d="M657.14,-614.44C703.55,-609.18 763.51,-600.15 784.25,-587.03 826.79,-560.12 853.95,-502.83 863.52,-479.86"/>
<polygon fill="#9a32cd" stroke="#9a32cd" points="657.03,-610.93 647.47,-615.5 657.79,-617.89 657.03,-610.93"/>
</a>
</g>
<text text-anchor="middle" x="737.38" y="-610.78" font-family="Helvetica,sans-Serif" font-size="10.00" fill="grey"> fDigitizerTypeString</text>
</g>
<!-- Node9 -->
<g id="Node000009" class="node">
<title>Node9</title>
<g id="a_Node000009"><a xlink:href="class_t_priority_value.html" target="_top" xlink:title=" ">
<polygon fill="white" stroke="#666666" points="663.5,-586.65 529.75,-586.65 529.75,-567.4 663.5,-567.4 663.5,-586.65"/>
<text text-anchor="middle" x="596.62" y="-573.15" font-family="Helvetica,sans-Serif" font-size="10.00">TPriorityValue&lt; EDigitizer &gt;</text>
</a>
</g>
</g>
<!-- Node9&#45;&gt;Node5 -->
<g id="edge8_Node000005_Node000009" class="edge">
<title>Node9&#45;&gt;Node5</title>
<g id="a_edge8_Node000005_Node000009"><a xlink:title=" ">
<path fill="none" stroke="#9a32cd" stroke-dasharray="5,2" d="M674.97,-574.12C709.78,-570.36 750.53,-562.42 784.25,-546.03 817.13,-530.03 846.33,-496.85 859.68,-480.13"/>
<polygon fill="#9a32cd" stroke="#9a32cd" points="675.01,-570.6 665.4,-575.06 675.69,-577.57 675.01,-570.6"/>
</a>
</g>
<text text-anchor="middle" x="737.38" y="-573.78" font-family="Helvetica,sans-Serif" font-size="10.00" fill="grey"> fDigitizerType</text>
</g>
<!-- Node10 -->
<g id="Node000010" class="node">
<title>Node10</title>
<g id="a_Node000010"><a xlink:href="class_t_priority_value.html" target="_top" xlink:title=" ">
<polygon fill="white" stroke="#666666" points="652.25,-549.65 541,-549.65 541,-530.4 652.25,-530.4 652.25,-549.65"/>
<text text-anchor="middle" x="596.62" y="-536.15" font-family="Helvetica,sans-Serif" font-size="10.00">TPriorityValue&lt; bool &gt;</text>
</a>
</g>
</g>
<!-- Node10&#45;&gt;Node5 -->
<g id="edge9_Node000005_Node000010" class="edge">
<title>Node10&#45;&gt;Node5</title>
<g id="a_edge9_Node000005_Node000010"><a xlink:title=" ">
<path fill="none" stroke="#9a32cd" stroke-dasharray="5,2" d="M663.98,-535.25C700.17,-531.37 745.38,-524.41 784.25,-512.03 808.9,-504.17 835.21,-489.73 851.47,-480"/>
<polygon fill="#9a32cd" stroke="#9a32cd" points="663.67,-531.77 654.07,-536.26 664.37,-538.73 663.67,-531.77"/>
</a>
</g>
<text text-anchor="middle" x="737.38" y="-532.78" font-family="Helvetica,sans-Serif" font-size="10.00" fill="grey"> fUseCalFileInt</text>
</g>
<!-- Node11 -->
<g id="Node000011" class="node">
<title>Node11</title>
<g id="a_Node000011"><a xlink:href="class_t_priority_value.html" target="_top" xlink:title=" ">
<polygon fill="white" stroke="#666666" points="663.5,-512.65 529.75,-512.65 529.75,-493.4 663.5,-493.4 663.5,-512.65"/>
<text text-anchor="middle" x="596.62" y="-499.15" font-family="Helvetica,sans-Serif" font-size="10.00">TPriorityValue&lt; Long64_t &gt;</text>
</a>
</g>
</g>
<!-- Node11&#45;&gt;Node5 -->
<g id="edge10_Node000005_Node000011" class="edge">
<title>Node11&#45;&gt;Node5</title>
<g id="a_edge10_Node000005_Node000011"><a xlink:title=" ">
<path fill="none" stroke="#9a32cd" stroke-dasharray="5,2" d="M675.1,-499.11C708.76,-496.82 748.57,-493.3 784.25,-488.03 802.8,-485.28 823.4,-480.83 839.46,-477.04"/>
<polygon fill="#9a32cd" stroke="#9a32cd" points="675.2,-495.6 665.45,-499.75 675.66,-502.59 675.2,-495.6"/>
</a>
</g>
<text text-anchor="middle" x="737.38" y="-498.78" font-family="Helvetica,sans-Serif" font-size="10.00" fill="grey"> fTimeOffset</text>
</g>
<!-- Node12 -->
<g id="Node000012" class="node">
<title>Node12</title>
<g id="a_Node000012"><a xlink:href="class_t_priority_value.html" target="_top" xlink:title=" ">
<polygon fill="white" stroke="#666666" points="657.5,-473.65 535.75,-473.65 535.75,-454.4 657.5,-454.4 657.5,-473.65"/>
<text text-anchor="middle" x="596.62" y="-460.15" font-family="Helvetica,sans-Serif" font-size="10.00">TPriorityValue&lt; double &gt;</text>
</a>
</g>
</g>
<!-- Node12&#45;&gt;Node5 -->
<g id="edge11_Node000005_Node000012" class="edge">
<title>Node12&#45;&gt;Node5</title>
<g id="a_edge11_Node000005_Node000012"><a xlink:title=" ">
<path fill="none" stroke="#9a32cd" stroke-dasharray="5,2" d="M642.74,-450.53C652.62,-447.3 662.98,-443.72 672.5,-440.03 680.7,-436.84 681.9,-433.65 690.5,-431.78 731.21,-422.89 743.55,-422.86 784.25,-431.78 808.92,-437.18 835.01,-450.63 851.24,-460.04"/>
<polygon fill="#9a32cd" stroke="#9a32cd" points="641.75,-447.17 633.29,-453.54 643.88,-453.84 641.75,-447.17"/>
</a>
</g>
<text text-anchor="middle" x="737.38" y="-477.78" font-family="Helvetica,sans-Serif" font-size="10.00" fill="grey"> fCFDChi2</text>
<text text-anchor="middle" x="737.38" y="-466.53" font-family="Helvetica,sans-Serif" font-size="10.00" fill="grey">fEFFChi2</text>
<text text-anchor="middle" x="737.38" y="-455.28" font-family="Helvetica,sans-Serif" font-size="10.00" fill="grey">fLEDChi2</text>
<text text-anchor="middle" x="737.38" y="-444.03" font-family="Helvetica,sans-Serif" font-size="10.00" fill="grey">fTIMEChi2</text>
<text text-anchor="middle" x="737.38" y="-432.78" font-family="Helvetica,sans-Serif" font-size="10.00" fill="grey">fTimeDrift</text>
</g>
<!-- Node13 -->
<g id="Node000013" class="node">
<title>Node13</title>
<g id="a_Node000013"><a xlink:href="class_t_priority_value.html" target="_top" xlink:title=" ">
<polygon fill="white" stroke="#666666" points="671.75,-746.65 521.5,-746.65 521.5,-727.4 671.75,-727.4 671.75,-746.65"/>
<text text-anchor="middle" x="596.62" y="-733.15" font-family="Helvetica,sans-Serif" font-size="10.00">TPriorityValue&lt; TMnemonic * &gt;</text>
</a>
</g>
</g>
<!-- Node13&#45;&gt;Node5 -->
<g id="edge12_Node000005_Node000013" class="edge">
<title>Node13&#45;&gt;Node5</title>
<g id="a_edge12_Node000005_Node000013"><a xlink:title=" ">
<path fill="none" stroke="#9a32cd" stroke-dasharray="5,2" d="M683.14,-746.83C717.85,-746.32 756.28,-739.48 784.25,-717.03 861.52,-654.99 867.42,-518.33 867.51,-480.13"/>
<polygon fill="#9a32cd" stroke="#9a32cd" points="683.54,-743.33 673.53,-746.79 683.51,-750.33 683.54,-743.33"/>
</a>
</g>
<text text-anchor="middle" x="737.38" y="-747.78" font-family="Helvetica,sans-Serif" font-size="10.00" fill="grey"> fMnemonic</text>
</g>
<!-- Node14&#45;&gt;Node13 -->
<g id="edge13_Node000013_Node000014" class="edge">
<title>Node14&#45;&gt;Node13</title>
<g id="a_edge13_Node000013_Node000014"><a xlink:title=" ">
<path fill="none" stroke="#9a32cd" stroke-dasharray="5,2" d="M431.77,-737.03C457.81,-737.03 491.38,-737.03 521.35,-737.03"/>
<polygon fill="#9a32cd" stroke="#9a32cd" points="431.89,-733.53 421.89,-737.03 431.89,-740.53 431.89,-733.53"/>
</a>
</g>
<text text-anchor="middle" x="482.12" y="-738.78" font-family="Helvetica,sans-Serif" font-size="10.00" fill="grey"> fValue</text>
</g>
<!-- Node15 -->
<g id="Node000015" class="node">
<title>Node15</title>
<g id="a_Node000015"><a xlink:title=" ">
<polygon fill="white" stroke="#666666" points="187.5,-526.65 129.5,-526.65 129.5,-507.4 187.5,-507.4 187.5,-526.65"/>
<text text-anchor="middle" x="158.5" y="-513.15" font-family="Helvetica,sans-Serif" font-size="10.00">std::string</text>
</a>
</g>
</g>
<!-- Node15&#45;&gt;Node5 -->
<g id="edge30_Node000005_Node000015" class="edge">
<title>Node15&#45;&gt;Node5</title>
<g id="a_edge30_Node000005_Node000015"><a xlink:title=" ">
<path fill="none" stroke="#9a32cd" stroke-dasharray="5,2" d="M198.69,-506.91C286.16,-485.01 504.25,-434.13 690.5,-421.03 732.06,-418.1 744.05,-410.06 784.25,-421.03 812.05,-428.61 840.02,-448.12 855.38,-460.11"/>
<polygon fill="#9a32cd" stroke="#9a32cd" points="198.03,-503.47 189.19,-509.31 199.74,-510.26 198.03,-503.47"/>
</a>
</g>
<text text-anchor="middle" x="482.12" y="-451.78" font-family="Helvetica,sans-Serif" font-size="10.00" fill="grey"> fFileData</text>
</g>
<!-- Node15&#45;&gt;Node14 -->
<g id="edge15_Node000014_Node000015" class="edge">
<title>Node15&#45;&gt;Node14</title>
<g id="a_edge15_Node000014_Node000015"><a xlink:title=" ">
<path fill="none" stroke="#9a32cd" stroke-dasharray="5,2" d="M177.88,-534.93C223.3,-579.16 339.65,-692.49 375.02,-726.94"/>
<polygon fill="#9a32cd" stroke="#9a32cd" points="180.48,-532.58 170.88,-528.11 175.6,-537.59 180.48,-532.58"/>
</a>
</g>
<text text-anchor="middle" x="258.38" y="-717.03" font-family="Helvetica,sans-Serif" font-size="10.00" fill="grey"> fArraySubPositionString</text>
<text text-anchor="middle" x="258.38" y="-705.78" font-family="Helvetica,sans-Serif" font-size="10.00" fill="grey">fCollectedChargeString</text>
<text text-anchor="middle" x="258.38" y="-694.53" font-family="Helvetica,sans-Serif" font-size="10.00" fill="grey">fName</text>
<text text-anchor="middle" x="258.38" y="-683.28" font-family="Helvetica,sans-Serif" font-size="10.00" fill="grey">fOutputSensorString</text>
<text text-anchor="middle" x="258.38" y="-672.03" font-family="Helvetica,sans-Serif" font-size="10.00" fill="grey">fSubSystemString</text>
<text text-anchor="middle" x="258.38" y="-660.78" font-family="Helvetica,sans-Serif" font-size="10.00" fill="grey">fSystemString</text>
</g>
<!-- Node16 -->
<g id="Node000016" class="node">
<title>Node16</title>
<g id="a_Node000016"><a xlink:title=" ">
<polygon fill="white" stroke="#666666" points="92.5,-532.28 0,-532.28 0,-501.78 92.5,-501.78 92.5,-532.28"/>
<text text-anchor="start" x="8" y="-518.78" font-family="Helvetica,sans-Serif" font-size="10.00">std::basic_string&lt;</text>
<text text-anchor="middle" x="46.25" y="-507.53" font-family="Helvetica,sans-Serif" font-size="10.00"> Char &gt;</text>
</a>
</g>
</g>
<!-- Node16&#45;&gt;Node15 -->
<g id="edge16_Node000015_Node000016" class="edge">
<title>Node16&#45;&gt;Node15</title>
<g id="a_edge16_Node000015_Node000016"><a xlink:title=" ">
<path fill="none" stroke="#63b8ff" d="M104.12,-517.03C112.81,-517.03 121.45,-517.03 129.16,-517.03"/>
<polygon fill="#63b8ff" stroke="#63b8ff" points="104.24,-513.53 94.24,-517.03 104.24,-520.53 104.24,-513.53"/>
</a>
</g>
</g>
<!-- Node17 -->
<g id="Node000017" class="node">
<title>Node17</title>
<g id="a_Node000017"><a xlink:title=" ">
<polygon fill="white" stroke="#666666" points="647,-397.9 546.25,-397.9 546.25,-356.15 647,-356.15 647,-397.9"/>
<text text-anchor="start" x="554.25" y="-384.4" font-family="Helvetica,sans-Serif" font-size="10.00">TPriorityValue&lt; std</text>
<text text-anchor="start" x="554.25" y="-373.15" font-family="Helvetica,sans-Serif" font-size="10.00">::vector&lt; std::vector</text>
<text text-anchor="middle" x="596.62" y="-361.9" font-family="Helvetica,sans-Serif" font-size="10.00">&lt; Float_t &gt; &gt; &gt;</text>
</a>
</g>
</g>
<!-- Node17&#45;&gt;Node5 -->
<g id="edge17_Node000005_Node000017" class="edge">
<title>Node17&#45;&gt;Node5</title>
<g id="a_edge17_Node000005_Node000017"><a xlink:title=" ">
<path fill="none" stroke="#9a32cd" stroke-dasharray="5,2" d="M658.07,-362.58C696.01,-356.6 745,-354.69 784.25,-372.78 804.62,-382.16 844.6,-437.29 860.56,-460.12"/>
<polygon fill="#9a32cd" stroke="#9a32cd" points="657.93,-359.05 648.67,-364.2 659.12,-365.95 657.93,-359.05"/>
</a>
</g>
<text text-anchor="middle" x="737.38" y="-373.78" font-family="Helvetica,sans-Serif" font-size="10.00" fill="grey"> fENGCoefficients</text>
</g>
<!-- Node18 -->
<g id="Node000018" class="node">
<title>Node18</title>
<g id="a_Node000018"><a xlink:title=" ">
<polygon fill="white" stroke="#666666" points="443.5,-392.28 329.25,-392.28 329.25,-361.78 443.5,-361.78 443.5,-392.28"/>
<text text-anchor="start" x="337.25" y="-378.78" font-family="Helvetica,sans-Serif" font-size="10.00">std::vector&lt; std::vector</text>
<text text-anchor="middle" x="386.38" y="-367.53" font-family="Helvetica,sans-Serif" font-size="10.00">&lt; Float_t &gt; &gt;</text>
</a>
</g>
</g>
<!-- Node18&#45;&gt;Node17 -->
<g id="edge18_Node000017_Node000018" class="edge">
<title>Node18&#45;&gt;Node17</title>
<g id="a_edge18_Node000017_Node000018"><a xlink:title=" ">
<path fill="none" stroke="#9a32cd" stroke-dasharray="5,2" d="M455.24,-377.03C484.8,-377.03 518.82,-377.03 545.97,-377.03"/>
<polygon fill="#9a32cd" stroke="#9a32cd" points="455.24,-373.53 445.24,-377.03 455.24,-380.53 455.24,-373.53"/>
</a>
</g>
<text text-anchor="middle" x="482.12" y="-378.78" font-family="Helvetica,sans-Serif" font-size="10.00" fill="grey"> fValue</text>
</g>
<!-- Node19 -->
<g id="Node000019" class="node">
<title>Node19</title>
<g id="a_Node000019"><a xlink:title=" ">
<polygon fill="white" stroke="#666666" points="652.25,-337.9 541,-337.9 541,-296.15 652.25,-296.15 652.25,-337.9"/>
<text text-anchor="start" x="549" y="-324.4" font-family="Helvetica,sans-Serif" font-size="10.00">TPriorityValue&lt; std</text>
<text text-anchor="start" x="549" y="-313.15" font-family="Helvetica,sans-Serif" font-size="10.00">::vector&lt; std::pair</text>
<text text-anchor="middle" x="596.62" y="-301.9" font-family="Helvetica,sans-Serif" font-size="10.00">&lt; double, double &gt; &gt; &gt;</text>
</a>
</g>
</g>
<!-- Node19&#45;&gt;Node5 -->
<g id="edge19_Node000005_Node000019" class="edge">
<title>Node19&#45;&gt;Node5</title>
<g id="a_edge19_Node000005_Node000019"><a xlink:title=" ">
<path fill="none" stroke="#9a32cd" stroke-dasharray="5,2" d="M663.85,-319.35C709.7,-322.21 765.68,-328.59 784.25,-342.78 800.47,-355.17 791.96,-367.4 802.25,-385.03 819.3,-414.25 845.03,-444.88 858.47,-460.15"/>
<polygon fill="#9a32cd" stroke="#9a32cd" points="664.14,-315.86 653.96,-318.79 663.74,-322.85 664.14,-315.86"/>
</a>
</g>
<text text-anchor="middle" x="737.38" y="-343.78" font-family="Helvetica,sans-Serif" font-size="10.00" fill="grey"> fENGRanges</text>
</g>
<!-- Node20 -->
<g id="Node000020" class="node">
<title>Node20</title>
<g id="a_Node000020"><a xlink:title=" ">
<polygon fill="white" stroke="#666666" points="437.88,-332.28 334.88,-332.28 334.88,-301.78 437.88,-301.78 437.88,-332.28"/>
<text text-anchor="start" x="342.88" y="-318.78" font-family="Helvetica,sans-Serif" font-size="10.00">std::vector&lt; std::pair</text>
<text text-anchor="middle" x="386.38" y="-307.53" font-family="Helvetica,sans-Serif" font-size="10.00">&lt; double, double &gt; &gt;</text>
</a>
</g>
</g>
<!-- Node20&#45;&gt;Node19 -->
<g id="edge20_Node000019_Node000020" class="edge">
<title>Node20&#45;&gt;Node19</title>
<g id="a_edge20_Node000019_Node000020"><a xlink:title=" ">
<path fill="none" stroke="#9a32cd" stroke-dasharray="5,2" d="M449.57,-317.03C478.58,-317.03 512.81,-317.03 540.83,-317.03"/>
<polygon fill="#9a32cd" stroke="#9a32cd" points="449.83,-313.53 439.83,-317.03 449.83,-320.53 449.83,-313.53"/>
</a>
</g>
<text text-anchor="middle" x="482.12" y="-318.78" font-family="Helvetica,sans-Serif" font-size="10.00" fill="grey"> fValue</text>
</g>
<!-- Node21 -->
<g id="Node000021" class="node">
<title>Node21</title>
<g id="a_Node000021"><a xlink:title=" ">
<polygon fill="white" stroke="#666666" points="647,-229.28 546.25,-229.28 546.25,-198.78 647,-198.78 647,-229.28"/>
<text text-anchor="start" x="554.25" y="-215.78" font-family="Helvetica,sans-Serif" font-size="10.00">TPriorityValue&lt; std</text>
<text text-anchor="middle" x="596.62" y="-204.53" font-family="Helvetica,sans-Serif" font-size="10.00">::vector&lt; double &gt; &gt;</text>
</a>
</g>
</g>
<!-- Node21&#45;&gt;Node5 -->
<g id="edge21_Node000005_Node000021" class="edge">
<title>Node21&#45;&gt;Node5</title>
<g id="a_edge21_Node000005_Node000021"><a xlink:title=" ">
<path fill="none" stroke="#9a32cd" stroke-dasharray="5,2" d="M651.06,-195.31C692.58,-184.51 748.87,-178.61 784.25,-210.53 813.2,-236.64 787.85,-348.8 802.25,-385.03 814.54,-415.95 841.48,-445.19 856.58,-459.98"/>
<polygon fill="#9a32cd" stroke="#9a32cd" points="650.19,-191.92 641.5,-197.98 652.07,-198.66 650.19,-191.92"/>
</a>
</g>
<text text-anchor="middle" x="737.38" y="-268.03" font-family="Helvetica,sans-Serif" font-size="10.00" fill="grey"> fCFDCoefficients</text>
<text text-anchor="middle" x="737.38" y="-256.78" font-family="Helvetica,sans-Serif" font-size="10.00" fill="grey">fCTCoefficients</text>
<text text-anchor="middle" x="737.38" y="-245.53" font-family="Helvetica,sans-Serif" font-size="10.00" fill="grey">fEFFCoefficients</text>
<text text-anchor="middle" x="737.38" y="-234.28" font-family="Helvetica,sans-Serif" font-size="10.00" fill="grey">fENGChi2</text>
<text text-anchor="middle" x="737.38" y="-223.03" font-family="Helvetica,sans-Serif" font-size="10.00" fill="grey">fLEDCoefficients</text>
<text text-anchor="middle" x="737.38" y="-211.78" font-family="Helvetica,sans-Serif" font-size="10.00" fill="grey">fTIMECoefficients</text>
</g>
<!-- Node22 -->
<g id="Node000022" class="node">
<title>Node22</title>
<g id="a_Node000022"><a xlink:title=" ">
<polygon fill="white" stroke="#666666" points="439.38,-107.65 333.38,-107.65 333.38,-88.4 439.38,-88.4 439.38,-107.65"/>
<text text-anchor="middle" x="386.38" y="-94.15" font-family="Helvetica,sans-Serif" font-size="10.00">std::vector&lt; double &gt;</text>
</a>
</g>
</g>
<!-- Node22&#45;&gt;Node1 -->
<g id="edge33_Node000001_Node000022" class="edge">
<title>Node22&#45;&gt;Node1</title>
<g id="a_edge33_Node000001_Node000022"><a xlink:title=" ">
<path fill="none" stroke="#9a32cd" stroke-dasharray="5,2" d="M423.34,-83.93C464.36,-69.14 533.77,-48.03 595.62,-48.03 595.62,-48.03 595.62,-48.03 1070.62,-48.03 1147.56,-48.03 1227.53,-104.62 1257.35,-128.05"/>
<polygon fill="#9a32cd" stroke="#9a32cd" points="422.14,-80.64 413.97,-87.38 424.57,-87.21 422.14,-80.64"/>
</a>
</g>
<text text-anchor="middle" x="868.38" y="-49.78" font-family="Helvetica,sans-Serif" font-size="10.00" fill="grey"> fAddBackEnergy</text>
</g>
<!-- Node22&#45;&gt;Node21 -->
<g id="edge22_Node000021_Node000022" class="edge">
<title>Node22&#45;&gt;Node21</title>
<g id="a_edge22_Node000021_Node000022"><a xlink:title=" ">
<path fill="none" stroke="#9a32cd" stroke-dasharray="5,2" d="M407.78,-114.96C432.97,-135.18 477.77,-168.89 520.75,-190.03 528.71,-193.94 537.46,-197.42 546.08,-200.42"/>
<polygon fill="#9a32cd" stroke="#9a32cd" points="410.27,-112.48 400.3,-108.89 405.85,-117.91 410.27,-112.48"/>
</a>
</g>
<text text-anchor="middle" x="482.12" y="-180.78" font-family="Helvetica,sans-Serif" font-size="10.00" fill="grey"> fValue</text>
</g>
<!-- Node23 -->
<g id="Node000023" class="node">
<title>Node23</title>
<g id="a_Node000023"><a xlink:title=" ">
<polygon fill="white" stroke="#666666" points="647.75,-278.28 545.5,-278.28 545.5,-247.78 647.75,-247.78 647.75,-278.28"/>
<text text-anchor="start" x="553.5" y="-264.78" font-family="Helvetica,sans-Serif" font-size="10.00">TPriorityValue&lt; std</text>
<text text-anchor="middle" x="596.62" y="-253.53" font-family="Helvetica,sans-Serif" font-size="10.00">::vector&lt; Float_t &gt; &gt;</text>
</a>
</g>
</g>
<!-- Node23&#45;&gt;Node5 -->
<g id="edge23_Node000005_Node000023" class="edge">
<title>Node23&#45;&gt;Node5</title>
<g id="a_edge23_Node000005_Node000023"><a xlink:title=" ">
<path fill="none" stroke="#9a32cd" stroke-dasharray="5,2" d="M658.8,-275.42C711.45,-286.33 779.67,-301.19 784.25,-305.78 809.77,-331.34 786.91,-352.32 802.25,-385.03 816.46,-415.32 842.88,-445.04 857.32,-460.01"/>
<polygon fill="#9a32cd" stroke="#9a32cd" points="659.82,-272.05 649.32,-273.46 658.4,-278.91 659.82,-272.05"/>
</a>
</g>
<text text-anchor="middle" x="737.38" y="-306.78" font-family="Helvetica,sans-Serif" font-size="10.00" fill="grey"> fENGDriftCoefficents</text>
</g>
<!-- Node24 -->
<g id="Node000024" class="node">
<title>Node24</title>
<g id="a_Node000024"><a xlink:title=" ">
<polygon fill="white" stroke="#666666" points="440.12,-272.65 332.62,-272.65 332.62,-253.4 440.12,-253.4 440.12,-272.65"/>
<text text-anchor="middle" x="386.38" y="-259.15" font-family="Helvetica,sans-Serif" font-size="10.00">std::vector&lt; Float_t &gt;</text>
</a>
</g>
</g>
<!-- Node24&#45;&gt;Node23 -->
<g id="edge24_Node000023_Node000024" class="edge">
<title>Node24&#45;&gt;Node23</title>
<g id="a_edge24_Node000023_Node000024"><a xlink:title=" ">
<path fill="none" stroke="#9a32cd" stroke-dasharray="5,2" d="M451.71,-263.03C481.77,-263.03 517.04,-263.03 545.14,-263.03"/>
<polygon fill="#9a32cd" stroke="#9a32cd" points="451.98,-259.53 441.98,-263.03 451.98,-266.53 451.98,-259.53"/>
</a>
</g>
<text text-anchor="middle" x="482.12" y="-264.78" font-family="Helvetica,sans-Serif" font-size="10.00" fill="grey"> fValue</text>
</g>
<!-- Node25 -->
<g id="Node000025" class="node">
<title>Node25</title>
<g id="a_Node000025"><a xlink:href="class_t_priority_value.html" target="_top" xlink:title=" ">
<polygon fill="white" stroke="#666666" points="659.38,-180.65 533.88,-180.65 533.88,-161.4 659.38,-161.4 659.38,-180.65"/>
<text text-anchor="middle" x="596.62" y="-167.15" font-family="Helvetica,sans-Serif" font-size="10.00">TPriorityValue&lt; TGraph &gt;</text>
</a>
</g>
</g>
<!-- Node25&#45;&gt;Node5 -->
<g id="edge25_Node000005_Node000025" class="edge">
<title>Node25&#45;&gt;Node5</title>
<g id="a_edge25_Node000005_Node000025"><a xlink:title=" ">
<path fill="none" stroke="#9a32cd" stroke-dasharray="5,2" d="M671.08,-161.12C716.04,-156.87 767.98,-155.82 784.25,-170.78 819.42,-203.12 785.03,-340.46 802.25,-385.03 814.25,-416.07 841.31,-445.26 856.5,-460.01"/>
<polygon fill="#9a32cd" stroke="#9a32cd" points="670.92,-157.62 661.33,-162.11 671.63,-164.59 670.92,-157.62"/>
</a>
</g>
<text text-anchor="middle" x="737.38" y="-171.78" font-family="Helvetica,sans-Serif" font-size="10.00" fill="grey"> fEnergyNonlinearity</text>
</g>
<!-- Node26 -->
<g id="Node000026" class="node">
<title>Node26</title>
<g id="a_Node000026"><a xlink:href="struct_t_channel_1_1_wave_form_shape_par.html" target="_top" xlink:title=" ">
<polygon fill="white" stroke="#666666" points="672.5,-143.65 520.75,-143.65 520.75,-124.4 672.5,-124.4 672.5,-143.65"/>
<text text-anchor="middle" x="596.62" y="-130.15" font-family="Helvetica,sans-Serif" font-size="10.00">TChannel::WaveFormShapePar</text>
</a>
</g>
</g>
<!-- Node26&#45;&gt;Node5 -->
<g id="edge26_Node000005_Node000026" class="edge">
<title>Node26&#45;&gt;Node5</title>
<g id="a_edge26_Node000005_Node000026"><a xlink:title=" ">
<path fill="none" stroke="#9a32cd" stroke-dasharray="5,2" d="M641.84,-121.34C684.3,-112.14 747.3,-106.83 784.25,-142.78 822.94,-180.42 783.03,-334.58 802.25,-385.03 814.1,-416.12 841.22,-445.29 856.46,-460.02"/>
<polygon fill="#9a32cd" stroke="#9a32cd" points="641.13,-117.91 632.19,-123.59 642.72,-124.73 641.13,-117.91"/>
</a>
</g>
<text text-anchor="middle" x="737.38" y="-143.78" font-family="Helvetica,sans-Serif" font-size="10.00" fill="grey"> WaveFormShape</text>
</g>
<!-- Node27 -->
<g id="Node000027" class="node">
<title>Node27</title>
<g id="a_Node000027"><a xlink:title=" ">
<polygon fill="white" stroke="#666666" points="665,-106.28 528.25,-106.28 528.25,-75.78 665,-75.78 665,-106.28"/>
<text text-anchor="start" x="536.25" y="-92.78" font-family="Helvetica,sans-Serif" font-size="10.00">std::unordered_map</text>
<text text-anchor="middle" x="596.62" y="-81.53" font-family="Helvetica,sans-Serif" font-size="10.00">&lt; unsigned int, TChannel * &gt;</text>
</a>
</g>
</g>
<!-- Node27&#45;&gt;Node5 -->
<g id="edge27_Node000005_Node000027" class="edge">
<title>Node27&#45;&gt;Node5</title>
<g id="a_edge27_Node000005_Node000027"><a xlink:title=" ">
<path fill="none" stroke="#9a32cd" stroke-dasharray="5,2" d="M666.05,-73.49C705.82,-67.73 753.92,-69.08 784.25,-98.78 807.02,-121.07 791.07,-355.18 802.25,-385.03 813.92,-416.19 841.11,-445.33 856.41,-460.04"/>
<polygon fill="#9a32cd" stroke="#9a32cd" points="665.6,-70.02 656.3,-75.1 666.73,-76.93 665.6,-70.02"/>
</a>
</g>
<text text-anchor="middle" x="737.38" y="-99.78" font-family="Helvetica,sans-Serif" font-size="10.00" fill="grey"> fChannelMap</text>
</g>
<!-- Node28 -->
<g id="Node000028" class="node">
<title>Node28</title>
<g id="a_Node000028"><a xlink:title=" ">
<polygon fill="white" stroke="#666666" points="647,-844.28 546.25,-844.28 546.25,-813.78 647,-813.78 647,-844.28"/>
<text text-anchor="start" x="554.25" y="-830.78" font-family="Helvetica,sans-Serif" font-size="10.00">std::unordered_map</text>
<text text-anchor="middle" x="596.62" y="-819.53" font-family="Helvetica,sans-Serif" font-size="10.00">&lt; unsigned int, int &gt;</text>
</a>
</g>
</g>
<!-- Node28&#45;&gt;Node5 -->
<g id="edge28_Node000005_Node000028" class="edge">
<title>Node28&#45;&gt;Node5</title>
<g id="a_edge28_Node000005_Node000028"><a xlink:title=" ">
<path fill="none" stroke="#9a32cd" stroke-dasharray="5,2" d="M658.84,-837.17C699.23,-839.01 750.7,-834.05 784.25,-804.03 834.9,-758.7 861.17,-530.16 866.4,-479.84"/>
<polygon fill="#9a32cd" stroke="#9a32cd" points="659.2,-833.69 649,-836.57 658.77,-840.68 659.2,-833.69"/>
</a>
</g>
<text text-anchor="middle" x="737.38" y="-837.78" font-family="Helvetica,sans-Serif" font-size="10.00" fill="grey"> fMissingChannelMap</text>
</g>
<!-- Node29 -->
<g id="Node000029" class="node">
<title>Node29</title>
<g id="a_Node000029"><a xlink:title=" ">
<polygon fill="white" stroke="#666666" points="647,-795.28 546.25,-795.28 546.25,-764.78 647,-764.78 647,-795.28"/>
<text text-anchor="start" x="554.25" y="-781.78" font-family="Helvetica,sans-Serif" font-size="10.00">std::unordered_map</text>
<text text-anchor="middle" x="596.62" y="-770.53" font-family="Helvetica,sans-Serif" font-size="10.00">&lt; int, TChannel * &gt;</text>
</a>
</g>
</g>
<!-- Node29&#45;&gt;Node5 -->
<g id="edge29_Node000005_Node000029" class="edge">
<title>Node29&#45;&gt;Node5</title>
<g id="a_edge29_Node000005_Node000029"><a xlink:title=" ">
<path fill="none" stroke="#9a32cd" stroke-dasharray="5,2" d="M658.38,-788.89C698.57,-791.25 749.99,-787.1 784.25,-758.03 828.89,-720.15 859.27,-526.38 865.98,-480.01"/>
<polygon fill="#9a32cd" stroke="#9a32cd" points="658.84,-785.42 648.61,-788.16 658.32,-792.4 658.84,-785.42"/>
</a>
</g>
<text text-anchor="middle" x="737.38" y="-790.78" font-family="Helvetica,sans-Serif" font-size="10.00" fill="grey"> fChannelNumberMap</text>
</g>
<!-- Node30 -->
<g id="Node000030" class="node">
<title>Node30</title>
<g id="a_Node000030"><a xlink:href="class_t_transient_bits.html" target="_top" xlink:title=" ">
<polygon fill="white" stroke="#666666" points="934.5,-375.65 802.25,-375.65 802.25,-356.4 934.5,-356.4 934.5,-375.65"/>
<text text-anchor="middle" x="868.38" y="-362.15" font-family="Helvetica,sans-Serif" font-size="10.00">TTransientBits&lt; UChar_t &gt;</text>
</a>
</g>
</g>
<!-- Node30&#45;&gt;Node1 -->
<g id="edge34_Node000001_Node000030" class="edge">
<title>Node30&#45;&gt;Node1</title>
<g id="a_edge34_Node000001_Node000030"><a xlink:title=" ">
<path fill="none" stroke="#9a32cd" stroke-dasharray="5,2" d="M896.99,-350.29C973.9,-306.46 1189.06,-183.87 1252,-148"/>
<polygon fill="#9a32cd" stroke="#9a32cd" points="895.35,-347.19 888.4,-355.19 898.82,-353.28 895.35,-347.19"/>
</a>
</g>
<text text-anchor="middle" x="1069.62" y="-279.78" font-family="Helvetica,sans-Serif" font-size="10.00" fill="grey"> fSiLiHitBits</text>
</g>
<!-- Node30&#45;&gt;Node2 -->
<g id="edge31_Node000002_Node000030" class="edge">
<title>Node30&#45;&gt;Node2</title>
<g id="a_edge31_Node000002_Node000030"><a xlink:title=" ">
<path fill="none" stroke="#9a32cd" stroke-dasharray="5,2" d="M898.46,-381.2C939.72,-402.75 1014.16,-441.6 1049.29,-459.93"/>
<polygon fill="#9a32cd" stroke="#9a32cd" points="900.31,-378.22 889.82,-376.7 897.07,-384.43 900.31,-378.22"/>
</a>
</g>
<text text-anchor="middle" x="977.25" y="-434.78" font-family="Helvetica,sans-Serif" font-size="10.00" fill="grey"> fBitFlags</text>
</g>
<!-- Node31 -->
<g id="Node000031" class="node">
<title>Node31</title>
<g id="a_Node000031"><a xlink:title=" ">
<polygon fill="white" stroke="#666666" points="1119.25,-19.65 1020,-19.65 1020,-0.4 1119.25,-0.4 1119.25,-19.65"/>
<text text-anchor="middle" x="1069.62" y="-6.15" font-family="Helvetica,sans-Serif" font-size="10.00">std::vector&lt; short &gt;</text>
</a>
</g>
</g>
<!-- Node31&#45;&gt;Node1 -->
<g id="edge32_Node000001_Node000031" class="edge">
<title>Node31&#45;&gt;Node1</title>
<g id="a_edge32_Node000001_Node000031"><a xlink:title=" ">
<path fill="none" stroke="#9a32cd" stroke-dasharray="5,2" d="M1130.95,-0.49C1162.36,1.15 1199.69,-2.5 1226.5,-22.78 1260.73,-48.67 1267.72,-104.95 1269.14,-127.94"/>
<polygon fill="#9a32cd" stroke="#9a32cd" points="1130.91,3.02 1121.19,-1.2 1131.42,-3.97 1130.91,3.02"/>
</a>
</g>
<text text-anchor="middle" x="1181.88" y="-24.78" font-family="Helvetica,sans-Serif" font-size="10.00" fill="grey"> fAddBackSegments</text>
</g>
</g>
</svg>
