<?xml version="1.0" encoding="UTF-8" standalone="no"?>
<!DOCTYPE svg PUBLIC "-//W3C//DTD SVG 1.1//EN"
 "http://www.w3.org/Graphics/SVG/1.1/DTD/svg11.dtd">
<!-- Generated by graphviz version 9.0.0 (20230911.1827)
 -->
<!-- Title: TDetBuildingLoop Pages: 1 -->
<svg width="706pt" height="241pt"
 viewBox="0.00 0.00 706.00 240.75" xmlns="http://www.w3.org/2000/svg" xmlns:xlink="http://www.w3.org/1999/xlink">
<g id="graph0" class="graph" transform="scale(1 1) rotate(0) translate(4 236.75)">
<title>TDetBuildingLoop</title>
<!-- Node1 -->
<g id="Node000001" class="node">
<title>Node1</title>
<g id="a_Node000001"><a xlink:title=" ">
<polygon fill="#999999" stroke="#666666" points="698,-107.12 604.75,-107.12 604.75,-87.88 698,-87.88 698,-107.12"/>
<text text-anchor="middle" x="651.38" y="-93.62" font-family="Helvetica,sans-Serif" font-size="10.00">TDetBuildingLoop</text>
</a>
</g>
</g>
<!-- Node2 -->
<g id="Node000002" class="node">
<title>Node2</title>
<g id="a_Node000002"><a xlink:href="class_stoppable_thread.html" target="_top" xlink:title=" ">
<polygon fill="white" stroke="#666666" points="462.62,-161.12 373.12,-161.12 373.12,-141.88 462.62,-141.88 462.62,-161.12"/>
<text text-anchor="middle" x="417.88" y="-147.62" font-family="Helvetica,sans-Serif" font-size="10.00">StoppableThread</text>
</a>
</g>
</g>
<!-- Node2&#45;&gt;Node1 -->
<g id="edge1_Node000001_Node000002" class="edge">
<title>Node2&#45;&gt;Node1</title>
<g id="a_edge1_Node000001_Node000002"><a xlink:title=" ">
<path fill="none" stroke="#63b8ff" d="M474.02,-139.49C482.88,-137.51 491.95,-135.47 500.5,-133.5 537.4,-125 579.3,-114.9 609.39,-107.56"/>
<polygon fill="#63b8ff" stroke="#63b8ff" points="473.45,-136.03 464.44,-141.61 474.96,-142.86 473.45,-136.03"/>
</a>
</g>
</g>
<!-- Node3 -->
<g id="Node000003" class="node">
<title>Node3</title>
<g id="a_Node000003"><a xlink:title=" ">
<polygon fill="white" stroke="#666666" points="211.5,-227.12 153.5,-227.12 153.5,-207.88 211.5,-207.88 211.5,-227.12"/>
<text text-anchor="middle" x="182.5" y="-213.62" font-family="Helvetica,sans-Serif" font-size="10.00">std::string</text>
</a>
</g>
</g>
<!-- Node3&#45;&gt;Node2 -->
<g id="edge2_Node000002_Node000003" class="edge">
<title>Node3&#45;&gt;Node2</title>
<g id="a_edge2_Node000002_Node000003"><a xlink:title=" ">
<path fill="none" stroke="#9a32cd" stroke-dasharray="5,2" d="M222.58,-207.31C249.29,-200.26 285.48,-190.56 317.25,-181.5 339.66,-175.11 364.78,-167.54 384.19,-161.61"/>
<polygon fill="#9a32cd" stroke="#9a32cd" points="221.99,-203.84 213.21,-209.77 223.77,-210.61 221.99,-203.84"/>
</a>
</g>
<text text-anchor="middle" x="285.38" y="-200.25" font-family="Helvetica,sans-Serif" font-size="10.00" fill="grey"> fName</text>
</g>
<!-- Node4 -->
<g id="Node000004" class="node">
<title>Node4</title>
<g id="a_Node000004"><a xlink:title=" ">
<polygon fill="white" stroke="#666666" points="92.5,-232.75 0,-232.75 0,-202.25 92.5,-202.25 92.5,-232.75"/>
<text text-anchor="start" x="8" y="-219.25" font-family="Helvetica,sans-Serif" font-size="10.00">std::basic_string&lt;</text>
<text text-anchor="middle" x="46.25" y="-208" font-family="Helvetica,sans-Serif" font-size="10.00"> Char &gt;</text>
</a>
</g>
</g>
<!-- Node4&#45;&gt;Node3 -->
<g id="edge3_Node000003_Node000004" class="edge">
<title>Node4&#45;&gt;Node3</title>
<g id="a_edge3_Node000003_Node000004"><a xlink:title=" ">
<path fill="none" stroke="#63b8ff" d="M103.76,-217.5C120.87,-217.5 138.92,-217.5 153.32,-217.5"/>
<polygon fill="#63b8ff" stroke="#63b8ff" points="104.21,-214 94.21,-217.5 104.21,-221 104.21,-214"/>
</a>
</g>
</g>
<!-- Node5 -->
<g id="Node000005" class="node">
<title>Node5</title>
<g id="a_Node000005"><a xlink:title=" ">
<polygon fill="white" stroke="#666666" points="235.5,-189.75 129.5,-189.75 129.5,-159.25 235.5,-159.25 235.5,-189.75"/>
<text text-anchor="start" x="137.5" y="-176.25" font-family="Helvetica,sans-Serif" font-size="10.00">std::map&lt; std::string,</text>
<text text-anchor="middle" x="182.5" y="-165" font-family="Helvetica,sans-Serif" font-size="10.00"> StoppableThread * &gt;</text>
</a>
</g>
</g>
<!-- Node5&#45;&gt;Node2 -->
<g id="edge4_Node000002_Node000005" class="edge">
<title>Node5&#45;&gt;Node2</title>
<g id="a_edge4_Node000002_Node000005"><a xlink:title=" ">
<path fill="none" stroke="#9a32cd" stroke-dasharray="5,2" d="M247.09,-168.23C286.99,-164.3 337.41,-159.33 372.9,-155.83"/>
<polygon fill="#9a32cd" stroke="#9a32cd" points="246.99,-164.73 237.38,-169.19 247.68,-171.69 246.99,-164.73"/>
</a>
</g>
<text text-anchor="middle" x="285.38" y="-168.25" font-family="Helvetica,sans-Serif" font-size="10.00" fill="grey"> fThreadMap</text>
</g>
<!-- Node6 -->
<g id="Node000006" class="node">
<title>Node6</title>
<g id="a_Node000006"><a xlink:title=" ">
<polygon fill="white" stroke="#666666" points="213,-138.12 152,-138.12 152,-118.88 213,-118.88 213,-138.12"/>
<text text-anchor="middle" x="182.5" y="-124.62" font-family="Helvetica,sans-Serif" font-size="10.00">std::thread</text>
</a>
</g>
</g>
<!-- Node6&#45;&gt;Node2 -->
<g id="edge5_Node000002_Node000006" class="edge">
<title>Node6&#45;&gt;Node2</title>
<g id="a_edge5_Node000002_Node000006"><a xlink:title=" ">
<path fill="none" stroke="#9a32cd" stroke-dasharray="5,2" d="M224.48,-129.27C251,-130.06 286.24,-131.69 317.25,-135 335.55,-136.95 355.6,-140.08 372.89,-143.09"/>
<polygon fill="#9a32cd" stroke="#9a32cd" points="224.93,-125.78 214.84,-129 224.74,-132.77 224.93,-125.78"/>
</a>
</g>
<text text-anchor="middle" x="285.38" y="-147.5" font-family="Helvetica,sans-Serif" font-size="10.00" fill="grey"> fStatusThread</text>
<text text-anchor="middle" x="285.38" y="-136.25" font-family="Helvetica,sans-Serif" font-size="10.00" fill="grey">fThread</text>
</g>
<!-- Node7 -->
<g id="Node000007" class="node">
<title>Node7</title>
<g id="a_Node000007"><a xlink:title=" ">
<polygon fill="white" stroke="#666666" points="212.62,-101.12 152.38,-101.12 152.38,-81.88 212.62,-81.88 212.62,-101.12"/>
<text text-anchor="middle" x="182.5" y="-87.62" font-family="Helvetica,sans-Serif" font-size="10.00">std::mutex</text>
</a>
</g>
</g>
<!-- Node7&#45;&gt;Node2 -->
<g id="edge6_Node000002_Node000007" class="edge">
<title>Node7&#45;&gt;Node2</title>
<g id="a_edge6_Node000002_Node000007"><a xlink:title=" ">
<path fill="none" stroke="#9a32cd" stroke-dasharray="5,2" d="M224.16,-91.72C251.86,-93.42 288.58,-98.82 317.25,-114.25 327.56,-119.8 325.07,-127.7 335.25,-133.5 346.6,-139.97 360.05,-144.11 372.74,-146.77"/>
<polygon fill="#9a32cd" stroke="#9a32cd" points="224.55,-88.23 214.4,-91.27 224.23,-95.22 224.55,-88.23"/>
</a>
</g>
<text text-anchor="middle" x="285.38" y="-115.25" font-family="Helvetica,sans-Serif" font-size="10.00" fill="grey"> fPauseMutex</text>
</g>
<!-- Node8 -->
<g id="Node000008" class="node">
<title>Node8</title>
<g id="a_Node000008"><a xlink:title=" ">
<polygon fill="white" stroke="#666666" points="491.88,-124 343.88,-124 343.88,-71 491.88,-71 491.88,-124"/>
<text text-anchor="start" x="351.88" y="-110.5" font-family="Helvetica,sans-Serif" font-size="10.00">std::shared_ptr&lt; Threadsafe</text>
<text text-anchor="start" x="351.88" y="-99.25" font-family="Helvetica,sans-Serif" font-size="10.00">Queue&lt; std::vector&lt; std</text>
<text text-anchor="start" x="351.88" y="-88" font-family="Helvetica,sans-Serif" font-size="10.00">::shared_ptr&lt; const TFragment</text>
<text text-anchor="middle" x="417.88" y="-76.75" font-family="Helvetica,sans-Serif" font-size="10.00"> &gt; &gt; &gt; &gt;</text>
</a>
</g>
</g>
<!-- Node8&#45;&gt;Node1 -->
<g id="edge7_Node000001_Node000008" class="edge">
<title>Node8&#45;&gt;Node1</title>
<g id="a_edge7_Node000001_Node000008"><a xlink:title=" ">
<path fill="none" stroke="#9a32cd" stroke-dasharray="5,2" d="M503.53,-97.5C537.66,-97.5 575.69,-97.5 604.5,-97.5"/>
<polygon fill="#9a32cd" stroke="#9a32cd" points="503.64,-94 493.64,-97.5 503.64,-101 503.64,-94"/>
</a>
</g>
<text text-anchor="middle" x="552.62" y="-99.25" font-family="Helvetica,sans-Serif" font-size="10.00" fill="grey"> fInputQueue</text>
</g>
<!-- Node9 -->
<g id="Node000009" class="node">
<title>Node9</title>
<g id="a_Node000009"><a xlink:title=" ">
<polygon fill="white" stroke="#666666" points="500.5,-53 335.25,-53 335.25,0 500.5,0 500.5,-53"/>
<text text-anchor="start" x="343.25" y="-39.5" font-family="Helvetica,sans-Serif" font-size="10.00">std::vector&lt; std::shared</text>
<text text-anchor="start" x="343.25" y="-28.25" font-family="Helvetica,sans-Serif" font-size="10.00">_ptr&lt; ThreadsafeQueue&lt;</text>
<text text-anchor="start" x="343.25" y="-17" font-family="Helvetica,sans-Serif" font-size="10.00"> std::shared_ptr&lt; TUnpackedEvent</text>
<text text-anchor="middle" x="417.88" y="-5.75" font-family="Helvetica,sans-Serif" font-size="10.00"> &gt; &gt; &gt; &gt;</text>
</a>
</g>
</g>
<!-- Node9&#45;&gt;Node1 -->
<g id="edge8_Node000001_Node000009" class="edge">
<title>Node9&#45;&gt;Node1</title>
<g id="a_edge8_Node000001_Node000009"><a xlink:title=" ">
<path fill="none" stroke="#9a32cd" stroke-dasharray="5,2" d="M511.78,-54.99C549.18,-66.46 589.88,-78.95 617.44,-87.4"/>
<polygon fill="#9a32cd" stroke="#9a32cd" points="512.85,-51.66 502.27,-52.08 510.8,-58.35 512.85,-51.66"/>
</a>
</g>
<text text-anchor="middle" x="552.62" y="-78.25" font-family="Helvetica,sans-Serif" font-size="10.00" fill="grey"> fOutputQueues</text>
</g>
</g>
</svg>
