<?xml version="1.0" encoding="UTF-8" standalone="no"?>
<!DOCTYPE svg PUBLIC "-//W3C//DTD SVG 1.1//EN"
 "http://www.w3.org/Graphics/SVG/1.1/DTD/svg11.dtd">
<!-- Generated by graphviz version 9.0.0 (20230911.1827)
 -->
<!-- Title: TIfin Pages: 1 -->
<svg width="733pt" height="165pt"
 viewBox="0.00 0.00 732.75 165.25" xmlns="http://www.w3.org/2000/svg" xmlns:xlink="http://www.w3.org/1999/xlink">
<g id="graph0" class="graph" transform="scale(1 1) rotate(0) translate(4 161.25)">
<title>TIfin</title>
<!-- Node1 -->
<g id="Node000001" class="node">
<title>Node1</title>
<g id="a_Node000001"><a xlink:title=" ">
<polygon fill="#999999" stroke="#666666" points="724.75,-81.25 690,-81.25 690,-62 724.75,-62 724.75,-81.25"/>
<text text-anchor="middle" x="707.38" y="-67.75" font-family="Helvetica,sans-Serif" font-size="10.00">TIfin</text>
</a>
</g>
</g>
<!-- Node2 -->
<g id="Node000002" class="node">
<title>Node2</title>
<g id="a_Node000002"><a xlink:href="class_t_suppressed.html" target="_top" xlink:title=" ">
<polygon fill="white" stroke="#666666" points="507,-142.25 433.25,-142.25 433.25,-123 507,-123 507,-142.25"/>
<text text-anchor="middle" x="470.12" y="-128.75" font-family="Helvetica,sans-Serif" font-size="10.00">TSuppressed</text>
</a>
</g>
</g>
<!-- Node2&#45;&gt;Node1 -->
<g id="edge1_Node000001_Node000002" class="edge">
<title>Node2&#45;&gt;Node1</title>
<g id="a_edge1_Node000001_Node000002"><a xlink:title=" ">
<path fill="none" stroke="#63b8ff" d="M518.73,-133.15C560.9,-131.88 623.18,-125.67 672,-102.62 682.32,-97.75 691.77,-88.75 698.14,-81.69"/>
<polygon fill="#63b8ff" stroke="#63b8ff" points="518.84,-129.65 508.91,-133.36 518.98,-136.65 518.84,-129.65"/>
</a>
</g>
</g>
<!-- Node3 -->
<g id="Node000003" class="node">
<title>Node3</title>
<g id="a_Node000003"><a xlink:href="class_t_detector.html" target="_top" xlink:title=" ">
<polygon fill="white" stroke="#666666" points="257,-147.25 198.25,-147.25 198.25,-128 257,-128 257,-147.25"/>
<text text-anchor="middle" x="227.62" y="-133.75" font-family="Helvetica,sans-Serif" font-size="10.00">TDetector</text>
</a>
</g>
</g>
<!-- Node3&#45;&gt;Node2 -->
<g id="edge2_Node000002_Node000003" class="edge">
<title>Node3&#45;&gt;Node2</title>
<g id="a_edge2_Node000002_Node000003"><a xlink:title=" ">
<path fill="none" stroke="#63b8ff" d="M268.41,-136.8C314.14,-135.85 388.57,-134.3 432.79,-133.38"/>
<polygon fill="#63b8ff" stroke="#63b8ff" points="268.6,-133.29 258.67,-137 268.74,-140.29 268.6,-133.29"/>
</a>
</g>
</g>
<!-- Node4 -->
<g id="Node000004" class="node">
<title>Node4</title>
<g id="a_Node000004"><a xlink:title=" ">
<polygon fill="white" stroke="#666666" points="94.75,-157.25 44.25,-157.25 44.25,-138 94.75,-138 94.75,-157.25"/>
<text text-anchor="middle" x="69.5" y="-143.75" font-family="Helvetica,sans-Serif" font-size="10.00">TObject</text>
</a>
</g>
</g>
<!-- Node4&#45;&gt;Node3 -->
<g id="edge3_Node000003_Node000004" class="edge">
<title>Node4&#45;&gt;Node3</title>
<g id="a_edge3_Node000003_Node000004"><a xlink:title=" ">
<path fill="none" stroke="#63b8ff" d="M106.43,-145.32C134.15,-143.55 171.99,-141.12 197.76,-139.47"/>
<polygon fill="#63b8ff" stroke="#63b8ff" points="106.5,-141.81 96.75,-145.94 106.95,-148.8 106.5,-141.81"/>
</a>
</g>
</g>
<!-- Node5 -->
<g id="Node000005" class="node">
<title>Node5</title>
<g id="a_Node000005"><a xlink:title=" ">
<polygon fill="white" stroke="#666666" points="139,-109.25 0,-109.25 0,-90 139,-90 139,-109.25"/>
<text text-anchor="middle" x="69.5" y="-95.75" font-family="Helvetica,sans-Serif" font-size="10.00">std::vector&lt; TDetectorHit * &gt;</text>
</a>
</g>
</g>
<!-- Node5&#45;&gt;Node1 -->
<g id="edge6_Node000001_Node000005" class="edge">
<title>Node5&#45;&gt;Node1</title>
<g id="a_edge6_Node000001_Node000005"><a xlink:title=" ">
<path fill="none" stroke="#9a32cd" stroke-dasharray="5,2" d="M150.27,-97.46C265.52,-94.08 485.26,-86.65 672,-74.62 677.74,-74.26 684.01,-73.74 689.6,-73.24"/>
<polygon fill="#9a32cd" stroke="#9a32cd" points="150.52,-93.96 140.62,-97.75 150.72,-100.95 150.52,-93.96"/>
</a>
</g>
<text text-anchor="middle" x="330.5" y="-117.88" font-family="Helvetica,sans-Serif" font-size="10.00" fill="grey"> fAddbackHits</text>
<text text-anchor="middle" x="330.5" y="-106.62" font-family="Helvetica,sans-Serif" font-size="10.00" fill="grey">fSuppressedAddbackHits</text>
<text text-anchor="middle" x="330.5" y="-95.38" font-family="Helvetica,sans-Serif" font-size="10.00" fill="grey">fSuppressedHits</text>
</g>
<!-- Node5&#45;&gt;Node3 -->
<g id="edge4_Node000003_Node000005" class="edge">
<title>Node5&#45;&gt;Node3</title>
<g id="a_edge4_Node000003_Node000005"><a xlink:title=" ">
<path fill="none" stroke="#9a32cd" stroke-dasharray="5,2" d="M126.01,-112.33C143.4,-116.4 162.65,-120.99 180.25,-125.38 186.07,-126.83 192.28,-128.43 198.21,-129.98"/>
<polygon fill="#9a32cd" stroke="#9a32cd" points="126.9,-108.95 116.36,-110.09 125.31,-115.76 126.9,-108.95"/>
</a>
</g>
<text text-anchor="middle" x="168.62" y="-126.38" font-family="Helvetica,sans-Serif" font-size="10.00" fill="grey"> fHits</text>
</g>
<!-- Node6 -->
<g id="Node000006" class="node">
<title>Node6</title>
<g id="a_Node000006"><a xlink:href="class_t_transient_bits.html" target="_top" xlink:title=" ">
<polygon fill="white" stroke="#666666" points="536.25,-60.25 404,-60.25 404,-41 536.25,-41 536.25,-60.25"/>
<text text-anchor="middle" x="470.12" y="-46.75" font-family="Helvetica,sans-Serif" font-size="10.00">TTransientBits&lt; UChar_t &gt;</text>
</a>
</g>
</g>
<!-- Node6&#45;&gt;Node1 -->
<g id="edge5_Node000001_Node000006" class="edge">
<title>Node6&#45;&gt;Node1</title>
<g id="a_edge5_Node000001_Node000006"><a xlink:title=" ">
<path fill="none" stroke="#9a32cd" stroke-dasharray="5,2" d="M547.94,-52.4C585.51,-54.06 631.29,-57.24 672,-63.38 677.83,-64.25 684.12,-65.63 689.7,-67.01"/>
<polygon fill="#9a32cd" stroke="#9a32cd" points="548.21,-48.91 538.07,-52 547.92,-55.9 548.21,-48.91"/>
</a>
</g>
<text text-anchor="middle" x="613.12" y="-65.38" font-family="Helvetica,sans-Serif" font-size="10.00" fill="grey"> fIfinBits</text>
</g>
<!-- Node7 -->
<g id="Node000007" class="node">
<title>Node7</title>
<g id="a_Node000007"><a xlink:title=" ">
<polygon fill="white" stroke="#666666" points="528.38,-19.25 411.88,-19.25 411.88,0 528.38,0 528.38,-19.25"/>
<text text-anchor="middle" x="470.12" y="-5.75" font-family="Helvetica,sans-Serif" font-size="10.00">std::vector&lt; UShort_t &gt;</text>
</a>
</g>
</g>
<!-- Node7&#45;&gt;Node1 -->
<g id="edge7_Node000001_Node000007" class="edge">
<title>Node7&#45;&gt;Node1</title>
<g id="a_edge7_Node000001_Node000007"><a xlink:title=" ">
<path fill="none" stroke="#9a32cd" stroke-dasharray="5,2" d="M540.21,-2.31C580.91,-1.14 632.07,-5.31 672,-27.12 686.22,-34.89 696.45,-51.3 701.89,-61.87"/>
<polygon fill="#9a32cd" stroke="#9a32cd" points="540.11,1.19 530.27,-2.73 540.4,-5.81 540.11,1.19"/>
</a>
</g>
<text text-anchor="middle" x="613.12" y="-40.62" font-family="Helvetica,sans-Serif" font-size="10.00" fill="grey"> fAddbackFrags</text>
<text text-anchor="middle" x="613.12" y="-29.38" font-family="Helvetica,sans-Serif" font-size="10.00" fill="grey">fSuppressedAddbackFrags</text>
</g>
</g>
</svg>
