<?xml version="1.0" encoding="UTF-8" standalone="no"?>
<!DOCTYPE svg PUBLIC "-//W3C//DTD SVG 1.1//EN"
 "http://www.w3.org/Graphics/SVG/1.1/DTD/svg11.dtd">
<!-- Generated by graphviz version 9.0.0 (20230911.1827)
 -->
<!-- Title: TDescant Pages: 1 -->
<svg width="499pt" height="180pt"
 viewBox="0.00 0.00 499.25 179.88" xmlns="http://www.w3.org/2000/svg" xmlns:xlink="http://www.w3.org/1999/xlink">

<svg id="main" version="1.1" xmlns="http://www.w3.org/2000/svg" xmlns:xlink="http://www.w3.org/1999/xlink" xml:space="preserve" onload="init(evt)">
<style type="text/css"><![CDATA[
.node, .edge {opacity: 0.7;}
.node.selected, .edge.selected {opacity: 1;}
.edge:hover path { stroke: red; }
.edge:hover polygon { stroke: red; fill: red; }
]]></style>
<script type="application/ecmascript" xlink:href="svg.min.js"/>
<svg id="graph" class="graph">
<g id="graph0" class="graph" transform="scale(1 1) rotate(0) translate(4 175.88)">
<title>TDescant</title>
<!-- Node1 -->
<g id="Node000001" class="node">
<title>Node1</title>
<g id="a_Node000001"><a xlink:title=" ">
<polygon fill="#999999" stroke="#666666" points="491.25,-88.88 433.25,-88.88 433.25,-69.62 491.25,-69.62 491.25,-88.88"/>
<text text-anchor="middle" x="462.25" y="-75.38" font-family="Helvetica,sans-Serif" font-size="10.00">TDescant</text>
</a>
</g>
</g>
<!-- Node2 -->
<g id="Node000002" class="node">
<title>Node2</title>
<g id="a_Node000002"><a xlink:href="class_t_detector.html" target="_top" xlink:title=" ">
<polygon fill="white" stroke="#666666" points="288.5,-153.88 229.75,-153.88 229.75,-134.62 288.5,-134.62 288.5,-153.88"/>
<text text-anchor="middle" x="259.12" y="-140.38" font-family="Helvetica,sans-Serif" font-size="10.00">TDetector</text>
</a>
</g>
</g>
<!-- Node2&#45;&gt;Node1 -->
<g id="edge1_Node000001_Node000002" class="edge">
<title>Node2&#45;&gt;Node1</title>
<g id="a_edge1_Node000001_Node000002"><a xlink:title=" ">
<path fill="none" stroke="#63b8ff" d="M300.11,-138.26C332.08,-132.64 377.63,-122.74 415.25,-107.25 426.66,-102.55 438.54,-95.26 447.36,-89.29"/>
<polygon fill="#63b8ff" stroke="#63b8ff" points="299.75,-134.77 290.47,-139.89 300.92,-141.67 299.75,-134.77"/>
</a>
</g>
</g>
<!-- Node3 -->
<g id="Node000003" class="node">
<title>Node3</title>
<g id="a_Node000003"><a xlink:title=" ">
<polygon fill="white" stroke="#666666" points="94.75,-171.88 44.25,-171.88 44.25,-152.62 94.75,-152.62 94.75,-171.88"/>
<text text-anchor="middle" x="69.5" y="-158.38" font-family="Helvetica,sans-Serif" font-size="10.00">TObject</text>
</a>
</g>
</g>
<!-- Node3&#45;&gt;Node2 -->
<g id="edge2_Node000002_Node000003" class="edge">
<title>Node3&#45;&gt;Node2</title>
<g id="a_edge2_Node000002_Node000003"><a xlink:title=" ">
<path fill="none" stroke="#63b8ff" d="M106.38,-158.81C142.11,-155.38 196.25,-150.19 229.28,-147.02"/>
<polygon fill="#63b8ff" stroke="#63b8ff" points="106.16,-155.31 96.54,-159.75 106.82,-162.28 106.16,-155.31"/>
</a>
</g>
</g>
<!-- Node4 -->
<g id="Node000004" class="node">
<title>Node4</title>
<g id="a_Node000004"><a xlink:title=" ">
<polygon fill="white" stroke="#666666" points="139,-134.88 0,-134.88 0,-115.62 139,-115.62 139,-134.88"/>
<text text-anchor="middle" x="69.5" y="-121.38" font-family="Helvetica,sans-Serif" font-size="10.00">std::vector&lt; TDetectorHit * &gt;</text>
</a>
</g>
</g>
<!-- Node4&#45;&gt;Node2 -->
<g id="edge3_Node000002_Node000004" class="edge">
<title>Node4&#45;&gt;Node2</title>
<g id="a_edge3_Node000002_Node000004"><a xlink:title=" ">
<path fill="none" stroke="#9a32cd" stroke-dasharray="5,2" d="M150.53,-133.01C160.54,-134.01 170.63,-135.02 180.25,-136 196.48,-137.65 214.61,-139.57 229.28,-141.14"/>
<polygon fill="#9a32cd" stroke="#9a32cd" points="151.1,-129.55 140.81,-132.05 150.41,-136.52 151.1,-129.55"/>
</a>
</g>
<text text-anchor="middle" x="168.62" y="-138" font-family="Helvetica,sans-Serif" font-size="10.00" fill="grey"> fHits</text>
</g>
<!-- Node5 -->
<g id="Node000005" class="node">
<title>Node5</title>
<g id="a_Node000005"><a xlink:title=" ">
<polygon fill="white" stroke="#666666" points="312.12,-116.5 206.12,-116.5 206.12,-86 312.12,-86 312.12,-116.5"/>
<text text-anchor="start" x="214.12" y="-103" font-family="Helvetica,sans-Serif" font-size="10.00">std::array&lt; TVector3,</text>
<text text-anchor="middle" x="259.12" y="-91.75" font-family="Helvetica,sans-Serif" font-size="10.00"> 71 &gt;</text>
</a>
</g>
</g>
<!-- Node5&#45;&gt;Node1 -->
<g id="edge4_Node000001_Node000005" class="edge">
<title>Node5&#45;&gt;Node1</title>
<g id="a_edge4_Node000001_Node000005"><a xlink:title=" ">
<path fill="none" stroke="#9a32cd" stroke-dasharray="5,2" d="M323.54,-94.31C360.19,-90.3 404.49,-85.46 432.77,-82.37"/>
<polygon fill="#9a32cd" stroke="#9a32cd" points="323.51,-90.8 313.95,-95.36 324.27,-97.75 323.51,-90.8"/>
</a>
</g>
<text text-anchor="middle" x="376.62" y="-94" font-family="Helvetica,sans-Serif" font-size="10.00" fill="grey"> fPosition</text>
</g>
<!-- Node6 -->
<g id="Node000006" class="node">
<title>Node6</title>
<g id="a_Node000006"><a xlink:title=" ">
<polygon fill="white" stroke="#666666" points="320,-67.88 198.25,-67.88 198.25,-48.62 320,-48.62 320,-67.88"/>
<text text-anchor="middle" x="259.12" y="-54.38" font-family="Helvetica,sans-Serif" font-size="10.00">std::array&lt; TVector3, 9 &gt;</text>
</a>
</g>
</g>
<!-- Node6&#45;&gt;Node1 -->
<g id="edge5_Node000001_Node000006" class="edge">
<title>Node6&#45;&gt;Node1</title>
<g id="a_edge5_Node000001_Node000006"><a xlink:title=" ">
<path fill="none" stroke="#9a32cd" stroke-dasharray="5,2" d="M331.86,-60.11C358.19,-61.48 388.18,-63.87 415.25,-68 421.1,-68.89 427.3,-70.17 433.19,-71.55"/>
<polygon fill="#9a32cd" stroke="#9a32cd" points="332.1,-56.61 321.94,-59.63 331.76,-63.61 332.1,-56.61"/>
</a>
</g>
<text text-anchor="middle" x="376.62" y="-70" font-family="Helvetica,sans-Serif" font-size="10.00" fill="grey"> fAncillaryPosition</text>
</g>
<!-- Node7 -->
<g id="Node000007" class="node">
<title>Node7</title>
<g id="a_Node000007"><a xlink:title=" ">
<polygon fill="white" stroke="#666666" points="312.12,-30.5 206.12,-30.5 206.12,0 312.12,0 312.12,-30.5"/>
<text text-anchor="start" x="214.12" y="-17" font-family="Helvetica,sans-Serif" font-size="10.00">std::array&lt; TVector3,</text>
<text text-anchor="middle" x="259.12" y="-5.75" font-family="Helvetica,sans-Serif" font-size="10.00"> 60 &gt;</text>
</a>
</g>
</g>
<!-- Node7&#45;&gt;Node1 -->
<g id="edge6_Node000001_Node000007" class="edge">
<title>Node7&#45;&gt;Node1</title>
<g id="a_edge6_Node000001_Node000007"><a xlink:title=" ">
<path fill="none" stroke="#9a32cd" stroke-dasharray="5,2" d="M323.63,-21.56C352.46,-25.99 386.47,-33.47 415.25,-46 428.44,-51.75 441.55,-61.75 450.38,-69.29"/>
<polygon fill="#9a32cd" stroke="#9a32cd" points="324.34,-18.13 313.94,-20.17 323.34,-25.06 324.34,-18.13"/>
</a>
</g>
<text text-anchor="middle" x="376.62" y="-48" font-family="Helvetica,sans-Serif" font-size="10.00" fill="grey"> fWallPosition</text>
</g>
</g>
</svg>
</svg>

<style type='text/css'>
<![CDATA[
[data-mouse-over-selected='false'] { opacity: 0.7; }
[data-mouse-over-selected='true']  { opacity: 1.0; }
]]>
</style>
<script type="application/ecmascript"><![CDATA[
document.addEventListener('DOMContentLoaded', (event) => {
  highlightEdges();
  highlightAdjacentNodes();
});
]]></script>
</svg>
