<?xml version="1.0" encoding="UTF-8" standalone="no"?>
<!DOCTYPE svg PUBLIC "-//W3C//DTD SVG 1.1//EN"
 "http://www.w3.org/Graphics/SVG/1.1/DTD/svg11.dtd">
<!-- Generated by graphviz version 12.2.0 (20241103.1931)
 -->
<!-- Title: TCalibrateDescant Pages: 1 -->
<svg width="498pt" height="263pt"
 viewBox="0.00 0.00 497.64 262.50" xmlns="http://www.w3.org/2000/svg" xmlns:xlink="http://www.w3.org/1999/xlink">

<svg id="main" version="1.1" xmlns="http://www.w3.org/2000/svg" xmlns:xlink="http://www.w3.org/1999/xlink" xml:space="preserve">

<style type="text/css"><![CDATA[
.node, .edge {opacity: 0.7;}
.node.selected, .edge.selected {opacity: 1;}
.edge:hover path { stroke: red; }
.edge:hover polygon { stroke: red; fill: red; }
]]></style>
<script type="application/ecmascript" xlink:href="svg.min.js"/>
<svg id="graph" class="graph">
<g id="graph0" class="graph" transform="scale(1 1) rotate(0) translate(4 258.5)">
<title>TCalibrateDescant</title>
<!-- Node1 -->
<g id="Node000001" class="node">
<title>Node1</title>
<g id="a_Node000001"><a xlink:title=" ">
<polygon fill="#999999" stroke="#666666" points="270.25,-19.25 174,-19.25 174,0 270.25,0 270.25,-19.25"/>
<text text-anchor="middle" x="222.12" y="-5.75" font-family="Helvetica,sans-Serif" font-size="10.00">TCalibrateDescant</text>
</a>
</g>
</g>
<!-- Node2 -->
<g id="Node000002" class="node">
<title>Node2</title>
<g id="a_Node000002"><a xlink:title=" ">
<polygon fill="white" stroke="#666666" points="78.25,-198.25 0,-198.25 0,-179 78.25,-179 78.25,-198.25"/>
<text text-anchor="middle" x="39.12" y="-184.75" font-family="Helvetica,sans-Serif" font-size="10.00">TGMainFrame</text>
</a>
</g>
</g>
<!-- Node2&#45;&gt;Node1 -->
<g id="edge1_Node000001_Node000002" class="edge">
<title>Node2&#45;&gt;Node1</title>
<g id="a_edge1_Node000001_Node000002"><a xlink:title=" ">
<path fill="none" stroke="#63b8ff" d="M49.74,-168.94C68.28,-137.8 109.36,-74.97 159.12,-37.25 168.97,-29.79 181.21,-24 192.28,-19.75"/>
<polygon fill="#63b8ff" stroke="#63b8ff" points="46.92,-166.83 44.91,-177.24 52.97,-170.36 46.92,-166.83"/>
</a>
</g>
</g>
<!-- Node3 -->
<g id="Node000003" class="node">
<title>Node3</title>
<g id="a_Node000003"><a xlink:title=" ">
<polygon fill="white" stroke="#666666" points="205.62,-198.25 96.62,-198.25 96.62,-179 205.62,-179 205.62,-198.25"/>
<text text-anchor="middle" x="151.12" y="-184.75" font-family="Helvetica,sans-Serif" font-size="10.00">std::vector&lt; TH1D * &gt;</text>
</a>
</g>
</g>
<!-- Node3&#45;&gt;Node1 -->
<g id="edge2_Node000001_Node000003" class="edge">
<title>Node3&#45;&gt;Node1</title>
<g id="a_edge2_Node000001_Node000003"><a xlink:title=" ">
<path fill="none" stroke="#9a32cd" stroke-dasharray="5,2" d="M158.95,-168.11C174.27,-129.91 207.68,-46.63 218.6,-19.42"/>
<polygon fill="#9a32cd" stroke="#9a32cd" points="155.78,-166.62 155.31,-177.2 162.28,-169.22 155.78,-166.62"/>
</a>
</g>
<text text-anchor="middle" x="237.22" y="-95.25" font-family="Helvetica,sans-Serif" font-size="10.00" fill="grey"> fProjections</text>
</g>
<!-- Node4 -->
<g id="Node000004" class="node">
<title>Node4</title>
<g id="a_Node000004"><a xlink:title=" ">
<polygon fill="white" stroke="#666666" points="364.75,-198.25 223.5,-198.25 223.5,-179 364.75,-179 364.75,-198.25"/>
<text text-anchor="middle" x="294.12" y="-184.75" font-family="Helvetica,sans-Serif" font-size="10.00">std::vector&lt; TGraphErrors * &gt;</text>
</a>
</g>
</g>
<!-- Node4&#45;&gt;Node1 -->
<g id="edge3_Node000001_Node000004" class="edge">
<title>Node4&#45;&gt;Node1</title>
<g id="a_edge3_Node000001_Node000004"><a xlink:title=" ">
<path fill="none" stroke="#9a32cd" stroke-dasharray="5,2" d="M295.77,-167.11C297.21,-136.12 295.7,-76.81 268.12,-37.25 262.74,-29.53 254.35,-23.73 246.19,-19.55"/>
<polygon fill="#9a32cd" stroke="#9a32cd" points="292.29,-166.8 295.14,-177.01 299.27,-167.25 292.29,-166.8"/>
</a>
</g>
<text text-anchor="middle" x="324.27" y="-95.25" font-family="Helvetica,sans-Serif" font-size="10.00" fill="grey"> fCalibrations</text>
</g>
<!-- Node5 -->
<g id="Node000005" class="node">
<title>Node5</title>
<g id="a_Node000005"><a xlink:href="class_t_parameter_input.html" target="_top" xlink:title=" ">
<polygon fill="white" stroke="#666666" points="471.5,-198.25 382.75,-198.25 382.75,-179 471.5,-179 471.5,-198.25"/>
<text text-anchor="middle" x="427.12" y="-184.75" font-family="Helvetica,sans-Serif" font-size="10.00">TParameterInput</text>
</a>
</g>
</g>
<!-- Node5&#45;&gt;Node1 -->
<g id="edge4_Node000001_Node000005" class="edge">
<title>Node5&#45;&gt;Node1</title>
<g id="a_edge4_Node000001_Node000005"><a xlink:title=" ">
<path fill="none" stroke="#9a32cd" stroke-dasharray="5,2" d="M423.63,-167.6C416.81,-134.89 398.51,-70.35 356.12,-37.25 342.9,-26.92 303.35,-19.88 270.63,-15.64"/>
<polygon fill="#9a32cd" stroke="#9a32cd" points="420.17,-168.14 425.48,-177.31 427.04,-166.83 420.17,-168.14"/>
</a>
</g>
<text text-anchor="middle" x="455.89" y="-151.5" font-family="Helvetica,sans-Serif" font-size="10.00" fill="grey"> fAmplitude</text>
<text text-anchor="middle" x="455.89" y="-140.25" font-family="Helvetica,sans-Serif" font-size="10.00" fill="grey">fBgAmp</text>
<text text-anchor="middle" x="455.89" y="-129" font-family="Helvetica,sans-Serif" font-size="10.00" fill="grey">fBgConst</text>
<text text-anchor="middle" x="455.89" y="-117.75" font-family="Helvetica,sans-Serif" font-size="10.00" fill="grey">fBgDecayConst</text>
<text text-anchor="middle" x="455.89" y="-106.5" font-family="Helvetica,sans-Serif" font-size="10.00" fill="grey">fCutoff</text>
<text text-anchor="middle" x="455.89" y="-95.25" font-family="Helvetica,sans-Serif" font-size="10.00" fill="grey">fDSigma</text>
<text text-anchor="middle" x="455.89" y="-84" font-family="Helvetica,sans-Serif" font-size="10.00" fill="grey">fNoiseAmp</text>
<text text-anchor="middle" x="455.89" y="-72.75" font-family="Helvetica,sans-Serif" font-size="10.00" fill="grey">fNoisePos</text>
<text text-anchor="middle" x="455.89" y="-61.5" font-family="Helvetica,sans-Serif" font-size="10.00" fill="grey">fNoiseSigma</text>
<text text-anchor="middle" x="455.89" y="-50.25" font-family="Helvetica,sans-Serif" font-size="10.00" fill="grey">fPeakAmp</text>
<text text-anchor="middle" x="455.89" y="-39" font-family="Helvetica,sans-Serif" font-size="10.00" fill="grey">...</text>
</g>
<!-- Node6 -->
<g id="Node000006" class="node">
<title>Node6</title>
<g id="a_Node000006"><a xlink:title=" ">
<polygon fill="white" stroke="#666666" points="477.5,-254.5 376.75,-254.5 376.75,-235.25 477.5,-235.25 477.5,-254.5"/>
<text text-anchor="middle" x="427.12" y="-241" font-family="Helvetica,sans-Serif" font-size="10.00">TGHorizontalFrame</text>
</a>
</g>
</g>
<!-- Node6&#45;&gt;Node5 -->
<g id="edge5_Node000005_Node000006" class="edge">
<title>Node6&#45;&gt;Node5</title>
<g id="a_edge5_Node000005_Node000006"><a xlink:title=" ">
<path fill="none" stroke="#63b8ff" d="M427.12,-223.69C427.12,-214.98 427.12,-205.24 427.12,-198.42"/>
<polygon fill="#63b8ff" stroke="#63b8ff" points="423.63,-223.4 427.13,-233.4 430.63,-223.4 423.63,-223.4"/>
</a>
</g>
</g>
</g>
</svg>
</svg>

<style type='text/css'>
<![CDATA[
[data-mouse-over-selected='false'] { opacity: 0.7; }
[data-mouse-over-selected='true']  { opacity: 1.0; }
]]>
</style>
<script type="application/ecmascript"><![CDATA[
document.addEventListener('DOMContentLoaded', (event) => {
  highlightEdges();
  highlightAdjacentNodes();
});
]]></script>
</svg>
