<?xml version="1.0" encoding="UTF-8" standalone="no"?>
<!DOCTYPE svg PUBLIC "-//W3C//DTD SVG 1.1//EN"
 "http://www.w3.org/Graphics/SVG/1.1/DTD/svg11.dtd">
<!-- Generated by graphviz version 12.2.0 (20241103.1931)
 -->
<!-- Title: TSinglePeak Pages: 1 -->
<svg width="294pt" height="138pt"
 viewBox="0.00 0.00 293.75 137.75" xmlns="http://www.w3.org/2000/svg" xmlns:xlink="http://www.w3.org/1999/xlink">
<g id="graph0" class="graph" transform="scale(1 1) rotate(0) translate(4 133.75)">
<title>TSinglePeak</title>
<!-- Node1 -->
<g id="Node000001" class="node">
<title>Node1</title>
<g id="a_Node000001"><a xlink:title=" ">
<polygon fill="#999999" stroke="#666666" points="182.38,-74.5 110.88,-74.5 110.88,-55.25 182.38,-55.25 182.38,-74.5"/>
<text text-anchor="middle" x="146.62" y="-61" font-family="Helvetica,sans-Serif" font-size="10.00">TSinglePeak</text>
</a>
</g>
</g>
<!-- Node3 -->
<g id="Node000003" class="node">
<title>Node3</title>
<g id="a_Node000003"><a xlink:href="class_t_a_b3_peak.html" target="_top" xlink:title=" ">
<polygon fill="white" stroke="#666666" points="63.25,-19.25 0,-19.25 0,0 63.25,0 63.25,-19.25"/>
<text text-anchor="middle" x="31.62" y="-5.75" font-family="Helvetica,sans-Serif" font-size="10.00">TAB3Peak</text>
</a>
</g>
</g>
<!-- Node1&#45;&gt;Node3 -->
<g id="edge2_Node000001_Node000003" class="edge">
<title>Node1&#45;&gt;Node3</title>
<g id="a_edge2_Node000001_Node000003"><a xlink:title=" ">
<path fill="none" stroke="#63b8ff" d="M116.68,-50.01C96.03,-40.45 69.19,-28.02 51.23,-19.7"/>
<polygon fill="#63b8ff" stroke="#63b8ff" points="115.2,-53.18 125.74,-54.21 118.14,-46.83 115.2,-53.18"/>
</a>
</g>
</g>
<!-- Node4 -->
<g id="Node000004" class="node">
<title>Node4</title>
<g id="a_Node000004"><a xlink:href="class_t_a_b_peak.html" target="_top" xlink:title=" ">
<polygon fill="white" stroke="#666666" points="139.62,-19.25 81.62,-19.25 81.62,0 139.62,0 139.62,-19.25"/>
<text text-anchor="middle" x="110.62" y="-5.75" font-family="Helvetica,sans-Serif" font-size="10.00">TABPeak</text>
</a>
</g>
</g>
<!-- Node1&#45;&gt;Node4 -->
<g id="edge3_Node000001_Node000004" class="edge">
<title>Node1&#45;&gt;Node4</title>
<g id="a_edge3_Node000001_Node000004"><a xlink:title=" ">
<path fill="none" stroke="#63b8ff" d="M134.31,-45.65C128.36,-36.86 121.5,-26.71 116.7,-19.61"/>
<polygon fill="#63b8ff" stroke="#63b8ff" points="131.33,-47.5 139.83,-53.83 137.13,-43.58 131.33,-47.5"/>
</a>
</g>
</g>
<!-- Node5 -->
<g id="Node000005" class="node">
<title>Node5</title>
<g id="a_Node000005"><a xlink:href="class_t_gauss.html" target="_top" xlink:title=" ">
<polygon fill="white" stroke="#666666" points="207.88,-19.25 157.38,-19.25 157.38,0 207.88,0 207.88,-19.25"/>
<text text-anchor="middle" x="182.62" y="-5.75" font-family="Helvetica,sans-Serif" font-size="10.00">TGauss</text>
</a>
</g>
</g>
<!-- Node1&#45;&gt;Node5 -->
<g id="edge4_Node000001_Node000005" class="edge">
<title>Node1&#45;&gt;Node5</title>
<g id="a_edge4_Node000001_Node000005"><a xlink:title=" ">
<path fill="none" stroke="#63b8ff" d="M158.94,-45.65C164.89,-36.86 171.75,-26.71 176.55,-19.61"/>
<polygon fill="#63b8ff" stroke="#63b8ff" points="156.12,-43.58 153.42,-53.83 161.92,-47.5 156.12,-43.58"/>
</a>
</g>
</g>
<!-- Node6 -->
<g id="Node000006" class="node">
<title>Node6</title>
<g id="a_Node000006"><a xlink:href="class_t_r_w_peak.html" target="_top" xlink:title=" ">
<polygon fill="white" stroke="#666666" points="285.75,-19.25 225.5,-19.25 225.5,0 285.75,0 285.75,-19.25"/>
<text text-anchor="middle" x="255.62" y="-5.75" font-family="Helvetica,sans-Serif" font-size="10.00">TRWPeak</text>
</a>
</g>
</g>
<!-- Node1&#45;&gt;Node6 -->
<g id="edge5_Node000001_Node000006" class="edge">
<title>Node1&#45;&gt;Node6</title>
<g id="a_edge5_Node000001_Node000006"><a xlink:title=" ">
<path fill="none" stroke="#63b8ff" d="M175.28,-49.87C194.81,-40.33 220.1,-27.98 237.04,-19.7"/>
<polygon fill="#63b8ff" stroke="#63b8ff" points="173.92,-46.64 166.48,-54.18 177,-52.93 173.92,-46.64"/>
</a>
</g>
</g>
<!-- Node2 -->
<g id="Node000002" class="node">
<title>Node2</title>
<g id="a_Node000002"><a xlink:title=" ">
<polygon fill="white" stroke="#666666" points="171.88,-129.75 121.38,-129.75 121.38,-110.5 171.88,-110.5 171.88,-129.75"/>
<text text-anchor="middle" x="146.62" y="-116.25" font-family="Helvetica,sans-Serif" font-size="10.00">TObject</text>
</a>
</g>
</g>
<!-- Node2&#45;&gt;Node1 -->
<g id="edge1_Node000001_Node000002" class="edge">
<title>Node2&#45;&gt;Node1</title>
<g id="a_edge1_Node000001_Node000002"><a xlink:title=" ">
<path fill="none" stroke="#63b8ff" d="M146.62,-98.88C146.62,-90.59 146.62,-81.42 146.62,-74.86"/>
<polygon fill="#63b8ff" stroke="#63b8ff" points="143.13,-98.82 146.63,-108.82 150.13,-98.82 143.13,-98.82"/>
</a>
</g>
</g>
</g>
</svg>
