<?xml version="1.0" encoding="UTF-8" standalone="no"?>
<!DOCTYPE svg PUBLIC "-//W3C//DTD SVG 1.1//EN"
 "http://www.w3.org/Graphics/SVG/1.1/DTD/svg11.dtd">
<!-- Generated by graphviz version 9.0.0 (20230911.1827)
 -->
<!-- Title: TGriffinBgo Pages: 1 -->
<svg width="72pt" height="193pt"
 viewBox="0.00 0.00 72.00 193.00" xmlns="http://www.w3.org/2000/svg" xmlns:xlink="http://www.w3.org/1999/xlink">
<g id="graph0" class="graph" transform="scale(1 1) rotate(0) translate(4 189)">
<title>TGriffinBgo</title>
<!-- Node1 -->
<g id="Node000001" class="node">
<title>Node1</title>
<g id="a_Node000001"><a xlink:title=" ">
<polygon fill="#999999" stroke="#666666" points="64,-19.25 0,-19.25 0,0 64,0 64,-19.25"/>
<text text-anchor="middle" x="32" y="-5.75" font-family="Helvetica,sans-Serif" font-size="10.00">TGriffinBgo</text>
</a>
</g>
</g>
<!-- Node2 -->
<g id="Node000002" class="node">
<title>Node2</title>
<g id="a_Node000002"><a xlink:href="class_t_bgo.html" target="_top" xlink:title=" ">
<polygon fill="white" stroke="#666666" points="51.62,-74.5 12.38,-74.5 12.38,-55.25 51.62,-55.25 51.62,-74.5"/>
<text text-anchor="middle" x="32" y="-61" font-family="Helvetica,sans-Serif" font-size="10.00">TBgo</text>
</a>
</g>
</g>
<!-- Node2&#45;&gt;Node1 -->
<g id="edge1_Node000001_Node000002" class="edge">
<title>Node2&#45;&gt;Node1</title>
<g id="a_edge1_Node000001_Node000002"><a xlink:title=" ">
<path fill="none" stroke="#63b8ff" d="M32,-43.63C32,-35.34 32,-26.17 32,-19.61"/>
<polygon fill="#63b8ff" stroke="#63b8ff" points="28.5,-43.57 32,-53.57 35.5,-43.57 28.5,-43.57"/>
</a>
</g>
</g>
<!-- Node3 -->
<g id="Node000003" class="node">
<title>Node3</title>
<g id="a_Node000003"><a xlink:href="class_t_detector.html" target="_top" xlink:title=" ">
<polygon fill="white" stroke="#666666" points="61.38,-129.75 2.62,-129.75 2.62,-110.5 61.38,-110.5 61.38,-129.75"/>
<text text-anchor="middle" x="32" y="-116.25" font-family="Helvetica,sans-Serif" font-size="10.00">TDetector</text>
</a>
</g>
</g>
<!-- Node3&#45;&gt;Node2 -->
<g id="edge2_Node000002_Node000003" class="edge">
<title>Node3&#45;&gt;Node2</title>
<g id="a_edge2_Node000002_Node000003"><a xlink:title=" ">
<path fill="none" stroke="#63b8ff" d="M32,-98.88C32,-90.59 32,-81.42 32,-74.86"/>
<polygon fill="#63b8ff" stroke="#63b8ff" points="28.5,-98.82 32,-108.82 35.5,-98.82 28.5,-98.82"/>
</a>
</g>
</g>
<!-- Node4 -->
<g id="Node000004" class="node">
<title>Node4</title>
<g id="a_Node000004"><a xlink:title=" ">
<polygon fill="white" stroke="#666666" points="57.25,-185 6.75,-185 6.75,-165.75 57.25,-165.75 57.25,-185"/>
<text text-anchor="middle" x="32" y="-171.5" font-family="Helvetica,sans-Serif" font-size="10.00">TObject</text>
</a>
</g>
</g>
<!-- Node4&#45;&gt;Node3 -->
<g id="edge3_Node000003_Node000004" class="edge">
<title>Node4&#45;&gt;Node3</title>
<g id="a_edge3_Node000003_Node000004"><a xlink:title=" ">
<path fill="none" stroke="#63b8ff" d="M32,-154.13C32,-145.84 32,-136.67 32,-130.11"/>
<polygon fill="#63b8ff" stroke="#63b8ff" points="28.5,-154.07 32,-164.07 35.5,-154.07 28.5,-154.07"/>
</a>
</g>
</g>
</g>
</svg>
