<?xml version="1.0" encoding="UTF-8" standalone="no"?>
<!DOCTYPE svg PUBLIC "-//W3C//DTD SVG 1.1//EN"
 "http://www.w3.org/Graphics/SVG/1.1/DTD/svg11.dtd">
<!-- Generated by graphviz version 9.0.0 (20230911.1827)
 -->
<!-- Title: TTigressHit Pages: 1 -->
<!--zoomable 811 -->

<svg id="main" version="1.1" xmlns="http://www.w3.org/2000/svg" xmlns:xlink="http://www.w3.org/1999/xlink" xml:space="preserve" onload="init(evt)">
<style type="text/css"><![CDATA[
.node, .edge {opacity: 0.7;}
.node.selected, .edge.selected {opacity: 1;}
.edge:hover path { stroke: red; }
.edge:hover polygon { stroke: red; fill: red; }
]]></style>

<defs>
  <circle id="rim" cx="0" cy="0" r="7"/>
  <circle id="rim2" cx="0" cy="0" r="3.5"/>
  <g id="zoomPlus">
    <use xlink:href="#rim" fill="#404040"><set attributeName="fill" to="#808080" begin="zoomplus.mouseover" end="zoomplus.mouseout"/></use>
    <path d="M-4,0h8M0,-4v8" fill="none" stroke="white" stroke-width="1.5" pointer-events="none"/>
  </g>
  <g id="zoomMin">
    <use xlink:href="#rim" fill="#404040"><set attributeName="fill" to="#808080" begin="zoomminus.mouseover" end="zoomminus.mouseout"/></use>
    <path d="M-4,0h8" fill="none" stroke="white" stroke-width="1.5" pointer-events="none"/>
  </g>
  <g id="arrowUp" transform="translate(30 24)">
    <use xlink:href="#rim"/>
    <path pointer-events="none" fill="none" stroke="white" stroke-width="1.5" d="M0,-3.0v7 M-2.5,-0.5L0,-3.0L2.5,-0.5"/>
  </g>
  <g id="arrowRight" transform="rotate(90) translate(36 -43)">
    <use xlink:href="#rim"/>
    <path pointer-events="none" fill="none" stroke="white" stroke-width="1.5" d="M0,-3.0v7 M-2.5,-0.5L0,-3.0L2.5,-0.5"/>
  </g>
  <g id="arrowDown" transform="rotate(180) translate(-30 -48)">
    <use xlink:href="#rim"/>
    <path pointer-events="none" fill="none" stroke="white" stroke-width="1.5" d="M0,-3.0v7 M-2.5,-0.5L0,-3.0L2.5,-0.5"/>
  </g>
  <g id="arrowLeft" transform="rotate(270) translate(-36 17)">
    <use xlink:href="#rim"/>
    <path pointer-events="none" fill="none" stroke="white" stroke-width="1.5" d="M0,-3.0v7 M-2.5,-0.5L0,-3.0L2.5,-0.5"/>
  </g>
  <g id="resetDef">
    <use xlink:href="#rim2" fill="#404040"><set attributeName="fill" to="#808080" begin="reset.mouseover" end="reset.mouseout"/></use>
  </g>
</defs>
<script type="application/ecmascript">
var viewWidth = 1314;
var viewHeight = 811;
var sectionId = 'dynsection-1';
</script>
<script type="application/ecmascript" xlink:href="svg.min.js"/>
<svg id="graph" class="graph">
<g id="viewport">
<title>TTigressHit</title>
<!-- Node1 -->
<g id="Node000001" class="node">
<title>Node1</title>
<g id="a_Node000001"><a xlink:title=" ">
<polygon fill="#999999" stroke="#666666" points="1305.5,-390.88 1238.5,-390.88 1238.5,-371.62 1305.5,-371.62 1305.5,-390.88"/>
<text text-anchor="middle" x="1272" y="-377.38" font-family="Helvetica,sans-Serif" font-size="10.00">TTigressHit</text>
</a>
</g>
</g>
<!-- Node2 -->
<g id="Node000002" class="node">
<title>Node2</title>
<g id="a_Node000002"><a xlink:href="class_t_detector_hit.html" target="_top" xlink:title=" ">
<polygon fill="white" stroke="#666666" points="1122.25,-414.88 1050.75,-414.88 1050.75,-395.62 1122.25,-395.62 1122.25,-414.88"/>
<text text-anchor="middle" x="1086.5" y="-401.38" font-family="Helvetica,sans-Serif" font-size="10.00">TDetectorHit</text>
</a>
</g>
</g>
<!-- Node2&#45;&gt;Node1 -->
<g id="edge1_Node000001_Node000002" class="edge">
<title>Node2&#45;&gt;Node1</title>
<g id="a_edge1_Node000001_Node000002"><a xlink:title=" ">
<path fill="none" stroke="#63b8ff" d="M1133.48,-399.24C1166.02,-394.98 1208.87,-389.38 1238.03,-385.56"/>
<polygon fill="#63b8ff" stroke="#63b8ff" points="1133.41,-395.72 1123.95,-400.48 1134.32,-402.66 1133.41,-395.72"/>
</a>
</g>
</g>
<!-- Node3 -->
<g id="Node000003" class="node">
<title>Node3</title>
<g id="a_Node000003"><a xlink:title=" ">
<polygon fill="white" stroke="#666666" points="183.75,-799.88 133.25,-799.88 133.25,-780.62 183.75,-780.62 183.75,-799.88"/>
<text text-anchor="middle" x="158.5" y="-786.38" font-family="Helvetica,sans-Serif" font-size="10.00">TObject</text>
</a>
</g>
</g>
<!-- Node3&#45;&gt;Node2 -->
<g id="edge2_Node000002_Node000003" class="edge">
<title>Node3&#45;&gt;Node2</title>
<g id="a_edge2_Node000002_Node000003"><a xlink:title=" ">
<path fill="none" stroke="#63b8ff" d="M195.58,-793.61C240.14,-797.46 318.27,-803.25 385.38,-803.25 385.38,-803.25 385.38,-803.25 869.38,-803.25 1051.79,-803.25 1081.08,-476.38 1084.97,-415.09"/>
<polygon fill="#63b8ff" stroke="#63b8ff" points="195.98,-790.13 185.71,-792.74 195.37,-797.1 195.98,-790.13"/>
</a>
</g>
</g>
<!-- Node14 -->
<g id="Node000014" class="node">
<title>Node14</title>
<g id="a_Node000014"><a xlink:href="class_t_mnemonic.html" target="_top" xlink:title=" ">
<polygon fill="white" stroke="#666666" points="419.88,-774.88 352.88,-774.88 352.88,-755.62 419.88,-755.62 419.88,-774.88"/>
<text text-anchor="middle" x="386.38" y="-761.38" font-family="Helvetica,sans-Serif" font-size="10.00">TMnemonic</text>
</a>
</g>
</g>
<!-- Node3&#45;&gt;Node14 -->
<g id="edge14_Node000014_Node000003" class="edge">
<title>Node3&#45;&gt;Node14</title>
<g id="a_edge14_Node000014_Node000003"><a xlink:title=" ">
<path fill="none" stroke="#63b8ff" d="M195.48,-786.27C238.71,-781.48 310.6,-773.53 352.43,-768.9"/>
<polygon fill="#63b8ff" stroke="#63b8ff" points="195.16,-782.78 185.61,-787.36 195.93,-789.74 195.16,-782.78"/>
</a>
</g>
</g>
<!-- Node4 -->
<g id="Node000004" class="node">
<title>Node4</title>
<g id="a_Node000004"><a xlink:title=" ">
<polygon fill="white" stroke="#666666" points="922.88,-396.88 813.88,-396.88 813.88,-377.62 922.88,-377.62 922.88,-396.88"/>
<text text-anchor="middle" x="868.38" y="-383.38" font-family="Helvetica,sans-Serif" font-size="10.00">std::vector&lt; Short_t &gt;</text>
</a>
</g>
</g>
<!-- Node4&#45;&gt;Node2 -->
<g id="edge3_Node000002_Node000004" class="edge">
<title>Node4&#45;&gt;Node2</title>
<g id="a_edge3_Node000002_Node000004"><a xlink:title=" ">
<path fill="none" stroke="#9a32cd" stroke-dasharray="5,2" d="M934.69,-386.53C956.17,-386.85 980.15,-387.79 1002,-390 1017.98,-391.61 1035.49,-394.62 1050.33,-397.54"/>
<polygon fill="#9a32cd" stroke="#9a32cd" points="934.92,-383.03 924.89,-386.43 934.85,-390.03 934.92,-383.03"/>
</a>
</g>
<text text-anchor="middle" x="977.25" y="-391" font-family="Helvetica,sans-Serif" font-size="10.00" fill="grey"> fWaveform</text>
</g>
<!-- Node5 -->
<g id="Node000005" class="node">
<title>Node5</title>
<g id="a_Node000005"><a xlink:href="class_t_channel.html" target="_top" xlink:title=" ">
<polygon fill="white" stroke="#666666" points="897,-433.88 839.75,-433.88 839.75,-414.62 897,-414.62 897,-433.88"/>
<text text-anchor="middle" x="868.38" y="-420.38" font-family="Helvetica,sans-Serif" font-size="10.00">TChannel</text>
</a>
</g>
</g>
<!-- Node5&#45;&gt;Node2 -->
<g id="edge4_Node000002_Node000005" class="edge">
<title>Node5&#45;&gt;Node2</title>
<g id="a_edge4_Node000002_Node000005"><a xlink:title=" ">
<path fill="none" stroke="#9a32cd" stroke-dasharray="5,2" d="M908.46,-420.81C948.86,-417.26 1011.36,-411.77 1050.27,-408.35"/>
<polygon fill="#9a32cd" stroke="#9a32cd" points="908.35,-417.31 898.69,-421.67 908.96,-424.28 908.35,-417.31"/>
</a>
</g>
<text text-anchor="middle" x="977.25" y="-418" font-family="Helvetica,sans-Serif" font-size="10.00" fill="grey"> fChannel</text>
</g>
<!-- Node6 -->
<g id="Node000006" class="node">
<title>Node6</title>
<g id="a_Node000006"><a xlink:title=" ">
<polygon fill="white" stroke="#666666" points="623.38,-737.88 569.88,-737.88 569.88,-718.62 623.38,-718.62 623.38,-737.88"/>
<text text-anchor="middle" x="596.62" y="-724.38" font-family="Helvetica,sans-Serif" font-size="10.00">TNamed</text>
</a>
</g>
</g>
<!-- Node6&#45;&gt;Node5 -->
<g id="edge5_Node000005_Node000006" class="edge">
<title>Node6&#45;&gt;Node5</title>
<g id="a_edge5_Node000005_Node000006"><a xlink:title=" ">
<path fill="none" stroke="#63b8ff" d="M635,-737.88C676.2,-746.1 742.18,-751.88 784.25,-718.25 830.96,-680.91 859.88,-481.23 866.11,-434.18"/>
<polygon fill="#63b8ff" stroke="#63b8ff" points="635.82,-734.48 625.31,-735.79 634.35,-741.32 635.82,-734.48"/>
</a>
</g>
</g>
<!-- Node7 -->
<g id="Node000007" class="node">
<title>Node7</title>
<g id="a_Node000007"><a xlink:href="class_t_priority_value.html" target="_top" xlink:title=" ">
<polygon fill="white" stroke="#666666" points="648.5,-699.88 544.75,-699.88 544.75,-680.62 648.5,-680.62 648.5,-699.88"/>
<text text-anchor="middle" x="596.62" y="-686.38" font-family="Helvetica,sans-Serif" font-size="10.00">TPriorityValue&lt; int &gt;</text>
</a>
</g>
</g>
<!-- Node7&#45;&gt;Node5 -->
<g id="edge6_Node000005_Node000007" class="edge">
<title>Node7&#45;&gt;Node5</title>
<g id="a_edge6_Node000005_Node000007"><a xlink:title=" ">
<path fill="none" stroke="#9a32cd" stroke-dasharray="5,2" d="M659,-677.9C711.5,-667.1 779.39,-652.5 784.25,-648.25 852.02,-589.01 864.62,-469.25 866.89,-434.14"/>
<polygon fill="#9a32cd" stroke="#9a32cd" points="658.3,-674.47 649.2,-679.9 659.7,-681.32 658.3,-674.47"/>
</a>
</g>
<text text-anchor="middle" x="737.38" y="-705.75" font-family="Helvetica,sans-Serif" font-size="10.00" fill="grey"> fIntegration</text>
<text text-anchor="middle" x="737.38" y="-694.5" font-family="Helvetica,sans-Serif" font-size="10.00" fill="grey">fNumber</text>
<text text-anchor="middle" x="737.38" y="-683.25" font-family="Helvetica,sans-Serif" font-size="10.00" fill="grey">fStream</text>
<text text-anchor="middle" x="737.38" y="-672" font-family="Helvetica,sans-Serif" font-size="10.00" fill="grey">fTimeStampUnit</text>
</g>
<!-- Node8 -->
<g id="Node000008" class="node">
<title>Node8</title>
<g id="a_Node000008"><a xlink:title=" ">
<polygon fill="white" stroke="#666666" points="645.88,-662.5 547.38,-662.5 547.38,-632 645.88,-632 645.88,-662.5"/>
<text text-anchor="start" x="555.38" y="-649" font-family="Helvetica,sans-Serif" font-size="10.00">TPriorityValue&lt; std</text>
<text text-anchor="middle" x="596.62" y="-637.75" font-family="Helvetica,sans-Serif" font-size="10.00">::string &gt;</text>
</a>
</g>
</g>
<!-- Node8&#45;&gt;Node5 -->
<g id="edge7_Node000005_Node000008" class="edge">
<title>Node8&#45;&gt;Node5</title>
<g id="a_edge7_Node000005_Node000008"><a xlink:title=" ">
<path fill="none" stroke="#9a32cd" stroke-dasharray="5,2" d="M657.38,-639.55C708.11,-632.54 774.24,-622.12 784.25,-614.25 844.8,-566.6 862.21,-465.85 866.29,-434.07"/>
<polygon fill="#9a32cd" stroke="#9a32cd" points="657.1,-636.05 647.66,-640.87 658.04,-642.99 657.1,-636.05"/>
</a>
</g>
<text text-anchor="middle" x="737.38" y="-635" font-family="Helvetica,sans-Serif" font-size="10.00" fill="grey"> fDigitizerTypeString</text>
</g>
<!-- Node9 -->
<g id="Node000009" class="node">
<title>Node9</title>
<g id="a_Node000009"><a xlink:href="class_t_priority_value.html" target="_top" xlink:title=" ">
<polygon fill="white" stroke="#666666" points="663.5,-613.88 529.75,-613.88 529.75,-594.62 663.5,-594.62 663.5,-613.88"/>
<text text-anchor="middle" x="596.62" y="-600.38" font-family="Helvetica,sans-Serif" font-size="10.00">TPriorityValue&lt; EDigitizer &gt;</text>
</a>
</g>
</g>
<!-- Node9&#45;&gt;Node5 -->
<g id="edge8_Node000005_Node000009" class="edge">
<title>Node9&#45;&gt;Node5</title>
<g id="a_edge8_Node000005_Node000009"><a xlink:title=" ">
<path fill="none" stroke="#9a32cd" stroke-dasharray="5,2" d="M675.26,-600.9C718.33,-597.69 766.67,-591.43 784.25,-579.25 836.71,-542.91 858.92,-462.6 865.3,-434.33"/>
<polygon fill="#9a32cd" stroke="#9a32cd" points="675.1,-597.4 665.37,-601.58 675.59,-604.38 675.1,-597.4"/>
</a>
</g>
<text text-anchor="middle" x="737.38" y="-601" font-family="Helvetica,sans-Serif" font-size="10.00" fill="grey"> fDigitizerType</text>
</g>
<!-- Node10 -->
<g id="Node000010" class="node">
<title>Node10</title>
<g id="a_Node000010"><a xlink:href="class_t_priority_value.html" target="_top" xlink:title=" ">
<polygon fill="white" stroke="#666666" points="652.25,-576.88 541,-576.88 541,-557.62 652.25,-557.62 652.25,-576.88"/>
<text text-anchor="middle" x="596.62" y="-563.38" font-family="Helvetica,sans-Serif" font-size="10.00">TPriorityValue&lt; bool &gt;</text>
</a>
</g>
</g>
<!-- Node10&#45;&gt;Node5 -->
<g id="edge9_Node000005_Node000010" class="edge">
<title>Node10&#45;&gt;Node5</title>
<g id="a_edge9_Node000005_Node000010"><a xlink:title=" ">
<path fill="none" stroke="#9a32cd" stroke-dasharray="5,2" d="M663.93,-566.38C709.2,-564.7 764.43,-560.15 784.25,-548.25 829.58,-521.03 855.45,-458.45 864.09,-434.15"/>
<polygon fill="#9a32cd" stroke="#9a32cd" points="664.05,-562.88 654.17,-566.7 664.28,-569.87 664.05,-562.88"/>
</a>
</g>
<text text-anchor="middle" x="737.38" y="-566" font-family="Helvetica,sans-Serif" font-size="10.00" fill="grey"> fUseCalFileInt</text>
</g>
<!-- Node11 -->
<g id="Node000011" class="node">
<title>Node11</title>
<g id="a_Node000011"><a xlink:href="class_t_priority_value.html" target="_top" xlink:title=" ">
<polygon fill="white" stroke="#666666" points="663.5,-539.88 529.75,-539.88 529.75,-520.62 663.5,-520.62 663.5,-539.88"/>
<text text-anchor="middle" x="596.62" y="-526.38" font-family="Helvetica,sans-Serif" font-size="10.00">TPriorityValue&lt; Long64_t &gt;</text>
</a>
</g>
</g>
<!-- Node11&#45;&gt;Node5 -->
<g id="edge10_Node000005_Node000011" class="edge">
<title>Node11&#45;&gt;Node5</title>
<g id="a_edge10_Node000005_Node000011"><a xlink:title=" ">
<path fill="none" stroke="#9a32cd" stroke-dasharray="5,2" d="M674.91,-536C709.88,-535.56 750.78,-530.64 784.25,-514.25 821.31,-496.1 849.94,-453.78 861.63,-434.34"/>
<polygon fill="#9a32cd" stroke="#9a32cd" points="675.29,-532.5 665.29,-535.99 675.29,-539.5 675.29,-532.5"/>
</a>
</g>
<text text-anchor="middle" x="737.38" y="-537" font-family="Helvetica,sans-Serif" font-size="10.00" fill="grey"> fTimeOffset</text>
</g>
<!-- Node12 -->
<g id="Node000012" class="node">
<title>Node12</title>
<g id="a_Node000012"><a xlink:href="class_t_priority_value.html" target="_top" xlink:title=" ">
<polygon fill="white" stroke="#666666" points="657.5,-495.88 535.75,-495.88 535.75,-476.62 657.5,-476.62 657.5,-495.88"/>
<text text-anchor="middle" x="596.62" y="-482.38" font-family="Helvetica,sans-Serif" font-size="10.00">TPriorityValue&lt; double &gt;</text>
</a>
</g>
</g>
<!-- Node12&#45;&gt;Node5 -->
<g id="edge11_Node000005_Node000012" class="edge">
<title>Node12&#45;&gt;Node5</title>
<g id="a_edge11_Node000005_Node000012"><a xlink:title=" ">
<path fill="none" stroke="#9a32cd" stroke-dasharray="5,2" d="M638.6,-472.76C654.67,-467.73 673.35,-462.23 690.5,-458 742.55,-445.16 804.24,-434.37 839.3,-428.66"/>
<polygon fill="#9a32cd" stroke="#9a32cd" points="637.85,-469.32 629.38,-475.68 639.97,-475.99 637.85,-469.32"/>
</a>
</g>
<text text-anchor="middle" x="737.38" y="-504" font-family="Helvetica,sans-Serif" font-size="10.00" fill="grey"> fCFDChi2</text>
<text text-anchor="middle" x="737.38" y="-492.75" font-family="Helvetica,sans-Serif" font-size="10.00" fill="grey">fEFFChi2</text>
<text text-anchor="middle" x="737.38" y="-481.5" font-family="Helvetica,sans-Serif" font-size="10.00" fill="grey">fLEDChi2</text>
<text text-anchor="middle" x="737.38" y="-470.25" font-family="Helvetica,sans-Serif" font-size="10.00" fill="grey">fTIMEChi2</text>
<text text-anchor="middle" x="737.38" y="-459" font-family="Helvetica,sans-Serif" font-size="10.00" fill="grey">fTimeDrift</text>
</g>
<!-- Node13 -->
<g id="Node000013" class="node">
<title>Node13</title>
<g id="a_Node000013"><a xlink:href="class_t_priority_value.html" target="_top" xlink:title=" ">
<polygon fill="white" stroke="#666666" points="671.75,-774.88 521.5,-774.88 521.5,-755.62 671.75,-755.62 671.75,-774.88"/>
<text text-anchor="middle" x="596.62" y="-761.38" font-family="Helvetica,sans-Serif" font-size="10.00">TPriorityValue&lt; TMnemonic * &gt;</text>
</a>
</g>
</g>
<!-- Node13&#45;&gt;Node5 -->
<g id="edge12_Node000005_Node000013" class="edge">
<title>Node13&#45;&gt;Node5</title>
<g id="a_edge12_Node000005_Node000013"><a xlink:title=" ">
<path fill="none" stroke="#9a32cd" stroke-dasharray="5,2" d="M683.15,-774.96C718.24,-774.33 756.95,-767.03 784.25,-743.25 833.12,-700.68 860.58,-483.72 866.26,-434.29"/>
<polygon fill="#9a32cd" stroke="#9a32cd" points="683.42,-771.46 673.41,-774.95 683.41,-778.46 683.42,-771.46"/>
</a>
</g>
<text text-anchor="middle" x="737.38" y="-776" font-family="Helvetica,sans-Serif" font-size="10.00" fill="grey"> fMnemonic</text>
</g>
<!-- Node14&#45;&gt;Node13 -->
<g id="edge13_Node000013_Node000014" class="edge">
<title>Node14&#45;&gt;Node13</title>
<g id="a_edge13_Node000013_Node000014"><a xlink:title=" ">
<path fill="none" stroke="#9a32cd" stroke-dasharray="5,2" d="M431.77,-765.25C457.81,-765.25 491.38,-765.25 521.35,-765.25"/>
<polygon fill="#9a32cd" stroke="#9a32cd" points="431.89,-761.75 421.89,-765.25 431.89,-768.75 431.89,-761.75"/>
</a>
</g>
<text text-anchor="middle" x="482.12" y="-767" font-family="Helvetica,sans-Serif" font-size="10.00" fill="grey"> fValue</text>
</g>
<!-- Node15 -->
<g id="Node000015" class="node">
<title>Node15</title>
<g id="a_Node000015"><a xlink:title=" ">
<polygon fill="white" stroke="#666666" points="187.5,-523.88 129.5,-523.88 129.5,-504.62 187.5,-504.62 187.5,-523.88"/>
<text text-anchor="middle" x="158.5" y="-510.38" font-family="Helvetica,sans-Serif" font-size="10.00">std::string</text>
</a>
</g>
</g>
<!-- Node15&#45;&gt;Node5 -->
<g id="edge30_Node000005_Node000015" class="edge">
<title>Node15&#45;&gt;Node5</title>
<g id="a_edge30_Node000005_Node000015"><a xlink:title=" ">
<path fill="none" stroke="#9a32cd" stroke-dasharray="5,2" d="M199.23,-507.69C287.4,-493.31 506.22,-458.71 690.5,-438.25 743.01,-432.42 804.54,-428.12 839.45,-425.91"/>
<polygon fill="#9a32cd" stroke="#9a32cd" points="198.71,-504.23 189.41,-509.29 199.84,-511.13 198.71,-504.23"/>
</a>
</g>
<text text-anchor="middle" x="482.12" y="-468" font-family="Helvetica,sans-Serif" font-size="10.00" fill="grey"> fFileData</text>
</g>
<!-- Node15&#45;&gt;Node14 -->
<g id="edge15_Node000014_Node000015" class="edge">
<title>Node15&#45;&gt;Node14</title>
<g id="a_edge15_Node000014_Node000015"><a xlink:title=" ">
<path fill="none" stroke="#9a32cd" stroke-dasharray="5,2" d="M175.95,-532.53C220.46,-581.99 342.15,-717.22 376.34,-755.21"/>
<polygon fill="#9a32cd" stroke="#9a32cd" points="178.66,-530.31 169.37,-525.21 173.45,-534.99 178.66,-530.31"/>
</a>
</g>
<text text-anchor="middle" x="258.38" y="-734.25" font-family="Helvetica,sans-Serif" font-size="10.00" fill="grey"> fArraySubPositionString</text>
<text text-anchor="middle" x="258.38" y="-723" font-family="Helvetica,sans-Serif" font-size="10.00" fill="grey">fCollectedChargeString</text>
<text text-anchor="middle" x="258.38" y="-711.75" font-family="Helvetica,sans-Serif" font-size="10.00" fill="grey">fName</text>
<text text-anchor="middle" x="258.38" y="-700.5" font-family="Helvetica,sans-Serif" font-size="10.00" fill="grey">fOutputSensorString</text>
<text text-anchor="middle" x="258.38" y="-689.25" font-family="Helvetica,sans-Serif" font-size="10.00" fill="grey">fSubSystemString</text>
<text text-anchor="middle" x="258.38" y="-678" font-family="Helvetica,sans-Serif" font-size="10.00" fill="grey">fSystemString</text>
</g>
<!-- Node16 -->
<g id="Node000016" class="node">
<title>Node16</title>
<g id="a_Node000016"><a xlink:title=" ">
<polygon fill="white" stroke="#666666" points="92.5,-529.5 0,-529.5 0,-499 92.5,-499 92.5,-529.5"/>
<text text-anchor="start" x="8" y="-516" font-family="Helvetica,sans-Serif" font-size="10.00">std::basic_string&lt;</text>
<text text-anchor="middle" x="46.25" y="-504.75" font-family="Helvetica,sans-Serif" font-size="10.00"> Char &gt;</text>
</a>
</g>
</g>
<!-- Node16&#45;&gt;Node15 -->
<g id="edge16_Node000015_Node000016" class="edge">
<title>Node16&#45;&gt;Node15</title>
<g id="a_edge16_Node000015_Node000016"><a xlink:title=" ">
<path fill="none" stroke="#63b8ff" d="M104.12,-514.25C112.81,-514.25 121.45,-514.25 129.16,-514.25"/>
<polygon fill="#63b8ff" stroke="#63b8ff" points="104.24,-510.75 94.24,-514.25 104.24,-517.75 104.24,-510.75"/>
</a>
</g>
</g>
<!-- Node17 -->
<g id="Node000017" class="node">
<title>Node17</title>
<g id="a_Node000017"><a xlink:title=" ">
<polygon fill="white" stroke="#666666" points="647,-420.12 546.25,-420.12 546.25,-378.38 647,-378.38 647,-420.12"/>
<text text-anchor="start" x="554.25" y="-406.62" font-family="Helvetica,sans-Serif" font-size="10.00">TPriorityValue&lt; std</text>
<text text-anchor="start" x="554.25" y="-395.38" font-family="Helvetica,sans-Serif" font-size="10.00">::vector&lt; std::vector</text>
<text text-anchor="middle" x="596.62" y="-384.12" font-family="Helvetica,sans-Serif" font-size="10.00">&lt; Float_t &gt; &gt; &gt;</text>
</a>
</g>
</g>
<!-- Node17&#45;&gt;Node5 -->
<g id="edge17_Node000005_Node000017" class="edge">
<title>Node17&#45;&gt;Node5</title>
<g id="a_edge17_Node000005_Node000017"><a xlink:title=" ">
<path fill="none" stroke="#9a32cd" stroke-dasharray="5,2" d="M658.63,-399.06C669.25,-399.04 680.2,-399.01 690.5,-399 732.17,-398.94 743.34,-391.07 784.25,-399 792.72,-400.64 794.08,-403.49 802.25,-406.25 814.25,-410.31 827.72,-414.15 839.28,-417.23"/>
<polygon fill="#9a32cd" stroke="#9a32cd" points="658.78,-395.56 648.78,-399.09 658.79,-402.56 658.78,-395.56"/>
</a>
</g>
<text text-anchor="middle" x="737.38" y="-400" font-family="Helvetica,sans-Serif" font-size="10.00" fill="grey"> fENGCoefficients</text>
</g>
<!-- Node18 -->
<g id="Node000018" class="node">
<title>Node18</title>
<g id="a_Node000018"><a xlink:title=" ">
<polygon fill="white" stroke="#666666" points="443.5,-414.5 329.25,-414.5 329.25,-384 443.5,-384 443.5,-414.5"/>
<text text-anchor="start" x="337.25" y="-401" font-family="Helvetica,sans-Serif" font-size="10.00">std::vector&lt; std::vector</text>
<text text-anchor="middle" x="386.38" y="-389.75" font-family="Helvetica,sans-Serif" font-size="10.00">&lt; Float_t &gt; &gt;</text>
</a>
</g>
</g>
<!-- Node18&#45;&gt;Node17 -->
<g id="edge18_Node000017_Node000018" class="edge">
<title>Node18&#45;&gt;Node17</title>
<g id="a_edge18_Node000017_Node000018"><a xlink:title=" ">
<path fill="none" stroke="#9a32cd" stroke-dasharray="5,2" d="M455.24,-399.25C484.8,-399.25 518.82,-399.25 545.97,-399.25"/>
<polygon fill="#9a32cd" stroke="#9a32cd" points="455.24,-395.75 445.24,-399.25 455.24,-402.75 455.24,-395.75"/>
</a>
</g>
<text text-anchor="middle" x="482.12" y="-401" font-family="Helvetica,sans-Serif" font-size="10.00" fill="grey"> fValue</text>
</g>
<!-- Node19 -->
<g id="Node000019" class="node">
<title>Node19</title>
<g id="a_Node000019"><a xlink:title=" ">
<polygon fill="white" stroke="#666666" points="652.25,-360.12 541,-360.12 541,-318.38 652.25,-318.38 652.25,-360.12"/>
<text text-anchor="start" x="549" y="-346.62" font-family="Helvetica,sans-Serif" font-size="10.00">TPriorityValue&lt; std</text>
<text text-anchor="start" x="549" y="-335.38" font-family="Helvetica,sans-Serif" font-size="10.00">::vector&lt; std::pair</text>
<text text-anchor="middle" x="596.62" y="-324.12" font-family="Helvetica,sans-Serif" font-size="10.00">&lt; double, double &gt; &gt; &gt;</text>
</a>
</g>
</g>
<!-- Node19&#45;&gt;Node5 -->
<g id="edge19_Node000005_Node000019" class="edge">
<title>Node19&#45;&gt;Node5</title>
<g id="a_edge19_Node000005_Node000019"><a xlink:title=" ">
<path fill="none" stroke="#9a32cd" stroke-dasharray="5,2" d="M663.43,-341.73C701.47,-345.92 748.69,-356.07 784.25,-380 795.99,-387.9 790.73,-398.03 802.25,-406.25 813.14,-414.02 827.24,-418.44 839.54,-420.95"/>
<polygon fill="#9a32cd" stroke="#9a32cd" points="664.25,-338.29 653.95,-340.8 663.57,-345.26 664.25,-338.29"/>
</a>
</g>
<text text-anchor="middle" x="737.38" y="-381" font-family="Helvetica,sans-Serif" font-size="10.00" fill="grey"> fENGRanges</text>
</g>
<!-- Node20 -->
<g id="Node000020" class="node">
<title>Node20</title>
<g id="a_Node000020"><a xlink:title=" ">
<polygon fill="white" stroke="#666666" points="437.88,-354.5 334.88,-354.5 334.88,-324 437.88,-324 437.88,-354.5"/>
<text text-anchor="start" x="342.88" y="-341" font-family="Helvetica,sans-Serif" font-size="10.00">std::vector&lt; std::pair</text>
<text text-anchor="middle" x="386.38" y="-329.75" font-family="Helvetica,sans-Serif" font-size="10.00">&lt; double, double &gt; &gt;</text>
</a>
</g>
</g>
<!-- Node20&#45;&gt;Node19 -->
<g id="edge20_Node000019_Node000020" class="edge">
<title>Node20&#45;&gt;Node19</title>
<g id="a_edge20_Node000019_Node000020"><a xlink:title=" ">
<path fill="none" stroke="#9a32cd" stroke-dasharray="5,2" d="M449.57,-339.25C478.58,-339.25 512.81,-339.25 540.83,-339.25"/>
<polygon fill="#9a32cd" stroke="#9a32cd" points="449.83,-335.75 439.83,-339.25 449.83,-342.75 449.83,-335.75"/>
</a>
</g>
<text text-anchor="middle" x="482.12" y="-341" font-family="Helvetica,sans-Serif" font-size="10.00" fill="grey"> fValue</text>
</g>
<!-- Node21 -->
<g id="Node000021" class="node">
<title>Node21</title>
<g id="a_Node000021"><a xlink:title=" ">
<polygon fill="white" stroke="#666666" points="647,-300.5 546.25,-300.5 546.25,-270 647,-270 647,-300.5"/>
<text text-anchor="start" x="554.25" y="-287" font-family="Helvetica,sans-Serif" font-size="10.00">TPriorityValue&lt; std</text>
<text text-anchor="middle" x="596.62" y="-275.75" font-family="Helvetica,sans-Serif" font-size="10.00">::vector&lt; double &gt; &gt;</text>
</a>
</g>
</g>
<!-- Node21&#45;&gt;Node5 -->
<g id="edge21_Node000005_Node000021" class="edge">
<title>Node21&#45;&gt;Node5</title>
<g id="a_edge21_Node000005_Node000021"><a xlink:title=" ">
<path fill="none" stroke="#9a32cd" stroke-dasharray="5,2" d="M658.15,-272.65C705.39,-264.39 765.97,-257.79 784.25,-273.75 829.01,-312.84 763.15,-361.5 802.25,-406.25 811.43,-416.76 826.15,-421.39 839.27,-423.33"/>
<polygon fill="#9a32cd" stroke="#9a32cd" points="657.78,-269.16 648.56,-274.39 659.02,-276.05 657.78,-269.16"/>
</a>
</g>
<text text-anchor="middle" x="737.38" y="-332.25" font-family="Helvetica,sans-Serif" font-size="10.00" fill="grey"> fCFDCoefficients</text>
<text text-anchor="middle" x="737.38" y="-321" font-family="Helvetica,sans-Serif" font-size="10.00" fill="grey">fCTCoefficients</text>
<text text-anchor="middle" x="737.38" y="-309.75" font-family="Helvetica,sans-Serif" font-size="10.00" fill="grey">fEFFCoefficients</text>
<text text-anchor="middle" x="737.38" y="-298.5" font-family="Helvetica,sans-Serif" font-size="10.00" fill="grey">fENGChi2</text>
<text text-anchor="middle" x="737.38" y="-287.25" font-family="Helvetica,sans-Serif" font-size="10.00" fill="grey">fLEDCoefficients</text>
<text text-anchor="middle" x="737.38" y="-276" font-family="Helvetica,sans-Serif" font-size="10.00" fill="grey">fTIMECoefficients</text>
</g>
<!-- Node22 -->
<g id="Node000022" class="node">
<title>Node22</title>
<g id="a_Node000022"><a xlink:title=" ">
<polygon fill="white" stroke="#666666" points="439.38,-294.88 333.38,-294.88 333.38,-275.62 439.38,-275.62 439.38,-294.88"/>
<text text-anchor="middle" x="386.38" y="-281.38" font-family="Helvetica,sans-Serif" font-size="10.00">std::vector&lt; double &gt;</text>
</a>
</g>
</g>
<!-- Node22&#45;&gt;Node21 -->
<g id="edge22_Node000021_Node000022" class="edge">
<title>Node22&#45;&gt;Node21</title>
<g id="a_edge22_Node000021_Node000022"><a xlink:title=" ">
<path fill="none" stroke="#9a32cd" stroke-dasharray="5,2" d="M451.03,-285.25C481.49,-285.25 517.41,-285.25 545.83,-285.25"/>
<polygon fill="#9a32cd" stroke="#9a32cd" points="451.17,-281.75 441.17,-285.25 451.17,-288.75 451.17,-281.75"/>
</a>
</g>
<text text-anchor="middle" x="482.12" y="-287" font-family="Helvetica,sans-Serif" font-size="10.00" fill="grey"> fValue</text>
</g>
<!-- Node23 -->
<g id="Node000023" class="node">
<title>Node23</title>
<g id="a_Node000023"><a xlink:title=" ">
<polygon fill="white" stroke="#666666" points="647.75,-251.5 545.5,-251.5 545.5,-221 647.75,-221 647.75,-251.5"/>
<text text-anchor="start" x="553.5" y="-238" font-family="Helvetica,sans-Serif" font-size="10.00">TPriorityValue&lt; std</text>
<text text-anchor="middle" x="596.62" y="-226.75" font-family="Helvetica,sans-Serif" font-size="10.00">::vector&lt; Float_t &gt; &gt;</text>
</a>
</g>
</g>
<!-- Node23&#45;&gt;Node5 -->
<g id="edge23_Node000005_Node000023" class="edge">
<title>Node23&#45;&gt;Node5</title>
<g id="a_edge23_Node000005_Node000023"><a xlink:title=" ">
<path fill="none" stroke="#9a32cd" stroke-dasharray="5,2" d="M659.35,-222.15C700.13,-216.76 751.84,-218.04 784.25,-249 835.12,-297.59 756.53,-352.79 802.25,-406.25 811.4,-416.95 826.28,-421.57 839.51,-423.46"/>
<polygon fill="#9a32cd" stroke="#9a32cd" points="659.03,-218.66 649.66,-223.61 660.07,-225.58 659.03,-218.66"/>
</a>
</g>
<text text-anchor="middle" x="737.38" y="-251" font-family="Helvetica,sans-Serif" font-size="10.00" fill="grey"> fENGDriftCoefficents</text>
</g>
<!-- Node24 -->
<g id="Node000024" class="node">
<title>Node24</title>
<g id="a_Node000024"><a xlink:title=" ">
<polygon fill="white" stroke="#666666" points="440.12,-245.88 332.62,-245.88 332.62,-226.62 440.12,-226.62 440.12,-245.88"/>
<text text-anchor="middle" x="386.38" y="-232.38" font-family="Helvetica,sans-Serif" font-size="10.00">std::vector&lt; Float_t &gt;</text>
</a>
</g>
</g>
<!-- Node24&#45;&gt;Node23 -->
<g id="edge24_Node000023_Node000024" class="edge">
<title>Node24&#45;&gt;Node23</title>
<g id="a_edge24_Node000023_Node000024"><a xlink:title=" ">
<path fill="none" stroke="#9a32cd" stroke-dasharray="5,2" d="M451.71,-236.25C481.77,-236.25 517.04,-236.25 545.14,-236.25"/>
<polygon fill="#9a32cd" stroke="#9a32cd" points="451.98,-232.75 441.98,-236.25 451.98,-239.75 451.98,-232.75"/>
</a>
</g>
<text text-anchor="middle" x="482.12" y="-238" font-family="Helvetica,sans-Serif" font-size="10.00" fill="grey"> fValue</text>
</g>
<!-- Node25 -->
<g id="Node000025" class="node">
<title>Node25</title>
<g id="a_Node000025"><a xlink:href="class_t_priority_value.html" target="_top" xlink:title=" ">
<polygon fill="white" stroke="#666666" points="659.38,-202.88 533.88,-202.88 533.88,-183.62 659.38,-183.62 659.38,-202.88"/>
<text text-anchor="middle" x="596.62" y="-189.38" font-family="Helvetica,sans-Serif" font-size="10.00">TPriorityValue&lt; TGraph &gt;</text>
</a>
</g>
</g>
<!-- Node25&#45;&gt;Node5 -->
<g id="edge25_Node000005_Node000025" class="edge">
<title>Node25&#45;&gt;Node5</title>
<g id="a_edge25_Node000005_Node000025"><a xlink:title=" ">
<path fill="none" stroke="#9a32cd" stroke-dasharray="5,2" d="M645.18,-180.87C687.54,-172.98 748.25,-169.93 784.25,-205 816.41,-236.33 773.49,-371.77 802.25,-406.25 811.27,-417.06 826.14,-421.69 839.4,-423.56"/>
<polygon fill="#9a32cd" stroke="#9a32cd" points="644.61,-177.41 635.5,-182.83 646,-184.27 644.61,-177.41"/>
</a>
</g>
<text text-anchor="middle" x="737.38" y="-207" font-family="Helvetica,sans-Serif" font-size="10.00" fill="grey"> fEnergyNonlinearity</text>
</g>
<!-- Node26 -->
<g id="Node000026" class="node">
<title>Node26</title>
<g id="a_Node000026"><a xlink:href="struct_t_channel_1_1_wave_form_shape_par.html" target="_top" xlink:title=" ">
<polygon fill="white" stroke="#666666" points="672.5,-165.88 520.75,-165.88 520.75,-146.62 672.5,-146.62 672.5,-165.88"/>
<text text-anchor="middle" x="596.62" y="-152.38" font-family="Helvetica,sans-Serif" font-size="10.00">TChannel::WaveFormShapePar</text>
</a>
</g>
</g>
<!-- Node26&#45;&gt;Node5 -->
<g id="edge26_Node000005_Node000026" class="edge">
<title>Node26&#45;&gt;Node5</title>
<g id="a_edge26_Node000005_Node000026"><a xlink:title=" ">
<path fill="none" stroke="#9a32cd" stroke-dasharray="5,2" d="M684.05,-147.66C725.71,-145.6 769.74,-147.17 784.25,-161 823.8,-198.71 767.58,-364.01 802.25,-406.25 811.18,-417.13 826.05,-421.77 839.32,-423.62"/>
<polygon fill="#9a32cd" stroke="#9a32cd" points="683.97,-144.16 674.19,-148.23 684.37,-151.15 683.97,-144.16"/>
</a>
</g>
<text text-anchor="middle" x="737.38" y="-163" font-family="Helvetica,sans-Serif" font-size="10.00" fill="grey"> WaveFormShape</text>
</g>
<!-- Node27 -->
<g id="Node000027" class="node">
<title>Node27</title>
<g id="a_Node000027"><a xlink:title=" ">
<polygon fill="white" stroke="#666666" points="665,-128.5 528.25,-128.5 528.25,-98 665,-98 665,-128.5"/>
<text text-anchor="start" x="536.25" y="-115" font-family="Helvetica,sans-Serif" font-size="10.00">std::unordered_map</text>
<text text-anchor="middle" x="596.62" y="-103.75" font-family="Helvetica,sans-Serif" font-size="10.00">&lt; unsigned int, TChannel * &gt;</text>
</a>
</g>
</g>
<!-- Node27&#45;&gt;Node5 -->
<g id="edge27_Node000005_Node000027" class="edge">
<title>Node27&#45;&gt;Node5</title>
<g id="a_edge27_Node000005_Node000027"><a xlink:title=" ">
<path fill="none" stroke="#9a32cd" stroke-dasharray="5,2" d="M676.13,-99.73C713.97,-97.96 756.97,-103.76 784.25,-132 826.68,-175.93 763.69,-358.89 802.25,-406.25 811.14,-417.17 826,-421.8 839.29,-423.65"/>
<polygon fill="#9a32cd" stroke="#9a32cd" points="676.35,-96.21 666.6,-100.36 676.81,-103.2 676.35,-96.21"/>
</a>
</g>
<text text-anchor="middle" x="737.38" y="-134" font-family="Helvetica,sans-Serif" font-size="10.00" fill="grey"> fChannelMap</text>
</g>
<!-- Node28 -->
<g id="Node000028" class="node">
<title>Node28</title>
<g id="a_Node000028"><a xlink:title=" ">
<polygon fill="white" stroke="#666666" points="647,-79.5 546.25,-79.5 546.25,-49 647,-49 647,-79.5"/>
<text text-anchor="start" x="554.25" y="-66" font-family="Helvetica,sans-Serif" font-size="10.00">std::unordered_map</text>
<text text-anchor="middle" x="596.62" y="-54.75" font-family="Helvetica,sans-Serif" font-size="10.00">&lt; unsigned int, int &gt;</text>
</a>
</g>
</g>
<!-- Node28&#45;&gt;Node5 -->
<g id="edge28_Node000005_Node000028" class="edge">
<title>Node28&#45;&gt;Node5</title>
<g id="a_edge28_Node000005_Node000028"><a xlink:title=" ">
<path fill="none" stroke="#9a32cd" stroke-dasharray="5,2" d="M658.66,-52.74C700.11,-48.76 752.91,-51.89 784.25,-85 833.41,-136.92 757.37,-350.59 802.25,-406.25 811.16,-417.3 826.2,-421.93 839.58,-423.73"/>
<polygon fill="#9a32cd" stroke="#9a32cd" points="658.34,-49.26 648.8,-53.86 659.13,-56.21 658.34,-49.26"/>
</a>
</g>
<text text-anchor="middle" x="737.38" y="-87" font-family="Helvetica,sans-Serif" font-size="10.00" fill="grey"> fMissingChannelMap</text>
</g>
<!-- Node29 -->
<g id="Node000029" class="node">
<title>Node29</title>
<g id="a_Node000029"><a xlink:title=" ">
<polygon fill="white" stroke="#666666" points="647,-30.5 546.25,-30.5 546.25,0 647,0 647,-30.5"/>
<text text-anchor="start" x="554.25" y="-17" font-family="Helvetica,sans-Serif" font-size="10.00">std::unordered_map</text>
<text text-anchor="middle" x="596.62" y="-5.75" font-family="Helvetica,sans-Serif" font-size="10.00">&lt; int, TChannel * &gt;</text>
</a>
</g>
</g>
<!-- Node29&#45;&gt;Node5 -->
<g id="edge29_Node000005_Node000029" class="edge">
<title>Node29&#45;&gt;Node5</title>
<g id="a_edge29_Node000005_Node000029"><a xlink:title=" ">
<path fill="none" stroke="#9a32cd" stroke-dasharray="5,2" d="M658.78,-4.04C700.28,-0.27 753.1,-3.68 784.25,-37 812.3,-67.01 776.58,-374.18 802.25,-406.25 811.12,-417.33 826.15,-421.96 839.54,-423.76"/>
<polygon fill="#9a32cd" stroke="#9a32cd" points="658.46,-0.55 648.9,-5.11 659.22,-7.51 658.46,-0.55"/>
</a>
</g>
<text text-anchor="middle" x="737.38" y="-39" font-family="Helvetica,sans-Serif" font-size="10.00" fill="grey"> fChannelNumberMap</text>
</g>
<!-- Node30 -->
<g id="Node000030" class="node">
<title>Node30</title>
<g id="a_Node000030"><a xlink:href="class_t_transient_bits.html" target="_top" xlink:title=" ">
<polygon fill="white" stroke="#666666" points="934.5,-359.88 802.25,-359.88 802.25,-340.62 934.5,-340.62 934.5,-359.88"/>
<text text-anchor="middle" x="868.38" y="-346.38" font-family="Helvetica,sans-Serif" font-size="10.00">TTransientBits&lt; UChar_t &gt;</text>
</a>
</g>
</g>
<!-- Node30&#45;&gt;Node2 -->
<g id="edge31_Node000002_Node000030" class="edge">
<title>Node30&#45;&gt;Node2</title>
<g id="a_edge31_Node000002_Node000030"><a xlink:title=" ">
<path fill="none" stroke="#9a32cd" stroke-dasharray="5,2" d="M946.02,-354.59C964.96,-357.7 984.76,-362.78 1002,-371 1011.73,-375.64 1010.55,-382.07 1020,-387.25 1029.31,-392.35 1040.17,-396.09 1050.34,-398.79"/>
<polygon fill="#9a32cd" stroke="#9a32cd" points="946.57,-351.13 936.17,-353.15 945.56,-358.06 946.57,-351.13"/>
</a>
</g>
<text text-anchor="middle" x="977.25" y="-372" font-family="Helvetica,sans-Serif" font-size="10.00" fill="grey"> fBitFlags</text>
</g>
<!-- Node31 -->
<g id="Node000031" class="node">
<title>Node31</title>
<g id="a_Node000031"><a xlink:title=" ">
<polygon fill="white" stroke="#666666" points="1153,-377.88 1020,-377.88 1020,-358.62 1153,-358.62 1153,-377.88"/>
<text text-anchor="middle" x="1086.5" y="-364.38" font-family="Helvetica,sans-Serif" font-size="10.00">std::vector&lt; TDetectorHit &gt;</text>
</a>
</g>
</g>
<!-- Node31&#45;&gt;Node1 -->
<g id="edge32_Node000001_Node000031" class="edge">
<title>Node31&#45;&gt;Node1</title>
<g id="a_edge32_Node000001_Node000031"><a xlink:title=" ">
<path fill="none" stroke="#9a32cd" stroke-dasharray="5,2" d="M1164.48,-370.28C1182.86,-371.12 1202.4,-372.31 1220.5,-374 1226.23,-374.53 1232.31,-375.26 1238.19,-376.06"/>
<polygon fill="#9a32cd" stroke="#9a32cd" points="1164.86,-366.79 1154.72,-369.86 1164.56,-373.78 1164.86,-366.79"/>
</a>
</g>
<text text-anchor="middle" x="1195.75" y="-375" font-family="Helvetica,sans-Serif" font-size="10.00" fill="grey"> fSegments</text>
</g>
</g>
</svg>

<g id="navigator" transform="translate(0 0)" fill="#404254">
  <rect fill="#f2f5e9" fill-opacity="0.5" stroke="#606060" stroke-width=".5" x="0" y="0" width="60" height="60"/>
  <use id="zoomplus" xlink:href="#zoomPlus" x="17" y="9" onmousedown="handleZoom(evt,'in')"/>
  <use id="zoomminus" xlink:href="#zoomMin" x="42" y="9" onmousedown="handleZoom(evt,'out')"/>
  <use id="reset" xlink:href="#resetDef" x="30" y="36" onmousedown="handleReset()"/>
   <use id="arrowup" xlink:href="#arrowUp" x="0" y="0" onmousedown="handlePan(0,-1)"/>
  <use id="arrowright" xlink:href="#arrowRight" x="0" y="0" onmousedown="handlePan(1,0)"/>
  <use id="arrowdown" xlink:href="#arrowDown" x="0" y="0" onmousedown="handlePan(0,1)"/>
  <use id="arrowleft" xlink:href="#arrowLeft" x="0" y="0" onmousedown="handlePan(-1,0)"/>
</g>
<svg viewBox="0 0 15 15" width="100%" height="30px" preserveAspectRatio="xMaxYMin meet">
 <g id="arrow_out" transform="scale(0.3 0.3)">
  <a xlink:href="class_t_tigress_hit__coll__graph_org.svg" target="_base">
   <rect id="button" ry="5" rx="5" y="6" x="6" height="38" width="38"
        fill="#f2f5e9" fill-opacity="0.5" stroke="#606060" stroke-width="1.0"/>
   <path id="arrow"
     d="M 11.500037,31.436501 C 11.940474,20.09759 22.043105,11.32322 32.158766,21.979434 L 37.068811,17.246167 C 37.068811,17.246167 37.088388,32 37.088388,32 L 22.160133,31.978069 C 22.160133,31.978069 26.997745,27.140456 26.997745,27.140456 C 18.528582,18.264221 13.291696,25.230495 11.500037,31.436501 z"
     style="fill:#404040;"/>
  </a>
 </g>
</svg>

<style type='text/css'>
<![CDATA[
[data-mouse-over-selected='false'] { opacity: 0.7; }
[data-mouse-over-selected='true']  { opacity: 1.0; }
]]>
</style>
<script type="application/ecmascript"><![CDATA[
document.addEventListener('DOMContentLoaded', (event) => {
  highlightEdges();
  highlightAdjacentNodes();
});
]]></script>
</svg>
