<?xml version="1.0" encoding="UTF-8" standalone="no"?>
<!DOCTYPE svg PUBLIC "-//W3C//DTD SVG 1.1//EN"
 "http://www.w3.org/Graphics/SVG/1.1/DTD/svg11.dtd">
<!-- Generated by graphviz version 9.0.0 (20230911.1827)
 -->
<!-- Title: GCube Pages: 1 -->
<svg width="130pt" height="138pt"
 viewBox="0.00 0.00 130.38 137.75" xmlns="http://www.w3.org/2000/svg" xmlns:xlink="http://www.w3.org/1999/xlink">
<g id="graph0" class="graph" transform="scale(1 1) rotate(0) translate(4 133.75)">
<title>GCube</title>
<!-- Node1 -->
<g id="Node000001" class="node">
<title>Node1</title>
<g id="a_Node000001"><a xlink:title=" ">
<polygon fill="#999999" stroke="#666666" points="84.38,-74.5 38.38,-74.5 38.38,-55.25 84.38,-55.25 84.38,-74.5"/>
<text text-anchor="middle" x="61.38" y="-61" font-family="Helvetica,sans-Serif" font-size="10.00">GCube</text>
</a>
</g>
</g>
<!-- Node3 -->
<g id="Node000003" class="node">
<title>Node3</title>
<g id="a_Node000003"><a xlink:href="class_g_cube_d.html" target="_top" xlink:title=" ">
<polygon fill="white" stroke="#666666" points="52.75,-19.25 0,-19.25 0,0 52.75,0 52.75,-19.25"/>
<text text-anchor="middle" x="26.38" y="-5.75" font-family="Helvetica,sans-Serif" font-size="10.00">GCubeD</text>
</a>
</g>
</g>
<!-- Node1&#45;&gt;Node3 -->
<g id="edge2_Node000001_Node000003" class="edge">
<title>Node1&#45;&gt;Node3</title>
<g id="a_edge2_Node000001_Node000003"><a xlink:title=" ">
<path fill="none" stroke="#63b8ff" d="M49.4,-45.65C43.62,-36.86 36.95,-26.71 32.28,-19.61"/>
<polygon fill="#63b8ff" stroke="#63b8ff" points="46.35,-47.38 54.76,-53.82 52.2,-43.54 46.35,-47.38"/>
</a>
</g>
</g>
<!-- Node4 -->
<g id="Node000004" class="node">
<title>Node4</title>
<g id="a_Node000004"><a xlink:href="class_g_cube_f.html" target="_top" xlink:title=" ">
<polygon fill="white" stroke="#666666" points="122.38,-19.25 70.38,-19.25 70.38,0 122.38,0 122.38,-19.25"/>
<text text-anchor="middle" x="96.38" y="-5.75" font-family="Helvetica,sans-Serif" font-size="10.00">GCubeF</text>
</a>
</g>
</g>
<!-- Node1&#45;&gt;Node4 -->
<g id="edge3_Node000001_Node000004" class="edge">
<title>Node1&#45;&gt;Node4</title>
<g id="a_edge3_Node000001_Node000004"><a xlink:title=" ">
<path fill="none" stroke="#63b8ff" d="M73.35,-45.65C79.13,-36.86 85.8,-26.71 90.47,-19.61"/>
<polygon fill="#63b8ff" stroke="#63b8ff" points="70.55,-43.54 67.99,-53.82 76.4,-47.38 70.55,-43.54"/>
</a>
</g>
</g>
<!-- Node2 -->
<g id="Node000002" class="node">
<title>Node2</title>
<g id="a_Node000002"><a xlink:title=" ">
<polygon fill="white" stroke="#666666" points="78.75,-129.75 44,-129.75 44,-110.5 78.75,-110.5 78.75,-129.75"/>
<text text-anchor="middle" x="61.38" y="-116.25" font-family="Helvetica,sans-Serif" font-size="10.00">TH1</text>
</a>
</g>
</g>
<!-- Node2&#45;&gt;Node1 -->
<g id="edge1_Node000001_Node000002" class="edge">
<title>Node2&#45;&gt;Node1</title>
<g id="a_edge1_Node000001_Node000002"><a xlink:title=" ">
<path fill="none" stroke="#63b8ff" d="M61.38,-98.88C61.38,-90.59 61.38,-81.42 61.38,-74.86"/>
<polygon fill="#63b8ff" stroke="#63b8ff" points="57.88,-98.82 61.38,-108.82 64.88,-98.82 57.88,-98.82"/>
</a>
</g>
</g>
</g>
</svg>
