<?xml version="1.0" encoding="UTF-8" standalone="no"?>
<!DOCTYPE svg PUBLIC "-//W3C//DTD SVG 1.1//EN"
 "http://www.w3.org/Graphics/SVG/1.1/DTD/svg11.dtd">
<!-- Generated by graphviz version 9.0.0 (20230911.1827)
 -->
<!-- Title: TEventTime Pages: 1 -->
<svg width="275pt" height="174pt"
 viewBox="0.00 0.00 274.75 173.88" xmlns="http://www.w3.org/2000/svg" xmlns:xlink="http://www.w3.org/1999/xlink">
<g id="graph0" class="graph" transform="scale(1 1) rotate(0) translate(4 169.88)">
<title>TEventTime</title>
<!-- Node1 -->
<g id="Node000001" class="node">
<title>Node1</title>
<g id="a_Node000001"><a xlink:title=" ">
<polygon fill="#999999" stroke="#666666" points="266.75,-97.88 198.25,-97.88 198.25,-78.62 266.75,-78.62 266.75,-97.88"/>
<text text-anchor="middle" x="232.5" y="-84.38" font-family="Helvetica,sans-Serif" font-size="10.00">TEventTime</text>
</a>
</g>
</g>
<!-- Node2 -->
<g id="Node000002" class="node">
<title>Node2</title>
<g id="a_Node000002"><a xlink:title=" ">
<polygon fill="white" stroke="#666666" points="97,-165.88 1.5,-165.88 1.5,-146.62 97,-146.62 97,-165.88"/>
<text text-anchor="middle" x="49.25" y="-152.38" font-family="Helvetica,sans-Serif" font-size="10.00">std::map&lt; int, int &gt;</text>
</a>
</g>
</g>
<!-- Node2&#45;&gt;Node1 -->
<g id="edge1_Node000001_Node000002" class="edge">
<title>Node2&#45;&gt;Node1</title>
<g id="a_edge1_Node000001_Node000002"><a xlink:title=" ">
<path fill="none" stroke="#9a32cd" stroke-dasharray="5,2" d="M105.37,-143.35C128.91,-137.02 156.39,-128.54 180.25,-118.25 193.13,-112.7 206.79,-104.58 216.76,-98.19"/>
<polygon fill="#9a32cd" stroke="#9a32cd" points="104.77,-139.88 95.98,-145.8 106.55,-146.66 104.77,-139.88"/>
</a>
</g>
<text text-anchor="middle" x="148.38" y="-141" font-family="Helvetica,sans-Serif" font-size="10.00" fill="grey"> digmap</text>
</g>
<!-- Node3 -->
<g id="Node000003" class="node">
<title>Node3</title>
<g id="a_Node000003"><a xlink:title=" ">
<polygon fill="white" stroke="#666666" points="98.5,-128.5 0,-128.5 0,-98 98.5,-98 98.5,-128.5"/>
<text text-anchor="start" x="8" y="-115" font-family="Helvetica,sans-Serif" font-size="10.00">std::map&lt; uint32_t,</text>
<text text-anchor="middle" x="49.25" y="-103.75" font-family="Helvetica,sans-Serif" font-size="10.00"> int &gt;</text>
</a>
</g>
</g>
<!-- Node3&#45;&gt;Node1 -->
<g id="edge2_Node000001_Node000003" class="edge">
<title>Node3&#45;&gt;Node1</title>
<g id="a_edge2_Node000001_Node000003"><a xlink:title=" ">
<path fill="none" stroke="#9a32cd" stroke-dasharray="5,2" d="M110.17,-104.99C139.38,-100.96 173.42,-96.26 198,-92.87"/>
<polygon fill="#9a32cd" stroke="#9a32cd" points="109.75,-101.51 100.32,-106.34 110.71,-108.44 109.75,-101.51"/>
</a>
</g>
<text text-anchor="middle" x="148.38" y="-105" font-family="Helvetica,sans-Serif" font-size="10.00" fill="grey"> digmap</text>
</g>
<!-- Node4 -->
<g id="Node000004" class="node">
<title>Node4</title>
<g id="a_Node000004"><a xlink:title=" ">
<polygon fill="white" stroke="#666666" points="98.5,-79.5 0,-79.5 0,-49 98.5,-49 98.5,-79.5"/>
<text text-anchor="start" x="8" y="-66" font-family="Helvetica,sans-Serif" font-size="10.00">std::map&lt; uint32_t,</text>
<text text-anchor="middle" x="49.25" y="-54.75" font-family="Helvetica,sans-Serif" font-size="10.00"> bool &gt;</text>
</a>
</g>
</g>
<!-- Node4&#45;&gt;Node1 -->
<g id="edge3_Node000001_Node000004" class="edge">
<title>Node4&#45;&gt;Node1</title>
<g id="a_edge3_Node000001_Node000004"><a xlink:title=" ">
<path fill="none" stroke="#9a32cd" stroke-dasharray="5,2" d="M110.01,-70.99C132.1,-73.62 157.34,-76.77 180.25,-80 185.96,-80.81 192.02,-81.72 197.9,-82.65"/>
<polygon fill="#9a32cd" stroke="#9a32cd" points="110.61,-67.54 100.27,-69.85 109.8,-74.49 110.61,-67.54"/>
</a>
</g>
<text text-anchor="middle" x="148.38" y="-81" font-family="Helvetica,sans-Serif" font-size="10.00" fill="grey"> digset</text>
</g>
<!-- Node5 -->
<g id="Node000005" class="node">
<title>Node5</title>
<g id="a_Node000005"><a xlink:title=" ">
<polygon fill="white" stroke="#666666" points="98.5,-30.5 0,-30.5 0,0 98.5,0 98.5,-30.5"/>
<text text-anchor="start" x="8" y="-17" font-family="Helvetica,sans-Serif" font-size="10.00">std::map&lt; uint32_t,</text>
<text text-anchor="middle" x="49.25" y="-5.75" font-family="Helvetica,sans-Serif" font-size="10.00"> int64_t &gt;</text>
</a>
</g>
</g>
<!-- Node5&#45;&gt;Node1 -->
<g id="edge4_Node000001_Node000005" class="edge">
<title>Node5&#45;&gt;Node1</title>
<g id="a_edge4_Node000001_Node000005"><a xlink:title=" ">
<path fill="none" stroke="#9a32cd" stroke-dasharray="5,2" d="M109.71,-30.38C132.28,-37.03 157.92,-45.69 180.25,-56 193.61,-62.17 207.69,-71.24 217.7,-78.19"/>
<polygon fill="#9a32cd" stroke="#9a32cd" points="110.93,-27.09 100.36,-27.7 109,-33.82 110.93,-27.09"/>
</a>
</g>
<text text-anchor="middle" x="148.38" y="-57" font-family="Helvetica,sans-Serif" font-size="10.00" fill="grey"> correctionmap</text>
</g>
</g>
</svg>
