<?xml version="1.0" encoding="UTF-8" standalone="no"?>
<!DOCTYPE svg PUBLIC "-//W3C//DTD SVG 1.1//EN"
 "http://www.w3.org/Graphics/SVG/1.1/DTD/svg11.dtd">
<!-- Generated by graphviz version 12.2.0 (20241103.1931)
 -->
<!-- Title: DirectoryHelper Pages: 1 -->
<svg width="254pt" height="149pt"
 viewBox="0.00 0.00 253.50 149.00" xmlns="http://www.w3.org/2000/svg" xmlns:xlink="http://www.w3.org/1999/xlink">

<svg id="main" version="1.1" xmlns="http://www.w3.org/2000/svg" xmlns:xlink="http://www.w3.org/1999/xlink" xml:space="preserve">

<style type="text/css"><![CDATA[
.node, .edge {opacity: 0.7;}
.node.selected, .edge.selected {opacity: 1;}
.edge:hover path { stroke: red; }
.edge:hover polygon { stroke: red; fill: red; }
]]></style>
<script type="application/ecmascript" xlink:href="svg.min.js"/>
<svg id="graph" class="graph">
<g id="graph0" class="graph" transform="scale(1 1) rotate(0) translate(4 145)">
<title>DirectoryHelper</title>
<!-- Node1 -->
<g id="Node000001" class="node">
<title>Node1</title>
<g id="a_Node000001"><a xlink:title=" ">
<polygon fill="#999999" stroke="#666666" points="144.62,-19.25 61.88,-19.25 61.88,0 144.62,0 144.62,-19.25"/>
<text text-anchor="middle" x="103.25" y="-5.75" font-family="Helvetica,sans-Serif" font-size="10.00">DirectoryHelper</text>
</a>
</g>
</g>
<!-- Node2 -->
<g id="Node000002" class="node">
<title>Node2</title>
<g id="a_Node000002"><a xlink:href="class_t_g_r_s_i_helper.html" target="_top" xlink:title=" ">
<polygon fill="white" stroke="#666666" points="74.5,-80.12 0,-80.12 0,-60.88 74.5,-60.88 74.5,-80.12"/>
<text text-anchor="middle" x="37.25" y="-66.62" font-family="Helvetica,sans-Serif" font-size="10.00">TGRSIHelper</text>
</a>
</g>
</g>
<!-- Node2&#45;&gt;Node1 -->
<g id="edge1_Node000001_Node000002" class="edge">
<title>Node2&#45;&gt;Node1</title>
<g id="a_edge1_Node000001_Node000002"><a xlink:title=" ">
<path fill="none" stroke="#63b8ff" d="M55.75,-52.99C67.86,-42.2 83.21,-28.5 93.13,-19.65"/>
<polygon fill="#63b8ff" stroke="#63b8ff" points="53.54,-50.28 48.4,-59.55 58.2,-55.51 53.54,-50.28"/>
</a>
</g>
</g>
<!-- Node3 -->
<g id="Node000003" class="node">
<title>Node3</title>
<g id="a_Node000003"><a xlink:title=" ">
<polygon fill="white" stroke="#666666" points="62.5,-141 12,-141 12,-121.75 62.5,-121.75 62.5,-141"/>
<text text-anchor="middle" x="37.25" y="-127.5" font-family="Helvetica,sans-Serif" font-size="10.00">TObject</text>
</a>
</g>
</g>
<!-- Node3&#45;&gt;Node2 -->
<g id="edge2_Node000002_Node000003" class="edge">
<title>Node3&#45;&gt;Node2</title>
<g id="a_edge2_Node000002_Node000003"><a xlink:title=" ">
<path fill="none" stroke="#63b8ff" d="M37.25,-109.95C37.25,-99.92 37.25,-88.33 37.25,-80.53"/>
<polygon fill="#63b8ff" stroke="#63b8ff" points="33.75,-109.92 37.25,-119.92 40.75,-109.92 33.75,-109.92"/>
</a>
</g>
</g>
<!-- Node4 -->
<g id="Node000004" class="node">
<title>Node4</title>
<g id="a_Node000004"><a xlink:title=" ">
<polygon fill="white" stroke="#666666" points="245.5,-85.75 93,-85.75 93,-55.25 245.5,-55.25 245.5,-85.75"/>
<text text-anchor="start" x="101" y="-72.25" font-family="Helvetica,sans-Serif" font-size="10.00">ROOT::Detail::RDF::</text>
<text text-anchor="middle" x="169.25" y="-61" font-family="Helvetica,sans-Serif" font-size="10.00">RActionImpl&lt; DirectoryHelper &gt;</text>
</a>
</g>
</g>
<!-- Node4&#45;&gt;Node1 -->
<g id="edge3_Node000001_Node000004" class="edge">
<title>Node4&#45;&gt;Node1</title>
<g id="a_edge3_Node000001_Node000004"><a xlink:title=" ">
<path fill="none" stroke="#63b8ff" d="M144.64,-47.55C133.83,-37.9 121.73,-27.11 113.42,-19.7"/>
<polygon fill="#63b8ff" stroke="#63b8ff" points="142.01,-49.89 151.81,-53.94 146.67,-44.67 142.01,-49.89"/>
</a>
</g>
</g>
</g>
</svg>
</svg>

<style type='text/css'>
<![CDATA[
[data-mouse-over-selected='false'] { opacity: 0.7; }
[data-mouse-over-selected='true']  { opacity: 1.0; }
]]>
</style>
<script type="application/ecmascript"><![CDATA[
document.addEventListener('DOMContentLoaded', (event) => {
  highlightEdges();
  highlightAdjacentNodes();
});
]]></script>
</svg>
