<?xml version="1.0" encoding="UTF-8" standalone="no"?>
<!DOCTYPE svg PUBLIC "-//W3C//DTD SVG 1.1//EN"
 "http://www.w3.org/Graphics/SVG/1.1/DTD/svg11.dtd">
<!-- Generated by graphviz version 9.0.0 (20230911.1827)
 -->
<!-- Title: TEagle Pages: 1 -->
<svg width="278pt" height="160pt"
 viewBox="0.00 0.00 277.88 160.25" xmlns="http://www.w3.org/2000/svg" xmlns:xlink="http://www.w3.org/1999/xlink">

<svg id="main" version="1.1" xmlns="http://www.w3.org/2000/svg" xmlns:xlink="http://www.w3.org/1999/xlink" xml:space="preserve" onload="init(evt)">
<style type="text/css"><![CDATA[
.node, .edge {opacity: 0.7;}
.node.selected, .edge.selected {opacity: 1;}
.edge:hover path { stroke: red; }
.edge:hover polygon { stroke: red; fill: red; }
]]></style>
<script type="application/ecmascript" xlink:href="svg.min.js"/>
<svg id="graph" class="graph">
<g id="graph0" class="graph" transform="scale(1 1) rotate(0) translate(4 156.25)">
<title>TEagle</title>
<!-- Node1 -->
<g id="Node000001" class="node">
<title>Node1</title>
<g id="a_Node000001"><a xlink:title=" ">
<polygon fill="#999999" stroke="#666666" points="163.25,-19.25 117.25,-19.25 117.25,0 163.25,0 163.25,-19.25"/>
<text text-anchor="middle" x="140.25" y="-5.75" font-family="Helvetica,sans-Serif" font-size="10.00">TEagle</text>
</a>
</g>
</g>
<!-- Node2 -->
<g id="Node000002" class="node">
<title>Node2</title>
<g id="a_Node000002"><a xlink:href="class_t_detector.html" target="_top" xlink:title=" ">
<polygon fill="white" stroke="#666666" points="110.62,-85.75 51.88,-85.75 51.88,-66.5 110.62,-66.5 110.62,-85.75"/>
<text text-anchor="middle" x="81.25" y="-72.25" font-family="Helvetica,sans-Serif" font-size="10.00">TDetector</text>
</a>
</g>
</g>
<!-- Node2&#45;&gt;Node1 -->
<g id="edge1_Node000001_Node000002" class="edge">
<title>Node2&#45;&gt;Node1</title>
<g id="a_edge1_Node000001_Node000002"><a xlink:title=" ">
<path fill="none" stroke="#63b8ff" d="M96.94,-57.97C108.26,-45.6 123.08,-29.4 132.12,-19.52"/>
<polygon fill="#63b8ff" stroke="#63b8ff" points="94.64,-55.3 90.48,-65.04 99.81,-60.02 94.64,-55.3"/>
</a>
</g>
</g>
<!-- Node3 -->
<g id="Node000003" class="node">
<title>Node3</title>
<g id="a_Node000003"><a xlink:title=" ">
<polygon fill="white" stroke="#666666" points="50.5,-152.25 0,-152.25 0,-133 50.5,-133 50.5,-152.25"/>
<text text-anchor="middle" x="25.25" y="-138.75" font-family="Helvetica,sans-Serif" font-size="10.00">TObject</text>
</a>
</g>
</g>
<!-- Node3&#45;&gt;Node2 -->
<g id="edge2_Node000002_Node000003" class="edge">
<title>Node3&#45;&gt;Node2</title>
<g id="a_edge2_Node000002_Node000003"><a xlink:title=" ">
<path fill="none" stroke="#63b8ff" d="M40.46,-124.11C51.16,-111.78 65.03,-95.81 73.53,-86.02"/>
<polygon fill="#63b8ff" stroke="#63b8ff" points="37.94,-121.67 34.03,-131.51 43.23,-126.26 37.94,-121.67"/>
</a>
</g>
</g>
<!-- Node4 -->
<g id="Node000004" class="node">
<title>Node4</title>
<g id="a_Node000004"><a xlink:title=" ">
<polygon fill="white" stroke="#666666" points="207.75,-152.25 68.75,-152.25 68.75,-133 207.75,-133 207.75,-152.25"/>
<text text-anchor="middle" x="138.25" y="-138.75" font-family="Helvetica,sans-Serif" font-size="10.00">std::vector&lt; TDetectorHit * &gt;</text>
</a>
</g>
</g>
<!-- Node4&#45;&gt;Node2 -->
<g id="edge3_Node000002_Node000004" class="edge">
<title>Node4&#45;&gt;Node2</title>
<g id="a_edge3_Node000002_Node000004"><a xlink:title=" ">
<path fill="none" stroke="#9a32cd" stroke-dasharray="5,2" d="M122.77,-124.11C111.88,-111.78 97.76,-95.81 89.11,-86.02"/>
<polygon fill="#9a32cd" stroke="#9a32cd" points="120.08,-126.35 129.32,-131.52 125.32,-121.71 120.08,-126.35"/>
</a>
</g>
<text text-anchor="middle" x="124.88" y="-105.5" font-family="Helvetica,sans-Serif" font-size="10.00" fill="grey"> fHits</text>
</g>
<!-- Node5 -->
<g id="Node000005" class="node">
<title>Node5</title>
<g id="a_Node000005"><a xlink:title=" ">
<polygon fill="white" stroke="#666666" points="269.88,-85.75 128.62,-85.75 128.62,-66.5 269.88,-66.5 269.88,-85.75"/>
<text text-anchor="middle" x="199.25" y="-72.25" font-family="Helvetica,sans-Serif" font-size="10.00">std::vector&lt; TPinDiodeHit * &gt;</text>
</a>
</g>
</g>
<!-- Node5&#45;&gt;Node1 -->
<g id="edge4_Node000001_Node000005" class="edge">
<title>Node5&#45;&gt;Node1</title>
<g id="a_edge4_Node000001_Node000005"><a xlink:title=" ">
<path fill="none" stroke="#9a32cd" stroke-dasharray="5,2" d="M183.56,-57.97C172.24,-45.6 157.42,-29.4 148.38,-19.52"/>
<polygon fill="#9a32cd" stroke="#9a32cd" points="180.69,-60.02 190.02,-65.04 185.86,-55.3 180.69,-60.02"/>
</a>
</g>
<text text-anchor="middle" x="204.38" y="-39" font-family="Helvetica,sans-Serif" font-size="10.00" fill="grey"> fPinDiodeHits</text>
</g>
</g>
</svg>
</svg>

<style type='text/css'>
<![CDATA[
[data-mouse-over-selected='false'] { opacity: 0.7; }
[data-mouse-over-selected='true']  { opacity: 1.0; }
]]>
</style>
<script type="application/ecmascript"><![CDATA[
document.addEventListener('DOMContentLoaded', (event) => {
  highlightEdges();
  highlightAdjacentNodes();
});
]]></script>
</svg>
