<?xml version="1.0" encoding="UTF-8" standalone="no"?>
<!DOCTYPE svg PUBLIC "-//W3C//DTD SVG 1.1//EN"
 "http://www.w3.org/Graphics/SVG/1.1/DTD/svg11.dtd">
<!-- Generated by graphviz version 9.0.0 (20230911.1827)
 -->
<!-- Title: GRootBrowser Pages: 1 -->
<svg width="178pt" height="83pt"
 viewBox="0.00 0.00 178.38 82.50" xmlns="http://www.w3.org/2000/svg" xmlns:xlink="http://www.w3.org/1999/xlink">
<g id="graph0" class="graph" transform="scale(1 1) rotate(0) translate(4 78.5)">
<title>GRootBrowser</title>
<!-- Node1 -->
<g id="Node000001" class="node">
<title>Node1</title>
<g id="a_Node000001"><a xlink:title=" ">
<polygon fill="#999999" stroke="#666666" points="126,-19.25 46.25,-19.25 46.25,0 126,0 126,-19.25"/>
<text text-anchor="middle" x="86.12" y="-5.75" font-family="Helvetica,sans-Serif" font-size="10.00">GRootBrowser</text>
</a>
</g>
</g>
<!-- Node2 -->
<g id="Node000002" class="node">
<title>Node2</title>
<g id="a_Node000002"><a xlink:title=" ">
<polygon fill="white" stroke="#666666" points="78.25,-74.5 0,-74.5 0,-55.25 78.25,-55.25 78.25,-74.5"/>
<text text-anchor="middle" x="39.12" y="-61" font-family="Helvetica,sans-Serif" font-size="10.00">TGMainFrame</text>
</a>
</g>
</g>
<!-- Node2&#45;&gt;Node1 -->
<g id="edge1_Node000001_Node000002" class="edge">
<title>Node2&#45;&gt;Node1</title>
<g id="a_edge1_Node000001_Node000002"><a xlink:title=" ">
<path fill="none" stroke="#63b8ff" d="M54.45,-46.51C62.38,-37.53 71.72,-26.95 78.2,-19.61"/>
<polygon fill="#63b8ff" stroke="#63b8ff" points="51.88,-44.13 47.89,-53.95 57.13,-48.77 51.88,-44.13"/>
</a>
</g>
</g>
<!-- Node3 -->
<g id="Node000003" class="node">
<title>Node3</title>
<g id="a_Node000003"><a xlink:title=" ">
<polygon fill="white" stroke="#666666" points="170.38,-74.5 95.88,-74.5 95.88,-55.25 170.38,-55.25 170.38,-74.5"/>
<text text-anchor="middle" x="133.12" y="-61" font-family="Helvetica,sans-Serif" font-size="10.00">TBrowserImp</text>
</a>
</g>
</g>
<!-- Node3&#45;&gt;Node1 -->
<g id="edge2_Node000001_Node000003" class="edge">
<title>Node3&#45;&gt;Node1</title>
<g id="a_edge2_Node000001_Node000003"><a xlink:title=" ">
<path fill="none" stroke="#63b8ff" d="M117.8,-46.51C109.87,-37.53 100.53,-26.95 94.05,-19.61"/>
<polygon fill="#63b8ff" stroke="#63b8ff" points="115.12,-48.77 124.36,-53.95 120.37,-44.13 115.12,-48.77"/>
</a>
</g>
</g>
</g>
</svg>
