<?xml version="1.0" encoding="UTF-8" standalone="no"?>
<!DOCTYPE svg PUBLIC "-//W3C//DTD SVG 1.1//EN"
 "http://www.w3.org/Graphics/SVG/1.1/DTD/svg11.dtd">
<!-- Generated by graphviz version 9.0.0 (20230911.1827)
 -->
<!-- Title: TBgoHit Pages: 1 -->
<svg width="469pt" height="193pt"
 viewBox="0.00 0.00 468.50 193.00" xmlns="http://www.w3.org/2000/svg" xmlns:xlink="http://www.w3.org/1999/xlink">

<svg id="main" version="1.1" xmlns="http://www.w3.org/2000/svg" xmlns:xlink="http://www.w3.org/1999/xlink" xml:space="preserve" onload="init(evt)">
<style type="text/css"><![CDATA[
.node, .edge {opacity: 0.7;}
.node.selected, .edge.selected {opacity: 1;}
.edge:hover path { stroke: red; }
.edge:hover polygon { stroke: red; fill: red; }
]]></style>
<script type="application/ecmascript" xlink:href="svg.min.js"/>
<svg id="graph" class="graph">
<g id="graph0" class="graph" transform="scale(1 1) rotate(0) translate(4 189)">
<title>TBgoHit</title>
<!-- Node1 -->
<g id="Node000001" class="node">
<title>Node1</title>
<g id="a_Node000001"><a xlink:title=" ">
<polygon fill="#999999" stroke="#666666" points="274,-74.5 222,-74.5 222,-55.25 274,-55.25 274,-74.5"/>
<text text-anchor="middle" x="248" y="-61" font-family="Helvetica,sans-Serif" font-size="10.00">TBgoHit</text>
</a>
</g>
</g>
<!-- Node4 -->
<g id="Node000004" class="node">
<title>Node4</title>
<g id="a_Node000004"><a xlink:href="class_t_fipps_bgo_hit.html" target="_top" xlink:title=" ">
<polygon fill="white" stroke="#666666" points="76,-19.25 0,-19.25 0,0 76,0 76,-19.25"/>
<text text-anchor="middle" x="38" y="-5.75" font-family="Helvetica,sans-Serif" font-size="10.00">TFippsBgoHit</text>
</a>
</g>
</g>
<!-- Node1&#45;&gt;Node4 -->
<g id="edge3_Node000001_Node000004" class="edge">
<title>Node1&#45;&gt;Node4</title>
<g id="a_edge3_Node000001_Node000004"><a xlink:title=" ">
<path fill="none" stroke="#63b8ff" d="M211.03,-54.5C172.3,-44.68 111.87,-29.36 73.64,-19.66"/>
<polygon fill="#63b8ff" stroke="#63b8ff" points="209.81,-57.8 220.36,-56.87 211.53,-51.02 209.81,-57.8"/>
</a>
</g>
</g>
<!-- Node5 -->
<g id="Node000005" class="node">
<title>Node5</title>
<g id="a_Node000005"><a xlink:href="class_t_fipps_la_br_bgo_hit.html" target="_top" xlink:title=" ">
<polygon fill="white" stroke="#666666" points="191.5,-19.25 94.5,-19.25 94.5,0 191.5,0 191.5,-19.25"/>
<text text-anchor="middle" x="143" y="-5.75" font-family="Helvetica,sans-Serif" font-size="10.00">TFippsLaBrBgoHit</text>
</a>
</g>
</g>
<!-- Node1&#45;&gt;Node5 -->
<g id="edge4_Node000001_Node000005" class="edge">
<title>Node1&#45;&gt;Node5</title>
<g id="a_edge4_Node000001_Node000005"><a xlink:title=" ">
<path fill="none" stroke="#63b8ff" d="M220.13,-49.74C201.36,-40.22 177.14,-27.94 160.9,-19.7"/>
<polygon fill="#63b8ff" stroke="#63b8ff" points="218.34,-52.76 228.84,-54.16 221.5,-46.51 218.34,-52.76"/>
</a>
</g>
</g>
<!-- Node6 -->
<g id="Node000006" class="node">
<title>Node6</title>
<g id="a_Node000006"><a xlink:href="class_t_griffin_bgo_hit.html" target="_top" xlink:title=" ">
<polygon fill="white" stroke="#666666" points="286.38,-19.25 209.62,-19.25 209.62,0 286.38,0 286.38,-19.25"/>
<text text-anchor="middle" x="248" y="-5.75" font-family="Helvetica,sans-Serif" font-size="10.00">TGriffinBgoHit</text>
</a>
</g>
</g>
<!-- Node1&#45;&gt;Node6 -->
<g id="edge5_Node000001_Node000006" class="edge">
<title>Node1&#45;&gt;Node6</title>
<g id="a_edge5_Node000001_Node000006"><a xlink:title=" ">
<path fill="none" stroke="#63b8ff" d="M248,-43.63C248,-35.34 248,-26.17 248,-19.61"/>
<polygon fill="#63b8ff" stroke="#63b8ff" points="244.5,-43.57 248,-53.57 251.5,-43.57 244.5,-43.57"/>
</a>
</g>
</g>
<!-- Node7 -->
<g id="Node000007" class="node">
<title>Node7</title>
<g id="a_Node000007"><a xlink:href="class_t_ifin_bgo_hit.html" target="_top" xlink:title=" ">
<polygon fill="white" stroke="#666666" points="369.38,-19.25 304.62,-19.25 304.62,0 369.38,0 369.38,-19.25"/>
<text text-anchor="middle" x="337" y="-5.75" font-family="Helvetica,sans-Serif" font-size="10.00">TIfinBgoHit</text>
</a>
</g>
</g>
<!-- Node1&#45;&gt;Node7 -->
<g id="edge6_Node000001_Node000007" class="edge">
<title>Node1&#45;&gt;Node7</title>
<g id="a_edge6_Node000001_Node000007"><a xlink:title=" ">
<path fill="none" stroke="#63b8ff" d="M272.74,-49.07C288.49,-39.65 308.38,-27.75 321.83,-19.7"/>
<polygon fill="#63b8ff" stroke="#63b8ff" points="271.18,-45.93 264.4,-54.06 274.77,-51.93 271.18,-45.93"/>
</a>
</g>
</g>
<!-- Node8 -->
<g id="Node000008" class="node">
<title>Node8</title>
<g id="a_Node000008"><a xlink:href="class_t_la_br_bgo_hit.html" target="_top" xlink:title=" ">
<polygon fill="white" stroke="#666666" points="460.5,-19.25 387.5,-19.25 387.5,0 460.5,0 460.5,-19.25"/>
<text text-anchor="middle" x="424" y="-5.75" font-family="Helvetica,sans-Serif" font-size="10.00">TLaBrBgoHit</text>
</a>
</g>
</g>
<!-- Node1&#45;&gt;Node8 -->
<g id="edge7_Node000001_Node000008" class="edge">
<title>Node1&#45;&gt;Node8</title>
<g id="a_edge7_Node000001_Node000008"><a xlink:title=" ">
<path fill="none" stroke="#63b8ff" d="M285.16,-52.63C317.53,-42.84 363.85,-28.82 393.93,-19.72"/>
<polygon fill="#63b8ff" stroke="#63b8ff" points="284.36,-49.22 275.8,-55.46 286.38,-55.92 284.36,-49.22"/>
</a>
</g>
</g>
<!-- Node2 -->
<g id="Node000002" class="node">
<title>Node2</title>
<g id="a_Node000002"><a xlink:href="class_t_detector_hit.html" target="_top" xlink:title=" ">
<polygon fill="white" stroke="#666666" points="283.75,-129.75 212.25,-129.75 212.25,-110.5 283.75,-110.5 283.75,-129.75"/>
<text text-anchor="middle" x="248" y="-116.25" font-family="Helvetica,sans-Serif" font-size="10.00">TDetectorHit</text>
</a>
</g>
</g>
<!-- Node2&#45;&gt;Node1 -->
<g id="edge1_Node000001_Node000002" class="edge">
<title>Node2&#45;&gt;Node1</title>
<g id="a_edge1_Node000001_Node000002"><a xlink:title=" ">
<path fill="none" stroke="#63b8ff" d="M248,-98.88C248,-90.59 248,-81.42 248,-74.86"/>
<polygon fill="#63b8ff" stroke="#63b8ff" points="244.5,-98.82 248,-108.82 251.5,-98.82 244.5,-98.82"/>
</a>
</g>
</g>
<!-- Node3 -->
<g id="Node000003" class="node">
<title>Node3</title>
<g id="a_Node000003"><a xlink:title=" ">
<polygon fill="white" stroke="#666666" points="273.25,-185 222.75,-185 222.75,-165.75 273.25,-165.75 273.25,-185"/>
<text text-anchor="middle" x="248" y="-171.5" font-family="Helvetica,sans-Serif" font-size="10.00">TObject</text>
</a>
</g>
</g>
<!-- Node3&#45;&gt;Node2 -->
<g id="edge2_Node000002_Node000003" class="edge">
<title>Node3&#45;&gt;Node2</title>
<g id="a_edge2_Node000002_Node000003"><a xlink:title=" ">
<path fill="none" stroke="#63b8ff" d="M248,-154.13C248,-145.84 248,-136.67 248,-130.11"/>
<polygon fill="#63b8ff" stroke="#63b8ff" points="244.5,-154.07 248,-164.07 251.5,-154.07 244.5,-154.07"/>
</a>
</g>
</g>
</g>
</svg>
</svg>

<style type='text/css'>
<![CDATA[
[data-mouse-over-selected='false'] { opacity: 0.7; }
[data-mouse-over-selected='true']  { opacity: 1.0; }
]]>
</style>
<script type="application/ecmascript"><![CDATA[
document.addEventListener('DOMContentLoaded', (event) => {
  highlightEdges();
  highlightAdjacentNodes();
});
]]></script>
</svg>
