<?xml version="1.0" encoding="UTF-8" standalone="no"?>
<!DOCTYPE svg PUBLIC "-//W3C//DTD SVG 1.1//EN"
 "http://www.w3.org/Graphics/SVG/1.1/DTD/svg11.dtd">
<!-- Generated by graphviz version 9.0.0 (20230911.1827)
 -->
<!-- Title: TSourceCalibration Pages: 1 -->
<svg width="361pt" height="359pt"
 viewBox="0.00 0.00 361.00 359.25" xmlns="http://www.w3.org/2000/svg" xmlns:xlink="http://www.w3.org/1999/xlink">

<svg id="main" version="1.1" xmlns="http://www.w3.org/2000/svg" xmlns:xlink="http://www.w3.org/1999/xlink" xml:space="preserve" onload="init(evt)">
<style type="text/css"><![CDATA[
.node, .edge {opacity: 0.7;}
.node.selected, .edge.selected {opacity: 1;}
.edge:hover path { stroke: red; }
.edge:hover polygon { stroke: red; fill: red; }
]]></style>
<script type="application/ecmascript" xlink:href="svg.min.js"/>
<svg id="graph" class="graph">
<g id="graph0" class="graph" transform="scale(1 1) rotate(0) translate(4 355.25)">
<title>TSourceCalibration</title>
<!-- Node1 -->
<g id="Node000001" class="node">
<title>Node1</title>
<g id="a_Node000001"><a xlink:title=" ">
<polygon fill="#999999" stroke="#666666" points="353,-203.25 254.5,-203.25 254.5,-184 353,-184 353,-203.25"/>
<text text-anchor="middle" x="303.75" y="-189.75" font-family="Helvetica,sans-Serif" font-size="10.00">TSourceCalibration</text>
</a>
</g>
</g>
<!-- Node2 -->
<g id="Node000002" class="node">
<title>Node2</title>
<g id="a_Node000002"><a xlink:title=" ">
<polygon fill="white" stroke="#666666" points="111.25,-351.25 33,-351.25 33,-332 111.25,-332 111.25,-351.25"/>
<text text-anchor="middle" x="72.12" y="-337.75" font-family="Helvetica,sans-Serif" font-size="10.00">TGMainFrame</text>
</a>
</g>
</g>
<!-- Node2&#45;&gt;Node1 -->
<g id="edge1_Node000001_Node000002" class="edge">
<title>Node2&#45;&gt;Node1</title>
<g id="a_edge1_Node000001_Node000002"><a xlink:title=" ">
<path fill="none" stroke="#63b8ff" d="M123,-342.8C157.76,-341.24 203.6,-334.19 236.5,-310.62 274.64,-283.3 293.73,-226.76 300.17,-203.72"/>
<polygon fill="#63b8ff" stroke="#63b8ff" points="123.08,-339.3 113.19,-343.09 123.29,-346.29 123.08,-339.3"/>
</a>
</g>
</g>
<!-- Node3 -->
<g id="Node000003" class="node">
<title>Node3</title>
<g id="a_Node000003"><a xlink:title=" ">
<polygon fill="white" stroke="#666666" points="142.75,-314.25 1.5,-314.25 1.5,-295 142.75,-295 142.75,-314.25"/>
<text text-anchor="middle" x="72.12" y="-300.75" font-family="Helvetica,sans-Serif" font-size="10.00">std::vector&lt; TChannelTab * &gt;</text>
</a>
</g>
</g>
<!-- Node3&#45;&gt;Node1 -->
<g id="edge2_Node000001_Node000003" class="edge">
<title>Node3&#45;&gt;Node1</title>
<g id="a_edge2_Node000001_Node000003"><a xlink:title=" ">
<path fill="none" stroke="#9a32cd" stroke-dasharray="5,2" d="M154.28,-297.71C181.79,-292.72 211.79,-284.18 236.5,-269.62 264.7,-253.01 287.05,-220.12 297.05,-203.59"/>
<polygon fill="#9a32cd" stroke="#9a32cd" points="153.86,-294.23 144.57,-299.33 155.01,-301.14 153.86,-294.23"/>
</a>
</g>
<text text-anchor="middle" x="199.38" y="-297.38" font-family="Helvetica,sans-Serif" font-size="10.00" fill="grey"> fChannelTab</text>
</g>
<!-- Node4 -->
<g id="Node000004" class="node">
<title>Node4</title>
<g id="a_Node000004"><a xlink:title=" ">
<polygon fill="white" stroke="#666666" points="132.62,-277.25 11.62,-277.25 11.62,-258 132.62,-258 132.62,-277.25"/>
<text text-anchor="middle" x="72.12" y="-263.75" font-family="Helvetica,sans-Serif" font-size="10.00">std::vector&lt; TGLabel * &gt;</text>
</a>
</g>
</g>
<!-- Node4&#45;&gt;Node1 -->
<g id="edge3_Node000001_Node000004" class="edge">
<title>Node4&#45;&gt;Node1</title>
<g id="a_edge3_Node000001_Node000004"><a xlink:title=" ">
<path fill="none" stroke="#9a32cd" stroke-dasharray="5,2" d="M143.8,-258.97C173.16,-253.94 207.15,-246.24 236.5,-234.62 256.37,-226.76 276.95,-212.99 289.79,-203.59"/>
<polygon fill="#9a32cd" stroke="#9a32cd" points="143.6,-255.45 134.29,-260.52 144.72,-262.36 143.6,-255.45"/>
</a>
</g>
<text text-anchor="middle" x="199.38" y="-256.38" font-family="Helvetica,sans-Serif" font-size="10.00" fill="grey"> fMatrixNames</text>
</g>
<!-- Node5 -->
<g id="Node000005" class="node">
<title>Node5</title>
<g id="a_Node000005"><a xlink:title=" ">
<polygon fill="white" stroke="#666666" points="144.25,-240.25 0,-240.25 0,-221 144.25,-221 144.25,-240.25"/>
<text text-anchor="middle" x="72.12" y="-226.75" font-family="Helvetica,sans-Serif" font-size="10.00">std::vector&lt; TGComboBox * &gt;</text>
</a>
</g>
</g>
<!-- Node5&#45;&gt;Node1 -->
<g id="edge4_Node000001_Node000005" class="edge">
<title>Node5&#45;&gt;Node1</title>
<g id="a_edge4_Node000001_Node000005"><a xlink:title=" ">
<path fill="none" stroke="#9a32cd" stroke-dasharray="5,2" d="M155.81,-220.94C181.72,-217.52 210.37,-213.33 236.5,-208.62 244.39,-207.2 252.77,-205.48 260.81,-203.71"/>
<polygon fill="#9a32cd" stroke="#9a32cd" points="155.48,-217.45 146.01,-222.21 156.38,-224.4 155.48,-217.45"/>
</a>
</g>
<text text-anchor="middle" x="199.38" y="-221.38" font-family="Helvetica,sans-Serif" font-size="10.00" fill="grey"> fSourceBox</text>
</g>
<!-- Node6 -->
<g id="Node000006" class="node">
<title>Node6</title>
<g id="a_Node000006"><a xlink:title=" ">
<polygon fill="white" stroke="#666666" points="134.88,-203.25 9.38,-203.25 9.38,-184 134.88,-184 134.88,-203.25"/>
<text text-anchor="middle" x="72.12" y="-189.75" font-family="Helvetica,sans-Serif" font-size="10.00">std::vector&lt; TNucleus * &gt;</text>
</a>
</g>
</g>
<!-- Node6&#45;&gt;Node1 -->
<g id="edge5_Node000001_Node000006" class="edge">
<title>Node6&#45;&gt;Node1</title>
<g id="a_edge5_Node000001_Node000006"><a xlink:title=" ">
<path fill="none" stroke="#9a32cd" stroke-dasharray="5,2" d="M146.45,-193.62C181.61,-193.62 222.77,-193.62 254.03,-193.62"/>
<polygon fill="#9a32cd" stroke="#9a32cd" points="146.78,-190.13 136.78,-193.63 146.78,-197.13 146.78,-190.13"/>
</a>
</g>
<text text-anchor="middle" x="199.38" y="-195.38" font-family="Helvetica,sans-Serif" font-size="10.00" fill="grey"> fSource</text>
</g>
<!-- Node7 -->
<g id="Node000007" class="node">
<title>Node7</title>
<g id="a_Node000007"><a xlink:title=" ">
<polygon fill="white" stroke="#666666" points="140.5,-165.5 3.75,-165.5 3.75,-123.75 140.5,-123.75 140.5,-165.5"/>
<text text-anchor="start" x="11.75" y="-152" font-family="Helvetica,sans-Serif" font-size="10.00">std::vector&lt; std::vector</text>
<text text-anchor="start" x="11.75" y="-140.75" font-family="Helvetica,sans-Serif" font-size="10.00">&lt; std::tuple&lt; double, double,</text>
<text text-anchor="middle" x="72.12" y="-129.5" font-family="Helvetica,sans-Serif" font-size="10.00"> double, double &gt; &gt; &gt;</text>
</a>
</g>
</g>
<!-- Node7&#45;&gt;Node1 -->
<g id="edge6_Node000001_Node000007" class="edge">
<title>Node7&#45;&gt;Node1</title>
<g id="a_edge6_Node000001_Node000007"><a xlink:title=" ">
<path fill="none" stroke="#9a32cd" stroke-dasharray="5,2" d="M151.68,-160.48C178.6,-166.01 208.89,-172.35 236.5,-178.38 244,-180.01 251.96,-181.8 259.66,-183.56"/>
<polygon fill="#9a32cd" stroke="#9a32cd" points="152.74,-157.12 142.24,-158.55 151.34,-163.98 152.74,-157.12"/>
</a>
</g>
<text text-anchor="middle" x="199.38" y="-179.38" font-family="Helvetica,sans-Serif" font-size="10.00" fill="grey"> fSourceEnergy</text>
</g>
<!-- Node8 -->
<g id="Node000008" class="node">
<title>Node8</title>
<g id="a_Node000008"><a xlink:title=" ">
<polygon fill="white" stroke="#666666" points="116.12,-105.25 28.12,-105.25 28.12,-86 116.12,-86 116.12,-105.25"/>
<text text-anchor="middle" x="72.12" y="-91.75" font-family="Helvetica,sans-Serif" font-size="10.00">std::vector&lt; int &gt;</text>
</a>
</g>
</g>
<!-- Node8&#45;&gt;Node1 -->
<g id="edge7_Node000001_Node000008" class="edge">
<title>Node8&#45;&gt;Node1</title>
<g id="a_edge7_Node000001_Node000008"><a xlink:title=" ">
<path fill="none" stroke="#9a32cd" stroke-dasharray="5,2" d="M127.6,-102.54C160.51,-108.29 202.51,-118.48 236.5,-136.12 260.29,-148.48 282.68,-171.02 294.35,-183.91"/>
<polygon fill="#9a32cd" stroke="#9a32cd" points="128.3,-99.11 117.87,-100.93 127.16,-106.01 128.3,-99.11"/>
</a>
</g>
<text text-anchor="middle" x="199.38" y="-148.62" font-family="Helvetica,sans-Serif" font-size="10.00" fill="grey"> fActiveBins</text>
<text text-anchor="middle" x="199.38" y="-137.38" font-family="Helvetica,sans-Serif" font-size="10.00" fill="grey">fActualChannelId</text>
</g>
<!-- Node9 -->
<g id="Node000009" class="node">
<title>Node9</title>
<g id="a_Node000009"><a xlink:title=" ">
<polygon fill="white" stroke="#666666" points="118.75,-67.88 25.5,-67.88 25.5,-37.38 118.75,-37.38 118.75,-67.88"/>
<text text-anchor="start" x="33.5" y="-54.38" font-family="Helvetica,sans-Serif" font-size="10.00">std::vector&lt; const</text>
<text text-anchor="middle" x="72.12" y="-43.12" font-family="Helvetica,sans-Serif" font-size="10.00"> char * &gt;</text>
</a>
</g>
</g>
<!-- Node9&#45;&gt;Node1 -->
<g id="edge8_Node000001_Node000009" class="edge">
<title>Node9&#45;&gt;Node1</title>
<g id="a_edge8_Node000001_Node000009"><a xlink:title=" ">
<path fill="none" stroke="#9a32cd" stroke-dasharray="5,2" d="M130.12,-56.99C163.62,-61.91 205.38,-72.33 236.5,-94.38 269.64,-117.84 290.87,-163.55 299,-183.69"/>
<polygon fill="#9a32cd" stroke="#9a32cd" points="130.97,-53.58 120.6,-55.73 130.05,-60.52 130.97,-53.58"/>
</a>
</g>
<text text-anchor="middle" x="199.38" y="-95.38" font-family="Helvetica,sans-Serif" font-size="10.00" fill="grey"> fChannelLabel</text>
</g>
<!-- Node10 -->
<g id="Node000010" class="node">
<title>Node10</title>
<g id="a_Node000010"><a xlink:title=" ">
<polygon fill="white" stroke="#666666" points="123.25,-19.25 21,-19.25 21,0 123.25,0 123.25,-19.25"/>
<text text-anchor="middle" x="72.12" y="-5.75" font-family="Helvetica,sans-Serif" font-size="10.00">std::vector&lt; TH2 * &gt;</text>
</a>
</g>
</g>
<!-- Node10&#45;&gt;Node1 -->
<g id="edge9_Node000001_Node000010" class="edge">
<title>Node10&#45;&gt;Node1</title>
<g id="a_edge9_Node000001_Node000010"><a xlink:title=" ">
<path fill="none" stroke="#9a32cd" stroke-dasharray="5,2" d="M134.59,-11.39C167.96,-15.27 208.07,-25.01 236.5,-48.38 280.83,-84.8 296.78,-157.29 301.27,-183.7"/>
<polygon fill="#9a32cd" stroke="#9a32cd" points="135.37,-7.95 125.07,-10.44 134.67,-14.92 135.37,-7.95"/>
</a>
</g>
<text text-anchor="middle" x="199.38" y="-49.38" font-family="Helvetica,sans-Serif" font-size="10.00" fill="grey"> fMatrices</text>
</g>
</g>
</svg>
</svg>

<style type='text/css'>
<![CDATA[
[data-mouse-over-selected='false'] { opacity: 0.7; }
[data-mouse-over-selected='true']  { opacity: 1.0; }
]]>
</style>
<script type="application/ecmascript"><![CDATA[
document.addEventListener('DOMContentLoaded', (event) => {
  highlightEdges();
  highlightAdjacentNodes();
});
]]></script>
</svg>
