<?xml version="1.0" encoding="UTF-8" standalone="no"?>
<!DOCTYPE svg PUBLIC "-//W3C//DTD SVG 1.1//EN"
 "http://www.w3.org/Graphics/SVG/1.1/DTD/svg11.dtd">
<!-- Generated by graphviz version 12.2.0 (20241103.1931)
 -->
<!-- Title: pygui.status_widget.ThreadStatusFrame Pages: 1 -->
<svg width="142pt" height="94pt"
 viewBox="0.00 0.00 141.75 93.75" xmlns="http://www.w3.org/2000/svg" xmlns:xlink="http://www.w3.org/1999/xlink">
<g id="graph0" class="graph" transform="scale(1 1) rotate(0) translate(4 89.75)">
<title>pygui.status_widget.ThreadStatusFrame</title>
<!-- Node1 -->
<g id="Node000001" class="node">
<title>Node1</title>
<g id="a_Node000001"><a xlink:title=" ">
<polygon fill="#999999" stroke="#666666" points="133.75,-30.5 0,-30.5 0,0 133.75,0 133.75,-30.5"/>
<text text-anchor="start" x="8" y="-17" font-family="Helvetica,sans-Serif" font-size="10.00">pygui.status_widget.Thread</text>
<text text-anchor="middle" x="66.88" y="-5.75" font-family="Helvetica,sans-Serif" font-size="10.00">StatusFrame</text>
</a>
</g>
</g>
<!-- Node2 -->
<g id="Node000002" class="node">
<title>Node2</title>
<g id="a_Node000002"><a xlink:title=" ">
<polygon fill="white" stroke="#666666" points="62.62,-85.75 3.12,-85.75 3.12,-66.5 62.62,-66.5 62.62,-85.75"/>
<text text-anchor="middle" x="32.88" y="-72.25" font-family="Helvetica,sans-Serif" font-size="10.00">ttk::Frame</text>
</a>
</g>
</g>
<!-- Node2&#45;&gt;Node1 -->
<g id="edge1_Node000001_Node000002" class="edge">
<title>Node2&#45;&gt;Node1</title>
<g id="a_edge1_Node000001_Node000002"><a xlink:title=" ">
<path fill="none" stroke="#63b8ff" d="M43.73,-56.32C48.51,-48.05 54.03,-38.49 58.48,-30.78"/>
<polygon fill="#63b8ff" stroke="#63b8ff" points="40.77,-54.46 38.8,-64.87 46.83,-57.96 40.77,-54.46"/>
</a>
</g>
</g>
<!-- Node3 -->
<g id="Node000003" class="node">
<title>Node3</title>
<g id="a_Node000003"><a xlink:title=" ">
<polygon fill="white" stroke="#666666" points="123,-85.75 80.75,-85.75 80.75,-66.5 123,-66.5 123,-85.75"/>
<text text-anchor="middle" x="101.88" y="-72.25" font-family="Helvetica,sans-Serif" font-size="10.00">object</text>
</a>
</g>
</g>
<!-- Node3&#45;&gt;Node1 -->
<g id="edge2_Node000001_Node000003" class="edge">
<title>Node3&#45;&gt;Node1</title>
<g id="a_edge2_Node000001_Node000003"><a xlink:title=" ">
<path fill="none" stroke="#63b8ff" d="M90.7,-56.32C85.78,-48.05 80.1,-38.49 75.51,-30.78"/>
<polygon fill="#63b8ff" stroke="#63b8ff" points="87.67,-58.07 95.79,-64.88 93.68,-54.5 87.67,-58.07"/>
</a>
</g>
</g>
</g>
</svg>
