<?xml version="1.0" encoding="UTF-8" standalone="no"?>
<!DOCTYPE svg PUBLIC "-//W3C//DTD SVG 1.1//EN"
 "http://www.w3.org/Graphics/SVG/1.1/DTD/svg11.dtd">
<!-- Generated by graphviz version 12.2.0 (20241103.1931)
 -->
<!-- Title: TTdrEvent Pages: 1 -->
<svg width="298pt" height="150pt"
 viewBox="0.00 0.00 298.25 150.00" xmlns="http://www.w3.org/2000/svg" xmlns:xlink="http://www.w3.org/1999/xlink">
<g id="graph0" class="graph" transform="scale(1 1) rotate(0) translate(4 146)">
<title>TTdrEvent</title>
<!-- Node1 -->
<g id="Node000001" class="node">
<title>Node1</title>
<g id="a_Node000001"><a xlink:title=" ">
<polygon fill="#999999" stroke="#666666" points="160.62,-19.25 99.62,-19.25 99.62,0 160.62,0 160.62,-19.25"/>
<text text-anchor="middle" x="130.12" y="-5.75" font-family="Helvetica,sans-Serif" font-size="10.00">TTdrEvent</text>
</a>
</g>
</g>
<!-- Node2 -->
<g id="Node000002" class="node">
<title>Node2</title>
<g id="a_Node000002"><a xlink:href="class_t_raw_event.html" target="_top" xlink:title="RAW event.">
<polygon fill="white" stroke="#666666" points="66.25,-85.75 0,-85.75 0,-66.5 66.25,-66.5 66.25,-85.75"/>
<text text-anchor="middle" x="33.12" y="-72.25" font-family="Helvetica,sans-Serif" font-size="10.00">TRawEvent</text>
</a>
</g>
</g>
<!-- Node2&#45;&gt;Node1 -->
<g id="edge1_Node000001_Node000002" class="edge">
<title>Node2&#45;&gt;Node1</title>
<g id="a_edge1_Node000001_Node000002"><a xlink:title=" ">
<path fill="none" stroke="#63b8ff" d="M56.2,-59.78C74.96,-47.31 100.8,-30.12 116.44,-19.73"/>
<polygon fill="#63b8ff" stroke="#63b8ff" points="54.26,-56.87 47.87,-65.32 58.14,-62.7 54.26,-56.87"/>
</a>
</g>
</g>
<!-- Node3 -->
<g id="Node000003" class="node">
<title>Node3</title>
<g id="a_Node000003"><a xlink:title=" ">
<polygon fill="white" stroke="#666666" points="58.38,-142 7.88,-142 7.88,-122.75 58.38,-122.75 58.38,-142"/>
<text text-anchor="middle" x="33.12" y="-128.5" font-family="Helvetica,sans-Serif" font-size="10.00">TObject</text>
</a>
</g>
</g>
<!-- Node3&#45;&gt;Node2 -->
<g id="edge2_Node000002_Node000003" class="edge">
<title>Node3&#45;&gt;Node2</title>
<g id="a_edge2_Node000002_Node000003"><a xlink:title=" ">
<path fill="none" stroke="#63b8ff" d="M33.12,-111.19C33.12,-102.48 33.12,-92.74 33.12,-85.92"/>
<polygon fill="#63b8ff" stroke="#63b8ff" points="29.63,-110.9 33.13,-120.9 36.63,-110.9 29.63,-110.9"/>
</a>
</g>
</g>
<!-- Node4 -->
<g id="Node000004" class="node">
<title>Node4</title>
<g id="a_Node000004"><a xlink:href="struct_t_tdr_event_header.html" target="_top" xlink:title="TDR event.">
<polygon fill="white" stroke="#666666" points="176.38,-85.75 83.88,-85.75 83.88,-66.5 176.38,-66.5 176.38,-85.75"/>
<text text-anchor="middle" x="130.12" y="-72.25" font-family="Helvetica,sans-Serif" font-size="10.00">TTdrEventHeader</text>
</a>
</g>
</g>
<!-- Node4&#45;&gt;Node1 -->
<g id="edge3_Node000001_Node000004" class="edge">
<title>Node4&#45;&gt;Node1</title>
<g id="a_edge3_Node000001_Node000004"><a xlink:title=" ">
<path fill="none" stroke="#9a32cd" stroke-dasharray="5,2" d="M130.12,-54.65C130.12,-42.82 130.12,-28.54 130.12,-19.52"/>
<polygon fill="#9a32cd" stroke="#9a32cd" points="126.63,-54.64 130.13,-64.64 133.63,-54.64 126.63,-54.64"/>
</a>
</g>
<text text-anchor="middle" x="148.5" y="-39" font-family="Helvetica,sans-Serif" font-size="10.00" fill="grey"> fHeader</text>
</g>
<!-- Node5 -->
<g id="Node000005" class="node">
<title>Node5</title>
<g id="a_Node000005"><a xlink:title=" ">
<polygon fill="white" stroke="#666666" points="290.25,-85.75 194,-85.75 194,-66.5 290.25,-66.5 290.25,-85.75"/>
<text text-anchor="middle" x="242.12" y="-72.25" font-family="Helvetica,sans-Serif" font-size="10.00">std::vector&lt; char &gt;</text>
</a>
</g>
</g>
<!-- Node5&#45;&gt;Node1 -->
<g id="edge4_Node000001_Node000005" class="edge">
<title>Node5&#45;&gt;Node1</title>
<g id="a_edge4_Node000001_Node000005"><a xlink:title=" ">
<path fill="none" stroke="#9a32cd" stroke-dasharray="5,2" d="M216.68,-60.47C194.93,-47.94 164.31,-30.31 145.93,-19.73"/>
<polygon fill="#9a32cd" stroke="#9a32cd" points="214.83,-63.44 225.24,-65.4 218.32,-57.38 214.83,-63.44"/>
</a>
</g>
<text text-anchor="middle" x="205.58" y="-39" font-family="Helvetica,sans-Serif" font-size="10.00" fill="grey"> fData</text>
</g>
</g>
</svg>
