<?xml version="1.0" encoding="UTF-8" standalone="no"?>
<!DOCTYPE svg PUBLIC "-//W3C//DTD SVG 1.1//EN"
 "http://www.w3.org/Graphics/SVG/1.1/DTD/svg11.dtd">
<!-- Generated by graphviz version 9.0.0 (20230911.1827)
 -->
<!-- Title: TRawFile Pages: 1 -->
<svg width="290pt" height="138pt"
 viewBox="0.00 0.00 290.00 137.75" xmlns="http://www.w3.org/2000/svg" xmlns:xlink="http://www.w3.org/1999/xlink">

<svg id="main" version="1.1" xmlns="http://www.w3.org/2000/svg" xmlns:xlink="http://www.w3.org/1999/xlink" xml:space="preserve" onload="init(evt)">
<style type="text/css"><![CDATA[
.node, .edge {opacity: 0.7;}
.node.selected, .edge.selected {opacity: 1;}
.edge:hover path { stroke: red; }
.edge:hover polygon { stroke: red; fill: red; }
]]></style>
<script type="application/ecmascript" xlink:href="svg.min.js"/>
<svg id="graph" class="graph">
<g id="graph0" class="graph" transform="scale(1 1) rotate(0) translate(4 133.75)">
<title>TRawFile</title>
<!-- Node1 -->
<g id="Node000001" class="node">
<title>Node1</title>
<g id="a_Node000001"><a xlink:title="Reader for raw files.">
<polygon fill="#999999" stroke="#666666" points="170.62,-74.5 113.38,-74.5 113.38,-55.25 170.62,-55.25 170.62,-74.5"/>
<text text-anchor="middle" x="142" y="-61" font-family="Helvetica,sans-Serif" font-size="10.00">TRawFile</text>
</a>
</g>
</g>
<!-- Node3 -->
<g id="Node000003" class="node">
<title>Node3</title>
<g id="a_Node000003"><a xlink:href="class_t_lst_file.html" target="_top" xlink:title="Reader for ILL .lst files.">
<polygon fill="white" stroke="#666666" points="52,-19.25 0,-19.25 0,0 52,0 52,-19.25"/>
<text text-anchor="middle" x="26" y="-5.75" font-family="Helvetica,sans-Serif" font-size="10.00">TLstFile</text>
</a>
</g>
</g>
<!-- Node1&#45;&gt;Node3 -->
<g id="edge2_Node000001_Node000003" class="edge">
<title>Node1&#45;&gt;Node3</title>
<g id="a_edge2_Node000001_Node000003"><a xlink:title=" ">
<path fill="none" stroke="#63b8ff" d="M112.08,-50.14C91.22,-40.56 63.97,-28.06 45.77,-19.7"/>
<polygon fill="#63b8ff" stroke="#63b8ff" points="110.4,-53.22 120.95,-54.21 113.32,-46.86 110.4,-53.22"/>
</a>
</g>
</g>
<!-- Node4 -->
<g id="Node000004" class="node">
<title>Node4</title>
<g id="a_Node000004"><a xlink:href="class_t_midas_file.html" target="_top" xlink:title="Reader for MIDAS .mid files.">
<polygon fill="white" stroke="#666666" points="134,-19.25 70,-19.25 70,0 134,0 134,-19.25"/>
<text text-anchor="middle" x="102" y="-5.75" font-family="Helvetica,sans-Serif" font-size="10.00">TMidasFile</text>
</a>
</g>
</g>
<!-- Node1&#45;&gt;Node4 -->
<g id="edge3_Node000001_Node000004" class="edge">
<title>Node1&#45;&gt;Node4</title>
<g id="a_edge3_Node000001_Node000004"><a xlink:title=" ">
<path fill="none" stroke="#63b8ff" d="M128.53,-45.94C121.88,-37.09 114.14,-26.79 108.75,-19.61"/>
<polygon fill="#63b8ff" stroke="#63b8ff" points="125.68,-47.98 134.49,-53.87 131.28,-43.77 125.68,-47.98"/>
</a>
</g>
</g>
<!-- Node5 -->
<g id="Node000005" class="node">
<title>Node5</title>
<g id="a_Node000005"><a xlink:href="class_t_rlmd_file.html" target="_top" xlink:title=" ">
<polygon fill="white" stroke="#666666" points="212.12,-19.25 151.88,-19.25 151.88,0 212.12,0 212.12,-19.25"/>
<text text-anchor="middle" x="182" y="-5.75" font-family="Helvetica,sans-Serif" font-size="10.00">TRlmdFile</text>
</a>
</g>
</g>
<!-- Node1&#45;&gt;Node5 -->
<g id="edge4_Node000001_Node000005" class="edge">
<title>Node1&#45;&gt;Node5</title>
<g id="a_edge4_Node000001_Node000005"><a xlink:title=" ">
<path fill="none" stroke="#63b8ff" d="M155.47,-45.94C162.12,-37.09 169.86,-26.79 175.25,-19.61"/>
<polygon fill="#63b8ff" stroke="#63b8ff" points="152.72,-43.77 149.51,-53.87 158.32,-47.98 152.72,-43.77"/>
</a>
</g>
</g>
<!-- Node6 -->
<g id="Node000006" class="node">
<title>Node6</title>
<g id="a_Node000006"><a xlink:href="class_t_tdr_file.html" target="_top" xlink:title="Reader for MIDAS .mid files.">
<polygon fill="white" stroke="#666666" points="282,-19.25 230,-19.25 230,0 282,0 282,-19.25"/>
<text text-anchor="middle" x="256" y="-5.75" font-family="Helvetica,sans-Serif" font-size="10.00">TTdrFile</text>
</a>
</g>
</g>
<!-- Node1&#45;&gt;Node6 -->
<g id="edge5_Node000001_Node000006" class="edge">
<title>Node1&#45;&gt;Node6</title>
<g id="a_edge5_Node000001_Node000006"><a xlink:title=" ">
<path fill="none" stroke="#63b8ff" d="M171.69,-50.01C192.15,-40.45 218.77,-28.02 236.57,-19.7"/>
<polygon fill="#63b8ff" stroke="#63b8ff" points="170.29,-46.8 162.71,-54.2 173.25,-53.14 170.29,-46.8"/>
</a>
</g>
</g>
<!-- Node2 -->
<g id="Node000002" class="node">
<title>Node2</title>
<g id="a_Node000002"><a xlink:title=" ">
<polygon fill="white" stroke="#666666" points="167.25,-129.75 116.75,-129.75 116.75,-110.5 167.25,-110.5 167.25,-129.75"/>
<text text-anchor="middle" x="142" y="-116.25" font-family="Helvetica,sans-Serif" font-size="10.00">TObject</text>
</a>
</g>
</g>
<!-- Node2&#45;&gt;Node1 -->
<g id="edge1_Node000001_Node000002" class="edge">
<title>Node2&#45;&gt;Node1</title>
<g id="a_edge1_Node000001_Node000002"><a xlink:title=" ">
<path fill="none" stroke="#63b8ff" d="M142,-98.88C142,-90.59 142,-81.42 142,-74.86"/>
<polygon fill="#63b8ff" stroke="#63b8ff" points="138.5,-98.82 142,-108.82 145.5,-98.82 138.5,-98.82"/>
</a>
</g>
</g>
</g>
</svg>
</svg>

<style type='text/css'>
<![CDATA[
[data-mouse-over-selected='false'] { opacity: 0.7; }
[data-mouse-over-selected='true']  { opacity: 1.0; }
]]>
</style>
<script type="application/ecmascript"><![CDATA[
document.addEventListener('DOMContentLoaded', (event) => {
  highlightEdges();
  highlightAdjacentNodes();
});
]]></script>
</svg>
