<?xml version="1.0" encoding="UTF-8" standalone="no"?>
<!DOCTYPE svg PUBLIC "-//W3C//DTD SVG 1.1//EN"
 "http://www.w3.org/Graphics/SVG/1.1/DTD/svg11.dtd">
<!-- Generated by graphviz version 12.2.0 (20241103.1931)
 -->
<!-- Title: TTdrFile Pages: 1 -->
<svg width="371pt" height="352pt"
 viewBox="0.00 0.00 371.25 351.50" xmlns="http://www.w3.org/2000/svg" xmlns:xlink="http://www.w3.org/1999/xlink">
<g id="graph0" class="graph" transform="scale(1 1) rotate(0) translate(4 347.5)">
<title>TTdrFile</title>
<!-- Node1 -->
<g id="Node000001" class="node">
<title>Node1</title>
<g id="a_Node000001"><a xlink:title="Reader for MIDAS .mid files.">
<polygon fill="#999999" stroke="#666666" points="223.25,-19.25 171.25,-19.25 171.25,0 223.25,0 223.25,-19.25"/>
<text text-anchor="middle" x="197.25" y="-5.75" font-family="Helvetica,sans-Serif" font-size="10.00">TTdrFile</text>
</a>
</g>
</g>
<!-- Node2 -->
<g id="Node000002" class="node">
<title>Node2</title>
<g id="a_Node000002"><a xlink:href="class_t_raw_file.html" target="_top" xlink:title="Reader for raw files.">
<polygon fill="white" stroke="#666666" points="185.88,-85.75 128.62,-85.75 128.62,-66.5 185.88,-66.5 185.88,-85.75"/>
<text text-anchor="middle" x="157.25" y="-72.25" font-family="Helvetica,sans-Serif" font-size="10.00">TRawFile</text>
</a>
</g>
</g>
<!-- Node2&#45;&gt;Node1 -->
<g id="edge1_Node000001_Node000002" class="edge">
<title>Node2&#45;&gt;Node1</title>
<g id="a_edge1_Node000001_Node000002"><a xlink:title=" ">
<path fill="none" stroke="#63b8ff" d="M168.79,-56.51C176.34,-44.35 185.84,-29.02 191.74,-19.52"/>
<polygon fill="#63b8ff" stroke="#63b8ff" points="165.91,-54.53 163.61,-64.87 171.85,-58.22 165.91,-54.53"/>
</a>
</g>
</g>
<!-- Node3 -->
<g id="Node000003" class="node">
<title>Node3</title>
<g id="a_Node000003"><a xlink:title=" ">
<polygon fill="white" stroke="#666666" points="50.5,-157.88 0,-157.88 0,-138.62 50.5,-138.62 50.5,-157.88"/>
<text text-anchor="middle" x="25.25" y="-144.38" font-family="Helvetica,sans-Serif" font-size="10.00">TObject</text>
</a>
</g>
</g>
<!-- Node3&#45;&gt;Node2 -->
<g id="edge2_Node000002_Node000003" class="edge">
<title>Node3&#45;&gt;Node2</title>
<g id="a_edge2_Node000002_Node000003"><a xlink:title=" ">
<path fill="none" stroke="#63b8ff" d="M52.34,-132.86C78.75,-118.83 118.09,-97.93 140.33,-86.11"/>
<polygon fill="#63b8ff" stroke="#63b8ff" points="50.76,-129.73 43.57,-137.52 54.05,-135.92 50.76,-129.73"/>
</a>
</g>
</g>
<!-- Node4 -->
<g id="Node000004" class="node">
<title>Node4</title>
<g id="a_Node000004"><a xlink:title=" ">
<polygon fill="white" stroke="#666666" points="126.25,-157.88 68.25,-157.88 68.25,-138.62 126.25,-138.62 126.25,-157.88"/>
<text text-anchor="middle" x="97.25" y="-144.38" font-family="Helvetica,sans-Serif" font-size="10.00">std::string</text>
</a>
</g>
</g>
<!-- Node4&#45;&gt;Node2 -->
<g id="edge3_Node000002_Node000004" class="edge">
<title>Node4&#45;&gt;Node2</title>
<g id="a_edge3_Node000002_Node000004"><a xlink:title=" ">
<path fill="none" stroke="#9a32cd" stroke-dasharray="5,2" d="M105.65,-127.93C109.68,-119.94 114.99,-110.9 121.25,-103.75 127.19,-96.97 135.14,-90.86 142.06,-86.22"/>
<polygon fill="#9a32cd" stroke="#9a32cd" points="102.55,-126.3 101.5,-136.84 108.9,-129.26 102.55,-126.3"/>
</a>
</g>
<text text-anchor="middle" x="143.75" y="-105.5" font-family="Helvetica,sans-Serif" font-size="10.00" fill="grey"> fFilename</text>
</g>
<!-- Node5 -->
<g id="Node000005" class="node">
<title>Node5</title>
<g id="a_Node000005"><a xlink:title=" ">
<polygon fill="white" stroke="#666666" points="143.5,-231 51,-231 51,-200.5 143.5,-200.5 143.5,-231"/>
<text text-anchor="start" x="59" y="-217.5" font-family="Helvetica,sans-Serif" font-size="10.00">std::basic_string&lt;</text>
<text text-anchor="middle" x="97.25" y="-206.25" font-family="Helvetica,sans-Serif" font-size="10.00"> Char &gt;</text>
</a>
</g>
</g>
<!-- Node5&#45;&gt;Node4 -->
<g id="edge4_Node000004_Node000005" class="edge">
<title>Node5&#45;&gt;Node4</title>
<g id="a_edge4_Node000004_Node000005"><a xlink:title=" ">
<path fill="none" stroke="#63b8ff" d="M97.25,-188.74C97.25,-177.96 97.25,-166.17 97.25,-158.3"/>
<polygon fill="#63b8ff" stroke="#63b8ff" points="93.75,-188.7 97.25,-198.7 100.75,-188.7 93.75,-188.7"/>
</a>
</g>
</g>
<!-- Node6 -->
<g id="Node000006" class="node">
<title>Node6</title>
<g id="a_Node000006"><a xlink:title=" ">
<polygon fill="white" stroke="#666666" points="240.38,-157.88 144.12,-157.88 144.12,-138.62 240.38,-138.62 240.38,-157.88"/>
<text text-anchor="middle" x="192.25" y="-144.38" font-family="Helvetica,sans-Serif" font-size="10.00">std::vector&lt; char &gt;</text>
</a>
</g>
</g>
<!-- Node6&#45;&gt;Node2 -->
<g id="edge5_Node000002_Node000006" class="edge">
<title>Node6&#45;&gt;Node2</title>
<g id="a_edge5_Node000002_Node000006"><a xlink:title=" ">
<path fill="none" stroke="#9a32cd" stroke-dasharray="5,2" d="M182.7,-128.11C175.88,-114.45 167.02,-96.7 161.76,-86.16"/>
<polygon fill="#9a32cd" stroke="#9a32cd" points="179.54,-129.63 187.14,-137.01 185.81,-126.5 179.54,-129.63"/>
</a>
</g>
<text text-anchor="middle" x="202.42" y="-105.5" font-family="Helvetica,sans-Serif" font-size="10.00" fill="grey"> fReadBuffer</text>
</g>
<!-- Node7 -->
<g id="Node000007" class="node">
<title>Node7</title>
<g id="a_Node000007"><a xlink:title=" ">
<polygon fill="white" stroke="#666666" points="301.88,-85.75 232.62,-85.75 232.62,-66.5 301.88,-66.5 301.88,-85.75"/>
<text text-anchor="middle" x="267.25" y="-72.25" font-family="Helvetica,sans-Serif" font-size="10.00">std::ifstream</text>
</a>
</g>
</g>
<!-- Node7&#45;&gt;Node1 -->
<g id="edge6_Node000001_Node000007" class="edge">
<title>Node7&#45;&gt;Node1</title>
<g id="a_edge6_Node000001_Node000007"><a xlink:title=" ">
<path fill="none" stroke="#9a32cd" stroke-dasharray="5,2" d="M249.41,-58.69C235.89,-46.23 217.84,-29.59 206.9,-19.52"/>
<polygon fill="#9a32cd" stroke="#9a32cd" points="246.68,-60.93 256.4,-65.13 251.42,-55.78 246.68,-60.93"/>
</a>
</g>
<text text-anchor="middle" x="257.82" y="-39" font-family="Helvetica,sans-Serif" font-size="10.00" fill="grey"> fInputFile</text>
</g>
<!-- Node8 -->
<g id="Node000008" class="node">
<title>Node8</title>
<g id="a_Node000008"><a xlink:title=" ">
<polygon fill="white" stroke="#666666" points="356.12,-163.5 258.38,-163.5 258.38,-133 356.12,-133 356.12,-163.5"/>
<text text-anchor="start" x="266.38" y="-150" font-family="Helvetica,sans-Serif" font-size="10.00">std::basic_ifstream</text>
<text text-anchor="middle" x="307.25" y="-138.75" font-family="Helvetica,sans-Serif" font-size="10.00">&lt; Char &gt;</text>
</a>
</g>
</g>
<!-- Node8&#45;&gt;Node7 -->
<g id="edge7_Node000007_Node000008" class="edge">
<title>Node8&#45;&gt;Node7</title>
<g id="a_edge7_Node000007_Node000008"><a xlink:title=" ">
<path fill="none" stroke="#63b8ff" d="M293.43,-123.02C286.09,-110.16 277.53,-95.14 272.25,-85.88"/>
<polygon fill="#63b8ff" stroke="#63b8ff" points="290.22,-124.45 298.21,-131.41 296.3,-120.98 290.22,-124.45"/>
</a>
</g>
</g>
<!-- Node9 -->
<g id="Node000009" class="node">
<title>Node9</title>
<g id="a_Node000009"><a xlink:title=" ">
<polygon fill="white" stroke="#666666" points="354.62,-231 259.88,-231 259.88,-200.5 354.62,-200.5 354.62,-231"/>
<text text-anchor="start" x="267.88" y="-217.5" font-family="Helvetica,sans-Serif" font-size="10.00">std::basic_istream</text>
<text text-anchor="middle" x="307.25" y="-206.25" font-family="Helvetica,sans-Serif" font-size="10.00">&lt; Char &gt;</text>
</a>
</g>
</g>
<!-- Node9&#45;&gt;Node8 -->
<g id="edge8_Node000008_Node000009" class="edge">
<title>Node9&#45;&gt;Node8</title>
<g id="a_edge8_Node000008_Node000009"><a xlink:title=" ">
<path fill="none" stroke="#63b8ff" d="M307.25,-188.84C307.25,-180.3 307.25,-171.12 307.25,-163.75"/>
<polygon fill="#63b8ff" stroke="#63b8ff" points="303.75,-188.7 307.25,-198.7 310.75,-188.7 303.75,-188.7"/>
</a>
</g>
</g>
<!-- Node10 -->
<g id="Node000010" class="node">
<title>Node10</title>
<g id="a_Node000010"><a xlink:title=" ">
<polygon fill="white" stroke="#666666" points="363.25,-287.25 251.25,-287.25 251.25,-268 363.25,-268 363.25,-287.25"/>
<text text-anchor="middle" x="307.25" y="-273.75" font-family="Helvetica,sans-Serif" font-size="10.00">std::basic_ios&lt; Char &gt;</text>
</a>
</g>
</g>
<!-- Node10&#45;&gt;Node9 -->
<g id="edge9_Node000009_Node000010" class="edge">
<title>Node10&#45;&gt;Node9</title>
<g id="a_edge9_Node000009_Node000010"><a xlink:title=" ">
<path fill="none" stroke="#63b8ff" d="M307.25,-256.19C307.25,-247.93 307.25,-238.59 307.25,-231.07"/>
<polygon fill="#63b8ff" stroke="#63b8ff" points="303.75,-256.02 307.25,-266.02 310.75,-256.02 303.75,-256.02"/>
</a>
</g>
</g>
<!-- Node11 -->
<g id="Node000011" class="node">
<title>Node11</title>
<g id="a_Node000011"><a xlink:title=" ">
<polygon fill="white" stroke="#666666" points="343.75,-343.5 270.75,-343.5 270.75,-324.25 343.75,-324.25 343.75,-343.5"/>
<text text-anchor="middle" x="307.25" y="-330" font-family="Helvetica,sans-Serif" font-size="10.00">std::ios_base</text>
</a>
</g>
</g>
<!-- Node11&#45;&gt;Node10 -->
<g id="edge10_Node000010_Node000011" class="edge">
<title>Node11&#45;&gt;Node10</title>
<g id="a_edge10_Node000010_Node000011"><a xlink:title=" ">
<path fill="none" stroke="#63b8ff" d="M307.25,-312.69C307.25,-303.98 307.25,-294.24 307.25,-287.42"/>
<polygon fill="#63b8ff" stroke="#63b8ff" points="303.75,-312.4 307.25,-322.4 310.75,-312.4 303.75,-312.4"/>
</a>
</g>
</g>
</g>
</svg>
