<?xml version="1.0" encoding="UTF-8" standalone="no"?>
<!DOCTYPE svg PUBLIC "-//W3C//DTD SVG 1.1//EN"
 "http://www.w3.org/Graphics/SVG/1.1/DTD/svg11.dtd">
<!-- Generated by graphviz version 12.2.0 (20241103.1931)
 -->
<!-- Title: ExampleTreeHelper Pages: 1 -->
<svg width="1050pt" height="1342pt"
 viewBox="0.00 0.00 1049.75 1341.89" xmlns="http://www.w3.org/2000/svg" xmlns:xlink="http://www.w3.org/1999/xlink">
<g id="graph0" class="graph" transform="scale(1 1) rotate(0) translate(4 1337.89)">
<title>ExampleTreeHelper</title>
<!-- Node1 -->
<g id="Node000001" class="node">
<title>Node1</title>
<g id="a_Node000001"><a xlink:title=" ">
<polygon fill="#999999" stroke="#666666" points="1041.75,-924.88 941,-924.88 941,-905.62 1041.75,-905.62 1041.75,-924.88"/>
<text text-anchor="middle" x="991.38" y="-911.38" font-family="Helvetica,sans-Serif" font-size="10.00">ExampleTreeHelper</text>
</a>
</g>
</g>
<!-- Node2 -->
<g id="Node000002" class="node">
<title>Node2</title>
<g id="a_Node000002"><a xlink:href="class_t_g_r_s_i_helper.html" target="_top" xlink:title=" ">
<polygon fill="white" stroke="#666666" points="756.5,-1016.88 682,-1016.88 682,-997.62 756.5,-997.62 756.5,-1016.88"/>
<text text-anchor="middle" x="719.25" y="-1003.38" font-family="Helvetica,sans-Serif" font-size="10.00">TGRSIHelper</text>
</a>
</g>
</g>
<!-- Node2&#45;&gt;Node1 -->
<g id="edge1_Node000001_Node000002" class="edge">
<title>Node2&#45;&gt;Node1</title>
<g id="a_edge1_Node000001_Node000002"><a xlink:title=" ">
<path fill="none" stroke="#63b8ff" d="M768.04,-998.47C809.94,-989.86 871.95,-974.86 923,-953.25 941.55,-945.4 961.49,-933.7 974.83,-925.36"/>
<polygon fill="#63b8ff" stroke="#63b8ff" points="767.39,-995.03 758.27,-1000.43 768.76,-1001.9 767.39,-995.03"/>
</a>
</g>
</g>
<!-- Node3 -->
<g id="Node000003" class="node">
<title>Node3</title>
<g id="a_Node000003"><a xlink:title=" ">
<polygon fill="white" stroke="#666666" points="71.5,-852.88 21,-852.88 21,-833.62 71.5,-833.62 71.5,-852.88"/>
<text text-anchor="middle" x="46.25" y="-839.38" font-family="Helvetica,sans-Serif" font-size="10.00">TObject</text>
</a>
</g>
</g>
<!-- Node3&#45;&gt;Node2 -->
<g id="edge2_Node000002_Node000003" class="edge">
<title>Node3&#45;&gt;Node2</title>
<g id="a_edge2_Node000002_Node000003"><a xlink:title=" ">
<path fill="none" stroke="#63b8ff" d="M55.3,-863.65C67.04,-893.25 89.76,-949.76 110.5,-997.25 187.22,-1172.88 227.83,-1239.15 405,-1312.25 493.39,-1348.72 552.26,-1341.52 616,-1270.25 687.52,-1190.28 711.5,-1054.66 716.94,-1017.13"/>
<polygon fill="#63b8ff" stroke="#63b8ff" points="58.59,-862.46 51.65,-854.45 52.08,-865.04 58.59,-862.46"/>
</a>
</g>
</g>
<!-- Node14 -->
<g id="Node000014" class="node">
<title>Node14</title>
<g id="a_Node000014"><a xlink:href="class_t_singleton.html" target="_top" xlink:title=" ">
<polygon fill="white" stroke="#666666" points="247.5,-1028.88 141.5,-1028.88 141.5,-1009.62 247.5,-1009.62 247.5,-1028.88"/>
<text text-anchor="middle" x="194.5" y="-1015.38" font-family="Helvetica,sans-Serif" font-size="10.00">TSingleton&lt; TPPG &gt;</text>
</a>
</g>
</g>
<!-- Node3&#45;&gt;Node14 -->
<g id="edge14_Node000014_Node000003" class="edge">
<title>Node3&#45;&gt;Node14</title>
<g id="a_edge14_Node000014_Node000003"><a xlink:title=" ">
<path fill="none" stroke="#63b8ff" d="M52.3,-864.02C61.64,-897.9 84.83,-964.94 129.5,-1001.25 133.44,-1004.45 137.92,-1007.09 142.63,-1009.25"/>
<polygon fill="#63b8ff" stroke="#63b8ff" points="55.76,-863.41 49.86,-854.61 48.99,-865.17 55.76,-863.41"/>
</a>
</g>
</g>
<!-- Node22 -->
<g id="Node000022" class="node">
<title>Node22</title>
<g id="a_Node000022"><a xlink:href="class_t_singleton.html" target="_top" xlink:title=" ">
<polygon fill="white" stroke="#666666" points="253.88,-732.88 135.12,-732.88 135.12,-713.62 253.88,-713.62 253.88,-732.88"/>
<text text-anchor="middle" x="194.5" y="-719.38" font-family="Helvetica,sans-Serif" font-size="10.00">TSingleton&lt; TRunInfo &gt;</text>
</a>
</g>
</g>
<!-- Node3&#45;&gt;Node22 -->
<g id="edge24_Node000022_Node000003" class="edge">
<title>Node3&#45;&gt;Node22</title>
<g id="a_edge24_Node000022_Node000003"><a xlink:title=" ">
<path fill="none" stroke="#63b8ff" d="M61.36,-824.2C76.52,-804.72 102.15,-774.52 129.5,-754.25 141,-745.72 155.22,-738.56 167.34,-733.27"/>
<polygon fill="#63b8ff" stroke="#63b8ff" points="58.62,-822.02 55.35,-832.1 64.19,-826.26 58.62,-822.02"/>
</a>
</g>
</g>
<!-- Node26 -->
<g id="Node000026" class="node">
<title>Node26</title>
<g id="a_Node000026"><a xlink:href="class_t_detector_information.html" target="_top" xlink:title=" ">
<polygon fill="white" stroke="#666666" points="248.25,-634.88 140.75,-634.88 140.75,-615.62 248.25,-615.62 248.25,-634.88"/>
<text text-anchor="middle" x="194.5" y="-621.38" font-family="Helvetica,sans-Serif" font-size="10.00">TDetectorInformation</text>
</a>
</g>
</g>
<!-- Node3&#45;&gt;Node26 -->
<g id="edge31_Node000026_Node000003" class="edge">
<title>Node3&#45;&gt;Node26</title>
<g id="a_edge31_Node000026_Node000003"><a xlink:title=" ">
<path fill="none" stroke="#63b8ff" d="M50,-821.87C56.36,-781.23 75.89,-692.59 129.5,-644.25 133.55,-640.6 138.26,-637.65 143.27,-635.27"/>
<polygon fill="#63b8ff" stroke="#63b8ff" points="46.53,-821.37 48.58,-831.77 53.46,-822.36 46.53,-821.37"/>
</a>
</g>
</g>
<!-- Node4 -->
<g id="Node000004" class="node">
<title>Node4</title>
<g id="a_Node000004"><a xlink:title=" ">
<polygon fill="white" stroke="#666666" points="535.75,-1303.12 405,-1303.12 405,-1261.38 535.75,-1261.38 535.75,-1303.12"/>
<text text-anchor="start" x="413" y="-1289.62" font-family="Helvetica,sans-Serif" font-size="10.00">std::vector&lt; std::shared</text>
<text text-anchor="start" x="413" y="-1278.38" font-family="Helvetica,sans-Serif" font-size="10.00">_ptr&lt; std::map&lt; std::string,</text>
<text text-anchor="middle" x="470.38" y="-1267.12" font-family="Helvetica,sans-Serif" font-size="10.00"> TList &gt; &gt; &gt;</text>
</a>
</g>
</g>
<!-- Node4&#45;&gt;Node2 -->
<g id="edge3_Node000002_Node000004" class="edge">
<title>Node4&#45;&gt;Node2</title>
<g id="a_edge3_Node000002_Node000004"><a xlink:title=" ">
<path fill="none" stroke="#9a32cd" stroke-dasharray="5,2" d="M546.48,-1258.85C570.86,-1248.46 596.6,-1234.2 616,-1215.25 677.59,-1155.07 707.66,-1050.15 715.87,-1017.35"/>
<polygon fill="#9a32cd" stroke="#9a32cd" points="545.48,-1255.48 537.54,-1262.49 548.12,-1261.96 545.48,-1255.48"/>
</a>
</g>
<text text-anchor="middle" x="584.88" y="-1256.97" font-family="Helvetica,sans-Serif" font-size="10.00" fill="grey"> fLists</text>
</g>
<!-- Node5 -->
<g id="Node000005" class="node">
<title>Node5</title>
<g id="a_Node000005"><a xlink:title=" ">
<polygon fill="white" stroke="#666666" points="529.38,-1243.5 411.38,-1243.5 411.38,-1213 529.38,-1213 529.38,-1243.5"/>
<text text-anchor="start" x="419.38" y="-1230" font-family="Helvetica,sans-Serif" font-size="10.00">std::vector&lt; TGRSIMap</text>
<text text-anchor="middle" x="470.38" y="-1218.75" font-family="Helvetica,sans-Serif" font-size="10.00">&lt; std::string, TH1 * &gt; &gt;</text>
</a>
</g>
</g>
<!-- Node5&#45;&gt;Node2 -->
<g id="edge4_Node000002_Node000005" class="edge">
<title>Node5&#45;&gt;Node2</title>
<g id="a_edge4_Node000002_Node000005"><a xlink:title=" ">
<path fill="none" stroke="#9a32cd" stroke-dasharray="5,2" d="M534.6,-1208.48C561.87,-1197.69 592.77,-1182.18 616,-1161.25 665.35,-1116.78 701.75,-1043.54 713.87,-1017.13"/>
<polygon fill="#9a32cd" stroke="#9a32cd" points="533.47,-1205.17 525.37,-1211.99 535.96,-1211.71 533.47,-1205.17"/>
</a>
</g>
<text text-anchor="middle" x="584.88" y="-1202.04" font-family="Helvetica,sans-Serif" font-size="10.00" fill="grey"> fH1</text>
</g>
<!-- Node6 -->
<g id="Node000006" class="node">
<title>Node6</title>
<g id="a_Node000006"><a xlink:title=" ">
<polygon fill="white" stroke="#666666" points="529.38,-1194.5 411.38,-1194.5 411.38,-1164 529.38,-1164 529.38,-1194.5"/>
<text text-anchor="start" x="419.38" y="-1181" font-family="Helvetica,sans-Serif" font-size="10.00">std::vector&lt; TGRSIMap</text>
<text text-anchor="middle" x="470.38" y="-1169.75" font-family="Helvetica,sans-Serif" font-size="10.00">&lt; std::string, TH2 * &gt; &gt;</text>
</a>
</g>
</g>
<!-- Node6&#45;&gt;Node2 -->
<g id="edge5_Node000002_Node000006" class="edge">
<title>Node6&#45;&gt;Node2</title>
<g id="a_edge5_Node000002_Node000006"><a xlink:title=" ">
<path fill="none" stroke="#9a32cd" stroke-dasharray="5,2" d="M524.07,-1159.29C528.04,-1157.63 531.97,-1155.94 535.75,-1154.25 572.3,-1137.87 583.82,-1137.1 616,-1113.25 656.26,-1083.41 694.81,-1037.13 710.67,-1017.07"/>
<polygon fill="#9a32cd" stroke="#9a32cd" points="522.87,-1156 514.93,-1163.02 525.51,-1162.48 522.87,-1156"/>
</a>
</g>
<text text-anchor="middle" x="584.88" y="-1147.73" font-family="Helvetica,sans-Serif" font-size="10.00" fill="grey"> fH2</text>
</g>
<!-- Node7 -->
<g id="Node000007" class="node">
<title>Node7</title>
<g id="a_Node000007"><a xlink:title=" ">
<polygon fill="white" stroke="#666666" points="529.38,-1145.5 411.38,-1145.5 411.38,-1115 529.38,-1115 529.38,-1145.5"/>
<text text-anchor="start" x="419.38" y="-1132" font-family="Helvetica,sans-Serif" font-size="10.00">std::vector&lt; TGRSIMap</text>
<text text-anchor="middle" x="470.38" y="-1120.75" font-family="Helvetica,sans-Serif" font-size="10.00">&lt; std::string, TH3 * &gt; &gt;</text>
</a>
</g>
</g>
<!-- Node7&#45;&gt;Node2 -->
<g id="edge6_Node000002_Node000007" class="edge">
<title>Node7&#45;&gt;Node2</title>
<g id="a_edge6_Node000002_Node000007"><a xlink:title=" ">
<path fill="none" stroke="#9a32cd" stroke-dasharray="5,2" d="M523.01,-1110.35C527.33,-1108.64 531.62,-1106.93 535.75,-1105.25 571.64,-1090.68 581.64,-1089.14 616,-1071.25 648.51,-1054.33 684.35,-1030.63 703.78,-1017.33"/>
<polygon fill="#9a32cd" stroke="#9a32cd" points="521.75,-1107.09 513.72,-1114.01 524.31,-1113.61 521.75,-1107.09"/>
</a>
</g>
<text text-anchor="middle" x="584.88" y="-1099.59" font-family="Helvetica,sans-Serif" font-size="10.00" fill="grey"> fH3</text>
</g>
<!-- Node8 -->
<g id="Node000008" class="node">
<title>Node8</title>
<g id="a_Node000008"><a xlink:title=" ">
<polygon fill="white" stroke="#666666" points="534.62,-1096.5 406.12,-1096.5 406.12,-1066 534.62,-1066 534.62,-1096.5"/>
<text text-anchor="start" x="414.12" y="-1083" font-family="Helvetica,sans-Serif" font-size="10.00">std::vector&lt; TGRSIMap</text>
<text text-anchor="middle" x="470.38" y="-1071.75" font-family="Helvetica,sans-Serif" font-size="10.00">&lt; std::string, GHSym * &gt; &gt;</text>
</a>
</g>
</g>
<!-- Node8&#45;&gt;Node2 -->
<g id="edge7_Node000002_Node000008" class="edge">
<title>Node8&#45;&gt;Node2</title>
<g id="a_edge7_Node000002_Node000008"><a xlink:title=" ">
<path fill="none" stroke="#9a32cd" stroke-dasharray="5,2" d="M535.18,-1062.36C560.37,-1054.88 589.56,-1046.19 616,-1038.25 639.1,-1031.32 665.1,-1023.43 685.11,-1017.35"/>
<polygon fill="#9a32cd" stroke="#9a32cd" points="534.33,-1058.96 525.74,-1065.16 536.32,-1065.67 534.33,-1058.96"/>
</a>
</g>
<text text-anchor="middle" x="584.88" y="-1057.79" font-family="Helvetica,sans-Serif" font-size="10.00" fill="grey"> fSym</text>
</g>
<!-- Node9 -->
<g id="Node000009" class="node">
<title>Node9</title>
<g id="a_Node000009"><a xlink:title=" ">
<polygon fill="white" stroke="#666666" points="532.38,-1047.5 408.38,-1047.5 408.38,-1017 532.38,-1017 532.38,-1047.5"/>
<text text-anchor="start" x="416.38" y="-1034" font-family="Helvetica,sans-Serif" font-size="10.00">std::vector&lt; TGRSIMap</text>
<text text-anchor="middle" x="470.38" y="-1022.75" font-family="Helvetica,sans-Serif" font-size="10.00">&lt; std::string, GCube * &gt; &gt;</text>
</a>
</g>
</g>
<!-- Node9&#45;&gt;Node2 -->
<g id="edge8_Node000002_Node000009" class="edge">
<title>Node9&#45;&gt;Node2</title>
<g id="a_edge8_Node000002_Node000009"><a xlink:title=" ">
<path fill="none" stroke="#9a32cd" stroke-dasharray="5,2" d="M543.97,-1024.9C589.25,-1020.31 645.59,-1014.61 681.74,-1010.95"/>
<polygon fill="#9a32cd" stroke="#9a32cd" points="543.82,-1021.4 534.22,-1025.89 544.53,-1028.36 543.82,-1021.4"/>
</a>
</g>
<text text-anchor="middle" x="584.88" y="-1025.2" font-family="Helvetica,sans-Serif" font-size="10.00" fill="grey"> fCube</text>
</g>
<!-- Node10 -->
<g id="Node000010" class="node">
<title>Node10</title>
<g id="a_Node000010"><a xlink:title=" ">
<polygon fill="white" stroke="#666666" points="530.12,-998.5 410.62,-998.5 410.62,-968 530.12,-968 530.12,-998.5"/>
<text text-anchor="start" x="418.62" y="-985" font-family="Helvetica,sans-Serif" font-size="10.00">std::vector&lt; TGRSIMap</text>
<text text-anchor="middle" x="470.38" y="-973.75" font-family="Helvetica,sans-Serif" font-size="10.00">&lt; std::string, TTree * &gt; &gt;</text>
</a>
</g>
</g>
<!-- Node10&#45;&gt;Node2 -->
<g id="edge9_Node000002_Node000010" class="edge">
<title>Node10&#45;&gt;Node2</title>
<g id="a_edge9_Node000002_Node000010"><a xlink:title=" ">
<path fill="none" stroke="#9a32cd" stroke-dasharray="5,2" d="M541.84,-990.1C587.49,-994.54 645.08,-1000.14 681.79,-1003.71"/>
<polygon fill="#9a32cd" stroke="#9a32cd" points="542.31,-986.63 532.01,-989.15 541.63,-993.6 542.31,-986.63"/>
</a>
</g>
<text text-anchor="middle" x="584.88" y="-998.44" font-family="Helvetica,sans-Serif" font-size="10.00" fill="grey"> fTree</text>
</g>
<!-- Node11 -->
<g id="Node000011" class="node">
<title>Node11</title>
<g id="a_Node000011"><a xlink:title=" ">
<polygon fill="white" stroke="#666666" points="534.62,-949.5 406.12,-949.5 406.12,-919 534.62,-919 534.62,-949.5"/>
<text text-anchor="start" x="414.12" y="-936" font-family="Helvetica,sans-Serif" font-size="10.00">std::vector&lt; TGRSIMap</text>
<text text-anchor="middle" x="470.38" y="-924.75" font-family="Helvetica,sans-Serif" font-size="10.00">&lt; std::string, TObject * &gt; &gt;</text>
</a>
</g>
</g>
<!-- Node11&#45;&gt;Node2 -->
<g id="edge10_Node000002_Node000011" class="edge">
<title>Node11&#45;&gt;Node2</title>
<g id="a_edge10_Node000002_Node000011"><a xlink:title=" ">
<path fill="none" stroke="#9a32cd" stroke-dasharray="5,2" d="M545.99,-950.94C569,-957.36 594.05,-965.68 616,-976 624.76,-980.12 625.12,-984.4 634,-988.25 648.99,-994.76 666.49,-999.17 681.64,-1002.09"/>
<polygon fill="#9a32cd" stroke="#9a32cd" points="546.91,-947.56 536.35,-948.34 545.09,-954.32 546.91,-947.56"/>
</a>
</g>
<text text-anchor="middle" x="584.88" y="-977.75" font-family="Helvetica,sans-Serif" font-size="10.00" fill="grey"> fObject</text>
</g>
<!-- Node12 -->
<g id="Node000012" class="node">
<title>Node12</title>
<g id="a_Node000012"><a xlink:title=" ">
<polygon fill="white" stroke="#666666" points="523.38,-900.5 417.38,-900.5 417.38,-870 523.38,-870 523.38,-900.5"/>
<text text-anchor="start" x="425.38" y="-887" font-family="Helvetica,sans-Serif" font-size="10.00">std::map&lt; std::string,</text>
<text text-anchor="middle" x="470.38" y="-875.75" font-family="Helvetica,sans-Serif" font-size="10.00"> TCutG * &gt;</text>
</a>
</g>
</g>
<!-- Node12&#45;&gt;Node2 -->
<g id="edge11_Node000002_Node000012" class="edge">
<title>Node12&#45;&gt;Node2</title>
<g id="a_edge11_Node000002_Node000012"><a xlink:title=" ">
<path fill="none" stroke="#9a32cd" stroke-dasharray="5,2" d="M534.79,-895.75C562.83,-903.3 594.29,-916.16 616,-938 632.73,-954.82 616.23,-972.53 634,-988.25 647.03,-999.78 665.55,-1004.76 681.91,-1006.76"/>
<polygon fill="#9a32cd" stroke="#9a32cd" points="535.86,-892.41 525.31,-893.39 534.16,-899.2 535.86,-892.41"/>
</a>
</g>
<text text-anchor="middle" x="584.88" y="-939.75" font-family="Helvetica,sans-Serif" font-size="10.00" fill="grey"> fCuts</text>
</g>
<!-- Node13 -->
<g id="Node000013" class="node">
<title>Node13</title>
<g id="a_Node000013"><a xlink:href="class_t_p_p_g.html" target="_top" xlink:title=" ">
<polygon fill="white" stroke="#666666" points="491.88,-851.88 448.88,-851.88 448.88,-832.62 491.88,-832.62 491.88,-851.88"/>
<text text-anchor="middle" x="470.38" y="-838.38" font-family="Helvetica,sans-Serif" font-size="10.00">TPPG</text>
</a>
</g>
</g>
<!-- Node13&#45;&gt;Node2 -->
<g id="edge12_Node000002_Node000013" class="edge">
<title>Node13&#45;&gt;Node2</title>
<g id="a_edge12_Node000002_Node000013"><a xlink:title=" ">
<path fill="none" stroke="#9a32cd" stroke-dasharray="5,2" d="M503.62,-842.9C536.9,-845.42 587.81,-854.74 616,-887 646.07,-921.42 602.43,-955.2 634,-988.25 646.22,-1001.04 665.08,-1006.08 681.85,-1007.79"/>
<polygon fill="#9a32cd" stroke="#9a32cd" points="503.92,-839.42 493.74,-842.34 503.52,-846.4 503.92,-839.42"/>
</a>
</g>
<text text-anchor="middle" x="584.88" y="-888.75" font-family="Helvetica,sans-Serif" font-size="10.00" fill="grey"> fPpg</text>
</g>
<!-- Node13&#45;&gt;Node14 -->
<g id="edge15_Node000014_Node000013" class="edge">
<title>Node13&#45;&gt;Node14</title>
<g id="a_edge15_Node000014_Node000013"><a xlink:title=" ">
<path fill="none" stroke="#9a32cd" stroke-dasharray="5,2" d="M437.2,-844.56C425.44,-847.06 413.05,-851.92 405,-861.25 367.74,-904.4 426.91,-947.54 387,-988.25 382.09,-993.26 302.56,-1004.86 247.55,-1012.37"/>
<polygon fill="#9a32cd" stroke="#9a32cd" points="437.74,-848.02 447.08,-843.01 436.66,-841.11 437.74,-848.02"/>
</a>
</g>
<text text-anchor="middle" x="332.25" y="-1009.2" font-family="Helvetica,sans-Serif" font-size="10.00" fill="grey"> fSingleton</text>
</g>
<!-- Node14&#45;&gt;Node13 -->
<g id="edge13_Node000013_Node000014" class="edge">
<title>Node14&#45;&gt;Node13</title>
<g id="a_edge13_Node000013_Node000014"><a xlink:title=" ">
<path fill="none" stroke="#63b8ff" d="M231.68,-1032.84C274.39,-1046.27 344.91,-1059.9 387,-1022.25 413.83,-998.25 381.87,-888.84 405,-861.25 415.55,-848.66 434.01,-844.17 448.46,-842.68"/>
<polygon fill="#63b8ff" stroke="#63b8ff" points="232.97,-1029.58 222.38,-1029.75 230.77,-1036.22 232.97,-1029.58"/>
</a>
</g>
</g>
<!-- Node15 -->
<g id="Node000015" class="node">
<title>Node15</title>
<g id="a_Node000015"><a xlink:title=" ">
<polygon fill="white" stroke="#666666" points="255.38,-991.88 133.62,-991.88 133.62,-972.62 255.38,-972.62 255.38,-991.88"/>
<text text-anchor="middle" x="194.5" y="-978.38" font-family="Helvetica,sans-Serif" font-size="10.00">std::map&lt; K, T &gt;::iterator</text>
</a>
</g>
</g>
<!-- Node15&#45;&gt;Node13 -->
<g id="edge16_Node000013_Node000015" class="edge">
<title>Node15&#45;&gt;Node13</title>
<g id="a_edge16_Node000013_Node000015"><a xlink:title=" ">
<path fill="none" stroke="#9a32cd" stroke-dasharray="5,2" d="M267.05,-975.41C317.71,-969.9 378.18,-961.7 387,-953.25 417.09,-924.43 376.95,-892.06 405,-861.25 415.98,-849.19 434.21,-844.63 448.47,-842.99"/>
<polygon fill="#9a32cd" stroke="#9a32cd" points="266.82,-971.91 257.25,-976.45 267.57,-978.87 266.82,-971.91"/>
</a>
</g>
<text text-anchor="middle" x="332.25" y="-975.72" font-family="Helvetica,sans-Serif" font-size="10.00" fill="grey"> fCurrIterator</text>
</g>
<!-- Node16 -->
<g id="Node000016" class="node">
<title>Node16</title>
<g id="a_Node000016"><a xlink:title=" ">
<polygon fill="white" stroke="#666666" points="238.12,-954.88 150.88,-954.88 150.88,-935.62 238.12,-935.62 238.12,-954.88"/>
<text text-anchor="middle" x="194.5" y="-941.38" font-family="Helvetica,sans-Serif" font-size="10.00">std::map&lt; K, T &gt;</text>
</a>
</g>
</g>
<!-- Node16&#45;&gt;Node13 -->
<g id="edge17_Node000013_Node000016" class="edge">
<title>Node16&#45;&gt;Node13</title>
<g id="a_edge17_Node000013_Node000016"><a xlink:title=" ">
<path fill="none" stroke="#9a32cd" stroke-dasharray="5,2" d="M249.7,-941.17C302.6,-936.71 376.63,-929.03 387,-920.25 407.93,-902.54 385.53,-880.55 405,-861.25 416.51,-849.85 434.5,-845.23 448.54,-843.38"/>
<polygon fill="#9a32cd" stroke="#9a32cd" points="249.62,-937.66 239.94,-941.97 250.19,-944.64 249.62,-937.66"/>
</a>
</g>
<text text-anchor="middle" x="332.25" y="-940.23" font-family="Helvetica,sans-Serif" font-size="10.00" fill="grey"> fPPGStatusMap</text>
</g>
<!-- Node17 -->
<g id="Node000017" class="node">
<title>Node17</title>
<g id="a_Node000017"><a xlink:title=" ">
<polygon fill="white" stroke="#666666" points="250.5,-917.5 138.5,-917.5 138.5,-887 250.5,-887 250.5,-917.5"/>
<text text-anchor="start" x="146.5" y="-904" font-family="Helvetica,sans-Serif" font-size="10.00">std::map&lt; ULong64_t,</text>
<text text-anchor="middle" x="194.5" y="-892.75" font-family="Helvetica,sans-Serif" font-size="10.00"> int &gt;</text>
</a>
</g>
</g>
<!-- Node17&#45;&gt;Node13 -->
<g id="edge18_Node000013_Node000017" class="edge">
<title>Node17&#45;&gt;Node13</title>
<g id="a_edge18_Node000013_Node000017"><a xlink:title=" ">
<path fill="none" stroke="#9a32cd" stroke-dasharray="5,2" d="M261.81,-905.62C300.22,-904.96 348.45,-899.51 387,-880.25 397.41,-875.05 395.08,-867.33 405,-861.25 418.31,-853.09 435.33,-848.27 448.52,-845.52"/>
<polygon fill="#9a32cd" stroke="#9a32cd" points="262.23,-902.12 252.25,-905.68 262.27,-909.12 262.23,-902.12"/>
</a>
</g>
<text text-anchor="middle" x="332.25" y="-906.61" font-family="Helvetica,sans-Serif" font-size="10.00" fill="grey"> fNumberOfCycleLengths</text>
</g>
<!-- Node18 -->
<g id="Node000018" class="node">
<title>Node18</title>
<g id="a_Node000018"><a xlink:title=" ">
<polygon fill="white" stroke="#666666" points="247.88,-868.88 141.12,-868.88 141.12,-849.62 247.88,-849.62 247.88,-868.88"/>
<text text-anchor="middle" x="194.5" y="-855.38" font-family="Helvetica,sans-Serif" font-size="10.00">std::vector&lt; int16_t &gt;</text>
</a>
</g>
</g>
<!-- Node18&#45;&gt;Node13 -->
<g id="edge19_Node000013_Node000018" class="edge">
<title>Node18&#45;&gt;Node13</title>
<g id="a_edge19_Node000013_Node000018"><a xlink:title=" ">
<path fill="none" stroke="#9a32cd" stroke-dasharray="5,2" d="M259.75,-855.26C320.81,-851.47 409.01,-846 448.68,-843.53"/>
<polygon fill="#9a32cd" stroke="#9a32cd" points="259.58,-851.77 249.82,-855.88 260.01,-858.75 259.58,-851.77"/>
</a>
</g>
<text text-anchor="middle" x="332.25" y="-866.75" font-family="Helvetica,sans-Serif" font-size="10.00" fill="grey"> fOdbPPGCodes</text>
<text text-anchor="middle" x="332.25" y="-855.5" font-family="Helvetica,sans-Serif" font-size="10.00" fill="grey">fPPGCodes</text>
</g>
<!-- Node19 -->
<g id="Node000019" class="node">
<title>Node19</title>
<g id="a_Node000019"><a xlink:title=" ">
<polygon fill="white" stroke="#666666" points="238.5,-782.88 150.5,-782.88 150.5,-763.62 238.5,-763.62 238.5,-782.88"/>
<text text-anchor="middle" x="194.5" y="-769.38" font-family="Helvetica,sans-Serif" font-size="10.00">std::vector&lt; int &gt;</text>
</a>
</g>
</g>
<!-- Node19&#45;&gt;Node13 -->
<g id="edge20_Node000013_Node000019" class="edge">
<title>Node19&#45;&gt;Node13</title>
<g id="a_edge20_Node000013_Node000019"><a xlink:title=" ">
<path fill="none" stroke="#9a32cd" stroke-dasharray="5,2" d="M249.64,-780.92C288.34,-787.06 341.42,-796.82 387,-810 408.39,-816.18 431.98,-825.71 448.41,-832.81"/>
<polygon fill="#9a32cd" stroke="#9a32cd" points="250.54,-777.52 240.12,-779.44 249.46,-784.43 250.54,-777.52"/>
</a>
</g>
<text text-anchor="middle" x="332.25" y="-811.75" font-family="Helvetica,sans-Serif" font-size="10.00" fill="grey"> fOdbDurations</text>
</g>
<!-- Node21 -->
<g id="Node000021" class="node">
<title>Node21</title>
<g id="a_Node000021"><a xlink:href="class_t_run_info.html" target="_top" xlink:title=" ">
<polygon fill="white" stroke="#666666" points="498.25,-699.88 442.5,-699.88 442.5,-680.62 498.25,-680.62 498.25,-699.88"/>
<text text-anchor="middle" x="470.38" y="-686.38" font-family="Helvetica,sans-Serif" font-size="10.00">TRunInfo</text>
</a>
</g>
</g>
<!-- Node19&#45;&gt;Node21 -->
<g id="edge29_Node000021_Node000019" class="edge">
<title>Node19&#45;&gt;Node21</title>
<g id="a_edge29_Node000021_Node000019"><a xlink:title=" ">
<path fill="none" stroke="#9a32cd" stroke-dasharray="5,2" d="M249.9,-764C288.71,-756.63 341.83,-744.93 387,-729.25 409.87,-721.31 434.83,-708.93 451.21,-700.26"/>
<polygon fill="#9a32cd" stroke="#9a32cd" points="249.52,-760.51 240.33,-765.79 250.8,-767.4 249.52,-760.51"/>
</a>
</g>
<text text-anchor="middle" x="332.25" y="-759.9" font-family="Helvetica,sans-Serif" font-size="10.00" fill="grey"> fBadCycleList</text>
</g>
<!-- Node20 -->
<g id="Node000020" class="node">
<title>Node20</title>
<g id="a_Node000020"><a xlink:title=" ">
<polygon fill="white" stroke="#666666" points="257.25,-831.88 131.75,-831.88 131.75,-812.62 257.25,-812.62 257.25,-831.88"/>
<text text-anchor="middle" x="194.5" y="-818.38" font-family="Helvetica,sans-Serif" font-size="10.00">std::vector&lt; ULong64_t &gt;</text>
</a>
</g>
</g>
<!-- Node20&#45;&gt;Node13 -->
<g id="edge21_Node000013_Node000020" class="edge">
<title>Node20&#45;&gt;Node13</title>
<g id="a_edge21_Node000013_Node000020"><a xlink:title=" ">
<path fill="none" stroke="#9a32cd" stroke-dasharray="5,2" d="M268.97,-824.74C304.64,-826.26 348.1,-828.59 387,-832 407.96,-833.84 431.81,-836.91 448.43,-839.22"/>
<polygon fill="#9a32cd" stroke="#9a32cd" points="269.32,-821.25 259.19,-824.33 269.03,-828.24 269.32,-821.25"/>
</a>
</g>
<text text-anchor="middle" x="332.25" y="-833.75" font-family="Helvetica,sans-Serif" font-size="10.00" fill="grey"> fDurations</text>
</g>
<!-- Node21&#45;&gt;Node2 -->
<g id="edge22_Node000002_Node000021" class="edge">
<title>Node21&#45;&gt;Node2</title>
<g id="a_edge22_Node000002_Node000021"><a xlink:title=" ">
<path fill="none" stroke="#9a32cd" stroke-dasharray="5,2" d="M495.57,-706.68C529,-730.87 588.34,-779.49 616,-837 630.67,-867.5 611.33,-963.11 634,-988.25 645.85,-1001.39 664.67,-1006.45 681.53,-1008.09"/>
<polygon fill="#9a32cd" stroke="#9a32cd" points="497.9,-704.04 487.71,-701.12 493.85,-709.75 497.9,-704.04"/>
</a>
</g>
<text text-anchor="middle" x="584.88" y="-838.75" font-family="Helvetica,sans-Serif" font-size="10.00" fill="grey"> fRunInfo</text>
</g>
<!-- Node21&#45;&gt;Node22 -->
<g id="edge25_Node000022_Node000021" class="edge">
<title>Node21&#45;&gt;Node22</title>
<g id="a_edge25_Node000022_Node000021"><a xlink:title=" ">
<path fill="none" stroke="#9a32cd" stroke-dasharray="5,2" d="M431.16,-695.5C417.27,-697.37 401.43,-699.46 387,-701.25 342.5,-706.78 292.12,-712.55 254.2,-716.79"/>
<polygon fill="#9a32cd" stroke="#9a32cd" points="431.37,-699.01 440.81,-694.19 430.43,-692.07 431.37,-699.01"/>
</a>
</g>
<text text-anchor="middle" x="332.25" y="-715.86" font-family="Helvetica,sans-Serif" font-size="10.00" fill="grey"> fSingleton</text>
</g>
<!-- Node22&#45;&gt;Node21 -->
<g id="edge23_Node000021_Node000022" class="edge">
<title>Node22&#45;&gt;Node21</title>
<g id="a_edge23_Node000021_Node000022"><a xlink:title=" ">
<path fill="none" stroke="#63b8ff" d="M244.28,-710.64C255.15,-708.2 266.67,-705.89 277.5,-704.25 335.79,-695.43 404.91,-692.11 442.22,-690.91"/>
<polygon fill="#63b8ff" stroke="#63b8ff" points="243.65,-707.2 234.71,-712.87 245.24,-714.01 243.65,-707.2"/>
</a>
</g>
</g>
<!-- Node23 -->
<g id="Node000023" class="node">
<title>Node23</title>
<g id="a_Node000023"><a xlink:title=" ">
<polygon fill="white" stroke="#666666" points="223.5,-488.88 165.5,-488.88 165.5,-469.62 223.5,-469.62 223.5,-488.88"/>
<text text-anchor="middle" x="194.5" y="-475.38" font-family="Helvetica,sans-Serif" font-size="10.00">std::string</text>
</a>
</g>
</g>
<!-- Node23&#45;&gt;Node2 -->
<g id="edge43_Node000002_Node000023" class="edge">
<title>Node23&#45;&gt;Node2</title>
<g id="a_edge43_Node000002_Node000023"><a xlink:title=" ">
<path fill="none" stroke="#9a32cd" stroke-dasharray="5,2" d="M233.38,-465.76C273.6,-453.81 337.98,-441.6 387,-465.25 534.29,-536.31 556.24,-601.03 616,-753.25 635.14,-802 599.75,-948.62 634,-988.25 645.67,-1001.75 664.69,-1006.8 681.71,-1008.35"/>
<polygon fill="#9a32cd" stroke="#9a32cd" points="232.41,-462.4 223.91,-468.72 234.5,-469.08 232.41,-462.4"/>
</a>
</g>
<text text-anchor="middle" x="470.38" y="-580.56" font-family="Helvetica,sans-Serif" font-size="10.00" fill="grey"> fPrefix</text>
</g>
<!-- Node23&#45;&gt;Node21 -->
<g id="edge26_Node000021_Node000023" class="edge">
<title>Node23&#45;&gt;Node21</title>
<g id="a_edge26_Node000021_Node000023"><a xlink:title=" ">
<path fill="none" stroke="#9a32cd" stroke-dasharray="5,2" d="M235.36,-472.3C277.23,-467.3 343,-466.24 387,-498.5 449.53,-544.34 465.08,-647.54 468.5,-680.16"/>
<polygon fill="#9a32cd" stroke="#9a32cd" points="234.91,-468.83 225.46,-473.63 235.84,-475.77 234.91,-468.83"/>
</a>
</g>
<text text-anchor="middle" x="332.25" y="-612.75" font-family="Helvetica,sans-Serif" font-size="10.00" fill="grey"> fCalFile</text>
<text text-anchor="middle" x="332.25" y="-601.5" font-family="Helvetica,sans-Serif" font-size="10.00" fill="grey">fCalFileName</text>
<text text-anchor="middle" x="332.25" y="-590.25" font-family="Helvetica,sans-Serif" font-size="10.00" fill="grey">fDate</text>
<text text-anchor="middle" x="332.25" y="-579" font-family="Helvetica,sans-Serif" font-size="10.00" fill="grey">fFullVersion</text>
<text text-anchor="middle" x="332.25" y="-567.75" font-family="Helvetica,sans-Serif" font-size="10.00" fill="grey">fLibraryPath</text>
<text text-anchor="middle" x="332.25" y="-556.5" font-family="Helvetica,sans-Serif" font-size="10.00" fill="grey">fLibraryVersion</text>
<text text-anchor="middle" x="332.25" y="-545.25" font-family="Helvetica,sans-Serif" font-size="10.00" fill="grey">fRunComment</text>
<text text-anchor="middle" x="332.25" y="-534" font-family="Helvetica,sans-Serif" font-size="10.00" fill="grey">fRunInfoFile</text>
<text text-anchor="middle" x="332.25" y="-522.75" font-family="Helvetica,sans-Serif" font-size="10.00" fill="grey">fRunInfoFileName</text>
<text text-anchor="middle" x="332.25" y="-511.5" font-family="Helvetica,sans-Serif" font-size="10.00" fill="grey">fRunTitle</text>
<text text-anchor="middle" x="332.25" y="-500.25" font-family="Helvetica,sans-Serif" font-size="10.00" fill="grey">...</text>
</g>
<!-- Node24 -->
<g id="Node000024" class="node">
<title>Node24</title>
<g id="a_Node000024"><a xlink:title=" ">
<polygon fill="white" stroke="#666666" points="92.5,-494.5 0,-494.5 0,-464 92.5,-464 92.5,-494.5"/>
<text text-anchor="start" x="8" y="-481" font-family="Helvetica,sans-Serif" font-size="10.00">std::basic_string&lt;</text>
<text text-anchor="middle" x="46.25" y="-469.75" font-family="Helvetica,sans-Serif" font-size="10.00"> Char &gt;</text>
</a>
</g>
</g>
<!-- Node24&#45;&gt;Node23 -->
<g id="edge27_Node000023_Node000024" class="edge">
<title>Node24&#45;&gt;Node23</title>
<g id="a_edge27_Node000023_Node000024"><a xlink:title=" ">
<path fill="none" stroke="#63b8ff" d="M104.09,-479.25C124.99,-479.25 147.75,-479.25 165.08,-479.25"/>
<polygon fill="#63b8ff" stroke="#63b8ff" points="104.24,-475.75 94.24,-479.25 104.24,-482.75 104.24,-475.75"/>
</a>
</g>
</g>
<!-- Node25 -->
<g id="Node000025" class="node">
<title>Node25</title>
<g id="a_Node000025"><a xlink:title=" ">
<polygon fill="white" stroke="#666666" points="239.25,-683.5 149.75,-683.5 149.75,-653 239.25,-653 239.25,-683.5"/>
<text text-anchor="start" x="157.75" y="-670" font-family="Helvetica,sans-Serif" font-size="10.00">std::set&lt; std::pair</text>
<text text-anchor="middle" x="194.5" y="-658.75" font-family="Helvetica,sans-Serif" font-size="10.00">&lt; int, int &gt; &gt;</text>
</a>
</g>
</g>
<!-- Node25&#45;&gt;Node21 -->
<g id="edge28_Node000021_Node000025" class="edge">
<title>Node25&#45;&gt;Node21</title>
<g id="a_edge28_Node000021_Node000025"><a xlink:title=" ">
<path fill="none" stroke="#9a32cd" stroke-dasharray="5,2" d="M250.96,-662.49C289.36,-659.68 341.55,-658.19 387,-665 406.38,-667.9 427.49,-674.45 443.5,-680.15"/>
<polygon fill="#9a32cd" stroke="#9a32cd" points="250.7,-659 241.01,-663.28 251.26,-665.98 250.7,-659"/>
</a>
</g>
<text text-anchor="middle" x="332.25" y="-666.75" font-family="Helvetica,sans-Serif" font-size="10.00" fill="grey"> fRunList</text>
</g>
<!-- Node26&#45;&gt;Node21 -->
<g id="edge30_Node000021_Node000026" class="edge">
<title>Node26&#45;&gt;Node21</title>
<g id="a_edge30_Node000021_Node000026"><a xlink:title=" ">
<path fill="none" stroke="#9a32cd" stroke-dasharray="5,2" d="M260.02,-625.54C297.77,-627.26 345.94,-632.18 387,-645 412.7,-653.02 439.49,-669.5 455.29,-680.2"/>
<polygon fill="#9a32cd" stroke="#9a32cd" points="260.29,-622.05 250.16,-625.16 260.02,-629.04 260.29,-622.05"/>
</a>
</g>
<text text-anchor="middle" x="332.25" y="-646.75" font-family="Helvetica,sans-Serif" font-size="10.00" fill="grey"> fDetectorInformation</text>
</g>
<!-- Node27 -->
<g id="Node000027" class="node">
<title>Node27</title>
<g id="a_Node000027"><a xlink:href="class_t_user_settings.html" target="_top" xlink:title=" ">
<polygon fill="white" stroke="#666666" points="509.88,-245.88 430.88,-245.88 430.88,-226.62 509.88,-226.62 509.88,-245.88"/>
<text text-anchor="middle" x="470.38" y="-232.38" font-family="Helvetica,sans-Serif" font-size="10.00">TUserSettings</text>
</a>
</g>
</g>
<!-- Node27&#45;&gt;Node2 -->
<g id="edge32_Node000002_Node000027" class="edge">
<title>Node27&#45;&gt;Node2</title>
<g id="a_edge32_Node000002_Node000027"><a xlink:title=" ">
<path fill="none" stroke="#9a32cd" stroke-dasharray="5,2" d="M491.37,-253.96C524.57,-284.82 589.99,-352.15 616,-425 637.05,-483.97 594.12,-939.98 634,-988.25 645.46,-1002.12 664.69,-1007.16 681.88,-1008.61"/>
<polygon fill="#9a32cd" stroke="#9a32cd" points="493.78,-251.42 484.04,-247.27 489.07,-256.59 493.78,-251.42"/>
</a>
</g>
<text text-anchor="middle" x="584.88" y="-426.75" font-family="Helvetica,sans-Serif" font-size="10.00" fill="grey"> fUserSettings</text>
</g>
<!-- Node28 -->
<g id="Node000028" class="node">
<title>Node28</title>
<g id="a_Node000028"><a xlink:title=" ">
<polygon fill="white" stroke="#666666" points="221.25,-165.88 167.75,-165.88 167.75,-146.62 221.25,-146.62 221.25,-165.88"/>
<text text-anchor="middle" x="194.5" y="-152.38" font-family="Helvetica,sans-Serif" font-size="10.00">TNamed</text>
</a>
</g>
</g>
<!-- Node28&#45;&gt;Node27 -->
<g id="edge33_Node000027_Node000028" class="edge">
<title>Node28&#45;&gt;Node27</title>
<g id="a_edge33_Node000027_Node000028"><a xlink:title=" ">
<path fill="none" stroke="#63b8ff" d="M232.94,-162.71C271.96,-169.94 334.6,-182.95 387,-200.25 408.79,-207.44 432.71,-218.25 449.14,-226.14"/>
<polygon fill="#63b8ff" stroke="#63b8ff" points="233.58,-159.27 223.12,-160.93 232.33,-166.16 233.58,-159.27"/>
</a>
</g>
</g>
<!-- Node29 -->
<g id="Node000029" class="node">
<title>Node29</title>
<g id="a_Node000029"><a xlink:title=" ">
<polygon fill="white" stroke="#666666" points="247.5,-128.5 141.5,-128.5 141.5,-98 247.5,-98 247.5,-128.5"/>
<text text-anchor="start" x="149.5" y="-115" font-family="Helvetica,sans-Serif" font-size="10.00">std::map&lt; std::string,</text>
<text text-anchor="middle" x="194.5" y="-103.75" font-family="Helvetica,sans-Serif" font-size="10.00"> bool &gt;</text>
</a>
</g>
</g>
<!-- Node29&#45;&gt;Node27 -->
<g id="edge34_Node000027_Node000029" class="edge">
<title>Node29&#45;&gt;Node27</title>
<g id="a_edge34_Node000027_Node000029"><a xlink:title=" ">
<path fill="none" stroke="#9a32cd" stroke-dasharray="5,2" d="M258.91,-119.04C297.74,-124.64 347.4,-135.61 387,-157 419.82,-174.73 448.86,-209.16 461.97,-226.2"/>
<polygon fill="#9a32cd" stroke="#9a32cd" points="259.63,-115.61 249.25,-117.74 258.69,-122.54 259.63,-115.61"/>
</a>
</g>
<text text-anchor="middle" x="332.25" y="-158.75" font-family="Helvetica,sans-Serif" font-size="10.00" fill="grey"> fBool</text>
</g>
<!-- Node30 -->
<g id="Node000030" class="node">
<title>Node30</title>
<g id="a_Node000030"><a xlink:title=" ">
<polygon fill="white" stroke="#666666" points="247.5,-79.5 141.5,-79.5 141.5,-49 247.5,-49 247.5,-79.5"/>
<text text-anchor="start" x="149.5" y="-66" font-family="Helvetica,sans-Serif" font-size="10.00">std::map&lt; std::string,</text>
<text text-anchor="middle" x="194.5" y="-54.75" font-family="Helvetica,sans-Serif" font-size="10.00"> int &gt;</text>
</a>
</g>
</g>
<!-- Node30&#45;&gt;Node27 -->
<g id="edge35_Node000027_Node000030" class="edge">
<title>Node30&#45;&gt;Node27</title>
<g id="a_edge35_Node000027_Node000030"><a xlink:title=" ">
<path fill="none" stroke="#9a32cd" stroke-dasharray="5,2" d="M259.24,-66.29C299.07,-70.34 349.68,-80.83 387,-107 431.45,-138.16 457.36,-201.74 466.06,-226.28"/>
<polygon fill="#9a32cd" stroke="#9a32cd" points="259.57,-62.8 249.3,-65.4 258.95,-69.77 259.57,-62.8"/>
</a>
</g>
<text text-anchor="middle" x="332.25" y="-108.75" font-family="Helvetica,sans-Serif" font-size="10.00" fill="grey"> fInt</text>
</g>
<!-- Node31 -->
<g id="Node000031" class="node">
<title>Node31</title>
<g id="a_Node000031"><a xlink:title=" ">
<polygon fill="white" stroke="#666666" points="247.5,-30.5 141.5,-30.5 141.5,0 247.5,0 247.5,-30.5"/>
<text text-anchor="start" x="149.5" y="-17" font-family="Helvetica,sans-Serif" font-size="10.00">std::map&lt; std::string,</text>
<text text-anchor="middle" x="194.5" y="-5.75" font-family="Helvetica,sans-Serif" font-size="10.00"> double &gt;</text>
</a>
</g>
</g>
<!-- Node31&#45;&gt;Node27 -->
<g id="edge36_Node000027_Node000031" class="edge">
<title>Node31&#45;&gt;Node27</title>
<g id="a_edge36_Node000027_Node000031"><a xlink:title=" ">
<path fill="none" stroke="#9a32cd" stroke-dasharray="5,2" d="M259,-13.48C299.55,-15.54 351.07,-24.44 387,-53 445.17,-99.22 463.57,-195.39 468.11,-226.39"/>
<polygon fill="#9a32cd" stroke="#9a32cd" points="259.24,-9.99 249.12,-13.12 258.98,-16.98 259.24,-9.99"/>
</a>
</g>
<text text-anchor="middle" x="332.25" y="-54.75" font-family="Helvetica,sans-Serif" font-size="10.00" fill="grey"> fDouble</text>
</g>
<!-- Node32 -->
<g id="Node000032" class="node">
<title>Node32</title>
<g id="a_Node000032"><a xlink:title=" ">
<polygon fill="white" stroke="#666666" points="247.5,-447.5 141.5,-447.5 141.5,-417 247.5,-417 247.5,-447.5"/>
<text text-anchor="start" x="149.5" y="-434" font-family="Helvetica,sans-Serif" font-size="10.00">std::map&lt; std::string,</text>
<text text-anchor="middle" x="194.5" y="-422.75" font-family="Helvetica,sans-Serif" font-size="10.00"> std::string &gt;</text>
</a>
</g>
</g>
<!-- Node32&#45;&gt;Node27 -->
<g id="edge37_Node000027_Node000032" class="edge">
<title>Node32&#45;&gt;Node27</title>
<g id="a_edge37_Node000027_Node000032"><a xlink:title=" ">
<path fill="none" stroke="#9a32cd" stroke-dasharray="5,2" d="M259.04,-423.76C306.7,-416.35 367.02,-404.41 387,-389.25 437,-351.33 460.13,-274.03 467.05,-246.37"/>
<polygon fill="#9a32cd" stroke="#9a32cd" points="258.71,-420.27 249.35,-425.23 259.76,-427.19 258.71,-420.27"/>
</a>
</g>
<text text-anchor="middle" x="332.25" y="-422.38" font-family="Helvetica,sans-Serif" font-size="10.00" fill="grey"> fString</text>
</g>
<!-- Node33 -->
<g id="Node000033" class="node">
<title>Node33</title>
<g id="a_Node000033"><a xlink:title=" ">
<polygon fill="white" stroke="#666666" points="247.5,-398.5 141.5,-398.5 141.5,-368 247.5,-368 247.5,-398.5"/>
<text text-anchor="start" x="149.5" y="-385" font-family="Helvetica,sans-Serif" font-size="10.00">std::map&lt; std::string,</text>
<text text-anchor="middle" x="194.5" y="-373.75" font-family="Helvetica,sans-Serif" font-size="10.00"> std::vector&lt; bool &gt; &gt;</text>
</a>
</g>
</g>
<!-- Node33&#45;&gt;Node27 -->
<g id="edge38_Node000027_Node000033" class="edge">
<title>Node33&#45;&gt;Node27</title>
<g id="a_edge38_Node000027_Node000033"><a xlink:title=" ">
<path fill="none" stroke="#9a32cd" stroke-dasharray="5,2" d="M258.98,-376.99C298.27,-370.79 348.39,-358.52 387,-334.25 423.69,-311.19 452.28,-266.4 463.82,-246.36"/>
<polygon fill="#9a32cd" stroke="#9a32cd" points="258.57,-373.51 249.19,-378.43 259.59,-380.44 258.57,-373.51"/>
</a>
</g>
<text text-anchor="middle" x="332.25" y="-375.46" font-family="Helvetica,sans-Serif" font-size="10.00" fill="grey"> fBoolVector</text>
</g>
<!-- Node34 -->
<g id="Node000034" class="node">
<title>Node34</title>
<g id="a_Node000034"><a xlink:title=" ">
<polygon fill="white" stroke="#666666" points="247.5,-349.5 141.5,-349.5 141.5,-319 247.5,-319 247.5,-349.5"/>
<text text-anchor="start" x="149.5" y="-336" font-family="Helvetica,sans-Serif" font-size="10.00">std::map&lt; std::string,</text>
<text text-anchor="middle" x="194.5" y="-324.75" font-family="Helvetica,sans-Serif" font-size="10.00"> std::vector&lt; int &gt; &gt;</text>
</a>
</g>
</g>
<!-- Node34&#45;&gt;Node27 -->
<g id="edge39_Node000027_Node000034" class="edge">
<title>Node34&#45;&gt;Node27</title>
<g id="a_edge39_Node000027_Node000034"><a xlink:title=" ">
<path fill="none" stroke="#9a32cd" stroke-dasharray="5,2" d="M258.59,-323.4C296.69,-315.64 345.69,-303.5 387,-286.25 412.78,-275.48 439.98,-257.49 455.78,-246.27"/>
<polygon fill="#9a32cd" stroke="#9a32cd" points="258.26,-319.9 249.13,-325.27 259.62,-326.76 258.26,-319.9"/>
</a>
</g>
<text text-anchor="middle" x="332.25" y="-320.62" font-family="Helvetica,sans-Serif" font-size="10.00" fill="grey"> fIntVector</text>
</g>
<!-- Node35 -->
<g id="Node000035" class="node">
<title>Node35</title>
<g id="a_Node000035"><a xlink:title=" ">
<polygon fill="white" stroke="#666666" points="252.75,-300.5 136.25,-300.5 136.25,-270 252.75,-270 252.75,-300.5"/>
<text text-anchor="start" x="144.25" y="-287" font-family="Helvetica,sans-Serif" font-size="10.00">std::map&lt; std::string,</text>
<text text-anchor="middle" x="194.5" y="-275.75" font-family="Helvetica,sans-Serif" font-size="10.00"> std::vector&lt; double &gt; &gt;</text>
</a>
</g>
</g>
<!-- Node35&#45;&gt;Node27 -->
<g id="edge40_Node000027_Node000035" class="edge">
<title>Node35&#45;&gt;Node27</title>
<g id="a_edge40_Node000027_Node000035"><a xlink:title=" ">
<path fill="none" stroke="#9a32cd" stroke-dasharray="5,2" d="M263.94,-273.17C300.47,-266.71 346.19,-258.59 387,-251.25 401.16,-248.7 416.69,-245.88 430.41,-243.38"/>
<polygon fill="#9a32cd" stroke="#9a32cd" points="263.64,-269.67 254.4,-274.86 264.86,-276.57 263.64,-269.67"/>
</a>
</g>
<text text-anchor="middle" x="332.25" y="-272.44" font-family="Helvetica,sans-Serif" font-size="10.00" fill="grey"> fDoubleVector</text>
</g>
<!-- Node36 -->
<g id="Node000036" class="node">
<title>Node36</title>
<g id="a_Node000036"><a xlink:title=" ">
<polygon fill="white" stroke="#666666" points="259.5,-251.5 129.5,-251.5 129.5,-221 259.5,-221 259.5,-251.5"/>
<text text-anchor="start" x="137.5" y="-238" font-family="Helvetica,sans-Serif" font-size="10.00">std::map&lt; std::string,</text>
<text text-anchor="middle" x="194.5" y="-226.75" font-family="Helvetica,sans-Serif" font-size="10.00"> std::vector&lt; std::string &gt; &gt;</text>
</a>
</g>
</g>
<!-- Node36&#45;&gt;Node27 -->
<g id="edge41_Node000027_Node000036" class="edge">
<title>Node36&#45;&gt;Node27</title>
<g id="a_edge41_Node000027_Node000036"><a xlink:title=" ">
<path fill="none" stroke="#9a32cd" stroke-dasharray="5,2" d="M271.17,-236.25C322.86,-236.25 389.21,-236.25 430.52,-236.25"/>
<polygon fill="#9a32cd" stroke="#9a32cd" points="271.23,-232.75 261.23,-236.25 271.23,-239.75 271.23,-232.75"/>
</a>
</g>
<text text-anchor="middle" x="332.25" y="-238" font-family="Helvetica,sans-Serif" font-size="10.00" fill="grey"> fStringVector</text>
</g>
<!-- Node37 -->
<g id="Node000037" class="node">
<title>Node37</title>
<g id="a_Node000037"><a xlink:title=" ">
<polygon fill="white" stroke="#666666" points="254.25,-202.88 134.75,-202.88 134.75,-183.62 254.25,-183.62 254.25,-202.88"/>
<text text-anchor="middle" x="194.5" y="-189.38" font-family="Helvetica,sans-Serif" font-size="10.00">std::vector&lt; std::string &gt;</text>
</a>
</g>
</g>
<!-- Node37&#45;&gt;Node27 -->
<g id="edge42_Node000027_Node000037" class="edge">
<title>Node37&#45;&gt;Node27</title>
<g id="a_edge42_Node000027_Node000037"><a xlink:title=" ">
<path fill="none" stroke="#9a32cd" stroke-dasharray="5,2" d="M265.65,-202.74C301.93,-207.82 346.9,-214.39 387,-221 401.21,-223.34 416.74,-226.16 430.46,-228.72"/>
<polygon fill="#9a32cd" stroke="#9a32cd" points="266.57,-199.34 256.18,-201.43 265.61,-206.27 266.57,-199.34"/>
</a>
</g>
<text text-anchor="middle" x="332.25" y="-222.75" font-family="Helvetica,sans-Serif" font-size="10.00" fill="grey"> fSettingsFiles</text>
</g>
<!-- Node38 -->
<g id="Node000038" class="node">
<title>Node38</title>
<g id="a_Node000038"><a xlink:title=" ">
<polygon fill="white" stroke="#666666" points="804.5,-979.5 634,-979.5 634,-949 804.5,-949 804.5,-979.5"/>
<text text-anchor="start" x="642" y="-966" font-family="Helvetica,sans-Serif" font-size="10.00">ROOT::Detail::RDF::</text>
<text text-anchor="middle" x="719.25" y="-954.75" font-family="Helvetica,sans-Serif" font-size="10.00">RActionImpl&lt; ExampleTreeHelper &gt;</text>
</a>
</g>
</g>
<!-- Node38&#45;&gt;Node1 -->
<g id="edge44_Node000001_Node000038" class="edge">
<title>Node38&#45;&gt;Node1</title>
<g id="a_edge44_Node000001_Node000038"><a xlink:title=" ">
<path fill="none" stroke="#63b8ff" d="M816.07,-949.25C849.93,-943.67 888.22,-937.03 923,-930.25 930.65,-928.76 938.75,-927.06 946.59,-925.35"/>
<polygon fill="#63b8ff" stroke="#63b8ff" points="815.57,-945.79 806.27,-950.86 816.7,-952.69 815.57,-945.79"/>
</a>
</g>
</g>
<!-- Node39 -->
<g id="Node000039" class="node">
<title>Node39</title>
<g id="a_Node000039"><a xlink:title=" ">
<polygon fill="white" stroke="#666666" points="769.25,-930.5 669.25,-930.5 669.25,-900 769.25,-900 769.25,-930.5"/>
<text text-anchor="start" x="677.25" y="-917" font-family="Helvetica,sans-Serif" font-size="10.00">std::map&lt; unsigned</text>
<text text-anchor="middle" x="719.25" y="-905.75" font-family="Helvetica,sans-Serif" font-size="10.00"> int, double * &gt;</text>
</a>
</g>
</g>
<!-- Node39&#45;&gt;Node1 -->
<g id="edge45_Node000001_Node000039" class="edge">
<title>Node39&#45;&gt;Node1</title>
<g id="a_edge45_Node000001_Node000039"><a xlink:title=" ">
<path fill="none" stroke="#9a32cd" stroke-dasharray="5,2" d="M780.99,-915.25C829.12,-915.25 895.54,-915.25 940.57,-915.25"/>
<polygon fill="#9a32cd" stroke="#9a32cd" points="780.99,-911.75 770.99,-915.25 780.99,-918.75 780.99,-911.75"/>
</a>
</g>
<text text-anchor="middle" x="872.75" y="-917" font-family="Helvetica,sans-Serif" font-size="10.00" fill="grey"> fSuppressedAddback2</text>
</g>
<!-- Node40 -->
<g id="Node000040" class="node">
<title>Node40</title>
<g id="a_Node000040"><a xlink:title=" ">
<polygon fill="white" stroke="#666666" points="785.38,-881.5 653.12,-881.5 653.12,-851 785.38,-851 785.38,-881.5"/>
<text text-anchor="start" x="661.12" y="-868" font-family="Helvetica,sans-Serif" font-size="10.00">std::map&lt; unsigned</text>
<text text-anchor="middle" x="719.25" y="-856.75" font-family="Helvetica,sans-Serif" font-size="10.00"> int, std::vector&lt; double &gt; &gt;</text>
</a>
</g>
</g>
<!-- Node40&#45;&gt;Node1 -->
<g id="edge46_Node000001_Node000040" class="edge">
<title>Node40&#45;&gt;Node1</title>
<g id="a_edge46_Node000001_Node000040"><a xlink:title=" ">
<path fill="none" stroke="#9a32cd" stroke-dasharray="5,2" d="M796.93,-869.97C835.22,-873.03 882.01,-878.6 923,-888.75 938.86,-892.68 955.99,-899.45 969,-905.16"/>
<polygon fill="#9a32cd" stroke="#9a32cd" points="797.59,-866.51 787.36,-869.25 797.07,-873.49 797.59,-866.51"/>
</a>
</g>
<text text-anchor="middle" x="872.75" y="-901.75" font-family="Helvetica,sans-Serif" font-size="10.00" fill="grey"> fBetaGammaTiming</text>
<text text-anchor="middle" x="872.75" y="-890.5" font-family="Helvetica,sans-Serif" font-size="10.00" fill="grey">fSuppressedAddback</text>
</g>
<!-- Node41 -->
<g id="Node000041" class="node">
<title>Node41</title>
<g id="a_Node000041"><a xlink:title=" ">
<polygon fill="white" stroke="#666666" points="769.25,-832.5 669.25,-832.5 669.25,-802 769.25,-802 769.25,-832.5"/>
<text text-anchor="start" x="677.25" y="-819" font-family="Helvetica,sans-Serif" font-size="10.00">std::map&lt; unsigned</text>
<text text-anchor="middle" x="719.25" y="-807.75" font-family="Helvetica,sans-Serif" font-size="10.00"> int, int &gt;</text>
</a>
</g>
</g>
<!-- Node41&#45;&gt;Node1 -->
<g id="edge47_Node000001_Node000041" class="edge">
<title>Node41&#45;&gt;Node1</title>
<g id="a_edge47_Node000001_Node000041"><a xlink:title=" ">
<path fill="none" stroke="#9a32cd" stroke-dasharray="5,2" d="M780.97,-820.94C822.67,-825.4 878.34,-835.25 923,-857 947.47,-868.92 970.14,-891.98 981.92,-905.23"/>
<polygon fill="#9a32cd" stroke="#9a32cd" points="781.4,-817.46 771.1,-819.97 780.71,-824.43 781.4,-817.46"/>
</a>
</g>
<text text-anchor="middle" x="872.75" y="-858.75" font-family="Helvetica,sans-Serif" font-size="10.00" fill="grey"> fGriffinMultiplicity</text>
</g>
</g>
</svg>
