<?xml version="1.0" encoding="UTF-8" standalone="no"?>
<!DOCTYPE svg PUBLIC "-//W3C//DTD SVG 1.1//EN"
 "http://www.w3.org/Graphics/SVG/1.1/DTD/svg11.dtd">
<!-- Generated by graphviz version 12.2.0 (20241103.1931)
 -->
<!-- Title: TSourceTab Pages: 1 -->
<!--zoomable 800 -->

<svg id="main" version="1.1" xmlns="http://www.w3.org/2000/svg" xmlns:xlink="http://www.w3.org/1999/xlink" xml:space="preserve" onload="init(evt)">

<style type="text/css"><![CDATA[
.node, .edge {opacity: 0.7;}
.node.selected, .edge.selected {opacity: 1;}
.edge:hover path { stroke: red; }
.edge:hover polygon { stroke: red; fill: red; }
]]></style>

<defs>
  <circle id="rim" cx="0" cy="0" r="7"/>
  <circle id="rim2" cx="0" cy="0" r="3.5"/>
  <g id="zoomPlus">
    <use xlink:href="#rim" fill="#404040"><set attributeName="fill" to="#808080" begin="zoomplus.mouseover" end="zoomplus.mouseout"/></use>
    <path d="M-4,0h8M0,-4v8" fill="none" stroke="white" stroke-width="1.5" pointer-events="none"/>
  </g>
  <g id="zoomMin">
    <use xlink:href="#rim" fill="#404040"><set attributeName="fill" to="#808080" begin="zoomminus.mouseover" end="zoomminus.mouseout"/></use>
    <path d="M-4,0h8" fill="none" stroke="white" stroke-width="1.5" pointer-events="none"/>
  </g>
  <g id="arrowUp" transform="translate(30 24)">
    <use xlink:href="#rim"/>
    <path pointer-events="none" fill="none" stroke="white" stroke-width="1.5" d="M0,-3.0v7 M-2.5,-0.5L0,-3.0L2.5,-0.5"/>
  </g>
  <g id="arrowRight" transform="rotate(90) translate(36 -43)">
    <use xlink:href="#rim"/>
    <path pointer-events="none" fill="none" stroke="white" stroke-width="1.5" d="M0,-3.0v7 M-2.5,-0.5L0,-3.0L2.5,-0.5"/>
  </g>
  <g id="arrowDown" transform="rotate(180) translate(-30 -48)">
    <use xlink:href="#rim"/>
    <path pointer-events="none" fill="none" stroke="white" stroke-width="1.5" d="M0,-3.0v7 M-2.5,-0.5L0,-3.0L2.5,-0.5"/>
  </g>
  <g id="arrowLeft" transform="rotate(270) translate(-36 17)">
    <use xlink:href="#rim"/>
    <path pointer-events="none" fill="none" stroke="white" stroke-width="1.5" d="M0,-3.0v7 M-2.5,-0.5L0,-3.0L2.5,-0.5"/>
  </g>
  <g id="resetDef">
    <use xlink:href="#rim2" fill="#404040"><set attributeName="fill" to="#808080" begin="reset.mouseover" end="reset.mouseout"/></use>
  </g>
</defs>
<script type="application/ecmascript">
var viewWidth = 928;
var viewHeight = 800;
var sectionId = 'dynsection-0';
</script>
<script type="application/ecmascript" xlink:href="svg.min.js"/>
<svg id="graph" class="graph">
<g id="viewport">
<title>TSourceTab</title>
<!-- Node1 -->
<g id="Node000001" class="node">
<title>Node1</title>
<g id="a_Node000001"><a xlink:title=" ">
<polygon fill="#999999" stroke="#666666" points="919.5,-186.95 850.25,-186.95 850.25,-167.7 919.5,-167.7 919.5,-186.95"/>
<text text-anchor="middle" x="884.88" y="-173.45" font-family="Helvetica,sans-Serif" font-size="10.00">TSourceTab</text>
</a>
</g>
</g>
<!-- Node2 -->
<g id="Node000002" class="node">
<title>Node2</title>
<g id="a_Node000002"><a xlink:href="class_t_channel_tab.html" target="_top" xlink:title=" ">
<polygon fill="white" stroke="#666666" points="718.62,-473.95 644.88,-473.95 644.88,-454.7 718.62,-454.7 718.62,-473.95"/>
<text text-anchor="middle" x="681.75" y="-460.45" font-family="Helvetica,sans-Serif" font-size="10.00">TChannelTab</text>
</a>
</g>
</g>
<!-- Node2&#45;&gt;Node1 -->
<g id="edge1_Node000001_Node000002" class="edge">
<title>Node2&#45;&gt;Node1</title>
<g id="a_edge1_Node000001_Node000002"><a xlink:title=" ">
<path fill="none" stroke="#9a32cd" stroke-dasharray="5,2" d="M696.05,-445.35C735,-389.77 847.9,-228.65 876.98,-187.16"/>
<polygon fill="#9a32cd" stroke="#9a32cd" points="693.41,-443.01 690.54,-453.21 699.15,-447.03 693.41,-443.01"/>
</a>
</g>
<text text-anchor="middle" x="799.62" y="-339.76" font-family="Helvetica,sans-Serif" font-size="10.00" fill="grey"> fParent</text>
</g>
<!-- Node3 -->
<g id="Node000003" class="node">
<title>Node3</title>
<g id="a_Node000003"><a xlink:title=" ">
<polygon fill="white" stroke="#666666" points="520.75,-600.95 384,-600.95 384,-581.7 520.75,-581.7 520.75,-600.95"/>
<text text-anchor="middle" x="452.38" y="-587.45" font-family="Helvetica,sans-Serif" font-size="10.00">std::vector&lt; TSourceTab * &gt;</text>
</a>
</g>
</g>
<!-- Node3&#45;&gt;Node2 -->
<g id="edge2_Node000002_Node000003" class="edge">
<title>Node3&#45;&gt;Node2</title>
<g id="a_edge2_Node000002_Node000003"><a xlink:title=" ">
<path fill="none" stroke="#9a32cd" stroke-dasharray="5,2" d="M532.5,-587.59C554.33,-583.94 577.28,-577.5 596.5,-566.33 635.81,-543.47 664.71,-494.95 675.79,-474.14"/>
<polygon fill="#9a32cd" stroke="#9a32cd" points="532.09,-584.11 522.7,-589.03 533.11,-591.04 532.09,-584.11"/>
</a>
</g>
<text text-anchor="middle" x="567.62" y="-587.79" font-family="Helvetica,sans-Serif" font-size="10.00" fill="grey"> fSources</text>
</g>
<!-- Node4 -->
<g id="Node000004" class="node">
<title>Node4</title>
<g id="a_Node000004"><a xlink:href="class_t_source_calibration.html" target="_top" xlink:title=" ">
<polygon fill="white" stroke="#666666" points="501.62,-320.95 403.12,-320.95 403.12,-301.7 501.62,-301.7 501.62,-320.95"/>
<text text-anchor="middle" x="452.38" y="-307.45" font-family="Helvetica,sans-Serif" font-size="10.00">TSourceCalibration</text>
</a>
</g>
</g>
<!-- Node4&#45;&gt;Node2 -->
<g id="edge3_Node000002_Node000004" class="edge">
<title>Node4&#45;&gt;Node2</title>
<g id="a_edge3_Node000002_Node000004"><a xlink:title=" ">
<path fill="none" stroke="#9a32cd" stroke-dasharray="5,2" d="M477.73,-327.71C524.87,-359.44 627.33,-428.38 665.78,-454.25"/>
<polygon fill="#9a32cd" stroke="#9a32cd" points="479.8,-324.89 469.55,-322.21 475.89,-330.7 479.8,-324.89"/>
</a>
</g>
<text text-anchor="middle" x="567.62" y="-407.78" font-family="Helvetica,sans-Serif" font-size="10.00" fill="grey"> fParent</text>
</g>
<!-- Node5 -->
<g id="Node000005" class="node">
<title>Node5</title>
<g id="a_Node000005"><a xlink:title=" ">
<polygon fill="white" stroke="#666666" points="240.75,-137.95 162.5,-137.95 162.5,-118.7 240.75,-118.7 240.75,-137.95"/>
<text text-anchor="middle" x="201.62" y="-124.45" font-family="Helvetica,sans-Serif" font-size="10.00">TGMainFrame</text>
</a>
</g>
</g>
<!-- Node5&#45;&gt;Node4 -->
<g id="edge4_Node000004_Node000005" class="edge">
<title>Node5&#45;&gt;Node4</title>
<g id="a_edge4_Node000004_Node000005"><a xlink:title=" ">
<path fill="none" stroke="#63b8ff" d="M252.69,-123.26C289.3,-122.52 337.38,-128.27 366,-158.33 407.74,-202.16 344.03,-247.86 384,-293.33 389.04,-299.05 395.67,-303.05 402.82,-305.83"/>
<polygon fill="#63b8ff" stroke="#63b8ff" points="252.62,-119.76 242.76,-123.64 252.89,-126.75 252.62,-119.76"/>
</a>
</g>
</g>
<!-- Node6 -->
<g id="Node000006" class="node">
<title>Node6</title>
<g id="a_Node000006"><a xlink:title=" ">
<polygon fill="white" stroke="#666666" points="272.25,-100.95 131,-100.95 131,-81.7 272.25,-81.7 272.25,-100.95"/>
<text text-anchor="middle" x="201.62" y="-87.45" font-family="Helvetica,sans-Serif" font-size="10.00">std::vector&lt; TChannelTab * &gt;</text>
</a>
</g>
</g>
<!-- Node6&#45;&gt;Node4 -->
<g id="edge5_Node000004_Node000006" class="edge">
<title>Node6&#45;&gt;Node4</title>
<g id="a_edge5_Node000004_Node000006"><a xlink:title=" ">
<path fill="none" stroke="#9a32cd" stroke-dasharray="5,2" d="M275.43,-80.83C307.43,-80.47 342.9,-86.59 366,-110.08 394.7,-139.24 357.52,-262.13 384,-293.33 388.94,-299.14 395.52,-303.18 402.65,-305.97"/>
<polygon fill="#9a32cd" stroke="#9a32cd" points="275.67,-77.32 265.8,-81.15 275.91,-84.31 275.67,-77.32"/>
</a>
</g>
<text text-anchor="middle" x="328.88" y="-111.83" font-family="Helvetica,sans-Serif" font-size="10.00" fill="grey"> fChannelTab</text>
</g>
<!-- Node7 -->
<g id="Node000007" class="node">
<title>Node7</title>
<g id="a_Node000007"><a xlink:title=" ">
<polygon fill="white" stroke="#666666" points="262.12,-63.95 141.12,-63.95 141.12,-44.7 262.12,-44.7 262.12,-63.95"/>
<text text-anchor="middle" x="201.62" y="-50.45" font-family="Helvetica,sans-Serif" font-size="10.00">std::vector&lt; TGLabel * &gt;</text>
</a>
</g>
</g>
<!-- Node7&#45;&gt;Node4 -->
<g id="edge6_Node000004_Node000007" class="edge">
<title>Node7&#45;&gt;Node4</title>
<g id="a_edge6_Node000004_Node000007"><a xlink:title=" ">
<path fill="none" stroke="#9a32cd" stroke-dasharray="5,2" d="M253.01,-42.45C289.42,-37.12 337.1,-37.39 366,-66.08 401.95,-101.77 351.58,-254.4 384,-293.33 388.96,-299.28 395.65,-303.38 402.89,-306.19"/>
<polygon fill="#9a32cd" stroke="#9a32cd" points="252.89,-38.92 243.6,-44.01 254.03,-45.82 252.89,-38.92"/>
</a>
</g>
<text text-anchor="middle" x="328.88" y="-67.83" font-family="Helvetica,sans-Serif" font-size="10.00" fill="grey"> fMatrixNames</text>
</g>
<!-- Node8 -->
<g id="Node000008" class="node">
<title>Node8</title>
<g id="a_Node000008"><a xlink:title=" ">
<polygon fill="white" stroke="#666666" points="273.75,-26.95 129.5,-26.95 129.5,-7.7 273.75,-7.7 273.75,-26.95"/>
<text text-anchor="middle" x="201.62" y="-13.45" font-family="Helvetica,sans-Serif" font-size="10.00">std::vector&lt; TGComboBox * &gt;</text>
</a>
</g>
</g>
<!-- Node8&#45;&gt;Node4 -->
<g id="edge7_Node000004_Node000008" class="edge">
<title>Node8&#45;&gt;Node4</title>
<g id="a_edge7_Node000004_Node000008"><a xlink:title=" ">
<path fill="none" stroke="#9a32cd" stroke-dasharray="5,2" d="M247.83,-4.87C284.74,2.28 335.59,4.74 366,-25.08 408.66,-66.91 346.05,-247.19 384,-293.33 388.92,-299.31 395.59,-303.43 402.83,-306.24"/>
<polygon fill="#9a32cd" stroke="#9a32cd" points="247.39,-1.39 238.34,-6.89 248.85,-8.23 247.39,-1.39"/>
</a>
</g>
<text text-anchor="middle" x="328.88" y="-26.83" font-family="Helvetica,sans-Serif" font-size="10.00" fill="grey"> fSourceBox</text>
</g>
<!-- Node9 -->
<g id="Node000009" class="node">
<title>Node9</title>
<g id="a_Node000009"><a xlink:title=" ">
<polygon fill="white" stroke="#666666" points="264.38,-497.95 138.88,-497.95 138.88,-478.7 264.38,-478.7 264.38,-497.95"/>
<text text-anchor="middle" x="201.62" y="-484.45" font-family="Helvetica,sans-Serif" font-size="10.00">std::vector&lt; TNucleus * &gt;</text>
</a>
</g>
</g>
<!-- Node9&#45;&gt;Node2 -->
<g id="edge18_Node000002_Node000009" class="edge">
<title>Node9&#45;&gt;Node2</title>
<g id="a_edge18_Node000002_Node000009"><a xlink:title=" ">
<path fill="none" stroke="#9a32cd" stroke-dasharray="5,2" d="M275.98,-484.64C379.96,-479.42 566.26,-470.07 644.54,-466.14"/>
<polygon fill="#9a32cd" stroke="#9a32cd" points="275.96,-481.14 266.15,-485.14 276.32,-488.13 275.96,-481.14"/>
</a>
</g>
<text text-anchor="middle" x="452.38" y="-480.85" font-family="Helvetica,sans-Serif" font-size="10.00" fill="grey"> fNuclei</text>
</g>
<!-- Node9&#45;&gt;Node4 -->
<g id="edge8_Node000004_Node000009" class="edge">
<title>Node9&#45;&gt;Node4</title>
<g id="a_edge8_Node000004_Node000009"><a xlink:title=" ">
<path fill="none" stroke="#9a32cd" stroke-dasharray="5,2" d="M257.4,-475.19C291.23,-465.09 334.13,-448.52 366,-423.33 403.98,-393.31 434.28,-342.72 446.06,-321.34"/>
<polygon fill="#9a32cd" stroke="#9a32cd" points="256.86,-471.7 248.21,-477.82 258.79,-478.43 256.86,-471.7"/>
</a>
</g>
<text text-anchor="middle" x="328.88" y="-464.04" font-family="Helvetica,sans-Serif" font-size="10.00" fill="grey"> fSource</text>
</g>
<!-- Node10 -->
<g id="Node000010" class="node">
<title>Node10</title>
<g id="a_Node000010"><a xlink:title=" ">
<polygon fill="white" stroke="#666666" points="270,-455.2 133.25,-455.2 133.25,-413.45 270,-413.45 270,-455.2"/>
<text text-anchor="start" x="141.25" y="-441.7" font-family="Helvetica,sans-Serif" font-size="10.00">std::vector&lt; std::vector</text>
<text text-anchor="start" x="141.25" y="-430.45" font-family="Helvetica,sans-Serif" font-size="10.00">&lt; std::tuple&lt; double, double,</text>
<text text-anchor="middle" x="201.62" y="-419.2" font-family="Helvetica,sans-Serif" font-size="10.00"> double, double &gt; &gt; &gt;</text>
</a>
</g>
</g>
<!-- Node10&#45;&gt;Node2 -->
<g id="edge21_Node000002_Node000010" class="edge">
<title>Node10&#45;&gt;Node2</title>
<g id="a_edge21_Node000002_Node000010"><a xlink:title=" ">
<path fill="none" stroke="#9a32cd" stroke-dasharray="5,2" d="M281.85,-439.3C386.87,-445.89 567.84,-457.24 644.62,-462.06"/>
<polygon fill="#9a32cd" stroke="#9a32cd" points="282.08,-435.8 271.88,-438.67 281.64,-442.79 282.08,-435.8"/>
</a>
</g>
<text text-anchor="middle" x="452.38" y="-455.99" font-family="Helvetica,sans-Serif" font-size="10.00" fill="grey"> fSourceEnergies</text>
</g>
<!-- Node10&#45;&gt;Node4 -->
<g id="edge9_Node000004_Node000010" class="edge">
<title>Node10&#45;&gt;Node4</title>
<g id="a_edge9_Node000004_Node000010"><a xlink:title=" ">
<path fill="none" stroke="#9a32cd" stroke-dasharray="5,2" d="M280.98,-412.1C320.86,-400.65 361.85,-388.61 366,-386.33 397.97,-368.72 428.32,-337.39 442.69,-321.37"/>
<polygon fill="#9a32cd" stroke="#9a32cd" points="280.17,-408.69 271.52,-414.81 282.1,-415.42 280.17,-408.69"/>
</a>
</g>
<text text-anchor="middle" x="328.88" y="-409.66" font-family="Helvetica,sans-Serif" font-size="10.00" fill="grey"> fSourceEnergy</text>
</g>
<!-- Node11 -->
<g id="Node000011" class="node">
<title>Node11</title>
<g id="a_Node000011"><a xlink:title=" ">
<polygon fill="white" stroke="#666666" points="245.62,-357.95 157.62,-357.95 157.62,-338.7 245.62,-338.7 245.62,-357.95"/>
<text text-anchor="middle" x="201.62" y="-344.45" font-family="Helvetica,sans-Serif" font-size="10.00">std::vector&lt; int &gt;</text>
</a>
</g>
</g>
<!-- Node11&#45;&gt;Node4 -->
<g id="edge10_Node000004_Node000011" class="edge">
<title>Node11&#45;&gt;Node4</title>
<g id="a_edge10_Node000004_Node000011"><a xlink:title=" ">
<path fill="none" stroke="#9a32cd" stroke-dasharray="5,2" d="M257.16,-336.2C268.55,-333.9 280.52,-331.64 291.75,-329.83 328.79,-323.85 370.97,-319.04 402.67,-315.83"/>
<polygon fill="#9a32cd" stroke="#9a32cd" points="256.56,-332.75 247.48,-338.21 257.98,-339.61 256.56,-332.75"/>
</a>
</g>
<text text-anchor="middle" x="328.88" y="-342.83" font-family="Helvetica,sans-Serif" font-size="10.00" fill="grey"> fActiveBins</text>
<text text-anchor="middle" x="328.88" y="-331.58" font-family="Helvetica,sans-Serif" font-size="10.00" fill="grey">fActualChannelId</text>
</g>
<!-- Node12 -->
<g id="Node000012" class="node">
<title>Node12</title>
<g id="a_Node000012"><a xlink:title=" ">
<polygon fill="white" stroke="#666666" points="248.25,-320.58 155,-320.58 155,-290.08 248.25,-290.08 248.25,-320.58"/>
<text text-anchor="start" x="163" y="-307.08" font-family="Helvetica,sans-Serif" font-size="10.00">std::vector&lt; const</text>
<text text-anchor="middle" x="201.62" y="-295.83" font-family="Helvetica,sans-Serif" font-size="10.00"> char * &gt;</text>
</a>
</g>
</g>
<!-- Node12&#45;&gt;Node4 -->
<g id="edge11_Node000004_Node000012" class="edge">
<title>Node12&#45;&gt;Node4</title>
<g id="a_edge11_Node000004_Node000012"><a xlink:title=" ">
<path fill="none" stroke="#9a32cd" stroke-dasharray="5,2" d="M259.64,-297.38C291.05,-294.09 330.72,-291.75 366,-295.08 379.37,-296.34 393.76,-298.68 406.85,-301.21"/>
<polygon fill="#9a32cd" stroke="#9a32cd" points="259.52,-293.87 249.96,-298.45 260.29,-300.82 259.52,-293.87"/>
</a>
</g>
<text text-anchor="middle" x="328.88" y="-296.83" font-family="Helvetica,sans-Serif" font-size="10.00" fill="grey"> fChannelLabel</text>
</g>
<!-- Node13 -->
<g id="Node000013" class="node">
<title>Node13</title>
<g id="a_Node000013"><a xlink:title=" ">
<polygon fill="white" stroke="#666666" points="267.75,-272.2 135.5,-272.2 135.5,-230.45 267.75,-230.45 267.75,-272.2"/>
<text text-anchor="start" x="143.5" y="-258.7" font-family="Helvetica,sans-Serif" font-size="10.00">std::queue&lt; std::pair</text>
<text text-anchor="start" x="143.5" y="-247.45" font-family="Helvetica,sans-Serif" font-size="10.00">&lt; int, std::future&lt; TChannel</text>
<text text-anchor="middle" x="201.62" y="-236.2" font-family="Helvetica,sans-Serif" font-size="10.00">Tab * &gt; &gt; &gt;</text>
</a>
</g>
</g>
<!-- Node13&#45;&gt;Node4 -->
<g id="edge12_Node000004_Node000013" class="edge">
<title>Node13&#45;&gt;Node4</title>
<g id="a_edge12_Node000004_Node000013"><a xlink:title=" ">
<path fill="none" stroke="#9a32cd" stroke-dasharray="5,2" d="M279.64,-255.34C307.8,-258.99 339.28,-265.74 366,-278.08 375.52,-282.47 374.71,-288.47 384,-293.33 390.01,-296.47 396.61,-299.1 403.26,-301.29"/>
<polygon fill="#9a32cd" stroke="#9a32cd" points="280.05,-251.86 269.71,-254.17 279.24,-258.81 280.05,-251.86"/>
</a>
</g>
<text text-anchor="middle" x="328.88" y="-279.83" font-family="Helvetica,sans-Serif" font-size="10.00" fill="grey"> fFutures</text>
</g>
<!-- Node14 -->
<g id="Node000014" class="node">
<title>Node14</title>
<g id="a_Node000014"><a xlink:title=" ">
<polygon fill="white" stroke="#666666" points="252.75,-211.95 150.5,-211.95 150.5,-192.7 252.75,-192.7 252.75,-211.95"/>
<text text-anchor="middle" x="201.62" y="-198.45" font-family="Helvetica,sans-Serif" font-size="10.00">std::vector&lt; TH2 * &gt;</text>
</a>
</g>
</g>
<!-- Node14&#45;&gt;Node4 -->
<g id="edge13_Node000004_Node000014" class="edge">
<title>Node14&#45;&gt;Node4</title>
<g id="a_edge13_Node000004_Node000014"><a xlink:title=" ">
<path fill="none" stroke="#9a32cd" stroke-dasharray="5,2" d="M264.23,-203.47C298.01,-207.19 338.49,-217.17 366,-242.08 383.9,-258.28 366.29,-276.92 384,-293.33 389.33,-298.26 395.86,-301.87 402.74,-304.51"/>
<polygon fill="#9a32cd" stroke="#9a32cd" points="264.85,-200.01 254.57,-202.57 264.2,-206.98 264.85,-200.01"/>
</a>
</g>
<text text-anchor="middle" x="328.88" y="-243.83" font-family="Helvetica,sans-Serif" font-size="10.00" fill="grey"> fMatrices</text>
</g>
<!-- Node15 -->
<g id="Node000015" class="node">
<title>Node15</title>
<g id="a_Node000015"><a xlink:title=" ">
<polygon fill="white" stroke="#666666" points="230.62,-561.95 172.62,-561.95 172.62,-542.7 230.62,-542.7 230.62,-561.95"/>
<text text-anchor="middle" x="201.62" y="-548.45" font-family="Helvetica,sans-Serif" font-size="10.00">std::string</text>
</a>
</g>
</g>
<!-- Node15&#45;&gt;Node2 -->
<g id="edge20_Node000002_Node000015" class="edge">
<title>Node15&#45;&gt;Node2</title>
<g id="a_edge20_Node000002_Node000015"><a xlink:title=" ">
<path fill="none" stroke="#9a32cd" stroke-dasharray="5,2" d="M242.14,-549.13C275.32,-546.17 323.93,-541.19 366,-534.33 469.46,-517.45 494.28,-507.54 596.5,-484.33 612.33,-480.73 629.8,-476.61 644.71,-473.04"/>
<polygon fill="#9a32cd" stroke="#9a32cd" points="242.25,-545.61 232.59,-549.96 242.85,-552.58 242.25,-545.61"/>
</a>
</g>
<text text-anchor="middle" x="452.38" y="-532.79" font-family="Helvetica,sans-Serif" font-size="10.00" fill="grey"> fName</text>
</g>
<!-- Node15&#45;&gt;Node4 -->
<g id="edge14_Node000004_Node000015" class="edge">
<title>Node15&#45;&gt;Node4</title>
<g id="a_edge14_Node000004_Node000015"><a xlink:title=" ">
<path fill="none" stroke="#9a32cd" stroke-dasharray="5,2" d="M241.68,-538.75C284.4,-523.17 349.06,-497.22 366,-477.33 385.43,-454.5 371.53,-439.58 384,-412.33 400.49,-376.29 429.1,-338.71 443.13,-321.29"/>
<polygon fill="#9a32cd" stroke="#9a32cd" points="240.72,-535.37 232.5,-542.06 243.09,-541.96 240.72,-535.37"/>
</a>
</g>
<text text-anchor="middle" x="328.88" y="-520.55" font-family="Helvetica,sans-Serif" font-size="10.00" fill="grey"> fLogFile</text>
</g>
<!-- Node20 -->
<g id="Node000020" class="node">
<title>Node20</title>
<g id="a_Node000020"><a xlink:href="class_t_calibration_graph_set.html" target="_top" xlink:title=" ">
<polygon fill="white" stroke="#666666" points="506.88,-674.95 397.88,-674.95 397.88,-655.7 506.88,-655.7 506.88,-674.95"/>
<text text-anchor="middle" x="452.38" y="-661.45" font-family="Helvetica,sans-Serif" font-size="10.00">TCalibrationGraphSet</text>
</a>
</g>
</g>
<!-- Node15&#45;&gt;Node20 -->
<g id="edge28_Node000020_Node000015" class="edge">
<title>Node15&#45;&gt;Node20</title>
<g id="a_edge28_Node000020_Node000015"><a xlink:title=" ">
<path fill="none" stroke="#9a32cd" stroke-dasharray="5,2" d="M241.66,-563.59C275.4,-573.95 325.05,-590.74 366,-610.83 392.68,-623.91 421.34,-643.47 437.74,-655.25"/>
<polygon fill="#9a32cd" stroke="#9a32cd" points="242.9,-560.3 232.31,-560.76 240.87,-567 242.9,-560.3"/>
</a>
</g>
<text text-anchor="middle" x="328.88" y="-623.83" font-family="Helvetica,sans-Serif" font-size="10.00" fill="grey"> fXAxisLabel</text>
<text text-anchor="middle" x="328.88" y="-612.58" font-family="Helvetica,sans-Serif" font-size="10.00" fill="grey">fYAxisLabel</text>
</g>
<!-- Node16 -->
<g id="Node000016" class="node">
<title>Node16</title>
<g id="a_Node000016"><a xlink:title=" ">
<polygon fill="white" stroke="#666666" points="92.5,-567.58 0,-567.58 0,-537.08 92.5,-537.08 92.5,-567.58"/>
<text text-anchor="start" x="8" y="-554.08" font-family="Helvetica,sans-Serif" font-size="10.00">std::basic_string&lt;</text>
<text text-anchor="middle" x="46.25" y="-542.83" font-family="Helvetica,sans-Serif" font-size="10.00"> Char &gt;</text>
</a>
</g>
</g>
<!-- Node16&#45;&gt;Node15 -->
<g id="edge15_Node000015_Node000016" class="edge">
<title>Node16&#45;&gt;Node15</title>
<g id="a_edge15_Node000015_Node000016"><a xlink:title=" ">
<path fill="none" stroke="#63b8ff" d="M104.34,-552.33C127.53,-552.33 153.28,-552.33 172.31,-552.33"/>
<polygon fill="#63b8ff" stroke="#63b8ff" points="104.37,-548.83 94.37,-552.33 104.37,-555.83 104.37,-548.83"/>
</a>
</g>
</g>
<!-- Node17 -->
<g id="Node000017" class="node">
<title>Node17</title>
<g id="a_Node000017"><a xlink:href="class_t_redirect.html" target="_top" xlink:title=" ">
<polygon fill="white" stroke="#666666" points="230.62,-174.95 172.62,-174.95 172.62,-155.7 230.62,-155.7 230.62,-174.95"/>
<text text-anchor="middle" x="201.62" y="-161.45" font-family="Helvetica,sans-Serif" font-size="10.00">TRedirect</text>
</a>
</g>
</g>
<!-- Node17&#45;&gt;Node4 -->
<g id="edge16_Node000004_Node000017" class="edge">
<title>Node17&#45;&gt;Node4</title>
<g id="a_edge16_Node000004_Node000017"><a xlink:title=" ">
<path fill="none" stroke="#9a32cd" stroke-dasharray="5,2" d="M242.3,-160.32C279.42,-158.03 333.82,-161.19 366,-193.08 398.16,-224.93 353.35,-260.01 384,-293.33 389.08,-298.85 395.65,-302.75 402.7,-305.5"/>
<polygon fill="#9a32cd" stroke="#9a32cd" points="242.11,-156.83 232.42,-161.11 242.67,-163.81 242.11,-156.83"/>
</a>
</g>
<text text-anchor="middle" x="328.88" y="-194.83" font-family="Helvetica,sans-Serif" font-size="10.00" fill="grey"> fRedirect</text>
</g>
<!-- Node18 -->
<g id="Node000018" class="node">
<title>Node18</title>
<g id="a_Node000018"><a xlink:title=" ">
<polygon fill="white" stroke="#666666" points="231.75,-394.95 171.5,-394.95 171.5,-375.7 231.75,-375.7 231.75,-394.95"/>
<text text-anchor="middle" x="201.62" y="-381.45" font-family="Helvetica,sans-Serif" font-size="10.00">std::mutex</text>
</a>
</g>
</g>
<!-- Node18&#45;&gt;Node4 -->
<g id="edge17_Node000004_Node000018" class="edge">
<title>Node18&#45;&gt;Node4</title>
<g id="a_edge17_Node000004_Node000018"><a xlink:title=" ">
<path fill="none" stroke="#9a32cd" stroke-dasharray="5,2" d="M243.31,-379.98C276.81,-374.9 325.26,-365.98 366,-352.33 390.48,-344.12 417.04,-330.56 433.93,-321.3"/>
<polygon fill="#9a32cd" stroke="#9a32cd" points="243,-376.49 233.62,-381.4 244.02,-383.41 243,-376.49"/>
</a>
</g>
<text text-anchor="middle" x="328.88" y="-372.5" font-family="Helvetica,sans-Serif" font-size="10.00" fill="grey"> fGraphicsMutex</text>
</g>
<!-- Node19 -->
<g id="Node000019" class="node">
<title>Node19</title>
<g id="a_Node000019"><a xlink:title=" ">
<polygon fill="white" stroke="#666666" points="507.62,-283.95 397.12,-283.95 397.12,-264.7 507.62,-264.7 507.62,-283.95"/>
<text text-anchor="middle" x="452.38" y="-270.45" font-family="Helvetica,sans-Serif" font-size="10.00">std::vector&lt; GH1D * &gt;</text>
</a>
</g>
</g>
<!-- Node19&#45;&gt;Node2 -->
<g id="edge19_Node000002_Node000019" class="edge">
<title>Node19&#45;&gt;Node2</title>
<g id="a_edge19_Node000002_Node000019"><a xlink:title=" ">
<path fill="none" stroke="#9a32cd" stroke-dasharray="5,2" d="M511.77,-288.24C514.86,-289.49 517.87,-290.85 520.75,-292.33 597.74,-331.67 656.94,-423.81 675.02,-454.32"/>
<polygon fill="#9a32cd" stroke="#9a32cd" points="513.09,-284.99 502.5,-284.87 510.7,-291.57 513.09,-284.99"/>
</a>
</g>
<text text-anchor="middle" x="567.62" y="-352.18" font-family="Helvetica,sans-Serif" font-size="10.00" fill="grey"> fProjections</text>
</g>
<!-- Node20&#45;&gt;Node2 -->
<g id="edge22_Node000002_Node000020" class="edge">
<title>Node20&#45;&gt;Node2</title>
<g id="a_edge22_Node000002_Node000020"><a xlink:title=" ">
<path fill="none" stroke="#9a32cd" stroke-dasharray="5,2" d="M501.8,-651.76C531.63,-641.57 569.25,-625.22 596.5,-601.33 639.33,-563.77 667.4,-499.07 677.03,-474.34"/>
<polygon fill="#9a32cd" stroke="#9a32cd" points="501.04,-648.33 492.63,-654.77 503.22,-654.98 501.04,-648.33"/>
</a>
</g>
<text text-anchor="middle" x="567.62" y="-659.66" font-family="Helvetica,sans-Serif" font-size="10.00" fill="grey"> fData</text>
<text text-anchor="middle" x="567.62" y="-648.41" font-family="Helvetica,sans-Serif" font-size="10.00" fill="grey">fFwhm</text>
<text text-anchor="middle" x="567.62" y="-637.16" font-family="Helvetica,sans-Serif" font-size="10.00" fill="grey">fInit</text>
</g>
<!-- Node21 -->
<g id="Node000021" class="node">
<title>Node21</title>
<g id="a_Node000021"><a xlink:title=" ">
<polygon fill="white" stroke="#666666" points="228.38,-754.95 174.88,-754.95 174.88,-735.7 228.38,-735.7 228.38,-754.95"/>
<text text-anchor="middle" x="201.62" y="-741.45" font-family="Helvetica,sans-Serif" font-size="10.00">TNamed</text>
</a>
</g>
</g>
<!-- Node21&#45;&gt;Node20 -->
<g id="edge23_Node000020_Node000021" class="edge">
<title>Node21&#45;&gt;Node20</title>
<g id="a_edge23_Node000020_Node000021"><a xlink:title=" ">
<path fill="none" stroke="#63b8ff" d="M239.9,-740.7C273.57,-735.79 324.12,-726.6 366,-711.33 391.78,-701.92 419.34,-685.85 435.97,-675.4"/>
<polygon fill="#63b8ff" stroke="#63b8ff" points="239.65,-737.2 230.23,-742.05 240.62,-744.13 239.65,-737.2"/>
</a>
</g>
</g>
<!-- Node22 -->
<g id="Node000022" class="node">
<title>Node22</title>
<g id="a_Node000022"><a xlink:title=" ">
<polygon fill="white" stroke="#666666" points="230.62,-717.95 172.62,-717.95 172.62,-698.7 230.62,-698.7 230.62,-717.95"/>
<text text-anchor="middle" x="201.62" y="-704.45" font-family="Helvetica,sans-Serif" font-size="10.00">TQObject</text>
</a>
</g>
</g>
<!-- Node22&#45;&gt;Node20 -->
<g id="edge24_Node000020_Node000022" class="edge">
<title>Node22&#45;&gt;Node20</title>
<g id="a_edge24_Node000020_Node000022"><a xlink:title=" ">
<path fill="none" stroke="#63b8ff" d="M242.03,-706.77C275.34,-704.91 324.17,-700.89 366,-692.33 385.95,-688.24 407.84,-681.27 424.46,-675.43"/>
<polygon fill="#63b8ff" stroke="#63b8ff" points="242.25,-703.26 232.44,-707.27 242.61,-710.25 242.25,-703.26"/>
</a>
</g>
</g>
<!-- Node23 -->
<g id="Node000023" class="node">
<title>Node23</title>
<g id="a_Node000023"><a xlink:title=" ">
<polygon fill="white" stroke="#666666" points="262.12,-680.58 141.12,-680.58 141.12,-650.08 262.12,-650.08 262.12,-680.58"/>
<text text-anchor="start" x="149.12" y="-667.08" font-family="Helvetica,sans-Serif" font-size="10.00">std::vector&lt; TCalibration</text>
<text text-anchor="middle" x="201.62" y="-655.83" font-family="Helvetica,sans-Serif" font-size="10.00">Graph &gt;</text>
</a>
</g>
</g>
<!-- Node23&#45;&gt;Node20 -->
<g id="edge25_Node000020_Node000023" class="edge">
<title>Node23&#45;&gt;Node20</title>
<g id="a_edge25_Node000020_Node000023"><a xlink:title=" ">
<path fill="none" stroke="#9a32cd" stroke-dasharray="5,2" d="M273.9,-665.33C313.25,-665.33 361.32,-665.33 397.5,-665.33"/>
<polygon fill="#9a32cd" stroke="#9a32cd" points="274.04,-661.83 264.04,-665.33 274.04,-668.83 274.04,-661.83"/>
</a>
</g>
<text text-anchor="middle" x="328.88" y="-678.33" font-family="Helvetica,sans-Serif" font-size="10.00" fill="grey"> fGraphs</text>
<text text-anchor="middle" x="328.88" y="-667.08" font-family="Helvetica,sans-Serif" font-size="10.00" fill="grey">fResidualGraphs</text>
</g>
<!-- Node24 -->
<g id="Node000024" class="node">
<title>Node24</title>
<g id="a_Node000024"><a xlink:title=" ">
<polygon fill="white" stroke="#666666" points="261.38,-631.95 141.88,-631.95 141.88,-612.7 261.38,-612.7 261.38,-631.95"/>
<text text-anchor="middle" x="201.62" y="-618.45" font-family="Helvetica,sans-Serif" font-size="10.00">std::vector&lt; std::string &gt;</text>
</a>
</g>
</g>
<!-- Node24&#45;&gt;Node20 -->
<g id="edge26_Node000020_Node000024" class="edge">
<title>Node24&#45;&gt;Node20</title>
<g id="a_edge26_Node000020_Node000024"><a xlink:title=" ">
<path fill="none" stroke="#9a32cd" stroke-dasharray="5,2" d="M272.85,-634.12C301.72,-639 335.47,-644.76 366,-650.08 376.23,-651.86 387.15,-653.79 397.65,-655.66"/>
<polygon fill="#9a32cd" stroke="#9a32cd" points="273.57,-630.69 263.12,-632.48 272.4,-637.59 273.57,-630.69"/>
</a>
</g>
<text text-anchor="middle" x="328.88" y="-651.83" font-family="Helvetica,sans-Serif" font-size="10.00" fill="grey"> fLabel</text>
</g>
<!-- Node25 -->
<g id="Node000025" class="node">
<title>Node25</title>
<g id="a_Node000025"><a xlink:title=" ">
<polygon fill="white" stroke="#666666" points="253.12,-791.95 150.12,-791.95 150.12,-772.7 253.12,-772.7 253.12,-791.95"/>
<text text-anchor="middle" x="201.62" y="-778.45" font-family="Helvetica,sans-Serif" font-size="10.00">std::vector&lt; size_t &gt;</text>
</a>
</g>
</g>
<!-- Node25&#45;&gt;Node20 -->
<g id="edge27_Node000020_Node000025" class="edge">
<title>Node25&#45;&gt;Node20</title>
<g id="a_edge27_Node000020_Node000025"><a xlink:title=" ">
<path fill="none" stroke="#9a32cd" stroke-dasharray="5,2" d="M264.29,-771.19C295.95,-763.86 334.42,-752.4 366,-735.33 396.69,-718.73 426.89,-690.35 441.79,-675.33"/>
<polygon fill="#9a32cd" stroke="#9a32cd" points="263.87,-767.7 254.87,-773.28 265.39,-774.53 263.87,-767.7"/>
</a>
</g>
<text text-anchor="middle" x="328.88" y="-776.9" font-family="Helvetica,sans-Serif" font-size="10.00" fill="grey"> fGraphIndex</text>
<text text-anchor="middle" x="328.88" y="-765.65" font-family="Helvetica,sans-Serif" font-size="10.00" fill="grey">fPointIndex</text>
</g>
<!-- Node26 -->
<g id="Node000026" class="node">
<title>Node26</title>
<g id="a_Node000026"><a xlink:href="class_g_h1_d.html" target="_top" xlink:title=" ">
<polygon fill="white" stroke="#666666" points="703.25,-246.95 660.25,-246.95 660.25,-227.7 703.25,-227.7 703.25,-246.95"/>
<text text-anchor="middle" x="681.75" y="-233.45" font-family="Helvetica,sans-Serif" font-size="10.00">GH1D</text>
</a>
</g>
</g>
<!-- Node26&#45;&gt;Node1 -->
<g id="edge29_Node000001_Node000026" class="edge">
<title>Node26&#45;&gt;Node1</title>
<g id="a_edge29_Node000001_Node000026"><a xlink:title=" ">
<path fill="none" stroke="#9a32cd" stroke-dasharray="5,2" d="M714.84,-237.06C745.94,-235.78 793.91,-231.1 832.25,-215.33 848.31,-208.72 863.96,-196.05 873.75,-187.17"/>
<polygon fill="#9a32cd" stroke="#9a32cd" points="714.81,-233.56 704.92,-237.36 715.02,-240.55 714.81,-233.56"/>
</a>
</g>
<text text-anchor="middle" x="799.62" y="-233.74" font-family="Helvetica,sans-Serif" font-size="10.00" fill="grey"> fProjection</text>
</g>
<!-- Node27 -->
<g id="Node000027" class="node">
<title>Node27</title>
<g id="a_Node000027"><a xlink:title=" ">
<polygon fill="white" stroke="#666666" points="473.12,-246.95 431.62,-246.95 431.62,-227.7 473.12,-227.7 473.12,-246.95"/>
<text text-anchor="middle" x="452.38" y="-233.45" font-family="Helvetica,sans-Serif" font-size="10.00">TH1D</text>
</a>
</g>
</g>
<!-- Node27&#45;&gt;Node26 -->
<g id="edge30_Node000026_Node000027" class="edge">
<title>Node27&#45;&gt;Node26</title>
<g id="a_edge30_Node000026_Node000027"><a xlink:title=" ">
<path fill="none" stroke="#63b8ff" d="M484.91,-237.33C532.14,-237.33 619.98,-237.33 659.96,-237.33"/>
<polygon fill="#63b8ff" stroke="#63b8ff" points="485.07,-233.83 475.07,-237.33 485.07,-240.83 485.07,-233.83"/>
</a>
</g>
</g>
<!-- Node28 -->
<g id="Node000028" class="node">
<title>Node28</title>
<g id="a_Node000028"><a xlink:title=" ">
<polygon fill="white" stroke="#666666" points="498.62,-209.95 406.12,-209.95 406.12,-190.7 498.62,-190.7 498.62,-209.95"/>
<text text-anchor="middle" x="452.38" y="-196.45" font-family="Helvetica,sans-Serif" font-size="10.00">std::array&lt; int, 3 &gt;</text>
</a>
</g>
</g>
<!-- Node28&#45;&gt;Node26 -->
<g id="edge31_Node000026_Node000028" class="edge">
<title>Node28&#45;&gt;Node26</title>
<g id="a_edge31_Node000026_Node000028"><a xlink:title=" ">
<path fill="none" stroke="#9a32cd" stroke-dasharray="5,2" d="M510.17,-208.58C536.46,-212.5 568.1,-217.35 596.5,-222.08 618.2,-225.69 642.97,-230.22 660,-233.4"/>
<polygon fill="#9a32cd" stroke="#9a32cd" points="510.77,-205.13 500.37,-207.13 509.75,-212.05 510.77,-205.13"/>
</a>
</g>
<text text-anchor="middle" x="567.62" y="-223.83" font-family="Helvetica,sans-Serif" font-size="10.00" fill="grey"> fRegionColor</text>
</g>
<!-- Node29 -->
<g id="Node000029" class="node">
<title>Node29</title>
<g id="a_Node000029"><a xlink:title=" ">
<polygon fill="white" stroke="#666666" points="749,-206.95 614.5,-206.95 614.5,-187.7 749,-187.7 749,-206.95"/>
<text text-anchor="middle" x="681.75" y="-193.45" font-family="Helvetica,sans-Serif" font-size="10.00">std::vector&lt; TPeakFitter * &gt;</text>
</a>
</g>
</g>
<!-- Node29&#45;&gt;Node1 -->
<g id="edge32_Node000001_Node000029" class="edge">
<title>Node29&#45;&gt;Node1</title>
<g id="a_edge32_Node000001_Node000029"><a xlink:title=" ">
<path fill="none" stroke="#9a32cd" stroke-dasharray="5,2" d="M760.66,-189.58C791.52,-186.51 825.39,-183.14 849.8,-180.71"/>
<polygon fill="#9a32cd" stroke="#9a32cd" points="760.55,-186.07 750.95,-190.54 761.25,-193.04 760.55,-186.07"/>
</a>
</g>
<text text-anchor="middle" x="799.62" y="-201.52" font-family="Helvetica,sans-Serif" font-size="10.00" fill="grey"> fBadFits</text>
<text text-anchor="middle" x="799.62" y="-190.27" font-family="Helvetica,sans-Serif" font-size="10.00" fill="grey">fFits</text>
</g>
<!-- Node30 -->
<g id="Node000030" class="node">
<title>Node30</title>
<g id="a_Node000030"><a xlink:title=" ">
<polygon fill="white" stroke="#666666" points="740.75,-169.95 622.75,-169.95 622.75,-150.7 740.75,-150.7 740.75,-169.95"/>
<text text-anchor="middle" x="681.75" y="-156.45" font-family="Helvetica,sans-Serif" font-size="10.00">std::vector&lt; TGauss * &gt;</text>
</a>
</g>
</g>
<!-- Node30&#45;&gt;Node1 -->
<g id="edge33_Node000001_Node000030" class="edge">
<title>Node30&#45;&gt;Node1</title>
<g id="a_edge33_Node000001_Node000030"><a xlink:title=" ">
<path fill="none" stroke="#9a32cd" stroke-dasharray="5,2" d="M752.3,-156.37C777.6,-156.06 806.34,-157.03 832.25,-161.08 840.51,-162.37 849.27,-164.72 857.18,-167.25"/>
<polygon fill="#9a32cd" stroke="#9a32cd" points="752.37,-152.86 742.45,-156.56 752.51,-159.86 752.37,-152.86"/>
</a>
</g>
<text text-anchor="middle" x="799.62" y="-162.83" font-family="Helvetica,sans-Serif" font-size="10.00" fill="grey"> fPeaks</text>
</g>
<!-- Node31 -->
<g id="Node000031" class="node">
<title>Node31</title>
<g id="a_Node000031"><a xlink:title=" ">
<polygon fill="white" stroke="#666666" points="743.38,-132.2 620.12,-132.2 620.12,-90.45 743.38,-90.45 743.38,-132.2"/>
<text text-anchor="start" x="628.12" y="-118.7" font-family="Helvetica,sans-Serif" font-size="10.00">std::vector&lt; std::tuple</text>
<text text-anchor="start" x="628.12" y="-107.45" font-family="Helvetica,sans-Serif" font-size="10.00">&lt; double, double, double,</text>
<text text-anchor="middle" x="681.75" y="-96.2" font-family="Helvetica,sans-Serif" font-size="10.00"> double &gt; &gt;</text>
</a>
</g>
</g>
<!-- Node31&#45;&gt;Node1 -->
<g id="edge34_Node000001_Node000031" class="edge">
<title>Node31&#45;&gt;Node1</title>
<g id="a_edge34_Node000001_Node000031"><a xlink:title=" ">
<path fill="none" stroke="#9a32cd" stroke-dasharray="5,2" d="M755.07,-119.5C780.18,-123.94 808.09,-130.74 832.25,-141.08 847.55,-147.62 862.88,-159.18 872.81,-167.48"/>
<polygon fill="#9a32cd" stroke="#9a32cd" points="755.68,-116.05 745.24,-117.87 754.53,-122.96 755.68,-116.05"/>
</a>
</g>
<text text-anchor="middle" x="799.62" y="-142.83" font-family="Helvetica,sans-Serif" font-size="10.00" fill="grey"> fSourceEnergy</text>
</g>
<!-- Node32 -->
<g id="Node000032" class="node">
<title>Node32</title>
<g id="a_Node000032"><a xlink:title=" ">
<polygon fill="white" stroke="#666666" points="733.25,-72.58 630.25,-72.58 630.25,-42.08 733.25,-42.08 733.25,-72.58"/>
<text text-anchor="start" x="638.25" y="-59.08" font-family="Helvetica,sans-Serif" font-size="10.00">std::vector&lt; std::pair</text>
<text text-anchor="middle" x="681.75" y="-47.83" font-family="Helvetica,sans-Serif" font-size="10.00">&lt; double, double &gt; &gt;</text>
</a>
</g>
</g>
<!-- Node32&#45;&gt;Node1 -->
<g id="edge35_Node000001_Node000032" class="edge">
<title>Node32&#45;&gt;Node1</title>
<g id="a_edge35_Node000001_Node000032"><a xlink:title=" ">
<path fill="none" stroke="#9a32cd" stroke-dasharray="5,2" d="M744.57,-68.83C773.19,-76.33 806.48,-88.32 832.25,-107.08 854.64,-123.37 871.4,-152.27 879.14,-167.42"/>
<polygon fill="#9a32cd" stroke="#9a32cd" points="745.47,-65.45 734.92,-66.44 743.78,-72.24 745.47,-65.45"/>
</a>
</g>
<text text-anchor="middle" x="799.62" y="-108.83" font-family="Helvetica,sans-Serif" font-size="10.00" fill="grey"> fRegions</text>
</g>
</g>
</svg>

<g id="navigator" transform="translate(0 0)" fill="#404254">
  <rect fill="#f2f5e9" fill-opacity="0.5" stroke="#606060" stroke-width=".5" x="0" y="0" width="60" height="60"/>
  <use id="zoomplus" xlink:href="#zoomPlus" x="17" y="9" onmousedown="handleZoom(evt,'in')"/>
  <use id="zoomminus" xlink:href="#zoomMin" x="42" y="9" onmousedown="handleZoom(evt,'out')"/>
  <use id="reset" xlink:href="#resetDef" x="30" y="36" onmousedown="handleReset()"/>
   <use id="arrowup" xlink:href="#arrowUp" x="0" y="0" onmousedown="handlePan(0,-1)"/>
  <use id="arrowright" xlink:href="#arrowRight" x="0" y="0" onmousedown="handlePan(1,0)"/>
  <use id="arrowdown" xlink:href="#arrowDown" x="0" y="0" onmousedown="handlePan(0,1)"/>
  <use id="arrowleft" xlink:href="#arrowLeft" x="0" y="0" onmousedown="handlePan(-1,0)"/>
</g>
<svg viewBox="0 0 15 15" width="100%" height="30px" preserveAspectRatio="xMaxYMin meet">
 <g id="arrow_out" transform="scale(0.3 0.3)">
  <a xlink:href="class_t_source_tab__coll__graph_org.svg" target="_base">
   <rect id="button" ry="5" rx="5" y="6" x="6" height="38" width="38"
        fill="#f2f5e9" fill-opacity="0.5" stroke="#606060" stroke-width="1.0"/>
   <path id="arrow"
     d="M 11.500037,31.436501 C 11.940474,20.09759 22.043105,11.32322 32.158766,21.979434 L 37.068811,17.246167 C 37.068811,17.246167 37.088388,32 37.088388,32 L 22.160133,31.978069 C 22.160133,31.978069 26.997745,27.140456 26.997745,27.140456 C 18.528582,18.264221 13.291696,25.230495 11.500037,31.436501 z"
     style="fill:#404040;"/>
  </a>
 </g>
</svg>

<style type='text/css'>
<![CDATA[
[data-mouse-over-selected='false'] { opacity: 0.7; }
[data-mouse-over-selected='true']  { opacity: 1.0; }
]]>
</style>
<script type="application/ecmascript"><![CDATA[
document.addEventListener('DOMContentLoaded', (event) => {
  highlightEdges();
  highlightAdjacentNodes();
});
]]></script>
</svg>
