<?xml version="1.0" encoding="UTF-8" standalone="no"?>
<!DOCTYPE svg PUBLIC "-//W3C//DTD SVG 1.1//EN"
 "http://www.w3.org/Graphics/SVG/1.1/DTD/svg11.dtd">
<!-- Generated by graphviz version 9.0.0 (20230911.1827)
 -->
<!-- Title: TChannelTab Pages: 1 -->
<svg width="693pt" height="704pt"
 viewBox="0.00 0.00 692.50 703.88" xmlns="http://www.w3.org/2000/svg" xmlns:xlink="http://www.w3.org/1999/xlink">
<g id="graph0" class="graph" transform="scale(1 1) rotate(0) translate(4 699.88)">
<title>TChannelTab</title>
<!-- Node1 -->
<g id="Node000001" class="node">
<title>Node1</title>
<g id="a_Node000001"><a xlink:title=" ">
<polygon fill="#999999" stroke="#666666" points="684.5,-352.25 610.75,-352.25 610.75,-333 684.5,-333 684.5,-352.25"/>
<text text-anchor="middle" x="647.62" y="-338.75" font-family="Helvetica,sans-Serif" font-size="10.00">TChannelTab</text>
</a>
</g>
</g>
<!-- Node2 -->
<g id="Node000002" class="node">
<title>Node2</title>
<g id="a_Node000002"><a xlink:title=" ">
<polygon fill="white" stroke="#666666" points="520.75,-694.25 384,-694.25 384,-675 520.75,-675 520.75,-694.25"/>
<text text-anchor="middle" x="452.38" y="-680.75" font-family="Helvetica,sans-Serif" font-size="10.00">std::vector&lt; TSourceTab * &gt;</text>
</a>
</g>
</g>
<!-- Node2&#45;&gt;Node1 -->
<g id="edge1_Node000001_Node000002" class="edge">
<title>Node2&#45;&gt;Node1</title>
<g id="a_edge1_Node000001_Node000002"><a xlink:title=" ">
<path fill="none" stroke="#9a32cd" stroke-dasharray="5,2" d="M532.42,-686.72C554.58,-683.36 576.91,-675.61 592.75,-659.62 637.25,-614.72 645.18,-401.12 646.42,-352.49"/>
<polygon fill="#9a32cd" stroke="#9a32cd" points="532.26,-683.21 522.74,-687.88 533.09,-690.16 532.26,-683.21"/>
</a>
</g>
<text text-anchor="middle" x="565.75" y="-686.38" font-family="Helvetica,sans-Serif" font-size="10.00" fill="grey"> fSources</text>
</g>
<!-- Node3 -->
<g id="Node000003" class="node">
<title>Node3</title>
<g id="a_Node000003"><a xlink:href="class_t_source_calibration.html" target="_top" xlink:title=" ">
<polygon fill="white" stroke="#666666" points="501.62,-444.25 403.12,-444.25 403.12,-425 501.62,-425 501.62,-444.25"/>
<text text-anchor="middle" x="452.38" y="-430.75" font-family="Helvetica,sans-Serif" font-size="10.00">TSourceCalibration</text>
</a>
</g>
</g>
<!-- Node3&#45;&gt;Node1 -->
<g id="edge2_Node000001_Node000003" class="edge">
<title>Node3&#45;&gt;Node1</title>
<g id="a_edge2_Node000001_Node000003"><a xlink:title=" ">
<path fill="none" stroke="#9a32cd" stroke-dasharray="5,2" d="M484.58,-419.77C524.23,-400.9 591.57,-368.84 625.6,-352.63"/>
<polygon fill="#9a32cd" stroke="#9a32cd" points="483.32,-416.5 475.79,-423.95 486.32,-422.82 483.32,-416.5"/>
</a>
</g>
<text text-anchor="middle" x="565.75" y="-392.38" font-family="Helvetica,sans-Serif" font-size="10.00" fill="grey"> fParent</text>
</g>
<!-- Node4 -->
<g id="Node000004" class="node">
<title>Node4</title>
<g id="a_Node000004"><a xlink:title=" ">
<polygon fill="white" stroke="#666666" points="240.75,-401.25 162.5,-401.25 162.5,-382 240.75,-382 240.75,-401.25"/>
<text text-anchor="middle" x="201.62" y="-387.75" font-family="Helvetica,sans-Serif" font-size="10.00">TGMainFrame</text>
</a>
</g>
</g>
<!-- Node4&#45;&gt;Node3 -->
<g id="edge3_Node000003_Node000004" class="edge">
<title>Node4&#45;&gt;Node3</title>
<g id="a_edge3_Node000003_Node000004"><a xlink:title=" ">
<path fill="none" stroke="#63b8ff" d="M252.46,-400.24C296.22,-407.8 359.49,-418.74 402.86,-426.24"/>
<polygon fill="#63b8ff" stroke="#63b8ff" points="253.16,-396.81 242.71,-398.55 251.97,-403.71 253.16,-396.81"/>
</a>
</g>
</g>
<!-- Node5 -->
<g id="Node000005" class="node">
<title>Node5</title>
<g id="a_Node000005"><a xlink:title=" ">
<polygon fill="white" stroke="#666666" points="272.25,-303.25 131,-303.25 131,-284 272.25,-284 272.25,-303.25"/>
<text text-anchor="middle" x="201.62" y="-289.75" font-family="Helvetica,sans-Serif" font-size="10.00">std::vector&lt; TChannelTab * &gt;</text>
</a>
</g>
</g>
<!-- Node5&#45;&gt;Node3 -->
<g id="edge4_Node000003_Node000005" class="edge">
<title>Node5&#45;&gt;Node3</title>
<g id="a_edge4_Node000003_Node000005"><a xlink:title=" ">
<path fill="none" stroke="#9a32cd" stroke-dasharray="5,2" d="M254.95,-306.67C261.33,-308.53 267.72,-310.53 273.75,-312.62 315.93,-327.26 328.82,-327.66 366,-352.38 398.05,-373.69 428.83,-407.75 443.1,-424.56"/>
<polygon fill="#9a32cd" stroke="#9a32cd" points="256.34,-303.42 245.76,-304.08 254.44,-310.16 256.34,-303.42"/>
</a>
</g>
<text text-anchor="middle" x="328.88" y="-353.38" font-family="Helvetica,sans-Serif" font-size="10.00" fill="grey"> fChannelTab</text>
</g>
<!-- Node6 -->
<g id="Node000006" class="node">
<title>Node6</title>
<g id="a_Node000006"><a xlink:title=" ">
<polygon fill="white" stroke="#666666" points="262.12,-598.25 141.12,-598.25 141.12,-579 262.12,-579 262.12,-598.25"/>
<text text-anchor="middle" x="201.62" y="-584.75" font-family="Helvetica,sans-Serif" font-size="10.00">std::vector&lt; TGLabel * &gt;</text>
</a>
</g>
</g>
<!-- Node6&#45;&gt;Node3 -->
<g id="edge5_Node000003_Node000006" class="edge">
<title>Node6&#45;&gt;Node3</title>
<g id="a_edge5_Node000003_Node000006"><a xlink:title=" ">
<path fill="none" stroke="#9a32cd" stroke-dasharray="5,2" d="M273.68,-587.51C304.13,-584.14 338.85,-576.21 366,-558.62 410.53,-529.78 438.12,-468.71 447.64,-444.66"/>
<polygon fill="#9a32cd" stroke="#9a32cd" points="273.38,-584.02 263.75,-588.44 274.03,-590.99 273.38,-584.02"/>
</a>
</g>
<text text-anchor="middle" x="328.88" y="-585.38" font-family="Helvetica,sans-Serif" font-size="10.00" fill="grey"> fMatrixNames</text>
</g>
<!-- Node7 -->
<g id="Node000007" class="node">
<title>Node7</title>
<g id="a_Node000007"><a xlink:title=" ">
<polygon fill="white" stroke="#666666" points="273.75,-561.25 129.5,-561.25 129.5,-542 273.75,-542 273.75,-561.25"/>
<text text-anchor="middle" x="201.62" y="-547.75" font-family="Helvetica,sans-Serif" font-size="10.00">std::vector&lt; TGComboBox * &gt;</text>
</a>
</g>
</g>
<!-- Node7&#45;&gt;Node3 -->
<g id="edge6_Node000003_Node000007" class="edge">
<title>Node7&#45;&gt;Node3</title>
<g id="a_edge6_Node000003_Node000007"><a xlink:title=" ">
<path fill="none" stroke="#9a32cd" stroke-dasharray="5,2" d="M285.38,-545.04C312.24,-540.44 341.43,-532.68 366,-519.62 401.28,-500.88 431.44,-462.79 444.48,-444.66"/>
<polygon fill="#9a32cd" stroke="#9a32cd" points="284.86,-541.58 275.53,-546.59 285.95,-548.49 284.86,-541.58"/>
</a>
</g>
<text text-anchor="middle" x="328.88" y="-545.38" font-family="Helvetica,sans-Serif" font-size="10.00" fill="grey"> fSourceBox</text>
</g>
<!-- Node8 -->
<g id="Node000008" class="node">
<title>Node8</title>
<g id="a_Node000008"><a xlink:title=" ">
<polygon fill="white" stroke="#666666" points="264.38,-645.25 138.88,-645.25 138.88,-626 264.38,-626 264.38,-645.25"/>
<text text-anchor="middle" x="201.62" y="-631.75" font-family="Helvetica,sans-Serif" font-size="10.00">std::vector&lt; TNucleus * &gt;</text>
</a>
</g>
</g>
<!-- Node8&#45;&gt;Node1 -->
<g id="edge14_Node000001_Node000008" class="edge">
<title>Node8&#45;&gt;Node1</title>
<g id="a_edge14_Node000001_Node000008"><a xlink:title=" ">
<path fill="none" stroke="#9a32cd" stroke-dasharray="5,2" d="M276.01,-645.27C305.08,-646.21 338.13,-643.54 366,-631.62 509.39,-570.3 615.91,-396.52 640.99,-352.74"/>
<polygon fill="#9a32cd" stroke="#9a32cd" points="276.34,-641.79 266.18,-644.8 276,-648.78 276.34,-641.79"/>
</a>
</g>
<text text-anchor="middle" x="452.38" y="-622.38" font-family="Helvetica,sans-Serif" font-size="10.00" fill="grey"> fNuclei</text>
</g>
<!-- Node8&#45;&gt;Node3 -->
<g id="edge7_Node000003_Node000008" class="edge">
<title>Node8&#45;&gt;Node3</title>
<g id="a_edge7_Node000003_Node000008"><a xlink:title=" ">
<path fill="none" stroke="#9a32cd" stroke-dasharray="5,2" d="M267.08,-623.3C309.21,-614.78 357.89,-603.9 366,-597.62 419.06,-556.58 442.52,-473.19 449.24,-444.55"/>
<polygon fill="#9a32cd" stroke="#9a32cd" points="266.58,-619.83 257.46,-625.22 267.95,-626.69 266.58,-619.83"/>
</a>
</g>
<text text-anchor="middle" x="328.88" y="-619.38" font-family="Helvetica,sans-Serif" font-size="10.00" fill="grey"> fSource</text>
</g>
<!-- Node9 -->
<g id="Node000009" class="node">
<title>Node9</title>
<g id="a_Node000009"><a xlink:title=" ">
<polygon fill="white" stroke="#666666" points="270,-363.5 133.25,-363.5 133.25,-321.75 270,-321.75 270,-363.5"/>
<text text-anchor="start" x="141.25" y="-350" font-family="Helvetica,sans-Serif" font-size="10.00">std::vector&lt; std::vector</text>
<text text-anchor="start" x="141.25" y="-338.75" font-family="Helvetica,sans-Serif" font-size="10.00">&lt; std::tuple&lt; double, double,</text>
<text text-anchor="middle" x="201.62" y="-327.5" font-family="Helvetica,sans-Serif" font-size="10.00"> double, double &gt; &gt; &gt;</text>
</a>
</g>
</g>
<!-- Node9&#45;&gt;Node1 -->
<g id="edge17_Node000001_Node000009" class="edge">
<title>Node9&#45;&gt;Node1</title>
<g id="a_edge17_Node000001_Node000009"><a xlink:title=" ">
<path fill="none" stroke="#9a32cd" stroke-dasharray="5,2" d="M281.57,-342.62C378.6,-342.62 539.14,-342.62 610.51,-342.62"/>
<polygon fill="#9a32cd" stroke="#9a32cd" points="281.57,-339.13 271.57,-342.63 281.57,-346.13 281.57,-339.13"/>
</a>
</g>
<text text-anchor="middle" x="452.38" y="-344.38" font-family="Helvetica,sans-Serif" font-size="10.00" fill="grey"> fSourceEnergies</text>
</g>
<!-- Node9&#45;&gt;Node3 -->
<g id="edge8_Node000003_Node000009" class="edge">
<title>Node9&#45;&gt;Node3</title>
<g id="a_edge8_Node000003_Node000009"><a xlink:title=" ">
<path fill="none" stroke="#9a32cd" stroke-dasharray="5,2" d="M281.28,-363.74C308.45,-371.77 338.87,-381.62 366,-392.38 389.98,-401.89 416.44,-415.49 433.45,-424.67"/>
<polygon fill="#9a32cd" stroke="#9a32cd" points="282.28,-360.38 271.7,-360.94 280.32,-367.1 282.28,-360.38"/>
</a>
</g>
<text text-anchor="middle" x="328.88" y="-393.38" font-family="Helvetica,sans-Serif" font-size="10.00" fill="grey"> fSourceEnergy</text>
</g>
<!-- Node10 -->
<g id="Node000010" class="node">
<title>Node10</title>
<g id="a_Node000010"><a xlink:title=" ">
<polygon fill="white" stroke="#666666" points="245.62,-524.25 157.62,-524.25 157.62,-505 245.62,-505 245.62,-524.25"/>
<text text-anchor="middle" x="201.62" y="-510.75" font-family="Helvetica,sans-Serif" font-size="10.00">std::vector&lt; int &gt;</text>
</a>
</g>
</g>
<!-- Node10&#45;&gt;Node3 -->
<g id="edge9_Node000003_Node000010" class="edge">
<title>Node10&#45;&gt;Node3</title>
<g id="a_edge9_Node000003_Node000010"><a xlink:title=" ">
<path fill="none" stroke="#9a32cd" stroke-dasharray="5,2" d="M256.76,-502.56C288.87,-494.86 330.17,-484.02 366,-471.62 388.59,-463.81 413.6,-452.66 430.67,-444.65"/>
<polygon fill="#9a32cd" stroke="#9a32cd" points="256.21,-499.09 247.28,-504.8 257.82,-505.9 256.21,-499.09"/>
</a>
</g>
<text text-anchor="middle" x="328.88" y="-505.62" font-family="Helvetica,sans-Serif" font-size="10.00" fill="grey"> fActiveBins</text>
<text text-anchor="middle" x="328.88" y="-494.38" font-family="Helvetica,sans-Serif" font-size="10.00" fill="grey">fActualChannelId</text>
</g>
<!-- Node11 -->
<g id="Node000011" class="node">
<title>Node11</title>
<g id="a_Node000011"><a xlink:title=" ">
<polygon fill="white" stroke="#666666" points="248.25,-486.88 155,-486.88 155,-456.38 248.25,-456.38 248.25,-486.88"/>
<text text-anchor="start" x="163" y="-473.38" font-family="Helvetica,sans-Serif" font-size="10.00">std::vector&lt; const</text>
<text text-anchor="middle" x="201.62" y="-462.12" font-family="Helvetica,sans-Serif" font-size="10.00"> char * &gt;</text>
</a>
</g>
</g>
<!-- Node11&#45;&gt;Node3 -->
<g id="edge10_Node000003_Node000011" class="edge">
<title>Node11&#45;&gt;Node3</title>
<g id="a_edge10_Node000003_Node000011"><a xlink:title=" ">
<path fill="none" stroke="#9a32cd" stroke-dasharray="5,2" d="M259.74,-463.13C302.98,-456.7 361.74,-447.96 402.75,-441.86"/>
<polygon fill="#9a32cd" stroke="#9a32cd" points="259.41,-459.64 250.04,-464.57 260.44,-466.56 259.41,-459.64"/>
</a>
</g>
<text text-anchor="middle" x="328.88" y="-458.38" font-family="Helvetica,sans-Serif" font-size="10.00" fill="grey"> fChannelLabel</text>
</g>
<!-- Node12 -->
<g id="Node000012" class="node">
<title>Node12</title>
<g id="a_Node000012"><a xlink:title=" ">
<polygon fill="white" stroke="#666666" points="252.75,-438.25 150.5,-438.25 150.5,-419 252.75,-419 252.75,-438.25"/>
<text text-anchor="middle" x="201.62" y="-424.75" font-family="Helvetica,sans-Serif" font-size="10.00">std::vector&lt; TH2 * &gt;</text>
</a>
</g>
</g>
<!-- Node12&#45;&gt;Node3 -->
<g id="edge11_Node000003_Node000012" class="edge">
<title>Node12&#45;&gt;Node3</title>
<g id="a_edge11_Node000003_Node000012"><a xlink:title=" ">
<path fill="none" stroke="#9a32cd" stroke-dasharray="5,2" d="M264.36,-430.11C307.12,-431.15 363.24,-432.5 402.8,-433.45"/>
<polygon fill="#9a32cd" stroke="#9a32cd" points="264.56,-426.62 254.48,-429.88 264.39,-433.62 264.56,-426.62"/>
</a>
</g>
<text text-anchor="middle" x="328.88" y="-433.38" font-family="Helvetica,sans-Serif" font-size="10.00" fill="grey"> fMatrices</text>
</g>
<!-- Node13 -->
<g id="Node000013" class="node">
<title>Node13</title>
<g id="a_Node000013"><a xlink:title=" ">
<polygon fill="white" stroke="#666666" points="230.62,-259.25 172.62,-259.25 172.62,-240 230.62,-240 230.62,-259.25"/>
<text text-anchor="middle" x="201.62" y="-245.75" font-family="Helvetica,sans-Serif" font-size="10.00">std::string</text>
</a>
</g>
</g>
<!-- Node13&#45;&gt;Node1 -->
<g id="edge16_Node000001_Node000013" class="edge">
<title>Node13&#45;&gt;Node1</title>
<g id="a_edge16_Node000001_Node000013"><a xlink:title=" ">
<path fill="none" stroke="#9a32cd" stroke-dasharray="5,2" d="M241.96,-250.91C275.23,-252.5 324.03,-255.99 366,-263.62 459.87,-280.7 567.65,-315.46 617.96,-332.61"/>
<polygon fill="#9a32cd" stroke="#9a32cd" points="242.54,-247.43 232.39,-250.49 242.23,-254.43 242.54,-247.43"/>
</a>
</g>
<text text-anchor="middle" x="452.38" y="-302.38" font-family="Helvetica,sans-Serif" font-size="10.00" fill="grey"> fName</text>
</g>
<!-- Node13&#45;&gt;Node3 -->
<g id="edge12_Node000003_Node000013" class="edge">
<title>Node13&#45;&gt;Node3</title>
<g id="a_edge12_Node000003_Node000013"><a xlink:title=" ">
<path fill="none" stroke="#9a32cd" stroke-dasharray="5,2" d="M242.13,-252.67C278.88,-257.55 332.81,-270.27 366,-303.38 383.99,-321.32 371.39,-335.57 384,-357.62 399.52,-384.76 425.55,-410.98 440.3,-424.72"/>
<polygon fill="#9a32cd" stroke="#9a32cd" points="242.69,-249.21 232.35,-251.52 241.88,-256.16 242.69,-249.21"/>
</a>
</g>
<text text-anchor="middle" x="328.88" y="-304.38" font-family="Helvetica,sans-Serif" font-size="10.00" fill="grey"> fLogFile</text>
</g>
<!-- Node16 -->
<g id="Node000016" class="node">
<title>Node16</title>
<g id="a_Node000016"><a xlink:href="class_t_calibration_graph_set.html" target="_top" xlink:title=" ">
<polygon fill="white" stroke="#666666" points="506.88,-142.25 397.88,-142.25 397.88,-123 506.88,-123 506.88,-142.25"/>
<text text-anchor="middle" x="452.38" y="-128.75" font-family="Helvetica,sans-Serif" font-size="10.00">TCalibrationGraphSet</text>
</a>
</g>
</g>
<!-- Node13&#45;&gt;Node16 -->
<g id="edge24_Node000016_Node000013" class="edge">
<title>Node13&#45;&gt;Node16</title>
<g id="a_edge24_Node000016_Node000013"><a xlink:title=" ">
<path fill="none" stroke="#9a32cd" stroke-dasharray="5,2" d="M237.82,-235.21C285.62,-215.63 365.23,-183.01 366,-182.62 391.09,-170.21 418.84,-153.33 435.7,-142.71"/>
<polygon fill="#9a32cd" stroke="#9a32cd" points="236.62,-231.92 228.69,-238.95 239.27,-238.4 236.62,-231.92"/>
</a>
</g>
<text text-anchor="middle" x="328.88" y="-224.62" font-family="Helvetica,sans-Serif" font-size="10.00" fill="grey"> fXAxisLabel</text>
<text text-anchor="middle" x="328.88" y="-213.38" font-family="Helvetica,sans-Serif" font-size="10.00" fill="grey">fYAxisLabel</text>
</g>
<!-- Node14 -->
<g id="Node000014" class="node">
<title>Node14</title>
<g id="a_Node000014"><a xlink:title=" ">
<polygon fill="white" stroke="#666666" points="92.5,-264.88 0,-264.88 0,-234.38 92.5,-234.38 92.5,-264.88"/>
<text text-anchor="start" x="8" y="-251.38" font-family="Helvetica,sans-Serif" font-size="10.00">std::basic_string&lt;</text>
<text text-anchor="middle" x="46.25" y="-240.12" font-family="Helvetica,sans-Serif" font-size="10.00"> Char &gt;</text>
</a>
</g>
</g>
<!-- Node14&#45;&gt;Node13 -->
<g id="edge13_Node000013_Node000014" class="edge">
<title>Node14&#45;&gt;Node13</title>
<g id="a_edge13_Node000013_Node000014"><a xlink:title=" ">
<path fill="none" stroke="#63b8ff" d="M104.34,-249.62C127.53,-249.62 153.28,-249.62 172.31,-249.62"/>
<polygon fill="#63b8ff" stroke="#63b8ff" points="104.37,-246.13 94.37,-249.63 104.37,-253.13 104.37,-246.13"/>
</a>
</g>
</g>
<!-- Node15 -->
<g id="Node000015" class="node">
<title>Node15</title>
<g id="a_Node000015"><a xlink:title=" ">
<polygon fill="white" stroke="#666666" points="507.62,-213.25 397.12,-213.25 397.12,-194 507.62,-194 507.62,-213.25"/>
<text text-anchor="middle" x="452.38" y="-199.75" font-family="Helvetica,sans-Serif" font-size="10.00">std::vector&lt; GH1D * &gt;</text>
</a>
</g>
</g>
<!-- Node15&#45;&gt;Node1 -->
<g id="edge15_Node000001_Node000015" class="edge">
<title>Node15&#45;&gt;Node1</title>
<g id="a_edge15_Node000001_Node000015"><a xlink:title=" ">
<path fill="none" stroke="#9a32cd" stroke-dasharray="5,2" d="M519.35,-200.57C544.46,-202.51 571.99,-208.74 592.75,-224.38 629.15,-251.79 641.65,-309.57 645.3,-332.72"/>
<polygon fill="#9a32cd" stroke="#9a32cd" points="519.71,-197.08 509.53,-200.04 519.33,-204.07 519.71,-197.08"/>
</a>
</g>
<text text-anchor="middle" x="565.75" y="-225.38" font-family="Helvetica,sans-Serif" font-size="10.00" fill="grey"> fProjections</text>
</g>
<!-- Node16&#45;&gt;Node1 -->
<g id="edge18_Node000001_Node000016" class="edge">
<title>Node16&#45;&gt;Node1</title>
<g id="a_edge18_Node000001_Node000016"><a xlink:title=" ">
<path fill="none" stroke="#9a32cd" stroke-dasharray="5,2" d="M518.15,-139.75C544.28,-145.67 572.89,-156.47 592.75,-176.12 638.1,-221 645.3,-304.29 646.42,-332.78"/>
<polygon fill="#9a32cd" stroke="#9a32cd" points="519.11,-136.38 508.62,-137.81 517.71,-143.24 519.11,-136.38"/>
</a>
</g>
<text text-anchor="middle" x="565.75" y="-188.62" font-family="Helvetica,sans-Serif" font-size="10.00" fill="grey"> fData</text>
<text text-anchor="middle" x="565.75" y="-177.38" font-family="Helvetica,sans-Serif" font-size="10.00" fill="grey">fFwhm</text>
</g>
<!-- Node17 -->
<g id="Node000017" class="node">
<title>Node17</title>
<g id="a_Node000017"><a xlink:title=" ">
<polygon fill="white" stroke="#666666" points="228.38,-142.25 174.88,-142.25 174.88,-123 228.38,-123 228.38,-142.25"/>
<text text-anchor="middle" x="201.62" y="-128.75" font-family="Helvetica,sans-Serif" font-size="10.00">TNamed</text>
</a>
</g>
</g>
<!-- Node17&#45;&gt;Node16 -->
<g id="edge19_Node000016_Node000017" class="edge">
<title>Node17&#45;&gt;Node16</title>
<g id="a_edge19_Node000016_Node000017"><a xlink:title=" ">
<path fill="none" stroke="#63b8ff" d="M240.12,-132.62C282.03,-132.62 350.25,-132.62 397.78,-132.62"/>
<polygon fill="#63b8ff" stroke="#63b8ff" points="240.29,-129.13 230.29,-132.63 240.29,-136.13 240.29,-129.13"/>
</a>
</g>
</g>
<!-- Node18 -->
<g id="Node000018" class="node">
<title>Node18</title>
<g id="a_Node000018"><a xlink:title=" ">
<polygon fill="white" stroke="#666666" points="230.62,-105.25 172.62,-105.25 172.62,-86 230.62,-86 230.62,-105.25"/>
<text text-anchor="middle" x="201.62" y="-91.75" font-family="Helvetica,sans-Serif" font-size="10.00">TQObject</text>
</a>
</g>
</g>
<!-- Node18&#45;&gt;Node16 -->
<g id="edge20_Node000016_Node000018" class="edge">
<title>Node18&#45;&gt;Node16</title>
<g id="a_edge20_Node000016_Node000018"><a xlink:title=" ">
<path fill="none" stroke="#63b8ff" d="M241.83,-101.46C283.85,-107.71 350.84,-117.67 397.73,-124.65"/>
<polygon fill="#63b8ff" stroke="#63b8ff" points="242.58,-98.03 232.17,-100.02 241.55,-104.95 242.58,-98.03"/>
</a>
</g>
</g>
<!-- Node19 -->
<g id="Node000019" class="node">
<title>Node19</title>
<g id="a_Node000019"><a xlink:title=" ">
<polygon fill="white" stroke="#666666" points="262.12,-67.88 141.12,-67.88 141.12,-37.38 262.12,-37.38 262.12,-67.88"/>
<text text-anchor="start" x="149.12" y="-54.38" font-family="Helvetica,sans-Serif" font-size="10.00">std::vector&lt; TCalibration</text>
<text text-anchor="middle" x="201.62" y="-43.12" font-family="Helvetica,sans-Serif" font-size="10.00">Graph &gt;</text>
</a>
</g>
</g>
<!-- Node19&#45;&gt;Node16 -->
<g id="edge21_Node000016_Node000019" class="edge">
<title>Node19&#45;&gt;Node16</title>
<g id="a_edge21_Node000016_Node000019"><a xlink:title=" ">
<path fill="none" stroke="#9a32cd" stroke-dasharray="5,2" d="M273.84,-61.19C302.99,-66.01 336.69,-73.31 366,-84.12 392.71,-93.98 420.9,-111.62 437.28,-122.69"/>
<polygon fill="#9a32cd" stroke="#9a32cd" points="274.41,-57.73 263.99,-59.63 273.32,-64.65 274.41,-57.73"/>
</a>
</g>
<text text-anchor="middle" x="328.88" y="-97.62" font-family="Helvetica,sans-Serif" font-size="10.00" fill="grey"> fGraphs</text>
<text text-anchor="middle" x="328.88" y="-86.38" font-family="Helvetica,sans-Serif" font-size="10.00" fill="grey">fResidualGraphs</text>
</g>
<!-- Node20 -->
<g id="Node000020" class="node">
<title>Node20</title>
<g id="a_Node000020"><a xlink:title=" ">
<polygon fill="white" stroke="#666666" points="261.38,-19.25 141.88,-19.25 141.88,0 261.38,0 261.38,-19.25"/>
<text text-anchor="middle" x="201.62" y="-5.75" font-family="Helvetica,sans-Serif" font-size="10.00">std::vector&lt; std::string &gt;</text>
</a>
</g>
</g>
<!-- Node20&#45;&gt;Node16 -->
<g id="edge22_Node000016_Node000020" class="edge">
<title>Node20&#45;&gt;Node16</title>
<g id="a_edge22_Node000016_Node000020"><a xlink:title=" ">
<path fill="none" stroke="#9a32cd" stroke-dasharray="5,2" d="M272.94,-18.86C302.95,-24.86 337.54,-34.62 366,-50.38 400.03,-69.21 430.35,-105.07 443.89,-122.54"/>
<polygon fill="#9a32cd" stroke="#9a32cd" points="273.65,-15.44 263.17,-17.02 272.35,-22.31 273.65,-15.44"/>
</a>
</g>
<text text-anchor="middle" x="328.88" y="-52.38" font-family="Helvetica,sans-Serif" font-size="10.00" fill="grey"> fLabel</text>
</g>
<!-- Node21 -->
<g id="Node000021" class="node">
<title>Node21</title>
<g id="a_Node000021"><a xlink:title=" ">
<polygon fill="white" stroke="#666666" points="253.12,-179.25 150.12,-179.25 150.12,-160 253.12,-160 253.12,-179.25"/>
<text text-anchor="middle" x="201.62" y="-165.75" font-family="Helvetica,sans-Serif" font-size="10.00">std::vector&lt; size_t &gt;</text>
</a>
</g>
</g>
<!-- Node21&#45;&gt;Node16 -->
<g id="edge23_Node000016_Node000021" class="edge">
<title>Node21&#45;&gt;Node16</title>
<g id="a_edge23_Node000016_Node000021"><a xlink:title=" ">
<path fill="none" stroke="#9a32cd" stroke-dasharray="5,2" d="M264.74,-160.39C305.56,-154.31 358.45,-146.45 397.49,-140.64"/>
<polygon fill="#9a32cd" stroke="#9a32cd" points="264.44,-156.89 255.06,-161.83 265.47,-163.82 264.44,-156.89"/>
</a>
</g>
<text text-anchor="middle" x="328.88" y="-168.62" font-family="Helvetica,sans-Serif" font-size="10.00" fill="grey"> fGraphIndex</text>
<text text-anchor="middle" x="328.88" y="-157.38" font-family="Helvetica,sans-Serif" font-size="10.00" fill="grey">fPointIndex</text>
</g>
</g>
</svg>
