<?xml version="1.0" encoding="UTF-8" standalone="no"?>
<!DOCTYPE svg PUBLIC "-//W3C//DTD SVG 1.1//EN"
 "http://www.w3.org/Graphics/SVG/1.1/DTD/svg11.dtd">
<!-- Generated by graphviz version 9.0.0 (20230911.1827)
 -->
<!-- Title: TRuntimeObjects Pages: 1 -->
<svg width="334pt" height="211pt"
 viewBox="0.00 0.00 334.00 211.25" xmlns="http://www.w3.org/2000/svg" xmlns:xlink="http://www.w3.org/1999/xlink">
<g id="graph0" class="graph" transform="scale(1 1) rotate(0) translate(4 207.25)">
<title>TRuntimeObjects</title>
<!-- Node1 -->
<g id="Node000001" class="node">
<title>Node1</title>
<g id="a_Node000001"><a xlink:title="Object passed to the online histograms.">
<polygon fill="#999999" stroke="#666666" points="326,-111.25 234.25,-111.25 234.25,-92 326,-92 326,-111.25"/>
<text text-anchor="middle" x="280.12" y="-97.75" font-family="Helvetica,sans-Serif" font-size="10.00">TRuntimeObjects</text>
</a>
</g>
</g>
<!-- Node2 -->
<g id="Node000002" class="node">
<title>Node2</title>
<g id="a_Node000002"><a xlink:title=" ">
<polygon fill="white" stroke="#666666" points="95.88,-203.25 42.38,-203.25 42.38,-184 95.88,-184 95.88,-203.25"/>
<text text-anchor="middle" x="69.12" y="-189.75" font-family="Helvetica,sans-Serif" font-size="10.00">TNamed</text>
</a>
</g>
</g>
<!-- Node2&#45;&gt;Node1 -->
<g id="edge1_Node000001_Node000002" class="edge">
<title>Node2&#45;&gt;Node1</title>
<g id="a_edge1_Node000001_Node000002"><a xlink:title=" ">
<path fill="none" stroke="#63b8ff" d="M107.16,-184.74C137.52,-176.63 181.06,-163.1 216.25,-144.62 234.75,-134.91 254.36,-120.81 266.67,-111.43"/>
<polygon fill="#63b8ff" stroke="#63b8ff" points="106.48,-181.3 97.68,-187.2 108.24,-188.07 106.48,-181.3"/>
</a>
</g>
</g>
<!-- Node3 -->
<g id="Node000003" class="node">
<title>Node3</title>
<g id="a_Node000003"><a xlink:title=" ">
<polygon fill="white" stroke="#666666" points="123.25,-165.88 15,-165.88 15,-135.38 123.25,-135.38 123.25,-165.88"/>
<text text-anchor="start" x="23" y="-152.38" font-family="Helvetica,sans-Serif" font-size="10.00">std::map&lt; std::string,</text>
<text text-anchor="middle" x="69.12" y="-141.12" font-family="Helvetica,sans-Serif" font-size="10.00"> TRuntimeObjects * &gt;</text>
</a>
</g>
</g>
<!-- Node3&#45;&gt;Node1 -->
<g id="edge2_Node000001_Node000003" class="edge">
<title>Node3&#45;&gt;Node1</title>
<g id="a_edge2_Node000001_Node000003"><a xlink:title=" ">
<path fill="none" stroke="#9a32cd" stroke-dasharray="5,2" d="M134.59,-135.71C160.04,-129.8 189.53,-122.92 216.25,-116.62 222.91,-115.06 229.97,-113.38 236.86,-111.74"/>
<polygon fill="#9a32cd" stroke="#9a32cd" points="134.01,-132.25 125.06,-137.92 135.59,-139.07 134.01,-132.25"/>
</a>
</g>
<text text-anchor="middle" x="186.25" y="-131.38" font-family="Helvetica,sans-Serif" font-size="10.00" fill="grey"> fRuntimeMap</text>
</g>
<!-- Node4 -->
<g id="Node000004" class="node">
<title>Node4</title>
<g id="a_Node000004"><a xlink:title=" ">
<polygon fill="white" stroke="#666666" points="138.25,-116.88 0,-116.88 0,-86.38 138.25,-86.38 138.25,-116.88"/>
<text text-anchor="start" x="8" y="-103.38" font-family="Helvetica,sans-Serif" font-size="10.00">std::shared_ptr&lt; TUnpacked</text>
<text text-anchor="middle" x="69.12" y="-92.12" font-family="Helvetica,sans-Serif" font-size="10.00">Event &gt;</text>
</a>
</g>
</g>
<!-- Node4&#45;&gt;Node1 -->
<g id="edge3_Node000001_Node000004" class="edge">
<title>Node4&#45;&gt;Node1</title>
<g id="a_edge3_Node000001_Node000004"><a xlink:title=" ">
<path fill="none" stroke="#9a32cd" stroke-dasharray="5,2" d="M149.75,-101.62C178.25,-101.62 209.36,-101.62 233.94,-101.62"/>
<polygon fill="#9a32cd" stroke="#9a32cd" points="150.07,-98.13 140.07,-101.63 150.07,-105.13 150.07,-98.13"/>
</a>
</g>
<text text-anchor="middle" x="186.25" y="-103.38" font-family="Helvetica,sans-Serif" font-size="10.00" fill="grey"> fDetectors</text>
</g>
<!-- Node5 -->
<g id="Node000005" class="node">
<title>Node5</title>
<g id="a_Node000005"><a xlink:title=" ">
<polygon fill="white" stroke="#666666" points="125.12,-67.88 13.13,-67.88 13.13,-37.38 125.12,-37.38 125.12,-67.88"/>
<text text-anchor="start" x="21.12" y="-54.38" font-family="Helvetica,sans-Serif" font-size="10.00">std::shared_ptr&lt; const</text>
<text text-anchor="middle" x="69.12" y="-43.12" font-family="Helvetica,sans-Serif" font-size="10.00"> TFragment &gt;</text>
</a>
</g>
</g>
<!-- Node5&#45;&gt;Node1 -->
<g id="edge4_Node000001_Node000005" class="edge">
<title>Node5&#45;&gt;Node1</title>
<g id="a_edge4_Node000001_Node000005"><a xlink:title=" ">
<path fill="none" stroke="#9a32cd" stroke-dasharray="5,2" d="M136.53,-67.8C161.53,-73.56 190.21,-80.21 216.25,-86.38 223.25,-88.03 230.67,-89.81 237.88,-91.55"/>
<polygon fill="#9a32cd" stroke="#9a32cd" points="137.33,-64.39 126.8,-65.56 135.76,-71.21 137.33,-64.39"/>
</a>
</g>
<text text-anchor="middle" x="186.25" y="-87.38" font-family="Helvetica,sans-Serif" font-size="10.00" fill="grey"> fFrag</text>
</g>
<!-- Node6 -->
<g id="Node000006" class="node">
<title>Node6</title>
<g id="a_Node000006"><a xlink:title=" ">
<polygon fill="white" stroke="#666666" points="121.75,-19.25 16.5,-19.25 16.5,0 121.75,0 121.75,-19.25"/>
<text text-anchor="middle" x="69.12" y="-5.75" font-family="Helvetica,sans-Serif" font-size="10.00">std::vector&lt; TFile * &gt;</text>
</a>
</g>
</g>
<!-- Node6&#45;&gt;Node1 -->
<g id="edge5_Node000001_Node000006" class="edge">
<title>Node6&#45;&gt;Node1</title>
<g id="a_edge5_Node000001_Node000006"><a xlink:title=" ">
<path fill="none" stroke="#9a32cd" stroke-dasharray="5,2" d="M124.43,-22.69C152.73,-30.64 187.35,-42.21 216.25,-57.38 235.16,-67.3 254.99,-82.1 267.21,-91.81"/>
<polygon fill="#9a32cd" stroke="#9a32cd" points="125.56,-19.37 114.99,-20.11 123.72,-26.12 125.56,-19.37"/>
</a>
</g>
<text text-anchor="middle" x="186.25" y="-58.38" font-family="Helvetica,sans-Serif" font-size="10.00" fill="grey"> fCut_files</text>
</g>
</g>
</svg>
