<?xml version="1.0" encoding="UTF-8" standalone="no"?>
<!DOCTYPE svg PUBLIC "-//W3C//DTD SVG 1.1//EN"
 "http://www.w3.org/Graphics/SVG/1.1/DTD/svg11.dtd">
<!-- Generated by graphviz version 12.2.0 (20241103.1931)
 -->
<!-- Title: TS3 Pages: 1 -->
<svg width="474pt" height="166pt"
 viewBox="0.00 0.00 473.75 166.25" xmlns="http://www.w3.org/2000/svg" xmlns:xlink="http://www.w3.org/1999/xlink">

<svg id="main" version="1.1" xmlns="http://www.w3.org/2000/svg" xmlns:xlink="http://www.w3.org/1999/xlink" xml:space="preserve">

<style type="text/css"><![CDATA[
.node, .edge {opacity: 0.7;}
.node.selected, .edge.selected {opacity: 1;}
.edge:hover path { stroke: red; }
.edge:hover polygon { stroke: red; fill: red; }
]]></style>
<script type="application/ecmascript" xlink:href="svg.min.js"/>
<svg id="graph" class="graph">
<g id="graph0" class="graph" transform="scale(1 1) rotate(0) translate(4 162.25)">
<title>TS3</title>
<!-- Node1 -->
<g id="Node000001" class="node">
<title>Node1</title>
<g id="a_Node000001"><a xlink:title=" ">
<polygon fill="#999999" stroke="#666666" points="465.75,-73.25 431.75,-73.25 431.75,-54 465.75,-54 465.75,-73.25"/>
<text text-anchor="middle" x="448.75" y="-59.75" font-family="Helvetica,sans-Serif" font-size="10.00">TS3</text>
</a>
</g>
</g>
<!-- Node2 -->
<g id="Node000002" class="node">
<title>Node2</title>
<g id="a_Node000002"><a xlink:href="class_t_detector.html" target="_top" xlink:title=" ">
<polygon fill="white" stroke="#666666" points="295.25,-140.25 236.5,-140.25 236.5,-121 295.25,-121 295.25,-140.25"/>
<text text-anchor="middle" x="265.88" y="-126.75" font-family="Helvetica,sans-Serif" font-size="10.00">TDetector</text>
</a>
</g>
</g>
<!-- Node2&#45;&gt;Node1 -->
<g id="edge1_Node000001_Node000002" class="edge">
<title>Node2&#45;&gt;Node1</title>
<g id="a_edge1_Node000001_Node000002"><a xlink:title=" ">
<path fill="none" stroke="#63b8ff" d="M306.91,-133.83C338.15,-134.45 381.51,-131.02 413.75,-111.62 428.45,-102.78 438.5,-84.87 443.67,-73.61"/>
<polygon fill="#63b8ff" stroke="#63b8ff" points="307.21,-130.34 297.09,-133.47 306.96,-137.33 307.21,-130.34"/>
</a>
</g>
</g>
<!-- Node3 -->
<g id="Node000003" class="node">
<title>Node3</title>
<g id="a_Node000003"><a xlink:title=" ">
<polygon fill="white" stroke="#666666" points="94.75,-158.25 44.25,-158.25 44.25,-139 94.75,-139 94.75,-158.25"/>
<text text-anchor="middle" x="69.5" y="-144.75" font-family="Helvetica,sans-Serif" font-size="10.00">TObject</text>
</a>
</g>
</g>
<!-- Node3&#45;&gt;Node2 -->
<g id="edge2_Node000002_Node000003" class="edge">
<title>Node3&#45;&gt;Node2</title>
<g id="a_edge2_Node000002_Node000003"><a xlink:title=" ">
<path fill="none" stroke="#63b8ff" d="M106.48,-145.29C143.84,-141.83 201.56,-136.49 236.04,-133.3"/>
<polygon fill="#63b8ff" stroke="#63b8ff" points="106.26,-141.8 96.62,-146.21 106.9,-148.77 106.26,-141.8"/>
</a>
</g>
</g>
<!-- Node4 -->
<g id="Node000004" class="node">
<title>Node4</title>
<g id="a_Node000004"><a xlink:title=" ">
<polygon fill="white" stroke="#666666" points="139,-121.25 0,-121.25 0,-102 139,-102 139,-121.25"/>
<text text-anchor="middle" x="69.5" y="-107.75" font-family="Helvetica,sans-Serif" font-size="10.00">std::vector&lt; TDetectorHit * &gt;</text>
</a>
</g>
</g>
<!-- Node4&#45;&gt;Node2 -->
<g id="edge3_Node000002_Node000004" class="edge">
<title>Node4&#45;&gt;Node2</title>
<g id="a_edge3_Node000002_Node000004"><a xlink:title=" ">
<path fill="none" stroke="#9a32cd" stroke-dasharray="5,2" d="M150.42,-119.44C180.95,-122.42 213.83,-125.64 236.48,-127.85"/>
<polygon fill="#9a32cd" stroke="#9a32cd" points="151.1,-115.99 140.81,-118.5 150.42,-122.95 151.1,-115.99"/>
</a>
</g>
<text text-anchor="middle" x="168.62" y="-124.01" font-family="Helvetica,sans-Serif" font-size="10.00" fill="grey"> fHits</text>
</g>
<!-- Node5 -->
<g id="Node000005" class="node">
<title>Node5</title>
<g id="a_Node000005"><a xlink:title=" ">
<polygon fill="white" stroke="#666666" points="320,-93.25 211.75,-93.25 211.75,-74 320,-74 320,-93.25"/>
<text text-anchor="middle" x="265.88" y="-79.75" font-family="Helvetica,sans-Serif" font-size="10.00">std::vector&lt; TS3Hit &gt;</text>
</a>
</g>
</g>
<!-- Node5&#45;&gt;Node1 -->
<g id="edge4_Node000001_Node000005" class="edge">
<title>Node5&#45;&gt;Node1</title>
<g id="a_edge4_Node000001_Node000005"><a xlink:title=" ">
<path fill="none" stroke="#9a32cd" stroke-dasharray="5,2" d="M331.55,-76.47C367.34,-72.52 409.01,-67.91 431.44,-65.43"/>
<polygon fill="#9a32cd" stroke="#9a32cd" points="331.22,-72.99 321.67,-77.57 331.99,-79.95 331.22,-72.99"/>
</a>
</g>
<text text-anchor="middle" x="382.62" y="-98.47" font-family="Helvetica,sans-Serif" font-size="10.00" fill="grey"> fS3PixelHits</text>
<text text-anchor="middle" x="382.62" y="-87.22" font-family="Helvetica,sans-Serif" font-size="10.00" fill="grey">fS3RingHits</text>
<text text-anchor="middle" x="382.62" y="-75.97" font-family="Helvetica,sans-Serif" font-size="10.00" fill="grey">fS3SectorHits</text>
</g>
<!-- Node6 -->
<g id="Node000006" class="node">
<title>Node6</title>
<g id="a_Node000006"><a xlink:href="class_t_transient_bits.html" target="_top" xlink:title=" ">
<polygon fill="white" stroke="#666666" points="332,-56.25 199.75,-56.25 199.75,-37 332,-37 332,-56.25"/>
<text text-anchor="middle" x="265.88" y="-42.75" font-family="Helvetica,sans-Serif" font-size="10.00">TTransientBits&lt; UChar_t &gt;</text>
</a>
</g>
</g>
<!-- Node6&#45;&gt;Node1 -->
<g id="edge5_Node000001_Node000006" class="edge">
<title>Node6&#45;&gt;Node1</title>
<g id="a_edge5_Node000001_Node000006"><a xlink:title=" ">
<path fill="none" stroke="#9a32cd" stroke-dasharray="5,2" d="M343.59,-41.65C366.39,-41.75 391.27,-43.42 413.75,-48.38 419.69,-49.68 425.85,-52.09 431.27,-54.6"/>
<polygon fill="#9a32cd" stroke="#9a32cd" points="343.72,-38.15 333.75,-41.72 343.77,-45.15 343.72,-38.15"/>
</a>
</g>
<text text-anchor="middle" x="382.62" y="-50.12" font-family="Helvetica,sans-Serif" font-size="10.00" fill="grey"> fS3Bits</text>
</g>
<!-- Node7 -->
<g id="Node000007" class="node">
<title>Node7</title>
<g id="a_Node000007"><a xlink:href="class_t_transient_bits.html" target="_top" xlink:title=" ">
<polygon fill="white" stroke="#666666" points="333.5,-19.25 198.25,-19.25 198.25,0 333.5,0 333.5,-19.25"/>
<text text-anchor="middle" x="265.88" y="-5.75" font-family="Helvetica,sans-Serif" font-size="10.00">TTransientBits&lt; UShort_t &gt;</text>
</a>
</g>
</g>
<!-- Node7&#45;&gt;Node1 -->
<g id="edge6_Node000001_Node000007" class="edge">
<title>Node7&#45;&gt;Node1</title>
<g id="a_edge6_Node000001_Node000007"><a xlink:title=" ">
<path fill="none" stroke="#9a32cd" stroke-dasharray="5,2" d="M344.95,-8.25C368.1,-10.5 392.83,-15.69 413.75,-26.38 425.76,-32.51 435.62,-44.74 441.58,-53.52"/>
<polygon fill="#9a32cd" stroke="#9a32cd" points="345.49,-4.78 335.25,-7.49 344.94,-11.76 345.49,-4.78"/>
</a>
</g>
<text text-anchor="middle" x="382.62" y="-28.12" font-family="Helvetica,sans-Serif" font-size="10.00" fill="grey"> fGlobalS3Bits</text>
</g>
</g>
</svg>
</svg>

<style type='text/css'>
<![CDATA[
[data-mouse-over-selected='false'] { opacity: 0.7; }
[data-mouse-over-selected='true']  { opacity: 1.0; }
]]>
</style>
<script type="application/ecmascript"><![CDATA[
document.addEventListener('DOMContentLoaded', (event) => {
  highlightEdges();
  highlightAdjacentNodes();
});
]]></script>
</svg>
