<?xml version="1.0" encoding="UTF-8" standalone="no"?>
<!DOCTYPE svg PUBLIC "-//W3C//DTD SVG 1.1//EN"
 "http://www.w3.org/Graphics/SVG/1.1/DTD/svg11.dtd">
<!-- Generated by graphviz version 12.2.0 (20241103.1931)
 -->
<!-- Title: TTigress Pages: 1 -->
<!--zoomable 440 -->

<svg id="main" version="1.1" xmlns="http://www.w3.org/2000/svg" xmlns:xlink="http://www.w3.org/1999/xlink" xml:space="preserve" onload="init(evt)">

<style type="text/css"><![CDATA[
.node, .edge {opacity: 0.7;}
.node.selected, .edge.selected {opacity: 1;}
.edge:hover path { stroke: red; }
.edge:hover polygon { stroke: red; fill: red; }
]]></style>

<defs>
  <circle id="rim" cx="0" cy="0" r="7"/>
  <circle id="rim2" cx="0" cy="0" r="3.5"/>
  <g id="zoomPlus">
    <use xlink:href="#rim" fill="#404040"><set attributeName="fill" to="#808080" begin="zoomplus.mouseover" end="zoomplus.mouseout"/></use>
    <path d="M-4,0h8M0,-4v8" fill="none" stroke="white" stroke-width="1.5" pointer-events="none"/>
  </g>
  <g id="zoomMin">
    <use xlink:href="#rim" fill="#404040"><set attributeName="fill" to="#808080" begin="zoomminus.mouseover" end="zoomminus.mouseout"/></use>
    <path d="M-4,0h8" fill="none" stroke="white" stroke-width="1.5" pointer-events="none"/>
  </g>
  <g id="arrowUp" transform="translate(30 24)">
    <use xlink:href="#rim"/>
    <path pointer-events="none" fill="none" stroke="white" stroke-width="1.5" d="M0,-3.0v7 M-2.5,-0.5L0,-3.0L2.5,-0.5"/>
  </g>
  <g id="arrowRight" transform="rotate(90) translate(36 -43)">
    <use xlink:href="#rim"/>
    <path pointer-events="none" fill="none" stroke="white" stroke-width="1.5" d="M0,-3.0v7 M-2.5,-0.5L0,-3.0L2.5,-0.5"/>
  </g>
  <g id="arrowDown" transform="rotate(180) translate(-30 -48)">
    <use xlink:href="#rim"/>
    <path pointer-events="none" fill="none" stroke="white" stroke-width="1.5" d="M0,-3.0v7 M-2.5,-0.5L0,-3.0L2.5,-0.5"/>
  </g>
  <g id="arrowLeft" transform="rotate(270) translate(-36 17)">
    <use xlink:href="#rim"/>
    <path pointer-events="none" fill="none" stroke="white" stroke-width="1.5" d="M0,-3.0v7 M-2.5,-0.5L0,-3.0L2.5,-0.5"/>
  </g>
  <g id="resetDef">
    <use xlink:href="#rim2" fill="#404040"><set attributeName="fill" to="#808080" begin="reset.mouseover" end="reset.mouseout"/></use>
  </g>
</defs>
<script type="application/ecmascript">
var viewWidth = 764;
var viewHeight = 440;
var sectionId = 'dynsection-1';
</script>
<script type="application/ecmascript" xlink:href="svg.min.js"/>
<svg id="graph" class="graph">
<g id="viewport">
<title>TTigress</title>
<!-- Node1 -->
<g id="Node000001" class="node">
<title>Node1</title>
<g id="a_Node000001"><a xlink:title=" ">
<polygon fill="#999999" stroke="#666666" points="756.25,-252.85 702,-252.85 702,-233.6 756.25,-233.6 756.25,-252.85"/>
<text text-anchor="middle" x="729.12" y="-239.35" font-family="Helvetica,sans-Serif" font-size="10.00">TTigress</text>
</a>
</g>
</g>
<!-- Node2 -->
<g id="Node000002" class="node">
<title>Node2</title>
<g id="a_Node000002"><a xlink:href="class_t_suppressed.html" target="_top" xlink:title=" ">
<polygon fill="white" stroke="#666666" points="513,-416.85 439.25,-416.85 439.25,-397.6 513,-397.6 513,-416.85"/>
<text text-anchor="middle" x="476.12" y="-403.35" font-family="Helvetica,sans-Serif" font-size="10.00">TSuppressed</text>
</a>
</g>
</g>
<!-- Node2&#45;&gt;Node1 -->
<g id="edge1_Node000001_Node000002" class="edge">
<title>Node2&#45;&gt;Node1</title>
<g id="a_edge1_Node000001_Node000002"><a xlink:title=" ">
<path fill="none" stroke="#63b8ff" d="M524.96,-413.57C570.98,-416.9 639.89,-414.25 684,-377.22 722.46,-344.94 727.62,-278.43 728.15,-253.22"/>
<polygon fill="#63b8ff" stroke="#63b8ff" points="525.26,-410.08 515,-412.71 524.66,-417.05 525.26,-410.08"/>
</a>
</g>
</g>
<!-- Node3 -->
<g id="Node000003" class="node">
<title>Node3</title>
<g id="a_Node000003"><a xlink:href="class_t_detector.html" target="_top" xlink:title=" ">
<polygon fill="white" stroke="#666666" points="257,-421.85 198.25,-421.85 198.25,-402.6 257,-402.6 257,-421.85"/>
<text text-anchor="middle" x="227.62" y="-408.35" font-family="Helvetica,sans-Serif" font-size="10.00">TDetector</text>
</a>
</g>
</g>
<!-- Node3&#45;&gt;Node2 -->
<g id="edge2_Node000002_Node000003" class="edge">
<title>Node3&#45;&gt;Node2</title>
<g id="a_edge2_Node000002_Node000003"><a xlink:title=" ">
<path fill="none" stroke="#63b8ff" d="M268.68,-411.41C315.87,-410.45 393.56,-408.88 438.98,-407.96"/>
<polygon fill="#63b8ff" stroke="#63b8ff" points="268.82,-407.91 258.9,-411.61 268.97,-414.91 268.82,-407.91"/>
</a>
</g>
</g>
<!-- Node4 -->
<g id="Node000004" class="node">
<title>Node4</title>
<g id="a_Node000004"><a xlink:title=" ">
<polygon fill="white" stroke="#666666" points="94.75,-431.85 44.25,-431.85 44.25,-412.6 94.75,-412.6 94.75,-431.85"/>
<text text-anchor="middle" x="69.5" y="-418.35" font-family="Helvetica,sans-Serif" font-size="10.00">TObject</text>
</a>
</g>
</g>
<!-- Node4&#45;&gt;Node3 -->
<g id="edge3_Node000003_Node000004" class="edge">
<title>Node4&#45;&gt;Node3</title>
<g id="a_edge3_Node000003_Node000004"><a xlink:title=" ">
<path fill="none" stroke="#63b8ff" d="M106.43,-419.92C134.15,-418.15 171.99,-415.72 197.76,-414.07"/>
<polygon fill="#63b8ff" stroke="#63b8ff" points="106.5,-416.41 96.75,-420.54 106.95,-423.4 106.5,-416.41"/>
</a>
</g>
</g>
<!-- Node5 -->
<g id="Node000005" class="node">
<title>Node5</title>
<g id="a_Node000005"><a xlink:title=" ">
<polygon fill="white" stroke="#666666" points="139,-383.85 0,-383.85 0,-364.6 139,-364.6 139,-383.85"/>
<text text-anchor="middle" x="69.5" y="-370.35" font-family="Helvetica,sans-Serif" font-size="10.00">std::vector&lt; TDetectorHit * &gt;</text>
</a>
</g>
</g>
<!-- Node5&#45;&gt;Node1 -->
<g id="edge10_Node000001_Node000005" class="edge">
<title>Node5&#45;&gt;Node1</title>
<g id="a_edge10_Node000001_Node000005"><a xlink:title=" ">
<path fill="none" stroke="#9a32cd" stroke-dasharray="5,2" d="M150.49,-372.64C245.65,-369.95 409.14,-362.84 548.25,-344.22 609.31,-336.05 633.69,-351.78 684,-316.22 706.37,-300.41 719.45,-269.33 724.99,-253.31"/>
<polygon fill="#9a32cd" stroke="#9a32cd" points="150.64,-369.13 140.74,-372.9 150.83,-376.13 150.64,-369.13"/>
</a>
</g>
<text text-anchor="middle" x="330.5" y="-391.72" font-family="Helvetica,sans-Serif" font-size="10.00" fill="grey"> fAddbackHits</text>
<text text-anchor="middle" x="330.5" y="-380.47" font-family="Helvetica,sans-Serif" font-size="10.00" fill="grey">fSuppressedAddbackHits</text>
<text text-anchor="middle" x="330.5" y="-369.22" font-family="Helvetica,sans-Serif" font-size="10.00" fill="grey">fSuppressedHits</text>
</g>
<!-- Node5&#45;&gt;Node3 -->
<g id="edge4_Node000003_Node000005" class="edge">
<title>Node5&#45;&gt;Node3</title>
<g id="a_edge4_Node000003_Node000005"><a xlink:title=" ">
<path fill="none" stroke="#9a32cd" stroke-dasharray="5,2" d="M126.01,-386.93C143.4,-391 162.65,-395.59 180.25,-399.97 186.07,-401.42 192.28,-403.03 198.21,-404.58"/>
<polygon fill="#9a32cd" stroke="#9a32cd" points="126.9,-383.54 116.36,-384.69 125.31,-390.36 126.9,-383.54"/>
</a>
</g>
<text text-anchor="middle" x="168.62" y="-401.72" font-family="Helvetica,sans-Serif" font-size="10.00" fill="grey"> fHits</text>
</g>
<!-- Node6 -->
<g id="Node000006" class="node">
<title>Node6</title>
<g id="a_Node000006"><a xlink:title=" ">
<polygon fill="white" stroke="#666666" points="548.25,-335.1 404,-335.1 404,-293.35 548.25,-293.35 548.25,-335.1"/>
<text text-anchor="start" x="412" y="-321.6" font-family="Helvetica,sans-Serif" font-size="10.00">std::array&lt; std::array</text>
<text text-anchor="start" x="412" y="-310.35" font-family="Helvetica,sans-Serif" font-size="10.00">&lt; std::array&lt; std::array</text>
<text text-anchor="middle" x="476.12" y="-299.1" font-family="Helvetica,sans-Serif" font-size="10.00">&lt; TVector3, 9 &gt;, 4 &gt;, 17 &gt;, 2 &gt;</text>
</a>
</g>
</g>
<!-- Node6&#45;&gt;Node1 -->
<g id="edge5_Node000001_Node000006" class="edge">
<title>Node6&#45;&gt;Node1</title>
<g id="a_edge5_Node000001_Node000006"><a xlink:title=" ">
<path fill="none" stroke="#9a32cd" stroke-dasharray="5,2" d="M559.86,-302.45C598.43,-295.4 644.44,-284.72 684,-269.22 694.6,-265.07 705.63,-258.57 714.01,-253.11"/>
<polygon fill="#9a32cd" stroke="#9a32cd" points="559.39,-298.97 550.16,-304.17 560.61,-305.87 559.39,-298.97"/>
</a>
</g>
<text text-anchor="middle" x="625.12" y="-302.67" font-family="Helvetica,sans-Serif" font-size="10.00" fill="grey"> fPositionVectors</text>
</g>
<!-- Node7 -->
<g id="Node000007" class="node">
<title>Node7</title>
<g id="a_Node000007"><a xlink:title=" ">
<polygon fill="white" stroke="#666666" points="529.12,-275.47 423.12,-275.47 423.12,-244.97 529.12,-244.97 529.12,-275.47"/>
<text text-anchor="start" x="431.12" y="-261.97" font-family="Helvetica,sans-Serif" font-size="10.00">std::array&lt; TVector3,</text>
<text text-anchor="middle" x="476.12" y="-250.72" font-family="Helvetica,sans-Serif" font-size="10.00"> 17 &gt;</text>
</a>
</g>
</g>
<!-- Node7&#45;&gt;Node1 -->
<g id="edge6_Node000001_Node000007" class="edge">
<title>Node7&#45;&gt;Node1</title>
<g id="a_edge6_Node000001_Node000007"><a xlink:title=" ">
<path fill="none" stroke="#9a32cd" stroke-dasharray="5,2" d="M540.9,-255.9C592.93,-252.38 663.82,-247.58 701.7,-245.01"/>
<polygon fill="#9a32cd" stroke="#9a32cd" points="540.69,-252.41 530.95,-256.58 541.16,-259.39 540.69,-252.41"/>
</a>
</g>
<text text-anchor="middle" x="625.12" y="-255.5" font-family="Helvetica,sans-Serif" font-size="10.00" fill="grey"> fCloverRadial</text>
</g>
<!-- Node8 -->
<g id="Node000008" class="node">
<title>Node8</title>
<g id="a_Node000008"><a xlink:title=" ">
<polygon fill="white" stroke="#666666" points="529.5,-226.47 422.75,-226.47 422.75,-195.97 529.5,-195.97 529.5,-226.47"/>
<text text-anchor="start" x="430.75" y="-212.97" font-family="Helvetica,sans-Serif" font-size="10.00">std::array&lt; std::array</text>
<text text-anchor="middle" x="476.12" y="-201.72" font-family="Helvetica,sans-Serif" font-size="10.00">&lt; TVector3, 2 &gt;, 17 &gt;</text>
</a>
</g>
</g>
<!-- Node8&#45;&gt;Node1 -->
<g id="edge7_Node000001_Node000008" class="edge">
<title>Node8&#45;&gt;Node1</title>
<g id="a_edge7_Node000001_Node000008"><a xlink:title=" ">
<path fill="none" stroke="#9a32cd" stroke-dasharray="5,2" d="M541.25,-214.43C582.31,-217.21 636.59,-222.2 684,-230.97 689.79,-232.04 695.91,-233.52 701.7,-235.08"/>
<polygon fill="#9a32cd" stroke="#9a32cd" points="541.48,-210.94 531.28,-213.79 541.03,-217.93 541.48,-210.94"/>
</a>
</g>
<text text-anchor="middle" x="625.12" y="-232.72" font-family="Helvetica,sans-Serif" font-size="10.00" fill="grey"> fCloverCross</text>
</g>
<!-- Node9 -->
<g id="Node000009" class="node">
<title>Node9</title>
<g id="a_Node000009"><a xlink:title=" ">
<polygon fill="white" stroke="#666666" points="527.62,-135.1 424.62,-135.1 424.62,-93.35 527.62,-93.35 527.62,-135.1"/>
<text text-anchor="start" x="432.62" y="-121.6" font-family="Helvetica,sans-Serif" font-size="10.00">std::array&lt; std::array</text>
<text text-anchor="start" x="432.62" y="-110.35" font-family="Helvetica,sans-Serif" font-size="10.00">&lt; std::array&lt; double,</text>
<text text-anchor="middle" x="476.12" y="-99.1" font-family="Helvetica,sans-Serif" font-size="10.00"> 3 &gt;, 9 &gt;, 17 &gt;</text>
</a>
</g>
</g>
<!-- Node9&#45;&gt;Node1 -->
<g id="edge8_Node000001_Node000009" class="edge">
<title>Node9&#45;&gt;Node1</title>
<g id="a_edge8_Node000001_Node000009"><a xlink:title=" ">
<path fill="none" stroke="#9a32cd" stroke-dasharray="5,2" d="M539,-99.7C583.51,-92.99 642.72,-92.13 684,-122.22 720.68,-148.96 726.93,-209.38 727.95,-233.25"/>
<polygon fill="#9a32cd" stroke="#9a32cd" points="538.52,-96.24 529.23,-101.33 539.67,-103.14 538.52,-96.24"/>
</a>
</g>
<text text-anchor="middle" x="625.12" y="-202.72" font-family="Helvetica,sans-Serif" font-size="10.00" fill="grey"> fGeBluePosition</text>
<text text-anchor="middle" x="625.12" y="-191.47" font-family="Helvetica,sans-Serif" font-size="10.00" fill="grey">fGeBluePositionBack</text>
<text text-anchor="middle" x="625.12" y="-180.22" font-family="Helvetica,sans-Serif" font-size="10.00" fill="grey">fGeGreenPosition</text>
<text text-anchor="middle" x="625.12" y="-168.97" font-family="Helvetica,sans-Serif" font-size="10.00" fill="grey">fGeGreenPositionBack</text>
<text text-anchor="middle" x="625.12" y="-157.72" font-family="Helvetica,sans-Serif" font-size="10.00" fill="grey">fGeRedPosition</text>
<text text-anchor="middle" x="625.12" y="-146.47" font-family="Helvetica,sans-Serif" font-size="10.00" fill="grey">fGeRedPositionBack</text>
<text text-anchor="middle" x="625.12" y="-135.22" font-family="Helvetica,sans-Serif" font-size="10.00" fill="grey">fGeWhitePosition</text>
<text text-anchor="middle" x="625.12" y="-123.97" font-family="Helvetica,sans-Serif" font-size="10.00" fill="grey">fGeWhitePositionBack</text>
</g>
<!-- Node10 -->
<g id="Node000010" class="node">
<title>Node10</title>
<g id="a_Node000010"><a xlink:href="class_t_transient_bits.html" target="_top" xlink:title=" ">
<polygon fill="white" stroke="#666666" points="538.88,-74.85 413.38,-74.85 413.38,-55.6 538.88,-55.6 538.88,-74.85"/>
<text text-anchor="middle" x="476.12" y="-61.35" font-family="Helvetica,sans-Serif" font-size="10.00">TTransientBits&lt; uint8_t &gt;</text>
</a>
</g>
</g>
<!-- Node10&#45;&gt;Node1 -->
<g id="edge9_Node000001_Node000010" class="edge">
<title>Node10&#45;&gt;Node1</title>
<g id="a_edge9_Node000001_Node000010"><a xlink:title=" ">
<path fill="none" stroke="#9a32cd" stroke-dasharray="5,2" d="M550.53,-57.75C601.55,-54.21 663.87,-53.72 684,-69.72 710.27,-90.61 723.62,-199.77 727.15,-233.37"/>
<polygon fill="#9a32cd" stroke="#9a32cd" points="550.39,-54.25 540.68,-58.49 550.91,-61.23 550.39,-54.25"/>
</a>
</g>
<text text-anchor="middle" x="625.12" y="-82.72" font-family="Helvetica,sans-Serif" font-size="10.00" fill="grey"> fGlobalTigressBits</text>
<text text-anchor="middle" x="625.12" y="-71.47" font-family="Helvetica,sans-Serif" font-size="10.00" fill="grey">fTigressBits</text>
</g>
<!-- Node11 -->
<g id="Node000011" class="node">
<title>Node11</title>
<g id="a_Node000011"><a xlink:title=" ">
<polygon fill="white" stroke="#666666" points="534.38,-29.85 417.88,-29.85 417.88,-10.6 534.38,-10.6 534.38,-29.85"/>
<text text-anchor="middle" x="476.12" y="-16.35" font-family="Helvetica,sans-Serif" font-size="10.00">std::vector&lt; UShort_t &gt;</text>
</a>
</g>
</g>
<!-- Node11&#45;&gt;Node1 -->
<g id="edge11_Node000001_Node000011" class="edge">
<title>Node11&#45;&gt;Node1</title>
<g id="a_edge11_Node000001_Node000011"><a xlink:title=" ">
<path fill="none" stroke="#9a32cd" stroke-dasharray="5,2" d="M523.37,-7.63C569.61,1.93 640,7.82 684,-29.72 715.67,-56.75 725.49,-195 727.63,-233.35"/>
<polygon fill="#9a32cd" stroke="#9a32cd" points="522.65,-4.21 513.64,-9.79 524.16,-11.04 522.65,-4.21"/>
</a>
</g>
<text text-anchor="middle" x="625.12" y="-42.72" font-family="Helvetica,sans-Serif" font-size="10.00" fill="grey"> fAddbackFrags</text>
<text text-anchor="middle" x="625.12" y="-31.47" font-family="Helvetica,sans-Serif" font-size="10.00" fill="grey">fSuppressedAddbackFrags</text>
</g>
</g>
</svg>

<g id="navigator" transform="translate(0 0)" fill="#404254">
  <rect fill="#f2f5e9" fill-opacity="0.5" stroke="#606060" stroke-width=".5" x="0" y="0" width="60" height="60"/>
  <use id="zoomplus" xlink:href="#zoomPlus" x="17" y="9" onmousedown="handleZoom(evt,'in')"/>
  <use id="zoomminus" xlink:href="#zoomMin" x="42" y="9" onmousedown="handleZoom(evt,'out')"/>
  <use id="reset" xlink:href="#resetDef" x="30" y="36" onmousedown="handleReset()"/>
   <use id="arrowup" xlink:href="#arrowUp" x="0" y="0" onmousedown="handlePan(0,-1)"/>
  <use id="arrowright" xlink:href="#arrowRight" x="0" y="0" onmousedown="handlePan(1,0)"/>
  <use id="arrowdown" xlink:href="#arrowDown" x="0" y="0" onmousedown="handlePan(0,1)"/>
  <use id="arrowleft" xlink:href="#arrowLeft" x="0" y="0" onmousedown="handlePan(-1,0)"/>
</g>
<svg viewBox="0 0 15 15" width="100%" height="30px" preserveAspectRatio="xMaxYMin meet">
 <g id="arrow_out" transform="scale(0.3 0.3)">
  <a xlink:href="class_t_tigress__coll__graph_org.svg" target="_base">
   <rect id="button" ry="5" rx="5" y="6" x="6" height="38" width="38"
        fill="#f2f5e9" fill-opacity="0.5" stroke="#606060" stroke-width="1.0"/>
   <path id="arrow"
     d="M 11.500037,31.436501 C 11.940474,20.09759 22.043105,11.32322 32.158766,21.979434 L 37.068811,17.246167 C 37.068811,17.246167 37.088388,32 37.088388,32 L 22.160133,31.978069 C 22.160133,31.978069 26.997745,27.140456 26.997745,27.140456 C 18.528582,18.264221 13.291696,25.230495 11.500037,31.436501 z"
     style="fill:#404040;"/>
  </a>
 </g>
</svg>

<style type='text/css'>
<![CDATA[
[data-mouse-over-selected='false'] { opacity: 0.7; }
[data-mouse-over-selected='true']  { opacity: 1.0; }
]]>
</style>
<script type="application/ecmascript"><![CDATA[
document.addEventListener('DOMContentLoaded', (event) => {
  highlightEdges();
  highlightAdjacentNodes();
});
]]></script>
</svg>
