<?xml version="1.0" encoding="UTF-8" standalone="no"?>
<!DOCTYPE svg PUBLIC "-//W3C//DTD SVG 1.1//EN"
 "http://www.w3.org/Graphics/SVG/1.1/DTD/svg11.dtd">
<!-- Generated by graphviz version 12.2.0 (20241103.1931)
 -->
<!-- Title: TPeak Pages: 1 -->
<svg width="113pt" height="140pt"
 viewBox="0.00 0.00 112.88 139.75" xmlns="http://www.w3.org/2000/svg" xmlns:xlink="http://www.w3.org/1999/xlink">
<g id="graph0" class="graph" transform="scale(1 1) rotate(0) translate(4 135.75)">
<title>TPeak</title>
<!-- Node1 -->
<g id="Node000001" class="node">
<title>Node1</title>
<g id="a_Node000001"><a xlink:title=" ">
<polygon fill="#999999" stroke="#666666" points="50.88,-19.25 6.38,-19.25 6.38,0 50.88,0 50.88,-19.25"/>
<text text-anchor="middle" x="28.62" y="-5.75" font-family="Helvetica,sans-Serif" font-size="10.00">TPeak</text>
</a>
</g>
</g>
<!-- Node1&#45;&gt;Node1 -->
<g id="edge3_Node000001_Node000001" class="edge">
<title>Node1&#45;&gt;Node1</title>
<g id="a_edge3_Node000001_Node000001"><a xlink:title=" ">
<path fill="none" stroke="#9a32cd" stroke-dasharray="5,2" d="M62.26,-14.15C66.26,-13.33 68.88,-11.82 68.88,-9.62 68.88,-5.72 60.62,-3.99 50.98,-4.41"/>
<polygon fill="#9a32cd" stroke="#9a32cd" points="62.26,-10.65 52.49,-14.74 62.68,-17.63 62.26,-10.65"/>
</a>
</g>
<text text-anchor="middle" x="86.88" y="-5.75" font-family="Helvetica,sans-Serif" font-size="10.00" fill="grey"> fLastFit</text>
</g>
<!-- Node2 -->
<g id="Node000002" class="node">
<title>Node2</title>
<g id="a_Node000002"><a xlink:href="class_t_g_r_s_i_fit.html" target="_top" xlink:title=" ">
<polygon fill="white" stroke="#666666" points="57.25,-75.5 0,-75.5 0,-56.25 57.25,-56.25 57.25,-75.5"/>
<text text-anchor="middle" x="28.62" y="-62" font-family="Helvetica,sans-Serif" font-size="10.00">TGRSIFit</text>
</a>
</g>
</g>
<!-- Node2&#45;&gt;Node1 -->
<g id="edge1_Node000001_Node000002" class="edge">
<title>Node2&#45;&gt;Node1</title>
<g id="a_edge1_Node000001_Node000002"><a xlink:title=" ">
<path fill="none" stroke="#63b8ff" d="M28.62,-44.69C28.62,-35.98 28.62,-26.24 28.62,-19.42"/>
<polygon fill="#63b8ff" stroke="#63b8ff" points="25.13,-44.4 28.63,-54.4 32.13,-44.4 25.13,-44.4"/>
</a>
</g>
</g>
<!-- Node3 -->
<g id="Node000003" class="node">
<title>Node3</title>
<g id="a_Node000003"><a xlink:title=" ">
<polygon fill="white" stroke="#666666" points="45.25,-131.75 12,-131.75 12,-112.5 45.25,-112.5 45.25,-131.75"/>
<text text-anchor="middle" x="28.62" y="-118.25" font-family="Helvetica,sans-Serif" font-size="10.00">TF1</text>
</a>
</g>
</g>
<!-- Node3&#45;&gt;Node2 -->
<g id="edge2_Node000002_Node000003" class="edge">
<title>Node3&#45;&gt;Node2</title>
<g id="a_edge2_Node000002_Node000003"><a xlink:title=" ">
<path fill="none" stroke="#63b8ff" d="M28.62,-100.94C28.62,-92.23 28.62,-82.49 28.62,-75.67"/>
<polygon fill="#63b8ff" stroke="#63b8ff" points="25.13,-100.65 28.63,-110.65 32.13,-100.65 25.13,-100.65"/>
</a>
</g>
</g>
</g>
</svg>
