<?xml version="1.0" encoding="UTF-8" standalone="no"?>
<!DOCTYPE svg PUBLIC "-//W3C//DTD SVG 1.1//EN"
 "http://www.w3.org/Graphics/SVG/1.1/DTD/svg11.dtd">
<!-- Generated by graphviz version 12.2.0 (20241103.1931)
 -->
<!-- Title: TTdrFile Pages: 1 -->
<svg width="65pt" height="138pt"
 viewBox="0.00 0.00 65.25 137.75" xmlns="http://www.w3.org/2000/svg" xmlns:xlink="http://www.w3.org/1999/xlink">
<g id="graph0" class="graph" transform="scale(1 1) rotate(0) translate(4 133.75)">
<title>TTdrFile</title>
<!-- Node1 -->
<g id="Node000001" class="node">
<title>Node1</title>
<g id="a_Node000001"><a xlink:title="Reader for MIDAS .mid files.">
<polygon fill="#999999" stroke="#666666" points="54.62,-19.25 2.62,-19.25 2.62,0 54.62,0 54.62,-19.25"/>
<text text-anchor="middle" x="28.62" y="-5.75" font-family="Helvetica,sans-Serif" font-size="10.00">TTdrFile</text>
</a>
</g>
</g>
<!-- Node2 -->
<g id="Node000002" class="node">
<title>Node2</title>
<g id="a_Node000002"><a xlink:href="class_t_raw_file.html" target="_top" xlink:title="Reader for raw files.">
<polygon fill="white" stroke="#666666" points="57.25,-74.5 0,-74.5 0,-55.25 57.25,-55.25 57.25,-74.5"/>
<text text-anchor="middle" x="28.62" y="-61" font-family="Helvetica,sans-Serif" font-size="10.00">TRawFile</text>
</a>
</g>
</g>
<!-- Node2&#45;&gt;Node1 -->
<g id="edge1_Node000001_Node000002" class="edge">
<title>Node2&#45;&gt;Node1</title>
<g id="a_edge1_Node000001_Node000002"><a xlink:title=" ">
<path fill="none" stroke="#63b8ff" d="M28.62,-43.63C28.62,-35.34 28.62,-26.17 28.62,-19.61"/>
<polygon fill="#63b8ff" stroke="#63b8ff" points="25.13,-43.57 28.63,-53.57 32.13,-43.57 25.13,-43.57"/>
</a>
</g>
</g>
<!-- Node3 -->
<g id="Node000003" class="node">
<title>Node3</title>
<g id="a_Node000003"><a xlink:title=" ">
<polygon fill="white" stroke="#666666" points="53.88,-129.75 3.38,-129.75 3.38,-110.5 53.88,-110.5 53.88,-129.75"/>
<text text-anchor="middle" x="28.62" y="-116.25" font-family="Helvetica,sans-Serif" font-size="10.00">TObject</text>
</a>
</g>
</g>
<!-- Node3&#45;&gt;Node2 -->
<g id="edge2_Node000002_Node000003" class="edge">
<title>Node3&#45;&gt;Node2</title>
<g id="a_edge2_Node000002_Node000003"><a xlink:title=" ">
<path fill="none" stroke="#63b8ff" d="M28.62,-98.88C28.62,-90.59 28.62,-81.42 28.62,-74.86"/>
<polygon fill="#63b8ff" stroke="#63b8ff" points="25.13,-98.82 28.63,-108.82 32.13,-98.82 25.13,-98.82"/>
</a>
</g>
</g>
</g>
</svg>
