<?xml version="1.0" encoding="UTF-8" standalone="no"?>
<!DOCTYPE svg PUBLIC "-//W3C//DTD SVG 1.1//EN"
 "http://www.w3.org/Graphics/SVG/1.1/DTD/svg11.dtd">
<!-- Generated by graphviz version 12.2.0 (20241103.1931)
 -->
<!-- Title: TGRSISelector Pages: 1 -->
<!--zoomable 1151 -->

<svg id="main" version="1.1" xmlns="http://www.w3.org/2000/svg" xmlns:xlink="http://www.w3.org/1999/xlink" xml:space="preserve" onload="init(evt)">

<style type="text/css"><![CDATA[
.node, .edge {opacity: 0.7;}
.node.selected, .edge.selected {opacity: 1;}
.edge:hover path { stroke: red; }
.edge:hover polygon { stroke: red; fill: red; }
]]></style>

<defs>
  <circle id="rim" cx="0" cy="0" r="7"/>
  <circle id="rim2" cx="0" cy="0" r="3.5"/>
  <g id="zoomPlus">
    <use xlink:href="#rim" fill="#404040"><set attributeName="fill" to="#808080" begin="zoomplus.mouseover" end="zoomplus.mouseout"/></use>
    <path d="M-4,0h8M0,-4v8" fill="none" stroke="white" stroke-width="1.5" pointer-events="none"/>
  </g>
  <g id="zoomMin">
    <use xlink:href="#rim" fill="#404040"><set attributeName="fill" to="#808080" begin="zoomminus.mouseover" end="zoomminus.mouseout"/></use>
    <path d="M-4,0h8" fill="none" stroke="white" stroke-width="1.5" pointer-events="none"/>
  </g>
  <g id="arrowUp" transform="translate(30 24)">
    <use xlink:href="#rim"/>
    <path pointer-events="none" fill="none" stroke="white" stroke-width="1.5" d="M0,-3.0v7 M-2.5,-0.5L0,-3.0L2.5,-0.5"/>
  </g>
  <g id="arrowRight" transform="rotate(90) translate(36 -43)">
    <use xlink:href="#rim"/>
    <path pointer-events="none" fill="none" stroke="white" stroke-width="1.5" d="M0,-3.0v7 M-2.5,-0.5L0,-3.0L2.5,-0.5"/>
  </g>
  <g id="arrowDown" transform="rotate(180) translate(-30 -48)">
    <use xlink:href="#rim"/>
    <path pointer-events="none" fill="none" stroke="white" stroke-width="1.5" d="M0,-3.0v7 M-2.5,-0.5L0,-3.0L2.5,-0.5"/>
  </g>
  <g id="arrowLeft" transform="rotate(270) translate(-36 17)">
    <use xlink:href="#rim"/>
    <path pointer-events="none" fill="none" stroke="white" stroke-width="1.5" d="M0,-3.0v7 M-2.5,-0.5L0,-3.0L2.5,-0.5"/>
  </g>
  <g id="resetDef">
    <use xlink:href="#rim2" fill="#404040"><set attributeName="fill" to="#808080" begin="reset.mouseover" end="reset.mouseout"/></use>
  </g>
</defs>
<script type="application/ecmascript">
var viewWidth = 726;
var viewHeight = 1151;
var sectionId = 'dynsection-1';
</script>
<script type="application/ecmascript" xlink:href="svg.min.js"/>
<svg id="graph" class="graph">
<g id="viewport">
<title>TGRSISelector</title>
<!-- Node1 -->
<g id="Node000001" class="node">
<title>Node1</title>
<g id="a_Node000001"><a xlink:title=" ">
<polygon fill="#999999" stroke="#666666" points="706.25,-678.04 624.25,-678.04 624.25,-658.79 706.25,-658.79 706.25,-678.04"/>
<text text-anchor="middle" x="665.25" y="-664.54" font-family="Helvetica,sans-Serif" font-size="10.00">TGRSISelector</text>
</a>
</g>
</g>
<!-- Node2 -->
<g id="Node000002" class="node">
<title>Node2</title>
<g id="a_Node000002"><a xlink:title=" ">
<polygon fill="white" stroke="#666666" points="500.5,-828.04 442.5,-828.04 442.5,-808.79 500.5,-808.79 500.5,-828.04"/>
<text text-anchor="middle" x="471.5" y="-814.54" font-family="Helvetica,sans-Serif" font-size="10.00">TSelector</text>
</a>
</g>
</g>
<!-- Node2&#45;&gt;Node1 -->
<g id="edge1_Node000001_Node000002" class="edge">
<title>Node2&#45;&gt;Node1</title>
<g id="a_edge1_Node000001_Node000002"><a xlink:title=" ">
<path fill="none" stroke="#63b8ff" d="M511.76,-807.51C537.5,-798.83 570.63,-784.59 594.25,-763.41 623.54,-737.16 648.27,-696.85 658.8,-678.33"/>
<polygon fill="#63b8ff" stroke="#63b8ff" points="510.77,-804.16 502.32,-810.54 512.91,-810.82 510.77,-804.16"/>
</a>
</g>
</g>
<!-- Node3 -->
<g id="Node000003" class="node">
<title>Node3</title>
<g id="a_Node000003"><a xlink:title=" ">
<polygon fill="white" stroke="#666666" points="530.5,-748.66 412.5,-748.66 412.5,-718.16 530.5,-718.16 530.5,-748.66"/>
<text text-anchor="start" x="420.5" y="-735.16" font-family="Helvetica,sans-Serif" font-size="10.00">TGRSIMap&lt; std::string,</text>
<text text-anchor="middle" x="471.5" y="-723.91" font-family="Helvetica,sans-Serif" font-size="10.00"> TH1 * &gt;</text>
</a>
</g>
</g>
<!-- Node3&#45;&gt;Node1 -->
<g id="edge2_Node000001_Node000003" class="edge">
<title>Node3&#45;&gt;Node1</title>
<g id="a_edge2_Node000001_Node000003"><a xlink:title=" ">
<path fill="none" stroke="#9a32cd" stroke-dasharray="5,2" d="M529.81,-713.99C564.31,-702.29 606.8,-687.89 634.67,-678.44"/>
<polygon fill="#9a32cd" stroke="#9a32cd" points="528.7,-710.67 520.35,-717.19 530.95,-717.3 528.7,-710.67"/>
</a>
</g>
<text text-anchor="middle" x="571.38" y="-708.49" font-family="Helvetica,sans-Serif" font-size="10.00" fill="grey"> fH1</text>
</g>
<!-- Node4 -->
<g id="Node000004" class="node">
<title>Node4</title>
<g id="a_Node000004"><a xlink:title=" ">
<polygon fill="white" stroke="#666666" points="267,-772.54 129.5,-772.54 129.5,-708.29 267,-708.29 267,-772.54"/>
<text text-anchor="start" x="137.5" y="-759.04" font-family="Helvetica,sans-Serif" font-size="10.00">std::map&lt; std::string,</text>
<text text-anchor="start" x="137.5" y="-747.79" font-family="Helvetica,sans-Serif" font-size="10.00"> TH1 *, std::less&lt; std</text>
<text text-anchor="start" x="137.5" y="-736.54" font-family="Helvetica,sans-Serif" font-size="10.00">::string &gt;, std::allocator</text>
<text text-anchor="start" x="137.5" y="-725.29" font-family="Helvetica,sans-Serif" font-size="10.00">&lt; std::pair&lt; const std::string,</text>
<text text-anchor="middle" x="198.25" y="-714.04" font-family="Helvetica,sans-Serif" font-size="10.00"> TH1 * &gt; &gt; &gt;</text>
</a>
</g>
</g>
<!-- Node4&#45;&gt;Node3 -->
<g id="edge3_Node000003_Node000004" class="edge">
<title>Node4&#45;&gt;Node3</title>
<g id="a_edge3_Node000003_Node000004"><a xlink:title=" ">
<path fill="none" stroke="#9a32cd" stroke-dasharray="5,2" d="M278.84,-738.36C321.49,-737.26 373.12,-735.93 412.04,-734.92"/>
<polygon fill="#9a32cd" stroke="#9a32cd" points="278.77,-734.86 268.86,-738.62 278.95,-741.86 278.77,-734.86"/>
</a>
</g>
<text text-anchor="middle" x="339.75" y="-739.9" font-family="Helvetica,sans-Serif" font-size="10.00" fill="grey"> fMap</text>
</g>
<!-- Node5 -->
<g id="Node000005" class="node">
<title>Node5</title>
<g id="a_Node000005"><a xlink:title=" ">
<polygon fill="white" stroke="#666666" points="530.5,-683.66 412.5,-683.66 412.5,-653.16 530.5,-653.16 530.5,-683.66"/>
<text text-anchor="start" x="420.5" y="-670.16" font-family="Helvetica,sans-Serif" font-size="10.00">TGRSIMap&lt; std::string,</text>
<text text-anchor="middle" x="471.5" y="-658.91" font-family="Helvetica,sans-Serif" font-size="10.00"> TH2 * &gt;</text>
</a>
</g>
</g>
<!-- Node5&#45;&gt;Node1 -->
<g id="edge4_Node000001_Node000005" class="edge">
<title>Node5&#45;&gt;Node1</title>
<g id="a_edge4_Node000001_Node000005"><a xlink:title=" ">
<path fill="none" stroke="#9a32cd" stroke-dasharray="5,2" d="M541.97,-668.41C569.47,-668.41 600.1,-668.41 623.83,-668.41"/>
<polygon fill="#9a32cd" stroke="#9a32cd" points="542.33,-664.91 532.33,-668.41 542.33,-671.91 542.33,-664.91"/>
</a>
</g>
<text text-anchor="middle" x="571.38" y="-670.16" font-family="Helvetica,sans-Serif" font-size="10.00" fill="grey"> fH2</text>
</g>
<!-- Node6 -->
<g id="Node000006" class="node">
<title>Node6</title>
<g id="a_Node000006"><a xlink:title=" ">
<polygon fill="white" stroke="#666666" points="267,-690.54 129.5,-690.54 129.5,-626.29 267,-626.29 267,-690.54"/>
<text text-anchor="start" x="137.5" y="-677.04" font-family="Helvetica,sans-Serif" font-size="10.00">std::map&lt; std::string,</text>
<text text-anchor="start" x="137.5" y="-665.79" font-family="Helvetica,sans-Serif" font-size="10.00"> TH2 *, std::less&lt; std</text>
<text text-anchor="start" x="137.5" y="-654.54" font-family="Helvetica,sans-Serif" font-size="10.00">::string &gt;, std::allocator</text>
<text text-anchor="start" x="137.5" y="-643.29" font-family="Helvetica,sans-Serif" font-size="10.00">&lt; std::pair&lt; const std::string,</text>
<text text-anchor="middle" x="198.25" y="-632.04" font-family="Helvetica,sans-Serif" font-size="10.00"> TH2 * &gt; &gt; &gt;</text>
</a>
</g>
</g>
<!-- Node6&#45;&gt;Node5 -->
<g id="edge5_Node000005_Node000006" class="edge">
<title>Node6&#45;&gt;Node5</title>
<g id="a_edge5_Node000005_Node000006"><a xlink:title=" ">
<path fill="none" stroke="#9a32cd" stroke-dasharray="5,2" d="M278.84,-661.35C321.49,-662.92 373.12,-664.82 412.04,-666.26"/>
<polygon fill="#9a32cd" stroke="#9a32cd" points="278.98,-657.85 268.86,-660.98 278.72,-664.85 278.98,-657.85"/>
</a>
</g>
<text text-anchor="middle" x="339.75" y="-667.21" font-family="Helvetica,sans-Serif" font-size="10.00" fill="grey"> fMap</text>
</g>
<!-- Node7 -->
<g id="Node000007" class="node">
<title>Node7</title>
<g id="a_Node000007"><a xlink:title=" ">
<polygon fill="white" stroke="#666666" points="530.5,-634.66 412.5,-634.66 412.5,-604.16 530.5,-604.16 530.5,-634.66"/>
<text text-anchor="start" x="420.5" y="-621.16" font-family="Helvetica,sans-Serif" font-size="10.00">TGRSIMap&lt; std::string,</text>
<text text-anchor="middle" x="471.5" y="-609.91" font-family="Helvetica,sans-Serif" font-size="10.00"> TH3 * &gt;</text>
</a>
</g>
</g>
<!-- Node7&#45;&gt;Node1 -->
<g id="edge6_Node000001_Node000007" class="edge">
<title>Node7&#45;&gt;Node1</title>
<g id="a_edge6_Node000001_Node000007"><a xlink:title=" ">
<path fill="none" stroke="#9a32cd" stroke-dasharray="5,2" d="M541.73,-637.1C569.63,-644.23 600.8,-652.2 624.72,-658.31"/>
<polygon fill="#9a32cd" stroke="#9a32cd" points="542.83,-633.77 532.28,-634.69 541.1,-640.56 542.83,-633.77"/>
</a>
</g>
<text text-anchor="middle" x="571.38" y="-651.49" font-family="Helvetica,sans-Serif" font-size="10.00" fill="grey"> fH3</text>
</g>
<!-- Node8 -->
<g id="Node000008" class="node">
<title>Node8</title>
<g id="a_Node000008"><a xlink:title=" ">
<polygon fill="white" stroke="#666666" points="267,-608.54 129.5,-608.54 129.5,-544.29 267,-544.29 267,-608.54"/>
<text text-anchor="start" x="137.5" y="-595.04" font-family="Helvetica,sans-Serif" font-size="10.00">std::map&lt; std::string,</text>
<text text-anchor="start" x="137.5" y="-583.79" font-family="Helvetica,sans-Serif" font-size="10.00"> TH3 *, std::less&lt; std</text>
<text text-anchor="start" x="137.5" y="-572.54" font-family="Helvetica,sans-Serif" font-size="10.00">::string &gt;, std::allocator</text>
<text text-anchor="start" x="137.5" y="-561.29" font-family="Helvetica,sans-Serif" font-size="10.00">&lt; std::pair&lt; const std::string,</text>
<text text-anchor="middle" x="198.25" y="-550.04" font-family="Helvetica,sans-Serif" font-size="10.00"> TH3 * &gt; &gt; &gt;</text>
</a>
</g>
</g>
<!-- Node8&#45;&gt;Node7 -->
<g id="edge7_Node000007_Node000008" class="edge">
<title>Node8&#45;&gt;Node7</title>
<g id="a_edge7_Node000007_Node000008"><a xlink:title=" ">
<path fill="none" stroke="#9a32cd" stroke-dasharray="5,2" d="M278.56,-588.99C321.27,-595.76 373.03,-603.96 412.04,-610.15"/>
<polygon fill="#9a32cd" stroke="#9a32cd" points="279.27,-585.55 268.84,-587.45 278.17,-592.47 279.27,-585.55"/>
</a>
</g>
<text text-anchor="middle" x="339.75" y="-608.46" font-family="Helvetica,sans-Serif" font-size="10.00" fill="grey"> fMap</text>
</g>
<!-- Node9 -->
<g id="Node000009" class="node">
<title>Node9</title>
<g id="a_Node000009"><a xlink:title=" ">
<polygon fill="white" stroke="#666666" points="530.5,-585.66 412.5,-585.66 412.5,-555.16 530.5,-555.16 530.5,-585.66"/>
<text text-anchor="start" x="420.5" y="-572.16" font-family="Helvetica,sans-Serif" font-size="10.00">TGRSIMap&lt; std::string,</text>
<text text-anchor="middle" x="471.5" y="-560.91" font-family="Helvetica,sans-Serif" font-size="10.00"> GHSym * &gt;</text>
</a>
</g>
</g>
<!-- Node9&#45;&gt;Node1 -->
<g id="edge8_Node000001_Node000009" class="edge">
<title>Node9&#45;&gt;Node1</title>
<g id="a_edge8_Node000001_Node000009"><a xlink:title=" ">
<path fill="none" stroke="#9a32cd" stroke-dasharray="5,2" d="M519.51,-590.6C523.23,-592.22 526.93,-593.84 530.5,-595.41 558.94,-607.95 566.88,-609.43 594.25,-624.16 614,-634.79 635.67,-648.9 649.59,-658.3"/>
<polygon fill="#9a32cd" stroke="#9a32cd" points="521,-587.43 510.44,-586.66 518.22,-593.85 521,-587.43"/>
</a>
</g>
<text text-anchor="middle" x="571.38" y="-625.91" font-family="Helvetica,sans-Serif" font-size="10.00" fill="grey"> fSym</text>
</g>
<!-- Node10 -->
<g id="Node000010" class="node">
<title>Node10</title>
<g id="a_Node000010"><a xlink:title=" ">
<polygon fill="white" stroke="#666666" points="267,-526.54 129.5,-526.54 129.5,-462.29 267,-462.29 267,-526.54"/>
<text text-anchor="start" x="137.5" y="-513.04" font-family="Helvetica,sans-Serif" font-size="10.00">std::map&lt; std::string,</text>
<text text-anchor="start" x="137.5" y="-501.79" font-family="Helvetica,sans-Serif" font-size="10.00"> GHSym *, std::less&lt;</text>
<text text-anchor="start" x="137.5" y="-490.54" font-family="Helvetica,sans-Serif" font-size="10.00"> std::string &gt;, std::allocator</text>
<text text-anchor="start" x="137.5" y="-479.29" font-family="Helvetica,sans-Serif" font-size="10.00">&lt; std::pair&lt; const std::string,</text>
<text text-anchor="middle" x="198.25" y="-468.04" font-family="Helvetica,sans-Serif" font-size="10.00"> GHSym * &gt; &gt; &gt;</text>
</a>
</g>
</g>
<!-- Node10&#45;&gt;Node9 -->
<g id="edge9_Node000009_Node000010" class="edge">
<title>Node10&#45;&gt;Node9</title>
<g id="a_edge9_Node000009_Node000010"><a xlink:title=" ">
<path fill="none" stroke="#9a32cd" stroke-dasharray="5,2" d="M278.25,-516.55C322,-528.81 375.33,-543.75 414.71,-554.78"/>
<polygon fill="#9a32cd" stroke="#9a32cd" points="279.38,-513.23 268.81,-513.9 277.49,-519.97 279.38,-513.23"/>
</a>
</g>
<text text-anchor="middle" x="339.75" y="-549.71" font-family="Helvetica,sans-Serif" font-size="10.00" fill="grey"> fMap</text>
</g>
<!-- Node11 -->
<g id="Node000011" class="node">
<title>Node11</title>
<g id="a_Node000011"><a xlink:title=" ">
<polygon fill="white" stroke="#666666" points="530.5,-536.66 412.5,-536.66 412.5,-506.16 530.5,-506.16 530.5,-536.66"/>
<text text-anchor="start" x="420.5" y="-523.16" font-family="Helvetica,sans-Serif" font-size="10.00">TGRSIMap&lt; std::string,</text>
<text text-anchor="middle" x="471.5" y="-511.91" font-family="Helvetica,sans-Serif" font-size="10.00"> GCube * &gt;</text>
</a>
</g>
</g>
<!-- Node11&#45;&gt;Node1 -->
<g id="edge10_Node000001_Node000011" class="edge">
<title>Node11&#45;&gt;Node1</title>
<g id="a_edge10_Node000001_Node000011"><a xlink:title=" ">
<path fill="none" stroke="#9a32cd" stroke-dasharray="5,2" d="M521.67,-541.89C524.68,-543.37 527.65,-544.88 530.5,-546.41 560.33,-562.45 568.71,-565.92 594.25,-588.16 620.04,-610.63 645.11,-642.53 657.03,-658.5"/>
<polygon fill="#9a32cd" stroke="#9a32cd" points="523.23,-538.76 512.69,-537.68 520.26,-545.1 523.23,-538.76"/>
</a>
</g>
<text text-anchor="middle" x="571.38" y="-589.91" font-family="Helvetica,sans-Serif" font-size="10.00" fill="grey"> fCube</text>
</g>
<!-- Node12 -->
<g id="Node000012" class="node">
<title>Node12</title>
<g id="a_Node000012"><a xlink:title=" ">
<polygon fill="white" stroke="#666666" points="267,-406.54 129.5,-406.54 129.5,-342.29 267,-342.29 267,-406.54"/>
<text text-anchor="start" x="137.5" y="-393.04" font-family="Helvetica,sans-Serif" font-size="10.00">std::map&lt; std::string,</text>
<text text-anchor="start" x="137.5" y="-381.79" font-family="Helvetica,sans-Serif" font-size="10.00"> GCube *, std::less&lt;</text>
<text text-anchor="start" x="137.5" y="-370.54" font-family="Helvetica,sans-Serif" font-size="10.00"> std::string &gt;, std::allocator</text>
<text text-anchor="start" x="137.5" y="-359.29" font-family="Helvetica,sans-Serif" font-size="10.00">&lt; std::pair&lt; const std::string,</text>
<text text-anchor="middle" x="198.25" y="-348.04" font-family="Helvetica,sans-Serif" font-size="10.00"> GCube * &gt; &gt; &gt;</text>
</a>
</g>
</g>
<!-- Node12&#45;&gt;Node11 -->
<g id="edge11_Node000011_Node000012" class="edge">
<title>Node12&#45;&gt;Node11</title>
<g id="a_edge11_Node000011_Node000012"><a xlink:title=" ">
<path fill="none" stroke="#9a32cd" stroke-dasharray="5,2" d="M278.31,-358.86C317.89,-355.82 363.78,-360.21 394.5,-388.16 430.58,-420.98 382.43,-458.01 412.5,-496.41 415.34,-500.04 418.81,-503.15 422.62,-505.81"/>
<polygon fill="#9a32cd" stroke="#9a32cd" points="278.2,-355.35 268.57,-359.78 278.86,-362.32 278.2,-355.35"/>
</a>
</g>
<text text-anchor="middle" x="339.75" y="-389.91" font-family="Helvetica,sans-Serif" font-size="10.00" fill="grey"> fMap</text>
</g>
<!-- Node13 -->
<g id="Node000013" class="node">
<title>Node13</title>
<g id="a_Node000013"><a xlink:title=" ">
<polygon fill="white" stroke="#666666" points="530.5,-487.66 412.5,-487.66 412.5,-457.16 530.5,-457.16 530.5,-487.66"/>
<text text-anchor="start" x="420.5" y="-474.16" font-family="Helvetica,sans-Serif" font-size="10.00">TGRSIMap&lt; std::string,</text>
<text text-anchor="middle" x="471.5" y="-462.91" font-family="Helvetica,sans-Serif" font-size="10.00"> THnSparseF * &gt;</text>
</a>
</g>
</g>
<!-- Node13&#45;&gt;Node1 -->
<g id="edge12_Node000001_Node000013" class="edge">
<title>Node13&#45;&gt;Node1</title>
<g id="a_edge12_Node000001_Node000013"><a xlink:title=" ">
<path fill="none" stroke="#9a32cd" stroke-dasharray="5,2" d="M524.77,-492.8C548.44,-504.14 575.3,-520.24 594.25,-541.16 628.28,-578.72 652.02,-635.75 660.66,-658.52"/>
<polygon fill="#9a32cd" stroke="#9a32cd" points="526.43,-489.71 515.88,-488.71 523.5,-496.07 526.43,-489.71"/>
</a>
</g>
<text text-anchor="middle" x="571.38" y="-542.91" font-family="Helvetica,sans-Serif" font-size="10.00" fill="grey"> fHSparse</text>
</g>
<!-- Node14 -->
<g id="Node000014" class="node">
<title>Node14</title>
<g id="a_Node000014"><a xlink:title=" ">
<polygon fill="white" stroke="#666666" points="267,-324.54 129.5,-324.54 129.5,-260.29 267,-260.29 267,-324.54"/>
<text text-anchor="start" x="137.5" y="-311.04" font-family="Helvetica,sans-Serif" font-size="10.00">std::map&lt; std::string,</text>
<text text-anchor="start" x="137.5" y="-299.79" font-family="Helvetica,sans-Serif" font-size="10.00"> THnSparseF *, std::less</text>
<text text-anchor="start" x="137.5" y="-288.54" font-family="Helvetica,sans-Serif" font-size="10.00">&lt; std::string &gt;, std::allocator</text>
<text text-anchor="start" x="137.5" y="-277.29" font-family="Helvetica,sans-Serif" font-size="10.00">&lt; std::pair&lt; const std::string,</text>
<text text-anchor="middle" x="198.25" y="-266.04" font-family="Helvetica,sans-Serif" font-size="10.00"> THnSparseF * &gt; &gt; &gt;</text>
</a>
</g>
</g>
<!-- Node14&#45;&gt;Node13 -->
<g id="edge13_Node000013_Node000014" class="edge">
<title>Node14&#45;&gt;Node13</title>
<g id="a_edge13_Node000013_Node000014"><a xlink:title=" ">
<path fill="none" stroke="#9a32cd" stroke-dasharray="5,2" d="M278.84,-293.59C319.02,-298.48 365.3,-311.42 394.5,-343.16 426.33,-377.77 383.4,-410.48 412.5,-447.41 415.35,-451.03 418.83,-454.13 422.65,-456.79"/>
<polygon fill="#9a32cd" stroke="#9a32cd" points="279.24,-290.11 268.93,-292.55 278.51,-297.07 279.24,-290.11"/>
</a>
</g>
<text text-anchor="middle" x="339.75" y="-344.91" font-family="Helvetica,sans-Serif" font-size="10.00" fill="grey"> fMap</text>
</g>
<!-- Node15 -->
<g id="Node000015" class="node">
<title>Node15</title>
<g id="a_Node000015"><a xlink:title=" ">
<polygon fill="white" stroke="#666666" points="530.5,-1125.66 412.5,-1125.66 412.5,-1095.16 530.5,-1095.16 530.5,-1125.66"/>
<text text-anchor="start" x="420.5" y="-1112.16" font-family="Helvetica,sans-Serif" font-size="10.00">TGRSIMap&lt; std::string,</text>
<text text-anchor="middle" x="471.5" y="-1100.91" font-family="Helvetica,sans-Serif" font-size="10.00"> TTree * &gt;</text>
</a>
</g>
</g>
<!-- Node15&#45;&gt;Node1 -->
<g id="edge14_Node000001_Node000015" class="edge">
<title>Node15&#45;&gt;Node1</title>
<g id="a_edge14_Node000001_Node000015"><a xlink:title=" ">
<path fill="none" stroke="#9a32cd" stroke-dasharray="5,2" d="M541.92,-1106.64C561.29,-1102.23 580.71,-1094.09 594.25,-1079.41 650.69,-1018.23 662.22,-735.23 663.98,-678.38"/>
<polygon fill="#9a32cd" stroke="#9a32cd" points="541.52,-1103.15 532.37,-1108.49 542.85,-1110.02 541.52,-1103.15"/>
</a>
</g>
<text text-anchor="middle" x="571.38" y="-1105.96" font-family="Helvetica,sans-Serif" font-size="10.00" fill="grey"> fTree</text>
</g>
<!-- Node16 -->
<g id="Node000016" class="node">
<title>Node16</title>
<g id="a_Node000016"><a xlink:title=" ">
<polygon fill="white" stroke="#666666" points="267,-1142.54 129.5,-1142.54 129.5,-1078.29 267,-1078.29 267,-1142.54"/>
<text text-anchor="start" x="137.5" y="-1129.04" font-family="Helvetica,sans-Serif" font-size="10.00">std::map&lt; std::string,</text>
<text text-anchor="start" x="137.5" y="-1117.79" font-family="Helvetica,sans-Serif" font-size="10.00"> TTree *, std::less&lt;</text>
<text text-anchor="start" x="137.5" y="-1106.54" font-family="Helvetica,sans-Serif" font-size="10.00"> std::string &gt;, std::allocator</text>
<text text-anchor="start" x="137.5" y="-1095.29" font-family="Helvetica,sans-Serif" font-size="10.00">&lt; std::pair&lt; const std::string,</text>
<text text-anchor="middle" x="198.25" y="-1084.04" font-family="Helvetica,sans-Serif" font-size="10.00"> TTree * &gt; &gt; &gt;</text>
</a>
</g>
</g>
<!-- Node16&#45;&gt;Node15 -->
<g id="edge15_Node000015_Node000016" class="edge">
<title>Node16&#45;&gt;Node15</title>
<g id="a_edge15_Node000015_Node000016"><a xlink:title=" ">
<path fill="none" stroke="#9a32cd" stroke-dasharray="5,2" d="M278.84,-1110.41C321.49,-1110.41 373.12,-1110.41 412.04,-1110.41"/>
<polygon fill="#9a32cd" stroke="#9a32cd" points="278.86,-1106.91 268.86,-1110.41 278.86,-1113.91 278.86,-1106.91"/>
</a>
</g>
<text text-anchor="middle" x="339.75" y="-1112.16" font-family="Helvetica,sans-Serif" font-size="10.00" fill="grey"> fMap</text>
</g>
<!-- Node17 -->
<g id="Node000017" class="node">
<title>Node17</title>
<g id="a_Node000017"><a xlink:title=" ">
<polygon fill="white" stroke="#666666" points="524.5,-438.66 418.5,-438.66 418.5,-408.16 524.5,-408.16 524.5,-438.66"/>
<text text-anchor="start" x="426.5" y="-425.16" font-family="Helvetica,sans-Serif" font-size="10.00">std::map&lt; std::string,</text>
<text text-anchor="middle" x="471.5" y="-413.91" font-family="Helvetica,sans-Serif" font-size="10.00"> TCutG * &gt;</text>
</a>
</g>
</g>
<!-- Node17&#45;&gt;Node1 -->
<g id="edge16_Node000001_Node000017" class="edge">
<title>Node17&#45;&gt;Node1</title>
<g id="a_edge16_Node000001_Node000017"><a xlink:title=" ">
<path fill="none" stroke="#9a32cd" stroke-dasharray="5,2" d="M528.95,-443.75C552.08,-454.62 577.34,-470.17 594.25,-491.16 637.84,-545.27 657.02,-629.88 662.5,-658.54"/>
<polygon fill="#9a32cd" stroke="#9a32cd" points="530.45,-440.58 519.89,-439.69 527.59,-446.97 530.45,-440.58"/>
</a>
</g>
<text text-anchor="middle" x="571.38" y="-492.91" font-family="Helvetica,sans-Serif" font-size="10.00" fill="grey"> fCuts</text>
</g>
<!-- Node18 -->
<g id="Node000018" class="node">
<title>Node18</title>
<g id="a_Node000018"><a xlink:href="class_t_p_p_g.html" target="_top" xlink:title=" ">
<polygon fill="white" stroke="#666666" points="493,-186.04 450,-186.04 450,-166.79 493,-166.79 493,-186.04"/>
<text text-anchor="middle" x="471.5" y="-172.54" font-family="Helvetica,sans-Serif" font-size="10.00">TPPG</text>
</a>
</g>
</g>
<!-- Node18&#45;&gt;Node1 -->
<g id="edge17_Node000001_Node000018" class="edge">
<title>Node18&#45;&gt;Node1</title>
<g id="a_edge17_Node000001_Node000018"><a xlink:title=" ">
<path fill="none" stroke="#9a32cd" stroke-dasharray="5,2" d="M482.83,-196.34C505.11,-239.82 558.55,-346.75 594.25,-440.16 625.91,-523.02 653.55,-626.85 661.77,-658.69"/>
<polygon fill="#9a32cd" stroke="#9a32cd" points="486.02,-194.9 478.33,-187.61 479.8,-198.1 486.02,-194.9"/>
</a>
</g>
<text text-anchor="middle" x="571.38" y="-441.91" font-family="Helvetica,sans-Serif" font-size="10.00" fill="grey"> fPpg</text>
</g>
<!-- Node19 -->
<g id="Node000019" class="node">
<title>Node19</title>
<g id="a_Node000019"><a xlink:href="class_t_singleton.html" target="_top" xlink:title=" ">
<polygon fill="white" stroke="#666666" points="718.25,-153.04 612.25,-153.04 612.25,-133.79 718.25,-133.79 718.25,-153.04"/>
<text text-anchor="middle" x="665.25" y="-139.54" font-family="Helvetica,sans-Serif" font-size="10.00">TSingleton&lt; TPPG &gt;</text>
</a>
</g>
</g>
<!-- Node18&#45;&gt;Node19 -->
<g id="edge20_Node000019_Node000018" class="edge">
<title>Node18&#45;&gt;Node19</title>
<g id="a_edge20_Node000019_Node000018"><a xlink:title=" ">
<path fill="none" stroke="#9a32cd" stroke-dasharray="5,2" d="M504.6,-170.89C533.88,-165.85 577.69,-158.31 612.02,-152.4"/>
<polygon fill="#9a32cd" stroke="#9a32cd" points="504.14,-167.42 494.88,-172.56 505.33,-174.32 504.14,-167.42"/>
</a>
</g>
<text text-anchor="middle" x="571.38" y="-164.62" font-family="Helvetica,sans-Serif" font-size="10.00" fill="grey"> fSingleton</text>
</g>
<!-- Node19&#45;&gt;Node18 -->
<g id="edge18_Node000018_Node000019" class="edge">
<title>Node19&#45;&gt;Node18</title>
<g id="a_edge18_Node000018_Node000019"><a xlink:title=" ">
<path fill="none" stroke="#63b8ff" d="M600.9,-149.63C583.82,-151.7 565.4,-154.29 548.5,-157.41 529.64,-160.9 508.5,-166.31 493.31,-170.46"/>
<polygon fill="#63b8ff" stroke="#63b8ff" points="600.86,-153.16 610.39,-148.52 600.05,-146.21 600.86,-153.16"/>
</a>
</g>
</g>
<!-- Node20 -->
<g id="Node000020" class="node">
<title>Node20</title>
<g id="a_Node000020"><a xlink:title=" ">
<polygon fill="white" stroke="#666666" points="71.5,-854.04 21,-854.04 21,-834.79 71.5,-834.79 71.5,-854.04"/>
<text text-anchor="middle" x="46.25" y="-840.54" font-family="Helvetica,sans-Serif" font-size="10.00">TObject</text>
</a>
</g>
</g>
<!-- Node20&#45;&gt;Node19 -->
<g id="edge19_Node000019_Node000020" class="edge">
<title>Node20&#45;&gt;Node19</title>
<g id="a_edge19_Node000019_Node000020"><a xlink:title=" ">
<path fill="none" stroke="#63b8ff" d="M47.81,-823.07C51.17,-702.22 70.63,-107.47 129.5,-54.41 286.8,87.36 580.68,-88.83 649.54,-133.58"/>
<polygon fill="#63b8ff" stroke="#63b8ff" points="44.31,-822.74 47.54,-832.83 51.31,-822.92 44.31,-822.74"/>
</a>
</g>
</g>
<!-- Node28 -->
<g id="Node000028" class="node">
<title>Node28</title>
<g id="a_Node000028"><a xlink:href="class_t_singleton.html" target="_top" xlink:title=" ">
<polygon fill="white" stroke="#666666" points="257.62,-810.04 138.88,-810.04 138.88,-790.79 257.62,-790.79 257.62,-810.04"/>
<text text-anchor="middle" x="198.25" y="-796.54" font-family="Helvetica,sans-Serif" font-size="10.00">TSingleton&lt; TRunInfo &gt;</text>
</a>
</g>
</g>
<!-- Node20&#45;&gt;Node28 -->
<g id="edge29_Node000028_Node000020" class="edge">
<title>Node20&#45;&gt;Node28</title>
<g id="a_edge29_Node000028_Node000020"><a xlink:title=" ">
<path fill="none" stroke="#63b8ff" d="M82.27,-833.59C96.85,-829.13 113.97,-823.95 129.5,-819.41 139.58,-816.47 150.54,-813.36 160.64,-810.52"/>
<polygon fill="#63b8ff" stroke="#63b8ff" points="81.66,-830.11 73.13,-836.39 83.72,-836.8 81.66,-830.11"/>
</a>
</g>
</g>
<!-- Node32 -->
<g id="Node000032" class="node">
<title>Node32</title>
<g id="a_Node000032"><a xlink:href="class_t_detector_information.html" target="_top" xlink:title=" ">
<polygon fill="white" stroke="#666666" points="252,-896.04 144.5,-896.04 144.5,-876.79 252,-876.79 252,-896.04"/>
<text text-anchor="middle" x="198.25" y="-882.54" font-family="Helvetica,sans-Serif" font-size="10.00">TDetectorInformation</text>
</a>
</g>
</g>
<!-- Node20&#45;&gt;Node32 -->
<g id="edge36_Node000032_Node000020" class="edge">
<title>Node20&#45;&gt;Node32</title>
<g id="a_edge36_Node000032_Node000020"><a xlink:title=" ">
<path fill="none" stroke="#63b8ff" d="M82.67,-854.33C106.39,-860.97 137.51,-869.69 161.33,-876.36"/>
<polygon fill="#63b8ff" stroke="#63b8ff" points="83.71,-850.99 73.14,-851.66 81.83,-857.73 83.71,-850.99"/>
</a>
</g>
</g>
<!-- Node33 -->
<g id="Node000033" class="node">
<title>Node33</title>
<g id="a_Node000033"><a xlink:href="class_t_analysis_options.html" target="_top" xlink:title=" ">
<polygon fill="white" stroke="#666666" points="386,-903.04 293.5,-903.04 293.5,-883.79 386,-883.79 386,-903.04"/>
<text text-anchor="middle" x="339.75" y="-889.54" font-family="Helvetica,sans-Serif" font-size="10.00">TAnalysisOptions</text>
</a>
</g>
</g>
<!-- Node20&#45;&gt;Node33 -->
<g id="edge39_Node000033_Node000020" class="edge">
<title>Node20&#45;&gt;Node33</title>
<g id="a_edge39_Node000033_Node000020"><a xlink:title=" ">
<path fill="none" stroke="#63b8ff" d="M64.2,-862.2C79.61,-876.98 103.82,-896.93 129.5,-905.41 187.55,-924.59 259.52,-913.43 302.15,-903.49"/>
<polygon fill="#63b8ff" stroke="#63b8ff" points="66.82,-859.87 57.26,-855.28 61.87,-864.82 66.82,-859.87"/>
</a>
</g>
</g>
<!-- Node21 -->
<g id="Node000021" class="node">
<title>Node21</title>
<g id="a_Node000021"><a xlink:title=" ">
<polygon fill="white" stroke="#666666" points="259.12,-168.04 137.38,-168.04 137.38,-148.79 259.12,-148.79 259.12,-168.04"/>
<text text-anchor="middle" x="198.25" y="-154.54" font-family="Helvetica,sans-Serif" font-size="10.00">std::map&lt; K, T &gt;::iterator</text>
</a>
</g>
</g>
<!-- Node21&#45;&gt;Node18 -->
<g id="edge21_Node000018_Node000021" class="edge">
<title>Node21&#45;&gt;Node18</title>
<g id="a_edge21_Node000018_Node000021"><a xlink:title=" ">
<path fill="none" stroke="#9a32cd" stroke-dasharray="5,2" d="M270.43,-156.95C307.51,-156.9 353.54,-157.96 394.5,-162.16 413.33,-164.1 434.47,-168.22 449.67,-171.54"/>
<polygon fill="#9a32cd" stroke="#9a32cd" points="270.72,-153.45 260.74,-156.99 270.75,-160.45 270.72,-153.45"/>
</a>
</g>
<text text-anchor="middle" x="339.75" y="-163.91" font-family="Helvetica,sans-Serif" font-size="10.00" fill="grey"> fCurrIterator</text>
</g>
<!-- Node22 -->
<g id="Node000022" class="node">
<title>Node22</title>
<g id="a_Node000022"><a xlink:title=" ">
<polygon fill="white" stroke="#666666" points="241.88,-131.04 154.62,-131.04 154.62,-111.79 241.88,-111.79 241.88,-131.04"/>
<text text-anchor="middle" x="198.25" y="-117.54" font-family="Helvetica,sans-Serif" font-size="10.00">std::map&lt; K, T &gt;</text>
</a>
</g>
</g>
<!-- Node22&#45;&gt;Node18 -->
<g id="edge22_Node000018_Node000022" class="edge">
<title>Node22&#45;&gt;Node18</title>
<g id="a_edge22_Node000018_Node000022"><a xlink:title=" ">
<path fill="none" stroke="#9a32cd" stroke-dasharray="5,2" d="M253.52,-122.58C293.18,-124.54 347.93,-129.54 394.5,-142.16 415.31,-147.8 437.64,-158.48 452.68,-166.42"/>
<polygon fill="#9a32cd" stroke="#9a32cd" points="253.9,-119.09 243.75,-122.15 253.59,-126.09 253.9,-119.09"/>
</a>
</g>
<text text-anchor="middle" x="339.75" y="-143.91" font-family="Helvetica,sans-Serif" font-size="10.00" fill="grey"> fPPGStatusMap</text>
</g>
<!-- Node23 -->
<g id="Node000023" class="node">
<title>Node23</title>
<g id="a_Node000023"><a xlink:title=" ">
<polygon fill="white" stroke="#666666" points="254.25,-93.66 142.25,-93.66 142.25,-63.16 254.25,-63.16 254.25,-93.66"/>
<text text-anchor="start" x="150.25" y="-80.16" font-family="Helvetica,sans-Serif" font-size="10.00">std::map&lt; ULong64_t,</text>
<text text-anchor="middle" x="198.25" y="-68.91" font-family="Helvetica,sans-Serif" font-size="10.00"> int &gt;</text>
</a>
</g>
</g>
<!-- Node23&#45;&gt;Node18 -->
<g id="edge23_Node000018_Node000023" class="edge">
<title>Node23&#45;&gt;Node18</title>
<g id="a_edge23_Node000018_Node000023"><a xlink:title=" ">
<path fill="none" stroke="#9a32cd" stroke-dasharray="5,2" d="M265.9,-80.18C304.95,-83.39 354.32,-91.29 394.5,-110.16 423.34,-123.71 449.58,-151.48 462.35,-166.4"/>
<polygon fill="#9a32cd" stroke="#9a32cd" points="266.4,-76.71 256.17,-79.47 265.89,-83.69 266.4,-76.71"/>
</a>
</g>
<text text-anchor="middle" x="339.75" y="-111.91" font-family="Helvetica,sans-Serif" font-size="10.00" fill="grey"> fNumberOfCycleLengths</text>
</g>
<!-- Node24 -->
<g id="Node000024" class="node">
<title>Node24</title>
<g id="a_Node000024"><a xlink:title=" ">
<polygon fill="white" stroke="#666666" points="251.62,-242.04 144.88,-242.04 144.88,-222.79 251.62,-222.79 251.62,-242.04"/>
<text text-anchor="middle" x="198.25" y="-228.54" font-family="Helvetica,sans-Serif" font-size="10.00">std::vector&lt; int16_t &gt;</text>
</a>
</g>
</g>
<!-- Node24&#45;&gt;Node18 -->
<g id="edge24_Node000018_Node000024" class="edge">
<title>Node24&#45;&gt;Node18</title>
<g id="a_edge24_Node000018_Node000024"><a xlink:title=" ">
<path fill="none" stroke="#9a32cd" stroke-dasharray="5,2" d="M263.09,-226.69C301.55,-222.4 351.29,-215.34 394.5,-204.41 413.59,-199.59 434.53,-191.67 449.58,-185.48"/>
<polygon fill="#9a32cd" stroke="#9a32cd" points="263.11,-223.17 253.55,-227.72 263.87,-230.13 263.11,-223.17"/>
</a>
</g>
<text text-anchor="middle" x="339.75" y="-236.56" font-family="Helvetica,sans-Serif" font-size="10.00" fill="grey"> fOdbPPGCodes</text>
<text text-anchor="middle" x="339.75" y="-225.31" font-family="Helvetica,sans-Serif" font-size="10.00" fill="grey">fPPGCodes</text>
</g>
<!-- Node25 -->
<g id="Node000025" class="node">
<title>Node25</title>
<g id="a_Node000025"><a xlink:title=" ">
<polygon fill="white" stroke="#666666" points="242.25,-444.04 154.25,-444.04 154.25,-424.79 242.25,-424.79 242.25,-444.04"/>
<text text-anchor="middle" x="198.25" y="-430.54" font-family="Helvetica,sans-Serif" font-size="10.00">std::vector&lt; int &gt;</text>
</a>
</g>
</g>
<!-- Node25&#45;&gt;Node18 -->
<g id="edge25_Node000018_Node000025" class="edge">
<title>Node25&#45;&gt;Node18</title>
<g id="a_edge25_Node000018_Node000025"><a xlink:title=" ">
<path fill="none" stroke="#9a32cd" stroke-dasharray="5,2" d="M254,-438.72C297.04,-439.09 355.98,-432.51 394.5,-399.41 461.82,-341.57 469.62,-221.56 470.43,-186.34"/>
<polygon fill="#9a32cd" stroke="#9a32cd" points="254.18,-435.23 244.1,-438.49 254.01,-442.22 254.18,-435.23"/>
</a>
</g>
<text text-anchor="middle" x="339.75" y="-439.31" font-family="Helvetica,sans-Serif" font-size="10.00" fill="grey"> fOdbDurations</text>
</g>
<!-- Node27 -->
<g id="Node000027" class="node">
<title>Node27</title>
<g id="a_Node000027"><a xlink:href="class_t_run_info.html" target="_top" xlink:title=" ">
<polygon fill="white" stroke="#666666" points="499.38,-791.04 443.62,-791.04 443.62,-771.79 499.38,-771.79 499.38,-791.04"/>
<text text-anchor="middle" x="471.5" y="-777.54" font-family="Helvetica,sans-Serif" font-size="10.00">TRunInfo</text>
</a>
</g>
</g>
<!-- Node25&#45;&gt;Node27 -->
<g id="edge34_Node000027_Node000025" class="edge">
<title>Node25&#45;&gt;Node27</title>
<g id="a_edge34_Node000027_Node000025"><a xlink:title=" ">
<path fill="none" stroke="#9a32cd" stroke-dasharray="5,2" d="M253.12,-442.57C258.41,-445.28 263.21,-448.82 267,-453.41 298.74,-491.97 255.2,-637.34 285,-677.41 316.17,-719.34 356.15,-684.69 394.5,-720.16 408,-732.65 399.13,-744.79 412.5,-757.41 421.06,-765.49 432.72,-771.03 443.34,-774.72"/>
<polygon fill="#9a32cd" stroke="#9a32cd" points="254.47,-439.34 243.88,-438.87 251.87,-445.84 254.47,-439.34"/>
</a>
</g>
<text text-anchor="middle" x="339.75" y="-721.91" font-family="Helvetica,sans-Serif" font-size="10.00" fill="grey"> fBadCycleList</text>
</g>
<!-- Node26 -->
<g id="Node000026" class="node">
<title>Node26</title>
<g id="a_Node000026"><a xlink:title=" ">
<polygon fill="white" stroke="#666666" points="261,-205.04 135.5,-205.04 135.5,-185.79 261,-185.79 261,-205.04"/>
<text text-anchor="middle" x="198.25" y="-191.54" font-family="Helvetica,sans-Serif" font-size="10.00">std::vector&lt; ULong64_t &gt;</text>
</a>
</g>
</g>
<!-- Node26&#45;&gt;Node18 -->
<g id="edge26_Node000018_Node000026" class="edge">
<title>Node26&#45;&gt;Node18</title>
<g id="a_edge26_Node000018_Node000026"><a xlink:title=" ">
<path fill="none" stroke="#9a32cd" stroke-dasharray="5,2" d="M272.74,-190.27C332.35,-186.09 412.4,-180.48 449.72,-177.87"/>
<polygon fill="#9a32cd" stroke="#9a32cd" points="272.72,-186.76 262.99,-190.95 273.21,-193.74 272.72,-186.76"/>
</a>
</g>
<text text-anchor="middle" x="339.75" y="-191.02" font-family="Helvetica,sans-Serif" font-size="10.00" fill="grey"> fDurations</text>
</g>
<!-- Node27&#45;&gt;Node1 -->
<g id="edge27_Node000001_Node000027" class="edge">
<title>Node27&#45;&gt;Node1</title>
<g id="a_edge27_Node000001_Node000027"><a xlink:title=" ">
<path fill="none" stroke="#9a32cd" stroke-dasharray="5,2" d="M509.05,-767C516.23,-763.98 523.65,-760.7 530.5,-757.41 559.64,-743.44 567.21,-740.12 594.25,-722.41 615.82,-708.29 639.23,-689.45 652.77,-678.16"/>
<polygon fill="#9a32cd" stroke="#9a32cd" points="507.77,-763.75 499.86,-770.8 510.44,-770.22 507.77,-763.75"/>
</a>
</g>
<text text-anchor="middle" x="571.38" y="-749.98" font-family="Helvetica,sans-Serif" font-size="10.00" fill="grey"> fRunInfo</text>
</g>
<!-- Node27&#45;&gt;Node28 -->
<g id="edge30_Node000028_Node000027" class="edge">
<title>Node27&#45;&gt;Node28</title>
<g id="a_edge30_Node000028_Node000027"><a xlink:title=" ">
<path fill="none" stroke="#9a32cd" stroke-dasharray="5,2" d="M432.39,-774.06C394.54,-768.07 335.09,-762.23 285,-773.16 276.4,-775.04 275.26,-778.38 267,-781.41 258.05,-784.7 248.27,-787.74 238.99,-790.39"/>
<polygon fill="#9a32cd" stroke="#9a32cd" points="431.47,-777.45 441.91,-775.65 432.63,-770.55 431.47,-777.45"/>
</a>
</g>
<text text-anchor="middle" x="339.75" y="-774.91" font-family="Helvetica,sans-Serif" font-size="10.00" fill="grey"> fSingleton</text>
</g>
<!-- Node28&#45;&gt;Node27 -->
<g id="edge28_Node000027_Node000028" class="edge">
<title>Node28&#45;&gt;Node27</title>
<g id="a_edge28_Node000027_Node000028"><a xlink:title=" ">
<path fill="none" stroke="#63b8ff" d="M269.52,-795.49C326.18,-791.52 402.86,-786.15 443.16,-783.33"/>
<polygon fill="#63b8ff" stroke="#63b8ff" points="269.35,-791.99 259.62,-796.19 269.84,-798.98 269.35,-791.99"/>
</a>
</g>
</g>
<!-- Node29 -->
<g id="Node000029" class="node">
<title>Node29</title>
<g id="a_Node000029"><a xlink:title=" ">
<polygon fill="white" stroke="#666666" points="227.25,-1016.04 169.25,-1016.04 169.25,-996.79 227.25,-996.79 227.25,-1016.04"/>
<text text-anchor="middle" x="198.25" y="-1002.54" font-family="Helvetica,sans-Serif" font-size="10.00">std::string</text>
</a>
</g>
</g>
<!-- Node29&#45;&gt;Node1 -->
<g id="edge37_Node000001_Node000029" class="edge">
<title>Node29&#45;&gt;Node1</title>
<g id="a_edge37_Node000001_Node000029"><a xlink:title=" ">
<path fill="none" stroke="#9a32cd" stroke-dasharray="5,2" d="M222.65,-1022.68C239.22,-1033.16 262.42,-1045.85 285,-1051.41 332.25,-1063.06 350.14,-1071.42 394.5,-1051.41 563.54,-975.18 645.45,-730.94 661.34,-678.42"/>
<polygon fill="#9a32cd" stroke="#9a32cd" points="224.8,-1019.9 214.52,-1017.34 220.96,-1025.75 224.8,-1019.9"/>
</a>
</g>
<text text-anchor="middle" x="471.5" y="-1043.92" font-family="Helvetica,sans-Serif" font-size="10.00" fill="grey"> fOutputPrefix</text>
</g>
<!-- Node29&#45;&gt;Node27 -->
<g id="edge31_Node000027_Node000029" class="edge">
<title>Node29&#45;&gt;Node27</title>
<g id="a_edge31_Node000027_Node000029"><a xlink:title=" ">
<path fill="none" stroke="#9a32cd" stroke-dasharray="5,2" d="M214.23,-987.78C229.91,-969.57 256.24,-942.49 285,-927.66 329.22,-904.86 360.02,-940.28 394.5,-904.41 427.31,-870.28 381.29,-835.02 412.5,-799.41 420.22,-790.61 432.14,-786.06 443.18,-783.73"/>
<polygon fill="#9a32cd" stroke="#9a32cd" points="211.74,-985.3 208.01,-995.22 217.11,-989.79 211.74,-985.3"/>
</a>
</g>
<text text-anchor="middle" x="339.75" y="-1041.91" font-family="Helvetica,sans-Serif" font-size="10.00" fill="grey"> fCalFile</text>
<text text-anchor="middle" x="339.75" y="-1030.66" font-family="Helvetica,sans-Serif" font-size="10.00" fill="grey">fCalFileName</text>
<text text-anchor="middle" x="339.75" y="-1019.41" font-family="Helvetica,sans-Serif" font-size="10.00" fill="grey">fDate</text>
<text text-anchor="middle" x="339.75" y="-1008.16" font-family="Helvetica,sans-Serif" font-size="10.00" fill="grey">fFullVersion</text>
<text text-anchor="middle" x="339.75" y="-996.91" font-family="Helvetica,sans-Serif" font-size="10.00" fill="grey">fLibraryPath</text>
<text text-anchor="middle" x="339.75" y="-985.66" font-family="Helvetica,sans-Serif" font-size="10.00" fill="grey">fLibraryVersion</text>
<text text-anchor="middle" x="339.75" y="-974.41" font-family="Helvetica,sans-Serif" font-size="10.00" fill="grey">fRunComment</text>
<text text-anchor="middle" x="339.75" y="-963.16" font-family="Helvetica,sans-Serif" font-size="10.00" fill="grey">fRunInfoFile</text>
<text text-anchor="middle" x="339.75" y="-951.91" font-family="Helvetica,sans-Serif" font-size="10.00" fill="grey">fRunInfoFileName</text>
<text text-anchor="middle" x="339.75" y="-940.66" font-family="Helvetica,sans-Serif" font-size="10.00" fill="grey">fRunTitle</text>
<text text-anchor="middle" x="339.75" y="-929.41" font-family="Helvetica,sans-Serif" font-size="10.00" fill="grey">...</text>
</g>
<!-- Node30 -->
<g id="Node000030" class="node">
<title>Node30</title>
<g id="a_Node000030"><a xlink:title=" ">
<polygon fill="white" stroke="#666666" points="92.5,-1021.66 0,-1021.66 0,-991.16 92.5,-991.16 92.5,-1021.66"/>
<text text-anchor="start" x="8" y="-1008.16" font-family="Helvetica,sans-Serif" font-size="10.00">std::basic_string&lt;</text>
<text text-anchor="middle" x="46.25" y="-996.91" font-family="Helvetica,sans-Serif" font-size="10.00"> Char &gt;</text>
</a>
</g>
</g>
<!-- Node30&#45;&gt;Node29 -->
<g id="edge32_Node000029_Node000030" class="edge">
<title>Node30&#45;&gt;Node29</title>
<g id="a_edge32_Node000029_Node000030"><a xlink:title=" ">
<path fill="none" stroke="#63b8ff" d="M104.02,-1006.41C126.21,-1006.41 150.67,-1006.41 168.97,-1006.41"/>
<polygon fill="#63b8ff" stroke="#63b8ff" points="104.18,-1002.91 94.18,-1006.41 104.18,-1009.91 104.18,-1002.91"/>
</a>
</g>
</g>
<!-- Node31 -->
<g id="Node000031" class="node">
<title>Node31</title>
<g id="a_Node000031"><a xlink:title=" ">
<polygon fill="white" stroke="#666666" points="243,-858.66 153.5,-858.66 153.5,-828.16 243,-828.16 243,-858.66"/>
<text text-anchor="start" x="161.5" y="-845.16" font-family="Helvetica,sans-Serif" font-size="10.00">std::set&lt; std::pair</text>
<text text-anchor="middle" x="198.25" y="-833.91" font-family="Helvetica,sans-Serif" font-size="10.00">&lt; int, int &gt; &gt;</text>
</a>
</g>
</g>
<!-- Node31&#45;&gt;Node27 -->
<g id="edge33_Node000027_Node000031" class="edge">
<title>Node31&#45;&gt;Node27</title>
<g id="a_edge33_Node000027_Node000031"><a xlink:title=" ">
<path fill="none" stroke="#9a32cd" stroke-dasharray="5,2" d="M254.52,-833.85C293.79,-826.69 347.65,-816.15 394.5,-804.41 403.79,-802.08 425.4,-795.5 443.21,-789.98"/>
<polygon fill="#9a32cd" stroke="#9a32cd" points="254.04,-830.38 244.82,-835.6 255.29,-837.27 254.04,-830.38"/>
</a>
</g>
<text text-anchor="middle" x="339.75" y="-829.18" font-family="Helvetica,sans-Serif" font-size="10.00" fill="grey"> fRunList</text>
</g>
<!-- Node32&#45;&gt;Node27 -->
<g id="edge35_Node000027_Node000032" class="edge">
<title>Node32&#45;&gt;Node27</title>
<g id="a_edge35_Node000027_Node000032"><a xlink:title=" ">
<path fill="none" stroke="#9a32cd" stroke-dasharray="5,2" d="M252.16,-873.76C263.02,-871.21 274.37,-868.57 285,-866.16 333.57,-855.16 356.22,-874.26 394.5,-842.41 410.43,-829.16 397.17,-813.35 412.5,-799.41 420.93,-791.76 432.57,-787.36 443.21,-784.83"/>
<polygon fill="#9a32cd" stroke="#9a32cd" points="251.49,-870.32 242.56,-876.02 253.09,-877.13 251.49,-870.32"/>
</a>
</g>
<text text-anchor="middle" x="339.75" y="-867.91" font-family="Helvetica,sans-Serif" font-size="10.00" fill="grey"> fDetectorInformation</text>
</g>
<!-- Node33&#45;&gt;Node1 -->
<g id="edge38_Node000001_Node000033" class="edge">
<title>Node33&#45;&gt;Node1</title>
<g id="a_edge38_Node000001_Node000033"><a xlink:title=" ">
<path fill="none" stroke="#9a32cd" stroke-dasharray="5,2" d="M397.22,-885.43C454.83,-874.32 542.85,-848.67 594.25,-791.41 627.08,-754.85 651.34,-700.34 660.38,-678.25"/>
<polygon fill="#9a32cd" stroke="#9a32cd" points="396.82,-881.94 387.61,-887.19 398.08,-888.83 396.82,-881.94"/>
</a>
</g>
<text text-anchor="middle" x="471.5" y="-883.47" font-family="Helvetica,sans-Serif" font-size="10.00" fill="grey"> fAnalysisOptions</text>
</g>
</g>
</svg>

<g id="navigator" transform="translate(0 0)" fill="#404254">
  <rect fill="#f2f5e9" fill-opacity="0.5" stroke="#606060" stroke-width=".5" x="0" y="0" width="60" height="60"/>
  <use id="zoomplus" xlink:href="#zoomPlus" x="17" y="9" onmousedown="handleZoom(evt,'in')"/>
  <use id="zoomminus" xlink:href="#zoomMin" x="42" y="9" onmousedown="handleZoom(evt,'out')"/>
  <use id="reset" xlink:href="#resetDef" x="30" y="36" onmousedown="handleReset()"/>
   <use id="arrowup" xlink:href="#arrowUp" x="0" y="0" onmousedown="handlePan(0,-1)"/>
  <use id="arrowright" xlink:href="#arrowRight" x="0" y="0" onmousedown="handlePan(1,0)"/>
  <use id="arrowdown" xlink:href="#arrowDown" x="0" y="0" onmousedown="handlePan(0,1)"/>
  <use id="arrowleft" xlink:href="#arrowLeft" x="0" y="0" onmousedown="handlePan(-1,0)"/>
</g>
<svg viewBox="0 0 15 15" width="100%" height="30px" preserveAspectRatio="xMaxYMin meet">
 <g id="arrow_out" transform="scale(0.3 0.3)">
  <a xlink:href="class_t_g_r_s_i_selector__coll__graph_org.svg" target="_base">
   <rect id="button" ry="5" rx="5" y="6" x="6" height="38" width="38"
        fill="#f2f5e9" fill-opacity="0.5" stroke="#606060" stroke-width="1.0"/>
   <path id="arrow"
     d="M 11.500037,31.436501 C 11.940474,20.09759 22.043105,11.32322 32.158766,21.979434 L 37.068811,17.246167 C 37.068811,17.246167 37.088388,32 37.088388,32 L 22.160133,31.978069 C 22.160133,31.978069 26.997745,27.140456 26.997745,27.140456 C 18.528582,18.264221 13.291696,25.230495 11.500037,31.436501 z"
     style="fill:#404040;"/>
  </a>
 </g>
</svg>

<style type='text/css'>
<![CDATA[
[data-mouse-over-selected='false'] { opacity: 0.7; }
[data-mouse-over-selected='true']  { opacity: 1.0; }
]]>
</style>
<script type="application/ecmascript"><![CDATA[
document.addEventListener('DOMContentLoaded', (event) => {
  highlightEdges();
  highlightAdjacentNodes();
});
]]></script>
</svg>
