<?xml version="1.0" encoding="UTF-8" standalone="no"?>
<!DOCTYPE svg PUBLIC "-//W3C//DTD SVG 1.1//EN"
 "http://www.w3.org/Graphics/SVG/1.1/DTD/svg11.dtd">
<!-- Generated by graphviz version 12.2.0 (20241103.1931)
 -->
<!-- Title: GH2Base::iterator Pages: 1 -->
<svg width="195pt" height="172pt"
 viewBox="0.00 0.00 194.62 171.50" xmlns="http://www.w3.org/2000/svg" xmlns:xlink="http://www.w3.org/1999/xlink">

<svg id="main" version="1.1" xmlns="http://www.w3.org/2000/svg" xmlns:xlink="http://www.w3.org/1999/xlink" xml:space="preserve">

<style type="text/css"><![CDATA[
.node, .edge {opacity: 0.7;}
.node.selected, .edge.selected {opacity: 1;}
.edge:hover path { stroke: red; }
.edge:hover polygon { stroke: red; fill: red; }
]]></style>
<script type="application/ecmascript" xlink:href="svg.min.js"/>
<svg id="graph" class="graph">
<g id="graph0" class="graph" transform="scale(1 1) rotate(0) translate(4 167.5)">
<title>GH2Base::iterator</title>
<!-- Node1 -->
<g id="Node000001" class="node">
<title>Node1</title>
<g id="a_Node000001"><a xlink:title=" ">
<polygon fill="#999999" stroke="#666666" points="98,-19.25 4.75,-19.25 4.75,0 98,0 98,-19.25"/>
<text text-anchor="middle" x="51.38" y="-5.75" font-family="Helvetica,sans-Serif" font-size="10.00">GH2Base::iterator</text>
</a>
</g>
</g>
<!-- Node2 -->
<g id="Node000002" class="node">
<title>Node2</title>
<g id="a_Node000002"><a xlink:href="class_g_h2_base.html" target="_top" xlink:title=" ">
<polygon fill="white" stroke="#666666" points="58.75,-97 0,-97 0,-77.75 58.75,-77.75 58.75,-97"/>
<text text-anchor="middle" x="29.38" y="-83.5" font-family="Helvetica,sans-Serif" font-size="10.00">GH2Base</text>
</a>
</g>
</g>
<!-- Node2&#45;&gt;Node1 -->
<g id="edge1_Node000001_Node000002" class="edge">
<title>Node2&#45;&gt;Node1</title>
<g id="a_edge1_Node000001_Node000002"><a xlink:title=" ">
<path fill="none" stroke="#9a32cd" stroke-dasharray="5,2" d="M34.5,-66.41C36.86,-57.46 39.77,-46.79 42.62,-37.25 44.41,-31.28 46.6,-24.63 48.34,-19.46"/>
<polygon fill="#9a32cd" stroke="#9a32cd" points="31.18,-65.26 32.05,-75.81 37.96,-67.02 31.18,-65.26"/>
</a>
</g>
<text text-anchor="middle" x="53.5" y="-44.62" font-family="Helvetica,sans-Serif" font-size="10.00" fill="grey"> fMat</text>
</g>
<!-- Node3 -->
<g id="Node000003" class="node">
<title>Node3</title>
<g id="a_Node000003"><a xlink:href="class_g_h1_d.html" target="_top" xlink:title=" ">
<polygon fill="white" stroke="#666666" points="119.88,-97 76.88,-97 76.88,-77.75 119.88,-77.75 119.88,-97"/>
<text text-anchor="middle" x="98.38" y="-83.5" font-family="Helvetica,sans-Serif" font-size="10.00">GH1D</text>
</a>
</g>
</g>
<!-- Node3&#45;&gt;Node1 -->
<g id="edge2_Node000001_Node000003" class="edge">
<title>Node3&#45;&gt;Node1</title>
<g id="a_edge2_Node000001_Node000003"><a xlink:title=" ">
<path fill="none" stroke="#9a32cd" stroke-dasharray="5,2" d="M86.91,-67.89C77.4,-52.56 64.29,-31.44 56.94,-19.6"/>
<polygon fill="#9a32cd" stroke="#9a32cd" points="83.75,-69.45 92,-76.1 89.7,-65.76 83.75,-69.45"/>
</a>
</g>
<text text-anchor="middle" x="93.46" y="-50.25" font-family="Helvetica,sans-Serif" font-size="10.00" fill="grey"> fCurr</text>
<text text-anchor="middle" x="93.46" y="-39" font-family="Helvetica,sans-Serif" font-size="10.00" fill="grey">fFirst</text>
</g>
<!-- Node4 -->
<g id="Node000004" class="node">
<title>Node4</title>
<g id="a_Node000004"><a xlink:title=" ">
<polygon fill="white" stroke="#666666" points="76.12,-163.5 34.62,-163.5 34.62,-144.25 76.12,-144.25 76.12,-163.5"/>
<text text-anchor="middle" x="55.38" y="-150" font-family="Helvetica,sans-Serif" font-size="10.00">TH1D</text>
</a>
</g>
</g>
<!-- Node4&#45;&gt;Node3 -->
<g id="edge3_Node000003_Node000004" class="edge">
<title>Node4&#45;&gt;Node3</title>
<g id="a_edge3_Node000003_Node000004"><a xlink:title=" ">
<path fill="none" stroke="#63b8ff" d="M67.54,-134.63C75.68,-122.41 86.05,-106.86 92.45,-97.27"/>
<polygon fill="#63b8ff" stroke="#63b8ff" points="64.83,-132.39 62.19,-142.65 70.65,-136.27 64.83,-132.39"/>
</a>
</g>
</g>
<!-- Node5 -->
<g id="Node000005" class="node">
<title>Node5</title>
<g id="a_Node000005"><a xlink:title=" ">
<polygon fill="white" stroke="#666666" points="186.62,-163.5 94.12,-163.5 94.12,-144.25 186.62,-144.25 186.62,-163.5"/>
<text text-anchor="middle" x="140.38" y="-150" font-family="Helvetica,sans-Serif" font-size="10.00">std::array&lt; int, 3 &gt;</text>
</a>
</g>
</g>
<!-- Node5&#45;&gt;Node3 -->
<g id="edge4_Node000003_Node000005" class="edge">
<title>Node5&#45;&gt;Node3</title>
<g id="a_edge4_Node000003_Node000005"><a xlink:title=" ">
<path fill="none" stroke="#9a32cd" stroke-dasharray="5,2" d="M128.25,-134.26C120.34,-122.1 110.35,-106.77 104.17,-97.27"/>
<polygon fill="#9a32cd" stroke="#9a32cd" points="125.32,-136.17 133.71,-142.64 131.19,-132.35 125.32,-136.17"/>
</a>
</g>
<text text-anchor="middle" x="150.76" y="-116.75" font-family="Helvetica,sans-Serif" font-size="10.00" fill="grey"> fRegionColor</text>
</g>
</g>
</svg>
</svg>

<style type='text/css'>
<![CDATA[
[data-mouse-over-selected='false'] { opacity: 0.7; }
[data-mouse-over-selected='true']  { opacity: 1.0; }
]]>
</style>
<script type="application/ecmascript"><![CDATA[
document.addEventListener('DOMContentLoaded', (event) => {
  highlightEdges();
  highlightAdjacentNodes();
});
]]></script>
</svg>
