<?xml version="1.0" encoding="UTF-8" standalone="no"?>
<!DOCTYPE svg PUBLIC "-//W3C//DTD SVG 1.1//EN"
 "http://www.w3.org/Graphics/SVG/1.1/DTD/svg11.dtd">
<!-- Generated by graphviz version 9.0.0 (20230911.1827)
 -->
<!-- Title: TGainMatch Pages: 1 -->
<svg width="222pt" height="317pt"
 viewBox="0.00 0.00 222.12 316.75" xmlns="http://www.w3.org/2000/svg" xmlns:xlink="http://www.w3.org/1999/xlink">

<svg id="main" version="1.1" xmlns="http://www.w3.org/2000/svg" xmlns:xlink="http://www.w3.org/1999/xlink" xml:space="preserve" onload="init(evt)">
<style type="text/css"><![CDATA[
.node, .edge {opacity: 0.7;}
.node.selected, .edge.selected {opacity: 1;}
.edge:hover path { stroke: red; }
.edge:hover polygon { stroke: red; fill: red; }
]]></style>
<script type="application/ecmascript" xlink:href="svg.min.js"/>
<svg id="graph" class="graph">
<g id="graph0" class="graph" transform="scale(1 1) rotate(0) translate(4 312.75)">
<title>TGainMatch</title>
<!-- Node1 -->
<g id="Node000001" class="node">
<title>Node1</title>
<g id="a_Node000001"><a xlink:title=" ">
<polygon fill="#999999" stroke="#666666" points="128.5,-19.25 59.25,-19.25 59.25,0 128.5,0 128.5,-19.25"/>
<text text-anchor="middle" x="93.88" y="-5.75" font-family="Helvetica,sans-Serif" font-size="10.00">TGainMatch</text>
</a>
</g>
</g>
<!-- Node2 -->
<g id="Node000002" class="node">
<title>Node2</title>
<g id="a_Node000002"><a xlink:href="class_t_cal.html" target="_top" xlink:title=" ">
<polygon fill="white" stroke="#666666" points="71,-102.62 34.75,-102.62 34.75,-83.38 71,-83.38 71,-102.62"/>
<text text-anchor="middle" x="52.88" y="-89.12" font-family="Helvetica,sans-Serif" font-size="10.00">TCal</text>
</a>
</g>
</g>
<!-- Node2&#45;&gt;Node1 -->
<g id="edge1_Node000001_Node000002" class="edge">
<title>Node2&#45;&gt;Node1</title>
<g id="a_edge1_Node000001_Node000002"><a xlink:title=" ">
<path fill="none" stroke="#63b8ff" d="M62.4,-73.1C70.91,-56.21 83,-32.22 89.43,-19.44"/>
<polygon fill="#63b8ff" stroke="#63b8ff" points="59.47,-71.12 58.1,-81.63 65.73,-74.27 59.47,-71.12"/>
</a>
</g>
</g>
<!-- Node3 -->
<g id="Node000003" class="node">
<title>Node3</title>
<g id="a_Node000003"><a xlink:title=" ">
<polygon fill="white" stroke="#666666" points="73.75,-174.75 0,-174.75 0,-155.5 73.75,-155.5 73.75,-174.75"/>
<text text-anchor="middle" x="36.88" y="-161.25" font-family="Helvetica,sans-Serif" font-size="10.00">TGraphErrors</text>
</a>
</g>
</g>
<!-- Node3&#45;&gt;Node2 -->
<g id="edge2_Node000002_Node000003" class="edge">
<title>Node3&#45;&gt;Node2</title>
<g id="a_edge2_Node000002_Node000003"><a xlink:title=" ">
<path fill="none" stroke="#63b8ff" d="M41.43,-144.16C44.52,-130.62 48.46,-113.37 50.81,-103.03"/>
<polygon fill="#63b8ff" stroke="#63b8ff" points="38.05,-143.24 39.24,-153.77 44.87,-144.8 38.05,-143.24"/>
</a>
</g>
</g>
<!-- Node4 -->
<g id="Node000004" class="node">
<title>Node4</title>
<g id="a_Node000004"><a xlink:href="class_t_nucleus.html" target="_top" xlink:title=" ">
<polygon fill="white" stroke="#666666" points="149.88,-174.75 91.88,-174.75 91.88,-155.5 149.88,-155.5 149.88,-174.75"/>
<text text-anchor="middle" x="120.88" y="-161.25" font-family="Helvetica,sans-Serif" font-size="10.00">TNucleus</text>
</a>
</g>
</g>
<!-- Node4&#45;&gt;Node2 -->
<g id="edge3_Node000002_Node000004" class="edge">
<title>Node4&#45;&gt;Node2</title>
<g id="a_edge3_Node000002_Node000004"><a xlink:title=" ">
<path fill="none" stroke="#9a32cd" stroke-dasharray="5,2" d="M104.27,-147C90.81,-133.12 72.37,-114.11 61.63,-103.03"/>
<polygon fill="#9a32cd" stroke="#9a32cd" points="101.73,-149.41 111.21,-154.16 106.76,-144.54 101.73,-149.41"/>
</a>
</g>
<text text-anchor="middle" x="107.5" y="-128" font-family="Helvetica,sans-Serif" font-size="10.00" fill="grey"> fNuc</text>
</g>
<!-- Node5 -->
<g id="Node000005" class="node">
<title>Node5</title>
<g id="a_Node000005"><a xlink:title=" ">
<polygon fill="white" stroke="#666666" points="120.62,-241.25 67.12,-241.25 67.12,-222 120.62,-222 120.62,-241.25"/>
<text text-anchor="middle" x="93.88" y="-227.75" font-family="Helvetica,sans-Serif" font-size="10.00">TNamed</text>
</a>
</g>
</g>
<!-- Node5&#45;&gt;Node4 -->
<g id="edge4_Node000004_Node000005" class="edge">
<title>Node5&#45;&gt;Node4</title>
<g id="a_edge4_Node000004_Node000005"><a xlink:title=" ">
<path fill="none" stroke="#63b8ff" d="M101.98,-211.27C107.02,-199.23 113.26,-184.33 117.15,-175.02"/>
<polygon fill="#63b8ff" stroke="#63b8ff" points="98.85,-209.68 98.21,-220.26 105.3,-212.39 98.85,-209.68"/>
</a>
</g>
</g>
<!-- Node6 -->
<g id="Node000006" class="node">
<title>Node6</title>
<g id="a_Node000006"><a xlink:title=" ">
<polygon fill="white" stroke="#666666" points="196.88,-241.25 138.88,-241.25 138.88,-222 196.88,-222 196.88,-241.25"/>
<text text-anchor="middle" x="167.88" y="-227.75" font-family="Helvetica,sans-Serif" font-size="10.00">std::string</text>
</a>
</g>
</g>
<!-- Node6&#45;&gt;Node4 -->
<g id="edge5_Node000004_Node000006" class="edge">
<title>Node6&#45;&gt;Node4</title>
<g id="a_edge5_Node000004_Node000006"><a xlink:title=" ">
<path fill="none" stroke="#9a32cd" stroke-dasharray="5,2" d="M154.58,-212.38C145.68,-200.16 134.35,-184.61 127.35,-175.02"/>
<polygon fill="#9a32cd" stroke="#9a32cd" points="151.73,-214.41 160.45,-220.43 157.39,-210.29 151.73,-214.41"/>
</a>
</g>
<text text-anchor="middle" x="165.62" y="-194.5" font-family="Helvetica,sans-Serif" font-size="10.00" fill="grey"> fSymbol</text>
</g>
<!-- Node7 -->
<g id="Node000007" class="node">
<title>Node7</title>
<g id="a_Node000007"><a xlink:title=" ">
<polygon fill="white" stroke="#666666" points="214.12,-308.75 121.62,-308.75 121.62,-278.25 214.12,-278.25 214.12,-308.75"/>
<text text-anchor="start" x="129.62" y="-295.25" font-family="Helvetica,sans-Serif" font-size="10.00">std::basic_string&lt;</text>
<text text-anchor="middle" x="167.88" y="-284" font-family="Helvetica,sans-Serif" font-size="10.00"> Char &gt;</text>
</a>
</g>
</g>
<!-- Node7&#45;&gt;Node6 -->
<g id="edge6_Node000006_Node000007" class="edge">
<title>Node7&#45;&gt;Node6</title>
<g id="a_edge6_Node000006_Node000007"><a xlink:title=" ">
<path fill="none" stroke="#63b8ff" d="M167.88,-266.77C167.88,-257.79 167.88,-248.29 167.88,-241.6"/>
<polygon fill="#63b8ff" stroke="#63b8ff" points="164.38,-266.49 167.88,-276.49 171.38,-266.49 164.38,-266.49"/>
</a>
</g>
</g>
<!-- Node8 -->
<g id="Node000008" class="node">
<title>Node8</title>
<g id="a_Node000008"><a xlink:title=" ">
<polygon fill="white" stroke="#666666" points="182.5,-108.25 89.25,-108.25 89.25,-77.75 182.5,-77.75 182.5,-108.25"/>
<text text-anchor="start" x="97.25" y="-94.75" font-family="Helvetica,sans-Serif" font-size="10.00">std::array&lt; Double</text>
<text text-anchor="middle" x="135.88" y="-83.5" font-family="Helvetica,sans-Serif" font-size="10.00">_t, 2 &gt;</text>
</a>
</g>
</g>
<!-- Node8&#45;&gt;Node1 -->
<g id="edge7_Node000001_Node000008" class="edge">
<title>Node8&#45;&gt;Node1</title>
<g id="a_edge7_Node000001_Node000008"><a xlink:title=" ">
<path fill="none" stroke="#9a32cd" stroke-dasharray="5,2" d="M123.24,-67.52C114.87,-51.29 104.37,-30.96 98.46,-19.52"/>
<polygon fill="#9a32cd" stroke="#9a32cd" points="119.98,-68.83 127.67,-76.11 126.2,-65.62 119.98,-68.83"/>
</a>
</g>
<text text-anchor="middle" x="145.25" y="-50.25" font-family="Helvetica,sans-Serif" font-size="10.00" fill="grey"> fAlignCoeffs</text>
<text text-anchor="middle" x="145.25" y="-39" font-family="Helvetica,sans-Serif" font-size="10.00" fill="grey">fGainCoeffs</text>
</g>
</g>
</svg>
</svg>

<style type='text/css'>
<![CDATA[
[data-mouse-over-selected='false'] { opacity: 0.7; }
[data-mouse-over-selected='true']  { opacity: 1.0; }
]]>
</style>
<script type="application/ecmascript"><![CDATA[
document.addEventListener('DOMContentLoaded', (event) => {
  highlightEdges();
  highlightAdjacentNodes();
});
]]></script>
</svg>
