<?xml version="1.0" encoding="UTF-8" standalone="no"?>
<!DOCTYPE svg PUBLIC "-//W3C//DTD SVG 1.1//EN"
 "http://www.w3.org/Graphics/SVG/1.1/DTD/svg11.dtd">
<!-- Generated by graphviz version 9.0.0 (20230911.1827)
 -->
<!-- Title: TGriffin Pages: 1 -->
<svg width="824pt" height="237pt"
 viewBox="0.00 0.00 824.25 237.46" xmlns="http://www.w3.org/2000/svg" xmlns:xlink="http://www.w3.org/1999/xlink">
<g id="graph0" class="graph" transform="scale(1 1) rotate(0) translate(4 233.46)">
<title>TGriffin</title>
<!-- Node1 -->
<g id="Node000001" class="node">
<title>Node1</title>
<g id="a_Node000001"><a xlink:title=" ">
<polygon fill="#999999" stroke="#666666" points="816.25,-117.46 769.5,-117.46 769.5,-98.21 816.25,-98.21 816.25,-117.46"/>
<text text-anchor="middle" x="792.88" y="-103.96" font-family="Helvetica,sans-Serif" font-size="10.00">TGriffin</text>
</a>
</g>
</g>
<!-- Node2 -->
<g id="Node000002" class="node">
<title>Node2</title>
<g id="a_Node000002"><a xlink:href="class_t_suppressed.html" target="_top" xlink:title=" ">
<polygon fill="white" stroke="#666666" points="547.5,-221.46 473.75,-221.46 473.75,-202.21 547.5,-202.21 547.5,-221.46"/>
<text text-anchor="middle" x="510.62" y="-207.96" font-family="Helvetica,sans-Serif" font-size="10.00">TSuppressed</text>
</a>
</g>
</g>
<!-- Node2&#45;&gt;Node1 -->
<g id="edge1_Node000001_Node000002" class="edge">
<title>Node2&#45;&gt;Node1</title>
<g id="a_edge1_Node000001_Node000002"><a xlink:title=" ">
<path fill="none" stroke="#63b8ff" d="M558.99,-203.6C608.96,-193.62 688.99,-173.9 751.5,-140.84 763.02,-134.74 774.36,-125.06 782.07,-117.76"/>
<polygon fill="#63b8ff" stroke="#63b8ff" points="558.51,-200.13 549.36,-205.47 559.85,-207 558.51,-200.13"/>
</a>
</g>
</g>
<!-- Node3 -->
<g id="Node000003" class="node">
<title>Node3</title>
<g id="a_Node000003"><a xlink:href="class_t_detector.html" target="_top" xlink:title=" ">
<polygon fill="white" stroke="#666666" points="257,-229.46 198.25,-229.46 198.25,-210.21 257,-210.21 257,-229.46"/>
<text text-anchor="middle" x="227.62" y="-215.96" font-family="Helvetica,sans-Serif" font-size="10.00">TDetector</text>
</a>
</g>
</g>
<!-- Node3&#45;&gt;Node2 -->
<g id="edge2_Node000002_Node000003" class="edge">
<title>Node3&#45;&gt;Node2</title>
<g id="a_edge2_Node000002_Node000003"><a xlink:title=" ">
<path fill="none" stroke="#63b8ff" d="M268.86,-220.16C308.86,-220.31 371.94,-220.08 426.5,-217.84 441.97,-217.2 459.03,-216.05 473.65,-214.92"/>
<polygon fill="#63b8ff" stroke="#63b8ff" points="269.01,-216.66 258.99,-220.11 268.97,-223.66 269.01,-216.66"/>
</a>
</g>
</g>
<!-- Node4 -->
<g id="Node000004" class="node">
<title>Node4</title>
<g id="a_Node000004"><a xlink:title=" ">
<polygon fill="white" stroke="#666666" points="94.75,-229.46 44.25,-229.46 44.25,-210.21 94.75,-210.21 94.75,-229.46"/>
<text text-anchor="middle" x="69.5" y="-215.96" font-family="Helvetica,sans-Serif" font-size="10.00">TObject</text>
</a>
</g>
</g>
<!-- Node4&#45;&gt;Node3 -->
<g id="edge3_Node000003_Node000004" class="edge">
<title>Node4&#45;&gt;Node3</title>
<g id="a_edge3_Node000003_Node000004"><a xlink:title=" ">
<path fill="none" stroke="#63b8ff" d="M106.43,-219.84C134.15,-219.84 171.99,-219.84 197.76,-219.84"/>
<polygon fill="#63b8ff" stroke="#63b8ff" points="106.75,-216.34 96.75,-219.84 106.75,-223.34 106.75,-216.34"/>
</a>
</g>
</g>
<!-- Node5 -->
<g id="Node000005" class="node">
<title>Node5</title>
<g id="a_Node000005"><a xlink:title=" ">
<polygon fill="white" stroke="#666666" points="139,-181.46 0,-181.46 0,-162.21 139,-162.21 139,-181.46"/>
<text text-anchor="middle" x="69.5" y="-167.96" font-family="Helvetica,sans-Serif" font-size="10.00">std::vector&lt; TDetectorHit * &gt;</text>
</a>
</g>
</g>
<!-- Node5&#45;&gt;Node1 -->
<g id="edge5_Node000001_Node000005" class="edge">
<title>Node5&#45;&gt;Node1</title>
<g id="a_edge5_Node000001_Node000005"><a xlink:title=" ">
<path fill="none" stroke="#9a32cd" stroke-dasharray="5,2" d="M114.75,-158.64C155.84,-147.06 218.95,-130.98 275,-123.84 485.13,-97.04 540.23,-128.32 751.5,-112.84 757.28,-112.41 763.49,-111.75 769.28,-111.04"/>
<polygon fill="#9a32cd" stroke="#9a32cd" points="113.87,-155.25 105.22,-161.36 115.8,-161.98 113.87,-155.25"/>
</a>
</g>
<text text-anchor="middle" x="350.75" y="-204.34" font-family="Helvetica,sans-Serif" font-size="10.00" fill="grey"> fAddbackHighGainHits</text>
<text text-anchor="middle" x="350.75" y="-193.09" font-family="Helvetica,sans-Serif" font-size="10.00" fill="grey">fAddbackLowGainHits</text>
<text text-anchor="middle" x="350.75" y="-181.84" font-family="Helvetica,sans-Serif" font-size="10.00" fill="grey">fGriffinHighGainHits</text>
<text text-anchor="middle" x="350.75" y="-170.59" font-family="Helvetica,sans-Serif" font-size="10.00" fill="grey">fGriffinLowGainHits</text>
<text text-anchor="middle" x="350.75" y="-159.34" font-family="Helvetica,sans-Serif" font-size="10.00" fill="grey">fSuppressedAddbackHighGainHits</text>
<text text-anchor="middle" x="350.75" y="-148.09" font-family="Helvetica,sans-Serif" font-size="10.00" fill="grey">fSuppressedAddbackLowGainHits</text>
<text text-anchor="middle" x="350.75" y="-136.84" font-family="Helvetica,sans-Serif" font-size="10.00" fill="grey">fSuppressedHighGainHits</text>
<text text-anchor="middle" x="350.75" y="-125.59" font-family="Helvetica,sans-Serif" font-size="10.00" fill="grey">fSuppressedLowGainHits</text>
</g>
<!-- Node5&#45;&gt;Node3 -->
<g id="edge4_Node000003_Node000005" class="edge">
<title>Node5&#45;&gt;Node3</title>
<g id="a_edge4_Node000003_Node000005"><a xlink:title=" ">
<path fill="none" stroke="#9a32cd" stroke-dasharray="5,2" d="M116.05,-185.12C135.82,-190.97 159.22,-197.99 180.25,-204.59 186.07,-206.41 192.29,-208.42 198.22,-210.36"/>
<polygon fill="#9a32cd" stroke="#9a32cd" points="117.21,-181.81 106.63,-182.34 115.23,-188.53 117.21,-181.81"/>
</a>
</g>
<text text-anchor="middle" x="168.62" y="-205.59" font-family="Helvetica,sans-Serif" font-size="10.00" fill="grey"> fHits</text>
</g>
<!-- Node6 -->
<g id="Node000006" class="node">
<title>Node6</title>
<g id="a_Node000006"><a xlink:href="class_t_transient_bits.html" target="_top" xlink:title=" ">
<polygon fill="white" stroke="#666666" points="576.75,-98.46 444.5,-98.46 444.5,-79.21 576.75,-79.21 576.75,-98.46"/>
<text text-anchor="middle" x="510.62" y="-84.96" font-family="Helvetica,sans-Serif" font-size="10.00">TTransientBits&lt; UChar_t &gt;</text>
</a>
</g>
</g>
<!-- Node6&#45;&gt;Node1 -->
<g id="edge6_Node000001_Node000006" class="edge">
<title>Node6&#45;&gt;Node1</title>
<g id="a_edge6_Node000001_Node000006"><a xlink:title=" ">
<path fill="none" stroke="#9a32cd" stroke-dasharray="5,2" d="M588.53,-90.96C635.66,-92.75 697.18,-95.95 751.5,-101.59 757.29,-102.19 763.51,-103.04 769.29,-103.93"/>
<polygon fill="#9a32cd" stroke="#9a32cd" points="588.81,-87.47 578.69,-90.6 588.56,-94.46 588.81,-87.47"/>
</a>
</g>
<text text-anchor="middle" x="673.12" y="-102.59" font-family="Helvetica,sans-Serif" font-size="10.00" fill="grey"> fGriffinBits</text>
</g>
<!-- Node7 -->
<g id="Node000007" class="node">
<title>Node7</title>
<g id="a_Node000007"><a xlink:title=" ">
<polygon fill="white" stroke="#666666" points="568.88,-25.46 452.38,-25.46 452.38,-6.21 568.88,-6.21 568.88,-25.46"/>
<text text-anchor="middle" x="510.62" y="-11.96" font-family="Helvetica,sans-Serif" font-size="10.00">std::vector&lt; UShort_t &gt;</text>
</a>
</g>
</g>
<!-- Node7&#45;&gt;Node1 -->
<g id="edge7_Node000001_Node000007" class="edge">
<title>Node7&#45;&gt;Node1</title>
<g id="a_edge7_Node000001_Node000007"><a xlink:title=" ">
<path fill="none" stroke="#9a32cd" stroke-dasharray="5,2" d="M571.4,-4.14C623.24,2.64 698.12,4.03 751.5,-30.59 775.5,-46.15 786.07,-80.84 789.96,-97.93"/>
<polygon fill="#9a32cd" stroke="#9a32cd" points="570.96,-0.67 561.55,-5.54 571.95,-7.6 570.96,-0.67"/>
</a>
</g>
<text text-anchor="middle" x="673.12" y="-77.59" font-family="Helvetica,sans-Serif" font-size="10.00" fill="grey"> fAddbackHighGainFrags</text>
<text text-anchor="middle" x="673.12" y="-66.34" font-family="Helvetica,sans-Serif" font-size="10.00" fill="grey">fAddbackLowGainFrags</text>
<text text-anchor="start" x="594.75" y="-55.09" font-family="Helvetica,sans-Serif" font-size="10.00" fill="grey">fSuppressedAddbackHighGain</text>
<text text-anchor="middle" x="673.12" y="-43.84" font-family="Helvetica,sans-Serif" font-size="10.00" fill="grey">Frags</text>
<text text-anchor="middle" x="673.12" y="-32.59" font-family="Helvetica,sans-Serif" font-size="10.00" fill="grey">fSuppressedAddbackLowGainFrags</text>
</g>
</g>
</svg>
