<?xml version="1.0" encoding="UTF-8" standalone="no"?>
<!DOCTYPE svg PUBLIC "-//W3C//DTD SVG 1.1//EN"
 "http://www.w3.org/Graphics/SVG/1.1/DTD/svg11.dtd">
<!-- Generated by graphviz version 9.0.0 (20230911.1827)
 -->
<!-- Title: TEfficiencyCal Pages: 1 -->
<svg width="223pt" height="284pt"
 viewBox="0.00 0.00 223.12 284.00" xmlns="http://www.w3.org/2000/svg" xmlns:xlink="http://www.w3.org/1999/xlink">
<g id="graph0" class="graph" transform="scale(1 1) rotate(0) translate(4 280)">
<title>TEfficiencyCal</title>
<!-- Node1 -->
<g id="Node000001" class="node">
<title>Node1</title>
<g id="a_Node000001"><a xlink:title=" ">
<polygon fill="#999999" stroke="#666666" points="91.25,-19.25 14.5,-19.25 14.5,0 91.25,0 91.25,-19.25"/>
<text text-anchor="middle" x="52.88" y="-5.75" font-family="Helvetica,sans-Serif" font-size="10.00">TEfficiencyCal</text>
</a>
</g>
</g>
<!-- Node2 -->
<g id="Node000002" class="node">
<title>Node2</title>
<g id="a_Node000002"><a xlink:href="class_t_cal.html" target="_top" xlink:title=" ">
<polygon fill="white" stroke="#666666" points="71,-75.5 34.75,-75.5 34.75,-56.25 71,-56.25 71,-75.5"/>
<text text-anchor="middle" x="52.88" y="-62" font-family="Helvetica,sans-Serif" font-size="10.00">TCal</text>
</a>
</g>
</g>
<!-- Node2&#45;&gt;Node1 -->
<g id="edge1_Node000001_Node000002" class="edge">
<title>Node2&#45;&gt;Node1</title>
<g id="a_edge1_Node000001_Node000002"><a xlink:title=" ">
<path fill="none" stroke="#63b8ff" d="M52.88,-44.69C52.88,-35.98 52.88,-26.24 52.88,-19.42"/>
<polygon fill="#63b8ff" stroke="#63b8ff" points="49.38,-44.4 52.88,-54.4 56.38,-44.4 49.38,-44.4"/>
</a>
</g>
</g>
<!-- Node3 -->
<g id="Node000003" class="node">
<title>Node3</title>
<g id="a_Node000003"><a xlink:title=" ">
<polygon fill="white" stroke="#666666" points="73.75,-142 0,-142 0,-122.75 73.75,-122.75 73.75,-142"/>
<text text-anchor="middle" x="36.88" y="-128.5" font-family="Helvetica,sans-Serif" font-size="10.00">TGraphErrors</text>
</a>
</g>
</g>
<!-- Node3&#45;&gt;Node2 -->
<g id="edge2_Node000002_Node000003" class="edge">
<title>Node3&#45;&gt;Node2</title>
<g id="a_edge2_Node000002_Node000003"><a xlink:title=" ">
<path fill="none" stroke="#63b8ff" d="M41.86,-111.27C44.81,-99.37 48.41,-84.88 50.67,-75.77"/>
<polygon fill="#63b8ff" stroke="#63b8ff" points="38.47,-110.39 39.46,-120.94 45.27,-112.07 38.47,-110.39"/>
</a>
</g>
</g>
<!-- Node4 -->
<g id="Node000004" class="node">
<title>Node4</title>
<g id="a_Node000004"><a xlink:href="class_t_nucleus.html" target="_top" xlink:title=" ">
<polygon fill="white" stroke="#666666" points="149.88,-142 91.88,-142 91.88,-122.75 149.88,-122.75 149.88,-142"/>
<text text-anchor="middle" x="120.88" y="-128.5" font-family="Helvetica,sans-Serif" font-size="10.00">TNucleus</text>
</a>
</g>
</g>
<!-- Node4&#45;&gt;Node2 -->
<g id="edge3_Node000002_Node000004" class="edge">
<title>Node4&#45;&gt;Node2</title>
<g id="a_edge3_Node000002_Node000004"><a xlink:title=" ">
<path fill="none" stroke="#9a32cd" stroke-dasharray="5,2" d="M103.17,-114.58C90.08,-102.16 72.77,-85.75 62.25,-75.77"/>
<polygon fill="#9a32cd" stroke="#9a32cd" points="100.66,-117.02 110.32,-121.36 105.48,-111.94 100.66,-117.02"/>
</a>
</g>
<text text-anchor="middle" x="103.5" y="-95.25" font-family="Helvetica,sans-Serif" font-size="10.00" fill="grey"> fNuc</text>
</g>
<!-- Node5 -->
<g id="Node000005" class="node">
<title>Node5</title>
<g id="a_Node000005"><a xlink:title=" ">
<polygon fill="white" stroke="#666666" points="121.62,-208.5 68.12,-208.5 68.12,-189.25 121.62,-189.25 121.62,-208.5"/>
<text text-anchor="middle" x="94.88" y="-195" font-family="Helvetica,sans-Serif" font-size="10.00">TNamed</text>
</a>
</g>
</g>
<!-- Node5&#45;&gt;Node4 -->
<g id="edge4_Node000004_Node000005" class="edge">
<title>Node5&#45;&gt;Node4</title>
<g id="a_edge4_Node000004_Node000005"><a xlink:title=" ">
<path fill="none" stroke="#63b8ff" d="M102.68,-178.52C107.53,-166.48 113.54,-151.58 117.29,-142.27"/>
<polygon fill="#63b8ff" stroke="#63b8ff" points="99.55,-176.92 99.06,-187.5 106.04,-179.54 99.55,-176.92"/>
</a>
</g>
</g>
<!-- Node6 -->
<g id="Node000006" class="node">
<title>Node6</title>
<g id="a_Node000006"><a xlink:title=" ">
<polygon fill="white" stroke="#666666" points="197.88,-208.5 139.88,-208.5 139.88,-189.25 197.88,-189.25 197.88,-208.5"/>
<text text-anchor="middle" x="168.88" y="-195" font-family="Helvetica,sans-Serif" font-size="10.00">std::string</text>
</a>
</g>
</g>
<!-- Node6&#45;&gt;Node4 -->
<g id="edge5_Node000004_Node000006" class="edge">
<title>Node6&#45;&gt;Node4</title>
<g id="a_edge5_Node000004_Node000006"><a xlink:title=" ">
<path fill="none" stroke="#9a32cd" stroke-dasharray="5,2" d="M155.57,-179.99C146.44,-167.72 134.71,-151.96 127.49,-142.27"/>
<polygon fill="#9a32cd" stroke="#9a32cd" points="152.52,-181.76 161.3,-187.69 158.13,-177.58 152.52,-181.76"/>
</a>
</g>
<text text-anchor="middle" x="165.62" y="-161.75" font-family="Helvetica,sans-Serif" font-size="10.00" fill="grey"> fSymbol</text>
</g>
<!-- Node7 -->
<g id="Node000007" class="node">
<title>Node7</title>
<g id="a_Node000007"><a xlink:title=" ">
<polygon fill="white" stroke="#666666" points="215.12,-276 122.62,-276 122.62,-245.5 215.12,-245.5 215.12,-276"/>
<text text-anchor="start" x="130.62" y="-262.5" font-family="Helvetica,sans-Serif" font-size="10.00">std::basic_string&lt;</text>
<text text-anchor="middle" x="168.88" y="-251.25" font-family="Helvetica,sans-Serif" font-size="10.00"> Char &gt;</text>
</a>
</g>
</g>
<!-- Node7&#45;&gt;Node6 -->
<g id="edge6_Node000006_Node000007" class="edge">
<title>Node7&#45;&gt;Node6</title>
<g id="a_edge6_Node000006_Node000007"><a xlink:title=" ">
<path fill="none" stroke="#63b8ff" d="M168.88,-234.02C168.88,-225.04 168.88,-215.54 168.88,-208.85"/>
<polygon fill="#63b8ff" stroke="#63b8ff" points="165.38,-233.74 168.88,-243.74 172.38,-233.74 165.38,-233.74"/>
</a>
</g>
</g>
</g>
</svg>
