<?xml version="1.0" encoding="UTF-8" standalone="no"?>
<!DOCTYPE svg PUBLIC "-//W3C//DTD SVG 1.1//EN"
 "http://www.w3.org/Graphics/SVG/1.1/DTD/svg11.dtd">
<!-- Generated by graphviz version 12.2.0 (20241103.1931)
 -->
<!-- Title: TSourceCalibration Pages: 1 -->
<!--zoomable 530 -->

<svg id="main" version="1.1" xmlns="http://www.w3.org/2000/svg" xmlns:xlink="http://www.w3.org/1999/xlink" xml:space="preserve" onload="init(evt)">

<style type="text/css"><![CDATA[
.node, .edge {opacity: 0.7;}
.node.selected, .edge.selected {opacity: 1;}
.edge:hover path { stroke: red; }
.edge:hover polygon { stroke: red; fill: red; }
]]></style>

<defs>
  <circle id="rim" cx="0" cy="0" r="7"/>
  <circle id="rim2" cx="0" cy="0" r="3.5"/>
  <g id="zoomPlus">
    <use xlink:href="#rim" fill="#404040"><set attributeName="fill" to="#808080" begin="zoomplus.mouseover" end="zoomplus.mouseout"/></use>
    <path d="M-4,0h8M0,-4v8" fill="none" stroke="white" stroke-width="1.5" pointer-events="none"/>
  </g>
  <g id="zoomMin">
    <use xlink:href="#rim" fill="#404040"><set attributeName="fill" to="#808080" begin="zoomminus.mouseover" end="zoomminus.mouseout"/></use>
    <path d="M-4,0h8" fill="none" stroke="white" stroke-width="1.5" pointer-events="none"/>
  </g>
  <g id="arrowUp" transform="translate(30 24)">
    <use xlink:href="#rim"/>
    <path pointer-events="none" fill="none" stroke="white" stroke-width="1.5" d="M0,-3.0v7 M-2.5,-0.5L0,-3.0L2.5,-0.5"/>
  </g>
  <g id="arrowRight" transform="rotate(90) translate(36 -43)">
    <use xlink:href="#rim"/>
    <path pointer-events="none" fill="none" stroke="white" stroke-width="1.5" d="M0,-3.0v7 M-2.5,-0.5L0,-3.0L2.5,-0.5"/>
  </g>
  <g id="arrowDown" transform="rotate(180) translate(-30 -48)">
    <use xlink:href="#rim"/>
    <path pointer-events="none" fill="none" stroke="white" stroke-width="1.5" d="M0,-3.0v7 M-2.5,-0.5L0,-3.0L2.5,-0.5"/>
  </g>
  <g id="arrowLeft" transform="rotate(270) translate(-36 17)">
    <use xlink:href="#rim"/>
    <path pointer-events="none" fill="none" stroke="white" stroke-width="1.5" d="M0,-3.0v7 M-2.5,-0.5L0,-3.0L2.5,-0.5"/>
  </g>
  <g id="resetDef">
    <use xlink:href="#rim2" fill="#404040"><set attributeName="fill" to="#808080" begin="reset.mouseover" end="reset.mouseout"/></use>
  </g>
</defs>
<script type="application/ecmascript">
var viewWidth = 491;
var viewHeight = 530;
var sectionId = 'dynsection-1';
</script>
<script type="application/ecmascript" xlink:href="svg.min.js"/>
<svg id="graph" class="graph">
<g id="viewport">
<title>TSourceCalibration</title>
<!-- Node1 -->
<g id="Node000001" class="node">
<title>Node1</title>
<g id="a_Node000001"><a xlink:title=" ">
<polygon fill="#999999" stroke="#666666" points="482.5,-276.25 384,-276.25 384,-257 482.5,-257 482.5,-276.25"/>
<text text-anchor="middle" x="433.25" y="-262.75" font-family="Helvetica,sans-Serif" font-size="10.00">TSourceCalibration</text>
</a>
</g>
</g>
<!-- Node2 -->
<g id="Node000002" class="node">
<title>Node2</title>
<g id="a_Node000002"><a xlink:title=" ">
<polygon fill="white" stroke="#666666" points="240.75,-522.25 162.5,-522.25 162.5,-503 240.75,-503 240.75,-522.25"/>
<text text-anchor="middle" x="201.62" y="-508.75" font-family="Helvetica,sans-Serif" font-size="10.00">TGMainFrame</text>
</a>
</g>
</g>
<!-- Node2&#45;&gt;Node1 -->
<g id="edge1_Node000001_Node000002" class="edge">
<title>Node2&#45;&gt;Node1</title>
<g id="a_edge1_Node000001_Node000002"><a xlink:title=" ">
<path fill="none" stroke="#63b8ff" d="M252.06,-520.93C287.69,-524.01 334.81,-521.71 366,-495.62 401.08,-466.29 424.97,-316.94 430.84,-276.65"/>
<polygon fill="#63b8ff" stroke="#63b8ff" points="252.74,-517.48 242.43,-519.92 252.01,-524.45 252.74,-517.48"/>
</a>
</g>
</g>
<!-- Node3 -->
<g id="Node000003" class="node">
<title>Node3</title>
<g id="a_Node000003"><a xlink:title=" ">
<polygon fill="white" stroke="#666666" points="272.25,-485.25 131,-485.25 131,-466 272.25,-466 272.25,-485.25"/>
<text text-anchor="middle" x="201.62" y="-471.75" font-family="Helvetica,sans-Serif" font-size="10.00">std::vector&lt; TChannelTab * &gt;</text>
</a>
</g>
</g>
<!-- Node3&#45;&gt;Node1 -->
<g id="edge2_Node000001_Node000003" class="edge">
<title>Node3&#45;&gt;Node1</title>
<g id="a_edge2_Node000001_Node000003"><a xlink:title=" ">
<path fill="none" stroke="#9a32cd" stroke-dasharray="5,2" d="M283.94,-480.74C312.58,-478.55 343.27,-471.17 366,-452.62 422.58,-406.47 430.87,-308.36 432.06,-276.7"/>
<polygon fill="#9a32cd" stroke="#9a32cd" points="283.97,-477.24 274.18,-481.27 284.35,-484.23 283.97,-477.24"/>
</a>
</g>
<text text-anchor="middle" x="328.88" y="-481.67" font-family="Helvetica,sans-Serif" font-size="10.00" fill="grey"> fChannelTab</text>
</g>
<!-- Node4 -->
<g id="Node000004" class="node">
<title>Node4</title>
<g id="a_Node000004"><a xlink:title=" ">
<polygon fill="white" stroke="#666666" points="262.12,-448.25 141.12,-448.25 141.12,-429 262.12,-429 262.12,-448.25"/>
<text text-anchor="middle" x="201.62" y="-434.75" font-family="Helvetica,sans-Serif" font-size="10.00">std::vector&lt; TGLabel * &gt;</text>
</a>
</g>
</g>
<!-- Node4&#45;&gt;Node1 -->
<g id="edge3_Node000001_Node000004" class="edge">
<title>Node4&#45;&gt;Node1</title>
<g id="a_edge3_Node000001_Node000004"><a xlink:title=" ">
<path fill="none" stroke="#9a32cd" stroke-dasharray="5,2" d="M273.65,-439.73C304.74,-436.88 339.99,-428.73 366,-408.62 410.56,-374.19 426.37,-302.6 430.79,-276.46"/>
<polygon fill="#9a32cd" stroke="#9a32cd" points="273.63,-436.22 263.92,-440.44 274.15,-443.2 273.63,-436.22"/>
</a>
</g>
<text text-anchor="middle" x="328.88" y="-439.21" font-family="Helvetica,sans-Serif" font-size="10.00" fill="grey"> fMatrixNames</text>
</g>
<!-- Node5 -->
<g id="Node000005" class="node">
<title>Node5</title>
<g id="a_Node000005"><a xlink:title=" ">
<polygon fill="white" stroke="#666666" points="273.75,-411.25 129.5,-411.25 129.5,-392 273.75,-392 273.75,-411.25"/>
<text text-anchor="middle" x="201.62" y="-397.75" font-family="Helvetica,sans-Serif" font-size="10.00">std::vector&lt; TGComboBox * &gt;</text>
</a>
</g>
</g>
<!-- Node5&#45;&gt;Node1 -->
<g id="edge4_Node000001_Node000005" class="edge">
<title>Node5&#45;&gt;Node1</title>
<g id="a_edge4_Node000001_Node000005"><a xlink:title=" ">
<path fill="none" stroke="#9a32cd" stroke-dasharray="5,2" d="M285.25,-395.19C312.75,-389.98 342.37,-380.78 366,-364.62 399.23,-341.91 420.41,-296.53 428.51,-276.51"/>
<polygon fill="#9a32cd" stroke="#9a32cd" points="284.78,-391.72 275.51,-396.86 285.96,-398.62 284.78,-391.72"/>
</a>
</g>
<text text-anchor="middle" x="328.88" y="-394.96" font-family="Helvetica,sans-Serif" font-size="10.00" fill="grey"> fSourceBox</text>
</g>
<!-- Node6 -->
<g id="Node000006" class="node">
<title>Node6</title>
<g id="a_Node000006"><a xlink:title=" ">
<polygon fill="white" stroke="#666666" points="264.38,-374.25 138.88,-374.25 138.88,-355 264.38,-355 264.38,-374.25"/>
<text text-anchor="middle" x="201.62" y="-360.75" font-family="Helvetica,sans-Serif" font-size="10.00">std::vector&lt; TNucleus * &gt;</text>
</a>
</g>
</g>
<!-- Node6&#45;&gt;Node1 -->
<g id="edge5_Node000001_Node000006" class="edge">
<title>Node6&#45;&gt;Node1</title>
<g id="a_edge5_Node000001_Node000006"><a xlink:title=" ">
<path fill="none" stroke="#9a32cd" stroke-dasharray="5,2" d="M275.7,-353.17C304.87,-346.75 338.08,-337.04 366,-322.62 389.28,-310.6 411.52,-289.05 423.38,-276.48"/>
<polygon fill="#9a32cd" stroke="#9a32cd" points="275.29,-349.68 266.22,-355.16 276.73,-356.53 275.29,-349.68"/>
</a>
</g>
<text text-anchor="middle" x="328.88" y="-350.92" font-family="Helvetica,sans-Serif" font-size="10.00" fill="grey"> fSource</text>
</g>
<!-- Node7 -->
<g id="Node000007" class="node">
<title>Node7</title>
<g id="a_Node000007"><a xlink:title=" ">
<polygon fill="white" stroke="#666666" points="270,-336.5 133.25,-336.5 133.25,-294.75 270,-294.75 270,-336.5"/>
<text text-anchor="start" x="141.25" y="-323" font-family="Helvetica,sans-Serif" font-size="10.00">std::vector&lt; std::vector</text>
<text text-anchor="start" x="141.25" y="-311.75" font-family="Helvetica,sans-Serif" font-size="10.00">&lt; std::tuple&lt; double, double,</text>
<text text-anchor="middle" x="201.62" y="-300.5" font-family="Helvetica,sans-Serif" font-size="10.00"> double, double &gt; &gt; &gt;</text>
</a>
</g>
</g>
<!-- Node7&#45;&gt;Node1 -->
<g id="edge6_Node000001_Node000007" class="edge">
<title>Node7&#45;&gt;Node1</title>
<g id="a_edge6_Node000001_Node000007"><a xlink:title=" ">
<path fill="none" stroke="#9a32cd" stroke-dasharray="5,2" d="M281.53,-309.08C308.6,-305.76 338.9,-300.85 366,-293.62 381.72,-289.44 398.7,-282.46 411.53,-276.65"/>
<polygon fill="#9a32cd" stroke="#9a32cd" points="281.18,-305.6 271.65,-310.23 281.99,-312.55 281.18,-305.6"/>
</a>
</g>
<text text-anchor="middle" x="328.88" y="-309.07" font-family="Helvetica,sans-Serif" font-size="10.00" fill="grey"> fSourceEnergy</text>
</g>
<!-- Node8 -->
<g id="Node000008" class="node">
<title>Node8</title>
<g id="a_Node000008"><a xlink:title=" ">
<polygon fill="white" stroke="#666666" points="245.62,-276.25 157.62,-276.25 157.62,-257 245.62,-257 245.62,-276.25"/>
<text text-anchor="middle" x="201.62" y="-262.75" font-family="Helvetica,sans-Serif" font-size="10.00">std::vector&lt; int &gt;</text>
</a>
</g>
</g>
<!-- Node8&#45;&gt;Node1 -->
<g id="edge7_Node000001_Node000008" class="edge">
<title>Node8&#45;&gt;Node1</title>
<g id="a_edge7_Node000001_Node000008"><a xlink:title=" ">
<path fill="none" stroke="#9a32cd" stroke-dasharray="5,2" d="M257.59,-266.62C296.02,-266.62 346.88,-266.62 383.8,-266.62"/>
<polygon fill="#9a32cd" stroke="#9a32cd" points="257.6,-263.13 247.6,-266.63 257.6,-270.13 257.6,-263.13"/>
</a>
</g>
<text text-anchor="middle" x="328.88" y="-279.62" font-family="Helvetica,sans-Serif" font-size="10.00" fill="grey"> fActiveBins</text>
<text text-anchor="middle" x="328.88" y="-268.38" font-family="Helvetica,sans-Serif" font-size="10.00" fill="grey">fActualChannelId</text>
</g>
<!-- Node9 -->
<g id="Node000009" class="node">
<title>Node9</title>
<g id="a_Node000009"><a xlink:title=" ">
<polygon fill="white" stroke="#666666" points="248.25,-238.88 155,-238.88 155,-208.38 248.25,-208.38 248.25,-238.88"/>
<text text-anchor="start" x="163" y="-225.38" font-family="Helvetica,sans-Serif" font-size="10.00">std::vector&lt; const</text>
<text text-anchor="middle" x="201.62" y="-214.12" font-family="Helvetica,sans-Serif" font-size="10.00"> char * &gt;</text>
</a>
</g>
</g>
<!-- Node9&#45;&gt;Node1 -->
<g id="edge8_Node000001_Node000009" class="edge">
<title>Node9&#45;&gt;Node1</title>
<g id="a_edge8_Node000001_Node000009"><a xlink:title=" ">
<path fill="none" stroke="#9a32cd" stroke-dasharray="5,2" d="M259.72,-232.49C291.16,-237.58 330.82,-244.34 366,-251.38 373.87,-252.95 382.23,-254.76 390.27,-256.58"/>
<polygon fill="#9a32cd" stroke="#9a32cd" points="260.45,-229.06 250.02,-230.93 259.34,-235.97 260.45,-229.06"/>
</a>
</g>
<text text-anchor="middle" x="328.88" y="-253.12" font-family="Helvetica,sans-Serif" font-size="10.00" fill="grey"> fChannelLabel</text>
</g>
<!-- Node10 -->
<g id="Node000010" class="node">
<title>Node10</title>
<g id="a_Node000010"><a xlink:title=" ">
<polygon fill="white" stroke="#666666" points="267.75,-190.5 135.5,-190.5 135.5,-148.75 267.75,-148.75 267.75,-190.5"/>
<text text-anchor="start" x="143.5" y="-177" font-family="Helvetica,sans-Serif" font-size="10.00">std::queue&lt; std::pair</text>
<text text-anchor="start" x="143.5" y="-165.75" font-family="Helvetica,sans-Serif" font-size="10.00">&lt; int, std::future&lt; TChannel</text>
<text text-anchor="middle" x="201.62" y="-154.5" font-family="Helvetica,sans-Serif" font-size="10.00">Tab * &gt; &gt; &gt;</text>
</a>
</g>
</g>
<!-- Node10&#45;&gt;Node1 -->
<g id="edge9_Node000001_Node000010" class="edge">
<title>Node10&#45;&gt;Node1</title>
<g id="a_edge9_Node000001_Node000010"><a xlink:title=" ">
<path fill="none" stroke="#9a32cd" stroke-dasharray="5,2" d="M279.09,-190.26C307.06,-198.97 338.56,-210.18 366,-223.38 385.56,-232.78 406.21,-247.05 419.16,-256.6"/>
<polygon fill="#9a32cd" stroke="#9a32cd" points="280.19,-186.94 269.6,-187.36 278.14,-193.63 280.19,-186.94"/>
</a>
</g>
<text text-anchor="middle" x="328.88" y="-225.12" font-family="Helvetica,sans-Serif" font-size="10.00" fill="grey"> fFutures</text>
</g>
<!-- Node11 -->
<g id="Node000011" class="node">
<title>Node11</title>
<g id="a_Node000011"><a xlink:title=" ">
<polygon fill="white" stroke="#666666" points="252.75,-130.25 150.5,-130.25 150.5,-111 252.75,-111 252.75,-130.25"/>
<text text-anchor="middle" x="201.62" y="-116.75" font-family="Helvetica,sans-Serif" font-size="10.00">std::vector&lt; TH2 * &gt;</text>
</a>
</g>
</g>
<!-- Node11&#45;&gt;Node1 -->
<g id="edge10_Node000001_Node000011" class="edge">
<title>Node11&#45;&gt;Node1</title>
<g id="a_edge10_Node000001_Node000011"><a xlink:title=" ">
<path fill="none" stroke="#9a32cd" stroke-dasharray="5,2" d="M263.96,-133.26C296.74,-142.29 336.34,-157.08 366,-180.38 394.06,-202.42 416.8,-238.93 426.78,-256.52"/>
<polygon fill="#9a32cd" stroke="#9a32cd" points="265.15,-129.95 254.59,-130.79 263.37,-136.72 265.15,-129.95"/>
</a>
</g>
<text text-anchor="middle" x="328.88" y="-182.12" font-family="Helvetica,sans-Serif" font-size="10.00" fill="grey"> fMatrices</text>
</g>
<!-- Node12 -->
<g id="Node000012" class="node">
<title>Node12</title>
<g id="a_Node000012"><a xlink:title=" ">
<polygon fill="white" stroke="#666666" points="230.62,-93.25 172.62,-93.25 172.62,-74 230.62,-74 230.62,-93.25"/>
<text text-anchor="middle" x="201.62" y="-79.75" font-family="Helvetica,sans-Serif" font-size="10.00">std::string</text>
</a>
</g>
</g>
<!-- Node12&#45;&gt;Node1 -->
<g id="edge11_Node000001_Node000012" class="edge">
<title>Node12&#45;&gt;Node1</title>
<g id="a_edge11_Node000001_Node000012"><a xlink:title=" ">
<path fill="none" stroke="#9a32cd" stroke-dasharray="5,2" d="M242.16,-85.22C278.23,-88.63 331.08,-98.78 366,-128.38 407.62,-163.65 425.07,-231.08 430.37,-256.55"/>
<polygon fill="#9a32cd" stroke="#9a32cd" points="242.83,-81.76 232.59,-84.45 242.28,-88.74 242.83,-81.76"/>
</a>
</g>
<text text-anchor="middle" x="328.88" y="-130.12" font-family="Helvetica,sans-Serif" font-size="10.00" fill="grey"> fLogFile</text>
</g>
<!-- Node13 -->
<g id="Node000013" class="node">
<title>Node13</title>
<g id="a_Node000013"><a xlink:title=" ">
<polygon fill="white" stroke="#666666" points="92.5,-98.88 0,-98.88 0,-68.38 92.5,-68.38 92.5,-98.88"/>
<text text-anchor="start" x="8" y="-85.38" font-family="Helvetica,sans-Serif" font-size="10.00">std::basic_string&lt;</text>
<text text-anchor="middle" x="46.25" y="-74.12" font-family="Helvetica,sans-Serif" font-size="10.00"> Char &gt;</text>
</a>
</g>
</g>
<!-- Node13&#45;&gt;Node12 -->
<g id="edge12_Node000012_Node000013" class="edge">
<title>Node13&#45;&gt;Node12</title>
<g id="a_edge12_Node000012_Node000013"><a xlink:title=" ">
<path fill="none" stroke="#63b8ff" d="M104.34,-83.62C127.53,-83.62 153.28,-83.62 172.31,-83.62"/>
<polygon fill="#63b8ff" stroke="#63b8ff" points="104.37,-80.13 94.37,-83.63 104.37,-87.13 104.37,-80.13"/>
</a>
</g>
</g>
<!-- Node14 -->
<g id="Node000014" class="node">
<title>Node14</title>
<g id="a_Node000014"><a xlink:href="class_t_redirect.html" target="_top" xlink:title=" ">
<polygon fill="white" stroke="#666666" points="230.62,-56.25 172.62,-56.25 172.62,-37 230.62,-37 230.62,-56.25"/>
<text text-anchor="middle" x="201.62" y="-42.75" font-family="Helvetica,sans-Serif" font-size="10.00">TRedirect</text>
</a>
</g>
</g>
<!-- Node14&#45;&gt;Node1 -->
<g id="edge13_Node000001_Node000014" class="edge">
<title>Node14&#45;&gt;Node1</title>
<g id="a_edge13_Node000001_Node000014"><a xlink:title=" ">
<path fill="none" stroke="#9a32cd" stroke-dasharray="5,2" d="M242.24,-43.89C278.61,-43.57 331.86,-48.9 366,-78.38 421.86,-126.6 430.63,-224.9 432,-256.56"/>
<polygon fill="#9a32cd" stroke="#9a32cd" points="242.5,-40.38 232.59,-44.13 242.68,-47.38 242.5,-40.38"/>
</a>
</g>
<text text-anchor="middle" x="328.88" y="-80.12" font-family="Helvetica,sans-Serif" font-size="10.00" fill="grey"> fRedirect</text>
</g>
<!-- Node15 -->
<g id="Node000015" class="node">
<title>Node15</title>
<g id="a_Node000015"><a xlink:title=" ">
<polygon fill="white" stroke="#666666" points="231.75,-19.25 171.5,-19.25 171.5,0 231.75,0 231.75,-19.25"/>
<text text-anchor="middle" x="201.62" y="-5.75" font-family="Helvetica,sans-Serif" font-size="10.00">std::mutex</text>
</a>
</g>
</g>
<!-- Node15&#45;&gt;Node1 -->
<g id="edge14_Node000001_Node000015" class="edge">
<title>Node15&#45;&gt;Node1</title>
<g id="a_edge14_Node000001_Node000015"><a xlink:title=" ">
<path fill="none" stroke="#9a32cd" stroke-dasharray="5,2" d="M243.4,-3.82C279.87,-1.03 332.59,-3.26 366,-32.38 401.29,-63.12 425.11,-216.03 430.89,-256.68"/>
<polygon fill="#9a32cd" stroke="#9a32cd" points="243.31,-0.32 233.68,-4.74 243.96,-7.29 243.31,-0.32"/>
</a>
</g>
<text text-anchor="middle" x="328.88" y="-34.12" font-family="Helvetica,sans-Serif" font-size="10.00" fill="grey"> fGraphicsMutex</text>
</g>
</g>
</svg>

<g id="navigator" transform="translate(0 0)" fill="#404254">
  <rect fill="#f2f5e9" fill-opacity="0.5" stroke="#606060" stroke-width=".5" x="0" y="0" width="60" height="60"/>
  <use id="zoomplus" xlink:href="#zoomPlus" x="17" y="9" onmousedown="handleZoom(evt,'in')"/>
  <use id="zoomminus" xlink:href="#zoomMin" x="42" y="9" onmousedown="handleZoom(evt,'out')"/>
  <use id="reset" xlink:href="#resetDef" x="30" y="36" onmousedown="handleReset()"/>
   <use id="arrowup" xlink:href="#arrowUp" x="0" y="0" onmousedown="handlePan(0,-1)"/>
  <use id="arrowright" xlink:href="#arrowRight" x="0" y="0" onmousedown="handlePan(1,0)"/>
  <use id="arrowdown" xlink:href="#arrowDown" x="0" y="0" onmousedown="handlePan(0,1)"/>
  <use id="arrowleft" xlink:href="#arrowLeft" x="0" y="0" onmousedown="handlePan(-1,0)"/>
</g>
<svg viewBox="0 0 15 15" width="100%" height="30px" preserveAspectRatio="xMaxYMin meet">
 <g id="arrow_out" transform="scale(0.3 0.3)">
  <a xlink:href="class_t_source_calibration__coll__graph_org.svg" target="_base">
   <rect id="button" ry="5" rx="5" y="6" x="6" height="38" width="38"
        fill="#f2f5e9" fill-opacity="0.5" stroke="#606060" stroke-width="1.0"/>
   <path id="arrow"
     d="M 11.500037,31.436501 C 11.940474,20.09759 22.043105,11.32322 32.158766,21.979434 L 37.068811,17.246167 C 37.068811,17.246167 37.088388,32 37.088388,32 L 22.160133,31.978069 C 22.160133,31.978069 26.997745,27.140456 26.997745,27.140456 C 18.528582,18.264221 13.291696,25.230495 11.500037,31.436501 z"
     style="fill:#404040;"/>
  </a>
 </g>
</svg>

<style type='text/css'>
<![CDATA[
[data-mouse-over-selected='false'] { opacity: 0.7; }
[data-mouse-over-selected='true']  { opacity: 1.0; }
]]>
</style>
<script type="application/ecmascript"><![CDATA[
document.addEventListener('DOMContentLoaded', (event) => {
  highlightEdges();
  highlightAdjacentNodes();
});
]]></script>
</svg>
