<?xml version="1.0" encoding="UTF-8" standalone="no"?>
<!DOCTYPE svg PUBLIC "-//W3C//DTD SVG 1.1//EN"
 "http://www.w3.org/Graphics/SVG/1.1/DTD/svg11.dtd">
<!-- Generated by graphviz version 12.2.0 (20241103.1931)
 -->
<!-- Title: TSourceCalibration Pages: 1 -->
<!--zoomable 530 -->

<svg id="main" version="1.1" xmlns="http://www.w3.org/2000/svg" xmlns:xlink="http://www.w3.org/1999/xlink" xml:space="preserve" onload="init(evt)">

<style type="text/css"><![CDATA[
.node, .edge {opacity: 0.7;}
.node.selected, .edge.selected {opacity: 1;}
.edge:hover path { stroke: red; }
.edge:hover polygon { stroke: red; fill: red; }
]]></style>

<defs>
  <circle id="rim" cx="0" cy="0" r="7"/>
  <circle id="rim2" cx="0" cy="0" r="3.5"/>
  <g id="zoomPlus">
    <use xlink:href="#rim" fill="#404040"><set attributeName="fill" to="#808080" begin="zoomplus.mouseover" end="zoomplus.mouseout"/></use>
    <path d="M-4,0h8M0,-4v8" fill="none" stroke="white" stroke-width="1.5" pointer-events="none"/>
  </g>
  <g id="zoomMin">
    <use xlink:href="#rim" fill="#404040"><set attributeName="fill" to="#808080" begin="zoomminus.mouseover" end="zoomminus.mouseout"/></use>
    <path d="M-4,0h8" fill="none" stroke="white" stroke-width="1.5" pointer-events="none"/>
  </g>
  <g id="arrowUp" transform="translate(30 24)">
    <use xlink:href="#rim"/>
    <path pointer-events="none" fill="none" stroke="white" stroke-width="1.5" d="M0,-3.0v7 M-2.5,-0.5L0,-3.0L2.5,-0.5"/>
  </g>
  <g id="arrowRight" transform="rotate(90) translate(36 -43)">
    <use xlink:href="#rim"/>
    <path pointer-events="none" fill="none" stroke="white" stroke-width="1.5" d="M0,-3.0v7 M-2.5,-0.5L0,-3.0L2.5,-0.5"/>
  </g>
  <g id="arrowDown" transform="rotate(180) translate(-30 -48)">
    <use xlink:href="#rim"/>
    <path pointer-events="none" fill="none" stroke="white" stroke-width="1.5" d="M0,-3.0v7 M-2.5,-0.5L0,-3.0L2.5,-0.5"/>
  </g>
  <g id="arrowLeft" transform="rotate(270) translate(-36 17)">
    <use xlink:href="#rim"/>
    <path pointer-events="none" fill="none" stroke="white" stroke-width="1.5" d="M0,-3.0v7 M-2.5,-0.5L0,-3.0L2.5,-0.5"/>
  </g>
  <g id="resetDef">
    <use xlink:href="#rim2" fill="#404040"><set attributeName="fill" to="#808080" begin="reset.mouseover" end="reset.mouseout"/></use>
  </g>
</defs>
<script type="application/ecmascript">
var viewWidth = 491;
var viewHeight = 530;
var sectionId = 'dynsection-1';
</script>
<script type="application/ecmascript" xlink:href="svg.min.js"/>
<svg id="graph" class="graph">
<g id="viewport">
<title>TSourceCalibration</title>
<!-- Node1 -->
<g id="Node000001" class="node">
<title>Node1</title>
<g id="a_Node000001"><a xlink:title=" ">
<polygon fill="#999999" stroke="#666666" points="482.5,-268.25 384,-268.25 384,-249 482.5,-249 482.5,-268.25"/>
<text text-anchor="middle" x="433.25" y="-254.75" font-family="Helvetica,sans-Serif" font-size="10.00">TSourceCalibration</text>
</a>
</g>
</g>
<!-- Node2 -->
<g id="Node000002" class="node">
<title>Node2</title>
<g id="a_Node000002"><a xlink:title=" ">
<polygon fill="white" stroke="#666666" points="240.75,-522.25 162.5,-522.25 162.5,-503 240.75,-503 240.75,-522.25"/>
<text text-anchor="middle" x="201.62" y="-508.75" font-family="Helvetica,sans-Serif" font-size="10.00">TGMainFrame</text>
</a>
</g>
</g>
<!-- Node2&#45;&gt;Node1 -->
<g id="edge1_Node000001_Node000002" class="edge">
<title>Node2&#45;&gt;Node1</title>
<g id="a_edge1_Node000001_Node000002"><a xlink:title=" ">
<path fill="none" stroke="#63b8ff" d="M252.13,-521.01C287.79,-524.13 334.93,-521.85 366,-495.62 402.16,-465.11 425.34,-309.97 430.93,-268.72"/>
<polygon fill="#63b8ff" stroke="#63b8ff" points="252.8,-517.57 242.49,-519.99 252.06,-524.53 252.8,-517.57"/>
</a>
</g>
</g>
<!-- Node3 -->
<g id="Node000003" class="node">
<title>Node3</title>
<g id="a_Node000003"><a xlink:title=" ">
<polygon fill="white" stroke="#666666" points="272.25,-485.25 131,-485.25 131,-466 272.25,-466 272.25,-485.25"/>
<text text-anchor="middle" x="201.62" y="-471.75" font-family="Helvetica,sans-Serif" font-size="10.00">std::vector&lt; TChannelTab * &gt;</text>
</a>
</g>
</g>
<!-- Node3&#45;&gt;Node1 -->
<g id="edge2_Node000001_Node000003" class="edge">
<title>Node3&#45;&gt;Node1</title>
<g id="a_edge2_Node000001_Node000003"><a xlink:title=" ">
<path fill="none" stroke="#9a32cd" stroke-dasharray="5,2" d="M283.68,-481.51C312.44,-479.56 343.27,-472.33 366,-453.62 425.08,-405 431.68,-301.41 432.26,-268.72"/>
<polygon fill="#9a32cd" stroke="#9a32cd" points="283.7,-478 273.87,-481.95 284.02,-485 283.7,-478"/>
</a>
</g>
<text text-anchor="middle" x="328.88" y="-482.47" font-family="Helvetica,sans-Serif" font-size="10.00" fill="grey"> fChannelTab</text>
</g>
<!-- Node4 -->
<g id="Node000004" class="node">
<title>Node4</title>
<g id="a_Node000004"><a xlink:title=" ">
<polygon fill="white" stroke="#666666" points="262.12,-448.25 141.12,-448.25 141.12,-429 262.12,-429 262.12,-448.25"/>
<text text-anchor="middle" x="201.62" y="-434.75" font-family="Helvetica,sans-Serif" font-size="10.00">std::vector&lt; TGLabel * &gt;</text>
</a>
</g>
</g>
<!-- Node4&#45;&gt;Node1 -->
<g id="edge3_Node000001_Node000004" class="edge">
<title>Node4&#45;&gt;Node1</title>
<g id="a_edge3_Node000001_Node000004"><a xlink:title=" ">
<path fill="none" stroke="#9a32cd" stroke-dasharray="5,2" d="M273.83,-441.02C304.96,-438.63 340.18,-430.86 366,-410.62 413.35,-373.51 427.54,-295.69 431.16,-268.36"/>
<polygon fill="#9a32cd" stroke="#9a32cd" points="273.86,-437.51 264.08,-441.58 274.26,-444.5 273.86,-437.51"/>
</a>
</g>
<text text-anchor="middle" x="328.88" y="-440.75" font-family="Helvetica,sans-Serif" font-size="10.00" fill="grey"> fMatrixNames</text>
</g>
<!-- Node5 -->
<g id="Node000005" class="node">
<title>Node5</title>
<g id="a_Node000005"><a xlink:title=" ">
<polygon fill="white" stroke="#666666" points="273.75,-411.25 129.5,-411.25 129.5,-392 273.75,-392 273.75,-411.25"/>
<text text-anchor="middle" x="201.62" y="-397.75" font-family="Helvetica,sans-Serif" font-size="10.00">std::vector&lt; TGComboBox * &gt;</text>
</a>
</g>
</g>
<!-- Node5&#45;&gt;Node1 -->
<g id="edge4_Node000001_Node000005" class="edge">
<title>Node5&#45;&gt;Node1</title>
<g id="a_edge4_Node000001_Node000005"><a xlink:title=" ">
<path fill="none" stroke="#9a32cd" stroke-dasharray="5,2" d="M285.25,-396.98C312.89,-392.18 342.59,-383.19 366,-366.62 401.73,-341.34 421.94,-290.11 429.17,-268.54"/>
<polygon fill="#9a32cd" stroke="#9a32cd" points="284.81,-393.5 275.46,-398.5 285.88,-400.42 284.81,-393.5"/>
</a>
</g>
<text text-anchor="middle" x="328.88" y="-396.82" font-family="Helvetica,sans-Serif" font-size="10.00" fill="grey"> fSourceBox</text>
</g>
<!-- Node6 -->
<g id="Node000006" class="node">
<title>Node6</title>
<g id="a_Node000006"><a xlink:title=" ">
<polygon fill="white" stroke="#666666" points="264.38,-374.25 138.88,-374.25 138.88,-355 264.38,-355 264.38,-374.25"/>
<text text-anchor="middle" x="201.62" y="-360.75" font-family="Helvetica,sans-Serif" font-size="10.00">std::vector&lt; TNucleus * &gt;</text>
</a>
</g>
</g>
<!-- Node6&#45;&gt;Node1 -->
<g id="edge5_Node000001_Node000006" class="edge">
<title>Node6&#45;&gt;Node1</title>
<g id="a_edge5_Node000001_Node000006"><a xlink:title=" ">
<path fill="none" stroke="#9a32cd" stroke-dasharray="5,2" d="M275.89,-354.8C305.23,-348.73 338.52,-339.03 366,-323.62 391.3,-309.44 413.78,-283.07 424.89,-268.66"/>
<polygon fill="#9a32cd" stroke="#9a32cd" points="275.49,-351.31 266.35,-356.66 276.83,-358.18 275.49,-351.31"/>
</a>
</g>
<text text-anchor="middle" x="328.88" y="-352.63" font-family="Helvetica,sans-Serif" font-size="10.00" fill="grey"> fSource</text>
</g>
<!-- Node7 -->
<g id="Node000007" class="node">
<title>Node7</title>
<g id="a_Node000007"><a xlink:title=" ">
<polygon fill="white" stroke="#666666" points="270,-336.5 133.25,-336.5 133.25,-294.75 270,-294.75 270,-336.5"/>
<text text-anchor="start" x="141.25" y="-323" font-family="Helvetica,sans-Serif" font-size="10.00">std::vector&lt; std::vector</text>
<text text-anchor="start" x="141.25" y="-311.75" font-family="Helvetica,sans-Serif" font-size="10.00">&lt; std::tuple&lt; double, double,</text>
<text text-anchor="middle" x="201.62" y="-300.5" font-family="Helvetica,sans-Serif" font-size="10.00"> double, double &gt; &gt; &gt;</text>
</a>
</g>
</g>
<!-- Node7&#45;&gt;Node1 -->
<g id="edge6_Node000001_Node000007" class="edge">
<title>Node7&#45;&gt;Node1</title>
<g id="a_edge6_Node000001_Node000007"><a xlink:title=" ">
<path fill="none" stroke="#9a32cd" stroke-dasharray="5,2" d="M281.62,-310.65C308.82,-307.46 339.17,-302.22 366,-293.62 384.58,-287.67 404.13,-276.68 417.14,-268.6"/>
<polygon fill="#9a32cd" stroke="#9a32cd" points="281.24,-307.17 271.68,-311.73 282,-314.13 281.24,-307.17"/>
</a>
</g>
<text text-anchor="middle" x="328.88" y="-310.61" font-family="Helvetica,sans-Serif" font-size="10.00" fill="grey"> fSourceEnergy</text>
</g>
<!-- Node8 -->
<g id="Node000008" class="node">
<title>Node8</title>
<g id="a_Node000008"><a xlink:title=" ">
<polygon fill="white" stroke="#666666" points="245.62,-276.25 157.62,-276.25 157.62,-257 245.62,-257 245.62,-276.25"/>
<text text-anchor="middle" x="201.62" y="-262.75" font-family="Helvetica,sans-Serif" font-size="10.00">std::vector&lt; int &gt;</text>
</a>
</g>
</g>
<!-- Node8&#45;&gt;Node1 -->
<g id="edge7_Node000001_Node000008" class="edge">
<title>Node8&#45;&gt;Node1</title>
<g id="a_edge7_Node000001_Node000008"><a xlink:title=" ">
<path fill="none" stroke="#9a32cd" stroke-dasharray="5,2" d="M257.27,-261.91C268.65,-261.09 280.59,-260.35 291.75,-259.88 322.34,-258.58 356.7,-258.26 383.79,-258.26"/>
<polygon fill="#9a32cd" stroke="#9a32cd" points="257.33,-258.39 247.62,-262.63 257.85,-265.37 257.33,-258.39"/>
</a>
</g>
<text text-anchor="middle" x="328.88" y="-284.12" font-family="Helvetica,sans-Serif" font-size="10.00" fill="grey"> fActiveBins</text>
<text text-anchor="middle" x="328.88" y="-272.88" font-family="Helvetica,sans-Serif" font-size="10.00" fill="grey">fActualChannelId</text>
<text text-anchor="middle" x="328.88" y="-261.62" font-family="Helvetica,sans-Serif" font-size="10.00" fill="grey">fBadBins</text>
</g>
<!-- Node9 -->
<g id="Node000009" class="node">
<title>Node9</title>
<g id="a_Node000009"><a xlink:title=" ">
<polygon fill="white" stroke="#666666" points="248.25,-238.88 155,-238.88 155,-208.38 248.25,-208.38 248.25,-238.88"/>
<text text-anchor="start" x="163" y="-225.38" font-family="Helvetica,sans-Serif" font-size="10.00">std::vector&lt; const</text>
<text text-anchor="middle" x="201.62" y="-214.12" font-family="Helvetica,sans-Serif" font-size="10.00"> char * &gt;</text>
</a>
</g>
</g>
<!-- Node9&#45;&gt;Node1 -->
<g id="edge8_Node000001_Node000009" class="edge">
<title>Node9&#45;&gt;Node1</title>
<g id="a_edge8_Node000001_Node000009"><a xlink:title=" ">
<path fill="none" stroke="#9a32cd" stroke-dasharray="5,2" d="M259.79,-229.04C291.24,-232.39 330.91,-237.23 366,-243.38 374.25,-244.82 383.03,-246.64 391.39,-248.51"/>
<polygon fill="#9a32cd" stroke="#9a32cd" points="260.4,-225.58 250.1,-228.02 259.68,-232.54 260.4,-225.58"/>
</a>
</g>
<text text-anchor="middle" x="328.88" y="-245.12" font-family="Helvetica,sans-Serif" font-size="10.00" fill="grey"> fChannelLabel</text>
</g>
<!-- Node10 -->
<g id="Node000010" class="node">
<title>Node10</title>
<g id="a_Node000010"><a xlink:title=" ">
<polygon fill="white" stroke="#666666" points="267.75,-190.5 135.5,-190.5 135.5,-148.75 267.75,-148.75 267.75,-190.5"/>
<text text-anchor="start" x="143.5" y="-177" font-family="Helvetica,sans-Serif" font-size="10.00">std::queue&lt; std::pair</text>
<text text-anchor="start" x="143.5" y="-165.75" font-family="Helvetica,sans-Serif" font-size="10.00">&lt; int, std::future&lt; TChannel</text>
<text text-anchor="middle" x="201.62" y="-154.5" font-family="Helvetica,sans-Serif" font-size="10.00">Tab * &gt; &gt; &gt;</text>
</a>
</g>
</g>
<!-- Node10&#45;&gt;Node1 -->
<g id="edge9_Node000001_Node000010" class="edge">
<title>Node10&#45;&gt;Node1</title>
<g id="a_edge9_Node000001_Node000010"><a xlink:title=" ">
<path fill="none" stroke="#9a32cd" stroke-dasharray="5,2" d="M279.02,-187.32C306.98,-194.99 338.5,-205.07 366,-217.38 385.29,-226.01 405.67,-239.44 418.65,-248.61"/>
<polygon fill="#9a32cd" stroke="#9a32cd" points="280.11,-183.99 269.55,-184.78 278.3,-190.75 280.11,-183.99"/>
</a>
</g>
<text text-anchor="middle" x="328.88" y="-219.12" font-family="Helvetica,sans-Serif" font-size="10.00" fill="grey"> fFutures</text>
</g>
<!-- Node11 -->
<g id="Node000011" class="node">
<title>Node11</title>
<g id="a_Node000011"><a xlink:title=" ">
<polygon fill="white" stroke="#666666" points="252.75,-130.25 150.5,-130.25 150.5,-111 252.75,-111 252.75,-130.25"/>
<text text-anchor="middle" x="201.62" y="-116.75" font-family="Helvetica,sans-Serif" font-size="10.00">std::vector&lt; TH2 * &gt;</text>
</a>
</g>
</g>
<!-- Node11&#45;&gt;Node1 -->
<g id="edge10_Node000001_Node000011" class="edge">
<title>Node11&#45;&gt;Node1</title>
<g id="a_edge10_Node000001_Node000011"><a xlink:title=" ">
<path fill="none" stroke="#9a32cd" stroke-dasharray="5,2" d="M263.95,-132.11C296.56,-140.44 336,-154.23 366,-176.38 393.73,-196.85 416.46,-231.61 426.58,-248.63"/>
<polygon fill="#9a32cd" stroke="#9a32cd" points="265.19,-128.81 254.65,-129.85 263.54,-135.62 265.19,-128.81"/>
</a>
</g>
<text text-anchor="middle" x="328.88" y="-178.12" font-family="Helvetica,sans-Serif" font-size="10.00" fill="grey"> fMatrices</text>
</g>
<!-- Node12 -->
<g id="Node000012" class="node">
<title>Node12</title>
<g id="a_Node000012"><a xlink:title=" ">
<polygon fill="white" stroke="#666666" points="230.62,-93.25 172.62,-93.25 172.62,-74 230.62,-74 230.62,-93.25"/>
<text text-anchor="middle" x="201.62" y="-79.75" font-family="Helvetica,sans-Serif" font-size="10.00">std::string</text>
</a>
</g>
</g>
<!-- Node12&#45;&gt;Node1 -->
<g id="edge11_Node000001_Node000012" class="edge">
<title>Node12&#45;&gt;Node1</title>
<g id="a_edge11_Node000001_Node000012"><a xlink:title=" ">
<path fill="none" stroke="#9a32cd" stroke-dasharray="5,2" d="M241.95,-84.88C277.88,-87.96 330.64,-97.53 366,-126.38 406.59,-159.49 424.56,-223.81 430.18,-248.57"/>
<polygon fill="#9a32cd" stroke="#9a32cd" points="242.66,-81.43 232.43,-84.21 242.16,-88.41 242.66,-81.43"/>
</a>
</g>
<text text-anchor="middle" x="328.88" y="-128.12" font-family="Helvetica,sans-Serif" font-size="10.00" fill="grey"> fLogFile</text>
</g>
<!-- Node13 -->
<g id="Node000013" class="node">
<title>Node13</title>
<g id="a_Node000013"><a xlink:title=" ">
<polygon fill="white" stroke="#666666" points="92.5,-98.88 0,-98.88 0,-68.38 92.5,-68.38 92.5,-98.88"/>
<text text-anchor="start" x="8" y="-85.38" font-family="Helvetica,sans-Serif" font-size="10.00">std::basic_string&lt;</text>
<text text-anchor="middle" x="46.25" y="-74.12" font-family="Helvetica,sans-Serif" font-size="10.00"> Char &gt;</text>
</a>
</g>
</g>
<!-- Node13&#45;&gt;Node12 -->
<g id="edge12_Node000012_Node000013" class="edge">
<title>Node13&#45;&gt;Node12</title>
<g id="a_edge12_Node000012_Node000013"><a xlink:title=" ">
<path fill="none" stroke="#63b8ff" d="M104.34,-83.62C127.53,-83.62 153.28,-83.62 172.31,-83.62"/>
<polygon fill="#63b8ff" stroke="#63b8ff" points="104.37,-80.13 94.37,-83.63 104.37,-87.13 104.37,-80.13"/>
</a>
</g>
</g>
<!-- Node14 -->
<g id="Node000014" class="node">
<title>Node14</title>
<g id="a_Node000014"><a xlink:href="class_t_redirect.html" target="_top" xlink:title=" ">
<polygon fill="white" stroke="#666666" points="230.62,-56.25 172.62,-56.25 172.62,-37 230.62,-37 230.62,-56.25"/>
<text text-anchor="middle" x="201.62" y="-42.75" font-family="Helvetica,sans-Serif" font-size="10.00">TRedirect</text>
</a>
</g>
</g>
<!-- Node14&#45;&gt;Node1 -->
<g id="edge13_Node000001_Node000014" class="edge">
<title>Node14&#45;&gt;Node1</title>
<g id="a_edge13_Node000001_Node000014"><a xlink:title=" ">
<path fill="none" stroke="#9a32cd" stroke-dasharray="5,2" d="M242.14,-43.71C278.43,-43.2 331.63,-48.24 366,-77.38 420.43,-123.52 430.15,-218.35 431.88,-248.91"/>
<polygon fill="#9a32cd" stroke="#9a32cd" points="242.4,-40.2 232.51,-44 242.61,-47.2 242.4,-40.2"/>
</a>
</g>
<text text-anchor="middle" x="328.88" y="-79.12" font-family="Helvetica,sans-Serif" font-size="10.00" fill="grey"> fRedirect</text>
</g>
<!-- Node15 -->
<g id="Node000015" class="node">
<title>Node15</title>
<g id="a_Node000015"><a xlink:title=" ">
<polygon fill="white" stroke="#666666" points="231.75,-19.25 171.5,-19.25 171.5,0 231.75,0 231.75,-19.25"/>
<text text-anchor="middle" x="201.62" y="-5.75" font-family="Helvetica,sans-Serif" font-size="10.00">std::mutex</text>
</a>
</g>
</g>
<!-- Node15&#45;&gt;Node1 -->
<g id="edge14_Node000001_Node000015" class="edge">
<title>Node15&#45;&gt;Node1</title>
<g id="a_edge14_Node000001_Node000015"><a xlink:title=" ">
<path fill="none" stroke="#9a32cd" stroke-dasharray="5,2" d="M243.33,-3.9C279.76,-1.15 332.45,-3.42 366,-32.38 433.23,-90.41 434.09,-212.62 432.79,-248.51"/>
<polygon fill="#9a32cd" stroke="#9a32cd" points="243.26,-0.39 233.63,-4.8 243.91,-7.36 243.26,-0.39"/>
</a>
</g>
<text text-anchor="middle" x="328.88" y="-34.12" font-family="Helvetica,sans-Serif" font-size="10.00" fill="grey"> fGraphicsMutex</text>
</g>
</g>
</svg>

<g id="navigator" transform="translate(0 0)" fill="#404254">
  <rect fill="#f2f5e9" fill-opacity="0.5" stroke="#606060" stroke-width=".5" x="0" y="0" width="60" height="60"/>
  <use id="zoomplus" xlink:href="#zoomPlus" x="17" y="9" onmousedown="handleZoom(evt,'in')"/>
  <use id="zoomminus" xlink:href="#zoomMin" x="42" y="9" onmousedown="handleZoom(evt,'out')"/>
  <use id="reset" xlink:href="#resetDef" x="30" y="36" onmousedown="handleReset()"/>
   <use id="arrowup" xlink:href="#arrowUp" x="0" y="0" onmousedown="handlePan(0,-1)"/>
  <use id="arrowright" xlink:href="#arrowRight" x="0" y="0" onmousedown="handlePan(1,0)"/>
  <use id="arrowdown" xlink:href="#arrowDown" x="0" y="0" onmousedown="handlePan(0,1)"/>
  <use id="arrowleft" xlink:href="#arrowLeft" x="0" y="0" onmousedown="handlePan(-1,0)"/>
</g>
<svg viewBox="0 0 15 15" width="100%" height="30px" preserveAspectRatio="xMaxYMin meet">
 <g id="arrow_out" transform="scale(0.3 0.3)">
  <a xlink:href="class_t_source_calibration__coll__graph_org.svg" target="_base">
   <rect id="button" ry="5" rx="5" y="6" x="6" height="38" width="38"
        fill="#f2f5e9" fill-opacity="0.5" stroke="#606060" stroke-width="1.0"/>
   <path id="arrow"
     d="M 11.500037,31.436501 C 11.940474,20.09759 22.043105,11.32322 32.158766,21.979434 L 37.068811,17.246167 C 37.068811,17.246167 37.088388,32 37.088388,32 L 22.160133,31.978069 C 22.160133,31.978069 26.997745,27.140456 26.997745,27.140456 C 18.528582,18.264221 13.291696,25.230495 11.500037,31.436501 z"
     style="fill:#404040;"/>
  </a>
 </g>
</svg>

<style type='text/css'>
<![CDATA[
[data-mouse-over-selected='false'] { opacity: 0.7; }
[data-mouse-over-selected='true']  { opacity: 1.0; }
]]>
</style>
<script type="application/ecmascript"><![CDATA[
document.addEventListener('DOMContentLoaded', (event) => {
  highlightEdges();
  highlightAdjacentNodes();
});
]]></script>
</svg>
