<?xml version="1.0" encoding="UTF-8" standalone="no"?>
<!DOCTYPE svg PUBLIC "-//W3C//DTD SVG 1.1//EN"
 "http://www.w3.org/Graphics/SVG/1.1/DTD/svg11.dtd">
<!-- Generated by graphviz version 12.2.0 (20241103.1931)
 -->
<!-- Title: TPPG Pages: 1 -->
<!--zoomable 233 -->

<svg id="main" version="1.1" xmlns="http://www.w3.org/2000/svg" xmlns:xlink="http://www.w3.org/1999/xlink" xml:space="preserve" onload="init(evt)">

<style type="text/css"><![CDATA[
.node, .edge {opacity: 0.7;}
.node.selected, .edge.selected {opacity: 1;}
.edge:hover path { stroke: red; }
.edge:hover polygon { stroke: red; fill: red; }
]]></style>

<defs>
  <circle id="rim" cx="0" cy="0" r="7"/>
  <circle id="rim2" cx="0" cy="0" r="3.5"/>
  <g id="zoomPlus">
    <use xlink:href="#rim" fill="#404040"><set attributeName="fill" to="#808080" begin="zoomplus.mouseover" end="zoomplus.mouseout"/></use>
    <path d="M-4,0h8M0,-4v8" fill="none" stroke="white" stroke-width="1.5" pointer-events="none"/>
  </g>
  <g id="zoomMin">
    <use xlink:href="#rim" fill="#404040"><set attributeName="fill" to="#808080" begin="zoomminus.mouseover" end="zoomminus.mouseout"/></use>
    <path d="M-4,0h8" fill="none" stroke="white" stroke-width="1.5" pointer-events="none"/>
  </g>
  <g id="arrowUp" transform="translate(30 24)">
    <use xlink:href="#rim"/>
    <path pointer-events="none" fill="none" stroke="white" stroke-width="1.5" d="M0,-3.0v7 M-2.5,-0.5L0,-3.0L2.5,-0.5"/>
  </g>
  <g id="arrowRight" transform="rotate(90) translate(36 -43)">
    <use xlink:href="#rim"/>
    <path pointer-events="none" fill="none" stroke="white" stroke-width="1.5" d="M0,-3.0v7 M-2.5,-0.5L0,-3.0L2.5,-0.5"/>
  </g>
  <g id="arrowDown" transform="rotate(180) translate(-30 -48)">
    <use xlink:href="#rim"/>
    <path pointer-events="none" fill="none" stroke="white" stroke-width="1.5" d="M0,-3.0v7 M-2.5,-0.5L0,-3.0L2.5,-0.5"/>
  </g>
  <g id="arrowLeft" transform="rotate(270) translate(-36 17)">
    <use xlink:href="#rim"/>
    <path pointer-events="none" fill="none" stroke="white" stroke-width="1.5" d="M0,-3.0v7 M-2.5,-0.5L0,-3.0L2.5,-0.5"/>
  </g>
  <g id="resetDef">
    <use xlink:href="#rim2" fill="#404040"><set attributeName="fill" to="#808080" begin="reset.mouseover" end="reset.mouseout"/></use>
  </g>
</defs>
<script type="application/ecmascript">
var viewWidth = 517;
var viewHeight = 233;
var sectionId = 'dynsection-1';
</script>
<script type="application/ecmascript" xlink:href="svg.min.js"/>
<svg id="graph" class="graph">
<g id="viewport">
<title>TPPG</title>
<!-- Node1 -->
<g id="Node000001" class="node">
<title>Node1</title>
<g id="a_Node000001"><a xlink:title=" ">
<polygon fill="#999999" stroke="#666666" points="317.75,-116.99 274.75,-116.99 274.75,-97.74 317.75,-97.74 317.75,-116.99"/>
<text text-anchor="middle" x="296.25" y="-103.49" font-family="Helvetica,sans-Serif" font-size="10.00">TPPG</text>
</a>
</g>
</g>
<!-- Node2 -->
<g id="Node000002" class="node">
<title>Node2</title>
<g id="a_Node000002"><a xlink:href="class_t_singleton.html" target="_top" xlink:title=" ">
<polygon fill="white" stroke="#666666" points="509.25,-138.99 403.25,-138.99 403.25,-119.74 509.25,-119.74 509.25,-138.99"/>
<text text-anchor="middle" x="456.25" y="-125.49" font-family="Helvetica,sans-Serif" font-size="10.00">TSingleton&lt; TPPG &gt;</text>
</a>
</g>
</g>
<!-- Node1&#45;&gt;Node2 -->
<g id="edge3_Node000002_Node000001" class="edge">
<title>Node1&#45;&gt;Node2</title>
<g id="a_edge3_Node000002_Node000001"><a xlink:title=" ">
<path fill="none" stroke="#9a32cd" stroke-dasharray="5,2" d="M329.46,-111.85C350.56,-114.79 378.6,-118.7 402.86,-122.07"/>
<polygon fill="#9a32cd" stroke="#9a32cd" points="330.12,-108.41 319.73,-110.5 329.15,-115.34 330.12,-108.41"/>
</a>
</g>
<text text-anchor="middle" x="362.38" y="-120.78" font-family="Helvetica,sans-Serif" font-size="10.00" fill="grey"> fSingleton</text>
</g>
<!-- Node2&#45;&gt;Node1 -->
<g id="edge1_Node000001_Node000002" class="edge">
<title>Node2&#45;&gt;Node1</title>
<g id="a_edge1_Node000001_Node000002"><a xlink:title=" ">
<path fill="none" stroke="#63b8ff" d="M413.36,-116.31C404.18,-113.93 394.46,-111.76 385.25,-110.37 362.42,-106.93 335.91,-106.5 318,-106.73"/>
<polygon fill="#63b8ff" stroke="#63b8ff" points="412.19,-119.62 422.76,-118.89 414.04,-112.87 412.19,-119.62"/>
</a>
</g>
</g>
<!-- Node3 -->
<g id="Node000003" class="node">
<title>Node3</title>
<g id="a_Node000003"><a xlink:title=" ">
<polygon fill="white" stroke="#666666" points="321.5,-164.99 271,-164.99 271,-145.74 321.5,-145.74 321.5,-164.99"/>
<text text-anchor="middle" x="296.25" y="-151.49" font-family="Helvetica,sans-Serif" font-size="10.00">TObject</text>
</a>
</g>
</g>
<!-- Node3&#45;&gt;Node2 -->
<g id="edge2_Node000002_Node000003" class="edge">
<title>Node3&#45;&gt;Node2</title>
<g id="a_edge2_Node000002_Node000003"><a xlink:title=" ">
<path fill="none" stroke="#63b8ff" d="M333.07,-149.47C353.71,-146.08 380.04,-141.74 402.97,-137.97"/>
<polygon fill="#63b8ff" stroke="#63b8ff" points="332.73,-145.98 323.43,-151.06 333.87,-152.89 332.73,-145.98"/>
</a>
</g>
</g>
<!-- Node4 -->
<g id="Node000004" class="node">
<title>Node4</title>
<g id="a_Node000004"><a xlink:title=" ">
<polygon fill="white" stroke="#666666" points="123.62,-218.99 1.87,-218.99 1.87,-199.74 123.62,-199.74 123.62,-218.99"/>
<text text-anchor="middle" x="62.75" y="-205.49" font-family="Helvetica,sans-Serif" font-size="10.00">std::map&lt; K, T &gt;::iterator</text>
</a>
</g>
</g>
<!-- Node4&#45;&gt;Node1 -->
<g id="edge4_Node000001_Node000004" class="edge">
<title>Node4&#45;&gt;Node1</title>
<g id="a_edge4_Node000001_Node000004"><a xlink:title=" ">
<path fill="none" stroke="#9a32cd" stroke-dasharray="5,2" d="M135.09,-214.58C173.7,-213.72 220.09,-206.3 253,-180.37 269.6,-167.29 260.09,-154.46 271,-136.37 275.13,-129.51 280.83,-122.6 285.67,-117.25"/>
<polygon fill="#9a32cd" stroke="#9a32cd" points="135.39,-211.08 125.42,-214.64 135.44,-218.08 135.39,-211.08"/>
</a>
</g>
<text text-anchor="middle" x="198.25" y="-215.82" font-family="Helvetica,sans-Serif" font-size="10.00" fill="grey"> fCurrIterator</text>
</g>
<!-- Node5 -->
<g id="Node000005" class="node">
<title>Node5</title>
<g id="a_Node000005"><a xlink:title=" ">
<polygon fill="white" stroke="#666666" points="106.38,-181.99 19.12,-181.99 19.12,-162.74 106.38,-162.74 106.38,-181.99"/>
<text text-anchor="middle" x="62.75" y="-168.49" font-family="Helvetica,sans-Serif" font-size="10.00">std::map&lt; K, T &gt;</text>
</a>
</g>
</g>
<!-- Node5&#45;&gt;Node1 -->
<g id="edge5_Node000001_Node000005" class="edge">
<title>Node5&#45;&gt;Node1</title>
<g id="a_edge5_Node000001_Node000005"><a xlink:title=" ">
<path fill="none" stroke="#9a32cd" stroke-dasharray="5,2" d="M117.68,-168.64C156.55,-164.48 209.59,-155.73 253,-137.37 264.6,-132.46 276.15,-123.95 284.23,-117.24"/>
<polygon fill="#9a32cd" stroke="#9a32cd" points="117.72,-165.12 108.11,-169.59 118.41,-172.09 117.72,-165.12"/>
</a>
</g>
<text text-anchor="middle" x="198.25" y="-166.58" font-family="Helvetica,sans-Serif" font-size="10.00" fill="grey"> fPPGStatusMap</text>
</g>
<!-- Node6 -->
<g id="Node000006" class="node">
<title>Node6</title>
<g id="a_Node000006"><a xlink:title=" ">
<polygon fill="white" stroke="#666666" points="118.75,-144.62 6.75,-144.62 6.75,-114.12 118.75,-114.12 118.75,-144.62"/>
<text text-anchor="start" x="14.75" y="-131.12" font-family="Helvetica,sans-Serif" font-size="10.00">std::map&lt; ULong64_t,</text>
<text text-anchor="middle" x="62.75" y="-119.87" font-family="Helvetica,sans-Serif" font-size="10.00"> int &gt;</text>
</a>
</g>
</g>
<!-- Node6&#45;&gt;Node1 -->
<g id="edge6_Node000001_Node000006" class="edge">
<title>Node6&#45;&gt;Node1</title>
<g id="a_edge6_Node000001_Node000006"><a xlink:title=" ">
<path fill="none" stroke="#9a32cd" stroke-dasharray="5,2" d="M130.63,-123.01C179.38,-118.38 242.3,-112.4 274.4,-109.35"/>
<polygon fill="#9a32cd" stroke="#9a32cd" points="130.33,-119.52 120.71,-123.96 130.99,-126.49 130.33,-119.52"/>
</a>
</g>
<text text-anchor="middle" x="198.25" y="-123.37" font-family="Helvetica,sans-Serif" font-size="10.00" fill="grey"> fNumberOfCycleLengths</text>
</g>
<!-- Node7 -->
<g id="Node000007" class="node">
<title>Node7</title>
<g id="a_Node000007"><a xlink:title=" ">
<polygon fill="white" stroke="#666666" points="116.12,-94.99 9.38,-94.99 9.38,-75.74 116.12,-75.74 116.12,-94.99"/>
<text text-anchor="middle" x="62.75" y="-81.49" font-family="Helvetica,sans-Serif" font-size="10.00">std::vector&lt; int16_t &gt;</text>
</a>
</g>
</g>
<!-- Node7&#45;&gt;Node1 -->
<g id="edge7_Node000001_Node000007" class="edge">
<title>Node7&#45;&gt;Node1</title>
<g id="a_edge7_Node000001_Node000007"><a xlink:title=" ">
<path fill="none" stroke="#9a32cd" stroke-dasharray="5,2" d="M127.57,-77.49C164.71,-74.81 212.12,-74.66 253,-84.87 262.84,-87.32 272.89,-92.55 280.73,-97.35"/>
<polygon fill="#9a32cd" stroke="#9a32cd" points="127.58,-73.98 117.9,-78.28 128.15,-80.96 127.58,-73.98"/>
</a>
</g>
<text text-anchor="middle" x="198.25" y="-97.87" font-family="Helvetica,sans-Serif" font-size="10.00" fill="grey"> fOdbPPGCodes</text>
<text text-anchor="middle" x="198.25" y="-86.62" font-family="Helvetica,sans-Serif" font-size="10.00" fill="grey">fPPGCodes</text>
</g>
<!-- Node8 -->
<g id="Node000008" class="node">
<title>Node8</title>
<g id="a_Node000008"><a xlink:title=" ">
<polygon fill="white" stroke="#666666" points="106.75,-57.99 18.75,-57.99 18.75,-38.74 106.75,-38.74 106.75,-57.99"/>
<text text-anchor="middle" x="62.75" y="-44.49" font-family="Helvetica,sans-Serif" font-size="10.00">std::vector&lt; int &gt;</text>
</a>
</g>
</g>
<!-- Node8&#45;&gt;Node1 -->
<g id="edge8_Node000001_Node000008" class="edge">
<title>Node8&#45;&gt;Node1</title>
<g id="a_edge8_Node000001_Node000008"><a xlink:title=" ">
<path fill="none" stroke="#9a32cd" stroke-dasharray="5,2" d="M118.5,-41.59C157.84,-39.14 211.1,-40.93 253,-61.12 269.46,-69.05 282.51,-86.49 289.54,-97.54"/>
<polygon fill="#9a32cd" stroke="#9a32cd" points="118.24,-38.1 108.53,-42.33 118.76,-45.08 118.24,-38.1"/>
</a>
</g>
<text text-anchor="middle" x="198.25" y="-62.87" font-family="Helvetica,sans-Serif" font-size="10.00" fill="grey"> fOdbDurations</text>
</g>
<!-- Node9 -->
<g id="Node000009" class="node">
<title>Node9</title>
<g id="a_Node000009"><a xlink:title=" ">
<polygon fill="white" stroke="#666666" points="125.5,-20.99 0,-20.99 0,-1.74 125.5,-1.74 125.5,-20.99"/>
<text text-anchor="middle" x="62.75" y="-7.49" font-family="Helvetica,sans-Serif" font-size="10.00">std::vector&lt; ULong64_t &gt;</text>
</a>
</g>
</g>
<!-- Node9&#45;&gt;Node1 -->
<g id="edge9_Node000001_Node000009" class="edge">
<title>Node9&#45;&gt;Node1</title>
<g id="a_edge9_Node000001_Node000009"><a xlink:title=" ">
<path fill="none" stroke="#9a32cd" stroke-dasharray="5,2" d="M136.74,-0.54C174.35,1.27 219.26,-2.8 253,-25.12 278.57,-42.03 289.51,-79.49 293.41,-97.42"/>
<polygon fill="#9a32cd" stroke="#9a32cd" points="136.59,2.96 126.83,-1.17 137.04,-4.02 136.59,2.96"/>
</a>
</g>
<text text-anchor="middle" x="198.25" y="-26.87" font-family="Helvetica,sans-Serif" font-size="10.00" fill="grey"> fDurations</text>
</g>
</g>
</svg>

<g id="navigator" transform="translate(0 0)" fill="#404254">
  <rect fill="#f2f5e9" fill-opacity="0.5" stroke="#606060" stroke-width=".5" x="0" y="0" width="60" height="60"/>
  <use id="zoomplus" xlink:href="#zoomPlus" x="17" y="9" onmousedown="handleZoom(evt,'in')"/>
  <use id="zoomminus" xlink:href="#zoomMin" x="42" y="9" onmousedown="handleZoom(evt,'out')"/>
  <use id="reset" xlink:href="#resetDef" x="30" y="36" onmousedown="handleReset()"/>
   <use id="arrowup" xlink:href="#arrowUp" x="0" y="0" onmousedown="handlePan(0,-1)"/>
  <use id="arrowright" xlink:href="#arrowRight" x="0" y="0" onmousedown="handlePan(1,0)"/>
  <use id="arrowdown" xlink:href="#arrowDown" x="0" y="0" onmousedown="handlePan(0,1)"/>
  <use id="arrowleft" xlink:href="#arrowLeft" x="0" y="0" onmousedown="handlePan(-1,0)"/>
</g>
<svg viewBox="0 0 15 15" width="100%" height="30px" preserveAspectRatio="xMaxYMin meet">
 <g id="arrow_out" transform="scale(0.3 0.3)">
  <a xlink:href="class_t_p_p_g__coll__graph_org.svg" target="_base">
   <rect id="button" ry="5" rx="5" y="6" x="6" height="38" width="38"
        fill="#f2f5e9" fill-opacity="0.5" stroke="#606060" stroke-width="1.0"/>
   <path id="arrow"
     d="M 11.500037,31.436501 C 11.940474,20.09759 22.043105,11.32322 32.158766,21.979434 L 37.068811,17.246167 C 37.068811,17.246167 37.088388,32 37.088388,32 L 22.160133,31.978069 C 22.160133,31.978069 26.997745,27.140456 26.997745,27.140456 C 18.528582,18.264221 13.291696,25.230495 11.500037,31.436501 z"
     style="fill:#404040;"/>
  </a>
 </g>
</svg>

<style type='text/css'>
<![CDATA[
[data-mouse-over-selected='false'] { opacity: 0.7; }
[data-mouse-over-selected='true']  { opacity: 1.0; }
]]>
</style>
<script type="application/ecmascript"><![CDATA[
document.addEventListener('DOMContentLoaded', (event) => {
  highlightEdges();
  highlightAdjacentNodes();
});
]]></script>
</svg>
