<?xml version="1.0" encoding="UTF-8" standalone="no"?>
<!DOCTYPE svg PUBLIC "-//W3C//DTD SVG 1.1//EN"
 "http://www.w3.org/Graphics/SVG/1.1/DTD/svg11.dtd">
<!-- Generated by graphviz version 12.2.0 (20241103.1931)
 -->
<!-- Title: TSourceCalibration Pages: 1 -->
<svg width="491pt" height="433pt"
 viewBox="0.00 0.00 490.50 433.25" xmlns="http://www.w3.org/2000/svg" xmlns:xlink="http://www.w3.org/1999/xlink">
<g id="graph0" class="graph" transform="scale(1 1) rotate(0) translate(4 429.25)">
<title>TSourceCalibration</title>
<!-- Node1 -->
<g id="Node000001" class="node">
<title>Node1</title>
<g id="a_Node000001"><a xlink:title=" ">
<polygon fill="#999999" stroke="#666666" points="482.5,-228.25 384,-228.25 384,-209 482.5,-209 482.5,-228.25"/>
<text text-anchor="middle" x="433.25" y="-214.75" font-family="Helvetica,sans-Serif" font-size="10.00">TSourceCalibration</text>
</a>
</g>
</g>
<!-- Node2 -->
<g id="Node000002" class="node">
<title>Node2</title>
<g id="a_Node000002"><a xlink:title=" ">
<polygon fill="white" stroke="#666666" points="240.75,-425.25 162.5,-425.25 162.5,-406 240.75,-406 240.75,-425.25"/>
<text text-anchor="middle" x="201.62" y="-411.75" font-family="Helvetica,sans-Serif" font-size="10.00">TGMainFrame</text>
</a>
</g>
</g>
<!-- Node2&#45;&gt;Node1 -->
<g id="edge1_Node000001_Node000002" class="edge">
<title>Node2&#45;&gt;Node1</title>
<g id="a_edge1_Node000001_Node000002"><a xlink:title=" ">
<path fill="none" stroke="#63b8ff" d="M251.99,-420.36C287.38,-421.07 334.23,-416.19 366,-390.62 418.86,-348.1 429.6,-258.05 431.74,-228.35"/>
<polygon fill="#63b8ff" stroke="#63b8ff" points="252.57,-416.88 242.45,-420.01 252.31,-423.87 252.57,-416.88"/>
</a>
</g>
</g>
<!-- Node3 -->
<g id="Node000003" class="node">
<title>Node3</title>
<g id="a_Node000003"><a xlink:title=" ">
<polygon fill="white" stroke="#666666" points="272.25,-388.25 131,-388.25 131,-369 272.25,-369 272.25,-388.25"/>
<text text-anchor="middle" x="201.62" y="-374.75" font-family="Helvetica,sans-Serif" font-size="10.00">std::vector&lt; TChannelTab * &gt;</text>
</a>
</g>
</g>
<!-- Node3&#45;&gt;Node1 -->
<g id="edge2_Node000001_Node000003" class="edge">
<title>Node3&#45;&gt;Node1</title>
<g id="a_edge2_Node000001_Node000003"><a xlink:title=" ">
<path fill="none" stroke="#9a32cd" stroke-dasharray="5,2" d="M283.65,-376.96C311.97,-372.9 342.52,-364.23 366,-346.62 406.84,-316.01 424.66,-252.9 430.22,-228.53"/>
<polygon fill="#9a32cd" stroke="#9a32cd" points="283.51,-373.45 274.01,-378.15 284.37,-380.4 283.51,-373.45"/>
</a>
</g>
<text text-anchor="middle" x="328.88" y="-376.68" font-family="Helvetica,sans-Serif" font-size="10.00" fill="grey"> fChannelTab</text>
</g>
<!-- Node4 -->
<g id="Node000004" class="node">
<title>Node4</title>
<g id="a_Node000004"><a xlink:title=" ">
<polygon fill="white" stroke="#666666" points="262.12,-351.25 141.12,-351.25 141.12,-332 262.12,-332 262.12,-351.25"/>
<text text-anchor="middle" x="201.62" y="-337.75" font-family="Helvetica,sans-Serif" font-size="10.00">std::vector&lt; TGLabel * &gt;</text>
</a>
</g>
</g>
<!-- Node4&#45;&gt;Node1 -->
<g id="edge3_Node000001_Node000004" class="edge">
<title>Node4&#45;&gt;Node1</title>
<g id="a_edge3_Node000001_Node000004"><a xlink:title=" ">
<path fill="none" stroke="#9a32cd" stroke-dasharray="5,2" d="M273.68,-335.71C303.98,-330.61 338.58,-321.14 366,-303.62 396.11,-284.38 418.17,-246.54 427.43,-228.56"/>
<polygon fill="#9a32cd" stroke="#9a32cd" points="273.16,-332.25 263.8,-337.23 274.22,-339.17 273.16,-332.25"/>
</a>
</g>
<text text-anchor="middle" x="328.88" y="-333.4" font-family="Helvetica,sans-Serif" font-size="10.00" fill="grey"> fMatrixNames</text>
</g>
<!-- Node5 -->
<g id="Node000005" class="node">
<title>Node5</title>
<g id="a_Node000005"><a xlink:title=" ">
<polygon fill="white" stroke="#666666" points="273.75,-314.25 129.5,-314.25 129.5,-295 273.75,-295 273.75,-314.25"/>
<text text-anchor="middle" x="201.62" y="-300.75" font-family="Helvetica,sans-Serif" font-size="10.00">std::vector&lt; TGComboBox * &gt;</text>
</a>
</g>
</g>
<!-- Node5&#45;&gt;Node1 -->
<g id="edge4_Node000001_Node000005" class="edge">
<title>Node5&#45;&gt;Node1</title>
<g id="a_edge4_Node000001_Node000005"><a xlink:title=" ">
<path fill="none" stroke="#9a32cd" stroke-dasharray="5,2" d="M274.98,-292.18C304.04,-285.73 337.37,-276.46 366,-263.62 386.56,-254.41 407.63,-238.84 420.33,-228.65"/>
<polygon fill="#9a32cd" stroke="#9a32cd" points="274.59,-288.68 265.55,-294.2 276.06,-295.53 274.59,-288.68"/>
</a>
</g>
<text text-anchor="middle" x="328.88" y="-289.97" font-family="Helvetica,sans-Serif" font-size="10.00" fill="grey"> fSourceBox</text>
</g>
<!-- Node6 -->
<g id="Node000006" class="node">
<title>Node6</title>
<g id="a_Node000006"><a xlink:title=" ">
<polygon fill="white" stroke="#666666" points="264.38,-277.25 138.88,-277.25 138.88,-258 264.38,-258 264.38,-277.25"/>
<text text-anchor="middle" x="201.62" y="-263.75" font-family="Helvetica,sans-Serif" font-size="10.00">std::vector&lt; TNucleus * &gt;</text>
</a>
</g>
</g>
<!-- Node6&#45;&gt;Node1 -->
<g id="edge5_Node000001_Node000006" class="edge">
<title>Node6&#45;&gt;Node1</title>
<g id="a_edge5_Node000001_Node000006"><a xlink:title=" ">
<path fill="none" stroke="#9a32cd" stroke-dasharray="5,2" d="M263.36,-255.25C294.14,-248.91 332.09,-240.99 366,-233.62 373.14,-232.07 380.71,-230.39 388.08,-228.74"/>
<polygon fill="#9a32cd" stroke="#9a32cd" points="262.94,-251.76 253.85,-257.2 264.35,-258.62 262.94,-251.76"/>
</a>
</g>
<text text-anchor="middle" x="328.88" y="-250.58" font-family="Helvetica,sans-Serif" font-size="10.00" fill="grey"> fSource</text>
</g>
<!-- Node7 -->
<g id="Node000007" class="node">
<title>Node7</title>
<g id="a_Node000007"><a xlink:title=" ">
<polygon fill="white" stroke="#666666" points="270,-239.5 133.25,-239.5 133.25,-197.75 270,-197.75 270,-239.5"/>
<text text-anchor="start" x="141.25" y="-226" font-family="Helvetica,sans-Serif" font-size="10.00">std::vector&lt; std::vector</text>
<text text-anchor="start" x="141.25" y="-214.75" font-family="Helvetica,sans-Serif" font-size="10.00">&lt; std::tuple&lt; double, double,</text>
<text text-anchor="middle" x="201.62" y="-203.5" font-family="Helvetica,sans-Serif" font-size="10.00"> double, double &gt; &gt; &gt;</text>
</a>
</g>
</g>
<!-- Node7&#45;&gt;Node1 -->
<g id="edge6_Node000001_Node000007" class="edge">
<title>Node7&#45;&gt;Node1</title>
<g id="a_edge6_Node000001_Node000007"><a xlink:title=" ">
<path fill="none" stroke="#9a32cd" stroke-dasharray="5,2" d="M281.58,-218.62C315.49,-218.62 354.03,-218.62 383.65,-218.62"/>
<polygon fill="#9a32cd" stroke="#9a32cd" points="281.79,-215.13 271.79,-218.63 281.79,-222.13 281.79,-215.13"/>
</a>
</g>
<text text-anchor="middle" x="328.88" y="-220.38" font-family="Helvetica,sans-Serif" font-size="10.00" fill="grey"> fSourceEnergy</text>
</g>
<!-- Node8 -->
<g id="Node000008" class="node">
<title>Node8</title>
<g id="a_Node000008"><a xlink:title=" ">
<polygon fill="white" stroke="#666666" points="245.62,-179.25 157.62,-179.25 157.62,-160 245.62,-160 245.62,-179.25"/>
<text text-anchor="middle" x="201.62" y="-165.75" font-family="Helvetica,sans-Serif" font-size="10.00">std::vector&lt; int &gt;</text>
</a>
</g>
</g>
<!-- Node8&#45;&gt;Node1 -->
<g id="edge7_Node000001_Node000008" class="edge">
<title>Node8&#45;&gt;Node1</title>
<g id="a_edge7_Node000001_Node000008"><a xlink:title=" ">
<path fill="none" stroke="#9a32cd" stroke-dasharray="5,2" d="M257.22,-173.79C289.28,-177.06 330.38,-182.7 366,-192.12 381.45,-196.21 398.15,-202.91 410.92,-208.55"/>
<polygon fill="#9a32cd" stroke="#9a32cd" points="257.64,-170.31 247.35,-172.83 256.97,-177.28 257.64,-170.31"/>
</a>
</g>
<text text-anchor="middle" x="328.88" y="-205.12" font-family="Helvetica,sans-Serif" font-size="10.00" fill="grey"> fActiveBins</text>
<text text-anchor="middle" x="328.88" y="-193.88" font-family="Helvetica,sans-Serif" font-size="10.00" fill="grey">fActualChannelId</text>
</g>
<!-- Node9 -->
<g id="Node000009" class="node">
<title>Node9</title>
<g id="a_Node000009"><a xlink:title=" ">
<polygon fill="white" stroke="#666666" points="248.25,-141.88 155,-141.88 155,-111.38 248.25,-111.38 248.25,-141.88"/>
<text text-anchor="start" x="163" y="-128.38" font-family="Helvetica,sans-Serif" font-size="10.00">std::vector&lt; const</text>
<text text-anchor="middle" x="201.62" y="-117.12" font-family="Helvetica,sans-Serif" font-size="10.00"> char * &gt;</text>
</a>
</g>
</g>
<!-- Node9&#45;&gt;Node1 -->
<g id="edge8_Node000001_Node000009" class="edge">
<title>Node9&#45;&gt;Node1</title>
<g id="a_edge8_Node000001_Node000009"><a xlink:title=" ">
<path fill="none" stroke="#9a32cd" stroke-dasharray="5,2" d="M259.69,-132.72C292.12,-137.8 332.76,-146.98 366,-163.38 389.37,-174.9 411.58,-196.28 423.41,-208.8"/>
<polygon fill="#9a32cd" stroke="#9a32cd" points="260.48,-129.3 250.08,-131.31 259.46,-136.22 260.48,-129.3"/>
</a>
</g>
<text text-anchor="middle" x="328.88" y="-165.12" font-family="Helvetica,sans-Serif" font-size="10.00" fill="grey"> fChannelLabel</text>
</g>
<!-- Node10 -->
<g id="Node000010" class="node">
<title>Node10</title>
<g id="a_Node000010"><a xlink:title=" ">
<polygon fill="white" stroke="#666666" points="252.75,-93.25 150.5,-93.25 150.5,-74 252.75,-74 252.75,-93.25"/>
<text text-anchor="middle" x="201.62" y="-79.75" font-family="Helvetica,sans-Serif" font-size="10.00">std::vector&lt; TH2 * &gt;</text>
</a>
</g>
</g>
<!-- Node10&#45;&gt;Node1 -->
<g id="edge9_Node000001_Node000010" class="edge">
<title>Node10&#45;&gt;Node1</title>
<g id="a_edge9_Node000001_Node000010"><a xlink:title=" ">
<path fill="none" stroke="#9a32cd" stroke-dasharray="5,2" d="M264.41,-88.12C296.95,-92.96 336.17,-102.93 366,-123.38 398.4,-145.58 419.88,-189.22 428.28,-208.76"/>
<polygon fill="#9a32cd" stroke="#9a32cd" points="265.08,-84.68 254.71,-86.82 264.15,-91.62 265.08,-84.68"/>
</a>
</g>
<text text-anchor="middle" x="328.88" y="-125.12" font-family="Helvetica,sans-Serif" font-size="10.00" fill="grey"> fMatrices</text>
</g>
<!-- Node11 -->
<g id="Node000011" class="node">
<title>Node11</title>
<g id="a_Node000011"><a xlink:title=" ">
<polygon fill="white" stroke="#666666" points="230.62,-56.25 172.62,-56.25 172.62,-37 230.62,-37 230.62,-56.25"/>
<text text-anchor="middle" x="201.62" y="-42.75" font-family="Helvetica,sans-Serif" font-size="10.00">std::string</text>
</a>
</g>
</g>
<!-- Node11&#45;&gt;Node1 -->
<g id="edge10_Node000001_Node000011" class="edge">
<title>Node11&#45;&gt;Node1</title>
<g id="a_edge10_Node000001_Node000011"><a xlink:title=" ">
<path fill="none" stroke="#9a32cd" stroke-dasharray="5,2" d="M242.35,-44.72C278.22,-45.05 330.64,-50.89 366,-78.38 409.8,-112.42 426.01,-182.49 430.67,-208.56"/>
<polygon fill="#9a32cd" stroke="#9a32cd" points="242.36,-41.22 232.38,-44.78 242.41,-48.22 242.36,-41.22"/>
</a>
</g>
<text text-anchor="middle" x="328.88" y="-80.12" font-family="Helvetica,sans-Serif" font-size="10.00" fill="grey"> fLogFile</text>
</g>
<!-- Node12 -->
<g id="Node000012" class="node">
<title>Node12</title>
<g id="a_Node000012"><a xlink:title=" ">
<polygon fill="white" stroke="#666666" points="92.5,-61.88 0,-61.88 0,-31.38 92.5,-31.38 92.5,-61.88"/>
<text text-anchor="start" x="8" y="-48.38" font-family="Helvetica,sans-Serif" font-size="10.00">std::basic_string&lt;</text>
<text text-anchor="middle" x="46.25" y="-37.12" font-family="Helvetica,sans-Serif" font-size="10.00"> Char &gt;</text>
</a>
</g>
</g>
<!-- Node12&#45;&gt;Node11 -->
<g id="edge11_Node000011_Node000012" class="edge">
<title>Node12&#45;&gt;Node11</title>
<g id="a_edge11_Node000011_Node000012"><a xlink:title=" ">
<path fill="none" stroke="#63b8ff" d="M104.34,-46.62C127.53,-46.62 153.28,-46.62 172.31,-46.62"/>
<polygon fill="#63b8ff" stroke="#63b8ff" points="104.37,-43.13 94.37,-46.63 104.37,-50.13 104.37,-43.13"/>
</a>
</g>
</g>
<!-- Node13 -->
<g id="Node000013" class="node">
<title>Node13</title>
<g id="a_Node000013"><a xlink:href="class_t_redirect.html" target="_top" xlink:title=" ">
<polygon fill="white" stroke="#666666" points="230.62,-19.25 172.62,-19.25 172.62,0 230.62,0 230.62,-19.25"/>
<text text-anchor="middle" x="201.62" y="-5.75" font-family="Helvetica,sans-Serif" font-size="10.00">TRedirect</text>
</a>
</g>
</g>
<!-- Node13&#45;&gt;Node1 -->
<g id="edge12_Node000001_Node000013" class="edge">
<title>Node13&#45;&gt;Node1</title>
<g id="a_edge12_Node000001_Node000013"><a xlink:title=" ">
<path fill="none" stroke="#9a32cd" stroke-dasharray="5,2" d="M242.02,-4.71C278.23,-2.43 331.37,-5.04 366,-33.38 422.3,-79.45 430.78,-177.1 432.04,-208.6"/>
<polygon fill="#9a32cd" stroke="#9a32cd" points="242.11,-1.19 232.42,-5.47 242.66,-8.17 242.11,-1.19"/>
</a>
</g>
<text text-anchor="middle" x="328.88" y="-35.12" font-family="Helvetica,sans-Serif" font-size="10.00" fill="grey"> fRedirect</text>
</g>
</g>
</svg>
