<?xml version="1.0" encoding="UTF-8" standalone="no"?>
<!DOCTYPE svg PUBLIC "-//W3C//DTD SVG 1.1//EN"
 "http://www.w3.org/Graphics/SVG/1.1/DTD/svg11.dtd">
<!-- Generated by graphviz version 12.2.0 (20241103.1931)
 -->
<!-- Title: TLaBrBgoHit Pages: 1 -->
<svg width="81pt" height="193pt"
 viewBox="0.00 0.00 81.00 193.00" xmlns="http://www.w3.org/2000/svg" xmlns:xlink="http://www.w3.org/1999/xlink">
<g id="graph0" class="graph" transform="scale(1 1) rotate(0) translate(4 189)">
<title>TLaBrBgoHit</title>
<!-- Node1 -->
<g id="Node000001" class="node">
<title>Node1</title>
<g id="a_Node000001"><a xlink:title=" ">
<polygon fill="#999999" stroke="#666666" points="73,-19.25 0,-19.25 0,0 73,0 73,-19.25"/>
<text text-anchor="middle" x="36.5" y="-5.75" font-family="Helvetica,sans-Serif" font-size="10.00">TLaBrBgoHit</text>
</a>
</g>
</g>
<!-- Node2 -->
<g id="Node000002" class="node">
<title>Node2</title>
<g id="a_Node000002"><a xlink:href="class_t_bgo_hit.html" target="_top" xlink:title=" ">
<polygon fill="white" stroke="#666666" points="62.5,-74.5 10.5,-74.5 10.5,-55.25 62.5,-55.25 62.5,-74.5"/>
<text text-anchor="middle" x="36.5" y="-61" font-family="Helvetica,sans-Serif" font-size="10.00">TBgoHit</text>
</a>
</g>
</g>
<!-- Node2&#45;&gt;Node1 -->
<g id="edge1_Node000001_Node000002" class="edge">
<title>Node2&#45;&gt;Node1</title>
<g id="a_edge1_Node000001_Node000002"><a xlink:title=" ">
<path fill="none" stroke="#63b8ff" d="M36.5,-43.63C36.5,-35.34 36.5,-26.17 36.5,-19.61"/>
<polygon fill="#63b8ff" stroke="#63b8ff" points="33,-43.57 36.5,-53.57 40,-43.57 33,-43.57"/>
</a>
</g>
</g>
<!-- Node3 -->
<g id="Node000003" class="node">
<title>Node3</title>
<g id="a_Node000003"><a xlink:href="class_t_detector_hit.html" target="_top" xlink:title=" ">
<polygon fill="white" stroke="#666666" points="72.25,-129.75 0.75,-129.75 0.75,-110.5 72.25,-110.5 72.25,-129.75"/>
<text text-anchor="middle" x="36.5" y="-116.25" font-family="Helvetica,sans-Serif" font-size="10.00">TDetectorHit</text>
</a>
</g>
</g>
<!-- Node3&#45;&gt;Node2 -->
<g id="edge2_Node000002_Node000003" class="edge">
<title>Node3&#45;&gt;Node2</title>
<g id="a_edge2_Node000002_Node000003"><a xlink:title=" ">
<path fill="none" stroke="#63b8ff" d="M36.5,-98.88C36.5,-90.59 36.5,-81.42 36.5,-74.86"/>
<polygon fill="#63b8ff" stroke="#63b8ff" points="33,-98.82 36.5,-108.82 40,-98.82 33,-98.82"/>
</a>
</g>
</g>
<!-- Node4 -->
<g id="Node000004" class="node">
<title>Node4</title>
<g id="a_Node000004"><a xlink:title=" ">
<polygon fill="white" stroke="#666666" points="61.75,-185 11.25,-185 11.25,-165.75 61.75,-165.75 61.75,-185"/>
<text text-anchor="middle" x="36.5" y="-171.5" font-family="Helvetica,sans-Serif" font-size="10.00">TObject</text>
</a>
</g>
</g>
<!-- Node4&#45;&gt;Node3 -->
<g id="edge3_Node000003_Node000004" class="edge">
<title>Node4&#45;&gt;Node3</title>
<g id="a_edge3_Node000003_Node000004"><a xlink:title=" ">
<path fill="none" stroke="#63b8ff" d="M36.5,-154.13C36.5,-145.84 36.5,-136.67 36.5,-130.11"/>
<polygon fill="#63b8ff" stroke="#63b8ff" points="33,-154.07 36.5,-164.07 40,-154.07 33,-154.07"/>
</a>
</g>
</g>
</g>
</svg>
