<?xml version="1.0" encoding="UTF-8" standalone="no"?>
<!DOCTYPE svg PUBLIC "-//W3C//DTD SVG 1.1//EN"
 "http://www.w3.org/Graphics/SVG/1.1/DTD/svg11.dtd">
<!-- Generated by graphviz version 9.0.0 (20230911.1827)
 -->
<!-- Title: TGRSIAnalysis Pages: 1 -->
<svg width="1472pt" height="127pt"
 viewBox="0.00 0.00 1472.00 127.45" xmlns="http://www.w3.org/2000/svg" xmlns:xlink="http://www.w3.org/1999/xlink">
<g id="graph0" class="graph" transform="scale(1 1) rotate(0) translate(4 123.45)">
<title>TGRSIAnalysis</title>
<g id="clust1" class="cluster">
<title>clusterdir_04ded5cb9506aadc0b6d1c08d3b0ca72</title>
<g id="a_clust1"><a xlink:href="dir_04ded5cb9506aadc0b6d1c08d3b0ca72.html" target="_top" xlink:title="libraries">
<polygon fill="#edf0f7" stroke="#7f7f7f" stroke-dasharray="5,2" points="8,-40.95 8,-111.45 1456,-111.45 1456,-40.95 8,-40.95"/>
<text text-anchor="middle" x="732" y="-97.95" font-family="Helvetica,sans-Serif" font-size="10.00">libraries</text>
</a>
</g>
</g>
<g id="clust2" class="cluster">
<title>clusterdir_f1ca9974b6d60d8551858194bc4a7b28</title>
<g id="a_clust2"><a xlink:href="dir_f1ca9974b6d60d8551858194bc4a7b28.html" target="_top">
<polygon fill="#edf0f7" stroke="#404040" stroke-width="2" points="16,-48.95 16,-84.2 1448,-84.2 1448,-48.95 16,-48.95"/>
</a>
</g>
</g>
<!-- dir_f1ca9974b6d60d8551858194bc4a7b28 -->
<g id="node1" class="node">
<title>dir_f1ca9974b6d60d8551858194bc4a7b28</title>
<text text-anchor="middle" x="1399" y="-62.7" font-family="Helvetica,sans-Serif" font-size="10.00">TGRSIAnalysis</text>
</g>
<!-- dir_7c637f2c38aea748f009e26d5869f12c -->
<g id="node2" class="node">
<title>dir_7c637f2c38aea748f009e26d5869f12c</title>
<g id="a_node2"><a xlink:href="dir_7c637f2c38aea748f009e26d5869f12c.html" target="_top" xlink:title="TAngularCorrelation">
<polygon fill="#a2b4d6" stroke="#404040" points="239.75,-76.2 138.25,-76.2 138.25,-56.95 239.75,-56.95 239.75,-76.2"/>
<text text-anchor="middle" x="189" y="-62.7" font-family="Helvetica,sans-Serif" font-size="10.00">TAngularCorrelation</text>
</a>
</g>
</g>
<!-- dir_c355ed69a9ff804c1251ec805b2844ab -->
<g id="node21" class="node">
<title>dir_c355ed69a9ff804c1251ec805b2844ab</title>
<g id="a_node21"><a xlink:href="dir_c355ed69a9ff804c1251ec805b2844ab.html" target="_top" xlink:title="include">
<polygon fill="#edf0f7" stroke="#7f7f7f" points="722.38,-20.95 675.62,-20.95 675.62,-1.7 722.38,-1.7 722.38,-20.95"/>
<text text-anchor="middle" x="699" y="-7.45" font-family="Helvetica,sans-Serif" font-size="10.00">include</text>
</a>
</g>
</g>
<!-- dir_7c637f2c38aea748f009e26d5869f12c&#45;&gt;dir_c355ed69a9ff804c1251ec805b2844ab -->
<g id="edge1" class="edge">
<title>dir_7c637f2c38aea748f009e26d5869f12c&#45;&gt;dir_c355ed69a9ff804c1251ec805b2844ab</title>
<g id="a_edge1"><a xlink:href="dir_000029_000010.html" target="_top">
<path fill="none" stroke="#63b8ff" d="M206.61,-56.56C218.31,-51.02 234.19,-44.36 249,-40.95 327.76,-22.8 572.21,-15.31 663.84,-13.08"/>
<polygon fill="#63b8ff" stroke="#63b8ff" points="663.8,-16.59 673.72,-12.85 663.64,-9.59 663.8,-16.59"/>
</a>
</g>
<g id="a_edge1&#45;headlabel"><a xlink:href="dir_000029_000010.html" target="_top" xlink:title="2">
<text text-anchor="middle" x="661.79" y="-15.6" font-family="Helvetica,sans-Serif" font-size="10.00" fill="#63b8ff">2</text>
</a>
</g>
</g>
<!-- dir_12553313af44d73e96f5a41551948ad9 -->
<g id="node3" class="node">
<title>dir_12553313af44d73e96f5a41551948ad9</title>
<g id="a_node3"><a xlink:href="dir_12553313af44d73e96f5a41551948ad9.html" target="_top" xlink:title="TCSM">
<polygon fill="#a2b4d6" stroke="#404040" points="119.88,-76.2 76.12,-76.2 76.12,-56.95 119.88,-56.95 119.88,-76.2"/>
<text text-anchor="middle" x="98" y="-62.7" font-family="Helvetica,sans-Serif" font-size="10.00">TCSM</text>
</a>
</g>
</g>
<!-- dir_12553313af44d73e96f5a41551948ad9&#45;&gt;dir_c355ed69a9ff804c1251ec805b2844ab -->
<g id="edge2" class="edge">
<title>dir_12553313af44d73e96f5a41551948ad9&#45;&gt;dir_c355ed69a9ff804c1251ec805b2844ab</title>
<g id="a_edge2"><a xlink:href="dir_000033_000010.html" target="_top">
<path fill="none" stroke="#63b8ff" d="M106.28,-56.59C112.05,-50.99 120.25,-44.25 129,-40.95 178.86,-22.14 547.47,-14.73 663.88,-12.84"/>
<polygon fill="#63b8ff" stroke="#63b8ff" points="663.81,-16.34 673.75,-12.68 663.7,-9.34 663.81,-16.34"/>
</a>
</g>
<g id="a_edge2&#45;headlabel"><a xlink:href="dir_000033_000010.html" target="_top" xlink:title="2">
<text text-anchor="middle" x="661.77" y="-15.34" font-family="Helvetica,sans-Serif" font-size="10.00" fill="#63b8ff">2</text>
</a>
</g>
</g>
<!-- dir_3255d4326b963e3cb310054928d3057b -->
<g id="node4" class="node">
<title>dir_3255d4326b963e3cb310054928d3057b</title>
<g id="a_node4"><a xlink:href="dir_3255d4326b963e3cb310054928d3057b.html" target="_top" xlink:title="TDescant">
<polygon fill="#a2b4d6" stroke="#404040" points="383,-76.2 325,-76.2 325,-56.95 383,-56.95 383,-76.2"/>
<text text-anchor="middle" x="354" y="-62.7" font-family="Helvetica,sans-Serif" font-size="10.00">TDescant</text>
</a>
</g>
</g>
<!-- dir_3255d4326b963e3cb310054928d3057b&#45;&gt;dir_c355ed69a9ff804c1251ec805b2844ab -->
<g id="edge3" class="edge">
<title>dir_3255d4326b963e3cb310054928d3057b&#45;&gt;dir_c355ed69a9ff804c1251ec805b2844ab</title>
<g id="a_edge3"><a xlink:href="dir_000035_000010.html" target="_top">
<path fill="none" stroke="#63b8ff" d="M364.88,-56.48C372.1,-50.99 382.05,-44.4 392,-40.95 441.48,-23.78 594.69,-16.13 664.14,-13.48"/>
<polygon fill="#63b8ff" stroke="#63b8ff" points="663.94,-16.99 673.8,-13.13 663.68,-10 663.94,-16.99"/>
</a>
</g>
<g id="a_edge3&#45;headlabel"><a xlink:href="dir_000035_000010.html" target="_top" xlink:title="4">
<text text-anchor="middle" x="661.96" y="-16.03" font-family="Helvetica,sans-Serif" font-size="10.00" fill="#63b8ff">4</text>
</a>
</g>
</g>
<!-- dir_d44c64559bbebec7f509842c48db8b23 -->
<g id="node22" class="node">
<title>dir_d44c64559bbebec7f509842c48db8b23</title>
<g id="a_node22"><a xlink:href="dir_d44c64559bbebec7f509842c48db8b23.html" target="_top" xlink:title="include">
<polygon fill="#edf0f7" stroke="#404040" points="841.38,-20.95 794.62,-20.95 794.62,-1.7 841.38,-1.7 841.38,-20.95"/>
<text text-anchor="middle" x="818" y="-7.45" font-family="Helvetica,sans-Serif" font-size="10.00">include</text>
</a>
</g>
</g>
<!-- dir_3255d4326b963e3cb310054928d3057b&#45;&gt;dir_d44c64559bbebec7f509842c48db8b23 -->
<g id="edge4" class="edge">
<title>dir_3255d4326b963e3cb310054928d3057b&#45;&gt;dir_d44c64559bbebec7f509842c48db8b23</title>
<g id="a_edge4"><a xlink:href="dir_000035_000013.html" target="_top">
<path fill="none" stroke="#63b8ff" d="M364.52,-56.61C371.75,-51.02 381.84,-44.28 392,-40.95 463.71,-17.43 655.77,-26.89 731,-20.95 748.12,-19.6 767.11,-17.75 782.96,-16.12"/>
<polygon fill="#63b8ff" stroke="#63b8ff" points="783.3,-19.6 792.89,-15.08 782.57,-12.64 783.3,-19.6"/>
</a>
</g>
<g id="a_edge4&#45;headlabel"><a xlink:href="dir_000035_000013.html" target="_top" xlink:title="6">
<text text-anchor="middle" x="781.53" y="-18.77" font-family="Helvetica,sans-Serif" font-size="10.00" fill="#63b8ff">6</text>
</a>
</g>
</g>
<!-- dir_20aa1809d84b5df61f0e44e26c457914 -->
<g id="node5" class="node">
<title>dir_20aa1809d84b5df61f0e44e26c457914</title>
<g id="a_node5"><a xlink:href="dir_20aa1809d84b5df61f0e44e26c457914.html" target="_top" xlink:title="TEmma">
<polygon fill="#a2b4d6" stroke="#404040" points="1339.88,-76.2 1290.12,-76.2 1290.12,-56.95 1339.88,-56.95 1339.88,-76.2"/>
<text text-anchor="middle" x="1315" y="-62.7" font-family="Helvetica,sans-Serif" font-size="10.00">TEmma</text>
</a>
</g>
</g>
<!-- dir_20aa1809d84b5df61f0e44e26c457914&#45;&gt;dir_c355ed69a9ff804c1251ec805b2844ab -->
<g id="edge5" class="edge">
<title>dir_20aa1809d84b5df61f0e44e26c457914&#45;&gt;dir_c355ed69a9ff804c1251ec805b2844ab</title>
<g id="a_edge5"><a xlink:href="dir_000039_000010.html" target="_top">
<path fill="none" stroke="#63b8ff" d="M1305.77,-56.55C1299.38,-50.94 1290.37,-44.19 1281,-40.95 1228.99,-22.92 840.91,-24.78 786,-20.95 768.87,-19.75 749.88,-17.93 734.03,-16.27"/>
<polygon fill="#63b8ff" stroke="#63b8ff" points="734.42,-12.79 724.11,-15.2 733.67,-19.75 734.42,-12.79"/>
</a>
</g>
<g id="a_edge5&#45;headlabel"><a xlink:href="dir_000039_000010.html" target="_top" xlink:title="3">
<text text-anchor="middle" x="736.79" y="-6.31" font-family="Helvetica,sans-Serif" font-size="10.00" fill="#63b8ff">3</text>
</a>
</g>
</g>
<!-- dir_20aa1809d84b5df61f0e44e26c457914&#45;&gt;dir_d44c64559bbebec7f509842c48db8b23 -->
<g id="edge6" class="edge">
<title>dir_20aa1809d84b5df61f0e44e26c457914&#45;&gt;dir_d44c64559bbebec7f509842c48db8b23</title>
<g id="a_edge6"><a xlink:href="dir_000039_000013.html" target="_top">
<path fill="none" stroke="#63b8ff" d="M1305.74,-56.62C1299.34,-51.03 1290.33,-44.29 1281,-40.95 1202.38,-12.76 947.24,-11.46 853.21,-11.98"/>
<polygon fill="#63b8ff" stroke="#63b8ff" points="853.3,-8.48 843.32,-12.05 853.34,-15.48 853.3,-8.48"/>
</a>
</g>
<g id="a_edge6&#45;headlabel"><a xlink:href="dir_000039_000013.html" target="_top" xlink:title="1">
<text text-anchor="middle" x="855.36" y="-1.75" font-family="Helvetica,sans-Serif" font-size="10.00" fill="#63b8ff">1</text>
</a>
</g>
</g>
<!-- dir_96a286c95e152dc84501dde3344e48b1 -->
<g id="node6" class="node">
<title>dir_96a286c95e152dc84501dde3344e48b1</title>
<g id="a_node6"><a xlink:href="dir_96a286c95e152dc84501dde3344e48b1.html" target="_top" xlink:title="TGenericDetector">
<polygon fill="#a2b4d6" stroke="#404040" points="1272.25,-76.2 1179.75,-76.2 1179.75,-56.95 1272.25,-56.95 1272.25,-76.2"/>
<text text-anchor="middle" x="1226" y="-62.7" font-family="Helvetica,sans-Serif" font-size="10.00">TGenericDetector</text>
</a>
</g>
</g>
<!-- dir_96a286c95e152dc84501dde3344e48b1&#45;&gt;dir_c355ed69a9ff804c1251ec805b2844ab -->
<g id="edge7" class="edge">
<title>dir_96a286c95e152dc84501dde3344e48b1&#45;&gt;dir_c355ed69a9ff804c1251ec805b2844ab</title>
<g id="a_edge7"><a xlink:href="dir_000045_000010.html" target="_top">
<path fill="none" stroke="#63b8ff" d="M1209.89,-56.61C1198.98,-51.03 1184.05,-44.29 1170,-40.95 1086.86,-21.21 871.21,-27.39 786,-20.95 768.87,-19.65 749.89,-17.82 734.04,-16.17"/>
<polygon fill="#63b8ff" stroke="#63b8ff" points="734.42,-12.7 724.11,-15.12 733.69,-19.66 734.42,-12.7"/>
</a>
</g>
<g id="a_edge7&#45;headlabel"><a xlink:href="dir_000045_000010.html" target="_top" xlink:title="1">
<text text-anchor="middle" x="736.79" y="-6.22" font-family="Helvetica,sans-Serif" font-size="10.00" fill="#63b8ff">1</text>
</a>
</g>
</g>
<!-- dir_96a286c95e152dc84501dde3344e48b1&#45;&gt;dir_d44c64559bbebec7f509842c48db8b23 -->
<g id="edge8" class="edge">
<title>dir_96a286c95e152dc84501dde3344e48b1&#45;&gt;dir_d44c64559bbebec7f509842c48db8b23</title>
<g id="a_edge8"><a xlink:href="dir_000045_000013.html" target="_top">
<path fill="none" stroke="#63b8ff" d="M1209.37,-56.5C1198.49,-51.02 1183.8,-44.44 1170,-40.95 1110.61,-25.93 929.49,-16.92 852.85,-13.68"/>
<polygon fill="#63b8ff" stroke="#63b8ff" points="853.13,-10.19 842.99,-13.28 852.84,-17.19 853.13,-10.19"/>
</a>
</g>
<g id="a_edge8&#45;headlabel"><a xlink:href="dir_000045_000013.html" target="_top" xlink:title="1">
<text text-anchor="middle" x="855.32" y="-3.57" font-family="Helvetica,sans-Serif" font-size="10.00" fill="#63b8ff">1</text>
</a>
</g>
</g>
<!-- dir_4d7a83305960b64d8c07c7efbf543e1a -->
<g id="node7" class="node">
<title>dir_4d7a83305960b64d8c07c7efbf543e1a</title>
<g id="a_node7"><a xlink:href="dir_4d7a83305960b64d8c07c7efbf543e1a.html" target="_top" xlink:title="TGriffin">
<polygon fill="#a2b4d6" stroke="#404040" points="1161.38,-76.2 1114.62,-76.2 1114.62,-56.95 1161.38,-56.95 1161.38,-76.2"/>
<text text-anchor="middle" x="1138" y="-62.7" font-family="Helvetica,sans-Serif" font-size="10.00">TGriffin</text>
</a>
</g>
</g>
<!-- dir_4d7a83305960b64d8c07c7efbf543e1a&#45;&gt;dir_c355ed69a9ff804c1251ec805b2844ab -->
<g id="edge9" class="edge">
<title>dir_4d7a83305960b64d8c07c7efbf543e1a&#45;&gt;dir_c355ed69a9ff804c1251ec805b2844ab</title>
<g id="a_edge9"><a xlink:href="dir_000046_000010.html" target="_top">
<path fill="none" stroke="#63b8ff" d="M1129.38,-56.62C1123.4,-51.04 1114.93,-44.3 1106,-40.95 1039.3,-15.91 857.02,-26.69 786,-20.95 768.88,-19.57 749.9,-17.72 734.04,-16.09"/>
<polygon fill="#63b8ff" stroke="#63b8ff" points="734.43,-12.61 724.12,-15.06 733.7,-19.57 734.43,-12.61"/>
</a>
</g>
<g id="a_edge9&#45;headlabel"><a xlink:href="dir_000046_000010.html" target="_top" xlink:title="7">
<text text-anchor="middle" x="736.79" y="-6.13" font-family="Helvetica,sans-Serif" font-size="10.00" fill="#63b8ff">7</text>
</a>
</g>
</g>
<!-- dir_4d7a83305960b64d8c07c7efbf543e1a&#45;&gt;dir_d44c64559bbebec7f509842c48db8b23 -->
<g id="edge10" class="edge">
<title>dir_4d7a83305960b64d8c07c7efbf543e1a&#45;&gt;dir_d44c64559bbebec7f509842c48db8b23</title>
<g id="a_edge10"><a xlink:href="dir_000046_000013.html" target="_top">
<path fill="none" stroke="#63b8ff" d="M1129.07,-56.48C1123.09,-51 1114.73,-44.41 1106,-40.95 1060.82,-23.03 919.45,-15.85 853.08,-13.41"/>
<polygon fill="#63b8ff" stroke="#63b8ff" points="853.23,-9.91 843.11,-13.06 852.98,-16.91 853.23,-9.91"/>
</a>
</g>
<g id="a_edge10&#45;headlabel"><a xlink:href="dir_000046_000013.html" target="_top" xlink:title="6">
<text text-anchor="middle" x="855.41" y="-3.27" font-family="Helvetica,sans-Serif" font-size="10.00" fill="#63b8ff">6</text>
</a>
</g>
</g>
<!-- dir_19584bb47928904ee352adb90b980c09 -->
<g id="node8" class="node">
<title>dir_19584bb47928904ee352adb90b980c09</title>
<g id="a_node8"><a xlink:href="dir_19584bb47928904ee352adb90b980c09.html" target="_top" xlink:title="TLaBr">
<polygon fill="#a2b4d6" stroke="#404040" points="1096.5,-76.2 1053.5,-76.2 1053.5,-56.95 1096.5,-56.95 1096.5,-76.2"/>
<text text-anchor="middle" x="1075" y="-62.7" font-family="Helvetica,sans-Serif" font-size="10.00">TLaBr</text>
</a>
</g>
</g>
<!-- dir_19584bb47928904ee352adb90b980c09&#45;&gt;dir_c355ed69a9ff804c1251ec805b2844ab -->
<g id="edge11" class="edge">
<title>dir_19584bb47928904ee352adb90b980c09&#45;&gt;dir_c355ed69a9ff804c1251ec805b2844ab</title>
<g id="a_edge11"><a xlink:href="dir_000064_000010.html" target="_top">
<path fill="none" stroke="#63b8ff" d="M1067.01,-56.67C1061.44,-51.1 1053.5,-44.37 1045,-40.95 991.44,-19.42 843.5,-26.02 786,-20.95 768.89,-19.44 749.91,-17.58 734.05,-15.97"/>
<polygon fill="#63b8ff" stroke="#63b8ff" points="734.43,-12.49 724.12,-14.96 733.72,-19.46 734.43,-12.49"/>
</a>
</g>
<g id="a_edge11&#45;headlabel"><a xlink:href="dir_000064_000010.html" target="_top" xlink:title="5">
<text text-anchor="middle" x="736.79" y="-6.01" font-family="Helvetica,sans-Serif" font-size="10.00" fill="#63b8ff">5</text>
</a>
</g>
</g>
<!-- dir_19584bb47928904ee352adb90b980c09&#45;&gt;dir_d44c64559bbebec7f509842c48db8b23 -->
<g id="edge12" class="edge">
<title>dir_19584bb47928904ee352adb90b980c09&#45;&gt;dir_d44c64559bbebec7f509842c48db8b23</title>
<g id="a_edge12"><a xlink:href="dir_000064_000013.html" target="_top">
<path fill="none" stroke="#63b8ff" d="M1066.95,-56.8C1061.36,-51.29 1053.42,-44.57 1045,-40.95 1011.26,-26.43 907.81,-17.95 852.97,-14.36"/>
<polygon fill="#63b8ff" stroke="#63b8ff" points="853.44,-10.88 843.24,-13.74 853,-17.87 853.44,-10.88"/>
</a>
</g>
<g id="a_edge12&#45;headlabel"><a xlink:href="dir_000064_000013.html" target="_top" xlink:title="4">
<text text-anchor="middle" x="855.7" y="-4.31" font-family="Helvetica,sans-Serif" font-size="10.00" fill="#63b8ff">4</text>
</a>
</g>
</g>
<!-- dir_cc71cf65fdf8fb611fc39d2104e00889 -->
<g id="node9" class="node">
<title>dir_cc71cf65fdf8fb611fc39d2104e00889</title>
<g id="a_node9"><a xlink:href="dir_cc71cf65fdf8fb611fc39d2104e00889.html" target="_top" xlink:title="TPaces">
<polygon fill="#a2b4d6" stroke="#404040" points="1035.88,-76.2 986.12,-76.2 986.12,-56.95 1035.88,-56.95 1035.88,-76.2"/>
<text text-anchor="middle" x="1011" y="-62.7" font-family="Helvetica,sans-Serif" font-size="10.00">TPaces</text>
</a>
</g>
</g>
<!-- dir_cc71cf65fdf8fb611fc39d2104e00889&#45;&gt;dir_c355ed69a9ff804c1251ec805b2844ab -->
<g id="edge13" class="edge">
<title>dir_cc71cf65fdf8fb611fc39d2104e00889&#45;&gt;dir_c355ed69a9ff804c1251ec805b2844ab</title>
<g id="a_edge13"><a xlink:href="dir_000070_000010.html" target="_top">
<path fill="none" stroke="#63b8ff" d="M1001.41,-56.5C995.01,-51.02 986.12,-44.43 977,-40.95 974.18,-39.87 807.2,-23.12 733.42,-15.75"/>
<polygon fill="#63b8ff" stroke="#63b8ff" points="734.22,-12.31 723.92,-14.8 733.52,-19.28 734.22,-12.31"/>
</a>
</g>
<g id="a_edge13&#45;headlabel"><a xlink:href="dir_000070_000010.html" target="_top" xlink:title="3">
<text text-anchor="middle" x="736.57" y="-5.82" font-family="Helvetica,sans-Serif" font-size="10.00" fill="#63b8ff">3</text>
</a>
</g>
</g>
<!-- dir_cc71cf65fdf8fb611fc39d2104e00889&#45;&gt;dir_d44c64559bbebec7f509842c48db8b23 -->
<g id="edge14" class="edge">
<title>dir_cc71cf65fdf8fb611fc39d2104e00889&#45;&gt;dir_d44c64559bbebec7f509842c48db8b23</title>
<g id="a_edge14"><a xlink:href="dir_000070_000013.html" target="_top">
<path fill="none" stroke="#63b8ff" d="M1001.03,-56.49C994.61,-51.15 985.85,-44.72 977,-40.95 936.66,-23.78 886.31,-16.9 853.21,-14.15"/>
<polygon fill="#63b8ff" stroke="#63b8ff" points="853.58,-10.67 843.35,-13.43 853.07,-17.65 853.58,-10.67"/>
</a>
</g>
<g id="a_edge14&#45;headlabel"><a xlink:href="dir_000070_000013.html" target="_top" xlink:title="1">
<text text-anchor="middle" x="855.87" y="-4.12" font-family="Helvetica,sans-Serif" font-size="10.00" fill="#63b8ff">1</text>
</a>
</g>
</g>
<!-- dir_a3742f42c59f9008c555307cd0d941bd -->
<g id="node10" class="node">
<title>dir_a3742f42c59f9008c555307cd0d941bd</title>
<g id="a_node10"><a xlink:href="dir_a3742f42c59f9008c555307cd0d941bd.html" target="_top" xlink:title="TRF">
<polygon fill="#a2b4d6" stroke="#404040" points="58.38,-76.2 23.62,-76.2 23.62,-56.95 58.38,-56.95 58.38,-76.2"/>
<text text-anchor="middle" x="41" y="-62.7" font-family="Helvetica,sans-Serif" font-size="10.00">TRF</text>
</a>
</g>
</g>
<!-- dir_a3742f42c59f9008c555307cd0d941bd&#45;&gt;dir_c355ed69a9ff804c1251ec805b2844ab -->
<g id="edge15" class="edge">
<title>dir_a3742f42c59f9008c555307cd0d941bd&#45;&gt;dir_c355ed69a9ff804c1251ec805b2844ab</title>
<g id="a_edge15"><a xlink:href="dir_000076_000010.html" target="_top">
<path fill="none" stroke="#63b8ff" d="M47.65,-56.59C52.37,-51 59.22,-44.25 67,-40.95 121.91,-17.62 538.83,-13.27 663.74,-12.49"/>
<polygon fill="#63b8ff" stroke="#63b8ff" points="663.73,-15.99 673.71,-12.43 663.69,-8.99 663.73,-15.99"/>
</a>
</g>
<g id="a_edge15&#45;headlabel"><a xlink:href="dir_000076_000010.html" target="_top" xlink:title="1">
<text text-anchor="middle" x="661.67" y="-14.97" font-family="Helvetica,sans-Serif" font-size="10.00" fill="#63b8ff">1</text>
</a>
</g>
</g>
<!-- dir_4d99cfd5505f921b61c4eae3c76dc75f -->
<g id="node11" class="node">
<title>dir_4d99cfd5505f921b61c4eae3c76dc75f</title>
<g id="a_node11"><a xlink:href="dir_4d99cfd5505f921b61c4eae3c76dc75f.html" target="_top" xlink:title="TS3">
<polygon fill="#a2b4d6" stroke="#404040" points="968,-76.2 934,-76.2 934,-56.95 968,-56.95 968,-76.2"/>
<text text-anchor="middle" x="951" y="-62.7" font-family="Helvetica,sans-Serif" font-size="10.00">TS3</text>
</a>
</g>
</g>
<!-- dir_4d99cfd5505f921b61c4eae3c76dc75f&#45;&gt;dir_c355ed69a9ff804c1251ec805b2844ab -->
<g id="edge16" class="edge">
<title>dir_4d99cfd5505f921b61c4eae3c76dc75f&#45;&gt;dir_c355ed69a9ff804c1251ec805b2844ab</title>
<g id="a_edge16"><a xlink:href="dir_000078_000010.html" target="_top">
<path fill="none" stroke="#63b8ff" d="M944.25,-56.8C939.5,-51.29 932.64,-44.57 925,-40.95 916.48,-36.91 795.14,-22.99 733.87,-16.16"/>
<polygon fill="#63b8ff" stroke="#63b8ff" points="734.3,-12.69 723.97,-15.07 733.53,-19.65 734.3,-12.69"/>
</a>
</g>
<g id="a_edge16&#45;headlabel"><a xlink:href="dir_000078_000010.html" target="_top" xlink:title="4">
<text text-anchor="middle" x="736.68" y="-6.22" font-family="Helvetica,sans-Serif" font-size="10.00" fill="#63b8ff">4</text>
</a>
</g>
</g>
<!-- dir_4d99cfd5505f921b61c4eae3c76dc75f&#45;&gt;dir_d44c64559bbebec7f509842c48db8b23 -->
<g id="edge17" class="edge">
<title>dir_4d99cfd5505f921b61c4eae3c76dc75f&#45;&gt;dir_d44c64559bbebec7f509842c48db8b23</title>
<g id="a_edge17"><a xlink:href="dir_000078_000013.html" target="_top">
<path fill="none" stroke="#63b8ff" d="M943.65,-56.66C938.85,-51.38 932.16,-44.95 925,-40.95 902.66,-28.46 874.63,-21.22 852.87,-17.15"/>
<polygon fill="#63b8ff" stroke="#63b8ff" points="853.75,-13.75 843.3,-15.5 852.56,-20.64 853.75,-13.75"/>
</a>
</g>
<g id="a_edge17&#45;headlabel"><a xlink:href="dir_000078_000013.html" target="_top" xlink:title="3">
<text text-anchor="middle" x="856.28" y="-7.43" font-family="Helvetica,sans-Serif" font-size="10.00" fill="#63b8ff">3</text>
</a>
</g>
</g>
<!-- dir_16b966a18393853074d5fe146ac33cca -->
<g id="node12" class="node">
<title>dir_16b966a18393853074d5fe146ac33cca</title>
<g id="a_node12"><a xlink:href="dir_16b966a18393853074d5fe146ac33cca.html" target="_top" xlink:title="TSceptar">
<polygon fill="#a2b4d6" stroke="#404040" points="915.88,-76.2 860.12,-76.2 860.12,-56.95 915.88,-56.95 915.88,-76.2"/>
<text text-anchor="middle" x="888" y="-62.7" font-family="Helvetica,sans-Serif" font-size="10.00">TSceptar</text>
</a>
</g>
</g>
<!-- dir_16b966a18393853074d5fe146ac33cca&#45;&gt;dir_c355ed69a9ff804c1251ec805b2844ab -->
<g id="edge18" class="edge">
<title>dir_16b966a18393853074d5fe146ac33cca&#45;&gt;dir_c355ed69a9ff804c1251ec805b2844ab</title>
<g id="a_edge18"><a xlink:href="dir_000079_000010.html" target="_top">
<path fill="none" stroke="#63b8ff" d="M877.01,-56.54C869.98,-51.22 860.43,-44.79 851,-40.95 812.74,-25.37 765.57,-18.18 734.02,-14.92"/>
<polygon fill="#63b8ff" stroke="#63b8ff" points="734.53,-11.45 724.25,-13.99 733.87,-18.42 734.53,-11.45"/>
</a>
</g>
<g id="a_edge18&#45;headlabel"><a xlink:href="dir_000079_000010.html" target="_top" xlink:title="3">
<text text-anchor="middle" x="736.87" y="-4.94" font-family="Helvetica,sans-Serif" font-size="10.00" fill="#63b8ff">3</text>
</a>
</g>
</g>
<!-- dir_16b966a18393853074d5fe146ac33cca&#45;&gt;dir_d44c64559bbebec7f509842c48db8b23 -->
<g id="edge19" class="edge">
<title>dir_16b966a18393853074d5fe146ac33cca&#45;&gt;dir_d44c64559bbebec7f509842c48db8b23</title>
<g id="a_edge19"><a xlink:href="dir_000079_000013.html" target="_top">
<path fill="none" stroke="#63b8ff" d="M876.13,-56.54C865.91,-48.77 850.93,-37.37 838.74,-28.1"/>
<polygon fill="#63b8ff" stroke="#63b8ff" points="840.98,-25.41 830.9,-22.14 836.74,-30.98 840.98,-25.41"/>
</a>
</g>
<g id="a_edge19&#45;headlabel"><a xlink:href="dir_000079_000013.html" target="_top" xlink:title="2">
<text text-anchor="middle" x="844.36" y="-20.53" font-family="Helvetica,sans-Serif" font-size="10.00" fill="#63b8ff">2</text>
</a>
</g>
</g>
<!-- dir_50352e263f8119c6746fa440b6a9cc8a -->
<g id="node13" class="node">
<title>dir_50352e263f8119c6746fa440b6a9cc8a</title>
<g id="a_node13"><a xlink:href="dir_50352e263f8119c6746fa440b6a9cc8a.html" target="_top" xlink:title="TSharc">
<polygon fill="#a2b4d6" stroke="#404040" points="841.75,-76.2 794.25,-76.2 794.25,-56.95 841.75,-56.95 841.75,-76.2"/>
<text text-anchor="middle" x="818" y="-62.7" font-family="Helvetica,sans-Serif" font-size="10.00">TSharc</text>
</a>
</g>
</g>
<!-- dir_50352e263f8119c6746fa440b6a9cc8a&#45;&gt;dir_c355ed69a9ff804c1251ec805b2844ab -->
<g id="edge20" class="edge">
<title>dir_50352e263f8119c6746fa440b6a9cc8a&#45;&gt;dir_c355ed69a9ff804c1251ec805b2844ab</title>
<g id="a_edge20"><a xlink:href="dir_000080_000010.html" target="_top">
<path fill="none" stroke="#63b8ff" d="M808.23,-56.65C802.18,-51.5 794.05,-45.21 786,-40.95 769.56,-32.24 749.97,-25.52 733.55,-20.78"/>
<polygon fill="#63b8ff" stroke="#63b8ff" points="734.8,-17.49 724.23,-18.22 732.94,-24.24 734.8,-17.49"/>
</a>
</g>
<g id="a_edge20&#45;headlabel"><a xlink:href="dir_000080_000010.html" target="_top" xlink:title="3">
<text text-anchor="middle" x="737.55" y="-11.43" font-family="Helvetica,sans-Serif" font-size="10.00" fill="#63b8ff">3</text>
</a>
</g>
</g>
<!-- dir_50352e263f8119c6746fa440b6a9cc8a&#45;&gt;dir_d44c64559bbebec7f509842c48db8b23 -->
<g id="edge21" class="edge">
<title>dir_50352e263f8119c6746fa440b6a9cc8a&#45;&gt;dir_d44c64559bbebec7f509842c48db8b23</title>
<g id="a_edge21"><a xlink:href="dir_000080_000013.html" target="_top">
<path fill="none" stroke="#63b8ff" d="M818,-56.78C818,-50.27 818,-41.12 818,-32.82"/>
<polygon fill="#63b8ff" stroke="#63b8ff" points="821.5,-32.82 818,-22.82 814.5,-32.82 821.5,-32.82"/>
</a>
</g>
<g id="a_edge21&#45;headlabel"><a xlink:href="dir_000080_000013.html" target="_top" xlink:title="2">
<text text-anchor="middle" x="824.34" y="-31.03" font-family="Helvetica,sans-Serif" font-size="10.00" fill="#63b8ff">2</text>
</a>
</g>
</g>
<!-- dir_e38e57e74a772ab572f3fbdd81260eb7 -->
<g id="node14" class="node">
<title>dir_e38e57e74a772ab572f3fbdd81260eb7</title>
<g id="a_node14"><a xlink:href="dir_e38e57e74a772ab572f3fbdd81260eb7.html" target="_top" xlink:title="TSiLi">
<polygon fill="#a2b4d6" stroke="#404040" points="776.62,-76.2 737.38,-76.2 737.38,-56.95 776.62,-56.95 776.62,-76.2"/>
<text text-anchor="middle" x="757" y="-62.7" font-family="Helvetica,sans-Serif" font-size="10.00">TSiLi</text>
</a>
</g>
</g>
<!-- dir_e38e57e74a772ab572f3fbdd81260eb7&#45;&gt;dir_c355ed69a9ff804c1251ec805b2844ab -->
<g id="edge22" class="edge">
<title>dir_e38e57e74a772ab572f3fbdd81260eb7&#45;&gt;dir_c355ed69a9ff804c1251ec805b2844ab</title>
<g id="a_edge22"><a xlink:href="dir_000081_000010.html" target="_top">
<path fill="none" stroke="#63b8ff" d="M747.16,-56.54C738.95,-49 727.02,-38.05 717.09,-28.93"/>
<polygon fill="#63b8ff" stroke="#63b8ff" points="719.54,-26.43 709.81,-22.25 714.81,-31.59 719.54,-26.43"/>
</a>
</g>
<g id="a_edge22&#45;headlabel"><a xlink:href="dir_000081_000010.html" target="_top" xlink:title="3">
<text text-anchor="middle" x="723" y="-21.87" font-family="Helvetica,sans-Serif" font-size="10.00" fill="#63b8ff">3</text>
</a>
</g>
</g>
<!-- dir_e38e57e74a772ab572f3fbdd81260eb7&#45;&gt;dir_d44c64559bbebec7f509842c48db8b23 -->
<g id="edge23" class="edge">
<title>dir_e38e57e74a772ab572f3fbdd81260eb7&#45;&gt;dir_d44c64559bbebec7f509842c48db8b23</title>
<g id="a_edge23"><a xlink:href="dir_000081_000013.html" target="_top">
<path fill="none" stroke="#63b8ff" d="M767.09,-56.67C772.41,-51.98 779.05,-46.14 785,-40.95 789.59,-36.94 794.56,-32.62 799.21,-28.58"/>
<polygon fill="#63b8ff" stroke="#63b8ff" points="801.17,-31.51 806.44,-22.32 796.59,-26.22 801.17,-31.51"/>
</a>
</g>
<g id="a_edge23&#45;headlabel"><a xlink:href="dir_000081_000013.html" target="_top" xlink:title="1">
<text text-anchor="middle" x="801.46" y="-31.15" font-family="Helvetica,sans-Serif" font-size="10.00" fill="#63b8ff">1</text>
</a>
</g>
</g>
<!-- dir_5f056cdb9dd74bb3611fd0eeba65134a -->
<g id="node15" class="node">
<title>dir_5f056cdb9dd74bb3611fd0eeba65134a</title>
<g id="a_node15"><a xlink:href="dir_5f056cdb9dd74bb3611fd0eeba65134a.html" target="_top" xlink:title="TTAC">
<polygon fill="#a2b4d6" stroke="#404040" points="719.75,-76.2 678.25,-76.2 678.25,-56.95 719.75,-56.95 719.75,-76.2"/>
<text text-anchor="middle" x="699" y="-62.7" font-family="Helvetica,sans-Serif" font-size="10.00">TTAC</text>
</a>
</g>
</g>
<!-- dir_5f056cdb9dd74bb3611fd0eeba65134a&#45;&gt;dir_c355ed69a9ff804c1251ec805b2844ab -->
<g id="edge24" class="edge">
<title>dir_5f056cdb9dd74bb3611fd0eeba65134a&#45;&gt;dir_c355ed69a9ff804c1251ec805b2844ab</title>
<g id="a_edge24"><a xlink:href="dir_000084_000010.html" target="_top">
<path fill="none" stroke="#63b8ff" d="M699,-56.78C699,-50.27 699,-41.12 699,-32.82"/>
<polygon fill="#63b8ff" stroke="#63b8ff" points="702.5,-32.82 699,-22.82 695.5,-32.82 702.5,-32.82"/>
</a>
</g>
<g id="a_edge24&#45;headlabel"><a xlink:href="dir_000084_000010.html" target="_top" xlink:title="3">
<text text-anchor="middle" x="705.34" y="-31.03" font-family="Helvetica,sans-Serif" font-size="10.00" fill="#63b8ff">3</text>
</a>
</g>
</g>
<!-- dir_5f056cdb9dd74bb3611fd0eeba65134a&#45;&gt;dir_d44c64559bbebec7f509842c48db8b23 -->
<g id="edge25" class="edge">
<title>dir_5f056cdb9dd74bb3611fd0eeba65134a&#45;&gt;dir_d44c64559bbebec7f509842c48db8b23</title>
<g id="a_edge25"><a xlink:href="dir_000084_000013.html" target="_top">
<path fill="none" stroke="#63b8ff" d="M707.45,-56.81C712.9,-51.59 720.37,-45.17 728,-40.95 745.29,-31.37 766.27,-24.46 783.61,-19.83"/>
<polygon fill="#63b8ff" stroke="#63b8ff" points="784.1,-23.32 792.94,-17.49 782.39,-16.53 784.1,-23.32"/>
</a>
</g>
<g id="a_edge25&#45;headlabel"><a xlink:href="dir_000084_000013.html" target="_top" xlink:title="1">
<text text-anchor="middle" x="782.77" y="-22.71" font-family="Helvetica,sans-Serif" font-size="10.00" fill="#63b8ff">1</text>
</a>
</g>
</g>
<!-- dir_d7ccf6c4ee2c5d49aa2ecef4d80cc5aa -->
<g id="node16" class="node">
<title>dir_d7ccf6c4ee2c5d49aa2ecef4d80cc5aa</title>
<g id="a_node16"><a xlink:href="dir_d7ccf6c4ee2c5d49aa2ecef4d80cc5aa.html" target="_top" xlink:title="TTigress">
<polygon fill="#a2b4d6" stroke="#404040" points="660.12,-76.2 605.88,-76.2 605.88,-56.95 660.12,-56.95 660.12,-76.2"/>
<text text-anchor="middle" x="633" y="-62.7" font-family="Helvetica,sans-Serif" font-size="10.00">TTigress</text>
</a>
</g>
</g>
<!-- dir_d7ccf6c4ee2c5d49aa2ecef4d80cc5aa&#45;&gt;dir_c355ed69a9ff804c1251ec805b2844ab -->
<g id="edge26" class="edge">
<title>dir_d7ccf6c4ee2c5d49aa2ecef4d80cc5aa&#45;&gt;dir_c355ed69a9ff804c1251ec805b2844ab</title>
<g id="a_edge26"><a xlink:href="dir_000093_000010.html" target="_top">
<path fill="none" stroke="#63b8ff" d="M644.2,-56.54C653.74,-48.84 667.67,-37.6 679.11,-28.37"/>
<polygon fill="#63b8ff" stroke="#63b8ff" points="681.21,-31.18 686.79,-22.17 676.81,-25.73 681.21,-31.18"/>
</a>
</g>
<g id="a_edge26&#45;headlabel"><a xlink:href="dir_000093_000010.html" target="_top" xlink:title="3">
<text text-anchor="middle" x="681.37" y="-30.82" font-family="Helvetica,sans-Serif" font-size="10.00" fill="#63b8ff">3</text>
</a>
</g>
</g>
<!-- dir_d7ccf6c4ee2c5d49aa2ecef4d80cc5aa&#45;&gt;dir_d44c64559bbebec7f509842c48db8b23 -->
<g id="edge27" class="edge">
<title>dir_d7ccf6c4ee2c5d49aa2ecef4d80cc5aa&#45;&gt;dir_d44c64559bbebec7f509842c48db8b23</title>
<g id="a_edge27"><a xlink:href="dir_000093_000013.html" target="_top">
<path fill="none" stroke="#63b8ff" d="M643.66,-56.54C650.49,-51.22 659.77,-44.79 669,-40.95 706.19,-25.45 752.13,-18.25 783.09,-14.97"/>
<polygon fill="#63b8ff" stroke="#63b8ff" points="783.05,-18.49 792.67,-14.04 782.37,-11.52 783.05,-18.49"/>
</a>
</g>
<g id="a_edge27&#45;headlabel"><a xlink:href="dir_000093_000013.html" target="_top" xlink:title="2">
<text text-anchor="middle" x="781.25" y="-17.64" font-family="Helvetica,sans-Serif" font-size="10.00" fill="#63b8ff">2</text>
</a>
</g>
</g>
<!-- dir_5e08983b1f3b33eef3f396fa87b3843f -->
<g id="node17" class="node">
<title>dir_5e08983b1f3b33eef3f396fa87b3843f</title>
<g id="a_node17"><a xlink:href="dir_5e08983b1f3b33eef3f396fa87b3843f.html" target="_top" xlink:title="TTip">
<polygon fill="#a2b4d6" stroke="#404040" points="587.75,-76.2 552.25,-76.2 552.25,-56.95 587.75,-56.95 587.75,-76.2"/>
<text text-anchor="middle" x="570" y="-62.7" font-family="Helvetica,sans-Serif" font-size="10.00">TTip</text>
</a>
</g>
</g>
<!-- dir_5e08983b1f3b33eef3f396fa87b3843f&#45;&gt;dir_c355ed69a9ff804c1251ec805b2844ab -->
<g id="edge28" class="edge">
<title>dir_5e08983b1f3b33eef3f396fa87b3843f&#45;&gt;dir_c355ed69a9ff804c1251ec805b2844ab</title>
<g id="a_edge28"><a xlink:href="dir_000094_000010.html" target="_top">
<path fill="none" stroke="#63b8ff" d="M577.71,-56.7C582.73,-51.43 589.68,-45.01 597,-40.95 617.94,-29.33 643.95,-22.13 664.47,-17.85"/>
<polygon fill="#63b8ff" stroke="#63b8ff" points="664.9,-21.34 674.05,-16 663.57,-14.46 664.9,-21.34"/>
</a>
</g>
<g id="a_edge28&#45;headlabel"><a xlink:href="dir_000094_000010.html" target="_top" xlink:title="3">
<text text-anchor="middle" x="663.39" y="-20.64" font-family="Helvetica,sans-Serif" font-size="10.00" fill="#63b8ff">3</text>
</a>
</g>
</g>
<!-- dir_5e08983b1f3b33eef3f396fa87b3843f&#45;&gt;dir_d44c64559bbebec7f509842c48db8b23 -->
<g id="edge29" class="edge">
<title>dir_5e08983b1f3b33eef3f396fa87b3843f&#45;&gt;dir_d44c64559bbebec7f509842c48db8b23</title>
<g id="a_edge29"><a xlink:href="dir_000094_000013.html" target="_top">
<path fill="none" stroke="#63b8ff" d="M577.08,-56.81C582.04,-51.3 589.17,-44.58 597,-40.95 613.5,-33.3 725,-21.44 783.04,-15.69"/>
<polygon fill="#63b8ff" stroke="#63b8ff" points="783.11,-19.2 792.72,-14.74 782.42,-12.23 783.11,-19.2"/>
</a>
</g>
<g id="a_edge29&#45;headlabel"><a xlink:href="dir_000094_000013.html" target="_top" xlink:title="1">
<text text-anchor="middle" x="781.31" y="-18.35" font-family="Helvetica,sans-Serif" font-size="10.00" fill="#63b8ff">1</text>
</a>
</g>
</g>
<!-- dir_2958022ccd904c4970b119e7b1daa5de -->
<g id="node18" class="node">
<title>dir_2958022ccd904c4970b119e7b1daa5de</title>
<g id="a_node18"><a xlink:href="dir_2958022ccd904c4970b119e7b1daa5de.html" target="_top" xlink:title="TTrific">
<polygon fill="#a2b4d6" stroke="#404040" points="534.5,-76.2 491.5,-76.2 491.5,-56.95 534.5,-56.95 534.5,-76.2"/>
<text text-anchor="middle" x="513" y="-62.7" font-family="Helvetica,sans-Serif" font-size="10.00">TTrific</text>
</a>
</g>
</g>
<!-- dir_2958022ccd904c4970b119e7b1daa5de&#45;&gt;dir_c355ed69a9ff804c1251ec805b2844ab -->
<g id="edge30" class="edge">
<title>dir_2958022ccd904c4970b119e7b1daa5de&#45;&gt;dir_c355ed69a9ff804c1251ec805b2844ab</title>
<g id="a_edge30"><a xlink:href="dir_000095_000010.html" target="_top">
<path fill="none" stroke="#63b8ff" d="M521.62,-56.47C527.21,-51.12 534.93,-44.69 543,-40.95 581.93,-22.89 631.28,-16.21 663.93,-13.75"/>
<polygon fill="#63b8ff" stroke="#63b8ff" points="663.9,-17.26 673.65,-13.11 663.44,-10.27 663.9,-17.26"/>
</a>
</g>
<g id="a_edge30&#45;headlabel"><a xlink:href="dir_000095_000010.html" target="_top" xlink:title="3">
<text text-anchor="middle" x="662" y="-16.35" font-family="Helvetica,sans-Serif" font-size="10.00" fill="#63b8ff">3</text>
</a>
</g>
</g>
<!-- dir_2958022ccd904c4970b119e7b1daa5de&#45;&gt;dir_d44c64559bbebec7f509842c48db8b23 -->
<g id="edge31" class="edge">
<title>dir_2958022ccd904c4970b119e7b1daa5de&#45;&gt;dir_d44c64559bbebec7f509842c48db8b23</title>
<g id="a_edge31"><a xlink:href="dir_000095_000013.html" target="_top">
<path fill="none" stroke="#63b8ff" d="M521.02,-56.74C526.61,-51.21 534.54,-44.48 543,-40.95 545.75,-39.8 709.49,-23.23 782.97,-15.84"/>
<polygon fill="#63b8ff" stroke="#63b8ff" points="783.26,-19.33 792.86,-14.85 782.56,-12.36 783.26,-19.33"/>
</a>
</g>
<g id="a_edge31&#45;headlabel"><a xlink:href="dir_000095_000013.html" target="_top" xlink:title="1">
<text text-anchor="middle" x="781.47" y="-18.49" font-family="Helvetica,sans-Serif" font-size="10.00" fill="#63b8ff">1</text>
</a>
</g>
</g>
<!-- dir_0750aac0d8bf2e4119c641f3efdb3d14 -->
<g id="node19" class="node">
<title>dir_0750aac0d8bf2e4119c641f3efdb3d14</title>
<g id="a_node19"><a xlink:href="dir_0750aac0d8bf2e4119c641f3efdb3d14.html" target="_top" xlink:title="TTriFoil">
<polygon fill="#a2b4d6" stroke="#404040" points="306.5,-76.2 257.5,-76.2 257.5,-56.95 306.5,-56.95 306.5,-76.2"/>
<text text-anchor="middle" x="282" y="-62.7" font-family="Helvetica,sans-Serif" font-size="10.00">TTriFoil</text>
</a>
</g>
</g>
<!-- dir_0750aac0d8bf2e4119c641f3efdb3d14&#45;&gt;dir_c355ed69a9ff804c1251ec805b2844ab -->
<g id="edge32" class="edge">
<title>dir_0750aac0d8bf2e4119c641f3efdb3d14&#45;&gt;dir_c355ed69a9ff804c1251ec805b2844ab</title>
<g id="a_edge32"><a xlink:href="dir_000096_000010.html" target="_top">
<path fill="none" stroke="#63b8ff" d="M291.27,-56.66C297.68,-51.09 306.69,-44.35 316,-40.95 379.35,-17.77 581.81,-13.35 663.91,-12.51"/>
<polygon fill="#63b8ff" stroke="#63b8ff" points="663.86,-16.02 673.83,-12.43 663.8,-9.02 663.86,-16.02"/>
</a>
</g>
<g id="a_edge32&#45;headlabel"><a xlink:href="dir_000096_000010.html" target="_top" xlink:title="1">
<text text-anchor="middle" x="661.81" y="-15" font-family="Helvetica,sans-Serif" font-size="10.00" fill="#63b8ff">1</text>
</a>
</g>
</g>
<!-- dir_4925a956edac1f5a41aa2a78deadb7b0 -->
<g id="node20" class="node">
<title>dir_4925a956edac1f5a41aa2a78deadb7b0</title>
<g id="a_node20"><a xlink:href="dir_4925a956edac1f5a41aa2a78deadb7b0.html" target="_top" xlink:title="TZeroDegree">
<polygon fill="#a2b4d6" stroke="#404040" points="473.12,-76.2 400.88,-76.2 400.88,-56.95 473.12,-56.95 473.12,-76.2"/>
<text text-anchor="middle" x="437" y="-62.7" font-family="Helvetica,sans-Serif" font-size="10.00">TZeroDegree</text>
</a>
</g>
</g>
<!-- dir_4925a956edac1f5a41aa2a78deadb7b0&#45;&gt;dir_c355ed69a9ff804c1251ec805b2844ab -->
<g id="edge33" class="edge">
<title>dir_4925a956edac1f5a41aa2a78deadb7b0&#45;&gt;dir_c355ed69a9ff804c1251ec805b2844ab</title>
<g id="a_edge33"><a xlink:href="dir_000097_000010.html" target="_top">
<path fill="none" stroke="#63b8ff" d="M450.51,-56.66C459.38,-51.24 471.45,-44.67 483,-40.95 544.71,-21.07 620.6,-14.98 664.03,-13.12"/>
<polygon fill="#63b8ff" stroke="#63b8ff" points="664.01,-16.63 673.87,-12.76 663.75,-9.63 664.01,-16.63"/>
</a>
</g>
<g id="a_edge33&#45;headlabel"><a xlink:href="dir_000097_000010.html" target="_top" xlink:title="3">
<text text-anchor="middle" x="662.03" y="-15.67" font-family="Helvetica,sans-Serif" font-size="10.00" fill="#63b8ff">3</text>
</a>
</g>
</g>
<!-- dir_4925a956edac1f5a41aa2a78deadb7b0&#45;&gt;dir_d44c64559bbebec7f509842c48db8b23 -->
<g id="edge34" class="edge">
<title>dir_4925a956edac1f5a41aa2a78deadb7b0&#45;&gt;dir_d44c64559bbebec7f509842c48db8b23</title>
<g id="a_edge34"><a xlink:href="dir_000097_000013.html" target="_top">
<path fill="none" stroke="#63b8ff" d="M450.45,-56.46C459.3,-50.96 471.35,-44.37 483,-40.95 589.09,-9.75 620.86,-30.85 731,-20.95 748.11,-19.41 767.09,-17.55 782.94,-15.95"/>
<polygon fill="#63b8ff" stroke="#63b8ff" points="783.28,-19.43 792.87,-14.94 782.57,-12.47 783.28,-19.43"/>
</a>
</g>
<g id="a_edge34&#45;headlabel"><a xlink:href="dir_000097_000013.html" target="_top" xlink:title="5">
<text text-anchor="middle" x="781.5" y="-18.59" font-family="Helvetica,sans-Serif" font-size="10.00" fill="#63b8ff">5</text>
</a>
</g>
</g>
</g>
</svg>
