<?xml version="1.0" encoding="UTF-8" standalone="no"?>
<!DOCTYPE svg PUBLIC "-//W3C//DTD SVG 1.1//EN"
 "http://www.w3.org/Graphics/SVG/1.1/DTD/svg11.dtd">
<!-- Generated by graphviz version 9.0.0 (20230911.1827)
 -->
<!-- Title: TILLAnalysis Pages: 1 -->
<svg width="508pt" height="126pt"
 viewBox="0.00 0.00 508.00 125.75" xmlns="http://www.w3.org/2000/svg" xmlns:xlink="http://www.w3.org/1999/xlink">
<g id="graph0" class="graph" transform="scale(1 1) rotate(0) translate(4 121.75)">
<title>TILLAnalysis</title>
<g id="clust1" class="cluster">
<title>clusterdir_d4732219e4b8947ea6747f0d78e6e32b</title>
<g id="a_clust1"><a xlink:href="dir_d4732219e4b8947ea6747f0d78e6e32b.html" target="_top" xlink:title="libraries">
<polygon fill="#edf0f7" stroke="#7f7f7f" stroke-dasharray="5,2" points="8,-39.25 8,-109.75 492,-109.75 492,-39.25 8,-39.25"/>
<text text-anchor="middle" x="250" y="-96.25" font-family="Helvetica,sans-Serif" font-size="10.00">libraries</text>
</a>
</g>
</g>
<g id="clust2" class="cluster">
<title>clusterdir_c7779af344644afdd0586bb812bd7720</title>
<g id="a_clust2"><a xlink:href="dir_c7779af344644afdd0586bb812bd7720.html" target="_top">
<polygon fill="#edf0f7" stroke="#404040" stroke-width="2" points="16,-47.25 16,-82.5 484,-82.5 484,-47.25 16,-47.25"/>
</a>
</g>
</g>
<!-- dir_c7779af344644afdd0586bb812bd7720 -->
<g id="node1" class="node">
<title>dir_c7779af344644afdd0586bb812bd7720</title>
<text text-anchor="middle" x="439" y="-61" font-family="Helvetica,sans-Serif" font-size="10.00">TILLAnalysis</text>
</g>
<!-- dir_b905687dc57ebbc78895aed8781c1b99 -->
<g id="node2" class="node">
<title>dir_b905687dc57ebbc78895aed8781c1b99</title>
<g id="a_node2"><a xlink:href="dir_b905687dc57ebbc78895aed8781c1b99.html" target="_top" xlink:title="TFipps">
<polygon fill="#a2b4d6" stroke="#404040" points="156,-74.5 110,-74.5 110,-55.25 156,-55.25 156,-74.5"/>
<text text-anchor="middle" x="133" y="-61" font-family="Helvetica,sans-Serif" font-size="10.00">TFipps</text>
</a>
</g>
</g>
<!-- dir_71cf5076aac42e01b3a2e8deb18d8afc -->
<g id="node7" class="node">
<title>dir_71cf5076aac42e01b3a2e8deb18d8afc</title>
<g id="a_node7"><a xlink:href="dir_71cf5076aac42e01b3a2e8deb18d8afc.html" target="_top" xlink:title="include">
<polygon fill="#edf0f7" stroke="#7f7f7f" points="185.38,-19.25 138.62,-19.25 138.62,0 185.38,0 185.38,-19.25"/>
<text text-anchor="middle" x="162" y="-5.75" font-family="Helvetica,sans-Serif" font-size="10.00">include</text>
</a>
</g>
</g>
<!-- dir_b905687dc57ebbc78895aed8781c1b99&#45;&gt;dir_71cf5076aac42e01b3a2e8deb18d8afc -->
<g id="edge1" class="edge">
<title>dir_b905687dc57ebbc78895aed8781c1b99&#45;&gt;dir_71cf5076aac42e01b3a2e8deb18d8afc</title>
<g id="a_edge1"><a xlink:href="dir_000040_000012.html" target="_top">
<path fill="none" stroke="#63b8ff" d="M137.79,-55.08C141.54,-48.19 146.91,-38.34 151.63,-29.66"/>
<polygon fill="#63b8ff" stroke="#63b8ff" points="154.67,-31.39 156.38,-20.94 148.53,-28.05 154.67,-31.39"/>
</a>
</g>
<g id="a_edge1&#45;headlabel"><a xlink:href="dir_000040_000012.html" target="_top" xlink:title="5">
<text text-anchor="middle" x="156.17" y="-30.71" font-family="Helvetica,sans-Serif" font-size="10.00" fill="#63b8ff">5</text>
</a>
</g>
</g>
<!-- dir_d44c64559bbebec7f509842c48db8b23 -->
<g id="node8" class="node">
<title>dir_d44c64559bbebec7f509842c48db8b23</title>
<g id="a_node8"><a xlink:href="dir_d44c64559bbebec7f509842c48db8b23.html" target="_top" xlink:title="include">
<polygon fill="#edf0f7" stroke="#404040" points="250.38,-19.25 203.62,-19.25 203.62,0 250.38,0 250.38,-19.25"/>
<text text-anchor="middle" x="227" y="-5.75" font-family="Helvetica,sans-Serif" font-size="10.00">include</text>
</a>
</g>
</g>
<!-- dir_b905687dc57ebbc78895aed8781c1b99&#45;&gt;dir_d44c64559bbebec7f509842c48db8b23 -->
<g id="edge2" class="edge">
<title>dir_b905687dc57ebbc78895aed8781c1b99&#45;&gt;dir_d44c64559bbebec7f509842c48db8b23</title>
<g id="a_edge2"><a xlink:href="dir_000040_000013.html" target="_top">
<path fill="none" stroke="#63b8ff" d="M143.53,-54.81C149.57,-49.86 157.44,-43.82 165,-39.25 174.06,-33.76 184.36,-28.62 193.91,-24.25"/>
<polygon fill="#63b8ff" stroke="#63b8ff" points="195.17,-27.52 202.9,-20.27 192.34,-21.12 195.17,-27.52"/>
</a>
</g>
<g id="a_edge2&#45;headlabel"><a xlink:href="dir_000040_000013.html" target="_top" xlink:title="5">
<text text-anchor="middle" x="194.42" y="-27.08" font-family="Helvetica,sans-Serif" font-size="10.00" fill="#63b8ff">5</text>
</a>
</g>
</g>
<!-- dir_f8fc8691e3c3310da97bf0bf9389237b -->
<g id="node3" class="node">
<title>dir_f8fc8691e3c3310da97bf0bf9389237b</title>
<g id="a_node3"><a xlink:href="dir_f8fc8691e3c3310da97bf0bf9389237b.html" target="_top" xlink:title="TFippsLaBr">
<polygon fill="#a2b4d6" stroke="#404040" points="91.5,-74.5 24.5,-74.5 24.5,-55.25 91.5,-55.25 91.5,-74.5"/>
<text text-anchor="middle" x="58" y="-61" font-family="Helvetica,sans-Serif" font-size="10.00">TFippsLaBr</text>
</a>
</g>
</g>
<!-- dir_f8fc8691e3c3310da97bf0bf9389237b&#45;&gt;dir_71cf5076aac42e01b3a2e8deb18d8afc -->
<g id="edge3" class="edge">
<title>dir_f8fc8691e3c3310da97bf0bf9389237b&#45;&gt;dir_71cf5076aac42e01b3a2e8deb18d8afc</title>
<g id="a_edge3"><a xlink:href="dir_000041_000012.html" target="_top">
<path fill="none" stroke="#63b8ff" d="M72.96,-54.91C81.15,-50.1 91.54,-44.17 101,-39.25 110.83,-34.14 121.74,-28.89 131.58,-24.31"/>
<polygon fill="#63b8ff" stroke="#63b8ff" points="132.75,-27.62 140.37,-20.26 129.82,-21.26 132.75,-27.62"/>
</a>
</g>
<g id="a_edge3&#45;headlabel"><a xlink:href="dir_000041_000012.html" target="_top" xlink:title="5">
<text text-anchor="middle" x="132.04" y="-27.2" font-family="Helvetica,sans-Serif" font-size="10.00" fill="#63b8ff">5</text>
</a>
</g>
</g>
<!-- dir_f8fc8691e3c3310da97bf0bf9389237b&#45;&gt;dir_d44c64559bbebec7f509842c48db8b23 -->
<g id="edge4" class="edge">
<title>dir_f8fc8691e3c3310da97bf0bf9389237b&#45;&gt;dir_d44c64559bbebec7f509842c48db8b23</title>
<g id="a_edge4"><a xlink:href="dir_000041_000013.html" target="_top">
<path fill="none" stroke="#63b8ff" d="M71.41,-54.76C79.63,-49.54 90.56,-43.25 101,-39.25 137.39,-25.3 150.77,-28.4 192.1,-19.5"/>
<polygon fill="#63b8ff" stroke="#63b8ff" points="192.79,-22.94 201.76,-17.3 191.23,-16.11 192.79,-22.94"/>
</a>
</g>
<g id="a_edge4&#45;headlabel"><a xlink:href="dir_000041_000013.html" target="_top" xlink:title="4">
<text text-anchor="middle" x="191.39" y="-22.29" font-family="Helvetica,sans-Serif" font-size="10.00" fill="#63b8ff">4</text>
</a>
</g>
</g>
<!-- dir_dd5d75087d61b6b26024d4944f20a10f -->
<g id="node4" class="node">
<title>dir_dd5d75087d61b6b26024d4944f20a10f</title>
<g id="a_node4"><a xlink:href="dir_dd5d75087d61b6b26024d4944f20a10f.html" target="_top" xlink:title="TFippsPulser">
<polygon fill="#a2b4d6" stroke="#404040" points="383.88,-74.5 310.12,-74.5 310.12,-55.25 383.88,-55.25 383.88,-74.5"/>
<text text-anchor="middle" x="347" y="-61" font-family="Helvetica,sans-Serif" font-size="10.00">TFippsPulser</text>
</a>
</g>
</g>
<!-- dir_dd5d75087d61b6b26024d4944f20a10f&#45;&gt;dir_71cf5076aac42e01b3a2e8deb18d8afc -->
<g id="edge5" class="edge">
<title>dir_dd5d75087d61b6b26024d4944f20a10f&#45;&gt;dir_71cf5076aac42e01b3a2e8deb18d8afc</title>
<g id="a_edge5"><a xlink:href="dir_000042_000012.html" target="_top">
<path fill="none" stroke="#63b8ff" d="M333.01,-54.94C324.15,-49.65 312.28,-43.23 301,-39.25 258.97,-24.43 243.9,-28.97 196.97,-19.45"/>
<polygon fill="#63b8ff" stroke="#63b8ff" points="197.74,-16.04 187.22,-17.36 196.27,-22.88 197.74,-16.04"/>
</a>
</g>
<g id="a_edge5&#45;headlabel"><a xlink:href="dir_000042_000012.html" target="_top" xlink:title="1">
<text text-anchor="middle" x="200.37" y="-9.83" font-family="Helvetica,sans-Serif" font-size="10.00" fill="#63b8ff">1</text>
</a>
</g>
</g>
<!-- dir_dd5d75087d61b6b26024d4944f20a10f&#45;&gt;dir_d44c64559bbebec7f509842c48db8b23 -->
<g id="edge6" class="edge">
<title>dir_dd5d75087d61b6b26024d4944f20a10f&#45;&gt;dir_d44c64559bbebec7f509842c48db8b23</title>
<g id="a_edge6"><a xlink:href="dir_000042_000013.html" target="_top">
<path fill="none" stroke="#63b8ff" d="M331.49,-54.96C322.68,-50.05 311.37,-44.01 301,-39.25 288.22,-33.38 273.86,-27.64 261.22,-22.86"/>
<polygon fill="#63b8ff" stroke="#63b8ff" points="262.65,-19.66 252.05,-19.46 260.21,-26.22 262.65,-19.66"/>
</a>
</g>
<g id="a_edge6&#45;headlabel"><a xlink:href="dir_000042_000013.html" target="_top" xlink:title="1">
<text text-anchor="middle" x="265.59" y="-13.85" font-family="Helvetica,sans-Serif" font-size="10.00" fill="#63b8ff">1</text>
</a>
</g>
</g>
<!-- dir_f3dc30be35440c0750dde85da185ada1 -->
<g id="node5" class="node">
<title>dir_f3dc30be35440c0750dde85da185ada1</title>
<g id="a_node5"><a xlink:href="dir_f3dc30be35440c0750dde85da185ada1.html" target="_top" xlink:title="TFippsTAC">
<polygon fill="#a2b4d6" stroke="#404040" points="291.75,-74.5 226.25,-74.5 226.25,-55.25 291.75,-55.25 291.75,-74.5"/>
<text text-anchor="middle" x="259" y="-61" font-family="Helvetica,sans-Serif" font-size="10.00">TFippsTAC</text>
</a>
</g>
</g>
<!-- dir_f3dc30be35440c0750dde85da185ada1&#45;&gt;dir_71cf5076aac42e01b3a2e8deb18d8afc -->
<g id="edge7" class="edge">
<title>dir_f3dc30be35440c0750dde85da185ada1&#45;&gt;dir_71cf5076aac42e01b3a2e8deb18d8afc</title>
<g id="a_edge7"><a xlink:href="dir_000043_000012.html" target="_top">
<path fill="none" stroke="#63b8ff" d="M243.94,-54.8C235.99,-50.07 226.02,-44.24 217,-39.25 208.29,-34.44 198.71,-29.37 190.01,-24.85"/>
<polygon fill="#63b8ff" stroke="#63b8ff" points="191.79,-21.84 181.3,-20.37 188.59,-28.06 191.79,-21.84"/>
</a>
</g>
<g id="a_edge7&#45;headlabel"><a xlink:href="dir_000043_000012.html" target="_top" xlink:title="3">
<text text-anchor="middle" x="194.94" y="-16.39" font-family="Helvetica,sans-Serif" font-size="10.00" fill="#63b8ff">3</text>
</a>
</g>
</g>
<!-- dir_f3dc30be35440c0750dde85da185ada1&#45;&gt;dir_d44c64559bbebec7f509842c48db8b23 -->
<g id="edge8" class="edge">
<title>dir_f3dc30be35440c0750dde85da185ada1&#45;&gt;dir_d44c64559bbebec7f509842c48db8b23</title>
<g id="a_edge8"><a xlink:href="dir_000043_000013.html" target="_top">
<path fill="none" stroke="#63b8ff" d="M253.72,-55.08C249.53,-48.11 243.52,-38.12 238.27,-29.37"/>
<polygon fill="#63b8ff" stroke="#63b8ff" points="241.33,-27.68 233.18,-20.91 235.33,-31.28 241.33,-27.68"/>
</a>
</g>
<g id="a_edge8&#45;headlabel"><a xlink:href="dir_000043_000013.html" target="_top" xlink:title="1">
<text text-anchor="middle" x="244.84" y="-24.12" font-family="Helvetica,sans-Serif" font-size="10.00" fill="#63b8ff">1</text>
</a>
</g>
</g>
<!-- dir_373e6201baaefc2e8f6195b56d1012fa -->
<g id="node6" class="node">
<title>dir_373e6201baaefc2e8f6195b56d1012fa</title>
<g id="a_node6"><a xlink:href="dir_373e6201baaefc2e8f6195b56d1012fa.html" target="_top" xlink:title="TIfin">
<polygon fill="#a2b4d6" stroke="#404040" points="208.38,-74.5 173.62,-74.5 173.62,-55.25 208.38,-55.25 208.38,-74.5"/>
<text text-anchor="middle" x="191" y="-61" font-family="Helvetica,sans-Serif" font-size="10.00">TIfin</text>
</a>
</g>
</g>
<!-- dir_373e6201baaefc2e8f6195b56d1012fa&#45;&gt;dir_71cf5076aac42e01b3a2e8deb18d8afc -->
<g id="edge9" class="edge">
<title>dir_373e6201baaefc2e8f6195b56d1012fa&#45;&gt;dir_71cf5076aac42e01b3a2e8deb18d8afc</title>
<g id="a_edge9"><a xlink:href="dir_000059_000012.html" target="_top">
<path fill="none" stroke="#63b8ff" d="M186.21,-55.08C182.46,-48.19 177.09,-38.34 172.37,-29.66"/>
<polygon fill="#63b8ff" stroke="#63b8ff" points="175.47,-28.05 167.62,-20.94 169.33,-31.39 175.47,-28.05"/>
</a>
</g>
<g id="a_edge9&#45;headlabel"><a xlink:href="dir_000059_000012.html" target="_top" xlink:title="5">
<text text-anchor="middle" x="178.96" y="-24.64" font-family="Helvetica,sans-Serif" font-size="10.00" fill="#63b8ff">5</text>
</a>
</g>
</g>
<!-- dir_373e6201baaefc2e8f6195b56d1012fa&#45;&gt;dir_d44c64559bbebec7f509842c48db8b23 -->
<g id="edge10" class="edge">
<title>dir_373e6201baaefc2e8f6195b56d1012fa&#45;&gt;dir_d44c64559bbebec7f509842c48db8b23</title>
<g id="a_edge10"><a xlink:href="dir_000059_000013.html" target="_top">
<path fill="none" stroke="#63b8ff" d="M196.94,-55.08C201.71,-48.03 208.56,-37.9 214.52,-29.08"/>
<polygon fill="#63b8ff" stroke="#63b8ff" points="217.38,-31.11 220.08,-20.86 211.58,-27.19 217.38,-31.11"/>
</a>
</g>
<g id="a_edge10&#45;headlabel"><a xlink:href="dir_000059_000013.html" target="_top" xlink:title="5">
<text text-anchor="middle" x="218.56" y="-30.55" font-family="Helvetica,sans-Serif" font-size="10.00" fill="#63b8ff">5</text>
</a>
</g>
</g>
</g>
</svg>
