<?xml version="1.0" encoding="UTF-8" standalone="no"?>
<!DOCTYPE svg PUBLIC "-//W3C//DTD SVG 1.1//EN"
 "http://www.w3.org/Graphics/SVG/1.1/DTD/svg11.dtd">
<!-- Generated by graphviz version 9.0.0 (20230911.1827)
 -->
<!-- Title: TGRSIAnalysis Pages: 1 -->
<!--zoomable 128 -->

<svg id="main" version="1.1" xmlns="http://www.w3.org/2000/svg" xmlns:xlink="http://www.w3.org/1999/xlink" xml:space="preserve" onload="init(evt)">
<style type="text/css"><![CDATA[
.node, .edge {opacity: 0.7;}
.node.selected, .edge.selected {opacity: 1;}
.edge:hover path { stroke: red; }
.edge:hover polygon { stroke: red; fill: red; }
]]></style>

<defs>
  <circle id="rim" cx="0" cy="0" r="7"/>
  <circle id="rim2" cx="0" cy="0" r="3.5"/>
  <g id="zoomPlus">
    <use xlink:href="#rim" fill="#404040"><set attributeName="fill" to="#808080" begin="zoomplus.mouseover" end="zoomplus.mouseout"/></use>
    <path d="M-4,0h8M0,-4v8" fill="none" stroke="white" stroke-width="1.5" pointer-events="none"/>
  </g>
  <g id="zoomMin">
    <use xlink:href="#rim" fill="#404040"><set attributeName="fill" to="#808080" begin="zoomminus.mouseover" end="zoomminus.mouseout"/></use>
    <path d="M-4,0h8" fill="none" stroke="white" stroke-width="1.5" pointer-events="none"/>
  </g>
  <g id="arrowUp" transform="translate(30 24)">
    <use xlink:href="#rim"/>
    <path pointer-events="none" fill="none" stroke="white" stroke-width="1.5" d="M0,-3.0v7 M-2.5,-0.5L0,-3.0L2.5,-0.5"/>
  </g>
  <g id="arrowRight" transform="rotate(90) translate(36 -43)">
    <use xlink:href="#rim"/>
    <path pointer-events="none" fill="none" stroke="white" stroke-width="1.5" d="M0,-3.0v7 M-2.5,-0.5L0,-3.0L2.5,-0.5"/>
  </g>
  <g id="arrowDown" transform="rotate(180) translate(-30 -48)">
    <use xlink:href="#rim"/>
    <path pointer-events="none" fill="none" stroke="white" stroke-width="1.5" d="M0,-3.0v7 M-2.5,-0.5L0,-3.0L2.5,-0.5"/>
  </g>
  <g id="arrowLeft" transform="rotate(270) translate(-36 17)">
    <use xlink:href="#rim"/>
    <path pointer-events="none" fill="none" stroke="white" stroke-width="1.5" d="M0,-3.0v7 M-2.5,-0.5L0,-3.0L2.5,-0.5"/>
  </g>
  <g id="resetDef">
    <use xlink:href="#rim2" fill="#404040"><set attributeName="fill" to="#808080" begin="reset.mouseover" end="reset.mouseout"/></use>
  </g>
</defs>
<script type="application/ecmascript">
var viewWidth = 1610;
var viewHeight = 128;
var sectionId = 'dynsection-0';
</script>
<script type="application/ecmascript" xlink:href="svg.min.js"/>
<svg id="graph" class="graph">
<g id="viewport">
<title>TGRSIAnalysis</title>
<g id="clust1" class="cluster">
<title>clusterdir_04ded5cb9506aadc0b6d1c08d3b0ca72</title>
<g id="a_clust1"><a xlink:href="dir_04ded5cb9506aadc0b6d1c08d3b0ca72.html" target="_top" xlink:title="libraries">
<polygon fill="#edf0f7" stroke="#7f7f7f" stroke-dasharray="5,2" points="8,-41.51 8,-112.01 1594,-112.01 1594,-41.51 8,-41.51"/>
<text text-anchor="middle" x="801" y="-98.51" font-family="Helvetica,sans-Serif" font-size="10.00">libraries</text>
</a>
</g>
</g>
<g id="clust2" class="cluster">
<title>clusterdir_f1ca9974b6d60d8551858194bc4a7b28</title>
<g id="a_clust2"><a xlink:href="dir_f1ca9974b6d60d8551858194bc4a7b28.html" target="_top">
<polygon fill="#edf0f7" stroke="#404040" stroke-width="2" points="16,-49.51 16,-84.76 1586,-84.76 1586,-49.51 16,-49.51"/>
</a>
</g>
</g>
<!-- dir_f1ca9974b6d60d8551858194bc4a7b28 -->
<g id="node1" class="node">
<title>dir_f1ca9974b6d60d8551858194bc4a7b28</title>
<text text-anchor="middle" x="1537" y="-63.26" font-family="Helvetica,sans-Serif" font-size="10.00">TGRSIAnalysis</text>
</g>
<!-- dir_7c637f2c38aea748f009e26d5869f12c -->
<g id="node2" class="node">
<title>dir_7c637f2c38aea748f009e26d5869f12c</title>
<g id="a_node2"><a xlink:href="dir_7c637f2c38aea748f009e26d5869f12c.html" target="_top" xlink:title="TAngularCorrelation">
<polygon fill="#a2b4d6" stroke="#404040" points="254.75,-76.76 153.25,-76.76 153.25,-57.51 254.75,-57.51 254.75,-76.76"/>
<text text-anchor="middle" x="204" y="-63.26" font-family="Helvetica,sans-Serif" font-size="10.00">TAngularCorrelation</text>
</a>
</g>
</g>
<!-- dir_c355ed69a9ff804c1251ec805b2844ab -->
<g id="node23" class="node">
<title>dir_c355ed69a9ff804c1251ec805b2844ab</title>
<g id="a_node23"><a xlink:href="dir_c355ed69a9ff804c1251ec805b2844ab.html" target="_top" xlink:title="include">
<polygon fill="#edf0f7" stroke="#7f7f7f" points="841.38,-21.51 794.62,-21.51 794.62,-2.26 841.38,-2.26 841.38,-21.51"/>
<text text-anchor="middle" x="818" y="-8.01" font-family="Helvetica,sans-Serif" font-size="10.00">include</text>
</a>
</g>
</g>
<!-- dir_7c637f2c38aea748f009e26d5869f12c&#45;&gt;dir_c355ed69a9ff804c1251ec805b2844ab -->
<g id="edge1" class="edge">
<title>dir_7c637f2c38aea748f009e26d5869f12c&#45;&gt;dir_c355ed69a9ff804c1251ec805b2844ab</title>
<g id="a_edge1"><a xlink:href="dir_000029_000010.html" target="_top">
<path fill="none" stroke="#63b8ff" d="M221.6,-57.06C233.29,-51.5 249.17,-44.84 264,-41.51 363.54,-19.2 677.68,-14.21 783.11,-13.16"/>
<polygon fill="#63b8ff" stroke="#63b8ff" points="782.87,-16.66 792.83,-13.07 782.8,-9.66 782.87,-16.66"/>
</a>
</g>
<g id="a_edge1&#45;headlabel"><a xlink:href="dir_000029_000010.html" target="_top" xlink:title="2">
<text text-anchor="middle" x="780.81" y="-15.64" font-family="Helvetica,sans-Serif" font-size="10.00" fill="#63b8ff">2</text>
</a>
</g>
</g>
<!-- dir_12553313af44d73e96f5a41551948ad9 -->
<g id="node3" class="node">
<title>dir_12553313af44d73e96f5a41551948ad9</title>
<g id="a_node3"><a xlink:href="dir_12553313af44d73e96f5a41551948ad9.html" target="_top" xlink:title="TCSM">
<polygon fill="#a2b4d6" stroke="#404040" points="134.88,-76.76 91.12,-76.76 91.12,-57.51 134.88,-57.51 134.88,-76.76"/>
<text text-anchor="middle" x="113" y="-63.26" font-family="Helvetica,sans-Serif" font-size="10.00">TCSM</text>
</a>
</g>
</g>
<!-- dir_12553313af44d73e96f5a41551948ad9&#45;&gt;dir_c355ed69a9ff804c1251ec805b2844ab -->
<g id="edge2" class="edge">
<title>dir_12553313af44d73e96f5a41551948ad9&#45;&gt;dir_c355ed69a9ff804c1251ec805b2844ab</title>
<g id="a_edge2"><a xlink:href="dir_000033_000010.html" target="_top">
<path fill="none" stroke="#63b8ff" d="M121.28,-57.13C127.04,-51.52 135.24,-44.78 144,-41.51 203.99,-19.15 653.28,-14.1 783.02,-13.11"/>
<polygon fill="#63b8ff" stroke="#63b8ff" points="782.73,-16.61 792.7,-13.04 782.67,-9.61 782.73,-16.61"/>
</a>
</g>
<g id="a_edge2&#45;headlabel"><a xlink:href="dir_000033_000010.html" target="_top" xlink:title="2">
<text text-anchor="middle" x="780.66" y="-15.59" font-family="Helvetica,sans-Serif" font-size="10.00" fill="#63b8ff">2</text>
</a>
</g>
</g>
<!-- dir_3255d4326b963e3cb310054928d3057b -->
<g id="node4" class="node">
<title>dir_3255d4326b963e3cb310054928d3057b</title>
<g id="a_node4"><a xlink:href="dir_3255d4326b963e3cb310054928d3057b.html" target="_top" xlink:title="TDescant">
<polygon fill="#a2b4d6" stroke="#404040" points="688,-76.76 630,-76.76 630,-57.51 688,-57.51 688,-76.76"/>
<text text-anchor="middle" x="659" y="-63.26" font-family="Helvetica,sans-Serif" font-size="10.00">TDescant</text>
</a>
</g>
</g>
<!-- dir_3255d4326b963e3cb310054928d3057b&#45;&gt;dir_c355ed69a9ff804c1251ec805b2844ab -->
<g id="edge3" class="edge">
<title>dir_3255d4326b963e3cb310054928d3057b&#45;&gt;dir_c355ed69a9ff804c1251ec805b2844ab</title>
<g id="a_edge3"><a xlink:href="dir_000035_000010.html" target="_top">
<path fill="none" stroke="#63b8ff" d="M670.72,-57.03C677.95,-51.81 687.6,-45.53 697,-41.51 724.93,-29.58 758.72,-22.12 783.48,-17.82"/>
<polygon fill="#63b8ff" stroke="#63b8ff" points="783.71,-21.32 793.01,-16.25 782.58,-14.42 783.71,-21.32"/>
</a>
</g>
<g id="a_edge3&#45;headlabel"><a xlink:href="dir_000035_000010.html" target="_top" xlink:title="4">
<text text-anchor="middle" x="782.12" y="-20.59" font-family="Helvetica,sans-Serif" font-size="10.00" fill="#63b8ff">4</text>
</a>
</g>
</g>
<!-- dir_d44c64559bbebec7f509842c48db8b23 -->
<g id="node24" class="node">
<title>dir_d44c64559bbebec7f509842c48db8b23</title>
<g id="a_node24"><a xlink:href="dir_d44c64559bbebec7f509842c48db8b23.html" target="_top" xlink:title="include">
<polygon fill="#edf0f7" stroke="#404040" points="961.38,-21.51 914.62,-21.51 914.62,-2.26 961.38,-2.26 961.38,-21.51"/>
<text text-anchor="middle" x="938" y="-8.01" font-family="Helvetica,sans-Serif" font-size="10.00">include</text>
</a>
</g>
</g>
<!-- dir_3255d4326b963e3cb310054928d3057b&#45;&gt;dir_d44c64559bbebec7f509842c48db8b23 -->
<g id="edge4" class="edge">
<title>dir_3255d4326b963e3cb310054928d3057b&#45;&gt;dir_d44c64559bbebec7f509842c48db8b23</title>
<g id="a_edge4"><a xlink:href="dir_000035_000013.html" target="_top">
<path fill="none" stroke="#63b8ff" d="M669.91,-57.13C677.15,-51.67 687.09,-45.09 697,-41.51 706.56,-38.06 838.67,-23.55 903.12,-16.61"/>
<polygon fill="#63b8ff" stroke="#63b8ff" points="903.25,-20.12 912.82,-15.57 902.5,-13.16 903.25,-20.12"/>
</a>
</g>
<g id="a_edge4&#45;headlabel"><a xlink:href="dir_000035_000013.html" target="_top" xlink:title="6">
<text text-anchor="middle" x="901.49" y="-19.29" font-family="Helvetica,sans-Serif" font-size="10.00" fill="#63b8ff">6</text>
</a>
</g>
</g>
<!-- dir_20aa1809d84b5df61f0e44e26c457914 -->
<g id="node5" class="node">
<title>dir_20aa1809d84b5df61f0e44e26c457914</title>
<g id="a_node5"><a xlink:href="dir_20aa1809d84b5df61f0e44e26c457914.html" target="_top" xlink:title="TEmma">
<polygon fill="#a2b4d6" stroke="#404040" points="611.88,-76.76 562.12,-76.76 562.12,-57.51 611.88,-57.51 611.88,-76.76"/>
<text text-anchor="middle" x="587" y="-63.26" font-family="Helvetica,sans-Serif" font-size="10.00">TEmma</text>
</a>
</g>
</g>
<!-- dir_20aa1809d84b5df61f0e44e26c457914&#45;&gt;dir_c355ed69a9ff804c1251ec805b2844ab -->
<g id="edge5" class="edge">
<title>dir_20aa1809d84b5df61f0e44e26c457914&#45;&gt;dir_c355ed69a9ff804c1251ec805b2844ab</title>
<g id="a_edge5"><a xlink:href="dir_000038_000010.html" target="_top">
<path fill="none" stroke="#63b8ff" d="M596.64,-57.19C603.06,-51.76 611.95,-45.19 621,-41.51 674.66,-19.73 742.47,-14.2 782.92,-12.98"/>
<polygon fill="#63b8ff" stroke="#63b8ff" points="782.88,-16.48 792.8,-12.76 782.72,-9.48 782.88,-16.48"/>
</a>
</g>
<g id="a_edge5&#45;headlabel"><a xlink:href="dir_000038_000010.html" target="_top" xlink:title="3">
<text text-anchor="middle" x="780.86" y="-15.49" font-family="Helvetica,sans-Serif" font-size="10.00" fill="#63b8ff">3</text>
</a>
</g>
</g>
<!-- dir_20aa1809d84b5df61f0e44e26c457914&#45;&gt;dir_d44c64559bbebec7f509842c48db8b23 -->
<g id="edge6" class="edge">
<title>dir_20aa1809d84b5df61f0e44e26c457914&#45;&gt;dir_d44c64559bbebec7f509842c48db8b23</title>
<g id="a_edge6"><a xlink:href="dir_000038_000013.html" target="_top">
<path fill="none" stroke="#63b8ff" d="M596.57,-57.02C602.96,-51.51 611.85,-44.93 621,-41.51 716.72,-5.81 748.27,-30.94 850,-21.51 867.59,-19.88 887.15,-17.98 903.35,-16.37"/>
<polygon fill="#63b8ff" stroke="#63b8ff" points="903.37,-19.89 912.97,-15.41 902.67,-12.92 903.37,-19.89"/>
</a>
</g>
<g id="a_edge6&#45;headlabel"><a xlink:href="dir_000038_000013.html" target="_top" xlink:title="1">
<text text-anchor="middle" x="901.58" y="-19.04" font-family="Helvetica,sans-Serif" font-size="10.00" fill="#63b8ff">1</text>
</a>
</g>
</g>
<!-- dir_96a286c95e152dc84501dde3344e48b1 -->
<g id="node6" class="node">
<title>dir_96a286c95e152dc84501dde3344e48b1</title>
<g id="a_node6"><a xlink:href="dir_96a286c95e152dc84501dde3344e48b1.html" target="_top" xlink:title="TGenericDetector">
<polygon fill="#a2b4d6" stroke="#404040" points="544.25,-76.76 451.75,-76.76 451.75,-57.51 544.25,-57.51 544.25,-76.76"/>
<text text-anchor="middle" x="498" y="-63.26" font-family="Helvetica,sans-Serif" font-size="10.00">TGenericDetector</text>
</a>
</g>
</g>
<!-- dir_96a286c95e152dc84501dde3344e48b1&#45;&gt;dir_c355ed69a9ff804c1251ec805b2844ab -->
<g id="edge7" class="edge">
<title>dir_96a286c95e152dc84501dde3344e48b1&#45;&gt;dir_c355ed69a9ff804c1251ec805b2844ab</title>
<g id="a_edge7"><a xlink:href="dir_000044_000010.html" target="_top">
<path fill="none" stroke="#63b8ff" d="M514.35,-57.19C525.03,-51.75 539.47,-45.18 553,-41.51 633.22,-19.8 731.32,-14.47 782.72,-13.21"/>
<polygon fill="#63b8ff" stroke="#63b8ff" points="782.71,-16.72 792.63,-13.02 782.57,-9.72 782.71,-16.72"/>
</a>
</g>
<g id="a_edge7&#45;headlabel"><a xlink:href="dir_000044_000010.html" target="_top" xlink:title="1">
<text text-anchor="middle" x="780.68" y="-15.72" font-family="Helvetica,sans-Serif" font-size="10.00" fill="#63b8ff">1</text>
</a>
</g>
</g>
<!-- dir_96a286c95e152dc84501dde3344e48b1&#45;&gt;dir_d44c64559bbebec7f509842c48db8b23 -->
<g id="edge8" class="edge">
<title>dir_96a286c95e152dc84501dde3344e48b1&#45;&gt;dir_d44c64559bbebec7f509842c48db8b23</title>
<g id="a_edge8"><a xlink:href="dir_000044_000013.html" target="_top">
<path fill="none" stroke="#63b8ff" d="M513.82,-57.25C524.53,-51.69 539.19,-44.95 553,-41.51 681.38,-9.54 718.15,-32.41 850,-21.51 867.6,-20.06 887.16,-18.17 903.36,-16.53"/>
<polygon fill="#63b8ff" stroke="#63b8ff" points="903.39,-20.04 912.98,-15.54 902.68,-13.08 903.39,-20.04"/>
</a>
</g>
<g id="a_edge8&#45;headlabel"><a xlink:href="dir_000044_000013.html" target="_top" xlink:title="1">
<text text-anchor="middle" x="901.61" y="-19.21" font-family="Helvetica,sans-Serif" font-size="10.00" fill="#63b8ff">1</text>
</a>
</g>
</g>
<!-- dir_4d7a83305960b64d8c07c7efbf543e1a -->
<g id="node7" class="node">
<title>dir_4d7a83305960b64d8c07c7efbf543e1a</title>
<g id="a_node7"><a xlink:href="dir_4d7a83305960b64d8c07c7efbf543e1a.html" target="_top" xlink:title="TGriffin">
<polygon fill="#a2b4d6" stroke="#404040" points="433.38,-76.76 386.62,-76.76 386.62,-57.51 433.38,-57.51 433.38,-76.76"/>
<text text-anchor="middle" x="410" y="-63.26" font-family="Helvetica,sans-Serif" font-size="10.00">TGriffin</text>
</a>
</g>
</g>
<!-- dir_4d7a83305960b64d8c07c7efbf543e1a&#45;&gt;dir_c355ed69a9ff804c1251ec805b2844ab -->
<g id="edge9" class="edge">
<title>dir_4d7a83305960b64d8c07c7efbf543e1a&#45;&gt;dir_c355ed69a9ff804c1251ec805b2844ab</title>
<g id="a_edge9"><a xlink:href="dir_000045_000010.html" target="_top">
<path fill="none" stroke="#63b8ff" d="M418.95,-57.23C425.15,-51.66 433.9,-44.93 443,-41.51 504.71,-18.38 702.25,-13.93 783.05,-13.08"/>
<polygon fill="#63b8ff" stroke="#63b8ff" points="782.84,-16.59 792.8,-13 782.77,-9.59 782.84,-16.59"/>
</a>
</g>
<g id="a_edge9&#45;headlabel"><a xlink:href="dir_000045_000010.html" target="_top" xlink:title="7">
<text text-anchor="middle" x="780.78" y="-15.57" font-family="Helvetica,sans-Serif" font-size="10.00" fill="#63b8ff">7</text>
</a>
</g>
</g>
<!-- dir_4d7a83305960b64d8c07c7efbf543e1a&#45;&gt;dir_d44c64559bbebec7f509842c48db8b23 -->
<g id="edge10" class="edge">
<title>dir_4d7a83305960b64d8c07c7efbf543e1a&#45;&gt;dir_d44c64559bbebec7f509842c48db8b23</title>
<g id="a_edge10"><a xlink:href="dir_000045_000013.html" target="_top">
<path fill="none" stroke="#63b8ff" d="M418.92,-57.15C425.11,-51.55 433.85,-44.8 443,-41.51 528.22,-10.88 759.69,-28.15 850,-21.51 867.62,-20.22 887.18,-18.34 903.37,-16.67"/>
<polygon fill="#63b8ff" stroke="#63b8ff" points="903.41,-20.19 912.99,-15.66 902.68,-13.23 903.41,-20.19"/>
</a>
</g>
<g id="a_edge10&#45;headlabel"><a xlink:href="dir_000045_000013.html" target="_top" xlink:title="6">
<text text-anchor="middle" x="901.64" y="-19.36" font-family="Helvetica,sans-Serif" font-size="10.00" fill="#63b8ff">6</text>
</a>
</g>
</g>
<!-- dir_19584bb47928904ee352adb90b980c09 -->
<g id="node8" class="node">
<title>dir_19584bb47928904ee352adb90b980c09</title>
<g id="a_node8"><a xlink:href="dir_19584bb47928904ee352adb90b980c09.html" target="_top" xlink:title="TLaBr">
<polygon fill="#a2b4d6" stroke="#404040" points="368.5,-76.76 325.5,-76.76 325.5,-57.51 368.5,-57.51 368.5,-76.76"/>
<text text-anchor="middle" x="347" y="-63.26" font-family="Helvetica,sans-Serif" font-size="10.00">TLaBr</text>
</a>
</g>
</g>
<!-- dir_19584bb47928904ee352adb90b980c09&#45;&gt;dir_c355ed69a9ff804c1251ec805b2844ab -->
<g id="edge11" class="edge">
<title>dir_19584bb47928904ee352adb90b980c09&#45;&gt;dir_c355ed69a9ff804c1251ec805b2844ab</title>
<g id="a_edge11"><a xlink:href="dir_000061_000010.html" target="_top">
<path fill="none" stroke="#63b8ff" d="M355.3,-57.2C361.07,-51.62 369.28,-44.88 378,-41.51 451.65,-13.11 692.21,-11.89 782.94,-12.49"/>
<polygon fill="#63b8ff" stroke="#63b8ff" points="782.68,-15.99 792.71,-12.57 782.74,-8.99 782.68,-15.99"/>
</a>
</g>
<g id="a_edge11&#45;headlabel"><a xlink:href="dir_000061_000010.html" target="_top" xlink:title="5">
<text text-anchor="middle" x="780.58" y="-14.94" font-family="Helvetica,sans-Serif" font-size="10.00" fill="#63b8ff">5</text>
</a>
</g>
</g>
<!-- dir_19584bb47928904ee352adb90b980c09&#45;&gt;dir_d44c64559bbebec7f509842c48db8b23 -->
<g id="edge12" class="edge">
<title>dir_19584bb47928904ee352adb90b980c09&#45;&gt;dir_d44c64559bbebec7f509842c48db8b23</title>
<g id="a_edge12"><a xlink:href="dir_000061_000013.html" target="_top">
<path fill="none" stroke="#63b8ff" d="M355.28,-57.13C361.04,-51.52 369.24,-44.78 378,-41.51 427.19,-23.18 797.64,-25.19 850,-21.51 867.5,-20.29 886.91,-18.44 903.04,-16.76"/>
<polygon fill="#63b8ff" stroke="#63b8ff" points="903.05,-20.28 912.62,-15.75 902.31,-13.32 903.05,-20.28"/>
</a>
</g>
<g id="a_edge12&#45;headlabel"><a xlink:href="dir_000061_000013.html" target="_top" xlink:title="4">
<text text-anchor="middle" x="901.28" y="-19.45" font-family="Helvetica,sans-Serif" font-size="10.00" fill="#63b8ff">4</text>
</a>
</g>
</g>
<!-- dir_cc71cf65fdf8fb611fc39d2104e00889 -->
<g id="node9" class="node">
<title>dir_cc71cf65fdf8fb611fc39d2104e00889</title>
<g id="a_node9"><a xlink:href="dir_cc71cf65fdf8fb611fc39d2104e00889.html" target="_top" xlink:title="TPaces">
<polygon fill="#a2b4d6" stroke="#404040" points="1477.88,-76.76 1428.12,-76.76 1428.12,-57.51 1477.88,-57.51 1477.88,-76.76"/>
<text text-anchor="middle" x="1453" y="-63.26" font-family="Helvetica,sans-Serif" font-size="10.00">TPaces</text>
</a>
</g>
</g>
<!-- dir_cc71cf65fdf8fb611fc39d2104e00889&#45;&gt;dir_c355ed69a9ff804c1251ec805b2844ab -->
<g id="edge13" class="edge">
<title>dir_cc71cf65fdf8fb611fc39d2104e00889&#45;&gt;dir_c355ed69a9ff804c1251ec805b2844ab</title>
<g id="a_edge13"><a xlink:href="dir_000066_000010.html" target="_top">
<path fill="none" stroke="#63b8ff" d="M1443.77,-57.11C1437.38,-51.5 1428.37,-44.75 1419,-41.51 1365.09,-22.87 962.91,-25.41 906,-21.51 888.5,-20.32 869.09,-18.47 852.96,-16.79"/>
<polygon fill="#63b8ff" stroke="#63b8ff" points="853.69,-13.35 843.38,-15.77 852.95,-20.31 853.69,-13.35"/>
</a>
</g>
<g id="a_edge13&#45;headlabel"><a xlink:href="dir_000066_000010.html" target="_top" xlink:title="3">
<text text-anchor="middle" x="856.06" y="-6.87" font-family="Helvetica,sans-Serif" font-size="10.00" fill="#63b8ff">3</text>
</a>
</g>
</g>
<!-- dir_cc71cf65fdf8fb611fc39d2104e00889&#45;&gt;dir_d44c64559bbebec7f509842c48db8b23 -->
<g id="edge14" class="edge">
<title>dir_cc71cf65fdf8fb611fc39d2104e00889&#45;&gt;dir_d44c64559bbebec7f509842c48db8b23</title>
<g id="a_edge14"><a xlink:href="dir_000066_000013.html" target="_top">
<path fill="none" stroke="#63b8ff" d="M1443.74,-57.18C1437.35,-51.59 1428.33,-44.85 1419,-41.51 1336.94,-12.19 1069.87,-11.64 973.27,-12.45"/>
<polygon fill="#63b8ff" stroke="#63b8ff" points="973.32,-8.95 963.36,-12.54 973.39,-15.95 973.32,-8.95"/>
</a>
</g>
<g id="a_edge14&#45;headlabel"><a xlink:href="dir_000066_000013.html" target="_top" xlink:title="1">
<text text-anchor="middle" x="975.38" y="-2.21" font-family="Helvetica,sans-Serif" font-size="10.00" fill="#63b8ff">1</text>
</a>
</g>
</g>
<!-- dir_7295a4f67b932590241ad7e00a653c50 -->
<g id="node10" class="node">
<title>dir_7295a4f67b932590241ad7e00a653c50</title>
<g id="a_node10"><a xlink:href="dir_7295a4f67b932590241ad7e00a653c50.html" target="_top" xlink:title="TRcmp">
<polygon fill="#a2b4d6" stroke="#404040" points="1409.75,-76.76 1362.25,-76.76 1362.25,-57.51 1409.75,-57.51 1409.75,-76.76"/>
<text text-anchor="middle" x="1386" y="-63.26" font-family="Helvetica,sans-Serif" font-size="10.00">TRcmp</text>
</a>
</g>
</g>
<!-- dir_7295a4f67b932590241ad7e00a653c50&#45;&gt;dir_c355ed69a9ff804c1251ec805b2844ab -->
<g id="edge15" class="edge">
<title>dir_7295a4f67b932590241ad7e00a653c50&#45;&gt;dir_c355ed69a9ff804c1251ec805b2844ab</title>
<g id="a_edge15"><a xlink:href="dir_000070_000010.html" target="_top">
<path fill="none" stroke="#63b8ff" d="M1377.08,-57.13C1370.9,-51.53 1362.16,-44.78 1353,-41.51 1259.36,-8.08 1005.18,-28.59 906,-21.51 888.5,-20.27 869.09,-18.41 852.97,-16.74"/>
<polygon fill="#63b8ff" stroke="#63b8ff" points="853.69,-13.3 843.38,-15.73 852.96,-20.26 853.69,-13.3"/>
</a>
</g>
<g id="a_edge15&#45;headlabel"><a xlink:href="dir_000070_000010.html" target="_top" xlink:title="3">
<text text-anchor="middle" x="856.06" y="-6.82" font-family="Helvetica,sans-Serif" font-size="10.00" fill="#63b8ff">3</text>
</a>
</g>
</g>
<!-- dir_7295a4f67b932590241ad7e00a653c50&#45;&gt;dir_d44c64559bbebec7f509842c48db8b23 -->
<g id="edge16" class="edge">
<title>dir_7295a4f67b932590241ad7e00a653c50&#45;&gt;dir_d44c64559bbebec7f509842c48db8b23</title>
<g id="a_edge16"><a xlink:href="dir_000070_000013.html" target="_top">
<path fill="none" stroke="#63b8ff" d="M1377.05,-57.21C1370.86,-51.63 1362.12,-44.89 1353,-41.51 1283.72,-15.83 1060.04,-12.92 973.06,-12.78"/>
<polygon fill="#63b8ff" stroke="#63b8ff" points="973.24,-9.28 963.24,-12.78 973.24,-16.28 973.24,-9.28"/>
</a>
</g>
<g id="a_edge16&#45;headlabel"><a xlink:href="dir_000070_000013.html" target="_top" xlink:title="2">
<text text-anchor="middle" x="975.32" y="-2.57" font-family="Helvetica,sans-Serif" font-size="10.00" fill="#63b8ff">2</text>
</a>
</g>
</g>
<!-- dir_a3742f42c59f9008c555307cd0d941bd -->
<g id="node11" class="node">
<title>dir_a3742f42c59f9008c555307cd0d941bd</title>
<g id="a_node11"><a xlink:href="dir_a3742f42c59f9008c555307cd0d941bd.html" target="_top" xlink:title="TRF">
<polygon fill="#a2b4d6" stroke="#404040" points="307.38,-76.76 272.62,-76.76 272.62,-57.51 307.38,-57.51 307.38,-76.76"/>
<text text-anchor="middle" x="290" y="-63.26" font-family="Helvetica,sans-Serif" font-size="10.00">TRF</text>
</a>
</g>
</g>
<!-- dir_a3742f42c59f9008c555307cd0d941bd&#45;&gt;dir_c355ed69a9ff804c1251ec805b2844ab -->
<g id="edge17" class="edge">
<title>dir_a3742f42c59f9008c555307cd0d941bd&#45;&gt;dir_c355ed69a9ff804c1251ec805b2844ab</title>
<g id="a_edge17"><a xlink:href="dir_000072_000010.html" target="_top">
<path fill="none" stroke="#63b8ff" d="M296.99,-57.18C301.92,-51.6 309.05,-44.86 317,-41.51 359.62,-23.58 676.16,-15.7 782.94,-13.54"/>
<polygon fill="#63b8ff" stroke="#63b8ff" points="782.88,-17.04 792.81,-13.34 782.74,-10.04 782.88,-17.04"/>
</a>
</g>
<g id="a_edge17&#45;headlabel"><a xlink:href="dir_000072_000010.html" target="_top" xlink:title="1">
<text text-anchor="middle" x="780.86" y="-16.04" font-family="Helvetica,sans-Serif" font-size="10.00" fill="#63b8ff">1</text>
</a>
</g>
</g>
<!-- dir_4d99cfd5505f921b61c4eae3c76dc75f -->
<g id="node12" class="node">
<title>dir_4d99cfd5505f921b61c4eae3c76dc75f</title>
<g id="a_node12"><a xlink:href="dir_4d99cfd5505f921b61c4eae3c76dc75f.html" target="_top" xlink:title="TS3">
<polygon fill="#a2b4d6" stroke="#404040" points="1344,-76.76 1310,-76.76 1310,-57.51 1344,-57.51 1344,-76.76"/>
<text text-anchor="middle" x="1327" y="-63.26" font-family="Helvetica,sans-Serif" font-size="10.00">TS3</text>
</a>
</g>
</g>
<!-- dir_4d99cfd5505f921b61c4eae3c76dc75f&#45;&gt;dir_c355ed69a9ff804c1251ec805b2844ab -->
<g id="edge18" class="edge">
<title>dir_4d99cfd5505f921b61c4eae3c76dc75f&#45;&gt;dir_c355ed69a9ff804c1251ec805b2844ab</title>
<g id="a_edge18"><a xlink:href="dir_000074_000010.html" target="_top">
<path fill="none" stroke="#63b8ff" d="M1320.34,-57.17C1315.63,-51.58 1308.77,-44.84 1301,-41.51 1260.6,-24.22 949.82,-24.77 906,-21.51 888.38,-20.2 868.82,-18.33 852.63,-16.66"/>
<polygon fill="#63b8ff" stroke="#63b8ff" points="853.32,-13.22 843.01,-15.65 852.59,-20.18 853.32,-13.22"/>
</a>
</g>
<g id="a_edge18&#45;headlabel"><a xlink:href="dir_000074_000010.html" target="_top" xlink:title="4">
<text text-anchor="middle" x="855.69" y="-6.73" font-family="Helvetica,sans-Serif" font-size="10.00" fill="#63b8ff">4</text>
</a>
</g>
</g>
<!-- dir_4d99cfd5505f921b61c4eae3c76dc75f&#45;&gt;dir_d44c64559bbebec7f509842c48db8b23 -->
<g id="edge19" class="edge">
<title>dir_4d99cfd5505f921b61c4eae3c76dc75f&#45;&gt;dir_d44c64559bbebec7f509842c48db8b23</title>
<g id="a_edge19"><a xlink:href="dir_000074_000013.html" target="_top">
<path fill="none" stroke="#63b8ff" d="M1320.31,-57.24C1315.58,-51.68 1308.73,-44.95 1301,-41.51 1242.97,-15.7 1052.4,-12.78 973.1,-12.71"/>
<polygon fill="#63b8ff" stroke="#63b8ff" points="973.32,-9.21 963.32,-12.72 973.32,-16.21 973.32,-9.21"/>
</a>
</g>
<g id="a_edge19&#45;headlabel"><a xlink:href="dir_000074_000013.html" target="_top" xlink:title="3">
<text text-anchor="middle" x="975.39" y="-2.49" font-family="Helvetica,sans-Serif" font-size="10.00" fill="#63b8ff">3</text>
</a>
</g>
</g>
<!-- dir_16b966a18393853074d5fe146ac33cca -->
<g id="node13" class="node">
<title>dir_16b966a18393853074d5fe146ac33cca</title>
<g id="a_node13"><a xlink:href="dir_16b966a18393853074d5fe146ac33cca.html" target="_top" xlink:title="TSceptar">
<polygon fill="#a2b4d6" stroke="#404040" points="1291.88,-76.76 1236.12,-76.76 1236.12,-57.51 1291.88,-57.51 1291.88,-76.76"/>
<text text-anchor="middle" x="1264" y="-63.26" font-family="Helvetica,sans-Serif" font-size="10.00">TSceptar</text>
</a>
</g>
</g>
<!-- dir_16b966a18393853074d5fe146ac33cca&#45;&gt;dir_c355ed69a9ff804c1251ec805b2844ab -->
<g id="edge20" class="edge">
<title>dir_16b966a18393853074d5fe146ac33cca&#45;&gt;dir_c355ed69a9ff804c1251ec805b2844ab</title>
<g id="a_edge20"><a xlink:href="dir_000075_000010.html" target="_top">
<path fill="none" stroke="#63b8ff" d="M1253.79,-57.19C1246.77,-51.6 1236.95,-44.86 1227,-41.51 1159.26,-18.71 977.24,-27.22 906,-21.51 888.39,-20.1 868.83,-18.22 852.64,-16.57"/>
<polygon fill="#63b8ff" stroke="#63b8ff" points="853.32,-13.12 843.02,-15.58 852.6,-20.08 853.32,-13.12"/>
</a>
</g>
<g id="a_edge20&#45;headlabel"><a xlink:href="dir_000075_000010.html" target="_top" xlink:title="3">
<text text-anchor="middle" x="855.68" y="-6.64" font-family="Helvetica,sans-Serif" font-size="10.00" fill="#63b8ff">3</text>
</a>
</g>
</g>
<!-- dir_16b966a18393853074d5fe146ac33cca&#45;&gt;dir_d44c64559bbebec7f509842c48db8b23 -->
<g id="edge21" class="edge">
<title>dir_16b966a18393853074d5fe146ac33cca&#45;&gt;dir_d44c64559bbebec7f509842c48db8b23</title>
<g id="a_edge21"><a xlink:href="dir_000075_000013.html" target="_top">
<path fill="none" stroke="#63b8ff" d="M1253.43,-57.06C1246.42,-51.57 1236.74,-44.99 1227,-41.51 1181.07,-25.11 1039.52,-17.15 973.09,-14.24"/>
<polygon fill="#63b8ff" stroke="#63b8ff" points="973.26,-10.75 963.12,-13.82 972.96,-17.74 973.26,-10.75"/>
</a>
</g>
<g id="a_edge21&#45;headlabel"><a xlink:href="dir_000075_000013.html" target="_top" xlink:title="2">
<text text-anchor="middle" x="975.46" y="-4.12" font-family="Helvetica,sans-Serif" font-size="10.00" fill="#63b8ff">2</text>
</a>
</g>
</g>
<!-- dir_50352e263f8119c6746fa440b6a9cc8a -->
<g id="node14" class="node">
<title>dir_50352e263f8119c6746fa440b6a9cc8a</title>
<g id="a_node14"><a xlink:href="dir_50352e263f8119c6746fa440b6a9cc8a.html" target="_top" xlink:title="TSharc">
<polygon fill="#a2b4d6" stroke="#404040" points="1217.75,-76.76 1170.25,-76.76 1170.25,-57.51 1217.75,-57.51 1217.75,-76.76"/>
<text text-anchor="middle" x="1194" y="-63.26" font-family="Helvetica,sans-Serif" font-size="10.00">TSharc</text>
</a>
</g>
</g>
<!-- dir_50352e263f8119c6746fa440b6a9cc8a&#45;&gt;dir_c355ed69a9ff804c1251ec805b2844ab -->
<g id="edge22" class="edge">
<title>dir_50352e263f8119c6746fa440b6a9cc8a&#45;&gt;dir_c355ed69a9ff804c1251ec805b2844ab</title>
<g id="a_edge22"><a xlink:href="dir_000076_000010.html" target="_top">
<path fill="none" stroke="#63b8ff" d="M1185.04,-57.23C1178.84,-51.67 1170.1,-44.93 1161,-41.51 1107.8,-21.51 962.62,-26.51 906,-21.51 888.4,-19.96 868.85,-18.06 852.65,-16.44"/>
<polygon fill="#63b8ff" stroke="#63b8ff" points="853.33,-12.99 843.03,-15.47 852.62,-19.96 853.33,-12.99"/>
</a>
</g>
<g id="a_edge22&#45;headlabel"><a xlink:href="dir_000076_000010.html" target="_top" xlink:title="3">
<text text-anchor="middle" x="855.68" y="-6.5" font-family="Helvetica,sans-Serif" font-size="10.00" fill="#63b8ff">3</text>
</a>
</g>
</g>
<!-- dir_50352e263f8119c6746fa440b6a9cc8a&#45;&gt;dir_d44c64559bbebec7f509842c48db8b23 -->
<g id="edge23" class="edge">
<title>dir_50352e263f8119c6746fa440b6a9cc8a&#45;&gt;dir_d44c64559bbebec7f509842c48db8b23</title>
<g id="a_edge23"><a xlink:href="dir_000076_000013.html" target="_top">
<path fill="none" stroke="#63b8ff" d="M1184.71,-57.14C1178.51,-51.68 1169.88,-45.1 1161,-41.51 1098.35,-16.17 1018.45,-12.02 973.28,-11.98"/>
<polygon fill="#63b8ff" stroke="#63b8ff" points="973.26,-8.48 963.29,-12.05 973.31,-15.48 973.26,-8.48"/>
</a>
</g>
<g id="a_edge23&#45;headlabel"><a xlink:href="dir_000076_000013.html" target="_top" xlink:title="2">
<text text-anchor="middle" x="975.33" y="-1.75" font-family="Helvetica,sans-Serif" font-size="10.00" fill="#63b8ff">2</text>
</a>
</g>
</g>
<!-- dir_78f7d5e3c66d21c85688ebc1c1dd129a -->
<g id="node15" class="node">
<title>dir_78f7d5e3c66d21c85688ebc1c1dd129a</title>
<g id="a_node15"><a xlink:href="dir_78f7d5e3c66d21c85688ebc1c1dd129a.html" target="_top" xlink:title="TSharc2">
<polygon fill="#a2b4d6" stroke="#404040" points="1152.38,-76.76 1099.62,-76.76 1099.62,-57.51 1152.38,-57.51 1152.38,-76.76"/>
<text text-anchor="middle" x="1126" y="-63.26" font-family="Helvetica,sans-Serif" font-size="10.00">TSharc2</text>
</a>
</g>
</g>
<!-- dir_78f7d5e3c66d21c85688ebc1c1dd129a&#45;&gt;dir_c355ed69a9ff804c1251ec805b2844ab -->
<g id="edge24" class="edge">
<title>dir_78f7d5e3c66d21c85688ebc1c1dd129a&#45;&gt;dir_c355ed69a9ff804c1251ec805b2844ab</title>
<g id="a_edge24"><a xlink:href="dir_000077_000010.html" target="_top">
<path fill="none" stroke="#63b8ff" d="M1116.08,-57.07C1109.47,-51.59 1100.32,-45.01 1091,-41.51 1085.48,-39.44 925.22,-23.45 852.86,-16.31"/>
<polygon fill="#63b8ff" stroke="#63b8ff" points="853.44,-12.85 843.14,-15.36 852.75,-19.82 853.44,-12.85"/>
</a>
</g>
<g id="a_edge24&#45;headlabel"><a xlink:href="dir_000077_000010.html" target="_top" xlink:title="3">
<text text-anchor="middle" x="855.79" y="-6.36" font-family="Helvetica,sans-Serif" font-size="10.00" fill="#63b8ff">3</text>
</a>
</g>
</g>
<!-- dir_78f7d5e3c66d21c85688ebc1c1dd129a&#45;&gt;dir_d44c64559bbebec7f509842c48db8b23 -->
<g id="edge25" class="edge">
<title>dir_78f7d5e3c66d21c85688ebc1c1dd129a&#45;&gt;dir_d44c64559bbebec7f509842c48db8b23</title>
<g id="a_edge25"><a xlink:href="dir_000077_000013.html" target="_top">
<path fill="none" stroke="#63b8ff" d="M1115.68,-57.08C1109.06,-51.75 1100.04,-45.32 1091,-41.51 1052.58,-25.31 1004.9,-18.24 973.07,-15.18"/>
<polygon fill="#63b8ff" stroke="#63b8ff" points="973.47,-11.7 963.21,-14.33 972.87,-18.68 973.47,-11.7"/>
</a>
</g>
<g id="a_edge25&#45;headlabel"><a xlink:href="dir_000077_000013.html" target="_top" xlink:title="2">
<text text-anchor="middle" x="975.79" y="-5.18" font-family="Helvetica,sans-Serif" font-size="10.00" fill="#63b8ff">2</text>
</a>
</g>
</g>
<!-- dir_e38e57e74a772ab572f3fbdd81260eb7 -->
<g id="node16" class="node">
<title>dir_e38e57e74a772ab572f3fbdd81260eb7</title>
<g id="a_node16"><a xlink:href="dir_e38e57e74a772ab572f3fbdd81260eb7.html" target="_top" xlink:title="TSiLi">
<polygon fill="#a2b4d6" stroke="#404040" points="1081.62,-76.76 1042.38,-76.76 1042.38,-57.51 1081.62,-57.51 1081.62,-76.76"/>
<text text-anchor="middle" x="1062" y="-63.26" font-family="Helvetica,sans-Serif" font-size="10.00">TSiLi</text>
</a>
</g>
</g>
<!-- dir_e38e57e74a772ab572f3fbdd81260eb7&#45;&gt;dir_c355ed69a9ff804c1251ec805b2844ab -->
<g id="edge26" class="edge">
<title>dir_e38e57e74a772ab572f3fbdd81260eb7&#45;&gt;dir_c355ed69a9ff804c1251ec805b2844ab</title>
<g id="a_edge26"><a xlink:href="dir_000078_000010.html" target="_top">
<path fill="none" stroke="#63b8ff" d="M1054.59,-57.38C1049.42,-51.88 1042.02,-45.16 1034,-41.51 1017.88,-34.19 909.85,-22.27 852.94,-16.39"/>
<polygon fill="#63b8ff" stroke="#63b8ff" points="853.43,-12.93 843.13,-15.39 852.72,-19.89 853.43,-12.93"/>
</a>
</g>
<g id="a_edge26&#45;headlabel"><a xlink:href="dir_000078_000010.html" target="_top" xlink:title="3">
<text text-anchor="middle" x="855.79" y="-6.44" font-family="Helvetica,sans-Serif" font-size="10.00" fill="#63b8ff">3</text>
</a>
</g>
</g>
<!-- dir_e38e57e74a772ab572f3fbdd81260eb7&#45;&gt;dir_d44c64559bbebec7f509842c48db8b23 -->
<g id="edge27" class="edge">
<title>dir_e38e57e74a772ab572f3fbdd81260eb7&#45;&gt;dir_d44c64559bbebec7f509842c48db8b23</title>
<g id="a_edge27"><a xlink:href="dir_000078_000013.html" target="_top">
<path fill="none" stroke="#63b8ff" d="M1053.92,-57.32C1048.69,-52.07 1041.48,-45.65 1034,-41.51 1014.97,-30.98 991.63,-23.91 972.72,-19.43"/>
<polygon fill="#63b8ff" stroke="#63b8ff" points="973.6,-16.04 963.08,-17.29 972.09,-22.87 973.6,-16.04"/>
</a>
</g>
<g id="a_edge27&#45;headlabel"><a xlink:href="dir_000078_000013.html" target="_top" xlink:title="1">
<text text-anchor="middle" x="976.25" y="-9.84" font-family="Helvetica,sans-Serif" font-size="10.00" fill="#63b8ff">1</text>
</a>
</g>
</g>
<!-- dir_5f056cdb9dd74bb3611fd0eeba65134a -->
<g id="node17" class="node">
<title>dir_5f056cdb9dd74bb3611fd0eeba65134a</title>
<g id="a_node17"><a xlink:href="dir_5f056cdb9dd74bb3611fd0eeba65134a.html" target="_top" xlink:title="TTAC">
<polygon fill="#a2b4d6" stroke="#404040" points="1024.75,-76.76 983.25,-76.76 983.25,-57.51 1024.75,-57.51 1024.75,-76.76"/>
<text text-anchor="middle" x="1004" y="-63.26" font-family="Helvetica,sans-Serif" font-size="10.00">TTAC</text>
</a>
</g>
</g>
<!-- dir_5f056cdb9dd74bb3611fd0eeba65134a&#45;&gt;dir_c355ed69a9ff804c1251ec805b2844ab -->
<g id="edge28" class="edge">
<title>dir_5f056cdb9dd74bb3611fd0eeba65134a&#45;&gt;dir_c355ed69a9ff804c1251ec805b2844ab</title>
<g id="a_edge28"><a xlink:href="dir_000081_000010.html" target="_top">
<path fill="none" stroke="#63b8ff" d="M995.38,-57.04C989.79,-51.69 982.07,-45.26 974,-41.51 953,-31.77 892.31,-22.48 853.11,-17.25"/>
<polygon fill="#63b8ff" stroke="#63b8ff" points="853.58,-13.78 843.21,-15.96 852.67,-20.72 853.58,-13.78"/>
</a>
</g>
<g id="a_edge28&#45;headlabel"><a xlink:href="dir_000081_000010.html" target="_top" xlink:title="3">
<text text-anchor="middle" x="856.01" y="-7.36" font-family="Helvetica,sans-Serif" font-size="10.00" fill="#63b8ff">3</text>
</a>
</g>
</g>
<!-- dir_5f056cdb9dd74bb3611fd0eeba65134a&#45;&gt;dir_d44c64559bbebec7f509842c48db8b23 -->
<g id="edge29" class="edge">
<title>dir_5f056cdb9dd74bb3611fd0eeba65134a&#45;&gt;dir_d44c64559bbebec7f509842c48db8b23</title>
<g id="a_edge29"><a xlink:href="dir_000081_000013.html" target="_top">
<path fill="none" stroke="#63b8ff" d="M993.2,-57.21C987.51,-52.51 980.39,-46.68 974,-41.51 968.88,-37.37 963.32,-32.93 958.13,-28.81"/>
<polygon fill="#63b8ff" stroke="#63b8ff" points="960.58,-26.28 950.57,-22.81 956.23,-31.76 960.58,-26.28"/>
</a>
</g>
<g id="a_edge29&#45;headlabel"><a xlink:href="dir_000081_000013.html" target="_top" xlink:title="1">
<text text-anchor="middle" x="963.98" y="-21.47" font-family="Helvetica,sans-Serif" font-size="10.00" fill="#63b8ff">1</text>
</a>
</g>
</g>
<!-- dir_d7ccf6c4ee2c5d49aa2ecef4d80cc5aa -->
<g id="node18" class="node">
<title>dir_d7ccf6c4ee2c5d49aa2ecef4d80cc5aa</title>
<g id="a_node18"><a xlink:href="dir_d7ccf6c4ee2c5d49aa2ecef4d80cc5aa.html" target="_top" xlink:title="TTigress">
<polygon fill="#a2b4d6" stroke="#404040" points="965.12,-76.76 910.88,-76.76 910.88,-57.51 965.12,-57.51 965.12,-76.76"/>
<text text-anchor="middle" x="938" y="-63.26" font-family="Helvetica,sans-Serif" font-size="10.00">TTigress</text>
</a>
</g>
</g>
<!-- dir_d7ccf6c4ee2c5d49aa2ecef4d80cc5aa&#45;&gt;dir_c355ed69a9ff804c1251ec805b2844ab -->
<g id="edge30" class="edge">
<title>dir_d7ccf6c4ee2c5d49aa2ecef4d80cc5aa&#45;&gt;dir_c355ed69a9ff804c1251ec805b2844ab</title>
<g id="a_edge30"><a xlink:href="dir_000090_000010.html" target="_top">
<path fill="none" stroke="#63b8ff" d="M926.5,-57.08C919.67,-52.01 910.67,-45.85 902,-41.51 886.37,-33.69 868.09,-27.18 852.59,-22.35"/>
<polygon fill="#63b8ff" stroke="#63b8ff" points="853.9,-19.09 843.31,-19.57 851.89,-25.79 853.9,-19.09"/>
</a>
</g>
<g id="a_edge30&#45;headlabel"><a xlink:href="dir_000090_000010.html" target="_top" xlink:title="3">
<text text-anchor="middle" x="856.71" y="-13.09" font-family="Helvetica,sans-Serif" font-size="10.00" fill="#63b8ff">3</text>
</a>
</g>
</g>
<!-- dir_d7ccf6c4ee2c5d49aa2ecef4d80cc5aa&#45;&gt;dir_d44c64559bbebec7f509842c48db8b23 -->
<g id="edge31" class="edge">
<title>dir_d7ccf6c4ee2c5d49aa2ecef4d80cc5aa&#45;&gt;dir_d44c64559bbebec7f509842c48db8b23</title>
<g id="a_edge31"><a xlink:href="dir_000090_000013.html" target="_top">
<path fill="none" stroke="#63b8ff" d="M938,-57.34C938,-50.83 938,-41.69 938,-33.38"/>
<polygon fill="#63b8ff" stroke="#63b8ff" points="941.5,-33.39 938,-23.39 934.5,-33.39 941.5,-33.39"/>
</a>
</g>
<g id="a_edge31&#45;headlabel"><a xlink:href="dir_000090_000013.html" target="_top" xlink:title="2">
<text text-anchor="middle" x="944.34" y="-31.59" font-family="Helvetica,sans-Serif" font-size="10.00" fill="#63b8ff">2</text>
</a>
</g>
</g>
<!-- dir_5e08983b1f3b33eef3f396fa87b3843f -->
<g id="node19" class="node">
<title>dir_5e08983b1f3b33eef3f396fa87b3843f</title>
<g id="a_node19"><a xlink:href="dir_5e08983b1f3b33eef3f396fa87b3843f.html" target="_top" xlink:title="TTip">
<polygon fill="#a2b4d6" stroke="#404040" points="892.75,-76.76 857.25,-76.76 857.25,-57.51 892.75,-57.51 892.75,-76.76"/>
<text text-anchor="middle" x="875" y="-63.26" font-family="Helvetica,sans-Serif" font-size="10.00">TTip</text>
</a>
</g>
</g>
<!-- dir_5e08983b1f3b33eef3f396fa87b3843f&#45;&gt;dir_c355ed69a9ff804c1251ec805b2844ab -->
<g id="edge32" class="edge">
<title>dir_5e08983b1f3b33eef3f396fa87b3843f&#45;&gt;dir_c355ed69a9ff804c1251ec805b2844ab</title>
<g id="a_edge32"><a xlink:href="dir_000091_000010.html" target="_top">
<path fill="none" stroke="#63b8ff" d="M865.88,-57.45C860.91,-52.72 854.63,-46.78 849,-41.51 844.81,-37.59 840.28,-33.39 836.01,-29.44"/>
<polygon fill="#63b8ff" stroke="#63b8ff" points="838.64,-27.11 828.92,-22.91 833.9,-32.26 838.64,-27.11"/>
</a>
</g>
<g id="a_edge32&#45;headlabel"><a xlink:href="dir_000091_000010.html" target="_top" xlink:title="3">
<text text-anchor="middle" x="842.09" y="-22.56" font-family="Helvetica,sans-Serif" font-size="10.00" fill="#63b8ff">3</text>
</a>
</g>
</g>
<!-- dir_5e08983b1f3b33eef3f396fa87b3843f&#45;&gt;dir_d44c64559bbebec7f509842c48db8b23 -->
<g id="edge33" class="edge">
<title>dir_5e08983b1f3b33eef3f396fa87b3843f&#45;&gt;dir_d44c64559bbebec7f509842c48db8b23</title>
<g id="a_edge33"><a xlink:href="dir_000091_000013.html" target="_top">
<path fill="none" stroke="#63b8ff" d="M884.61,-57.09C889.7,-52.36 896.11,-46.53 902,-41.51 906.94,-37.31 912.37,-32.89 917.48,-28.81"/>
<polygon fill="#63b8ff" stroke="#63b8ff" points="919.28,-31.85 924.98,-22.91 914.95,-26.35 919.28,-31.85"/>
</a>
</g>
<g id="a_edge33&#45;headlabel"><a xlink:href="dir_000091_000013.html" target="_top" xlink:title="1">
<text text-anchor="middle" x="919.41" y="-31.49" font-family="Helvetica,sans-Serif" font-size="10.00" fill="#63b8ff">1</text>
</a>
</g>
</g>
<!-- dir_2958022ccd904c4970b119e7b1daa5de -->
<g id="node20" class="node">
<title>dir_2958022ccd904c4970b119e7b1daa5de</title>
<g id="a_node20"><a xlink:href="dir_2958022ccd904c4970b119e7b1daa5de.html" target="_top" xlink:title="TTrific">
<polygon fill="#a2b4d6" stroke="#404040" points="839.5,-76.76 796.5,-76.76 796.5,-57.51 839.5,-57.51 839.5,-76.76"/>
<text text-anchor="middle" x="818" y="-63.26" font-family="Helvetica,sans-Serif" font-size="10.00">TTrific</text>
</a>
</g>
</g>
<!-- dir_2958022ccd904c4970b119e7b1daa5de&#45;&gt;dir_c355ed69a9ff804c1251ec805b2844ab -->
<g id="edge34" class="edge">
<title>dir_2958022ccd904c4970b119e7b1daa5de&#45;&gt;dir_c355ed69a9ff804c1251ec805b2844ab</title>
<g id="a_edge34"><a xlink:href="dir_000092_000010.html" target="_top">
<path fill="none" stroke="#63b8ff" d="M818,-57.34C818,-50.83 818,-41.69 818,-33.38"/>
<polygon fill="#63b8ff" stroke="#63b8ff" points="821.5,-33.39 818,-23.39 814.5,-33.39 821.5,-33.39"/>
</a>
</g>
<g id="a_edge34&#45;headlabel"><a xlink:href="dir_000092_000010.html" target="_top" xlink:title="3">
<text text-anchor="middle" x="824.34" y="-31.59" font-family="Helvetica,sans-Serif" font-size="10.00" fill="#63b8ff">3</text>
</a>
</g>
</g>
<!-- dir_2958022ccd904c4970b119e7b1daa5de&#45;&gt;dir_d44c64559bbebec7f509842c48db8b23 -->
<g id="edge35" class="edge">
<title>dir_2958022ccd904c4970b119e7b1daa5de&#45;&gt;dir_d44c64559bbebec7f509842c48db8b23</title>
<g id="a_edge35"><a xlink:href="dir_000092_000013.html" target="_top">
<path fill="none" stroke="#63b8ff" d="M827.05,-57.15C832.69,-51.98 840.3,-45.69 848,-41.51 865.37,-32.08 886.35,-25.18 903.68,-20.52"/>
<polygon fill="#63b8ff" stroke="#63b8ff" points="904.17,-24.01 913,-18.15 902.44,-17.22 904.17,-24.01"/>
</a>
</g>
<g id="a_edge35&#45;headlabel"><a xlink:href="dir_000092_000013.html" target="_top" xlink:title="1">
<text text-anchor="middle" x="902.85" y="-23.4" font-family="Helvetica,sans-Serif" font-size="10.00" fill="#63b8ff">1</text>
</a>
</g>
</g>
<!-- dir_0750aac0d8bf2e4119c641f3efdb3d14 -->
<g id="node21" class="node">
<title>dir_0750aac0d8bf2e4119c641f3efdb3d14</title>
<g id="a_node21"><a xlink:href="dir_0750aac0d8bf2e4119c641f3efdb3d14.html" target="_top" xlink:title="TTriFoil">
<polygon fill="#a2b4d6" stroke="#404040" points="73.5,-76.76 24.5,-76.76 24.5,-57.51 73.5,-57.51 73.5,-76.76"/>
<text text-anchor="middle" x="49" y="-63.26" font-family="Helvetica,sans-Serif" font-size="10.00">TTriFoil</text>
</a>
</g>
</g>
<!-- dir_0750aac0d8bf2e4119c641f3efdb3d14&#45;&gt;dir_c355ed69a9ff804c1251ec805b2844ab -->
<g id="edge36" class="edge">
<title>dir_0750aac0d8bf2e4119c641f3efdb3d14&#45;&gt;dir_c355ed69a9ff804c1251ec805b2844ab</title>
<g id="a_edge36"><a xlink:href="dir_000093_000010.html" target="_top">
<path fill="none" stroke="#63b8ff" d="M57.91,-57.12C64.09,-51.5 72.83,-44.75 82,-41.51 148.41,-18.02 645.78,-13.76 783.02,-13.03"/>
<polygon fill="#63b8ff" stroke="#63b8ff" points="782.94,-16.53 792.93,-12.98 782.91,-9.53 782.94,-16.53"/>
</a>
</g>
<g id="a_edge36&#45;headlabel"><a xlink:href="dir_000093_000010.html" target="_top" xlink:title="1">
<text text-anchor="middle" x="780.88" y="-15.51" font-family="Helvetica,sans-Serif" font-size="10.00" fill="#63b8ff">1</text>
</a>
</g>
</g>
<!-- dir_4925a956edac1f5a41aa2a78deadb7b0 -->
<g id="node22" class="node">
<title>dir_4925a956edac1f5a41aa2a78deadb7b0</title>
<g id="a_node22"><a xlink:href="dir_4925a956edac1f5a41aa2a78deadb7b0.html" target="_top" xlink:title="TZeroDegree">
<polygon fill="#a2b4d6" stroke="#404040" points="778.12,-76.76 705.88,-76.76 705.88,-57.51 778.12,-57.51 778.12,-76.76"/>
<text text-anchor="middle" x="742" y="-63.26" font-family="Helvetica,sans-Serif" font-size="10.00">TZeroDegree</text>
</a>
</g>
</g>
<!-- dir_4925a956edac1f5a41aa2a78deadb7b0&#45;&gt;dir_c355ed69a9ff804c1251ec805b2844ab -->
<g id="edge37" class="edge">
<title>dir_4925a956edac1f5a41aa2a78deadb7b0&#45;&gt;dir_c355ed69a9ff804c1251ec805b2844ab</title>
<g id="a_edge37"><a xlink:href="dir_000094_000010.html" target="_top">
<path fill="none" stroke="#63b8ff" d="M754.89,-57.1C766.03,-49.3 782.37,-37.85 795.64,-28.56"/>
<polygon fill="#63b8ff" stroke="#63b8ff" points="797.62,-31.44 803.8,-22.83 793.61,-25.71 797.62,-31.44"/>
</a>
</g>
<g id="a_edge37&#45;headlabel"><a xlink:href="dir_000094_000010.html" target="_top" xlink:title="3">
<text text-anchor="middle" x="797.55" y="-31.08" font-family="Helvetica,sans-Serif" font-size="10.00" fill="#63b8ff">3</text>
</a>
</g>
</g>
<!-- dir_4925a956edac1f5a41aa2a78deadb7b0&#45;&gt;dir_d44c64559bbebec7f509842c48db8b23 -->
<g id="edge38" class="edge">
<title>dir_4925a956edac1f5a41aa2a78deadb7b0&#45;&gt;dir_d44c64559bbebec7f509842c48db8b23</title>
<g id="a_edge38"><a xlink:href="dir_000094_000013.html" target="_top">
<path fill="none" stroke="#63b8ff" d="M755.99,-57.21C764.85,-51.92 776.73,-45.5 788,-41.51 826.23,-27.99 872.33,-20.41 903.24,-16.49"/>
<polygon fill="#63b8ff" stroke="#63b8ff" points="903.28,-20.01 912.79,-15.35 902.45,-13.06 903.28,-20.01"/>
</a>
</g>
<g id="a_edge38&#45;headlabel"><a xlink:href="dir_000094_000013.html" target="_top" xlink:title="5">
<text text-anchor="middle" x="901.55" y="-19.21" font-family="Helvetica,sans-Serif" font-size="10.00" fill="#63b8ff">5</text>
</a>
</g>
</g>
</g>
</svg>

<g id="navigator" transform="translate(0 0)" fill="#404254">
  <rect fill="#f2f5e9" fill-opacity="0.5" stroke="#606060" stroke-width=".5" x="0" y="0" width="60" height="60"/>
  <use id="zoomplus" xlink:href="#zoomPlus" x="17" y="9" onmousedown="handleZoom(evt,'in')"/>
  <use id="zoomminus" xlink:href="#zoomMin" x="42" y="9" onmousedown="handleZoom(evt,'out')"/>
  <use id="reset" xlink:href="#resetDef" x="30" y="36" onmousedown="handleReset()"/>
   <use id="arrowup" xlink:href="#arrowUp" x="0" y="0" onmousedown="handlePan(0,-1)"/>
  <use id="arrowright" xlink:href="#arrowRight" x="0" y="0" onmousedown="handlePan(1,0)"/>
  <use id="arrowdown" xlink:href="#arrowDown" x="0" y="0" onmousedown="handlePan(0,1)"/>
  <use id="arrowleft" xlink:href="#arrowLeft" x="0" y="0" onmousedown="handlePan(-1,0)"/>
</g>
<svg viewBox="0 0 15 15" width="100%" height="30px" preserveAspectRatio="xMaxYMin meet">
 <g id="arrow_out" transform="scale(0.3 0.3)">
  <a xlink:href="dir_f1ca9974b6d60d8551858194bc4a7b28_dep_org.svg" target="_base">
   <rect id="button" ry="5" rx="5" y="6" x="6" height="38" width="38"
        fill="#f2f5e9" fill-opacity="0.5" stroke="#606060" stroke-width="1.0"/>
   <path id="arrow"
     d="M 11.500037,31.436501 C 11.940474,20.09759 22.043105,11.32322 32.158766,21.979434 L 37.068811,17.246167 C 37.068811,17.246167 37.088388,32 37.088388,32 L 22.160133,31.978069 C 22.160133,31.978069 26.997745,27.140456 26.997745,27.140456 C 18.528582,18.264221 13.291696,25.230495 11.500037,31.436501 z"
     style="fill:#404040;"/>
  </a>
 </g>
</svg>

<style type='text/css'>
<![CDATA[
[data-mouse-over-selected='false'] { opacity: 0.7; }
[data-mouse-over-selected='true']  { opacity: 1.0; }
]]>
</style>
<script type="application/ecmascript"><![CDATA[
document.addEventListener('DOMContentLoaded', (event) => {
  highlightEdges();
  highlightAdjacentNodes();
});
]]></script>
</svg>
