<?xml version="1.0" encoding="UTF-8" standalone="no"?>
<!DOCTYPE svg PUBLIC "-//W3C//DTD SVG 1.1//EN"
 "http://www.w3.org/Graphics/SVG/1.1/DTD/svg11.dtd">
<!-- Generated by graphviz version 12.2.0 (20241103.1931)
 -->
<!-- Title: TGRSIAnalysis Pages: 1 -->
<svg width="1748pt" height="128pt"
 viewBox="0.00 0.00 1748.00 127.65" xmlns="http://www.w3.org/2000/svg" xmlns:xlink="http://www.w3.org/1999/xlink">
<g id="graph0" class="graph" transform="scale(1 1) rotate(0) translate(4 123.65)">
<title>TGRSIAnalysis</title>
<g id="clust1" class="cluster">
<title>clusterdir_04ded5cb9506aadc0b6d1c08d3b0ca72</title>
<g id="a_clust1"><a xlink:href="dir_04ded5cb9506aadc0b6d1c08d3b0ca72.html" target="_top" xlink:title="libraries">
<polygon fill="#edf0f7" stroke="#7f7f7f" stroke-dasharray="5,2" points="8,-41.15 8,-111.65 1732,-111.65 1732,-41.15 8,-41.15"/>
<text text-anchor="middle" x="870" y="-98.15" font-family="Helvetica,sans-Serif" font-size="10.00">libraries</text>
</a>
</g>
</g>
<g id="clust2" class="cluster">
<title>clusterdir_f1ca9974b6d60d8551858194bc4a7b28</title>
<g id="a_clust2"><a xlink:href="dir_f1ca9974b6d60d8551858194bc4a7b28.html" target="_top">
<polygon fill="#edf0f7" stroke="#404040" stroke-width="2" points="16,-49.15 16,-84.4 1724,-84.4 1724,-49.15 16,-49.15"/>
</a>
</g>
</g>
<!-- dir_f1ca9974b6d60d8551858194bc4a7b28 -->
<g id="node1" class="node">
<title>dir_f1ca9974b6d60d8551858194bc4a7b28</title>
<text text-anchor="middle" x="65" y="-62.9" font-family="Helvetica,sans-Serif" font-size="10.00">TGRSIAnalysis</text>
</g>
<!-- dir_7c637f2c38aea748f009e26d5869f12c -->
<g id="node2" class="node">
<title>dir_7c637f2c38aea748f009e26d5869f12c</title>
<g id="a_node2"><a xlink:href="dir_7c637f2c38aea748f009e26d5869f12c.html" target="_top" xlink:title="TAngularCorrelation">
<polygon fill="#a2b4d6" stroke="#404040" points="345.75,-76.4 244.25,-76.4 244.25,-57.15 345.75,-57.15 345.75,-76.4"/>
<text text-anchor="middle" x="295" y="-62.9" font-family="Helvetica,sans-Serif" font-size="10.00">TAngularCorrelation</text>
</a>
</g>
</g>
<!-- dir_c355ed69a9ff804c1251ec805b2844ab -->
<g id="node25" class="node">
<title>dir_c355ed69a9ff804c1251ec805b2844ab</title>
<g id="a_node25"><a xlink:href="dir_c355ed69a9ff804c1251ec805b2844ab.html" target="_top" xlink:title="include">
<polygon fill="#edf0f7" stroke="#7f7f7f" points="923.38,-21.15 876.62,-21.15 876.62,-1.9 923.38,-1.9 923.38,-21.15"/>
<text text-anchor="middle" x="900" y="-7.65" font-family="Helvetica,sans-Serif" font-size="10.00">include</text>
</a>
</g>
</g>
<!-- dir_7c637f2c38aea748f009e26d5869f12c&#45;&gt;dir_c355ed69a9ff804c1251ec805b2844ab -->
<g id="edge1" class="edge">
<title>dir_7c637f2c38aea748f009e26d5869f12c&#45;&gt;dir_c355ed69a9ff804c1251ec805b2844ab</title>
<g id="a_edge1"><a xlink:href="dir_000029_000010.html" target="_top">
<path fill="none" stroke="#63b8ff" d="M312.6,-56.71C324.29,-51.15 340.17,-44.48 355,-41.15 452.71,-19.2 760.63,-13.98 865.01,-12.83"/>
<polygon fill="#63b8ff" stroke="#63b8ff" points="864.94,-16.33 874.91,-12.73 864.87,-9.33 864.94,-16.33"/>
</a>
</g>
<g id="a_edge1&#45;headlabel"><a xlink:href="dir_000029_000010.html" target="_top" xlink:title="2">
<text text-anchor="middle" x="862.89" y="-15.32" font-family="Helvetica,sans-Serif" font-size="10.00" fill="#63b8ff">2</text>
</a>
</g>
</g>
<!-- dir_d5f934202f62ae6ddbc25736b529fd6d -->
<g id="node3" class="node">
<title>dir_d5f934202f62ae6ddbc25736b529fd6d</title>
<g id="a_node3"><a xlink:href="dir_d5f934202f62ae6ddbc25736b529fd6d.html" target="_top" xlink:title="TAries">
<polygon fill="#a2b4d6" stroke="#404040" points="1074.25,-76.4 1029.75,-76.4 1029.75,-57.15 1074.25,-57.15 1074.25,-76.4"/>
<text text-anchor="middle" x="1052" y="-62.9" font-family="Helvetica,sans-Serif" font-size="10.00">TAries</text>
</a>
</g>
</g>
<!-- dir_d5f934202f62ae6ddbc25736b529fd6d&#45;&gt;dir_c355ed69a9ff804c1251ec805b2844ab -->
<g id="edge2" class="edge">
<title>dir_d5f934202f62ae6ddbc25736b529fd6d&#45;&gt;dir_c355ed69a9ff804c1251ec805b2844ab</title>
<g id="a_edge2"><a xlink:href="dir_000030_000010.html" target="_top">
<path fill="none" stroke="#63b8ff" d="M1042.97,-56.83C1037.15,-51.54 1029.16,-45.11 1021,-41.15 993.67,-27.89 959.83,-20.56 934.89,-16.64"/>
<polygon fill="#63b8ff" stroke="#63b8ff" points="935.67,-13.22 925.27,-15.25 934.66,-20.15 935.67,-13.22"/>
</a>
</g>
<g id="a_edge2&#45;headlabel"><a xlink:href="dir_000030_000010.html" target="_top" xlink:title="3">
<text text-anchor="middle" x="938.13" y="-6.83" font-family="Helvetica,sans-Serif" font-size="10.00" fill="#63b8ff">3</text>
</a>
</g>
</g>
<!-- dir_d44c64559bbebec7f509842c48db8b23 -->
<g id="node26" class="node">
<title>dir_d44c64559bbebec7f509842c48db8b23</title>
<g id="a_node26"><a xlink:href="dir_d44c64559bbebec7f509842c48db8b23.html" target="_top" xlink:title="include">
<polygon fill="#edf0f7" stroke="#404040" points="1075.38,-21.15 1028.62,-21.15 1028.62,-1.9 1075.38,-1.9 1075.38,-21.15"/>
<text text-anchor="middle" x="1052" y="-7.65" font-family="Helvetica,sans-Serif" font-size="10.00">include</text>
</a>
</g>
</g>
<!-- dir_d5f934202f62ae6ddbc25736b529fd6d&#45;&gt;dir_d44c64559bbebec7f509842c48db8b23 -->
<g id="edge3" class="edge">
<title>dir_d5f934202f62ae6ddbc25736b529fd6d&#45;&gt;dir_d44c64559bbebec7f509842c48db8b23</title>
<g id="a_edge3"><a xlink:href="dir_000030_000013.html" target="_top">
<path fill="none" stroke="#63b8ff" d="M1052,-56.98C1052,-50.47 1052,-41.32 1052,-33.02"/>
<polygon fill="#63b8ff" stroke="#63b8ff" points="1055.5,-33.02 1052,-23.02 1048.5,-33.02 1055.5,-33.02"/>
</a>
</g>
<g id="a_edge3&#45;headlabel"><a xlink:href="dir_000030_000013.html" target="_top" xlink:title="2">
<text text-anchor="middle" x="1058.34" y="-31.23" font-family="Helvetica,sans-Serif" font-size="10.00" fill="#63b8ff">2</text>
</a>
</g>
</g>
<!-- dir_12553313af44d73e96f5a41551948ad9 -->
<g id="node4" class="node">
<title>dir_12553313af44d73e96f5a41551948ad9</title>
<g id="a_node4"><a xlink:href="dir_12553313af44d73e96f5a41551948ad9.html" target="_top" xlink:title="TCSM">
<polygon fill="#a2b4d6" stroke="#404040" points="407.88,-76.4 364.12,-76.4 364.12,-57.15 407.88,-57.15 407.88,-76.4"/>
<text text-anchor="middle" x="386" y="-62.9" font-family="Helvetica,sans-Serif" font-size="10.00">TCSM</text>
</a>
</g>
</g>
<!-- dir_12553313af44d73e96f5a41551948ad9&#45;&gt;dir_c355ed69a9ff804c1251ec805b2844ab -->
<g id="edge4" class="edge">
<title>dir_12553313af44d73e96f5a41551948ad9&#45;&gt;dir_c355ed69a9ff804c1251ec805b2844ab</title>
<g id="a_edge4"><a xlink:href="dir_000034_000010.html" target="_top">
<path fill="none" stroke="#63b8ff" d="M394.29,-56.82C400.07,-51.23 408.27,-44.49 417,-41.15 458.46,-25.3 760.76,-16.11 864.87,-13.39"/>
<polygon fill="#63b8ff" stroke="#63b8ff" points="864.86,-16.89 874.77,-13.13 864.68,-9.89 864.86,-16.89"/>
</a>
</g>
<g id="a_edge4&#45;headlabel"><a xlink:href="dir_000034_000010.html" target="_top" xlink:title="2">
<text text-anchor="middle" x="862.85" y="-15.9" font-family="Helvetica,sans-Serif" font-size="10.00" fill="#63b8ff">2</text>
</a>
</g>
</g>
<!-- dir_b5961c678ebe878120c028a0fa1d54ee -->
<g id="node5" class="node">
<title>dir_b5961c678ebe878120c028a0fa1d54ee</title>
<g id="a_node5"><a xlink:href="dir_b5961c678ebe878120c028a0fa1d54ee.html" target="_top" xlink:title="TDemand">
<polygon fill="#a2b4d6" stroke="#404040" points="1150,-76.4 1092,-76.4 1092,-57.15 1150,-57.15 1150,-76.4"/>
<text text-anchor="middle" x="1121" y="-62.9" font-family="Helvetica,sans-Serif" font-size="10.00">TDemand</text>
</a>
</g>
</g>
<!-- dir_b5961c678ebe878120c028a0fa1d54ee&#45;&gt;dir_c355ed69a9ff804c1251ec805b2844ab -->
<g id="edge5" class="edge">
<title>dir_b5961c678ebe878120c028a0fa1d54ee&#45;&gt;dir_c355ed69a9ff804c1251ec805b2844ab</title>
<g id="a_edge5"><a xlink:href="dir_000036_000010.html" target="_top">
<path fill="none" stroke="#63b8ff" d="M1110.04,-56.89C1102.79,-51.48 1092.84,-44.91 1083,-41.15 1033.81,-22.35 972.66,-15.89 934.98,-13.67"/>
<polygon fill="#63b8ff" stroke="#63b8ff" points="935.3,-10.19 925.13,-13.17 934.94,-17.18 935.3,-10.19"/>
</a>
</g>
<g id="a_edge5&#45;headlabel"><a xlink:href="dir_000036_000010.html" target="_top" xlink:title="3">
<text text-anchor="middle" x="937.52" y="-3.58" font-family="Helvetica,sans-Serif" font-size="10.00" fill="#63b8ff">3</text>
</a>
</g>
</g>
<!-- dir_b5961c678ebe878120c028a0fa1d54ee&#45;&gt;dir_d44c64559bbebec7f509842c48db8b23 -->
<g id="edge6" class="edge">
<title>dir_b5961c678ebe878120c028a0fa1d54ee&#45;&gt;dir_d44c64559bbebec7f509842c48db8b23</title>
<g id="a_edge6"><a xlink:href="dir_000036_000013.html" target="_top">
<path fill="none" stroke="#63b8ff" d="M1109.3,-56.74C1099.22,-48.97 1084.46,-37.57 1072.44,-28.3"/>
<polygon fill="#63b8ff" stroke="#63b8ff" points="1074.79,-25.69 1064.73,-22.35 1070.51,-31.23 1074.79,-25.69"/>
</a>
</g>
<g id="a_edge6&#45;headlabel"><a xlink:href="dir_000036_000013.html" target="_top" xlink:title="3">
<text text-anchor="middle" x="1078.17" y="-20.84" font-family="Helvetica,sans-Serif" font-size="10.00" fill="#63b8ff">3</text>
</a>
</g>
</g>
<!-- dir_3255d4326b963e3cb310054928d3057b -->
<g id="node6" class="node">
<title>dir_3255d4326b963e3cb310054928d3057b</title>
<g id="a_node6"><a xlink:href="dir_3255d4326b963e3cb310054928d3057b.html" target="_top" xlink:title="TDescant">
<polygon fill="#a2b4d6" stroke="#404040" points="1226,-76.4 1168,-76.4 1168,-57.15 1226,-57.15 1226,-76.4"/>
<text text-anchor="middle" x="1197" y="-62.9" font-family="Helvetica,sans-Serif" font-size="10.00">TDescant</text>
</a>
</g>
</g>
<!-- dir_3255d4326b963e3cb310054928d3057b&#45;&gt;dir_c355ed69a9ff804c1251ec805b2844ab -->
<g id="edge7" class="edge">
<title>dir_3255d4326b963e3cb310054928d3057b&#45;&gt;dir_c355ed69a9ff804c1251ec805b2844ab</title>
<g id="a_edge7"><a xlink:href="dir_000037_000010.html" target="_top">
<path fill="none" stroke="#63b8ff" d="M1186.1,-56.74C1178.87,-51.27 1168.92,-44.69 1159,-41.15 1138.39,-33.8 1001.02,-21.21 935.13,-15.5"/>
<polygon fill="#63b8ff" stroke="#63b8ff" points="935.48,-12.02 925.21,-14.65 934.87,-18.99 935.48,-12.02"/>
</a>
</g>
<g id="a_edge7&#45;headlabel"><a xlink:href="dir_000037_000010.html" target="_top" xlink:title="4">
<text text-anchor="middle" x="937.79" y="-5.49" font-family="Helvetica,sans-Serif" font-size="10.00" fill="#63b8ff">4</text>
</a>
</g>
</g>
<!-- dir_3255d4326b963e3cb310054928d3057b&#45;&gt;dir_d44c64559bbebec7f509842c48db8b23 -->
<g id="edge8" class="edge">
<title>dir_3255d4326b963e3cb310054928d3057b&#45;&gt;dir_d44c64559bbebec7f509842c48db8b23</title>
<g id="a_edge8"><a xlink:href="dir_000037_000013.html" target="_top">
<path fill="none" stroke="#63b8ff" d="M1185.23,-56.77C1177.99,-51.59 1168.34,-45.3 1159,-41.15 1135.87,-30.87 1108.24,-23.6 1086.85,-18.95"/>
<polygon fill="#63b8ff" stroke="#63b8ff" points="1087.66,-15.55 1077.16,-16.95 1086.24,-22.4 1087.66,-15.55"/>
</a>
</g>
<g id="a_edge8&#45;headlabel"><a xlink:href="dir_000037_000013.html" target="_top" xlink:title="6">
<text text-anchor="middle" x="1090.27" y="-9.31" font-family="Helvetica,sans-Serif" font-size="10.00" fill="#63b8ff">6</text>
</a>
</g>
</g>
<!-- dir_20aa1809d84b5df61f0e44e26c457914 -->
<g id="node7" class="node">
<title>dir_20aa1809d84b5df61f0e44e26c457914</title>
<g id="a_node7"><a xlink:href="dir_20aa1809d84b5df61f0e44e26c457914.html" target="_top" xlink:title="TEmma">
<polygon fill="#a2b4d6" stroke="#404040" points="1293.88,-76.4 1244.12,-76.4 1244.12,-57.15 1293.88,-57.15 1293.88,-76.4"/>
<text text-anchor="middle" x="1269" y="-62.9" font-family="Helvetica,sans-Serif" font-size="10.00">TEmma</text>
</a>
</g>
</g>
<!-- dir_20aa1809d84b5df61f0e44e26c457914&#45;&gt;dir_c355ed69a9ff804c1251ec805b2844ab -->
<g id="edge9" class="edge">
<title>dir_20aa1809d84b5df61f0e44e26c457914&#45;&gt;dir_c355ed69a9ff804c1251ec805b2844ab</title>
<g id="a_edge9"><a xlink:href="dir_000040_000010.html" target="_top">
<path fill="none" stroke="#63b8ff" d="M1259.72,-56.89C1253.31,-51.34 1244.29,-44.61 1235,-41.15 1221.1,-35.98 1018.1,-20.98 935.03,-15.01"/>
<polygon fill="#63b8ff" stroke="#63b8ff" points="935.42,-11.53 925.2,-14.31 934.92,-18.51 935.42,-11.53"/>
</a>
</g>
<g id="a_edge9&#45;headlabel"><a xlink:href="dir_000040_000010.html" target="_top" xlink:title="3">
<text text-anchor="middle" x="937.7" y="-4.97" font-family="Helvetica,sans-Serif" font-size="10.00" fill="#63b8ff">3</text>
</a>
</g>
</g>
<!-- dir_20aa1809d84b5df61f0e44e26c457914&#45;&gt;dir_d44c64559bbebec7f509842c48db8b23 -->
<g id="edge10" class="edge">
<title>dir_20aa1809d84b5df61f0e44e26c457914&#45;&gt;dir_d44c64559bbebec7f509842c48db8b23</title>
<g id="a_edge10"><a xlink:href="dir_000040_000013.html" target="_top">
<path fill="none" stroke="#63b8ff" d="M1259.35,-56.86C1252.92,-51.45 1244.03,-44.87 1235,-41.15 1186.31,-21.08 1125.02,-14.97 1087.18,-13.18"/>
<polygon fill="#63b8ff" stroke="#63b8ff" points="1087.41,-9.69 1077.28,-12.79 1087.13,-16.68 1087.41,-9.69"/>
</a>
</g>
<g id="a_edge10&#45;headlabel"><a xlink:href="dir_000040_000013.html" target="_top" xlink:title="1">
<text text-anchor="middle" x="1089.59" y="-3.05" font-family="Helvetica,sans-Serif" font-size="10.00" fill="#63b8ff">1</text>
</a>
</g>
</g>
<!-- dir_96a286c95e152dc84501dde3344e48b1 -->
<g id="node8" class="node">
<title>dir_96a286c95e152dc84501dde3344e48b1</title>
<g id="a_node8"><a xlink:href="dir_96a286c95e152dc84501dde3344e48b1.html" target="_top" xlink:title="TGenericDetector">
<polygon fill="#a2b4d6" stroke="#404040" points="1404.25,-76.4 1311.75,-76.4 1311.75,-57.15 1404.25,-57.15 1404.25,-76.4"/>
<text text-anchor="middle" x="1358" y="-62.9" font-family="Helvetica,sans-Serif" font-size="10.00">TGenericDetector</text>
</a>
</g>
</g>
<!-- dir_96a286c95e152dc84501dde3344e48b1&#45;&gt;dir_c355ed69a9ff804c1251ec805b2844ab -->
<g id="edge11" class="edge">
<title>dir_96a286c95e152dc84501dde3344e48b1&#45;&gt;dir_c355ed69a9ff804c1251ec805b2844ab</title>
<g id="a_edge11"><a xlink:href="dir_000046_000010.html" target="_top">
<path fill="none" stroke="#63b8ff" d="M1341.7,-56.65C1331.03,-51.15 1316.6,-44.56 1303,-41.15 1180.7,-10.47 1145.77,-30.12 1020,-21.15 991.3,-19.11 958.75,-16.76 934.8,-15.04"/>
<polygon fill="#63b8ff" stroke="#63b8ff" points="935.19,-11.56 924.96,-14.33 934.69,-18.54 935.19,-11.56"/>
</a>
</g>
<g id="a_edge11&#45;headlabel"><a xlink:href="dir_000046_000010.html" target="_top" xlink:title="1">
<text text-anchor="middle" x="937.47" y="-5" font-family="Helvetica,sans-Serif" font-size="10.00" fill="#63b8ff">1</text>
</a>
</g>
</g>
<!-- dir_96a286c95e152dc84501dde3344e48b1&#45;&gt;dir_d44c64559bbebec7f509842c48db8b23 -->
<g id="edge12" class="edge">
<title>dir_96a286c95e152dc84501dde3344e48b1&#45;&gt;dir_d44c64559bbebec7f509842c48db8b23</title>
<g id="a_edge12"><a xlink:href="dir_000046_000013.html" target="_top">
<path fill="none" stroke="#63b8ff" d="M1341.64,-56.85C1330.96,-51.43 1316.52,-44.85 1303,-41.15 1227.77,-20.55 1135.94,-14.76 1086.87,-13.14"/>
<polygon fill="#63b8ff" stroke="#63b8ff" points="1087.25,-9.65 1077.15,-12.86 1087.05,-16.65 1087.25,-9.65"/>
</a>
</g>
<g id="a_edge12&#45;headlabel"><a xlink:href="dir_000046_000013.html" target="_top" xlink:title="1">
<text text-anchor="middle" x="1089.41" y="-3" font-family="Helvetica,sans-Serif" font-size="10.00" fill="#63b8ff">1</text>
</a>
</g>
</g>
<!-- dir_4d7a83305960b64d8c07c7efbf543e1a -->
<g id="node9" class="node">
<title>dir_4d7a83305960b64d8c07c7efbf543e1a</title>
<g id="a_node9"><a xlink:href="dir_4d7a83305960b64d8c07c7efbf543e1a.html" target="_top" xlink:title="TGriffin">
<polygon fill="#a2b4d6" stroke="#404040" points="1469.38,-76.4 1422.62,-76.4 1422.62,-57.15 1469.38,-57.15 1469.38,-76.4"/>
<text text-anchor="middle" x="1446" y="-62.9" font-family="Helvetica,sans-Serif" font-size="10.00">TGriffin</text>
</a>
</g>
</g>
<!-- dir_4d7a83305960b64d8c07c7efbf543e1a&#45;&gt;dir_c355ed69a9ff804c1251ec805b2844ab -->
<g id="edge13" class="edge">
<title>dir_4d7a83305960b64d8c07c7efbf543e1a&#45;&gt;dir_c355ed69a9ff804c1251ec805b2844ab</title>
<g id="a_edge13"><a xlink:href="dir_000047_000010.html" target="_top">
<path fill="none" stroke="#63b8ff" d="M1437.07,-56.79C1430.89,-51.19 1422.15,-44.45 1413,-41.15 1330.73,-11.5 1107.28,-26.51 1020,-21.15 991.29,-19.39 958.73,-17.03 934.79,-15.22"/>
<polygon fill="#63b8ff" stroke="#63b8ff" points="935.19,-11.74 924.95,-14.47 934.66,-18.72 935.19,-11.74"/>
</a>
</g>
<g id="a_edge13&#45;headlabel"><a xlink:href="dir_000047_000010.html" target="_top" xlink:title="7">
<text text-anchor="middle" x="937.48" y="-5.19" font-family="Helvetica,sans-Serif" font-size="10.00" fill="#63b8ff">7</text>
</a>
</g>
</g>
<!-- dir_4d7a83305960b64d8c07c7efbf543e1a&#45;&gt;dir_d44c64559bbebec7f509842c48db8b23 -->
<g id="edge14" class="edge">
<title>dir_4d7a83305960b64d8c07c7efbf543e1a&#45;&gt;dir_d44c64559bbebec7f509842c48db8b23</title>
<g id="a_edge14"><a xlink:href="dir_000047_000013.html" target="_top">
<path fill="none" stroke="#63b8ff" d="M1437.04,-56.87C1430.84,-51.31 1422.1,-44.58 1413,-41.15 1353.96,-18.92 1165.61,-13.95 1087,-12.84"/>
<polygon fill="#63b8ff" stroke="#63b8ff" points="1087.35,-9.35 1077.3,-12.72 1087.26,-16.35 1087.35,-9.35"/>
</a>
</g>
<g id="a_edge14&#45;headlabel"><a xlink:href="dir_000047_000013.html" target="_top" xlink:title="6">
<text text-anchor="middle" x="1089.46" y="-2.66" font-family="Helvetica,sans-Serif" font-size="10.00" fill="#63b8ff">6</text>
</a>
</g>
</g>
<!-- dir_19584bb47928904ee352adb90b980c09 -->
<g id="node10" class="node">
<title>dir_19584bb47928904ee352adb90b980c09</title>
<g id="a_node10"><a xlink:href="dir_19584bb47928904ee352adb90b980c09.html" target="_top" xlink:title="TLaBr">
<polygon fill="#a2b4d6" stroke="#404040" points="1530.5,-76.4 1487.5,-76.4 1487.5,-57.15 1530.5,-57.15 1530.5,-76.4"/>
<text text-anchor="middle" x="1509" y="-62.9" font-family="Helvetica,sans-Serif" font-size="10.00">TLaBr</text>
</a>
</g>
</g>
<!-- dir_19584bb47928904ee352adb90b980c09&#45;&gt;dir_c355ed69a9ff804c1251ec805b2844ab -->
<g id="edge15" class="edge">
<title>dir_19584bb47928904ee352adb90b980c09&#45;&gt;dir_c355ed69a9ff804c1251ec805b2844ab</title>
<g id="a_edge15"><a xlink:href="dir_000063_000010.html" target="_top">
<path fill="none" stroke="#63b8ff" d="M1500.72,-56.77C1494.96,-51.17 1486.76,-44.42 1478,-41.15 1430.28,-23.33 1070.85,-24.09 1020,-21.15 991.28,-19.49 958.73,-17.12 934.78,-15.29"/>
<polygon fill="#63b8ff" stroke="#63b8ff" points="935.19,-11.81 924.95,-14.52 934.65,-18.79 935.19,-11.81"/>
</a>
</g>
<g id="a_edge15&#45;headlabel"><a xlink:href="dir_000063_000010.html" target="_top" xlink:title="5">
<text text-anchor="middle" x="937.49" y="-5.26" font-family="Helvetica,sans-Serif" font-size="10.00" fill="#63b8ff">5</text>
</a>
</g>
</g>
<!-- dir_19584bb47928904ee352adb90b980c09&#45;&gt;dir_d44c64559bbebec7f509842c48db8b23 -->
<g id="edge16" class="edge">
<title>dir_19584bb47928904ee352adb90b980c09&#45;&gt;dir_d44c64559bbebec7f509842c48db8b23</title>
<g id="a_edge16"><a xlink:href="dir_000063_000013.html" target="_top">
<path fill="none" stroke="#63b8ff" d="M1500.7,-56.84C1494.92,-51.26 1486.72,-44.52 1478,-41.15 1407.03,-13.69 1175.89,-11.87 1087.14,-12.22"/>
<polygon fill="#63b8ff" stroke="#63b8ff" points="1087.33,-8.72 1077.35,-12.27 1087.37,-15.72 1087.33,-8.72"/>
</a>
</g>
<g id="a_edge16&#45;headlabel"><a xlink:href="dir_000063_000013.html" target="_top" xlink:title="4">
<text text-anchor="middle" x="1089.4" y="-1.99" font-family="Helvetica,sans-Serif" font-size="10.00" fill="#63b8ff">4</text>
</a>
</g>
</g>
<!-- dir_cc71cf65fdf8fb611fc39d2104e00889 -->
<g id="node11" class="node">
<title>dir_cc71cf65fdf8fb611fc39d2104e00889</title>
<g id="a_node11"><a xlink:href="dir_cc71cf65fdf8fb611fc39d2104e00889.html" target="_top" xlink:title="TPaces">
<polygon fill="#a2b4d6" stroke="#404040" points="1597.88,-76.4 1548.12,-76.4 1548.12,-57.15 1597.88,-57.15 1597.88,-76.4"/>
<text text-anchor="middle" x="1573" y="-62.9" font-family="Helvetica,sans-Serif" font-size="10.00">TPaces</text>
</a>
</g>
</g>
<!-- dir_cc71cf65fdf8fb611fc39d2104e00889&#45;&gt;dir_c355ed69a9ff804c1251ec805b2844ab -->
<g id="edge17" class="edge">
<title>dir_cc71cf65fdf8fb611fc39d2104e00889&#45;&gt;dir_c355ed69a9ff804c1251ec805b2844ab</title>
<g id="a_edge17"><a xlink:href="dir_000068_000010.html" target="_top">
<path fill="none" stroke="#63b8ff" d="M1564.09,-56.75C1557.91,-51.14 1549.17,-44.39 1540,-41.15 1485.48,-21.88 1077.73,-24.34 1020,-21.15 991.28,-19.57 958.72,-17.19 934.78,-15.33"/>
<polygon fill="#63b8ff" stroke="#63b8ff" points="935.19,-11.85 924.95,-14.56 934.64,-18.83 935.19,-11.85"/>
</a>
</g>
<g id="a_edge17&#45;headlabel"><a xlink:href="dir_000068_000010.html" target="_top" xlink:title="3">
<text text-anchor="middle" x="937.49" y="-5.31" font-family="Helvetica,sans-Serif" font-size="10.00" fill="#63b8ff">3</text>
</a>
</g>
</g>
<!-- dir_cc71cf65fdf8fb611fc39d2104e00889&#45;&gt;dir_d44c64559bbebec7f509842c48db8b23 -->
<g id="edge18" class="edge">
<title>dir_cc71cf65fdf8fb611fc39d2104e00889&#45;&gt;dir_d44c64559bbebec7f509842c48db8b23</title>
<g id="a_edge18"><a xlink:href="dir_000068_000013.html" target="_top">
<path fill="none" stroke="#63b8ff" d="M1564.07,-56.81C1557.88,-51.22 1549.13,-44.48 1540,-41.15 1456.67,-10.75 1184.06,-10.91 1086.84,-11.99"/>
<polygon fill="#63b8ff" stroke="#63b8ff" points="1087.08,-8.49 1077.13,-12.11 1087.17,-15.49 1087.08,-8.49"/>
</a>
</g>
<g id="a_edge18&#45;headlabel"><a xlink:href="dir_000068_000013.html" target="_top" xlink:title="1">
<text text-anchor="middle" x="1089.13" y="-1.75" font-family="Helvetica,sans-Serif" font-size="10.00" fill="#63b8ff">1</text>
</a>
</g>
</g>
<!-- dir_7295a4f67b932590241ad7e00a653c50 -->
<g id="node12" class="node">
<title>dir_7295a4f67b932590241ad7e00a653c50</title>
<g id="a_node12"><a xlink:href="dir_7295a4f67b932590241ad7e00a653c50.html" target="_top" xlink:title="TRcmp">
<polygon fill="#a2b4d6" stroke="#404040" points="1663.75,-76.4 1616.25,-76.4 1616.25,-57.15 1663.75,-57.15 1663.75,-76.4"/>
<text text-anchor="middle" x="1640" y="-62.9" font-family="Helvetica,sans-Serif" font-size="10.00">TRcmp</text>
</a>
</g>
</g>
<!-- dir_7295a4f67b932590241ad7e00a653c50&#45;&gt;dir_c355ed69a9ff804c1251ec805b2844ab -->
<g id="edge19" class="edge">
<title>dir_7295a4f67b932590241ad7e00a653c50&#45;&gt;dir_c355ed69a9ff804c1251ec805b2844ab</title>
<g id="a_edge19"><a xlink:href="dir_000072_000010.html" target="_top">
<path fill="none" stroke="#63b8ff" d="M1631.09,-56.74C1624.91,-51.12 1616.17,-44.37 1607,-41.15 1545.42,-19.54 1085.17,-24.6 1020,-21.15 991.27,-19.63 958.72,-17.25 934.78,-15.37"/>
<polygon fill="#63b8ff" stroke="#63b8ff" points="935.19,-11.9 924.95,-14.59 934.64,-18.87 935.19,-11.9"/>
</a>
</g>
<g id="a_edge19&#45;headlabel"><a xlink:href="dir_000072_000010.html" target="_top" xlink:title="3">
<text text-anchor="middle" x="937.49" y="-5.35" font-family="Helvetica,sans-Serif" font-size="10.00" fill="#63b8ff">3</text>
</a>
</g>
</g>
<!-- dir_7295a4f67b932590241ad7e00a653c50&#45;&gt;dir_d44c64559bbebec7f509842c48db8b23 -->
<g id="edge20" class="edge">
<title>dir_7295a4f67b932590241ad7e00a653c50&#45;&gt;dir_d44c64559bbebec7f509842c48db8b23</title>
<g id="a_edge20"><a xlink:href="dir_000072_000013.html" target="_top">
<path fill="none" stroke="#63b8ff" d="M1631.07,-56.79C1624.89,-51.19 1616.14,-44.45 1607,-41.15 1558.3,-23.58 1201.07,-15.35 1086.94,-13.15"/>
<polygon fill="#63b8ff" stroke="#63b8ff" points="1087.34,-9.66 1077.28,-12.97 1087.21,-16.66 1087.34,-9.66"/>
</a>
</g>
<g id="a_edge20&#45;headlabel"><a xlink:href="dir_000072_000013.html" target="_top" xlink:title="2">
<text text-anchor="middle" x="1089.48" y="-2.98" font-family="Helvetica,sans-Serif" font-size="10.00" fill="#63b8ff">2</text>
</a>
</g>
</g>
<!-- dir_a3742f42c59f9008c555307cd0d941bd -->
<g id="node13" class="node">
<title>dir_a3742f42c59f9008c555307cd0d941bd</title>
<g id="a_node13"><a xlink:href="dir_a3742f42c59f9008c555307cd0d941bd.html" target="_top" xlink:title="TRF">
<polygon fill="#a2b4d6" stroke="#404040" points="159.38,-76.4 124.62,-76.4 124.62,-57.15 159.38,-57.15 159.38,-76.4"/>
<text text-anchor="middle" x="142" y="-62.9" font-family="Helvetica,sans-Serif" font-size="10.00">TRF</text>
</a>
</g>
</g>
<!-- dir_a3742f42c59f9008c555307cd0d941bd&#45;&gt;dir_c355ed69a9ff804c1251ec805b2844ab -->
<g id="edge21" class="edge">
<title>dir_a3742f42c59f9008c555307cd0d941bd&#45;&gt;dir_c355ed69a9ff804c1251ec805b2844ab</title>
<g id="a_edge21"><a xlink:href="dir_000074_000010.html" target="_top">
<path fill="none" stroke="#63b8ff" d="M148.97,-56.77C153.9,-51.17 161.02,-44.43 169,-41.15 233.66,-14.63 727.52,-12.55 864.73,-12.49"/>
<polygon fill="#63b8ff" stroke="#63b8ff" points="864.65,-15.99 874.65,-12.49 864.65,-8.99 864.65,-15.99"/>
</a>
</g>
<g id="a_edge21&#45;headlabel"><a xlink:href="dir_000074_000010.html" target="_top" xlink:title="1">
<text text-anchor="middle" x="862.57" y="-14.96" font-family="Helvetica,sans-Serif" font-size="10.00" fill="#63b8ff">1</text>
</a>
</g>
</g>
<!-- dir_4d99cfd5505f921b61c4eae3c76dc75f -->
<g id="node14" class="node">
<title>dir_4d99cfd5505f921b61c4eae3c76dc75f</title>
<g id="a_node14"><a xlink:href="dir_4d99cfd5505f921b61c4eae3c76dc75f.html" target="_top" xlink:title="TS3">
<polygon fill="#a2b4d6" stroke="#404040" points="1716,-76.4 1682,-76.4 1682,-57.15 1716,-57.15 1716,-76.4"/>
<text text-anchor="middle" x="1699" y="-62.9" font-family="Helvetica,sans-Serif" font-size="10.00">TS3</text>
</a>
</g>
</g>
<!-- dir_4d99cfd5505f921b61c4eae3c76dc75f&#45;&gt;dir_c355ed69a9ff804c1251ec805b2844ab -->
<g id="edge22" class="edge">
<title>dir_4d99cfd5505f921b61c4eae3c76dc75f&#45;&gt;dir_c355ed69a9ff804c1251ec805b2844ab</title>
<g id="a_edge22"><a xlink:href="dir_000076_000010.html" target="_top">
<path fill="none" stroke="#63b8ff" d="M1692.36,-56.76C1687.66,-51.15 1680.81,-44.4 1673,-41.15 1605.98,-13.26 1092.49,-24.86 1020,-21.15 991.27,-19.68 958.72,-17.29 934.78,-15.41"/>
<polygon fill="#63b8ff" stroke="#63b8ff" points="935.19,-11.93 924.94,-14.62 934.63,-18.91 935.19,-11.93"/>
</a>
</g>
<g id="a_edge22&#45;headlabel"><a xlink:href="dir_000076_000010.html" target="_top" xlink:title="4">
<text text-anchor="middle" x="937.49" y="-5.39" font-family="Helvetica,sans-Serif" font-size="10.00" fill="#63b8ff">4</text>
</a>
</g>
</g>
<!-- dir_4d99cfd5505f921b61c4eae3c76dc75f&#45;&gt;dir_d44c64559bbebec7f509842c48db8b23 -->
<g id="edge23" class="edge">
<title>dir_4d99cfd5505f921b61c4eae3c76dc75f&#45;&gt;dir_d44c64559bbebec7f509842c48db8b23</title>
<g id="a_edge23"><a xlink:href="dir_000076_000013.html" target="_top">
<path fill="none" stroke="#63b8ff" d="M1692.35,-56.8C1687.63,-51.2 1680.78,-44.46 1673,-41.15 1619.11,-18.23 1210.29,-13.6 1087.06,-12.72"/>
<polygon fill="#63b8ff" stroke="#63b8ff" points="1087.25,-9.22 1077.23,-12.65 1087.21,-16.22 1087.25,-9.22"/>
</a>
</g>
<g id="a_edge23&#45;headlabel"><a xlink:href="dir_000076_000013.html" target="_top" xlink:title="3">
<text text-anchor="middle" x="1089.35" y="-2.52" font-family="Helvetica,sans-Serif" font-size="10.00" fill="#63b8ff">3</text>
</a>
</g>
</g>
<!-- dir_16b966a18393853074d5fe146ac33cca -->
<g id="node15" class="node">
<title>dir_16b966a18393853074d5fe146ac33cca</title>
<g id="a_node15"><a xlink:href="dir_16b966a18393853074d5fe146ac33cca.html" target="_top" xlink:title="TSceptar">
<polygon fill="#a2b4d6" stroke="#404040" points="481.88,-76.4 426.12,-76.4 426.12,-57.15 481.88,-57.15 481.88,-76.4"/>
<text text-anchor="middle" x="454" y="-62.9" font-family="Helvetica,sans-Serif" font-size="10.00">TSceptar</text>
</a>
</g>
</g>
<!-- dir_16b966a18393853074d5fe146ac33cca&#45;&gt;dir_c355ed69a9ff804c1251ec805b2844ab -->
<g id="edge24" class="edge">
<title>dir_16b966a18393853074d5fe146ac33cca&#45;&gt;dir_c355ed69a9ff804c1251ec805b2844ab</title>
<g id="a_edge24"><a xlink:href="dir_000077_000010.html" target="_top">
<path fill="none" stroke="#63b8ff" d="M464.22,-56.85C471.25,-51.28 481.07,-44.54 491,-41.15 559.7,-17.73 778.51,-13.46 864.66,-12.69"/>
<polygon fill="#63b8ff" stroke="#63b8ff" points="864.65,-16.19 874.63,-12.61 864.6,-9.19 864.65,-16.19"/>
</a>
</g>
<g id="a_edge24&#45;headlabel"><a xlink:href="dir_000077_000010.html" target="_top" xlink:title="3">
<text text-anchor="middle" x="862.59" y="-15.17" font-family="Helvetica,sans-Serif" font-size="10.00" fill="#63b8ff">3</text>
</a>
</g>
</g>
<!-- dir_16b966a18393853074d5fe146ac33cca&#45;&gt;dir_d44c64559bbebec7f509842c48db8b23 -->
<g id="edge25" class="edge">
<title>dir_16b966a18393853074d5fe146ac33cca&#45;&gt;dir_d44c64559bbebec7f509842c48db8b23</title>
<g id="a_edge25"><a xlink:href="dir_000077_000013.html" target="_top">
<path fill="none" stroke="#63b8ff" d="M464.19,-56.77C471.21,-51.16 481.03,-44.41 491,-41.15 584.24,-10.64 834.07,-26.89 932,-21.15 960.72,-19.47 993.27,-17.1 1017.22,-15.27"/>
<polygon fill="#63b8ff" stroke="#63b8ff" points="1017.35,-18.77 1027.05,-14.51 1016.81,-11.79 1017.35,-18.77"/>
</a>
</g>
<g id="a_edge25&#45;headlabel"><a xlink:href="dir_000077_000013.html" target="_top" xlink:title="2">
<text text-anchor="middle" x="1015.49" y="-17.89" font-family="Helvetica,sans-Serif" font-size="10.00" fill="#63b8ff">2</text>
</a>
</g>
</g>
<!-- dir_50352e263f8119c6746fa440b6a9cc8a -->
<g id="node16" class="node">
<title>dir_50352e263f8119c6746fa440b6a9cc8a</title>
<g id="a_node16"><a xlink:href="dir_50352e263f8119c6746fa440b6a9cc8a.html" target="_top" xlink:title="TSharc">
<polygon fill="#a2b4d6" stroke="#404040" points="547.75,-76.4 500.25,-76.4 500.25,-57.15 547.75,-57.15 547.75,-76.4"/>
<text text-anchor="middle" x="524" y="-62.9" font-family="Helvetica,sans-Serif" font-size="10.00">TSharc</text>
</a>
</g>
</g>
<!-- dir_50352e263f8119c6746fa440b6a9cc8a&#45;&gt;dir_c355ed69a9ff804c1251ec805b2844ab -->
<g id="edge26" class="edge">
<title>dir_50352e263f8119c6746fa440b6a9cc8a&#45;&gt;dir_c355ed69a9ff804c1251ec805b2844ab</title>
<g id="a_edge26"><a xlink:href="dir_000078_000010.html" target="_top">
<path fill="none" stroke="#63b8ff" d="M532.96,-56.89C539.16,-51.33 547.91,-44.6 557,-41.15 612.69,-20.05 789.62,-14.45 865.21,-13.01"/>
<polygon fill="#63b8ff" stroke="#63b8ff" points="864.99,-16.52 874.93,-12.84 864.87,-9.52 864.99,-16.52"/>
</a>
</g>
<g id="a_edge26&#45;headlabel"><a xlink:href="dir_000078_000010.html" target="_top" xlink:title="3">
<text text-anchor="middle" x="862.96" y="-15.52" font-family="Helvetica,sans-Serif" font-size="10.00" fill="#63b8ff">3</text>
</a>
</g>
</g>
<!-- dir_50352e263f8119c6746fa440b6a9cc8a&#45;&gt;dir_d44c64559bbebec7f509842c48db8b23 -->
<g id="edge27" class="edge">
<title>dir_50352e263f8119c6746fa440b6a9cc8a&#45;&gt;dir_d44c64559bbebec7f509842c48db8b23</title>
<g id="a_edge27"><a xlink:href="dir_000078_000013.html" target="_top">
<path fill="none" stroke="#63b8ff" d="M532.93,-56.8C539.12,-51.2 547.86,-44.46 557,-41.15 635.47,-12.76 848.71,-26.36 932,-21.15 960.71,-19.35 993.26,-16.99 1017.21,-15.2"/>
<polygon fill="#63b8ff" stroke="#63b8ff" points="1017.34,-18.7 1027.05,-14.45 1016.81,-11.72 1017.34,-18.7"/>
</a>
</g>
<g id="a_edge27&#45;headlabel"><a xlink:href="dir_000078_000013.html" target="_top" xlink:title="2">
<text text-anchor="middle" x="1015.48" y="-17.81" font-family="Helvetica,sans-Serif" font-size="10.00" fill="#63b8ff">2</text>
</a>
</g>
</g>
<!-- dir_78f7d5e3c66d21c85688ebc1c1dd129a -->
<g id="node17" class="node">
<title>dir_78f7d5e3c66d21c85688ebc1c1dd129a</title>
<g id="a_node17"><a xlink:href="dir_78f7d5e3c66d21c85688ebc1c1dd129a.html" target="_top" xlink:title="TSharc2">
<polygon fill="#a2b4d6" stroke="#404040" points="618.38,-76.4 565.62,-76.4 565.62,-57.15 618.38,-57.15 618.38,-76.4"/>
<text text-anchor="middle" x="592" y="-62.9" font-family="Helvetica,sans-Serif" font-size="10.00">TSharc2</text>
</a>
</g>
</g>
<!-- dir_78f7d5e3c66d21c85688ebc1c1dd129a&#45;&gt;dir_c355ed69a9ff804c1251ec805b2844ab -->
<g id="edge28" class="edge">
<title>dir_78f7d5e3c66d21c85688ebc1c1dd129a&#45;&gt;dir_c355ed69a9ff804c1251ec805b2844ab</title>
<g id="a_edge28"><a xlink:href="dir_000079_000010.html" target="_top">
<path fill="none" stroke="#63b8ff" d="M601.92,-56.71C608.53,-51.23 617.68,-44.65 627,-41.15 669.76,-25.12 801.5,-17.05 865.03,-14"/>
<polygon fill="#63b8ff" stroke="#63b8ff" points="865.08,-17.5 874.91,-13.55 864.75,-10.51 865.08,-17.5"/>
</a>
</g>
<g id="a_edge28&#45;headlabel"><a xlink:href="dir_000079_000010.html" target="_top" xlink:title="3">
<text text-anchor="middle" x="863.13" y="-16.56" font-family="Helvetica,sans-Serif" font-size="10.00" fill="#63b8ff">3</text>
</a>
</g>
</g>
<!-- dir_78f7d5e3c66d21c85688ebc1c1dd129a&#45;&gt;dir_d44c64559bbebec7f509842c48db8b23 -->
<g id="edge29" class="edge">
<title>dir_78f7d5e3c66d21c85688ebc1c1dd129a&#45;&gt;dir_d44c64559bbebec7f509842c48db8b23</title>
<g id="a_edge29"><a xlink:href="dir_000079_000013.html" target="_top">
<path fill="none" stroke="#63b8ff" d="M601.58,-56.83C608.19,-51.25 617.47,-44.51 627,-41.15 691.05,-18.54 864.24,-25.81 932,-21.15 960.7,-19.18 993.25,-16.83 1017.21,-15.08"/>
<polygon fill="#63b8ff" stroke="#63b8ff" points="1017.32,-18.59 1027.04,-14.37 1016.81,-11.6 1017.32,-18.59"/>
</a>
</g>
<g id="a_edge29&#45;headlabel"><a xlink:href="dir_000079_000013.html" target="_top" xlink:title="2">
<text text-anchor="middle" x="1015.45" y="-17.69" font-family="Helvetica,sans-Serif" font-size="10.00" fill="#63b8ff">2</text>
</a>
</g>
</g>
<!-- dir_e38e57e74a772ab572f3fbdd81260eb7 -->
<g id="node18" class="node">
<title>dir_e38e57e74a772ab572f3fbdd81260eb7</title>
<g id="a_node18"><a xlink:href="dir_e38e57e74a772ab572f3fbdd81260eb7.html" target="_top" xlink:title="TSiLi">
<polygon fill="#a2b4d6" stroke="#404040" points="675.62,-76.4 636.38,-76.4 636.38,-57.15 675.62,-57.15 675.62,-76.4"/>
<text text-anchor="middle" x="656" y="-62.9" font-family="Helvetica,sans-Serif" font-size="10.00">TSiLi</text>
</a>
</g>
</g>
<!-- dir_e38e57e74a772ab572f3fbdd81260eb7&#45;&gt;dir_c355ed69a9ff804c1251ec805b2844ab -->
<g id="edge30" class="edge">
<title>dir_e38e57e74a772ab572f3fbdd81260eb7&#45;&gt;dir_c355ed69a9ff804c1251ec805b2844ab</title>
<g id="a_edge30"><a xlink:href="dir_000080_000010.html" target="_top">
<path fill="none" stroke="#63b8ff" d="M663.41,-57.02C668.58,-51.52 675.98,-44.79 684,-41.15 715.47,-26.85 812.1,-18.38 864.81,-14.7"/>
<polygon fill="#63b8ff" stroke="#63b8ff" points="865.02,-18.2 874.76,-14.03 864.55,-11.21 865.02,-18.2"/>
</a>
</g>
<g id="a_edge30&#45;headlabel"><a xlink:href="dir_000080_000010.html" target="_top" xlink:title="3">
<text text-anchor="middle" x="863.14" y="-17.29" font-family="Helvetica,sans-Serif" font-size="10.00" fill="#63b8ff">3</text>
</a>
</g>
</g>
<!-- dir_e38e57e74a772ab572f3fbdd81260eb7&#45;&gt;dir_d44c64559bbebec7f509842c48db8b23 -->
<g id="edge31" class="edge">
<title>dir_e38e57e74a772ab572f3fbdd81260eb7&#45;&gt;dir_d44c64559bbebec7f509842c48db8b23</title>
<g id="a_edge31"><a xlink:href="dir_000080_000013.html" target="_top">
<path fill="none" stroke="#63b8ff" d="M663.34,-56.87C668.49,-51.31 675.89,-44.58 684,-41.15 687.81,-39.54 925.42,-21.87 1016.76,-15.12"/>
<polygon fill="#63b8ff" stroke="#63b8ff" points="1016.92,-18.62 1026.64,-14.39 1016.41,-11.64 1016.92,-18.62"/>
</a>
</g>
<g id="a_edge31&#45;headlabel"><a xlink:href="dir_000080_000013.html" target="_top" xlink:title="1">
<text text-anchor="middle" x="1015.06" y="-17.73" font-family="Helvetica,sans-Serif" font-size="10.00" fill="#63b8ff">1</text>
</a>
</g>
</g>
<!-- dir_5f056cdb9dd74bb3611fd0eeba65134a -->
<g id="node19" class="node">
<title>dir_5f056cdb9dd74bb3611fd0eeba65134a</title>
<g id="a_node19"><a xlink:href="dir_5f056cdb9dd74bb3611fd0eeba65134a.html" target="_top" xlink:title="TTAC">
<polygon fill="#a2b4d6" stroke="#404040" points="734.75,-76.4 693.25,-76.4 693.25,-57.15 734.75,-57.15 734.75,-76.4"/>
<text text-anchor="middle" x="714" y="-62.9" font-family="Helvetica,sans-Serif" font-size="10.00">TTAC</text>
</a>
</g>
</g>
<!-- dir_5f056cdb9dd74bb3611fd0eeba65134a&#45;&gt;dir_c355ed69a9ff804c1251ec805b2844ab -->
<g id="edge32" class="edge">
<title>dir_5f056cdb9dd74bb3611fd0eeba65134a&#45;&gt;dir_c355ed69a9ff804c1251ec805b2844ab</title>
<g id="a_edge32"><a xlink:href="dir_000083_000010.html" target="_top">
<path fill="none" stroke="#63b8ff" d="M722.62,-56.68C728.21,-51.32 735.93,-44.89 744,-41.15 782.93,-23.09 832.28,-16.41 864.93,-13.95"/>
<polygon fill="#63b8ff" stroke="#63b8ff" points="864.9,-17.46 874.65,-13.32 864.44,-10.47 864.9,-17.46"/>
</a>
</g>
<g id="a_edge32&#45;headlabel"><a xlink:href="dir_000083_000010.html" target="_top" xlink:title="3">
<text text-anchor="middle" x="863" y="-16.55" font-family="Helvetica,sans-Serif" font-size="10.00" fill="#63b8ff">3</text>
</a>
</g>
</g>
<!-- dir_5f056cdb9dd74bb3611fd0eeba65134a&#45;&gt;dir_d44c64559bbebec7f509842c48db8b23 -->
<g id="edge33" class="edge">
<title>dir_5f056cdb9dd74bb3611fd0eeba65134a&#45;&gt;dir_d44c64559bbebec7f509842c48db8b23</title>
<g id="a_edge33"><a xlink:href="dir_000083_000013.html" target="_top">
<path fill="none" stroke="#63b8ff" d="M722.01,-56.91C727.59,-51.37 735.52,-44.63 744,-41.15 756.49,-36.02 939.55,-21.27 1017.39,-15.2"/>
<polygon fill="#63b8ff" stroke="#63b8ff" points="1017.3,-18.71 1027,-14.45 1016.76,-11.73 1017.3,-18.71"/>
</a>
</g>
<g id="a_edge33&#45;headlabel"><a xlink:href="dir_000083_000013.html" target="_top" xlink:title="1">
<text text-anchor="middle" x="1015.44" y="-17.83" font-family="Helvetica,sans-Serif" font-size="10.00" fill="#63b8ff">1</text>
</a>
</g>
</g>
<!-- dir_d7ccf6c4ee2c5d49aa2ecef4d80cc5aa -->
<g id="node20" class="node">
<title>dir_d7ccf6c4ee2c5d49aa2ecef4d80cc5aa</title>
<g id="a_node20"><a xlink:href="dir_d7ccf6c4ee2c5d49aa2ecef4d80cc5aa.html" target="_top" xlink:title="TTigress">
<polygon fill="#a2b4d6" stroke="#404040" points="807.12,-76.4 752.88,-76.4 752.88,-57.15 807.12,-57.15 807.12,-76.4"/>
<text text-anchor="middle" x="780" y="-62.9" font-family="Helvetica,sans-Serif" font-size="10.00">TTigress</text>
</a>
</g>
</g>
<!-- dir_d7ccf6c4ee2c5d49aa2ecef4d80cc5aa&#45;&gt;dir_c355ed69a9ff804c1251ec805b2844ab -->
<g id="edge34" class="edge">
<title>dir_d7ccf6c4ee2c5d49aa2ecef4d80cc5aa&#45;&gt;dir_c355ed69a9ff804c1251ec805b2844ab</title>
<g id="a_edge34"><a xlink:href="dir_000092_000010.html" target="_top">
<path fill="none" stroke="#63b8ff" d="M791.5,-56.72C798.33,-51.65 807.33,-45.49 816,-41.15 831.63,-33.32 849.91,-26.81 865.41,-21.99"/>
<polygon fill="#63b8ff" stroke="#63b8ff" points="866.11,-25.43 874.69,-19.21 864.1,-18.73 866.11,-25.43"/>
</a>
</g>
<g id="a_edge34&#45;headlabel"><a xlink:href="dir_000092_000010.html" target="_top" xlink:title="3">
<text text-anchor="middle" x="864.93" y="-24.87" font-family="Helvetica,sans-Serif" font-size="10.00" fill="#63b8ff">3</text>
</a>
</g>
</g>
<!-- dir_d7ccf6c4ee2c5d49aa2ecef4d80cc5aa&#45;&gt;dir_d44c64559bbebec7f509842c48db8b23 -->
<g id="edge35" class="edge">
<title>dir_d7ccf6c4ee2c5d49aa2ecef4d80cc5aa&#45;&gt;dir_d44c64559bbebec7f509842c48db8b23</title>
<g id="a_edge35"><a xlink:href="dir_000092_000013.html" target="_top">
<path fill="none" stroke="#63b8ff" d="M790.27,-56.77C797.09,-51.31 806.5,-44.73 816,-41.15 851.97,-27.6 960.52,-18.61 1017,-14.72"/>
<polygon fill="#63b8ff" stroke="#63b8ff" points="1016.96,-18.24 1026.71,-14.07 1016.5,-11.25 1016.96,-18.24"/>
</a>
</g>
<g id="a_edge35&#45;headlabel"><a xlink:href="dir_000092_000013.html" target="_top" xlink:title="2">
<text text-anchor="middle" x="1015.08" y="-17.33" font-family="Helvetica,sans-Serif" font-size="10.00" fill="#63b8ff">2</text>
</a>
</g>
</g>
<!-- dir_5e08983b1f3b33eef3f396fa87b3843f -->
<g id="node21" class="node">
<title>dir_5e08983b1f3b33eef3f396fa87b3843f</title>
<g id="a_node21"><a xlink:href="dir_5e08983b1f3b33eef3f396fa87b3843f.html" target="_top" xlink:title="TTip">
<polygon fill="#a2b4d6" stroke="#404040" points="860.75,-76.4 825.25,-76.4 825.25,-57.15 860.75,-57.15 860.75,-76.4"/>
<text text-anchor="middle" x="843" y="-62.9" font-family="Helvetica,sans-Serif" font-size="10.00">TTip</text>
</a>
</g>
</g>
<!-- dir_5e08983b1f3b33eef3f396fa87b3843f&#45;&gt;dir_c355ed69a9ff804c1251ec805b2844ab -->
<g id="edge36" class="edge">
<title>dir_5e08983b1f3b33eef3f396fa87b3843f&#45;&gt;dir_c355ed69a9ff804c1251ec805b2844ab</title>
<g id="a_edge36"><a xlink:href="dir_000093_000010.html" target="_top">
<path fill="none" stroke="#63b8ff" d="M852.67,-56.74C860.74,-49.2 872.47,-38.25 882.22,-29.13"/>
<polygon fill="#63b8ff" stroke="#63b8ff" points="884.45,-31.84 889.37,-22.46 879.67,-26.73 884.45,-31.84"/>
</a>
</g>
<g id="a_edge36&#45;headlabel"><a xlink:href="dir_000093_000010.html" target="_top" xlink:title="3">
<text text-anchor="middle" x="884.87" y="-31.46" font-family="Helvetica,sans-Serif" font-size="10.00" fill="#63b8ff">3</text>
</a>
</g>
</g>
<!-- dir_5e08983b1f3b33eef3f396fa87b3843f&#45;&gt;dir_d44c64559bbebec7f509842c48db8b23 -->
<g id="edge37" class="edge">
<title>dir_5e08983b1f3b33eef3f396fa87b3843f&#45;&gt;dir_d44c64559bbebec7f509842c48db8b23</title>
<g id="a_edge37"><a xlink:href="dir_000093_000013.html" target="_top">
<path fill="none" stroke="#63b8ff" d="M850.11,-57.08C855.09,-51.6 862.22,-44.89 870,-41.15 917.35,-18.41 978.85,-13.07 1016.86,-12.16"/>
<polygon fill="#63b8ff" stroke="#63b8ff" points="1016.86,-15.66 1026.81,-12.02 1016.76,-8.66 1016.86,-15.66"/>
</a>
</g>
<g id="a_edge37&#45;headlabel"><a xlink:href="dir_000093_000013.html" target="_top" xlink:title="1">
<text text-anchor="middle" x="1014.82" y="-14.65" font-family="Helvetica,sans-Serif" font-size="10.00" fill="#63b8ff">1</text>
</a>
</g>
</g>
<!-- dir_2958022ccd904c4970b119e7b1daa5de -->
<g id="node22" class="node">
<title>dir_2958022ccd904c4970b119e7b1daa5de</title>
<g id="a_node22"><a xlink:href="dir_2958022ccd904c4970b119e7b1daa5de.html" target="_top" xlink:title="TTrific">
<polygon fill="#a2b4d6" stroke="#404040" points="921.5,-76.4 878.5,-76.4 878.5,-57.15 921.5,-57.15 921.5,-76.4"/>
<text text-anchor="middle" x="900" y="-62.9" font-family="Helvetica,sans-Serif" font-size="10.00">TTrific</text>
</a>
</g>
</g>
<!-- dir_2958022ccd904c4970b119e7b1daa5de&#45;&gt;dir_c355ed69a9ff804c1251ec805b2844ab -->
<g id="edge38" class="edge">
<title>dir_2958022ccd904c4970b119e7b1daa5de&#45;&gt;dir_c355ed69a9ff804c1251ec805b2844ab</title>
<g id="a_edge38"><a xlink:href="dir_000094_000010.html" target="_top">
<path fill="none" stroke="#63b8ff" d="M900,-56.98C900,-50.47 900,-41.32 900,-33.02"/>
<polygon fill="#63b8ff" stroke="#63b8ff" points="903.5,-33.02 900,-23.02 896.5,-33.02 903.5,-33.02"/>
</a>
</g>
<g id="a_edge38&#45;headlabel"><a xlink:href="dir_000094_000010.html" target="_top" xlink:title="3">
<text text-anchor="middle" x="906.34" y="-31.23" font-family="Helvetica,sans-Serif" font-size="10.00" fill="#63b8ff">3</text>
</a>
</g>
</g>
<!-- dir_2958022ccd904c4970b119e7b1daa5de&#45;&gt;dir_d44c64559bbebec7f509842c48db8b23 -->
<g id="edge39" class="edge">
<title>dir_2958022ccd904c4970b119e7b1daa5de&#45;&gt;dir_d44c64559bbebec7f509842c48db8b23</title>
<g id="a_edge39"><a xlink:href="dir_000094_000013.html" target="_top">
<path fill="none" stroke="#63b8ff" d="M909.03,-56.83C914.85,-51.54 922.84,-45.11 931,-41.15 958.33,-27.89 992.17,-20.56 1017.11,-16.64"/>
<polygon fill="#63b8ff" stroke="#63b8ff" points="1017.34,-20.15 1026.73,-15.25 1016.33,-13.22 1017.34,-20.15"/>
</a>
</g>
<g id="a_edge39&#45;headlabel"><a xlink:href="dir_000094_000013.html" target="_top" xlink:title="1">
<text text-anchor="middle" x="1015.69" y="-19.38" font-family="Helvetica,sans-Serif" font-size="10.00" fill="#63b8ff">1</text>
</a>
</g>
</g>
<!-- dir_0750aac0d8bf2e4119c641f3efdb3d14 -->
<g id="node23" class="node">
<title>dir_0750aac0d8bf2e4119c641f3efdb3d14</title>
<g id="a_node23"><a xlink:href="dir_0750aac0d8bf2e4119c641f3efdb3d14.html" target="_top" xlink:title="TTriFoil">
<polygon fill="#a2b4d6" stroke="#404040" points="226.5,-76.4 177.5,-76.4 177.5,-57.15 226.5,-57.15 226.5,-76.4"/>
<text text-anchor="middle" x="202" y="-62.9" font-family="Helvetica,sans-Serif" font-size="10.00">TTriFoil</text>
</a>
</g>
</g>
<!-- dir_0750aac0d8bf2e4119c641f3efdb3d14&#45;&gt;dir_c355ed69a9ff804c1251ec805b2844ab -->
<g id="edge40" class="edge">
<title>dir_0750aac0d8bf2e4119c641f3efdb3d14&#45;&gt;dir_c355ed69a9ff804c1251ec805b2844ab</title>
<g id="a_edge40"><a xlink:href="dir_000095_000010.html" target="_top">
<path fill="none" stroke="#63b8ff" d="M210.92,-56.77C217.1,-51.16 225.84,-44.41 235,-41.15 294.39,-20.01 735.7,-14.11 864.69,-12.83"/>
<polygon fill="#63b8ff" stroke="#63b8ff" points="864.69,-16.33 874.66,-12.74 864.63,-9.33 864.69,-16.33"/>
</a>
</g>
<g id="a_edge40&#45;headlabel"><a xlink:href="dir_000095_000010.html" target="_top" xlink:title="1">
<text text-anchor="middle" x="862.64" y="-15.31" font-family="Helvetica,sans-Serif" font-size="10.00" fill="#63b8ff">1</text>
</a>
</g>
</g>
<!-- dir_4925a956edac1f5a41aa2a78deadb7b0 -->
<g id="node24" class="node">
<title>dir_4925a956edac1f5a41aa2a78deadb7b0</title>
<g id="a_node24"><a xlink:href="dir_4925a956edac1f5a41aa2a78deadb7b0.html" target="_top" xlink:title="TZeroDegree">
<polygon fill="#a2b4d6" stroke="#404040" points="1012.12,-76.4 939.88,-76.4 939.88,-57.15 1012.12,-57.15 1012.12,-76.4"/>
<text text-anchor="middle" x="976" y="-62.9" font-family="Helvetica,sans-Serif" font-size="10.00">TZeroDegree</text>
</a>
</g>
</g>
<!-- dir_4925a956edac1f5a41aa2a78deadb7b0&#45;&gt;dir_c355ed69a9ff804c1251ec805b2844ab -->
<g id="edge41" class="edge">
<title>dir_4925a956edac1f5a41aa2a78deadb7b0&#45;&gt;dir_c355ed69a9ff804c1251ec805b2844ab</title>
<g id="a_edge41"><a xlink:href="dir_000096_000010.html" target="_top">
<path fill="none" stroke="#63b8ff" d="M963.11,-56.74C951.97,-48.94 935.63,-37.49 922.36,-28.19"/>
<polygon fill="#63b8ff" stroke="#63b8ff" points="924.39,-25.34 914.2,-22.47 920.38,-31.08 924.39,-25.34"/>
</a>
</g>
<g id="a_edge41&#45;headlabel"><a xlink:href="dir_000096_000010.html" target="_top" xlink:title="3">
<text text-anchor="middle" x="927.73" y="-20.34" font-family="Helvetica,sans-Serif" font-size="10.00" fill="#63b8ff">3</text>
</a>
</g>
</g>
<!-- dir_4925a956edac1f5a41aa2a78deadb7b0&#45;&gt;dir_d44c64559bbebec7f509842c48db8b23 -->
<g id="edge42" class="edge">
<title>dir_4925a956edac1f5a41aa2a78deadb7b0&#45;&gt;dir_d44c64559bbebec7f509842c48db8b23</title>
<g id="a_edge42"><a xlink:href="dir_000096_000013.html" target="_top">
<path fill="none" stroke="#63b8ff" d="M988.89,-56.74C1000.03,-48.94 1016.37,-37.49 1029.64,-28.19"/>
<polygon fill="#63b8ff" stroke="#63b8ff" points="1031.62,-31.08 1037.8,-22.47 1027.61,-25.34 1031.62,-31.08"/>
</a>
</g>
<g id="a_edge42&#45;headlabel"><a xlink:href="dir_000096_000013.html" target="_top" xlink:title="5">
<text text-anchor="middle" x="1031.55" y="-30.72" font-family="Helvetica,sans-Serif" font-size="10.00" fill="#63b8ff">5</text>
</a>
</g>
</g>
</g>
</svg>
