<?xml version="1.0" encoding="UTF-8" standalone="no"?>
<!DOCTYPE svg PUBLIC "-//W3C//DTD SVG 1.1//EN"
 "http://www.w3.org/Graphics/SVG/1.1/DTD/svg11.dtd">
<!-- Generated by graphviz version 9.0.0 (20230911.1827)
 -->
<!-- Title: TAnalysis Pages: 1 -->
<svg width="980pt" height="126pt"
 viewBox="0.00 0.00 980.00 125.75" xmlns="http://www.w3.org/2000/svg" xmlns:xlink="http://www.w3.org/1999/xlink">
<g id="graph0" class="graph" transform="scale(1 1) rotate(0) translate(4 121.75)">
<title>TAnalysis</title>
<g id="clust1" class="cluster">
<title>clusterdir_bc0718b08fb2015b8e59c47b2805f60c</title>
<g id="a_clust1"><a xlink:href="dir_bc0718b08fb2015b8e59c47b2805f60c.html" target="_top" xlink:title="libraries">
<polygon fill="#edf0f7" stroke="#404040" stroke-dasharray="5,2" points="8,-39.25 8,-109.75 964,-109.75 964,-39.25 8,-39.25"/>
<text text-anchor="middle" x="486" y="-96.25" font-family="Helvetica,sans-Serif" font-size="10.00">libraries</text>
</a>
</g>
</g>
<g id="clust2" class="cluster">
<title>clusterdir_13ff732e2c56f9e39f6b01628bb57815</title>
<g id="a_clust2"><a xlink:href="dir_13ff732e2c56f9e39f6b01628bb57815.html" target="_top">
<polygon fill="#edf0f7" stroke="#404040" stroke-width="2" points="16,-47.25 16,-82.5 956,-82.5 956,-47.25 16,-47.25"/>
</a>
</g>
</g>
<!-- dir_13ff732e2c56f9e39f6b01628bb57815 -->
<g id="node1" class="node">
<title>dir_13ff732e2c56f9e39f6b01628bb57815</title>
<text text-anchor="middle" x="919" y="-61" font-family="Helvetica,sans-Serif" font-size="10.00">TAnalysis</text>
</g>
<!-- dir_16322b79b07970120666562f0d5b6374 -->
<g id="node2" class="node">
<title>dir_16322b79b07970120666562f0d5b6374</title>
<g id="a_node2"><a xlink:href="dir_16322b79b07970120666562f0d5b6374.html" target="_top" xlink:title="TBetaDecay">
<polygon fill="#a2b4d6" stroke="#404040" points="871.62,-74.5 802.38,-74.5 802.38,-55.25 871.62,-55.25 871.62,-74.5"/>
<text text-anchor="middle" x="837" y="-61" font-family="Helvetica,sans-Serif" font-size="10.00">TBetaDecay</text>
</a>
</g>
</g>
<!-- dir_d44c64559bbebec7f509842c48db8b23 -->
<g id="node13" class="node">
<title>dir_d44c64559bbebec7f509842c48db8b23</title>
<g id="a_node13"><a xlink:href="dir_d44c64559bbebec7f509842c48db8b23.html" target="_top" xlink:title="include">
<polygon fill="#edf0f7" stroke="#404040" points="503.38,-19.25 456.62,-19.25 456.62,0 503.38,0 503.38,-19.25"/>
<text text-anchor="middle" x="480" y="-5.75" font-family="Helvetica,sans-Serif" font-size="10.00">include</text>
</a>
</g>
</g>
<!-- dir_16322b79b07970120666562f0d5b6374&#45;&gt;dir_d44c64559bbebec7f509842c48db8b23 -->
<g id="edge1" class="edge">
<title>dir_16322b79b07970120666562f0d5b6374&#45;&gt;dir_d44c64559bbebec7f509842c48db8b23</title>
<g id="a_edge1"><a xlink:href="dir_000030_000013.html" target="_top">
<path fill="none" stroke="#63b8ff" d="M824.5,-54.79C816.26,-49.3 804.99,-42.72 794,-39.25 742.8,-23.1 585.71,-14.89 515.06,-11.94"/>
<polygon fill="#63b8ff" stroke="#63b8ff" points="515.35,-8.45 505.22,-11.54 515.07,-15.44 515.35,-8.45"/>
</a>
</g>
<g id="a_edge1&#45;headlabel"><a xlink:href="dir_000030_000013.html" target="_top" xlink:title="1">
<text text-anchor="middle" x="517.55" y="-1.82" font-family="Helvetica,sans-Serif" font-size="10.00" fill="#63b8ff">1</text>
</a>
</g>
</g>
<!-- dir_abc9a2d59bfee733aff24fa9b4e7fe69 -->
<g id="node3" class="node">
<title>dir_abc9a2d59bfee733aff24fa9b4e7fe69</title>
<g id="a_node3"><a xlink:href="dir_abc9a2d59bfee733aff24fa9b4e7fe69.html" target="_top" xlink:title="TBgo">
<polygon fill="#a2b4d6" stroke="#404040" points="784.62,-74.5 745.38,-74.5 745.38,-55.25 784.62,-55.25 784.62,-74.5"/>
<text text-anchor="middle" x="765" y="-61" font-family="Helvetica,sans-Serif" font-size="10.00">TBgo</text>
</a>
</g>
</g>
<!-- dir_abc9a2d59bfee733aff24fa9b4e7fe69&#45;&gt;dir_d44c64559bbebec7f509842c48db8b23 -->
<g id="edge2" class="edge">
<title>dir_abc9a2d59bfee733aff24fa9b4e7fe69&#45;&gt;dir_d44c64559bbebec7f509842c48db8b23</title>
<g id="a_edge2"><a xlink:href="dir_000031_000013.html" target="_top">
<path fill="none" stroke="#63b8ff" d="M757.29,-55.06C751.92,-49.54 744.25,-42.81 736,-39.25 697.12,-22.46 575.68,-14.85 515.09,-12.02"/>
<polygon fill="#63b8ff" stroke="#63b8ff" points="515.49,-8.54 505.34,-11.59 515.18,-15.53 515.49,-8.54"/>
</a>
</g>
<g id="a_edge2&#45;headlabel"><a xlink:href="dir_000031_000013.html" target="_top" xlink:title="5">
<text text-anchor="middle" x="517.7" y="-1.92" font-family="Helvetica,sans-Serif" font-size="10.00" fill="#63b8ff">5</text>
</a>
</g>
</g>
<!-- dir_4d17f409fb020449a7716dffae2b2761 -->
<g id="node4" class="node">
<title>dir_4d17f409fb020449a7716dffae2b2761</title>
<g id="a_node4"><a xlink:href="dir_4d17f409fb020449a7716dffae2b2761.html" target="_top" xlink:title="TCal">
<polygon fill="#a2b4d6" stroke="#404040" points="727.12,-74.5 690.88,-74.5 690.88,-55.25 727.12,-55.25 727.12,-74.5"/>
<text text-anchor="middle" x="709" y="-61" font-family="Helvetica,sans-Serif" font-size="10.00">TCal</text>
</a>
</g>
</g>
<!-- dir_4d17f409fb020449a7716dffae2b2761&#45;&gt;dir_d44c64559bbebec7f509842c48db8b23 -->
<g id="edge3" class="edge">
<title>dir_4d17f409fb020449a7716dffae2b2761&#45;&gt;dir_d44c64559bbebec7f509842c48db8b23</title>
<g id="a_edge3"><a xlink:href="dir_000032_000013.html" target="_top">
<path fill="none" stroke="#63b8ff" d="M701.91,-55.14C696.94,-49.65 689.81,-42.93 682,-39.25 653.14,-25.66 564.87,-17.02 515.09,-13.1"/>
<polygon fill="#63b8ff" stroke="#63b8ff" points="515.37,-9.61 505.13,-12.34 514.83,-16.59 515.37,-9.61"/>
</a>
</g>
<g id="a_edge3&#45;headlabel"><a xlink:href="dir_000032_000013.html" target="_top" xlink:title="19">
<text text-anchor="middle" x="517.66" y="-3.06" font-family="Helvetica,sans-Serif" font-size="10.00" fill="#63b8ff">19</text>
</a>
</g>
</g>
<!-- dir_c27fb4ff404115d281d3c6aa730dcb72 -->
<g id="node5" class="node">
<title>dir_c27fb4ff404115d281d3c6aa730dcb72</title>
<g id="a_node5"><a xlink:href="dir_c27fb4ff404115d281d3c6aa730dcb72.html" target="_top" xlink:title="TGRSIFit">
<polygon fill="#a2b4d6" stroke="#404040" points="672.62,-74.5 615.38,-74.5 615.38,-55.25 672.62,-55.25 672.62,-74.5"/>
<text text-anchor="middle" x="644" y="-61" font-family="Helvetica,sans-Serif" font-size="10.00">TGRSIFit</text>
</a>
</g>
</g>
<!-- dir_c27fb4ff404115d281d3c6aa730dcb72&#45;&gt;dir_d44c64559bbebec7f509842c48db8b23 -->
<g id="edge4" class="edge">
<title>dir_c27fb4ff404115d281d3c6aa730dcb72&#45;&gt;dir_d44c64559bbebec7f509842c48db8b23</title>
<g id="a_edge4"><a xlink:href="dir_000048_000013.html" target="_top">
<path fill="none" stroke="#63b8ff" d="M632.62,-54.98C625.37,-49.7 615.56,-43.28 606,-39.25 576.43,-26.77 540.55,-19.3 514.65,-15.14"/>
<polygon fill="#63b8ff" stroke="#63b8ff" points="515.42,-11.71 505.01,-13.68 514.38,-18.64 515.42,-11.71"/>
</a>
</g>
<g id="a_edge4&#45;headlabel"><a xlink:href="dir_000048_000013.html" target="_top" xlink:title="7">
<text text-anchor="middle" x="517.91" y="-5.34" font-family="Helvetica,sans-Serif" font-size="10.00" fill="#63b8ff">7</text>
</a>
</g>
</g>
<!-- dir_ffe9e0fcf26f96bc53aa7b2fce78662c -->
<g id="node6" class="node">
<title>dir_ffe9e0fcf26f96bc53aa7b2fce78662c</title>
<g id="a_node6"><a xlink:href="dir_ffe9e0fcf26f96bc53aa7b2fce78662c.html" target="_top" xlink:title="TKinematics">
<polygon fill="#a2b4d6" stroke="#404040" points="597.38,-74.5 526.62,-74.5 526.62,-55.25 597.38,-55.25 597.38,-74.5"/>
<text text-anchor="middle" x="562" y="-61" font-family="Helvetica,sans-Serif" font-size="10.00">TKinematics</text>
</a>
</g>
</g>
<!-- dir_ffe9e0fcf26f96bc53aa7b2fce78662c&#45;&gt;dir_d44c64559bbebec7f509842c48db8b23 -->
<g id="edge5" class="edge">
<title>dir_ffe9e0fcf26f96bc53aa7b2fce78662c&#45;&gt;dir_d44c64559bbebec7f509842c48db8b23</title>
<g id="a_edge5"><a xlink:href="dir_000060_000013.html" target="_top">
<path fill="none" stroke="#63b8ff" d="M548.09,-54.84C535.84,-46.89 517.75,-35.14 503.29,-25.75"/>
<polygon fill="#63b8ff" stroke="#63b8ff" points="505.54,-23.04 495.25,-20.53 501.73,-28.91 505.54,-23.04"/>
</a>
</g>
<g id="a_edge5&#45;headlabel"><a xlink:href="dir_000060_000013.html" target="_top" xlink:title="2">
<text text-anchor="middle" x="508.83" y="-17.91" font-family="Helvetica,sans-Serif" font-size="10.00" fill="#63b8ff">2</text>
</a>
</g>
</g>
<!-- dir_c465e235fcfd3726a10892daf2e1b104 -->
<g id="node7" class="node">
<title>dir_c465e235fcfd3726a10892daf2e1b104</title>
<g id="a_node7"><a xlink:href="dir_c465e235fcfd3726a10892daf2e1b104.html" target="_top" xlink:title="TNucleus">
<polygon fill="#a2b4d6" stroke="#404040" points="509,-74.5 451,-74.5 451,-55.25 509,-55.25 509,-74.5"/>
<text text-anchor="middle" x="480" y="-61" font-family="Helvetica,sans-Serif" font-size="10.00">TNucleus</text>
</a>
</g>
</g>
<!-- dir_c465e235fcfd3726a10892daf2e1b104&#45;&gt;dir_d44c64559bbebec7f509842c48db8b23 -->
<g id="edge6" class="edge">
<title>dir_c465e235fcfd3726a10892daf2e1b104&#45;&gt;dir_d44c64559bbebec7f509842c48db8b23</title>
<g id="a_edge6"><a xlink:href="dir_000065_000013.html" target="_top">
<path fill="none" stroke="#63b8ff" d="M480,-55.08C480,-48.57 480,-39.42 480,-31.12"/>
<polygon fill="#63b8ff" stroke="#63b8ff" points="483.5,-31.12 480,-21.12 476.5,-31.12 483.5,-31.12"/>
</a>
</g>
<g id="a_edge6&#45;headlabel"><a xlink:href="dir_000065_000013.html" target="_top" xlink:title="4">
<text text-anchor="middle" x="486.34" y="-29.33" font-family="Helvetica,sans-Serif" font-size="10.00" fill="#63b8ff">4</text>
</a>
</g>
</g>
<!-- dir_359637ddf5ff0dd5705446986a14d7e9 -->
<g id="node8" class="node">
<title>dir_359637ddf5ff0dd5705446986a14d7e9</title>
<g id="a_node8"><a xlink:href="dir_359637ddf5ff0dd5705446986a14d7e9.html" target="_top" xlink:title="TPeakFitting">
<polygon fill="#a2b4d6" stroke="#404040" points="432.75,-74.5 361.25,-74.5 361.25,-55.25 432.75,-55.25 432.75,-74.5"/>
<text text-anchor="middle" x="397" y="-61" font-family="Helvetica,sans-Serif" font-size="10.00">TPeakFitting</text>
</a>
</g>
</g>
<!-- dir_359637ddf5ff0dd5705446986a14d7e9&#45;&gt;dir_d44c64559bbebec7f509842c48db8b23 -->
<g id="edge7" class="edge">
<title>dir_359637ddf5ff0dd5705446986a14d7e9&#45;&gt;dir_d44c64559bbebec7f509842c48db8b23</title>
<g id="a_edge7"><a xlink:href="dir_000067_000013.html" target="_top">
<path fill="none" stroke="#63b8ff" d="M411.08,-54.84C423.48,-46.89 441.79,-35.14 456.43,-25.75"/>
<polygon fill="#63b8ff" stroke="#63b8ff" points="458.05,-28.87 464.58,-20.52 454.27,-22.97 458.05,-28.87"/>
</a>
</g>
<g id="a_edge7&#45;headlabel"><a xlink:href="dir_000067_000013.html" target="_top" xlink:title="7">
<text text-anchor="middle" x="457.83" y="-28.5" font-family="Helvetica,sans-Serif" font-size="10.00" fill="#63b8ff">7</text>
</a>
</g>
</g>
<!-- dir_5ca7480e1b65effbff7c19eeab4753eb -->
<g id="node9" class="node">
<title>dir_5ca7480e1b65effbff7c19eeab4753eb</title>
<g id="a_node9"><a xlink:href="dir_5ca7480e1b65effbff7c19eeab4753eb.html" target="_top" xlink:title="TPulseAnalyzer">
<polygon fill="#a2b4d6" stroke="#404040" points="342.75,-74.5 259.25,-74.5 259.25,-55.25 342.75,-55.25 342.75,-74.5"/>
<text text-anchor="middle" x="301" y="-61" font-family="Helvetica,sans-Serif" font-size="10.00">TPulseAnalyzer</text>
</a>
</g>
</g>
<!-- dir_5ca7480e1b65effbff7c19eeab4753eb&#45;&gt;dir_d44c64559bbebec7f509842c48db8b23 -->
<g id="edge8" class="edge">
<title>dir_5ca7480e1b65effbff7c19eeab4753eb&#45;&gt;dir_d44c64559bbebec7f509842c48db8b23</title>
<g id="a_edge8"><a xlink:href="dir_000068_000013.html" target="_top">
<path fill="none" stroke="#63b8ff" d="M317.13,-54.9C326.97,-49.74 339.93,-43.45 352,-39.25 382.77,-28.54 419.13,-20.86 445.22,-16.17"/>
<polygon fill="#63b8ff" stroke="#63b8ff" points="445.68,-19.64 454.94,-14.48 444.49,-12.74 445.68,-19.64"/>
</a>
</g>
<g id="a_edge8&#45;headlabel"><a xlink:href="dir_000068_000013.html" target="_top" xlink:title="1">
<text text-anchor="middle" x="444.12" y="-18.92" font-family="Helvetica,sans-Serif" font-size="10.00" fill="#63b8ff">1</text>
</a>
</g>
</g>
<!-- dir_ac005b97cd125e8cf83993aa10ba4c96 -->
<g id="node10" class="node">
<title>dir_ac005b97cd125e8cf83993aa10ba4c96</title>
<g id="a_node10"><a xlink:href="dir_ac005b97cd125e8cf83993aa10ba4c96.html" target="_top" xlink:title="TReaction">
<polygon fill="#a2b4d6" stroke="#404040" points="241.12,-74.5 180.88,-74.5 180.88,-55.25 241.12,-55.25 241.12,-74.5"/>
<text text-anchor="middle" x="211" y="-61" font-family="Helvetica,sans-Serif" font-size="10.00">TReaction</text>
</a>
</g>
</g>
<!-- dir_ac005b97cd125e8cf83993aa10ba4c96&#45;&gt;dir_d44c64559bbebec7f509842c48db8b23 -->
<g id="edge9" class="edge">
<title>dir_ac005b97cd125e8cf83993aa10ba4c96&#45;&gt;dir_d44c64559bbebec7f509842c48db8b23</title>
<g id="a_edge9"><a xlink:href="dir_000070_000013.html" target="_top">
<path fill="none" stroke="#63b8ff" d="M222.25,-54.89C229.68,-49.44 239.9,-42.86 250,-39.25 316.08,-15.61 398.88,-10.9 444.94,-10.29"/>
<polygon fill="#63b8ff" stroke="#63b8ff" points="444.88,-13.79 454.86,-10.23 444.84,-6.79 444.88,-13.79"/>
</a>
</g>
<g id="a_edge9&#45;headlabel"><a xlink:href="dir_000070_000013.html" target="_top" xlink:title="2">
<text text-anchor="middle" x="442.82" y="-12.77" font-family="Helvetica,sans-Serif" font-size="10.00" fill="#63b8ff">2</text>
</a>
</g>
</g>
<!-- dir_b8a6b11093ec7fc73cd5fa39ac4363df -->
<g id="node11" class="node">
<title>dir_b8a6b11093ec7fc73cd5fa39ac4363df</title>
<g id="a_node11"><a xlink:href="dir_b8a6b11093ec7fc73cd5fa39ac4363df.html" target="_top" xlink:title="TSRIM">
<polygon fill="#a2b4d6" stroke="#404040" points="162.38,-74.5 115.62,-74.5 115.62,-55.25 162.38,-55.25 162.38,-74.5"/>
<text text-anchor="middle" x="139" y="-61" font-family="Helvetica,sans-Serif" font-size="10.00">TSRIM</text>
</a>
</g>
</g>
<!-- dir_b8a6b11093ec7fc73cd5fa39ac4363df&#45;&gt;dir_d44c64559bbebec7f509842c48db8b23 -->
<g id="edge10" class="edge">
<title>dir_b8a6b11093ec7fc73cd5fa39ac4363df&#45;&gt;dir_d44c64559bbebec7f509842c48db8b23</title>
<g id="a_edge10"><a xlink:href="dir_000077_000013.html" target="_top">
<path fill="none" stroke="#63b8ff" d="M148.25,-54.77C154.44,-49.27 163.06,-42.69 172,-39.25 221.05,-20.4 375.07,-13.64 444.93,-11.5"/>
<polygon fill="#63b8ff" stroke="#63b8ff" points="444.76,-15.01 454.66,-11.22 444.56,-8.01 444.76,-15.01"/>
</a>
</g>
<g id="a_edge10&#45;headlabel"><a xlink:href="dir_000077_000013.html" target="_top" xlink:title="2">
<text text-anchor="middle" x="442.77" y="-14.03" font-family="Helvetica,sans-Serif" font-size="10.00" fill="#63b8ff">2</text>
</a>
</g>
</g>
<!-- dir_4e367981f2d77f8889e3f1d66e4c9aaa -->
<g id="node12" class="node">
<title>dir_4e367981f2d77f8889e3f1d66e4c9aaa</title>
<g id="a_node12"><a xlink:href="dir_4e367981f2d77f8889e3f1d66e4c9aaa.html" target="_top" xlink:title="TSuppressed">
<polygon fill="#a2b4d6" stroke="#404040" points="97.88,-74.5 24.12,-74.5 24.12,-55.25 97.88,-55.25 97.88,-74.5"/>
<text text-anchor="middle" x="61" y="-61" font-family="Helvetica,sans-Serif" font-size="10.00">TSuppressed</text>
</a>
</g>
</g>
<!-- dir_4e367981f2d77f8889e3f1d66e4c9aaa&#45;&gt;dir_d44c64559bbebec7f509842c48db8b23 -->
<g id="edge11" class="edge">
<title>dir_4e367981f2d77f8889e3f1d66e4c9aaa&#45;&gt;dir_d44c64559bbebec7f509842c48db8b23</title>
<g id="a_edge11"><a xlink:href="dir_000078_000013.html" target="_top">
<path fill="none" stroke="#63b8ff" d="M74.05,-54.99C82.93,-49.44 95.17,-42.7 107,-39.25 169.78,-20.92 364.66,-13.71 444.92,-11.47"/>
<polygon fill="#63b8ff" stroke="#63b8ff" points="444.92,-14.98 454.82,-11.21 444.73,-7.98 444.92,-14.98"/>
</a>
</g>
<g id="a_edge11&#45;headlabel"><a xlink:href="dir_000078_000013.html" target="_top" xlink:title="1">
<text text-anchor="middle" x="442.92" y="-13.99" font-family="Helvetica,sans-Serif" font-size="10.00" fill="#63b8ff">1</text>
</a>
</g>
</g>
</g>
</svg>
