<?xml version="1.0" encoding="UTF-8" standalone="no"?>
<!DOCTYPE svg PUBLIC "-//W3C//DTD SVG 1.1//EN"
 "http://www.w3.org/Graphics/SVG/1.1/DTD/svg11.dtd">
<!-- Generated by graphviz version 9.0.0 (20230911.1827)
 -->
<!-- Title: GRSIData Pages: 1 -->
<svg width="323pt" height="154pt"
 viewBox="0.00 0.00 323.00 153.75" xmlns="http://www.w3.org/2000/svg" xmlns:xlink="http://www.w3.org/1999/xlink">
<g id="graph0" class="graph" transform="scale(1 1) rotate(0) translate(4 149.75)">
<title>GRSIData</title>
<g id="clust1" class="cluster">
<title>clusterdir_1d7397b112c23d4eb2fe49dc66ace00a</title>
<g id="a_clust1"><a xlink:href="dir_1d7397b112c23d4eb2fe49dc66ace00a.html" target="_top">
<polygon fill="#edf0f7" stroke="#404040" stroke-width="2" points="8,-47.25 8,-137.75 307,-137.75 307,-47.25 8,-47.25"/>
</a>
</g>
</g>
<!-- dir_1d7397b112c23d4eb2fe49dc66ace00a -->
<g id="node1" class="node">
<title>dir_1d7397b112c23d4eb2fe49dc66ace00a</title>
<text text-anchor="middle" x="269" y="-116.25" font-family="Helvetica,sans-Serif" font-size="10.00">GRSIData</text>
</g>
<!-- dir_922bc89a4fe7a3014680e6c7709ac08a -->
<g id="node2" class="node">
<title>dir_922bc89a4fe7a3014680e6c7709ac08a</title>
<g id="a_node2"><a xlink:href="dir_922bc89a4fe7a3014680e6c7709ac08a.html" target="_top" xlink:title="histos">
<polygon fill="#a2b4d6" stroke="#404040" points="153.12,-129.75 110.88,-129.75 110.88,-110.5 153.12,-110.5 153.12,-129.75"/>
<text text-anchor="middle" x="132" y="-116.25" font-family="Helvetica,sans-Serif" font-size="10.00">histos</text>
</a>
</g>
</g>
<!-- dir_c355ed69a9ff804c1251ec805b2844ab -->
<g id="node3" class="node">
<title>dir_c355ed69a9ff804c1251ec805b2844ab</title>
<g id="a_node3"><a xlink:href="dir_c355ed69a9ff804c1251ec805b2844ab.html" target="_top" xlink:title="include">
<polygon fill="#a2b4d6" stroke="#404040" points="62.38,-74.5 15.62,-74.5 15.62,-55.25 62.38,-55.25 62.38,-74.5"/>
<text text-anchor="middle" x="39" y="-61" font-family="Helvetica,sans-Serif" font-size="10.00">include</text>
</a>
</g>
</g>
<!-- dir_922bc89a4fe7a3014680e6c7709ac08a&#45;&gt;dir_c355ed69a9ff804c1251ec805b2844ab -->
<g id="edge1" class="edge">
<title>dir_922bc89a4fe7a3014680e6c7709ac08a&#45;&gt;dir_c355ed69a9ff804c1251ec805b2844ab</title>
<g id="a_edge1"><a xlink:href="dir_000006_000010.html" target="_top">
<path fill="none" stroke="#63b8ff" d="M116.22,-110.09C102.06,-101.98 81.02,-89.93 64.47,-80.46"/>
<polygon fill="#63b8ff" stroke="#63b8ff" points="66.58,-77.64 56.17,-75.7 63.11,-83.71 66.58,-77.64"/>
</a>
</g>
<g id="a_edge1&#45;headlabel"><a xlink:href="dir_000006_000010.html" target="_top" xlink:title="5">
<text text-anchor="middle" x="69.8" y="-72.33" font-family="Helvetica,sans-Serif" font-size="10.00" fill="#63b8ff">5</text>
</a>
</g>
</g>
<!-- dir_d44c64559bbebec7f509842c48db8b23 -->
<g id="node7" class="node">
<title>dir_d44c64559bbebec7f509842c48db8b23</title>
<g id="a_node7"><a xlink:href="dir_d44c64559bbebec7f509842c48db8b23.html" target="_top" xlink:title="include">
<polygon fill="#edf0f7" stroke="#404040" points="151.38,-19.25 104.62,-19.25 104.62,0 151.38,0 151.38,-19.25"/>
<text text-anchor="middle" x="128" y="-5.75" font-family="Helvetica,sans-Serif" font-size="10.00">include</text>
</a>
</g>
</g>
<!-- dir_922bc89a4fe7a3014680e6c7709ac08a&#45;&gt;dir_d44c64559bbebec7f509842c48db8b23 -->
<g id="edge2" class="edge">
<title>dir_922bc89a4fe7a3014680e6c7709ac08a&#45;&gt;dir_d44c64559bbebec7f509842c48db8b23</title>
<g id="a_edge2"><a xlink:href="dir_000006_000013.html" target="_top">
<path fill="none" stroke="#63b8ff" d="M135.07,-110.23C139.35,-96.61 146.16,-69.8 142,-47.25 140.93,-41.45 138.98,-35.37 136.87,-29.88"/>
<polygon fill="#63b8ff" stroke="#63b8ff" points="140.26,-28.91 133.13,-21.08 133.82,-31.65 140.26,-28.91"/>
</a>
</g>
<g id="a_edge2&#45;headlabel"><a xlink:href="dir_000006_000013.html" target="_top" xlink:title="2">
<text text-anchor="middle" x="143.68" y="-25.84" font-family="Helvetica,sans-Serif" font-size="10.00" fill="#63b8ff">2</text>
</a>
</g>
</g>
<!-- dir_c355ed69a9ff804c1251ec805b2844ab&#45;&gt;dir_d44c64559bbebec7f509842c48db8b23 -->
<g id="edge3" class="edge">
<title>dir_c355ed69a9ff804c1251ec805b2844ab&#45;&gt;dir_d44c64559bbebec7f509842c48db8b23</title>
<g id="a_edge3"><a xlink:href="dir_000010_000013.html" target="_top">
<path fill="none" stroke="#63b8ff" d="M54.1,-54.84C67.52,-46.81 87.41,-34.91 103.17,-25.48"/>
<polygon fill="#63b8ff" stroke="#63b8ff" points="104.75,-28.62 111.53,-20.48 101.15,-22.61 104.75,-28.62"/>
</a>
</g>
<g id="a_edge3&#45;headlabel"><a xlink:href="dir_000010_000013.html" target="_top" xlink:title="123">
<text text-anchor="middle" x="104.42" y="-28.25" font-family="Helvetica,sans-Serif" font-size="10.00" fill="#63b8ff">123</text>
</a>
</g>
</g>
<!-- dir_04ded5cb9506aadc0b6d1c08d3b0ca72 -->
<g id="node4" class="node">
<title>dir_04ded5cb9506aadc0b6d1c08d3b0ca72</title>
<g id="a_node4"><a xlink:href="dir_04ded5cb9506aadc0b6d1c08d3b0ca72.html" target="_top" xlink:title="libraries">
<polygon fill="#a2b4d6" stroke="#404040" points="220.88,-129.75 171.12,-129.75 171.12,-110.5 220.88,-110.5 220.88,-129.75"/>
<text text-anchor="middle" x="196" y="-116.25" font-family="Helvetica,sans-Serif" font-size="10.00">libraries</text>
</a>
</g>
</g>
<!-- dir_04ded5cb9506aadc0b6d1c08d3b0ca72&#45;&gt;dir_c355ed69a9ff804c1251ec805b2844ab -->
<g id="edge4" class="edge">
<title>dir_04ded5cb9506aadc0b6d1c08d3b0ca72&#45;&gt;dir_c355ed69a9ff804c1251ec805b2844ab</title>
<g id="a_edge4"><a xlink:href="dir_000016_000010.html" target="_top">
<path fill="none" stroke="#63b8ff" d="M170.78,-110.57C144.34,-101.6 102.63,-87.46 73.23,-77.48"/>
<polygon fill="#63b8ff" stroke="#63b8ff" points="74.65,-74.27 64.05,-74.37 72.4,-80.9 74.65,-74.27"/>
</a>
</g>
<g id="a_edge4&#45;headlabel"><a xlink:href="dir_000016_000010.html" target="_top" xlink:title="93">
<text text-anchor="middle" x="77.53" y="-68.37" font-family="Helvetica,sans-Serif" font-size="10.00" fill="#63b8ff">93</text>
</a>
</g>
</g>
<!-- dir_04ded5cb9506aadc0b6d1c08d3b0ca72&#45;&gt;dir_d44c64559bbebec7f509842c48db8b23 -->
<g id="edge5" class="edge">
<title>dir_04ded5cb9506aadc0b6d1c08d3b0ca72&#45;&gt;dir_d44c64559bbebec7f509842c48db8b23</title>
<g id="a_edge5"><a xlink:href="dir_000016_000013.html" target="_top">
<path fill="none" stroke="#63b8ff" d="M191.48,-110.03C184.46,-96.14 170.25,-68.99 156,-47.25 151.9,-40.99 147.05,-34.41 142.56,-28.59"/>
<polygon fill="#63b8ff" stroke="#63b8ff" points="145.4,-26.55 136.46,-20.87 139.91,-30.89 145.4,-26.55"/>
</a>
</g>
<g id="a_edge5&#45;headlabel"><a xlink:href="dir_000016_000013.html" target="_top" xlink:title="50">
<text text-anchor="middle" x="148.92" y="-22.54" font-family="Helvetica,sans-Serif" font-size="10.00" fill="#63b8ff">50</text>
</a>
</g>
</g>
<!-- dir_8f9e4df5e3b6c5148da9bcb5e99fb906 -->
<g id="node5" class="node">
<title>dir_8f9e4df5e3b6c5148da9bcb5e99fb906</title>
<g id="a_node5"><a xlink:href="dir_8f9e4df5e3b6c5148da9bcb5e99fb906.html" target="_top" xlink:title="src">
<polygon fill="#a2b4d6" stroke="#404040" points="45.75,-129.75 16.25,-129.75 16.25,-110.5 45.75,-110.5 45.75,-129.75"/>
<text text-anchor="middle" x="31" y="-116.25" font-family="Helvetica,sans-Serif" font-size="10.00">src</text>
</a>
</g>
</g>
<!-- dir_8f9e4df5e3b6c5148da9bcb5e99fb906&#45;&gt;dir_c355ed69a9ff804c1251ec805b2844ab -->
<g id="edge6" class="edge">
<title>dir_8f9e4df5e3b6c5148da9bcb5e99fb906&#45;&gt;dir_c355ed69a9ff804c1251ec805b2844ab</title>
<g id="a_edge6"><a xlink:href="dir_000023_000010.html" target="_top">
<path fill="none" stroke="#63b8ff" d="M32.32,-110.33C33.31,-103.74 34.71,-94.46 35.97,-86.07"/>
<polygon fill="#63b8ff" stroke="#63b8ff" points="39.4,-86.76 37.43,-76.36 32.48,-85.72 39.4,-86.76"/>
</a>
</g>
<g id="a_edge6&#45;headlabel"><a xlink:href="dir_000023_000010.html" target="_top" xlink:title="3">
<text text-anchor="middle" x="41.9" y="-85.37" font-family="Helvetica,sans-Serif" font-size="10.00" fill="#63b8ff">3</text>
</a>
</g>
</g>
<!-- dir_8f9e4df5e3b6c5148da9bcb5e99fb906&#45;&gt;dir_d44c64559bbebec7f509842c48db8b23 -->
<g id="edge7" class="edge">
<title>dir_8f9e4df5e3b6c5148da9bcb5e99fb906&#45;&gt;dir_d44c64559bbebec7f509842c48db8b23</title>
<g id="a_edge7"><a xlink:href="dir_000023_000013.html" target="_top">
<path fill="none" stroke="#63b8ff" d="M38.97,-110.24C47.05,-101.24 59.9,-86.91 71,-74.5 85.03,-58.81 100.98,-40.93 112.44,-28.09"/>
<polygon fill="#63b8ff" stroke="#63b8ff" points="114.84,-30.65 118.88,-20.86 109.61,-25.99 114.84,-30.65"/>
</a>
</g>
<g id="a_edge7&#45;headlabel"><a xlink:href="dir_000023_000013.html" target="_top" xlink:title="1">
<text text-anchor="middle" x="115.57" y="-30.22" font-family="Helvetica,sans-Serif" font-size="10.00" fill="#63b8ff">1</text>
</a>
</g>
</g>
<!-- dir_8965781c9f424dd985c8251b0fe5e6e9 -->
<g id="node6" class="node">
<title>dir_8965781c9f424dd985c8251b0fe5e6e9</title>
<g id="a_node6"><a xlink:href="dir_8965781c9f424dd985c8251b0fe5e6e9.html" target="_top" xlink:title="util">
<polygon fill="#a2b4d6" stroke="#404040" points="92.4,-129.75 63.6,-129.75 63.6,-110.5 92.4,-110.5 92.4,-129.75"/>
<text text-anchor="middle" x="78" y="-116.25" font-family="Helvetica,sans-Serif" font-size="10.00">util</text>
</a>
</g>
</g>
<!-- dir_8965781c9f424dd985c8251b0fe5e6e9&#45;&gt;dir_c355ed69a9ff804c1251ec805b2844ab -->
<g id="edge8" class="edge">
<title>dir_8965781c9f424dd985c8251b0fe5e6e9&#45;&gt;dir_c355ed69a9ff804c1251ec805b2844ab</title>
<g id="a_edge8"><a xlink:href="dir_000094_000010.html" target="_top">
<path fill="none" stroke="#63b8ff" d="M71.56,-110.33C66.34,-103.21 58.81,-92.93 52.31,-84.05"/>
<polygon fill="#63b8ff" stroke="#63b8ff" points="55.21,-82.08 46.47,-76.08 49.56,-86.22 55.21,-82.08"/>
</a>
</g>
<g id="a_edge8&#45;headlabel"><a xlink:href="dir_000094_000010.html" target="_top" xlink:title="41">
<text text-anchor="middle" x="58.73" y="-78.21" font-family="Helvetica,sans-Serif" font-size="10.00" fill="#63b8ff">41</text>
</a>
</g>
</g>
<!-- dir_8965781c9f424dd985c8251b0fe5e6e9&#45;&gt;dir_d44c64559bbebec7f509842c48db8b23 -->
<g id="edge9" class="edge">
<title>dir_8965781c9f424dd985c8251b0fe5e6e9&#45;&gt;dir_d44c64559bbebec7f509842c48db8b23</title>
<g id="a_edge9"><a xlink:href="dir_000094_000013.html" target="_top">
<path fill="none" stroke="#63b8ff" d="M83.84,-110.14C89.44,-101.3 97.92,-87.3 104,-74.5 110.86,-60.07 117.15,-43.11 121.57,-30.29"/>
<polygon fill="#63b8ff" stroke="#63b8ff" points="124.85,-31.53 124.71,-20.93 118.21,-29.3 124.85,-31.53"/>
</a>
</g>
<g id="a_edge9&#45;headlabel"><a xlink:href="dir_000094_000013.html" target="_top" xlink:title="27">
<text text-anchor="middle" x="126.88" y="-30.53" font-family="Helvetica,sans-Serif" font-size="10.00" fill="#63b8ff">27</text>
</a>
</g>
</g>
</g>
</svg>
