<?xml version="1.0" encoding="UTF-8" standalone="no"?>
<!DOCTYPE svg PUBLIC "-//W3C//DTD SVG 1.1//EN"
 "http://www.w3.org/Graphics/SVG/1.1/DTD/svg11.dtd">
<!-- Generated by graphviz version 12.2.0 (20241103.1931)
 -->
<!-- Title: grsixx.cxx Pages: 1 -->
<svg width="1397pt" height="138pt"
 viewBox="0.00 0.00 1397.38 137.75" xmlns="http://www.w3.org/2000/svg" xmlns:xlink="http://www.w3.org/1999/xlink">
<g id="graph0" class="graph" transform="scale(1 1) rotate(0) translate(4 133.75)">
<title>grsixx.cxx</title>
<!-- Node1 -->
<g id="Node000001" class="node">
<title>Node1</title>
<g id="a_Node000001"><a xlink:title=" ">
<polygon fill="#999999" stroke="#666666" points="867.75,-129.75 810.5,-129.75 810.5,-110.5 867.75,-110.5 867.75,-129.75"/>
<text text-anchor="middle" x="839.12" y="-116.25" font-family="Helvetica,sans-Serif" font-size="10.00">grsixx.cxx</text>
</a>
</g>
</g>
<!-- Node2 -->
<g id="Node000002" class="node">
<title>Node2</title>
<g id="a_Node000002"><a xlink:href="_globals_8h.html" target="_top" xlink:title=" ">
<polygon fill="white" stroke="#666666" points="529.38,-74.5 472.88,-74.5 472.88,-55.25 529.38,-55.25 529.38,-74.5"/>
<text text-anchor="middle" x="501.12" y="-61" font-family="Helvetica,sans-Serif" font-size="10.00">Globals.h</text>
</a>
</g>
</g>
<!-- Node1&#45;&gt;Node2 -->
<g id="edge1_Node000001_Node000002" class="edge">
<title>Node1&#45;&gt;Node2</title>
<g id="a_edge1_Node000001_Node000002"><a xlink:title=" ">
<path fill="none" stroke="#63b8ff" d="M810.05,-115.26C756.91,-108.09 640.6,-91.84 543.12,-74.5 542.3,-74.35 541.47,-74.2 540.63,-74.05"/>
<polygon fill="#63b8ff" stroke="#63b8ff" points="541.52,-70.66 531.04,-72.21 540.2,-77.53 541.52,-70.66"/>
</a>
</g>
</g>
<!-- Node8 -->
<g id="Node000008" class="node">
<title>Node8</title>
<g id="a_Node000008"><a xlink:title=" ">
<polygon fill="#e0e0e0" stroke="#999999" points="42.25,-19.25 0,-19.25 0,0 42.25,0 42.25,-19.25"/>
<text text-anchor="middle" x="21.12" y="-5.75" font-family="Helvetica,sans-Serif" font-size="10.00">cstdio</text>
</a>
</g>
</g>
<!-- Node1&#45;&gt;Node8 -->
<g id="edge20_Node000001_Node000008" class="edge">
<title>Node1&#45;&gt;Node8</title>
<g id="a_edge20_Node000001_Node000008"><a xlink:title=" ">
<path fill="none" stroke="#63b8ff" d="M810.2,-118C730.04,-114.59 498.45,-102.84 308.12,-74.5 196.18,-57.83 166.29,-48.29 53.85,-19.83"/>
<polygon fill="#63b8ff" stroke="#63b8ff" points="54.73,-16.45 44.17,-17.39 53.01,-23.23 54.73,-16.45"/>
</a>
</g>
</g>
<!-- Node9 -->
<g id="Node000009" class="node">
<title>Node9</title>
<g id="a_Node000009"><a xlink:title=" ">
<polygon fill="#e0e0e0" stroke="#999999" points="104.38,-19.25 59.88,-19.25 59.88,0 104.38,0 104.38,-19.25"/>
<text text-anchor="middle" x="82.12" y="-5.75" font-family="Helvetica,sans-Serif" font-size="10.00">cstdlib</text>
</a>
</g>
</g>
<!-- Node1&#45;&gt;Node9 -->
<g id="edge22_Node000001_Node000009" class="edge">
<title>Node1&#45;&gt;Node9</title>
<g id="a_edge22_Node000001_Node000009"><a xlink:title=" ">
<path fill="none" stroke="#63b8ff" d="M810.2,-116.67C713.14,-108.12 390.28,-77.07 115.75,-19.38"/>
<polygon fill="#63b8ff" stroke="#63b8ff" points="116.77,-16.01 106.26,-17.37 115.32,-22.86 116.77,-16.01"/>
</a>
</g>
</g>
<!-- Node15 -->
<g id="Node000015" class="node">
<title>Node15</title>
<g id="a_Node000015"><a xlink:title=" ">
<polygon fill="#e0e0e0" stroke="#999999" points="1068,-19.25 1018.25,-19.25 1018.25,0 1068,0 1068,-19.25"/>
<text text-anchor="middle" x="1043.12" y="-5.75" font-family="Helvetica,sans-Serif" font-size="10.00">unistd.h</text>
</a>
</g>
</g>
<!-- Node1&#45;&gt;Node15 -->
<g id="edge21_Node000001_Node000015" class="edge">
<title>Node1&#45;&gt;Node15</title>
<g id="a_edge21_Node000001_Node000015"><a xlink:title=" ">
<path fill="none" stroke="#63b8ff" d="M810.24,-118.71C748.29,-117.14 605.86,-109.7 576.12,-74.5 570.6,-67.96 570.33,-61.54 576.12,-55.25 607.17,-21.53 926.03,-26.7 1006.81,-19.07"/>
<polygon fill="#63b8ff" stroke="#63b8ff" points="1007.01,-22.58 1016.5,-17.86 1006.14,-15.63 1007.01,-22.58"/>
</a>
</g>
</g>
<!-- Node19 -->
<g id="Node000019" class="node">
<title>Node19</title>
<g id="a_Node000019"><a xlink:title=" ">
<polygon fill="#e0e0e0" stroke="#999999" points="649.12,-74.5 585.12,-74.5 585.12,-55.25 649.12,-55.25 649.12,-74.5"/>
<text text-anchor="middle" x="617.12" y="-61" font-family="Helvetica,sans-Serif" font-size="10.00">GVersion.h</text>
</a>
</g>
</g>
<!-- Node1&#45;&gt;Node19 -->
<g id="edge18_Node000001_Node000019" class="edge">
<title>Node1&#45;&gt;Node19</title>
<g id="a_edge18_Node000001_Node000019"><a xlink:title=" ">
<path fill="none" stroke="#63b8ff" d="M810.1,-112.16C771.94,-103.01 704.56,-86.85 660.37,-76.25"/>
<polygon fill="#63b8ff" stroke="#63b8ff" points="661.41,-72.9 650.87,-73.97 659.77,-79.7 661.41,-72.9"/>
</a>
</g>
</g>
<!-- Node20 -->
<g id="Node000020" class="node">
<title>Node20</title>
<g id="a_Node000020"><a xlink:title=" ">
<polygon fill="#e0e0e0" stroke="#999999" points="737.5,-74.5 666.75,-74.5 666.75,-55.25 737.5,-55.25 737.5,-74.5"/>
<text text-anchor="middle" x="702.12" y="-61" font-family="Helvetica,sans-Serif" font-size="10.00">RConfigure.h</text>
</a>
</g>
</g>
<!-- Node1&#45;&gt;Node20 -->
<g id="edge19_Node000001_Node000020" class="edge">
<title>Node1&#45;&gt;Node20</title>
<g id="a_edge19_Node000001_Node000020"><a xlink:title=" ">
<path fill="none" stroke="#63b8ff" d="M815.88,-110.09C793.94,-101.56 760.78,-88.67 735.91,-79.01"/>
<polygon fill="#63b8ff" stroke="#63b8ff" points="737.48,-75.86 726.89,-75.5 734.94,-82.39 737.48,-75.86"/>
</a>
</g>
</g>
<!-- Node21 -->
<g id="Node000021" class="node">
<title>Node21</title>
<g id="a_Node000021"><a xlink:title=" ">
<polygon fill="#e0e0e0" stroke="#999999" points="800.75,-74.5 755.5,-74.5 755.5,-55.25 800.75,-55.25 800.75,-74.5"/>
<text text-anchor="middle" x="778.12" y="-61" font-family="Helvetica,sans-Serif" font-size="10.00">cstring</text>
</a>
</g>
</g>
<!-- Node1&#45;&gt;Node21 -->
<g id="edge23_Node000001_Node000021" class="edge">
<title>Node1&#45;&gt;Node21</title>
<g id="a_edge23_Node000001_Node000021"><a xlink:title=" ">
<path fill="none" stroke="#63b8ff" d="M828.78,-110.09C820.05,-102.47 807.34,-91.37 796.83,-82.2"/>
<polygon fill="#63b8ff" stroke="#63b8ff" points="799.3,-79.71 789.46,-75.77 794.69,-84.98 799.3,-79.71"/>
</a>
</g>
</g>
<!-- Node22 -->
<g id="Node000022" class="node">
<title>Node22</title>
<g id="a_Node000022"><a xlink:title=" ">
<polygon fill="#e0e0e0" stroke="#999999" points="859.88,-74.5 818.38,-74.5 818.38,-55.25 859.88,-55.25 859.88,-74.5"/>
<text text-anchor="middle" x="839.12" y="-61" font-family="Helvetica,sans-Serif" font-size="10.00">pwd.h</text>
</a>
</g>
</g>
<!-- Node1&#45;&gt;Node22 -->
<g id="edge24_Node000001_Node000022" class="edge">
<title>Node1&#45;&gt;Node22</title>
<g id="a_edge24_Node000001_Node000022"><a xlink:title=" ">
<path fill="none" stroke="#63b8ff" d="M839.12,-110.33C839.12,-103.82 839.12,-94.67 839.12,-86.37"/>
<polygon fill="#63b8ff" stroke="#63b8ff" points="842.63,-86.37 839.13,-76.37 835.63,-86.37 842.63,-86.37"/>
</a>
</g>
</g>
<!-- Node23 -->
<g id="Node000023" class="node">
<title>Node23</title>
<g id="a_Node000023"><a xlink:title=" ">
<polygon fill="#e0e0e0" stroke="#999999" points="942.5,-74.5 877.75,-74.5 877.75,-55.25 942.5,-55.25 942.5,-74.5"/>
<text text-anchor="middle" x="910.12" y="-61" font-family="Helvetica,sans-Serif" font-size="10.00">sys/types.h</text>
</a>
</g>
</g>
<!-- Node1&#45;&gt;Node23 -->
<g id="edge25_Node000001_Node000023" class="edge">
<title>Node1&#45;&gt;Node23</title>
<g id="a_edge25_Node000001_Node000023"><a xlink:title=" ">
<path fill="none" stroke="#63b8ff" d="M851.17,-110.09C861.53,-102.32 876.73,-90.92 889.09,-81.65"/>
<polygon fill="#63b8ff" stroke="#63b8ff" points="891.15,-84.48 897.05,-75.68 886.95,-78.88 891.15,-84.48"/>
</a>
</g>
</g>
<!-- Node24 -->
<g id="Node000024" class="node">
<title>Node24</title>
<g id="a_Node000024"><a xlink:title=" ">
<polygon fill="#e0e0e0" stroke="#999999" points="1021.25,-74.5 961,-74.5 961,-55.25 1021.25,-55.25 1021.25,-74.5"/>
<text text-anchor="middle" x="991.12" y="-61" font-family="Helvetica,sans-Serif" font-size="10.00">X11/Xlib.h</text>
</a>
</g>
</g>
<!-- Node1&#45;&gt;Node24 -->
<g id="edge26_Node000001_Node000024" class="edge">
<title>Node1&#45;&gt;Node24</title>
<g id="a_edge26_Node000001_Node000024"><a xlink:title=" ">
<path fill="none" stroke="#63b8ff" d="M864.91,-110.09C889.48,-101.49 926.71,-88.44 954.38,-78.75"/>
<polygon fill="#63b8ff" stroke="#63b8ff" points="955.5,-82.06 963.79,-75.45 953.19,-75.46 955.5,-82.06"/>
</a>
</g>
</g>
<!-- Node25 -->
<g id="Node000025" class="node">
<title>Node25</title>
<g id="a_Node000025"><a xlink:title=" ">
<polygon fill="#e0e0e0" stroke="#999999" points="1101,-74.5 1039.25,-74.5 1039.25,-55.25 1101,-55.25 1101,-74.5"/>
<text text-anchor="middle" x="1070.12" y="-61" font-family="Helvetica,sans-Serif" font-size="10.00">X11/xpm.h</text>
</a>
</g>
</g>
<!-- Node1&#45;&gt;Node25 -->
<g id="edge27_Node000001_Node000025" class="edge">
<title>Node1&#45;&gt;Node25</title>
<g id="a_edge27_Node000001_Node000025"><a xlink:title=" ">
<path fill="none" stroke="#63b8ff" d="M867.91,-112.49C908.05,-103.24 981.12,-86.39 1027.56,-75.69"/>
<polygon fill="#63b8ff" stroke="#63b8ff" points="1028.32,-79.1 1037.28,-73.45 1026.75,-72.28 1028.32,-79.1"/>
</a>
</g>
</g>
<!-- Node26 -->
<g id="Node000026" class="node">
<title>Node26</title>
<g id="a_Node000026"><a xlink:title=" ">
<polygon fill="#e0e0e0" stroke="#999999" points="1172.88,-74.5 1119.38,-74.5 1119.38,-55.25 1172.88,-55.25 1172.88,-74.5"/>
<text text-anchor="middle" x="1146.12" y="-61" font-family="Helvetica,sans-Serif" font-size="10.00">Rtypes.h</text>
</a>
</g>
</g>
<!-- Node1&#45;&gt;Node26 -->
<g id="edge28_Node000001_Node000026" class="edge">
<title>Node1&#45;&gt;Node26</title>
<g id="a_edge28_Node000001_Node000026"><a xlink:title=" ">
<path fill="none" stroke="#63b8ff" d="M868.13,-115.05C915.96,-108.18 1014.6,-93.37 1107.98,-74.81"/>
<polygon fill="#63b8ff" stroke="#63b8ff" points="1108.45,-78.28 1117.56,-72.88 1107.07,-71.42 1108.45,-78.28"/>
</a>
</g>
</g>
<!-- Node27 -->
<g id="Node000027" class="node">
<title>Node27</title>
<g id="a_Node000027"><a xlink:title=" ">
<polygon fill="#e0e0e0" stroke="#999999" points="1231.12,-74.5 1191.12,-74.5 1191.12,-55.25 1231.12,-55.25 1231.12,-74.5"/>
<text text-anchor="middle" x="1211.12" y="-61" font-family="Helvetica,sans-Serif" font-size="10.00">ctime</text>
</a>
</g>
</g>
<!-- Node1&#45;&gt;Node27 -->
<g id="edge29_Node000001_Node000027" class="edge">
<title>Node1&#45;&gt;Node27</title>
<g id="a_edge29_Node000001_Node000027"><a xlink:title=" ">
<path fill="none" stroke="#63b8ff" d="M867.84,-116.95C925.36,-112.26 1058.87,-99.71 1179.73,-74.71"/>
<polygon fill="#63b8ff" stroke="#63b8ff" points="1180.09,-78.21 1189.15,-72.72 1178.65,-71.36 1180.09,-78.21"/>
</a>
</g>
</g>
<!-- Node28 -->
<g id="Node000028" class="node">
<title>Node28</title>
<g id="a_Node000028"><a xlink:title=" ">
<polygon fill="#e0e0e0" stroke="#999999" points="1309.25,-74.5 1249,-74.5 1249,-55.25 1309.25,-55.25 1309.25,-74.5"/>
<text text-anchor="middle" x="1279.12" y="-61" font-family="Helvetica,sans-Serif" font-size="10.00">sys/time.h</text>
</a>
</g>
</g>
<!-- Node1&#45;&gt;Node28 -->
<g id="edge30_Node000001_Node000028" class="edge">
<title>Node1&#45;&gt;Node28</title>
<g id="a_edge30_Node000001_Node000028"><a xlink:title=" ">
<path fill="none" stroke="#63b8ff" d="M867.96,-116.98C932.39,-111.96 1093.13,-98.19 1237.3,-74.81"/>
<polygon fill="#63b8ff" stroke="#63b8ff" points="1237.73,-78.29 1247.03,-73.21 1236.6,-71.38 1237.73,-78.29"/>
</a>
</g>
</g>
<!-- Node29 -->
<g id="Node000029" class="node">
<title>Node29</title>
<g id="a_Node000029"><a xlink:title=" ">
<polygon fill="#e0e0e0" stroke="#999999" points="1389.38,-74.5 1326.88,-74.5 1326.88,-55.25 1389.38,-55.25 1389.38,-74.5"/>
<text text-anchor="middle" x="1358.12" y="-61" font-family="Helvetica,sans-Serif" font-size="10.00">TSystem.h</text>
</a>
</g>
</g>
<!-- Node1&#45;&gt;Node29 -->
<g id="edge31_Node000001_Node000029" class="edge">
<title>Node1&#45;&gt;Node29</title>
<g id="a_edge31_Node000001_Node000029"><a xlink:title=" ">
<path fill="none" stroke="#63b8ff" d="M868.16,-117.63C941.47,-113.61 1140.12,-101.1 1315.5,-74.73"/>
<polygon fill="#63b8ff" stroke="#63b8ff" points="1315.89,-78.21 1325.25,-73.24 1314.84,-71.29 1315.89,-78.21"/>
</a>
</g>
</g>
<!-- Node3 -->
<g id="Node000003" class="node">
<title>Node3</title>
<g id="a_Node000003"><a xlink:title=" ">
<polygon fill="#e0e0e0" stroke="#999999" points="456.75,-19.25 411.5,-19.25 411.5,0 456.75,0 456.75,-19.25"/>
<text text-anchor="middle" x="434.12" y="-5.75" font-family="Helvetica,sans-Serif" font-size="10.00">cstdint</text>
</a>
</g>
</g>
<!-- Node2&#45;&gt;Node3 -->
<g id="edge2_Node000002_Node000003" class="edge">
<title>Node2&#45;&gt;Node3</title>
<g id="a_edge2_Node000002_Node000003"><a xlink:title=" ">
<path fill="none" stroke="#63b8ff" d="M489.76,-54.84C480.08,-47.15 465.93,-35.9 454.32,-26.68"/>
<polygon fill="#63b8ff" stroke="#63b8ff" points="456.51,-23.95 446.51,-20.47 452.16,-29.43 456.51,-23.95"/>
</a>
</g>
</g>
<!-- Node4 -->
<g id="Node000004" class="node">
<title>Node4</title>
<g id="a_Node000004"><a xlink:title=" ">
<polygon fill="#e0e0e0" stroke="#999999" points="527.88,-19.25 474.38,-19.25 474.38,0 527.88,0 527.88,-19.25"/>
<text text-anchor="middle" x="501.12" y="-5.75" font-family="Helvetica,sans-Serif" font-size="10.00">iostream</text>
</a>
</g>
</g>
<!-- Node2&#45;&gt;Node4 -->
<g id="edge3_Node000002_Node000004" class="edge">
<title>Node2&#45;&gt;Node4</title>
<g id="a_edge3_Node000002_Node000004"><a xlink:title=" ">
<path fill="none" stroke="#63b8ff" d="M501.12,-55.08C501.12,-48.57 501.12,-39.42 501.12,-31.12"/>
<polygon fill="#63b8ff" stroke="#63b8ff" points="504.63,-31.12 501.13,-21.12 497.63,-31.12 504.63,-31.12"/>
</a>
</g>
</g>
<!-- Node5 -->
<g id="Node000005" class="node">
<title>Node5</title>
<g id="a_Node000005"><a xlink:title=" ">
<polygon fill="#e0e0e0" stroke="#999999" points="596,-19.25 546.25,-19.25 546.25,0 596,0 596,-19.25"/>
<text text-anchor="middle" x="571.12" y="-5.75" font-family="Helvetica,sans-Serif" font-size="10.00">iomanip</text>
</a>
</g>
</g>
<!-- Node2&#45;&gt;Node5 -->
<g id="edge4_Node000002_Node000005" class="edge">
<title>Node2&#45;&gt;Node5</title>
<g id="a_edge4_Node000002_Node000005"><a xlink:title=" ">
<path fill="none" stroke="#63b8ff" d="M513,-54.84C523.22,-47.07 538.2,-35.67 550.39,-26.4"/>
<polygon fill="#63b8ff" stroke="#63b8ff" points="552.38,-29.28 558.22,-20.44 548.14,-23.71 552.38,-29.28"/>
</a>
</g>
</g>
<!-- Node6 -->
<g id="Node000006" class="node">
<title>Node6</title>
<g id="a_Node000006"><a xlink:title=" ">
<polygon fill="#e0e0e0" stroke="#999999" points="672.12,-19.25 614.12,-19.25 614.12,0 672.12,0 672.12,-19.25"/>
<text text-anchor="middle" x="643.12" y="-5.75" font-family="Helvetica,sans-Serif" font-size="10.00">stdexcept</text>
</a>
</g>
</g>
<!-- Node2&#45;&gt;Node6 -->
<g id="edge5_Node000002_Node000006" class="edge">
<title>Node2&#45;&gt;Node6</title>
<g id="a_edge5_Node000002_Node000006"><a xlink:title=" ">
<path fill="none" stroke="#63b8ff" d="M525.21,-54.84C548.06,-46.27 582.64,-33.31 608.45,-23.63"/>
<polygon fill="#63b8ff" stroke="#63b8ff" points="609.37,-27.02 617.5,-20.23 606.91,-20.47 609.37,-27.02"/>
</a>
</g>
</g>
<!-- Node7 -->
<g id="Node000007" class="node">
<title>Node7</title>
<g id="a_Node000007"><a xlink:title=" ">
<polygon fill="#e0e0e0" stroke="#999999" points="730.12,-19.25 690.12,-19.25 690.12,0 730.12,0 730.12,-19.25"/>
<text text-anchor="middle" x="710.12" y="-5.75" font-family="Helvetica,sans-Serif" font-size="10.00">string</text>
</a>
</g>
</g>
<!-- Node2&#45;&gt;Node7 -->
<g id="edge6_Node000002_Node000007" class="edge">
<title>Node2&#45;&gt;Node7</title>
<g id="a_edge6_Node000002_Node000007"><a xlink:title=" ">
<path fill="none" stroke="#63b8ff" d="M529.6,-57.24C563.09,-49.35 620.6,-35.51 678.97,-19.74"/>
<polygon fill="#63b8ff" stroke="#63b8ff" points="679.69,-23.18 688.42,-17.17 677.85,-16.42 679.69,-23.18"/>
</a>
</g>
</g>
<!-- Node2&#45;&gt;Node8 -->
<g id="edge7_Node000002_Node000008" class="edge">
<title>Node2&#45;&gt;Node8</title>
<g id="a_edge7_Node000002_Node000008"><a xlink:title=" ">
<path fill="none" stroke="#63b8ff" d="M472.44,-62.83C402.39,-59.9 217,-49.87 53.85,-19.45"/>
<polygon fill="#63b8ff" stroke="#63b8ff" points="54.61,-16.03 44.13,-17.6 53.3,-22.9 54.61,-16.03"/>
</a>
</g>
</g>
<!-- Node2&#45;&gt;Node9 -->
<g id="edge8_Node000002_Node000009" class="edge">
<title>Node2&#45;&gt;Node9</title>
<g id="a_edge8_Node000002_Node000009"><a xlink:title=" ">
<path fill="none" stroke="#63b8ff" d="M472.74,-62.05C410.15,-57.72 255.43,-45.34 116.04,-19.31"/>
<polygon fill="#63b8ff" stroke="#63b8ff" points="116.72,-15.88 106.24,-17.45 115.41,-22.76 116.72,-15.88"/>
</a>
</g>
</g>
<!-- Node10 -->
<g id="Node000010" class="node">
<title>Node10</title>
<g id="a_Node000010"><a xlink:title=" ">
<polygon fill="#e0e0e0" stroke="#999999" points="807.88,-19.25 748.38,-19.25 748.38,0 807.88,0 807.88,-19.25"/>
<text text-anchor="middle" x="778.12" y="-5.75" font-family="Helvetica,sans-Serif" font-size="10.00">execinfo.h</text>
</a>
</g>
</g>
<!-- Node2&#45;&gt;Node10 -->
<g id="edge9_Node000002_Node000010" class="edge">
<title>Node2&#45;&gt;Node10</title>
<g id="a_edge9_Node000002_Node000010"><a xlink:title=" ">
<path fill="none" stroke="#63b8ff" d="M529.58,-57.95C534.1,-57.03 538.74,-56.1 543.12,-55.25 626.58,-39.02 650.43,-36.96 736.78,-19.66"/>
<polygon fill="#63b8ff" stroke="#63b8ff" points="737.32,-23.13 746.43,-17.72 735.94,-16.26 737.32,-23.13"/>
</a>
</g>
</g>
<!-- Node11 -->
<g id="Node000011" class="node">
<title>Node11</title>
<g id="a_Node000011"><a xlink:title=" ">
<polygon fill="#e0e0e0" stroke="#999999" points="876.38,-19.25 825.88,-19.25 825.88,0 876.38,0 876.38,-19.25"/>
<text text-anchor="middle" x="851.12" y="-5.75" font-family="Helvetica,sans-Serif" font-size="10.00">cxxabi.h</text>
</a>
</g>
</g>
<!-- Node2&#45;&gt;Node11 -->
<g id="edge10_Node000002_Node000011" class="edge">
<title>Node2&#45;&gt;Node11</title>
<g id="a_edge10_Node000002_Node000011"><a xlink:title=" ">
<path fill="none" stroke="#63b8ff" d="M529.54,-57.75C534.07,-56.86 538.72,-55.99 543.12,-55.25 660.7,-35.48 694.53,-41.97 814.48,-19.56"/>
<polygon fill="#63b8ff" stroke="#63b8ff" points="814.92,-23.04 824.09,-17.73 813.61,-16.16 814.92,-23.04"/>
</a>
</g>
</g>
<!-- Node12 -->
<g id="Node000012" class="node">
<title>Node12</title>
<g id="a_Node000012"><a xlink:title=" ">
<polygon fill="#e0e0e0" stroke="#999999" points="945.75,-19.25 894.5,-19.25 894.5,0 945.75,0 945.75,-19.25"/>
<text text-anchor="middle" x="920.12" y="-5.75" font-family="Helvetica,sans-Serif" font-size="10.00">sstream</text>
</a>
</g>
</g>
<!-- Node2&#45;&gt;Node12 -->
<g id="edge11_Node000002_Node000012" class="edge">
<title>Node2&#45;&gt;Node12</title>
<g id="a_edge11_Node000002_Node000012"><a xlink:title=" ">
<path fill="none" stroke="#63b8ff" d="M529.52,-57.65C534.06,-56.77 538.71,-55.93 543.12,-55.25 690.62,-32.4 732.62,-44.97 883.18,-19.34"/>
<polygon fill="#63b8ff" stroke="#63b8ff" points="883.47,-22.84 892.72,-17.69 882.27,-15.95 883.47,-22.84"/>
</a>
</g>
</g>
<!-- Node13 -->
<g id="Node000013" class="node">
<title>Node13</title>
<g id="a_Node000013"><a xlink:title=" ">
<polygon fill="#e0e0e0" stroke="#999999" points="1000.62,-19.25 963.62,-19.25 963.62,0 1000.62,0 1000.62,-19.25"/>
<text text-anchor="middle" x="982.12" y="-5.75" font-family="Helvetica,sans-Serif" font-size="10.00">array</text>
</a>
</g>
</g>
<!-- Node2&#45;&gt;Node13 -->
<g id="edge12_Node000002_Node000013" class="edge">
<title>Node2&#45;&gt;Node13</title>
<g id="a_edge12_Node000002_Node000013"><a xlink:title=" ">
<path fill="none" stroke="#63b8ff" d="M529.51,-57.58C534.05,-56.71 538.71,-55.89 543.12,-55.25 721.37,-29.25 772.86,-54.39 952.23,-19.42"/>
<polygon fill="#63b8ff" stroke="#63b8ff" points="952.77,-22.88 961.9,-17.49 951.41,-16.01 952.77,-22.88"/>
</a>
</g>
</g>
<!-- Node14 -->
<g id="Node000014" class="node">
<title>Node14</title>
<g id="a_Node000014"><a xlink:title=" ">
<polygon fill="#e0e0e0" stroke="#999999" points="173.38,-19.25 122.88,-19.25 122.88,0 173.38,0 173.38,-19.25"/>
<text text-anchor="middle" x="148.12" y="-5.75" font-family="Helvetica,sans-Serif" font-size="10.00">memory</text>
</a>
</g>
</g>
<!-- Node2&#45;&gt;Node14 -->
<g id="edge13_Node000002_Node000014" class="edge">
<title>Node2&#45;&gt;Node14</title>
<g id="a_edge13_Node000002_Node000014"><a xlink:title=" ">
<path fill="none" stroke="#63b8ff" d="M472.79,-60.97C418.69,-55.19 296.78,-41.08 184.82,-19.6"/>
<polygon fill="#63b8ff" stroke="#63b8ff" points="185.65,-16.19 175.16,-17.72 184.31,-23.06 185.65,-16.19"/>
</a>
</g>
</g>
<!-- Node2&#45;&gt;Node15 -->
<g id="edge14_Node000002_Node000015" class="edge">
<title>Node2&#45;&gt;Node15</title>
<g id="a_edge14_Node000002_Node000015"><a xlink:title=" ">
<path fill="none" stroke="#63b8ff" d="M529.51,-57.54C534.05,-56.68 538.7,-55.87 543.12,-55.25 745.64,-26.76 802.83,-52.76 1006.9,-19.53"/>
<polygon fill="#63b8ff" stroke="#63b8ff" points="1007.22,-23.02 1016.51,-17.93 1006.07,-16.12 1007.22,-23.02"/>
</a>
</g>
</g>
<!-- Node16 -->
<g id="Node000016" class="node">
<title>Node16</title>
<g id="a_Node000016"><a xlink:title=" ">
<polygon fill="#e0e0e0" stroke="#999999" points="237.12,-19.25 191.12,-19.25 191.12,0 237.12,0 237.12,-19.25"/>
<text text-anchor="middle" x="214.12" y="-5.75" font-family="Helvetica,sans-Serif" font-size="10.00">TEnv.h</text>
</a>
</g>
</g>
<!-- Node2&#45;&gt;Node16 -->
<g id="edge15_Node000002_Node000016" class="edge">
<title>Node2&#45;&gt;Node16</title>
<g id="a_edge15_Node000002_Node000016"><a xlink:title=" ">
<path fill="none" stroke="#63b8ff" d="M472.66,-59.75C427.31,-53 335.66,-38.6 248.62,-19.64"/>
<polygon fill="#63b8ff" stroke="#63b8ff" points="249.48,-16.24 238.96,-17.51 247.97,-23.08 249.48,-16.24"/>
</a>
</g>
</g>
<!-- Node17 -->
<g id="Node000017" class="node">
<title>Node17</title>
<g id="a_Node000017"><a xlink:title=" ">
<polygon fill="#e0e0e0" stroke="#999999" points="314.88,-19.25 255.38,-19.25 255.38,0 314.88,0 314.88,-19.25"/>
<text text-anchor="middle" x="285.12" y="-5.75" font-family="Helvetica,sans-Serif" font-size="10.00">sys/wait.h</text>
</a>
</g>
</g>
<!-- Node2&#45;&gt;Node17 -->
<g id="edge16_Node000002_Node000017" class="edge">
<title>Node2&#45;&gt;Node17</title>
<g id="a_edge16_Node000002_Node000017"><a xlink:title=" ">
<path fill="none" stroke="#63b8ff" d="M472.44,-56.8C435.02,-47.58 369.28,-31.37 326.47,-20.82"/>
<polygon fill="#63b8ff" stroke="#63b8ff" points="327.34,-17.43 316.79,-18.43 325.66,-24.22 327.34,-17.43"/>
</a>
</g>
</g>
<!-- Node18 -->
<g id="Node000018" class="node">
<title>Node18</title>
<g id="a_Node000018"><a xlink:title=" ">
<polygon fill="#e0e0e0" stroke="#999999" points="393.25,-19.25 333,-19.25 333,0 393.25,0 393.25,-19.25"/>
<text text-anchor="middle" x="363.12" y="-5.75" font-family="Helvetica,sans-Serif" font-size="10.00">sys/prctl.h</text>
</a>
</g>
</g>
<!-- Node2&#45;&gt;Node18 -->
<g id="edge17_Node000002_Node000018" class="edge">
<title>Node2&#45;&gt;Node18</title>
<g id="a_edge17_Node000002_Node000018"><a xlink:title=" ">
<path fill="none" stroke="#63b8ff" d="M477.72,-54.84C455.61,-46.31 422.21,-33.42 397.16,-23.76"/>
<polygon fill="#63b8ff" stroke="#63b8ff" points="398.65,-20.58 388.06,-20.25 396.13,-27.11 398.65,-20.58"/>
</a>
</g>
</g>
</g>
</svg>
