<?xml version="1.0" encoding="UTF-8" standalone="no"?>
<!DOCTYPE svg PUBLIC "-//W3C//DTD SVG 1.1//EN"
 "http://www.w3.org/Graphics/SVG/1.1/DTD/svg11.dtd">
<!-- Generated by graphviz version 12.2.0 (20241103.1931)
 -->
<!-- Title: grsixx.cxx Pages: 1 -->
<svg width="1464pt" height="138pt"
 viewBox="0.00 0.00 1464.38 137.75" xmlns="http://www.w3.org/2000/svg" xmlns:xlink="http://www.w3.org/1999/xlink">
<g id="graph0" class="graph" transform="scale(1 1) rotate(0) translate(4 133.75)">
<title>grsixx.cxx</title>
<!-- Node1 -->
<g id="Node000001" class="node">
<title>Node1</title>
<g id="a_Node000001"><a xlink:title=" ">
<polygon fill="#999999" stroke="#666666" points="934.75,-129.75 877.5,-129.75 877.5,-110.5 934.75,-110.5 934.75,-129.75"/>
<text text-anchor="middle" x="906.12" y="-116.25" font-family="Helvetica,sans-Serif" font-size="10.00">grsixx.cxx</text>
</a>
</g>
</g>
<!-- Node2 -->
<g id="Node000002" class="node">
<title>Node2</title>
<g id="a_Node000002"><a xlink:href="_globals_8h.html" target="_top" xlink:title=" ">
<polygon fill="white" stroke="#666666" points="596.38,-74.5 539.88,-74.5 539.88,-55.25 596.38,-55.25 596.38,-74.5"/>
<text text-anchor="middle" x="568.12" y="-61" font-family="Helvetica,sans-Serif" font-size="10.00">Globals.h</text>
</a>
</g>
</g>
<!-- Node1&#45;&gt;Node2 -->
<g id="edge1_Node000001_Node000002" class="edge">
<title>Node1&#45;&gt;Node2</title>
<g id="a_edge1_Node000001_Node000002"><a xlink:title=" ">
<path fill="none" stroke="#63b8ff" d="M877.05,-115.26C823.91,-108.09 707.6,-91.84 610.12,-74.5 609.3,-74.35 608.47,-74.2 607.63,-74.05"/>
<polygon fill="#63b8ff" stroke="#63b8ff" points="608.52,-70.66 598.04,-72.21 607.2,-77.53 608.52,-70.66"/>
</a>
</g>
</g>
<!-- Node7 -->
<g id="Node000007" class="node">
<title>Node7</title>
<g id="a_Node000007"><a xlink:title=" ">
<polygon fill="#e0e0e0" stroke="#999999" points="42.25,-19.25 0,-19.25 0,0 42.25,0 42.25,-19.25"/>
<text text-anchor="middle" x="21.12" y="-5.75" font-family="Helvetica,sans-Serif" font-size="10.00">cstdio</text>
</a>
</g>
</g>
<!-- Node1&#45;&gt;Node7 -->
<g id="edge22_Node000001_Node000007" class="edge">
<title>Node1&#45;&gt;Node7</title>
<g id="a_edge22_Node000001_Node000007"><a xlink:title=" ">
<path fill="none" stroke="#63b8ff" d="M877.02,-118.14C791.91,-114.98 536.21,-103.58 326.12,-74.5 206.26,-57.91 174.1,-49.29 53.83,-19.78"/>
<polygon fill="#63b8ff" stroke="#63b8ff" points="54.71,-16.4 44.17,-17.42 53.05,-23.2 54.71,-16.4"/>
</a>
</g>
</g>
<!-- Node9 -->
<g id="Node000009" class="node">
<title>Node9</title>
<g id="a_Node000009"><a xlink:title=" ">
<polygon fill="#e0e0e0" stroke="#999999" points="104.38,-19.25 59.88,-19.25 59.88,0 104.38,0 104.38,-19.25"/>
<text text-anchor="middle" x="82.12" y="-5.75" font-family="Helvetica,sans-Serif" font-size="10.00">cstdlib</text>
</a>
</g>
</g>
<!-- Node1&#45;&gt;Node9 -->
<g id="edge24_Node000001_Node000009" class="edge">
<title>Node1&#45;&gt;Node9</title>
<g id="a_edge24_Node000001_Node000009"><a xlink:title=" ">
<path fill="none" stroke="#63b8ff" d="M877.11,-116.99C774.31,-109.09 417.87,-79.01 115.93,-19.35"/>
<polygon fill="#63b8ff" stroke="#63b8ff" points="116.74,-15.94 106.25,-17.42 115.37,-22.8 116.74,-15.94"/>
</a>
</g>
</g>
<!-- Node15 -->
<g id="Node000015" class="node">
<title>Node15</title>
<g id="a_Node000015"><a xlink:title=" ">
<polygon fill="#e0e0e0" stroke="#999999" points="1198,-19.25 1148.25,-19.25 1148.25,0 1198,0 1198,-19.25"/>
<text text-anchor="middle" x="1173.12" y="-5.75" font-family="Helvetica,sans-Serif" font-size="10.00">unistd.h</text>
</a>
</g>
</g>
<!-- Node1&#45;&gt;Node15 -->
<g id="edge23_Node000001_Node000015" class="edge">
<title>Node1&#45;&gt;Node15</title>
<g id="a_edge23_Node000001_Node000015"><a xlink:title=" ">
<path fill="none" stroke="#63b8ff" d="M877.24,-118.71C815.29,-117.14 672.86,-109.7 643.12,-74.5 637.6,-67.96 637.3,-61.51 643.12,-55.25 679.03,-16.65 1047.61,-27.11 1136.76,-19.06"/>
<polygon fill="#63b8ff" stroke="#63b8ff" points="1136.99,-22.56 1146.5,-17.88 1136.15,-15.61 1136.99,-22.56"/>
</a>
</g>
</g>
<!-- Node21 -->
<g id="Node000021" class="node">
<title>Node21</title>
<g id="a_Node000021"><a xlink:title=" ">
<polygon fill="#e0e0e0" stroke="#999999" points="716.12,-74.5 652.12,-74.5 652.12,-55.25 716.12,-55.25 716.12,-74.5"/>
<text text-anchor="middle" x="684.12" y="-61" font-family="Helvetica,sans-Serif" font-size="10.00">GVersion.h</text>
</a>
</g>
</g>
<!-- Node1&#45;&gt;Node21 -->
<g id="edge20_Node000001_Node000021" class="edge">
<title>Node1&#45;&gt;Node21</title>
<g id="a_edge20_Node000001_Node000021"><a xlink:title=" ">
<path fill="none" stroke="#63b8ff" d="M877.1,-112.16C838.94,-103.01 771.56,-86.85 727.37,-76.25"/>
<polygon fill="#63b8ff" stroke="#63b8ff" points="728.41,-72.9 717.87,-73.97 726.77,-79.7 728.41,-72.9"/>
</a>
</g>
</g>
<!-- Node22 -->
<g id="Node000022" class="node">
<title>Node22</title>
<g id="a_Node000022"><a xlink:title=" ">
<polygon fill="#e0e0e0" stroke="#999999" points="804.5,-74.5 733.75,-74.5 733.75,-55.25 804.5,-55.25 804.5,-74.5"/>
<text text-anchor="middle" x="769.12" y="-61" font-family="Helvetica,sans-Serif" font-size="10.00">RConfigure.h</text>
</a>
</g>
</g>
<!-- Node1&#45;&gt;Node22 -->
<g id="edge21_Node000001_Node000022" class="edge">
<title>Node1&#45;&gt;Node22</title>
<g id="a_edge21_Node000001_Node000022"><a xlink:title=" ">
<path fill="none" stroke="#63b8ff" d="M882.88,-110.09C860.94,-101.56 827.78,-88.67 802.91,-79.01"/>
<polygon fill="#63b8ff" stroke="#63b8ff" points="804.48,-75.86 793.89,-75.5 801.94,-82.39 804.48,-75.86"/>
</a>
</g>
</g>
<!-- Node23 -->
<g id="Node000023" class="node">
<title>Node23</title>
<g id="a_Node000023"><a xlink:title=" ">
<polygon fill="#e0e0e0" stroke="#999999" points="867.75,-74.5 822.5,-74.5 822.5,-55.25 867.75,-55.25 867.75,-74.5"/>
<text text-anchor="middle" x="845.12" y="-61" font-family="Helvetica,sans-Serif" font-size="10.00">cstring</text>
</a>
</g>
</g>
<!-- Node1&#45;&gt;Node23 -->
<g id="edge25_Node000001_Node000023" class="edge">
<title>Node1&#45;&gt;Node23</title>
<g id="a_edge25_Node000001_Node000023"><a xlink:title=" ">
<path fill="none" stroke="#63b8ff" d="M895.78,-110.09C887.05,-102.47 874.34,-91.37 863.83,-82.2"/>
<polygon fill="#63b8ff" stroke="#63b8ff" points="866.3,-79.71 856.46,-75.77 861.69,-84.98 866.3,-79.71"/>
</a>
</g>
</g>
<!-- Node24 -->
<g id="Node000024" class="node">
<title>Node24</title>
<g id="a_Node000024"><a xlink:title=" ">
<polygon fill="#e0e0e0" stroke="#999999" points="926.88,-74.5 885.38,-74.5 885.38,-55.25 926.88,-55.25 926.88,-74.5"/>
<text text-anchor="middle" x="906.12" y="-61" font-family="Helvetica,sans-Serif" font-size="10.00">pwd.h</text>
</a>
</g>
</g>
<!-- Node1&#45;&gt;Node24 -->
<g id="edge26_Node000001_Node000024" class="edge">
<title>Node1&#45;&gt;Node24</title>
<g id="a_edge26_Node000001_Node000024"><a xlink:title=" ">
<path fill="none" stroke="#63b8ff" d="M906.12,-110.33C906.12,-103.82 906.12,-94.67 906.12,-86.37"/>
<polygon fill="#63b8ff" stroke="#63b8ff" points="909.63,-86.37 906.13,-76.37 902.63,-86.37 909.63,-86.37"/>
</a>
</g>
</g>
<!-- Node25 -->
<g id="Node000025" class="node">
<title>Node25</title>
<g id="a_Node000025"><a xlink:title=" ">
<polygon fill="#e0e0e0" stroke="#999999" points="1009.5,-74.5 944.75,-74.5 944.75,-55.25 1009.5,-55.25 1009.5,-74.5"/>
<text text-anchor="middle" x="977.12" y="-61" font-family="Helvetica,sans-Serif" font-size="10.00">sys/types.h</text>
</a>
</g>
</g>
<!-- Node1&#45;&gt;Node25 -->
<g id="edge27_Node000001_Node000025" class="edge">
<title>Node1&#45;&gt;Node25</title>
<g id="a_edge27_Node000001_Node000025"><a xlink:title=" ">
<path fill="none" stroke="#63b8ff" d="M918.17,-110.09C928.53,-102.32 943.73,-90.92 956.09,-81.65"/>
<polygon fill="#63b8ff" stroke="#63b8ff" points="958.15,-84.48 964.05,-75.68 953.95,-78.88 958.15,-84.48"/>
</a>
</g>
</g>
<!-- Node26 -->
<g id="Node000026" class="node">
<title>Node26</title>
<g id="a_Node000026"><a xlink:title=" ">
<polygon fill="#e0e0e0" stroke="#999999" points="1088.25,-74.5 1028,-74.5 1028,-55.25 1088.25,-55.25 1088.25,-74.5"/>
<text text-anchor="middle" x="1058.12" y="-61" font-family="Helvetica,sans-Serif" font-size="10.00">X11/Xlib.h</text>
</a>
</g>
</g>
<!-- Node1&#45;&gt;Node26 -->
<g id="edge28_Node000001_Node000026" class="edge">
<title>Node1&#45;&gt;Node26</title>
<g id="a_edge28_Node000001_Node000026"><a xlink:title=" ">
<path fill="none" stroke="#63b8ff" d="M931.91,-110.09C956.48,-101.49 993.71,-88.44 1021.38,-78.75"/>
<polygon fill="#63b8ff" stroke="#63b8ff" points="1022.5,-82.06 1030.79,-75.45 1020.19,-75.46 1022.5,-82.06"/>
</a>
</g>
</g>
<!-- Node27 -->
<g id="Node000027" class="node">
<title>Node27</title>
<g id="a_Node000027"><a xlink:title=" ">
<polygon fill="#e0e0e0" stroke="#999999" points="1168,-74.5 1106.25,-74.5 1106.25,-55.25 1168,-55.25 1168,-74.5"/>
<text text-anchor="middle" x="1137.12" y="-61" font-family="Helvetica,sans-Serif" font-size="10.00">X11/xpm.h</text>
</a>
</g>
</g>
<!-- Node1&#45;&gt;Node27 -->
<g id="edge29_Node000001_Node000027" class="edge">
<title>Node1&#45;&gt;Node27</title>
<g id="a_edge29_Node000001_Node000027"><a xlink:title=" ">
<path fill="none" stroke="#63b8ff" d="M934.91,-112.49C975.05,-103.24 1048.12,-86.39 1094.56,-75.69"/>
<polygon fill="#63b8ff" stroke="#63b8ff" points="1095.32,-79.1 1104.28,-73.45 1093.75,-72.28 1095.32,-79.1"/>
</a>
</g>
</g>
<!-- Node28 -->
<g id="Node000028" class="node">
<title>Node28</title>
<g id="a_Node000028"><a xlink:title=" ">
<polygon fill="#e0e0e0" stroke="#999999" points="1239.88,-74.5 1186.38,-74.5 1186.38,-55.25 1239.88,-55.25 1239.88,-74.5"/>
<text text-anchor="middle" x="1213.12" y="-61" font-family="Helvetica,sans-Serif" font-size="10.00">Rtypes.h</text>
</a>
</g>
</g>
<!-- Node1&#45;&gt;Node28 -->
<g id="edge30_Node000001_Node000028" class="edge">
<title>Node1&#45;&gt;Node28</title>
<g id="a_edge30_Node000001_Node000028"><a xlink:title=" ">
<path fill="none" stroke="#63b8ff" d="M935.13,-115.05C982.96,-108.18 1081.6,-93.37 1174.98,-74.81"/>
<polygon fill="#63b8ff" stroke="#63b8ff" points="1175.45,-78.28 1184.56,-72.88 1174.07,-71.42 1175.45,-78.28"/>
</a>
</g>
</g>
<!-- Node29 -->
<g id="Node000029" class="node">
<title>Node29</title>
<g id="a_Node000029"><a xlink:title=" ">
<polygon fill="#e0e0e0" stroke="#999999" points="1298.12,-74.5 1258.12,-74.5 1258.12,-55.25 1298.12,-55.25 1298.12,-74.5"/>
<text text-anchor="middle" x="1278.12" y="-61" font-family="Helvetica,sans-Serif" font-size="10.00">ctime</text>
</a>
</g>
</g>
<!-- Node1&#45;&gt;Node29 -->
<g id="edge31_Node000001_Node000029" class="edge">
<title>Node1&#45;&gt;Node29</title>
<g id="a_edge31_Node000001_Node000029"><a xlink:title=" ">
<path fill="none" stroke="#63b8ff" d="M934.84,-116.95C992.36,-112.26 1125.87,-99.71 1246.73,-74.71"/>
<polygon fill="#63b8ff" stroke="#63b8ff" points="1247.09,-78.21 1256.15,-72.72 1245.65,-71.36 1247.09,-78.21"/>
</a>
</g>
</g>
<!-- Node30 -->
<g id="Node000030" class="node">
<title>Node30</title>
<g id="a_Node000030"><a xlink:title=" ">
<polygon fill="#e0e0e0" stroke="#999999" points="1376.25,-74.5 1316,-74.5 1316,-55.25 1376.25,-55.25 1376.25,-74.5"/>
<text text-anchor="middle" x="1346.12" y="-61" font-family="Helvetica,sans-Serif" font-size="10.00">sys/time.h</text>
</a>
</g>
</g>
<!-- Node1&#45;&gt;Node30 -->
<g id="edge32_Node000001_Node000030" class="edge">
<title>Node1&#45;&gt;Node30</title>
<g id="a_edge32_Node000001_Node000030"><a xlink:title=" ">
<path fill="none" stroke="#63b8ff" d="M934.96,-116.98C999.39,-111.96 1160.13,-98.19 1304.3,-74.81"/>
<polygon fill="#63b8ff" stroke="#63b8ff" points="1304.73,-78.29 1314.03,-73.21 1303.6,-71.38 1304.73,-78.29"/>
</a>
</g>
</g>
<!-- Node31 -->
<g id="Node000031" class="node">
<title>Node31</title>
<g id="a_Node000031"><a xlink:title=" ">
<polygon fill="#e0e0e0" stroke="#999999" points="1456.38,-74.5 1393.88,-74.5 1393.88,-55.25 1456.38,-55.25 1456.38,-74.5"/>
<text text-anchor="middle" x="1425.12" y="-61" font-family="Helvetica,sans-Serif" font-size="10.00">TSystem.h</text>
</a>
</g>
</g>
<!-- Node1&#45;&gt;Node31 -->
<g id="edge33_Node000001_Node000031" class="edge">
<title>Node1&#45;&gt;Node31</title>
<g id="a_edge33_Node000001_Node000031"><a xlink:title=" ">
<path fill="none" stroke="#63b8ff" d="M935.16,-117.63C1008.47,-113.61 1207.12,-101.1 1382.5,-74.73"/>
<polygon fill="#63b8ff" stroke="#63b8ff" points="1382.89,-78.21 1392.25,-73.24 1381.84,-71.29 1382.89,-78.21"/>
</a>
</g>
</g>
<!-- Node3 -->
<g id="Node000003" class="node">
<title>Node3</title>
<g id="a_Node000003"><a xlink:title=" ">
<polygon fill="#e0e0e0" stroke="#999999" points="594.88,-19.25 541.38,-19.25 541.38,0 594.88,0 594.88,-19.25"/>
<text text-anchor="middle" x="568.12" y="-5.75" font-family="Helvetica,sans-Serif" font-size="10.00">iostream</text>
</a>
</g>
</g>
<!-- Node2&#45;&gt;Node3 -->
<g id="edge2_Node000002_Node000003" class="edge">
<title>Node2&#45;&gt;Node3</title>
<g id="a_edge2_Node000002_Node000003"><a xlink:title=" ">
<path fill="none" stroke="#63b8ff" d="M568.12,-55.08C568.12,-48.57 568.12,-39.42 568.12,-31.12"/>
<polygon fill="#63b8ff" stroke="#63b8ff" points="571.63,-31.12 568.13,-21.12 564.63,-31.12 571.63,-31.12"/>
</a>
</g>
</g>
<!-- Node4 -->
<g id="Node000004" class="node">
<title>Node4</title>
<g id="a_Node000004"><a xlink:title=" ">
<polygon fill="#e0e0e0" stroke="#999999" points="663,-19.25 613.25,-19.25 613.25,0 663,0 663,-19.25"/>
<text text-anchor="middle" x="638.12" y="-5.75" font-family="Helvetica,sans-Serif" font-size="10.00">iomanip</text>
</a>
</g>
</g>
<!-- Node2&#45;&gt;Node4 -->
<g id="edge3_Node000002_Node000004" class="edge">
<title>Node2&#45;&gt;Node4</title>
<g id="a_edge3_Node000002_Node000004"><a xlink:title=" ">
<path fill="none" stroke="#63b8ff" d="M580,-54.84C590.22,-47.07 605.2,-35.67 617.39,-26.4"/>
<polygon fill="#63b8ff" stroke="#63b8ff" points="619.38,-29.28 625.22,-20.44 615.14,-23.71 619.38,-29.28"/>
</a>
</g>
</g>
<!-- Node5 -->
<g id="Node000005" class="node">
<title>Node5</title>
<g id="a_Node000005"><a xlink:title=" ">
<polygon fill="#e0e0e0" stroke="#999999" points="739.12,-19.25 681.12,-19.25 681.12,0 739.12,0 739.12,-19.25"/>
<text text-anchor="middle" x="710.12" y="-5.75" font-family="Helvetica,sans-Serif" font-size="10.00">stdexcept</text>
</a>
</g>
</g>
<!-- Node2&#45;&gt;Node5 -->
<g id="edge4_Node000002_Node000005" class="edge">
<title>Node2&#45;&gt;Node5</title>
<g id="a_edge4_Node000002_Node000005"><a xlink:title=" ">
<path fill="none" stroke="#63b8ff" d="M592.21,-54.84C615.06,-46.27 649.64,-33.31 675.45,-23.63"/>
<polygon fill="#63b8ff" stroke="#63b8ff" points="676.37,-27.02 684.5,-20.23 673.91,-20.47 676.37,-27.02"/>
</a>
</g>
</g>
<!-- Node6 -->
<g id="Node000006" class="node">
<title>Node6</title>
<g id="a_Node000006"><a xlink:title=" ">
<polygon fill="#e0e0e0" stroke="#999999" points="797.12,-19.25 757.12,-19.25 757.12,0 797.12,0 797.12,-19.25"/>
<text text-anchor="middle" x="777.12" y="-5.75" font-family="Helvetica,sans-Serif" font-size="10.00">string</text>
</a>
</g>
</g>
<!-- Node2&#45;&gt;Node6 -->
<g id="edge5_Node000002_Node000006" class="edge">
<title>Node2&#45;&gt;Node6</title>
<g id="a_edge5_Node000002_Node000006"><a xlink:title=" ">
<path fill="none" stroke="#63b8ff" d="M596.6,-57.24C630.09,-49.35 687.6,-35.51 745.97,-19.74"/>
<polygon fill="#63b8ff" stroke="#63b8ff" points="746.69,-23.18 755.42,-17.17 744.85,-16.42 746.69,-23.18"/>
</a>
</g>
</g>
<!-- Node2&#45;&gt;Node7 -->
<g id="edge6_Node000002_Node000007" class="edge">
<title>Node2&#45;&gt;Node7</title>
<g id="a_edge6_Node000002_Node000007"><a xlink:title=" ">
<path fill="none" stroke="#63b8ff" d="M539.56,-63.35C462.51,-61.52 243.93,-53.63 53.95,-19.43"/>
<polygon fill="#63b8ff" stroke="#63b8ff" points="54.59,-15.98 44.12,-17.62 53.33,-22.87 54.59,-15.98"/>
</a>
</g>
</g>
<!-- Node8 -->
<g id="Node000008" class="node">
<title>Node8</title>
<g id="a_Node000008"><a xlink:title=" ">
<polygon fill="#e0e0e0" stroke="#999999" points="860.75,-19.25 815.5,-19.25 815.5,0 860.75,0 860.75,-19.25"/>
<text text-anchor="middle" x="838.12" y="-5.75" font-family="Helvetica,sans-Serif" font-size="10.00">cstdint</text>
</a>
</g>
</g>
<!-- Node2&#45;&gt;Node8 -->
<g id="edge7_Node000002_Node000008" class="edge">
<title>Node2&#45;&gt;Node8</title>
<g id="a_edge7_Node000002_Node000008"><a xlink:title=" ">
<path fill="none" stroke="#63b8ff" d="M596.58,-57.95C601.1,-57.03 605.74,-56.1 610.12,-55.25 693.58,-39.02 717.82,-38.78 803.99,-19.57"/>
<polygon fill="#63b8ff" stroke="#63b8ff" points="804.65,-23.02 813.63,-17.4 803.11,-16.19 804.65,-23.02"/>
</a>
</g>
</g>
<!-- Node2&#45;&gt;Node9 -->
<g id="edge8_Node000002_Node000009" class="edge">
<title>Node2&#45;&gt;Node9</title>
<g id="a_edge8_Node000002_Node000009"><a xlink:title=" ">
<path fill="none" stroke="#63b8ff" d="M539.48,-62.7C469.01,-59.48 281.55,-48.78 115.64,-19.19"/>
<polygon fill="#63b8ff" stroke="#63b8ff" points="116.7,-15.83 106.23,-17.49 115.45,-22.72 116.7,-15.83"/>
</a>
</g>
</g>
<!-- Node10 -->
<g id="Node000010" class="node">
<title>Node10</title>
<g id="a_Node000010"><a xlink:title=" ">
<polygon fill="#e0e0e0" stroke="#999999" points="937.88,-19.25 878.38,-19.25 878.38,0 937.88,0 937.88,-19.25"/>
<text text-anchor="middle" x="908.12" y="-5.75" font-family="Helvetica,sans-Serif" font-size="10.00">execinfo.h</text>
</a>
</g>
</g>
<!-- Node2&#45;&gt;Node10 -->
<g id="edge9_Node000002_Node000010" class="edge">
<title>Node2&#45;&gt;Node10</title>
<g id="a_edge9_Node000002_Node000010"><a xlink:title=" ">
<path fill="none" stroke="#63b8ff" d="M596.54,-57.78C601.08,-56.88 605.72,-56.01 610.12,-55.25 721.51,-36.12 753.39,-39.91 866.67,-19.76"/>
<polygon fill="#63b8ff" stroke="#63b8ff" points="867.18,-23.22 876.4,-18 865.94,-16.33 867.18,-23.22"/>
</a>
</g>
</g>
<!-- Node11 -->
<g id="Node000011" class="node">
<title>Node11</title>
<g id="a_Node000011"><a xlink:title=" ">
<polygon fill="#e0e0e0" stroke="#999999" points="1006.38,-19.25 955.88,-19.25 955.88,0 1006.38,0 1006.38,-19.25"/>
<text text-anchor="middle" x="981.12" y="-5.75" font-family="Helvetica,sans-Serif" font-size="10.00">cxxabi.h</text>
</a>
</g>
</g>
<!-- Node2&#45;&gt;Node11 -->
<g id="edge10_Node000002_Node000011" class="edge">
<title>Node2&#45;&gt;Node11</title>
<g id="a_edge10_Node000002_Node000011"><a xlink:title=" ">
<path fill="none" stroke="#63b8ff" d="M596.52,-57.66C601.06,-56.78 605.71,-55.94 610.12,-55.25 755.33,-32.64 796.85,-45.19 944.32,-19.52"/>
<polygon fill="#63b8ff" stroke="#63b8ff" points="944.87,-22.97 954.1,-17.78 943.64,-16.08 944.87,-22.97"/>
</a>
</g>
</g>
<!-- Node12 -->
<g id="Node000012" class="node">
<title>Node12</title>
<g id="a_Node000012"><a xlink:title=" ">
<polygon fill="#e0e0e0" stroke="#999999" points="1075.75,-19.25 1024.5,-19.25 1024.5,0 1075.75,0 1075.75,-19.25"/>
<text text-anchor="middle" x="1050.12" y="-5.75" font-family="Helvetica,sans-Serif" font-size="10.00">sstream</text>
</a>
</g>
</g>
<!-- Node2&#45;&gt;Node12 -->
<g id="edge11_Node000002_Node000012" class="edge">
<title>Node2&#45;&gt;Node12</title>
<g id="a_edge11_Node000002_Node000012"><a xlink:title=" ">
<path fill="none" stroke="#63b8ff" d="M596.51,-57.59C601.05,-56.72 605.71,-55.9 610.12,-55.25 785.26,-29.57 834.85,-48.16 1012.87,-19.35"/>
<polygon fill="#63b8ff" stroke="#63b8ff" points="1013.43,-22.8 1022.73,-17.72 1012.29,-15.9 1013.43,-22.8"/>
</a>
</g>
</g>
<!-- Node13 -->
<g id="Node000013" class="node">
<title>Node13</title>
<g id="a_Node000013"><a xlink:title=" ">
<polygon fill="#e0e0e0" stroke="#999999" points="1130.62,-19.25 1093.62,-19.25 1093.62,0 1130.62,0 1130.62,-19.25"/>
<text text-anchor="middle" x="1112.12" y="-5.75" font-family="Helvetica,sans-Serif" font-size="10.00">array</text>
</a>
</g>
</g>
<!-- Node2&#45;&gt;Node13 -->
<g id="edge12_Node000002_Node000013" class="edge">
<title>Node2&#45;&gt;Node13</title>
<g id="a_edge12_Node000002_Node000013"><a xlink:title=" ">
<path fill="none" stroke="#63b8ff" d="M596.51,-57.54C601.04,-56.67 605.7,-55.87 610.12,-55.25 816.11,-26.41 875.25,-58.57 1082.14,-19.4"/>
<polygon fill="#63b8ff" stroke="#63b8ff" points="1082.75,-22.85 1091.9,-17.51 1081.42,-15.97 1082.75,-22.85"/>
</a>
</g>
</g>
<!-- Node14 -->
<g id="Node000014" class="node">
<title>Node14</title>
<g id="a_Node000014"><a xlink:title=" ">
<polygon fill="#e0e0e0" stroke="#999999" points="173.38,-19.25 122.88,-19.25 122.88,0 173.38,0 173.38,-19.25"/>
<text text-anchor="middle" x="148.12" y="-5.75" font-family="Helvetica,sans-Serif" font-size="10.00">memory</text>
</a>
</g>
</g>
<!-- Node2&#45;&gt;Node14 -->
<g id="edge13_Node000002_Node000014" class="edge">
<title>Node2&#45;&gt;Node14</title>
<g id="a_edge13_Node000002_Node000014"><a xlink:title=" ">
<path fill="none" stroke="#63b8ff" d="M539.45,-61.8C476.94,-57 323.6,-43.81 184.89,-19.33"/>
<polygon fill="#63b8ff" stroke="#63b8ff" points="185.61,-15.9 175.15,-17.58 184.37,-22.79 185.61,-15.9"/>
</a>
</g>
</g>
<!-- Node2&#45;&gt;Node15 -->
<g id="edge14_Node000002_Node000015" class="edge">
<title>Node2&#45;&gt;Node15</title>
<g id="a_edge14_Node000002_Node000015"><a xlink:title=" ">
<path fill="none" stroke="#63b8ff" d="M596.5,-57.51C601.04,-56.65 605.7,-55.85 610.12,-55.25 840.41,-23.93 905.1,-56.23 1136.84,-19.51"/>
<polygon fill="#63b8ff" stroke="#63b8ff" points="1137.2,-23 1146.51,-17.95 1136.08,-16.09 1137.2,-23"/>
</a>
</g>
</g>
<!-- Node16 -->
<g id="Node000016" class="node">
<title>Node16</title>
<g id="a_Node000016"><a xlink:title=" ">
<polygon fill="#e0e0e0" stroke="#999999" points="226.5,-19.25 191.75,-19.25 191.75,0 226.5,0 226.5,-19.25"/>
<text text-anchor="middle" x="209.12" y="-5.75" font-family="Helvetica,sans-Serif" font-size="10.00">map</text>
</a>
</g>
</g>
<!-- Node2&#45;&gt;Node16 -->
<g id="edge15_Node000002_Node000016" class="edge">
<title>Node2&#45;&gt;Node16</title>
<g id="a_edge15_Node000002_Node000016"><a xlink:title=" ">
<path fill="none" stroke="#63b8ff" d="M539.74,-61.87C483.6,-57.53 354.38,-45.64 237.78,-19.5"/>
<polygon fill="#63b8ff" stroke="#63b8ff" points="238.91,-16.17 228.38,-17.35 237.35,-22.99 238.91,-16.17"/>
</a>
</g>
</g>
<!-- Node17 -->
<g id="Node000017" class="node">
<title>Node17</title>
<g id="a_Node000017"><a xlink:title=" ">
<polygon fill="#e0e0e0" stroke="#999999" points="293.62,-19.25 244.62,-19.25 244.62,0 293.62,0 293.62,-19.25"/>
<text text-anchor="middle" x="269.12" y="-5.75" font-family="Helvetica,sans-Serif" font-size="10.00">fstream</text>
</a>
</g>
</g>
<!-- Node2&#45;&gt;Node17 -->
<g id="edge16_Node000002_Node000017" class="edge">
<title>Node2&#45;&gt;Node17</title>
<g id="a_edge16_Node000002_Node000017"><a xlink:title=" ">
<path fill="none" stroke="#63b8ff" d="M539.62,-59.95C492.67,-53.3 395.93,-38.82 304.99,-19.72"/>
<polygon fill="#63b8ff" stroke="#63b8ff" points="305.92,-16.34 295.41,-17.68 304.47,-23.18 305.92,-16.34"/>
</a>
</g>
</g>
<!-- Node18 -->
<g id="Node000018" class="node">
<title>Node18</title>
<g id="a_Node000018"><a xlink:title=" ">
<polygon fill="#e0e0e0" stroke="#999999" points="367,-19.25 311.25,-19.25 311.25,0 367,0 367,-19.25"/>
<text text-anchor="middle" x="339.12" y="-5.75" font-family="Helvetica,sans-Serif" font-size="10.00">algorithm</text>
</a>
</g>
</g>
<!-- Node2&#45;&gt;Node18 -->
<g id="edge17_Node000002_Node000018" class="edge">
<title>Node2&#45;&gt;Node18</title>
<g id="a_edge17_Node000002_Node000018"><a xlink:title=" ">
<path fill="none" stroke="#63b8ff" d="M539.5,-57.23C504.03,-48.99 441.45,-34.45 378.36,-19.77"/>
<polygon fill="#63b8ff" stroke="#63b8ff" points="379.41,-16.42 368.88,-17.56 377.83,-23.24 379.41,-16.42"/>
</a>
</g>
</g>
<!-- Node19 -->
<g id="Node000019" class="node">
<title>Node19</title>
<g id="a_Node000019"><a xlink:title=" ">
<polygon fill="#e0e0e0" stroke="#999999" points="444.88,-19.25 385.38,-19.25 385.38,0 444.88,0 444.88,-19.25"/>
<text text-anchor="middle" x="415.12" y="-5.75" font-family="Helvetica,sans-Serif" font-size="10.00">sys/wait.h</text>
</a>
</g>
</g>
<!-- Node2&#45;&gt;Node19 -->
<g id="edge18_Node000002_Node000019" class="edge">
<title>Node2&#45;&gt;Node19</title>
<g id="a_edge18_Node000002_Node000019"><a xlink:title=" ">
<path fill="none" stroke="#63b8ff" d="M542.17,-54.84C517.33,-46.2 479.63,-33.07 451.74,-23.37"/>
<polygon fill="#63b8ff" stroke="#63b8ff" points="453.23,-20.18 442.64,-20.2 450.93,-26.79 453.23,-20.18"/>
</a>
</g>
</g>
<!-- Node20 -->
<g id="Node000020" class="node">
<title>Node20</title>
<g id="a_Node000020"><a xlink:title=" ">
<polygon fill="#e0e0e0" stroke="#999999" points="523.25,-19.25 463,-19.25 463,0 523.25,0 523.25,-19.25"/>
<text text-anchor="middle" x="493.12" y="-5.75" font-family="Helvetica,sans-Serif" font-size="10.00">sys/prctl.h</text>
</a>
</g>
</g>
<!-- Node2&#45;&gt;Node20 -->
<g id="edge19_Node000002_Node000020" class="edge">
<title>Node2&#45;&gt;Node20</title>
<g id="a_edge19_Node000002_Node000020"><a xlink:title=" ">
<path fill="none" stroke="#63b8ff" d="M555.4,-54.84C544.41,-47.04 528.28,-35.59 515.19,-26.29"/>
<polygon fill="#63b8ff" stroke="#63b8ff" points="517.32,-23.51 507.14,-20.58 513.27,-29.22 517.32,-23.51"/>
</a>
</g>
</g>
</g>
</svg>
