<?xml version="1.0" encoding="UTF-8" standalone="no"?>
<!DOCTYPE svg PUBLIC "-//W3C//DTD SVG 1.1//EN"
 "http://www.w3.org/Graphics/SVG/1.1/DTD/svg11.dtd">
<!-- Generated by graphviz version 9.0.0 (20230911.1827)
 -->
<!-- Title: Graphical Class Hierarchy Pages: 1 -->
<svg width="334pt" height="298pt"
 viewBox="0.00 0.00 333.50 298.25" xmlns="http://www.w3.org/2000/svg" xmlns:xlink="http://www.w3.org/1999/xlink">
<g id="graph0" class="graph" transform="scale(1 1) rotate(0) translate(4 294.25)">
<title>Graphical Class Hierarchy</title>
<!-- Node0 -->
<g id="Node000000" class="node">
<title>Node0</title>
<g id="a_Node000000"><a xlink:title=" ">
<polygon fill="#e0e0e0" stroke="#999999" points="75.25,-160.25 0,-160.25 0,-141 75.25,-141 75.25,-160.25"/>
<text text-anchor="middle" x="37.62" y="-146.75" font-family="Helvetica,sans-Serif" font-size="10.00">std::exception</text>
</a>
</g>
</g>
<!-- Node1 -->
<g id="Node000001" class="node">
<title>Node1</title>
<g id="a_Node000001"><a xlink:href="class_different_axis_limits.html" target="_top" xlink:title=" ">
<polygon fill="white" stroke="#666666" points="218.38,-290.25 120.62,-290.25 120.62,-271 218.38,-271 218.38,-290.25"/>
<text text-anchor="middle" x="169.5" y="-276.75" font-family="Helvetica,sans-Serif" font-size="10.00">DifferentAxisLimits</text>
</a>
</g>
</g>
<!-- Node0&#45;&gt;Node1 -->
<g id="edge80_Node000000_Node000001" class="edge">
<title>Node0&#45;&gt;Node1</title>
<g id="a_edge80_Node000000_Node000001"><a xlink:title=" ">
<path fill="none" stroke="#63b8ff" d="M46.74,-171.19C57.7,-196.34 79.56,-238.53 111.25,-262.62 115.4,-265.78 120.11,-268.39 125,-270.54"/>
<polygon fill="#63b8ff" stroke="#63b8ff" points="50.02,-169.94 42.94,-162.06 43.55,-172.63 50.02,-169.94"/>
</a>
</g>
</g>
<!-- Node2 -->
<g id="Node000002" class="node">
<title>Node2</title>
<g id="a_Node000002"><a xlink:href="class_different_bin_limits.html" target="_top" xlink:title=" ">
<polygon fill="white" stroke="#666666" points="216.12,-253.25 122.88,-253.25 122.88,-234 216.12,-234 216.12,-253.25"/>
<text text-anchor="middle" x="169.5" y="-239.75" font-family="Helvetica,sans-Serif" font-size="10.00">DifferentBinLimits</text>
</a>
</g>
</g>
<!-- Node0&#45;&gt;Node2 -->
<g id="edge81_Node000000_Node000002" class="edge">
<title>Node0&#45;&gt;Node2</title>
<g id="a_edge81_Node000000_Node000002"><a xlink:title=" ">
<path fill="none" stroke="#63b8ff" d="M52.55,-169.66C65.86,-186.6 87.4,-210.9 111.25,-225.62 116.3,-228.74 121.94,-231.37 127.66,-233.56"/>
<polygon fill="#63b8ff" stroke="#63b8ff" points="55.46,-167.71 46.62,-161.87 49.89,-171.95 55.46,-167.71"/>
</a>
</g>
</g>
<!-- Node3 -->
<g id="Node000003" class="node">
<title>Node3</title>
<g id="a_Node000003"><a xlink:href="class_different_dimension.html" target="_top" xlink:title=" ">
<polygon fill="white" stroke="#666666" points="218.38,-216.25 120.62,-216.25 120.62,-197 218.38,-197 218.38,-216.25"/>
<text text-anchor="middle" x="169.5" y="-202.75" font-family="Helvetica,sans-Serif" font-size="10.00">DifferentDimension</text>
</a>
</g>
</g>
<!-- Node0&#45;&gt;Node3 -->
<g id="edge82_Node000000_Node000003" class="edge">
<title>Node0&#45;&gt;Node3</title>
<g id="a_edge82_Node000000_Node000003"><a xlink:title=" ">
<path fill="none" stroke="#63b8ff" d="M65.81,-166.32C79.22,-173.68 95.8,-182.21 111.25,-188.62 118.18,-191.5 125.74,-194.18 133.03,-196.55"/>
<polygon fill="#63b8ff" stroke="#63b8ff" points="67.58,-163.29 57.14,-161.47 64.16,-169.4 67.58,-163.29"/>
</a>
</g>
</g>
<!-- Node4 -->
<g id="Node000004" class="node">
<title>Node4</title>
<g id="a_Node000004"><a xlink:href="class_different_labels.html" target="_top" xlink:title=" ">
<polygon fill="white" stroke="#666666" points="210.12,-179.25 128.88,-179.25 128.88,-160 210.12,-160 210.12,-179.25"/>
<text text-anchor="middle" x="169.5" y="-165.75" font-family="Helvetica,sans-Serif" font-size="10.00">DifferentLabels</text>
</a>
</g>
</g>
<!-- Node0&#45;&gt;Node4 -->
<g id="edge83_Node000000_Node000004" class="edge">
<title>Node0&#45;&gt;Node4</title>
<g id="a_edge83_Node000000_Node000004"><a xlink:title=" ">
<path fill="none" stroke="#63b8ff" d="M86.8,-157.67C100.63,-159.7 115.55,-161.88 128.81,-163.82"/>
<polygon fill="#63b8ff" stroke="#63b8ff" points="87.39,-154.22 76.99,-156.24 86.38,-161.15 87.39,-154.22"/>
</a>
</g>
</g>
<!-- Node5 -->
<g id="Node000005" class="node">
<title>Node5</title>
<g id="a_Node000005"><a xlink:href="class_different_number_of_bins.html" target="_top" xlink:title=" ">
<polygon fill="white" stroke="#666666" points="227.75,-142.25 111.25,-142.25 111.25,-123 227.75,-123 227.75,-142.25"/>
<text text-anchor="middle" x="169.5" y="-128.75" font-family="Helvetica,sans-Serif" font-size="10.00">DifferentNumberOfBins</text>
</a>
</g>
</g>
<!-- Node0&#45;&gt;Node5 -->
<g id="edge84_Node000000_Node000005" class="edge">
<title>Node0&#45;&gt;Node5</title>
<g id="a_edge84_Node000000_Node000005"><a xlink:title=" ">
<path fill="none" stroke="#63b8ff" d="M86.8,-143.95C94.73,-142.85 103.02,-141.7 111.15,-140.57"/>
<polygon fill="#63b8ff" stroke="#63b8ff" points="86.42,-140.47 76.99,-145.31 87.38,-147.4 86.42,-140.47"/>
</a>
</g>
</g>
<!-- Node6 -->
<g id="Node000006" class="node">
<title>Node6</title>
<g id="a_Node000006"><a xlink:href="class_t_g_r_s_i_map_exception.html" target="_top" xlink:title=" ">
<polygon fill="white" stroke="#666666" points="225.88,-104.88 113.12,-104.88 113.12,-74.38 225.88,-74.38 225.88,-104.88"/>
<text text-anchor="start" x="121.12" y="-91.38" font-family="Helvetica,sans-Serif" font-size="10.00">TGRSIMapException&lt;</text>
<text text-anchor="middle" x="169.5" y="-80.12" font-family="Helvetica,sans-Serif" font-size="10.00"> key_type &gt;</text>
</a>
</g>
</g>
<!-- Node0&#45;&gt;Node6 -->
<g id="edge85_Node000000_Node000006" class="edge">
<title>Node0&#45;&gt;Node6</title>
<g id="a_edge85_Node000000_Node000006"><a xlink:title=" ">
<path fill="none" stroke="#63b8ff" d="M67.22,-135.44C80.5,-128.55 96.56,-120.43 111.25,-113.62 117.21,-110.86 123.59,-108.05 129.83,-105.37"/>
<polygon fill="#63b8ff" stroke="#63b8ff" points="65.83,-132.22 58.59,-139.95 69.07,-138.42 65.83,-132.22"/>
</a>
</g>
</g>
<!-- Node7 -->
<g id="Node000007" class="node">
<title>Node7</title>
<g id="a_Node000007"><a xlink:href="structgrsi_1_1exit__exception.html" target="_top" xlink:title=" ">
<polygon fill="white" stroke="#666666" points="218.38,-56.25 120.62,-56.25 120.62,-37 218.38,-37 218.38,-56.25"/>
<text text-anchor="middle" x="169.5" y="-42.75" font-family="Helvetica,sans-Serif" font-size="10.00">grsi::exit_exception</text>
</a>
</g>
</g>
<!-- Node0&#45;&gt;Node7 -->
<g id="edge86_Node000000_Node000007" class="edge">
<title>Node0&#45;&gt;Node7</title>
<g id="a_edge86_Node000000_Node000007"><a xlink:title=" ">
<path fill="none" stroke="#63b8ff" d="M50.66,-131.15C63.47,-111.94 85.43,-82.99 111.25,-65.62 116.55,-62.06 122.58,-59.11 128.68,-56.7"/>
<polygon fill="#63b8ff" stroke="#63b8ff" points="47.81,-129.12 45.34,-139.42 53.69,-132.91 47.81,-129.12"/>
</a>
</g>
</g>
<!-- Node8 -->
<g id="Node000008" class="node">
<title>Node8</title>
<g id="a_Node000008"><a xlink:title=" ">
<polygon fill="#e0e0e0" stroke="#999999" points="215,-19.25 124,-19.25 124,0 215,0 215,-19.25"/>
<text text-anchor="middle" x="169.5" y="-5.75" font-family="Helvetica,sans-Serif" font-size="10.00">std::runtime_error</text>
</a>
</g>
</g>
<!-- Node0&#45;&gt;Node8 -->
<g id="edge87_Node000000_Node000008" class="edge">
<title>Node0&#45;&gt;Node8</title>
<g id="a_edge87_Node000000_Node000008"><a xlink:title=" ">
<path fill="none" stroke="#63b8ff" d="M45.46,-130.03C55.57,-102.7 77.08,-54.76 111.25,-27.62 115.25,-24.45 119.81,-21.83 124.58,-19.67"/>
<polygon fill="#63b8ff" stroke="#63b8ff" points="42.24,-128.65 42.22,-139.25 48.84,-130.97 42.24,-128.65"/>
</a>
</g>
</g>
<!-- Node9 -->
<g id="Node000009" class="node">
<title>Node9</title>
<g id="a_Node000009"><a xlink:href="struct_parse_error.html" target="_top" xlink:title=" ">
<polygon fill="white" stroke="#666666" points="325.5,-19.25 263.75,-19.25 263.75,0 325.5,0 325.5,-19.25"/>
<text text-anchor="middle" x="294.62" y="-5.75" font-family="Helvetica,sans-Serif" font-size="10.00">ParseError</text>
</a>
</g>
</g>
<!-- Node8&#45;&gt;Node9 -->
<g id="edge88_Node000008_Node000009" class="edge">
<title>Node8&#45;&gt;Node9</title>
<g id="a_edge88_Node000008_Node000009"><a xlink:title=" ">
<path fill="none" stroke="#63b8ff" d="M226.72,-9.62C239.32,-9.62 252.22,-9.62 263.28,-9.62"/>
<polygon fill="#63b8ff" stroke="#63b8ff" points="226.81,-6.13 216.81,-9.63 226.81,-13.13 226.81,-6.13"/>
</a>
</g>
</g>
</g>
</svg>
