<?xml version="1.0" encoding="UTF-8" standalone="no"?>
<!DOCTYPE svg PUBLIC "-//W3C//DTD SVG 1.1//EN"
 "http://www.w3.org/Graphics/SVG/1.1/DTD/svg11.dtd">
<!-- Generated by graphviz version 12.2.0 (20241103.1931)
 -->
<!-- Title: Graphical Class Hierarchy Pages: 1 -->
<svg width="221pt" height="175pt"
 viewBox="0.00 0.00 220.75 175.25" xmlns="http://www.w3.org/2000/svg" xmlns:xlink="http://www.w3.org/1999/xlink">
<g id="graph0" class="graph" transform="scale(1 1) rotate(0) translate(4 171.25)">
<title>Graphical Class Hierarchy</title>
<!-- Node0 -->
<g id="Node000000" class="node">
<title>Node0</title>
<g id="a_Node000000"><a xlink:title=" ">
<polygon fill="#e0e0e0" stroke="#999999" points="76.38,-167.25 1.88,-167.25 1.88,-148 76.38,-148 76.38,-167.25"/>
<text text-anchor="middle" x="39.12" y="-153.75" font-family="Helvetica,sans-Serif" font-size="10.00">TBrowserImp</text>
</a>
</g>
</g>
<!-- Node1 -->
<g id="Node000001" class="node">
<title>Node1</title>
<g id="a_Node000001"><a xlink:href="class_g_root_browser.html" target="_top" xlink:title=" ">
<polygon fill="white" stroke="#666666" points="203.38,-167.25 123.62,-167.25 123.62,-148 203.38,-148 203.38,-167.25"/>
<text text-anchor="middle" x="163.5" y="-153.75" font-family="Helvetica,sans-Serif" font-size="10.00">GRootBrowser</text>
</a>
</g>
</g>
<!-- Node0&#45;&gt;Node1 -->
<g id="edge205_Node000000_Node000001" class="edge">
<title>Node0&#45;&gt;Node1</title>
<g id="a_edge205_Node000000_Node000001"><a xlink:title=" ">
<path fill="none" stroke="#63b8ff" d="M88.18,-157.62C99.8,-157.62 112.09,-157.62 123.25,-157.62"/>
<polygon fill="#63b8ff" stroke="#63b8ff" points="88.36,-154.13 78.36,-157.63 88.36,-161.13 88.36,-154.13"/>
</a>
</g>
</g>
<!-- Node4 -->
<g id="Node000004" class="node">
<title>Node4</title>
<g id="a_Node000004"><a xlink:title=" ">
<polygon fill="#e0e0e0" stroke="#999999" points="74.88,-130.25 3.38,-130.25 3.38,-111 74.88,-111 74.88,-130.25"/>
<text text-anchor="middle" x="39.12" y="-116.75" font-family="Helvetica,sans-Serif" font-size="10.00">TCanvasImp</text>
</a>
</g>
</g>
<!-- Node3 -->
<g id="Node000003" class="node">
<title>Node3</title>
<g id="a_Node000003"><a xlink:href="class_g_root_canvas.html" target="_top" xlink:title=" ">
<polygon fill="white" stroke="#666666" points="201.88,-130.25 125.12,-130.25 125.12,-111 201.88,-111 201.88,-130.25"/>
<text text-anchor="middle" x="163.5" y="-116.75" font-family="Helvetica,sans-Serif" font-size="10.00">GRootCanvas</text>
</a>
</g>
</g>
<!-- Node4&#45;&gt;Node3 -->
<g id="edge206_Node000004_Node000003" class="edge">
<title>Node4&#45;&gt;Node3</title>
<g id="a_edge206_Node000004_Node000003"><a xlink:title=" ">
<path fill="none" stroke="#63b8ff" d="M86.51,-120.62C99.18,-120.62 112.74,-120.62 124.86,-120.62"/>
<polygon fill="#63b8ff" stroke="#63b8ff" points="86.71,-117.13 76.71,-120.63 86.71,-124.13 86.71,-117.13"/>
</a>
</g>
</g>
<!-- Node2 -->
<g id="Node000002" class="node">
<title>Node2</title>
<g id="a_Node000002"><a xlink:title=" ">
<polygon fill="#e0e0e0" stroke="#999999" points="78.25,-93.25 0,-93.25 0,-74 78.25,-74 78.25,-93.25"/>
<text text-anchor="middle" x="39.12" y="-79.75" font-family="Helvetica,sans-Serif" font-size="10.00">TGMainFrame</text>
</a>
</g>
</g>
<!-- Node2&#45;&gt;Node1 -->
<g id="edge207_Node000002_Node000001" class="edge">
<title>Node2&#45;&gt;Node1</title>
<g id="a_edge207_Node000002_Node000001"><a xlink:title=" ">
<path fill="none" stroke="#63b8ff" d="M74.62,-99.16C75.87,-99.96 77.08,-100.78 78.25,-101.62 97.09,-115.27 94.85,-126.78 114.25,-139.62 118.87,-142.68 124.09,-145.32 129.33,-147.55"/>
<polygon fill="#63b8ff" stroke="#63b8ff" points="76.43,-96.16 66,-94.31 73,-102.26 76.43,-96.16"/>
</a>
</g>
</g>
<!-- Node2&#45;&gt;Node3 -->
<g id="edge208_Node000002_Node000003" class="edge">
<title>Node2&#45;&gt;Node3</title>
<g id="a_edge208_Node000002_Node000003"><a xlink:title=" ">
<path fill="none" stroke="#63b8ff" d="M84.49,-97.04C99.21,-101.49 115.35,-106.37 129.1,-110.53"/>
<polygon fill="#63b8ff" stroke="#63b8ff" points="85.6,-93.72 75.01,-94.17 83.57,-100.42 85.6,-93.72"/>
</a>
</g>
</g>
<!-- Node5 -->
<g id="Node000005" class="node">
<title>Node5</title>
<g id="a_Node000005"><a xlink:href="class_t_b_g_subtraction.html" target="_top" xlink:title=" ">
<polygon fill="white" stroke="#666666" points="206.38,-93.25 120.62,-93.25 120.62,-74 206.38,-74 206.38,-93.25"/>
<text text-anchor="middle" x="163.5" y="-79.75" font-family="Helvetica,sans-Serif" font-size="10.00">TBGSubtraction</text>
</a>
</g>
</g>
<!-- Node2&#45;&gt;Node5 -->
<g id="edge209_Node000002_Node000005" class="edge">
<title>Node2&#45;&gt;Node5</title>
<g id="a_edge209_Node000002_Node000005"><a xlink:title=" ">
<path fill="none" stroke="#63b8ff" d="M89.75,-83.62C99.93,-83.62 110.55,-83.62 120.43,-83.62"/>
<polygon fill="#63b8ff" stroke="#63b8ff" points="90.02,-80.13 80.02,-83.63 90.02,-87.13 90.02,-80.13"/>
</a>
</g>
</g>
<!-- Node6 -->
<g id="Node000006" class="node">
<title>Node6</title>
<g id="a_Node000006"><a xlink:href="class_t_calibrate_descant.html" target="_top" xlink:title=" ">
<polygon fill="white" stroke="#666666" points="211.62,-56.25 115.38,-56.25 115.38,-37 211.62,-37 211.62,-56.25"/>
<text text-anchor="middle" x="163.5" y="-42.75" font-family="Helvetica,sans-Serif" font-size="10.00">TCalibrateDescant</text>
</a>
</g>
</g>
<!-- Node2&#45;&gt;Node6 -->
<g id="edge210_Node000002_Node000006" class="edge">
<title>Node2&#45;&gt;Node6</title>
<g id="a_edge210_Node000002_Node000006"><a xlink:title=" ">
<path fill="none" stroke="#63b8ff" d="M84.49,-70.21C99.21,-65.76 115.35,-60.88 129.1,-56.72"/>
<polygon fill="#63b8ff" stroke="#63b8ff" points="83.57,-66.83 75.01,-73.08 85.6,-73.53 83.57,-66.83"/>
</a>
</g>
</g>
<!-- Node7 -->
<g id="Node000007" class="node">
<title>Node7</title>
<g id="a_Node000007"><a xlink:href="class_t_source_calibration.html" target="_top" xlink:title=" ">
<polygon fill="white" stroke="#666666" points="212.75,-19.25 114.25,-19.25 114.25,0 212.75,0 212.75,-19.25"/>
<text text-anchor="middle" x="163.5" y="-5.75" font-family="Helvetica,sans-Serif" font-size="10.00">TSourceCalibration</text>
</a>
</g>
</g>
<!-- Node2&#45;&gt;Node7 -->
<g id="edge211_Node000002_Node000007" class="edge">
<title>Node2&#45;&gt;Node7</title>
<g id="a_edge211_Node000002_Node000007"><a xlink:title=" ">
<path fill="none" stroke="#63b8ff" d="M59.46,-66.52C73.83,-54.47 94.3,-38.58 114.25,-27.62 119.66,-24.66 125.66,-21.98 131.53,-19.65"/>
<polygon fill="#63b8ff" stroke="#63b8ff" points="57.44,-63.65 52.12,-72.82 61.99,-68.97 57.44,-63.65"/>
</a>
</g>
</g>
</g>
</svg>
