<?xml version="1.0" encoding="UTF-8" standalone="no"?>
<!DOCTYPE svg PUBLIC "-//W3C//DTD SVG 1.1//EN"
 "http://www.w3.org/Graphics/SVG/1.1/DTD/svg11.dtd">
<!-- Generated by graphviz version 9.0.0 (20230911.1827)
 -->
<!-- Title: Graphical Class Hierarchy Pages: 1 -->
<svg width="352pt" height="323pt"
 viewBox="0.00 0.00 351.50 323.25" xmlns="http://www.w3.org/2000/svg" xmlns:xlink="http://www.w3.org/1999/xlink">
<g id="graph0" class="graph" transform="scale(1 1) rotate(0) translate(4 319.25)">
<title>Graphical Class Hierarchy</title>
<!-- Node0 -->
<g id="Node000000" class="node">
<title>Node0</title>
<g id="a_Node000000"><a xlink:title=" ">
<polygon fill="#e0e0e0" stroke="#999999" points="58,-167.25 0,-167.25 0,-148 58,-148 58,-167.25"/>
<text text-anchor="middle" x="29" y="-153.75" font-family="Helvetica,sans-Serif" font-size="10.00">TSelector</text>
</a>
</g>
</g>
<!-- Node1 -->
<g id="Node000001" class="node">
<title>Node1</title>
<g id="a_Node000001"><a xlink:href="class_t_g_r_s_i_selector.html" target="_top" xlink:title=" ">
<polygon fill="white" stroke="#666666" points="176,-167.25 94,-167.25 94,-148 176,-148 176,-167.25"/>
<text text-anchor="middle" x="135" y="-153.75" font-family="Helvetica,sans-Serif" font-size="10.00">TGRSISelector</text>
</a>
</g>
</g>
<!-- Node0&#45;&gt;Node1 -->
<g id="edge160_Node000000_Node000001" class="edge">
<title>Node0&#45;&gt;Node1</title>
<g id="a_edge160_Node000000_Node000001"><a xlink:title=" ">
<path fill="none" stroke="#63b8ff" d="M69.82,-157.62C77.59,-157.62 85.74,-157.62 93.53,-157.62"/>
<polygon fill="#63b8ff" stroke="#63b8ff" points="69.93,-154.13 59.93,-157.63 69.93,-161.13 69.93,-154.13"/>
</a>
</g>
</g>
<!-- Node2 -->
<g id="Node000002" class="node">
<title>Node2</title>
<g id="a_Node000002"><a xlink:href="class_alphanumeric_selector.html" target="_top" xlink:title=" ">
<polygon fill="white" stroke="#666666" points="333.38,-315.25 222.12,-315.25 222.12,-296 333.38,-296 333.38,-315.25"/>
<text text-anchor="middle" x="277.75" y="-301.75" font-family="Helvetica,sans-Serif" font-size="10.00">AlphanumericSelector</text>
</a>
</g>
</g>
<!-- Node1&#45;&gt;Node2 -->
<g id="edge161_Node000001_Node000002" class="edge">
<title>Node1&#45;&gt;Node2</title>
<g id="a_edge161_Node000001_Node000002"><a xlink:title=" ">
<path fill="none" stroke="#63b8ff" d="M142.51,-178.32C152.67,-207.18 175.03,-259.14 212,-287.62 216.16,-290.83 220.86,-293.46 225.78,-295.63"/>
<polygon fill="#63b8ff" stroke="#63b8ff" points="145.87,-177.32 139.38,-168.94 139.23,-179.54 145.87,-177.32"/>
</a>
</g>
</g>
<!-- Node3 -->
<g id="Node000003" class="node">
<title>Node3</title>
<g id="a_Node000003"><a xlink:href="class_angular_correlation_selector.html" target="_top" xlink:title=" ">
<polygon fill="white" stroke="#666666" points="343.5,-278.25 212,-278.25 212,-259 343.5,-259 343.5,-278.25"/>
<text text-anchor="middle" x="277.75" y="-264.75" font-family="Helvetica,sans-Serif" font-size="10.00">AngularCorrelationSelector</text>
</a>
</g>
</g>
<!-- Node1&#45;&gt;Node3 -->
<g id="edge162_Node000001_Node000003" class="edge">
<title>Node1&#45;&gt;Node3</title>
<g id="a_edge162_Node000001_Node000003"><a xlink:title=" ">
<path fill="none" stroke="#63b8ff" d="M147.01,-177.32C159.89,-198.54 183.16,-231.79 212,-250.62 216.88,-253.81 222.33,-256.44 227.93,-258.61"/>
<polygon fill="#63b8ff" stroke="#63b8ff" points="150.08,-175.63 142.02,-168.76 144.04,-179.16 150.08,-175.63"/>
</a>
</g>
</g>
<!-- Node4 -->
<g id="Node000004" class="node">
<title>Node4</title>
<g id="a_Node000004"><a xlink:href="class_cross_talk.html" target="_top" xlink:title=" ">
<polygon fill="white" stroke="#666666" points="307.88,-241.25 247.62,-241.25 247.62,-222 307.88,-222 307.88,-241.25"/>
<text text-anchor="middle" x="277.75" y="-227.75" font-family="Helvetica,sans-Serif" font-size="10.00">CrossTalk</text>
</a>
</g>
</g>
<!-- Node1&#45;&gt;Node4 -->
<g id="edge163_Node000001_Node000004" class="edge">
<title>Node1&#45;&gt;Node4</title>
<g id="a_edge163_Node000001_Node000004"><a xlink:title=" ">
<path fill="none" stroke="#63b8ff" d="M155.12,-174.8C169.76,-187.15 190.97,-203.38 212,-213.62 223.01,-218.99 235.89,-222.98 247.24,-225.82"/>
<polygon fill="#63b8ff" stroke="#63b8ff" points="157.5,-172.23 147.65,-168.33 152.92,-177.52 157.5,-172.23"/>
</a>
</g>
</g>
<!-- Node5 -->
<g id="Node000005" class="node">
<title>Node5</title>
<g id="a_Node000005"><a xlink:href="class_example_event_selector.html" target="_top" xlink:title=" ">
<polygon fill="white" stroke="#666666" points="334.5,-204.25 221,-204.25 221,-185 334.5,-185 334.5,-204.25"/>
<text text-anchor="middle" x="277.75" y="-190.75" font-family="Helvetica,sans-Serif" font-size="10.00">ExampleEventSelector</text>
</a>
</g>
</g>
<!-- Node1&#45;&gt;Node5 -->
<g id="edge164_Node000001_Node000005" class="edge">
<title>Node1&#45;&gt;Node5</title>
<g id="a_edge164_Node000001_Node000005"><a xlink:title=" ">
<path fill="none" stroke="#63b8ff" d="M185.53,-170.65C202.86,-175.2 222.05,-180.25 238.34,-184.53"/>
<polygon fill="#63b8ff" stroke="#63b8ff" points="186.49,-167.28 175.92,-168.12 184.71,-174.05 186.49,-167.28"/>
</a>
</g>
</g>
<!-- Node6 -->
<g id="Node000006" class="node">
<title>Node6</title>
<g id="a_Node000006"><a xlink:href="class_example_fragment_selector.html" target="_top" xlink:title=" ">
<polygon fill="white" stroke="#666666" points="342.75,-167.25 212.75,-167.25 212.75,-148 342.75,-148 342.75,-167.25"/>
<text text-anchor="middle" x="277.75" y="-153.75" font-family="Helvetica,sans-Serif" font-size="10.00">ExampleFragmentSelector</text>
</a>
</g>
</g>
<!-- Node1&#45;&gt;Node6 -->
<g id="edge165_Node000001_Node000006" class="edge">
<title>Node1&#45;&gt;Node6</title>
<g id="a_edge165_Node000001_Node000006"><a xlink:title=" ">
<path fill="none" stroke="#63b8ff" d="M187.8,-157.62C195.84,-157.62 204.23,-157.62 212.5,-157.62"/>
<polygon fill="#63b8ff" stroke="#63b8ff" points="187.85,-154.13 177.85,-157.63 187.85,-161.13 187.85,-154.13"/>
</a>
</g>
</g>
<!-- Node7 -->
<g id="Node000007" class="node">
<title>Node7</title>
<g id="a_Node000007"><a xlink:href="class_example_tree_selector.html" target="_top" xlink:title=" ">
<polygon fill="white" stroke="#666666" points="331.88,-130.25 223.62,-130.25 223.62,-111 331.88,-111 331.88,-130.25"/>
<text text-anchor="middle" x="277.75" y="-116.75" font-family="Helvetica,sans-Serif" font-size="10.00">ExampleTreeSelector</text>
</a>
</g>
</g>
<!-- Node1&#45;&gt;Node7 -->
<g id="edge166_Node000001_Node000007" class="edge">
<title>Node1&#45;&gt;Node7</title>
<g id="a_edge166_Node000001_Node000007"><a xlink:title=" ">
<path fill="none" stroke="#63b8ff" d="M185.53,-144.6C202.86,-140.05 222.05,-135 238.34,-130.72"/>
<polygon fill="#63b8ff" stroke="#63b8ff" points="184.71,-141.2 175.92,-147.13 186.49,-147.97 184.71,-141.2"/>
</a>
</g>
</g>
<!-- Node8 -->
<g id="Node000008" class="node">
<title>Node8</title>
<g id="a_Node000008"><a xlink:href="class_fast_timing_hist_selector.html" target="_top" xlink:title=" ">
<polygon fill="white" stroke="#666666" points="337.12,-93.25 218.38,-93.25 218.38,-74 337.12,-74 337.12,-93.25"/>
<text text-anchor="middle" x="277.75" y="-79.75" font-family="Helvetica,sans-Serif" font-size="10.00">FastTimingHistSelector</text>
</a>
</g>
</g>
<!-- Node1&#45;&gt;Node8 -->
<g id="edge167_Node000001_Node000008" class="edge">
<title>Node1&#45;&gt;Node8</title>
<g id="a_edge167_Node000001_Node000008"><a xlink:title=" ">
<path fill="none" stroke="#63b8ff" d="M155.12,-140.45C169.76,-128.1 190.97,-111.87 212,-101.62 218.29,-98.56 225.19,-95.94 232.07,-93.73"/>
<polygon fill="#63b8ff" stroke="#63b8ff" points="152.92,-137.73 147.65,-146.92 157.5,-143.02 152.92,-137.73"/>
</a>
</g>
</g>
<!-- Node9 -->
<g id="Node000009" class="node">
<title>Node9</title>
<g id="a_Node000009"><a xlink:href="class_griffin_k_value_selector.html" target="_top" xlink:title=" ">
<polygon fill="white" stroke="#666666" points="331.88,-56.25 223.62,-56.25 223.62,-37 331.88,-37 331.88,-56.25"/>
<text text-anchor="middle" x="277.75" y="-42.75" font-family="Helvetica,sans-Serif" font-size="10.00">GriffinKValueSelector</text>
</a>
</g>
</g>
<!-- Node1&#45;&gt;Node9 -->
<g id="edge168_Node000001_Node000009" class="edge">
<title>Node1&#45;&gt;Node9</title>
<g id="a_edge168_Node000001_Node000009"><a xlink:title=" ">
<path fill="none" stroke="#63b8ff" d="M147.01,-137.93C159.89,-116.71 183.16,-83.46 212,-64.62 216.88,-61.44 222.33,-58.81 227.93,-56.64"/>
<polygon fill="#63b8ff" stroke="#63b8ff" points="144.04,-136.09 142.02,-146.49 150.08,-139.62 144.04,-136.09"/>
</a>
</g>
</g>
<!-- Node10 -->
<g id="Node000010" class="node">
<title>Node10</title>
<g id="a_Node000010"><a xlink:href="class_time_walk_selector.html" target="_top" xlink:title=" ">
<polygon fill="white" stroke="#666666" points="325.5,-19.25 230,-19.25 230,0 325.5,0 325.5,-19.25"/>
<text text-anchor="middle" x="277.75" y="-5.75" font-family="Helvetica,sans-Serif" font-size="10.00">TimeWalkSelector</text>
</a>
</g>
</g>
<!-- Node1&#45;&gt;Node10 -->
<g id="edge169_Node000001_Node000010" class="edge">
<title>Node1&#45;&gt;Node10</title>
<g id="a_edge169_Node000001_Node000010"><a xlink:title=" ">
<path fill="none" stroke="#63b8ff" d="M142.51,-136.93C152.67,-108.07 175.03,-56.11 212,-27.62 217.27,-23.57 223.4,-20.42 229.75,-17.99"/>
<polygon fill="#63b8ff" stroke="#63b8ff" points="139.23,-135.71 139.38,-146.31 145.87,-137.93 139.23,-135.71"/>
</a>
</g>
</g>
</g>
</svg>
