<?xml version="1.0" encoding="UTF-8" standalone="no"?>
<!DOCTYPE svg PUBLIC "-//W3C//DTD SVG 1.1//EN"
 "http://www.w3.org/Graphics/SVG/1.1/DTD/svg11.dtd">
<!-- Generated by graphviz version 12.2.0 (20241103.1931)
 -->
<!-- Title: LinkDef.h Pages: 1 -->
<svg width="1527pt" height="359pt"
 viewBox="0.00 0.00 1526.50 358.75" xmlns="http://www.w3.org/2000/svg" xmlns:xlink="http://www.w3.org/1999/xlink">
<g id="graph0" class="graph" transform="scale(1 1) rotate(0) translate(4 354.75)">
<title>LinkDef.h</title>
<!-- Node1 -->
<g id="Node000001" class="node">
<title>Node1</title>
<g id="a_Node000001"><a xlink:title=" ">
<polygon fill="#999999" stroke="#666666" points="1149.12,-350.75 1091.88,-350.75 1091.88,-331.5 1149.12,-331.5 1149.12,-350.75"/>
<text text-anchor="middle" x="1120.5" y="-337.25" font-family="Helvetica,sans-Serif" font-size="10.00">LinkDef.h</text>
</a>
</g>
</g>
<!-- Node2 -->
<g id="Node000002" class="node">
<title>Node2</title>
<g id="a_Node000002"><a xlink:href="_t_fragment_8h.html" target="_top" xlink:title=" ">
<polygon fill="white" stroke="#666666" points="1155.88,-295.5 1085.12,-295.5 1085.12,-276.25 1155.88,-276.25 1155.88,-295.5"/>
<text text-anchor="middle" x="1120.5" y="-282" font-family="Helvetica,sans-Serif" font-size="10.00">TFragment.h</text>
</a>
</g>
</g>
<!-- Node1&#45;&gt;Node2 -->
<g id="edge1_Node000001_Node000002" class="edge">
<title>Node1&#45;&gt;Node2</title>
<g id="a_edge1_Node000001_Node000002"><a xlink:title=" ">
<path fill="none" stroke="#63b8ff" d="M1120.5,-331.33C1120.5,-324.82 1120.5,-315.67 1120.5,-307.37"/>
<polygon fill="#63b8ff" stroke="#63b8ff" points="1124,-307.37 1120.5,-297.37 1117,-307.37 1124,-307.37"/>
</a>
</g>
</g>
<!-- Node3 -->
<g id="Node000003" class="node">
<title>Node3</title>
<g id="a_Node000003"><a xlink:href="_t_detector_hit_8h.html" target="_top" xlink:title=" ">
<polygon fill="white" stroke="#666666" points="871,-240.25 792,-240.25 792,-221 871,-221 871,-240.25"/>
<text text-anchor="middle" x="831.5" y="-226.75" font-family="Helvetica,sans-Serif" font-size="10.00">TDetectorHit.h</text>
</a>
</g>
</g>
<!-- Node2&#45;&gt;Node3 -->
<g id="edge2_Node000002_Node000003" class="edge">
<title>Node2&#45;&gt;Node3</title>
<g id="a_edge2_Node000002_Node000003"><a xlink:title=" ">
<path fill="none" stroke="#63b8ff" d="M1084.77,-278.29C1033.95,-268.93 940.5,-251.71 882.43,-241.01"/>
<polygon fill="#63b8ff" stroke="#63b8ff" points="883.27,-237.6 872.8,-239.23 882,-244.49 883.27,-237.6"/>
</a>
</g>
</g>
<!-- Node4 -->
<g id="Node000004" class="node">
<title>Node4</title>
<g id="a_Node000004"><a xlink:title=" ">
<polygon fill="#e0e0e0" stroke="#999999" points="43,-74.5 0,-74.5 0,-55.25 43,-55.25 43,-74.5"/>
<text text-anchor="middle" x="21.5" y="-61" font-family="Helvetica,sans-Serif" font-size="10.00">vector</text>
</a>
</g>
</g>
<!-- Node2&#45;&gt;Node4 -->
<g id="edge59_Node000002_Node000004" class="edge">
<title>Node2&#45;&gt;Node4</title>
<g id="a_edge59_Node000002_Node000004"><a xlink:title=" ">
<path fill="none" stroke="#63b8ff" d="M1084.8,-284.02C905.72,-279.43 110.65,-255.17 28.5,-185 0.5,-161.08 8.01,-112.94 15.22,-85.75"/>
<polygon fill="#63b8ff" stroke="#63b8ff" points="18.52,-86.92 17.95,-76.34 11.8,-84.97 18.52,-86.92"/>
</a>
</g>
</g>
<!-- Node19 -->
<g id="Node000019" class="node">
<title>Node19</title>
<g id="a_Node000019"><a xlink:title=" ">
<polygon fill="#e0e0e0" stroke="#999999" points="1369.25,-185 1315.75,-185 1315.75,-165.75 1369.25,-165.75 1369.25,-185"/>
<text text-anchor="middle" x="1342.5" y="-171.5" font-family="Helvetica,sans-Serif" font-size="10.00">Rtypes.h</text>
</a>
</g>
</g>
<!-- Node2&#45;&gt;Node19 -->
<g id="edge61_Node000002_Node000019" class="edge">
<title>Node2&#45;&gt;Node19</title>
<g id="a_edge61_Node000002_Node000019"><a xlink:title=" ">
<path fill="none" stroke="#63b8ff" d="M1139.05,-275.81C1177.73,-256.9 1267.28,-213.14 1313.59,-190.5"/>
<polygon fill="#63b8ff" stroke="#63b8ff" points="1315.04,-193.69 1322.49,-186.15 1311.97,-187.4 1315.04,-193.69"/>
</a>
</g>
</g>
<!-- Node21 -->
<g id="Node000021" class="node">
<title>Node21</title>
<g id="a_Node000021"><a xlink:href="_t_p_p_g_8h.html" target="_top" xlink:title=" ">
<polygon fill="white" stroke="#666666" points="1036.75,-185 986.25,-185 986.25,-165.75 1036.75,-165.75 1036.75,-185"/>
<text text-anchor="middle" x="1011.5" y="-171.5" font-family="Helvetica,sans-Serif" font-size="10.00">TPPG.h</text>
</a>
</g>
</g>
<!-- Node2&#45;&gt;Node21 -->
<g id="edge57_Node000002_Node000021" class="edge">
<title>Node2&#45;&gt;Node21</title>
<g id="a_edge57_Node000002_Node000021"><a xlink:title=" ">
<path fill="none" stroke="#63b8ff" d="M1111.58,-276C1093.46,-257.96 1052.06,-216.75 1028.58,-193.38"/>
<polygon fill="#63b8ff" stroke="#63b8ff" points="1031.17,-191.02 1021.62,-186.44 1026.23,-195.98 1031.17,-191.02"/>
</a>
</g>
</g>
<!-- Node23 -->
<g id="Node000023" class="node">
<title>Node23</title>
<g id="a_Node000023"><a xlink:title=" ">
<polygon fill="#e0e0e0" stroke="#999999" points="1269.25,-19.25 1215.75,-19.25 1215.75,0 1269.25,0 1269.25,-19.25"/>
<text text-anchor="middle" x="1242.5" y="-5.75" font-family="Helvetica,sans-Serif" font-size="10.00">iostream</text>
</a>
</g>
</g>
<!-- Node2&#45;&gt;Node23 -->
<g id="edge58_Node000002_Node000023" class="edge">
<title>Node2&#45;&gt;Node23</title>
<g id="a_edge58_Node000002_Node000023"><a xlink:title=" ">
<path fill="none" stroke="#63b8ff" d="M1156.13,-280.84C1241.46,-270.18 1450.5,-237.81 1450.5,-176.38 1450.5,-176.38 1450.5,-176.38 1450.5,-119.12 1450.5,-89.51 1453.03,-75.59 1431.5,-55.25 1410.04,-34.99 1329.55,-21.57 1280.79,-15.11"/>
<polygon fill="#63b8ff" stroke="#63b8ff" points="1281.3,-11.65 1270.93,-13.85 1280.41,-18.59 1281.3,-11.65"/>
</a>
</g>
</g>
<!-- Node45 -->
<g id="Node000045" class="node">
<title>Node45</title>
<g id="a_Node000045"><a xlink:title=" ">
<polygon fill="#e0e0e0" stroke="#999999" points="1518.5,-240.25 1478.5,-240.25 1478.5,-221 1518.5,-221 1518.5,-240.25"/>
<text text-anchor="middle" x="1498.5" y="-226.75" font-family="Helvetica,sans-Serif" font-size="10.00">ctime</text>
</a>
</g>
</g>
<!-- Node2&#45;&gt;Node45 -->
<g id="edge60_Node000002_Node000045" class="edge">
<title>Node2&#45;&gt;Node45</title>
<g id="a_edge60_Node000002_Node000045"><a xlink:title=" ">
<path fill="none" stroke="#63b8ff" d="M1155.88,-281.69C1218.48,-275.75 1352.7,-261.6 1464.5,-240.25 1465.33,-240.09 1466.17,-239.92 1467.02,-239.75"/>
<polygon fill="#63b8ff" stroke="#63b8ff" points="1467.65,-243.2 1476.62,-237.56 1466.09,-236.37 1467.65,-243.2"/>
</a>
</g>
</g>
<!-- Node3&#45;&gt;Node4 -->
<g id="edge3_Node000003_Node000004" class="edge">
<title>Node3&#45;&gt;Node4</title>
<g id="a_edge3_Node000003_Node000004"><a xlink:title=" ">
<path fill="none" stroke="#63b8ff" d="M791.52,-228.69C635.52,-224.88 74.99,-209.51 46.5,-185 18.15,-160.61 17.05,-113.01 19.07,-85.95"/>
<polygon fill="#63b8ff" stroke="#63b8ff" points="22.52,-86.61 20.02,-76.32 15.56,-85.93 22.52,-86.61"/>
</a>
</g>
</g>
<!-- Node5 -->
<g id="Node000005" class="node">
<title>Node5</title>
<g id="a_Node000005"><a xlink:title=" ">
<polygon fill="#e0e0e0" stroke="#999999" points="222.12,-19.25 176.88,-19.25 176.88,0 222.12,0 222.12,-19.25"/>
<text text-anchor="middle" x="199.5" y="-5.75" font-family="Helvetica,sans-Serif" font-size="10.00">cstdint</text>
</a>
</g>
</g>
<!-- Node3&#45;&gt;Node5 -->
<g id="edge4_Node000003_Node000005" class="edge">
<title>Node3&#45;&gt;Node5</title>
<g id="a_edge4_Node000003_Node000005"><a xlink:title=" ">
<path fill="none" stroke="#63b8ff" d="M791.69,-227.3C644.46,-218.28 136.83,-183.49 90.5,-129.75 57.09,-91 126.74,-46.94 169.47,-24.85"/>
<polygon fill="#63b8ff" stroke="#63b8ff" points="170.95,-28.02 178.32,-20.4 167.81,-21.77 170.95,-28.02"/>
</a>
</g>
</g>
<!-- Node6 -->
<g id="Node000006" class="node">
<title>Node6</title>
<g id="a_Node000006"><a xlink:href="_t_channel_8h.html" target="_top" xlink:title=" ">
<polygon fill="white" stroke="#666666" points="534.88,-185 470.12,-185 470.12,-165.75 534.88,-165.75 534.88,-185"/>
<text text-anchor="middle" x="502.5" y="-171.5" font-family="Helvetica,sans-Serif" font-size="10.00">TChannel.h</text>
</a>
</g>
</g>
<!-- Node3&#45;&gt;Node6 -->
<g id="edge5_Node000003_Node000006" class="edge">
<title>Node3&#45;&gt;Node6</title>
<g id="a_edge5_Node000003_Node000006"><a xlink:title=" ">
<path fill="none" stroke="#63b8ff" d="M791.81,-223.2C729.87,-213.18 610.65,-193.88 546.28,-183.46"/>
<polygon fill="#63b8ff" stroke="#63b8ff" points="546.85,-180.01 536.42,-181.87 545.73,-186.92 546.85,-180.01"/>
</a>
</g>
</g>
<!-- Node17 -->
<g id="Node000017" class="node">
<title>Node17</title>
<g id="a_Node000017"><a xlink:title=" ">
<polygon fill="#e0e0e0" stroke="#999999" points="909.12,-185 845.88,-185 845.88,-165.75 909.12,-165.75 909.12,-185"/>
<text text-anchor="middle" x="877.5" y="-171.5" font-family="Helvetica,sans-Serif" font-size="10.00">TVector3.h</text>
</a>
</g>
</g>
<!-- Node3&#45;&gt;Node17 -->
<g id="edge19_Node000003_Node000017" class="edge">
<title>Node3&#45;&gt;Node17</title>
<g id="a_edge19_Node000003_Node000017"><a xlink:title=" ">
<path fill="none" stroke="#63b8ff" d="M839.1,-220.83C845.38,-213.55 854.51,-202.98 862.3,-193.98"/>
<polygon fill="#63b8ff" stroke="#63b8ff" points="864.86,-196.36 868.75,-186.5 859.56,-191.78 864.86,-196.36"/>
</a>
</g>
</g>
<!-- Node18 -->
<g id="Node000018" class="node">
<title>Node18</title>
<g id="a_Node000018"><a xlink:title=" ">
<polygon fill="#e0e0e0" stroke="#999999" points="1422.5,-74.5 1364.5,-74.5 1364.5,-55.25 1422.5,-55.25 1422.5,-74.5"/>
<text text-anchor="middle" x="1393.5" y="-61" font-family="Helvetica,sans-Serif" font-size="10.00">TObject.h</text>
</a>
</g>
</g>
<!-- Node3&#45;&gt;Node18 -->
<g id="edge20_Node000003_Node000018" class="edge">
<title>Node3&#45;&gt;Node18</title>
<g id="a_edge20_Node000003_Node000018"><a xlink:title=" ">
<path fill="none" stroke="#63b8ff" d="M871.49,-224C949.34,-212.29 1125.94,-181.94 1266.5,-129.75 1303.35,-116.07 1343.5,-94.69 1368.58,-80.49"/>
<polygon fill="#63b8ff" stroke="#63b8ff" points="1370.11,-83.65 1377.04,-75.64 1366.63,-77.57 1370.11,-83.65"/>
</a>
</g>
</g>
<!-- Node3&#45;&gt;Node19 -->
<g id="edge21_Node000003_Node000019" class="edge">
<title>Node3&#45;&gt;Node19</title>
<g id="a_edge21_Node000003_Node000019"><a xlink:title=" ">
<path fill="none" stroke="#63b8ff" d="M871.3,-227.36C952.52,-222.42 1143.08,-209.1 1301.5,-185 1302.51,-184.85 1303.53,-184.68 1304.55,-184.51"/>
<polygon fill="#63b8ff" stroke="#63b8ff" points="1304.98,-187.99 1314.18,-182.74 1303.72,-181.11 1304.98,-187.99"/>
</a>
</g>
</g>
<!-- Node20 -->
<g id="Node000020" class="node">
<title>Node20</title>
<g id="a_Node000020"><a xlink:title=" ">
<polygon fill="#e0e0e0" stroke="#999999" points="121.25,-185 55.75,-185 55.75,-165.75 121.25,-165.75 121.25,-185"/>
<text text-anchor="middle" x="88.5" y="-171.5" font-family="Helvetica,sans-Serif" font-size="10.00">TRandom.h</text>
</a>
</g>
</g>
<!-- Node3&#45;&gt;Node20 -->
<g id="edge22_Node000003_Node000020" class="edge">
<title>Node3&#45;&gt;Node20</title>
<g id="a_edge22_Node000003_Node000020"><a xlink:title=" ">
<path fill="none" stroke="#63b8ff" d="M791.72,-228.71C685.06,-225.9 383.95,-215.65 135.5,-185 134.65,-184.9 133.79,-184.78 132.93,-184.67"/>
<polygon fill="#63b8ff" stroke="#63b8ff" points="133.46,-181.21 123.05,-183.17 132.41,-188.13 133.46,-181.21"/>
</a>
</g>
</g>
<!-- Node3&#45;&gt;Node21 -->
<g id="edge23_Node000003_Node000021" class="edge">
<title>Node3&#45;&gt;Node21</title>
<g id="a_edge23_Node000003_Node000021"><a xlink:title=" ">
<path fill="none" stroke="#63b8ff" d="M862.03,-220.59C893.3,-211.34 941.91,-196.96 975.15,-187.13"/>
<polygon fill="#63b8ff" stroke="#63b8ff" points="975.73,-190.61 984.33,-184.41 973.75,-183.89 975.73,-190.61"/>
</a>
</g>
</g>
<!-- Node43 -->
<g id="Node000043" class="node">
<title>Node43</title>
<g id="a_Node000043"><a xlink:href="_t_transient_bits_8h.html" target="_top" xlink:title=" ">
<polygon fill="white" stroke="#666666" points="828.12,-185 740.88,-185 740.88,-165.75 828.12,-165.75 828.12,-185"/>
<text text-anchor="middle" x="784.5" y="-171.5" font-family="Helvetica,sans-Serif" font-size="10.00">TTransientBits.h</text>
</a>
</g>
</g>
<!-- Node3&#45;&gt;Node43 -->
<g id="edge54_Node000003_Node000043" class="edge">
<title>Node3&#45;&gt;Node43</title>
<g id="a_edge54_Node000003_Node000043"><a xlink:title=" ">
<path fill="none" stroke="#63b8ff" d="M823.74,-220.83C817.31,-213.55 807.99,-202.98 800.04,-193.98"/>
<polygon fill="#63b8ff" stroke="#63b8ff" points="802.67,-191.68 793.43,-186.49 797.42,-196.31 802.67,-191.68"/>
</a>
</g>
</g>
<!-- Node7 -->
<g id="Node000007" class="node">
<title>Node7</title>
<g id="a_Node000007"><a xlink:title=" ">
<polygon fill="#e0e0e0" stroke="#999999" points="368.5,-19.25 328.5,-19.25 328.5,0 368.5,0 368.5,-19.25"/>
<text text-anchor="middle" x="348.5" y="-5.75" font-family="Helvetica,sans-Serif" font-size="10.00">string</text>
</a>
</g>
</g>
<!-- Node6&#45;&gt;Node7 -->
<g id="edge6_Node000006_Node000007" class="edge">
<title>Node6&#45;&gt;Node7</title>
<g id="a_edge6_Node000006_Node000007"><a xlink:title=" ">
<path fill="none" stroke="#63b8ff" d="M535.17,-173C591.11,-169.41 696.13,-156.49 662.5,-110.5 658.16,-104.56 457.72,-43.58 379.4,-19.93"/>
<polygon fill="#63b8ff" stroke="#63b8ff" points="380.8,-16.7 370.22,-17.16 378.78,-23.4 380.8,-16.7"/>
</a>
</g>
</g>
<!-- Node8 -->
<g id="Node000008" class="node">
<title>Node8</title>
<g id="a_Node000008"><a xlink:title=" ">
<polygon fill="#e0e0e0" stroke="#999999" points="245,-129.75 202,-129.75 202,-110.5 245,-110.5 245,-129.75"/>
<text text-anchor="middle" x="223.5" y="-116.25" font-family="Helvetica,sans-Serif" font-size="10.00">cmath</text>
</a>
</g>
</g>
<!-- Node6&#45;&gt;Node8 -->
<g id="edge7_Node000006_Node000008" class="edge">
<title>Node6&#45;&gt;Node8</title>
<g id="a_edge7_Node000006_Node000008"><a xlink:title=" ">
<path fill="none" stroke="#63b8ff" d="M469.81,-169.49C424.23,-162.46 338.8,-148.51 256.51,-130.02"/>
<polygon fill="#63b8ff" stroke="#63b8ff" points="257.45,-126.65 246.93,-127.84 255.9,-133.47 257.45,-126.65"/>
</a>
</g>
</g>
<!-- Node9 -->
<g id="Node000009" class="node">
<title>Node9</title>
<g id="a_Node000009"><a xlink:title=" ">
<polygon fill="#e0e0e0" stroke="#999999" points="839.75,-129.75 801.25,-129.75 801.25,-110.5 839.75,-110.5 839.75,-129.75"/>
<text text-anchor="middle" x="820.5" y="-116.25" font-family="Helvetica,sans-Serif" font-size="10.00">utility</text>
</a>
</g>
</g>
<!-- Node6&#45;&gt;Node9 -->
<g id="edge8_Node000006_Node000009" class="edge">
<title>Node6&#45;&gt;Node9</title>
<g id="a_edge8_Node000006_Node000009"><a xlink:title=" ">
<path fill="none" stroke="#63b8ff" d="M534.98,-170.95C586.96,-165.12 692.19,-151.96 790.05,-130.03"/>
<polygon fill="#63b8ff" stroke="#63b8ff" points="790.57,-133.5 799.54,-127.86 789.01,-126.67 790.57,-133.5"/>
</a>
</g>
</g>
<!-- Node10 -->
<g id="Node000010" class="node">
<title>Node10</title>
<g id="a_Node000010"><a xlink:title=" ">
<polygon fill="#e0e0e0" stroke="#999999" points="345.88,-129.75 263.12,-129.75 263.12,-110.5 345.88,-110.5 345.88,-129.75"/>
<text text-anchor="middle" x="304.5" y="-116.25" font-family="Helvetica,sans-Serif" font-size="10.00">unordered_map</text>
</a>
</g>
</g>
<!-- Node6&#45;&gt;Node10 -->
<g id="edge9_Node000006_Node000010" class="edge">
<title>Node6&#45;&gt;Node10</title>
<g id="a_edge9_Node000006_Node000010"><a xlink:title=" ">
<path fill="none" stroke="#63b8ff" d="M469.8,-165.58C436.86,-156.72 385.77,-142.98 349.12,-133.12"/>
<polygon fill="#63b8ff" stroke="#63b8ff" points="350.27,-129.81 339.7,-130.59 348.45,-136.57 350.27,-129.81"/>
</a>
</g>
</g>
<!-- Node11 -->
<g id="Node000011" class="node">
<title>Node11</title>
<g id="a_Node000011"><a xlink:title=" ">
<polygon fill="#e0e0e0" stroke="#999999" points="425,-129.75 364,-129.75 364,-110.5 425,-110.5 425,-129.75"/>
<text text-anchor="middle" x="394.5" y="-116.25" font-family="Helvetica,sans-Serif" font-size="10.00">TNamed.h</text>
</a>
</g>
</g>
<!-- Node6&#45;&gt;Node11 -->
<g id="edge10_Node000006_Node000011" class="edge">
<title>Node6&#45;&gt;Node11</title>
<g id="a_edge10_Node000006_Node000011"><a xlink:title=" ">
<path fill="none" stroke="#63b8ff" d="M484.18,-165.34C467.42,-157.08 442.37,-144.73 423,-135.18"/>
<polygon fill="#63b8ff" stroke="#63b8ff" points="424.78,-132.15 414.27,-130.87 421.69,-138.43 424.78,-132.15"/>
</a>
</g>
</g>
<!-- Node12 -->
<g id="Node000012" class="node">
<title>Node12</title>
<g id="a_Node000012"><a xlink:title=" ">
<polygon fill="#e0e0e0" stroke="#999999" points="492,-129.75 443,-129.75 443,-110.5 492,-110.5 492,-129.75"/>
<text text-anchor="middle" x="467.5" y="-116.25" font-family="Helvetica,sans-Serif" font-size="10.00">TTree.h</text>
</a>
</g>
</g>
<!-- Node6&#45;&gt;Node12 -->
<g id="edge11_Node000006_Node000012" class="edge">
<title>Node6&#45;&gt;Node12</title>
<g id="a_edge11_Node000006_Node000012"><a xlink:title=" ">
<path fill="none" stroke="#63b8ff" d="M496.72,-165.58C492.09,-158.53 485.43,-148.4 479.63,-139.58"/>
<polygon fill="#63b8ff" stroke="#63b8ff" points="482.65,-137.81 474.24,-131.37 476.8,-141.65 482.65,-137.81"/>
</a>
</g>
</g>
<!-- Node13 -->
<g id="Node000013" class="node">
<title>Node13</title>
<g id="a_Node000013"><a xlink:title=" ">
<polygon fill="#e0e0e0" stroke="#999999" points="565.38,-129.75 509.62,-129.75 509.62,-110.5 565.38,-110.5 565.38,-129.75"/>
<text text-anchor="middle" x="537.5" y="-116.25" font-family="Helvetica,sans-Serif" font-size="10.00">TGraph.h</text>
</a>
</g>
</g>
<!-- Node6&#45;&gt;Node13 -->
<g id="edge12_Node000006_Node000013" class="edge">
<title>Node6&#45;&gt;Node13</title>
<g id="a_edge12_Node000006_Node000013"><a xlink:title=" ">
<path fill="none" stroke="#63b8ff" d="M508.28,-165.58C512.91,-158.53 519.57,-148.4 525.37,-139.58"/>
<polygon fill="#63b8ff" stroke="#63b8ff" points="528.2,-141.65 530.76,-131.37 522.35,-137.81 528.2,-141.65"/>
</a>
</g>
</g>
<!-- Node14 -->
<g id="Node000014" class="node">
<title>Node14</title>
<g id="a_Node000014"><a xlink:title=" ">
<polygon fill="#e0e0e0" stroke="#999999" points="653.12,-129.75 583.88,-129.75 583.88,-110.5 653.12,-110.5 653.12,-129.75"/>
<text text-anchor="middle" x="618.5" y="-116.25" font-family="Helvetica,sans-Serif" font-size="10.00">TClassRef.h</text>
</a>
</g>
</g>
<!-- Node6&#45;&gt;Node14 -->
<g id="edge13_Node000006_Node000014" class="edge">
<title>Node6&#45;&gt;Node14</title>
<g id="a_edge13_Node000006_Node000014"><a xlink:title=" ">
<path fill="none" stroke="#63b8ff" d="M522.18,-165.34C540.34,-157 567.58,-144.5 588.47,-134.91"/>
<polygon fill="#63b8ff" stroke="#63b8ff" points="589.72,-138.19 597.35,-130.83 586.8,-131.83 589.72,-138.19"/>
</a>
</g>
</g>
<!-- Node15 -->
<g id="Node000015" class="node">
<title>Node15</title>
<g id="a_Node000015"><a xlink:href="_t_priority_value_8h.html" target="_top" xlink:title=" ">
<polygon fill="white" stroke="#666666" points="183.62,-129.75 99.38,-129.75 99.38,-110.5 183.62,-110.5 183.62,-129.75"/>
<text text-anchor="middle" x="141.5" y="-116.25" font-family="Helvetica,sans-Serif" font-size="10.00">TPriorityValue.h</text>
</a>
</g>
</g>
<!-- Node6&#45;&gt;Node15 -->
<g id="edge14_Node000006_Node000015" class="edge">
<title>Node6&#45;&gt;Node15</title>
<g id="a_edge14_Node000006_Node000015"><a xlink:title=" ">
<path fill="none" stroke="#63b8ff" d="M469.88,-169.95C415.27,-162.48 301.61,-146.68 195.32,-130.16"/>
<polygon fill="#63b8ff" stroke="#63b8ff" points="195.98,-126.72 185.56,-128.64 194.9,-133.64 195.98,-126.72"/>
</a>
</g>
</g>
<!-- Node15&#45;&gt;Node4 -->
<g id="edge17_Node000015_Node000004" class="edge">
<title>Node15&#45;&gt;Node4</title>
<g id="a_edge17_Node000015_Node000004"><a xlink:title=" ">
<path fill="none" stroke="#63b8ff" d="M121.14,-110.09C102.27,-101.72 73.91,-89.13 52.27,-79.53"/>
<polygon fill="#63b8ff" stroke="#63b8ff" points="53.9,-76.42 43.34,-75.57 51.06,-82.82 53.9,-76.42"/>
</a>
</g>
</g>
<!-- Node15&#45;&gt;Node5 -->
<g id="edge18_Node000015_Node000005" class="edge">
<title>Node15&#45;&gt;Node5</title>
<g id="a_edge18_Node000015_Node000005"><a xlink:title=" ">
<path fill="none" stroke="#63b8ff" d="M142.87,-110.4C145.14,-97.66 150.45,-73.49 160.5,-55.25 166.06,-45.17 174.21,-35.37 181.62,-27.54"/>
<polygon fill="#63b8ff" stroke="#63b8ff" points="183.86,-30.25 188.43,-20.7 178.9,-25.31 183.86,-30.25"/>
</a>
</g>
</g>
<!-- Node15&#45;&gt;Node7 -->
<g id="edge16_Node000015_Node000007" class="edge">
<title>Node15&#45;&gt;Node7</title>
<g id="a_edge16_Node000015_Node000007"><a xlink:title=" ">
<path fill="none" stroke="#63b8ff" d="M159.99,-110.06C178.06,-101.16 206.28,-87.12 230.5,-74.5 262.21,-57.97 298.31,-38.3 322.14,-25.2"/>
<polygon fill="#63b8ff" stroke="#63b8ff" points="323.77,-28.3 330.84,-20.41 320.4,-22.17 323.77,-28.3"/>
</a>
</g>
</g>
<!-- Node16 -->
<g id="Node000016" class="node">
<title>Node16</title>
<g id="a_Node000016"><a xlink:title=" ">
<polygon fill="#e0e0e0" stroke="#999999" points="221.12,-74.5 169.88,-74.5 169.88,-55.25 221.12,-55.25 221.12,-74.5"/>
<text text-anchor="middle" x="195.5" y="-61" font-family="Helvetica,sans-Serif" font-size="10.00">ostream</text>
</a>
</g>
</g>
<!-- Node15&#45;&gt;Node16 -->
<g id="edge15_Node000015_Node000016" class="edge">
<title>Node15&#45;&gt;Node16</title>
<g id="a_edge15_Node000015_Node000016"><a xlink:title=" ">
<path fill="none" stroke="#63b8ff" d="M150.42,-110.33C157.95,-102.9 168.97,-92.04 178.23,-82.91"/>
<polygon fill="#63b8ff" stroke="#63b8ff" points="180.65,-85.44 185.31,-75.92 175.73,-80.45 180.65,-85.44"/>
</a>
</g>
</g>
<!-- Node21&#45;&gt;Node5 -->
<g id="edge27_Node000021_Node000005" class="edge">
<title>Node21&#45;&gt;Node5</title>
<g id="a_edge27_Node000021_Node000005"><a xlink:title=" ">
<path fill="none" stroke="#63b8ff" d="M992.4,-165.28C962.42,-151.39 902.21,-124.96 848.5,-110.5 618.4,-48.53 331.37,-21.17 233.79,-13.22"/>
<polygon fill="#63b8ff" stroke="#63b8ff" points="234.34,-9.75 224.09,-12.44 233.78,-16.73 234.34,-9.75"/>
</a>
</g>
</g>
<!-- Node21&#45;&gt;Node9 -->
<g id="edge25_Node000021_Node000009" class="edge">
<title>Node21&#45;&gt;Node9</title>
<g id="a_edge25_Node000021_Node000009"><a xlink:title=" ">
<path fill="none" stroke="#63b8ff" d="M986.14,-167.3C951.19,-157.56 888.32,-140.03 850.9,-129.6"/>
<polygon fill="#63b8ff" stroke="#63b8ff" points="852.19,-126.33 841.62,-127.01 850.31,-133.07 852.19,-126.33"/>
</a>
</g>
</g>
<!-- Node21&#45;&gt;Node18 -->
<g id="edge28_Node000021_Node000018" class="edge">
<title>Node21&#45;&gt;Node18</title>
<g id="a_edge28_Node000021_Node000018"><a xlink:title=" ">
<path fill="none" stroke="#63b8ff" d="M1036.92,-171.05C1078.22,-165.24 1162.16,-151.71 1230.5,-129.75 1250.43,-123.34 1254.12,-118.43 1273.5,-110.5 1301.2,-99.16 1332.97,-87.4 1356.85,-78.8"/>
<polygon fill="#63b8ff" stroke="#63b8ff" points="1357.9,-82.15 1366.14,-75.48 1355.54,-75.56 1357.9,-82.15"/>
</a>
</g>
</g>
<!-- Node22 -->
<g id="Node000022" class="node">
<title>Node22</title>
<g id="a_Node000022"><a xlink:title=" ">
<polygon fill="#e0e0e0" stroke="#999999" points="1005.88,-129.75 971.12,-129.75 971.12,-110.5 1005.88,-110.5 1005.88,-129.75"/>
<text text-anchor="middle" x="988.5" y="-116.25" font-family="Helvetica,sans-Serif" font-size="10.00">map</text>
</a>
</g>
</g>
<!-- Node21&#45;&gt;Node22 -->
<g id="edge24_Node000021_Node000022" class="edge">
<title>Node21&#45;&gt;Node22</title>
<g id="a_edge24_Node000021_Node000022"><a xlink:title=" ">
<path fill="none" stroke="#63b8ff" d="M1007.7,-165.58C1004.76,-158.76 1000.56,-149.06 996.85,-140.45"/>
<polygon fill="#63b8ff" stroke="#63b8ff" points="1000.16,-139.29 992.98,-131.5 993.73,-142.07 1000.16,-139.29"/>
</a>
</g>
</g>
<!-- Node21&#45;&gt;Node23 -->
<g id="edge26_Node000021_Node000023" class="edge">
<title>Node21&#45;&gt;Node23</title>
<g id="a_edge26_Node000021_Node000023"><a xlink:title=" ">
<path fill="none" stroke="#63b8ff" d="M1012.38,-165.38C1015.02,-140.36 1023.66,-70.8 1039.5,-55.25 1091.25,-4.45 1128.95,-33.21 1204.48,-19.43"/>
<polygon fill="#63b8ff" stroke="#63b8ff" points="1204.81,-22.93 1213.91,-17.49 1203.41,-16.08 1204.81,-22.93"/>
</a>
</g>
</g>
<!-- Node24 -->
<g id="Node000024" class="node">
<title>Node24</title>
<g id="a_Node000024"><a xlink:title=" ">
<polygon fill="#e0e0e0" stroke="#999999" points="1133.62,-129.75 1061.38,-129.75 1061.38,-110.5 1133.62,-110.5 1133.62,-129.75"/>
<text text-anchor="middle" x="1097.5" y="-116.25" font-family="Helvetica,sans-Serif" font-size="10.00">TCollection.h</text>
</a>
</g>
</g>
<!-- Node21&#45;&gt;Node24 -->
<g id="edge29_Node000021_Node000024" class="edge">
<title>Node21&#45;&gt;Node24</title>
<g id="a_edge29_Node000021_Node000024"><a xlink:title=" ">
<path fill="none" stroke="#63b8ff" d="M1026.09,-165.34C1038.94,-157.39 1057.91,-145.64 1073.07,-136.25"/>
<polygon fill="#63b8ff" stroke="#63b8ff" points="1074.89,-139.24 1081.55,-131 1071.21,-133.29 1074.89,-139.24"/>
</a>
</g>
</g>
<!-- Node25 -->
<g id="Node000025" class="node">
<title>Node25</title>
<g id="a_Node000025"><a xlink:href="_globals_8h.html" target="_top" xlink:title=" ">
<polygon fill="white" stroke="#666666" points="877.75,-74.5 821.25,-74.5 821.25,-55.25 877.75,-55.25 877.75,-74.5"/>
<text text-anchor="middle" x="849.5" y="-61" font-family="Helvetica,sans-Serif" font-size="10.00">Globals.h</text>
</a>
</g>
</g>
<!-- Node21&#45;&gt;Node25 -->
<g id="edge30_Node000021_Node000025" class="edge">
<title>Node21&#45;&gt;Node25</title>
<g id="a_edge30_Node000021_Node000025"><a xlink:title=" ">
<path fill="none" stroke="#63b8ff" d="M997.97,-165.31C970.14,-146.68 906.27,-103.9 872.08,-81"/>
<polygon fill="#63b8ff" stroke="#63b8ff" points="874.39,-78.34 864.14,-75.68 870.5,-84.15 874.39,-78.34"/>
</a>
</g>
</g>
<!-- Node38 -->
<g id="Node000038" class="node">
<title>Node38</title>
<g id="a_Node000038"><a xlink:href="_t_singleton_8h.html" target="_top" xlink:title=" ">
<polygon fill="white" stroke="#666666" points="1221.5,-129.75 1151.5,-129.75 1151.5,-110.5 1221.5,-110.5 1221.5,-129.75"/>
<text text-anchor="middle" x="1186.5" y="-116.25" font-family="Helvetica,sans-Serif" font-size="10.00">TSingleton.h</text>
</a>
</g>
</g>
<!-- Node21&#45;&gt;Node38 -->
<g id="edge46_Node000021_Node000038" class="edge">
<title>Node21&#45;&gt;Node38</title>
<g id="a_edge46_Node000021_Node000038"><a xlink:title=" ">
<path fill="none" stroke="#63b8ff" d="M1036.95,-166.63C1065.48,-157.95 1112.15,-143.75 1145.77,-133.52"/>
<polygon fill="#63b8ff" stroke="#63b8ff" points="1146.63,-136.92 1155.18,-130.66 1144.59,-130.22 1146.63,-136.92"/>
</a>
</g>
</g>
<!-- Node25&#45;&gt;Node5 -->
<g id="edge36_Node000025_Node000005" class="edge">
<title>Node25&#45;&gt;Node5</title>
<g id="a_edge36_Node000025_Node000005"><a xlink:title=" ">
<path fill="none" stroke="#63b8ff" d="M821.12,-57.53C816.58,-56.66 811.92,-55.86 807.5,-55.25 800.33,-54.25 360.73,-22.32 233.59,-13.1"/>
<polygon fill="#63b8ff" stroke="#63b8ff" points="234.02,-9.62 223.8,-12.39 233.52,-16.6 234.02,-9.62"/>
</a>
</g>
</g>
<!-- Node25&#45;&gt;Node7 -->
<g id="edge34_Node000025_Node000007" class="edge">
<title>Node25&#45;&gt;Node7</title>
<g id="a_edge34_Node000025_Node000007"><a xlink:title=" ">
<path fill="none" stroke="#63b8ff" d="M821.11,-57.57C816.58,-56.7 811.92,-55.89 807.5,-55.25 621.29,-28.43 567.98,-53.77 380.06,-19.35"/>
<polygon fill="#63b8ff" stroke="#63b8ff" points="380.93,-15.95 370.45,-17.56 379.64,-22.83 380.93,-15.95"/>
</a>
</g>
</g>
<!-- Node25&#45;&gt;Node23 -->
<g id="edge31_Node000025_Node000023" class="edge">
<title>Node25&#45;&gt;Node23</title>
<g id="a_edge31_Node000025_Node000023"><a xlink:title=" ">
<path fill="none" stroke="#63b8ff" d="M877.9,-57.69C882.44,-56.8 887.09,-55.95 891.5,-55.25 1027.12,-33.62 1065.78,-43.19 1204.41,-19.41"/>
<polygon fill="#63b8ff" stroke="#63b8ff" points="1204.71,-22.91 1213.96,-17.74 1203.5,-16.01 1204.71,-22.91"/>
</a>
</g>
</g>
<!-- Node26 -->
<g id="Node000026" class="node">
<title>Node26</title>
<g id="a_Node000026"><a xlink:title=" ">
<polygon fill="#e0e0e0" stroke="#999999" points="1197.38,-19.25 1147.62,-19.25 1147.62,0 1197.38,0 1197.38,-19.25"/>
<text text-anchor="middle" x="1172.5" y="-5.75" font-family="Helvetica,sans-Serif" font-size="10.00">iomanip</text>
</a>
</g>
</g>
<!-- Node25&#45;&gt;Node26 -->
<g id="edge32_Node000025_Node000026" class="edge">
<title>Node25&#45;&gt;Node26</title>
<g id="a_edge32_Node000025_Node000026"><a xlink:title=" ">
<path fill="none" stroke="#63b8ff" d="M877.92,-57.81C882.46,-56.91 887.1,-56.02 891.5,-55.25 997.25,-36.7 1027.75,-40.63 1136.21,-19.52"/>
<polygon fill="#63b8ff" stroke="#63b8ff" points="1136.7,-22.99 1145.83,-17.62 1135.34,-16.12 1136.7,-22.99"/>
</a>
</g>
</g>
<!-- Node27 -->
<g id="Node000027" class="node">
<title>Node27</title>
<g id="a_Node000027"><a xlink:title=" ">
<polygon fill="#e0e0e0" stroke="#999999" points="444.5,-19.25 386.5,-19.25 386.5,0 444.5,0 444.5,-19.25"/>
<text text-anchor="middle" x="415.5" y="-5.75" font-family="Helvetica,sans-Serif" font-size="10.00">stdexcept</text>
</a>
</g>
</g>
<!-- Node25&#45;&gt;Node27 -->
<g id="edge33_Node000025_Node000027" class="edge">
<title>Node25&#45;&gt;Node27</title>
<g id="a_edge33_Node000025_Node000027"><a xlink:title=" ">
<path fill="none" stroke="#63b8ff" d="M821.1,-57.64C816.57,-56.76 811.91,-55.93 807.5,-55.25 654.69,-31.85 611.49,-44.21 455.8,-19.44"/>
<polygon fill="#63b8ff" stroke="#63b8ff" points="456.81,-16.05 446.38,-17.91 455.69,-22.96 456.81,-16.05"/>
</a>
</g>
</g>
<!-- Node28 -->
<g id="Node000028" class="node">
<title>Node28</title>
<g id="a_Node000028"><a xlink:title=" ">
<polygon fill="#e0e0e0" stroke="#999999" points="504.62,-19.25 462.38,-19.25 462.38,0 504.62,0 504.62,-19.25"/>
<text text-anchor="middle" x="483.5" y="-5.75" font-family="Helvetica,sans-Serif" font-size="10.00">cstdio</text>
</a>
</g>
</g>
<!-- Node25&#45;&gt;Node28 -->
<g id="edge35_Node000025_Node000028" class="edge">
<title>Node25&#45;&gt;Node28</title>
<g id="a_edge35_Node000025_Node000028"><a xlink:title=" ">
<path fill="none" stroke="#63b8ff" d="M821.09,-57.72C816.56,-56.83 811.91,-55.97 807.5,-55.25 681.14,-34.57 644.48,-44.91 516.08,-19.49"/>
<polygon fill="#63b8ff" stroke="#63b8ff" points="517.01,-16.1 506.51,-17.56 515.62,-22.96 517.01,-16.1"/>
</a>
</g>
</g>
<!-- Node29 -->
<g id="Node000029" class="node">
<title>Node29</title>
<g id="a_Node000029"><a xlink:title=" ">
<polygon fill="#e0e0e0" stroke="#999999" points="566.75,-19.25 522.25,-19.25 522.25,0 566.75,0 566.75,-19.25"/>
<text text-anchor="middle" x="544.5" y="-5.75" font-family="Helvetica,sans-Serif" font-size="10.00">cstdlib</text>
</a>
</g>
</g>
<!-- Node25&#45;&gt;Node29 -->
<g id="edge37_Node000025_Node000029" class="edge">
<title>Node25&#45;&gt;Node29</title>
<g id="a_edge37_Node000025_Node000029"><a xlink:title=" ">
<path fill="none" stroke="#63b8ff" d="M821.07,-57.84C816.54,-56.94 811.9,-56.04 807.5,-55.25 708.32,-37.38 679.45,-40.99 578.14,-19.61"/>
<polygon fill="#63b8ff" stroke="#63b8ff" points="579.1,-16.24 568.59,-17.56 577.63,-23.08 579.1,-16.24"/>
</a>
</g>
</g>
<!-- Node30 -->
<g id="Node000030" class="node">
<title>Node30</title>
<g id="a_Node000030"><a xlink:title=" ">
<polygon fill="#e0e0e0" stroke="#999999" points="644.25,-19.25 584.75,-19.25 584.75,0 644.25,0 644.25,-19.25"/>
<text text-anchor="middle" x="614.5" y="-5.75" font-family="Helvetica,sans-Serif" font-size="10.00">execinfo.h</text>
</a>
</g>
</g>
<!-- Node25&#45;&gt;Node30 -->
<g id="edge38_Node000025_Node000030" class="edge">
<title>Node25&#45;&gt;Node30</title>
<g id="a_edge38_Node000025_Node000030"><a xlink:title=" ">
<path fill="none" stroke="#63b8ff" d="M821.15,-57.45C779.88,-48.1 702.99,-30.68 655.53,-19.92"/>
<polygon fill="#63b8ff" stroke="#63b8ff" points="656.43,-16.54 645.9,-17.74 654.88,-23.36 656.43,-16.54"/>
</a>
</g>
</g>
<!-- Node31 -->
<g id="Node000031" class="node">
<title>Node31</title>
<g id="a_Node000031"><a xlink:title=" ">
<polygon fill="#e0e0e0" stroke="#999999" points="712.75,-19.25 662.25,-19.25 662.25,0 712.75,0 712.75,-19.25"/>
<text text-anchor="middle" x="687.5" y="-5.75" font-family="Helvetica,sans-Serif" font-size="10.00">cxxabi.h</text>
</a>
</g>
</g>
<!-- Node25&#45;&gt;Node31 -->
<g id="edge39_Node000025_Node000031" class="edge">
<title>Node25&#45;&gt;Node31</title>
<g id="a_edge39_Node000025_Node000031"><a xlink:title=" ">
<path fill="none" stroke="#63b8ff" d="M822.02,-54.84C795.04,-45.97 753.73,-32.4 724.01,-22.63"/>
<polygon fill="#63b8ff" stroke="#63b8ff" points="725.27,-19.36 714.68,-19.56 723.09,-26.01 725.27,-19.36"/>
</a>
</g>
</g>
<!-- Node32 -->
<g id="Node000032" class="node">
<title>Node32</title>
<g id="a_Node000032"><a xlink:title=" ">
<polygon fill="#e0e0e0" stroke="#999999" points="782.12,-19.25 730.88,-19.25 730.88,0 782.12,0 782.12,-19.25"/>
<text text-anchor="middle" x="756.5" y="-5.75" font-family="Helvetica,sans-Serif" font-size="10.00">sstream</text>
</a>
</g>
</g>
<!-- Node25&#45;&gt;Node32 -->
<g id="edge40_Node000025_Node000032" class="edge">
<title>Node25&#45;&gt;Node32</title>
<g id="a_edge40_Node000025_Node000032"><a xlink:title=" ">
<path fill="none" stroke="#63b8ff" d="M833.72,-54.84C819.56,-46.73 798.52,-34.68 781.97,-25.21"/>
<polygon fill="#63b8ff" stroke="#63b8ff" points="784.08,-22.39 773.67,-20.45 780.61,-28.46 784.08,-22.39"/>
</a>
</g>
</g>
<!-- Node33 -->
<g id="Node000033" class="node">
<title>Node33</title>
<g id="a_Node000033"><a xlink:title=" ">
<polygon fill="#e0e0e0" stroke="#999999" points="837,-19.25 800,-19.25 800,0 837,0 837,-19.25"/>
<text text-anchor="middle" x="818.5" y="-5.75" font-family="Helvetica,sans-Serif" font-size="10.00">array</text>
</a>
</g>
</g>
<!-- Node25&#45;&gt;Node33 -->
<g id="edge41_Node000025_Node000033" class="edge">
<title>Node25&#45;&gt;Node33</title>
<g id="a_edge41_Node000025_Node000033"><a xlink:title=" ">
<path fill="none" stroke="#63b8ff" d="M844.38,-55.08C840.32,-48.11 834.51,-38.12 829.41,-29.37"/>
<polygon fill="#63b8ff" stroke="#63b8ff" points="832.55,-27.8 824.49,-20.92 826.5,-31.32 832.55,-27.8"/>
</a>
</g>
</g>
<!-- Node34 -->
<g id="Node000034" class="node">
<title>Node34</title>
<g id="a_Node000034"><a xlink:title=" ">
<polygon fill="#e0e0e0" stroke="#999999" points="905.75,-19.25 855.25,-19.25 855.25,0 905.75,0 905.75,-19.25"/>
<text text-anchor="middle" x="880.5" y="-5.75" font-family="Helvetica,sans-Serif" font-size="10.00">memory</text>
</a>
</g>
</g>
<!-- Node25&#45;&gt;Node34 -->
<g id="edge42_Node000025_Node000034" class="edge">
<title>Node25&#45;&gt;Node34</title>
<g id="a_edge42_Node000025_Node000034"><a xlink:title=" ">
<path fill="none" stroke="#63b8ff" d="M854.62,-55.08C858.68,-48.11 864.49,-38.12 869.59,-29.37"/>
<polygon fill="#63b8ff" stroke="#63b8ff" points="872.5,-31.32 874.51,-20.92 866.45,-27.8 872.5,-31.32"/>
</a>
</g>
</g>
<!-- Node35 -->
<g id="Node000035" class="node">
<title>Node35</title>
<g id="a_Node000035"><a xlink:title=" ">
<polygon fill="#e0e0e0" stroke="#999999" points="973.38,-19.25 923.62,-19.25 923.62,0 973.38,0 973.38,-19.25"/>
<text text-anchor="middle" x="948.5" y="-5.75" font-family="Helvetica,sans-Serif" font-size="10.00">unistd.h</text>
</a>
</g>
</g>
<!-- Node25&#45;&gt;Node35 -->
<g id="edge43_Node000025_Node000035" class="edge">
<title>Node25&#45;&gt;Node35</title>
<g id="a_edge43_Node000025_Node000035"><a xlink:title=" ">
<path fill="none" stroke="#63b8ff" d="M866.29,-54.84C881.51,-46.66 904.2,-34.46 921.88,-24.94"/>
<polygon fill="#63b8ff" stroke="#63b8ff" points="923.14,-28.24 930.29,-20.42 919.83,-22.07 923.14,-28.24"/>
</a>
</g>
</g>
<!-- Node36 -->
<g id="Node000036" class="node">
<title>Node36</title>
<g id="a_Node000036"><a xlink:title=" ">
<polygon fill="#e0e0e0" stroke="#999999" points="1051.25,-19.25 991.75,-19.25 991.75,0 1051.25,0 1051.25,-19.25"/>
<text text-anchor="middle" x="1021.5" y="-5.75" font-family="Helvetica,sans-Serif" font-size="10.00">sys/wait.h</text>
</a>
</g>
</g>
<!-- Node25&#45;&gt;Node36 -->
<g id="edge44_Node000025_Node000036" class="edge">
<title>Node25&#45;&gt;Node36</title>
<g id="a_edge44_Node000025_Node000036"><a xlink:title=" ">
<path fill="none" stroke="#63b8ff" d="M877.9,-55.08C906.15,-46.34 949.75,-32.84 981.5,-23.01"/>
<polygon fill="#63b8ff" stroke="#63b8ff" points="982.23,-26.45 990.75,-20.15 980.16,-19.76 982.23,-26.45"/>
</a>
</g>
</g>
<!-- Node37 -->
<g id="Node000037" class="node">
<title>Node37</title>
<g id="a_Node000037"><a xlink:title=" ">
<polygon fill="#e0e0e0" stroke="#999999" points="1129.62,-19.25 1069.38,-19.25 1069.38,0 1129.62,0 1129.62,-19.25"/>
<text text-anchor="middle" x="1099.5" y="-5.75" font-family="Helvetica,sans-Serif" font-size="10.00">sys/prctl.h</text>
</a>
</g>
</g>
<!-- Node25&#45;&gt;Node37 -->
<g id="edge45_Node000025_Node000037" class="edge">
<title>Node25&#45;&gt;Node37</title>
<g id="a_edge45_Node000025_Node000037"><a xlink:title=" ">
<path fill="none" stroke="#63b8ff" d="M878.19,-57.9C916.81,-49.83 987.97,-34.89 1058.43,-19.68"/>
<polygon fill="#63b8ff" stroke="#63b8ff" points="1058.76,-23.19 1067.79,-17.66 1057.28,-16.35 1058.76,-23.19"/>
</a>
</g>
</g>
<!-- Node38&#45;&gt;Node18 -->
<g id="edge48_Node000038_Node000018" class="edge">
<title>Node38&#45;&gt;Node18</title>
<g id="a_edge48_Node000038_Node000018"><a xlink:title=" ">
<path fill="none" stroke="#63b8ff" d="M1221.61,-110.09C1258.15,-100.69 1315.26,-86 1353.51,-76.16"/>
<polygon fill="#63b8ff" stroke="#63b8ff" points="1353.97,-79.66 1362.78,-73.78 1352.22,-72.88 1353.97,-79.66"/>
</a>
</g>
</g>
<!-- Node38&#45;&gt;Node23 -->
<g id="edge47_Node000038_Node000023" class="edge">
<title>Node38&#45;&gt;Node23</title>
<g id="a_edge47_Node000038_Node000023"><a xlink:title=" ">
<path fill="none" stroke="#63b8ff" d="M1188.01,-110.01C1190.4,-97.2 1195.8,-73.41 1205.5,-55.25 1210.75,-45.42 1218.38,-35.75 1225.34,-27.94"/>
<polygon fill="#63b8ff" stroke="#63b8ff" points="1227.72,-30.52 1232,-20.83 1222.61,-25.73 1227.72,-30.52"/>
</a>
</g>
</g>
<!-- Node38&#45;&gt;Node25 -->
<g id="edge53_Node000038_Node000025" class="edge">
<title>Node38&#45;&gt;Node25</title>
<g id="a_edge53_Node000038_Node000025"><a xlink:title=" ">
<path fill="none" stroke="#63b8ff" d="M1151.46,-112.12C1148.43,-111.55 1145.41,-111.01 1142.5,-110.5 1052.11,-94.76 945.48,-79.3 889.1,-71.36"/>
<polygon fill="#63b8ff" stroke="#63b8ff" points="889.74,-67.92 879.35,-70 888.77,-74.85 889.74,-67.92"/>
</a>
</g>
</g>
<!-- Node39 -->
<g id="Node000039" class="node">
<title>Node39</title>
<g id="a_Node000039"><a xlink:title=" ">
<polygon fill="#e0e0e0" stroke="#999999" points="1282.38,-74.5 1214.62,-74.5 1214.62,-55.25 1282.38,-55.25 1282.38,-74.5"/>
<text text-anchor="middle" x="1248.5" y="-61" font-family="Helvetica,sans-Serif" font-size="10.00">TDirectory.h</text>
</a>
</g>
</g>
<!-- Node38&#45;&gt;Node39 -->
<g id="edge49_Node000038_Node000039" class="edge">
<title>Node38&#45;&gt;Node39</title>
<g id="a_edge49_Node000038_Node000039"><a xlink:title=" ">
<path fill="none" stroke="#63b8ff" d="M1197.02,-110.09C1205.89,-102.47 1218.81,-91.37 1229.49,-82.2"/>
<polygon fill="#63b8ff" stroke="#63b8ff" points="1231.68,-84.93 1236.99,-75.76 1227.12,-79.62 1231.68,-84.93"/>
</a>
</g>
</g>
<!-- Node40 -->
<g id="Node000040" class="node">
<title>Node40</title>
<g id="a_Node000040"><a xlink:title=" ">
<polygon fill="#e0e0e0" stroke="#999999" points="1346.12,-74.5 1300.88,-74.5 1300.88,-55.25 1346.12,-55.25 1346.12,-74.5"/>
<text text-anchor="middle" x="1323.5" y="-61" font-family="Helvetica,sans-Serif" font-size="10.00">TFile.h</text>
</a>
</g>
</g>
<!-- Node38&#45;&gt;Node40 -->
<g id="edge50_Node000038_Node000040" class="edge">
<title>Node38&#45;&gt;Node40</title>
<g id="a_edge50_Node000038_Node000040"><a xlink:title=" ">
<path fill="none" stroke="#63b8ff" d="M1209.74,-110.09C1231.82,-101.51 1265.25,-88.52 1290.17,-78.83"/>
<polygon fill="#63b8ff" stroke="#63b8ff" points="1291.14,-82.21 1299.19,-75.32 1288.6,-75.68 1291.14,-82.21"/>
</a>
</g>
</g>
<!-- Node41 -->
<g id="Node000041" class="node">
<title>Node41</title>
<g id="a_Node000041"><a xlink:title=" ">
<polygon fill="#e0e0e0" stroke="#999999" points="1094.5,-74.5 1048.5,-74.5 1048.5,-55.25 1094.5,-55.25 1094.5,-74.5"/>
<text text-anchor="middle" x="1071.5" y="-61" font-family="Helvetica,sans-Serif" font-size="10.00">TList.h</text>
</a>
</g>
</g>
<!-- Node38&#45;&gt;Node41 -->
<g id="edge51_Node000038_Node000041" class="edge">
<title>Node38&#45;&gt;Node41</title>
<g id="a_edge51_Node000038_Node000041"><a xlink:title=" ">
<path fill="none" stroke="#63b8ff" d="M1166.99,-110.09C1148.98,-101.75 1121.98,-89.25 1101.27,-79.66"/>
<polygon fill="#63b8ff" stroke="#63b8ff" points="1103.02,-76.61 1092.48,-75.59 1100.08,-82.97 1103.02,-76.61"/>
</a>
</g>
</g>
<!-- Node42 -->
<g id="Node000042" class="node">
<title>Node42</title>
<g id="a_Node000042"><a xlink:title=" ">
<polygon fill="#e0e0e0" stroke="#999999" points="1158.5,-74.5 1112.5,-74.5 1112.5,-55.25 1158.5,-55.25 1158.5,-74.5"/>
<text text-anchor="middle" x="1135.5" y="-61" font-family="Helvetica,sans-Serif" font-size="10.00">TKey.h</text>
</a>
</g>
</g>
<!-- Node38&#45;&gt;Node42 -->
<g id="edge52_Node000038_Node000042" class="edge">
<title>Node38&#45;&gt;Node42</title>
<g id="a_edge52_Node000038_Node000042"><a xlink:title=" ">
<path fill="none" stroke="#63b8ff" d="M1178.08,-110.33C1170.96,-102.9 1160.56,-92.04 1151.81,-82.91"/>
<polygon fill="#63b8ff" stroke="#63b8ff" points="1154.6,-80.75 1145.15,-75.95 1149.54,-85.6 1154.6,-80.75"/>
</a>
</g>
</g>
<!-- Node43&#45;&gt;Node23 -->
<g id="edge55_Node000043_Node000023" class="edge">
<title>Node43&#45;&gt;Node23</title>
<g id="a_edge55_Node000043_Node000023"><a xlink:title=" ">
<path fill="none" stroke="#63b8ff" d="M799.4,-165.26C836.33,-143.06 935.58,-85.82 1025.5,-55.25 1099.82,-29.98 1124.28,-36.19 1204.28,-19.61"/>
<polygon fill="#63b8ff" stroke="#63b8ff" points="1204.87,-23.06 1213.92,-17.55 1203.41,-16.22 1204.87,-23.06"/>
</a>
</g>
</g>
<!-- Node44 -->
<g id="Node000044" class="node">
<title>Node44</title>
<g id="a_Node000044"><a xlink:title=" ">
<polygon fill="#e0e0e0" stroke="#999999" points="783.38,-129.75 709.62,-129.75 709.62,-110.5 783.38,-110.5 783.38,-129.75"/>
<text text-anchor="middle" x="746.5" y="-116.25" font-family="Helvetica,sans-Serif" font-size="10.00">RtypesCore.h</text>
</a>
</g>
</g>
<!-- Node43&#45;&gt;Node44 -->
<g id="edge56_Node000043_Node000044" class="edge">
<title>Node43&#45;&gt;Node44</title>
<g id="a_edge56_Node000043_Node000044"><a xlink:title=" ">
<path fill="none" stroke="#63b8ff" d="M778.23,-165.58C773.14,-158.46 765.8,-148.18 759.47,-139.3"/>
<polygon fill="#63b8ff" stroke="#63b8ff" points="762.45,-137.45 753.79,-131.34 756.75,-141.51 762.45,-137.45"/>
</a>
</g>
</g>
</g>
</svg>
