<?xml version="1.0" encoding="UTF-8" standalone="no"?>
<!DOCTYPE svg PUBLIC "-//W3C//DTD SVG 1.1//EN"
 "http://www.w3.org/Graphics/SVG/1.1/DTD/svg11.dtd">
<!-- Generated by graphviz version 12.2.0 (20241103.1931)
 -->
<!-- Title: saveScriptOutput.C Pages: 1 -->
<svg width="1086pt" height="83pt"
 viewBox="0.00 0.00 1085.50 82.50" xmlns="http://www.w3.org/2000/svg" xmlns:xlink="http://www.w3.org/1999/xlink">
<g id="graph0" class="graph" transform="scale(1 1) rotate(0) translate(4 78.5)">
<title>saveScriptOutput.C</title>
<!-- Node1 -->
<g id="Node000001" class="node">
<title>Node1</title>
<g id="a_Node000001"><a xlink:title=" ">
<polygon fill="#999999" stroke="#666666" points="561.88,-74.5 461.12,-74.5 461.12,-55.25 561.88,-55.25 561.88,-74.5"/>
<text text-anchor="middle" x="511.5" y="-61" font-family="Helvetica,sans-Serif" font-size="10.00">saveScriptOutput.C</text>
</a>
</g>
</g>
<!-- Node2 -->
<g id="Node000002" class="node">
<title>Node2</title>
<g id="a_Node000002"><a xlink:title=" ">
<polygon fill="#e0e0e0" stroke="#999999" points="55,-19.25 0,-19.25 0,0 55,0 55,-19.25"/>
<text text-anchor="middle" x="27.5" y="-5.75" font-family="Helvetica,sans-Serif" font-size="10.00">TString.h</text>
</a>
</g>
</g>
<!-- Node1&#45;&gt;Node2 -->
<g id="edge1_Node000001_Node000002" class="edge">
<title>Node1&#45;&gt;Node2</title>
<g id="a_edge1_Node000001_Node000002"><a xlink:title=" ">
<path fill="none" stroke="#63b8ff" d="M460.94,-60.97C379.84,-55.84 215.5,-43.53 66.46,-19.35"/>
<polygon fill="#63b8ff" stroke="#63b8ff" points="67.23,-15.93 56.8,-17.76 66.09,-22.84 67.23,-15.93"/>
</a>
</g>
</g>
<!-- Node3 -->
<g id="Node000003" class="node">
<title>Node3</title>
<g id="a_Node000003"><a xlink:title=" ">
<polygon fill="#e0e0e0" stroke="#999999" points="135.75,-19.25 73.25,-19.25 73.25,0 135.75,0 135.75,-19.25"/>
<text text-anchor="middle" x="104.5" y="-5.75" font-family="Helvetica,sans-Serif" font-size="10.00">TSystem.h</text>
</a>
</g>
</g>
<!-- Node1&#45;&gt;Node3 -->
<g id="edge2_Node000001_Node000003" class="edge">
<title>Node1&#45;&gt;Node3</title>
<g id="a_edge2_Node000001_Node000003"><a xlink:title=" ">
<path fill="none" stroke="#63b8ff" d="M460.83,-59.19C391.98,-52.5 264.84,-39 146.91,-19.52"/>
<polygon fill="#63b8ff" stroke="#63b8ff" points="147.82,-16.12 137.38,-17.93 146.67,-23.03 147.82,-16.12"/>
</a>
</g>
</g>
<!-- Node4 -->
<g id="Node000004" class="node">
<title>Node4</title>
<g id="a_Node000004"><a xlink:title=" ">
<polygon fill="#e0e0e0" stroke="#999999" points="225.25,-19.25 153.75,-19.25 153.75,0 225.25,0 225.25,-19.25"/>
<text text-anchor="middle" x="189.5" y="-5.75" font-family="Helvetica,sans-Serif" font-size="10.00">TGWindow.h</text>
</a>
</g>
</g>
<!-- Node1&#45;&gt;Node4 -->
<g id="edge3_Node000001_Node000004" class="edge">
<title>Node1&#45;&gt;Node4</title>
<g id="a_edge3_Node000001_Node000004"><a xlink:title=" ">
<path fill="none" stroke="#63b8ff" d="M460.88,-56.18C407.62,-47.98 321.06,-34.37 236.46,-19.55"/>
<polygon fill="#63b8ff" stroke="#63b8ff" points="237.29,-16.14 226.83,-17.86 236.08,-23.04 237.29,-16.14"/>
</a>
</g>
</g>
<!-- Node5 -->
<g id="Node000005" class="node">
<title>Node5</title>
<g id="a_Node000005"><a xlink:title=" ">
<polygon fill="#e0e0e0" stroke="#999999" points="305.38,-19.25 243.62,-19.25 243.62,0 305.38,0 305.38,-19.25"/>
<text text-anchor="middle" x="274.5" y="-5.75" font-family="Helvetica,sans-Serif" font-size="10.00">TGClient.h</text>
</a>
</g>
</g>
<!-- Node1&#45;&gt;Node5 -->
<g id="edge4_Node000001_Node000005" class="edge">
<title>Node1&#45;&gt;Node5</title>
<g id="a_edge4_Node000001_Node000005"><a xlink:title=" ">
<path fill="none" stroke="#63b8ff" d="M471.03,-54.78C428.07,-45.13 360.47,-29.94 316.82,-20.13"/>
<polygon fill="#63b8ff" stroke="#63b8ff" points="317.73,-16.75 307.2,-17.97 316.19,-23.58 317.73,-16.75"/>
</a>
</g>
</g>
<!-- Node6 -->
<g id="Node000006" class="node">
<title>Node6</title>
<g id="a_Node000006"><a xlink:title=" ">
<polygon fill="#e0e0e0" stroke="#999999" points="377.62,-19.25 323.38,-19.25 323.38,0 377.62,0 377.62,-19.25"/>
<text text-anchor="middle" x="350.5" y="-5.75" font-family="Helvetica,sans-Serif" font-size="10.00">TClass.h</text>
</a>
</g>
</g>
<!-- Node1&#45;&gt;Node6 -->
<g id="edge5_Node000001_Node000006" class="edge">
<title>Node1&#45;&gt;Node6</title>
<g id="a_edge5_Node000001_Node000006"><a xlink:title=" ">
<path fill="none" stroke="#63b8ff" d="M484.19,-54.84C457.94,-46.16 418.02,-32.96 388.64,-23.24"/>
<polygon fill="#63b8ff" stroke="#63b8ff" points="389.98,-19.99 379.38,-20.18 387.78,-26.64 389.98,-19.99"/>
</a>
</g>
</g>
<!-- Node7 -->
<g id="Node000007" class="node">
<title>Node7</title>
<g id="a_Node000007"><a xlink:title=" ">
<polygon fill="#e0e0e0" stroke="#999999" points="465.12,-19.25 395.88,-19.25 395.88,0 465.12,0 465.12,-19.25"/>
<text text-anchor="middle" x="430.5" y="-5.75" font-family="Helvetica,sans-Serif" font-size="10.00">THashList.h</text>
</a>
</g>
</g>
<!-- Node1&#45;&gt;Node7 -->
<g id="edge6_Node000001_Node000007" class="edge">
<title>Node1&#45;&gt;Node7</title>
<g id="a_edge6_Node000001_Node000007"><a xlink:title=" ">
<path fill="none" stroke="#63b8ff" d="M497.76,-54.84C485.77,-46.96 468.13,-35.36 453.92,-26.02"/>
<polygon fill="#63b8ff" stroke="#63b8ff" points="455.85,-23.1 445.57,-20.53 452.01,-28.95 455.85,-23.1"/>
</a>
</g>
</g>
<!-- Node8 -->
<g id="Node000008" class="node">
<title>Node8</title>
<g id="a_Node000008"><a xlink:title=" ">
<polygon fill="#e0e0e0" stroke="#999999" points="540.12,-19.25 482.88,-19.25 482.88,0 540.12,0 540.12,-19.25"/>
<text text-anchor="middle" x="511.5" y="-5.75" font-family="Helvetica,sans-Serif" font-size="10.00">TROOT.h</text>
</a>
</g>
</g>
<!-- Node1&#45;&gt;Node8 -->
<g id="edge7_Node000001_Node000008" class="edge">
<title>Node1&#45;&gt;Node8</title>
<g id="a_edge7_Node000001_Node000008"><a xlink:title=" ">
<path fill="none" stroke="#63b8ff" d="M511.5,-55.08C511.5,-48.57 511.5,-39.42 511.5,-31.12"/>
<polygon fill="#63b8ff" stroke="#63b8ff" points="515,-31.12 511.5,-21.12 508,-31.12 515,-31.12"/>
</a>
</g>
</g>
<!-- Node9 -->
<g id="Node000009" class="node">
<title>Node9</title>
<g id="a_Node000009"><a xlink:title=" ">
<polygon fill="#e0e0e0" stroke="#999999" points="632.38,-19.25 558.62,-19.25 558.62,0 632.38,0 632.38,-19.25"/>
<text text-anchor="middle" x="595.5" y="-5.75" font-family="Helvetica,sans-Serif" font-size="10.00">TInterpreter.h</text>
</a>
</g>
</g>
<!-- Node1&#45;&gt;Node9 -->
<g id="edge8_Node000001_Node000009" class="edge">
<title>Node1&#45;&gt;Node9</title>
<g id="a_edge8_Node000001_Node000009"><a xlink:title=" ">
<path fill="none" stroke="#63b8ff" d="M525.75,-54.84C538.3,-46.89 556.83,-35.14 571.64,-25.75"/>
<polygon fill="#63b8ff" stroke="#63b8ff" points="573.33,-28.82 579.9,-20.51 569.58,-22.91 573.33,-28.82"/>
</a>
</g>
</g>
<!-- Node10 -->
<g id="Node000010" class="node">
<title>Node10</title>
<g id="a_Node000010"><a xlink:title=" ">
<polygon fill="#e0e0e0" stroke="#999999" points="732.88,-19.25 650.12,-19.25 650.12,0 732.88,0 732.88,-19.25"/>
<text text-anchor="middle" x="691.5" y="-5.75" font-family="Helvetica,sans-Serif" font-size="10.00">TRootCanvas.h</text>
</a>
</g>
</g>
<!-- Node1&#45;&gt;Node10 -->
<g id="edge9_Node000001_Node000010" class="edge">
<title>Node1&#45;&gt;Node10</title>
<g id="a_edge9_Node000001_Node000010"><a xlink:title=" ">
<path fill="none" stroke="#63b8ff" d="M542.03,-54.84C571.77,-46.04 617.19,-32.61 650.15,-22.86"/>
<polygon fill="#63b8ff" stroke="#63b8ff" points="650.77,-26.32 659.36,-20.13 648.78,-19.61 650.77,-26.32"/>
</a>
</g>
</g>
<!-- Node11 -->
<g id="Node000011" class="node">
<title>Node11</title>
<g id="a_Node000011"><a xlink:title=" ">
<polygon fill="#e0e0e0" stroke="#999999" points="813.75,-19.25 751.25,-19.25 751.25,0 813.75,0 813.75,-19.25"/>
<text text-anchor="middle" x="782.5" y="-5.75" font-family="Helvetica,sans-Serif" font-size="10.00">TCanvas.h</text>
</a>
</g>
</g>
<!-- Node1&#45;&gt;Node11 -->
<g id="edge10_Node000001_Node000011" class="edge">
<title>Node1&#45;&gt;Node11</title>
<g id="a_edge10_Node000001_Node000011"><a xlink:title=" ">
<path fill="none" stroke="#63b8ff" d="M559.56,-54.78C603.76,-46.36 671.4,-33.35 740.13,-19.5"/>
<polygon fill="#63b8ff" stroke="#63b8ff" points="740.58,-22.98 749.69,-17.57 739.19,-16.12 740.58,-22.98"/>
</a>
</g>
</g>
<!-- Node12 -->
<g id="Node000012" class="node">
<title>Node12</title>
<g id="a_Node000012"><a xlink:title=" ">
<polygon fill="#e0e0e0" stroke="#999999" points="931.12,-19.25 831.88,-19.25 831.88,0 931.12,0 931.12,-19.25"/>
<text text-anchor="middle" x="881.5" y="-5.75" font-family="Helvetica,sans-Serif" font-size="10.00">TVirtualViewer3D.h</text>
</a>
</g>
</g>
<!-- Node1&#45;&gt;Node12 -->
<g id="edge11_Node000001_Node000012" class="edge">
<title>Node1&#45;&gt;Node12</title>
<g id="a_edge11_Node000001_Node000012"><a xlink:title=" ">
<path fill="none" stroke="#63b8ff" d="M562.14,-56.65C621.41,-48.19 722.85,-33.67 820.35,-19.56"/>
<polygon fill="#63b8ff" stroke="#63b8ff" points="820.71,-23.04 830.11,-18.14 819.71,-16.11 820.71,-23.04"/>
</a>
</g>
</g>
<!-- Node13 -->
<g id="Node000013" class="node">
<title>Node13</title>
<g id="a_Node000013"><a xlink:title=" ">
<polygon fill="#e0e0e0" stroke="#999999" points="995.5,-19.25 949.5,-19.25 949.5,0 995.5,0 995.5,-19.25"/>
<text text-anchor="middle" x="972.5" y="-5.75" font-family="Helvetica,sans-Serif" font-size="10.00">TEnv.h</text>
</a>
</g>
</g>
<!-- Node1&#45;&gt;Node13 -->
<g id="edge12_Node000001_Node000013" class="edge">
<title>Node1&#45;&gt;Node13</title>
<g id="a_edge12_Node000001_Node000013"><a xlink:title=" ">
<path fill="none" stroke="#63b8ff" d="M562.07,-61.24C640.63,-56.56 796.84,-44.99 938.17,-19.4"/>
<polygon fill="#63b8ff" stroke="#63b8ff" points="938.49,-22.9 947.69,-17.65 937.22,-16.02 938.49,-22.9"/>
</a>
</g>
</g>
<!-- Node14 -->
<g id="Node000014" class="node">
<title>Node14</title>
<g id="a_Node000014"><a xlink:title=" ">
<polygon fill="#e0e0e0" stroke="#999999" points="1077.5,-19.25 1013.5,-19.25 1013.5,0 1077.5,0 1077.5,-19.25"/>
<text text-anchor="middle" x="1045.5" y="-5.75" font-family="Helvetica,sans-Serif" font-size="10.00">TVirtualX.h</text>
</a>
</g>
</g>
<!-- Node1&#45;&gt;Node14 -->
<g id="edge13_Node000001_Node000014" class="edge">
<title>Node1&#45;&gt;Node14</title>
<g id="a_edge13_Node000001_Node000014"><a xlink:title=" ">
<path fill="none" stroke="#63b8ff" d="M562.12,-61.25C649.78,-56.29 835.66,-43.88 1002.38,-19.39"/>
<polygon fill="#63b8ff" stroke="#63b8ff" points="1002.46,-22.92 1011.84,-17.99 1001.43,-16 1002.46,-22.92"/>
</a>
</g>
</g>
</g>
</svg>
