/* XPM */
static char *hdb_t[]={
"16 16 138 2",
"Qt c None",
"#I c #020204",
"#U c #3b3b3c",
".# c #3c382d",
".z c #3c391b",
".K c #4a4819",
"#4 c #4a4919",
"ah c #4b4a19",
"#z c #595944",
"#J c #5e5d46",
"#q c #65612a",
"#T c #6b672f",
".f c #6c6459",
".o c #6c645a",
"#V c #6d6a4d",
"#5 c #6f682f",
"ab c #6f6933",
".g c #706d5e",
"#g c #706d60",
"#1 c #727272",
".n c #737151",
".a c #747475",
".e c #767357",
".L c #767364",
"ag c #787875",
"#O c #797979",
".p c #80807c",
".8 c #978778",
".M c #979796",
"a. c #9b9a81",
"#f c #9c9a64",
"#0 c #9f9e82",
"#C c #a26363",
"#D c #ab2c2c",
"#A c #aca582",
".b c #adadad",
"ac c #afac60",
"#W c #b0ac64",
".m c #b1a986",
"#6 c #b1ab66",
"#K c #b2ad68",
"af c #b3b3ad",
".c c #b5b294",
".7 c #b5b295",
".q c #bfbfb6",
"#r c #c1bb93",
".W c #c1bda5",
".A c #c1bdab",
"#h c #c2827a",
"aa c #c2bd58",
"#B c #c3c3ac",
".X c #c5b28c",
"#H c #c6c366",
".B c #cac2a7",
"#s c #cb0c0c",
"a# c #d1c28f",
"#P c #d51616",
"#N c #dcd9b7",
"#Z c #e0e0bf",
".6 c #e3df7d",
".y c #e7dda4",
"#x c #ebe483",
".9 c #ee632a",
"#y c #eeeb8a",
".2 c #f2ed88",
".l c #f4f1c0",
"#3 c #f5f382",
"ad c #f5f48f",
"#M c #f5f4bf",
".d c #f5f4cd",
"#9 c #f6ef90",
"#o c #f6ef9b",
"#R c #f7b168",
".I c #f7e586",
"#l c #f8a87a",
"#u c #f8d8b1",
".5 c #f8e284",
"#2 c #f8e59a",
".G c #f8e898",
"#7 c #f8f3a0",
"ae c #f8f495",
".Q c #f8f4a7",
".R c #f8f597",
"#S c #f8f59e",
".N c #f8f7d8",
"#X c #f9f5ab",
".V c #f9f8a4",
"#E c #fa764c",
"#p c #faea96",
".t c #faeaac",
".i c #faefb6",
".C c #faf2ca",
".x c #faf8be",
".J c #fafba4",
".v c #fbf2ad",
".j c #fcf1c8",
".w c #fcf5ad",
"#Y c #fcf9b3",
".U c #fdec9b",
"#F c #fdf09d",
"#e c #fdf29e",
".H c #fdf3af",
"#G c #fdf5a2",
".4 c #fdf8af",
"#8 c #fdfca6",
"## c #fe4545",
"#j c #fe6d58",
".1 c #fe6f6d",
".0 c #fe9d88",
"#a c #fe9e86",
".Z c #fe9f9f",
"#m c #fead88",
"#b c #fead8f",
".Y c #fead97",
".D c #feada6",
".E c #feae92",
"#v c #febe9d",
"#Q c #fecdb6",
"#. c #fedbb1",
".O c #feeee7",
".u c #fef1bb",
"#w c #fef2a2",
"#n c #fef6a2",
".3 c #fef89a",
"#d c #fef8a7",
"#c c #fef8b1",
".h c #fef8d2",
".S c #fefcb3",
".F c #fefdd2",
"#L c #fefeab",
".T c #fefec9",
".k c #fefeda",
".s c #fefeea",
".r c #fefef6",
"#t c #ff0000",
"#i c #ff3030",
".P c #ff6060",
"#k c #ff9090",
"QtQtQtQtQtQt.#.aQtQtQtQtQtQtQtQt",
"QtQtQtQtQt.b.c.d.e.f.a.bQtQtQtQt",
"QtQtQtQtQt.g.h.i.j.k.l.m.n.o.aQt",
"QtQtQtQtQt.p.q.r.s.t.u.v.w.x.y.z",
"QtQtQtQt.a.A.B.C.D.E.F.G.H.I.J.K",
"QtQtQtQt.L.M.N.O.P.Q.R.S.T.U.V.a",
"QtQtQt.a.W.X.Y.Z.0.1.2.3.4.5.6.a",
"QtQt.b.7.8.9#.###a#b.3#c#d#e#f.b",
"QtQt#g#h.9#i#j#k.P#l#m#n#o#p#qQt",
"Qt.a#r#s#t#t#t#i#u.P#v#w#x#y#zQt",
".b#A#B#C#D#t#t#t#i#k#E#F#G#H#I.a",
"#J#K#L#M#N#O#D#P#t.P#Q#R#S#T#I#U",
"Qt.b#V#W#X#Y#Z#0#1#D#i#2#3#4#IQt",
"QtQtQt.b.a#5#6#7#8#9a.a#aa#I.bQt",
"QtQtQtQtQtQt.b.aabacadae.K.bQtQt",
"QtQtQtQtQtQtQtQtQtafagah.bQtQtQt"};
