/* XPM */
static char *RAD1D_3[]={
"32 32 116 2",
"Qt c None",
".# c #020204",
"#W c #121204",
"#V c #1a1a04",
".L c #303030",
"#v c #585858",
".2 c #7b7824",
"#q c #7b7b24",
"#X c #7f7f24",
".y c #808080",
"#A c #8e8a2c",
"#C c #a0a0a0",
".W c #aca43a",
"#K c #aca83a",
"#I c #c3c3c3",
".i c #c6a876",
".q c #c6a87d",
"#R c #c6bb42",
"#F c #cabe49",
"#s c #cdc251",
".d c #d8ca8c",
"#l c #d8ca94",
"#t c #d8ca9b",
".c c #dcd894",
"#m c #dcdcdc",
"#b c #dec654",
"#o c #deda64",
"#E c #e0dc6e",
"#n c #e2d264",
"#. c #e4dc67",
".S c #e6d264",
"#T c #e7dc60",
"#S c #e7e06e",
".4 c #e7e46e",
"#L c #ebdc85",
".a c #ebdcaa",
".K c #ebe060",
".7 c #ebe785",
"#w c #eeda64",
"#r c #eeeea4",
"#O c #efe06e",
"#U c #efe47d",
".D c #efe794",
".x c #efebaa",
"#p c #efef6e",
".1 c #eff69b",
".Z c #f2ce74",
"#M c #f2ee7c",
"#N c #f2ef6e",
"#Q c #f2f28c",
"#j c #f6c674",
".l c #f6e294",
".z c #f6e684",
"#H c #f6eaa2",
".t c #f6eaa4",
"#z c #f6f28c",
"#h c #f6f2b1",
".6 c #fad25c",
".R c #fade7c",
".T c #fae274",
".H c #fae28c",
"#x c #fae684",
"#d c #fae68c",
".G c #fae694",
"#D c #faea93",
".8 c #faee94",
".P c #faee9c",
".h c #faf2c0",
".I c #faf694",
"#i c #fafec4",
"#c c #fe5654",
"#f c #febea4",
".0 c #fee274",
".E c #fee2ac",
".9 c #fee694",
".r c #fee6a4",
".u c #fee6ac",
".A c #feee9c",
"#a c #feeea4",
".Q c #fef2a4",
"#P c #fef2aa",
"#B c #fef69b",
".5 c #fef6a2",
"#e c #fef6aa",
".J c #fef6c0",
".m c #fef6d4",
".F c #fef6d7",
".X c #fef6dc",
".Y c #fef6de",
".V c #fefa94",
".O c #fefa9b",
"#y c #fefab1",
".s c #fefacc",
".B c #fefad7",
"## c #fefe85",
"#G c #fefe8c",
"#J c #fefe94",
".U c #fefe9b",
"#u c #fefea2",
".3 c #fefeaa",
"#k c #fefeb1",
".p c #fefeb9",
".v c #fefebc",
".w c #fefec0",
".C c #fefec8",
".b c #fefecf",
".k c #fefed4",
".j c #fefed7",
"#g c #fefedc",
".o c #fefede",
".f c #fefee5",
".g c #fefeed",
".e c #fefef4",
".n c #fefefc",
".N c #ff0000",
".M c #ffc0c0",
"QtQtQtQtQtQtQtQtQtQtQtQt.#.#QtQtQtQtQtQtQtQtQtQtQtQtQtQtQtQtQtQt",
"QtQtQtQtQtQtQtQtQtQtQtQt.#.a.#.#QtQtQtQtQtQtQtQtQtQtQtQtQtQtQtQt",
"QtQtQtQtQtQtQtQtQtQtQtQt.#.b.b.c.#.#.#QtQtQtQtQtQtQtQtQtQtQtQtQt",
"QtQtQtQtQtQtQtQtQtQtQt.#.d.e.f.g.h.c.i.#.#.#.#QtQtQtQtQtQtQtQtQt",
"QtQtQtQtQtQtQtQtQtQtQt.#.j.k.l.m.n.f.g.o.p.d.q.#.#.#.#QtQtQtQtQt",
"QtQtQtQtQtQtQtQtQtQt.#.d.n.r.s.t.l.u.v.f.f.j.j.w.x.c.q.#.#.#QtQt",
"QtQtQtQtQtQtQtQtQtQt.#.g.f.y.e.n.g.f.l.z.A.B.b.b.C.b.C.D.c.q.#.#",
"QtQtQtQtQtQtQtQtQtQt.#.n.y.e.n.g.e.f.E.g.F.r.z.G.H.I.j.C.w.J.K.#",
"QtQtQtQtQtQtQtQtQt.#.d.n.L.r.e.n.n.M.N.O.o.f.z.P.Q.R.S.T.U.V.W.#",
"QtQtQtQtQtQtQtQtQt.#.e.L.X.g.t.l.Y.N.M.g.g.O.Z.b.j.C.b.0.1.C.2.#",
"QtQtQtQtQtQtQtQt.#.d.n.L.n.n.n.g.M.N.O.e.O.O.O.j.b.w.j.0.3.3.#Qt",
"QtQtQtQtQtQtQtQt.#.n.L.n.n.4.e.M.N.M.4.5.4.v.O.w.b.C.C.6.p.7.#Qt",
"QtQtQtQtQtQtQt.#.d.g.L.4.M.n.n.M.N.M.e.N.4.4.5.5.5.8.9.S.3#..#Qt",
"QtQtQtQtQtQtQt.#.g.L.m.M.N.5.M.N.M.5.N.M.5.5##.5.w.C.0#a.3.W.#Qt",
"QtQtQtQtQtQt.#.j.o.L#b.N.M.5#c.N.M.O.N.5.5##.5.5.p.5#d#e.p.2.#Qt",
"QtQtQtQtQt.#.d.g.L#f#b.N.5.M.N.M.M.N.M#g.5.5.5.o.5.5.5.5#h.#QtQt",
"QtQtQtQtQt.#.o.L#b#b.N.M.5.M.N.M.M.N.v.M.N.5.5.5.5#i#j#k#..#QtQt",
"QtQtQtQt.##l#m.N.N.N.N.N.N.N.M.M.N.M.4.N.M.w.5.5.5#n.z#k.W.#QtQt",
"QtQtQt.##l.J.L.N.N.N.N.N.N.N.M.N.M.4.M.N.o.C.5.5.5#o.3#p#q.#QtQt",
"QtQtQt.#.C.L.N.N.N.N.N.N.N.N.N.N.M.j.N.M.b.N.5.r#r#n.w#s.#QtQtQt",
"QtQt.##t#u#v#v.N.N.N.N.N.N.N.N.N.M.N.N.M.b.N.9.v.5.8#k.W.#.#QtQt",
"Qt.##t.b#m#m#m#v#v#v.N.N.N.N.N.N.N.N.M.M.N#w#x.5.5#y#z.2.#.#.#.#",
".##A#B.p.p.p#y#m#m#C#v#v.N.N.N.N.N.N.M.N.M#B#D.5.5#k#E.#.#.#.#.#",
"Qt.#.##F#G#k.p.p.w#H#m#v#v#v#v.N.N.N.N.M.M.M.N.4.4.p#F.#.#.#.#Qt",
"QtQtQt.#.##F#z.p.C.p.3#H#I#I#v#v#v#v.N.N.M.N.5.4.4#J#K.#.#.#QtQt",
"QtQtQtQtQt.#.##F#L.3.w.w.w.p#M#m#I#v#v#v.N.N.M.O.U#N.2.#.#.#QtQt",
"QtQtQtQtQtQtQt.#.#.##F#O#P.3#k.p.3.I#b.O#v#v.M#Q#u.W.#.#.#QtQtQt",
"QtQtQtQtQtQtQtQtQtQt.#.#.##R#S#P#k.3#k#u.I#I#v.U#T.2.#.#QtQtQtQt",
"QtQtQtQtQtQtQtQtQtQtQtQtQt.#.#.##F#U#Q.3.3.U#u.5.W.#.#QtQtQtQtQt",
"QtQtQtQtQtQtQtQtQtQtQtQtQtQtQtQt.#.#.##F.4#Q#u#S#q.#QtQtQtQtQtQt",
"QtQtQtQtQtQtQtQtQtQtQtQtQtQtQtQtQtQtQt#V#W.##K#X.#QtQtQtQtQtQtQt",
"QtQtQtQtQtQtQtQtQtQtQtQtQtQtQtQtQtQtQtQtQtQt.#.#QtQtQtQtQtQtQtQt"};
